<?xml version="1.0" encoding="UTF-8"?>
<svg version="1.1" xmlns="http://www.w3.org/2000/svg" width="640" height="640">
<path d="M0 0 C211.2 0 422.4 0 640 0 C640 211.2 640 422.4 640 640 C428.8 640 217.6 640 0 640 C0 428.8 0 217.6 0 0 Z " fill="#FEFEFE" transform="translate(0,0)"/>
<path d="M0 0 C2.69042969 1.1105957 2.69042969 1.1105957 5.421875 2.67578125 C6.43942871 3.25150879 7.45698242 3.82723633 8.50537109 4.42041016 C10.1114624 5.35699463 10.1114624 5.35699463 11.75 6.3125 C13.40443115 7.26068604 13.40443115 7.26068604 15.09228516 8.22802734 C18.404732 10.1356011 21.7040796 12.06403698 25 14 C25.94907227 14.55381348 26.89814453 15.10762695 27.87597656 15.67822266 C30.38379114 17.14732195 32.88195747 18.63099612 35.375 20.125 C36.11073242 20.56110596 36.84646484 20.99721191 37.60449219 21.4465332 C38.27899414 21.85863037 38.95349609 22.27072754 39.6484375 22.6953125 C40.22770996 23.04609863 40.80698242 23.39688477 41.40380859 23.75830078 C44.18531261 25.92207096 45.82864076 27.9314378 46.39440918 31.4594574 C46.40282837 32.37703323 46.41124756 33.29460907 46.41992188 34.23999023 C46.43583374 35.28464951 46.45174561 36.32930878 46.46813965 37.40562439 C46.46844177 39.09009422 46.46844177 39.09009422 46.46875 40.80859375 C46.47636353 41.96746597 46.48397705 43.1263382 46.49182129 44.32032776 C46.50262447 46.77057745 46.50547453 49.2208732 46.50097656 51.67114258 C46.50000448 55.42021465 46.54162281 59.16723919 46.5859375 62.91601562 C46.5911446 65.29687073 46.59383269 67.67773295 46.59375 70.05859375 C46.61014526 71.17954941 46.62654053 72.30050507 46.64343262 73.45542908 C46.57424888 81.24567493 46.57424888 81.24567493 43.63867188 85.10180664 C42.76791016 85.72821045 41.89714844 86.35461426 41 87 C40.071875 87.763125 39.14375 88.52625 38.1875 89.3125 C37.1046875 90.1478125 37.1046875 90.1478125 36 91 C36.34144043 91.44166504 36.68288086 91.88333008 37.03466797 92.33837891 C44.56024694 102.08759629 51.92316612 111.91990479 59 122 C61.31371943 120.85657478 63.62599677 119.71038936 65.9375 118.5625 C66.59685547 118.23701172 67.25621094 117.91152344 67.93554688 117.57617188 C71.18290035 116.10888654 71.18290035 116.10888654 74 114 C83.26662318 112.15520332 90.1159796 116.80918331 97.6875 121.4375 C98.932456 122.17861661 100.17847589 122.91794889 101.42553711 123.65551758 C103.86254887 125.10096101 106.29203827 126.55787887 108.71582031 128.02539062 C111.47641781 129.6851968 114.25203596 131.30342692 117.0546875 132.890625 C118.39072129 133.65608195 119.72666963 134.4216881 121.0625 135.1875 C122.71958984 136.13689453 122.71958984 136.13689453 124.41015625 137.10546875 C127.2980824 139.21805424 128.40263101 140.82207906 130 144 C130.38095093 146.54174805 130.38095093 146.54174805 130.38818359 149.26171875 C130.39764008 150.28628174 130.40709656 151.31084473 130.4168396 152.36645508 C130.40773056 154.01037231 130.40773056 154.01037231 130.3984375 155.6875 C130.40130768 156.82276123 130.40417786 157.95802246 130.40713501 159.12768555 C130.40917402 161.52490743 130.4036556 163.922146 130.39111328 166.31933594 C130.37505819 169.98670691 130.39096841 173.65297577 130.41015625 177.3203125 C130.40817379 179.6510441 130.40433006 181.98177501 130.3984375 184.3125 C130.40451019 185.40844482 130.41058289 186.50438965 130.4168396 187.63354492 C130.40738312 188.65810791 130.39792664 189.6826709 130.38818359 190.73828125 C130.38579681 191.63587158 130.38341003 192.53346191 130.38095093 193.45825195 C129.91161942 196.58968531 128.84946622 198.44582227 127 201 C124.65991673 202.62300857 122.42014351 204.01052487 119.9375 205.375 C118.41352033 206.23341317 116.89012269 207.09286014 115.3671875 207.953125 C114.5225293 208.42685547 113.67787109 208.90058594 112.80761719 209.38867188 C109.65209527 211.19966706 106.5498253 213.08732258 103.4453125 214.984375 C101.72245448 216.02296379 99.99784773 217.0585649 98.27224731 218.09259033 C96.59428983 219.1058041 94.92869552 220.13940239 93.26342773 221.17333984 C86.80593608 225.00493283 81.58175495 227.48304462 74 226 C72.31746706 225.37445613 70.64581056 224.71660995 69 224 C66.99914085 228.49927237 65.00551856 233.00165399 63.01855469 237.50708008 C62.34150311 239.03953407 61.66247717 240.57111735 60.98144531 242.10180664 C60.00326321 244.30129044 59.03220858 246.50380094 58.0625 248.70703125 C57.75626709 249.39150833 57.45003418 250.07598541 57.13452148 250.78120422 C55.85837302 253.69708333 55 255.78014511 55 259 C55.95261719 259.51949219 56.90523438 260.03898437 57.88671875 260.57421875 C59.15389159 261.27820366 60.42080498 261.98265572 61.6875 262.6875 C62.62625977 263.19700195 62.62625977 263.19700195 63.58398438 263.71679688 C68.18697834 266.29543747 72.56800684 269.13601367 75 274 C75.11049526 275.63241996 75.15913128 277.26921575 75.17700195 278.90527344 C75.18983719 279.92683533 75.20267242 280.94839722 75.21589661 282.00091553 C75.22697701 283.66335297 75.22697701 283.66335297 75.23828125 285.359375 C75.246353 286.4965094 75.25442474 287.6336438 75.26274109 288.80523682 C75.27659098 291.21617097 75.28730907 293.62712481 75.29516602 296.03808594 C75.31236496 299.7210828 75.3562429 303.40317903 75.40039062 307.0859375 C75.41051853 309.42707672 75.41903433 311.76822359 75.42578125 314.109375 C75.44328934 315.2095697 75.46079742 316.3097644 75.47883606 317.44329834 C75.46188911 323.43394404 75.29090343 327.41898689 71 332 C68.45727539 333.83935547 68.45727539 333.83935547 65.59765625 335.3671875 C64.54763428 335.93937012 63.4976123 336.51155273 62.41577148 337.10107422 C61.30919189 337.68646973 60.2026123 338.27186523 59.0625 338.875 C56.80357897 340.10212825 54.54575559 341.33127936 52.2890625 342.5625 C51.2052832 343.1503125 50.12150391 343.738125 49.00488281 344.34375 C43.53995497 347.35594292 38.25447279 350.63630171 33 354 C33.18175781 354.52207031 33.36351562 355.04414063 33.55078125 355.58203125 C34.39252825 358.04683913 35.19700944 360.52230391 36 363 C36.28617187 363.83144531 36.57234375 364.66289062 36.8671875 365.51953125 C40.62561461 377.45701163 40.3272633 389.61011496 35 401 C33.19534195 404.17021481 31.1936904 407.08914159 29 410 C28.4225 410.86625 27.845 411.7325 27.25 412.625 C18.78538754 421.55986871 7.35286186 426.5351978 -4.89355469 427.14379883 C-13.40360406 427.14585705 -21.7864758 426.5321183 -30.25 425.6875 C-31.66729832 425.55058041 -33.08461639 425.41386508 -34.50195312 425.27734375 C-43.84075647 424.36661945 -53.15555155 423.29599403 -62.46557617 422.12792969 C-71.84849514 420.96989925 -81.25316812 420.10213888 -90.66714478 419.24612427 C-99.20944661 418.46827417 -107.71814904 417.61363957 -116.21875 416.45703125 C-119.20241136 416.09640276 -122.16184657 415.81087672 -125.15625 415.57421875 C-142.61399699 414.18484788 -156.37487395 411.43332386 -168.875 398.125 C-178.86492959 385.95501383 -180.45473524 372.19423259 -179 357 C-177.76261192 351.77976904 -175.94927063 347.04756877 -172.20385742 343.11328125 C-164.22238462 334.52774242 -166.18369184 322.61471977 -166.375 311.6875 C-166.41931378 308.52460388 -166.45306026 305.36312227 -166.45645142 302.1999054 C-166.4593802 300.24088068 -166.48596994 298.28170824 -166.53939819 296.32341003 C-166.55468246 291.72219387 -166.53204158 289.69085913 -163.64697266 285.94458008 C-161.13122561 284.09640398 -158.9687947 282.93304976 -156 282 C-158.58872375 277.27868918 -161.34703657 273.05666368 -164.6875 268.8125 C-165.56430307 267.68789042 -166.44059264 266.56288032 -167.31640625 265.4375 C-167.75871582 264.87160156 -168.20102539 264.30570312 -168.65673828 263.72265625 C-170.83165842 260.93344568 -172.98502047 258.12858026 -175.125 255.3125 C-175.87007813 254.33925781 -176.61515625 253.36601562 -177.3828125 252.36328125 C-179 250 -179 250 -179 248 C-180.051875 248.58007812 -180.051875 248.58007812 -181.125 249.171875 C-183.09558892 250.25355696 -185.06974452 251.32875922 -187.046875 252.3984375 C-188.79495784 253.34647184 -190.53719865 254.3056475 -192.265625 255.2890625 C-193.24789062 255.82660156 -193.24789062 255.82660156 -194.25 256.375 C-194.81203125 256.69210937 -195.3740625 257.00921875 -195.953125 257.3359375 C-200.37633039 258.77094688 -203.38974113 258.70251637 -207.61669922 256.85839844 C-210.73229503 255.21177068 -213.77456274 253.4733565 -216.8125 251.6875 C-217.91166748 251.05392578 -219.01083496 250.42035156 -220.14331055 249.76757812 C-223.4379403 247.86014829 -226.71891843 245.9306118 -230 244 C-231.83298277 242.94340203 -233.66628822 241.88736353 -235.5 240.83203125 C-237.10548033 239.89025671 -238.70973707 238.94639175 -240.3125 238 C-241.40365112 237.37097778 -241.40365112 237.37097778 -242.5168457 236.72924805 C-243.18804443 236.32359619 -243.85924316 235.91794434 -244.55078125 235.5 C-245.12481689 235.1596875 -245.69885254 234.819375 -246.2902832 234.46875 C-249.72013809 231.52229748 -251.70172795 228.97367837 -252.37840271 224.49609375 C-252.54612202 221.40719299 -252.58051296 218.34345158 -252.56640625 215.25 C-252.57260483 214.11852539 -252.57880341 212.98705078 -252.58518982 211.82128906 C-252.5922789 209.43425353 -252.58913001 207.04716845 -252.57641602 204.66015625 C-252.56254598 201.01209433 -252.59664426 197.36659567 -252.63476562 193.71875 C-252.63571682 191.39583271 -252.63385799 189.07291221 -252.62890625 186.75 C-252.64216446 185.66235352 -252.65542267 184.57470703 -252.66908264 183.45410156 C-252.56553225 175.01630481 -252.56553225 175.01630481 -249.81811523 171.48974609 C-247.06551978 169.05788536 -244.48652231 167.19951087 -241.28125 165.4140625 C-240.18949463 164.7967627 -239.09773926 164.17946289 -237.97290039 163.54345703 C-236.82684326 162.91036621 -235.68078613 162.27727539 -234.5 161.625 C-232.73325047 160.63247151 -230.96886201 159.63583651 -229.2046051 158.6388855 C-227.49560897 157.67362652 -225.78468617 156.71178129 -224.07373047 155.75 C-219.37030083 153.07214586 -214.78962185 150.22256574 -210.22265625 147.3203125 C-206.0712627 144.85428259 -202.76331831 144.61586143 -198 145 C-194.88943638 146.13246275 -191.96212122 147.53030993 -189 149 C-188.62230469 147.77925781 -188.24460938 146.55851563 -187.85546875 145.30078125 C-185.39088205 137.90122554 -182.00195535 130.88384935 -178.76367188 123.79882812 C-178.28091797 122.72439453 -177.79816406 121.64996094 -177.30078125 120.54296875 C-176.63816284 119.0892688 -176.63816284 119.0892688 -175.9621582 117.60620117 C-174.76911171 114.83761457 -174.76911171 114.83761457 -175 111 C-175.95261719 110.49210937 -176.90523438 109.98421875 -177.88671875 109.4609375 C-179.15400376 108.76627757 -180.42091094 108.07092806 -181.6875 107.375 C-182.31333984 107.04371094 -182.93917969 106.71242188 -183.58398438 106.37109375 C-184.50727539 105.85869141 -184.50727539 105.85869141 -185.44921875 105.3359375 C-186.00955811 105.03220215 -186.56989746 104.7284668 -187.1472168 104.41552734 C-190.88911344 101.55671633 -193.5887522 99.24143953 -194.45365906 94.52740479 C-194.6285676 91.48460067 -194.64049358 88.48110023 -194.59375 85.43359375 C-194.59379028 84.32194351 -194.59383057 83.21029327 -194.59387207 82.06495667 C-194.58852262 79.72073699 -194.57096482 77.37651743 -194.54199219 75.0324707 C-194.50010185 71.44621965 -194.50092918 67.86184536 -194.5078125 64.27539062 C-194.49732081 61.99477863 -194.48438282 59.7141763 -194.46875 57.43359375 C-194.46854858 56.36265976 -194.46834717 55.29172577 -194.46813965 54.18833923 C-194.31940642 44.82873591 -194.31940642 44.82873591 -191 41 C-188.65998917 39.37704167 -186.41986281 37.98980272 -183.9375 36.625 C-182.41758644 35.76630134 -180.89808364 34.9068754 -179.37890625 34.046875 C-178.11264404 33.3362793 -178.11264404 33.3362793 -176.82080078 32.61132812 C-174.21751594 31.12425179 -171.63998615 29.59964688 -169.07038879 28.0552063 C-166.75450382 26.66399679 -164.43127685 25.28530604 -162.10745239 23.90740967 C-160.39944617 22.88956805 -158.69952361 21.85820095 -156.99975586 20.82666016 C-155.9350708 20.20065918 -154.87038574 19.5746582 -153.7734375 18.9296875 C-152.35683838 18.08253174 -152.35683838 18.08253174 -150.91162109 17.21826172 C-146.83880522 15.51414037 -143.15154725 15.27544492 -138.93383789 16.69580078 C-138.36914795 17.02563965 -137.80445801 17.35547852 -137.22265625 17.6953125 C-136.22226318 18.26439331 -136.22226318 18.26439331 -135.20166016 18.8449707 C-134.4957373 19.26738037 -133.78981445 19.68979004 -133.0625 20.125 C-132.30759277 20.56223389 -131.55268555 20.99946777 -130.77490234 21.44995117 C-129.10405536 22.41972591 -127.43691255 23.39590245 -125.77294922 24.37744141 C-122.7418439 26.151057 -119.6875209 27.87975555 -116.62890625 29.60546875 C-114.46044644 30.84028389 -112.29247276 32.07595311 -110.125 33.3125 C-109.08480713 33.89854004 -108.04461426 34.48458008 -106.97290039 35.08837891 C-105.50518188 35.93601807 -105.50518188 35.93601807 -104.0078125 36.80078125 C-103.13785645 37.29747314 -102.26790039 37.79416504 -101.37158203 38.3059082 C-98.60245346 40.28397935 -96.84976676 42.14047385 -95 45 C-94.609375 47.67578125 -94.609375 47.67578125 -94.75 50.3125 C-94.78609375 51.19550781 -94.8221875 52.07851562 -94.859375 52.98828125 C-94.90578125 53.65214844 -94.9521875 54.31601563 -95 55 C-94.01193359 54.87882812 -93.02386719 54.75765625 -92.00585938 54.6328125 C-88.30884426 54.18072011 -84.61108792 53.73495706 -80.91308594 53.29101562 C-79.31847866 53.09870767 -77.72407207 52.90472743 -76.12988281 52.70898438 C-73.82669123 52.42649029 -71.52282371 52.15019528 -69.21875 51.875 C-68.51633179 51.78750488 -67.81391357 51.70000977 -67.09020996 51.60986328 C-62.36252774 51.05317121 -57.76071983 50.92532204 -53 51 C-53.03927612 50.09290283 -53.03927612 50.09290283 -53.0793457 49.16748047 C-53.18385816 46.40358903 -53.24849273 43.640114 -53.3125 40.875 C-53.3753418 39.44800781 -53.3753418 39.44800781 -53.43945312 37.9921875 C-53.51640927 33.5595134 -53.3921965 30.72223687 -51.25 26.77734375 C-46.85871725 22.43487886 -41.03791786 19.65408712 -35.6875 16.6875 C-34.51348164 16.02752796 -33.33998156 15.36663314 -32.16699219 14.70483398 C-29.84848627 13.39834753 -27.52666393 12.09847618 -25.20263672 10.80175781 C-22.42812814 9.2408588 -19.67919229 7.64753832 -16.94140625 6.0234375 C-16.21928955 5.59973877 -15.49717285 5.17604004 -14.75317383 4.73950195 C-13.4626371 3.98122315 -12.1768753 3.21472833 -10.8972168 2.43823242 C-7.03034226 0.20412336 -4.42596543 -0.3626374 0 0 Z " fill="#082C77" transform="translate(380,102)"/>
<path d="M0 0 C1.20664558 0.00213753 1.20664558 0.00213753 2.43766785 0.00431824 C10.96464085 0.08767619 19.34251855 0.97535875 27.80078125 1.98828125 C30.21787866 2.26826634 32.63529356 2.54537678 35.05276489 2.82211304 C36.67372962 3.00780359 38.29456065 3.19466523 39.91525269 3.38272095 C45.11020206 3.98064032 50.30727712 4.50295019 55.515625 4.96875 C57.479552 5.14990356 57.479552 5.14990356 59.4831543 5.3347168 C61.90935184 5.55507945 64.33659291 5.7643609 66.76489258 5.96020508 C75.2122049 6.75165259 82.55341883 8.18198536 88.42578125 14.67578125 C94.87862101 22.76481114 93.14031333 31.4037671 92.23828125 41.17578125 C92.17640625 42.01367188 92.11453125 42.8515625 92.05078125 43.71484375 C91.24229164 52.41958186 88.70700407 59.33042529 81.96484375 65.08203125 C79.38028231 66.51222335 76.89045023 66.74028348 73.98828125 67.17578125 C73.91311279 68.26125244 73.91311279 68.26125244 73.83642578 69.36865234 C72.94068695 82.18320168 72.04029799 94.97280378 70.453125 107.72265625 C70.35511597 108.72752075 70.35511597 108.72752075 70.25512695 109.75268555 C70.04619971 111.64985196 69.76058056 113.53860219 69.44604492 115.42114258 C67.94380348 126.9596678 71.31797278 134.25078329 76.42578125 144.36328125 C77.20780388 145.97383559 77.98597153 147.58626681 78.76049805 149.20043945 C79.9597929 151.69825855 81.16150507 154.19457482 82.37562561 156.68522644 C86.21651324 164.56822049 89.78258882 172.56102206 93.30377197 180.59082031 C94.94490629 184.33142104 96.59825262 188.06658816 98.25390625 191.80078125 C98.57001862 192.51387451 98.88613098 193.22696777 99.21182251 193.96166992 C102.25013107 200.79720012 105.39195416 207.58260028 108.55078125 214.36328125 C111.88006072 221.52305774 115.14964895 228.69438297 118.17578125 235.98828125 C118.45558838 236.65819092 118.73539551 237.32810059 119.02368164 238.01831055 C123.50897272 249.05735919 123.48295198 261.33122327 119.26171875 272.453125 C117.27145165 276.70838933 114.80917961 280.43266612 111.98828125 284.17578125 C111.41078125 285.04203125 110.83328125 285.90828125 110.23828125 286.80078125 C101.77366879 295.73564996 90.34114311 300.71097905 78.09472656 301.31958008 C69.58467719 301.3216383 61.20180545 300.70789955 52.73828125 299.86328125 C51.32098293 299.72636166 49.90366486 299.58964633 48.48632812 299.453125 C39.14752478 298.5424007 29.8327297 297.47177528 20.52270508 296.30371094 C11.13978611 295.1456805 1.73511313 294.27792013 -7.67886353 293.42190552 C-16.22116536 292.64405542 -24.72986779 291.78942082 -33.23046875 290.6328125 C-36.21413011 290.27218401 -39.17356532 289.98665797 -42.16796875 289.75 C-59.62571574 288.36062913 -73.3865927 285.60910511 -85.88671875 272.30078125 C-95.87664834 260.13079508 -97.46645399 246.37001384 -96.01171875 231.17578125 C-94.77433067 225.95555029 -92.96098938 221.22335002 -89.21557617 217.2890625 C-81.23410337 208.70352367 -83.19541059 196.79050102 -83.38671875 185.86328125 C-83.43103253 182.70038513 -83.46477901 179.53890352 -83.46817017 176.37568665 C-83.47109895 174.41666193 -83.49768869 172.45748949 -83.55111694 170.49919128 C-83.56598181 166.02423265 -83.55160633 163.89080598 -80.79003906 160.23339844 C-78.2707172 158.36759487 -75.80664569 156.63074509 -73.09765625 155.0546875 C-71.70740234 154.23967773 -71.70740234 154.23967773 -70.2890625 153.40820312 C-69.33128906 152.85712891 -68.37351563 152.30605469 -67.38671875 151.73828125 C-65.98486328 150.9174707 -65.98486328 150.9174707 -64.5546875 150.08007812 C-58.86844486 146.7663712 -53.12408742 143.58057909 -47.31713867 140.48339844 C-44.80791624 139.12642903 -44.80791624 139.12642903 -41.94921875 136.86328125 C-38.71657462 135.00623037 -37.82997409 135.16247678 -34.26171875 135.30078125 C-31.41368313 135.16269467 -29.69186636 134.83595249 -27.61523438 132.8203125 C-24.36535938 128.85881913 -21.68176452 124.54027915 -19.01171875 120.17578125 C-18.02171875 118.69078125 -18.02171875 118.69078125 -17.01171875 117.17578125 C-16.58853167 114.72199965 -16.26795065 112.33921109 -16.01953125 109.8671875 C-15.93873322 109.12465225 -15.85793518 108.382117 -15.77468872 107.61708069 C-15.50926608 105.13766232 -15.25862353 102.65710967 -15.01171875 100.17578125 C-14.92450562 99.30588562 -14.83729248 98.43598999 -14.74743652 97.53973389 C-14.10326462 91.06646659 -13.49231414 84.5902522 -12.88671875 78.11328125 C-12.70330413 76.16730082 -12.51971137 74.22133717 -12.3359375 72.27539062 C-11.89248522 67.57571103 -11.45141674 62.87581352 -11.01171875 58.17578125 C-11.80030273 57.88372803 -12.58888672 57.5916748 -13.40136719 57.29077148 C-16.37713929 56.01969487 -17.41277414 54.85113192 -19.26171875 52.23828125 C-19.761875 51.54863281 -20.26203125 50.85898437 -20.77734375 50.1484375 C-25.36245743 42.82096153 -23.05411728 32.15466586 -22.26171875 23.92578125 C-22.1692688 22.80997681 -22.1692688 22.80997681 -22.07495117 21.67163086 C-21.39705019 15.33118001 -19.47068303 9.90969301 -15.16015625 5.1171875 C-14.57492187 4.66214844 -13.9896875 4.20710937 -13.38671875 3.73828125 C-12.79632813 3.26519531 -12.2059375 2.79210937 -11.59765625 2.3046875 C-7.89897466 -0.32811787 -4.38276144 -0.00876512 0 0 Z " fill="#072C76" transform="translate(297.01171875,227.82421875)"/>
<path d="M0 0 C8.02199653 -0.24948216 15.91863247 0.42826301 23.88916016 1.22680664 C26.02316498 1.43981221 28.15794294 1.64321437 30.29296875 1.84570312 C31.65370091 1.97860399 33.01438023 2.11204718 34.375 2.24609375 C35.59960938 2.36654053 36.82421875 2.4869873 38.0859375 2.61108398 C41 3 41 3 43 4 C42.64815368 18.98865335 41.13905756 33.77010147 39.37207031 48.64550781 C39.28266678 49.40842133 39.19326324 50.17133484 39.10115051 50.95736694 C38.93266286 52.39029417 38.76063665 53.82281191 38.58427429 55.25479126 C37.70434186 62.73032651 37.61550627 68.24380912 40.9375 75.07421875 C41.24902512 75.74306091 41.56055023 76.41190308 41.8815155 77.10101318 C42.55610976 78.54572185 43.23671391 79.98763651 43.92269897 81.42697144 C45.39907098 84.52488095 46.84653586 87.63601187 48.29570007 90.74671936 C49.05427468 92.37462143 49.81431484 94.00184131 50.57575989 95.62840271 C54.22203443 103.42940107 57.71724064 111.29396201 61.18969727 119.17352295 C66.34067671 130.86090247 71.58655702 142.49438389 77 154.0625 C78.53685422 157.37172818 80.0710075 160.68218354 81.60302734 163.99365234 C82.50504014 165.93482425 83.41375237 167.87290362 84.33056641 169.80712891 C89.38192375 180.50307753 94.02385099 190.47486939 90.21875 202.4609375 C89.29381664 204.46744616 88.26499274 206.19286752 87 208 C86.443125 208.886875 85.88625 209.77375 85.3125 210.6875 C79.77869762 216.22130238 73.32581872 218.87387387 65.56689453 219.10009766 C60.07462253 219.07115431 54.66399835 218.39558205 49.21484375 217.7578125 C47.51576622 217.56516312 47.51576622 217.56516312 45.78236389 217.36862183 C42.1669137 216.95829573 38.55216536 216.54217903 34.9375 216.125 C20.44093581 214.45777122 5.95531183 212.81955922 -8.58998108 211.63442993 C-14.81625848 211.12576352 -20.97301026 210.39574861 -27.1640625 209.55859375 C-31.33685996 209.03910771 -35.52079072 208.6912546 -39.7109375 208.34765625 C-41.13486261 208.22731662 -42.55877192 208.10678996 -43.98266602 207.98608398 C-46.12456719 207.80477605 -48.26619668 207.62843265 -50.40988159 207.46951294 C-60.07419376 206.75189224 -69.7764395 205.99272153 -77.71875 199.921875 C-83.98265647 192.28430483 -86.31017701 186.70847898 -86.3984375 176.80859375 C-85.42378356 169.938239 -81.66996855 164.73126103 -77.6875 159.25 C-77.16333496 158.5182959 -76.63916992 157.7865918 -76.09912109 157.03271484 C-70.40121382 149.10599436 -64.5982298 141.25514981 -58.78662109 133.41162109 C-55.8322227 129.4237081 -52.88367315 125.43149245 -49.9375 121.4375 C-49.35758301 120.65133301 -48.77766602 119.86516602 -48.18017578 119.05517578 C-43.71635164 112.99400893 -39.30411334 106.89687068 -34.9074707 100.78686523 C-30.85374298 95.16104448 -26.74697496 89.57595177 -22.625 84 C-17.15070432 76.58928791 -17.15070432 76.58928791 -11.75 69.125 C-10.99976563 68.07699219 -10.99976563 68.07699219 -10.234375 67.0078125 C-7.85600147 63.13919227 -6.75252236 59.40536903 -6.25390625 54.9140625 C-6.14030762 53.91511963 -6.02670898 52.91617676 -5.90966797 51.88696289 C-5.73781982 50.27229126 -5.73781982 50.27229126 -5.5625 48.625 C-5.43762207 47.50407959 -5.31274414 46.38315918 -5.18408203 45.22827148 C-4.46364255 38.65572283 -3.80536635 32.07784417 -3.17578125 25.49609375 C-3.10833206 24.79162109 -3.04088287 24.08714844 -2.97138977 23.36132812 C-2.64116023 19.89791965 -2.31703564 16.43408028 -2.00219727 12.96923828 C-1.88545654 11.71224121 -1.76871582 10.45524414 -1.6484375 9.16015625 C-1.49640869 7.48385132 -1.49640869 7.48385132 -1.34130859 5.77368164 C-1 3 -1 3 0 0 Z " fill="#FDFDFE" transform="translate(307,290)"/>
<path d="M0 0 C0.08636719 0.66386719 0.17273438 1.32773438 0.26171875 2.01171875 C0.40222656 2.89472656 0.54273438 3.77773437 0.6875 4.6875 C0.81511719 5.55761719 0.94273437 6.42773438 1.07421875 7.32421875 C2.97558256 12.81972176 7.81149374 15.73042036 12.68359375 18.48828125 C13.76995117 19.10888428 14.85630859 19.7294873 15.97558594 20.36889648 C17.6892334 21.33098022 17.6892334 21.33098022 19.4375 22.3125 C20.61655055 22.97995056 21.79526052 23.64800311 22.97363281 24.31665039 C25.27818336 25.62382424 27.58454126 26.92759488 29.89208984 28.22949219 C32.48692213 29.70771086 35.05712864 31.21414284 37.61328125 32.7578125 C38.2462915 33.13639404 38.87930176 33.51497559 39.53149414 33.9050293 C41.11368315 34.85560144 42.68994724 35.81601703 44.265625 36.77734375 C47.60448022 38.27028901 49.37122565 38.55377078 53 38 C56.60394679 36.32298433 59.90337987 34.15056067 63.25390625 32.0234375 C63.93582031 31.6109375 64.61773437 31.1984375 65.3203125 30.7734375 C65.93148926 30.38591309 66.54266602 29.99838867 67.17236328 29.59912109 C69 29 69 29 71.09301758 29.71850586 C73.96578256 31.64900687 75.65417775 34.36287559 77.5625 37.1875 C78.43340727 38.44894567 79.30586201 39.70932407 80.1796875 40.96875 C80.6344043 41.62617188 81.08912109 42.28359375 81.55761719 42.9609375 C83.04205586 45.05945337 84.57645883 47.11059181 86.1328125 49.15625 C86.64255615 49.83018799 87.1522998 50.50412598 87.67749023 51.19848633 C88.67216631 52.50869263 89.67413444 53.8133997 90.68383789 55.11206055 C91.86779264 56.68520826 92.94458544 58.33788006 94 60 C92.8271573 63.51852809 92.16913123 63.74725327 89.0625 65.5 C86.03307774 67.21538974 85.00510078 67.99234883 83 71 C82.68287903 73.44904948 82.68287903 73.44904948 82.70947266 76.21826172 C82.69671295 77.28301727 82.68395325 78.34777283 82.67080688 79.4447937 C82.66858124 80.59480865 82.66635559 81.74482361 82.6640625 82.9296875 C82.6574057 84.11217072 82.6507489 85.29465393 82.64389038 86.51296997 C82.63375769 89.01628054 82.62907355 91.51961816 82.62939453 94.02294922 C82.62502511 97.85299229 82.58871996 101.68187994 82.55078125 105.51171875 C82.54491255 107.94270439 82.54094351 110.37369551 82.5390625 112.8046875 C82.51750595 114.52363724 82.51750595 114.52363724 82.49551392 116.27731323 C82.48758298 122.47887734 82.48758298 122.47887734 84.7878418 128.11523438 C86.77332704 129.80687394 88.54346851 131.15862716 90.85546875 132.3515625 C91.55994141 132.72796875 92.26441406 133.104375 92.99023438 133.4921875 C93.71533203 133.86601562 94.44042969 134.23984375 95.1875 134.625 C96.64387011 135.37930543 98.09595229 136.1419654 99.54296875 136.9140625 C100.18258545 137.2435791 100.82220215 137.5730957 101.48120117 137.91259766 C103 139 103 139 104 142 C103.11310431 144.49113898 102.16121318 146.82254288 101.0703125 149.22265625 C100.7605246 149.9239415 100.45073669 150.62522675 100.13156128 151.34776306 C99.13839638 153.59014538 98.13185822 155.82623764 97.125 158.0625 C96.45355127 159.57317874 95.78296761 161.0842423 95.11328125 162.59570312 C90.4417407 173.11651861 90.4417407 173.11651861 89 176 C84.25 174.125 84.25 174.125 82 173 C72.99271477 171.42889616 66.99163851 175.20264335 59.5625 179.875 C58.48806641 180.52597656 57.41363281 181.17695313 56.30664062 181.84765625 C52.49184815 184.16762409 48.71504996 186.52330003 45 189 C44.01 189 43.02 189 42 189 C37.41470795 181.82340305 37.75303861 176.36758439 38.625 168.0625 C38.73328125 166.86262451 38.8415625 165.66274902 38.953125 164.42651367 C39.27510705 160.94765678 39.63008742 157.4740522 40 154 C40.09120117 153.12408203 40.18240234 152.24816406 40.27636719 151.34570312 C40.6471033 147.84935389 41.05964601 144.3680268 41.52734375 140.8828125 C41.86866506 138.07890024 42.10822188 135.36718836 42.25390625 132.5546875 C42.50799854 128.53577224 42.84869083 124.87387224 44 121 C46.21208554 119.10203061 47.94956377 118.47536179 50.7421875 117.703125 C54.56345205 116.51311182 55.82674348 114.29281291 58 111 C60.1231715 105.82134185 60.62216697 100.70629861 61.125 95.1875 C61.25455078 93.91036133 61.25455078 93.91036133 61.38671875 92.60742188 C62.84992891 80.53451419 62.84992891 80.53451419 58.421875 69.72265625 C53.93792615 64.29017976 48.83646306 62.23793396 41.9519043 61.45336914 C40.40999697 61.30690273 38.86736778 61.16790291 37.32421875 61.03515625 C36.48998383 60.95722336 35.6557489 60.87929047 34.79623413 60.79899597 C32.093852 60.54733161 29.39072612 60.30491397 26.6875 60.0625 C22.96052463 59.71919969 19.23407713 59.37045626 15.5078125 59.01953125 C14.59300613 58.93375824 13.67819977 58.84798523 12.735672 58.75961304 C5.48880616 58.07023781 -1.71955106 57.19606439 -8.9375 56.25 C-26.45984425 53.19846942 -26.45984425 53.19846942 -42.875 57.5 C-48.79039555 62.64382221 -50.63301498 70.27006873 -51.25 77.75 C-51.32299316 78.5342334 -51.39598633 79.3184668 -51.47119141 80.12646484 C-51.67169779 82.41655761 -51.84215552 84.70661254 -52 87 C-52.08507812 88.17304688 -52.17015625 89.34609375 -52.2578125 90.5546875 C-52.49981605 96.89518053 -51.87579028 101.82812551 -48 107 C-45.71809758 109.11890939 -43.76653461 110.61673269 -41 112 C-40.68083723 122.31132153 -41.5404611 132.38579451 -42.59912109 142.63110352 C-42.87620204 145.32418322 -43.13990269 148.01834908 -43.40234375 150.71289062 C-43.57733239 152.45060083 -43.75308669 154.18823414 -43.9296875 155.92578125 C-44.00686005 156.71866043 -44.08403259 157.51153961 -44.1635437 158.32844543 C-45.60329332 171.98647594 -45.60329332 171.98647594 -49.3125 176.51953125 C-49.96605469 177.3403418 -49.96605469 177.3403418 -50.6328125 178.17773438 C-51.08398438 178.71720703 -51.53515625 179.25667969 -52 179.8125 C-52.89638258 180.92273385 -53.79223494 182.03339606 -54.6875 183.14453125 C-55.450625 184.08683594 -56.21375 185.02914062 -57 186 C-57.66 186.99 -58.32 187.98 -59 189 C-60.92578125 189.23046875 -60.92578125 189.23046875 -63.3125 189.1875 C-69.7072745 189.56913865 -74.02546867 192.83701312 -79.1171875 196.3828125 C-82 198 -82 198 -84.10546875 198.08203125 C-86.98347514 196.43830389 -88.469685 194.22054353 -90.4375 191.5625 C-91.06470947 190.72295776 -91.06470947 190.72295776 -91.70458984 189.86645508 C-93.15026651 187.92079557 -94.57642874 185.9618889 -96 184 C-96.57153809 183.2152832 -97.14307617 182.43056641 -97.73193359 181.62207031 C-101.50936686 176.43000916 -105.26374678 171.22176211 -109 166 C-106.79479037 163.75709448 -104.61196896 161.76939833 -102 160 C-101.34 160 -100.68 160 -100 160 C-99.07544888 156.85204898 -98.86829943 154.01978233 -98.85473633 150.74414062 C-98.84835648 149.69625366 -98.84197662 148.6483667 -98.83540344 147.56872559 C-98.83429062 146.44260864 -98.8331778 145.3164917 -98.83203125 144.15625 C-98.82870285 142.9950061 -98.82537445 141.83376221 -98.82194519 140.6373291 C-98.81688412 138.18286536 -98.81453661 135.72839474 -98.81469727 133.27392578 C-98.81250846 129.51453371 -98.79433742 125.75543399 -98.77539062 121.99609375 C-98.77245704 119.61198017 -98.77047201 117.2278652 -98.76953125 114.84375 C-98.76234573 113.71763306 -98.75516022 112.59151611 -98.74775696 111.43127441 C-98.75083359 110.38338745 -98.75391022 109.33550049 -98.75708008 108.25585938 C-98.75565506 107.33526733 -98.75423004 106.41467529 -98.75276184 105.46618652 C-99.01663984 102.83401855 -99.60615118 101.23320992 -101 99 C-102.7680447 97.59688189 -102.7680447 97.59688189 -104.87890625 96.4921875 C-105.63494141 96.06292969 -106.39097656 95.63367188 -107.16992188 95.19140625 C-107.95947266 94.75699219 -108.74902344 94.32257813 -109.5625 93.875 C-111.12892138 93.00207956 -112.69286324 92.12469004 -114.25390625 91.2421875 C-115.29526733 90.66766846 -115.29526733 90.66766846 -116.35766602 90.08154297 C-118 89 -118 89 -119 87 C-118.02844716 84.41730453 -116.99048885 81.94598 -115.8515625 79.4375 C-115.51957855 78.69040771 -115.1875946 77.94331543 -114.84555054 77.17358398 C-113.77935478 74.77904342 -112.70227472 72.38957375 -111.625 70 C-110.9055421 68.38833666 -110.18678304 66.77636115 -109.46875 65.1640625 C-104.39056726 53.78113453 -104.39056726 53.78113453 -103 51 C-100.43323987 51.42779335 -98.37243922 51.77653647 -96.125 53.125 C-92.84590912 54.47521389 -90.43889303 53.71039825 -87 53 C-84.5639184 51.85176505 -82.35788397 50.68973038 -80.0625 49.3125 C-79.4015332 48.92674805 -78.74056641 48.54099609 -78.05957031 48.14355469 C-76.56283904 47.26927999 -75.06869255 46.39057062 -73.57666016 45.50830078 C-70.65451847 43.79776531 -67.7095341 42.13072818 -64.76171875 40.46484375 C-62.59081715 39.22713882 -60.42024334 37.98885878 -58.25 36.75 C-56.67810913 35.86501831 -56.67810913 35.86501831 -55.07446289 34.9621582 C-54.08567139 34.39198975 -53.09687988 33.82182129 -52.078125 33.234375 C-51.19543945 32.73131836 -50.31275391 32.22826172 -49.40332031 31.70996094 C-45.89836558 29.21618778 -43.39216054 26.79260864 -42.45410156 22.50463867 C-42.4331543 21.6510376 -42.41220703 20.79743652 -42.390625 19.91796875 C-42.35839844 18.98662109 -42.32617188 18.05527344 -42.29296875 17.09570312 C-42.27878906 16.13599609 -42.26460938 15.17628906 -42.25 14.1875 C-42.20552734 12.71893555 -42.20552734 12.71893555 -42.16015625 11.22070312 C-42.08970798 8.81372047 -42.03688975 6.4076921 -42 4 C-37.46595471 3.42322557 -32.93105905 2.85386203 -28.39526367 2.29101562 C-26.85595297 2.0989844 -25.31688268 1.90501487 -23.77807617 1.70898438 C-15.8367595 0.69859939 -8.02452934 -0.29213304 0 0 Z " fill="#FDFDFE" transform="translate(327,174)"/>
<path d="M0 0 C2.63231922 1.07546859 3.54345639 2.38541001 5.19042969 4.69189453 C6.05837158 5.89011841 6.05837158 5.89011841 6.94384766 7.11254883 C7.54600098 7.96631104 8.1481543 8.82007324 8.76855469 9.69970703 C9.38746582 10.55927002 10.00637695 11.41883301 10.64404297 12.30444336 C11.87707087 14.01820055 13.1058388 15.73503173 14.33007812 17.45507812 C16.49400615 20.4919615 18.69232183 23.50227751 20.89355469 26.51220703 C21.93588434 27.94922637 22.97787107 29.38649519 24.01855469 30.82470703 C26.33227412 29.68128181 28.64455146 28.53509639 30.95605469 27.38720703 C31.61541016 27.06171875 32.27476562 26.73623047 32.95410156 26.40087891 C36.20145504 24.93359357 36.20145504 24.93359357 39.01855469 22.82470703 C48.28517786 20.97991035 55.13453429 25.63389034 62.70605469 30.26220703 C63.95101068 31.00332364 65.19703057 31.74265592 66.4440918 32.48022461 C68.88110356 33.92566804 71.31059296 35.3825859 73.734375 36.85009766 C76.4949725 38.50990383 79.27059065 40.12813395 82.07324219 41.71533203 C83.40927598 42.48078899 84.74522432 43.24639513 86.08105469 44.01220703 C87.18578125 44.64513672 88.29050781 45.27806641 89.42871094 45.93017578 C92.31663709 48.04276127 93.42118569 49.64678609 95.01855469 52.82470703 C95.39950562 55.36645508 95.39950562 55.36645508 95.40673828 58.08642578 C95.41619476 59.11098877 95.42565125 60.13555176 95.43539429 61.19116211 C95.42628525 62.83507935 95.42628525 62.83507935 95.41699219 64.51220703 C95.42129745 66.21509888 95.42129745 66.21509888 95.4256897 67.95239258 C95.42772871 70.34961446 95.42221028 72.74685303 95.40966797 75.14404297 C95.39361288 78.81141394 95.4095231 82.4776828 95.42871094 86.14501953 C95.42672848 88.47575113 95.42288475 90.80648204 95.41699219 93.13720703 C95.42306488 94.23315186 95.42913757 95.32909668 95.43539429 96.45825195 C95.42120956 97.99509644 95.42120956 97.99509644 95.40673828 99.56298828 C95.4043515 100.46057861 95.40196472 101.35816895 95.39950562 102.28295898 C94.93017411 105.41439234 93.86802091 107.2705293 92.01855469 109.82470703 C89.67847142 111.4477156 87.43869819 112.8352319 84.95605469 114.19970703 C83.43207502 115.0581202 81.90867737 115.91756717 80.38574219 116.77783203 C79.54108398 117.2515625 78.69642578 117.72529297 77.82617188 118.21337891 C74.67064996 120.02437409 71.56837999 121.91202961 68.46386719 123.80908203 C66.74100916 124.84767082 65.01640242 125.88327193 63.290802 126.91729736 C61.61284452 127.93051114 59.94725021 128.96410943 58.28198242 129.99804688 C51.82449077 133.82963986 46.60030964 136.30775166 39.01855469 134.82470703 C37.33602175 134.19916316 35.66436525 133.54131698 34.01855469 132.82470703 C32.01769554 137.3239794 30.02407324 141.82636102 28.03710938 146.33178711 C27.3600578 147.8642411 26.68103186 149.39582438 26 150.92651367 C25.0218179 153.12599747 24.05076327 155.32850797 23.08105469 157.53173828 C22.62170532 158.5584539 22.62170532 158.5584539 22.15307617 159.60591125 C20.87692771 162.52179036 20.01855469 164.60485214 20.01855469 167.82470703 C20.97117187 168.34419922 21.92378906 168.86369141 22.90527344 169.39892578 C24.17244627 170.10291069 25.43935966 170.80736275 26.70605469 171.51220703 C27.64481445 172.02170898 27.64481445 172.02170898 28.60253906 172.54150391 C33.20553303 175.1201445 37.58656152 177.9607207 40.01855469 182.82470703 C40.12904995 184.45712699 40.17768597 186.09392278 40.19555664 187.72998047 C40.21480949 189.2623233 40.21480949 189.2623233 40.23445129 190.82562256 C40.24183823 191.93391418 40.24922516 193.04220581 40.25683594 194.18408203 C40.26490768 195.32121643 40.27297943 196.45835083 40.28129578 197.62994385 C40.29514567 200.040878 40.30586375 202.45183184 40.3137207 204.86279297 C40.33091965 208.54578983 40.37479759 212.22788606 40.41894531 215.91064453 C40.42907322 218.25178376 40.43758901 220.59293062 40.44433594 222.93408203 C40.46184402 224.03427673 40.47935211 225.13447144 40.49739075 226.26800537 C40.48044379 232.25865107 40.30945812 236.24369392 36.01855469 240.82470703 C33.47583008 242.6640625 33.47583008 242.6640625 30.61621094 244.19189453 C29.5663501 244.76399658 28.51648926 245.33609863 27.43481445 245.92553711 C26.32807373 246.51101318 25.22133301 247.09648926 24.08105469 247.69970703 C21.81952389 248.92812687 19.55909598 250.15857942 17.29980469 251.39111328 C16.21570313 251.97908691 15.13160156 252.56706055 14.01464844 253.17285156 C9.29518505 255.7748634 4.73435516 258.59360283 0.17871094 261.46923828 C-1.98144531 262.82470703 -1.98144531 262.82470703 -3.98144531 263.82470703 C-4.24771729 263.206521 -4.51398926 262.58833496 -4.78833008 261.95141602 C-6.03790857 259.05401808 -7.29092442 256.15811783 -8.54394531 253.26220703 C-8.96224609 252.29089844 -9.38054687 251.31958984 -9.81152344 250.31884766 C-12.47830744 244.16318835 -15.2499713 238.06627193 -18.10168457 231.99414062 C-21.91031223 223.87035665 -25.60115517 215.69310247 -29.29760742 207.51782227 C-30.54406758 204.7619367 -31.79296033 202.00716221 -33.04199219 199.25244141 C-37.4633246 189.48752942 -41.81743054 179.70245081 -45.98144531 169.82470703 C-45.33208008 169.47657959 -44.68271484 169.12845215 -44.01367188 168.76977539 C-39.38123366 166.28521799 -34.83547869 163.75434358 -30.37207031 160.97705078 C-29.55649658 160.47923096 -28.74092285 159.98141113 -27.90063477 159.46850586 C-26.27620699 158.47435287 -24.66214614 157.46300863 -23.06030273 156.43286133 C-17.39733968 153.00307931 -12.59989445 151.72437466 -5.98144531 152.82470703 C-3.34244248 153.92036578 -1.34687638 155.17918976 1.01855469 156.82470703 C1.39625 155.60654297 1.77394531 154.38837891 2.16308594 153.13330078 C4.25137944 146.86596489 6.99343446 140.90397371 9.70605469 134.88720703 C10.7133038 132.65042811 11.71738474 130.41221889 12.71777344 128.17236328 C13.15951904 127.19275635 13.60126465 126.21314941 14.05639648 125.20385742 C15.14352617 122.94341069 15.14352617 122.94341069 15.01855469 120.82470703 C13.46774838 119.67690632 13.46774838 119.67690632 11.44042969 118.61767578 C10.31701172 117.98442383 10.31701172 117.98442383 9.17089844 117.33837891 C7.58626791 116.46361132 6.00035497 115.59116224 4.41308594 114.72119141 C3.65898437 114.29515625 2.90488281 113.86912109 2.12792969 113.43017578 C1.43666992 113.05014404 0.74541016 112.6701123 0.03320312 112.27856445 C-2.77982863 110.24855911 -4.22073256 108.88643786 -5.98144531 105.82470703 C-6.58898905 101.79664028 -6.56560224 97.80243518 -6.54785156 93.73486328 C-6.55405014 92.55758163 -6.56024872 91.38029999 -6.56663513 90.16734314 C-6.57373212 87.68017401 -6.57056152 85.19295737 -6.55786133 82.70581055 C-6.54400672 78.90405642 -6.5780601 75.10476857 -6.61621094 71.30322266 C-6.61716225 68.88460226 -6.61530268 66.46597879 -6.61035156 64.04736328 C-6.62360977 62.91283218 -6.63686798 61.77830109 -6.65052795 60.60939026 C-6.54697883 51.81420462 -6.54697883 51.81420462 -3.64916992 48.17797852 C-0.9005276 45.75332735 1.6454814 44.2366912 5.01855469 42.82470703 C3.41668009 37.65409915 0.19193232 33.88559059 -3.10644531 29.69970703 C-4.28063683 28.18877608 -5.45381353 26.67705595 -6.62597656 25.16455078 C-7.19783691 24.42833496 -7.76969727 23.69211914 -8.35888672 22.93359375 C-11.6652297 18.63624336 -14.82829549 14.23530633 -17.98144531 9.82470703 C-14.78170612 7.33260247 -11.45098332 5.17377752 -7.98144531 3.07470703 C-6.95019531 2.44048828 -5.91894531 1.80626953 -4.85644531 1.15283203 C-1.98144531 -0.17529297 -1.98144531 -0.17529297 0 0 Z " fill="#6965F6" transform="translate(414.9814453125,193.17529296875)"/>
<path d="M0 0 C2.3994217 1.24347389 4.79440223 2.49445847 7.1875 3.75 C8.19780273 4.27207031 8.19780273 4.27207031 9.22851562 4.8046875 C13.16502337 6.87855499 16.60936683 9.07681334 20 12 C19.34 12 18.68 12 18 12 C17.599021 13.26384521 17.599021 13.26384521 17.18994141 14.55322266 C15.94312547 18.16474244 14.49327482 21.65223513 12.9609375 25.1484375 C12.67521881 25.80582916 12.38950012 26.46322083 12.09512329 27.14053345 C11.19080253 29.21973794 10.28296307 31.29738386 9.375 33.375 C8.75757843 34.79286685 8.14038861 36.21083463 7.5234375 37.62890625 C6.01830197 41.08711035 4.5100109 44.54392209 3 48 C7.77147747 51.8963261 12.81291543 54.91303816 18.13671875 58 C21.07152439 60.04995974 21.77513915 60.77626839 23 64 C23.25396729 66.46618652 23.25396729 66.46618652 23.25878906 69.25585938 C23.26824554 70.82768982 23.26824554 70.82768982 23.27789307 72.43127441 C23.2738446 73.55739136 23.26979614 74.6835083 23.265625 75.84375 C23.26753845 77.0049939 23.2694519 78.16623779 23.27142334 79.3626709 C23.27278396 81.81714088 23.26909614 84.27161808 23.26074219 86.72607422 C23.25004123 90.48551582 23.26064196 94.24447954 23.2734375 98.00390625 C23.27211588 100.38802189 23.26955345 102.77213723 23.265625 105.15625 C23.26967346 106.28236694 23.27372192 107.40848389 23.27789307 108.56872559 C23.26843658 110.14055603 23.26843658 110.14055603 23.25878906 111.74414062 C23.25719788 112.66473267 23.25560669 113.58532471 23.25396729 114.53381348 C22.98285143 117.1665237 22.39871071 118.76759253 21 121 C19.0546875 122.484375 19.0546875 122.484375 16.875 123.75 C16.15054688 124.17796875 15.42609375 124.6059375 14.6796875 125.046875 C14.12539062 125.36140625 13.57109375 125.6759375 13 126 C15.58872375 130.72131082 18.34703657 134.94333632 21.6875 139.1875 C22.56713224 140.31193244 23.44602068 141.43694709 24.32421875 142.5625 C24.76685059 143.12839844 25.20948242 143.69429687 25.66552734 144.27734375 C28.56451193 148.01961145 31.36753793 151.83480561 34.1875 155.63671875 C35.93588658 158.02306417 35.93588658 158.02306417 38 160 C37.28714844 160.38671875 36.57429688 160.7734375 35.83984375 161.171875 C29.34723836 164.69989405 29.34723836 164.69989405 22.9375 168.375 C20 170 20 170 18 170 C16.73828125 168.55395508 16.73828125 168.55395508 15.3125 166.51953125 C14.78293701 165.77316406 14.25337402 165.02679688 13.70776367 164.2578125 C13.14420166 163.45085937 12.58063965 162.64390625 12 161.8125 C7.07986289 154.86221257 2.02605397 148.07414108 -3.26953125 141.40625 C-5 139 -5 139 -5 137 C-6.051875 137.58007812 -6.051875 137.58007812 -7.125 138.171875 C-9.09558892 139.25355696 -11.06974452 140.32875922 -13.046875 141.3984375 C-14.79495784 142.34647184 -16.53719865 143.3056475 -18.265625 144.2890625 C-18.92046875 144.64742187 -19.5753125 145.00578125 -20.25 145.375 C-20.81203125 145.69210937 -21.3740625 146.00921875 -21.953125 146.3359375 C-26.37633039 147.77094688 -29.38974113 147.70251637 -33.61669922 145.85839844 C-36.73229503 144.21177068 -39.77456274 142.4733565 -42.8125 140.6875 C-43.91166748 140.05392578 -45.01083496 139.42035156 -46.14331055 138.76757812 C-49.4379403 136.86014829 -52.71891843 134.9306118 -56 133 C-57.83298277 131.94340203 -59.66628822 130.88736353 -61.5 129.83203125 C-63.10548033 128.89025671 -64.70973707 127.94639175 -66.3125 127 C-67.03993408 126.58065186 -67.76736816 126.16130371 -68.5168457 125.72924805 C-69.18804443 125.32359619 -69.85924316 124.91794434 -70.55078125 124.5 C-71.12481689 124.1596875 -71.69885254 123.819375 -72.2902832 123.46875 C-75.72013809 120.52229748 -77.70172795 117.97367837 -78.37840271 113.49609375 C-78.54612202 110.40719299 -78.58051296 107.34345158 -78.56640625 104.25 C-78.57260483 103.11852539 -78.57880341 101.98705078 -78.58518982 100.82128906 C-78.5922789 98.43425353 -78.58913001 96.04716845 -78.57641602 93.66015625 C-78.56254598 90.01209433 -78.59664426 86.36659567 -78.63476562 82.71875 C-78.63571682 80.39583271 -78.63385799 78.07291221 -78.62890625 75.75 C-78.64216446 74.66235352 -78.65542267 73.57470703 -78.66908264 72.45410156 C-78.56553225 64.01630481 -78.56553225 64.01630481 -75.81811523 60.48974609 C-73.06551978 58.05788536 -70.48652231 56.19951087 -67.28125 54.4140625 C-66.18949463 53.7967627 -65.09773926 53.17946289 -63.97290039 52.54345703 C-62.82684326 51.91036621 -61.68078613 51.27727539 -60.5 50.625 C-58.73325047 49.63247151 -56.96886201 48.63583651 -55.2046051 47.6388855 C-53.49560897 46.67362652 -51.78468617 45.71178129 -50.07373047 44.75 C-45.37030083 42.07214586 -40.78962185 39.22256574 -36.22265625 36.3203125 C-32.0712627 33.85428259 -28.76331831 33.61586143 -24 34 C-20.88943638 35.13246275 -17.96212122 36.53030993 -15 38 C-14.43152344 36.16888672 -14.43152344 36.16888672 -13.8515625 34.30078125 C-11.77840556 28.08009236 -9.06553485 22.1606275 -6.375 16.1875 C-5.37987116 13.97397623 -4.38755809 11.75918384 -3.3984375 9.54296875 C-2.74367432 8.0892688 -2.74367432 8.0892688 -2.07568359 6.60620117 C-1.1634244 4.39594996 -0.49391128 2.33281807 0 0 Z " fill="#6965F6" transform="translate(206,213)"/>
<path d="M0 0 C2.69042969 1.1105957 2.69042969 1.1105957 5.421875 2.67578125 C6.94820557 3.53937256 6.94820557 3.53937256 8.50537109 4.42041016 C9.57609863 5.0447998 10.64682617 5.66918945 11.75 6.3125 C12.8529541 6.94462402 13.9559082 7.57674805 15.09228516 8.22802734 C18.404732 10.1356011 21.7040796 12.06403698 25 14 C25.94907227 14.55381348 26.89814453 15.10762695 27.87597656 15.67822266 C30.38379114 17.14732195 32.88195747 18.63099612 35.375 20.125 C36.11073242 20.56110596 36.84646484 20.99721191 37.60449219 21.4465332 C38.27899414 21.85863037 38.95349609 22.27072754 39.6484375 22.6953125 C40.51734619 23.2214917 40.51734619 23.2214917 41.40380859 23.75830078 C44.18531261 25.92207096 45.82864076 27.9314378 46.39440918 31.4594574 C46.40703796 32.83582115 46.40703796 32.83582115 46.41992188 34.23999023 C46.44378967 35.80697914 46.44378967 35.80697914 46.46813965 37.40562439 C46.46834106 38.52860428 46.46854248 39.65158417 46.46875 40.80859375 C46.48017029 42.54690208 46.48017029 42.54690208 46.49182129 44.32032776 C46.50262447 46.77057745 46.50547453 49.2208732 46.50097656 51.67114258 C46.50000448 55.42021465 46.54162281 59.16723919 46.5859375 62.91601562 C46.5911446 65.29687073 46.59383269 67.67773295 46.59375 70.05859375 C46.61014526 71.17954941 46.62654053 72.30050507 46.64343262 73.45542908 C46.57450129 81.21725291 46.57450129 81.21725291 43.75244141 85.06225586 C38.89577812 88.48139162 38.89577812 88.48139162 36.3671875 89.9453125 C35.48740234 90.46005127 34.60761719 90.97479004 33.70117188 91.50512695 C32.76853516 92.03968506 31.83589844 92.57424316 30.875 93.125 C29.90884766 93.68469482 28.94269531 94.24438965 27.94726562 94.82104492 C25.95031371 95.9777163 23.95192971 97.13191865 21.95214844 98.28369141 C19.12940842 99.92476503 16.33146169 101.60089931 13.5390625 103.29296875 C12.68844238 103.80263184 11.83782227 104.31229492 10.96142578 104.83740234 C9.35780375 105.79843034 7.75949489 106.76839816 6.16748047 107.74853516 C1.99135614 110.22193591 -1.02408993 111.92024757 -6 111 C-8.74765778 109.87658666 -11.25757316 108.44257996 -13.8125 106.9375 C-14.56861572 106.50356934 -15.32473145 106.06963867 -16.10375977 105.62255859 C-18.74507377 104.09707412 -21.37225505 102.54873452 -24 101 C-25.06637695 100.37915527 -26.13275391 99.75831055 -27.23144531 99.11865234 C-30.64038799 97.13230461 -34.04036857 95.1314728 -37.4375 93.125 C-38.53360596 92.48296631 -39.62971191 91.84093262 -40.7590332 91.17944336 C-42.29950317 90.25917358 -42.29950317 90.25917358 -43.87109375 89.3203125 C-44.78818115 88.77648926 -45.70526855 88.23266602 -46.65014648 87.67236328 C-49.11641319 85.91715009 -50.41058825 84.56324225 -52 82 C-52.40786743 79.50930786 -52.40786743 79.50930786 -52.45166016 76.68408203 C-52.4740274 75.6226297 -52.49639465 74.56117737 -52.5194397 73.46755981 C-52.52591522 72.3258432 -52.53239075 71.18412659 -52.5390625 70.0078125 C-52.55141937 68.82911591 -52.56377625 67.65041931 -52.57650757 66.43600464 C-52.59607531 63.94290127 -52.60730616 61.44972062 -52.61083984 58.95654297 C-52.62492425 55.14549714 -52.69225987 51.33773003 -52.76171875 47.52734375 C-52.77411729 45.10418124 -52.78333686 42.68099996 -52.7890625 40.2578125 C-52.81578033 39.12014435 -52.84249817 37.9824762 -52.87002563 36.81033325 C-52.80412183 29.12336807 -52.80412183 29.12336807 -50.58735657 26.02651978 C-48.80738714 24.44694829 -47.04520668 23.21176672 -45 22 C-44.05374756 21.3930127 -43.10749512 20.78602539 -42.13256836 20.16064453 C-41.21096924 19.65645996 -40.28937012 19.15227539 -39.33984375 18.6328125 C-38.30512939 18.06062988 -37.27041504 17.48844727 -36.2043457 16.89892578 C-35.12628662 16.31353027 -34.04822754 15.72813477 -32.9375 15.125 C-30.70006035 13.89667175 -28.46307803 12.66751007 -26.2265625 11.4375 C-25.15438477 10.8496875 -24.08220703 10.261875 -22.97753906 9.65625 C-20.44501213 8.24753709 -17.9453234 6.80382197 -15.4609375 5.3125 C-14.82808838 4.93464355 -14.19523926 4.55678711 -13.54321289 4.16748047 C-11.94691316 3.20596265 -10.35786837 2.23242757 -8.76953125 1.2578125 C-5.50108831 -0.22658613 -3.56737396 -0.27703752 0 0 Z " fill="#072B75" transform="translate(380,102)"/>
<path d="M0 0 C1.66801405 0.43233453 3.33433808 0.87119012 5 1.3125 C5.928125 1.55613281 6.85625 1.79976563 7.8125 2.05078125 C8.864375 2.36402344 9.91625 2.67726563 11 3 C11.68892334 3.16943115 12.37784668 3.3388623 13.08764648 3.51342773 C15.27549042 4.14916703 17.06762406 4.7890037 19 6 C20.17754654 8.76283079 20.66706623 10.5502423 21.0625 13.4375 C21.35111381 14.97838449 21.6497367 16.51741947 21.95703125 18.0546875 C22.1163916 18.86260742 22.27575195 19.67052734 22.43994141 20.50292969 C25.31668648 33.32914967 30.72882302 45.752017 37.04003906 57.23535156 C37.96598293 58.9374681 38.83961315 60.66772475 39.7109375 62.3984375 C42.48814883 67.81833887 42.48814883 67.81833887 47.484375 70.78515625 C50.11045223 71.0387667 50.11045223 71.0387667 52.6953125 70.9765625 C55.83366473 71.00847795 57.59435312 72.04541191 60 74 C62.21009316 77.31513974 62.18672395 77.73636332 61.625 81.4375 C61.19443391 84.39639023 61 86.97443782 61 90 C66.41477543 96.93618357 73.62906494 102.1989143 80.7265625 107.28515625 C81.47679687 107.85105469 82.22703125 108.41695313 83 109 C83 109.33 83 109.66 83 110 C70.60114274 109.45531542 58.2767574 108.56778034 45.9284668 107.32543945 C43.30368765 107.06161424 40.67829722 106.80472475 38.05273438 106.54882812 C30.2711206 105.78264239 22.50415918 104.96559851 14.75 103.95703125 C9.44562442 103.27441543 4.15325076 102.71981238 -1.17578125 102.2890625 C-1.84796188 102.2334465 -2.52014252 102.17783051 -3.21269226 102.12052917 C-5.93362241 101.89630735 -8.65433606 101.67325135 -11.37719727 101.47363281 C-21.051284 100.75440392 -30.76796562 99.99919869 -38.71875 93.921875 C-44.98265647 86.28430483 -47.31017701 80.70847898 -47.3984375 70.80859375 C-46.42378356 63.938239 -42.66996855 58.73126103 -38.6875 53.25 C-38.16333496 52.5182959 -37.63916992 51.7865918 -37.09912109 51.03271484 C-30.81724586 42.29359946 -24.40770908 33.64698067 -18 25 C-15.4562066 21.56406746 -12.91506833 18.12618687 -10.375 14.6875 C-9.79508301 13.9052002 -9.21516602 13.12290039 -8.61767578 12.31689453 C-5.63319766 8.27689806 -2.74291532 4.20803351 0 0 Z " fill="#92B1F3" transform="translate(268,396)"/>
<path d="M0 0 C5.32646464 1.48839985 9.53397888 3.9969585 14.1875 6.875 C33.92117631 18.67445282 55.39907174 20.79452746 77.9921875 17.98046875 C78.76747803 17.88648804 79.54276855 17.79250732 80.34155273 17.69567871 C82.22804499 17.46659426 84.11407405 17.23370071 86 17 C90.63889903 27.01487109 95.25709099 37.03880268 99.83555603 47.08146667 C101.83522388 51.46503557 103.85803273 55.83597353 105.91015625 60.1953125 C110.32844995 69.78079506 113.58531422 78.85626019 110.21875 89.4609375 C109.29381664 91.46744616 108.26499274 93.19286752 107 95 C106.443125 95.886875 105.88625 96.77375 105.3125 97.6875 C99.63304194 103.36695806 93.10332298 105.92076917 85.15625 106.07421875 C83.77079317 106.05184129 82.38537213 106.02711931 81 106 C79.15921875 106.00966797 79.15921875 106.00966797 77.28125 106.01953125 C64.73957604 105.33284869 57.84545253 99.49521136 49 91 C48.22245361 90.26233398 48.22245361 90.26233398 47.42919922 89.50976562 C44.87905756 87.0734463 42.40210176 84.58225939 40 82 C40.32226562 81.07445312 40.64453125 80.14890625 40.9765625 79.1953125 C42.05791681 75.81917576 42.45829224 73.51357384 42 70 C40.1329009 67.69724444 38.64352259 66.32176129 36 65 C35.29488281 65.01160156 34.58976562 65.02320313 33.86328125 65.03515625 C29.92871527 65.07733383 27.08007797 64.96443325 24.06640625 62.2734375 C22.13692353 59.60870155 20.55945855 56.89817182 19 54 C18.52481934 53.14196777 18.52481934 53.14196777 18.04003906 52.26660156 C9.84364348 37.35315984 0 17.31082872 0 0 Z " fill="#D1DBFC" transform="translate(287,403)"/>
<path d="M0 0 C2.8684082 1.3828125 2.8684082 1.3828125 5.80078125 3.125 C6.85974609 3.74890625 7.91871094 4.3728125 9.00976562 5.015625 C10.09966797 5.67046875 11.18957031 6.3253125 12.3125 7 C13.42173828 7.65484375 14.53097656 8.3096875 15.67382812 8.984375 C23.80333647 13.80333647 23.80333647 13.80333647 25 15 C26.67544526 25.63443564 27.84149081 37.50978369 25 48 C20.22824125 54.38247901 12.92567695 57.37653357 5.5871582 59.98974609 C2.91911005 60.91864859 2.91911005 60.91864859 0.54370117 62.68603516 C-2.82439537 64.42584661 -4.39514109 64.04339789 -8 63 C-10.8684082 61.6171875 -10.8684082 61.6171875 -13.80078125 59.875 C-14.85974609 59.25109375 -15.91871094 58.6271875 -17.00976562 57.984375 C-18.09966797 57.32953125 -19.18957031 56.6746875 -20.3125 56 C-21.42173828 55.34515625 -22.53097656 54.6903125 -23.67382812 54.015625 C-31.80333647 49.19666353 -31.80333647 49.19666353 -33 48 C-33.08847743 45.47905924 -33.11527301 42.98569107 -33.09765625 40.46484375 C-33.0962413 39.71159317 -33.09482635 38.95834259 -33.09336853 38.18226624 C-33.08775376 35.7673044 -33.07519883 33.35243399 -33.0625 30.9375 C-33.0574869 29.30403779 -33.05292366 27.67057414 -33.04882812 26.03710938 C-33.03777954 22.02470415 -33.02050506 18.01236759 -33 14 C-32.43079834 13.68772461 -31.86159668 13.37544922 -31.27514648 13.05371094 C-28.66225457 11.61976477 -26.04987425 10.184889 -23.4375 8.75 C-22.54224609 8.25886719 -21.64699219 7.76773438 -20.72460938 7.26171875 C-19.40493164 6.53662109 -19.40493164 6.53662109 -18.05859375 5.796875 C-16.75704346 5.08821289 -16.75704346 5.08821289 -15.42919922 4.36523438 C-13.92815948 3.52163496 -12.44523212 2.64358564 -10.99658203 1.71289062 C-6.80200164 -0.9703477 -4.77624818 -1.19959523 0 0 Z " fill="#FA7C9F" transform="translate(381,126)"/>
<path d="M0 0 C1.69067204 0.60320002 3.35444036 1.28281405 5 2 C5.91434814 2.32097656 6.82869629 2.64195312 7.77075195 2.97265625 C15.73813007 5.89872585 23.62687889 9.20764943 29 16 C31.21562898 21.5938929 31.17474444 27.56714613 31.0625 33.5 C31.05701645 34.6444458 31.05701645 34.6444458 31.05142212 35.81201172 C30.83842867 47.81037485 30.83842867 47.81037485 27.17626953 52.17211914 C24.85573031 53.75518378 22.57098235 54.87483595 20 56 C18.44352789 56.92015399 16.89643068 57.85636025 15.359375 58.80859375 C13.82515982 59.68881721 12.28869797 60.56513649 10.75 61.4375 C9.97398437 61.89576172 9.19796875 62.35402344 8.3984375 62.82617188 C7.64304688 63.25349609 6.88765625 63.68082031 6.109375 64.12109375 C5.43874023 64.5070874 4.76810547 64.89308105 4.07714844 65.29077148 C1.28406867 66.24444999 -0.19145757 65.87806515 -3 65 C-4.93735837 64.02754362 -6.83688591 62.97780574 -8.703125 61.875 C-9.7653125 61.25109375 -10.8275 60.6271875 -11.921875 59.984375 C-13.02015625 59.32953125 -14.1184375 58.6746875 -15.25 58 C-16.36375 57.34515625 -17.4775 56.6903125 -18.625 56.015625 C-26.8234747 51.1765253 -26.8234747 51.1765253 -28 50 C-28.08847743 47.47905924 -28.11527301 44.98569107 -28.09765625 42.46484375 C-28.0962413 41.71159317 -28.09482635 40.95834259 -28.09336853 40.18226624 C-28.08775376 37.7673044 -28.07519883 35.35243399 -28.0625 32.9375 C-28.0574869 31.30403779 -28.05292366 29.67057414 -28.04882812 28.03710938 C-28.03777954 24.02470415 -28.02050506 20.01236759 -28 16 C-24.33424729 13.88134239 -20.66805947 11.76344032 -17.00146484 9.64624023 C-15.75394874 8.92574531 -14.5065522 8.20504332 -13.25927734 7.48413086 C-11.46743592 6.44851209 -9.67516716 5.41363643 -7.8828125 4.37890625 C-6.26463623 3.44413452 -6.26463623 3.44413452 -4.61376953 2.49047852 C-3.0955855 1.62474776 -1.56316922 0.78158461 0 0 Z " fill="#D0DBFC" transform="translate(235,140)"/>
<path d="M0 0 C1.37152222 0.433125 1.37152222 0.433125 2.77075195 0.875 C10.67912554 3.87309013 18.69293349 7.1859043 24 14 C27.62850488 24.04862448 25.39829964 36.69381454 24 47 C20.42242659 49.19929667 16.82987066 51.37087528 13.22119141 53.51855469 C11.99669953 54.25240779 10.77655677 54.99357015 9.56103516 55.7421875 C7.80952434 56.81915899 6.04388395 57.86858943 4.2734375 58.9140625 C2.68668213 59.8723999 2.68668213 59.8723999 1.06787109 60.85009766 C-2 62 -2 62 -5.04101562 61.3828125 C-7.97769992 60.01042142 -10.80446634 58.57272153 -13.6171875 56.9609375 C-14.53612793 56.43806152 -15.45506836 55.91518555 -16.40185547 55.37646484 C-17.54799316 54.71598145 -18.69413086 54.05549805 -19.875 53.375 C-23.54625 51.27125 -27.2175 49.1675 -31 47 C-31 36.11 -31 25.22 -31 14 C-24.7196875 10.2565625 -24.7196875 10.2565625 -18.3125 6.4375 C-17.00063721 5.64529053 -15.68877441 4.85308105 -14.3371582 4.03686523 C-12.77227661 3.11949585 -12.77227661 3.11949585 -11.17578125 2.18359375 C-9.58117065 1.23311157 -9.58117065 1.23311157 -7.9543457 0.26342773 C-4.57188485 -1.18308371 -3.43070148 -1.14322843 0 0 Z " fill="#FB8E03" transform="translate(182,273)"/>
<path d="M0 0 C8.05432125 3.49701508 16.10358849 7.0461845 19.66113281 15.53857422 C22.14020456 24.82473118 21.88180664 35.09003313 18.1640625 43.96484375 C11.40952326 51.99858838 1.09243299 56.09485419 -8.83813477 58.77514648 C-12.67850687 59.0181605 -14.3641023 58.01491074 -17.63671875 56.03515625 C-18.69568359 55.40480469 -19.75464844 54.77445312 -20.84570312 54.125 C-22.48055664 53.11759766 -22.48055664 53.11759766 -24.1484375 52.08984375 C-25.25767578 51.42597656 -26.36691406 50.76210938 -27.50976562 50.078125 C-35.56913642 45.23164483 -35.56913642 45.23164483 -36.8359375 43.96484375 C-37.32023519 39.53703196 -37.49235116 35.10638628 -37.62548828 30.65698242 C-37.68202435 29.16523794 -37.76369699 27.67421467 -37.87158203 26.18530273 C-38.22796471 21.17192568 -38.25927624 16.81961469 -36.8359375 11.96484375 C-32.91741196 8.13323301 -28.82476712 6.23896017 -23.8359375 3.96484375 C-21.64131502 2.67515139 -19.5298884 1.29717224 -17.3984375 -0.09765625 C-11.1272753 -4.08363834 -6.67106832 -2.58621151 0 0 Z " fill="#66CBD1" transform="translate(468.8359375,244.03515625)"/>
<path d="M0 0 C9.99038946 2.36517519 20.46204242 6.76523775 27.17724609 14.75219727 C30.89223529 23.62043143 31.16219273 33.90218124 28.68310547 43.18286133 C25.08920457 51.70147857 16.90516925 55.15339984 8.81787109 58.61938477 C6.93773496 59.33051318 5.05753547 60.04147414 3.17724609 60.75219727 C1.8342453 61.39916797 0.4965315 62.05814522 -0.82275391 62.75219727 C-5.66674924 59.50662609 -7.45460549 56.12164027 -9.70556641 50.95141602 C-10.04651337 50.19681595 -10.38746033 49.44221588 -10.73873901 48.66474915 C-11.82089987 46.2617725 -12.88444636 43.8510666 -13.94775391 41.43969727 C-14.66920908 39.83043431 -15.3918541 38.22170422 -16.11572266 36.61352539 C-17.74732589 32.9789845 -19.37745511 29.34405713 -20.96392822 25.68954468 C-21.53448059 24.40248705 -22.12971283 23.1260783 -22.74945068 21.86196899 C-24.06259883 19.10469265 -24.83000709 17.05304547 -24.75585938 13.97753906 C-23.5841853 11.18324048 -22.5595621 10.53531983 -19.89306641 9.14672852 C-18.70003906 8.50767578 -18.70003906 8.50767578 -17.48291016 7.85571289 C-16.64630859 7.42967773 -15.80970703 7.00364258 -14.94775391 6.56469727 C-13.3041634 5.6968917 -11.66092009 4.82842816 -10.01806641 3.95922852 C-9.28604004 3.58258057 -8.55401367 3.20593262 -7.79980469 2.81787109 C-2.21182823 -0.19417105 -2.21182823 -0.19417105 0 0 Z " fill="#FBC951" transform="translate(404.82275390625,371.247802734375)"/>
<path d="M0 0 C10.22110936 -0.45539596 20.06715607 0.46576655 30.20605469 1.71533203 C39.66599478 2.87443905 49.13519377 3.81591818 58.625 4.6875 C59.34565643 4.75393707 60.06631287 4.82037415 60.80880737 4.88882446 C64.87219459 5.26304479 68.9359221 5.6333606 73 6 C73.18451025 16.44276765 73.18451025 16.44276765 72 21.625 C71.7215625 22.88183594 71.7215625 22.88183594 71.4375 24.1640625 C71.293125 24.76992188 71.14875 25.37578125 71 26 C65.69708581 26.07244619 60.6067127 25.83895243 55.328125 25.23046875 C54.61531372 25.14970596 53.90250244 25.06894318 53.16809082 24.98573303 C50.86158551 24.72364009 48.55582025 24.45554638 46.25 24.1875 C43.84283253 23.91270132 41.43548807 23.6394893 39.02813721 23.36630249 C37.40336263 23.1817866 35.77864743 22.99674714 34.1539917 22.81118774 C26.35641614 21.92149786 18.55415943 21.07987027 10.75 20.25 C9.55536133 20.12262451 8.36072266 19.99524902 7.12988281 19.86401367 C4.4199918 19.57534433 1.71003775 19.28728783 -1 19 C-1.05637294 12.56252349 -0.8242557 6.38798164 0 0 Z " fill="#90AFF2" transform="translate(296,249)"/>
<path d="M0 0 C0.33 0 0.66 0 1 0 C1 16.17 1 32.34 1 49 C0.67 49 0.34 49 0 49 C0 46.69 0 44.38 0 42 C-1.05912598 42.12117188 -2.11825195 42.24234375 -3.20947266 42.3671875 C-7.15635825 42.81783915 -11.10373413 43.26406377 -15.05126953 43.70898438 C-16.75648368 43.90179554 -18.46156437 44.09579104 -20.16650391 44.29101562 C-22.62367783 44.57216337 -25.08130753 44.84898354 -27.5390625 45.125 C-28.29555084 45.21249512 -29.05203918 45.29999023 -29.83145142 45.39013672 C-30.5517453 45.47021973 -31.27203918 45.55030273 -32.01416016 45.6328125 C-32.95347885 45.73940186 -32.95347885 45.73940186 -33.91177368 45.84814453 C-36.6012225 46.0437208 -39.30344942 46 -42 46 C-42 39.07 -42 32.14 -42 25 C-37.30482729 24.42591775 -32.60947886 23.8548129 -27.91308594 23.29101562 C-26.31847866 23.09870767 -24.72407207 22.90472743 -23.12988281 22.70898438 C-20.82669123 22.42649029 -18.52282371 22.15019528 -16.21875 21.875 C-15.51633179 21.78750488 -14.81391357 21.70000977 -14.09020996 21.60986328 C-13.41010864 21.52978027 -12.73000732 21.44969727 -12.02929688 21.3671875 C-11.14993469 21.26059814 -11.14993469 21.26059814 -10.25280762 21.15185547 C-6.84256906 20.92198081 -3.41797738 21 0 21 C0 14.07 0 7.14 0 0 Z " fill="#6B68F4" transform="translate(327,132)"/>
<path d="M0 0 C3.0625 1.9375 3.0625 1.9375 5 5 C5.94728069 9.67719839 5.66588027 12.93459157 3.125 17 C0.42418924 19.54193954 -0.52465028 19.94515196 -4.25 20.375 C-9.19272958 19.88072704 -10.53828301 18.46171699 -14 15 C-15.43304064 12.13391871 -15.30644155 10.18699217 -15 7 C-11.09505671 0.10126686 -7.68890505 -1.12682229 0 0 Z " fill="#6966F6" transform="translate(277,436)"/>
<path d="M0 0 C3.17457096 2.5914865 4.54580349 4.07435695 5.47265625 8.00390625 C5.77286653 12.06059387 5.15121947 13.81776115 2.5625 16.9375 C1.716875 17.618125 0.87125 18.29875 0 19 C-0.33 19.33 -0.66 19.66 -1 20 C-4.25564772 20.38301738 -6.86168034 20.67642942 -9.76171875 18.953125 C-11.93688531 17.16243098 -13.73024391 15.53951219 -15 13 C-15.39447548 8.81855989 -15.45035186 6.69053952 -13.125 3.125 C-9.28896676 -0.71103324 -5.22559972 -0.92799443 0 0 Z " fill="#6A67F7" transform="translate(366,449)"/>
<path d="M0 0 C3.5386994 1.65139305 4.81070153 2.71605229 7 6 C7.34178183 9.80232283 6.96725952 13.46620276 4.90625 16.734375 C2.78129713 18.83571728 0.70735606 19.92167684 -2.2578125 20.25 C-6.18766931 20.04248281 -8.43179097 19.44348022 -11.5625 17 C-13.52908217 12.89582851 -14.05667197 9.46060765 -13 5 C-9.08512267 0.32124417 -6.01475752 -0.87487382 0 0 Z " fill="#6A66F7" transform="translate(323,467)"/>
<path d="M0 0 C0.33 0 0.66 0 1 0 C1.33 9.24 1.66 18.48 2 28 C-3.61 26.35 -9.22 24.7 -15 23 C-13.49169645 19.22924112 -12.55888048 17.1279964 -10.21484375 14.08203125 C-9.68439453 13.38529297 -9.15394531 12.68855469 -8.60742188 11.97070312 C-8.05634766 11.25849609 -7.50527344 10.54628906 -6.9375 9.8125 C-5.84113597 8.38251533 -4.74602235 6.95157083 -3.65234375 5.51953125 C-3.16757568 4.89151611 -2.68280762 4.26350098 -2.18334961 3.61645508 C-0.92917771 1.99792431 -0.92917771 1.99792431 0 0 Z " fill="#D0DAFB" transform="translate(284,374)"/>
<path d="M0 0 C0 3.78483609 -1.10582515 4.77407931 -3.4375 7.6875 C-4.39462891 8.89986328 -4.39462891 8.89986328 -5.37109375 10.13671875 C-5.90863281 10.75160156 -6.44617188 11.36648438 -7 12 C-7.33 12 -7.66 12 -8 12 C-8.5 8.8125 -8.5 8.8125 -8 5 C-5.57299378 2.84975764 -2.90883109 1.40896506 0 0 Z " fill="#98BF56" transform="translate(242,396)"/>
</svg>
