<?xml version="1.0" encoding="UTF-8"?>
<svg version="1.1" xmlns="http://www.w3.org/2000/svg" width="640" height="640">
<path d="M0 0 C211.2 0 422.4 0 640 0 C640 211.2 640 422.4 640 640 C428.8 640 217.6 640 0 640 C0 428.8 0 217.6 0 0 Z " fill="#FEFEFE" transform="translate(0,0)"/>
<path d="M0 0 C3.11108398 1.31005859 3.11108398 1.31005859 6.24609375 3.1484375 C6.8151091 3.47677582 7.38412445 3.80511414 7.97038269 4.1434021 C9.80196485 5.20567577 11.6197435 6.28926656 13.4375 7.375 C14.69329409 8.11194673 15.94964472 8.84794588 17.20654297 9.58300781 C20.8167464 11.70157451 24.40864661 13.84964413 28 16 C29.40258057 16.82902832 29.40258057 16.82902832 30.83349609 17.67480469 C33.10607749 19.01937451 35.3684285 20.37877547 37.625 21.75 C38.26236084 22.13075684 38.89972168 22.51151367 39.55639648 22.90380859 C42.82000218 24.93913603 44.62145431 26.40886235 46 30 C46.16407776 32.26049805 46.16407776 32.26049805 46.04907227 34.76171875 C45.99657066 36.17469238 45.99657066 36.17469238 45.94300842 37.61621094 C45.90122971 38.62973633 45.85945099 39.64326172 45.81640625 40.6875 C45.77334206 42.85277705 45.73508688 45.01815407 45.70117188 47.18359375 C45.64413427 50.58675595 45.56348199 53.97955987 45.40014648 57.37939453 C44.40283591 69.87269599 44.40283591 69.87269599 48.62869263 81.17074585 C52.59454062 84.87400265 57.05555311 87.42101214 61.87806702 89.84819031 C65.18235691 91.64179697 67.91543904 93.92176464 70.8125 96.3125 C73.43839101 98.54099867 73.43839101 98.54099867 76 100 C79.82395741 99.56444658 82.95061582 97.50646561 86.26171875 95.65625 C86.8529805 95.32709595 87.44424225 94.99794189 88.05342102 94.65881348 C89.2976617 93.96499996 90.54065682 93.26894858 91.7824707 92.57080078 C93.68883004 91.49925239 95.598917 90.43461217 97.50976562 89.37109375 C103.08482196 86.62290899 103.08482196 86.62290899 108 83 C113.43620974 82.55566422 116.57299818 83.40812058 121.24609375 86.1484375 C121.8151091 86.47682114 122.38412445 86.80520477 122.97038269 87.14353943 C124.80189034 88.20587906 126.61965181 89.28948118 128.4375 90.375 C129.69326847 91.11125894 130.94961925 91.84652556 132.20654297 92.58081055 C135.81794354 94.69823524 139.41030748 96.84597732 143 99 C143.93505371 99.55800293 144.87010742 100.11600586 145.83349609 100.69091797 C148.10524655 102.05236497 150.36837056 103.42616556 152.625 104.8125 C153.26236084 105.20163574 153.89972168 105.59077148 154.55639648 105.99169922 C157.45987179 107.81879809 159.06238834 109.09358251 161 112 C161.27415466 114.33920288 161.27415466 114.33920288 161.30639648 117.12646484 C161.32238388 118.17119965 161.33837128 119.21593445 161.35484314 120.29232788 C161.36288719 121.98453964 161.36288719 121.98453964 161.37109375 123.7109375 C161.38012222 124.87122467 161.3891507 126.03151184 161.39845276 127.22695923 C161.41297007 129.68318088 161.42184565 132.13944134 161.42553711 134.59570312 C161.43743203 138.35352757 161.48660564 142.10970981 161.53710938 145.8671875 C161.54657345 148.25259614 161.55380856 150.63801488 161.55859375 153.0234375 C161.57812607 154.14753021 161.59765839 155.27162292 161.61778259 156.42977905 C161.57262498 164.23901624 161.57262498 164.23901624 158.64794922 168.12573242 C155.71570942 170.20122615 152.79354885 172.12832506 149.6875 173.9375 C149.06520508 174.32188232 148.44291016 174.70626465 147.80175781 175.10229492 C143.58067191 177.66753204 139.32440488 179.7597422 134.78515625 181.7109375 C123.18880181 186.68774393 123.18880181 186.68774393 115.63476562 196.19433594 C113.95521757 203.3059887 113.66947526 210.43761472 113.93969727 217.72167969 C114 221 114 221 113.60522461 224.05175781 C113.26205072 227.03530087 113.14527141 229.11521846 114 232 C117.40207894 235.32007772 121.33103892 237.27274545 125.5625 239.375 C127.73187808 240.52599347 129.89988255 241.67958017 132.06640625 242.8359375 C133.09266113 243.37186523 134.11891602 243.90779297 135.17626953 244.45996094 C144.18723252 249.37446505 144.18723252 249.37446505 146 253 C146.10560313 254.66850424 146.14875231 256.34114247 146.16113281 258.01293945 C146.17554413 259.58015495 146.17554413 259.58015495 146.19024658 261.17903137 C146.1966214 262.87898506 146.1966214 262.87898506 146.203125 264.61328125 C146.20882507 265.77498337 146.21452515 266.93668549 146.22039795 268.1335907 C146.22985796 270.59580573 146.23638589 273.05803348 146.24023438 275.52026367 C146.2499331 279.28652073 146.28094508 283.05223065 146.3125 286.81835938 C146.31903055 289.20833009 146.32428082 291.59830471 146.328125 293.98828125 C146.3404718 295.11551102 146.3528186 296.24274078 146.36553955 297.40412903 C146.36253845 298.45839584 146.35953735 299.51266266 146.35644531 300.59887695 C146.36009094 301.52328079 146.36373657 302.44768463 146.36749268 303.40010071 C145.84107176 307.1243691 144.34227617 309.95536505 141.35620117 312.27929688 C140.75783447 312.58931641 140.15946777 312.89933594 139.54296875 313.21875 C138.85323975 313.58750244 138.16351074 313.95625488 137.45288086 314.33618164 C136.70530518 314.7202417 135.95772949 315.10430176 135.1875 315.5 C129.77878865 318.36684556 124.4490416 321.29414081 119.234375 324.50390625 C118.26991455 325.09429687 117.3054541 325.6846875 116.31176758 326.29296875 C114.43430107 327.44882344 112.56394752 328.61633461 110.7019043 329.796875 C105.34450913 333.06663276 100.4351522 335.87911165 94 335 C90.24350479 333.63564212 86.92533064 331.73125627 83.5 329.6875 C82.07010742 328.87394043 82.07010742 328.87394043 80.61132812 328.04394531 C76.03157541 325.42366596 71.50969448 322.71133344 67 319.97265625 C66.23623047 319.51221924 65.47246094 319.05178223 64.68554688 318.57739258 C63.26643898 317.71549696 61.85563016 316.83972966 60.45507812 315.94799805 C56.45122543 313.48725457 53.69723122 312.43793814 49 313 C45.72435637 313.92414941 45.72435637 313.92414941 43 315 C47.18531591 322.76344068 51.51447232 330.43233671 55.9375 338.0625 C56.92374088 339.76829041 57.90998 341.47408184 58.89611816 343.17993164 C59.91482673 344.9416708 60.93412019 346.7030702 61.95361328 348.46435547 C67.09926714 357.35414111 72.23607296 366.24894434 77.35644531 375.15332031 C78.83876822 377.72074234 80.33457528 380.27962242 81.8359375 382.8359375 C89.86216013 396.58625157 93.094113 408.77501609 90.56640625 424.73828125 C89.90418119 426.98820116 89.07190135 428.91341623 88 431 C87.52433594 431.96292969 87.04867188 432.92585938 86.55859375 433.91796875 C79.94248051 446.27521042 70.79292526 453.09555439 57.6651001 457.54483032 C51.28120399 459.4307416 45.12580688 459.4210273 38.51074219 459.38818359 C37.19553085 459.39344055 35.88031952 459.39869751 34.5252533 459.40411377 C30.94435528 459.4176945 27.36371899 459.41252596 23.78281689 459.40297651 C20.01375363 459.39532523 16.24471121 459.40244117 12.47564697 459.40713501 C6.14436875 459.41257944 -0.1868042 459.40543837 -6.51806641 459.39111328 C-13.80372821 459.37481751 -21.08913768 459.38005812 -28.37479329 459.3965925 C-34.66053377 459.41027883 -40.94619898 459.41209153 -47.23194957 459.40427649 C-50.97253844 459.39963533 -54.71300943 459.39887509 -58.45359039 459.40888596 C-61.97665427 459.41765718 -65.49939857 459.4113522 -69.02242851 459.39420319 C-70.90661576 459.38844795 -72.79083055 459.39716846 -74.67500305 459.40658569 C-90.10323774 459.29383318 -102.78862778 456.28725397 -114.4140625 445.828125 C-119.1612419 440.81425013 -122.29888692 435.32353604 -125 429 C-125.35320312 428.20078125 -125.70640625 427.4015625 -126.0703125 426.578125 C-127.80020852 421.78093435 -128.19176049 416.9460595 -128.3125 411.875 C-128.34988281 410.86179687 -128.38726562 409.84859375 -128.42578125 408.8046875 C-127.32860631 399.00057383 -123.00217252 390.51903048 -118.0625 382.125 C-117.49257324 381.13741699 -116.92264648 380.14983398 -116.33544922 379.13232422 C-114.56922879 376.08087387 -112.78673278 373.03947666 -111 370 C-110.19199951 368.61748047 -110.19199951 368.61748047 -109.36767578 367.20703125 C-104.29181486 358.52434907 -99.18284442 349.87022795 -93.84765625 341.34375 C-93.15526855 340.22468262 -92.46288086 339.10561523 -91.74951172 337.95263672 C-90.40537515 335.78349376 -89.04694918 333.62312078 -87.67236328 331.47314453 C-82.86240809 323.75789199 -82.86240809 323.75789199 -83 315 C-85.31179924 312.22277052 -85.31179924 312.22277052 -88.625 310.125 C-89.20241943 309.71572266 -89.77983887 309.30644531 -90.37475586 308.88476562 C-91.60174797 308.01807156 -92.83665585 307.16249227 -94.07861328 306.31738281 C-96.02566998 304.98239959 -97.93491633 303.60526081 -99.83984375 302.2109375 C-106.55030899 296.94025734 -106.55030899 296.94025734 -114 293 C-116.02916858 293.53897155 -116.02916858 293.53897155 -117.9765625 294.78125 C-118.72494385 295.20865479 -119.4733252 295.63605957 -120.24438477 296.07641602 C-121.02998779 296.54619873 -121.81559082 297.01598145 -122.625 297.5 C-123.83724243 298.1959729 -123.83724243 298.1959729 -125.07397461 298.90600586 C-130.00899091 301.75456093 -134.87068004 304.71023402 -139.56640625 307.94140625 C-144.66914527 310.16105677 -148.68068748 310.90653907 -153.9987793 308.82788086 C-157.42729043 307.06260655 -160.75277983 305.16257206 -164.0625 303.1875 C-165.26208021 302.49275809 -166.46260889 301.79965138 -167.6640625 301.1081543 C-171.12857296 299.10352026 -174.56523702 297.0551805 -178 295 C-178.91120605 294.46149414 -179.82241211 293.92298828 -180.76123047 293.36816406 C-183.01706447 292.03127378 -185.26225183 290.67940431 -187.5 289.3125 C-188.13301025 288.92795654 -188.76602051 288.54341309 -189.41821289 288.1472168 C-192.66536493 286.09876058 -194.98700741 284.27286582 -197 281 C-197.41459656 278.55400085 -197.41459656 278.55400085 -197.4675293 275.79174805 C-197.49312424 274.75354416 -197.51871918 273.71534027 -197.54508972 272.64567566 C-197.5547023 271.52896988 -197.56431488 270.4122641 -197.57421875 269.26171875 C-197.5889473 268.10758987 -197.60367584 266.953461 -197.61885071 265.76435852 C-197.64280025 263.32254661 -197.65822231 260.88063839 -197.66577148 258.4387207 C-197.68736547 254.71072466 -197.76755179 250.98685542 -197.84960938 247.25976562 C-197.86560563 244.88543833 -197.87809025 242.51108425 -197.88671875 240.13671875 C-197.91859787 239.02608566 -197.95047699 237.91545258 -197.98332214 236.77116394 C-197.91787256 229.21854355 -197.91787256 229.21854355 -195.34860229 225.80764771 C-193.32353147 223.98438139 -191.29187808 222.46980541 -189 221 C-188.06639648 220.38060547 -187.13279297 219.76121094 -186.17089844 219.12304688 C-185.3255957 218.65962891 -184.48029297 218.19621094 -183.609375 217.71875 C-182.65764404 217.18983154 -181.70591309 216.66091309 -180.7253418 216.1159668 C-179.25254761 215.31606323 -179.25254761 215.31606323 -177.75 214.5 C-175.70924816 213.37179396 -173.66887982 212.24289393 -171.62890625 211.11328125 C-170.65840332 210.57912598 -169.68790039 210.0449707 -168.68798828 209.49462891 C-164.40639354 207.11389112 -160.20702592 204.60365212 -156.01171875 202.07421875 C-154 201 -154 201 -152 201 C-152.02320313 200.3915625 -152.04640625 199.783125 -152.0703125 199.15625 C-152.21557126 192.10082435 -151.483708 185.34300182 -150.4375 178.3828125 C-149.712133 172.61671153 -149.92029292 166.79979736 -150 161 C-151.24088379 160.31224487 -151.24088379 160.31224487 -152.50683594 159.6105957 C-155.59041418 157.89497105 -158.66840627 156.17006796 -161.74316406 154.4387207 C-163.07179326 153.69310434 -164.4025038 152.95118364 -165.73535156 152.21313477 C-167.65736818 151.14798131 -169.57136112 150.06950168 -171.484375 148.98828125 C-172.63647461 148.34415283 -173.78857422 147.70002441 -174.97558594 147.03637695 C-178.30785744 144.79271562 -180.0759674 143.54307424 -182 140 C-182.61599107 135.97123442 -182.63201249 131.98013232 -182.63671875 127.91015625 C-182.65313164 126.14423378 -182.65313164 126.14423378 -182.6698761 124.34263611 C-182.68572821 121.85550308 -182.69094145 119.36828269 -182.6862793 116.88110352 C-182.6874948 113.07876551 -182.74728695 109.28026454 -182.81054688 105.47851562 C-182.81868805 103.05990524 -182.82336083 100.64128018 -182.82421875 98.22265625 C-182.84779953 97.08812515 -182.87138031 95.95359406 -182.89567566 94.78468323 C-182.80656754 87.12374061 -182.80656754 87.12374061 -180.58512878 84.02874756 C-178.8057917 82.44967974 -177.04359232 81.2129492 -175 80 C-174.05374756 79.3930127 -173.10749512 78.78602539 -172.13256836 78.16064453 C-171.21096924 77.65645996 -170.28937012 77.15227539 -169.33984375 76.6328125 C-168.30512939 76.06062988 -167.27041504 75.48844727 -166.2043457 74.89892578 C-165.12628662 74.31353027 -164.04822754 73.72813477 -162.9375 73.125 C-160.70006035 71.89667175 -158.46307803 70.66751007 -156.2265625 69.4375 C-155.15438477 68.8496875 -154.08220703 68.261875 -152.97753906 67.65625 C-150.44501213 66.24753709 -147.9453234 64.80382197 -145.4609375 63.3125 C-144.82808838 62.93464355 -144.19523926 62.55678711 -143.54321289 62.16748047 C-141.94691316 61.20596265 -140.35786837 60.23242757 -138.76953125 59.2578125 C-135.49776073 57.77190262 -133.57145077 57.71827482 -130 58 C-127.26196289 59.14233398 -127.26196289 59.14233398 -124.47265625 60.74609375 C-123.43979492 61.33253662 -122.40693359 61.91897949 -121.34277344 62.52319336 C-120.2602832 63.15491455 -119.17779297 63.78663574 -118.0625 64.4375 C-116.39429199 65.38798218 -116.39429199 65.38798218 -114.69238281 66.35766602 C-109.81241131 69.15113415 -104.9684862 71.9898972 -100.19921875 74.96875 C-99.51786865 75.3922876 -98.83651855 75.8158252 -98.13452148 76.25219727 C-96.91501995 77.01922407 -95.70411917 77.80017373 -94.50415039 78.59741211 C-92.10359761 80.12041374 -90.58992447 81.06327801 -87.70800781 80.75415039 C-84.56500042 79.8788574 -81.74859669 78.67052893 -78.78125 77.3125 C-77.60175781 76.77882813 -76.42226563 76.24515625 -75.20703125 75.6953125 C-73.97107902 75.13081037 -72.73540422 74.56570044 -71.5 74 C-69.07552702 72.88981646 -66.64824751 71.78674805 -64.21875 70.6875 C-63.14560547 70.19636719 -62.07246094 69.70523438 -60.96679688 69.19921875 C-58.28145044 68.11376601 -55.85209832 67.4485261 -53 67 C-53.02618408 65.87505127 -53.05236816 64.75010254 -53.0793457 63.59106445 C-53.17001745 59.40734843 -53.22731037 55.22371879 -53.2746582 51.03930664 C-53.2997639 49.23023868 -53.33385595 47.42127178 -53.37719727 45.61254883 C-53.43802579 43.00837249 -53.46624809 40.40553969 -53.48828125 37.80078125 C-53.51408768 36.99538406 -53.5398941 36.18998688 -53.56648254 35.36018372 C-53.56859646 31.10379042 -53.40868539 29.50958172 -50.65234375 26.07275391 C-47.76166373 23.81374494 -44.85914723 21.90988391 -41.6875 20.0625 C-41.06593018 19.69769531 -40.44436035 19.33289063 -39.80395508 18.95703125 C-38.37785047 18.12167603 -36.94954559 17.29007026 -35.51953125 16.46142578 C-32.59123764 14.76290199 -29.67058296 13.05159073 -26.75 11.33984375 C-22.47495706 8.83718556 -18.19859562 6.3368472 -13.91796875 3.84375 C-13.01844482 3.31974609 -12.1189209 2.79574219 -11.19213867 2.25585938 C-7.16810325 -0.04947955 -4.71377233 -0.32458187 0 0 Z " fill="#072C75" transform="translate(338,91)"/>
<path d="M0 0 C14.52 0 29.04 0 44 0 C44.00257813 4.40859375 44.00515625 8.8171875 44.0078125 13.359375 C44.02666613 16.90597365 44.05148411 20.45242071 44.08029175 23.99894714 C44.10894527 27.72554112 44.12743599 31.45151097 44.12011719 35.17822266 C44.11346108 38.77730962 44.13635771 42.37517291 44.17855453 45.97400665 C44.19488752 47.99430669 44.1817149 50.01477738 44.16775513 52.03509521 C44.30829088 61.0873916 46.33297381 67.27813027 51 75 C51.62567871 76.12083984 52.25135742 77.24167969 52.89599609 78.39648438 C53.43305176 79.28658203 53.97010742 80.17667969 54.5234375 81.09375 C55.1436377 82.12910889 55.76383789 83.16446777 56.40283203 84.23120117 C57.37905518 85.84925659 57.37905518 85.84925659 58.375 87.5 C59.80027257 89.87948899 61.2211371 92.26158759 62.640625 94.64453125 C63.00177399 95.25049637 63.36292297 95.85646149 63.73501587 96.48078918 C67.61279733 103.0034655 71.37493569 109.59082615 75.125 116.1875 C80.11806565 124.96630785 85.1487709 133.72095352 90.25 142.4375 C92.50127337 146.29092425 94.75117246 150.1451479 97 154 C97.86044922 155.47412354 97.86044922 155.47412354 98.73828125 156.97802734 C100.41496011 159.85686223 102.0836011 162.74020519 103.75 165.625 C104.25176758 166.48407959 104.75353516 167.34315918 105.27050781 168.22827148 C109.80175704 176.10427732 112.1854967 182.81552031 111 192 C108.70315409 199.34990692 104.38653027 204.74231316 98 209 C94.23724026 210.78027846 91.2729882 211.25090022 87.12416077 211.25396729 C85.35988487 211.26242676 85.35988487 211.26242676 83.55996704 211.27105713 C81.63741592 211.26498444 81.63741592 211.26498444 79.67602539 211.25878906 C78.30572829 211.26150064 76.93543266 211.26506251 75.56513977 211.26940918 C71.85023899 211.27851654 68.13544946 211.27499554 64.42054677 211.26865101 C60.52893226 211.26358144 56.63732717 211.26828522 52.74571228 211.27142334 C46.20977064 211.27506062 39.67387422 211.27027057 33.13793945 211.26074219 C25.58813476 211.24986264 18.03843814 211.25338052 10.48863608 211.264395 C4.00101233 211.27348008 -2.48657893 211.27474704 -8.97420698 211.26951766 C-12.84649492 211.26640409 -16.71873212 211.26597167 -20.59101677 211.27259064 C-24.23293536 211.27838107 -27.87471509 211.27433623 -31.51661873 211.26280212 C-33.48589005 211.25890914 -35.45517316 211.26482704 -37.42443848 211.27105713 C-38.60344223 211.26541748 -39.78244598 211.25977783 -40.99717712 211.25396729 C-42.01756042 211.25321323 -43.03794371 211.25245918 -44.0892477 211.25168228 C-50.62956121 210.6861649 -56.22909531 208.08757951 -60.640625 203.171875 C-65.7623856 196.65779113 -67.90092491 190.25494978 -67.75 181.92578125 C-66.2474393 174.06081506 -61.73373117 167.43874942 -57.62060547 160.66796875 C-56.04517147 158.07436485 -54.50378214 155.46370965 -52.97265625 152.84375 C-50.85661482 149.22968879 -48.72565076 145.62511632 -46.58203125 142.02734375 C-42.54426889 135.24485491 -38.5519899 128.4359347 -34.5625 121.625 C-34.20282135 121.0112149 -33.8431427 120.39742981 -33.4725647 119.76504517 C-27.91701124 110.28451632 -22.37417323 100.79660568 -16.84521484 91.30053711 C-14.22638939 86.80492514 -11.59935853 82.31476911 -8.9453125 77.83984375 C-8.24233032 76.65310059 -8.24233032 76.65310059 -7.52514648 75.44238281 C-6.66261207 73.98840073 -5.79771552 72.53581607 -4.92993164 71.08496094 C-1.95987621 66.07725743 -0.87565193 62.67165924 -0.79467773 56.8762207 C-0.77473251 55.61513992 -0.75478729 54.35405914 -0.73423767 53.05476379 C-0.71725467 51.67843753 -0.70037581 50.30210998 -0.68359375 48.92578125 C-0.66301803 47.51758725 -0.6420214 46.10939935 -0.62062073 44.70121765 C-0.56546378 40.99739519 -0.51602646 37.29351759 -0.46777344 33.58959961 C-0.41751179 29.80903227 -0.36190226 26.02854389 -0.30664062 22.24804688 C-0.19863139 14.83209179 -0.09955908 7.41609266 0 0 Z " fill="#FEFEFE" transform="translate(298,318)"/>
<path d="M0 0 C0.93207275 0.53036865 1.86414551 1.0607373 2.82446289 1.60717773 C4.38608154 2.48974243 4.38608154 2.48974243 5.97924805 3.39013672 C7.07414551 4.01734619 8.16904297 4.64455566 9.29711914 5.29077148 C10.97813721 6.23835327 10.97813721 6.23835327 12.69311523 7.20507812 C17.45867112 9.89755857 22.20654523 12.60636136 26.87133789 15.47045898 C27.49854736 15.85000732 28.12575684 16.22955566 28.77197266 16.62060547 C30.35544097 17.58693873 31.92464554 18.57654143 33.49243164 19.56811523 C37.19925099 21.06801353 39.6683145 21.0200981 43.35961914 19.72827148 C47.35700901 17.80600706 51.16400671 15.60297221 54.98461914 13.35327148 C56.00813477 12.76288086 57.03165039 12.17249023 58.08618164 11.56420898 C63.59526366 8.40050175 63.59526366 8.40050175 68.93920898 4.97192383 C71.35961914 3.72827148 71.35961914 3.72827148 73.42578125 3.87451172 C75.61078968 4.83915942 77.37675713 5.97100112 79.30102539 7.38842773 C80.05061523 7.93563477 80.80020508 8.4828418 81.57250977 9.04663086 C82.34788086 9.62219727 83.12325195 10.19776367 83.92211914 10.79077148 C84.67041992 11.33926758 85.4187207 11.88776367 86.18969727 12.45288086 C87.75403962 13.59988804 89.30119944 14.77062042 90.83227539 15.96166992 C93.34179233 17.83297029 93.34179233 17.83297029 96.37133789 19.08081055 C100.05166347 20.95782414 101.95765112 22.3298197 104.35961914 25.72827148 C106.25193777 33.69700245 105.48993841 42.23411865 105.23461914 50.35327148 C105.16045213 53.73316793 105.10235242 57.11169444 105.07254028 60.49227905 C105.05084341 62.58962344 105.00214075 64.68691118 104.92282104 66.78286743 C104.79023275 72.9009704 104.79023275 72.9009704 107.51391602 78.19360352 C110.31617136 80.68957254 112.91538969 82.52256698 116.21118164 84.30639648 C117.30946289 84.90967773 118.40774414 85.51295898 119.53930664 86.13452148 C121.24473633 87.04717773 121.24473633 87.04717773 122.98461914 87.97827148 C125.2480295 89.21193209 127.51106784 90.44627554 129.77368164 91.68139648 C130.77351074 92.21925781 131.77333984 92.75711914 132.8034668 93.3112793 C135.35961914 94.72827148 135.35961914 94.72827148 138.35961914 96.72827148 C138.91217432 104.33774572 137.83648249 111.9179843 136.98461914 119.47827148 C136.85829102 120.68354492 136.73196289 121.88881836 136.60180664 123.13061523 C136.47290039 124.29206055 136.34399414 125.45350586 136.21118164 126.65014648 C136.09597168 127.69783203 135.98076172 128.74551758 135.86206055 129.82495117 C135.10801976 134.18211982 134.57625845 136.80971559 130.95214844 139.54589844 C129.95610596 140.09721436 128.96006348 140.64853027 127.93383789 141.21655273 C126.83241455 141.8368335 125.73099121 142.45711426 124.59619141 143.09619141 C124.01555939 143.41429779 123.43492737 143.73240417 122.83670044 144.06015015 C121.03969044 145.04484213 119.25317868 146.04642079 117.46875 147.05371094 C115.14251314 148.36608689 112.81332621 149.67250427 110.48168945 150.9753418 C106.7592953 153.06533163 103.07114594 155.20046872 99.42211914 157.41577148 C98.4849707 157.97651367 97.54782227 158.53725586 96.58227539 159.11499023 C94.1039308 160.91385898 92.88824967 162.06241056 91.35961914 164.72827148 C91.03455007 167.62324004 90.87137605 170.315132 90.84790039 173.21264648 C90.82994919 174.02824036 90.81199799 174.84383423 90.79350281 175.68414307 C90.73943894 178.28213371 90.70551732 180.87994106 90.67211914 183.47827148 C90.63894253 185.24261988 90.60445255 187.00694411 90.56860352 188.77124023 C90.48371494 193.09011831 90.41688537 197.4089424 90.35961914 201.72827148 C88.28080714 202.73763685 86.19638294 203.73544994 84.10961914 204.72827148 C82.94946289 205.28514648 81.78930664 205.84202148 80.59399414 206.41577148 C77.35961914 207.72827148 77.35961914 207.72827148 73.35961914 207.72827148 C66.39882024 199.91573635 65.38046035 191.70125279 65.67602539 181.65014648 C65.68593002 180.3575592 65.69583466 179.06497192 65.70603943 177.73321533 C65.7324408 174.33917902 65.80090175 170.94732657 65.87896729 167.55413818 C65.95129526 164.07472258 65.98269711 160.59494502 66.01782227 157.11499023 C66.09231584 150.31853467 66.21137252 143.52350862 66.35961914 136.72827148 C66.90956543 136.4670752 67.45951172 136.20587891 68.02612305 135.93676758 C69.10772705 135.41203857 69.10772705 135.41203857 70.21118164 134.87670898 C71.28360107 134.36116455 71.28360107 134.36116455 72.37768555 133.83520508 C76.14233002 131.73260616 77.87903411 128.93657474 79.44018555 125.01147461 C80.97115009 119.54455716 80.73152636 113.99586457 80.73022461 108.3605957 C80.73460806 106.23364752 80.77101231 104.10876113 80.80883789 101.98217773 C80.81470562 100.61629934 80.81867531 99.25041119 80.82055664 97.88452148 C80.82877441 96.65540039 80.83699219 95.4262793 80.84545898 94.15991211 C80.27245055 90.11257216 78.75637859 87.98411217 76.35961914 84.72827148 C76.35961914 84.06827148 76.35961914 83.40827148 76.35961914 82.72827148 C75.82336914 82.46014648 75.28711914 82.19202148 74.73461914 81.91577148 C73.03359911 81.06526147 71.36702747 80.14446309 69.72775269 79.18029785 C65.75981094 77.46968989 62.33597452 77.29180527 58.09448242 77.30834961 C57.28715668 77.29988007 56.47983093 77.29141052 55.64804077 77.28268433 C52.99184202 77.25937659 50.33622472 77.25829072 47.67993164 77.25952148 C45.82436901 77.25241579 43.96880856 77.24471619 42.11325073 77.2364502 C38.22802622 77.22301942 34.34300487 77.22143015 30.45776367 77.22729492 C25.49229213 77.23318757 20.52779949 77.20261104 15.56251717 77.16217804 C11.73105671 77.13625843 7.89983057 77.13342752 4.06829453 77.1370697 C2.23834652 77.13538223 0.40838726 77.1257757 -1.42147446 77.10792542 C-3.98712366 77.08565194 -6.55080942 77.09547882 -9.11645508 77.11303711 C-9.86372864 77.09977386 -10.6110022 77.08651062 -11.38092041 77.07284546 C-17.19946624 77.1648177 -21.09152365 79.15258567 -25.64038086 82.72827148 C-32.0737145 89.66949989 -32.01306418 95.81511558 -32.01098633 104.89013672 C-32.01534628 107.02385083 -32.05164935 109.1554717 -32.08959961 111.28881836 C-32.14751767 118.51383111 -32.05775735 123.81806618 -27.64038086 129.72827148 C-27.64038086 130.38827148 -27.64038086 131.04827148 -27.64038086 131.72827148 C-27.10413086 131.99639648 -26.56788086 132.26452148 -26.01538086 132.54077148 C-23.22371419 133.93660482 -20.43204753 135.33243815 -17.64038086 136.72827148 C-17.45361007 144.19587389 -17.31217142 151.66322928 -17.22588348 159.13264751 C-17.18443082 162.60262728 -17.12837838 166.07098991 -17.03686523 169.54003906 C-16.32134637 197.35843105 -16.32134637 197.35843105 -23.90795898 206.95019531 C-24.4796582 207.53696045 -25.05135742 208.12372559 -25.64038086 208.72827148 C-28.76757389 208.11591157 -30.84797057 207.09883072 -33.43334961 205.25170898 C-34.1468457 204.74510742 -34.8603418 204.23850586 -35.59545898 203.71655273 C-36.3321582 203.18416992 -37.06885742 202.65178711 -37.82788086 202.10327148 C-38.54524414 201.5940918 -39.26260742 201.08491211 -40.00170898 200.56030273 C-41.42964883 199.54016308 -42.8474131 198.50559007 -44.2532959 197.45526123 C-46.59763687 195.71354004 -46.59763687 195.71354004 -49.01074219 194.27203369 C-55.15950877 190.22234313 -55.15950877 190.22234313 -56.438797 186.24758911 C-56.71057967 183.29606656 -56.70522258 180.46369676 -56.59741211 177.50170898 C-56.59738693 176.43586578 -56.59736176 175.37002258 -56.59733582 174.2718811 C-56.59145084 170.88048651 -56.52586606 167.49383137 -56.45288086 164.10327148 C-56.40645041 160.70639068 -56.37301882 157.31042206 -56.36198425 153.91323853 C-56.35245056 151.80394545 -56.3211839 149.69461064 -56.26557922 147.58602905 C-56.20722718 141.94930236 -56.20722718 141.94930236 -58.25366211 136.7902832 C-61.05913626 134.36648669 -63.87924725 132.57955716 -67.12084961 130.77514648 C-68.0410363 130.25661102 -68.0410363 130.25661102 -68.97981262 129.7276001 C-70.92383998 128.63462936 -72.87541934 127.55609002 -74.82788086 126.47827148 C-76.78923533 125.38315989 -78.74895024 124.28517471 -80.70808411 123.18609619 C-82.47600537 122.1962504 -84.24792058 121.21354815 -86.02001953 120.23120117 C-88.64038086 118.72827148 -88.64038086 118.72827148 -89.64038086 117.72827148 C-89.72826045 114.71107218 -89.7147513 111.74406854 -89.64038086 108.72827148 C-89.61540527 107.5988916 -89.59042969 106.46951172 -89.56469727 105.3059082 C-89.34603738 98.68993419 -88.92232495 92.1285209 -88.07006836 85.56420898 C-87.92037598 84.37102051 -87.77068359 83.17783203 -87.61645508 81.94848633 C-86.41568079 77.98695234 -84.78250477 76.35517738 -81.57788086 73.79077148 C-79.75669818 73.07471557 -77.93121437 72.36687389 -76.08178711 71.72729492 C-71.07473749 69.67841022 -66.49888472 66.71410698 -61.85256958 63.9604187 C-60.10283373 62.93045966 -58.34379717 61.91900173 -56.57958984 60.9140625 C-55.48461182 60.28943115 -54.38963379 59.6647998 -53.26147461 59.02124023 C-52.27590576 58.45945068 -51.29033691 57.89766113 -50.27490234 57.31884766 C-45.29245822 54.51517417 -45.29245822 54.51517417 -42.64038086 49.72827148 C-42.48645456 46.92666646 -42.38300041 44.14528724 -42.32397461 41.34155273 C-42.30319351 40.52454391 -42.28241241 39.7075351 -42.26100159 38.86576843 C-42.19565007 36.25752115 -42.13668812 33.64917373 -42.07788086 31.04077148 C-42.03468194 29.27188095 -41.99106721 27.50300051 -41.94702148 25.73413086 C-41.83998343 21.39894686 -41.73867542 17.06366219 -41.64038086 12.72827148 C-36.89745599 10.55647709 -32.14697711 8.40253555 -27.38867188 6.26464844 C-25.77157084 5.53511333 -24.15662893 4.80077225 -22.54394531 4.06152344 C-20.2235513 2.99887302 -17.89590509 1.95382919 -15.56616211 0.91186523 C-14.84826004 0.57859726 -14.13035797 0.24532928 -13.39070129 -0.09803772 C-7.916829 -2.51492965 -5.28438166 -2.54520056 0 0 Z " fill="#FDFDFE" transform="translate(295.640380859375,180.271728515625)"/>
<path d="M0 0 C0.80382111 -0.00992981 1.60764221 -0.01985962 2.43582153 -0.03009033 C5.09315435 -0.05927857 7.75024809 -0.07293076 10.40771484 -0.08398438 C12.26134239 -0.09549544 14.11496992 -0.1070108 15.96859741 -0.11853027 C19.8573314 -0.13953709 23.7459829 -0.15122977 27.63476562 -0.15820312 C32.59794961 -0.16914551 37.56002865 -0.21714452 42.5228672 -0.27414703 C46.35439135 -0.31155822 50.18565413 -0.32181945 54.01734543 -0.32487488 C55.84567656 -0.33089765 57.67400476 -0.34685203 59.5021553 -0.37324524 C78.22427946 -0.62415412 78.22427946 -0.62415412 85.99365234 6.32226562 C91.49957042 11.97441017 91.65445247 18.0100921 91.57958984 25.65429688 C91.55783691 26.68224365 91.55783691 26.68224365 91.53564453 27.73095703 C91.49373109 29.81834389 91.49459244 31.90249641 91.50146484 33.99023438 C91.43211502 49.02826129 91.43211502 49.02826129 86.34521484 55.38085938 C85.49056641 56.06341797 85.49056641 56.06341797 84.61865234 56.75976562 C83.77173828 57.46939453 83.77173828 57.46939453 82.90771484 58.19335938 C80.6341827 59.53427935 78.57538232 59.85649506 75.99365234 60.32226562 C75.98530718 67.84252398 76.0095139 75.36210159 76.07393074 82.88207817 C76.10285755 86.37501512 76.12106494 89.86728756 76.11376953 93.36035156 C76.10584907 97.38735472 76.1463588 101.41266506 76.18896484 105.43945312 C76.17532394 107.29786331 76.17532394 107.29786331 76.16140747 109.19381714 C76.28410596 116.59595251 77.4146532 121.33517673 81.70944214 127.42752075 C82.99365234 129.32226562 82.99365234 129.32226562 82.99365234 131.32226562 C83.88568359 130.97292969 84.77771484 130.62359375 85.69677734 130.26367188 C86.86724609 129.80863281 88.03771484 129.35359375 89.24365234 128.88476562 C90.40380859 128.43230469 91.56396484 127.97984375 92.75927734 127.51367188 C95.18331542 126.6207593 97.4765171 125.86432198 99.99365234 125.32226562 C100.00783203 126.33546875 100.02201172 127.34867187 100.03662109 128.39257812 C99.97005128 136.88801045 99.97005128 136.88801045 103.55615234 144.25976562 C104.36052734 144.94039062 105.16490234 145.62101563 105.99365234 146.32226562 C102.36365234 147.31226563 98.73365234 148.30226563 94.99365234 149.32226562 C99.18921946 157.08119111 103.50768108 164.75383711 107.93115234 172.38476562 C108.91739323 174.09055604 109.90363235 175.79634747 110.88977051 177.50219727 C111.90847907 179.26393643 112.92777253 181.02533583 113.94726562 182.78662109 C119.09291949 191.67640673 124.2297253 200.57120997 129.35009766 209.47558594 C130.83242056 212.04300796 132.32822762 214.60188804 133.82958984 217.15820312 C141.85581247 230.90851719 145.08776535 243.09728171 142.56005859 259.06054688 C141.89783354 261.31046679 141.06555369 263.23568186 139.99365234 265.32226562 C139.51798828 266.28519531 139.04232422 267.248125 138.55224609 268.24023438 C131.93613285 280.59747604 122.7865776 287.41782001 109.65875244 291.86709595 C103.27485634 293.75300723 97.11945922 293.74329292 90.50439453 293.71044922 C89.1891832 293.71570618 87.87397186 293.72096313 86.51890564 293.72637939 C82.93800763 293.73996012 79.35737134 293.73479158 75.77646923 293.72524214 C72.00740597 293.71759085 68.23836356 293.7247068 64.46929932 293.72940063 C58.13802109 293.73484507 51.80684814 293.727704 45.47558594 293.71337891 C38.18992413 293.69708314 30.90451466 293.70232374 23.61885905 293.71885812 C17.33311858 293.73254446 11.04745337 293.73435715 4.76170278 293.72654212 C1.0211139 293.72190096 -2.71935708 293.72114071 -6.45993805 293.73115158 C-9.98300192 293.73992281 -13.50574623 293.73361783 -17.02877617 293.71646881 C-18.91296341 293.71071358 -20.79717821 293.71943409 -22.68135071 293.72885132 C-38.10958539 293.61609881 -50.79497544 290.60951959 -62.42041016 280.15039062 C-67.16758956 275.13651575 -70.30523458 269.64580167 -73.00634766 263.32226562 C-73.35955078 262.52304687 -73.71275391 261.72382812 -74.07666016 260.90039062 C-75.80655618 256.10319997 -76.19810814 251.26832513 -76.31884766 246.19726562 C-76.35623047 245.1840625 -76.39361328 244.17085937 -76.43212891 243.12695312 C-75.33494754 233.32278199 -71.00844014 224.84138314 -66.06884766 216.44726562 C-65.4981958 215.45823242 -64.92754395 214.46919922 -64.33959961 213.45019531 C-62.57439209 210.40003302 -60.79284171 207.36000065 -59.00634766 204.32226562 C-58.20632324 202.95569824 -58.20632324 202.95569824 -57.39013672 201.56152344 C-55.82870291 198.89606522 -54.26226711 196.2336186 -52.69384766 193.57226562 C-51.91521362 192.2482373 -51.91521362 192.2482373 -51.12084961 190.89746094 C-48.39472972 186.28333133 -45.62966519 181.69898189 -42.78669739 177.15612793 C-41.29417821 174.76477932 -39.81957016 172.36262047 -38.34634399 169.95935059 C-37.28817212 168.24871296 -36.20558086 166.55325616 -35.12231445 164.85839844 C-31.15874749 158.37443202 -29.19949456 153.43531869 -29.17773438 145.78149414 C-29.00634766 143.32226562 -29.00634766 143.32226562 -26.88134766 140.38476562 C-24.00634766 138.32226562 -24.00634766 138.32226562 -20.69384766 136.38476562 C-14.8512998 132.07197256 -11.03447722 126.24150749 -9.00634766 119.32226562 C-7.64640248 109.96907403 -7.9111014 100.44262376 -7.99346924 91.01080322 C-8.01510415 87.54419355 -7.99103211 84.07790457 -7.97119141 80.61132812 C-7.9390244 73.84795443 -7.95632715 67.08551907 -8.00634766 60.32226562 C-8.94220703 60.03738281 -9.87806641 59.7525 -10.84228516 59.45898438 C-16.08594047 57.57515265 -19.46904359 53.57114532 -22.15966797 48.74633789 C-23.92172885 43.70149865 -23.63159236 38.27796463 -23.58276367 32.98901367 C-23.56889617 30.89210097 -23.60302123 28.79966209 -23.64111328 26.703125 C-23.68483774 19.11797592 -23.33752613 13.08285801 -18.00634766 7.32226562 C-12.33657762 1.68450235 -7.90667387 0.02340188 0 0 Z M11.99365234 61.32226562 C11.99107422 65.73085938 11.98849609 70.13945312 11.98583984 74.68164062 C11.96698621 78.22823927 11.94216823 81.77468634 11.9133606 85.32121277 C11.88470708 89.04780674 11.86621636 92.7737766 11.87353516 96.50048828 C11.88019127 100.09957525 11.85729463 103.69743854 11.81509781 107.29627228 C11.79876483 109.31657232 11.81193744 111.33704301 11.82589722 113.35736084 C11.68564885 122.3911457 9.65105799 128.61326144 4.99365234 136.32226562 C4.26709898 137.61190264 3.54150001 138.90207915 2.81787109 140.19335938 C2.10955907 141.38450575 1.39716014 142.5732293 0.68115234 143.75976562 C-0.18788297 145.21907619 -1.0563247 146.67874033 -1.92431641 148.13867188 C-2.40690918 148.94836426 -2.88950195 149.75805664 -3.38671875 150.59228516 C-6.29402052 155.49271452 -9.16418553 160.41496596 -12.04092407 165.33337402 C-18.03556286 175.58017815 -24.06573622 185.80478421 -30.13134766 196.00976562 C-35.60588905 205.22678627 -41.02211279 214.47538592 -46.38134766 223.75976562 C-47.01830566 224.86215576 -47.65526367 225.9645459 -48.31152344 227.1003418 C-53.86234743 236.74160711 -56.67145833 243.2247064 -54.57666016 254.66992188 C-52.48712732 261.15779236 -47.78951478 266.26802323 -42.38134766 270.25976562 C-38.03978821 272.20204222 -33.85730202 272.44963895 -29.14396667 272.46943665 C-27.38402626 272.4801696 -27.38402626 272.4801696 -25.58853149 272.49111938 C-24.30997284 272.49380829 -23.03141418 272.49649719 -21.71411133 272.49926758 C-20.34705942 272.50553759 -18.9800092 272.51218486 -17.61296082 272.5191803 C-13.1334246 272.54015519 -8.6538883 272.55057497 -4.17431641 272.56054688 C-2.62887365 272.56459657 -1.08343106 272.56871356 0.46201134 272.57289696 C7.72246878 272.5919324 14.98291614 272.60616815 22.24339372 272.61450893 C30.61148784 272.62428234 38.97931752 272.65061133 47.34731847 272.69100982 C53.82477533 272.7212037 60.30215649 272.7359808 66.77968234 272.73928994 C70.64431083 272.74163622 74.50865628 272.7505417 78.373209 272.77575111 C82.01029543 272.79909526 85.64691367 272.80323999 89.28405571 272.79298973 C91.2458282 272.79226135 93.20757726 272.81130661 95.16925049 272.83105469 C103.32636778 272.7831246 108.84687082 271.88189224 115.20068359 266.42773438 C120.81321189 259.72274315 123.28775213 254.25245503 123.48974609 245.45898438 C122.02614337 236.20486637 116.80746619 228.1403281 112.11865234 220.19726562 C111.11012433 218.469203 110.10159801 216.74113938 109.09320068 215.01300049 C108.06416396 213.25229381 107.03192044 211.49350906 105.99853516 209.73535156 C103.55740671 205.57960683 101.12940175 201.41629978 98.70214844 197.25244141 C97.55753305 195.28935568 96.41201629 193.32679527 95.265625 191.36474609 C90.35197195 182.952958 85.48296797 174.5158162 80.62329102 166.07275391 C77.45916168 160.57988163 74.281362 155.09569829 71.07568359 149.62695312 C70.44275391 148.54671875 69.80982422 147.46648437 69.15771484 146.35351562 C67.96075409 144.31312683 66.76167944 142.273976 65.56005859 140.23632812 C65.01865234 139.31335938 64.47724609 138.39039063 63.91943359 137.43945312 C63.44932861 136.6413623 62.97922363 135.84327148 62.49487305 135.02099609 C61.99947021 134.13041504 61.50406738 133.23983398 60.99365234 132.32226562 C60.64706573 131.79868469 60.30047913 131.27510376 59.94338989 130.73565674 C55.9880322 124.14747445 56.38886957 117.23556875 56.38427734 109.75976562 C56.36927433 108.35870472 56.35254276 106.95766136 56.33416748 105.55664062 C56.29071868 101.89393238 56.27054542 98.2314626 56.25543213 94.56854248 C56.23577921 90.820945 56.19403199 87.07359572 56.15380859 83.32617188 C56.0766857 75.9913788 56.03610259 68.65766852 55.99365234 61.32226562 C41.47365234 61.32226562 26.95365234 61.32226562 11.99365234 61.32226562 Z " fill="#082C76" transform="translate(286.00634765625,256.677734375)"/>
<path d="M0 0 C5.69874388 3.10011667 10.89203254 6.67290439 16.125 10.5 C16.91003906 11.06847656 17.69507813 11.63695312 18.50390625 12.22265625 C21.71100951 14.55362001 24.82598836 16.84683098 27.8046875 19.46875 C29.79681133 21.21709906 29.79681133 21.21709906 31.74584961 20.8046875 C34.77829472 19.72216404 37.45068447 18.22703158 40.26171875 16.65625 C40.8529805 16.32709595 41.44424225 15.99794189 42.05342102 15.65881348 C43.2976617 14.96499996 44.54065682 14.26894858 45.7824707 13.57080078 C47.68883004 12.49925239 49.598917 11.43461217 51.50976562 10.37109375 C57.08482196 7.62290899 57.08482196 7.62290899 62 4 C67.43620974 3.55566422 70.57299818 4.40812058 75.24609375 7.1484375 C75.8151091 7.47682114 76.38412445 7.80520477 76.97038269 8.14353943 C78.80189034 9.20587906 80.61965181 10.28948118 82.4375 11.375 C83.69326847 12.11125894 84.94961925 12.84652556 86.20654297 13.58081055 C89.81794354 15.69823524 93.41030748 17.84597732 97 20 C97.93505371 20.55800293 98.87010742 21.11600586 99.83349609 21.69091797 C102.10524655 23.05236497 104.36837056 24.42616556 106.625 25.8125 C107.26236084 26.20163574 107.89972168 26.59077148 108.55639648 26.99169922 C111.45987179 28.81879809 113.06238834 30.09358251 115 33 C115.27415466 35.33920288 115.27415466 35.33920288 115.30639648 38.12646484 C115.32238388 39.17119965 115.33837128 40.21593445 115.35484314 41.29232788 C115.36020584 42.42046906 115.36556854 43.54861023 115.37109375 44.7109375 C115.38012222 45.87122467 115.3891507 47.03151184 115.39845276 48.22695923 C115.41297007 50.68318088 115.42184565 53.13944134 115.42553711 55.59570312 C115.43743203 59.35352757 115.48660564 63.10970981 115.53710938 66.8671875 C115.54657345 69.25259614 115.55380856 71.63801488 115.55859375 74.0234375 C115.57812607 75.14753021 115.59765839 76.27162292 115.61778259 77.42977905 C115.57262498 85.23901624 115.57262498 85.23901624 112.64794922 89.12573242 C109.71570942 91.20122615 106.79354885 93.12832506 103.6875 94.9375 C103.06520508 95.32188232 102.44291016 95.70626465 101.80175781 96.10229492 C97.58067191 98.66753204 93.32440488 100.7597422 88.78515625 102.7109375 C77.18880181 107.68774393 77.18880181 107.68774393 69.63476562 117.19433594 C67.95521757 124.3059887 67.66947526 131.43761472 67.93969727 138.72167969 C68 142 68 142 67.60522461 145.05175781 C67.26205072 148.03530087 67.14527141 150.11521846 68 153 C71.40207894 156.32007772 75.33103892 158.27274545 79.5625 160.375 C81.73187808 161.52599347 83.89988255 162.67958017 86.06640625 163.8359375 C87.09266113 164.37186523 88.11891602 164.90779297 89.17626953 165.45996094 C98.18723252 170.37446505 98.18723252 170.37446505 100 174 C100.10560313 175.66850424 100.14875231 177.34114247 100.16113281 179.01293945 C100.17074036 180.05774979 100.1803479 181.10256012 100.19024658 182.17903137 C100.19449646 183.31233383 100.19874634 184.44563629 100.203125 185.61328125 C100.20882507 186.77498337 100.21452515 187.93668549 100.22039795 189.1335907 C100.22985796 191.59580573 100.23638589 194.05803348 100.24023438 196.52026367 C100.2499331 200.28652073 100.28094508 204.05223065 100.3125 207.81835938 C100.31903055 210.20833009 100.32428082 212.59830471 100.328125 214.98828125 C100.3404718 216.11551102 100.3528186 217.24274078 100.36553955 218.40412903 C100.36253845 219.45839584 100.35953735 220.51266266 100.35644531 221.59887695 C100.36191376 222.98548271 100.36191376 222.98548271 100.36749268 224.40010071 C99.84107176 228.1243691 98.34227617 230.95536505 95.35620117 233.27929688 C94.75783447 233.58931641 94.15946777 233.89933594 93.54296875 234.21875 C92.85323975 234.58750244 92.16351074 234.95625488 91.45288086 235.33618164 C90.33151733 235.91227173 90.33151733 235.91227173 89.1875 236.5 C83.77878865 239.36684556 78.4490416 242.29414081 73.234375 245.50390625 C71.78768433 246.38949219 71.78768433 246.38949219 70.31176758 247.29296875 C68.43430107 248.44882344 66.56394752 249.61633461 64.7019043 250.796875 C59.34023813 254.06923946 54.43931474 256.85991064 48 256 C44.30447683 254.67998558 41.05112986 252.81826488 37.6875 250.8125 C36.74342285 250.27165771 35.7993457 249.73081543 34.82666016 249.17358398 C31.87113422 247.47089589 28.93621618 245.73572308 26 244 C24.08816532 242.89943198 22.17542513 241.80043522 20.26171875 240.703125 C18.46484883 239.65847776 16.66922244 238.61168788 14.875 237.5625 C14.04057373 237.07950439 13.20614746 236.59650879 12.34643555 236.09887695 C11.56953369 235.63441162 10.79263184 235.16994629 9.9921875 234.69140625 C9.31526855 234.29123291 8.63834961 233.89105957 7.94091797 233.47875977 C4.58597523 230.9226732 2.30220398 228.9385785 1.62371826 224.58622742 C1.45243142 221.49968846 1.41956343 218.43895651 1.43359375 215.34765625 C1.42739517 214.21476669 1.42119659 213.08187714 1.41481018 211.91465759 C1.40771433 209.5216457 1.41088183 207.12858441 1.42358398 204.7355957 C1.43743876 201.078663 1.40338414 197.42429438 1.36523438 193.76757812 C1.36428306 191.44010354 1.36614268 189.11262576 1.37109375 186.78515625 C1.35783554 185.69437271 1.34457733 184.60358917 1.33091736 183.47975159 C1.43448996 175.01347169 1.43448996 175.01347169 4.14794922 171.50561523 C7.07032603 168.9382164 9.8610344 167.01086854 13.26171875 165.125 C13.85241653 164.79258301 14.44311432 164.46016602 15.05171204 164.11767578 C16.92417095 163.06697296 18.80526204 162.03306251 20.6875 161 C21.92967744 160.30844175 23.17121954 159.615741 24.41210938 158.921875 C25.32345139 158.41333984 25.32345139 158.41333984 26.25320435 157.89453125 C27.46207479 157.21772101 28.66935055 156.53805416 29.87496948 155.85546875 C32.57115941 154.33230834 35.26760087 152.86990139 38.05322266 151.515625 C42.86621268 149.1265821 42.86621268 149.1265821 45.99633789 144.95556641 C46.59437795 142.28474555 46.82106924 139.73203228 47 137 C47.28315658 134.48690047 47.567066 131.9738857 47.8515625 129.4609375 C48.1209127 126.7666926 48.37240344 124.07085927 48.625 121.375 C48.75995027 119.97521537 48.89536371 118.57547532 49.03125 117.17578125 C49.35870696 113.78426273 49.68150656 110.39236999 50 107 C49.28972656 106.7328418 48.57945312 106.46568359 47.84765625 106.19042969 C42.65118151 104.01810366 37.87052294 101.06304666 33 98.25 C31.91976562 97.6415625 30.83953125 97.033125 29.7265625 96.40625 C28.68242187 95.80296875 27.63828125 95.1996875 26.5625 94.578125 C25.61503906 94.03575195 24.66757812 93.49337891 23.69140625 92.93457031 C20.48765174 90.63172645 17.75494488 88.56789919 16 85 C15.46852593 81.35429278 15.70427302 77.8199624 15.92578125 74.15234375 C15.98243444 71.99814637 16.03503856 69.84383941 16.08398438 67.68945312 C16.18460275 64.31714635 16.31151335 60.95420005 16.51049805 57.58618164 C17.59539522 45.05171921 17.59539522 45.05171921 13.29272461 33.73434448 C9.09781505 29.77031913 4.36892767 26.92506866 -0.71679688 24.24681091 C-4.21673372 22.33556639 -7.39694598 20.01872113 -10.625 17.6875 C-12.41532281 16.45637678 -14.20641037 15.22635899 -16 14 C-13.23391425 11.870303 -10.39504885 9.97659573 -7.4375 8.125 C-3.94206617 5.82537248 -1.7307559 3.9230467 0 0 Z " fill="#072C76" transform="translate(384,170)"/>
<path d="M0 0 C3.11108398 1.31005859 3.11108398 1.31005859 6.24609375 3.1484375 C6.8151091 3.47677582 7.38412445 3.80511414 7.97038269 4.1434021 C9.80196485 5.20567577 11.6197435 6.28926656 13.4375 7.375 C14.69329409 8.11194673 15.94964472 8.84794588 17.20654297 9.58300781 C20.8167464 11.70157451 24.40864661 13.84964413 28 16 C28.93505371 16.55268555 29.87010742 17.10537109 30.83349609 17.67480469 C33.10607749 19.01937451 35.3684285 20.37877547 37.625 21.75 C38.26236084 22.13075684 38.89972168 22.51151367 39.55639648 22.90380859 C42.82674548 24.94334145 44.60683066 26.41088835 46 30 C46.27415466 32.37680054 46.27415466 32.37680054 46.30639648 35.04052734 C46.32238388 36.04191742 46.33837128 37.0433075 46.35484314 38.07504272 C46.36020584 39.151138 46.36556854 40.22723328 46.37109375 41.3359375 C46.38012222 42.44804596 46.3891507 43.56015442 46.39845276 44.70596313 C46.41295584 47.05785428 46.42184213 49.40978579 46.42553711 51.76171875 C46.43743332 55.35485987 46.48662133 58.94628376 46.53710938 62.5390625 C46.54657374 64.82551246 46.55380871 67.11197296 46.55859375 69.3984375 C46.57812607 70.47048431 46.59765839 71.54253113 46.61778259 72.64706421 C46.56754129 80.97713016 46.56754129 80.97713016 43.7409668 84.54858398 C41.3952516 86.64650206 39.33311957 88.31952182 36.5859375 89.82421875 C35.75143066 90.29045654 34.91692383 90.75669434 34.05712891 91.23706055 C33.17202637 91.71570557 32.28692383 92.19435059 31.375 92.6875 C29.49418018 93.72806217 27.61398563 94.7697552 25.734375 95.8125 C24.78240234 96.33714844 23.83042969 96.86179687 22.84960938 97.40234375 C20.08410055 98.95284836 17.35867655 100.55546015 14.640625 102.1875 C13.79580566 102.69192627 12.95098633 103.19635254 12.08056641 103.71606445 C10.48421016 104.67264023 8.89243898 105.63692441 7.30615234 106.61010742 C6.5786377 107.04170166 5.85112305 107.4732959 5.1015625 107.91796875 C4.47588379 108.29719482 3.85020508 108.6764209 3.20556641 109.06713867 C-1.12071481 110.89697269 -4.61598496 111.5128634 -9.06689453 109.86352539 C-10.58452393 108.98942017 -10.58452393 108.98942017 -12.1328125 108.09765625 C-13.26976562 107.45376953 -14.40671875 106.80988281 -15.578125 106.14648438 C-16.76058031 105.45210151 -17.94287164 104.75743932 -19.125 104.0625 C-20.28290361 103.40132731 -21.44175328 102.74180856 -22.6015625 102.08398438 C-27.32261671 99.38054286 -32.01271443 96.67373723 -36.55371094 93.67529297 C-37.1311203 93.3000499 -37.70852966 92.92480682 -38.30343628 92.53819275 C-39.8974419 91.49556611 -41.4782428 90.43283171 -43.05810547 89.36889648 C-46.69565116 87.67630572 -48.18471257 87.87650974 -52 89 C-54.30261067 89.91309541 -56.57660619 90.90025451 -58.82421875 91.94140625 C-59.76633965 92.3721067 -59.76633965 92.3721067 -60.72749329 92.81150818 C-62.71735284 93.72174678 -64.70276564 94.64114537 -66.6875 95.5625 C-68.68318253 96.48685916 -70.6797466 97.40899144 -72.67964172 98.32420349 C-74.48655413 99.15127961 -76.28964669 99.98668583 -78.0925293 100.82250977 C-81 102 -81 102 -84 102 C-84.03738281 100.97519531 -84.07476562 99.95039063 -84.11328125 98.89453125 C-84.17897079 97.53381938 -84.24541709 96.17314389 -84.3125 94.8125 C-84.33505859 94.13896484 -84.35761719 93.46542969 -84.38085938 92.77148438 C-84.61595554 88.39014677 -85.42442686 85.55608624 -88 82 C-80.19337954 77.98373224 -72.32014664 74.16180665 -64.3125 70.5625 C-63.53471191 70.20865234 -62.75692383 69.85480469 -61.95556641 69.49023438 C-61.2238623 69.16474609 -60.4921582 68.83925781 -59.73828125 68.50390625 C-58.76435425 68.06800171 -58.76435425 68.06800171 -57.77075195 67.62329102 C-56 67 -56 67 -53 67 C-53.02618408 65.87505127 -53.05236816 64.75010254 -53.0793457 63.59106445 C-53.17001745 59.40734843 -53.22731037 55.22371879 -53.2746582 51.03930664 C-53.2997639 49.23023868 -53.33385595 47.42127178 -53.37719727 45.61254883 C-53.43802579 43.00837249 -53.46624809 40.40553969 -53.48828125 37.80078125 C-53.51408768 36.99538406 -53.5398941 36.18998688 -53.56648254 35.36018372 C-53.56859646 31.10379042 -53.40868539 29.50958172 -50.65234375 26.07275391 C-47.76166373 23.81374494 -44.85914723 21.90988391 -41.6875 20.0625 C-41.06593018 19.69769531 -40.44436035 19.33289063 -39.80395508 18.95703125 C-38.37785047 18.12167603 -36.94954559 17.29007026 -35.51953125 16.46142578 C-32.59123764 14.76290199 -29.67058296 13.05159073 -26.75 11.33984375 C-22.47495706 8.83718556 -18.19859562 6.3368472 -13.91796875 3.84375 C-12.56868286 3.05774414 -12.56868286 3.05774414 -11.19213867 2.25585938 C-7.16810325 -0.04947955 -4.71377233 -0.32458187 0 0 Z " fill="#082C75" transform="translate(338,91)"/>
<path d="M0 0 C2.69042969 1.1105957 2.69042969 1.1105957 5.421875 2.67578125 C6.94820557 3.53937256 6.94820557 3.53937256 8.50537109 4.42041016 C9.57609863 5.0447998 10.64682617 5.66918945 11.75 6.3125 C12.8529541 6.94462402 13.9559082 7.57674805 15.09228516 8.22802734 C18.404732 10.1356011 21.7040796 12.06403698 25 14 C25.94907227 14.55381348 26.89814453 15.10762695 27.87597656 15.67822266 C30.38379114 17.14732195 32.88195747 18.63099612 35.375 20.125 C36.11073242 20.56110596 36.84646484 20.99721191 37.60449219 21.4465332 C38.27899414 21.85863037 38.95349609 22.27072754 39.6484375 22.6953125 C40.51734619 23.2214917 40.51734619 23.2214917 41.40380859 23.75830078 C44.16617384 25.90718265 45.82914428 27.91396503 46.38095093 31.42149353 C46.3845311 32.77120995 46.3845311 32.77120995 46.38818359 34.14819336 C46.39764008 35.17283188 46.40709656 36.1974704 46.4168396 37.25315857 C46.41076691 38.35426468 46.40469421 39.45537079 46.3984375 40.58984375 C46.40130768 41.72651993 46.40417786 42.86319611 46.40713501 44.03431702 C46.40917596 46.43751524 46.403644 48.84073006 46.39111328 51.24389648 C46.37507574 54.92013792 46.3909542 58.5952774 46.41015625 62.27148438 C46.40817353 64.60677326 46.40432927 66.94206146 46.3984375 69.27734375 C46.40451019 70.37642563 46.41058289 71.47550751 46.4168396 72.6078949 C46.40265488 74.14958092 46.40265488 74.14958092 46.38818359 75.72241211 C46.38579681 76.62301865 46.38341003 77.52362518 46.38095093 78.45152283 C45.91467019 81.57083752 44.82364917 83.44610555 43 86 C40.54248047 87.78588867 40.54248047 87.78588867 37.6171875 89.41796875 C36.00118652 90.33340454 36.00118652 90.33340454 34.35253906 91.26733398 C32.63115723 92.21781616 32.63115723 92.21781616 30.875 93.1875 C29.10195546 94.181122 27.3309364 95.17829163 25.55993652 96.17555237 C24.38055644 96.83909085 23.200299 97.50107233 22.01916504 98.16148376 C18.54088643 100.11051392 15.10931864 102.11814712 11.7109375 104.203125 C10.94539551 104.67081299 10.17985352 105.13850098 9.39111328 105.62036133 C8.00588492 106.4725058 6.62620281 107.33376148 5.25341797 108.20581055 C1.24057637 110.64875278 -1.34105286 111.40376572 -6 111 C-8.69042969 109.8894043 -8.69042969 109.8894043 -11.421875 108.32421875 C-12.43942871 107.74849121 -13.45698242 107.17276367 -14.50537109 106.57958984 C-15.57609863 105.9552002 -16.64682617 105.33081055 -17.75 104.6875 C-18.8529541 104.05537598 -19.9559082 103.42325195 -21.09228516 102.77197266 C-24.404732 100.8643989 -27.7040796 98.93596302 -31 97 C-31.94907227 96.44618652 -32.89814453 95.89237305 -33.87597656 95.32177734 C-36.38379114 93.85267805 -38.88195747 92.36900388 -41.375 90.875 C-42.11073242 90.43889404 -42.84646484 90.00278809 -43.60449219 89.5534668 C-44.61624512 88.93532104 -44.61624512 88.93532104 -45.6484375 88.3046875 C-46.51734619 87.7785083 -46.51734619 87.7785083 -47.40380859 87.24169922 C-50.20068045 85.06597418 -51.82757203 83.0529524 -52.40786743 79.50930786 C-52.42954483 78.11082108 -52.42954483 78.11082108 -52.45166016 76.68408203 C-52.4740274 75.6226297 -52.49639465 74.56117737 -52.5194397 73.46755981 C-52.52591522 72.3258432 -52.53239075 71.18412659 -52.5390625 70.0078125 C-52.55141937 68.82911591 -52.56377625 67.65041931 -52.57650757 66.43600464 C-52.59607531 63.94290127 -52.60730616 61.44972062 -52.61083984 58.95654297 C-52.62492425 55.14549714 -52.69225987 51.33773003 -52.76171875 47.52734375 C-52.77411729 45.10418124 -52.78333686 42.68099996 -52.7890625 40.2578125 C-52.81578033 39.12014435 -52.84249817 37.9824762 -52.87002563 36.81033325 C-52.80412183 29.12336807 -52.80412183 29.12336807 -50.58735657 26.02651978 C-48.80738714 24.44694829 -47.04520668 23.21176672 -45 22 C-44.05374756 21.3930127 -43.10749512 20.78602539 -42.13256836 20.16064453 C-41.21096924 19.65645996 -40.28937012 19.15227539 -39.33984375 18.6328125 C-38.30512939 18.06062988 -37.27041504 17.48844727 -36.2043457 16.89892578 C-35.12628662 16.31353027 -34.04822754 15.72813477 -32.9375 15.125 C-30.70006035 13.89667175 -28.46307803 12.66751007 -26.2265625 11.4375 C-25.15438477 10.8496875 -24.08220703 10.261875 -22.97753906 9.65625 C-20.44501213 8.24753709 -17.9453234 6.80382197 -15.4609375 5.3125 C-14.82808838 4.93464355 -14.19523926 4.55678711 -13.54321289 4.16748047 C-11.94691316 3.20596265 -10.35786837 2.23242757 -8.76953125 1.2578125 C-5.50108831 -0.22658613 -3.56737396 -0.27703752 0 0 Z " fill="#062B75" transform="translate(208,149)"/>
<path d="M0 0 C4.16392316 1.82924668 8.03027765 4.05447297 11.9375 6.375 C13.03400879 7.00970215 14.13051758 7.6444043 15.26025391 8.29833984 C17.47222181 9.58150777 19.67997952 10.87196297 21.88330078 12.16992188 C24.67806562 13.81096505 27.48728682 15.42080816 30.30859375 17.015625 C31.83117381 17.88463808 33.35334262 18.7543723 34.875 19.625 C35.56327881 20.01349121 36.25155762 20.40198242 36.96069336 20.80224609 C40.44079478 22.83174819 42.91061173 24.54438094 45 28 C45.38095093 30.4594574 45.38095093 30.4594574 45.38818359 33.23999023 C45.39764008 34.28464951 45.40709656 35.32930878 45.4168396 36.40562439 C45.41076691 37.52860428 45.40469421 38.65158417 45.3984375 39.80859375 C45.40130768 40.96746597 45.40417786 42.1263382 45.40713501 43.32032776 C45.40917609 45.77060434 45.40364322 48.22089719 45.39111328 50.67114258 C45.3750757 54.41980507 45.39095398 58.16738693 45.41015625 61.91601562 C45.40817354 64.29687738 45.4043293 66.67773846 45.3984375 69.05859375 C45.40451019 70.17954941 45.41058289 71.30050507 45.4168396 72.45542908 C45.40265488 74.02714622 45.40265488 74.02714622 45.38818359 75.63061523 C45.38579681 76.54898666 45.38341003 77.46735809 45.38095093 78.41355896 C44.83442327 82.12417219 43.33439767 84.96149654 40.35620117 87.27929688 C39.75783447 87.58931641 39.15946777 87.89933594 38.54296875 88.21875 C37.85323975 88.58750244 37.16351074 88.95625488 36.45288086 89.33618164 C35.33151733 89.91227173 35.33151733 89.91227173 34.1875 90.5 C28.77878865 93.36684556 23.4490416 96.29414081 18.234375 99.50390625 C16.78768433 100.38949219 16.78768433 100.38949219 15.31176758 101.29296875 C13.43430107 102.44882344 11.56394752 103.61633461 9.7019043 104.796875 C4.34023813 108.06923946 -0.56068526 110.85991064 -7 110 C-10.69552317 108.67998558 -13.94887014 106.81826488 -17.3125 104.8125 C-18.25657715 104.27165771 -19.2006543 103.73081543 -20.17333984 103.17358398 C-23.12886578 101.47089589 -26.06378382 99.73572308 -29 98 C-30.91183468 96.89943198 -32.82457487 95.80043522 -34.73828125 94.703125 C-36.53515117 93.65847776 -38.33077756 92.61168788 -40.125 91.5625 C-40.95942627 91.07950439 -41.79385254 90.59650879 -42.65356445 90.09887695 C-43.81891724 89.40217896 -43.81891724 89.40217896 -45.0078125 88.69140625 C-45.68473145 88.29123291 -46.36165039 87.89105957 -47.05908203 87.47875977 C-50.41402477 84.9226732 -52.69779602 82.9385785 -53.37628174 78.58622742 C-53.54756858 75.49968846 -53.58043657 72.43895651 -53.56640625 69.34765625 C-53.57260483 68.21476669 -53.57880341 67.08187714 -53.58518982 65.91465759 C-53.59228567 63.5216457 -53.58911817 61.12858441 -53.57641602 58.7355957 C-53.56256124 55.078663 -53.59661586 51.42429438 -53.63476562 47.76757812 C-53.63571694 45.44010354 -53.63385732 43.11262576 -53.62890625 40.78515625 C-53.64879356 39.14898094 -53.64879356 39.14898094 -53.66908264 37.47975159 C-53.56551095 29.01354642 -53.56551095 29.01354642 -50.84765625 25.50341797 C-47.94704308 22.95344476 -45.18377352 21.03407069 -41.80859375 19.16015625 C-41.22263931 18.83011093 -40.63668488 18.50006561 -40.03297424 18.16001892 C-38.17394803 17.11605237 -36.30626891 16.08890441 -34.4375 15.0625 C-32.60327033 14.03986778 -30.77096547 13.01385196 -28.93887329 11.98739624 C-27.72925815 11.31215217 -26.51748198 10.64076454 -25.30355835 9.97329712 C-22.38210344 8.36282448 -19.53370332 6.70817605 -16.70361328 4.93701172 C-5.91936466 -1.80208406 -5.91936466 -1.80208406 0 0 Z " fill="#062B75" transform="translate(439,316)"/>
<path d="M0 0 C1.52039917 0.15454694 3.03689373 0.35788764 4.54296875 0.6171875 C5.65542969 0.78734375 6.76789063 0.9575 7.9140625 1.1328125 C11.14039356 1.90548796 14.34120237 2.74858178 17.54296875 3.6171875 C18.45820313 3.79121094 19.3734375 3.96523438 20.31640625 4.14453125 C25.06980894 5.38041595 27.0199491 6.77706906 29.65625 11.01171875 C31.06698071 13.78065477 32.34546021 16.6008184 33.61328125 19.4375 C37.94843617 29.12448068 44.73095161 37.55372025 51.54296875 45.6171875 C52.26484375 46.47441406 52.98671875 47.33164062 53.73046875 48.21484375 C57.99059591 53.11842762 62.34327552 57.2466099 67.5625 61.109375 C70.12307578 63.0588469 72.26844343 65.34266218 74.54296875 67.6171875 C86.20594694 78.31628319 100.80376376 85.18966926 115.28515625 91.2421875 C117.76421652 92.2885055 120.16055019 93.37210444 122.54296875 94.6171875 C119.40168851 95.66428091 117.20479338 95.7454929 113.90763855 95.75090027 C112.73420395 95.75516525 111.56076935 95.75943024 110.35177612 95.76382446 C109.06288483 95.76337128 107.77399353 95.76291809 106.44604492 95.76245117 C105.07604378 95.76544311 103.70604349 95.76884572 102.33604431 95.77262878 C98.61279284 95.78147064 94.88956435 95.78380701 91.1663034 95.78444457 C88.05757031 95.78539396 84.94884258 95.7890727 81.84011155 95.79261667 C74.50400065 95.80076234 67.16790202 95.80320084 59.83178711 95.80249023 C52.26726227 95.80188976 44.70280881 95.81243524 37.13830203 95.8282339 C30.64223209 95.84131706 24.14618545 95.84667379 17.65010244 95.84603482 C13.77107028 95.84578002 9.89210153 95.84862161 6.0130825 95.85921288 C2.36299412 95.86890663 -1.28697043 95.86896431 -4.93706322 95.86169624 C-6.91113256 95.86015489 -8.88520192 95.86848872 -10.85925293 95.87713623 C-12.041147 95.87294174 -13.22304108 95.86874725 -14.44075012 95.86442566 C-15.46373105 95.86497043 -16.48671198 95.86551519 -17.54069233 95.86607647 C-24.08360464 95.30768503 -29.68517861 92.7058233 -34.09765625 87.7890625 C-39.21941685 81.27497863 -41.35795616 74.87213728 -41.20703125 66.54296875 C-39.70700568 58.69127241 -35.2062087 52.08379395 -31.09960938 45.32470703 C-29.45519003 42.61415256 -27.84985987 39.8838619 -26.25390625 37.14453125 C-24.1050242 33.45975683 -21.92692596 29.79486403 -19.7265625 26.140625 C-17.48414032 22.39992074 -15.35292346 18.61901385 -13.28125 14.78125 C-12.76425537 13.85054688 -12.24726074 12.91984375 -11.71459961 11.9609375 C-10.73368231 10.19195044 -9.7784567 8.40838849 -8.85375977 6.609375 C-6.47047893 2.38852386 -5.07970392 0.09827206 0 0 Z " fill="#92B1F3" transform="translate(271.45703125,433.3828125)"/>
<path d="M0 0 C2.17535828 2.80227888 4.04796907 5.65926331 5.828125 8.7265625 C6.64639771 10.13228516 6.64639771 10.13228516 7.48120117 11.56640625 C8.06490479 12.57574219 8.6486084 13.58507812 9.25 14.625 C9.85755127 15.67300781 10.46510254 16.72101563 11.09106445 17.80078125 C12.38730346 20.0375587 13.6826034 22.27488056 14.97705078 24.51269531 C16.68006 27.4529688 18.39538142 30.38585413 20.11489868 33.3164978 C21.14426984 35.07216685 22.17078967 36.82946936 23.19628906 38.58740234 C24.49717251 40.81689583 25.8023307 43.04390204 27.11230469 45.26806641 C32.37554554 54.32431345 36.55647597 62.25432937 35 73 C32.95129424 79.50653774 29.31536585 84.23541941 24.453125 88.91796875 C19.77164027 90.98289116 15.16154274 89.78835941 10.48242188 88.08178711 C7.82057138 86.92013733 5.2226166 85.6738083 2.625 84.375 C1.23474609 83.6934082 1.23474609 83.6934082 -0.18359375 82.99804688 C-13.72061189 76.26761662 -26.37661107 67.81782699 -37 57 C-38.21830435 55.94564965 -39.44688986 54.903011 -40.6875 53.875 C-53.3719601 42.78203583 -71.90023616 22.25814463 -75 5 C-73.58318366 5.31182069 -72.16655349 5.62448737 -70.75 5.9375 C-69.56664062 6.19853516 -69.56664062 6.19853516 -68.359375 6.46484375 C-66.98780676 6.77594449 -65.62084607 7.11442209 -64.27441406 7.52075195 C-59.33142535 8.56230271 -54.15098835 8.22619062 -49.11279297 8.24023438 C-47.0344078 8.24984096 -44.95705544 8.2808405 -42.87890625 8.3125 C-34.5369437 8.37855852 -27.01067114 7.4796709 -19 5 C-12.44283086 3.06795345 -6.86983508 1.61114141 0 2 C0 1.34 0 0.68 0 0 Z " fill="#D1DBFC" transform="translate(374,437)"/>
<path d="M0 0 C1.91878091 1.04220207 3.81883121 2.11932391 5.703125 3.22265625 C6.7653125 3.84333984 7.8275 4.46402344 8.921875 5.10351562 C10.02015625 5.74998047 11.1184375 6.39644531 12.25 7.0625 C13.36375 7.71283203 14.4775 8.36316406 15.625 9.03320312 C23.85688973 13.85688973 23.85688973 13.85688973 25 15 C26.67544526 25.63443564 27.84149081 37.50978369 25 48 C20.22824125 54.38247901 12.92567695 57.37653357 5.5871582 59.98974609 C2.91911005 60.91864859 2.91911005 60.91864859 0.54370117 62.68603516 C-2.82439537 64.42584661 -4.39514109 64.04339789 -8 63 C-10.8684082 61.6171875 -10.8684082 61.6171875 -13.80078125 59.875 C-14.85974609 59.25109375 -15.91871094 58.6271875 -17.00976562 57.984375 C-18.09966797 57.32953125 -19.18957031 56.6746875 -20.3125 56 C-21.42173828 55.34515625 -22.53097656 54.6903125 -23.67382812 54.015625 C-31.80333647 49.19666353 -31.80333647 49.19666353 -33 48 C-33.38775295 43.39017132 -33.48513636 38.77927862 -33.56982422 34.1550293 C-33.60640975 32.60176298 -33.66091001 31.0488085 -33.73388672 29.49682617 C-34.32678114 16.69495151 -34.32678114 16.69495151 -31.29492188 12.82177734 C-28.93830561 11.23535458 -26.60449051 10.12864525 -24 9 C-22.3666487 8.00100588 -20.74667121 6.97982496 -19.140625 5.9375 C-17.5122603 4.95527041 -15.88204448 3.97610316 -14.25 3 C-13.42628906 2.48566406 -12.60257813 1.97132813 -11.75390625 1.44140625 C-10.95339844 0.96574219 -10.15289062 0.49007812 -9.328125 0 C-8.6155957 -0.433125 -7.90306641 -0.86625 -7.16894531 -1.3125 C-4.10478644 -2.28375972 -2.82451403 -1.4487901 0 0 Z " fill="#AFD752" transform="translate(209,173)"/>
<path d="M0 0 C2.66551783 1.23681358 5.22014661 2.58960604 7.78100586 4.03295898 C8.8915332 4.65686523 10.00206055 5.28077148 11.14624023 5.92358398 C12.0068103 6.41181641 12.0068103 6.41181641 12.88476562 6.90991211 C14.6462316 7.90906195 16.41146891 8.90126215 18.17749023 9.89233398 C26.80529345 14.75646533 26.80529345 14.75646533 27.95678711 15.90795898 C28.04526454 18.42889975 28.07206012 20.92226791 28.05444336 23.44311523 C28.05302841 24.19636581 28.05161346 24.94961639 28.05015564 25.72569275 C28.04454087 28.14065458 28.03198594 30.55552499 28.01928711 32.97045898 C28.01427401 34.60392119 28.00971077 36.23738484 28.00561523 37.87084961 C27.99456665 41.88325483 27.97729217 45.89559139 27.95678711 49.90795898 C24.0742133 52.24671216 20.17844883 54.56097122 16.26855469 56.85375977 C14.94076788 57.63690915 13.61681215 58.42659223 12.296875 59.22290039 C10.39766576 60.36714003 8.48587212 61.48709704 6.57006836 62.60327148 C5.98340897 62.96357452 5.39674957 63.32387756 4.79231262 63.69509888 C2.05677112 65.2600569 0.54476293 66.0444453 -2.58422852 65.31811523 C-3.39569336 64.85276367 -4.2071582 64.38741211 -5.04321289 63.90795898 C-5.987854 63.40893066 -6.93249512 62.90990234 -7.90576172 62.39575195 C-8.92694092 61.81970215 -9.94812012 61.24365234 -11.00024414 60.65014648 C-12.00289307 60.08666504 -13.00554199 59.52318359 -14.03857422 58.94262695 C-15.29822998 58.22993652 -16.55788574 57.51724609 -17.85571289 56.78295898 C-21.87758789 54.51420898 -25.89946289 52.24545898 -30.04321289 49.90795898 C-30.04321289 38.68795898 -30.04321289 27.46795898 -30.04321289 15.90795898 C-25.50571289 13.24733398 -20.96821289 10.58670898 -16.29321289 7.84545898 C-14.86783203 7.00104248 -13.44245117 6.15662598 -11.97387695 5.28662109 C-10.84691406 4.63443604 -9.71995117 3.98225098 -8.55883789 3.31030273 C-7.68267822 2.78442566 -7.68267822 2.78442566 -6.78881836 2.2479248 C-2.65102496 -0.11942125 -2.65102496 -0.11942125 0 0 Z " fill="#FA7C9F" transform="translate(436.043212890625,338.092041015625)"/>
<path d="M0 0 C4.6284933 0.41517907 7.83140579 1.7667065 11.80078125 4.125 C12.85974609 4.74890625 13.91871094 5.3728125 15.00976562 6.015625 C16.09966797 6.67046875 17.18957031 7.3253125 18.3125 8 C19.42173828 8.65484375 20.53097656 9.3096875 21.67382812 9.984375 C29.80333647 14.80333647 29.80333647 14.80333647 31 16 C31.08847743 18.52094076 31.11527301 21.01430893 31.09765625 23.53515625 C31.0962413 24.28840683 31.09482635 25.04165741 31.09336853 25.81773376 C31.08775376 28.2326956 31.07519883 30.64756601 31.0625 33.0625 C31.0574869 34.69596221 31.05292366 36.32942586 31.04882812 37.96289062 C31.03777954 41.97529585 31.02050506 45.98763241 31 50 C27.37410189 52.12425199 23.74448725 54.24196194 20.11132812 56.35375977 C18.87656828 57.0726867 17.64283141 57.79337363 16.41015625 58.51586914 C14.63549222 59.5556219 12.85721414 60.58893548 11.078125 61.62109375 C10.00981445 62.2442749 8.94150391 62.86745605 7.84082031 63.50952148 C3.33867543 65.87163858 3.33867543 65.87163858 1 66 C-1.60961914 64.86010742 -1.60961914 64.86010742 -4.53515625 63.10546875 C-5.59154297 62.47962891 -6.64792969 61.85378906 -7.73632812 61.20898438 C-8.83396484 60.54189453 -9.93160156 59.87480469 -11.0625 59.1875 C-12.71475586 58.20426758 -12.71475586 58.20426758 -14.40039062 57.20117188 C-18.31454122 54.86511498 -22.20695644 52.5286957 -26 50 C-26.26686213 47.30459685 -26.34818073 44.84152536 -26.29296875 42.1484375 C-26.28872391 41.37440582 -26.28447906 40.60037415 -26.28010559 39.80288696 C-26.26328998 37.32657323 -26.22563395 34.85106842 -26.1875 32.375 C-26.17245682 30.69792841 -26.15876778 29.02084408 -26.14648438 27.34375 C-26.11337721 23.22885419 -26.06157637 19.11456431 -26 15 C-24.8718689 14.37170288 -24.8718689 14.37170288 -23.72094727 13.73071289 C-20.9378088 12.17964254 -18.15551068 10.62707856 -15.3737793 9.07348633 C-14.16838663 8.40068258 -12.96265835 7.72847976 -11.7565918 7.05688477 C-10.02565339 6.09288084 -8.29600957 5.12655352 -6.56640625 4.16015625 C-5.52427979 3.57886963 -4.48215332 2.99758301 -3.40844727 2.39868164 C-1.12440597 1.20986135 -1.12440597 1.20986135 0 0 Z " fill="#FBCA50" transform="translate(188,313)"/>
<path d="M0 0 C2.77542742 1.31552051 5.49569683 2.67649314 8.19921875 4.13671875 C10.94164533 5.57680576 13.61429557 6.51774238 16.58203125 7.39453125 C21.83429135 9.25058487 26.1126111 11.02329229 29 16 C31.21838381 27.44605429 30.01928237 39.46043217 29 51 C25.39685435 53.1502213 21.78559946 55.28589741 18.16625977 57.40869141 C16.93706157 58.13232053 15.71013584 58.85982464 14.4855957 59.59130859 C12.72154403 60.64415308 10.9496977 61.68263474 9.17578125 62.71875 C7.58117065 63.66137695 7.58117065 63.66137695 5.9543457 64.62304688 C2.85397151 66.06806055 1.35070607 66.53525127 -2 66 C-4.73901367 64.73071289 -4.73901367 64.73071289 -7.66796875 62.97265625 C-8.72564453 62.34552734 -9.78332031 61.71839844 -10.87304688 61.07226562 C-11.96681641 60.40904297 -13.06058594 59.74582031 -14.1875 59.0625 C-16.36840942 57.76158435 -18.54939508 56.46079651 -20.73046875 55.16015625 C-21.69364014 54.57886963 -22.65681152 53.99758301 -23.64916992 53.39868164 C-25.07239279 52.55190173 -26.5187574 51.7406213 -28 51 C-28 39.45 -28 27.9 -28 16 C-15.6875 9.125 -15.6875 9.125 -11.81518555 6.96533203 C-10.8075415 6.40185059 -9.79989746 5.83836914 -8.76171875 5.2578125 C-7.73006592 4.6817627 -6.69841309 4.10571289 -5.63549805 3.51220703 C-3.7156323 2.41061848 -1.84170566 1.22780377 0 0 Z " fill="#D0DAFC" transform="translate(449,196)"/>
<path d="M0 0 C3.81417982 0.51302157 6.79670906 2.46474695 10.078125 4.37890625 C10.64956238 4.71043198 11.22099976 5.0419577 11.80975342 5.38352966 C13.62588883 6.43859256 15.43795766 7.50042582 17.25 8.5625 C18.48411249 9.28105002 19.71848476 9.99915405 20.953125 10.71679688 C23.97177648 12.47270844 26.98681989 14.23471216 30 16 C30.22334904 20.73194539 30.38615853 25.46079744 30.49438477 30.19677734 C30.53950884 31.80539397 30.60083129 33.41364414 30.67895508 35.02099609 C31.30794828 48.29974157 31.30794828 48.29974157 28.28173828 52.23364258 C25.92510214 53.82572119 23.62258546 54.90731848 21 56 C19.44153002 56.91676612 17.89431492 57.85295352 16.359375 58.80859375 C14.82515982 59.68881721 13.28869797 60.56513649 11.75 61.4375 C10.97398437 61.89576172 10.19796875 62.35402344 9.3984375 62.82617188 C8.64304687 63.25349609 7.88765625 63.68082031 7.109375 64.12109375 C6.43874023 64.5070874 5.76810547 64.89308105 5.07714844 65.29077148 C2.28406867 66.24444999 0.80854243 65.87806515 -2 65 C-3.93735837 64.02754362 -5.83688591 62.97780574 -7.703125 61.875 C-8.7653125 61.25109375 -9.8275 60.6271875 -10.921875 59.984375 C-12.02015625 59.32953125 -13.1184375 58.6746875 -14.25 58 C-15.36375 57.34515625 -16.4775 56.6903125 -17.625 56.015625 C-25.8234747 51.1765253 -25.8234747 51.1765253 -27 50 C-27.08847743 47.47905924 -27.11527301 44.98569107 -27.09765625 42.46484375 C-27.0962413 41.71159317 -27.09482635 40.95834259 -27.09336853 40.18226624 C-27.08775376 37.7673044 -27.07519883 35.35243399 -27.0625 32.9375 C-27.0574869 31.30403779 -27.05292366 29.67057414 -27.04882812 28.03710938 C-27.03777954 24.02470415 -27.02050506 20.01236759 -27 16 C-26.21761963 15.55084229 -25.43523926 15.10168457 -24.62915039 14.63891602 C-21.73421244 12.97595821 -18.84009701 11.31158703 -15.9465332 9.64624023 C-14.69263 8.92496561 -13.43839908 8.2042604 -12.18383789 7.48413086 C-10.38341747 6.450543 -8.58417519 5.41493106 -6.78515625 4.37890625 C-5.70113525 3.7557251 -4.61711426 3.13254395 -3.50024414 2.49047852 C-1.14058329 1.22234919 -1.14058329 1.22234919 0 0 Z " fill="#FB8E01" transform="translate(333,113)"/>
<path d="M0 0 C23.76 0 47.52 0 72 0 C72 6.27 72 12.54 72 19 C48.24 19 24.48 19 0 19 C0 12.73 0 6.46 0 0 Z " fill="#93B2F4" transform="translate(284,278)"/>
<path d="M0 0 C5.67057657 3.08823677 10.84997719 6.63353215 16.0625 10.4375 C16.83916016 10.99759766 17.61582031 11.55769531 18.41601562 12.13476562 C22.74881194 15.27888624 26.93304431 18.51868593 31 22 C27.46786925 24.90881356 23.80487289 27.46341807 20 30 C17.44363914 32.55636086 17.73164393 33.54104378 17.68115234 37.09228516 C17.66128265 38.15323395 17.64141296 39.21418274 17.62094116 40.30728149 C17.60361435 42.03076309 17.60361435 42.03076309 17.5859375 43.7890625 C17.56657135 44.96262299 17.5472052 46.13618347 17.5272522 47.3453064 C17.46732336 51.10512961 17.42101754 54.86498323 17.375 58.625 C17.3368325 61.16928442 17.29778151 63.71355575 17.2578125 66.2578125 C17.16161095 72.50509241 17.07660262 78.75245072 17 85 C16.67 85 16.34 85 16 85 C16.02744293 84.41499222 16.05488586 83.82998444 16.0831604 83.22724915 C16.35338333 77.0775729 16.49333193 70.93421089 16.56152344 64.77905273 C16.60343017 62.49046181 16.67735053 60.20220594 16.78515625 57.91577148 C17.72892103 45.18720832 17.72892103 45.18720832 13.27655029 33.7149353 C9.08561062 29.75174709 4.36438598 26.91060145 -0.72183228 24.24076843 C-4.22198731 22.33446372 -7.3991007 20.01780752 -10.625 17.6875 C-12.41532281 16.45637678 -14.20641037 15.22635899 -16 14 C-13.23391425 11.870303 -10.39504885 9.97659573 -7.4375 8.125 C-3.94206617 5.82537248 -1.7307559 3.9230467 0 0 Z " fill="#6866F1" transform="translate(384,170)"/>
<path d="M0 0 C0.33 0 0.66 0 1 0 C0.97699829 0.58722839 0.95399658 1.17445679 0.93029785 1.77947998 C0.70492449 7.94539147 0.59470299 14.10608188 0.54833984 20.27587891 C0.51640408 22.57106038 0.45604875 24.86604222 0.36572266 27.15966797 C-0.53372855 39.73117967 -0.53372855 39.73117967 3.54989624 51.20281982 C7.24898366 54.89841983 11.4455377 57.52426923 16.0533905 59.94760132 C18.81222473 61.43911439 21.29258898 63.26520456 23.8125 65.125 C26.19444802 66.77309484 28.58978961 68.39319307 31 70 C30.38511719 70.47050781 29.77023437 70.94101562 29.13671875 71.42578125 C27.92435547 72.35970703 27.92435547 72.35970703 26.6875 73.3125 C25.48673828 74.23482422 25.48673828 74.23482422 24.26171875 75.17578125 C23.51535156 75.77777344 22.76898438 76.37976563 22 77 C21.4225 77.4434375 20.845 77.886875 20.25 78.34375 C18.36748392 80.83808381 18.4779869 83.10944366 18.3125 86.1875 C18.21388672 87.81751953 18.21388672 87.81751953 18.11328125 89.48046875 C18.07589844 90.31191406 18.03851563 91.14335937 18 92 C17.67 92 17.34 92 17 92 C16.855625 90.989375 16.71125 89.97875 16.5625 88.9375 C14.99294713 83.48248057 10.47974947 81.06497991 6 78 C5.14237061 77.3905957 4.28474121 76.78119141 3.40112305 76.15332031 C0.94739427 74.41536898 -1.52149134 72.70236758 -4 71 C-4.9269165 70.36288086 -4.9269165 70.36288086 -5.87255859 69.71289062 C-6.40316895 69.34873047 -6.9337793 68.98457031 -7.48046875 68.609375 C-8.37378906 67.99578125 -9.26710937 67.3821875 -10.1875 66.75 C-11.32251953 65.99976563 -11.32251953 65.99976563 -12.48046875 65.234375 C-12.98191406 64.82703125 -13.48335937 64.4196875 -14 64 C-14 63.34 -14 62.68 -14 62 C-11.8828125 60.4921875 -11.8828125 60.4921875 -9.125 58.875 C-8.22007812 58.33617187 -7.31515625 57.79734375 -6.3828125 57.2421875 C-4 56 -4 56 -2 56 C-1.00175095 53.00525286 -0.84675968 50.92654666 -0.79467773 47.79418945 C-0.77473251 46.73331619 -0.75478729 45.67244293 -0.73423767 44.579422 C-0.71752518 43.43559555 -0.70081268 42.2917691 -0.68359375 41.11328125 C-0.6524221 39.35506294 -0.6524221 39.35506294 -0.62062073 37.56132507 C-0.55516182 33.81177714 -0.49625704 30.06215837 -0.4375 26.3125 C-0.39431132 23.77277909 -0.35069692 21.23306538 -0.30664062 18.69335938 C-0.19948414 12.46231478 -0.0977108 6.23119949 0 0 Z " fill="#6867F0" transform="translate(239,320)"/>
<path d="M0 0 C3.62232657 1.36994293 6.66403434 2.98726804 9.86328125 5.1953125 C13.23166088 6.46384304 16.41857671 6.11133958 20 6 C19.39469657 19.04588183 18.31974085 32.00759981 17 45 C16.23816406 44.566875 15.47632813 44.13375 14.69140625 43.6875 C13.65886719 43.130625 12.62632812 42.57375 11.5625 42 C10.55316406 41.443125 9.54382813 40.88625 8.50390625 40.3125 C4.17914459 38.69252239 0.55744808 38.72344184 -4 39 C-2.93388623 25.95981738 -1.76890734 12.96571445 0 0 Z " fill="#6966F6" transform="translate(434,278)"/>
<path d="M0 0 C0.02578125 0.94101563 0.0515625 1.88203125 0.078125 2.8515625 C0.13484375 4.09679687 0.1915625 5.34203125 0.25 6.625 C0.29640625 7.85476562 0.3428125 9.08453125 0.390625 10.3515625 C1.08084598 14.48403941 2.60754481 16.61971923 5 20 C0.3585134 22.14345242 -4.28628644 24.27948655 -8.93432617 26.40869141 C-10.51533989 27.13419508 -12.09542592 27.86172391 -13.67456055 28.59130859 C-15.94339516 29.639121 -18.21545675 30.67962597 -20.48828125 31.71875 C-21.19463211 32.04685669 -21.90098297 32.37496338 -22.6287384 32.7130127 C-25.5935089 34.061098 -27.70363935 35 -31 35 C-31.03738281 33.97519531 -31.07476562 32.95039063 -31.11328125 31.89453125 C-31.17897079 30.53381938 -31.24541709 29.17314389 -31.3125 27.8125 C-31.33505859 27.13896484 -31.35761719 26.46542969 -31.38085938 25.77148438 C-31.61595554 21.39014677 -32.42442686 18.55608624 -35 15 C-27.19337954 10.98373224 -19.32014664 7.16180665 -11.3125 3.5625 C-10.53471191 3.20865234 -9.75692383 2.85480469 -8.95556641 2.49023438 C-8.2238623 2.16474609 -7.4921582 1.83925781 -6.73828125 1.50390625 C-5.76435425 1.06800171 -5.76435425 1.06800171 -4.77075195 0.62329102 C-3 0 -3 0 0 0 Z " fill="#6965F6" transform="translate(285,158)"/>
<path d="M0 0 C0.85722656 0.5053125 1.71445313 1.010625 2.59765625 1.53125 C4.31275391 2.50578125 4.31275391 2.50578125 6.0625 3.5 C7.18785156 4.1496875 8.31320313 4.799375 9.47265625 5.46875 C13.28910404 7.12550253 15.88692174 7.29341705 20 7 C20.22012309 15.86606897 19.56035267 24.45193864 18.5 33.25 C18.28537109 35.10044922 18.28537109 35.10044922 18.06640625 36.98828125 C17.71702533 39.99295714 17.36146572 42.99675822 17 46 C16.14277344 45.4946875 15.28554687 44.989375 14.40234375 44.46875 C13.25894531 43.8190625 12.11554688 43.169375 10.9375 42.5 C9.81214844 41.8503125 8.68679687 41.200625 7.52734375 40.53125 C3.71089596 38.87449747 1.11307826 38.70658295 -3 39 C-3.29081739 32.27888701 -2.68066243 25.78330829 -1.78613281 19.1328125 C-0.93817932 12.77165251 -0.4166899 6.40386588 0 0 Z " fill="#6966F6" transform="translate(189,252)"/>
<path d="M0 0 C0.33 0 0.66 0 1 0 C1.15855469 0.81339844 1.31710937 1.62679688 1.48046875 2.46484375 C4.08225021 15.24375934 7.74295015 27.67696095 12 40 C11.00742187 39.66226563 10.01484375 39.32453125 8.9921875 38.9765625 C0.00056571 35.99753137 -8.54692737 33.98961854 -18 33 C-16.375078 28.53791261 -14.15981278 24.54628033 -11.8125 20.4375 C-11.21791992 19.39045898 -11.21791992 19.39045898 -10.61132812 18.32226562 C-9.41113495 16.21277682 -8.20580446 14.10628503 -7 12 C-6.64083496 11.36852051 -6.28166992 10.73704102 -5.91162109 10.08642578 C-1.62982352 2.56115124 -1.62982352 2.56115124 0 0 Z " fill="#D0DAFB" transform="translate(286,401)"/>
<path d="M0 0 C2.8100346 1.79363911 4.50940468 3.01880935 6 6 C6.3751455 10.97067782 6.15878799 14.05151502 3 18 C-0.21522137 20.32826375 -3.10830425 20.39711181 -7 20 C-10.49406769 18.33237678 -11.82670681 17.25993978 -14 14 C-14.67226891 7.05322129 -14.67226891 7.05322129 -12.125 3.0625 C-8.49059499 -0.46501074 -4.90782663 -0.7051475 0 0 Z " fill="#6965F6" transform="translate(284,467)"/>
<path d="M0 0 C3.67123639 0.01977327 4.15668193 0.29756585 7.1875 2.8125 C8.2084375 4.0809375 8.2084375 4.0809375 9.25 5.375 C9.58 5.705 9.91 6.035 10.25 6.375 C10.54322866 9.30728663 10.75004247 11.51991883 10.25 14.375 C7.8125 17.3125 7.8125 17.3125 5.25 19.375 C4.92 19.705 4.59 20.035 4.25 20.375 C1.31771337 20.66822866 -0.89491883 20.87504247 -3.75 20.375 C-6.6875 17.9375 -6.6875 17.9375 -8.75 15.375 C-9.08 15.045 -9.41 14.715 -9.75 14.375 C-10.04322866 11.44271337 -10.25004247 9.23008117 -9.75 6.375 C-7.3125 3.4375 -7.3125 3.4375 -4.75 1.375 C-3.75 0.375 -3.75 0.375 0 0 Z " fill="#6966F6" transform="translate(332.75,492.625)"/>
<path d="M0 0 C2.99264813 1.29786424 3.81373741 2.32182832 6 5 C6.79666742 8.16947542 6.79254555 10.82981781 6 14 C3.5625 17 3.5625 17 1 19 C0.67 19.33 0.34 19.66 0 20 C-7.00265252 20.70026525 -7.00265252 20.70026525 -10.9375 17.9375 C-13.42007096 14.40171712 -14 12.31286678 -14 8 C-11.35403853 0.98820209 -7.42516912 -1.31443672 0 0 Z " fill="#6A66F7" transform="translate(369,467)"/>
<path d="M0 0 C0.01417969 1.01320313 0.02835937 2.02640625 0.04296875 3.0703125 C-0.02360107 11.56574483 -0.02360107 11.56574483 3.5625 18.9375 C4.366875 19.618125 5.17125 20.29875 6 21 C2 22.33333333 -2 23.66666667 -6 25 C-7.67373751 22.21251481 -9.33776267 19.41935573 -11 16.625 C-11.71542969 15.43390625 -11.71542969 15.43390625 -12.4453125 14.21875 C-12.89648438 13.45820313 -13.34765625 12.69765625 -13.8125 11.9140625 C-14.44091797 10.8614624 -14.44091797 10.8614624 -15.08203125 9.78759766 C-16 8 -16 8 -16 6 C-13.7101766 4.9955866 -11.4183401 3.99632388 -9.125 3 C-8.14853516 2.57074219 -8.14853516 2.57074219 -7.15234375 2.1328125 C-2.2265625 0 -2.2265625 0 0 0 Z " fill="#6865F4" transform="translate(386,382)"/>
</svg>
