<?xml version="1.0" encoding="UTF-8"?>
<svg version="1.1" xmlns="http://www.w3.org/2000/svg" width="640" height="640">
<path d="M0 0 C211.2 0 422.4 0 640 0 C640 211.2 640 422.4 640 640 C428.8 640 217.6 640 0 640 C0 428.8 0 217.6 0 0 Z " fill="#FEFEFE" transform="translate(0,0)"/>
<path d="M0 0 C4.18516375 1.77616097 8.03272888 4.05580802 11.9375 6.375 C13.03473389 7.01042725 14.13196777 7.64585449 15.26245117 8.30053711 C17.47507934 9.58456356 19.68356961 10.87574903 21.88769531 12.17431641 C24.66790968 13.80519522 27.46360859 15.40136885 30.2734375 16.98046875 C31.78684314 17.84046901 33.29989305 18.70109575 34.8125 19.5625 C35.83234985 20.13266846 35.83234985 20.13266846 36.87280273 20.71435547 C41.45895501 23.37903449 44.61608301 26.23216602 47 31 C47.09016377 32.60354452 47.11756075 34.21082222 47.11352539 35.81689453 C47.11344986 36.81778107 47.11337433 37.8186676 47.11329651 38.84988403 C47.10813522 39.93325043 47.10297394 41.01661682 47.09765625 42.1328125 C47.09553383 43.79327103 47.09553383 43.79327103 47.09336853 45.48727417 C47.08775772 49.03320993 47.07520337 52.57908323 47.0625 56.125 C47.05748639 58.52473867 47.05292325 60.92447833 47.04882812 63.32421875 C47.03778478 69.21616725 47.0210361 75.10807916 47 81 C47.92493759 81.45351082 47.92493759 81.45351082 48.86856079 81.91618347 C52.94121141 83.9870875 56.61423017 86.72983718 60.375 89.3125 C61.21289062 89.88162109 62.05078125 90.45074219 62.9140625 91.03710938 C67.47707312 94.16162372 71.82329873 97.37429678 76 101 C79.66645144 99.61855862 83.00834241 97.96508229 86.4140625 96.03125 C87.92613281 95.17466797 87.92613281 95.17466797 89.46875 94.30078125 C90.5103125 93.70652344 91.551875 93.11226563 92.625 92.5 C93.67429687 91.90574219 94.72359375 91.31148438 95.8046875 90.69921875 C101.48367769 87.48275027 101.48367769 87.48275027 107 84 C113.99559563 83.20007213 118.10780046 85.11132375 124.0625 88.625 C124.90868896 89.1092041 125.75487793 89.5934082 126.62670898 90.09228516 C129.42988439 91.70829629 132.21481955 93.35319196 135 95 C136.54494141 95.8981543 136.54494141 95.8981543 138.12109375 96.81445312 C141.27806308 98.65183246 144.42228214 100.50915604 147.5625 102.375 C148.55580322 102.95717285 149.54910645 103.5393457 150.57250977 104.13916016 C151.49862061 104.69909668 152.42473145 105.2590332 153.37890625 105.8359375 C154.1994751 106.32626465 155.02004395 106.8165918 155.86547852 107.32177734 C159.18497996 109.93166559 160.77078556 112.08763762 161.28443909 116.37310791 C161.43178001 119.39745496 161.46818052 122.40564026 161.46875 125.43359375 C161.47636353 126.54428726 161.48397705 127.65498077 161.49182129 128.79933167 C161.50261342 131.14525101 161.50547902 133.49121836 161.50097656 135.8371582 C161.50000433 139.4215524 161.54163788 143.0038054 161.5859375 146.58789062 C161.59114473 148.86978721 161.59383269 151.15169122 161.59375 153.43359375 C161.61014526 154.50250351 161.62654053 155.57141327 161.64343262 156.67271423 C161.56652616 164.97432521 161.56652616 164.97432521 158.80444336 168.51245117 C156.12689792 170.8874412 153.67725636 172.6675365 150.53515625 174.3671875 C149.48650391 174.94339844 148.43785156 175.51960937 147.35742188 176.11328125 C146.27009766 176.69464844 145.18277344 177.27601563 144.0625 177.875 C140.83377468 179.63468496 137.60914914 181.39599098 134.40722656 183.20410156 C131.95866307 184.49470296 129.7211909 185.52631207 127.16308594 186.50683594 C120.36995997 189.32165771 120.36995997 189.32165771 116.13027954 195.04534912 C114.55159573 201.09814284 114.3685313 207.27858711 114.125 213.5 C114.00219316 215.39103099 113.87334192 217.28167969 113.73828125 219.171875 C113.42216475 223.77977976 113.18878742 228.38519629 113 233 C113.71478516 233.27094482 114.42957031 233.54188965 115.16601562 233.82104492 C120.1612492 235.89909307 124.78978834 238.66337347 129.5 241.3125 C130.53253906 241.88162109 131.56507813 242.45074219 132.62890625 243.03710938 C144.2968785 249.59375701 144.2968785 249.59375701 147 255 C147.12039724 256.59618121 147.17988036 258.19715216 147.20874023 259.79760742 C147.22803085 260.79592087 147.24732147 261.79423431 147.26719666 262.82279968 C147.32492471 267.40046639 147.37423393 271.97797444 147.4050293 276.5559082 C147.4265977 278.96816331 147.46068626 281.3803404 147.50756836 283.79223633 C147.57460163 287.27200241 147.60203738 290.75014783 147.62109375 294.23046875 C147.64892441 295.30362839 147.67675507 296.37678802 147.70542908 297.48246765 C147.69171326 302.49556035 147.54673796 306.0372415 144.31103516 310.01904297 C141.60458859 312.67489614 138.75399567 314.67283992 135.40234375 316.46484375 C134.35949219 317.03372314 133.31664062 317.60260254 132.2421875 318.1887207 C131.15164063 318.76581787 130.06109375 319.34291504 128.9375 319.9375 C126.68483702 321.15634232 124.43351953 322.37767482 122.18359375 323.6015625 C121.11093262 324.18325195 120.03827148 324.76494141 118.93310547 325.36425781 C114.40715909 327.88829982 110.10970666 330.70227585 105.84375 333.64453125 C101.73565963 335.60264575 98.57727446 336.60676277 94 336 C89.11487063 333.95917044 84.68503149 331.26272648 80.1875 328.5 C78.98239685 327.78170726 77.77602137 327.06554468 76.56835938 326.3515625 C71.89244419 323.57679654 67.23962521 320.76691861 62.61572266 317.90625 C61.56304199 317.266875 60.51036133 316.6275 59.42578125 315.96875 C58.034198 315.10926758 58.034198 315.10926758 56.61450195 314.23242188 C53.81784982 312.91413819 52.05025763 312.73808657 49 313 C54.8755931 322.71271512 60.83236605 332.36713021 66.9375 341.9375 C67.5255542 342.85990479 68.1136084 343.78230957 68.71948242 344.73266602 C71.03594964 348.36348142 73.35408181 351.99319379 75.6796875 355.61816406 C94.06246242 384.28078022 94.06246242 384.28078022 95 396 C95.0928125 396.94359375 95.185625 397.8871875 95.28125 398.859375 C95.97629756 411.99577381 90.46361268 423.24560469 82 433 C72.64085842 443.22408594 59.81314469 446.57059333 46.41590881 447.28329468 C40.91192185 447.52221809 35.40547441 447.66843734 29.8984375 447.81640625 C27.85118307 447.87763563 25.80395219 447.93965716 23.75674438 448.00242615 C18.38814847 448.16522592 13.01932903 448.31869763 7.65039062 448.46972656 C-0.91813924 448.71242493 -9.48623843 448.96992879 -18.05436325 449.22645378 C-21.01506425 449.31385285 -23.97584938 449.39758706 -26.93667603 449.48060608 C-37.03794415 449.7705403 -47.11989212 450.17604544 -57.20713806 450.78544617 C-62.45211339 451.08214285 -67.68498413 451.21979143 -72.9375 451.25 C-74.32291992 451.2809375 -74.32291992 451.2809375 -75.73632812 451.3125 C-87.59640114 451.37889649 -100.54509391 447.78924861 -109.50390625 439.6171875 C-119.97960114 428.29359042 -124.5514286 416.74853836 -124.56640625 401.53125 C-123.64524365 390.71256874 -118.86622884 381.1234403 -113.625 371.8125 C-112.3745978 369.54319032 -111.12461018 367.27365216 -109.875 365.00390625 C-109.235625 363.85164551 -108.59625 362.69938477 -107.9375 361.51220703 C-104.77129323 355.79175443 -101.70768431 350.01572256 -98.625 344.25 C-92.40363156 332.62212011 -92.40363156 332.62212011 -89.30859375 327.3984375 C-88.92171387 326.74456055 -88.53483398 326.09068359 -88.13623047 325.41699219 C-87.15724847 323.78312955 -86.15966817 322.16044734 -85.16015625 320.5390625 C-83.81704615 318.1629401 -83.81704615 318.1629401 -84.19506836 316.03027344 C-85.22772322 313.42561532 -86.43519972 312.57962331 -88.71875 310.9765625 C-89.48703125 310.43 -90.2553125 309.8834375 -91.046875 309.3203125 C-91.85640625 308.76085937 -92.6659375 308.20140625 -93.5 307.625 C-94.27859375 307.07328125 -95.0571875 306.5215625 -95.859375 305.953125 C-97.43396779 304.84256784 -99.01608661 303.74260635 -100.60546875 302.65332031 C-102.22977003 301.53181049 -103.83630856 300.38421564 -105.42578125 299.21386719 C-106.20308594 298.65602539 -106.98039062 298.09818359 -107.78125 297.5234375 C-108.47283203 297.01474121 -109.16441406 296.50604492 -109.87695312 295.98193359 C-112.73607296 294.65955779 -114.02899311 295.02256594 -117 296 C-118.90251294 296.9606069 -120.76694761 297.99859357 -122.59765625 299.08984375 C-124.17063477 300.01893555 -124.17063477 300.01893555 -125.77539062 300.96679688 C-126.86013672 301.61712891 -127.94488281 302.26746094 -129.0625 302.9375 C-131.21948235 304.21840781 -133.37701212 305.49839434 -135.53515625 306.77734375 C-136.487854 307.34702881 -137.44055176 307.91671387 -138.42211914 308.50366211 C-145.30985112 312.50166469 -145.30985112 312.50166469 -149.90722656 311.65966797 C-154.56484104 310.19153051 -158.68944334 307.52959641 -162.875 305.0625 C-164.38779541 304.18549438 -164.38779541 304.18549438 -165.93115234 303.29077148 C-167.98085202 302.10076459 -170.0279173 300.90620809 -172.07226562 299.70703125 C-174.73739037 298.15311596 -177.41757194 296.63206817 -180.109375 295.125 C-181.61482497 294.27125929 -183.120049 293.41711998 -184.625 292.5625 C-185.64376221 291.99897827 -185.64376221 291.99897827 -186.68310547 291.42407227 C-187.31619629 291.05854248 -187.94928711 290.6930127 -188.6015625 290.31640625 C-189.14119629 290.01162354 -189.68083008 289.70684082 -190.23681641 289.39282227 C-193.90231626 286.49727025 -196.58656158 284.21082845 -197.46112061 279.53419495 C-197.64513388 276.50116401 -197.66670416 273.50716794 -197.62890625 270.46875 C-197.63131821 269.35947144 -197.63373016 268.25019287 -197.63621521 267.1072998 C-197.63523784 264.76729754 -197.62187085 262.42727183 -197.59692383 260.08740234 C-197.56261413 256.51189381 -197.57627332 252.93885757 -197.59570312 249.36328125 C-197.58880442 247.08592701 -197.57913182 244.80857913 -197.56640625 242.53125 C-197.57136612 241.46547729 -197.57632599 240.39970459 -197.58143616 239.30163574 C-197.4882127 233.40766052 -197.19611087 229.50709566 -193 225 C-190.16601563 222.96118164 -190.16601563 222.96118164 -186.90625 221.16015625 C-186.02519592 220.66508827 -186.02519592 220.66508827 -185.12634277 220.16001892 C-183.25806063 219.11396942 -181.37970247 218.08785832 -179.5 217.0625 C-178.2700888 216.3795944 -177.04091523 215.69535854 -175.8125 215.00976562 C-174.90531219 214.50542244 -174.90531219 214.50542244 -173.97979736 213.9908905 C-172.76466418 213.31238319 -171.55203934 212.62936398 -170.34197998 211.94184875 C-167.42601099 210.29463922 -164.56363796 208.80569298 -161.49707031 207.44018555 C-155.28905345 204.52614958 -155.28905345 204.52614958 -151.78515625 198.89624023 C-151.13812698 195.12765534 -150.87703991 191.50832149 -150.75 187.6875 C-150.61658203 185.78581055 -150.61658203 185.78581055 -150.48046875 183.84570312 C-150.31891536 181.36983331 -150.19675915 178.89101491 -150.11791992 176.41113281 C-150.04431572 174.28194452 -149.91110282 172.15300166 -149.6887207 170.03417969 C-149.48009394 167.49294074 -149.39005217 165.47579312 -150 163 C-152.18081957 160.52172616 -154.73553866 159.28145644 -157.6875 157.875 C-159.24665452 157.04662753 -160.80524228 156.2171875 -162.36328125 155.38671875 C-163.14396973 154.98759277 -163.9246582 154.5884668 -164.72900391 154.17724609 C-168.02149915 152.47047206 -171.20283603 150.60641206 -174.375 148.6875 C-175.39335937 148.09324219 -176.41171875 147.49898437 -177.4609375 146.88671875 C-180.47574322 144.64648619 -181.47073715 143.45514249 -183 140 C-183.46864308 136.19075347 -183.46802883 132.40087474 -183.46875 128.56640625 C-183.47636353 127.45571274 -183.48397705 126.34501923 -183.49182129 125.20066833 C-183.50261342 122.85474899 -183.50547902 120.50878164 -183.50097656 118.1628418 C-183.50000433 114.5784476 -183.54163788 110.9961946 -183.5859375 107.41210938 C-183.59114473 105.13021279 -183.59383269 102.84830878 -183.59375 100.56640625 C-183.6183429 98.96304161 -183.6183429 98.96304161 -183.64343262 97.32728577 C-183.56652628 89.02568803 -183.56652628 89.02568803 -180.80224609 85.48535156 C-178.13469543 83.11946327 -175.70422408 81.35329857 -172.5703125 79.66796875 C-171.53455078 79.10094238 -170.49878906 78.53391602 -169.43164062 77.94970703 C-168.34044922 77.36817871 -167.24925781 76.78665039 -166.125 76.1875 C-163.86588881 74.96202647 -161.60807077 73.73416603 -159.3515625 72.50390625 C-158.26004883 71.90980957 -157.16853516 71.31571289 -156.04394531 70.70361328 C-153.41938672 69.23471932 -150.86927831 67.70915702 -148.3359375 66.08984375 C-147.67319824 65.66743408 -147.01045898 65.24502441 -146.32763672 64.80981445 C-144.63604331 63.71319372 -142.95799765 62.59575086 -141.28125 61.4765625 C-136.88353015 59.49758857 -133.7364688 58.95982726 -129 60 C-124.4990262 61.98740442 -120.37257068 64.48539031 -116.1875 67.0625 C-115.08857422 67.71927734 -113.98964844 68.37605469 -112.85742188 69.05273438 C-108.44779991 71.69019241 -104.04741187 74.33289932 -99.71337891 77.09326172 C-98.66972168 77.74182129 -97.62606445 78.39038086 -96.55078125 79.05859375 C-95.62563721 79.64825928 -94.70049316 80.2379248 -93.74731445 80.84545898 C-89.19782156 82.75735376 -86.11026313 81.43400311 -81.65673828 79.69311523 C-80.47321777 79.15372314 -79.28969727 78.61433105 -78.0703125 78.05859375 C-77.11751907 77.6278933 -77.11751907 77.6278933 -76.14547729 77.18849182 C-74.13556819 76.27810921 -72.13029344 75.35799811 -70.125 74.4375 C-68.75550375 73.81510477 -67.38571472 73.19335334 -66.015625 72.57226562 C-62.67366492 71.05560774 -59.33578616 69.53019751 -56 68 C-55.98598145 66.36587158 -55.98598145 66.36587158 -55.97167969 64.69873047 C-55.93167019 60.63923946 -55.86588171 56.58049759 -55.79248047 52.52148438 C-55.76433416 50.76800188 -55.74308815 49.01439401 -55.72900391 47.26074219 C-55.70748573 44.73307401 -55.66079298 42.20690316 -55.609375 39.6796875 C-55.60814636 38.90132538 -55.60691772 38.12296326 -55.60565186 37.3210144 C-55.46724578 32.12470747 -54.50566797 29.0656036 -51 25 C-48.28198242 22.96069336 -48.28198242 22.96069336 -45.16796875 21.15234375 C-44.60361618 20.81992172 -44.03926361 20.48749969 -43.45780945 20.14500427 C-41.64617851 19.08285954 -39.82395065 18.04082078 -38 17 C-36.78289335 16.29394545 -35.56625896 15.58707618 -34.35009766 14.87939453 C-30.68260715 12.75301706 -26.99864473 10.65631565 -23.3125 8.5625 C-22.03960484 7.83677917 -20.76681795 7.1108684 -19.49414062 6.38476562 C-6.3438816 -1.10888474 -6.3438816 -1.10888474 0 0 Z " fill="#082C76" transform="translate(338,90)"/>
<path d="M0 0 C14.52 0 29.04 0 44 0 C45.12113366 10.09020295 45.12113366 10.09020295 45.05908203 14.59790039 C45.05128723 15.60166718 45.04349243 16.60543396 45.03546143 17.63961792 C45.02633728 18.69827057 45.01721313 19.75692322 45.0078125 20.84765625 C44.22560455 55.36087802 44.22560455 55.36087802 60.04443359 84.69824219 C63.22674645 88.4439158 65.65588602 92.61310409 68.1875 96.8125 C69.16018055 98.35921887 70.13669592 99.90353334 71.1171875 101.4453125 C71.83213379 102.57501465 71.83213379 102.57501465 72.56152344 103.72753906 C73.27356934 104.85240723 73.27356934 104.85240723 74 106 C81.17235822 117.33067045 88.31007018 128.6820388 95.40869141 140.05908203 C99.95579334 147.34265925 104.53108114 154.60785324 109.14453125 161.84960938 C119.27960365 177.81958775 119.27960365 177.81958775 118 187 C115.15745758 197.00203009 110.66589744 202.66711915 101.8125 207.875 C92.0460935 210.75689044 81.21624148 210.19296418 71.08970833 210.44555664 C68.84579983 210.50160757 66.60203502 210.5618561 64.35826111 210.62304688 C59.59309914 210.75228506 54.82781362 210.87649816 50.0625 211 C44.53318516 211.14341849 39.00394365 211.28903471 33.47482109 211.43969727 C31.2917074 211.49815112 29.10852299 211.55289652 26.92530823 211.60742188 C19.33321811 211.80733554 11.78092372 212.19653713 4.20811462 212.77493286 C-3.28626201 213.30070519 -10.79560248 213.34292638 -18.30566406 213.4050293 C-20.27589282 213.42675736 -22.2460214 213.46103129 -24.21582031 213.50756836 C-44.01288319 213.96823205 -44.01288319 213.96823205 -51.23535156 208.73657227 C-57.20978929 202.85718992 -60.79174152 195.97147239 -61.625 187.625 C-61.46818326 182.69489342 -59.76222996 178.97677807 -57.5078125 174.6875 C-56.97217682 173.64367661 -56.97217682 173.64367661 -56.42572021 172.57876587 C-55.29372459 170.38053817 -54.14833728 168.18972905 -53 166 C-52.64166077 165.31202332 -52.28332153 164.62404663 -51.91412354 163.91522217 C-49.38306553 159.05585165 -46.82102276 154.21331805 -44.25 149.375 C-43.85815521 148.63610535 -43.46631042 147.89721069 -43.06259155 147.13592529 C-37.90752353 137.41513394 -32.70531649 127.72230638 -27.41381836 118.07495117 C-24.67151654 113.07289038 -21.94913015 108.06064698 -19.25 103.03515625 C-18.92642517 102.43293747 -18.60285034 101.83071869 -18.26947021 101.21025085 C-16.63326589 98.1613595 -15.00436438 95.10885856 -13.38769531 92.04956055 C-10.71199051 86.99859198 -8.03931073 81.98087826 -5.046875 77.109375 C0.79421034 67.46185088 1.99361442 60.22929329 1.19238281 49.04492188 C0.82967153 43.30414128 0.7237033 37.55116122 0.56268311 31.80178833 C0.5018221 29.74895895 0.43179212 27.69668562 0.35791016 25.64428711 C0.3119873 24.34241455 0.26606445 23.04054199 0.21875 21.69921875 C0.17685547 20.55283936 0.13496094 19.40645996 0.09179688 18.2253418 C-0.04015742 12.15158401 0 6.07519099 0 0 Z " fill="#D1DBFC" transform="translate(295,307)"/>
<path d="M0 0 C2.72078391 1.37641164 5.39962396 2.79076618 8.05639648 4.28759766 C9.09747559 4.8726709 10.13855469 5.45774414 11.21118164 6.06054688 C12.85352783 6.98891357 12.85352783 6.98891357 14.52905273 7.93603516 C16.2100708 8.87793701 16.2100708 8.87793701 17.92504883 9.83886719 C22.68415403 12.51082682 27.43344368 15.18846122 32.10327148 18.01416016 C32.73048096 18.38976074 33.35769043 18.76536133 34.00390625 19.15234375 C35.58507916 20.10668247 37.15526676 21.07915893 38.72436523 22.05322266 C42.55590703 23.73408977 44.40639146 23.97914825 48.59155273 23.31103516 C52.81471128 21.33230484 56.74734964 18.94019645 60.71655273 16.49853516 C61.78776367 15.8559375 62.85897461 15.21333984 63.96264648 14.55126953 C69.62579738 11.17411765 69.62579738 11.17411765 75.12231445 7.53881836 C77.59155273 6.31103516 77.59155273 6.31103516 80.13354492 6.45507812 C82.73062329 7.35946398 84.66295092 8.4390912 86.91967773 10.00634766 C87.72018555 10.55806641 88.52069336 11.10978516 89.34545898 11.67822266 C90.16916992 12.25830078 90.99288086 12.83837891 91.84155273 13.43603516 C92.64979492 13.99291016 93.45803711 14.54978516 94.29077148 15.12353516 C96.74566336 16.82821208 99.18213998 18.54229323 101.59155273 20.31103516 C102.71710823 20.9954216 102.71710823 20.9954216 103.86540222 21.69363403 C110.11497431 25.82789447 110.11497431 25.82789447 111.38839722 29.79086304 C111.66184475 32.74295604 111.65642031 35.57489943 111.54858398 38.53759766 C111.54854622 40.13636246 111.54854622 40.13636246 111.54850769 41.76742554 C111.54262271 45.15882014 111.47703793 48.54547527 111.40405273 51.93603516 C111.35762228 55.33291596 111.32419069 58.72888458 111.31315613 62.12606812 C111.30362243 64.23536119 111.27235578 66.344696 111.2167511 68.45327759 C111.15624949 74.11491509 111.15624949 74.11491509 113.25244141 79.28076172 C115.82045518 81.50971512 118.3179153 83.13828111 121.31030273 84.75634766 C122.40729492 85.35833984 123.50428711 85.96033203 124.63452148 86.58056641 C125.7753418 87.19287109 126.91616211 87.80517578 128.09155273 88.43603516 C130.35332513 89.66531484 132.61379714 90.8969909 134.87280273 92.13134766 C135.87375977 92.67033691 136.8747168 93.20932617 137.90600586 93.76464844 C142.69632741 96.52300268 142.69632741 96.52300268 144.59155273 98.31103516 C145.01513672 100.27294922 145.01513672 100.27294922 144.90014648 102.57666016 C144.84383057 103.90793945 144.84383057 103.90793945 144.78637695 105.26611328 C144.72208496 106.2709375 144.65779297 107.27576172 144.59155273 108.31103516 C144.51638428 110.01163086 144.51638428 110.01163086 144.43969727 111.74658203 C144.24631663 115.52579221 143.95786295 119.28920267 143.65405273 123.06103516 C143.58637695 124.34880859 143.51870117 125.63658203 143.44897461 126.96337891 C142.66741357 136.10527473 142.66741357 136.10527473 139.75756836 139.36645508 C137.43871948 140.94372404 135.13782433 142.14056144 132.59155273 143.31103516 C131.15702632 144.12154017 129.72715602 144.94035159 128.30249023 145.76806641 C126.85880218 146.55620559 125.41344963 147.3413025 123.96655273 148.12353516 C117.96187653 151.42144349 111.98846334 154.76096687 106.09155273 158.24853516 C105.46297363 158.61374268 104.83439453 158.9789502 104.18676758 159.35522461 C101.18588998 161.14679957 99.56616374 162.34911866 97.59155273 165.31103516 C97.35033925 168.20762865 97.21855831 171.01637066 97.17749023 173.91650391 C97.15812408 174.75570877 97.13875793 175.59491364 97.11880493 176.45954895 C97.0590406 179.13910774 97.01263661 181.81870956 96.96655273 184.49853516 C96.92837003 186.31561115 96.88931813 188.1326691 96.84936523 189.94970703 C96.7533417 194.40333648 96.66929915 198.85705066 96.59155273 203.31103516 C95.13529823 203.98223065 93.67647406 204.64785323 92.21655273 205.31103516 C91.40444336 205.68228516 90.59233398 206.05353516 89.75561523 206.43603516 C87.59155273 207.31103516 87.59155273 207.31103516 85.59155273 207.31103516 C74.39470301 195.999093 70.19540228 183.22883077 70.21972656 167.65380859 C70.25038471 164.24135202 70.3414343 160.83362918 70.46411133 157.42333984 C70.60847776 153.29286261 70.61137427 149.17005487 70.57983398 145.03759766 C70.53341255 138.46122708 70.54095385 131.88733277 70.59155273 125.31103516 C72.3371582 124.36905924 74.08276367 123.42708333 75.82836914 122.48510742 C79.50781541 120.03503028 81.23202026 116.38963259 82.59155273 112.31103516 C82.84200908 108.112005 82.86237821 103.91273221 82.88671875 99.70678711 C82.89820113 98.32679968 82.91859376 96.94685535 82.94824219 95.56713867 C83.28564192 83.18460624 83.28564192 83.18460624 77.17895508 72.80493164 C71.85827347 68.02858489 67.29802122 67.05187474 60.29321289 67.15161133 C59.24250579 67.16384499 59.24250579 67.16384499 58.17057228 67.1763258 C55.97702845 67.20722026 53.78460746 67.25567493 51.59155273 67.31103516 C50.92101616 67.32772373 50.25047958 67.34441231 49.55962372 67.3616066 C44.82635035 67.48871865 40.09588874 67.66836987 35.36499023 67.86181641 C34.63693806 67.89116964 33.90888588 67.92052288 33.15877151 67.95076561 C29.32613147 68.10583969 25.49369604 68.2651741 21.66137695 68.42797852 C17.7258713 68.59420679 13.78991282 68.74433549 9.85364342 68.89118671 C6.7974107 69.00822797 3.74177634 69.13740591 0.6861763 69.26985741 C-0.76562441 69.3306474 -2.21762475 69.38686095 -3.66978836 69.43825722 C-5.69336867 69.51094549 -7.71623944 69.60262762 -9.73901367 69.69506836 C-10.88544342 69.7417012 -12.03187317 69.78833405 -13.21304321 69.83638 C-18.46369721 70.61632831 -22.3774738 72.70153677 -25.72094727 76.81103516 C-26.21208008 77.39884766 -26.70321289 77.98666016 -27.20922852 78.59228516 C-30.65975482 83.53766488 -29.70784122 90.03821637 -29.75854492 95.80541992 C-29.77499768 97.17180541 -29.80214514 98.53810872 -29.84057617 99.90405273 C-30.08297946 108.58314442 -30.10092247 116.3391569 -24.40844727 123.31103516 C-21.96311321 124.72076148 -21.96311321 124.72076148 -19.30297852 125.91796875 C-14.71621652 128.57100171 -14.71621652 128.57100171 -13.44906616 131.61787415 C-13.05820338 134.45148829 -12.97153178 137.14984161 -12.99438477 140.01025391 C-12.96414215 141.04108597 -12.93389954 142.07191803 -12.90274048 143.13398743 C-12.81705918 146.42305219 -12.79936111 149.70846805 -12.78344727 152.99853516 C-12.73712613 155.19069123 -12.68638883 157.38275871 -12.63110352 159.57470703 C-12.51697963 164.55903365 -12.438549 169.54132081 -12.42681885 174.5269928 C-12.41417851 176.44251889 -12.37692455 178.35798971 -12.3192749 180.27268982 C-12.20224201 185.38354605 -12.14289205 189.2364019 -14.81469727 193.76025391 C-15.31098633 194.62714844 -15.80727539 195.49404297 -16.31860352 196.38720703 C-16.84325195 197.24894531 -17.36790039 198.11068359 -17.90844727 198.99853516 C-18.4330957 199.9028125 -18.95774414 200.80708984 -19.49829102 201.73876953 C-20.78108664 203.94284565 -22.08396303 206.13184868 -23.40844727 208.31103516 C-28.26662844 206.00761687 -32.54867721 202.90907687 -36.97094727 199.87353516 C-37.83397461 199.28765625 -38.69700195 198.70177734 -39.58618164 198.09814453 C-40.41569336 197.5303125 -41.24520508 196.96248047 -42.09985352 196.37744141 C-42.85468018 195.86125244 -43.60950684 195.34506348 -44.38720703 194.81323242 C-49.2616569 191.19051349 -49.2616569 191.19051349 -49.77352905 188.12368774 C-49.76955109 187.27495087 -49.76557312 186.42621399 -49.76147461 185.55175781 C-49.76513031 184.58710602 -49.76878601 183.62245422 -49.77255249 182.62857056 C-49.76325714 181.5879245 -49.75396179 180.54727844 -49.74438477 179.47509766 C-49.7568975 177.27457388 -49.76993463 175.07405302 -49.78344727 172.87353516 C-49.78737907 169.40175035 -49.78342291 165.93025348 -49.76879883 162.45849609 C-49.76023343 159.10942459 -49.78190585 155.76156276 -49.80688477 152.41259766 C-49.79354095 151.37600006 -49.78019714 150.33940247 -49.76644897 149.27139282 C-49.8077937 143.39041634 -49.8077937 143.39041634 -52.59619141 138.3347168 C-55.34789496 136.35460822 -58.06564475 134.51874094 -61.00610352 132.83056641 C-62.05475586 132.2240625 -63.1034082 131.61755859 -64.18383789 130.99267578 C-65.81095703 130.06745117 -65.81095703 130.06745117 -67.47094727 129.12353516 C-68.55956055 128.49511719 -69.64817383 127.86669922 -70.76977539 127.21923828 C-77.01050687 123.61880283 -77.01050687 123.61880283 -83.40844727 120.31103516 C-83.414467 118.02788506 -83.41435612 115.7450696 -83.40551758 113.46191406 C-83.4075568 111.26873418 -83.43484398 109.07549298 -83.48168945 106.8828125 C-83.75138618 84.45902837 -83.75138618 84.45902837 -78.41333008 77.83544922 C-73.30676507 73.67113046 -67.4599327 71.10926218 -61.40600586 68.60693359 C-56.62039122 66.5380264 -52.20378904 63.8960931 -47.72094727 61.24853516 C-46.92624023 60.80614502 -46.1315332 60.36375488 -45.31274414 59.90795898 C-44.57733398 59.49312256 -43.84192383 59.07828613 -43.08422852 58.65087891 C-42.44396729 58.29372803 -41.80370605 57.93657715 -41.14404297 57.56860352 C-38.89110699 55.9361836 -37.75165981 54.78416796 -36.40844727 52.31103516 C-36.08312372 49.34473099 -35.92013369 46.57684413 -35.89672852 43.60791016 C-35.87877731 42.77012024 -35.86082611 41.93233032 -35.84233093 41.06915283 C-35.7882567 38.39983109 -35.75434195 35.73068785 -35.72094727 33.06103516 C-35.68777159 31.24851033 -35.65328169 29.43600905 -35.61743164 27.62353516 C-35.53253203 23.18616401 -35.46570729 18.74884555 -35.40844727 14.31103516 C-34.55089844 13.9277002 -33.69334961 13.54436523 -32.80981445 13.14941406 C-29.61890878 11.72254064 -26.42835604 10.29488377 -23.23803711 8.86669922 C-21.85894542 8.24952412 -20.47971507 7.63265877 -19.1003418 7.01611328 C-17.11413345 6.1282624 -15.12843157 5.23928731 -13.14282227 4.35009766 C-11.94882812 3.81594238 -10.75483398 3.28178711 -9.5246582 2.73144531 C-6.51591682 1.4413148 -6.51591682 1.4413148 -4.30004883 -0.00390625 C-2.40844727 -0.68896484 -2.40844727 -0.68896484 0 0 Z " fill="#FDFDFE" transform="translate(289.408447265625,178.68896484375)"/>
<path d="M0 0 C1.92595757 -0.01878456 1.92595757 -0.01878456 3.89082336 -0.03794861 C10.49305442 0.30300972 14.27364904 2.80896277 18.64331055 7.57397461 C24.00995425 14.03493392 23.64084253 20.83394935 23.63891602 28.89160156 C23.64327657 30.93306747 23.6795992 32.97234541 23.7175293 35.01342773 C23.74157152 43.12767745 23.59683829 49.53291614 17.78515625 55.71386719 C15.18120349 58.05939706 13.8397074 59.13647461 10.26831055 59.13647461 C10.18082143 66.56354788 10.17808394 73.98698436 10.27343082 81.41388035 C10.31530485 84.86626987 10.3316996 88.31421676 10.28222656 91.76660156 C10.02705646 111.3147969 13.11557812 124.16633107 25.38894653 139.64988708 C28.46382401 143.71825911 30.97456164 148.09931583 33.51831055 152.51147461 C37.99906542 160.08633532 42.67801382 167.49977424 47.4909668 174.86694336 C51.4707555 180.96306983 55.33723744 187.13057137 59.21362305 193.29272461 C61.27760991 196.57277586 63.3568764 199.84240895 65.44799805 203.10522461 C82.33724001 229.49809291 82.33724001 229.49809291 83.26831055 241.13647461 C83.36112305 242.08006836 83.45393555 243.02366211 83.54956055 243.99584961 C84.2446081 257.13224841 78.73192323 268.3820793 70.26831055 278.13647461 C60.90916897 288.36056055 48.08145524 291.70706794 34.68421936 292.41976929 C29.18023239 292.6586927 23.67378496 292.80491195 18.16674805 292.95288086 C16.11949361 293.01411023 14.07226274 293.07613177 12.02505493 293.13890076 C6.65645902 293.30170053 1.28763958 293.45517224 -4.08129883 293.60620117 C-12.64982869 293.84889954 -21.21792788 294.1064034 -29.7860527 294.36292839 C-32.7467537 294.45032746 -35.70753883 294.53406167 -38.66836548 294.61708069 C-48.7696336 294.90701491 -58.85158157 295.31252005 -68.93882751 295.92192078 C-74.18380284 296.21861746 -79.41667358 296.35626603 -84.66918945 296.38647461 C-86.05460937 296.41741211 -86.05460937 296.41741211 -87.46801758 296.44897461 C-99.3280906 296.5153711 -112.27678337 292.92572322 -121.2355957 284.75366211 C-131.71129059 273.43006503 -136.28311806 261.88501297 -136.2980957 246.66772461 C-135.37692622 235.8489625 -130.59780412 226.2600377 -125.35668945 216.94897461 C-124.10371212 214.67444055 -122.85111921 212.39969469 -121.59887695 210.12475586 C-120.95917969 208.97185059 -120.31948242 207.81894531 -119.66040039 206.63110352 C-116.54920381 200.99393038 -113.52058091 195.31283921 -110.48168945 189.63647461 C-106.03301736 181.35672678 -101.5395945 173.10495206 -96.92602539 164.91577148 C-95.15221764 161.75573689 -93.43735506 158.58552711 -91.83325195 155.33569336 C-89.28003849 150.16880553 -86.50017108 145.12782411 -83.73168945 140.07397461 C-83.2109082 139.11942383 -82.69012695 138.16487305 -82.15356445 137.18139648 C-77.8734328 129.35070108 -77.8734328 129.35070108 -75.56274414 125.85839844 C-73.1904158 121.69355429 -73.30392474 118.06038315 -73.55981445 113.37084961 C-73.58767029 112.53797424 -73.61552612 111.70509888 -73.64422607 110.84698486 C-73.73691999 108.192298 -73.85821844 105.53989082 -73.98168945 102.88647461 C-74.08426319 100.28664347 -74.18078709 97.68664008 -74.27648926 95.08654785 C-74.34019554 93.36420591 -74.40634409 91.64195252 -74.47497559 89.9197998 C-74.81611563 80.99139983 -74.80042714 72.06982809 -74.73168945 63.13647461 C-75.66883789 62.83741211 -76.60598633 62.53834961 -77.5715332 62.23022461 C-84.0310454 59.99454672 -86.77142475 56.18113309 -89.66894531 50.23022461 C-91.5104187 44.86951918 -91.39768363 39.51571081 -91.27368164 33.89428711 C-91.2314511 31.87507804 -91.23265923 29.85918084 -91.23950195 27.83959961 C-91.16545936 20.43534014 -91.08472575 14.7396366 -85.79418945 9.05444336 C-85.11356445 8.48338867 -84.43293945 7.91233398 -83.73168945 7.32397461 C-83.05106445 6.7400293 -82.37043945 6.15608398 -81.66918945 5.55444336 C-78.08637863 2.93234592 -74.7114927 2.93840278 -70.40283203 2.74755859 C-68.43851982 2.65757851 -68.43851982 2.65757851 -66.43452454 2.56578064 C-64.99843151 2.5045162 -63.56232998 2.44345073 -62.1262207 2.38256836 C-60.64424942 2.3170134 -59.16229055 2.25117735 -57.68034363 2.18507385 C-54.56419049 2.04704657 -51.44792413 1.91207366 -48.33154297 1.77929688 C-44.38366431 1.61090824 -40.43612784 1.43567575 -36.48865223 1.25811672 C-33.41964469 1.12077095 -30.35049149 0.9869296 -27.28128624 0.85408211 C-25.82914632 0.79088151 -24.37704769 0.72672308 -22.92499733 0.66149712 C-15.28512139 0.32050898 -7.64743598 0.06580608 0 0 Z M-54.73168945 62.13647461 C-54.75473716 72.99839763 -54.75473716 72.99839763 -54.51293945 83.83569336 C-54.46661377 85.13676025 -54.42028809 86.43782715 -54.37255859 87.77832031 C-54.34872101 88.4390152 -54.32488342 89.09971008 -54.30032349 89.78042603 C-54.22960079 91.88616368 -54.17294932 93.99188575 -54.12011719 96.09814453 C-53.90643296 104.80834738 -53.90643296 104.80834738 -53.1730957 113.48803711 C-51.76105119 127.83159749 -58.89952568 138.80899679 -65.85522461 150.8737793 C-68.05245259 154.69420016 -70.15381907 158.56030192 -72.24584961 162.43896484 C-73.68834428 165.10943568 -75.14772227 167.77008838 -76.6105957 170.42944336 C-80.80106737 178.06867455 -84.8996113 185.75723214 -89.00683594 193.44140625 C-89.64163976 194.62884796 -90.27648681 195.81626656 -90.91137695 197.00366211 C-91.22625565 197.59257736 -91.54113434 198.18149261 -91.86555481 198.78825378 C-94.69927588 204.08402104 -97.5561961 209.36705145 -100.4152832 214.64916992 C-102.71106909 218.89884239 -104.99053343 223.15714149 -107.26782227 227.41674805 C-108.54778432 229.79479629 -109.84967674 232.15867402 -111.16137695 234.51928711 C-115.37083513 242.23446122 -117.43261205 248.12057995 -114.98950195 256.76147461 C-112.06299804 264.88796482 -107.83949569 269.98492291 -100.25595093 274.08233643 C-96.08057095 275.82598601 -92.1888858 275.77608032 -87.7199707 275.65991211 C-86.78928268 275.65520905 -85.85859467 275.65050598 -84.89970398 275.6456604 C-81.94708316 275.62449377 -78.99631934 275.56809279 -76.04418945 275.51147461 C-74.08392042 275.49493773 -72.12363157 275.48059741 -70.16333008 275.46850586 C-62.44462307 275.39730104 -54.77771515 275.23876859 -47.07836914 274.65063477 C-39.9511887 274.11652582 -32.82827033 273.86931717 -25.68510246 273.69091797 C-23.44139136 273.63478227 -21.19781905 273.57456285 -18.95423889 273.51342773 C-13.38881585 273.36255514 -7.82322756 273.21821729 -2.25762939 273.07397461 C2.47076556 272.95119964 7.19907439 272.82572264 11.92730522 272.69677734 C14.11212776 272.63825166 16.2970228 272.58355271 18.48194885 272.52905273 C38.03061198 272.81239421 38.03061198 272.81239421 55.0769043 264.60131836 C60.04957726 259.35583043 63.37751155 252.27687425 63.70581055 245.01147461 C62.74417961 236.49417201 58.62928015 230.15208965 54.01831055 223.13647461 C52.75427264 221.18270517 51.49128857 219.2282536 50.22924805 217.27319336 C49.57666016 216.26562988 48.92407227 215.25806641 48.25170898 214.2199707 C44.99791805 209.16145525 41.82158746 204.05514628 38.64331055 198.94897461 C32.70178227 189.4219229 26.72453757 179.91832706 20.7199707 170.4309082 C17.73921215 165.71964535 14.76382444 161.00498795 11.78735352 156.29101562 C9.17724068 152.15769281 6.56566849 148.02530209 3.9519043 143.89428711 C3.40856445 143.03512695 2.86522461 142.1759668 2.30541992 141.29077148 C1.26682493 139.64854864 0.22778807 138.00660514 -0.81176758 136.36499023 C-1.28163086 135.6218457 -1.75149414 134.87870117 -2.2355957 134.11303711 C-2.64624268 133.46415527 -3.05688965 132.81527344 -3.47998047 132.14672852 C-3.89304443 131.48334473 -4.3061084 130.81996094 -4.73168945 130.13647461 C-5.24202225 129.38101349 -5.75235504 128.62555237 -6.27815247 127.84719849 C-7.86774349 124.88274531 -8.14639056 123.08944162 -8.23999023 119.75463867 C-8.27657745 118.70294495 -8.31316467 117.65125122 -8.3508606 116.56768799 C-8.37598724 115.44054382 -8.40111389 114.31339966 -8.42700195 113.15209961 C-8.46477753 111.98193298 -8.5025531 110.81176636 -8.54147339 109.60614014 C-8.65983326 105.86651632 -8.75902237 102.12669103 -8.85668945 98.38647461 C-8.96513576 94.6607415 -9.07759022 90.93516928 -9.19332886 87.20965576 C-9.26407763 84.89360185 -9.330021 82.57739452 -9.39041138 80.26104736 C-9.42069427 79.196745 -9.45097717 78.13244263 -9.48217773 77.03588867 C-9.50643829 76.111651 -9.53069885 75.18741333 -9.55569458 74.23516846 C-9.78545815 70.18978377 -10.28423148 66.1635964 -10.73168945 62.13647461 C-25.25168945 62.13647461 -39.77168945 62.13647461 -54.73168945 62.13647461 Z " fill="#072C76" transform="translate(349.731689453125,244.863525390625)"/>
<path d="M0 0 C4.41976587 1.92121628 8.460068 4.35650003 12.5625 6.875 C13.71469351 7.56503392 14.86777776 8.25358261 16.02172852 8.94067383 C19.36198735 10.93741711 22.68051392 12.96891067 26 15 C27.71535773 16.02865911 29.43141349 17.05615589 31.1484375 18.08203125 C32.57935756 18.94848857 34.00915585 19.81680287 35.4375 20.6875 C36.07437744 21.07212402 36.71125488 21.45674805 37.36743164 21.85302734 C40.64115418 23.89938878 42.97926007 25.70512152 45 29 C45.38768005 31.42149353 45.38768005 31.42149353 45.40405273 34.14819336 C45.41673691 35.17283188 45.42942108 36.1974704 45.44248962 37.25315857 C45.43955399 38.35426468 45.43661835 39.45537079 45.43359375 40.58984375 C45.4388356 41.72651993 45.44407745 42.86319611 45.44947815 44.03431702 C45.45589989 46.43750187 45.45455943 48.84071814 45.44604492 51.24389648 C45.43753972 54.92032895 45.46628903 58.59520561 45.49804688 62.27148438 C45.49965908 64.60677037 45.49908099 66.94205911 45.49609375 69.27734375 C45.50732773 70.37642563 45.51856171 71.47550751 45.53013611 72.6078949 C45.46118854 80.16189098 45.46118854 80.16189098 43.34985352 83.9987793 C40.66263414 86.28731303 37.99167381 88.02246581 34.90625 89.7421875 C34.31888062 90.07364777 33.73151123 90.40510803 33.12634277 90.74661255 C31.25621239 91.79924912 29.37853384 92.83744896 27.5 93.875 C26.27028522 94.56282306 25.04111359 95.25161814 23.8125 95.94140625 C23.20774841 96.27928665 22.60299683 96.61716705 21.97991943 96.96528625 C20.76240485 97.65086403 19.54935368 98.34442834 18.34088135 99.04582214 C15.41879805 100.72838454 12.67571397 102.12550296 9.51464844 103.34887695 C5.89513732 104.88801232 3.66700997 106.08921908 1 109 C-1.45341817 115.46027084 -1.42154635 122.61499774 -1.75 129.4375 C-1.88281675 131.33305411 -2.02078774 133.22825453 -2.1640625 135.12304688 C-2.50245278 139.7467417 -2.77015133 144.36969211 -3 149 C-2.12746582 149.26643311 -1.25493164 149.53286621 -0.35595703 149.80737305 C5.18261504 151.77564924 10.06275661 154.85699862 15.125 157.8125 C16.75115234 158.73772461 16.75115234 158.73772461 18.41015625 159.68164062 C19.45300781 160.28814453 20.49585938 160.89464844 21.5703125 161.51953125 C22.98981201 162.34094604 22.98981201 162.34094604 24.43798828 163.17895508 C27.46090699 165.32760675 29.16645067 166.74137329 31 170 C31.42536575 173.61252616 31.22296867 177.15870227 31.046875 180.78515625 C31.00287573 182.94719471 30.96263219 185.10931226 30.92578125 187.27148438 C30.84988315 190.66266036 30.75079248 194.04626124 30.58544922 197.43432617 C29.58062833 209.81986527 29.58062833 209.81986527 33.50170898 221.15643311 C37.15583295 224.81642148 41.31765773 227.364804 45.85998535 229.78170776 C49.48576522 231.84583357 52.72559844 234.42543459 56 237 C54.74462638 241.56499497 52.82727159 245.08373229 50.21875 248.97265625 C48.85873361 251.23499121 47.9241085 253.53143238 47 256 C40.29597197 251.75411558 33.97666574 247.03915968 27.67382812 242.22753906 C21.78214128 237.0363486 21.78214128 237.0363486 14.7043457 235.23974609 C11.57921679 236.11829186 9.19068949 237.42776453 6.40234375 239.08984375 C5.35369141 239.70923828 4.30503906 240.32863281 3.22460938 240.96679688 C2.13986328 241.61712891 1.05511719 242.26746094 -0.0625 242.9375 C-2.21948235 244.21840781 -4.37701212 245.49839434 -6.53515625 246.77734375 C-7.487854 247.34702881 -8.44055176 247.91671387 -9.42211914 248.50366211 C-16.30985112 252.50166469 -16.30985112 252.50166469 -20.90722656 251.65966797 C-25.56484104 250.19153051 -29.68944334 247.52959641 -33.875 245.0625 C-34.88353027 244.47782959 -35.89206055 243.89315918 -36.93115234 243.29077148 C-38.98085202 242.10076459 -41.0279173 240.90620809 -43.07226562 239.70703125 C-45.73739037 238.15311596 -48.41757194 236.63206817 -51.109375 235.125 C-52.61482497 234.27125929 -54.120049 233.41711998 -55.625 232.5625 C-56.3041748 232.18681885 -56.98334961 231.8111377 -57.68310547 231.42407227 C-58.31619629 231.05854248 -58.94928711 230.6930127 -59.6015625 230.31640625 C-60.41101318 229.85923218 -60.41101318 229.85923218 -61.23681641 229.39282227 C-64.90231626 226.49727025 -67.58656158 224.21082845 -68.46112061 219.53419495 C-68.64513388 216.50116401 -68.66670416 213.50716794 -68.62890625 210.46875 C-68.63131821 209.35947144 -68.63373016 208.25019287 -68.63621521 207.1072998 C-68.63523784 204.76729754 -68.62187085 202.42727183 -68.59692383 200.08740234 C-68.56261413 196.51189381 -68.57627332 192.93885757 -68.59570312 189.36328125 C-68.58880442 187.08592701 -68.57913182 184.80857913 -68.56640625 182.53125 C-68.57136612 181.46547729 -68.57632599 180.39970459 -68.58143616 179.30163574 C-68.4882127 173.40766052 -68.19611087 169.50709566 -64 165 C-61.16601562 162.96118164 -61.16601562 162.96118164 -57.90625 161.16015625 C-57.02519592 160.66508827 -57.02519592 160.66508827 -56.12634277 160.16001892 C-54.25806063 159.11396942 -52.37970247 158.08785832 -50.5 157.0625 C-49.2700888 156.3795944 -48.04091523 155.69535854 -46.8125 155.00976562 C-45.90531219 154.50542244 -45.90531219 154.50542244 -44.97979736 153.9908905 C-43.76466418 153.31238319 -42.55203934 152.62936398 -41.34197998 151.94184875 C-38.42601099 150.29463922 -35.56363796 148.80569298 -32.49707031 147.44018555 C-26.28905345 144.52614958 -26.28905345 144.52614958 -22.78515625 138.89624023 C-22.13812698 135.12765534 -21.87703991 131.50832149 -21.75 127.6875 C-21.61658203 125.78581055 -21.61658203 125.78581055 -21.48046875 123.84570312 C-21.31891536 121.36983331 -21.19675915 118.89101491 -21.11791992 116.41113281 C-21.04431572 114.28194452 -20.91110282 112.15300166 -20.6887207 110.03417969 C-20.48009394 107.49294074 -20.39005217 105.47579312 -21 103 C-23.18081957 100.52172616 -25.73553866 99.28145644 -28.6875 97.875 C-30.24665452 97.04662753 -31.80524228 96.2171875 -33.36328125 95.38671875 C-34.14396973 94.98759277 -34.9246582 94.5884668 -35.72900391 94.17724609 C-39.02149915 92.47047206 -42.20283603 90.60641206 -45.375 88.6875 C-46.39335937 88.09324219 -47.41171875 87.49898438 -48.4609375 86.88671875 C-51.47574322 84.64648619 -52.47073715 83.45514249 -54 80 C-54.46864308 76.19075347 -54.46802883 72.40087474 -54.46875 68.56640625 C-54.47636353 67.45571274 -54.48397705 66.34501923 -54.49182129 65.20066833 C-54.50261342 62.85474899 -54.50547902 60.50878164 -54.50097656 58.1628418 C-54.50000433 54.5784476 -54.54163788 50.9961946 -54.5859375 47.41210938 C-54.59114473 45.13021279 -54.59383269 42.84830878 -54.59375 40.56640625 C-54.6183429 38.96304161 -54.6183429 38.96304161 -54.64343262 37.32728577 C-54.56652628 29.02568803 -54.56652628 29.02568803 -51.80224609 25.48535156 C-49.13469543 23.11946327 -46.70422408 21.35329857 -43.5703125 19.66796875 C-42.53455078 19.10094238 -41.49878906 18.53391602 -40.43164062 17.94970703 C-39.34044922 17.36817871 -38.24925781 16.78665039 -37.125 16.1875 C-34.86588881 14.96202647 -32.60807077 13.73416603 -30.3515625 12.50390625 C-29.26004883 11.90980957 -28.16853516 11.31571289 -27.04394531 10.70361328 C-24.41938672 9.23471932 -21.86927831 7.70915702 -19.3359375 6.08984375 C-18.67319824 5.66743408 -18.01045898 5.24502441 -17.32763672 4.80981445 C-15.63604331 3.71319372 -13.95799765 2.59575086 -12.28125 1.4765625 C-7.89061232 -0.49922445 -4.72951626 -1.02140212 0 0 Z " fill="#082C76" transform="translate(209,150)"/>
<path d="M0 0 C4.18516375 1.77616097 8.03272888 4.05580802 11.9375 6.375 C13.03473389 7.01042725 14.13196777 7.64585449 15.26245117 8.30053711 C17.47507934 9.58456356 19.68356961 10.87574903 21.88769531 12.17431641 C24.66790968 13.80519522 27.46360859 15.40136885 30.2734375 16.98046875 C31.78684314 17.84046901 33.29989305 18.70109575 34.8125 19.5625 C35.83234985 20.13266846 35.83234985 20.13266846 36.87280273 20.71435547 C41.45895501 23.37903449 44.61608301 26.23216602 47 31 C47.09016377 32.60354452 47.11756075 34.21082222 47.11352539 35.81689453 C47.11344986 36.81778107 47.11337433 37.8186676 47.11329651 38.84988403 C47.10813522 39.93325043 47.10297394 41.01661682 47.09765625 42.1328125 C47.09553383 43.79327103 47.09553383 43.79327103 47.09336853 45.48727417 C47.08775772 49.03320993 47.07520337 52.57908323 47.0625 56.125 C47.05748639 58.52473867 47.05292325 60.92447833 47.04882812 63.32421875 C47.03778478 69.21616725 47.0210361 75.10807916 47 81 C47.92493759 81.45351082 47.92493759 81.45351082 48.86856079 81.91618347 C52.94121141 83.9870875 56.61423017 86.72983718 60.375 89.3125 C61.21289062 89.88162109 62.05078125 90.45074219 62.9140625 91.03710938 C67.47707312 94.16162372 71.82329873 97.37429678 76 101 C74.73390452 104.79828645 73.58706633 104.99115206 70.125 106.8125 C65.80617679 109.27422923 63.62474962 111.12575115 62 116 C56.64009963 112.75336432 51.46610187 109.39046923 46.47265625 105.60546875 C45.68358887 105.0127417 44.89452148 104.42001465 44.08154297 103.80932617 C42.50045575 102.61440089 40.93012029 101.40509844 39.37158203 100.1809082 C38.63407715 99.6262085 37.89657227 99.07150879 37.13671875 98.5 C36.48405029 97.9946875 35.83138184 97.489375 35.15893555 96.96875 C32.06078812 95.57856014 30.24189099 96.11164629 27 97 C24.10860477 98.34213622 24.10860477 98.34213622 21.26953125 100.08984375 C20.21958984 100.70923828 19.16964844 101.32863281 18.08789062 101.96679688 C17.00701172 102.61712891 15.92613281 103.26746094 14.8125 103.9375 C13.72001953 104.58396484 12.62753906 105.23042969 11.50195312 105.89648438 C7.61949774 108.20012241 3.75666759 110.49555494 0 113 C-6.5696286 113.87978756 -10.58766741 111.5155115 -16.0625 108.3125 C-17.34568115 107.58994019 -17.34568115 107.58994019 -18.65478516 106.8527832 C-23.49729213 104.10496036 -28.25673207 101.23896966 -32.98828125 98.3046875 C-33.97111084 97.70229248 -34.95394043 97.09989746 -35.96655273 96.47924805 C-37.87769774 95.30188775 -39.77749835 94.1058724 -41.66430664 92.88989258 C-42.53563232 92.35259521 -43.40695801 91.81529785 -44.3046875 91.26171875 C-45.06765137 90.77662842 -45.83061523 90.29153809 -46.61669922 89.79174805 C-51.59924625 88.13651346 -56.67863803 91.69281613 -61.16796875 93.8203125 C-62.30814453 94.35527344 -63.44832031 94.89023438 -64.62304688 95.44140625 C-67.01194791 96.56975293 -69.39996093 97.69998147 -71.78710938 98.83203125 C-73.49157227 99.63060547 -73.49157227 99.63060547 -75.23046875 100.4453125 C-76.78350708 101.18031982 -76.78350708 101.18031982 -78.36791992 101.93017578 C-81 103 -81 103 -84 103 C-84.01417969 102.05898437 -84.02835938 101.11796875 -84.04296875 100.1484375 C-84.09066406 98.90320313 -84.13835937 97.65796875 -84.1875 96.375 C-84.22230469 95.14523438 -84.25710937 93.91546875 -84.29296875 92.6484375 C-85.18997297 88.01969751 -86.7713407 86.34709497 -90 83 C-89.43192627 82.75878418 -88.86385254 82.51756836 -88.27856445 82.26904297 C-85.62233176 81.13974804 -82.96741952 80.00737852 -80.3125 78.875 C-79.41982422 78.49601562 -78.52714844 78.11703125 -77.60742188 77.7265625 C-70.3395769 74.62285646 -63.1615892 71.34097893 -56 68 C-55.9906543 66.91058105 -55.98130859 65.82116211 -55.97167969 64.69873047 C-55.93167019 60.63923946 -55.86588171 56.58049759 -55.79248047 52.52148438 C-55.76433416 50.76800188 -55.74308815 49.01439401 -55.72900391 47.26074219 C-55.70748573 44.73307401 -55.66079298 42.20690316 -55.609375 39.6796875 C-55.60814636 38.90132538 -55.60691772 38.12296326 -55.60565186 37.3210144 C-55.46724578 32.12470747 -54.50566797 29.0656036 -51 25 C-48.28198242 22.96069336 -48.28198242 22.96069336 -45.16796875 21.15234375 C-44.60361618 20.81992172 -44.03926361 20.48749969 -43.45780945 20.14500427 C-41.64617851 19.08285954 -39.82395065 18.04082078 -38 17 C-36.78289335 16.29394545 -35.56625896 15.58707618 -34.35009766 14.87939453 C-30.68260715 12.75301706 -26.99864473 10.65631565 -23.3125 8.5625 C-22.03960484 7.83677917 -20.76681795 7.1108684 -19.49414062 6.38476562 C-6.3438816 -1.10888474 -6.3438816 -1.10888474 0 0 Z " fill="#6965F6" transform="translate(338,90)"/>
<path d="M0 0 C3.21357559 1.23094172 6.1030234 2.87870826 9.0625 4.625 C9.90868896 5.1092041 10.75487793 5.5934082 11.62670898 6.09228516 C14.42988439 7.70829629 17.21481955 9.35319196 20 11 C21.02996094 11.59876953 22.05992187 12.19753906 23.12109375 12.81445312 C26.27806308 14.65183246 29.42228214 16.50915604 32.5625 18.375 C33.55580322 18.95717285 34.54910645 19.5393457 35.57250977 20.13916016 C36.49862061 20.69909668 37.42473145 21.2590332 38.37890625 21.8359375 C39.1994751 22.32626465 40.02004395 22.8165918 40.86547852 23.32177734 C44.18497996 25.93166559 45.77078556 28.08763762 46.28443909 32.37310791 C46.43178001 35.39745496 46.46818052 38.40564026 46.46875 41.43359375 C46.48017029 43.09963402 46.48017029 43.09963402 46.49182129 44.79933167 C46.50261342 47.14525101 46.50547902 49.49121836 46.50097656 51.8371582 C46.50000433 55.4215524 46.54163788 59.0038054 46.5859375 62.58789062 C46.59114473 64.86978721 46.59383269 67.15169122 46.59375 69.43359375 C46.61014526 70.50250351 46.62654053 71.57141327 46.64343262 72.67271423 C46.56652684 80.97425164 46.56652684 80.97425164 43.80004883 84.51464844 C41.1442936 86.87192354 38.72174332 88.644584 35.60546875 90.33203125 C34.57470215 90.89905762 33.54393555 91.46608398 32.48193359 92.05029297 C31.39477051 92.63182129 30.30760742 93.21334961 29.1875 93.8125 C26.93325798 95.03974804 24.67935176 96.26761307 22.42578125 97.49609375 C21.32830566 98.09019043 20.23083008 98.68428711 19.10009766 99.29638672 C16.38371924 100.78913271 13.70666515 102.32596079 11.04296875 103.91015625 C10.32665283 104.33256592 9.61033691 104.75497559 8.87231445 105.19018555 C7.58687328 105.95271409 6.30746558 106.72555591 5.03588867 107.51098633 C0.78975655 109.99423409 -2.13225942 110.77924329 -7 110 C-10.82762832 108.26897337 -14.38762104 106.13718201 -18 104 C-20.0838921 102.84808993 -22.17121387 101.70236511 -24.26171875 100.5625 C-26.40401907 99.37567347 -28.54594352 98.18816822 -30.6875 97 C-31.76322266 96.40960938 -32.83894531 95.81921875 -33.94726562 95.2109375 C-49.16829184 86.74756224 -49.16829184 86.74756224 -53 81 C-53.26742554 78.69876099 -53.26742554 78.69876099 -53.29052734 75.96533203 C-53.3096669 74.42826096 -53.3096669 74.42826096 -53.32919312 72.86013794 C-53.33141876 71.75387054 -53.33364441 70.64760315 -53.3359375 69.5078125 C-53.3425943 68.36972137 -53.3492511 67.23163025 -53.35610962 66.05905151 C-53.36624139 63.64989846 -53.37092648 61.24071731 -53.37060547 58.83154297 C-53.3749747 55.14633877 -53.41127994 51.46233565 -53.44921875 47.77734375 C-53.45508753 45.4375041 -53.45905651 43.09765875 -53.4609375 40.7578125 C-53.47530853 39.65559357 -53.48967957 38.55337463 -53.50448608 37.41775513 C-53.45916683 29.82422079 -53.45916683 29.82422079 -51.31811523 25.98095703 C-48.80041317 23.82944207 -46.34017835 22.16629121 -43.44921875 20.546875 C-41.82282471 19.62370483 -41.82282471 19.62370483 -40.16357422 18.68188477 C-39.01646973 18.04436279 -37.86936523 17.40684082 -36.6875 16.75 C-34.32745723 15.42405784 -31.97043679 14.09278489 -29.61328125 12.76171875 C-27.90519287 11.79951416 -27.90519287 11.79951416 -26.16259766 10.81787109 C-23.47625158 9.27375091 -20.84356131 7.68335205 -18.23046875 6.01953125 C-17.56249268 5.59639648 -16.8945166 5.17326172 -16.20629883 4.73730469 C-14.51254436 3.6507367 -12.82995797 2.54681256 -11.1484375 1.44140625 C-7.27811574 -0.33049044 -4.13892934 -0.79693967 0 0 Z " fill="#082C77" transform="translate(453,174)"/>
<path d="M0 0 C4.41976587 1.92121628 8.460068 4.35650003 12.5625 6.875 C13.71469351 7.56503392 14.86777776 8.25358261 16.02172852 8.94067383 C19.36198735 10.93741711 22.68051392 12.96891067 26 15 C27.71535773 16.02865911 29.43141349 17.05615589 31.1484375 18.08203125 C32.57935756 18.94848857 34.00915585 19.81680287 35.4375 20.6875 C36.07437744 21.07212402 36.71125488 21.45674805 37.36743164 21.85302734 C40.64115418 23.89938878 42.97926007 25.70512152 45 29 C45.38768005 31.42149353 45.38768005 31.42149353 45.40405273 34.14819336 C45.41673691 35.17283188 45.42942108 36.1974704 45.44248962 37.25315857 C45.43955399 38.35426468 45.43661835 39.45537079 45.43359375 40.58984375 C45.4388356 41.72651993 45.44407745 42.86319611 45.44947815 44.03431702 C45.45589989 46.43750187 45.45455943 48.84071814 45.44604492 51.24389648 C45.43753972 54.92032895 45.46628903 58.59520561 45.49804688 62.27148438 C45.49965908 64.60677037 45.49908099 66.94205911 45.49609375 69.27734375 C45.50732773 70.37642563 45.51856171 71.47550751 45.53013611 72.6078949 C45.46117357 80.16353173 45.46117357 80.16353173 43.34545898 84.00097656 C40.68016381 86.27259485 38.03690594 87.99918611 34.9765625 89.70703125 C34.39393646 90.03611984 33.81131042 90.36520844 33.21102905 90.70426941 C31.3543319 91.75017118 29.49006228 92.78160366 27.625 93.8125 C26.41221836 94.4918718 25.19997411 95.17220383 23.98828125 95.85351562 C22.16950911 96.87612813 20.34942605 97.89571209 18.52325439 98.90505981 C15.38072878 100.64410658 12.27639722 102.42401216 9.20996094 104.29443359 C8.59140228 104.66581955 7.97284363 105.03720551 7.33554077 105.41984558 C5.62799299 106.44871939 3.92963562 107.49280181 2.23193359 108.5378418 C-2.00361972 110.45404733 -5.59622767 110.79715479 -10.05029297 109.32006836 C-10.88778076 108.83485718 -10.88778076 108.83485718 -11.7421875 108.33984375 C-12.40404053 107.96561279 -13.06589355 107.59138184 -13.74780273 107.20581055 C-14.44977783 106.78726807 -15.15175293 106.36872559 -15.875 105.9375 C-16.626604 105.50284424 -17.37820801 105.06818848 -18.15258789 104.62036133 C-19.83115503 103.64429379 -21.505151 102.66033657 -23.17529297 101.66992188 C-26.31366276 99.81456756 -29.47110531 97.99394472 -32.62890625 96.171875 C-34.89944542 94.84547385 -37.16898434 93.51735894 -39.4375 92.1875 C-41.08177979 91.23701782 -41.08177979 91.23701782 -42.75927734 90.26733398 C-43.78617676 89.65704346 -44.81307617 89.04675293 -45.87109375 88.41796875 C-46.78818115 87.87938232 -47.70526855 87.3407959 -48.65014648 86.78588867 C-51.52168511 84.60351932 -52.6413746 83.37310107 -54 80 C-54.45386583 76.18834595 -54.46802866 72.40178102 -54.46875 68.56640625 C-54.47636353 67.45571274 -54.48397705 66.34501923 -54.49182129 65.20066833 C-54.50261342 62.85474899 -54.50547902 60.50878164 -54.50097656 58.1628418 C-54.50000433 54.5784476 -54.54163788 50.9961946 -54.5859375 47.41210938 C-54.59114473 45.13021279 -54.59383269 42.84830878 -54.59375 40.56640625 C-54.61014526 39.49749649 -54.62654053 38.42858673 -54.64343262 37.32728577 C-54.56652628 29.02568803 -54.56652628 29.02568803 -51.80224609 25.48535156 C-49.13469543 23.11946327 -46.70422408 21.35329857 -43.5703125 19.66796875 C-42.53455078 19.10094238 -41.49878906 18.53391602 -40.43164062 17.94970703 C-38.79485352 17.07741455 -38.79485352 17.07741455 -37.125 16.1875 C-34.86588881 14.96202647 -32.60807077 13.73416603 -30.3515625 12.50390625 C-29.26004883 11.90980957 -28.16853516 11.31571289 -27.04394531 10.70361328 C-24.41938672 9.23471932 -21.86927831 7.70915702 -19.3359375 6.08984375 C-18.67319824 5.66743408 -18.01045898 5.24502441 -17.32763672 4.80981445 C-15.63604331 3.71319372 -13.95799765 2.59575086 -12.28125 1.4765625 C-7.89061232 -0.49922445 -4.72951626 -1.02140212 0 0 Z " fill="#082C76" transform="translate(209,150)"/>
<path d="M0 0 C14.52 0 29.04 0 44 0 C45.12113366 10.09020295 45.12113366 10.09020295 45.05908203 14.59790039 C45.05128723 15.60166718 45.04349243 16.60543396 45.03546143 17.63961792 C45.02633728 18.69827057 45.01721313 19.75692322 45.0078125 20.84765625 C44.21574412 55.3216522 44.21574412 55.3216522 59.99609375 84.63232422 C63.43269709 88.6927749 66.10134327 93.22386149 68.875 97.75 C69.38015137 98.53270264 69.88530273 99.31540527 70.40576172 100.12182617 C70.86740723 100.83959229 71.32905273 101.5573584 71.8046875 102.296875 C72.20671387 102.91916992 72.60874023 103.54146484 73.02294922 104.18261719 C74.05681751 106.10568454 74.56267806 107.86812911 75 110 C73.94683594 110.14695312 72.89367187 110.29390625 71.80859375 110.4453125 C58.89822911 112.39453033 48.24295608 116.46833213 36.5 122.125 C14.79441302 132.34728509 -7.21093378 131.37908412 -30 126 C-29.40210976 122.10473414 -28.22267713 119.18625731 -26.33203125 115.73828125 C-25.77483398 114.7136377 -25.21763672 113.68899414 -24.64355469 112.63330078 C-24.03930664 111.53743652 -23.43505859 110.44157227 -22.8125 109.3125 C-21.86763388 107.57909658 -20.92277826 105.84568734 -19.97854614 104.11193848 C-18.99173582 102.3018953 -18.00214247 100.49339419 -17.01220703 98.68505859 C-13.72898472 92.68079729 -10.49220471 86.65147089 -7.25 80.625 C-6.65421143 79.52067627 -6.05842285 78.41635254 -5.44458008 77.27856445 C-4.8905249 76.25077881 -4.33646973 75.22299316 -3.765625 74.1640625 C-3.27868164 73.26123535 -2.79173828 72.3584082 -2.29003906 71.42822266 C-1.65146973 70.22625244 -1.65146973 70.22625244 -1 69 C-0.6177124 68.30406738 -0.2354248 67.60813477 0.15844727 66.89111328 C1.53685689 63.79359052 1.24480858 60.57783759 1.1875 57.25 C1.18105469 56.44796143 1.17460937 55.64592285 1.16796875 54.81958008 C1.05367963 45.09339776 0.70500717 35.36781773 0.35620117 25.64746094 C0.31084229 24.34454102 0.2654834 23.04162109 0.21875 21.69921875 C0.17685547 20.55283936 0.13496094 19.40645996 0.09179688 18.2253418 C-0.04015742 12.15158401 0 6.07519099 0 0 Z " fill="#FDFDFE" transform="translate(295,307)"/>
<path d="M0 0 C0.57331055 0.11593506 1.14662109 0.23187012 1.73730469 0.35131836 C3.44372568 0.69373196 5.15090883 1.0323589 6.85864258 1.36816406 C8.7948503 1.74942189 10.72959827 2.13816534 12.6628418 2.53417969 C17.88399588 3.56423622 22.47316009 4.06002619 27.8125 3.75 C30.5703125 3.9140625 30.5703125 3.9140625 33 5 C36.05520315 9.32546683 37.99242802 13.91374612 40.02148438 18.78369141 C41.5669197 22.28405614 43.45911985 25.54195183 45.4375 28.8125 C45.80705811 29.42786621 46.17661621 30.04323242 46.55737305 30.67724609 C49.70195089 35.77755639 53.30783478 40.31106068 57.25 44.828125 C59 47 59 47 60 50 C60.88751953 49.91298828 60.88751953 49.91298828 61.79296875 49.82421875 C68.32465705 49.45128386 68.32465705 49.45128386 72 52.4375 C72.99 53.7059375 72.99 53.7059375 74 55 C74.33 55.33 74.66 55.66 75 56 C74.90460938 57.23878906 74.80921875 58.47757812 74.7109375 59.75390625 C74.67731137 63.34789946 74.81145541 63.78733924 77.3515625 66.65234375 C78.43179688 67.40644531 79.51203125 68.16054688 80.625 68.9375 C81.20967041 69.34863037 81.79434082 69.75976074 82.39672852 70.18334961 C83.63035157 71.04282896 84.87255934 71.89010257 86.12255859 72.72558594 C87.95329831 73.96829872 89.71976095 75.27229236 91.48828125 76.6015625 C99.54014432 82.45477026 105.9311317 84.38255579 116 84 C116 84.33 116 84.66 116 85 C115.15412323 85.02283554 114.30824646 85.04567108 113.43673706 85.06919861 C105.40599486 85.28655047 97.37534144 85.50690007 89.34477043 85.73049068 C85.21768201 85.84529645 81.09056984 85.95900394 76.96337891 86.07006836 C72.96918195 86.17759652 68.97507965 86.28818337 64.98102188 86.40075874 C63.46868924 86.4428725 61.95632715 86.48394386 60.44393539 86.5238781 C52.0073873 86.74739476 43.60930132 87.13329281 35.19204712 87.77616882 C27.70308422 88.30130624 20.19895025 88.34297143 12.69433594 88.4050293 C10.72410718 88.42675736 8.7539786 88.46103129 6.78417969 88.50756836 C-13.01288319 88.96823205 -13.01288319 88.96823205 -20.23535156 83.73657227 C-26.20978929 77.85718992 -29.79174152 70.97147239 -30.625 62.625 C-30.46527235 57.71648313 -28.78393941 54.01757906 -26.5390625 49.74609375 C-26.18362366 49.05330826 -25.82818481 48.36052277 -25.4619751 47.64674377 C-24.31818992 45.42569678 -23.16060152 43.21230054 -22 41 C-21.62280823 40.2766748 -21.24561646 39.55334961 -20.85699463 38.80810547 C-18.56434879 34.41295545 -16.25149688 30.02885492 -13.92578125 25.65112305 C-12.73465633 23.40861273 -11.54683011 21.16437723 -10.359375 18.91992188 C-9.58873181 17.46604503 -8.81790533 16.01226532 -8.046875 14.55859375 C-7.69888855 13.90120712 -7.3509021 13.2438205 -6.99237061 12.56651306 C-4.73964891 8.33042568 -2.39801635 4.15564572 0 0 Z " fill="#92B1F3" transform="translate(264,432)"/>
<path d="M0 0 C2.26171875 0.66796875 2.26171875 0.66796875 4.6875 2.1875 C6.09515625 3.03248047 6.09515625 3.03248047 7.53125 3.89453125 C8.06492187 4.22275879 8.59859375 4.55098633 9.1484375 4.88916016 C12.04942701 6.62960086 15.01566664 8.24940003 17.97851562 9.8815918 C21.65834749 11.91020855 25.32813111 13.95700528 29 16 C29 27.55 29 39.1 29 51 C24.9575 53.26875 20.915 55.5375 16.75 57.875 C14.84686035 58.94403564 14.84686035 58.94403564 12.90527344 60.03466797 C11.90012695 60.59814941 10.89498047 61.16163086 9.859375 61.7421875 C8.83295898 62.3182373 7.80654297 62.89428711 6.74902344 63.48779297 C5.38825684 64.23633545 5.38825684 64.23633545 4 65 C3.35353516 65.46535156 2.70707031 65.93070312 2.04101562 66.41015625 C0 67 0 67 -3.02441406 65.75830078 C-4.19758001 65.08685049 -5.3611208 64.39836575 -6.515625 63.6953125 C-7.64258789 63.04062988 -8.76955078 62.38594727 -9.93066406 61.71142578 C-11.35604492 60.85790527 -12.78142578 60.00438477 -14.25 59.125 C-18.7875 56.44375 -23.325 53.7625 -28 51 C-28 39.45 -28 27.9 -28 16 C-16.8125 9.6875 -16.8125 9.6875 -13.31176758 7.71362305 C-12.39032959 7.19324463 -11.4688916 6.67286621 -10.51953125 6.13671875 C-9.58214111 5.60780029 -8.64475098 5.07888184 -7.67895508 4.53393555 C-5.85687049 3.49063313 -4.06262804 2.39748839 -2.29638672 1.26220703 C-1.5385791 0.84567871 -0.78077148 0.42915039 0 0 Z " fill="#FB7C9F" transform="translate(435,337)"/>
<path d="M0 0 C2.77602492 1.13582708 5.40665883 2.44641413 8.03564453 3.8894043 C11.41512787 5.73974657 14.54739892 7.22326854 18.26171875 8.27734375 C22.99378143 9.88603492 26.52759126 11.4738212 29 16 C30.25208612 21.7337228 30.47771771 27.33369973 30.5 33.1875 C30.51311218 33.95977936 30.52622437 34.73205872 30.53973389 35.52774048 C30.62838573 47.99749555 30.62838573 47.99749555 27.21582031 52.1940918 C24.88185982 53.78062314 22.59018338 54.88653093 20 56 C18.442795 56.91891316 16.89565703 57.85511259 15.359375 58.80859375 C13.82515982 59.68881721 12.28869797 60.56513649 10.75 61.4375 C9.97398437 61.89576172 9.19796875 62.35402344 8.3984375 62.82617188 C7.64304688 63.25349609 6.88765625 63.68082031 6.109375 64.12109375 C5.43874023 64.5070874 4.76810547 64.89308105 4.07714844 65.29077148 C1.28406867 66.24444999 -0.19145757 65.87806515 -3 65 C-4.93735837 64.02754362 -6.83688591 62.97780574 -8.703125 61.875 C-9.7653125 61.25109375 -10.8275 60.6271875 -11.921875 59.984375 C-13.02015625 59.32953125 -14.1184375 58.6746875 -15.25 58 C-16.36375 57.34515625 -17.4775 56.6903125 -18.625 56.015625 C-26.8234747 51.1765253 -26.8234747 51.1765253 -28 50 C-28.08847743 47.47905924 -28.11527301 44.98569107 -28.09765625 42.46484375 C-28.0962413 41.71159317 -28.09482635 40.95834259 -28.09336853 40.18226624 C-28.08775376 37.7673044 -28.07519883 35.35243399 -28.0625 32.9375 C-28.0574869 31.30403779 -28.05292366 29.67057414 -28.04882812 28.03710938 C-28.03777954 24.02470415 -28.02050506 20.01236759 -28 16 C-24.33424729 13.88134239 -20.66805947 11.76344032 -17.00146484 9.64624023 C-15.75394874 8.92574531 -14.5065522 8.20504332 -13.25927734 7.48413086 C-11.46743592 6.44851209 -9.67516716 5.41363643 -7.8828125 4.37890625 C-6.26463623 3.44413452 -6.26463623 3.44413452 -4.61376953 2.49047852 C-3.0955855 1.62474776 -1.56316922 0.78158461 0 0 Z " fill="#FBCA50" transform="translate(190,313)"/>
<path d="M0 0 C1.79675744 0.90996452 3.56685364 1.87337715 5.31640625 2.87109375 C6.32767578 3.44537109 7.33894531 4.01964844 8.38085938 4.61132812 C9.43080078 5.21396484 10.48074219 5.81660156 11.5625 6.4375 C13.14321289 7.3356543 13.14321289 7.3356543 14.75585938 8.25195312 C22.48458104 12.65638736 22.48458104 12.65638736 26 15 C27.17773043 20.36503111 27.38214421 25.83187229 27.5625 31.3125 C27.58879486 32.09255402 27.61508972 32.87260803 27.6421814 33.67630005 C27.86091333 46.48316251 27.86091333 46.48316251 23.90820312 51.82910156 C18.7565403 56.13738426 12.89762689 58.80333831 6.5871582 61.00561523 C3.9126867 61.92443389 3.9126867 61.92443389 1.48120117 63.68383789 C-1 65 -1 65 -3.45605469 64.8828125 C-6.44800854 63.84452986 -8.97534533 62.48691087 -11.703125 60.875 C-12.7653125 60.25109375 -13.8275 59.6271875 -14.921875 58.984375 C-16.02015625 58.32953125 -17.1184375 57.6746875 -18.25 57 C-19.36375 56.34515625 -20.4775 55.6903125 -21.625 55.015625 C-29.8234747 50.1765253 -29.8234747 50.1765253 -31 49 C-34.51513814 20.79157612 -34.51513814 20.79157612 -29.48828125 12.50927734 C-25.6299891 8.9454441 -21.08671807 7.2510186 -16.12451172 5.72216797 C-13.15627724 4.71320019 -10.75966283 3.08013671 -8.1875 1.3125 C-4.88957505 -0.8530401 -3.7266427 -1.23754529 0 0 Z " fill="#D0DBFC" transform="translate(452,197)"/>
<path d="M0 0 C10.02749443 3.22773426 20.94087994 7.27111273 27.55981445 15.82397461 C31.32531815 26.21755341 29.03068932 39.13501383 27.55981445 49.82397461 C23.91397997 51.94541572 20.26607363 54.06323472 16.61621094 56.17773438 C15.37507598 56.89744673 14.13451082 57.61814263 12.89453125 58.33984375 C11.11127523 59.37751736 9.32599448 60.4116271 7.5402832 61.44506836 C6.46673584 62.06824951 5.39318848 62.69143066 4.28710938 63.33349609 C1.55981445 64.82397461 1.55981445 64.82397461 -1.44018555 65.82397461 C-4.02807617 64.68408203 -4.02807617 64.68408203 -7.09643555 62.92944336 C-8.20116211 62.30360352 -9.30588867 61.67776367 -10.4440918 61.03295898 C-11.60952926 60.35925693 -12.77489308 59.68542745 -13.94018555 59.01147461 C-15.10503472 58.3484589 -16.27039406 57.68633863 -17.4362793 57.02514648 C-25.72795906 52.29879227 -25.72795906 52.29879227 -29.44018555 49.82397461 C-30.61791598 44.45894349 -30.82232976 38.99210232 -31.00268555 33.51147461 C-31.04212784 32.34139359 -31.04212784 32.34139359 -31.08236694 31.14767456 C-31.30109887 18.3408121 -31.30109887 18.3408121 -27.34838867 12.99487305 C-22.19672585 8.68659035 -16.33781244 6.0206363 -10.02734375 3.81835938 C-7.35287224 2.89954072 -7.35287224 2.89954072 -4.92138672 1.14013672 C-2.44018555 -0.17602539 -2.44018555 -0.17602539 0 0 Z " fill="#B0D852" transform="translate(205.440185546875,172.176025390625)"/>
<path d="M0 0 C4.21454991 0.46181056 7.30252793 2.07990051 10.95703125 4.16015625 C12.06884766 4.78857422 13.18066406 5.41699219 14.32617188 6.06445312 C15.48836675 6.73031954 16.65047506 7.39633706 17.8125 8.0625 C18.99378217 8.73305373 20.17541945 9.40298231 21.35742188 10.07226562 C24.24183374 11.70872787 27.1224665 13.35148246 30 15 C32.6906726 42.71514529 32.6906726 42.71514529 28.49267578 49.40039062 C24.6091214 52.9088793 20.0461458 54.64363633 15.12011719 56.24121094 C12.1752297 57.29518495 9.79879652 58.96041947 7.25 60.75 C5.078125 62.234375 5.078125 62.234375 3 63 C-0.73498484 61.75168259 -4.06634377 59.93374714 -7.484375 57.99609375 C-8.50144531 57.42052734 -9.51851563 56.84496094 -10.56640625 56.25195312 C-11.61699219 55.65318359 -12.66757812 55.05441406 -13.75 54.4375 C-14.81605469 53.83486328 -15.88210938 53.23222656 -16.98046875 52.61132812 C-24.86099733 48.13900267 -24.86099733 48.13900267 -26 47 C-26.0883967 44.6243148 -26.11530305 42.27791326 -26.09765625 39.90234375 C-26.0962413 39.19348526 -26.09482635 38.48462677 -26.09336853 37.75428772 C-26.08775443 35.48198288 -26.07519963 33.20977525 -26.0625 30.9375 C-26.05748681 29.40039204 -26.05292359 27.86328255 -26.04882812 26.32617188 C-26.03778042 22.55074358 -26.02050641 18.77538829 -26 15 C-24.8718689 14.37170288 -24.8718689 14.37170288 -23.72094727 13.73071289 C-20.9378088 12.17964254 -18.15551068 10.62707856 -15.3737793 9.07348633 C-14.16838663 8.40068258 -12.96265835 7.72847976 -11.7565918 7.05688477 C-10.02565339 6.09288084 -8.29600957 5.12655352 -6.56640625 4.16015625 C-5.52427979 3.57886963 -4.48215332 2.99758301 -3.40844727 2.39868164 C-1.12440597 1.20986135 -1.12440597 1.20986135 0 0 Z " fill="#FA8E05" transform="translate(332,115)"/>
<path d="M0 0 C0 6.6 0 13.2 0 20 C-24.33855685 20.6374926 -48.65169004 21.18652212 -73 21 C-73.8242557 14.61201836 -74.05637294 8.43747651 -74 2 C-22.72409187 -0.30098135 -22.72409187 -0.30098135 0 0 Z " fill="#8FAEF1" transform="translate(353,266)"/>
<path d="M0 0 C0.81114258 0.42877441 1.62228516 0.85754883 2.45800781 1.29931641 C4.06434082 2.12955322 4.06434082 2.12955322 5.703125 2.9765625 C6.76176758 3.52908691 7.82041016 4.08161133 8.91113281 4.65087891 C12.97309327 6.42501687 15.64869427 6.50207374 20 6 C20.26939152 14.45839483 19.42501361 22.7248764 18.5 31.125 C18.35498671 32.47651087 18.21045214 33.82807319 18.06640625 35.1796875 C17.71562347 38.45366014 17.36004527 41.72703527 17 45 C16.18885742 44.57122559 15.37771484 44.14245117 14.54199219 43.70068359 C12.93565918 42.87044678 12.93565918 42.87044678 11.296875 42.0234375 C10.23823242 41.47091309 9.17958984 40.91838867 8.08886719 40.34912109 C4.02690673 38.57498313 1.35130573 38.49792626 -3 39 C-3.26939152 30.54160517 -2.42501361 22.2751236 -1.5 13.875 C-1.35498671 12.52348913 -1.21045214 11.17192681 -1.06640625 9.8203125 C-0.71562347 6.54633986 -0.36004527 3.27296473 0 0 Z " fill="#6966F6" transform="translate(189,253)"/>
<path d="M0 0 C0.81114258 0.42877441 1.62228516 0.85754883 2.45800781 1.29931641 C4.06434082 2.12955322 4.06434082 2.12955322 5.703125 2.9765625 C6.76176758 3.52908691 7.82041016 4.08161133 8.91113281 4.65087891 C12.97309327 6.42501687 15.64869427 6.50207374 20 6 C20.26939152 14.45839483 19.42501361 22.7248764 18.5 31.125 C18.35498671 32.47651087 18.21045214 33.82807319 18.06640625 35.1796875 C17.71562347 38.45366014 17.36004527 41.72703527 17 45 C13.92971904 43.83883752 11.47703548 42.66451333 8.6875 40.875 C4.70789679 38.50827563 1.55472713 38.68037003 -3 39 C-3.26939152 30.54160517 -2.42501361 22.2751236 -1.5 13.875 C-1.35498671 12.52348913 -1.21045214 11.17192681 -1.06640625 9.8203125 C-0.71562347 6.54633986 -0.36004527 3.27296473 0 0 Z " fill="#6965F6" transform="translate(434,277)"/>
<path d="M0 0 C5.79056461 3.71914312 11.41746689 7.66523206 17 11.6875 C17.6710376 12.16292236 18.3420752 12.63834473 19.03344727 13.12817383 C23.88432499 16.65297496 23.88432499 16.65297496 25 20 C23.63671875 22.7421875 23.63671875 22.7421875 21.6875 25.875 C19.4359125 29.51955745 17.46537653 32.96835492 16 37 C9.3491616 32.78780235 3.08262407 28.11491111 -3.15039062 23.31542969 C-7.28008495 20.1683178 -11.43533352 17.4779618 -16 15 C-13.24026868 12.86890907 -10.40662426 11.01117531 -7.4375 9.1875 C-3.55489359 6.63953954 -1.59895472 4.47707322 0 0 Z " fill="#6865F6" transform="translate(240,369)"/>
<path d="M0 0 C0.33 0 0.66 0 1 0 C1.06316406 0.804375 1.12632812 1.60875 1.19140625 2.4375 C2.41763872 14.20933169 5.76391897 25.1932078 9.27563477 36.46728516 C9.98963053 38.96374356 10.52745711 41.4478672 11 44 C0.40406605 44.87489363 -9.72661824 42.27056079 -20 40 C-19.39330725 35.87033125 -18.01114817 32.79342724 -16.015625 29.140625 C-15.10683594 27.46613281 -15.10683594 27.46613281 -14.1796875 25.7578125 C-13.53658336 24.5884729 -12.89335348 23.41920244 -12.25 22.25 C-11.62867188 21.10789062 -11.00734375 19.96578125 -10.3671875 18.7890625 C-6.9448475 12.50755237 -3.48634491 6.24619885 0 0 Z " fill="#D0DAFB" transform="translate(285,393)"/>
<path d="M0 0 C3.4185354 0.79889686 5.05365451 2.80995577 7.15625 5.50390625 C7.48625 5.83390625 7.81625 6.16390625 8.15625 6.50390625 C8.66931482 10.86495721 8.42544694 13.03498256 6.21875 16.87890625 C3.33603496 19.93409142 0.42265553 20.53764196 -3.6875 20.75 C-6.99110835 20.37295774 -8.64688804 18.90672401 -10.84375 16.50390625 C-12.58976232 13.0118816 -12.40213804 9.31408346 -11.84375 5.50390625 C-8.72709274 0.57757703 -5.54832131 -0.28666327 0 0 Z " fill="#6A66F7" transform="translate(330.84375,481.49609375)"/>
<path d="M0 0 C3.44996778 0.79999253 5.06552996 2.75592995 7.15625 5.5 C8.60772903 8.40295805 8.52864025 10.27261779 8.15625 13.5 C6.34314858 16.42937654 4.28329101 18.93647949 1.15625 20.5 C-3.33940838 20.62150428 -6.8153323 20.30266747 -10.40625 17.5 C-12.37891889 13.3831258 -12.75106802 9.9798827 -11.84375 5.5 C-8.72846734 0.57584354 -5.5477266 -0.29587875 0 0 Z " fill="#6A67F7" transform="translate(371.84375,455.5)"/>
<path d="M0 0 C3.48427768 1.94668145 6.43310501 4.04820718 7.58203125 8.00390625 C7.76974877 11.66787415 7.08370047 13.86886926 5.125 16.9375 C1.87071886 20.09606699 -0.42411752 20.33855508 -4.9609375 20.2890625 C-8.16544562 19.83478357 -9.82724211 18.30444019 -12 16 C-13.24242813 12.2727156 -13.53133458 9.91859249 -13 6 C-9.65360781 1.57038259 -5.65715557 -1.41428889 0 0 Z " fill="#6965F6" transform="translate(274,463)"/>
<path d="M0 0 C0.03867187 1.53720703 0.03867187 1.53720703 0.078125 3.10546875 C0.13443058 4.46618699 0.19177737 5.82686243 0.25 7.1875 C0.26417969 7.86103516 0.27835937 8.53457031 0.29296875 9.22851562 C0.52850144 14.05693569 1.64769346 16.54712426 5 20 C3.35 20.33 1.7 20.66 0 21 C-4.95 13.08 -4.95 13.08 -10 5 C-6.95224467 1.95224467 -4.42002798 0 0 0 Z " fill="#6865F4" transform="translate(386,382)"/>
</svg>
