<?xml version="1.0" encoding="UTF-8"?>
<svg version="1.1" xmlns="http://www.w3.org/2000/svg" width="640" height="640">
<path d="M0 0 C211.2 0 422.4 0 640 0 C640 211.2 640 422.4 640 640 C428.8 640 217.6 640 0 640 C0 428.8 0 217.6 0 0 Z " fill="#FEFEFE" transform="translate(0,0)"/>
<path d="M0 0 C2.06435159 1.02956203 4.04027644 2.15465576 6.02587891 3.32885742 C6.77297119 3.75900146 7.52006348 4.18914551 8.28979492 4.63232422 C9.95717032 5.59794739 11.62028366 6.57095557 13.27978516 7.55004883 C16.4134112 9.395249 19.56366686 11.21048258 22.71337891 13.02807617 C24.98525057 14.35572805 27.25609167 15.68514508 29.52587891 17.01635742 C30.622146 17.65009277 31.71841309 18.28382813 32.84790039 18.93676758 C34.38812866 19.85208252 34.38812866 19.85208252 35.95947266 20.78588867 C36.87656006 21.3244751 37.79364746 21.86306152 38.73852539 22.41796875 C41.08837891 24.20385742 41.08837891 24.20385742 44.08837891 29.20385742 C44.08837891 34.15385742 44.08837891 39.10385742 44.08837891 44.20385742 C57.28837891 44.20385742 70.48837891 44.20385742 84.08837891 44.20385742 C84.08837891 39.25385742 84.08837891 34.30385742 84.08837891 29.20385742 C87.53373887 24.89715747 89.0258921 23.33147394 93.53369141 20.78588867 C94.60256592 20.17551758 95.67144043 19.56514648 96.77270508 18.9362793 C97.90812744 18.30270508 99.0435498 17.66913086 100.21337891 17.01635742 C101.38730994 16.35486357 102.56089166 15.69274942 103.73413086 15.0300293 C105.50124585 14.03295611 107.26915625 13.03746415 109.03993225 12.04690552 C112.57678755 10.06753744 116.07933494 8.04023877 119.56103516 5.96557617 C120.36718262 5.49337646 121.17333008 5.02117676 122.00390625 4.53466797 C123.4744437 3.673299 124.9376361 2.79921267 126.39160156 1.91015625 C129.74343229 -0.01663233 131.6400539 -0.79514073 135.58447266 -0.80395508 C139.78267154 0.40355363 143.20598399 2.13384536 146.96337891 4.32885742 C147.71498291 4.75827637 148.46658691 5.18769531 149.2409668 5.63012695 C151.86568943 7.13980915 154.47714351 8.67096971 157.08837891 10.20385742 C158.68576904 11.13294922 158.68576904 11.13294922 160.31542969 12.08081055 C163.72602263 14.06832416 167.12740921 16.07069302 170.52587891 18.07885742 C171.62206543 18.72097168 172.71825195 19.36308594 173.84765625 20.0246582 C174.87455566 20.63809082 175.90145508 21.25152344 176.95947266 21.88354492 C177.87656006 22.42736816 178.79364746 22.97119141 179.73852539 23.53149414 C182.20557715 25.28726604 183.50134108 26.63777674 185.08837891 29.20385742 C185.47605896 31.70127869 185.47605896 31.70127869 185.49243164 34.53564453 C185.5114579 36.13266457 185.5114579 36.13266457 185.53086853 37.76194763 C185.52646507 39.47922813 185.52646507 39.47922813 185.52197266 41.23120117 C185.52721451 42.41226944 185.53245636 43.59333771 185.53785706 44.81019592 C185.54427961 47.30753798 185.54293729 49.80491029 185.53442383 52.30224609 C185.52591862 56.1235137 185.55466723 59.94328457 185.58642578 63.7644043 C185.58803798 66.19083614 185.58745992 68.61727063 185.58447266 71.04370117 C185.59570663 72.18653061 185.60694061 73.32936005 185.61851501 74.50682068 C185.54890104 82.43096816 185.54890104 82.43096816 183.20483398 86.36499023 C181.00832768 88.27340937 178.92452414 89.68525325 176.33837891 91.01635742 C175.53916016 91.43530273 174.73994141 91.85424805 173.91650391 92.28588867 C173.01158203 92.7402832 173.01158203 92.7402832 172.08837891 93.20385742 C172.67111183 97.12055817 173.84749821 99.87807252 175.88916016 103.25854492 C176.45441406 104.20342773 177.01966797 105.14831055 177.60205078 106.12182617 C178.19566406 107.09764648 178.78927734 108.0734668 179.40087891 109.07885742 C180.56400357 111.01353432 181.72677204 112.94842541 182.88916016 114.88354492 C183.43910645 115.79716797 183.98905273 116.71079102 184.55566406 117.65209961 C190.08837891 126.86330311 190.08837891 126.86330311 190.08837891 129.20385742 C190.93400391 128.69854492 191.77962891 128.19323242 192.65087891 127.67260742 C193.78525391 127.02291992 194.91962891 126.37323242 196.08837891 125.70385742 C197.20212891 125.05416992 198.31587891 124.40448242 199.46337891 123.73510742 C203.60873861 121.9840503 206.71680686 121.21851598 211.08837891 122.20385742 C215.24421386 123.98115289 219.07841214 126.21495788 222.96337891 128.51635742 C224.05658447 129.14775635 225.14979004 129.77915527 226.27612305 130.4296875 C229.55880098 132.33488379 232.82508095 134.26569278 236.08837891 136.20385742 C237.03986816 136.76298828 237.99135742 137.32211914 238.97167969 137.89819336 C241.49688127 139.38436295 244.0138963 140.88297093 246.52587891 142.39135742 C247.27015137 142.83584229 248.01442383 143.28032715 248.78125 143.73828125 C251.96116331 145.68744333 253.99167313 147.05879876 256.08837891 150.20385742 C256.34907532 152.5430603 256.34907532 152.5430603 256.36303711 155.33032227 C256.37256912 156.37505707 256.38210114 157.41979187 256.391922 158.4961853 C256.39055489 160.18839706 256.39055489 160.18839706 256.38916016 161.91479492 C256.39344528 163.07508209 256.39773041 164.23536926 256.40214539 165.43081665 C256.40789251 167.88705797 256.40838615 170.34331632 256.40405273 172.79956055 C256.40089725 176.55701805 256.42433278 180.31368507 256.44970703 184.07104492 C256.45198042 186.45646059 256.45268334 188.84187839 256.45166016 191.22729492 C256.4608699 192.35138763 256.47007965 193.47548035 256.47956848 194.63363647 C256.4702253 196.21019516 256.4702253 196.21019516 256.46069336 197.81860352 C256.46132278 198.73999115 256.46195221 199.66137878 256.46260071 200.61068726 C256.00708742 203.76716685 254.94385441 205.62866907 253.08837891 208.20385742 C250.3996582 210.11328125 250.3996582 210.11328125 247.16259766 211.91088867 C246.28653618 212.40452156 246.28653618 212.40452156 245.39277649 212.90812683 C243.52683868 213.95610062 241.65187053 214.98651039 239.77587891 216.01635742 C238.55842989 216.69552828 237.3416268 217.37585837 236.12548828 218.05737305 C234.29876764 219.08092986 232.47056063 220.10088058 230.63522339 221.10891724 C227.48852314 222.83953735 224.38732754 224.61510481 221.32910156 226.49829102 C220.71500931 226.86967697 220.10091705 227.24106293 219.46821594 227.623703 C217.77670978 228.65101652 216.09584639 229.69579556 214.41577148 230.74169922 C209.2464255 233.01326816 205.02373538 232.94959111 199.68212891 230.89135742 C198.66119141 230.33448242 197.64025391 229.77760742 196.58837891 229.20385742 C195.54681641 228.64698242 194.50525391 228.09010742 193.43212891 227.51635742 C192.65869141 227.08323242 191.88525391 226.65010742 191.08837891 226.20385742 C190.59809204 227.1092627 190.59809204 227.1092627 190.09790039 228.03295898 C188.57585506 230.8409948 187.05134828 233.6476802 185.52587891 236.45385742 C184.9802832 237.45771484 184.4346875 238.46157227 183.87255859 239.49584961 C180.43641578 245.79578425 176.92135652 252.02190383 173.19775391 258.15698242 C171.92954579 260.10888613 171.92954579 260.10888613 172.08837891 262.20385742 C174.77218125 263.95021895 177.50173837 265.53844832 180.29150391 267.10620117 C183.74695445 269.12572005 185.67382348 270.4549059 187.08837891 274.20385742 C187.34907532 276.62535095 187.34907532 276.62535095 187.36303711 279.35205078 C187.37256912 280.3766893 187.38210114 281.40132782 187.391922 282.45701599 C187.39055489 284.10867516 187.39055489 284.10867516 187.38916016 285.79370117 C187.39344528 286.93037735 187.39773041 288.06705353 187.40214539 289.23817444 C187.40788682 291.64136082 187.40839033 294.04456458 187.40405273 296.44775391 C187.40089389 300.12391823 187.42435146 303.79927703 187.44970703 307.4753418 C187.45198014 309.81062724 187.45268347 312.14591485 187.45166016 314.48120117 C187.4608699 315.58028305 187.47007965 316.67936493 187.47956848 317.81175232 C187.4702253 319.35343834 187.4702253 319.35343834 187.46069336 320.92626953 C187.46132278 321.82687607 187.46195221 322.7274826 187.46260071 323.65538025 C186.84516064 327.86019114 184.97072916 330.46881105 181.74853516 333.15307617 C180.89130859 333.72670898 180.03408203 334.3003418 179.15087891 334.89135742 C178.29623047 335.47272461 177.44158203 336.0540918 176.56103516 336.65307617 C174.44425181 337.98066383 172.34642516 339.14032287 170.08837891 340.20385742 C170.29333984 340.79553711 170.49830078 341.3872168 170.70947266 341.99682617 C170.97888672 342.78702148 171.24830078 343.5772168 171.52587891 344.39135742 C171.79271484 345.16866211 172.05955078 345.9459668 172.33447266 346.74682617 C176.36441122 359.88066738 174.60455212 372.64932847 168.83837891 384.84838867 C163.19150007 395.29190607 154.32236296 402.47914101 143.08837891 406.20385742 C135.45614734 408.28255699 128.29186202 408.50006725 120.40551758 408.49438477 C119.04436377 408.50038038 117.68321333 408.50718828 116.32206726 408.51473999 C112.64833947 408.53230139 108.97470504 408.53709115 105.30093932 408.53837156 C102.99937153 408.53979925 100.69782701 408.54408045 98.39626503 408.549366 C90.34887832 408.56783313 82.30155759 408.57604071 74.25415039 408.57446289 C66.78155084 408.57326215 59.30924041 408.59435964 51.83671397 408.62595022 C45.39646951 408.6521956 38.95631901 408.66282675 32.51602155 408.66155207 C28.68040446 408.66104489 24.8450447 408.66659177 21.00948143 408.68790817 C17.39857173 408.70743098 13.7881612 408.7073207 10.17723274 408.69287491 C8.24013949 408.68982438 6.30304542 408.70636408 4.36602783 408.72375488 C-9.22959623 408.62721983 -21.60176006 404.30930806 -31.66162109 394.95385742 C-41.76465417 384.18364292 -45.42499465 371.73371069 -45.20458984 357.30541992 C-44.88468037 350.29339402 -42.04778237 344.36316515 -38.91162109 338.20385742 C-40.14912109 337.89448242 -40.14912109 337.89448242 -41.41162109 337.57885742 C-46.18987472 335.70168635 -51.25598227 332.92009313 -54.00086975 328.4168396 C-55.05632433 325.85225136 -55.18449558 323.93282108 -55.21801758 321.16333008 C-55.23400497 320.16194 -55.24999237 319.16054993 -55.26646423 318.1288147 C-55.27182693 317.05271942 -55.27718964 315.97662415 -55.28271484 314.86791992 C-55.29174332 313.75581146 -55.30077179 312.643703 -55.31007385 311.49789429 C-55.32457694 309.14600314 -55.33346323 306.79407164 -55.3371582 304.44213867 C-55.34905441 300.84899755 -55.39824242 297.25757366 -55.44873047 293.66479492 C-55.45819483 291.37834496 -55.4654298 289.09188446 -55.47021484 286.80541992 C-55.48974716 285.73337311 -55.50927948 284.66132629 -55.52940369 283.55679321 C-55.47917263 275.2284256 -55.47917263 275.2284256 -52.53027344 271.58374023 C-50.11963002 269.39290003 -47.99375222 267.79777471 -45.09912109 266.32885742 C-44.30892578 265.91893555 -43.51873047 265.50901367 -42.70458984 265.08666992 C-41.81707031 264.64967773 -41.81707031 264.64967773 -40.91162109 264.20385742 C-41.60210073 260.30380523 -43.41770821 257.28105336 -45.36865234 253.86401367 C-45.71288742 253.26004257 -46.0571225 252.65607147 -46.41178894 252.03379822 C-47.13991962 250.75913485 -47.87046882 249.48585038 -48.60327148 248.21386719 C-49.71619263 246.28013336 -50.81929758 244.3410462 -51.92138672 242.40112305 C-52.63239121 241.15925202 -53.34396165 239.91770481 -54.05615234 238.67651367 C-54.69915283 237.55510986 -55.34215332 236.43370605 -56.00463867 235.27832031 C-57.79641868 232.38958832 -59.72831663 229.80473213 -61.91162109 227.20385742 C-63.19746094 227.97922852 -63.19746094 227.97922852 -64.50927734 228.77026367 C-65.65267578 229.42897461 -66.79607422 230.08768555 -67.97412109 230.76635742 C-69.09947266 231.42764648 -70.22482422 232.08893555 -71.38427734 232.77026367 C-75.59499282 234.48159543 -77.5117008 234.14667643 -81.91162109 233.20385742 C-84.85498047 231.85620117 -84.85498047 231.85620117 -87.75537109 230.14135742 C-88.83036865 229.51334229 -89.90536621 228.88532715 -91.01293945 228.23828125 C-92.69528687 227.23124146 -92.69528687 227.23124146 -94.41162109 226.20385742 C-95.57590642 225.51638883 -96.74070443 224.8297878 -97.90600586 224.14404297 C-100.19967632 222.7918282 -102.48842168 221.43222315 -104.77539062 220.06860352 C-107.45468531 218.4755432 -110.14446213 216.90464816 -112.84521484 215.34838867 C-114.18014181 214.5715457 -115.51480657 213.79425185 -116.84912109 213.01635742 C-117.97189453 212.36280273 -119.09466797 211.70924805 -120.25146484 211.03588867 C-122.91451433 209.20186487 -124.23792702 207.93438918 -125.91162109 205.20385742 C-126.30603027 202.70643616 -126.30603027 202.70643616 -126.33154297 199.87207031 C-126.34745483 198.80739029 -126.3633667 197.74271027 -126.37976074 196.64576721 C-126.37996216 195.50091354 -126.38016357 194.35605988 -126.38037109 193.17651367 C-126.38798462 191.9954454 -126.39559814 190.81437714 -126.40344238 189.59751892 C-126.41424623 187.10019037 -126.41709536 184.60281662 -126.41259766 182.10546875 C-126.41162558 178.28398311 -126.45324346 174.46450614 -126.49755859 170.64331055 C-126.50276567 168.21688244 -126.50545379 165.79044736 -126.50537109 163.36401367 C-126.52176636 162.22118423 -126.53816162 161.0783548 -126.55505371 159.90089417 C-126.48616773 151.99596672 -126.48616773 151.99596672 -123.68212891 148.13012695 C-121.1526739 146.37145582 -118.69057885 144.70475293 -115.98974609 143.22338867 C-114.58692383 142.44354614 -114.58692383 142.44354614 -113.15576172 141.64794922 C-111.67366211 140.84031128 -111.67366211 140.84031128 -110.16162109 140.01635742 C-108.09294127 138.87488711 -106.02524089 137.73164006 -103.95849609 136.58666992 C-102.42612305 135.73830566 -102.42612305 135.73830566 -100.86279297 134.87280273 C-98.16057634 133.34464647 -95.5066572 131.76318469 -92.86474609 130.13354492 C-92.10645508 129.66843506 -91.34816406 129.2033252 -90.56689453 128.72412109 C-89.17190019 127.86149376 -87.78394243 126.98733701 -86.40478516 126.09960938 C-82.05231557 123.42938607 -78.988979 122.53194009 -73.91162109 123.20385742 C-70.89208984 124.51635742 -70.89208984 124.51635742 -68.09912109 126.20385742 C-64.72063052 128.45238748 -64.72063052 128.45238748 -60.91162109 129.20385742 C-60.26930542 128.04768921 -60.26930542 128.04768921 -59.61401367 126.86816406 C-53.37988281 115.64672852 -47.14575195 104.42529297 -40.91162109 93.20385742 C-41.63994141 92.93444336 -42.36826172 92.6650293 -43.11865234 92.38745117 C-45.84780425 91.23090148 -48.13739951 89.90889831 -50.59912109 88.26635742 C-51.36611328 87.76233398 -52.13310547 87.25831055 -52.92333984 86.73901367 C-54.91162109 85.20385742 -54.91162109 85.20385742 -56.91162109 82.20385742 C-57.17904663 79.82669067 -57.17904663 79.82669067 -57.20214844 76.9855957 C-57.21490814 75.92084015 -57.22766785 74.85608459 -57.24081421 73.75906372 C-57.24303986 72.60904877 -57.2452655 71.45903381 -57.24755859 70.27416992 C-57.25754379 68.5004451 -57.25754379 68.5004451 -57.26773071 66.69088745 C-57.2778634 64.18757688 -57.28254754 61.68423926 -57.28222656 59.1809082 C-57.28659599 55.35086513 -57.32290113 51.52197749 -57.36083984 47.69213867 C-57.36670855 45.26115303 -57.37067758 42.83016192 -57.37255859 40.39916992 C-57.38692963 39.25320343 -57.40130066 38.10723694 -57.41610718 36.92654419 C-57.37069957 29.02272243 -57.37069957 29.02272243 -55.19360352 25.1394043 C-52.85525546 23.15604885 -50.60600876 21.5540807 -47.93896484 20.03979492 C-46.96572266 19.47977783 -45.99248047 18.91976074 -44.98974609 18.34277344 C-43.95333984 17.76068115 -42.91693359 17.17858887 -41.84912109 16.57885742 C-39.68080396 15.34639724 -37.51283972 14.11331599 -35.34521484 12.87963867 C-34.26353027 12.26685059 -33.1818457 11.6540625 -32.06738281 11.02270508 C-29.13865938 9.33471269 -26.25663578 7.5911016 -23.38427734 5.80932617 C-22.5406665 5.2938623 -21.69705566 4.77839844 -20.82788086 4.24731445 C-19.25993501 3.28630005 -17.70110268 2.31019369 -16.15356445 1.31665039 C-10.36345474 -2.17755151 -6.27824445 -2.61473246 0 0 Z " fill="#6965F6" transform="translate(254.91162109375,109.796142578125)"/>
<path d="M0 0 C0.81897766 -0.00554901 1.63795532 -0.01109802 2.48175049 -0.01681519 C5.16479672 -0.02854012 7.84612695 -0.00441244 10.52905273 0.02148438 C12.40656965 0.02319734 14.28408896 0.02312791 16.16160583 0.0213623 C20.08632454 0.02301143 24.01046921 0.04163583 27.93505859 0.07324219 C32.9541975 0.11294573 37.97258657 0.11728159 42.99185276 0.10977936 C46.86531894 0.10670353 50.73861799 0.11885152 54.61204338 0.13591003 C56.46231983 0.14291769 58.31261521 0.14606729 60.16290474 0.1452179 C62.75217783 0.1470246 65.34056802 0.16847944 67.9296875 0.1953125 C68.68676498 0.1923819 69.44384247 0.18945129 70.22386169 0.18643188 C76.18428418 0.28127687 81.02997592 1.47018754 85.57983398 5.58789062 C86.13928711 6.27753906 86.69874023 6.9671875 87.27514648 7.67773438 C87.85006836 8.36996094 88.42499023 9.0621875 89.01733398 9.77539062 C92.82529652 14.84191705 91.70363063 21.74665708 91.75024414 27.85302734 C91.76673521 29.43390698 91.7939344 31.01471418 91.83227539 32.59521484 C92.21396357 48.42365767 92.21396357 48.42365767 87.78588867 54.23193359 C84.6632271 57.34909365 81.99275152 59.61523438 77.40014648 59.61523438 C77.17941227 67.11934175 77.04658252 74.62115927 77.01411533 82.12835503 C76.99651028 85.61841807 76.95303324 89.10337741 76.84130859 92.59179688 C76.21183268 113.08655637 79.68319551 126.72362808 91.45811462 143.73861694 C94.6755512 148.50441627 97.48533304 153.50073091 100.33764648 158.49023438 C101.49093683 160.4677645 102.64570032 162.44443685 103.80249023 164.41992188 C108.39209527 172.30193196 112.90377648 180.22837612 117.41479492 188.15551758 C120.68950046 193.90494623 123.98898018 199.63788039 127.34936523 205.33789062 C127.97907227 206.40716797 128.6087793 207.47644531 129.25756836 208.578125 C130.43241659 210.56796933 131.61172467 212.555191 132.79663086 214.5390625 C141.05368602 228.52713297 146.05430397 241.55677954 142.71655273 257.97851562 C138.83460217 270.3975359 132.07010489 280.60863867 120.62670898 287.21679688 C110.41551289 292.107874 100.8886172 292.9138112 89.71728516 292.90576172 C88.35613134 292.91175734 86.99498091 292.91856523 85.63383484 292.92611694 C81.96010705 292.94367835 78.28647261 292.9484681 74.6127069 292.94974852 C72.31113911 292.9511762 70.00959459 292.9554574 67.70803261 292.96074295 C59.6606459 292.97921009 51.61332516 292.98741767 43.56591797 292.98583984 C36.09331842 292.9846391 28.62100799 293.0057366 21.14848155 293.03732717 C14.70823708 293.06357255 8.26808659 293.07420371 1.82778913 293.07292902 C-2.00782796 293.07242185 -5.84318772 293.07796872 -9.67875099 293.09928513 C-13.28966069 293.11880794 -16.90007122 293.11869765 -20.51099968 293.10425186 C-22.44809293 293.10120133 -24.385187 293.11774103 -26.32220459 293.13513184 C-39.91782865 293.03859678 -52.28999248 288.72068501 -62.34985352 279.36523438 C-72.45288659 268.59501987 -76.11322707 256.14508765 -75.89282227 241.71679688 C-75.57291279 234.70477097 -72.73601479 228.7745421 -69.59985352 222.61523438 C-70.42485352 222.40898437 -71.24985352 222.20273437 -72.09985352 221.99023438 C-76.87810714 220.11306331 -81.94421469 217.33147008 -84.68910217 212.82821655 C-85.74455676 210.26362832 -85.87272801 208.34419803 -85.90625 205.57470703 C-85.9222374 204.57331696 -85.93822479 203.57192688 -85.95469666 202.54019165 C-85.96005936 201.46409637 -85.96542206 200.3880011 -85.97094727 199.27929688 C-85.97997574 198.16718842 -85.98900421 197.05507996 -85.99830627 195.90927124 C-86.01280936 193.55738009 -86.02169565 191.20544859 -86.02539062 188.85351562 C-86.03728684 185.2603745 -86.08647484 181.66895062 -86.13696289 178.07617188 C-86.14642725 175.78972191 -86.15366222 173.50326142 -86.15844727 171.21679688 C-86.17797958 170.14475006 -86.1975119 169.07270325 -86.21763611 167.96817017 C-86.16740505 159.63980255 -86.16740505 159.63980255 -83.21850586 155.99511719 C-80.80786244 153.80427698 -78.68198464 152.20915166 -75.78735352 150.74023438 C-74.9971582 150.3303125 -74.20696289 149.92039062 -73.39282227 149.49804688 C-72.50530273 149.06105469 -72.50530273 149.06105469 -71.59985352 148.61523438 C-72.28489168 144.7103981 -74.11689134 141.71643605 -76.09204102 138.31054688 C-76.43864777 137.70894745 -76.78525452 137.10734802 -77.1423645 136.48751831 C-78.24862181 134.56907131 -79.3613727 132.65449629 -80.47485352 130.74023438 C-81.58009171 128.83250344 -82.6839034 126.92396799 -83.78591919 125.01437378 C-84.78996887 123.27571729 -85.79807289 121.539404 -86.80639648 119.80322266 C-88.50543838 116.78306351 -90.07886862 113.72823433 -91.59985352 110.61523438 C-80.50551389 103.06806456 -80.50551389 103.06806456 -75.59985352 100.61523438 C-71.6306098 101.93831561 -71.23008091 103.5111559 -69.20141602 107.11914062 C-68.23461914 108.81973633 -68.23461914 108.81973633 -67.24829102 110.5546875 C-66.57342853 111.76215563 -65.89895194 112.96983952 -65.22485352 114.17773438 C-63.90755321 116.51408436 -62.58554312 118.84773141 -61.26391602 121.18164062 C-60.63904297 122.29039551 -60.01416992 123.39915039 -59.37036133 124.54150391 C-57.84823536 127.18402541 -56.2692123 129.76376323 -54.62329102 132.33007812 C-52.59985352 135.61523438 -52.59985352 135.61523438 -52.59985352 137.61523438 C-51.82641602 137.10992187 -51.05297852 136.60460937 -50.25610352 136.08398438 C-39.66478321 129.47751725 -39.66478321 129.47751725 -34.88891602 129.90429688 C-29.14812316 131.68727349 -23.84734112 134.72616817 -18.59985352 137.61523438 C-18.35364258 136.90189941 -18.10743164 136.18856445 -17.85375977 135.45361328 C-16.59985352 132.61523438 -16.59985352 132.61523438 -14.68969727 130.13232422 C-6.00612557 118.30667065 -7.46429859 104.35127838 -7.5869751 90.30377197 C-7.60861001 86.8371623 -7.58453797 83.37087332 -7.56469727 79.90429688 C-7.53253026 73.14092318 -7.54983301 66.37848782 -7.59985352 59.61523438 C-8.37071289 59.49792969 -9.14157227 59.380625 -9.93579102 59.25976562 C-14.80688082 58.08127616 -17.92747875 53.68742449 -20.59985352 49.61523438 C-22.43418797 45.76119848 -22.8564838 42.6851789 -22.86547852 38.43164062 C-22.86805664 37.25666016 -22.87063477 36.08167969 -22.87329102 34.87109375 C-22.86555664 33.65228516 -22.85782227 32.43347656 -22.84985352 31.17773438 C-22.86145508 29.35532227 -22.86145508 29.35532227 -22.87329102 27.49609375 C-22.87071289 26.31982422 -22.86813477 25.14355469 -22.86547852 23.93164062 C-22.86322266 22.86373291 -22.8609668 21.7958252 -22.85864258 20.69555664 C-22.36370777 14.80443162 -20.3010664 10.19305031 -16.59985352 5.61523438 C-11.25148869 1.2877909 -6.79164515 -0.11930185 0 0 Z " fill="#072B76" transform="translate(285.599853515625,225.384765625)"/>
<path d="M0 0 C14.52 0 29.04 0 44 0 C43.95617187 4.41117187 43.91234375 8.82234375 43.8671875 13.3671875 C43.86025129 16.93798479 43.86342106 20.50846346 43.87329102 24.07923889 C43.88091525 27.8197035 43.87174247 31.55820623 43.81835938 35.29833984 C43.59411537 51.94602096 43.44764382 66.31483991 53.7520752 80.27740479 C55.55353021 82.76407528 57.01812289 85.41401035 58.51171875 88.09375 C59.56856251 89.89686019 60.62716491 91.69894071 61.6875 93.5 C62.89116363 95.55437201 64.09426893 97.60907123 65.296875 99.6640625 C65.90595703 100.7046582 66.51503906 101.74525391 67.14257812 102.81738281 C70.25997232 108.15891155 73.34932251 113.51654244 76.4375 118.875 C77.36429565 120.48242065 77.36429565 120.48242065 78.30981445 122.12231445 C81.53126821 127.71126711 84.74909158 133.30229637 87.96484375 138.89453125 C89.26808762 141.15893564 90.57147083 143.42325983 91.875 145.6875 C92.50043701 146.77514648 93.12587402 147.86279297 93.77026367 148.98339844 C97.82210424 156.01213454 101.96727494 162.97087035 106.265625 169.8515625 C110.62805835 177.77075458 112.1771491 184.14072666 109.75 193.0625 C107.46523949 200.07618343 104.04365418 204.6997076 98 209 C92.79998598 211.52415236 87.98569589 212.43075938 82.20703125 212.328125 C81.42765198 212.32684097 80.64827271 212.32555695 79.84527588 212.32423401 C77.16734498 212.31521714 74.49023382 212.28323248 71.8125 212.25 C69.8553942 212.23438851 67.89828089 212.21969984 65.94116211 212.20581055 C62.53765598 212.17971682 59.13426764 212.15029376 55.73085022 212.11430359 C46.7544867 212.02037332 37.77892347 211.9807225 28.80209064 211.96344948 C20.41771461 211.94646962 12.03354757 211.90981808 3.64929485 211.86148643 C-1.67528777 211.83133021 -6.99963805 211.80913716 -12.3243103 211.80554199 C-17.42866138 211.80134 -22.53234218 211.77277742 -27.63648224 211.72681999 C-29.54511862 211.71375485 -31.45383499 211.70923584 -33.36251068 211.71377754 C-36.00925312 211.71869027 -38.65403651 211.69267221 -41.30053711 211.65942383 C-42.06764606 211.66805073 -42.834755 211.67667763 -43.62510967 211.68556595 C-51.04323363 211.52924093 -56.18806942 208.05939892 -61.25 202.8125 C-65.31722798 197.70068341 -68.10726457 191.50927293 -68.5 184.9375 C-67.26845901 175.23911468 -61.13209959 166.7094121 -56.3125 158.375 C-55.58239675 157.10550476 -54.85249924 155.83589118 -54.12280273 154.56616211 C-49.99364224 147.39285703 -45.80627937 140.25939363 -41.51171875 133.18359375 C-37.89971496 127.20356704 -34.39993587 121.15658497 -30.875 115.125 C-24.66263373 104.49517622 -18.38365146 93.90995964 -11.99755859 83.38330078 C-11.42730957 82.4395459 -10.85706055 81.49579102 -10.26953125 80.5234375 C-9.78073486 79.71825684 -9.29193848 78.91307617 -8.78833008 78.08349609 C-8.19818115 77.06594238 -7.60803223 76.04838867 -7 75 C-6.50139465 74.25314438 -6.00278931 73.50628876 -5.48907471 72.73680115 C-0.59444349 64.87300092 -0.12957521 58.01518669 -0.1953125 48.92578125 C-0.18403609 47.50658432 -0.17014409 46.08740603 -0.15377808 44.66825867 C-0.118036 40.97084647 -0.11732825 37.27426602 -0.12445068 33.57672119 C-0.12553187 29.12017955 -0.08215622 24.66386589 -0.04641724 20.20749664 C0.00272103 13.47123748 -0.00386635 6.73712078 0 0 Z " fill="#D0DAFC" transform="translate(298,286)"/>
<path d="M0 0 C13.2 0 26.4 0 40 0 C40.495 8.91 40.495 8.91 41 18 C44.67094681 21.67094681 46.85351186 23.75690866 51.10546875 26.19921875 C52.0807251 26.76439209 53.05598145 27.32956543 54.06079102 27.91186523 C55.09260498 28.49782471 56.12441895 29.08378418 57.1875 29.6875 C58.250896 30.29601807 59.31429199 30.90453613 60.40991211 31.53149414 C62.57255589 32.76703562 64.73701858 33.999399 66.90332031 35.22851562 C69.73280506 36.84714865 72.5373423 38.50059525 75.3359375 40.171875 C76.91112269 41.09432339 78.48662205 42.0162356 80.0625 42.9375 C80.76850342 43.36828857 81.47450684 43.79907715 82.2019043 44.24291992 C85.64783624 46.22005303 87.54140976 47.00298432 91.6015625 46.9765625 C95.28892339 45.91697604 98.06919906 44.47744151 101.3125 42.4375 C106.8249497 39 106.8249497 39 109 39 C110.41699219 41.04443359 110.41699219 41.04443359 112.046875 43.8984375 C112.645 44.93613281 113.243125 45.97382813 113.859375 47.04296875 C114.48328125 48.14253906 115.1071875 49.24210937 115.75 50.375 C116.97338216 52.50814305 118.19733511 54.64095884 119.421875 56.7734375 C120.01548828 57.81725586 120.60910156 58.86107422 121.22070312 59.93652344 C123.39320522 63.67699494 125.69443364 67.32926827 128.04003906 70.96337891 C129 73 129 73 128 76 C125.78515625 77.60546875 125.78515625 77.60546875 123.0625 79.1875 C122.16660156 79.71730469 121.27070313 80.24710937 120.34765625 80.79296875 C118 82 118 82 116 82 C114.99815401 85.00553798 114.87331262 87.00229164 114.87060547 90.14233398 C114.86587723 91.71427773 114.86587723 91.71427773 114.86105347 93.31797791 C114.8630777 94.44925613 114.86510193 95.58053436 114.8671875 96.74609375 C114.86623077 97.90875259 114.86527405 99.07141144 114.86428833 100.26930237 C114.86360739 102.72974705 114.86545567 105.19019353 114.86962891 107.65063477 C114.87497351 111.41882362 114.86968345 115.18689301 114.86328125 118.95507812 C114.86394214 121.34375026 114.86522353 123.73242233 114.8671875 126.12109375 C114.86415115 127.81497475 114.86415115 127.81497475 114.86105347 129.54307556 C114.86420563 130.59419022 114.86735779 131.64530487 114.87060547 132.72827148 C114.87140106 133.65187973 114.87219666 134.57548798 114.87301636 135.52708435 C114.99274189 137.85865342 115.21125505 139.80318072 116 142 C118.18137797 143.02450239 118.18137797 143.02450239 121 144 C123.71891412 145.58603324 126.36124389 147.28448114 129 149 C128.41019386 153.06203717 127.0999026 155.93545782 125.015625 159.45703125 C124.40976562 160.48763672 123.80390625 161.51824219 123.1796875 162.58007812 C122.54289063 163.64677734 121.90609375 164.71347656 121.25 165.8125 C120.62867188 166.86759766 120.00734375 167.92269531 119.3671875 169.00976562 C115.9913985 174.72510459 112.54655362 180.38913559 109 186 C106.64309641 185.11616115 104.36790657 184.20552563 102.16796875 182.9765625 C97.55025982 180.40813268 93.31391509 178.57143036 88 180 C84.79029656 181.74134684 81.75931933 183.61869858 78.734375 185.6640625 C76 187 76 187 74.09277344 186.40625 C68.68513358 182.77255826 65.70205178 177.1500396 64 171 C62.75774057 161.33335169 63.20216378 151.48419166 63.45068359 141.76141357 C63.53347929 138.17465909 63.56925974 134.5874407 63.609375 131 C63.69440401 123.99888024 63.83038672 116.99962487 64 110 C66.9826906 108.47551369 69.818202 107.06059933 73 106 C74.12516085 104.16715557 74.12516085 104.16715557 75 102 C75.34240723 101.4519873 75.68481445 100.90397461 76.03759766 100.33935547 C77.38791039 97.05708845 77.32489224 93.87776137 77.3359375 90.3828125 C77.3425943 89.6480368 77.3492511 88.91326111 77.35610962 88.15621948 C77.36621448 86.60465998 77.37092731 85.05305721 77.37060547 83.50146484 C77.37497307 81.13956291 77.41129571 78.77953963 77.44921875 76.41796875 C77.45508874 74.90625635 77.45905691 73.39453513 77.4609375 71.8828125 C77.48249405 70.83252365 77.48249405 70.83252365 77.50448608 69.76101685 C77.45083064 63.94190355 75.37171697 60.49623211 71.4375 56.35546875 C65.95147379 51.89807246 61.76378092 51.84537354 54.87011719 51.80712891 C54.05332993 51.79895142 53.23654266 51.79077393 52.39500427 51.78234863 C49.69563519 51.75756476 46.99631845 51.74099646 44.296875 51.7265625 C42.91070354 51.71857698 42.91070354 51.71857698 41.49652863 51.71043015 C36.60495331 51.68372882 31.71340326 51.66434441 26.82177734 51.64990234 C22.78085685 51.6365657 18.74044163 51.60871382 14.69970703 51.56787109 C9.81264311 51.51847974 4.92603728 51.49377352 0.03873444 51.48667526 C-1.81915032 51.47997557 -3.67702537 51.46478697 -5.53476715 51.44078445 C-8.14122836 51.40902976 -10.74593381 51.40911113 -13.35253906 51.41650391 C-14.49218864 51.3918959 -14.49218864 51.3918959 -15.65486145 51.36679077 C-21.4890496 51.43415648 -25.47941119 53.33256472 -30 57 C-35.99253662 64.37542968 -35.23980064 72.21538667 -35.3125 81.3125 C-35.34150391 82.51068359 -35.37050781 83.70886719 -35.40039062 84.94335938 C-35.45234514 92.19700914 -34.79997757 96.80233104 -31 103 C-30.67 103.99 -30.34 104.98 -30 106 C-27.17661966 107.7141952 -24.06251301 108.77803703 -21 110 C-20.74192502 117.36362243 -20.54811231 124.72622839 -20.43006611 132.093503 C-20.37332325 135.51703484 -20.29678488 138.93741418 -20.17016602 142.35913086 C-19.51530721 160.51830755 -20.66977591 173.36256281 -32 188 C-35.68519082 187.33664282 -38.15662333 186.46256894 -41.3125 184.4375 C-45.5349942 182.05450823 -49.18063749 180.6953107 -54 182 C-56.76137417 183.41118827 -59.32108161 184.96394312 -61.8984375 186.6875 C-64 188 -64 188 -66 188 C-67.40112305 185.98730469 -67.40112305 185.98730469 -69.01171875 183.171875 C-69.60533203 182.14320313 -70.19894531 181.11453125 -70.81054688 180.0546875 C-71.42994141 178.96414063 -72.04933594 177.87359375 -72.6875 176.75 C-73.28755859 175.70585937 -73.88761719 174.66171875 -74.50585938 173.5859375 C-75.72171683 171.47026717 -76.93377504 169.35240906 -78.14208984 167.23242188 C-80.62231736 162.91728229 -83.17027514 158.64296875 -85.72583008 154.37207031 C-87 152 -87 152 -87 150 C-84.00960363 148.14357657 -80.92129556 146.51568343 -77.8203125 144.8515625 C-74.85241352 142.90310805 -74.2223508 142.20298269 -73 139 C-72.68612729 136.53280796 -72.68612729 136.53280796 -72.70947266 133.85180664 C-72.69671295 132.82716812 -72.68395325 131.8025296 -72.67080688 130.74684143 C-72.66858124 129.64573532 -72.66635559 128.54462921 -72.6640625 127.41015625 C-72.6574057 126.27348007 -72.6507489 125.13680389 -72.64389038 123.96568298 C-72.63376818 121.56250629 -72.62907323 119.15930151 -72.62939453 116.75610352 C-72.62502055 113.07977024 -72.58869209 109.40463658 -72.55078125 105.72851562 C-72.54491323 103.39323327 -72.54094374 101.05794522 -72.5390625 98.72265625 C-72.52469147 97.62357437 -72.51032043 96.52449249 -72.49551392 95.3921051 C-72.50019416 89.32519354 -72.50019416 89.32519354 -74.88354492 83.85742188 C-77.72719796 81.36180389 -80.6779085 79.91503182 -84.07421875 78.30859375 C-86 77 -86 77 -86.79248047 75.2487793 C-87.08978116 72.02708911 -85.90122043 70.46426277 -84.24609375 67.7109375 C-83.63830078 66.68613281 -83.03050781 65.66132813 -82.40429688 64.60546875 C-81.75525391 63.53941406 -81.10621094 62.47335938 -80.4375 61.375 C-79.81552734 60.33214844 -79.19355469 59.28929687 -78.55273438 58.21484375 C-76.71351368 55.1360229 -74.85808788 52.06746182 -73 49 C-71.84409366 47.07609634 -70.68906437 45.15166531 -69.53515625 43.2265625 C-69.04539307 42.41010254 -68.55562988 41.59364258 -68.05102539 40.75244141 C-67.70418701 40.17413574 -67.35734863 39.59583008 -67 39 C-66.23816406 39.433125 -65.47632813 39.86625 -64.69140625 40.3125 C-63.65886719 40.869375 -62.62632812 41.42625 -61.5625 42 C-60.55316406 42.556875 -59.54382813 43.11375 -58.50390625 43.6875 C-52.96509073 45.76224026 -48.76205583 46.15273184 -43.21313477 43.83691406 C-40.07482104 42.19755434 -37.03778005 40.44379676 -34 38.625 C-32.90800293 37.98957275 -31.81600586 37.35414551 -30.69091797 36.69946289 C-28.4895438 35.41605561 -26.29267722 34.12488269 -24.10058594 32.82568359 C-21.31746255 31.18692795 -18.51595163 29.59251743 -15.6953125 28.01953125 C-14.1716176 27.15930993 -12.64816088 26.29866653 -11.125 25.4375 C-10.43664062 25.0573877 -9.74828125 24.67727539 -9.0390625 24.28564453 C-4.77057704 21.81792637 -3.68900006 20.48166677 -1 16 C-0.67 10.72 -0.34 5.44 0 0 Z " fill="#FDFDFE" transform="translate(299,175)"/>
<path d="M0 0 C4.15771306 1.77255431 7.99023958 4.01122269 11.875 6.3125 C12.96820557 6.94389893 14.06141113 7.57529785 15.18774414 8.22583008 C18.47042207 10.13102637 21.73670204 12.06183536 25 14 C26.42723389 14.83869629 26.42723389 14.83869629 27.88330078 15.69433594 C30.40850236 17.18050553 32.92551739 18.67911351 35.4375 20.1875 C36.18177246 20.63198486 36.92604492 21.07646973 37.69287109 21.53442383 C40.8727844 23.48358591 42.90329423 24.85494134 45 28 C45.26069641 30.33920288 45.26069641 30.33920288 45.2746582 33.12646484 C45.28419022 34.17119965 45.29372223 35.21593445 45.30354309 36.29232788 C45.30217598 37.98453964 45.30217598 37.98453964 45.30078125 39.7109375 C45.30506638 40.87122467 45.3093515 42.03151184 45.31376648 43.22695923 C45.31951361 45.68320055 45.32000724 48.1394589 45.31567383 50.59570312 C45.31251834 54.35316062 45.33595387 58.10982765 45.36132812 61.8671875 C45.36360151 64.25260317 45.36430443 66.63802096 45.36328125 69.0234375 C45.372491 70.14753021 45.38170074 71.27162292 45.39118958 72.42977905 C45.38496078 73.48081818 45.37873199 74.5318573 45.37231445 75.61474609 C45.37294388 76.53613373 45.3735733 77.45752136 45.3742218 78.40682983 C44.91870851 81.56330943 43.85547551 83.42481165 42 86 C39.3112793 87.90942383 39.3112793 87.90942383 36.07421875 89.70703125 C35.49017776 90.03611984 34.90613678 90.36520844 34.30439758 90.70426941 C32.43845977 91.7522432 30.56349163 92.78265296 28.6875 93.8125 C27.47005098 94.49167085 26.2532479 95.17200094 25.03710938 95.85351562 C23.21038874 96.87707244 21.38218172 97.89702316 19.54684448 98.90505981 C16.40014424 100.63567993 13.29894864 102.41124739 10.24072266 104.29443359 C9.6266304 104.66581955 9.01253815 105.03720551 8.37983704 105.41984558 C6.68833088 106.4471591 5.00746749 107.49193814 3.32739258 108.5378418 C-1.84195341 110.80941074 -6.06464352 110.74573369 -11.40625 108.6875 C-12.4271875 108.130625 -13.448125 107.57375 -14.5 107 C-15.5415625 106.443125 -16.583125 105.88625 -17.65625 105.3125 C-18.4296875 104.879375 -19.203125 104.44625 -20 104 C-20.49028687 104.90540527 -20.49028687 104.90540527 -20.99047852 105.82910156 C-22.51252385 108.63713737 -24.03703063 111.44382278 -25.5625 114.25 C-26.38089355 115.75578613 -26.38089355 115.75578613 -27.21582031 117.29199219 C-30.65196313 123.59192682 -34.16702239 129.81804641 -37.890625 135.953125 C-39.15883311 137.9050287 -39.15883311 137.9050287 -39 140 C-36.31619765 141.74636153 -33.58664054 143.33459089 -30.796875 144.90234375 C-27.34142446 146.92186262 -25.41455542 148.25104848 -24 152 C-23.73930359 154.42149353 -23.73930359 154.42149353 -23.7253418 157.14819336 C-23.71580978 158.17283188 -23.70627777 159.1974704 -23.69645691 160.25315857 C-23.69736832 161.35426468 -23.69827972 162.45537079 -23.69921875 163.58984375 C-23.69493362 164.72651993 -23.6906485 165.86319611 -23.68623352 167.03431702 C-23.68049209 169.4375034 -23.67998857 171.84070716 -23.68432617 174.24389648 C-23.68748501 177.92006081 -23.66402744 181.59541961 -23.63867188 185.27148438 C-23.63639876 187.60676982 -23.63569544 189.94205743 -23.63671875 192.27734375 C-23.627509 193.37642563 -23.61829926 194.47550751 -23.60881042 195.6078949 C-23.61503922 196.63568558 -23.62126801 197.66347626 -23.62768555 198.72241211 C-23.62705612 199.62301865 -23.6264267 200.52362518 -23.6257782 201.45152283 C-24.23787654 205.61995624 -26.11577482 208.2405708 -29.26953125 210.94921875 C-30.52830078 211.80966797 -30.52830078 211.80966797 -31.8125 212.6875 C-32.64394531 213.26886719 -33.47539062 213.85023438 -34.33203125 214.44921875 C-37.15321735 216.08905899 -39.87839654 217.07491167 -43 218 C-43.55945313 216.9790625 -44.11890625 215.958125 -44.6953125 214.90625 C-50.1446822 205.00716089 -55.7562453 195.21285882 -61.46655273 185.4621582 C-65.90247963 177.88712523 -70.3050765 170.2936083 -74.6875 162.6875 C-75.30915039 161.60871582 -75.93080078 160.52993164 -76.57128906 159.41845703 C-77.79168773 157.30063063 -79.0120658 155.18279236 -80.23242188 153.06494141 C-84.47764727 145.70381439 -88.73928526 138.35216889 -93 131 C-80.77721745 120.98202761 -80.77721745 120.98202761 -73.1875 121.42578125 C-69.21717244 122.46799223 -65.81630628 124.58406085 -62.3203125 126.6875 C-60.15416751 128.16411564 -60.15416751 128.16411564 -58 128 C-57.53102295 127.17798096 -57.0620459 126.35596191 -56.57885742 125.5090332 C-54.82929662 122.44302692 -53.07924185 119.37730368 -51.32885742 116.31176758 C-50.57312701 114.98798654 -49.81759043 113.66409483 -49.06225586 112.34008789 C-47.97301041 110.43085675 -46.88305557 108.5220321 -45.79296875 106.61328125 C-45.45847214 106.02662186 -45.12397552 105.43996246 -44.77934265 104.83552551 C-43.3194819 102.28068308 -41.84461422 99.75616554 -40.26293945 97.27416992 C-38.75725026 94.99643483 -38.75725026 94.99643483 -39 92 C-41.62637428 90.21019345 -41.62637428 90.21019345 -44.875 88.5625 C-51.44183812 85.09278766 -51.44183812 85.09278766 -53 81 C-53.27415466 78.5405426 -53.27415466 78.5405426 -53.30639648 75.76000977 C-53.32238388 74.71535049 -53.33837128 73.67069122 -53.35484314 72.59437561 C-53.36020584 71.47139572 -53.36556854 70.34841583 -53.37109375 69.19140625 C-53.38463646 67.45309792 -53.38463646 67.45309792 -53.39845276 65.67967224 C-53.41295662 63.22942693 -53.42184232 60.77914287 -53.42553711 58.32885742 C-53.43744472 54.57990426 -53.48664216 50.83259075 -53.53710938 47.08398438 C-53.54657226 44.70313303 -53.55380794 42.32227159 -53.55859375 39.94140625 C-53.57812607 38.82045059 -53.59765839 37.69949493 -53.61778259 36.54457092 C-53.57283697 28.79586355 -53.57283697 28.79586355 -50.8203125 24.97167969 C-48.03076696 23.02150917 -45.27917653 21.18880015 -42.31640625 19.51171875 C-41.23020996 18.89111572 -40.14401367 18.2705127 -39.02490234 17.63110352 C-37.88230957 16.98971436 -36.7397168 16.3483252 -35.5625 15.6875 C-34.38201389 15.0199984 -33.20183906 14.35194599 -32.02197266 13.68334961 C-29.71570857 12.37663029 -27.4079296 11.0727432 -25.09912109 9.77050781 C-22.52442563 8.29960097 -19.98258443 6.79519308 -17.45703125 5.2421875 C-16.83304443 4.86360596 -16.20905762 4.48502441 -15.56616211 4.0949707 C-14.01445527 3.14763878 -12.47160331 2.18584239 -10.9296875 1.22265625 C-7.08295412 -0.38271382 -4.04301658 -0.86880029 0 0 Z " fill="#062B75" transform="translate(466,232)"/>
<path d="M0 0 C3.83563638 1.72395862 7.39610148 3.84003383 11 6 C13.01367713 7.15867513 15.02800876 8.31621349 17.04296875 9.47265625 C19.09209122 10.66765119 21.14026391 11.86427622 23.1875 13.0625 C24.72954102 13.9606543 24.72954102 13.9606543 26.30273438 14.87695312 C29.20817771 16.57411868 32.10539603 18.28442905 35 20 C36.19423584 20.69585205 36.19423584 20.69585205 37.41259766 21.40576172 C38.11819824 21.82744629 38.82379883 22.24913086 39.55078125 22.68359375 C40.15188721 23.0386499 40.75299316 23.39370605 41.37231445 23.75952148 C44.16584867 25.88850714 45.82742197 27.90301731 46.38095093 31.42149353 C46.3845311 32.77120995 46.3845311 32.77120995 46.38818359 34.14819336 C46.39764008 35.17283188 46.40709656 36.1974704 46.4168396 37.25315857 C46.41076691 38.35426468 46.40469421 39.45537079 46.3984375 40.58984375 C46.40130768 41.72651993 46.40417786 42.86319611 46.40713501 44.03431702 C46.40917596 46.43751524 46.403644 48.84073006 46.39111328 51.24389648 C46.37507574 54.92013792 46.3909542 58.5952774 46.41015625 62.27148438 C46.40817353 64.60677326 46.40432927 66.94206146 46.3984375 69.27734375 C46.40451019 70.37642563 46.41058289 71.47550751 46.4168396 72.6078949 C46.40265488 74.14958092 46.40265488 74.14958092 46.38818359 75.72241211 C46.38579681 76.62301865 46.38341003 77.52362518 46.38095093 78.45152283 C45.91472942 81.57044129 44.82263681 83.44596857 43 86 C40.55834961 87.78588867 40.55834961 87.78588867 37.65234375 89.41796875 C36.58024658 90.02833984 35.50814941 90.63871094 34.40356445 91.26757812 C32.68786255 92.21793945 32.68786255 92.21793945 30.9375 93.1875 C29.75889123 93.84877683 28.58075255 94.51089221 27.40307617 95.17382812 C25.62855084 96.17141841 23.85309721 97.16711477 22.07423401 98.1569519 C18.52485538 100.13234174 15.01268629 102.15873084 11.5234375 104.23828125 C10.717854 104.71048096 9.91227051 105.18268066 9.08227539 105.66918945 C7.61270408 106.53082581 6.15034551 107.40493441 4.69702148 108.29370117 C3.71197632 108.85988159 3.71197632 108.85988159 2.70703125 109.4375 C2.1550708 109.76621094 1.60311035 110.09492188 1.03442383 110.43359375 C-3.19924481 111.61229425 -7.05075012 110.43462669 -10.94335938 108.65234375 C-11.90048828 108.08644531 -12.85761719 107.52054687 -13.84375 106.9375 C-14.91874756 106.30948486 -15.99374512 105.68146973 -17.10131836 105.03442383 C-18.78366577 104.02738403 -18.78366577 104.02738403 -20.5 103 C-21.66428533 102.31253141 -22.82908334 101.62593038 -23.99438477 100.94018555 C-26.28805522 99.58797078 -28.57680059 98.22836573 -30.86376953 96.86474609 C-33.54306422 95.27168578 -36.23284104 93.70079074 -38.93359375 92.14453125 C-40.26852071 91.36768828 -41.60318547 90.59039443 -42.9375 89.8125 C-44.06027344 89.15894531 -45.18304688 88.50539063 -46.33984375 87.83203125 C-49.00289324 85.99800745 -50.32630593 84.73053176 -52 82 C-52.39440918 79.50257874 -52.39440918 79.50257874 -52.41992188 76.66821289 C-52.43583374 75.60353287 -52.45174561 74.53885284 -52.46813965 73.44190979 C-52.46834106 72.29705612 -52.46854248 71.15220245 -52.46875 69.97265625 C-52.47636353 68.79158798 -52.48397705 67.61051971 -52.49182129 66.3936615 C-52.50262514 63.89633295 -52.50547426 61.3989592 -52.50097656 58.90161133 C-52.50000448 55.08012569 -52.54162237 51.26064872 -52.5859375 47.43945312 C-52.59114458 45.01302502 -52.59383269 42.58658994 -52.59375 40.16015625 C-52.61014526 39.01732681 -52.62654053 37.87449738 -52.64343262 36.69703674 C-52.57454663 28.7921093 -52.57454663 28.7921093 -49.77050781 24.92626953 C-47.24105281 23.1675984 -44.77895775 21.5008955 -42.078125 20.01953125 C-41.14291016 19.49963623 -40.20769531 18.97974121 -39.24414062 18.4440918 C-38.25607422 17.9056665 -37.26800781 17.36724121 -36.25 16.8125 C-34.18132018 15.67102969 -32.1136198 14.52778264 -30.046875 13.3828125 C-29.02529297 12.81723633 -28.00371094 12.25166016 -26.95117188 11.66894531 C-24.24895524 10.14078905 -21.5950361 8.55932727 -18.953125 6.9296875 C-18.19483398 6.46457764 -17.43654297 5.99946777 -16.65527344 5.52026367 C-15.2602791 4.65763634 -13.87232134 3.78347959 -12.49316406 2.89575195 C-8.0777036 0.18688398 -5.13350978 -0.87895178 0 0 Z " fill="#062B76" transform="translate(181,233)"/>
<path d="M0 0 C14.52 0 29.04 0 44 0 C43.95617187 4.41117187 43.91234375 8.82234375 43.8671875 13.3671875 C43.86025129 16.93798479 43.86342106 20.50846346 43.87329102 24.07923889 C43.88091525 27.8197035 43.87174247 31.55820623 43.81835938 35.29833984 C43.59465954 51.9132895 43.43414909 66.27234773 53.70678711 80.20947266 C55.69678327 82.96473636 57.31962024 85.88017181 59.00390625 88.83203125 C60.80258773 91.86231262 62.60799495 94.88816578 64.42382812 97.90820312 C65.00712891 98.89369141 65.59042969 99.87917969 66.19140625 100.89453125 C66.96786499 102.19161011 66.96786499 102.19161011 67.76000977 103.51489258 C69.01868835 106.03745397 69.58684176 108.22291758 70 111 C69.28457031 111.09796875 68.56914062 111.1959375 67.83203125 111.296875 C55.60295484 113.13202748 44.69961495 116.90176592 33.53076172 122.09423828 C24.32520342 126.34821227 16.16499774 128.63969396 6 129 C5.24154785 129.02723145 4.4830957 129.05446289 3.70166016 129.08251953 C-5.68293381 129.37458264 -14.42504882 129.4671728 -23.5 126.734375 C-26.98488024 125.71069143 -30.39160306 125.34696124 -34 125 C-34 121.02575027 -33.78490708 120.12896499 -31.90234375 116.89453125 C-31.2055249 115.68482666 -31.2055249 115.68482666 -30.49462891 114.45068359 C-29.98077637 113.58008301 -29.46692383 112.70948242 -28.9375 111.8125 C-28.40817871 110.90064941 -27.87885742 109.98879883 -27.33349609 109.04931641 C-22.39494468 100.57853712 -17.34164647 92.17396868 -12.25366211 83.79223633 C-11.65690674 82.80634521 -11.06015137 81.8204541 -10.4453125 80.8046875 C-9.92469238 79.94858887 -9.40407227 79.09249023 -8.86767578 78.21044922 C-8.25134277 77.15100098 -7.63500977 76.09155273 -7 75 C-6.49771881 74.24726303 -5.99543762 73.49452606 -5.47793579 72.71897888 C-0.58880807 64.86401767 -0.12964905 58.0049772 -0.1953125 48.92578125 C-0.18403609 47.50658432 -0.17014409 46.08740603 -0.15377808 44.66825867 C-0.118036 40.97084647 -0.11732825 37.27426602 -0.12445068 33.57672119 C-0.12553187 29.12017955 -0.08215622 24.66386589 -0.04641724 20.20749664 C0.00272103 13.47123748 -0.00386635 6.73712078 0 0 Z " fill="#FEFEFE" transform="translate(298,286)"/>
<path d="M0 0 C4.32122364 0.50802768 8.62586128 1.0834989 12.9296875 1.71875 C14.86318553 1.98141388 16.8068889 2.16563148 18.75 2.34375 C22.24067863 2.81975163 24.88540491 3.3444945 28 5 C30.04340477 8.44330639 30.66871652 12.00912126 31.48193359 15.89990234 C37.28186087 39.41120036 52.04884482 59.81239494 68.359375 77.1484375 C70.34603332 79.29379337 72.26821442 81.45567735 74.16503906 83.67822266 C74.96461029 84.61415756 74.96461029 84.61415756 75.78033447 85.56900024 C76.1828241 86.04123016 76.58531372 86.51346008 77 87 C65.27334595 87.11601432 53.54682916 87.20477677 41.81971741 87.25906086 C36.37390831 87.28511885 30.92849277 87.32044795 25.48291016 87.37719727 C20.22442778 87.43165184 14.96632321 87.4614491 9.70758057 87.47438622 C7.70454972 87.48360192 5.7015388 87.50159826 3.69866943 87.52865028 C0.88590332 87.56511933 -1.92531554 87.5699379 -4.73828125 87.56762695 C-5.56043625 87.58560333 -6.38259125 87.60357971 -7.22966003 87.62210083 C-14.13139259 87.56102355 -18.76127537 85.02877438 -23.76216125 80.35207081 C-28.78424865 75.15536574 -32.06649329 68.19151234 -32.5 60.9375 C-31.26845161 51.2390564 -25.13198448 42.709475 -20.3125 34.375 C-19.59264188 33.12308791 -18.87299787 31.87105268 -18.15356445 30.61889648 C-13.20332701 22.01777216 -8.16865359 13.47183911 -3 5 C-1.99867071 3.33413163 -0.99819273 1.6677497 0 0 Z " fill="#92B1F3" transform="translate(262,410)"/>
<path d="M0 0 C0.96421875 0.55429687 1.9284375 1.10859375 2.921875 1.6796875 C4.19788361 2.41151597 5.47392712 3.1432836 6.75 3.875 C7.38421875 4.23980469 8.0184375 4.60460937 8.671875 4.98046875 C11.74250368 6.7396831 14.80851875 8.46873374 18 10 C16.69527734 14.27753859 15.04865843 17.98982169 12.84765625 21.87890625 C11.93016602 23.50795898 11.93016602 23.50795898 10.99414062 25.16992188 C10.35669922 26.28947266 9.71925781 27.40902344 9.0625 28.5625 C8.42892578 29.68591797 7.79535156 30.80933594 7.14257812 31.96679688 C2.40679467 40.34778905 2.40679467 40.34778905 0.29467773 43.73413086 C-1.16536957 45.85447591 -1.16536957 45.85447591 -1 48 C1.68380235 49.74636153 4.41335946 51.33459089 7.203125 52.90234375 C10.65857554 54.92186262 12.58544458 56.25104848 14 60 C14.26069641 62.42149353 14.26069641 62.42149353 14.2746582 65.14819336 C14.28419022 66.17283188 14.29372223 67.1974704 14.30354309 68.25315857 C14.30263168 69.35426468 14.30172028 70.45537079 14.30078125 71.58984375 C14.30506638 72.72651993 14.3093515 73.86319611 14.31376648 75.03431702 C14.31950791 77.4375034 14.32001143 79.84070716 14.31567383 82.24389648 C14.31251499 85.92006081 14.33597256 89.59541961 14.36132812 93.27148438 C14.36360124 95.60676982 14.36430456 97.94205743 14.36328125 100.27734375 C14.372491 101.37642563 14.38170074 102.47550751 14.39118958 103.6078949 C14.38496078 104.63568558 14.37873199 105.66347626 14.37231445 106.72241211 C14.37294388 107.62301865 14.3735733 108.52362518 14.3742218 109.45152283 C13.76212346 113.61995624 11.88422518 116.2405708 8.73046875 118.94921875 C7.89128906 119.52285156 7.05210937 120.09648437 6.1875 120.6875 C5.35605469 121.26886719 4.52460938 121.85023438 3.66796875 122.44921875 C0.84678265 124.08905899 -1.87839654 125.07491167 -5 126 C-5.55945313 124.9790625 -6.11890625 123.958125 -6.6953125 122.90625 C-12.1446822 113.00716089 -17.7562453 103.21285882 -23.46655273 93.4621582 C-27.90247963 85.88712523 -32.3050765 78.2936083 -36.6875 70.6875 C-37.61997559 69.06932373 -37.61997559 69.06932373 -38.57128906 67.41845703 C-39.79168773 65.30063063 -41.0120658 63.18279236 -42.23242188 61.06494141 C-46.47764727 53.70381439 -50.73928526 46.35216889 -55 39 C-42.77721745 28.98202761 -42.77721745 28.98202761 -35.1875 29.42578125 C-31.21717244 30.46799223 -27.81630628 32.58406085 -24.3203125 34.6875 C-22.15416751 36.16411564 -22.15416751 36.16411564 -20 36 C-17.79174238 32.16048606 -15.58646298 28.31928119 -13.38378906 24.4765625 C-12.63588437 23.17272176 -11.88720322 21.86932605 -11.13769531 20.56640625 C-7.24414825 13.79682575 -3.38041146 7.04548914 0 0 Z " fill="#6864F6" transform="translate(428,324)"/>
<path d="M0 0 C1.21719727 0.69802734 1.21719727 0.69802734 2.45898438 1.41015625 C3.40362549 1.90918457 4.3482666 2.40821289 5.3215332 2.92236328 C6.853302 3.78643799 6.853302 3.78643799 8.41601562 4.66796875 C9.52783203 5.29316406 10.63964844 5.91835938 11.78515625 6.5625 C12.94730338 7.21998535 14.10941228 7.87753828 15.27148438 8.53515625 C16.45296626 9.20080266 17.63460538 9.86617009 18.81640625 10.53125 C21.69882343 12.15481559 24.57960768 13.7812064 27.45898438 15.41015625 C30.72350706 40.2581962 30.72350706 40.2581962 27.45898438 49.41015625 C22.09984015 56.26759243 14.00834382 59.52848425 6.00268555 62.4375 C3.27535047 63.37301051 3.27535047 63.37301051 0.45898438 65.41015625 C-4.17502673 65.11539934 -7.38669369 63.63497028 -11.34179688 61.28515625 C-12.40076172 60.66125 -13.45972656 60.03734375 -14.55078125 59.39453125 C-15.64068359 58.7396875 -16.73058594 58.08484375 -17.85351562 57.41015625 C-18.96275391 56.7553125 -20.07199219 56.10046875 -21.21484375 55.42578125 C-29.34435209 50.60681978 -29.34435209 50.60681978 -30.54101562 49.41015625 C-30.62949305 46.88921549 -30.65628864 44.39584732 -30.63867188 41.875 C-30.63725693 41.12174942 -30.63584198 40.36849884 -30.63438416 39.59242249 C-30.62876938 37.17746065 -30.61621445 34.76259024 -30.60351562 32.34765625 C-30.59850252 30.71419404 -30.59393929 29.08073039 -30.58984375 27.44726562 C-30.57879516 23.4348604 -30.56152069 19.42252384 -30.54101562 15.41015625 C-26.65844182 13.07140308 -22.76267735 10.75714402 -18.8527832 8.46435547 C-17.5249964 7.68120609 -16.20104066 6.89152301 -14.88110352 6.09521484 C-12.98189428 4.95097521 -11.07010064 3.83101819 -9.15429688 2.71484375 C-8.27430779 2.17438919 -8.27430779 2.17438919 -7.37654114 1.62301636 C-4.64099963 0.05805834 -3.12899145 -0.72633007 0 0 Z " fill="#CFDAFB" transform="translate(179.541015625,255.58984375)"/>
<path d="M0 0 C1.06911621 0.39316406 2.13823242 0.78632813 3.23974609 1.19140625 C4.19155762 1.51238281 5.14336914 1.83335937 6.12402344 2.1640625 C14.03106445 5.08358533 22.00437226 8.34897862 27.23974609 15.19140625 C30.90212874 25.60800197 28.64541847 38.49207691 27.23974609 49.19140625 C23.61384798 51.31565824 19.98423335 53.43336819 16.35107422 55.54516602 C15.11631438 56.26409295 13.8825775 56.98477988 12.64990234 57.70727539 C10.87523831 58.74702815 9.09696023 59.78034173 7.31787109 60.8125 C6.24956055 61.43568115 5.18125 62.0588623 4.08056641 62.70092773 C-0.22263017 64.95866365 -0.22263017 64.95866365 -2.76025391 65.19140625 C-4.70800781 64.48217773 -4.70800781 64.48217773 -6.73681641 63.3125 C-7.86796875 62.67151367 -7.86796875 62.67151367 -9.02197266 62.01757812 C-9.80185547 61.55931641 -10.58173828 61.10105469 -11.38525391 60.62890625 C-12.52027344 59.98211914 -12.52027344 59.98211914 -13.67822266 59.32226562 C-15.23740757 58.42922994 -16.78280815 57.51175166 -18.31445312 56.57226562 C-20.75708731 55.11356022 -20.75708731 55.11356022 -23.55371094 54.12304688 C-26.66362645 52.78400185 -28.5296973 51.75837007 -30.76025391 49.19140625 C-32.01623626 43.35983739 -31.70518246 37.74051732 -31.38525391 31.81640625 C-31.33505611 30.20586667 -31.28943508 28.59517752 -31.24853516 26.984375 C-31.13867655 23.0496793 -30.96640257 19.12218552 -30.76025391 15.19140625 C-27.0945012 13.07274864 -23.42831338 10.95484657 -19.76171875 8.83764648 C-18.51420265 8.11715156 -17.26680611 7.39644957 -16.01953125 6.67553711 C-14.22768983 5.63991834 -12.43542107 4.60504268 -10.64306641 3.5703125 C-9.02489014 2.63554077 -9.02489014 2.63554077 -7.37402344 1.68188477 C-2.92300272 -0.85626968 -2.92300272 -0.85626968 0 0 Z " fill="#FAC950" transform="translate(463.76025390625,254.80859375)"/>
<path d="M0 0 C4.93274056 1.76665557 9.38079822 4.323247 13.9375 6.875 C14.72318359 7.30941406 15.50886719 7.74382812 16.31835938 8.19140625 C18.56016534 9.44081443 20.79396226 10.68827606 23 12 C24.0516333 12.56871826 25.1032666 13.13743652 26.18676758 13.72338867 C29 16 29 16 30.03027344 19.18530273 C30.38959613 23.27779623 30.67633029 27.3301288 30.75 31.4375 C30.76913452 32.16487366 30.78826904 32.89224731 30.8079834 33.6416626 C30.87303102 39.84063195 30.81012464 45.66025555 26.87890625 50.74169922 C21.66966964 55.03396485 15.78282351 57.77252755 9.47363281 60.08740234 C7.00950852 60.93699603 7.00950852 60.93699603 4.84472656 62.12426758 C1.89688462 63.52367322 0.11031975 62.8775545 -3 62 C-5.9413832 60.56636634 -8.71328432 58.8991997 -11.5 57.1875 C-12.23347656 56.74857422 -12.96695313 56.30964844 -13.72265625 55.85742188 C-15.82809351 54.59001644 -17.92243594 53.31265564 -20 52 C-21.59352295 51.16674194 -21.59352295 51.16674194 -23.21923828 50.31665039 C-26 48 -26 48 -26.68115234 44.51660156 C-26.68020828 43.1409102 -26.64663512 41.76497699 -26.5859375 40.390625 C-26.57744781 39.66381531 -26.56895813 38.93700562 -26.56021118 38.18817139 C-26.52670601 35.87391879 -26.45144932 33.56319295 -26.375 31.25 C-26.34489589 29.67843587 -26.31752083 28.10681692 -26.29296875 26.53515625 C-26.2269265 22.68875187 -26.12343921 18.84497309 -26 15 C-24.8718689 14.37170288 -24.8718689 14.37170288 -23.72094727 13.73071289 C-20.9378088 12.17964254 -18.15551068 10.62707856 -15.3737793 9.07348633 C-14.16838663 8.40068258 -12.96265835 7.72847976 -11.7565918 7.05688477 C-10.02565339 6.09288084 -8.29600957 5.12655352 -6.56640625 4.16015625 C-5.52427979 3.57886963 -4.48215332 2.99758301 -3.40844727 2.39868164 C-1.12440597 1.20986135 -1.12440597 1.20986135 0 0 Z " fill="#FB7CA0" transform="translate(247,133)"/>
<path d="M0 0 C2.27734375 1.0859375 2.27734375 1.0859375 4.59765625 2.7734375 C7.22618886 4.56784909 9.18879356 5.42873755 12.14453125 6.4609375 C17.59745847 8.62146102 22.15588384 10.8156964 25.52734375 15.7734375 C28.68014935 25.9045097 28.67311299 37.63916293 25.52734375 47.7734375 C21.92604143 53.04231118 16.66433682 55.07277072 10.76171875 56.93896484 C7.65829723 58.09800055 5.12700018 59.8689839 2.44921875 61.79614258 C-1.01102752 63.55571649 -3.70715939 63.00586128 -7.33520508 61.90429688 C-15.55016578 58.48739172 -23.72399098 54.75800227 -29.47265625 47.7734375 C-31.50828465 42.24919568 -31.89808261 37.18308493 -31.84765625 31.3359375 C-31.85930817 30.63130371 -31.87096008 29.92666992 -31.88296509 29.20068359 C-31.88986582 24.39721926 -31.37945437 20.251792 -29.47265625 15.7734375 C-25.54436404 12.1633694 -21.26760166 10.03919277 -16.47265625 7.7734375 C-15.12460879 6.9031207 -13.79231529 6.00680565 -12.4921875 5.06640625 C-4.19026533 -0.38394216 -4.19026533 -0.38394216 0 0 Z " fill="#67CBD1" transform="translate(391.47265625,134.2265625)"/>
<path d="M0 0 C24.09 0 48.18 0 73 0 C73 6.6 73 13.2 73 20 C48.91 20 24.82 20 0 20 C0 13.4 0 6.8 0 0 Z " fill="#8FAEF0" transform="translate(284,246)"/>
<path d="M0 0 C3.96924372 1.32308124 4.36977261 2.89592152 6.3984375 6.50390625 C7.36523438 8.20450195 7.36523438 8.20450195 8.3515625 9.93945312 C9.02642498 11.14692126 9.70090157 12.35460515 10.375 13.5625 C11.69230031 15.89884999 13.0143104 18.23249703 14.3359375 20.56640625 C14.96081055 21.6764502 15.58568359 22.78649414 16.22949219 23.93017578 C17.7449197 26.5577248 19.32483108 29.10956201 20.9765625 31.65234375 C23 35 23 35 23 38 C21.43945312 39.25854492 21.43945312 39.25854492 19.28125 40.48046875 C18.13076172 41.14272461 18.13076172 41.14272461 16.95703125 41.81835938 C16.14621094 42.27017578 15.33539063 42.72199219 14.5 43.1875 C13.68917969 43.65091797 12.87835938 44.11433594 12.04296875 44.59179688 C10.03412709 45.73801829 8.01991195 46.87343772 6 48 C3.42257839 44.73956166 1.37079865 41.30307583 -0.6875 37.6953125 C-1.03127686 37.09371307 -1.37505371 36.49211365 -1.72924805 35.87228394 C-2.45327346 34.603904 -3.17598692 33.33477436 -3.89746094 32.06494141 C-4.99348319 30.13646647 -6.09405036 28.21064274 -7.1953125 26.28515625 C-10.25793477 20.91418239 -13.27694396 15.55398699 -16 10 C-4.90566038 2.45283019 -4.90566038 2.45283019 0 0 Z " fill="#6965F6" transform="translate(210,326)"/>
<path d="M0 0 C10.36128429 5.32723558 10.36128429 5.32723558 12.3583374 10.85778809 C14.55106442 20.93293609 13.05750407 31.90236743 11.6875 42 C9.3775 42.99 7.0675 43.98 4.6875 45 C-1.76428941 34.40437837 -7.98758961 23.68049614 -14.17016602 12.92626953 C-14.79205811 11.84458496 -15.4139502 10.76290039 -16.0546875 9.6484375 C-16.88782471 8.19703369 -16.88782471 8.19703369 -17.73779297 6.71630859 C-18.79678369 4.88959064 -19.9123634 3.09464908 -21.07861328 1.33447266 C-21.4857959 0.56409668 -21.89297852 -0.2062793 -22.3125 -1 C-21.3125 -4 -21.3125 -4 -19.5625 -5.25 C-13.36424005 -7.31608665 -5.49587433 -2.64899212 0 0 Z " fill="#AFD753" transform="translate(407.3125,385)"/>
<path d="M0 0 C2.41004579 0.95328866 3.64255231 1.91865707 5.28125 3.90234375 C4.60255859 5.02189453 4.60255859 5.02189453 3.91015625 6.1640625 C-2.44563452 16.68853262 -8.65634683 27.29729484 -14.86499023 37.90893555 C-15.2280275 38.52930191 -15.59106476 39.14966827 -15.96510315 39.78883362 C-16.96390038 41.49590004 -17.96219088 43.20326292 -18.96044922 44.91064453 C-20.53156292 47.58385022 -22.11838939 50.24657025 -23.71875 52.90234375 C-28.59375 51.02734375 -28.59375 51.02734375 -29.71875 49.90234375 C-30.20391062 45.18813803 -30.3751433 40.47582827 -30.50830078 35.73999023 C-30.56486032 34.15131371 -30.64655102 32.56331569 -30.75439453 30.97729492 C-31.10693695 25.69302669 -31.1448979 21.03549039 -29.71875 15.90234375 C-25.88688422 12.03955341 -21.66230201 10.06229904 -16.71875 7.90234375 C-15.31649429 7.07476593 -13.92685214 6.22461593 -12.5625 5.3359375 C-11.4590625 4.67722656 -10.355625 4.01851563 -9.21875 3.33984375 C-7.53265625 2.31697266 -7.53265625 2.31697266 -5.8125 1.2734375 C-2.71875 -0.09765625 -2.71875 -0.09765625 0 0 Z " fill="#F98D02" transform="translate(250.71875,378.09765625)"/>
<path d="M0 0 C0.33 0 0.66 0 1 0 C1.0501123 0.7748877 1.10022461 1.54977539 1.15185547 2.34814453 C2.35246888 22.25225226 2.35246888 22.25225226 5 42 C-0.70870833 41.33182164 -6.34509513 40.46165521 -12 39.4375 C-13.16208984 39.22963867 -13.16208984 39.22963867 -14.34765625 39.01757812 C-16.23210355 38.68023879 -18.1161007 38.34038635 -20 38 C-20 33.89391195 -19.63082267 32.86442846 -17.65625 29.47265625 C-17.15520752 28.60342529 -16.65416504 27.73419434 -16.13793945 26.83862305 C-15.59741943 25.92250244 -15.05689941 25.00638184 -14.5 24.0625 C-13.95625732 23.12768799 -13.41251465 22.19287598 -12.85229492 21.22973633 C-11.24650287 18.47942317 -9.62686923 15.7378894 -8 13 C-7.55865723 12.2565332 -7.11731445 11.51306641 -6.66259766 10.74707031 C-2.10430542 3.10745375 -2.10430542 3.10745375 0 0 Z " fill="#D0DAFB" transform="translate(284,373)"/>
<path d="M0 0 C4.14819779 0.26784721 7.25939872 0.55971304 10.234375 3.65234375 C12.27694339 7.39705246 12.66538702 9.11091411 11.8046875 13.1875 C10.55890607 16.59590201 9.11595683 18.08545586 6.109375 20.08984375 C1.36424092 21.13858715 -1.83784193 20.75589018 -5.953125 18.15234375 C-8.21064415 14.58400703 -8.60926169 12.40216687 -8.39453125 8.24609375 C-7.59563439 4.82755835 -5.58457548 3.19243924 -2.890625 1.08984375 C-1.890625 0.08984375 -1.890625 0.08984375 0 0 Z " fill="#6966F6" transform="translate(274.890625,435.91015625)"/>
<path d="M0 0 C3.62291705 2.0127317 4.78765675 3.53107532 6.5 7.3125 C7.11631768 11.85784292 6.24692351 14.04851382 4 18 C-0.02048854 20.6803257 -3.27573564 20.80395376 -8 20 C-11.37882179 17.6066679 -12.67073608 15.96721278 -14 12.0625 C-14 7.42447916 -12.38233986 4.48107842 -9.25 1.125 C-5.95966302 -0.52016849 -3.62891507 -0.44565624 0 0 Z " fill="#6A66F7" transform="translate(336,461)"/>
<path d="M0 0 C3.4185354 0.79889686 5.05365451 2.80995577 7.15625 5.50390625 C7.48625 5.83390625 7.81625 6.16390625 8.15625 6.50390625 C8.60855285 10.39371076 8.28352631 12.26753597 6.40625 15.75390625 C3.14967105 19.73416941 3.14967105 19.73416941 0.15625 20.50390625 C-4.04016311 20.42760783 -6.29863384 19.87504917 -9.78125 17.50390625 C-12.21315247 13.96659357 -12.59095913 11.88091308 -12.31640625 7.6640625 C-11.84375 5.50390625 -11.84375 5.50390625 -9.90625 2.44140625 C-6.33791328 0.1838871 -4.15607312 -0.21473044 0 0 Z " fill="#6A66F7" transform="translate(367.84375,435.49609375)"/>
<path d="M0 0 C14.52 0 29.04 0 44 0 C44 0.33 44 0.66 44 1 C33.44 1 22.88 1 12 1 C11.34 2.65 10.68 4.3 10 6 C9.01132853 7.57007196 8.02235621 9.13995978 7.02929688 10.70726013 C0.88135883 20.82422352 0.868963 30.36776523 1 41.9375 C0.99188676 43.79624319 0.98019005 45.65497433 0.96484375 47.51367188 C0.93536353 52.0100455 0.95396701 56.50379159 1 61 C0.67 61 0.34 61 0 61 C0 40.87 0 20.74 0 0 Z " fill="#C6D1EE" transform="translate(298,286)"/>
</svg>
