<?xml version="1.0" encoding="UTF-8"?>
<svg version="1.1" xmlns="http://www.w3.org/2000/svg" width="640" height="640">
<path d="M0 0 C211.2 0 422.4 0 640 0 C640 211.2 640 422.4 640 640 C428.8 640 217.6 640 0 640 C0 428.8 0 217.6 0 0 Z " fill="#FEFEFE" transform="translate(0,0)"/>
<path d="M0 0 C4.15771306 1.77255431 7.99023958 4.01122269 11.875 6.3125 C12.96820557 6.94389893 14.06141113 7.57529785 15.18774414 8.22583008 C18.47042207 10.13102637 21.73670204 12.06183536 25 14 C25.95148926 14.55913086 26.90297852 15.11826172 27.88330078 15.69433594 C30.40850236 17.18050553 32.92551739 18.67911351 35.4375 20.1875 C36.18177246 20.63198486 36.92604492 21.07646973 37.69287109 21.53442383 C40.8727844 23.48358591 42.90329423 24.85494134 45 28 C45.13957214 30.36129761 45.13957214 30.36129761 44.98901367 33.18310547 C44.94044724 34.24206024 44.8918808 35.30101501 44.84184265 36.39205933 C44.78446426 37.53885162 44.72708588 38.68564392 44.66796875 39.8671875 C44.58902232 42.30455887 44.51429047 44.7420697 44.44335938 47.1796875 C44.32665967 51.01878976 44.1888524 54.85036958 43.97827148 58.68554688 C42.53496887 73.94601483 42.53496887 73.94601483 48.15307617 87.45288086 C51.18777148 90.32951537 54.46837031 92.61544688 58.04594421 94.76438904 C61.26807543 96.801844 64.06834108 99.31473018 66.9375 101.8125 C68.62370611 103.20989611 70.3106703 104.60638165 72 106 C73.5008869 105.18913949 75.00061605 104.37613629 76.5 103.5625 C77.99466797 102.758125 77.99466797 102.758125 79.51953125 101.9375 C82.05825675 100.52424765 84.5356279 99.07753486 87.01171875 97.5625 C87.70265625 97.1492749 88.39359375 96.7360498 89.10546875 96.31030273 C90.46859035 95.49335685 91.82205555 94.66002436 93.1640625 93.80883789 C96.99440748 91.54251833 100.08593198 90.27832932 104.64916992 91.16967773 C110.31553463 93.17105964 115.41977938 96.4364704 120.5625 99.5 C121.81705572 100.23575678 123.07218567 100.97053531 124.32788086 101.7043457 C126.78424112 103.14266092 129.23574183 104.58875969 131.68359375 106.04150391 C134.46291536 107.6828259 137.25450003 109.29524622 140.0625 110.88671875 C141.39613447 111.65312206 142.72950199 112.41999024 144.0625 113.1875 C145.71958984 114.13689453 145.71958984 114.13689453 147.41015625 115.10546875 C150.47881705 117.35026587 151.45837145 118.50206956 153 122 C153.48045959 125.86952365 153.49197059 129.72141079 153.50390625 133.6171875 C153.51389145 134.74770538 153.52387665 135.87822327 153.53416443 137.04299927 C153.54933548 139.43178655 153.55639054 141.82063725 153.5559082 144.20947266 C153.56246505 147.85556268 153.61695014 151.49892337 153.67382812 155.14453125 C153.68263157 157.46874071 153.68858486 159.79296308 153.69140625 162.1171875 C153.7129628 163.20280975 153.73451935 164.28843201 153.75672913 165.4069519 C153.71170786 170.40379718 153.56389372 174.018229 150.34985352 177.99658203 C147.43759782 180.8518509 144.28378729 182.96165083 140.7109375 184.9375 C139.83412827 185.43044556 139.83412827 185.43044556 138.93960571 185.93334961 C137.0916751 186.96866549 135.23401764 187.98475389 133.375 189 C132.15422518 189.67838856 130.93416754 190.35806935 129.71484375 191.0390625 C127.90796406 192.04763243 126.10032409 193.05455745 124.28875732 194.0546875 C119.27226901 196.82591283 114.33545475 199.71751535 109.41259766 202.65234375 C107 204 107 204 104 205 C103.11644223 209.62449797 102.24395199 214.25089675 101.3815918 218.87939453 C101.08676544 220.45320645 100.7889382 222.02645932 100.48803711 223.59912109 C100.05570373 225.86154666 99.63425105 228.12577225 99.21484375 230.390625 C99.07843979 231.09181458 98.94203583 231.79300415 98.80149841 232.51544189 C97.79008146 237.3783516 97.79008146 237.3783516 99 242 C101.18258392 243.657057 101.18258392 243.657057 103.953125 245.0234375 C104.96503906 245.57 105.97695313 246.1165625 107.01953125 246.6796875 C108.08558594 247.23914063 109.15164063 247.79859375 110.25 248.375 C112.34482172 249.47510269 114.43360075 250.58680273 116.515625 251.7109375 C117.44665039 252.19868652 118.37767578 252.68643555 119.33691406 253.18896484 C122.61435469 255.41779273 125.2301814 257.43197807 127 261 C127.72100167 264.92115237 127.70108195 268.7717908 127.6640625 272.75 C127.66884613 273.88147461 127.67362976 275.01294922 127.67855835 276.17871094 C127.68195373 278.56576939 127.67277685 280.95287457 127.65185547 283.33984375 C127.62508778 286.9880366 127.65161879 290.63315255 127.68359375 294.28125 C127.68028959 296.60417344 127.67388324 298.92709497 127.6640625 301.25 C127.67418365 302.33764648 127.68430481 303.42529297 127.69473267 304.54589844 C127.56453267 312.98252545 127.56453267 312.98252545 124.84545898 316.49438477 C121.9460896 319.04747168 119.18471385 320.96540723 115.80859375 322.83984375 C115.22263931 323.16988907 114.63668488 323.49993439 114.03297424 323.83998108 C112.17394803 324.88394763 110.30626891 325.91109559 108.4375 326.9375 C106.60327033 327.96013222 104.77096547 328.98614804 102.93887329 330.01260376 C101.72925815 330.68784783 100.51748198 331.35923546 99.30355835 332.02670288 C96.38210344 333.63717552 93.53370332 335.29182395 90.70361328 337.06298828 C80.72543042 343.29837216 80.72543042 343.29837216 74 342 C70.76059784 340.66277593 67.81072195 338.99447534 64.8125 337.1875 C64.03197266 336.73568359 63.25144531 336.28386719 62.44726562 335.81835938 C60.28703984 334.56326636 58.14117713 333.28725214 56 332 C54.99324219 331.39800781 53.98648437 330.79601562 52.94921875 330.17578125 C51.98435547 329.59376953 51.98435547 329.59376953 51 329 C55.70244284 339.53288088 60.41793443 350.05367332 65.43554688 360.44116211 C68.65490612 367.17644475 70.37137929 372.69721274 70.3125 380.1875 C70.30686035 380.93781494 70.3012207 381.68812988 70.29541016 382.46118164 C69.98092145 396.95724289 64.18684679 407.75628272 53.78515625 417.734375 C35.63985906 432.49492531 13.21025322 427.84591737 -8.25 425.75 C-10.65137863 425.52099395 -13.05282834 425.29273218 -15.4543457 425.06518555 C-20.31121443 424.60408154 -25.16772589 424.13948209 -30.02392578 423.67138672 C-39.18284795 422.78879824 -48.34319079 421.92164189 -57.50448608 421.0640564 C-59.28810259 420.8968265 -61.07165225 420.72888215 -62.85513306 420.56021118 C-74.73787692 419.43706832 -86.61721205 418.41188827 -98.5378418 417.77075195 C-113.54120705 416.83343692 -126.80575938 412.41591298 -137.25390625 401.1640625 C-147.61743298 388.31978105 -149.55031806 375.07315051 -148 359 C-145.92364683 348.86047534 -138.71169517 340.45456561 -132.68212891 332.28369141 C-130.38908423 329.17060869 -128.13023378 326.03333795 -125.86987305 322.89648438 C-124.22897783 320.62004289 -122.58345628 318.34700229 -120.9375 316.07421875 C-117.57289861 311.4187751 -114.26527391 306.72574187 -111 302 C-114.18313092 298.71076471 -117.49467207 295.58661041 -120.875 292.5 C-121.67679687 291.7678125 -122.47859375 291.035625 -123.3046875 290.28125 C-126.41840226 287.64587403 -129.655191 285.33396992 -133 283 C-134.05127075 283.62044189 -134.05127075 283.62044189 -135.1237793 284.25341797 C-138.30957459 286.13088872 -141.49849201 288.00299186 -144.6875 289.875 C-145.79029297 290.52597656 -146.89308594 291.17695313 -148.02929688 291.84765625 C-149.09599609 292.47285156 -150.16269531 293.09804688 -151.26171875 293.7421875 C-152.24100342 294.3182373 -153.22028809 294.89428711 -154.22924805 295.48779297 C-159.7238318 298.48659919 -162.71560046 299.4441336 -169 298 C-171.94335938 296.65234375 -171.94335938 296.65234375 -174.84375 294.9375 C-175.91858643 294.309646 -176.99342285 293.68179199 -178.10083008 293.03491211 C-179.78341919 292.02763062 -179.78341919 292.02763062 -181.5 291 C-182.66577113 290.31110279 -183.83203395 289.62303696 -184.9987793 288.93579102 C-187.29371334 287.58179496 -189.58399891 286.22079117 -191.87255859 284.85595703 C-194.52271217 283.28324294 -197.18509425 281.73906671 -199.86328125 280.21484375 C-201.17982517 279.45596796 -202.49624546 278.69687762 -203.8125 277.9375 C-204.91207031 277.30714844 -206.01164063 276.67679687 -207.14453125 276.02734375 C-211.30700412 273.07204495 -214.52052459 270.63979998 -215.45637512 265.48738098 C-215.62851203 262.38549399 -215.64044077 259.32119985 -215.59375 256.21484375 C-215.59379028 255.08099747 -215.59383057 253.94715118 -215.59387207 252.77894592 C-215.58852207 250.38764894 -215.5709619 247.99635209 -215.54199219 245.60522461 C-215.50010369 241.9465562 -215.50092892 238.28972741 -215.5078125 234.63085938 C-215.4973208 232.30467472 -215.48438281 229.97849954 -215.46875 227.65234375 C-215.46854858 226.55953598 -215.46834717 225.46672821 -215.46813965 224.34080505 C-215.31648893 214.6067963 -215.31648893 214.6067963 -212 211 C-209.21948242 208.9987793 -209.21948242 208.9987793 -205.85546875 207.07421875 C-205.24923172 206.72293411 -204.64299469 206.37164948 -204.01838684 206.00971985 C-202.08113558 204.89076392 -200.13473394 203.78897299 -198.1875 202.6875 C-196.92188454 201.96009939 -195.65690445 201.23159214 -194.39257812 200.50195312 C-191.86981417 199.04816867 -189.34049887 197.60682617 -186.80615234 196.17333984 C-184.21842781 194.70592744 -181.65532168 193.20411375 -179.10400391 191.67431641 C-178.47544998 191.30200394 -177.84689606 190.92969147 -177.19929504 190.5460968 C-175.46778369 189.5190188 -173.74211554 188.48210829 -172.0168457 187.44458008 C-168.99459654 185.99741262 -167.29088384 185.6617777 -164 186 C-163.85957275 184.98848877 -163.71914551 183.97697754 -163.57446289 182.93481445 C-163.04253377 179.29133735 -162.44408038 175.6696295 -161.80859375 172.04296875 C-161.58623047 170.76615234 -161.36386719 169.48933594 -161.13476562 168.17382812 C-160.78418755 166.16794835 -160.43305711 164.1621673 -160.08129883 162.15649414 C-159.73896603 160.20223583 -159.39874654 158.24760769 -159.05859375 156.29296875 C-158.85548584 155.1330542 -158.65237793 153.97313965 -158.44311523 152.77807617 C-157.94749559 150.13969331 -157.94749559 150.13969331 -158 148 C-158.6705542 147.62713867 -159.3411084 147.25427734 -160.03198242 146.87011719 C-163.08649 145.16815032 -166.13700843 143.45915364 -169.1875 141.75 C-170.77014648 140.87021484 -170.77014648 140.87021484 -172.38476562 139.97265625 C-173.40634766 139.39902344 -174.42792969 138.82539063 -175.48046875 138.234375 C-176.41785889 137.71069336 -177.35524902 137.18701172 -178.32104492 136.64746094 C-185.33201737 132.33596526 -185.33201737 132.33596526 -187 129 C-187.11568576 127.33708882 -187.16954651 125.66969684 -187.19287109 124.00292969 C-187.20893402 122.96134705 -187.22499695 121.9197644 -187.24154663 120.84661865 C-187.28597039 116.07597461 -187.32706834 111.3054705 -187.35009766 106.53466797 C-187.36665272 104.01862333 -187.3939364 101.50262563 -187.43212891 98.98681641 C-187.48690326 95.36075415 -187.50877458 91.73579531 -187.5234375 88.109375 C-187.54610687 86.98730652 -187.56877625 85.86523804 -187.59213257 84.70916748 C-187.56855853 75.98943906 -187.56855853 75.98943906 -184.80664062 72.45141602 C-182.13606575 70.11884448 -179.68780153 68.34446698 -176.5703125 66.66796875 C-175.53438965 66.10094238 -174.4984668 65.53391602 -173.43115234 64.94970703 C-172.34012207 64.36817871 -171.2490918 63.78665039 -170.125 63.1875 C-167.86856521 61.96189073 -165.61335205 60.73402962 -163.359375 59.50390625 C-162.26818359 58.90980957 -161.17699219 58.31571289 -160.05273438 57.70361328 C-154.92676321 54.84300653 -149.99899656 51.68580536 -145.0859375 48.4765625 C-141.17940723 46.60736194 -139.30500872 46.31652439 -135 47 C-131.16268341 48.71350884 -127.60946876 50.85521029 -124 53 C-122.26450046 53.97835261 -120.52890616 54.95655225 -118.7901001 55.92901611 C-116.34763879 57.29775785 -113.91480389 58.68314973 -111.48193359 60.06884766 C-110.23432104 60.77844165 -108.98560359 61.48609619 -107.73583984 62.19189453 C-105.8969733 63.23046496 -104.06145156 64.27473449 -102.2265625 65.3203125 C-101.14971191 65.93148926 -100.07286133 66.54266602 -98.96337891 67.17236328 C-96 69 -96 69 -93.36157227 71.25878906 C-91.21857901 73.17064087 -91.21857901 73.17064087 -88.9934082 73.11572266 C-88.33171631 72.9254248 -87.67002441 72.73512695 -86.98828125 72.5390625 C-86.21049316 72.32024414 -85.43270508 72.10142578 -84.63134766 71.87597656 C-78.29630212 69.76703767 -72.04825004 67.45004843 -65.79882812 65.1015625 C-64.18717773 64.50601563 -64.18717773 64.50601563 -62.54296875 63.8984375 C-61.57383545 63.53411621 -60.60470215 63.16979492 -59.60620117 62.79443359 C-57 62 -57 62 -53 62 C-53.02618408 60.99622314 -53.05236816 59.99244629 -53.0793457 58.95825195 C-53.17008168 55.22182648 -53.22733262 51.48549765 -53.2746582 47.74829102 C-53.29974959 46.13321539 -53.33383126 44.51825274 -53.37719727 42.90356445 C-53.43809286 40.57735294 -53.46626124 38.25264641 -53.48828125 35.92578125 C-53.52699089 34.84892815 -53.52699089 34.84892815 -53.56648254 33.75032043 C-53.56857365 29.98328812 -53.17002437 28.21708162 -50.82470703 25.22265625 C-48.06902965 23.05431684 -45.36676639 21.23838055 -42.31640625 19.51171875 C-41.23020996 18.89111572 -40.14401367 18.2705127 -39.02490234 17.63110352 C-37.88230957 16.98971436 -36.7397168 16.3483252 -35.5625 15.6875 C-34.38201389 15.0199984 -33.20183906 14.35194599 -32.02197266 13.68334961 C-29.71570857 12.37663029 -27.4079296 11.0727432 -25.09912109 9.77050781 C-22.52442563 8.29960097 -19.98258443 6.79519308 -17.45703125 5.2421875 C-16.52105103 4.67431519 -16.52105103 4.67431519 -15.56616211 4.0949707 C-14.01445527 3.14763878 -12.47160331 2.18584239 -10.9296875 1.22265625 C-7.08295412 -0.38271382 -4.04301658 -0.86880029 0 0 Z " fill="#062B76" transform="translate(350,93)"/>
<path d="M0 0 C0.81918411 0.04633575 1.63836823 0.09267151 2.4823761 0.14041138 C14.60220922 0.88227003 26.69064051 2.05513926 38.77612305 3.21630859 C42.30614736 3.55490969 45.83733109 3.87933212 49.36896038 4.20069695 C52.12621143 4.45404411 54.88244469 4.71737294 57.63849831 4.98340225 C59.56537128 5.16693944 61.49321543 5.3401893 63.42106628 5.51315308 C72.8977953 6.45065787 80.31699191 7.92844268 87.29296875 14.7421875 C90.57285891 19.00915361 90.72770936 22.85557223 90.60546875 28.0546875 C90.59418945 28.84141846 90.58291016 29.62814941 90.57128906 30.4387207 C90.08139083 51.88036308 90.08139083 51.88036308 84.29296875 60.7421875 C77.6443201 66.7421875 77.6443201 66.7421875 72.29296875 66.7421875 C72.25558594 67.69351563 72.21820313 68.64484375 72.1796875 69.625 C71.66074389 81.10926436 70.57131786 92.50421281 69.30932617 103.93017578 C68.92564955 107.53185417 68.59142241 111.13250115 68.29296875 114.7421875 C68.20039795 115.77883545 68.10782715 116.8154834 68.01245117 117.88354492 C67.60101647 126.1236864 70.05723738 132.02650043 73.73046875 139.3046875 C74.75058565 141.40987256 75.77014382 143.51532848 76.7890625 145.62109375 C77.24466553 146.5344751 77.70026855 147.44785645 78.16967773 148.38891602 C79.29296875 150.7421875 79.29296875 150.7421875 80.29296875 153.7421875 C80.29707764 153.13221924 80.30118652 152.52225098 80.30541992 151.89379883 C80.3384445 149.11312958 80.40909443 146.33462593 80.48046875 143.5546875 C80.48916992 142.11512695 80.48916992 142.11512695 80.49804688 140.64648438 C80.63075995 136.38491999 80.73231541 133.57960403 83.13671875 129.98828125 C87.79049122 126.6765001 92.63989071 123.80976053 97.60546875 120.9921875 C98.67474609 120.38036621 99.74402344 119.76854492 100.84570312 119.13818359 C102.99401619 117.90997635 105.1438968 116.68450652 107.29541016 115.46191406 C109.93359772 113.94836192 112.54552663 112.40125822 115.1484375 110.828125 C116.21421021 110.19535645 116.21421021 110.19535645 117.30151367 109.54980469 C118.58144298 108.78972408 119.85447227 108.01783423 121.1184082 107.23144531 C125.49054109 104.68251949 129.36605951 103.52028177 134.29296875 104.7421875 C139.05914947 106.90807805 143.50180469 109.54915017 147.98046875 112.2421875 C149.18203054 112.94687016 150.38450044 113.65000676 151.58789062 114.3515625 C154.57700702 116.1008637 157.54664157 117.88047751 160.51068115 119.671875 C162.31441568 120.75506697 164.12810194 121.81990135 165.94384766 122.8828125 C167.10865744 123.57508523 168.27321822 124.26777714 169.4375 124.9609375 C170.4685083 125.56873047 171.4995166 126.17652344 172.56176758 126.80273438 C175.68049674 129.01737498 177.41642239 130.37905857 179.29296875 133.7421875 C179.88789657 137.62694342 179.87718522 141.47040723 179.859375 145.39453125 C179.86557358 146.52742081 179.87177216 147.66031036 179.87815857 148.82752991 C179.88525442 151.2205418 179.88208692 153.61360309 179.86938477 156.0065918 C179.85552999 159.6635245 179.88958461 163.31789312 179.92773438 166.97460938 C179.92868569 169.30208396 179.92682607 171.62956174 179.921875 173.95703125 C179.93513321 175.04781479 179.94839142 176.13859833 179.96205139 177.26243591 C179.8584797 185.72864108 179.8584797 185.72864108 177.140625 189.23876953 C174.24001183 191.78874274 171.47674227 193.70811681 168.1015625 195.58203125 C167.22263084 196.07709923 167.22263084 196.07709923 166.32594299 196.58216858 C164.46691678 197.62613513 162.59923766 198.65328309 160.73046875 199.6796875 C158.89623908 200.70231972 157.06393422 201.72833554 155.23184204 202.75479126 C154.0222269 203.43003533 152.81045073 204.10142296 151.5965271 204.76889038 C148.67507219 206.37936302 145.82667207 208.03401145 142.99658203 209.80517578 C133.01839917 216.04055966 133.01839917 216.04055966 126.29296875 214.7421875 C123.05356659 213.40496343 120.1036907 211.73666284 117.10546875 209.9296875 C116.32494141 209.47787109 115.54441406 209.02605469 114.74023438 208.56054688 C112.58000859 207.30545386 110.43414588 206.02943964 108.29296875 204.7421875 C107.28621094 204.14019531 106.27945313 203.53820312 105.2421875 202.91796875 C104.27732422 202.33595703 104.27732422 202.33595703 103.29296875 201.7421875 C107.99541159 212.27506838 112.71090318 222.79586082 117.72851562 233.18334961 C120.94787487 239.91863225 122.66434804 245.43940024 122.60546875 252.9296875 C122.5998291 253.68000244 122.59418945 254.43031738 122.58837891 255.20336914 C122.2738902 269.69943039 116.47981554 280.49847022 106.078125 290.4765625 C87.93282781 305.23711281 65.50322197 300.58810487 44.04296875 298.4921875 C41.64159012 298.26318145 39.24014041 298.03491968 36.83862305 297.80737305 C31.98175432 297.34626904 27.12524286 296.88166959 22.26904297 296.41357422 C13.1101208 295.53098574 3.94977796 294.66382939 -5.21151733 293.8062439 C-6.99513384 293.639014 -8.7786835 293.47106965 -10.56216431 293.30239868 C-22.44490817 292.17925582 -34.3242433 291.15407577 -46.24487305 290.51293945 C-61.2482383 289.57562442 -74.51279063 285.15810048 -84.9609375 273.90625 C-95.32446423 261.06196855 -97.25734931 247.81533801 -95.70703125 231.7421875 C-93.62799025 221.5895373 -86.39999118 213.17170588 -80.36279297 204.99072266 C-78.18035247 202.0269543 -76.03358626 199.03816354 -73.88500977 196.04980469 C-70.63351195 191.53102368 -67.36433758 187.02499656 -64.09375 182.52001953 C-57.29005988 173.14839163 -50.57431734 163.72339014 -43.95092773 154.22338867 C-38.98591057 147.1132073 -33.93168265 140.07053277 -28.83984375 133.05078125 C-28.37651642 132.39873718 -27.91318909 131.74669312 -27.43582153 131.07489014 C-26.25125516 129.47652327 -25.0073047 127.92098072 -23.7170105 126.40667725 C-17.71181005 119.04607518 -16.34815557 113.11536498 -15.83203125 103.76171875 C-15.73237061 102.46771652 -15.63270996 101.17371429 -15.5300293 99.84049988 C-15.26859716 96.44087938 -15.04951363 93.03987448 -14.83990479 89.63671875 C-14.61728835 86.14848183 -14.35366961 82.6633547 -14.09375 79.17773438 C-13.59192375 72.36834861 -13.13488609 65.55661113 -12.70703125 58.7421875 C-13.49561523 58.45013428 -14.28419922 58.15808105 -15.09667969 57.85717773 C-18.07245179 56.58610112 -19.10808664 55.41753817 -20.95703125 52.8046875 C-21.4571875 52.11503906 -21.95734375 51.42539062 -22.47265625 50.71484375 C-27.54180575 42.61382952 -24.87607385 29.17154048 -23.45703125 20.1171875 C-23.3477832 19.37202881 -23.23853516 18.62687012 -23.12597656 17.85913086 C-22.15471829 12.23105883 -20.22721557 8.02390277 -15.890625 4.09765625 C-15.31441406 3.71222656 -14.73820312 3.32679688 -14.14453125 2.9296875 C-13.56574219 2.53136719 -12.98695313 2.13304687 -12.390625 1.72265625 C-8.30189306 -0.65848462 -4.53671981 -0.26957839 0 0 Z " fill="#072C76" transform="translate(297.70703125,220.2578125)"/>
<path d="M0 0 C5.15977284 0.40562332 10.31925954 0.81466249 15.47851562 1.22680664 C17.23202262 1.3664078 18.98560294 1.50509125 20.73925781 1.64282227 C23.26647673 1.84147143 25.79340963 2.04346873 28.3203125 2.24609375 C29.48785568 2.33678383 29.48785568 2.33678383 30.6789856 2.42930603 C34.83210935 2.76582821 38.89674822 3.24383747 43 4 C43.39499412 15.67975661 42.16773732 27.14512053 41 38.75 C40.7116442 41.63694475 40.42524071 44.52403094 40.14404297 47.41168213 C39.97030312 49.19413161 39.79253098 50.97619478 39.60986328 52.75775146 C38.30689754 64.07842119 38.30689754 64.07842119 41.38671875 74.80078125 C41.90613037 75.84532471 42.42554199 76.88986816 42.96069336 77.96606445 C43.53053955 79.07038818 44.10038574 80.17471191 44.6875 81.3125 C45.58483298 83.11122852 46.48211086 84.90998704 47.37611389 86.71037292 C47.9931205 87.95149251 48.61223325 89.19156714 49.23338318 90.43061829 C52.43729849 96.82847859 55.44581677 103.31300828 58.4375 109.8125 C59.52046669 112.15641944 60.60380375 114.50016778 61.6875 116.84375 C62.23019531 118.01808594 62.77289063 119.19242187 63.33203125 120.40234375 C65.02491073 124.05373018 66.72865225 127.69982072 68.4375 131.34375 C74.3157863 143.88181164 80.15134757 156.43797096 85.87088013 169.04940796 C86.4937182 170.42231626 87.11762309 171.79474113 87.74264526 173.16665649 C88.60930166 175.07046722 89.47136802 176.97628631 90.33203125 178.8828125 C91.07030151 180.51307373 91.07030151 180.51307373 91.82348633 182.17626953 C94.34838627 188.23623897 95.3132519 194.32725403 93.05859375 200.6328125 C89.50714754 208.09196284 85.07905795 212.6910082 78 217 C74.0466992 218.31776693 70.26603971 218.18060145 66.14453125 218.171875 C65.25643265 218.17024353 64.36833405 218.16861206 63.45332336 218.16693115 C53.47986083 218.07965426 43.60909366 217.2030978 33.6875 216.25 C31.71961885 216.06784511 29.75168137 215.88629774 27.78369141 215.70532227 C13.54864155 214.38500316 -0.67468587 212.94467748 -14.89038086 211.43066406 C-22.88424903 210.58529612 -30.87460545 209.82634232 -38.890625 209.22265625 C-40.09566177 209.1295945 -40.09566177 209.1295945 -41.32504272 209.03465271 C-45.13252887 208.74112596 -48.93976936 208.4626643 -52.75048828 208.21459961 C-63.05621211 207.4773801 -71.33266434 205.81483161 -78.4921875 197.97265625 C-83.66649675 191.2031584 -85.10536014 184.41034888 -84 176 C-82.24992302 167.47543149 -76.47960123 160.98108807 -71.28125 154.2734375 C-68.06461678 150.11957014 -65.0128228 145.86568211 -62 141.5625 C-61.50491943 140.85722168 -61.00983887 140.15194336 -60.49975586 139.42529297 C-59.49758658 137.99631901 -58.49620239 136.56679414 -57.49560547 135.13671875 C-55.0249651 131.60700206 -52.54501328 128.08387341 -50.0625 124.5625 C-49.57007813 123.86390869 -49.07765625 123.16531738 -48.5703125 122.44555664 C-44.37713604 116.50908069 -40.12132998 110.61904106 -35.85791016 104.73291016 C-31.18996036 98.28085294 -26.58666425 91.7850321 -22.0078125 85.26953125 C-19.89053164 82.25755559 -17.75822691 79.25685069 -15.6171875 76.26171875 C-15.06426025 75.48578369 -14.51133301 74.70984863 -13.94165039 73.91040039 C-12.87865765 72.41921576 -11.81286528 70.93002172 -10.74389648 69.44311523 C-10.26766846 68.77352783 -9.79144043 68.10394043 -9.30078125 67.4140625 C-8.87966064 66.8257666 -8.45854004 66.2374707 -8.0246582 65.63134766 C-5.96858206 62.35789024 -5.75346789 59.14715629 -5.44335938 55.3828125 C-5.34655884 54.23151855 -5.2497583 53.08022461 -5.15002441 51.89404297 C-5.04895386 50.65025879 -4.9478833 49.40647461 -4.84375 48.125 C-4.67999234 46.17566233 -4.51623064 44.22632499 -4.35222626 42.27700806 C-4.06504285 38.85159585 -3.78267061 35.42578708 -3.5 32 C-3.1628279 27.91368974 -2.82483181 23.82746186 -2.4810791 19.74169922 C-2.26728495 17.19673733 -2.05682715 14.65149261 -1.84997559 12.10595703 C-1.75317505 10.95466309 -1.65637451 9.80336914 -1.55664062 8.6171875 C-1.47305298 7.60253418 -1.38946533 6.58788086 -1.30334473 5.54248047 C-1 3 -1 3 0 0 Z " fill="#D1DBFC" transform="translate(306,282)"/>
<path d="M0 0 C0 0.66 0 1.32 0 2 C1.05948853 2.39505737 1.05948853 2.39505737 2.14038086 2.7980957 C5.17152621 4.07209285 7.91134856 5.57859621 10.75390625 7.23046875 C11.85669922 7.86919922 12.95949219 8.50792969 14.09570312 9.16601562 C15.25134364 9.83977247 16.40694248 10.51360082 17.5625 11.1875 C18.67947266 11.83525391 19.79644531 12.48300781 20.94726562 13.15039062 C22.05908203 13.79556641 23.17089844 14.44074219 24.31640625 15.10546875 C25.42773926 15.74661621 26.53907227 16.38776367 27.68408203 17.04833984 C29.88891136 18.3460431 32.07287781 19.67988346 34.23388672 21.04931641 C41.04025217 25.58273064 41.04025217 25.58273064 48.87744141 26.68798828 C54.07508125 25.00326904 58.6105339 21.85367327 63.1875 18.9375 C65.29763963 17.60001573 67.41585616 16.27516639 69.54296875 14.96484375 C70.47133545 14.3730835 71.39970215 13.78132324 72.35620117 13.17163086 C75.48035879 11.78712329 76.8103752 11.88657378 80 13 C82.5078125 14.96875 82.5078125 14.96875 85.125 17.5 C89.8017207 21.9232399 94.62705346 26.00561479 99.6875 29.9921875 C101.83360513 31.85552878 103.40521239 33.6602787 105 36 C104.67 36.33 104.34 36.66 104 37 C103.88552544 38.6914937 103.84038625 40.38773409 103.82299805 42.08300781 C103.81016281 43.16793518 103.79732758 44.25286255 103.78410339 45.3706665 C103.77671646 46.55287781 103.76932953 47.73508911 103.76171875 48.953125 C103.74961113 50.76438873 103.74961113 50.76438873 103.73725891 52.61224365 C103.72339673 55.17458654 103.71268418 57.73694805 103.70483398 60.29931641 C103.68763412 64.21943213 103.64376674 68.1387021 103.59960938 72.05859375 C103.58948197 74.54426461 103.58096602 77.02994267 103.57421875 79.515625 C103.54795662 81.27679657 103.54795662 81.27679657 103.52116394 83.07354736 C103.48976172 89.325663 103.48976172 89.325663 105.66479492 95.06274414 C108.2646639 97.21956174 110.81491925 98.87378844 113.7890625 100.48046875 C114.89507812 101.08697266 116.00109375 101.69347656 117.140625 102.31835938 C118.29046875 102.93517578 119.4403125 103.55199219 120.625 104.1875 C122.91038497 105.42817391 125.19431576 106.67153142 127.4765625 107.91796875 C128.48799316 108.46219482 129.49942383 109.0064209 130.54150391 109.56713867 C133 111 133 111 135 113 C134.54757609 120.02670884 133.22266628 126.94655776 132 133.875 C131.73316406 135.421875 131.73316406 135.421875 131.4609375 137 C130.12933551 144.61199348 130.12933551 144.61199348 129 148 C126.93554687 149.36157227 126.93554687 149.36157227 124.21875 150.75390625 C123.22101563 151.2761377 122.22328125 151.79836914 121.1953125 152.33642578 C120.14085937 152.88540527 119.08640625 153.43438477 118 154 C115.94403115 155.12705544 113.89195816 156.2612455 111.84375 157.40234375 C110.80089844 157.98306641 109.75804687 158.56378906 108.68359375 159.16210938 C107.63300781 159.74798828 106.58242188 160.33386719 105.5 160.9375 C104.44941406 161.51951172 103.39882813 162.10152344 102.31640625 162.70117188 C90.18111935 168.31850296 90.18111935 168.31850296 81 177 C80.84777027 178.66565749 80.75082785 180.33656496 80.68359375 182.0078125 C80.62075195 183.48701172 80.62075195 183.48701172 80.55664062 184.99609375 C80.51732422 186.02863281 80.47800781 187.06117188 80.4375 188.125 C80.39431641 189.16527344 80.35113281 190.20554687 80.30664062 191.27734375 C80.2003712 193.85142528 80.09833417 196.42560508 80 199 C77.48085693 197.74042846 77.29828829 196.830508 76.1953125 194.28125 C75.85886719 193.51296875 75.52242187 192.7446875 75.17578125 191.953125 C74.82902344 191.14359375 74.48226562 190.3340625 74.125 189.5 C73.78597656 188.72140625 73.44695312 187.9428125 73.09765625 187.140625 C72.40633852 185.55295994 71.72320162 183.96171026 71.04785156 182.3671875 C70.36648977 180.82793215 69.63576751 179.30928894 68.85058594 177.8203125 C63.98742994 168.32537533 65.95668293 157.60004969 67.09375 147.328125 C67.20473022 146.27969421 67.31571045 145.23126343 67.43005371 144.15106201 C67.78082535 140.85004815 68.14024958 137.55004611 68.5 134.25 C68.74146202 131.99224909 68.98235249 129.73443698 69.22265625 127.4765625 C69.80850913 121.98365124 70.40144076 116.49154041 71 111 C72.73339844 110.27775065 74.46679688 109.5555013 76.20019531 108.83325195 C81.45949033 106.39836673 83.7503416 103.20425063 86 98 C88.2382458 87.41920165 91.00170783 71.44216528 86.8671875 61.19140625 C83.40209869 56.24775861 79.312759 53.61740597 73.3474884 52.50564575 C64.92301627 51.20724466 56.49827422 50.27690313 48.01171875 49.4921875 C46.61454646 49.36075405 45.21739621 49.22908616 43.82026672 49.09719849 C40.91873532 48.82417889 38.01696665 48.55389142 35.11499023 48.28564453 C31.41521554 47.94343811 27.71612568 47.59436968 24.01718426 47.24328423 C21.14253185 46.97118635 18.26755329 46.7026707 15.39246559 46.435215 C14.02855125 46.30792218 12.66473658 46.17955636 11.30103111 46.05004501 C-3.88186128 44.27635885 -3.88186128 44.27635885 -17.6875 49.6875 C-25.49198842 57.49198842 -25.19224799 71.95082532 -25.375 82.375 C-25.36762028 88.59462566 -24.64555757 92.87651368 -21 98 C-18.71809758 100.11890939 -16.76653461 101.61673269 -14 103 C-13.92381216 113.48172224 -14.31550895 123.89018245 -14.99487305 134.34887695 C-15.12246626 136.47753284 -15.22791095 138.60764119 -15.31030273 140.73852539 C-15.93542604 156.48115314 -19.09853018 166.23085321 -29.45455933 178.19192505 C-31.4726025 180.55291721 -33.26124855 183.04754159 -35.04296875 185.58984375 C-36.64082583 187.79915517 -38.23881398 190.00836794 -39.83789062 192.21679688 C-40.35931641 192.93802734 -40.88074219 193.65925781 -41.41796875 194.40234375 C-41.86938232 195.02616943 -42.3207959 195.64999512 -42.78588867 196.29272461 C-43.88699554 197.84109387 -44.94608661 199.41912991 -46 201 C-50.29703359 200.50223488 -52.51424898 197.95315437 -55.5625 195.0625 C-58.32184016 192.46040853 -60.84271117 190.10485922 -64 188 C-63.83832336 187.27784302 -63.67664673 186.55568604 -63.5100708 185.81164551 C-63.02608916 183.14381036 -62.86075526 180.72017382 -62.83886719 178.01367188 C-62.82925964 177.04917114 -62.8196521 176.08467041 -62.80975342 175.09094238 C-62.80550354 174.0606189 -62.80125366 173.03029541 -62.796875 171.96875 C-62.78832489 170.36574036 -62.78832489 170.36574036 -62.77960205 168.73034668 C-62.77017163 166.47437525 -62.76362586 164.21839018 -62.75976562 161.96240234 C-62.75003512 158.51245239 -62.71898266 155.06309214 -62.6875 151.61328125 C-62.68097189 149.41927436 -62.67572066 147.22526323 -62.671875 145.03125 C-62.6595282 144.00092651 -62.6471814 142.97060303 -62.63446045 141.90905762 C-62.62095038 134.95544422 -62.62095038 134.95544422 -66 129 C-67.64458363 127.49329452 -67.64458363 127.49329452 -69.625 126.3125 C-70.40101563 125.82007813 -71.17703125 125.32765625 -71.9765625 124.8203125 C-76.7359964 121.95481353 -81.51815216 119.12824476 -86.32275391 116.33911133 C-87.04124512 115.92169678 -87.75973633 115.50428223 -88.5 115.07421875 C-89.47453125 114.51093872 -89.47453125 114.51093872 -90.46875 113.9362793 C-92 113 -92 113 -93 112 C-93.06627201 103.6629816 -91.67673992 95.52176293 -90.0625 87.375 C-89.89274658 86.51028076 -89.72299316 85.64556152 -89.5480957 84.75463867 C-88.01270985 77.32763893 -88.01270985 77.32763893 -86 74 C-83.83865044 72.74629583 -81.76873891 71.70694458 -79.5 70.6875 C-72.1775017 67.20824912 -65.09444708 63.34823703 -58.06396484 59.31582642 C-56.33783438 58.3270128 -54.60644772 57.34739301 -52.875 56.36791992 C-51.79863281 55.74763916 -50.72226563 55.1273584 -49.61328125 54.48828125 C-48.65204346 53.93696533 -47.69080566 53.38564941 -46.70043945 52.81762695 C-43.62182285 50.7454544 -41.31560764 48.91770686 -39 46 C-38.49237268 43.23107243 -38.27735729 41.05599688 -38.29296875 38.29296875 C-38.27784744 37.56757401 -38.26272614 36.84217926 -38.24714661 36.09480286 C-38.20437173 33.79204987 -38.19544259 31.49061016 -38.1875 29.1875 C-38.16434739 27.62040804 -38.13898044 26.05334714 -38.11132812 24.48632812 C-38.04857806 20.65743655 -38.01616299 16.82936016 -38 13 C-30.71814979 9.55956898 -23.23585054 6.86649621 -15.625 4.25 C-14.45066406 3.83878906 -13.27632813 3.42757812 -12.06640625 3.00390625 C-10.94363281 2.61589844 -9.82085937 2.22789062 -8.6640625 1.828125 C-7.64779785 1.4765332 -6.6315332 1.12494141 -5.58447266 0.76269531 C-3 0 -3 0 0 0 Z " fill="#FDFDFE" transform="translate(299,176)"/>
<path d="M0 0 C8.66599451 3.84931384 15.85759718 11.6597646 22.7109375 18.0546875 C25.02159934 20.01835576 27.38790802 21.4723564 30 23 C30.74572266 22.54036865 31.49144531 22.0807373 32.25976562 21.60717773 C35.05299674 19.89955297 37.85648733 18.21198834 40.66894531 16.53637695 C41.87993214 15.80962339 43.08643581 15.07534145 44.28808594 14.33325195 C55.54531638 7.39316005 55.54531638 7.39316005 59.99609375 7.56640625 C66.29306809 9.21324341 72.0073726 13.19079881 77.5625 16.5 C78.81705572 17.23575678 80.07218567 17.97053531 81.32788086 18.7043457 C83.78424112 20.14266092 86.23574183 21.58875969 88.68359375 23.04150391 C91.46291536 24.6828259 94.25450003 26.29524622 97.0625 27.88671875 C98.39613447 28.65312206 99.72950199 29.41999024 101.0625 30.1875 C102.16722656 30.82042969 103.27195312 31.45335937 104.41015625 32.10546875 C107.47881705 34.35026587 108.45837145 35.50206956 110 39 C110.48045959 42.86952365 110.49197059 46.72141079 110.50390625 50.6171875 C110.51389145 51.74770538 110.52387665 52.87822327 110.53416443 54.04299927 C110.54933548 56.43178655 110.55639054 58.82063725 110.5559082 61.20947266 C110.56246505 64.85556268 110.61695014 68.49892337 110.67382812 72.14453125 C110.68263157 74.46874071 110.68858486 76.79296308 110.69140625 79.1171875 C110.7129628 80.20280975 110.73451935 81.28843201 110.75672913 82.4069519 C110.71170786 87.40379718 110.56389372 91.018229 107.34985352 94.99658203 C104.43759782 97.8518509 101.28378729 99.96165083 97.7109375 101.9375 C97.12639801 102.26613037 96.54185852 102.59476074 95.93960571 102.93334961 C94.0916751 103.96866549 92.23401764 104.98475389 90.375 106 C89.15422518 106.67838856 87.93416754 107.35806935 86.71484375 108.0390625 C84.90796406 109.04763243 83.10032409 110.05455745 81.28875732 111.0546875 C76.27226901 113.82591283 71.33545475 116.71751535 66.41259766 119.65234375 C64 121 64 121 61 122 C60.82871582 122.98395752 60.65743164 123.96791504 60.48095703 124.98168945 C59.84326572 128.63385218 59.19623908 132.28430943 58.54638672 135.93432617 C58.2664936 137.5139547 57.98913027 139.09403366 57.71435547 140.67456055 C57.31883208 142.94703518 56.91422268 145.21773166 56.5078125 147.48828125 C56.32643234 148.54780754 56.32643234 148.54780754 56.14138794 149.6287384 C55.52539786 153.01978627 54.94272621 155.08591069 53 158 C52.07058594 157.43410156 51.14117187 156.86820313 50.18359375 156.28515625 C48.93525676 155.54366285 47.68653829 154.80281145 46.4375 154.0625 C45.82841797 153.68931641 45.21933594 153.31613281 44.59179688 152.93164062 C40.33243013 150.43010777 36.92927567 149.399671 32 149 C32.99 148.67 33.98 148.34 35 148 C35.10957031 147.25878906 35.21914063 146.51757812 35.33203125 145.75390625 C36.09795468 140.66643113 36.88246506 135.5895209 37.80078125 130.52734375 C37.93701904 129.77573975 38.07325684 129.02413574 38.21362305 128.24975586 C38.48336164 126.7745979 38.7568325 125.30011645 39.03442383 123.82641602 C40.11285731 118.43056484 40.11285731 118.43056484 40 113 C37.86900258 111.08831153 37.86900258 111.08831153 34.9609375 109.625 C33.90519531 109.03203125 32.84945312 108.4390625 31.76171875 107.828125 C30.64410156 107.22484375 29.52648437 106.6215625 28.375 106 C11.29146341 96.58292683 11.29146341 96.58292683 9 92 C8.90931126 90.25919269 8.88245741 88.51489184 8.88647461 86.77172852 C8.88655014 85.6804213 8.88662567 84.58911407 8.88670349 83.46473694 C8.89186478 82.28141281 8.89702606 81.09808868 8.90234375 79.87890625 C8.9037587 78.6680687 8.90517365 77.45723114 8.90663147 76.20970154 C8.91224329 72.32727624 8.92479123 68.44490793 8.9375 64.5625 C8.94251405 61.94726646 8.94707712 59.33203202 8.95117188 56.71679688 C8.96102651 50.95628742 8.97525421 45.19580746 8.99327087 39.43531799 C9.27995821 35.34923542 9.27995821 35.34923542 7.19921875 32.0546875 C6.37035156 31.33539063 5.54148437 30.61609375 4.6875 29.875 C3.78 29.08351562 2.8725 28.29203125 1.9375 27.4765625 C-1.81787893 24.31045846 -5.61705889 21.20352762 -9.45703125 18.140625 C-12.12663381 15.89340195 -14.56652839 13.49900496 -17 11 C-14.54481265 9.49462965 -12.0861548 7.99555574 -9.625 6.5 C-8.92632812 6.07074219 -8.22765625 5.64148438 -7.5078125 5.19921875 C-2.2265625 2 -2.2265625 2 0 2 C0 1.34 0 0.68 0 0 Z " fill="#6965F6" transform="translate(393,176)"/>
<path d="M0 0 C0.95261719 0.55429688 1.90523437 1.10859375 2.88671875 1.6796875 C4.15354557 2.41163189 5.42047827 3.14339305 6.6875 3.875 C7.31333984 4.23980469 7.93917969 4.60460937 8.58398438 4.98046875 C11.98194942 6.93741197 15.30067619 8.65607739 19 10 C17.82471862 18.84917747 16.36827606 27.56454663 14.5859375 36.30859375 C13.9873551 40.07966286 13.59926085 43.19641906 14 47 C16.2128521 49.2653802 16.2128521 49.2653802 19.328125 50.82421875 C20.43800781 51.46037109 21.54789062 52.09652344 22.69140625 52.75195312 C23.87693993 53.39835515 25.06314525 54.0435268 26.25 54.6875 C28.55267617 55.97309193 30.84649712 57.27332889 33.140625 58.57421875 C34.16704102 59.13713623 35.19345703 59.70005371 36.25097656 60.2800293 C40.11357814 62.69672806 42.54417969 64.63253906 44 69 C44.09197708 70.58434444 44.12790689 72.17226604 44.12939453 73.75927734 C44.13254669 74.72392914 44.13569885 75.68858093 44.13894653 76.6824646 C44.13591019 78.24343369 44.13591019 78.24343369 44.1328125 79.8359375 C44.13376923 80.90744049 44.13472595 81.97894348 44.13571167 83.08291626 C44.13639253 85.35085102 44.13454481 87.61878773 44.13037109 89.88671875 C44.12503201 93.35421142 44.1303139 96.82157393 44.13671875 100.2890625 C44.13605775 102.49218779 44.13477612 104.69531299 44.1328125 106.8984375 C44.13483673 107.9350351 44.13686096 108.97163269 44.13894653 110.03964233 C44.13421829 111.49607651 44.13421829 111.49607651 44.12939453 112.98193359 C44.12859894 113.83226166 44.12780334 114.68258972 44.12698364 115.5586853 C43.99369291 118.12125655 43.56260824 120.49941424 43 123 C43.73605469 123.59167969 44.47210938 124.18335938 45.23046875 124.79296875 C46.20628906 125.58316406 47.18210937 126.37335938 48.1875 127.1875 C49.15042969 127.96480469 50.11335938 128.74210938 51.10546875 129.54296875 C53.86514932 131.88553161 56.44036744 134.44036744 59 137 C55.37 142.28 51.74 147.56 48 153 C43.28217971 151.11287189 40.64835784 149.11526286 37.125 145.6875 C32.98077931 141.69012178 28.74985487 138.2677573 24 135 C22.94872925 135.62044189 22.94872925 135.62044189 21.8762207 136.25341797 C18.69042541 138.13088872 15.50150799 140.00299186 12.3125 141.875 C11.20970703 142.52597656 10.10691406 143.17695313 8.97070312 143.84765625 C7.90400391 144.47285156 6.83730469 145.09804688 5.73828125 145.7421875 C4.75899658 146.3182373 3.77971191 146.89428711 2.77075195 147.48779297 C-2.7238318 150.48659919 -5.71560046 151.4441336 -12 150 C-14.94335938 148.65234375 -14.94335938 148.65234375 -17.84375 146.9375 C-18.91858643 146.309646 -19.99342285 145.68179199 -21.10083008 145.03491211 C-22.22255615 144.36339111 -23.34428223 143.69187012 -24.5 143 C-25.66577113 142.31110279 -26.83203395 141.62303696 -27.9987793 140.93579102 C-30.29371334 139.58179496 -32.58399891 138.22079117 -34.87255859 136.85595703 C-37.52271217 135.28324294 -40.18509425 133.73906671 -42.86328125 132.21484375 C-44.17982517 131.45596796 -45.49624546 130.69687762 -46.8125 129.9375 C-47.91207031 129.30714844 -49.01164063 128.67679688 -50.14453125 128.02734375 C-54.30700412 125.07204495 -57.52052459 122.63979998 -58.45637512 117.48738098 C-58.62851203 114.38549399 -58.64044077 111.32119985 -58.59375 108.21484375 C-58.59379028 107.08099747 -58.59383057 105.94715118 -58.59387207 104.77894592 C-58.58852207 102.38764894 -58.5709619 99.99635209 -58.54199219 97.60522461 C-58.50010369 93.9465562 -58.50092892 90.28972741 -58.5078125 86.63085938 C-58.4973208 84.30467472 -58.48438281 81.97849954 -58.46875 79.65234375 C-58.46854858 78.55953598 -58.46834717 77.46672821 -58.46813965 76.34080505 C-58.31648893 66.6067963 -58.31648893 66.6067963 -55 63 C-52.21948242 60.9987793 -52.21948242 60.9987793 -48.85546875 59.07421875 C-48.24923172 58.72293411 -47.64299469 58.37164948 -47.01838684 58.00971985 C-45.08113558 56.89076392 -43.13473394 55.78897299 -41.1875 54.6875 C-39.92188454 53.96009939 -38.65690445 53.23159214 -37.39257812 52.50195312 C-34.86981417 51.04816867 -32.34049887 49.60682617 -29.80615234 48.17333984 C-27.21842781 46.70592744 -24.65532168 45.20411375 -22.10400391 43.67431641 C-21.16117302 43.1158477 -21.16117302 43.1158477 -20.19929504 42.5460968 C-18.46778369 41.5190188 -16.74211554 40.48210829 -15.0168457 39.44458008 C-11.99459654 37.99741262 -10.29088384 37.6617777 -7 38 C-6.78827148 36.48273315 -6.78827148 36.48273315 -6.57226562 34.93481445 C-5.75815697 29.3371228 -4.80042604 23.76641163 -3.84326172 18.19165039 C-3.49799417 16.17578887 -3.15719569 14.15920087 -2.81640625 12.14257812 C-2.48962891 10.23702148 -2.48962891 10.23702148 -2.15625 8.29296875 C-1.95837891 7.1330542 -1.76050781 5.97313965 -1.55664062 4.77807617 C-1 2 -1 2 0 0 Z " fill="#6A65F6" transform="translate(193,241)"/>
<path d="M0 0 C4.15771306 1.77255431 7.99023958 4.01122269 11.875 6.3125 C12.96820557 6.94389893 14.06141113 7.57529785 15.18774414 8.22583008 C18.47042207 10.13102637 21.73670204 12.06183536 25 14 C26.42723389 14.83869629 26.42723389 14.83869629 27.88330078 15.69433594 C30.40850236 17.18050553 32.92551739 18.67911351 35.4375 20.1875 C36.18177246 20.63198486 36.92604492 21.07646973 37.69287109 21.53442383 C40.8727844 23.48358591 42.90329423 24.85494134 45 28 C45.25396729 30.34593201 45.25396729 30.34593201 45.25878906 33.14233398 C45.26509338 34.19029648 45.27139771 35.23825897 45.27789307 36.31797791 C45.2738446 37.44925613 45.26979614 38.58053436 45.265625 39.74609375 C45.26753845 40.90875259 45.2694519 42.07141144 45.27142334 43.26930237 C45.27278522 45.7297487 45.26908862 48.19020221 45.26074219 50.65063477 C45.25005263 54.41894681 45.26063273 58.18678105 45.2734375 61.95507812 C45.27211572 64.34375105 45.26955293 66.73242368 45.265625 69.12109375 C45.26967346 70.25034775 45.27372192 71.37960175 45.27789307 72.54307556 C45.26843658 74.11974754 45.26843658 74.11974754 45.25878906 75.72827148 C45.25719788 76.65187973 45.25560669 77.57548798 45.25396729 78.52708435 C44.98276466 81.16782295 44.41138665 82.7653832 43 85 C40.87133789 86.56469727 40.87133789 86.56469727 38.22265625 88.06640625 C37.24296875 88.62956543 36.26328125 89.19272461 35.25390625 89.77294922 C34.20074219 90.36350098 33.14757812 90.95405273 32.0625 91.5625 C29.87602424 92.80550098 27.68982991 94.04899711 25.50390625 95.29296875 C24.40965332 95.91220215 23.31540039 96.53143555 22.18798828 97.16943359 C19.25024965 98.8563048 16.35252727 100.59245723 13.46484375 102.36328125 C12.20111938 103.12886353 12.20111938 103.12886353 10.91186523 103.90991211 C9.34753826 104.86016276 7.79049716 105.82255381 6.24243164 106.79907227 C2.43439596 109.07973992 -1.08518877 110.92479522 -5.67333984 110.62304688 C-11.42665908 109.08238888 -16.49808255 105.61458056 -21.5625 102.5625 C-22.81609211 101.82253215 -24.07049089 101.08392922 -25.32568359 100.34667969 C-27.78252437 98.90008935 -30.23326101 97.44394839 -32.67919922 95.97900391 C-35.47051722 94.3155409 -38.27484853 92.68334145 -41.09765625 91.07421875 C-42.44039523 90.29998374 -43.78287595 89.5253005 -45.125 88.75 C-46.24132812 88.10546875 -47.35765625 87.4609375 -48.5078125 86.796875 C-51.17045853 84.87709886 -51.83472157 83.9897548 -53 81 C-53.27415466 78.5405426 -53.27415466 78.5405426 -53.30639648 75.76000977 C-53.32238388 74.71535049 -53.33837128 73.67069122 -53.35484314 72.59437561 C-53.36020584 71.47139572 -53.36556854 70.34841583 -53.37109375 69.19140625 C-53.38012222 68.03253403 -53.3891507 66.8736618 -53.39845276 65.67967224 C-53.41295662 63.22942693 -53.42184232 60.77914287 -53.42553711 58.32885742 C-53.43744472 54.57990426 -53.48664216 50.83259075 -53.53710938 47.08398438 C-53.54657226 44.70313303 -53.55380794 42.32227159 -53.55859375 39.94140625 C-53.57812607 38.82045059 -53.59765839 37.69949493 -53.61778259 36.54457092 C-53.57283697 28.79586355 -53.57283697 28.79586355 -50.8203125 24.97167969 C-48.03076696 23.02150917 -45.27917653 21.18880015 -42.31640625 19.51171875 C-41.23020996 18.89111572 -40.14401367 18.2705127 -39.02490234 17.63110352 C-37.88230957 16.98971436 -36.7397168 16.3483252 -35.5625 15.6875 C-34.38201389 15.0199984 -33.20183906 14.35194599 -32.02197266 13.68334961 C-29.71570857 12.37663029 -27.4079296 11.0727432 -25.09912109 9.77050781 C-22.52442563 8.29960097 -19.98258443 6.79519308 -17.45703125 5.2421875 C-16.83304443 4.86360596 -16.20905762 4.48502441 -15.56616211 4.0949707 C-14.01445527 3.14763878 -12.47160331 2.18584239 -10.9296875 1.22265625 C-7.08295412 -0.38271382 -4.04301658 -0.86880029 0 0 Z " fill="#062B75" transform="translate(350,93)"/>
<path d="M0 0 C5.15977284 0.40562332 10.31925954 0.81466249 15.47851562 1.22680664 C17.23202262 1.3664078 18.98560294 1.50509125 20.73925781 1.64282227 C23.26647673 1.84147143 25.79340963 2.04346873 28.3203125 2.24609375 C29.48785568 2.33678383 29.48785568 2.33678383 30.6789856 2.42930603 C34.83210935 2.76582821 38.89674822 3.24383747 43 4 C43.39499412 15.67975661 42.16773732 27.14512053 41 38.75 C40.7116442 41.63694475 40.42524071 44.52403094 40.14404297 47.41168213 C39.97030312 49.19413161 39.79253098 50.97619478 39.60986328 52.75775146 C38.30689754 64.07842119 38.30689754 64.07842119 41.38671875 74.80078125 C41.9072583 75.84741943 42.42779785 76.89405762 42.96411133 77.97241211 C43.53282959 79.07464111 44.10154785 80.17687012 44.6875 81.3125 C45.57004708 83.08387782 46.45253616 84.85528688 47.33189392 86.62825012 C47.94245383 87.85748591 48.55516224 89.08565672 49.16993713 90.31278992 C52.36295033 96.68796578 55.42669036 103.12133785 58.44326782 109.58163452 C59.30044216 111.41175575 60.16786006 113.23677517 61.03588867 115.06176758 C61.55642822 116.17447021 62.07696777 117.28717285 62.61328125 118.43359375 C63.07516846 119.41384521 63.53705566 120.39409668 64.01293945 121.40405273 C65 124 65 124 65 128 C64.05640625 128.12117187 63.1128125 128.24234375 62.140625 128.3671875 C60.85671875 128.53476562 59.5728125 128.70234375 58.25 128.875 C57.56405762 128.96378418 56.87811523 129.05256836 56.17138672 129.14404297 C52.12344767 129.67931541 48.13404438 130.34329218 44.125 131.125 C22.31199725 134.73623143 2.46252912 129.45960812 -16.875 119.4375 C-23.75520832 115.9206078 -30.52260181 113.82957615 -38 112 C-38 107.85625227 -37.79764985 107.20666932 -35.578125 104.015625 C-35.0529126 103.2529834 -34.5277002 102.4903418 -33.98657227 101.70458984 C-33.41350342 100.8945752 -32.84043457 100.08456055 -32.25 99.25 C-31.66597412 98.41033691 -31.08194824 97.57067383 -30.48022461 96.70556641 C-26.13551259 90.50017279 -21.63215735 84.42166017 -17.05444336 78.38696289 C-8.83621018 67.9313489 -8.83621018 67.9313489 -5.44335938 55.3828125 C-5.34655884 54.23151855 -5.2497583 53.08022461 -5.15002441 51.89404297 C-5.04895386 50.65025879 -4.9478833 49.40647461 -4.84375 48.125 C-4.67999234 46.17566233 -4.51623064 44.22632499 -4.35222626 42.27700806 C-4.06504285 38.85159585 -3.78267061 35.42578708 -3.5 32 C-3.1628279 27.91368974 -2.82483181 23.82746186 -2.4810791 19.74169922 C-2.26728495 17.19673733 -2.05682715 14.65149261 -1.84997559 12.10595703 C-1.75317505 10.95466309 -1.65637451 9.80336914 -1.55664062 8.6171875 C-1.47305298 7.60253418 -1.38946533 6.58788086 -1.30334473 5.54248047 C-1 3 -1 3 0 0 Z " fill="#FDFEFE" transform="translate(306,282)"/>
<path d="M0 0 C3.13047066 0.91986029 6.25314931 1.86383417 9.375 2.8125 C10.26445312 3.07353516 11.15390625 3.33457031 12.0703125 3.60351562 C12.92109375 3.86455078 13.771875 4.12558594 14.6484375 4.39453125 C15.43395996 4.63018799 16.21948242 4.86584473 17.02880859 5.10864258 C19 6 19 6 21 9 C21.66405362 11.749008 22.25856216 14.47915916 22.8125 17.25 C27.07095431 37.23996751 34.68195235 55.96272615 46 73 C46.4125 72.55527344 46.825 72.11054688 47.25 71.65234375 C51.78762672 67.20587471 51.78762672 67.20587471 55.0703125 66.6484375 C58.78182061 66.94479366 60.87340594 67.91560396 64 70 C66.33218635 73.49827952 66.83483228 75.62572484 66.640625 79.7734375 C65.48506463 83.7897144 62.38603213 85.79735155 59 88 C60.65273821 92.32013216 63.86441165 95.05173696 67.125 98.1875 C69.10501556 100.10634803 71.06039158 102.03963125 73 104 C73 104.33 73 104.66 73 105 C57.31341512 104.66517428 41.81838928 103.26846517 26.23168945 101.58300781 C17.83503721 100.67935222 9.44541848 99.84231388 1.0234375 99.2109375 C0.22550781 99.14963654 -0.57242188 99.08833557 -1.39453125 99.025177 C-5.17707061 98.73556904 -8.95952892 98.46184494 -12.74511719 98.21533203 C-23.05270877 97.47722474 -31.33105505 95.81659436 -38.4921875 87.97265625 C-43.66649675 81.2031584 -45.10536014 74.41034888 -44 66 C-42.24992302 57.47543149 -36.47960123 50.98108807 -31.28125 44.2734375 C-28.06462496 40.1195807 -25.01261973 35.86581664 -22 31.5625 C-21.51144531 30.86592285 -21.02289063 30.1693457 -20.51953125 29.45166016 C-19.52411447 28.03136239 -18.52932665 26.61062361 -17.53515625 25.18945312 C-15.93577751 22.90840533 -14.32846216 20.63314099 -12.71875 18.359375 C-12.17992187 17.59810303 -11.64109375 16.83683105 -11.0859375 16.05249023 C-10.0602656 14.60382341 -9.03424739 13.1554017 -8.0078125 11.70727539 C-5.2763738 7.84355349 -2.60483805 3.95026148 0 0 Z " fill="#92B1F3" transform="translate(266,392)"/>
<path d="M0 0 C3.26915051 1.01301371 5.92070607 2.48368977 8.87426758 4.21508789 C9.91752197 4.82167236 10.96077637 5.42825684 12.03564453 6.05322266 C13.34750732 6.82722412 14.65937012 7.60122559 16.01098633 8.39868164 C20.19786133 10.85305664 24.38473633 13.30743164 28.69848633 15.83618164 C28.69848633 27.05618164 28.69848633 38.27618164 28.69848633 49.83618164 C22.41817383 53.51774414 22.41817383 53.51774414 16.01098633 57.27368164 C14.69912354 58.04768311 13.38726074 58.82168457 12.03564453 59.61914062 C10.99239014 60.2257251 9.94913574 60.83230957 8.87426758 61.45727539 C7.81119385 62.08045654 6.74812012 62.7036377 5.65283203 63.34570312 C2.85718763 64.75611624 0.81093601 65.60966913 -2.30151367 65.83618164 C-4.27099609 65.12695312 -4.27099609 65.12695312 -6.15698242 63.95727539 C-7.215625 63.31628906 -7.215625 63.31628906 -8.2956543 62.66235352 C-9.01946289 62.2040918 -9.74327148 61.74583008 -10.48901367 61.27368164 C-11.19348633 60.84249023 -11.89795898 60.41129883 -12.6237793 59.96704102 C-14.08544642 59.07152188 -15.5345408 58.15520965 -16.97143555 57.22045898 C-19.30140831 55.75766436 -19.30140831 55.75766436 -22.0065918 54.73706055 C-25.03667697 53.38617484 -27.00707717 52.24828156 -29.30151367 49.83618164 C-31.18162919 44.35020493 -31.42978498 39.09977833 -31.42651367 33.33618164 C-31.43921295 32.56806152 -31.45191223 31.79994141 -31.46499634 31.00854492 C-31.48148739 24.29078019 -31.27248056 18.28894044 -26.95043945 12.91040039 C-21.20195326 8.28321911 -14.75225194 5.31864771 -7.84521484 2.80883789 C-0.42112115 -0.02997478 -0.42112115 -0.02997478 0 0 Z " fill="#FAC950" transform="translate(428.301513671875,347.163818359375)"/>
<path d="M0 0 C4.92239728 1.31624543 9.45436305 4.38521597 13.875 6.875 C15.04095703 7.52662109 15.04095703 7.52662109 16.23046875 8.19140625 C20.83520732 10.76851204 25.41968171 13.37979974 30 16 C32.69065586 45.54607986 32.69065586 45.54607986 28.49267578 52.49511719 C24.63170123 56.05954541 20.08004872 57.7489749 15.11572266 59.27783203 C12.17910934 60.28019785 9.84023182 61.91304003 7.3125 63.6875 C4.57563729 65.54376338 3.57038684 66.0640328 0.24243164 65.69042969 C-10.02117349 63.504941 -21.51035668 58.44312411 -28 50 C-31.75221162 39.59498923 -29.4719484 26.69676224 -28 16 C-26.88757935 15.37955811 -26.88757935 15.37955811 -25.75268555 14.74658203 C-22.99578642 13.20817918 -20.23950783 11.668672 -17.48364258 10.12841797 C-16.29183222 9.46261118 -15.0997771 8.79724231 -13.9074707 8.13232422 C-12.19157316 7.17531258 -10.47663386 6.21658348 -8.76171875 5.2578125 C-7.73006592 4.6817627 -6.69841309 4.10571289 -5.63549805 3.51220703 C-3.7156323 2.41061848 -1.84170566 1.22780377 0 0 Z " fill="#CFDAFB" transform="translate(211,162)"/>
<path d="M0 0 C1.06911621 0.39316406 2.13823242 0.78632812 3.23974609 1.19140625 C4.19155762 1.51238281 5.14336914 1.83335938 6.12402344 2.1640625 C14.03106445 5.08358533 22.00437226 8.34897862 27.23974609 15.19140625 C30.90212874 25.60800197 28.64541847 38.49207691 27.23974609 49.19140625 C23.3771511 51.53304255 19.49979057 53.84706061 15.60644531 56.13720703 C14.28500963 56.91957211 12.96786864 57.70923963 11.65527344 58.50634766 C9.7646432 59.65274798 7.85998509 60.77176497 5.95068359 61.88671875 C5.36918549 62.24702179 4.78768738 62.60732483 4.18856812 62.97854614 C1.14723295 64.71867828 -0.34523305 65.28169452 -3.81494141 64.52685547 C-4.78689453 64.08615723 -5.75884766 63.64545898 -6.76025391 63.19140625 C-7.71206543 62.87042969 -8.66387695 62.54945313 -9.64453125 62.21875 C-17.55157226 59.29922717 -25.52488007 56.03383388 -30.76025391 49.19140625 C-34.42263655 38.77481053 -32.16592628 25.89073559 -30.76025391 15.19140625 C-27.0945012 13.07274864 -23.42831338 10.95484657 -19.76171875 8.83764648 C-18.51420265 8.11715156 -17.26680611 7.39644957 -16.01953125 6.67553711 C-14.22768983 5.63991834 -12.43542107 4.60504268 -10.64306641 3.5703125 C-9.02489014 2.63554077 -9.02489014 2.63554077 -7.37402344 1.68188477 C-2.92300272 -0.85626968 -2.92300272 -0.85626968 0 0 Z " fill="#FA7C9F" transform="translate(347.76025390625,115.80859375)"/>
<path d="M0 0 C1.253573 0.6818335 1.253573 0.6818335 2.5324707 1.37744141 C3.85855347 2.08054443 3.85855347 2.08054443 5.21142578 2.79785156 C6.14881592 3.33200684 7.08620605 3.86616211 8.05200195 4.41650391 C9.584375 5.28662109 9.584375 5.28662109 11.14770508 6.17431641 C12.73035156 7.07923828 12.73035156 7.07923828 14.3449707 8.00244141 C15.4194043 8.61345703 16.49383789 9.22447266 17.60083008 9.85400391 C20.24633147 11.35900025 22.8901332 12.86689931 25.5324707 14.37744141 C25.75587471 18.9669617 25.91864999 23.5532896 26.02685547 28.14697266 C26.0719712 29.70710382 26.1332879 31.26685738 26.21142578 32.82568359 C26.84143117 45.72226445 26.84143117 45.72226445 23.77685547 49.59741211 C21.43055002 51.17635014 19.13472011 52.27843686 16.5324707 53.37744141 C15.13068401 54.2203333 13.74055241 55.08300137 12.36450195 55.96728516 C11.02672919 56.75337235 9.68689859 57.53596863 8.3449707 58.31494141 C7.67272461 58.72550781 7.00047852 59.13607422 6.30786133 59.55908203 C5.64592773 59.94128906 4.98399414 60.32349609 4.30200195 60.71728516 C3.42958862 61.23343384 3.42958862 61.23343384 2.53955078 61.76000977 C-4.019082 63.77762104 -12.08764889 59.14052052 -17.8425293 56.31494141 C-23.78841005 53.13435027 -28.32110589 50.18694304 -30.93237305 43.78759766 C-33.30283774 34.52609337 -33.02007739 24.26066127 -29.4675293 15.37744141 C-24.43080867 9.19329884 -17.42012433 6.07871231 -10.0546875 3.40356445 C-7.37319557 2.45370357 -7.37319557 2.45370357 -4.94873047 0.62670898 C-2.4675293 -0.62255859 -2.4675293 -0.62255859 0 0 Z " fill="#FB8E03" transform="translate(187.467529296875,303.62255859375)"/>
<path d="M0 0 C0.91434814 0.3314502 1.82869629 0.66290039 2.77075195 1.00439453 C10.7062794 4.02191883 18.40560477 7.42902419 24 14 C27.72943285 22.86574119 27.97462817 33.14598216 25.49707031 42.42626953 C21.93952599 50.91865925 13.89025875 54.46782867 5.8359375 57.96484375 C-4.0352357 61.79165837 -4.0352357 61.79165837 -8.8684082 59.84423828 C-9.83609131 59.25884277 -10.80377441 58.67344727 -11.80078125 58.0703125 C-12.85974609 57.43996094 -13.91871094 56.80960937 -15.00976562 56.16015625 C-16.64461914 55.15275391 -16.64461914 55.15275391 -18.3125 54.125 C-19.42173828 53.46113281 -20.53097656 52.79726563 -21.67382812 52.11328125 C-29.73319892 47.26680108 -29.73319892 47.26680108 -31 46 C-31.38734139 41.53376938 -31.48515209 37.06259914 -31.56982422 32.58227539 C-31.60640382 31.07749438 -31.6608987 29.573035 -31.73388672 28.06958008 C-32.32764117 15.65135615 -32.32764117 15.65135615 -29.25976562 11.83544922 C-26.91240385 10.26019235 -24.58637932 9.13450384 -22 8 C-20.51176909 7.07465253 -19.03719027 6.12693415 -17.578125 5.15625 C-16.13702375 4.26822004 -14.69432005 3.38278513 -13.25 2.5 C-12.52167969 2.03335938 -11.79335938 1.56671875 -11.04296875 1.0859375 C-10.33269531 0.65539062 -9.62242187 0.22484375 -8.890625 -0.21875 C-8.26188477 -0.60998047 -7.63314453 -1.00121094 -6.98535156 -1.40429688 C-4.10067951 -2.26984038 -2.67868317 -1.27470613 0 0 Z " fill="#66CAD1" transform="translate(456,211)"/>
<path d="M0 0 C12.93512566 0.78488587 25.8395318 1.88851602 38.75 3 C40.85285421 3.1798088 42.95571874 3.35949702 45.05859375 3.5390625 C54.37461609 4.33624536 63.68899055 5.14596942 73 6 C73.16833528 11.13422602 72.96067313 15.77207917 71.9921875 20.82421875 C71.71544189 22.28541138 71.71544189 22.28541138 71.43310547 23.77612305 C71.29018066 24.51000244 71.14725586 25.24388184 71 26 C63.08834129 25.3897538 55.17723596 24.7729018 47.26673317 24.1478672 C43.59261191 23.8577663 39.91834798 23.56984937 36.24365234 23.28710938 C32.69002264 23.0136005 29.13690711 22.73411228 25.58405685 22.45066452 C23.58496992 22.29269025 21.58541021 22.1407352 19.58584595 21.98892212 C12.59755089 21.42585778 5.83098515 20.59809561 -1 19 C-1.02740022 17.14591875 -1.04657422 15.29171531 -1.0625 13.4375 C-1.07410156 12.40496094 -1.08570313 11.37242187 -1.09765625 10.30859375 C-0.99432192 6.80762661 -0.51906785 3.46105102 0 0 Z " fill="#90AFF1" transform="translate(295,241)"/>
<path d="M0 0 C0.495 10.395 0.495 10.395 1 21 C-4.10811807 22.85286993 -9.21656167 24.70478194 -14.32592773 26.55419922 C-16.06539323 27.18415989 -17.80465161 27.81469277 -19.54370117 28.44580078 C-22.03771104 29.35077616 -24.53244895 30.25371759 -27.02734375 31.15625 C-27.80963852 31.44060913 -28.59193329 31.72496826 -29.39793396 32.01794434 C-34.88612829 34 -34.88612829 34 -36 34 C-36.33 26.74 -36.66 19.48 -37 12 C-32.3756088 10.28499399 -27.75011492 8.57403722 -23.12060547 6.87304688 C-21.54650626 6.29333742 -19.97325372 5.71132356 -18.40087891 5.12695312 C-16.13923853 4.28687445 -13.87467223 3.45515908 -11.609375 2.625 C-10.90818542 2.36251465 -10.20699585 2.1000293 -9.48455811 1.82958984 C-6.07520615 0.58925831 -3.68090135 0 0 0 Z " fill="#6865F5" transform="translate(297,155)"/>
<path d="M0 0 C2.96460633 2.06233484 4.67606665 3.55797411 5.484375 7.15625 C5.75206639 11.61777318 5.45340247 13.44196619 2.5625 17 C1.716875 17.66 0.87125 18.32 0 19 C-0.33 19.33 -0.66 19.66 -1 20 C-4.79637418 20.18040621 -8.52942185 20.02974122 -11.70703125 17.8046875 C-13.93136255 15.35600002 -14.95632255 13.23294639 -15.5625 10 C-14.84011419 6.14727567 -13.51724081 3.99347556 -11 1 C-7.136072 -1.33869327 -4.28002733 -1.33750854 0 0 Z " fill="#6966F6" transform="translate(278,429)"/>
<path d="M0 0 C3.08813077 2.05875385 4.66221204 3.4716479 5.4765625 7.15625 C5.7373529 11.27399315 5.30522556 13.50146493 3.125 17.0625 C-1.26194256 19.78240438 -4.97226815 20.15390567 -10 19 C-12.76686072 17.25380346 -13.35040369 16.0242599 -15 13 C-15.619038 9.53338719 -15.80972674 7.3277137 -13.9375 4.2578125 C-9.67915679 -1.03976924 -6.47720461 -1.75862917 0 0 Z " fill="#6A66F7" transform="translate(327,460)"/>
<path d="M0 0 C3.64568185 3.05046849 4.8388089 4.85151339 5.5 9.5625 C4.86639423 13.9185397 3.75180748 16.57260132 0.3125 19.375 C-3.29526194 20.3500708 -6.49599546 20.16338491 -10 19 C-13.27371352 16.3275808 -14.78236726 14.93525725 -15.25390625 10.7421875 C-15.03994944 6.8131625 -14.44354952 4.56829782 -12 1.4375 C-7.89582851 -0.52908217 -4.46060765 -1.05667197 0 0 Z " fill="#6A66F7" transform="translate(366,440)"/>
<path d="M0 0 C0.33 0 0.66 0 1 0 C1.33 10.56 1.66 21.12 2 32 C-3.94 30.35 -9.88 28.7 -16 27 C-16 22.70406219 -15.61251287 21.94677598 -13.26171875 18.59375 C-12.40223633 17.35431641 -12.40223633 17.35431641 -11.52539062 16.08984375 C-10.61563477 14.80787109 -10.61563477 14.80787109 -9.6875 13.5 C-9.09259766 12.64535156 -8.49769531 11.79070312 -7.88476562 10.91015625 C-6.26973906 8.59678859 -4.64633158 6.29118626 -3 4 C-2.46093018 3.24912109 -1.92186035 2.49824219 -1.36645508 1.72460938 C-0.9155249 1.15548828 -0.46459473 0.58636719 0 0 Z " fill="#CFDAFB" transform="translate(284,367)"/>
<path d="M0 0 C2.31 0.33 4.62 0.66 7 1 C6.04855402 2.81612488 5.08863067 4.62781081 4.125 6.4375 C3.59132813 7.44683594 3.05765625 8.45617187 2.5078125 9.49609375 C1 12 1 12 -1 13 C-1.02708567 11.39592672 -1.04643483 9.7917215 -1.0625 8.1875 C-1.07410156 7.29417969 -1.08570313 6.40085937 -1.09765625 5.48046875 C-1 3 -1 3 0 0 Z " fill="#C2CEF2" transform="translate(306,282)"/>
</svg>
