<?xml version="1.0" encoding="UTF-8"?>
<svg version="1.1" xmlns="http://www.w3.org/2000/svg" width="640" height="640">
<path d="M0 0 C211.2 0 422.4 0 640 0 C640 211.2 640 422.4 640 640 C428.8 640 217.6 640 0 640 C0 428.8 0 217.6 0 0 Z " fill="#FEFEFE" transform="translate(0,0)"/>
<path d="M0 0 C3.55978209 1.47457156 6.85202522 3.32822663 10.1875 5.25 C11.14060059 5.78633057 12.09370117 6.32266113 13.07568359 6.87524414 C16.06115712 8.56550192 19.03144289 10.28023377 22 12 C22.96019043 12.54962402 23.92038086 13.09924805 24.90966797 13.66552734 C27.65682486 15.2417494 30.39307727 16.83504194 33.125 18.4375 C33.95926514 18.92057617 34.79353027 19.40365234 35.65307617 19.90136719 C36.81867065 20.59794434 36.81867065 20.59794434 38.0078125 21.30859375 C38.68473145 21.70876709 39.36165039 22.10894043 40.05908203 22.52124023 C42.64598795 24.49216969 44.2661791 26.22493261 46 29 C46.34287211 31.8545025 46.46989493 34.3040575 46.390625 37.14453125 C46.38496521 37.91431808 46.37930542 38.68410492 46.37347412 39.47721863 C46.35117872 41.92295943 46.30099875 44.3672061 46.25 46.8125 C46.229926 48.47589022 46.2116768 50.13930353 46.1953125 51.80273438 C46.15133684 55.86906058 46.08235979 59.93427744 46 64 C46.57250488 64.1549292 47.14500977 64.3098584 47.73486328 64.46948242 C56.19881584 66.87227745 64.18025607 70.28843505 72.25 73.76757812 C73.31992187 74.21166016 74.38984375 74.65574219 75.4921875 75.11328125 C76.93634033 75.72876831 76.93634033 75.72876831 78.40966797 76.35668945 C80.94601358 77.24085802 80.94601358 77.24085802 83.12207031 76.23828125 C83.74178711 75.82964844 84.36150391 75.42101562 85 75 C85.86987549 74.53533325 85.86987549 74.53533325 86.75732422 74.0612793 C88.79856193 72.94028988 90.83751192 71.81529207 92.875 70.6875 C93.65149902 70.26033691 94.42799805 69.83317383 95.22802734 69.39306641 C99.81773025 66.8460484 104.33030791 64.20697428 108.796875 61.44921875 C109.76641113 60.8560083 110.73594727 60.26279785 111.73486328 59.65161133 C113.62788101 58.48794432 115.51212781 57.30985802 117.38623047 56.1159668 C125.88046799 50.91670545 125.88046799 50.91670545 130.73046875 51.32861328 C136.48424974 53.03073223 141.57791387 56.4275869 146.6875 59.5 C147.88906179 60.20468266 149.09153169 60.90781926 150.29492188 61.609375 C153.28316888 63.35857297 156.25398827 65.13490328 159.2177124 66.92529297 C161.02505433 68.01510759 162.83782891 69.09549576 164.65087891 70.17578125 C165.8157648 70.87704781 166.98032853 71.57884987 168.14453125 72.28125 C169.17553955 72.90064453 170.20654785 73.52003906 171.26879883 74.15820312 C177.68824117 78.48718078 177.68824117 78.48718078 178.5146637 82.49742126 C178.52086227 83.43276199 178.52706085 84.36810272 178.53344727 85.33178711 C178.5492836 86.39646713 178.56511993 87.46114716 178.58143616 88.55809021 C178.57399635 90.27537071 178.57399635 90.27537071 178.56640625 92.02734375 C178.57260483 93.20841202 178.57880341 94.38948029 178.58518982 95.6063385 C178.59229277 98.10368017 178.58910581 100.60106914 178.57641602 103.09838867 C178.56256345 106.91999511 178.59660334 110.73914778 178.63476562 114.56054688 C178.63571692 116.98697977 178.63385745 119.41341572 178.62890625 121.83984375 C178.64216446 122.98267319 178.65542267 124.12550262 178.66908264 125.30296326 C178.5764486 133.19546584 178.5764486 133.19546584 175.83300781 137.02441406 C172.94242206 139.04015173 170.07937973 140.97882734 167.04296875 142.76953125 C165.93115234 143.43017578 164.81933594 144.09082031 163.67382812 144.77148438 C162.51181477 145.45198691 161.34970419 146.13232344 160.1875 146.8125 C159.00545247 147.51168233 157.82380778 148.21154618 156.64257812 148.91210938 C153.76560405 150.61480832 150.88473 152.31048596 148 154 C148.52961351 161.89435668 149.26284645 169.68510929 150.5 177.5 C150.63019531 178.35335937 150.76039063 179.20671875 150.89453125 180.0859375 C151.25033337 182.39326033 151.60922921 184.69833958 152 187 C152.0623584 187.84014648 152.1247168 188.68029297 152.18896484 189.54589844 C153.38251471 193.15744669 155.40425077 193.87081612 158.6953125 195.671875 C159.56560341 196.15793968 159.56560341 196.15793968 160.45347595 196.65382385 C162.33594881 197.70122054 164.23014887 198.72519854 166.125 199.75 C167.41309435 200.46316527 168.70012408 201.17825679 169.98608398 201.89526367 C172.51099373 203.30202746 175.03933231 204.70224398 177.57080078 206.09716797 C181.77834042 208.43189415 185.93610357 210.83773533 190.0625 213.3125 C191.71958984 214.29669922 191.71958984 214.29669922 193.41015625 215.30078125 C195.69958283 216.80289371 197.31576154 217.87407825 199 220 C199.40786743 222.40840149 199.40786743 222.40840149 199.45166016 225.29418945 C199.48521103 226.91651237 199.48521103 226.91651237 199.5194397 228.5716095 C199.52591522 229.74036118 199.53239075 230.90911285 199.5390625 232.11328125 C199.55141937 233.31558884 199.56377625 234.51789642 199.57650757 235.75663757 C199.59609396 238.30279666 199.60730943 240.8490317 199.61083984 243.39526367 C199.62490994 247.28758523 199.69221136 251.17668499 199.76171875 255.06835938 C199.77411872 257.54165238 199.78333754 260.01496379 199.7890625 262.48828125 C199.81578033 263.65096024 199.84249817 264.81363922 199.87002563 266.0115509 C199.80414345 273.86330851 199.80414345 273.86330851 197.59999084 276.97897339 C195.81714338 278.56213445 194.05115795 279.78931645 192 281 C190.50376099 281.97163086 190.50376099 281.97163086 188.97729492 282.96289062 C187.98834229 283.52169922 186.99938965 284.08050781 185.98046875 284.65625 C184.87509766 285.28660156 183.76972656 285.91695313 182.63085938 286.56640625 C181.49455078 287.20449219 180.35824219 287.84257812 179.1875 288.5 C176.93053788 289.78045415 174.67402107 291.06169354 172.41796875 292.34375 C171.32790527 292.95605469 170.2378418 293.56835938 169.11474609 294.19921875 C166.25758253 295.85107942 163.50702502 297.6121597 160.73828125 299.40625 C156.22083728 302.08769816 152.30969779 303.72013202 147 303 C143.36999181 301.6637257 140.17344127 299.81817319 136.875 297.8125 C136.02035156 297.31685547 135.16570312 296.82121094 134.28515625 296.31054688 C131.15801906 294.492388 128.03966992 292.67169686 125.00097656 290.70849609 C122.41819973 289.08605407 120.52682982 288.01286913 117.44140625 287.9375 C114.09836716 289.39239061 111.60714779 291.57662968 108.9375 294 C107.90862059 294.92078702 106.87587904 295.83727197 105.83984375 296.75 C105.27418701 297.27706543 104.70853027 297.80413086 104.12573242 298.34716797 C102 300 102 300 98.9152832 301.43798828 C95.13044918 303.44989547 92.12818315 305.2427942 90 309 C87.94921107 317.70511623 88.92455646 327.02034864 89.3125 335.875 C89.38132666 338.36182857 89.44453544 340.84881936 89.50195312 343.3359375 C89.58262662 346.82879371 89.67153536 350.31903253 89.80549622 353.81027222 C89.84430405 354.84209625 89.88311188 355.87392029 89.9230957 356.93701172 C89.98071831 358.29860916 89.98071831 358.29860916 90.039505 359.68771362 C90 362 90 362 89 365 C89.86175681 366.87965679 89.86175681 366.87965679 91.2890625 368.78125 C92.07337646 369.90599731 92.07337646 369.90599731 92.87353516 371.0534668 C93.45151855 371.86082275 94.02950195 372.66817871 94.625 373.5 C95.83361681 375.22506184 97.04194206 376.95032798 98.25 378.67578125 C98.87390625 379.55959473 99.4978125 380.4434082 100.140625 381.35400391 C103.00990695 385.43715488 105.81582689 389.56288001 108.625 393.6875 C111.76859795 398.28822242 114.91747485 402.88510818 118.0859375 407.46875 C118.57755371 408.18071533 119.06916992 408.89268066 119.57568359 409.6262207 C120.48592677 410.94353012 121.397573 412.25987186 122.31103516 413.57495117 C131.2228987 426.47681214 131.2228987 426.47681214 132.75 432.25 C132.97171875 433.05953125 133.1934375 433.8690625 133.421875 434.703125 C133.70804687 435.84007812 133.70804687 435.84007812 134 437 C134.18433594 437.64582031 134.36867188 438.29164063 134.55859375 438.95703125 C137.05603784 450.51599817 133.69283767 461.98783371 127.6875 471.875 C119.36378464 484.05950248 109.49090813 490.14612855 95 493 C87.85513644 494.01398445 80.63813094 494.38800684 73.44140625 494.8515625 C71.3640758 494.99663426 69.286842 495.14309588 67.20970154 495.29086304 C61.76643255 495.67465355 56.3221315 496.04094084 50.87738037 496.40301514 C44.32438638 496.84184409 37.77276685 497.30063257 31.22098446 497.75713158 C26.10881365 498.11303865 20.9965131 498.46605173 15.88343811 498.80874634 C5.11898957 499.53548826 -5.62975882 500.36403074 -16.37475491 501.34002113 C-46.93165883 504.09616037 -46.93165883 504.09616037 -58 498 C-58.84175781 497.5875 -59.68351562 497.175 -60.55078125 496.75 C-72.83962578 490.18600413 -78.84748403 480.00718849 -83.3125 467.25 C-87.07515612 449.66681853 -80.30654385 436.02081836 -72.75 420.8125 C-71.91256571 419.11292524 -71.07591472 417.41296434 -70.23999023 415.71264648 C-68.44774116 412.06911029 -66.65157279 408.42754133 -64.85302734 404.78710938 C-61.90226088 398.8089067 -58.97467369 392.81950781 -56.05078125 386.828125 C-55.04989188 384.77815472 -54.0489967 382.72818727 -53.0480957 380.67822266 C-51.5579735 377.62599372 -50.06796895 374.57370781 -48.57846069 371.5211792 C-39.35758318 352.63174737 -39.35758318 352.63174737 -34.875 343.8984375 C-34.01249634 342.2112561 -34.01249634 342.2112561 -33.13256836 340.48999023 C-32.13145604 338.54365104 -31.12026964 336.60243775 -30.09594727 334.66821289 C-27.82607736 330.26056815 -26.39639416 327.10170963 -27 322 C-29.88744312 320.79133415 -32.78599827 319.61197063 -35.6875 318.4375 C-36.50412109 318.09525391 -37.32074219 317.75300781 -38.16210938 317.40039062 C-39.35610352 316.92182617 -39.35610352 316.92182617 -40.57421875 316.43359375 C-41.30213623 316.13509521 -42.03005371 315.83659668 -42.7800293 315.52905273 C-47.95673801 314.29536443 -51.66828615 316.75820758 -56.0078125 319.38671875 C-56.57394257 319.72621048 -57.14007263 320.06570221 -57.72335815 320.41548157 C-59.52813208 321.49931625 -61.32676876 322.5928509 -63.125 323.6875 C-67.73880296 326.47737347 -72.36606398 329.24371255 -77 332 C-78.50385254 332.91966553 -78.50385254 332.91966553 -80.03808594 333.85791016 C-88.90912718 339.06815409 -88.90912718 339.06815409 -93.828125 338.63574219 C-99.14860508 337.07835346 -103.79997172 333.98857305 -108.5 331.125 C-109.65688614 330.43518717 -110.81452573 329.74663645 -111.97290039 329.05932617 C-115.32837576 327.06098282 -118.66405306 325.03077763 -122 323 C-123.71704973 321.97199088 -125.43445125 320.9445689 -127.15234375 319.91796875 C-128.58201854 319.05160332 -130.01052032 318.18329736 -131.4375 317.3125 C-132.07429688 316.92787598 -132.71109375 316.54325195 -133.3671875 316.14697266 C-136.64128046 314.10066456 -138.97749921 312.29383023 -141 309 C-141.39440918 306.5852356 -141.39440918 306.5852356 -141.41992188 303.86767578 C-141.43583374 302.84626495 -141.45174561 301.82485413 -141.46813965 300.77249146 C-141.46844177 299.12553787 -141.46844177 299.12553787 -141.46875 297.4453125 C-141.47636353 296.311008 -141.48397705 295.17670349 -141.49182129 294.00802612 C-141.5026246 291.60905152 -141.50547448 289.21002987 -141.50097656 286.81103516 C-141.50000539 283.1453577 -141.54160425 279.48178086 -141.5859375 275.81640625 C-141.59114538 273.48437936 -141.59383268 271.1523452 -141.59375 268.8203125 C-141.6183429 267.17943161 -141.6183429 267.17943161 -141.64343262 265.50540161 C-141.5665098 257.00984206 -141.5665098 257.00984206 -138.8215332 253.47387695 C-136.05560002 251.04874924 -133.51826392 249.2954536 -130.26171875 247.59765625 C-128.66166992 246.72657227 -128.66166992 246.72657227 -127.02929688 245.83789062 C-124.78779102 244.6470497 -122.54026929 243.46746879 -120.28710938 242.29882812 C-119.22685547 241.71681641 -118.16660156 241.13480469 -117.07421875 240.53515625 C-116.10057373 240.023479 -115.12692871 239.51180176 -114.1237793 238.98461914 C-111.64879609 237.10674936 -111.64879609 237.10674936 -111.65844727 233.72143555 C-111.77115967 232.49336182 -111.88387207 231.26528809 -112 230 C-112.07009277 228.28441895 -112.07009277 228.28441895 -112.14160156 226.53417969 C-112.75352556 210.72811896 -112.75352556 210.72811896 -118.84521484 196.69238281 C-123.40734479 193.07928283 -128.67547586 191.1519888 -134.09765625 189.16943359 C-139.3444581 187.05535378 -144.09739573 184.09131956 -148.9375 181.1875 C-149.86618896 180.65882324 -150.79487793 180.13014648 -151.75170898 179.58544922 C-152.62641846 179.07643066 -153.50112793 178.56741211 -154.40234375 178.04296875 C-155.17054443 177.59977295 -155.93874512 177.15657715 -156.73022461 176.69995117 C-160.62013905 173.7865948 -163.54744068 171.44718114 -164.4495697 166.56898499 C-164.62866304 163.58457442 -164.6405608 160.64177976 -164.59375 157.65234375 C-164.59379028 156.56288956 -164.59383057 155.47343536 -164.59387207 154.35096741 C-164.5885232 152.053825 -164.57096786 149.75668267 -164.54199219 147.4597168 C-164.50009994 143.94588266 -164.50092945 140.43396394 -164.5078125 136.91992188 C-164.49732081 134.68488253 -164.48438283 132.44985305 -164.46875 130.21484375 C-164.46854858 129.16578354 -164.46834717 128.11672333 -164.46813965 127.03587341 C-164.31895279 117.83543458 -164.31895279 117.83543458 -161 114 C-159.23486328 112.48486328 -159.23486328 112.48486328 -157.1953125 111.1953125 C-156.39899414 110.69161133 -155.60267578 110.18791016 -154.78222656 109.66894531 C-149.19484039 106.31729808 -143.54608679 103.08194398 -137.875 99.875 C-136.01377494 98.81787061 -134.15306678 97.75983748 -132.2925415 96.70147705 C-130.54208189 95.70800502 -128.78817743 94.72061038 -127.03417969 93.73339844 C-124.65341701 92.37329102 -122.33229767 90.95917968 -120.0078125 89.5078125 C-116.55170582 87.77527071 -114.82296395 87.66083524 -111 88 C-108.16333008 89.25341797 -108.16333008 89.25341797 -105.26953125 90.9921875 C-104.21958984 91.61480469 -103.16964844 92.23742187 -102.08789062 92.87890625 C-101.00701172 93.53761719 -99.92613281 94.19632812 -98.8125 94.875 C-97.72001953 95.52597656 -96.62753906 96.17695313 -95.50195312 96.84765625 C-91.62039865 99.16750088 -87.7628144 101.49145706 -84 104 C-79.96291136 103.77855632 -77.56881875 101.18168642 -74.625 98.625 C-73.57061119 97.72078626 -72.51454833 96.81852184 -71.45703125 95.91796875 C-70.90096191 95.44407715 -70.34489258 94.97018555 -69.77197266 94.48193359 C-66.07611577 91.39101994 -62.25811215 88.45291625 -58.45751953 85.49267578 C-55.6337409 83.35657172 -55.6337409 83.35657172 -53 81 C-52.90327295 79.40512925 -52.87484273 77.80605299 -52.87402344 76.20825195 C-52.87021667 75.18661453 -52.86640991 74.16497711 -52.86248779 73.11238098 C-52.86146057 71.99892807 -52.86043335 70.88547516 -52.859375 69.73828125 C-52.84104284 67.39907884 -52.82147215 65.05988586 -52.80078125 62.72070312 C-52.771825 59.01847513 -52.75000057 55.31685048 -52.74951172 51.61450195 C-52.74617626 48.05104541 -52.71160941 44.48899394 -52.671875 40.92578125 C-52.6789447 39.82244949 -52.6860144 38.71911774 -52.69329834 37.58235168 C-52.55745726 28.99765349 -52.55745726 28.99765349 -49.765625 25.44702148 C-47.25991672 23.22997399 -45.01052134 21.51172844 -42.078125 19.921875 C-41.14291016 19.40520264 -40.20769531 18.88853027 -39.24414062 18.35620117 C-38.25607422 17.82615479 -37.26800781 17.2961084 -36.25 16.75 C-34.18130733 15.6176819 -32.11360703 14.48354902 -30.046875 13.34765625 C-28.51450195 12.50871826 -28.51450195 12.50871826 -26.95117188 11.65283203 C-24.24448969 10.13692879 -21.59294112 8.56247304 -18.953125 6.93359375 C-18.19483398 6.46791992 -17.43654297 6.00224609 -16.65527344 5.52246094 C-15.26054622 4.65857688 -13.87261007 3.78358911 -12.49316406 2.89550781 C-8.0901085 0.19481615 -5.12321375 -0.82386078 0 0 Z " fill="#072C76" transform="translate(302,92)"/>
<path d="M0 0 C3.55978209 1.47457156 6.85202522 3.32822663 10.1875 5.25 C11.14060059 5.78633057 12.09370117 6.32266113 13.07568359 6.87524414 C16.06115712 8.56550192 19.03144289 10.28023377 22 12 C22.96019043 12.54962402 23.92038086 13.09924805 24.90966797 13.66552734 C27.65682486 15.2417494 30.39307727 16.83504194 33.125 18.4375 C33.95926514 18.92057617 34.79353027 19.40365234 35.65307617 19.90136719 C36.81867065 20.59794434 36.81867065 20.59794434 38.0078125 21.30859375 C38.68473145 21.70876709 39.36165039 22.10894043 40.05908203 22.52124023 C42.64598795 24.49216969 44.2661791 26.22493261 46 29 C46.34287211 31.8545025 46.46989493 34.3040575 46.390625 37.14453125 C46.38496521 37.91431808 46.37930542 38.68410492 46.37347412 39.47721863 C46.35117872 41.92295943 46.30099875 44.3672061 46.25 46.8125 C46.229926 48.47589022 46.2116768 50.13930353 46.1953125 51.80273438 C46.15133684 55.86906058 46.08235979 59.93427744 46 64 C46.57250488 64.1549292 47.14500977 64.3098584 47.73486328 64.46948242 C56.19881584 66.87227745 64.18025607 70.28843505 72.25 73.76757812 C73.31992187 74.21166016 74.38984375 74.65574219 75.4921875 75.11328125 C76.93634033 75.72876831 76.93634033 75.72876831 78.40966797 76.35668945 C80.94601358 77.24085802 80.94601358 77.24085802 83.12207031 76.23828125 C83.74178711 75.82964844 84.36150391 75.42101562 85 75 C85.86987549 74.53533325 85.86987549 74.53533325 86.75732422 74.0612793 C88.79856193 72.94028988 90.83751192 71.81529207 92.875 70.6875 C93.65149902 70.26033691 94.42799805 69.83317383 95.22802734 69.39306641 C99.81773025 66.8460484 104.33030791 64.20697428 108.796875 61.44921875 C109.76641113 60.8560083 110.73594727 60.26279785 111.73486328 59.65161133 C113.62788101 58.48794432 115.51212781 57.30985802 117.38623047 56.1159668 C125.88046799 50.91670545 125.88046799 50.91670545 130.73046875 51.32861328 C136.48424974 53.03073223 141.57791387 56.4275869 146.6875 59.5 C147.88906179 60.20468266 149.09153169 60.90781926 150.29492188 61.609375 C153.28316888 63.35857297 156.25398827 65.13490328 159.2177124 66.92529297 C161.02505433 68.01510759 162.83782891 69.09549576 164.65087891 70.17578125 C165.8157648 70.87704781 166.98032853 71.57884987 168.14453125 72.28125 C169.17553955 72.90064453 170.20654785 73.52003906 171.26879883 74.15820312 C177.68824117 78.48718078 177.68824117 78.48718078 178.5146637 82.49742126 C178.52086227 83.43276199 178.52706085 84.36810272 178.53344727 85.33178711 C178.5492836 86.39646713 178.56511993 87.46114716 178.58143616 88.55809021 C178.57399635 90.27537071 178.57399635 90.27537071 178.56640625 92.02734375 C178.57260483 93.20841202 178.57880341 94.38948029 178.58518982 95.6063385 C178.59229277 98.10368017 178.58910581 100.60106914 178.57641602 103.09838867 C178.56256345 106.91999511 178.59660334 110.73914778 178.63476562 114.56054688 C178.63571692 116.98697977 178.63385745 119.41341572 178.62890625 121.83984375 C178.64216446 122.98267319 178.65542267 124.12550262 178.66908264 125.30296326 C178.5764486 133.19546584 178.5764486 133.19546584 175.83300781 137.02441406 C172.94242206 139.04015173 170.07937973 140.97882734 167.04296875 142.76953125 C165.93115234 143.43017578 164.81933594 144.09082031 163.67382812 144.77148438 C162.51181477 145.45198691 161.34970419 146.13232344 160.1875 146.8125 C159.00545247 147.51168233 157.82380778 148.21154618 156.64257812 148.91210938 C153.76560405 150.61480832 150.88473 152.31048596 148 154 C148.52961351 161.89435668 149.26284645 169.68510929 150.5 177.5 C150.63019531 178.35335937 150.76039063 179.20671875 150.89453125 180.0859375 C151.25033337 182.39326033 151.60922921 184.69833958 152 187 C152.0623584 187.84014648 152.1247168 188.68029297 152.18896484 189.54589844 C153.38251471 193.15744669 155.40425077 193.87081612 158.6953125 195.671875 C159.56560341 196.15793968 159.56560341 196.15793968 160.45347595 196.65382385 C162.33594881 197.70122054 164.23014887 198.72519854 166.125 199.75 C167.41309435 200.46316527 168.70012408 201.17825679 169.98608398 201.89526367 C172.51099373 203.30202746 175.03933231 204.70224398 177.57080078 206.09716797 C181.77834042 208.43189415 185.93610357 210.83773533 190.0625 213.3125 C191.71958984 214.29669922 191.71958984 214.29669922 193.41015625 215.30078125 C195.69958283 216.80289371 197.31576154 217.87407825 199 220 C199.40786743 222.40840149 199.40786743 222.40840149 199.45166016 225.29418945 C199.48521103 226.91651237 199.48521103 226.91651237 199.5194397 228.5716095 C199.52591522 229.74036118 199.53239075 230.90911285 199.5390625 232.11328125 C199.55141937 233.31558884 199.56377625 234.51789642 199.57650757 235.75663757 C199.59609396 238.30279666 199.60730943 240.8490317 199.61083984 243.39526367 C199.62490994 247.28758523 199.69221136 251.17668499 199.76171875 255.06835938 C199.77411872 257.54165238 199.78333754 260.01496379 199.7890625 262.48828125 C199.81578033 263.65096024 199.84249817 264.81363922 199.87002563 266.0115509 C199.80414345 273.86330851 199.80414345 273.86330851 197.59999084 276.97897339 C195.81714338 278.56213445 194.05115795 279.78931645 192 281 C190.50376099 281.97163086 190.50376099 281.97163086 188.97729492 282.96289062 C187.98834229 283.52169922 186.99938965 284.08050781 185.98046875 284.65625 C184.87509766 285.28660156 183.76972656 285.91695313 182.63085938 286.56640625 C181.49455078 287.20449219 180.35824219 287.84257812 179.1875 288.5 C176.93053788 289.78045415 174.67402107 291.06169354 172.41796875 292.34375 C171.32790527 292.95605469 170.2378418 293.56835938 169.11474609 294.19921875 C166.25758253 295.85107942 163.50702502 297.6121597 160.73828125 299.40625 C156.22886637 302.09109888 152.3001024 303.64575692 147 303 C143.67504664 301.85980743 140.80760858 300.19850691 137.8125 298.375 C136.96751953 297.88370605 136.12253906 297.39241211 135.25195312 296.88623047 C133.4429254 295.83052318 131.6398351 294.76458726 129.84228516 293.68945312 C126.89751806 291.93908478 123.92751344 290.23948905 120.94921875 288.546875 C118.96537407 287.40759284 116.98228276 286.26699766 115 285.125 C114.06260986 284.59052246 113.12521973 284.05604492 112.15942383 283.50537109 C111.28181396 282.99055176 110.4042041 282.47573242 109.5 281.9453125 C108.33984375 281.27266357 108.33984375 281.27266357 107.15625 280.58642578 C104.31453751 278.49568215 102.78149607 277.10776225 101 274 C100.39594837 270.03246678 100.41581339 266.10095644 100.43359375 262.09375 C100.42429588 260.35756409 100.42429588 260.35756409 100.41481018 258.58630371 C100.40771428 256.14201701 100.41088192 253.69768196 100.42358398 251.25341797 C100.43745145 247.51309353 100.40336867 243.77526953 100.36523438 240.03515625 C100.3642832 237.65885355 100.36614192 235.28254773 100.37109375 232.90625 C100.35783554 231.7884314 100.34457733 230.67061279 100.33091736 229.5189209 C100.42356298 221.79728647 100.42356298 221.79728647 103.18505859 217.9777832 C105.9707262 216.02056782 108.72188602 214.15714618 111.66796875 212.44921875 C112.72564453 211.83369141 113.78332031 211.21816406 114.87304688 210.58398438 C115.96681641 209.95814453 117.06058594 209.33230469 118.1875 208.6875 C119.29287109 208.04232422 120.39824219 207.39714844 121.53710938 206.73242188 C129.7249504 202 129.7249504 202 132 202 C131.84853516 200.89487061 131.69707031 199.78974121 131.54101562 198.65112305 C130.97991483 194.55325265 130.42144396 190.45502743 129.86376953 186.35668945 C129.62197514 184.58250282 129.37946636 182.8084134 129.13623047 181.03442383 C128.78685938 178.48544085 128.44005364 175.93612005 128.09375 173.38671875 C127.9843811 172.59287277 127.87501221 171.79902679 127.7623291 170.98112488 C127.3542628 167.9623579 127 165.05018806 127 162 C126.4649585 161.90340088 125.92991699 161.80680176 125.37866211 161.70727539 C122.27395656 160.78411702 119.75075501 159.29706965 116.94140625 157.68359375 C116.06390968 157.18147118 116.06390968 157.18147118 115.16868591 156.66920471 C113.92763298 155.95777893 112.68791991 155.2440114 111.44946289 154.52807617 C109.60272413 153.46074766 107.75201944 152.40061421 105.90039062 151.34179688 C102.86340722 149.60068378 99.83801965 147.84072431 96.81964111 146.06756592 C95.59014027 145.34622962 94.35876144 144.62808623 93.12567139 143.91290283 C91.31550921 142.86017978 89.51434014 141.79348538 87.71484375 140.72265625 C86.66288818 140.10269775 85.61093262 139.48273926 84.52709961 138.84399414 C81.86230843 136.89952812 80.92472544 136.12056855 80 133 C79.7645543 130.35997941 79.62815579 127.8145854 79.5859375 125.171875 C79.55688828 124.04836639 79.55688828 124.04836639 79.5272522 122.90216064 C79.46764284 120.51822164 79.42114646 118.13423386 79.375 115.75 C79.33680299 114.13018769 79.29775025 112.51039532 79.2578125 110.890625 C79.16195687 106.92724594 79.07785754 102.96377181 79 99 C74.39839736 97.11373518 69.79034313 95.24459774 65.17553711 93.39086914 C63.60724964 92.75814235 62.04081243 92.1208089 60.47631836 91.47875977 C58.22462272 90.55562891 55.96675014 89.64937582 53.70703125 88.74609375 C53.01100296 88.45657333 52.31497467 88.16705292 51.59785461 87.86875916 C47.6462689 86.31073153 45.04043279 85.52712469 41 87 C39.06942368 87.96347679 37.17670004 89.00462401 35.31640625 90.09765625 C34.23020996 90.7311499 33.14401367 91.36464355 32.02490234 92.01733398 C31.45874207 92.3519162 30.89258179 92.68649841 30.30926514 93.03121948 C28.55130097 94.06911184 26.78758033 95.09650999 25.02197266 96.12133789 C20.13912675 98.95994529 15.27036872 101.81813607 10.45703125 104.7734375 C9.83304443 105.14976318 9.20905762 105.52608887 8.56616211 105.91381836 C7.01219005 106.85445714 5.47029621 107.81497412 3.9296875 108.77734375 C0.0524629 110.39543882 -2.93221575 110.92677866 -7 110 C-11.44307975 108.00682535 -15.5758433 105.56262063 -19.75 103.0625 C-21.97166854 101.75781176 -24.19553617 100.45685897 -26.421875 99.16015625 C-27.39737305 98.57886963 -28.37287109 97.99758301 -29.37792969 97.39868164 C-32.54249397 95.68561576 -32.54249397 95.68561576 -36 95 C-37.81916709 95.90457056 -37.81916709 95.90457056 -39.46875 97.4296875 C-40.12359375 97.97882813 -40.7784375 98.52796875 -41.453125 99.09375 C-42.12859375 99.6815625 -42.8040625 100.269375 -43.5 100.875 C-44.82058494 102.00013837 -46.14357151 103.12246304 -47.46875 104.2421875 C-48.51301147 105.17417969 -48.51301147 105.17417969 -49.57836914 106.125 C-52 108 -52 108 -55.16967773 109.53125 C-58.89042517 111.53373273 -61.87845719 113.30922027 -64 117 C-66.1112222 125.4819491 -65.31362632 134.58934663 -65.0625 143.25 C-65.00644262 146.84729587 -64.96730022 150.44404719 -64.94200134 154.04168701 C-64.92116805 156.27347449 -64.87980544 158.50518847 -64.81544495 160.73614502 C-64.63834589 170.19655898 -64.63834589 170.19655898 -68 174 C-70.38136862 175.64141191 -72.66550706 177.05217993 -75.1875 178.4375 C-76.7115076 179.2984708 -78.23490843 180.16051625 -79.7578125 181.0234375 C-80.58958008 181.49104492 -81.42134766 181.95865234 -82.27832031 182.44042969 C-85.27425673 184.15715393 -88.22724229 185.93612384 -91.1796875 187.7265625 C-92.76487183 188.67897827 -92.76487183 188.67897827 -94.38208008 189.65063477 C-96.46832221 190.90475023 -98.54912119 192.16797492 -100.6237793 193.44116211 C-110.5112638 199.32213584 -110.5112638 199.32213584 -117 199 C-120.27788568 197.82694479 -123.14918469 196.167916 -126.125 194.375 C-126.97521729 193.88298096 -127.82543457 193.39096191 -128.70141602 192.8840332 C-130.52156496 191.82676149 -132.3362965 190.76011814 -134.14599609 189.68505859 C-137.08527707 187.94965079 -140.04862829 186.26265328 -143.01953125 184.58203125 C-144.9929824 183.45190778 -146.96565784 182.32042851 -148.9375 181.1875 C-150.330896 180.39835205 -150.330896 180.39835205 -151.75244141 179.59326172 C-152.62690918 179.08166504 -153.50137695 178.57006836 -154.40234375 178.04296875 C-155.17054443 177.59977295 -155.93874512 177.15657715 -156.73022461 176.69995117 C-160.62013905 173.7865948 -163.54744068 171.44718114 -164.4495697 166.56898499 C-164.62866304 163.58457442 -164.6405608 160.64177976 -164.59375 157.65234375 C-164.59379028 156.56288956 -164.59383057 155.47343536 -164.59387207 154.35096741 C-164.5885232 152.053825 -164.57096786 149.75668267 -164.54199219 147.4597168 C-164.50009994 143.94588266 -164.50092945 140.43396394 -164.5078125 136.91992188 C-164.49732081 134.68488253 -164.48438283 132.44985305 -164.46875 130.21484375 C-164.46854858 129.16578354 -164.46834717 128.11672333 -164.46813965 127.03587341 C-164.31895279 117.83543458 -164.31895279 117.83543458 -161 114 C-159.23486328 112.48486328 -159.23486328 112.48486328 -157.1953125 111.1953125 C-156.39899414 110.69161133 -155.60267578 110.18791016 -154.78222656 109.66894531 C-149.19484039 106.31729808 -143.54608679 103.08194398 -137.875 99.875 C-136.01377494 98.81787061 -134.15306678 97.75983748 -132.2925415 96.70147705 C-130.54208189 95.70800502 -128.78817743 94.72061038 -127.03417969 93.73339844 C-124.65341701 92.37329102 -122.33229767 90.95917968 -120.0078125 89.5078125 C-116.55170582 87.77527071 -114.82296395 87.66083524 -111 88 C-108.16333008 89.25341797 -108.16333008 89.25341797 -105.26953125 90.9921875 C-104.21958984 91.61480469 -103.16964844 92.23742187 -102.08789062 92.87890625 C-101.00701172 93.53761719 -99.92613281 94.19632812 -98.8125 94.875 C-97.72001953 95.52597656 -96.62753906 96.17695313 -95.50195312 96.84765625 C-91.62039865 99.16750088 -87.7628144 101.49145706 -84 104 C-79.96291136 103.77855632 -77.56881875 101.18168642 -74.625 98.625 C-73.57061119 97.72078626 -72.51454833 96.81852184 -71.45703125 95.91796875 C-70.90096191 95.44407715 -70.34489258 94.97018555 -69.77197266 94.48193359 C-66.07611577 91.39101994 -62.25811215 88.45291625 -58.45751953 85.49267578 C-55.6337409 83.35657172 -55.6337409 83.35657172 -53 81 C-52.90327295 79.40512925 -52.87484273 77.80605299 -52.87402344 76.20825195 C-52.87021667 75.18661453 -52.86640991 74.16497711 -52.86248779 73.11238098 C-52.86146057 71.99892807 -52.86043335 70.88547516 -52.859375 69.73828125 C-52.84104284 67.39907884 -52.82147215 65.05988586 -52.80078125 62.72070312 C-52.771825 59.01847513 -52.75000057 55.31685048 -52.74951172 51.61450195 C-52.74617626 48.05104541 -52.71160941 44.48899394 -52.671875 40.92578125 C-52.6789447 39.82244949 -52.6860144 38.71911774 -52.69329834 37.58235168 C-52.55745726 28.99765349 -52.55745726 28.99765349 -49.765625 25.44702148 C-47.25991672 23.22997399 -45.01052134 21.51172844 -42.078125 19.921875 C-41.14291016 19.40520264 -40.20769531 18.88853027 -39.24414062 18.35620117 C-38.25607422 17.82615479 -37.26800781 17.2961084 -36.25 16.75 C-34.18130733 15.6176819 -32.11360703 14.48354902 -30.046875 13.34765625 C-28.51450195 12.50871826 -28.51450195 12.50871826 -26.95117188 11.65283203 C-24.24448969 10.13692879 -21.59294112 8.56247304 -18.953125 6.93359375 C-18.19483398 6.46791992 -17.43654297 6.00224609 -16.65527344 5.52246094 C-15.26054622 4.65857688 -13.87261007 3.78358911 -12.49316406 2.89550781 C-8.0901085 0.19481615 -5.12321375 -0.82386078 0 0 Z " fill="#062B75" transform="translate(302,92)"/>
<path d="M0 0 C1.01794647 0.39384888 1.01794647 0.39384888 2.05645752 0.7956543 C3.48256964 1.34847142 4.9079123 1.9032772 6.33251953 2.45996094 C8.52049526 3.31440192 10.71119192 4.16155426 12.90234375 5.0078125 C14.28922864 5.54644742 15.67595321 6.08549536 17.0625 6.625 C18.0483609 7.00628052 18.0483609 7.00628052 19.05413818 7.39526367 C23.6500638 9.1969388 23.6500638 9.1969388 24.765625 10.3125 C24.91331717 12.78463085 25.00060218 15.23241379 25.046875 17.70703125 C25.06528442 18.45079514 25.08369385 19.19455902 25.10266113 19.96086121 C25.16158265 22.34882473 25.21428783 24.73686211 25.265625 27.125 C25.33339472 30.25665771 25.40716454 33.3880938 25.484375 36.51953125 C25.50473816 37.5994207 25.50473816 37.5994207 25.5255127 38.7011261 C25.46793209 43.65335409 25.46793209 43.65335409 26.765625 48.3125 C29.01818551 49.4257442 29.01818551 49.4257442 31.765625 50.3125 C33.79926343 51.43979632 35.8121118 52.60501003 37.80859375 53.796875 C38.37709549 54.13495178 38.94559723 54.47302856 39.53132629 54.8213501 C41.34061331 55.89838518 43.14689062 56.98035503 44.953125 58.0625 C46.14629023 58.77376328 47.33964809 59.48470353 48.53320312 60.1953125 C52.94824171 62.82633806 57.36240349 65.45822554 61.75244141 68.13085938 C62.6397998 68.67033203 63.5271582 69.20980469 64.44140625 69.765625 C65.21009033 70.23645508 65.97877441 70.70728516 66.77075195 71.19238281 C68.86344407 72.44996108 68.86344407 72.44996108 71.765625 73.3125 C73.25019953 80.32373194 74.42550538 87.33697705 75.390625 94.4375 C75.59171875 95.84322266 75.59171875 95.84322266 75.796875 97.27734375 C76.53738708 102.68005945 76.90674951 107.8599621 76.765625 113.3125 C76.27795654 113.57877197 75.79028809 113.84504395 75.2878418 114.11938477 C59.17741824 121.30149067 59.17741824 121.30149067 46.765625 132.3125 C46.73266843 133.93568002 46.76530463 135.56039528 46.83007812 137.18261719 C47.02671898 142.90164532 47.12794751 148.61642607 47.19677734 154.33837891 C47.24229169 156.80034985 47.31635667 159.26197583 47.42041016 161.72216797 C48.22381219 181.62987926 48.22381219 181.62987926 44.11557007 187.78445435 C40.1922167 191.98504492 35.70632068 195.09585728 30.79618835 198.03907776 C27.92788459 199.8378701 25.56630318 201.95883593 23.078125 204.25 C20.40878564 206.62654162 19.50030034 207.3354586 15.890625 207.22265625 C12.35230896 206.1921217 9.60021867 204.72505506 6.453125 202.8125 C4.88111328 201.86890625 4.88111328 201.86890625 3.27734375 200.90625 C0.765625 199.3125 0.765625 199.3125 -0.234375 198.3125 C-0.39223808 196.46075294 -0.48544856 194.6034089 -0.55078125 192.74609375 C-0.61362305 191.0590332 -0.61362305 191.0590332 -0.67773438 189.33789062 C-0.71705078 188.15388672 -0.75636719 186.96988281 -0.796875 185.75 C-0.84005859 184.56212891 -0.88324219 183.37425781 -0.92773438 182.15039062 C-1.03421046 179.20455216 -1.13622341 176.2586257 -1.234375 173.3125 C-0.67935303 172.9812915 -0.12433105 172.65008301 0.44750977 172.30883789 C1.17252686 171.86789795 1.89754395 171.42695801 2.64453125 170.97265625 C3.36455322 170.53832275 4.0845752 170.10398926 4.82641602 169.65649414 C8.58931347 167.04856886 9.87409111 163.63604487 10.765625 159.3125 C11.4260781 148.37617364 12.25490215 133.01022296 6.765625 123.3125 C2.66525731 118.81630474 -1.70483859 115.66441859 -7.8984375 115.046875 C-15.26778531 115.08576338 -22.46599078 115.68718422 -29.77709961 116.52807617 C-36.42489678 117.27759893 -43.05747603 117.6953327 -49.74072266 117.97045898 C-53.90725265 118.15020062 -57.9689024 118.52550831 -62.10668945 119.08276367 C-67.19304361 119.63196152 -72.34502408 119.6395073 -77.45703125 119.7421875 C-86.17789426 120.04684647 -92.95082702 122.02895202 -99.234375 128.3125 C-101.87956835 132.71972018 -102.5977228 135.90922662 -102.52734375 141.0234375 C-102.51767578 142.26738281 -102.50800781 143.51132812 -102.49804688 144.79296875 C-102.47291016 146.07816406 -102.44777344 147.36335937 -102.421875 148.6875 C-102.40833984 149.99589844 -102.39480469 151.30429687 -102.38085938 152.65234375 C-102.3455987 155.87281844 -102.29631133 159.09244606 -102.234375 162.3125 C-106.34517658 161.05845915 -109.85700497 159.5390656 -113.54296875 157.3359375 C-114.53087402 156.75215332 -115.5187793 156.16836914 -116.53662109 155.56689453 C-118.65647754 154.29616918 -120.77526525 153.02365948 -122.89306641 151.74951172 C-129.80841142 147.62120592 -129.80841142 147.62120592 -137.07421875 144.171875 C-140.84786875 142.5784002 -144.12063545 141.05036339 -147.234375 138.3125 C-148.91373793 133.55687286 -149.18152181 129.28726086 -149.18505859 124.28271484 C-149.25685145 121.41455474 -149.80187104 118.6841006 -150.359375 115.875 C-150.65856515 114.02203245 -150.95079541 112.16792073 -151.234375 110.3125 C-151.38003906 109.47847656 -151.52570313 108.64445312 -151.67578125 107.78515625 C-151.93074059 105.35292512 -151.95420508 103.65077156 -151.234375 101.3125 C-148.72551518 98.51935012 -145.53320899 97.03468539 -142.234375 95.3125 C-139.92111057 94.07686285 -137.61314311 92.83240092 -135.31005859 91.57788086 C-133.69643263 90.70355215 -132.07441523 89.84450886 -130.44384766 89.00219727 C-129.30761963 88.39589478 -129.30761963 88.39589478 -128.1484375 87.77734375 C-127.4673291 87.422771 -126.7862207 87.06819824 -126.08447266 86.70288086 C-123.44373412 84.7183195 -122.50601426 83.41883033 -121.234375 80.3125 C-120.94142854 76.49954958 -121.12901038 72.72354003 -121.28515625 68.90625 C-121.3262513 66.6120471 -121.36322727 64.31776741 -121.39648438 62.0234375 C-121.45987101 58.42385976 -121.54601458 54.83210636 -121.70385742 51.23535156 C-122.50444735 31.79053762 -122.50444735 31.79053762 -118.71734619 25.98822021 C-115.07961825 22.06996715 -110.89941923 19.25364258 -106.29946899 16.57931519 C-102.93721815 14.51676964 -99.99115234 11.97802789 -96.984375 9.4375 C-93.90625 6.9453125 -93.90625 6.9453125 -91.234375 5.3125 C-88.1884398 5.7329643 -85.81013019 6.95850863 -83.15234375 8.45703125 C-82.00088867 9.10188477 -82.00088867 9.10188477 -80.82617188 9.75976562 C-80.03275391 10.21029297 -79.23933594 10.66082031 -78.421875 11.125 C-77.64005859 11.56392578 -76.85824219 12.00285156 -76.05273438 12.45507812 C-75.28123047 12.88884766 -74.50972656 13.32261719 -73.71484375 13.76953125 C-72.95220215 14.19572754 -72.18956055 14.62192383 -71.40380859 15.06103516 C-70.04122815 15.84705669 -68.69640014 16.66562131 -67.38134766 17.52880859 C-63.82584551 19.81744245 -60.72121432 21.05271162 -56.43994141 20.81103516 C-51.64739171 19.72775129 -47.58708908 17.0137457 -43.421875 14.5 C-42.4230127 13.91847168 -41.42415039 13.33694336 -40.39501953 12.73779297 C-35.46309816 9.85999143 -30.57289089 6.91426494 -25.68359375 3.96484375 C-24.82548096 3.45348877 -23.96736816 2.94213379 -23.08325195 2.4152832 C-21.46770547 1.45022815 -19.86027131 0.47142394 -18.26245117 -0.52270508 C-17.53904541 -0.95607178 -16.81563965 -1.38943848 -16.0703125 -1.8359375 C-15.44688965 -2.21927246 -14.8234668 -2.60260742 -14.18115234 -2.99755859 C-9.46815607 -4.66785298 -4.41703026 -1.72958894 0 0 Z " fill="#FEFEFE" transform="translate(357.234375,180.6875)"/>
<path d="M0 0 C0.99158005 11.24223729 1.98101234 22.47469142 2.5 33.75 C2.62082402 36.04272146 2.74626674 38.33512343 2.87451172 40.62744141 C2.96151915 42.27245738 3.03793902 43.91805434 3.10595703 45.56396484 C3.59397953 56.58428874 4.48328177 64.50224616 11.6796875 73.31494141 C14.42237231 76.81531318 16.82777101 80.56467739 19.3125 84.25 C20.43979056 85.89824161 21.5686956 87.54538018 22.69921875 89.19140625 C23.25399902 89.99980957 23.8087793 90.80821289 24.38037109 91.64111328 C28.58368194 97.76296879 32.79023131 103.88258357 37 110 C43.34854806 119.22537913 49.69028634 128.45531781 56.00756836 137.70214844 C58.83059437 141.83381483 61.66054252 145.96042236 64.50390625 150.078125 C67.24235748 154.044889 69.95279235 158.02961172 72.64941406 162.02490234 C73.7872158 163.68882426 74.96360186 165.32626656 76.1484375 166.95703125 C80.60514126 173.43285198 81.09291666 179.26405075 80 187 C78.27068831 194.26108652 74.86799058 199.41043874 69 204 C62.85443769 207.76258917 56.69962766 208.09819559 49.625 208.5 C48.93744629 208.54060547 48.24989258 208.58121094 47.54150391 208.62304688 C44.62624376 208.79511671 41.71057352 208.95971948 38.79492188 209.125 C36.65478819 209.24740264 34.51490203 209.37362191 32.375 209.5 C31.10398437 209.5721875 29.83296875 209.644375 28.5234375 209.71875 C25.08230355 209.94164301 25.08230355 209.94164301 22.04101562 210.5 C18.35805087 211.10554848 14.6907284 211.31567106 10.96875 211.5 C10.21460815 211.54060547 9.46046631 211.58121094 8.68347168 211.62304688 C5.48145616 211.79534967 2.27904947 211.9598153 -0.92333984 212.125 C-3.27196275 212.24727933 -5.6203483 212.37355436 -7.96875 212.5 C-8.68454224 212.53544922 -9.40033447 212.57089844 -10.13781738 212.60742188 C-13.12905517 212.76881387 -16.04375655 213.00729276 -19 213.5 C-22.66856372 214.11142729 -26.32267319 214.31633476 -30.03125 214.5 C-30.78539185 214.54060547 -31.53953369 214.58121094 -32.31652832 214.62304688 C-35.51854384 214.79534967 -38.72095053 214.9598153 -41.92333984 215.125 C-44.27196275 215.24727933 -46.6203483 215.37355436 -48.96875 215.5 C-49.68454224 215.53544922 -50.40033447 215.57089844 -51.13781738 215.60742188 C-55.15861094 215.82436347 -59.03850034 216.29182678 -63 217 C-72.36183344 217.7281426 -80.24225804 217.74917087 -88 212 C-93.49365338 207.1975221 -97.15145707 200.8216271 -98.41796875 193.625 C-99.16262737 181.06643306 -90.20363091 168.18170189 -84.7052002 157.31665039 C-82.44263198 152.8446678 -80.19380883 148.36578921 -77.9453125 143.88671875 C-77.5066687 143.01336884 -77.0680249 142.14001892 -76.61608887 141.24020386 C-73.41819784 134.86214391 -70.29491688 128.45264007 -67.25 122 C-62.20101584 111.30081729 -56.89731846 100.7331505 -51.56738281 90.171875 C-50.27843851 87.61691853 -49.00171788 85.05645186 -47.73535156 82.49023438 C-46.65668066 80.32075222 -45.55350383 78.1630601 -44.41308594 76.02539062 C-42.04806565 71.38177385 -40.73418987 67.71623571 -40.83251953 62.46679688 C-40.86026962 60.88774567 -40.86026962 60.88774567 -40.88858032 59.27679443 C-41.07059014 53.92398082 -41.33655074 48.58065337 -41.65625 43.234375 C-41.7561322 41.49525848 -41.7561322 41.49525848 -41.85803223 39.7210083 C-42.06880711 36.06381086 -42.28431993 32.40691109 -42.5 28.75 C-42.6448463 26.25132033 -42.78938044 23.75262254 -42.93359375 21.25390625 C-43.28545736 15.16905692 -43.64119798 9.08444393 -44 3 C-38.96781834 1.69031607 -33.9233721 1.36649193 -28.75 0.9375 C-27.68201172 0.84807129 -26.61402344 0.75864258 -25.51367188 0.66650391 C-16.98367929 -0.00671409 -8.55285576 -0.22639912 0 0 Z " fill="#92B1F3" transform="translate(336,357)"/>
<path d="M0 0 C0.99158005 11.24223729 1.98101234 22.47469142 2.5 33.75 C2.62082402 36.04272146 2.74626674 38.33512343 2.87451172 40.62744141 C2.96151915 42.27245738 3.03793902 43.91805434 3.10595703 45.56396484 C3.59397953 56.58428874 4.48328177 64.50224616 11.6796875 73.31494141 C14.42237231 76.81531318 16.82777101 80.56467739 19.3125 84.25 C20.43979056 85.89824161 21.5686956 87.54538018 22.69921875 89.19140625 C23.25399902 89.99980957 23.8087793 90.80821289 24.38037109 91.64111328 C28.58368194 97.76296879 32.79023131 103.88258357 37 110 C43.34763158 119.22404736 49.68687583 128.45371397 56.00537109 137.69775391 C58.84465734 141.8516339 61.68795764 146.00265831 64.5390625 150.1484375 C65.11865723 150.99237061 65.69825195 151.83630371 66.29541016 152.70581055 C67.39531608 154.3071488 68.49646256 155.90763599 69.59912109 157.50708008 C71.07878479 159.66312764 72.54326609 161.82840594 74 164 C74.48984375 164.7213916 74.9796875 165.4427832 75.484375 166.18603516 C75.94328125 166.88390137 76.4021875 167.58176758 76.875 168.30078125 C77.28492188 168.91735596 77.69484375 169.53393066 78.1171875 170.16918945 C79 172 79 172 79 176 C48.38471663 173.50079319 13.86553948 154.01828174 -5.92578125 130.734375 C-7.89583422 128.74597239 -7.89583422 128.74597239 -10.69140625 128.79296875 C-11.63886719 128.92316406 -12.58632813 129.05335938 -13.5625 129.1875 C-14.98755859 129.36345703 -14.98755859 129.36345703 -16.44140625 129.54296875 C-19.10788145 129.95569304 -19.10788145 129.95569304 -22 131 C-34.46917299 131.72527628 -46.45115835 130.37188703 -58.74365234 128.36376953 C-61.82367505 127.86720668 -64.91013998 127.43065708 -68 127 C-67.47525271 121.18483522 -65.10882908 116.71985216 -62.484375 111.61328125 C-62.03153137 110.71562546 -61.57868774 109.81796967 -61.11212158 108.89311218 C-59.6656184 106.02901786 -58.20833082 103.17058736 -56.75 100.3125 C-55.78436855 98.40990479 -54.81951685 96.50691361 -53.85546875 94.60351562 C-53.38765991 93.67989227 -52.91985107 92.75626892 -52.43786621 91.80465698 C-50.65900536 88.28287935 -48.89235379 84.75504175 -47.12670898 81.22662354 C-46.17818177 79.35212617 -45.19899371 77.49318898 -44.21289062 75.63818359 C-41.90763823 71.109777 -40.76170069 67.60376218 -40.84472656 62.49047852 C-40.86146423 61.43435867 -40.8782019 60.37823883 -40.89544678 59.29011536 C-41.06570666 53.93232098 -41.33628061 48.58517066 -41.65625 43.234375 C-41.72283813 42.07496399 -41.78942627 40.91555298 -41.85803223 39.7210083 C-42.06880711 36.06381086 -42.28431993 32.40691109 -42.5 28.75 C-42.6448463 26.25132033 -42.78938044 23.75262254 -42.93359375 21.25390625 C-43.28545736 15.16905692 -43.64119798 9.08444393 -44 3 C-38.96781834 1.69031607 -33.9233721 1.36649193 -28.75 0.9375 C-27.14801758 0.80335693 -27.14801758 0.80335693 -25.51367188 0.66650391 C-16.98367929 -0.00671409 -8.55285576 -0.22639912 0 0 Z " fill="#FDFDFE" transform="translate(336,357)"/>
<path d="M0 0 C0.07516846 0.58265625 0.15033691 1.1653125 0.2277832 1.765625 C0.38766724 2.99539062 0.38766724 2.99539062 0.55078125 4.25 C0.6686499 5.16056152 0.78651855 6.07112305 0.90795898 7.00927734 C1.18027451 9.02247298 1.47050842 11.03331701 1.77758789 13.04150391 C2.46485077 17.56812128 3.10590893 21.87789951 2.8828125 26.4609375 C2.94661179 31.02714388 3.17758348 34.37614527 6 38 C13.450886 43.8991358 22.13701067 48.04218105 30.60302734 52.27441406 C34.87223988 54.4430783 38.97867971 56.8165377 43.0625 59.3125 C44.16722656 59.96863281 45.27195312 60.62476563 46.41015625 61.30078125 C48.69958283 62.80289371 50.31576154 63.87407825 52 66 C52.40786743 68.40840149 52.40786743 68.40840149 52.45166016 71.29418945 C52.4740274 72.37573807 52.49639465 73.45728668 52.5194397 74.5716095 C52.52915298 76.32473701 52.52915298 76.32473701 52.5390625 78.11328125 C52.55141937 79.31558884 52.56377625 80.51789642 52.57650757 81.75663757 C52.59609396 84.30279666 52.60730943 86.8490317 52.61083984 89.39526367 C52.62490994 93.28758523 52.69221136 97.17668499 52.76171875 101.06835938 C52.77411872 103.54165238 52.78333754 106.01496379 52.7890625 108.48828125 C52.81578033 109.65096024 52.84249817 110.81363922 52.87002563 112.0115509 C52.80414345 119.86330851 52.80414345 119.86330851 50.59999084 122.97897339 C48.81714338 124.56213445 47.05115795 125.78931645 45 127 C44.00250732 127.64775391 43.00501465 128.29550781 41.97729492 128.96289062 C40.98834229 129.52169922 39.99938965 130.08050781 38.98046875 130.65625 C37.87509766 131.28660156 36.76972656 131.91695312 35.63085938 132.56640625 C33.92639648 133.52353516 33.92639648 133.52353516 32.1875 134.5 C29.93053788 135.78045415 27.67402107 137.06169354 25.41796875 138.34375 C24.32790527 138.95605469 23.2378418 139.56835938 22.11474609 140.19921875 C19.25758253 141.85107942 16.50702502 143.6121597 13.73828125 145.40625 C9.22886637 148.09109888 5.3001024 149.64575692 0 149 C-3.32495336 147.85980743 -6.19239142 146.19850691 -9.1875 144.375 C-10.03248047 143.88370605 -10.87746094 143.39241211 -11.74804688 142.88623047 C-13.5570746 141.83052318 -15.3601649 140.76458726 -17.15771484 139.68945312 C-20.10248194 137.93908478 -23.07248656 136.23948905 -26.05078125 134.546875 C-28.03462593 133.40759284 -30.01771724 132.26699766 -32 131.125 C-32.93739014 130.59052246 -33.87478027 130.05604492 -34.84057617 129.50537109 C-35.71818604 128.99055176 -36.5957959 128.47573242 -37.5 127.9453125 C-38.2734375 127.49687988 -39.046875 127.04844727 -39.84375 126.58642578 C-42.68546249 124.49568215 -44.21850393 123.10776225 -46 120 C-46.60405163 116.03246678 -46.58418661 112.10095644 -46.56640625 108.09375 C-46.57570412 106.35756409 -46.57570412 106.35756409 -46.58518982 104.58630371 C-46.59228572 102.14201701 -46.58911808 99.69768196 -46.57641602 97.25341797 C-46.56254855 93.51309353 -46.59663133 89.77526953 -46.63476562 86.03515625 C-46.6357168 83.65885355 -46.63385808 81.28254773 -46.62890625 78.90625 C-46.64216446 77.7884314 -46.65542267 76.67061279 -46.66908264 75.5189209 C-46.57643702 67.79728647 -46.57643702 67.79728647 -43.81494141 63.9777832 C-41.0292738 62.02056782 -38.27811398 60.15714618 -35.33203125 58.44921875 C-34.27435547 57.83369141 -33.21667969 57.21816406 -32.12695312 56.58398438 C-31.03318359 55.95814453 -29.93941406 55.33230469 -28.8125 54.6875 C-27.70712891 54.04232422 -26.60175781 53.39714844 -25.46289062 52.73242188 C-17.2750496 48 -17.2750496 48 -15 48 C-16.65 35.13 -18.3 22.26 -20 9 C-17.03 8.01 -14.06 7.02 -11 6 C-8.01823091 4.47425553 -8.01823091 4.47425553 -5.5 2.8125 C-1.06569343 0 -1.06569343 0 0 0 Z " fill="#062B76" transform="translate(449,246)"/>
<path d="M0 0 C2.58276367 1.1105957 2.58276367 1.1105957 5.16796875 2.67578125 C6.61876831 3.53901001 6.61876831 3.53901001 8.09887695 4.41967773 C9.11812256 5.04430908 10.13736816 5.66894043 11.1875 6.3125 C13.33008216 7.60263762 15.47332055 8.89168599 17.6171875 10.1796875 C19.21965332 11.14793457 19.21965332 11.14793457 20.85449219 12.13574219 C23.77161685 13.86464346 26.71540848 15.51515032 29.6953125 17.1328125 C30.56260986 17.60936279 31.42990723 18.08591309 32.32348633 18.5769043 C33.94016572 19.46064674 35.56471402 20.33019713 37.19799805 21.18286133 C37.922854 21.58529053 38.64770996 21.98771973 39.39453125 22.40234375 C40.33582886 22.90495728 40.33582886 22.90495728 41.29614258 23.41772461 C45.39445049 27.22358986 46.16589805 31.8671412 46.38818359 37.21337891 C46.40783791 39.21767999 46.4103707 41.22220058 46.3984375 43.2265625 C46.40130768 44.2924057 46.40417786 45.3582489 46.40713501 46.45639038 C46.40916934 48.70042454 46.40368381 50.94447669 46.39111328 53.18847656 C46.37501948 56.62084528 46.39100041 60.05204215 46.41015625 63.484375 C46.40817433 65.66927343 46.40433171 67.85417113 46.3984375 70.0390625 C46.40451019 71.06311188 46.41058289 72.08716125 46.4168396 73.14224243 C46.32824248 82.11810271 46.32824248 82.11810271 43 86 C40.61863138 87.64141191 38.33449294 89.05217993 35.8125 90.4375 C34.2884924 91.2984708 32.76509157 92.16051625 31.2421875 93.0234375 C30.41041992 93.49104492 29.57865234 93.95865234 28.72167969 94.44042969 C25.72574327 96.15715393 22.77275771 97.93612384 19.8203125 99.7265625 C18.76352295 100.36150635 17.7067334 100.9964502 16.61791992 101.65063477 C14.53167779 102.90475023 12.45087881 104.16797492 10.3762207 105.44116211 C0.4887362 111.32213584 0.4887362 111.32213584 -6 111 C-9.27788568 109.82694479 -12.14918469 108.167916 -15.125 106.375 C-15.97521729 105.88298096 -16.82543457 105.39096191 -17.70141602 104.8840332 C-19.52156496 103.82676149 -21.3362965 102.76011814 -23.14599609 101.68505859 C-26.08527707 99.94965079 -29.04862829 98.26265328 -32.01953125 96.58203125 C-33.9929824 95.45190778 -35.96565784 94.32042851 -37.9375 93.1875 C-38.86643066 92.66140137 -39.79536133 92.13530273 -40.75244141 91.59326172 C-41.62690918 91.08166504 -42.50137695 90.57006836 -43.40234375 90.04296875 C-44.17054443 89.59977295 -44.93874512 89.15657715 -45.73022461 88.69995117 C-49.62013905 85.7865948 -52.54744068 83.44718114 -53.4495697 78.56898499 C-53.62866304 75.58457442 -53.6405608 72.64177976 -53.59375 69.65234375 C-53.59379028 68.56288956 -53.59383057 67.47343536 -53.59387207 66.35096741 C-53.5885232 64.053825 -53.57096786 61.75668267 -53.54199219 59.4597168 C-53.50009994 55.94588266 -53.50092945 52.43396394 -53.5078125 48.91992188 C-53.49732081 46.68488253 -53.48438283 44.44985305 -53.46875 42.21484375 C-53.46854858 41.16578354 -53.46834717 40.11672333 -53.46813965 39.03587341 C-53.31895279 29.83543458 -53.31895279 29.83543458 -50 26 C-48.23486328 24.48486328 -48.23486328 24.48486328 -46.1953125 23.1953125 C-45.39899414 22.69161133 -44.60267578 22.18791016 -43.78222656 21.66894531 C-38.19484039 18.31729808 -32.54608679 15.08194398 -26.875 11.875 C-25.01377494 10.81787061 -23.15306678 9.75983748 -21.2925415 8.70147705 C-19.54208189 7.70800502 -17.78817743 6.72061038 -16.03417969 5.73339844 C-13.65341701 4.37329102 -11.33229767 2.95917968 -9.0078125 1.5078125 C-5.5674449 -0.21683931 -3.80345173 -0.31722582 0 0 Z " fill="#082C76" transform="translate(191,180)"/>
<path d="M0 0 C4.75874294 2.1856839 9.20754282 4.80618512 13.6875 7.5 C14.88906179 8.20468266 16.09153169 8.90781926 17.29492188 9.609375 C20.28316888 11.35857297 23.25398827 13.13490328 26.2177124 14.92529297 C28.02505433 16.01510759 29.83782891 17.09549576 31.65087891 18.17578125 C32.8157648 18.87704781 33.98032853 19.57884987 35.14453125 20.28125 C36.17553955 20.90064453 37.20654785 21.52003906 38.26879883 22.15820312 C44.68824117 26.48718078 44.68824117 26.48718078 45.5146637 30.49742126 C45.52086227 31.43276199 45.52706085 32.36810272 45.53344727 33.33178711 C45.5492836 34.39646713 45.56511993 35.46114716 45.58143616 36.55809021 C45.57647629 37.70294388 45.57151642 38.84779755 45.56640625 40.02734375 C45.57260483 41.20841202 45.57880341 42.38948029 45.58518982 43.6063385 C45.59229277 46.10368017 45.58910581 48.60106914 45.57641602 51.09838867 C45.56256345 54.91999511 45.59660334 58.73914778 45.63476562 62.56054688 C45.63571692 64.98697977 45.63385745 67.41341572 45.62890625 69.83984375 C45.64216446 70.98267319 45.65542267 72.12550262 45.66908264 73.30296326 C45.5764709 81.19356579 45.5764709 81.19356579 42.83837891 85.02392578 C39.9213164 87.05477938 37.03020189 88.98907942 33.95703125 90.77734375 C33.10427864 91.27809166 33.10427864 91.27809166 32.23429871 91.78895569 C30.43115134 92.84571771 28.62210738 93.8918468 26.8125 94.9375 C25.61872092 95.63404682 24.42535808 96.3313075 23.23242188 97.02929688 C20.91032235 98.38739279 18.58602111 99.74142395 16.26025391 101.09326172 C12.51483383 103.28374628 8.7985964 105.51933915 5.0925293 107.77563477 C0.85215405 110.2567317 -1.63425589 111.46774606 -6.71142578 110.65966797 C-11.3786615 109.31436491 -15.34816108 106.619867 -19.4375 104.0625 C-21.38121171 102.87711423 -23.32522584 101.69222421 -25.26953125 100.5078125 C-26.23068848 99.91645508 -27.1918457 99.32509766 -28.18212891 98.71582031 C-30.79363905 97.12565455 -33.42396323 95.57917541 -36.07421875 94.0546875 C-36.84644775 93.60988037 -37.61867676 93.16507324 -38.41430664 92.70678711 C-39.84769207 91.88379751 -41.28296949 91.06409101 -42.72045898 90.24829102 C-46.94266127 87.79961523 -50.76909068 85.46181863 -53 81 C-53.11553689 79.36772933 -53.1695231 77.73091456 -53.19287109 76.09472656 C-53.20893402 75.07316467 -53.22499695 74.05160278 -53.24154663 72.99908447 C-53.28597741 68.32003402 -53.32706881 63.64112616 -53.35009766 58.96191406 C-53.36665182 56.49437017 -53.39393434 54.02687412 -53.43212891 51.55957031 C-53.4869113 48.00300194 -53.50877575 44.44755856 -53.5234375 40.890625 C-53.54610687 39.7904303 -53.56877625 38.6902356 -53.59213257 37.55670166 C-53.56856313 29.00424534 -53.56856313 29.00424534 -50.69555664 25.40161133 C-48.58936663 23.52509732 -46.83075523 21.9709123 -44.34765625 20.68359375 C-43.66429199 20.3179834 -42.98092773 19.95237305 -42.27685547 19.57568359 C-41.54611816 19.20008301 -40.81538086 18.82448242 -40.0625 18.4375 C-34.6820596 15.58612489 -29.38863116 12.66699484 -24.20703125 9.46484375 C-22.7518811 8.57164429 -22.7518811 8.57164429 -21.26733398 7.66040039 C-19.37443175 6.4919363 -17.4894143 5.31057711 -15.61352539 4.11499023 C-5.9905515 -1.77216186 -5.9905515 -1.77216186 0 0 Z " fill="#062B75" transform="translate(435,144)"/>
<path d="M0 0 C2.77944835 2.77944835 3.72989986 6.14831189 5.125 9.75 C10.72764521 23.67230208 18.38050736 35.58850492 27.70117188 47.30908203 C29 49 29 49 30.921875 52.02734375 C32.92333714 54.38222687 32.92333714 54.38222687 36.31640625 53.98828125 C40.04421367 52.98813779 43.41116577 51.75431892 46.9375 50.1875 C47.55520264 49.91687744 48.17290527 49.64625488 48.80932617 49.36743164 C51.883072 48.0075712 54.87120827 46.56119951 57.8125 44.9375 C60.58457303 43.58590895 63.30670584 42.52313865 66.26171875 41.64453125 C67.03733154 41.4132251 67.81294434 41.18191895 68.61206055 40.94360352 C72.06864381 39.93960054 75.53140867 38.96174578 79 38 C81.97064086 40.80163284 84.2241446 43.63648217 86.4375 47.0625 C89.96075609 52.43872781 93.5512982 57.76198047 97.1875 63.0625 C97.73656006 63.86413574 98.28562012 64.66577148 98.85131836 65.49169922 C101.74711912 69.71859039 104.64758503 73.94224813 107.55078125 78.1640625 C108.12868408 79.00573975 108.70658691 79.84741699 109.30200195 80.71459961 C110.39936236 82.31275397 111.49806536 83.90998766 112.59838867 85.50610352 C114.07832422 87.66245931 115.54303887 89.82806721 117 92 C117.48984375 92.7213916 117.9796875 93.4427832 118.484375 94.18603516 C118.94328125 94.88390137 119.4021875 95.58176758 119.875 96.30078125 C120.28492188 96.91735596 120.69484375 97.53393066 121.1171875 98.16918945 C122 100 122 100 122 104 C91.38471663 101.50079319 56.86553948 82.01828174 37.07421875 58.734375 C35.10416578 56.74597239 35.10416578 56.74597239 32.30859375 56.79296875 C31.36113281 56.92316406 30.41367187 57.05335938 29.4375 57.1875 C28.48746094 57.30480469 27.53742188 57.42210937 26.55859375 57.54296875 C23.89211855 57.95569304 23.89211855 57.95569304 21 59 C8.53082701 59.72527628 -3.45115835 58.37188703 -15.74365234 56.36376953 C-18.82367505 55.86720668 -21.91013998 55.43065708 -25 55 C-24.47981676 49.13811819 -22.05815785 44.61946732 -19.4140625 39.47265625 C-18.95647552 38.56551376 -18.49888855 37.65837128 -18.0274353 36.72373962 C-16.56749286 33.83277141 -15.09674433 30.94747526 -13.625 28.0625 C-12.16246698 25.18009519 -10.7022321 22.29654897 -9.24398804 19.41197205 C-8.33761622 17.62073208 -7.42843764 15.83090868 -6.51602173 14.04273987 C-4.16885646 9.42150847 -1.97959956 4.79069554 0 0 Z " fill="#D0DAFC" transform="translate(293,429)"/>
<path d="M0 0 C3.4250513 0.88490368 5.93827685 2.14063514 8.97583008 3.9453125 C10.03479492 4.56921875 11.09375977 5.193125 12.18481445 5.8359375 C13.2747168 6.49078125 14.36461914 7.145625 15.48754883 7.8203125 C16.59678711 8.47515625 17.70602539 9.13 18.84887695 9.8046875 C26.97838529 14.62364897 26.97838529 14.62364897 28.17504883 15.8203125 C28.26352626 18.34125326 28.29032184 20.83462143 28.27270508 23.35546875 C28.27129013 24.10871933 28.26987518 24.86196991 28.26841736 25.63804626 C28.26280259 28.0530081 28.25024766 30.46787851 28.23754883 32.8828125 C28.23253573 34.51627471 28.22797249 36.14973836 28.22387695 37.78320312 C28.21282837 41.79560835 28.19555389 45.80794491 28.17504883 49.8203125 C24.29247502 52.15906567 20.39671055 54.47332473 16.48681641 56.76611328 C15.1590296 57.54926266 13.83507386 58.33894574 12.51513672 59.13525391 C10.61592748 60.27949354 8.70413384 61.39945056 6.78833008 62.515625 C6.20167068 62.87592804 5.61501129 63.23623108 5.01057434 63.60745239 C2.27503283 65.17241041 0.76302465 65.95679882 -2.3659668 65.23046875 C-3.17743164 64.76511719 -3.98889648 64.29976563 -4.82495117 63.8203125 C-5.76959229 63.32128418 -6.7142334 62.82225586 -7.6875 62.30810547 C-8.7086792 61.73205566 -9.7298584 61.15600586 -10.78198242 60.5625 C-11.89379883 59.93730469 -13.00561523 59.31210937 -14.15112305 58.66796875 C-15.31327018 58.0104834 -16.47537908 57.35293047 -17.63745117 56.6953125 C-18.81893306 56.02966609 -20.00057217 55.36429866 -21.18237305 54.69921875 C-24.06479022 53.07565316 -26.94557448 51.44926235 -29.82495117 49.8203125 C-33.08947385 24.97227255 -33.08947385 24.97227255 -29.82495117 15.8203125 C-24.46580695 8.96287632 -16.37431062 5.7019845 -8.36865234 2.79296875 C-0.91263634 -0.05805033 -0.91263634 -0.05805033 0 0 Z " fill="#CFDAFB" transform="translate(452.824951171875,307.1796875)"/>
<path d="M0 0 C2.82275391 0.74609375 2.82275391 0.74609375 6 2 C6.95181152 2.32097656 7.90362305 2.64195312 8.88427734 2.97265625 C16.83031279 5.90657703 24.62877815 9.23472922 30 16 C32.29277738 21.55279434 32.34517882 27.45090831 32.3125 33.375 C32.32601501 34.12942383 32.33953003 34.88384766 32.35345459 35.66113281 C32.37486389 40.82623188 31.91548685 45.17269847 30 50 C26.09834801 53.71103641 21.87347252 55.7955494 17 58 C15.59947986 58.83051157 14.21039235 59.68125383 12.84375 60.56640625 C11.7403125 61.22511719 10.636875 61.88382813 9.5 62.5625 C7.81390625 63.58537109 7.81390625 63.58537109 6.09375 64.62890625 C2.51437132 66.2152218 1.60724242 66.38002332 -2 65 C-5.00446305 63.52868014 -7.90846858 61.90944653 -10.8125 60.25 C-11.58142578 59.81945312 -12.35035156 59.38890625 -13.14257812 58.9453125 C-14.68637379 58.07505469 -16.21745262 57.18184559 -17.73486328 56.26635742 C-19.95397437 54.94334285 -19.95397437 54.94334285 -22.33935547 54.1652832 C-24.99448883 53.06716523 -26.27570121 52.32443482 -28 50 C-29.01055434 44.2054174 -28.75160599 38.54267986 -28.5 32.6875 C-28.45985202 31.07235312 -28.42335348 29.45711113 -28.390625 27.84179688 C-28.30265046 23.89217977 -28.16474097 19.9471302 -28 16 C-26.88757935 15.37955811 -26.88757935 15.37955811 -25.75268555 14.74658203 C-22.99578642 13.20817918 -20.23950783 11.668672 -17.48364258 10.12841797 C-16.29183222 9.46261118 -15.0997771 8.79724231 -13.9074707 8.13232422 C-12.19157316 7.17531258 -10.47663386 6.21658348 -8.76171875 5.2578125 C-7.73006592 4.6817627 -6.69841309 4.10571289 -5.63549805 3.51220703 C-3.7156323 2.41061848 -1.84170566 1.22780377 0 0 Z " fill="#FA8D02" transform="translate(430,166)"/>
<path d="M0 0 C1.35738281 0.73863281 1.35738281 0.73863281 2.7421875 1.4921875 C3.39155273 1.83862305 4.04091797 2.18505859 4.70996094 2.54199219 C7.02751819 3.79132437 9.32318098 5.07516084 11.6171875 6.3671875 C12.78314453 7.01880859 12.78314453 7.01880859 13.97265625 7.68359375 C18.57739482 10.26069954 23.16186921 12.87198724 27.7421875 15.4921875 C31.00671018 40.34022745 31.00671018 40.34022745 27.7421875 49.4921875 C22.38304328 56.34962368 14.29154695 59.6105155 6.28588867 62.51953125 C3.5585536 63.45504176 3.5585536 63.45504176 0.7421875 65.4921875 C-3.69479469 65.18845083 -6.77660815 63.90277039 -10.55078125 61.62109375 C-11.51048828 61.04681641 -12.47019531 60.47253906 -13.45898438 59.88085938 C-14.9372168 58.9769043 -14.9372168 58.9769043 -16.4453125 58.0546875 C-17.44240234 57.45591797 -18.43949219 56.85714844 -19.46679688 56.24023438 C-23.10709621 54.04819978 -26.72183903 51.84950315 -30.2578125 49.4921875 C-30.52479138 46.86756506 -30.60614234 44.48152817 -30.55078125 41.859375 C-30.54653641 41.10753937 -30.54229156 40.35570374 -30.53791809 39.58108521 C-30.5211042 37.17609065 -30.48344874 34.77192941 -30.4453125 32.3671875 C-30.43026909 30.73829334 -30.41658008 29.10938606 -30.40429688 27.48046875 C-30.37119204 23.48405316 -30.31939259 19.48826168 -30.2578125 15.4921875 C-29.5872583 15.11408936 -28.9167041 14.73599121 -28.22583008 14.34643555 C-25.17359576 12.62488566 -22.12194896 10.90229692 -19.0703125 9.1796875 C-18.01521484 8.58478516 -16.96011719 7.98988281 -15.87304688 7.37695312 C-14.85146484 6.80009766 -13.82988281 6.22324219 -12.77734375 5.62890625 C-11.83995361 5.09998779 -10.90256348 4.57106934 -9.93676758 4.02612305 C-8.11612488 2.98364623 -6.32181593 1.89407935 -4.55395508 0.7644043 C-2.2578125 -0.5078125 -2.2578125 -0.5078125 0 0 Z " fill="#AFD752" transform="translate(300.2578125,114.5078125)"/>
<path d="M0 0 C2.00761457 0.97522546 3.97991824 2.02482507 5.921875 3.125 C7.02917969 3.74890625 8.13648438 4.3728125 9.27734375 5.015625 C10.42332031 5.67046875 11.56929687 6.3253125 12.75 7 C13.92284227 7.66205181 15.09601629 8.32351628 16.26953125 8.984375 C24.83069407 13.83069407 24.83069407 13.83069407 26 15 C26.48480879 19.57163583 26.65636587 24.14120017 26.78955078 28.73510742 C26.84609891 30.27531676 26.9277808 31.8148269 27.03564453 33.35229492 C27.39002126 38.50075554 27.42242922 43.00576578 26 48 C22.16028181 51.82927282 17.92195142 53.83003386 13 56 C11.5992622 56.81806297 10.20999764 57.65680116 8.84375 58.53125 C7.7403125 59.1809375 6.636875 59.830625 5.5 60.5 C4.3759375 61.1703125 3.251875 61.840625 2.09375 62.53125 C-1.16078756 64.07633349 -2.48395033 64.37131601 -6 64 C-8.73901367 62.73071289 -8.73901367 62.73071289 -11.66796875 60.97265625 C-12.72564453 60.34552734 -13.78332031 59.71839844 -14.87304688 59.07226562 C-15.96681641 58.40904297 -17.06058594 57.74582031 -18.1875 57.0625 C-20.36840942 55.76158435 -22.54939508 54.46079651 -24.73046875 53.16015625 C-25.69364014 52.57886963 -26.65681152 51.99758301 -27.64916992 51.39868164 C-29.07239279 50.55190173 -30.5187574 49.7406213 -32 49 C-32.3234878 44.30502444 -32.5580634 39.6166106 -32.71411133 34.91308594 C-32.77916664 33.31753592 -32.86766316 31.72275186 -32.98071289 30.12988281 C-33.34695836 24.8334098 -33.40385713 20.15262209 -32 15 C-28.17189449 11.1284328 -23.94799014 9.15721515 -19 7 C-17.59764076 6.17259763 -16.20796651 5.32248038 -14.84375 4.43359375 C-13.7403125 3.77488281 -12.636875 3.11617187 -11.5 2.4375 C-9.81390625 1.41462891 -9.81390625 1.41462891 -8.09375 0.37109375 C-4.52201844 -1.21183273 -3.65515526 -1.06647589 0 0 Z " fill="#FAC950" transform="translate(191,204)"/>
<path d="M0 0 C1.9659163 0.99463599 3.90487583 2.04321886 5.82421875 3.125 C6.93474609 3.74890625 8.04527344 4.3728125 9.18945312 5.015625 C10.05002319 5.50385742 10.05002319 5.50385742 10.92797852 6.00195312 C12.68944449 7.00110297 14.4546818 7.99330316 16.22070312 8.984375 C24.84850634 13.84850634 24.84850634 13.84850634 26 15 C29.51513814 43.20842388 29.51513814 43.20842388 24.48828125 51.49072266 C20.62848959 55.05594096 16.08419792 56.74872725 11.12011719 58.27783203 C8.16776851 59.28348005 5.79993406 60.91649716 3.25 62.6875 C-0.32688752 65.0742361 -0.32688752 65.0742361 -3.2734375 64.74926758 C-6.44697998 63.87716856 -8.86981523 62.54927116 -11.703125 60.875 C-12.7653125 60.25109375 -13.8275 59.6271875 -14.921875 58.984375 C-16.02015625 58.32953125 -17.1184375 57.6746875 -18.25 57 C-19.36375 56.34515625 -20.4775 55.6903125 -21.625 55.015625 C-29.8234747 50.1765253 -29.8234747 50.1765253 -31 49 C-31.48516062 44.28579428 -31.6563933 39.57348452 -31.78955078 34.83764648 C-31.84611032 33.24896996 -31.92780102 31.66097194 -32.03564453 30.07495117 C-32.38818613 24.79069518 -32.42583589 20.13320638 -31 15 C-27.16906918 11.13499792 -22.94542213 9.1579301 -18 7 C-16.58661505 6.17165397 -15.18546336 5.32131231 -13.80859375 4.43359375 C-12.69613281 3.77488281 -11.58367187 3.11617188 -10.4375 2.4375 C-9.57415039 1.90672852 -9.57415039 1.90672852 -8.69335938 1.36523438 C-5.27492906 -0.63704529 -3.71724084 -1.33372067 0 0 Z " fill="#66CBD0" transform="translate(213,343)"/>
<path d="M0 0 C0.56203125 0.74636719 1.1240625 1.49273437 1.703125 2.26171875 C4.41289998 5.49224981 7.00791191 6.90403508 10.75 8.8125 C11.92046875 9.41707031 13.0909375 10.02164062 14.296875 10.64453125 C15.18890625 11.09183594 16.0809375 11.53914063 17 12 C16.34773438 12.51691406 15.69546875 13.03382813 15.0234375 13.56640625 C12.67950059 15.45306348 10.3545066 17.35619233 8.0390625 19.27734375 C7.31976563 19.87353516 6.60046875 20.46972656 5.859375 21.08398438 C4.37633825 22.31423077 2.89455461 23.54598941 1.4140625 24.77929688 C0.6921875 25.37677734 -0.0296875 25.97425781 -0.7734375 26.58984375 C-1.41716309 27.12472412 -2.06088867 27.65960449 -2.72412109 28.21069336 C-5 30 -5 30 -6.80175781 30.90318298 C-8.96473729 32.09256469 -10.41110995 33.09979079 -12 35 C-12.95306432 39.01122618 -12.74375904 42.91187344 -12.578125 47.01171875 C-12.55259552 48.75857719 -12.55259552 48.75857719 -12.52655029 50.54072571 C-12.46754037 54.25783684 -12.36147394 57.97162193 -12.25 61.6875 C-12.15980098 65.41372698 -12.07963571 69.13962768 -12.01629639 72.8664093 C-11.97469019 75.18497006 -11.91623424 77.50329921 -11.83966064 79.82096863 C-11.81684021 80.86577896 -11.79401978 81.91058929 -11.77050781 82.98706055 C-11.74273254 83.90907761 -11.71495728 84.83109467 -11.68634033 85.78105164 C-11.78984802 86.5133046 -11.89335571 87.24555756 -12 88 C-12.99 88.66 -13.98 89.32 -15 90 C-15.44988281 89.319375 -15.89976562 88.63875 -16.36328125 87.9375 C-19.87155108 82.65048815 -23.40120941 77.3793413 -26.99121094 72.14746094 C-27.92470413 70.78312473 -28.85099613 69.41383713 -29.77050781 68.04003906 C-31.97039142 64.78531202 -34.17130304 61.72488392 -36.85546875 58.8515625 C-47.88949461 46.53896596 -46.03221682 29.66323041 -46 14 C-45.04738281 14.51691406 -44.09476562 15.03382813 -43.11328125 15.56640625 C-41.84674336 16.23251137 -40.57979432 16.89783515 -39.3125 17.5625 C-38.37374023 18.07586914 -38.37374023 18.07586914 -37.41601562 18.59960938 C-33.4172181 20.67228453 -31.2887563 21.31534031 -27 20 C-24.94765405 18.72488586 -24.94765405 18.72488586 -23.07421875 17.05078125 C-22.35943359 16.44943359 -21.64464844 15.84808594 -20.90820312 15.22851562 C-20.17537109 14.59623047 -19.44253906 13.96394531 -18.6875 13.3125 C-3.02326498 0 -3.02326498 0 0 0 Z " fill="#6A66F6" transform="translate(404,366)"/>
<path d="M0 0 C2.77944835 2.77944835 3.72989986 6.14831189 5.125 9.75 C11.01975722 24.39818629 19.30983479 36.62092194 29 49 C30.07507813 50.40572266 30.07507813 50.40572266 31.171875 51.83984375 C32.99576408 54.19708255 32.99576408 54.19708255 36 56 C18.29450393 60.38720257 2.14186288 59.28557012 -15.74365234 56.36376953 C-18.82367505 55.86720668 -21.91013998 55.43065708 -25 55 C-24.47981676 49.13811819 -22.05815785 44.61946732 -19.4140625 39.47265625 C-18.95647552 38.56551376 -18.49888855 37.65837128 -18.0274353 36.72373962 C-16.56749286 33.83277141 -15.09674433 30.94747526 -13.625 28.0625 C-12.16246698 25.18009519 -10.7022321 22.29654897 -9.24398804 19.41197205 C-8.33761622 17.62073208 -7.42843764 15.83090868 -6.51602173 14.04273987 C-4.16885646 9.42150847 -1.97959956 4.79069554 0 0 Z " fill="#D0DAFC" transform="translate(293,429)"/>
<path d="M0 0 C0 6.27 0 12.54 0 19 C-3.10475719 19.7761893 -5.71562835 20.2243251 -8.8659668 20.48071289 C-9.83185226 20.56072037 -10.79773773 20.64072784 -11.79289246 20.72315979 C-12.83448013 20.80549362 -13.87606781 20.88782745 -14.94921875 20.97265625 C-16.0352388 21.06002548 -17.12125885 21.14739471 -18.2401886 21.2374115 C-20.54580628 21.42154853 -22.85157227 21.60383659 -25.1574707 21.78442383 C-28.62970099 22.05794691 -32.10094815 22.34211058 -35.57226562 22.62695312 C-47.74146387 23.60084325 -59.79102423 24.29767581 -72 24 C-72.77455497 19.63140278 -73.10782087 15.56644526 -73.0625 11.125 C-73.05347656 9.97257812 -73.04445313 8.82015625 -73.03515625 7.6328125 C-73.02355469 6.76398438 -73.01195312 5.89515625 -73 5 C-67.58253059 4.15581316 -62.19487056 3.65925864 -56.7265625 3.28125 C-55.4035463 3.18704773 -55.4035463 3.18704773 -54.05380249 3.09094238 C-52.18975988 2.95870493 -50.32563198 2.82766487 -48.46142578 2.69775391 C-45.6680979 2.50300476 -42.87505108 2.30458196 -40.08203125 2.10546875 C-31.58565455 1.50334103 -23.08792034 0.923802 -14.5859375 0.40625 C-13.28446777 0.32697266 -11.98299805 0.24769531 -10.64208984 0.16601562 C-7.09797496 0.00446595 -3.54779489 0 0 0 Z " fill="#90AFF1" transform="translate(348,316)"/>
<path d="M0 0 C1.11375 1.0209375 1.11375 1.0209375 2.25 2.0625 C7.02711804 6.07804849 12.57808551 8.95565643 18 12 C13.8214282 16.36024883 9.2961003 20.17819066 4.625 24 C3.89539063 24.60328125 3.16578125 25.2065625 2.4140625 25.828125 C-0.95391956 28.59468169 -4.32890764 31.26954071 -7.9140625 33.75 C-11.13248854 35.82441807 -11.13248854 35.82441807 -13 39 C-13.18304688 38.10023438 -13.36609375 37.20046875 -13.5546875 36.2734375 C-15.49719082 31.87392997 -17.96545448 30.74183802 -22.125 28.625 C-22.78371094 28.27050781 -23.44242188 27.91601562 -24.12109375 27.55078125 C-25.73839931 26.68353044 -27.36806677 25.83940169 -29 25 C-25.62820602 20.70127372 -22.29828927 17.46421183 -17.875 14.1875 C-16.73195562 13.330916 -15.59005054 12.47280985 -14.44921875 11.61328125 C-13.8773584 11.18354004 -13.30549805 10.75379883 -12.71630859 10.31103516 C-8.37917018 6.998029 -4.19967213 3.48429711 0 0 Z " fill="#6865F5" transform="translate(249,173)"/>
<path d="M0 0 C0.12060791 0.9132605 0.12060791 0.9132605 0.24365234 1.8449707 C2.10452142 16.41850804 2.10452142 16.41850804 4.66796875 30.87890625 C5.04363551 33.27875393 5.05540873 35.57480263 5 38 C4.16210938 38.25523437 3.32421875 38.51046875 2.4609375 38.7734375 C-1.33207838 40.11768918 -4.80224791 41.79014193 -8.375 43.625 C-9.01566406 43.94984375 -9.65632813 44.2746875 -10.31640625 44.609375 C-11.87947501 45.40257407 -13.44000622 46.20077031 -15 47 C-15.71381251 41.90990931 -16.42585082 36.81957483 -17.13623047 31.72900391 C-17.37825286 29.99651342 -17.62076391 28.26409113 -17.86376953 26.53173828 C-18.21254253 24.04477325 -18.55956979 21.55757001 -18.90625 19.0703125 C-19.0156189 18.29317902 -19.12498779 17.51604553 -19.2376709 16.71536255 C-20 11.22774341 -20 11.22774341 -20 9 C-19.19949219 8.77957031 -19.19949219 8.77957031 -18.3828125 8.5546875 C-12.69317157 6.84188902 -7.9815663 4.3864564 -2.96875 1.20703125 C-1 0 -1 0 0 0 Z " fill="#6A66F6" transform="translate(449,246)"/>
<path d="M0 0 C7.89772344 2.18556861 15.46111799 5.01395975 23.0625 8.0625 C24.20138672 8.50916016 25.34027344 8.95582031 26.51367188 9.41601562 C27.59326172 9.84720703 28.67285156 10.27839844 29.78515625 10.72265625 C30.76363525 11.11203369 31.74211426 11.50141113 32.75024414 11.90258789 C35 13 35 13 36 15 C35.67 15.66 35.34 16.32 35 17 C34.84995027 18.3734635 34.75161994 19.7528526 34.68359375 21.1328125 C34.62075195 22.34130859 34.62075195 22.34130859 34.55664062 23.57421875 C34.51732422 24.41597656 34.47800781 25.25773437 34.4375 26.125 C34.37272461 27.39923828 34.37272461 27.39923828 34.30664062 28.69921875 C34.20045764 30.79928223 34.09971503 32.89961948 34 35 C21.91390451 30.54367429 9.94328056 25.82523279 -2 21 C-1.505 19.515 -1.505 19.515 -1 18 C-0.85507877 16.59335074 -0.75371069 15.1818867 -0.68359375 13.76953125 C-0.64169922 12.96708984 -0.59980469 12.16464844 -0.55664062 11.33789062 C-0.51732422 10.50451172 -0.47800781 9.67113281 -0.4375 8.8125 C-0.39431641 7.96751953 -0.35113281 7.12253906 -0.30664062 6.25195312 C-0.20068482 4.16815567 -0.0998498 2.08409897 0 0 Z " fill="#6865F6" transform="translate(348,156)"/>
<path d="M0 0 C0.12117188 1.17175781 0.24234375 2.34351563 0.3671875 3.55078125 C1.18585089 11.28809838 2.0565737 18.94574102 3.55859375 26.5859375 C4.25091666 30.37226988 4.62334016 34.17062495 5 38 C4.0925 38.185625 3.185 38.37125 2.25 38.5625 C-2.8023239 39.9659233 -7.07633887 42.83549137 -11.5234375 45.5390625 C-14 47 -14 47 -15 47 C-15.71929322 42.71446631 -16.43109738 38.4277733 -17.13623047 34.13989258 C-17.37672869 32.68382919 -17.61920815 31.22809152 -17.86376953 29.77270508 C-18.21658589 27.67092762 -18.56206875 25.56805041 -18.90625 23.46484375 C-19.11572266 22.202771 -19.32519531 20.94069824 -19.54101562 19.64038086 C-19.99366196 16.05026942 -20.08144523 12.61413196 -20 9 C-19.19949219 8.77957031 -19.19949219 8.77957031 -18.3828125 8.5546875 C-12.69317157 6.84188902 -7.9815663 4.3864564 -2.96875 1.20703125 C-1 0 -1 0 0 0 Z " fill="#6966F6" transform="translate(206,282)"/>
<path d="M0 0 C1.98 0.99 1.98 0.99 4 2 C5.40927253 2.56062301 6.82601609 3.10287257 8.25 3.625 C9.4875 4.07875 10.725 4.5325 12 5 C13.19148936 25.53191489 13.19148936 25.53191489 13 35 C8.22979089 34.25465483 4.75989046 32.78495892 0 31 C0 20.77 0 10.54 0 0 Z " fill="#FAFAFC" transform="translate(260,355)"/>
<path d="M0 0 C0.33 0 0.66 0 1 0 C1.72492332 9.35927791 2.14256667 18.60644064 2 28 C-4.85618326 26.07443364 -11.43252132 23.7527517 -18 21 C-17.2884375 20.1028125 -17.2884375 20.1028125 -16.5625 19.1875 C-13.85205828 15.39288159 -13.75257535 11.85858717 -13.4375 7.3125 C-13.35371094 6.13300781 -13.26992188 4.95351563 -13.18359375 3.73828125 C-13.12300781 2.83464844 -13.06242187 1.93101562 -13 1 C-9.74687082 1.58681665 -6.76648836 2.3622164 -3.6875 3.5625 C-1.8621875 4.2740625 -1.8621875 4.2740625 0 5 C0 3.35 0 1.7 0 0 Z " fill="#6865F3" transform="translate(273,385)"/>
<path d="M0 0 C3.0625 1.9375 3.0625 1.9375 5 5 C5.69113243 8.15864655 5.70352709 10.84270771 5 14 C2.48165527 17.66304688 0.79716189 18.75360451 -3.4375 20.0625 C-7.88069934 19.98454913 -9.66145471 18.87270176 -13 16 C-15.34578248 12.80120571 -15.47675156 9.89347111 -15 6 C-10.93006666 -0.10490001 -7.07732061 -1.03719354 0 0 Z " fill="#6965F6" transform="translate(335,533)"/>
<path d="M0 0 C4.09131007 0.9331058 5.57237355 2.17306228 8.2265625 5.5078125 C9.0193894 8.68486521 8.98732943 11.32642351 8.2265625 14.5078125 C5.67579944 18.21801332 4.06947252 19.28203303 -0.2734375 20.4453125 C-3.89424046 20.5099697 -5.73189615 20.45101947 -8.7734375 18.5078125 C-11.41051721 14.50672604 -12.56741012 11.27164825 -11.7734375 6.5078125 C-8.68729223 1.13194654 -6.24687504 -0.48052885 0 0 Z " fill="#6965F6" transform="translate(281.7734375,512.4921875)"/>
<path d="M0 0 C3.43203219 0.8517906 5.0647359 2.79004399 7.15625 5.53515625 C8.60772903 8.4381143 8.52864025 10.30777404 8.15625 13.53515625 C6.09232742 17.06379808 4.87565527 18.94751141 0.99609375 20.2734375 C-3.15730344 20.95989213 -5.17079132 20.94173545 -8.84375 18.72265625 C-11.84014354 15.44535082 -12.26556165 13.1172277 -12.17578125 8.64453125 C-11.12105816 1.9439375 -6.36858948 -0.41395832 0 0 Z " fill="#6A66F7" transform="translate(371.84375,490.46484375)"/>
<path d="M0 0 C3.10343799 1.20689255 6.01193893 2.50596946 9 4 C9 8.29 9 12.58 9 17 C0.2 8.2 0.2 8.2 -0.3125 2.5625 C-0.209375 1.716875 -0.10625 0.87125 0 0 Z " fill="#E878A5" transform="translate(360,408)"/>
</svg>
