<?xml version="1.0" encoding="UTF-8"?>
<svg version="1.1" xmlns="http://www.w3.org/2000/svg" width="640" height="640">
<path d="M0 0 C211.2 0 422.4 0 640 0 C640 211.2 640 422.4 640 640 C428.8 640 217.6 640 0 640 C0 428.8 0 217.6 0 0 Z " fill="#FEFEFE" transform="translate(0,0)"/>
<path d="M0 0 C2.70629883 1.12646484 2.70629883 1.12646484 5.45703125 2.7109375 C6.99085449 3.58202148 6.99085449 3.58202148 8.55566406 4.47070312 C9.63041992 5.09912109 10.70517578 5.72753906 11.8125 6.375 C12.91948242 7.01115234 14.02646484 7.64730469 15.16699219 8.30273438 C17.40114078 9.58919976 19.6321441 10.88114385 21.85986328 12.17871094 C24.64224379 13.79250029 27.43839513 15.37615932 30.24609375 16.9453125 C31.74781928 17.79612803 33.24915382 18.64763424 34.75 19.5 C35.42135986 19.8717334 36.09271973 20.2434668 36.78442383 20.62646484 C40.93044113 23.02580276 45.04248222 25.46845642 47 30 C47.7403502 34.95028849 47.79269709 39.8798661 47.8125 44.875 C47.83566531 46.24483111 47.86103488 47.61462681 47.88867188 48.984375 C47.94745415 52.3232084 47.9838023 55.6607331 48 59 C52.3410867 60.40753908 56.68273313 61.81333324 61.02490234 63.2175293 C62.50129372 63.6952425 63.97753232 64.17342811 65.45361328 64.65209961 C67.57804808 65.3409315 69.70303051 66.02805017 71.828125 66.71484375 C72.48556702 66.92842026 73.14300903 67.14199677 73.82037354 67.36204529 C76.86018528 68.34273718 79.88619171 69.2832754 83 70 C83.185625 69.42894531 83.37125 68.85789062 83.5625 68.26953125 C85.64990371 64.97392919 88.67149211 63.53563872 92 61.6875 C93.52896079 60.81956501 95.05758331 59.95103395 96.5859375 59.08203125 C97.43639648 58.6020166 98.28685547 58.12200195 99.16308594 57.62744141 C102.35534959 55.79614799 105.50944467 53.90709508 108.6640625 52.01171875 C110.40616724 50.97481642 112.14950992 49.94003824 113.89355469 48.90640259 C115.60124555 47.88915026 117.30070028 46.85811273 119 45.8269043 C120.59714844 44.88778198 120.59714844 44.88778198 122.2265625 43.9296875 C123.17096191 43.36491699 124.11536133 42.80014648 125.08837891 42.21826172 C129.97505278 40.17361116 133.59719859 40.4934409 138.53393555 42.27612305 C141.90633316 43.95341399 145.19137588 45.70553638 148.45703125 47.58203125 C149.04489914 47.91869308 149.63276703 48.25535492 150.2384491 48.60221863 C152.09852168 49.6687786 153.95547465 50.74064523 155.8125 51.8125 C157.04473493 52.51920628 158.27715559 53.22558879 159.50976562 53.93164062 C161.90281707 55.30378464 164.29056204 56.68452611 166.67431641 58.07275391 C168.77584219 59.29059597 170.88649277 60.49294349 173.00927734 61.67333984 C174.34079834 62.4286499 174.34079834 62.4286499 175.69921875 63.19921875 C176.46451904 63.62420654 177.22981934 64.04919434 178.01831055 64.48706055 C181.17263944 66.89526261 182.79204704 69.64339012 183.39440918 73.57298279 C183.40282837 74.48532181 183.41124756 75.39766083 183.41992188 76.33764648 C183.43583374 77.37900253 183.45174561 78.42035858 183.46813965 79.49327087 C183.46844177 81.1652932 183.46844177 81.1652932 183.46875 82.87109375 C183.47636353 84.02617935 183.48397705 85.18126495 183.49182129 86.37135315 C183.50261522 88.81143026 183.50547829 91.25155355 183.50097656 93.69165039 C183.50000434 97.42086961 183.5416364 101.1480309 183.5859375 104.87695312 C183.59114468 107.24999572 183.59383269 109.62304545 183.59375 111.99609375 C183.61014526 113.10875107 183.62654053 114.22140839 183.64343262 115.36778259 C183.56652306 124.00067276 183.56652306 124.00067276 180.8215332 127.5222168 C178.06369716 129.94406313 175.45200645 131.84003913 172.26171875 133.6484375 C171.19501953 134.26074219 170.12832031 134.87304688 169.02929688 135.50390625 C167.37510742 136.43009766 167.37510742 136.43009766 165.6875 137.375 C164.56537109 138.01566406 163.44324219 138.65632812 162.28710938 139.31640625 C159.5305447 140.88823462 156.76828878 142.44894361 154 144 C154.97225482 151.75568788 156.67264362 159.3693783 158.27148438 167.015625 C158.49255859 168.09585938 158.71363281 169.17609375 158.94140625 170.2890625 C159.14451416 171.26568848 159.34762207 172.24231445 159.55688477 173.24853516 C159.98203048 175.88842069 160.08236844 178.33199207 160 181 C160.87221191 180.9395752 161.74442383 180.87915039 162.64306641 180.81689453 C166.50277903 181.02742431 168.40180415 181.97477222 171.7109375 183.9296875 C172.78400146 184.55584961 173.85706543 185.18201172 174.96264648 185.82714844 C176.08872314 186.50293945 177.2147998 187.17873047 178.375 187.875 C179.54124081 188.56368522 180.70799206 189.25150674 181.87524414 189.93847656 C185.26246577 191.93890254 188.63272461 193.96617183 192 196 C192.89992676 196.54237305 193.79985352 197.08474609 194.72705078 197.64355469 C196.97033482 199.0022204 199.20674341 200.37088038 201.4375 201.75 C202.07413574 202.14300293 202.71077148 202.53600586 203.36669922 202.94091797 C209.03997808 206.51731002 209.03997808 206.51731002 211 209 C211.38768005 211.37716675 211.38768005 211.37716675 211.40405273 214.21826172 C211.42307899 215.81539505 211.42307899 215.81539505 211.44248962 217.4447937 C211.43808617 219.16981613 211.43808617 219.16981613 211.43359375 220.9296875 C211.4388356 222.11217072 211.44407745 223.29465393 211.44947815 224.51296997 C211.45590655 227.01628839 211.45455086 229.51963699 211.44604492 232.02294922 C211.43754861 235.85308751 211.46626579 239.68172842 211.49804688 243.51171875 C211.49965927 245.94270789 211.49908063 248.37369966 211.49609375 250.8046875 C211.51294472 252.52363724 211.51294472 252.52363724 211.53013611 254.27731323 C211.46102959 262.16747468 211.46102959 262.16747468 209.30664062 266.05786133 C206.8329207 268.14067695 204.44468869 269.73262473 201.59765625 271.26953125 C200.02322754 272.13239746 200.02322754 272.13239746 198.41699219 273.01269531 C197.31000977 273.60663086 196.20302734 274.20056641 195.0625 274.8125 C192.79699896 276.05123319 190.53266364 277.29210087 188.26953125 278.53515625 C187.18494629 279.1295752 186.10036133 279.72399414 184.98291016 280.33642578 C180.36547414 282.91157793 175.89979838 285.69007367 171.453125 288.546875 C167.26492667 291.02778229 164.06671323 292.62287952 159.08349609 291.70800781 C153.21898623 289.71514648 148.02752391 285.77915399 142.83007812 282.484375 C141.88197266 281.89914062 140.93386719 281.31390625 139.95703125 280.7109375 C139.10085205 280.16743652 138.24467285 279.62393555 137.36254883 279.06396484 C135.10630555 277.81845932 135.10630555 277.81845932 132.87475586 278.17578125 C129.62614051 279.60400438 127.27057653 282.18932094 124.75 284.625 C123.58922711 285.72207986 122.42777067 286.81843695 121.265625 287.9140625 C120.42547852 288.71118652 120.42547852 288.71118652 119.56835938 289.52441406 C114.90740035 293.90966256 110.04252852 298.06052459 105 302 C105.33 302.99 105.66 303.98 106 305 C106.03434536 307.05964283 106.01462544 309.12035995 105.96484375 311.1796875 C105.35012035 329.26537028 105.35012035 329.26537028 114.1953125 344.265625 C115.12085938 345.16796875 116.04640625 346.0703125 117 347 C118.70576563 349.16072594 120.2573853 351.41684172 121.8125 353.6875 C122.63308789 354.85580581 123.456073 356.02243096 124.28125 357.1875 C124.71179688 357.7959375 125.14234375 358.404375 125.5859375 359.03125 C127.14791507 361.205937 128.74307906 363.35364578 130.34375 365.5 C141.36792052 380.35185678 147.47074055 392.16891046 146 411 C144.46784186 419.43124735 141.2530973 426.27603546 136 433 C135.38511719 433.83402344 134.77023437 434.66804688 134.13671875 435.52734375 C131.87640222 438.14302998 129.74076936 439.74131083 126.8125 441.5625 C125.49185547 442.39974609 125.49185547 442.39974609 124.14453125 443.25390625 C116.62976335 447.42670283 110.19751558 449.63817953 101.625 450.4375 C100.5620874 450.54892334 99.4991748 450.66034668 98.40405273 450.77514648 C95.09866789 451.11609861 91.79225738 451.44049724 88.48468018 451.75915527 C85.69234945 452.02982115 82.90059715 452.30601766 80.10888672 452.58300781 C70.16433488 453.56969203 60.21915615 454.54912062 50.27203369 455.50956726 C35.91098427 456.89772288 21.55257435 458.28670578 7.234375 460.0703125 C6.52929306 460.15758102 5.82421112 460.24484955 5.09776306 460.33476257 C0.85509124 460.86053435 0.85509124 460.86053435 -3.38574219 461.40087891 C-21.51193561 463.73186267 -37.53946104 464.79214042 -53.39453125 454.0390625 C-63.52272311 446.11265148 -68.97434274 436.37888469 -72 424 C-72.25961442 421.23988877 -72.41443907 418.63206197 -72.4375 415.875 C-72.48680664 414.86953125 -72.48680664 414.86953125 -72.53710938 413.84375 C-72.65742645 402.07455251 -65.55854349 390.59023488 -60.69708252 380.11380005 C-58.93582475 376.31715608 -57.18842981 372.5141478 -55.44140625 368.7109375 C-55.07964294 367.9237886 -54.71787964 367.13663971 -54.34515381 366.32563782 C-49.48171421 355.72055188 -44.77038688 345.04754556 -40.0534668 334.37670898 C-39.72870865 333.64273895 -39.4039505 332.90876892 -39.0693512 332.15255737 C-38.46440374 330.78484408 -37.86036543 329.41672813 -37.25743103 328.04812622 C-35.9073277 324.99417011 -34.52997759 321.96845379 -33 319 C-33.63276855 319.3717334 -34.26553711 319.7434668 -34.91748047 320.12646484 C-41.21032871 323.81977151 -47.51479733 327.492474 -53.82714844 331.15234375 C-56.66696161 332.80606075 -59.49470202 334.47844217 -62.3203125 336.15625 C-63.87964483 337.06346924 -65.43950371 337.96978433 -67 338.875 C-67.69722168 339.29700684 -68.39444336 339.71901367 -69.11279297 340.15380859 C-73.64071984 342.74354983 -77.7604315 344.27661676 -83 343 C-87.01886944 341.19885345 -90.70153643 338.94809657 -94.4375 336.625 C-96.56509103 335.339822 -98.69269529 334.0546659 -100.8203125 332.76953125 C-101.86348633 332.13096191 -102.90666016 331.49239258 -103.98144531 330.83447266 C-106.71698576 329.17199685 -109.46976192 327.54919081 -112.2421875 325.94921875 C-113.02150635 325.4991748 -113.8008252 325.04913086 -114.60375977 324.58544922 C-116.03825761 323.7587142 -117.47359529 322.93343407 -118.90991211 322.10986328 C-126.42512011 317.72463966 -126.42512011 317.72463966 -128 313 C-128.11183587 311.36021742 -128.16888811 309.71641491 -128.19287109 308.07299805 C-128.21696548 306.57079964 -128.21696548 306.57079964 -128.24154663 305.03825378 C-128.28607401 300.46341695 -128.32705292 295.88872357 -128.35009766 291.3137207 C-128.36666301 288.90151323 -128.3939603 286.48935495 -128.43212891 284.07739258 C-128.48690966 280.59690931 -128.50877359 277.11757514 -128.5234375 273.63671875 C-128.54610687 272.56153488 -128.56877625 271.48635101 -128.59213257 270.37858582 C-128.56856185 262.01793706 -128.56856185 262.01793706 -125.81225586 258.48706055 C-123.11902178 256.10525869 -120.62900667 254.29409304 -117.48046875 252.5703125 C-116.45888672 252.003125 -115.43730469 251.4359375 -114.38476562 250.8515625 C-113.32966797 250.28179687 -112.27457031 249.71203125 -111.1875 249.125 C-110.11306641 248.53203125 -109.03863281 247.9390625 -107.93164062 247.328125 C-105.29360998 245.874277 -102.64989088 244.43208088 -100 243 C-100.7335753 234.87164843 -102.43980948 227.11808505 -104.27148438 219.17578125 C-104.6030957 217.70431641 -104.6030957 217.70431641 -104.94140625 216.203125 C-105.14451416 215.32301758 -105.34762207 214.44291016 -105.55688477 213.53613281 C-106.00512855 210.97064719 -106.0790563 208.59864761 -106 206 C-106.93457031 205.95488281 -107.86914062 205.90976562 -108.83203125 205.86328125 C-114.39814247 205.05536488 -118.91172912 201.99809811 -123.6875 199.1875 C-124.6868457 198.60871094 -125.68619141 198.02992188 -126.71582031 197.43359375 C-128.78754384 196.22994004 -130.85604994 195.02073236 -132.92138672 193.80615234 C-135.88631968 192.06669365 -138.86504122 190.3534425 -141.84765625 188.64453125 C-143.64924086 187.59773556 -145.45005886 186.54961907 -147.25 185.5 C-148.08877686 185.02071045 -148.92755371 184.5414209 -149.79174805 184.04760742 C-150.56687744 183.58845947 -151.34200684 183.12931152 -152.140625 182.65625 C-152.81641602 182.26244141 -153.49220703 181.86863281 -154.18847656 181.46289062 C-157.20864362 179.02396326 -158.81025023 176.26263848 -159.38768005 172.42028809 C-159.39308304 171.50493286 -159.39848602 170.58957764 -159.40405273 169.64648438 C-159.41673691 168.60190063 -159.42942108 167.55731689 -159.44248962 166.4810791 C-159.43955399 165.3632605 -159.43661835 164.24544189 -159.43359375 163.09375 C-159.4388356 161.93629272 -159.44407745 160.77883545 -159.44947815 159.58630371 C-159.45589433 157.14201662 -159.45456662 154.69769863 -159.44604492 152.25341797 C-159.43753059 148.51343884 -159.46631172 144.77498472 -159.49804688 141.03515625 C-159.49965887 138.65885462 -159.49908139 136.28255029 -159.49609375 133.90625 C-159.50732773 132.7884314 -159.51856171 131.67061279 -159.53013611 130.5189209 C-159.46093697 122.8134869 -159.46093697 122.8134869 -157.26611328 118.93994141 C-154.99884754 116.99901342 -152.86526388 115.48407283 -150.24609375 114.0546875 C-149.31812988 113.53994873 -148.39016602 113.02520996 -147.43408203 112.49487305 C-145.95077393 111.69303589 -145.95077393 111.69303589 -144.4375 110.875 C-142.35978263 109.73470117 -140.28297341 108.59274621 -138.20703125 107.44921875 C-137.16627441 106.8773584 -136.12551758 106.30549805 -135.05322266 105.71630859 C-132.18636845 104.10476333 -129.37557092 102.42938253 -126.57421875 100.70703125 C-125.73640869 100.19736816 -124.89859863 99.68770508 -124.03540039 99.16259766 C-122.47445095 98.20734023 -120.92212901 97.23777878 -119.38061523 96.25146484 C-114.25396218 93.15211458 -109.97753453 91.73398564 -104 93 C-100.39857432 94.44969049 -97.13666038 96.31699721 -93.8125 98.3125 C-92.09026098 99.30931497 -90.36761484 100.30542692 -88.64453125 101.30078125 C-87.44691162 102.00388428 -87.44691162 102.00388428 -86.22509766 102.72119141 C-83.53274948 104.26853832 -80.79922889 105.65765292 -78 107 C-72.42851444 102.21963172 -67.01842643 97.27843503 -61.6574707 92.26464844 C-61.12726318 91.77125977 -60.59705566 91.27787109 -60.05078125 90.76953125 C-59.58325439 90.33229736 -59.11572754 89.89506348 -58.6340332 89.44458008 C-57 88 -57 88 -54.32885742 86.57641602 C-50.47951099 82.31788233 -51.48704613 77.52365107 -51.6875 72.0078125 C-51.71589966 70.23976761 -51.71589966 70.23976761 -51.74487305 68.43600464 C-51.82665399 63.39099652 -51.96717805 58.34800846 -52.10253906 53.30419922 C-52.19298333 49.62216565 -52.25344241 45.94046169 -52.3125 42.2578125 C-52.3539917 41.12014435 -52.3954834 39.9824762 -52.43823242 38.81033325 C-52.57495155 29.97152529 -52.57495155 29.97152529 -49.83349609 26.45581055 C-47.09190652 24.07965602 -44.51698712 22.21484569 -41.3515625 20.44921875 C-40.27036133 19.83699463 -39.18916016 19.22477051 -38.07519531 18.59399414 C-36.93663086 17.96485107 -35.79806641 17.33570801 -34.625 16.6875 C-32.86029786 15.69822788 -31.09764483 14.70537793 -29.33520508 13.71208191 C-27.60969988 12.73994998 -25.88249758 11.77083233 -24.15527344 10.80175781 C-21.45439201 9.25947176 -18.79986149 7.67352772 -16.1640625 6.0234375 C-15.48649902 5.59973877 -14.80893555 5.17604004 -14.11083984 4.73950195 C-12.38619186 3.64864287 -10.6693065 2.54553724 -8.953125 1.44140625 C-5.54955564 -0.21985975 -3.74976508 -0.30829919 0 0 Z " fill="#072C76" transform="translate(293,95)"/>
<path d="M0 0 C2.70629883 1.12646484 2.70629883 1.12646484 5.45703125 2.7109375 C6.99085449 3.58202148 6.99085449 3.58202148 8.55566406 4.47070312 C9.63041992 5.09912109 10.70517578 5.72753906 11.8125 6.375 C12.91948242 7.01115234 14.02646484 7.64730469 15.16699219 8.30273438 C17.40114078 9.58919976 19.6321441 10.88114385 21.85986328 12.17871094 C24.64224379 13.79250029 27.43839513 15.37615932 30.24609375 16.9453125 C31.74781928 17.79612803 33.24915382 18.64763424 34.75 19.5 C35.42135986 19.8717334 36.09271973 20.2434668 36.78442383 20.62646484 C40.93044113 23.02580276 45.04248222 25.46845642 47 30 C47.7403502 34.95028849 47.79269709 39.8798661 47.8125 44.875 C47.83566531 46.24483111 47.86103488 47.61462681 47.88867188 48.984375 C47.94745415 52.3232084 47.9838023 55.6607331 48 59 C52.3410867 60.40753908 56.68273313 61.81333324 61.02490234 63.2175293 C62.50129372 63.6952425 63.97753232 64.17342811 65.45361328 64.65209961 C67.57804808 65.3409315 69.70303051 66.02805017 71.828125 66.71484375 C72.48556702 66.92842026 73.14300903 67.14199677 73.82037354 67.36204529 C76.86018528 68.34273718 79.88619171 69.2832754 83 70 C83.185625 69.42894531 83.37125 68.85789062 83.5625 68.26953125 C85.64990371 64.97392919 88.67149211 63.53563872 92 61.6875 C93.52896079 60.81956501 95.05758331 59.95103395 96.5859375 59.08203125 C97.43639648 58.6020166 98.28685547 58.12200195 99.16308594 57.62744141 C102.35534959 55.79614799 105.50944467 53.90709508 108.6640625 52.01171875 C110.40616724 50.97481642 112.14950992 49.94003824 113.89355469 48.90640259 C115.60124555 47.88915026 117.30070028 46.85811273 119 45.8269043 C120.59714844 44.88778198 120.59714844 44.88778198 122.2265625 43.9296875 C123.17096191 43.36491699 124.11536133 42.80014648 125.08837891 42.21826172 C129.97505278 40.17361116 133.59719859 40.4934409 138.53393555 42.27612305 C141.90633316 43.95341399 145.19137588 45.70553638 148.45703125 47.58203125 C149.04489914 47.91869308 149.63276703 48.25535492 150.2384491 48.60221863 C152.09852168 49.6687786 153.95547465 50.74064523 155.8125 51.8125 C157.04473493 52.51920628 158.27715559 53.22558879 159.50976562 53.93164062 C161.90281707 55.30378464 164.29056204 56.68452611 166.67431641 58.07275391 C168.77584219 59.29059597 170.88649277 60.49294349 173.00927734 61.67333984 C174.34079834 62.4286499 174.34079834 62.4286499 175.69921875 63.19921875 C176.46451904 63.62420654 177.22981934 64.04919434 178.01831055 64.48706055 C181.17263944 66.89526261 182.79204704 69.64339012 183.39440918 73.57298279 C183.40282837 74.48532181 183.41124756 75.39766083 183.41992188 76.33764648 C183.43583374 77.37900253 183.45174561 78.42035858 183.46813965 79.49327087 C183.46844177 81.1652932 183.46844177 81.1652932 183.46875 82.87109375 C183.47636353 84.02617935 183.48397705 85.18126495 183.49182129 86.37135315 C183.50261522 88.81143026 183.50547829 91.25155355 183.50097656 93.69165039 C183.50000434 97.42086961 183.5416364 101.1480309 183.5859375 104.87695312 C183.59114468 107.24999572 183.59383269 109.62304545 183.59375 111.99609375 C183.61014526 113.10875107 183.62654053 114.22140839 183.64343262 115.36778259 C183.56652306 124.00067276 183.56652306 124.00067276 180.8215332 127.5222168 C178.06369716 129.94406313 175.45200645 131.84003913 172.26171875 133.6484375 C171.19501953 134.26074219 170.12832031 134.87304688 169.02929688 135.50390625 C167.37510742 136.43009766 167.37510742 136.43009766 165.6875 137.375 C164.56537109 138.01566406 163.44324219 138.65632812 162.28710938 139.31640625 C159.5305447 140.88823462 156.76828878 142.44894361 154 144 C154.97225482 151.75568788 156.67264362 159.3693783 158.27148438 167.015625 C158.49255859 168.09585938 158.71363281 169.17609375 158.94140625 170.2890625 C159.14451416 171.26568848 159.34762207 172.24231445 159.55688477 173.24853516 C160.38805933 178.40960256 160.38805933 178.40960256 160 181 C158.11425781 182.66235352 158.11425781 182.66235352 155.453125 184.12890625 C153.98093506 184.96071411 153.98093506 184.96071411 152.47900391 185.80932617 C151.41343262 186.38787354 150.34786133 186.9664209 149.25 187.5625 C147.0540899 188.79841799 144.85878758 190.0354164 142.6640625 191.2734375 C141.55192383 191.8931543 140.43978516 192.51287109 139.29394531 193.15136719 C134.35873841 195.92111123 129.48611869 198.79021915 124.625 201.6875 C123.78227539 202.18000244 122.93955078 202.67250488 122.07128906 203.17993164 C121.2975293 203.64004639 120.52376953 204.10016113 119.7265625 204.57421875 C119.05189941 204.97213623 118.37723633 205.37005371 117.68212891 205.7800293 C115.70565016 207.06464444 115.70565016 207.06464444 114 210 C113.76392983 212.55985897 113.76392983 212.55985897 113.89990234 215.46191406 C113.92587494 216.58027649 113.95184753 217.69863892 113.97860718 218.85089111 C114.01402618 220.0602533 114.04944519 221.26961548 114.0859375 222.515625 C114.13072335 225.07158339 114.17363314 227.62757522 114.21484375 230.18359375 C114.28638172 234.21773356 114.3715863 238.250742 114.49365234 242.28369141 C114.6027818 246.17375156 114.6608602 250.061915 114.7109375 253.953125 C114.78228409 255.75502289 114.78228409 255.75502289 114.85507202 257.59332275 C114.906342 265.80690518 114.906342 265.80690518 112.28132629 269.26243591 C110.26944881 271.03307908 108.2282218 272.51674242 106 274 C104.92753905 274.93826887 103.87248324 275.89698128 102.83984375 276.87890625 C100.84419157 278.72414588 98.8437225 280.56264533 96.8359375 282.39453125 C95.1577112 283.93637277 93.49111051 285.49130967 91.8515625 287.07421875 C90.0625 288.75 90.0625 288.75 87 291 C82.49419518 290.7681404 79.08534213 288.48843711 75.375 286.125 C74.51648438 285.59712891 74.51648438 285.59712891 73.640625 285.05859375 C66.42028937 280.54168611 66.42028937 280.54168611 65.44941711 276.9803772 C65.36725449 276.20906464 65.28509186 275.43775208 65.20043945 274.64306641 C65.10056229 273.7642984 65.00068512 272.8855304 64.89778137 271.98013306 C64.75695381 270.55524063 64.75695381 270.55524063 64.61328125 269.1015625 C64.45317818 267.6226503 64.45317818 267.6226503 64.2898407 266.11386108 C64.06610681 264.02139259 63.84881665 261.92822667 63.63745117 259.83447266 C63.31709597 256.67039342 62.975789 253.50914027 62.63085938 250.34765625 C59.97086849 225.43977424 59.97086849 225.43977424 61 220 C62.84676483 217.73512822 64.65887921 216.17397703 67.01953125 214.4609375 C69.91536493 212.32476039 70.92828153 210.41610263 72 207 C72.41180655 200.08053478 71.82051559 193.13840592 71.1875 186.25 C71.11724609 185.34378906 71.04699219 184.43757812 70.97460938 183.50390625 C70.42903937 177.52445899 69.50873542 172.78219947 65.3515625 168.171875 C57.46194563 161.67454346 51.45827026 161.43496196 41.42260742 162.31298828 C37.19491367 162.76534706 32.97220567 163.24946392 28.75 163.75 C25.55112243 164.12537272 22.35188603 164.49752393 19.15234375 164.8671875 C18.32909103 164.96262848 17.50583832 165.05806946 16.65763855 165.15640259 C10.6133825 165.84556151 4.56394287 166.41510606 -1.49609375 166.9453125 C-4.06252478 167.1796253 -6.62876198 167.41595572 -9.19494629 167.6529541 C-10.84073516 167.79956706 -12.48733643 167.93736067 -14.13464355 168.0657959 C-27.26128789 168.95248995 -27.26128789 168.95248995 -38 176 C-42.19465543 181.44076345 -42.49676026 186.54247968 -41.875 193.1875 C-41.81223877 194.01467529 -41.74947754 194.84185059 -41.68481445 195.6940918 C-41.48676791 198.13335323 -41.25099828 200.56567449 -41 203 C-40.87238281 204.29164063 -40.74476563 205.58328125 -40.61328125 206.9140625 C-39.65137149 214.59169089 -37.92083697 219.50912271 -32.0625 224.75 C-29.33513636 226.75377737 -27.128693 227.83534271 -24 229 C-22.1944566 241.43391942 -20.62360331 253.87867051 -19.3125 266.375 C-19.18125732 267.60371826 -19.05001465 268.83243652 -18.91479492 270.09838867 C-17.15081496 287.30162991 -17.15081496 287.30162991 -21 295 C-27.875 294.125 -27.875 294.125 -29 293 C-29.10995641 290.76756311 -29.15594264 288.5319301 -29.17578125 286.296875 C-29.19899144 284.91014127 -29.22310925 283.52342249 -29.24804688 282.13671875 C-29.28308557 279.9466775 -29.31245583 277.7571812 -29.32592773 275.56689453 C-29.34146414 273.4553774 -29.38171797 271.34546496 -29.42578125 269.234375 C-29.44765503 267.33510254 -29.44765503 267.33510254 -29.4699707 265.39746094 C-30.09044014 261.42028329 -31.17959498 259.82071997 -34 257 C-35.70953092 255.68958251 -35.70953092 255.68958251 -37.5546875 254.78125 C-38.24119385 254.41241699 -38.9277002 254.04358398 -39.63500977 253.66357422 C-40.74380493 253.08760498 -40.74380493 253.08760498 -41.875 252.5 C-47.2685308 249.62963749 -52.57196774 246.68876252 -57.76171875 243.4609375 C-58.72674316 242.86603516 -59.69176758 242.27113281 -60.68603516 241.65820312 C-62.5663808 240.49252289 -64.43766826 239.31206829 -66.29833984 238.11523438 C-71.8687104 234.6945967 -76.41742531 232.50324522 -83 234 C-85.91575834 235.19871941 -88.44940456 236.74741031 -91.0625 238.5 C-91.73732422 238.92925781 -92.41214844 239.35851562 -93.10742188 239.80078125 C-94.74991471 240.84918093 -96.37672037 241.92209099 -98 243 C-99.89060255 239.65246142 -100.70179063 236.4085623 -101.5078125 232.66015625 C-101.77207031 231.43232422 -102.03632813 230.20449219 -102.30859375 228.93945312 C-102.57800781 227.66005859 -102.84742188 226.38066406 -103.125 225.0625 C-103.54072266 223.14920898 -103.54072266 223.14920898 -103.96484375 221.19726562 C-106.1779259 210.80232066 -106.1779259 210.80232066 -106 206 C-106.93457031 205.95488281 -107.86914062 205.90976562 -108.83203125 205.86328125 C-114.39814247 205.05536488 -118.91172912 201.99809811 -123.6875 199.1875 C-124.6868457 198.60871094 -125.68619141 198.02992188 -126.71582031 197.43359375 C-128.78754384 196.22994004 -130.85604994 195.02073236 -132.92138672 193.80615234 C-135.88631968 192.06669365 -138.86504122 190.3534425 -141.84765625 188.64453125 C-143.64924086 187.59773556 -145.45005886 186.54961907 -147.25 185.5 C-148.08877686 185.02071045 -148.92755371 184.5414209 -149.79174805 184.04760742 C-150.56687744 183.58845947 -151.34200684 183.12931152 -152.140625 182.65625 C-152.81641602 182.26244141 -153.49220703 181.86863281 -154.18847656 181.46289062 C-157.20864362 179.02396326 -158.81025023 176.26263848 -159.38768005 172.42028809 C-159.39308304 171.50493286 -159.39848602 170.58957764 -159.40405273 169.64648438 C-159.41673691 168.60190063 -159.42942108 167.55731689 -159.44248962 166.4810791 C-159.43955399 165.3632605 -159.43661835 164.24544189 -159.43359375 163.09375 C-159.4388356 161.93629272 -159.44407745 160.77883545 -159.44947815 159.58630371 C-159.45589433 157.14201662 -159.45456662 154.69769863 -159.44604492 152.25341797 C-159.43753059 148.51343884 -159.46631172 144.77498472 -159.49804688 141.03515625 C-159.49965887 138.65885462 -159.49908139 136.28255029 -159.49609375 133.90625 C-159.50732773 132.7884314 -159.51856171 131.67061279 -159.53013611 130.5189209 C-159.46093697 122.8134869 -159.46093697 122.8134869 -157.26611328 118.93994141 C-154.99884754 116.99901342 -152.86526388 115.48407283 -150.24609375 114.0546875 C-149.31812988 113.53994873 -148.39016602 113.02520996 -147.43408203 112.49487305 C-145.95077393 111.69303589 -145.95077393 111.69303589 -144.4375 110.875 C-142.35978263 109.73470117 -140.28297341 108.59274621 -138.20703125 107.44921875 C-137.16627441 106.8773584 -136.12551758 106.30549805 -135.05322266 105.71630859 C-132.18636845 104.10476333 -129.37557092 102.42938253 -126.57421875 100.70703125 C-125.73640869 100.19736816 -124.89859863 99.68770508 -124.03540039 99.16259766 C-122.47445095 98.20734023 -120.92212901 97.23777878 -119.38061523 96.25146484 C-114.25396218 93.15211458 -109.97753453 91.73398564 -104 93 C-100.39857432 94.44969049 -97.13666038 96.31699721 -93.8125 98.3125 C-92.09026098 99.30931497 -90.36761484 100.30542692 -88.64453125 101.30078125 C-87.44691162 102.00388428 -87.44691162 102.00388428 -86.22509766 102.72119141 C-83.53274948 104.26853832 -80.79922889 105.65765292 -78 107 C-72.42851444 102.21963172 -67.01842643 97.27843503 -61.6574707 92.26464844 C-61.12726318 91.77125977 -60.59705566 91.27787109 -60.05078125 90.76953125 C-59.58325439 90.33229736 -59.11572754 89.89506348 -58.6340332 89.44458008 C-57 88 -57 88 -54.32885742 86.57641602 C-50.47951099 82.31788233 -51.48704613 77.52365107 -51.6875 72.0078125 C-51.71589966 70.23976761 -51.71589966 70.23976761 -51.74487305 68.43600464 C-51.82665399 63.39099652 -51.96717805 58.34800846 -52.10253906 53.30419922 C-52.19298333 49.62216565 -52.25344241 45.94046169 -52.3125 42.2578125 C-52.3539917 41.12014435 -52.3954834 39.9824762 -52.43823242 38.81033325 C-52.57495155 29.97152529 -52.57495155 29.97152529 -49.83349609 26.45581055 C-47.09190652 24.07965602 -44.51698712 22.21484569 -41.3515625 20.44921875 C-40.27036133 19.83699463 -39.18916016 19.22477051 -38.07519531 18.59399414 C-36.93663086 17.96485107 -35.79806641 17.33570801 -34.625 16.6875 C-32.86029786 15.69822788 -31.09764483 14.70537793 -29.33520508 13.71208191 C-27.60969988 12.73994998 -25.88249758 11.77083233 -24.15527344 10.80175781 C-21.45439201 9.25947176 -18.79986149 7.67352772 -16.1640625 6.0234375 C-15.48649902 5.59973877 -14.80893555 5.17604004 -14.11083984 4.73950195 C-12.38619186 3.64864287 -10.6693065 2.54553724 -8.953125 1.44140625 C-5.54955564 -0.21985975 -3.74976508 -0.30829919 0 0 Z " fill="#6965F6" transform="translate(293,95)"/>
<path d="M0 0 C1.42561646 10.70969534 2.78667244 21.42205209 3.796875 32.1796875 C3.86146408 32.8663298 3.92605316 33.55297211 3.99259949 34.26042175 C4.30798222 37.63973541 4.61345059 41.01954149 4.90942383 44.40063477 C5.88840587 55.15139785 6.64824707 63.16068613 13.25 71.875 C14.04192749 72.95793335 14.04192749 72.95793335 14.84985352 74.06274414 C16.55301348 76.38550667 18.27607457 78.6926217 20 81 C21.15123902 82.56269856 22.30097491 84.12650557 23.44921875 85.69140625 C25.79166788 88.88116624 28.14139021 92.06537106 30.49609375 95.24609375 C33.86551555 99.80592679 37.18869713 104.39785879 40.5 109 C44.96008395 115.19663374 49.46261539 121.35974857 54 127.5 C59.69875968 135.21450233 65.34632031 142.96387165 70.94140625 150.75390625 C72.93172936 153.52499515 74.9393856 156.28184301 76.96484375 159.02734375 C77.42600586 159.65793701 77.88716797 160.28853027 78.36230469 160.93823242 C79.21236223 162.10040579 80.06801259 163.25852085 80.93066406 164.41137695 C85.80125072 171.1110332 87.20014905 177.87267482 86 186 C82.91215201 194.73115638 79.15281802 200.53170947 70.74569702 204.55886841 C67.19142098 206.04351388 63.85131231 206.6056113 60.00634766 206.99560547 C59.34182492 207.06613129 58.67730219 207.1366571 57.9926424 207.20932007 C55.80073573 207.43925907 53.60758412 207.65325222 51.4140625 207.8671875 C49.85256493 208.02783726 48.29117036 208.18949098 46.72987366 208.3520813 C42.55813245 208.78371301 38.38512531 209.20162164 34.21169662 209.61657715 C29.89143471 210.04819112 25.57236553 210.4914208 21.25317383 210.93359375 C15.21208979 211.55098895 9.17060335 212.16414718 3.12855244 212.77200699 C-6.05173828 213.69589253 -15.22798643 214.65152136 -24.40234375 215.6328125 C-27.69298577 215.98162817 -30.98370802 216.32967339 -34.2744751 216.67730713 C-36.27109267 216.88938382 -38.26748085 217.10363352 -40.26361084 217.32025146 C-72.21776058 220.77640069 -72.21776058 220.77640069 -79.2265625 216.4609375 C-85.6179228 211.19580809 -90.75112218 205.2090435 -92.4140625 196.94140625 C-92.93997386 191.16612035 -91.19608323 186.46533681 -88.95703125 181.23046875 C-88.64495224 180.48771194 -88.33287323 179.74495514 -88.01133728 178.97969055 C-84.87093905 171.56958304 -81.51818989 164.25904385 -78.1217041 156.96359253 C-76.2557251 152.95384515 -74.40251352 148.93821775 -72.55078125 144.921875 C-72.17162567 144.09952866 -71.79247009 143.27718231 -71.40182495 142.42991638 C-66.74898468 132.31384705 -62.24417408 122.13173926 -57.77563477 111.93310547 C-54.69318179 104.91855795 -51.53773787 97.97014856 -48.109375 91.1171875 C-47.49332514 89.86685913 -46.87775462 88.61629446 -46.26269531 87.36547852 C-45.13953759 85.10158457 -43.99039635 82.85026656 -42.80761719 80.61694336 C-35.68565602 66.16455671 -39.22677467 49.56634139 -41 34.125 C-43.37299792 13.19802507 -43.37299792 13.19802507 -43 4 C-37.51931092 3.42773144 -32.03835283 2.85813857 -26.55712891 2.29101562 C-24.6927948 2.09773973 -22.82853611 1.90373489 -20.96435547 1.70898438 C-18.28372412 1.42906762 -15.60283185 1.15177958 -12.921875 0.875 C-12.08944275 0.78750488 -11.2570105 0.70000977 -10.39935303 0.60986328 C-9.61884583 0.52978027 -8.83833862 0.44969727 -8.03417969 0.3671875 C-7.35023132 0.29612793 -6.66628296 0.22506836 -5.96160889 0.15185547 C-3.97969118 -0.00157218 -1.98784754 0 0 0 Z " fill="#D1DBFC" transform="translate(333,318)"/>
<path d="M0 0 C4.58895569 0.64196234 8.76108682 1.80395666 13.1484375 3.28515625 C14.13452499 3.6159745 14.13452499 3.6159745 15.14053345 3.95347595 C17.22014841 4.65223562 19.29757641 5.35725541 21.375 6.0625 C22.79282841 6.54013034 24.2107959 7.01734804 25.62890625 7.49414062 C29.08755852 8.6579935 32.54427947 9.82746672 36 11 C36.00410889 11.9379541 36.00821777 12.8759082 36.01245117 13.84228516 C36.03952002 17.34304534 36.08869341 20.84207725 36.15258789 24.34228516 C36.17569667 25.85324404 36.19014688 27.36436238 36.19555664 28.87548828 C36.2048997 31.05601535 36.24599631 33.23405964 36.29296875 35.4140625 C36.31653442 37.37786865 36.31653442 37.37786865 36.34057617 39.38134766 C37.28649813 44.57218635 39.62335728 47.22551391 43.88671875 50.40869141 C44.48097656 50.71983887 45.07523438 51.03098633 45.6875 51.3515625 C46.37610107 51.72216797 47.06470215 52.09277344 47.77416992 52.47460938 C48.50869385 52.85423828 49.24321777 53.23386719 50 53.625 C51.6012628 54.47989596 53.20147885 55.3367547 54.80078125 56.1953125 C55.64205566 56.64422852 56.48333008 57.09314453 57.35009766 57.55566406 C60.13092376 59.07136033 62.87008253 60.64603365 65.60546875 62.2421875 C66.53552734 62.78407715 67.46558594 63.3259668 68.42382812 63.88427734 C70.22882501 64.93953082 72.03104634 65.99955026 73.83007812 67.06494141 C78.50871298 69.78148055 82.71569551 71.79869668 88 73 C89.03572034 76.99131253 90.02544359 80.99339162 91 85 C91.21414551 85.87881836 91.42829102 86.75763672 91.64892578 87.66308594 C92.36011638 90.60625206 93.05645837 93.55262902 93.75 96.5 C93.98485107 97.46760254 94.21970215 98.43520508 94.46166992 99.43212891 C94.78228394 100.81150635 94.78228394 100.81150635 95.109375 102.21875 C95.40279785 103.4552832 95.40279785 103.4552832 95.70214844 104.71679688 C96.03924313 107.30082113 96.1077476 108.62960661 95 111 C92.62329102 112.78344727 92.62329102 112.78344727 89.50390625 114.56640625 C88.38822266 115.21673828 87.27253906 115.86707031 86.12304688 116.53710938 C84.93672298 117.21316179 83.74986762 117.88828239 82.5625 118.5625 C80.24618944 119.88868519 77.93674145 121.22538488 75.62890625 122.56640625 C74.0831189 123.44727905 74.0831189 123.44727905 72.50610352 124.34594727 C69.77606779 125.91461331 69.77606779 125.91461331 68 129 C67.76392983 131.55985897 67.76392983 131.55985897 67.89990234 134.46191406 C67.92587494 135.58027649 67.95184753 136.69863892 67.97860718 137.85089111 C68.01402618 139.0602533 68.04944519 140.26961548 68.0859375 141.515625 C68.13072335 144.07158339 68.17363314 146.62757522 68.21484375 149.18359375 C68.28638172 153.21773356 68.3715863 157.250742 68.49365234 161.28369141 C68.6027818 165.17375156 68.6608602 169.061915 68.7109375 172.953125 C68.78228409 174.75502289 68.78228409 174.75502289 68.85507202 176.59332275 C68.906342 184.80690518 68.906342 184.80690518 66.28132629 188.26243591 C64.26944881 190.03307908 62.2282218 191.51674242 60 193 C58.92753905 193.93826887 57.87248324 194.89698128 56.83984375 195.87890625 C54.84419157 197.72414588 52.8437225 199.56264533 50.8359375 201.39453125 C49.1577112 202.93637277 47.49111051 204.49130967 45.8515625 206.07421875 C44.0625 207.75 44.0625 207.75 41 210 C36.49419518 209.7681404 33.08534213 207.48843711 29.375 205.125 C28.80265625 204.77308594 28.2303125 204.42117188 27.640625 204.05859375 C20.42028937 199.54168611 20.42028937 199.54168611 19.44941711 195.9803772 C19.36725449 195.20906464 19.28509186 194.43775208 19.20043945 193.64306641 C19.10056229 192.7642984 19.00068512 191.8855304 18.89778137 190.98013306 C18.75695381 189.55524063 18.75695381 189.55524063 18.61328125 188.1015625 C18.45317818 186.6226503 18.45317818 186.6226503 18.2898407 185.11386108 C18.06610681 183.02139259 17.84881665 180.92822667 17.63745117 178.83447266 C17.31709597 175.67039342 16.975789 172.50914027 16.63085938 169.34765625 C13.97086849 144.43977424 13.97086849 144.43977424 15 139 C16.84676483 136.73512822 18.65887921 135.17397703 21.01953125 133.4609375 C23.91536493 131.32476039 24.92828153 129.41610263 26 126 C26.41180655 119.08053478 25.82051559 112.13840592 25.1875 105.25 C25.08211914 103.89068359 25.08211914 103.89068359 24.97460938 102.50390625 C24.42903937 96.52445899 23.50873542 91.78219947 19.3515625 87.171875 C11.46194563 80.67454346 5.45827026 80.43496196 -4.57739258 81.31298828 C-8.80508633 81.76534706 -13.02779433 82.24946392 -17.25 82.75 C-20.44887757 83.12537272 -23.64811397 83.49752393 -26.84765625 83.8671875 C-27.67090897 83.96262848 -28.49416168 84.05806946 -29.34236145 84.15640259 C-35.3866175 84.84556151 -41.43605713 85.41510606 -47.49609375 85.9453125 C-50.06252478 86.1796253 -52.62876198 86.41595572 -55.19494629 86.6529541 C-56.84073516 86.79956706 -58.48733643 86.93736067 -60.13464355 87.0657959 C-73.26128789 87.95248995 -73.26128789 87.95248995 -84 95 C-88.19465543 100.44076345 -88.49676026 105.54247968 -87.875 112.1875 C-87.81223877 113.01467529 -87.74947754 113.84185059 -87.68481445 114.6940918 C-87.48676791 117.13335323 -87.25099828 119.56567449 -87 122 C-86.87238281 123.29164063 -86.74476563 124.58328125 -86.61328125 125.9140625 C-85.65137149 133.59169089 -83.92083697 138.50912271 -78.0625 143.75 C-75.33513636 145.75377737 -73.128693 146.83534271 -70 148 C-68.1944566 160.43391942 -66.62360331 172.87867051 -65.3125 185.375 C-65.18125732 186.60371826 -65.05001465 187.83243652 -64.91479492 189.09838867 C-63.15081496 206.30162991 -63.15081496 206.30162991 -67 214 C-73.875 213.125 -73.875 213.125 -75 212 C-75.10995641 209.76756311 -75.15594264 207.5319301 -75.17578125 205.296875 C-75.19899144 203.91014127 -75.22310925 202.52342249 -75.24804688 201.13671875 C-75.28308557 198.9466775 -75.31245583 196.7571812 -75.32592773 194.56689453 C-75.34146414 192.4553774 -75.38171797 190.34546496 -75.42578125 188.234375 C-75.44036377 186.96819336 -75.45494629 185.70201172 -75.4699707 184.39746094 C-76.181334 179.83765824 -78.03354406 177.43978629 -81.72558594 174.73657227 C-82.59618652 174.28109009 -82.59618652 174.28109009 -83.484375 173.81640625 C-84.16097168 173.45281006 -84.83756836 173.08921387 -85.53466797 172.71459961 C-86.63125732 172.1443103 -86.63125732 172.1443103 -87.75 171.5625 C-89.35313526 170.70344943 -90.95460614 169.84128799 -92.5546875 168.9765625 C-93.42061523 168.50895508 -94.28654297 168.04134766 -95.17871094 167.55957031 C-101.5448361 164.0404627 -107.77879886 160.28327531 -114.02636719 156.55883789 C-115.49444824 155.69246704 -115.49444824 155.69246704 -116.9921875 154.80859375 C-117.86214355 154.29095459 -118.73209961 153.77331543 -119.62841797 153.23999023 C-121.78690811 152.11141587 -123.62051604 151.45764605 -126 151 C-128.00411694 143.16664953 -129.97521077 135.32639569 -131.75 127.4375 C-131.99234375 126.36371094 -132.2346875 125.28992188 -132.484375 124.18359375 C-133.06602227 120.59236248 -133.46991375 117.62383939 -133 114 C-130.61328125 111.84765625 -130.61328125 111.84765625 -127.3125 110.0625 C-126.12470393 109.39375477 -124.93721303 108.72446725 -123.75 108.0546875 C-122.82574219 107.55146973 -122.82574219 107.55146973 -121.8828125 107.03808594 C-118.80613477 105.34176414 -115.81097269 103.51737207 -112.8125 101.6875 C-111.74644531 101.05199219 -110.68039063 100.41648437 -109.58203125 99.76171875 C-106.79258942 98.09478213 -106.79258942 98.09478213 -105 95 C-104.70313229 92.53590243 -104.70313229 92.53590243 -104.75708008 89.75 C-104.75400345 88.67878906 -104.75092682 87.60757813 -104.74775696 86.50390625 C-104.75494247 85.34761719 -104.76212799 84.19132812 -104.76953125 83 C-104.76998947 81.81277344 -104.77044769 80.62554687 -104.7709198 79.40234375 C-104.77394267 76.89061484 -104.78182999 74.37888782 -104.79418945 71.8671875 C-104.81242634 68.01555767 -104.81469927 64.16416846 -104.81445312 60.3125 C-104.81936906 57.87499791 -104.82519771 55.43749746 -104.83203125 53 C-104.83314407 51.84371094 -104.8342569 50.68742187 -104.83540344 49.49609375 C-104.84178329 48.42488281 -104.84816315 47.35367188 -104.85473633 46.25 C-104.85854813 45.30640625 -104.86235992 44.3628125 -104.86628723 43.390625 C-104.90323889 40.852358 -104.90323889 40.852358 -106 38 C-101.9102245 33.79519957 -97.70766376 29.80650931 -93.265625 25.9765625 C-88.77646723 22.06015934 -84.39805484 18.01807583 -80 14 C-76.33427037 15.36168605 -73.12648924 17.02932842 -69.796875 19.07421875 C-68.81589844 19.65880859 -67.83492188 20.24339844 -66.82421875 20.84570312 C-64.78101226 22.06980968 -62.74698274 23.3093707 -60.72265625 24.56445312 C-53.46704868 28.85902439 -53.46704868 28.85902439 -45.30566406 28.8425293 C-40.35521284 27.03354929 -35.96662972 24.32639328 -31.5 21.5625 C-29.38293914 20.28494638 -27.26575074 19.00760407 -25.1484375 17.73046875 C-24.11170898 17.09802246 -23.07498047 16.46557617 -22.00683594 15.81396484 C-19.26872929 14.16211909 -16.51010645 12.5619842 -13.7265625 10.98828125 C-12.94216797 10.54218506 -12.15777344 10.09608887 -11.34960938 9.63647461 C-9.90415021 8.81682058 -8.45509901 8.00345763 -7.00195312 7.19750977 C-3.60719112 5.24397698 -1.23389972 3.84073012 0 0 Z " fill="#FDFDFE" transform="translate(339,176)"/>
<path d="M0 0 C0.556875 0.37511719 1.11375 0.75023437 1.6875 1.13671875 C6.73448638 4.52126874 11.82564989 7.81361546 17 11 C15.66196542 14.00874098 14.22415624 15.98385643 11.8046875 18.20703125 C11.1744165 18.79081543 10.54414551 19.37459961 9.89477539 19.97607422 C9.22824951 20.58209473 8.56172363 21.18811523 7.875 21.8125 C7.20009521 22.43398926 6.52519043 23.05547852 5.82983398 23.69580078 C1.28378369 27.86934954 -3.29706814 32.00325919 -8 36 C-7.67 36.99 -7.34 37.98 -7 39 C-6.89245599 40.73709507 -6.84127111 42.47793672 -6.82299805 44.21826172 C-6.80374519 45.81539505 -6.80374519 45.81539505 -6.78410339 47.4447937 C-6.77671646 48.59480865 -6.76932953 49.74482361 -6.76171875 50.9296875 C-6.753647 52.11217072 -6.74557526 53.29465393 -6.73725891 54.51296997 C-6.7234219 57.01628148 -6.71269804 59.51961182 -6.70483398 62.02294922 C-6.68759944 65.85290122 -6.64370564 69.68199497 -6.59960938 73.51171875 C-6.58948437 75.94270198 -6.58096767 78.37369255 -6.57421875 80.8046875 C-6.55671066 81.95065399 -6.53920258 83.09662048 -6.52116394 84.27731323 C-6.54270977 92.16531363 -6.54270977 92.16531363 -8.67407227 96.05566406 C-11.22312056 98.1865154 -13.69628734 99.76216297 -16.640625 101.3046875 C-17.71054688 101.88863281 -18.78046875 102.47257812 -19.8828125 103.07421875 C-22.13654027 104.27951864 -24.39707949 105.47216381 -26.6640625 106.65234375 C-27.72882813 107.23886719 -28.79359375 107.82539063 -29.890625 108.4296875 C-30.87063477 108.94772949 -31.85064453 109.46577148 -32.86035156 109.99951172 C-35.34604876 111.89399047 -35.34604876 111.89399047 -35.40136719 115.30200195 C-35.015346 118.85860957 -34.46834598 122.24774954 -33.6875 125.73828125 C-33.28144531 127.58583008 -33.28144531 127.58583008 -32.8671875 129.47070312 C-32.58101563 130.73849609 -32.29484375 132.00628906 -32 133.3125 C-31.43585217 135.84989461 -30.87326819 138.38763759 -30.3125 140.92578125 C-30.06113281 142.04380127 -29.80976563 143.16182129 -29.55078125 144.3137207 C-29 147 -29 147 -29 149 C-27.68 149.33 -26.36 149.66 -25 150 C-25.99128906 150.07089844 -26.98257813 150.14179688 -28.00390625 150.21484375 C-32.63959045 150.87708435 -36.04871739 153.07047346 -39.9375 155.5625 C-40.62134766 155.98724609 -41.30519531 156.41199219 -42.00976562 156.84960938 C-43.6798778 157.88904982 -45.34091218 158.94305216 -47 160 C-48.89060255 156.65246142 -49.70179063 153.4085623 -50.5078125 149.66015625 C-50.77207031 148.43232422 -51.03632813 147.20449219 -51.30859375 145.93945312 C-51.57800781 144.66005859 -51.84742188 143.38066406 -52.125 142.0625 C-52.54072266 140.14920898 -52.54072266 140.14920898 -52.96484375 138.19726562 C-55.1779259 127.80232066 -55.1779259 127.80232066 -55 123 C-55.93457031 122.95488281 -56.86914062 122.90976562 -57.83203125 122.86328125 C-63.39814247 122.05536488 -67.91172912 118.99809811 -72.6875 116.1875 C-73.6868457 115.60871094 -74.68619141 115.02992188 -75.71582031 114.43359375 C-77.78754384 113.22994004 -79.85604994 112.02073236 -81.92138672 110.80615234 C-84.88631968 109.06669365 -87.86504122 107.3534425 -90.84765625 105.64453125 C-92.64924086 104.59773556 -94.45005886 103.54961907 -96.25 102.5 C-97.08877686 102.02071045 -97.92755371 101.5414209 -98.79174805 101.04760742 C-99.56687744 100.58845947 -100.34200684 100.12931152 -101.140625 99.65625 C-101.81641602 99.26244141 -102.49220703 98.86863281 -103.18847656 98.46289062 C-106.20864362 96.02396326 -107.81025023 93.26263848 -108.38768005 89.42028809 C-108.39308304 88.50493286 -108.39848602 87.58957764 -108.40405273 86.64648438 C-108.41673691 85.60190063 -108.42942108 84.55731689 -108.44248962 83.4810791 C-108.43955399 82.3632605 -108.43661835 81.24544189 -108.43359375 80.09375 C-108.4388356 78.93629272 -108.44407745 77.77883545 -108.44947815 76.58630371 C-108.45589433 74.14201662 -108.45456662 71.69769863 -108.44604492 69.25341797 C-108.43753059 65.51343884 -108.46631172 61.77498472 -108.49804688 58.03515625 C-108.49965887 55.65885462 -108.49908139 53.28255029 -108.49609375 50.90625 C-108.50732773 49.7884314 -108.51856171 48.67061279 -108.53013611 47.5189209 C-108.46093697 39.8134869 -108.46093697 39.8134869 -106.26611328 35.93994141 C-103.99884754 33.99901342 -101.86526388 32.48407283 -99.24609375 31.0546875 C-98.31812988 30.53994873 -97.39016602 30.02520996 -96.43408203 29.49487305 C-95.44520996 28.96031494 -94.45633789 28.42575684 -93.4375 27.875 C-91.35978263 26.73470117 -89.28297341 25.59274621 -87.20703125 24.44921875 C-85.645896 23.59142822 -85.645896 23.59142822 -84.05322266 22.71630859 C-81.18636845 21.10476333 -78.37557092 19.42938253 -75.57421875 17.70703125 C-74.73640869 17.19736816 -73.89859863 16.68770508 -73.03540039 16.16259766 C-71.47445095 15.20734023 -69.92212901 14.23777878 -68.38061523 13.25146484 C-63.25396218 10.15211458 -58.97753453 8.73398564 -53 10 C-49.39857432 11.44969049 -46.13666038 13.31699721 -42.8125 15.3125 C-41.09026098 16.30931497 -39.36761484 17.30542692 -37.64453125 18.30078125 C-36.44691162 19.00388428 -36.44691162 19.00388428 -35.22509766 19.72119141 C-32.53274948 21.26853832 -29.79922889 22.65765292 -27 24 C-21.46003754 19.24667874 -16.07866472 14.33508288 -10.74536133 9.35253906 C-7.25800142 6.1088305 -3.68340853 3.01973131 0 0 Z " fill="#6965F6" transform="translate(242,178)"/>
<path d="M0 0 C2.70629883 1.12646484 2.70629883 1.12646484 5.45703125 2.7109375 C6.47958008 3.29166016 7.50212891 3.87238281 8.55566406 4.47070312 C9.63041992 5.09912109 10.70517578 5.72753906 11.8125 6.375 C12.91948242 7.01115234 14.02646484 7.64730469 15.16699219 8.30273438 C17.40114078 9.58919976 19.6321441 10.88114385 21.85986328 12.17871094 C24.64224379 13.79250029 27.43839513 15.37615932 30.24609375 16.9453125 C31.74781928 17.79612803 33.24915382 18.64763424 34.75 19.5 C35.42135986 19.8717334 36.09271973 20.2434668 36.78442383 20.62646484 C37.40728271 20.98691895 38.0301416 21.34737305 38.671875 21.71875 C39.1987793 22.01716797 39.72568359 22.31558594 40.26855469 22.62304688 C43.92053371 25.52732799 46.59497387 27.79650445 47.45452881 32.47280884 C47.62850001 35.51545476 47.64049038 38.51910892 47.59375 41.56640625 C47.59379028 42.67805649 47.59383057 43.78970673 47.59387207 44.93504333 C47.58852262 47.27926301 47.57096482 49.62348257 47.54199219 51.9675293 C47.50010185 55.55378035 47.50092918 59.13815464 47.5078125 62.72460938 C47.49732081 65.00522137 47.48438282 67.2858237 47.46875 69.56640625 C47.46844788 71.17280724 47.46844788 71.17280724 47.46813965 72.81166077 C47.31679043 82.33588529 47.31679043 82.33588529 44 86 C41.51074219 87.80175781 41.51074219 87.80175781 38.546875 89.453125 C37.45947021 90.06849121 36.37206543 90.68385742 35.25170898 91.31787109 C33.51836304 92.2742749 33.51836304 92.2742749 31.75 93.25 C29.968661 94.24699232 28.18939444 95.24760644 26.41038513 96.24874878 C24.66615968 97.23001972 22.92024773 98.20829091 21.17431641 99.18652344 C18.49448788 100.7175007 15.86805052 102.29364913 13.26171875 103.9453125 C12.59881836 104.36393555 11.93591797 104.78255859 11.25292969 105.21386719 C9.57718133 106.28566105 7.91116436 107.37262941 6.24609375 108.4609375 C1.97030578 110.4882064 -1.24298156 111.64673125 -6 111 C-10.8026649 109.02191784 -15.14801242 106.39283504 -19.5625 103.6875 C-20.80869379 102.94519256 -22.05593441 102.20463981 -23.30419922 101.46582031 C-25.76097693 100.00554418 -28.20842548 98.53139813 -30.64794922 97.04248047 C-33.52537428 95.2892002 -36.41598003 93.5624487 -39.31640625 91.84765625 C-40.75397906 90.98405541 -42.19031658 90.11839248 -43.625 89.25 C-44.26252197 88.86932373 -44.90004395 88.48864746 -45.55688477 88.09643555 C-48.82663483 86.05624054 -50.60685023 84.58906123 -52 81 C-52.27415466 78.62319946 -52.27415466 78.62319946 -52.30639648 75.95947266 C-52.32238388 74.95808258 -52.33837128 73.9566925 -52.35484314 72.92495728 C-52.36020584 71.848862 -52.36556854 70.77276672 -52.37109375 69.6640625 C-52.38012222 68.55195404 -52.3891507 67.43984558 -52.39845276 66.29403687 C-52.41295584 63.94214572 -52.42184213 61.59021421 -52.42553711 59.23828125 C-52.43743332 55.64514013 -52.48662133 52.05371624 -52.53710938 48.4609375 C-52.54657374 46.17448754 -52.55380871 43.88802704 -52.55859375 41.6015625 C-52.58789223 39.99349228 -52.58789223 39.99349228 -52.61778259 38.35293579 C-52.56753441 30.02172867 -52.56753441 30.02172867 -49.81811523 26.49682617 C-47.08595856 24.07615855 -44.53547384 22.2251573 -41.3515625 20.44921875 C-40.27036133 19.83699463 -39.18916016 19.22477051 -38.07519531 18.59399414 C-36.93663086 17.96485107 -35.79806641 17.33570801 -34.625 16.6875 C-32.86029786 15.69822788 -31.09764483 14.70537793 -29.33520508 13.71208191 C-27.60969988 12.73994998 -25.88249758 11.77083233 -24.15527344 10.80175781 C-21.45439201 9.25947176 -18.79986149 7.67352772 -16.1640625 6.0234375 C-15.48649902 5.59973877 -14.80893555 5.17604004 -14.11083984 4.73950195 C-12.38619186 3.64864287 -10.6693065 2.54553724 -8.953125 1.44140625 C-5.54955564 -0.21985975 -3.74976508 -0.30829919 0 0 Z " fill="#072C76" transform="translate(293,95)"/>
<path d="M0 0 C2.92749023 1.21826172 2.92749023 1.21826172 5.80859375 2.9296875 C6.87843506 3.55584961 7.94827637 4.18201172 9.05053711 4.82714844 C10.72708374 5.84083496 10.72708374 5.84083496 12.4375 6.875 C13.59905165 7.56390425 14.76124705 8.25172419 15.92407227 8.93847656 C19.29596096 10.93726152 22.64927182 12.96592298 26 15 C26.89847656 15.54237305 27.79695313 16.08474609 28.72265625 16.64355469 C30.9671121 18.00265737 33.20503569 19.37130496 35.4375 20.75 C36.07421631 21.14300293 36.71093262 21.53600586 37.36694336 21.94091797 C43.04051854 25.5179946 43.04051854 25.5179946 45 28 C45.38768005 30.37716675 45.38768005 30.37716675 45.40405273 33.21826172 C45.41673691 34.28301727 45.42942108 35.34777283 45.44248962 36.4447937 C45.43955399 37.59480865 45.43661835 38.74482361 45.43359375 39.9296875 C45.4388356 41.11217072 45.44407745 42.29465393 45.44947815 43.51296997 C45.45590655 46.01628839 45.45455086 48.51963699 45.44604492 51.02294922 C45.43754861 54.85308751 45.46626579 58.68172842 45.49804688 62.51171875 C45.49965927 64.94270789 45.49908063 67.37369966 45.49609375 69.8046875 C45.50732773 70.95065399 45.51856171 72.09662048 45.53013611 73.27731323 C45.46102959 81.16747468 45.46102959 81.16747468 43.30664062 85.05786133 C40.8329207 87.14067695 38.44468869 88.73262473 35.59765625 90.26953125 C34.54803711 90.84477539 33.49841797 91.42001953 32.41699219 92.01269531 C31.31000977 92.60663086 30.20302734 93.20056641 29.0625 93.8125 C26.79699896 95.05123319 24.53266364 96.29210087 22.26953125 97.53515625 C21.18494629 98.1295752 20.10036133 98.72399414 18.98291016 99.33642578 C14.36547414 101.91157793 9.89979838 104.69007367 5.453125 107.546875 C1.73298811 109.75052297 -0.78005397 111.00300479 -5.171875 110.9921875 C-10.47645702 109.61732645 -14.61986033 106.999231 -19.25 104.125 C-21.1985119 102.94024295 -23.1477452 101.75667163 -25.09765625 100.57421875 C-26.07750488 99.97657715 -27.05735352 99.37893555 -28.06689453 98.76318359 C-30.8746865 97.07532995 -33.70574682 95.44233659 -36.55859375 93.83203125 C-37.42387695 93.3426709 -38.28916016 92.85331055 -39.18066406 92.34912109 C-40.81604953 91.42822133 -42.45459662 90.5129072 -44.09667969 89.60400391 C-44.83176758 89.18683105 -45.56685547 88.7696582 -46.32421875 88.33984375 C-47.2846106 87.80411743 -47.2846106 87.80411743 -48.2644043 87.25756836 C-50.40703304 85.70507424 -51.58623211 84.24412243 -53 82 C-53.38768005 79.5405426 -53.38768005 79.5405426 -53.40405273 76.76000977 C-53.41673691 75.71535049 -53.42942108 74.67069122 -53.44248962 73.59437561 C-53.43955399 72.47139572 -53.43661835 71.34841583 -53.43359375 70.19140625 C-53.4388356 69.03253403 -53.44407745 67.8736618 -53.44947815 66.67967224 C-53.4559003 64.22940878 -53.45455889 61.7791145 -53.44604492 59.32885742 C-53.43753972 55.5800076 -53.46628867 51.83268347 -53.49804688 48.08398438 C-53.49965908 45.70312546 -53.499081 43.32226384 -53.49609375 40.94140625 C-53.50732773 39.82045059 -53.51856171 38.69949493 -53.53013611 37.54457092 C-53.46105572 29.82859196 -53.46105572 29.82859196 -51.3137207 25.96948242 C-48.80624704 23.83507385 -46.35440186 22.1651529 -43.484375 20.546875 C-42.40518799 19.93142822 -41.32600098 19.31598145 -40.21411133 18.68188477 C-39.07095459 18.04436279 -37.92779785 17.40684082 -36.75 16.75 C-35.57079929 16.085278 -34.39200871 15.41982792 -33.21362305 14.75366211 C-30.88295216 13.43729649 -28.54952615 12.12628974 -26.21435547 10.81787109 C-23.44511259 9.25173237 -20.70302743 7.65209516 -17.97265625 6.01953125 C-16.89709473 5.3848291 -16.89709473 5.3848291 -15.79980469 4.73730469 C-14.52186454 3.98184425 -13.24978625 3.21633029 -11.98535156 2.43847656 C-7.78652638 -0.00147819 -4.80245487 -0.35859782 0 0 Z " fill="#062B75" transform="translate(459,276)"/>
<path d="M0 0 C0.49306641 0.96486328 0.49306641 0.96486328 0.99609375 1.94921875 C7.78808238 14.85215651 16.27397029 26.19487794 26 37 C26.49701416 37.55244385 26.99402832 38.1048877 27.50610352 38.67407227 C30.37458992 41.72436734 32.33681263 43.6467347 36.5625 44.0625 C41.10911262 44.84191931 43.15105003 46.22933092 46 50 C46.391875 51.11117187 46.78375 52.22234375 47.1875 53.3671875 C49.04766967 57.81053838 52.0580065 59.59438823 56.125 61.9375 C56.81916016 62.35499512 57.51332031 62.77249023 58.22851562 63.20263672 C65.87445291 67.70034737 73.89752356 71.41004138 82 75 C79.23642832 77.76357168 77.32441315 77.46998267 73.4453125 77.82421875 C72.74509476 77.89121475 72.04487701 77.95821075 71.32344055 78.02723694 C68.92464195 78.25532017 66.52488604 78.47118111 64.125 78.6875 C60.51391568 79.02568498 56.90345711 79.3703616 53.29296875 79.71484375 C52.29115067 79.80959991 51.28933258 79.90435608 50.25715637 80.00198364 C41.83482318 80.80547614 33.42118644 81.68147633 25.00809479 82.57543373 C22.73365903 82.81689696 20.45910647 83.0572275 18.18450928 83.29716492 C17.42938553 83.37683534 16.67426178 83.45650576 15.89625549 83.53859043 C14.36605549 83.70002091 12.83585326 83.86143025 11.3056488 84.02281857 C7.50913311 84.42371946 3.71293571 84.82729036 -0.08270264 85.23641968 C-3.72176828 85.62849109 -7.36157739 86.01285727 -11.00199318 86.39217949 C-12.98690688 86.60101093 -14.97097806 86.81780373 -16.95500183 87.03492737 C-42.39943027 89.66454294 -42.39943027 89.66454294 -49.2265625 85.4609375 C-55.6179228 80.19580809 -60.75112218 74.2090435 -62.4140625 65.94140625 C-62.93736477 60.19477202 -61.21720047 55.51756884 -58.98828125 50.30859375 C-58.67857895 49.57141617 -58.36887665 48.83423859 -58.04978943 48.07472229 C-54.39595309 39.45024292 -50.48651174 30.94145902 -46.5625 22.4375 C-45.82326287 20.8289161 -45.08432932 19.22019265 -44.34570312 17.61132812 C-42.56727625 13.73927758 -40.78482697 9.86910432 -39 6 C-37.78473633 5.94448975 -36.56947266 5.88897949 -35.31738281 5.83178711 C-33.69594964 5.7514194 -32.0745311 5.67075587 -30.453125 5.58984375 C-29.65535645 5.55419312 -28.85758789 5.51854248 -28.03564453 5.48181152 C-19.95509405 5.06705395 -12.44294396 3.50781069 -4.765625 0.90234375 C-2 0 -2 0 0 0 Z " fill="#92B1F3" transform="translate(303,449)"/>
<path d="M0 0 C1.42561646 10.70969534 2.78667244 21.42205209 3.796875 32.1796875 C3.86146408 32.8663298 3.92605316 33.55297211 3.99259949 34.26042175 C4.30798222 37.63973541 4.61345059 41.01954149 4.90942383 44.40063477 C5.8997642 55.27613018 6.70853921 63.24328388 13.375 72.0625 C13.89868164 72.78058838 14.42236328 73.49867676 14.96191406 74.23852539 C16.62336622 76.50632347 18.30722352 78.75550377 20 81 C20.57331055 81.76022461 21.14662109 82.52044922 21.73730469 83.30371094 C22.30610352 84.0568457 22.87490234 84.80998047 23.4609375 85.5859375 C24.28779053 86.68216431 24.28779053 86.68216431 25.13134766 87.80053711 C26.19491672 89.20467286 27.26473705 90.60409948 28.34130859 91.99829102 C32 96.7842914 32 96.7842914 32 99 C31.43192627 99.17539307 30.86385254 99.35078613 30.27856445 99.53149414 C15.41785288 104.16861298 2.55933029 108.94786021 -9.55859375 119.0234375 C-26.65334816 132.86335067 -46.42574662 137.69761059 -68 137 C-66.13177369 131.04387094 -63.95306429 125.38032025 -61.3046875 119.73046875 C-60.95543716 118.97572769 -60.60618683 118.22098663 -60.24635315 117.44337463 C-59.50614856 115.84470233 -58.76399127 114.24693287 -58.01998901 112.65002441 C-56.86120928 110.15784035 -55.71262494 107.66118151 -54.56665039 105.16308594 C-51.41751911 98.30800992 -48.26812719 91.46332566 -44.87890625 84.72265625 C-44.45432129 83.85552002 -44.02973633 82.98838379 -43.59228516 82.0949707 C-42.86843108 80.62507253 -42.1202311 79.16665051 -41.33740234 77.72729492 C-35.26988287 65.21361087 -39.47547001 47.40068902 -41 34.125 C-43.37299792 13.19802507 -43.37299792 13.19802507 -43 4 C-37.51931092 3.42773144 -32.03835283 2.85813857 -26.55712891 2.29101562 C-24.6927948 2.09773973 -22.82853611 1.90373489 -20.96435547 1.70898438 C-18.28372412 1.42906762 -15.60283185 1.15177958 -12.921875 0.875 C-11.67322662 0.74375732 -11.67322662 0.74375732 -10.39935303 0.60986328 C-9.22859222 0.48973877 -9.22859222 0.48973877 -8.03417969 0.3671875 C-7.00825714 0.26059814 -7.00825714 0.26059814 -5.96160889 0.15185547 C-3.97969118 -0.00157218 -1.98784754 0 0 0 Z " fill="#FDFDFE" transform="translate(333,318)"/>
<path d="M0 0 C2.93399365 1.42762428 5.78014134 2.95141036 8.62231445 4.5546875 C9.73413086 5.17988281 10.84594727 5.80507813 11.99145508 6.44921875 C13.15360221 7.1067041 14.31571111 7.76425703 15.4777832 8.421875 C16.65926509 9.08752141 17.8409042 9.75288884 19.02270508 10.41796875 C21.90512225 12.04153434 24.78590651 13.66792515 27.6652832 15.296875 C27.988771 19.99185056 28.2233466 24.6802644 28.37939453 29.38378906 C28.44444984 30.97933908 28.53294636 32.57412314 28.64599609 34.16699219 C29.01224242 39.46347755 29.06945288 44.14431133 27.6652832 49.296875 C23.83623623 53.16623139 19.61140589 55.13763187 14.6652832 57.296875 C13.27404108 58.12350556 11.89586762 58.97342796 10.54418945 59.86328125 C9.44977539 60.52199219 8.35536133 61.18070312 7.2277832 61.859375 C6.11532227 62.54128906 5.00286133 63.22320312 3.85668945 63.92578125 C0.06458497 65.55494731 -1.38191547 65.2627318 -5.3347168 64.296875 C-7.98779297 63.02172852 -7.98779297 63.02172852 -10.62768555 61.42578125 C-11.58739258 60.85150391 -12.54709961 60.27722656 -13.53588867 59.68554688 C-15.01412109 58.7815918 -15.01412109 58.7815918 -16.5222168 57.859375 C-17.51930664 57.26060547 -18.51639648 56.66183594 -19.54370117 56.04492188 C-23.1840005 53.85288728 -26.79874333 51.65419065 -30.3347168 49.296875 C-30.76414798 46.83953172 -30.99348484 44.63949206 -31.0847168 42.1640625 C-31.12459717 41.0980632 -31.12459717 41.0980632 -31.1652832 40.01052856 C-31.21118904 38.50271582 -31.24754856 36.99458705 -31.27514648 35.48632812 C-31.3146097 33.95308519 -31.38263548 32.42029131 -31.48022461 30.88964844 C-31.80727061 25.74812927 -31.79896827 21.27021299 -30.3347168 16.296875 C-26.49188094 12.48969865 -22.2278342 10.4983516 -17.3347168 8.296875 C-15.85609368 7.38901729 -14.3933691 6.45389204 -12.9597168 5.4765625 C-11.75139091 4.70832162 -10.54305794 3.94009188 -9.3347168 3.171875 C-8.71983398 2.76195312 -8.10495117 2.35203125 -7.47143555 1.9296875 C-2.95971021 -0.89134847 -2.95971021 -0.89134847 0 0 Z " fill="#AFD752" transform="translate(456.334716796875,298.703125)"/>
<path d="M0 0 C18.94282249 7.54574444 18.94282249 7.54574444 23.02972412 15.86547852 C26.3941335 25.26216992 26.47743439 36.79633792 23.07269287 46.19042969 C18.55547862 55.16766707 6.94999964 59.59068993 -1.81640625 63.23339844 C-6.132785 64.38920684 -8.46678205 63.74990767 -12.40209961 61.77392578 C-13.27850098 61.24726318 -14.15490234 60.72060059 -15.05786133 60.17797852 C-16.02079102 59.60370117 -16.9837207 59.02942383 -17.97583008 58.43774414 C-18.96969727 57.83510742 -19.96356445 57.2324707 -20.98754883 56.61157227 C-22.48995117 55.71341797 -22.48995117 55.71341797 -24.02270508 54.79711914 C-27.6799822 52.60520742 -31.31444587 50.41447424 -34.86254883 48.04907227 C-35.3166492 45.5335095 -35.56686974 43.26908059 -35.68286133 40.73266602 C-35.72017365 40.00421478 -35.75748596 39.27576355 -35.79592896 38.52523804 C-35.89332722 36.17856923 -35.94979809 33.83493787 -35.98754883 31.48657227 C-36.00023804 30.69874359 -36.01292725 29.91091492 -36.02600098 29.09921265 C-36.08732855 16.29774191 -36.08732855 16.29774191 -33.57055664 11.67700195 C-30.26633524 8.37672119 -26.29962352 6.9962578 -21.88110352 5.72045898 C-18.63514826 4.64082945 -16.0889735 2.80487482 -13.23754883 0.92407227 C-8.0371742 -2.35347477 -5.70218558 -1.89424417 0 0 Z " fill="#D0DAFC" transform="translate(220.862548828125,351.950927734375)"/>
<path d="M0 0 C1.93735837 0.97245638 3.83688591 2.02219426 5.703125 3.125 C6.7653125 3.74890625 7.8275 4.3728125 8.921875 5.015625 C10.56929688 5.99789062 10.56929688 5.99789062 12.25 7 C13.36375 7.65484375 14.4775 8.3096875 15.625 8.984375 C23.8234747 13.8234747 23.8234747 13.8234747 25 15 C25.08847743 17.52094076 25.11527301 20.01430893 25.09765625 22.53515625 C25.0962413 23.28840683 25.09482635 24.04165741 25.09336853 24.81773376 C25.08775376 27.2326956 25.07519883 29.64756601 25.0625 32.0625 C25.0574869 33.69596221 25.05292366 35.32942586 25.04882812 36.96289062 C25.03777954 40.97529585 25.02050506 44.98763241 25 49 C21.51352184 50.95837843 18.02636095 52.91553502 14.53857422 54.87158203 C13.35316636 55.53661429 12.1679427 56.20197499 10.98291016 56.86767578 C9.27555504 57.82671909 7.56747295 58.78446784 5.859375 59.7421875 C4.83295898 60.3182373 3.80654297 60.89428711 2.74902344 61.48779297 C1.8418457 61.98682129 0.93466797 62.48584961 0 63 C-0.64646484 63.46535156 -1.29292969 63.93070312 -1.95898438 64.41015625 C-4 65 -4 65 -7.02441406 63.75830078 C-8.19774897 63.08714579 -9.36103817 62.39823005 -10.515625 61.6953125 C-11.13145447 61.33734589 -11.74728394 60.97937927 -12.3817749 60.61056519 C-14.34702368 59.46357227 -16.29825696 58.29479779 -18.25 57.125 C-19.5798665 56.34358209 -20.91058685 55.56361536 -22.2421875 54.78515625 C-25.50493863 52.8734699 -28.75529534 50.94214597 -32 49 C-32.22334904 44.26805461 -32.38615853 39.53920256 -32.49438477 34.80322266 C-32.53950884 33.19460603 -32.60083129 31.58635586 -32.67895508 29.97900391 C-33.30794828 16.70025843 -33.30794828 16.70025843 -30.28173828 12.76635742 C-27.92510214 11.17427881 -25.62258546 10.09268152 -23 9 C-21.44153002 8.08323388 -19.89431492 7.14704648 -18.359375 6.19140625 C-16.82515982 5.31118279 -15.28869797 4.43486351 -13.75 3.5625 C-12.97398437 3.10423828 -12.19796875 2.64597656 -11.3984375 2.17382812 C-10.26535156 1.5328418 -10.26535156 1.5328418 -9.109375 0.87890625 C-8.43874023 0.4929126 -7.76810547 0.10691895 -7.07714844 -0.29077148 C-4.28406867 -1.24444999 -2.80854243 -0.87806515 0 0 Z " fill="#66CBD0" transform="translate(294,119)"/>
<path d="M0 0 C7.90837359 2.99809013 15.92218154 6.3109043 21.22924805 13.125 C24.85775293 23.17362448 22.62754769 35.81881454 21.22924805 46.125 C17.7455332 48.10660104 14.25833131 50.08190367 10.76782227 52.05151367 C9.58163256 52.72200392 8.39639854 53.39418792 7.2121582 54.06811523 C5.50685627 55.03817574 3.79777952 56.00159082 2.08862305 56.96484375 C1.06220703 57.54613037 0.03579102 58.12741699 -1.02172852 58.72631836 C-5.50752302 61.00865554 -5.50752302 61.00865554 -7.77075195 61.125 C-10.61157227 59.86157227 -10.61157227 59.86157227 -13.84887695 57.94140625 C-14.70603302 57.43987282 -14.70603302 57.43987282 -15.58050537 56.9282074 C-17.40097877 55.85944458 -19.21072959 54.77384968 -21.02075195 53.6875 C-22.25445874 52.95915343 -23.48882698 52.231926 -24.72387695 51.50585938 C-27.74728008 49.72515341 -30.76130411 47.92921395 -33.77075195 46.125 C-37.03795631 22.04402837 -37.03795631 22.04402837 -33.77075195 13.125 C-27.81594571 5.63831422 -18.54517205 2.28428487 -9.77075195 -0.875 C-6.42267687 -2.54903754 -3.43958419 -1.08621638 0 0 Z " fill="#FBCA51" transform="translate(431.770751953125,162.875)"/>
<path d="M0 0 C1.86171118 0.90252372 3.68887303 1.8782956 5.484375 2.90625 C6.50144531 3.48503906 7.51851562 4.06382812 8.56640625 4.66015625 C9.61699219 5.26730469 10.66757813 5.87445313 11.75 6.5 C12.81605469 7.10714844 13.88210937 7.71429688 14.98046875 8.33984375 C22.82900856 12.82900856 22.82900856 12.82900856 24 14 C24.48429769 18.42781179 24.65641366 22.85845747 24.78955078 27.30786133 C24.84608685 28.79960581 24.92775949 30.29062908 25.03564453 31.77954102 C25.39199601 36.7924792 25.421275 41.14517563 24 46 C20.14362369 49.77021583 15.87479011 51.79161709 11 54 C9.66559226 54.83308247 8.34690001 55.69327454 7.0625 56.6015625 C6.051875 57.26929688 5.04125 57.93703125 4 58.625 C2.96875 59.31851563 1.9375 60.01203125 0.875 60.7265625 C-2 62 -2 62 -4.33691406 61.26733398 C-7.12124373 59.94230141 -9.80175234 58.51685016 -12.484375 56.99609375 C-13.50144531 56.42052734 -14.51851562 55.84496094 -15.56640625 55.25195312 C-16.61699219 54.65318359 -17.66757813 54.05441406 -18.75 53.4375 C-19.81605469 52.83486328 -20.88210937 52.23222656 -21.98046875 51.61132812 C-29.86099733 47.13900267 -29.86099733 47.13900267 -31 46 C-32.79755453 35.71443738 -34.05763173 24.11119533 -31 14 C-24.99011946 6.59197439 -15.74244386 3.20486012 -7 0 C-4.24559061 -1.3772047 -2.94793936 -0.80716126 0 0 Z " fill="#FB7CA0" transform="translate(188,214)"/>
<path d="M0 0 C0.82390304 6.38524858 1.0974162 12.5666952 1 19 C-6.43553898 20.45332763 -13.83505644 21.5253838 -21.37109375 22.2890625 C-22.41467545 22.39721283 -23.45825714 22.50536316 -24.53346252 22.61679077 C-26.72398862 22.84241601 -28.91474365 23.06582876 -31.10571289 23.28710938 C-34.42613194 23.62384712 -37.74526512 23.97167377 -41.06445312 24.3203125 C-43.2082645 24.53973607 -45.35214273 24.75850766 -47.49609375 24.9765625 C-48.47146591 25.07965729 -49.44683807 25.18275208 -50.45176697 25.28897095 C-57.31886715 25.96977636 -64.10154938 26.11177683 -71 26 C-72.6498007 22.70039859 -72.38258361 19.00872116 -72.5625 15.375 C-72.60568359 14.57320313 -72.64886719 13.77140625 -72.69335938 12.9453125 C-72.79951457 10.9637489 -72.90026855 8.98189729 -73 7 C-66.14496713 6.231939 -59.28930004 5.46976286 -52.43304443 4.71269226 C-48.69995284 4.30010854 -44.96720594 3.8846403 -41.23486328 3.46533203 C-37.10027262 3.00087265 -32.96514783 2.54143177 -28.8296814 2.08483887 C-27.20450777 1.90453117 -25.5795235 1.72250775 -23.95474243 1.53869629 C-7.99091361 -0.26514473 -7.99091361 -0.26514473 0 0 Z " fill="#90AFF1" transform="translate(344,277)"/>
<path d="M0 0 C0.33 0 0.66 0 1 0 C1.08636719 0.6084375 1.17273438 1.216875 1.26171875 1.84375 C3.67144877 16.87692813 9.35396944 30.94187205 15 45 C2.45003804 50.50062163 -8.48143616 51.2822902 -22 51 C-20.08219388 44.85230283 -17.78957329 39.0317181 -15.05859375 33.203125 C-14.50607689 32.00813385 -14.50607689 32.00813385 -13.94239807 30.78900146 C-12.77857516 28.27389652 -11.60835403 25.76183835 -10.4375 23.25 C-9.26431449 20.72332433 -8.09249343 18.19602492 -6.92189026 15.66815186 C-6.19688486 14.10356872 -5.47019375 12.53976525 -4.74156189 10.97686768 C-3.0576291 7.35271408 -1.43399604 3.73270869 0 0 Z " fill="#D0DAFB" transform="translate(287,404)"/>
<path d="M0 0 C0.52207031 0.36351562 1.04414063 0.72703125 1.58203125 1.1015625 C7.51492016 5.15379836 13.64663237 8.65112211 20 12 C16.07188096 16.05905634 11.90981699 19.82220394 7.69921875 23.5859375 C5.88358879 25.20975706 4.07377225 26.84009785 2.26953125 28.4765625 C1.39683594 29.26804687 0.52414062 30.05953125 -0.375 30.875 C-1.16648437 31.59429687 -1.95796875 32.31359375 -2.7734375 33.0546875 C-3.50820313 33.69664062 -4.24296875 34.33859375 -5 35 C-5.67289062 35.60070312 -6.34578125 36.20140625 -7.0390625 36.8203125 C-9 38 -9 38 -10.87939453 37.70288086 C-13.06631038 36.97802123 -14.89265145 36.07759473 -16.890625 34.93359375 C-17.59960938 34.53076172 -18.30859375 34.12792969 -19.0390625 33.71289062 C-19.76867187 33.29201172 -20.49828125 32.87113281 -21.25 32.4375 C-21.99507813 32.01275391 -22.74015625 31.58800781 -23.5078125 31.15039062 C-25.34098961 30.10453958 -27.17082677 29.05283808 -29 28 C-25.48498022 24.43999824 -21.88436894 20.99648238 -18.1875 17.625 C-17.66414063 17.14748291 -17.14078125 16.66996582 -16.6015625 16.17797852 C-15.06962524 14.78319104 -13.5351519 13.39124747 -12 12 C-11.20207031 11.27425781 -10.40414063 10.54851562 -9.58203125 9.80078125 C-8.89496094 9.18589844 -8.20789063 8.57101562 -7.5 7.9375 C-6.9121875 7.41027344 -6.324375 6.88304687 -5.71875 6.33984375 C-3.90419672 4.92531699 -2.08720136 3.95663396 0 3 C0 2.01 0 1.02 0 0 Z " fill="#6965F6" transform="translate(407,359)"/>
<path d="M0 0 C3.58338132 2.29877292 5.57409416 3.84754889 7.0625 7.875 C6.98115298 11.94235089 6.00049282 14.46579601 4 18 C1.26410956 20.29223253 -0.47726097 20.92376722 -4 21.4375 C-7.72413693 20.8943967 -9.32854076 19.59513183 -12 17 C-13.73631636 13.52736727 -13.60190402 9.78806987 -13 6 C-9.12968039 1.11117523 -6.23433807 -0.7193467 0 0 Z " fill="#6966F6" transform="translate(283,477)"/>
<path d="M0 0 C2.97672584 1.77280561 5.42804007 3.85608015 7 7 C7.4999473 10.07110483 7.43759994 12.16655584 5.9765625 14.94921875 C3.89385489 17.78561337 2.22674313 19.65995541 -1.2265625 20.6171875 C-5.35269128 20.85178345 -7.5344195 20.29455093 -11.0625 18.0625 C-13.65884755 13.95859581 -13.95259938 10.73725096 -13 6 C-9.45287039 0.32459262 -6.61274241 -0.66127424 0 0 Z " fill="#6A66F7" transform="translate(376,463)"/>
<path d="M0 0 C3.125 2 3.125 2 5 5 C5.73301898 9.61801955 5.71565523 12.58960049 3.0625 16.5 C-0.53240309 19.43461477 -2.32837794 19.79511039 -6.84375 19.44140625 C-10.30921137 18.73199115 -11.81594087 17.79832576 -14 15 C-15.04296795 11.91211175 -15.35272466 9.2417076 -15 6 C-11.62957314 -0.6246321 -7.12341102 -1.52978171 0 0 Z " fill="#6865F7" transform="translate(344,494)"/>
<path d="M0 0 C2.31 0.66 4.62 1.32 7 2 C5.36041242 7.23272633 3.61047965 12.15196636 1 17 C0.67 17 0.34 17 0 17 C0 11.39 0 5.78 0 0 Z " fill="#6563F3" transform="translate(264,388)"/>
<path d="M0 0 C0.99 0 1.98 0 3 0 C2.34 3.63 1.68 7.26 1 11 C0.67 11 0.34 11 0 11 C0 7.37 0 3.74 0 0 Z " fill="#BBC8EC" transform="translate(290,322)"/>
</svg>
