<?xml version="1.0" encoding="UTF-8"?>
<svg version="1.1" xmlns="http://www.w3.org/2000/svg" width="640" height="640">
<path d="M0 0 C211.2 0 422.4 0 640 0 C640 211.2 640 422.4 640 640 C428.8 640 217.6 640 0 640 C0 428.8 0 217.6 0 0 Z " fill="#FEFEFE" transform="translate(0,0)"/>
<path d="M0 0 C3.12695312 1.32592773 3.12695312 1.32592773 6.28125 3.18359375 C6.85295425 3.51466629 7.42465851 3.84573883 8.01368713 4.18684387 C9.85141247 5.25589273 11.67562526 6.34585194 13.5 7.4375 C14.75899654 8.17727839 16.0186839 8.91588235 17.27905273 9.65332031 C19.74701264 11.1006989 22.20953188 12.55668363 24.66748047 14.02099609 C27.45587827 15.67687541 30.25484428 17.30973263 33.06640625 18.92578125 C43.51837596 24.99650438 43.51837596 24.99650438 46 29 C46.31124878 31.23599243 46.31124878 31.23599243 46.22607422 33.70166016 C46.19282547 35.09428574 46.19282547 35.09428574 46.15890503 36.51504517 C46.10731735 38.01193375 46.10731735 38.01193375 46.0546875 39.5390625 C46.02822018 41.66793324 46.00488306 43.79684476 45.984375 45.92578125 C45.93929523 49.27197447 45.87542289 52.61307348 45.75683594 55.95751953 C44.69100437 69.07822291 44.69100437 69.07822291 49.68847656 80.53540039 C52.84967724 83.22216442 56.33630707 85.07841197 60 87 C61.48589672 88.10313361 62.9497217 89.23755586 64.375 90.41796875 C65.5826021 91.34210215 66.79089979 92.26532754 68 93.1875 C68.61488281 93.67541016 69.22976563 94.16332031 69.86328125 94.66601562 C73.23480782 97.32239872 73.23480782 97.32239872 77.33691406 97.81762695 C80.47515272 96.85411749 83.06470587 95.49366933 85.921875 93.875 C87.02917969 93.25109375 88.13648438 92.6271875 89.27734375 91.984375 C90.42332031 91.32953125 91.56929688 90.6746875 92.75 90 C93.92284227 89.33794819 95.09601629 88.67648372 96.26953125 88.015625 C101.42427638 85.41277294 101.42427638 85.41277294 106 82 C115.26662318 80.15520332 122.1159796 84.80918331 129.6875 89.4375 C130.932456 90.17861661 132.17847589 90.91794889 133.42553711 91.65551758 C135.86254887 93.10096101 138.29203827 94.55787887 140.71582031 96.02539062 C143.47641781 97.6851968 146.25203596 99.30342692 149.0546875 100.890625 C150.39072129 101.65608195 151.72666963 102.4216881 153.0625 103.1875 C154.71958984 104.13689453 154.71958984 104.13689453 156.41015625 105.10546875 C159.2980824 107.21805424 160.40263101 108.82207906 162 112 C162.38095093 114.54174805 162.38095093 114.54174805 162.38818359 117.26171875 C162.39764008 118.28628174 162.40709656 119.31084473 162.4168396 120.36645508 C162.40773056 122.01037231 162.40773056 122.01037231 162.3984375 123.6875 C162.40130768 124.82276123 162.40417786 125.95802246 162.40713501 127.12768555 C162.40917402 129.52490743 162.4036556 131.922146 162.39111328 134.31933594 C162.37505819 137.98670691 162.39096841 141.65297577 162.41015625 145.3203125 C162.40817379 147.6510441 162.40433006 149.98177501 162.3984375 152.3125 C162.40451019 153.40844482 162.41058289 154.50438965 162.4168396 155.63354492 C162.40738312 156.65810791 162.39792664 157.6826709 162.38818359 158.73828125 C162.38579681 159.63587158 162.38341003 160.53346191 162.38095093 161.45825195 C161.91161942 164.58968531 160.84946622 166.44582227 159 169 C156.66032888 170.62272272 154.4174974 172.00689683 151.9375 173.375 C151.21812256 173.79289795 150.49874512 174.2107959 149.75756836 174.64135742 C144.96159912 177.41133614 140.08882216 179.9940059 135.1640625 182.52734375 C133.38400157 183.47229228 131.60749599 184.42350575 129.83279419 185.378479 C128.09278836 186.29651962 126.32651755 187.1642145 124.56030273 188.03076172 C118.43257019 191.27164692 118.43257019 191.27164692 114.84765625 196.94360352 C114.29773534 200.32576874 114.09317638 203.57607546 114 207 C113.79938255 209.1012713 113.58875235 211.20161535 113.3671875 213.30078125 C113.19860559 215.30431236 113.03450518 217.30822585 112.875 219.3125 C112.74544922 220.87000977 112.74544922 220.87000977 112.61328125 222.45898438 C112.40479907 224.97235286 112.20040018 227.48597652 112 230 C112.75095947 230.42297363 113.50191895 230.84594727 114.27563477 231.28173828 C117.09523884 232.87473739 119.91078552 234.47463383 122.72387695 236.07910156 C123.93554336 236.76835649 125.14872945 237.45494776 126.36352539 238.13867188 C143.35373388 247.70746777 143.35373388 247.70746777 146 253 C146.11049526 254.63241996 146.15913128 256.26921575 146.17700195 257.90527344 C146.18983719 258.92683533 146.20267242 259.94839722 146.21589661 261.00091553 C146.22697701 262.66335297 146.22697701 262.66335297 146.23828125 264.359375 C146.246353 265.4965094 146.25442474 266.6336438 146.26274109 267.80523682 C146.27659098 270.21617097 146.28730907 272.62712481 146.29516602 275.03808594 C146.31236496 278.7210828 146.3562429 282.40317903 146.40039062 286.0859375 C146.41051853 288.42707672 146.41903433 290.76822359 146.42578125 293.109375 C146.44328934 294.2095697 146.46079742 295.3097644 146.47883606 296.44329834 C146.46187955 302.43732235 146.28822871 306.41431668 142 311 C139.42895508 312.89941406 139.42895508 312.89941406 136.51953125 314.515625 C135.44550049 315.12269287 134.37146973 315.72976074 133.26489258 316.35522461 C132.12560303 316.98050049 130.98631348 317.60577637 129.8125 318.25 C128.04497332 319.23661993 126.27971564 320.22722171 124.51445007 321.21788025 C122.7651983 322.19851108 121.01346746 323.17471547 119.26171875 324.15087891 C116.38675274 325.78074362 113.56056063 327.4614292 110.75 329.19921875 C109.60760864 329.90159668 109.60760864 329.90159668 108.44213867 330.61816406 C107.06801908 331.46944714 105.70040387 332.33136396 104.34106445 333.20605469 C99.96021943 335.88686168 97.08294251 336.89146992 92 336 C87.74868783 334.07175493 83.76602532 331.74832293 79.75 329.375 C77.599259 328.13229199 75.44821948 326.89010048 73.296875 325.6484375 C72.35166992 325.09333496 71.40646484 324.53823242 70.43261719 323.96630859 C65.66331313 321.23430469 60.83203886 318.61903606 56 316 C56.34554932 316.5223674 56.69109863 317.0447348 57.04711914 317.58293152 C60.68412438 323.08188801 64.31820341 328.58277018 67.95068359 334.0847168 C69.30184096 336.13044696 70.6537127 338.1757055 72.00634766 340.22045898 C99.31377298 381.50452291 99.31377298 381.50452291 95.49609375 402.8125 C94.81666635 404.98666768 93.98742788 406.94887948 93 409 C92.68289063 409.79277344 92.36578125 410.58554687 92.0390625 411.40234375 C86.84733111 423.3506901 76.88771469 431.15124499 65 436 C58.85708418 437.70815447 52.78940468 438.40067175 46.44140625 438.74609375 C45.52344269 438.80173996 44.60547913 438.85738617 43.65969849 438.91471863 C40.62768112 439.09629762 37.59516288 439.26707014 34.5625 439.4375 C32.42095489 439.56321544 30.27943518 439.68936416 28.13793945 439.81591797 C8.16311913 440.98301203 -11.82024692 442.00581262 -31.80444336 442.99780273 C-32.99522491 443.05752762 -34.18600647 443.1172525 -35.41287231 443.17878723 C-37.62484321 443.28954914 -39.83689408 443.39873177 -42.04904175 443.50590515 C-48.13409944 443.8115285 -54.19650423 444.23668198 -60.26533508 444.77734375 C-76.29120956 446.08216947 -92.26862394 446.55543693 -105.26953125 435.578125 C-105.84058594 435.05734375 -106.41164063 434.5365625 -107 434 C-107.60199219 433.49984375 -108.20398438 432.9996875 -108.82421875 432.484375 C-114.27294783 427.614795 -117.08914791 421.61475368 -120 415 C-120.36480469 414.17757813 -120.72960937 413.35515625 -121.10546875 412.5078125 C-125.7286307 399.54680825 -122.64272983 387.03148761 -117.06939697 374.98925781 C-114.61870715 369.93358722 -111.99722079 364.96814032 -109.375 360 C-108.16526132 357.68413473 -106.9586406 355.36666231 -105.75215149 353.04910278 C-104.95540682 351.51916439 -104.15763699 349.98975939 -103.35881042 348.46090698 C-99.55990237 341.1843314 -95.88967975 333.84747208 -92.26123047 326.484375 C-90.67824896 323.28606663 -89.12536887 320.19806635 -87.21484375 317.1796875 C-85.67544088 314.83356745 -85.67544088 314.83356745 -86 311 C-87.47977153 309.37923375 -87.47977153 309.37923375 -89.55078125 308.046875 C-90.30721924 307.51328369 -91.06365723 306.97969238 -91.84301758 306.42993164 C-92.65794678 305.8755542 -93.47287598 305.32117676 -94.3125 304.75 C-95.96925712 303.59838547 -97.62550823 302.44604263 -99.28125 301.29296875 C-100.49554688 300.45451416 -100.49554688 300.45451416 -101.734375 299.59912109 C-103.69413138 298.21588788 -105.59055639 296.79165414 -107.46875 295.30078125 C-108.4071875 294.56214844 -109.345625 293.82351563 -110.3125 293.0625 C-111.11300781 292.41410156 -111.91351563 291.76570313 -112.73828125 291.09765625 C-114.93713316 289.73990458 -114.93713316 289.73990458 -117.25 290.5078125 C-118.61125 291.24644531 -118.61125 291.24644531 -120 292 C-120.63381592 292.34119873 -121.26763184 292.68239746 -121.9206543 293.03393555 C-124.19001083 294.27010584 -126.43880921 295.53915902 -128.6875 296.8125 C-130.30016404 297.71204491 -131.91344108 298.61049177 -133.52734375 299.5078125 C-136.08682825 300.93206332 -138.6417232 302.36288386 -141.19140625 303.8046875 C-142.03574219 304.26101563 -142.88007813 304.71734375 -143.75 305.1875 C-144.44609375 305.57292969 -145.1421875 305.95835937 -145.859375 306.35546875 C-149.90398786 307.57328102 -153.33320212 306.3186709 -157.04516602 304.54467773 C-158.10405029 303.93052002 -159.16293457 303.3163623 -160.25390625 302.68359375 C-161.12715797 302.18147118 -161.12715797 302.18147118 -162.01805115 301.66920471 C-163.87128216 300.60048346 -165.71675526 299.51908753 -167.5625 298.4375 C-168.77362618 297.73813098 -169.98521178 297.03955695 -171.19726562 296.34179688 C-174.21093884 294.60159107 -177.21053695 292.8388519 -180.20343018 291.06317139 C-181.4119343 290.34800464 -182.62271936 289.63667975 -183.83563232 288.92901611 C-185.61371054 287.89060892 -187.38370363 286.83953937 -189.15234375 285.78515625 C-190.18222412 285.17679932 -191.21210449 284.56844238 -192.27319336 283.94165039 C-195.37647391 281.73192792 -197.12179507 280.34259598 -199 277 C-199.60418491 273.20063707 -199.60811974 269.44276208 -199.6015625 265.6015625 C-199.61013275 264.49324066 -199.618703 263.38491882 -199.62753296 262.24301147 C-199.63900561 259.90129322 -199.64003026 257.5595037 -199.63134766 255.21777344 C-199.62503346 251.64393796 -199.67193095 248.07342535 -199.72265625 244.5 C-199.72720324 242.22135833 -199.72860876 239.94270779 -199.7265625 237.6640625 C-199.74498199 236.60031403 -199.76340149 235.53656555 -199.78237915 234.44058228 C-199.70759995 228.41151709 -199.0816295 224.70696872 -194.7038269 220.3963623 C-192.14630267 218.30035688 -189.53510361 216.6262295 -186.640625 215.02734375 C-186.05134216 214.69634171 -185.46205933 214.36533966 -184.85491943 214.02430725 C-182.99355678 212.98225354 -181.12248464 211.95940679 -179.25 210.9375 C-177.40001113 209.91088714 -175.55222336 208.88038763 -173.70446777 207.84976196 C-172.50403055 207.18137801 -171.30230356 206.5153048 -170.09924316 205.85165405 C-165.61244148 203.37141942 -161.22864789 200.75043028 -156.88183594 198.03344727 C-155 197 -155 197 -153 197 C-153.02320313 196.44779785 -153.04640625 195.8955957 -153.0703125 195.32666016 C-153.24682604 187.53957608 -152.17126415 180.05944248 -151 172.375 C-150.80921875 171.08464844 -150.6184375 169.79429687 -150.421875 168.46484375 C-149.95432503 165.30888145 -149.48022844 162.15405355 -149 159 C-149.71478516 158.72978027 -150.42957031 158.45956055 -151.16601562 158.18115234 C-156.16860192 156.09616677 -160.79059002 153.2942536 -165.5 150.625 C-166.53253906 150.0475 -167.56507813 149.47 -168.62890625 148.875 C-170.12744141 148.02808594 -170.12744141 148.02808594 -171.65625 147.1640625 C-172.56181641 146.65311035 -173.46738281 146.1421582 -174.40039062 145.61572266 C-178.66304306 142.96637688 -182.10311006 140.75324058 -184 136 C-184.26742554 133.5852356 -184.26742554 133.5852356 -184.29052734 130.86767578 C-184.3096669 129.33555954 -184.3096669 129.33555954 -184.32919312 127.77249146 C-184.33141876 126.6745224 -184.33364441 125.57655334 -184.3359375 124.4453125 C-184.3425943 123.311008 -184.3492511 122.17670349 -184.35610962 121.00802612 C-184.3662326 118.60904563 -184.37092675 116.21003699 -184.37060547 113.81103516 C-184.37497534 110.14568535 -184.41129166 106.48154278 -184.44921875 102.81640625 C-184.45508763 100.48437911 -184.45905654 98.15234626 -184.4609375 95.8203125 C-184.48249405 94.17943161 -184.48249405 94.17943161 -184.50448608 92.50540161 C-184.46870197 86.5287522 -184.24905835 82.59205628 -180 78 C-177.73608398 76.30004883 -177.73608398 76.30004883 -175.24609375 74.95703125 C-174.31812988 74.44551514 -173.39016602 73.93399902 -172.43408203 73.40698242 C-171.44520996 72.88080322 -170.45633789 72.35462402 -169.4375 71.8125 C-167.35975563 70.68137846 -165.28294679 69.54853695 -163.20703125 68.4140625 C-162.16627441 67.84848633 -161.12551758 67.28291016 -160.05322266 66.70019531 C-157.1817277 65.10119556 -154.37352318 63.43254864 -151.57421875 61.7109375 C-150.73640869 61.20071045 -149.89859863 60.6904834 -149.03540039 60.16479492 C-147.47471654 59.20827735 -145.92241646 58.23788627 -144.38061523 57.2512207 C-139.2416792 54.14502713 -134.97996965 52.58936725 -129 54 C-125.04242663 55.68878375 -121.3463711 57.71741426 -117.64151001 59.90139771 C-115.84766918 60.95353021 -114.03703584 61.96968703 -112.21948242 62.98022461 C-107.16279872 65.81796093 -102.22951891 68.6409069 -97.74609375 72.3515625 C-92.90293672 76.32912995 -92.90293672 76.32912995 -87 78 C-79.42804185 76.49589958 -72.54908471 72.94111989 -65.74316406 69.41259766 C-55.23228483 64 -55.23228483 64 -52 64 C-52.03665771 62.94087402 -52.07331543 61.88174805 -52.11108398 60.79052734 C-52.23822502 56.84368647 -52.31830034 52.89702455 -52.38452148 48.94873047 C-52.41962576 47.24334228 -52.46732386 45.53816332 -52.52807617 43.83349609 C-53.01183984 29.90598088 -53.01183984 29.90598088 -50.79736328 25.73461914 C-48.96204597 24.06597469 -47.23004048 23.08458059 -45 22 C-44.17814209 21.5059668 -43.35628418 21.01193359 -42.50952148 20.50292969 C-39.70884312 18.82460156 -36.86640162 17.25067014 -34 15.6875 C-25.60992315 11.08163194 -25.60992315 11.08163194 -17.40625 6.15625 C-16.7359375 5.73512939 -16.065625 5.31400879 -15.375 4.88012695 C-13.62799208 3.76891163 -11.89166432 2.64095447 -10.15625 1.51171875 C-6.37223375 -0.30067517 -4.16825355 -0.33101485 0 0 Z " fill="#6965F6" transform="translate(339,93)"/>
<path d="M0 0 C3.95757337 1.68878375 7.6536289 3.71741426 11.35848999 5.90139771 C13.15233082 6.95353021 14.96296416 7.96968703 16.78051758 8.98022461 C21.83720128 11.81796093 26.77048109 14.6409069 31.25390625 18.3515625 C36.09720101 22.3284809 36.09720101 22.3284809 42 24 C49.54632247 22.49232253 56.37998715 18.92206748 63.16650391 15.41259766 C67.33796731 13.33297614 71.64215099 11.64504758 76 10 C76.03867187 11.62808594 76.03867187 11.62808594 76.078125 13.2890625 C76.13443738 14.73441349 76.191784 16.17972444 76.25 17.625 C76.26417969 18.33785156 76.27835938 19.05070312 76.29296875 19.78515625 C76.52898309 24.9302689 77.41461888 28.07162278 81 32 C84.37970036 34.3344869 87.93912579 36.25948227 91.5625 38.1875 C93.63763373 39.31733151 95.7118382 40.44887128 97.78515625 41.58203125 C99.34580811 42.43015381 99.34580811 42.43015381 100.93798828 43.29541016 C103.83506351 44.90818158 106.66995478 46.59073647 109.49609375 48.32421875 C110.34292725 48.83895752 111.18976074 49.35369629 112.06225586 49.8840332 C113.64854638 50.85423613 115.2267503 51.83782885 116.79516602 52.83666992 C117.87109009 53.48599487 117.87109009 53.48599487 118.96875 54.1484375 C119.58169922 54.53177246 120.19464844 54.91510742 120.82617188 55.31005859 C125.14151917 56.67968701 128.99598892 55.45062428 133.01025391 53.64892578 C133.98913574 53.0867334 134.96801758 52.52454102 135.9765625 51.9453125 C137.059375 51.33042969 138.1421875 50.71554688 139.2578125 50.08203125 C140.36898437 49.43621094 141.48015625 48.79039062 142.625 48.125 C143.74390625 47.48691406 144.8628125 46.84882813 146.015625 46.19140625 C151.92394498 42.85857661 151.92394498 42.85857661 157.60693359 39.16748047 C160 38 160 38 162.04370117 38.61987305 C162.68927979 39.07531494 163.3348584 39.53075684 164 40 C164.68876221 40.47284424 165.37752441 40.94568848 166.0871582 41.43286133 C167.18290161 42.24920044 167.18290161 42.24920044 168.30078125 43.08203125 C169.11353516 43.68466797 169.92628906 44.28730469 170.76367188 44.90820312 C171.60478516 45.53662109 172.44589844 46.16503906 173.3125 46.8125 C174.97490878 48.04865012 176.63766363 49.28433497 178.30078125 50.51953125 C179.03466064 51.06714111 179.76854004 51.61475098 180.5246582 52.17895508 C182.81683494 53.97133457 182.81683494 53.97133457 184.8243866 54.91903687 C186.96345822 56.1078648 188.41660822 57.12402259 190 59 C190.99650449 62.89383141 190.85951945 66.68860327 190.76171875 70.6875 C190.76452347 71.82276123 190.76732819 72.95802246 190.7702179 74.12768555 C190.77549703 77.75275362 190.73486485 81.37526626 190.6875 85 C190.65600703 88.62433589 190.63472173 92.24783715 190.63691711 95.87231445 C190.63678716 98.12615583 190.61652405 100.38010665 190.57389832 102.63354492 C190.52979236 108.57783036 190.52979236 108.57783036 192.6652832 114.01513672 C195.23746775 116.20188359 197.74738657 117.83861421 200.71875 119.4453125 C201.81574219 120.04730469 202.91273438 120.64929688 204.04296875 121.26953125 C205.18378906 121.88183594 206.32460938 122.49414062 207.5 123.125 C209.76177239 124.35427968 212.0222444 125.58595574 214.28125 126.8203125 C215.28220703 127.35930176 216.28316406 127.89829102 217.31445312 128.45361328 C219.73410938 129.84689535 221.93308343 131.12217331 224 133 C224.22319381 135.66260784 224.20135304 137.8121174 223.9375 140.4375 C223.829823 141.54955811 223.829823 141.54955811 223.7199707 142.68408203 C223.55966654 144.28380134 223.39164434 145.8827619 223.21679688 147.48095703 C222.99482845 150.0600902 222.96282311 152.59565255 222.953125 155.18359375 C222.55359946 167.45144576 222.55359946 167.45144576 218.27001953 171.7265625 C213.5447052 175.06851126 208.27692079 177.28142313 202.99511719 179.59277344 C197.55071297 182.15077359 192.48940743 185.34603477 187.375 188.5 C186.3737207 189.10054199 185.37244141 189.70108398 184.34082031 190.31982422 C183.41108398 190.88459473 182.48134766 191.44936523 181.5234375 192.03125 C180.69763184 192.53205078 179.87182617 193.03285156 179.02099609 193.54882812 C176.74189615 195.00546702 176.74189615 195.00546702 175 198 C174.75878651 200.89659349 174.62700558 203.7053355 174.5859375 206.60546875 C174.56657135 207.44467361 174.5472052 208.28387848 174.5272522 209.14851379 C174.46748787 211.82807258 174.42108388 214.5076744 174.375 217.1875 C174.3368173 219.00457599 174.29776539 220.82163394 174.2578125 222.63867188 C174.16178897 227.09230132 174.07774641 231.54601551 174 236 C171.03 236.99 171.03 236.99 168 238 C149.69851746 210.5477762 149.69851746 210.5477762 149.3671875 202.37109375 C149.30484421 201.07643944 149.30484421 201.07643944 149.24124146 199.75563049 C149.15467078 197.91907473 149.07259183 196.08230263 148.99462891 194.24536133 C148.87764532 191.49958952 148.74679688 188.75477751 148.61328125 186.00976562 C148.08320762 174.66626683 147.89029084 163.35489764 148 152 C149.76506042 151.01796977 151.53012085 150.03593953 153.29518127 149.0539093 C157.13544592 146.6798794 158.69306593 143.20211539 160 139 C160.50457531 133.96004662 160.28686013 129.04972739 160 124 C159.96297391 122.66024015 159.92910527 121.32038922 159.8984375 119.98046875 C159.59799969 112.05049188 159.17068378 105.44567392 153.578125 99.484375 C146.0287125 92.71325245 138.16953124 93.71191033 128.6545105 94.15621948 C125.05809627 94.3600789 121.46494041 94.59492869 117.87109375 94.83984375 C115.90475731 94.96946251 115.90475731 94.96946251 113.8986969 95.10169983 C111.14461944 95.28341833 108.39072906 95.46767732 105.63696289 95.65405273 C102.13885653 95.890769 98.64046389 96.12286448 95.1419363 96.3532629 C91.75987425 96.57624715 88.37798483 96.80178034 84.99609375 97.02734375 C83.75621201 97.10967758 82.51633026 97.19201141 81.23887634 97.27684021 C77.825116 97.5079697 74.41244915 97.75031172 71 98 C69.95119659 98.0738089 68.90239319 98.1476178 67.82180786 98.22366333 C66.84686371 98.30011078 65.87191956 98.37655823 64.86743164 98.45532227 C64.01774307 98.51978043 63.1680545 98.58423859 62.2926178 98.65065002 C55.73215312 99.65033614 51.78624523 103.87743292 48 109 C46.79212292 111.41575416 46.87077639 112.95945907 46.8671875 115.65625 C46.86589844 116.59726562 46.86460937 117.53828125 46.86328125 118.5078125 C46.86714844 119.49523437 46.87101562 120.48265625 46.875 121.5 C46.87113281 122.45648438 46.86726563 123.41296875 46.86328125 124.3984375 C46.59034004 138.43294511 46.59034004 138.43294511 52 151 C54.73938344 153.50366905 57.6021753 155.4556145 61.06573486 156.80450439 C63 158 63 158 63.59490967 159.85467529 C63.66152802 160.98380341 63.66152802 160.98380341 63.72949219 162.13574219 C63.78925232 162.99133728 63.84901245 163.84693237 63.9105835 164.72845459 C63.95555969 165.65853333 64.00053589 166.58861206 64.046875 167.546875 C64.13826752 168.99105804 64.13826752 168.99105804 64.23150635 170.4644165 C64.42231915 173.55883173 64.58594182 176.65406334 64.75 179.75 C64.87463586 181.79046704 65.00091949 183.83083415 65.12890625 185.87109375 C65.42778934 190.74005706 65.65986574 195.60942332 65.86898804 200.48297119 C65.98148649 202.64431463 66.16775315 204.80159543 66.3684082 206.95654297 C67.09081537 217.65493916 62.60368245 225.46486597 57.6875 234.625 C56.89135995 236.16406349 56.09772197 237.70442397 55.30664062 239.24609375 C49.36324984 250.72536591 49.36324984 250.72536591 46 255 C45.30419733 256.31836295 44.62775567 257.64791086 44 259 C43.31164062 258.27425781 42.62328125 257.54851562 41.9140625 256.80078125 C38.99948276 253.8892738 35.75537381 251.52678786 32.375 249.1875 C25.16174644 244.16345699 25.16174644 244.16345699 21.81640625 241.50390625 C20.86636719 240.76011719 19.91632813 240.01632812 18.9375 239.25 C17.68259766 238.23679687 17.68259766 238.23679687 16.40234375 237.203125 C14.09180345 235.73112204 14.09180345 235.73112204 11.734375 236.49609375 C10.83203125 236.99238281 9.9296875 237.48867188 9 238 C8.36650635 238.34144043 7.7330127 238.68288086 7.08032227 239.03466797 C4.81022319 240.26991055 2.5613712 241.53905686 0.3125 242.8125 C-1.30016404 243.71204491 -2.91344108 244.61049177 -4.52734375 245.5078125 C-7.08682825 246.93206332 -9.6417232 248.36288386 -12.19140625 249.8046875 C-13.45791016 250.48917969 -13.45791016 250.48917969 -14.75 251.1875 C-15.44609375 251.57292969 -16.1421875 251.95835937 -16.859375 252.35546875 C-20.90398786 253.57328102 -24.33320212 252.3186709 -28.04516602 250.54467773 C-29.10405029 249.93052002 -30.16293457 249.3163623 -31.25390625 248.68359375 C-32.12715797 248.18147118 -32.12715797 248.18147118 -33.01805115 247.66920471 C-34.87128216 246.60048346 -36.71675526 245.51908753 -38.5625 244.4375 C-39.77362618 243.73813098 -40.98521178 243.03955695 -42.19726562 242.34179688 C-45.21093884 240.60159107 -48.21053695 238.8388519 -51.20343018 237.06317139 C-52.4119343 236.34800464 -53.62271936 235.63667975 -54.83563232 234.92901611 C-56.61371054 233.89060892 -58.38370363 232.83953937 -60.15234375 231.78515625 C-61.18222412 231.17679932 -62.21210449 230.56844238 -63.27319336 229.94165039 C-66.37647391 227.73192792 -68.12179507 226.34259598 -70 223 C-70.60418491 219.20063707 -70.60811974 215.44276208 -70.6015625 211.6015625 C-70.61013275 210.49324066 -70.618703 209.38491882 -70.62753296 208.24301147 C-70.63900561 205.90129322 -70.64003026 203.5595037 -70.63134766 201.21777344 C-70.62503346 197.64393796 -70.67193095 194.07342535 -70.72265625 190.5 C-70.72720324 188.22135833 -70.72860876 185.94270779 -70.7265625 183.6640625 C-70.74498199 182.60031403 -70.76340149 181.53656555 -70.78237915 180.44058228 C-70.70759995 174.41151709 -70.0816295 170.70696872 -65.7038269 166.3963623 C-63.14630267 164.30035688 -60.53510361 162.6262295 -57.640625 161.02734375 C-57.05134216 160.69634171 -56.46205933 160.36533966 -55.85491943 160.02430725 C-53.99355678 158.98225354 -52.12248464 157.95940679 -50.25 156.9375 C-48.40001113 155.91088714 -46.55222336 154.88038763 -44.70446777 153.84976196 C-43.50403055 153.18137801 -42.30230356 152.5153048 -41.09924316 151.85165405 C-36.61244148 149.37141942 -32.22864789 146.75043028 -27.88183594 144.03344727 C-26 143 -26 143 -24 143 C-24.02320313 142.44779785 -24.04640625 141.8955957 -24.0703125 141.32666016 C-24.24682604 133.53957608 -23.17126415 126.05944248 -22 118.375 C-21.80921875 117.08464844 -21.6184375 115.79429687 -21.421875 114.46484375 C-20.95432503 111.30888145 -20.48022844 108.15405355 -20 105 C-21.07217773 104.59467041 -21.07217773 104.59467041 -22.16601562 104.18115234 C-27.16860192 102.09616677 -31.79059002 99.2942536 -36.5 96.625 C-38.04880859 95.75875 -38.04880859 95.75875 -39.62890625 94.875 C-41.12744141 94.02808594 -41.12744141 94.02808594 -42.65625 93.1640625 C-43.56181641 92.65311035 -44.46738281 92.1421582 -45.40039062 91.61572266 C-49.66304306 88.96637688 -53.10311006 86.75324058 -55 82 C-55.26742554 79.5852356 -55.26742554 79.5852356 -55.29052734 76.86767578 C-55.3096669 75.33555954 -55.3096669 75.33555954 -55.32919312 73.77249146 C-55.33141876 72.6745224 -55.33364441 71.57655334 -55.3359375 70.4453125 C-55.3425943 69.311008 -55.3492511 68.17670349 -55.35610962 67.00802612 C-55.3662326 64.60904563 -55.37092675 62.21003699 -55.37060547 59.81103516 C-55.37497534 56.14568535 -55.41129166 52.48154278 -55.44921875 48.81640625 C-55.45508763 46.48437911 -55.45905654 44.15234626 -55.4609375 41.8203125 C-55.48249405 40.17943161 -55.48249405 40.17943161 -55.50448608 38.50540161 C-55.46870197 32.5287522 -55.24905835 28.59205628 -51 24 C-48.73608398 22.30004883 -48.73608398 22.30004883 -46.24609375 20.95703125 C-44.85414795 20.18975708 -44.85414795 20.18975708 -43.43408203 19.40698242 C-42.44520996 18.88080322 -41.45633789 18.35462402 -40.4375 17.8125 C-38.35975563 16.68137846 -36.28294679 15.54853695 -34.20703125 14.4140625 C-32.645896 13.56569824 -32.645896 13.56569824 -31.05322266 12.70019531 C-28.1817277 11.10119556 -25.37352318 9.43254864 -22.57421875 7.7109375 C-21.73640869 7.20071045 -20.89859863 6.6904834 -20.03540039 6.16479492 C-18.47471654 5.20827735 -16.92241646 4.23788627 -15.38061523 3.2512207 C-10.2416792 0.14502713 -5.97996965 -1.41063275 0 0 Z " fill="#6964F6" transform="translate(210,147)"/>
<path d="M0 0 C0.70345595 3.88613818 1.16166863 7.65827926 1.32543945 11.60302734 C1.39605339 13.2153273 1.39605339 13.2153273 1.46809387 14.86019897 C1.51600571 16.00719269 1.56391754 17.1541864 1.61328125 18.3359375 C1.72763722 20.78649948 1.8428997 23.2370193 1.95898438 25.6875 C2.13848658 29.53390558 2.31271519 33.38021607 2.47143555 37.22753906 C2.62722335 40.95213202 2.80586637 44.67506579 2.98828125 48.3984375 C3.03012039 49.54138275 3.07195953 50.684328 3.11506653 51.86190796 C3.46328332 58.52148053 4.3871898 63.37553397 8 69 C8.409655 69.65805634 8.81931 70.31611267 9.24137878 70.99411011 C10.62546423 73.16134464 12.05387304 75.29291713 13.49609375 77.421875 C14.0334465 78.22370712 14.57079926 79.02553925 15.12443542 79.85166931 C16.28525341 81.58297941 17.44812673 83.31291288 18.612854 85.04159546 C21.75801241 89.71009627 24.88774998 94.38892589 28.01953125 99.06640625 C28.99657013 100.5243737 28.99657013 100.5243737 29.99334717 102.01179504 C37.26147188 112.86574825 44.44634478 123.77424977 51.625 134.6875 C53.40580311 137.39463788 55.1866287 140.10176055 56.96794128 142.80856323 C58.08395441 144.50493692 59.19921976 146.20180283 60.31367493 147.89920044 C62.83396958 151.7333409 65.36811309 155.55591152 67.94824219 159.35009766 C68.40629242 160.02635696 68.86434265 160.70261627 69.33627319 161.39936829 C70.17308203 162.63188882 71.01458763 163.8612426 71.86221313 165.08634949 C76.85496345 172.44980148 79.29214699 179.05342033 78 188 C75.35517442 196.07553409 70.4513371 202.67367308 62.890625 206.625 C58.39879587 208.43199667 53.92036186 208.73948343 49.125 209.0625 C48.10092041 209.13992432 47.07684082 209.21734863 46.02172852 209.29711914 C34.26051631 210.13775104 22.47727417 210.63800678 10.69921875 211.17773438 C-1.98890703 211.76591702 -14.6601938 212.52403951 -27.33410645 213.36257935 C-33.24143257 213.75095088 -39.14980211 214.12308581 -45.05819702 214.49479675 C-49.21778927 214.75701479 -53.37682141 215.02332528 -57.53466797 215.31201172 C-61.29236565 215.57209633 -65.05165737 215.78981479 -68.8125 216 C-69.83585449 216.07806885 -70.85920898 216.1561377 -71.91357422 216.23657227 C-78.97917071 216.57904048 -84.11988865 214.97322629 -90 211 C-96.46008946 205.05721666 -100.0260356 198.99964733 -100.6875 190.125 C-100.49340711 182.73259252 -97.84629497 177.14354541 -94.47729492 170.71533203 C-94.0703389 169.93843018 -93.66338287 169.16152832 -93.24409485 168.36108398 C-92.08814323 166.1672811 -90.92810244 163.97573576 -89.76513672 161.78564453 C-83.13214511 149.29392394 -76.78974383 136.66733909 -70.5 124 C-64.93038313 112.78297313 -59.35511186 101.57233831 -53.5390625 90.48046875 C-53.14102417 89.71891479 -52.74298584 88.95736084 -52.33288574 88.17272949 C-50.56791581 84.83008873 -48.75707096 81.54948542 -46.75756836 78.34082031 C-40.35495841 68.04151104 -41.29066583 57.9013191 -41.89276123 46.16430664 C-42.01432793 43.71083194 -42.12157957 41.25695338 -42.22705078 38.80273438 C-42.754903 26.53171974 -43.35192194 14.2652221 -44 2 C-39.54185223 1.41589445 -35.13900396 0.87998145 -30.64453125 0.68359375 C-29.22442749 0.6206311 -29.22442749 0.6206311 -27.77563477 0.55639648 C-26.30888306 0.49754272 -26.30888306 0.49754272 -24.8125 0.4375 C-23.80179443 0.3950415 -22.79108887 0.35258301 -21.74975586 0.30883789 C-14.49486065 0.01989784 -7.26088406 -0.12542794 0 0 Z " fill="#D1DBFC" transform="translate(337,302)"/>
<path d="M0 0 C7.75072436 7.30090554 8.49273517 14.6887418 8.90771484 24.94189453 C8.99780933 26.95114467 9.13311942 28.95820602 9.26953125 30.96484375 C9.64144515 39.4842669 8.71960978 45.44081447 3 52 C-0.42477876 55 -0.42477876 55 -4 55 C-5.41488619 92.15959283 -3.06673585 118.49610685 20.96762085 148.32038879 C28.24339535 157.36536358 34.47350638 167.03974521 40.75372314 176.78982544 C43.69352737 181.34211598 46.67963855 185.86361144 49.6640625 190.38671875 C50.20843964 191.21453857 50.75281677 192.0423584 51.31369019 192.89526367 C53.84321005 196.74083019 56.38247507 200.57914049 58.94824219 204.40063477 C59.40629242 205.08337967 59.86434265 205.76612457 60.33627319 206.46955872 C61.17592273 207.71883936 62.01770255 208.96669252 62.86221313 210.21269226 C69.16745729 219.59034996 73.39445396 228.41971243 73.3125 239.8125 C73.30512817 241.01616211 73.30512817 241.01616211 73.29760742 242.24414062 C73.18335177 248.0049691 72.51891962 252.76761006 70 258 C69.52433594 259.18916016 69.52433594 259.18916016 69.0390625 260.40234375 C63.84733111 272.3506901 53.88771469 280.15124499 42 285 C35.85708418 286.70815447 29.78940468 287.40067175 23.44140625 287.74609375 C22.52344269 287.80173996 21.60547913 287.85738617 20.65969849 287.91471863 C17.62768112 288.09629762 14.59516288 288.26707014 11.5625 288.4375 C9.42095489 288.56321544 7.27943518 288.68936416 5.13793945 288.81591797 C-14.83688087 289.98301203 -34.82024692 291.00581262 -54.80444336 291.99780273 C-55.99522491 292.05752762 -57.18600647 292.1172525 -58.41287231 292.17878723 C-60.62484321 292.28954914 -62.83689408 292.39873177 -65.04904175 292.50590515 C-71.13409944 292.8115285 -77.19650423 293.23668198 -83.26533508 293.77734375 C-99.29120956 295.08216947 -115.26862394 295.55543693 -128.26953125 284.578125 C-128.84058594 284.05734375 -129.41164062 283.5365625 -130 283 C-130.60199219 282.49984375 -131.20398438 281.9996875 -131.82421875 281.484375 C-137.27294783 276.614795 -140.08914791 270.61475368 -143 264 C-143.36480469 263.17757813 -143.72960937 262.35515625 -144.10546875 261.5078125 C-148.7286307 248.54680825 -145.64272983 236.03148761 -140.06939697 223.98925781 C-137.6187067 218.93358629 -134.9971946 213.96815492 -132.375 209 C-131.16420704 206.68202972 -129.95653789 204.36244929 -128.74899292 202.04278564 C-127.95179173 200.51193108 -127.15356426 198.9816105 -126.35427856 197.45184326 C-122.58722853 190.23632731 -118.94630199 182.96189658 -115.34912109 175.66015625 C-113.62016114 172.16661705 -111.87054306 168.72256918 -109.8984375 165.359375 C-107.98854974 161.97973822 -106.52081443 158.56910121 -105 155 C-103.49080387 151.99223089 -101.89973036 149.02965273 -100.3125 146.0625 C-99.4254473 144.37257108 -98.53873387 142.68246404 -97.65234375 140.9921875 C-96.00422307 137.86406045 -94.31305673 134.76935991 -92.56640625 131.6953125 C-91.83560494 130.35955689 -91.10511867 129.02362886 -90.375 127.6875 C-89.86126831 126.83007202 -89.86126831 126.83007202 -89.3371582 125.95532227 C-85.95610139 119.6302399 -86.71226102 112.96250864 -87 106 C-87.05580593 104.24017286 -87.11093868 102.4803243 -87.16552734 100.72045898 C-87.33196433 95.78904444 -87.57166482 90.86421868 -87.84228516 85.9375 C-87.94831297 83.87865656 -88.03888566 81.81896464 -88.11474609 79.75878906 C-88.22724884 76.75017138 -88.38945205 73.74785505 -88.5625 70.7421875 C-88.58683105 69.82243134 -88.61116211 68.90267517 -88.63623047 67.95504761 C-88.81411184 65.39580346 -89.02436421 63.37484559 -90 61 C-91.94259356 59.48081108 -93.70303176 58.64886712 -96.01977539 57.81936646 C-100.0993053 56.13136099 -102.15820901 52.51522378 -104.25 48.75 C-106.35387829 41.0357796 -106.23062719 32.69712108 -106.3125 24.75 C-106.34150391 23.79609375 -106.37050781 22.8421875 -106.40039062 21.859375 C-106.46321125 14.90078289 -105.1406562 11.22170539 -100.18359375 6.13671875 C-99.60738281 5.65847656 -99.03117187 5.18023437 -98.4375 4.6875 C-97.85871094 4.19636719 -97.27992188 3.70523438 -96.68359375 3.19921875 C-92.97171503 0.55525873 -88.72043837 0.64018663 -84.3359375 0.31640625 C-83.56354233 0.25656555 -82.79114716 0.19672485 -81.99534607 0.1350708 C-79.45554004 -0.06012998 -76.91532631 -0.24919916 -74.375 -0.4375 C-73.50829681 -0.50280914 -72.64159363 -0.56811829 -71.74862671 -0.63540649 C-59.44156411 -1.56253939 -47.13067274 -2.42195469 -34.8125 -3.1875 C-33.80869293 -3.25141434 -33.80869293 -3.25141434 -32.78460693 -3.31661987 C-6.51703199 -4.97505567 -6.51703199 -4.97505567 0 0 Z M-49.8125 58.4375 C-50.79033447 58.47673584 -51.76816895 58.51597168 -52.77563477 58.55639648 C-53.72237061 58.59837158 -54.66910645 58.64034668 -55.64453125 58.68359375 C-56.48346924 58.72025146 -57.32240723 58.75690918 -58.18676758 58.79467773 C-61.81371402 59.05938848 -65.39420655 59.52756973 -69 60 C-68.93941406 61.14662109 -68.87882812 62.29324219 -68.81640625 63.47460938 C-68.73157081 65.09764581 -68.64695395 66.72069367 -68.5625 68.34375 C-68.51729218 69.21081573 -68.47208435 70.07788147 -68.42550659 70.97122192 C-68.17919229 75.76701209 -67.9503161 80.56287499 -67.75048828 85.36083984 C-67.69016922 86.80591415 -67.69016922 86.80591415 -67.62863159 88.28018188 C-67.54815083 90.21161845 -67.46817361 92.14307607 -67.38870239 94.07455444 C-67.1711745 99.0758475 -66.84163445 104.02843269 -66.3046875 109.0078125 C-64.68032009 127.14251851 -73.43162005 141.03019702 -82.06719971 156.33441162 C-84.0588492 159.89065863 -85.92732667 163.51167982 -87.8125 167.125 C-88.17778809 167.80989502 -88.54307617 168.49479004 -88.91943359 169.20043945 C-94.06549985 178.87693828 -98.87932785 188.72636968 -103.7628479 198.53695679 C-108.77653334 208.60624382 -113.80093955 218.66172707 -119.14648438 228.56054688 C-124.20393023 237.96379048 -127.3491829 246.15851448 -124.15625 256.81640625 C-120.6834002 264.50125969 -114.96016823 270.26711073 -107.08154297 273.44458008 C-102.77231178 274.59441599 -98.41117523 274.13294562 -94 273.875 C-92.8548291 273.82077881 -91.7096582 273.76655762 -90.52978516 273.71069336 C-76.77153053 273.01915957 -63.024291 272.06903193 -49.27905273 271.15991211 C-36.74496946 270.3354549 -24.21180561 269.63202907 -11.66384888 269.05715942 C6.20794025 268.24244132 6.20794025 268.24244132 24.0625 267.125 C24.98345459 267.07077881 25.90440918 267.01655762 26.85327148 266.96069336 C34.82000531 266.32855779 41.01726101 263.85979721 46.3125 257.6875 C51.38675256 251.55652686 53.81944801 246.07621035 53.42773438 238.05175781 C51.74848403 226.07080499 41.60509823 214.67625587 34.95565796 204.97805786 C31.64870319 200.1536287 28.366052 195.31271321 25.08203125 190.47265625 C24.4463472 189.53681198 23.81066315 188.60096771 23.15571594 187.63676453 C18.3696745 180.57876671 13.73421712 173.44851462 9.22192383 166.2121582 C5.53860594 160.3393613 1.728177 154.55902149 -2.125 148.796875 C-2.67238327 147.97827499 -3.21976654 147.15967499 -3.78373718 146.31626892 C-6.54738275 142.18725669 -9.31723125 138.06250932 -12.09301758 133.94165039 C-13.11022094 132.42596558 -14.12739356 130.91026014 -15.14453125 129.39453125 C-15.61983276 128.69249573 -16.09513428 127.99046021 -16.58483887 127.26715088 C-19.72833293 122.57573514 -21.09054943 119.30375317 -21.37304688 113.70581055 C-21.45818542 112.08348763 -21.45818542 112.08348763 -21.54504395 110.4283905 C-21.60236694 109.25963882 -21.65968994 108.09088715 -21.71875 106.88671875 C-21.78155151 105.68441116 -21.84435303 104.48210358 -21.90905762 103.24336243 C-22.11000306 99.39160101 -22.30553469 95.53959367 -22.5 91.6875 C-22.69472473 87.84613408 -22.8907147 84.0048558 -23.09094238 80.16377258 C-23.21556835 77.77216716 -23.33702715 75.3803941 -23.45495605 72.9884491 C-23.5400946 71.35194145 -23.5400946 71.35194145 -23.62695312 69.68237305 C-23.67501099 68.72767624 -23.72306885 67.77297943 -23.77258301 66.78935242 C-24.01473348 63.81928852 -24.47164382 60.93154805 -25 58 C-33.28487 57.85688324 -41.53567752 58.08980088 -49.8125 58.4375 Z " fill="#072C76" transform="translate(362,244)"/>
<path d="M0 0 C1.46095093 0.85053955 1.46095093 0.85053955 2.95141602 1.71826172 C4.03769287 2.34861328 5.12396973 2.97896484 6.24316406 3.62841797 C6.80933441 3.95890137 7.37550476 4.28938477 7.95883179 4.62988281 C9.7176456 5.65513275 11.48009536 6.67385154 13.24365234 7.69091797 C18.14232854 10.51953921 23.03301474 13.35468071 27.84594727 16.32763672 C28.4744458 16.70903809 29.10294434 17.09043945 29.75048828 17.48339844 C31.32085403 18.44095498 32.87895438 19.41855002 34.43579102 20.39794922 C38.16621553 21.8798282 40.35632559 21.32844731 44.26782227 20.52294922 C47.3213353 19.21230542 47.3213353 19.21230542 50.24438477 17.46826172 C51.32719727 16.85337891 52.41000977 16.23849609 53.52563477 15.60498047 C54.63680664 14.95916016 55.74797852 14.31333984 56.89282227 13.64794922 C58.01172852 13.00986328 59.13063477 12.37177734 60.28344727 11.71435547 C66.19176724 8.38152583 66.19176724 8.38152583 71.87475586 4.69042969 C74.26782227 3.52294922 74.26782227 3.52294922 76.31152344 4.14282227 C76.95710205 4.59826416 77.60268066 5.05370605 78.26782227 5.52294922 C78.95658447 5.99579346 79.64534668 6.4686377 80.35498047 6.95581055 C81.45072388 7.77214966 81.45072388 7.77214966 82.56860352 8.60498047 C83.38135742 9.20761719 84.19411133 9.81025391 85.03149414 10.43115234 C85.87260742 11.05957031 86.7137207 11.68798828 87.58032227 12.33544922 C89.24273104 13.57159934 90.9054859 14.80728419 92.56860352 16.04248047 C93.66942261 16.86389526 93.66942261 16.86389526 94.79248047 17.7019043 C97.08465721 19.49428379 97.08465721 19.49428379 99.09220886 20.44198608 C101.23128048 21.63081402 102.68443049 22.64697181 104.26782227 24.52294922 C105.26432676 28.41678063 105.12734172 32.21155249 105.02954102 36.21044922 C105.03234573 37.34571045 105.03515045 38.48097168 105.03804016 39.65063477 C105.0433193 43.27570284 105.00268712 46.89821548 104.95532227 50.52294922 C104.9238293 54.14728511 104.90254399 57.77078637 104.90473938 61.39526367 C104.90460942 63.64910505 104.88434631 65.90305587 104.84172058 68.15649414 C104.79761462 74.10077958 104.79761462 74.10077958 106.93310547 79.53808594 C109.50529002 81.72483281 112.01520883 83.36156343 114.98657227 84.96826172 C116.08356445 85.57025391 117.18055664 86.17224609 118.31079102 86.79248047 C119.45161133 87.40478516 120.59243164 88.01708984 121.76782227 88.64794922 C124.02959466 89.8772289 126.29006667 91.10890496 128.54907227 92.34326172 C129.5500293 92.88225098 130.55098633 93.42124023 131.58227539 93.9765625 C134.00193165 95.36984457 136.20090569 96.64512253 138.26782227 98.52294922 C138.49101608 101.18555706 138.46917531 103.33506662 138.20532227 105.96044922 C138.1335376 106.70182129 138.06175293 107.44319336 137.98779297 108.20703125 C137.8274888 109.80675056 137.6594666 111.40571112 137.48461914 113.00390625 C137.26265071 115.58303942 137.23064538 118.11860177 137.22094727 120.70654297 C136.82142172 132.97439498 136.82142172 132.97439498 132.5378418 137.24951172 C127.81252747 140.59146048 122.54474306 142.80437235 117.26293945 145.11572266 C111.81853524 147.67372281 106.7572297 150.86898399 101.64282227 154.02294922 C100.64154297 154.62349121 99.64026367 155.2240332 98.60864258 155.84277344 C97.67890625 156.40754395 96.74916992 156.97231445 95.79125977 157.55419922 C94.9654541 158.055 94.13964844 158.55580078 93.28881836 159.07177734 C91.00971842 160.52841624 91.00971842 160.52841624 89.26782227 163.52294922 C89.02660878 166.41954271 88.89482785 169.22828472 88.85375977 172.12841797 C88.83439362 172.96762283 88.81502747 173.8068277 88.79507446 174.67146301 C88.73531013 177.3510218 88.68890615 180.03062362 88.64282227 182.71044922 C88.60463956 184.52752521 88.56558766 186.34458316 88.52563477 188.16162109 C88.42961124 192.61525054 88.34556868 197.06896473 88.26782227 201.52294922 C85.29782227 202.51294922 85.29782227 202.51294922 82.26782227 203.52294922 C63.96633973 176.07072541 63.96633973 176.07072541 63.63500977 167.89404297 C63.57266647 166.59938866 63.57266647 166.59938866 63.50906372 165.27857971 C63.42249304 163.44202395 63.3404141 161.60525185 63.26245117 159.76831055 C63.14546759 157.02253874 63.01461915 154.27772673 62.88110352 151.53271484 C62.35102988 140.18921605 62.15811311 128.87784686 62.26782227 117.52294922 C64.03288269 116.54091899 65.79794312 115.55888875 67.56300354 114.57685852 C71.40326818 112.20282862 72.96088819 108.72506461 74.26782227 104.52294922 C74.77239757 99.48299584 74.55468239 94.57267661 74.26782227 89.52294922 C74.23079618 88.18318937 74.19692753 86.84333844 74.16625977 85.50341797 C73.86582196 77.5734411 73.43850605 70.96862314 67.84594727 65.00732422 C60.29653476 58.23620166 52.43735351 59.23485955 42.92233276 59.6791687 C39.32591853 59.88302811 35.73276268 60.11787791 32.13891602 60.36279297 C30.17257957 60.49241173 30.17257957 60.49241173 28.16651917 60.62464905 C25.41244171 60.80636755 22.65855133 60.99062654 19.90478516 61.17700195 C16.4066788 61.41371821 12.90828616 61.6458137 9.40975857 61.87621212 C6.02769651 62.09919637 2.6458071 62.32472956 -0.73608398 62.55029297 C-1.97596573 62.6326268 -3.21584747 62.71496063 -4.49330139 62.79978943 C-7.90706174 63.03091892 -11.31972858 63.27326094 -14.73217773 63.52294922 C-15.78098114 63.59675812 -16.82978455 63.67056702 -17.91036987 63.74661255 C-18.88531403 63.82306 -19.86025818 63.89950745 -20.86474609 63.97827148 C-21.71443466 64.04272964 -22.56412323 64.10718781 -23.43955994 64.17359924 C-30.00002461 65.17328536 -33.9459325 69.40038214 -37.73217773 74.52294922 C-38.94005481 76.93870338 -38.86140135 78.48240829 -38.86499023 81.17919922 C-38.8662793 82.12021484 -38.86756836 83.06123047 -38.86889648 84.03076172 C-38.8630957 85.51189453 -38.8630957 85.51189453 -38.85717773 87.02294922 C-38.86104492 87.97943359 -38.86491211 88.93591797 -38.86889648 89.92138672 C-39.14183769 103.95589433 -39.14183769 103.95589433 -33.73217773 116.52294922 C-30.99279429 119.02661827 -28.13000244 120.97856371 -24.66644287 122.32745361 C-22.73217773 123.52294922 -22.73217773 123.52294922 -22.13726807 125.37762451 C-22.09285583 126.13037659 -22.0484436 126.88312866 -22.00268555 127.65869141 C-21.94292542 128.5142865 -21.88316528 129.36988159 -21.82159424 130.25140381 C-21.77661804 131.18148254 -21.73164185 132.11156128 -21.68530273 133.06982422 C-21.59391022 134.51400726 -21.59391022 134.51400726 -21.50067139 135.98736572 C-21.30985859 139.08178095 -21.14623592 142.17701256 -20.98217773 145.27294922 C-20.85754188 147.31341626 -20.73125825 149.35378337 -20.60327148 151.39404297 C-20.30614945 156.25463833 -20.06222679 161.11561541 -19.85083008 165.98065186 C-19.74646325 168.21686146 -19.60933268 170.44792816 -19.46264648 172.68164062 C-19.09549645 181.24259105 -21.0556169 186.97865319 -25.23217773 194.39794922 C-25.75682617 195.38408203 -26.28147461 196.37021484 -26.82202148 197.38623047 C-28.10038891 199.78026401 -29.40292919 202.15691252 -30.73217773 204.52294922 C-34.02894358 203.9122331 -36.03253963 202.77438373 -38.66577148 200.72216797 C-39.76308594 199.87428711 -39.76308594 199.87428711 -40.88256836 199.00927734 C-41.63731445 198.41566406 -42.39206055 197.82205078 -43.16967773 197.21044922 C-43.92055664 196.6284375 -44.67143555 196.04642578 -45.44506836 195.44677734 C-47.54762835 193.81391853 -49.64348415 192.1735037 -51.73217773 190.52294922 C-52.63009033 190.02698242 -53.52800293 189.53101563 -54.453125 189.02001953 C-58.13582622 184.98502563 -57.36112009 180.63598788 -57.26342773 175.37060547 C-57.26669067 174.27832138 -57.26995361 173.18603729 -57.27331543 172.06065369 C-57.28649774 167.38762908 -57.241679 162.71555475 -57.20239258 158.04272461 C-57.18193819 154.63088521 -57.19074452 151.2199687 -57.20092773 147.80810547 C-57.18130981 146.75277115 -57.16169189 145.69743683 -57.14147949 144.61012268 C-57.13371014 138.67584347 -57.13371014 138.67584347 -59.8815918 133.55102539 C-62.81717991 131.46247362 -65.73363715 129.55872279 -68.87280273 127.78857422 C-69.44045349 127.46507996 -70.00810425 127.14158569 -70.59295654 126.80828857 C-72.38514063 125.78883071 -74.18329707 124.78053482 -75.98217773 123.77294922 C-78.36391283 122.42666872 -80.7432741 121.07625619 -83.12280273 119.72607422 C-84.70109863 118.83903809 -84.70109863 118.83903809 -86.3112793 117.93408203 C-88.73217773 116.52294922 -88.73217773 116.52294922 -89.73217773 115.52294922 C-89.76920179 113.47573692 -89.7919735 111.42766865 -89.76000977 109.38037109 C-89.74018687 107.34522076 -89.76410245 105.30944528 -89.81762695 103.27490234 C-90.22997156 81.59219738 -90.22997156 81.59219738 -84.6550293 75.10644531 C-79.26179582 70.97287709 -73.13580987 68.42834513 -66.87524414 65.88232422 C-61.80746385 63.69051121 -57.18022242 60.84340959 -52.48217773 57.96044922 C-51.64372314 57.4705249 -50.80526855 56.98060059 -49.94140625 56.47583008 C-49.16595459 56.01571533 -48.39050293 55.55560059 -47.59155273 55.08154297 C-46.91576172 54.68249756 -46.2399707 54.28345215 -45.54370117 53.87231445 C-43.28378439 52.18895056 -42.08769909 51.02657434 -40.73217773 48.52294922 C-40.40685418 45.55664505 -40.24386416 42.78875819 -40.22045898 39.81982422 C-40.20250778 38.9820343 -40.18455658 38.14424438 -40.1660614 37.28106689 C-40.11198717 34.61174515 -40.07807242 31.94260191 -40.04467773 29.27294922 C-40.01150206 27.4604244 -39.97701216 25.64792312 -39.94116211 23.83544922 C-39.8562625 19.39807808 -39.78943776 14.96075961 -39.73217773 10.52294922 C-35.97905324 8.84937727 -32.22537476 7.17705478 -28.47119141 5.50585938 C-27.19564998 4.93783852 -25.92025717 4.36948381 -24.64501953 3.80078125 C-22.80597961 2.98071737 -20.96635013 2.16197601 -19.12670898 1.34326172 C-17.46925659 0.60487061 -17.46925659 0.60487061 -15.77832031 -0.1484375 C-14.77309326 -0.58687988 -13.76786621 -1.02532227 -12.73217773 -1.47705078 C-11.45153442 -2.1211792 -11.45153442 -2.1211792 -10.14501953 -2.77832031 C-6.07078007 -3.95817191 -3.56553712 -1.92757569 0 0 Z " fill="#FDFDFE" transform="translate(295.732177734375,181.47705078125)"/>
<path d="M0 0 C3.7255015 1.65851357 7.1888707 3.66075303 10.6875 5.75 C11.6868457 6.33257568 12.68619141 6.91515137 13.71582031 7.51538086 C15.78850546 8.72761043 17.85700812 9.947018 19.92138672 11.17333984 C22.88627504 12.93252259 25.86471757 14.66618 28.84765625 16.39453125 C30.64924817 17.44913718 32.45006649 18.5050661 34.25 19.5625 C35.50816528 20.29388184 35.50816528 20.29388184 36.79174805 21.04003906 C37.95444214 21.73371582 37.95444214 21.73371582 39.140625 22.44140625 C39.81641602 22.84045166 40.49220703 23.23949707 41.18847656 23.65063477 C43.33728767 25.2512384 44.56974023 26.72908181 46 29 C46.28433228 31.29173279 46.28433228 31.29173279 46.16259766 33.83764648 C46.12752106 34.79642197 46.09244446 35.75519745 46.05630493 36.74302673 C46.00936493 37.77528885 45.96242493 38.80755096 45.9140625 39.87109375 C45.86808444 42.07738833 45.8265636 44.28377944 45.7890625 46.49023438 C45.71959205 49.95666322 45.62617536 53.41371078 45.45507812 56.87670898 C44.45007305 69.64970933 44.45007305 69.64970933 48.62243652 81.29864502 C52.54279735 85.24389363 56.99829666 88.10888747 61.85076904 90.7805481 C65.08479292 92.61550053 68.00991989 94.79397983 71 97 C69.65453774 102.11275657 67.20550462 106.19016508 64.4375 110.6328125 C63.17257822 112.71580869 62.05249736 114.80392378 61 117 C60.31164062 116.27425781 59.62328125 115.54851562 58.9140625 114.80078125 C55.99948276 111.8892738 52.75537381 109.52678786 49.375 107.1875 C42.16174644 102.16345699 42.16174644 102.16345699 38.81640625 99.50390625 C37.39134766 98.38822266 37.39134766 98.38822266 35.9375 97.25 C35.10089844 96.57453125 34.26429688 95.8990625 33.40234375 95.203125 C31.09180345 93.73112204 31.09180345 93.73112204 28.734375 94.49609375 C27.38085938 95.24052734 27.38085938 95.24052734 26 96 C25.36650635 96.34144043 24.7330127 96.68288086 24.08032227 97.03466797 C21.81022319 98.26991055 19.5613712 99.53905686 17.3125 100.8125 C15.69983596 101.71204491 14.08655892 102.61049177 12.47265625 103.5078125 C9.91317175 104.93206332 7.3582768 106.36288386 4.80859375 107.8046875 C3.54208984 108.48917969 3.54208984 108.48917969 2.25 109.1875 C1.55390625 109.57292969 0.8578125 109.95835937 0.140625 110.35546875 C-3.90398786 111.57328102 -7.33320212 110.3186709 -11.04516602 108.54467773 C-12.10405029 107.93052002 -13.16293457 107.3163623 -14.25390625 106.68359375 C-14.83607407 106.34884537 -15.41824188 106.01409698 -16.01805115 105.66920471 C-17.87128216 104.60048346 -19.71675526 103.51908753 -21.5625 102.4375 C-22.77362618 101.73813098 -23.98521178 101.03955695 -25.19726562 100.34179688 C-28.21093884 98.60159107 -31.21053695 96.8388519 -34.20343018 95.06317139 C-35.4119343 94.34800464 -36.62271936 93.63667975 -37.83563232 92.92901611 C-39.61371054 91.89060892 -41.38370363 90.83953937 -43.15234375 89.78515625 C-44.18222412 89.17679932 -45.21210449 88.56844238 -46.27319336 87.94165039 C-49.37647391 85.73192792 -51.12179507 84.34259598 -53 81 C-53.60418491 77.20063707 -53.60811974 73.44276208 -53.6015625 69.6015625 C-53.61013275 68.49324066 -53.618703 67.38491882 -53.62753296 66.24301147 C-53.63900561 63.90129322 -53.64003026 61.5595037 -53.63134766 59.21777344 C-53.62503346 55.64393796 -53.67193095 52.07342535 -53.72265625 48.5 C-53.72720324 46.22135833 -53.72860876 43.94270779 -53.7265625 41.6640625 C-53.74498199 40.60031403 -53.76340149 39.53656555 -53.78237915 38.44058228 C-53.70755846 32.40817152 -53.0793609 28.70681574 -48.69937134 24.39413452 C-46.16445349 22.31453226 -43.58041951 20.64937434 -40.7109375 19.0625 C-40.12639801 18.73386963 -39.54185852 18.40523926 -38.93960571 18.06665039 C-37.0916751 17.03133451 -35.23401764 16.01524611 -33.375 15 C-31.54728183 13.98433104 -29.72175585 12.96479872 -27.89630127 11.94506836 C-26.69299417 11.27536088 -25.48755019 10.60947803 -24.27996826 9.94750977 C-20.28471462 7.75268997 -16.41517762 5.40128291 -12.5390625 3 C-8.07953128 0.42933736 -5.21762405 -1.21645178 0 0 Z " fill="#082D77" transform="translate(193,289)"/>
<path d="M0 0 C3.12695312 1.32592773 3.12695312 1.32592773 6.28125 3.18359375 C6.85295425 3.51466629 7.42465851 3.84573883 8.01368713 4.18684387 C9.85141247 5.25589273 11.67562526 6.34585194 13.5 7.4375 C14.75899654 8.17727839 16.0186839 8.91588235 17.27905273 9.65332031 C19.74701264 11.1006989 22.20953188 12.55668363 24.66748047 14.02099609 C27.45587827 15.67687541 30.25484428 17.30973263 33.06640625 18.92578125 C43.54297053 25.01078942 43.54297053 25.01078942 46 29 C46.39440918 31.4594574 46.39440918 31.4594574 46.41992188 34.23999023 C46.44378967 35.80697914 46.44378967 35.80697914 46.46813965 37.40562439 C46.46834106 38.52860428 46.46854248 39.65158417 46.46875 40.80859375 C46.48017029 42.54690208 46.48017029 42.54690208 46.49182129 44.32032776 C46.50262447 46.77057745 46.50547453 49.2208732 46.50097656 51.67114258 C46.50000448 55.42021465 46.54162281 59.16723919 46.5859375 62.91601562 C46.5911446 65.29687073 46.59383269 67.67773295 46.59375 70.05859375 C46.61014526 71.17954941 46.62654053 72.30050507 46.64343262 73.45542908 C46.57455807 81.21086015 46.57455807 81.21086015 43.78198242 85.04638672 C41.18702008 86.86866743 38.64426543 88.61978046 35.89453125 90.19921875 C34.9192749 90.76439209 33.94401855 91.32956543 32.93920898 91.91186523 C31.90739502 92.49782471 30.87558105 93.08378418 29.8125 93.6875 C28.749104 94.29601807 27.68570801 94.90453613 26.59008789 95.53149414 C24.42744411 96.76703562 22.26298142 97.999399 20.09667969 99.22851562 C17.26719494 100.84714865 14.4626577 102.50059525 11.6640625 104.171875 C10.08887731 105.09432339 8.51337795 106.0162356 6.9375 106.9375 C5.87849487 107.58368286 5.87849487 107.58368286 4.7980957 108.24291992 C4.13124756 108.62552979 3.46439941 109.00813965 2.77734375 109.40234375 C2.21265381 109.73741943 1.64796387 110.07249512 1.06616211 110.41772461 C-3.18403222 111.61549295 -7.03112672 110.44361152 -10.94335938 108.65234375 C-11.90048828 108.08644531 -12.85761719 107.52054687 -13.84375 106.9375 C-14.91866699 106.309646 -15.99358398 105.68179199 -17.10107422 105.03491211 C-18.22271973 104.36339111 -19.34436523 103.69187012 -20.5 103 C-21.66505385 102.31112892 -22.8305841 101.62306292 -23.99658203 100.93579102 C-26.29063927 99.58156731 -28.58024284 98.22060685 -30.86816406 96.85595703 C-33.52952494 95.27880818 -36.20447928 93.73529309 -38.8984375 92.21484375 C-40.22399149 91.45578706 -41.54951568 90.69667833 -42.875 89.9375 C-43.98617188 89.30714844 -45.09734375 88.67679687 -46.2421875 88.02734375 C-49.50499588 85.62876365 -51.0355585 83.54203034 -53 80 C-53.39282227 76.56884766 -53.39282227 76.56884766 -53.25390625 72.7890625 C-53.21556909 71.36623067 -53.1780028 69.94337791 -53.14111328 68.52050781 C-53.11543274 67.78094849 -53.0897522 67.04138916 -53.06329346 66.27941895 C-52.97835445 63.22046789 -52.99870859 60.16568879 -53.01815796 57.105896 C-53.03045285 53.98397387 -52.99589851 50.86335571 -52.95727539 47.74169922 C-52.94394266 46.14605166 -52.9435729 44.55024984 -52.95532227 42.95458984 C-53.03891225 29.84821132 -53.03891225 29.84821132 -50.76611328 25.80493164 C-48.94260399 24.13832137 -47.20370609 23.11536898 -45 22 C-44.17878662 21.50467773 -43.35757324 21.00935547 -42.51147461 20.49902344 C-39.70888564 18.82482194 -36.86599164 17.25044656 -34 15.6875 C-25.60992315 11.08163194 -25.60992315 11.08163194 -17.40625 6.15625 C-16.40078125 5.52456909 -16.40078125 5.52456909 -15.375 4.88012695 C-13.62799208 3.76891163 -11.89166432 2.64095447 -10.15625 1.51171875 C-6.37223375 -0.30067517 -4.16825355 -0.33101485 0 0 Z " fill="#062B76" transform="translate(339,93)"/>
<path d="M0 0 C0.33 0.66 0.66 1.32 1 2 C11.56 1.67 22.12 1.34 33 1 C34.11375 3.64 35.2275 6.28 36.375 9 C43.06543999 24.30981929 52.00815979 38.27703513 64 50 C64.61875 49.195625 65.2375 48.39125 65.875 47.5625 C68.70815513 44.14604822 69.32562876 44.0663316 73.8125 43.625 C77.45869525 43.64488834 77.92035679 43.93391308 80.9375 46.4375 C81.618125 47.283125 82.29875 48.12875 83 49 C83.33 49.33 83.66 49.66 84 50 C84.29339895 52.9339895 84.50460337 55.14415963 84 58 C81.5 61 81.5 61 79 63 C81.33177457 69.41238007 89.03591601 74.13125526 95 77 C99.59713875 78.25607908 104.26382509 78.24472636 109 78 C109 78.33 109 78.66 109 79 C108.00411865 79.04487549 107.0082373 79.08975098 105.98217773 79.13598633 C86.1895139 80.03493044 66.41210972 81.05973527 46.64172363 82.36459351 C40.7422879 82.75161492 34.84188496 83.12360071 28.94143677 83.49482727 C24.781966 83.75702642 20.62305644 84.02333376 16.46533203 84.31201172 C12.70763435 84.57209633 8.94834263 84.78981479 5.1875 85 C4.16414551 85.07806885 3.14079102 85.1561377 2.08642578 85.23657227 C-4.97917071 85.57904048 -10.11988865 83.97322629 -16 80 C-22.46008946 74.05721666 -26.0260356 67.99964733 -26.6875 59.125 C-26.4489213 50.0382635 -22.19142743 42.83927388 -18 35 C-17.17311185 33.41868298 -16.34760987 31.83664041 -15.5234375 30.25390625 C-13.85439217 27.06051367 -12.17036788 23.87563249 -10.4765625 20.6953125 C-6.85179901 13.86369942 -3.42389007 6.93385559 0 0 Z " fill="#92B1F3" transform="translate(263,433)"/>
<path d="M0 0 C0.70345595 3.88613818 1.16166863 7.65827926 1.32543945 11.60302734 C1.39605339 13.2153273 1.39605339 13.2153273 1.46809387 14.86019897 C1.51600571 16.00719269 1.56391754 17.1541864 1.61328125 18.3359375 C1.72763722 20.78649948 1.8428997 23.2370193 1.95898438 25.6875 C2.13848658 29.53390558 2.31271519 33.38021607 2.47143555 37.22753906 C2.62722335 40.95213202 2.80586637 44.67506579 2.98828125 48.3984375 C3.03012039 49.54138275 3.07195953 50.684328 3.11506653 51.86190796 C3.46241101 58.50479767 4.37698988 63.39270374 8 69 C8.38569656 69.61004883 8.77139313 70.22009766 9.16877747 70.84863281 C10.40643311 72.7439667 11.68721697 74.60198092 12.984375 76.45703125 C13.92846601 77.83002271 14.8724741 79.2030712 15.81640625 80.57617188 C17.29129458 82.70846018 18.76848785 84.83911659 20.24755859 86.96850586 C21.68652561 89.04403929 23.11705242 91.12519229 24.546875 93.20703125 C24.99367615 93.84453812 25.44047729 94.48204498 25.90081787 95.13887024 C29 99.66069996 29 99.66069996 29 103 C27.47632813 103.34611328 27.47632813 103.34611328 25.921875 103.69921875 C11.30341447 107.11839748 -0.87403969 112.6712748 -13.625 120.640625 C-19.23253686 124.11028843 -24.7972651 126.76400544 -31 129 C-32.6396875 129.61875 -32.6396875 129.61875 -34.3125 130.25 C-37.02583335 131.00720931 -39.20276611 131.05622581 -42 131 C-55.39721344 95.85976802 -55.39721344 95.85976802 -50.09912109 83.97998047 C-48.9353784 81.81859891 -47.72498146 79.68972742 -46.5 77.5625 C-40.65800125 67.05451836 -41.15446531 57.88741519 -41.878479 46.13574219 C-42.12511528 41.801088 -42.29487304 37.46261463 -42.48046875 33.125 C-42.93327258 22.74707169 -43.45188916 12.37328926 -44 2 C-39.54185223 1.41589445 -35.13900396 0.87998145 -30.64453125 0.68359375 C-29.69779541 0.64161865 -28.75105957 0.59964355 -27.77563477 0.55639648 C-26.30888306 0.49754272 -26.30888306 0.49754272 -24.8125 0.4375 C-23.80179443 0.3950415 -22.79108887 0.35258301 -21.74975586 0.30883789 C-14.49486065 0.01989784 -7.26088406 -0.12542794 0 0 Z " fill="#FDFDFE" transform="translate(337,302)"/>
<path d="M0 0 C5.05983769 0.38368437 8.56270843 1.53503159 12.8984375 4.125 C13.95417969 4.74890625 15.00992188 5.3728125 16.09765625 6.015625 C17.17917969 6.67046875 18.26070313 7.3253125 19.375 8 C20.47972656 8.65484375 21.58445312 9.3096875 22.72265625 9.984375 C30.78276976 14.78276976 30.78276976 14.78276976 32 16 C33.70956961 26.0995463 35.65012263 39.14785878 32 49 C26.59324839 55.78413701 18.5143036 59.06394129 10.54370117 62.01147461 C7.81833166 62.96537198 7.81833166 62.96537198 5 65 C0.3659889 64.70524309 -2.84567807 63.22481403 -6.80078125 60.875 C-7.85974609 60.25109375 -8.91871094 59.6271875 -10.00976562 58.984375 C-11.09966797 58.32953125 -12.18957031 57.6746875 -13.3125 57 C-14.42173828 56.34515625 -15.53097656 55.6903125 -16.67382812 55.015625 C-24.80333647 50.19666353 -24.80333647 50.19666353 -26 49 C-26.08847743 46.47905924 -26.11527301 43.98569107 -26.09765625 41.46484375 C-26.0962413 40.71159317 -26.09482635 39.95834259 -26.09336853 39.18226624 C-26.08775376 36.7673044 -26.07519883 34.35243399 -26.0625 31.9375 C-26.0574869 30.30403779 -26.05292366 28.67057414 -26.04882812 27.03710938 C-26.03777954 23.02470415 -26.02050506 19.01236759 -26 15 C-24.8718689 14.37170288 -24.8718689 14.37170288 -23.72094727 13.73071289 C-20.9378088 12.17964254 -18.15551068 10.62707856 -15.3737793 9.07348633 C-14.16838663 8.40068258 -12.96265835 7.72847976 -11.7565918 7.05688477 C-10.02565339 6.09288084 -8.29600957 5.12655352 -6.56640625 4.16015625 C-5.52427979 3.57886963 -4.48215332 2.99758301 -3.40844727 2.39868164 C-1.12440597 1.20986135 -1.12440597 1.20986135 0 0 Z " fill="#65CAD0" transform="translate(333,116)"/>
<path d="M0 0 C1.88916399 1.22078295 3.77483229 2.4469998 5.65625 3.6796875 C8.13630575 4.61253954 8.13630575 4.61253954 10.546875 5.2578125 C15.66197603 7.05650455 19.74208901 8.92984934 22.65625 13.6796875 C24.05783394 19.43853513 24.28830459 25.02192834 24.28125 30.9296875 C24.29063599 31.70010376 24.30002197 32.47052002 24.30969238 33.26428223 C24.3300194 45.63556472 24.3300194 45.63556472 20.86328125 49.86938477 C18.53229389 51.45509913 16.24224772 52.56383573 13.65625 53.6796875 C12.09919983 54.59886298 10.55207097 55.53506429 9.015625 56.48828125 C7.48140982 57.36850471 5.94494797 58.24482399 4.40625 59.1171875 C3.63023437 59.57544922 2.85421875 60.03371094 2.0546875 60.50585938 C1.29929688 60.93318359 0.54390625 61.36050781 -0.234375 61.80078125 C-0.90500977 62.1867749 -1.57564453 62.57276855 -2.26660156 62.97045898 C-5.05968133 63.92413749 -6.53520757 63.55775265 -9.34375 62.6796875 C-11.28110837 61.70723112 -13.18063591 60.65749324 -15.046875 59.5546875 C-16.1090625 58.93078125 -17.17125 58.306875 -18.265625 57.6640625 C-19.36390625 57.00921875 -20.4621875 56.354375 -21.59375 55.6796875 C-22.7075 55.02484375 -23.82125 54.37 -24.96875 53.6953125 C-33.1672247 48.8562128 -33.1672247 48.8562128 -34.34375 47.6796875 C-34.43222743 45.15874674 -34.45902301 42.66537857 -34.44140625 40.14453125 C-34.4399913 39.39128067 -34.43857635 38.63803009 -34.43711853 37.86195374 C-34.43150376 35.4469919 -34.41894883 33.03212149 -34.40625 30.6171875 C-34.4012369 28.98372529 -34.39667366 27.35026164 -34.39257812 25.71679688 C-34.38152954 21.70439165 -34.36425506 17.69205509 -34.34375 13.6796875 C-30.61263967 11.22774938 -26.84776661 8.84430508 -23.04003906 6.51416016 C-21.75307898 5.714411 -20.47662012 4.89748426 -19.21191406 4.06298828 C-7.32516803 -3.75231324 -7.32516803 -3.75231324 0 0 Z " fill="#D0DBFC" transform="translate(195.34375,313.3203125)"/>
<path d="M0 0 C5.94588075 3.18059114 10.47857659 6.12799837 13.08984375 12.52734375 C15.46030844 21.78884804 15.17754809 32.05428013 11.625 40.9375 C6.58827937 47.12164257 -0.42240497 50.23622909 -7.7878418 52.91137695 C-10.46933373 53.86123783 -10.46933373 53.86123783 -12.89379883 55.68823242 C-15.375 56.9375 -15.375 56.9375 -17.8425293 56.31494141 C-18.67824463 55.86038574 -19.51395996 55.40583008 -20.375 54.9375 C-21.70108276 54.23439697 -21.70108276 54.23439697 -23.05395508 53.51708984 C-23.99134521 52.98293457 -24.92873535 52.4487793 -25.89453125 51.8984375 C-26.91611328 51.31835938 -27.93769531 50.73828125 -28.99023438 50.140625 C-30.04533203 49.53734375 -31.10042969 48.9340625 -32.1875 48.3125 C-33.79915039 47.39597656 -33.79915039 47.39597656 -35.44335938 46.4609375 C-38.08886076 44.95594115 -40.7326625 43.44804209 -43.375 41.9375 C-43.59840401 37.3479797 -43.76117929 32.76165181 -43.86938477 28.16796875 C-43.9145005 26.60783758 -43.97581719 25.04808403 -44.05395508 23.48925781 C-44.68396046 10.59267696 -44.68396046 10.59267696 -41.61938477 6.7175293 C-39.27307932 5.13859127 -36.97724941 4.03650454 -34.375 2.9375 C-32.97321331 2.0946081 -31.58308171 1.23194003 -30.20703125 0.34765625 C-28.86925849 -0.43843094 -27.52942789 -1.22102723 -26.1875 -2 C-25.17913086 -2.61584961 -25.17913086 -2.61584961 -24.15039062 -3.24414062 C-23.48845703 -3.62634766 -22.82652344 -4.00855469 -22.14453125 -4.40234375 C-21.27211792 -4.91849243 -21.27211792 -4.91849243 -20.38208008 -5.44506836 C-13.8234473 -7.46267964 -5.75488041 -2.82557912 0 0 Z " fill="#B0D753" transform="translate(450.375,347.0625)"/>
<path d="M0 0 C0.93102539 0.53302734 1.86205078 1.06605469 2.82128906 1.61523438 C3.83835938 2.19402344 4.85542969 2.7728125 5.90332031 3.36914062 C6.95390625 3.97628906 8.00449219 4.5834375 9.08691406 5.20898438 C10.15296875 5.81613281 11.21902344 6.42328125 12.31738281 7.04882812 C20.16592262 11.53799293 20.16592262 11.53799293 21.33691406 12.70898438 C21.72425545 17.175215 21.82206615 21.64638523 21.90673828 26.12670898 C21.94331788 27.63148999 21.99781277 29.13594938 22.07080078 30.6394043 C22.66476404 43.06199529 22.66476404 43.06199529 19.59887695 46.86474609 C17.25239136 48.43348258 14.91275454 49.56143353 12.33691406 50.70898438 C10.85630163 51.68015094 9.39088611 52.67492142 7.94238281 53.69335938 C-3.33600402 60.95364771 -3.33600402 60.95364771 -8.93261719 60.36523438 C-11.78808594 58.95898438 -11.78808594 58.95898438 -14.56152344 56.93554688 C-17.24604591 55.00837079 -18.91819532 54.18389745 -21.95214844 53.16992188 C-26.92096449 51.27508475 -30.80542117 49.34776344 -33.66308594 44.70898438 C-36.5740105 34.52002249 -36.69679739 22.87973359 -33.66308594 12.70898438 C-30.07546837 7.36822648 -24.68059592 5.31184915 -18.73583984 3.41601562 C-16.0331283 2.4941013 -13.79482792 1.07955749 -11.41308594 -0.47851562 C-7.26503793 -3.04104942 -4.2776246 -2.0737146 0 0 Z " fill="#FB7CA0" transform="translate(211.6630859375,174.291015625)"/>
<path d="M0 0 C8.05432125 3.49701508 16.10358849 7.0461845 19.66113281 15.53857422 C22.14020456 24.82473118 21.88180664 35.09003313 18.1640625 43.96484375 C11.40952326 51.99858838 1.09243299 56.09485419 -8.83813477 58.77514648 C-12.67850687 59.0181605 -14.3641023 58.01491074 -17.63671875 56.03515625 C-18.69568359 55.40480469 -19.75464844 54.77445312 -20.84570312 54.125 C-22.48055664 53.11759766 -22.48055664 53.11759766 -24.1484375 52.08984375 C-25.25767578 51.42597656 -26.36691406 50.76210937 -27.50976562 50.078125 C-35.56913642 45.23164483 -35.56913642 45.23164483 -36.8359375 43.96484375 C-37.32023519 39.53703196 -37.49235116 35.10638628 -37.62548828 30.65698242 C-37.68202435 29.16523794 -37.76369699 27.67421467 -37.87158203 26.18530273 C-38.22796471 21.17192568 -38.25927624 16.81961469 -36.8359375 11.96484375 C-32.91741196 8.13323301 -28.82476712 6.23896017 -23.8359375 3.96484375 C-21.64131502 2.67515139 -19.5298884 1.29717224 -17.3984375 -0.09765625 C-11.1272753 -4.08363834 -6.67106832 -2.58621151 0 0 Z " fill="#FBCA51" transform="translate(459.8359375,203.03515625)"/>
<path d="M0 0 C0 6.6 0 13.2 0 20 C-7.66365532 20.43329172 -15.32762868 20.86027026 -22.99194336 21.28173828 C-25.59197165 21.42556758 -28.19190988 21.57103582 -30.79174805 21.71826172 C-44.88064142 22.51497929 -58.88700018 23.19796142 -73 23 C-73 16.73 -73 10.46 -73 4 C-68.7547219 3.3935317 -64.78478843 2.8551934 -60.54638672 2.61108398 C-59.52777557 2.55109726 -58.50916443 2.49111053 -57.45968628 2.42930603 C-56.37728668 2.36884598 -55.29488708 2.30838593 -54.1796875 2.24609375 C-53.04403351 2.18092056 -51.90837952 2.11574738 -50.73831177 2.04859924 C-48.33962379 1.91183727 -45.94084784 1.77661079 -43.54199219 1.64282227 C-39.90790312 1.43934231 -36.27427218 1.2287851 -32.640625 1.01757812 C-30.29950352 0.88498599 -27.95835835 0.75281133 -25.6171875 0.62109375 C-24.54693329 0.55860947 -23.47667908 0.49612518 -22.37399292 0.43174744 C-14.9060802 0.02266242 -7.47921744 -0.05083336 0 0 Z " fill="#90AFF1" transform="translate(350,261)"/>
<path d="M0 0 C8.69042299 5.50393456 16.81031 11.78990378 25 18 C23.76068385 22.08735998 22.26689617 25.50930061 20 29.125 C18.18807087 32.03314625 16.48145288 34.90889158 15 38 C14.31164062 37.27425781 13.62328125 36.54851562 12.9140625 35.80078125 C9.99927667 32.88906793 6.75429064 30.52859174 3.375 28.1875 C2.14031592 27.31944987 0.90594529 26.45095375 -0.328125 25.58203125 C-0.94107422 25.15229004 -1.55402344 24.72254883 -2.18554688 24.27978516 C-4.9362128 22.33966261 -7.65534557 20.35837493 -10.375 18.375 C-11.26960937 17.72273438 -12.16421875 17.07046875 -13.0859375 16.3984375 C-13.71757812 15.93695313 -14.34921875 15.47546875 -15 15 C-13.73960402 11.21881207 -12.62616077 11.0150752 -9.1875 9.1875 C-4.69211292 6.6214636 -2.38783717 4.55859824 0 0 Z " fill="#6865F5" transform="translate(239,368)"/>
<path d="M0 0 C2.9375 2.4375 2.9375 2.4375 5 5 C5.33 5.33 5.66 5.66 6 6 C6.71194379 13.11943794 6.71194379 13.11943794 3.625 16.9375 C-0.43871973 20.13042265 -2.79782067 20.52903519 -8 20 C-10.875 17.5625 -10.875 17.5625 -13 15 C-13.33 14.67 -13.66 14.34 -14 14 C-14.58968059 6.92383292 -14.58968059 6.92383292 -12.125 3.0625 C-8.53105139 -0.42574424 -4.86901199 -0.86746765 0 0 Z " fill="#6A66F7" transform="translate(341,477)"/>
<path d="M0 0 C4.33764633 2.36598891 4.33764633 2.36598891 6 5 C7.15390567 10.02773185 6.78240438 13.73805744 4.0625 18.125 C-0.06107402 20.64963716 -3.28489456 21.04210664 -8 20 C-11.66508667 17.55660889 -13.23005206 15.30129886 -14.125 11.0625 C-14.36890311 7.76042713 -13.76489796 6.12688442 -11.6875 3.5625 C-7.70861752 -0.23131818 -5.49484783 -0.54948478 0 0 Z " fill="#6966F6" transform="translate(282,457)"/>
<path d="M0 0 C4.80098725 0.60964917 6.7231546 0.93869877 9.6875 4.75 C11.20026677 8.0780869 11.52827522 9.88150175 10.9375 13.5 C8.88108444 17.01580725 7.64319948 18.87917556 3.8125 20.2734375 C-0.18940544 20.98999489 -3.19957589 20.95461308 -6.625 18.625 C-9.4384875 15.01796475 -9.91027932 13.19243404 -9.57421875 8.7265625 C-8.37869586 3.524669 -5.58631705 0.17750914 0 0 Z " fill="#6A66F7" transform="translate(369.0625,448.5)"/>
<path d="M0 0 C2.64 0 5.28 0 8 0 C7.47599609 1.03833984 7.47599609 1.03833984 6.94140625 2.09765625 C2.98846023 10.59705011 2.13903664 17.74774354 2 27 C1.67 27 1.34 27 1 27 C0.67 18.09 0.34 9.18 0 0 Z " fill="#C5D0F1" transform="translate(293,304)"/>
</svg>
