<?xml version="1.0" encoding="UTF-8"?>
<svg version="1.1" xmlns="http://www.w3.org/2000/svg" width="640" height="640">
<path d="M0 0 C211.2 0 422.4 0 640 0 C640 211.2 640 422.4 640 640 C428.8 640 217.6 640 0 640 C0 428.8 0 217.6 0 0 Z " fill="#FEFEFE" transform="translate(0,0)"/>
<path d="M0 0 C1.44354858 0.85670288 1.44354858 0.85670288 2.91625977 1.73071289 C4.53334839 2.67744873 4.53334839 2.67744873 6.18310547 3.64331055 C7.31321045 4.32312988 8.44331543 5.00294922 9.60766602 5.70336914 C10.77787825 6.39628613 11.94869861 7.08817709 13.12011719 7.77905273 C15.42666506 9.14214144 17.72761259 10.51349337 20.02661133 11.8894043 C22.68582036 13.47675135 25.35547484 15.04151924 28.03735352 16.59008789 C39.37223339 23.19463196 39.37223339 23.19463196 43.17016602 27.76586914 C43.82958984 31.27099609 43.82958984 31.27099609 43.87719727 35.25415039 C43.89231857 35.95734909 43.90743988 36.66054779 43.92301941 37.38505554 C43.96578097 39.61648917 43.97472195 41.84656723 43.98266602 44.07836914 C44.00581973 45.5972851 44.03118691 47.11616903 44.05883789 48.63500977 C44.12157208 52.34527047 44.15400045 56.05507999 44.17016602 59.76586914 C47.46096227 60.87264122 50.7529623 61.97579148 54.04516602 63.07836914 C55.42188477 63.54146484 55.42188477 63.54146484 56.82641602 64.01391602 C59.60391586 64.94300927 62.38659222 65.85515747 65.17016602 66.76586914 C66.07798828 67.07443848 66.98581055 67.38300781 67.92114258 67.70092773 C68.78964844 67.98403809 69.6581543 68.26714844 70.55297852 68.55883789 C71.32270996 68.81560303 72.09244141 69.07236816 72.88549805 69.33691406 C77.8761497 70.27392784 81.2697623 68.30463714 85.35766602 65.64086914 C92.33294218 61.19027448 99.49568227 57.07135524 106.67016602 52.95336914 C108.93064832 51.65530627 111.19104906 50.35710165 113.45141602 49.05883789 C114.43174805 48.49704834 115.41208008 47.93525879 116.42211914 47.35644531 C118.24139939 46.30344151 120.0355238 45.20561987 121.80004883 44.06323242 C124.66410456 42.49549528 126.70858894 42.52253762 129.89868164 43.07983398 C134.60599316 44.50153921 138.71415065 47.08127022 142.92016602 49.57836914 C143.915 50.1571582 144.90983398 50.73594727 145.93481445 51.33227539 C147.99608954 52.53517617 150.0536952 53.7443859 152.10766602 54.9597168 C155.06381476 56.70314699 158.03600645 58.41541246 161.01391602 60.12133789 C162.81675513 61.16821451 164.61887285 62.21633473 166.42016602 63.26586914 C167.67845215 63.98480347 167.67845215 63.98480347 168.9621582 64.71826172 C169.73720703 65.17740967 170.51225586 65.63655762 171.31079102 66.10961914 C171.98658203 66.50342773 172.66237305 66.89723633 173.35864258 67.30297852 C176.50440097 69.8433268 177.97516961 72.08806854 178.45071411 76.17977905 C178.58519368 79.2633719 178.6120512 82.33167847 178.60375977 85.41821289 C178.60900162 86.55110245 178.61424347 87.683992 178.61964417 88.85121155 C178.6260603 91.24422385 178.62473269 93.63726771 178.61621094 96.03027344 C178.60770444 99.6868521 178.63646498 103.34186675 178.66821289 106.99829102 C178.66982512 109.32576451 178.66924695 111.65324076 178.66625977 113.98071289 C178.67749374 115.07149643 178.68872772 116.16227997 178.70030212 117.28611755 C178.64570811 123.24829362 178.42232828 127.20247489 174.17016602 131.76586914 C171.51293945 133.73217773 171.51293945 133.73217773 168.52954102 135.41430664 C167.45961914 136.02661133 166.38969727 136.63891602 165.28735352 137.26977539 C164.17618164 137.88723633 163.06500977 138.50469727 161.92016602 139.14086914 C160.79352539 139.7815332 159.66688477 140.42219727 158.50610352 141.08227539 C155.73427562 142.65610987 152.95581082 144.21666412 150.17016602 145.76586914 C151.4770794 153.96354048 153.02916025 162.0602158 154.84594727 170.15844727 C155.70358865 174.09521467 156.41612146 177.70760425 156.17016602 181.76586914 C157.04833984 181.87366699 157.92651367 181.98146484 158.83129883 182.0925293 C162.26363261 182.78471828 164.5598158 183.8193834 167.59204102 185.53930664 C168.60967529 186.11189209 169.62730957 186.68447754 170.67578125 187.27441406 C171.74642822 187.89034424 172.8170752 188.50627441 173.92016602 189.14086914 C175.02239502 189.76775635 176.12462402 190.39464355 177.26025391 191.04052734 C184.08399322 194.9410086 190.8753747 198.89694704 197.60766602 202.95336914 C198.35177734 203.39793457 199.09588867 203.8425 199.86254883 204.30053711 C203.04302488 206.24920254 205.07336284 207.62066437 207.17016602 210.76586914 C207.4241333 213.11180115 207.4241333 213.11180115 207.42895508 215.90820312 C207.4352594 216.95616562 207.44156372 218.00412811 207.44805908 219.08384705 C207.44198639 220.78076439 207.44198639 220.78076439 207.43579102 222.51196289 C207.43770447 223.67462173 207.43961792 224.83728058 207.44158936 226.03517151 C207.44295123 228.49561784 207.43925464 230.95607135 207.4309082 233.41650391 C207.42021865 237.18481595 207.43079874 240.95265019 207.44360352 244.72094727 C207.44228173 247.10962019 207.43971895 249.49829283 207.43579102 251.88696289 C207.43983948 253.01621689 207.44388794 254.14547089 207.44805908 255.3089447 C207.4386026 256.88561668 207.4386026 256.88561668 207.42895508 258.49414062 C207.42736389 259.41774887 207.42577271 260.34135712 207.4241333 261.29295349 C207.15230214 263.93981222 206.59483508 265.53126957 205.17016602 267.76586914 C202.79443359 269.45410156 202.79443359 269.45410156 199.81469727 271.12133789 C198.72358643 271.73992676 197.63247559 272.35851562 196.50830078 272.99584961 C195.33317191 273.64850508 194.15795883 274.30100894 192.98266602 274.95336914 C191.20101083 275.95725879 189.421413 276.96473193 187.64183044 277.97229004 C186.46512167 278.6380524 185.28768375 279.30252771 184.10951233 279.96569824 C178.26871685 283.25673031 172.54500451 286.72320122 166.83032227 290.22680664 C162.46595125 292.75186124 159.1715277 293.11743652 154.17016602 292.76586914 C151.23583984 291.44897461 151.23583984 291.44897461 148.37719727 289.63305664 C147.33499023 288.99239258 146.2927832 288.35172852 145.21899414 287.69165039 C143.04954849 286.31692623 140.88027953 284.9419232 138.71118164 283.56665039 C137.6728418 282.92856445 136.63450195 282.29047852 135.56469727 281.63305664 C134.624729 281.03605957 133.68476074 280.4390625 132.71630859 279.82397461 C130.25245587 278.47781515 130.25245587 278.47781515 127.97216797 279.47119141 C125.6778638 281.11957171 123.62144939 282.91101951 121.54516602 284.82836914 C120.67375977 285.62629883 119.80235352 286.42422852 118.90454102 287.24633789 C118.00219727 288.0777832 117.09985352 288.90922852 116.17016602 289.76586914 C114.38119323 291.39383438 112.58962555 293.01895379 110.79516602 294.64086914 C110.00368164 295.36016602 109.21219727 296.07946289 108.39672852 296.82055664 C106.38339771 298.57957198 104.31687778 300.17569142 102.17016602 301.76586914 C102.83363345 314.06287564 106.59641063 322.86058311 112.48266602 333.51586914 C113.63231114 335.64728549 114.77531174 337.78217309 115.91793823 339.9173584 C116.65413822 341.29199582 117.39279782 342.66531916 118.13406372 344.03723145 C125.94210801 358.54583723 130.11206949 371.85723661 126.33422852 388.43383789 C122.29443565 398.69599629 115.64857752 407.99640127 106.17016602 413.76586914 C105.57977539 414.14227539 104.98938477 414.51868164 104.38110352 414.90649414 C90.1221871 423.03711031 72.76296764 421.05718657 57.09527588 420.02536011 C40.45621546 418.93380723 23.80549965 418.1700266 7.14624023 417.46362305 C-0.95197875 417.11523642 -9.0188534 416.72232297 -17.09301758 415.98681641 C-23.26560365 415.48849434 -29.46224484 415.36464653 -35.65014648 415.16040039 C-53.72314839 414.51174067 -67.72540459 411.63533691 -80.57983398 397.95336914 C-84.19198069 393.64561182 -86.59418004 388.89866265 -88.82983398 383.76586914 C-89.19850586 383.04141602 -89.56717773 382.31696289 -89.94702148 381.57055664 C-91.25449926 377.41671131 -91.1687337 373.40832322 -91.14233398 369.07836914 C-91.13959473 368.1836792 -91.13685547 367.28898926 -91.1340332 366.3671875 C-91.03440298 360.0830397 -90.33959047 354.57975458 -87.82983398 348.76586914 C-87.16102951 347.10005919 -86.49413722 345.43347924 -85.82983398 343.76586914 C-86.49289551 343.39937256 -87.15595703 343.03287598 -87.83911133 342.65527344 C-99.03877404 336.45376734 -110.23887125 330.24968628 -121.20483398 323.64086914 C-121.94008301 323.20476318 -122.67533203 322.76865723 -123.43286133 322.31933594 C-124.44533936 321.70119019 -124.44533936 321.70119019 -125.47827148 321.07055664 C-126.05754395 320.71977051 -126.63681641 320.36898438 -127.23364258 320.00756836 C-130.01587131 317.84323441 -131.66087186 315.83777148 -132.21751404 312.30641174 C-132.22291702 311.38883591 -132.22832001 310.47126007 -132.23388672 309.52587891 C-132.24657089 308.48121964 -132.25925507 307.43656036 -132.27232361 306.36024475 C-132.26938797 305.23726486 -132.26645233 304.11428497 -132.26342773 302.95727539 C-132.26866959 301.79840317 -132.27391144 300.63953094 -132.27931213 299.44554138 C-132.28573429 296.99527792 -132.28439288 294.54498364 -132.27587891 292.09472656 C-132.2673737 288.34587674 -132.29612265 284.59855261 -132.32788086 280.84985352 C-132.32949306 278.4689946 -132.32891498 276.08813298 -132.32592773 273.70727539 C-132.33716171 272.58631973 -132.34839569 271.46536407 -132.35997009 270.31044006 C-132.29090954 262.596677 -132.29090954 262.596677 -130.15136719 258.74145508 C-127.60550406 256.57496812 -125.09616322 254.8695778 -122.18920898 253.21508789 C-121.11928711 252.59956055 -120.04936523 251.9840332 -118.94702148 251.34985352 C-117.83584961 250.72401367 -116.72467773 250.09817383 -115.57983398 249.45336914 C-114.45319336 248.80819336 -113.32655273 248.16301758 -112.16577148 247.49829102 C-109.3921587 245.91169048 -106.61355269 244.334649 -103.82983398 242.76586914 C-105.21850763 234.15098568 -106.7883113 225.58102062 -108.45483398 217.01586914 C-108.68428711 215.82993164 -108.91374023 214.64399414 -109.15014648 213.42211914 C-109.70866642 210.53643281 -110.26858199 207.65102512 -110.82983398 204.76586914 C-112.13706421 204.61311523 -112.13706421 204.61311523 -113.47070312 204.45727539 C-117.05991357 203.71851211 -119.42698181 202.55503898 -122.57592773 200.70336914 C-123.65414795 200.075354 -124.73236816 199.44733887 -125.84326172 198.80029297 C-127.53817749 197.79325317 -127.53817749 197.79325317 -129.26733398 196.76586914 C-130.43630665 196.07861833 -131.60566081 195.39201601 -132.77539062 194.70605469 C-135.07930774 193.35283821 -137.37915436 191.99335992 -139.67749023 190.63061523 C-142.36510989 189.04077331 -145.06192506 187.46967267 -147.76733398 185.91040039 C-149.10101341 185.13365058 -150.43438172 184.35636615 -151.76733398 183.57836914 C-152.89010742 182.92481445 -154.01288086 182.27125977 -155.16967773 181.59790039 C-157.83227212 179.76419002 -159.15420748 178.49435182 -160.82983398 175.76586914 C-161.23770142 173.275177 -161.23770142 173.275177 -161.28149414 170.44995117 C-161.30386139 169.38849884 -161.32622864 168.32704651 -161.34927368 167.23342896 C-161.35574921 166.09171234 -161.36222473 164.94999573 -161.36889648 163.77368164 C-161.38743179 162.00563675 -161.38743179 162.00563675 -161.40634155 160.20187378 C-161.42590929 157.70877041 -161.43714014 155.21558976 -161.44067383 152.72241211 C-161.45475823 148.91136628 -161.52209385 145.10359917 -161.59155273 141.29321289 C-161.60395127 138.87005038 -161.61317084 136.4468691 -161.61889648 134.02368164 C-161.65897324 132.31717941 -161.65897324 132.31717941 -161.69985962 130.57620239 C-161.63395581 122.88923721 -161.63395581 122.88923721 -159.41719055 119.79238892 C-157.63722113 118.21281744 -155.87504067 116.97763586 -153.82983398 115.76586914 C-152.88358154 115.15888184 -151.9373291 114.55189453 -150.96240234 113.92651367 C-149.58000366 113.17023682 -149.58000366 113.17023682 -148.16967773 112.39868164 C-147.13496338 111.82649902 -146.10024902 111.25431641 -145.03417969 110.66479492 C-143.95612061 110.07939941 -142.87806152 109.49400391 -141.76733398 108.89086914 C-139.52989433 107.66254089 -137.29291201 106.43337921 -135.05639648 105.20336914 C-133.44812988 104.32165039 -133.44812988 104.32165039 -131.80737305 103.42211914 C-129.27484612 102.01340623 -126.77515738 100.56969111 -124.29077148 99.07836914 C-123.65792236 98.7005127 -123.02507324 98.32265625 -122.37304688 97.93334961 C-120.77674715 96.97183179 -119.18770235 95.99829671 -117.59936523 95.02368164 C-114.31199655 93.53068768 -112.41991537 93.45766999 -108.82983398 93.76586914 C-105.91723633 95.08276367 -105.91723633 95.08276367 -102.91577148 96.89868164 C-101.82522461 97.5393457 -100.73467773 98.18000977 -99.61108398 98.84008789 C-97.90061351 99.86990096 -96.19016633 100.89976707 -94.4831543 101.93530273 C-92.82278784 102.93636415 -91.15066055 103.91783734 -89.47827148 104.89868164 C-88.49004395 105.49567871 -87.50181641 106.09267578 -86.48364258 106.70776367 C-83.91686651 108.05981158 -83.91686651 108.05981158 -81.58642578 107.03100586 C-79.7182884 105.68553152 -77.98066311 104.30527501 -76.26733398 102.76586914 C-75.57768555 102.14969727 -74.88803711 101.53352539 -74.17749023 100.89868164 C-70.57946672 97.62992816 -66.98729791 94.35477225 -63.39624023 91.07836914 C-60.59988833 88.55867306 -57.75307408 86.13606381 -54.82983398 83.76586914 C-54.99085602 83.20983002 -55.15187805 82.65379089 -55.31777954 82.0809021 C-55.87328676 79.56941621 -55.98508318 77.2968586 -56.02270508 74.7253418 C-56.03876801 73.72395172 -56.05483093 72.72256165 -56.07138062 71.69082642 C-56.11599814 67.12860961 -56.15687041 62.56653432 -56.17993164 58.00415039 C-56.1965092 55.59877866 -56.2238225 53.19345654 -56.26196289 50.78833008 C-56.3167336 47.3144382 -56.33860419 43.84169713 -56.35327148 40.36743164 C-56.37594086 39.29538483 -56.39861023 38.22333801 -56.42196655 37.11880493 C-56.39839892 28.78593817 -56.39839892 28.78593817 -53.65454102 25.26489258 C-50.89952742 22.82752705 -48.32095021 20.96793898 -45.11108398 19.17993164 C-44.01932861 18.56263184 -42.92757324 17.94533203 -41.80273438 17.30932617 C-40.65667725 16.67623535 -39.51062012 16.04314453 -38.32983398 15.39086914 C-36.56308445 14.39834065 -34.798696 13.40170565 -33.03443909 12.40475464 C-31.32544296 11.43949566 -29.61452015 10.47765043 -27.90356445 9.51586914 C-23.20013482 6.838015 -18.61945583 3.98843488 -14.05249023 1.08618164 C-9.34199409 -1.71196897 -5.05020551 -2.20246647 0 0 Z " fill="#072B76" transform="translate(296.829833984375,94.234130859375)"/>
<path d="M0 0 C1.44354858 0.85670288 1.44354858 0.85670288 2.91625977 1.73071289 C4.53334839 2.67744873 4.53334839 2.67744873 6.18310547 3.64331055 C7.31321045 4.32312988 8.44331543 5.00294922 9.60766602 5.70336914 C10.77787825 6.39628613 11.94869861 7.08817709 13.12011719 7.77905273 C15.42666506 9.14214144 17.72761259 10.51349337 20.02661133 11.8894043 C22.68582036 13.47675135 25.35547484 15.04151924 28.03735352 16.59008789 C39.37223339 23.19463196 39.37223339 23.19463196 43.17016602 27.76586914 C43.82958984 31.27099609 43.82958984 31.27099609 43.87719727 35.25415039 C43.89231857 35.95734909 43.90743988 36.66054779 43.92301941 37.38505554 C43.96578097 39.61648917 43.97472195 41.84656723 43.98266602 44.07836914 C44.00581973 45.5972851 44.03118691 47.11616903 44.05883789 48.63500977 C44.12157208 52.34527047 44.15400045 56.05507999 44.17016602 59.76586914 C47.46096227 60.87264122 50.7529623 61.97579148 54.04516602 63.07836914 C55.42188477 63.54146484 55.42188477 63.54146484 56.82641602 64.01391602 C59.60391586 64.94300927 62.38659222 65.85515747 65.17016602 66.76586914 C66.07798828 67.07443848 66.98581055 67.38300781 67.92114258 67.70092773 C68.78964844 67.98403809 69.6581543 68.26714844 70.55297852 68.55883789 C71.32270996 68.81560303 72.09244141 69.07236816 72.88549805 69.33691406 C77.8761497 70.27392784 81.2697623 68.30463714 85.35766602 65.64086914 C92.33294218 61.19027448 99.49568227 57.07135524 106.67016602 52.95336914 C108.93064832 51.65530627 111.19104906 50.35710165 113.45141602 49.05883789 C114.43174805 48.49704834 115.41208008 47.93525879 116.42211914 47.35644531 C118.24139939 46.30344151 120.0355238 45.20561987 121.80004883 44.06323242 C124.66410456 42.49549528 126.70858894 42.52253762 129.89868164 43.07983398 C134.60599316 44.50153921 138.71415065 47.08127022 142.92016602 49.57836914 C143.915 50.1571582 144.90983398 50.73594727 145.93481445 51.33227539 C147.99608954 52.53517617 150.0536952 53.7443859 152.10766602 54.9597168 C155.06381476 56.70314699 158.03600645 58.41541246 161.01391602 60.12133789 C162.81675513 61.16821451 164.61887285 62.21633473 166.42016602 63.26586914 C167.67845215 63.98480347 167.67845215 63.98480347 168.9621582 64.71826172 C169.73720703 65.17740967 170.51225586 65.63655762 171.31079102 66.10961914 C171.98658203 66.50342773 172.66237305 66.89723633 173.35864258 67.30297852 C176.50440097 69.8433268 177.97516961 72.08806854 178.45071411 76.17977905 C178.58519368 79.2633719 178.6120512 82.33167847 178.60375977 85.41821289 C178.60900162 86.55110245 178.61424347 87.683992 178.61964417 88.85121155 C178.6260603 91.24422385 178.62473269 93.63726771 178.61621094 96.03027344 C178.60770444 99.6868521 178.63646498 103.34186675 178.66821289 106.99829102 C178.66982512 109.32576451 178.66924695 111.65324076 178.66625977 113.98071289 C178.67749374 115.07149643 178.68872772 116.16227997 178.70030212 117.28611755 C178.64570811 123.24829362 178.42232828 127.20247489 174.17016602 131.76586914 C171.51293945 133.73217773 171.51293945 133.73217773 168.52954102 135.41430664 C167.45961914 136.02661133 166.38969727 136.63891602 165.28735352 137.26977539 C164.17618164 137.88723633 163.06500977 138.50469727 161.92016602 139.14086914 C160.79352539 139.7815332 159.66688477 140.42219727 158.50610352 141.08227539 C155.73427562 142.65610987 152.95581082 144.21666412 150.17016602 145.76586914 C151.4770794 153.96354048 153.02916025 162.0602158 154.84594727 170.15844727 C155.70358865 174.09521467 156.41612146 177.70760425 156.17016602 181.76586914 C157.49016602 182.09586914 158.81016602 182.42586914 160.17016602 182.76586914 C159.13633789 182.93602539 158.10250977 183.10618164 157.03735352 183.28149414 C150.21002309 184.99358316 144.30805845 188.97924542 138.29516602 192.51586914 C137.06781258 193.22768871 135.83995077 193.93863248 134.61157227 194.64868164 C132.22753248 196.02955021 129.84908244 197.41927744 127.47583008 198.81860352 C125.38933212 200.04769567 123.29811983 201.26885139 121.20043945 202.47875977 C120.32162109 202.99116211 119.44280273 203.50356445 118.53735352 204.03149414 C117.78309082 204.46751953 117.02882813 204.90354492 116.25170898 205.3527832 C113.8383273 206.99114271 112.04793221 208.52076795 110.17016602 210.76586914 C109.64767889 213.41514475 109.64767889 213.41514475 109.84301758 216.34130859 C109.86914124 217.45959549 109.89526489 218.57788239 109.92218018 219.73005676 C109.96792175 220.93425766 110.01366333 222.13845856 110.06079102 223.37915039 C110.11138299 225.93186295 110.16082633 228.48459849 110.20922852 231.03735352 C110.30846186 235.06047964 110.41857541 239.08244519 110.55395508 243.10449219 C110.67497306 246.9877876 110.74591321 250.86956796 110.81079102 254.75415039 C110.86462952 255.95227859 110.91846802 257.1504068 110.97393799 258.38484192 C111.07213279 266.5785834 111.07213279 266.5785834 108.45196533 270.02758789 C106.43989971 271.79691039 104.39634172 273.28094124 102.17016602 274.76586914 C101.13433063 275.68899152 100.11655582 276.63302654 99.12329102 277.60180664 C97.78524414 278.85864258 97.78524414 278.85864258 96.42016602 280.14086914 C95.51782227 280.99422852 94.61547852 281.84758789 93.68579102 282.72680664 C91.25953839 284.69342755 90.1144299 285.17061918 87.17016602 285.76586914 C84.28701416 280.4676942 81.44067328 275.15185492 78.62524414 269.81738281 C77.66482146 268.00949992 76.6949357 266.20660856 75.71508789 264.40917969 C69.98610419 253.88363362 65.80641295 245.97290642 67.17016602 233.76586914 C67.30893772 230.96014601 67.40392277 228.15436913 67.49926758 225.34684753 C67.68269817 220.04731981 67.93308405 214.75071912 68.17016602 209.45336914 C68.26677851 207.24830232 68.36313479 205.04322426 68.45922852 202.83813477 C68.69325316 197.48057967 68.93044281 192.12317212 69.17016602 186.76586914 C69.79157471 186.50612305 70.4129834 186.24637695 71.05322266 185.97875977 C71.86654053 185.63006836 72.6798584 185.28137695 73.51782227 184.92211914 C74.32485596 184.57987305 75.13188965 184.23762695 75.96337891 183.88500977 C80.2294847 181.72151503 82.29607571 178.00569422 84.17016602 173.76586914 C85.47581855 166.70007838 85.44117997 159.306453 85.54516602 152.14086914 C85.58254883 151.15602539 85.61993164 150.17118164 85.65844727 149.15649414 C85.73829717 142.5023354 84.7153203 137.79756224 80.17016602 132.76586914 C75.59178583 129.3106189 70.93375912 127.70646397 65.25683594 127.37695312 C63.74925217 127.28704102 63.74925217 127.28704102 62.21121216 127.1953125 C61.11872162 127.13480713 60.02623108 127.07430176 58.90063477 127.01196289 C57.76399384 126.94638184 56.62735291 126.88080078 55.45626831 126.81323242 C26.36041782 125.11555277 26.36041782 125.11555277 -2.76733398 124.20336914 C-3.9162915 124.1646167 -5.06524902 124.12586426 -6.24902344 124.0859375 C-12.66177251 124.06272974 -16.39114816 125.01691733 -21.31469727 129.21679688 C-28.05865829 136.11180698 -27.04632695 144.51386661 -27.07006836 153.51977539 C-27.07980164 155.75843073 -27.11086205 157.9961779 -27.14233398 160.23461914 C-27.14886221 161.66169705 -27.15411339 163.08878148 -27.15795898 164.51586914 C-27.17197754 166.45719727 -27.17197754 166.45719727 -27.1862793 168.43774414 C-26.80803519 171.96940415 -26.12705444 173.16993421 -23.82983398 175.76586914 C-23.82983398 176.42586914 -23.82983398 177.08586914 -23.82983398 177.76586914 C-23.27295898 178.03399414 -22.71608398 178.30211914 -22.14233398 178.57836914 C-21.37920898 178.97024414 -20.61608398 179.36211914 -19.82983398 179.76586914 C-18.96479248 180.17160156 -18.09975098 180.57733398 -17.20849609 180.99536133 C-14.82983398 182.76586914 -14.82983398 182.76586914 -14.30859375 185.2434082 C-14.35814209 186.24597656 -14.40769043 187.24854492 -14.45874023 188.28149414 C-14.50401855 189.44358398 -14.54929687 190.60567383 -14.59594727 191.80297852 C-14.71172119 193.76460938 -14.71172119 193.76460938 -14.82983398 195.76586914 C-14.89571806 197.22735822 -14.95927007 198.68895388 -15.02075195 200.15063477 C-15.19551981 204.12227779 -15.40570692 208.09113886 -15.62939453 212.06030273 C-15.76788794 214.52573056 -15.89982408 216.99144881 -16.03100586 219.45727539 C-16.11851049 221.05495283 -16.20638807 222.65260989 -16.29467773 224.25024414 C-16.33326401 224.9723407 -16.37185028 225.69443726 -16.41160583 226.43841553 C-17.29641694 241.8943499 -17.29641694 241.8943499 -19.93920898 245.89868164 C-20.57729492 246.89061523 -20.57729492 246.89061523 -21.22827148 247.90258789 C-21.67428711 248.5587207 -22.12030273 249.21485352 -22.57983398 249.89086914 C-23.01038086 250.55473633 -23.44092773 251.21860352 -23.88452148 251.90258789 C-26.74424267 256.27779007 -29.77033976 260.5287998 -32.82983398 264.76586914 C-33.09272217 264.16250732 -33.35561035 263.55914551 -33.62646484 262.9375 C-37.96607873 255.10612131 -49.2011865 250.9562946 -56.76733398 246.70336914 C-58.00394368 246.00269398 -59.24027359 245.30152478 -60.47631836 244.59985352 C-62.8500598 243.253702 -65.2267781 241.9130928 -67.60668945 240.57788086 C-69.5998452 239.45735352 -71.58926356 238.33011313 -73.57250977 237.19213867 C-74.75369385 236.51900635 -74.75369385 236.51900635 -75.95874023 235.83227539 C-76.62075439 235.45143799 -77.28276855 235.07060059 -77.96484375 234.67822266 C-79.90221515 233.73046026 -81.72448653 233.20997729 -83.82983398 232.76586914 C-86.02194602 224.20730407 -88.13330464 215.63394235 -90.07983398 207.01586914 C-90.25482422 206.25419434 -90.42981445 205.49251953 -90.61010742 204.70776367 C-91.37464292 201.27966035 -91.82983398 198.29794291 -91.82983398 194.76586914 C-93.40571289 195.74040039 -93.40571289 195.74040039 -95.01342773 196.73461914 C-96.4307825 197.57940013 -97.8487865 198.42309249 -99.26733398 199.26586914 C-100.29890625 199.90975586 -100.29890625 199.90975586 -101.35131836 200.56665039 C-106.51714243 203.59406357 -110.86888087 205.17264238 -116.82983398 203.76586914 C-121.26588832 201.81309558 -125.33117559 199.36547305 -129.45483398 196.82836914 C-130.60951378 196.13553678 -131.7652022 195.44438274 -132.921875 194.75488281 C-135.19627965 193.39543193 -137.46233749 192.02453527 -139.72583008 190.64672852 C-142.38587457 189.03488466 -145.0603461 187.45836756 -147.75561523 185.90649414 C-158.39197062 179.73552941 -158.39197062 179.73552941 -160.82983398 175.76586914 C-161.23770142 173.275177 -161.23770142 173.275177 -161.28149414 170.44995117 C-161.30386139 169.38849884 -161.32622864 168.32704651 -161.34927368 167.23342896 C-161.35574921 166.09171234 -161.36222473 164.94999573 -161.36889648 163.77368164 C-161.38743179 162.00563675 -161.38743179 162.00563675 -161.40634155 160.20187378 C-161.42590929 157.70877041 -161.43714014 155.21558976 -161.44067383 152.72241211 C-161.45475823 148.91136628 -161.52209385 145.10359917 -161.59155273 141.29321289 C-161.60395127 138.87005038 -161.61317084 136.4468691 -161.61889648 134.02368164 C-161.65897324 132.31717941 -161.65897324 132.31717941 -161.69985962 130.57620239 C-161.63395581 122.88923721 -161.63395581 122.88923721 -159.41719055 119.79238892 C-157.63722113 118.21281744 -155.87504067 116.97763586 -153.82983398 115.76586914 C-152.88358154 115.15888184 -151.9373291 114.55189453 -150.96240234 113.92651367 C-149.58000366 113.17023682 -149.58000366 113.17023682 -148.16967773 112.39868164 C-147.13496338 111.82649902 -146.10024902 111.25431641 -145.03417969 110.66479492 C-143.95612061 110.07939941 -142.87806152 109.49400391 -141.76733398 108.89086914 C-139.52989433 107.66254089 -137.29291201 106.43337921 -135.05639648 105.20336914 C-133.44812988 104.32165039 -133.44812988 104.32165039 -131.80737305 103.42211914 C-129.27484612 102.01340623 -126.77515738 100.56969111 -124.29077148 99.07836914 C-123.65792236 98.7005127 -123.02507324 98.32265625 -122.37304688 97.93334961 C-120.77674715 96.97183179 -119.18770235 95.99829671 -117.59936523 95.02368164 C-114.31199655 93.53068768 -112.41991537 93.45766999 -108.82983398 93.76586914 C-105.91723633 95.08276367 -105.91723633 95.08276367 -102.91577148 96.89868164 C-101.82522461 97.5393457 -100.73467773 98.18000977 -99.61108398 98.84008789 C-97.90061351 99.86990096 -96.19016633 100.89976707 -94.4831543 101.93530273 C-92.82278784 102.93636415 -91.15066055 103.91783734 -89.47827148 104.89868164 C-88.49004395 105.49567871 -87.50181641 106.09267578 -86.48364258 106.70776367 C-83.91686651 108.05981158 -83.91686651 108.05981158 -81.58642578 107.03100586 C-79.7182884 105.68553152 -77.98066311 104.30527501 -76.26733398 102.76586914 C-75.57768555 102.14969727 -74.88803711 101.53352539 -74.17749023 100.89868164 C-70.57946672 97.62992816 -66.98729791 94.35477225 -63.39624023 91.07836914 C-60.59988833 88.55867306 -57.75307408 86.13606381 -54.82983398 83.76586914 C-54.99085602 83.20983002 -55.15187805 82.65379089 -55.31777954 82.0809021 C-55.87328676 79.56941621 -55.98508318 77.2968586 -56.02270508 74.7253418 C-56.03876801 73.72395172 -56.05483093 72.72256165 -56.07138062 71.69082642 C-56.11599814 67.12860961 -56.15687041 62.56653432 -56.17993164 58.00415039 C-56.1965092 55.59877866 -56.2238225 53.19345654 -56.26196289 50.78833008 C-56.3167336 47.3144382 -56.33860419 43.84169713 -56.35327148 40.36743164 C-56.37594086 39.29538483 -56.39861023 38.22333801 -56.42196655 37.11880493 C-56.39839892 28.78593817 -56.39839892 28.78593817 -53.65454102 25.26489258 C-50.89952742 22.82752705 -48.32095021 20.96793898 -45.11108398 19.17993164 C-44.01932861 18.56263184 -42.92757324 17.94533203 -41.80273438 17.30932617 C-40.65667725 16.67623535 -39.51062012 16.04314453 -38.32983398 15.39086914 C-36.56308445 14.39834065 -34.798696 13.40170565 -33.03443909 12.40475464 C-31.32544296 11.43949566 -29.61452015 10.47765043 -27.90356445 9.51586914 C-23.20013482 6.838015 -18.61945583 3.98843488 -14.05249023 1.08618164 C-9.34199409 -1.71196897 -5.05020551 -2.20246647 0 0 Z " fill="#082C76" transform="translate(296.829833984375,94.234130859375)"/>
<path d="M0 0 C3.30338171 -0.01289929 6.60675679 -0.02054463 9.91015625 -0.02734375 C10.83268188 -0.03100952 11.75520752 -0.03467529 12.70568848 -0.03845215 C23.18201467 -0.05455895 33.66152021 0.21223826 44 2 C44.13842911 14.02122245 43.72854075 25.93980291 43 37.9375 C42.85520189 40.35946712 42.71193864 42.78149641 42.57202148 45.20375061 C42.48597929 46.68995972 42.39721279 48.17601521 42.30493164 49.66184998 C42.22384172 51.04936251 42.1542218 52.43759157 42.09591675 53.82624817 C42.02865341 55.35063063 41.93017227 56.87380429 41.80862427 58.39482117 C41.44900202 65.39472426 43.3875784 70.05908493 46.6796875 76.15234375 C47.40987595 77.56175987 47.40987595 77.56175987 48.15481567 78.99964905 C49.70933387 81.98925592 51.29141922 84.96320426 52.875 87.9375 C53.90029874 89.89811633 54.92375175 91.85969905 55.9453125 93.82226562 C58.46267165 98.64714938 61.00233683 103.45981292 63.55169678 108.26785278 C65.77053726 112.45357767 67.98003276 116.64420574 70.1875 120.8359375 C70.59329285 121.6063739 70.99908569 122.3768103 71.41717529 123.17059326 C75.32216244 130.59469304 79.1728771 138.04631965 83.00537109 145.50805664 C84.13112947 147.69943148 85.25884037 149.88979381 86.38671875 152.08007812 C91.32765957 161.68562109 96.18858308 171.32897551 101 181 C101.33 181.66 101.66 182.32 102 183 C102.68250229 190.89912487 102.59772322 197.38413424 98 204 C97.29875 205.051875 96.5975 206.10375 95.875 207.1875 C91.91104128 211.6115307 86.16016214 214.50521941 80.32596397 215.41866875 C77.49698776 215.53052709 74.71639735 215.48950435 71.88745117 215.37866211 C70.84774013 215.35783286 69.80802908 215.33700361 68.73681164 215.31554317 C65.48947827 215.2406388 62.24573413 215.1256534 59 215 C58.00179356 214.96579578 57.00358711 214.93159157 55.97513199 214.89635086 C48.91307513 214.64964906 41.85765172 214.30477434 34.80078125 213.94140625 C32.57938402 213.83123473 30.35796312 213.7215396 28.13652039 213.61228943 C23.53231352 213.38467794 18.92831907 213.15329749 14.32446289 212.91870117 C8.45712061 212.61975962 2.58946627 212.32759736 -3.27833843 212.03788853 C-8.93958273 211.75807275 -14.60065483 211.47484374 -20.26171875 211.19140625 C-21.32015173 211.13870638 -22.37858471 211.08600651 -23.46909142 211.03170967 C-29.98045643 210.70618935 -36.49087263 210.36770884 -43 210 C-44.06479269 209.94042681 -44.06479269 209.94042681 -45.15109634 209.87965012 C-46.97083044 209.77383822 -48.78979225 209.65496136 -50.60864258 209.53491211 C-51.55201981 209.47315292 -52.49539703 209.41139374 -53.46736145 209.34776306 C-60.2999737 208.40955964 -65.64703596 205.32028938 -70 200 C-73.89946157 194.35021193 -76.16033983 189.98779582 -76.4375 183 C-76.49808594 181.948125 -76.55867187 180.89625 -76.62109375 179.8125 C-75.13996417 170.72078635 -68.66923399 162.73987652 -63.5625 155.25 C-62.32188083 153.40955199 -61.08233484 151.56838019 -59.84375 149.7265625 C-58.89242187 148.31358887 -58.89242187 148.31358887 -57.921875 146.87207031 C-54.76164535 142.14938972 -51.66083973 137.38842835 -48.5625 132.625 C-47.94060791 131.66948242 -47.31871582 130.71396484 -46.67797852 129.72949219 C-45.41538075 127.78893822 -44.15309266 125.84818273 -42.89111328 123.90722656 C-39.76528226 119.10185658 -36.63225534 114.30118378 -33.5 109.5 C-32.26040194 107.59896793 -31.02081865 105.69792624 -29.78125 103.796875 C-27.17875339 99.8061991 -24.57431497 95.81679815 -21.96875 91.828125 C-21.30423828 90.81041016 -20.63972656 89.79269531 -19.95507812 88.74414062 C-18.69908454 86.82062597 -17.44261455 84.89742226 -16.18554688 82.97460938 C-14.45225302 80.31947432 -12.72471629 77.66071401 -11 75 C-10.35417969 74.00677734 -9.70835937 73.01355469 -9.04296875 71.99023438 C-8.41003906 71.00861328 -7.77710938 70.02699219 -7.125 69.015625 C-6.55007813 68.12649414 -5.97515625 67.23736328 -5.3828125 66.32128906 C-3.12445525 62.53024726 -2.81664362 59.39444162 -2.61108398 55.05981445 C-2.55109726 53.83877518 -2.49111053 52.6177359 -2.42930603 51.35969543 C-2.36814439 50.02756154 -2.30707582 48.69542337 -2.24609375 47.36328125 C-2.18063324 45.99991602 -2.11479668 44.63656879 -2.04859924 43.27323914 C-1.87552348 39.68790516 -1.70755719 36.10234934 -1.54064941 32.51672363 C-1.36937423 28.8567047 -1.19327396 25.19691829 -1.01757812 21.53710938 C-0.67365937 14.35829193 -0.33513746 7.17923332 0 0 Z " fill="#D1DBFC" transform="translate(302,279)"/>
<path d="M0 0 C5.09762698 0.60010874 9.80297571 1.71887377 14.6875 3.3125 C15.377229 3.53325195 16.06695801 3.75400391 16.77758789 3.98144531 C18.85372016 4.64830236 20.92698739 5.3235169 23 6 C24.21171875 6.39058594 25.4234375 6.78117188 26.671875 7.18359375 C34.8562389 9.8562389 34.8562389 9.8562389 36 11 C36.09824045 13.46058059 36.13712756 15.89820606 36.140625 18.359375 C36.1589599 19.88282737 36.17853084 21.40626527 36.19921875 22.9296875 C36.22814765 25.33716046 36.24999872 27.74370936 36.25048828 30.15136719 C36.25383147 32.47154164 36.28843651 34.78957364 36.328125 37.109375 C36.31752045 38.18152252 36.31752045 38.18152252 36.30670166 39.27532959 C36.39862658 43.06703503 36.85562912 44.81995108 39.25244141 47.80908203 C41.66037423 49.72918059 43.97152684 51.40456817 46.6328125 52.9453125 C47.95236938 53.7172998 47.95236938 53.7172998 49.29858398 54.50488281 C50.23130127 55.03952148 51.16401855 55.57416016 52.125 56.125 C53.09187744 56.68541992 54.05875488 57.24583984 55.05493164 57.82324219 C57.05254083 58.98077503 59.05165731 60.13571044 61.05224609 61.28808594 C63.85993862 62.91865907 66.64553512 64.58096856 69.42578125 66.2578125 C70.27188965 66.76296387 71.11799805 67.26811523 71.98974609 67.78857422 C73.57959578 68.73779028 75.16486692 69.69473292 76.74462891 70.66064453 C77.4669873 71.08716309 78.1893457 71.51368164 78.93359375 71.953125 C79.55290771 72.32598633 80.17222168 72.69884766 80.81030273 73.08300781 C83.81054338 74.33943594 86.78392231 74.63134243 90 75 C90.83900993 79.00128469 91.67508187 83.00317135 92.50854492 87.00561523 C92.79193572 88.36450395 93.07610101 89.72323141 93.36108398 91.08178711 C93.77275488 93.04497424 94.18132453 95.00881087 94.58984375 96.97265625 C94.83597412 98.15093994 95.08210449 99.32922363 95.33569336 100.54321289 C96.0035754 104.01860494 96.52810486 107.49309459 97 111 C96.29391602 111.4031543 95.58783203 111.80630859 94.86035156 112.22167969 C91.65308062 114.0578713 88.45152586 115.90381117 85.25 117.75 C84.13882813 118.38421875 83.02765625 119.0184375 81.8828125 119.671875 C80.81289063 120.290625 79.74296875 120.909375 78.640625 121.546875 C77.65610352 122.11245117 76.67158203 122.67802734 75.65722656 123.26074219 C72.97325304 125.01750692 71.04513472 126.52982769 69 129 C68.47751287 131.64927561 68.47751287 131.64927561 68.67285156 134.57543945 C68.69897522 135.69372635 68.72509888 136.81201324 68.75201416 137.96418762 C68.79775574 139.16838852 68.84349731 140.37258942 68.890625 141.61328125 C68.94121697 144.16599381 68.99066031 146.71872935 69.0390625 149.27148438 C69.13829584 153.2946105 69.24840939 157.31657605 69.38378906 161.33862305 C69.50480704 165.22191846 69.57574719 169.10369882 69.640625 172.98828125 C69.6944635 174.18640945 69.748302 175.38453766 69.80377197 176.61897278 C69.90196677 184.81271426 69.90196677 184.81271426 67.28179932 188.26171875 C65.2697337 190.03104125 63.2261757 191.5150721 61 193 C59.96416462 193.92312238 58.94638981 194.8671574 57.953125 195.8359375 C56.61507812 197.09277344 56.61507812 197.09277344 55.25 198.375 C53.89648438 199.65503906 53.89648438 199.65503906 52.515625 200.9609375 C50.08937238 202.92755841 48.94426389 203.40475004 46 204 C43.11684814 198.70182506 40.27050726 193.38598578 37.45507812 188.05151367 C36.49465545 186.24363078 35.52476968 184.44073942 34.54492188 182.64331055 C28.81593818 172.11776448 24.63624694 164.20703728 26 152 C26.1387717 149.19427687 26.23375675 146.38849999 26.32910156 143.58097839 C26.51253215 138.28145067 26.76291803 132.98484998 27 127.6875 C27.0966125 125.48243318 27.19296878 123.27735512 27.2890625 121.07226562 C27.52308714 115.71471053 27.76027679 110.35730298 28 105 C28.62140869 104.74025391 29.24281738 104.48050781 29.88305664 104.21289062 C30.69637451 103.86419922 31.50969238 103.51550781 32.34765625 103.15625 C33.15468994 102.81400391 33.96172363 102.47175781 34.79321289 102.11914062 C39.05931868 99.95564589 41.12590969 96.23982508 43 92 C44.30565253 84.93420924 44.27101395 77.54058386 44.375 70.375 C44.41238281 69.39015625 44.44976562 68.4053125 44.48828125 67.390625 C44.56813115 60.73646625 43.54515429 56.0316931 39 51 C34.42161981 47.54474976 29.7635931 45.94059483 24.08666992 45.61108398 C23.08161407 45.55114258 22.07655823 45.49120117 21.04104614 45.42944336 C19.9485556 45.36893799 18.85606506 45.30843262 17.73046875 45.24609375 C16.59382782 45.1805127 15.45718689 45.11493164 14.28610229 45.04736328 C-14.8097482 43.34968363 -14.8097482 43.34968363 -43.9375 42.4375 C-45.66093628 42.37937134 -45.66093628 42.37937134 -47.41918945 42.32006836 C-53.83193853 42.2968606 -57.56131418 43.25104819 -62.48486328 47.45092773 C-69.2288243 54.34593783 -68.21649296 62.74799747 -68.24023438 71.75390625 C-68.24996766 73.99256159 -68.28102807 76.23030876 -68.3125 78.46875 C-68.31902822 79.89582791 -68.32427941 81.32291234 -68.328125 82.75 C-68.3374707 84.04421875 -68.34681641 85.3384375 -68.35644531 86.671875 C-67.97820121 90.20353501 -67.29722046 91.40406507 -65 94 C-65 94.66 -65 95.32 -65 96 C-64.443125 96.268125 -63.88625 96.53625 -63.3125 96.8125 C-62.549375 97.204375 -61.78625 97.59625 -61 98 C-60.1349585 98.40573242 -59.26991699 98.81146484 -58.37866211 99.22949219 C-56 101 -56 101 -55.47875977 103.47753906 C-55.55308228 104.9813916 -55.55308228 104.9813916 -55.62890625 106.515625 C-55.67418457 107.67771484 -55.71946289 108.83980469 -55.76611328 110.03710938 C-55.88188721 111.99874023 -55.88188721 111.99874023 -56 114 C-56.06588408 115.46148908 -56.12943609 116.92308474 -56.19091797 118.38476562 C-56.36568583 122.35640865 -56.57587293 126.32526972 -56.79956055 130.29443359 C-56.93805396 132.75986142 -57.0699901 135.22557967 -57.20117188 137.69140625 C-57.2886765 139.28908369 -57.37655409 140.88674075 -57.46484375 142.484375 C-57.52272316 143.56751984 -57.52272316 143.56751984 -57.58177185 144.67254639 C-58.46658296 160.12848076 -58.46658296 160.12848076 -61.109375 164.1328125 C-61.53476562 164.79410156 -61.96015625 165.45539063 -62.3984375 166.13671875 C-62.84445312 166.79285156 -63.29046875 167.44898438 -63.75 168.125 C-64.18054688 168.78886719 -64.61109375 169.45273437 -65.0546875 170.13671875 C-67.91440869 174.51192093 -70.94050578 178.76293066 -74 183 C-74.26288818 182.39663818 -74.52577637 181.79327637 -74.79663086 181.17163086 C-79.13624475 173.34025217 -90.37135251 169.19042546 -97.9375 164.9375 C-99.1741097 164.23682484 -100.41043961 163.53565564 -101.64648438 162.83398438 C-104.02022581 161.48783286 -106.39694411 160.14722366 -108.77685547 158.81201172 C-110.77001122 157.69148438 -112.75942958 156.56424398 -114.74267578 155.42626953 C-115.53013184 154.97751465 -116.31758789 154.52875977 -117.12890625 154.06640625 C-117.79092041 153.68556885 -118.45293457 153.30473145 -119.13500977 152.91235352 C-121.07238117 151.96459112 -122.89465255 151.44410815 -125 151 C-127.18696592 142.46152666 -129.29738857 133.90788841 -131.25 125.3125 C-131.42499023 124.5592041 -131.59998047 123.8059082 -131.78027344 123.02978516 C-132.62299667 119.26805178 -133.07813322 115.84473612 -133 112 C-132.3294458 111.63237549 -131.6588916 111.26475098 -130.96801758 110.88598633 C-127.91123469 109.20363241 -124.86188272 107.50822752 -121.8125 105.8125 C-120.75740234 105.23435547 -119.70230469 104.65621094 -118.61523438 104.06054688 C-117.59365234 103.49013672 -116.57207031 102.91972656 -115.51953125 102.33203125 C-114.11344604 101.55436401 -114.11344604 101.55436401 -112.67895508 100.76098633 C-108.34697595 97.92515108 -108.34697595 97.92515108 -105 94 C-104.39530249 89.83282541 -104.61099641 85.73999724 -104.79296875 81.54296875 C-104.84646642 79.04363601 -104.89917622 76.54428631 -104.95117188 74.04492188 C-105.06288989 70.11416647 -105.18760978 66.1844458 -105.32885742 62.25463867 C-105.45598371 58.45492202 -105.53324244 54.65656865 -105.60546875 50.85546875 C-105.66244431 49.68751266 -105.71941986 48.51955658 -105.77812195 47.31620789 C-105.89951376 39.30869285 -105.89951376 39.30869285 -103.31314087 35.54580688 C-101.30432963 33.5125763 -99.2569235 31.74988263 -97 30 C-95.70338066 28.8597741 -94.41096425 27.71472947 -93.125 26.5625 C-92.47273438 26.00433594 -91.82046875 25.44617188 -91.1484375 24.87109375 C-89.54525897 23.47487099 -87.97160201 22.04461516 -86.4140625 20.59765625 C-85.53492188 19.78167969 -84.65578125 18.96570313 -83.75 18.125 C-82.94046875 17.36445313 -82.1309375 16.60390625 -81.296875 15.8203125 C-78.94691693 13.95793076 -77.93362599 13.29419084 -75 13 C-72.66918945 14.06396484 -72.66918945 14.06396484 -70.11328125 15.7109375 C-69.17419922 16.29617187 -68.23511719 16.88140625 -67.26757812 17.484375 C-65.31492837 18.73365786 -63.36436345 19.98620603 -61.41601562 21.2421875 C-53.29799874 26.47628139 -53.29799874 26.47628139 -44 27 C-39.18573263 24.97177582 -34.81335351 22.34907429 -30.375 19.625 C-29.12708824 18.88129522 -27.877976 18.13960117 -26.62768555 17.39990234 C-24.18033096 15.94714355 -21.74119822 14.48203042 -19.30908203 13.00390625 C-16.51068584 11.30925995 -13.69955329 9.64371293 -10.87109375 8 C-4.5416648 4.89769343 -4.5416648 4.89769343 0 0 Z " fill="#FDFDFE" transform="translate(338,176)"/>
<path d="M0 0 C4.70731152 1.42170522 8.81546901 4.00143623 13.02148438 6.49853516 C14.01631836 7.07732422 15.01115234 7.65611328 16.03613281 8.25244141 C18.0974079 9.45534219 20.15501356 10.66455191 22.20898438 11.87988281 C25.16513312 13.62331301 28.13732481 15.33557847 31.11523438 17.04150391 C32.91807349 18.08838053 34.72019121 19.13650075 36.52148438 20.18603516 C37.3603418 20.66532471 38.19919922 21.14461426 39.06347656 21.63842773 C40.2260498 22.32714966 40.2260498 22.32714966 41.41210938 23.02978516 C42.08790039 23.42359375 42.76369141 23.81740234 43.45996094 24.22314453 C46.60571932 26.76349281 48.07648797 29.00823455 48.55203247 33.09994507 C48.68651204 36.18353792 48.71336956 39.25184448 48.70507812 42.33837891 C48.71031998 43.47126846 48.71556183 44.60415802 48.72096252 45.77137756 C48.72737866 48.16438987 48.72605105 50.55743372 48.7175293 52.95043945 C48.7090228 56.60701811 48.73778334 60.26203276 48.76953125 63.91845703 C48.77114348 66.24593052 48.77056531 68.57340677 48.76757812 70.90087891 C48.7788121 71.99166245 48.79004608 73.08244598 48.80162048 74.20628357 C48.74702647 80.16845963 48.52364664 84.12264091 44.27148438 88.68603516 C41.61425781 90.65234375 41.61425781 90.65234375 38.63085938 92.33447266 C37.5609375 92.94677734 36.49101562 93.55908203 35.38867188 94.18994141 C34.2775 94.80740234 33.16632813 95.42486328 32.02148438 96.06103516 C30.89484375 96.70169922 29.76820313 97.34236328 28.60742188 98.00244141 C25.83559398 99.57627589 23.05712918 101.13683014 20.27148438 102.68603516 C21.57839775 110.8837065 23.13047861 118.98038182 24.94726562 127.07861328 C25.80490701 131.01538069 26.51743982 134.62777027 26.27148438 138.68603516 C27.59148437 139.01603516 28.91148437 139.34603516 30.27148438 139.68603516 C29.19898438 139.87166016 28.12648438 140.05728516 27.02148438 140.24853516 C21.71857546 141.53149699 17.40815478 144.3734168 12.81054688 147.22509766 C10.27148438 148.68603516 10.27148438 148.68603516 8.27148438 148.68603516 C0.9407106 122.45154018 0.9407106 122.45154018 1.27148438 113.68603516 C0.24531006 113.75097168 -0.78086426 113.8159082 -1.83813477 113.8828125 C-6.1763874 113.66338159 -8.25755235 112.71729078 -11.97460938 110.53759766 C-12.54357941 110.20925934 -13.11254944 109.88092102 -13.69876099 109.54263306 C-15.5303456 108.48029464 -17.34815856 107.39666779 -19.16601562 106.31103516 C-20.4225271 105.57406225 -21.6796103 104.83806326 -22.93725586 104.10302734 C-26.54742827 101.98556035 -30.13889218 99.83814976 -33.72851562 97.68603516 C-34.65825195 97.13334961 -35.58798828 96.58066406 -36.54589844 96.01123047 C-38.80252408 94.66581439 -41.0498696 93.30704487 -43.29101562 91.93603516 C-43.91999756 91.55527832 -44.54897949 91.17452148 -45.19702148 90.78222656 C-48.44731841 88.7437096 -50.8140963 87.02145256 -52.72851562 83.68603516 C-53.05279912 81.00460803 -53.21651818 78.54155982 -53.24023438 75.85791016 C-53.25818558 75.10890442 -53.27613678 74.35989868 -53.29463196 73.5881958 C-53.34866105 71.20419891 -53.38260566 68.82040136 -53.41601562 66.43603516 C-53.44919538 64.8162158 -53.48368566 63.19642271 -53.51953125 61.57666016 C-53.60438278 57.6132625 -53.67122852 53.64992319 -53.72851562 49.68603516 C-65.02381605 45.88622625 -76.31674604 42.12331515 -87.72851562 38.68603516 C-87.39851563 31.42603516 -87.06851562 24.16603516 -86.72851562 16.68603516 C-76.35351562 19.99853516 -76.35351562 19.99853516 -73.14892578 21.02319336 C-71.29956071 21.61259483 -69.4486678 22.19721338 -67.59667969 22.77832031 C-65.70791395 23.37607576 -63.82416852 23.9899707 -61.94628906 24.62109375 C-61.0777832 24.9042041 -60.20927734 25.18731445 -59.31445312 25.47900391 C-58.5492334 25.73576904 -57.78401367 25.99253418 -56.99560547 26.25708008 C-52.01700316 27.19907924 -48.61768281 25.21748119 -44.54101562 22.56103516 C-37.56573947 18.11044049 -30.40299937 13.99152125 -23.22851562 9.87353516 C-20.96803332 8.57547229 -18.70763258 7.27726766 -16.44726562 5.97900391 C-15.46693359 5.41721436 -14.48660156 4.8554248 -13.4765625 4.27661133 C-11.65728225 3.22360752 -9.86315784 2.12578588 -8.09863281 0.98339844 C-5.23457708 -0.5843387 -3.1900927 -0.55729636 0 0 Z " fill="#6965F6" transform="translate(426.728515625,137.31396484375)"/>
<path d="M0 0 C4.15558558 1.7779441 7.9899958 4.01107828 11.875 6.3125 C12.96820557 6.94389893 14.06141113 7.57529785 15.18774414 8.22583008 C18.47042207 10.13102637 21.73670204 12.06183536 25 14 C26.42723389 14.83869629 26.42723389 14.83869629 27.88330078 15.69433594 C30.40850236 17.18050553 32.92551739 18.67911351 35.4375 20.1875 C36.18177246 20.63198486 36.92604492 21.07646973 37.69287109 21.53442383 C40.8727844 23.48358591 42.90329423 24.85494134 45 28 C45.25396729 30.34593201 45.25396729 30.34593201 45.25878906 33.14233398 C45.26509338 34.19029648 45.27139771 35.23825897 45.27789307 36.31797791 C45.2738446 37.44925613 45.26979614 38.58053436 45.265625 39.74609375 C45.26753845 40.90875259 45.2694519 42.07141144 45.27142334 43.26930237 C45.27278522 45.7297487 45.26908862 48.19020221 45.26074219 50.65063477 C45.25005263 54.41894681 45.26063273 58.18678105 45.2734375 61.95507812 C45.27211572 64.34375105 45.26955293 66.73242368 45.265625 69.12109375 C45.26967346 70.25034775 45.27372192 71.37960175 45.27789307 72.54307556 C45.26843658 74.11974754 45.26843658 74.11974754 45.25878906 75.72827148 C45.25719788 76.65187973 45.25560669 77.57548798 45.25396729 78.52708435 C44.98213613 81.17394308 44.42466906 82.76540043 43 85 C40.62426758 86.68823242 40.62426758 86.68823242 37.64453125 88.35546875 C36.00786499 89.28335205 36.00786499 89.28335205 34.33813477 90.22998047 C33.1630059 90.88263594 31.98779281 91.5351398 30.8125 92.1875 C29.03084481 93.19138965 27.25124699 94.19886279 25.47166443 95.2064209 C24.29495565 95.87218326 23.11751774 96.53665857 21.93934631 97.1998291 C16.09855084 100.49086116 10.3748385 103.95733208 4.66015625 107.4609375 C0.2934401 109.9873489 -2.99723975 110.33449268 -8 110 C-10.91162109 108.78173828 -10.91162109 108.78173828 -13.7734375 107.0703125 C-14.83820313 106.44423096 -15.90296875 105.81814941 -17 105.1730957 C-18.11375 104.49722412 -19.2275 103.82135254 -20.375 103.125 C-21.53308172 102.43514368 -22.69194237 101.74659334 -23.8515625 101.05932617 C-26.16014587 99.68903625 -28.46337906 98.31088507 -30.76464844 96.92822266 C-33.62886311 95.22119221 -36.51047988 93.55680404 -39.4140625 91.91796875 C-40.19990723 91.47114746 -40.98575195 91.02432617 -41.79541016 90.56396484 C-43.22626524 89.75172086 -44.66066099 88.94567102 -46.09912109 88.14697266 C-49.59651799 86.1301075 -51.56832611 84.78610933 -53 81 C-53.27415466 78.5405426 -53.27415466 78.5405426 -53.30639648 75.76000977 C-53.32238388 74.71535049 -53.33837128 73.67069122 -53.35484314 72.59437561 C-53.36020584 71.47139572 -53.36556854 70.34841583 -53.37109375 69.19140625 C-53.38012222 68.03253403 -53.3891507 66.8736618 -53.39845276 65.67967224 C-53.41295662 63.22942693 -53.42184232 60.77914287 -53.42553711 58.32885742 C-53.43744472 54.57990426 -53.48664216 50.83259075 -53.53710938 47.08398438 C-53.54657226 44.70313303 -53.55380794 42.32227159 -53.55859375 39.94140625 C-53.57812607 38.82045059 -53.59765839 37.69949493 -53.61778259 36.54457092 C-53.57279422 28.78849317 -53.57279422 28.78849317 -50.78857422 24.95581055 C-48.16911554 23.11861186 -45.60013895 21.3571084 -42.82421875 19.765625 C-41.83873047 19.19537598 -40.85324219 18.62512695 -39.83789062 18.03759766 C-38.79826172 17.44769043 -37.75863281 16.8577832 -36.6875 16.25 C-35.08358398 15.33226807 -35.08358398 15.33226807 -33.44726562 14.39599609 C-31.29895256 13.16778885 -29.14907195 11.94231902 -26.99755859 10.71972656 C-24.35937103 9.20617442 -21.74744212 7.65907072 -19.14453125 6.0859375 C-18.43401611 5.6640918 -17.72350098 5.24224609 -16.99145508 4.80761719 C-15.71152577 4.04753658 -14.43849648 3.27564673 -13.17456055 2.48925781 C-8.82626894 -0.04576869 -4.91450162 -1.11722018 0 0 Z " fill="#062B75" transform="translate(459,277)"/>
<path d="M0 0 C2.69042969 1.1105957 2.69042969 1.1105957 5.421875 2.67578125 C6.94820557 3.53937256 6.94820557 3.53937256 8.50537109 4.42041016 C9.57609863 5.0447998 10.64682617 5.66918945 11.75 6.3125 C12.8529541 6.94462402 13.9559082 7.57674805 15.09228516 8.22802734 C18.404732 10.1356011 21.7040796 12.06403698 25 14 C25.94907227 14.55381348 26.89814453 15.10762695 27.87597656 15.67822266 C30.38379114 17.14732195 32.88195747 18.63099612 35.375 20.125 C36.11073242 20.56110596 36.84646484 20.99721191 37.60449219 21.4465332 C38.27899414 21.85863037 38.95349609 22.27072754 39.6484375 22.6953125 C40.51734619 23.2214917 40.51734619 23.2214917 41.40380859 23.75830078 C44.18531261 25.92207096 45.82864076 27.9314378 46.39440918 31.4594574 C46.40703796 32.83582115 46.40703796 32.83582115 46.41992188 34.23999023 C46.44378967 35.80697914 46.44378967 35.80697914 46.46813965 37.40562439 C46.46834106 38.52860428 46.46854248 39.65158417 46.46875 40.80859375 C46.48017029 42.54690208 46.48017029 42.54690208 46.49182129 44.32032776 C46.50262447 46.77057745 46.50547453 49.2208732 46.50097656 51.67114258 C46.50000448 55.42021465 46.54162281 59.16723919 46.5859375 62.91601562 C46.5911446 65.29687073 46.59383269 67.67773295 46.59375 70.05859375 C46.61014526 71.17954941 46.62654053 72.30050507 46.64343262 73.45542908 C46.57437687 81.23126328 46.57437687 81.23126328 43.6796875 85.10546875 C42.79539062 85.73066406 41.91109375 86.35585938 41 87 C40.40767578 87.42740479 39.81535156 87.85480957 39.20507812 88.29516602 C38.65271484 88.61155029 38.10035156 88.92793457 37.53125 89.25390625 C36.88744385 89.62781494 36.2436377 90.00172363 35.58032227 90.38696289 C34.89381592 90.77489014 34.20730957 91.16281738 33.5 91.5625 C32.77675537 91.97943115 32.05351074 92.3963623 31.30834961 92.82592773 C28.87658042 94.22501023 26.43825804 95.61226065 24 97 C22.09468034 98.0931023 20.18974399 99.18687293 18.28515625 100.28125 C-0.79688759 111.22983122 -0.79688759 111.22983122 -8 110 C-12.44912187 108.07936109 -16.50266445 105.59879002 -20.625 103.0625 C-21.77967979 102.36966764 -22.93536822 101.6785136 -24.09204102 100.98901367 C-26.36644566 99.62956279 -28.63250351 98.25866613 -30.89599609 96.88085938 C-33.55604058 95.26901552 -36.23051211 93.69249842 -38.92578125 92.140625 C-49.56213664 85.96966027 -49.56213664 85.96966027 -52 82 C-52.40786743 79.50930786 -52.40786743 79.50930786 -52.45166016 76.68408203 C-52.4740274 75.6226297 -52.49639465 74.56117737 -52.5194397 73.46755981 C-52.52591522 72.3258432 -52.53239075 71.18412659 -52.5390625 70.0078125 C-52.55141937 68.82911591 -52.56377625 67.65041931 -52.57650757 66.43600464 C-52.59607531 63.94290127 -52.60730616 61.44972062 -52.61083984 58.95654297 C-52.62492425 55.14549714 -52.69225987 51.33773003 -52.76171875 47.52734375 C-52.77411729 45.10418124 -52.78333686 42.68099996 -52.7890625 40.2578125 C-52.81578033 39.12014435 -52.84249817 37.9824762 -52.87002563 36.81033325 C-52.80412183 29.12336807 -52.80412183 29.12336807 -50.58735657 26.02651978 C-48.80738714 24.44694829 -47.04520668 23.21176672 -45 22 C-44.05374756 21.3930127 -43.10749512 20.78602539 -42.13256836 20.16064453 C-41.21096924 19.65645996 -40.28937012 19.15227539 -39.33984375 18.6328125 C-38.30512939 18.06062988 -37.27041504 17.48844727 -36.2043457 16.89892578 C-35.12628662 16.31353027 -34.04822754 15.72813477 -32.9375 15.125 C-30.70006035 13.89667175 -28.46307803 12.66751007 -26.2265625 11.4375 C-25.15438477 10.8496875 -24.08220703 10.261875 -22.97753906 9.65625 C-20.44501213 8.24753709 -17.9453234 6.80382197 -15.4609375 5.3125 C-14.82808838 4.93464355 -14.19523926 4.55678711 -13.54321289 4.16748047 C-11.94691316 3.20596265 -10.35786837 2.23242757 -8.76953125 1.2578125 C-5.50108831 -0.22658613 -3.56737396 -0.27703752 0 0 Z " fill="#062B76" transform="translate(188,188)"/>
<path d="M0 0 C3.30338171 -0.01289929 6.60675679 -0.02054463 9.91015625 -0.02734375 C10.83268188 -0.03100952 11.75520752 -0.03467529 12.70568848 -0.03845215 C23.18201467 -0.05455895 33.66152021 0.21223826 44 2 C44.13842911 14.02122245 43.72854075 25.93980291 43 37.9375 C42.85520189 40.35946712 42.71193864 42.78149641 42.57202148 45.20375061 C42.48597929 46.68995972 42.39721279 48.17601521 42.30493164 49.66184998 C42.22380531 51.0499855 42.15451786 52.43886183 42.09687805 53.82817078 C42.02915776 55.34633619 41.9273771 56.86319266 41.79997253 58.3775177 C41.40960668 65.55872485 43.56187706 70.39607485 46.92578125 76.64453125 C47.42917526 77.61734543 47.93256927 78.59015961 48.45121765 79.592453 C50.0527863 82.6760855 51.68215685 85.74400175 53.3125 88.8125 C54.39701375 90.89162382 55.47971443 92.97169445 56.56054688 95.05273438 C61.45486016 104.63073782 61.45486016 104.63073782 66.83276367 113.9362793 C68 116 68 116 68 119 C67.08863281 119.06316406 66.17726563 119.12632812 65.23828125 119.19140625 C54.75469314 120.18239219 45.51601305 122.90335498 35.6171875 126.44140625 C13.71241365 134.06453817 -10.00107347 127.05640783 -31 120 C-32.20785156 119.5978125 -33.41570312 119.195625 -34.66015625 118.78125 C-35.43230469 118.5234375 -36.20445312 118.265625 -37 118 C-36.47140922 113.41319613 -34.46697513 110.31575273 -31.875 106.625 C-30.96858269 105.30048353 -30.06374156 103.97488757 -29.16015625 102.6484375 C-28.66016113 101.9172168 -28.16016602 101.18599609 -27.64501953 100.43261719 C-24.47463528 95.74432561 -21.39935594 90.99351724 -18.3125 86.25 C-17.69552246 85.30463379 -17.07854492 84.35926758 -16.44287109 83.38525391 C-14.62332712 80.59353832 -12.81047275 77.79760568 -11 75 C-10.34692871 73.99517578 -9.69385742 72.99035156 -9.02099609 71.95507812 C-8.38887207 70.97474609 -7.75674805 69.99441406 -7.10546875 68.984375 C-6.5333667 68.09975586 -5.96126465 67.21513672 -5.37182617 66.30371094 C-3.1194961 62.52136772 -2.81613534 59.38372357 -2.61108398 55.05981445 C-2.55109726 53.83877518 -2.49111053 52.6177359 -2.42930603 51.35969543 C-2.36814439 50.02756154 -2.30707582 48.69542337 -2.24609375 47.36328125 C-2.18063324 45.99991602 -2.11479668 44.63656879 -2.04859924 43.27323914 C-1.87552348 39.68790516 -1.70755719 36.10234934 -1.54064941 32.51672363 C-1.36937423 28.8567047 -1.19327396 25.19691829 -1.01757812 21.53710938 C-0.67365937 14.35829193 -0.33513746 7.17923332 0 0 Z " fill="#FDFEFE" transform="translate(302,279)"/>
<path d="M0 0 C0.66 0.66 1.32 1.32 2 2 C5.06447562 2.90541325 8.13185595 3.67059528 11.23828125 4.41210938 C15.51837908 5.48000655 19.24276493 6.67383553 23 9 C24.27270508 11.59350586 24.27270508 11.59350586 25.01953125 14.71484375 C25.31448486 15.86621826 25.60943848 17.01759277 25.91333008 18.20385742 C26.21005615 19.43595947 26.50678223 20.66806152 26.8125 21.9375 C34.0424785 49.30800814 46.98113618 71.10147708 66.1171875 91.87109375 C68 94 68 94 70 97 C60.55531814 97.08051411 51.17910891 96.86153468 41.74609375 96.37890625 C39.79111717 96.28258156 39.79111717 96.28258156 37.79664612 96.18431091 C35.06296817 96.04940826 32.32941798 95.91223054 29.59594727 95.77319336 C26.1316622 95.59705708 22.66716843 95.42553113 19.20257473 95.25558567 C15.84198103 95.0903473 12.48154233 94.92207095 9.12109375 94.75390625 C7.89780869 94.6934462 6.67452362 94.63298615 5.41416931 94.57069397 C1.94189133 94.39343991 -1.52909478 94.20230582 -5 94 C-6.18560516 93.93134735 -7.37121033 93.8626947 -8.59274292 93.79196167 C-9.74026031 93.71615875 -10.88777771 93.64035583 -12.07006836 93.56225586 C-13.09120224 93.49654892 -14.11233612 93.43084198 -15.16441345 93.36314392 C-22.1371861 92.47016465 -27.55307744 89.43512757 -32 84 C-35.89946157 78.35021193 -38.16033983 73.98779582 -38.4375 67 C-38.49808594 65.948125 -38.55867187 64.89625 -38.62109375 63.8125 C-37.13998568 54.72091838 -30.66929489 46.7396712 -25.5625 39.25 C-24.33748813 37.43300151 -23.11357151 35.61526423 -21.890625 33.796875 C-21.25833984 32.85779297 -20.62605469 31.91871094 -19.97460938 30.95117188 C-16.54639292 25.82749723 -13.17844849 20.66471334 -9.8125 15.5 C-9.17707275 14.52708008 -8.54164551 13.55416016 -7.88696289 12.55175781 C-5.18611421 8.40604824 -2.52704271 4.25468107 0 0 Z " fill="#92B1F3" transform="translate(264,395)"/>
<path d="M0 0 C3.87643052 1.94930979 7.55845911 4.16072511 11.25 6.4375 C12.24257813 7.03626953 13.23515625 7.63503906 14.2578125 8.25195312 C17.88115811 10.44412632 21.47611322 12.65074214 25 15 C25.42943119 17.45734328 25.65876804 19.65738294 25.75 22.1328125 C25.78988037 23.1988118 25.78988037 23.1988118 25.83056641 24.28634644 C25.87647224 25.79415918 25.91283176 27.30228795 25.94042969 28.81054688 C25.9798929 30.34378981 26.04791869 31.87658369 26.14550781 33.40722656 C26.47258138 38.54917903 26.46591875 43.02662806 25 48 C21.15414071 51.8166608 16.91636664 53.82639535 12 56 C10.59940254 56.81830323 9.21018374 57.65709199 7.84375 58.53125 C6.7403125 59.1809375 5.636875 59.830625 4.5 60.5 C3.3759375 61.1703125 2.251875 61.840625 1.09375 62.53125 C-2.16078756 64.07633349 -3.48395033 64.37131601 -7 64 C-9.73901367 62.73071289 -9.73901367 62.73071289 -12.66796875 60.97265625 C-13.72564453 60.34552734 -14.78332031 59.71839844 -15.87304688 59.07226562 C-16.96681641 58.40904297 -18.06058594 57.74582031 -19.1875 57.0625 C-21.36840942 55.76158435 -23.54939508 54.46079651 -25.73046875 53.16015625 C-26.69364014 52.57886963 -27.65681152 51.99758301 -28.64916992 51.39868164 C-30.07239279 50.55190173 -31.5187574 49.7406213 -33 49 C-33.22334904 44.26805461 -33.38615853 39.53920256 -33.49438477 34.80322266 C-33.53950884 33.19460603 -33.60083129 31.58635586 -33.67895508 29.97900391 C-34.3089069 16.68002094 -34.3089069 16.68002094 -31.25976562 12.76635742 C-28.91016032 11.19105387 -26.60212639 10.10135459 -24 9 C-22.53377907 8.08858714 -21.08251263 7.15260641 -19.6484375 6.19140625 C-18.22556541 5.31249712 -16.80109096 4.4361766 -15.375 3.5625 C-14.6634375 3.10423828 -13.951875 2.64597656 -13.21875 2.17382812 C-8.42009559 -0.73964062 -5.58806383 -1.80336667 0 0 Z " fill="#FA7C9F" transform="translate(295,117)"/>
<path d="M0 0 C2.96819463 0.9007369 5.37406853 2.1322632 8.06494141 3.67553711 C9.07298828 4.24981445 10.08103516 4.8240918 11.11962891 5.41577148 C12.16119141 6.0184082 13.20275391 6.62104492 14.27587891 7.24194336 C15.32517578 7.84071289 16.37447266 8.43948242 17.45556641 9.05639648 C25.04857236 13.40290566 25.04857236 13.40290566 28.65087891 15.80444336 C28.91785778 18.4290658 28.99920874 20.81510269 28.94384766 23.43725586 C28.93960281 24.18909149 28.93535797 24.94092712 28.9309845 25.71554565 C28.91417061 28.12054021 28.87651515 30.52470145 28.83837891 32.92944336 C28.82333549 34.55833752 28.80964649 36.1872448 28.79736328 37.81616211 C28.76425845 41.8125777 28.712459 45.80836918 28.65087891 49.80444336 C28.15797363 50.07595215 27.66506836 50.34746094 27.15722656 50.62719727 C25.68999244 51.43631611 24.22332519 52.24646334 22.75708008 53.05737305 C21.09945479 53.97401716 19.44075666 54.88872382 17.78100586 55.80151367 C12.59751619 58.66778069 7.56813941 61.66499164 2.69384766 65.03881836 C0.65087891 65.80444336 0.65087891 65.80444336 -1.60449219 65.0559082 C-4.5995108 63.69027349 -7.43901099 62.16399265 -10.30615234 60.54663086 C-11.41796875 59.92143555 -12.52978516 59.29624023 -13.67529297 58.65209961 C-14.8374401 57.99461426 -15.999549 57.33706133 -17.16162109 56.67944336 C-18.34310298 56.01379695 -19.52474209 55.34842952 -20.70654297 54.68334961 C-23.58896015 53.05978402 -26.4697444 51.43339321 -29.34912109 49.80444336 C-32.61364378 24.95640341 -32.61364378 24.95640341 -29.34912109 15.80444336 C-23.98997687 8.94700718 -15.89848054 5.68611536 -7.89282227 2.77709961 C-0.5174651 -0.04307728 -0.5174651 -0.04307728 0 0 Z " fill="#FAC950" transform="translate(455.34912109375,299.195556640625)"/>
<path d="M0 0 C1.91878091 1.04220207 3.81883121 2.11932391 5.703125 3.22265625 C6.7653125 3.84333984 7.8275 4.46402344 8.921875 5.10351562 C10.02015625 5.74998047 11.1184375 6.39644531 12.25 7.0625 C13.36375 7.71283203 14.4775 8.36316406 15.625 9.03320312 C23.85688973 13.85688973 23.85688973 13.85688973 25 15 C26.67544526 25.63443564 27.84149081 37.50978369 25 48 C20.22824125 54.38247901 12.92567695 57.37653357 5.5871582 59.98974609 C2.91911005 60.91864859 2.91911005 60.91864859 0.54370117 62.68603516 C-2.82439537 64.42584661 -4.39514109 64.04339789 -8 63 C-10.8684082 61.6171875 -10.8684082 61.6171875 -13.80078125 59.875 C-14.85974609 59.25109375 -15.91871094 58.6271875 -17.00976562 57.984375 C-18.09966797 57.32953125 -19.18957031 56.6746875 -20.3125 56 C-21.42173828 55.34515625 -22.53097656 54.6903125 -23.67382812 54.015625 C-31.80333647 49.19666353 -31.80333647 49.19666353 -33 48 C-33.38775295 43.39017132 -33.48513636 38.77927862 -33.56982422 34.1550293 C-33.60640975 32.60176298 -33.66091001 31.0488085 -33.73388672 29.49682617 C-34.32678114 16.69495151 -34.32678114 16.69495151 -31.29492188 12.82177734 C-28.93830561 11.23535458 -26.60449051 10.12864525 -24 9 C-22.3666487 8.00100588 -20.74667121 6.97982496 -19.140625 5.9375 C-17.5122603 4.95527041 -15.88204448 3.97610316 -14.25 3 C-13.42628906 2.48566406 -12.60257813 1.97132813 -11.75390625 1.44140625 C-10.95339844 0.96574219 -10.15289062 0.49007812 -9.328125 0 C-8.6155957 -0.433125 -7.90306641 -0.86625 -7.16894531 -1.3125 C-4.10478644 -2.28375972 -2.82451403 -1.4487901 0 0 Z " fill="#D0DAFB" transform="translate(189,212)"/>
<path d="M0 0 C2.86079647 1.39797306 5.60454876 2.90827143 8.35253906 4.51733398 C9.41472656 5.13801758 10.47691406 5.75870117 11.57128906 6.39819336 C12.66957031 7.0446582 13.76785156 7.69112305 14.89941406 8.35717773 C16.01316406 9.00750977 17.12691406 9.6578418 18.27441406 10.32788086 C26.50630379 15.15156746 26.50630379 15.15156746 27.64941406 16.29467773 C28.85636711 27.09518328 30.17915827 40.24559922 24.27441406 49.79467773 C18.50325673 56.51388803 9.2582885 62.94409907 0.64941406 65.29467773 C-3.99150472 64.97043846 -7.1827273 63.52753422 -11.15136719 61.16967773 C-12.21033203 60.54577148 -13.26929688 59.92186523 -14.36035156 59.27905273 C-15.45025391 58.62420898 -16.54015625 57.96936523 -17.66308594 57.29467773 C-18.77232422 56.63983398 -19.8815625 55.98499023 -21.02441406 55.31030273 C-29.1539224 50.49134127 -29.1539224 50.49134127 -30.35058594 49.29467773 C-30.83539472 44.7230419 -31.00695181 40.15347756 -31.14013672 35.55957031 C-31.19668484 34.01936097 -31.27836674 32.47985083 -31.38623047 30.94238281 C-31.74057764 25.79435162 -31.77131564 21.28887716 -30.35058594 16.29467773 C-26.51397229 12.47487291 -22.24923247 10.49256981 -17.35058594 8.29467773 C-15.87181308 7.38706394 -14.40904379 6.45197995 -12.97558594 5.47436523 C-11.76726005 4.70612435 -10.55892708 3.93789462 -9.35058594 3.16967773 C-8.73570312 2.75975586 -8.12082031 2.34983398 -7.48730469 1.92749023 C-2.97632125 -0.89308185 -2.97632125 -0.89308185 0 0 Z " fill="#FA8D02" transform="translate(215.3505859375,349.705322265625)"/>
<path d="M0 0 C6.88760449 2.99605852 13.34066977 6.05331478 18.1640625 11.96484375 C20.14023746 17.46055487 20.51070105 22.53784152 20.4765625 28.33984375 C20.49007751 29.04634064 20.50359253 29.75283752 20.51751709 30.48074341 C20.53883717 35.29650351 20.0481965 39.46389272 18.1640625 43.96484375 C14.24480363 47.6018557 9.9845679 49.72632984 5.1640625 51.96484375 C3.76360751 52.80752953 2.37455235 53.67007168 1.0078125 54.56640625 C-0.095625 55.23414063 -1.1990625 55.901875 -2.3359375 56.58984375 C-2.903125 56.95207031 -3.4703125 57.31429687 -4.0546875 57.6875 C-5.7421875 58.69140625 -5.7421875 58.69140625 -8.8359375 59.96484375 C-12.55137567 58.81345693 -15.76796225 56.93977179 -19.1015625 54.9609375 C-20.07351563 54.38537109 -21.04546875 53.80980469 -22.046875 53.21679688 C-23.04976563 52.61802734 -24.05265625 52.01925781 -25.0859375 51.40234375 C-26.61347656 50.49838867 -26.61347656 50.49838867 -28.171875 49.57617188 C-35.69092518 45.10985607 -35.69092518 45.10985607 -36.8359375 43.96484375 C-37.32023519 39.53703196 -37.49235116 35.10638628 -37.62548828 30.65698242 C-37.68202435 29.16523794 -37.76369699 27.67421467 -37.87158203 26.18530273 C-38.22796471 21.17192568 -38.25927624 16.81961469 -36.8359375 11.96484375 C-32.91741196 8.13323301 -28.82476712 6.23896017 -23.8359375 3.96484375 C-21.64131502 2.67515139 -19.5298884 1.29717224 -17.3984375 -0.09765625 C-11.1272753 -4.08363834 -6.67106832 -2.58621151 0 0 Z " fill="#67CBD1" transform="translate(433.8359375,166.03515625)"/>
<path d="M0 0 C24.14953603 -0.52376371 47.94260633 0.99621114 72 3 C72 9.27 72 15.54 72 22 C62.88012697 22.10604504 53.80070751 21.90057267 44.6875 21.5625 C43.02485107 21.50364624 43.02485107 21.50364624 41.32861328 21.44360352 C35.96236803 21.23386505 30.67681714 20.88824569 25.34741211 20.23852539 C20.39365475 19.73516388 15.41146662 19.62038847 10.4375 19.4375 C9.33341797 19.39431641 8.22933594 19.35113281 7.09179688 19.30664062 C4.39462815 19.20155613 1.69738297 19.09940587 -1 19 C-1.10655578 12.55929529 -0.96205088 6.37358711 0 0 Z " fill="#91B0F2" transform="translate(290,239)"/>
<path d="M0 0 C2.19591759 9.12240232 4.308412 18.25724202 6.25 27.4375 C6.42499023 28.25968018 6.59998047 29.08186035 6.78027344 29.92895508 C8 35.75210639 8 35.75210639 8 38 C-0.91 42.95 -0.91 42.95 -10 48 C-12.26803249 44.59795127 -12.92546312 41.48615028 -13.7265625 37.55859375 C-13.87910492 36.83511246 -14.03164734 36.11163116 -14.18881226 35.3662262 C-14.50945921 33.83959628 -14.82698515 32.31230795 -15.14160156 30.78442383 C-15.62419122 28.44142667 -16.1159172 26.10049548 -16.609375 23.75976562 C-16.91980426 22.27615318 -17.22971782 20.79243272 -17.5390625 19.30859375 C-17.68590485 18.60649277 -17.83274719 17.90439178 -17.98403931 17.18101501 C-19 12.23495101 -19 12.23495101 -19 10 C-20.32 9.67 -21.64 9.34 -23 9 C-21.14375 8.7215625 -21.14375 8.7215625 -19.25 8.4375 C-13.67493823 7.24094461 -9.29586286 4.45973538 -4.50390625 1.4609375 C-2 0 -2 0 0 0 Z " fill="#6965F5" transform="translate(205,289)"/>
<path d="M0 0 C0.70125 0.45890625 1.4025 0.9178125 2.125 1.390625 C7.62549521 4.94801049 13.07504446 8.20520965 19 11 C15.15497972 14.89570793 11.20275023 18.65546127 7.1875 22.375 C6.57092529 22.94718262 5.95435059 23.51936523 5.3190918 24.10888672 C1.45391846 27.68509887 -2.44816054 31.20840348 -6.44921875 34.6328125 C-8.03329094 36.02934969 -9.52278347 37.49154324 -11 39 C-11.51046875 38.42765625 -12.0209375 37.8553125 -12.546875 37.265625 C-15.53453636 34.50631993 -18.70148082 32.69735808 -22.25 30.75 C-22.8996875 30.38648438 -23.549375 30.02296875 -24.21875 29.6484375 C-25.80918426 28.75966541 -27.40414448 27.87900064 -29 27 C-27.88044922 25.88238281 -27.88044922 25.88238281 -26.73828125 24.7421875 C-25.16777377 23.16943964 -23.60054435 21.5933685 -22.04296875 20.0078125 C-17.54198297 15.4404964 -12.86559064 11.17317966 -8 7 C-6.49872674 5.68895657 -4.99869166 4.37649374 -3.5 3.0625 C-2.33333333 2.04166667 -1.16666667 1.02083333 0 0 Z " fill="#6865F6" transform="translate(243,177)"/>
<path d="M0 0 C0.33 0.66 0.66 1.32 1 2 C2.65829673 2.68722207 4.32704372 3.3492777 6 4 C8.12196433 5.17679828 10.22580385 6.38674075 12.3125 7.625 C13.38113281 8.25664062 14.44976562 8.88828125 15.55078125 9.5390625 C16.76314453 10.26222656 16.76314453 10.26222656 18 11 C16.50153206 14.62401213 14.44211507 16.6317703 11.5 19.1875 C10.61054688 19.96738281 9.72109375 20.74726563 8.8046875 21.55078125 C7.87914062 22.35902344 6.95359375 23.16726563 6 24 C4.20617617 25.62261842 2.41442206 27.2475286 0.625 28.875 C-2.15932052 31.40537597 -4.95477087 33.78908022 -8 36 C-7.835 36.66 -7.67 37.32 -7.5 38 C-6.87816701 41.73099794 -6.93591074 45.21873378 -7 49 C-10.78389066 44.20271769 -13.41691509 38.82896649 -16.25 33.4375 C-16.8171875 32.38369141 -17.384375 31.32988281 -17.96875 30.24414062 C-18.49984375 29.23416016 -19.0309375 28.22417969 -19.578125 27.18359375 C-20.06700195 26.26118896 -20.55587891 25.33878418 -21.05957031 24.38842773 C-22 22 -22 22 -21 19 C-19.50390625 17.4921875 -19.50390625 17.4921875 -17.5625 15.875 C-13.33306941 12.30212362 -9.26091123 8.58231967 -5.19921875 4.8203125 C-3 3 -3 3 0 2 C0 1.34 0 0.68 0 0 Z " fill="#6965F6" transform="translate(407,360)"/>
<path d="M0 0 C0.33 0 0.66 0 1 0 C1.04898437 1.23492187 1.09796875 2.46984375 1.1484375 3.7421875 C1.64264011 15.23325429 2.58027247 26.58704468 4 38 C1.45810688 37.20905464 -1.08351841 36.41726571 -3.625 35.625 C-4.33785156 35.40328125 -5.05070312 35.1815625 -5.78515625 34.953125 C-9.87193248 33.67835076 -13.94357149 32.36920458 -18 31 C-17.50044271 26.13394198 -15.10643025 22.77768512 -12.375 18.875 C-11.46637074 17.54891452 -10.55882714 16.22208452 -9.65234375 14.89453125 C-9.20358887 14.24049316 -8.75483398 13.58645508 -8.29248047 12.91259766 C-5.85101569 9.2997463 -3.57116242 5.58679667 -1.27734375 1.87890625 C-0.85582031 1.25886719 -0.43429687 0.63882812 0 0 Z " fill="#CFD9FB" transform="translate(283,366)"/>
<path d="M0 0 C3.5386994 1.65139305 4.81070153 2.71605229 7 6 C7.67226891 12.94677871 7.67226891 12.94677871 5.125 16.9375 C1.89661432 20.07093316 -0.44929709 20.39218693 -4.9609375 20.359375 C-8.38006698 19.7567698 -9.93189052 17.63213933 -12 15 C-13.41000664 12.17998673 -13.24548451 10.12992745 -13 7 C-10.01415562 0.74394511 -6.81497582 -0.58749792 0 0 Z " fill="#6965F7" transform="translate(278,427)"/>
<path d="M0 0 C3.49406769 1.66762322 4.82670681 2.74006022 7 6 C7.46229036 10.99273591 7.08578614 13.99990685 4 18 C-0.01544992 20.67696661 -3.28325925 20.92517507 -8 20 C-11.68158609 16.9946236 -13.26690257 14.73982381 -13.75 10 C-13.52191111 6.51158171 -12.39912456 4.87828625 -9.875 2.5 C-6.50521564 0.00663133 -4.23425934 -0.82844204 0 0 Z " fill="#6A66F7" transform="translate(331,455)"/>
<path d="M0 0 C3.26875211 1.29245638 4.87535859 2.8750272 6.8671875 5.73828125 C7.43102876 9.68517007 7.24053529 11.93825028 5.5546875 15.55078125 C3.60994315 18.07174615 1.96209517 19.5250408 -1.21875 20.14453125 C-5.7656719 20.33075331 -7.54646863 20.21692931 -11.1953125 17.23828125 C-13.25575199 14.17292566 -13.99774124 11.39517057 -13.7421875 7.7109375 C-12.73999327 4.46665489 -10.89060543 2.73722298 -8.203125 0.74609375 C-5.25211677 -0.69043479 -3.17241816 -0.70978227 0 0 Z " fill="#6A66F7" transform="translate(366.1328125,432.26171875)"/>
<path d="M0 0 C6.93 0 13.86 0 21 0 C21 0.33 21 0.66 21 1 C19.79988281 0.98324219 18.59976562 0.96648437 17.36328125 0.94921875 C14.54847153 1.30331797 13.345445 1.64141475 11.35693359 3.70556641 C9.83544459 6.02006766 8.49159423 8.36897946 7.1875 10.8125 C6.26560215 12.4447336 5.34246479 14.07626786 4.41796875 15.70703125 C4.02375732 16.4338208 3.6295459 17.16061035 3.22338867 17.90942383 C2 20 2 20 -1 24 C-0.67 16.08 -0.34 8.16 0 0 Z " fill="#C7D2F5" transform="translate(302,279)"/>
</svg>
