<?xml version="1.0" encoding="UTF-8"?>
<svg version="1.1" xmlns="http://www.w3.org/2000/svg" width="640" height="640">
<path d="M0 0 C211.2 0 422.4 0 640 0 C640 211.2 640 422.4 640 640 C428.8 640 217.6 640 0 640 C0 428.8 0 217.6 0 0 Z " fill="#FEFEFE" transform="translate(0,0)"/>
<path d="M0 0 C0.87914062 0.46664062 1.75828125 0.93328125 2.6640625 1.4140625 C3.69660156 1.96191406 4.72914063 2.50976562 5.79296875 3.07421875 C11.97293134 6.51466545 18.05610902 10.11622034 24.12109375 13.75439453 C26.25688441 15.01999481 28.40944709 16.25045406 30.5703125 17.47265625 C31.24924561 17.86283936 31.92817871 18.25302246 32.62768555 18.6550293 C33.9018209 19.38704645 35.18162239 20.1093284 36.46801758 20.81958008 C40.7218166 23.29457174 42.9446012 25.73500017 45.2890625 30.0390625 C45.62580537 32.85865034 45.76082593 35.26132424 45.6796875 38.0625 C45.67402771 38.80867584 45.66836792 39.55485168 45.66253662 40.32363892 C45.64029148 42.68778887 45.59012234 45.05037709 45.5390625 47.4140625 C45.51898194 49.02471757 45.5007339 50.63539659 45.484375 52.24609375 C45.44046631 56.17767757 45.37152568 60.10810602 45.2890625 64.0390625 C45.87969482 64.20631836 46.47032715 64.37357422 47.07885742 64.54589844 C54.72147769 66.76720034 62.10874522 69.53165775 69.51757812 72.4296875 C70.44892578 72.7803125 71.38027344 73.1309375 72.33984375 73.4921875 C73.17169189 73.81348633 74.00354004 74.13478516 74.8605957 74.46582031 C79.58213941 75.58034576 82.91649373 73.91160105 86.921875 71.484375 C87.80149902 70.95674561 88.68112305 70.42911621 89.58740234 69.88549805 C90.5202002 69.31742432 91.45299805 68.74935059 92.4140625 68.1640625 C94.38791652 66.98550237 96.36187687 65.80712029 98.3359375 64.62890625 C102.1293584 62.34879197 105.90794767 60.04621635 109.6796875 57.73046875 C111.34096541 56.72886735 113.00241514 55.72755087 114.6640625 54.7265625 C115.41703613 54.25299316 116.17000977 53.77942383 116.94580078 53.29150391 C120.81642792 50.9767596 124.33834327 49.1371093 129.00244141 49.44946289 C134.5348987 50.87599336 139.39533834 54.05091631 144.2890625 56.9140625 C145.49354889 57.60365503 146.6986313 58.29220752 147.90429688 58.97973633 C151.38220977 60.97238598 154.8375218 63.00106396 158.2890625 65.0390625 C159.20171875 65.57611816 160.114375 66.11317383 161.0546875 66.66650391 C163.3098524 68.00371255 165.55339508 69.35705591 167.7890625 70.7265625 C168.42199219 71.11118652 169.05492187 71.49581055 169.70703125 71.89208984 C172.95349557 73.93936861 175.27402115 75.76889575 177.2890625 79.0390625 C177.67674255 81.41586304 177.67674255 81.41586304 177.69311523 84.07958984 C177.71214149 85.58167496 177.71214149 85.58167496 177.73155212 87.11410522 C177.72714867 88.72824814 177.72714867 88.72824814 177.72265625 90.375 C177.7278981 91.48710846 177.73313995 92.59921692 177.73854065 93.74502563 C177.74496246 96.09693568 177.74362183 98.44887785 177.73510742 100.80078125 C177.72661039 104.39381383 177.755338 107.98525001 177.78710938 111.578125 C177.78872183 113.86458286 177.78814302 116.15104352 177.78515625 118.4375 C177.79639023 119.50954681 177.80762421 120.58159363 177.81919861 121.68612671 C177.76406557 127.60847459 177.49725033 131.49514824 173.2890625 136.0390625 C170.77124023 137.88183594 170.77124023 137.88183594 167.97265625 139.3984375 C166.96138672 139.95660156 165.95011719 140.51476562 164.90820312 141.08984375 C163.85826172 141.65058594 162.80832031 142.21132812 161.7265625 142.7890625 C159.64160317 143.92909531 157.55695363 145.0696949 155.47265625 146.2109375 C154.55025146 146.7069043 153.62784668 147.20287109 152.67749023 147.71386719 C150.14238151 149.0780891 150.14238151 149.0780891 147.2890625 151.0390625 C148.41541128 160.64615504 149.73048625 170.19960311 151.32348633 179.74145508 C151.44876709 180.50482178 151.57404785 181.26818848 151.703125 182.0546875 C151.8160791 182.72790039 151.9290332 183.40111328 152.04541016 184.09472656 C152.2890625 186.0390625 152.2890625 186.0390625 152.2890625 190.0390625 C153.01254883 190.15064697 153.73603516 190.26223145 154.48144531 190.37719727 C157.4537069 191.07787563 159.56789055 192.11246705 162.2109375 193.62890625 C163.14639404 194.1612085 164.08185059 194.69351074 165.0456543 195.24194336 C166.033479 195.81436768 167.02130371 196.38679199 168.0390625 196.9765625 C169.05589111 197.56123291 170.07271973 198.14590332 171.12036133 198.74829102 C173.1901123 199.94003474 175.25823722 201.13460705 177.32470703 202.33203125 C180.0179321 203.8829314 182.72498721 205.40428739 185.44140625 206.9140625 C186.95339455 207.76775193 188.46513086 208.6218879 189.9765625 209.4765625 C190.66395508 209.85224365 191.35134766 210.2279248 192.05957031 210.61499023 C192.69604492 210.98052002 193.33251953 211.3460498 193.98828125 211.72265625 C194.53315186 212.02743896 195.07802246 212.33222168 195.6394043 212.64624023 C198.87842822 215.38097925 201.00020331 218.15036966 201.65431213 222.42723083 C201.80159386 225.33684777 201.81717767 228.21962418 201.78515625 231.1328125 C201.78661148 232.19769897 201.78806671 233.26258545 201.78956604 234.35974121 C201.78791003 236.60557803 201.77638231 238.85142655 201.75561523 241.09716797 C201.72666001 244.52751048 201.73501377 247.95630652 201.74804688 251.38671875 C201.74180898 253.57292415 201.73341765 255.75912469 201.72265625 257.9453125 C201.72559189 258.96733765 201.72852753 259.98936279 201.73155212 261.0423584 C201.6609472 266.3927484 201.52181311 270.54807887 198.2890625 275.0390625 C195.66870117 277.07836914 195.66870117 277.07836914 192.51953125 278.88671875 C191.66623482 279.38535179 191.66623482 279.38535179 190.79570007 279.89405823 C188.9683073 280.95728015 187.12919667 281.99808057 185.2890625 283.0390625 C184.07024538 283.74441098 182.85230603 284.4512784 181.63525391 285.15966797 C177.9695759 287.28697507 174.28674787 289.38329179 170.6015625 291.4765625 C169.32866734 292.20228333 168.05588045 292.9281941 166.78320312 293.65429688 C153.41119294 301.27431172 153.41119294 301.27431172 147.2890625 300.0390625 C142.66797575 297.83591688 138.36562895 295.13739572 134.0390625 292.4140625 C131.73170858 290.96531778 129.41447028 289.54027795 127.0859375 288.125 C126.06854492 287.4861084 125.05115234 286.8472168 124.00292969 286.18896484 C121.41186754 284.75067159 121.41186754 284.75067159 119.1184082 285.68969727 C116.19262571 287.84781816 113.45224039 290.20044162 110.7265625 292.6015625 C109.58071821 293.60434184 108.43353768 294.60559595 107.28515625 295.60546875 C106.36935791 296.4253125 106.36935791 296.4253125 105.43505859 297.26171875 C103.2890625 299.0390625 103.2890625 299.0390625 100.45947266 300.92578125 C94.77820741 304.90387748 91.6364551 307.92033722 90.1953125 314.84375 C89.95063357 317.58209354 89.80319495 320.17843009 89.7890625 322.9140625 C89.76466599 323.99089294 89.76466599 323.99089294 89.73977661 325.08947754 C89.67052161 346.86467617 105.29741622 363.93621428 117.83544922 380.41992188 C131.00522987 397.83652047 131.00522987 397.83652047 133.2890625 408.0390625 C133.629375 409.4621875 133.629375 409.4621875 133.9765625 410.9140625 C134.0796875 411.9453125 134.1828125 412.9765625 134.2890625 414.0390625 C134.36511719 414.79316406 134.44117188 415.54726563 134.51953125 416.32421875 C135.1938104 428.69815238 130.38660743 440.77749549 122.2890625 450.0390625 C113.76832733 459.07459209 102.76123586 463.78104295 90.515625 465.1015625 C89.40557602 465.22615845 89.40557602 465.22615845 88.27310181 465.35327148 C80.85310973 466.14905661 73.42377078 466.57860264 65.97140503 466.92990112 C61.91910144 467.12161737 57.86784787 467.33395424 53.81640625 467.54296875 C53.00198563 467.58450577 52.187565 467.62604279 51.34846497 467.6688385 C43.97055986 468.04765764 36.59854925 468.4951468 29.2265625 468.9765625 C28.01653564 469.05503418 26.80650879 469.13350586 25.55981445 469.21435547 C18.72685343 469.66361007 11.89579528 470.135711 5.06547546 470.62348938 C1.13490431 470.90373915 -2.79593725 471.18010758 -6.72677612 471.45657349 C-9.56370642 471.65804511 -12.40012166 471.86587611 -15.23657227 472.07397461 C-46.63339779 474.32284528 -46.63339779 474.32284528 -55.7109375 470.0390625 C-56.99097656 469.45898438 -56.99097656 469.45898438 -58.296875 468.8671875 C-70.60656824 463.01918074 -77.92252242 454.28894172 -82.80078125 441.60546875 C-84.59221941 436.55407445 -84.99425891 432.48142057 -85.0859375 427.1640625 C-85.14201172 425.9884375 -85.14201172 425.9884375 -85.19921875 424.7890625 C-85.40452875 410.59986049 -76.29758404 396.82303153 -70.0703125 384.5 C-69.13761662 382.64276106 -68.20551843 380.78522185 -67.27398682 378.92739868 C-64.8399589 374.07633051 -62.39907153 369.22874952 -59.95629883 364.38208008 C-56.03139381 356.59186452 -52.11693416 348.79639632 -48.20276642 341.00078201 C-46.83721169 338.28362571 -45.46861828 335.56801711 -44.09954834 332.85263062 C-43.26649647 331.19654525 -42.43350563 329.54042919 -41.60058594 327.88427734 C-41.21930542 327.13002472 -40.8380249 326.37577209 -40.44519043 325.59866333 C-39.0251718 322.77072359 -37.71315148 320.04570444 -36.7109375 317.0390625 C-41.65800819 315.93726377 -41.65800819 315.93726377 -46.4296875 317.234375 C-47.3475 317.87117188 -48.2653125 318.50796875 -49.2109375 319.1640625 C-50.3287617 319.90728486 -51.45017157 320.64512949 -52.57421875 321.37890625 C-53.52868896 322.00514893 -53.52868896 322.00514893 -54.50244141 322.64404297 C-59.03480246 325.50695598 -63.72797213 328.09755694 -68.3984375 330.7265625 C-69.84089844 331.54568115 -69.84089844 331.54568115 -71.3125 332.38134766 C-74.10093141 333.95486065 -76.90321945 335.50027938 -79.7109375 337.0390625 C-80.60893066 337.54775879 -81.50692383 338.05645508 -82.43212891 338.58056641 C-83.29370605 339.04769043 -84.1552832 339.51481445 -85.04296875 339.99609375 C-85.79940674 340.41479736 -86.55584473 340.83350098 -87.33520508 341.26489258 C-91.61850467 342.66067338 -94.79655502 341.47605713 -98.75610352 339.58374023 C-99.81498779 338.96958252 -100.87387207 338.3554248 -101.96484375 337.72265625 C-102.83809547 337.22053368 -102.83809547 337.22053368 -103.72898865 336.70826721 C-105.58221966 335.63954596 -107.42769276 334.55815003 -109.2734375 333.4765625 C-110.48456368 332.77719348 -111.69614928 332.07861945 -112.90820312 331.38085938 C-115.92187634 329.64065357 -118.92147445 327.8779144 -121.91436768 326.10223389 C-123.1228718 325.38706714 -124.33365686 324.67574225 -125.54656982 323.96807861 C-127.32464804 322.92967142 -129.09464113 321.87860187 -130.86328125 320.82421875 C-131.89316162 320.21586182 -132.92304199 319.60750488 -133.98413086 318.98071289 C-137.08741141 316.77099042 -138.83273257 315.38165848 -140.7109375 312.0390625 C-141.31512241 308.23969957 -141.31905724 304.48182458 -141.3125 300.640625 C-141.32107025 299.53230316 -141.3296405 298.42398132 -141.33847046 297.28207397 C-141.34994311 294.94035572 -141.35096776 292.5985662 -141.34228516 290.25683594 C-141.33597096 286.68300046 -141.38286845 283.11248785 -141.43359375 279.5390625 C-141.43814074 277.26042083 -141.43954626 274.98177029 -141.4375 272.703125 C-141.45591949 271.63937653 -141.47433899 270.57562805 -141.49331665 269.47964478 C-141.41807595 263.41337083 -140.76648902 259.74340443 -136.365448 255.4085083 C-134.07195578 253.51017445 -131.77131786 251.95219763 -129.1640625 250.51171875 C-128.15472656 249.94775391 -127.14539063 249.38378906 -126.10546875 248.80273438 C-125.06777344 248.24134766 -124.03007812 247.67996094 -122.9609375 247.1015625 C-121.90777344 246.51310547 -120.85460937 245.92464844 -119.76953125 245.31835938 C-112.02604167 241.0390625 -112.02604167 241.0390625 -109.7109375 241.0390625 C-110.22645393 235.88504717 -110.82695782 230.75059678 -111.50537109 225.61547852 C-111.72383503 223.87147799 -111.91958773 222.12446576 -112.09130859 220.37524414 C-112.90109329 209.81364391 -112.90109329 209.81364391 -118.68383789 201.52197266 C-122.33062396 199.7238924 -125.87980992 198.39088145 -129.7109375 197.0390625 C-131.67014094 195.99669418 -133.60429143 194.90518923 -135.50390625 193.7578125 C-136.3961792 193.22929687 -137.28845215 192.70078125 -138.20776367 192.15625 C-139.09568604 191.62257813 -139.9836084 191.08890625 -140.8984375 190.5390625 C-142.31443237 189.69214844 -142.31443237 189.69214844 -143.7590332 188.828125 C-145.59759207 187.72552954 -147.43451827 186.62020548 -149.26953125 185.51171875 C-151.32725785 184.27049807 -153.39217346 183.04297529 -155.4609375 181.8203125 C-156.4303125 181.2325 -157.3996875 180.6446875 -158.3984375 180.0390625 C-159.18605469 179.5646875 -159.97367188 179.0903125 -160.78515625 178.6015625 C-163.91658462 176.06084982 -165.50101484 173.71610905 -166.01277161 169.62774658 C-166.15876731 166.55576687 -166.20542129 163.4973474 -166.21484375 160.421875 C-166.22482895 159.29135712 -166.23481415 158.16083923 -166.24510193 156.99606323 C-166.26027298 154.60727595 -166.26732804 152.21842525 -166.2668457 149.82958984 C-166.27340255 146.18349982 -166.32788764 142.54013913 -166.38476562 138.89453125 C-166.39356907 136.57032179 -166.39952236 134.24609942 -166.40234375 131.921875 C-166.4239003 130.83625275 -166.44545685 129.75063049 -166.46766663 128.6321106 C-166.41215312 122.4707478 -165.76312342 118.84962412 -161.36877441 114.39173889 C-158.35206561 111.93032019 -155.10481754 110.11927374 -151.6484375 108.3515625 C-150.06289559 107.50690776 -148.47830164 106.66047177 -146.89453125 105.8125 C-146.06034668 105.3700293 -145.22616211 104.92755859 -144.36669922 104.47167969 C-139.59622946 101.8983099 -134.90815182 99.18062687 -130.2109375 96.4765625 C-128.43001924 95.45384919 -126.6487944 94.43166945 -124.8671875 93.41015625 C-123.73506836 92.7593811 -123.73506836 92.7593811 -122.58007812 92.09545898 C-118.56643418 89.82703718 -115.27429341 89.23381786 -110.7109375 90.0390625 C-106.56891115 91.82541669 -102.76036254 94.09249945 -98.8984375 96.4140625 C-97.86267578 97.01734375 -96.82691406 97.620625 -95.75976562 98.2421875 C-92.01776731 100.43049061 -88.31818804 102.63422881 -84.7109375 105.0390625 C-80.46482319 104.89232853 -77.66716844 101.7135204 -74.6484375 99.0390625 C-73.59614891 98.12113693 -72.54271648 97.20452138 -71.48828125 96.2890625 C-70.6375 95.49580566 -70.6375 95.49580566 -69.76953125 94.68652344 C-67.7109375 93.0390625 -67.7109375 93.0390625 -64.85546875 91.64941406 C-61.24629232 89.5965201 -58.5858949 87.76163546 -56.7109375 84.0390625 C-54.77488754 74.85267465 -55.58042092 65.11309474 -55.8359375 55.7890625 C-55.9100136 51.90632044 -55.96813877 48.02475701 -55.99801636 44.14141846 C-56.01977762 41.73145403 -56.06865611 39.3215457 -56.1477356 36.91278076 C-56.26570277 28.79319379 -56.26570277 28.79319379 -53.40112305 24.89916992 C-52.51336182 24.28533447 -51.62560059 23.67149902 -50.7109375 23.0390625 C-50.13432373 22.62213135 -49.55770996 22.2052002 -48.96362305 21.77563477 C-48.430354 21.47197998 -47.89708496 21.1683252 -47.34765625 20.85546875 C-46.71972168 20.49179199 -46.09178711 20.12811523 -45.44482422 19.75341797 C-44.7695166 19.37330566 -44.09420898 18.99319336 -43.3984375 18.6015625 C-41.89407376 17.74168531 -40.39019745 16.88095499 -38.88671875 16.01953125 C-37.65816162 15.31836182 -37.65816162 15.31836182 -36.40478516 14.60302734 C-33.41345869 12.86635548 -30.45861848 11.07556846 -27.50390625 9.27734375 C-26.44147705 8.63788818 -25.37904785 7.99843262 -24.28442383 7.33959961 C-22.18247232 6.07419303 -20.08699866 4.79795147 -17.9987793 3.51000977 C-11.70574263 -0.24207868 -7.29984877 -2.58755446 0 0 Z " fill="#072C76" transform="translate(301.7109375,91.9609375)"/>
<path d="M0 0 C4.66183884 0.50081916 8.76795632 1.87526581 13.1484375 3.50390625 C13.80582916 3.7466478 14.46322083 3.98938934 15.14053345 4.23948669 C17.22057875 5.00883696 19.2977892 5.78553354 21.375 6.5625 C22.79278726 7.08838019 24.21075437 7.61377575 25.62890625 8.13867188 C29.08803517 9.4201835 32.54466292 10.7082941 36 12 C36.00410889 13.00377686 36.00821777 14.00755371 36.01245117 15.04174805 C36.03428312 18.77891844 36.08861294 22.51504201 36.15258789 26.25170898 C36.17573286 27.86651549 36.19015543 29.48147221 36.19555664 31.09643555 C36.20487274 33.42331148 36.24591368 35.74783676 36.29296875 38.07421875 C36.28706978 39.15107185 36.28706978 39.15107185 36.28105164 40.24967957 C36.3898337 44.01728672 36.85282959 45.81488823 39.22070312 48.79321289 C41.80527151 50.8453838 44.31513535 52.59431688 47.17578125 54.234375 C48.16167236 54.80454346 49.14756348 55.37471191 50.16333008 55.9621582 C51.20255615 56.552146 52.24178223 57.14213379 53.3125 57.75 C54.37815186 58.36254639 55.44380371 58.97509277 56.54174805 59.60620117 C59.6898576 61.41240797 62.84420693 63.2072605 66 65 C67.67720473 65.95942323 69.35430035 66.91903723 71.03125 67.87890625 C72.45780432 68.69103411 73.88484639 69.50230615 75.3125 70.3125 C75.95678955 70.67891602 76.6010791 71.04533203 77.26489258 71.42285156 C79.82739547 72.86191675 82.20279396 74.06759799 85 75 C85.85877689 79.91055935 86.71315069 84.8218569 87.56347656 89.73388672 C87.85328612 91.40434381 88.14429182 93.07459384 88.43652344 94.74462891 C88.85667505 97.14692436 89.27250107 99.54993475 89.6875 101.953125 C89.81874268 102.69806213 89.94998535 103.44299927 90.08520508 104.21051025 C90.65774164 107.54886688 91 110.59935113 91 114 C89.84999512 114.64231567 89.84999512 114.64231567 88.67675781 115.29760742 C85.816816 116.90150542 82.96247013 118.51458152 80.11132812 120.1340332 C78.87969843 120.83110589 77.64599472 121.52452789 76.41015625 122.21411133 C74.62713847 123.20986924 72.85216016 124.21881349 71.078125 125.23046875 C70.00981445 125.83270264 68.94150391 126.43493652 67.84082031 127.05541992 C64.60983237 129.26707504 62.87686435 130.53447893 61 134 C60.53986181 137.98318115 60.70646878 141.91303789 60.84765625 145.9140625 C60.87702805 148.30856239 60.90363251 150.70309752 60.92773438 153.09765625 C60.98532078 156.85817097 61.0621531 160.61465778 61.18823242 164.37353516 C61.87132589 186.4976072 61.87132589 186.4976072 57.25 191.98510742 C54.13523041 194.90076618 50.69701969 196.89525713 47 199 C44.88451484 200.61420831 42.89422063 202.32540355 40.875 204.0625 C38.29300028 206.18096564 35.7807535 208.14616433 33 210 C30.69921875 209.74609375 30.69921875 209.74609375 28 209 C26.99582031 208.76410156 25.99164063 208.52820313 24.95703125 208.28515625 C21.16809513 206.81194258 18.26851956 205.40744323 16 202 C13.86810439 194.82920865 14.15845592 187.10808732 14.08544922 179.69140625 C13.99859484 175.93929708 13.73034588 172.23895713 13.41015625 168.5 C13.2309168 166.08339653 13.05250657 163.66673138 12.875 161.25 C12.71318237 159.5469873 12.71318237 159.5469873 12.5480957 157.80957031 C12.11149129 150.01079019 12.11149129 150.01079019 14.65332031 147.11914062 C16.0537848 146.11444546 17.490647 145.15861878 18.95874023 144.25561523 C22.17827805 142.27522019 23.45730187 140.44628452 25 137 C25.48582855 132.8806258 25.42154888 128.82893421 25.3125 124.6875 C25.29799805 123.05264648 25.29799805 123.05264648 25.28320312 121.38476562 C25.71257652 109.30025582 25.71257652 109.30025582 21.1875 98.625 C20.68605469 97.99851562 20.18460938 97.37203125 19.66796875 96.7265625 C16.12762083 93.06184638 13.16507328 91.10567702 7.96386719 90.85180664 C-4.73890616 90.83834696 -17.38711716 91.50130462 -30.06689453 92.22680664 C-33.75658497 92.4378767 -37.44659395 92.6423817 -41.13671875 92.84570312 C-43.52345865 92.97878798 -45.91017816 93.11223892 -48.296875 93.24609375 C-49.37950623 93.3065538 -50.46213745 93.36701385 -51.57757568 93.42930603 C-54.71906749 93.60958905 -57.85943441 93.8043132 -61 94 C-62.16188843 94.06285187 -63.32377686 94.12570374 -64.52087402 94.19046021 C-65.67188599 94.2617514 -66.82289795 94.3330426 -68.00878906 94.40649414 C-69.56729584 94.49635338 -69.56729584 94.49635338 -71.1572876 94.58802795 C-76.86364372 95.41500546 -80.50540246 98.42673943 -84.375 102.5 C-88.56204645 108.94160992 -88.2670098 114.54095199 -88 122 C-87.97035156 123.15757812 -87.94070313 124.31515625 -87.91015625 125.5078125 C-87.54247696 133.66849918 -87.11891431 142.79650839 -81.09765625 148.94140625 C-77.9134101 151.40222962 -74.59525983 153.2168822 -71 155 C-70.57035907 162.43801463 -70.14338858 169.87617913 -69.71826172 177.31445312 C-69.57336718 179.84411072 -69.42786458 182.37373357 -69.28173828 184.90332031 C-69.0716364 188.54222765 -68.86373173 192.18125494 -68.65625 195.8203125 C-68.59062866 196.94865509 -68.52500732 198.07699768 -68.45739746 199.23953247 C-68.39733521 200.30017914 -68.33727295 201.36082581 -68.27539062 202.45361328 C-68.22209595 203.38182892 -68.16880127 204.31004456 -68.1138916 205.26638794 C-67.99247703 208.18056535 -67.98108193 211.08363199 -68 214 C-69.35602585 213.73863447 -70.70974092 213.46527857 -72.0625 213.1875 C-73.19365234 212.96126953 -73.19365234 212.96126953 -74.34765625 212.73046875 C-77.71527492 211.8030097 -80.80166144 210.39507233 -84 209 C-84.00410889 207.99622314 -84.00821777 206.99244629 -84.01245117 205.95825195 C-84.03428312 202.22108156 -84.08861294 198.48495799 -84.15258789 194.74829102 C-84.17573286 193.13348451 -84.19015543 191.51852779 -84.19555664 189.90356445 C-84.20487274 187.57668852 -84.24591368 185.25216324 -84.29296875 182.92578125 C-84.2890361 182.20787918 -84.28510345 181.48997711 -84.28105164 180.75032043 C-84.38834355 177.03432368 -84.84912274 175.1931386 -87.15722656 172.23852539 C-90.07085889 169.94420258 -92.95601383 168.06994393 -96.19140625 166.2578125 C-96.77736069 165.92635223 -97.36331512 165.59489197 -97.96702576 165.25338745 C-99.82793753 164.20282071 -101.69489331 163.16360935 -103.5625 162.125 C-105.3966617 161.09487768 -107.22950573 160.06243691 -109.06234741 159.02996826 C-110.26925339 158.35085682 -111.47695223 157.67315245 -112.68545532 156.99688721 C-117.69927294 154.18794685 -122.65126673 151.28319492 -127.58959961 148.34326172 C-130.02408227 146.88887221 -130.02408227 146.88887221 -133 146 C-133.69483219 141.85589065 -134.38855808 137.71159802 -135.08129883 133.56713867 C-135.31667842 132.15986232 -135.55235019 130.7526348 -135.78833008 129.34545898 C-136.12920381 127.31246786 -136.46899539 125.27929826 -136.80859375 123.24609375 C-137.01282959 122.02591553 -137.21706543 120.8057373 -137.42749023 119.54858398 C-137.9939447 116.03753254 -138.50811646 112.52220224 -139 109 C-138.26885986 108.56655273 -137.53771973 108.13310547 -136.78442383 107.68652344 C-134.05230963 106.06437805 -131.32225113 104.4388403 -128.59350586 102.81103516 C-127.41592361 102.10948993 -126.23755002 101.40927112 -125.05834961 100.71044922 C-123.35579323 99.70115364 -121.65638148 98.68655949 -119.95703125 97.671875 C-118.93585205 97.0644043 -117.91467285 96.45693359 -116.86254883 95.83105469 C-111.65425806 92.66929069 -111.65425806 92.66929069 -108 88 C-107.9365292 86.29542129 -107.93732831 84.58827399 -107.96923828 82.8828125 C-107.98479767 81.81409912 -108.00035706 80.74538574 -108.01638794 79.64428711 C-108.03418304 78.48292236 -108.05197815 77.32155762 -108.0703125 76.125 C-108.08122018 73.67058472 -108.08892899 71.21615353 -108.09375 68.76171875 C-108.10158794 64.88732734 -108.12466523 61.01673619 -108.20214844 57.14306641 C-108.62701382 34.43022844 -108.62701382 34.43022844 -104.68432617 29.19311523 C-101.91396308 26.66200118 -99.26767496 24.82409846 -96 23 C-94.86339736 22.08151823 -93.7441999 21.14011731 -92.66015625 20.16015625 C-91.80292969 19.46792969 -90.94570312 18.77570313 -90.0625 18.0625 C-89.18722656 17.35222656 -88.31195313 16.64195312 -87.41015625 15.91015625 C-86.61480469 15.27980469 -85.81945312 14.64945313 -85 14 C-83.97712891 13.10087891 -83.97712891 13.10087891 -82.93359375 12.18359375 C-81 11 -81 11 -79.13427734 11.29199219 C-76.88296946 12.03882276 -74.98349062 12.97994135 -72.91796875 14.14453125 C-71.76651367 14.78938477 -71.76651367 14.78938477 -70.59179688 15.44726562 C-69.79837891 15.89779297 -69.00496094 16.34832031 -68.1875 16.8125 C-67.40568359 17.25142578 -66.62386719 17.69035156 -65.81835938 18.14257812 C-65.04685547 18.57634766 -64.27535156 19.01011719 -63.48046875 19.45703125 C-62.71782715 19.88322754 -61.95518555 20.30942383 -61.16943359 20.74853516 C-59.80685315 21.53455669 -58.46202514 22.35312131 -57.14697266 23.21630859 C-52.82987478 25.99517245 -49.03016264 26.96280931 -44 26 C-41.15922721 24.94601325 -38.65263037 23.49964323 -36.0625 21.9375 C-35.31685791 21.50574463 -34.57121582 21.07398926 -33.80297852 20.62915039 C-31.18964042 19.10617509 -28.59487089 17.55422423 -26 16 C-23.76832102 14.67692839 -21.53654523 13.35402006 -19.3046875 12.03125 C-9.10554984 6.72317542 -9.10554984 6.72317542 0 0 Z " fill="#FDFDFE" transform="translate(344,177)"/>
<path d="M0 0 C0.20528642 2.7238405 0.40699776 5.44783623 0.60302734 8.17236328 C0.78851771 10.65500369 0.99004787 13.13648514 1.20556641 15.61669922 C1.72450434 21.82780068 2.09187371 27.89495242 1.71713257 34.12431335 C0.06016786 61.67447666 12.12811175 78.18172721 28.13183594 99.71337891 C33.71318906 107.26674052 38.84461533 115.11464456 43.99755859 122.96328735 C46.64967093 126.99531571 49.32910056 131.00905273 52.0078125 135.0234375 C52.768591 136.16529259 52.768591 136.16529259 53.54473877 137.33021545 C56.42156526 141.64560045 59.31173816 145.95160388 62.21688843 150.24797058 C63.92181426 152.76953944 65.6222169 155.29414276 67.32244873 157.81887817 C68.45940919 159.50239644 69.60383818 161.1808634 70.74853516 162.85913086 C71.41933105 163.85565674 72.09012695 164.85218262 72.78125 165.87890625 C73.35939453 166.7304126 73.93753906 167.58191895 74.53320312 168.45922852 C78.17235924 174.76293986 78.79293905 180.87346025 78 188 C76.0686338 194.92438678 72.10165542 201.65313977 65.75390625 205.28515625 C60.90897391 207.50475579 56.29026403 209.00791269 50.95800781 209.35717773 C49.76855309 209.43758049 49.76855309 209.43758049 48.55506897 209.51960754 C47.2671067 209.60078072 47.2671067 209.60078072 45.953125 209.68359375 C45.04545883 209.74338913 44.13779266 209.80318451 43.20262146 209.86479187 C40.21866351 210.05978537 37.23436688 210.24887626 34.25 210.4375 C33.23233551 210.50314148 32.21467102 210.56878296 31.16616821 210.63641357 C14.6790378 211.69982856 -1.81304752 212.60372374 -18.31738281 213.35327148 C-28.14566596 213.8049569 -28.14566596 213.8049569 -37.93432617 214.77246094 C-46.23148078 215.68641296 -54.66233947 215.7245733 -63 216 C-63.8544873 216.03013184 -64.70897461 216.06026367 -65.58935547 216.09130859 C-74.99097532 216.39077184 -82.3134099 216.38487506 -90.625 211.4375 C-96.11642554 205.80156326 -100.09559449 198.87167509 -100.3125 190.9375 C-100.15515611 181.63000346 -95.75938668 174.47472657 -91.49853516 166.43579102 C-83.5279265 151.33921031 -75.70053702 136.17065739 -67.9680233 120.95079708 C-65.41482358 115.92740687 -62.84806082 110.91196848 -60.24951172 105.91186523 C-57.70291645 101.01058941 -55.19297275 96.09206963 -52.70662308 91.15997505 C-51.7647831 89.30668233 -50.81055666 87.45962286 -49.84296799 85.61964226 C-43.36195636 73.26930131 -40.75486613 63.92897199 -42 50 C-42.07310472 47.8662601 -42.13706507 45.73214104 -42.18359375 43.59765625 C-42.26415492 41.75242178 -42.34863934 39.90735342 -42.4375 38.0625 C-42.47681641 37.13888672 -42.51613281 36.21527344 -42.55664062 35.26367188 C-42.76340397 30.71805916 -43.0660712 26.20980948 -43.53515625 21.68359375 C-44.17285405 15.12653894 -44.08646927 8.5812721 -44 2 C-39.82352985 1.70948982 -35.64670284 1.42497142 -31.46948242 1.14550781 C-30.05466258 1.05006552 -28.63994369 0.95311223 -27.2253418 0.85449219 C-18.14130757 0.22244721 -9.11134801 -0.14109411 0 0 Z " fill="#FDFDFE" transform="translate(337,328)"/>
<path d="M0 0 C0.87914062 0.46664062 1.75828125 0.93328125 2.6640625 1.4140625 C3.69660156 1.96191406 4.72914063 2.50976562 5.79296875 3.07421875 C11.97293134 6.51466545 18.05610902 10.11622034 24.12109375 13.75439453 C26.25688441 15.01999481 28.40944709 16.25045406 30.5703125 17.47265625 C31.24924561 17.86283936 31.92817871 18.25302246 32.62768555 18.6550293 C33.9018209 19.38704645 35.18162239 20.1093284 36.46801758 20.81958008 C40.7218166 23.29457174 42.9446012 25.73500017 45.2890625 30.0390625 C45.62580537 32.85865034 45.76082593 35.26132424 45.6796875 38.0625 C45.67402771 38.80867584 45.66836792 39.55485168 45.66253662 40.32363892 C45.64029148 42.68778887 45.59012234 45.05037709 45.5390625 47.4140625 C45.51898194 49.02471757 45.5007339 50.63539659 45.484375 52.24609375 C45.44046631 56.17767757 45.37152568 60.10810602 45.2890625 64.0390625 C45.85866699 64.20124268 46.42827148 64.36342285 47.01513672 64.53051758 C54.25670492 66.6424615 61.32875696 69.14372147 68.4140625 71.7265625 C69.56132812 72.14228516 70.70859375 72.55800781 71.890625 72.98632812 C74.69100115 74.00146448 77.49044616 75.01908679 80.2890625 76.0390625 C79.9590625 77.0290625 79.6290625 78.0190625 79.2890625 79.0390625 C79.14414127 80.44571176 79.04277319 81.8571758 78.97265625 83.26953125 C78.93076172 84.07197266 78.88886719 84.87441406 78.84570312 85.70117188 C78.80638672 86.53455078 78.76707031 87.36792969 78.7265625 88.2265625 C78.68337891 89.07154297 78.64019531 89.91652344 78.59570312 90.78710938 C78.48974732 92.87090683 78.3889123 94.95496353 78.2890625 97.0390625 C69.66814641 95.40515066 61.85738825 92.30565589 53.73242188 89.05273438 C52.70310547 88.65248047 51.67378906 88.25222656 50.61328125 87.83984375 C49.68604248 87.47028564 48.75880371 87.10072754 47.8034668 86.7199707 C44.18720803 85.74067701 42.40019458 86.45947918 39.14868164 88.15551758 C38.38160889 88.61853271 37.61453613 89.08154785 36.82421875 89.55859375 C35.51541748 90.34230347 35.51541748 90.34230347 34.18017578 91.1418457 C32.78001221 91.98815552 32.78001221 91.98815552 31.3515625 92.8515625 C29.37150408 94.02933596 27.39102422 95.20640113 25.41015625 96.3828125 C22.37909993 98.18957493 19.35151384 100.00127196 16.33251953 101.828125 C13.53538452 103.51824824 10.7260956 105.18637996 7.9140625 106.8515625 C7.06593994 107.37274658 6.21781738 107.89393066 5.34399414 108.4309082 C1.25494598 110.83127591 -2.55677426 113.01244735 -7.46923828 112.65454102 C-12.89963424 111.16357737 -17.66742155 107.97264976 -22.4609375 105.1015625 C-24.68260604 103.79687426 -26.90647367 102.49592147 -29.1328125 101.19921875 C-30.10831055 100.61793213 -31.08380859 100.03664551 -32.08886719 99.43774414 C-34.38380285 98.21356477 -36.13826243 97.34271792 -38.7109375 97.0390625 C-41.55298156 98.82617834 -43.86623596 100.98085746 -46.35180664 103.23583984 C-48.57118855 105.17844467 -50.78247422 106.72916711 -53.33422852 108.20288086 C-58.52278767 111.44243526 -62.8522934 114.74588531 -64.45239258 120.88278198 C-65.5045391 129.19743199 -65.09482205 137.5612833 -64.7734375 145.9140625 C-64.67686868 149.69493664 -64.6005587 153.4745964 -64.55088806 157.25637817 C-64.5151102 159.59874698 -64.44981536 161.94090282 -64.35108948 164.28146362 C-64.13951839 173.07703199 -64.13951839 173.07703199 -66.83837891 176.55957031 C-69.74681319 179.07002914 -72.53771569 181.02552907 -75.88671875 182.90625 C-76.45674118 183.23070099 -77.02676361 183.55515198 -77.61405945 183.88943481 C-79.41108431 184.90893657 -81.21683309 185.91165417 -83.0234375 186.9140625 C-84.25387394 187.6082795 -85.48369809 188.3035829 -86.71289062 189 C-89.70527497 190.69228685 -92.70570876 192.36966764 -95.7109375 194.0390625 C-95.55947266 194.87566406 -95.40800781 195.71226562 -95.25195312 196.57421875 C-94.68733321 199.71176819 -94.12898352 202.85035422 -93.57470703 205.98974609 C-93.33465838 207.34207388 -93.09219564 208.69397565 -92.84716797 210.04541016 C-90.34487332 223.86420466 -90.34487332 223.86420466 -90.7109375 231.0390625 C-91.6184375 231.4103125 -92.5259375 231.7815625 -93.4609375 232.1640625 C-97.03803685 233.69042601 -100.50220181 235.40960273 -103.9765625 237.15625 C-105.05196289 237.69620605 -106.12736328 238.23616211 -107.23535156 238.79248047 C-108.05229492 239.20385254 -108.86923828 239.61522461 -109.7109375 240.0390625 C-109.87360107 238.45822876 -109.87360107 238.45822876 -110.03955078 236.84545898 C-110.46285148 232.9017539 -110.97148647 228.97285546 -111.50537109 225.04272461 C-111.72377172 223.34729703 -111.9195387 221.64878275 -112.09130859 219.94799805 C-112.93561707 209.61548089 -112.93561707 209.61548089 -118.68383789 201.55322266 C-122.32822106 199.75632717 -125.88785146 198.40629745 -129.7109375 197.0390625 C-131.66961636 195.99570879 -133.60369822 194.90420653 -135.50390625 193.7578125 C-136.3961792 193.22929687 -137.28845215 192.70078125 -138.20776367 192.15625 C-139.09568604 191.62257813 -139.9836084 191.08890625 -140.8984375 190.5390625 C-142.31443237 189.69214844 -142.31443237 189.69214844 -143.7590332 188.828125 C-145.59759207 187.72552954 -147.43451827 186.62020548 -149.26953125 185.51171875 C-151.32725785 184.27049807 -153.39217346 183.04297529 -155.4609375 181.8203125 C-156.4303125 181.2325 -157.3996875 180.6446875 -158.3984375 180.0390625 C-159.18605469 179.5646875 -159.97367188 179.0903125 -160.78515625 178.6015625 C-163.91658462 176.06084982 -165.50101484 173.71610905 -166.01277161 169.62774658 C-166.15876731 166.55576687 -166.20542129 163.4973474 -166.21484375 160.421875 C-166.22482895 159.29135712 -166.23481415 158.16083923 -166.24510193 156.99606323 C-166.26027298 154.60727595 -166.26732804 152.21842525 -166.2668457 149.82958984 C-166.27340255 146.18349982 -166.32788764 142.54013913 -166.38476562 138.89453125 C-166.39356907 136.57032179 -166.39952236 134.24609942 -166.40234375 131.921875 C-166.4239003 130.83625275 -166.44545685 129.75063049 -166.46766663 128.6321106 C-166.41215312 122.4707478 -165.76312342 118.84962412 -161.36877441 114.39173889 C-158.35206561 111.93032019 -155.10481754 110.11927374 -151.6484375 108.3515625 C-150.06289559 107.50690776 -148.47830164 106.66047177 -146.89453125 105.8125 C-146.06034668 105.3700293 -145.22616211 104.92755859 -144.36669922 104.47167969 C-139.59622946 101.8983099 -134.90815182 99.18062687 -130.2109375 96.4765625 C-128.43001924 95.45384919 -126.6487944 94.43166945 -124.8671875 93.41015625 C-123.73506836 92.7593811 -123.73506836 92.7593811 -122.58007812 92.09545898 C-118.56643418 89.82703718 -115.27429341 89.23381786 -110.7109375 90.0390625 C-106.56891115 91.82541669 -102.76036254 94.09249945 -98.8984375 96.4140625 C-97.86267578 97.01734375 -96.82691406 97.620625 -95.75976562 98.2421875 C-92.01776731 100.43049061 -88.31818804 102.63422881 -84.7109375 105.0390625 C-80.46482319 104.89232853 -77.66716844 101.7135204 -74.6484375 99.0390625 C-73.59614891 98.12113693 -72.54271648 97.20452138 -71.48828125 96.2890625 C-70.6375 95.49580566 -70.6375 95.49580566 -69.76953125 94.68652344 C-67.7109375 93.0390625 -67.7109375 93.0390625 -64.85546875 91.64941406 C-61.24629232 89.5965201 -58.5858949 87.76163546 -56.7109375 84.0390625 C-54.77488754 74.85267465 -55.58042092 65.11309474 -55.8359375 55.7890625 C-55.9100136 51.90632044 -55.96813877 48.02475701 -55.99801636 44.14141846 C-56.01977762 41.73145403 -56.06865611 39.3215457 -56.1477356 36.91278076 C-56.26570277 28.79319379 -56.26570277 28.79319379 -53.40112305 24.89916992 C-52.51336182 24.28533447 -51.62560059 23.67149902 -50.7109375 23.0390625 C-50.13432373 22.62213135 -49.55770996 22.2052002 -48.96362305 21.77563477 C-48.430354 21.47197998 -47.89708496 21.1683252 -47.34765625 20.85546875 C-46.71972168 20.49179199 -46.09178711 20.12811523 -45.44482422 19.75341797 C-44.7695166 19.37330566 -44.09420898 18.99319336 -43.3984375 18.6015625 C-41.89407376 17.74168531 -40.39019745 16.88095499 -38.88671875 16.01953125 C-37.65816162 15.31836182 -37.65816162 15.31836182 -36.40478516 14.60302734 C-33.41345869 12.86635548 -30.45861848 11.07556846 -27.50390625 9.27734375 C-26.44147705 8.63788818 -25.37904785 7.99843262 -24.28442383 7.33959961 C-22.18247232 6.07419303 -20.08699866 4.79795147 -17.9987793 3.51000977 C-11.70574263 -0.24207868 -7.29984877 -2.58755446 0 0 Z " fill="#6965F6" transform="translate(301.7109375,91.9609375)"/>
<path d="M0 0 C4.51142602 1.98862926 8.75003349 4.38849381 13 6.875 C14.20448639 7.56459253 15.4095688 8.25314502 16.61523438 8.94067383 C20.09314727 10.93332348 23.5484593 12.96200146 27 15 C28.36898437 15.8055835 28.36898437 15.8055835 29.765625 16.62744141 C32.0207899 17.96465005 34.26433258 19.31799341 36.5 20.6875 C37.13292969 21.07212402 37.76585937 21.45674805 38.41796875 21.85302734 C41.66443307 23.90030611 43.98495865 25.72983325 46 29 C46.38768005 31.37680054 46.38768005 31.37680054 46.40405273 34.04052734 C46.41673691 35.04191742 46.42942108 36.0433075 46.44248962 37.07504272 C46.43955399 38.151138 46.43661835 39.22723328 46.43359375 40.3359375 C46.4388356 41.44804596 46.44407745 42.56015442 46.44947815 43.70596313 C46.45589996 46.05787318 46.45455933 48.40981535 46.44604492 50.76171875 C46.43754789 54.35475133 46.4662755 57.94618751 46.49804688 61.5390625 C46.49965933 63.82552036 46.49908052 66.11198102 46.49609375 68.3984375 C46.50732773 69.47048431 46.51856171 70.54253113 46.53013611 71.64706421 C46.47500307 77.56941209 46.20818783 81.45608574 42 86 C39.48217773 87.84277344 39.48217773 87.84277344 36.68359375 89.359375 C35.67232422 89.91753906 34.66105469 90.47570312 33.61914062 91.05078125 C32.04422852 91.89189453 32.04422852 91.89189453 30.4375 92.75 C28.35254067 93.89003281 26.26789113 95.0306324 24.18359375 96.171875 C23.26118896 96.6678418 22.33878418 97.16380859 21.38842773 97.67480469 C18.85331901 99.0390266 18.85331901 99.0390266 16 101 C17.12634878 110.60709254 18.44142375 120.16054061 20.03442383 129.70239258 C20.15970459 130.46575928 20.28498535 131.22912598 20.4140625 132.015625 C20.5270166 132.68883789 20.6399707 133.36205078 20.75634766 134.05566406 C21 136 21 136 21 140 C21.72348633 140.11158447 22.44697266 140.22316895 23.19238281 140.33813477 C26.1646444 141.03881313 28.27882805 142.07340455 30.921875 143.58984375 C31.85733154 144.122146 32.79278809 144.65444824 33.7565918 145.20288086 C35.23832886 146.06151733 35.23832886 146.06151733 36.75 146.9375 C37.76682861 147.52217041 38.78365723 148.10684082 39.83129883 148.70922852 C41.9010498 149.90097224 43.96917472 151.09554455 46.03564453 152.29296875 C48.7288696 153.8438689 51.43592471 155.36522489 54.15234375 156.875 C55.66433205 157.72868943 57.17606836 158.5828254 58.6875 159.4375 C59.37489258 159.81318115 60.06228516 160.1888623 60.77050781 160.57592773 C61.40698242 160.94145752 62.04345703 161.3069873 62.69921875 161.68359375 C63.24408936 161.98837646 63.78895996 162.29315918 64.3503418 162.60717773 C67.58936572 165.34191675 69.71114081 168.11130716 70.36524963 172.38816833 C70.51253136 175.29778527 70.52811517 178.18056168 70.49609375 181.09375 C70.49754898 182.15863647 70.49900421 183.22352295 70.50050354 184.32067871 C70.49884753 186.56651553 70.48731981 188.81236405 70.46655273 191.05810547 C70.43759751 194.48844798 70.44595127 197.91724402 70.45898438 201.34765625 C70.45274648 203.53386165 70.44435515 205.72006219 70.43359375 207.90625 C70.43652939 208.92827515 70.43946503 209.95030029 70.44248962 211.0032959 C70.3718847 216.3536859 70.23275061 220.50901637 67 225 C64.37963867 227.03930664 64.37963867 227.03930664 61.23046875 228.84765625 C60.66160446 229.18007828 60.09274017 229.51250031 59.50663757 229.85499573 C57.6792448 230.91821765 55.84013417 231.95901807 54 233 C52.78118288 233.70534848 51.56324353 234.4122159 50.34619141 235.12060547 C46.6805134 237.24791257 42.99768537 239.34422929 39.3125 241.4375 C38.03960484 242.16322083 36.76681795 242.8891316 35.49414062 243.61523438 C22.17621843 251.20442728 22.17621843 251.20442728 16 250 C11.22457682 247.85968619 6.78944864 245.19200583 2.3125 242.5 C1.11093821 241.79531734 -0.09153169 241.09218074 -1.29492188 240.390625 C-4.28134558 238.64232627 -7.25118266 236.86820795 -10.21331787 235.07910156 C-11.42278538 234.34862004 -12.63347652 233.62016133 -13.84527588 232.89355469 C-15.6355436 231.81935844 -17.42186607 230.73890028 -19.20703125 229.65625 C-20.24964111 229.02525391 -21.29225098 228.39425781 -22.36645508 227.74414062 C-25.92834588 225.38517633 -27.64002697 224.07991908 -29 220 C-29.11183587 218.36021742 -29.16888811 216.71641491 -29.19287109 215.07299805 C-29.20893402 214.07153244 -29.22499695 213.07006683 -29.24154663 212.03825378 C-29.28607401 207.46341695 -29.32705292 202.88872357 -29.35009766 198.3137207 C-29.36666301 195.90151323 -29.3939603 193.48935495 -29.43212891 191.07739258 C-29.48690966 187.59690931 -29.50877359 184.11757514 -29.5234375 180.63671875 C-29.54610687 179.56153488 -29.56877625 178.48635101 -29.59213257 177.37858582 C-29.56856197 169.01797688 -29.56856197 169.01797688 -26.8215332 165.50073242 C-24.08615448 163.07635895 -21.4985347 161.17011787 -18.33203125 159.3515625 C-17.27435547 158.73925781 -16.21667969 158.12695312 -15.12695312 157.49609375 C-14.03318359 156.87863281 -12.93941406 156.26117188 -11.8125 155.625 C-10.70712891 154.98433594 -9.60175781 154.34367188 -8.46289062 153.68359375 C-0.29905717 149 -0.29905717 149 2 149 C1.81824219 148.06728271 1.63648438 147.13456543 1.44921875 146.17358398 C0.77175242 142.68785274 0.10289396 139.20051441 -0.56347656 135.71264648 C-0.85217333 134.20796795 -1.14315212 132.70372529 -1.43652344 131.19995117 C-1.85964001 129.0289602 -2.27431931 126.85649486 -2.6875 124.68359375 C-2.81874268 124.01976181 -2.94998535 123.35592987 -3.08520508 122.67198181 C-3.88752868 118.39645394 -4.11802687 114.34486425 -4 110 C-5.07060669 109.83939087 -5.07060669 109.83939087 -6.1628418 109.67553711 C-9.29318037 108.93019275 -11.59290924 107.76886847 -14.39453125 106.19140625 C-15.42562012 105.61374512 -16.45670898 105.03608398 -17.51904297 104.44091797 C-18.60588379 103.82104004 -19.69272461 103.20116211 -20.8125 102.5625 C-22.48143311 101.61721436 -22.48143311 101.61721436 -24.18408203 100.65283203 C-30.63249168 96.97935659 -37.05249764 93.26177807 -43.375 89.375 C-44.01542236 88.98642822 -44.65584473 88.59785645 -45.31567383 88.19750977 C-48.60133979 86.13439611 -50.96866067 84.31031197 -53 81 C-53.39440918 78.5852356 -53.39440918 78.5852356 -53.41992188 75.86767578 C-53.43583374 74.84626495 -53.45174561 73.82485413 -53.46813965 72.77249146 C-53.46834106 71.6745224 -53.46854248 70.57655334 -53.46875 69.4453125 C-53.47636353 68.311008 -53.48397705 67.17670349 -53.49182129 66.00802612 C-53.5026246 63.60905152 -53.50547448 61.21002987 -53.50097656 58.81103516 C-53.50000539 55.1453577 -53.54160425 51.48178086 -53.5859375 47.81640625 C-53.59114538 45.48437936 -53.59383268 43.1523452 -53.59375 40.8203125 C-53.61014526 39.72639191 -53.62654053 38.63247131 -53.64343262 37.50540161 C-53.56650799 29.00964266 -53.56650799 29.00964266 -50.84985352 25.5012207 C-47.9479965 22.95435827 -45.18283687 21.03355066 -41.80859375 19.16015625 C-41.22263931 18.83011093 -40.63668488 18.50006561 -40.03297424 18.16001892 C-38.17394803 17.11605237 -36.30626891 16.08890441 -34.4375 15.0625 C-32.60327033 14.03986778 -30.77096547 13.01385196 -28.93887329 11.98739624 C-27.72925815 11.31215217 -26.51748198 10.64076454 -25.30355835 9.97329712 C-22.38210344 8.36282448 -19.53370332 6.70817605 -16.70361328 4.93701172 C-5.88755756 -1.82196038 -5.88755756 -1.82196038 0 0 Z " fill="#082C77" transform="translate(433,142)"/>
<path d="M0 0 C3.11108398 1.31005859 3.11108398 1.31005859 6.24609375 3.1484375 C6.8151091 3.47682114 7.38412445 3.80520477 7.97038269 4.14353943 C9.80189034 5.20587906 11.61965181 6.28948118 13.4375 7.375 C14.69326847 8.11125894 15.94961925 8.84652556 17.20654297 9.58081055 C20.81794354 11.69823524 24.41030748 13.84597732 28 16 C28.93505371 16.55800293 29.87010742 17.11600586 30.83349609 17.69091797 C33.10524655 19.05236497 35.36837056 20.42616556 37.625 21.8125 C38.26236084 22.20163574 38.89972168 22.59077148 39.55639648 22.99169922 C42.45987179 24.81879809 44.06238834 26.09358251 46 29 C46.17145815 31.61409145 46.23233432 34.11869674 46.1953125 36.73046875 C46.1924826 37.48088943 46.18965271 38.23131012 46.18673706 39.00447083 C46.17555062 41.39897675 46.15044928 43.79310731 46.125 46.1875 C46.11496819 47.81184355 46.10584269 49.43619297 46.09765625 51.06054688 C46.07561637 55.040509 46.0410974 59.02019088 46 63 C46.68562012 63.20278564 47.37124023 63.40557129 48.07763672 63.61450195 C48.97756348 63.88222412 49.87749023 64.14994629 50.8046875 64.42578125 C52.14249268 64.82277222 52.14249268 64.82277222 53.50732422 65.2277832 C56.067828 66.02101273 58.54022623 66.93409803 61 68 C59.55676531 72.73789165 57.62773267 76.98858151 55.375 81.375 C55.05015625 82.01566406 54.7253125 82.65632813 54.390625 83.31640625 C53.59742593 84.87947501 52.79922969 86.44000622 52 88 C51.67 87.34 51.34 86.68 51 86 C47.22165118 85.0370713 44.89947493 84.6045412 41.28125 86.1953125 C40.3634375 86.83210938 39.445625 87.46890625 38.5 88.125 C37.3821758 88.86822236 36.26076593 89.60606699 35.13671875 90.33984375 C34.50040527 90.75733887 33.8640918 91.17483398 33.20849609 91.60498047 C28.67613504 94.46789348 23.98296537 97.05849444 19.3125 99.6875 C17.87003906 100.50661865 17.87003906 100.50661865 16.3984375 101.34228516 C13.61000609 102.91579815 10.80771805 104.46121688 8 106 C7.10200684 106.50869629 6.20401367 107.01739258 5.27880859 107.54150391 C4.41723145 108.00862793 3.5556543 108.47575195 2.66796875 108.95703125 C1.91153076 109.37573486 1.15509277 109.79443848 0.37573242 110.22583008 C-3.90756717 111.62161088 -7.08561752 110.43699463 -11.04516602 108.54467773 C-12.10405029 107.93052002 -13.16293457 107.3163623 -14.25390625 106.68359375 C-14.83607407 106.34884537 -15.41824188 106.01409698 -16.01805115 105.66920471 C-17.87128216 104.60048346 -19.71675526 103.51908753 -21.5625 102.4375 C-22.77362618 101.73813098 -23.98521178 101.03955695 -25.19726562 100.34179688 C-28.21093884 98.60159107 -31.21053695 96.8388519 -34.20343018 95.06317139 C-35.4119343 94.34800464 -36.62271936 93.63667975 -37.83563232 92.92901611 C-39.61371054 91.89060892 -41.38370363 90.83953937 -43.15234375 89.78515625 C-44.18222412 89.17679932 -45.21210449 88.56844238 -46.27319336 87.94165039 C-49.37647391 85.73192792 -51.12179507 84.34259598 -53 81 C-53.60418491 77.20063707 -53.60811974 73.44276208 -53.6015625 69.6015625 C-53.61013275 68.49324066 -53.618703 67.38491882 -53.62753296 66.24301147 C-53.63900561 63.90129322 -53.64003026 61.5595037 -53.63134766 59.21777344 C-53.62503346 55.64393796 -53.67193095 52.07342535 -53.72265625 48.5 C-53.72720324 46.22135833 -53.72860876 43.94270779 -53.7265625 41.6640625 C-53.74498199 40.60031403 -53.76340149 39.53656555 -53.78237915 38.44058228 C-53.70713213 32.37379898 -53.05495013 28.69825835 -48.65240479 24.36282349 C-46.36862845 22.47927531 -44.08409006 20.96780102 -41.47265625 19.5703125 C-39.92360596 18.72460693 -39.92360596 18.72460693 -38.34326172 17.86181641 C-37.26061035 17.28866699 -36.17795898 16.71551758 -35.0625 16.125 C-32.81518484 14.90850369 -30.56908626 13.68975719 -28.32421875 12.46875 C-27.23931152 11.8809375 -26.1544043 11.293125 -25.03662109 10.6875 C-19.91161593 7.83945082 -14.99304905 4.6819204 -10.0859375 1.4765625 C-6.34681144 -0.31253832 -4.12023737 -0.32211034 0 0 Z " fill="#082C76" transform="translate(214,323)"/>
<path d="M0 0 C0.78012451 0.176521 1.56024902 0.35304199 2.36401367 0.53491211 C5.96980351 1.34516903 9.57856275 2.14138411 13.1875 2.9375 C14.41404297 3.21529297 15.64058594 3.49308594 16.90429688 3.77929688 C23.04346889 5.12375935 28.81629214 6.10812861 35.10546875 6.30078125 C40.44597354 6.6337223 40.44597354 6.6337223 42.77514648 8.17358398 C44.1455876 9.79202198 45.12567009 11.38095624 46.125 13.25 C46.924207 14.53467572 47.72906343 15.81585132 48.5390625 17.09375 C48.93899414 17.74601562 49.33892578 18.39828125 49.75097656 19.0703125 C51.75763254 22.1705097 54.09338203 24.95501469 56.5 27.75 C56.96180664 28.2869751 57.42361328 28.8239502 57.89941406 29.37719727 C79.34694987 54.0011689 106.99172839 69.55303553 138 79 C131.88081729 84.58707987 123.39334327 85.46200282 115.46484375 85.87890625 C114.56425232 85.93587173 113.66366089 85.99283722 112.73577881 86.05152893 C109.80360225 86.23372866 106.87073897 86.39837564 103.9375 86.5625 C101.89358348 86.68581772 99.84971987 86.81001514 97.8059082 86.93505859 C82.438027 87.86112547 67.06130079 88.65561545 51.68139648 89.35375977 C41.8537137 89.80495617 41.8537137 89.80495617 32.06567383 90.77246094 C23.76851922 91.68641296 15.33766053 91.7245733 7 92 C6.1455127 92.03013184 5.29102539 92.06026367 4.41064453 92.09130859 C-4.99097532 92.39077184 -12.3134099 92.38487506 -20.625 87.4375 C-26.11642554 81.80156326 -30.09559449 74.87167509 -30.3125 66.9375 C-30.14452506 57.00113631 -25.07595565 49.09328886 -20.50097656 40.53979492 C-15.96876779 32.04231252 -11.67083627 23.43103043 -7.375 14.8125 C-7.00967163 14.07988953 -6.64434326 13.34727905 -6.26794434 12.59246826 C-4.17592876 8.39631937 -2.08674695 4.1987713 0 0 Z " fill="#92B1F3" transform="translate(267,452)"/>
<path d="M0 0 C4.16391426 1.82924277 8.03046018 4.054163 11.9375 6.375 C13.03473389 7.01115234 14.13196777 7.64730469 15.26245117 8.30273438 C17.47490742 9.58779341 19.68339428 10.87971274 21.88769531 12.17871094 C24.66469441 13.80378258 27.45960346 15.38522086 30.2734375 16.9453125 C31.78670478 17.79643698 33.2997442 18.64796677 34.8125 19.5 C35.4923999 19.8717334 36.1722998 20.2434668 36.87280273 20.62646484 C41.29461627 23.17289215 43.66628976 25.46963671 46 30 C46.56663846 33.7023691 46.53719763 37.35427365 46.49609375 41.09375 C46.49754898 42.15863647 46.49900421 43.22352295 46.50050354 44.32067871 C46.49884753 46.56651553 46.48731981 48.81236405 46.46655273 51.05810547 C46.43759751 54.48844798 46.44595127 57.91724402 46.45898438 61.34765625 C46.45274648 63.53386165 46.44435515 65.72006219 46.43359375 67.90625 C46.43652939 68.92827515 46.43946503 69.95030029 46.44248962 71.0032959 C46.3718847 76.3536859 46.23275061 80.50901637 43 85 C40.37963867 87.03930664 40.37963867 87.03930664 37.23046875 88.84765625 C36.66160446 89.18007828 36.09274017 89.51250031 35.50663757 89.85499573 C33.6792448 90.91821765 31.84013417 91.95901807 30 93 C28.78118288 93.70534848 27.56324353 94.4122159 26.34619141 95.12060547 C22.6805134 97.24791257 18.99768537 99.34422929 15.3125 101.4375 C14.03960484 102.16322083 12.76681795 102.8891316 11.49414062 103.61523438 C-1.82378157 111.20442728 -1.82378157 111.20442728 -8 110 C-12.77542318 107.85968619 -17.21055136 105.19200583 -21.6875 102.5 C-22.88906179 101.79531734 -24.09153169 101.09218074 -25.29492188 100.390625 C-28.28134558 98.64232627 -31.25118266 96.86820795 -34.21331787 95.07910156 C-35.42278538 94.34862004 -36.63347652 93.62016133 -37.84527588 92.89355469 C-39.6355436 91.81935844 -41.42186607 90.73890028 -43.20703125 89.65625 C-44.24964111 89.02525391 -45.29225098 88.39425781 -46.36645508 87.74414062 C-49.92834588 85.38517633 -51.64002697 84.07991908 -53 80 C-53.11183587 78.36021742 -53.16888811 76.71641491 -53.19287109 75.07299805 C-53.20893402 74.07153244 -53.22499695 73.07006683 -53.24154663 72.03825378 C-53.28607401 67.46341695 -53.32705292 62.88872357 -53.35009766 58.3137207 C-53.36666301 55.90151323 -53.3939603 53.48935495 -53.43212891 51.07739258 C-53.48690966 47.59690931 -53.50877359 44.11757514 -53.5234375 40.63671875 C-53.54610687 39.56153488 -53.56877625 38.48635101 -53.59213257 37.37858582 C-53.56856007 29.01730229 -53.56856007 29.01730229 -50.85424805 25.51269531 C-47.95131206 22.95713829 -45.1883912 21.03663444 -41.80859375 19.16015625 C-41.22263931 18.83011093 -40.63668488 18.50006561 -40.03297424 18.16001892 C-38.17394803 17.11605237 -36.30626891 16.08890441 -34.4375 15.0625 C-32.60327033 14.03986778 -30.77096547 13.01385196 -28.93887329 11.98739624 C-27.72925815 11.31215217 -26.51748198 10.64076454 -25.30355835 9.97329712 C-22.38210344 8.36282448 -19.53370332 6.70817605 -16.70361328 4.93701172 C-5.91936466 -1.80208406 -5.91936466 -1.80208406 0 0 Z " fill="#072B76" transform="translate(457,282)"/>
<path d="M0 0 C0.33 0 0.66 0 1 0 C1.25652344 1.12792969 1.51304687 2.25585938 1.77734375 3.41796875 C5.44158891 18.74686493 10.91167324 33.42775102 19 47 C33.46041341 47.79679829 45.88051601 43.79195621 58.8046875 37.671875 C66.73801606 33.94118791 75.04481329 30.27390378 84 31 C84.33 30.34 84.66 29.68 85 29 C88.93101002 34.81097449 92.85930705 40.62377642 96.78588867 46.43774414 C98.11667266 48.40754812 99.44803453 50.37696183 100.7800293 52.34594727 C105.20384575 58.88586425 109.61297906 65.43533689 114 72 C114.84446686 73.26254608 114.84446686 73.26254608 115.70599365 74.55059814 C117.25392974 76.87328596 118.79120273 79.20260178 120.32421875 81.53515625 C120.77360306 82.20872665 121.22298737 82.88229706 121.68598938 83.57627869 C126.39462376 90.80043511 127.96806237 97.3950012 127 106 C126.05458055 109.27064027 124.73108446 112.07525926 123 115 C122.62617188 115.63550781 122.25234375 116.27101563 121.8671875 116.92578125 C120.6875 118.625 120.6875 118.625 118 121 C96.96530189 119.66119425 75.16659373 105.61984103 59 93 C58.05125 92.27296875 57.1025 91.5459375 56.125 90.796875 C44.26396471 81.42935281 34.72897758 70.85287374 25.71484375 58.78515625 C25.22749756 58.13289063 24.74015137 57.480625 24.23803711 56.80859375 C23 55 23 55 21.6875 52.06640625 C19.67492125 49.60192903 19.03176789 49.59406513 15.97265625 49.1796875 C14.33733048 49.05773327 12.70030105 48.95728566 11.0625 48.875 C9.33672841 48.74352504 7.61144287 48.60550565 5.88671875 48.4609375 C4.62867432 48.35604004 4.62867432 48.35604004 3.34521484 48.24902344 C-1.5753402 47.72654102 -6.25212067 46.33311327 -11 45 C-13.99374383 44.3008879 -16.99532148 43.65101368 -20 43 C-19.38592885 37.88572857 -17.05177015 33.72358997 -14.74609375 29.19921875 C-14.32578384 28.36284378 -13.90547394 27.52646881 -13.47242737 26.66474915 C-12.13307328 24.00278892 -10.78542049 21.34513108 -9.4375 18.6875 C-8.52614164 16.87983502 -7.615328 15.07189529 -6.70507812 13.26367188 C-4.47635268 8.83923895 -2.24017683 4.41864515 0 0 Z " fill="#D0DBFC" transform="translate(288,410)"/>
<path d="M0 0 C2.01306603 0.92105759 3.95995134 1.87206114 5.89257812 2.95385742 C6.65570313 3.37924805 7.41882813 3.80463867 8.20507812 4.24291992 C8.99398437 4.68893555 9.78289062 5.13495117 10.59570312 5.59448242 C11.36914062 6.0250293 12.14257812 6.45557617 12.93945312 6.89916992 C14.49463474 7.77069787 16.03847036 8.66278023 17.5703125 9.57470703 C19.79587073 10.88991322 19.79587073 10.88991322 22.13671875 11.70996094 C24.70358505 12.82035669 26.0643005 13.66703095 27.84570312 15.84448242 C29.49112762 21.30458911 29.78570981 26.60430449 29.84570312 32.28198242 C29.87224472 33.43790894 29.87224472 33.43790894 29.89932251 34.6171875 C29.95096753 41.3368468 29.81642517 47.37912845 25.50341797 52.7746582 C19.75418805 57.39993525 13.29581447 60.36224416 6.3894043 62.87182617 C3.66206922 63.80733668 3.66206922 63.80733668 0.84570312 65.84448242 C-3.4787111 65.53667698 -6.63853478 63.62958434 -10.33007812 61.46557617 C-11.89495972 60.55569946 -11.89495972 60.55569946 -13.49145508 59.62744141 C-14.80331787 58.85343994 -16.11518066 58.07943848 -17.46679688 57.28198242 C-21.65367187 54.82760742 -25.84054687 52.37323242 -30.15429688 49.84448242 C-30.15429688 38.62448242 -30.15429688 27.40448242 -30.15429688 15.84448242 C-25.61679687 13.18385742 -21.07929688 10.52323242 -16.40429688 7.78198242 C-14.97891602 6.93756592 -13.55353516 6.09314941 -12.08496094 5.22314453 C-10.95799805 4.57095947 -9.83103516 3.91877441 -8.66992188 3.24682617 C-7.79376221 2.7209491 -7.79376221 2.7209491 -6.89990234 2.18444824 C-2.73650446 -0.19754684 -2.73650446 -0.19754684 0 0 Z " fill="#FA7C9F" transform="translate(454.154296875,304.155517578125)"/>
<path d="M0 0 C1.37086527 0.65939499 2.71947302 1.36635594 4.046875 2.109375 C4.81 2.53476563 5.573125 2.96015625 6.359375 3.3984375 C7.14828125 3.84445313 7.9371875 4.29046875 8.75 4.75 C9.5234375 5.18054688 10.296875 5.61109375 11.09375 6.0546875 C12.64893161 6.92621545 14.19276724 7.81829781 15.72460938 8.73022461 C17.9501676 10.0454308 17.9501676 10.0454308 20.29101562 10.86547852 C22.85788192 11.97587427 24.21859737 12.82254853 26 15 C27.64542449 20.46010669 27.94000668 25.75982207 28 31.4375 C28.0265416 32.59342651 28.0265416 32.59342651 28.05361938 33.77270508 C28.1052644 40.49236438 27.97072204 46.53464603 23.65771484 51.93017578 C17.90848492 56.55545283 11.45011135 59.51776174 4.54370117 62.02734375 C1.8163661 62.96285426 1.8163661 62.96285426 -1 65 C-10.81194024 63.98911045 -21.12281416 58.21394685 -28.56982422 52.03125 C-33.42315578 45.97750632 -33.43567961 39.0687965 -33.375 31.5625 C-33.38665192 30.80993927 -33.39830383 30.05737854 -33.41030884 29.28201294 C-33.41723885 24.12881415 -32.9367611 19.80577036 -31 15 C-27.09567411 11.29547631 -22.87098333 9.20510732 -18 7 C-16.58844379 6.16854151 -15.18786271 5.31757977 -13.80859375 4.43359375 C-12.69613281 3.77488281 -11.58367187 3.11617187 -10.4375 2.4375 C-9.57415039 1.90672852 -9.57415039 1.90672852 -8.69335938 1.36523438 C-5.28848578 -0.6291047 -3.71322951 -1.28982172 0 0 Z " fill="#D0DBFC" transform="translate(432,165)"/>
<path d="M0 0 C10.31639089 0.49194571 20.9302664 5.43036866 28.75732422 11.984375 C36.05456948 21.79665167 32.45219595 38.59653824 31 50 C27.25671884 52.17313717 23.50316109 54.32692859 19.73901367 56.46362305 C18.4606444 57.1928006 17.18520444 57.92713923 15.9128418 58.66674805 C14.0809115 59.73042644 12.23916846 60.77495812 10.39453125 61.81640625 C9.28956299 62.45006104 8.18459473 63.08371582 7.04614258 63.73657227 C3.61003193 65.16174439 2.44622053 65.25444756 -1 64 C-2.93735837 63.02754362 -4.83688591 61.97780574 -6.703125 60.875 C-7.7653125 60.25109375 -8.8275 59.6271875 -9.921875 58.984375 C-11.02015625 58.32953125 -12.1184375 57.6746875 -13.25 57 C-14.36375 56.34515625 -15.4775 55.6903125 -16.625 55.015625 C-24.8234747 50.1765253 -24.8234747 50.1765253 -26 49 C-26.08847743 46.47905924 -26.11527301 43.98569107 -26.09765625 41.46484375 C-26.0962413 40.71159317 -26.09482635 39.95834259 -26.09336853 39.18226624 C-26.08775376 36.7673044 -26.07519883 34.35243399 -26.0625 31.9375 C-26.0574869 30.30403779 -26.05292366 28.67057414 -26.04882812 27.03710938 C-26.03777954 23.02470415 -26.02050506 19.01236759 -26 15 C-24.8718689 14.37170288 -24.8718689 14.37170288 -23.72094727 13.73071289 C-20.9378088 12.17964254 -18.15551068 10.62707856 -15.3737793 9.07348633 C-14.16838663 8.40068258 -12.96265835 7.72847976 -11.7565918 7.05688477 C-10.02565339 6.09288084 -8.29600957 5.12655352 -6.56640625 4.16015625 C-5.52427979 3.57886963 -4.48215332 2.99758301 -3.40844727 2.39868164 C-1.12440597 1.20986135 -1.12440597 1.20986135 0 0 Z " fill="#FBCA50" transform="translate(208,346)"/>
<path d="M0 0 C2.75779285 1.28781336 5.40564955 2.62227032 8.03662109 4.15209961 C8.95572266 4.68254883 9.87482422 5.21299805 10.82177734 5.75952148 C12.23523438 6.58613281 12.23523438 6.58613281 13.67724609 7.42944336 C15.56770159 8.52478803 17.45831848 9.61985423 19.34912109 10.71459961 C20.59580566 11.44175171 20.59580566 11.44175171 21.86767578 12.18359375 C23.19991835 12.94904891 24.55297047 13.67980555 25.92724609 14.36694336 C25.92724609 25.25694336 25.92724609 36.14694336 25.92724609 47.36694336 C19.89443359 50.80100586 19.89443359 50.80100586 13.73974609 54.30444336 C12.48009033 55.02623779 11.22043457 55.74803223 9.92260742 56.49169922 C8.9199585 57.05767822 7.91730957 57.62365723 6.88427734 58.20678711 C5.86309814 58.78807373 4.84191895 59.36936035 3.78979492 59.96826172 C-0.1847802 61.91029506 -2.59165243 62.74969282 -6.93530273 61.62719727 C-15.15537202 58.21724663 -23.50358775 54.52779095 -29.07275391 47.36694336 C-32.78475614 37.32153975 -30.53829047 24.67800766 -29.07275391 14.36694336 C-25.4951805 12.16764669 -21.90262457 9.99606808 -18.29394531 7.84838867 C-17.06945343 7.11453557 -15.84931068 6.37337321 -14.63378906 5.62475586 C-12.88227825 4.54778437 -11.11663786 3.49835393 -9.34619141 2.45288086 C-8.28835449 1.81398926 -7.23051758 1.17509766 -6.140625 0.5168457 C-3.07275391 -0.63305664 -3.07275391 -0.63305664 0 0 Z " fill="#FB8E03" transform="translate(298.07275390625,116.633056640625)"/>
<path d="M0 0 C1.37152222 0.433125 1.37152222 0.433125 2.77075195 0.875 C10.67912554 3.87309013 18.69293349 7.1859043 24 14 C27.62850488 24.04862448 25.39829964 36.69381454 24 47 C20.42242659 49.19929667 16.82987066 51.37087528 13.22119141 53.51855469 C11.99669953 54.25240779 10.77655677 54.99357015 9.56103516 55.7421875 C7.80952434 56.81915899 6.04388395 57.86858943 4.2734375 58.9140625 C2.68668213 59.8723999 2.68668213 59.8723999 1.06787109 60.85009766 C-2 62 -2 62 -5.07275391 61.36694336 C-7.83054676 60.07913 -10.47840345 58.74467304 -13.109375 57.21484375 C-14.02847656 56.68439453 -14.94757813 56.15394531 -15.89453125 55.60742188 C-16.83683594 55.05634766 -17.77914062 54.50527344 -18.75 53.9375 C-20.6404555 52.84215533 -22.53107239 51.74708913 -24.421875 50.65234375 C-25.25299805 50.16757568 -26.08412109 49.68280762 -26.94042969 49.18334961 C-28.27267225 48.41789445 -29.62572438 47.68713781 -31 47 C-31 36.11 -31 25.22 -31 14 C-24.7196875 10.2565625 -24.7196875 10.2565625 -18.3125 6.4375 C-17.00063721 5.64529053 -15.68877441 4.85308105 -14.3371582 4.03686523 C-12.77227661 3.11949585 -12.77227661 3.11949585 -11.17578125 2.18359375 C-9.58117065 1.23311157 -9.58117065 1.23311157 -7.9543457 0.26342773 C-4.57188485 -1.18308371 -3.43070148 -1.14322843 0 0 Z " fill="#B0D853" transform="translate(190,208)"/>
<path d="M0 0 C0.93972656 0.00902344 1.87945312 0.01804687 2.84765625 0.02734375 C3.53730469 0.03894531 4.22695313 0.05054688 4.9375 0.0625 C5.59095412 5.04508767 5.99910639 9.85894192 5.96875 14.88671875 C5.96423828 15.86084717 5.95972656 16.83497559 5.95507812 17.83862305 C5.94637695 18.93944214 5.94637695 18.93944214 5.9375 20.0625 C-1.51295688 20.58979342 -8.96377506 21.11170612 -16.41506386 21.62710571 C-19.87650342 21.86669293 -23.33780348 22.10800167 -26.79882812 22.35351562 C-30.79520783 22.63692466 -34.79210505 22.91235787 -38.7890625 23.1875 C-40.00735748 23.27499512 -41.22565247 23.36249023 -42.48086548 23.45263672 C-50.69581588 24.01008153 -58.83002588 24.16139683 -67.0625 24.0625 C-68.21232602 19.97246141 -68.17344256 16.03072949 -68.125 11.8125 C-68.12048828 11.06742187 -68.11597656 10.32234375 -68.11132812 9.5546875 C-68.09959246 7.7239236 -68.0816585 5.89320127 -68.0625 4.0625 C-67.0964962 4.00945457 -67.0964962 4.00945457 -66.11097717 3.95533752 C-59.37809675 3.58512606 -52.64541744 3.21140589 -45.9128418 2.83569336 C-43.40377663 2.69613015 -40.89466237 2.5574467 -38.38549805 2.41967773 C-34.76858307 2.22093037 -31.15185938 2.01896792 -27.53515625 1.81640625 C-26.42229752 1.7559462 -25.30943878 1.69548615 -24.16285706 1.63319397 C-16.1132741 1.17783847 -8.0551237 -0.10196359 0 0 Z " fill="#8FAEF0" transform="translate(344.0625,286.9375)"/>
<path d="M0 0 C2.092766 3.55203406 2.64591395 6.98384069 3.2890625 11.03125 C3.39721283 11.70418091 3.50536316 12.37711182 3.61679077 13.07043457 C3.84335894 14.48868016 4.0667354 15.90743889 4.28710938 17.32666016 C4.62403143 19.49377006 4.97132514 21.65902253 5.3203125 23.82421875 C7 34.40188021 7 34.40188021 7 39 C6.05125 39.20625 5.1025 39.4125 4.125 39.625 C-0.34282172 40.86758436 -3.98414283 43.27468867 -7.86328125 45.7578125 C-10 47 -10 47 -12 47 C-17.76303063 19.83596307 -17.76303063 19.83596307 -18 9 C-17.45472656 8.76925781 -16.90945313 8.53851563 -16.34765625 8.30078125 C-10.6953623 5.85628489 -5.33303057 3.0762635 0 0 Z " fill="#6965F5" transform="translate(447,243)"/>
<path d="M0 0 C0.52078125 0.73605469 1.0415625 1.47210938 1.578125 2.23046875 C4.28958916 5.33115922 7.22985057 7.27390797 10.75 9.3125 C11.35199219 9.67150391 11.95398438 10.03050781 12.57421875 10.40039062 C14.04440804 11.2755033 15.52151591 12.13897531 17 13 C15.41658719 17.35697251 12.02096448 19.82348777 8.5625 22.6875 C7.94084961 23.20989258 7.31919922 23.73228516 6.67871094 24.27050781 C5.40652083 25.33706515 4.13161273 26.40038888 2.85400391 27.46044922 C1.12831153 28.89345108 -0.58736729 30.33751765 -2.30078125 31.78515625 C-9.73692552 38 -9.73692552 38 -12 38 C-12.56203125 37.25363281 -13.1240625 36.50726563 -13.703125 35.73828125 C-16.41289998 32.50775019 -19.00791191 31.09596492 -22.75 29.1875 C-23.92046875 28.58292969 -25.0909375 27.97835938 -26.296875 27.35546875 C-27.63492187 26.68451172 -27.63492187 26.68451172 -29 26 C-28.32582031 25.47148437 -27.65164063 24.94296875 -26.95703125 24.3984375 C-23.45603957 21.55879564 -20.07629981 18.59669056 -16.6875 15.625 C-12.60170614 12.05030326 -8.53774435 8.54640973 -4.125 5.375 C-0.78725554 3.3017027 -0.78725554 3.3017027 0 0 Z " fill="#6865F5" transform="translate(404,362)"/>
<path d="M0 0 C5.57894737 3.15789474 5.57894737 3.15789474 7 6 C7.65753556 10.78122289 7.71680862 13.98803489 4.875 18 C1.64850802 20.24451616 -0.07561572 21 -4 21 C-7.55965681 19.74365054 -9.49484296 18.62302702 -11.875 15.6875 C-13.25127684 12.39972755 -13.57684834 10.53319608 -13 7 C-9.54771211 1.50191188 -6.51801872 -0.62673257 0 0 Z " fill="#6966F6" transform="translate(275,487)"/>
<path d="M0 0 C3.1521363 0.06247477 5.20893007 0.50429272 7.8125 2.3125 C10.75158436 5.91287834 11.08245019 7.70074711 10.78125 12.21875 C10.09239736 15.38747216 8.64450445 17.18017228 6.3125 19.375 C3.03022924 21.01613538 -0.16767548 21.16370142 -3.6875 20.375 C-7.69144268 17.54027587 -9.46799544 14.53238766 -10.375 9.75 C-9.51957733 5.55065233 -7.93974842 4.0719865 -4.6875 1.375 C-3.6875 0.375 -3.6875 0.375 0 0 Z " fill="#6965F6" transform="translate(326.6875,503.625)"/>
<path d="M0 0 C3.1521363 0.06247477 5.20893007 0.50429272 7.8125 2.3125 C10.75094324 5.91209297 11.08605031 7.70109301 10.77734375 12.21875 C10.08678803 15.42200006 8.70425425 17.18825326 6.3125 19.375 C2.67467368 20.58760877 0.13514001 20.77044552 -3.6875 20.375 C-6.71836436 18.33246098 -8.25006909 16.71888498 -9.390625 13.21484375 C-9.8280804 10.78858647 -10.00663839 8.82172769 -9.6875 6.375 C-7.3125 3.375 -7.3125 3.375 -4.6875 1.375 C-3.6875 0.375 -3.6875 0.375 0 0 Z " fill="#6A67F7" transform="translate(373.6875,478.625)"/>
<path d="M0 0 C10.55808656 3.07517084 10.55808656 3.07517084 15 5 C13.55676531 9.73789165 11.62773267 13.98858151 9.375 18.375 C9.05015625 19.01566406 8.7253125 19.65632813 8.390625 20.31640625 C7.59742593 21.87947501 6.79922969 23.44000622 6 25 C5.67 24.34 5.34 23.68 5 23 C3.33499557 22.65846063 1.66821323 22.32550502 0 22 C-0.66 21.34 -1.32 20.68 -2 20 C-1.67 19.67 -1.34 19.34 -1 19 C-0.84379445 17.58672053 -0.74943827 16.1664541 -0.68359375 14.74609375 C-0.64169922 13.89208984 -0.59980469 13.03808594 -0.55664062 12.15820312 C-0.51732422 11.26037109 -0.47800781 10.36253906 -0.4375 9.4375 C-0.39431641 8.53580078 -0.35113281 7.63410156 -0.30664062 6.70507812 C-0.20021858 4.47021515 -0.09820012 2.23523692 0 0 Z " fill="#6764F4" transform="translate(260,386)"/>
</svg>
