<?xml version="1.0" encoding="UTF-8"?>
<svg version="1.1" xmlns="http://www.w3.org/2000/svg" width="640" height="640">
<path d="M0 0 C211.2 0 422.4 0 640 0 C640 211.2 640 422.4 640 640 C428.8 640 217.6 640 0 640 C0 428.8 0 217.6 0 0 Z " fill="#FEFEFE" transform="translate(0,0)"/>
<path d="M0 0 C2.7980957 1.21826172 2.7980957 1.21826172 5.67578125 2.9296875 C6.74368896 3.55576904 7.81159668 4.18185059 8.91186523 4.8269043 C10.03407471 5.50277588 11.15628418 6.17864746 12.3125 6.875 C13.47599001 7.56466224 14.64013883 8.25321422 15.80493164 8.94067383 C18.12458521 10.31167288 20.44007801 11.68933836 22.75292969 13.07177734 C25.61425871 14.77093348 28.49019821 16.436919 31.3828125 18.08203125 C32.16358154 18.52885254 32.94435059 18.97567383 33.7487793 19.43603516 C35.16664421 20.24674074 36.58722732 21.0527182 38.01098633 21.85302734 C41.47693539 23.8618193 43.92546616 25.55937326 46 29 C46.25741577 31.30950928 46.25741577 31.30950928 46.09912109 33.88183594 C46.02846184 35.33613258 46.02846184 35.33613258 45.95637512 36.81980896 C45.89600571 37.86411575 45.83563629 38.90842255 45.7734375 39.984375 C43.33538528 64.69741497 43.33538528 64.69741497 51.44921875 86.72265625 C55.70054475 90.27339773 60.28493414 92.74078903 65.40283203 94.82275391 C68.81495204 96.36940203 71.43607549 98.51565594 74.24389648 100.9675293 C75.92930199 102.18321976 75.92930199 102.18321976 77.85888672 101.85864258 C80.65258363 100.73829685 83.20131646 99.35332168 85.82421875 97.875 C86.93474609 97.25109375 88.04527344 96.6271875 89.18945312 95.984375 C89.7631665 95.65888672 90.33687988 95.33339844 90.92797852 94.99804688 C92.68944449 93.99889703 94.4546818 93.00669684 96.22070312 92.015625 C101.40214993 89.4166671 101.40214993 89.4166671 106 86 C114.84466062 84.83719265 120.23564157 88.39094856 127.625 92.9375 C128.78042233 93.63104722 129.93684319 94.32293356 131.09423828 95.01318359 C133.36927283 96.37351849 135.63610954 97.74511943 137.90039062 99.12353516 C140.54602821 100.72517114 143.20657015 102.28826665 145.890625 103.82421875 C157.23104609 110.37248295 157.23104609 110.37248295 160 115 C160.60127858 118.89396891 160.56031244 122.75380492 160.53125 126.6875 C160.5350769 127.82276123 160.53890381 128.95802246 160.54284668 130.12768555 C160.54556537 132.52491138 160.53820731 134.92216689 160.52148438 137.31933594 C160.50007587 140.98700142 160.52128935 144.65270789 160.546875 148.3203125 C160.54423172 150.65104599 160.53910674 152.98177826 160.53125 155.3125 C160.53934692 156.40844482 160.54744385 157.50438965 160.55578613 158.63354492 C160.46316237 166.16003916 160.46316237 166.16003916 158.34765625 169.99658203 C155.66203474 172.28840921 152.99246081 174.02202716 149.90625 175.7421875 C149.31888062 176.07364777 148.73151123 176.40510803 148.12634277 176.74661255 C146.25621239 177.79924912 144.37853384 178.83744896 142.5 179.875 C141.27028522 180.56282306 140.04111359 181.25161814 138.8125 181.94140625 C136.99073631 182.96410075 135.16834096 183.98546293 133.3425293 185.00091553 C128.27353181 187.82338642 123.2845181 190.76717239 118.31054688 193.75439453 C116 195 116 195 114 195 C113.96261719 195.96035156 113.92523438 196.92070312 113.88671875 197.91015625 C113.31645065 210.37414612 111.74030398 222.65088151 110 235 C111.07217773 235.40750488 111.07217773 235.40750488 112.16601562 235.82324219 C117.1539113 237.89437047 121.78900295 240.62101663 126.5 243.25 C127.53253906 243.81074219 128.56507813 244.37148438 129.62890625 244.94921875 C130.62792969 245.50738281 131.62695312 246.06554687 132.65625 246.640625 C133.56181641 247.14110352 134.46738281 247.64158203 135.40039062 248.15722656 C139.54734434 251.09685904 142.53085874 253.40622748 143.45352173 258.50741577 C143.64574578 261.61170705 143.66670793 264.67512435 143.62890625 267.78515625 C143.63131821 268.91900253 143.63373016 270.05284882 143.63621521 271.22105408 C143.63523781 273.61233018 143.62187016 276.00362921 143.59692383 278.39477539 C143.56258279 282.05367866 143.57628106 285.71017057 143.59570312 289.36914062 C143.58880544 291.69532277 143.57913376 294.0214987 143.56640625 296.34765625 C143.57136612 297.44046402 143.57632599 298.53327179 143.58143616 299.65919495 C143.46499532 307.16883265 143.46499532 307.16883265 141.31591797 311.01025391 C138.78065939 313.18844887 136.29763376 314.85557853 133.37890625 316.48828125 C132.28392822 317.10880371 131.1889502 317.72932617 130.06079102 318.36865234 C128.8947554 319.01671204 127.72865738 319.66465945 126.5625 320.3125 C124.78918241 321.31203233 123.01794714 322.31517977 121.24693298 323.31878662 C119.52888764 324.2922261 117.80937753 325.26307892 116.08984375 326.23388672 C111.38499078 328.92311763 106.79552473 331.77368304 102.22265625 334.6796875 C98.07143527 337.1456149 94.76427586 337.44051596 90 337 C86.76233196 335.71358846 83.81660282 334.00523277 80.8125 332.25 C79.95116455 331.76499023 79.0898291 331.27998047 78.20239258 330.78027344 C73.56404781 328.14612059 69.00837011 325.40059979 64.4921875 322.5625 C63.60297607 322.00916992 62.71376465 321.45583984 61.79760742 320.88574219 C60.09086318 319.8161335 58.39504545 318.72883549 56.7121582 317.62207031 C53.10882709 315.35697001 50.86154712 314.02046662 46.546875 313.91796875 C41.90313276 315.33461699 37.50300013 317.10732922 33.0625 319.0625 C32.18787109 319.43955078 31.31324219 319.81660156 30.41210938 320.20507812 C28.27135324 321.12922968 26.13426353 322.0609751 24 323 C25.81432968 326.81178031 28.18662239 329.96580378 30.8125 333.25 C31.29460937 333.8584375 31.77671875 334.466875 32.2734375 335.09375 C36.52513923 340.44371739 40.84118672 345.74143971 45.16137695 351.03613281 C49.11109997 355.88349361 52.98787745 360.78272025 56.8359375 365.7109375 C60.33776704 370.18437293 63.90836717 374.59845818 67.5 379 C72.91974379 385.64825085 78.27150491 392.3429685 83.53173828 399.11816406 C85.15531904 401.1990687 86.79475952 403.26702876 88.43359375 405.3359375 C89.60207571 406.82772316 90.77005221 408.31990488 91.9375 409.8125 C92.48148437 410.49368896 93.02546875 411.17487793 93.5859375 411.87670898 C102.83315823 423.78884728 104.38563627 436.27875666 103 451 C100.14666873 463.51371294 92.29632904 473.54741898 82 481 C72.29848697 486.9409917 60.57339838 487.83887553 49.54150391 489.46875 C45.82904049 490.0256451 42.12362114 490.61826449 38.41796875 491.21875 C23.50756588 493.62565801 8.58439971 495.7457353 -6.40185547 497.62109375 C-12.86210727 498.43764966 -19.28656558 499.30191188 -25.6875 500.5 C-33.18538537 501.89191513 -40.70639341 503.06956417 -48.25 504.1875 C-49.41104248 504.36667969 -50.57208496 504.54585937 -51.76831055 504.73046875 C-66.58383663 506.88713926 -80.39779542 507.37955031 -93.3125 498.75 C-94.9002394 497.53221929 -96.46410606 496.28255061 -98 495 C-98.70898438 494.41476562 -99.41796875 493.82953125 -100.1484375 493.2265625 C-108.77903549 485.38958272 -113.40524481 475.56618948 -114.30859375 464.07421875 C-114.35728522 462.61215854 -114.40013488 461.1498935 -114.4375 459.6875 C-114.48326172 458.99849609 -114.52902344 458.30949219 -114.57617188 457.59960938 C-114.8381112 444.69625024 -107.49684041 431.68717175 -102.61839485 420.07989693 C-101.76641788 418.05118023 -100.91734519 416.02127233 -100.06919861 413.99095154 C-99.78520675 413.31143653 -99.50121489 412.63192152 -99.20861721 411.93181515 C-98.62877656 410.5441948 -98.04920695 409.15646117 -97.46990299 407.76861668 C-95.98821603 404.22462685 -94.49357296 400.68701881 -92.97436523 397.15893555 C-91.48415962 393.69579458 -90.0290813 390.21971204 -88.59653282 386.73234749 C-88.04969876 385.41898698 -87.49029577 384.11078226 -86.91785622 382.80837822 C-83.52402637 375.97071278 -83.52402637 375.97071278 -83.82516479 368.77102661 C-84.74960124 367.48415756 -85.71575552 366.22632866 -86.71928406 365.00013733 C-89.28449339 360.9939633 -88.28418618 356.19339763 -87.96875 351.625 C-87.88132641 349.40659395 -87.80107733 347.18789577 -87.72729492 344.96899414 C-87.6863974 343.82689484 -87.64549988 342.68479553 -87.60336304 341.50808716 C-86.2056922 322.18267621 -86.2056922 322.18267621 -93.51171875 305.22265625 C-97.79128657 301.63519368 -102.39514025 299.08081466 -107.57177734 297.01220703 C-109.80262602 296.08227554 -111.45223582 295.07441841 -113.36328125 293.62109375 C-115.81352864 291.75322175 -115.81352864 291.75322175 -118.296875 292.20336914 C-121.46278117 293.13638502 -124.01877705 294.48997308 -126.88671875 296.125 C-127.98951172 296.74890625 -129.09230469 297.3728125 -130.22851562 298.015625 C-131.94071289 298.99789062 -131.94071289 298.99789062 -133.6875 300 C-134.85184762 300.66210225 -136.0165579 301.32356716 -137.18164062 301.984375 C-139.30875381 303.19202636 -141.43417452 304.40266689 -143.55737305 305.6171875 C-147.4149883 307.80104885 -149.50057415 308.36072199 -154 308 C-157.01342773 306.67407227 -157.01342773 306.67407227 -160.18359375 304.81640625 C-160.75671295 304.48533371 -161.32983215 304.15426117 -161.9203186 303.81315613 C-163.76703096 302.74214041 -165.60226972 301.65305335 -167.4375 300.5625 C-168.70118217 299.82293662 -169.96542575 299.08433169 -171.23022461 298.34667969 C-173.70844167 296.89828602 -176.18191075 295.44228182 -178.65136719 293.97900391 C-181.44800333 292.32622375 -184.25410036 290.69327704 -187.0703125 289.07421875 C-197.54831275 282.98343272 -197.54831275 282.98343272 -200 279 C-200.38768005 276.5405426 -200.38768005 276.5405426 -200.40405273 273.76000977 C-200.41673691 272.71535049 -200.42942108 271.67069122 -200.44248962 270.59437561 C-200.43955399 269.47139572 -200.43661835 268.34841583 -200.43359375 267.19140625 C-200.4388356 266.03253403 -200.44407745 264.8736618 -200.44947815 263.67967224 C-200.4559003 261.22940878 -200.45455889 258.7791145 -200.44604492 256.32885742 C-200.43753972 252.5800076 -200.46628867 248.83268347 -200.49804688 245.08398438 C-200.49965908 242.70312546 -200.499081 240.32226384 -200.49609375 237.94140625 C-200.50732773 236.82045059 -200.51856171 235.69949493 -200.53013611 234.54457092 C-200.46103855 226.82667381 -200.46103855 226.82667381 -198.30224609 222.95581055 C-195.85249299 220.87468943 -193.49700342 219.2943565 -190.66796875 217.765625 C-189.10864624 216.91025146 -189.10864624 216.91025146 -187.51782227 216.03759766 C-186.41881592 215.44769043 -185.31980957 214.8577832 -184.1875 214.25 C-181.92863882 213.01493687 -179.6708231 211.77795973 -177.4140625 210.5390625 C-176.31739258 209.93868164 -175.22072266 209.33830078 -174.09082031 208.71972656 C-169.39388473 206.10636051 -164.801492 203.33278593 -160.2409668 200.48925781 C-156.2016239 198 -156.2016239 198 -154 198 C-154.02964844 196.77925781 -154.05929688 195.55851563 -154.08984375 194.30078125 C-154.08864984 188.20347347 -153.32434853 182.22913598 -152.5625 176.1875 C-152.42779297 175.06923828 -152.29308594 173.95097656 -152.15429688 172.79882812 C-151.05329527 163.84580532 -151.05329527 163.84580532 -150 160 C-150.96486328 159.65195312 -150.96486328 159.65195312 -151.94921875 159.296875 C-156.06023217 157.54929951 -159.90923979 155.41597099 -163.8125 153.25 C-164.96588867 152.62351563 -164.96588867 152.62351563 -166.14257812 151.984375 C-180.50960507 144.03098287 -180.50960507 144.03098287 -183 138 C-183.26742554 135.62319946 -183.26742554 135.62319946 -183.29052734 132.95947266 C-183.3096669 131.45738754 -183.3096669 131.45738754 -183.32919312 129.92495728 C-183.33141876 128.848862 -183.33364441 127.77276672 -183.3359375 126.6640625 C-183.3425943 125.55195404 -183.3492511 124.43984558 -183.35610962 123.29403687 C-183.36623193 120.94213515 -183.37092677 118.59020473 -183.37060547 116.23828125 C-183.37497525 112.64535024 -183.41129183 109.05365093 -183.44921875 105.4609375 C-183.45508767 103.17448336 -183.45905656 100.8880234 -183.4609375 98.6015625 C-183.47530853 97.52951569 -183.48967957 96.45746887 -183.50448608 95.35293579 C-183.46822845 89.415169 -183.18710033 85.58277836 -179 81 C-176.85961914 79.31591797 -176.85961914 79.31591797 -174.53515625 77.9921875 C-173.22635498 77.23264771 -173.22635498 77.23264771 -171.89111328 76.45776367 C-170.49094971 75.67429565 -170.49094971 75.67429565 -169.0625 74.875 C-168.09554199 74.32239502 -167.12858398 73.76979004 -166.13232422 73.20043945 C-164.10898381 72.04473707 -162.08288927 70.89384437 -160.05419922 69.74755859 C-157.06267298 68.03586037 -154.10889166 66.27250337 -151.16015625 64.48828125 C-149.31520027 63.38785969 -147.47015179 62.2875932 -145.625 61.1875 C-144.77687744 60.66591309 -143.92875488 60.14432617 -143.05493164 59.60693359 C-138.96335414 57.20711692 -135.14400165 55.01825738 -130.22900391 55.3840332 C-124.8231794 56.8778881 -120.12060304 60.09968119 -115.375 63 C-114.20829765 63.69078271 -113.04031997 64.37941584 -111.87109375 65.06591797 C-107.03562706 67.91530789 -102.23983237 70.81534202 -97.5390625 73.8828125 C-96.92240723 74.27210938 -96.30575195 74.66140625 -95.67041016 75.0625 C-94.13742163 76.03759004 -92.62973467 77.05216322 -91.125 78.0703125 C-83.05336379 80.47162427 -73.26112332 74.07953944 -66 70.8125 C-63.95978153 69.89910207 -61.91818346 68.98877737 -59.875 68.08203125 C-58.98554688 67.68218018 -58.09609375 67.2823291 -57.1796875 66.87036133 C-55 66 -55 66 -53 66 C-53.02356567 64.50218994 -53.02356567 64.50218994 -53.04760742 62.97412109 C-53.10212619 59.25057113 -53.13642934 55.5270561 -53.16479492 51.80322266 C-53.17983176 50.19508928 -53.20026672 48.58699656 -53.22631836 46.97900391 C-53.26292822 44.66037936 -53.27977722 42.34229951 -53.29296875 40.0234375 C-53.31619453 38.95432632 -53.31619453 38.95432632 -53.33988953 37.86361694 C-53.34145889 33.15223685 -52.55160232 29.96490849 -50 26 C-48.17553711 24.34765625 -48.17553711 24.34765625 -46.08984375 23.0625 C-45.29304199 22.5675 -44.49624023 22.0725 -43.67529297 21.5625 C-38.6735123 18.64121909 -33.63613599 15.7946185 -28.5625 13 C-26.41712576 11.81402365 -24.27258378 10.62654044 -22.12890625 9.4375 C-21.09652832 8.86773437 -20.06415039 8.29796875 -19.00048828 7.7109375 C-15.35429744 5.63180768 -11.83039894 3.38443991 -8.33178711 1.06640625 C-5.30169059 -0.31936085 -3.30679756 -0.36999502 0 0 Z " fill="#072C76" transform="translate(340,91)"/>
<path d="M0 0 C2.7980957 1.21826172 2.7980957 1.21826172 5.67578125 2.9296875 C6.74368896 3.55576904 7.81159668 4.18185059 8.91186523 4.8269043 C10.03407471 5.50277588 11.15628418 6.17864746 12.3125 6.875 C13.47599001 7.56466224 14.64013883 8.25321422 15.80493164 8.94067383 C18.12458521 10.31167288 20.44007801 11.68933836 22.75292969 13.07177734 C25.61425871 14.77093348 28.49019821 16.436919 31.3828125 18.08203125 C32.16358154 18.52885254 32.94435059 18.97567383 33.7487793 19.43603516 C35.16664421 20.24674074 36.58722732 21.0527182 38.01098633 21.85302734 C41.47693539 23.8618193 43.92546616 25.55937326 46 29 C46.25741577 31.30950928 46.25741577 31.30950928 46.09912109 33.88183594 C46.02846184 35.33613258 46.02846184 35.33613258 45.95637512 36.81980896 C45.89600571 37.86411575 45.83563629 38.90842255 45.7734375 39.984375 C43.33538528 64.69741497 43.33538528 64.69741497 51.44921875 86.72265625 C55.70054475 90.27339773 60.28493414 92.74078903 65.40283203 94.82275391 C68.81495204 96.36940203 71.43607549 98.51565594 74.24389648 100.9675293 C75.92930199 102.18321976 75.92930199 102.18321976 77.85888672 101.85864258 C80.65258363 100.73829685 83.20131646 99.35332168 85.82421875 97.875 C86.93474609 97.25109375 88.04527344 96.6271875 89.18945312 95.984375 C89.7631665 95.65888672 90.33687988 95.33339844 90.92797852 94.99804688 C92.68944449 93.99889703 94.4546818 93.00669684 96.22070312 92.015625 C101.40214993 89.4166671 101.40214993 89.4166671 106 86 C114.84466062 84.83719265 120.23564157 88.39094856 127.625 92.9375 C128.78042233 93.63104722 129.93684319 94.32293356 131.09423828 95.01318359 C133.36927283 96.37351849 135.63610954 97.74511943 137.90039062 99.12353516 C140.54602821 100.72517114 143.20657015 102.28826665 145.890625 103.82421875 C157.23104609 110.37248295 157.23104609 110.37248295 160 115 C160.60127858 118.89396891 160.56031244 122.75380492 160.53125 126.6875 C160.5350769 127.82276123 160.53890381 128.95802246 160.54284668 130.12768555 C160.54556537 132.52491138 160.53820731 134.92216689 160.52148438 137.31933594 C160.50007587 140.98700142 160.52128935 144.65270789 160.546875 148.3203125 C160.54423172 150.65104599 160.53910674 152.98177826 160.53125 155.3125 C160.53934692 156.40844482 160.54744385 157.50438965 160.55578613 158.63354492 C160.46316237 166.16003916 160.46316237 166.16003916 158.34765625 169.99658203 C155.66203474 172.28840921 152.99246081 174.02202716 149.90625 175.7421875 C149.31888062 176.07364777 148.73151123 176.40510803 148.12634277 176.74661255 C146.25621239 177.79924912 144.37853384 178.83744896 142.5 179.875 C141.27028522 180.56282306 140.04111359 181.25161814 138.8125 181.94140625 C136.99073631 182.96410075 135.16834096 183.98546293 133.3425293 185.00091553 C128.27353181 187.82338642 123.2845181 190.76717239 118.31054688 193.75439453 C116 195 116 195 114 195 C113.96261719 195.96035156 113.92523438 196.92070312 113.88671875 197.91015625 C113.31645065 210.37414612 111.74030398 222.65088151 110 235 C111.07217773 235.40750488 111.07217773 235.40750488 112.16601562 235.82324219 C117.1539113 237.89437047 121.78900295 240.62101663 126.5 243.25 C127.53253906 243.81074219 128.56507813 244.37148438 129.62890625 244.94921875 C130.62792969 245.50738281 131.62695312 246.06554687 132.65625 246.640625 C133.56181641 247.14110352 134.46738281 247.64158203 135.40039062 248.15722656 C139.54734434 251.09685904 142.53085874 253.40622748 143.45352173 258.50741577 C143.64574578 261.61170705 143.66670793 264.67512435 143.62890625 267.78515625 C143.63131821 268.91900253 143.63373016 270.05284882 143.63621521 271.22105408 C143.63523781 273.61233018 143.62187016 276.00362921 143.59692383 278.39477539 C143.56258279 282.05367866 143.57628106 285.71017057 143.59570312 289.36914062 C143.58880544 291.69532277 143.57913376 294.0214987 143.56640625 296.34765625 C143.57136612 297.44046402 143.57632599 298.53327179 143.58143616 299.65919495 C143.46499532 307.16883265 143.46499532 307.16883265 141.31591797 311.01025391 C138.78065939 313.18844887 136.29763376 314.85557853 133.37890625 316.48828125 C132.28392822 317.10880371 131.1889502 317.72932617 130.06079102 318.36865234 C128.8947554 319.01671204 127.72865738 319.66465945 126.5625 320.3125 C124.78918241 321.31203233 123.01794714 322.31517977 121.24693298 323.31878662 C119.52888764 324.2922261 117.80937753 325.26307892 116.08984375 326.23388672 C111.38499078 328.92311763 106.79552473 331.77368304 102.22265625 334.6796875 C98.07143527 337.1456149 94.76427586 337.44051596 90 337 C86.76243405 335.71362902 83.81563511 334.00679108 80.8125 332.25 C79.95261475 331.76063965 79.09272949 331.2712793 78.20678711 330.76708984 C75.46087528 329.1952216 72.7299717 327.59936766 70 326 C69.07638672 325.46600586 68.15277344 324.93201172 67.20117188 324.38183594 C64.48129281 322.807823 61.77009764 321.22003391 59.0625 319.625 C57.81206909 318.89458496 57.81206909 318.89458496 56.53637695 318.14941406 C46.59973913 312.19947825 46.59973913 312.19947825 44 307 C43.88461737 305.39837105 43.83050126 303.79213303 43.80712891 302.18652344 C43.79106598 301.1849823 43.77500305 300.18344116 43.75845337 299.15155029 C43.71401528 294.56409344 43.6729307 289.97678195 43.64990234 285.38916016 C43.63334912 282.97011694 43.6060678 280.5511225 43.56787109 278.13232422 C43.51308033 274.64524955 43.49122303 271.15932229 43.4765625 267.671875 C43.45389313 266.59355408 43.43122375 265.51523315 43.40786743 264.40423584 C43.43144152 256.01569132 43.43144152 256.01569132 46.19335938 252.47875977 C48.86302005 250.12097751 51.29890514 248.35161576 54.4296875 246.66796875 C55.46601318 246.10190918 56.50233887 245.53584961 57.57006836 244.95263672 C58.6606958 244.3701416 59.75132324 243.78764648 60.875 243.1875 C63.12393201 241.94443384 65.37263054 240.70094517 67.62109375 239.45703125 C71.35676416 237.41502669 75.10745947 235.42553632 78.91015625 233.51171875 C85.70177919 230.16319348 85.70177919 230.16319348 90.2734375 224.3828125 C90.86755551 221.20557273 90.95236619 218.23177062 91 215 C91.31866202 212.11752576 91.73218856 209.24820769 92.125 206.375 C92.9270603 200.22659948 93.10073108 194.19895883 93 188 C92.17274414 187.5467334 91.34548828 187.0934668 90.49316406 186.62646484 C87.40778511 184.92695044 84.3301851 183.21475811 81.25683594 181.49365234 C79.92896752 180.7534707 78.59826134 180.01835502 77.26464844 179.28857422 C75.34048987 178.23445746 73.42750708 177.16212545 71.515625 176.0859375 C69.78747559 175.1276001 69.78747559 175.1276001 68.02441406 174.14990234 C64.47503467 171.62682881 62.83611079 169.96784981 61 166 C60.62367248 162.29829174 60.84610228 158.67727875 61.05859375 154.96875 C61.1172199 152.77355527 61.1711028 150.57822971 61.22070312 148.3828125 C61.31491526 144.94614963 61.43625758 141.52083918 61.64086914 138.08886719 C62.72079428 125.22593079 62.72079428 125.22593079 58.21026611 113.63867188 C53.78897516 109.44441592 48.80750351 106.38805885 43.47732544 103.4831543 C40.82621948 101.89595903 38.60439452 100.07073006 36.25170898 98.07226562 C32.95944406 95.39743835 32.95944406 95.39743835 28.78466797 94.8671875 C25.80556775 96.07909571 23.17702997 97.42369647 20.4453125 99.125 C19.41792969 99.74890625 18.39054688 100.3728125 17.33203125 101.015625 C15.19965707 102.33504776 13.06943147 103.65794946 10.94140625 104.984375 C-0.77331591 112.08065225 -0.77331591 112.08065225 -6 111 C-10.58171994 109.09608879 -14.8025661 106.64863738 -19.0625 104.125 C-20.27125268 103.43170671 -21.48114003 102.74038807 -22.69213867 102.05102539 C-27.82374615 99.11384081 -32.89995788 96.09805181 -37.890625 92.92578125 C-38.91144165 92.28261963 -38.91144165 92.28261963 -39.95288086 91.62646484 C-41.67804258 90.52346661 -43.3811192 89.38613158 -45.08203125 88.24609375 C-48.92546329 86.60478877 -50.16475698 87.51573846 -54 89 C-56.07650857 89.84589839 -58.14398508 90.71422114 -60.203125 91.6015625 C-61.3478125 92.09140625 -62.4925 92.58125 -63.671875 93.0859375 C-66.07331311 94.11887048 -68.47434986 95.15273701 -70.875 96.1875 C-72.01453125 96.67476563 -73.1540625 97.16203125 -74.328125 97.6640625 C-75.3687207 98.11217285 -76.40931641 98.5602832 -77.48144531 99.02197266 C-80 100 -80 100 -82 100 C-81.97381592 101.18553467 -81.94763184 102.37106934 -81.9206543 103.5925293 C-81.83000979 107.99988866 -81.77269912 112.407166 -81.7253418 116.81518555 C-81.70023001 118.72125107 -81.66613355 120.62722059 -81.62280273 122.53295898 C-81.56200256 125.27611998 -81.53375755 128.01800586 -81.51171875 130.76171875 C-81.48591232 131.61086349 -81.4601059 132.46000824 -81.43351746 133.33488464 C-81.43150252 137.60560815 -81.550946 139.42022672 -84.2409668 142.89331055 C-86.65938449 144.73991936 -89.00173233 146.42205556 -91.6328125 147.9453125 C-92.51283936 148.46005127 -93.39286621 148.97479004 -94.29956055 149.50512695 C-95.23195557 150.03968506 -96.16435059 150.57424316 -97.125 151.125 C-98.08897705 151.68469482 -99.0529541 152.24438965 -100.04614258 152.82104492 C-102.04058606 153.97825007 -104.0367777 155.13244728 -106.03466797 156.28369141 C-108.88931673 157.93593748 -111.72975335 159.61005377 -114.56640625 161.29296875 C-116.27332129 162.29967624 -117.98034715 163.30619585 -119.6875 164.3125 C-120.48236816 164.7863916 -121.27723633 165.2602832 -122.09619141 165.74853516 C-123.19906494 166.39314697 -123.19906494 166.39314697 -124.32421875 167.05078125 C-124.96447998 167.42887939 -125.60474121 167.80697754 -126.2644043 168.1965332 C-128 169 -128 169 -131 169 C-130.98259766 169.64106689 -130.96519531 170.28213379 -130.94726562 170.94262695 C-130.83435498 178.46664291 -131.53052171 185.73299801 -132.5 193.1875 C-132.64308594 194.33025391 -132.78617188 195.47300781 -132.93359375 196.65039062 C-133.28305265 199.43441319 -133.63861208 202.21750525 -134 205 C-134.94101563 204.50628906 -135.88203125 204.01257813 -136.8515625 203.50390625 C-138.1091536 202.85634068 -139.36697864 202.20922929 -140.625 201.5625 C-141.24246094 201.23701172 -141.85992187 200.91152344 -142.49609375 200.57617188 C-146.33285611 198.61740372 -149.71743908 197.46778742 -154 197 C-154.19678089 189.98433345 -153.43302599 183.20611004 -152.5625 176.25 C-152.42779297 175.12722656 -152.29308594 174.00445312 -152.15429688 172.84765625 C-151.04967909 163.82750911 -151.04967909 163.82750911 -150 160 C-150.96486328 159.65195312 -150.96486328 159.65195312 -151.94921875 159.296875 C-156.06023217 157.54929951 -159.90923979 155.41597099 -163.8125 153.25 C-164.58142578 152.83234375 -165.35035156 152.4146875 -166.14257812 151.984375 C-180.50960507 144.03098287 -180.50960507 144.03098287 -183 138 C-183.26742554 135.62319946 -183.26742554 135.62319946 -183.29052734 132.95947266 C-183.30328705 131.95808258 -183.31604675 130.9566925 -183.32919312 129.92495728 C-183.33141876 128.848862 -183.33364441 127.77276672 -183.3359375 126.6640625 C-183.3425943 125.55195404 -183.3492511 124.43984558 -183.35610962 123.29403687 C-183.36623193 120.94213515 -183.37092677 118.59020473 -183.37060547 116.23828125 C-183.37497525 112.64535024 -183.41129183 109.05365093 -183.44921875 105.4609375 C-183.45508767 103.17448336 -183.45905656 100.8880234 -183.4609375 98.6015625 C-183.47530853 97.52951569 -183.48967957 96.45746887 -183.50448608 95.35293579 C-183.46822845 89.415169 -183.18710033 85.58277836 -179 81 C-176.85961914 79.31591797 -176.85961914 79.31591797 -174.53515625 77.9921875 C-173.22635498 77.23264771 -173.22635498 77.23264771 -171.89111328 76.45776367 C-170.9576709 75.93545166 -170.02422852 75.41313965 -169.0625 74.875 C-168.09554199 74.32239502 -167.12858398 73.76979004 -166.13232422 73.20043945 C-164.10898381 72.04473707 -162.08288927 70.89384437 -160.05419922 69.74755859 C-157.06267298 68.03586037 -154.10889166 66.27250337 -151.16015625 64.48828125 C-149.31520027 63.38785969 -147.47015179 62.2875932 -145.625 61.1875 C-144.77687744 60.66591309 -143.92875488 60.14432617 -143.05493164 59.60693359 C-138.96335414 57.20711692 -135.14400165 55.01825738 -130.22900391 55.3840332 C-124.8231794 56.8778881 -120.12060304 60.09968119 -115.375 63 C-114.20829765 63.69078271 -113.04031997 64.37941584 -111.87109375 65.06591797 C-107.03562706 67.91530789 -102.23983237 70.81534202 -97.5390625 73.8828125 C-96.92240723 74.27210938 -96.30575195 74.66140625 -95.67041016 75.0625 C-94.13742163 76.03759004 -92.62973467 77.05216322 -91.125 78.0703125 C-83.05336379 80.47162427 -73.26112332 74.07953944 -66 70.8125 C-63.95978153 69.89910207 -61.91818346 68.98877737 -59.875 68.08203125 C-58.98554688 67.68218018 -58.09609375 67.2823291 -57.1796875 66.87036133 C-55 66 -55 66 -53 66 C-53.02356567 64.50218994 -53.02356567 64.50218994 -53.04760742 62.97412109 C-53.10212619 59.25057113 -53.13642934 55.5270561 -53.16479492 51.80322266 C-53.17983176 50.19508928 -53.20026672 48.58699656 -53.22631836 46.97900391 C-53.26292822 44.66037936 -53.27977722 42.34229951 -53.29296875 40.0234375 C-53.31619453 38.95432632 -53.31619453 38.95432632 -53.33988953 37.86361694 C-53.34145889 33.15223685 -52.55160232 29.96490849 -50 26 C-48.17553711 24.34765625 -48.17553711 24.34765625 -46.08984375 23.0625 C-45.29304199 22.5675 -44.49624023 22.0725 -43.67529297 21.5625 C-38.6735123 18.64121909 -33.63613599 15.7946185 -28.5625 13 C-26.41712576 11.81402365 -24.27258378 10.62654044 -22.12890625 9.4375 C-21.09652832 8.86773437 -20.06415039 8.29796875 -19.00048828 7.7109375 C-15.35429744 5.63180768 -11.83039894 3.38443991 -8.33178711 1.06640625 C-5.30169059 -0.31936085 -3.30679756 -0.36999502 0 0 Z " fill="#072C75" transform="translate(340,91)"/>
<path d="M0 0 C2.81016208 1.29155827 5.48683629 2.70697653 8.18139648 4.22509766 C9.74289429 5.10282837 9.74289429 5.10282837 11.3359375 5.99829102 C12.43091553 6.61712158 13.52589355 7.23595215 14.65405273 7.87353516 C15.77545654 8.50074463 16.89686035 9.1279541 18.05224609 9.77416992 C22.81076335 12.44203736 27.55580369 15.11229601 32.19311523 17.98681641 C32.81581299 18.36692871 33.43851074 18.74704102 34.08007812 19.13867188 C35.64777191 20.10510474 37.20050706 21.09569121 38.75170898 22.08837891 C42.80077401 23.67279566 45.67667058 23.60941982 49.71655273 22.24853516 C54.87565354 19.63469733 59.7610636 16.57492523 64.67041016 13.52685547 C66.38036458 12.47172154 68.10107995 11.43408981 69.82202148 10.39697266 C70.83417725 9.76968262 71.84633301 9.14239258 72.88916016 8.49609375 C76.18681111 7.04103837 77.37416208 6.99794662 80.71655273 8.24853516 C83.10083008 9.75146484 83.10083008 9.75146484 85.55249023 11.67041016 C86.45225586 12.36650391 87.35202148 13.06259766 88.27905273 13.77978516 C89.67124023 14.87806641 89.67124023 14.87806641 91.09155273 15.99853516 C92.93200571 17.43171702 94.77313759 18.86402753 96.61499023 20.29541016 C97.8319458 21.25205566 97.8319458 21.25205566 99.07348633 22.22802734 C101.50082202 24.20310024 101.50082202 24.20310024 103.56433105 25.21203613 C105.6682986 26.39522546 107.13951999 27.41241006 108.71655273 29.24853516 C109.71689723 32.9967815 109.60022619 36.63951296 109.51342773 40.49853516 C109.51860413 41.5894043 109.52378052 42.68027344 109.52911377 43.80419922 C109.54100812 47.28656569 109.50647214 50.76640836 109.46655273 54.24853516 C109.44779819 57.73014765 109.43905571 61.21121524 109.44683838 64.69287109 C109.44951635 66.85763063 109.43577622 69.02248748 109.40374756 71.18701172 C109.24893161 78.29223386 109.24893161 78.29223386 112.71655273 84.24853516 C115.64187597 86.36421034 115.64187597 86.36421034 119.09936523 88.20166016 C119.71423798 88.54735046 120.32911072 88.89304077 120.96261597 89.24920654 C122.91588486 90.34424301 124.87818027 91.42173829 126.84155273 92.49853516 C128.80979637 93.59333767 130.77607454 94.69159589 132.74191284 95.79071045 C134.51820483 96.78139488 136.29915967 97.76370492 138.08032227 98.74560547 C140.71655273 100.24853516 140.71655273 100.24853516 141.71655273 101.24853516 C142.3230122 108.86984429 141.2736963 116.50977596 140.34155273 124.06103516 C140.21522461 125.16640625 140.08889648 126.27177734 139.95874023 127.41064453 C139.82983398 128.47734375 139.70092773 129.54404297 139.56811523 130.64306641 C139.39530029 132.07936401 139.39530029 132.07936401 139.21899414 133.54467773 C138.46623079 137.59562727 137.88376446 140.33325861 134.55615234 142.94262695 C133.66935791 143.43931885 132.78256348 143.93601074 131.86889648 144.44775391 C130.87849365 145.01252441 129.88809082 145.57729492 128.86767578 146.15917969 C127.80718018 146.74554199 126.74668457 147.3319043 125.65405273 147.93603516 C123.47173214 149.17686969 121.28944066 150.41775545 119.10717773 151.65869141 C116.9770881 152.85551726 114.84688586 154.05214275 112.71655273 155.24853516 C109.43665675 157.10819189 106.16759851 158.98537451 102.90405273 160.87353516 C102.21239014 161.2624292 101.52072754 161.65132324 100.80810547 162.05200195 C97.28828416 164.0841973 94.70851311 165.68531761 92.71655273 169.24853516 C92.39174205 172.07224228 92.22838468 174.68800204 92.20483398 177.51416016 C92.18688278 178.30755798 92.16893158 179.10095581 92.1504364 179.918396 C92.09638347 182.44505547 92.06245462 184.9715266 92.02905273 187.49853516 C91.99587514 189.21470717 91.96138506 190.93085435 91.92553711 192.64697266 C91.84066018 196.84735748 91.77382552 201.04768693 91.71655273 205.24853516 C84.67594684 208.54281923 77.65007535 211.80520968 70.40405273 214.62353516 C69.41888672 215.0121875 69.41888672 215.0121875 68.41381836 215.40869141 C66.84938247 216.02533037 65.28318017 216.63748545 63.71655273 217.24853516 C61.61865707 215.1506395 61.89898033 210.94513327 61.52514648 208.04931641 C61.41558121 207.22151169 61.30601593 206.39370697 61.19313049 205.54081726 C60.96162779 203.78326311 60.73227599 202.02542455 60.50488281 200.26733398 C60.15767889 197.58900725 59.80189442 194.91192301 59.44506836 192.23486328 C59.2212407 190.52724912 58.99791745 188.81956875 58.77514648 187.11181641 C58.61579872 185.91616814 58.61579872 185.91616814 58.45323181 184.69636536 C57.35684406 176.12785487 57.35684406 176.12785487 57.71655273 172.24853516 C59.68153595 170.86411516 61.68703739 169.53649682 63.71655273 168.24853516 C68.9402893 161.92506457 68.40012901 155.1223212 67.71655273 147.24853516 C67.39367173 143.94479487 66.98891325 140.66091209 66.52905273 137.37353516 C66.42842529 136.58946289 66.32779785 135.80539062 66.22412109 134.99755859 C65.25125958 128.82410783 63.09272945 122.77082395 57.91625977 118.90356445 C56.23201925 117.92853518 54.47667705 117.07878247 52.71655273 116.24853516 C52.05655273 115.91853516 51.39655273 115.58853516 50.71655273 115.24853516 C42.68579748 114.50206362 34.89642171 116.06848044 27.02905273 117.49853516 C14.89823179 119.62235337 2.76620186 121.37042289 -9.46386719 122.81591797 C-28.30546831 124.26011547 -28.30546831 124.26011547 -43.58032227 133.77587891 C-48.60104974 141.08344457 -46.27597565 151.06807627 -45.03344727 159.31103516 C-44.92387695 160.14441406 -44.81430664 160.97779297 -44.70141602 161.83642578 C-43.68347151 168.72094522 -41.91494086 175.47084747 -37.03344727 180.62353516 C-34.69895967 182.0030051 -32.63842335 182.92702349 -30.11157227 183.85009766 C-29.39388672 184.11387207 -28.67620117 184.37764648 -27.93676758 184.64941406 C-27.39117187 184.84712402 -26.84557617 185.04483398 -26.28344727 185.24853516 C-25.77789337 188.81026992 -25.27998612 192.37303334 -24.78344727 195.93603516 C-24.64036133 196.9434375 -24.49727539 197.95083984 -24.34985352 198.98876953 C-24.14682617 200.4534668 -24.14682617 200.4534668 -23.93969727 201.94775391 C-23.81401367 202.84324951 -23.68833008 203.73874512 -23.55883789 204.66137695 C-23.2872821 207.21250877 -23.23496829 209.68520946 -23.28344727 212.24853516 C-29.14013391 209.12496895 -34.21367341 205.36644876 -39.40844727 201.24853516 C-40.19348633 200.63236328 -40.97852539 200.01619141 -41.78735352 199.38134766 C-43.95733067 197.67610423 -46.12273443 195.96549891 -48.28344727 194.24853516 C-49.6338208 193.49999268 -49.6338208 193.49999268 -51.01147461 192.73632812 C-54.68380594 188.71515295 -53.91236745 184.37991657 -53.81469727 179.13134766 C-53.81796021 178.04143524 -53.82122314 176.95152283 -53.82458496 175.82858276 C-53.83776115 171.16658884 -53.79299946 166.50554853 -53.75366211 161.84375 C-53.7331793 158.43931646 -53.74202299 155.03580546 -53.75219727 151.63134766 C-53.73257935 150.58117462 -53.71296143 149.53100159 -53.69274902 148.44900513 C-53.66897808 142.18600508 -53.66897808 142.18600508 -56.44873047 136.76074219 C-59.25767648 134.27137396 -61.86864856 132.44606051 -65.17016602 130.67041016 C-66.27295898 130.06712891 -67.37575195 129.46384766 -68.51196289 128.84228516 C-69.65342773 128.23384766 -70.79489258 127.62541016 -71.97094727 126.99853516 C-74.24717388 125.76690444 -76.52198818 124.53265885 -78.79516602 123.29541016 C-79.80023193 122.75754883 -80.80529785 122.2196875 -81.84082031 121.66552734 C-84.28344727 120.24853516 -84.28344727 120.24853516 -86.28344727 118.24853516 C-86.35193663 112.7636786 -85.88115493 107.32599108 -85.45581055 101.85986328 C-85.29186413 99.37605192 -85.22637459 96.90885093 -85.18579102 94.42041016 C-85.11632779 92.92551697 -85.04480803 91.43071752 -84.97094727 89.93603516 C-84.98029297 89.25017334 -84.98963867 88.56431152 -84.99926758 87.85766602 C-84.85766602 85.88525391 -84.85766602 85.88525391 -83.28344727 82.24853516 C-80.5132094 80.40906969 -77.69012914 79.09451498 -74.65039062 77.74731445 C-69.27089377 75.35265626 -64.28894914 72.29665648 -59.22094727 69.31103516 C-58.22256836 68.72902344 -57.22418945 68.14701172 -56.19555664 67.54736328 C-44.30322995 61.82024262 -44.30322995 61.82024262 -35.28344727 53.24853516 C-35.12611478 50.26090161 -35.02483312 47.29312365 -34.96704102 44.30322266 C-34.94625992 43.41821075 -34.92547882 42.53319885 -34.90406799 41.62136841 C-34.83858128 38.78883774 -34.77969164 35.95621291 -34.72094727 33.12353516 C-34.67776121 31.20555659 -34.63414689 29.28758762 -34.59008789 27.36962891 C-34.48290079 22.66269465 -34.38163087 17.95566548 -34.28344727 13.24853516 C-33.38513184 12.85996338 -32.48681641 12.4713916 -31.5612793 12.07104492 C-28.23258269 10.63102072 -24.9042067 9.19025677 -21.57592773 7.74926758 C-20.1346091 7.12536721 -18.69320327 6.50166824 -17.25170898 5.87817383 C-15.18133016 4.98262456 -13.11126467 4.08635455 -11.04125977 3.18994141 C-10.39536896 2.91074356 -9.74947815 2.63154572 -9.08401489 2.34388733 C-2.08859959 -0.68734198 -2.08859959 -0.68734198 0 0 Z " fill="#FEFEFE" transform="translate(292.283447265625,177.75146484375)"/>
<path d="M0 0 C0.17128418 1.27528564 0.34256836 2.55057129 0.51904297 3.86450195 C1.16133839 8.64154215 1.806994 13.4181234 2.45361328 18.19458008 C2.73185966 20.25337756 3.00922101 22.31229487 3.28564453 24.37133789 C3.68543896 27.34814662 4.08852129 30.32449537 4.4921875 33.30078125 C4.6131076 34.2064534 4.73402771 35.11212555 4.85861206 36.04524231 C5.61538467 41.59665503 6.53205292 47.09681032 7.58346558 52.60025024 C8 55 8 55 8.328125 58.78515625 C9.17729204 62.8483218 11.12412588 65.35400466 13.75 68.4375 C14.23662109 69.03240234 14.72324219 69.62730469 15.22460938 70.24023438 C16.26695454 71.51245034 17.3153184 72.77975499 18.36914062 74.04248047 C20.55754847 76.6692251 22.70928025 79.32495014 24.86230469 81.98071289 C25.96006899 83.33426216 27.05970033 84.68629921 28.16113281 86.03686523 C32.11198391 90.88314134 35.98796385 95.7828309 39.8359375 100.7109375 C43.33776247 105.18436708 46.90811164 109.59867202 50.5 114 C55.00728512 119.52301134 59.45098822 125.0886922 63.83374023 130.7109375 C66.80056501 134.50572585 69.82908573 138.24365963 72.8894043 141.96337891 C77.63786355 147.74356964 82.29213484 153.5702848 86.6875 159.625 C87.09750244 160.18058594 87.50750488 160.73617187 87.92993164 161.30859375 C92.60969678 167.87444303 93.91942447 174.09760488 93 182 C91.24744538 189.04170149 87.97777107 194.75589512 82 199 C77.22224953 201.25458608 72.8875157 202.60425598 67.65234375 203.53515625 C66.96389877 203.65810562 66.2754538 203.78105499 65.56614685 203.9077301 C58.35092803 205.1676045 51.09978835 206.16828189 43.84033203 207.1340332 C39.88305467 207.66124604 35.92775733 208.20282532 31.97265625 208.74609375 C30.80103439 208.9069899 30.80103439 208.9069899 29.60574341 209.07113647 C23.22145753 209.9548908 16.8587366 210.94791617 10.5 212 C-3.55688937 214.31941055 -17.6715136 216.22323916 -31.78726196 218.14422607 C-36.4053906 218.77434369 -41.01741637 219.43983488 -45.62890625 220.1171875 C-65.18306048 222.90523414 -65.18306048 222.90523414 -73.875 216.84375 C-79.62753014 211.85258415 -83.57755907 206.18207072 -84.20701599 198.46054077 C-84.45197449 190.57590581 -82.93600892 184.73983669 -79.84765625 177.5390625 C-79.40441513 176.4584404 -78.96117401 175.3778183 -78.50450134 174.26445007 C-77.54388441 171.92977605 -76.57372009 169.59901182 -75.5949707 167.2718811 C-74.03775148 163.56610498 -72.50814558 159.8500317 -70.98632812 156.12963867 C-66.22712548 144.5153326 -61.39241997 132.93264664 -56.54548931 121.35473251 C-54.19171176 115.72740851 -51.85884898 110.09163319 -49.53817463 104.4505806 C-47.87013001 100.40054016 -46.17573985 96.36296254 -44.459939 92.33293819 C-43.64934876 90.41649047 -42.85247662 88.49499417 -42.06117249 86.57051086 C-41.09970163 84.23224061 -40.11794295 81.90215099 -39.11082458 79.58317566 C-35.79952401 71.3793427 -35.72683991 64.70468399 -37 56 C-37.10375443 55.27347733 -37.20750885 54.54695465 -37.31440735 53.79841614 C-37.60413823 52.02472236 -37.95736944 50.261765 -38.3125 48.5 C-39.91396454 40.10586987 -41.06018558 31.65525862 -42.1875 23.1875 C-42.32316879 22.18009766 -42.32316879 22.18009766 -42.46157837 21.15234375 C-44 9.70075822 -44 9.70075822 -44 5 C-38.69874348 4.28289234 -33.39682508 3.57097354 -28.09423828 2.86376953 C-26.29196553 2.62266822 -24.48987884 2.38017168 -22.68798828 2.13623047 C-20.09195321 1.78502749 -17.49528151 1.43891423 -14.8984375 1.09375 C-14.0982016 0.9843811 -13.2979657 0.87501221 -12.47348022 0.7623291 C-8.28087175 0.21034128 -4.24079241 -0.11862356 0 0 Z " fill="#D0DAFC" transform="translate(330,355)"/>
<path d="M0 0 C3.2221248 1.38691459 5.03354401 2.92436673 7.25 5.625 C31.73663036 34.34771409 66.45039769 49.77373485 103 56 C102.70775438 57.43481466 102.40814156 58.86812994 102.10546875 60.30078125 C101.85639771 61.49828003 101.85639771 61.49828003 101.60229492 62.7199707 C99.9605082 68.93506848 95.24955235 73.5616967 90 77 C84.05444176 79.82561184 77.3666293 80.4538395 70.91796875 81.39453125 C70.04277588 81.52396118 69.16758301 81.65339111 68.26586914 81.78674316 C65.51091695 82.19349565 62.75550587 82.59701701 60 83 C58.28359973 83.25212716 56.56720952 83.50432284 54.85083008 83.7565918 C48.87687423 84.63332035 42.9020571 85.50412225 36.92724609 86.375 C21.67456833 88.59904719 6.42660322 90.85205105 -8.80718994 93.20236206 C-12.28948597 93.73762922 -15.7730255 94.26448431 -19.25683594 94.78979492 C-21.01357984 95.05664832 -22.76976504 95.32720401 -24.52539062 95.60131836 C-54.62876822 100.29178005 -54.62876822 100.29178005 -63.875 93.84375 C-69.62566817 88.85419967 -73.55647861 83.19537428 -74.21484375 75.4833374 C-74.48523422 67.37179221 -72.77034674 61.30869069 -69.625 53.890625 C-69.1810791 52.79780212 -68.7371582 51.70497925 -68.27978516 50.57904053 C-66.87260699 47.12768257 -65.43695627 43.68905104 -64 40.25 C-63.03454321 37.89661809 -62.07098258 35.54245734 -61.109375 33.1875 C-58.7614226 27.44914972 -56.39004747 21.72093598 -54 16 C-52.86054932 15.94666504 -51.72109863 15.89333008 -50.54711914 15.83837891 C-49.0222816 15.75976089 -47.49746151 15.68080397 -45.97265625 15.6015625 C-44.851474 15.55044312 -44.851474 15.55044312 -43.7076416 15.49829102 C-28.35672032 14.67391282 -12.56581441 8.82898516 0 0 Z " fill="#92B1F3" transform="translate(320,478)"/>
<path d="M0 0 C0.33 0 0.66 0 1 0 C1.00808685 0.61752136 1.01617371 1.23504272 1.02450562 1.87127686 C1.11052587 8.29525438 1.21002857 14.71892243 1.31738281 21.14257812 C1.35567905 23.54031174 1.39053076 25.93810293 1.421875 28.3359375 C1.46751105 31.78145942 1.5255087 35.22658472 1.5859375 38.671875 C1.60326431 40.28144073 1.60326431 40.28144073 1.62094116 41.92352295 C1.6507457 43.42462616 1.6507457 43.42462616 1.68115234 44.95605469 C1.70113785 46.27509796 1.70113785 46.27509796 1.7215271 47.62078857 C2.01771889 50.15138633 2.72683054 51.81140921 4 54 C-3.62558253 57.97593764 -11.29898685 61.65795153 -19.25 64.9375 C-19.98855225 65.24373291 -20.72710449 65.54996582 -21.48803711 65.86547852 C-26.74059199 68 -26.74059199 68 -29 68 C-28.97381592 69.18553467 -28.94763184 70.37106934 -28.9206543 71.5925293 C-28.83000979 75.99988866 -28.77269912 80.407166 -28.7253418 84.81518555 C-28.70023001 86.72125107 -28.66613355 88.62722059 -28.62280273 90.53295898 C-28.56200256 93.27611998 -28.53375755 96.01800586 -28.51171875 98.76171875 C-28.48591232 99.61086349 -28.4601059 100.46000824 -28.43351746 101.33488464 C-28.43150252 105.60560815 -28.550946 107.42022672 -31.2409668 110.89331055 C-33.65938449 112.73991936 -36.00173233 114.42205556 -38.6328125 115.9453125 C-39.51283936 116.46005127 -40.39286621 116.97479004 -41.29956055 117.50512695 C-42.23195557 118.03968506 -43.16435059 118.57424316 -44.125 119.125 C-45.08897705 119.68469482 -46.0529541 120.24438965 -47.04614258 120.82104492 C-49.04058606 121.97825007 -51.0367777 123.13244728 -53.03466797 124.28369141 C-55.88931673 125.93593748 -58.72975335 127.61005377 -61.56640625 129.29296875 C-63.27332129 130.29967624 -64.98034715 131.30619585 -66.6875 132.3125 C-67.48236816 132.7863916 -68.27723633 133.2602832 -69.09619141 133.74853516 C-70.19906494 134.39314697 -70.19906494 134.39314697 -71.32421875 135.05078125 C-71.96447998 135.42887939 -72.60474121 135.80697754 -73.2644043 136.1965332 C-75 137 -75 137 -78 137 C-77.98259766 137.64106689 -77.96519531 138.28213379 -77.94726562 138.94262695 C-77.83435498 146.46664291 -78.53052171 153.73299801 -79.5 161.1875 C-79.64308594 162.33025391 -79.78617188 163.47300781 -79.93359375 164.65039062 C-80.28305265 167.43441319 -80.63861208 170.21750525 -81 173 C-81.94101563 172.50628906 -82.88203125 172.01257813 -83.8515625 171.50390625 C-85.1091536 170.85634068 -86.36697864 170.20922929 -87.625 169.5625 C-88.24246094 169.23701172 -88.85992187 168.91152344 -89.49609375 168.57617188 C-93.33285611 166.61740372 -96.71743908 165.46778742 -101 165 C-101.19678089 157.98433345 -100.43302599 151.20611004 -99.5625 144.25 C-99.42779297 143.12722656 -99.29308594 142.00445312 -99.15429688 140.84765625 C-98.04967909 131.82750911 -98.04967909 131.82750911 -97 128 C-97.64324219 127.76796875 -98.28648437 127.5359375 -98.94921875 127.296875 C-103.06023217 125.54929951 -106.90923979 123.41597099 -110.8125 121.25 C-111.58142578 120.83234375 -112.35035156 120.4146875 -113.14257812 119.984375 C-127.50960507 112.03098287 -127.50960507 112.03098287 -130 106 C-130.26742554 103.62319946 -130.26742554 103.62319946 -130.29052734 100.95947266 C-130.30328705 99.95808258 -130.31604675 98.9566925 -130.32919312 97.92495728 C-130.33141876 96.848862 -130.33364441 95.77276672 -130.3359375 94.6640625 C-130.3425943 93.55195404 -130.3492511 92.43984558 -130.35610962 91.29403687 C-130.36623193 88.94213515 -130.37092677 86.59020473 -130.37060547 84.23828125 C-130.37497525 80.64535024 -130.41129183 77.05365093 -130.44921875 73.4609375 C-130.45508767 71.17448336 -130.45905656 68.8880234 -130.4609375 66.6015625 C-130.47530853 65.52951569 -130.48967957 64.45746887 -130.50448608 63.35293579 C-130.46822845 57.415169 -130.18710033 53.58277836 -126 49 C-123.85961914 47.31591797 -123.85961914 47.31591797 -121.53515625 45.9921875 C-120.66262207 45.48582764 -119.79008789 44.97946777 -118.89111328 44.45776367 C-117.9576709 43.93545166 -117.02422852 43.41313965 -116.0625 42.875 C-114.61206299 42.04609253 -114.61206299 42.04609253 -113.13232422 41.20043945 C-111.10898381 40.04473707 -109.08288927 38.89384437 -107.05419922 37.74755859 C-104.06267298 36.03586037 -101.10889166 34.27250337 -98.16015625 32.48828125 C-96.31520027 31.38785969 -94.47015179 30.2875932 -92.625 29.1875 C-91.35281616 28.40511963 -91.35281616 28.40511963 -90.05493164 27.60693359 C-85.96335414 25.20711692 -82.14400165 23.01825738 -77.22900391 23.3840332 C-71.8231794 24.8778881 -67.12060304 28.09968119 -62.375 31 C-61.20829765 31.69078271 -60.04031997 32.37941584 -58.87109375 33.06591797 C-54.03562706 35.91530789 -49.23983237 38.81534202 -44.5390625 41.8828125 C-43.92240723 42.27210938 -43.30575195 42.66140625 -42.67041016 43.0625 C-41.13742163 44.03759004 -39.62973467 45.05216322 -38.125 46.0703125 C-30.05336379 48.47162427 -20.26112332 42.07953944 -13 38.8125 C-10.95978153 37.89910207 -8.91818346 36.98877737 -6.875 36.08203125 C-5.98554688 35.68218018 -5.09609375 35.2823291 -4.1796875 34.87036133 C-2 34 -2 34 0 34 C0 22.78 0 11.56 0 0 Z " fill="#6965F6" transform="translate(287,123)"/>
<path d="M0 0 C0.85722656 0.49371094 1.71445312 0.98742187 2.59765625 1.49609375 C3.74105469 2.13675781 4.88445312 2.77742188 6.0625 3.4375 C7.18785156 4.07558594 8.31320312 4.71367187 9.47265625 5.37109375 C13.07897837 7.03647174 16.0641297 7.64401683 20 8 C19.44812014 21.11190414 17.81501964 34.00971832 16 47 C16.71478516 47.27166992 17.42957031 47.54333984 18.16601562 47.82324219 C23.1539113 49.89437047 27.78900295 52.62101663 32.5 55.25 C33.53253906 55.81074219 34.56507813 56.37148438 35.62890625 56.94921875 C36.62792969 57.50738281 37.62695312 58.06554687 38.65625 58.640625 C39.56181641 59.14110352 40.46738281 59.64158203 41.40039062 60.15722656 C45.54734434 63.09685904 48.53085874 65.40622748 49.45352173 70.50741577 C49.64574578 73.61170705 49.66670793 76.67512435 49.62890625 79.78515625 C49.63131821 80.91900253 49.63373016 82.05284882 49.63621521 83.22105408 C49.63523781 85.61233018 49.62187016 88.00362921 49.59692383 90.39477539 C49.56258279 94.05367866 49.57628106 97.71017057 49.59570312 101.36914062 C49.58880544 103.69532277 49.57913376 106.0214987 49.56640625 108.34765625 C49.57384605 109.9868679 49.57384605 109.9868679 49.58143616 111.65919495 C49.46499532 119.16883265 49.46499532 119.16883265 47.31591797 123.01025391 C44.78065939 125.18844887 42.29763376 126.85557853 39.37890625 128.48828125 C38.28392822 129.10880371 37.1889502 129.72932617 36.06079102 130.36865234 C34.8947554 131.01671204 33.72865738 131.66465945 32.5625 132.3125 C30.78918241 133.31203233 29.01794714 134.31517977 27.24693298 135.31878662 C25.52888764 136.2922261 23.80937753 137.26307892 22.08984375 138.23388672 C17.38499078 140.92311763 12.79552473 143.77368304 8.22265625 146.6796875 C4.07143527 149.1456149 0.76427586 149.44051596 -4 149 C-7.23756595 147.71362902 -10.18436489 146.00679108 -13.1875 144.25 C-14.04738525 143.76063965 -14.90727051 143.2712793 -15.79321289 142.76708984 C-18.53912472 141.1952216 -21.2700283 139.59936766 -24 138 C-25.38541992 137.19900879 -25.38541992 137.19900879 -26.79882812 136.38183594 C-29.51870719 134.807823 -32.22990236 133.22003391 -34.9375 131.625 C-36.18793091 130.89458496 -36.18793091 130.89458496 -37.46362305 130.14941406 C-47.40026087 124.19947825 -47.40026087 124.19947825 -50 119 C-50.11538263 117.39837105 -50.16949874 115.79213303 -50.19287109 114.18652344 C-50.20893402 113.1849823 -50.22499695 112.18344116 -50.24154663 111.15155029 C-50.28598472 106.56409344 -50.3270693 101.97678195 -50.35009766 97.38916016 C-50.36665088 94.97011694 -50.3939322 92.5511225 -50.43212891 90.13232422 C-50.48691967 86.64524955 -50.50877697 83.15932229 -50.5234375 79.671875 C-50.54610687 78.59355408 -50.56877625 77.51523315 -50.59213257 76.40423584 C-50.56855848 68.01569132 -50.56855848 68.01569132 -47.80664062 64.47875977 C-45.13697995 62.12097751 -42.70109486 60.35161576 -39.5703125 58.66796875 C-38.53398682 58.10190918 -37.49766113 57.53584961 -36.42993164 56.95263672 C-34.79399048 56.07889404 -34.79399048 56.07889404 -33.125 55.1875 C-30.87606799 53.94443384 -28.62736946 52.70094517 -26.37890625 51.45703125 C-22.64323584 49.41502669 -18.89254053 47.42553632 -15.08984375 45.51171875 C-13.7473117 44.79963776 -12.40485588 44.08741304 -11.0625 43.375 C-9.91910156 42.80523437 -8.77570313 42.23546875 -7.59765625 41.6484375 C-3.46713608 37.43717032 -3.55908166 32.70336699 -3 27 C-2.86053955 25.8435498 -2.7210791 24.68709961 -2.57739258 23.49560547 C-2.14777187 19.9163295 -1.75643469 16.3347076 -1.375 12.75 C-1.2409375 11.51636719 -1.106875 10.28273438 -0.96875 9.01171875 C-0.64277896 6.0081285 -0.31991378 3.00424039 0 0 Z " fill="#082C75" transform="translate(434,279)"/>
<path d="M0 0 C3.14221578 1.32498889 6.05242331 2.97863777 9 4.6875 C9.85851562 5.17355713 10.71703125 5.65961426 11.6015625 6.16040039 C14.40994572 7.75857884 17.20533743 9.37796274 20 11 C20.99515625 11.57169922 21.9903125 12.14339844 23.015625 12.73242188 C26.01617274 14.45773683 29.00959431 16.19467285 32 17.9375 C32.93714844 18.48043701 33.87429687 19.02337402 34.83984375 19.58276367 C35.71769531 20.1007251 36.59554687 20.61868652 37.5 21.15234375 C38.2734375 21.60601318 39.046875 22.05968262 39.84375 22.52709961 C45.69118531 26.52139051 45.69118531 26.52139051 46.52812195 30.52865601 C46.54035294 31.47874542 46.55258392 32.42883484 46.56518555 33.40771484 C46.58747726 34.48918793 46.60976898 35.57066101 46.63273621 36.68490601 C46.63470757 38.4302916 46.63470757 38.4302916 46.63671875 40.2109375 C46.65313164 42.01227646 46.65313164 42.01227646 46.6698761 43.8500061 C46.68574364 46.39019477 46.69093703 48.93046917 46.6862793 51.47070312 C46.68749353 55.35431352 46.74724192 59.23415514 46.81054688 63.1171875 C46.81868901 65.58592828 46.82336093 68.05468344 46.82421875 70.5234375 C46.84779953 71.68297943 46.87138031 72.84252136 46.89567566 74.03720093 C46.80644065 81.87660014 46.80644065 81.87660014 44.567276 84.99583435 C42.79223754 86.56598357 41.03836561 87.79676432 39 89 C38.12480713 89.57145752 37.24961426 90.14291504 36.34790039 90.73168945 C35.52281982 91.18761475 34.69773926 91.64354004 33.84765625 92.11328125 C32.9136499 92.63510986 31.97964355 93.15693848 31.01733398 93.69458008 C30.04223877 94.22849365 29.06714355 94.76240723 28.0625 95.3125 C26.01283283 96.44757725 23.96335463 97.58299578 21.9140625 98.71875 C20.91149414 99.27175781 19.90892578 99.82476562 18.87597656 100.39453125 C16.27867932 101.84443164 13.70893677 103.33009064 11.1484375 104.84375 C10.42906006 105.26487061 9.70968262 105.68599121 8.96850586 106.11987305 C7.65634524 106.89038689 6.34941609 107.66991208 5.04907227 108.46020508 C1.11476843 110.74315305 -1.48961791 111.41601284 -6 111 C-9.01342773 109.67407227 -9.01342773 109.67407227 -12.18359375 107.81640625 C-12.75671295 107.48533371 -13.32983215 107.15426117 -13.9203186 106.81315613 C-15.76703096 105.74214041 -17.60226972 104.65305335 -19.4375 103.5625 C-20.70118217 102.82293662 -21.96542575 102.08433169 -23.23022461 101.34667969 C-25.70844167 99.89828602 -28.18191075 98.44228182 -30.65136719 96.97900391 C-33.44800333 95.32622375 -36.25410036 93.69327704 -39.0703125 92.07421875 C-49.54831275 85.98343272 -49.54831275 85.98343272 -52 82 C-52.38768005 79.5405426 -52.38768005 79.5405426 -52.40405273 76.76000977 C-52.41673691 75.71535049 -52.42942108 74.67069122 -52.44248962 73.59437561 C-52.43955399 72.47139572 -52.43661835 71.34841583 -52.43359375 70.19140625 C-52.4388356 69.03253403 -52.44407745 67.8736618 -52.44947815 66.67967224 C-52.4559003 64.22940878 -52.45455889 61.7791145 -52.44604492 59.32885742 C-52.43753972 55.5800076 -52.46628867 51.83268347 -52.49804688 48.08398438 C-52.49965908 45.70312546 -52.499081 43.32226384 -52.49609375 40.94140625 C-52.50732773 39.82045059 -52.51856171 38.69949493 -52.53013611 37.54457092 C-52.46102454 29.82510962 -52.46102454 29.82510962 -50.29785156 25.95361328 C-47.87002455 23.88949601 -45.54212557 22.31746987 -42.73828125 20.80078125 C-41.70936768 20.23568848 -40.6804541 19.6705957 -39.62036133 19.08837891 C-38.52876709 18.50233887 -37.43717285 17.91629883 -36.3125 17.3125 C-34.05103762 16.07873775 -31.79062437 14.8430506 -29.53125 13.60546875 C-28.42136719 12.99880371 -27.31148437 12.39213867 -26.16796875 11.76708984 C-23.33439376 10.18652451 -20.55031218 8.55360838 -17.78125 6.86328125 C-16.63402466 6.16368286 -16.63402466 6.16368286 -15.46362305 5.44995117 C-14.07064354 4.59196686 -12.68361343 3.72421572 -11.30395508 2.8449707 C-7.32165644 0.40734633 -4.645986 -0.82400506 0 0 Z " fill="#072B75" transform="translate(192,288)"/>
<path d="M0 0 C2.7980957 1.21826172 2.7980957 1.21826172 5.67578125 2.9296875 C7.27764282 3.86880981 7.27764282 3.86880981 8.91186523 4.8269043 C10.03407471 5.50277588 11.15628418 6.17864746 12.3125 6.875 C13.47599001 7.56466224 14.64013883 8.25321422 15.80493164 8.94067383 C18.12458521 10.31167288 20.44007801 11.68933836 22.75292969 13.07177734 C25.61425871 14.77093348 28.49019821 16.436919 31.3828125 18.08203125 C32.16358154 18.52885254 32.94435059 18.97567383 33.7487793 19.43603516 C35.16664421 20.24674074 36.58722732 21.0527182 38.01098633 21.85302734 C41.48207304 23.86479697 43.91733289 25.56030956 46 29 C46.38768005 31.4594574 46.38768005 31.4594574 46.40405273 34.23999023 C46.41673691 35.28464951 46.42942108 36.32930878 46.44248962 37.40562439 C46.43955399 38.52860428 46.43661835 39.65158417 46.43359375 40.80859375 C46.4388356 41.96746597 46.44407745 43.1263382 46.44947815 44.32032776 C46.4559003 46.77059122 46.45455889 49.2208855 46.44604492 51.67114258 C46.43753972 55.4199924 46.46628867 59.16731653 46.49804688 62.91601562 C46.49965908 65.29687454 46.499081 67.67773616 46.49609375 70.05859375 C46.50732773 71.17954941 46.51856171 72.30050507 46.53013611 73.45542908 C46.46117491 81.1580948 46.46117491 81.1580948 44.34985352 85.01245117 C41.66008231 87.28750856 38.985824 89.02572632 35.90625 90.7421875 C35.31888062 91.07364777 34.73151123 91.40510803 34.12634277 91.74661255 C32.25621239 92.79924912 30.37853384 93.83744896 28.5 94.875 C26.65923153 95.90460705 24.82012028 96.937126 22.98120117 97.97003174 C21.76566349 98.6508548 20.5483734 99.32855861 19.3293457 100.00311279 C15.34712598 102.21165196 11.47156753 104.55643057 7.59375 106.9453125 C-1.20698526 111.98127261 -1.20698526 111.98127261 -6 111 C-10.56139633 109.11973565 -14.76384531 106.69692306 -19 104.1875 C-20.20426587 103.49297446 -21.40935002 102.79986589 -22.61523438 102.1081543 C-26.09495883 100.10195606 -29.54877639 98.05484037 -33 96 C-33.91265625 95.46149414 -34.8253125 94.92298828 -35.765625 94.36816406 C-38.02029011 93.03170055 -40.26395065 91.67983563 -42.5 90.3125 C-43.13292969 89.92795654 -43.76585937 89.54341309 -44.41796875 89.1472168 C-47.66462492 87.09936106 -49.99259396 85.27634689 -52 82 C-52.38768005 79.5405426 -52.38768005 79.5405426 -52.40405273 76.76000977 C-52.41673691 75.71535049 -52.42942108 74.67069122 -52.44248962 73.59437561 C-52.43955399 72.47139572 -52.43661835 71.34841583 -52.43359375 70.19140625 C-52.4388356 69.03253403 -52.44407745 67.8736618 -52.44947815 66.67967224 C-52.4559003 64.22940878 -52.45455889 61.7791145 -52.44604492 59.32885742 C-52.43753972 55.5800076 -52.46628867 51.83268347 -52.49804688 48.08398438 C-52.49965908 45.70312546 -52.499081 43.32226384 -52.49609375 40.94140625 C-52.50732773 39.82045059 -52.51856171 38.69949493 -52.53013611 37.54457092 C-52.46102454 29.82510962 -52.46102454 29.82510962 -50.29785156 25.95361328 C-47.87002455 23.88949601 -45.54212557 22.31746987 -42.73828125 20.80078125 C-41.70936768 20.23568848 -40.6804541 19.6705957 -39.62036133 19.08837891 C-38.52876709 18.50233887 -37.43717285 17.91629883 -36.3125 17.3125 C-34.05103762 16.07873775 -31.79062437 14.8430506 -29.53125 13.60546875 C-28.42136719 12.99880371 -27.31148438 12.39213867 -26.16796875 11.76708984 C-23.33439376 10.18652451 -20.55031218 8.55360838 -17.78125 6.86328125 C-16.63402466 6.16368286 -16.63402466 6.16368286 -15.46362305 5.44995117 C-14.07064354 4.59196686 -12.68361343 3.72421572 -11.30395508 2.8449707 C-7.26966808 0.37552348 -4.6930845 -0.43195056 0 0 Z " fill="#072B75" transform="translate(340,91)"/>
<path d="M0 0 C0.17128418 1.27528564 0.34256836 2.55057129 0.51904297 3.86450195 C1.16133839 8.64154215 1.806994 13.4181234 2.45361328 18.19458008 C2.73185966 20.25337756 3.00922101 22.31229487 3.28564453 24.37133789 C3.68543896 27.34814662 4.08852129 30.32449537 4.4921875 33.30078125 C4.6131076 34.2064534 4.73402771 35.11212555 4.85861206 36.04524231 C5.61538467 41.59665503 6.53205292 47.09681032 7.58346558 52.60025024 C8 55 8 55 8.328125 58.78515625 C9.17726139 62.84817513 11.12400089 65.35413331 13.75 68.4375 C14.23082031 69.02515137 14.71164062 69.61280273 15.20703125 70.21826172 C16.24356681 71.48311346 17.28610607 72.74306435 18.33398438 73.99853516 C20.67401065 76.80972147 22.97273056 79.65373959 25.27441406 82.49633789 C26.92766915 84.53577353 28.58848655 86.56885441 30.25 88.6015625 C36 95.69297293 36 95.69297293 36 98 C34.93523437 98.3403125 33.87046875 98.680625 32.7734375 99.03125 C18.51022851 103.73220797 6.62978062 109.95227074 -4.4765625 120.19140625 C-7 122 -7 122 -8.98681641 121.81860352 C-11.42514412 120.82712731 -12.22631243 119.85121329 -13.734375 117.7109375 C-14.22220459 117.02418945 -14.71003418 116.33744141 -15.21264648 115.62988281 C-15.71997314 114.88577148 -16.2272998 114.14166016 -16.75 113.375 C-17.27859619 112.61026367 -17.80719238 111.84552734 -18.35180664 111.05761719 C-27.11481517 98.16166729 -36.79243408 83.19157609 -36.05078125 67.171875 C-35.92903259 59.56726645 -37.37453947 51.92367757 -38.9375 44.5 C-40.20822563 38.25790143 -41.03388161 31.96201767 -41.85986328 25.64794922 C-42.12734286 23.60712436 -42.40122836 21.56722783 -42.67578125 19.52734375 C-44 9.52102914 -44 9.52102914 -44 5 C-38.69874348 4.28289234 -33.39682508 3.57097354 -28.09423828 2.86376953 C-26.29196553 2.62266822 -24.48987884 2.38017168 -22.68798828 2.13623047 C-20.09195321 1.78502749 -17.49528151 1.43891423 -14.8984375 1.09375 C-13.69808365 0.92969666 -13.69808365 0.92969666 -12.47348022 0.7623291 C-8.28087175 0.21034128 -4.24079241 -0.11862356 0 0 Z " fill="#FDFDFE" transform="translate(330,355)"/>
<path d="M0 0 C2.87666181 1.36411915 5.55098464 3.00360103 8.25 4.6875 C9.69200206 5.56756455 11.13471317 6.44646831 12.578125 7.32421875 C13.21137695 7.71697998 13.84462891 8.10974121 14.49707031 8.5144043 C18.28229893 10.7610992 22.15215928 12.86231071 26 15 C26 26.55 26 38.1 26 50 C13.5625 56.9375 13.5625 56.9375 9.63500977 59.12475586 C8.62237061 59.69073486 7.60973145 60.25671387 6.56640625 60.83984375 C5.52427979 61.42113037 4.48215332 62.00241699 3.40844727 62.60131836 C1.12440597 63.79013865 1.12440597 63.79013865 0 65 C-5.05983769 64.61631563 -8.56270843 63.46496841 -12.8984375 60.875 C-13.95417969 60.25109375 -15.00992188 59.6271875 -16.09765625 58.984375 C-17.17917969 58.32953125 -18.26070312 57.6746875 -19.375 57 C-20.47972656 56.34515625 -21.58445313 55.6903125 -22.72265625 55.015625 C-30.78276976 50.21723024 -30.78276976 50.21723024 -32 49 C-32.48480879 44.42836417 -32.65636587 39.85879983 -32.78955078 35.26489258 C-32.84609891 33.72468324 -32.9277808 32.1851731 -33.03564453 30.64770508 C-33.39002126 25.49924446 -33.42242922 20.99423422 -32 16 C-28.16028181 12.17072718 -23.92195142 10.16996614 -19 8 C-17.5992622 7.18193703 -16.20999764 6.34319884 -14.84375 5.46875 C-13.7403125 4.8190625 -12.636875 4.169375 -11.5 3.5 C-10.3759375 2.8296875 -9.251875 2.159375 -8.09375 1.46875 C-4.82330012 -0.08388782 -3.52080859 -0.69045797 0 0 Z " fill="#FA7C9F" transform="translate(192,311)"/>
<path d="M0 0 C3.00705546 1.46588307 5.9086048 3.09063132 8.8125 4.75 C9.58142578 5.18054688 10.35035156 5.61109375 11.14257812 6.0546875 C12.68659896 6.92507224 14.21869276 7.81695887 15.73803711 8.72973633 C17.95415798 10.0491718 17.95415798 10.0491718 20.31079102 10.86987305 C22.88804946 11.97894509 24.24161288 12.79225651 26 15 C27.17062383 19.71334633 27.36107828 24.19596824 27.31762695 29.03686523 C27.31251992 31.3036581 27.41890376 33.54702446 27.53320312 35.81054688 C27.62546199 40.20842259 27.35348285 43.78061656 26 48 C22.13692687 51.77794225 17.89498591 53.8095974 13 56 C11.60991793 56.82857987 10.23209072 57.67884524 8.87890625 58.56640625 C7.78449219 59.22511719 6.69007813 59.88382813 5.5625 60.5625 C4.45003906 61.24441406 3.33757812 61.92632812 2.19140625 62.62890625 C-1.6128209 64.26328046 -3.03314686 63.97946613 -7 63 C-9.8684082 61.6171875 -9.8684082 61.6171875 -12.80078125 59.875 C-13.85974609 59.25109375 -14.91871094 58.6271875 -16.00976562 57.984375 C-17.09966797 57.32953125 -18.18957031 56.6746875 -19.3125 56 C-20.42173828 55.34515625 -21.53097656 54.6903125 -22.67382812 54.015625 C-30.80333647 49.19666353 -30.80333647 49.19666353 -32 48 C-35.1888982 20.78806866 -35.1888982 20.78806866 -30.71679688 12.67089844 C-27.40177397 9.40131387 -23.41592893 7.99709494 -19.01855469 6.6875 C-15.78376301 5.58576157 -13.22548985 3.75163172 -10.375 1.875 C-6.39138357 -0.63568262 -4.50604834 -1.6208807 0 0 Z " fill="#FAC950" transform="translate(340,115)"/>
<path d="M0 0 C1.93735837 0.97245638 3.83688591 2.02219426 5.703125 3.125 C6.7653125 3.74890625 7.8275 4.3728125 8.921875 5.015625 C10.56929688 5.99789063 10.56929688 5.99789063 12.25 7 C13.36375 7.65484375 14.4775 8.3096875 15.625 8.984375 C23.8234747 13.8234747 23.8234747 13.8234747 25 15 C26.90581856 25.48114362 28.98126287 38.83460172 25 49 C21.70301625 53.7510293 16.78993925 56.56818744 11.75 59.1875 C11.12138062 59.51428741 10.49276123 59.84107483 9.84509277 60.17776489 C-0.1215838 65.1664166 -0.1215838 65.1664166 -4.0612793 64.81738281 C-6.59083546 63.75089823 -8.93092413 62.48927409 -11.31640625 61.12890625 C-12.32767578 60.55462891 -13.33894531 59.98035156 -14.38085938 59.38867188 C-15.95577148 58.4847168 -15.95577148 58.4847168 -17.5625 57.5625 C-18.61630859 56.96373047 -19.67011719 56.36496094 -20.75585938 55.74804688 C-28.48458104 51.34361264 -28.48458104 51.34361264 -32 49 C-32.47901369 46.49686606 -32.75167465 44.24611574 -32.890625 41.71875 C-32.93331512 40.99298767 -32.97600525 40.26722534 -33.01998901 39.51947021 C-33.1322727 37.17927152 -33.20117337 34.84235998 -33.25 32.5 C-33.26657654 31.71411499 -33.28315308 30.92822998 -33.30023193 30.11853027 C-33.40639923 17.29973825 -33.40639923 17.29973825 -30.47949219 12.51367188 C-26.62013588 8.94606802 -22.08545657 7.25166046 -17.12011719 5.72216797 C-14.16776851 4.71651995 -11.79993406 3.08350284 -9.25 1.3125 C-5.66473983 -1.07982289 -4.13803053 -1.13714324 0 0 Z " fill="#FB8E01" transform="translate(437,341)"/>
<path d="M0 0 C2.21655273 1.05981445 2.21655273 1.05981445 4.43359375 2.36328125 C5.24763672 2.83830078 6.06167969 3.31332031 6.90039062 3.80273438 C7.73763672 4.30095703 8.57488281 4.79917969 9.4375 5.3125 C10.27087891 5.79912109 11.10425781 6.28574219 11.96289062 6.78710938 C14.32173608 8.17258145 16.67206772 9.56312141 19 11 C20.58204224 11.84848511 20.58204224 11.84848511 22.19604492 12.71411133 C25 15 25 15 26.06201172 18.35302734 C26.46349891 22.70220532 26.78181003 27.0085799 26.875 31.375 C26.90803726 32.53467285 26.90803726 32.53467285 26.94174194 33.71777344 C27.02133115 40.42252963 26.95264231 46.50999782 22.69873047 51.93457031 C16.24277214 57.19401128 8.79741874 60.26276181 1 63 C-0.23399536 63.64533691 -0.23399536 63.64533691 -1.49291992 64.30371094 C-4 65 -4 65 -6.81494141 63.97363281 C-7.81702637 63.38936523 -8.81911133 62.80509766 -9.8515625 62.203125 C-10.94984375 61.5740625 -12.048125 60.945 -13.1796875 60.296875 C-14.32831264 59.61489927 -15.47674826 58.93260425 -16.625 58.25 C-17.78029959 57.58168768 -18.93654179 56.915002 -20.09375 56.25 C-24.12493285 53.91665651 -28.12396529 51.58402314 -32 49 C-32.47901369 46.49686606 -32.75167465 44.24611574 -32.890625 41.71875 C-32.93331512 40.99298767 -32.97600525 40.26722534 -33.01998901 39.51947021 C-33.1322727 37.17927152 -33.20117337 34.84235998 -33.25 32.5 C-33.26657654 31.71411499 -33.28315308 30.92822998 -33.30023193 30.11853027 C-33.40639923 17.29973825 -33.40639923 17.29973825 -30.47949219 12.51367188 C-26.62013588 8.94606802 -22.08545657 7.25166046 -17.12011719 5.72216797 C-14.16776851 4.71651995 -11.79993406 3.08350284 -9.25 1.3125 C-5.66804338 -1.07761853 -4.13518662 -1.09605518 0 0 Z " fill="#B0D852" transform="translate(454,200)"/>
<path d="M0 0 C2.40293933 1.12485451 4.70777456 2.24849286 6.98120117 3.61254883 C7.70629883 4.04374023 8.43139648 4.47493164 9.1784668 4.91918945 C9.91645508 5.36584961 10.65444336 5.81250977 11.41479492 6.27270508 C12.15665039 6.71549805 12.89850586 7.15829102 13.6628418 7.61450195 C15.72935363 8.84925658 17.79120734 10.09142399 19.85229492 11.33520508 C20.73731689 11.73223633 21.62233887 12.12926758 22.53417969 12.53833008 C24.85229492 14.33520508 24.85229492 14.33520508 25.68969727 17.54638672 C25.9596451 21.83558726 26.18220488 26.10029906 26.22729492 30.39770508 C26.23920868 31.15708374 26.25112244 31.9164624 26.26339722 32.69885254 C26.30959851 45.02423929 26.30959851 45.02423929 23.30688477 49.78588867 C19.4256643 53.34131682 14.89964249 55.0992044 9.92504883 56.64428711 C7.21326737 57.54821426 4.98401033 58.96059191 2.60229492 60.52270508 C0.24662551 61.97796366 -0.63868187 62.41067505 -3.40527344 62.00048828 C-13.09601234 59.64962355 -23.89937841 55.3578473 -30.14770508 47.33520508 C-33.77620996 37.2865806 -31.54600472 24.64139053 -30.14770508 14.33520508 C-26.42706302 12.13605484 -22.69207348 9.96442735 -18.94165039 7.81665039 C-17.66884484 7.08276302 -16.40020393 6.34160191 -15.13598633 5.59301758 C-13.31450922 4.51616948 -11.47949859 3.46664337 -9.63989258 2.42114258 C-8.54016113 1.78225098 -7.44042969 1.14335937 -6.30737305 0.48510742 C-3.14770508 -0.66479492 -3.14770508 -0.66479492 0 0 Z " fill="#67CAD1" transform="translate(210.147705078125,172.664794921875)"/>
<path d="M0 0 C0.33 0 0.66 0 1 0 C0.97255707 0.59531525 0.94511414 1.19063049 0.9168396 1.8039856 C0.64641902 8.06734966 0.5066247 14.3245069 0.43847656 20.59326172 C0.39659469 22.9235049 0.32271548 25.25342118 0.21484375 27.58154297 C-0.71565606 40.61056868 -0.71565606 40.61056868 3.74761963 52.42303467 C7.94536911 56.63861606 12.69760672 59.8020285 17.84231567 62.74960327 C20.75737406 64.43890482 23.4125195 66.37932814 26.125 68.375 C27.41301782 69.25536235 28.70289113 70.13308804 30 71 C30.66 70.67 31.32 70.34 32 70 C32.04898438 70.66644531 32.09796875 71.33289063 32.1484375 72.01953125 C32.54319864 76.88598328 33.06356017 81.64348715 34 86.4375 C34.2321521 87.73772095 34.2321521 87.73772095 34.46899414 89.06420898 C34.79783956 90.88230839 35.15973421 92.69517364 35.57348633 94.49584961 C37.34336414 105.03664901 32.77150718 113.66980471 28.6875 123.125 C27.97499401 124.83501438 27.26468867 126.54594745 26.55664062 128.2578125 C21.3935785 140.6064215 21.3935785 140.6064215 19 143 C13.83008462 136.66268437 13.83008462 136.66268437 14.12792969 131.34521484 C17.19392959 103.33367248 17.19392959 103.33367248 8.54296875 78.234375 C4.30362604 74.67329681 -0.26645903 72.16479202 -5.38720703 70.09082031 C-9.2292249 68.48680837 -12.52696753 66.28262911 -16 64 C-12.44490784 61.00039099 -8.74584067 58.53574373 -4.76953125 56.1484375 C-2.8531859 54.99197764 -2.8531859 54.99197764 -1 53 C-0.66883262 50.65590429 -0.66883262 50.65590429 -0.68115234 47.90771484 C-0.66128265 46.84676605 -0.64141296 45.78581726 -0.62094116 44.69271851 C-0.60938995 43.54373077 -0.59783875 42.39474304 -0.5859375 41.2109375 C-0.56657135 40.03737701 -0.5472052 38.86381653 -0.5272522 37.6546936 C-0.46732336 33.89487039 -0.42101754 30.13501677 -0.375 26.375 C-0.3368325 23.83071558 -0.29778151 21.28644425 -0.2578125 18.7421875 C-0.16161095 12.49490759 -0.07660262 6.24754928 0 0 Z " fill="#6967F4" transform="translate(238,318)"/>
<path d="M0 0 C1.62073328 3.16056039 2.95855263 6.37766997 4.25708008 9.68432617 C10.0277961 24.24990559 17.78303823 39.78303823 29 51 C19.25346016 56.80995037 9.91696997 61.71524797 -1 65 C-1.76183594 65.24492187 -2.52367187 65.48984375 -3.30859375 65.7421875 C-10.65334012 67.76928196 -18.45124676 67.16672093 -26 67 C-23.55201718 59.34064525 -20.65474572 51.90052384 -17.67578125 44.43359375 C-17.16418702 43.14616848 -16.65281283 41.85865574 -16.14164734 40.57106018 C-14.80731035 37.21164184 -13.47002277 33.853406 -12.13208008 30.49542236 C-10.76267306 27.05691354 -9.39611118 23.61727443 -8.02929688 20.17773438 C-5.35562021 13.45072455 -2.67881989 6.7249636 0 0 Z " fill="#D0DAFC" transform="translate(293,427)"/>
<path d="M0 0 C1.51233701 6.46794133 2.21432579 12.35590042 2 19 C-7.5547795 21.20071697 -17.01862341 22.79588414 -26.75 24 C-35.28462166 25.08813795 -43.78117455 26.22945668 -52.25 27.75 C-58.24416184 28.81906185 -63.90810633 29.29476905 -70 29 C-70.34274406 27.33524314 -70.67364302 25.66804677 -71 24 C-71.2784375 22.6078125 -71.2784375 22.6078125 -71.5625 21.1875 C-72.08160612 17.40544113 -72.02746257 13.81729772 -72 10 C-70.78530029 9.82871582 -69.57060059 9.65743164 -68.3190918 9.48095703 C-63.76571958 8.83829615 -59.21275968 8.19275305 -54.65991211 7.54638672 C-52.69810751 7.2682697 -50.73619537 6.99091013 -48.77416992 6.71435547 C-34.92665637 4.78337875 -34.92665637 4.78337875 -21.15063477 2.40673828 C-17.98582192 1.80819382 -14.81300231 1.33459759 -11.625 0.875 C-10.48289062 0.70742188 -9.34078125 0.53984375 -8.1640625 0.3671875 C-5.40122263 0.04656164 -2.77649352 -0.07279197 0 0 Z " fill="#90AFF1" transform="translate(338,313)"/>
<path d="M0 0 C6.8974666 4.45780712 13.47444804 9.26685123 20 14.25 C20.95261719 14.96929687 21.90523438 15.68859375 22.88671875 16.4296875 C23.79035156 17.11804688 24.69398438 17.80640625 25.625 18.515625 C26.44226563 19.13727539 27.25953125 19.75892578 28.1015625 20.39941406 C30 22 30 22 31 24 C30.15695312 24.47050781 29.31390625 24.94101563 28.4453125 25.42578125 C27.34960938 26.04839844 26.25390625 26.67101562 25.125 27.3125 C23.48917969 28.23482422 23.48917969 28.23482422 21.8203125 29.17578125 C18.80595155 30.86057646 18.80595155 30.86057646 17 34 C16.6723603 36.40299777 16.6723603 36.40299777 16.68115234 39.11401367 C16.66128265 40.15486618 16.64141296 41.19571869 16.62094116 42.26811218 C16.60361435 43.95104118 16.60361435 43.95104118 16.5859375 45.66796875 C16.56657135 46.81791824 16.5472052 47.96786774 16.5272522 49.15266418 C16.46740239 52.83086699 16.42104894 56.509101 16.375 60.1875 C16.33682524 62.67905022 16.29777381 65.17058717 16.2578125 67.66210938 C16.16169638 73.77462194 16.07666462 79.88721421 16 86 C15.67 86 15.34 86 15 86 C15.02966354 85.40468475 15.05932709 84.80936951 15.08988953 84.1960144 C15.38263537 77.93275194 15.53737613 71.67625748 15.61645508 65.40673828 C15.66333325 63.07636155 15.74401828 60.74638808 15.8605957 58.41845703 C16.83314721 45.33818436 16.83314721 45.33818436 12.1600647 33.58502197 C7.6965926 29.34829658 2.6794009 26.22643013 -2.70414734 23.29055786 C-5.91589477 21.48515198 -8.75647343 19.35389684 -11.6875 17.125 C-13.12451934 16.08267034 -14.56178816 15.04068362 -16 14 C-12.16169305 10.84783288 -8.20580395 8.17098463 -3.98828125 5.5625 C-1.81279053 3.85288057 -1.13912278 2.47450368 0 0 Z " fill="#6765F0" transform="translate(386,171)"/>
<path d="M0 0 C0.85722656 0.49371094 1.71445312 0.98742187 2.59765625 1.49609375 C3.74105469 2.13675781 4.88445312 2.77742188 6.0625 3.4375 C7.18785156 4.07558594 8.31320312 4.71367187 9.47265625 5.37109375 C13.07897837 7.03647174 16.0641297 7.64401683 20 8 C19.4685066 20.79249621 17.86088668 33.33966845 16 46 C12.41285127 44.63725014 9.33886432 43.03979609 6.13671875 40.90234375 C2.84200693 39.5109755 -0.44881821 39.35695817 -4 39 C-2.93388623 25.95981738 -1.76890734 12.96571445 0 0 Z " fill="#6965F6" transform="translate(434,279)"/>
<path d="M0 0 C0.04898437 1.03640625 0.09796875 2.0728125 0.1484375 3.140625 C0.22349597 4.51044208 0.29904247 5.88023248 0.375 7.25 C0.4059375 7.93191406 0.436875 8.61382812 0.46875 9.31640625 C0.76498441 14.40176367 1.39844212 17.39844212 5 21 C3.83597656 21.43699219 3.83597656 21.43699219 2.6484375 21.8828125 C-5.67067072 25.0397056 -13.84506332 28.44214907 -22 32 C-25.81434877 28.00733818 -26.75851036 24.53756953 -27.25 19.1875 C-27.32734375 18.49462891 -27.4046875 17.80175781 -27.484375 17.08789062 C-27.67133957 15.39352419 -27.83777927 13.6969142 -28 12 C-5.14893617 0 -5.14893617 0 0 0 Z " fill="#6965F6" transform="translate(384,383)"/>
<path d="M0 0 C3.25139735 1.66738326 4.81743729 3.55085877 6 7 C6.62185533 11.08647785 6.17169239 12.70646139 4.0625 16.3125 C1.17981087 19.42514723 -1.69393686 20.03785219 -5.84765625 20.23828125 C-9.21156613 19.86587017 -10.78855966 18.47949372 -13 16 C-15.03640233 13.31565147 -14.99994332 11.99688261 -14.9375 8.5625 C-12.79685322 0.42804222 -7.70553666 -1.32754564 0 0 Z " fill="#6966F6" transform="translate(284,519)"/>
<path d="M0 0 C2.92810762 1.81651121 5.43591638 3.87183276 7 7 C7.45063943 10.96562695 7.12904332 12.76416221 5.1875 16.3125 C3 19 3 19 0 20 C-4.19987818 20.38887761 -6.29607238 20.45908323 -9.875 18.125 C-12.80038857 15.19961143 -12.96503325 14.42659437 -13.3125 10.1875 C-13.27673467 6.90901165 -12.99591603 5.99338116 -11.1875 3.0625 C-7.74390783 -0.18431547 -4.59448491 -0.54052764 0 0 Z " fill="#6966F7" transform="translate(378,493)"/>
<path d="M0 0 C3.54096529 2.79889512 5.7189287 5.62275065 6.625 10.0625 C5.83274711 13.78608857 4.39365814 16.05922 2 19 C-1.60572704 20.20190901 -4.2102435 20.32670315 -8 20 C-10.875 18.5625 -10.875 18.5625 -13 16 C-14.29236844 11.72401554 -14.47789237 8.24783008 -12.875 4.0625 C-9.36089844 0.19698829 -5.10292984 -0.93727283 0 0 Z " fill="#6865F6" transform="translate(342,530)"/>
</svg>
