<?xml version="1.0" encoding="UTF-8"?>
<svg version="1.1" xmlns="http://www.w3.org/2000/svg" width="640" height="640">
<path d="M0 0 C211.2 0 422.4 0 640 0 C640 211.2 640 422.4 640 640 C428.8 640 217.6 640 0 640 C0 428.8 0 217.6 0 0 Z " fill="#FEFEFE" transform="translate(0,0)"/>
<path d="M0 0 C3.17751198 1.3153281 6.09790015 2.95066969 9.0625 4.6875 C9.91650391 5.17428223 10.77050781 5.66106445 11.65039062 6.16259766 C13.47961527 7.20999765 15.30453542 8.26494445 17.12548828 9.32666016 C20.09233687 11.05375207 23.07443048 12.75224784 26.05859375 14.44921875 C28.03999878 15.58952048 30.02049026 16.7314113 32 17.875 C32.937229 18.40955811 33.87445801 18.94411621 34.84008789 19.49487305 C36.15674438 20.2669812 36.15674438 20.2669812 37.5 21.0546875 C38.2734375 21.50312012 39.046875 21.95155273 39.84375 22.41357422 C42.68017 24.50042399 44.22350798 25.89927718 46 29 C46.55892045 32.89926312 46.48860259 36.75510432 46.42578125 40.6875 C46.42249313 41.82276123 46.41920502 42.95802246 46.41581726 44.12768555 C46.4054057 46.52496076 46.38547168 48.92221091 46.35668945 51.31933594 C46.31266245 54.98646926 46.29525711 58.65294769 46.28320312 62.3203125 C46.26977643 64.65105109 46.25485274 66.98178164 46.23828125 69.3125 C46.23089432 70.40844482 46.22350739 71.50438965 46.21589661 72.63354492 C46.20306137 73.65810791 46.19022614 74.6826709 46.17700195 75.73828125 C46.16715775 76.63587158 46.15731354 77.53346191 46.14717102 78.45825195 C46 81 46 81 45.39347839 83.70825195 C45.19870659 84.84266724 45.19870659 84.84266724 45 86 C46.5285443 88.07684106 46.5285443 88.07684106 48.9375 89.875 C52.44483469 92.79612294 55.8051894 95.7446828 59.0546875 98.953125 C59.75730713 99.64035645 60.45992676 100.32758789 61.18383789 101.03564453 C62.59138873 102.41720435 63.98924969 103.80871329 65.37670898 105.21044922 C66.36006226 106.16201904 66.36006226 106.16201904 67.36328125 107.1328125 C67.94376221 107.70918457 68.52424316 108.28555664 69.12231445 108.87939453 C70.98430592 110.23028977 70.98430592 110.23028977 73.42724609 109.84936523 C76.17208094 108.94318945 78.34498332 107.79943069 80.80078125 106.27734375 C81.69603516 105.73916016 82.59128906 105.20097656 83.51367188 104.64648438 C85.37277603 103.51130214 87.22701397 102.36811003 89.07617188 101.21679688 C97.95660292 95.91400185 97.95660292 95.91400185 102.74145508 96.32641602 C108.4888757 98.04051541 113.57980791 101.42872579 118.6875 104.5 C119.88906179 105.20468266 121.09153169 105.90781926 122.29492188 106.609375 C125.28403827 108.3586762 128.25367282 110.13829001 131.2177124 111.9296875 C133.02144693 113.01287947 134.83513319 114.07771385 136.65087891 115.140625 C137.81568869 115.83289773 138.98024947 116.52558964 140.14453125 117.21875 C141.17553955 117.82654297 142.20654785 118.43433594 143.26879883 119.06054688 C146.38752799 121.27518748 148.12345364 122.63687107 150 126 C150.59492782 129.88475592 150.58421647 133.72821973 150.56640625 137.65234375 C150.57260483 138.78523331 150.57880341 139.91812286 150.58518982 141.08534241 C150.59228567 143.4783543 150.58911817 145.87141559 150.57641602 148.2644043 C150.56256124 151.921337 150.59661586 155.57570562 150.63476562 159.23242188 C150.63571694 161.55989646 150.63385732 163.88737424 150.62890625 166.21484375 C150.64216446 167.30562729 150.65542267 168.39641083 150.66908264 169.52024841 C150.56551004 177.98652831 150.56551004 177.98652831 147.85205078 181.49438477 C144.92967397 184.0617836 142.1389656 185.98913146 138.73828125 187.875 C138.14758347 188.20741699 137.55688568 188.53983398 136.94828796 188.88232422 C135.07582905 189.93302704 133.19473796 190.96693749 131.3125 192 C129.45611512 193.03350635 127.60166441 194.07042015 125.74737549 195.10768127 C124.53945893 195.78227505 123.33028043 196.4546145 122.11981201 197.12461853 C117.69834018 199.57795895 113.38308218 202.17226028 109.11157227 204.87719727 C106.92208968 206.04142786 105.05633829 206.51754952 102.625 206.9375 C100.60359012 207.52312168 100.60359012 207.52312168 99 209 C97.20863593 213.10661763 96.30230078 217.31383904 95.453125 221.68945312 C94.96618249 224.17244017 94.42506958 226.63963691 93.875 229.109375 C91.82711106 237.48164023 91.82711106 237.48164023 91 246 C91.67579102 246.37286133 92.35158203 246.74572266 93.04785156 247.12988281 C96.1191617 248.82960134 99.18458817 250.53966867 102.25 252.25 C103.84521484 253.12978516 103.84521484 253.12978516 105.47265625 254.02734375 C106.49746094 254.60097656 107.52226562 255.17460937 108.578125 255.765625 C109.52075195 256.28930664 110.46337891 256.81298828 111.43457031 257.35253906 C114.09130532 259.05863421 115.969797 260.58126111 118 263 C118.50793457 265.49742126 118.50793457 265.49742126 118.51757812 268.33178711 C118.53649109 269.92880714 118.53649109 269.92880714 118.55578613 271.55809021 C118.54364075 273.27537071 118.54364075 273.27537071 118.53125 275.02734375 C118.5350769 276.20841202 118.53890381 277.38948029 118.54284668 278.6063385 C118.54556829 281.10369723 118.53818983 283.60108434 118.52148438 286.09838867 C118.5000993 289.91975584 118.52126995 293.73923865 118.546875 297.56054688 C118.5442314 299.98698332 118.53910575 302.41341859 118.53125 304.83984375 C118.53934692 305.98267319 118.54744385 307.12550262 118.55578613 308.30296326 C118.46308901 316.15352843 118.46308901 316.15352843 116.34326172 320.02832031 C113.67412278 322.27420134 111.02507603 324.00578787 107.9765625 325.70703125 C107.39393646 326.03611984 106.81131042 326.36520844 106.21102905 326.70426941 C104.3543319 327.75017118 102.49006228 328.78160366 100.625 329.8125 C99.41221836 330.4918718 98.19997411 331.17220383 96.98828125 331.85351562 C95.17002386 332.87570134 93.35053286 333.89510103 91.52545166 334.90505981 C88.37509552 336.6500653 85.2577988 338.43262291 82.17480469 340.29443359 C81.55173431 340.66581955 80.92866394 341.03720551 80.28671265 341.41984558 C78.56382615 342.45018798 76.8487823 343.4936119 75.13427734 344.5378418 C71.65324474 346.1617633 69.78845158 346.52144068 66 346 C63.02392578 344.71484375 63.02392578 344.71484375 59.9453125 342.9375 C58.83671875 342.30585938 57.728125 341.67421875 56.5859375 341.0234375 C55.4321293 340.34923612 54.27848545 339.67475341 53.125 339 C51.94859237 338.32434298 50.77151463 337.64985128 49.59375 336.9765625 C46.72236922 335.32904894 43.85836067 333.66996788 41 332 C42.15955191 335.47865573 43.81611436 338.57725146 45.53515625 341.80078125 C45.89210068 342.47360641 46.2490451 343.14643158 46.61680603 343.83964539 C47.37645908 345.27008368 48.13727903 346.69990278 48.89916992 348.12915039 C50.03702453 350.26468739 51.17017196 352.40266832 52.30273438 354.54101562 C56.47702716 362.39946785 60.76443089 370.16747704 65.27124023 377.84057617 C71.53805673 389.29360149 72.79770143 401.71358805 70.31640625 414.53125 C66.86619929 425.64063009 59.85459077 436.33315888 49.48046875 442.01953125 C37.68116989 448.12335243 37.68116989 448.12335243 31.26342773 448.12939453 C30.30069443 448.13254669 29.33796112 448.13569885 28.34605408 448.13894653 C26.78063622 448.13591019 26.78063622 448.13591019 25.18359375 448.1328125 C24.09853043 448.13376923 23.0134671 448.13472595 21.89552307 448.13571167 C19.58798159 448.13639332 17.2804382 448.13454009 14.97290039 448.13037109 C11.50337177 448.12510007 8.03397728 448.13027581 4.56445312 448.13671875 C-5.73694421 448.139872 -15.99247926 448.05347035 -26.27357483 447.38565063 C-35.44564614 446.80540076 -44.63055148 446.71054872 -53.81777954 446.55526733 C-59.22640761 446.46133278 -64.63465465 446.34861326 -70.04296875 446.23828125 C-78.32132596 446.06965001 -78.32132596 446.06965001 -86.60009766 445.92333984 C-90.17157658 445.86198333 -93.74169742 445.77922704 -97.3125 445.6875 C-98.26189453 445.6771875 -99.21128906 445.666875 -100.18945312 445.65625 C-113.5471958 445.24644343 -127.23569444 439.45902335 -136.4375 429.6875 C-145.08765571 419.09913513 -149.18398848 406.59845595 -148 393 C-146.71268078 381.88920911 -140.84559217 373.23762232 -135 364 C-133.96215044 362.34641011 -132.92439175 360.69276319 -131.88671875 359.0390625 C-129.88919637 355.86355361 -127.87851677 352.69694792 -125.859375 349.53515625 C-125.39547363 348.78621094 -124.93157227 348.03726562 -124.45361328 347.265625 C-123 345 -123 345 -121.35498047 342.8125 C-116.33875103 335.70103589 -115.85130568 328.58729834 -115.68066406 320.15869141 C-115.62481872 317.86756276 -115.49460598 315.58843874 -115.359375 313.30078125 C-114.95806155 305.47579985 -114.95806155 305.47579985 -117.66870117 298.2902832 C-119.67484851 296.26361977 -121.67343229 294.64076402 -124 293 C-125.36381267 291.8235908 -126.71934714 290.63744333 -128.0625 289.4375 C-128.71992188 288.87546875 -129.37734375 288.3134375 -130.0546875 287.734375 C-132.60962293 285.45648076 -134.94217952 282.99570111 -137.26171875 280.48046875 C-139.45396089 278.61336814 -141.2230717 277.78558504 -144 277 C-146.43325881 277.77967312 -146.43325881 277.77967312 -148.72265625 279.359375 C-150.02493164 280.16761719 -150.02493164 280.16761719 -151.35351562 280.9921875 C-152.24748047 281.57226562 -153.14144531 282.15234375 -154.0625 282.75 C-155.84451985 283.87063847 -157.62705302 284.99046115 -159.41015625 286.109375 C-160.58783569 286.86686035 -160.58783569 286.86686035 -161.78930664 287.63964844 C-166.17959347 290.34121422 -168.58790306 291.39709454 -173.8984375 290.54833984 C-177.49445161 289.61006758 -180.38675874 287.79561847 -183.5 285.8125 C-184.97037501 284.90856159 -186.44179611 284.00632335 -187.9140625 283.10546875 C-189.11337402 282.36562744 -189.11337402 282.36562744 -190.33691406 281.61083984 C-193.3099435 279.81252226 -196.31745876 278.084185 -199.3359375 276.36328125 C-200.95918945 275.434552 -200.95918945 275.434552 -202.61523438 274.48706055 C-204.76205387 273.26074297 -206.91173357 272.03941694 -209.06445312 270.82348633 C-210.54461914 269.97113403 -210.54461914 269.97113403 -212.0546875 269.1015625 C-212.93624512 268.59963379 -213.81780273 268.09770508 -214.72607422 267.58056641 C-217.17617531 265.8775436 -218.43051037 264.52900023 -220 262 C-220.38768005 259.5405426 -220.38768005 259.5405426 -220.40405273 256.76000977 C-220.41673691 255.71535049 -220.42942108 254.67069122 -220.44248962 253.59437561 C-220.43955399 252.47139572 -220.43661835 251.34841583 -220.43359375 250.19140625 C-220.4388356 249.03253403 -220.44407745 247.8736618 -220.44947815 246.67967224 C-220.4559003 244.22940878 -220.45455889 241.7791145 -220.44604492 239.32885742 C-220.43753972 235.5800076 -220.46628867 231.83268347 -220.49804688 228.08398438 C-220.49965908 225.70312546 -220.499081 223.32226384 -220.49609375 220.94140625 C-220.50732773 219.82045059 -220.51856171 218.69949493 -220.53013611 217.54457092 C-220.46106556 209.82969075 -220.46106556 209.82969075 -218.31591797 205.96948242 C-215.79760436 203.82788049 -213.33505631 202.16342202 -210.44921875 200.546875 C-208.82270386 199.62370483 -208.82270386 199.62370483 -207.16333008 198.68188477 C-206.01630615 198.04436279 -204.86928223 197.40684082 -203.6875 196.75 C-201.32876867 195.42404019 -198.97311266 194.09265618 -196.6171875 192.76171875 C-195.47862305 192.12024902 -194.34005859 191.4787793 -193.16699219 190.81787109 C-190.47094617 189.27032572 -187.82347854 187.67866889 -185.1953125 186.01953125 C-184.52282471 185.59639648 -183.85033691 185.17326172 -183.1574707 184.73730469 C-181.44853978 183.64912478 -179.74921584 182.54589725 -178.05078125 181.44140625 C-174.47541593 179.75214914 -171.90817278 179.71979139 -168 180 C-167.96914307 179.45359863 -167.93828613 178.90719727 -167.90649414 178.34423828 C-167.29101599 170.31277965 -165.39080634 162.66900936 -163.4375 154.875 C-163.10418953 153.52359228 -162.77150277 152.17203057 -162.43945312 150.8203125 C-161.6323998 147.54531352 -160.81911651 144.2719987 -160 141 C-161.10492798 140.57436768 -161.10492798 140.57436768 -162.23217773 140.14013672 C-166.34989677 138.44394302 -170.17036357 136.27996819 -174.0625 134.125 C-175.26616211 133.47337891 -175.26616211 133.47337891 -176.49414062 132.80859375 C-185.61671266 127.76657468 -185.61671266 127.76657468 -188 123 C-188.11570235 121.33179145 -188.16954908 119.65911404 -188.19287109 117.98706055 C-188.20893402 116.94225021 -188.22499695 115.89743988 -188.24154663 114.82096863 C-188.28593806 110.04056394 -188.3270588 105.26029884 -188.35009766 100.47973633 C-188.36666456 97.95685608 -188.39396384 95.43402291 -188.43212891 92.91137695 C-188.48683189 89.2779093 -188.50876249 85.64554247 -188.5234375 82.01171875 C-188.54610687 80.88448898 -188.56877625 79.75725922 -188.59213257 78.59587097 C-188.57104508 70.79532706 -188.57104508 70.79532706 -185.82250977 66.96728516 C-183.03111803 65.02168922 -180.27822978 63.18826424 -177.31640625 61.51171875 C-176.23020996 60.89111572 -175.14401367 60.2705127 -174.02490234 59.63110352 C-172.88230957 58.98971436 -171.7397168 58.3483252 -170.5625 57.6875 C-169.38201389 57.0199984 -168.20183906 56.35194599 -167.02197266 55.68334961 C-164.71570857 54.37663029 -162.4079296 53.0727432 -160.09912109 51.77050781 C-157.52442563 50.29960097 -154.98258443 48.79519308 -152.45703125 47.2421875 C-151.83304443 46.86360596 -151.20905762 46.48502441 -150.56616211 46.0949707 C-149.01445527 45.14763878 -147.47160331 44.18584239 -145.9296875 43.22265625 C-142.07685445 41.61474059 -139.04798018 41.11976407 -135 42 C-130.78101354 43.81657073 -126.88428617 46.09622157 -122.9375 48.4375 C-121.83438477 49.07550537 -120.73126953 49.71351074 -119.59472656 50.37084961 C-116.38721083 52.23187599 -113.19358653 54.1152095 -110 56 C-108.40344064 56.92117455 -106.80592376 57.84069358 -105.20703125 58.7578125 C-95.6149552 64.33007153 -95.6149552 64.33007153 -92.421875 67.80859375 C-91.62265625 68.53175781 -90.8234375 69.25492187 -90 70 C-85.96478839 69.57696074 -82.12871366 68.15911376 -78.2734375 66.93359375 C-76.98179769 66.52660746 -75.6901302 66.11970901 -74.3984375 65.71289062 C-72.37907517 65.07352444 -70.36016602 64.43277799 -68.34179688 63.7902832 C-66.38264895 63.16771692 -64.42191233 62.55037709 -62.4609375 61.93359375 C-61.29353027 61.56290771 -60.12612305 61.19222168 -58.92333984 60.81030273 C-56 60 -56 60 -53 60 C-53.0314209 59.12786865 -53.0628418 58.2557373 -53.09521484 57.35717773 C-53.19802222 54.09358577 -53.27294561 50.83173476 -53.32958984 47.56713867 C-53.35960197 46.15963444 -53.40042758 44.75231473 -53.45263672 43.34545898 C-53.92894299 30.17232189 -53.92894299 30.17232189 -50.828125 26.03515625 C-45.76573981 21.39277148 -39.37209485 18.2751315 -33.375 15 C-31.54728183 13.98433104 -29.72175585 12.96479872 -27.89630127 11.94506836 C-26.69299417 11.27536088 -25.48755019 10.60947803 -24.27996826 9.94750977 C-20.28471462 7.75268997 -16.41517762 5.40128291 -12.5390625 3 C-8.10961662 0.43492645 -5.1988669 -1.14509789 0 0 Z " fill="#062B75" transform="translate(355,94)"/>
<path d="M0 0 C0.90145752 0.00265869 1.80291504 0.00531738 2.73168945 0.00805664 C9.42254792 0.05396006 16.08346108 0.31593953 22.76220703 0.70532227 C29.26026603 1.05693359 35.74811952 1.19232106 42.25390625 1.2734375 C45.03058012 1.3151942 47.80723581 1.3580483 50.58389282 1.40090942 C52.43014917 1.42511329 54.2765081 1.44253602 56.12289429 1.45285034 C58.75432914 1.46811875 61.38452223 1.50745082 64.015625 1.55078125 C64.79938004 1.54883759 65.58313507 1.54689392 66.39064026 1.54489136 C72.93405637 1.68847578 79.1470621 3.32513223 84.01715088 7.90400696 C90.44571122 15.06323555 90.46250315 20.89631188 90.4375 30.3125 C90.45361328 31.50681641 90.46972656 32.70113281 90.48632812 33.93164062 C90.49088473 42.21098831 89.97285615 49.76711707 84.75 56.5 C82.29491955 58.95508045 80.25290918 60.64335881 77.125 62.125 C76.135 62.125 75.145 62.125 74.125 62.125 C73.91429095 69.78416 73.75547623 77.44301145 73.65869045 85.1044302 C73.61217915 88.66418429 73.54936496 92.22192327 73.44604492 95.78051758 C72.97937716 112.27012248 72.8286546 126.34107876 83.125 140.125 C83.11863525 139.24763184 83.11227051 138.37026367 83.10571289 137.46630859 C83.09856222 134.18870171 83.12274414 130.91435556 83.16772461 127.63720703 C83.18080825 126.22320491 83.18164977 124.8090315 83.16967773 123.39501953 C83.0838194 111.79187911 83.0838194 111.79187911 85.45996094 107.98779297 C87.26052687 106.37732662 88.99603214 105.26116765 91.125 104.125 C92.07693237 103.54129639 92.07693237 103.54129639 93.0480957 102.94580078 C95.08376467 101.72800056 97.15322711 100.60900382 99.25 99.5 C100.83033186 98.64620382 102.4097179 97.79065527 103.98828125 96.93359375 C104.81666504 96.48483887 105.64504883 96.03608398 106.49853516 95.57373047 C109.28640854 94.03596874 112.04149907 92.44959387 114.79296875 90.84765625 C115.73317871 90.30125488 116.67338867 89.75485352 117.64208984 89.19189453 C119.47476953 88.12365835 121.30463699 87.05057954 123.13134766 85.97216797 C124.39084229 85.24151123 124.39084229 85.24151123 125.67578125 84.49609375 C126.41481689 84.06224365 127.15385254 83.62839355 127.9152832 83.18139648 C130.31182868 82.03568305 132.50979949 81.53907581 135.125 81.125 C135.35687012 80.03968994 135.58874023 78.95437988 135.82763672 77.83618164 C136.68758796 73.82193961 137.55863292 69.81017374 138.43310547 65.79907227 C138.81050346 64.06047351 139.18486217 62.32121218 139.55615234 60.58129883 C140.08940653 58.08495822 140.63343469 55.59118024 141.1796875 53.09765625 C141.426689 51.9242141 141.426689 51.9242141 141.67868042 50.72706604 C142.0967151 48.84433141 142.60281708 46.98154725 143.125 45.125 C143.785 44.795 144.445 44.465 145.125 44.125 C147.79351822 45.51701283 150.35855828 46.95676862 152.9375 48.5 C159.13591312 52.3290967 159.13591312 52.3290967 166.125 54.125 C165.50463867 54.63474365 164.88427734 55.1444873 164.24511719 55.66967773 C161.62002067 58.70982002 160.96142348 61.57545685 160.203125 65.41015625 C160.05341248 66.10765488 159.90369995 66.8051535 159.74945068 67.52378845 C159.27722756 69.74232771 158.82627132 71.96461552 158.375 74.1875 C158.05729626 75.68582454 157.73829909 77.18387544 157.41796875 78.68164062 C155.76625965 85.84305074 155.76625965 85.84305074 155.125 93.125 C155.80079102 93.49786133 156.47658203 93.87072266 157.17285156 94.25488281 C160.2441617 95.95460134 163.30958817 97.66466867 166.375 99.375 C167.43847656 99.96152344 168.50195312 100.54804688 169.59765625 101.15234375 C170.62246094 101.72597656 171.64726562 102.29960937 172.703125 102.890625 C173.64575195 103.41430664 174.58837891 103.93798828 175.55957031 104.47753906 C178.21630532 106.18363421 180.094797 107.70626111 182.125 110.125 C182.63293457 112.62242126 182.63293457 112.62242126 182.64257812 115.45678711 C182.65518677 116.52146713 182.66779541 117.58614716 182.68078613 118.68309021 C182.66864075 120.40037071 182.66864075 120.40037071 182.65625 122.15234375 C182.6600769 123.33341202 182.66390381 124.51448029 182.66784668 125.7313385 C182.67056829 128.22869723 182.66318983 130.72608434 182.64648438 133.22338867 C182.6250993 137.04475584 182.64626995 140.86423865 182.671875 144.68554688 C182.6692314 147.11198332 182.66410575 149.53841859 182.65625 151.96484375 C182.66434692 153.10767319 182.67244385 154.25050262 182.68078613 155.42796326 C182.58808901 163.27852843 182.58808901 163.27852843 180.46826172 167.15332031 C177.79912278 169.39920134 175.15007603 171.13078787 172.1015625 172.83203125 C171.51893646 173.16111984 170.93631042 173.49020844 170.33602905 173.82926941 C168.4793319 174.87517118 166.61506228 175.90660366 164.75 176.9375 C163.53721836 177.6168718 162.32497411 178.29720383 161.11328125 178.97851562 C159.29502386 180.00070134 157.47553286 181.02010103 155.65045166 182.03005981 C152.50009552 183.7750653 149.3827988 185.55762291 146.29980469 187.41943359 C145.67673431 187.79081955 145.05366394 188.16220551 144.41171265 188.54484558 C142.68882615 189.57518798 140.9737823 190.6186119 139.25927734 191.6628418 C135.77824474 193.2867633 133.91345158 193.64644068 130.125 193.125 C127.14892578 191.83984375 127.14892578 191.83984375 124.0703125 190.0625 C122.96171875 189.43085938 121.853125 188.79921875 120.7109375 188.1484375 C119.5571293 187.47423612 118.40348545 186.79975341 117.25 186.125 C116.07359237 185.44934298 114.89651463 184.77485128 113.71875 184.1015625 C110.84736922 182.45404894 107.98336067 180.79496788 105.125 179.125 C106.28455191 182.60365573 107.94111436 185.70225146 109.66015625 188.92578125 C110.01710068 189.59860641 110.3740451 190.27143158 110.74180603 190.96464539 C111.50145908 192.39508368 112.26227903 193.82490278 113.02416992 195.25415039 C114.16202453 197.38968739 115.29517196 199.52766832 116.42773438 201.66601562 C120.60202716 209.52446785 124.88943089 217.29247704 129.39624023 224.96557617 C135.66305673 236.41860149 136.92270143 248.83858805 134.44140625 261.65625 C130.99119929 272.76563009 123.97959077 283.45815888 113.60546875 289.14453125 C101.80616989 295.24835243 101.80616989 295.24835243 95.38842773 295.25439453 C94.42569443 295.25754669 93.46296112 295.26069885 92.47105408 295.26394653 C90.90563622 295.26091019 90.90563622 295.26091019 89.30859375 295.2578125 C88.22353043 295.25876923 87.1384671 295.25972595 86.02052307 295.26071167 C83.71298159 295.26139332 81.4054382 295.25954009 79.09790039 295.25537109 C75.62837177 295.25010007 72.15897728 295.25527581 68.68945312 295.26171875 C58.38805579 295.264872 48.13252074 295.17847035 37.85142517 294.51065063 C28.67935386 293.93040076 19.49444852 293.83554872 10.30722046 293.68026733 C4.89859239 293.58633278 -0.50965465 293.47361326 -5.91796875 293.36328125 C-14.19632596 293.19465001 -14.19632596 293.19465001 -22.47509766 293.04833984 C-26.04657658 292.98698333 -29.61669742 292.90422704 -33.1875 292.8125 C-34.13689453 292.8021875 -35.08628906 292.791875 -36.06445312 292.78125 C-49.4221958 292.37144343 -63.11069444 286.58402335 -72.3125 276.8125 C-80.96265571 266.22413513 -85.05898848 253.72345595 -83.875 240.125 C-82.58768078 229.01420911 -76.72059217 220.36262232 -70.875 211.125 C-69.83715044 209.47141011 -68.79939175 207.81776319 -67.76171875 206.1640625 C-65.76419637 202.98855361 -63.75351677 199.82194792 -61.734375 196.66015625 C-61.27047363 195.91121094 -60.80657227 195.16226563 -60.32861328 194.390625 C-58.875 192.125 -58.875 192.125 -57.22998047 189.9375 C-52.21375103 182.82603589 -51.72630568 175.71229834 -51.55566406 167.28369141 C-51.49981872 164.99256276 -51.36960598 162.71343874 -51.234375 160.42578125 C-50.83306155 152.60079985 -50.83306155 152.60079985 -53.54370117 145.4152832 C-55.54984851 143.38861977 -57.54843229 141.76576402 -59.875 140.125 C-61.2389435 138.94874249 -62.59450108 137.76261563 -63.9375 136.5625 C-64.59234375 136.00046875 -65.2471875 135.4384375 -65.921875 134.859375 C-68.51453956 132.55708887 -70.92722488 130.10166918 -73.33203125 127.60546875 C-75.01207372 125.90664495 -75.01207372 125.90664495 -77.875 124.125 C-77.875 123.465 -77.875 122.805 -77.875 122.125 C-75.3079674 120.10720855 -72.43195322 118.53635117 -69.625 116.875 C-68.84769531 116.3903125 -68.07039062 115.905625 -67.26953125 115.40625 C-66.51542969 114.95765625 -65.76132813 114.5090625 -64.984375 114.046875 C-64.29311523 113.63018555 -63.60185547 113.21349609 -62.88964844 112.78417969 C-60.875 112.125 -60.875 112.125 -58.76171875 112.87133789 C-56.20916797 114.56742333 -54.24842244 116.60454642 -52.125 118.8125 C-48.42443179 122.59481861 -44.65687427 126.16695468 -40.6171875 129.58203125 C-39.00194207 131.01257373 -37.61259679 132.50959525 -36.1875 134.125 C-34.08489186 136.3706198 -34.08489186 136.3706198 -31.5 136.1875 C-28.08085045 134.80355851 -25.05977418 132.98779245 -21.875 131.125 C-21.215 131.125 -20.555 131.125 -19.875 131.125 C-19.648125 130.444375 -19.42125 129.76375 -19.1875 129.0625 C-18.04602229 126.50776416 -17.0712609 125.09199227 -15.3371582 122.98925781 C-12.33891057 118.83634523 -12.14267447 115.37120529 -12.16796875 110.359375 C-12.14528679 109.11006195 -12.14528679 109.11006195 -12.12214661 107.83551025 C-12.07948303 105.18173349 -12.07049131 102.52908351 -12.0625 99.875 C-12.03931189 98.14059415 -12.01393774 96.40621609 -11.98632812 94.671875 C-11.93505865 91.21899979 -11.91321098 87.76768926 -11.91162109 84.31445312 C-11.90485144 80.78052859 -11.80971213 77.26286928 -11.65478516 73.73242188 C-11.61312981 72.43331879 -11.61312981 72.43331879 -11.57063293 71.10797119 C-11.51709405 69.46325516 -11.44075943 67.81906843 -11.3379364 66.17669678 C-11.20935754 63.66682453 -11.20935754 63.66682453 -11.875 60.125 C-14.67605512 57.6118002 -14.67605512 57.6118002 -17.875 56.125 C-22.46530637 51.76866555 -24.73823684 47.48010805 -25.10546875 41.15625 C-25.103801 39.64576635 -25.08888137 38.13525418 -25.0625 36.625 C-25.04630615 35.43112671 -25.04630615 35.43112671 -25.02978516 34.21313477 C-25.00228492 32.60437102 -24.96850871 30.99570138 -24.92822266 29.38720703 C-24.88105215 27.38224412 -24.86590314 25.37658433 -24.85546875 23.37109375 C-24.6151058 15.83081904 -23.08445351 10.70828003 -17.875 5.125 C-12.33581453 0.34478946 -7.07108801 -0.0382366 0 0 Z " fill="#072C76" transform="translate(290.875,246.875)"/>
<path d="M0 0 C14.68770276 -0.14604903 29.32596823 0.3901364 44 1 C43.98445572 1.78323639 43.96891144 2.56647278 43.95289612 3.3734436 C43.81165991 10.81534201 43.70557518 18.25657563 43.6373148 25.69947243 C43.60103877 29.52452155 43.55197451 33.34844826 43.47192383 37.17285156 C43.39492554 40.87530637 43.35381796 44.57669349 43.3358593 48.27988815 C43.32309016 49.68077754 43.29816233 51.08161953 43.2598896 52.48204422 C42.96714755 63.65515728 45.45171382 70.56480934 51 80 C51.96831078 81.7988284 52.93177563 83.60028959 53.88671875 85.40625 C54.81780113 87.10554512 55.75144002 88.80344172 56.6875 90.5 C57.73442923 92.40882442 58.78130265 94.31767946 59.828125 96.2265625 C60.35470703 97.1846582 60.88128906 98.14275391 61.42382812 99.12988281 C63.93728206 103.70673605 66.43756483 108.29075266 68.9375 112.875 C69.42951904 113.77669922 69.92153809 114.67839844 70.4284668 115.60742188 C74.67845042 123.40009258 78.90671693 131.20444747 83.12890625 139.01220703 C86.36050966 144.98504133 89.61047091 150.94734082 92.87792969 156.90063477 C94.38947013 159.6622485 95.88947845 162.42983174 97.38671875 165.19921875 C98.91148699 168.01952024 100.4622812 170.81532742 102.08203125 173.58203125 C106.07881967 180.72383351 107.24916971 186.84302857 106 195 C104.3167259 200.52185156 101.28560496 204.15394427 97 208 C96.52632996 208.50567001 96.05265991 209.01134003 95.56463623 209.53233337 C89.85029609 214.89252263 81.82822921 214.41000508 74.546875 214.27734375 C72.7654007 214.26090065 72.7654007 214.26090065 70.94793701 214.24412537 C51.46344352 214.00044476 31.9827792 213.3017076 12.50805664 212.66760254 C8.14344357 212.52680329 3.77867641 212.39116234 -0.58610153 212.25558567 C-4.84505478 212.12284536 -9.10392355 211.98754109 -13.36277008 211.85142326 C-15.37027281 211.78742884 -17.37779495 211.72404013 -19.38533783 211.66131783 C-25.59134498 211.46626605 -31.79580063 211.24571942 -38 211 C-38.78799484 210.97129192 -39.57598969 210.94258385 -40.38786316 210.91300583 C-42.59046471 210.82891869 -44.79157266 210.72787787 -46.99316406 210.62084961 C-48.21747131 210.56601913 -49.44177856 210.51118866 -50.70318604 210.45469666 C-57.34673249 209.53841858 -62.4777177 205.94202652 -66.9375 201.0625 C-71.83019331 193.79759175 -73.10409897 187.75702026 -72 179 C-70.3207099 172.86673071 -67.20881233 167.77732206 -63.75 162.5 C-62.66718891 160.8169077 -61.58519626 159.13328866 -60.50390625 157.44921875 C-59.9330127 156.56411621 -59.36211914 155.67901367 -58.77392578 154.76708984 C-55.70227593 149.97572191 -52.69769099 145.14262388 -49.6875 140.3125 C-48.41027755 138.26685134 -47.13293271 136.2212791 -45.85546875 134.17578125 C-45.21786621 133.15436035 -44.58026367 132.13293945 -43.92333984 131.08056641 C-41.40590989 127.04846039 -38.88656479 123.01755325 -36.36694336 118.98681641 C-35.12403361 116.99835586 -33.88135717 115.00974946 -32.63891602 113.02099609 C-29.44313354 107.90590387 -26.24394151 102.79299217 -23.0390625 97.68359375 C-8.97629648 78.55681816 -8.97629648 78.55681816 -1.70288086 56.98974609 C-1.66291489 55.72858978 -1.62294891 54.46743347 -1.58177185 53.1680603 C-1.54269625 51.78652218 -1.50372263 50.40498117 -1.46484375 49.0234375 C-1.42184003 47.6138079 -1.37842349 46.20419084 -1.33460999 44.79458618 C-1.22034648 41.08259405 -1.11170296 37.37045774 -1.00421143 33.65826416 C-0.89355771 29.87103184 -0.77761396 26.08396193 -0.66210938 22.296875 C-0.43621549 14.86473251 -0.21625585 7.43242984 0 0 Z " fill="#FDFDFE" transform="translate(300,308)"/>
<path d="M0 0 C0.66515625 0.71800781 1.3303125 1.43601563 2.015625 2.17578125 C5.88746842 6.19909396 10.89366755 8.54154326 15.75 11.1875 C27.80271162 17.8294513 27.80271162 17.8294513 33.046875 21.10546875 C33.80516602 21.57509033 34.56345703 22.04471191 35.34472656 22.52856445 C36.74168056 23.4012651 38.12979177 24.28834873 39.50683594 25.19213867 C42.60245995 27.10720787 44.73644985 27.9951531 48.3984375 28.0625 C53.05843222 26.68775102 56.94697139 24.57084428 61.125 22.125 C62.30255859 21.45404297 62.30255859 21.45404297 63.50390625 20.76953125 C66.68602364 18.95041187 69.79078339 17.14511124 72.8046875 15.0546875 C75 14 75 14 76.9765625 14.51171875 C79.61729167 16.45403113 81.98013369 18.57182371 84.375 20.8125 C84.88450195 21.2866333 85.39400391 21.7607666 85.91894531 22.24926758 C87.02226199 23.27660238 88.12375512 24.30589828 89.22363281 25.33691406 C91.10986392 27.10285776 93.00328703 28.86082093 94.8984375 30.6171875 C98.26911481 33.74105435 101.63552942 36.86944971 105 40 C104.67 40.99 104.34 41.98 104 43 C103.90241897 44.71201641 103.86181945 46.42755351 103.85473633 48.14233398 C103.84835648 49.19029648 103.84197662 50.23825897 103.83540344 51.31797791 C103.83429062 52.44925613 103.8331778 53.58053436 103.83203125 54.74609375 C103.82870285 55.90875259 103.82537445 57.07141144 103.82194519 58.26930237 C103.81687944 60.72974247 103.81453676 63.19018945 103.81469727 65.65063477 C103.81251079 69.41889739 103.79435111 73.18686732 103.77539062 76.95507812 C103.77245667 79.343749 103.77047189 81.73242126 103.76953125 84.12109375 C103.75875298 85.81497475 103.75875298 85.81497475 103.74775696 87.54307556 C103.75083359 88.59419022 103.75391022 89.64530487 103.75708008 90.72827148 C103.75565506 91.65187973 103.75423004 92.57548798 103.75276184 93.52708435 C104.01787564 96.178795 104.5707517 97.76341747 106 100 C108.45121063 101.79730357 108.45121063 101.79730357 111.41015625 103.3828125 C112.48201172 103.99253906 113.55386719 104.60226562 114.65820312 105.23046875 C115.78162109 105.85566406 116.90503906 106.48085938 118.0625 107.125 C120.28517189 108.37294957 122.50536659 109.62532492 124.72265625 110.8828125 C125.71015869 111.43340332 126.69766113 111.98399414 127.71508789 112.55126953 C130 114 130 114 131 116 C130.35982092 121.13486801 129.34603176 126.18751145 128.31665039 131.25708008 C127.98241542 132.95123866 127.66930243 134.64971074 127.37817383 136.35180664 C124.95515102 150.46299728 124.95515102 150.46299728 120.44067383 154.01196289 C117.3322348 155.25619992 114.22514208 156.10820761 111 157 C108.9771664 158.02428803 106.98735026 159.11629221 105.03515625 160.26953125 C104.05627441 160.84477539 103.07739258 161.42001953 102.06884766 162.01269531 C101.07675293 162.60663086 100.0846582 163.20056641 99.0625 163.8125 C98.0214209 164.42834961 96.9803418 165.04419922 95.90771484 165.67871094 C92.932701 167.44302269 89.9649013 169.21875882 87 171 C86.23187988 171.46003418 85.46375977 171.92006836 84.67236328 172.39404297 C77.95968284 176.1991872 77.95968284 176.1991872 72 181 C71.75498505 183.43176397 71.62675079 185.75864884 71.5859375 188.1953125 C71.56657135 188.90275604 71.5472052 189.61019958 71.5272522 190.33908081 C71.46742348 192.60093085 71.42105899 194.8628317 71.375 197.125 C71.33682314 198.6575744 71.29777158 200.19012728 71.2578125 201.72265625 C71.16171961 205.48159624 71.07770151 209.24063668 71 213 C59.83400417 198.46948151 58.92141047 186.82495235 59.4375 168.75 C59.46913679 166.50265248 59.49715509 164.255251 59.52148438 162.0078125 C59.60555852 156.00080999 59.72376344 150.00151763 60 144 C60.03731232 142.98474243 60.07462463 141.96948486 60.11306763 140.92346191 C60.16993744 139.93583862 60.22680725 138.94821533 60.28540039 137.93066406 C60.3305629 137.04090881 60.3757254 136.15115356 60.42225647 135.23443604 C61 133 61 133 62.81419373 131.55584717 C64.8125 130.625 64.8125 130.625 67 129.80078125 C70.65057089 128.33912689 72.22135016 125.71203592 73.8034668 122.23339844 C76.38113689 115.33892701 76.51600481 108.73969314 76.5 101.4375 C76.52835938 100.25736328 76.55671875 99.07722656 76.5859375 97.86132812 C76.60222449 90.58511317 75.85682993 85.57863263 71 80 C65.17477148 74.32413632 58.93383865 73.70234427 51.18359375 73.62109375 C50.33851257 73.6044165 49.4934314 73.58773926 48.6227417 73.57055664 C45.89440782 73.51802976 43.16603814 73.47786856 40.4375 73.4375 C36.70303813 73.36884808 32.9687129 73.29380742 29.234375 73.21875 C28.32813889 73.2013829 27.42190277 73.18401581 26.48820496 73.16612244 C20.04706606 73.03788991 13.61998364 72.79985725 7.1875 72.4375 C0.5226773 72.09366887 -6.13959452 71.81044931 -12.8125 71.6875 C-13.61985596 71.657771 -14.42721191 71.62804199 -15.2590332 71.59741211 C-21.9525274 71.53058269 -27.10124809 73.32126721 -32.05859375 77.90234375 C-36.50750074 84.46857757 -36.9429916 90.19799275 -37 98 C-37.05860344 99.51833153 -37.11994256 101.03655921 -37.18359375 102.5546875 C-37.22933503 104.14054746 -37.27232302 105.72648932 -37.3125 107.3125 C-37.34263184 108.05298584 -37.37276367 108.79347168 -37.40380859 109.55639648 C-37.46552531 115.68486638 -35.86379848 121.04240694 -31.51660156 125.53198242 C-29.1392566 127.55390182 -26.59496661 129.27002226 -24 131 C-23.76777059 133.85494265 -23.72074433 136.49027358 -23.80859375 139.33984375 C-23.83749725 141.07665321 -23.86596569 142.81346996 -23.89404297 144.55029297 C-23.92313751 145.90099884 -23.92313751 145.90099884 -23.95281982 147.2789917 C-24.01307227 150.75391304 -23.99738562 154.22631619 -23.97964478 157.7015686 C-23.97026809 161.12610759 -24.00406689 164.5495826 -24.04272461 167.97387695 C-24.05603091 169.71568823 -24.05645007 171.45764057 -24.04467773 173.19946289 C-23.94186499 190.78370651 -23.94186499 190.78370651 -30.20874023 198.20288086 C-30.79985596 198.79593018 -31.39097168 199.38897949 -32 200 C-32.52609863 200.54760986 -33.05219727 201.09521973 -33.59423828 201.65942383 C-35.38620791 203.36829935 -37.29116377 204.51938563 -39.4375 205.75 C-40.19933594 206.19859375 -40.96117187 206.6471875 -41.74609375 207.109375 C-44 208 -44 208 -45.98828125 207.9296875 C-48.85819617 206.60339672 -50.5793399 204.66317991 -52.75 202.375 C-56.40081032 198.60624867 -60.1210662 195.08012158 -64.10546875 191.671875 C-67.21537263 188.92746498 -70.10923774 185.97206494 -73 183 C-72.67 182.01 -72.34 181.02 -72 180 C-71.87284999 178.2686802 -71.80020785 176.53311311 -71.75952148 174.79760742 C-71.72090248 173.20531563 -71.72090248 173.20531563 -71.6815033 171.58085632 C-71.59720874 166.73135353 -71.53151161 161.88199817 -71.48510742 157.03198242 C-71.45343254 154.47411375 -71.40564328 151.91639265 -71.34155273 149.35913086 C-71.25036235 145.66984892 -71.21150619 141.98320707 -71.18359375 138.29296875 C-71.14544052 137.15216354 -71.10728729 136.01135834 -71.06797791 134.83598328 C-70.9787773 128.98178808 -70.9787773 128.98178808 -73.66287231 124.0111084 C-75.70372802 122.44833818 -77.73072012 121.20167802 -80 120 C-80.87527344 119.44199707 -81.75054687 118.88399414 -82.65234375 118.30908203 C-83.40644531 117.87966309 -84.16054687 117.45024414 -84.9375 117.0078125 C-85.76894531 116.53085937 -86.60039062 116.05390625 -87.45703125 115.5625 C-88.29621094 115.088125 -89.13539063 114.61375 -90 114.125 C-90.87011719 113.62742187 -91.74023438 113.12984375 -92.63671875 112.6171875 C-94.75514111 111.40666044 -96.87619623 110.20105207 -99 109 C-97.58866144 100.74403504 -95.83476542 92.59435644 -93.9375 84.4375 C-93.66873047 83.26380859 -93.39996094 82.09011719 -93.12304688 80.88085938 C-92.86458984 79.76388672 -92.60613281 78.64691406 -92.33984375 77.49609375 C-92.10644287 76.48732178 -91.87304199 75.4785498 -91.63256836 74.43920898 C-91 72 -91 72 -90 70 C-87.91135078 69.33601583 -85.8224476 68.67282215 -83.73242188 68.01318359 C-78.43892023 66.05035016 -73.63593757 63.11386453 -68.75 60.3125 C-67.64841553 59.68907715 -66.54683105 59.0656543 -65.41186523 58.42333984 C-58.55834603 54.52569494 -51.79075706 50.52352877 -45.16015625 46.2578125 C-43 45 -43 45 -41 45 C-39.8513433 41.28832638 -39.79457567 37.69663773 -39.68359375 33.828125 C-39.66281265 33.1457074 -39.64203156 32.46328979 -39.62062073 31.76019287 C-39.55547948 29.59022644 -39.49640596 27.42014376 -39.4375 25.25 C-39.39428103 23.77472779 -39.35066568 22.29946713 -39.30664062 20.82421875 C-39.19983482 17.21626834 -39.09846847 13.60818867 -39 10 C-33.93140949 8.40393159 -28.85942677 6.819348 -23.78393555 5.24536133 C-22.05736476 4.70815186 -20.331768 4.16780151 -18.60717773 3.62426758 C-16.12992944 2.84411605 -13.64941256 2.07527963 -11.16796875 1.30859375 C-10.39599655 1.06282089 -9.62402435 0.81704803 -8.82865906 0.56382751 C-3.34161512 -1.11387171 -3.34161512 -1.11387171 0 0 Z " fill="#FDFDFE" transform="translate(304,176)"/>
<path d="M0 0 C4.21898929 1.81657195 8.1156605 4.09631131 12.0625 6.4375 C13.16489014 7.07478027 14.26728027 7.71206055 15.40307617 8.36865234 C18.61178667 10.22968092 21.80635746 12.1132704 25 14 C26.60856425 14.9323897 28.21783795 15.86355759 29.828125 16.79296875 C43.19909078 24.59727234 43.19909078 24.59727234 45 30 C45.09723675 31.65076115 45.13815972 33.305133 45.14526367 34.95874023 C45.15164352 35.96666122 45.15802338 36.97458221 45.16459656 38.01304626 C45.16626579 39.64434227 45.16626579 39.64434227 45.16796875 41.30859375 C45.17129715 42.4268605 45.17462555 43.54512726 45.17805481 44.69728088 C45.18312007 47.06356393 45.18546326 49.42985412 45.18530273 51.79614258 C45.18748917 55.41955303 45.20564924 59.04265906 45.22460938 62.66601562 C45.22754335 64.96354062 45.22952812 67.26106707 45.23046875 69.55859375 C45.23765427 70.64410019 45.24483978 71.72960663 45.25224304 72.8480072 C45.24916641 73.85908035 45.24608978 74.8701535 45.24291992 75.91186523 C45.24434494 76.7999437 45.24576996 77.68802216 45.24723816 78.60301208 C44.97820005 81.21135174 44.39903903 82.79335649 43 85 C40.62426758 86.68823242 40.62426758 86.68823242 37.64453125 88.35546875 C36.55382324 88.97405762 35.46311523 89.59264648 34.33935547 90.22998047 C33.1639398 90.88285226 31.98831744 91.53535207 30.8125 92.1875 C29.02563759 93.19148366 27.24061026 94.19866766 25.45587158 95.2064209 C24.27682492 95.87209886 23.09709834 96.53657404 21.91668701 97.1998291 C18.63903645 99.0473779 15.4086163 100.94788151 12.22265625 102.94921875 C11.55580811 103.36727783 10.88895996 103.78533691 10.2019043 104.21606445 C8.51149449 105.28841182 6.82956998 106.37410367 5.1484375 107.4609375 C1.28393765 109.35003544 -1.7301777 109.67582694 -6 110 C-6.58485157 112.60383385 -7.16821333 115.20798056 -7.75 117.8125 C-7.92829346 118.61042969 -8.10658691 119.40835938 -8.2902832 120.23046875 C-9.82444191 127.13317495 -11.28162246 134.0507746 -12.69238281 140.97973633 C-13.89162293 146.78324585 -13.89162293 146.78324585 -15 149 C-13.9018396 149.41886475 -13.9018396 149.41886475 -12.78149414 149.84619141 C-8.45019922 151.64288234 -4.49044616 154.02904488 -0.4375 156.375 C0.83770508 157.09816406 0.83770508 157.09816406 2.13867188 157.8359375 C2.96044922 158.3103125 3.78222656 158.7846875 4.62890625 159.2734375 C5.37213135 159.70060059 6.11535645 160.12776367 6.88110352 160.56787109 C10.13463019 162.76687875 12.69697858 164.51009917 13.50793457 168.49742126 C13.51111694 169.43276199 13.51429932 170.36810272 13.51757812 171.33178711 C13.53018677 172.39646713 13.54279541 173.46114716 13.55578613 174.55809021 C13.54768921 175.70294388 13.53959229 176.84779755 13.53125 178.02734375 C13.53699036 179.79894615 13.53699036 179.79894615 13.54284668 181.6063385 C13.54556829 184.10369723 13.53818983 186.60108434 13.52148438 189.09838867 C13.5000993 192.91975584 13.52126995 196.73923865 13.546875 200.56054688 C13.5442314 202.98698332 13.53910575 205.41341859 13.53125 207.83984375 C13.53934692 208.98267319 13.54744385 210.12550262 13.55578613 211.30296326 C13.46294531 219.16569856 13.46294531 219.16569856 11.30444336 223.05566406 C8.83210581 225.14165794 6.44553669 226.73216695 3.59765625 228.26953125 C2.54795654 228.84477539 1.49825684 229.42001953 0.41674805 230.01269531 C-0.69015381 230.60663086 -1.79705566 231.20056641 -2.9375 231.8125 C-5.20166345 233.05129933 -7.46469613 234.29216775 -9.7265625 235.53515625 C-10.81098633 236.1295752 -11.89541016 236.72399414 -13.01269531 237.33642578 C-17.65625608 239.92233809 -22.15794916 242.70021602 -26.64453125 245.546875 C-27.42183594 246.02640625 -28.19914062 246.5059375 -29 247 C-29.60199219 247.41765625 -30.20398438 247.8353125 -30.82421875 248.265625 C-34.89321823 249.63900364 -38.98942555 248.87114289 -42.8515625 247.19775391 C-44.78415935 246.13681262 -46.64055184 244.9969588 -48.5 243.8125 C-49.97037501 242.90856159 -51.44179611 242.00632335 -52.9140625 241.10546875 C-54.11337402 240.36562744 -54.11337402 240.36562744 -55.33691406 239.61083984 C-58.3099435 237.81252226 -61.31745876 236.084185 -64.3359375 234.36328125 C-65.41810547 233.74412842 -66.50027344 233.12497559 -67.61523438 232.48706055 C-69.76205387 231.26074297 -71.91173357 230.03941694 -74.06445312 228.82348633 C-75.54461914 227.97113403 -75.54461914 227.97113403 -77.0546875 227.1015625 C-78.37702393 226.34866943 -78.37702393 226.34866943 -79.72607422 225.58056641 C-82.17617531 223.8775436 -83.43051037 222.52900023 -85 220 C-85.38768005 217.5405426 -85.38768005 217.5405426 -85.40405273 214.76000977 C-85.41673691 213.71535049 -85.42942108 212.67069122 -85.44248962 211.59437561 C-85.43955399 210.47139572 -85.43661835 209.34841583 -85.43359375 208.19140625 C-85.4388356 207.03253403 -85.44407745 205.8736618 -85.44947815 204.67967224 C-85.4559003 202.22940878 -85.45455889 199.7791145 -85.44604492 197.32885742 C-85.43753972 193.5800076 -85.46628867 189.83268347 -85.49804688 186.08398438 C-85.49965908 183.70312546 -85.499081 181.32226384 -85.49609375 178.94140625 C-85.50732773 177.82045059 -85.51856171 176.69949493 -85.53013611 175.54457092 C-85.46106556 167.82969075 -85.46106556 167.82969075 -83.31591797 163.96948242 C-80.79760436 161.82788049 -78.33505631 160.16342202 -75.44921875 158.546875 C-73.82270386 157.62370483 -73.82270386 157.62370483 -72.16333008 156.68188477 C-71.01630615 156.04436279 -69.86928223 155.40684082 -68.6875 154.75 C-66.32876867 153.42404019 -63.97311266 152.09265618 -61.6171875 150.76171875 C-60.47862305 150.12024902 -59.34005859 149.4787793 -58.16699219 148.81787109 C-55.47094617 147.27032572 -52.82347854 145.67866889 -50.1953125 144.01953125 C-49.52282471 143.59639648 -48.85033691 143.17326172 -48.1574707 142.73730469 C-46.44853978 141.64912478 -44.74921584 140.54589725 -43.05078125 139.44140625 C-39.47541593 137.75214914 -36.90817278 137.71979139 -33 138 C-32.96914307 137.45359863 -32.93828613 136.90719727 -32.90649414 136.34423828 C-32.29101599 128.31277965 -30.39080634 120.66900936 -28.4375 112.875 C-28.10418953 111.52359228 -27.77150277 110.17203057 -27.43945312 108.8203125 C-26.6323998 105.54531352 -25.81911651 102.2719987 -25 99 C-26.10492798 98.57436768 -26.10492798 98.57436768 -27.23217773 98.14013672 C-31.34989677 96.44394302 -35.17036357 94.27996819 -39.0625 92.125 C-40.26616211 91.47337891 -40.26616211 91.47337891 -41.49414062 90.80859375 C-50.61671266 85.76657468 -50.61671266 85.76657468 -53 81 C-53.11570235 79.33179145 -53.16954908 77.65911404 -53.19287109 75.98706055 C-53.20893402 74.94225021 -53.22499695 73.89743988 -53.24154663 72.82096863 C-53.28593806 68.04056394 -53.3270588 63.26029884 -53.35009766 58.47973633 C-53.36666456 55.95685608 -53.39396384 53.43402291 -53.43212891 50.91137695 C-53.48683189 47.2779093 -53.50876249 43.64554247 -53.5234375 40.01171875 C-53.54610687 38.88448898 -53.56877625 37.75725922 -53.59213257 36.59587097 C-53.57104508 28.79532706 -53.57104508 28.79532706 -50.82250977 24.96728516 C-48.03111803 23.02168922 -45.27822978 21.18826424 -42.31640625 19.51171875 C-41.23020996 18.89111572 -40.14401367 18.2705127 -39.02490234 17.63110352 C-37.88230957 16.98971436 -36.7397168 16.3483252 -35.5625 15.6875 C-34.38201389 15.0199984 -33.20183906 14.35194599 -32.02197266 13.68334961 C-29.71570857 12.37663029 -27.4079296 11.0727432 -25.09912109 9.77050781 C-22.52442563 8.29960097 -19.98258443 6.79519308 -17.45703125 5.2421875 C-16.83304443 4.86360596 -16.20905762 4.48502441 -15.56616211 4.0949707 C-14.01445527 3.14763878 -12.47160331 2.18584239 -10.9296875 1.22265625 C-7.07685445 -0.38525941 -4.04798018 -0.88023593 0 0 Z " fill="#062B75" transform="translate(220,136)"/>
<path d="M0 0 C4.76036993 2.18140575 9.20782221 4.80635312 13.6875 7.5 C14.88906179 8.20468266 16.09153169 8.90781926 17.29492188 9.609375 C20.28403827 11.3586762 23.25367282 13.13829001 26.2177124 14.9296875 C28.02144693 16.01287947 29.83513319 17.07771385 31.65087891 18.140625 C32.81568869 18.83289773 33.98024947 19.52558964 35.14453125 20.21875 C36.6910437 21.13043945 36.6910437 21.13043945 38.26879883 22.06054688 C41.38752799 24.27518748 43.12345364 25.63687107 45 29 C45.59492782 32.88475592 45.58421647 36.72821973 45.56640625 40.65234375 C45.57260483 41.78523331 45.57880341 42.91812286 45.58518982 44.08534241 C45.59228567 46.4783543 45.58911817 48.87141559 45.57641602 51.2644043 C45.56256124 54.921337 45.59661586 58.57570562 45.63476562 62.23242188 C45.63571694 64.55989646 45.63385732 66.88737424 45.62890625 69.21484375 C45.64216446 70.30562729 45.65542267 71.39641083 45.66908264 72.52024841 C45.56551004 80.98652831 45.56551004 80.98652831 42.85205078 84.49438477 C39.92967397 87.0617836 37.1389656 88.98913146 33.73828125 90.875 C33.14758347 91.20741699 32.55688568 91.53983398 31.94828796 91.88232422 C30.07582905 92.93302704 28.19473796 93.96693749 26.3125 95 C24.45603249 96.03355235 22.60149839 97.07051452 20.74703979 98.10766602 C19.54001259 98.78189747 18.3319532 99.45428463 17.12283325 100.12475586 C12.67163966 102.59814575 8.30657862 105.19090884 3.97729492 107.87109375 C0.09753094 110.08618557 -3.63471253 110.85437414 -8 110 C-12.13931911 108.18569303 -15.98476151 105.91757745 -19.875 103.625 C-20.97602051 102.98957275 -22.07704102 102.35414551 -23.21142578 101.69946289 C-25.43364957 100.41447162 -27.65229366 99.12326842 -29.8671875 97.82568359 C-32.66700308 96.1940579 -35.4826455 94.59826354 -38.3125 93.01953125 C-39.83368896 92.15948287 -41.35454909 91.29885249 -42.875 90.4375 C-43.90729736 89.86733154 -43.90729736 89.86733154 -44.96044922 89.28564453 C-48.92181567 86.99606602 -50.98462144 85.0871559 -53 81 C-53.39440918 78.42028809 -53.39440918 78.42028809 -53.41992188 75.64648438 C-53.43583374 74.60190063 -53.45174561 73.55731689 -53.46813965 72.4810791 C-53.46834106 71.3632605 -53.46854248 70.24544189 -53.46875 69.09375 C-53.48017029 67.35756409 -53.48017029 67.35756409 -53.49182129 65.58630371 C-53.50261442 63.14203039 -53.50547862 60.69771098 -53.50097656 58.25341797 C-53.50000344 54.51321693 -53.54165497 50.77506163 -53.5859375 47.03515625 C-53.59114394 44.65885844 -53.5938327 42.28255351 -53.59375 39.90625 C-53.61014526 38.7884314 -53.62654053 37.67061279 -53.64343262 36.5189209 C-53.57443899 28.7740125 -53.57443899 28.7740125 -50.70703125 24.91040039 C-46.08681486 21.64983101 -46.08681486 21.64983101 -44.09375 20.52734375 C-43.36003174 20.10815674 -42.62631348 19.68896973 -41.87036133 19.25708008 C-41.08814209 18.82161865 -40.30592285 18.38615723 -39.5 17.9375 C-37.80570823 16.9822697 -36.11170894 16.02652047 -34.41796875 15.0703125 C-33.53544434 14.5743457 -32.65291992 14.07837891 -31.74365234 13.56738281 C-28.92478541 11.95703171 -26.14264382 10.29469533 -23.36328125 8.6171875 C-22.43644531 8.06554932 -21.50960938 7.51391113 -20.5546875 6.94555664 C-18.76445137 5.87941619 -16.98146993 4.80097109 -15.20703125 3.70874023 C-10.25987978 0.7989069 -5.80750384 -1.65300498 0 0 Z " fill="#062B75" transform="translate(460,191)"/>
<path d="M0 0 C4.37378385 1.95625354 8.41203334 4.38463292 12.5 6.875 C13.65686084 7.56412421 14.81450065 8.25194235 15.97290039 8.93847656 C19.32956213 10.9356713 22.6657342 12.96561985 26 15 C26.89702637 15.54237305 27.79405273 16.08474609 28.71826172 16.64355469 C42.73274768 25.12815221 42.73274768 25.12815221 45 28 C45.38768005 30.37716675 45.38768005 30.37716675 45.40405273 33.21826172 C45.41673691 34.28301727 45.42942108 35.34777283 45.44248962 36.4447937 C45.43955399 37.59480865 45.43661835 38.74482361 45.43359375 39.9296875 C45.4388356 41.11217072 45.44407745 42.29465393 45.44947815 43.51296997 C45.45590655 46.01628839 45.45455086 48.51963699 45.44604492 51.02294922 C45.43754861 54.85308751 45.46626579 58.68172842 45.49804688 62.51171875 C45.49965927 64.94270789 45.49908063 67.37369966 45.49609375 69.8046875 C45.50732773 70.95065399 45.51856171 72.09662048 45.53013611 73.27731323 C45.46102959 81.16747468 45.46102959 81.16747468 43.30664062 85.05786133 C40.8329207 87.14067695 38.44468869 88.73262473 35.59765625 90.26953125 C34.54795654 90.84477539 33.49825684 91.42001953 32.41674805 92.01269531 C31.30984619 92.60663086 30.20294434 93.20056641 29.0625 93.8125 C26.79833655 95.05129933 24.53530387 96.29216775 22.2734375 97.53515625 C21.18901367 98.1295752 20.10458984 98.72399414 18.98730469 99.33642578 C14.34374392 101.92233809 9.84205084 104.70021602 5.35546875 107.546875 C4.57816406 108.02640625 3.80085938 108.5059375 3 109 C2.39800781 109.41765625 1.79601562 109.8353125 1.17578125 110.265625 C-2.89321823 111.63900364 -6.98942555 110.87114289 -10.8515625 109.19775391 C-12.78415935 108.13681262 -14.64055184 106.9969588 -16.5 105.8125 C-17.97037501 104.90856159 -19.44179611 104.00632335 -20.9140625 103.10546875 C-22.11337402 102.36562744 -22.11337402 102.36562744 -23.33691406 101.61083984 C-26.3099435 99.81252226 -29.31745876 98.084185 -32.3359375 96.36328125 C-33.41810547 95.74412842 -34.50027344 95.12497559 -35.61523438 94.48706055 C-37.76205387 93.26074297 -39.91173357 92.03941694 -42.06445312 90.82348633 C-43.54461914 89.97113403 -43.54461914 89.97113403 -45.0546875 89.1015625 C-45.93624512 88.59963379 -46.81780273 88.09770508 -47.72607422 87.58056641 C-50.17617531 85.8775436 -51.43051037 84.52900023 -53 82 C-53.38768005 79.5405426 -53.38768005 79.5405426 -53.40405273 76.76000977 C-53.41673691 75.71535049 -53.42942108 74.67069122 -53.44248962 73.59437561 C-53.43955399 72.47139572 -53.43661835 71.34841583 -53.43359375 70.19140625 C-53.4388356 69.03253403 -53.44407745 67.8736618 -53.44947815 66.67967224 C-53.4559003 64.22940878 -53.45455889 61.7791145 -53.44604492 59.32885742 C-53.43753972 55.5800076 -53.46628867 51.83268347 -53.49804688 48.08398438 C-53.49965908 45.70312546 -53.499081 43.32226384 -53.49609375 40.94140625 C-53.50732773 39.82045059 -53.51856171 38.69949493 -53.53013611 37.54457092 C-53.46106556 29.82969075 -53.46106556 29.82969075 -51.31591797 25.96948242 C-48.79760436 23.82788049 -46.33505631 22.16342202 -43.44921875 20.546875 C-41.82282471 19.62370483 -41.82282471 19.62370483 -40.16357422 18.68188477 C-39.01646973 18.04436279 -37.86936523 17.40684082 -36.6875 16.75 C-34.32745723 15.42405784 -31.97043679 14.09278489 -29.61328125 12.76171875 C-27.90519287 11.79951416 -27.90519287 11.79951416 -26.16259766 10.81787109 C-23.47625158 9.27375091 -20.84356131 7.68335205 -18.23046875 6.01953125 C-17.56249268 5.59639648 -16.8945166 5.17326172 -16.20629883 4.73730469 C-14.51254436 3.6507367 -12.82995797 2.54681256 -11.1484375 1.44140625 C-7.18144455 -0.37474809 -4.21640044 -0.99346896 0 0 Z " fill="#062B75" transform="translate(188,274)"/>
<path d="M0 0 C0.495 0.99 0.495 0.99 1 2 C1.928125 1.938125 2.85625 1.87625 3.8125 1.8125 C9.09846307 1.82315718 14.01941399 3.33773717 19 5 C19.80107178 5.22405518 20.60214355 5.44811035 21.42749023 5.67895508 C28.11303571 7.83850265 28.11303571 7.83850265 30.46948242 10.92431641 C31.62612853 13.30709555 32.55215529 15.69138847 33.4375 18.1875 C39.12360343 32.35695493 47.22453262 44.31093877 57 56 C57.48726563 56.72832031 57.97453125 57.45664062 58.4765625 58.20703125 C60.59865205 60.70456741 62.90066995 60.67006711 65.9921875 61.3203125 C69.69777439 62.57473296 70.97032825 64.7017834 73 68 C73.3125 71.375 73.3125 71.375 73 74 C73.54398437 74.2371875 74.08796875 74.474375 74.6484375 74.71875 C77.60979741 76.33224842 80.01209748 78.36646719 82.625 80.5 C89.89999677 86.29117498 97.87825479 90.60756149 106.09985352 94.90014648 C108.20084063 96.11625171 110.06953683 97.53129221 112 99 C97.8558313 99.08608061 83.74576652 98.83368948 69.609375 98.37890625 C67.52395237 98.31384079 65.43852334 98.24898008 63.35308838 98.18431091 C59.02015763 98.04926074 54.68730236 97.91205683 50.35449219 97.77319336 C44.84590997 97.59678005 39.33718495 97.42540135 33.82839584 97.25558567 C29.53511645 97.12275127 25.24191731 96.98745396 20.9487381 96.85142326 C18.91890892 96.78735087 16.88905804 96.72396145 14.85918427 96.66131783 C8.57167917 96.46636327 2.28568901 96.24651117 -4 96 C-4.79207352 95.97129192 -5.58414703 95.94258385 -6.40022278 95.91300583 C-8.60457579 95.82905059 -10.80741236 95.72805054 -13.01074219 95.62084961 C-14.2325116 95.56601913 -15.45428101 95.51118866 -16.71307373 95.45469666 C-23.35120479 94.53641138 -28.48123603 90.93817705 -32.9375 86.0625 C-37.83019331 78.79759175 -39.10409897 72.75702026 -38 64 C-36.32071675 57.86675572 -33.20889876 52.7772717 -29.75 47.5 C-28.67629248 45.83123775 -27.60341689 44.16194001 -26.53125 42.4921875 C-25.67660156 41.16719238 -25.67660156 41.16719238 -24.8046875 39.81542969 C-21.57644563 34.77916275 -18.41590611 29.70059462 -15.25 24.625 C-14.29516724 23.09649414 -14.29516724 23.09649414 -13.32104492 21.53710938 C-8.85037339 14.37657117 -4.40300542 7.2023603 0 0 Z " fill="#92B1F3" transform="translate(266,423)"/>
<path d="M0 0 C2.22082061 2.83094511 4.01623147 5.69737196 5.71484375 8.8671875 C6.23038818 9.82463867 6.74593262 10.78208984 7.27709961 11.76855469 C7.82503174 12.79368164 8.37296387 13.81880859 8.9375 14.875 C10.10377051 17.04448385 11.27044645 19.21374978 12.4375 21.3828125 C13.02917969 22.48399414 13.62085938 23.58517578 14.23046875 24.71972656 C16.43364222 28.80386546 18.66334294 32.87304769 20.89770508 36.94018555 C22.40359124 39.68812337 23.89661779 42.44269588 25.38671875 45.19921875 C26.91148699 48.01952024 28.4622812 50.81532742 30.08203125 53.58203125 C34.07881967 60.72383351 35.24916971 66.84302857 34 75 C32.3167259 80.52185156 29.28560496 84.15394427 25 88 C24.53078125 88.5053125 24.0615625 89.010625 23.578125 89.53125 C21.86898369 91.12193597 20.48446348 91.85484057 18.3125 92.6875 C17.68988281 92.93886719 17.06726563 93.19023438 16.42578125 93.44921875 C9.03947084 95.12630372 4.26191628 93.7438293 -2.125 90.125 C-2.85710693 89.72369873 -3.58921387 89.32239746 -4.34350586 88.90893555 C-10.51779741 85.44563478 -16.30317366 81.52978942 -21.95703125 77.27734375 C-23.79131471 75.90457449 -25.65680021 74.57043871 -27.57421875 73.31640625 C-31.30929987 70.84199883 -33.25556919 69.36146337 -34.1875 64.875 C-34.66338526 60.95867352 -34.66338526 60.95867352 -37.1875 58.625 C-39.96016192 56.82916931 -39.96016192 56.82916931 -43.3203125 56.296875 C-47.99088766 54.65076995 -49.77984828 52.49517778 -52.6875 48.625 C-53.19297363 47.97015625 -53.69844727 47.3153125 -54.21923828 46.640625 C-63.84425494 33.85085294 -71.76868501 20.14328025 -77 5 C-75.0830014 5.31045732 -73.16641277 5.62344671 -71.25 5.9375 C-69.64898437 6.19853516 -69.64898437 6.19853516 -68.015625 6.46484375 C-65 7 -65 7 -63.17431641 7.52075195 C-49.90277504 10.44597491 -32.92544609 9.00033312 -20 5 C-18.85402344 4.65195312 -17.70804687 4.30390625 -16.52734375 3.9453125 C-14.30384395 3.25845912 -12.08345131 2.56141717 -9.8671875 1.8515625 C-6.55370616 0.86744951 -3.4342047 0.3194609 0 0 Z " fill="#D1DBFC" transform="translate(372,428)"/>
<path d="M0 0 C3.26915051 1.01301371 5.92070607 2.48368977 8.87426758 4.21508789 C9.91752197 4.82167236 10.96077637 5.42825684 12.03564453 6.05322266 C13.34750732 6.82722412 14.65937012 7.60122559 16.01098633 8.39868164 C20.19786133 10.85305664 24.38473633 13.30743164 28.69848633 15.83618164 C28.69848633 27.05618164 28.69848633 38.27618164 28.69848633 49.83618164 C24.16098633 52.49680664 19.62348633 55.15743164 14.94848633 57.89868164 C13.52310547 58.74309814 12.09772461 59.58751465 10.62915039 60.45751953 C8.93870605 61.43579712 8.93870605 61.43579712 7.21411133 62.43383789 C6.33795166 62.95971497 6.33795166 62.95971497 5.4440918 63.49621582 C1.3062984 65.86356187 1.3062984 65.86356187 -1.34472656 65.74414062 C-4.0102444 64.50732705 -6.56487318 63.15453458 -9.12573242 61.71118164 C-10.23625977 61.08727539 -11.34678711 60.46336914 -12.4909668 59.82055664 C-13.06468018 59.49506836 -13.63839355 59.16958008 -14.22949219 58.83422852 C-15.99095816 57.83507867 -17.75619547 56.84287848 -19.5222168 55.85180664 C-28.15002001 50.9876753 -28.15002001 50.9876753 -29.30151367 49.83618164 C-31.0250251 39.33425199 -32.99887177 26.05485646 -29.30151367 15.83618164 C-23.92994144 8.98612217 -15.85420614 5.71906476 -7.84521484 2.80883789 C-0.42112115 -0.02997478 -0.42112115 -0.02997478 0 0 Z " fill="#CFDAFB" transform="translate(456.301513671875,213.163818359375)"/>
<path d="M0 0 C1.45152466 0.86238281 1.45152466 0.86238281 2.93237305 1.7421875 C3.99133789 2.36609375 5.05030273 2.99 6.14135742 3.6328125 C7.23125977 4.28765625 8.32116211 4.9425 9.4440918 5.6171875 C10.55333008 6.27203125 11.66256836 6.926875 12.80541992 7.6015625 C20.93492826 12.42052397 20.93492826 12.42052397 22.1315918 13.6171875 C22.51934475 18.22701618 22.61672815 22.83790888 22.70141602 27.4621582 C22.73800155 29.01542452 22.7925018 30.568379 22.86547852 32.12036133 C23.45855753 44.92622182 23.45855753 44.92622182 20.40673828 48.81518555 C18.05355385 50.40457889 15.74209441 51.5065527 13.1315918 52.6171875 C11.58519195 53.53469432 10.04969657 54.47084933 8.52612305 55.42578125 C7.00102918 56.30599314 5.473682 57.18231253 3.9440918 58.0546875 C3.17645508 58.51294922 2.40881836 58.97121094 1.61791992 59.44335938 C0.86575195 59.87068359 0.11358398 60.29800781 -0.66137695 60.73828125 C-1.65947388 61.31727173 -1.65947388 61.31727173 -2.67773438 61.90795898 C-6.75624463 63.2283727 -9.98354718 62.04376447 -13.73681641 60.234375 C-15.18834106 59.37199219 -15.18834106 59.37199219 -16.66918945 58.4921875 C-17.7281543 57.86828125 -18.78711914 57.244375 -19.87817383 56.6015625 C-20.96807617 55.94671875 -22.05797852 55.291875 -23.1809082 54.6171875 C-24.29014648 53.96234375 -25.39938477 53.3075 -26.54223633 52.6328125 C-34.67174467 47.81385103 -34.67174467 47.81385103 -35.8684082 46.6171875 C-36.25616116 42.00735882 -36.35354456 37.39646612 -36.43823242 32.7722168 C-36.47481795 31.21895048 -36.52931821 29.665996 -36.60229492 28.11401367 C-37.19537394 15.30815318 -37.19537394 15.30815318 -34.14355469 11.41918945 C-31.79037025 9.82979611 -29.47891082 8.7278223 -26.8684082 7.6171875 C-25.32200836 6.69968068 -23.78651297 5.76352567 -22.26293945 4.80859375 C-20.73784559 3.92838186 -19.2104984 3.05206247 -17.6809082 2.1796875 C-16.52945312 1.49229492 -16.52945312 1.49229492 -15.35473633 0.79101562 C-14.60256836 0.36369141 -13.85040039 -0.06363281 -13.07543945 -0.50390625 C-12.4100415 -0.8898999 -11.74464355 -1.27589355 -11.05908203 -1.67358398 C-6.98057178 -2.9939977 -3.75326922 -1.80938947 0 0 Z " fill="#FA7C9F" transform="translate(430.868408203125,354.3828125)"/>
<path d="M0 0 C1.10730469 0.62390625 2.21460938 1.2478125 3.35546875 1.890625 C4.50144531 2.54546875 5.64742187 3.2003125 6.828125 3.875 C8.00096727 4.53705181 9.17414129 5.19851628 10.34765625 5.859375 C18.90881907 10.70569407 18.90881907 10.70569407 20.078125 11.875 C20.16660243 14.39594076 20.19339801 16.88930893 20.17578125 19.41015625 C20.1743663 20.16340683 20.17295135 20.91665741 20.17149353 21.69273376 C20.16587876 24.1076956 20.15332383 26.52256601 20.140625 28.9375 C20.1356119 30.57096221 20.13104866 32.20442586 20.12695312 33.83789062 C20.11590454 37.85029585 20.09863006 41.86263241 20.078125 45.875 C16.61152113 47.83616191 13.14263215 49.793213 9.67163086 51.74658203 C8.49261938 52.41083661 7.31422399 53.07618601 6.13647461 53.74267578 C4.43768435 54.70376727 2.73644289 55.66052197 1.03515625 56.6171875 C-0.49661255 57.48126221 -0.49661255 57.48126221 -2.05932617 58.36279297 C-3.00396729 58.86182129 -3.9486084 59.36084961 -4.921875 59.875 C-5.73333984 60.34035156 -6.54480469 60.80570312 -7.38085938 61.28515625 C-11.14125652 62.15805397 -13.41781228 60.4848621 -16.53515625 58.5703125 C-17.14957077 58.21234589 -17.76398529 57.85437927 -18.39701843 57.48556519 C-20.35330578 56.3405406 -22.29349728 55.17091694 -24.234375 54 C-25.55956381 53.21838296 -26.8857264 52.43841439 -28.21289062 51.66015625 C-31.46081949 49.75070133 -34.69454561 47.81905238 -37.921875 45.875 C-42.0944467 17.95324386 -42.0944467 17.95324386 -36.76281738 10.18658447 C-33.31247013 6.4962689 -29.18440534 4.0058602 -24.734375 1.6875 C-24.109935 1.36080322 -23.485495 1.03410645 -22.84213257 0.69750977 C-13.89015102 -3.81320231 -8.9955431 -5.09623655 0 0 Z " fill="#AFD752" transform="translate(224.921875,162.125)"/>
<path d="M0 0 C2.93399365 1.42762428 5.78014134 2.95141036 8.62231445 4.5546875 C9.73413086 5.17988281 10.84594727 5.80507813 11.99145508 6.44921875 C13.15360221 7.1067041 14.31571111 7.76425703 15.4777832 8.421875 C16.65926509 9.08752141 17.8409042 9.75288884 19.02270508 10.41796875 C21.90512225 12.04153434 24.78590651 13.66792515 27.6652832 15.296875 C27.988771 19.99185056 28.2233466 24.6802644 28.37939453 29.38378906 C28.44444984 30.97933908 28.53294636 32.57412314 28.64599609 34.16699219 C29.01224157 39.4634652 29.06914033 44.14425291 27.6652832 49.296875 C23.83717769 53.1684422 19.61327334 55.13965985 14.6652832 57.296875 C13.26292396 58.12427737 11.87324971 58.97439462 10.5090332 59.86328125 C9.4055957 60.52199219 8.3021582 61.18070312 7.1652832 61.859375 C5.47918945 62.88224609 5.47918945 62.88224609 3.7590332 63.92578125 C0.18730165 65.50870773 -0.67956154 65.36335089 -4.3347168 64.296875 C-6.34233136 63.32164954 -8.31463504 62.27204993 -10.2565918 61.171875 C-11.36389648 60.54796875 -12.47120117 59.9240625 -13.61206055 59.28125 C-14.75803711 58.62640625 -15.90401367 57.9715625 -17.0847168 57.296875 C-18.25755907 56.63482319 -19.43073309 55.97335872 -20.60424805 55.3125 C-29.16541087 50.46618093 -29.16541087 50.46618093 -30.3347168 49.296875 C-30.81952558 44.72523917 -30.99108267 40.15567483 -31.12426758 35.56176758 C-31.1808157 34.02155824 -31.26249759 32.4820481 -31.37036133 30.94458008 C-31.7247085 25.79654888 -31.7554465 21.29107443 -30.3347168 16.296875 C-26.49810315 12.47707018 -22.23336332 10.49476708 -17.3347168 8.296875 C-15.85594394 7.3892612 -14.39317465 6.45417722 -12.9597168 5.4765625 C-11.75139091 4.70832162 -10.54305794 3.94009188 -9.3347168 3.171875 C-8.71983398 2.76195312 -8.10495117 2.35203125 -7.47143555 1.9296875 C-2.95971021 -0.89134847 -2.95971021 -0.89134847 0 0 Z " fill="#FAC950" transform="translate(185.334716796875,296.703125)"/>
<path d="M0 0 C0.84473877 0.45906738 1.68947754 0.91813477 2.55981445 1.39111328 C3.50445557 1.8901416 4.44909668 2.38916992 5.42236328 2.90332031 C6.95413208 3.76739502 6.95413208 3.76739502 8.5168457 4.64892578 C9.51949463 5.21240723 10.52214355 5.77588867 11.55517578 6.35644531 C12.81483154 7.06913574 14.0744873 7.78182617 15.37231445 8.51611328 C19.39418945 10.78486328 23.41606445 13.05361328 27.55981445 15.39111328 C27.55981445 26.61111328 27.55981445 37.83111328 27.55981445 49.39111328 C21.27950195 53.07267578 21.27950195 53.07267578 14.87231445 56.82861328 C13.56045166 57.60261475 12.24858887 58.37661621 10.89697266 59.17407227 C9.85371826 59.78065674 8.81046387 60.38724121 7.7355957 61.01220703 C6.67252197 61.63538818 5.60944824 62.25856934 4.51416016 62.90063477 C1.66758769 64.33674128 -0.2637386 65.25211818 -3.44018555 65.39111328 C-6.16333008 64.2512207 -6.16333008 64.2512207 -9.07299805 62.49658203 C-10.12616211 61.87074219 -11.17932617 61.24490234 -12.2644043 60.60009766 C-13.35366211 59.93300781 -14.44291992 59.26591797 -15.56518555 58.57861328 C-17.21067383 57.59538086 -17.21067383 57.59538086 -18.8894043 56.59228516 C-22.78684481 54.25621192 -26.65913228 51.91181546 -30.44018555 49.39111328 C-30.70716442 46.76649084 -30.78851538 44.38045395 -30.7331543 41.75830078 C-30.72890945 41.00646515 -30.72466461 40.25462952 -30.72029114 39.48001099 C-30.70347725 37.07501643 -30.66582179 34.67085519 -30.62768555 32.26611328 C-30.61264214 30.63721912 -30.59895313 29.00831184 -30.58666992 27.37939453 C-30.55356509 23.38297894 -30.50176564 19.38718746 -30.44018555 15.39111328 C-29.76963135 15.01301514 -29.09907715 14.63491699 -28.40820312 14.24536133 C-25.35596881 12.52381144 -22.30432201 10.8012227 -19.25268555 9.07861328 C-18.19758789 8.48371094 -17.14249023 7.88880859 -16.05541992 7.27587891 C-15.03383789 6.69902344 -14.01225586 6.12216797 -12.9597168 5.52783203 C-12.02232666 4.99891357 -11.08493652 4.46999512 -10.11914062 3.92504883 C-7.40675655 2.43316469 -7.40675655 2.43316469 -4.90771484 0.57006836 C-2.44018555 -0.60888672 -2.44018555 -0.60888672 0 0 Z " fill="#FA8E02" transform="translate(353.440185546875,116.60888671875)"/>
<path d="M0 0 C13.68002366 -0.08603788 27.32769851 0.02542046 41 0.4375 C42.01765945 0.4669722 42.01765945 0.4669722 43.05587769 0.49703979 C53.05748865 0.79120927 63.01682319 1.33705466 73 2 C73 8.27 73 14.54 73 21 C48.65411117 21.18840327 24.33685946 20.60091011 0 20 C0 13.4 0 6.8 0 0 Z " fill="#90B0F2" transform="translate(287,268)"/>
<path d="M0 0 C0.33 0 0.66 0 1 0 C1 16.83 1 33.66 1 51 C-3.41375 52.44375 -7.8275 53.8875 -12.375 55.375 C-13.74575684 55.82665527 -15.11651367 56.27831055 -16.52880859 56.74365234 C-17.64078613 57.10410645 -18.75276367 57.46456055 -19.8984375 57.8359375 C-21.57945557 58.38580322 -21.57945557 58.38580322 -23.29443359 58.94677734 C-27.79662211 60.22642165 -32.41038054 61.08207611 -37 62 C-37.33 54.74 -37.66 47.48 -38 40 C-35.03 39.505 -35.03 39.505 -32 39 C-29.71435741 38.34828963 -27.43989737 37.65655064 -25.17578125 36.93359375 C-24.54770065 36.73524429 -23.91962006 36.53689484 -23.27250671 36.33253479 C-20.60867275 35.4912183 -17.94786682 34.64050801 -15.28686523 33.7902832 C-13.33425484 33.16790793 -11.38008973 32.55061208 -9.42578125 31.93359375 C-8.26473877 31.56290771 -7.10369629 31.19222168 -5.9074707 30.81030273 C-3 30 -3 30 0 30 C0 20.1 0 10.2 0 0 Z " fill="#6966F2" transform="translate(302,124)"/>
<path d="M0 0 C0.72445313 0.39832031 1.44890625 0.79664063 2.1953125 1.20703125 C11.63872406 6.81307622 11.63872406 6.81307622 22 10 C21.37891357 10.50901855 20.75782715 11.01803711 20.11791992 11.54248047 C17.48658779 14.59573572 16.85315223 17.47010285 16.11328125 21.3203125 C15.9659404 22.0201828 15.81859955 22.7200531 15.66679382 23.44113159 C15.20113385 25.66642227 14.75618995 27.89523531 14.3125 30.125 C13.85384838 32.36083656 13.39100831 34.59575437 12.92607117 36.83029175 C12.63876939 38.21828448 12.3559133 39.6072064 12.07795715 40.99710083 C11.10813429 45.78373143 11.10813429 45.78373143 10 48 C5.60616294 46.40376856 1.71004193 44.21975667 -2.3125 41.875 C-2.95767578 41.50246094 -3.60285156 41.12992187 -4.26757812 40.74609375 C-5.84675945 39.83367787 -7.42361864 38.91724491 -9 38 C-1.47536187 1.47536187 -1.47536187 1.47536187 0 0 Z " fill="#6966F6" transform="translate(435,291)"/>
<path d="M0 0 C4.19519242 3.46559374 8.11235081 7.06505375 11.9375 10.9375 C15.53396643 14.57769247 19.20302003 18.03248327 23.11328125 21.33203125 C25.5136389 23.45408657 27.75064432 25.71967212 30 28 C27.09815476 29.73450799 24.17665574 31.4327466 21.25 33.125 C20.425 33.61871094 19.6 34.11242187 18.75 34.62109375 C17.55117188 35.30751953 17.55117188 35.30751953 16.328125 36.0078125 C15.22839355 36.65194092 15.22839355 36.65194092 14.10644531 37.30908203 C12 38 12 38 9.93701172 37.30834961 C8.00925975 36.00625448 6.3623889 34.66376624 4.6796875 33.05859375 C4.06617432 32.47867676 3.45266113 31.89875977 2.82055664 31.30126953 C2.17852295 30.68622559 1.53648926 30.07118164 0.875 29.4375 C-0.4615737 28.17247317 -1.79881542 26.90815177 -3.13671875 25.64453125 C-4.11777588 24.71568115 -4.11777588 24.71568115 -5.11865234 23.76806641 C-9.01421312 20.10706833 -13.00565152 16.55262053 -17 13 C-15.61140803 8.8342241 -12.73350638 7.89852323 -9.0625 5.9375 C-4.22458114 3.40685386 -4.22458114 3.40685386 0 0 Z " fill="#6865F6" transform="translate(398,178)"/>
<path d="M0 0 C3.61363804 1.3446095 6.78520167 2.97384957 10.0625 5 C12.99172403 6.80537691 15.8974432 8.50962629 19 10 C18.75765625 11.07894531 18.5153125 12.15789062 18.265625 13.26953125 C17.92699145 14.78383362 17.58845778 16.29815833 17.25 17.8125 C17.07098145 18.60970459 16.89196289 19.40690918 16.70751953 20.22827148 C15.73058716 24.60740281 14.79124128 28.99035112 13.9140625 33.390625 C13.7397168 34.25582764 13.56537109 35.12103027 13.38574219 36.01245117 C13.04852954 37.69609652 12.71830521 39.38115849 12.39550781 41.06762695 C11.9941584 43.05901842 11.50517075 45.03238117 11 47 C10.01 47.495 10.01 47.495 9 48 C6.16776206 46.93230268 3.57553193 45.35101439 0.9375 43.875 C0.19177734 43.483125 -0.55394531 43.09125 -1.32226562 42.6875 C-2.03189453 42.29304688 -2.74152344 41.89859375 -3.47265625 41.4921875 C-4.45117554 40.95634033 -4.45117554 40.95634033 -5.44946289 40.40966797 C-7.69078126 38.37197748 -7.79417132 37.00792327 -8 34 C-7.62546039 31.46499763 -7.17915488 29.0685655 -6.6015625 26.58203125 C-6.44714691 25.8835759 -6.29273132 25.18512054 -6.13363647 24.46549988 C-5.80696549 22.99622012 -5.47554234 21.52798978 -5.13964844 20.06079102 C-4.62477767 17.81152871 -4.12362965 15.55955341 -3.625 13.30664062 C-3.30547578 11.87742771 -2.98518969 10.44838485 -2.6640625 9.01953125 C-2.51297028 8.34557816 -2.36187805 7.67162506 -2.20620728 6.97724915 C-1.1181188 2.2362376 -1.1181188 2.2362376 0 0 Z " fill="#6965F6" transform="translate(195,236)"/>
<path d="M0 0 C2.55255078 1.69608544 4.51329631 3.73320853 6.63671875 5.94116211 C10.88560834 10.27740038 15.25777237 14.33098796 19.88671875 18.25366211 C21.22026787 19.3992443 22.55361242 20.54506468 23.88671875 21.69116211 C24.87671875 22.53678711 25.86671875 23.38241211 26.88671875 24.25366211 C23.34043362 27.22965739 19.72902255 29.60595288 15.69921875 31.87866211 C11.51644021 34.20319391 11.51644021 34.20319391 7.88671875 37.25366211 C7.520625 36.8037793 7.15453125 36.35389648 6.77734375 35.89038086 C-0.50562807 27.23751672 -9.10377627 19.8103441 -17.78515625 12.59350586 C-19.11328125 11.25366211 -19.11328125 11.25366211 -19.11328125 9.25366211 C-16.54624865 7.23587066 -13.67023447 5.66501328 -10.86328125 4.00366211 C-10.08597656 3.51897461 -9.30867187 3.03428711 -8.5078125 2.53491211 C-7.37666016 1.86202148 -7.37666016 1.86202148 -6.22265625 1.17553711 C-5.53139648 0.75884766 -4.84013672 0.3421582 -4.12792969 -0.0871582 C-2.11328125 -0.74633789 -2.11328125 -0.74633789 0 0 Z " fill="#6965F6" transform="translate(232.11328125,359.746337890625)"/>
<path d="M0 0 C0.33 0 0.66 0 1 0 C1.15855469 1.10214844 1.31710937 2.20429688 1.48046875 3.33984375 C2.83959641 12.31367341 4.59419202 20.8913058 7.46166992 29.51538086 C9.42665349 35.6073484 9.42665349 35.6073484 8 39 C7.46375 38.74605469 6.9275 38.49210937 6.375 38.23046875 C-1.52046416 34.76321722 -9.54743743 33.38429064 -18 32 C-17.42287246 27.77221644 -15.97088649 24.95262309 -13.69140625 21.3671875 C-13.02689453 20.31402344 -12.36238281 19.26085937 -11.67773438 18.17578125 C-10.97970703 17.08652344 -10.28167969 15.99726563 -9.5625 14.875 C-8.86833984 13.77800781 -8.17417969 12.68101562 -7.45898438 11.55078125 C-5.00474493 7.67816722 -2.54323164 3.81484745 0 0 Z " fill="#CFDAFB" transform="translate(285,393)"/>
<path d="M0 0 C3.03978021 0.68164768 4.80055419 2.23591662 6.93359375 4.43359375 C8.53446002 7.63532629 8.43276464 10.95936434 7.93359375 14.43359375 C6.13995464 17.24362835 4.9147844 18.94299843 1.93359375 20.43359375 C-3.22075037 20.94057842 -3.22075037 20.94057842 -6.06640625 20.43359375 C-9.00390625 17.99609375 -9.00390625 17.99609375 -11.06640625 15.43359375 C-11.39640625 15.10359375 -11.72640625 14.77359375 -12.06640625 14.43359375 C-12.20202213 9.74515909 -11.6406746 6.28629524 -9.00390625 2.37109375 C-5.69491642 0.18856854 -3.88132992 -0.24212455 0 0 Z " fill="#6A67F7" transform="translate(365.06640625,458.56640625)"/>
<path d="M0 0 C2.91926701 0.73377598 4.65993097 2.216466 6.34765625 4.6953125 C7.90898749 8.24583979 7.71210674 10.67931529 7.16015625 14.54296875 C5.36651714 17.35300335 4.1413469 19.05237343 1.16015625 20.54296875 C-5.52235648 21.43397045 -5.52235648 21.43397045 -8.734375 19.26171875 C-11.07334091 16.8515431 -12.63908116 14.8405806 -13.16015625 11.47265625 C-12.91976163 7.75361007 -11.92292656 5.66759296 -9.83984375 2.54296875 C-6.31924875 0.19590542 -4.17017794 -0.25759029 0 0 Z " fill="#6965F6" transform="translate(274.83984375,458.45703125)"/>
<path d="M0 0 C4.33764633 2.36598891 4.33764633 2.36598891 6 5 C7.15390567 10.02773185 6.78240438 13.73805744 4.0625 18.125 C-0.07144905 20.65598921 -3.27493702 21.02533012 -8 20 C-11.0625 18.125 -11.0625 18.125 -13 15 C-13.87725118 10.88366754 -14.20764109 6.9135158 -11.890625 3.2421875 C-8.19736897 -0.23265016 -4.85244389 -0.86650784 0 0 Z " fill="#6965F7" transform="translate(332,484)"/>
</svg>
