<?xml version="1.0" encoding="UTF-8"?>
<svg version="1.1" xmlns="http://www.w3.org/2000/svg" width="640" height="640">
<path d="M0 0 C211.2 0 422.4 0 640 0 C640 211.2 640 422.4 640 640 C428.8 640 217.6 640 0 640 C0 428.8 0 217.6 0 0 Z " fill="#FEFEFE" transform="translate(0,0)"/>
<path d="M0 0 C2.7980957 1.21826172 2.7980957 1.21826172 5.67578125 2.9296875 C6.74368896 3.55576904 7.81159668 4.18185059 8.91186523 4.8269043 C10.03407471 5.50277588 11.15628418 6.17864746 12.3125 6.875 C13.47599001 7.56466224 14.64013883 8.25321422 15.80493164 8.94067383 C18.12458521 10.31167288 20.44007801 11.68933836 22.75292969 13.07177734 C25.61425871 14.77093348 28.49019821 16.436919 31.3828125 18.08203125 C32.16358154 18.52885254 32.94435059 18.97567383 33.7487793 19.43603516 C35.16664421 20.24674074 36.58722732 21.0527182 38.01098633 21.85302734 C41.50158415 23.87610521 44.07607151 25.43190335 46 29 C46.4119473 32.12283106 46.34854677 35.21439994 46.29296875 38.359375 C46.28872391 39.26375305 46.28447906 40.1681311 46.28010559 41.09991455 C46.26333574 43.98358139 46.22568669 46.866545 46.1875 49.75 C46.17245097 51.70702114 46.15876295 53.66405326 46.14648438 55.62109375 C46.11343774 60.41433275 46.06166705 65.20704721 46 70 C46.85899902 70.26208252 47.71799805 70.52416504 48.60302734 70.79418945 C52.07142367 72.02535299 55.11789213 73.53984117 58.3515625 75.29296875 C59.54403915 75.9294707 60.73675457 76.5655255 61.9296875 77.20117188 C63.78669113 78.19698144 65.64144623 79.1964521 67.4921875 80.20385742 C69.29389148 81.18191851 71.10312762 82.14463423 72.9140625 83.10546875 C73.9860791 83.68449951 75.0580957 84.26353027 76.16259766 84.86010742 C78.81236205 86.1658439 78.81236205 86.1658439 81.06787109 85.84936523 C83.46830932 84.79413089 85.72206351 83.60594177 88 82.3046875 C88.96421875 81.75643311 89.9284375 81.20817871 90.921875 80.64331055 C91.93765625 80.05976807 92.9534375 79.47622559 94 78.875 C95.03640625 78.2869458 96.0728125 77.6988916 97.140625 77.09301758 C101.44216301 74.64604499 105.73439943 72.19529307 109.9375 69.58203125 C111.4534375 68.64423828 111.4534375 68.64423828 113 67.6875 C113.825 67.15511719 114.65 66.62273437 115.5 66.07421875 C118.99000355 64.57460785 121.21410447 64.53513458 125 65 C128.19162815 66.27792581 131.09984314 67.95168581 134.0625 69.6875 C134.917229 70.17500732 135.77195801 70.66251465 136.65258789 71.16479492 C138.48246731 72.21306506 140.30812361 73.26873535 142.12988281 74.33105469 C145.08211626 76.04774981 148.05134654 77.73201812 151.0234375 79.4140625 C152.99570685 80.54528088 154.96708334 81.67805759 156.9375 82.8125 C157.8663501 83.3386792 158.7952002 83.8648584 159.75219727 84.40698242 C160.62674561 84.91849854 161.50129395 85.43001465 162.40234375 85.95703125 C163.55464478 86.62182495 163.55464478 86.62182495 164.73022461 87.30004883 C168.71123968 90.28163514 171.56768329 92.55029335 172.4495697 97.54747009 C172.6290835 100.71110941 172.64043733 103.83549118 172.59375 107.00390625 C172.59379028 108.15994858 172.59383057 109.31599091 172.59387207 110.50706482 C172.58852153 112.94543916 172.57095909 115.38381334 172.54199219 117.82202148 C172.50010544 121.55310768 172.50092867 125.28238996 172.5078125 129.01367188 C172.49732079 131.3854292 172.4843828 133.75717724 172.46875 136.12890625 C172.46854858 137.2435878 172.46834717 138.35826935 172.46813965 139.50672913 C172.44427185 141.0687632 172.44427185 141.0687632 172.41992188 142.66235352 C172.41150269 143.57469254 172.4030835 144.48703156 172.39440918 145.42701721 C171.8225832 149.157403 170.28279589 151.96427225 167.33691406 154.34277344 C166.43537598 154.84599121 166.43537598 154.84599121 165.515625 155.359375 C164.49359985 155.94356201 164.49359985 155.94356201 163.45092773 156.53955078 C162.72462158 156.93899902 161.99831543 157.33844727 161.25 157.75 C159.72481613 158.61640586 158.20008626 159.48361135 156.67578125 160.3515625 C155.90186035 160.78758789 155.12793945 161.22361328 154.33056641 161.67285156 C150.66226209 163.7617791 147.05046331 165.9422271 143.4375 168.125 C141.29193999 169.41712106 139.14593977 170.70850967 137 172 C137.1190264 176.28686396 137.24331925 180.57353456 137.37231445 184.86010742 C137.41539933 186.3157953 137.45709075 187.77152517 137.49731445 189.22729492 C137.55566411 191.33004361 137.61916516 193.43258606 137.68359375 195.53515625 C137.72025146 196.797229 137.75690918 198.05930176 137.79467773 199.35961914 C137.73281092 206.33812837 137.73281092 206.33812837 141.11035156 211.95288086 C142.0278418 212.45182861 142.94533203 212.95077637 143.890625 213.46484375 C144.90479492 214.03340088 145.91896484 214.60195801 146.96386719 215.18774414 C148.04829102 215.76516357 149.13271484 216.34258301 150.25 216.9375 C152.44833189 218.16331815 154.64625187 219.38987532 156.84375 220.6171875 C158.43703125 221.49068848 158.43703125 221.49068848 160.0625 222.38183594 C163.67293861 224.3706979 167.22041471 226.4334153 170.75 228.5625 C172.16539062 229.39974609 172.16539062 229.39974609 173.609375 230.25390625 C177.11193419 232.81214801 179.65329084 234.8882668 180.3894043 239.3717804 C180.56370699 242.38713381 180.60671864 245.37799375 180.6015625 248.3984375 C180.61013275 249.50675934 180.618703 250.61508118 180.62753296 251.75698853 C180.63900561 254.09870678 180.64003026 256.4404963 180.63134766 258.78222656 C180.62503346 262.35606204 180.67193095 265.92657465 180.72265625 269.5 C180.72720324 271.77864167 180.72860876 274.05729221 180.7265625 276.3359375 C180.74498199 277.39968597 180.76340149 278.46343445 180.78237915 279.55941772 C180.70664563 285.66542552 179.99541081 289.21842092 175.65660095 293.63963318 C172.64585009 296.11200021 169.39547496 297.91897307 165.9375 299.6875 C164.35195809 300.53215474 162.76736414 301.37859073 161.18359375 302.2265625 C160.34940918 302.6690332 159.51522461 303.11150391 158.65576172 303.56738281 C153.88529196 306.1407526 149.19721432 308.85843563 144.5 311.5625 C142.71908174 312.58521331 140.9378569 313.60739305 139.15625 314.62890625 C138.40150391 315.06275635 137.64675781 315.49660645 136.86914062 315.94360352 C133.28927508 317.96686347 131.17360263 318.3514417 127 318 C123.79614258 316.56298828 123.79614258 316.56298828 120.39453125 314.5703125 C119.7886467 314.21991913 119.18276215 313.86952576 118.55851746 313.5085144 C116.63588438 312.39266887 114.72437488 311.25915898 112.8125 310.125 C111.51695536 309.36992698 110.22073705 308.61600857 108.92382812 307.86328125 C99.99603837 302.66402558 99.99603837 302.66402558 96 300 C90.88909355 300.2219021 87.75536024 302.17124783 83.625 305.0625 C82.56539062 305.79597656 81.50578125 306.52945312 80.4140625 307.28515625 C79.61742187 307.85105469 78.82078125 308.41695313 78 309 C82.1425407 317.91375967 86.36289291 326.78191793 90.796875 335.5546875 C91.12682968 336.20869537 91.45678436 336.86270325 91.79673767 337.53652954 C93.44630074 340.80412245 95.10284863 344.06789201 96.76977539 347.32666016 C102.0325971 357.67601617 106.76922014 367.16014109 106.5 379 C106.48718994 379.86939209 106.47437988 380.73878418 106.46118164 381.63452148 C106.24890654 388.37252362 105.23727721 394.01246958 102 400 C101.49082031 400.94230469 100.98164063 401.88460938 100.45703125 402.85546875 C93.3676832 414.87653719 83.22030093 421.7672622 69.8359375 425.50390625 C62.59701866 426.7702185 55.0946458 426.39632273 47.82373047 425.5234375 C43.22438959 425.00211437 38.63218812 424.68333353 34.01171875 424.421875 C32.20481825 424.31479965 30.39793434 424.20744413 28.59106445 424.09985352 C27.63318024 424.04338654 26.67529602 423.98691956 25.68838501 423.92874146 C5.67288237 422.7365598 -14.33792995 421.43620238 -34.3401022 420.03752708 C-38.12377463 419.7730896 -41.90761786 419.51373621 -45.6925354 419.2677002 C-49.29864592 419.03300007 -52.90340496 418.78306256 -56.50772476 418.52234459 C-58.4663606 418.38430538 -60.426037 418.26128085 -62.38571167 418.13887024 C-77.41403324 417.01567983 -90.80399626 412.87102919 -101.375 401.6875 C-108.90169063 392.63387828 -112.35155156 382.56398743 -112.4375 370.875 C-112.47037109 370.10929687 -112.50324219 369.34359375 -112.53710938 368.5546875 C-112.66623676 354.28024226 -104.10877309 343.02122362 -96.25 331.875 C-94.79225999 329.78452854 -93.33838426 327.69147484 -91.88787842 325.59597778 C-90.99248832 324.3048247 -90.09234429 323.0169517 -89.18682861 321.73287964 C-87.39022304 319.16186894 -85.99824106 316.99472317 -85 314 C-86.60871919 314.96523152 -88.21736655 315.93058292 -89.82568359 316.89648438 C-91.19974957 317.72020369 -92.57509258 318.54179624 -93.95166016 319.36132812 C-96.97101107 321.16202109 -99.96245747 322.97547625 -102.90625 324.8984375 C-104.12828125 325.69121094 -104.12828125 325.69121094 -105.375 326.5 C-106.40753906 327.19609375 -106.40753906 327.19609375 -107.4609375 327.90625 C-111.40807518 329.60655546 -114.67780728 330.47146797 -119 330 C-123.45451618 328.19183545 -127.42821302 325.72739561 -131.5 323.1875 C-132.64920703 322.49155919 -133.7996923 321.79772498 -134.95141602 321.10595703 C-137.2413325 319.72744678 -139.522634 318.33730767 -141.80126953 316.93994141 C-144.63200422 315.22317924 -147.4837839 313.56833793 -150.37109375 311.94921875 C-151.15355469 311.50747314 -151.93601563 311.06572754 -152.7421875 310.6105957 C-154.16145683 309.81178319 -155.58442012 309.01948328 -157.01171875 308.23510742 C-161.00969741 305.93719898 -163.16463326 304.23264891 -165 300 C-165.46541386 296.19021422 -165.46802879 292.40107797 -165.46875 288.56640625 C-165.47636353 287.45571274 -165.48397705 286.34501923 -165.49182129 285.20066833 C-165.50261342 282.85474899 -165.50547902 280.50878164 -165.50097656 278.1628418 C-165.50000433 274.5784476 -165.54163788 270.9961946 -165.5859375 267.41210938 C-165.59114473 265.13021279 -165.59383269 262.84830878 -165.59375 260.56640625 C-165.61014526 259.49749649 -165.62654053 258.42858673 -165.64343262 257.32728577 C-165.5665225 249.02527961 -165.5665225 249.02527961 -162.83789062 245.51220703 C-159.99867264 242.99882497 -157.30555615 241.09068392 -154 239.23828125 C-152.2984375 238.27245117 -152.2984375 238.27245117 -150.5625 237.28710938 C-149.37518973 236.62856407 -148.18768803 235.97036377 -147 235.3125 C-145.8118724 234.64369182 -144.62436649 233.97377797 -143.4375 233.30273438 C-141.25315585 232.07031748 -139.06596524 230.84292173 -136.875 229.62231445 C-134.22151967 228.12499985 -131.60441923 226.58078433 -129 225 C-126.86741334 202.60414517 -126.86741334 202.60414517 -133.09423828 181.99072266 C-138.37645549 177.53673804 -144.53485349 175.26254871 -151.02587891 173.08740234 C-155.50619298 171.4493036 -159.33506489 169.03514237 -163.3125 166.4375 C-163.96879395 166.04191895 -164.62508789 165.64633789 -165.30126953 165.23876953 C-168.66390487 163.16464604 -170.58277169 161.68777931 -172 158 C-172.27415466 155.62319946 -172.27415466 155.62319946 -172.30639648 152.95947266 C-172.32238388 151.95808258 -172.33837128 150.9566925 -172.35484314 149.92495728 C-172.36020584 148.848862 -172.36556854 147.77276672 -172.37109375 146.6640625 C-172.38012222 145.55195404 -172.3891507 144.43984558 -172.39845276 143.29403687 C-172.41295584 140.94214572 -172.42184213 138.59021421 -172.42553711 136.23828125 C-172.43743332 132.64514013 -172.48662133 129.05371624 -172.53710938 125.4609375 C-172.54657374 123.17448754 -172.55380871 120.88802704 -172.55859375 118.6015625 C-172.58789223 116.99349228 -172.58789223 116.99349228 -172.61778259 115.35293579 C-172.56753441 107.02172867 -172.56753441 107.02172867 -169.81811523 103.49682617 C-167.08595856 101.07615855 -164.53547384 99.2251573 -161.3515625 97.44921875 C-160.27036133 96.83699463 -159.18916016 96.22477051 -158.07519531 95.59399414 C-156.93663086 94.96485107 -155.79806641 94.33570801 -154.625 93.6875 C-152.86029786 92.69822788 -151.09764483 91.70537793 -149.33520508 90.71208191 C-147.60969988 89.73994998 -145.88249758 88.77083233 -144.15527344 87.80175781 C-141.45439201 86.25947176 -138.79986149 84.67352772 -136.1640625 83.0234375 C-135.48649902 82.59973877 -134.80893555 82.17604004 -134.11083984 81.73950195 C-132.38619186 80.64864287 -130.6693065 79.54553724 -128.953125 78.44140625 C-125.52457012 76.76794494 -123.78078546 76.66013473 -120 77 C-116.91967773 78.3293457 -116.91967773 78.3293457 -113.68359375 80.17578125 C-113.10464859 80.5016069 -112.52570343 80.82743256 -111.92921448 81.16313171 C-110.09162354 82.20108982 -108.26472015 83.25641356 -106.4375 84.3125 C-105.20703675 85.01092358 -103.97592197 85.70820061 -102.74414062 86.40429688 C-94.05576129 91.32914574 -94.05576129 91.32914574 -90.28857422 93.72290039 C-88.02917107 95.22625033 -88.02917107 95.22625033 -85.19921875 95.0078125 C-80.88058709 93.64736443 -77.53507037 91.41096707 -73.8125 88.875 C-72.30741507 87.87611612 -70.80220654 86.87741844 -69.296875 85.87890625 C-68.20149414 85.14438232 -68.20149414 85.14438232 -67.08398438 84.39501953 C-64.26126085 82.50548788 -61.41810287 80.65202195 -58.5625 78.8125 C-57.71816406 78.26207031 -56.87382812 77.71164063 -56.00390625 77.14453125 C-54 76 -54 76 -52 76 C-52.01332367 75.13342522 -52.01332367 75.13342522 -52.0269165 74.24934387 C-52.11547932 68.23102726 -52.17577123 62.21289606 -52.21972656 56.1940918 C-52.2398294 53.94857259 -52.26711605 51.70310565 -52.30175781 49.45776367 C-52.3503331 46.2282216 -52.37298237 42.99937225 -52.390625 39.76953125 C-52.41127014 38.76727005 -52.43191528 37.76500885 -52.45318604 36.7323761 C-52.45455238 32.47855663 -52.43970223 29.77101422 -50.30444336 26.02685547 C-47.88137513 23.8956644 -45.57666472 22.3361532 -42.73828125 20.80078125 C-41.70936768 20.23568848 -40.6804541 19.6705957 -39.62036133 19.08837891 C-38.52876709 18.50233887 -37.43717285 17.91629883 -36.3125 17.3125 C-34.05103762 16.07873775 -31.79062437 14.8430506 -29.53125 13.60546875 C-28.42136719 12.99880371 -27.31148437 12.39213867 -26.16796875 11.76708984 C-23.33439376 10.18652451 -20.55031218 8.55360838 -17.78125 6.86328125 C-17.01643311 6.39688232 -16.25161621 5.9304834 -15.46362305 5.44995117 C-14.07064354 4.59196686 -12.68361343 3.72421572 -11.30395508 2.8449707 C-7.26966808 0.37552348 -4.6930845 -0.43195056 0 0 Z " fill="#072C76" transform="translate(316,90)"/>
<path d="M0 0 C2.7980957 1.21826172 2.7980957 1.21826172 5.67578125 2.9296875 C6.74368896 3.55576904 7.81159668 4.18185059 8.91186523 4.8269043 C10.03407471 5.50277588 11.15628418 6.17864746 12.3125 6.875 C13.47599001 7.56466224 14.64013883 8.25321422 15.80493164 8.94067383 C18.12458521 10.31167288 20.44007801 11.68933836 22.75292969 13.07177734 C25.61425871 14.77093348 28.49019821 16.436919 31.3828125 18.08203125 C32.16358154 18.52885254 32.94435059 18.97567383 33.7487793 19.43603516 C35.16664421 20.24674074 36.58722732 21.0527182 38.01098633 21.85302734 C41.50158415 23.87610521 44.07607151 25.43190335 46 29 C46.4119473 32.12283106 46.34854677 35.21439994 46.29296875 38.359375 C46.28872391 39.26375305 46.28447906 40.1681311 46.28010559 41.09991455 C46.26333574 43.98358139 46.22568669 46.866545 46.1875 49.75 C46.17245097 51.70702114 46.15876295 53.66405326 46.14648438 55.62109375 C46.11343774 60.41433275 46.06166705 65.20704721 46 70 C46.85899902 70.26208252 47.71799805 70.52416504 48.60302734 70.79418945 C52.07142367 72.02535299 55.11789213 73.53984117 58.3515625 75.29296875 C59.54403915 75.9294707 60.73675457 76.5655255 61.9296875 77.20117188 C63.78669113 78.19698144 65.64144623 79.1964521 67.4921875 80.20385742 C69.29389148 81.18191851 71.10312762 82.14463423 72.9140625 83.10546875 C73.9860791 83.68449951 75.0580957 84.26353027 76.16259766 84.86010742 C78.81236205 86.1658439 78.81236205 86.1658439 81.06787109 85.84936523 C83.46830932 84.79413089 85.72206351 83.60594177 88 82.3046875 C88.96421875 81.75643311 89.9284375 81.20817871 90.921875 80.64331055 C91.93765625 80.05976807 92.9534375 79.47622559 94 78.875 C95.03640625 78.2869458 96.0728125 77.6988916 97.140625 77.09301758 C101.44216301 74.64604499 105.73439943 72.19529307 109.9375 69.58203125 C111.4534375 68.64423828 111.4534375 68.64423828 113 67.6875 C113.825 67.15511719 114.65 66.62273437 115.5 66.07421875 C118.99000355 64.57460785 121.21410447 64.53513458 125 65 C128.19162815 66.27792581 131.09984314 67.95168581 134.0625 69.6875 C134.917229 70.17500732 135.77195801 70.66251465 136.65258789 71.16479492 C138.48246731 72.21306506 140.30812361 73.26873535 142.12988281 74.33105469 C145.08211626 76.04774981 148.05134654 77.73201812 151.0234375 79.4140625 C152.99570685 80.54528088 154.96708334 81.67805759 156.9375 82.8125 C157.8663501 83.3386792 158.7952002 83.8648584 159.75219727 84.40698242 C160.62674561 84.91849854 161.50129395 85.43001465 162.40234375 85.95703125 C163.55464478 86.62182495 163.55464478 86.62182495 164.73022461 87.30004883 C168.71123968 90.28163514 171.56768329 92.55029335 172.4495697 97.54747009 C172.6290835 100.71110941 172.64043733 103.83549118 172.59375 107.00390625 C172.59379028 108.15994858 172.59383057 109.31599091 172.59387207 110.50706482 C172.58852153 112.94543916 172.57095909 115.38381334 172.54199219 117.82202148 C172.50010544 121.55310768 172.50092867 125.28238996 172.5078125 129.01367188 C172.49732079 131.3854292 172.4843828 133.75717724 172.46875 136.12890625 C172.46854858 137.2435878 172.46834717 138.35826935 172.46813965 139.50672913 C172.44427185 141.0687632 172.44427185 141.0687632 172.41992188 142.66235352 C172.41150269 143.57469254 172.4030835 144.48703156 172.39440918 145.42701721 C171.8225832 149.157403 170.28279589 151.96427225 167.33691406 154.34277344 C166.43537598 154.84599121 166.43537598 154.84599121 165.515625 155.359375 C164.82597656 155.75382813 164.13632812 156.14828125 163.42578125 156.5546875 C162.70777344 156.94914063 161.98976563 157.34359375 161.25 157.75 C153.07412779 162.36363998 145.06102452 167.16338529 137 172 C137.33 184.54 137.66 197.08 138 210 C136.35 209.34 134.7 208.68 133 208 C128.132635 207.48859875 125.42408605 208.48996685 121.25390625 210.96484375 C120.1757666 211.59608154 119.09762695 212.22731934 117.98681641 212.87768555 C116.85679199 213.55742432 115.72676758 214.23716309 114.5625 214.9375 C113.39303067 215.62970272 112.22294273 216.32086133 111.05224609 217.01098633 C108.74632904 218.37318503 106.44615417 219.74383687 104.14794922 221.11914062 C101.47412634 222.71671558 98.79085433 224.2948044 96.09765625 225.859375 C88.27158976 230.02001515 88.27158976 230.02001515 82 236 C81.49258749 239.48049521 81.65889181 242.91815938 81.77734375 246.42578125 C81.79696341 248.52276835 81.81447554 250.61977604 81.83007812 252.71679688 C81.87549819 256.01625759 81.93750901 259.31279759 82.03735352 262.61108398 C82.54380247 281.04886179 82.54380247 281.04886179 78.59423828 286.04052734 C74.70831323 288.58272728 71.66737063 290 67 290 C66.18994507 288.32659546 66.18994507 288.32659546 65.36352539 286.61938477 C63.36594118 282.49418341 61.36564071 278.37030423 59.36450195 274.24682617 C58.49754457 272.45942762 57.63133168 270.67166776 56.76586914 268.88354492 C55.52423924 266.31855218 54.27996802 263.754856 53.03515625 261.19140625 C52.45230614 259.98515343 52.45230614 259.98515343 51.85768127 258.75453186 C50.29093404 255.1363801 50.29093404 255.1363801 48 252 C48.06749248 249.72673059 48.20766213 247.45560649 48.375 245.1875 C48.47920198 243.71233344 48.58200454 242.23706754 48.68359375 240.76171875 C48.76456299 239.59068604 48.76456299 239.59068604 48.84716797 238.39599609 C49.04817473 235.24474947 49.18893817 232.09219947 49.32885742 228.93774414 C49.87888433 216.59612911 50.9056453 204.30392392 52 192 C53.09828125 191.55398438 54.1965625 191.10796875 55.328125 190.6484375 C60.74262753 188.44959023 64.67900646 184.33828513 67 179 C68.09468711 171.46035269 68.2372851 163.7942334 68.3125 156.1875 C68.34150391 155.19041016 68.37050781 154.19332031 68.40039062 153.16601562 C68.45303745 147.07923267 68.04877739 143.63458951 64 139 C58.08309874 133.53824499 52.6581969 132.6691428 44.9140625 132.21875 C43.58566093 132.13111137 43.58566093 132.13111137 42.23042297 132.04170227 C39.36237292 131.85373487 36.49375582 131.67683682 33.625 131.5 C29.70158276 131.24712089 25.77852321 130.98890722 21.85546875 130.73046875 C20.89945267 130.66824631 19.94343658 130.60602386 18.95845032 130.54191589 C11.93924448 130.07960268 4.93939366 129.48836812 -2.0625 128.8125 C-20.20167853 126.12822565 -20.20167853 126.12822565 -36.59375 131.6015625 C-37.0578125 132.06304687 -37.521875 132.52453125 -38 133 C-38.78375 133.680625 -39.5675 134.36125 -40.375 135.0625 C-44.81438552 143.08754305 -44.41240135 153.78208784 -44.5 162.75 C-44.54125 163.82121094 -44.5825 164.89242187 -44.625 165.99609375 C-44.68836364 172.43542351 -43.92809479 176.38086073 -39.78320312 181.38769531 C-37.99524578 183.16019147 -37.99524578 183.16019147 -35.31811523 184.27026367 C-33 186 -33 186 -32.47875977 189.17993164 C-32.52830811 190.47278076 -32.57785645 191.76562988 -32.62890625 193.09765625 C-32.64981827 193.80269791 -32.67073029 194.50773956 -32.692276 195.23414612 C-32.76750513 197.49147093 -32.88074098 199.74460682 -33 202 C-33.06417266 203.45033457 -33.12781873 204.90069255 -33.19091797 206.35107422 C-33.36101366 209.98266596 -33.57144504 213.61063998 -33.79956055 217.23901367 C-33.93894158 219.46047598 -34.07058074 221.68230209 -34.20117188 223.90429688 C-34.36849025 226.72945616 -34.5560887 229.55206902 -34.76074219 232.37475586 C-34.89776122 234.4508738 -35.0025811 236.53096235 -35.01269531 238.61157227 C-35.22295641 246.02661336 -39.67252809 251.22893168 -43.875 257.0625 C-44.65147078 258.16550711 -45.42628138 259.2696847 -46.19946289 260.375 C-47.73677735 262.56864366 -49.28327974 264.7547061 -50.83544922 266.93798828 C-52.75694698 269.65617291 -54.64195508 272.39318579 -56.50390625 275.15234375 C-57.00744629 275.89798584 -57.51098633 276.64362793 -58.02978516 277.41186523 C-58.94615258 278.77115947 -59.86125826 280.13130543 -60.77490234 281.49243164 C-63.77550071 285.88775035 -63.77550071 285.88775035 -66 287 C-66.0093457 285.87505127 -66.01869141 284.75010254 -66.02832031 283.59106445 C-66.06827255 279.40674631 -66.13404552 275.22315937 -66.20751953 271.03930664 C-66.23569889 269.23048311 -66.25692855 267.42153714 -66.27099609 265.61254883 C-66.29246814 263.00799006 -66.33913811 260.40489866 -66.390625 257.80078125 C-66.39185364 256.99538406 -66.39308228 256.18998688 -66.39434814 255.36018372 C-66.49215507 251.58844795 -66.72417014 249.46166506 -68.69335938 246.16577148 C-71.17152302 243.83895208 -73.55493474 242.21627387 -76.515625 240.546875 C-77.59481201 239.93134766 -78.67399902 239.31582031 -79.78588867 238.68164062 C-80.92904541 238.04419922 -82.07220215 237.40675781 -83.25 236.75 C-84.42917505 236.08596564 -85.60796573 235.42124828 -86.78637695 234.75585938 C-89.11726722 233.44063635 -91.45066072 232.13025093 -93.78564453 230.82226562 C-96.56002088 229.24943067 -99.30013957 227.637089 -102.02734375 225.984375 C-103.10290527 225.34290527 -103.10290527 225.34290527 -104.20019531 224.68847656 C-105.48008319 223.92305958 -106.75234591 223.14466935 -108.01464844 222.35058594 C-112.36333905 219.7987931 -115.16405118 219.77692203 -120 221 C-122.40290612 221.9050664 -122.40290612 221.9050664 -124.4375 223.0625 C-125.11683594 223.42472656 -125.79617187 223.78695312 -126.49609375 224.16015625 C-126.99238281 224.43730469 -127.48867187 224.71445312 -128 225 C-128.92289221 221.39557869 -129.01853801 218.13658467 -128.83129883 214.42945862 C-127.52748705 197.52320623 -127.52748705 197.52320623 -133.08984375 182.24951172 C-138.44349148 177.92734687 -144.61065241 175.51278255 -151.02587891 173.16796875 C-155.45686086 171.42787536 -159.32991044 169.01741946 -163.3125 166.4375 C-164.29694092 165.84473267 -164.29694092 165.84473267 -165.30126953 165.23999023 C-168.66294177 163.16419612 -170.58264748 161.68810252 -172 158 C-172.27415466 155.62319946 -172.27415466 155.62319946 -172.30639648 152.95947266 C-172.32238388 151.95808258 -172.33837128 150.9566925 -172.35484314 149.92495728 C-172.36020584 148.848862 -172.36556854 147.77276672 -172.37109375 146.6640625 C-172.38012222 145.55195404 -172.3891507 144.43984558 -172.39845276 143.29403687 C-172.41295584 140.94214572 -172.42184213 138.59021421 -172.42553711 136.23828125 C-172.43743332 132.64514013 -172.48662133 129.05371624 -172.53710938 125.4609375 C-172.54657374 123.17448754 -172.55380871 120.88802704 -172.55859375 118.6015625 C-172.58789223 116.99349228 -172.58789223 116.99349228 -172.61778259 115.35293579 C-172.56753441 107.02172867 -172.56753441 107.02172867 -169.81811523 103.49682617 C-167.08595856 101.07615855 -164.53547384 99.2251573 -161.3515625 97.44921875 C-160.27036133 96.83699463 -159.18916016 96.22477051 -158.07519531 95.59399414 C-156.93663086 94.96485107 -155.79806641 94.33570801 -154.625 93.6875 C-152.86029786 92.69822788 -151.09764483 91.70537793 -149.33520508 90.71208191 C-147.60969988 89.73994998 -145.88249758 88.77083233 -144.15527344 87.80175781 C-141.45439201 86.25947176 -138.79986149 84.67352772 -136.1640625 83.0234375 C-135.48649902 82.59973877 -134.80893555 82.17604004 -134.11083984 81.73950195 C-132.38619186 80.64864287 -130.6693065 79.54553724 -128.953125 78.44140625 C-125.52457012 76.76794494 -123.78078546 76.66013473 -120 77 C-116.91967773 78.3293457 -116.91967773 78.3293457 -113.68359375 80.17578125 C-113.10464859 80.5016069 -112.52570343 80.82743256 -111.92921448 81.16313171 C-110.09162354 82.20108982 -108.26472015 83.25641356 -106.4375 84.3125 C-105.20703675 85.01092358 -103.97592197 85.70820061 -102.74414062 86.40429688 C-94.05576129 91.32914574 -94.05576129 91.32914574 -90.28857422 93.72290039 C-88.02917107 95.22625033 -88.02917107 95.22625033 -85.19921875 95.0078125 C-80.88058709 93.64736443 -77.53507037 91.41096707 -73.8125 88.875 C-72.30741507 87.87611612 -70.80220654 86.87741844 -69.296875 85.87890625 C-68.20149414 85.14438232 -68.20149414 85.14438232 -67.08398438 84.39501953 C-64.26126085 82.50548788 -61.41810287 80.65202195 -58.5625 78.8125 C-57.71816406 78.26207031 -56.87382812 77.71164063 -56.00390625 77.14453125 C-54 76 -54 76 -52 76 C-52.01332367 75.13342522 -52.01332367 75.13342522 -52.0269165 74.24934387 C-52.11547932 68.23102726 -52.17577123 62.21289606 -52.21972656 56.1940918 C-52.2398294 53.94857259 -52.26711605 51.70310565 -52.30175781 49.45776367 C-52.3503331 46.2282216 -52.37298237 42.99937225 -52.390625 39.76953125 C-52.41127014 38.76727005 -52.43191528 37.76500885 -52.45318604 36.7323761 C-52.45455238 32.47855663 -52.43970223 29.77101422 -50.30444336 26.02685547 C-47.88137513 23.8956644 -45.57666472 22.3361532 -42.73828125 20.80078125 C-41.70936768 20.23568848 -40.6804541 19.6705957 -39.62036133 19.08837891 C-38.52876709 18.50233887 -37.43717285 17.91629883 -36.3125 17.3125 C-34.05103762 16.07873775 -31.79062437 14.8430506 -29.53125 13.60546875 C-28.42136719 12.99880371 -27.31148437 12.39213867 -26.16796875 11.76708984 C-23.33439376 10.18652451 -20.55031218 8.55360838 -17.78125 6.86328125 C-17.01643311 6.39688232 -16.25161621 5.9304834 -15.46362305 5.44995117 C-14.07064354 4.59196686 -12.68361343 3.72421572 -11.30395508 2.8449707 C-7.26966808 0.37552348 -4.6930845 -0.43195056 0 0 Z " fill="#082C77" transform="translate(316,90)"/>
<path d="M0 0 C14.76688688 -0.31681045 29.29796839 0.64593659 44 2 C43.57193452 14.44696076 43.01004631 26.8425842 41.66064453 39.22875977 C41.36985597 42.15066264 41.18129994 45.06916188 41 48 C40.93736969 48.70226715 40.87473938 49.4045343 40.81021118 50.12808228 C39.55999331 65.03848512 43.15648326 74.88989779 50.3125 87.8125 C51.18682255 89.4517125 52.05727759 91.0929938 52.92382812 92.73632812 C54.24298414 95.23593727 55.56500284 97.73352108 56.90190125 100.22369385 C60.74656882 107.40542848 64.26751458 114.71895887 67.74981689 122.08171082 C71.1645865 129.28917053 74.67802852 136.44146063 78.25390625 143.5703125 C78.77324234 144.60574692 79.29257843 145.64118134 79.82765198 146.70799255 C81.4043766 149.84778117 82.98308701 152.98656294 84.5625 156.125 C86.6911355 160.35560353 88.81704662 164.5875606 90.94140625 168.8203125 C91.42154678 169.77229523 91.90168732 170.72427795 92.39637756 171.70510864 C92.84121994 172.59149017 93.28606232 173.4778717 93.74438477 174.39111328 C94.13312271 175.16335236 94.52186066 175.93559143 94.92237854 176.73123169 C98.38085725 184.01253333 99.649222 191.49070705 97.27734375 199.4140625 C93.82975509 206.64422818 89.10509576 211.44745212 82 215 C68.21232322 219.59589226 49.28494739 215.26386408 34.97896576 214.32506561 C31.42384333 214.09261763 27.86839802 213.86521053 24.31298828 213.63720703 C19.29273757 213.31477762 14.27263019 212.99024501 9.25266838 212.66334915 C2.28472327 212.20981437 -4.68384298 211.76781706 -11.65335083 211.33888245 C-15.84475878 211.08087026 -20.03589324 210.81858969 -24.22698975 210.55557251 C-26.13073152 210.43695201 -28.03457923 210.32001719 -29.9385376 210.20492554 C-64.13421758 208.13052001 -64.13421758 208.13052001 -73.42578125 199.8203125 C-76.18519512 196.62952624 -77.54441962 192.91285047 -79 189 C-79.33 188.34 -79.66 187.68 -80 187 C-80.23828125 184.96875 -80.23828125 184.96875 -80.3125 182.5 C-80.34988281 181.7059375 -80.38726562 180.911875 -80.42578125 180.09375 C-79.24875228 171.54139274 -74.76797443 164.69000428 -69.75 157.875 C-68.49614558 156.1294347 -67.24495673 154.38195239 -65.99609375 152.6328125 C-65.34366699 151.72047852 -64.69124023 150.80814453 -64.01904297 149.86816406 C-60.51806842 144.89483286 -57.16904633 139.82143854 -53.8125 134.75 C-48.11065306 126.15426444 -42.33452016 117.61896119 -36.47070312 109.13330078 C-28.2664291 97.23274526 -20.15081178 85.27157515 -12.125 73.25 C-11.52389404 72.35063721 -10.92278809 71.45127441 -10.3034668 70.5246582 C-9.75215088 69.69667725 -9.20083496 68.86869629 -8.6328125 68.015625 C-8.14699707 67.28633789 -7.66118164 66.55705078 -7.16064453 65.80566406 C-4.55162655 61.74670382 -4.47705784 57.70984938 -4.0625 53 C-3.97750244 52.05898438 -3.89250488 51.11796875 -3.80493164 50.1484375 C-2.86877273 39.28246076 -2.27665381 28.39378405 -1.69750977 17.50390625 C-1.63867111 16.42943237 -1.63867111 16.42943237 -1.5786438 15.33325195 C-1.471582 13.37335211 -1.36835265 11.41324399 -1.26538086 9.453125 C-1.01914135 6.24906647 -0.58396713 3.15808456 0 0 Z " fill="#D1DBFC" transform="translate(304,279)"/>
<path d="M0 0 C1.53978682 0.64850633 3.05619597 1.35480232 4.546875 2.109375 C5.3925 2.53476563 6.238125 2.96015625 7.109375 3.3984375 C7.98078125 3.84445313 8.8521875 4.29046875 9.75 4.75 C10.6059375 5.18054688 11.461875 5.61109375 12.34375 6.0546875 C14.90671551 7.35170338 17.46084761 8.65679285 20 10 C20.75520935 10.30954117 21.5104187 10.61908234 22.28851318 10.93800354 C28.53044616 13.77149332 28.53044616 13.77149332 29.78912354 17.06460571 C30.05773605 19.64606231 30.03839253 22.09081634 29.921875 24.68359375 C29.91827972 26.08328148 29.91827972 26.08328148 29.91461182 27.51124573 C29.90210324 30.48889382 29.8304142 33.46097096 29.75 36.4375 C29.6907539 39.40967932 29.64481759 42.38030885 29.62823486 45.3530426 C29.61592948 47.19987481 29.57831539 49.04676209 29.51190186 50.8924408 C29.46440514 55.15577948 29.57205357 58.05881778 32.29394531 61.46655273 C34.42261146 63.45944056 36.13362635 65.01437974 38.6875 66.3515625 C39.72112671 66.90626221 39.72112671 66.90626221 40.77563477 67.47216797 C41.87669556 68.04281982 41.87669556 68.04281982 43 68.625 C43.76948975 69.04539551 44.53897949 69.46579102 45.33178711 69.89892578 C49.78075063 72.32837875 54.27560953 74.63794351 58.81640625 76.890625 C60.7320458 77.88488707 62.64741573 78.8796688 64.5625 79.875 C65.48482422 80.3076416 66.40714844 80.7402832 67.35742188 81.18603516 C71.04691753 83.14024081 73.5211988 84.46433808 74.80200195 88.57226562 C75.10795981 91.75233324 75.1006698 94.8071951 75 98 C75.03066795 100.28648438 75.06324832 102.57294384 75.09765625 104.859375 C75.09113098 107.15627063 75.07938855 109.45315719 75.0625 111.75 C75.05798828 112.9359375 75.05347656 114.121875 75.04882812 115.34375 C75.03719316 118.22922228 75.0208484 121.11458213 75 124 C74.0255896 124.54358154 74.0255896 124.54358154 73.03149414 125.09814453 C70.03969594 126.769977 67.05109481 128.44744831 64.0625 130.125 C62.53012695 130.97964844 62.53012695 130.97964844 60.96679688 131.8515625 C49.58587698 137.73654831 49.58587698 137.73654831 40 146 C39.60324382 148.14728815 39.60324382 148.14728815 39.7421875 150.54394531 C39.76575317 151.92117767 39.76575317 151.92117767 39.78979492 153.32623291 C39.8179126 154.3168573 39.84603027 155.30748169 39.875 156.328125 C39.89171621 158.42836773 39.905961 160.52863132 39.91796875 162.62890625 C39.95085359 165.93947674 39.99990718 169.24667481 40.09228516 172.55615234 C40.56412006 191.02393585 40.56412006 191.02393585 36.58984375 196.04492188 C32.70453714 198.58649596 29.66618264 200 25 200 C24.18994507 198.32659546 24.18994507 198.32659546 23.36352539 196.61938477 C21.36594118 192.49418341 19.36564071 188.37030423 17.36450195 184.24682617 C16.49754457 182.45942762 15.63133168 180.67166776 14.76586914 178.88354492 C13.52423924 176.31855218 12.27996802 173.754856 11.03515625 171.19140625 C10.64658951 170.3872377 10.25802277 169.58306915 9.85768127 168.75453186 C8.29093404 165.1363801 8.29093404 165.1363801 6 162 C6.06749248 159.72673059 6.20766213 157.45560649 6.375 155.1875 C6.47920198 153.71233344 6.58200454 152.23706754 6.68359375 150.76171875 C6.76456299 149.59068604 6.76456299 149.59068604 6.84716797 148.39599609 C7.04817473 145.24474947 7.18893817 142.09219947 7.32885742 138.93774414 C7.87888433 126.59612911 8.9056453 114.30392392 10 102 C11.09828125 101.55398438 12.1965625 101.10796875 13.328125 100.6484375 C18.74262753 98.44959023 22.67900646 94.33828513 25 89 C26.09468711 81.46035269 26.2372851 73.7942334 26.3125 66.1875 C26.34150391 65.19041016 26.37050781 64.19332031 26.40039062 63.16601562 C26.45303745 57.07923267 26.04877739 53.63458951 22 49 C16.08309874 43.53824499 10.6581969 42.6691428 2.9140625 42.21875 C2.02846146 42.16032425 1.14286041 42.1018985 0.23042297 42.04170227 C-2.63762708 41.85373487 -5.50624418 41.67683682 -8.375 41.5 C-12.29841724 41.24712089 -16.22147679 40.98890722 -20.14453125 40.73046875 C-21.10054733 40.66824631 -22.05656342 40.60602386 -23.04154968 40.54191589 C-30.06075552 40.07960268 -37.06060634 39.48836812 -44.0625 38.8125 C-62.20167853 36.12822565 -62.20167853 36.12822565 -78.59375 41.6015625 C-79.28984375 42.29378906 -79.28984375 42.29378906 -80 43 C-80.78375 43.680625 -81.5675 44.36125 -82.375 45.0625 C-86.81438552 53.08754305 -86.41240135 63.78208784 -86.5 72.75 C-86.54125 73.82121094 -86.5825 74.89242187 -86.625 75.99609375 C-86.68836364 82.43542351 -85.92809479 86.38086073 -81.78320312 91.38769531 C-79.99524578 93.16019147 -79.99524578 93.16019147 -77.31811523 94.27026367 C-75 96 -75 96 -74.47875977 99.17993164 C-74.55308228 101.11920532 -74.55308228 101.11920532 -74.62890625 103.09765625 C-74.66027428 104.15521873 -74.66027428 104.15521873 -74.692276 105.23414612 C-74.76750513 107.49147093 -74.88074098 109.74460682 -75 112 C-75.06417266 113.45033457 -75.12781873 114.90069255 -75.19091797 116.35107422 C-75.36101366 119.98266596 -75.57144504 123.61063998 -75.79956055 127.23901367 C-75.93894158 129.46047598 -76.07058074 131.68230209 -76.20117188 133.90429688 C-76.36849025 136.72945616 -76.5560887 139.55206902 -76.76074219 142.37475586 C-76.89776122 144.4508738 -77.0025811 146.53096235 -77.01269531 148.61157227 C-77.22295641 156.02661336 -81.67252809 161.22893168 -85.875 167.0625 C-86.65147078 168.16550711 -87.42628138 169.2696847 -88.19946289 170.375 C-89.73677735 172.56864366 -91.28327974 174.7547061 -92.83544922 176.93798828 C-94.75694698 179.65617291 -96.64195508 182.39318579 -98.50390625 185.15234375 C-99.00744629 185.89798584 -99.51098633 186.64362793 -100.02978516 187.41186523 C-100.94615258 188.77115947 -101.86125826 190.13130543 -102.77490234 191.49243164 C-105.77550071 195.88775035 -105.77550071 195.88775035 -108 197 C-108.0093457 195.87505127 -108.01869141 194.75010254 -108.02832031 193.59106445 C-108.06827255 189.40674631 -108.13404552 185.22315937 -108.20751953 181.03930664 C-108.23569889 179.23048311 -108.25692855 177.42153714 -108.27099609 175.61254883 C-108.29246814 173.00799006 -108.33913811 170.40489866 -108.390625 167.80078125 C-108.39185364 166.99538406 -108.39308228 166.18998688 -108.39434814 165.36018372 C-108.49187611 161.5992054 -108.72525589 159.46237812 -110.68017578 156.17236328 C-113.22166751 153.79242291 -115.69033873 152.14602555 -118.7265625 150.44140625 C-119.84160156 149.80783203 -120.95664063 149.17425781 -122.10546875 148.52148438 C-123.27843649 147.86811361 -124.45161466 147.21512049 -125.625 146.5625 C-127.9092861 145.2729002 -130.19314631 143.98254571 -132.4765625 142.69140625 C-133.57516602 142.07281738 -134.67376953 141.45422852 -135.80566406 140.81689453 C-148.27614321 133.72385679 -148.27614321 133.72385679 -150 132 C-150.51839766 127.68388814 -150.731113 123.33793011 -151 119 C-151.07379883 117.84387207 -151.14759766 116.68774414 -151.22363281 115.49658203 C-151.41498836 112.01832692 -151.52757282 108.54454733 -151.625 105.0625 C-151.69589844 103.88365234 -151.76679688 102.70480469 -151.83984375 101.49023438 C-152.01834168 93.18068601 -152.01834168 93.18068601 -149.33227539 90.06640625 C-146.96723011 88.45061194 -144.58771187 87.22617074 -142 86 C-140.2173904 84.98576228 -138.44011532 83.96209811 -136.66796875 82.9296875 C-133.90922864 81.38542496 -131.14507823 79.85159285 -128.37695312 78.32421875 C-127.48298828 77.82277344 -126.58902344 77.32132812 -125.66796875 76.8046875 C-124.86641357 76.36108887 -124.0648584 75.91749023 -123.23901367 75.46044922 C-120.16108679 73.45279917 -117.65631551 71.31263102 -116 68 C-115.97241681 66.61085567 -116.00946381 65.22012966 -116.08032227 63.83251953 C-116.29500143 58.98196614 -116.4077472 54.13683649 -116.48608398 49.28222656 C-116.53661825 47.19433784 -116.61751938 45.1069413 -116.73022461 43.02148438 C-117.60056984 26.16709467 -117.60056984 26.16709467 -113.2828064 20.90872192 C-109.04311556 17.22427443 -104.3199463 14.6374919 -99.29423523 12.18202209 C-95.7054849 10.3330477 -92.47044061 8.02460657 -89.1875 5.6875 C-83.70981565 1.93754405 -83.70981565 1.93754405 -80.69702148 2.20263672 C-77.44692092 3.16351555 -74.85619734 4.59736015 -71.9296875 6.30859375 C-71.36678009 6.63537613 -70.80387268 6.96215851 -70.22390747 7.29884338 C-68.43699473 8.33846817 -66.6560674 9.38789939 -64.875 10.4375 C-63.67093974 11.1393016 -62.46651594 11.84047987 -61.26171875 12.54101562 C-52.7059475 17.52936834 -52.7059475 17.52936834 -49 20 C-42.33326276 20.9236034 -38.17804831 18.37656608 -32.625 15.125 C-31.75738037 14.63483398 -30.88976074 14.14466797 -29.99584961 13.63964844 C-25.64801556 11.16920715 -21.35397547 8.61977709 -17.08984375 6.0078125 C-16.32526855 5.54358887 -15.56069336 5.07936523 -14.77294922 4.60107422 C-13.32941962 3.7187578 -11.89431376 2.8224668 -10.46923828 1.91064453 C-6.42872177 -0.57188896 -4.52771076 -1.30311196 0 0 Z " fill="#FDFDFE" transform="translate(358,180)"/>
<path d="M0 0 C3.19162815 1.27792581 6.09984314 2.95168581 9.0625 4.6875 C9.917229 5.17500732 10.77195801 5.66251465 11.65258789 6.16479492 C13.48246731 7.21306506 15.30812361 8.26873535 17.12988281 9.33105469 C20.08211626 11.04774981 23.05134654 12.73201812 26.0234375 14.4140625 C27.99570685 15.54528088 29.96708334 16.67805759 31.9375 17.8125 C32.8663501 18.3386792 33.7952002 18.8648584 34.75219727 19.40698242 C35.62674561 19.91849854 36.50129395 20.43001465 37.40234375 20.95703125 C38.55464478 21.62182495 38.55464478 21.62182495 39.73022461 22.30004883 C43.71123968 25.28163514 46.56768329 27.55029335 47.4495697 32.54747009 C47.6290835 35.71110941 47.64043733 38.83549118 47.59375 42.00390625 C47.59379028 43.15994858 47.59383057 44.31599091 47.59387207 45.50706482 C47.58852153 47.94543916 47.57095909 50.38381334 47.54199219 52.82202148 C47.50010544 56.55310768 47.50092867 60.28238996 47.5078125 64.01367188 C47.49732079 66.3854292 47.4843828 68.75717724 47.46875 71.12890625 C47.46854858 72.2435878 47.46834717 73.35826935 47.46813965 74.50672913 C47.45222778 75.54808517 47.43631592 76.58944122 47.41992188 77.66235352 C47.41150269 78.57469254 47.4030835 79.48703156 47.39440918 80.42701721 C46.8225832 84.157403 45.28279589 86.96427225 42.33691406 89.34277344 C41.73588867 89.67825195 41.13486328 90.01373047 40.515625 90.359375 C39.82597656 90.75382812 39.13632812 91.14828125 38.42578125 91.5546875 C37.70777344 91.94914062 36.98976563 92.34359375 36.25 92.75 C28.07412779 97.36363998 20.06102452 102.16338529 12 107 C12.33 119.54 12.66 132.08 13 145 C11.35 144.34 9.7 143.68 8 143 C1.22913337 141.8977659 -1.03625143 144.51812572 -8 148 C-8.33 135.79 -8.66 123.58 -9 111 C-10.98 110.34 -12.96 109.68 -15 109 C-16.85552346 108.03534055 -18.68383065 107.01688023 -20.484375 105.953125 C-21.50273437 105.355 -22.52109375 104.756875 -23.5703125 104.140625 C-24.61960937 103.51671875 -25.66890625 102.8928125 -26.75 102.25 C-27.78382813 101.6415625 -28.81765625 101.033125 -29.8828125 100.40625 C-31.9391319 99.19421287 -33.99192435 97.9761706 -36.04101562 96.75195312 C-37.95397258 95.61933108 -39.8792061 94.50708404 -41.81835938 93.41992188 C-42.68783203 92.92556641 -43.55730469 92.43121094 -44.453125 91.921875 C-45.21270508 91.5000293 -45.97228516 91.07818359 -46.75488281 90.64355469 C-50.4785711 87.91760106 -53.52307679 85.43823303 -54.4291687 80.8059082 C-54.57786887 78.19151208 -54.56254365 75.62535577 -54.48828125 73.0078125 C-54.48120651 72.06187225 -54.47413177 71.11593201 -54.46684265 70.1413269 C-54.4389669 67.13506288 -54.37624116 64.13069619 -54.3125 61.125 C-54.28740832 59.08075616 -54.26459667 57.03648298 -54.24414062 54.9921875 C-54.18916248 49.99406627 -54.10293701 44.99735425 -54 40 C-54.8770459 39.72599365 -55.7540918 39.4519873 -56.65771484 39.16967773 C-59.77460187 38.07888111 -62.55310627 36.81078789 -65.4765625 35.28515625 C-66.476875 34.76373047 -67.4771875 34.24230469 -68.5078125 33.70507812 C-69.53648437 33.16302734 -70.56515625 32.62097656 -71.625 32.0625 C-72.66140625 31.52431641 -73.6978125 30.98613281 -74.765625 30.43164062 C-79.07352889 28.17472199 -83.17295602 26.02179107 -87 23 C-86.030625 22.38125 -85.06125 21.7625 -84.0625 21.125 C-80.97164638 19.34321154 -80.97164638 19.34321154 -80 17 C-79.77141886 14.9625237 -79.58975722 12.91959697 -79.4375 10.875 C-79.35371094 9.77929688 -79.26992188 8.68359375 -79.18359375 7.5546875 C-79.12300781 6.71164063 -79.06242187 5.86859375 -79 5 C-74.58427851 6.34724648 -70.70401505 8.09424593 -66.6484375 10.29296875 C-65.45596085 10.9294707 -64.26324543 11.5655255 -63.0703125 12.20117188 C-61.21330887 13.19698144 -59.35855377 14.1964521 -57.5078125 15.20385742 C-55.70610852 16.18191851 -53.89687238 17.14463423 -52.0859375 18.10546875 C-51.0139209 18.68449951 -49.9419043 19.26353027 -48.83740234 19.86010742 C-46.18763795 21.1658439 -46.18763795 21.1658439 -43.93212891 20.84936523 C-41.53169068 19.79413089 -39.27793649 18.60594177 -37 17.3046875 C-36.03578125 16.75643311 -35.0715625 16.20817871 -34.078125 15.64331055 C-33.06234375 15.05976807 -32.0465625 14.47622559 -31 13.875 C-29.96359375 13.2869458 -28.9271875 12.6988916 -27.859375 12.09301758 C-23.55783699 9.64604499 -19.26560057 7.19529307 -15.0625 4.58203125 C-14.051875 3.95683594 -13.04125 3.33164063 -12 2.6875 C-10.7625 1.88892578 -10.7625 1.88892578 -9.5 1.07421875 C-6.00999645 -0.42539215 -3.78589553 -0.46486542 0 0 Z " fill="#6865F6" transform="translate(441,155)"/>
<path d="M0 0 C0.66008057 0.3717334 1.32016113 0.7434668 2.00024414 1.12646484 C2.76594727 1.5510498 3.53165039 1.97563477 4.32055664 2.41308594 C5.5406543 3.11812256 5.5406543 3.11812256 6.78540039 3.83740234 C7.64133789 4.32160645 8.49727539 4.80581055 9.37915039 5.3046875 C12.21369562 6.92129594 15.03214922 8.56329031 17.84790039 10.21240234 C18.87544434 10.81117188 19.90298828 11.40994141 20.96166992 12.02685547 C24.09991383 13.86486622 27.22610437 15.7216095 30.34790039 17.58740234 C31.33266357 18.1695752 32.31742676 18.75174805 33.33203125 19.3515625 C34.71660522 20.19146729 34.71660522 20.19146729 36.12915039 21.04833984 C36.94448242 21.53866699 37.75981445 22.02899414 38.59985352 22.53417969 C42.073622 25.12743388 44.50882163 27.10269685 45.22821045 31.5786438 C45.41221217 34.59653122 45.4546243 37.58731044 45.44946289 40.61083984 C45.45803314 41.71916168 45.46660339 42.82748352 45.47543335 43.96939087 C45.486906 46.31110912 45.48793065 48.65289865 45.47924805 50.99462891 C45.47293385 54.56846439 45.51983134 58.138977 45.57055664 61.71240234 C45.57510363 63.99104401 45.57650915 66.26969456 45.57446289 68.54833984 C45.59288239 69.61208832 45.61130188 70.67583679 45.63027954 71.77182007 C45.55454602 77.87782786 44.8433112 81.43082327 40.50450134 85.85203552 C37.49375048 88.32440256 34.24337535 90.13137541 30.78540039 91.89990234 C29.19985848 92.74455709 27.61526453 93.59099308 26.03149414 94.43896484 C24.78021729 95.1026709 24.78021729 95.1026709 23.50366211 95.77978516 C18.73319235 98.35315494 14.04511471 101.07083797 9.34790039 103.77490234 C7.56698213 104.79761565 5.78575729 105.81979539 4.00415039 106.84130859 C2.87203125 107.49208374 2.87203125 107.49208374 1.71704102 108.15600586 C-1.86282453 110.17926581 -3.97849698 110.56384404 -8.15209961 110.21240234 C-11.35595703 108.77539062 -11.35595703 108.77539062 -14.75756836 106.78271484 C-15.36345291 106.43232147 -15.96933746 106.0819281 -16.59358215 105.72091675 C-18.51621522 104.60507122 -20.42772473 103.47156132 -22.33959961 102.33740234 C-23.63514425 101.58232932 -24.93136256 100.82841091 -26.22827148 100.07568359 C-35.15606124 94.87642792 -35.15606124 94.87642792 -39.15209961 92.21240234 C-44.26300606 92.43430444 -47.39673937 94.38365018 -51.52709961 97.27490234 C-53.11651367 98.37511719 -53.11651367 98.37511719 -54.73803711 99.49755859 C-55.53467773 100.06345703 -56.33131836 100.62935547 -57.15209961 101.21240234 C-60.41778749 98.48932107 -62.01397274 94.89643933 -63.83959961 91.14990234 C-64.15993164 90.51246094 -64.48026367 89.87501953 -64.81030273 89.21826172 C-67.15209961 84.4797431 -67.15209961 84.4797431 -67.15209961 82.21240234 C-64.81616211 80.48583984 -64.81616211 80.48583984 -61.77709961 78.58740234 C-60.77936523 77.95576172 -59.78163086 77.32412109 -58.75366211 76.67333984 C-56.15209961 75.21240234 -56.15209961 75.21240234 -54.15209961 75.21240234 C-54.17874695 74.3524894 -54.17874695 74.3524894 -54.20593262 73.47520447 C-54.3834093 67.48932945 -54.50377368 61.50420528 -54.59155273 55.51635742 C-54.63169747 53.28427763 -54.68622781 51.0524071 -54.75561523 48.82104492 C-54.85306498 45.60592002 -54.89811566 42.39358212 -54.93334961 39.17724609 C-54.97463989 38.18530746 -55.01593018 37.19336884 -55.05847168 36.17137146 C-55.06104959 32.15913843 -55.03230861 29.35514348 -52.53045654 26.10708618 C-50.49508083 24.27203509 -48.43796317 22.72112537 -46.15209961 21.21240234 C-44.61537598 20.19243164 -44.61537598 20.19243164 -43.04760742 19.15185547 C-41.59112793 18.33104492 -41.59112793 18.33104492 -40.10522461 17.49365234 C-39.01209961 16.87103516 -37.91897461 16.24841797 -36.79272461 15.60693359 C-35.67381836 14.98173828 -34.55491211 14.35654297 -33.40209961 13.71240234 C-31.17799251 12.4522482 -28.95403347 11.19183272 -26.73022461 9.93115234 C-25.64032227 9.32142578 -24.55041992 8.71169922 -23.42749023 8.08349609 C-21.21722699 6.82086509 -19.02835009 5.52014596 -16.86108398 4.18505859 C-15.81758789 3.54439453 -14.7740918 2.90373047 -13.69897461 2.24365234 C-12.77439453 1.66164063 -11.84981445 1.07962891 -10.8972168 0.47998047 C-7.0527167 -1.29524583 -3.98987832 -1.4601642 0 0 Z " fill="#082C76" transform="translate(451.152099609375,297.78759765625)"/>
<path d="M0 0 C2.7980957 1.21826172 2.7980957 1.21826172 5.67578125 2.9296875 C7.27764282 3.86880981 7.27764282 3.86880981 8.91186523 4.8269043 C10.03407471 5.50277588 11.15628418 6.17864746 12.3125 6.875 C13.47599001 7.56466224 14.64013883 8.25321422 15.80493164 8.94067383 C18.12458521 10.31167288 20.44007801 11.68933836 22.75292969 13.07177734 C25.61425871 14.77093348 28.49019821 16.436919 31.3828125 18.08203125 C32.16358154 18.52885254 32.94435059 18.97567383 33.7487793 19.43603516 C35.16664421 20.24674074 36.58722732 21.0527182 38.01098633 21.85302734 C41.48207304 23.86479697 43.91733289 25.56030956 46 29 C46.38768005 31.4594574 46.38768005 31.4594574 46.40405273 34.23999023 C46.41673691 35.28464951 46.42942108 36.32930878 46.44248962 37.40562439 C46.43955399 38.52860428 46.43661835 39.65158417 46.43359375 40.80859375 C46.4388356 41.96746597 46.44407745 43.1263382 46.44947815 44.32032776 C46.4559003 46.77059122 46.45455889 49.2208855 46.44604492 51.67114258 C46.43753972 55.4199924 46.46628867 59.16731653 46.49804688 62.91601562 C46.49965908 65.29687454 46.499081 67.67773616 46.49609375 70.05859375 C46.50732773 71.17954941 46.51856171 72.30050507 46.53013611 73.45542908 C46.46105572 81.17140804 46.46105572 81.17140804 44.3137207 85.03051758 C41.80624704 87.16492615 39.35440186 88.8348471 36.484375 90.453125 C35.40518799 91.06857178 34.32600098 91.68401855 33.21411133 92.31811523 C32.07095459 92.95563721 30.92779785 93.59315918 29.75 94.25 C28.57079929 94.914722 27.39200871 95.58017208 26.21362305 96.24633789 C23.88295216 97.56270351 21.54952615 98.87371026 19.21435547 100.18212891 C16.44511259 101.74826763 13.70302743 103.34790484 10.97265625 104.98046875 C10.25561523 105.40360352 9.53857422 105.82673828 8.79980469 106.26269531 C7.52186454 107.01815575 6.24978625 107.78366971 4.98535156 108.56152344 C0.75389233 111.02044198 -2.16008384 111.79416581 -7 111 C-10.97415812 109.1674566 -14.65352962 106.92045614 -18.375 104.625 C-20.51291243 103.33705963 -22.65093399 102.04930039 -24.7890625 100.76171875 C-25.83868164 100.12282715 -26.88830078 99.48393555 -27.96972656 98.82568359 C-30.69613243 97.18307458 -33.44147749 95.5880989 -36.2109375 94.01953125 C-36.98518066 93.57851074 -37.75942383 93.13749023 -38.55712891 92.68310547 C-39.97511843 91.87765206 -41.39647111 91.07807852 -42.82177734 90.28564453 C-46.86109354 87.95816517 -49.62927381 86.02789291 -52 82 C-52.59997435 78.03280611 -52.56026748 74.0997499 -52.53125 70.09375 C-52.5350769 68.93629272 -52.53890381 67.77883545 -52.54284668 66.58630371 C-52.54556559 64.1419996 -52.53820598 61.69766639 -52.52148438 59.25341797 C-52.50007634 55.51333713 -52.52128875 51.77517739 -52.546875 48.03515625 C-52.54423172 45.65884993 -52.53910675 43.2825448 -52.53125 40.90625 C-52.53934692 39.7884314 -52.54744385 38.67061279 -52.55578613 37.5189209 C-52.46293929 29.82687151 -52.46293929 29.82687151 -50.2956543 25.95581055 C-47.86916456 23.88853316 -45.54300388 22.31794498 -42.73828125 20.80078125 C-41.70936768 20.23568848 -40.6804541 19.6705957 -39.62036133 19.08837891 C-38.52876709 18.50233887 -37.43717285 17.91629883 -36.3125 17.3125 C-34.05103762 16.07873775 -31.79062437 14.8430506 -29.53125 13.60546875 C-28.42136719 12.99880371 -27.31148438 12.39213867 -26.16796875 11.76708984 C-23.33439376 10.18652451 -20.55031218 8.55360838 -17.78125 6.86328125 C-16.63402466 6.16368286 -16.63402466 6.16368286 -15.46362305 5.44995117 C-14.07064354 4.59196686 -12.68361343 3.72421572 -11.30395508 2.8449707 C-7.26966808 0.37552348 -4.6930845 -0.43195056 0 0 Z " fill="#062B75" transform="translate(316,90)"/>
<path d="M0 0 C14.76688688 -0.31681045 29.29796839 0.64593659 44 2 C43.57193452 14.44696076 43.01004631 26.8425842 41.66064453 39.22875977 C41.36986657 42.1505561 41.18248591 45.06935297 41 48 C40.93570801 48.69894379 40.87141602 49.39788757 40.80517578 50.11801147 C39.49022195 65.26007894 43.38014023 75.31670011 50.625 88.4375 C51.54160458 90.16137296 52.45438374 91.88728552 53.36328125 93.61523438 C55.10493958 96.92025023 56.86196734 100.21629263 58.62988281 103.50732422 C67 119.21769242 67 119.21769242 67 123 C66.23300781 123.01417969 65.46601563 123.02835937 64.67578125 123.04296875 C58.07042737 123.32682252 52.18138869 124.11807442 45.82373047 125.86083984 C22.15508618 132.31347537 -0.07164731 129.94760617 -22.18139648 119.81835938 C-27.69195843 117.33384931 -33.03613742 115.96251719 -39 115 C-37.62479743 111.19726593 -35.87259628 108.10527625 -33.578125 104.78125 C-32.88847656 103.77586182 -32.19882812 102.77047363 -31.48828125 101.73461914 C-30.74964844 100.66719482 -30.01101563 99.59977051 -29.25 98.5 C-28.1008178 96.82726515 -26.95356664 95.15321798 -25.80651855 93.47901917 C-25.02682136 92.34101516 -24.24662608 91.20335226 -23.46594238 90.06602478 C-19.59875282 84.42835537 -15.79084158 78.75176304 -12 73.0625 C-11.40735352 72.175625 -10.81470703 71.28875 -10.20410156 70.375 C-9.39150879 69.15490234 -9.39150879 69.15490234 -8.5625 67.91015625 C-8.08941406 67.19996338 -7.61632812 66.48977051 -7.12890625 65.75805664 C-4.5375788 61.7225573 -4.47441486 57.67982216 -4.0625 53 C-3.97750244 52.05898438 -3.89250488 51.11796875 -3.80493164 50.1484375 C-2.86877273 39.28246076 -2.27665381 28.39378405 -1.69750977 17.50390625 C-1.658284 16.78759033 -1.61905823 16.07127441 -1.5786438 15.33325195 C-1.471582 13.37335211 -1.36835265 11.41324399 -1.26538086 9.453125 C-1.01914135 6.24906647 -0.58396713 3.15808456 0 0 Z " fill="#FDFDFE" transform="translate(304,279)"/>
<path d="M0 0 C3.70983178 0.52027118 7.3415469 1.18701042 11 2 C12.08796875 2.2371875 13.1759375 2.474375 14.296875 2.71875 C17.75634804 3.76502965 20.17136977 4.73619926 23 7 C24.70977905 11.20745002 25.18235125 15.42049587 25.70166016 19.89111328 C28.51154498 39.75345788 39.02599889 58.59627392 50 75 C50.14695312 74.39671875 50.29390625 73.7934375 50.4453125 73.171875 C51.63429708 68.93526327 52.50709249 66.47050262 55.75 63.375 C59.8185764 61.65367922 61.78959334 61.69860158 66 63 C68.875 65.5 68.875 65.5 71 68 C71.33 68.33 71.66 68.66 72 69 C72.37950834 72.94688678 72.38245408 75.31158266 70.4375 78.8125 C67.30280083 81.62569156 65.17506077 82.43389006 61 83 C58.4045445 82.28296755 56.403206 81.27517053 54 80 C58.67808492 85.86616998 63.33315875 91.59015954 68.78515625 96.7578125 C70 98 70 98 70 99 C55.79565726 99.38637644 41.66435556 98.35397941 27.5 97.40087891 C24.06080966 97.16955466 20.62107987 96.94781081 17.18108177 96.72886848 C13.83651532 96.51461539 10.49251504 96.29206624 7.1484375 96.0703125 C5.93658783 95.99313995 4.72473816 95.91596741 3.47616577 95.8364563 C-24.35536445 93.93273022 -24.35536445 93.93273022 -33.42578125 85.8203125 C-36.18519512 82.62952624 -37.54441962 78.91285047 -39 75 C-39.33 74.34 -39.66 73.68 -40 73 C-40.23828125 70.96875 -40.23828125 70.96875 -40.3125 68.5 C-40.34988281 67.7059375 -40.38726562 66.911875 -40.42578125 66.09375 C-39.24875814 57.54143526 -34.76803733 50.68994162 -29.75 43.875 C-28.50265233 42.13855196 -27.25797783 40.40018138 -26.015625 38.66015625 C-25.36400391 37.7489502 -24.71238281 36.83774414 -24.04101562 35.89892578 C-20.42938839 30.76920547 -16.96705495 25.54056026 -13.5 20.3125 C-12.84225586 19.32169434 -12.18451172 18.33088867 -11.50683594 17.31005859 C-10.26028837 15.43069247 -9.01448299 13.55083379 -7.76953125 11.67041016 C-5.18805547 7.77468966 -2.59484158 3.88682626 0 0 Z " fill="#92B1F3" transform="translate(264,393)"/>
<path d="M0 0 C7.1981308 3.23693963 14.04879507 6.44596302 18.9453125 12.81640625 C22.69752412 23.22141702 20.4172609 36.11964401 18.9453125 46.81640625 C15.47870863 48.77756816 12.00981965 50.73461925 8.53881836 52.68798828 C7.35980688 53.35224286 6.18141149 54.01759226 5.00366211 54.68408203 C3.30487185 55.64517352 1.60363039 56.60192822 -0.09765625 57.55859375 C-1.62942505 58.42266846 -1.62942505 58.42266846 -3.19213867 59.30419922 C-4.13677979 59.80322754 -5.0814209 60.30225586 -6.0546875 60.81640625 C-6.86615234 61.28175781 -7.67761719 61.74710937 -8.51367188 62.2265625 C-12.27406902 63.09946022 -14.55062478 61.42626835 -17.66796875 59.51171875 C-18.28238327 59.15375214 -18.89679779 58.79578552 -19.52983093 58.42697144 C-21.48611828 57.28194685 -23.42630978 56.11232319 -25.3671875 54.94140625 C-26.69237631 54.15978921 -28.0185389 53.37982064 -29.34570312 52.6015625 C-32.59363199 50.69210758 -35.82735811 48.76045863 -39.0546875 46.81640625 C-41.42013952 17.22035586 -41.42013952 17.22035586 -37.77587891 10.43554688 C-34.47023158 7.13876188 -30.48583185 5.76285168 -26.06884766 4.48779297 C-22.8390363 3.41118918 -20.32239813 1.57465332 -17.4921875 -0.30859375 C-11.21037788 -4.31825947 -6.64670608 -2.66131792 0 0 Z " fill="#FA7C9F" transform="translate(323.0546875,116.18359375)"/>
<path d="M0 0 C1.98535156 0.83862305 1.98535156 0.83862305 3.890625 2.01171875 C4.95603516 2.65463867 4.95603516 2.65463867 6.04296875 3.31054688 C6.77128906 3.76494141 7.49960937 4.21933594 8.25 4.6875 C9.69200206 5.56756455 11.13471317 6.44646831 12.578125 7.32421875 C13.21137695 7.71697998 13.84462891 8.10974121 14.49707031 8.5144043 C18.28229893 10.7610992 22.15215928 12.86231071 26 15 C26 26.55 26 38.1 26 50 C13.5625 56.9375 13.5625 56.9375 9.63500977 59.12475586 C8.62237061 59.69073486 7.60973145 60.25671387 6.56640625 60.83984375 C5.52427979 61.42113037 4.48215332 62.00241699 3.40844727 62.60131836 C1.12440597 63.79013865 1.12440597 63.79013865 0 65 C-10.31639089 64.50805429 -20.9302664 59.56963134 -28.75732422 53.015625 C-36.05456948 43.20334833 -32.45219595 26.40346176 -31 15 C-27.39685435 12.8497787 -23.78559946 10.71410259 -20.16625977 8.59130859 C-18.93706157 7.86767947 -17.71013584 7.14017536 -16.4855957 6.40869141 C-14.72154403 5.35584692 -12.9496977 4.31736526 -11.17578125 3.28125 C-9.58117065 2.33862305 -9.58117065 2.33862305 -7.9543457 1.37695312 C-4.90460126 -0.04446318 -3.30165114 -0.46335964 0 0 Z " fill="#FBCA50" transform="translate(449,320)"/>
<path d="M0 0 C1.93735837 0.97245638 3.83688591 2.02219426 5.703125 3.125 C6.7653125 3.74890625 7.8275 4.3728125 8.921875 5.015625 C10.56929687 5.99789062 10.56929687 5.99789062 12.25 7 C13.36375 7.65484375 14.4775 8.3096875 15.625 8.984375 C23.8234747 13.8234747 23.8234747 13.8234747 25 15 C25.08847743 17.52094076 25.11527301 20.01430893 25.09765625 22.53515625 C25.0962413 23.28840683 25.09482635 24.04165741 25.09336853 24.81773376 C25.08775376 27.2326956 25.07519883 29.64756601 25.0625 32.0625 C25.0574869 33.69596221 25.05292366 35.32942586 25.04882812 36.96289062 C25.03777954 40.97529585 25.02050506 44.98763241 25 49 C21.35416552 51.12144111 17.70625918 53.23926011 14.05639648 55.35375977 C12.81526153 56.07347212 11.57469637 56.79416802 10.3347168 57.51586914 C8.55146078 58.55354275 6.76618003 59.58765249 4.98046875 60.62109375 C3.90692139 61.2442749 2.83337402 61.86745605 1.72729492 62.50952148 C-1 64 -1 64 -4 65 C-6.25015376 63.95239424 -8.29372633 62.86135804 -10.41796875 61.59765625 C-11.03521317 61.24110458 -11.65245758 60.88455292 -12.28840637 60.51719666 C-14.26045683 59.37510545 -16.22390907 58.21906345 -18.1875 57.0625 C-19.52224469 56.28617716 -20.85752512 55.51077463 -22.19335938 54.73632812 C-25.46855393 52.83484591 -28.73610655 50.92081062 -32 49 C-32.22334904 44.26805461 -32.38615853 39.53920256 -32.49438477 34.80322266 C-32.53950884 33.19460603 -32.60083129 31.58635586 -32.67895508 29.97900391 C-33.30794828 16.70025843 -33.30794828 16.70025843 -30.28173828 12.76635742 C-27.92510214 11.17427881 -25.62258546 10.09268152 -23 9 C-21.44153002 8.08323388 -19.89431492 7.14704648 -18.359375 6.19140625 C-16.82515982 5.31118279 -15.28869797 4.43486351 -13.75 3.5625 C-12.97398437 3.10423828 -12.19796875 2.64597656 -11.3984375 2.17382812 C-10.26535156 1.5328418 -10.26535156 1.5328418 -9.109375 0.87890625 C-8.43874023 0.4929126 -7.76810547 0.10691895 -7.07714844 -0.29077148 C-4.28406867 -1.24444999 -2.80854243 -0.87806515 0 0 Z " fill="#D0DBFC" transform="translate(197,191)"/>
<path d="M0 0 C1.93735837 0.97245638 3.83688591 2.02219426 5.703125 3.125 C6.7653125 3.74890625 7.8275 4.3728125 8.921875 5.015625 C10.56929687 5.99789063 10.56929687 5.99789063 12.25 7 C13.36375 7.65484375 14.4775 8.3096875 15.625 8.984375 C23.8234747 13.8234747 23.8234747 13.8234747 25 15 C25.08847743 17.52094076 25.11527301 20.01430893 25.09765625 22.53515625 C25.0962413 23.28840683 25.09482635 24.04165741 25.09336853 24.81773376 C25.08775376 27.2326956 25.07519883 29.64756601 25.0625 32.0625 C25.0574869 33.69596221 25.05292366 35.32942586 25.04882812 36.96289062 C25.03777954 40.97529585 25.02050506 44.98763241 25 49 C21.29306685 51.1066405 17.58420919 53.20986997 13.875 55.3125 C12.82828125 55.90740234 11.7815625 56.50230469 10.703125 57.11523438 C9.68476563 57.69208984 8.66640625 58.26894531 7.6171875 58.86328125 C6.68503418 59.39219971 5.75288086 59.92111816 4.79248047 60.46606445 C3.87096191 60.97226318 2.94944336 61.47846191 2 62 C1.03255859 62.62583984 0.06511719 63.25167969 -0.93164062 63.89648438 C-4 65 -4 65 -7.25146484 63.87182617 C-8.41911588 63.20358481 -9.57187549 62.50885505 -10.7109375 61.79296875 C-11.32393707 61.43358719 -11.93693665 61.07420563 -12.56851196 60.70393372 C-14.51820579 59.5539128 -16.44592699 58.37171913 -18.375 57.1875 C-19.69530256 56.4007887 -21.01690592 55.61625608 -22.33984375 54.83398438 C-25.57551777 52.91425198 -28.79189647 50.96543017 -32 49 C-32.22334904 44.26805461 -32.38615853 39.53920256 -32.49438477 34.80322266 C-32.53950884 33.19460603 -32.60083129 31.58635586 -32.67895508 29.97900391 C-33.30794828 16.70025843 -33.30794828 16.70025843 -30.28173828 12.76635742 C-27.92510214 11.17427881 -25.62258546 10.09268152 -23 9 C-21.44153002 8.08323388 -19.89431492 7.14704648 -18.359375 6.19140625 C-16.82515982 5.31118279 -15.28869797 4.43486351 -13.75 3.5625 C-12.97398437 3.10423828 -12.19796875 2.64597656 -11.3984375 2.17382812 C-10.26535156 1.5328418 -10.26535156 1.5328418 -9.109375 0.87890625 C-8.43874023 0.4929126 -7.76810547 0.10691895 -7.07714844 -0.29077148 C-4.28406867 -1.24444999 -2.80854243 -0.87806515 0 0 Z " fill="#FB8E01" transform="translate(204,333)"/>
<path d="M0 0 C10.45809911 1.48292532 22.27904513 6.77060139 29 15 C32.84638863 25.34900344 32.46762349 37.57362022 29 48 C25.36180063 53.36568972 20.08630063 55.44130595 14.07275391 57.30908203 C11.36097245 58.21300918 9.13171541 59.62538683 6.75 61.1875 C4.39433059 62.64275858 3.50902321 63.07546997 0.74243164 62.6652832 C-8.94830726 60.31441847 -19.75167334 56.02264222 -26 48 C-29.62850488 37.95137552 -27.39829964 25.30618546 -26 15 C-24.8718689 14.37170288 -24.8718689 14.37170288 -23.72094727 13.73071289 C-20.9378088 12.17964254 -18.15551068 10.62707856 -15.3737793 9.07348633 C-14.16838663 8.40068258 -12.96265835 7.72847976 -11.7565918 7.05688477 C-10.02565339 6.09288084 -8.29600957 5.12655352 -6.56640625 4.16015625 C-5.52427979 3.57886963 -4.48215332 2.99758301 -3.40844727 2.39868164 C-1.12440597 1.20986135 -1.12440597 1.20986135 0 0 Z " fill="#67CBD1" transform="translate(436,180)"/>
<path d="M0 0 C9.82662773 -0.25671887 19.41076605 0.21058913 29.18994141 1.14355469 C38.5944762 2.01789571 48.00897615 2.58690785 57.4375 3.125 C58.21140076 3.16929138 58.98530151 3.21358276 59.78265381 3.25921631 C64.18819595 3.51053643 68.59397683 3.75723745 73 4 C73.02722517 6.20826378 73.04649729 8.41662638 73.0625 10.625 C73.07410156 11.85476562 73.08570313 13.08453125 73.09765625 14.3515625 C73.00863924 17.67723791 72.63686087 20.74047588 72 24 C63.87504074 24.10929071 55.86708014 23.81241889 47.76953125 23.16015625 C46.65366135 23.07374374 45.53779144 22.98733124 44.3881073 22.89830017 C42.04934065 22.71634232 39.71074303 22.53219952 37.37231445 22.34594727 C33.81171849 22.06243777 30.25065772 21.78551448 26.68945312 21.50976562 C24.40361596 21.33111094 22.11780761 21.15208714 19.83203125 20.97265625 C18.77869095 20.89032242 17.72535065 20.80798859 16.64009094 20.72315979 C10.74501029 20.25229421 4.87401605 19.68605823 -1 19 C-1.0974162 12.5666952 -0.82390304 6.38524858 0 0 Z " fill="#8FAEF0" transform="translate(292,238)"/>
<path d="M0 0 C0.17085066 4.22900819 0.33588552 8.45822547 0.5 12.6875 C0.54769531 13.86634766 0.59539062 15.04519531 0.64453125 16.25976562 C0.94823021 24.17763149 1.05950627 32.07657442 1 40 C0.24332031 39.66742188 -0.51335937 39.33484375 -1.29296875 38.9921875 C-5.57332935 37.4233396 -9.08566019 38.17045275 -13.2265625 39.96484375 C-15.17834433 40.93383791 -17.09766442 41.93765675 -19 43 C-20.16292693 38.22124984 -20.3383331 33.45458587 -20.5625 28.5625 C-20.6049585 27.68174805 -20.64741699 26.80099609 -20.69116211 25.89355469 C-21.02100396 18.59057731 -21.10893166 11.31052463 -21 4 C-20.39414063 4.13019531 -19.78828125 4.26039063 -19.1640625 4.39453125 C-10.95466424 5.7459245 -6.85026005 0 0 0 Z " fill="#6A66F6" transform="translate(207,272)"/>
<path d="M0 0 C0.144375 1.19625 0.28875 2.3925 0.4375 3.625 C1.40871393 7.68251596 3.03513329 9.12812015 6.5 11.375 C7.2940625 11.83648437 8.088125 12.29796875 8.90625 12.7734375 C11 14 11 14 13 16 C11.31197266 17.01707031 11.31197266 17.01707031 9.58984375 18.0546875 C1.10315885 23.19202516 -7.29156324 28.41370215 -15.49047852 34.00146484 C-19.90515838 37 -19.90515838 37 -21 37 C-21.165 35.80375 -21.33 34.6075 -21.5 33.375 C-22.83657543 27.902789 -26.46913187 25.89804584 -31 23 C-32.34053453 22.00967432 -33.67598602 21.01230665 -35 20 C-34.17822266 19.63261719 -34.17822266 19.63261719 -33.33984375 19.2578125 C-25.60845908 15.61211892 -18.72690683 10.93008634 -11.68115234 6.13769531 C-2.61158798 0 -2.61158798 0 0 0 Z " fill="#6965F6" transform="translate(264,166)"/>
<path d="M0 0 C1.18031644 2.36063289 1.10112157 3.73203518 1.0625 6.359375 C1.05476563 7.22820312 1.04703125 8.09703125 1.0390625 8.9921875 C1.01324211 10.81510731 0.98720426 12.63802406 0.9609375 14.4609375 C0.91971646 19.11891473 1.12096239 23.40719886 2 28 C2.11196073 30.67810075 2.04625299 33.31732686 2 36 C0.48019531 35.47599609 0.48019531 35.47599609 -1.0703125 34.94140625 C-2.42179229 34.48152771 -3.77335947 34.02190591 -5.125 33.5625 C-5.79015625 33.33240234 -6.4553125 33.10230469 -7.140625 32.86523438 C-11.07865153 31.53325481 -14.86205422 30.56074966 -19 30 C-17.54679833 25.90670571 -15.54218596 22.61736016 -13.0859375 19.04296875 C-12.71143463 18.49514236 -12.33693176 17.94731598 -11.95108032 17.38288879 C-10.76354471 15.64796163 -9.5694057 13.91770261 -8.375 12.1875 C-7.56466229 11.00616236 -6.75476183 9.82452466 -5.9453125 8.64257812 C-3.96858818 5.75823014 -1.9859185 2.87802785 0 0 Z " fill="#CFD9FB" transform="translate(284,364)"/>
<path d="M0 0 C2.8100346 1.79363911 4.50940468 3.01880935 6 6 C6.50698467 11.15434412 6.50698467 11.15434412 6 14 C3.5625 16.9375 3.5625 16.9375 1 19 C0.67 19.33 0.34 19.66 0 20 C-4.96460138 20.38189241 -8.05857534 20.15313973 -12 17 C-14.56570589 13.57905881 -14.43708054 10.15226516 -14 6 C-10.26747896 0.27680107 -6.74763808 -0.96948823 0 0 Z " fill="#6A66F7" transform="translate(366,434)"/>
<path d="M0 0 C2.875 2.5 2.875 2.5 5 5 C5.33 5.33 5.66 5.66 6 6 C6.37950834 9.94688678 6.38245408 12.31158266 4.4375 15.8125 C1.30280083 18.62569156 -0.82493923 19.43389006 -5 20 C-9.42105254 18.62295085 -11.41294637 17.88058044 -14 14 C-14.54531842 10.93473649 -14.54325893 8.06591671 -14 5 C-9.58491896 -0.57694447 -6.89565639 -1.63625745 0 0 Z " fill="#6B67F7" transform="translate(330,456)"/>
<path d="M0 0 C3.59827589 0.80830835 5.09391516 2.51976867 7.15625 5.484375 C8.21218376 8.86336305 8.35679272 10.76576358 7.40625 14.171875 C5.31117958 18.04775528 5.31117958 18.04775528 3.15625 19.484375 C-1.15051344 20.45686997 -3.55936199 20.9981302 -7.65625 19.359375 C-10.21336619 17.16756113 -11.56290469 15.61533021 -12.84375 12.484375 C-12.84375 8.23664164 -12.23816358 6.06366994 -9.84375 2.546875 C-6.30390849 0.11323396 -4.21859545 -0.25311573 0 0 Z " fill="#6965F6" transform="translate(276.84375,425.515625)"/>
<path d="M0 0 C0.2475 1.0725 0.495 2.145 0.75 3.25 C2.93021203 9.79063609 7.20970023 11.88214628 13 15 C9.53726925 17.86134241 5.99313724 20.36574534 2.1875 22.75 C1.21167969 23.36359375 0.23585938 23.9771875 -0.76953125 24.609375 C-1.50558594 25.06828125 -2.24164063 25.5271875 -3 26 C-6.26568788 23.27691872 -7.86187313 19.68403698 -9.6875 15.9375 C-10.00783203 15.30005859 -10.32816406 14.66261719 -10.65820312 14.00585938 C-13 9.26734075 -13 9.26734075 -13 7 C-10.6640625 5.2734375 -10.6640625 5.2734375 -7.625 3.375 C-6.62726563 2.74335938 -5.62953125 2.11171875 -4.6015625 1.4609375 C-2 0 -2 0 0 0 Z " fill="#6865F5" transform="translate(397,373)"/>
<path d="M0 0 C6.27 0 12.54 0 19 0 C19 0.33 19 0.66 19 1 C17.80246094 0.97808594 16.60492188 0.95617187 15.37109375 0.93359375 C12.50500621 1.29177573 11.33171768 1.64952591 9.32470703 3.77001953 C7.77452391 6.14730862 6.39732887 8.55803445 5.0625 11.0625 C4.11810216 12.74213374 3.17160958 14.42059204 2.22265625 16.09765625 C1.81797119 16.84539307 1.41328613 17.59312988 0.99633789 18.36352539 C0.66754639 18.90356201 0.33875488 19.44359863 0 20 C-0.33 20 -0.66 20 -1 20 C-1.02722517 17.79173622 -1.04649729 15.58337362 -1.0625 13.375 C-1.07410156 12.14523437 -1.08570313 10.91546875 -1.09765625 9.6484375 C-1 6 -1 6 0 0 Z " fill="#C7D2F5" transform="translate(304,279)"/>
</svg>
