<?xml version="1.0" encoding="UTF-8"?>
<svg version="1.1" xmlns="http://www.w3.org/2000/svg" width="640" height="640">
<path d="M0 0 C211.2 0 422.4 0 640 0 C640 211.2 640 422.4 640 640 C428.8 640 217.6 640 0 640 C0 428.8 0 217.6 0 0 Z " fill="#FEFEFE" transform="translate(0,0)"/>
<path d="M0 0 C1.56137695 0.91954468 1.56137695 0.91954468 3.15429688 1.85766602 C4.01178528 2.35420685 4.01178528 2.35420685 4.88659668 2.86077881 C6.7243988 3.92982669 8.5486633 5.01981068 10.37304688 6.11157227 C11.63278644 6.85206456 12.89320623 7.59140085 14.15429688 8.32958984 C16.62289134 9.77786153 19.0860817 11.23469536 21.54492188 12.69946289 C24.31873659 14.34519451 27.1039268 15.96482141 29.90429688 17.56469727 C31.2275914 18.329669 32.55055144 19.09521988 33.87304688 19.86157227 C34.96617187 20.49450195 36.05929687 21.12743164 37.18554688 21.77954102 C40.62023983 24.20079986 43.43646069 26.376004 44.25891113 30.70515442 C44.43159569 33.18719857 44.47891229 35.64305148 44.48242188 38.13110352 C44.49895813 39.03406662 44.51549438 39.93702972 44.53253174 40.86735535 C44.58096744 43.74049715 44.60237275 46.61310983 44.62304688 49.48657227 C44.65121027 51.43907278 44.68113822 53.39154869 44.71289062 55.34399414 C44.78672524 60.12064328 44.83632695 64.89699946 44.87304688 69.67407227 C46.01104736 70.27590332 47.14904785 70.87773437 48.3215332 71.49780273 C49.84522106 72.30394333 51.36890235 73.11009633 52.89257812 73.91625977 C53.6389856 74.31095459 54.38539307 74.70564941 55.15441895 75.11230469 C61.05710795 78.23584432 66.94343157 81.38865084 72.82226562 84.55688477 C76.52135987 85.91148266 78.12000288 85.83505179 81.87304688 84.67407227 C84.5823691 83.35728181 87.12472886 81.81973149 89.68554688 80.23657227 C90.41894287 79.79716309 91.15233887 79.35775391 91.90795898 78.9050293 C95.79306918 76.57470769 99.64386495 74.1934055 103.48242188 71.78735352 C104.22903076 71.3283667 104.97563965 70.86937988 105.74487305 70.39648438 C107.16867336 69.52075118 108.58358279 68.63033543 109.98754883 67.72314453 C113.71547081 65.44270081 117.07417076 63.81180111 121.58911133 64.09106445 C127.00967043 65.47474111 131.70553234 68.72317578 136.43554688 71.61157227 C137.59566177 72.30489971 138.756638 72.99678787 139.91845703 73.68725586 C142.20368779 75.04858295 144.48168604 76.42010008 146.75732422 77.79760742 C149.411173 79.39590563 152.07903093 80.95944019 154.76757812 82.49829102 C156.09446866 83.2651011 157.42129839 84.03201642 158.74804688 84.79907227 C159.85921875 85.44102539 160.97039062 86.08297852 162.11523438 86.74438477 C165.29492181 88.96926521 166.8691831 90.31442961 168.87304688 93.67407227 C169.48677683 97.63957964 169.45723015 101.57386788 169.43945312 105.58032227 C169.4456517 106.73777954 169.45185028 107.89523682 169.45823669 109.08776855 C169.4653326 111.53205525 169.46216496 113.9763903 169.44946289 116.4206543 C169.43559542 120.16097873 169.4696782 123.89880273 169.5078125 127.63891602 C169.50876368 130.01521871 169.50690495 132.39152454 169.50195312 134.76782227 C169.51521133 135.88564087 169.52846954 137.00345947 169.54212952 138.15515137 C169.44947579 145.87746124 169.44947579 145.87746124 166.68139648 149.70288086 C163.93425451 151.63111039 161.22547077 153.4542097 158.31054688 155.11938477 C156.74433594 156.02237305 156.74433594 156.02237305 155.14648438 156.94360352 C154.06625 157.5559082 152.98601562 158.16821289 151.87304688 158.79907227 C149.72717329 160.03077297 147.58133856 161.26254139 145.43554688 162.49438477 C144.48808594 163.03337402 143.540625 163.57236328 142.56445312 164.12768555 C140.74010444 165.1758917 138.93547572 166.25904537 137.15039062 167.37280273 C134.87304688 168.67407227 134.87304688 168.67407227 132.87304688 168.67407227 C132.93363281 169.70290527 132.99421875 170.73173828 133.05664062 171.79174805 C133.28203256 175.6270957 133.50512421 179.46257435 133.72753906 183.2980957 C133.8239214 184.95470758 133.92091852 186.61128381 134.01855469 188.26782227 C134.1591899 190.6557508 134.29757718 193.04380091 134.43554688 195.43188477 C134.50116821 196.53380661 134.50116821 196.53380661 134.56811523 197.6579895 C134.79748252 201.66932101 134.91725852 205.65633917 134.87304688 209.67407227 C135.85337891 210.02985352 135.85337891 210.02985352 136.85351562 210.39282227 C140.78604537 212.06147654 144.45886813 214.09178603 148.18554688 216.17407227 C148.96937744 216.61187012 149.75320801 217.04966797 150.56079102 217.50073242 C156.03732695 220.58599626 161.45546096 223.7574538 166.81054688 227.04907227 C167.81178589 227.65525391 167.81178589 227.65525391 168.83325195 228.27368164 C172.24091953 230.40175876 174.77896054 232.23585569 176.87304688 235.67407227 C177.26745605 238.08883667 177.26745605 238.08883667 177.29296875 240.80639648 C177.30888062 241.82780731 177.32479248 242.84921814 177.34118652 243.90158081 C177.34148865 245.54853439 177.34148865 245.54853439 177.34179688 247.22875977 C177.3494104 248.36306427 177.35702393 249.49736877 177.36486816 250.66604614 C177.37567148 253.06502075 177.37852135 255.4640424 177.37402344 257.86303711 C177.37305227 261.52871456 177.41465112 265.1922914 177.45898438 268.85766602 C177.46419225 271.1896929 177.46687955 273.52172706 177.46679688 275.85375977 C177.48319214 276.94768036 177.4995874 278.04160095 177.51647949 279.16867065 C177.43955998 287.66386521 177.43955998 287.66386521 174.6796875 291.20239258 C171.98983889 293.5712189 169.52490987 295.34789107 166.37304688 297.04125977 C165.32648926 297.61336182 164.27993164 298.18546387 163.20166016 298.77490234 C162.10321777 299.36037842 161.00477539 299.94585449 159.87304688 300.54907227 C157.61928102 301.77741193 155.3666649 303.00786362 153.11523438 304.24047852 C152.03725586 304.82845215 150.95927734 305.41642578 149.84863281 306.0222168 C145.16629323 308.621553 140.64219647 311.43601892 136.13085938 314.31860352 C131.96508773 316.81950795 128.66746323 317.13773965 123.87304688 316.67407227 C120.47148402 315.27812349 117.35445148 313.4678558 114.18554688 311.61157227 C113.30503662 311.11439697 112.42452637 310.61722168 111.51733398 310.10498047 C107.65661392 307.91469954 103.83587669 305.67429295 100.07617188 303.31469727 C99.03976562 302.67016602 98.00335938 302.02563477 96.93554688 301.36157227 C96.06027344 300.78793945 95.185 300.21430664 94.28320312 299.62329102 C91.91024072 298.39724839 91.91024072 298.39724839 89.56738281 299.39746094 C86.65024016 300.77964098 84.04869887 302.37392179 81.35351562 304.15063477 C80.33193359 304.82094727 79.31035156 305.49125977 78.2578125 306.18188477 C77.20271484 306.88055664 76.14761719 307.57922852 75.06054688 308.29907227 C73.44889648 309.35868164 73.44889648 309.35868164 71.8046875 310.43969727 C69.15815885 312.180525 66.51441632 313.92543047 63.87304688 315.67407227 C64.50512416 318.93000561 65.66684808 321.18638719 67.48999023 323.94506836 C68.31236427 325.19820328 68.31236427 325.19820328 69.15135193 326.47665405 C69.7491597 327.37453644 70.34696747 328.27241882 70.96289062 329.19750977 C71.58144424 330.13527252 72.19999786 331.07303528 72.83729553 332.03921509 C74.1519417 334.02979489 75.46935644 336.01854856 76.78930664 338.00561523 C78.77732151 340.99904359 80.75659899 343.99809069 82.734375 346.99829102 C88.59280209 355.86422101 94.49711659 364.67652143 100.72399902 373.28848267 C111.80099401 388.61616625 117.49288279 401.51775183 115.87304688 420.67407227 C115.28879503 423.97124544 114.36878379 426.68862963 112.87304688 429.67407227 C112.53273438 430.4049707 112.19242187 431.13586914 111.84179688 431.88891602 C105.5792334 444.2659418 95.79413847 451.95243447 82.87304688 456.67407227 C69.82994771 459.31932212 56.13994992 459.44556445 42.88867188 460.18188477 C40.57963675 460.31329977 38.27061603 460.44496797 35.96160889 460.57687378 C31.13752954 460.85109776 26.31323917 461.12116156 21.48876953 461.38842773 C16.59940421 461.65967656 11.71045105 461.93701962 6.82177734 462.22045898 C-39.64605799 464.91334077 -39.64605799 464.91334077 -56.89257812 465.10375977 C-57.93645691 465.126409 -58.98033569 465.14905823 -60.05584717 465.1723938 C-72.1239829 465.14461299 -81.30774736 459.6225525 -90.12695312 451.67407227 C-98.55942679 441.87908041 -102.31370281 432.16291828 -102.62695312 419.42407227 C-102.68109375 418.52688477 -102.73523438 417.62969727 -102.79101562 416.70532227 C-102.9737191 407.3613448 -99.19172624 399.83619196 -95.12695312 391.67407227 C-94.66119873 390.73229126 -94.66119873 390.73229126 -94.18603516 389.77148438 C-92.30907075 386.00016707 -90.37532422 382.26048221 -88.41702271 378.53085327 C-86.57235873 375.01597301 -84.74629507 371.49145107 -82.91992188 367.96704102 C-82.5362999 367.22728531 -82.15267792 366.4875296 -81.75743103 365.72535706 C-76.97641535 356.48362139 -72.33263135 347.17310285 -67.68945312 337.86157227 C-67.27304565 337.02680359 -66.85663818 336.19203491 -66.4276123 335.33197021 C-64.55958288 331.58637399 -62.69289577 327.84011456 -60.82836914 324.09277344 C-59.59703375 321.61861796 -58.36430386 319.14522153 -57.12695312 316.67407227 C-57.99320312 316.41110352 -58.85945313 316.14813477 -59.75195312 315.87719727 C-64.16613909 314.30362171 -68.05973044 312.02994348 -72.12695312 309.72094727 C-76.00241091 308.36857398 -77.36028377 309.16844329 -81.12695312 310.67407227 C-83.15200739 311.73484699 -85.14885802 312.85066761 -87.11914062 314.01000977 C-88.23675781 314.66227539 -89.354375 315.31454102 -90.50585938 315.98657227 C-91.6714398 316.67370626 -92.8368031 317.3612087 -94.00195312 318.04907227 C-98.36408027 320.61330391 -102.73673524 323.15816743 -107.12695312 325.67407227 C-107.90458008 326.12556641 -108.68220703 326.57706055 -109.48339844 327.04223633 C-113.89183791 329.4535996 -117.13067087 330.39978924 -122.12695312 329.67407227 C-124.94144646 328.56553537 -127.47231769 327.10003379 -130.06445312 325.54907227 C-130.81863525 325.11256348 -131.57281738 324.67605469 -132.34985352 324.22631836 C-134.02004749 323.25741482 -135.68645234 322.28195895 -137.34960938 321.30102539 C-140.39524282 319.5169096 -143.46237973 317.77382453 -146.53320312 316.03344727 C-148.71078648 314.78953052 -150.88787482 313.54474679 -153.06445312 312.29907227 C-154.1130249 311.70465332 -155.16159668 311.11023438 -156.24194336 310.49780273 C-157.22364502 309.9294873 -158.20534668 309.36117188 -159.21679688 308.77563477 C-160.09198975 308.27370605 -160.96718262 307.77177734 -161.86889648 307.25463867 C-164.30533201 305.54921283 -165.56134195 304.19496373 -167.12695312 301.67407227 C-167.53482056 299.18338013 -167.53482056 299.18338013 -167.57861328 296.3581543 C-167.60098053 295.29670197 -167.62334778 294.23524963 -167.64639282 293.14163208 C-167.65286835 291.99991547 -167.65934387 290.85819885 -167.66601562 289.68188477 C-167.6783725 288.50318817 -167.69072937 287.32449158 -167.70346069 286.1100769 C-167.72302843 283.61697354 -167.73425928 281.12379289 -167.73779297 278.63061523 C-167.75187737 274.81956941 -167.81921299 271.01180229 -167.88867188 267.20141602 C-167.90107041 264.77825351 -167.91028998 262.35507223 -167.91601562 259.93188477 C-167.94273346 258.79421661 -167.96945129 257.65654846 -167.99697876 256.48440552 C-167.93115086 248.80629419 -167.93115086 248.80629419 -165.73683167 245.7169342 C-163.95154579 244.12977853 -162.17771131 242.89470584 -160.12695312 241.67407227 C-159.08756592 241.00013428 -158.04817871 240.32619629 -156.97729492 239.63183594 C-155.41748901 238.74588745 -155.41748901 238.74588745 -153.82617188 237.84204102 C-152.68470703 237.18913086 -151.54324219 236.5362207 -150.3671875 235.86352539 C-149.18301104 235.19608643 -147.99876552 234.52876999 -146.81445312 233.86157227 C-145.61029007 233.17540204 -144.40651084 232.48855777 -143.203125 231.80102539 C-134.73785874 226.97952507 -134.73785874 226.97952507 -132.12695312 225.67407227 C-132.18775593 224.02692222 -132.24906722 222.37979094 -132.31054688 220.73266602 C-132.36746704 219.15557861 -132.36746704 219.15557861 -132.42553711 217.54663086 C-132.51870474 215.24281962 -132.62910265 212.93964518 -132.75610352 210.63745117 C-133.27984824 200.75534367 -133.27984824 200.75534367 -132.50195312 196.20141602 C-131.9916404 191.94121605 -132.52010965 189.63970826 -134.12695312 185.67407227 C-136.54563577 183.36842827 -136.54563577 183.36842827 -139.62695312 181.64672852 C-140.74207275 180.97206543 -141.85719238 180.29740234 -143.00610352 179.60229492 C-147.55660712 177.0144756 -152.21999986 174.65394846 -156.89990234 172.31030273 C-159.86316009 170.8078248 -162.77773606 169.26392114 -165.66210938 167.61547852 C-166.40984619 167.19081299 -167.15758301 166.76614746 -167.92797852 166.32861328 C-171.84766776 163.37938113 -174.68774607 161.08567057 -175.58390808 156.1650238 C-175.77246939 153.0616183 -175.79364771 149.99784948 -175.75585938 146.88891602 C-175.75827133 145.75506973 -175.76068329 144.62122345 -175.76316833 143.45301819 C-175.76219094 141.06174208 -175.74882329 138.67044305 -175.72387695 136.27929688 C-175.68953592 132.6203936 -175.70323418 128.9639017 -175.72265625 125.30493164 C-175.71575856 122.97874949 -175.70608689 120.65257357 -175.69335938 118.32641602 C-175.69831924 117.23360825 -175.70327911 116.14080048 -175.70838928 115.01487732 C-175.59190641 107.50252838 -175.59190641 107.50252838 -173.4362793 103.66162109 C-170.9337894 101.50782362 -168.48889487 99.84347656 -165.61132812 98.22094727 C-163.99254761 97.2977771 -163.99254761 97.2977771 -162.34106445 96.35595703 C-161.19790771 95.71843506 -160.05475098 95.08091309 -158.87695312 94.42407227 C-157.69775241 93.75935027 -156.51896183 93.09390019 -155.34057617 92.42773438 C-153.00990528 91.11136876 -150.67647928 89.80036201 -148.34130859 88.49194336 C-145.57206572 86.92580463 -142.82998056 85.32616743 -140.09960938 83.69360352 C-139.38256836 83.27046875 -138.66552734 82.84733398 -137.92675781 82.41137695 C-136.64881767 81.65591651 -135.37673937 80.89040255 -134.11230469 80.11254883 C-129.88095163 77.65369199 -126.9675234 76.8955888 -122.12695312 77.67407227 C-118.14277369 79.45433386 -114.43469409 81.62887878 -110.68945312 83.86157227 C-109.69107422 84.4397168 -108.69269531 85.01786133 -107.6640625 85.61352539 C-102.6294885 88.54291263 -97.70124537 91.53167032 -92.95874023 94.91748047 C-90.33852438 95.99972076 -88.80296303 95.501151 -86.12695312 94.67407227 C-84.01294065 93.58161811 -84.01294065 93.58161811 -82.01757812 92.16235352 C-81.2621875 91.65124023 -80.50679688 91.14012695 -79.72851562 90.61352539 C-78.56449219 89.80818359 -78.56449219 89.80818359 -77.37695312 88.98657227 C-75.84049479 87.94099935 -74.30403646 86.89542643 -72.76757812 85.84985352 C-70.38011336 84.21747266 -67.99444656 82.58272304 -65.61328125 80.94116211 C-64.80826172 80.39282715 -64.00324219 79.84449219 -63.17382812 79.27954102 C-62.44518555 78.77962646 -61.71654297 78.27971191 -60.96582031 77.76464844 C-59.12695312 76.67407227 -59.12695312 76.67407227 -57.12695312 76.67407227 C-57.13805618 76.08604828 -57.14915924 75.49802429 -57.16059875 74.8921814 C-57.2713994 68.76022564 -57.346706 62.62855521 -57.40161133 56.49584961 C-57.42672255 54.20862269 -57.46081828 51.92147576 -57.50415039 49.63452148 C-57.56494894 46.34281661 -57.59319752 43.05217457 -57.61523438 39.76000977 C-57.6410408 38.74103607 -57.66684723 37.72206238 -57.69343567 36.67221069 C-57.69656078 28.72368079 -57.69656078 28.72368079 -54.8996582 25.17138672 C-52.41140483 22.93027166 -50.20723178 21.2225835 -47.27539062 19.63110352 C-45.88803711 18.86382935 -45.88803711 18.86382935 -44.47265625 18.08105469 C-43.49232422 17.55487549 -42.51199219 17.02869629 -41.50195312 16.48657227 C-39.43602221 15.35526823 -37.37093105 14.22242944 -35.30664062 13.08813477 C-33.75541504 12.23977051 -33.75541504 12.23977051 -32.17285156 11.37426758 C-29.29021268 9.7652024 -26.4577617 8.09613526 -23.63476562 6.38500977 C-22.78736816 5.87478271 -21.9399707 5.36455566 -21.06689453 4.83886719 C-19.48153728 3.87899159 -17.9026306 2.90835067 -16.33154297 1.92529297 C-15.61434082 1.49563232 -14.89713867 1.06597168 -14.15820312 0.62329102 C-13.2387793 0.0561438 -13.2387793 0.0561438 -12.30078125 -0.52246094 C-7.9218393 -2.14095801 -4.24995997 -1.80211841 0 0 Z " fill="#072B76" transform="translate(319.126953125,90.325927734375)"/>
<path d="M0 0 C4.99076549 0.40933723 8.78185151 1.58249251 13.23046875 3.8359375 C14.36291016 4.40570313 15.49535156 4.97546875 16.66210938 5.5625 C17.82548828 6.160625 18.98886719 6.75875 20.1875 7.375 C21.9499707 8.26058594 21.9499707 8.26058594 23.74804688 9.1640625 C30.06198746 12.36610661 30.06198746 12.36610661 33 14 C33.77061768 14.37535889 34.54123535 14.75071777 35.33520508 15.13745117 C38.10107377 18.23186563 37.52143797 21.96028496 37.46875 25.90234375 C37.47579956 26.77645401 37.48284912 27.65056427 37.4901123 28.55116272 C37.51965456 32.29199245 37.50296146 36.03230501 37.49072266 39.77319336 C37.48834406 42.50406139 37.50925091 45.23408092 37.53125 47.96484375 C37.51993042 48.80973862 37.50861084 49.65463348 37.49694824 50.52513123 C37.51785696 55.25024005 37.51785696 55.25024005 39.67138672 59.34838867 C42.2931836 61.2079458 44.92871096 62.87556309 47.7265625 64.4609375 C48.84160156 65.09773438 49.95664062 65.73453125 51.10546875 66.390625 C52.27849583 67.05234932 53.45167368 67.71380643 54.625 68.375 C56.90931428 69.67367018 59.19317489 70.9731387 61.4765625 72.2734375 C62.57516602 72.89831055 63.67376953 73.52318359 64.80566406 74.16699219 C77.38593974 81.38593974 77.38593974 81.38593974 79 83 C79.50973645 87.43659501 79.67924403 91.8848535 79.86083984 96.34423828 C80.01452406 99.2771803 80.27070433 102.1947618 80.51953125 105.12109375 C81.5794349 120.96738259 81.5794349 120.96738259 77.69921875 125.9609375 C74.88555482 127.67786817 72.14526877 128.98615956 69.06347656 130.14550781 C65.13724851 131.7713713 61.57337707 134.06714035 57.9375 136.25 C57.21183838 136.66362793 56.48617676 137.07725586 55.73852539 137.50341797 C51.39093887 140.00359821 47.31898727 142.36202545 45 147 C44.93739894 148.40896627 44.93698337 149.82096963 44.96923828 151.23095703 C44.98479767 152.10591827 45.00035706 152.98087952 45.01638794 153.88235474 C45.03418304 154.8312558 45.05197815 155.78015686 45.0703125 156.7578125 C45.08121916 158.76561058 45.08892855 160.77342809 45.09375 162.78125 C45.10159204 165.94943379 45.12470588 169.11297097 45.20214844 172.28027344 C45.60379977 189.84839248 45.60379977 189.84839248 41.73706055 195.03588867 C38.91152874 197.10085905 36.18430144 198.56398486 33 200 C31.64801221 200.89907495 30.31264472 201.82421382 29.00390625 202.78515625 C27.85877947 203.54729749 26.7117173 204.30654087 25.5625 205.0625 C24.68561523 205.66481445 24.68561523 205.66481445 23.79101562 206.27929688 C21.4566351 207.80999487 19.65434129 208.97889222 16.8203125 209.0703125 C14.12401138 207.48493373 12.95585709 205.45399154 11.3125 202.8125 C10.71050781 201.87019531 10.10851562 200.92789063 9.48828125 199.95703125 C6.49327643 194.00632614 6.66281458 187.18158025 6.24609375 180.6328125 C6.18092056 179.63925751 6.11574738 178.64570251 6.04859924 177.62203979 C5.91186493 175.52595428 5.77663726 173.42977 5.64282227 171.33349609 C5.43862717 168.14261387 5.22845372 164.95216566 5.01757812 161.76171875 C4.8850576 159.71877326 4.75288473 157.67580518 4.62109375 155.6328125 C4.55860947 154.68673126 4.49612518 153.74065002 4.43174744 152.76589966 C4.0996983 147.50200735 3.78613761 142.27314988 4 137 C5.609375 135.37109375 5.609375 135.37109375 7.75 134.4375 C11.29434611 132.85567146 13.39669063 130.87578813 15.22802734 127.40600586 C16.81691877 122.45391067 16.54702056 117.24830131 16.46655273 112.09399414 C16.43761139 110.07028864 16.44596232 108.04921434 16.45898438 106.02539062 C16.44576215 94.53252745 16.44576215 94.53252745 11.02734375 84.72265625 C10.33769531 84.17480469 9.64804687 83.62695312 8.9375 83.0625 C8.24527344 82.49660156 7.55304688 81.93070312 6.83984375 81.34765625 C2.56704568 78.2178997 -1.46163693 78.82106824 -6.59765625 78.83203125 C-8.11239281 78.83478813 -8.11239281 78.83478813 -9.6577301 78.83760071 C-22.52912734 78.93330443 -35.36832743 79.64597408 -48.2121582 80.43432617 C-51.77119706 80.65152949 -55.33119198 80.84091706 -58.89208889 81.02473736 C-61.67874948 81.1735662 -64.46393361 81.34251357 -67.24910164 81.51688576 C-69.1913402 81.63343317 -71.13481047 81.72885219 -73.07823181 81.82365417 C-81.84772465 82.412778 -87.47807461 84.11685149 -93.4375 90.6875 C-95.65243039 93.96559697 -96.12752198 95.67019832 -96.1328125 99.5859375 C-96.13522949 100.51124268 -96.13764648 101.43654785 -96.14013672 102.38989258 C-96.11992949 106.37495428 -96.09281218 110.35949804 -96.03710938 114.34423828 C-96.00700216 116.4988848 -95.99321536 118.65375503 -95.984375 120.80859375 C-95.72604645 127.90340274 -93.81040808 132.71319884 -89 138 C-86.02710671 140.26506156 -83.57869378 141.15440147 -80 142 C-79.56673088 148.45509459 -79.14026214 154.9106141 -78.71826172 161.36645508 C-78.57427693 163.55731091 -78.42880161 165.74806937 -78.28173828 167.9387207 C-75.98090375 202.25558942 -75.98090375 202.25558942 -81 209 C-86.19228855 208.42770367 -90.3103703 205.9017839 -94.8125 203.4375 C-95.99489258 202.80038086 -95.99489258 202.80038086 -97.20117188 202.15039062 C-99.1373378 201.10603446 -101.07005367 200.0557923 -103 199 C-103.0093457 197.81446533 -103.01869141 196.62893066 -103.02832031 195.4074707 C-103.06825998 190.99953955 -103.13402981 186.59230342 -103.20751953 182.18481445 C-103.2357061 180.27898095 -103.25693216 178.37303105 -103.27099609 176.46704102 C-103.29245783 173.72351594 -103.33912365 170.98138687 -103.390625 168.23828125 C-103.39185364 167.38913651 -103.39308228 166.53999176 -103.39434814 165.66511536 C-103.49223178 161.69165464 -103.68339551 159.51346234 -105.80932617 156.06567383 C-107.7316612 154.25302737 -109.33809387 152.93506987 -111.66015625 151.7109375 C-112.36269531 151.33445068 -113.06523437 150.95796387 -113.7890625 150.57006836 C-114.91441406 149.97850952 -114.91441406 149.97850952 -116.0625 149.375 C-117.23232422 148.7109314 -117.23232422 148.7109314 -118.42578125 148.03344727 C-122.65185375 145.65417854 -126.75862313 143.66769897 -131.33984375 142.06640625 C-136.80368078 139.93982417 -141.60964165 137.97695483 -145 133 C-148.00853327 122.34231063 -147.35423208 110.96285956 -147 100 C-147.02280029 98.72390869 -147.04560059 97.44781738 -147.0690918 96.13305664 C-147 93 -147 93 -145.6640625 91.35546875 C-144.99117187 90.97003906 -144.31828125 90.58460938 -143.625 90.1875 C-142.81417969 89.70667969 -142.00335938 89.22585938 -141.16796875 88.73046875 C-140.12253906 88.15941406 -139.07710937 87.58835937 -138 87 C-135.77237202 85.77156356 -133.5457471 84.541338 -131.31982422 83.30981445 C-129.76794515 82.45658313 -128.2111627 81.61219136 -126.64892578 80.77807617 C-117.57396684 76.23705183 -117.57396684 76.23705183 -111 69 C-110.98740669 67.59023149 -111.04064447 66.17958109 -111.12792969 64.77246094 C-113.07664311 28.41403299 -113.07664311 28.41403299 -108.04101562 19.55273438 C-103.36508631 14.79522659 -97.91526534 12.24133525 -91.67578125 10.0703125 C-88.03785728 8.61514291 -85.14795621 6.45263891 -82.0703125 4.05664062 C-80 3 -80 3 -77.63525391 3.12719727 C-74.41794223 4.192779 -71.66653588 5.64702906 -68.7109375 7.30859375 C-67.83328232 7.79876732 -67.83328232 7.79876732 -66.93789673 8.29884338 C-65.07996036 9.33872898 -63.22756556 10.38808233 -61.375 11.4375 C-60.12273065 12.13926967 -58.87012952 12.84044765 -57.6171875 13.54101562 C-48.61449981 18.59033346 -48.61449981 18.59033346 -45 21 C-39.66496645 21.76214765 -36.71043988 21.09077681 -32.0390625 18.42578125 C-30.59225098 17.61004639 -30.59225098 17.61004639 -29.11621094 16.77783203 C-27.57368652 15.89780518 -27.57368652 15.89780518 -26 15 C-23.83157965 13.7940424 -21.66228973 12.58964719 -19.4921875 11.38671875 C-17.28609894 10.15428894 -15.08037224 8.92121118 -12.875 7.6875 C-11.1734375 6.73907227 -11.1734375 6.73907227 -9.4375 5.77148438 C-7.82488281 4.86946289 -7.82488281 4.86946289 -6.1796875 3.94921875 C-4.72151611 3.13457153 -4.72151611 3.13457153 -3.23388672 2.3034668 C-1.10122574 1.18601741 -1.10122574 1.18601741 0 0 Z " fill="#FDFDFE" transform="translate(353,180)"/>
<path d="M0 0 C0.20697058 2.45270124 0.40835832 4.90565862 0.60302734 7.359375 C0.78923235 9.63796261 0.99083621 11.91532963 1.20556641 14.19140625 C1.74031246 20.31011967 2.06903981 26.19627312 1.71717834 32.3213501 C0.17069039 59.47178249 10.01548433 75.42008389 25.96005249 96.782547 C32.89308151 106.0853485 39.21920416 115.75443987 45.53500366 125.48239136 C48.42927181 129.93408136 51.35196243 134.36692181 54.2734375 138.80078125 C54.82019638 139.63404434 55.36695526 140.46730743 55.93028259 141.32582092 C58.87062426 145.80086312 61.84237736 150.25147002 64.85644531 154.67724609 C65.81111191 156.08625435 65.81111191 156.08625435 66.7850647 157.52372742 C68.00043548 159.3149243 69.22232679 161.10172158 70.45199585 162.88313293 C76.05281925 171.15654905 79.4748341 178.81797225 78 189 C75.68547757 196.3507518 71.39493631 201.73670912 65 206 C60.24896996 208.4111765 55.42688275 208.6023007 50.203125 209 C48.70449921 209.12181641 48.70449921 209.12181641 47.17559814 209.24609375 C33.76715235 210.3032175 20.33855327 211.08294461 6.91222382 211.87257385 C3.24427452 212.08873679 -0.42350256 212.30778935 -4.09130859 212.52636719 C-9.82930856 212.86791345 -15.56744371 213.20710056 -21.30566406 213.54492188 C-26.85424737 213.87203845 -32.40240793 214.20520287 -37.95019531 214.54553223 C-41.14464974 214.74116983 -44.33931377 214.93317641 -47.53405762 215.12402344 C-49.52320607 215.24386705 -51.51209996 215.36791403 -53.50097656 215.4921875 C-81.94074937 217.15830926 -81.94074937 217.15830926 -91.1875 210.8125 C-96.98105101 205.01894899 -100.11920409 199.24094422 -100.359375 190.9921875 C-100.285985 183.99889334 -98.49068732 179.23103188 -95.25 173.125 C-94.45577637 171.55020874 -94.45577637 171.55020874 -93.64550781 169.94360352 C-92.12492344 166.94320283 -90.58091401 163.95710186 -89.02587891 160.97454834 C-87.198134 157.45661786 -85.39788331 153.92461124 -83.59375 150.39453125 C-81.14628702 145.61033369 -78.69512149 140.82812553 -76.23193359 136.05200195 C-69.00309113 122.02683444 -61.92107899 107.93025645 -54.875 93.8125 C-54.34386597 92.74836884 -53.81273193 91.68423767 -53.26550293 90.58786011 C-50.51376185 85.07331412 -47.76405743 79.55775795 -45.01705933 74.04084778 C-44.32542942 72.65301196 -43.61322276 71.27528212 -42.88313293 69.9072876 C-41.65161822 67.24760564 -41.75799475 65.01038818 -41.76953125 62.08984375 C-41.77146484 60.93419922 -41.77339844 59.77855469 -41.77539062 58.58789062 C-41.78763672 57.38326172 -41.79988281 56.17863281 -41.8125 54.9375 C-41.81314453 53.75994141 -41.81378906 52.58238281 -41.81445312 51.36914062 C-41.84538848 45.1580092 -42.11830562 39.05959502 -42.74829102 32.88256836 C-43.25851584 27.03947961 -43.37716781 21.17325086 -43.5625 15.3125 C-43.60568359 14.02666016 -43.64886719 12.74082031 -43.69335938 11.41601562 C-43.79836798 8.27742506 -43.90052405 5.13876996 -44 2 C-39.34121356 1.7112735 -34.68220181 1.42661191 -30.02294922 1.14550781 C-28.442154 1.04958499 -26.86142256 0.95260444 -25.28076172 0.85449219 C-16.84236206 0.33142883 -8.45942898 -0.13562211 0 0 Z " fill="#FDFDFE" transform="translate(337,319)"/>
<path d="M0 0 C0.9208992 -0.02643585 1.8417984 -0.0528717 2.79060364 -0.08010864 C9.30025007 -0.10349923 12.83909006 1.56610152 17.66015625 6.078125 C18.129375 6.62726563 18.59859375 7.17640625 19.08203125 7.7421875 C19.5615625 8.28617187 20.04109375 8.83015625 20.53515625 9.390625 C24.67514162 15.70036174 24.27042562 22.87710281 24.3125 30.14282227 C24.33189288 32.16525719 24.39400614 34.18359688 24.45703125 36.20507812 C24.51516024 43.51843108 24.16150611 48.83178467 19.54882812 54.69799805 C17.22711699 56.95532726 14.87057726 58.2819925 11.83203125 59.3671875 C12.09440056 64.53862467 12.36937941 69.70929447 12.64794922 74.87988281 C12.78331036 77.44420454 12.91515839 80.00856739 13.04345703 82.57324219 C13.23741169 86.44816341 13.43967814 90.32259052 13.64605713 94.1968689 C13.72790118 95.75973426 13.80699459 97.32274627 13.88323975 98.88589478 C13.99289303 101.123602 14.11263749 103.36057794 14.234375 105.59765625 C14.33480103 107.55288208 14.33480103 107.55288208 14.43725586 109.54760742 C15.0804911 115.77111717 16.24418821 121.20149284 19.95703125 126.3671875 C20.49585938 127.1303125 21.0346875 127.8934375 21.58984375 128.6796875 C21.99976563 129.2365625 22.4096875 129.7934375 22.83203125 130.3671875 C25.76511929 129.75786159 27.94796152 128.85439817 30.4765625 127.2578125 C31.15396484 126.83242188 31.83136719 126.40703125 32.52929688 125.96875 C33.22732422 125.52273438 33.92535156 125.07671875 34.64453125 124.6171875 C35.33095703 124.18664062 36.01738281 123.75609375 36.72460938 123.3125 C38.77547448 122.01639982 40.81459522 120.71498074 42.83203125 119.3671875 C43.4191539 119.06516922 44.00627655 118.76315094 44.6111908 118.45198059 C47.55714408 116.75539793 49.48541546 115.53380256 50.48075867 112.18374634 C50.7395456 109.44612906 50.77526707 106.78471823 50.734375 104.03515625 C50.74666641 103.04340897 50.75895782 102.05166168 50.7716217 101.02986145 C50.80334618 97.87071686 50.78707578 94.71390496 50.76953125 91.5546875 C50.78264038 89.40948352 50.79888028 87.26429622 50.81835938 85.11914062 C50.85920897 79.86814176 50.86068946 74.61824232 50.83203125 69.3671875 C51.16203125 69.3671875 51.49203125 69.3671875 51.83203125 69.3671875 C51.83345627 70.0075444 51.83488129 70.64790131 51.83634949 71.30766296 C51.85604272 77.97531923 51.91030878 84.64205956 51.98461914 91.30932617 C52.00780981 93.79721505 52.02219732 96.28520224 52.02758789 98.77319336 C52.03686905 102.35072177 52.07784536 105.92670129 52.125 109.50390625 C52.11910103 111.17135139 52.11910103 111.17135139 52.11308289 112.8724823 C52.1812464 119.14354987 52.1812464 119.14354987 55.20043945 124.49536133 C57.68551562 126.26297233 60.1513428 127.91195663 62.83203125 129.3671875 C61.3890515 133.69612674 58.07530526 134.95134838 54.33203125 137.1796875 C52.87307489 138.06798796 51.41473802 138.9573067 49.95703125 139.84765625 C48.89548828 140.49226807 48.89548828 140.49226807 47.8125 141.14990234 C44.07887515 143.44475608 40.44979292 145.89505036 36.83203125 148.3671875 C37.46410854 151.62312085 38.62583246 153.87950242 40.44897461 156.63818359 C40.99722397 157.47360687 41.54547333 158.30903015 42.1103363 159.16976929 C42.70814407 160.06765167 43.30595184 160.96553406 43.921875 161.890625 C44.54042862 162.82838776 45.15898224 163.76615051 45.79627991 164.73233032 C47.11092608 166.72291012 48.42834081 168.71166379 49.74829102 170.69873047 C51.73630589 173.69215883 53.71558337 176.69120593 55.69335938 179.69140625 C61.55178646 188.55733624 67.45610096 197.36963666 73.6829834 205.9815979 C84.75997839 221.30928149 90.45186717 234.21086707 88.83203125 253.3671875 C88.24777941 256.66436067 87.32776817 259.38174486 85.83203125 262.3671875 C85.49171875 263.09808594 85.15140625 263.82898438 84.80078125 264.58203125 C78.53821777 276.95905704 68.75312284 284.64554971 55.83203125 289.3671875 C42.78893208 292.01243735 29.09893429 292.13867969 15.84765625 292.875 C13.53862113 293.006415 11.2296004 293.13808321 8.92059326 293.26998901 C4.09651391 293.54421299 -0.72777646 293.8142768 -5.55224609 294.08154297 C-10.44161142 294.35279179 -15.33056458 294.63013485 -20.21923828 294.91357422 C-66.68707362 297.60645601 -66.68707362 297.60645601 -83.93359375 297.796875 C-84.97747253 297.81952423 -86.02135132 297.84217346 -87.09686279 297.86550903 C-99.16499853 297.83772823 -108.34876298 292.31566773 -117.16796875 284.3671875 C-125.60044242 274.57219565 -129.35471844 264.85603352 -129.66796875 252.1171875 C-129.72210938 251.22 -129.77625 250.3228125 -129.83203125 249.3984375 C-130.01473472 240.05446003 -126.23274187 232.5293072 -122.16796875 224.3671875 C-121.85746582 223.7393335 -121.54696289 223.11147949 -121.22705078 222.46459961 C-119.35008638 218.6932823 -117.41633985 214.95359744 -115.45803833 211.22396851 C-113.61337435 207.70908825 -111.78731069 204.1845663 -109.9609375 200.66015625 C-109.57731552 199.92040054 -109.19369354 199.18064484 -108.79844666 198.41847229 C-104.01743097 189.17673662 -99.37364698 179.86621808 -94.73046875 170.5546875 C-94.10585754 169.30253448 -94.10585754 169.30253448 -93.46862793 168.02508545 C-91.6005985 164.27948922 -89.7339114 160.5332298 -87.86938477 156.78588867 C-86.63804937 154.3117332 -85.40531948 151.83833677 -84.16796875 149.3671875 C-85.01617187 149.11195313 -85.864375 148.85671875 -86.73828125 148.59375 C-90.40548968 147.28224266 -93.63371432 145.62075627 -97.04296875 143.7421875 C-98.19539063 143.11054688 -99.3478125 142.47890625 -100.53515625 141.828125 C-101.40398437 141.34601563 -102.2728125 140.86390625 -103.16796875 140.3671875 C-101.79296875 138.8671875 -101.79296875 138.8671875 -100.16796875 137.3671875 C-99.50796875 137.3671875 -98.84796875 137.3671875 -98.16796875 137.3671875 C-97.06282109 134.05174451 -96.84689244 131.16308639 -96.60546875 127.6796875 C-96.52167969 126.50019531 -96.43789062 125.32070313 -96.3515625 124.10546875 C-96.26068359 122.75001953 -96.26068359 122.75001953 -96.16796875 121.3671875 C-91.30836066 123.19646963 -86.75528927 125.57117966 -82.1640625 127.9765625 C-79.29219773 129.44646318 -77.44243008 130.3671875 -74.16796875 130.3671875 C-68.06253285 121.46342682 -71.32640755 107.91211998 -72.16796875 97.7421875 C-73.03583194 86.58649834 -73.41589613 75.55146706 -73.16796875 64.3671875 C-74.55628906 64.18542969 -74.55628906 64.18542969 -75.97265625 64 C-81.4891934 62.90748286 -84.2322321 59.60640631 -87.48046875 55.3046875 C-90.06945318 50.23414539 -90.02654276 44.96199974 -90.16796875 39.3671875 C-90.19906738 38.50915527 -90.23016602 37.65112305 -90.26220703 36.76708984 C-90.36168728 33.84217053 -90.42564536 30.91826545 -90.48046875 27.9921875 C-90.51043945 27.04077881 -90.54041016 26.08937012 -90.57128906 25.10913086 C-90.62590277 18.38511502 -89.40429083 14.70059924 -84.60546875 9.7578125 C-79.71847477 5.88008902 -76.53998424 4.17257812 -70.2956543 3.77294922 C-68.51550179 3.6530513 -68.51550179 3.6530513 -66.6993866 3.5307312 C-65.41413589 3.45355865 -64.12888519 3.37638611 -62.8046875 3.296875 C-61.45299321 3.21060142 -60.10133452 3.12376848 -58.74971008 3.03640747 C-55.90450191 2.85447324 -53.05899864 2.67868813 -50.21313477 2.50732422 C-46.63797762 2.29167157 -43.06388905 2.0620967 -39.48988152 1.82825851 C-26.33941945 0.97176591 -13.17921958 0.196218 0 0 Z M-36.79296875 62.3671875 C-38.38540002 62.4638164 -39.97784785 62.56017272 -41.5703125 62.65625 C-45.43639601 62.89008797 -49.30223683 63.12761025 -53.16796875 63.3671875 C-53.02732689 67.80486766 -52.87949441 72.2422816 -52.73046875 76.6796875 C-52.69115234 77.92298828 -52.65183594 79.16628906 -52.61132812 80.44726562 C-52.42293961 85.96849823 -52.20356624 91.4614365 -51.66796875 96.9609375 C-51.06610843 103.15696116 -50.75898347 109.33198618 -50.60546875 115.5546875 C-50.54294922 116.65876953 -50.48042969 117.76285156 -50.41601562 118.90039062 C-50.23656242 128.324403 -53.35743281 134.78621537 -57.77529907 142.78305054 C-60.31482447 147.4952099 -62.65571781 152.30792169 -65.02829552 157.10569191 C-66.57506704 160.22854954 -68.13384391 163.3454051 -69.69140625 166.46289062 C-71.6165402 170.31876725 -73.54094829 174.17500211 -75.46289062 178.0324707 C-82.54854972 192.25244988 -89.69333235 206.43074621 -97.15350342 220.459198 C-107.88762765 238.37407744 -107.88762765 238.37407744 -109.16796875 258.3671875 C-108.17621505 261.34244859 -106.94096352 263.78772636 -105.16796875 266.3671875 C-104.59046875 267.2540625 -104.01296875 268.1409375 -103.41796875 269.0546875 C-98.41114067 274.20059414 -92.98108247 277.22748883 -85.78271484 277.49121094 C-76.76167264 277.45789427 -67.79935432 277.17994477 -58.79296875 276.6171875 C-57.36037407 276.53087553 -55.92775561 276.44495769 -54.49511719 276.359375 C-51.11995498 276.15688642 -47.74500355 275.95117323 -44.37011719 275.74414062 C-39.05133954 275.41915185 -33.73201266 275.10393717 -28.41252708 274.79076767 C-22.62220865 274.44987755 -16.83204315 274.10646873 -11.04197121 273.76141739 C-7.39989628 273.54438619 -3.75778174 273.32809914 -0.11553955 273.1138916 C7.97686377 272.63703713 16.0675074 272.14058905 24.15649414 271.60839844 C26.55059577 271.45128303 28.94495903 271.29808946 31.33959961 271.14941406 C34.51051625 270.94835075 37.67888035 270.72428766 40.84765625 270.4921875 C41.75376648 270.43804688 42.65987671 270.38390625 43.59344482 270.328125 C50.37612493 269.7899223 55.82854121 267.94540461 61.0390625 263.47265625 C66.65159079 256.76766503 69.12613103 251.2973769 69.328125 242.50390625 C68.02349138 234.25492361 63.81781412 227.28326209 59.1171875 220.53125 C58.55759338 219.71000641 57.99799927 218.88876282 57.42144775 218.04263306 C56.21558878 216.27470226 55.00553141 214.50962901 53.79165649 212.74719238 C50.5198615 207.99589238 47.27974696 203.22302395 44.03515625 198.453125 C43.36249222 197.46602539 42.68982819 196.47892578 41.9967804 195.46191406 C34.59804889 184.58920451 27.3636906 173.60962027 20.14453125 162.6171875 C18.94736177 160.79507493 17.75017789 158.97297183 16.55297852 157.15087891 C14.86673561 154.58443933 13.18053041 152.01797559 11.49488831 149.45114136 C6.642223 142.06639417 1.74529486 134.71171161 -3.16796875 127.3671875 C-5.32520546 124.13133244 -5.46793704 122.98010944 -5.65454102 119.21240234 C-5.71122452 118.16055756 -5.76790802 117.10871277 -5.8263092 116.0249939 C-5.87847092 114.88752716 -5.93063263 113.75006042 -5.984375 112.578125 C-6.04576157 111.40512848 -6.10714813 110.23213196 -6.1703949 109.02359009 C-6.36569906 105.26350495 -6.54860513 101.50294463 -6.73046875 97.7421875 C-6.91812652 94.003004 -7.10839089 90.2639735 -7.30125427 86.52505493 C-7.42055952 84.19790176 -7.53650154 81.87057297 -7.64857483 79.5430603 C-7.95331879 73.44743571 -8.42198029 67.42510766 -9.16796875 61.3671875 C-18.40923166 61.21903098 -27.57494691 61.79502118 -36.79296875 62.3671875 Z " fill="#072C76" transform="translate(346.16796875,257.6328125)"/>
<path d="M0 0 C3.79881211 1.67281894 7.31576173 3.74666173 10.875 5.875 C11.88353027 6.46345703 12.89206055 7.05191406 13.93115234 7.65820312 C15.981838 8.85673588 18.02891483 10.0614655 20.07226562 11.27246094 C22.73770018 12.84522736 25.41769846 14.38678687 28.109375 15.9140625 C29.61486047 16.77555754 31.12008681 17.63750566 32.625 18.5 C33.3041748 18.88397949 33.98334961 19.26795898 34.68310547 19.66357422 C35.6327417 20.21682373 35.6327417 20.21682373 36.6015625 20.78125 C37.14119629 21.09126953 37.68083008 21.40128906 38.23681641 21.72070312 C38.81866699 22.14287109 39.40051758 22.56503906 40 23 C40.88067139 23.61617187 41.76134277 24.23234375 42.66870117 24.8671875 C46.28060104 29.72087889 45.73469604 34.44331688 45.69921875 40.34375 C45.70637405 41.54559937 45.71352936 42.74744873 45.72090149 43.98571777 C45.72867833 46.52416237 45.72366691 49.06267383 45.70678711 51.60107422 C45.68756612 55.48663352 45.72694748 59.36861571 45.77148438 63.25390625 C45.77177473 65.7213563 45.76863478 68.18880963 45.76171875 70.65625 C45.78464241 72.39859924 45.78464241 72.39859924 45.80802917 74.17614746 C45.69541187 81.96355289 45.69541187 81.96355289 43.83003235 84.74372864 C42.33789062 86.0402832 42.33789062 86.0402832 39 88 C37.50496948 88.94685669 37.50496948 88.94685669 35.97973633 89.9128418 C34.42162231 90.79709839 34.42162231 90.79709839 32.83203125 91.69921875 C31.69185547 92.35083984 30.55167969 93.00246094 29.37695312 93.67382812 C28.18893537 94.34528797 27.00078297 95.01650963 25.8125 95.6875 C23.46377718 97.02287408 21.1167431 98.36118817 18.76953125 99.69921875 C17.73417236 100.28533936 16.69881348 100.87145996 15.63208008 101.4753418 C13.71569152 102.58542866 11.84273086 103.77151276 10 105 C9.67669011 107.03253936 9.67669011 107.03253936 9.92578125 109.375 C9.98064697 110.27009277 10.0355127 111.16518555 10.09204102 112.08740234 C10.16479248 113.04855957 10.23754395 114.0097168 10.3125 115 C10.4357472 116.99197671 10.55548281 118.9841735 10.671875 120.9765625 C10.73181641 121.98106445 10.79175781 122.98556641 10.85351562 124.02050781 C11.0724406 128.47344179 11.08931323 132.91764191 11.0625 137.375 C11.05839111 138.14714844 11.05428223 138.91929687 11.05004883 139.71484375 C11.03767924 141.47659807 11.01957432 143.238311 11 145 C11.65226562 145.23589844 12.30453125 145.47179687 12.9765625 145.71484375 C16.93578213 147.39776786 20.62584646 149.45903425 24.375 151.5625 C25.16213379 152.00360107 25.94926758 152.44470215 26.76025391 152.89916992 C29.17714333 154.25979455 31.58932077 155.62840665 34 157 C34.73863281 157.41830078 35.47726563 157.83660156 36.23828125 158.26757812 C38.29137469 159.43675291 40.3346597 160.62123748 42.375 161.8125 C42.98649902 162.16062744 43.59799805 162.50875488 44.22802734 162.86743164 C48.09416456 165.15889956 50.70388118 167.12736886 53 171 C53.61218177 174.96583368 53.5841838 178.8996765 53.56640625 182.90625 C53.57260483 184.06370728 53.57880341 185.22116455 53.58518982 186.41369629 C53.59228572 188.85798299 53.58911808 191.30231804 53.57641602 193.74658203 C53.56254855 197.48690647 53.59663133 201.22473047 53.63476562 204.96484375 C53.6357168 207.34114645 53.63385808 209.71745227 53.62890625 212.09375 C53.64216446 213.2115686 53.65542267 214.32938721 53.66908264 215.4810791 C53.57655874 223.19256873 53.57655874 223.19256873 50.85205078 227.00805664 C47.8719029 229.08946621 44.91193831 231.00203138 41.73828125 232.77734375 C40.85223457 233.27809166 40.85223457 233.27809166 39.94828796 233.78895569 C38.07394416 234.84625844 36.1935811 235.89223972 34.3125 236.9375 C32.45636658 237.9783791 30.60156671 239.02159989 28.74703979 240.06533813 C27.53969394 240.74450179 26.33163192 241.422394 25.12283325 242.09896851 C20.67900321 244.59262466 16.31103184 247.19354752 11.97729492 249.87329102 C7.92690573 252.1812977 4.59225782 252.38622066 0 252 C-2.82371792 250.91719318 -5.34661446 249.42521367 -7.9375 247.875 C-8.69168213 247.43849121 -9.44586426 247.00198242 -10.22290039 246.55224609 C-11.89309436 245.58334256 -13.55949922 244.60788669 -15.22265625 243.62695312 C-18.2682897 241.84283733 -21.3354266 240.09975227 -24.40625 238.359375 C-26.58383335 237.11545825 -28.76092169 235.87067452 -30.9375 234.625 C-31.98607178 234.03058105 -33.03464355 233.43616211 -34.11499023 232.82373047 C-35.09669189 232.25541504 -36.07839355 231.68709961 -37.08984375 231.1015625 C-38.40263306 230.34866943 -38.40263306 230.34866943 -39.74194336 229.58056641 C-42.17837889 227.87514056 -43.43438883 226.52089146 -45 224 C-45.40786743 221.50930786 -45.40786743 221.50930786 -45.45166016 218.68408203 C-45.4740274 217.6226297 -45.49639465 216.56117737 -45.5194397 215.46755981 C-45.52591522 214.3258432 -45.53239075 213.18412659 -45.5390625 212.0078125 C-45.55759781 210.23976761 -45.55759781 210.23976761 -45.57650757 208.43600464 C-45.59607531 205.94290127 -45.60730616 203.44972062 -45.61083984 200.95654297 C-45.62492425 197.14549714 -45.69225987 193.33773003 -45.76171875 189.52734375 C-45.77411729 187.10418124 -45.78333686 184.68099996 -45.7890625 182.2578125 C-45.81578033 181.12014435 -45.84249817 179.9824762 -45.87002563 178.81033325 C-45.80419773 171.13222192 -45.80419773 171.13222192 -43.60987854 168.04286194 C-41.82459266 166.45570627 -40.05075819 165.22063357 -38 164 C-36.96061279 163.32606201 -35.92122559 162.65212402 -34.8503418 161.95776367 C-33.29053589 161.07181519 -33.29053589 161.07181519 -31.69921875 160.16796875 C-30.55775391 159.51505859 -29.41628906 158.86214844 -28.24023438 158.18945312 C-27.05605792 157.52201416 -25.87181239 156.85469773 -24.6875 156.1875 C-23.48333694 155.50132978 -22.27955772 154.8144855 -21.07617188 154.12695312 C-12.61090561 149.30545281 -12.61090561 149.30545281 -10 148 C-10.06080281 146.35284995 -10.1221141 144.70571867 -10.18359375 143.05859375 C-10.24051392 141.48150635 -10.24051392 141.48150635 -10.29858398 139.87255859 C-10.39175162 137.56874735 -10.50214953 135.26557291 -10.62915039 132.96337891 C-11.15289511 123.0812714 -11.15289511 123.0812714 -10.375 118.52734375 C-9.86468728 114.26714378 -10.39315652 111.96563599 -12 108 C-14.41868265 105.69435601 -14.41868265 105.69435601 -17.5 103.97265625 C-18.61511963 103.29799316 -19.73023926 102.62333008 -20.87915039 101.92822266 C-25.429654 99.34040333 -30.09304673 96.9798762 -34.77294922 94.63623047 C-37.73620696 93.13375253 -40.65078293 91.58984887 -43.53515625 89.94140625 C-44.28289307 89.51674072 -45.03062988 89.0920752 -45.80102539 88.65454102 C-49.72071463 85.70530886 -52.56079294 83.4115983 -53.45695496 78.49095154 C-53.64551626 75.38754603 -53.66669458 72.32377721 -53.62890625 69.21484375 C-53.63131821 68.08099747 -53.63373016 66.94715118 -53.63621521 65.77894592 C-53.63523781 63.38766982 -53.62187016 60.99637079 -53.59692383 58.60522461 C-53.56258279 54.94632134 -53.57628106 51.28982943 -53.59570312 47.63085938 C-53.58880544 45.30467723 -53.57913376 42.9785013 -53.56640625 40.65234375 C-53.57136612 39.55953598 -53.57632599 38.46672821 -53.58143616 37.34080505 C-53.46495329 29.82845611 -53.46495329 29.82845611 -51.30932617 25.98754883 C-48.80683627 23.83375136 -46.36194174 22.1694043 -43.484375 20.546875 C-42.40518799 19.93142822 -41.32600098 19.31598145 -40.21411133 18.68188477 C-39.07095459 18.04436279 -37.92779785 17.40684082 -36.75 16.75 C-35.57079929 16.085278 -34.39200871 15.41982792 -33.21362305 14.75366211 C-30.88295216 13.43729649 -28.54952615 12.12628974 -26.21435547 10.81787109 C-23.44511259 9.25173237 -20.70302743 7.65209516 -17.97265625 6.01953125 C-16.89709473 5.3848291 -16.89709473 5.3848291 -15.79980469 4.73730469 C-14.52186454 3.98184425 -13.24978625 3.21633029 -11.98535156 2.43847656 C-7.76471468 -0.01415306 -4.82981554 -0.75889922 0 0 Z " fill="#072C75" transform="translate(197,168)"/>
<path d="M0 0 C1.04091797 0.61302979 2.08183594 1.22605957 3.15429688 1.85766602 C4.01178528 2.35420685 4.01178528 2.35420685 4.88659668 2.86077881 C6.7243988 3.92982669 8.5486633 5.01981068 10.37304688 6.11157227 C11.63278644 6.85206456 12.89320623 7.59140085 14.15429688 8.32958984 C16.62289134 9.77786153 19.0860817 11.23469536 21.54492188 12.69946289 C24.31873659 14.34519451 27.1039268 15.96482141 29.90429688 17.56469727 C31.2275914 18.329669 32.55055144 19.09521988 33.87304688 19.86157227 C34.96617187 20.49450195 36.05929687 21.12743164 37.18554688 21.77954102 C40.62023983 24.20079986 43.43646069 26.376004 44.25891113 30.70515442 C44.43159569 33.18719857 44.47891229 35.64305148 44.48242188 38.13110352 C44.49895813 39.03406662 44.51549438 39.93702972 44.53253174 40.86735535 C44.58096744 43.74049715 44.60237275 46.61310983 44.62304688 49.48657227 C44.65121027 51.43907278 44.68113822 53.39154869 44.71289062 55.34399414 C44.78672524 60.12064328 44.83632695 64.89699946 44.87304688 69.67407227 C57.8355939 76.5883122 57.8355939 76.5883122 70.93554688 83.23657227 C71.96518555 83.74800781 71.96518555 83.74800781 73.015625 84.26977539 C74.63378035 85.07319518 76.25324325 85.87398084 77.87304688 86.67407227 C76.90367187 87.56094727 75.93429687 88.44782227 74.93554688 89.36157227 C70.52649116 94.38270866 70.89229228 100.27497655 70.87304688 106.67407227 C69.2470703 105.86108398 67.62113327 105.04801655 65.99536133 104.23461914 C64.5674618 103.52108003 63.13890075 102.80886336 61.7097168 102.09790039 C57.93135764 100.21595588 54.16641812 98.31379486 50.42382812 96.36157227 C49.71291016 95.99483398 49.00199219 95.6280957 48.26953125 95.25024414 C46.90595067 94.5460896 45.54636325 93.83413426 44.19140625 93.11352539 C40.52530265 91.23318123 37.97358302 90.25187966 33.87304688 90.67407227 C31.18088561 91.84169076 31.18088561 91.84169076 28.48632812 93.52563477 C27.46474609 94.13020508 26.44316406 94.73477539 25.390625 95.35766602 C24.33294922 95.99833008 23.27527344 96.63899414 22.18554688 97.29907227 C21.14720703 97.9165332 20.10886719 98.53399414 19.0390625 99.17016602 C15.00647968 101.57201785 10.98706447 103.99456854 6.97998047 106.4387207 C5.64894287 107.24744629 5.64894287 107.24744629 4.29101562 108.07250977 C3.50879639 108.55123535 2.72657715 109.02996094 1.9206543 109.52319336 C-2.29242258 111.89119674 -6.39563048 112.22779991 -11.12695312 111.67407227 C-14.55786133 110.23706055 -14.55786133 110.23706055 -17.92773438 108.24438477 C-18.53078903 107.89399139 -19.13384369 107.54359802 -19.75517273 107.18258667 C-21.65986611 106.07071618 -23.54933701 104.9355085 -25.43945312 103.79907227 C-26.72564184 103.04359642 -28.01274505 102.28967521 -29.30078125 101.53735352 C-33.63121291 98.99801958 -37.94896499 96.45939769 -42.12695312 93.67407227 C-45.81966427 94.00716227 -48.36801178 95.19581304 -51.45507812 97.18579102 C-52.25558594 97.6969043 -53.05609375 98.20801758 -53.88085938 98.73461914 C-54.70457031 99.27151367 -55.52828125 99.8084082 -56.37695312 100.36157227 C-57.18519531 100.87913086 -57.9934375 101.39668945 -58.82617188 101.92993164 C-61.26841446 103.49882827 -63.70167591 105.07904035 -66.12695312 106.67407227 C-66.87569199 107.05694397 -67.62443085 107.43981567 -68.39585876 107.83428955 C-73.2098072 110.45310579 -73.2098072 110.45310579 -75.95126343 114.98362732 C-76.2651119 117.79884186 -76.29597509 120.49077772 -76.22460938 123.32250977 C-76.23407089 124.33503815 -76.24353241 125.34756653 -76.25328064 126.39077759 C-76.27381186 129.61170873 -76.23250733 132.82842559 -76.18945312 136.04907227 C-76.19252866 138.2378839 -76.19964498 140.42669385 -76.2109375 142.61547852 C-76.22975458 147.96920842 -76.1978657 153.32081919 -76.12695312 158.67407227 C-76.45695313 158.67407227 -76.78695312 158.67407227 -77.12695312 158.67407227 C-77.13059875 158.01896667 -77.13424438 157.36386108 -77.13800049 156.68890381 C-77.17978425 149.87549255 -77.24910111 143.06275752 -77.33447266 136.24975586 C-77.36271268 133.70653036 -77.38391203 131.16321659 -77.39794922 128.61987305 C-77.41933589 124.96560374 -77.46596704 121.31239912 -77.51757812 117.65844727 C-77.51880676 116.5197821 -77.5200354 115.38111694 -77.52130127 114.20794678 C-77.5410199 113.14714905 -77.56073853 112.08635132 -77.58105469 110.9934082 C-77.58993713 110.06075134 -77.59881958 109.12809448 -77.60797119 108.16717529 C-78.41565031 104.28721893 -80.84220371 102.52012676 -84.04882812 100.40844727 C-84.65210938 100.08360352 -85.25539062 99.75875977 -85.87695312 99.42407227 C-87.48570312 98.55782227 -87.48570312 98.55782227 -89.12695312 97.67407227 C-85.57829833 93.70628502 -81.40221213 91.1107899 -76.93945312 88.29907227 C-75.41303452 87.32700766 -73.8869895 86.35435617 -72.36132812 85.38110352 C-71.63107422 84.91655762 -70.90082031 84.45201172 -70.1484375 83.97338867 C-66.94983037 81.91747235 -63.8158467 79.76909618 -60.69335938 77.59985352 C-59.12695312 76.67407227 -59.12695312 76.67407227 -57.12695312 76.67407227 C-57.13805618 76.08604828 -57.14915924 75.49802429 -57.16059875 74.8921814 C-57.2713994 68.76022564 -57.346706 62.62855521 -57.40161133 56.49584961 C-57.42672255 54.20862269 -57.46081828 51.92147576 -57.50415039 49.63452148 C-57.56494894 46.34281661 -57.59319752 43.05217457 -57.61523438 39.76000977 C-57.6410408 38.74103607 -57.66684723 37.72206238 -57.69343567 36.67221069 C-57.69656078 28.72368079 -57.69656078 28.72368079 -54.8996582 25.17138672 C-52.41140483 22.93027166 -50.20723178 21.2225835 -47.27539062 19.63110352 C-46.35048828 19.1195874 -45.42558594 18.60807129 -44.47265625 18.08105469 C-43.49232422 17.55487549 -42.51199219 17.02869629 -41.50195312 16.48657227 C-39.43602221 15.35526823 -37.37093105 14.22242944 -35.30664062 13.08813477 C-33.75541504 12.23977051 -33.75541504 12.23977051 -32.17285156 11.37426758 C-29.29021268 9.7652024 -26.4577617 8.09613526 -23.63476562 6.38500977 C-22.78736816 5.87478271 -21.9399707 5.36455566 -21.06689453 4.83886719 C-19.48153728 3.87899159 -17.9026306 2.90835067 -16.33154297 1.92529297 C-15.61434082 1.49563232 -14.89713867 1.06597168 -14.15820312 0.62329102 C-13.2387793 0.0561438 -13.2387793 0.0561438 -12.30078125 -0.52246094 C-7.9218393 -2.14095801 -4.24995997 -1.80211841 0 0 Z " fill="#6965F5" transform="translate(319.126953125,90.325927734375)"/>
<path d="M0 0 C4.39349459 1.97944077 8.45367426 4.42843417 12.5625 6.9375 C13.72261489 7.63082745 14.88359113 8.3227156 16.04541016 9.01318359 C18.33064091 10.37451068 20.60863916 11.74602781 22.88427734 13.12353516 C25.53812612 14.72183336 28.20598406 16.28536793 30.89453125 17.82421875 C32.22142179 18.59102884 33.54825152 19.35794415 34.875 20.125 C36.54175781 21.08792969 36.54175781 21.08792969 38.2421875 22.0703125 C41.42187494 24.29519294 42.99613623 25.64035734 45 29 C45.61372995 32.96550737 45.58418328 36.89979561 45.56640625 40.90625 C45.57260483 42.06370728 45.57880341 43.22116455 45.58518982 44.41369629 C45.59228572 46.85798299 45.58911808 49.30231804 45.57641602 51.74658203 C45.56254855 55.48690647 45.59663133 59.22473047 45.63476562 62.96484375 C45.6357168 65.34114645 45.63385808 67.71745227 45.62890625 70.09375 C45.64216446 71.2115686 45.65542267 72.32938721 45.66908264 73.4810791 C45.57636476 81.20873679 45.57636476 81.20873679 42.78417969 85.04199219 C40.16710168 86.88248373 37.6000802 88.64292528 34.82421875 90.234375 C33.34598633 91.08974854 33.34598633 91.08974854 31.83789062 91.96240234 C30.79826172 92.55230957 29.75863281 93.1422168 28.6875 93.75 C27.61822266 94.36182129 26.54894531 94.97364258 25.44726562 95.60400391 C23.29895256 96.83221115 21.14907195 98.05768098 18.99755859 99.28027344 C16.35937103 100.79382558 13.74744212 102.34092928 11.14453125 103.9140625 C10.43401611 104.3359082 9.72350098 104.75775391 8.99145508 105.19238281 C7.71152577 105.95246342 6.43849648 106.72435327 5.17456055 107.51074219 C0.82626894 110.04576869 -3.08549838 111.11722018 -8 110 C-12.15558558 108.2220559 -15.9899958 105.98892172 -19.875 103.6875 C-20.96820557 103.05610107 -22.06141113 102.42470215 -23.18774414 101.77416992 C-26.47042207 99.86897363 -29.73670204 97.93816464 -33 96 C-34.42723389 95.16130371 -34.42723389 95.16130371 -35.88330078 94.30566406 C-38.40850236 92.81949447 -40.92551739 91.32088649 -43.4375 89.8125 C-44.18177246 89.36801514 -44.92604492 88.92353027 -45.69287109 88.46557617 C-48.8727844 86.51641409 -50.90329423 85.14505866 -53 82 C-53.27415466 79.66752625 -53.27415466 79.66752625 -53.30639648 76.8894043 C-53.32238388 75.84789719 -53.33837128 74.80639008 -53.35484314 73.73332214 C-53.36020584 72.60831802 -53.36556854 71.4833139 -53.37109375 70.32421875 C-53.38463646 68.5873455 -53.38463646 68.5873455 -53.39845276 66.81538391 C-53.41297119 64.36335847 -53.42184593 61.91129416 -53.42553711 59.45922852 C-53.43742107 55.71238631 -53.48658433 51.96719703 -53.53710938 48.22070312 C-53.54657481 45.83854971 -53.55380926 43.45638617 -53.55859375 41.07421875 C-53.57812607 39.95528732 -53.59765839 38.8363559 -53.61778259 37.68351746 C-53.56752693 28.99328521 -53.56752693 28.99328521 -50.80444336 25.45361328 C-48.13490204 23.11802607 -45.68879517 21.34500133 -42.5703125 19.66796875 C-41.53447021 19.10094238 -40.49862793 18.53391602 -39.43139648 17.94970703 C-38.34028564 17.36817871 -37.2491748 16.78665039 -36.125 16.1875 C-33.86722697 14.96195863 -31.61071138 13.73409785 -29.35546875 12.50390625 C-28.26411621 11.90980957 -27.17276367 11.31571289 -26.04833984 10.70361328 C-23.41428365 9.23152902 -20.8489216 7.70447887 -18.30078125 6.08984375 C-17.29990479 5.45622925 -17.29990479 5.45622925 -16.27880859 4.80981445 C-14.57206269 3.71158615 -12.87727243 2.59483774 -11.18359375 1.4765625 C-7.19901475 -0.37149991 -4.24285764 -1.01073194 0 0 Z " fill="#062B76" transform="translate(443,155)"/>
<path d="M0 0 C3.61118968 1.54330843 6.97622276 3.41323195 10.375 5.375 C11.81842773 6.18723022 11.81842773 6.18723022 13.29101562 7.01586914 C16.20326086 8.66159608 19.10231581 10.32879846 22 12 C23.66915152 12.94942853 25.33841458 13.89866102 27.0078125 14.84765625 C28.50625896 15.70911258 30.00371817 16.57228935 31.5 17.4375 C32.17466309 17.82534668 32.84932617 18.21319336 33.54443359 18.61279297 C43.83732903 24.67465805 43.83732903 24.67465805 46 29 C46.11570235 30.66820855 46.16954908 32.34088596 46.19287109 34.01293945 C46.20893402 35.05774979 46.22499695 36.10256012 46.24154663 37.17903137 C46.28593806 41.95943606 46.3270588 46.73970116 46.35009766 51.52026367 C46.36666456 54.04314392 46.39396384 56.56597709 46.43212891 59.08862305 C46.48683189 62.7220907 46.50876249 66.35445753 46.5234375 69.98828125 C46.54610687 71.11551102 46.56877625 72.24274078 46.59213257 73.40412903 C46.57106843 81.19603775 46.57106843 81.19603775 43.85864258 85.01464844 C40.87393307 87.08755456 37.91097889 89.00256807 34.73828125 90.77734375 C33.85223457 91.27809166 33.85223457 91.27809166 32.94828796 91.78895569 C31.07394416 92.84625844 29.1935811 93.89223972 27.3125 94.9375 C25.45636658 95.9783791 23.60156671 97.02159989 21.74703979 98.06533813 C20.53969394 98.74450179 19.33163192 99.422394 18.12283325 100.09896851 C13.67900321 102.59262466 9.31103184 105.19354752 4.97729492 107.87329102 C0.92690573 110.1812977 -2.40774218 110.38622066 -7 110 C-9.82371792 108.91719318 -12.34661446 107.42521367 -14.9375 105.875 C-15.69168213 105.43849121 -16.44586426 105.00198242 -17.22290039 104.55224609 C-18.89309436 103.58334256 -20.55949922 102.60788669 -22.22265625 101.62695312 C-25.2682897 99.84283733 -28.3354266 98.09975227 -31.40625 96.359375 C-33.58383335 95.11545825 -35.76092169 93.87067452 -37.9375 92.625 C-39.51035767 91.73337158 -39.51035767 91.73337158 -41.11499023 90.82373047 C-42.58754272 89.97125732 -42.58754272 89.97125732 -44.08984375 89.1015625 C-44.96503662 88.59963379 -45.84022949 88.09770508 -46.74194336 87.58056641 C-49.17837889 85.87514056 -50.43438883 84.52089146 -52 82 C-52.40786743 79.50930786 -52.40786743 79.50930786 -52.45166016 76.68408203 C-52.4740274 75.6226297 -52.49639465 74.56117737 -52.5194397 73.46755981 C-52.52591522 72.3258432 -52.53239075 71.18412659 -52.5390625 70.0078125 C-52.55141937 68.82911591 -52.56377625 67.65041931 -52.57650757 66.43600464 C-52.59607531 63.94290127 -52.60730616 61.44972062 -52.61083984 58.95654297 C-52.62492425 55.14549714 -52.69225987 51.33773003 -52.76171875 47.52734375 C-52.77411729 45.10418124 -52.78333686 42.68099996 -52.7890625 40.2578125 C-52.81578033 39.12014435 -52.84249817 37.9824762 -52.87002563 36.81033325 C-52.80414805 29.1264267 -52.80414805 29.1264267 -50.59751892 26.03544617 C-48.8151513 24.45367477 -47.0457324 23.21752727 -45 22 C-43.51947144 21.03622437 -43.51947144 21.03622437 -42.0090332 20.05297852 C-41.03281006 19.50053467 -40.05658691 18.94809082 -39.05078125 18.37890625 C-37.95443359 17.75306641 -36.85808594 17.12722656 -35.72851562 16.48242188 C-34.60123047 15.84884766 -33.47394531 15.21527344 -32.3125 14.5625 C-30.07927413 13.29323783 -27.84620049 12.02370778 -25.61328125 10.75390625 C-24.51580566 10.13789551 -23.41833008 9.52188477 -22.28759766 8.88720703 C-20.08155453 7.62085374 -17.89853731 6.313586 -15.73974609 4.96826172 C-5.64292113 -1.28425102 -5.64292113 -1.28425102 0 0 Z " fill="#062B75" transform="translate(204,310)"/>
<path d="M0 0 C5.0036348 -0.18802803 9.6669262 -0.2270519 14.5390625 1.03125 C17.73606547 1.83997802 20.3609781 2.04457591 23.6484375 1.78125 C28.59360923 1.42942368 33.31388797 1.14759281 38 3 C42.65323607 7.22031803 45.13635087 13.20710225 47.83984375 18.77246094 C50.4409067 23.76658937 54.27058702 27.81772973 58 32 C58.763125 32.87140625 59.52625 33.7428125 60.3125 34.640625 C62.51221674 37.12273781 64.74457987 39.56850618 67 42 C67.54914063 42.60328125 68.09828125 43.2065625 68.6640625 43.828125 C82.83244009 58.76424719 101.59988526 68.81422261 120.16918945 77.10546875 C122 78 122 78 125 80 C121.89368169 81.55315916 118.53991762 81.42363155 115.12109375 81.6484375 C114.30256424 81.70549866 113.48403473 81.76255981 112.64070129 81.8213501 C109.90659196 82.01045552 107.17208755 82.19294938 104.4375 82.375 C102.51724298 82.50555514 100.59699575 82.63625433 98.67675781 82.76708984 C83.87101912 83.76872827 69.06118921 84.70789225 54.25 85.625 C53.25225555 85.68725769 52.25451111 85.74951538 51.22653198 85.81365967 C-9.33068746 89.57697919 -9.33068746 89.57697919 -19.1875 82.8125 C-24.96584416 77.03415584 -28.11706579 71.25129088 -28.375 63.0234375 C-28.30359804 55.84952406 -26.31872746 50.88828467 -23 44.625 C-22.21641113 43.07147827 -22.21641113 43.07147827 -21.41699219 41.48657227 C-19.96054741 38.61404559 -18.48044359 35.75528856 -16.98901367 32.90081787 C-15.18797789 29.43934803 -13.4172032 25.96234675 -11.640625 22.48828125 C-7.79200451 14.975633 -3.90597974 7.48297991 0 0 Z " fill="#92B1F3" transform="translate(265,447)"/>
<path d="M0 0 C1.83453758 2.11205916 3.41287783 4.20458466 4.94584656 6.5418396 C5.49709702 7.37726288 6.04834747 8.21268616 6.61630249 9.07342529 C7.20176346 9.97130768 7.78722443 10.86919006 8.39042664 11.79428101 C9.00710709 12.73204376 9.62378754 13.66980652 10.25915527 14.63598633 C12.23056396 17.6363625 14.19526077 20.64106934 16.15995789 23.64584351 C17.4622703 25.62919356 18.76500053 27.61226932 20.06816101 29.59506226 C23.1648776 34.30988876 26.24966778 39.03236521 29.32981873 43.75802612 C30.82335042 46.04274726 32.32673827 48.32054566 33.83427429 50.59603882 C34.64744417 51.83387527 35.46044803 53.07182081 36.27323914 54.30990601 C37.2909137 55.84832153 37.2909137 55.84832153 38.32914734 57.41781616 C42.03063743 63.84414407 42.9132213 69.98240276 41.97245789 77.27084351 C39.34812585 85.66870602 34.01041131 91.44467451 26.40995789 95.70834351 C20.21243191 97.13854181 15.305574 96.02444466 9.65995789 93.39584351 C8.97627136 93.08485718 8.29258484 92.77387085 7.58818054 92.45346069 C-10.85061037 83.88678426 -26.23140229 73.17973685 -41.02754211 59.27084351 C-41.66562805 58.69721069 -42.30371399 58.12357788 -42.96113586 57.53256226 C-53.71474541 47.449656 -63.13235578 34.29045516 -70.02754211 21.27084351 C-70.02754211 20.61084351 -70.02754211 19.95084351 -70.02754211 19.27084351 C-68.85191711 19.18834351 -67.67629211 19.10584351 -66.46504211 19.02084351 C-54.25803229 17.53722231 -44.23598522 13.56880859 -33.21504211 8.27084351 C-25.50166133 4.58724714 -18.00591602 1.19753833 -9.65254211 -0.72915649 C-8.92833069 -0.90704712 -8.20411926 -1.08493774 -7.45796204 -1.26821899 C-2.61027864 -2.22613391 -2.61027864 -2.22613391 0 0 Z " fill="#D1DBFC" transform="translate(373.0275421142578,430.7291564941406)"/>
<path d="M0 0 C2.99501861 1.36563471 5.8345188 2.89191556 8.70166016 4.50927734 C9.81347656 5.13447266 10.92529297 5.75966797 12.07080078 6.40380859 C13.23294791 7.06129395 14.39505681 7.71884687 15.55712891 8.37646484 C16.73861079 9.04211125 17.92024991 9.70747868 19.10205078 10.37255859 C21.98446796 11.99612419 24.86525222 13.62251499 27.74462891 15.25146484 C31.00915159 40.0995048 31.00915159 40.0995048 27.74462891 49.25146484 C22.38548468 56.10890103 14.29398835 59.36979284 6.28833008 62.27880859 C3.560995 63.2143191 3.560995 63.2143191 0.74462891 65.25146484 C-3.26728645 64.91748602 -6.21256317 63.3629612 -9.66943359 61.38037109 C-10.67748047 60.80609375 -11.68552734 60.23181641 -12.72412109 59.64013672 C-13.76568359 59.0375 -14.80724609 58.43486328 -15.88037109 57.81396484 C-16.92966797 57.21519531 -17.97896484 56.61642578 -19.06005859 55.99951172 C-26.65306455 51.65300254 -26.65306455 51.65300254 -30.25537109 49.25146484 C-30.52234997 46.62684241 -30.60370093 44.24080552 -30.54833984 41.61865234 C-30.544095 40.86681671 -30.53985016 40.11498108 -30.53547668 39.34036255 C-30.5186628 36.93536799 -30.48100734 34.53120675 -30.44287109 32.12646484 C-30.42782768 30.49757068 -30.41413868 28.86866341 -30.40185547 27.23974609 C-30.36875063 23.2433305 -30.31695118 19.24753902 -30.25537109 15.25146484 C-29.76246582 14.97995605 -29.26956055 14.70844727 -28.76171875 14.42871094 C-27.29448463 13.6195921 -25.82781737 12.80944486 -24.36157227 11.99853516 C-22.70394697 11.08189104 -21.04524885 10.16718438 -19.38549805 9.25439453 C-14.20200838 6.38812751 -9.1726316 3.39091656 -4.29833984 0.01708984 C-2.25537109 -0.74853516 -2.25537109 -0.74853516 0 0 Z " fill="#CFDAFB" transform="translate(440.25537109375,177.74853515625)"/>
<path d="M0 0 C1.21719727 0.69802734 1.21719727 0.69802734 2.45898438 1.41015625 C3.40362549 1.90918457 4.3482666 2.40821289 5.3215332 2.92236328 C6.853302 3.78643799 6.853302 3.78643799 8.41601562 4.66796875 C9.41866455 5.2314502 10.42131348 5.79493164 11.4543457 6.37548828 C12.71400146 7.08817871 13.97365723 7.80086914 15.27148438 8.53515625 C19.29335937 10.80390625 23.31523437 13.07265625 27.45898438 15.41015625 C27.45898438 26.63015625 27.45898438 37.85015625 27.45898438 49.41015625 C22.92148438 52.07078125 18.38398438 54.73140625 13.70898438 57.47265625 C12.28360352 58.31707275 10.85822266 59.16148926 9.38964844 60.03149414 C7.6992041 61.00977173 7.6992041 61.00977173 5.97460938 62.0078125 C5.09844971 62.53368958 5.09844971 62.53368958 4.20458984 63.07019043 C0.06679645 65.43753648 0.06679645 65.43753648 -2.58422852 65.31811523 C-5.24974635 64.08130166 -7.80437513 62.72850919 -10.36523438 61.28515625 C-11.47576172 60.66125 -12.58628906 60.03734375 -13.73046875 59.39453125 C-14.30418213 59.06904297 -14.87789551 58.74355469 -15.46899414 58.40820312 C-17.23046011 57.40905328 -18.99569742 56.41685309 -20.76171875 55.42578125 C-29.38952197 50.56164991 -29.38952197 50.56164991 -30.54101562 49.41015625 C-30.62949305 46.88921549 -30.65628864 44.39584732 -30.63867188 41.875 C-30.63725693 41.12174942 -30.63584198 40.36849884 -30.63438416 39.59242249 C-30.62876938 37.17746065 -30.61621445 34.76259024 -30.60351562 32.34765625 C-30.59850252 30.71419404 -30.59393929 29.08073039 -30.58984375 27.44726562 C-30.57879516 23.4348604 -30.56152069 19.42252384 -30.54101562 15.41015625 C-26.65844182 13.07140308 -22.76267735 10.75714402 -18.8527832 8.46435547 C-17.5249964 7.68120609 -16.20104066 6.89152301 -14.88110352 6.09521484 C-12.98189428 4.95097521 -11.07010064 3.83101819 -9.15429688 2.71484375 C-8.27430779 2.17438919 -8.27430779 2.17438919 -7.37654114 1.62301636 C-4.64099963 0.05805834 -3.12899145 -0.72633007 0 0 Z " fill="#FAC950" transform="translate(202.541015625,332.58984375)"/>
<path d="M0 0 C2.94719509 1.1240694 5.54555892 2.62553437 8.27050781 4.21508789 C8.84194519 4.54661362 9.41338257 4.87813934 10.00213623 5.2197113 C11.81827164 6.2747742 13.63034047 7.33660746 15.44238281 8.39868164 C16.6764953 9.11723166 17.91086757 9.83533569 19.14550781 10.55297852 C22.16415929 12.30889008 25.17920271 14.0708938 28.19238281 15.83618164 C28.51587061 20.5311572 28.75044621 25.21957104 28.90649414 29.9230957 C28.97154945 31.51864572 29.06004597 33.11342978 29.1730957 34.70629883 C29.53934118 40.00277184 29.59623994 44.68355955 28.19238281 49.83618164 C24.3642773 53.70774884 20.14037295 55.67896649 15.19238281 57.83618164 C13.79002357 58.66358401 12.40034932 59.51370126 11.03613281 60.40258789 C9.93269531 61.06129883 8.82925781 61.72000977 7.69238281 62.39868164 C6.00628906 63.42155273 6.00628906 63.42155273 4.28613281 64.46508789 C0.71348349 66.04842112 -0.15163928 65.90502126 -3.80761719 64.83618164 C-5.82721041 63.84937997 -7.81117837 62.78800066 -9.76464844 61.67602539 C-10.87646484 61.04760742 -11.98828125 60.41918945 -13.13378906 59.77172852 C-14.29598394 59.10586211 -15.45809225 58.43984458 -16.62011719 57.77368164 C-17.80139936 57.10312791 -18.98303664 56.43319933 -20.16503906 55.76391602 C-23.04945093 54.12745377 -25.93008369 52.48469918 -28.80761719 50.83618164 C-32.63163797 20.80781332 -32.63163797 20.80781332 -26.50048828 12.83666992 C-20.76331104 8.19474591 -14.27145491 5.26303784 -7.35131836 2.79296875 C-4.68447728 1.78986383 -2.85021311 -0.25830537 0 0 Z " fill="#B0D852" transform="translate(193.8076171875,190.163818359375)"/>
<path d="M0 0 C10.160789 2.88183149 20.93406522 7.38351776 27.68481445 15.76147461 C32.0749036 25.91997148 30.82624347 39.42166059 27.68481445 49.76147461 C24.64787171 54.82411369 20.18284115 56.50885188 14.70776367 58.09008789 C11.44553809 59.17277198 8.86999685 61.0080457 5.99731445 62.88647461 C1.25751835 65.83655517 1.25751835 65.83655517 -1.10668945 65.52661133 C-3.98587059 64.52911479 -6.48450976 63.13282777 -9.1394043 61.63647461 C-10.24993164 61.01256836 -11.36045898 60.38866211 -12.50463867 59.74584961 C-13.07835205 59.42036133 -13.65206543 59.09487305 -14.24316406 58.75952148 C-16.00463004 57.76037164 -17.76986735 56.76817145 -19.53588867 55.77709961 C-28.16369189 50.91296827 -28.16369189 50.91296827 -29.31518555 49.76147461 C-31.03869698 39.25954496 -33.01254364 25.98014943 -29.31518555 15.76147461 C-23.94361332 8.91141514 -15.86787801 5.64435773 -7.85888672 2.73413086 C-0.55816763 -0.05750604 -0.55816763 -0.05750604 0 0 Z " fill="#FB7C9F" transform="translate(447.315185546875,319.238525390625)"/>
<path d="M0 0 C2.97934563 1.41600768 5.76234373 3.07266957 8.5625 4.8125 C9.65594727 5.47088867 9.65594727 5.47088867 10.77148438 6.14257812 C12.86159533 7.40868494 14.93849424 8.6877891 17 10 C18.56633179 10.85525269 18.56633179 10.85525269 20.16430664 11.7277832 C23 14 23 14 24.06201172 17.16943359 C24.46405661 21.24701239 24.78230325 25.27895518 24.875 29.375 C24.8966925 30.10042999 24.91838501 30.82585999 24.94073486 31.57327271 C25.01775654 37.93960083 24.84095639 43.69919788 20.71484375 48.85595703 C13.15911686 55.00205256 2.86205202 60.31649948 -7 61 C-9.65307617 59.9519043 -9.65307617 59.9519043 -12.29296875 58.32421875 C-13.25267578 57.74349609 -14.21238281 57.16277344 -15.20117188 56.56445312 C-16.18666016 55.94505859 -17.17214844 55.32566406 -18.1875 54.6875 C-19.18458984 54.07970703 -20.18167969 53.47191406 -21.20898438 52.84570312 C-24.84705764 50.62066439 -28.45157227 48.36561849 -32 46 C-32.70407976 41.52944912 -32.68516616 37.02595269 -32.72070312 32.50683594 C-32.74974894 30.26933979 -32.8426649 28.04022746 -32.9375 25.8046875 C-33.17276622 15.44356625 -33.17276622 15.44356625 -30.22900391 11.82006836 C-27.88903877 10.244559 -25.5858453 9.1197543 -23 8 C-21.61037366 7.15620714 -20.23198101 6.29355108 -18.8671875 5.41015625 C-17.53852705 4.6240969 -16.20781125 3.84150068 -14.875 3.0625 C-14.21113281 2.65193359 -13.54726563 2.24136719 -12.86328125 1.81835938 C-8.20485421 -0.88462226 -5.37090371 -1.59883572 0 0 Z " fill="#FC8E02" transform="translate(317,116)"/>
<path d="M0 0 C1.26582219 3.86723631 1.1118765 7.73151262 1.0625 11.75 C1.05798828 12.44738281 1.05347656 13.14476562 1.04882812 13.86328125 C1.0371002 15.57555803 1.01916653 17.28779033 1 19 C-6.45045688 19.52729342 -13.90127506 20.04920612 -21.35256386 20.56460571 C-24.81400342 20.80419293 -28.27530348 21.04550167 -31.73632812 21.29101562 C-35.73270783 21.57442466 -39.72960505 21.84985787 -43.7265625 22.125 C-44.94485748 22.21249512 -46.16315247 22.29999023 -47.41836548 22.39013672 C-55.64199927 22.94817077 -63.7575936 23.07379883 -72 23 C-72.33 16.73 -72.66 10.46 -73 4 C-62.32679455 2.5824649 -51.75186782 1.49776468 -41 0.875 C-39.94596481 0.81146332 -39.94596481 0.81146332 -38.87063599 0.74664307 C-25.90980093 -0.02670658 -12.98371625 -0.24536751 0 0 Z " fill="#90AFF1" transform="translate(349,279)"/>
<path d="M0 0 C0.33 0 0.66 0 1 0 C1.22042969 1.41925781 1.22042969 1.41925781 1.4453125 2.8671875 C3.76636301 16.88138197 7.8476774 30.25564451 14.1171875 43.03125 C15 45 15 45 15 47 C-3.43211561 47.35790516 -3.43211561 47.35790516 -10.03125 45.51171875 C-13.62689605 44.57713615 -17.30887594 44.35153562 -21 44 C-19.42734187 38.72088938 -17.12716899 33.99589152 -14.6484375 29.1015625 C-14.02009506 27.84912247 -14.02009506 27.84912247 -13.37905884 26.57138062 C-12.04813564 23.92067567 -10.71165894 21.27281647 -9.375 18.625 C-8.4683812 16.82179996 -7.5621272 15.01841646 -6.65625 13.21484375 C-4.44171816 8.80776041 -2.22220342 4.40321971 0 0 Z " fill="#D0DAFB" transform="translate(287,403)"/>
<path d="M0 0 C1.36834441 13.0411229 2.31309834 25.88465846 2 39 C1.11248047 38.76216797 1.11248047 38.76216797 0.20703125 38.51953125 C-4.67175937 37.37107257 -8.4903373 37.45172491 -12.8125 40 C-13.864375 40.66 -14.91625 41.32 -16 42 C-16.66 42 -17.32 42 -18 42 C-18.7737724 37.00624201 -19.27667052 32.04691516 -19.5625 27 C-19.6049585 26.27176025 -19.64741699 25.54352051 -19.69116211 24.79321289 C-20.08170576 17.52532921 -20.09532737 10.27665577 -20 3 C-19.24460938 3.33257812 -18.48921875 3.66515625 -17.7109375 4.0078125 C-14.02809634 5.35571114 -11.79716555 4.9165572 -8 4 C-5.63504519 2.84098445 -2.50351703 0 0 0 Z " fill="#6966F6" transform="translate(206,273)"/>
<path d="M0 0 C0.286728 4.75045773 0.57150152 9.50102715 0.85449219 14.25170898 C0.95096454 15.86664976 1.04796384 17.48155915 1.14550781 19.09643555 C1.28590384 21.42228199 1.42438268 23.74823601 1.5625 26.07421875 C1.60624756 26.79212082 1.64999512 27.51002289 1.69506836 28.24967957 C1.90629259 31.83849925 2.04903885 35.4048391 2 39 C0.515 38.505 0.515 38.505 -1 38 C-6.32563279 37.25141708 -10.14338295 37.77179217 -14.8046875 40.5234375 C-15.59601074 40.98411621 -16.38733398 41.44479492 -17.20263672 41.91943359 C-17.7957666 42.27602051 -18.38889648 42.63260742 -19 43 C-19.62825257 29.65965829 -20.17678395 16.35700949 -20 3 C-19.01 3.33 -18.02 3.66 -17 4 C-9.91022816 4.59081432 -6.0451969 0 0 0 Z " fill="#6865F5" transform="translate(452,260)"/>
<path d="M0 0 C0.33 0 0.66 0 1 0 C1.00142502 0.6403569 1.00285004 1.28071381 1.00431824 1.94047546 C1.02401147 8.60813173 1.07827753 15.27487206 1.15258789 21.94213867 C1.17577856 24.43002755 1.19016607 26.91801474 1.19555664 29.40600586 C1.2048378 32.98353427 1.24581411 36.55951379 1.29296875 40.13671875 C1.2890361 41.24834885 1.28510345 42.35997894 1.28105164 43.5052948 C1.34921515 49.77636237 1.34921515 49.77636237 4.3684082 55.12817383 C6.85348437 56.89578483 9.31931155 58.54476913 12 60 C10.56788532 64.29634405 7.33861082 65.53546916 3.625 67.75 C2.16902709 68.63762115 0.7132992 69.52564432 -0.7421875 70.4140625 C-1.46245117 70.85008789 -2.18271484 71.28611328 -2.92480469 71.73535156 C-5.80894168 73.49297858 -8.6548211 75.30497695 -11.5 77.125 C-12.3765625 77.68445313 -13.253125 78.24390625 -14.15625 78.8203125 C-14.7646875 79.20960938 -15.373125 79.59890625 -16 80 C-17.84087999 77.38021769 -19.67138435 74.75335419 -21.5 72.125 C-22.02464844 71.37863281 -22.54929687 70.63226563 -23.08984375 69.86328125 C-23.58613281 69.14785156 -24.08242188 68.43242187 -24.59375 67.6953125 C-25.28500977 66.7055542 -25.28500977 66.7055542 -25.99023438 65.69580078 C-27 64 -27 64 -27 62 C-25.36694336 60.75073242 -25.36694336 60.75073242 -23.08984375 59.35546875 C-22.26419922 58.84306641 -21.43855469 58.33066406 -20.58789062 57.80273438 C-19.71326172 57.26970703 -18.83863281 56.73667969 -17.9375 56.1875 C-16.23702943 55.14135499 -14.53779075 54.09320469 -12.83984375 53.04296875 C-11.70083618 52.34723755 -11.70083618 52.34723755 -10.53881836 51.63745117 C-9.28210327 50.82691284 -9.28210327 50.82691284 -8 50 C-7.39664322 49.68985458 -6.79328644 49.37970917 -6.17164612 49.06016541 C-3.23417493 47.36821136 -1.34267634 46.15808261 -0.35438538 42.81813049 C-0.09228158 40.07954853 -0.05674545 37.41879045 -0.09765625 34.66796875 C-0.08536484 33.67622147 -0.07307343 32.68447418 -0.06040955 31.66267395 C-0.02868507 28.50352936 -0.04495547 25.34671746 -0.0625 22.1875 C-0.04939087 20.04229602 -0.03315097 17.89710872 -0.01367188 15.75195312 C0.02717772 10.50095426 0.02865821 5.25105482 0 0 Z " fill="#6866F0" transform="translate(397,327)"/>
<path d="M0 0 C4.72082675 1.79750918 9.25213118 3.96154113 13.8125 6.125 C16.514375 7.40375 19.21625 8.6825 22 10 C19.03 16.27 16.06 22.54 13 29 C9.885625 27.55625 6.77125 26.1125 3.5625 24.625 C2.57967041 24.17334473 1.59684082 23.72168945 0.58422852 23.25634766 C-0.56928101 22.7156665 -0.56928101 22.7156665 -1.74609375 22.1640625 C-2.53685303 21.79748535 -3.3276123 21.4309082 -4.14233398 21.05322266 C-6 20 -6 20 -7 18 C-6.195625 17.731875 -5.39125 17.46375 -4.5625 17.1875 C-3.716875 16.795625 -2.87125 16.40375 -2 16 C-0.89485234 12.68455701 -0.67892369 9.79589889 -0.4375 6.3125 C-0.35371094 5.13300781 -0.26992187 3.95351563 -0.18359375 2.73828125 C-0.12300781 1.83464844 -0.06242188 0.93101562 0 0 Z " fill="#6764F5" transform="translate(250,379)"/>
<path d="M0 0 C4.36879433 2.34042553 4.36879433 2.34042553 6 5 C6.85383549 8.5191868 6.85942202 11.48156087 6 15 C4.24865652 17.76527917 3.02677226 18.34903331 0 20 C-3.46661281 20.619038 -5.6722863 20.80972674 -8.7421875 18.9375 C-10.94334633 17.16814744 -12.72761042 15.54477916 -14 13 C-14.4136968 8.34591099 -13.81070393 5.74760524 -11 2 C-7.28037496 -0.47975003 -4.30819875 -0.75454328 0 0 Z " fill="#6966F6" transform="translate(332,495)"/>
<path d="M0 0 C2.69084129 1.69947871 3.69680223 3.02158266 4.63671875 6.0546875 C5.2247844 9.25937556 5.48549506 11.8299569 4.21875 14.8828125 C2.02919102 17.94523621 -0.34692674 19.4348606 -3.9375 20.1875 C-7.33800049 20.34850855 -8.24860131 19.86439929 -11.4375 18.125 C-14.38088067 15.22205038 -15.09839881 12.28416488 -15.30859375 8.22265625 C-14.76210147 4.28652828 -12.90445882 2.64041711 -10 0 C-6.19426871 -1.2685771 -3.89430952 -0.88817586 0 0 Z " fill="#6965F6" transform="translate(277,479)"/>
<path d="M0 0 C3.49406769 1.66762322 4.82670681 2.74006022 7 6 C7.67226891 12.94677871 7.67226891 12.94677871 5.125 16.9375 C1.8698054 20.09695358 -0.42413238 20.33421243 -4.9609375 20.29296875 C-8.13134567 19.83745033 -9.8192402 18.24684343 -12 16 C-13.57455739 12.85088521 -13.34799118 10.47991184 -13 7 C-9.66287692 1.39662169 -6.45572776 -0.50633159 0 0 Z " fill="#6A66F7" transform="translate(376,469)"/>
</svg>
