<?xml version="1.0" encoding="UTF-8"?>
<svg version="1.1" xmlns="http://www.w3.org/2000/svg" width="640" height="640">
<path d="M0 0 C211.2 0 422.4 0 640 0 C640 211.2 640 422.4 640 640 C428.8 640 217.6 640 0 640 C0 428.8 0 217.6 0 0 Z " fill="#FEFEFE" transform="translate(0,0)"/>
<path d="M0 0 C2.61450195 1.12646484 2.61450195 1.12646484 5.23828125 2.7109375 C6.70430786 3.58214233 6.70430786 3.58214233 8.19995117 4.47094727 C9.22709229 5.09928467 10.2542334 5.72762207 11.3125 6.375 C13.46088177 7.66285339 15.60931963 8.95061321 17.7578125 10.23828125 C18.81387695 10.87717285 19.86994141 11.51606445 20.95800781 12.17431641 C23.68154663 13.80887686 26.42121349 15.40582627 29.1796875 16.98046875 C29.94885498 17.42148926 30.71802246 17.86250977 31.51049805 18.31689453 C32.9155086 19.12079314 34.32305678 19.92028032 35.73364258 20.71435547 C36.67566528 21.25987061 36.67566528 21.25987061 37.63671875 21.81640625 C38.43662231 22.27188843 38.43662231 22.27188843 39.25268555 22.73657227 C43.32554395 25.68152717 45.74696821 27.58457706 46.65942383 32.6887207 C46.70018827 34.100575 46.71476846 35.51335978 46.70703125 36.92578125 C46.72215256 37.67337204 46.73727386 38.42096283 46.75285339 39.19120789 C46.79564081 41.56528087 46.8045588 43.93808031 46.8125 46.3125 C46.83565158 47.92776802 46.86101831 49.54300591 46.88867188 51.15820312 C46.95143457 55.10558086 46.98383984 59.05216754 47 63 C51.31617187 64.88668249 55.63938165 66.75577942 59.9699707 68.60913086 C61.44142557 69.24174467 62.91086153 69.87907648 64.37817383 70.52124023 C66.49044093 71.4446865 68.60944134 72.35079582 70.73046875 73.25390625 C71.38274948 73.54342667 72.03503021 73.83294708 72.70707703 74.13124084 C76.569105 75.75225733 79.01764258 76.4182231 83 75 C84.84297301 74.11811598 86.65167833 73.16270532 88.4296875 72.15625 C89.46544922 71.57311035 90.50121094 70.9899707 91.56835938 70.38916016 C92.65955078 69.7657373 93.75074219 69.14231445 94.875 68.5 C95.99455078 67.87013184 97.11410156 67.24026367 98.26757812 66.59130859 C103.12764788 63.84330555 107.95679849 61.07391473 112.6640625 58.0703125 C113.32680176 57.65072266 113.98954102 57.23113281 114.67236328 56.79882812 C116.36689929 55.710486 118.04367917 54.59463162 119.71875 53.4765625 C124.06193595 51.52212882 127.31811315 51.07932551 132 52 C135.82899751 53.56017908 139.28414393 55.60554359 142.8125 57.75 C143.80282227 58.33257568 144.79314453 58.91515137 145.81347656 59.51538086 C147.86528524 60.72610485 149.91199245 61.9455142 151.95361328 63.17333984 C154.90086618 64.94055784 157.86621147 66.67215738 160.83984375 68.39453125 C162.64394373 69.44929958 164.44736147 70.50523595 166.25 71.5625 C167.08893799 72.05008789 167.92787598 72.53767578 168.79223633 73.04003906 C169.56720459 73.50249023 170.34217285 73.96494141 171.140625 74.44140625 C171.81641602 74.84045166 172.49220703 75.23949707 173.18847656 75.65063477 C176.11736532 77.83230164 177.81401918 79.825532 178.39440918 83.49069214 C178.40282837 84.42301666 178.41124756 85.35534119 178.41992188 86.31591797 C178.43583374 87.3773703 178.45174561 88.43882263 178.46813965 89.53244019 C178.46844177 91.24501511 178.46844177 91.24501511 178.46875 92.9921875 C178.47636353 94.17088409 178.48397705 95.34958069 178.49182129 96.56399536 C178.50262594 99.05712771 178.50547394 101.55030533 178.50097656 104.04345703 C178.50000536 107.85396068 178.54160407 111.66244392 178.5859375 115.47265625 C178.59114531 117.89582914 178.59383268 120.31900902 178.59375 122.7421875 C178.61014526 123.87985565 178.62654053 125.0175238 178.64343262 126.18966675 C178.56650809 135.0164228 178.56650809 135.0164228 175.84448242 138.52441406 C172.96926205 141.02675159 170.20732456 142.98425443 166.89453125 144.8671875 C166.32925217 145.19163849 165.76397308 145.51608948 165.18156433 145.85037231 C163.99894817 146.52623182 162.81312733 147.1965127 161.62426758 147.86132812 C159.8000263 148.88197895 157.98646384 149.91983892 156.17382812 150.9609375 C147.30047898 156 147.30047898 156 145 156 C145.5507259 160.28678308 146.10209998 164.57348217 146.65405273 168.86010742 C146.84140175 170.31581414 147.02857927 171.77154293 147.21557617 173.22729492 C147.48570464 175.32997493 147.75646716 177.43257251 148.02734375 179.53515625 C148.27085571 181.42826538 148.27085571 181.42826538 148.51928711 183.35961914 C148.67792236 184.56094482 148.83655762 185.76227051 149 187 C149.06614502 188.22847656 149.13229004 189.45695313 149.20043945 190.72265625 C149.70343917 194.16253672 149.70343917 194.16253672 152.47753906 196.13647461 C154.1051416 197.01057983 154.1051416 197.01057983 155.765625 197.90234375 C156.35486755 198.22860245 156.94411011 198.55486115 157.5512085 198.89100647 C159.43900918 199.93014158 161.34286586 200.93436872 163.25 201.9375 C164.4856482 202.60637725 165.72003855 203.27758369 166.953125 203.95117188 C168.79699644 204.95838162 170.64104493 205.96507111 172.48864746 206.96542358 C176.77787976 209.29638314 180.99956213 211.71948202 185.171875 214.25390625 C186.19893555 214.87724854 187.22599609 215.50059082 188.28417969 216.14282227 C194.69663087 220.52789203 194.69663087 220.52789203 195.5146637 224.49742126 C195.52086227 225.43276199 195.52706085 226.36810272 195.53344727 227.33178711 C195.5492836 228.39646713 195.56511993 229.46114716 195.58143616 230.55809021 C195.57399635 232.27537071 195.57399635 232.27537071 195.56640625 234.02734375 C195.57260483 235.20841202 195.57880341 236.38948029 195.58518982 237.6063385 C195.59229277 240.10368017 195.58910581 242.60106914 195.57641602 245.09838867 C195.56256345 248.91999511 195.59660334 252.73914778 195.63476562 256.56054688 C195.63571692 258.98697977 195.63385745 261.41341572 195.62890625 263.83984375 C195.64216446 264.98267319 195.65542267 266.12550262 195.66908264 267.30296326 C195.5763409 275.20464194 195.5763409 275.20464194 192.78417969 279.05786133 C190.16441335 280.88531145 187.59556666 282.64551297 184.82421875 284.234375 C183.34598633 285.08974854 183.34598633 285.08974854 181.83789062 285.96240234 C180.79826172 286.55230957 179.75863281 287.1422168 178.6875 287.75 C177.61822266 288.36182129 176.54894531 288.97364258 175.44726562 289.60400391 C173.29895256 290.83221115 171.14907195 292.05768098 168.99755859 293.28027344 C166.35937103 294.79382558 163.74744212 296.34092928 161.14453125 297.9140625 C160.43401611 298.3359082 159.72350098 298.75775391 158.99145508 299.19238281 C157.71152577 299.95246342 156.43849648 300.72435327 155.17456055 301.51074219 C150.81100214 304.05466914 146.94290116 304.63107471 142 304 C138.52148438 302.53125 138.52148438 302.53125 135.09375 300.5 C134.48358032 300.14486328 133.87341064 299.78972656 133.24475098 299.42382812 C131.31987552 298.29854294 129.41020219 297.14998031 127.5 296 C126.18843522 295.22757647 124.87594207 294.45672703 123.5625 293.6875 C120.36406987 291.80973461 117.17880693 289.91084158 114 288 C107.6193452 292.11691936 101.57995545 296.54189452 95.625 301.25 C94.05539104 302.48526949 92.48510724 303.71968209 90.9140625 304.953125 C90.2329541 305.49098633 89.5518457 306.02884766 88.85009766 306.58300781 C87.28005565 307.78550502 85.64548994 308.90300671 84 310 C83.19605514 314.55951588 83.88884685 317.29177614 86.421875 321.0234375 C87.51518319 322.48610656 88.62563596 323.93606669 89.75 325.375 C90.9541929 326.97575971 92.15729372 328.57734147 93.359375 330.1796875 C93.97103516 330.9850293 94.58269531 331.79037109 95.21289062 332.62011719 C97.89252366 336.18856839 100.44663524 339.84069196 103 343.5 C106.63573095 348.68405919 110.32309355 353.82519104 114.06103516 358.93603516 C133.62996105 385.74642539 133.62996105 385.74642539 133.375 400.375 C133.36557373 401.21208496 133.35614746 402.04916992 133.34643555 402.91162109 C133.1976802 409.00525641 132.55627121 414.40300296 130 420 C129.6596875 420.75152344 129.319375 421.50304687 128.96875 422.27734375 C123.08814677 433.89948189 113.64379323 442.2444011 101.26953125 446.41796875 C92.58614814 448.64486046 83.52242986 449.16029484 74.6171875 449.91015625 C62.93390877 450.91057842 51.25723457 451.97556798 39.58148193 453.05996704 C36.09364224 453.38371198 32.6056656 453.70595297 29.11767578 454.02807617 C17.93375807 455.06301484 6.75187849 456.11424812 -4.42578125 457.21484375 C-6.34464081 457.40255118 -8.26350463 457.59021511 -10.18237305 457.77783203 C-13.70665375 458.12262784 -17.23007831 458.4748655 -20.75317383 458.83154297 C-38.3796074 460.58320395 -53.0044225 460.97484086 -68 450 C-76.23142447 443.02715889 -81.12143629 435.34726956 -84 425 C-84.185625 424.40960937 -84.37125 423.81921875 -84.5625 423.2109375 C-85.20913916 419.94310029 -85.22500566 416.69299862 -85.25 413.375 C-85.270625 412.71371094 -85.29125 412.05242187 -85.3125 411.37109375 C-85.40518671 399.29865041 -79.23472486 388.71998756 -74.125 378.125 C-72.97228311 375.71408462 -71.82214814 373.30194788 -70.67204285 370.88978577 C-69.89847728 369.26791552 -69.12407315 367.64644497 -68.34883118 366.02537537 C-64.82176705 358.64701689 -61.36900841 351.23567904 -57.9375 343.8125 C-53.32875719 333.85727503 -48.68952515 323.9174248 -44 314 C-50.02118201 312.50090253 -54.16656846 312.62905913 -59.6640625 315.6484375 C-61.66614755 316.86612853 -63.65275927 318.10954257 -65.625 319.375 C-67.74191497 320.66711328 -69.85910316 321.95877902 -71.9765625 323.25 C-73.98448519 324.49982299 -75.99230485 325.74981152 -78 327 C-80.98169292 328.82463521 -83.98146617 330.61216447 -87 332.375 C-87.60279785 332.74931152 -88.2055957 333.12362305 -88.82666016 333.50927734 C-93.19399984 336.0608848 -97.07556973 337.21670717 -102 336 C-106.7245354 333.85533475 -111.12642976 331.23590595 -115.5625 328.5625 C-116.81609211 327.82253215 -118.07049089 327.08392922 -119.32568359 326.34667969 C-121.78252437 324.90008935 -124.23326101 323.44394839 -126.67919922 321.97900391 C-129.47051722 320.3155409 -132.27484853 318.68334145 -135.09765625 317.07421875 C-136.44039523 316.29998374 -137.78287595 315.5253005 -139.125 314.75 C-140.79949219 313.78320312 -140.79949219 313.78320312 -142.5078125 312.796875 C-145.16818787 310.87873601 -145.83282123 309.98553367 -147 307 C-147.27415466 304.5852356 -147.27415466 304.5852356 -147.30639648 301.86767578 C-147.32238388 300.84626495 -147.33837128 299.82485413 -147.35484314 298.77249146 C-147.36020584 297.6745224 -147.36556854 296.57655334 -147.37109375 295.4453125 C-147.38463646 293.74385574 -147.38463646 293.74385574 -147.39845276 292.00802612 C-147.4129568 289.60905599 -147.42184237 287.21004629 -147.42553711 284.81103516 C-147.43743353 281.1454794 -147.48662113 277.48160678 -147.53710938 273.81640625 C-147.54657367 271.48438321 -147.55380867 269.15234984 -147.55859375 266.8203125 C-147.57812607 265.72639191 -147.59765839 264.63247131 -147.61778259 263.50540161 C-147.56754165 255.00989463 -147.56754165 255.00989463 -144.72412109 251.42358398 C-142.4602492 249.40947247 -140.52138802 247.80303797 -137.85546875 246.40234375 C-137.09556641 245.99306641 -136.33566406 245.58378906 -135.55273438 245.16210938 C-134.38194336 244.55592773 -134.38194336 244.55592773 -133.1875 243.9375 C-130.87432273 242.71013939 -128.56543368 241.47711005 -126.26708984 240.22216797 C-124.74354112 239.40083641 -123.20117426 238.61357819 -121.64306641 237.85986328 C-119.4902902 236.72540094 -117.74640299 235.69544076 -116 234 C-115.46102612 230.80516138 -115.51450482 229.1070427 -116 226 C-116.1546875 224.56261475 -116.1546875 224.56261475 -116.3125 223.09619141 C-116.66678751 219.82859366 -117.07709862 216.57188859 -117.5 213.3125 C-117.78400181 211.100612 -118.06535212 208.88838157 -118.34375 206.67578125 C-118.46943359 205.70552002 -118.59511719 204.73525879 -118.72460938 203.7355957 C-118.98647075 201.13439295 -119.04994055 198.61206931 -119 196 C-119.88002686 195.80905762 -119.88002686 195.80905762 -120.77783203 195.61425781 C-124.42814943 194.60522699 -127.5972612 192.60440664 -130.875 190.75 C-131.64859863 190.31397461 -132.42219727 189.87794922 -133.21923828 189.42871094 C-134.9057574 188.47385086 -136.59041113 187.51569048 -138.2734375 186.5546875 C-140.15569651 185.48142233 -142.04133741 184.41407415 -143.9296875 183.3515625 C-146.92024326 181.66597653 -149.89864022 179.96050622 -152.875 178.25 C-154.29208252 177.45480957 -154.29208252 177.45480957 -155.73779297 176.64355469 C-156.62611816 176.12696289 -157.51444336 175.61037109 -158.4296875 175.078125 C-159.60893799 174.40378418 -159.60893799 174.40378418 -160.81201172 173.71582031 C-164.44466568 170.86709324 -166.6863152 168.18402313 -167.36029053 163.4914856 C-167.51321091 160.39159737 -167.52805677 157.31835172 -167.49609375 154.21484375 C-167.49754898 153.08099747 -167.49900421 151.94715118 -167.50050354 150.77894592 C-167.49884712 148.38767928 -167.48731479 145.99640169 -167.46655273 143.60522461 C-167.43757242 139.94664231 -167.44595553 136.28950737 -167.45898438 132.63085938 C-167.45274743 130.30468046 -167.44435685 127.97850612 -167.43359375 125.65234375 C-167.43652939 124.55953598 -167.43946503 123.46672821 -167.44248962 122.34080505 C-167.32207886 112.64527665 -167.32207886 112.64527665 -164 109 C-161.54248047 107.21411133 -161.54248047 107.21411133 -158.6171875 105.58203125 C-157.00154907 104.66659546 -157.00154907 104.66659546 -155.35327148 103.73266602 C-154.20544189 103.09901123 -153.0576123 102.46535645 -151.875 101.8125 C-150.09882855 100.81882586 -148.32455267 99.82182902 -146.55046082 98.82444763 C-145.36967774 98.16096019 -144.18804721 97.49897866 -143.00556946 96.83851624 C-139.55513621 94.90463033 -136.16608534 92.90005284 -132.81640625 90.796875 C-132.06439941 90.32918701 -131.31239258 89.86149902 -130.53759766 89.37963867 C-129.18775907 88.53304728 -127.84665181 87.6722818 -126.51708984 86.79418945 C-121.73827467 83.83845091 -117.56622268 82.79662575 -112 84 C-107.86509374 85.75855663 -104.08646952 87.98339173 -100.25 90.3125 C-99.23550781 90.90740234 -98.22101563 91.50230469 -97.17578125 92.11523438 C-89.81258467 96.44510359 -89.81258467 96.44510359 -86.42480469 98.75854492 C-84.14700972 100.18493637 -84.14700972 100.18493637 -81.94042969 99.87182617 C-79.65819275 98.84642757 -77.91203268 97.61018095 -75.953125 96.05078125 C-74.8084375 95.14875977 -74.8084375 95.14875977 -73.640625 94.22851562 C-72.85171875 93.59623047 -72.0628125 92.96394531 -71.25 92.3125 C-69.69323427 91.07876316 -68.1359462 89.8456851 -66.578125 88.61328125 C-65.89137695 88.06454346 -65.20462891 87.51580566 -64.49707031 86.95043945 C-62 85 -62 85 -59.96195984 83.82858276 C-56.72619995 81.82362767 -54.40480907 80.37482442 -53.29830933 76.61689758 C-53.06053797 73.68402513 -53.07477984 70.84701219 -53.17578125 67.90625 C-53.17676315 66.84136353 -53.17774506 65.77647705 -53.17875671 64.67932129 C-53.18567518 61.28470383 -53.2448529 57.89391013 -53.3125 54.5 C-53.36425103 51.10657658 -53.40411385 47.71449213 -53.41410828 44.32067871 C-53.42173454 42.21243933 -53.45389056 40.10410736 -53.51374817 37.9967041 C-53.56491603 30.03637013 -53.56491603 30.03637013 -50.85595703 26.54443359 C-47.97462372 23.97739173 -45.24945373 22.06889431 -41.87890625 20.1953125 C-41.29769516 19.86763885 -40.71648407 19.53996521 -40.11766052 19.20236206 C-38.27206693 18.16513202 -36.41779931 17.14474725 -34.5625 16.125 C-33.35418845 15.45034451 -32.14650117 14.77456971 -30.93945312 14.09765625 C-29.12907399 13.08274535 -27.31739006 12.07085465 -25.49966431 11.06915283 C-22.35790511 9.33634504 -19.25104351 7.56430059 -16.17919922 5.70996094 C-15.24466164 5.15294998 -15.24466164 5.15294998 -14.29124451 4.58468628 C-12.56754537 3.55362056 -10.85173932 2.50939241 -9.13647461 1.46435547 C-5.67653479 -0.15101925 -3.76612769 -0.49946641 0 0 Z " fill="#6965F6" transform="translate(305,93)"/>
<path d="M0 0 C5.73886024 5.46140899 7.34605497 10.73228169 8.125 18.4375 C8.2077417 19.23647705 8.2904834 20.0354541 8.37573242 20.85864258 C10.33085435 40.92627123 10.33085435 40.92627123 6 48 C3.34725598 51.18184324 1.01923808 53.66025397 -3 55 C-1.99982575 67.70239251 -0.91582378 80.3975371 0.30966187 93.08026123 C0.49692524 95.03047851 0.67783726 96.9813023 0.85864258 98.93212891 C1.81016528 108.61766239 3.17450607 115.55352263 9.125 123.3125 C14 129.76549587 14 129.76549587 14 132 C19.88488739 128.86505999 24.97236581 125.07779203 30.1875 120.9375 C31.76416048 119.6964082 33.34097794 118.45551578 34.91796875 117.21484375 C35.60656982 116.66948975 36.2951709 116.12413574 37.00463867 115.56225586 C39 114 39 114 41.09555054 112.71029663 C43.19651097 111.16004117 43.19651097 111.16004117 43.4853363 108.74345398 C43.47913773 107.86220352 43.47293915 106.98095306 43.46655273 106.07299805 C43.4701329 105.07153244 43.47371307 104.07006683 43.47740173 103.03825378 C43.45571678 101.41636894 43.45571678 101.41636894 43.43359375 99.76171875 C43.44320185 97.47460871 43.45297256 95.18749934 43.46289062 92.90039062 C43.45429549 89.29264563 43.4374851 85.68507889 43.4152832 82.07739258 C43.40075399 78.59681284 43.4160269 75.1172621 43.43359375 71.63671875 C43.40887245 70.02394295 43.40887245 70.02394295 43.38365173 68.37858582 C43.43937024 60.01193346 43.43937024 60.01193346 46.30493164 56.41967773 C48.42101592 54.51982165 50.1894114 52.95641176 52.6875 51.6484375 C53.37650391 51.27775146 54.06550781 50.90706543 54.77539062 50.52514648 C55.50951172 50.14559814 56.24363281 49.7660498 57 49.375 C58.59461597 48.52114653 60.18832653 47.66560056 61.78125 46.80859375 C62.62171875 46.35983887 63.4621875 45.91108398 64.328125 45.44873047 C69.09934867 42.86170185 73.79585753 40.14400404 78.5 37.4375 C80.28094713 36.41483695 82.06217421 35.39266121 83.84375 34.37109375 C84.59849609 33.93724365 85.35324219 33.50339355 86.13085938 33.05639648 C89.99726154 30.87119244 92.49408023 30.68502308 97 31 C100.15869141 32.34179688 100.15869141 32.34179688 103.3515625 34.21875 C103.93231537 34.55491333 104.51306824 34.89107666 105.11141968 35.23742676 C106.95787201 36.31099086 108.791176 37.40503508 110.625 38.5 C111.8312416 39.20447882 113.03826864 39.90761456 114.24609375 40.609375 C117.24735607 42.35986614 120.23265913 44.1354005 123.21057129 45.92529297 C124.4163513 46.64946837 125.62366318 47.3710985 126.83239746 48.09033203 C128.608222 49.14776402 130.37894223 50.21326799 132.1484375 51.28125 C133.17888184 51.90064453 134.20932617 52.52003906 135.27099609 53.15820312 C141.68872052 57.48950685 141.68872052 57.48950685 142.5146637 61.49742126 C142.52086227 62.43276199 142.52706085 63.36810272 142.53344727 64.33178711 C142.5492836 65.39646713 142.56511993 66.46114716 142.58143616 67.55809021 C142.57399635 69.27537071 142.57399635 69.27537071 142.56640625 71.02734375 C142.57260483 72.20841202 142.57880341 73.38948029 142.58518982 74.6063385 C142.59229277 77.10368017 142.58910581 79.60106914 142.57641602 82.09838867 C142.56256345 85.91999511 142.59660334 89.73914778 142.63476562 93.56054688 C142.63571692 95.98697977 142.63385745 98.41341572 142.62890625 100.83984375 C142.64216446 101.98267319 142.65542267 103.12550262 142.66908264 104.30296326 C142.5763409 112.20464194 142.5763409 112.20464194 139.78417969 116.05786133 C137.16441335 117.88531145 134.59556666 119.64551297 131.82421875 121.234375 C130.34598633 122.08974854 130.34598633 122.08974854 128.83789062 122.96240234 C127.79826172 123.55230957 126.75863281 124.1422168 125.6875 124.75 C124.61822266 125.36182129 123.54894531 125.97364258 122.44726562 126.60400391 C120.29895256 127.83221115 118.14907195 129.05768098 115.99755859 130.28027344 C113.35937103 131.79382558 110.74744212 133.34092928 108.14453125 134.9140625 C107.07875854 135.54683105 107.07875854 135.54683105 105.99145508 136.19238281 C104.71152577 136.95246342 103.43849648 137.72435327 102.17456055 138.51074219 C97.81100214 141.05466914 93.94290116 141.63107471 89 141 C85.52148438 139.53125 85.52148438 139.53125 82.09375 137.5 C81.17849548 136.96729492 81.17849548 136.96729492 80.24475098 136.42382812 C78.31987552 135.29854294 76.41020219 134.14998031 74.5 133 C73.18843522 132.22757647 71.87594207 131.45672703 70.5625 130.6875 C67.36406987 128.80973461 64.17880693 126.91084158 61 125 C54.6193452 129.11691936 48.57995545 133.54189452 42.625 138.25 C41.05539104 139.48526949 39.48510724 140.71968209 37.9140625 141.953125 C37.2329541 142.49098633 36.5518457 143.02884766 35.85009766 143.58300781 C34.28005565 144.78550502 32.64548994 145.90300671 31 147 C30.19605514 151.55951588 30.88884685 154.29177614 33.421875 158.0234375 C34.51518319 159.48610656 35.62563596 160.93606669 36.75 162.375 C37.9541929 163.97575971 39.15729372 165.57734147 40.359375 167.1796875 C40.97103516 167.9850293 41.58269531 168.79037109 42.21289062 169.62011719 C44.89252366 173.18856839 47.44663524 176.84069196 50 180.5 C53.63573095 185.68405919 57.32309355 190.82519104 61.06103516 195.93603516 C80.62996105 222.74642539 80.62996105 222.74642539 80.375 237.375 C80.36557373 238.21208496 80.35614746 239.04916992 80.34643555 239.91162109 C80.1976802 246.00525641 79.55627121 251.40300296 77 257 C76.6596875 257.75152344 76.319375 258.50304687 75.96875 259.27734375 C70.08814677 270.89948189 60.64379323 279.2444011 48.26953125 283.41796875 C39.58614814 285.64486046 30.52242986 286.16029484 21.6171875 286.91015625 C9.93390877 287.91057842 -1.74276543 288.97556798 -13.41851807 290.05996704 C-16.90635776 290.38371198 -20.3943344 290.70595297 -23.88232422 291.02807617 C-35.06624193 292.06301484 -46.24812151 293.11424812 -57.42578125 294.21484375 C-59.34464081 294.40255118 -61.26350463 294.59021511 -63.18237305 294.77783203 C-66.70665375 295.12262784 -70.23007831 295.4748655 -73.75317383 295.83154297 C-91.3796074 297.58320395 -106.0044225 297.97484086 -121 287 C-129.23142447 280.02715889 -134.12143629 272.34726956 -137 262 C-137.185625 261.40960937 -137.37125 260.81921875 -137.5625 260.2109375 C-138.20913916 256.94310029 -138.22500566 253.69299862 -138.25 250.375 C-138.270625 249.71371094 -138.29125 249.05242187 -138.3125 248.37109375 C-138.40518671 236.29865041 -132.23472486 225.71998756 -127.125 215.125 C-125.97228311 212.71408462 -124.82214814 210.30194788 -123.67204285 207.88978577 C-122.89847728 206.26791552 -122.12407315 204.64644497 -121.34883118 203.02537537 C-117.82176705 195.64701689 -114.36900841 188.23567904 -110.9375 180.8125 C-106.32875719 170.85727503 -101.68952515 160.9174248 -97 151 C-99.97 150.34 -102.94 149.68 -106 149 C-105.51391769 148.44781799 -105.02783539 147.89563599 -104.52702332 147.32672119 C-102.71276537 144.56234139 -102.60743642 143.052761 -102.56762695 139.77246094 C-102.54783279 138.73168396 -102.52803864 137.69090698 -102.50764465 136.61859131 C-102.50125473 135.50179993 -102.49486481 134.38500854 -102.48828125 133.234375 C-102.47033005 132.08584045 -102.45237885 130.93730591 -102.43388367 129.75396729 C-102.37970659 126.08601552 -102.34586031 122.41819445 -102.3125 118.75 C-102.27933356 116.26300262 -102.24484454 113.7760225 -102.20898438 111.2890625 C-102.12397574 105.19282552 -102.05565704 99.09657178 -102 93 C-101.67 93 -101.34 93 -101 93 C-101 104.55 -101 116.1 -101 128 C-98.03 128.99 -95.06 129.98 -92 131 C-90.68 131.66 -89.36 132.32 -88 133 C-87.566875 131.63875 -87.566875 131.63875 -87.125 130.25 C-86 127 -86 127 -84.91235352 125.3215332 C-83.51970468 121.77786241 -84.00154939 118.32789664 -84.27734375 114.60546875 C-84.33035141 113.77299118 -84.38335907 112.94051361 -84.43797302 112.08280945 C-84.61324484 109.38757292 -84.80545822 106.69390912 -85 104 C-85.12414968 102.20135456 -85.24801072 100.40268917 -85.37158203 98.60400391 C-85.75076784 93.17214426 -86.15517948 87.74231016 -86.5625 82.3125 C-86.70265925 80.42384187 -86.84263402 78.53517003 -86.98242188 76.64648438 C-87.31950001 72.09749639 -87.65903209 67.54869801 -88 63 C-89.17937134 62.78065796 -89.17937134 62.78065796 -90.38256836 62.55688477 C-94.37365577 61.70774099 -97.09099796 59.82608511 -100 57 C-105.27296898 48.87677752 -105.55608273 40.39407274 -106 31 C-106.03544922 30.31599121 -106.07089844 29.63198242 -106.10742188 28.92724609 C-106.2010159 26.93168778 -106.25719277 24.93448621 -106.3125 22.9375 C-106.34988281 21.75027344 -106.38726562 20.56304687 -106.42578125 19.33984375 C-105.76851204 14.18419998 -103.03369337 10.450648 -99 7.25 C-94.36568099 3.77426074 -91.1630516 2.70223202 -85.375 2.0625 C-84.66553223 1.98386719 -83.95606445 1.90523438 -83.22509766 1.82421875 C-71.25756923 0.54535718 -59.25522625 -0.42995082 -47.26400757 -1.45785522 C-42.85433235 -1.83673707 -38.44629093 -2.23012639 -34.0390625 -2.63671875 C-33.00604004 -2.73082031 -31.97301758 -2.82492188 -30.90869141 -2.921875 C-29.04868479 -3.09173292 -27.18895033 -3.26461571 -25.32958984 -3.44140625 C-7.01083461 -5.0902719 -7.01083461 -5.0902719 0 0 Z " fill="#072C76" transform="translate(358,256)"/>
<path d="M0 0 C1.14892703 3.44678109 1.38418534 6.51547664 1.68359375 10.140625 C1.74320786 10.8515329 1.80282196 11.5624408 1.86424255 12.29489136 C1.99182739 13.82083539 2.11781676 15.34691349 2.24237061 16.87310791 C2.43827807 19.25947777 2.64129691 21.6451479 2.84619141 24.03076172 C3.44618532 31.05654019 4.02204158 38.07939408 4.46484375 45.1171875 C4.53582275 46.14811523 4.60680176 47.17904297 4.67993164 48.24121094 C4.80532028 50.09489131 4.91398738 51.94981973 5.00170898 53.80566406 C5.67605582 63.33347256 10.77625437 70.05321533 16.5 77.375 C21.03431956 83.29056048 25.33174304 89.32142223 29.5 95.5 C33.52210995 101.45305751 37.64342395 107.28702297 42 113 C46.35659919 118.71300738 50.47734764 124.54728717 54.5 130.5 C58.60606634 136.5757525 62.81630421 142.53368033 67.25 148.375 C70.95445183 153.25902408 74.610638 158.1643014 78.125 163.1875 C78.82882812 164.19167969 79.53265625 165.19585937 80.2578125 166.23046875 C84.50997223 172.99006797 84.86948261 179.13804675 84 187 C81.8750967 194.14560504 77.50254312 200.24585183 71 204 C63.13463271 207.04054851 55.21157878 207.77974431 46.86328125 208.4296875 C45.47978606 208.54540441 44.09637493 208.66213017 42.71304321 208.77978516 C39.01303698 209.09204084 35.31211354 209.39172325 31.61088181 209.68904877 C27.75044894 210.00137818 23.89099001 210.32525466 20.03149414 210.64892578 C18.46604993 210.78012968 16.90060499 210.91132472 15.3351593 211.04251099 C14.55765131 211.10769047 13.78014332 211.17286995 12.97907448 211.24002457 C10.61094985 211.43802153 8.24270768 211.63455743 5.87443542 211.83078003 C-4.21123528 212.66835934 -14.29065042 213.55905026 -24.3671875 214.5 C-25.62894302 214.61747589 -26.89069855 214.73495178 -28.19068909 214.85598755 C-32.96942106 215.30199862 -37.74799572 215.74936785 -42.52572632 216.20599365 C-45.75761059 216.51446276 -48.99005496 216.81634047 -52.22265625 217.1171875 C-53.14476898 217.20750244 -54.06688171 217.29781738 -55.01693726 217.39086914 C-76.12324644 219.33270079 -76.12324644 219.33270079 -83 214 C-88.96094345 208.513345 -93.4194878 202.94055361 -94.22290039 194.71899414 C-94.38477849 188.39051266 -93.23693357 184.00300262 -90.4375 178.375 C-89.84727051 177.12686523 -89.84727051 177.12686523 -89.24511719 175.85351562 C-88.35000014 173.96344934 -87.44663496 172.07727509 -86.53662109 170.19433594 C-84.83873793 166.66476758 -83.17544526 163.11968745 -81.51953125 159.5703125 C-78.96248903 154.09253422 -76.3971722 148.61876026 -73.82421875 143.1484375 C-70.37856571 135.81881967 -66.96537325 128.47458955 -63.5625 121.125 C-59.96768136 113.36175152 -56.35143194 105.60932292 -52.703125 97.87109375 C-52.33803329 97.0965686 -51.97294159 96.32204346 -51.5967865 95.52404785 C-49.80132055 91.71625603 -48.00372448 87.90948634 -46.20336914 84.10400391 C-45.54831076 82.71648508 -44.8932801 81.32895317 -44.23828125 79.94140625 C-43.93992371 79.31245956 -43.64156616 78.68351288 -43.33416748 78.0355072 C-40.31411887 71.63146127 -38.68317879 67.23554404 -39.1875 60.125 C-39.23575928 59.32489502 -39.28401855 58.52479004 -39.33374023 57.70043945 C-39.95900468 48.21097727 -40.96237182 38.74573884 -41.9831543 29.29150391 C-42.86458103 20.80348955 -43.17048481 12.53000576 -43 4 C-28.66210976 1.79783596 -14.54121336 -0.092033 0 0 Z " fill="#D1DBFC" transform="translate(334,314)"/>
<path d="M0 0 C1.18875732 0.49749756 2.37751465 0.99499512 3.60229492 1.50756836 C4.23890549 1.77250595 4.87551605 2.03744354 5.53141785 2.31040955 C7.55035789 3.15178315 9.56656723 3.99948802 11.58276367 4.84741211 C12.95693678 5.421401 14.33128402 5.99497318 15.70581055 6.56811523 C19.0626572 7.96889695 22.41708596 9.37536666 25.77026367 10.78491211 C25.79213745 12.3814563 25.79213745 12.3814563 25.81445312 14.01025391 C25.87256147 17.9708768 25.94979312 21.93093859 26.03271484 25.89111328 C26.06590536 27.60293449 26.09395556 29.31486359 26.11669922 31.02685547 C26.150354 33.4922469 26.20267341 35.95665492 26.25854492 38.42163086 C26.26812981 39.5641053 26.26812981 39.5641053 26.27790833 40.72966003 C26.40206259 45.24801006 26.86737613 48.26532259 29.77026367 51.78491211 C32.27020209 53.66895747 32.27020209 53.66895747 35.22338867 55.23803711 C36.31127686 55.85340332 37.39916504 56.46876953 38.52001953 57.1027832 C39.6751001 57.74038574 40.83018066 58.37798828 42.02026367 59.03491211 C43.20405617 59.69972408 44.38707907 60.36590826 45.56933594 61.03344727 C47.9007686 62.34973893 50.23432164 63.6619018 52.56958008 64.97143555 C57.82141497 67.94707472 62.96464359 71.0912254 68.11010742 74.24584961 C70.74052912 75.88687248 70.74052912 75.88687248 73.77026367 76.78491211 C74.44881574 81.24151937 75.11091908 85.70042602 75.77026367 90.15991211 C75.96104492 91.4115918 76.15182617 92.66327148 76.34838867 93.95288086 C76.87701159 97.55884436 77.33715138 101.16636207 77.77026367 104.78491211 C77.91592773 105.75332031 78.0615918 106.72172852 78.21166992 107.71948242 C78.46061926 110.35419624 78.53418757 112.24956189 77.77026367 114.78491211 C75.15598853 117.52572154 72.12124311 119.07762113 68.77026367 120.78491211 C67.12440608 121.73087444 65.48114968 122.68137749 63.84057617 123.63647461 C61.34874986 125.04009829 58.85205787 126.43376808 56.34838867 127.81616211 C55.13795898 128.5006543 55.13795898 128.5006543 53.90307617 129.19897461 C53.18007324 129.60067871 52.45707031 130.00238281 51.7121582 130.41625977 C49.44835105 132.01179697 48.24192237 133.43561314 46.77026367 135.78491211 C46.375506 138.1805854 46.375506 138.1805854 46.51245117 140.77783203 C46.53601685 142.26539253 46.53601685 142.26539253 46.56005859 143.78300476 C46.58817627 144.84968887 46.61629395 145.91637299 46.64526367 147.01538086 C46.66198125 149.28554678 46.67622562 151.55573201 46.68823242 153.82592773 C46.72109026 157.39737896 46.77008979 160.96569722 46.86254883 164.53613281 C47.35974411 185.5215536 47.35974411 185.5215536 43.5534668 190.17382812 C40.73906695 192.4879933 38.00656007 194.12684602 34.77026367 195.78491211 C33.25603188 196.9207429 31.76380407 198.08685484 30.30151367 199.28881836 C28.95955783 200.31071002 27.6158507 201.33030662 26.27026367 202.34741211 C25.23772461 203.14501953 25.23772461 203.14501953 24.18432617 203.95874023 C23.52174805 204.45954102 22.85916992 204.9603418 22.17651367 205.47631836 C21.59192383 205.92177002 21.00733398 206.36722168 20.4050293 206.82617188 C18.77026367 207.78491211 18.77026367 207.78491211 15.77026367 207.78491211 C14.45166016 206.42724609 14.45166016 206.42724609 13.14135742 204.53100586 C12.66375977 203.84071289 12.18616211 203.15041992 11.6940918 202.43920898 C11.20360352 201.70766602 10.71311523 200.97612305 10.20776367 200.22241211 C9.46623047 199.16570312 9.46623047 199.16570312 8.7097168 198.08764648 C3.33422354 190.19534583 2.36329765 182.69202464 1.44604492 173.33959961 C1.28026192 171.70754074 1.28026192 171.70754074 1.11112976 170.04251099 C0.88029618 167.75172379 0.65272281 165.460606 0.42822266 163.16918945 C0.08313416 159.66367564 -0.27674691 156.15989274 -0.63793945 152.65600586 C-0.86083729 150.42562614 -1.08287213 148.19515996 -1.30395508 145.96459961 C-1.41221115 144.91867645 -1.52046722 143.8727533 -1.63200378 142.7951355 C-1.72572769 141.8170694 -1.8194516 140.8390033 -1.91601562 139.83129883 C-2.00102829 138.97527069 -2.08604095 138.11924255 -2.17362976 137.23727417 C-2.23479335 134.56387462 -1.97534774 132.35347957 -1.22973633 129.78491211 C0.40817079 128.73847145 2.08034388 127.74509381 3.77026367 126.78491211 C7.72492809 122.91812912 9.58320261 119.68218348 9.93823242 114.18334961 C10.57442007 95.80735542 10.57442007 95.80735542 4.19995117 79.19506836 C0.62598984 75.66993164 -3.29724659 72.877039 -8.43676758 72.71557617 C-11.36844919 72.81117449 -14.29904023 72.91206856 -17.22973633 73.03491211 C-18.33969971 73.08010986 -19.44966309 73.12530762 -20.59326172 73.171875 C-29.79008384 73.60429513 -38.88741498 74.52876633 -48.02587891 75.62548828 C-57.21998146 76.71931187 -66.41480669 77.47132683 -75.65527344 78.05029297 C-85.38607016 78.71052204 -93.73015339 79.67727742 -100.54223633 87.40991211 C-104.6261082 93.15758363 -103.37739076 99.99437916 -103.22973633 106.78491211 C-103.21716797 107.45441895 -103.20459961 108.12392578 -103.19165039 108.8137207 C-102.95792738 118.49891607 -102.07665332 126.00225855 -95.91723633 133.65991211 C-93.28985355 136.04484763 -93.28985355 136.04484763 -89.54223633 136.65991211 C-86.22973633 138.78491211 -86.22973633 138.78491211 -85.52587891 141.60791016 C-85.39334717 142.80456299 -85.26081543 144.00121582 -85.12426758 145.23413086 C-85.04846466 145.89337051 -84.97266174 146.55261017 -84.89456177 147.23182678 C-84.652043 149.41457491 -84.43701919 151.59854682 -84.22973633 153.78491211 C-84.15796173 154.53357544 -84.08618713 155.28223877 -84.01223755 156.05358887 C-83.5674455 160.79443194 -83.17063087 165.53820526 -82.79711914 170.28515625 C-82.60299067 172.74452741 -82.40112372 175.20318201 -82.19848633 177.66186523 C-82.07042711 179.25362557 -81.94280695 180.84542129 -81.81567383 182.43725586 C-81.7563266 183.15823959 -81.69697937 183.87922333 -81.63583374 184.62205505 C-80.5549218 198.57024595 -80.5549218 198.57024595 -83.72973633 204.28491211 C-84.19379883 205.14084961 -84.65786133 205.99678711 -85.13598633 206.87866211 C-85.49692383 207.50772461 -85.85786133 208.13678711 -86.22973633 208.78491211 C-87.6476504 208.33045247 -89.06401679 207.87116267 -90.47973633 207.40991211 C-91.26864258 207.15467773 -92.05754883 206.89944336 -92.87036133 206.63647461 C-95.09816352 205.83240031 -97.12382772 204.86117906 -99.22973633 203.78491211 C-99.23384521 202.7560791 -99.2379541 201.72724609 -99.2421875 200.66723633 C-99.26404421 196.8312852 -99.31839986 192.99635035 -99.38232422 189.16088867 C-99.40544762 187.50441262 -99.41988665 185.84779073 -99.42529297 184.19116211 C-99.43462476 181.8022229 -99.47570097 179.41555932 -99.52270508 177.02709961 C-99.51877243 176.29248505 -99.51483978 175.55787048 -99.51078796 174.80099487 C-99.67378415 168.99020792 -101.20237708 166.68667211 -105.22973633 162.78491211 C-107.59357788 161.02769632 -107.59357788 161.02769632 -110.15161133 159.70678711 C-111.08730957 159.19019531 -112.02300781 158.67360352 -112.98706055 158.14135742 C-114.46843506 157.34616699 -114.46843506 157.34616699 -115.97973633 156.53491211 C-118.04031142 155.40072864 -120.10020092 154.26529875 -122.15942383 153.12866211 C-123.69034668 152.28948242 -123.69034668 152.28948242 -125.25219727 151.43334961 C-129.57862807 149.03813308 -133.84686928 146.54948833 -138.10473633 144.03491211 C-138.81726563 143.61693359 -139.52979492 143.19895508 -140.26391602 142.76831055 C-145.09938543 139.91526301 -145.09938543 139.91526301 -146.22973633 138.78491211 C-146.6013524 136.66637964 -146.91419961 134.53748965 -147.20239258 132.40600586 C-147.28976181 131.76051285 -147.37713104 131.11501984 -147.46714783 130.44996643 C-147.65162049 129.0774439 -147.83389219 127.70462407 -148.01416016 126.33154297 C-148.28801303 124.25444468 -148.57183993 122.17888653 -148.85668945 120.10327148 C-149.72644829 113.63471477 -150.49041727 107.31875379 -150.22973633 100.78491211 C-149.57489258 100.42252441 -148.92004883 100.06013672 -148.24536133 99.68676758 C-145.23672196 98.01724894 -142.23323509 96.3386599 -139.22973633 94.65991211 C-138.19977539 94.09014648 -137.16981445 93.52038086 -136.10864258 92.93334961 C-125.82860511 87.84471249 -125.82860511 87.84471249 -118.22973633 79.78491211 C-118.20183731 78.16155866 -118.23982376 76.53686824 -118.31005859 74.91479492 C-118.52487004 69.19582653 -118.63752954 63.48144566 -118.71582031 57.7590332 C-118.76634045 55.29694342 -118.84721659 52.83526998 -118.95996094 50.37524414 C-119.82963356 30.5188359 -119.82963356 30.5188359 -115.53167725 24.34619141 C-111.4151441 20.14719594 -106.72306196 17.10830894 -101.61911011 14.23986816 C-98.21568033 12.16742525 -95.26316774 9.62213996 -92.25636292 7.01690674 C-90.22973633 5.78491211 -90.22973633 5.78491211 -88.12521362 6.01376343 C-85.62039782 7.03281304 -83.33232567 8.27916049 -80.98364258 9.62084961 C-79.98139648 10.19061523 -78.97915039 10.76038086 -77.9465332 11.34741211 C-76.90561523 11.94553711 -75.86469727 12.54366211 -74.79223633 13.15991211 C-73.75518555 13.75030273 -72.71813477 14.34069336 -71.6496582 14.94897461 C-63.7619482 19.44755295 -63.7619482 19.44755295 -60.60107422 21.45117188 C-57.22728102 23.34873517 -55.057421 23.24407174 -51.22973633 22.78491211 C-48.43087804 21.71031072 -45.92675644 20.25381915 -43.35473633 18.72241211 C-42.22515503 18.07695435 -42.22515503 18.07695435 -41.07275391 17.41845703 C-36.21586202 14.61859028 -31.44086677 11.69118372 -26.67114258 8.74584961 C-24.9935083 7.71729858 -24.9935083 7.71729858 -23.28198242 6.66796875 C-21.0611476 5.30133835 -18.84895661 3.92054791 -16.64624023 2.52490234 C-15.11555908 1.58046265 -15.11555908 1.58046265 -13.55395508 0.61694336 C-12.64734131 0.04693604 -11.74072754 -0.52307129 -10.80664062 -1.11035156 C-6.62764979 -2.90191324 -4.12093193 -1.55037253 0 0 Z " fill="#FDFDFE" transform="translate(356.229736328125,180.215087890625)"/>
<path d="M0 0 C3.82899751 1.56017908 7.28414393 3.60554359 10.8125 5.75 C12.2979834 6.62386353 12.2979834 6.62386353 13.81347656 7.51538086 C15.86528524 8.72610485 17.91199245 9.9455142 19.95361328 11.17333984 C22.90086618 12.94055784 25.86621147 14.67215738 28.83984375 16.39453125 C30.64394373 17.44929958 32.44736147 18.50523595 34.25 19.5625 C35.08893799 20.05008789 35.92787598 20.53767578 36.79223633 21.04003906 C37.56720459 21.50249023 38.34217285 21.96494141 39.140625 22.44140625 C39.81641602 22.84045166 40.49220703 23.23949707 41.18847656 23.65063477 C44.11736532 25.83230164 45.81401918 27.825532 46.39440918 31.49069214 C46.40703796 32.88917892 46.40703796 32.88917892 46.41992188 34.31591797 C46.43583374 35.3773703 46.45174561 36.43882263 46.46813965 37.53244019 C46.46834106 38.6741568 46.46854248 39.81587341 46.46875 40.9921875 C46.47636353 42.17088409 46.48397705 43.34958069 46.49182129 44.56399536 C46.50262594 47.05712771 46.50547394 49.55030533 46.50097656 52.04345703 C46.50000536 55.85396068 46.54160407 59.66244392 46.5859375 63.47265625 C46.59114531 65.89582914 46.59383268 68.31900902 46.59375 70.7421875 C46.61014526 71.87985565 46.62654053 73.0175238 46.64343262 74.18966675 C46.56650809 83.0164228 46.56650809 83.0164228 43.84448242 86.52441406 C40.96926205 89.02675159 38.20732456 90.98425443 34.89453125 92.8671875 C34.32925217 93.19163849 33.76397308 93.51608948 33.18156433 93.85037231 C31.99894817 94.52623182 30.81312733 95.1965127 29.62426758 95.86132812 C27.8000263 96.88197895 25.98646384 97.91983892 24.17382812 98.9609375 C15.30047898 104 15.30047898 104 13 104 C13.18175781 105.35363647 13.18175781 105.35363647 13.3671875 106.73461914 C13.818101 110.1093165 14.26489609 113.48450778 14.70898438 116.86010742 C14.90136733 118.31605256 15.09535022 119.77178728 15.29101562 121.22729492 C15.57330879 123.32937078 15.84968213 125.43215681 16.125 127.53515625 C16.29257812 128.797229 16.46015625 130.05930176 16.6328125 131.35961914 C16.99340509 134.93461651 17.06472682 138.40968431 17 142 C15.9275 142.20625 14.855 142.4125 13.75 142.625 C9.76518643 143.59849156 6.35112198 145.22196096 2.703125 147.0859375 C1.63223633 147.63040527 0.56134766 148.17487305 -0.54199219 148.73583984 C-1.75870605 149.36159912 -1.75870605 149.36159912 -3 150 C-3.57658674 145.87495128 -4.14596187 141.74898697 -4.70898438 137.62207031 C-4.90106702 136.22141397 -5.09503873 134.82101522 -5.29101562 133.42089844 C-7.29285134 119.101645 -7.29285134 119.101645 -7 112 C-7.58668457 111.87270508 -8.17336914 111.74541016 -8.77783203 111.61425781 C-12.42814943 110.60522699 -15.5972612 108.60440664 -18.875 106.75 C-19.64859863 106.31397461 -20.42219727 105.87794922 -21.21923828 105.42871094 C-22.9057574 104.47385086 -24.59041113 103.51569048 -26.2734375 102.5546875 C-28.15569651 101.48142233 -30.04133741 100.41407415 -31.9296875 99.3515625 C-34.92024326 97.66597653 -37.89864022 95.96050622 -40.875 94.25 C-41.81972168 93.71987305 -42.76444336 93.18974609 -43.73779297 92.64355469 C-44.62611816 92.12696289 -45.51444336 91.61037109 -46.4296875 91.078125 C-47.21585449 90.62856445 -48.00202148 90.17900391 -48.81201172 89.71582031 C-52.11440008 87.12608751 -54.58816496 84.32989632 -55.33969116 80.07824707 C-55.46118024 77.88645319 -55.45050847 75.73333903 -55.390625 73.5390625 C-55.38496521 72.74849457 -55.37930542 71.95792664 -55.37347412 71.1434021 C-55.35121487 68.63663273 -55.30104153 66.13133187 -55.25 63.625 C-55.22992133 61.9179895 -55.21167296 60.21095643 -55.1953125 58.50390625 C-55.15138484 54.33537804 -55.08243296 50.16793736 -55 46 C-56.22589844 45.61199219 -57.45179688 45.22398437 -58.71484375 44.82421875 C-64.79343589 42.79802137 -70.66337754 40.30513704 -76.5625 37.8125 C-78.21862305 37.11737305 -78.21862305 37.11737305 -79.90820312 36.40820312 C-82.60671574 35.27506147 -85.30392958 34.1389372 -88 33 C-87.67 32.01 -87.34 31.02 -87 30 C-86.85426942 28.52034074 -86.75336732 27.03596157 -86.68359375 25.55078125 C-86.64169922 24.70322266 -86.59980469 23.85566406 -86.55664062 22.98242188 C-86.51732422 22.10134766 -86.47800781 21.22027344 -86.4375 20.3125 C-86.39431641 19.41982422 -86.35113281 18.52714844 -86.30664062 17.60742188 C-86.20064647 15.40509892 -86.09857949 13.20266527 -86 11 C-81.97858859 12.60272014 -77.95797598 14.20743491 -73.9375 15.8125 C-72.80376953 16.26431641 -71.67003906 16.71613281 -70.50195312 17.18164062 C-69.39658203 17.62314453 -68.29121094 18.06464844 -67.15234375 18.51953125 C-65.54335205 19.15882568 -65.54335205 19.15882568 -63.90185547 19.81103516 C-61.55944291 20.77078185 -59.28756597 21.79905539 -57.00390625 22.88671875 C-53.56521604 24.1611358 -52.46337865 23.97609815 -49 23 C-47.15702699 22.11811598 -45.34832167 21.16270532 -43.5703125 20.15625 C-42.53455078 19.57311035 -41.49878906 18.9899707 -40.43164062 18.38916016 C-39.34044922 17.7657373 -38.24925781 17.14231445 -37.125 16.5 C-36.00544922 15.87013184 -34.88589844 15.24026367 -33.73242188 14.59130859 C-28.87235212 11.84330555 -24.04320151 9.07391473 -19.3359375 6.0703125 C-18.67319824 5.65072266 -18.01045898 5.23113281 -17.32763672 4.79882812 C-15.63310071 3.710486 -13.95632083 2.59463162 -12.28125 1.4765625 C-7.93806405 -0.47787118 -4.68188685 -0.92067449 0 0 Z " fill="#6965F6" transform="translate(437,145)"/>
<path d="M0 0 C2.61450195 1.12646484 2.61450195 1.12646484 5.23828125 2.7109375 C6.21563232 3.29174072 7.1929834 3.87254395 8.19995117 4.47094727 C9.22709229 5.09928467 10.2542334 5.72762207 11.3125 6.375 C13.46088177 7.66285339 15.60931963 8.95061321 17.7578125 10.23828125 C18.81387695 10.87717285 19.86994141 11.51606445 20.95800781 12.17431641 C23.68154663 13.80887686 26.42121349 15.40582627 29.1796875 16.98046875 C29.94885498 17.42148926 30.71802246 17.86250977 31.51049805 18.31689453 C32.9155086 19.12079314 34.32305678 19.92028032 35.73364258 20.71435547 C36.36165771 21.07803223 36.98967285 21.44170898 37.63671875 21.81640625 C38.16998779 22.12006104 38.70325684 22.42371582 39.25268555 22.73657227 C40.1176062 23.36196899 40.1176062 23.36196899 41 24 C41.88139648 24.62447021 42.76279297 25.24894043 43.67089844 25.89233398 C47.23049904 30.64182624 46.69753111 35.12038951 46.62890625 40.90625 C46.63131821 42.06370728 46.63373016 43.22116455 46.63621521 44.41369629 C46.6352368 46.85802643 46.62184499 49.30237874 46.59692383 51.74658203 C46.56262135 55.48676881 46.57626622 59.22459238 46.59570312 62.96484375 C46.58880455 65.34115589 46.57913208 67.71746193 46.56640625 70.09375 C46.57384605 71.77047791 46.57384605 71.77047791 46.58143616 73.4810791 C46.46508948 81.15544679 46.46508948 81.15544679 44.34106445 85.01245117 C41.67604761 87.27503352 39.03165699 89.00211532 35.9765625 90.70703125 C35.39393646 91.03611984 34.81131042 91.36520844 34.21102905 91.70426941 C32.3543319 92.75017118 30.49006228 93.78160366 28.625 94.8125 C27.41221836 95.4918718 26.19997411 96.17220383 24.98828125 96.85351562 C23.16950911 97.87612813 21.34942605 98.89571209 19.52325439 99.90505981 C16.38072878 101.64410658 13.27639722 103.42401216 10.20996094 105.29443359 C9.59140228 105.66581955 8.97284363 106.03720551 8.33554077 106.41984558 C6.62799299 107.44871939 4.92963562 108.49280181 3.23193359 109.5378418 C-0.55431577 111.25077785 -2.88423153 111.47809726 -7 111 C-9.91162109 109.78173828 -9.91162109 109.78173828 -12.7734375 108.0703125 C-14.37058594 107.13106934 -14.37058594 107.13106934 -16 106.17285156 C-17.11375 105.49706055 -18.2275 104.82126953 -19.375 104.125 C-20.53305648 103.4358323 -21.69191735 102.74801455 -22.8515625 102.06152344 C-25.16039786 100.69235573 -27.46353334 99.31485921 -29.76464844 97.93261719 C-32.63211706 96.21975259 -35.51460753 94.5407426 -38.4140625 92.8828125 C-39.19990723 92.43147949 -39.98575195 91.98014648 -40.79541016 91.51513672 C-42.22801404 90.69301564 -43.66248865 89.87414287 -45.09912109 89.05908203 C-48.2176119 87.24470194 -49.9632157 86.05517646 -52 83 C-52.28088379 80.58486938 -52.28088379 80.58486938 -52.32226562 77.68994141 C-52.34148071 76.6051651 -52.3606958 75.52038879 -52.38049316 74.40274048 C-52.38899292 73.23085175 -52.39749268 72.05896301 -52.40625 70.8515625 C-52.41765015 69.64688324 -52.42905029 68.44220398 -52.4407959 67.20101929 C-52.4596999 64.6506502 -52.47276547 62.10023221 -52.48046875 59.54980469 C-52.49989091 55.646921 -52.56193108 51.74613944 -52.625 47.84375 C-52.63805925 45.36720002 -52.64856051 42.89063497 -52.65625 40.4140625 C-52.6809436 39.24622223 -52.70563721 38.07838196 -52.7310791 36.87515259 C-52.68790068 29.02616964 -52.68790068 29.02616964 -50.82312012 26.24440002 C-49.3203125 24.94213867 -49.3203125 24.94213867 -46 23 C-45.06091797 22.40018311 -44.12183594 21.80036621 -43.15429688 21.18237305 C-42.18556641 20.63105713 -41.21683594 20.07974121 -40.21875 19.51171875 C-39.13561523 18.89111572 -38.05248047 18.2705127 -36.93652344 17.63110352 C-35.8024707 16.98971436 -34.66841797 16.3483252 -33.5 15.6875 C-32.32562732 15.019835 -31.1514745 14.35178311 -29.97753906 13.68334961 C-27.683328 12.3772198 -25.38794253 11.0732433 -23.09179688 9.77050781 C-20.50567741 8.28957459 -17.94164745 6.78240537 -15.390625 5.2421875 C-14.44026367 4.67431519 -14.44026367 4.67431519 -13.47070312 4.0949707 C-11.88744136 3.14496871 -10.31058735 2.18430912 -8.734375 1.22265625 C-5.49337489 -0.2265338 -3.52943988 -0.2748972 0 0 Z " fill="#062C76" transform="translate(305,93)"/>
<path d="M0 0 C3.15869141 1.34179688 3.15869141 1.34179688 6.3515625 3.21875 C6.93231537 3.55491333 7.51306824 3.89107666 8.11141968 4.23742676 C9.95787201 5.31099086 11.791176 6.40503508 13.625 7.5 C14.8312416 8.20447882 16.03826864 8.90761456 17.24609375 9.609375 C20.24735607 11.35986614 23.23265913 13.1354005 26.21057129 14.92529297 C27.4163513 15.64946837 28.62366318 16.3710985 29.83239746 17.09033203 C31.608222 18.14776402 33.37894223 19.21326799 35.1484375 20.28125 C36.17888184 20.90064453 37.20932617 21.52003906 38.27099609 22.15820312 C44.68872052 26.48950685 44.68872052 26.48950685 45.5146637 30.49742126 C45.52086227 31.43276199 45.52706085 32.36810272 45.53344727 33.33178711 C45.5492836 34.39646713 45.56511993 35.46114716 45.58143616 36.55809021 C45.57647629 37.70294388 45.57151642 38.84779755 45.56640625 40.02734375 C45.57260483 41.20841202 45.57880341 42.38948029 45.58518982 43.6063385 C45.59229277 46.10368017 45.58910581 48.60106914 45.57641602 51.09838867 C45.56256345 54.91999511 45.59660334 58.73914778 45.63476562 62.56054688 C45.63571692 64.98697977 45.63385745 67.41341572 45.62890625 69.83984375 C45.64216446 70.98267319 45.65542267 72.12550262 45.66908264 73.30296326 C45.5763409 81.20464194 45.5763409 81.20464194 42.78417969 85.05786133 C40.16441335 86.88531145 37.59556666 88.64551297 34.82421875 90.234375 C33.34598633 91.08974854 33.34598633 91.08974854 31.83789062 91.96240234 C30.79826172 92.55230957 29.75863281 93.1422168 28.6875 93.75 C27.61822266 94.36182129 26.54894531 94.97364258 25.44726562 95.60400391 C23.29895256 96.83221115 21.14907195 98.05768098 18.99755859 99.28027344 C16.35937103 100.79382558 13.74744212 102.34092928 11.14453125 103.9140625 C10.43401611 104.3359082 9.72350098 104.75775391 8.99145508 105.19238281 C7.71152577 105.95246342 6.43849648 106.72435327 5.17456055 107.51074219 C0.80452373 110.05844601 -3.07443491 111.21698756 -8 110 C-12.72459921 107.85530578 -17.12610562 105.23544118 -21.5625 102.5625 C-22.81606651 101.8232198 -24.07046543 101.08534933 -25.32568359 100.34887695 C-27.7827621 98.90340612 -30.23365452 97.44829543 -32.67919922 95.98339844 C-35.47394883 94.31419201 -38.2794776 92.6682221 -41.09765625 91.0390625 C-50.71050595 85.43424107 -50.71050595 85.43424107 -53 82 C-53.27415466 79.66752625 -53.27415466 79.66752625 -53.30639648 76.8894043 C-53.32238388 75.84789719 -53.33837128 74.80639008 -53.35484314 73.73332214 C-53.36020584 72.60831802 -53.36556854 71.4833139 -53.37109375 70.32421875 C-53.38463646 68.5873455 -53.38463646 68.5873455 -53.39845276 66.81538391 C-53.41297119 64.36335847 -53.42184593 61.91129416 -53.42553711 59.45922852 C-53.43742107 55.71238631 -53.48658433 51.96719703 -53.53710938 48.22070312 C-53.54657481 45.83854971 -53.55380926 43.45638617 -53.55859375 41.07421875 C-53.57812607 39.95528732 -53.59765839 38.8363559 -53.61778259 37.68351746 C-53.56753643 28.99492729 -53.56753643 28.99492729 -50.69555664 25.39233398 C-48.58108073 23.51571507 -46.7976103 21.94961646 -44.3125 20.6484375 C-43.27899414 20.09240845 -43.27899414 20.09240845 -42.22460938 19.52514648 C-41.49048828 19.14559814 -40.75636719 18.7660498 -40 18.375 C-38.40538403 17.52114653 -36.81167347 16.66560056 -35.21875 15.80859375 C-34.37828125 15.35983887 -33.5378125 14.91108398 -32.671875 14.44873047 C-27.90065133 11.86170185 -23.20414247 9.14400404 -18.5 6.4375 C-16.71905287 5.41483695 -14.93782579 4.39266121 -13.15625 3.37109375 C-12.02413086 2.7203186 -12.02413086 2.7203186 -10.86914062 2.05639648 C-7.00273846 -0.12880756 -4.50591977 -0.31497692 0 0 Z " fill="#062B75" transform="translate(455,287)"/>
<path d="M0 0 C2.94335938 1.23413086 2.94335938 1.23413086 5.84375 2.96484375 C6.91866699 3.59608154 7.99358398 4.22731934 9.10107422 4.87768555 C10.22271973 5.55742432 11.34436523 6.23716309 12.5 6.9375 C13.66478022 7.62992046 14.83031228 8.3210777 15.99658203 9.01098633 C18.29227475 10.3721924 20.58131723 11.74295005 22.86816406 13.11914062 C25.53366289 14.71993599 28.20985702 16.29781994 30.8984375 17.859375 C41.8843849 24.2854335 41.8843849 24.2854335 45 28 C45.5146637 30.49742126 45.5146637 30.49742126 45.53344727 33.33178711 C45.5492836 34.39646713 45.56511993 35.46114716 45.58143616 36.55809021 C45.57647629 37.70294388 45.57151642 38.84779755 45.56640625 40.02734375 C45.57260483 41.20841202 45.57880341 42.38948029 45.58518982 43.6063385 C45.59229277 46.10368017 45.58910581 48.60106914 45.57641602 51.09838867 C45.56256345 54.91999511 45.59660334 58.73914778 45.63476562 62.56054688 C45.63571692 64.98697977 45.63385745 67.41341572 45.62890625 69.83984375 C45.64216446 70.98267319 45.65542267 72.12550262 45.66908264 73.30296326 C45.5763409 81.20464194 45.5763409 81.20464194 42.78417969 85.05786133 C40.16441335 86.88531145 37.59556666 88.64551297 34.82421875 90.234375 C33.34598633 91.08974854 33.34598633 91.08974854 31.83789062 91.96240234 C30.79826172 92.55230957 29.75863281 93.1422168 28.6875 93.75 C27.61822266 94.36182129 26.54894531 94.97364258 25.44726562 95.60400391 C23.29895256 96.83221115 21.14907195 98.05768098 18.99755859 99.28027344 C16.35937103 100.79382558 13.74744212 102.34092928 11.14453125 103.9140625 C10.43401611 104.3359082 9.72350098 104.75775391 8.99145508 105.19238281 C7.71152577 105.95246342 6.43849648 106.72435327 5.17456055 107.51074219 C0.80452373 110.05844601 -3.07443491 111.21698756 -8 110 C-12.7245354 107.85533475 -17.12642976 105.23590595 -21.5625 102.5625 C-22.81609211 101.82253215 -24.07049089 101.08392922 -25.32568359 100.34667969 C-27.78252437 98.90008935 -30.23326101 97.44394839 -32.67919922 95.97900391 C-35.47051722 94.3155409 -38.27484853 92.68334145 -41.09765625 91.07421875 C-42.44039523 90.29998374 -43.78287595 89.5253005 -45.125 88.75 C-46.24132812 88.10546875 -47.35765625 87.4609375 -48.5078125 86.796875 C-51.16818787 84.87873601 -51.83282123 83.98553367 -53 81 C-53.27415466 78.5852356 -53.27415466 78.5852356 -53.30639648 75.86767578 C-53.32238388 74.84626495 -53.33837128 73.82485413 -53.35484314 72.77249146 C-53.36020584 71.6745224 -53.36556854 70.57655334 -53.37109375 69.4453125 C-53.38463646 67.74385574 -53.38463646 67.74385574 -53.39845276 66.00802612 C-53.4129568 63.60905599 -53.42184237 61.21004629 -53.42553711 58.81103516 C-53.43743353 55.1454794 -53.48662113 51.48160678 -53.53710938 47.81640625 C-53.54657367 45.48438321 -53.55380867 43.15234984 -53.55859375 40.8203125 C-53.57812607 39.72639191 -53.59765839 38.63247131 -53.61778259 37.50540161 C-53.56754421 29.01032808 -53.56754421 29.01032808 -50.69555664 25.40820312 C-48.58007173 23.51823454 -46.80512035 21.95354864 -44.3125 20.6484375 C-43.27899414 20.09240845 -43.27899414 20.09240845 -42.22460938 19.52514648 C-41.49048828 19.14559814 -40.75636719 18.7660498 -40 18.375 C-38.40538403 17.52114653 -36.81167347 16.66560056 -35.21875 15.80859375 C-34.37828125 15.35983887 -33.5378125 14.91108398 -32.671875 14.44873047 C-27.90065133 11.86170185 -23.20414247 9.14400404 -18.5 6.4375 C-16.71905287 5.41483695 -14.93782579 4.39266121 -13.15625 3.37109375 C-12.02413086 2.7203186 -12.02413086 2.7203186 -10.86914062 2.05639648 C-7.00935438 -0.12506839 -4.49531208 -0.2978291 0 0 Z " fill="#062B76" transform="translate(211,319)"/>
<path d="M0 0 C1.14892703 3.44678109 1.38418534 6.51547664 1.68359375 10.140625 C1.74320786 10.8515329 1.80282196 11.5624408 1.86424255 12.29489136 C1.99182739 13.82083539 2.11781676 15.34691349 2.24237061 16.87310791 C2.43827807 19.25947777 2.64129691 21.6451479 2.84619141 24.03076172 C3.44618532 31.05654019 4.02204158 38.07939408 4.46484375 45.1171875 C4.53582275 46.14811523 4.60680176 47.17904297 4.67993164 48.24121094 C4.80532028 50.09489131 4.91398738 51.94981973 5.00170898 53.80566406 C5.68894779 63.51562256 10.99615609 70.34374294 16.8125 77.8125 C31 96.38802245 31 96.38802245 31 100 C29.92685547 100.23783203 29.92685547 100.23783203 28.83203125 100.48046875 C14.27076949 103.89002681 0.74298841 109.15215094 -10.75 118.9375 C-27.62574103 132.88775141 -47.82081156 136.23132609 -69 136 C-68.43225518 130.53579433 -66.47722865 126.30125982 -64.09765625 121.4375 C-63.7037822 120.61734909 -63.30990814 119.79719818 -62.90409851 118.95219421 C-62.06334852 117.20285335 -61.21945333 115.45502117 -60.37268066 113.70858765 C-59.05468611 110.98384603 -57.75135312 108.25254455 -56.45214844 105.51879883 C-52.88039465 98.01242684 -49.30210192 90.51954957 -45.48046875 83.13671875 C-39.88026136 72.13786601 -37.80820485 64.1586322 -39.59863281 51.91699219 C-40.36102407 46.37620707 -40.83342788 40.80211297 -41.36221313 35.2350769 C-41.55626293 33.25126291 -41.76843447 31.26924747 -41.98120117 29.28735352 C-42.86776022 20.80109492 -43.17045621 12.5285747 -43 4 C-28.66210976 1.79783596 -14.54121336 -0.092033 0 0 Z " fill="#FDFDFE" transform="translate(334,314)"/>
<path d="M0 0 C0.58394531 1.27230469 0.58394531 1.27230469 1.1796875 2.5703125 C8.05724335 16.99099411 17.4254278 29.08821069 28 41 C28.50015625 41.61746094 29.0003125 42.23492187 29.515625 42.87109375 C31.66703406 44.50729696 33.16725383 44.12692821 35.8125 43.875 C39.59195585 43.74238751 41.62691053 43.9239253 44.5625 46.375 C47 49 47 49 48 51 C47.89558594 52.2684375 47.79117188 53.536875 47.68359375 54.84375 C47.60039859 56.98887362 47.60039859 56.98887362 48 59 C50.1133471 61.05798978 51.54997541 62.13530733 54.0625 63.5 C54.9908667 64.04901978 54.9908667 64.04901978 55.93798828 64.60913086 C57.93980729 65.77706761 59.96390924 66.89300383 62 68 C63.05695068 68.58225342 63.05695068 68.58225342 64.13525391 69.17626953 C68.3924966 71.51283444 72.68093237 73.77997504 77 76 C77 76.33 77 76.66 77 77 C58.03177749 78.81809874 39.06262599 80.62619766 20.09233952 82.4226284 C15.69181037 82.83941254 11.29142618 83.25769525 6.89111328 83.67675781 C1.78489395 84.16250102 -3.32182914 84.64250691 -8.42907715 85.11730957 C-10.24721231 85.28715881 -12.06517117 85.45890761 -13.88293457 85.63269043 C-43.0187964 88.41369843 -43.0187964 88.41369843 -50 83 C-55.96094345 77.513345 -60.4194878 71.94055361 -61.22290039 63.71899414 C-61.38477388 57.39069303 -60.23745573 53.00291711 -57.4375 47.375 C-57.05343994 46.56321289 -56.66937988 45.75142578 -56.27368164 44.91503906 C-55.38798867 43.04552574 -54.49406074 41.17990065 -53.59375 39.31738281 C-51.7213616 35.42001554 -49.88966677 31.50465634 -48.0625 27.5859375 C-44.39101783 19.71638261 -40.70035081 11.85601679 -37 4 C-35.85039795 4.01015137 -34.7007959 4.02030273 -33.51635742 4.03076172 C-31.98356245 4.03897417 -30.45076612 4.04693611 -28.91796875 4.0546875 C-27.78578918 4.06568481 -27.78578918 4.06568481 -26.6307373 4.0769043 C-17.48624826 4.11149572 -8.67018124 0 0 0 Z " fill="#92B1F3" transform="translate(301,445)"/>
<path d="M0 0 C2.77484543 1.29950682 5.40323579 2.75833286 8.05078125 4.30273438 C8.62221863 4.6342601 9.19365601 4.96578583 9.78240967 5.30735779 C11.59854508 6.36242068 13.41061391 7.42425394 15.22265625 8.48632812 C16.45676874 9.20487814 17.69114101 9.92298218 18.92578125 10.640625 C21.94443273 12.39653657 24.95947614 14.15854028 27.97265625 15.92382812 C31.7849569 44.94130116 31.7849569 44.94130116 25.71386719 52.87597656 C19.28669601 58.13695358 11.79079144 61.2873417 3.97265625 63.92382812 C2.98499268 64.35405273 1.9973291 64.78427734 0.97973633 65.22753906 C-3.0319298 66.15643992 -4.4647267 65.18529251 -7.9765625 63.12695312 C-9.07162109 62.49789062 -10.16667969 61.86882812 -11.29492188 61.22070312 C-12.42349609 60.54523438 -13.55207031 59.86976563 -14.71484375 59.17382812 C-15.85501953 58.51382813 -16.99519531 57.85382813 -18.16992188 57.17382812 C-22.1844332 54.8405268 -26.16340637 52.49978638 -30.02734375 49.92382812 C-30.29432263 47.29920569 -30.37567359 44.9131688 -30.3203125 42.29101562 C-30.31606766 41.53917999 -30.31182281 40.78734436 -30.30744934 40.01272583 C-30.29063545 37.60773127 -30.25297999 35.20357003 -30.21484375 32.79882812 C-30.19980034 31.16993396 -30.18611133 29.54102669 -30.17382812 27.91210938 C-30.14072329 23.91569379 -30.08892384 19.91990231 -30.02734375 15.92382812 C-26.12205871 13.61100787 -22.20774583 11.31462946 -18.28417969 9.03295898 C-16.95084308 8.25453047 -15.62008107 7.47167449 -14.29199219 6.68432617 C-12.38225644 5.55318598 -10.46382101 4.43830293 -8.54296875 3.32617188 C-7.65523773 2.79345924 -7.65523773 2.79345924 -6.74957275 2.24998474 C-2.64159508 -0.09925068 -2.64159508 -0.09925068 0 0 Z " fill="#CFDAFB" transform="translate(208.02734375,341.076171875)"/>
<path d="M0 0 C2.82275391 0.74609375 2.82275391 0.74609375 6 2 C6.95181152 2.32097656 7.90362305 2.64195312 8.88427734 2.97265625 C27.05277416 9.68102431 27.05277416 9.68102431 30.83898926 17.79882812 C34.09584204 27.53253467 34.44314188 40.58264814 30 50 C24.396261 56.71405279 16.62110662 60.09225723 8.54370117 63.02734375 C5.8163661 63.96285426 5.8163661 63.96285426 3 66 C-1.32441422 65.69219455 -4.4842379 63.78510192 -8.17578125 61.62109375 C-9.74066284 60.71121704 -9.74066284 60.71121704 -11.3371582 59.78295898 C-12.649021 59.00895752 -13.96088379 58.23495605 -15.3125 57.4375 C-19.499375 54.983125 -23.68625 52.52875 -28 50 C-28 38.78 -28 27.56 -28 16 C-15.6875 9.125 -15.6875 9.125 -11.81518555 6.96533203 C-10.8075415 6.40185059 -9.79989746 5.83836914 -8.76171875 5.2578125 C-7.73006592 4.6817627 -6.69841309 4.10571289 -5.63549805 3.51220703 C-3.7156323 2.41061848 -1.84170566 1.22780377 0 0 Z " fill="#AFD752" transform="translate(450,309)"/>
<path d="M0 0 C1.84969797 0.89098704 3.6652008 1.85496363 5.44921875 2.87109375 C6.96805664 3.73250977 6.96805664 3.73250977 8.51757812 4.61132812 C9.56365234 5.21396484 10.60972656 5.81660156 11.6875 6.4375 C12.74517578 7.03626953 13.80285156 7.63503906 14.89257812 8.25195312 C22.71612258 12.71612258 22.71612258 12.71612258 25 15 C25.17502995 17.58103306 25.23162279 20.05308163 25.1953125 22.6328125 C25.1924826 23.38464813 25.18965271 24.13648376 25.18673706 24.91110229 C25.17552874 27.31589578 25.15042352 29.72031881 25.125 32.125 C25.11497102 33.75390088 25.10584503 35.38280758 25.09765625 37.01171875 C25.07558735 41.00795556 25.04105351 45.00391494 25 49 C21.35416552 51.12144111 17.70625918 53.23926011 14.05639648 55.35375977 C12.81526153 56.07347212 11.57469637 56.79416802 10.3347168 57.51586914 C8.55146078 58.55354275 6.76618003 59.58765249 4.98046875 60.62109375 C3.90692139 61.2442749 2.83337402 61.86745605 1.72729492 62.50952148 C-1 64 -1 64 -4 65 C-6.25015376 63.95239424 -8.29372633 62.86135804 -10.41796875 61.59765625 C-11.03521317 61.24110458 -11.65245758 60.88455292 -12.28840637 60.51719666 C-14.26045683 59.37510545 -16.22390907 58.21906345 -18.1875 57.0625 C-19.52224469 56.28617716 -20.85752512 55.51077463 -22.19335938 54.73632812 C-25.46855393 52.83484591 -28.73610655 50.92081062 -32 49 C-32.3234878 44.30502444 -32.5580634 39.6166106 -32.71411133 34.91308594 C-32.77916664 33.31753592 -32.86766316 31.72275186 -32.98071289 30.12988281 C-33.34695836 24.8334098 -33.40385713 20.15262209 -32 15 C-28.17189449 11.1284328 -23.94799014 9.15721515 -19 7 C-17.59764076 6.17259763 -16.20796651 5.32248038 -14.84375 4.43359375 C-13.7403125 3.77488281 -12.636875 3.11617188 -11.5 2.4375 C-9.81390625 1.41462891 -9.81390625 1.41462891 -8.09375 0.37109375 C-4.53390658 -1.20656413 -3.64227703 -1.05274336 0 0 Z " fill="#66CBD0" transform="translate(305,117)"/>
<path d="M0 0 C1.86171118 0.90252372 3.68887303 1.8782956 5.484375 2.90625 C6.50144531 3.48503906 7.51851563 4.06382812 8.56640625 4.66015625 C9.61699219 5.26730469 10.66757812 5.87445313 11.75 6.5 C12.81605469 7.10714844 13.88210938 7.71429688 14.98046875 8.33984375 C22.82900856 12.82900856 22.82900856 12.82900856 24 14 C24.38734139 18.46623062 24.48515209 22.93740086 24.56982422 27.41772461 C24.60640382 28.92250562 24.6608987 30.426965 24.73388672 31.93041992 C25.32773516 44.35060951 25.32773516 44.35060951 22.25756836 48.16455078 C19.91091986 49.73813481 17.58422764 50.8644682 15 52 C13.52310301 52.92491399 12.06020479 53.87261516 10.61328125 54.84375 C9.1812946 55.73176348 7.74770557 56.61719839 6.3125 57.5 C5.59255859 57.96664062 4.87261719 58.43328125 4.13085938 58.9140625 C3.42380859 59.34460938 2.71675781 59.77515625 1.98828125 60.21875 C1.36477783 60.60998047 0.74127441 61.00121094 0.09887695 61.40429688 C-3.87822392 62.53307739 -7.18663698 60.4255049 -10.68481445 58.59545898 C-11.5687085 58.06766846 -12.45260254 57.53987793 -13.36328125 56.99609375 C-14.33201172 56.42052734 -15.30074219 55.84496094 -16.29882812 55.25195312 C-17.7905957 54.35379883 -17.7905957 54.35379883 -19.3125 53.4375 C-20.32634766 52.83486328 -21.34019531 52.23222656 -22.38476562 51.61132812 C-29.83465272 47.16534728 -29.83465272 47.16534728 -31 46 C-31.0883967 43.6243148 -31.11530305 41.27791326 -31.09765625 38.90234375 C-31.0962413 38.19348526 -31.09482635 37.48462677 -31.09336853 36.75428772 C-31.08775443 34.48198288 -31.07519963 32.20977525 -31.0625 29.9375 C-31.05748681 28.40039204 -31.05292359 26.86328255 -31.04882812 25.32617188 C-31.03778042 21.55074358 -31.02050641 17.77538829 -31 14 C-27.39964097 11.8266799 -23.78850584 9.67291923 -20.16625977 7.53637695 C-18.93624753 6.80724682 -17.70930713 6.07290808 -16.4855957 5.33325195 C-14.72352929 4.26943029 -12.95117624 3.2249796 -11.17578125 2.18359375 C-9.58117065 1.23311157 -9.58117065 1.23311157 -7.9543457 0.26342773 C-4.57362758 -1.18233842 -3.41409836 -1.22375562 0 0 Z " fill="#FBCA51" transform="translate(436,171)"/>
<path d="M0 0 C1.37152222 0.44098022 1.37152222 0.44098022 2.77075195 0.89086914 C10.66881236 3.93638203 18.5596528 7.30745474 24 14 C25.88483902 19.53981949 26.17978844 24.68540343 26.0625 30.5 C26.05701645 31.57255539 26.05701645 31.57255539 26.05142212 32.66677856 C25.83860639 43.89943374 25.83860639 43.89943374 22.16308594 48.09863281 C19.84915893 49.6611143 17.52928347 50.82319614 15 52 C13.51014223 52.9747672 12.03318893 53.96956476 10.5703125 54.984375 C-0.83007169 62.26985006 -0.83007169 62.26985006 -6.046875 61.62109375 C-8.96168759 60.0002813 -11.38683406 58.07349037 -14 56 C-16.8270038 54.3071171 -19.72660998 52.75413693 -22.625 51.1875 C-29.8056051 47.1943949 -29.8056051 47.1943949 -31 46 C-31.0883967 43.6243148 -31.11530305 41.27791326 -31.09765625 38.90234375 C-31.0962413 38.19348526 -31.09482635 37.48462677 -31.09336853 36.75428772 C-31.08775443 34.48198288 -31.07519963 32.20977525 -31.0625 29.9375 C-31.05748681 28.40039204 -31.05292359 26.86328255 -31.04882812 25.32617188 C-31.03778042 21.55074358 -31.02050641 17.77538829 -31 14 C-27.39964097 11.8266799 -23.78850584 9.67291923 -20.16625977 7.53637695 C-18.93624753 6.80724682 -17.70930713 6.07290808 -16.4855957 5.33325195 C-14.72352929 4.26943029 -12.95117624 3.2249796 -11.17578125 2.18359375 C-9.58117065 1.23311157 -9.58117065 1.23311157 -7.9543457 0.26342773 C-4.5717522 -1.18314043 -3.43034945 -1.14615941 0 0 Z " fill="#FC7CA0" transform="translate(192,203)"/>
<path d="M0 0 C0.70137978 4.64664105 1.05947482 9.09000746 1.03125 13.79296875 C1.02673828 14.77160889 1.02222656 15.75024902 1.01757812 16.75854492 C1.00887695 17.86806519 1.00887695 17.86806519 1 19 C-12.3320855 20.34594309 -25.66526502 21.68055293 -39 23 C-40.92682617 23.19094238 -40.92682617 23.19094238 -42.89257812 23.38574219 C-45.88618891 23.67980484 -48.88032153 23.96705113 -51.875 24.25 C-52.68404785 24.32976074 -53.4930957 24.40952148 -54.32666016 24.49169922 C-59.89392868 25.00558267 -65.41095076 25.0789455 -71 25 C-72.23808414 21.28574757 -72.35580871 17.68709247 -72.5625 13.8125 C-72.64026373 12.41884829 -72.71832648 11.02521324 -72.79663086 9.6315918 C-72.86374268 8.4331665 -72.93085449 7.23474121 -73 6 C-61.25936044 4.43401935 -49.50328759 3.21413996 -37.70825195 2.14013672 C-34.80553996 1.87436273 -31.90378464 1.59941982 -29.00195312 1.32421875 C-19.30379913 0.42487952 -9.74860016 -0.30940661 0 0 Z " fill="#90AFF1" transform="translate(345,273)"/>
<path d="M0 0 C0.33 0 0.66 0 1 0 C1.20753906 0.99515625 1.41507812 1.9903125 1.62890625 3.015625 C4.01145467 13.97348845 7.39428031 24.37944624 11.24316406 34.90380859 C12.21174205 37.58645716 13.11520999 40.28868805 14 43 C2.94157547 48.52921227 -8.93302198 48.27564163 -21 48 C-20.44367247 42.30109109 -18.24906521 37.80998089 -15.78125 32.734375 C-15.36331177 31.85976624 -14.94537354 30.98515747 -14.51477051 30.08404541 C-13.18358552 27.30257332 -11.84195371 24.52629004 -10.5 21.75 C-9.59696581 19.86751855 -8.69461449 17.98470936 -7.79296875 16.1015625 C-1.82442134 3.64884269 -1.82442134 3.64884269 0 0 Z " fill="#D0DAFB" transform="translate(286,402)"/>
<path d="M0 0 C1.5 1.375 1.5 1.375 3 3 C3 3.66 3 4.32 3 5 C4.08861328 5.39832031 4.08861328 5.39832031 5.19921875 5.8046875 C8.00170928 7.00072948 10.30479352 8.40329107 12.8125 10.125 C13.60269531 10.66382813 14.39289063 11.20265625 15.20703125 11.7578125 C15.79871094 12.16773438 16.39039063 12.57765625 17 13 C13.68056466 16.44594739 10.29159983 19.41841645 6.4375 22.25 C5.39851563 23.02472656 4.35953125 23.79945313 3.2890625 24.59765625 C1.07914462 26.226261 -1.15646145 27.80938175 -3.4140625 29.37109375 C-3.96247803 29.75942383 -4.51089355 30.14775391 -5.07592773 30.54785156 C-6.60834303 31.63152291 -8.15347733 32.69714198 -9.69921875 33.76171875 C-12.48496642 36.47179246 -12.76540809 38.18651762 -13 42 C-13.33 42 -13.66 42 -14 42 C-14.04125 40.783125 -14.0825 39.56625 -14.125 38.3125 C-14.58237039 34.60779982 -14.92574009 34.07425991 -17.75 31.25 C-18.8225 30.5075 -19.895 29.765 -21 29 C-24.35453021 26.48410234 -26.26564086 24.79193975 -28 21 C-27.40316406 20.57332031 -26.80632812 20.14664062 -26.19140625 19.70703125 C-17.3239609 13.31667316 -8.66203161 6.66474442 0 0 Z " fill="#6865F5" transform="translate(401,367)"/>
<path d="M0 0 C2.69990662 1.79993774 4.5418865 3.083773 6 6 C6.47847852 9.0828553 6.5463489 11.92347221 6 15 C3.4085135 18.17457096 1.92564305 19.54580349 -2.00390625 20.47265625 C-6.06059387 20.77286653 -7.81776115 20.15121947 -10.9375 17.5625 C-11.618125 16.716875 -12.29875 15.87125 -13 15 C-13.33 14.67 -13.66 14.34 -14 14 C-14.38144737 10.75769737 -14.65935301 8.1481398 -12.98828125 5.23828125 C-9.17746535 0.51195402 -5.95603376 -0.59560338 0 0 Z " fill="#6966F6" transform="translate(283,472)"/>
<path d="M0 0 C4.99503071 0.4913145 6.31841769 1.88091769 9.8125 5.375 C11.38185594 8.51371188 11.16451103 10.91355822 10.8125 14.375 C8.6397578 17.00516161 6.86576212 18.84836894 3.8125 20.375 C-0.36894011 20.76947548 -2.49696048 20.82535186 -6.0625 18.5 C-8.97460658 15.58789342 -9.14818305 14.7747223 -9.5625 10.5625 C-9.54261166 6.91630475 -9.25358692 6.45464321 -6.75 3.4375 C-5.904375 2.756875 -5.05875 2.07625 -4.1875 1.375 C-3.1875 0.375 -3.1875 0.375 0 0 Z " fill="#6966F7" transform="translate(338.1875,488.625)"/>
<path d="M0 0 C2.88138457 1.86074955 5.44251644 3.88503289 7 7 C7.50312928 11.36045376 7.24536764 13.55015933 5.125 17.4375 C2.64536771 20.07299489 0.57022522 20.495667 -3 20.6875 C-6.62808727 20.4438225 -7.97000812 20.0191948 -11.125 18 C-13.07453285 14.88074745 -13.7271214 12.69644236 -13.49609375 9 C-12.5979832 5.37927085 -10.68160588 3.55688003 -8 1 C-4.88155225 -0.03948258 -3.23905421 -0.45196105 0 0 Z " fill="#6A66F7" transform="translate(375,459)"/>
<path d="M0 0 C0.33 0 0.66 0 1 0 C1 11.55 1 23.1 1 35 C3.97 35.99 6.94 36.98 10 38 C11.32 38.99 12.64 39.98 14 41 C11.36 46.61 8.72 52.22 6 58 C2.7 57.34 -0.6 56.68 -4 56 C-3.01 54.68 -2.02 53.36 -1 52 C-0.53222616 49.50325676 -0.53222616 49.50325676 -0.56762695 46.77246094 C-0.53793571 45.21129547 -0.53793571 45.21129547 -0.50764465 43.61859131 C-0.50125473 42.50179993 -0.49486481 41.38500854 -0.48828125 40.234375 C-0.47033005 39.08584045 -0.45237885 37.93730591 -0.43388367 36.75396729 C-0.37970659 33.08601552 -0.34586031 29.41819445 -0.3125 25.75 C-0.27933356 23.26300262 -0.24484454 20.7760225 -0.20898438 18.2890625 C-0.12397574 12.19282552 -0.05565704 6.09657178 0 0 Z " fill="#6C6CEB" transform="translate(256,349)"/>
<path d="M0 0 C1.32 0.33 2.64 0.66 4 1 C3.5359375 1.99 3.5359375 1.99 3.0625 3 C1.75039745 6.70476015 1.39735865 10.09263991 1 14 C0.67 14 0.34 14 0 14 C0 9.38 0 4.76 0 0 Z " fill="#C5D1F1" transform="translate(291,318)"/>
</svg>
