<?xml version="1.0" encoding="UTF-8"?>
<svg version="1.1" xmlns="http://www.w3.org/2000/svg" width="640" height="640">
<path d="M0 0 C211.2 0 422.4 0 640 0 C640 211.2 640 422.4 640 640 C428.8 640 217.6 640 0 640 C0 428.8 0 217.6 0 0 Z " fill="#FEFEFE" transform="translate(0,0)"/>
<path d="M0 0 C4.10359728 1.88501304 7.97826568 4.09748658 11.875 6.375 C13.515896 7.31641846 13.515896 7.31641846 15.18994141 8.27685547 C18.47004659 10.16784114 21.73665326 12.08026578 25 14 C25.94617188 14.55236328 26.89234375 15.10472656 27.8671875 15.67382812 C30.37784913 17.14451628 32.87895622 18.62966225 35.375 20.125 C36.47884033 20.77927979 36.47884033 20.77927979 37.60498047 21.44677734 C38.6164917 22.06480225 38.6164917 22.06480225 39.6484375 22.6953125 C40.22770996 23.04609863 40.80698242 23.39688477 41.40380859 23.75830078 C44.19598636 25.93037422 45.85746429 27.89559623 46.31797791 31.46377563 C46.29288651 32.38403534 46.2677951 33.30429504 46.24194336 34.25244141 C46.22300522 35.30098297 46.20406708 36.34952454 46.18455505 37.42984009 C46.15330032 38.55900848 46.12204559 39.68817688 46.08984375 40.8515625 C46.06825164 43.25388341 46.04946086 45.65623082 46.03320312 48.05859375 C45.99423023 51.83871929 45.93777492 55.61515254 45.83227539 59.39404297 C44.6595036 73.80252092 44.6595036 73.80252092 49.48120117 86.72290039 C52.32702465 89.37610024 55.57470911 91.17159703 59 93 C60.38379335 94.10155129 61.74244611 95.23642117 63.05859375 96.41796875 C64.18389342 97.34236746 65.31014756 98.26560587 66.4375 99.1875 C67.00919922 99.67541016 67.58089844 100.16332031 68.16992188 100.66601562 C71.39344064 103.27647133 71.39344064 103.27647133 75.35546875 104.1015625 C79.37137973 102.42876059 83.10496223 100.35109311 86.875 98.1875 C87.65230469 97.74857422 88.42960937 97.30964844 89.23046875 96.85742188 C89.99746094 96.42365234 90.76445312 95.98988281 91.5546875 95.54296875 C92.68922363 94.90367432 92.68922363 94.90367432 93.84667969 94.25146484 C95.20167771 93.46396826 96.53938602 92.64511078 97.84863281 91.78369141 C101.40027461 89.49819077 104.50924752 88.25658079 108.78564453 88.49707031 C113.62194878 89.59550325 117.73232147 92.33852077 121.9375 94.875 C123.44352783 95.75768555 123.44352783 95.75768555 124.97998047 96.65820312 C127.0202411 97.85595193 129.05642633 99.06067119 131.08837891 100.27246094 C133.74532988 101.84889772 136.41840337 103.38970549 139.10546875 104.9140625 C140.61220754 105.77564242 142.11873271 106.63759605 143.625 107.5 C144.30425537 107.88397949 144.98351074 108.26795898 145.68334961 108.66357422 C146.31635986 109.03240723 146.94937012 109.40124023 147.6015625 109.78125 C148.14119629 110.09126953 148.68083008 110.40128906 149.23681641 110.72070312 C150.10959229 111.35395508 150.10959229 111.35395508 151 112 C151.88357178 112.62447021 152.76714355 113.24894043 153.67749023 113.89233398 C157.23693484 118.65509761 156.65953238 123.14855924 156.55859375 128.94140625 C156.55626236 130.1012352 156.55393097 131.26106415 156.55152893 132.45603943 C156.54179691 134.9046058 156.52002269 137.35314983 156.48706055 139.80151367 C156.43763495 143.55225905 156.42557807 147.30169266 156.41992188 151.05273438 C156.40583636 153.43230564 156.38963213 155.81186551 156.37109375 158.19140625 C156.36573105 159.31438614 156.36036835 160.43736603 156.35484314 161.59437561 C156.33885574 162.63903488 156.32286835 163.68369415 156.30639648 164.76000977 C156.29575668 165.6775856 156.28511688 166.59516144 156.27415466 167.5405426 C155.97932954 170.18543587 155.44431755 171.77400162 154 174 C151.68880692 175.57991715 149.43849971 176.95774641 147 178.3125 C145.47782086 179.18091294 143.95568874 180.04940832 142.43359375 180.91796875 C141.58394043 181.3979834 140.73428711 181.87799805 139.85888672 182.37255859 C136.61204286 184.22084733 133.38524379 186.10242404 130.16015625 187.98828125 C128.38433245 189.02390115 126.60814981 190.05890217 124.83178711 191.09359741 C123.65216608 191.78125527 122.47312886 192.4699156 121.29467773 193.15957642 C119.62731464 194.13407303 117.95630696 195.1023256 116.28515625 196.0703125 C115.31457275 196.63508301 114.34398926 197.19985352 113.34399414 197.78173828 C111 199 111 199 109 199 C109.061875 200.34578125 109.061875 200.34578125 109.125 201.71875 C109.125 208.49351478 107.57330284 215.18801402 106.421875 221.83984375 C105.50383639 227.30217349 104.7452377 232.45891994 105 238 C105.66008057 238.3623877 106.32016113 238.72477539 107.00024414 239.09814453 C110.02570734 240.76537182 113.04408038 242.44505683 116.0625 244.125 C117.10083984 244.69476563 118.13917969 245.26453125 119.20898438 245.8515625 C133.38647784 253.77295567 133.38647784 253.77295567 136 259 C136.11555424 260.63756827 136.1695258 262.27966836 136.19287109 263.92114258 C136.21696548 265.45832695 136.21696548 265.45832695 136.24154663 267.02656555 C136.28594443 271.71537665 136.32705908 276.40404552 136.35009766 281.09301758 C136.3666639 283.56739706 136.39396232 286.04172857 136.43212891 288.51586914 C136.48683851 292.07984289 136.50876343 295.64269437 136.5234375 299.20703125 C136.54610687 300.31238724 136.56877625 301.41774323 136.59213257 302.55659485 C136.5710096 310.22188267 136.5710096 310.22188267 133.76123047 314.05078125 C131.30195066 315.7868458 128.90313281 317.47490947 126.296875 318.98046875 C125.40701904 319.5002832 124.51716309 320.02009766 123.6003418 320.55566406 C122.18942261 321.36342285 122.18942261 321.36342285 120.75 322.1875 C118.7718465 323.33153183 116.79398514 324.47606894 114.81640625 325.62109375 C113.83559082 326.18683105 112.85477539 326.75256836 111.84423828 327.33544922 C109.23307268 328.86359747 106.65680341 330.43418265 104.08984375 332.03515625 C103.34186523 332.49575439 102.59388672 332.95635254 101.82324219 333.4309082 C100.44774705 334.28045098 99.07922981 335.1414513 97.71972656 336.01635742 C93.0196542 338.88156125 88.57800257 340.80870073 83 340 C78.39674423 338.07029005 74.22272366 335.51299441 70 332.875 C67.75020074 331.51789632 65.50020448 330.16111917 63.25 328.8046875 C62.18910156 328.15467773 61.12820313 327.50466797 60.03515625 326.83496094 C56.08274712 324.44545748 52.0627873 322.19542737 48 320 C54.65928388 331.18191966 61.40749964 342.3041771 68.25 353.375 C77.35107875 368.14042396 77.35107875 368.14042396 80.875 374.1875 C81.44992187 375.17105469 82.02484375 376.15460938 82.6171875 377.16796875 C87.55162006 387.27379814 87.57304754 400.02662406 85.125 410.87890625 C80.38656782 424.08105118 71.15817424 433.78489012 58.6875 439.95703125 C51.16240266 442.87738152 44.06662016 443.37578992 36.0703125 443.59765625 C34.90764359 443.63657486 33.74497467 443.67549347 32.54707336 443.71559143 C28.73994201 443.84026494 24.93256342 443.95187077 21.125 444.0625 C19.13749508 444.12443016 17.14999022 444.18636426 15.16250515 444.24892807 C-8.38406444 444.98796522 -31.93449078 445.56841325 -55.49023438 445.91210938 C-59.911746 445.97833329 -64.33198652 446.0734816 -68.75270081 446.17947388 C-71.88702761 446.24969766 -75.02139746 446.29816842 -78.15621948 446.34002686 C-79.55639634 446.3627366 -80.95647127 446.39386651 -82.35623169 446.43487549 C-96.70533032 446.84364353 -108.21706052 442.51931376 -119 433 C-127.97861388 424.31755567 -133.20771503 412.2893206 -133.625 399.8125 C-133.53007339 387.48786175 -127.53323167 376.53643267 -121.5625 366.125 C-120.85142664 364.86374501 -120.14148251 363.60185277 -119.43261719 362.33935547 C-117.64520019 359.1622138 -115.84380146 355.9932535 -114.03863525 352.82617188 C-112.41582811 349.97288459 -110.80784899 347.11129741 -109.19921875 344.25 C-107.02980413 340.39479251 -104.85580352 336.54231779 -102.671875 332.6953125 C-102.21619141 331.88094727 -101.76050781 331.06658203 -101.29101562 330.22753906 C-100.49144386 328.84794511 -99.65266494 327.48935749 -98.75585938 326.17089844 C-95.97454451 321.98431328 -95.19194612 318.32333004 -95.41210938 313.39111328 C-96.5041521 308.94947437 -99.64018705 306.95981922 -103.25 304.4375 C-104.33740479 303.62623657 -104.33740479 303.62623657 -105.44677734 302.79858398 C-106.91815448 301.70355667 -108.39847891 300.62044468 -109.88769531 299.54980469 C-111.82724536 298.12675063 -113.67991019 296.6458506 -115.5234375 295.1015625 C-116.05163086 294.6691626 -116.57982422 294.2367627 -117.12402344 293.79125977 C-118.53549656 292.63577112 -119.94364453 291.47622407 -121.3515625 290.31640625 C-123.91452117 288.72726211 -123.91452117 288.72726211 -126.6640625 289.3984375 C-131.49995089 291.72011694 -136.1209797 294.355378 -140.75 297.0625 C-142.6404555 298.15784467 -144.53107239 299.25291087 -146.421875 300.34765625 C-147.25299805 300.83242432 -148.08412109 301.31719238 -148.94042969 301.81665039 C-153.2978434 304.32025213 -157.03313953 304.80400138 -162 304 C-166.07738839 302.26240977 -169.75040763 299.97637284 -173.5 297.625 C-175.61839347 296.33838341 -177.73688372 295.05192615 -179.85546875 293.765625 C-180.8923584 293.12689453 -181.92924805 292.48816406 -182.99755859 291.83007812 C-185.72153934 290.16973013 -188.46628727 288.5628492 -191.23828125 286.984375 C-192.01816406 286.53884277 -192.79804688 286.09331055 -193.6015625 285.63427734 C-195.03525711 284.81769201 -196.47132515 284.00525432 -197.91015625 283.19775391 C-201.41685055 281.16910987 -203.89979981 279.47637119 -206 276 C-206.40786743 273.50930786 -206.40786743 273.50930786 -206.45166016 270.68408203 C-206.4740274 269.6226297 -206.49639465 268.56117737 -206.5194397 267.46755981 C-206.52591522 266.3258432 -206.53239075 265.18412659 -206.5390625 264.0078125 C-206.55141937 262.82911591 -206.56377625 261.65041931 -206.57650757 260.43600464 C-206.59607531 257.94290127 -206.60730616 255.44972062 -206.61083984 252.95654297 C-206.62492425 249.14549714 -206.69225987 245.33773003 -206.76171875 241.52734375 C-206.77411729 239.10418124 -206.78333686 236.68099996 -206.7890625 234.2578125 C-206.82913925 232.55131027 -206.82913925 232.55131027 -206.87002563 230.81033325 C-206.80412183 223.12336807 -206.80412183 223.12336807 -204.58735657 220.02651978 C-202.80738714 218.44694829 -201.04520668 217.21176672 -199 216 C-197.58062134 215.08951904 -197.58062134 215.08951904 -196.13256836 214.16064453 C-194.75016968 213.40436768 -194.75016968 213.40436768 -193.33984375 212.6328125 C-192.29763672 212.05660156 -191.25542969 211.48039063 -190.18164062 210.88671875 C-189.11107422 210.30535156 -188.04050781 209.72398437 -186.9375 209.125 C-183.73811097 207.3662253 -180.54288477 205.60604189 -177.37109375 203.79785156 C-174.95373616 202.50864087 -172.73247689 201.46686586 -170.20703125 200.47558594 C-165.62200555 198.5379654 -161.27854762 196.69099344 -159.04769897 191.9956665 C-157.21304792 186.13389882 -156.69375833 180.08886787 -156.125 174 C-155.90558472 172.15684685 -155.68037345 170.31437395 -155.44921875 168.47265625 C-154.89889935 163.98683958 -154.42814798 159.49905278 -154 155 C-155.08571289 154.58681519 -155.08571289 154.58681519 -156.19335938 154.1652832 C-160.84305656 152.23478523 -165.12905333 149.67358865 -169.5 147.1875 C-170.90572266 146.40536133 -170.90572266 146.40536133 -172.33984375 145.60742188 C-177.2269555 142.83112648 -181.28814431 140.23668774 -185 136 C-185.33 135.67 -185.66 135.34 -186 135 C-186.11943923 133.40592566 -186.17011866 131.80663272 -186.19287109 130.20825195 C-186.21696548 128.67579582 -186.21696548 128.67579582 -186.24154663 127.11238098 C-186.28589074 122.42071057 -186.32708476 117.72918455 -186.35009766 113.03735352 C-186.36664001 110.56297387 -186.3939069 108.08864167 -186.43212891 105.61450195 C-186.48692109 102.05134217 -186.50877905 98.48930575 -186.5234375 94.92578125 C-186.54610687 93.82244949 -186.56877625 92.71911774 -186.59213257 91.58235168 C-186.56855491 83.00020992 -186.56855491 83.00020992 -183.8203125 79.4765625 C-181.08596492 77.0754872 -178.52604574 75.21989845 -175.3515625 73.44921875 C-174.27036133 72.83699463 -173.18916016 72.22477051 -172.07519531 71.59399414 C-170.93663086 70.96485107 -169.79806641 70.33570801 -168.625 69.6875 C-166.86029786 68.69822788 -165.09764483 67.70537793 -163.33520508 66.71208191 C-161.60969988 65.73994998 -159.88249758 64.77083233 -158.15527344 63.80175781 C-155.45439201 62.25947176 -152.79986149 60.67352772 -150.1640625 59.0234375 C-149.48649902 58.59973877 -148.80893555 58.17604004 -148.11083984 57.73950195 C-146.38619186 56.64864287 -144.6693065 55.54553724 -142.953125 54.44140625 C-139.54955564 52.78014025 -137.74976508 52.69170081 -134 53 C-131.29370117 54.12646484 -131.29370117 54.12646484 -128.54296875 55.7109375 C-127.52033936 56.29206299 -126.49770996 56.87318848 -125.4440918 57.47192383 C-123.83207886 58.41394653 -123.83207886 58.41394653 -122.1875 59.375 C-120.52811401 60.32379028 -120.52811401 60.32379028 -118.83520508 61.29174805 C-113.77297143 64.19530929 -108.73955317 67.14655978 -103.71875 70.12109375 C-102.94378174 70.58016113 -102.16881348 71.03922852 -101.37036133 71.51220703 C-99.95224885 72.35695225 -98.53778251 73.20785968 -97.12768555 74.06591797 C-92.81676678 76.75305579 -92.81676678 76.75305579 -88 78 C-84.8097258 77.04362078 -84.8097258 77.04362078 -81.37109375 75.5078125 C-80.74018326 75.24241669 -80.10927277 74.97702087 -79.45924377 74.70358276 C-77.44731573 73.85463213 -75.44245294 72.99027776 -73.4375 72.125 C-71.427593 71.27044689 -69.41637858 70.41902843 -67.40504456 69.56784058 C-65.58098821 68.7938359 -63.76001761 68.01257122 -61.93920898 67.23095703 C-59 66 -59 66 -56 65 C-55.98598145 63.40345581 -55.98598145 63.40345581 -55.97167969 61.7746582 C-55.93171343 57.81395089 -55.86593701 53.85401493 -55.79248047 49.89379883 C-55.76430914 48.1819858 -55.74307548 46.47004363 -55.72900391 44.75805664 C-55.70752035 42.29246081 -55.66084584 39.82841139 -55.609375 37.36328125 C-55.60814636 36.60163162 -55.60691772 35.83998199 -55.60565186 35.05525208 C-55.46894732 30.06110319 -54.62853726 27.44978211 -51 24 C-48.42895508 22.21411133 -48.42895508 22.21411133 -45.51953125 20.58203125 C-43.90860596 19.66647461 -43.90860596 19.66647461 -42.26513672 18.73242188 C-40.55608154 17.78206055 -40.55608154 17.78206055 -38.8125 16.8125 C-37.04432228 15.81949032 -35.2776422 14.82386161 -33.5112915 13.8276062 C-32.33629697 13.16490701 -31.16063864 12.50338334 -29.98431396 11.8430481 C-26.53024518 9.89615939 -23.13873418 7.87658172 -19.78515625 5.76171875 C-18.64953247 5.05341919 -18.64953247 5.05341919 -17.4909668 4.33081055 C-16.12638146 3.47257186 -14.77141667 2.59874695 -13.42895508 1.70629883 C-8.77672617 -1.18093026 -5.11945602 -1.71496798 0 0 Z " fill="#082C76" transform="translate(345,91)"/>
<path d="M0 0 C14.19 0 28.38 0 43 0 C43.11214844 6.39632813 43.11214844 6.39632813 43.2265625 12.921875 C43.30294861 16.35386247 43.38509124 19.78560639 43.47108459 23.21736145 C43.55985931 26.82239028 43.63883102 30.42698385 43.69287109 34.03271484 C43.74546695 37.51550211 43.82661529 40.99662668 43.92637253 44.47837067 C43.97524882 46.43186951 43.99566289 48.38601524 44.01528931 50.34002686 C44.30306392 59.21103982 46.44882337 65.41470562 51 73 C51.62044189 74.09054687 52.24088379 75.18109375 52.88012695 76.3046875 C53.41081787 77.15289062 53.94150879 78.00109375 54.48828125 78.875 C55.1033252 79.8652417 55.71836914 80.8554834 56.35205078 81.87573242 C56.99899902 82.90674072 57.64594727 83.93774902 58.3125 85 C59.36967667 86.70117408 60.42682923 88.40236354 61.48278809 90.10429382 C62.2131182 91.2813191 62.94399804 92.45800345 63.67541504 93.63435364 C67.70686843 100.12280032 71.66744049 106.65381878 75.625 113.1875 C76.34189727 114.37007361 77.05885678 115.5526095 77.77587891 116.73510742 C78.83476104 118.48142732 79.89360495 120.22777021 80.95220947 121.97425842 C83.78291616 126.64395681 86.61958927 131.30999889 89.45947266 135.97412109 C90.59929463 137.84634069 91.73831009 139.71905156 92.87646484 141.59228516 C95.86943905 146.515706 98.87929578 151.42792248 101.91015625 156.328125 C102.55251221 157.37121826 103.19486816 158.41431152 103.85668945 159.48901367 C105.08590609 161.48444993 106.31985122 163.47698395 107.55932617 165.46606445 C112.5623522 173.60609937 115.24907636 180.32294525 114 190 C111.71169045 197.32259055 107.41380537 202.816601 101 207 C95.55663502 209.74592013 91.2527747 210.46369757 85.19873047 210.52416992 C84.34340225 210.54411514 83.48807404 210.56406036 82.60682678 210.58460999 C79.77704013 210.64702419 76.94735211 210.68896578 74.1171875 210.73046875 C72.10504978 210.7699025 70.09293416 210.81047864 68.08084106 210.85212708 C63.83915898 210.9370285 59.59745192 211.01261802 55.35546875 211.08081055 C50.06594686 211.16590281 44.77688399 211.26635959 39.48775864 211.37306023 C27.0414017 211.62354159 14.5949517 211.8087387 2.14701843 211.9595871 C-1.05259076 212.00067535 -4.25204377 212.04853736 -7.45153809 212.09771729 C-12.68334567 212.17636864 -17.9149749 212.23285972 -23.14721298 212.27327919 C-25.10480154 212.29140652 -27.06234072 212.31632017 -29.01974869 212.34850121 C-31.72286866 212.39135776 -34.42500532 212.40843962 -37.12841797 212.41918945 C-37.91297741 212.43724703 -38.69753685 212.4553046 -39.50587082 212.47390938 C-46.09332036 212.45363529 -51.16642319 210.38722577 -56.20703125 206.140625 C-62.19846989 199.08501356 -64.89715571 192.7508462 -64.58203125 183.35546875 C-63.3480498 176.24144146 -59.5131214 170.20721767 -56 164 C-54.95853436 162.12300634 -53.91823902 160.24536301 -52.87890625 158.3671875 C-50.52771023 154.13537492 -48.15854571 149.91421631 -45.77734375 145.69921875 C-41.98489735 138.98451394 -38.2387484 132.24471377 -34.5 125.5 C-29.11922134 115.79983366 -23.71501724 106.11323312 -18.26953125 96.44921875 C-17.17876229 94.50765 -16.10923456 92.55406188 -15.05615234 90.59179688 C-13.51058281 87.78331177 -11.76340019 85.17419344 -9.94775391 82.53320312 C0.49827946 66.58121803 0.66120389 51.72838651 0.28753662 33.35784912 C0.21281748 28.91321428 0.23000592 24.4679971 0.23085022 20.02285767 C0.22229475 13.34564526 0.10090761 6.67930767 0 0 Z " fill="#D1DBFC" transform="translate(297,304)"/>
<path d="M0 0 C0.98540771 0.57991699 1.97081543 1.15983398 2.98608398 1.75732422 C4.02579346 2.37236816 5.06550293 2.98741211 6.13671875 3.62109375 C8.30058511 4.88575233 10.46464806 6.15007459 12.62890625 7.4140625 C16.31858555 9.57622132 19.99170804 11.76061132 23.64453125 13.984375 C25.01678286 14.80102365 26.38916692 15.6174498 27.76171875 16.43359375 C28.35573486 16.80814697 28.94975098 17.1827002 29.56176758 17.56860352 C34.33832279 20.37107428 38.45599272 21.22535445 43.82421875 20.05859375 C48.31152327 18.11879036 52.44789699 15.69443002 56.63671875 13.18359375 C58.85144504 11.89432945 61.06628401 10.60525869 63.28125 9.31640625 C64.2503833 8.74035645 65.2195166 8.16430664 66.21801758 7.57080078 C68.38942925 6.31087348 70.56358808 5.1473546 72.82421875 4.05859375 C74.33048828 5.29222656 74.33048828 5.29222656 75.8671875 6.55078125 C77.24861981 7.6784811 78.6301348 8.80607968 80.01171875 9.93359375 C80.66591797 10.46984375 81.32011719 11.00609375 81.99414062 11.55859375 C82.67412109 12.11289063 83.35410156 12.6671875 84.0546875 13.23828125 C85.14438843 14.16858154 85.14438843 14.16858154 86.25610352 15.11767578 C88.85645774 17.19881596 88.85645774 17.19881596 92.23413086 18.80810547 C96.19322538 20.9622749 99.48140437 23.11786289 101.82421875 27.05859375 C104.08723115 35.5639511 103.2775818 44.72291083 103.01171875 53.43359375 C102.96097934 57.03440844 102.92829078 60.63492355 102.90193176 64.23599243 C102.87917189 66.46881914 102.83872182 68.70155186 102.77861023 70.9336853 C102.75651993 71.94218536 102.73442963 72.95068542 102.71166992 73.98974609 C102.68578293 74.87447601 102.65989594 75.75920593 102.63322449 76.67074585 C102.84493348 79.31757343 103.38579871 80.8373152 104.82421875 83.05859375 C106.91870988 84.49830505 108.92638841 85.73603103 111.14453125 86.94921875 C111.76319061 87.29869568 112.38184998 87.64817261 113.01925659 88.00823975 C114.99035036 89.11862661 116.96948139 90.21370623 118.94921875 91.30859375 C120.28962089 92.06020297 121.62947174 92.81279624 122.96875 93.56640625 C126.24762614 95.40860186 129.53379066 97.23711807 132.82421875 99.05859375 C132.85040344 102.06001435 132.84429785 105.05727045 132.82421875 108.05859375 C132.82808594 109.1573584 132.83195313 110.25612305 132.8359375 111.38818359 C132.5705461 133.74439345 132.5705461 133.74439345 126.58544922 140.63671875 C120.93920773 145.04354137 114.56467878 147.89487785 107.99755859 150.66894531 C103.14313606 152.79476259 98.63597214 155.43704658 94.07421875 158.12109375 C93.29554443 158.55123779 92.51687012 158.98138184 91.71459961 159.42456055 C90.63190796 160.03424683 90.63190796 160.03424683 89.52734375 160.65625 C88.90504883 161.00179932 88.28275391 161.34734863 87.64160156 161.70336914 C83.77092949 164.58973409 81.99399639 166.91137983 81.27832031 171.74731445 C81.23739724 173.15923352 81.21726116 174.57186507 81.21484375 175.984375 C81.1983075 176.73196579 81.18177124 177.47955658 81.16473389 178.24980164 C81.11637952 180.62365027 81.09491239 182.99685897 81.07421875 185.37109375 C81.04604832 186.9863601 81.01611938 188.60159681 80.984375 190.21679688 C80.9106248 194.16400977 80.86097418 198.11087006 80.82421875 202.05859375 C78.34921875 203.04859375 78.34921875 203.04859375 75.82421875 204.05859375 C73.88577606 200.99668949 71.94863299 197.93396506 70.01171875 194.87109375 C69.1909082 193.57461914 69.1909082 193.57461914 68.35351562 192.25195312 C67.29449808 190.57677992 66.24117223 188.89799243 65.1940918 187.21533203 C64.18004049 185.61880214 63.09740547 184.06538492 61.98046875 182.5390625 C60.16477085 178.64389977 60.23869731 174.81158886 60.13671875 170.55859375 C60.10908447 169.59260254 60.0814502 168.62661133 60.05297852 167.63134766 C59.99703756 165.40969241 59.94976111 163.18780919 59.90917969 160.96582031 C59.84733709 158.12177177 59.76532692 155.28289752 59.66113281 152.44042969 C59.50948821 148.27509198 59.40221718 144.11038637 59.32040405 139.94311523 C59.28138602 138.27461232 59.22890374 136.60636817 59.16275024 134.9387207 C58.65015649 121.46789797 58.65015649 121.46789797 61.55932617 117.97583008 C63.70703125 116.6640625 63.70703125 116.6640625 65.85595703 115.84057617 C69.10091201 114.55136868 70.24253544 112.03215838 71.82421875 109.05859375 C73.72034855 103.26614359 73.09241874 96.82748882 73.13671875 90.80859375 C73.16572266 89.51050781 73.19472656 88.21242188 73.22460938 86.875 C73.27385517 79.44267294 72.96252415 74.31910705 68.82421875 68.05859375 C62.65733013 62.04983048 56.82742703 61.7670782 48.62890625 61.828125 C47.11543861 61.8279966 47.11543861 61.8279966 45.57139587 61.8278656 C42.28053365 61.8311522 38.99001198 61.85001514 35.69921875 61.87109375 C33.43579147 61.88064192 31.17236373 61.89008143 28.90893555 61.89941406 C23.26587963 61.92770612 17.62314157 61.97379181 11.98028564 62.02862549 C9.03879324 62.05655627 6.09730542 62.07936998 3.15576172 62.10107422 C-0.94478217 62.13449304 -5.04430063 62.19063695 -9.14422607 62.26913452 C-10.61015284 62.29520162 -12.07620168 62.31519357 -13.54229736 62.32876587 C-22.30193164 62.42042673 -28.29051893 62.57861104 -34.91796875 68.65625 C-39.94537452 75.15720573 -39.42694529 81.22271389 -39.47094727 89.09008789 C-39.4824321 90.51857435 -39.50282861 91.94701908 -39.5324707 93.37524414 C-39.77996325 104.81392679 -39.77996325 104.81392679 -35.17578125 115.05859375 C-32.23062238 118.1179638 -28.99521661 120.23119149 -25.17578125 122.05859375 C-24.71758089 134.58233076 -24.71758089 134.58233076 -24.55981445 140.76318359 C-24.54097702 141.49722412 -24.52213959 142.23126465 -24.50273132 142.98754883 C-24.46424363 144.48835419 -24.42609004 145.98916815 -24.38825989 147.48999023 C-24.26059133 152.14462724 -24.01128409 156.7758607 -23.6875 161.421875 C-22.75006577 178.23590574 -26.59879436 189.22587576 -36.17578125 203.05859375 C-40.41672595 203.05859375 -40.91582463 202.87161073 -44.0390625 200.42578125 C-45.1228418 199.58660156 -45.1228418 199.58660156 -46.22851562 198.73046875 C-46.97423828 198.1375 -47.71996094 197.54453125 -48.48828125 196.93359375 C-49.22240234 196.36382812 -49.95652344 195.7940625 -50.71289062 195.20703125 C-52.88538131 193.5106765 -55.04218863 191.80374386 -57.17578125 190.05859375 C-57.77059799 189.68587341 -58.36541473 189.31315308 -58.97825623 188.92913818 C-62.05537349 186.79224645 -63.89689044 185.2528599 -64.76872253 181.51950073 C-64.94977672 178.35439423 -64.90924578 175.25813908 -64.796875 172.08984375 C-64.78315688 169.72135443 -64.76948646 167.35286484 -64.75585938 164.984375 C-64.69118096 161.26450519 -64.61298028 157.54517743 -64.52954102 153.82568359 C-64.46076069 150.2257831 -64.43974277 146.62780087 -64.421875 143.02734375 C-64.38049911 141.91782349 -64.33912323 140.80830322 -64.29649353 139.66516113 C-64.18460306 133.94581508 -64.18460306 133.94581508 -66.82011414 129.0962677 C-68.86606466 127.52675053 -70.90286444 126.27133663 -73.17578125 125.05859375 C-74.10640381 124.47553467 -75.03702637 123.89247559 -75.99584961 123.29174805 C-77.24313843 122.59432495 -77.24313843 122.59432495 -78.515625 121.8828125 C-79.43279297 121.36525391 -80.34996094 120.84769531 -81.29492188 120.31445312 C-82.22498047 119.79689453 -83.15503906 119.27933594 -84.11328125 118.74609375 C-85.99812733 117.68880299 -87.88228173 116.63027788 -89.765625 115.5703125 C-90.58925537 115.11100342 -91.41288574 114.65169434 -92.26147461 114.1784668 C-94.17578125 113.05859375 -94.17578125 113.05859375 -95.17578125 112.05859375 C-95.27740726 109.36889209 -95.25631769 106.7473466 -95.17578125 104.05859375 C-95.14645508 102.93614258 -95.11712891 101.81369141 -95.08691406 100.65722656 C-94.14566231 77.26981835 -94.14566231 77.26981835 -89.65478516 70.90185547 C-85.71243982 67.54664523 -80.96412736 66.00840879 -76.14794922 64.28076172 C-70.64061834 62.0161241 -65.60323899 58.85150816 -60.51394653 55.78366089 C-58.70026158 54.69824423 -56.87310719 53.63974282 -55.04077148 52.58618164 C-53.92001221 51.92996826 -52.79925293 51.27375488 -51.64453125 50.59765625 C-50.13536133 49.71907959 -50.13536133 49.71907959 -48.59570312 48.82275391 C-45.98554942 46.91991183 -45.09871134 46.11855825 -44.17578125 43.05859375 C-43.94033555 40.41857316 -43.80393704 37.87317915 -43.76171875 35.23046875 C-43.7423526 34.48146301 -43.72298645 33.73245728 -43.70303345 32.96075439 C-43.64342409 30.57681539 -43.59692771 28.19282761 -43.55078125 25.80859375 C-43.51258424 24.18878144 -43.4735315 22.56898907 -43.43359375 20.94921875 C-43.33773812 16.98583969 -43.25363879 13.02236556 -43.17578125 9.05859375 C-36.42755634 5.55707876 -29.52015415 2.56867544 -22.48828125 -0.31640625 C-21.37388672 -0.79207031 -20.25949219 -1.26773438 -19.11132812 -1.7578125 C-18.03560547 -2.19738281 -16.95988281 -2.63695312 -15.8515625 -3.08984375 C-14.88130127 -3.49380371 -13.91104004 -3.89776367 -12.91137695 -4.31396484 C-7.90029222 -5.46331672 -4.21939958 -2.49460232 0 0 Z " fill="#FDFDFE" transform="translate(301.17578125,181.94140625)"/>
<path d="M0 0 C4.10359728 1.88501304 7.97826568 4.09748658 11.875 6.375 C13.515896 7.31641846 13.515896 7.31641846 15.18994141 8.27685547 C18.47004659 10.16784114 21.73665326 12.08026578 25 14 C25.94617188 14.55236328 26.89234375 15.10472656 27.8671875 15.67382812 C30.37784913 17.14451628 32.87895622 18.62966225 35.375 20.125 C36.11089355 20.56118652 36.84678711 20.99737305 37.60498047 21.44677734 C38.6164917 22.06480225 38.6164917 22.06480225 39.6484375 22.6953125 C40.22770996 23.04609863 40.80698242 23.39688477 41.40380859 23.75830078 C44.19598636 25.93037422 45.85746429 27.89559623 46.31797791 31.46377563 C46.29288651 32.38403534 46.2677951 33.30429504 46.24194336 34.25244141 C46.22300522 35.30098297 46.20406708 36.34952454 46.18455505 37.42984009 C46.15330032 38.55900848 46.12204559 39.68817688 46.08984375 40.8515625 C46.06825164 43.25388341 46.04946086 45.65623082 46.03320312 48.05859375 C45.99423023 51.83871929 45.93777492 55.61515254 45.83227539 59.39404297 C44.6595036 73.80252092 44.6595036 73.80252092 49.48120117 86.72290039 C52.32702465 89.37610024 55.57470911 91.17159703 59 93 C60.38379335 94.10155129 61.74244611 95.23642117 63.05859375 96.41796875 C64.18389342 97.34236746 65.31014756 98.26560587 66.4375 99.1875 C67.00919922 99.67541016 67.58089844 100.16332031 68.16992188 100.66601562 C71.39344064 103.27647133 71.39344064 103.27647133 75.35546875 104.1015625 C79.37137973 102.42876059 83.10496223 100.35109311 86.875 98.1875 C87.65230469 97.74857422 88.42960938 97.30964844 89.23046875 96.85742188 C89.99746094 96.42365234 90.76445312 95.98988281 91.5546875 95.54296875 C92.31104492 95.11677246 93.06740234 94.69057617 93.84667969 94.25146484 C95.20167771 93.46396826 96.53938602 92.64511078 97.84863281 91.78369141 C101.40027461 89.49819077 104.50924752 88.25658079 108.78564453 88.49707031 C113.62194878 89.59550325 117.73232147 92.33852077 121.9375 94.875 C122.94151855 95.46345703 123.94553711 96.05191406 124.97998047 96.65820312 C127.0202411 97.85595193 129.05642633 99.06067119 131.08837891 100.27246094 C133.74532988 101.84889772 136.41840337 103.38970549 139.10546875 104.9140625 C140.61220754 105.77564242 142.11873271 106.63759605 143.625 107.5 C144.30425537 107.88397949 144.98351074 108.26795898 145.68334961 108.66357422 C146.31635986 109.03240723 146.94937012 109.40124023 147.6015625 109.78125 C148.14119629 110.09126953 148.68083008 110.40128906 149.23681641 110.72070312 C150.10959229 111.35395508 150.10959229 111.35395508 151 112 C151.88357178 112.62447021 152.76714355 113.24894043 153.67749023 113.89233398 C157.23693484 118.65509761 156.65953238 123.14855924 156.55859375 128.94140625 C156.55626236 130.1012352 156.55393097 131.26106415 156.55152893 132.45603943 C156.54179691 134.9046058 156.52002269 137.35314983 156.48706055 139.80151367 C156.43763495 143.55225905 156.42557807 147.30169266 156.41992188 151.05273438 C156.40583636 153.43230564 156.38963213 155.81186551 156.37109375 158.19140625 C156.36573105 159.31438614 156.36036835 160.43736603 156.35484314 161.59437561 C156.33885574 162.63903488 156.32286835 163.68369415 156.30639648 164.76000977 C156.29575668 165.6775856 156.28511688 166.59516144 156.27415466 167.5405426 C155.97932954 170.18543587 155.44431755 171.77400162 154 174 C151.68867869 175.5800048 149.43903901 176.95839229 147 178.3125 C145.46968336 179.18033971 143.93976263 180.04887778 142.41015625 180.91796875 C141.55953613 181.3979834 140.70891602 181.87799805 139.83251953 182.37255859 C136.65109125 184.20046765 133.51154766 186.09087683 130.37109375 187.98828125 C128.63573744 189.02544368 126.89896302 190.06017523 125.16137695 191.09359741 C123.46371693 192.1093143 121.7757015 193.14109531 120.08789062 194.1730957 C109.78051553 200.25222532 109.78051553 200.25222532 103 199 C100.14864138 197.89847936 97.61095021 196.4562882 95 194.875 C94.25032959 194.43776611 93.50065918 194.00053223 92.72827148 193.55004883 C91.0687677 192.5807352 89.4132718 191.60453678 87.76123047 190.62255859 C84.72807552 188.84021131 81.66605624 187.11544976 78.59765625 185.39453125 C76.41883267 184.15962693 74.24044294 182.9239568 72.0625 181.6875 C71.01384766 181.10145996 69.96519531 180.51541992 68.88476562 179.91162109 C67.41233398 179.06398193 67.41233398 179.06398193 65.91015625 178.19921875 C65.03496338 177.70252686 64.15977051 177.20583496 63.25805664 176.6940918 C60.40796064 174.55582645 59.32536565 173.34836348 58 170 C57.69080727 166.16471535 57.84661174 162.36529349 57.98046875 158.5234375 C58.01180695 156.22009515 58.03969149 153.91670369 58.06445312 151.61328125 C58.11566659 147.9969736 58.18708852 144.38630846 58.31860352 140.77197266 C59.47494686 126.55542697 59.47494686 126.55542697 54.08007812 114.11694336 C51.19457587 111.6163833 48.0717538 109.70330414 44.70095825 107.92651367 C42.44519066 106.69779479 40.53692599 105.16411331 38.5703125 103.51953125 C37.98378906 103.05869141 37.39726562 102.59785156 36.79296875 102.12304688 C34.1953125 100.08203125 31.59765625 98.04101562 29 96 C27.54105115 96.79053176 26.08291354 97.58256051 24.625 98.375 C23.62984375 98.91125 22.6346875 99.4475 21.609375 100 C18.89493299 101.48228915 16.23431196 103.04084736 13.578125 104.625 C12.80259277 105.0782666 12.02706055 105.5315332 11.22802734 105.99853516 C9.68796536 106.89943467 8.1565321 107.81529066 6.63525391 108.74755859 C1.39613796 111.77828916 -2.96815068 113.4144863 -9 112 C-13.56363557 110.06647147 -17.79694692 107.63199596 -22.0625 105.125 C-23.26643952 104.43985141 -24.47136369 103.75643028 -25.67724609 103.07470703 C-30.89564748 100.10307329 -36.03246439 97.04635401 -41.00390625 93.671875 C-41.71603271 93.19347168 -42.42815918 92.71506836 -43.16186523 92.22216797 C-44.42566189 91.35490893 -45.67095201 90.45970511 -46.89086914 89.53173828 C-49.19004965 87.93745263 -51.10968714 86.88473578 -53.94799805 87.25219727 C-56.37448442 88.026974 -58.66157362 88.98933159 -61 90 C-63.18672644 90.83229693 -65.37569521 91.65871706 -67.56640625 92.48046875 C-69.89923675 93.38074418 -72.2312551 94.28312663 -74.5625 95.1875 C-75.76197266 95.65091797 -76.96144531 96.11433594 -78.19726562 96.59179688 C-81.1322277 97.72602525 -84.0664464 98.86213485 -87 100 C-87.04898437 98.81921875 -87.09796875 97.6384375 -87.1484375 96.421875 C-87.22348879 94.86456063 -87.29903561 93.30727009 -87.375 91.75 C-87.4059375 90.97269531 -87.436875 90.19539063 -87.46875 89.39453125 C-87.50742187 88.64042969 -87.54609375 87.88632813 -87.5859375 87.109375 C-87.6173584 86.41811523 -87.6487793 85.72685547 -87.68115234 85.01464844 C-88.04590967 82.70991835 -88.86724094 81.02704253 -90 79 C-86.77268315 77.59986353 -83.54279719 76.20574506 -80.3125 74.8125 C-79.41982422 74.42513672 -78.52714844 74.03777344 -77.60742188 73.63867188 C-70.47567689 70.56770695 -63.26289517 67.74524244 -56 65 C-55.9906543 63.93563721 -55.98130859 62.87127441 -55.97167969 61.7746582 C-55.93171343 57.81395089 -55.86593701 53.85401493 -55.79248047 49.89379883 C-55.76430914 48.1819858 -55.74307548 46.47004363 -55.72900391 44.75805664 C-55.70752035 42.29246081 -55.66084584 39.82841139 -55.609375 37.36328125 C-55.60814636 36.60163162 -55.60691772 35.83998199 -55.60565186 35.05525208 C-55.46894732 30.06110319 -54.62853726 27.44978211 -51 24 C-48.42895508 22.21411133 -48.42895508 22.21411133 -45.51953125 20.58203125 C-44.44558105 19.97166016 -43.37163086 19.36128906 -42.26513672 18.73242188 C-41.1257666 18.09884766 -39.98639648 17.46527344 -38.8125 16.8125 C-37.04432228 15.81949032 -35.2776422 14.82386161 -33.5112915 13.8276062 C-32.33629697 13.16490701 -31.16063864 12.50338334 -29.98431396 11.8430481 C-26.53024518 9.89615939 -23.13873418 7.87658172 -19.78515625 5.76171875 C-18.64953247 5.05341919 -18.64953247 5.05341919 -17.4909668 4.33081055 C-16.12638146 3.47257186 -14.77141667 2.59874695 -13.42895508 1.70629883 C-8.77672617 -1.18093026 -5.11945602 -1.71496798 0 0 Z " fill="#6965F6" transform="translate(345,91)"/>
<path d="M0 0 C2.70629883 1.12646484 2.70629883 1.12646484 5.45703125 2.7109375 C6.99085449 3.58202148 6.99085449 3.58202148 8.55566406 4.47070312 C9.63041992 5.09912109 10.70517578 5.72753906 11.8125 6.375 C12.91948242 7.01115234 14.02646484 7.64730469 15.16699219 8.30273438 C17.40114078 9.58919976 19.6321441 10.88114385 21.85986328 12.17871094 C24.64224379 13.79250029 27.43839513 15.37615932 30.24609375 16.9453125 C31.74781928 17.79612803 33.24915382 18.64763424 34.75 19.5 C35.42135986 19.8717334 36.09271973 20.2434668 36.78442383 20.62646484 C37.40728271 20.98691895 38.0301416 21.34737305 38.671875 21.71875 C39.1987793 22.01716797 39.72568359 22.31558594 40.26855469 22.62304688 C43.92053371 25.52732799 46.59497387 27.79650445 47.45452881 32.47280884 C47.62850001 35.51545476 47.64049038 38.51910892 47.59375 41.56640625 C47.59379028 42.67805649 47.59383057 43.78970673 47.59387207 44.93504333 C47.58852262 47.27926301 47.57096482 49.62348257 47.54199219 51.9675293 C47.50010185 55.55378035 47.50092918 59.13815464 47.5078125 62.72460938 C47.49732081 65.00522137 47.48438282 67.2858237 47.46875 69.56640625 C47.46844788 71.17280724 47.46844788 71.17280724 47.46813965 72.81166077 C47.31736906 82.29947254 47.31736906 82.29947254 44 86 C41.72607422 87.6940918 41.72607422 87.6940918 39.0546875 89.19921875 C38.06750732 89.76423096 37.08032715 90.32924316 36.06323242 90.91137695 C35.01111572 91.49749756 33.95899902 92.08361816 32.875 92.6875 C30.70158521 93.92406146 28.5284097 95.16104357 26.35546875 96.3984375 C25.28087402 97.00526367 24.2062793 97.61208984 23.09912109 98.23730469 C18.05310486 101.1073407 13.07219083 104.0859188 8.09130859 107.06713867 C5.41171341 108.6552359 2.96559655 110.01146782 0 111 C-0.57636092 115.26752342 -1.14575095 119.53590474 -1.70898438 123.80517578 C-1.90112866 125.25431767 -2.09510281 126.70321825 -2.29101562 128.15185547 C-2.57395134 130.2464459 -2.85007009 132.3418455 -3.125 134.4375 C-3.29257813 135.69433594 -3.46015625 136.95117188 -3.6328125 138.24609375 C-4.02062944 142.21090307 -4.06170681 146.01991098 -4 150 C-2.84999512 150.6501709 -2.84999512 150.6501709 -1.67675781 151.31347656 C1.18138629 152.93346675 4.03607829 154.55923548 6.88867188 156.18896484 C8.12107327 156.89148537 9.35478338 157.59171545 10.58984375 158.28955078 C12.37072912 159.2963255 14.14665637 160.3113992 15.921875 161.328125 C16.99018555 161.9355957 18.05849609 162.54306641 19.15917969 163.16894531 C21.92926562 164.95440806 23.89109365 166.47722711 26 169 C26.50793457 171.49742126 26.50793457 171.49742126 26.51757812 174.33178711 C26.53018677 175.39646713 26.54279541 176.46114716 26.55578613 177.55809021 C26.54768921 178.70294388 26.53959229 179.84779755 26.53125 181.02734375 C26.53699036 182.79894615 26.53699036 182.79894615 26.54284668 184.6063385 C26.54556829 187.10369723 26.53818983 189.60108434 26.52148438 192.09838867 C26.5000993 195.91975584 26.52126995 199.73923865 26.546875 203.56054688 C26.5442314 205.98698332 26.53910575 208.41341859 26.53125 210.83984375 C26.53934692 211.98267319 26.54744385 213.12550262 26.55578613 214.30296326 C26.46251135 222.20245039 26.46251135 222.20245039 24.19116211 226.11914062 C22.29280063 227.74866451 20.61538568 229.09009279 18.41015625 230.25390625 C17.71792969 230.62781494 17.02570313 231.00172363 16.3125 231.38696289 C15.57 231.77489014 14.8275 232.16281738 14.0625 232.5625 C12.45880975 233.42555086 10.8559826 234.29020694 9.25390625 235.15625 C8.40715332 235.61128906 7.56040039 236.06632813 6.68798828 236.53515625 C1.91595912 239.1357171 -2.78892378 241.85356004 -7.5 244.5625 C-9.28097599 245.58511277 -11.06220531 246.60728456 -12.84375 247.62890625 C-13.59849609 248.06275635 -14.35324219 248.49660645 -15.13085938 248.94360352 C-19.4152192 251.36502788 -23.14640042 251.78566748 -28 251 C-32.07738839 249.26240977 -35.75040763 246.97637284 -39.5 244.625 C-41.61839347 243.33838341 -43.73688372 242.05192615 -45.85546875 240.765625 C-46.8923584 240.12689453 -47.92924805 239.48816406 -48.99755859 238.83007812 C-51.72153934 237.16973013 -54.46628727 235.5628492 -57.23828125 233.984375 C-58.40810547 233.31607666 -58.40810547 233.31607666 -59.6015625 232.63427734 C-61.03525711 231.81769201 -62.47132515 231.00525432 -63.91015625 230.19775391 C-67.41685055 228.16910987 -69.89979981 226.47637119 -72 223 C-72.40786743 220.50930786 -72.40786743 220.50930786 -72.45166016 217.68408203 C-72.4740274 216.6226297 -72.49639465 215.56117737 -72.5194397 214.46755981 C-72.52591522 213.3258432 -72.53239075 212.18412659 -72.5390625 211.0078125 C-72.55759781 209.23976761 -72.55759781 209.23976761 -72.57650757 207.43600464 C-72.59607531 204.94290127 -72.60730616 202.44972062 -72.61083984 199.95654297 C-72.62492425 196.14549714 -72.69225987 192.33773003 -72.76171875 188.52734375 C-72.77411729 186.10418124 -72.78333686 183.68099996 -72.7890625 181.2578125 C-72.82913925 179.55131027 -72.82913925 179.55131027 -72.87002563 177.81033325 C-72.80412183 170.12336807 -72.80412183 170.12336807 -70.58735657 167.02651978 C-68.80738714 165.44694829 -67.04520668 164.21176672 -65 163 C-63.58062134 162.08951904 -63.58062134 162.08951904 -62.13256836 161.16064453 C-60.75016968 160.40436768 -60.75016968 160.40436768 -59.33984375 159.6328125 C-58.29763672 159.05660156 -57.25542969 158.48039063 -56.18164062 157.88671875 C-55.11107422 157.30535156 -54.04050781 156.72398437 -52.9375 156.125 C-49.73811097 154.3662253 -46.54288477 152.60604189 -43.37109375 150.79785156 C-40.95373616 149.50864087 -38.73247689 148.46686586 -36.20703125 147.47558594 C-31.62200555 145.5379654 -27.27854762 143.69099344 -25.04769897 138.9956665 C-23.21304792 133.13389882 -22.69375833 127.08886787 -22.125 121 C-21.90558472 119.15684685 -21.68037345 117.31437395 -21.44921875 115.47265625 C-20.89889935 110.98683958 -20.42814798 106.49905278 -20 102 C-20.72380859 101.72454346 -21.44761719 101.44908691 -22.19335938 101.1652832 C-26.84305656 99.23478523 -31.12905333 96.67358865 -35.5 94.1875 C-36.90572266 93.40536133 -36.90572266 93.40536133 -38.33984375 92.60742188 C-43.2269555 89.83112648 -47.28814431 87.23668774 -51 83 C-51.495 82.505 -51.495 82.505 -52 82 C-52.11943923 80.40592566 -52.17011866 78.80663272 -52.19287109 77.20825195 C-52.21696548 75.67579582 -52.21696548 75.67579582 -52.24154663 74.11238098 C-52.28589074 69.42071057 -52.32708476 64.72918455 -52.35009766 60.03735352 C-52.36664001 57.56297387 -52.3939069 55.08864167 -52.43212891 52.61450195 C-52.48692109 49.05134217 -52.50877905 45.48930575 -52.5234375 41.92578125 C-52.54610687 40.82244949 -52.56877625 39.71911774 -52.59213257 38.58235168 C-52.56855491 30.00020992 -52.56855491 30.00020992 -49.8203125 26.4765625 C-47.08596492 24.0754872 -44.52604574 22.21989845 -41.3515625 20.44921875 C-39.72976074 19.53088257 -39.72976074 19.53088257 -38.07519531 18.59399414 C-36.93663086 17.96485107 -35.79806641 17.33570801 -34.625 16.6875 C-32.86029786 15.69822788 -31.09764483 14.70537793 -29.33520508 13.71208191 C-27.60969988 12.73994998 -25.88249758 11.77083233 -24.15527344 10.80175781 C-21.45439201 9.25947176 -18.79986149 7.67352772 -16.1640625 6.0234375 C-15.48649902 5.59973877 -14.80893555 5.17604004 -14.11083984 4.73950195 C-12.38619186 3.64864287 -10.6693065 2.54553724 -8.953125 1.44140625 C-5.54955564 -0.21985975 -3.74976508 -0.30829919 0 0 Z " fill="#082C76" transform="translate(211,144)"/>
<path d="M0 0 C3.84420882 1.63813597 7.36333547 3.71913574 10.9375 5.875 C11.94151855 6.46345703 12.94553711 7.05191406 13.97998047 7.65820312 C16.0202411 8.85595193 18.05642633 10.06067119 20.08837891 11.27246094 C22.74532988 12.84889772 25.41840337 14.38970549 28.10546875 15.9140625 C29.61220754 16.77564242 31.11873271 17.63759605 32.625 18.5 C33.30425537 18.88397949 33.98351074 19.26795898 34.68334961 19.66357422 C35.31635986 20.03240723 35.94937012 20.40124023 36.6015625 20.78125 C37.14119629 21.09126953 37.68083008 21.40128906 38.23681641 21.72070312 C38.81866699 22.14287109 39.40051758 22.56503906 40 23 C41.32535767 23.93670532 41.32535767 23.93670532 42.67749023 24.89233398 C46.23693484 29.65509761 45.65953238 34.14855924 45.55859375 39.94140625 C45.55509666 41.68114967 45.55509666 41.68114967 45.55152893 43.45603943 C45.54179691 45.9046058 45.52002269 48.35314983 45.48706055 50.80151367 C45.43763495 54.55225905 45.42557807 58.30169266 45.41992188 62.05273438 C45.40583636 64.43230564 45.38963213 66.81186551 45.37109375 69.19140625 C45.3630497 70.87587608 45.3630497 70.87587608 45.35484314 72.59437561 C45.33885574 73.63903488 45.32286835 74.68369415 45.30639648 75.76000977 C45.29043678 77.13637352 45.29043678 77.13637352 45.27415466 78.5405426 C44.97932954 81.18543587 44.44431755 82.77400162 43 85 C40.68867869 86.5800048 38.43903901 87.95839229 36 89.3125 C34.46968336 90.18033971 32.93976263 91.04887778 31.41015625 91.91796875 C30.55953613 92.3979834 29.70891602 92.87799805 28.83251953 93.37255859 C25.65109125 95.20046765 22.51154766 97.09087683 19.37109375 98.98828125 C17.63573744 100.02544368 15.89896302 101.06017523 14.16137695 102.09359741 C12.46371693 103.1093143 10.7757015 104.14109531 9.08789062 105.1730957 C-1.21948447 111.25222532 -1.21948447 111.25222532 -8 110 C-10.85135862 108.89847936 -13.38904979 107.4562882 -16 105.875 C-16.74967041 105.43776611 -17.49934082 105.00053223 -18.27172852 104.55004883 C-19.9312323 103.5807352 -21.5867282 102.60453678 -23.23876953 101.62255859 C-26.27192448 99.84021131 -29.33394376 98.11544976 -32.40234375 96.39453125 C-34.58116733 95.15962693 -36.75955706 93.9239568 -38.9375 92.6875 C-39.98615234 92.10145996 -41.03480469 91.51541992 -42.11523438 90.91162109 C-43.09685547 90.34652832 -44.07847656 89.78143555 -45.08984375 89.19921875 C-46.40263306 88.45418091 -46.40263306 88.45418091 -47.74194336 87.6940918 C-51.05499075 85.20850029 -52.76417196 82.54248033 -53.39440918 78.42028809 C-53.40282837 77.50493286 -53.41124756 76.58957764 -53.41992188 75.64648438 C-53.43583374 74.60190063 -53.45174561 73.55731689 -53.46813965 72.4810791 C-53.46834106 71.3632605 -53.46854248 70.24544189 -53.46875 69.09375 C-53.48017029 67.35756409 -53.48017029 67.35756409 -53.49182129 65.58630371 C-53.50261442 63.14203039 -53.50547862 60.69771098 -53.50097656 58.25341797 C-53.50000344 54.51321693 -53.54165497 50.77506163 -53.5859375 47.03515625 C-53.59114394 44.65885844 -53.5938327 42.28255351 -53.59375 39.90625 C-53.61014526 38.7884314 -53.62654053 37.67061279 -53.64343262 36.5189209 C-53.57457778 28.78959294 -53.57457778 28.78959294 -50.78637695 24.95800781 C-48.16829253 23.11826041 -45.60042359 21.35727159 -42.82421875 19.765625 C-41.83873047 19.19537598 -40.85324219 18.62512695 -39.83789062 18.03759766 C-38.79826172 17.44769043 -37.75863281 16.8577832 -36.6875 16.25 C-35.08358398 15.33226807 -35.08358398 15.33226807 -33.44726562 14.39599609 C-31.29895256 13.16778885 -29.14907195 11.94231902 -26.99755859 10.71972656 C-24.35937103 9.20617442 -21.74744212 7.65907072 -19.14453125 6.0859375 C-18.43401611 5.6640918 -17.72350098 5.24224609 -16.99145508 4.80761719 C-15.71152577 4.04753658 -14.43849648 3.27564673 -13.17456055 2.48925781 C-8.83862851 -0.03856314 -4.9065585 -1.08517711 0 0 Z " fill="#062B76" transform="translate(456,180)"/>
<path d="M0 0 C2.70629883 1.12646484 2.70629883 1.12646484 5.45703125 2.7109375 C6.47966064 3.29182129 7.50229004 3.87270508 8.5559082 4.47119141 C10.16792114 5.41357666 10.16792114 5.41357666 11.8125 6.375 C12.91875732 7.00970215 14.02501465 7.6444043 15.16479492 8.29833984 C17.39845623 9.58290973 19.62872984 10.87338941 21.85546875 12.16992188 C24.6560211 13.79980856 27.46588436 15.41152132 30.28125 17.015625 C31.79229244 17.88432909 33.30275685 18.7540398 34.8125 19.625 C35.49223877 20.01349121 36.17197754 20.40198242 36.87231445 20.80224609 C40.40306846 22.87135609 43.3791003 24.84585339 46 28 C46.50793457 30.49742126 46.50793457 30.49742126 46.51757812 33.33178711 C46.53018677 34.39646713 46.54279541 35.46114716 46.55578613 36.55809021 C46.54768921 37.70294388 46.53959229 38.84779755 46.53125 40.02734375 C46.53699036 41.79894615 46.53699036 41.79894615 46.54284668 43.6063385 C46.54556829 46.10369723 46.53818983 48.60108434 46.52148438 51.09838867 C46.5000993 54.91975584 46.52126995 58.73923865 46.546875 62.56054688 C46.5442314 64.98698332 46.53910575 67.41341859 46.53125 69.83984375 C46.53934692 70.98267319 46.54744385 72.12550262 46.55578613 73.30296326 C46.46251135 81.20245039 46.46251135 81.20245039 44.19116211 85.11914062 C42.29280063 86.74866451 40.61538568 88.09009279 38.41015625 89.25390625 C37.71792969 89.62781494 37.02570313 90.00172363 36.3125 90.38696289 C35.57 90.77489014 34.8275 91.16281738 34.0625 91.5625 C32.45880975 92.42555086 30.8559826 93.29020694 29.25390625 94.15625 C28.40715332 94.61128906 27.56040039 95.06632812 26.68798828 95.53515625 C21.91595912 98.1357171 17.21107622 100.85356004 12.5 103.5625 C10.71902401 104.58511277 8.93779469 105.60728456 7.15625 106.62890625 C6.02413086 107.2796814 6.02413086 107.2796814 4.86914062 107.94360352 C0.5847808 110.36502788 -3.14640042 110.78566748 -8 110 C-12.07738839 108.26240977 -15.75040763 105.97637284 -19.5 103.625 C-21.61839347 102.33838341 -23.73688372 101.05192615 -25.85546875 99.765625 C-26.8923584 99.12689453 -27.92924805 98.48816406 -28.99755859 97.83007812 C-31.72153934 96.16973013 -34.46628727 94.5628492 -37.23828125 92.984375 C-38.01816406 92.53884277 -38.79804688 92.09331055 -39.6015625 91.63427734 C-41.03525711 90.81769201 -42.47132515 90.00525432 -43.91015625 89.19775391 C-47.41685055 87.16910987 -49.89979981 85.47637119 -52 82 C-52.40786743 79.50930786 -52.40786743 79.50930786 -52.45166016 76.68408203 C-52.4740274 75.6226297 -52.49639465 74.56117737 -52.5194397 73.46755981 C-52.52591522 72.3258432 -52.53239075 71.18412659 -52.5390625 70.0078125 C-52.55141937 68.82911591 -52.56377625 67.65041931 -52.57650757 66.43600464 C-52.59607531 63.94290127 -52.60730616 61.44972062 -52.61083984 58.95654297 C-52.62492425 55.14549714 -52.69225987 51.33773003 -52.76171875 47.52734375 C-52.77411729 45.10418124 -52.78333686 42.68099996 -52.7890625 40.2578125 C-52.81578033 39.12014435 -52.84249817 37.9824762 -52.87002563 36.81033325 C-52.80412183 29.12336807 -52.80412183 29.12336807 -50.58735657 26.02651978 C-48.80738714 24.44694829 -47.04520668 23.21176672 -45 22 C-44.05374756 21.3930127 -43.10749512 20.78602539 -42.13256836 20.16064453 C-41.21096924 19.65645996 -40.28937012 19.15227539 -39.33984375 18.6328125 C-38.30512939 18.06062988 -37.27041504 17.48844727 -36.2043457 16.89892578 C-35.12628662 16.31353027 -34.04822754 15.72813477 -32.9375 15.125 C-30.70006035 13.89667175 -28.46307803 12.66751007 -26.2265625 11.4375 C-25.15438477 10.8496875 -24.08220703 10.261875 -22.97753906 9.65625 C-20.44501213 8.24753709 -17.9453234 6.80382197 -15.4609375 5.3125 C-14.82808838 4.93464355 -14.19523926 4.55678711 -13.54321289 4.16748047 C-11.94691316 3.20596265 -10.35786837 2.23242757 -8.76953125 1.2578125 C-5.49972654 -0.22720459 -3.5690049 -0.27944736 0 0 Z " fill="#062B75" transform="translate(191,285)"/>
<path d="M0 0 C14.19 0 28.38 0 43 0 C43.11214844 6.39632813 43.11214844 6.39632813 43.2265625 12.921875 C43.30294861 16.35386247 43.38509124 19.78560639 43.47108459 23.21736145 C43.55985931 26.82239028 43.63883102 30.42698385 43.69287109 34.03271484 C43.74546695 37.51550211 43.82661529 40.99662668 43.92637253 44.47837067 C43.97524882 46.43186951 43.99566289 48.38601524 44.01528931 50.34002686 C44.30320254 59.21531311 46.44633478 65.4127521 51 73 C51.36703033 73.64565918 51.73406067 74.29131836 52.11221313 74.95654297 C52.99901834 76.49382897 53.93554972 78.00212166 54.875 79.5078125 C55.55046875 80.59707031 56.2259375 81.68632812 56.921875 82.80859375 C57.60765625 83.90300781 58.2934375 84.99742187 59 86.125 C61.66933921 90.41500944 64.33724666 94.70589932 67 99 C67.60585938 99.97678711 68.21171875 100.95357422 68.8359375 101.95996094 C69.38507813 102.8574707 69.93421875 103.75498047 70.5 104.6796875 C70.9846875 105.46843262 71.469375 106.25717773 71.96875 107.06982422 C73 109 73 109 73 111 C71.741875 111.20753906 70.48375 111.41507812 69.1875 111.62890625 C58.26661127 113.54968713 48.79940819 116.37446782 38.81542969 121.14941406 C18.45018364 130.6911727 -1.38486809 130.65941329 -23 126 C-24.51400391 125.68095703 -24.51400391 125.68095703 -26.05859375 125.35546875 C-28.04380854 124.92497756 -30.02311722 124.4672632 -32 124 C-31.42264204 120.33801632 -30.44202252 117.6305078 -28.5859375 114.4296875 C-27.82567261 113.10384644 -27.82567261 113.10384644 -27.05004883 111.7512207 C-26.49728271 110.80206787 -25.9445166 109.85291504 -25.375 108.875 C-24.1981619 106.82482504 -23.02242878 104.77401551 -21.84765625 102.72265625 C-21.2252002 101.63871582 -20.60274414 100.55477539 -19.96142578 99.43798828 C-16.86985076 94.01907374 -13.83765826 88.56754407 -10.81109619 83.11212158 C-9.82568012 81.33625257 -8.83848782 79.56138004 -7.85107422 77.78662109 C-6.94446045 76.15394287 -6.94446045 76.15394287 -6.01953125 74.48828125 C-5.48432861 73.52446533 -4.94912598 72.56064941 -4.39770508 71.56762695 C-3.70584106 70.29665161 -3.70584106 70.29665161 -3 69 C-2.64774857 68.41947372 -2.29549713 67.83894745 -1.93257141 67.24082947 C-0.69676594 64.27137395 -0.71853293 61.7938316 -0.68115234 58.57910156 C-0.66128265 57.27805481 -0.64141296 55.97700806 -0.62094116 54.63653564 C-0.60906559 53.22123382 -0.59740268 51.8059302 -0.5859375 50.390625 C-0.56722203 48.93901472 -0.54764833 47.48741527 -0.5272522 46.03582764 C-0.47596478 42.22188713 -0.43632108 38.40791138 -0.39910889 34.59381104 C-0.35199996 30.01398828 -0.2904167 25.43434 -0.23126221 20.85466003 C-0.14309119 13.90317725 -0.0732979 6.9517272 0 0 Z " fill="#FDFEFE" transform="translate(297,304)"/>
<path d="M0 0 C1.23234375 0.26554687 2.4646875 0.53109375 3.734375 0.8046875 C4.53085449 0.97436035 5.32733398 1.1440332 6.14794922 1.31884766 C7.89021333 1.6912325 9.63142872 2.06855643 11.37158203 2.45068359 C16.22271446 3.49647458 20.92373976 4.2030881 25.875 4.625 C29.05480068 5.14541121 30.47813516 5.39222621 32.58984375 7.8515625 C33.94568889 10.5112715 34.96364347 13.20039798 36 16 C37.07485347 18.3055607 38.18094385 20.59673293 39.3125 22.875 C39.60753418 23.46925781 39.90256836 24.06351562 40.20654297 24.67578125 C43.30928095 30.81138323 47.00318373 36.41823934 51 42 C51.67289062 42.99128906 52.34578125 43.98257813 53.0390625 45.00390625 C54.89906319 47.58564466 56.6219001 49.88507011 59 52 C62.62649951 52.08916154 62.62649951 52.08916154 66 51 C70.01519063 52.51516628 71.60368353 53.4055253 74 57 C73.78540349 58.67159388 73.53019676 60.33814334 73.25 62 C73.15151545 66.37966581 73.68334364 67.66017366 76.72265625 70.921875 C80.29928024 73.87894227 84.10994967 76.47612813 88 79 C88.57508301 79.37737305 89.15016602 79.75474609 89.74267578 80.14355469 C92.16636815 81.72463243 94.60697434 83.26471942 97.0859375 84.7578125 C97.71757812 85.16773438 98.34921875 85.57765625 99 86 C99 86.33 99 86.66 99 87 C86.1643608 88.1614351 73.31648027 88.34247121 60.4375 88.5625 C59.2874649 88.58234955 58.13742981 88.6021991 56.95254517 88.62265015 C49.80437127 88.74347287 42.65607027 88.85056443 35.50756836 88.94995117 C32.09286684 88.9986749 28.67828028 89.0526019 25.26367188 89.10742188 C20.04615453 89.18854313 14.82886362 89.24651836 9.61087036 89.28610229 C7.67726312 89.30356255 5.74370405 89.32780599 3.81027222 89.35916138 C1.12717103 89.40085092 -1.55489818 89.41662382 -4.23828125 89.42578125 C-5.40046173 89.4519754 -5.40046173 89.4519754 -6.58612061 89.47869873 C-13.13190079 89.45291588 -18.20048127 87.35853259 -23.20703125 83.140625 C-29.19846989 76.08501356 -31.89715571 69.7508462 -31.58203125 60.35546875 C-30.34787934 53.24045874 -26.51152902 47.2087728 -23 41 C-21.88817595 38.9941249 -20.77757798 36.98756989 -19.66796875 34.98046875 C-16.69456965 29.62363069 -13.68971546 24.28524136 -10.67138672 18.95361328 C-8.71206813 15.49117736 -6.76239293 12.02339622 -4.81420898 8.5546875 C-3.2117768 5.70182528 -1.6059968 2.85085674 0 0 Z " fill="#92B1F3" transform="translate(264,427)"/>
<path d="M0 0 C1.06911621 0.39316406 2.13823242 0.78632813 3.23974609 1.19140625 C4.19155762 1.51238281 5.14336914 1.83335937 6.12402344 2.1640625 C14.03106445 5.08358533 22.00437226 8.34897862 27.23974609 15.19140625 C30.90212874 25.60800197 28.64541847 38.49207691 27.23974609 49.19140625 C23.3771511 51.53304255 19.49979057 53.84706061 15.60644531 56.13720703 C14.28500963 56.91957211 12.96786864 57.70923963 11.65527344 58.50634766 C9.7646432 59.65274798 7.85998509 60.77176497 5.95068359 61.88671875 C5.36918549 62.24702179 4.78768738 62.60732483 4.18856812 62.97854614 C1.14723295 64.71867828 -0.34523305 65.28169452 -3.81494141 64.52685547 C-4.78689453 64.08615723 -5.75884766 63.64545898 -6.76025391 63.19140625 C-7.71206543 62.87042969 -8.66387695 62.54945313 -9.64453125 62.21875 C-17.55157226 59.29922717 -25.52488007 56.03383388 -30.76025391 49.19140625 C-34.42263655 38.77481053 -32.16592628 25.89073559 -30.76025391 15.19140625 C-27.0945012 13.07274864 -23.42831338 10.95484657 -19.76171875 8.83764648 C-18.51420265 8.11715156 -17.26680611 7.39644957 -16.01953125 6.67553711 C-14.22768983 5.63991834 -12.43542107 4.60504268 -10.64306641 3.5703125 C-9.02489014 2.63554077 -9.02489014 2.63554077 -7.37402344 1.68188477 C-2.92300272 -0.85626968 -2.92300272 -0.85626968 0 0 Z " fill="#D0DAFB" transform="translate(453.76025390625,202.80859375)"/>
<path d="M0 0 C1.83219414 0.97211223 3.64789349 1.97572103 5.44921875 3.00390625 C6.46177734 3.57947266 7.47433594 4.15503906 8.51757812 4.74804688 C10.08668945 5.64620117 10.08668945 5.64620117 11.6875 6.5625 C13.77454439 7.75164473 15.86177451 8.94046356 17.94921875 10.12890625 C18.87049561 10.65556885 19.79177246 11.18223145 20.7409668 11.72485352 C22.14262622 12.51604201 23.56038106 13.28019053 25 14 C27.69065586 43.54607986 27.69065586 43.54607986 23.49267578 50.49511719 C19.63170123 54.05954541 15.08004872 55.7489749 10.11572266 57.27783203 C7.17910934 58.28019785 4.84023182 59.91304003 2.3125 61.6875 C-0.42360188 63.54324735 -1.43038449 64.06349233 -4.75756836 63.69262695 C-15.05013247 61.493997 -26.34514396 56.31043452 -33 48 C-35.24822202 42.54995617 -35.24872166 36.74753202 -35.125 30.9375 C-35.11966248 30.20031738 -35.11432495 29.46313477 -35.10882568 28.70361328 C-34.86355285 17.17866818 -34.86355285 17.17866818 -31.18945312 12.88330078 C-28.86798762 11.30509354 -26.55366918 10.16051331 -24 9 C-22.36874006 7.99759453 -20.74885507 6.97645225 -19.140625 5.9375 C-17.5122603 4.95527041 -15.88204448 3.97610316 -14.25 3 C-13.42628906 2.48566406 -12.60257813 1.97132813 -11.75390625 1.44140625 C-10.95339844 0.96574219 -10.15289062 0.49007813 -9.328125 0 C-8.6155957 -0.433125 -7.90306641 -0.86625 -7.16894531 -1.3125 C-4.11181698 -2.28153122 -2.81775072 -1.43925578 0 0 Z " fill="#FAC950" transform="translate(192,309)"/>
<path d="M0 0 C1.24221313 0.71760498 1.24221313 0.71760498 2.50952148 1.44970703 C3.42282227 1.97435547 4.33612305 2.49900391 5.27709961 3.03955078 C6.21875977 3.58998047 7.16041992 4.14041016 8.13061523 4.70751953 C9.07614258 5.25021484 10.02166992 5.79291016 10.99584961 6.35205078 C16.0773778 9.28964093 16.0773778 9.28964093 18.56811523 10.83251953 C19.31923584 11.22753662 20.07035645 11.62255371 20.84423828 12.02954102 C23.07576504 14.36346328 23.02269865 16.20890068 23.02130127 19.35624695 C22.99033356 20.44858391 22.99033356 20.44858391 22.95874023 21.56298828 C22.95308044 22.31340897 22.94742065 23.06382965 22.94158936 23.83699036 C22.91921191 26.23198457 22.86901694 28.62547822 22.81811523 31.02001953 C22.79805182 32.64434687 22.77980077 34.26869768 22.76342773 35.89306641 C22.71934317 39.8734616 22.6503095 43.85273624 22.56811523 47.83251953 C18.94221712 49.95677152 15.31260249 52.07448147 11.67944336 54.1862793 C10.44468352 54.90520623 9.21094664 55.62589316 7.97827148 56.34838867 C6.20360745 57.38814143 4.42532937 58.42145501 2.64624023 59.45361328 C1.57792969 60.07679443 0.50961914 60.69997559 -0.59106445 61.34204102 C-5.09320933 63.70415811 -5.09320933 63.70415811 -7.43188477 63.83251953 C-10.04150391 62.69262695 -10.04150391 62.69262695 -12.96704102 60.93798828 C-14.02342773 60.31214844 -15.07981445 59.68630859 -16.16821289 59.04150391 C-17.26584961 58.37441406 -18.36348633 57.70732422 -19.49438477 57.02001953 C-21.14664063 56.03678711 -21.14664063 56.03678711 -22.83227539 55.03369141 C-26.74642598 52.69763452 -30.63884121 50.36121524 -34.43188477 47.83251953 C-34.81124856 45.27966945 -34.99551144 42.97464664 -35.04125977 40.41064453 C-35.05835999 39.67303894 -35.07546021 38.93543335 -35.09307861 38.17547607 C-35.12143664 36.61206982 -35.14103404 35.04848402 -35.15258789 33.48486328 C-35.18163838 31.1027232 -35.27456768 28.72844841 -35.36938477 26.34814453 C-35.60557378 15.3406735 -35.60557378 15.3406735 -32.70043945 11.60766602 C-30.34839351 10.01662141 -28.04785499 8.92974874 -25.43188477 7.83251953 C-23.87368156 6.91530004 -22.32648316 5.97911054 -20.79125977 5.02392578 C-19.25704459 4.14370233 -17.72058274 3.26738304 -16.18188477 2.39501953 C-15.40586914 1.93675781 -14.62985352 1.47849609 -13.83032227 1.00634766 C-12.69723633 0.36536133 -12.69723633 0.36536133 -11.54125977 -0.28857422 C-10.870625 -0.67456787 -10.19999023 -1.06056152 -9.5090332 -1.45825195 C-5.92455114 -2.68214951 -3.31430065 -1.59110388 0 0 Z " fill="#B0D852" transform="translate(214.431884765625,169.16748046875)"/>
<path d="M0 0 C1.93735837 0.97245638 3.83688591 2.02219426 5.703125 3.125 C6.7653125 3.74890625 7.8275 4.3728125 8.921875 5.015625 C10.56929688 5.99789063 10.56929688 5.99789063 12.25 7 C13.36375 7.65484375 14.4775 8.3096875 15.625 8.984375 C23.8234747 13.8234747 23.8234747 13.8234747 25 15 C25.08847743 17.52094076 25.11527301 20.01430893 25.09765625 22.53515625 C25.0962413 23.28840683 25.09482635 24.04165741 25.09336853 24.81773376 C25.08775376 27.2326956 25.07519883 29.64756601 25.0625 32.0625 C25.0574869 33.69596221 25.05292366 35.32942586 25.04882812 36.96289062 C25.03777954 40.97529585 25.02050506 44.98763241 25 49 C21.39685435 51.1502213 17.78559946 53.28589741 14.16625977 55.40869141 C12.93706157 56.13232053 11.71013584 56.85982464 10.4855957 57.59130859 C8.72154403 58.64415308 6.9496977 59.68263474 5.17578125 60.71875 C3.58117065 61.66137695 3.58117065 61.66137695 1.9543457 62.62304688 C-1.14602849 64.06806055 -2.64929393 64.53525127 -6 64 C-8.73901367 62.73071289 -8.73901367 62.73071289 -11.66796875 60.97265625 C-12.72564453 60.34552734 -13.78332031 59.71839844 -14.87304688 59.07226562 C-15.96681641 58.40904297 -17.06058594 57.74582031 -18.1875 57.0625 C-20.36840942 55.76158435 -22.54939508 54.46079651 -24.73046875 53.16015625 C-25.69364014 52.57886963 -26.65681152 51.99758301 -27.64916992 51.39868164 C-29.07239279 50.55190173 -30.5187574 49.7406213 -32 49 C-32.22334904 44.26805461 -32.38615853 39.53920256 -32.49438477 34.80322266 C-32.53950884 33.19460603 -32.60083129 31.58635586 -32.67895508 29.97900391 C-33.30794828 16.70025843 -33.30794828 16.70025843 -30.28173828 12.76635742 C-27.92510214 11.17427881 -25.62258546 10.09268152 -23 9 C-21.44153002 8.08323388 -19.89431492 7.14704648 -18.359375 6.19140625 C-16.82515982 5.31118279 -15.28869797 4.43486351 -13.75 3.5625 C-12.97398437 3.10423828 -12.19796875 2.64597656 -11.3984375 2.17382812 C-10.26535156 1.5328418 -10.26535156 1.5328418 -9.109375 0.87890625 C-8.43874023 0.4929126 -7.76810547 0.10691895 -7.07714844 -0.29077148 C-4.28406867 -1.24444999 -2.80854243 -0.87806515 0 0 Z " fill="#FB7C9F" transform="translate(435,344)"/>
<path d="M0 0 C8.04589337 3.49449076 16.14779978 7.02365591 19.62890625 15.5546875 C21.99937094 24.81619179 21.71661059 35.08162388 18.1640625 43.96484375 C13.12734187 50.14898632 6.11665753 53.26357284 -1.2487793 55.9387207 C-3.93027123 56.88858158 -3.93027123 56.88858158 -6.35473633 58.71557617 C-8.8359375 59.96484375 -8.8359375 59.96484375 -11.31933594 59.34008789 C-12.14981445 58.88625732 -12.98029297 58.43242676 -13.8359375 57.96484375 C-14.68446289 57.50134521 -15.53298828 57.03784668 -16.40722656 56.56030273 C-17.29635742 56.03251221 -18.18548828 55.50472168 -19.1015625 54.9609375 C-20.07351563 54.38537109 -21.04546875 53.80980469 -22.046875 53.21679688 C-23.04976563 52.61802734 -24.05265625 52.01925781 -25.0859375 51.40234375 C-26.61347656 50.49838867 -26.61347656 50.49838867 -28.171875 49.57617188 C-35.69092518 45.10985607 -35.69092518 45.10985607 -36.8359375 43.96484375 C-40.02984765 17.54410922 -40.02984765 17.54410922 -35.52050781 9.66699219 C-32.15958958 6.42743501 -28.16463811 4.95818491 -23.75537109 3.62109375 C-20.94279816 2.65948143 -18.69785023 1.03284866 -16.2734375 -0.66015625 C-10.78916046 -4.35544453 -5.81634336 -2.25485536 0 0 Z " fill="#FC8E02" transform="translate(349.8359375,119.03515625)"/>
<path d="M0 0 C0 6.6 0 13.2 0 20 C-24.09 20.33 -48.18 20.66 -73 21 C-73 14.4 -73 7.8 -73 1 C-48.65979112 0.34247386 -24.34987628 -0.16137621 0 0 Z " fill="#90AFF1" transform="translate(354,263)"/>
<path d="M0 0 C0.95261719 0.49371094 1.90523437 0.98742187 2.88671875 1.49609375 C4.15348171 2.14355037 5.42041801 2.79066794 6.6875 3.4375 C7.31333984 3.76298828 7.93917969 4.08847656 8.58398438 4.42382812 C12.03713639 6.17752313 15.15193519 7.47760497 19 8 C19.08202061 13.29032916 18.82601614 18.30487895 18.125 23.5625 C17.99182373 24.57763672 17.99182373 24.57763672 17.85595703 25.61328125 C17.57546386 27.74286036 17.28786964 29.87140684 17 32 C16.80681797 33.45696852 16.61410553 34.91399939 16.421875 36.37109375 C15.95333361 39.91479831 15.4784256 43.45761471 15 47 C14.26612061 46.58862793 13.53224121 46.17725586 12.77612305 45.75341797 C11.31493042 44.94348389 11.31493042 44.94348389 9.82421875 44.1171875 C8.86346436 43.58206543 7.90270996 43.04694336 6.9128418 42.49560547 C3.03209087 40.50302478 -0.82141834 39.2330241 -5 38 C-4.40829071 29.33476811 -3.30988781 20.82378676 -1.9375 12.25 C-1.75123047 11.0640625 -1.56496094 9.878125 -1.37304688 8.65625 C-0.9191931 5.77020551 -0.4614584 2.88483655 0 0 Z " fill="#6A66F6" transform="translate(191,247)"/>
<path d="M0 0 C1.41152344 0.74056641 1.41152344 0.74056641 2.8515625 1.49609375 C4.1091536 2.14365932 5.36697864 2.79077071 6.625 3.4375 C7.24246094 3.76298828 7.85992187 4.08847656 8.49609375 4.42382812 C12.33285611 6.38259628 15.71743908 7.53221258 20 8 C20.11332369 13.00607381 19.71825042 17.75502786 18.90625 22.68359375 C18.79526978 23.38396255 18.68428955 24.08433136 18.56994629 24.80592346 C18.21835423 27.01729232 17.85931131 29.2273737 17.5 31.4375 C17.25861865 32.94718642 17.01772854 34.45695146 16.77734375 35.96679688 C16.19056899 39.64545695 15.59711121 43.32300184 15 47 C13.96359375 46.43410156 12.9271875 45.86820312 11.859375 45.28515625 C10.48971023 44.54403627 9.11991151 43.8031638 7.75 43.0625 C7.06808594 42.68931641 6.38617188 42.31613281 5.68359375 41.93164062 C5.01972656 41.57392578 4.35585938 41.21621094 3.671875 40.84765625 C2.76066895 40.3527771 2.76066895 40.3527771 1.83105469 39.84790039 C-0.09064982 38.95802309 -1.93451578 38.44858489 -4 38 C-3.4685066 25.20750379 -1.86088668 12.66033155 0 0 Z " fill="#6965F6" transform="translate(434,282)"/>
<path d="M0 0 C3.75957831 2.80125443 7.50817445 5.61342689 11.21484375 8.484375 C11.77727783 8.91959473 12.33971191 9.35481445 12.91918945 9.80322266 C14.03233733 10.66576489 15.14421538 11.5299491 16.25463867 12.39599609 C19.74444836 15.0988513 23.30508888 17.59220506 27 20 C24.79402156 24.59578841 23.1798459 27.06843394 18.8125 29.75 C16.0006238 31.65936306 15.1355667 32.48212087 14.26171875 35.8203125 C14.02612502 38.57007814 13.92149119 41.24237788 14 44 C13.67 44 13.34 44 13 44 C12.98453125 42.81148438 12.9690625 41.62296875 12.953125 40.3984375 C12.36336399 35.77593141 10.46119354 33.97832913 6.88085938 31.18041992 C6.17767578 30.66713135 5.47449219 30.15384277 4.75 29.625 C4.03650391 29.07626221 3.32300781 28.52752441 2.58789062 27.9621582 C1.1226142 26.8386168 -0.35011075 25.72472361 -1.83007812 24.62060547 C-3.8891376 23.08279755 -5.92472089 21.51933991 -7.953125 19.94140625 C-10.9542238 17.60802374 -13.97131244 15.29744622 -17 13 C-13.3219668 10.12413645 -9.39949779 7.88693484 -5.33984375 5.59765625 C-2.94439855 3.96203507 -1.58528613 2.40651633 0 0 Z " fill="#6966F5" transform="translate(237,366)"/>
<path d="M0 0 C1.97775351 3.70494789 2.63239902 7.02761857 3.3125 11.1875 C4.62177989 18.76916453 6.64200253 26.01258805 8.9140625 33.35546875 C9.77428916 36.24248843 10.48225663 39.03735736 11 42 C0.83525606 40.87791788 -9.03151427 39.33636384 -19 37 C-18.40949312 33.0744513 -17.21264374 30.2271302 -15.234375 26.796875 C-14.67363281 25.81589844 -14.11289062 24.83492188 -13.53515625 23.82421875 C-12.94605469 22.80972656 -12.35695313 21.79523438 -11.75 20.75 C-10.59870562 18.74493675 -9.44766059 16.7397303 -8.296875 14.734375 C-7.74193359 13.77208984 -7.18699219 12.80980469 -6.61523438 11.81835938 C-4.37011222 7.90093341 -2.17753147 3.95531087 0 0 Z " fill="#D0DAFB" transform="translate(284,391)"/>
<path d="M0 0 C2.9375 2.4375 2.9375 2.4375 5 5 C5.33 5.33 5.66 5.66 6 6 C6.43006993 13.5979021 6.43006993 13.5979021 4 17 C1.40642313 19.79308279 -0.07757124 20.00985032 -3.9375 20.5 C-7.49002984 20.38732648 -7.99605669 20.00327211 -10.9375 17.5625 C-11.618125 16.716875 -12.29875 15.87125 -13 15 C-13.33 14.67 -13.66 14.34 -14 14 C-14.58968059 6.92383292 -14.58968059 6.92383292 -12.125 3.0625 C-8.53105139 -0.42574424 -4.86901199 -0.86746765 0 0 Z " fill="#6A67F7" transform="translate(372,453)"/>
<path d="M0 0 C2.9375 2.4375 2.9375 2.4375 5 5 C5.33 5.33 5.66 5.66 6 6 C6.47673203 9.40522876 6.57398765 11.94017281 4.90625 15.01953125 C2.25281759 18.48451879 0.83395644 19.85369185 -3.5625 20.625 C-7.1167299 19.97877638 -9.15386218 19.19559204 -12 17 C-14.45665197 13.31502204 -14.70086491 10.28028214 -14 6 C-10.39850188 0.35765295 -6.65216643 -1.18515609 0 0 Z " fill="#6965F6" transform="translate(275,459)"/>
<path d="M0 0 C2.96460633 2.06233484 4.67606665 3.55797411 5.484375 7.15625 C5.75206639 11.61777318 5.45340247 13.44196619 2.5625 17 C1.716875 17.66 0.87125 18.32 0 19 C-0.33 19.33 -0.66 19.66 -1 20 C-5.16400962 20.40038554 -7.32250696 20.44184328 -10.875 18.125 C-13.71941408 15.28058592 -14.20354172 13.6112568 -14.375 9.6875 C-14.34446159 5.89462996 -14.12929522 5.16773434 -11.6875 2 C-7.50597498 -1.11183258 -4.95975061 -1.38873017 0 0 Z " fill="#6966F7" transform="translate(333,479)"/>
<path d="M0 0 C0 2.97 0 5.94 0 9 C-3.875 4.25 -3.875 4.25 -5 2 C-1.125 0 -1.125 0 0 0 Z " fill="#6866F1" transform="translate(382,384)"/>
</svg>
