<?xml version="1.0" encoding="UTF-8"?>
<svg version="1.1" xmlns="http://www.w3.org/2000/svg" width="640" height="640">
<path d="M0 0 C211.2 0 422.4 0 640 0 C640 211.2 640 422.4 640 640 C428.8 640 217.6 640 0 640 C0 428.8 0 217.6 0 0 Z " fill="#FEFEFE" transform="translate(0,0)"/>
<path d="M0 0 C2.70629883 1.12646484 2.70629883 1.12646484 5.45703125 2.7109375 C6.99085449 3.58202148 6.99085449 3.58202148 8.55566406 4.47070312 C9.63041992 5.09912109 10.70517578 5.72753906 11.8125 6.375 C12.91948242 7.01115234 14.02646484 7.64730469 15.16699219 8.30273438 C17.40114078 9.58919976 19.6321441 10.88114385 21.85986328 12.17871094 C24.64224379 13.79250029 27.43839513 15.37615932 30.24609375 16.9453125 C31.74781928 17.79612803 33.24915382 18.64763424 34.75 19.5 C35.42135986 19.8717334 36.09271973 20.2434668 36.78442383 20.62646484 C37.71871216 21.167146 37.71871216 21.167146 38.671875 21.71875 C39.1987793 22.01716797 39.72568359 22.31558594 40.26855469 22.62304688 C43.74288991 25.38605458 46.57049482 27.78737926 47.43392944 32.2354126 C47.5777318 34.90801604 47.56240381 37.53549649 47.48828125 40.2109375 C47.47766914 41.66314194 47.47766914 41.66314194 47.46684265 43.14468384 C47.43896129 46.2222579 47.3762338 49.29798036 47.3125 52.375 C47.28740907 54.46742155 47.2645973 56.55987176 47.24414062 58.65234375 C47.18915493 63.76893736 47.10292494 68.88415528 47 74 C47.69222656 74.24782227 48.38445312 74.49564453 49.09765625 74.75097656 C52.43345596 76.18653774 55.39551817 78.02481418 58.4375 79.984375 C59.67393599 80.76258243 60.91093231 81.53990019 62.1484375 82.31640625 C64.08288547 83.53492123 66.0131983 84.75851127 67.93457031 85.99755859 C69.80043791 87.19758806 71.67962846 88.3737622 73.5625 89.546875 C74.13347412 89.92277771 74.70444824 90.29868042 75.29272461 90.68597412 C77.94693378 92.31562239 79.39367687 93.13547662 82.49560547 92.44238281 C83.32205566 91.96639648 84.14850586 91.49041016 85 91 C86.01980957 90.45085937 87.03961914 89.90171875 88.09033203 89.3359375 C89.21810059 88.68882812 90.34586914 88.04171875 91.5078125 87.375 C92.41876175 86.85365479 92.41876175 86.85365479 93.34811401 86.32177734 C94.62470957 85.59038229 95.90042241 84.85744459 97.17529297 84.12304688 C99.12406435 83.00053894 101.07544247 81.8826799 103.02734375 80.765625 C109.60213368 77.02770217 109.60213368 77.02770217 116 73 C121.02182679 72.41916115 123.88039988 73.66199174 128.18359375 76.18359375 C128.75671295 76.51471161 129.32983215 76.84582947 129.9203186 77.1869812 C131.76695769 78.25806373 133.60217712 79.34716089 135.4375 80.4375 C136.70115634 81.17637609 137.96540003 81.91424857 139.23022461 82.65112305 C141.70867774 84.09839363 144.18230455 85.55336901 146.65136719 87.01660156 C149.45173712 88.67526337 152.25859079 90.32164407 155.0703125 91.9609375 C167.4034093 99.21022789 167.4034093 99.21022789 169 104 C169.116466 105.60372803 169.17907679 107.21165811 169.20874023 108.81933594 C169.22803085 109.7975531 169.24732147 110.77577026 169.26719666 111.78363037 C169.32505441 116.25708204 169.37421251 120.73037536 169.4050293 125.20410156 C169.42661222 127.56102141 169.46071807 129.91786106 169.50756836 132.27441406 C169.57460193 135.67809737 169.60203484 139.08012449 169.62109375 142.484375 C169.64892441 143.5325238 169.67675507 144.58067261 169.70542908 145.6605835 C169.69149975 150.63499506 169.50547993 154.07141443 166.2902832 158.01245117 C163.68216301 160.58320809 160.96417845 162.5693762 157.734375 164.31640625 C156.76113281 164.85330078 155.78789062 165.39019531 154.78515625 165.94335938 C153.78355469 166.47767578 152.78195312 167.01199219 151.75 167.5625 C149.76492675 168.64585697 147.7805459 169.73048364 145.796875 170.81640625 C144.83330078 171.3386377 143.86972656 171.86086914 142.87695312 172.39892578 C139.17181799 174.46089763 135.56606755 176.66846266 131.96972656 178.91381836 C130 180 130 180 128 180 C128 193.53 128 207.06 128 221 C129.98 221.66 131.96 222.32 134 223 C135.90233218 223.98813368 137.77738017 225.03018389 139.625 226.1171875 C140.66140625 226.72433594 141.6978125 227.33148438 142.765625 227.95703125 C143.83296875 228.58996094 144.9003125 229.22289062 146 229.875 C147.06734375 230.50019531 148.1346875 231.12539063 149.234375 231.76953125 C163.40360675 240.10541013 163.40360675 240.10541013 166 244 C166.26069641 246.30123901 166.26069641 246.30123901 166.2746582 249.03466797 C166.28419022 250.05938202 166.29372223 251.08409607 166.30354309 252.13986206 C166.30217598 253.79926315 166.30217598 253.79926315 166.30078125 255.4921875 C166.30506638 256.63027863 166.3093515 257.76836975 166.31376648 258.94094849 C166.31951334 261.35011123 166.32000744 263.75929133 166.31567383 266.16845703 C166.31251842 269.85349199 166.33595385 273.53772086 166.36132812 277.22265625 C166.36360153 279.56249899 166.36430442 281.90234388 166.36328125 284.2421875 C166.372491 285.34440643 166.38170074 286.44662537 166.39118958 287.58224487 C166.38184639 289.12877243 166.38184639 289.12877243 166.37231445 290.70654297 C166.37294388 291.61016571 166.3735733 292.51378845 166.3742218 293.4447937 C165.8240987 297.20106339 164.19946882 299.93284668 161.37109375 302.44921875 C154.66621003 306.74305337 147.71195699 310.57277115 140.7265625 314.38671875 C137.62428184 316.0856474 134.56223027 317.83457301 131.5234375 319.64453125 C130.81388916 320.06178467 130.10434082 320.47903809 129.37329102 320.90893555 C128.03850574 321.69658695 126.71032089 322.49557764 125.39038086 323.30786133 C121.00567544 325.87001899 118.02626453 326.42387377 113 326 C109.74609375 324.59472656 109.74609375 324.59472656 106.4375 322.640625 C105.84251709 322.29497498 105.24753418 321.94932495 104.63452148 321.59320068 C102.74770619 320.49280595 100.87398724 319.37207282 99 318.25 C97.74300788 317.51162247 96.48520085 316.77463037 95.2265625 316.0390625 C92.89704293 314.67543943 90.57395633 313.30269244 88.25390625 311.92285156 C87.18011719 311.28831055 86.10632813 310.65376953 85 310 C84.09677002 309.42227844 84.09677002 309.42227844 83.17529297 308.83288574 C79.75209279 306.61925101 79.75209279 306.61925101 75.81933594 306.12084961 C75.21895508 306.41096924 74.61857422 306.70108887 74 307 C73.33516602 307.3101001 72.67033203 307.6202002 71.98535156 307.93969727 C70.94846191 308.49741821 70.94846191 308.49741821 69.890625 309.06640625 C69.13652344 309.46923828 68.38242187 309.87207031 67.60546875 310.28710938 C66.82816406 310.70798828 66.05085937 311.12886719 65.25 311.5625 C64.45722656 311.98724609 63.66445313 312.41199219 62.84765625 312.84960938 C60.89628933 313.89582417 58.94720186 314.94605953 57 316 C57.68033001 319.6221819 59.20631911 322.38353377 61.03515625 325.56640625 C61.67179199 326.67838379 62.30842773 327.79036133 62.96435547 328.93603516 C63.66354683 330.14496676 64.36293343 331.35378547 65.0625 332.5625 C65.78294647 333.81545929 66.50315779 335.06855382 67.22314453 336.32177734 C72.20020728 344.96671357 77.272769 353.55352133 82.375 362.125 C86.91241069 369.74813558 91.42384204 377.37954193 95.75 385.125 C96.1320459 385.80449707 96.5140918 386.48399414 96.90771484 387.18408203 C97.97049986 389.10769881 98.99236396 391.04698797 100 393 C100.55965454 394.04305298 100.55965454 394.04305298 101.13061523 395.10717773 C104.08733737 401.04621849 104.66789722 406.22460091 104.5625 412.8125 C104.55154297 413.78227783 104.54058594 414.75205566 104.52929688 415.7512207 C104.29930074 423.37367596 103.04753268 429.43509944 99 436 C98.43023437 436.95003906 97.86046875 437.90007812 97.2734375 438.87890625 C90.26078318 449.48446371 80.1234896 456.63041797 67.71495247 459.53485584 C64.84664859 460.02627321 62.18121177 460.12879453 59.271698 460.13371277 C58.12798233 460.13797775 56.98426666 460.14224274 55.80589294 460.14663696 C54.56009964 460.14618378 53.31430634 460.14573059 52.03076172 460.14526367 C50.71146164 460.14862228 49.39216156 460.1519809 48.03288269 460.15544128 C44.41891443 460.16426323 40.80496986 460.16661873 37.19099188 460.16725707 C34.92899296 460.16796897 32.66700002 460.17010601 30.40500259 460.17275429 C22.50144317 460.18200402 14.59790059 460.18608992 6.69433594 460.18530273 C-0.65200581 460.18470308 -7.99827386 460.19523368 -15.34459698 460.2110464 C-21.66668926 460.2241654 -27.9887576 460.22948476 -34.31086338 460.22884732 C-38.07992003 460.22859348 -41.84891126 460.23138129 -45.61795425 460.24202538 C-49.16877179 460.25177919 -52.71946237 460.2517362 -56.27028465 460.24450874 C-58.17776995 460.24298128 -60.08525544 460.25125985 -61.99272156 460.25994873 C-76.90149198 460.20606901 -90.07930434 457.46248241 -101.2578125 446.91015625 C-110.36340362 436.92667182 -114.17440457 426.06045477 -114.3125 412.8125 C-114.35600586 411.4502832 -114.35600586 411.4502832 -114.40039062 410.06054688 C-114.46206058 403.43339893 -113.1334078 398.80090778 -110 393 C-109.62029053 392.2670874 -109.24058105 391.5341748 -108.84936523 390.77905273 C-107.61767188 388.43881007 -106.34709102 386.12410699 -105.0625 383.8125 C-104.58651367 382.95156738 -104.11052734 382.09063477 -103.62011719 381.20361328 C-99.58304359 373.94970107 -95.38224341 366.79806134 -91.13696289 359.66455078 C-86.69945088 352.20554478 -82.33552902 344.70603523 -78 337.1875 C-77.37706055 336.10839355 -76.75412109 335.02928711 -76.11230469 333.91748047 C-72.6885246 327.97370164 -69.30717244 322.00949047 -66 316 C-66.96099609 315.68095703 -66.96099609 315.68095703 -67.94140625 315.35546875 C-70.58754447 314.1827868 -72.79252503 312.9234278 -75.21484375 311.36328125 C-75.98376953 310.86892578 -76.75269531 310.37457031 -77.54492188 309.86523438 C-79.1426082 308.82836855 -80.73379464 307.78141916 -82.31835938 306.72460938 C-83.47368164 305.98887695 -83.47368164 305.98887695 -84.65234375 305.23828125 C-85.34320068 304.78493408 -86.03405762 304.33158691 -86.74584961 303.86450195 C-89.88779677 302.65951604 -91.77360084 303.13133439 -95 304 C-97.82575227 305.30921028 -97.82575227 305.30921028 -100.58984375 307.01953125 C-101.62173828 307.62990234 -102.65363281 308.24027344 -103.71679688 308.86914062 C-104.77962891 309.51044922 -105.84246094 310.15175781 -106.9375 310.8125 C-110.05555674 312.66663356 -113.17377463 314.52049358 -116.29248047 316.37353516 C-117.90734496 317.34361877 -119.51397509 318.32796506 -121.10205078 319.34130859 C-124.94297805 321.73621488 -127.49573817 322.78261549 -132 322 C-135.14273313 320.67637836 -138.05267198 319.02163068 -141 317.3125 C-141.85924072 316.82499268 -142.71848145 316.33748535 -143.60375977 315.83520508 C-145.44412481 314.78624172 -147.28069015 313.73058912 -149.11376953 312.66894531 C-152.07501663 310.95662209 -155.05048711 309.27095069 -158.02734375 307.5859375 C-159.99835496 306.45479464 -161.96843064 305.32201982 -163.9375 304.1875 C-165.3306543 303.3982312 -165.3306543 303.3982312 -166.75195312 302.59301758 C-167.62658203 302.08150146 -168.50121094 301.56998535 -169.40234375 301.04296875 C-170.17054443 300.59977295 -170.93874512 300.15657715 -171.73022461 299.69995117 C-175.62013905 296.7865948 -178.54744068 294.44718114 -179.4495697 289.56898499 C-179.62866304 286.58457442 -179.6405608 283.64177976 -179.59375 280.65234375 C-179.59379028 279.56288956 -179.59383057 278.47343536 -179.59387207 277.35096741 C-179.5885232 275.053825 -179.57096786 272.75668267 -179.54199219 270.4597168 C-179.50009994 266.94588266 -179.50092945 263.43396394 -179.5078125 259.91992188 C-179.49732081 257.68488253 -179.48438283 255.44985305 -179.46875 253.21484375 C-179.46854858 252.16578354 -179.46834717 251.11672333 -179.46813965 250.03587341 C-179.31898487 240.83741306 -179.31898487 240.83741306 -176 237 C-169.17019481 231.1202877 -160.25609873 227.04855472 -152.4375 222.625 C-148.003125 220.10875 -143.56875 217.5925 -139 215 C-139 201.8 -139 188.6 -139 175 C-147.14924639 170.33024602 -147.14924639 170.33024602 -155.30249023 165.66748047 C-173.00872424 155.48691364 -173.00872424 155.48691364 -176 151 C-176.27415466 148.66079712 -176.27415466 148.66079712 -176.30639648 145.87353516 C-176.33037758 144.30643295 -176.33037758 144.30643295 -176.35484314 142.70767212 C-176.36020584 141.57953094 -176.36556854 140.45138977 -176.37109375 139.2890625 C-176.38012222 138.12877533 -176.3891507 136.96848816 -176.39845276 135.77304077 C-176.41297007 133.31681912 -176.42184565 130.86055866 -176.42553711 128.40429688 C-176.43743203 124.64647243 -176.48660564 120.89029019 -176.53710938 117.1328125 C-176.54657345 114.74740386 -176.55380856 112.36198512 -176.55859375 109.9765625 C-176.57812607 108.85246979 -176.59765839 107.72837708 -176.61778259 106.57022095 C-176.57274464 98.7816778 -176.57274464 98.7816778 -173.75463867 94.93554688 C-168.87265734 91.50522267 -168.87265734 91.50522267 -166.3671875 90.0546875 C-165.04750977 89.28257935 -165.04750977 89.28257935 -163.70117188 88.49487305 C-162.3022168 87.69303589 -162.3022168 87.69303589 -160.875 86.875 C-159.90884766 86.31530518 -158.94269531 85.75561035 -157.94726562 85.17895508 C-155.95031371 84.0222837 -153.95192971 82.86808135 -151.95214844 81.71630859 C-149.12940842 80.07523497 -146.33146169 78.39910069 -143.5390625 76.70703125 C-142.68844238 76.19736816 -141.83782227 75.68770508 -140.96142578 75.16259766 C-139.35780375 74.20156966 -137.75949489 73.23160184 -136.16748047 72.25146484 C-131.991814 69.77833527 -128.97121507 68.05774355 -124 69 C-121.08927871 70.23332437 -118.40774289 71.77045864 -115.6875 73.375 C-114.90858398 73.8181958 -114.12966797 74.2613916 -113.32714844 74.71801758 C-109.25621453 77.04736891 -105.24097837 79.45593558 -101.25390625 81.92578125 C-100.49698486 82.38871582 -99.74006348 82.85165039 -98.96020508 83.32861328 C-97.51662966 84.21615783 -96.08227573 85.11892862 -94.65893555 86.03857422 C-94.00320557 86.44221191 -93.34747559 86.84584961 -92.671875 87.26171875 C-91.82254395 87.80252075 -91.82254395 87.80252075 -90.95605469 88.35424805 C-86.93576437 89.68146571 -83.58643812 88.27930029 -79.90380859 86.52539062 C-78.2923999 85.60016602 -78.2923999 85.60016602 -76.6484375 84.65625 C-76.06712067 84.32709595 -75.48580383 83.99794189 -74.88687134 83.65881348 C-73.04460659 82.61433216 -71.20946002 81.55811963 -69.375 80.5 C-67.53260357 79.44341648 -65.68878613 78.38956075 -63.84170532 77.34118652 C-62.1702042 76.39162119 -60.50366259 75.43334141 -58.83740234 74.47460938 C-56.4446484 73.23108556 -54.58821307 72.5791357 -52 72 C-52.02618408 70.75911621 -52.05236816 69.51823242 -52.0793457 68.23974609 C-52.17006582 63.62176652 -52.22732861 59.00386521 -52.2746582 54.38525391 C-52.29975272 52.38902527 -52.33383626 50.39288807 -52.37719727 48.39697266 C-52.43807246 45.52223112 -52.46626024 42.64870752 -52.48828125 39.7734375 C-52.51408768 38.88570648 -52.5398941 37.99797546 -52.56648254 37.08334351 C-52.5683481 32.93180039 -52.43448342 29.95468122 -49.82250977 26.61108398 C-47.09366932 24.08665284 -44.59123608 22.25626066 -41.3515625 20.44921875 C-40.27036133 19.83699463 -39.18916016 19.22477051 -38.07519531 18.59399414 C-36.93663086 17.96485107 -35.79806641 17.33570801 -34.625 16.6875 C-32.86029786 15.69822788 -31.09764483 14.70537793 -29.33520508 13.71208191 C-27.60969988 12.73994998 -25.88249758 11.77083233 -24.15527344 10.80175781 C-21.45439201 9.25947176 -18.79986149 7.67352772 -16.1640625 6.0234375 C-15.48649902 5.59973877 -14.80893555 5.17604004 -14.11083984 4.73950195 C-12.38619186 3.64864287 -10.6693065 2.54553724 -8.953125 1.44140625 C-5.54955564 -0.21985975 -3.74976508 -0.30829919 0 0 Z " fill="#082C76" transform="translate(325,90)"/>
<path d="M0 0 C2.18197468 1.09481903 4.32514398 2.26842517 6.4375 3.4921875 C7.04005615 3.83879425 7.6426123 4.185401 8.26342773 4.54251099 C10.17948585 5.64680047 12.08972034 6.76075056 14 7.875 C15.28348762 8.61652023 16.56733853 9.35741202 17.8515625 10.09765625 C27.03759181 15.4016929 27.03759181 15.4016929 30.73681641 17.70141602 C33.90354735 19.51844319 35.36050373 19.58113169 39 19 C42.68371973 17.39134522 46.13850591 15.43218684 49.625 13.4375 C50.6039624 12.89262939 51.5829248 12.34775879 52.59155273 11.78637695 C56.74818431 9.46242793 60.87631942 7.10314619 64.93359375 4.609375 C66.48240234 3.65804687 66.48240234 3.65804687 68.0625 2.6875 C68.91972656 2.13449219 69.77695312 1.58148438 70.66015625 1.01171875 C73.68793325 -0.29745361 74.84026248 0.08731735 78 1 C80.24031435 2.1905984 82.36196622 3.40628287 84.5078125 4.74609375 C85.115112 5.11726822 85.7224115 5.48844269 86.34811401 5.87086487 C88.27810383 7.05280636 90.20151149 8.2450142 92.125 9.4375 C93.42536964 10.235697 94.72614704 11.0332301 96.02734375 11.83007812 C105.04288287 17.36192191 105.04288287 17.36192191 109 20 C109.37854004 21.83930969 109.37854004 21.83930969 109.38476562 24.0949707 C109.39487671 24.93957352 109.40498779 25.78417633 109.41540527 26.65437317 C109.41238403 27.56893784 109.40936279 28.4835025 109.40625 29.42578125 C109.41708618 30.36552292 109.42792236 31.30526459 109.43908691 32.27348328 C109.4734519 35.28655837 109.48895807 38.29925441 109.5 41.3125 C109.51456879 45.26729207 109.54828891 49.22123707 109.59375 53.17578125 C109.59072876 54.08427322 109.58770752 54.9927652 109.58459473 55.92878723 C109.64143112 60.72962271 109.71827143 64.21675644 113 68 C115.61509535 69.95011882 115.61509535 69.95011882 118.69921875 71.59375 C119.82650391 72.23183594 120.95378906 72.86992187 122.11523438 73.52734375 C123.30572655 74.18537193 124.49648362 74.84292108 125.6875 75.5 C128.00591953 76.79852013 130.32099762 78.10291633 132.63671875 79.40625 C134.17912231 80.26186523 134.17912231 80.26186523 135.75268555 81.13476562 C136.82429932 81.75029297 137.89591309 82.36582031 139 83 C139.70311813 83.33759338 140.40623627 83.67518677 141.13066101 84.02301025 C146.52445901 86.8466633 146.52445901 86.8466633 147.79322815 89.92382812 C148.17718467 92.28714813 148.29177762 94.52755209 148.30859375 96.921875 C148.33284927 97.781297 148.3571048 98.64071899 148.38209534 99.52618408 C148.41812975 101.34138023 148.43280167 103.15711024 148.42749023 104.97265625 C148.43744845 107.73569811 148.56949636 110.47522799 148.70898438 113.234375 C148.99481039 125.57953078 148.99481039 125.57953078 145.64276123 129.64685059 C142.12803805 132.56562074 138.15050454 134.39586452 133.96047974 136.15075684 C131.11041147 137.38535312 128.49282431 138.95735062 125.828125 140.546875 C123.00805242 142.16783085 120.18719751 143.78529466 117.3515625 145.37890625 C116.43632812 145.90871094 115.52109375 146.43851563 114.578125 146.984375 C113.76762695 147.44553711 112.95712891 147.90669922 112.12207031 148.38183594 C109.43549363 150.43045883 108.30883856 151.86214344 107 155 C106.77389142 158.03403618 107.00713267 161.00500635 107.2265625 164.03515625 C108.50426044 192.29759305 108.50426044 192.29759305 103.90478516 199.09765625 C98.42740886 203.83111615 91.99489593 206.35020141 85 208 C80.04475629 203.77886647 76.56683801 198.40570648 75.49343872 191.95645142 C75.25908982 188.43841911 75.17616741 184.95161161 75.16015625 181.42578125 C75.14351425 180.14317917 75.12687225 178.86057709 75.10972595 177.53910828 C75.079982 174.84022935 75.07050519 172.14214619 75.07348633 169.44311523 C75.0739968 165.99477841 75.00544891 162.55153747 74.91962528 159.10441303 C74.85052654 155.7947939 74.85358274 152.48611178 74.84765625 149.17578125 C74.81172867 147.94442947 74.77580109 146.7130777 74.73878479 145.44441223 C74.78462083 142.01271098 74.91297712 139.2579069 76 136 C78.40565461 133.79492444 80.62936525 132.51511412 83.59971619 131.18154907 C86.83679561 129.5880841 88.09298803 127.83398583 89.42578125 124.54345703 C90.6165451 119.26906169 90.58706653 113.91600529 90.52148438 108.53637695 C90.50000301 106.43779446 90.52137052 104.34262015 90.546875 102.24414062 C90.56468905 93.95326986 90.14044082 88.51500392 84.40234375 82.2578125 C79.13308 78.1829152 75.23545103 77.84491847 68.76831055 77.82299805 C67.5092691 77.81314125 67.5092691 77.81314125 66.22479248 77.80308533 C63.44543366 77.78336513 60.66612882 77.771693 57.88671875 77.76171875 C56.93712595 77.75764322 55.98753315 77.7535677 55.00916481 77.74936867 C49.98373253 77.72851407 44.95832751 77.71420931 39.93286133 77.70483398 C34.74422289 77.69376668 29.55601297 77.65936128 24.36752605 77.61966228 C20.37577012 77.59351092 16.38411656 77.5851435 12.39228249 77.58155251 C10.47973548 77.57668327 8.56719314 77.56505968 6.65472984 77.54651451 C3.97609905 77.52215294 1.29858083 77.52308244 -1.38012695 77.5300293 C-2.16735641 77.51721924 -2.95458588 77.50440918 -3.76567078 77.49121094 C-9.73625236 77.54754489 -13.29431129 79.37143306 -17.64453125 83.59765625 C-22.80210342 90.06618321 -22.2509495 96.12576182 -22.29516602 104.03149414 C-22.30665085 105.4599806 -22.32704736 106.88842533 -22.35668945 108.31665039 C-22.62535723 119.76628802 -22.62535723 119.76628802 -18 130 C-16.30690186 131.85512814 -16.30690186 131.85512814 -14.4375 132.9375 C-13.56931641 133.50791016 -13.56931641 133.50791016 -12.68359375 134.08984375 C-10.83897446 135.14977253 -10.83897446 135.14977253 -8 136 C-7.81322921 143.46760241 -7.67179056 150.93495779 -7.58550262 158.40437603 C-7.54404996 161.8743558 -7.48799752 165.34271843 -7.39648438 168.81176758 C-6.68096551 196.63015956 -6.68096551 196.63015956 -14.26757812 206.22192383 C-14.83927734 206.80868896 -15.41097656 207.3954541 -16 208 C-37.38256659 196.61743341 -37.38256659 196.61743341 -41 193 C-41.09606924 191.64500478 -41.12515327 190.28515417 -41.12597656 188.92675781 C-41.13168671 187.62970917 -41.13168671 187.62970917 -41.13751221 186.30645752 C-41.13853943 185.36485779 -41.13956665 184.42325806 -41.140625 183.453125 C-41.15895647 181.47394686 -41.17852709 179.49477988 -41.19921875 177.515625 C-41.22817962 174.38392416 -41.24999954 171.25293715 -41.25048828 168.12109375 C-41.25382343 165.10612092 -41.28838458 162.09280949 -41.328125 159.078125 C-41.3210553 158.14462219 -41.3139856 157.21111938 -41.30670166 156.24932861 C-41.39068694 151.76080469 -41.48765733 149.6649832 -44.29614258 146.01977539 C-46.48067025 144.38793815 -48.53477858 142.88913286 -50.93359375 141.60546875 C-51.66642578 141.20650391 -52.39925781 140.80753906 -53.15429688 140.39648438 C-53.90775391 139.99751953 -54.66121094 139.59855469 -55.4375 139.1875 C-56.91602843 138.39055329 -58.39387043 137.59233202 -59.87109375 136.79296875 C-60.65210449 136.37192871 -61.43311523 135.95088867 -62.23779297 135.51708984 C-67.8696332 132.42390837 -73.42996981 129.20275489 -79 126 C-82.80199413 90.64632894 -82.80199413 90.64632894 -76.85400391 81.81298828 C-71.31179687 77.01724633 -64.82746353 74.43758978 -57.95800781 72.06591797 C-54.04324258 70.65523251 -50.67865798 68.73301675 -47.1875 66.5 C-46.23230469 65.9534375 -45.27710938 65.406875 -44.29296875 64.84375 C-40.97545148 62.17617223 -39.31267352 59.18421606 -38.70198059 54.91815186 C-38.55873814 52.49671182 -38.50664578 50.08965701 -38.48828125 47.6640625 C-38.47033005 46.78471039 -38.45237885 45.90535828 -38.43388367 44.99935913 C-38.37997188 42.20795395 -38.34594671 39.41671789 -38.3125 36.625 C-38.27931 34.72523698 -38.24481879 32.82549623 -38.20898438 30.92578125 C-38.12425651 26.28397656 -38.05735439 21.64222035 -38 17 C-37.3201001 16.63237549 -36.6402002 16.26475098 -35.93969727 15.88598633 C-32.81368016 14.19535001 -29.68808767 12.50393011 -26.5625 10.8125 C-25.49322266 10.23435547 -24.42394531 9.65621094 -23.32226562 9.06054688 C-22.26845703 8.49013672 -21.21464844 7.91972656 -20.12890625 7.33203125 C-19.08750488 6.77209473 -18.04610352 6.2121582 -16.97314453 5.63525391 C-15.08993986 4.59947587 -13.22341358 3.5322519 -11.38232422 2.42333984 C-10.21660889 1.7245874 -10.21660889 1.7245874 -9.02734375 1.01171875 C-8.363396 0.59752686 -7.69944824 0.18333496 -7.01538086 -0.2434082 C-4.23008866 -1.28903153 -2.82920645 -0.90085352 0 0 Z " fill="#FDFDFE" transform="translate(286,181)"/>
<path d="M0 0 C14.52 0 29.04 0 44 0 C44.00257813 4.40859375 44.00515625 8.8171875 44.0078125 13.359375 C44.02666613 16.90597365 44.05148411 20.45242071 44.08029175 23.99894714 C44.10894527 27.72554112 44.12743599 31.45151097 44.12011719 35.17822266 C44.11346108 38.77730962 44.13635771 42.37517291 44.17855453 45.97400665 C44.19488752 47.99430669 44.1817149 50.01477738 44.16775513 52.03509521 C44.30814115 61.07774692 46.34197912 67.28745168 51 75 C51.77756905 76.36114426 51.77756905 76.36114426 52.57084656 77.74978638 C54.01252255 80.27187028 55.50100716 82.76159226 57 85.25 C58.14778741 87.17409038 59.29489917 89.09858394 60.44140625 91.0234375 C61.02809082 92.00666992 61.61477539 92.98990234 62.21923828 94.00292969 C65.15459877 98.94322107 68.04633712 103.90875446 70.9375 108.875 C71.51822266 109.87176758 72.09894531 110.86853516 72.69726562 111.89550781 C73.87634111 113.91947882 75.05521458 115.94356752 76.23388672 117.96777344 C78.57211195 121.9822547 80.91302879 125.99516225 83.25439453 130.0078125 C84.41340862 131.99450854 85.57194131 133.98148551 86.72998047 135.96875 C89.74919722 141.14892037 92.77657292 146.32408459 95.81640625 151.4921875 C96.75709961 153.09513672 96.75709961 153.09513672 97.71679688 154.73046875 C98.90689562 156.75804439 100.09942289 158.7841975 101.29492188 160.80859375 C112.58163254 180.06160672 112.58163254 180.06160672 111 191 C108.85345299 198.72277249 104.46966991 204.80230802 97.73196411 209.06997681 C91.82744554 211.94981783 85.77882027 211.54282016 79.33544922 211.48583984 C77.96470783 211.48798896 76.59396823 211.49187148 75.22323608 211.49734497 C71.52076394 211.50699112 67.8187783 211.49179603 64.11636496 211.47143888 C60.23278503 211.45379673 56.34921852 211.45739432 52.46560669 211.4581604 C45.94752928 211.45629095 39.42963879 211.43897339 32.91162109 211.41162109 C25.38389639 211.3801477 17.85637602 211.36962604 10.32859027 211.3710922 C2.29936067 211.37244463 -5.72979057 211.35855707 -13.75899649 211.34019899 C-16.06690489 211.33594378 -18.37480059 211.33451767 -20.68271255 211.33372116 C-24.31238359 211.33170721 -27.94188417 211.3194565 -31.57149887 211.29938889 C-33.53356937 211.29079313 -35.49567484 211.29187908 -37.45776367 211.29327393 C-38.63243195 211.28474396 -39.80710022 211.27621399 -41.0173645 211.26742554 C-42.54209476 211.262398 -42.54209476 211.262398 -44.09762764 211.25726891 C-50.63402232 210.67787698 -56.23001985 208.08654931 -60.640625 203.171875 C-65.830641 196.57098086 -67.69043446 190.73251953 -67.484375 182.3046875 C-66.53820218 175.84934713 -63.24851309 170.54113012 -60 165 C-59.54399414 164.21367187 -59.08798828 163.42734375 -58.61816406 162.6171875 C-55.94642383 158.02200509 -53.23991929 153.44858373 -50.51171875 148.88671875 C-47.04851487 143.09485851 -43.64305475 137.27066234 -40.25 131.4375 C-35.37521991 123.06683164 -30.4862109 114.70469109 -25.58483887 106.34957886 C-24.50703611 104.51199611 -23.42969677 102.67414257 -22.35253906 100.83618164 C-21.99983948 100.23437576 -21.64713989 99.63256989 -21.28375244 99.01252747 C-20.57520808 97.80353736 -19.86667127 96.59454283 -19.15814209 95.38554382 C-17.06226375 91.8099531 -14.96351595 88.23606567 -12.8626709 84.66339111 C-11.23966673 81.90183407 -9.6201683 79.13822148 -8 76.375 C-7.40638672 75.36759766 -6.81277344 74.36019531 -6.20117188 73.32226562 C-5.66041016 72.39865234 -5.11964844 71.47503906 -4.5625 70.5234375 C-4.08941406 69.71825684 -3.61632812 68.91307617 -3.12890625 68.08349609 C-1.05480926 64.2555671 -0.85458806 61.16408837 -0.79467773 56.8762207 C-0.77473251 55.61513992 -0.75478729 54.35405914 -0.73423767 53.05476379 C-0.71725467 51.67843753 -0.70037581 50.30210998 -0.68359375 48.92578125 C-0.66301803 47.51758725 -0.6420214 46.10939935 -0.62062073 44.70121765 C-0.56546378 40.99739519 -0.51602646 37.29351759 -0.46777344 33.58959961 C-0.41751179 29.80903227 -0.36190226 26.02854389 -0.30664062 22.24804688 C-0.19863139 14.83209179 -0.09955908 7.41609266 0 0 Z " fill="#FEFEFE" transform="translate(298,318)"/>
<path d="M0 0 C0.83921494 -0.0049649 1.67842987 -0.00992981 2.54307556 -0.01504517 C5.32787895 -0.0296859 8.11262533 -0.03647275 10.89746094 -0.04199219 C12.83079022 -0.04774305 14.76411949 -0.05350079 16.69744873 -0.05926514 C20.75614691 -0.06978123 24.81482526 -0.07561959 28.87353516 -0.07910156 C34.06997103 -0.08458079 39.26614415 -0.10859404 44.46249771 -0.13707352 C48.45854451 -0.15571601 52.45452831 -0.16090641 56.45061493 -0.16243744 C58.36593814 -0.16546198 60.2812603 -0.1734838 62.19654083 -0.18662262 C64.87992691 -0.20371313 67.56267504 -0.20179531 70.24609375 -0.1953125 C71.03489426 -0.20452728 71.82369476 -0.21374207 72.63639832 -0.22323608 C78.42862383 -0.17949013 82.60112184 1.03874221 86.96386719 5.09863281 C87.53492188 5.77925781 88.10597656 6.45988281 88.69433594 7.16113281 C89.27828125 7.84175781 89.86222656 8.52238281 90.46386719 9.22363281 C94.21007006 14.34241139 93.14305883 21.12373525 93.17700195 27.19262695 C93.18848678 28.62111341 93.20888329 30.04955815 93.23852539 31.4777832 C93.55040296 46.51585755 93.55040296 46.51585755 88.88183594 53.16113281 C86.59277344 55.25488281 86.59277344 55.25488281 84.25683594 56.66113281 C83.48082031 57.14582031 82.70480469 57.63050781 81.90527344 58.12988281 C79.88183594 59.16113281 79.88183594 59.16113281 77.88183594 59.16113281 C77.85014728 66.64685094 77.8567888 74.13174201 77.91030216 81.61732101 C77.93400062 85.0946273 77.94525287 88.57098277 77.92651367 92.04833984 C77.90546834 96.06065489 77.94133963 100.07081542 77.97949219 104.08300781 C77.95810936 105.92593414 77.95810936 105.92593414 77.93629456 107.80609131 C78.08625459 116.88675071 80.67570473 122.76586562 85.88183594 130.16113281 C88.27854634 128.89193145 90.67421687 127.62083094 93.06933594 126.34863281 C93.74287109 125.99220703 94.41640625 125.63578125 95.11035156 125.26855469 C98.04097357 123.71032152 100.91666378 122.13970395 103.74511719 120.39941406 C105.88183594 119.16113281 105.88183594 119.16113281 107.88183594 119.16113281 C107.88183594 105.63113281 107.88183594 92.10113281 107.88183594 78.16113281 C108.21183594 78.16113281 108.54183594 78.16113281 108.88183594 78.16113281 C108.88104034 78.80148972 108.88024475 79.44184662 108.87942505 80.10160828 C108.87698647 86.76931977 108.91617317 93.43586691 108.97949219 100.10327148 C108.9976556 102.59117218 109.0052201 105.07917382 109.00195312 107.56713867 C108.99909725 111.14483806 109.03440376 114.72044219 109.07714844 118.29785156 C109.06350754 119.96529671 109.06350754 119.96529671 109.04959106 121.66642761 C108.99771375 127.13176684 108.99771375 127.13176684 111.20062256 131.93545532 C112.97081418 133.48063395 112.97081418 133.48063395 115.88183594 135.16113281 C116.54183594 135.82113281 117.20183594 136.48113281 117.88183594 137.16113281 C111.28183594 140.79113281 104.68183594 144.42113281 97.88183594 148.16113281 C98.83058369 151.95612381 99.98733107 154.36919451 101.91699219 157.72753906 C102.55362793 158.8395166 103.19026367 159.95149414 103.84619141 161.09716797 C104.54538277 162.30609958 105.24476937 163.51491828 105.94433594 164.72363281 C106.66478241 165.97659211 107.38499372 167.22968664 108.10498047 168.48291016 C113.08204322 177.12784638 118.15460494 185.71465414 123.25683594 194.28613281 C127.79424663 201.90926839 132.30567797 209.54067474 136.63183594 217.28613281 C137.01388184 217.96562988 137.39592773 218.64512695 137.78955078 219.34521484 C138.8523358 221.26883162 139.8741999 223.20812078 140.88183594 225.16113281 C141.44149048 226.20418579 141.44149048 226.20418579 142.01245117 227.26831055 C144.96917331 233.2073513 145.54973316 238.38573372 145.44433594 244.97363281 C145.42790039 246.42829956 145.42790039 246.42829956 145.41113281 247.91235352 C145.18113668 255.53480878 143.92936862 261.59623225 139.88183594 268.16113281 C139.31207031 269.11117188 138.74230469 270.06121094 138.15527344 271.04003906 C131.14261912 281.64559652 121.00532554 288.79155079 108.59678841 291.69598866 C105.72848453 292.18740602 103.06304771 292.28992734 100.15353394 292.29484558 C99.00981827 292.29911057 97.8661026 292.30337555 96.68772888 292.30776978 C95.44193558 292.30731659 94.19614227 292.3068634 92.91259766 292.30639648 C91.59329758 292.3097551 90.2739975 292.31311371 88.91471863 292.3165741 C85.30075037 292.32539604 81.6868058 292.32775154 78.07282782 292.32838988 C75.8108289 292.32910178 73.54883596 292.33123882 71.28683853 292.3338871 C63.38327911 292.34313683 55.47973653 292.34722274 47.57617188 292.34643555 C40.22983013 292.3458359 32.88356208 292.35636649 25.53723896 292.37217921 C19.21514667 292.38529822 12.89307834 292.39061757 6.57097256 292.38998014 C2.80191591 292.38972629 -0.96707532 292.39251411 -4.73611832 292.40315819 C-8.28693585 292.412912 -11.83762644 292.41286902 -15.38844872 292.40564156 C-17.29593402 292.40411409 -19.2034195 292.41239266 -21.11088562 292.42108154 C-36.01965604 292.36720182 -49.19746841 289.62361523 -60.37597656 279.07128906 C-69.48156768 269.08780463 -73.29256863 258.22158759 -73.43066406 244.97363281 C-73.45966797 244.06548828 -73.48867187 243.15734375 -73.51855469 242.22167969 C-73.58022464 235.59453174 -72.25157186 230.9620406 -69.11816406 225.16113281 C-68.73845459 224.42822021 -68.35874512 223.69530762 -67.9675293 222.94018555 C-66.73583594 220.59994289 -65.46525508 218.28523981 -64.18066406 215.97363281 C-63.70467773 215.1127002 -63.22869141 214.25176758 -62.73828125 213.36474609 C-58.70120765 206.11083388 -54.50040747 198.95919416 -50.25512695 191.82568359 C-45.81761495 184.36667759 -41.45369308 176.86716804 -37.11816406 169.34863281 C-36.49522461 168.26952637 -35.87228516 167.19041992 -35.23046875 166.07861328 C-31.80668867 160.13483446 -28.4253365 154.17062328 -25.11816406 148.16113281 C-25.84285889 147.88930176 -26.56755371 147.6174707 -27.31420898 147.33740234 C-30.04506133 146.19179968 -32.45167885 144.87500126 -34.98144531 143.34082031 C-35.86767578 142.80585938 -36.75390625 142.27089844 -37.66699219 141.71972656 C-38.57900391 141.16414062 -39.49101562 140.60855469 -40.43066406 140.03613281 C-41.36201172 139.4728125 -42.29335937 138.90949219 -43.25292969 138.32910156 C-45.54337549 136.94308821 -47.83168482 135.55367653 -50.11816406 134.16113281 C-45.27126899 130.25668956 -45.27126899 130.25668956 -42.88378906 128.76660156 C-40.43514663 126.5400705 -40.32456573 124.70647794 -39.86816406 121.47363281 C-39.71863281 120.47976563 -39.56910156 119.48589844 -39.41503906 118.46191406 C-39.31707031 117.70265625 -39.21910156 116.94339844 -39.11816406 116.16113281 C-38.23515625 116.66902344 -37.35214844 117.17691406 -36.44238281 117.70019531 C-29.04836789 121.94425646 -21.61976449 126.10914829 -14.11816406 130.16113281 C-7.95143946 121.40135049 -6.0924924 114.71229715 -6.21582031 104.08300781 C-6.2035289 102.79042053 -6.19123749 101.49783325 -6.17857361 100.16607666 C-6.14668721 96.77261211 -6.15566281 93.38051488 -6.1739502 89.98699951 C-6.18520493 86.50713816 -6.15671224 83.02760897 -6.13183594 79.54785156 C-6.0889753 72.7520955 -6.08939589 65.95695395 -6.11816406 59.16113281 C-6.88 59.03867187 -7.64183594 58.91621094 -8.42675781 58.79003906 C-13.66378576 57.56629233 -16.39857549 54.23463881 -19.27050781 49.95019531 C-22.03721589 44.18023518 -21.71599732 37.96032089 -21.63964844 31.69750977 C-21.61816708 29.59892727 -21.63953458 27.50375297 -21.66503906 25.40527344 C-21.68381132 16.93280987 -21.22502345 11.51059149 -15.26660156 5.20019531 C-14.68136719 4.73355469 -14.09613281 4.26691406 -13.49316406 3.78613281 C-12.90277344 3.30402344 -12.31238281 2.82191406 -11.70410156 2.32519531 C-8.00077691 -0.3930085 -4.42135396 0.00620212 0 0 Z M13.88183594 60.16113281 C13.87925781 64.56972656 13.87667969 68.97832031 13.87402344 73.52050781 C13.85516981 77.06710646 13.83035183 80.61355353 13.80154419 84.16007996 C13.77289067 87.88667393 13.75439995 91.61264379 13.76171875 95.33935547 C13.76837486 98.93844243 13.74547823 102.53630573 13.7032814 106.13513947 C13.68694842 108.15543951 13.70012104 110.17591019 13.71408081 112.19622803 C13.57353039 121.24946909 11.54807701 127.43821321 6.88183594 135.16113281 C6.25092041 136.29244629 5.62000488 137.42375977 4.9699707 138.58935547 C4.42655029 139.49218262 3.88312988 140.39500977 3.32324219 141.32519531 C2.69812744 142.37046387 2.0730127 143.41573242 1.42895508 144.49267578 C0.77403076 145.5795166 0.11910645 146.66635742 -0.55566406 147.78613281 C-1.9853607 150.17520097 -3.4113683 152.56646103 -4.83691406 154.95800781 C-5.19643661 155.56051361 -5.55595917 156.16301941 -5.92637634 156.78378296 C-9.53031601 162.83290655 -13.04922789 168.93004073 -16.55566406 175.03613281 C-21.94704789 184.417843 -27.38908848 193.76800215 -32.86816406 203.09863281 C-40.25756988 215.68395548 -40.25756988 215.68395548 -47.61816406 228.28613281 C-48.06901367 229.05562256 -48.51986328 229.8251123 -48.984375 230.61791992 C-53.0914074 237.68923645 -53.83472056 243.05697971 -53.11816406 251.16113281 C-51.14016989 258.51927115 -46.66839562 264.56340241 -40.55566406 269.03613281 C-36.20150187 271.04574613 -32.01271911 271.28898304 -27.26251221 271.31503296 C-26.09066376 271.32363342 -24.91881531 271.33223389 -23.7114563 271.34109497 C-22.43446869 271.34535492 -21.15748108 271.34961487 -19.84179688 271.35400391 C-18.47636714 271.36191207 -17.11093945 271.37018146 -15.74551392 271.37878418 C-11.27079236 271.40491816 -6.79606185 271.42030158 -2.32128906 271.43457031 C-0.77710719 271.43993324 0.76707464 271.44531075 2.31125641 271.45070267 C8.7366238 271.47231731 15.16198876 271.4910525 21.58738327 271.50232506 C30.77733411 271.51855755 39.9668618 271.5517342 49.15665317 271.60872591 C55.62902789 271.64748938 62.10128972 271.6669652 68.57377744 271.67224562 C72.43459863 271.67588988 76.2949676 271.68781193 80.15566254 271.72034836 C83.79036034 271.75054325 87.42433496 271.75670095 91.05913162 271.7449646 C93.01716154 271.74464061 94.9751476 271.76902902 96.93301392 271.79434204 C105.73289248 271.73247076 111.80151522 270.07796823 118.22167969 263.91503906 C124.04699612 255.92481286 126.34601155 249.15058904 124.88183594 239.16113281 C123.10592382 234.17106988 120.55011768 229.71253708 117.88183594 225.16113281 C117.42583008 224.37480469 116.96982422 223.58847656 116.5 222.77832031 C113.83207698 218.18970321 111.12955663 213.62274159 108.40527344 209.06738281 C104.87586606 203.16478703 101.40388805 197.22987592 97.94433594 191.28613281 C97.06986816 189.78530151 97.06986816 189.78530151 96.17773438 188.25415039 C94.99650652 186.22670131 93.81551675 184.19911348 92.63476562 182.17138672 C89.78127464 177.27117171 86.925545 172.37226387 84.06933594 167.47363281 C83.50907715 166.51191162 82.94881836 165.55019043 82.37158203 164.55932617 C79.01439592 158.80085215 75.64169521 153.05180031 72.25683594 147.30957031 C71.08014268 145.31099063 69.90364851 143.31229386 68.72720337 141.31356812 C67.95967535 140.01105035 67.19111184 138.70914217 66.42147827 137.40786743 C65.3471666 135.59140847 64.27629228 133.77296301 63.20605469 131.95410156 C62.58819092 130.90762451 61.97032715 129.86114746 61.33374023 128.78295898 C59.07240817 124.69948076 58.74085848 121.64260351 58.67651367 117.03735352 C58.64659584 115.14573235 58.64659584 115.14573235 58.61607361 113.21589661 C58.5990906 111.83957034 58.58221175 110.46324279 58.56542969 109.08691406 C58.54485397 107.67872007 58.52385733 106.27053216 58.50245667 104.86235046 C58.44729972 101.15852801 58.3978624 97.4546504 58.34960938 93.75073242 C58.29934773 89.97016509 58.2437382 86.1896767 58.18847656 82.40917969 C58.08046732 74.9932246 57.98139502 67.57722548 57.88183594 60.16113281 C43.36183594 60.16113281 28.84183594 60.16113281 13.88183594 60.16113281 Z " fill="#072C76" transform="translate(284.1181640625,257.8388671875)"/>
<path d="M0 0 C3.01342773 1.32592773 3.01342773 1.32592773 6.18359375 3.18359375 C7.04327255 3.68027054 7.04327255 3.68027054 7.9203186 4.1869812 C9.76695769 5.25806373 11.60217712 6.34716089 13.4375 7.4375 C14.70115634 8.17637609 15.96540003 8.91424857 17.23022461 9.65112305 C19.70867774 11.09839363 22.18230455 12.55336901 24.65136719 14.01660156 C27.45173712 15.67526337 30.25859079 17.32164407 33.0703125 18.9609375 C45.4034093 26.21022789 45.4034093 26.21022789 47 31 C47.116466 32.60372803 47.17907679 34.21165811 47.20874023 35.81933594 C47.22803085 36.7975531 47.24732147 37.77577026 47.26719666 38.78363037 C47.32505441 43.25708204 47.37421251 47.73037536 47.4050293 52.20410156 C47.42661222 54.56102141 47.46071807 56.91786106 47.50756836 59.27441406 C47.57460193 62.67809737 47.60203484 66.08012449 47.62109375 69.484375 C47.64892441 70.5325238 47.67675507 71.58067261 47.70542908 72.6605835 C47.69149975 77.63499506 47.50547993 81.07141443 44.2902832 85.01245117 C41.68216301 87.58320809 38.96417845 89.5693762 35.734375 91.31640625 C34.76113281 91.85330078 33.78789062 92.39019531 32.78515625 92.94335938 C31.28275391 93.74483398 31.28275391 93.74483398 29.75 94.5625 C27.76492675 95.64585697 25.7805459 96.73048364 23.796875 97.81640625 C22.83330078 98.3386377 21.86972656 98.86086914 20.87695312 99.39892578 C17.17181799 101.46089763 13.56606755 103.66846266 9.96972656 105.91381836 C8 107 8 107 6 107 C6 120.53 6 134.06 6 148 C8.97 148.99 8.97 148.99 12 150 C13.90233218 150.98813368 15.77738017 152.03018389 17.625 153.1171875 C19.17960937 154.02791016 19.17960937 154.02791016 20.765625 154.95703125 C21.83296875 155.58996094 22.9003125 156.22289062 24 156.875 C25.06734375 157.50019531 26.1346875 158.12539063 27.234375 158.76953125 C41.40360675 167.10541013 41.40360675 167.10541013 44 171 C44.26069641 173.30123901 44.26069641 173.30123901 44.2746582 176.03466797 C44.28419022 177.05938202 44.29372223 178.08409607 44.30354309 179.13986206 C44.30263168 180.24612946 44.30172028 181.35239685 44.30078125 182.4921875 C44.30506638 183.63027863 44.3093515 184.76836975 44.31376648 185.94094849 C44.31951334 188.35011123 44.32000744 190.75929133 44.31567383 193.16845703 C44.31251842 196.85349199 44.33595385 200.53772086 44.36132812 204.22265625 C44.36360153 206.56249899 44.36430442 208.90234388 44.36328125 211.2421875 C44.372491 212.34440643 44.38170074 213.44662537 44.39118958 214.58224487 C44.38496078 215.61326324 44.37873199 216.64428162 44.37231445 217.70654297 C44.37294388 218.61016571 44.3735733 219.51378845 44.3742218 220.4447937 C43.8240987 224.20106339 42.19946882 226.93284668 39.37109375 229.44921875 C32.66621003 233.74305337 25.71195699 237.57277115 18.7265625 241.38671875 C15.62428184 243.0856474 12.56223027 244.83457301 9.5234375 246.64453125 C8.81388916 247.06178467 8.10434082 247.47903809 7.37329102 247.90893555 C6.03850574 248.69658695 4.71032089 249.49557764 3.39038086 250.30786133 C-0.99278122 252.86911715 -3.97602403 253.41318556 -9 253 C-12.15869141 251.65820313 -12.15869141 251.65820313 -15.3515625 249.78125 C-15.93231537 249.44508667 -16.51306824 249.10892334 -17.11141968 248.76257324 C-18.95787201 247.68900914 -20.791176 246.59496492 -22.625 245.5 C-23.8312416 244.79552118 -25.03826864 244.09238544 -26.24609375 243.390625 C-29.24735607 241.64013386 -32.23265913 239.8645995 -35.21057129 238.07470703 C-36.4163513 237.35053163 -37.62366318 236.6289015 -38.83239746 235.90966797 C-40.608222 234.85223598 -42.37894223 233.78673201 -44.1484375 232.71875 C-45.17888184 232.09935547 -46.20932617 231.47996094 -47.27099609 230.84179688 C-53.6894776 226.5099822 -53.6894776 226.5099822 -54.52139282 222.46461487 C-54.5306076 221.51150925 -54.53982239 220.55840363 -54.54931641 219.57641602 C-54.56838043 218.49171524 -54.58744446 217.40701447 -54.60708618 216.28944397 C-54.60526337 215.12271652 -54.60344055 213.95598907 -54.6015625 212.75390625 C-54.61013275 211.55064194 -54.618703 210.34737762 -54.62753296 209.10765076 C-54.63901787 206.56324785 -54.64002125 204.01877928 -54.63134766 201.47436523 C-54.62502852 197.58007853 -54.67193569 193.68883252 -54.72265625 189.79492188 C-54.72720241 187.3229205 -54.72860914 184.85091095 -54.7265625 182.37890625 C-54.74498199 181.21420303 -54.76340149 180.04949982 -54.78237915 178.84950256 C-54.6929924 171.04384252 -54.6929924 171.04384252 -52.84516907 168.26049805 C-51.36303711 166.96899414 -51.36303711 166.96899414 -48 165 C-46.95320068 164.34370605 -45.90640137 163.68741211 -44.82788086 163.01123047 C-43.71807861 162.38619629 -42.60827637 161.76116211 -41.46484375 161.1171875 C-40.86370255 160.77624054 -40.26256134 160.43529358 -39.64320374 160.08401489 C-37.7444537 159.00864693 -35.84118383 157.94160471 -33.9375 156.875 C-32.03135799 155.79936887 -30.12617399 154.72205586 -28.22108459 153.64456177 C-26.49647304 152.67035946 -24.76966057 151.70005641 -23.04272461 150.72998047 C-22.03862549 150.15908691 -21.03452637 149.58819336 -20 149 C-19.05302246 148.61690674 -18.10604492 148.23381348 -17.13037109 147.83911133 C-14.8725953 146.25470563 -14.8725953 146.25470563 -14.57807922 144.1932373 C-14.41763404 141.76443089 -14.43866398 139.39007597 -14.51171875 136.95703125 C-14.52233086 135.63163582 -14.52233086 135.63163582 -14.53315735 134.27946472 C-14.56115474 131.45628309 -14.6239013 128.63508241 -14.6875 125.8125 C-14.71257604 123.89911718 -14.73539042 121.98570328 -14.75585938 120.07226562 C-14.81099877 115.38074673 -14.8973068 110.69070923 -15 106 C-15.80630859 105.5467334 -16.61261719 105.0934668 -17.44335938 104.62646484 C-20.47262154 102.92000369 -23.49892033 101.20849935 -26.5234375 99.49365234 C-27.8256945 98.75662893 -29.129056 98.02155313 -30.43359375 97.28857422 C-50.29124725 86.12625826 -50.29124725 86.12625826 -52 81 C-52.11206662 79.32428952 -52.16892928 77.64461501 -52.19287109 75.96533203 C-52.20893402 74.94061798 -52.22499695 73.91590393 -52.24154663 72.86013794 C-52.28603151 68.18394681 -52.32704302 63.5078961 -52.35009766 58.83154297 C-52.36667581 56.36399924 -52.39398983 53.89650388 -52.43212891 51.42919922 C-52.48682859 47.87181688 -52.5087601 44.31555844 -52.5234375 40.7578125 C-52.55744156 39.1044841 -52.55744156 39.1044841 -52.59213257 37.41775513 C-52.57102972 29.78366863 -52.57102972 29.78366863 -49.78857422 25.96508789 C-47.1827202 24.12876159 -44.62879631 22.37990466 -41.859375 20.80078125 C-40.87888184 20.23568848 -39.89838867 19.6705957 -38.88818359 19.08837891 C-37.85258301 18.50233887 -36.81698242 17.91629883 -35.75 17.3125 C-33.59072631 16.07755615 -31.43187471 14.84187401 -29.2734375 13.60546875 C-28.21092773 12.99880371 -27.14841797 12.39213867 -26.05371094 11.76708984 C-23.29414292 10.17021158 -20.56718099 8.53347819 -17.8515625 6.86328125 C-16.7054248 6.16368286 -16.7054248 6.16368286 -15.53613281 5.44995117 C-14.13608357 4.59160648 -12.74175657 3.7238285 -11.35449219 2.8449707 C-7.30162417 0.38430083 -4.70396906 -0.45246495 0 0 Z " fill="#072C76" transform="translate(447,163)"/>
<path d="M0 0 C2.70629883 1.12646484 2.70629883 1.12646484 5.45703125 2.7109375 C6.99085449 3.58202148 6.99085449 3.58202148 8.55566406 4.47070312 C9.63041992 5.09912109 10.70517578 5.72753906 11.8125 6.375 C12.91948242 7.01115234 14.02646484 7.64730469 15.16699219 8.30273438 C17.40114078 9.58919976 19.6321441 10.88114385 21.85986328 12.17871094 C24.64224379 13.79250029 27.43839513 15.37615932 30.24609375 16.9453125 C31.74781928 17.79612803 33.24915382 18.64763424 34.75 19.5 C35.42135986 19.8717334 36.09271973 20.2434668 36.78442383 20.62646484 C37.40728271 20.98691895 38.0301416 21.34737305 38.671875 21.71875 C39.1987793 22.01716797 39.72568359 22.31558594 40.26855469 22.62304688 C43.74288991 25.38605458 46.57049482 27.78737926 47.43392944 32.2354126 C47.5777318 34.90801604 47.56240381 37.53549649 47.48828125 40.2109375 C47.47766914 41.66314194 47.47766914 41.66314194 47.46684265 43.14468384 C47.43896129 46.2222579 47.3762338 49.29798036 47.3125 52.375 C47.28740907 54.46742155 47.2645973 56.55987176 47.24414062 58.65234375 C47.18915493 63.76893736 47.10292494 68.88415528 47 74 C47.68860107 74.25072266 48.37720215 74.50144531 49.08666992 74.75976562 C52.43966908 76.18717162 55.50378883 77.96076521 58.61328125 79.84375 C59.22769577 80.21350952 59.84211029 80.58326904 60.47514343 80.9642334 C61.764654 81.74224355 63.05295115 82.52226808 64.34008789 83.30419922 C66.31894644 84.50390824 68.3047083 85.69158106 70.29101562 86.87890625 C71.54470847 87.63729784 72.7979792 88.39638777 74.05078125 89.15625 C74.6475618 89.51150757 75.24434235 89.86676514 75.85920715 90.23278809 C77.27455278 91.10040282 78.64311149 92.04354188 80 93 C80 93.66 80 94.32 80 95 C78.28515625 96.21875 78.28515625 96.21875 76.0625 97.5 C72.94567974 99.18454879 72.94567974 99.18454879 71 102 C70.77532169 103.53668865 70.59203195 105.07968054 70.4375 106.625 C70.29166667 108.08333333 70.14583333 109.54166667 70 111 C61.26535819 106.88717376 53.22366373 101.88388323 45.12695312 96.64453125 C43.66225586 95.72607422 43.66225586 95.72607422 42.16796875 94.7890625 C40.85735474 93.94915771 40.85735474 93.94915771 39.52026367 93.09228516 C36.38051301 91.73151363 35.21352311 91.88617721 32 93 C29.80608632 94.10645166 27.65124884 95.29181968 25.52734375 96.52734375 C24.92241592 96.87632217 24.3174881 97.2253006 23.69422913 97.58485413 C21.77141969 98.69582758 19.85436045 99.81629929 17.9375 100.9375 C16.01592928 102.05305648 14.09322859 103.16663635 12.1700592 104.2794342 C10.42646591 105.28965569 8.68569078 106.30473658 6.94506836 107.32006836 C5.9731958 107.8744458 5.00132324 108.42882324 4 109 C3.33299072 109.40549072 2.66598145 109.81098145 1.97875977 110.22875977 C-0.87603714 111.34144372 -2.952219 111.32367486 -6 111 C-9.14038086 109.59472656 -9.14038086 109.59472656 -12.46484375 107.640625 C-13.06124161 107.29497498 -13.65763947 106.94932495 -14.27210999 106.59320068 C-16.16790252 105.49081515 -18.05262624 104.37093146 -19.9375 103.25 C-21.19917068 102.51182463 -22.46153523 101.77483385 -23.72460938 101.0390625 C-26.06430154 99.67424048 -28.39860237 98.30153803 -30.73022461 96.92285156 C-31.80925049 96.28831055 -32.88827637 95.65376953 -34 95 C-34.59128693 94.61485229 -35.18257385 94.22970459 -35.79177856 93.83288574 C-38.47923587 92.14058644 -40.36496458 90.98216058 -43.58984375 91.07275391 C-46.38100112 92.14658046 -48.93969941 93.39562745 -51.5625 94.8359375 C-52.60664063 95.40570313 -53.65078125 95.97546875 -54.7265625 96.5625 C-55.80679688 97.160625 -56.88703125 97.75875 -58 98.375 C-59.62035156 99.26058594 -59.62035156 99.26058594 -61.2734375 100.1640625 C-67.05888699 103.32408241 -67.05888699 103.32408241 -72.72265625 106.69384766 C-75 108 -75 108 -77 108 C-77 121.2 -77 134.4 -77 148 C-77.33 148 -77.66 148 -78 148 C-78.00142502 147.36995056 -78.00285004 146.73990112 -78.00431824 146.09075928 C-78.02399507 139.53678781 -78.07822546 132.98375023 -78.15258789 126.43017578 C-78.17579405 123.98395486 -78.1901697 121.53763365 -78.19555664 119.09130859 C-78.20482659 115.57585969 -78.24577761 112.06199394 -78.29296875 108.546875 C-78.28706978 106.9044986 -78.28706978 106.9044986 -78.28105164 105.22894287 C-78.25004 99.2306295 -78.25004 99.2306295 -81.3996582 94.38769531 C-82.257771 93.92975586 -83.11588379 93.47181641 -84 93 C-85.1446875 92.13375 -85.1446875 92.13375 -86.3125 91.25 C-86.869375 90.8375 -87.42625 90.425 -88 90 C-86.58074219 89.30777344 -86.58074219 89.30777344 -85.1328125 88.6015625 C-76.52727611 84.36810507 -68.09231654 79.91289497 -59.76611328 75.15087891 C-59.04149902 74.74015137 -58.31688477 74.32942383 -57.5703125 73.90625 C-56.92852051 73.53822266 -56.28672852 73.17019531 -55.62548828 72.79101562 C-54 72 -54 72 -52 72 C-52.02618408 70.75911621 -52.05236816 69.51823242 -52.0793457 68.23974609 C-52.17006582 63.62176652 -52.22732861 59.00386521 -52.2746582 54.38525391 C-52.29975272 52.38902527 -52.33383626 50.39288807 -52.37719727 48.39697266 C-52.43807246 45.52223112 -52.46626024 42.64870752 -52.48828125 39.7734375 C-52.51408768 38.88570648 -52.5398941 37.99797546 -52.56648254 37.08334351 C-52.5683481 32.93180039 -52.43448342 29.95468122 -49.82250977 26.61108398 C-47.09366932 24.08665284 -44.59123608 22.25626066 -41.3515625 20.44921875 C-39.72976074 19.53088257 -39.72976074 19.53088257 -38.07519531 18.59399414 C-36.93663086 17.96485107 -35.79806641 17.33570801 -34.625 16.6875 C-32.86029786 15.69822788 -31.09764483 14.70537793 -29.33520508 13.71208191 C-27.60969988 12.73994998 -25.88249758 11.77083233 -24.15527344 10.80175781 C-21.45439201 9.25947176 -18.79986149 7.67352772 -16.1640625 6.0234375 C-15.48649902 5.59973877 -14.80893555 5.17604004 -14.11083984 4.73950195 C-12.38619186 3.64864287 -10.6693065 2.54553724 -8.953125 1.44140625 C-5.54955564 -0.21985975 -3.74976508 -0.30829919 0 0 Z " fill="#082B75" transform="translate(325,90)"/>
<path d="M0 0 C2.58276367 1.1105957 2.58276367 1.1105957 5.16796875 2.67578125 C6.61876831 3.53937256 6.61876831 3.53937256 8.09887695 4.42041016 C9.11812256 5.0447998 10.13736816 5.66918945 11.1875 6.3125 C13.33031227 7.59835125 15.47354734 8.88349815 17.6171875 10.16796875 C18.68549805 10.8129834 19.75380859 11.45799805 20.85449219 12.12255859 C23.78027078 13.86885147 26.72695745 15.56563674 29.6953125 17.23828125 C30.56260986 17.7283667 31.42990723 18.21845215 32.32348633 18.72338867 C33.94522805 19.63662253 35.56993852 20.54461055 37.19799805 21.4465332 C37.922854 21.85863037 38.64770996 22.27072754 39.39453125 22.6953125 C40.02206299 23.04609863 40.64959473 23.39688477 41.29614258 23.75830078 C44.16069074 25.84586232 45.82276712 27.873429 46.38095093 31.42149353 C46.3845311 32.77120995 46.3845311 32.77120995 46.38818359 34.14819336 C46.39764008 35.17283188 46.40709656 36.1974704 46.4168396 37.25315857 C46.41076691 38.35426468 46.40469421 39.45537079 46.3984375 40.58984375 C46.40130768 41.72651993 46.40417786 42.86319611 46.40713501 44.03431702 C46.40917596 46.43751524 46.403644 48.84073006 46.39111328 51.24389648 C46.37507574 54.92013792 46.3909542 58.5952774 46.41015625 62.27148438 C46.40817353 64.60677326 46.40432927 66.94206146 46.3984375 69.27734375 C46.40451019 70.37642563 46.41058289 71.47550751 46.4168396 72.6078949 C46.40265488 74.14958092 46.40265488 74.14958092 46.38818359 75.72241211 C46.38579681 76.62301865 46.38341003 77.52362518 46.38095093 78.45152283 C45.82052283 82.20066244 44.1957717 84.93613597 41.37109375 87.44921875 C34.66621003 91.74305337 27.71195699 95.57277115 20.7265625 99.38671875 C17.62428184 101.0856474 14.56223027 102.83457301 11.5234375 104.64453125 C10.81388916 105.06178467 10.10434082 105.47903809 9.37329102 105.90893555 C8.03850574 106.69658695 6.71032089 107.49557764 5.39038086 108.30786133 C1.00721878 110.86911715 -1.97602403 111.41318556 -7 111 C-10.15869141 109.65820312 -10.15869141 109.65820312 -13.3515625 107.78125 C-13.93231537 107.44508667 -14.51306824 107.10892334 -15.11141968 106.76257324 C-16.95787201 105.68900914 -18.791176 104.59496492 -20.625 103.5 C-21.8312416 102.79552118 -23.03826864 102.09238544 -24.24609375 101.390625 C-27.24735607 99.64013386 -30.23265913 97.8645995 -33.21057129 96.07470703 C-34.4163513 95.35053163 -35.62366318 94.6289015 -36.83239746 93.90966797 C-38.608222 92.85223598 -40.37894223 91.78673201 -42.1484375 90.71875 C-43.17888184 90.09935547 -44.20932617 89.47996094 -45.27099609 88.84179688 C-51.6894776 84.5099822 -51.6894776 84.5099822 -52.52139282 80.46461487 C-52.5306076 79.51150925 -52.53982239 78.55840363 -52.54931641 77.57641602 C-52.56838043 76.49171524 -52.58744446 75.40701447 -52.60708618 74.28944397 C-52.60526337 73.12271652 -52.60344055 71.95598907 -52.6015625 70.75390625 C-52.61013275 69.55064194 -52.618703 68.34737762 -52.62753296 67.10765076 C-52.63901787 64.56324785 -52.64002125 62.01877928 -52.63134766 59.47436523 C-52.62502852 55.58007853 -52.67193569 51.68883252 -52.72265625 47.79492188 C-52.72720241 45.3229205 -52.72860914 42.85091095 -52.7265625 40.37890625 C-52.74498199 39.21420303 -52.76340149 38.04949982 -52.78237915 36.84950256 C-52.69293627 29.03894093 -52.69293627 29.03894093 -50.83651733 26.2555542 C-49.34765625 24.96020508 -49.34765625 24.96020508 -46 23 C-44.9898584 22.36465332 -43.9797168 21.72930664 -42.93896484 21.07470703 C-41.34109131 20.17534424 -41.34109131 20.17534424 -39.7109375 19.2578125 C-39.12639801 18.92635223 -38.54185852 18.59489197 -37.93960571 18.25338745 C-36.08788875 17.20488943 -34.23167856 16.16468177 -32.375 15.125 C-30.54790443 14.0946172 -28.72178836 13.06252225 -26.89605713 12.02972412 C-25.69279409 11.35041627 -24.48816655 10.67351952 -23.28216553 9.99908447 C-20.36241855 8.36195595 -17.49046408 6.68670126 -14.63769531 4.93261719 C-13.59452148 4.29227539 -12.55134766 3.65193359 -11.4765625 2.9921875 C-10.10491943 2.12762939 -10.10491943 2.12762939 -8.70556641 1.24560547 C-5.48430266 -0.23741994 -3.5127469 -0.41747856 0 0 Z " fill="#062B75" transform="translate(445,305)"/>
<path d="M0 0 C2.80850605 1.16779148 5.3832989 2.64299247 8 4.1875 C8.76602539 4.62731201 9.53205078 5.06712402 10.32128906 5.52026367 C11.98935915 6.48208634 13.65360355 7.45056687 15.31445312 8.42480469 C18.15509766 10.09097183 21.00682995 11.73711343 23.859375 13.3828125 C25.82368143 14.52472715 27.78723565 15.6679368 29.75 16.8125 C30.678125 17.35092529 31.60625 17.88935059 32.5625 18.4440918 C33.44421875 18.96398682 34.3259375 19.48388184 35.234375 20.01953125 C36.01006836 20.47432861 36.78576172 20.92912598 37.58496094 21.39770508 C38.78040527 22.19084106 38.78040527 22.19084106 40 23 C41.07330566 23.63639404 42.14661133 24.27278809 43.25244141 24.9284668 C45.36142059 26.74180118 45.94508515 27.74846114 46.54516602 30.49714661 C46.76335178 33.72204637 46.77879641 36.89306632 46.7265625 40.125 C46.72805801 41.89447998 46.72805801 41.89447998 46.72958374 43.69970703 C46.72490755 46.19114935 46.70548103 48.68260154 46.67236328 51.17382812 C46.62516666 54.98653679 46.63124408 58.79644836 46.64453125 62.609375 C46.63337738 65.03126667 46.61915741 67.45314656 46.6015625 69.875 C46.60429672 71.58453857 46.60429672 71.58453857 46.60708618 73.32861328 C46.46682806 81.16113678 46.46682806 81.16113678 44.30712891 85.04199219 C41.80125512 87.16867025 39.34905194 88.83786368 36.484375 90.453125 C34.86547363 91.37629517 34.86547363 91.37629517 33.21386719 92.31811523 C32.07079102 92.95563721 30.92771484 93.59315918 29.75 94.25 C28.57151722 94.91469676 27.39345908 95.58014694 26.21582031 96.24633789 C23.88600547 97.56293539 21.55329366 98.87387745 19.21875 100.18212891 C16.43916388 101.75197101 13.68298553 103.35203007 10.9375 104.98046875 C10.21594727 105.40360352 9.49439453 105.82673828 8.75097656 106.26269531 C7.46114683 107.01997456 6.17619488 107.78565482 4.89746094 108.56152344 C1.03057229 110.79587166 -1.57391854 111.36264691 -6 111 C-8.69042969 109.8894043 -8.69042969 109.8894043 -11.421875 108.32421875 C-12.43942871 107.74849121 -13.45698242 107.17276367 -14.50537109 106.57958984 C-15.57609863 105.9552002 -16.64682617 105.33081055 -17.75 104.6875 C-18.8529541 104.05537598 -19.9559082 103.42325195 -21.09228516 102.77197266 C-24.404732 100.8643989 -27.7040796 98.93596302 -31 97 C-31.94907227 96.44618652 -32.89814453 95.89237305 -33.87597656 95.32177734 C-36.38379114 93.85267805 -38.88195747 92.36900388 -41.375 90.875 C-42.11073242 90.43889404 -42.84646484 90.00278809 -43.60449219 89.5534668 C-44.61624512 88.93532104 -44.61624512 88.93532104 -45.6484375 88.3046875 C-46.51734619 87.7785083 -46.51734619 87.7785083 -47.40380859 87.24169922 C-50.18531261 85.07792904 -51.82864076 83.0685622 -52.39440918 79.5405426 C-52.40282837 78.62296677 -52.41124756 77.70539093 -52.41992188 76.76000977 C-52.44378967 75.19302086 -52.44378967 75.19302086 -52.46813965 73.59437561 C-52.46834106 72.47139572 -52.46854248 71.34841583 -52.46875 70.19140625 C-52.47636353 69.03253403 -52.48397705 67.8736618 -52.49182129 66.67967224 C-52.50262447 64.22942255 -52.50547453 61.7791268 -52.50097656 59.32885742 C-52.50000448 55.57978535 -52.54162281 51.83276081 -52.5859375 48.08398438 C-52.5911446 45.70312927 -52.59383269 43.32226705 -52.59375 40.94140625 C-52.61014526 39.82045059 -52.62654053 38.69949493 -52.64343262 37.54457092 C-52.57450129 29.78274709 -52.57450129 29.78274709 -49.75244141 25.93774414 C-44.89577812 22.51860838 -44.89577812 22.51860838 -42.3671875 21.0546875 C-41.48740234 20.53994873 -40.60761719 20.02520996 -39.70117188 19.49487305 C-38.76853516 18.96031494 -37.83589844 18.42575684 -36.875 17.875 C-35.90884766 17.31530518 -34.94269531 16.75561035 -33.94726562 16.17895508 C-31.95031371 15.0222837 -29.95192971 13.86808135 -27.95214844 12.71630859 C-25.12940842 11.07523497 -22.33146169 9.39910069 -19.5390625 7.70703125 C-18.68844238 7.19736816 -17.83782227 6.68770508 -16.96142578 6.16259766 C-15.35780375 5.20156966 -13.75949489 4.23160184 -12.16748047 3.25146484 C-7.99179994 0.77832694 -4.97380485 -0.92931617 0 0 Z " fill="#062B75" transform="translate(201,159)"/>
<path d="M0 0 C10.91088 0.88515417 27.84407111 2.26403463 35.67382812 10.83154297 C38.60900904 15.15981218 40.66479831 19.89292287 42.82080078 24.64111328 C49.56260865 38.12752066 62.05348436 51.74427728 74.09375 60.5625 C76 62 76 62 78.375 64.4375 C90.15651283 75.93850062 105.73832909 83.31867476 120.76953125 89.58984375 C124 91 124 91 127 93 C124.37305665 94.31347168 122.42789254 94.12889062 119.48492432 94.13371277 C117.72683441 94.14011024 117.72683441 94.14011024 115.93322754 94.14663696 C113.99449768 94.14595718 113.99449768 94.14595718 112.01660156 94.14526367 C110.64674793 94.14825467 109.27689513 94.15165706 107.90704346 94.15544128 C104.17960068 94.16429377 100.45218085 94.16661998 96.72472858 94.16725707 C93.61356035 94.16820568 90.50239747 94.17188362 87.3912313 94.17542917 C80.04890405 94.18357926 72.70658906 94.18601298 65.36425781 94.18530273 C57.79236936 94.18470249 50.22055228 94.19524234 42.64868188 94.2110464 C36.14838585 94.22413002 29.64811311 94.22948625 23.14780402 94.22884732 C19.26540353 94.22859248 15.38306638 94.23143576 11.50067902 94.24202538 C7.84650005 94.25171962 4.19244478 94.25177647 0.53826141 94.24450874 C-1.43820292 94.24296735 -3.41466727 94.25130131 -5.39111328 94.25994873 C-6.57445251 94.25575424 -7.75779175 94.25155975 -8.97698975 94.24723816 C-10.51340937 94.24805531 -10.51340937 94.24805531 -12.08086777 94.24888897 C-18.62506002 93.69092272 -24.22720157 91.08968968 -28.640625 86.171875 C-33.830641 79.57098086 -35.69043446 73.73251953 -35.484375 65.3046875 C-34.53820218 58.84934713 -31.24851309 53.54113012 -28 48 C-27.54399414 47.21367187 -27.08798828 46.42734375 -26.61816406 45.6171875 C-23.96696414 41.0573328 -21.28173865 36.51880417 -18.57421875 31.9921875 C-14.754458 25.60427888 -10.99786036 19.18029002 -7.25 12.75 C-6.64148193 11.7079541 -6.03296387 10.6659082 -5.40600586 9.59228516 C-4.84405518 8.6285498 -4.28210449 7.66481445 -3.703125 6.671875 C-3.20458008 5.8169043 -2.70603516 4.96193359 -2.19238281 4.08105469 C-1.42467809 2.74118675 -0.69059636 1.38119271 0 0 Z " fill="#92B1F3" transform="translate(266,435)"/>
<path d="M0 0 C2.19333708 2.82284226 4.07230494 5.70437802 5.86328125 8.796875 C6.4137915 9.7441748 6.96430176 10.69147461 7.53149414 11.66748047 C8.11922607 12.68471191 8.70695801 13.70194336 9.3125 14.75 C10.5675209 16.9141712 11.82273498 19.07823039 13.078125 21.2421875 C14.04588867 22.9123291 14.04588867 22.9123291 15.03320312 24.61621094 C16.96525461 27.94022206 18.90985295 31.25652247 20.859375 34.5703125 C21.48030029 35.62766602 22.10122559 36.68501953 22.7409668 37.77441406 C23.92245011 39.78551688 25.10607816 41.79536183 26.29223633 43.80371094 C37.58142794 63.0630217 37.58142794 63.0630217 36 74 C34.08839345 80.87751182 30.06327339 86.98076213 24.3125 91.25390625 C17.06721471 93.59148985 10.04193956 89.52235438 3.6875 86.375 C2.29047852 85.6934082 2.29047852 85.6934082 0.86523438 84.99804688 C-12.70069038 78.28628424 -25.36423113 69.83043353 -36 59 C-37.21830435 57.94564965 -38.44688986 56.903011 -39.6875 55.875 C-53.73865204 43.58682022 -64.60313393 27.60125383 -73 11 C-73 10.34 -73 9.68 -73 9 C-72.12214844 9.1546875 -71.24429687 9.309375 -70.33984375 9.46875 C-51.31061808 12.13751193 -33.29595337 10.27453703 -15.31054688 3.75610352 C-11.4259622 2.48491176 -7.76828484 1.86833416 -3.6875 1.9375 C-1.8621875 1.9684375 -1.8621875 1.9684375 0 2 C0 1.34 0 0.68 0 0 Z " fill="#D1DBFC" transform="translate(373,435)"/>
<path d="M0 0 C3.00446305 1.47131986 5.90846858 3.09055347 8.8125 4.75 C9.58142578 5.18054688 10.35035156 5.61109375 11.14257812 6.0546875 C12.68637379 6.92494531 14.21745262 7.81815441 15.73486328 8.73364258 C17.95397437 10.05665715 17.95397437 10.05665715 20.33935547 10.8347168 C22.99448883 11.93283477 24.27570121 12.67556518 26 15 C27.01055434 20.7945826 26.75160599 26.45732014 26.5 32.3125 C26.45985202 33.92764688 26.42335348 35.54288887 26.390625 37.15820312 C26.30265046 41.10782023 26.16474097 45.0528698 26 49 C22.53339613 50.96116191 19.06450715 52.918213 15.59350586 54.87158203 C14.41449438 55.53583661 13.23609899 56.20118601 12.05834961 56.86767578 C10.35955935 57.82876727 8.65831789 58.78552197 6.95703125 59.7421875 C5.42526245 60.60626221 5.42526245 60.60626221 3.86254883 61.48779297 C2.91790771 61.98682129 1.9732666 62.48584961 1 63 C0.18853516 63.46535156 -0.62292969 63.93070312 -1.45898438 64.41015625 C-5.21938152 65.28305397 -7.49593728 63.6098621 -10.61328125 61.6953125 C-11.22769577 61.33734589 -11.84211029 60.97937927 -12.47514343 60.61056519 C-14.43143078 59.4655406 -16.37162228 58.29591694 -18.3125 57.125 C-19.63768881 56.34338296 -20.9638514 55.56341439 -22.29101562 54.78515625 C-25.53894449 52.87570133 -28.77267061 50.94405238 -32 49 C-32.3234878 44.30502444 -32.5580634 39.6166106 -32.71411133 34.91308594 C-32.77916664 33.31753592 -32.86766316 31.72275186 -32.98071289 30.12988281 C-33.34695836 24.8334098 -33.40385713 20.15262209 -32 15 C-28.17189449 11.1284328 -23.94799014 9.15721515 -19 7 C-17.59764076 6.17259763 -16.20796651 5.32248038 -14.84375 4.43359375 C-13.7403125 3.77488281 -12.636875 3.11617188 -11.5 2.4375 C-9.81390625 1.41462891 -9.81390625 1.41462891 -8.09375 0.37109375 C-4.51437132 -1.2152218 -3.60724242 -1.38002332 0 0 Z " fill="#FA7C9F" transform="translate(445,329)"/>
<path d="M0 0 C3.4250513 0.88490368 5.93827685 2.14063514 8.97583008 3.9453125 C10.03479492 4.56921875 11.09375977 5.193125 12.18481445 5.8359375 C13.2747168 6.49078125 14.36461914 7.145625 15.48754883 7.8203125 C16.59678711 8.47515625 17.70602539 9.13 18.84887695 9.8046875 C26.97838529 14.62364897 26.97838529 14.62364897 28.17504883 15.8203125 C28.26352626 18.34125326 28.29032184 20.83462143 28.27270508 23.35546875 C28.27129013 24.10871933 28.26987518 24.86196991 28.26841736 25.63804626 C28.26280259 28.0530081 28.25024766 30.46787851 28.23754883 32.8828125 C28.23253573 34.51627471 28.22797249 36.14973836 28.22387695 37.78320312 C28.21282837 41.79560835 28.19555389 45.80794491 28.17504883 49.8203125 C27.68214355 50.09182129 27.18923828 50.36333008 26.68139648 50.64306641 C25.21416236 51.45218525 23.74749511 52.26233248 22.28125 53.07324219 C20.62362471 53.9898863 18.96492658 54.90459296 17.30517578 55.81738281 C12.12168611 58.68364984 7.09230933 61.68086078 2.21801758 65.0546875 C0.17504883 65.8203125 0.17504883 65.8203125 -2.09619141 65.06958008 C-5.0197901 63.73111229 -7.75324355 62.2224361 -10.52807617 60.59765625 C-12.12135742 59.66663086 -12.12135742 59.66663086 -13.74682617 58.71679688 C-14.84510742 58.07033203 -15.94338867 57.42386719 -17.07495117 56.7578125 C-18.18870117 56.10748047 -19.30245117 55.45714844 -20.44995117 54.78710938 C-28.6818409 49.96342277 -28.6818409 49.96342277 -29.82495117 48.8203125 C-31.53452078 38.7207662 -33.4750738 25.67245372 -29.82495117 15.8203125 C-24.41819956 9.03617549 -16.33925477 5.75637121 -8.36865234 2.80883789 C-0.98040356 -0.06236082 -0.98040356 -0.06236082 0 0 Z " fill="#CFDAFB" transform="translate(444.824951171875,186.1796875)"/>
<path d="M0 0 C2.8684082 1.3828125 2.8684082 1.3828125 5.80078125 3.125 C6.85974609 3.74890625 7.91871094 4.3728125 9.00976562 5.015625 C10.09966797 5.67046875 11.18957031 6.3253125 12.3125 7 C13.42173828 7.65484375 14.53097656 8.3096875 15.67382812 8.984375 C23.80333647 13.80333647 23.80333647 13.80333647 25 15 C25.38775295 19.60982868 25.48513636 24.22072138 25.56982422 28.8449707 C25.60640975 30.39823702 25.66091001 31.9511915 25.73388672 33.50317383 C26.32696573 46.30903432 26.32696573 46.30903432 23.27514648 50.19799805 C20.92196205 51.78739139 18.61050262 52.8893652 16 54 C14.45360015 54.91750682 12.91810477 55.85366183 11.39453125 56.80859375 C9.86943738 57.68880564 8.3420902 58.56512503 6.8125 59.4375 C6.04486328 59.89576172 5.27722656 60.35402344 4.48632812 60.82617188 C3.73416016 61.25349609 2.98199219 61.68082031 2.20703125 62.12109375 C1.20893433 62.70008423 1.20893433 62.70008423 0.19067383 63.29077148 C-3.88783642 64.6111852 -7.11513898 63.42657697 -10.8684082 61.6171875 C-12.31993286 60.75480469 -12.31993286 60.75480469 -13.80078125 59.875 C-14.85974609 59.25109375 -15.91871094 58.6271875 -17.00976562 57.984375 C-18.09966797 57.32953125 -19.18957031 56.6746875 -20.3125 56 C-21.42173828 55.34515625 -22.53097656 54.6903125 -23.67382812 54.015625 C-31.80333647 49.19666353 -31.80333647 49.19666353 -33 48 C-34.67544526 37.36556436 -35.84149081 25.49021631 -33 15 C-28.22824125 8.61752099 -20.92567695 5.62346643 -13.5871582 3.01025391 C-10.91911005 2.08135141 -10.91911005 2.08135141 -8.54370117 0.31396484 C-5.17560463 -1.42584661 -3.60485891 -1.04339789 0 0 Z " fill="#AFD752" transform="translate(202,183)"/>
<path d="M0 0 C2.00761457 0.97522546 3.97991824 2.02482507 5.921875 3.125 C7.02917969 3.74890625 8.13648438 4.3728125 9.27734375 5.015625 C10.42332031 5.67046875 11.56929687 6.3253125 12.75 7 C13.92284227 7.66205181 15.09601629 8.32351628 16.26953125 8.984375 C24.83069407 13.83069407 24.83069407 13.83069407 26 15 C26.48480879 19.57163583 26.65636587 24.14120017 26.78955078 28.73510742 C26.84609891 30.27531676 26.9277808 31.8148269 27.03564453 33.35229492 C27.39002126 38.50075554 27.42242922 43.00576578 26 48 C22.16028181 51.82927282 17.92195142 53.83003386 13 56 C11.5992622 56.81806297 10.20999764 57.65680116 8.84375 58.53125 C7.7403125 59.1809375 6.636875 59.830625 5.5 60.5 C4.3759375 61.1703125 3.251875 61.840625 2.09375 62.53125 C-1.17669988 64.08388782 -2.47919141 64.69045797 -6 64 C-8.87666181 62.63588085 -11.55098464 60.99639897 -14.25 59.3125 C-15.69200206 58.43243545 -17.13471317 57.55353169 -18.578125 56.67578125 C-19.29291016 56.23830566 -20.00769531 55.80083008 -20.74414062 55.35009766 C-24.44228161 53.13681631 -28.21766853 51.06516188 -32 49 C-32.3234878 44.30502444 -32.5580634 39.6166106 -32.71411133 34.91308594 C-32.77916664 33.31753592 -32.86766316 31.72275186 -32.98071289 30.12988281 C-33.34695836 24.8334098 -33.40385713 20.15262209 -32 15 C-28.17189449 11.1284328 -23.94799014 9.15721515 -19 7 C-17.59764076 6.17259763 -16.20796651 5.32248038 -14.84375 4.43359375 C-13.7403125 3.77488281 -12.636875 3.11617188 -11.5 2.4375 C-9.81390625 1.41462891 -9.81390625 1.41462891 -8.09375 0.37109375 C-4.52201844 -1.21183273 -3.65515526 -1.06647589 0 0 Z " fill="#FAC950" transform="translate(199,325)"/>
<path d="M0 0 C1.21429688 0.75216797 1.21429688 0.75216797 2.453125 1.51953125 C3.86464844 2.36644531 3.86464844 2.36644531 5.3046875 3.23046875 C6.42617188 3.92398438 7.54765625 4.6175 8.703125 5.33203125 C10.18768248 6.20335799 11.67483086 7.07028018 13.1640625 7.93359375 C16.205631 9.69977872 19.24480559 11.46951357 22.2734375 13.2578125 C22.91039551 13.63333252 23.54735352 14.00885254 24.20361328 14.39575195 C25.703125 15.33203125 25.703125 15.33203125 26.703125 16.33203125 C26.79160243 18.85297201 26.81839801 21.34634018 26.80078125 23.8671875 C26.7993663 24.62043808 26.79795135 25.37368866 26.79649353 26.14976501 C26.79087876 28.56472685 26.77832383 30.97959726 26.765625 33.39453125 C26.7606119 35.02799346 26.75604866 36.66145711 26.75195312 38.29492188 C26.74090454 42.3073271 26.72363006 46.31966366 26.703125 50.33203125 C25.9510376 50.750896 25.1989502 51.16976074 24.42407227 51.60131836 C21.6409338 53.15238871 18.85863568 54.70495269 16.0769043 56.25854492 C14.87151163 56.93134867 13.66578335 57.60355149 12.4597168 58.27514648 C10.72877839 59.23915041 8.99913457 60.20547773 7.26953125 61.171875 C6.22740479 61.75316162 5.18527832 62.33444824 4.11157227 62.93334961 C1.82753097 64.1221699 1.82753097 64.1221699 0.703125 65.33203125 C-9.61326589 64.84008554 -20.2271414 59.90166259 -28.05419922 53.34765625 C-35.35144448 43.53537958 -31.74907095 26.73549301 -30.296875 15.33203125 C-29.6263208 14.95393311 -28.9557666 14.57583496 -28.26489258 14.1862793 C-25.21265826 12.46472941 -22.16101146 10.74214067 -19.109375 9.01953125 C-18.05427734 8.42462891 -16.99917969 7.82972656 -15.91210938 7.21679688 C-14.89052734 6.63994141 -13.86894531 6.06308594 -12.81640625 5.46875 C-11.87901611 4.93983154 -10.94162598 4.41091309 -9.97583008 3.8659668 C-8.1542886 2.82297535 -6.36075394 1.72983426 -4.59545898 0.59423828 C-2.296875 -0.66796875 -2.296875 -0.66796875 0 0 Z " fill="#FB8E01" transform="translate(324.296875,112.66796875)"/>
<path d="M0 0 C24.09 0 48.18 0 73 0 C73 6.27 73 12.54 73 19 C48.91 19 24.82 19 0 19 C0 12.73 0 6.46 0 0 Z " fill="#92B1F3" transform="translate(284,278)"/>
<path d="M0 0 C0.33 0 0.66 0 1 0 C1 14.52 1 29.04 1 44 C2.65 44.66 4.3 45.32 6 46 C8.23251866 47.24922386 10.42658001 48.5195708 12.61328125 49.84375 C13.53490303 50.39838928 13.53490303 50.39838928 14.47514343 50.9642334 C15.764654 51.74224355 17.05295115 52.52226808 18.34008789 53.30419922 C20.31894644 54.50390824 22.3047083 55.69158106 24.29101562 56.87890625 C25.54470847 57.63729784 26.7979792 58.39638777 28.05078125 59.15625 C28.6475618 59.51150757 29.24434235 59.86676514 29.85920715 60.23278809 C31.27455278 61.10040282 32.64311149 62.04354188 34 63 C34 63.66 34 64.32 34 65 C32.28515625 66.21875 32.28515625 66.21875 30.0625 67.5 C26.94567974 69.18454879 26.94567974 69.18454879 25 72 C24.77532169 73.53668865 24.59203195 75.07968054 24.4375 76.625 C24.29166667 78.08333333 24.14583333 79.54166667 24 81 C15.99552924 77.20155595 8.44272487 72.78533284 0.875 68.1875 C-0.28364433 67.48728287 -1.44249734 66.78741094 -2.6015625 66.08789062 C-5.4031027 64.39529342 -8.20250799 62.69927658 -11 61 C-10.195625 60.4121875 -10.195625 60.4121875 -9.375 59.8125 C-8.59125 59.214375 -7.8075 58.61625 -7 58 C-5.94409668 57.36231689 -4.88819336 56.72463379 -3.80029297 56.06762695 C-1.66857955 54.26118324 -1.0596205 53.26560616 -0.44049072 50.50741577 C-0.20748907 47.29766306 -0.16949374 44.13612075 -0.1953125 40.91796875 C-0.18160614 39.74865311 -0.16789978 38.57933746 -0.15377808 37.37458801 C-0.11643109 33.64516898 -0.12019663 29.91707974 -0.125 26.1875 C-0.10687676 23.65688018 -0.08607526 21.12627802 -0.0625 18.59570312 C-0.01060462 12.39700492 0.00755386 6.19889545 0 0 Z " fill="#6766F0" transform="translate(371,120)"/>
<path d="M0 0 C0.01417969 0.66386719 0.02835937 1.32773438 0.04296875 2.01171875 C0.34766167 7.92307483 0.34766167 7.92307483 3.3125 12.9375 C5.53100894 14.64007663 7.76112682 16.3244254 10 18 C9.24662354 18.39155273 9.24662354 18.39155273 8.47802734 18.79101562 C-1.27231424 23.8673275 -10.94311243 29.01191936 -20.41015625 34.6015625 C-23 36 -23 36 -25 36 C-25 49.2 -25 62.4 -25 76 C-25.33 76 -25.66 76 -26 76 C-26.00142502 75.36995056 -26.00285004 74.73990112 -26.00431824 74.09075928 C-26.02399507 67.53678781 -26.07822546 60.98375023 -26.15258789 54.43017578 C-26.17579405 51.98395486 -26.1901697 49.53763365 -26.19555664 47.09130859 C-26.20482659 43.57585969 -26.24577761 40.06199394 -26.29296875 36.546875 C-26.2890361 35.4519574 -26.28510345 34.35703979 -26.28105164 33.22894287 C-26.25004 27.2306295 -26.25004 27.2306295 -29.3996582 22.38769531 C-30.257771 21.92975586 -31.11588379 21.47181641 -32 21 C-33.1446875 20.13375 -33.1446875 20.13375 -34.3125 19.25 C-34.869375 18.8375 -35.42625 18.425 -36 18 C-35.05382812 17.53851563 -34.10765625 17.07703125 -33.1328125 16.6015625 C-24.52727611 12.36810507 -16.09231654 7.91289497 -7.76611328 3.15087891 C-6.67919189 2.5347876 -6.67919189 2.5347876 -5.5703125 1.90625 C-4.92852051 1.53822266 -4.28672852 1.17019531 -3.62548828 0.79101562 C-2 0 -2 0 0 0 Z " fill="#6A68F3" transform="translate(273,162)"/>
<path d="M0 0 C3.96 1.98 3.96 1.98 8 4 C12.88237272 4.58588473 15.06300953 3.64566349 20 2 C20 14.87 20 27.74 20 41 C17.36 39.68 14.72 38.36 12 37 C6.60269069 36.2443767 5.2927611 37.35361945 0 40 C0 26.8 0 13.6 0 0 Z " fill="#6763F6" transform="translate(187,265)"/>
<path d="M0 0 C3.96 1.98 3.96 1.98 8 4 C10.57571341 4.31485016 10.57571341 4.31485016 12.8125 3.8125 C13.54082031 3.69519531 14.26914062 3.57789063 15.01953125 3.45703125 C17.19217976 2.9886118 17.19217976 2.9886118 20 2 C20 14.87 20 27.74 20 41 C17.36 39.68 14.72 38.36 12 37 C6.60269069 36.2443767 5.2927611 37.35361945 0 40 C0 26.8 0 13.6 0 0 Z " fill="#6763F6" transform="translate(433,269)"/>
<path d="M0 0 C0.33 0 0.66 0 1 0 C1.15855469 0.81339844 1.31710937 1.62679688 1.48046875 2.46484375 C3.81440357 13.92820319 6.37683578 25.73876818 11.375 36.375 C13 40 13 40 12 43 C11.38068604 42.79318604 10.76137207 42.58637207 10.12329102 42.37329102 C7.27265689 41.42715362 4.41769725 40.49477207 1.5625 39.5625 C0.58861328 39.23701172 -0.38527344 38.91152344 -1.38867188 38.57617188 C-7.31401973 36.65390184 -12.78407871 35.45639133 -19 35 C-17.76091793 30.94767703 -16.28411344 27.47613855 -14.1015625 23.84765625 C-13.53953125 22.90599609 -12.9775 21.96433594 -12.3984375 20.99414062 C-11.81320312 20.02669922 -11.22796875 19.05925781 -10.625 18.0625 C-9.4709607 16.13695451 -8.31730611 14.2111784 -7.1640625 12.28515625 C-6.62040039 11.38039551 -6.07673828 10.47563477 -5.51660156 9.54345703 C-3.63389842 6.3860196 -1.80750349 3.20097292 0 0 Z " fill="#D0DAFB" transform="translate(286,401)"/>
<path d="M0 0 C8.49034505 4.77194576 16.84120345 9.67180634 25 15 C23.73252511 17.25195063 22.46117132 19.50155747 21.1875 21.75 C20.83107422 22.38421875 20.47464844 23.0184375 20.10742188 23.671875 C19.75615234 24.290625 19.40488281 24.909375 19.04296875 25.546875 C18.72352295 26.11245117 18.40407715 26.67802734 18.07495117 27.26074219 C16.84142523 29.25657203 15.40775434 31.12299421 14 33 C5.75 28.05 -2.5 23.1 -11 18 C-6 14 -6 14 -3.765625 12.60546875 C-1.31698257 10.37893769 -1.20640166 8.54534513 -0.75 5.3125 C-0.60046875 4.31863281 -0.4509375 3.32476562 -0.296875 2.30078125 C-0.19890625 1.54152344 -0.1009375 0.78226562 0 0 Z " fill="#6865F6" transform="translate(245,374)"/>
<path d="M0 0 C0.33 0 0.66 0 1 0 C0.99920441 0.6403569 0.99840881 1.28071381 0.99758911 1.94047546 C0.99515053 8.60818695 1.03433723 15.2747341 1.09765625 21.94213867 C1.11581966 24.43003936 1.12338416 26.91804101 1.12011719 29.40600586 C1.11726131 32.98370525 1.15256782 36.55930938 1.1953125 40.13671875 C1.18621857 41.24834885 1.17712463 42.35997894 1.16775513 43.5052948 C1.11587781 48.97063403 1.11587781 48.97063403 3.31878662 53.77432251 C5.08897824 55.31950114 5.08897824 55.31950114 8 57 C8.66 57.66 9.32 58.32 10 59 C3.07 62.96 -3.86 66.92 -11 71 C-14.18238741 67.02201574 -16.41434055 63.63423626 -18.75 59.1875 C-19.36359375 58.02605469 -19.9771875 56.86460937 -20.609375 55.66796875 C-21.06828125 54.78753906 -21.5271875 53.90710938 -22 53 C-17.25203782 49.98687015 -12.46248895 47.05502357 -7.625 44.1875 C-6.60664063 43.58292969 -5.58828125 42.97835937 -4.5390625 42.35546875 C-2 41 -2 41 0 41 C0 27.47 0 13.94 0 0 Z " fill="#6B69F0" transform="translate(392,336)"/>
<path d="M0 0 C2.8100346 1.79363911 4.50940468 3.01880935 6 6 C6.37712577 10.99691647 6.09290612 13.99067725 3 18 C-0.66523155 20.4434877 -3.73970357 20.84707648 -8 20 C-10.9375 17.5625 -10.9375 17.5625 -13 15 C-13.33 14.67 -13.66 14.34 -14 14 C-14.58968059 6.92383292 -14.58968059 6.92383292 -12.125 3.0625 C-8.49059499 -0.46501074 -4.90782663 -0.7051475 0 0 Z " fill="#6966F6" transform="translate(284,467)"/>
<path d="M0 0 C3.34139976 0.02999461 4.22721051 0.29795352 7.1875 2.1875 C10.32180405 5.41678296 10.63788997 7.7618388 10.61328125 12.2734375 C10.00965397 15.661539 7.8344052 17.23236899 5.25 19.3125 C4.92 19.6425 4.59 19.9725 4.25 20.3125 C1.31771337 20.60572866 -0.89491883 20.81254247 -3.75 20.3125 C-6.6875 17.875 -6.6875 17.875 -8.75 15.3125 C-9.08 14.9825 -9.41 14.6525 -9.75 14.3125 C-10.04322866 11.38021337 -10.25004247 9.16758117 -9.75 6.3125 C-7.3125 3.375 -7.3125 3.375 -4.75 1.3125 C-3.75 0.3125 -3.75 0.3125 0 0 Z " fill="#6966F6" transform="translate(332.75,492.6875)"/>
<path d="M0 0 C3.0625 1.9375 3.0625 1.9375 5 5 C5.69005003 8.15369971 5.73568899 10.8519355 5 14 C2.5625 17 2.5625 17 0 19 C-0.33 19.33 -0.66 19.66 -1 20 C-5.43946252 20.52228971 -7.51823656 20.29441099 -11.375 17.9375 C-14.51996441 14.41813506 -15.0822804 12.68998307 -15 8 C-12.11715652 0.36046479 -7.6980495 -1.2672796 0 0 Z " fill="#6A67F7" transform="translate(370,467)"/>
</svg>
