<?xml version="1.0" encoding="UTF-8"?>
<svg version="1.1" xmlns="http://www.w3.org/2000/svg" width="640" height="640">
<path d="M0 0 C211.2 0 422.4 0 640 0 C640 211.2 640 422.4 640 640 C428.8 640 217.6 640 0 640 C0 428.8 0 217.6 0 0 Z " fill="#FEFEFE" transform="translate(0,0)"/>
<path d="M0 0 C0.90137695 0.51651123 1.80275391 1.03302246 2.73144531 1.56518555 C3.74899902 2.14091309 4.76655273 2.71664062 5.81494141 3.30981445 C6.88566895 3.9342041 7.95639648 4.55859375 9.05957031 5.2019043 C10.16252441 5.83402832 11.26547852 6.46615234 12.40185547 7.11743164 C15.71430232 9.02500539 19.01364992 10.95344128 22.30957031 12.8894043 C23.25864258 13.44321777 24.20771484 13.99703125 25.18554688 14.56762695 C27.69336145 16.03672625 30.19152778 17.52040042 32.68457031 19.0144043 C33.42030273 19.45051025 34.15603516 19.88661621 34.9140625 20.3359375 C35.58856445 20.74803467 36.26306641 21.16013184 36.95800781 21.5847168 C37.53728027 21.93550293 38.11655273 22.28628906 38.71337891 22.64770508 C41.49560764 24.81203902 43.14060818 26.81750196 43.69725037 30.34886169 C43.70535484 31.72522545 43.70535484 31.72522545 43.71362305 33.12939453 C43.73264931 34.69638344 43.73264931 34.69638344 43.75205994 36.29502869 C43.74765648 37.97949852 43.74765648 37.97949852 43.74316406 39.69799805 C43.74840591 40.85687027 43.75364777 42.01574249 43.75904846 43.20973206 C43.76547062 45.65999551 43.76412921 48.11028979 43.75561523 50.56054688 C43.74711003 54.3093967 43.77585898 58.05672083 43.80761719 61.80541992 C43.80922939 64.18627884 43.80865131 66.56714046 43.80566406 68.94799805 C43.81689804 70.0689537 43.82813202 71.18990936 43.83970642 72.34483337 C43.76995773 80.13545872 43.76995773 80.13545872 41.40356445 84.01074219 C40.71254639 84.63070068 40.02152832 85.25065918 39.30957031 85.8894043 C38.64957031 86.5494043 37.98957031 87.2094043 37.30957031 87.8894043 C42.69368154 94.61304078 48.23572917 101.08813308 54.06738281 107.4284668 C56.57538082 110.18114754 58.96480722 112.99752982 61.30957031 115.8894043 C66.76735644 114.3110491 71.27048045 111.66968551 76.01074219 108.63549805 C80.36033697 106.00551051 83.27740028 105.10461909 88.30957031 105.8894043 C91.93147849 107.40562225 95.2869267 109.30358694 98.68457031 111.2644043 C99.64685547 111.80516602 100.60914063 112.34592773 101.60058594 112.90307617 C104.5139566 114.547752 107.413437 116.21459232 110.30957031 117.8894043 C111.16196289 118.37957031 112.01435547 118.86973633 112.89257812 119.37475586 C117.72911652 122.16214468 122.55045552 124.9714855 127.30957031 127.8894043 C128.41300781 128.5597168 129.51644531 129.2300293 130.65332031 129.9206543 C133.39292719 131.95118645 134.11705264 132.8008218 135.30957031 135.8894043 C135.57026672 138.34886169 135.57026672 138.34886169 135.58422852 141.12939453 C135.59376053 142.1740538 135.60329254 143.21871307 135.6131134 144.29502869 C135.61174629 145.97949852 135.61174629 145.97949852 135.61035156 147.69799805 C135.61463669 148.85687027 135.61892181 150.01574249 135.62333679 151.20973206 C135.62907859 153.65999702 135.62958147 156.11027902 135.62524414 158.56054688 C135.62208529 162.30913375 135.64554253 166.05693068 135.67089844 169.80541992 C135.67317154 172.1862783 135.67387488 174.5671388 135.67285156 176.94799805 C135.68206131 178.0689537 135.69127106 179.18990936 135.70075989 180.34483337 C135.6914167 181.91655052 135.6914167 181.91655052 135.68188477 183.52001953 C135.68251419 184.43839096 135.68314362 185.35676239 135.68379211 186.30296326 C135.22852209 189.44957062 134.15157984 191.317849 132.30957031 193.8894043 C129.85205078 195.67529297 129.85205078 195.67529297 126.92675781 197.30737305 C125.84982666 197.91766357 124.77289551 198.5279541 123.66333008 199.15673828 C121.94134399 200.10722046 121.94134399 200.10722046 120.18457031 201.0769043 C118.40631413 202.07061316 116.62986738 203.06749494 114.85371399 204.06495667 C113.67199565 204.72841011 112.48944972 205.39039167 111.30607605 206.05088806 C107.87385209 207.9748724 104.51341186 209.97679386 101.19628906 212.0925293 C100.45330566 212.56021729 99.71032227 213.02790527 98.94482422 213.50976562 C97.61845116 214.352614 96.30295021 215.21298146 95.00244141 216.09521484 C88.91013576 219.90393083 86.6151912 218.8894043 78.30957031 218.8894043 C74.34957031 230.1094043 70.38957031 241.3294043 66.30957031 252.8894043 C68.74327372 255.32310771 70.3197458 256.61415606 73.21582031 258.22924805 C73.95960938 258.65270508 74.70339844 259.07616211 75.46972656 259.51245117 C77.02795721 260.38781781 78.58785517 261.26022316 80.14941406 262.12963867 C80.89320313 262.55438477 81.63699219 262.97913086 82.40332031 263.41674805 C83.08072266 263.79565186 83.758125 264.17455566 84.45605469 264.56494141 C86.66789941 266.14545479 87.86054598 267.58321197 89.30957031 269.8894043 C89.70397949 272.34886169 89.70397949 272.34886169 89.72949219 275.12939453 C89.74540405 276.1740538 89.76131592 277.21871307 89.77770996 278.29502869 C89.77801208 279.97949852 89.77801208 279.97949852 89.77832031 281.69799805 C89.7897406 283.43630638 89.7897406 283.43630638 89.8013916 285.20973206 C89.81219478 287.65998175 89.81504485 290.1102775 89.81054688 292.56054688 C89.80957479 296.30961895 89.85119312 300.05664349 89.89550781 303.80541992 C89.90071491 306.18627503 89.903403 308.56713725 89.90332031 310.94799805 C89.91971558 312.0689537 89.93611084 313.18990936 89.95300293 314.34483337 C89.88419389 322.09288811 89.88419389 322.09288811 87.12329102 325.91992188 C84.35822152 327.85535056 81.63308815 329.67758009 78.69628906 331.3425293 C77.62008301 331.95797607 76.54387695 332.57342285 75.43505859 333.20751953 C74.30052246 333.8450415 73.16598633 334.48256348 71.99707031 335.1394043 C70.82470124 335.80426639 69.6526651 336.46971588 68.48095703 337.13574219 C66.16322813 338.45177861 63.84289075 339.76281699 61.52099609 341.0715332 C58.72912923 342.65190728 55.95134107 344.25275729 53.18066406 345.86987305 C51.76534607 346.68896397 50.34998573 347.50798173 48.93457031 348.3269043 C48.30639404 348.69783203 47.67821777 349.06875977 47.03100586 349.45092773 C43.73782848 351.33274338 42.22813781 351.8894043 38.30957031 351.8894043 C38.80328125 353.00959961 39.29699219 354.12979492 39.80566406 355.28393555 C40.45286899 356.75656125 41.10000058 358.22921918 41.74707031 359.7019043 C42.23530273 360.80888672 42.23530273 360.80888672 42.73339844 361.93823242 C43.04599609 362.65043945 43.35859375 363.36264648 43.68066406 364.09643555 C43.96868896 364.7510376 44.25671387 365.40563965 44.5534668 366.08007812 C48.50804702 375.54323409 47.33788797 388.76349958 43.63378906 398.1472168 C36.83850664 412.21886358 27.75455712 420.12443775 13.30957031 425.8894043 C-6.67342977 429.72807061 -28.70640584 425.15795451 -48.6557312 422.82516479 C-63.06991098 421.14317338 -77.5010595 419.65035904 -91.94042969 418.2019043 C-93.01233551 418.09349213 -94.08424133 417.98507996 -95.18862915 417.87338257 C-105.99786171 416.78205734 -116.78945018 415.71445008 -127.63989258 415.13671875 C-140.5390126 414.09095576 -152.09161499 408.63516771 -160.94433594 399.11987305 C-170.63638585 386.73920078 -173.3278834 373.22407389 -171.69042969 357.8894043 C-169.67646573 348.78927085 -163.83729227 341.22433818 -158.50683594 333.7487793 C-157.82729858 332.78645386 -157.82729858 332.78645386 -157.1340332 331.8046875 C-155.69042969 329.8894043 -155.69042969 329.8894043 -154.02612305 328.08935547 C-148.70289324 322.08169913 -148.95811592 316.47414976 -149.12792969 308.7019043 C-149.3434893 296.92451078 -149.3434893 296.92451078 -147.55029297 294.08227539 C-146.16308594 292.77612305 -146.16308594 292.77612305 -143.69042969 290.8894043 C-143.69042969 287.47334296 -144.01065347 287.15896381 -146.18261719 284.73706055 C-146.71862549 284.13063721 -147.25463379 283.52421387 -147.80688477 282.89941406 C-148.38720459 282.25673584 -148.96752441 281.61405762 -149.56542969 280.9519043 C-150.75521851 279.6090279 -151.94400753 278.26526507 -153.13183594 276.9206543 C-153.72883301 276.24776367 -154.32583008 275.57487305 -154.94091797 274.8815918 C-157.51574827 271.9496053 -160.01547602 268.95807521 -162.50292969 265.9519043 C-163.71916016 264.48430664 -163.71916016 264.48430664 -164.95996094 262.98706055 C-165.53101563 262.29483398 -166.10207031 261.60260742 -166.69042969 260.8894043 C-172.39543621 261.49749608 -176.72900715 264.72048235 -181.45605469 267.73901367 C-186.54844265 270.78954992 -190.77170499 272.03755836 -196.69042969 270.8894043 C-199.96579938 269.65746671 -202.87975281 267.99556544 -205.87792969 266.2019043 C-206.72291016 265.71512207 -207.56789062 265.22833984 -208.43847656 264.72680664 C-210.24674859 263.68079998 -212.04985516 262.62582128 -213.84814453 261.56274414 C-216.79689139 259.82672705 -219.76648433 258.1312483 -222.74121094 256.44018555 C-224.72513206 255.29973272 -226.70822522 254.1578382 -228.69042969 253.0144043 C-229.62781982 252.47984619 -230.56520996 251.94528809 -231.53100586 251.39453125 C-232.40861572 250.87979248 -233.28622559 250.36505371 -234.19042969 249.8347168 C-235.35058594 249.16206787 -235.35058594 249.16206787 -236.53417969 248.47583008 C-239.38532223 246.37814844 -240.90930626 245.01431288 -242.69042969 241.8894043 C-243.28502657 237.84817031 -243.25065633 233.8430463 -243.22167969 229.7644043 C-243.22550659 228.58475098 -243.2293335 227.40509766 -243.23327637 226.18969727 C-243.2359955 223.69831488 -243.22863438 221.20690394 -243.21191406 218.71557617 C-243.19050648 214.90307947 -243.21171785 211.09246741 -243.23730469 207.2800293 C-243.23466141 204.85815014 -243.22953645 202.43627215 -243.22167969 200.0144043 C-243.22977661 198.87471191 -243.23787354 197.73501953 -243.24621582 196.56079102 C-243.15338893 188.72299834 -243.15338893 188.72299834 -240.99975586 184.84521484 C-238.5028697 182.73055631 -236.06535565 181.07320727 -233.20996094 179.47143555 C-232.13601074 178.86106445 -231.06206055 178.25069336 -229.95556641 177.62182617 C-228.81619629 176.98825195 -227.67682617 176.35467773 -226.50292969 175.7019043 C-224.73475197 174.70889461 -222.96807189 173.7132659 -221.20172119 172.7170105 C-220.02672666 172.0543113 -218.85106833 171.39278764 -217.67474365 170.73245239 C-214.22067487 168.78556368 -210.82916387 166.76598602 -207.47558594 164.65112305 C-206.71850342 164.17892334 -205.9614209 163.70672363 -205.18139648 163.22021484 C-203.81681115 162.36197616 -202.46184636 161.48815125 -201.11938477 160.59570312 C-196.10225778 157.4820139 -193.2387207 157.60814946 -187.69042969 158.8894043 C-186.34208626 159.52516544 -185.00422979 160.18502407 -183.69042969 160.8894043 C-183.46613281 159.72538086 -183.24183594 158.56135742 -183.01074219 157.36206055 C-181.4163676 150.18737491 -178.92562977 143.27692979 -176.56542969 136.3269043 C-176.09235217 134.92274928 -175.61969256 133.5184534 -175.14746094 132.11401367 C-173.99992963 128.70417333 -172.84675817 125.29627292 -171.69042969 121.8894043 C-172.82242798 121.44914917 -172.82242798 121.44914917 -173.97729492 121 C-177.38082189 119.60679887 -180.55414199 117.87813046 -183.75292969 116.0769043 C-184.36458984 115.74625977 -184.97625 115.41561523 -185.60644531 115.07495117 C-189.63841195 112.80397321 -192.33114513 110.87545615 -194.69042969 106.8894043 C-195.29953596 103.00760528 -195.27464122 99.16009655 -195.25683594 95.23706055 C-195.26303452 94.10417099 -195.26923309 92.97128143 -195.27561951 91.80406189 C-195.28271536 89.41104999 -195.27954785 87.01798871 -195.2668457 84.625 C-195.25299092 80.96806729 -195.28704555 77.31369868 -195.32519531 73.65698242 C-195.32614663 71.32950784 -195.32428701 69.00203006 -195.31933594 66.67456055 C-195.33259415 65.58377701 -195.34585236 64.49299347 -195.35951233 63.36915588 C-195.25594064 54.90295072 -195.25594064 54.90295072 -192.53808594 51.39282227 C-189.63747276 48.84284906 -186.8742032 46.92347499 -183.49902344 45.04956055 C-182.913069 44.71951523 -182.32711456 44.38946991 -181.72340393 44.04942322 C-179.86437772 43.00545666 -177.99669859 41.97830871 -176.12792969 40.9519043 C-174.29370002 39.92927208 -172.46139515 38.90325626 -170.62930298 37.87680054 C-169.41968784 37.20155647 -168.20791167 36.53016884 -166.99398804 35.86270142 C-164.07253312 34.25222878 -161.22413301 32.59758035 -158.39404297 30.82641602 C-148.66257234 24.74520304 -148.66257234 24.74520304 -143.79150391 25.24975586 C-138.73123299 26.79029848 -134.27453299 29.57850789 -129.75292969 32.2644043 C-128.6556958 32.90055664 -127.55846191 33.53670898 -126.42797852 34.19213867 C-124.21552227 35.47719771 -122.00703541 36.76911703 -119.80273438 38.06811523 C-117.02573528 39.69318687 -114.23082623 41.27462516 -111.41699219 42.8347168 C-109.90372491 43.68584128 -108.39068548 44.53737106 -106.87792969 45.3894043 C-106.19802979 45.7611377 -105.51812988 46.13287109 -104.81762695 46.51586914 C-100.50698963 48.99827246 -98.05436499 51.51523972 -95.69042969 55.8894043 C-95.44042969 58.7644043 -95.44042969 58.7644043 -95.69042969 60.8894043 C-94.47871094 60.61354492 -93.26699219 60.33768555 -92.01855469 60.0534668 C-85.84677384 58.68330245 -79.6462851 57.46915275 -73.44042969 56.2644043 C-72.28285156 56.03495117 -71.12527344 55.80549805 -69.93261719 55.5690918 C-68.81628906 55.3525293 -67.69996094 55.1359668 -66.54980469 54.9128418 C-65.54401367 54.71609863 -64.53822266 54.51935547 -63.50195312 54.31665039 C-60.84517604 53.91291994 -58.37212473 53.80901481 -55.69042969 53.8894043 C-55.71399536 52.83813354 -55.71399536 52.83813354 -55.73803711 51.765625 C-55.80055381 48.57780079 -55.83947349 45.39010578 -55.87792969 42.2019043 C-55.90306641 41.09911133 -55.92820312 39.99631836 -55.95410156 38.86010742 C-55.96860352 37.26005859 -55.96860352 37.26005859 -55.98339844 35.62768555 C-56.00696411 34.15875854 -56.00696411 34.15875854 -56.03100586 32.66015625 C-55.53100986 28.59244683 -54.00058262 26.0037078 -50.88574219 23.35449219 C-49.8609375 22.70855103 -49.8609375 22.70855103 -48.81542969 22.04956055 C-48.01878906 21.54569824 -47.22214844 21.04183594 -46.40136719 20.52270508 C-41.20210637 17.39022535 -35.96002859 14.33939863 -30.69042969 11.3269043 C-29.56636719 10.68043945 -28.44230469 10.03397461 -27.28417969 9.36791992 C-25.09346338 8.11004952 -22.8995547 6.85771897 -20.70214844 5.61157227 C-18.81701616 4.53361158 -16.94253762 3.43654836 -15.08496094 2.31176758 C-14.31539062 1.85398926 -13.54582031 1.39621094 -12.75292969 0.92456055 C-12.10453125 0.52760986 -11.45613281 0.13065918 -10.78808594 -0.27832031 C-6.93376181 -1.80757904 -3.79865528 -1.5680656 0 0 Z " fill="#072C76" transform="translate(372.6904296875,99.110595703125)"/>
<path d="M0 0 C1.25938385 0.12843292 2.5187677 0.25686584 3.8163147 0.38919067 C6.46382404 0.66040895 9.11097514 0.93385091 11.7578125 1.21142578 C15.10728077 1.56258053 18.45748379 1.90599024 21.8080349 2.24664116 C25.05985714 2.57786252 28.31116884 2.91399736 31.5625 3.25 C33.33347549 3.43138016 33.33347549 3.43138016 35.14022827 3.61642456 C41.10117405 4.24296524 47.05193914 4.93366532 52.99462891 5.71533203 C54.11608307 5.86197296 55.23753723 6.00861389 56.39297485 6.15969849 C63.19110685 7.50559059 67.52440155 11.11231133 71.38647461 16.71264648 C73.25825051 20.43796525 73.06451535 24.1053706 72.9140625 28.1953125 C72.89633789 29.06623535 72.87861328 29.9371582 72.86035156 30.83447266 C72.48245534 42.47495011 71.81341473 54.52686427 63.0390625 63.0703125 C60.08846202 64.96712709 57.85073962 65.27970728 54.4140625 65.7578125 C54.36580322 66.68513184 54.31754395 67.61245117 54.26782227 68.56787109 C53.64471751 79.55102274 52.56165697 90.45052799 51.3515625 101.3828125 C51.07086008 103.92388264 50.7913221 106.46505009 50.51576233 109.00668335 C50.34629961 110.56969825 50.17399187 112.13240842 49.99827576 113.69473267 C48.99776481 122.4099955 48.99776481 122.4099955 51.4140625 130.6328125 C51.7853125 131.41398438 52.1565625 132.19515625 52.5390625 133 C52.9721875 133.87011719 52.9721875 133.87011719 53.4140625 134.7578125 C57.17240722 134.06399901 60.10884552 132.40858012 63.4296875 130.5546875 C64.00434753 130.23502014 64.57900757 129.91535278 65.17108154 129.58599854 C66.38595581 128.90898302 67.59957537 128.22971169 68.81201172 127.54833984 C70.64137695 126.52055779 72.474574 125.49991714 74.30859375 124.48046875 C82.59439159 119.86305091 82.59439159 119.86305091 90.46386719 114.57910156 C93.56278548 113.27404884 96.08903493 113.46513746 99.4140625 113.7578125 C102.52514648 115.06787109 102.52514648 115.06787109 105.66015625 116.90625 C106.51367928 117.39882545 106.51367928 117.39882545 107.38444519 117.90135193 C109.21595284 118.96369156 111.03371431 120.04729368 112.8515625 121.1328125 C114.10733097 121.86907144 115.36368175 122.60433806 116.62060547 123.33862305 C120.23200604 125.45604774 123.82436998 127.60378982 127.4140625 129.7578125 C128.34911621 130.31581543 129.28416992 130.87381836 130.24755859 131.44873047 C132.51930905 132.81017747 134.78243306 134.18397806 137.0390625 135.5703125 C137.99510376 136.15401611 137.99510376 136.15401611 138.97045898 136.74951172 C141.87393429 138.57661059 143.47645084 139.85139501 145.4140625 142.7578125 C145.68821716 145.09701538 145.68821716 145.09701538 145.72045898 147.88427734 C145.73644638 148.92901215 145.75243378 149.97374695 145.76890564 151.05014038 C145.77694969 152.74235214 145.77694969 152.74235214 145.78515625 154.46875 C145.79418472 155.62903717 145.8032132 156.78932434 145.81251526 157.98477173 C145.82703257 160.44099338 145.83590815 162.89725384 145.83959961 165.35351562 C145.85149453 169.11134007 145.90066814 172.86752231 145.95117188 176.625 C145.96063595 179.01040864 145.96787106 181.39582738 145.97265625 183.78125 C145.99218857 184.90534271 146.01172089 186.02943542 146.03184509 187.18759155 C145.98688647 194.96241574 145.98688647 194.96241574 143.22998047 198.79052734 C140.46348179 200.72328669 137.73727601 202.54616082 134.80078125 204.2109375 C133.18647217 205.13410767 133.18647217 205.13410767 131.53955078 206.07592773 C130.40501465 206.71344971 129.27047852 207.35097168 128.1015625 208.0078125 C126.92919343 208.67267459 125.75715729 209.33812408 124.58544922 210.00415039 C122.26772032 211.32018681 119.94738294 212.63122519 117.62548828 213.93994141 C114.83362142 215.52031549 112.05583326 217.12116549 109.28515625 218.73828125 C107.86983825 219.55737217 106.45447792 220.37638993 105.0390625 221.1953125 C104.41088623 221.56624023 103.78270996 221.93716797 103.13549805 222.31933594 C99.84232067 224.20115158 98.33262999 224.7578125 94.4140625 224.7578125 C94.90777344 225.87800781 95.40148437 226.99820313 95.91015625 228.15234375 C96.55736118 229.62496945 97.20449277 231.09762739 97.8515625 232.5703125 C98.17705078 233.30830078 98.50253906 234.04628906 98.83789062 234.80664062 C99.15048828 235.51884766 99.46308594 236.23105469 99.78515625 236.96484375 C100.07318115 237.6194458 100.36120605 238.27404785 100.65795898 238.94848633 C104.61253921 248.41164229 103.44238015 261.63190778 99.73828125 271.015625 C92.94299883 285.08727178 83.85904931 292.99284595 69.4140625 298.7578125 C49.43106241 302.59647882 27.39808635 298.02636271 7.44876099 295.693573 C-6.96541879 294.01158158 -21.39656732 292.51876725 -35.8359375 291.0703125 C-36.90784332 290.96190033 -37.97974915 290.85348816 -39.08413696 290.74179077 C-49.89336952 289.65046555 -60.68495799 288.58285828 -71.53540039 288.00512695 C-84.43452041 286.95936396 -95.9871228 281.50357591 -104.83984375 271.98828125 C-114.53189367 259.60760898 -117.22339121 246.09248209 -115.5859375 230.7578125 C-113.57197354 221.65767905 -107.73280009 214.09274639 -102.40234375 206.6171875 C-101.94931885 205.97563721 -101.49629395 205.33408691 -101.02954102 204.6730957 C-99.5859375 202.7578125 -99.5859375 202.7578125 -97.92163086 200.95776367 C-92.59840105 194.95010734 -92.85362373 189.34255796 -93.0234375 181.5703125 C-93.23923566 169.77988573 -93.23923566 169.77988573 -90.73828125 165.8671875 C-86.15495412 162.80027715 -81.49367732 159.94049143 -76.7109375 157.1953125 C-75.74285156 156.63134766 -74.77476562 156.06738281 -73.77734375 155.48632812 C-72.82988281 154.93525391 -71.88242188 154.38417969 -70.90625 153.81640625 C-69.9877124 153.28136475 -69.0691748 152.74632324 -68.12280273 152.19506836 C-66.61440559 151.34048901 -65.08960394 150.5125118 -63.53540039 149.74438477 C-58.34279452 147.14203316 -55.8580714 143.55121593 -52.7734375 138.8203125 C-51.83299914 137.41297103 -50.88885417 136.00810083 -49.94140625 134.60546875 C-49.43641602 133.83259521 -48.93142578 133.05972168 -48.41113281 132.26342773 C-46.5859375 129.7578125 -46.5859375 129.7578125 -44.08105469 127.16040039 C-34.59526266 116.8289557 -34.41659792 105.61182155 -33.4609375 92.0703125 C-33.26953922 89.85317424 -33.07425314 87.63636803 -32.875 85.41992188 C-30.25929864 69.85075083 -30.25929864 69.85075083 -33.23046875 55.49609375 C-33.94589844 55.02558594 -34.66132813 54.55507813 -35.3984375 54.0703125 C-39.44134948 50.97909484 -41.25308399 48.83931652 -42.5859375 43.7578125 C-42.97988615 39.7214534 -42.82792744 35.80250145 -42.5859375 31.7578125 C-42.54339844 31.00757813 -42.50085938 30.25734375 -42.45703125 29.484375 C-42.3015625 26.98890222 -42.10607453 24.49945681 -41.8984375 22.0078125 C-41.84534424 21.21600586 -41.79225098 20.42419922 -41.73754883 19.60839844 C-41.02976533 12.29029969 -38.0440184 6.70250024 -32.5234375 1.8203125 C-23.72749448 -4.35556239 -10.04857581 -1.05997923 0 0 Z " fill="#072C76" transform="translate(316.5859375,226.2421875)"/>
<path d="M0 0 C9.16467457 -0.29152046 18.05928 0.8385277 27.125 2 C28.66920085 2.19326831 30.21347135 2.38598099 31.7578125 2.578125 C35.50604168 3.04568427 39.25324941 3.52074223 43 4 C43.20912954 12.32821419 42.57198303 20.41763331 41.625 28.6875 C41.48924561 29.91831299 41.35349121 31.14912598 41.21362305 32.41723633 C40.35146293 40.16036209 39.41656131 47.89031587 38.33203125 55.60546875 C38.22246094 56.72566406 38.11289062 57.84585938 38 59 C37.83886719 60.29808594 37.67773438 61.59617187 37.51171875 62.93359375 C37.60829626 70.40303958 41.8291442 77.28044927 45 83.875 C45.73100739 85.42890428 46.46013988 86.98369179 47.1875 88.53930664 C48.69836945 91.76655003 50.21718453 94.98986143 51.7421875 98.21044922 C54.89262441 104.8763742 57.95896344 111.58041946 61.01913452 118.28814697 C62.00177096 120.44138068 62.9867012 122.59355404 63.97192383 124.74560547 C69.63400878 137.1278369 75.17557223 149.56287289 80.68554688 162.01342773 C81.0017952 162.72795105 81.31804352 163.44247437 81.64387512 164.1786499 C82.25499361 165.55979312 82.86575315 166.94109524 83.47612 168.3225708 C85.63078282 173.19162257 87.83726228 178.0351702 90.08398438 182.86254883 C91.25697204 185.59962425 91.8019711 188.02956657 92 191 C92.2165625 192.8253125 92.2165625 192.8253125 92.4375 194.6875 C92.33707346 201.22777826 88.48616464 207.07579683 84.359375 211.9296875 C78.11916939 217.7908152 71.1015912 219.22111622 62.77758789 219.12011719 C57.94369431 218.91107477 53.17202115 218.29835663 48.375 217.6875 C38.26269445 216.45714996 28.14430057 215.41789492 18 214.5 C7.49366365 213.54489263 -2.9869764 212.46749011 -13.46044922 211.1953125 C-20.44835528 210.36375061 -27.44162413 209.66617416 -34.44921875 209.02734375 C-35.82680611 208.90003624 -35.82680611 208.90003624 -37.23222351 208.77015686 C-41.83406209 208.34489824 -46.4363788 207.93009999 -51.04077148 207.53344727 C-52.74858318 207.37698816 -54.45634903 207.22002757 -56.1640625 207.0625 C-56.93703171 207.00001572 -57.71000092 206.93753143 -58.50639343 206.87315369 C-66.10075317 206.14918734 -73.02079541 203.91623488 -79 199 C-84.88399017 191.38830081 -87.22202426 183.5922334 -86 174 C-83.68172509 166.53915588 -78.57281171 160.63188268 -73.79296875 154.59765625 C-70.7986827 150.79068065 -68.02018598 146.8466683 -65.25 142.875 C-60.93687183 136.70760371 -56.5401093 130.61156903 -52.0625 124.5625 C-45.85076836 116.16902875 -39.71832034 107.7215282 -33.61767578 99.24707031 C-31.42123162 96.19604827 -29.22329941 93.14610678 -27.02294922 90.09790039 C-25.9325115 88.5856652 -24.84425931 87.07185145 -23.75830078 85.55639648 C-21.16737328 81.95023387 -18.54294329 78.38570931 -15.80859375 74.88671875 C-15.30344238 74.23018311 -14.79829102 73.57364746 -14.27783203 72.8972168 C-13.34178444 71.68528314 -12.39212231 70.48366492 -11.42529297 69.29614258 C-5.57503685 61.66270698 -5.60898722 51.48920091 -4.74609375 42.2265625 C-4.64031509 41.14039642 -4.53453644 40.05423035 -4.42555237 38.93515015 C-4.09141558 35.49887545 -3.76392715 32.06201495 -3.4375 28.625 C-3.10676955 25.16664185 -2.77454413 21.70844876 -2.43873596 18.25057983 C-2.23080144 16.10734696 -2.02588011 13.96381908 -1.82432556 11.81997681 C-1.73075272 10.85151825 -1.63717987 9.88305969 -1.54077148 8.88525391 C-1.41991432 7.6114537 -1.41991432 7.6114537 -1.2966156 6.31192017 C-1.01818956 4.14177545 -0.57976643 2.10748597 0 0 Z " fill="#FDFEFE" transform="translate(307,287)"/>
<path d="M0 0 C0.13792969 0.556875 0.27585937 1.11375 0.41796875 1.6875 C2.27963133 7.28193779 4.67407326 9.81538099 9.7578125 12.78515625 C10.32752274 13.12209 10.89723297 13.45902374 11.48420715 13.8061676 C13.315428 14.88403052 15.15667321 15.94299586 17 17 C18.21843372 17.70773453 19.43661497 18.4159039 20.65454102 19.12451172 C24.32075945 21.24908727 28.00309699 23.34467369 31.6875 25.4375 C32.96039516 26.16322083 34.23318205 26.8891316 35.50585938 27.61523438 C43.70717483 32.89093717 43.70717483 32.89093717 53 34 C57.26741875 31.93341219 61.19946256 29.28769165 65.1875 26.734375 C66.41339844 25.98027344 66.41339844 25.98027344 67.6640625 25.2109375 C68.40092285 24.73962402 69.1377832 24.26831055 69.89697266 23.78271484 C72 23 72 23 74.09082031 23.67089844 C76.00218687 25.00152242 77.37781917 26.2829598 78.8828125 28.0546875 C79.40593018 28.6643335 79.92904785 29.27397949 80.46801758 29.90209961 C81.01482178 30.55315674 81.56162598 31.20421387 82.125 31.875 C82.69178467 32.53959229 83.25856934 33.20418457 83.8425293 33.88891602 C85.56981603 35.9192355 87.28661611 37.95794033 89 40 C89.78189697 40.93030029 89.78189697 40.93030029 90.57958984 41.87939453 C93.40099844 45.24093558 96.20721241 48.61461188 99 52 C97.8553125 53.11375 97.8553125 53.11375 96.6875 54.25 C92.7348088 58.29461425 90.63002248 60.45307798 90.59594727 66.23999023 C90.58326309 67.28464951 90.57057892 68.32930878 90.55751038 69.40562439 C90.56044601 70.52860428 90.56338165 71.65158417 90.56640625 72.80859375 C90.5611644 73.96746597 90.55592255 75.1263382 90.55052185 76.32032776 C90.5440997 78.77059122 90.54544111 81.2208855 90.55395508 83.67114258 C90.56246028 87.4199924 90.53371133 91.16731653 90.50195312 94.91601562 C90.50034092 97.29687454 90.500919 99.67773616 90.50390625 102.05859375 C90.48705528 103.74002724 90.48705528 103.74002724 90.46986389 105.45542908 C90.49414639 111.5215319 90.49414639 111.5215319 92.71948242 117.05175781 C95.05714523 119.04881907 97.29580326 120.62145181 99.984375 122.11328125 C100.91894531 122.63857422 101.85351562 123.16386719 102.81640625 123.70507812 C103.78449219 124.23552734 104.75257813 124.76597656 105.75 125.3125 C106.73355469 125.86228516 107.71710938 126.41207031 108.73046875 126.97851562 C111.14860573 128.32844646 113.57168293 129.66849613 116 131 C115.2696922 135.32007945 113.93642838 139.3642341 112.49609375 143.48828125 C112.2533522 144.19147995 112.01061066 144.89467865 111.76051331 145.6191864 C110.98920292 147.8513521 110.21342234 150.0819338 109.4375 152.3125 C108.91181288 153.83127761 108.38641906 155.35015678 107.86132812 156.86914062 C106.57761156 160.58061144 105.28988531 164.29066879 104 168 C103.319375 167.835 102.63875 167.67 101.9375 167.5 C95.6039088 166.42194192 91.52942093 166.75857126 85.98046875 170.0703125 C84.87509766 170.72 83.76972656 171.3696875 82.63085938 172.0390625 C81.48286236 172.7340273 80.33507676 173.42934147 79.1875 174.125 C78.06279297 174.79015625 76.93808594 175.4553125 75.77929688 176.140625 C71.51662197 178.66702152 67.26042639 181.1921265 63.08837891 183.86621094 C62.20972168 184.4234082 61.33106445 184.98060547 60.42578125 185.5546875 C59.66305908 186.05210449 58.90033691 186.54952148 58.11450195 187.06201172 C56 188 56 188 53.8046875 187.74682617 C51.38749796 186.74653088 50.83623068 185.77487864 49.6875 183.4375 C47.99942977 179.04289646 47.91361809 175.59889608 48.26953125 170.921875 C48.34584778 169.88899605 48.34584778 169.88899605 48.42370605 168.83525085 C49.05226574 160.6796663 49.87928117 152.54000291 50.72949219 144.4050293 C51.00364098 141.77760511 51.27165616 139.1496025 51.5390625 136.52148438 C51.7131847 134.83329648 51.88765083 133.14514401 52.0625 131.45703125 C52.18129517 130.29141411 52.18129517 130.29141411 52.30249023 129.10224915 C53.14359056 121.11858093 53.14359056 121.11858093 54 118 C55.92578125 116.8125 55.92578125 116.8125 58.3125 116 C63.35403374 114.00739381 65.79821151 111.70516649 68.02734375 106.6875 C71.01108079 98.44327879 71.26754424 89.37733774 71.5 80.6875 C71.56405029 79.4344104 71.56405029 79.4344104 71.62939453 78.15600586 C71.69162795 72.46277922 70.3682949 69.18332818 66.88085938 64.70239258 C62.73855341 60.95313252 58.30322089 59.62960215 52.85546875 58.97265625 C51.64084961 58.8221582 50.42623047 58.67166016 49.17480469 58.51660156 C47.84577802 58.36457817 46.51667386 58.21323106 45.1875 58.0625 C43.79455085 57.89719292 42.40164826 57.73149302 41.00878906 57.56542969 C29.1033453 56.16670132 17.17739003 54.94458554 5.25 53.75 C4.37677094 53.66114532 3.50354187 53.57229065 2.60385132 53.48074341 C-15.77413397 50.58613795 -15.77413397 50.58613795 -33 55 C-37.17843891 58.98850987 -40.02673114 63.34924448 -40.6328125 69.125 C-40.71708496 69.90834717 -40.80135742 70.69169434 -40.88818359 71.4987793 C-40.96633301 72.32418213 -41.04448242 73.14958496 -41.125 74 C-41.2070166 74.84925049 -41.2890332 75.69850098 -41.37353516 76.57348633 C-43.26161121 91.01516578 -43.26161121 91.01516578 -38 104 C-36.77314441 104.98778952 -35.52204306 105.94612475 -34.25 106.875 C-32.1182092 108.5618162 -31.10106978 109.37456748 -30.66023254 112.1025238 C-30.69219223 112.89425491 -30.72415192 113.68598602 -30.75708008 114.50170898 C-30.78694 115.39115204 -30.81679993 116.28059509 -30.8475647 117.19699097 C-30.92302017 118.58448044 -30.92302017 118.58448044 -31 120 C-31.05817398 121.32017624 -31.05817398 121.32017624 -31.11752319 122.66702271 C-31.42025685 128.70658986 -31.91001445 134.73066999 -32.42211914 140.75561523 C-32.59790043 142.94600861 -32.75184872 145.13827242 -32.88305664 147.33178711 C-33.8292718 162.91326574 -36.70920345 172.64800981 -47.39971924 184.17640686 C-50.0326103 187.17670668 -52.19495643 190.4761861 -54.375 193.8125 C-57.78106422 198.94566746 -60.52344366 201.40020946 -66 204 C-66.99 204 -67.98 204 -69 204 C-70.9453125 201.9453125 -70.9453125 201.9453125 -73.125 199.125 C-76.20963029 195.22281729 -79.34096063 191.43062706 -82.6875 187.75 C-83.78771484 186.53183594 -83.78771484 186.53183594 -84.91015625 185.2890625 C-86.23826761 183.83434613 -87.57819664 182.39026537 -88.93359375 180.9609375 C-90.625 179.125 -90.625 179.125 -93 176 C-92.57814182 172.15963586 -90.75835852 170.58596111 -88 168 C-86.76156276 165.52312553 -86.85978881 163.84956793 -86.83886719 161.07885742 C-86.82925964 160.05406784 -86.8196521 159.02927826 -86.80975342 157.97343445 C-86.8033786 156.30629143 -86.8033786 156.30629143 -86.796875 154.60546875 C-86.78832489 152.89620964 -86.78832489 152.89620964 -86.77960205 151.15242004 C-86.77014231 148.73728364 -86.76361422 146.32213428 -86.75976562 143.90698242 C-86.75006734 140.2131493 -86.71905536 136.51987414 -86.6875 132.82617188 C-86.68096939 130.48177414 -86.67571915 128.13737243 -86.671875 125.79296875 C-86.6595282 124.68761276 -86.6471814 123.58225677 -86.63446045 122.44340515 C-86.63746155 121.40915909 -86.64046265 120.37491302 -86.64355469 119.30932617 C-86.63990906 118.40268723 -86.63626343 117.49604828 -86.63250732 116.56193542 C-87.08094575 113.43569544 -88.18116146 111.55991015 -90 109 C-92.04813465 107.44007211 -92.04813465 107.44007211 -94.4140625 106.28125 C-95.25710937 105.82363281 -96.10015625 105.36601562 -96.96875 104.89453125 C-98.74571069 103.96162689 -100.52437388 103.03195849 -102.3046875 102.10546875 C-103.14515625 101.64785156 -103.985625 101.19023437 -104.8515625 100.71875 C-105.62322754 100.31591797 -106.39489258 99.91308594 -107.18994141 99.49804688 C-109 98 -109 98 -109.91723633 95.82543945 C-110.03174974 91.91610698 -108.81785484 88.68241223 -107.47265625 85.07421875 C-107.20488876 84.32662796 -106.93712128 83.57903717 -106.66123962 82.80879211 C-105.8064808 80.43069304 -104.93479689 78.05921492 -104.0625 75.6875 C-103.4786892 74.07267317 -102.89599392 72.45744258 -102.31445312 70.84179688 C-100.88918628 66.88973585 -99.44871241 62.94352369 -98 59 C-97.34515625 59.14179688 -96.6903125 59.28359375 -96.015625 59.4296875 C-87.38283318 60.8197133 -82.34995162 58.36506244 -75 54 C-73.98744141 53.42878418 -72.97488281 52.85756836 -71.93164062 52.26904297 C-68.8517986 50.52304861 -65.79893814 48.73684137 -62.75 46.9375 C-61.21472656 46.0393457 -61.21472656 46.0393457 -59.6484375 45.12304688 C-57.6649413 43.95920881 -55.68494138 42.78938555 -53.70898438 41.61279297 C-51.99865761 40.59455049 -50.28195233 39.58687865 -48.55664062 38.59423828 C-47.84185547 38.17255371 -47.12707031 37.75086914 -46.390625 37.31640625 C-45.77735352 36.9613501 -45.16408203 36.60629395 -44.53222656 36.24047852 C-41.79841057 34.02720269 -41.091941 31.80153878 -40.69702148 28.35864258 C-40.65943726 26.89140747 -40.65943726 26.89140747 -40.62109375 25.39453125 C-40.58693359 24.32912109 -40.55277344 23.26371094 -40.51757812 22.16601562 C-40.49115234 21.05935547 -40.46472656 19.95269531 -40.4375 18.8125 C-40.37785092 16.61056066 -40.31427 14.40872307 -40.24609375 12.20703125 C-40.21020142 10.74487183 -40.21020142 10.74487183 -40.17358398 9.25317383 C-40 7 -40 7 -39 6 C-34.57054228 4.99912353 -30.10102088 4.19385605 -25.63720703 3.36108398 C-23.40377571 2.94288807 -21.17261456 2.51386153 -18.94140625 2.08398438 C-17.51054247 1.81443549 -16.07955631 1.54553528 -14.6484375 1.27734375 C-13.98774261 1.14923813 -13.32704773 1.02113251 -12.64633179 0.8891449 C-8.3820172 0.1064807 -4.33035197 -0.11439854 0 0 Z " fill="#FDFDFE" transform="translate(317,174)"/>
<path d="M0 0 C2.97541463 1.14730917 5.79141368 2.34642662 8.55078125 3.9453125 C9.16630859 4.29980469 9.78183594 4.65429688 10.41601562 5.01953125 C11.04185547 5.38433594 11.66769531 5.74914062 12.3125 6.125 C12.95767578 6.49753906 13.60285156 6.87007812 14.26757812 7.25390625 C15.84675945 8.16632213 17.42361864 9.08275509 19 10 C17.56502497 14.33417355 16.1265663 18.66718332 14.6875 23 C14.28337891 24.22074219 13.87925781 25.44148438 13.46289062 26.69921875 C10.07647267 36.88600445 10.07647267 36.88600445 8.20703125 41.625 C6.77549961 45.03033795 6.77549961 45.03033795 7 49 C8.81349882 50.59057779 8.81349882 50.59057779 11.26953125 51.83984375 C12.15833984 52.34580078 13.04714844 52.85175781 13.96289062 53.37304688 C14.90326172 53.88931641 15.84363281 54.40558594 16.8125 54.9375 C18.65868368 55.95603992 20.49881148 56.98565136 22.33203125 58.02734375 C23.15421143 58.47843506 23.9763916 58.92952637 24.82348633 59.39428711 C27.64928496 61.47900698 28.6627596 62.70658302 30 66 C30.44664289 69.88480301 30.44408955 73.74522541 30.43359375 77.65234375 C30.4388356 78.78523331 30.44407745 79.91812286 30.44947815 81.08534241 C30.45589428 83.47835471 30.45456668 85.87139857 30.44604492 88.2644043 C30.43753842 91.92098296 30.46629896 95.57599761 30.49804688 99.23242188 C30.49965911 101.55989537 30.49908094 103.88737162 30.49609375 106.21484375 C30.50732773 107.30562729 30.51856171 108.39641083 30.53013611 109.52024841 C30.4741764 115.63157162 30.15750897 119.38199978 26 124 C25.01 124.495 25.01 124.495 24 125 C24.53431904 129.1123483 26.69810275 131.12656137 29.5 134.0625 C36.04986222 141.0721663 42.01217228 148.50850254 48 156 C44.41515516 159.00621497 40.74744951 161.43002885 36.6875 163.75 C35.61886719 164.36359375 34.55023438 164.9771875 33.44921875 165.609375 C32.64097656 166.06828125 31.83273438 166.5271875 31 167 C27.38654725 164.28202769 24.6008384 161.4896234 21.8125 157.9375 C17.75046479 152.85995599 13.49060201 148.07595334 9.06640625 143.3125 C7 141 7 141 5 138 C-0.70500652 138.60809178 -5.03857746 141.83107805 -9.765625 144.84960938 C-14.85801297 147.90014563 -19.0812753 149.14815406 -25 148 C-28.27536969 146.76806242 -31.18932313 145.10616114 -34.1875 143.3125 C-35.03248047 142.82571777 -35.87746094 142.33893555 -36.74804688 141.83740234 C-38.5563189 140.79139568 -40.35942547 139.73641699 -42.15771484 138.67333984 C-45.1064617 136.93732275 -48.07605464 135.241844 -51.05078125 133.55078125 C-53.03470237 132.41032842 -55.01779553 131.2684339 -57 130.125 C-57.93739014 129.59044189 -58.87478027 129.05588379 -59.84057617 128.50512695 C-60.71818604 127.99038818 -61.5957959 127.47564941 -62.5 126.9453125 C-63.2734375 126.49687988 -64.046875 126.04844727 -64.84375 125.58642578 C-67.69489254 123.48874414 -69.21887657 122.12490858 -71 119 C-71.59459688 114.95876602 -71.56022664 110.953642 -71.53125 106.875 C-71.5350769 105.69534668 -71.53890381 104.51569336 -71.54284668 103.30029297 C-71.54556581 100.80891058 -71.5382047 98.31749964 -71.52148438 95.82617188 C-71.50007679 92.01367518 -71.52128817 88.20306311 -71.546875 84.390625 C-71.54423173 81.96874584 -71.53910676 79.54686786 -71.53125 77.125 C-71.53934692 75.98530762 -71.54744385 74.84561523 -71.55578613 73.67138672 C-71.46295924 65.83359405 -71.46295924 65.83359405 -69.30932617 61.95581055 C-66.81244001 59.84115202 -64.37492596 58.18380298 -61.51953125 56.58203125 C-60.44558105 55.97166016 -59.37163086 55.36128906 -58.26513672 54.73242188 C-57.1257666 54.09884766 -55.98639648 53.46527344 -54.8125 52.8125 C-53.04432228 51.81949032 -51.2776422 50.82386161 -49.5112915 49.8276062 C-48.33629697 49.16490701 -47.16063864 48.50338334 -45.98431396 47.8430481 C-42.53024518 45.89615939 -39.13873418 43.87658172 -35.78515625 41.76171875 C-35.02807373 41.28951904 -34.27099121 40.81731934 -33.4909668 40.33081055 C-32.12638146 39.47257186 -30.77141667 38.59874695 -29.42895508 37.70629883 C-24.41182809 34.59260961 -21.54829102 34.71874517 -16 36 C-14.65165658 36.63576114 -13.31380011 37.29561977 -12 38 C-11.77570313 36.82566406 -11.55140625 35.65132813 -11.3203125 34.44140625 C-9.76138776 27.42624491 -7.25705613 20.7048933 -4.875 13.9375 C-4.4018818 12.5815413 -3.92922194 11.22542259 -3.45703125 9.86914062 C-2.30996322 6.57756639 -1.15671656 3.28819785 0 0 Z " fill="#6965F6" transform="translate(201,222)"/>
<path d="M0 0 C7.53583693 7.45678969 14.41964008 15.38826139 21.0546875 23.65234375 C22.62860416 25.55178936 24.21668596 27.30080455 26 29 C31.45778613 27.4216448 35.96091014 24.78028122 40.70117188 21.74609375 C45.05076665 19.11610621 47.96782997 18.21521479 53 19 C56.62190818 20.51621795 59.97735639 22.41418265 63.375 24.375 C64.33728516 24.91576172 65.29957031 25.45652344 66.29101562 26.01367188 C69.20438629 27.6583477 72.10386668 29.32518803 75 31 C75.85239258 31.49016602 76.70478516 31.98033203 77.58300781 32.48535156 C82.41954621 35.27274038 87.24088521 38.0820812 92 41 C93.65515625 42.00546875 93.65515625 42.00546875 95.34375 43.03125 C98.08335688 45.06178216 98.80748233 45.9114175 100 49 C100.26069641 51.4594574 100.26069641 51.4594574 100.2746582 54.23999023 C100.28419022 55.28464951 100.29372223 56.32930878 100.30354309 57.40562439 C100.30263168 58.52860428 100.30172028 59.65158417 100.30078125 60.80859375 C100.30506638 61.96746597 100.3093515 63.1263382 100.31376648 64.32032776 C100.31950828 66.77059272 100.32001115 69.22087473 100.31567383 71.67114258 C100.31251497 75.41972945 100.33597222 79.16752639 100.36132812 82.91601562 C100.36360123 85.296874 100.36430456 87.67773451 100.36328125 90.05859375 C100.372491 91.17954941 100.38170074 92.30050507 100.39118958 93.45542908 C100.38496078 94.50324051 100.37873199 95.55105194 100.37231445 96.63061523 C100.37294388 97.54898666 100.3735733 98.46735809 100.3742218 99.41355896 C99.91895178 102.56016632 98.84200953 104.4284447 97 107 C94.54248047 108.78588867 94.54248047 108.78588867 91.6171875 110.41796875 C90.54025635 111.02825928 89.4633252 111.6385498 88.35375977 112.26733398 C87.20576904 112.90098877 86.05777832 113.53464355 84.875 114.1875 C83.09674382 115.18120886 81.32029706 116.17809065 79.54414368 117.17555237 C78.36242533 117.83900581 77.1798794 118.50098737 75.99650574 119.16148376 C72.56428177 121.0854681 69.20384155 123.08738956 65.88671875 125.203125 C65.14373535 125.67081299 64.40075195 126.13850098 63.63525391 126.62036133 C62.30888084 127.4632097 60.99337989 128.32357717 59.69287109 129.20581055 C54.27586526 132.59235053 49.26047688 132.41774598 43 132 C42.64695801 133.02472412 42.29391602 134.04944824 41.93017578 135.10522461 C40.621812 138.89654894 39.30384577 142.68447494 37.98291016 146.47143555 C37.41191149 148.11277235 36.84354193 149.7550262 36.27783203 151.39819336 C35.4655145 153.75619041 34.64388319 156.11075725 33.8203125 158.46484375 C33.56814972 159.20339096 33.31598694 159.94193817 33.05618286 160.7028656 C31.22774341 165.88612829 31.22774341 165.88612829 29 167 C27.12060547 166.19555664 27.12060547 166.19555664 24.8671875 164.91015625 C24.06152344 164.45576172 23.25585938 164.00136719 22.42578125 163.53320312 C21.58402344 163.04787109 20.74226563 162.56253906 19.875 162.0625 C19.02550781 161.58103516 18.17601562 161.09957031 17.30078125 160.60351562 C15.19634989 159.40942817 13.09644809 158.20803163 11 157 C11.66 156.67 12.32 156.34 13 156 C13.44854486 153.96412893 13.88996451 151.92652798 14.30371094 149.88330078 C15.74452593 143.91695259 18.02121523 138.19618991 20.125 132.4375 C20.59816109 131.12973984 21.07082121 129.8217983 21.54296875 128.51367188 C22.6904139 125.34063479 23.84287028 122.16951538 25 119 C24.09137207 118.71552002 23.18274414 118.43104004 22.24658203 118.13793945 C18.05668689 116.66936514 14.61472995 114.54304419 10.875 112.1875 C10.17246094 111.76146484 9.46992188 111.33542969 8.74609375 110.89648438 C8.06417969 110.47044922 7.38226563 110.04441406 6.6796875 109.60546875 C6.06851074 109.22543701 5.45733398 108.84540527 4.82763672 108.45385742 C1.54582641 105.84322686 -0.71048089 103.88123056 -1.37750244 99.54707336 C-1.54758149 96.40089387 -1.58042595 93.27969543 -1.56640625 90.12890625 C-1.57260483 88.97382065 -1.57880341 87.81873505 -1.58518982 86.62864685 C-1.59228625 84.18855634 -1.58911717 81.74841739 -1.57641602 79.30834961 C-1.56256132 75.57900654 -1.59661532 71.85217769 -1.63476562 68.12304688 C-1.63571694 65.74999939 -1.63385735 63.37694876 -1.62890625 61.00390625 C-1.64216446 59.89124893 -1.65542267 58.77859161 -1.66908264 57.63221741 C-1.5655632 49.00491814 -1.5655632 49.00491814 1.42602539 45.36694336 C2.27543701 44.58585205 3.12484863 43.80476074 4 43 C4.8971875 42.071875 4.8971875 42.071875 5.8125 41.125 C6.204375 40.75375 6.59625 40.3825 7 40 C5.78035386 38.5770795 4.56066857 37.15419254 3.34082031 35.73144531 C2.27181862 34.48394856 1.20346905 33.23589273 0.13574219 31.98730469 C-2.71747321 28.65270321 -5.58121552 25.32838768 -8.46875 22.0234375 C-9.01885742 21.39066895 -9.56896484 20.75790039 -10.13574219 20.10595703 C-11.200173 18.88215137 -12.2684562 17.6616843 -13.34082031 16.44482422 C-17 12.22486481 -17 12.22486481 -17 10 C-15.43945312 8.85498047 -15.43945312 8.85498047 -13.28125 7.6171875 C-12.51425781 7.17246094 -11.74726563 6.72773438 -10.95703125 6.26953125 C-10.14621094 5.80933594 -9.33539063 5.34914062 -8.5 4.875 C-7.68917969 4.40707031 -6.87835938 3.93914062 -6.04296875 3.45703125 C-4.03237359 2.29798228 -2.01803239 1.14603529 0 0 Z " fill="#6865F6" transform="translate(408,186)"/>
<path d="M0 0 C2.69042969 1.1105957 2.69042969 1.1105957 5.421875 2.67578125 C6.94820557 3.53937256 6.94820557 3.53937256 8.50537109 4.42041016 C9.57609863 5.0447998 10.64682617 5.66918945 11.75 6.3125 C12.8529541 6.94462402 13.9559082 7.57674805 15.09228516 8.22802734 C18.404732 10.1356011 21.7040796 12.06403698 25 14 C25.94907227 14.55381348 26.89814453 15.10762695 27.87597656 15.67822266 C30.38379114 17.14732195 32.88195747 18.63099612 35.375 20.125 C36.11073242 20.56110596 36.84646484 20.99721191 37.60449219 21.4465332 C38.27899414 21.85863037 38.95349609 22.27072754 39.6484375 22.6953125 C40.51734619 23.2214917 40.51734619 23.2214917 41.40380859 23.75830078 C44.18603733 25.92263473 45.83103787 27.92809766 46.38768005 31.4594574 C46.39578453 32.83582115 46.39578453 32.83582115 46.40405273 34.23999023 C46.41673691 35.28464951 46.42942108 36.32930878 46.44248962 37.40562439 C46.43955399 38.52860428 46.43661835 39.65158417 46.43359375 40.80859375 C46.4388356 41.96746597 46.44407745 43.1263382 46.44947815 44.32032776 C46.4559003 46.77059122 46.45455889 49.2208855 46.44604492 51.67114258 C46.43753972 55.4199924 46.46628867 59.16731653 46.49804688 62.91601562 C46.49965908 65.29687454 46.499081 67.67773616 46.49609375 70.05859375 C46.50732773 71.17954941 46.51856171 72.30050507 46.53013611 73.45542908 C46.46116013 81.15974541 46.46116013 81.15974541 44.34545898 85.01464844 C41.67767345 87.2728385 39.0310428 89.00245807 35.9765625 90.70703125 C35.39393646 91.03611984 34.81131042 91.36520844 34.21102905 91.70426941 C32.3543319 92.75017118 30.49006228 93.78160366 28.625 94.8125 C27.41221836 95.4918718 26.19997411 96.17220383 24.98828125 96.85351562 C23.17002386 97.87570134 21.35053286 98.89510103 19.52545166 99.90505981 C16.37509552 101.6500653 13.2577988 103.43262291 10.17480469 105.29443359 C9.55173431 105.66581955 8.92866394 106.03720551 8.28671265 106.41984558 C6.56382615 107.45018798 4.8487823 108.4936119 3.13427734 109.5378418 C-0.34197225 111.159532 -2.21653812 111.51153949 -6 111 C-8.90576172 109.78173828 -8.90576172 109.78173828 -11.9296875 108.0703125 C-13.04794922 107.44423096 -14.16621094 106.81814941 -15.31835938 106.1730957 C-16.50431061 105.49109982 -17.68985047 104.80838812 -18.875 104.125 C-20.08884958 103.43583735 -21.30304414 102.74728197 -22.51757812 102.05932617 C-29.23346715 98.23896788 -35.91509377 94.35492268 -42.5 90.3125 C-43.13276855 89.92787598 -43.76553711 89.54325195 -44.41748047 89.14697266 C-47.66546768 87.09930872 -49.99214833 85.2769094 -52 82 C-52.40786743 79.50930786 -52.40786743 79.50930786 -52.45166016 76.68408203 C-52.4740274 75.6226297 -52.49639465 74.56117737 -52.5194397 73.46755981 C-52.52591522 72.3258432 -52.53239075 71.18412659 -52.5390625 70.0078125 C-52.55141937 68.82911591 -52.56377625 67.65041931 -52.57650757 66.43600464 C-52.59607531 63.94290127 -52.60730616 61.44972062 -52.61083984 58.95654297 C-52.62492425 55.14549714 -52.69225987 51.33773003 -52.76171875 47.52734375 C-52.77411729 45.10418124 -52.78333686 42.68099996 -52.7890625 40.2578125 C-52.81578033 39.12014435 -52.84249817 37.9824762 -52.87002563 36.81033325 C-52.80412183 29.12336807 -52.80412183 29.12336807 -50.58735657 26.02651978 C-48.80738714 24.44694829 -47.04520668 23.21176672 -45 22 C-44.05374756 21.3930127 -43.10749512 20.78602539 -42.13256836 20.16064453 C-41.21096924 19.65645996 -40.28937012 19.15227539 -39.33984375 18.6328125 C-38.30512939 18.06062988 -37.27041504 17.48844727 -36.2043457 16.89892578 C-35.12628662 16.31353027 -34.04822754 15.72813477 -32.9375 15.125 C-30.70006035 13.89667175 -28.46307803 12.66751007 -26.2265625 11.4375 C-25.15438477 10.8496875 -24.08220703 10.261875 -22.97753906 9.65625 C-20.44501213 8.24753709 -17.9453234 6.80382197 -15.4609375 5.3125 C-14.82808838 4.93464355 -14.19523926 4.55678711 -13.54321289 4.16748047 C-11.94691316 3.20596265 -10.35786837 2.23242757 -8.76953125 1.2578125 C-5.50108831 -0.22658613 -3.56737396 -0.27703752 0 0 Z " fill="#062B75" transform="translate(370,98)"/>
<path d="M0 0 C2.21039917 0.42694011 4.41825861 0.86703978 6.625 1.3125 C7.85476563 1.55613281 9.08453125 1.79976563 10.3515625 2.05078125 C16.88458313 3.75048576 16.88458313 3.75048576 20 6 C20.93136606 8.92979389 21.46200077 11.36985529 21.875 14.375 C25.30414137 34.02064932 33.95088856 53.42633284 45 70 C45.58910156 69.84015625 46.17820312 69.6803125 46.78515625 69.515625 C51.11705858 68.5071398 54.75508382 68.41903912 58.8125 70.3125 C61.37080883 72.28605253 62.84462202 73.88612153 63.30078125 77.15625 C63.30464844 77.9296875 63.30851562 78.703125 63.3125 79.5 C63.32925781 80.2734375 63.34601563 81.046875 63.36328125 81.84375 C62.92078843 84.47015897 62.02185443 85.33557103 60 87 C63.34891744 94.98588005 71.66431964 101.10178821 78.6015625 105.94140625 C79.29378906 106.46541016 79.29378906 106.46541016 80 107 C80 107.33 80 107.66 80 108 C64.67651365 107.39120339 49.49052016 105.78232184 34.25 104.125 C29.17336331 103.57768799 24.09647489 103.03273778 19.01953125 102.48828125 C17.79178482 102.35618759 16.56403839 102.22409393 15.29908752 102.08799744 C8.49879199 101.3600669 1.6973652 100.66658934 -5.11328125 100.04296875 C-5.82437042 99.9769043 -6.53545959 99.91083984 -7.26809692 99.84277344 C-10.35258938 99.55699023 -13.43725605 99.28147295 -16.52441406 99.02587891 C-24.95355424 98.25279208 -32.294267 96.51360269 -39 91 C-44.88399017 83.38830081 -47.22202426 75.5922334 -46 66 C-43.68172509 58.53915588 -38.57281171 52.63188268 -33.79296875 46.59765625 C-30.79868774 42.79068705 -28.02008271 38.8467356 -25.25 34.875 C-20.212856 27.66906275 -15.04277284 20.5705601 -9.80761719 13.50732422 C-6.49346826 9.03544032 -3.22100758 4.53951348 0 0 Z " fill="#92B1F3" transform="translate(267,395)"/>
<path d="M0 0 C1.77221841 0.87219126 3.54267655 1.74795915 5.3125 2.625 C6.96765625 3.44484375 6.96765625 3.44484375 8.65625 4.28125 C11.61348919 5.80132622 14.45072616 7.43551906 17.3125 9.125 C23.85862106 12.74383972 30.78515201 14.31761392 38 16 C38.77859375 16.226875 39.5571875 16.45375 40.359375 16.6875 C54.69232373 20.68739267 70.67589572 17.37926515 85 15 C86.51416957 17.27125436 87.65487553 19.2518711 88.78417969 21.69848633 C89.12503601 22.43388138 89.46589233 23.16927643 89.81707764 23.92695618 C90.18166077 24.72063095 90.5462439 25.51430573 90.921875 26.33203125 C91.30434387 27.16022873 91.68681274 27.98842621 92.08087158 28.84172058 C92.89237892 30.60054007 93.70262817 32.3599405 94.51171875 34.11987305 C95.728475 36.76569416 96.94983325 39.40935111 98.171875 42.05273438 C101.67301723 49.6394667 105.15821831 57.23507723 108.515625 64.88671875 C108.97743164 65.93432373 109.43923828 66.98192871 109.91503906 68.0612793 C112.2575879 74.40629739 113.45285616 81.35229328 110.90625 87.74609375 C107.0192595 95.36500864 102.78894169 100.76564386 94.6875 103.875 C89.67974386 105.29023543 85.1651202 105.34917267 80 105 C79.33226562 104.97341309 78.66453125 104.94682617 77.9765625 104.91943359 C66.84148865 104.44326267 59.31859795 102.98286979 51 95 C50.19828369 94.23381348 50.19828369 94.23381348 49.38037109 93.45214844 C45.83805961 90.04417612 42.3947136 86.55467393 39 83 C40.875 79.125 40.875 79.125 42 78 C42.4338366 73.88689536 42.63230561 70.20439164 40.6875 66.5 C37.19526688 63.39579279 33.44060613 63.84418926 29 64 C27.66015591 64.30611552 26.32452022 64.63320978 25 65 C13.13431647 46.44638576 -0.57205376 22.78119957 0 0 Z " fill="#D1DBFC" transform="translate(287,401)"/>
<path d="M0 0 C1.45152466 0.86238281 1.45152466 0.86238281 2.93237305 1.7421875 C3.99133789 2.36609375 5.05030273 2.99 6.14135742 3.6328125 C7.23125977 4.28765625 8.32116211 4.9425 9.4440918 5.6171875 C10.55333008 6.27203125 11.66256836 6.926875 12.80541992 7.6015625 C20.93492826 12.42052397 20.93492826 12.42052397 22.1315918 13.6171875 C22.61640058 18.18882333 22.78795767 22.75838767 22.92114258 27.35229492 C22.9776907 28.89250426 23.05937259 30.4320144 23.16723633 31.96948242 C23.52161177 37.11792435 23.55441049 41.6230644 22.1315918 46.6171875 C18.29044466 50.44162946 14.04776434 52.44042675 9.1315918 54.6171875 C7.74097602 55.44487132 6.36297346 56.29495266 5.01049805 57.18359375 C3.91608398 57.84230469 2.82166992 58.50101563 1.6940918 59.1796875 C0.58163086 59.86160156 -0.53083008 60.54351562 -1.67700195 61.24609375 C-5.4812291 62.88046796 -6.90155506 62.59665363 -10.8684082 61.6171875 C-13.73681641 60.234375 -13.73681641 60.234375 -16.66918945 58.4921875 C-17.7281543 57.86828125 -18.78711914 57.244375 -19.87817383 56.6015625 C-20.96807617 55.94671875 -22.05797852 55.291875 -23.1809082 54.6171875 C-24.29014648 53.96234375 -25.39938477 53.3075 -26.54223633 52.6328125 C-34.67174467 47.81385103 -34.67174467 47.81385103 -35.8684082 46.6171875 C-36.25616116 42.00735882 -36.35354456 37.39646612 -36.43823242 32.7722168 C-36.47481795 31.21895048 -36.52931821 29.665996 -36.60229492 28.11401367 C-37.19537394 15.30815318 -37.19537394 15.30815318 -34.14355469 11.41918945 C-31.79037025 9.82979611 -29.47891082 8.7278223 -26.8684082 7.6171875 C-25.32200836 6.69968068 -23.78651297 5.76352567 -22.26293945 4.80859375 C-20.73784559 3.92838186 -19.2104984 3.05206247 -17.6809082 2.1796875 C-16.52945312 1.49229492 -16.52945312 1.49229492 -15.35473633 0.79101562 C-14.60256836 0.36369141 -13.85040039 -0.06363281 -13.07543945 -0.50390625 C-12.4100415 -0.8898999 -11.74464355 -1.27589355 -11.05908203 -1.67358398 C-6.98057178 -2.9939977 -3.75326922 -1.80938947 0 0 Z " fill="#FA7C9F" transform="translate(373.868408203125,123.3828125)"/>
<path d="M0 0 C1.37086527 0.65939499 2.71947302 1.36635594 4.046875 2.109375 C4.81 2.53476563 5.573125 2.96015625 6.359375 3.3984375 C7.14828125 3.84445313 7.9371875 4.29046875 8.75 4.75 C9.5234375 5.18054688 10.296875 5.61109375 11.09375 6.0546875 C12.64795448 6.92566786 14.18989462 7.81889694 15.71875 8.73364258 C17.95288841 10.05535687 17.95288841 10.05535687 20.34375 10.8347168 C22.9983293 11.93284895 24.27764867 12.67476931 26 15 C27.0101772 20.79468627 26.75160799 26.45727361 26.5 32.3125 C26.45985202 33.92764688 26.42335348 35.54288887 26.390625 37.15820312 C26.30265046 41.10782023 26.16474097 45.0528698 26 49 C22.11742619 51.33875317 18.22166173 53.65301223 14.31176758 55.94580078 C12.98398077 56.72895016 11.66002504 57.51863324 10.34008789 58.31494141 C8.44087865 59.45918104 6.52908501 60.57913806 4.61328125 61.6953125 C4.02662186 62.05561554 3.43996246 62.41591858 2.83552551 62.78713989 C0.06121896 64.37427475 -1.39600278 65.15711778 -4.5546875 64.33544922 C-5.36164063 63.89475098 -6.16859375 63.45405273 -7 63 C-8.37152222 62.51853516 -8.37152222 62.51853516 -9.77075195 62.02734375 C-17.74978269 59.09699466 -25.58764421 55.7699777 -31 49 C-33.30148515 43.44972722 -33.34775823 37.54900811 -33.3125 31.625 C-33.32592438 30.87057617 -33.33934875 30.11615234 -33.35317993 29.33886719 C-33.37465966 24.17365696 -32.91525135 19.82753213 -31 15 C-27.09915692 11.28681228 -22.87540705 9.20238021 -18 7 C-16.5883402 6.16871739 -15.18772916 5.31778811 -13.80859375 4.43359375 C-12.69613281 3.77488281 -11.58367187 3.11617187 -10.4375 2.4375 C-9.57415039 1.90672852 -9.57415039 1.90672852 -8.69335938 1.36523438 C-5.28848578 -0.6291047 -3.71322951 -1.28982172 0 0 Z " fill="#D0DBFC" transform="translate(230,148)"/>
<path d="M0 0 C1.88916399 1.22078295 3.77483229 2.4469998 5.65625 3.6796875 C8.13630575 4.61253954 8.13630575 4.61253954 10.546875 5.2578125 C15.66197603 7.05650455 19.74208901 8.92984934 22.65625 13.6796875 C24.05783394 19.43853513 24.28830459 25.02192834 24.28125 30.9296875 C24.29063599 31.70010376 24.30002197 32.47052002 24.30969238 33.26428223 C24.3300194 45.63556472 24.3300194 45.63556472 20.86328125 49.86938477 C18.53229389 51.45509913 16.24224772 52.56383573 13.65625 53.6796875 C12.09919983 54.59886298 10.55207097 55.53506429 9.015625 56.48828125 C7.48140982 57.36850471 5.94494797 58.24482399 4.40625 59.1171875 C3.63023437 59.57544922 2.85421875 60.03371094 2.0546875 60.50585938 C-3.56389297 63.68428843 -3.56389297 63.68428843 -6.9921875 63.6640625 C-17.53343944 59.25144541 -23.44851692 54.94956804 -27.91015625 44.18359375 C-28.38324219 43.02730469 -28.85632813 41.87101562 -29.34375 40.6796875 C-29.84777344 39.76058594 -30.35179687 38.84148437 -30.87109375 37.89453125 C-33.96250608 32.21695127 -34.62560567 27.66500827 -34.47265625 21.328125 C-34.46335083 20.59037842 -34.45404541 19.85263184 -34.44445801 19.0925293 C-34.42035021 17.28809748 -34.38336518 15.48384548 -34.34375 13.6796875 C-30.61263967 11.22774938 -26.84776661 8.84430508 -23.04003906 6.51416016 C-21.75307898 5.714411 -20.47662012 4.89748426 -19.21191406 4.06298828 C-7.32516803 -3.75231324 -7.32516803 -3.75231324 0 0 Z " fill="#FBCA50" transform="translate(418.34375,364.3203125)"/>
<path d="M0 0 C10.51002792 1.49028866 22.17744166 6.804533 29 15 C33.21907189 25.31786035 33.21907189 37.68213965 29 48 C22.91404978 55.31063066 13.91960538 59.18319978 5 62 C4.18402344 62.27191162 3.36804688 62.54382324 2.52734375 62.82397461 C-1.13244728 63.07887312 -3.05025635 61.67940385 -6.17578125 59.81640625 C-7.21903564 59.20482666 -8.26229004 58.59324707 -9.3371582 57.96313477 C-10.649021 57.17092529 -11.96088379 56.37871582 -13.3125 55.5625 C-17.499375 53.066875 -21.68625 50.57125 -26 48 C-26 37.11 -26 26.22 -26 15 C-13.5625 8.0625 -13.5625 8.0625 -9.63500977 5.87524414 C-8.62237061 5.30926514 -7.60973145 4.74328613 -6.56640625 4.16015625 C-5.52427979 3.57886963 -4.48215332 2.99758301 -3.40844727 2.39868164 C-1.12440597 1.20986135 -1.12440597 1.20986135 0 0 Z " fill="#67CBD1" transform="translate(456,230)"/>
<path d="M0 0 C8.05432125 3.49701508 16.10358849 7.0461845 19.66113281 15.53857422 C22.13781076 24.81529453 21.90188599 35.10508704 18.1640625 43.96484375 C11.88163388 51.29434381 2.98841104 54.62936324 -5.8359375 57.96484375 C-6.48763916 58.40175537 -7.13934082 58.83866699 -7.81079102 59.28881836 C-9.8359375 59.96484375 -9.8359375 59.96484375 -12.66088867 58.83081055 C-13.72283447 58.19828369 -14.78478027 57.56575684 -15.87890625 56.9140625 C-16.44797195 56.5806636 -17.01703766 56.24726471 -17.60334778 55.90376282 C-19.41931255 54.83478623 -21.22097806 53.74390646 -23.0234375 52.65234375 C-24.24849906 51.92759792 -25.47440219 51.20427261 -26.70117188 50.48242188 C-35.55293708 45.24784417 -35.55293708 45.24784417 -36.8359375 43.96484375 C-37.32023519 39.53703196 -37.49235116 35.10638628 -37.62548828 30.65698242 C-37.68202435 29.16523794 -37.76369699 27.67421467 -37.87158203 26.18530273 C-38.22796471 21.17192568 -38.25927624 16.81961469 -36.8359375 11.96484375 C-32.91741196 8.13323301 -28.82476712 6.23896017 -23.8359375 3.96484375 C-21.64131502 2.67515139 -19.5298884 1.29717224 -17.3984375 -0.09765625 C-11.1272753 -4.08363834 -6.67106832 -2.58621151 0 0 Z " fill="#FB8E02" transform="translate(189.8359375,286.03515625)"/>
<path d="M0 0 C8.31889301 -0.23003651 16.48674509 0.49349854 24.7578125 1.3125 C26.15595566 1.44743689 27.55413968 1.58195101 28.95236206 1.71606445 C32.59900911 2.06696795 36.24507939 2.42354051 39.89105225 2.78137207 C43.62494799 3.14679418 47.3593706 3.50674778 51.09375 3.8671875 C58.39635424 4.57283026 65.69835678 5.28447405 73 6 C72.85879984 8.58366245 72.71221667 11.16682885 72.5625 13.75 C72.52318359 14.47960937 72.48386719 15.20921875 72.44335938 15.9609375 C72.23852902 19.4272973 71.9147998 22.65333026 71 26 C57.42688056 25.01764195 43.86390672 23.94190506 30.31298828 22.69033813 C28.30651055 22.50521385 26.29974294 22.3232399 24.29296875 22.14135742 C15.81401857 21.34618629 7.41853387 20.28214238 -1 19 C-1.08640895 12.55879113 -0.9624507 6.37623588 0 0 Z " fill="#90AFF2" transform="translate(296,246)"/>
<path d="M0 0 C0.33 0 0.66 0 1 0 C1 15.84 1 31.68 1 48 C0.67 47.01 0.34 46.02 0 45 C-1.13260254 45.21148682 -1.13260254 45.21148682 -2.28808594 45.42724609 C-5.77517146 46.07767864 -9.2625829 46.72634771 -12.75 47.375 C-13.93722656 47.59671875 -15.12445313 47.8184375 -16.34765625 48.046875 C-23.88623903 49.44748601 -31.43298463 50.76197149 -39 52 C-39.33 59.92 -39.66 67.84 -40 76 C-40.33 76 -40.66 76 -41 76 C-41 59.5 -41 43 -41 26 C-40.67 26 -40.34 26 -40 26 C-40 27.65 -40 29.3 -40 31 C-38.18242187 30.58621094 -38.18242187 30.58621094 -36.328125 30.1640625 C-30.15634415 28.79389815 -23.95585541 27.57974845 -17.75 26.375 C-16.01363281 26.03082031 -16.01363281 26.03082031 -14.2421875 25.6796875 C-13.12585938 25.463125 -12.00953125 25.2465625 -10.859375 25.0234375 C-9.85358398 24.82669434 -8.84779297 24.62995117 -7.81152344 24.42724609 C-5 24 -5 24 0 24 C0 16.08 0 8.16 0 0 Z " fill="#6967F0" transform="translate(317,129)"/>
<path d="M0 0 C2.69105198 2.17574416 4.45532928 3.91065856 6 7 C6.41204834 11.63554388 5.87454146 14.30416098 3 18 C-0.42094119 20.56570589 -3.84773484 20.43708054 -8 20 C-10.75329021 18.20437595 -12.52627461 16.94745078 -14 14 C-14.47847852 10.9171447 -14.5463489 8.07652779 -14 5 C-9.81316068 -0.12887817 -6.48223319 -1.0289259 0 0 Z " fill="#6965F6" transform="translate(277,433)"/>
<path d="M0 0 C3.5542299 0.64622362 5.59136218 1.42940796 8.4375 3.625 C11.11152716 7.63604074 11.37005974 10.91268487 10.4375 15.625 C7.42569573 19.2244734 5.55278769 20.42584148 0.9375 21.25 C-3.67838456 20.4257349 -5.27216114 18.91533886 -8.5625 15.625 C-10.04146861 12.66706277 -9.9980582 10.92279776 -9.5625 7.625 C-7.129115 3.28836031 -4.97158731 0.8722083 0 0 Z " fill="#6965F7" transform="translate(319.5625,463.375)"/>
<path d="M0 0 C3.27371352 2.6724192 4.78236726 4.06474275 5.25390625 8.2578125 C5.03994944 12.1868375 4.44354952 14.43170218 2 17.5625 C-2.10822685 19.53102537 -5.53501027 20.04963592 -10 19 C-13.17457096 16.4085135 -14.54580349 14.92564305 -15.47265625 10.99609375 C-15.76969168 6.98230734 -15.14518213 5.17956737 -12.625 2.0625 C-8.36618801 -1.28370942 -5.18045569 -1.57193216 0 0 Z " fill="#6A66F7" transform="translate(366,446)"/>
<path d="M0 0 C0.33 0 0.66 0 1 0 C1.66 8.91 2.32 17.82 3 27 C-7.125 24.75 -7.125 24.75 -11.0625 23.375 C-11.81660156 23.11460937 -12.57070313 22.85421875 -13.34765625 22.5859375 C-13.89292969 22.39257812 -14.43820312 22.19921875 -15 22 C-12.11266948 16.72599248 -8.88993627 11.89085438 -5.3125 7.0625 C-4.81427734 6.37865234 -4.31605469 5.69480469 -3.80273438 4.99023438 C-2.56278644 3.30612598 -1.28483892 1.65011543 0 0 Z " fill="#CED8FB" transform="translate(283,373)"/>
<path d="M0 0 C3.3 0 6.6 0 10 0 C10 0.33 10 0.66 10 1 C9.04287109 1.16435547 9.04287109 1.16435547 8.06640625 1.33203125 C7.24011719 1.49058594 6.41382813 1.64914062 5.5625 1.8125 C4.73878906 1.96332031 3.91507812 2.11414063 3.06640625 2.26953125 C2.04353516 2.63111328 2.04353516 2.63111328 1 3 C0.67 3.99 0.34 4.98 0 6 C-1 4 -1 4 0 0 Z " fill="#CCD5EF" transform="translate(307,287)"/>
</svg>
