<?xml version="1.0" encoding="UTF-8"?>
<svg version="1.1" xmlns="http://www.w3.org/2000/svg" width="640" height="640">
<path d="M0 0 C211.2 0 422.4 0 640 0 C640 211.2 640 422.4 640 640 C428.8 640 217.6 640 0 640 C0 428.8 0 217.6 0 0 Z " fill="#FEFEFE" transform="translate(0,0)"/>
<path d="M0 0 C2.61450195 1.12646484 2.61450195 1.12646484 5.23828125 2.7109375 C6.70430786 3.58214233 6.70430786 3.58214233 8.19995117 4.47094727 C9.22709229 5.09928467 10.2542334 5.72762207 11.3125 6.375 C13.46088177 7.66285339 15.60931963 8.95061321 17.7578125 10.23828125 C18.81387695 10.87717285 19.86994141 11.51606445 20.95800781 12.17431641 C23.68154663 13.80887686 26.42121349 15.40582627 29.1796875 16.98046875 C29.94885498 17.42148926 30.71802246 17.86250977 31.51049805 18.31689453 C32.9155086 19.12079314 34.32305678 19.92028032 35.73364258 20.71435547 C39.74226499 23.03570525 43.31514846 25.14561086 46 29 C46.59575991 32.95822429 46.47096373 36.82165195 46.3125 40.8125 C46.27866211 42.42415039 46.27866211 42.42415039 46.24414062 44.06835938 C46.18535598 46.7136685 46.10323957 49.35611413 46 52 C47.07507813 51.97164062 48.15015625 51.94328125 49.2578125 51.9140625 C54.85279959 51.916524 60.33429462 52.65560754 65.875 53.375 C67.41220703 53.56449219 67.41220703 53.56449219 68.98046875 53.7578125 C75.38557739 54.57167637 81.68891045 55.63700062 88 57 C87.91371338 56.06522827 87.91371338 56.06522827 87.82568359 55.11157227 C87.40456343 50.54943715 87.61767281 48.12988886 90.5234375 44.48046875 C93.90181077 40.80178461 97.58314317 38.62062559 102 36.375 C103.5918334 35.53500974 105.18158104 34.6910583 106.76953125 33.84375 C107.61080566 33.39515625 108.45208008 32.9465625 109.31884766 32.484375 C112.20417803 30.88696026 115.01385332 29.19448639 117.82421875 27.46875 C118.79939453 26.87271973 119.77457031 26.27668945 120.77929688 25.66259766 C122.68477094 24.49135176 124.58353022 23.30909444 126.47460938 22.11474609 C127.35310547 21.57930176 128.23160156 21.04385742 129.13671875 20.4921875 C130.29240356 19.77071533 130.29240356 19.77071533 131.47143555 19.03466797 C134.87620486 17.64146411 137.3448597 17.63868842 141 18 C144.12695312 19.32592773 144.12695312 19.32592773 147.28125 21.18359375 C147.85295425 21.51466629 148.42465851 21.84573883 149.01368713 22.18684387 C150.85141247 23.25589273 152.67562526 24.34585194 154.5 25.4375 C155.75899654 26.17727839 157.0186839 26.91588235 158.27905273 27.65332031 C160.74701264 29.1006989 163.20953188 30.55668363 165.66748047 32.02099609 C168.45587827 33.67687541 171.25484428 35.30973263 174.06640625 36.92578125 C184.53117113 43.00393608 184.53117113 43.00393608 187 47 C187.41459656 49.44599915 187.41459656 49.44599915 187.4675293 52.20825195 C187.49312424 53.24645584 187.51871918 54.28465973 187.54508972 55.35432434 C187.5547023 56.47103012 187.56431488 57.5877359 187.57421875 58.73828125 C187.5889473 59.89241013 187.60367584 61.046539 187.61885071 62.23564148 C187.64280025 64.67745339 187.65822231 67.11936161 187.66577148 69.5612793 C187.68736547 73.28927534 187.76755179 77.01314458 187.84960938 80.74023438 C187.86560563 83.11456167 187.87809025 85.48891575 187.88671875 87.86328125 C187.91859787 88.97391434 187.95047699 90.08454742 187.98332214 91.22883606 C187.91761492 98.81118765 187.91761492 98.81118765 185.27883911 102.22984314 C183.26509069 104.02422094 181.26577056 105.54115688 179 107 C178.41602951 107.38931702 177.83205902 107.77863403 177.23039246 108.17974854 C175.68782337 109.15534701 174.09464599 110.04957212 172.5 110.9375 C171.4584375 111.52402344 170.416875 112.11054688 169.34375 112.71484375 C168.18359375 113.35099609 168.18359375 113.35099609 167 114 C169.69590298 122.69291165 173.39748955 130.83234232 177.1484375 139.11328125 C177.62796875 140.18449219 178.1075 141.25570312 178.6015625 142.359375 C179.25632568 143.80521973 179.25632568 143.80521973 179.92431641 145.28027344 C180.94624689 147.86409223 181.55394109 150.26392316 182 153 C183.5159375 152.01 183.5159375 152.01 185.0625 151 C188.97276282 148.83023341 191.47080365 148.24513394 196 149 C197.69726388 149.82216149 199.36423784 150.70797926 201.0078125 151.6328125 C201.98041016 152.17631348 202.95300781 152.71981445 203.95507812 153.27978516 C204.95990234 153.84745605 205.96472656 154.41512695 207 155 C207.95841797 155.53286621 208.91683594 156.06573242 209.90429688 156.61474609 C212.81644332 158.23397444 215.72129239 159.86569398 218.625 161.5 C219.59695313 162.04269531 220.56890625 162.58539063 221.5703125 163.14453125 C238.48563783 172.67076957 238.48563783 172.67076957 242 177 C242.38095093 179.33920288 242.38095093 179.33920288 242.38818359 182.12646484 C242.39764008 183.17119965 242.40709656 184.21593445 242.4168396 185.29232788 C242.40773056 186.98453964 242.40773056 186.98453964 242.3984375 188.7109375 C242.40130768 189.87122467 242.40417786 191.03151184 242.40713501 192.22695923 C242.40917798 194.68321215 242.40363192 197.13948126 242.39111328 199.59570312 C242.37509279 203.35323607 242.39094009 207.10968856 242.41015625 210.8671875 C242.40817329 213.25260654 242.40432853 215.63802491 242.3984375 218.0234375 C242.40451019 219.14753021 242.41058289 220.27162292 242.4168396 221.42977905 C242.40738312 222.48081818 242.39792664 223.5318573 242.38818359 224.61474609 C242.38579681 225.53613373 242.38341003 226.45752136 242.38095093 227.40682983 C241.9186072 230.55404874 240.84313924 232.42686757 239 235 C236.52661133 236.80175781 236.52661133 236.80175781 233.58203125 238.453125 C232.49962158 239.06849121 231.41721191 239.68385742 230.30200195 240.31787109 C229.15046631 240.95547363 227.99893066 241.59307617 226.8125 242.25 C225.62859712 242.91519464 224.44524932 243.58137814 223.26245117 244.24853516 C220.92161481 245.56706973 218.57722464 246.87846325 216.23046875 248.18652344 C213.45745569 249.74319975 210.70754485 251.32951438 207.96875 252.9453125 C207.25227295 253.36393555 206.5357959 253.78255859 205.79760742 254.21386719 C204.52255158 254.95967528 203.25148674 255.71237267 201.9855957 256.47363281 C197.96943549 258.78425337 194.65219425 260.0101355 190 260 C187.05534011 258.82676818 184.47170563 257.21287799 181.8125 255.5 C180.43011705 254.62436315 179.04098434 253.75926892 177.64453125 252.90625 C177.03971924 252.51759766 176.43490723 252.12894531 175.81176758 251.72851562 C174.01292743 250.85503016 174.01292743 250.85503016 171.98632812 251.12109375 C169.32058632 252.30062552 168.28268753 253.80297914 166.57421875 256.15625 C165.94193359 257.01476562 165.30964844 257.87328125 164.65820312 258.7578125 C164.00787109 259.66273438 163.35753906 260.56765625 162.6875 261.5 C161.40052312 263.26098956 160.11276658 265.0214096 158.82421875 266.78125 C158.19563965 267.64492188 157.56706055 268.50859375 156.91943359 269.3984375 C154.02229731 273.32515897 151.02080554 277.16799267 148 281 C149.1446875 282.11375 149.1446875 282.11375 150.3125 283.25 C156.36967835 289.44804297 156.36967835 289.44804297 156.40405273 295.04052734 C156.41673691 296.04191742 156.42942108 297.0433075 156.44248962 298.07504272 C156.43808617 299.68918564 156.43808617 299.68918564 156.43359375 301.3359375 C156.4388356 302.44804596 156.44407745 303.56015442 156.44947815 304.70596313 C156.45589996 307.05787318 156.45455933 309.40981535 156.44604492 311.76171875 C156.43754789 315.35475133 156.4662755 318.94618751 156.49804688 322.5390625 C156.49965933 324.82552036 156.49908052 327.11198102 156.49609375 329.3984375 C156.50732773 330.47048431 156.51856171 331.54253113 156.53013611 332.64706421 C156.47492689 338.57759537 156.17671184 342.418307 152 347 C149.98535156 348.55151367 149.98535156 348.55151367 147.890625 349.66796875 C147.13652344 350.08626953 146.38242187 350.50457031 145.60546875 350.93554688 C144.82816406 351.34869141 144.05085938 351.76183594 143.25 352.1875 C141.68713664 353.02483899 140.12948894 353.87201177 138.578125 354.73046875 C137.89137695 355.09551514 137.20462891 355.46056152 136.49707031 355.83666992 C135.75602051 356.41251831 135.75602051 356.41251831 135 357 C135 360.73700797 136.07763478 362.01901982 138.11328125 365.12890625 C138.77948486 366.15564453 139.44568848 367.18238281 140.13208008 368.24023438 C140.85161865 369.33658203 141.57115723 370.43292969 142.3125 371.5625 C143.41526377 373.26312705 144.51487528 374.9657638 145.61430359 376.66854858 C146.71547002 378.37382684 147.81864746 380.07779296 148.921875 381.78173828 C151.75341404 386.16676503 154.55559377 390.56769498 157.3125 395 C157.74925049 395.68521729 158.18600098 396.37043457 158.63598633 397.07641602 C163.17284435 404.41823818 165.56489473 411.59225417 165.4375 420.25 C165.42722778 421.34526001 165.42722778 421.34526001 165.41674805 422.46264648 C165.12162198 432.58867595 162.15164405 441.91300726 156 450 C155.52046875 450.66515625 155.0409375 451.3303125 154.546875 452.015625 C147.34278903 461.17810327 137.19293132 465.71140701 126 468 C120.88988579 468.53669824 115.77757132 468.71770685 110.64453125 468.87890625 C109.15362749 468.93534827 107.66276777 468.99296399 106.17195129 469.05166626 C102.20473015 469.20485815 98.23711764 469.34270538 94.2692337 469.47747421 C90.14773388 469.62011636 86.02677663 469.77693217 81.90576172 469.93286133 C76.94798469 470.11961856 71.99017603 470.30508239 67.03210449 470.48387146 C57.41151751 470.83088586 47.79328838 471.20758371 38.17578125 471.6328125 C36.5304818 471.7050428 36.5304818 471.7050428 34.85194397 471.7787323 C30.82816112 471.95591616 26.80441721 472.13372733 22.78091431 472.31716919 C13.38262253 472.74313486 3.99470171 473.07764801 -5.4140625 473.12109375 C-6.190914 473.1274736 -6.9677655 473.13385345 -7.76815796 473.14042664 C-20.04609513 473.12934531 -31.31125208 468.72075613 -40.3125 460.25 C-50.1660798 449.66951677 -54.54566899 437.07122334 -54.32446289 422.72167969 C-53.35563148 411.6089137 -47.37865939 401.34180908 -42.0625 391.75 C-41.40832972 390.55214757 -40.75519265 389.35373037 -40.10302734 388.15478516 C-38.75672576 385.68234044 -37.40545827 383.21271411 -36.05029297 380.74511719 C-32.70320825 374.64265348 -29.41940279 368.50599912 -26.125 362.375 C-24.47058097 359.30628018 -22.81584559 356.23773167 -21.16064453 353.16943359 C-20.42222553 351.78920826 -19.70004065 350.40008131 -19 349 C-19.70125 349.433125 -20.4025 349.86625 -21.125 350.3125 C-22.07375 350.869375 -23.0225 351.42625 -24 352 C-25.3921875 352.8353125 -25.3921875 352.8353125 -26.8125 353.6875 C-30.79092675 355.32567572 -33.82535546 355.94294176 -38 355 C-42.37528704 353.0475054 -46.412498 350.61567774 -50.5 348.125 C-51.65691146 347.43449851 -52.81455083 346.74521519 -53.97290039 346.05712891 C-56.2663212 344.69002147 -58.55062493 343.31037891 -60.83251953 341.92382812 C-63.59434207 340.24638388 -66.36908091 338.594608 -69.15234375 336.953125 C-70.5818469 336.09561055 -72.01033314 335.23639714 -73.4375 334.375 C-74.07429688 333.99875488 -74.71109375 333.62250977 -75.3671875 333.23486328 C-79.14663958 330.89374945 -81.21652583 329.07130336 -83 325 C-83.46675549 321.19044183 -83.46802881 317.40098753 -83.46875 313.56640625 C-83.48017029 311.90036598 -83.48017029 311.90036598 -83.49182129 310.20066833 C-83.50261342 307.85474899 -83.50547902 305.50878164 -83.50097656 303.1628418 C-83.50000433 299.5784476 -83.54163788 295.9961946 -83.5859375 292.41210938 C-83.59114473 290.13021279 -83.59383269 287.84830878 -83.59375 285.56640625 C-83.6183429 283.96304161 -83.6183429 283.96304161 -83.64343262 282.32728577 C-83.56654414 274.027616 -83.56654414 274.027616 -80.68041992 270.4230957 C-76.83932389 266.95075049 -76.83932389 266.95075049 -74.51953125 265.6640625 C-73.60977539 265.15166016 -73.60977539 265.15166016 -72.68164062 264.62890625 C-71.75641602 264.13197266 -71.75641602 264.13197266 -70.8125 263.625 C-70.18408203 263.27050781 -69.55566406 262.91601562 -68.90820312 262.55078125 C-64.30399373 260 -64.30399373 260 -62 260 C-62.56714722 258.6996582 -62.56714722 258.6996582 -63.14575195 257.37304688 C-64.56192601 254.12342351 -65.97626257 250.87301284 -67.3894043 247.62207031 C-67.99870781 246.22136517 -68.60871942 244.8209678 -69.21948242 243.42089844 C-75.46500558 229.101645 -75.46500558 229.101645 -78 222 C-78.56847656 222.30035156 -79.13695312 222.60070312 -79.72265625 222.91015625 C-80.88087891 223.48056641 -80.88087891 223.48056641 -82.0625 224.0625 C-82.81660156 224.44535156 -83.57070312 224.82820312 -84.34765625 225.22265625 C-88.83751405 226.53853505 -92.74680422 225.57379236 -96.94335938 223.65234375 C-97.90048828 223.08644531 -98.85761719 222.52054688 -99.84375 221.9375 C-100.91866699 221.30956543 -101.99358398 220.68163086 -103.10107422 220.03466797 C-104.22271973 219.36322754 -105.34436523 218.69178711 -106.5 218 C-107.66502823 217.31181712 -108.83055865 216.62448369 -109.99658203 215.93798828 C-112.29088416 214.5848828 -114.58039986 213.22457836 -116.86816406 211.86035156 C-119.53286671 210.27748329 -122.20899734 208.7199511 -124.8984375 207.1796875 C-126.22417326 206.4118293 -127.54971587 205.64363744 -128.875 204.875 C-129.98617187 204.23304688 -131.09734375 203.59109375 -132.2421875 202.9296875 C-136.14336847 200.19996597 -138.491386 197.525842 -140 193 C-140.09664774 191.44642318 -140.13812347 189.88908329 -140.14526367 188.33251953 C-140.15164352 187.38788849 -140.15802338 186.44325745 -140.16459656 185.47000122 C-140.16570938 184.45122894 -140.1668222 183.43245667 -140.16796875 182.3828125 C-140.17129715 181.33350555 -140.17462555 180.28419861 -140.17805481 179.20309448 C-140.18311969 176.98224323 -140.18546327 174.76138436 -140.18530273 172.54052734 C-140.18748689 169.14537991 -140.20564102 165.75055858 -140.22460938 162.35546875 C-140.22754385 160.19791778 -140.22952828 158.04036526 -140.23046875 155.8828125 C-140.23765427 154.86808868 -140.24483978 153.85336487 -140.25224304 152.80789185 C-140.24916641 151.85695648 -140.24608978 150.90602112 -140.24291992 149.92626953 C-140.24434494 149.09370636 -140.24576996 148.26114319 -140.24723816 147.40335083 C-139.78774063 142.93667068 -138.53057 140.5007936 -135.26806641 137.42138672 C-132.24213087 135.07424058 -129.04920966 133.1367583 -125.7109375 131.2578125 C-125.12639801 130.92635223 -124.54185852 130.59489197 -123.93960571 130.25338745 C-122.08788875 129.20488943 -120.23167856 128.16468177 -118.375 127.125 C-116.54776563 126.09453893 -114.72150953 125.062363 -112.89546204 124.02980042 C-111.69371322 123.35107363 -110.49107109 122.673926 -109.28752136 121.99839783 C-106.35352137 120.34855486 -103.4383226 118.67570557 -100.55200195 116.94360352 C-99.4868335 116.30608154 -98.42166504 115.66855957 -97.32421875 115.01171875 C-96.38151123 114.43897217 -95.43880371 113.86622559 -94.4675293 113.27612305 C-92 112 -92 112 -88.4375 111.6875 C-82.38908947 113.99689311 -76.70848035 117.09342622 -71.4140625 120.8203125 C-70.61742187 121.20960938 -69.82078125 121.59890625 -69 122 C-65.88048016 120.86423197 -64.23136578 119.38006281 -62.30078125 116.7265625 C-61.57604614 115.74465942 -61.57604614 115.74465942 -60.83666992 114.74291992 C-60.08220581 113.69454956 -60.08220581 113.69454956 -59.3125 112.625 C-58.25304011 111.17546252 -57.19313961 109.72624699 -56.1328125 108.27734375 C-55.34632324 107.19622314 -55.34632324 107.19622314 -54.54394531 106.09326172 C-53.1196113 104.1621675 -51.6626741 102.26514259 -50.1796875 100.37890625 C-49.75647217 99.8360498 -49.33325684 99.29319336 -48.8972168 98.73388672 C-47.75259757 97.27071453 -46.60111006 95.81292285 -45.44921875 94.35546875 C-44.97097656 93.57816406 -44.49273437 92.80085938 -44 92 C-45.09700843 88.7089747 -45.87619858 88.03976712 -48.5 85.9375 C-51.90051458 83.19897084 -51.90051458 83.19897084 -53 81 C-53.10001223 79.45389052 -53.13832359 77.90357332 -53.14526367 76.35424805 C-53.15164352 75.38952072 -53.15802338 74.4247934 -53.16459656 73.43083191 C-53.16570938 72.38502457 -53.1668222 71.33921722 -53.16796875 70.26171875 C-53.17296135 68.65234184 -53.17296135 68.65234184 -53.17805481 67.01045227 C-53.18312503 64.73654612 -53.18546311 62.4626325 -53.18530273 60.1887207 C-53.18748445 56.71227699 -53.20562619 53.23615295 -53.22460938 49.75976562 C-53.22754423 47.55208442 -53.22952841 45.34440171 -53.23046875 43.13671875 C-53.23765427 42.0969841 -53.24483978 41.05724945 -53.25224304 39.98600769 C-53.24916641 39.01182388 -53.24608978 38.03764008 -53.24291992 37.03393555 C-53.24434494 36.18059128 -53.24576996 35.32724701 -53.24723816 34.44804382 C-52.83219653 30.33848364 -51.76499291 27.7079702 -48.73022461 24.89941406 C-45.98637139 22.99051859 -43.21847549 21.26770028 -40.31640625 19.609375 C-39.23004883 18.98554932 -38.14369141 18.36172363 -37.02441406 17.71899414 C-35.88198242 17.06922607 -34.73955078 16.41945801 -33.5625 15.75 C-31.79646192 14.74268905 -30.03080541 13.73471154 -28.26516724 12.72669983 C-26.54653451 11.74587946 -24.82722757 10.76624076 -23.10791016 9.78662109 C-20.51659957 8.29697373 -17.94543164 6.78290953 -15.38671875 5.23828125 C-14.7537085 4.86026367 -14.12069824 4.48224609 -13.46850586 4.09277344 C-11.88574975 3.14388428 -10.30972853 2.18378515 -8.734375 1.22265625 C-5.49337489 -0.2265338 -3.52943988 -0.2748972 0 0 Z " fill="#072C76" transform="translate(268,101)"/>
<path d="M0 0 C2.61450195 1.12646484 2.61450195 1.12646484 5.23828125 2.7109375 C6.70430786 3.58214233 6.70430786 3.58214233 8.19995117 4.47094727 C9.22709229 5.09928467 10.2542334 5.72762207 11.3125 6.375 C13.46088177 7.66285339 15.60931963 8.95061321 17.7578125 10.23828125 C18.81387695 10.87717285 19.86994141 11.51606445 20.95800781 12.17431641 C23.68154663 13.80887686 26.42121349 15.40582627 29.1796875 16.98046875 C29.94885498 17.42148926 30.71802246 17.86250977 31.51049805 18.31689453 C32.9155086 19.12079314 34.32305678 19.92028032 35.73364258 20.71435547 C39.74226499 23.03570525 43.31514846 25.14561086 46 29 C46.59575991 32.95822429 46.47096373 36.82165195 46.3125 40.8125 C46.27866211 42.42415039 46.27866211 42.42415039 46.24414062 44.06835938 C46.18535598 46.7136685 46.10323957 49.35611413 46 52 C47.07507813 51.97164062 48.15015625 51.94328125 49.2578125 51.9140625 C54.85279959 51.916524 60.33429462 52.65560754 65.875 53.375 C67.41220703 53.56449219 67.41220703 53.56449219 68.98046875 53.7578125 C75.38557739 54.57167637 81.68891045 55.63700062 88 57 C87.91371338 56.06522827 87.91371338 56.06522827 87.82568359 55.11157227 C87.40456343 50.54943715 87.61767281 48.12988886 90.5234375 44.48046875 C93.90181077 40.80178461 97.58314317 38.62062559 102 36.375 C103.5918334 35.53500974 105.18158104 34.6910583 106.76953125 33.84375 C107.61080566 33.39515625 108.45208008 32.9465625 109.31884766 32.484375 C112.20417803 30.88696026 115.01385332 29.19448639 117.82421875 27.46875 C118.79939453 26.87271973 119.77457031 26.27668945 120.77929688 25.66259766 C122.68477094 24.49135176 124.58353022 23.30909444 126.47460938 22.11474609 C127.35310547 21.57930176 128.23160156 21.04385742 129.13671875 20.4921875 C130.29240356 19.77071533 130.29240356 19.77071533 131.47143555 19.03466797 C134.87620486 17.64146411 137.3448597 17.63868842 141 18 C144.12695312 19.32592773 144.12695312 19.32592773 147.28125 21.18359375 C147.85295425 21.51466629 148.42465851 21.84573883 149.01368713 22.18684387 C150.85141247 23.25589273 152.67562526 24.34585194 154.5 25.4375 C155.75899654 26.17727839 157.0186839 26.91588235 158.27905273 27.65332031 C160.74701264 29.1006989 163.20953188 30.55668363 165.66748047 32.02099609 C168.45587827 33.67687541 171.25484428 35.30973263 174.06640625 36.92578125 C184.53117113 43.00393608 184.53117113 43.00393608 187 47 C187.41459656 49.44599915 187.41459656 49.44599915 187.4675293 52.20825195 C187.49312424 53.24645584 187.51871918 54.28465973 187.54508972 55.35432434 C187.5547023 56.47103012 187.56431488 57.5877359 187.57421875 58.73828125 C187.5889473 59.89241013 187.60367584 61.046539 187.61885071 62.23564148 C187.64280025 64.67745339 187.65822231 67.11936161 187.66577148 69.5612793 C187.68736547 73.28927534 187.76755179 77.01314458 187.84960938 80.74023438 C187.86560563 83.11456167 187.87809025 85.48891575 187.88671875 87.86328125 C187.91859787 88.97391434 187.95047699 90.08454742 187.98332214 91.22883606 C187.91761492 98.81118765 187.91761492 98.81118765 185.27883911 102.22984314 C183.26509069 104.02422094 181.26577056 105.54115688 179 107 C178.41602951 107.38931702 177.83205902 107.77863403 177.23039246 108.17974854 C175.68782337 109.15534701 174.09464599 110.04957212 172.5 110.9375 C171.4584375 111.52402344 170.416875 112.11054688 169.34375 112.71484375 C168.18359375 113.35099609 168.18359375 113.35099609 167 114 C169.68589469 122.66977571 173.38423679 130.77793035 177.1484375 139.02539062 C177.62796875 140.09337891 178.1075 141.16136719 178.6015625 142.26171875 C179.03807129 143.22037842 179.47458008 144.17903809 179.92431641 145.16674805 C181 148 181 148 182 154 C176.39 157.3 170.78 160.6 165 164 C162.78932027 160.68398041 161.29208078 157.24411975 159.7421875 153.59375 C159.43427277 152.87264038 159.12635803 152.15153076 158.80911255 151.40856934 C158.16036865 149.88617815 157.51326022 148.36308914 156.86767578 146.83935547 C155.87759021 144.50610413 154.87853023 142.1768342 153.87890625 139.84765625 C153.2494483 138.36742198 152.62052384 136.88696072 151.9921875 135.40625 C151.6922287 134.7093103 151.3922699 134.01237061 151.08322144 133.29431152 C149.84953123 130.36242006 149 128.21526435 149 125 C148.43152344 125.30035156 147.86304688 125.60070312 147.27734375 125.91015625 C146.50519531 126.29042969 145.73304688 126.67070312 144.9375 127.0625 C144.18339844 127.44535156 143.42929687 127.82820313 142.65234375 128.22265625 C138.04843053 129.57196219 134.13018644 128.52071737 129.84130859 126.54467773 C128.78766113 125.93052002 127.73401367 125.3163623 126.6484375 124.68359375 C126.06768463 124.34884537 125.48693176 124.01409698 124.88858032 123.66920471 C123.04436905 122.60248776 121.20984602 121.52022882 119.375 120.4375 C118.16855054 119.737928 116.96152247 119.03935285 115.75390625 118.34179688 C112.75327199 116.60288169 109.76813858 114.83934538 106.78942871 113.06317139 C104.97958935 111.98787321 103.16230521 110.92592048 101.34472656 109.86376953 C100.17990256 109.17163164 99.01549745 108.47878817 97.8515625 107.78515625 C96.82111816 107.17679932 95.79067383 106.56844238 94.72900391 105.94165039 C91.04023314 103.3171385 88.35051439 100.99698976 87.54589844 96.4128418 C87.5668457 95.51734619 87.58779297 94.62185059 87.609375 93.69921875 C87.62226563 92.72275391 87.63515625 91.74628906 87.6484375 90.74023438 C87.69871094 89.22913086 87.69871094 89.22913086 87.75 87.6875 C87.76804687 86.66076172 87.78609375 85.63402344 87.8046875 84.57617188 C87.85168937 82.04982115 87.91737728 79.52539531 88 77 C86.86691406 77.04125 85.73382813 77.0825 84.56640625 77.125 C76.97645623 77.125 69.45359407 75.95748468 61.9375 75 C60.38873447 74.80678927 58.8399067 74.61407674 57.29101562 74.421875 C53.5266013 73.95366004 49.7630945 73.47870203 46 73 C46.061875 74.216875 46.12375 75.43375 46.1875 76.6875 C46.1682073 80.63575609 45.58971958 82.88696745 43 86 C40.37963867 87.94165039 40.37963867 87.94165039 37.23046875 89.78515625 C36.66160446 90.12209 36.09274017 90.45902374 35.50663757 90.8061676 C33.67836984 91.8838298 31.84029326 92.94302557 30 94 C28.78188721 94.70786678 27.56395048 95.41603661 26.34619141 96.12451172 C22.67963292 98.24891308 18.99708322 100.34457132 15.3125 102.4375 C14.03960484 103.16322083 12.76681795 103.8891316 11.49414062 104.61523438 C-0.70612502 111.5675328 -0.70612502 111.5675328 -7 111 C-9.75281164 109.75613696 -12.19253727 108.13185915 -14.6875 106.4375 C-18.99044559 103.18661245 -18.99044559 103.18661245 -24.01586914 102.13916016 C-26.60627498 103.26303994 -27.54485793 104.60368548 -29.171875 106.90234375 C-29.75050293 107.70615479 -30.32913086 108.50996582 -30.92529297 109.33813477 C-31.52744629 110.19592529 -32.12959961 111.05371582 -32.75 111.9375 C-33.99570996 113.67568863 -35.24309444 115.41267844 -36.4921875 117.1484375 C-37.09256836 117.98600586 -37.69294922 118.82357422 -38.31152344 119.68652344 C-40.9791607 123.34160306 -43.83173063 126.82061659 -46.7421875 130.28515625 C-48.19714776 131.914335 -48.19714776 131.914335 -48 134 C-46.02053408 135.36363208 -44.0180755 136.69418644 -42 138 C-39.33661857 140.20417773 -38.66397423 141.64233226 -38 145 C-37.90155423 146.5862348 -37.85200855 148.17590429 -37.83886719 149.76513672 C-37.82925964 150.70646454 -37.8196521 151.64779236 -37.80975342 152.61764526 C-37.80550354 153.6281192 -37.80125366 154.63859314 -37.796875 155.6796875 C-37.79117493 156.72520782 -37.78547485 157.77072815 -37.77960205 158.84793091 C-37.77016204 161.05860383 -37.76362204 163.26929076 -37.75976562 165.47998047 C-37.7500564 168.8553935 -37.71902157 172.23019846 -37.6875 175.60546875 C-37.68096993 177.75520472 -37.67571947 179.90494504 -37.671875 182.0546875 C-37.6595282 183.06111298 -37.6471814 184.06753845 -37.63446045 185.10446167 C-37.65152957 190.49423794 -37.92724709 194.36291131 -41 199 C-44.38927371 202.15334804 -48.19445221 204.42857594 -52.1875 206.75 C-53.75564453 207.67039062 -53.75564453 207.67039062 -55.35546875 208.609375 C-58 210 -58 210 -60 210 C-59.54560547 211.08007324 -59.09121094 212.16014648 -58.62304688 213.27294922 C-56.94222073 217.27080153 -55.26605473 221.27059343 -53.59130859 225.27099609 C-52.86504579 227.00395339 -52.13751082 228.73637809 -51.40869141 230.46826172 C-50.36287935 232.9540218 -49.3216188 235.44164521 -48.28125 237.9296875 C-47.95314331 238.70682098 -47.62503662 239.48395447 -47.2869873 240.28463745 C-45 245.77225659 -45 245.77225659 -45 248 C-44.34 248.33 -43.68 248.66 -43 249 C-48.94 252.3 -54.88 255.6 -61 259 C-64.30825394 255.69174606 -65.66024263 252.51547948 -67.35546875 248.26953125 C-67.66196854 247.51911057 -67.96846832 246.76868988 -68.28425598 245.99552917 C-69.25913911 243.60401487 -70.22342652 241.20838957 -71.1875 238.8125 C-71.84761269 237.18786864 -72.50841209 235.56351612 -73.16992188 233.93945312 C-74.78792669 229.96282409 -76.39644364 225.98247603 -78 222 C-78.56847656 222.30035156 -79.13695312 222.60070312 -79.72265625 222.91015625 C-80.88087891 223.48056641 -80.88087891 223.48056641 -82.0625 224.0625 C-82.81660156 224.44535156 -83.57070312 224.82820312 -84.34765625 225.22265625 C-88.93235311 226.56633029 -92.67049099 225.60873339 -96.94335938 223.65234375 C-97.90048828 223.08644531 -98.85761719 222.52054688 -99.84375 221.9375 C-100.91866699 221.30956543 -101.99358398 220.68163086 -103.10107422 220.03466797 C-104.22271973 219.36322754 -105.34436523 218.69178711 -106.5 218 C-107.66502823 217.31181712 -108.83055865 216.62448369 -109.99658203 215.93798828 C-112.29088416 214.5848828 -114.58039986 213.22457836 -116.86816406 211.86035156 C-119.53286671 210.27748329 -122.20899734 208.7199511 -124.8984375 207.1796875 C-126.22417326 206.4118293 -127.54971587 205.64363744 -128.875 204.875 C-129.98617187 204.23304688 -131.09734375 203.59109375 -132.2421875 202.9296875 C-136.14336847 200.19996597 -138.491386 197.525842 -140 193 C-140.09664774 191.44642318 -140.13812347 189.88908329 -140.14526367 188.33251953 C-140.15164352 187.38788849 -140.15802338 186.44325745 -140.16459656 185.47000122 C-140.16570938 184.45122894 -140.1668222 183.43245667 -140.16796875 182.3828125 C-140.17129715 181.33350555 -140.17462555 180.28419861 -140.17805481 179.20309448 C-140.18311969 176.98224323 -140.18546327 174.76138436 -140.18530273 172.54052734 C-140.18748689 169.14537991 -140.20564102 165.75055858 -140.22460938 162.35546875 C-140.22754385 160.19791778 -140.22952828 158.04036526 -140.23046875 155.8828125 C-140.23765427 154.86808868 -140.24483978 153.85336487 -140.25224304 152.80789185 C-140.24916641 151.85695648 -140.24608978 150.90602112 -140.24291992 149.92626953 C-140.24434494 149.09370636 -140.24576996 148.26114319 -140.24723816 147.40335083 C-139.78774063 142.93667068 -138.53057 140.5007936 -135.26806641 137.42138672 C-132.24213087 135.07424058 -129.04920966 133.1367583 -125.7109375 131.2578125 C-125.12639801 130.92635223 -124.54185852 130.59489197 -123.93960571 130.25338745 C-122.08788875 129.20488943 -120.23167856 128.16468177 -118.375 127.125 C-116.54776563 126.09453893 -114.72150953 125.062363 -112.89546204 124.02980042 C-111.69371322 123.35107363 -110.49107109 122.673926 -109.28752136 121.99839783 C-106.35352137 120.34855486 -103.4383226 118.67570557 -100.55200195 116.94360352 C-99.4868335 116.30608154 -98.42166504 115.66855957 -97.32421875 115.01171875 C-96.38151123 114.43897217 -95.43880371 113.86622559 -94.4675293 113.27612305 C-92 112 -92 112 -88.4375 111.6875 C-82.38908947 113.99689311 -76.70848035 117.09342622 -71.4140625 120.8203125 C-70.61742187 121.20960938 -69.82078125 121.59890625 -69 122 C-65.88048016 120.86423197 -64.23136578 119.38006281 -62.30078125 116.7265625 C-61.57604614 115.74465942 -61.57604614 115.74465942 -60.83666992 114.74291992 C-60.08220581 113.69454956 -60.08220581 113.69454956 -59.3125 112.625 C-58.25304011 111.17546252 -57.19313961 109.72624699 -56.1328125 108.27734375 C-55.34632324 107.19622314 -55.34632324 107.19622314 -54.54394531 106.09326172 C-53.1196113 104.1621675 -51.6626741 102.26514259 -50.1796875 100.37890625 C-49.75647217 99.8360498 -49.33325684 99.29319336 -48.8972168 98.73388672 C-47.75259757 97.27071453 -46.60111006 95.81292285 -45.44921875 94.35546875 C-44.97097656 93.57816406 -44.49273437 92.80085938 -44 92 C-45.09700843 88.7089747 -45.87619858 88.03976712 -48.5 85.9375 C-51.90051458 83.19897084 -51.90051458 83.19897084 -53 81 C-53.10001223 79.45389052 -53.13832359 77.90357332 -53.14526367 76.35424805 C-53.15164352 75.38952072 -53.15802338 74.4247934 -53.16459656 73.43083191 C-53.16570938 72.38502457 -53.1668222 71.33921722 -53.16796875 70.26171875 C-53.17296135 68.65234184 -53.17296135 68.65234184 -53.17805481 67.01045227 C-53.18312503 64.73654612 -53.18546311 62.4626325 -53.18530273 60.1887207 C-53.18748445 56.71227699 -53.20562619 53.23615295 -53.22460938 49.75976562 C-53.22754423 47.55208442 -53.22952841 45.34440171 -53.23046875 43.13671875 C-53.23765427 42.0969841 -53.24483978 41.05724945 -53.25224304 39.98600769 C-53.24916641 39.01182388 -53.24608978 38.03764008 -53.24291992 37.03393555 C-53.24434494 36.18059128 -53.24576996 35.32724701 -53.24723816 34.44804382 C-52.83219653 30.33848364 -51.76499291 27.7079702 -48.73022461 24.89941406 C-45.98637139 22.99051859 -43.21847549 21.26770028 -40.31640625 19.609375 C-39.23004883 18.98554932 -38.14369141 18.36172363 -37.02441406 17.71899414 C-35.88198242 17.06922607 -34.73955078 16.41945801 -33.5625 15.75 C-31.79646192 14.74268905 -30.03080541 13.73471154 -28.26516724 12.72669983 C-26.54653451 11.74587946 -24.82722757 10.76624076 -23.10791016 9.78662109 C-20.51659957 8.29697373 -17.94543164 6.78290953 -15.38671875 5.23828125 C-14.7537085 4.86026367 -14.12069824 4.48224609 -13.46850586 4.09277344 C-11.88574975 3.14388428 -10.30972853 2.18378515 -8.734375 1.22265625 C-5.49337489 -0.2265338 -3.52943988 -0.2748972 0 0 Z " fill="#072B76" transform="translate(268,101)"/>
<path d="M0 0 C9.20288141 -0.35221659 18.10039865 0.74848933 27.1875 2 C28.63077138 2.19336625 30.07413047 2.38607902 31.51757812 2.578125 C35.01276009 3.04456939 38.50667914 3.51979211 42 4 C42.0093457 4.64026123 42.01869141 5.28052246 42.02832031 5.94018555 C42.08218847 8.85672375 42.16580199 11.77168625 42.25 14.6875 C42.26417969 15.69490234 42.27835938 16.70230469 42.29296875 17.74023438 C42.32519531 18.71669922 42.35742188 19.69316406 42.390625 20.69921875 C42.41157227 21.59471436 42.43251953 22.49020996 42.45410156 23.4128418 C43.42051541 27.99293461 46.0206461 30.33267757 49.80224609 32.90942383 C51.39673584 33.7992395 51.39673584 33.7992395 53.0234375 34.70703125 C53.60606354 35.03611984 54.18868958 35.36520844 54.78897095 35.70426941 C56.6456681 36.75017118 58.50993772 37.78160366 60.375 38.8125 C62.19393043 39.83142212 64.01121668 40.85323327 65.82843018 41.87521362 C67.04231985 42.55506756 68.25844 43.23095409 69.47674561 43.90286255 C72.62780869 45.64369885 75.73015279 47.43241304 78.79003906 49.32958984 C79.40859772 49.70548752 80.02715637 50.08138519 80.66445923 50.46867371 C82.37358992 51.51139627 84.0712385 52.57287247 85.76806641 53.63549805 C89.69523475 55.29352372 91.90368007 54.98896955 96 54 C97.3479743 53.36345658 98.68596724 52.70394612 100 52 C100.99 52 101.98 52 103 52 C104.81531267 56.32309959 106.63007449 60.64642984 108.44433594 64.9699707 C109.06104809 66.43943463 109.67790825 67.90883646 110.29492188 69.37817383 C111.18398745 71.49544047 112.0725129 73.61293309 112.9609375 75.73046875 C113.37199234 76.70888985 113.37199234 76.70888985 113.79135132 77.70707703 C114.5306945 79.4700766 115.26550864 81.23497357 116 83 C116.41330566 83.89243408 116.82661133 84.78486816 117.25244141 85.7043457 C118.1106024 88.33964545 118.14228864 89.48548586 117 92 C114.55817 93.65508287 112.20342782 95.09576329 109.625 96.5 C108.25864373 97.25252329 106.89649332 98.01274345 105.5390625 98.78125 C104.93271973 99.11189453 104.32637695 99.44253906 103.70166016 99.78320312 C101.56472845 101.31124726 100.404686 102.77266078 99 105 C98.53601791 107.50192308 98.53601791 107.50192308 98.58007812 110.23999023 C98.56416626 111.28464951 98.54825439 112.32930878 98.53186035 113.40562439 C98.53165894 114.52860428 98.53145752 115.65158417 98.53125 116.80859375 C98.52363647 117.96746597 98.51602295 119.1263382 98.50817871 120.32032776 C98.49737553 122.77057745 98.49452547 125.2208732 98.49902344 127.67114258 C98.49999552 131.42021465 98.45837719 135.16723919 98.4140625 138.91601562 C98.4088554 141.29687073 98.40616731 143.67773295 98.40625 146.05859375 C98.38985474 147.17954941 98.37345947 148.30050507 98.35656738 149.45542908 C98.35537483 155.74506261 98.35537483 155.74506261 101.34960938 161.12133789 C103.21339468 162.44243479 105.09917156 163.73278104 107 165 C106.42294557 169.10784511 104.22714248 171.55823242 101.6875 174.75 C100.78666829 175.89367187 99.88698361 177.03824788 98.98828125 178.18359375 C98.5082666 178.79315918 98.02825195 179.40272461 97.53369141 180.03076172 C94.76409028 183.58689077 92.07263538 187.20166359 89.375 190.8125 C88.84221436 191.52438477 88.30942871 192.23626953 87.76049805 192.96972656 C86.50623882 194.64591604 85.25300267 196.322871 84 198 C78.23187931 197.3815855 73.80165179 194.12293513 68.97070312 191.15039062 C64.84868862 188.71625315 61.92443351 187.19059725 57 188 C54.22236928 189.25677254 54.22236928 189.25677254 51.6875 191 C47.04166667 194 47.04166667 194 46 194 C45.65828846 189.67864566 45.37115184 185.35805187 45.13330078 181.0300293 C45.04491372 179.55966358 44.94187314 178.09010065 44.82373047 176.62182617 C43.85113994 164.34806622 43.85113994 164.34806622 46.69946289 161.00585938 C48.84765625 159.70703125 48.84765625 159.70703125 51.01196289 158.84301758 C54.21711929 157.48388642 55.3909477 154.96065623 57 152 C59.0678261 145.79652171 58.12009092 138.50468961 58 132 C57.98324219 130.69546875 57.96648437 129.3909375 57.94921875 128.046875 C57.6787647 120.90688797 57.04408829 115.34000813 52 110 C47.38742349 106.40219032 43.94150015 104.84922287 38.13085938 104.96240234 C37.13624695 104.97932632 36.14163452 104.99625031 35.11688232 105.01368713 C34.03674866 105.03752975 32.95661499 105.06137238 31.84375 105.0859375 C30.7212384 105.10667831 29.59872681 105.12741913 28.44219971 105.14878845 C24.79464899 105.2180921 21.14734654 105.29571115 17.5 105.375 C15.65372009 105.41383804 15.65372009 105.41383804 13.7701416 105.45346069 C7.67539764 105.58189457 1.58081496 105.71586386 -4.51367188 105.85595703 C-9.08083029 105.96002618 -13.64778734 106.04868996 -18.21557617 106.11907959 C-21.22739646 106.16870597 -24.23861981 106.24146002 -27.25 106.3125 C-28.24322266 106.32265137 -29.23644531 106.33280273 -30.25976562 106.34326172 C-37.11708727 106.54859258 -44.27712346 107.82996075 -49.65722656 112.41113281 C-55.09549418 118.59295993 -55.29239005 124.35386943 -55.1875 132.1875 C-55.18685547 133.08275391 -55.18621094 133.97800781 -55.18554688 134.90039062 C-55.33983054 148.93983712 -55.33983054 148.93983712 -49 161 C-45.51918771 163.77044243 -43.33104736 164.91723816 -39 166 C-39 174.91 -39 183.82 -39 193 C-42.21954958 191.71218017 -44.96684238 190.55898014 -47.93359375 188.8984375 C-48.65820801 188.49415527 -49.38282227 188.08987305 -50.12939453 187.67333984 C-50.89106934 187.2448877 -51.65274414 186.81643555 -52.4375 186.375 C-53.2301123 185.93494629 -54.02272461 185.49489258 -54.83935547 185.04150391 C-58.60397916 182.94399507 -62.33798585 180.81584638 -66.01171875 178.5625 C-66.62539307 178.19205566 -67.23906738 177.82161133 -67.87133789 177.43994141 C-69.51878728 176.4394995 -71.15438126 175.41960875 -72.7890625 174.3984375 C-76.94450475 172.58864635 -79.49371759 172.60047393 -84 173 C-85.485 173.99 -85.485 173.99 -87 175 C-88.32 175 -89.64 175 -91 175 C-93.14316846 170.0733725 -95.27921554 165.1437431 -97.40869141 160.21118164 C-98.13427425 158.53325103 -98.86180373 156.85616082 -99.59130859 155.17993164 C-100.63891014 152.77187339 -101.67949801 150.36089006 -102.71875 147.94921875 C-103.04685669 147.19912033 -103.37496338 146.44902191 -103.7130127 145.67619324 C-106 140.34161512 -106 140.34161512 -106 137 C-104.48706055 135.80493164 -104.48706055 135.80493164 -102.38671875 134.66015625 C-101.2565332 134.0249707 -101.2565332 134.0249707 -100.10351562 133.37695312 C-98.90758789 132.72629883 -98.90758789 132.72629883 -97.6875 132.0625 C-96.12447839 131.20726176 -94.56570204 130.34420943 -93.01171875 129.47265625 C-91.96697388 128.90430054 -91.96697388 128.90430054 -90.90112305 128.32446289 C-87.67713331 126.07839325 -86.23194399 123.69583197 -85 120 C-84.90335226 118.44642318 -84.86187653 116.88908329 -84.85473633 115.33251953 C-84.84835648 114.38788849 -84.84197662 113.44325745 -84.83540344 112.47000122 C-84.83429062 111.45122894 -84.8331778 110.43245667 -84.83203125 109.3828125 C-84.82870285 108.33350555 -84.82537445 107.28419861 -84.82194519 106.20309448 C-84.81688031 103.98224323 -84.81453673 101.76138436 -84.81469727 99.54052734 C-84.81251311 96.14537991 -84.79435898 92.75055858 -84.77539062 89.35546875 C-84.77245615 87.19791778 -84.77047172 85.04036526 -84.76953125 82.8828125 C-84.76234573 81.86808868 -84.75516022 80.85336487 -84.74775696 79.80789185 C-84.75083359 78.85695648 -84.75391022 77.90602112 -84.75708008 76.92626953 C-84.75565506 76.09370636 -84.75423004 75.26114319 -84.75276184 74.40335083 C-85.18588828 70.1930186 -86.28549344 67.64122384 -89.4375 64.8125 C-91.27270201 63.51443029 -93.12965321 62.24689786 -95 61 C-93.51946611 57.77092046 -91.67955819 55.1092029 -89.515625 52.296875 C-88.48308594 50.94916016 -88.48308594 50.94916016 -87.4296875 49.57421875 C-86.71039063 48.64222656 -85.99109375 47.71023437 -85.25 46.75 C-83.838279 44.91166001 -82.42681683 43.07312123 -81.015625 41.234375 C-80.33822266 40.35330078 -79.66082031 39.47222656 -78.96289062 38.56445312 C-76.2823925 35.06246901 -73.6351509 31.53618627 -71 28 C-66.23091499 29.01903526 -62.45884632 31.61349499 -58.39648438 34.20507812 C-54.00033989 36.85618816 -51.07393753 37.40337735 -46 37 C-42.91745022 35.83424727 -42.91745022 35.83424727 -39.97265625 34.0703125 C-38.85753662 33.44423096 -37.74241699 32.81814941 -36.59350586 32.1730957 C-35.41605036 31.49117967 -34.23905612 30.80846663 -33.0625 30.125 C-31.85404933 29.43564852 -30.64514353 28.7470943 -29.43579102 28.05932617 C-25.94258948 26.06402977 -22.46968237 24.03592506 -19 22 C-18.08057617 21.46294434 -17.16115234 20.92588867 -16.21386719 20.37255859 C-13.94388702 19.03666944 -11.68688782 17.68271533 -9.4375 16.3125 C-8.79627197 15.92787598 -8.15504395 15.54325195 -7.49438477 15.14697266 C-4.30918724 13.14983023 -2.16298189 11.64591256 -1 8 C-0.55499715 5.87406942 -0.55499715 5.87406942 -0.375 3.75 C-0.189375 1.89375 -0.189375 1.89375 0 0 Z " fill="#FDFEFE" transform="translate(314,174)"/>
<path d="M0 0 C0.02426056 0.76484207 0.04852112 1.52968414 0.07351685 2.31770325 C0.3085823 9.57059895 0.57079284 16.82178867 0.86258125 24.07260609 C1.01161742 27.79929257 1.15059291 31.52575877 1.265625 35.25366211 C1.3772919 38.85997231 1.51662703 42.46429787 1.67419052 46.0688839 C1.72924518 47.43543924 1.77477683 48.80241682 1.81003189 50.16962624 C2.06197866 59.61324262 3.76499479 66.12371865 9 74 C9.7767231 75.23710724 9.7767231 75.23710724 10.56913757 76.49920654 C12.01195714 78.79421591 13.50068276 81.05403776 15 83.3125 C16.14807869 85.06057877 17.29517956 86.80930005 18.44140625 88.55859375 C19.02809082 89.45304199 19.61477539 90.34749023 20.21923828 91.26904297 C23.16154477 95.78133257 26.05058736 100.32714057 28.9375 104.875 C29.51822266 105.78934814 30.09894531 106.70369629 30.69726562 107.64575195 C31.87641736 109.50291594 33.05529073 111.36025671 34.23388672 113.21777344 C37.15179946 117.81447424 40.07628338 122.40698956 43 127 C43.57306885 127.90081299 44.1461377 128.80162598 44.73657227 129.72973633 C47.72498 134.42724324 50.71594211 139.1230963 53.7109375 143.81640625 C56.64087142 148.40885687 59.56457341 153.00519892 62.48144531 157.60595703 C63.43748743 159.11318355 64.39496571 160.61950101 65.35449219 162.12451172 C66.49282186 163.91234829 67.62297684 165.70502246 68.75 167.5 C69.34296875 168.4384375 69.9359375 169.376875 70.546875 170.34375 C74.0546989 176.75590122 74.928939 182.80316729 74 190 C71.73359979 197.25248067 67.45714039 202.96294871 61 207 C55.38855533 209.41185078 50.87538745 210.44854954 44.80078125 210.4765625 C44.04387497 210.49214203 43.28696869 210.50772156 42.50712585 210.52377319 C40.10892798 210.57081936 37.71100802 210.5988371 35.3125 210.625 C32.93205362 210.66195515 30.55174812 210.70307031 28.1714325 210.74765015 C26.69984743 210.77405301 25.2281647 210.7957322 23.75642395 210.81118774 C19.42692376 210.87521306 15.14129775 211.12818498 10.82519531 211.47973633 C3.86490994 212.04014405 -3.08803587 212.3150056 -10.06640625 212.53515625 C-11.3799559 212.57813339 -12.69350555 212.62111053 -14.04685974 212.66539001 C-16.81755722 212.75555802 -19.58831452 212.8434965 -22.35913086 212.92993164 C-25.13464303 213.01673176 -27.9100108 213.10686342 -30.68530273 213.20043945 C-38.79544032 213.47345506 -46.90537572 213.71209278 -55.0178833 213.90313721 C-57.68616997 213.96804181 -60.35342944 214.03906409 -63.0211792 214.12030029 C-66.85651174 214.2301274 -70.69103516 214.30520625 -74.52734375 214.37109375 C-75.67054581 214.40944839 -76.81374786 214.44780304 -77.99159241 214.48731995 C-86.2371984 214.57357747 -90.93967339 212.69338157 -96.98828125 207.19140625 C-97.42527344 206.65386719 -97.86226562 206.11632812 -98.3125 205.5625 C-98.76238281 205.02753906 -99.21226562 204.49257813 -99.67578125 203.94140625 C-104.55857601 196.78285464 -105.29109152 190.49042305 -104 182 C-102.19322513 177.17678618 -99.83338603 172.8126758 -97.30078125 168.33740234 C-95.36919726 164.86649672 -93.5708942 161.32961178 -91.75512695 157.79711914 C-86.83994074 148.25456215 -81.74087565 138.81810199 -76.57128906 129.41162109 C-72.21404926 121.45633609 -68.03720375 113.41311547 -63.87548828 105.35424805 C-59.68279618 97.25734026 -55.36138157 89.23751752 -50.95703125 81.25390625 C-50.04770809 79.60290052 -49.14321862 77.94922011 -48.24438477 76.29248047 C-47.43718764 74.80541338 -46.61801839 73.32475905 -45.78491211 71.85205078 C-43.36667734 67.39805442 -42.52578911 64.17474845 -42.6875 59 C-42.70296875 58.30849854 -42.7184375 57.61699707 -42.734375 56.90454102 C-42.80043122 54.26862274 -42.90129358 51.63490095 -43 49 C-43.0808908 46.44664946 -43.16047924 43.89328769 -43.23828125 41.33984375 C-43.364595 37.20082636 -43.49376654 33.06207931 -43.64331055 28.92382812 C-43.96782267 19.61004309 -44.05572005 10.31840483 -44 1 C-39.47932656 0.82880721 -34.95844272 0.66391463 -30.4375 0.5 C-29.18001953 0.45230469 -27.92253906 0.40460938 -26.62695312 0.35546875 C-25.36689453 0.31035156 -24.10683594 0.26523437 -22.80859375 0.21875 C-21.67220459 0.17685547 -20.53581543 0.13496094 -19.36499023 0.09179688 C-12.91306044 -0.08825023 -6.45393225 -0.01650748 0 0 Z " fill="#FDFDFE" transform="translate(339,339)"/>
<path d="M0 0 C2.23310552 1.07575855 4.46124501 2.16022483 6.6875 3.25 C7.31333984 3.55035156 7.93917969 3.85070312 8.58398438 4.16015625 C12.45438826 6.06496235 15.7119061 8.15828214 19 11 C18.43454468 11.72364746 18.43454468 11.72364746 17.85766602 12.46191406 C8.72156614 24.1603212 8.72156614 24.1603212 -0.3125 35.9375 C-1.00988281 36.85402344 -1.70726562 37.77054688 -2.42578125 38.71484375 C-4.15274572 40.99527544 -4.15274572 40.99527544 -5 44 C-4.071875 44.598125 -3.14375 45.19625 -2.1875 45.8125 C4.02648309 50.0769982 4.02648309 50.0769982 5 55 C5.09844577 56.5862348 5.14799145 58.17590429 5.16113281 59.76513672 C5.17074036 60.70646454 5.1803479 61.64779236 5.19024658 62.61764526 C5.19449646 63.6281192 5.19874634 64.63859314 5.203125 65.6796875 C5.20882507 66.72520782 5.21452515 67.77072815 5.22039795 68.84793091 C5.22983796 71.05860383 5.23637796 73.26929076 5.24023438 75.47998047 C5.2499436 78.8553935 5.28097843 82.23019846 5.3125 85.60546875 C5.31903007 87.75520472 5.32428053 89.90494504 5.328125 92.0546875 C5.3404718 93.06111298 5.3528186 94.06753845 5.36553955 95.10446167 C5.34847043 100.49423794 5.07275291 104.36291131 2 109 C-1.38927371 112.15334804 -5.19445221 114.42857594 -9.1875 116.75 C-10.23292969 117.36359375 -11.27835937 117.9771875 -12.35546875 118.609375 C-15 120 -15 120 -17 120 C-16.54560547 121.08007324 -16.09121094 122.16014648 -15.62304688 123.27294922 C-13.94222073 127.27080153 -12.26605473 131.27059343 -10.59130859 135.27099609 C-9.86504579 137.00395339 -9.13751082 138.73637809 -8.40869141 140.46826172 C-7.36287935 142.9540218 -6.3216188 145.44164521 -5.28125 147.9296875 C-4.95314331 148.70682098 -4.62503662 149.48395447 -4.2869873 150.28463745 C-2 155.77225659 -2 155.77225659 -2 158 C-1.34 158.33 -0.68 158.66 0 159 C-5.94 162.3 -11.88 165.6 -18 169 C-21.30825394 165.69174606 -22.66024263 162.51547948 -24.35546875 158.26953125 C-24.66196854 157.51911057 -24.96846832 156.76868988 -25.28425598 155.99552917 C-26.25913911 153.60401487 -27.22342652 151.20838957 -28.1875 148.8125 C-28.84761269 147.18786864 -29.50841209 145.56351612 -30.16992188 143.93945312 C-31.78792669 139.96282409 -33.39644364 135.98247603 -35 132 C-35.56847656 132.30035156 -36.13695312 132.60070312 -36.72265625 132.91015625 C-37.88087891 133.48056641 -37.88087891 133.48056641 -39.0625 134.0625 C-39.81660156 134.44535156 -40.57070312 134.82820312 -41.34765625 135.22265625 C-45.93235311 136.56633029 -49.67049099 135.60873339 -53.94335938 133.65234375 C-54.90048828 133.08644531 -55.85761719 132.52054688 -56.84375 131.9375 C-57.91866699 131.30956543 -58.99358398 130.68163086 -60.10107422 130.03466797 C-61.22271973 129.36322754 -62.34436523 128.69178711 -63.5 128 C-64.66502823 127.31181712 -65.83055865 126.62448369 -66.99658203 125.93798828 C-69.29088416 124.5848828 -71.58039986 123.22457836 -73.86816406 121.86035156 C-76.53286671 120.27748329 -79.20899734 118.7199511 -81.8984375 117.1796875 C-83.22417326 116.4118293 -84.54971587 115.64363744 -85.875 114.875 C-87.54175781 113.91207031 -87.54175781 113.91207031 -89.2421875 112.9296875 C-93.14336847 110.19996597 -95.491386 107.525842 -97 103 C-97.09664774 101.44642318 -97.13812347 99.88908329 -97.14526367 98.33251953 C-97.15164352 97.38788849 -97.15802338 96.44325745 -97.16459656 95.47000122 C-97.16570938 94.45122894 -97.1668222 93.43245667 -97.16796875 92.3828125 C-97.17129715 91.33350555 -97.17462555 90.28419861 -97.17805481 89.20309448 C-97.18311969 86.98224323 -97.18546327 84.76138436 -97.18530273 82.54052734 C-97.18748689 79.14537991 -97.20564102 75.75055858 -97.22460938 72.35546875 C-97.22754385 70.19791778 -97.22952828 68.04036526 -97.23046875 65.8828125 C-97.23765427 64.86808868 -97.24483978 63.85336487 -97.25224304 62.80789185 C-97.24916641 61.85695648 -97.24608978 60.90602112 -97.24291992 59.92626953 C-97.24434494 59.09370636 -97.24576996 58.26114319 -97.24723816 57.40335083 C-96.78774063 52.93667068 -95.53057 50.5007936 -92.26806641 47.42138672 C-89.24213087 45.07424058 -86.04920966 43.1367583 -82.7109375 41.2578125 C-82.12639801 40.92635223 -81.54185852 40.59489197 -80.93960571 40.25338745 C-79.08788875 39.20488943 -77.23167856 38.16468177 -75.375 37.125 C-73.54776563 36.09453893 -71.72150953 35.062363 -69.89546204 34.02980042 C-68.69371322 33.35107363 -67.49107109 32.673926 -66.28752136 31.99839783 C-63.35352137 30.34855486 -60.4383226 28.67570557 -57.55200195 26.94360352 C-56.4868335 26.30608154 -55.42166504 25.66855957 -54.32421875 25.01171875 C-53.38151123 24.43897217 -52.43880371 23.86622559 -51.4675293 23.27612305 C-49 22 -49 22 -45.4375 21.6875 C-39.38908947 23.99689311 -33.70848035 27.09342622 -28.4140625 30.8203125 C-27.61742187 31.20960938 -26.82078125 31.59890625 -26 32 C-22.91596057 30.87156333 -21.25537585 29.41677891 -19.3359375 26.796875 C-18.85801758 26.15234375 -18.38009766 25.5078125 -17.88769531 24.84375 C-17.38850586 24.1528125 -16.88931641 23.461875 -16.375 22.75 C-15.85518555 22.04359375 -15.33537109 21.3371875 -14.79980469 20.609375 C-13.18931831 18.41370277 -11.59241718 16.20880512 -10 14 C-9.49436523 13.29939453 -8.98873047 12.59878906 -8.46777344 11.87695312 C-5.626108 7.93134486 -2.80503081 3.97172504 0 0 Z " fill="#6965F6" transform="translate(225,191)"/>
<path d="M0 0 C8.4931903 0.03390495 15.82246411 1.99816238 23.77416992 4.71655273 C28.93121997 6.4516302 33.73355824 7.47767199 39.125 8.1875 C46.16568762 9.4717456 48.91104364 12.267923 52.953125 18.01953125 C53.62859375 19.00308594 54.3040625 19.98664063 55 21 C57.90863474 24.41814048 60.94798123 27.70971954 64 31 C64.54914063 31.60328125 65.09828125 32.2065625 65.6640625 32.828125 C85.38507925 53.61776827 115.08440278 68.61277948 143 74 C140.92487859 80.35505931 137.62802781 84.33860993 132 88 C126.39106194 90.418022 121.87471671 91.44855263 115.80078125 91.4765625 C115.04387497 91.49214203 114.28696869 91.50772156 113.50712585 91.52377319 C111.10892798 91.57081936 108.71100802 91.5988371 106.3125 91.625 C103.93205362 91.66195515 101.55174812 91.70307031 99.1714325 91.74765015 C97.69984743 91.77405301 96.2281647 91.7957322 94.75642395 91.81118774 C90.42692376 91.87521306 86.14129775 92.12818498 81.82519531 92.47973633 C74.86490994 93.04014405 67.91196413 93.3150056 60.93359375 93.53515625 C59.6200441 93.57813339 58.30649445 93.62111053 56.95314026 93.66539001 C54.18244278 93.75555802 51.41168548 93.8434965 48.64086914 93.92993164 C45.86535697 94.01673176 43.0899892 94.10686342 40.31469727 94.20043945 C32.20455968 94.47345506 24.09462428 94.71209278 15.9821167 94.90313721 C13.31383003 94.96804181 10.64657056 95.03906409 7.9788208 95.12030029 C4.14348826 95.2301274 0.30896484 95.30520625 -3.52734375 95.37109375 C-4.67054581 95.40944839 -5.81374786 95.44780304 -6.99159241 95.48731995 C-15.2371984 95.57357747 -19.93967339 93.69338157 -25.98828125 88.19140625 C-26.42527344 87.65386719 -26.86226562 87.11632812 -27.3125 86.5625 C-27.98732422 85.76005859 -27.98732422 85.76005859 -28.67578125 84.94140625 C-33.55857601 77.78285464 -34.29109152 71.49042305 -33 63 C-31.19322513 58.17678618 -28.83338603 53.8126758 -26.30078125 49.33740234 C-24.36817144 45.8646534 -22.56897142 42.32585097 -20.75219727 38.79150391 C-14.70429673 27.04955367 -8.39496348 15.45100217 -2.0246582 3.8815918 C-1.32674349 2.60000289 -0.65261858 1.30523717 0 0 Z " fill="#92B1F3" transform="translate(268,458)"/>
<path d="M0 0 C2.61450195 1.12646484 2.61450195 1.12646484 5.23828125 2.7109375 C6.21563232 3.29174072 7.1929834 3.87254395 8.19995117 4.47094727 C9.22709229 5.09928467 10.2542334 5.72762207 11.3125 6.375 C13.46088177 7.66285339 15.60931963 8.95061321 17.7578125 10.23828125 C18.81387695 10.87717285 19.86994141 11.51606445 20.95800781 12.17431641 C23.68154663 13.80887686 26.42121349 15.40582627 29.1796875 16.98046875 C29.94885498 17.42148926 30.71802246 17.86250977 31.51049805 18.31689453 C32.9155086 19.12079314 34.32305678 19.92028032 35.73364258 20.71435547 C36.36165771 21.07803223 36.98967285 21.44170898 37.63671875 21.81640625 C38.16998779 22.12006104 38.70325684 22.42371582 39.25268555 22.73657227 C40.1176062 23.36196899 40.1176062 23.36196899 41 24 C41.88212158 24.62898193 42.76424316 25.25796387 43.6730957 25.90600586 C47.20559918 30.60303834 46.67943311 34.9599946 46.59375 40.6875 C46.59379028 41.82276123 46.59383057 42.95802246 46.59387207 44.12768555 C46.58851697 46.52495874 46.57093496 48.92223149 46.54199219 51.31933594 C46.50014975 54.98687444 46.50092381 58.65257562 46.5078125 62.3203125 C46.49731944 64.65105442 46.48438071 66.98178687 46.46875 69.3125 C46.46844788 70.95641724 46.46844788 70.95641724 46.46813965 72.63354492 C46.45222778 73.65810791 46.43631592 74.6826709 46.41992188 75.73828125 C46.41150269 76.63587158 46.4030835 77.53346191 46.39440918 78.45825195 C45.72001748 82.8043318 43.86989896 85.35541727 40.37963867 87.94165039 C39.3404126 88.55000732 38.30118652 89.15836426 37.23046875 89.78515625 C36.66160446 90.12209 36.09274017 90.45902374 35.50663757 90.8061676 C33.67836984 91.8838298 31.84029326 92.94302557 30 94 C28.78188721 94.70786678 27.56395048 95.41603661 26.34619141 96.12451172 C22.67963292 98.24891308 18.99708322 100.34457132 15.3125 102.4375 C14.03960484 103.16322083 12.76681795 103.8891316 11.49414062 104.61523438 C-0.47508335 111.43587414 -0.47508335 111.43587414 -7 111 C-9.95922852 109.75 -9.95922852 109.75 -12.87890625 108 C-13.95881836 107.36384766 -15.03873047 106.72769531 -16.15136719 106.07226562 C-17.27704102 105.38841797 -18.40271484 104.70457031 -19.5625 104 C-20.7312778 103.30266267 -21.9008786 102.60670294 -23.07128906 101.91210938 C-25.35895521 100.55352681 -27.64257081 99.1888975 -29.92431641 97.8203125 C-32.46209229 96.31835529 -35.01101469 94.86929073 -37.60546875 93.46875 C-38.55667603 92.95248047 -38.55667603 92.95248047 -39.52709961 92.42578125 C-41.10291753 91.57903312 -42.68401393 90.74212735 -44.265625 89.90625 C-48.56123581 86.9115956 -52.38487338 83.83520677 -53.53936768 78.51397705 C-53.72582416 75.58333753 -53.72732212 72.70916247 -53.65625 69.7734375 C-53.65250366 68.7075943 -53.64875732 67.6417511 -53.64489746 66.54360962 C-53.6314989 64.29945281 -53.60375376 62.05534104 -53.5625 59.81152344 C-53.50007484 56.37911497 -53.48054023 52.94854554 -53.46875 49.515625 C-53.45041205 47.3307068 -53.42966117 45.14580723 -53.40625 42.9609375 C-53.39775024 41.93688812 -53.38925049 40.91283875 -53.38049316 39.85775757 C-53.36127808 38.89971222 -53.34206299 37.94166687 -53.32226562 36.95458984 C-53.30860962 36.1163266 -53.29495361 35.27806335 -53.28088379 34.41439819 C-52.80616492 30.33384804 -51.75147721 27.69546197 -48.73022461 24.89941406 C-45.98637139 22.99051859 -43.21847549 21.26770028 -40.31640625 19.609375 C-39.23004883 18.98554932 -38.14369141 18.36172363 -37.02441406 17.71899414 C-35.88198242 17.06922607 -34.73955078 16.41945801 -33.5625 15.75 C-31.79646192 14.74268905 -30.03080541 13.73471154 -28.26516724 12.72669983 C-26.54653451 11.74587946 -24.82722757 10.76624076 -23.10791016 9.78662109 C-20.51659957 8.29697373 -17.94543164 6.78290953 -15.38671875 5.23828125 C-14.7537085 4.86026367 -14.12069824 4.48224609 -13.46850586 4.09277344 C-11.88574975 3.14388428 -10.30972853 2.18378515 -8.734375 1.22265625 C-5.49337489 -0.2265338 -3.52943988 -0.2748972 0 0 Z " fill="#082C75" transform="translate(268,101)"/>
<path d="M0 0 C3.82893841 1.73131329 7.39097086 3.85454582 11 6 C12.92700928 7.07771947 14.85670676 8.15064639 16.7890625 9.21875 C18.73486258 10.31163235 20.68017392 11.40538532 22.625 12.5 C24.08292969 13.31404297 24.08292969 13.31404297 25.5703125 14.14453125 C42.48563783 23.67076957 42.48563783 23.67076957 46 28 C46.38095093 30.33920288 46.38095093 30.33920288 46.38818359 33.12646484 C46.39764008 34.17119965 46.40709656 35.21593445 46.4168396 36.29232788 C46.41076691 37.42046906 46.40469421 38.54861023 46.3984375 39.7109375 C46.40130768 40.87122467 46.40417786 42.03151184 46.40713501 43.22695923 C46.40917798 45.68321215 46.40363192 48.13948126 46.39111328 50.59570312 C46.37509279 54.35323607 46.39094009 58.10968856 46.41015625 61.8671875 C46.40817329 64.25260654 46.40432853 66.63802491 46.3984375 69.0234375 C46.40451019 70.14753021 46.41058289 71.27162292 46.4168396 72.42977905 C46.40265488 74.00633774 46.40265488 74.00633774 46.38818359 75.61474609 C46.38579681 76.53613373 46.38341003 77.45752136 46.38095093 78.40682983 C45.9186072 81.55404874 44.84313924 83.42686757 43 86 C40.52661133 87.80175781 40.52661133 87.80175781 37.58203125 89.453125 C36.49962158 90.06849121 35.41721191 90.68385742 34.30200195 91.31787109 C32.57469849 92.2742749 32.57469849 92.2742749 30.8125 93.25 C29.62859712 93.91519464 28.44524932 94.58137814 27.26245117 95.24853516 C24.92161481 96.56706973 22.57722464 97.87846325 20.23046875 99.18652344 C17.45745569 100.74319975 14.70754485 102.32951438 11.96875 103.9453125 C10.89403442 104.57324707 10.89403442 104.57324707 9.79760742 105.21386719 C8.52255158 105.95967528 7.25148674 106.71237267 5.9855957 107.47363281 C1.96192393 109.788575 -1.3732578 110.73247146 -6 111 C-9.11108398 109.8034668 -9.11108398 109.8034668 -12.24609375 107.94921875 C-12.8151091 107.61942017 -13.38412445 107.28962158 -13.97038269 106.9498291 C-15.80417048 105.88056071 -17.6205829 104.78514721 -19.4375 103.6875 C-20.6930476 102.94631559 -21.94939969 102.20649229 -23.20654297 101.46801758 C-26.8197503 99.33705483 -30.41065315 97.17090492 -34 95 C-34.93505371 94.44054687 -35.87010742 93.88109375 -36.83349609 93.3046875 C-39.10475551 91.94398004 -41.36797162 90.57165638 -43.625 89.1875 C-44.58104126 88.60391724 -44.58104126 88.60391724 -45.55639648 88.00854492 C-48.45967333 86.18116185 -50.06238226 84.9064266 -52 82 C-52.27415466 79.66752625 -52.27415466 79.66752625 -52.30639648 76.8894043 C-52.32238388 75.84789719 -52.33837128 74.80639008 -52.35484314 73.73332214 C-52.36020584 72.60831802 -52.36556854 71.4833139 -52.37109375 70.32421875 C-52.38463646 68.5873455 -52.38463646 68.5873455 -52.39845276 66.81538391 C-52.41297119 64.36335847 -52.42184593 61.91129416 -52.42553711 59.45922852 C-52.43742107 55.71238631 -52.48658433 51.96719703 -52.53710938 48.22070312 C-52.54657481 45.83854971 -52.55380926 43.45638617 -52.55859375 41.07421875 C-52.57812607 39.95528732 -52.59765839 38.8363559 -52.61778259 37.68351746 C-52.56752693 28.99328521 -52.56752693 28.99328521 -49.80444336 25.45361328 C-47.13490204 23.11802607 -44.68879517 21.34500133 -41.5703125 19.66796875 C-40.53438965 19.10094238 -39.4984668 18.53391602 -38.43115234 17.94970703 C-37.34012207 17.36817871 -36.2490918 16.78665039 -35.125 16.1875 C-32.86856521 14.96189073 -30.61335205 13.73402962 -28.359375 12.50390625 C-26.72258789 11.61276123 -26.72258789 11.61276123 -25.05273438 10.70361328 C-19.92676321 7.84300653 -14.99899656 4.68580536 -10.0859375 1.4765625 C-6.17940723 -0.39263806 -4.30500872 -0.68347561 0 0 Z " fill="#062B75" transform="translate(464,250)"/>
<path d="M0 0 C4.19232116 4.85645124 7.39505279 10.30454169 10.75 15.75 C14.92249043 22.49161469 19.11436479 29.21353865 23.4375 35.859375 C23.98111176 36.69755768 23.98111176 36.69755768 24.53570557 37.55267334 C26.28451593 40.24884196 28.03992408 42.94018374 29.80761719 45.62402344 C34.38608448 52.68085011 38.47424718 59.11547869 38.3125 67.8125 C38.30863281 68.72644531 38.30476563 69.64039063 38.30078125 70.58203125 C38 73 38 73 36 76 C6.44821475 74.44464288 -22.23559297 53.58094342 -43 34 C-43.67417969 33.37867188 -44.34835937 32.75734375 -45.04296875 32.1171875 C-51.08513048 26.35241044 -56.14449921 19.77581155 -61 13 C-61 12.67 -61 12.34 -61 12 C-59.75347656 11.97421875 -58.50695312 11.9484375 -57.22265625 11.921875 C-42.55794478 11.48574437 -29.43826069 9.29902535 -15.71484375 3.94921875 C-10.60259367 2.16177016 -5.29347167 1.11087164 0 0 Z " fill="#D0DAFC" transform="translate(375,456)"/>
<path d="M0 0 C3.93385818 1.14078984 7.40211584 3.2524756 10.95703125 5.2578125 C12.06884766 5.88300781 13.18066406 6.50820313 14.32617188 7.15234375 C15.48831901 7.8098291 16.65042791 8.46738203 17.8125 9.125 C18.99398189 9.79064641 20.175621 10.45601384 21.35742188 11.12109375 C24.23983905 12.74465934 27.12062331 14.37105015 30 16 C32.69065586 45.54607986 32.69065586 45.54607986 28.49267578 52.49511719 C24.63170123 56.05954541 20.08004872 57.7489749 15.11572266 59.27783203 C12.17910934 60.28019785 9.84023182 61.91304003 7.3125 63.6875 C4.57563729 65.54376338 3.57038684 66.0640328 0.24243164 65.69042969 C-10.02117349 63.504941 -21.51035668 58.44312411 -28 50 C-31.75221162 39.59498923 -29.4719484 26.69676224 -28 16 C-26.88757935 15.37955811 -26.88757935 15.37955811 -25.75268555 14.74658203 C-22.99578642 13.20817918 -20.23950783 11.668672 -17.48364258 10.12841797 C-16.29183222 9.46261118 -15.0997771 8.79724231 -13.9074707 8.13232422 C-12.19157316 7.17531258 -10.47663386 6.21658348 -8.76171875 5.2578125 C-7.73006592 4.6817627 -6.69841309 4.10571289 -5.63549805 3.51220703 C-3.7156323 2.41061848 -1.84170566 1.22780377 0 0 Z " fill="#FA7C9F" transform="translate(460,272)"/>
<path d="M0 0 C2.00761457 0.97522546 3.97991824 2.02482507 5.921875 3.125 C7.02917969 3.74890625 8.13648438 4.3728125 9.27734375 5.015625 C10.42332031 5.67046875 11.56929688 6.3253125 12.75 7 C13.92284227 7.66205181 15.09601629 8.32351628 16.26953125 8.984375 C24.83069407 13.83069407 24.83069407 13.83069407 26 15 C26.08847743 17.52094076 26.11527301 20.01430893 26.09765625 22.53515625 C26.0962413 23.28840683 26.09482635 24.04165741 26.09336853 24.81773376 C26.08775376 27.2326956 26.07519883 29.64756601 26.0625 32.0625 C26.0574869 33.69596221 26.05292366 35.32942586 26.04882812 36.96289062 C26.03777954 40.97529585 26.02050506 44.98763241 26 49 C22.2115352 51.12119025 18.42121703 53.23901829 14.62915039 55.35375977 C13.33957367 56.07354237 12.05050662 56.79423891 10.76196289 57.51586914 C8.90905065 58.55335719 7.0543264 59.58753759 5.19921875 60.62109375 C4.08377686 61.2442749 2.96833496 61.86745605 1.8190918 62.50952148 C-1 64 -1 64 -4 65 C-6.58789062 63.86010742 -6.58789062 63.86010742 -9.65625 62.10546875 C-10.76097656 61.47962891 -11.86570312 60.85378906 -13.00390625 60.20898438 C-14.16934372 59.53528232 -15.33470754 58.86145284 -16.5 58.1875 C-17.66484918 57.52448429 -18.83020851 56.86236402 -19.99609375 56.20117188 C-28.28777352 51.47481766 -28.28777352 51.47481766 -32 49 C-32.42923804 46.47171129 -32.65906702 44.1943798 -32.75 41.6484375 C-32.77658691 40.91557526 -32.80317383 40.18271301 -32.83056641 39.42764282 C-32.8764754 37.87274403 -32.91283354 36.31753862 -32.94042969 34.76220703 C-32.97989975 33.18049283 -33.04793366 31.59921458 -33.14550781 30.02001953 C-33.47085815 24.74248291 -33.46979674 20.11240794 -32 15 C-28.16198959 11.14984838 -23.93791332 9.16359332 -19 7 C-17.5978863 6.1721816 -16.20829119 5.32198188 -14.84375 4.43359375 C-13.7403125 3.77488281 -12.636875 3.11617187 -11.5 2.4375 C-9.81390625 1.41462891 -9.81390625 1.41462891 -8.09375 0.37109375 C-4.52201844 -1.21183273 -3.65515526 -1.06647589 0 0 Z " fill="#FA8D02" transform="translate(268,125)"/>
<path d="M0 0 C2.66551783 1.23681358 5.22014661 2.58960604 7.78100586 4.03295898 C8.8915332 4.65686523 10.00206055 5.28077148 11.14624023 5.92358398 C12.0068103 6.41181641 12.0068103 6.41181641 12.88476562 6.90991211 C14.6462316 7.90906195 16.41146891 8.90126215 18.17749023 9.89233398 C26.80529345 14.75646533 26.80529345 14.75646533 27.95678711 15.90795898 C29.68029854 26.40988863 31.6541452 39.68928416 27.95678711 49.90795898 C22.58521488 56.75801846 14.50947958 60.02507586 6.50048828 62.93530273 C3.77315321 63.87081324 3.77315321 63.87081324 0.95678711 65.90795898 C-3.195165 65.58821045 -6.17386122 63.88701154 -9.71118164 61.78295898 C-10.76885742 61.15905273 -11.8265332 60.53514648 -12.91625977 59.89233398 C-14.0100293 59.23749023 -15.10379883 58.58264648 -16.23071289 57.90795898 C-18.41152937 56.61600007 -20.59251049 55.32431903 -22.77368164 54.03295898 C-24.21843872 53.17057617 -24.21843872 53.17057617 -25.69238281 52.29077148 C-27.11762638 51.45241033 -28.56424876 50.64744105 -30.04321289 49.90795898 C-30.04321289 38.68795898 -30.04321289 27.46795898 -30.04321289 15.90795898 C-25.50571289 13.24733398 -20.96821289 10.58670898 -16.29321289 7.84545898 C-14.86783203 7.00104248 -13.44245117 6.15662598 -11.97387695 5.28662109 C-10.84691406 4.63443604 -9.71995117 3.98225098 -8.55883789 3.31030273 C-7.68267822 2.78442566 -7.68267822 2.78442566 -6.78881836 2.2479248 C-2.65102496 -0.11942125 -2.65102496 -0.11942125 0 0 Z " fill="#FAC950" transform="translate(235.043212890625,368.092041015625)"/>
<path d="M0 0 C0.83950195 0.45834229 1.67900391 0.91668457 2.54394531 1.38891602 C3.45305664 1.88270752 4.36216797 2.37649902 5.29882812 2.88525391 C6.27174805 3.45493896 7.24466797 4.02462402 8.24707031 4.61157227 C9.30925781 5.23225586 10.37144531 5.85293945 11.46582031 6.49243164 C12.56410156 7.13889648 13.66238281 7.78536133 14.79394531 8.45141602 C15.90769531 9.10174805 17.02144531 9.75208008 18.16894531 10.42211914 C26.40083504 15.24580574 26.40083504 15.24580574 27.54394531 16.38891602 C29.25351492 26.48846232 31.19406794 39.53677479 27.54394531 49.38891602 C22.1371937 56.17305302 14.05824891 59.45285731 6.08764648 62.40039062 C3.36227697 63.354288 3.36227697 63.354288 0.54394531 65.38891602 C-4.09006579 65.09415911 -7.30173276 63.61373004 -11.25683594 61.26391602 C-12.31580078 60.64000977 -13.37476563 60.01610352 -14.46582031 59.37329102 C-15.55572266 58.71844727 -16.645625 58.06360352 -17.76855469 57.38891602 C-18.87779297 56.73407227 -19.98703125 56.07922852 -21.12988281 55.40454102 C-29.25939115 50.58557955 -29.25939115 50.58557955 -30.45605469 49.38891602 C-30.54453212 46.86797525 -30.5713277 44.37460709 -30.55371094 41.85375977 C-30.55229599 41.10050919 -30.55088104 40.34725861 -30.54942322 39.57118225 C-30.54380845 37.15622042 -30.53125352 34.74135001 -30.51855469 32.32641602 C-30.51354159 30.69295381 -30.50897835 29.05949016 -30.50488281 27.42602539 C-30.49383422 23.41362017 -30.47655975 19.40128361 -30.45605469 15.38891602 C-29.78550049 15.01081787 -29.11494629 14.63271973 -28.42407227 14.24316406 C-25.37183795 12.52161417 -22.32019115 10.79902544 -19.26855469 9.07641602 C-18.21345703 8.48151367 -17.15835937 7.88661133 -16.07128906 7.27368164 C-15.04970703 6.69682617 -14.028125 6.1199707 -12.97558594 5.52563477 C-12.0381958 4.99671631 -11.10080566 4.46779785 -10.13500977 3.92285156 C-7.42262569 2.43096742 -7.42262569 2.43096742 -4.92358398 0.56787109 C-2.45605469 -0.61108398 -2.45605469 -0.61108398 0 0 Z " fill="#CFDAFB" transform="translate(407.4560546875,141.611083984375)"/>
<path d="M0 0 C8.05432125 3.49701508 16.10358849 7.0461845 19.66113281 15.53857422 C22.13869067 24.81886159 21.89349535 35.09910256 18.1640625 43.96484375 C11.93321004 51.28337938 3.0083763 54.75878974 -5.8359375 57.96484375 C-6.64740234 58.38378906 -7.45886719 58.80273438 -8.29492188 59.234375 C-13.8555401 60.83289246 -19.77685519 56.69954423 -24.6484375 54.08984375 C-25.27521393 53.75758789 -25.90199036 53.42533203 -26.54776001 53.08300781 C-31.36175953 50.3931657 -36.4529844 47.40159041 -38.59265137 42.08435059 C-40.98688925 32.38175561 -39.38840864 21.68835529 -37.8359375 11.96484375 C-34.25557635 9.78862807 -30.6628112 7.63508792 -27.05712891 5.5012207 C-25.83346488 4.77288008 -24.61334026 4.03855744 -23.39697266 3.2980957 C-21.64350704 2.23210904 -19.87825921 1.18858628 -18.109375 0.1484375 C-17.05153809 -0.48521729 -15.99370117 -1.11887207 -14.90380859 -1.77172852 C-9.57423053 -3.96658499 -5.16555125 -2.00255903 0 0 Z " fill="#AFD654" transform="translate(188.8359375,242.03515625)"/>
<path d="M0 0 C1.93735837 0.97245638 3.83688591 2.02219426 5.703125 3.125 C6.7653125 3.74890625 7.8275 4.3728125 8.921875 5.015625 C10.56929688 5.99789063 10.56929688 5.99789063 12.25 7 C13.36375 7.65484375 14.4775 8.3096875 15.625 8.984375 C23.8234747 13.8234747 23.8234747 13.8234747 25 15 C25.46056723 19.73292938 25.61349767 24.46484818 25.73461914 29.21728516 C25.78622258 30.81262402 25.8611482 32.40739169 25.96020508 34.00048828 C26.27924283 39.22575051 26.35468857 43.9137903 25 49 C21.29341202 52.69093113 16.42904404 56 11 56 C9.36786846 53.55180269 7.86001447 51.0990638 6.375 48.5625 C1.51494334 40.42915578 -3.51202072 32.41311132 -8.625 24.4375 C-8.98410461 23.87572052 -9.34320923 23.31394104 -9.7131958 22.73513794 C-12.99597885 17.08735862 -12.99597885 17.08735862 -17 12 C-17.41796875 9.18359375 -17.41796875 9.18359375 -17 6 C-14.55078125 3.84765625 -14.55078125 3.84765625 -11.3125 2.0625 C-10.25675781 1.45535156 -9.20101563 0.84820312 -8.11328125 0.22265625 C-4.56976094 -1.16896465 -3.5737214 -1.03609404 0 0 Z " fill="#65CACF" transform="translate(378,385)"/>
<path d="M0 0 C0 6.27 0 12.54 0 19 C-8.18902083 19.39342457 -16.37812326 19.7850147 -24.56738186 20.17345428 C-28.37074114 20.35393016 -32.17406001 20.53518213 -35.97729492 20.71826172 C-39.65359455 20.8952014 -43.32998919 21.07003193 -47.00645638 21.24345398 C-48.40297018 21.30968982 -49.7994493 21.37666155 -51.19589043 21.44441223 C-53.16492153 21.53981194 -55.13409518 21.63225524 -57.10327148 21.72460938 C-58.22023911 21.77790405 -59.33720673 21.83119873 -60.48802185 21.8861084 C-64.65666257 22.02129522 -68.82916784 22 -73 22 C-73 15.4 -73 8.8 -73 2 C-48.63951706 0.68385234 -24.39917479 -0.32340585 0 0 Z " fill="#90AFF2" transform="translate(352,299)"/>
<path d="M0 0 C3.55942481 2.72436913 4.38595123 6.5974388 5.6875 10.6875 C9.81800029 22.97234786 15.48216736 34.22141695 22.75 44.9609375 C24 47 24 47 24 49 C14.79746902 48.12928744 6.5427867 46.1477473 -2.16137695 43.12060547 C-6.85440437 41.52448703 -11.20900579 40.5844752 -16.15893555 40.21313477 C-18 40 -18 40 -20 39 C-18.63609307 34.52184595 -16.85040381 30.58177217 -14.62890625 26.46484375 C-14.30591049 25.86370255 -13.98291473 25.26256134 -13.65013123 24.64320374 C-12.62533298 22.73888505 -11.59389527 20.83825208 -10.5625 18.9375 C-9.87394066 17.65842284 -9.18578596 16.37912776 -8.49804688 15.09960938 C-5.75481323 10.0098284 -3.0121156 4.93752741 0 0 Z " fill="#D0DAFC" transform="translate(289,419)"/>
<path d="M0 0 C0.33 0 0.66 0 1 0 C1 16.83 1 33.66 1 51 C0.67 51 0.34 51 0 51 C0 43.74 0 36.48 0 29 C-2.97 29 -5.94 29 -9 29 C-11.71689017 28.75373936 -14.3957909 28.47502358 -17.09765625 28.125 C-18.17725868 27.99182373 -18.17725868 27.99182373 -19.27867126 27.85595703 C-21.54062076 27.57575445 -23.80153499 27.28802718 -26.0625 27 C-27.61126553 26.80678927 -29.1600933 26.61407674 -30.70898438 26.421875 C-34.4735474 25.95457772 -38.23661306 25.47707905 -42 25 C-42 18.07 -42 11.14 -42 4 C-32.98858773 4 -32.98858773 4 -28.3203125 4.5859375 C-26.80244141 4.77542969 -26.80244141 4.77542969 -25.25390625 4.96875 C-24.22136719 5.1028125 -23.18882812 5.236875 -22.125 5.375 C-21.10019531 5.50132812 -20.07539063 5.62765625 -19.01953125 5.7578125 C-12.60867589 6.57240657 -6.32220701 7.66104271 0 9 C0 6.03 0 3.06 0 0 Z " fill="#6966F3" transform="translate(356,149)"/>
<path d="M0 0 C2.78719636 3.71626181 4.58973877 7.24886786 6.390625 11.46875 C6.85393219 12.5447345 6.85393219 12.5447345 7.32659912 13.64245605 C7.97487882 15.15410833 8.62018746 16.66703781 9.26269531 18.18115234 C10.24885962 20.49732163 11.25285364 22.8052159 12.2578125 25.11328125 C12.88652356 26.58546528 13.51416478 28.05810676 14.140625 29.53125 C14.44260803 30.21989136 14.74459106 30.90853271 15.0557251 31.61804199 C16.15796903 34.25460225 17.02345664 36.43585305 16.90356445 39.31933594 C15.72782434 41.50625703 14.58453607 42.19095707 12.40234375 43.359375 C11.68369141 43.75253906 10.96503906 44.14570313 10.22460938 44.55078125 C9.46986328 44.94652344 8.71511719 45.34226562 7.9375 45.75 C7.17888672 46.16121094 6.42027344 46.57242188 5.63867188 46.99609375 C3.76548532 48.00926383 1.88353767 49.0062056 0 50 C-2.21067973 46.68398041 -3.70791922 43.24411975 -5.2578125 39.59375 C-5.56572723 38.87264038 -5.87364197 38.15153076 -6.19088745 37.40856934 C-6.83963135 35.88617815 -7.48673978 34.36308914 -8.13232422 32.83935547 C-9.12240979 30.50610413 -10.12146977 28.1768342 -11.12109375 25.84765625 C-11.7505517 24.36742198 -12.37947616 22.88696072 -13.0078125 21.40625 C-13.3077713 20.7093103 -13.6077301 20.01237061 -13.91677856 19.29431152 C-15.15046877 16.36242006 -16 14.21526435 -16 11 C-16.66 10.67 -17.32 10.34 -18 10 C-12.06 6.7 -6.12 3.4 0 0 Z " fill="#6865F6" transform="translate(433,215)"/>
<path d="M0 0 C0.94101562 0.54269531 1.88203125 1.08539063 2.8515625 1.64453125 C4.10932463 2.36727516 5.36713997 3.08992648 6.625 3.8125 C7.55119141 4.34713867 7.55119141 4.34713867 8.49609375 4.89257812 C12.27265506 7.05913172 16.08447772 9.0904299 20 11 C19.17628906 11.93585938 18.35257812 12.87171875 17.50390625 13.8359375 C12.66403592 19.48126909 8.28564667 25.4854167 3.83398438 31.4375 C3.15529297 32.33726562 2.47660156 33.23703125 1.77734375 34.1640625 C1.17140381 34.97311035 0.56546387 35.7821582 -0.05883789 36.61572266 C-2.19168094 39.23543655 -4.61128483 41.61128483 -7 44 C-12.94 40.7 -18.88 37.4 -25 34 C-21.06901847 28.75869129 -17.11300591 23.59184941 -13 18.5 C-5.37736936 9.87860994 -5.37736936 9.87860994 0 0 Z " fill="#6965F6" transform="translate(421,339)"/>
<path d="M0 0 C3.29982783 0.03554572 4.24330189 0.30836712 7.1875 2.125 C10.32971565 5.45765296 10.72755709 8.7751729 10.65234375 13.3046875 C10.07234847 16.19903289 8.48200605 17.80372984 6.09765625 19.4609375 C2.51292007 21.11309921 0.17912767 20.93617106 -3.75 20.3125 C-7.66771408 17.14498649 -9.55848291 15.00423433 -10.125 10 C-9.65786625 5.40651813 -8.22959782 4.19802015 -4.75 1.3125 C-3.75 0.3125 -3.75 0.3125 0 0 Z " fill="#6966F6" transform="translate(271.75,495.6875)"/>
<path d="M0 0 C3.125 2 3.125 2 5 5 C5.83152725 9.04350505 5.38896372 12.10538344 3.75 15.875 C1.09333411 19.10095144 -0.77775154 19.81400567 -4.875 20.4375 C-8.2457471 19.96559541 -10.28282176 19.02135381 -12.7890625 16.6875 C-15.16159442 13.38126197 -15.50165131 9.9714062 -15 6 C-11.62957314 -0.6246321 -7.12341102 -1.52978171 0 0 Z " fill="#6965F6" transform="translate(329,515)"/>
<path d="M0 0 C2.96916217 2.04542283 4.57388423 3.69811038 5.70703125 7.16015625 C6.14024755 9.58535778 6.31891617 11.55497602 6 14 C3.625 17 3.625 17 1 19 C0.67 19.33 0.34 19.66 0 20 C-7.04810127 20.58734177 -7.04810127 20.58734177 -10.9375 18.1875 C-13.60534627 15.35796607 -13.9481301 13.4668291 -14.375 9.625 C-14 6 -14 6 -11.6875 3.125 C-7.84589252 0.0874499 -4.82696576 -0.57923589 0 0 Z " fill="#6A66F7" transform="translate(378,492)"/>
</svg>
