<?xml version="1.0" encoding="UTF-8"?>
<svg version="1.1" xmlns="http://www.w3.org/2000/svg" width="640" height="640">
<path d="M0 0 C211.2 0 422.4 0 640 0 C640 211.2 640 422.4 640 640 C428.8 640 217.6 640 0 640 C0 428.8 0 217.6 0 0 Z " fill="#FEFEFE" transform="translate(0,0)"/>
<path d="M0 0 C3.2722168 1.34179688 3.2722168 1.34179688 6.44921875 3.21875 C7.02855667 3.55491333 7.60789459 3.89107666 8.20478821 4.23742676 C10.04228838 5.30900734 11.86456647 6.4038633 13.6875 7.5 C14.88906179 8.20468266 16.09153169 8.90781926 17.29492188 9.609375 C20.28403827 11.3586762 23.25367282 13.13829001 26.2177124 14.9296875 C28.02144693 16.01287947 29.83513319 17.07771385 31.65087891 18.140625 C32.81568869 18.83289773 33.98024947 19.52558964 35.14453125 20.21875 C36.6910437 21.13043945 36.6910437 21.13043945 38.26879883 22.06054688 C41.38752799 24.27518748 43.12345364 25.63687107 45 29 C45.59492782 32.88475592 45.58421647 36.72821973 45.56640625 40.65234375 C45.57260483 41.78523331 45.57880341 42.91812286 45.58518982 44.08534241 C45.59228567 46.4783543 45.58911817 48.87141559 45.57641602 51.2644043 C45.56256124 54.921337 45.59661586 58.57570562 45.63476562 62.23242188 C45.63571694 64.55989646 45.63385732 66.88737424 45.62890625 69.21484375 C45.64216446 70.30562729 45.65542267 71.39641083 45.66908264 72.52024841 C45.56555733 80.98266285 45.56555733 80.98266285 42.58251953 84.64526367 C39.35514173 87.58798052 35.59486833 91 31 91 C34.85184403 98.51021645 39.19563522 105.69513759 43.625 112.875 C44.18727295 113.79047607 44.7495459 114.70595215 45.32885742 115.64916992 C48.01008354 119.97035773 50.67984365 124.12918357 54 128 C54.7734375 127.4946875 55.546875 126.989375 56.34375 126.46875 C57.3853125 125.8190625 58.426875 125.169375 59.5 124.5 C61.03140625 123.52546875 61.03140625 123.52546875 62.59375 122.53125 C66.67385593 120.69707394 69.67007421 119.97570674 74 121 C78.39370421 122.97894802 82.45356938 125.42866749 86.5625 127.9375 C87.72258946 128.63013913 88.8835659 129.32129477 90.04541016 130.01098633 C92.33089361 131.37120132 94.60878655 132.74205195 96.88427734 134.11914062 C99.54146529 135.72319766 102.2105296 137.30081169 104.89453125 138.859375 C115.87947794 145.27958322 115.87947794 145.27958322 119 149 C119.5146637 151.49742126 119.5146637 151.49742126 119.53344727 154.33178711 C119.5492836 155.39646713 119.56511993 156.46114716 119.58143616 157.55809021 C119.57399635 159.27537071 119.57399635 159.27537071 119.56640625 161.02734375 C119.57260483 162.20841202 119.57880341 163.38948029 119.58518982 164.6063385 C119.59229277 167.10368017 119.58910581 169.60106914 119.57641602 172.09838867 C119.56256345 175.91999511 119.59660334 179.73914778 119.63476562 183.56054688 C119.63571692 185.98697977 119.63385745 188.41341572 119.62890625 190.83984375 C119.64216446 191.98267319 119.65542267 193.12550262 119.66908264 194.30296326 C119.57642884 202.19714919 119.57642884 202.19714919 116.81591797 206.04199219 C114.02590371 207.98198823 111.27449305 209.81385094 108.31640625 211.48828125 C106.68711182 212.41918579 106.68711182 212.41918579 105.02490234 213.36889648 C103.31101318 214.33098022 103.31101318 214.33098022 101.5625 215.3125 C100.38201389 215.9800016 99.20183906 216.64805401 98.02197266 217.31665039 C95.71570857 218.62336971 93.4079296 219.9272568 91.09912109 221.22949219 C88.52442563 222.70039903 85.98258443 224.20480692 83.45703125 225.7578125 C82.83304443 226.13639404 82.20905762 226.51497559 81.56616211 226.9050293 C80.01445527 227.85236122 78.47160331 228.81415761 76.9296875 229.77734375 C72.27174605 231.72125798 68.09249618 231.85408007 63.3203125 229.90625 C62.59585937 229.4421875 61.87140625 228.978125 61.125 228.5 C58.270609 226.54261517 58.270609 226.54261517 55 226 C54.60208252 226.74048584 54.20416504 227.48097168 53.79418945 228.24389648 C52.2943635 231.03420449 50.7939704 233.82420661 49.29321289 236.61401367 C48.64813448 237.81343877 48.00327161 239.01297981 47.35864258 240.21264648 C46.42327934 241.95327971 45.48703371 243.69343866 44.55078125 245.43359375 C43.94830566 246.55362793 43.34583008 247.67366211 42.72509766 248.82763672 C40.80951697 252.35028821 38.84102007 255.83991646 36.83666992 259.31274414 C35.85191483 260.98474872 35.85191483 260.98474872 36 263 C38.10232261 264.39463937 40.19164749 265.68230262 42.375 266.9375 C48.73222543 270.59833815 48.73222543 270.59833815 51 274 C51.25396729 276.34593201 51.25396729 276.34593201 51.25878906 279.14233398 C51.26509338 280.19029648 51.27139771 281.23825897 51.27789307 282.31797791 C51.27182037 284.01489525 51.27182037 284.01489525 51.265625 285.74609375 C51.26753845 286.90875259 51.2694519 288.07141144 51.27142334 289.26930237 C51.27278522 291.7297487 51.26908862 294.19020221 51.26074219 296.65063477 C51.25005263 300.41894681 51.26063273 304.18678105 51.2734375 307.95507812 C51.27211572 310.34375105 51.26955293 312.73242368 51.265625 315.12109375 C51.26967346 316.25034775 51.27372192 317.37960175 51.27789307 318.54307556 C51.26843658 320.11974754 51.26843658 320.11974754 51.25878906 321.72827148 C51.25719788 322.65187973 51.25560669 323.57548798 51.25396729 324.52708435 C50.98213613 327.17394308 50.42466906 328.76540043 49 331 C46.62426758 332.68823242 46.62426758 332.68823242 43.64453125 334.35546875 C42.55382324 334.97397705 41.46311523 335.59248535 40.33935547 336.22973633 C39.16389655 336.8826116 37.98827503 337.53519419 36.8125 338.1875 C35.02561739 339.1925031 33.2406484 340.20084238 31.45587158 341.20957947 C30.27684225 341.87574505 29.09711571 342.54067819 27.91668701 343.20436096 C22.21584176 346.41736349 16.67001943 349.85380121 11.1484375 353.36328125 C7.43016277 355.29623052 4.08915432 356.12628698 0 357 C0.53403442 357.68437134 0.53403442 357.68437134 1.07885742 358.38256836 C9.1957263 368.78924321 17.28431006 379.21594405 25.265625 389.72705078 C27.14504915 392.19009116 29.04124342 394.63974374 30.9375 397.08984375 C43.52521364 413.46411783 50.88808398 425.87005791 49 447 C46.2873693 459.01829207 39.49009828 468.47738582 30.015625 476.11328125 C21.50676372 481.43683047 13.41134776 483.86913397 3.5 485.0625 C2.29714355 485.22113525 1.09428711 485.37977051 -0.14501953 485.54321289 C-11.17492765 486.97062103 -22.23140808 488.20048802 -33.28515625 489.42773438 C-43.56308156 490.57390565 -53.81598629 491.86397182 -64.06600952 493.23675537 C-133.15946676 502.48363731 -133.15946676 502.48363731 -149.6875 491.375 C-159.90095541 483.4781486 -167.02032795 472.93647085 -169 460 C-169.19255067 457.69214266 -169.31076349 455.37748486 -169.375 453.0625 C-169.44847656 451.28552734 -169.44847656 451.28552734 -169.5234375 449.47265625 C-168.52550392 434.43174523 -158.64724624 418.43927341 -152.6875 404.875 C-145.87217576 389.34366348 -139.16860867 373.80108511 -133 358 C-133.99 358.66 -134.98 359.32 -136 360 C-142.21230344 360.74517226 -145.79252485 358.95364696 -150.9375 355.875 C-151.69240723 355.43776611 -152.44731445 355.00053223 -153.22509766 354.55004883 C-154.89594464 353.58027409 -156.56308745 352.60409755 -158.22705078 351.62255859 C-161.2581561 349.848943 -164.3124791 348.12024445 -167.37109375 346.39453125 C-169.53955356 345.15971611 -171.70752724 343.92404689 -173.875 342.6875 C-174.91519287 342.10145996 -175.95538574 341.51541992 -177.02709961 340.91162109 C-178.00557861 340.34652832 -178.98405762 339.78143555 -179.9921875 339.19921875 C-180.86214355 338.70252686 -181.73209961 338.20583496 -182.62841797 337.6940918 C-185.60269283 335.56947853 -187.17820378 334.2237525 -189 331 C-189.62448642 326.97300057 -189.63201327 322.97946266 -189.63671875 318.91015625 C-189.65313164 317.14423378 -189.65313164 317.14423378 -189.6698761 315.34263611 C-189.68572821 312.85550308 -189.69094145 310.36828269 -189.6862793 307.88110352 C-189.6874948 304.07876551 -189.74728695 300.28026454 -189.81054688 296.47851562 C-189.81868805 294.05990524 -189.82336083 291.64128018 -189.82421875 289.22265625 C-189.84779953 288.08812515 -189.87138031 286.95359406 -189.89567566 285.78468323 C-189.80620741 278.09277911 -189.80620741 278.09277911 -187.50698853 274.97628784 C-184.06174202 271.94335544 -180.20277619 269.84512126 -176 268 C-177.34505239 264.41600084 -178.94597676 261.20064322 -180.8984375 257.91015625 C-181.46046875 256.96076172 -182.0225 256.01136719 -182.6015625 255.03320312 C-183.18679687 254.05287109 -183.77203125 253.07253906 -184.375 252.0625 C-184.9525 251.08603516 -185.53 250.10957031 -186.125 249.10351562 C-189.6389198 243.18563246 -189.6389198 243.18563246 -193.4140625 237.43359375 C-195 235 -195 235 -195 233 C-195.9178125 233.51691406 -196.835625 234.03382813 -197.78125 234.56640625 C-199.02025767 235.23284219 -200.25987426 235.89814692 -201.5 236.5625 C-202.10070312 236.90474609 -202.70140625 237.24699219 -203.3203125 237.59960938 C-207.14425377 239.61328058 -210.27293914 240.59228012 -214.67382812 239.77270508 C-220.13054521 237.96009912 -225.04196877 234.92776014 -230 232.0625 C-231.20473048 231.37715546 -232.40981105 230.69242598 -233.61523438 230.00830078 C-237.09015479 228.02801142 -240.54652274 226.01745449 -244 224 C-244.91265625 223.46971191 -245.8253125 222.93942383 -246.765625 222.39306641 C-249.02218272 221.07209979 -251.26477594 219.73168057 -253.5 218.375 C-254.13292969 217.99867432 -254.76585937 217.62234863 -255.41796875 217.23461914 C-259.16945622 214.89046637 -261.22659245 213.05021337 -263 209 C-263.47909219 205.13025087 -263.49197035 201.27866794 -263.50390625 197.3828125 C-263.51389145 196.25229462 -263.52387665 195.12177673 -263.53416443 193.95700073 C-263.54933548 191.56821345 -263.55639054 189.17936275 -263.5559082 186.79052734 C-263.56246505 183.14443732 -263.61695014 179.50107663 -263.67382812 175.85546875 C-263.68263157 173.53125929 -263.68858486 171.20703692 -263.69140625 168.8828125 C-263.7129628 167.79719025 -263.73451935 166.71156799 -263.75672913 165.5930481 C-263.71134731 160.55618661 -263.55313005 156.97017928 -260.30004883 152.97167969 C-257.62521975 150.34891379 -254.81334431 148.35155888 -251.5078125 146.5703125 C-250.48034912 146.00650879 -249.45288574 145.44270508 -248.39428711 144.86181641 C-246.77598999 144.00209229 -246.77598999 144.00209229 -245.125 143.125 C-242.87853392 141.90693643 -240.63244014 140.68818599 -238.38671875 139.46875 C-237.29536621 138.8809375 -236.20401367 138.293125 -235.07958984 137.6875 C-232.37821679 136.20724865 -229.72338704 134.67778481 -227.08203125 133.09375 C-226.36966309 132.67077637 -225.65729492 132.24780273 -224.92333984 131.81201172 C-223.64904758 131.05031895 -222.38168118 130.27684646 -221.12353516 129.48876953 C-216.45596474 126.74384089 -213.266324 126.48026208 -208 127 C-205.25 128.09375 -205.25 128.09375 -203 129.5 C-201.94039062 130.16225586 -201.94039062 130.16225586 -200.859375 130.83789062 C-200.24578125 131.22138672 -199.6321875 131.60488281 -199 132 C-194.5226992 125.07898158 -190.63016786 117.89427714 -186.75 110.625 C-186.10701594 109.42564981 -185.46378843 108.22643011 -184.8203125 107.02734375 C-181.85795424 101.54085087 -181.85795424 101.54085087 -179 96 C-179.72832031 95.73058594 -180.45664063 95.46117187 -181.20703125 95.18359375 C-183.93618316 94.02704406 -186.22577842 92.70504088 -188.6875 91.0625 C-189.45449219 90.55847656 -190.22148437 90.05445313 -191.01171875 89.53515625 C-193 88 -193 88 -195 85 C-195.28761292 82.62956238 -195.28761292 82.62956238 -195.33813477 79.79760742 C-195.36057755 78.73607956 -195.38302032 77.6745517 -195.40614319 76.58085632 C-195.4235984 74.86053947 -195.4235984 74.86053947 -195.44140625 73.10546875 C-195.46206398 71.33530144 -195.46206398 71.33530144 -195.48313904 69.52937317 C-195.50642918 67.03029073 -195.52368531 64.53114593 -195.53540039 62.03198242 C-195.56232572 58.21222394 -195.63722417 54.39523274 -195.71289062 50.57617188 C-195.72954756 48.14845615 -195.74331411 45.72071852 -195.75390625 43.29296875 C-195.78376114 42.15216354 -195.81361603 41.01135834 -195.84437561 39.83598328 C-195.80169318 32.12301054 -195.80169318 32.12301054 -193.58958435 29.02429199 C-191.80898091 27.4442154 -190.04682192 26.21058418 -188 25 C-187.05374756 24.3930127 -186.10749512 23.78602539 -185.13256836 23.16064453 C-184.21096924 22.65645996 -183.28937012 22.15227539 -182.33984375 21.6328125 C-181.30512939 21.06062988 -180.27041504 20.48844727 -179.2043457 19.89892578 C-178.12628662 19.31353027 -177.04822754 18.72813477 -175.9375 18.125 C-173.70006035 16.89667175 -171.46307803 15.66751007 -169.2265625 14.4375 C-167.6182959 13.55578125 -167.6182959 13.55578125 -165.97753906 12.65625 C-163.44501213 11.24753709 -160.9453234 9.80382197 -158.4609375 8.3125 C-157.82808838 7.93464355 -157.19523926 7.55678711 -156.54321289 7.16748047 C-154.94691316 6.20596265 -153.35786837 5.23242757 -151.76953125 4.2578125 C-148.50108831 2.77341387 -146.56737396 2.72296248 -143 3 C-140.30957031 4.1105957 -140.30957031 4.1105957 -137.578125 5.67578125 C-136.56057129 6.25150879 -135.54301758 6.82723633 -134.49462891 7.42041016 C-133.42390137 8.0447998 -132.35317383 8.66918945 -131.25 9.3125 C-130.1470459 9.94462402 -129.0440918 10.57674805 -127.90771484 11.22802734 C-124.595268 13.1356011 -121.2959204 15.06403698 -118 17 C-117.05092773 17.55381348 -116.10185547 18.10762695 -115.12402344 18.67822266 C-112.61620886 20.14732195 -110.11804253 21.63099612 -107.625 23.125 C-106.88926758 23.56110596 -106.15353516 23.99721191 -105.39550781 24.4465332 C-98.62180507 28.58502932 -98.62180507 28.58502932 -97 32 C-96.78673315 34.6729445 -96.71454369 37.0926212 -96.8125 39.75 C-96.82603516 40.44738281 -96.83957031 41.14476562 -96.85351562 41.86328125 C-96.8887055 43.57585541 -96.94250845 45.28802941 -97 47 C-96.32227539 46.9285376 -95.64455078 46.8570752 -94.94628906 46.78344727 C-86.20127354 45.94930508 -77.52189725 45.8834532 -68.75 45.9375 C-67.31119949 45.94253077 -65.87239726 45.94709086 -64.43359375 45.95117188 C-60.95569249 45.96203936 -57.47785783 45.97921472 -54 46 C-54.04640625 44.91460937 -54.0928125 43.82921875 -54.140625 42.7109375 C-54.17816487 41.26565269 -54.21456264 39.82033789 -54.25 38.375 C-54.28351563 37.66214844 -54.31703125 36.94929688 -54.3515625 36.21484375 C-54.36445313 35.51230469 -54.37734375 34.80976563 -54.390625 34.0859375 C-54.41157227 33.4470459 -54.43251953 32.8081543 -54.45410156 32.14990234 C-53.49433926 27.60599542 -50.88733785 24.64057166 -47.19775391 21.97705078 C-45.60326416 21.09509033 -45.60326416 21.09509033 -43.9765625 20.1953125 C-43.39393646 19.86763885 -42.81131042 19.53996521 -42.21102905 19.20236206 C-40.35618053 18.1630475 -38.49123634 17.14369643 -36.625 16.125 C-35.41202134 15.45054623 -34.19977523 14.77477327 -32.98828125 14.09765625 C-31.16943185 13.08137162 -29.34903846 12.06893202 -27.52105713 11.06915283 C-24.3829093 9.35067559 -21.29232732 7.58564003 -18.24511719 5.70996094 C-17.63107025 5.3386203 -17.01702332 4.96727966 -16.3843689 4.58468628 C-14.69204995 3.55664797 -13.01042451 2.51106508 -11.32958984 1.46435547 C-7.31274753 -0.30225402 -4.31528017 -0.70779835 0 0 Z " fill="#072B76" transform="translate(392,108)"/>
<path d="M0 0 C3.2722168 1.34179688 3.2722168 1.34179688 6.44921875 3.21875 C7.02855667 3.55491333 7.60789459 3.89107666 8.20478821 4.23742676 C10.04228838 5.30900734 11.86456647 6.4038633 13.6875 7.5 C14.88906179 8.20468266 16.09153169 8.90781926 17.29492188 9.609375 C20.28403827 11.3586762 23.25367282 13.13829001 26.2177124 14.9296875 C28.02144693 16.01287947 29.83513319 17.07771385 31.65087891 18.140625 C32.81568869 18.83289773 33.98024947 19.52558964 35.14453125 20.21875 C36.6910437 21.13043945 36.6910437 21.13043945 38.26879883 22.06054688 C41.38752799 24.27518748 43.12345364 25.63687107 45 29 C45.59492782 32.88475592 45.58421647 36.72821973 45.56640625 40.65234375 C45.57260483 41.78523331 45.57880341 42.91812286 45.58518982 44.08534241 C45.59228567 46.4783543 45.58911817 48.87141559 45.57641602 51.2644043 C45.56256124 54.921337 45.59661586 58.57570562 45.63476562 62.23242188 C45.63571694 64.55989646 45.63385732 66.88737424 45.62890625 69.21484375 C45.64216446 70.30562729 45.65542267 71.39641083 45.66908264 72.52024841 C45.56555733 80.98266285 45.56555733 80.98266285 42.58251953 84.64526367 C39.35514173 87.58798052 35.59486833 91 31 91 C34.85184403 98.51021645 39.19563522 105.69513759 43.625 112.875 C44.18727295 113.79047607 44.7495459 114.70595215 45.32885742 115.64916992 C48.01008354 119.97035773 50.67984365 124.12918357 54 128 C54.7734375 127.4946875 55.546875 126.989375 56.34375 126.46875 C57.3853125 125.8190625 58.426875 125.169375 59.5 124.5 C61.03140625 123.52546875 61.03140625 123.52546875 62.59375 122.53125 C66.67385593 120.69707394 69.67007421 119.97570674 74 121 C78.39370421 122.97894802 82.45356938 125.42866749 86.5625 127.9375 C87.72258946 128.63013913 88.8835659 129.32129477 90.04541016 130.01098633 C92.33089361 131.37120132 94.60878655 132.74205195 96.88427734 134.11914062 C99.54146529 135.72319766 102.2105296 137.30081169 104.89453125 138.859375 C115.87947794 145.27958322 115.87947794 145.27958322 119 149 C119.5146637 151.49742126 119.5146637 151.49742126 119.53344727 154.33178711 C119.5492836 155.39646713 119.56511993 156.46114716 119.58143616 157.55809021 C119.57399635 159.27537071 119.57399635 159.27537071 119.56640625 161.02734375 C119.57260483 162.20841202 119.57880341 163.38948029 119.58518982 164.6063385 C119.59229277 167.10368017 119.58910581 169.60106914 119.57641602 172.09838867 C119.56256345 175.91999511 119.59660334 179.73914778 119.63476562 183.56054688 C119.63571692 185.98697977 119.63385745 188.41341572 119.62890625 190.83984375 C119.64216446 191.98267319 119.65542267 193.12550262 119.66908264 194.30296326 C119.57642884 202.19714919 119.57642884 202.19714919 116.81591797 206.04199219 C114.02590371 207.98198823 111.27449305 209.81385094 108.31640625 211.48828125 C106.68711182 212.41918579 106.68711182 212.41918579 105.02490234 213.36889648 C103.31101318 214.33098022 103.31101318 214.33098022 101.5625 215.3125 C100.38201389 215.9800016 99.20183906 216.64805401 98.02197266 217.31665039 C95.71570857 218.62336971 93.4079296 219.9272568 91.09912109 221.22949219 C88.52442563 222.70039903 85.98258443 224.20480692 83.45703125 225.7578125 C82.83304443 226.13639404 82.20905762 226.51497559 81.56616211 226.9050293 C80.01445527 227.85236122 78.47160331 228.81415761 76.9296875 229.77734375 C73.11492749 231.36937026 70.01586962 231.8265393 66 231 C62.2149312 229.41110874 58.76212894 227.36566863 55.25 225.25 C54.25589111 224.66814941 53.26178223 224.08629883 52.23754883 223.48681641 C50.17596405 222.27619756 48.11909433 221.05751537 46.06689453 219.83105469 C43.09622577 218.05745051 40.11124257 216.3108243 37.12109375 214.5703125 C35.30909649 213.50656877 33.4978624 212.44152368 31.6875 211.375 C30.84026367 210.8790332 29.99302734 210.38306641 29.12011719 209.87207031 C28.3418457 209.40639648 27.56357422 208.94072266 26.76171875 208.4609375 C26.08069092 208.05665527 25.39966309 207.65237305 24.69799805 207.23583984 C23 206 23 206 21 203 C20.71238708 200.62956238 20.71238708 200.62956238 20.66186523 197.79760742 C20.63942245 196.73607956 20.61697968 195.6745517 20.59385681 194.58085632 C20.58222 193.43397842 20.57058319 192.28710052 20.55859375 191.10546875 C20.54482193 189.92535721 20.53105011 188.74524567 20.51686096 187.52937317 C20.49357082 185.03029073 20.47631469 182.53114593 20.46459961 180.03198242 C20.43767428 176.21222394 20.36277583 172.39523274 20.28710938 168.57617188 C20.27045244 166.14845615 20.25668589 163.72071852 20.24609375 161.29296875 C20.21623886 160.15216354 20.18638397 159.01135834 20.15562439 157.83598328 C20.19856656 150.07607461 20.19856656 150.07607461 22.51052856 146.97183228 C24.27170875 145.43577121 25.99691383 144.19711087 28 143 C28.928125 142.38125 29.85625 141.7625 30.8125 141.125 C33 140 33 140 35 140 C30.24622123 131.45468772 25.26091415 123.07102136 20.125 114.75 C19.55370361 113.82098877 18.98240723 112.89197754 18.39379883 111.93481445 C17.85392334 111.06429443 17.31404785 110.19377441 16.7578125 109.296875 C16.2745752 108.51666992 15.79133789 107.73646484 15.29345703 106.93261719 C14.01186925 104.88230551 14.01186925 104.88230551 12 103 C11.14277344 103.5053125 10.28554688 104.010625 9.40234375 104.53125 C8.25894531 105.1809375 7.11554688 105.830625 5.9375 106.5 C4.81214844 107.1496875 3.68679688 107.799375 2.52734375 108.46875 C-1.44607519 110.19364505 -3.70567253 110.3422435 -8 110 C-11.11108398 108.68994141 -11.11108398 108.68994141 -14.24609375 106.8515625 C-14.8151091 106.5232695 -15.38412445 106.1949765 -15.97038269 105.85673523 C-17.80203945 104.79452748 -19.61983509 103.71094809 -21.4375 102.625 C-22.69331973 101.88736544 -23.94967021 101.15063376 -25.20654297 100.41479492 C-27.6824146 98.96062078 -30.15179718 97.49629452 -32.61572266 96.02197266 C-35.50912362 94.29327933 -38.41376667 92.58643189 -41.32421875 90.88671875 C-42.75920657 90.03097923 -44.19294292 89.17313505 -45.625 88.3125 C-46.58104126 87.75393311 -46.58104126 87.75393311 -47.55639648 87.18408203 C-51.61807872 84.6739315 -52.0942909 83.76427275 -54 79 C-54 75.04 -54 71.08 -54 67 C-68.19 67 -82.38 67 -97 67 C-97 72.61 -97 78.22 -97 84 C-100.37503575 89.62505958 -100.37503575 89.62505958 -104.3671875 91.91015625 C-105.68106445 92.67453003 -105.68106445 92.67453003 -107.02148438 93.4543457 C-107.96314453 93.98503662 -108.90480469 94.51572754 -109.875 95.0625 C-110.84501953 95.6196167 -111.81503906 96.1767334 -112.81445312 96.75073242 C-114.84733409 97.91714223 -116.88287282 99.07893086 -118.92089844 100.23632812 C-121.93836542 101.96469646 -124.92847521 103.73285706 -127.9140625 105.515625 C-129.77582786 106.61494551 -131.63779905 107.71391752 -133.5 108.8125 C-134.3647998 109.33400635 -135.22959961 109.8555127 -136.12060547 110.39282227 C-136.93674316 110.86776123 -137.75288086 111.3427002 -138.59375 111.83203125 C-139.30208984 112.25202393 -140.01042969 112.6720166 -140.74023438 113.10473633 C-144.9646408 114.77834246 -148.0483344 114.389002 -152.2109375 112.6875 C-153.25507813 112.130625 -154.29921875 111.57375 -155.375 111 C-156.43460937 110.443125 -157.49421875 109.88625 -158.5859375 109.3125 C-159.38257813 108.879375 -160.17921875 108.44625 -161 108 C-163.06446045 111.8403569 -165.12738542 115.68153357 -167.18896484 119.5234375 C-167.88875092 120.82704268 -168.58893736 122.13043304 -169.28955078 123.43359375 C-172.95103963 130.24469426 -176.5974097 137.05450641 -180 144 C-179.28070313 144.27070313 -178.56140625 144.54140625 -177.8203125 144.8203125 C-175.01847749 145.99227119 -172.48908649 147.33212938 -169.875 148.875 C-169.02679688 149.36742187 -168.17859375 149.85984375 -167.3046875 150.3671875 C-164.85643486 152.10171225 -163.57605316 153.45702577 -162 156 C-161.60559082 158.49069214 -161.60559082 158.49069214 -161.58007812 161.31591797 C-161.55621033 162.90809647 -161.55621033 162.90809647 -161.53186035 164.53244019 C-161.53165894 165.6741568 -161.53145752 166.81587341 -161.53125 167.9921875 C-161.51982971 169.76023239 -161.51982971 169.76023239 -161.50817871 171.56399536 C-161.49737406 174.05712771 -161.49452606 176.55030533 -161.49902344 179.04345703 C-161.49999464 182.85396068 -161.45839593 186.66244392 -161.4140625 190.47265625 C-161.40885469 192.89582914 -161.40616732 195.31900902 -161.40625 197.7421875 C-161.38985474 198.87985565 -161.37345947 200.0175238 -161.35656738 201.18966675 C-161.43346493 210.01332733 -161.43346493 210.01332733 -164.36987305 213.64746094 C-168.25577956 217.12324254 -172.47763375 219.4674749 -177 222 C-173.30385104 229.8880556 -168.88063406 237.17062701 -164.1875 244.5 C-162.8227512 246.63281673 -161.4618545 248.76810497 -160.10546875 250.90625 C-159.50887451 251.83759766 -158.91228027 252.76894531 -158.29760742 253.72851562 C-157 256 -157 256 -157 258 C-158.56054687 259.14501953 -158.56054687 259.14501953 -160.71875 260.3828125 C-161.48574219 260.82753906 -162.25273437 261.27226562 -163.04296875 261.73046875 C-164.25919922 262.42076172 -164.25919922 262.42076172 -165.5 263.125 C-166.31082031 263.59292969 -167.12164062 264.06085938 -167.95703125 264.54296875 C-169.96762641 265.70201772 -171.98196761 266.85396471 -174 268 C-178.25112447 263.15496844 -181.28116625 257.61334596 -184.5 252.0625 C-188.76781401 244.63238761 -188.76781401 244.63238761 -193.40625 237.43359375 C-195 235 -195 235 -195 233 C-195.9178125 233.51691406 -196.835625 234.03382813 -197.78125 234.56640625 C-199.02025767 235.23284219 -200.25987426 235.89814692 -201.5 236.5625 C-202.10070312 236.90474609 -202.70140625 237.24699219 -203.3203125 237.59960938 C-207.14425377 239.61328058 -210.27293914 240.59228012 -214.67382812 239.77270508 C-220.13054521 237.96009912 -225.04196877 234.92776014 -230 232.0625 C-231.20473048 231.37715546 -232.40981105 230.69242598 -233.61523438 230.00830078 C-237.09015479 228.02801142 -240.54652274 226.01745449 -244 224 C-244.91265625 223.46971191 -245.8253125 222.93942383 -246.765625 222.39306641 C-249.02218272 221.07209979 -251.26477594 219.73168057 -253.5 218.375 C-254.13292969 217.99867432 -254.76585937 217.62234863 -255.41796875 217.23461914 C-259.16945622 214.89046637 -261.22659245 213.05021337 -263 209 C-263.47909219 205.13025087 -263.49197035 201.27866794 -263.50390625 197.3828125 C-263.51389145 196.25229462 -263.52387665 195.12177673 -263.53416443 193.95700073 C-263.54933548 191.56821345 -263.55639054 189.17936275 -263.5559082 186.79052734 C-263.56246505 183.14443732 -263.61695014 179.50107663 -263.67382812 175.85546875 C-263.68263157 173.53125929 -263.68858486 171.20703692 -263.69140625 168.8828125 C-263.7129628 167.79719025 -263.73451935 166.71156799 -263.75672913 165.5930481 C-263.71134731 160.55618661 -263.55313005 156.97017928 -260.30004883 152.97167969 C-257.62521975 150.34891379 -254.81334431 148.35155888 -251.5078125 146.5703125 C-250.48034912 146.00650879 -249.45288574 145.44270508 -248.39428711 144.86181641 C-246.77598999 144.00209229 -246.77598999 144.00209229 -245.125 143.125 C-242.87853392 141.90693643 -240.63244014 140.68818599 -238.38671875 139.46875 C-237.29536621 138.8809375 -236.20401367 138.293125 -235.07958984 137.6875 C-232.37821679 136.20724865 -229.72338704 134.67778481 -227.08203125 133.09375 C-226.36966309 132.67077637 -225.65729492 132.24780273 -224.92333984 131.81201172 C-223.64904758 131.05031895 -222.38168118 130.27684646 -221.12353516 129.48876953 C-216.45596474 126.74384089 -213.266324 126.48026208 -208 127 C-205.25 128.09375 -205.25 128.09375 -203 129.5 C-201.94039062 130.16225586 -201.94039062 130.16225586 -200.859375 130.83789062 C-200.24578125 131.22138672 -199.6321875 131.60488281 -199 132 C-194.5226992 125.07898158 -190.63016786 117.89427714 -186.75 110.625 C-186.10701594 109.42564981 -185.46378843 108.22643011 -184.8203125 107.02734375 C-181.85795424 101.54085087 -181.85795424 101.54085087 -179 96 C-179.72832031 95.73058594 -180.45664063 95.46117187 -181.20703125 95.18359375 C-183.93618316 94.02704406 -186.22577842 92.70504088 -188.6875 91.0625 C-189.45449219 90.55847656 -190.22148437 90.05445313 -191.01171875 89.53515625 C-193 88 -193 88 -195 85 C-195.28761292 82.62956238 -195.28761292 82.62956238 -195.33813477 79.79760742 C-195.36057755 78.73607956 -195.38302032 77.6745517 -195.40614319 76.58085632 C-195.4235984 74.86053947 -195.4235984 74.86053947 -195.44140625 73.10546875 C-195.46206398 71.33530144 -195.46206398 71.33530144 -195.48313904 69.52937317 C-195.50642918 67.03029073 -195.52368531 64.53114593 -195.53540039 62.03198242 C-195.56232572 58.21222394 -195.63722417 54.39523274 -195.71289062 50.57617188 C-195.72954756 48.14845615 -195.74331411 45.72071852 -195.75390625 43.29296875 C-195.78376114 42.15216354 -195.81361603 41.01135834 -195.84437561 39.83598328 C-195.80169318 32.12301054 -195.80169318 32.12301054 -193.58958435 29.02429199 C-191.80898091 27.4442154 -190.04682192 26.21058418 -188 25 C-187.05374756 24.3930127 -186.10749512 23.78602539 -185.13256836 23.16064453 C-184.21096924 22.65645996 -183.28937012 22.15227539 -182.33984375 21.6328125 C-181.30512939 21.06062988 -180.27041504 20.48844727 -179.2043457 19.89892578 C-178.12628662 19.31353027 -177.04822754 18.72813477 -175.9375 18.125 C-173.70006035 16.89667175 -171.46307803 15.66751007 -169.2265625 14.4375 C-167.6182959 13.55578125 -167.6182959 13.55578125 -165.97753906 12.65625 C-163.44501213 11.24753709 -160.9453234 9.80382197 -158.4609375 8.3125 C-157.82808838 7.93464355 -157.19523926 7.55678711 -156.54321289 7.16748047 C-154.94691316 6.20596265 -153.35786837 5.23242757 -151.76953125 4.2578125 C-148.50108831 2.77341387 -146.56737396 2.72296248 -143 3 C-140.30957031 4.1105957 -140.30957031 4.1105957 -137.578125 5.67578125 C-136.56057129 6.25150879 -135.54301758 6.82723633 -134.49462891 7.42041016 C-133.42390137 8.0447998 -132.35317383 8.66918945 -131.25 9.3125 C-130.1470459 9.94462402 -129.0440918 10.57674805 -127.90771484 11.22802734 C-124.595268 13.1356011 -121.2959204 15.06403698 -118 17 C-117.05092773 17.55381348 -116.10185547 18.10762695 -115.12402344 18.67822266 C-112.61620886 20.14732195 -110.11804253 21.63099612 -107.625 23.125 C-106.88926758 23.56110596 -106.15353516 23.99721191 -105.39550781 24.4465332 C-98.62180507 28.58502932 -98.62180507 28.58502932 -97 32 C-96.78673315 34.6729445 -96.71454369 37.0926212 -96.8125 39.75 C-96.82603516 40.44738281 -96.83957031 41.14476562 -96.85351562 41.86328125 C-96.8887055 43.57585541 -96.94250845 45.28802941 -97 47 C-96.32227539 46.9285376 -95.64455078 46.8570752 -94.94628906 46.78344727 C-86.20127354 45.94930508 -77.52189725 45.8834532 -68.75 45.9375 C-67.31119949 45.94253077 -65.87239726 45.94709086 -64.43359375 45.95117188 C-60.95569249 45.96203936 -57.47785783 45.97921472 -54 46 C-54.04640625 44.91460937 -54.0928125 43.82921875 -54.140625 42.7109375 C-54.17816487 41.26565269 -54.21456264 39.82033789 -54.25 38.375 C-54.28351563 37.66214844 -54.31703125 36.94929688 -54.3515625 36.21484375 C-54.36445313 35.51230469 -54.37734375 34.80976563 -54.390625 34.0859375 C-54.41157227 33.4470459 -54.43251953 32.8081543 -54.45410156 32.14990234 C-53.49433926 27.60599542 -50.88733785 24.64057166 -47.19775391 21.97705078 C-45.60326416 21.09509033 -45.60326416 21.09509033 -43.9765625 20.1953125 C-43.39393646 19.86763885 -42.81131042 19.53996521 -42.21102905 19.20236206 C-40.35618053 18.1630475 -38.49123634 17.14369643 -36.625 16.125 C-35.41202134 15.45054623 -34.19977523 14.77477327 -32.98828125 14.09765625 C-31.16943185 13.08137162 -29.34903846 12.06893202 -27.52105713 11.06915283 C-24.3829093 9.35067559 -21.29232732 7.58564003 -18.24511719 5.70996094 C-17.63107025 5.3386203 -17.01702332 4.96727966 -16.3843689 4.58468628 C-14.69204995 3.55664797 -13.01042451 2.51106508 -11.32958984 1.46435547 C-7.31274753 -0.30225402 -4.31528017 -0.70779835 0 0 Z " fill="#062B75" transform="translate(392,108)"/>
<path d="M0 0 C14.19 0 28.38 0 43 0 C43.495 5.94 43.495 5.94 44 12 C46.06802404 17.1700601 46.31108818 17.6586121 50.77734375 20.1640625 C51.75711182 20.72399902 52.73687988 21.28393555 53.74633789 21.86083984 C54.79942139 22.4430127 55.85250488 23.02518555 56.9375 23.625 C59.12265676 24.85891304 61.30754919 26.09329429 63.4921875 27.328125 C64.5862793 27.94107422 65.68037109 28.55402344 66.80761719 29.18554688 C69.75992313 30.86354762 72.67024339 32.59301712 75.5703125 34.359375 C76.41730713 34.87032715 77.26430176 35.3812793 78.13696289 35.90771484 C79.71288628 36.86104143 81.28280501 37.82439145 82.84545898 38.79931641 C87.39409267 41.51069515 90.56609039 42.80273665 96 42 C98.61193544 41.05164116 101.00362262 39.83412538 103.4375 38.5 C104.07365234 38.16613281 104.70980469 37.83226562 105.36523438 37.48828125 C106.91693107 36.67159878 108.45947571 35.8375666 110 35 C122.40052349 54.94515991 122.40052349 54.94515991 128.3125 64.6875 C128.87988892 65.61187866 128.87988892 65.61187866 129.45874023 66.55493164 C132 70.76786667 132 70.76786667 132 73 C129.91796875 74.40234375 129.91796875 74.40234375 127.1875 75.9375 C122.65296527 78.43487641 122.65296527 78.43487641 119 82 C118.53837962 84.45025415 118.53837962 84.45025415 118.59594727 87.23413086 C118.58326309 88.30211411 118.57057892 89.37009735 118.55751038 90.47044373 C118.56044601 91.62359573 118.56338165 92.77674774 118.56640625 93.96484375 C118.5611644 95.14969864 118.55592255 96.33455353 118.55052185 97.55531311 C118.54409394 100.06282772 118.54544852 102.57037244 118.55395508 105.07788086 C118.56245905 108.91900252 118.53372114 112.75863496 118.50195312 116.59960938 C118.50034096 119.03385372 118.50091894 121.4681007 118.50390625 123.90234375 C118.48705528 125.62903542 118.48705528 125.62903542 118.46986389 127.39060974 C118.47924484 128.46174515 118.48862579 129.53288055 118.49829102 130.63647461 C118.49845718 131.57784775 118.49862335 132.51922089 118.49879456 133.48912048 C119.15036713 136.75329137 120.47231634 137.90351615 123 140 C125.57024922 141.61479559 128.19849286 143.0685678 130.85546875 144.53515625 C133 146 133 146 134 149 C133.00151121 151.31835849 131.95160448 153.44199568 130.73828125 155.64453125 C130.21768379 156.61564095 130.21768379 156.61564095 129.68656921 157.60636902 C128.94882577 158.97815637 128.20623844 160.34734796 127.45922852 161.71411133 C126.32528172 163.78911084 125.20530231 165.87113619 124.08789062 167.95507812 C123.36800095 169.28950166 122.64732212 170.62349982 121.92578125 171.95703125 C121.42707268 172.880783 121.42707268 172.880783 120.91828918 173.82319641 C118.79610862 177.69972878 116.49543525 181.35944921 114 185 C111.24753081 183.94758531 108.74543671 182.85291899 106.1875 181.375 C102.27063551 179.68537218 99.15981566 179.25621176 95 180 C91.04529793 181.68351294 87.42670432 183.84597857 83.75 186.0625 C82.73526611 186.65506592 81.72053223 187.24763184 80.67504883 187.8581543 C77.77347774 189.55602803 74.88526616 191.2746056 72 193 C69.5651134 194.44201497 67.12680791 195.87796169 64.6875 197.3125 C63.80449219 197.84488281 62.92148437 198.37726563 62.01171875 198.92578125 C60 200 60 200 58 200 C56.07670397 196.15340794 56.02882406 192.14570731 57 188 C59.08509365 185.56598947 61.25284521 183.77688628 63.8359375 181.88671875 C66.85112521 179.25795402 67.75506497 176.75589786 68.30078125 172.84375 C68.33385194 166.22961285 67.60082789 159.73667289 66.75 153.1875 C66.64083252 152.28 66.53166504 151.3725 66.41918945 150.4375 C65.46602461 143.66721702 63.44834442 138.58147995 57.9375 134.1875 C48.55849353 127.20313348 31.49181078 131.40415242 20.46875 132.828125 C18.93758771 133.02069897 17.40637732 133.21289073 15.87512207 133.40472412 C12.69778762 133.80519174 9.52148536 134.2128999 6.34570312 134.62548828 C2.29193556 135.15114728 -1.76430711 135.65401405 -5.8216629 136.1511116 C-8.97157804 136.54030525 -12.11957279 136.94358041 -15.26719666 137.35085297 C-16.76239921 137.5422212 -18.2582229 137.72880438 -19.75465393 137.91031647 C-32.75320755 139.29312499 -32.75320755 139.29312499 -42.875 147 C-49.35440751 156.14739884 -45.79599969 171.35350409 -45 182 C-49.62 184.64 -54.24 187.28 -59 190 C-62.35495321 186.64504679 -64.68541729 183.58689175 -67.07421875 179.58984375 C-67.44352005 178.9811293 -67.81282135 178.37241486 -68.1933136 177.74525452 C-68.96828074 176.46520372 -69.74046928 175.183467 -70.51000977 173.90014648 C-71.6881231 171.93646141 -72.87553794 169.97864431 -74.06445312 168.02148438 C-74.81826089 166.77377116 -75.57153479 165.52573522 -76.32421875 164.27734375 C-76.67836349 163.69291 -77.03250824 163.10847626 -77.39738464 162.5063324 C-78.88783258 160.01390767 -80.07754897 157.76735309 -81 155 C-80.11248047 154.41992188 -80.11248047 154.41992188 -79.20703125 153.828125 C-71.5842927 149.40282096 -71.5842927 149.40282096 -66 143 C-65.8841546 141.30115232 -65.83042853 139.59789713 -65.80712891 137.89526367 C-65.79106598 136.83043259 -65.77500305 135.7656015 -65.75845337 134.66850281 C-65.71406807 129.79650454 -65.67294147 124.92464331 -65.64990234 120.05249023 C-65.63333479 117.48110916 -65.60603471 114.90977428 -65.56787109 112.33862305 C-65.51317447 108.63566133 -65.49123841 104.93377975 -65.4765625 101.23046875 C-65.45389313 100.0813652 -65.43122375 98.93226166 -65.40786743 97.74833679 C-65.35215738 91.34945225 -65.35215738 91.34945225 -68.33813477 85.86181641 C-71.26553057 83.81427716 -74.19508347 81.93462355 -77.3125 80.1875 C-78.91544922 79.28064453 -78.91544922 79.28064453 -80.55078125 78.35546875 C-81.35902344 77.90816406 -82.16726562 77.46085937 -83 77 C-82.39857154 73.03102096 -81.15565158 70.0570751 -79.234375 66.54296875 C-78.39326172 64.99706055 -78.39326172 64.99706055 -77.53515625 63.41992188 C-76.94605469 62.35322266 -76.35695312 61.28652344 -75.75 60.1875 C-74.88955078 58.60485352 -74.88955078 58.60485352 -74.01171875 56.99023438 C-70.84696559 51.20500792 -67.56149584 45.54977454 -64 40 C-63.20335937 40.433125 -62.40671875 40.86625 -61.5859375 41.3125 C-60.52632812 41.869375 -59.46671875 42.42625 -58.375 43 C-57.33085937 43.556875 -56.28671875 44.11375 -55.2109375 44.6875 C-50.86960424 46.46205958 -47.68974473 46.69751804 -43.30957031 44.8894043 C-42.40819336 44.37289307 -41.50681641 43.85638184 -40.578125 43.32421875 C-39.56049072 42.74849121 -38.54285645 42.17276367 -37.49438477 41.57958984 C-36.42373779 40.9552002 -35.35309082 40.33081055 -34.25 39.6875 C-33.147771 39.05537598 -32.04554199 38.42325195 -30.90991211 37.77197266 C-27.59737832 35.86338057 -24.29758466 33.93428116 -21 32 C-20.04561035 31.44618652 -19.0912207 30.89237305 -18.10791016 30.32177734 C-15.5840054 28.85374973 -13.07083925 27.369435 -10.5625 25.875 C-9.81838867 25.43889404 -9.07427734 25.00278809 -8.30761719 24.5534668 C-4.50708838 22.24251758 -3.0481174 21.09623481 -1 17 C-0.67 11.39 -0.34 5.78 0 0 Z " fill="#FDFEFE" transform="translate(295,175)"/>
<path d="M0 0 C0.51457863 4.18778165 1.02704043 8.37581646 1.53787231 12.5640564 C1.72069661 14.0608833 1.90402445 15.55764878 2.08786011 17.05435181 C3.06669489 25.02763535 4.01860951 32.99973229 4.828125 40.9921875 C4.95340576 42.21059326 5.07868652 43.42899902 5.20776367 44.68432617 C5.43921054 46.96996353 5.66117418 49.25658687 5.87231445 51.54418945 C6.73606098 59.99991772 9.08757245 65.11099299 14.375 71.8125 C15.27647014 72.96450859 16.17748952 74.11687001 17.078125 75.26953125 C17.55443359 75.87619629 18.03074219 76.48286133 18.52148438 77.10791016 C21.08233522 80.38508883 23.60186372 83.69375469 26.125 87 C26.66431152 87.70552002 27.20362305 88.41104004 27.75927734 89.13793945 C32.86650168 95.81963246 37.96170438 102.51047914 43.05712891 109.20117188 C47.19880949 114.63867915 51.34641731 120.07158095 55.5 125.5 C56.27102051 126.50885254 56.27102051 126.50885254 57.05761719 127.53808594 C60.04851742 131.45153405 63.0452446 135.36039937 66.046875 139.265625 C90.04881241 170.54958176 90.04881241 170.54958176 89 183 C87.75060454 190.08747971 84.31387328 195.20666941 79 200 C75.03068468 202.76551757 71.53058389 203.71321101 66.78515625 204.55078125 C66.08447525 204.67455643 65.38379425 204.7983316 64.66188049 204.92585754 C57.42794831 206.1664346 50.1560936 207.06449565 42.86676025 207.90661621 C38.47875559 208.41398028 34.09299625 208.9401863 29.70703125 209.46484375 C28.25535553 209.63797592 28.25535553 209.63797592 26.77435303 209.81460571 C18.07739108 210.85760887 9.38786136 211.95672197 0.69921875 213.06640625 C-0.00392771 213.15614904 -0.70707417 213.24589184 -1.43152809 213.33835411 C-7.81568521 214.15335981 -14.19961567 214.97012349 -20.58303833 215.79086304 C-23.29820463 216.13995576 -26.01349415 216.48805929 -28.72892761 216.83506775 C-31.2180849 217.15326684 -33.70704328 217.47302764 -36.195755 217.79469299 C-68.77485897 221.95169737 -68.77485897 221.95169737 -77.06640625 216.55078125 C-83.15316798 211.66907538 -87.40994618 205.98606051 -88.34057617 198.12207031 C-88.77935938 187.59433643 -85.79516426 180.20082585 -81.4375 170.8125 C-80.74748333 169.27369594 -80.06028823 167.73362396 -79.37573242 166.19238281 C-77.95961566 163.01010763 -76.53178251 159.83351627 -75.09472656 156.66064453 C-71.89369589 149.56982107 -68.85869893 142.40830678 -65.8125 135.25 C-64.59004233 132.38217022 -63.36585046 129.51508583 -62.140625 126.6484375 C-61.8230423 125.90487503 -61.50545959 125.16131256 -61.17825317 124.3952179 C-58.81615183 118.87643127 -56.41902653 113.37348973 -54.01203918 107.87414551 C-52.14499367 103.60129736 -50.2913098 99.32271838 -48.43930054 95.04333496 C-47.52852505 92.9474309 -46.61196345 90.8540308 -45.68936157 88.76330566 C-44.39362575 85.82510485 -43.11868435 82.87864416 -41.84765625 79.9296875 C-41.45781555 79.05921783 -41.06797485 78.18874817 -40.6663208 77.29190063 C-36.60623797 67.74937234 -38.0571849 59.21647444 -39.3125 49.140625 C-39.44567627 48.0332196 -39.57885254 46.92581421 -39.71606445 45.78485107 C-40.1390281 42.27260508 -40.56898638 38.76126647 -41 35.25 C-41.43017898 31.7243609 -41.8587906 28.19855204 -42.28393555 24.67230225 C-42.54789793 22.48495154 -42.81486561 20.29796087 -43.08520508 18.11138916 C-43.26539185 16.62394196 -43.26539185 16.62394196 -43.44921875 15.10644531 C-43.55580811 14.23868469 -43.66239746 13.37092407 -43.7722168 12.47686768 C-44.00278459 9.96972097 -44.03971741 7.51621085 -44 5 C-38.69874348 4.28289234 -33.39682508 3.57097354 -28.09423828 2.86376953 C-26.29196553 2.62266822 -24.48987884 2.38017168 -22.68798828 2.13623047 C-20.09195321 1.78502749 -17.49528151 1.43891423 -14.8984375 1.09375 C-14.0982016 0.9843811 -13.2979657 0.87501221 -12.47348022 0.7623291 C-8.28087175 0.21034128 -4.24079241 -0.11862356 0 0 Z " fill="#92B1F3" transform="translate(332,367)"/>
<path d="M0 0 C3.99192294 1.47848998 7.5716593 3.36185122 11.25 5.5 C12.30703125 6.1084375 13.3640625 6.716875 14.453125 7.34375 C17 9 17 9 18 11 C16.80004883 13.67041016 16.80004883 13.67041016 14.95703125 17.0390625 C14.63216232 17.63874847 14.3072934 18.23843445 13.97257996 18.85629272 C12.9266973 20.78337671 11.86998689 22.70426341 10.8125 24.625 C9.7773333 26.52155863 8.74442907 28.41933508 7.71188354 30.31732178 C7.04640274 31.54035775 6.3800125 32.76289935 5.712677 33.98492432 C3.37356355 38.27747441 1.14162631 42.60606902 -1 47 C-0.28070313 47.27070313 0.43859375 47.54140625 1.1796875 47.8203125 C3.98152251 48.99227119 6.51091351 50.33212938 9.125 51.875 C9.97320312 52.36742187 10.82140625 52.85984375 11.6953125 53.3671875 C14.14356514 55.10171225 15.42394684 56.45702577 17 59 C17.39440918 61.49069214 17.39440918 61.49069214 17.41992188 64.31591797 C17.44378967 65.90809647 17.44378967 65.90809647 17.46813965 67.53244019 C17.46834106 68.6741568 17.46854248 69.81587341 17.46875 70.9921875 C17.48017029 72.76023239 17.48017029 72.76023239 17.49182129 74.56399536 C17.50262594 77.05712771 17.50547394 79.55030533 17.50097656 82.04345703 C17.50000536 85.85396068 17.54160407 89.66244392 17.5859375 93.47265625 C17.59114531 95.89582914 17.59383268 98.31900902 17.59375 100.7421875 C17.61014526 101.87985565 17.62654053 103.0175238 17.64343262 104.18966675 C17.56653507 113.01332733 17.56653507 113.01332733 14.63012695 116.64746094 C10.74422044 120.12324254 6.52236625 122.4674749 2 125 C5.69614896 132.8880556 10.11936594 140.17062701 14.8125 147.5 C16.1772488 149.63281673 17.5381455 151.76810497 18.89453125 153.90625 C19.49112549 154.83759766 20.08771973 155.76894531 20.70239258 156.72851562 C22 159 22 159 22 161 C20.43945313 162.14501953 20.43945313 162.14501953 18.28125 163.3828125 C17.13076172 164.04990234 17.13076172 164.04990234 15.95703125 164.73046875 C15.14621094 165.19066406 14.33539063 165.65085937 13.5 166.125 C12.68917969 166.59292969 11.87835938 167.06085938 11.04296875 167.54296875 C9.03237359 168.70201772 7.01803239 169.85396471 5 171 C0.74887553 166.15496844 -2.28116625 160.61334596 -5.5 155.0625 C-9.76781401 147.63238761 -9.76781401 147.63238761 -14.40625 140.43359375 C-16 138 -16 138 -16 136 C-16.9178125 136.51691406 -17.835625 137.03382813 -18.78125 137.56640625 C-20.02025767 138.23284219 -21.25987426 138.89814692 -22.5 139.5625 C-23.10070312 139.90474609 -23.70140625 140.24699219 -24.3203125 140.59960938 C-28.14425377 142.61328058 -31.27293914 143.59228012 -35.67382812 142.77270508 C-41.13054521 140.96009912 -46.04196877 137.92776014 -51 135.0625 C-52.20473048 134.37715546 -53.40981105 133.69242598 -54.61523438 133.00830078 C-58.09015479 131.02801142 -61.54652274 129.01745449 -65 127 C-65.91265625 126.46971191 -66.8253125 125.93942383 -67.765625 125.39306641 C-70.02218272 124.07209979 -72.26477594 122.73168057 -74.5 121.375 C-75.13292969 120.99867432 -75.76585937 120.62234863 -76.41796875 120.23461914 C-80.16945622 117.89046637 -82.22659245 116.05021337 -84 112 C-84.47909219 108.13025087 -84.49197035 104.27866794 -84.50390625 100.3828125 C-84.51389145 99.25229462 -84.52387665 98.12177673 -84.53416443 96.95700073 C-84.54933548 94.56821345 -84.55639054 92.17936275 -84.5559082 89.79052734 C-84.56246505 86.14443732 -84.61695014 82.50107663 -84.67382812 78.85546875 C-84.68263157 76.53125929 -84.68858486 74.20703692 -84.69140625 71.8828125 C-84.7129628 70.79719025 -84.73451935 69.71156799 -84.75672913 68.5930481 C-84.71134731 63.55618661 -84.55313005 59.97017928 -81.30004883 55.97167969 C-78.62521975 53.34891379 -75.81334431 51.35155888 -72.5078125 49.5703125 C-70.96661743 48.72460693 -70.96661743 48.72460693 -69.39428711 47.86181641 C-67.77598999 47.00209229 -67.77598999 47.00209229 -66.125 46.125 C-63.87853392 44.90693643 -61.63244014 43.68818599 -59.38671875 42.46875 C-57.74968994 41.58703125 -57.74968994 41.58703125 -56.07958984 40.6875 C-53.37821679 39.20724865 -50.72338704 37.67778481 -48.08203125 36.09375 C-47.36966309 35.67077637 -46.65729492 35.24780273 -45.92333984 34.81201172 C-44.64904758 34.05031895 -43.38168118 33.27684646 -42.12353516 32.48876953 C-37.45596474 29.74384089 -34.266324 29.48026208 -29 30 C-26.25 31.09375 -26.25 31.09375 -24 32.5 C-23.29359375 32.94150391 -22.5871875 33.38300781 -21.859375 33.83789062 C-21.24578125 34.22138672 -20.6321875 34.60488281 -20 35 C-15.50921503 28.06670793 -11.6247459 20.85314032 -7.75 13.5625 C-6.49695864 11.20846393 -5.24126499 8.85589507 -3.984375 6.50390625 C-3.43491211 5.47080322 -2.88544922 4.4377002 -2.31933594 3.37329102 C-1 1 -1 1 0 0 Z " fill="#6865F6" transform="translate(213,205)"/>
<path d="M0 0 C0.51457863 4.18778165 1.02704043 8.37581646 1.53787231 12.5640564 C1.72069661 14.0608833 1.90402445 15.55764878 2.08786011 17.05435181 C3.06669489 25.02763535 4.01860951 32.99973229 4.828125 40.9921875 C4.95340576 42.21059326 5.07868652 43.42899902 5.20776367 44.68432617 C5.43921054 46.96996353 5.66117418 49.25658687 5.87231445 51.54418945 C6.73606098 59.99991772 9.08757245 65.11099299 14.375 71.8125 C15.27647014 72.96450859 16.17748952 74.11687001 17.078125 75.26953125 C17.55443359 75.87619629 18.03074219 76.48286133 18.52148438 77.10791016 C21.08233522 80.38508883 23.60186372 83.69375469 26.125 87 C26.66431152 87.70552002 27.20362305 88.41104004 27.75927734 89.13793945 C32.86650168 95.81963246 37.96170438 102.51047914 43.05712891 109.20117188 C47.19880926 114.63867885 51.34629664 120.07167347 55.5 125.5 C56.54430006 126.86586307 57.58857041 128.23174886 58.6328125 129.59765625 C60.42145746 131.93710909 62.21129364 134.27562951 64.00292969 136.61279297 C66.12882066 139.38627059 68.25204221 142.16177679 70.375 144.9375 C71.02919922 145.78957031 71.68339844 146.64164063 72.35742188 147.51953125 C76.72896803 153.24131032 80.91524224 159.07023279 85 165 C84.67 165.66 84.34 166.32 84 167 C70.69764653 164.20868006 58.38182549 160.63105301 46 155 C46 154.01 46 153.02 46 152 C46.99 151.67 47.98 151.34 49 151 C50.47960175 146.56119475 50.46034176 142.62890163 49.1875 138.125 C48.12779105 135.66821688 48.12779105 135.66821688 45 135 C39.11590066 134.3560214 39.11590066 134.3560214 34.125 137.125 C31.95519165 140.06062306 30.90020186 142.4810291 30 146 C23.31211374 142.47921372 17.46236358 138.13513608 11.625 133.375 C10.93535156 132.81272705 10.24570312 132.2504541 9.53515625 131.67114258 C6.77038085 129.38891787 4.18327504 127.20256715 1.7734375 124.5390625 C0.16107103 122.79104533 0.16107103 122.79104533 -1.828125 123.04296875 C-4.20683304 124.09114046 -6.54656234 125.20453052 -8.86767578 126.37475586 C-27.07413907 135.44492778 -44.10274195 135.52446138 -64 135 C-63.42912261 130.82759069 -62.46889173 127.30578559 -60.80688477 123.44116211 C-60.35293839 122.37663315 -59.898992 121.31210419 -59.43128967 120.21531677 C-58.93962814 119.08078568 -58.44796661 117.94625458 -57.94140625 116.77734375 C-57.17081915 114.97713762 -56.40023206 113.17693149 -55.62964535 111.3767252 C-54.55247928 108.86509961 -53.46912218 106.35616249 -52.38598633 103.84710693 C-51.02047061 100.68057194 -49.66172194 97.51113778 -48.30273438 94.34179688 C-46.77341781 90.77541664 -45.24297247 87.20954023 -43.70765686 83.64573669 C-43.25055832 82.58435989 -42.79345978 81.52298309 -42.32250977 80.42944336 C-41.92137466 79.49933945 -41.52023956 78.56923553 -41.10694885 77.61094666 C-40.74165573 76.74933426 -40.37636261 75.88772186 -40 75 C-39.43955238 73.7204821 -39.43955238 73.7204821 -38.86778259 72.41511536 C-36.29055574 65.24246611 -38.3950225 56.50480403 -39.3125 49.140625 C-39.44567627 48.0332196 -39.57885254 46.92581421 -39.71606445 45.78485107 C-40.1390281 42.27260508 -40.56898638 38.76126647 -41 35.25 C-41.43017898 31.7243609 -41.8587906 28.19855204 -42.28393555 24.67230225 C-42.54789793 22.48495154 -42.81486561 20.29796087 -43.08520508 18.11138916 C-43.26539185 16.62394196 -43.26539185 16.62394196 -43.44921875 15.10644531 C-43.55580811 14.23868469 -43.66239746 13.37092407 -43.7722168 12.47686768 C-44.00278459 9.96972097 -44.03971741 7.51621085 -44 5 C-38.69874348 4.28289234 -33.39682508 3.57097354 -28.09423828 2.86376953 C-26.29196553 2.62266822 -24.48987884 2.38017168 -22.68798828 2.13623047 C-20.09195321 1.78502749 -17.49528151 1.43891423 -14.8984375 1.09375 C-14.0982016 0.9843811 -13.2979657 0.87501221 -12.47348022 0.7623291 C-8.28087175 0.21034128 -4.24079241 -0.11862356 0 0 Z " fill="#FDFDFE" transform="translate(332,367)"/>
<path d="M0 0 C2.69042969 1.1105957 2.69042969 1.1105957 5.421875 2.67578125 C6.94820557 3.53937256 6.94820557 3.53937256 8.50537109 4.42041016 C9.57609863 5.0447998 10.64682617 5.66918945 11.75 6.3125 C12.8529541 6.94462402 13.9559082 7.57674805 15.09228516 8.22802734 C18.404732 10.1356011 21.7040796 12.06403698 25 14 C25.94907227 14.55381348 26.89814453 15.10762695 27.87597656 15.67822266 C30.38379114 17.14732195 32.88195747 18.63099612 35.375 20.125 C36.11073242 20.56110596 36.84646484 20.99721191 37.60449219 21.4465332 C38.27899414 21.85863037 38.95349609 22.27072754 39.6484375 22.6953125 C40.51734619 23.2214917 40.51734619 23.2214917 41.40380859 23.75830078 C44.16617384 25.90718265 45.82914428 27.91396503 46.38095093 31.42149353 C46.3845311 32.77120995 46.3845311 32.77120995 46.38818359 34.14819336 C46.39764008 35.17283188 46.40709656 36.1974704 46.4168396 37.25315857 C46.41076691 38.35426468 46.40469421 39.45537079 46.3984375 40.58984375 C46.40130768 41.72651993 46.40417786 42.86319611 46.40713501 44.03431702 C46.40917596 46.43751524 46.403644 48.84073006 46.39111328 51.24389648 C46.37507574 54.92013792 46.3909542 58.5952774 46.41015625 62.27148438 C46.40817353 64.60677326 46.40432927 66.94206146 46.3984375 69.27734375 C46.40451019 70.37642563 46.41058289 71.47550751 46.4168396 72.6078949 C46.40265488 74.14958092 46.40265488 74.14958092 46.38818359 75.72241211 C46.38579681 76.62301865 46.38341003 77.52362518 46.38095093 78.45152283 C45.7891375 82.41062331 44.12381793 85.12918324 40.97314453 87.57055664 C40.20083496 88.01262451 39.42852539 88.45469238 38.6328125 88.91015625 C37.31893555 89.67453003 37.31893555 89.67453003 35.97851562 90.4543457 C35.03685547 90.98503662 34.09519531 91.51572754 33.125 92.0625 C32.15498047 92.6196167 31.18496094 93.1767334 30.18554688 93.75073242 C28.15266591 94.91714223 26.11712718 96.07893086 24.07910156 97.23632812 C21.06163458 98.96469646 18.07152479 100.73285706 15.0859375 102.515625 C13.22417214 103.61494551 11.36220095 104.71391752 9.5 105.8125 C8.6352002 106.33400635 7.77040039 106.8555127 6.87939453 107.39282227 C-1.07768406 112.02332358 -1.07768406 112.02332358 -6 111 C-9.13810005 109.66444878 -12.05199272 108.02190248 -15 106.3125 C-15.85851562 105.82571777 -16.71703125 105.33893555 -17.6015625 104.83740234 C-19.44127333 103.7893106 -21.27710253 102.7343817 -23.109375 101.67333984 C-26.08527755 99.95063409 -29.07355732 98.2507424 -32.0625 96.55078125 C-34.0426471 95.41055513 -36.02183777 94.26866619 -38 93.125 C-39.40572266 92.32316284 -39.40572266 92.32316284 -40.83984375 91.50512695 C-41.71769531 90.99038818 -42.59554687 90.47564941 -43.5 89.9453125 C-44.2734375 89.49687988 -45.046875 89.04844727 -45.84375 88.58642578 C-49.37575527 85.98781049 -51.68272534 84.03629697 -52.38803101 79.50958252 C-52.58129263 76.30333715 -52.63300447 73.12226831 -52.63671875 69.91015625 C-52.64766068 68.7328746 -52.6586026 67.55559296 -52.6698761 66.34263611 C-52.68572821 63.85550308 -52.69094145 61.36828269 -52.6862793 58.88110352 C-52.6874948 55.07876551 -52.74728695 51.28026454 -52.81054688 47.47851562 C-52.81868805 45.05990524 -52.82336083 42.64128018 -52.82421875 40.22265625 C-52.84779953 39.08812515 -52.87138031 37.95359406 -52.89567566 36.78468323 C-52.80656754 29.12374061 -52.80656754 29.12374061 -50.58512878 26.02874756 C-48.8057917 24.44967974 -47.04359232 23.2129492 -45 22 C-44.05374756 21.3930127 -43.10749512 20.78602539 -42.13256836 20.16064453 C-41.21096924 19.65645996 -40.28937012 19.15227539 -39.33984375 18.6328125 C-38.30512939 18.06062988 -37.27041504 17.48844727 -36.2043457 16.89892578 C-35.12628662 16.31353027 -34.04822754 15.72813477 -32.9375 15.125 C-30.70006035 13.89667175 -28.46307803 12.66751007 -26.2265625 11.4375 C-25.15438477 10.8496875 -24.08220703 10.261875 -22.97753906 9.65625 C-20.44501213 8.24753709 -17.9453234 6.80382197 -15.4609375 5.3125 C-14.82808838 4.93464355 -14.19523926 4.55678711 -13.54321289 4.16748047 C-11.94691316 3.20596265 -10.35786837 2.23242757 -8.76953125 1.2578125 C-5.50108831 -0.22658613 -3.56737396 -0.27703752 0 0 Z " fill="#062B75" transform="translate(249,111)"/>
<path d="M0 0 C4.38494677 1.99979112 8.45260189 4.42807676 12.5625 6.9375 C13.72258946 7.63013913 14.8835659 8.32129477 16.04541016 9.01098633 C18.33089361 10.37120132 20.60878655 11.74205195 22.88427734 13.11914062 C25.54146529 14.72319766 28.2105296 16.30081169 30.89453125 17.859375 C41.87947794 24.27958322 41.87947794 24.27958322 45 28 C45.5146637 30.49742126 45.5146637 30.49742126 45.53344727 33.33178711 C45.5492836 34.39646713 45.56511993 35.46114716 45.58143616 36.55809021 C45.57647629 37.70294388 45.57151642 38.84779755 45.56640625 40.02734375 C45.57260483 41.20841202 45.57880341 42.38948029 45.58518982 43.6063385 C45.59229277 46.10368017 45.58910581 48.60106914 45.57641602 51.09838867 C45.56256345 54.91999511 45.59660334 58.73914778 45.63476562 62.56054688 C45.63571692 64.98697977 45.63385745 67.41341572 45.62890625 69.83984375 C45.64216446 70.98267319 45.65542267 72.12550262 45.66908264 73.30296326 C45.57642884 81.19714919 45.57642884 81.19714919 42.81591797 85.04199219 C40.02590371 86.98198823 37.27449305 88.81385094 34.31640625 90.48828125 C32.68711182 91.41918579 32.68711182 91.41918579 31.02490234 92.36889648 C29.88230957 93.01028564 28.7397168 93.6516748 27.5625 94.3125 C26.38201389 94.9800016 25.20183906 95.64805401 24.02197266 96.31665039 C21.71570857 97.62336971 19.4079296 98.9272568 17.09912109 100.22949219 C14.52442563 101.70039903 11.98258443 103.20480692 9.45703125 104.7578125 C8.83304443 105.13639404 8.20905762 105.51497559 7.56616211 105.9050293 C6.01445527 106.85236122 4.47160331 107.81415761 2.9296875 108.77734375 C-0.88507251 110.36937026 -3.98413038 110.8265393 -8 110 C-11.7850688 108.41110874 -15.23787106 106.36566863 -18.75 104.25 C-20.24116333 103.37722412 -20.24116333 103.37722412 -21.76245117 102.48681641 C-23.82403595 101.27619756 -25.88090567 100.05751537 -27.93310547 98.83105469 C-30.90377423 97.05745051 -33.88875743 95.3108243 -36.87890625 93.5703125 C-38.69090351 92.50656877 -40.5021376 91.44152368 -42.3125 90.375 C-43.15973633 89.8790332 -44.00697266 89.38306641 -44.87988281 88.87207031 C-45.6581543 88.40639648 -46.43642578 87.94072266 -47.23828125 87.4609375 C-48.259823 86.85451416 -48.259823 86.85451416 -49.30200195 86.23583984 C-51 85 -51 85 -53 82 C-53.28761292 79.62956238 -53.28761292 79.62956238 -53.33813477 76.79760742 C-53.36057755 75.73607956 -53.38302032 74.6745517 -53.40614319 73.58085632 C-53.41778 72.43397842 -53.42941681 71.28710052 -53.44140625 70.10546875 C-53.45517807 68.92535721 -53.46894989 67.74524567 -53.48313904 66.52937317 C-53.50642918 64.03029073 -53.52368531 61.53114593 -53.53540039 59.03198242 C-53.56232572 55.21222394 -53.63722417 51.39523274 -53.71289062 47.57617188 C-53.72954756 45.14845615 -53.74331411 42.72071852 -53.75390625 40.29296875 C-53.78376114 39.15216354 -53.81361603 38.01135834 -53.84437561 36.83598328 C-53.80176237 29.13551364 -53.80176237 29.13551364 -51.61759949 26.04214478 C-49.83046397 24.45074116 -48.05676244 23.21882159 -46 22 C-44.94192139 21.32195312 -43.88384277 20.64390625 -42.79370117 19.9453125 C-41.18458862 19.04425781 -41.18458862 19.04425781 -39.54296875 18.125 C-38.95510086 17.79258301 -38.36723297 17.46016602 -37.7615509 17.11767578 C-35.90753627 16.07113365 -34.04787418 15.03518668 -32.1875 14 C-30.34512777 12.96592402 -28.50401898 11.92964624 -26.66360474 10.89208984 C-25.46423509 10.21743556 -24.26313375 9.54585004 -23.06027222 8.87744141 C-19.48208093 6.88039246 -16.04491659 4.73656784 -12.61328125 2.5 C-8.37726297 0.00030169 -4.87037908 -1.40981828 0 0 Z " fill="#062B75" transform="translate(466,229)"/>
<path d="M0 0 C0.33 0 0.66 0 1 0 C1.33 1.155 1.66 2.31 2 3.5 C8.60153445 23.18063086 21.32756873 39.70396752 35 55 C39.06021818 53.54459091 42.39593627 51.54365666 46 49.1875 C54.9998511 43.48828355 64.530318 39.95197461 75 38 C82.48506936 47.46508771 89.86314551 57.00650582 97.17431641 66.60644531 C99.15778095 69.20685804 101.14698812 71.80281664 103.13671875 74.3984375 C104.54953546 76.24474859 105.96229667 78.09110216 107.375 79.9375 C108.02879639 80.78900635 108.68259277 81.6405127 109.35620117 82.51782227 C113.72805072 88.24025211 117.91484268 94.06965276 122 100 C121.67 100.66 121.34 101.32 121 102 C107.69764653 99.20868006 95.38182549 95.63105301 83 90 C83 89.01 83 88.02 83 87 C83.99 86.67 84.98 86.34 86 86 C87.47960175 81.56119475 87.46034176 77.62890163 86.1875 73.125 C85.12779105 70.66821688 85.12779105 70.66821688 82 70 C76.11590066 69.3560214 76.11590066 69.3560214 71.125 72.125 C68.95519165 75.06062306 67.90020186 77.4810291 67 81 C60.31211374 77.47921372 54.46236358 73.13513608 48.625 68.375 C47.59052734 67.53159058 47.59052734 67.53159058 46.53515625 66.67114258 C43.77038085 64.38891787 41.18327504 62.20256715 38.7734375 59.5390625 C37.16107103 57.79104533 37.16107103 57.79104533 35.171875 58.04296875 C32.79316696 59.09114046 30.45343766 60.20453052 28.13232422 61.37475586 C9.92586093 70.44492778 -7.10274195 70.52446138 -27 70 C-26.43195329 65.85185379 -25.48738083 62.35742371 -23.82275391 58.52050781 C-23.37203522 57.47211731 -22.92131653 56.42372681 -22.4569397 55.34356689 C-21.96841522 54.22472107 -21.47989075 53.10587524 -20.9765625 51.953125 C-20.2235939 50.20355499 -20.2235939 50.20355499 -19.45541382 48.41864014 C-17.85155276 44.69301137 -16.23926772 40.9711258 -14.625 37.25 C-13.01793872 33.54313673 -11.41380173 29.83507794 -9.81600952 26.12420654 C-8.82292616 23.81793493 -7.82483925 21.51380922 -6.82095337 19.21221924 C-4.10293827 12.90222688 -1.78829186 6.63632546 0 0 Z " fill="#D0DBFC" transform="translate(295,432)"/>
<path d="M0 0 C1.91878091 1.04220207 3.81883121 2.11932391 5.703125 3.22265625 C6.7653125 3.84333984 7.8275 4.46402344 8.921875 5.10351562 C10.02015625 5.74998047 11.1184375 6.39644531 12.25 7.0625 C13.36375 7.71283203 14.4775 8.36316406 15.625 9.03320312 C23.85688973 13.85688973 23.85688973 13.85688973 25 15 C25.48480879 19.57163583 25.65636587 24.14120017 25.78955078 28.73510742 C25.84609891 30.27531676 25.9277808 31.8148269 26.03564453 33.35229492 C26.39001997 38.50073685 26.42281869 43.0058769 25 48 C21.15885286 51.82444196 16.91617254 53.82323925 12 56 C10.60938422 56.82768382 9.23138167 57.67776516 7.87890625 58.56640625 C6.78449219 59.22511719 5.69007813 59.88382813 4.5625 60.5625 C3.45003906 61.24441406 2.33757812 61.92632812 1.19140625 62.62890625 C-2.60539588 64.26009052 -4.04039391 63.96264103 -8 63 C-10.76074219 61.72485352 -10.76074219 61.72485352 -13.546875 60.12890625 C-14.55621094 59.55462891 -15.56554687 58.98035156 -16.60546875 58.38867188 C-17.64316406 57.78603516 -18.68085938 57.18339844 -19.75 56.5625 C-20.80316406 55.96373047 -21.85632813 55.36496094 -22.94140625 54.74804688 C-30.69754464 50.30245536 -30.69754464 50.30245536 -33 48 C-33.28522973 45.56227419 -33.44847969 43.24259283 -33.51171875 40.796875 C-33.53023392 40.08146545 -33.54874908 39.36605591 -33.56782532 38.62896729 C-33.5998861 37.11262737 -33.62552444 35.59614021 -33.64526367 34.07958984 C-33.6733002 32.53320512 -33.72099124 30.98704541 -33.78881836 29.44189453 C-34.34592514 16.71152777 -34.34592514 16.71152777 -31.29052734 12.82617188 C-28.93544296 11.23991526 -26.60209744 10.13077107 -24 9 C-22.3667659 8.00081427 -20.74679328 6.97963684 -19.140625 5.9375 C-17.5122603 4.95527041 -15.88204448 3.97610316 -14.25 3 C-13.42628906 2.48566406 -12.60257813 1.97132813 -11.75390625 1.44140625 C-10.95339844 0.96574219 -10.15289062 0.49007812 -9.328125 0 C-8.6155957 -0.433125 -7.90306641 -0.86625 -7.16894531 -1.3125 C-4.10478644 -2.28375972 -2.82451403 -1.4487901 0 0 Z " fill="#FAC950" transform="translate(250,135)"/>
<path d="M0 0 C2.71972025 0.91419421 5.03049338 2.19124773 7.52368164 3.61303711 C8.53495117 4.18731445 9.5462207 4.7615918 10.58813477 5.35327148 C11.63807617 5.9559082 12.68801758 6.55854492 13.76977539 7.17944336 C15.35048828 8.07759766 15.35048828 8.07759766 16.96313477 8.99389648 C24.69185643 13.39833072 24.69185643 13.39833072 28.20727539 15.74194336 C28.47425427 18.3665658 28.55560523 20.75260269 28.50024414 23.37475586 C28.4959993 24.12659149 28.49175446 24.87842712 28.48738098 25.65304565 C28.4705671 28.05804021 28.43291163 30.46220145 28.39477539 32.86694336 C28.37973198 34.49583752 28.36604297 36.1247448 28.35375977 37.75366211 C28.32065493 41.7500777 28.26885548 45.74586918 28.20727539 49.74194336 C24.58137728 51.86619535 20.95176265 53.9839053 17.31860352 56.09570312 C16.08384367 56.81463006 14.8501068 57.53531699 13.61743164 58.2578125 C11.84276761 59.29756526 10.06448953 60.33087884 8.28540039 61.36303711 C7.21708984 61.98621826 6.1487793 62.60939941 5.0480957 63.25146484 C0.4628206 65.65719744 0.4628206 65.65719744 -1.79272461 65.74194336 C-4.10732963 64.70478058 -6.14741105 63.63660983 -8.30834961 62.33959961 C-9.4353125 61.68741455 -10.56227539 61.03522949 -11.72338867 60.36328125 C-13.14876953 59.51886475 -14.57415039 58.67444824 -16.04272461 57.80444336 C-20.58022461 55.14381836 -25.11772461 52.48319336 -29.79272461 49.74194336 C-29.79272461 38.52194336 -29.79272461 27.30194336 -29.79272461 15.74194336 C-25.54397461 13.28756836 -21.29522461 10.83319336 -16.91772461 8.30444336 C-15.5785498 7.53044189 -14.239375 6.75644043 -12.85961914 5.95898438 C-11.28349854 5.04910767 -11.28349854 5.04910767 -9.67553711 4.12084961 C-8.05736084 3.18607788 -8.05736084 3.18607788 -6.40649414 2.23242188 C-1.98942639 -0.2863712 -1.98942639 -0.2863712 0 0 Z " fill="#CFDAFB" transform="translate(394.792724609375,376.258056640625)"/>
<path d="M0 0 C0.77480713 0.4444043 1.54961426 0.88880859 2.34790039 1.34667969 C3.04383301 1.70358887 3.73976563 2.06049805 4.45678711 2.42822266 C5.4818335 3.0027417 5.4818335 3.0027417 6.52758789 3.58886719 C7.29200195 4.01554688 8.05641602 4.44222656 8.84399414 4.88183594 C9.6290332 5.32398438 10.41407227 5.76613281 11.22290039 6.22167969 C12.38885742 6.87330078 12.38885742 6.87330078 13.57836914 7.53808594 C18.18337989 10.11534406 22.76576703 12.72831777 27.34790039 15.34667969 C27.34790039 26.56667969 27.34790039 37.78667969 27.34790039 49.34667969 C11.62524414 58.33105469 11.62524414 58.33105469 8.87084961 59.88378906 C7.32590386 60.77960045 5.80015437 61.71105501 4.31323242 62.70019531 C2.53930664 63.86230469 2.53930664 63.86230469 -0.65209961 65.34667969 C-3.48681641 64.56835938 -3.48681641 64.56835938 -6.65209961 63.34667969 C-7.60391113 63.02570313 -8.55572266 62.70472656 -9.53637695 62.37402344 C-17.44341796 59.4545006 -25.41672577 56.18910732 -30.65209961 49.34667969 C-34.31448225 38.93008396 -32.05777198 26.04600902 -30.65209961 15.34667969 C-26.7695258 13.00792652 -22.87376133 10.69366746 -18.96386719 8.40087891 C-17.63608038 7.61772953 -16.31212465 6.82804644 -14.9921875 6.03173828 C-13.09297826 4.88749864 -11.18118462 3.76754163 -9.26538086 2.65136719 C-8.38539177 2.11091263 -8.38539177 2.11091263 -7.48762512 1.55953979 C-4.66739331 -0.05386815 -3.21579612 -0.79218176 0 0 Z " fill="#FA8E02" transform="translate(463.652099609375,251.6533203125)"/>
<path d="M0 0 C3.26915051 1.01301371 5.92070607 2.48368977 8.87426758 4.21508789 C9.91752197 4.82167236 10.96077637 5.42825684 12.03564453 6.05322266 C13.34750732 6.82722412 14.65937012 7.60122559 16.01098633 8.39868164 C20.19786133 10.85305664 24.38473633 13.30743164 28.69848633 15.83618164 C28.69848633 27.05618164 28.69848633 38.27618164 28.69848633 49.83618164 C20.32348633 54.46118164 20.32348633 54.46118164 17.60229492 55.95678711 C12.51527593 58.76846918 7.59683726 61.72252728 2.83911133 65.07055664 C-0.46262212 66.2514686 -2.12830037 65.24227616 -5.30151367 63.83618164 C-8.17160649 62.3027954 -10.95717433 60.64848649 -13.73901367 58.96118164 C-15.19581229 58.0883974 -16.65284106 57.21599719 -18.11010742 56.34399414 C-19.06614868 55.76609131 -19.06614868 55.76609131 -20.04150391 55.17651367 C-23.10694528 53.35850858 -26.20419862 51.59933693 -29.30151367 49.83618164 C-32.56603635 24.98814169 -32.56603635 24.98814169 -29.30151367 15.83618164 C-23.94236945 8.97874546 -15.85087312 5.71785364 -7.84521484 2.80883789 C-0.42112115 -0.02997478 -0.42112115 -0.02997478 0 0 Z " fill="#AFD752" transform="translate(388.301513671875,130.163818359375)"/>
<path d="M0 0 C6.64850311 3.02204687 12.84415052 6.09157743 17.3828125 11.96484375 C19.18963953 17.50290736 19.4840108 22.67330535 19.3828125 28.46484375 C19.3810199 29.17988068 19.37922729 29.8949176 19.37738037 30.63162231 C19.19751429 41.88290517 19.19751429 41.88290517 15.54589844 46.07226562 C13.2307157 47.63993185 10.92200124 48.80013326 8.3828125 49.96484375 C6.89651588 50.8932949 5.42209082 51.84105557 3.9609375 52.80859375 C2.51983625 53.69662371 1.07713255 54.58205862 -0.3671875 55.46484375 C-1.09550781 55.93148437 -1.82382813 56.398125 -2.57421875 56.87890625 C-7.87220441 60.09038939 -7.87220441 60.09038939 -11.07421875 59.55078125 C-11.91339844 59.02742188 -12.75257813 58.5040625 -13.6171875 57.96484375 C-15.02005216 57.21354492 -16.42525695 56.46660871 -17.83203125 55.72265625 C-19.40797749 54.848158 -20.98215334 53.97046288 -22.5546875 53.08984375 C-23.34037109 52.65542969 -24.12605469 52.22101563 -24.93554688 51.7734375 C-27.17735284 50.52402932 -29.41114976 49.27656769 -31.6171875 47.96484375 C-32.68477295 47.40555176 -33.7523584 46.84625977 -34.85229492 46.27001953 C-37.6171875 43.96484375 -37.6171875 43.96484375 -38.29833984 40.57324219 C-38.2973962 39.23985693 -38.26384648 37.90622102 -38.203125 36.57421875 C-38.19463531 35.8696051 -38.18614563 35.16499146 -38.17739868 34.43902588 C-38.14390058 32.19605294 -38.06864798 29.95672276 -37.9921875 27.71484375 C-37.96208235 26.19145832 -37.93470747 24.66801631 -37.91015625 23.14453125 C-37.84412769 19.41679188 -37.74063879 15.6911735 -37.6171875 11.96484375 C-34.03682635 9.78862807 -30.4440612 7.63508792 -26.83837891 5.5012207 C-25.61471488 4.77288008 -24.39459026 4.03855744 -23.17822266 3.2980957 C-21.42475704 2.23210904 -19.65950921 1.18858628 -17.890625 0.1484375 C-16.83278809 -0.48521729 -15.77495117 -1.11887207 -14.68505859 -1.77172852 C-9.39911942 -3.94861338 -5.09216478 -2.06283287 0 0 Z " fill="#66CAD1" transform="translate(189.6171875,263.03515625)"/>
<path d="M0 0 C3.140625 1.453125 3.140625 1.453125 6.25 3.25 C7.28640625 3.83265625 8.3228125 4.4153125 9.390625 5.015625 C14.80877501 9.13601453 14.70883102 15.86406697 15.59765625 22.2109375 C15.77167969 23.50257813 15.94570313 24.79421875 16.125 26.125 C16.30675781 27.3934375 16.48851562 28.661875 16.67578125 29.96875 C18.95864092 46.61817767 18.95864092 46.61817767 18 52 C15.67410634 54.47653444 13.05180877 55.57208948 10 57 C7.95518877 58.28668278 5.913661 59.57859463 3.875 60.875 C-1.16052984 64.0672855 -1.16052984 64.0672855 -4.82055664 63.77392578 C-8.27563929 62.93290512 -10.74813108 61.68864679 -13.80078125 59.875 C-14.85974609 59.25109375 -15.91871094 58.6271875 -17.00976562 57.984375 C-18.09966797 57.32953125 -19.18957031 56.6746875 -20.3125 56 C-21.42173828 55.34515625 -22.53097656 54.6903125 -23.67382812 54.015625 C-31.80333647 49.19666353 -31.80333647 49.19666353 -33 48 C-33.48480879 43.42836417 -33.65636587 38.85879983 -33.78955078 34.26489258 C-33.84609891 32.72468324 -33.9277808 31.1851731 -34.03564453 29.64770508 C-34.39001997 24.49926315 -34.42281869 19.9941231 -33 15 C-29.15885286 11.17555804 -24.91617254 9.17676075 -20 7 C-18.60938422 6.17231618 -17.23138167 5.32223484 -15.87890625 4.43359375 C-14.78449219 3.77488281 -13.69007813 3.11617188 -12.5625 2.4375 C-11.45003906 1.75558594 -10.33757812 1.07367188 -9.19140625 0.37109375 C-5.41893907 -1.24963572 -3.88825902 -1.19756339 0 0 Z " fill="#FA7C9F" transform="translate(256,381)"/>
<path d="M0 0 C0.33745354 2.39531756 0.6700829 4.79114268 1 7.1875 C1.09539062 7.86103516 1.19078125 8.53457031 1.2890625 9.22851562 C1.78432696 12.85455899 2.04413752 16.3448619 2 20 C-6.18829386 21.04970148 -14.37733652 22.09327303 -22.56738186 23.12921143 C-26.3710714 23.61052221 -30.17447766 24.09387262 -33.97729492 24.58203125 C-37.65306812 25.05380284 -41.32950794 25.52002462 -45.00645638 25.98254395 C-46.40318541 26.15920007 -47.79967102 26.33779283 -49.19589043 26.51843262 C-56.5138933 27.4639201 -63.61796996 28.22616081 -71 28 C-71.55394953 23.08369795 -72.02938962 18.26140507 -72.01367188 13.30834961 C-72.011698 12.50070663 -72.00972412 11.69306366 -72.00769043 10.86094666 C-72.00515259 10.24683426 -72.00261475 9.63272186 -72 9 C-71.23214172 8.901996 -70.46428345 8.803992 -69.67315674 8.70301819 C-62.43375031 7.77860013 -55.19464311 6.85188718 -47.95586014 5.92260075 C-44.23440588 5.44493726 -40.51284265 4.96815917 -36.79101562 4.4934082 C-33.19867124 4.03514068 -29.60663266 3.57454263 -26.0147934 3.1123333 C-24.64499272 2.93647825 -23.27508428 2.76146049 -21.90506744 2.58729744 C-19.98493019 2.34305454 -18.06520902 2.09554724 -16.14550781 1.84790039 C-14.50669647 1.6380526 -14.50669647 1.6380526 -12.83477783 1.42396545 C-10.09254667 1.06118854 -10.09254667 1.06118854 -7.81903076 0.45091248 C-5.2071326 -0.19654082 -2.67702776 -0.06084154 0 0 Z " fill="#91B0F2" transform="translate(341,325)"/>
<path d="M0 0 C0.33 0 0.66 0 1 0 C1 16.17 1 32.34 1 49 C0.67 49 0.34 49 0 49 C0 45.04 0 41.08 0 37 C-14.19 37 -28.38 37 -43 37 C-43 30.4 -43 23.8 -43 17 C-33.55568282 16.06000918 -24.22593786 15.87911536 -14.75 15.9375 C-13.31119949 15.94253077 -11.87239726 15.94709086 -10.43359375 15.95117188 C-6.95564995 15.96117747 -3.47795305 15.98077299 0 16 C0 10.72 0 5.44 0 0 Z " fill="#6B68F4" transform="translate(338,138)"/>
<path d="M0 0 C10.53502278 5.22138383 10.53502278 5.22138383 15.125 7.8125 C16.24261719 8.44091797 16.24261719 8.44091797 17.3828125 9.08203125 C17.91648437 9.38496094 18.45015625 9.68789063 19 10 C12.08093988 23.04378706 5.04254219 36.0225682 -2 49 C-2.73968018 48.59442871 -3.47936035 48.18885742 -4.24145508 47.77099609 C-5.22009521 47.23555176 -6.19873535 46.70010742 -7.20703125 46.1484375 C-8.65686401 45.35445557 -8.65686401 45.35445557 -10.13598633 44.54443359 C-13.71920549 42.61216487 -17.34532112 40.79286134 -21 39 C-14.08093988 25.95621294 -7.04254219 12.9774318 0 0 Z " fill="#6865F6" transform="translate(429,322)"/>
<path d="M0 0 C1.38525391 1.9050293 1.38525391 1.9050293 2.9765625 4.57421875 C3.56163574 5.54673584 4.14670898 6.51925293 4.74951172 7.52124023 C5.36842285 8.56610596 5.98733398 9.61097168 6.625 10.6875 C7.89041011 12.79700392 9.15603405 14.90637958 10.421875 17.015625 C11.34129883 18.55573242 11.34129883 18.55573242 12.27929688 20.12695312 C14.44849851 23.74885506 16.6536836 27.34740361 18.875 30.9375 C19.79925781 32.43603516 19.79925781 32.43603516 20.7421875 33.96484375 C21.15726562 34.63644531 21.57234375 35.30804688 22 36 C18.96218242 39.3013391 15.79842776 41.53995888 11.9375 43.8125 C10.89464844 44.43769531 9.85179687 45.06289062 8.77734375 45.70703125 C6 47 6 47 3 46 C1.37768555 43.75024414 1.37768555 43.75024414 -0.36328125 40.78515625 C-1.00330078 39.70556641 -1.64332031 38.62597656 -2.30273438 37.51367188 C-2.96595703 36.37478516 -3.62917969 35.23589844 -4.3125 34.0625 C-5.28993164 32.40637695 -5.28993164 32.40637695 -6.28710938 30.71679688 C-7.57704008 28.53075815 -8.86372034 26.3427978 -10.14697266 24.15283203 C-12.73446423 19.75034637 -15.3629119 15.37290857 -18 11 C-14.85714845 7.746443 -11.80825147 5.51137799 -7.875 3.25 C-6.82054687 2.63640625 -5.76609375 2.0228125 -4.6796875 1.390625 C-2 0 -2 0 0 0 Z " fill="#6865F6" transform="translate(423,200)"/>
<path d="M0 0 C3.61450167 2.46093731 5.24228198 4.71826985 6.125 8.9375 C6.36890311 12.23957287 5.76489796 13.87311558 3.6875 16.4375 C0.61838747 19.36386311 -0.09318454 19.89536745 -4.25 20.375 C-9.10423522 19.88957648 -10.80346282 18.65318534 -14 15 C-15.11825222 12.23558968 -15.46136141 9.95271304 -15 7 C-11.56825418 0.7799607 -6.91710398 -1.13959951 0 0 Z " fill="#6966F6" transform="translate(337,543)"/>
<path d="M0 0 C3.91771408 3.16751351 5.80848291 5.30826567 6.375 10.3125 C6 14 6 14 3.625 16.875 C-0.43401714 20.16087102 -2.75752628 20.44427743 -8 20 C-10.75329021 18.20437595 -12.52627461 16.94745078 -14 14 C-14.5811138 6.91041162 -14.5811138 6.91041162 -12.125 3.0625 C-8.52738076 -0.42930691 -4.87276617 -0.8588017 0 0 Z " fill="#6A66F7" transform="translate(377,501)"/>
<path d="M0 0 C2.69105198 2.17574416 4.45532928 3.91065856 6 7 C6.25225938 10.86797709 6.39446566 13.8436589 4 17 C-0.05367246 19.57960975 -3.20806066 20.71369309 -8 20 C-10.69990662 18.20006226 -12.5418865 16.916227 -14 14 C-14.5811138 6.91041162 -14.5811138 6.91041162 -12.125 3.0625 C-8.52738076 -0.42930691 -4.87276617 -0.8588017 0 0 Z " fill="#6865F6" transform="translate(283,529)"/>
</svg>
