<?xml version="1.0" encoding="UTF-8"?>
<svg version="1.1" xmlns="http://www.w3.org/2000/svg" width="640" height="640">
<path d="M0 0 C211.2 0 422.4 0 640 0 C640 211.2 640 422.4 640 640 C428.8 640 217.6 640 0 640 C0 428.8 0 217.6 0 0 Z " fill="#FEFEFE" transform="translate(0,0)"/>
<path d="M0 0 C2.61450195 1.12646484 2.61450195 1.12646484 5.23828125 2.7109375 C6.70430786 3.58214233 6.70430786 3.58214233 8.19995117 4.47094727 C9.22709229 5.09928467 10.2542334 5.72762207 11.3125 6.375 C13.46088177 7.66285339 15.60931963 8.95061321 17.7578125 10.23828125 C18.81387695 10.87717285 19.86994141 11.51606445 20.95800781 12.17431641 C23.68154663 13.80887686 26.42121349 15.40582627 29.1796875 16.98046875 C29.94885498 17.42148926 30.71802246 17.86250977 31.51049805 18.31689453 C32.9155086 19.12079314 34.32305678 19.92028032 35.73364258 20.71435547 C36.67566528 21.25987061 36.67566528 21.25987061 37.63671875 21.81640625 C38.43662231 22.27188843 38.43662231 22.27188843 39.25268555 22.73657227 C41.99530682 24.71967483 43.91282461 26.2714889 46 29 C46.54365648 32.40297488 46.27001143 35.70213882 46.0390625 39.12890625 C45.97753181 41.15417253 45.92038148 43.17957574 45.8671875 45.20507812 C45.76041996 48.38092257 45.62614336 51.54540653 45.4140625 54.71606445 C44.30905607 66.61451736 44.30905607 66.61451736 48.81268311 77.11010742 C53.33367116 80.84260378 58.33821214 83.42156268 63.64389038 85.8581543 C67.13272428 87.54895423 70.1919555 89.6656797 73.375 91.875 C76.18888643 93.90377663 76.18888643 93.90377663 79 95 C82.97771662 93.75539932 86.44740018 91.68639878 90.03515625 89.59375 C91.17404297 88.93246094 92.31292969 88.27117187 93.48632812 87.58984375 C94.6784956 86.89341775 95.87055185 86.19680132 97.0625 85.5 C99.40659009 84.13375212 101.75198962 82.76979332 104.09765625 81.40625 C105.13414307 80.80103516 106.17062988 80.19582031 107.23852539 79.57226562 C108.14981201 79.05341797 109.06109863 78.53457031 110 78 C110.65798584 77.59974609 111.31597168 77.19949219 111.99389648 76.78710938 C115.89649647 75.25589575 118.99679242 75.56321387 122.7980957 77.21826172 C124.22255005 78.06541748 124.22255005 78.06541748 125.67578125 78.9296875 C126.74368896 79.55576904 127.81159668 80.18185059 128.91186523 80.8269043 C130.03407471 81.50277588 131.15628418 82.17864746 132.3125 82.875 C133.47599001 83.56466224 134.64013883 84.25321422 135.80493164 84.94067383 C138.12458521 86.31167288 140.44007801 87.68933836 142.75292969 89.07177734 C145.61425871 90.77093348 148.49019821 92.436919 151.3828125 94.08203125 C152.16358154 94.52885254 152.94435059 94.97567383 153.7487793 95.43603516 C155.16664421 96.24674074 156.58722732 97.0527182 158.01098633 97.85302734 C161.48201918 99.86476576 163.91295521 101.56362579 166 105 C166.38768005 107.4147644 166.38768005 107.4147644 166.40405273 110.13232422 C166.42307899 111.66444046 166.42307899 111.66444046 166.44248962 113.22750854 C166.43808617 114.87446213 166.43808617 114.87446213 166.43359375 116.5546875 C166.4388356 117.688992 166.44407745 118.82329651 166.44947815 119.99197388 C166.45590039 122.39096254 166.45455879 124.78998269 166.44604492 127.18896484 C166.43754772 130.85441421 166.4662754 134.51829886 166.49804688 138.18359375 C166.49965932 140.51562453 166.49908054 142.84765807 166.49609375 145.1796875 C166.50732773 146.27360809 166.51856171 147.36752869 166.53013611 148.49459839 C166.47568223 154.46020635 166.26274771 158.43717285 162 163 C159.40966797 164.87109375 159.40966797 164.87109375 156.4921875 166.4375 C155.42226563 167.02273438 154.35234375 167.60796875 153.25 168.2109375 C152.13625 168.80132812 151.0225 169.39171875 149.875 170 C147.6841247 171.1860767 145.49401092 172.3735612 143.3046875 173.5625 C142.24604492 174.13226563 141.18740234 174.70203125 140.09667969 175.2890625 C136.29933253 177.38712375 132.60703807 179.63208077 128.93017578 181.93359375 C127 183 127 183 125 183 C121.50387033 205.92168282 121.50387033 205.92168282 127.21044922 227.21923828 C132.77845951 231.98230481 139.14060148 234.52127586 146.01513672 236.86474609 C151.63927603 239.00381429 156.64228269 241.96342403 160 247 C160.26742554 249.33920288 160.26742554 249.33920288 160.29052734 252.12646484 C160.30328705 253.17119965 160.31604675 254.21593445 160.32919312 255.29232788 C160.33253159 256.98453964 160.33253159 256.98453964 160.3359375 258.7109375 C160.3425943 259.87122467 160.3492511 261.03151184 160.35610962 262.22695923 C160.36624186 264.68319105 160.37092646 267.13945043 160.37060547 269.59570312 C160.3749748 273.35332659 160.41127999 277.10977224 160.44921875 280.8671875 C160.45508749 283.25260015 160.4590565 285.63801838 160.4609375 288.0234375 C160.47530853 289.14753021 160.48967957 290.27162292 160.50448608 291.42977905 C160.45915287 299.17315208 160.45915287 299.17315208 158.31591797 303.03271484 C155.80698258 305.16396103 153.35360671 306.83529545 150.484375 308.453125 C149.40510742 309.06857178 148.32583984 309.68401855 147.21386719 310.31811523 C146.07079102 310.95563721 144.92771484 311.59315918 143.75 312.25 C142.57151722 312.91469676 141.39345908 313.58014694 140.21582031 314.24633789 C137.88600547 315.56293539 135.55329366 316.87387745 133.21875 318.18212891 C130.43916388 319.75197101 127.68298553 321.35203007 124.9375 322.98046875 C124.21594727 323.40360352 123.49439453 323.82673828 122.75097656 324.26269531 C121.46114683 325.01997456 120.17619488 325.78565482 118.89746094 326.56152344 C115.02936226 328.79657083 112.42800914 329.37362827 108 329 C105.21435547 327.82592773 105.21435547 327.82592773 102.3671875 326.18359375 C101.31273437 325.58353516 100.25828125 324.98347656 99.171875 324.36523438 C98.08390625 323.72908203 96.9959375 323.09292969 95.875 322.4375 C94.27785156 321.52387695 94.27785156 321.52387695 92.6484375 320.59179688 C88.29455591 318.09518395 83.95435611 315.59566152 79.69628906 312.93798828 C78.6440918 312.28942871 77.59189453 311.64086914 76.5078125 310.97265625 C75.09846436 310.08139038 75.09846436 310.08139038 73.66064453 309.17211914 C70.5131593 307.78552742 69.21965911 307.92733447 66 309 C63.69779033 310.12546475 61.42760205 311.31799886 59.1875 312.5625 C58.59001953 312.89185547 57.99253906 313.22121094 57.37695312 313.56054688 C55.91466002 314.36773267 54.4568601 315.18304917 53 316 C53.68033001 319.6221819 55.20631911 322.38353377 57.03515625 325.56640625 C57.67179199 326.67838379 58.30842773 327.79036133 58.96435547 328.93603516 C59.66354683 330.14496676 60.36293343 331.35378547 61.0625 332.5625 C61.78294647 333.81545929 62.50315779 335.06855382 63.22314453 336.32177734 C68.20020728 344.96671357 73.272769 353.55352133 78.375 362.125 C82.91241069 369.74813558 87.42384204 377.37954193 91.75 385.125 C92.1320459 385.80449707 92.5140918 386.48399414 92.90771484 387.18408203 C93.97049986 389.10769881 94.99236396 391.04698797 96 393 C96.55965454 394.04305298 96.55965454 394.04305298 97.13061523 395.10717773 C100.08733737 401.04621849 100.66789722 406.22460091 100.5625 412.8125 C100.55154297 413.78227783 100.54058594 414.75205566 100.52929688 415.7512207 C100.29930074 423.37367596 99.04753268 429.43509944 95 436 C94.43023437 436.95003906 93.86046875 437.90007812 93.2734375 438.87890625 C86.26078318 449.48446371 76.1234896 456.63041797 63.71495247 459.53485584 C60.84664859 460.02627321 58.18121177 460.12879453 55.271698 460.13371277 C54.12798233 460.13797775 52.98426666 460.14224274 51.80589294 460.14663696 C50.56009964 460.14618378 49.31430634 460.14573059 48.03076172 460.14526367 C46.71146164 460.14862228 45.39216156 460.1519809 44.03288269 460.15544128 C40.41891443 460.16426323 36.80496986 460.16661873 33.19099188 460.16725707 C30.92899296 460.16796897 28.66700002 460.17010601 26.40500259 460.17275429 C18.50144317 460.18200402 10.59790059 460.18608992 2.69433594 460.18530273 C-4.65200581 460.18470308 -11.99827386 460.19523368 -19.34459698 460.2110464 C-25.66668926 460.2241654 -31.9887576 460.22948476 -38.31086338 460.22884732 C-42.07992003 460.22859348 -45.84891126 460.23138129 -49.61795425 460.24202538 C-53.16877179 460.25177919 -56.71946237 460.2517362 -60.27028465 460.24450874 C-62.17776995 460.24298128 -64.08525544 460.25125985 -65.99272156 460.25994873 C-80.90149198 460.20606901 -94.07930434 457.46248241 -105.2578125 446.91015625 C-114.36340362 436.92667182 -118.17440457 426.06045477 -118.3125 412.8125 C-118.35600586 411.4502832 -118.35600586 411.4502832 -118.40039062 410.06054688 C-118.46206058 403.43339893 -117.1334078 398.80090778 -114 393 C-113.62029053 392.2670874 -113.24058105 391.5341748 -112.84936523 390.77905273 C-111.61767188 388.43881007 -110.34709102 386.12410699 -109.0625 383.8125 C-108.58651367 382.95156738 -108.11052734 382.09063477 -107.62011719 381.20361328 C-103.58304359 373.94970107 -99.38224341 366.79806134 -95.13696289 359.66455078 C-90.69945088 352.20554478 -86.33552902 344.70603523 -82 337.1875 C-81.37706055 336.10839355 -80.75412109 335.02928711 -80.11230469 333.91748047 C-76.6885246 327.97370164 -73.30717244 322.00949047 -70 316 C-71.08571289 315.60010864 -71.08571289 315.60010864 -72.19335938 315.19213867 C-75.00388961 313.99834786 -77.35801017 312.60187351 -79.90625 310.92578125 C-80.81503906 310.34119141 -81.72382813 309.75660156 -82.66015625 309.15429688 C-84.55875328 307.92295093 -86.45198752 306.6832978 -88.33984375 305.43554688 C-89.24863281 304.85482422 -90.15742188 304.27410156 -91.09375 303.67578125 C-91.91552734 303.13864502 -92.73730469 302.60150879 -93.58398438 302.0480957 C-96.63342354 300.7252135 -97.87124426 300.94810364 -101 302 C-102.94928434 302.95168412 -104.86310305 303.97776683 -106.74609375 305.0546875 C-107.83083984 305.66957031 -108.91558594 306.28445313 -110.03320312 306.91796875 C-111.71833008 307.88669922 -111.71833008 307.88669922 -113.4375 308.875 C-115.66470315 310.14439039 -117.89254754 311.41265648 -120.12109375 312.6796875 C-121.1052124 313.24413574 -122.08933105 313.80858398 -123.10327148 314.39013672 C-132.80666464 319.78281893 -132.80666464 319.78281893 -138 319 C-141.14560265 317.68393536 -144.05287153 316.02098027 -147 314.3125 C-147.85779053 313.82716797 -148.71558105 313.34183594 -149.59936523 312.84179688 C-152.40897953 311.24368158 -155.20521187 309.62389022 -158 308 C-159.00047363 307.4229834 -160.00094727 306.8459668 -161.03173828 306.25146484 C-164.04714204 304.50964776 -167.05638764 302.75779881 -170.0625 301 C-171.00802734 300.44868408 -171.95355469 299.89736816 -172.92773438 299.3293457 C-173.80880859 298.80816162 -174.68988281 298.28697754 -175.59765625 297.75 C-176.37633057 297.29109375 -177.15500488 296.8321875 -177.95727539 296.359375 C-181.22474878 294.1849646 -182.74403834 292.76788498 -184 289 C-184.11206662 287.32428952 -184.16892928 285.64461501 -184.19287109 283.96533203 C-184.20893402 282.94061798 -184.22499695 281.91590393 -184.24154663 280.86013794 C-184.28603151 276.18394681 -184.32704302 271.5078961 -184.35009766 266.83154297 C-184.36667581 264.36399924 -184.39398983 261.89650388 -184.43212891 259.42919922 C-184.48682859 255.87181688 -184.5087601 252.31555844 -184.5234375 248.7578125 C-184.54610687 247.65559357 -184.56877625 246.55337463 -184.59213257 245.41775513 C-184.57103861 237.78688422 -184.57103861 237.78688422 -181.80395508 233.97387695 C-179.11502159 232.08097079 -176.47022687 230.28935682 -173.61328125 228.66015625 C-172.59169922 228.07169922 -171.57011719 227.48324219 -170.51757812 226.87695312 C-169.45990234 226.27818359 -168.40222656 225.67941406 -167.3125 225.0625 C-165.22493262 223.86645736 -163.1376897 222.66984824 -161.05078125 221.47265625 C-160.03967285 220.89660645 -159.02856445 220.32055664 -157.98681641 219.72705078 C-154.26483665 217.57491045 -150.60185843 215.33289104 -146.94995117 213.06420898 C-145 212 -145 212 -143 212 C-143 198.47 -143 184.94 -143 171 C-150.86351665 166.65617268 -150.86351665 166.65617268 -158.734375 162.32568359 C-174.17464402 153.73803397 -174.17464402 153.73803397 -178 148 C-178.26742554 145.66079712 -178.26742554 145.66079712 -178.29052734 142.87353516 C-178.30328705 141.82880035 -178.31604675 140.78406555 -178.32919312 139.70767212 C-178.33141876 138.57953094 -178.33364441 137.45138977 -178.3359375 136.2890625 C-178.3425943 135.12877533 -178.3492511 133.96848816 -178.35610962 132.77304077 C-178.36624186 130.31680895 -178.37092646 127.86054957 -178.37060547 125.40429688 C-178.3749748 121.64667341 -178.41127999 117.89022776 -178.44921875 114.1328125 C-178.45508749 111.74739985 -178.4590565 109.36198162 -178.4609375 106.9765625 C-178.47530853 105.85246979 -178.48967957 104.72837708 -178.50448608 103.57022095 C-178.45913256 95.82337905 -178.45913256 95.82337905 -176.30004883 91.95141602 C-173.87088458 89.89045541 -171.54125182 88.31699723 -168.73828125 86.80078125 C-167.70936768 86.23568848 -166.6804541 85.6705957 -165.62036133 85.08837891 C-164.52876709 84.50233887 -163.43717285 83.91629883 -162.3125 83.3125 C-160.05103762 82.07873775 -157.79062437 80.8430506 -155.53125 79.60546875 C-154.42136719 78.99880371 -153.31148437 78.39213867 -152.16796875 77.76708984 C-149.33439376 76.18652451 -146.55031218 74.55360838 -143.78125 72.86328125 C-142.63402466 72.16368286 -142.63402466 72.16368286 -141.46362305 71.44995117 C-140.07064354 70.59196686 -138.68361343 69.72421572 -137.30395508 68.8449707 C-133.27139537 66.37658078 -130.69093153 65.57661749 -126 66 C-123.30615234 67.17407227 -123.30615234 67.17407227 -120.5859375 68.81640625 C-119.57660156 69.41646484 -118.56726563 70.01652344 -117.52734375 70.63476562 C-116.48707031 71.27091797 -115.44679688 71.90707031 -114.375 72.5625 C-112.84939453 73.47612305 -112.84939453 73.47612305 -111.29296875 74.40820312 C-102.69869324 79.55496507 -102.69869324 79.55496507 -98.76269531 82.06201172 C-97.71952148 82.71057129 -96.67634766 83.35913086 -95.6015625 84.02734375 C-94.66908691 84.621521 -93.73661133 85.21569824 -92.77587891 85.82788086 C-89.27057262 87.30800183 -87.63343558 87.04735112 -84 86 C-81.8347111 85.04891719 -79.70623628 84.01132553 -77.61328125 82.91015625 C-77.02959274 82.60556992 -76.44590424 82.30098358 -75.8445282 81.98716736 C-73.99632245 81.02003637 -72.15454464 80.04130486 -70.3125 79.0625 C-69.06483493 78.408776 -67.81679116 77.75577422 -66.56835938 77.10351562 C-60.15714488 73.77076182 -60.15714488 73.77076182 -54 70 C-53.72371473 67.02315037 -53.63134478 64.24268952 -53.6640625 61.265625 C-53.65154446 59.47655891 -53.63850709 57.68749639 -53.625 55.8984375 C-53.62107637 53.076368 -53.62497581 50.25465262 -53.63964844 47.43261719 C-53.64824394 44.70975177 -53.62648679 41.98836088 -53.6015625 39.265625 C-53.61490631 38.42791565 -53.62825012 37.5902063 -53.64199829 36.72711182 C-53.58775285 32.40316326 -53.25235559 30.39126981 -50.8449707 26.65869141 C-47.97649503 23.97803406 -45.30565642 22.10013562 -41.87890625 20.1953125 C-41.29769516 19.86763885 -40.71648407 19.53996521 -40.11766052 19.20236206 C-38.27206693 18.16513202 -36.41779931 17.14474725 -34.5625 16.125 C-33.35418845 15.45034451 -32.14650117 14.77456971 -30.93945312 14.09765625 C-29.12907399 13.08274535 -27.31739006 12.07085465 -25.49966431 11.06915283 C-22.35790511 9.33634504 -19.25104351 7.56430059 -16.17919922 5.70996094 C-15.24466164 5.15294998 -15.24466164 5.15294998 -14.29124451 4.58468628 C-12.56754537 3.55362056 -10.85173932 2.50939241 -9.13647461 1.46435547 C-5.67653479 -0.15101925 -3.76612769 -0.49946641 0 0 Z " fill="#062B75" transform="translate(329,90)"/>
<path d="M0 0 C2.73762305 0.98295027 5.13782417 2.2967215 7.67211914 3.72631836 C8.74204102 4.32766602 9.81196289 4.92901367 10.91430664 5.54858398 C12.02805664 6.18086914 13.14180664 6.8131543 14.28930664 7.46459961 C15.37985352 8.07754883 16.47040039 8.69049805 17.59399414 9.32202148 C22.66060894 12.17956799 27.64154452 15.08371463 32.53149414 18.23413086 C36.64019152 20.68224349 39.30885092 21.71041375 44.16430664 20.77709961 C47.19883132 19.52508265 49.97095837 17.95336616 52.78930664 16.27709961 C53.57329834 15.82802246 54.35729004 15.37894531 55.16503906 14.91625977 C58.84117985 12.79493344 62.46754064 10.60597566 66.05102539 8.33178711 C66.63480957 7.9624707 67.21859375 7.5931543 67.82006836 7.21264648 C69.3781132 6.21527737 70.9221379 5.19610273 72.46508789 4.17553711 C75.54862191 2.57798982 76.76031178 2.10737873 80.16430664 2.77709961 C82.9600541 4.2069946 85.51472319 5.94026201 88.10180664 7.71459961 C89.48548191 8.64103733 90.86961434 9.56679254 92.25415039 10.49194336 C92.99528076 11.01989502 93.73641113 11.54784668 94.5 12.09179688 C97.24339986 13.92208962 97.24339986 13.92208962 100.81494141 15.36669922 C104.86252944 17.23602057 108.49818409 19.10274149 111.16430664 22.77709961 C113.48313073 29.99174784 112.57730865 38.00575299 112.22680664 45.46459961 C112.13017103 48.55236037 112.05385355 51.63861759 112.0042572 54.72749329 C111.96853915 56.64155738 111.90334787 58.55536732 111.80445862 60.46720886 C111.68038958 64.69971668 111.64896048 67.76221226 114.31860352 71.18994141 C117.08999561 73.70954007 119.61976974 75.51189302 122.91040039 77.28491211 C123.99514648 77.87916992 125.07989258 78.47342773 126.19750977 79.08569336 C127.88263672 79.98481445 127.88263672 79.98481445 129.60180664 80.90209961 C131.8308182 82.11092453 134.05871904 83.32180025 136.28540039 84.53491211 C137.26951904 85.0622998 138.2536377 85.5896875 139.26757812 86.13305664 C140.70145874 86.94685791 140.70145874 86.94685791 142.16430664 87.77709961 C143.26274902 88.36330078 144.36119141 88.94950195 145.49291992 89.5534668 C148.16430664 91.77709961 148.16430664 91.77709961 148.86132812 94.91821289 C148.83627197 96.13234863 148.81121582 97.34648437 148.78540039 98.59741211 C148.77928238 99.25611298 148.77316437 99.91481384 148.76686096 100.59347534 C148.73999323 102.69792238 148.67106837 104.79866665 148.60180664 106.90209961 C148.58026098 108.29268587 148.56135548 109.68331568 148.54516602 111.07397461 C148.50715665 113.76706116 148.41782814 116.44288285 148.30224609 119.13549805 C148.12149969 122.66909144 148.12149969 122.66909144 148.28222656 125.77026367 C148.29761474 128.4493199 148.19123827 130.29998778 147.16430664 132.77709961 C144.00827542 135.68047704 140.44044863 137.4169182 136.60180664 139.27709961 C134.50260231 140.37440354 132.40495331 141.47468782 130.30883789 142.57788086 C129.26937012 143.1123584 128.22990234 143.64683594 127.15893555 144.19750977 C122.91582145 146.43564349 118.84470533 148.9055932 114.78930664 151.46459961 C114.12471436 151.87452148 113.46012207 152.28444336 112.77539062 152.70678711 C109.41354724 154.69778331 109.41354724 154.69778331 107.16430664 157.77709961 C107.00684838 160.83751901 106.90563787 163.87851861 106.84790039 166.94116211 C106.81672874 168.30197403 106.81672874 168.30197403 106.78492737 169.6902771 C106.71943529 172.59413941 106.6605485 175.49809366 106.60180664 178.40209961 C106.55862109 180.36825503 106.5150068 182.33440108 106.47094727 184.30053711 C106.36375425 189.12596323 106.26248583 193.95148201 106.16430664 198.77709961 C103.06547519 200.45383098 99.95942209 202.11671301 96.85180664 203.77709961 C95.53019531 204.4925293 95.53019531 204.4925293 94.18188477 205.22241211 C93.33432617 205.67358398 92.48676758 206.12475586 91.61352539 206.58959961 C90.83323975 207.00854492 90.0529541 207.42749023 89.24902344 207.85913086 C87.16430664 208.77709961 87.16430664 208.77709961 84.16430664 208.77709961 C77.52460154 200.83883056 76.08961474 192.9615058 76.12915039 182.90991211 C76.11533829 181.63155487 76.10152618 180.35319763 76.08729553 179.03610229 C76.06949155 176.353615 76.06624503 173.67587284 76.08691406 170.99389648 C76.11016149 167.56894691 76.05553438 164.15009931 75.98030758 160.72607613 C75.92091351 157.43320311 75.93530444 154.14071423 75.94165039 150.84741211 C75.91199692 149.6254715 75.88234344 148.40353088 75.85179138 147.14456177 C75.91697414 143.73585088 76.06255273 141.0061338 77.16430664 137.77709961 C79.57168374 135.58213618 81.80256919 134.2971688 84.76649475 132.96235657 C87.99904185 131.36448354 89.25788842 129.60961954 90.59008789 126.32055664 C91.78085175 121.0461613 91.75137317 115.6931049 91.68579102 110.31347656 C91.66430965 108.21489407 91.68567716 106.11971976 91.71118164 104.02124023 C91.7289957 95.73036947 91.30474746 90.29210353 85.56665039 84.03491211 C80.29738664 79.96001481 76.39975767 79.62201808 69.93261719 79.60009766 C68.67357574 79.59024086 68.67357574 79.59024086 67.38909912 79.58018494 C64.6097403 79.56046474 61.83043547 79.54879261 59.05102539 79.53881836 C58.10143259 79.53474283 57.15183979 79.5306673 56.17347145 79.52646828 C51.14803917 79.50561368 46.12263415 79.49130892 41.09716797 79.48193359 C35.90852953 79.47086629 30.72031961 79.43646088 25.5318327 79.39676189 C21.54007676 79.37061053 17.5484232 79.3622431 13.55658913 79.35865211 C11.64404212 79.35378288 9.73149978 79.34215929 7.81903648 79.32361412 C5.14040569 79.29925255 2.46288747 79.30018205 -0.21582031 79.30712891 C-1.00304977 79.29431885 -1.79027924 79.28150879 -2.60136414 79.26831055 C-8.57194572 79.3246445 -12.13000465 81.14853267 -16.48022461 85.37475586 C-21.63779677 91.84328282 -21.08664286 97.90286143 -21.13085938 105.80859375 C-21.14234421 107.23708021 -21.16274071 108.66552494 -21.19238281 110.09375 C-21.46105059 121.54338763 -21.46105059 121.54338763 -16.83569336 131.77709961 C-15.14259522 133.63222775 -15.14259522 133.63222775 -13.27319336 134.71459961 C-12.40500977 135.28500977 -12.40500977 135.28500977 -11.51928711 135.86694336 C-9.67466782 136.92687214 -9.67466782 136.92687214 -6.83569336 137.77709961 C-6.64892257 145.24470202 -6.50748392 152.7120574 -6.42119598 160.18147564 C-6.37974332 163.65145541 -6.32369088 167.11981804 -6.23217773 170.58886719 C-5.51665887 198.40725917 -5.51665887 198.40725917 -13.10327148 207.99902344 C-13.6749707 208.58578857 -14.24666992 209.17255371 -14.83569336 209.77709961 C-18.41637646 208.45402845 -21.47361495 206.86393191 -24.66381836 204.77319336 C-25.54553711 204.19762695 -26.42725586 203.62206055 -27.33569336 203.02905273 C-28.24319336 202.4302832 -29.15069336 201.83151367 -30.08569336 201.21459961 C-31.47014648 200.31064453 -31.47014648 200.31064453 -32.88256836 199.38842773 C-39.67327998 194.93951299 -39.67327998 194.93951299 -40.83569336 193.77709961 C-40.94210973 192.42250841 -40.9818615 191.06257315 -40.9934082 189.70385742 C-41.00367035 188.83915833 -41.0139325 187.97445923 -41.02450562 187.08355713 C-41.03180695 186.1419574 -41.03910828 185.20035767 -41.04663086 184.23022461 C-41.07470734 182.25104978 -41.10337186 180.27188323 -41.13256836 178.29272461 C-41.17379824 175.16121722 -41.21067007 172.02986292 -41.23706055 168.89819336 C-41.26469167 165.88354221 -41.31057465 162.86960166 -41.35913086 159.85522461 C-41.36238373 158.9217218 -41.3656366 157.98821899 -41.36898804 157.02642822 C-41.46078608 152.16509396 -41.5838311 148.66390749 -44.83569336 144.77709961 C-46.45818538 143.3895759 -46.45818538 143.3895759 -48.32006836 142.41772461 C-49.00133789 142.02834717 -49.68260742 141.63896973 -50.38452148 141.23779297 C-51.1109082 140.83826416 -51.83729492 140.43873535 -52.58569336 140.02709961 C-54.1121462 139.1593329 -55.63817896 138.29082689 -57.16381836 137.42163086 C-57.93790039 136.98544434 -58.71198242 136.54925781 -59.50952148 136.09985352 C-63.15248714 134.02831826 -66.7448033 131.87475814 -70.33569336 129.71459961 C-70.97603516 129.33271484 -71.61637695 128.95083008 -72.27612305 128.55737305 C-76.71461566 125.89817731 -76.71461566 125.89817731 -77.83569336 124.77709961 C-77.93548311 123.26933291 -77.96650104 121.7569136 -77.96850586 120.24584961 C-77.97148682 119.29782471 -77.97446777 118.3497998 -77.97753906 117.37304688 C-77.95471187 113.17780626 -77.90079641 108.98320692 -77.84204102 104.78833008 C-77.83636817 102.09721732 -77.92803011 99.43650511 -78.06616211 96.74975586 C-78.40773886 86.50576957 -78.40773886 86.50576957 -74.71850586 82.44897461 C-71.96296385 80.70940167 -69.18011683 79.28759434 -66.21899414 77.93383789 C-61.05815467 75.42901742 -56.16153661 72.41819724 -51.21069336 69.52709961 C-50.14326904 68.92357666 -49.07584473 68.32005371 -47.97607422 67.69824219 C-46.46412476 66.83235474 -46.46412476 66.83235474 -44.92163086 65.94897461 C-44.01461426 65.43431641 -43.10759766 64.9196582 -42.1730957 64.3894043 C-39.5761584 62.59807633 -38.27074447 61.59814519 -36.83569336 58.77709961 C-36.3735046 55.65938881 -36.34693172 52.56558046 -36.32397461 49.41772461 C-36.30602341 48.51334656 -36.2880722 47.60896851 -36.26957703 46.67718506 C-36.21547479 43.79387041 -36.18157862 40.91072129 -36.14819336 38.02709961 C-36.11502021 36.07004533 -36.08053055 34.11301289 -36.04467773 32.15600586 C-35.95974832 27.36315654 -35.89293666 22.57035632 -35.83569336 17.77709961 C-35.05444092 17.37394531 -34.27318848 16.97079102 -33.46826172 16.55541992 C-30.5397384 15.04327961 -27.61192688 13.52977787 -24.68457031 12.01538086 C-23.42312948 11.36315037 -22.16141619 10.71144651 -20.89941406 10.06030273 C-19.07404945 9.11836548 -17.24971831 8.17445125 -15.42553711 7.23022461 C-13.694729 6.3359375 -13.694729 6.3359375 -11.92895508 5.42358398 C-9.46051054 4.10967791 -7.0883106 2.73450647 -4.71459961 1.26147461 C-1.83569336 -0.22290039 -1.83569336 -0.22290039 0 0 Z " fill="#FDFDFE" transform="translate(284.835693359375,179.222900390625)"/>
<path d="M0 0 C14.52 0 29.04 0 44 0 C44.00257813 4.40859375 44.00515625 8.8171875 44.0078125 13.359375 C44.02666613 16.90597365 44.05148411 20.45242071 44.08029175 23.99894714 C44.10894527 27.72554112 44.12743599 31.45151097 44.12011719 35.17822266 C44.11346108 38.77730962 44.13635771 42.37517291 44.17855453 45.97400665 C44.19488752 47.99430669 44.1817149 50.01477738 44.16775513 52.03509521 C44.30814115 61.07774692 46.34197912 67.28745168 51 75 C51.77756905 76.36114426 51.77756905 76.36114426 52.57084656 77.74978638 C54.01252255 80.27187028 55.50100716 82.76159226 57 85.25 C58.14778741 87.17409038 59.29489917 89.09858394 60.44140625 91.0234375 C61.02809082 92.00666992 61.61477539 92.98990234 62.21923828 94.00292969 C65.15459877 98.94322107 68.04633712 103.90875446 70.9375 108.875 C71.51822266 109.87176758 72.09894531 110.86853516 72.69726562 111.89550781 C73.87634111 113.91947882 75.05521458 115.94356752 76.23388672 117.96777344 C78.57211195 121.9822547 80.91302879 125.99516225 83.25439453 130.0078125 C84.41340862 131.99450854 85.57194131 133.98148551 86.72998047 135.96875 C89.74919722 141.14892037 92.77657292 146.32408459 95.81640625 151.4921875 C96.75709961 153.09513672 96.75709961 153.09513672 97.71679688 154.73046875 C98.90689562 156.75804439 100.09942289 158.7841975 101.29492188 160.80859375 C112.58163254 180.06160672 112.58163254 180.06160672 111 191 C108.85345299 198.72277249 104.46966991 204.80230802 97.73196411 209.06997681 C91.82744554 211.94981783 85.77882027 211.54282016 79.33544922 211.48583984 C77.96470783 211.48798896 76.59396823 211.49187148 75.22323608 211.49734497 C71.52076394 211.50699112 67.8187783 211.49179603 64.11636496 211.47143888 C60.23278503 211.45379673 56.34921852 211.45739432 52.46560669 211.4581604 C45.94752928 211.45629095 39.42963879 211.43897339 32.91162109 211.41162109 C25.38389639 211.3801477 17.85637602 211.36962604 10.32859027 211.3710922 C2.29936067 211.37244463 -5.72979057 211.35855707 -13.75899649 211.34019899 C-16.06690489 211.33594378 -18.37480059 211.33451767 -20.68271255 211.33372116 C-24.31238359 211.33170721 -27.94188417 211.3194565 -31.57149887 211.29938889 C-33.53356937 211.29079313 -35.49567484 211.29187908 -37.45776367 211.29327393 C-38.63243195 211.28474396 -39.80710022 211.27621399 -41.0173645 211.26742554 C-42.54209476 211.262398 -42.54209476 211.262398 -44.09762764 211.25726891 C-50.63402232 210.67787698 -56.23001985 208.08654931 -60.640625 203.171875 C-65.830641 196.57098086 -67.69043446 190.73251953 -67.484375 182.3046875 C-66.53820218 175.84934713 -63.24851309 170.54113012 -60 165 C-59.54399414 164.21367187 -59.08798828 163.42734375 -58.61816406 162.6171875 C-55.94642383 158.02200509 -53.23991929 153.44858373 -50.51171875 148.88671875 C-47.04851487 143.09485851 -43.64305475 137.27066234 -40.25 131.4375 C-35.37521991 123.06683164 -30.4862109 114.70469109 -25.58483887 106.34957886 C-24.50703611 104.51199611 -23.42969677 102.67414257 -22.35253906 100.83618164 C-21.99983948 100.23437576 -21.64713989 99.63256989 -21.28375244 99.01252747 C-20.57520808 97.80353736 -19.86667127 96.59454283 -19.15814209 95.38554382 C-17.06226375 91.8099531 -14.96351595 88.23606567 -12.8626709 84.66339111 C-11.23966673 81.90183407 -9.6201683 79.13822148 -8 76.375 C-7.40638672 75.36759766 -6.81277344 74.36019531 -6.20117188 73.32226562 C-5.66041016 72.39865234 -5.11964844 71.47503906 -4.5625 70.5234375 C-4.08941406 69.71825684 -3.61632812 68.91307617 -3.12890625 68.08349609 C-1.05480926 64.2555671 -0.85458806 61.16408837 -0.79467773 56.8762207 C-0.77473251 55.61513992 -0.75478729 54.35405914 -0.73423767 53.05476379 C-0.71725467 51.67843753 -0.70037581 50.30210998 -0.68359375 48.92578125 C-0.66301803 47.51758725 -0.6420214 46.10939935 -0.62062073 44.70121765 C-0.56546378 40.99739519 -0.51602646 37.29351759 -0.46777344 33.58959961 C-0.41751179 29.80903227 -0.36190226 26.02854389 -0.30664062 22.24804688 C-0.19863139 14.83209179 -0.09955908 7.41609266 0 0 Z " fill="#FEFEFE" transform="translate(298,318)"/>
<path d="M0 0 C0.83921494 -0.0049649 1.67842987 -0.00992981 2.54307556 -0.01504517 C5.32787895 -0.0296859 8.11262533 -0.03647275 10.89746094 -0.04199219 C12.83079022 -0.04774305 14.76411949 -0.05350079 16.69744873 -0.05926514 C20.75614691 -0.06978123 24.81482526 -0.07561959 28.87353516 -0.07910156 C34.06997103 -0.08458079 39.26614415 -0.10859404 44.46249771 -0.13707352 C48.45854451 -0.15571601 52.45452831 -0.16090641 56.45061493 -0.16243744 C58.36593814 -0.16546198 60.2812603 -0.1734838 62.19654083 -0.18662262 C64.87992691 -0.20371313 67.56267504 -0.20179531 70.24609375 -0.1953125 C71.03489426 -0.20452728 71.82369476 -0.21374207 72.63639832 -0.22323608 C78.42862383 -0.17949013 82.60112184 1.03874221 86.96386719 5.09863281 C87.53492188 5.77925781 88.10597656 6.45988281 88.69433594 7.16113281 C89.27828125 7.84175781 89.86222656 8.52238281 90.46386719 9.22363281 C94.21007006 14.34241139 93.14305883 21.12373525 93.17700195 27.19262695 C93.18848678 28.62111341 93.20888329 30.04955815 93.23852539 31.4777832 C93.55040296 46.51585755 93.55040296 46.51585755 88.88183594 53.16113281 C86.59277344 55.25488281 86.59277344 55.25488281 84.25683594 56.66113281 C83.48082031 57.14582031 82.70480469 57.63050781 81.90527344 58.12988281 C79.88183594 59.16113281 79.88183594 59.16113281 77.88183594 59.16113281 C77.87349078 66.68139117 77.8976975 74.20096878 77.96211433 81.72094536 C77.99104114 85.2138823 78.00924854 88.70615475 78.00195312 92.19921875 C77.99403266 96.22622191 78.03454239 100.25153224 78.07714844 104.27832031 C78.06350754 106.1367305 78.06350754 106.1367305 78.04959106 108.03268433 C78.17228956 115.4348197 79.3028368 120.17404392 83.59762573 126.26638794 C84.88183594 128.16113281 84.88183594 128.16113281 84.88183594 130.16113281 C85.51275146 129.85820312 86.14366699 129.55527344 86.79370117 129.24316406 C89.63462439 127.88048528 92.47695651 126.52077132 95.31933594 125.16113281 C96.31255859 124.68417969 97.30578125 124.20722656 98.32910156 123.71582031 C99.27333984 123.26464844 100.21757812 122.81347656 101.19042969 122.34863281 C102.5022522 121.72021484 102.5022522 121.72021484 103.84057617 121.07910156 C105.88183594 120.16113281 105.88183594 120.16113281 106.88183594 120.16113281 C106.89601563 120.969375 106.91019531 121.77761719 106.92480469 122.61035156 C107.11217731 129.4487293 107.11217731 129.4487293 110.31933594 135.28613281 C111.16496094 135.90488281 112.01058594 136.52363281 112.88183594 137.16113281 C113.54183594 137.82113281 114.20183594 138.48113281 114.88183594 139.16113281 C109.27183594 142.13113281 103.66183594 145.10113281 97.88183594 148.16113281 C98.83058369 151.95612381 99.98733107 154.36919451 101.91699219 157.72753906 C102.55362793 158.8395166 103.19026367 159.95149414 103.84619141 161.09716797 C104.54538277 162.30609958 105.24476937 163.51491828 105.94433594 164.72363281 C106.66478241 165.97659211 107.38499372 167.22968664 108.10498047 168.48291016 C113.08204322 177.12784638 118.15460494 185.71465414 123.25683594 194.28613281 C127.79424663 201.90926839 132.30567797 209.54067474 136.63183594 217.28613281 C137.01388184 217.96562988 137.39592773 218.64512695 137.78955078 219.34521484 C138.8523358 221.26883162 139.8741999 223.20812078 140.88183594 225.16113281 C141.44149048 226.20418579 141.44149048 226.20418579 142.01245117 227.26831055 C144.96917331 233.2073513 145.54973316 238.38573372 145.44433594 244.97363281 C145.42790039 246.42829956 145.42790039 246.42829956 145.41113281 247.91235352 C145.18113668 255.53480878 143.92936862 261.59623225 139.88183594 268.16113281 C139.31207031 269.11117188 138.74230469 270.06121094 138.15527344 271.04003906 C131.14261912 281.64559652 121.00532554 288.79155079 108.59678841 291.69598866 C105.72848453 292.18740602 103.06304771 292.28992734 100.15353394 292.29484558 C99.00981827 292.29911057 97.8661026 292.30337555 96.68772888 292.30776978 C95.44193558 292.30731659 94.19614227 292.3068634 92.91259766 292.30639648 C91.59329758 292.3097551 90.2739975 292.31311371 88.91471863 292.3165741 C85.30075037 292.32539604 81.6868058 292.32775154 78.07282782 292.32838988 C75.8108289 292.32910178 73.54883596 292.33123882 71.28683853 292.3338871 C63.38327911 292.34313683 55.47973653 292.34722274 47.57617188 292.34643555 C40.22983013 292.3458359 32.88356208 292.35636649 25.53723896 292.37217921 C19.21514667 292.38529822 12.89307834 292.39061757 6.57097256 292.38998014 C2.80191591 292.38972629 -0.96707532 292.39251411 -4.73611832 292.40315819 C-8.28693585 292.412912 -11.83762644 292.41286902 -15.38844872 292.40564156 C-17.29593402 292.40411409 -19.2034195 292.41239266 -21.11088562 292.42108154 C-36.01965604 292.36720182 -49.19746841 289.62361523 -60.37597656 279.07128906 C-69.48156768 269.08780463 -73.29256863 258.22158759 -73.43066406 244.97363281 C-73.45966797 244.06548828 -73.48867187 243.15734375 -73.51855469 242.22167969 C-73.58022464 235.59453174 -72.25157186 230.9620406 -69.11816406 225.16113281 C-68.73845459 224.42822021 -68.35874512 223.69530762 -67.9675293 222.94018555 C-66.73583594 220.59994289 -65.46525508 218.28523981 -64.18066406 215.97363281 C-63.70467773 215.1127002 -63.22869141 214.25176758 -62.73828125 213.36474609 C-58.70120765 206.11083388 -54.50040747 198.95919416 -50.25512695 191.82568359 C-45.81761495 184.36667759 -41.45369308 176.86716804 -37.11816406 169.34863281 C-36.49522461 168.26952637 -35.87228516 167.19041992 -35.23046875 166.07861328 C-31.80668867 160.13483446 -28.4253365 154.17062328 -25.11816406 148.16113281 C-26.20061401 147.75797852 -26.20061401 147.75797852 -27.30493164 147.34667969 C-30.10693977 146.16586293 -32.54779476 144.79353964 -35.12988281 143.19238281 C-36.05220703 142.62132812 -36.97453125 142.05027344 -37.92480469 141.46191406 C-38.87548828 140.86765625 -39.82617188 140.27339844 -40.80566406 139.66113281 C-41.76794922 139.066875 -42.73023438 138.47261719 -43.72167969 137.86035156 C-50.85266951 133.42662736 -50.85266951 133.42662736 -53.11816406 131.16113281 C-52.49167969 130.75121094 -51.86519531 130.34128906 -51.21972656 129.91894531 C-50.40246094 129.38011719 -49.58519531 128.84128906 -48.74316406 128.28613281 C-47.93105469 127.75246094 -47.11894531 127.21878906 -46.28222656 126.66894531 C-44.0422231 125.20248226 -44.0422231 125.20248226 -42.11816406 123.16113281 C-41.78714872 120.85774479 -41.78714872 120.85774479 -41.79931641 118.16064453 C-41.77944672 117.11971649 -41.75957703 116.07878845 -41.73910522 115.00631714 C-41.72755402 113.87920319 -41.71600281 112.75208923 -41.70410156 111.59082031 C-41.68473541 110.43945587 -41.66536926 109.28809143 -41.64541626 108.10183716 C-41.58549034 104.41334512 -41.5391828 100.72482209 -41.49316406 97.03613281 C-41.45499629 94.54002522 -41.41594528 92.04393097 -41.37597656 89.54785156 C-41.27977818 83.41906345 -41.194769 77.29019543 -41.11816406 71.16113281 C-40.78816406 71.16113281 -40.45816406 71.16113281 -40.11816406 71.16113281 C-40.20626343 73.07406128 -40.20626343 73.07406128 -40.29614258 75.02563477 C-40.49304832 79.8022705 -40.57529591 84.57546548 -40.62475586 89.35571289 C-40.66168888 91.41541407 -40.72884955 93.47482015 -40.82788086 95.5324707 C-41.7089554 106.98644791 -41.7089554 106.98644791 -37.46990967 117.15716553 C-33.4429448 120.59746194 -28.97055061 122.97138679 -24.17404175 125.16537476 C-22.2073532 126.11793433 -20.48563236 127.18544297 -18.69458008 128.43188477 C-16.35854848 130.34689746 -16.35854848 130.34689746 -14.11816406 130.16113281 C-7.54334442 121.89793182 -6.09621721 114.39126545 -6.21582031 104.08300781 C-6.2035289 102.79042053 -6.19123749 101.49783325 -6.17857361 100.16607666 C-6.14668721 96.77261211 -6.15566281 93.38051488 -6.1739502 89.98699951 C-6.18520493 86.50713816 -6.15671224 83.02760897 -6.13183594 79.54785156 C-6.0889753 72.7520955 -6.08939589 65.95695395 -6.11816406 59.16113281 C-6.88 59.03867187 -7.64183594 58.91621094 -8.42675781 58.79003906 C-13.66378576 57.56629233 -16.39857549 54.23463881 -19.27050781 49.95019531 C-22.03721589 44.18023518 -21.71599732 37.96032089 -21.63964844 31.69750977 C-21.61816708 29.59892727 -21.63953458 27.50375297 -21.66503906 25.40527344 C-21.68381132 16.93280987 -21.22502345 11.51059149 -15.26660156 5.20019531 C-14.68136719 4.73355469 -14.09613281 4.26691406 -13.49316406 3.78613281 C-12.90277344 3.30402344 -12.31238281 2.82191406 -11.70410156 2.32519531 C-8.00077691 -0.3930085 -4.42135396 0.00620212 0 0 Z M13.88183594 60.16113281 C13.87925781 64.56972656 13.87667969 68.97832031 13.87402344 73.52050781 C13.85516981 77.06710646 13.83035183 80.61355353 13.80154419 84.16007996 C13.77289067 87.88667393 13.75439995 91.61264379 13.76171875 95.33935547 C13.76837486 98.93844243 13.74547823 102.53630573 13.7032814 106.13513947 C13.68694842 108.15543951 13.70012104 110.17591019 13.71408081 112.19622803 C13.57353039 121.24946909 11.54807701 127.43821321 6.88183594 135.16113281 C6.25092041 136.29244629 5.62000488 137.42375977 4.9699707 138.58935547 C4.42655029 139.49218262 3.88312988 140.39500977 3.32324219 141.32519531 C2.69812744 142.37046387 2.0730127 143.41573242 1.42895508 144.49267578 C0.77403076 145.5795166 0.11910645 146.66635742 -0.55566406 147.78613281 C-1.9853607 150.17520097 -3.4113683 152.56646103 -4.83691406 154.95800781 C-5.19643661 155.56051361 -5.55595917 156.16301941 -5.92637634 156.78378296 C-9.53031601 162.83290655 -13.04922789 168.93004073 -16.55566406 175.03613281 C-21.94704789 184.417843 -27.38908848 193.76800215 -32.86816406 203.09863281 C-40.25756988 215.68395548 -40.25756988 215.68395548 -47.61816406 228.28613281 C-48.06901367 229.05562256 -48.51986328 229.8251123 -48.984375 230.61791992 C-53.0914074 237.68923645 -53.83472056 243.05697971 -53.11816406 251.16113281 C-51.14016989 258.51927115 -46.66839562 264.56340241 -40.55566406 269.03613281 C-36.20150187 271.04574613 -32.01271911 271.28898304 -27.26251221 271.31503296 C-26.09066376 271.32363342 -24.91881531 271.33223389 -23.7114563 271.34109497 C-22.43446869 271.34535492 -21.15748108 271.34961487 -19.84179688 271.35400391 C-18.47636714 271.36191207 -17.11093945 271.37018146 -15.74551392 271.37878418 C-11.27079236 271.40491816 -6.79606185 271.42030158 -2.32128906 271.43457031 C-0.77710719 271.43993324 0.76707464 271.44531075 2.31125641 271.45070267 C8.7366238 271.47231731 15.16198876 271.4910525 21.58738327 271.50232506 C30.77733411 271.51855755 39.9668618 271.5517342 49.15665317 271.60872591 C55.62902789 271.64748938 62.10128972 271.6669652 68.57377744 271.67224562 C72.43459863 271.67588988 76.2949676 271.68781193 80.15566254 271.72034836 C83.79036034 271.75054325 87.42433496 271.75670095 91.05913162 271.7449646 C93.01716154 271.74464061 94.9751476 271.76902902 96.93301392 271.79434204 C105.73289248 271.73247076 111.80151522 270.07796823 118.22167969 263.91503906 C124.04699612 255.92481286 126.34601155 249.15058904 124.88183594 239.16113281 C123.10592382 234.17106988 120.55011768 229.71253708 117.88183594 225.16113281 C117.42583008 224.37480469 116.96982422 223.58847656 116.5 222.77832031 C113.83207698 218.18970321 111.12955663 213.62274159 108.40527344 209.06738281 C104.87586606 203.16478703 101.40388805 197.22987592 97.94433594 191.28613281 C97.06986816 189.78530151 97.06986816 189.78530151 96.17773438 188.25415039 C94.99650652 186.22670131 93.81551675 184.19911348 92.63476562 182.17138672 C89.78127464 177.27117171 86.925545 172.37226387 84.06933594 167.47363281 C83.50907715 166.51191162 82.94881836 165.55019043 82.37158203 164.55932617 C79.01439592 158.80085215 75.64169521 153.05180031 72.25683594 147.30957031 C71.08014268 145.31099063 69.90364851 143.31229386 68.72720337 141.31356812 C67.95967535 140.01105035 67.19111184 138.70914217 66.42147827 137.40786743 C65.3471666 135.59140847 64.27629228 133.77296301 63.20605469 131.95410156 C62.58819092 130.90762451 61.97032715 129.86114746 61.33374023 128.78295898 C59.07240817 124.69948076 58.74085848 121.64260351 58.67651367 117.03735352 C58.64659584 115.14573235 58.64659584 115.14573235 58.61607361 113.21589661 C58.5990906 111.83957034 58.58221175 110.46324279 58.56542969 109.08691406 C58.54485397 107.67872007 58.52385733 106.27053216 58.50245667 104.86235046 C58.44729972 101.15852801 58.3978624 97.4546504 58.34960938 93.75073242 C58.29934773 89.97016509 58.2437382 86.1896767 58.18847656 82.40917969 C58.08046732 74.9932246 57.98139502 67.57722548 57.88183594 60.16113281 C43.36183594 60.16113281 28.84183594 60.16113281 13.88183594 60.16113281 Z " fill="#072B76" transform="translate(284.1181640625,257.8388671875)"/>
<path d="M0 0 C2.7980957 1.21826172 2.7980957 1.21826172 5.67578125 2.9296875 C6.74368896 3.55576904 7.81159668 4.18185059 8.91186523 4.8269043 C10.03407471 5.50277588 11.15628418 6.17864746 12.3125 6.875 C13.47599001 7.56466224 14.64013883 8.25321422 15.80493164 8.94067383 C18.12458521 10.31167288 20.44007801 11.68933836 22.75292969 13.07177734 C25.61425871 14.77093348 28.49019821 16.436919 31.3828125 18.08203125 C32.16358154 18.52885254 32.94435059 18.97567383 33.7487793 19.43603516 C35.16664421 20.24674074 36.58722732 21.0527182 38.01098633 21.85302734 C41.48201918 23.86476576 43.91295521 25.56362579 46 29 C46.38768005 31.4147644 46.38768005 31.4147644 46.40405273 34.13232422 C46.41673691 35.15373505 46.42942108 36.17514587 46.44248962 37.22750854 C46.43955399 38.3254776 46.43661835 39.42344666 46.43359375 40.5546875 C46.4388356 41.688992 46.44407745 42.82329651 46.44947815 43.99197388 C46.45590039 46.39096254 46.45455879 48.78998269 46.44604492 51.18896484 C46.43754772 54.85441421 46.4662754 58.51829886 46.49804688 62.18359375 C46.49965932 64.51562453 46.49908054 66.84765807 46.49609375 69.1796875 C46.50732773 70.27360809 46.51856171 71.36752869 46.53013611 72.49459839 C46.47568223 78.46020635 46.26274771 82.43717285 42 87 C39.40966797 88.87109375 39.40966797 88.87109375 36.4921875 90.4375 C35.42226563 91.02273438 34.35234375 91.60796875 33.25 92.2109375 C32.13625 92.80132812 31.0225 93.39171875 29.875 94 C27.6841247 95.1860767 25.49401092 96.3735612 23.3046875 97.5625 C22.24604492 98.13226563 21.18740234 98.70203125 20.09667969 99.2890625 C16.29933253 101.38712375 12.60703807 103.63208077 8.93017578 105.93359375 C7 107 7 107 5 107 C1.50387033 129.92168282 1.50387033 129.92168282 7.21044922 151.21923828 C12.77845951 155.98230481 19.14060148 158.52127586 26.01513672 160.86474609 C31.63927603 163.00381429 36.64228269 165.96342403 40 171 C40.26742554 173.33920288 40.26742554 173.33920288 40.29052734 176.12646484 C40.30328705 177.17119965 40.31604675 178.21593445 40.32919312 179.29232788 C40.33141876 180.42046906 40.33364441 181.54861023 40.3359375 182.7109375 C40.3459227 184.45136826 40.3459227 184.45136826 40.35610962 186.22695923 C40.36624186 188.68319105 40.37092646 191.13945043 40.37060547 193.59570312 C40.3749748 197.35332659 40.41127999 201.10977224 40.44921875 204.8671875 C40.45508749 207.25260015 40.4590565 209.63801838 40.4609375 212.0234375 C40.47530853 213.14753021 40.48967957 214.27162292 40.50448608 215.42977905 C40.45915287 223.17315208 40.45915287 223.17315208 38.31591797 227.03271484 C35.80698258 229.16396103 33.35360671 230.83529545 30.484375 232.453125 C28.86547363 233.37629517 28.86547363 233.37629517 27.21386719 234.31811523 C26.07079102 234.95563721 24.92771484 235.59315918 23.75 236.25 C22.57151722 236.91469676 21.39345908 237.58014694 20.21582031 238.24633789 C17.88600547 239.56293539 15.55329366 240.87387745 13.21875 242.18212891 C10.43916388 243.75197101 7.68298553 245.35203007 4.9375 246.98046875 C4.21594727 247.40360352 3.49439453 247.82673828 2.75097656 248.26269531 C1.46114683 249.01997456 0.17619488 249.78565482 -1.10253906 250.56152344 C-4.96942771 252.79587166 -7.57391854 253.36264691 -12 253 C-14.69042969 251.8894043 -14.69042969 251.8894043 -17.421875 250.32421875 C-18.43942871 249.74849121 -19.45698242 249.17276367 -20.50537109 248.57958984 C-21.57609863 247.9552002 -22.64682617 247.33081055 -23.75 246.6875 C-24.8529541 246.05537598 -25.9559082 245.42325195 -27.09228516 244.77197266 C-30.404732 242.8643989 -33.7040796 240.93596302 -37 239 C-37.94907227 238.44618652 -38.89814453 237.89237305 -39.87597656 237.32177734 C-42.38379114 235.85267805 -44.88195747 234.36900388 -47.375 232.875 C-48.11073242 232.43889404 -48.84646484 232.00278809 -49.60449219 231.5534668 C-50.27899414 231.14136963 -50.95349609 230.72927246 -51.6484375 230.3046875 C-52.22770996 229.95390137 -52.80698242 229.60311523 -53.40380859 229.24169922 C-56.18531261 227.07792904 -57.82864076 225.0685622 -58.39440918 221.5405426 C-58.40282837 220.62296677 -58.41124756 219.70539093 -58.41992188 218.76000977 C-58.43583374 217.71535049 -58.45174561 216.67069122 -58.46813965 215.59437561 C-58.46834106 214.47139572 -58.46854248 213.34841583 -58.46875 212.19140625 C-58.47636353 211.03253403 -58.48397705 209.8736618 -58.49182129 208.67967224 C-58.50262447 206.22942255 -58.50547453 203.7791268 -58.50097656 201.32885742 C-58.50000448 197.57978535 -58.54162281 193.83276081 -58.5859375 190.08398438 C-58.5911446 187.70312927 -58.59383269 185.32226705 -58.59375 182.94140625 C-58.61014526 181.82045059 -58.62654053 180.69949493 -58.64343262 179.54457092 C-58.57452944 171.78591707 -58.57452944 171.78591707 -55.76782227 167.9465332 C-53.24922617 166.1752739 -50.78618065 164.45591763 -48.12109375 162.9140625 C-46.74679199 162.11101685 -46.74679199 162.11101685 -45.34472656 161.29174805 C-44.3853418 160.74172119 -43.42595703 160.19169434 -42.4375 159.625 C-41.45620117 159.05499268 -40.47490234 158.48498535 -39.46386719 157.89770508 C-37.52366798 156.77116368 -35.58181831 155.64745914 -33.63818359 154.52685547 C-31.40147401 153.2323541 -29.17554231 151.92299302 -26.95703125 150.59765625 C-25.89871094 149.96730469 -24.84039062 149.33695313 -23.75 148.6875 C-22.41195312 147.88892578 -22.41195312 147.88892578 -21.046875 147.07421875 C-19 146 -19 146 -17 146 C-17 132.47 -17 118.94 -17 105 C-25.9408091 99.95289363 -25.9408091 99.95289363 -34.88916016 94.91918945 C-36.01112793 94.28198975 -37.1330957 93.64479004 -38.2890625 92.98828125 C-39.43068848 92.34415283 -40.57231445 91.70002441 -41.74853516 91.03637695 C-50.09570921 85.80858158 -50.09570921 85.80858158 -52 82 C-52.12090039 80.30129614 -52.17997395 78.5980215 -52.20874023 76.89526367 C-52.23767616 75.29801704 -52.23767616 75.29801704 -52.26719666 73.66850281 C-52.32481227 68.79653195 -52.37420625 63.92471058 -52.4050293 59.05249023 C-52.42663245 56.48106475 -52.46076196 53.90971325 -52.50756836 51.33862305 C-52.57439502 47.6355701 -52.60200116 43.93403874 -52.62109375 40.23046875 C-52.66283974 38.50681343 -52.66283974 38.50681343 -52.70542908 36.74833679 C-52.68543798 29.0077917 -52.68543798 29.0077917 -50.80749512 26.24667358 C-49.29077148 24.93774414 -49.29077148 24.93774414 -46 23 C-45.13197754 22.43571289 -44.26395508 21.87142578 -43.36962891 21.29003906 C-42.49741699 20.78698242 -41.62520508 20.28392578 -40.7265625 19.765625 C-39.74413574 19.19537598 -38.76170898 18.62512695 -37.74951172 18.03759766 C-36.71842285 17.44769043 -35.68733398 16.8577832 -34.625 16.25 C-33.03002686 15.33226807 -33.03002686 15.33226807 -31.40283203 14.39599609 C-29.26663087 13.16825346 -27.12911807 11.94278989 -24.99023438 10.71972656 C-22.34002283 9.19555199 -19.70609954 7.64801259 -17.078125 6.0859375 C-15.67727365 5.26530004 -14.27624713 4.44496148 -12.875 3.625 C-11.9461499 3.06280762 -11.9461499 3.06280762 -10.99853516 2.48925781 C-7.09142211 0.23644924 -4.470915 -0.39061205 0 0 Z " fill="#062B76" transform="translate(449,166)"/>
<path d="M0 0 C2.61450195 1.12646484 2.61450195 1.12646484 5.23828125 2.7109375 C6.21563232 3.29174072 7.1929834 3.87254395 8.19995117 4.47094727 C9.22709229 5.09928467 10.2542334 5.72762207 11.3125 6.375 C13.46088177 7.66285339 15.60931963 8.95061321 17.7578125 10.23828125 C18.81387695 10.87717285 19.86994141 11.51606445 20.95800781 12.17431641 C23.68154663 13.80887686 26.42121349 15.40582627 29.1796875 16.98046875 C29.94885498 17.42148926 30.71802246 17.86250977 31.51049805 18.31689453 C32.9155086 19.12079314 34.32305678 19.92028032 35.73364258 20.71435547 C36.36165771 21.07803223 36.98967285 21.44170898 37.63671875 21.81640625 C38.16998779 22.12006104 38.70325684 22.42371582 39.25268555 22.73657227 C41.99530682 24.71967483 43.91282461 26.2714889 46 29 C46.54365648 32.40297488 46.27001143 35.70213882 46.0390625 39.12890625 C45.97753181 41.15417253 45.92038148 43.17957574 45.8671875 45.20507812 C45.76041996 48.38092257 45.62614336 51.54540653 45.4140625 54.71606445 C44.31281474 66.61240238 44.31281474 66.61240238 48.80764771 77.11413574 C53.31516601 80.85493177 58.31121852 83.45538736 63.61878967 85.87823486 C67.13768948 87.5359545 70.39146866 89.56926581 73.6875 91.625 C75.24017578 92.54152344 75.24017578 92.54152344 76.82421875 93.4765625 C77.54222656 93.97929687 78.26023437 94.48203125 79 95 C79 95.66 79 96.32 79 97 C77.06640625 98.47265625 77.06640625 98.47265625 74.5625 100.0625 C71.6281857 101.83678892 71.6281857 101.83678892 69 104 C68.87709282 105.65644366 68.82216092 107.31798993 68.79467773 108.97875977 C68.77473251 110.03978409 68.75478729 111.10080841 68.73423767 112.19398499 C68.71752518 113.348134 68.70081268 114.50228302 68.68359375 115.69140625 C68.6524221 117.4538694 68.6524221 117.4538694 68.62062073 119.25193787 C68.55499876 123.02206324 68.4961817 126.79226082 68.4375 130.5625 C68.3943268 133.11133573 68.35071292 135.66016403 68.30664062 138.20898438 C68.19930455 144.47257892 68.0975621 150.73624601 68 157 C67.67 157 67.34 157 67 157 C67.09595459 155.04163208 67.09595459 155.04163208 67.19384766 153.04370117 C67.40892723 148.15537657 67.5026096 143.27066578 67.56152344 138.37817383 C67.60346727 136.26985115 67.67745158 134.16189574 67.78515625 132.0559082 C68.726231 120.3260572 68.726231 120.3260572 64.26345825 109.99356079 C59.97691138 106.52654663 55.24681807 104.22066523 50.21290588 102.03681946 C46.90424712 100.4866036 44.13161099 98.47098633 41.1875 96.3125 C37.49481165 93.65355124 35.54974679 92.5684828 31 93 C28.4859766 94.08618524 28.4859766 94.08618524 26.015625 95.66796875 C25.07976562 96.23193359 24.14390625 96.79589844 23.1796875 97.37695312 C22.21289062 97.97443359 21.24609375 98.57191406 20.25 99.1875 C17.40150365 100.91859839 14.55118611 102.6465101 11.69726562 104.36865234 C9.96950471 105.41362867 8.24869349 106.47023685 6.53710938 107.54150391 C5.77720703 107.99831543 5.01730469 108.45512695 4.234375 108.92578125 C3.58178711 109.32837158 2.92919922 109.73096191 2.25683594 110.14575195 C-2.22982016 111.84402215 -5.87904831 111.48098741 -10.23803711 109.6105957 C-11.3235083 108.97210693 -12.40897949 108.33361816 -13.52734375 107.67578125 C-14.11995499 107.3325029 -14.71256622 106.98922455 -15.32313538 106.63554382 C-17.20318641 105.54183404 -19.07009067 104.42762741 -20.9375 103.3125 C-22.18605431 102.58262332 -23.43539814 101.85409546 -24.68554688 101.12695312 C-29.74653449 98.17006484 -34.75593507 95.17977928 -39.62890625 91.91796875 C-42.64185464 89.75612244 -42.64185464 89.75612244 -44.93701172 90.25048828 C-47.17244371 91.06265115 -49.25346635 92.00565275 -51.37890625 93.07421875 C-52.21309082 93.49203613 -53.04727539 93.90985352 -53.90673828 94.34033203 C-54.78313965 94.78489746 -55.65954102 95.22946289 -56.5625 95.6875 C-57.90417236 96.36208252 -57.90417236 96.36208252 -59.27294922 97.05029297 C-64.95701306 99.92170922 -70.5708444 102.88114459 -76.1015625 106.0390625 C-78 107 -78 107 -80 107 C-80.01417969 106.19175781 -80.02835938 105.38351563 -80.04296875 104.55078125 C-80.23034137 97.71240351 -80.23034137 97.71240351 -83.4375 91.875 C-84.283125 91.25625 -85.12875 90.6375 -86 90 C-86.66 89.34 -87.32 88.68 -88 88 C-87.07662842 87.52578613 -86.15325684 87.05157227 -85.2019043 86.56298828 C-81.77372256 84.80178333 -78.34676293 83.03821188 -74.92016602 81.27392578 C-73.43742527 80.51091015 -71.95435463 79.74853522 -70.47094727 78.98681641 C-68.33783139 77.89133607 -66.20591555 76.79355114 -64.07421875 75.6953125 C-63.41161545 75.3556546 -62.74901215 75.0159967 -62.06632996 74.66604614 C-59.26899579 73.22241457 -56.62283592 71.74855728 -54 70 C-53.72371473 67.02315037 -53.63134478 64.24268952 -53.6640625 61.265625 C-53.65154446 59.47655891 -53.63850709 57.68749639 -53.625 55.8984375 C-53.62107637 53.076368 -53.62497581 50.25465262 -53.63964844 47.43261719 C-53.64824394 44.70975177 -53.62648679 41.98836088 -53.6015625 39.265625 C-53.61490631 38.42791565 -53.62825012 37.5902063 -53.64199829 36.72711182 C-53.58775285 32.40316326 -53.25235559 30.39126981 -50.8449707 26.65869141 C-47.97649503 23.97803406 -45.30565642 22.10013562 -41.87890625 20.1953125 C-41.29769516 19.86763885 -40.71648407 19.53996521 -40.11766052 19.20236206 C-38.27206693 18.16513202 -36.41779931 17.14474725 -34.5625 16.125 C-33.35418845 15.45034451 -32.14650117 14.77456971 -30.93945312 14.09765625 C-29.12907399 13.08274535 -27.31739006 12.07085465 -25.49966431 11.06915283 C-22.35790511 9.33634504 -19.25104351 7.56430059 -16.17919922 5.70996094 C-15.55617416 5.3386203 -14.93314911 4.96727966 -14.29124451 4.58468628 C-12.56754537 3.55362056 -10.85173932 2.50939241 -9.13647461 1.46435547 C-5.67653479 -0.15101925 -3.76612769 -0.49946641 0 0 Z " fill="#082C75" transform="translate(329,90)"/>
<path d="M0 0 C3.01342773 1.32592773 3.01342773 1.32592773 6.18359375 3.18359375 C7.04327255 3.68027054 7.04327255 3.68027054 7.9203186 4.1869812 C9.76695769 5.25806373 11.60217712 6.34716089 13.4375 7.4375 C14.70115634 8.17637609 15.96540003 8.91424857 17.23022461 9.65112305 C19.70867774 11.09839363 22.18230455 12.55336901 24.65136719 14.01660156 C27.45173712 15.67526337 30.25859079 17.32164407 33.0703125 18.9609375 C43.8610669 25.30365202 43.8610669 25.30365202 46 28 C46.41459656 30.40167236 46.41459656 30.40167236 46.4675293 33.27832031 C46.49312424 34.35664124 46.51871918 35.43496216 46.54508972 36.54595947 C46.5547023 37.7115741 46.56431488 38.87718872 46.57421875 40.078125 C46.5889473 41.27806091 46.60367584 42.47799683 46.61885071 43.71429443 C46.64282453 46.25624203 46.65822974 48.79828257 46.66577148 51.34033203 C46.68734435 55.22199422 46.76749582 59.0996788 46.84960938 62.98046875 C46.8656073 65.4505 46.87809118 67.92055701 46.88671875 70.390625 C46.91859787 71.5481427 46.95047699 72.7056604 46.98332214 73.89825439 C46.91799593 81.74797929 46.91799593 81.74797929 44.38430786 85.20358276 C42.35181392 87.04506942 40.31923694 88.54014796 38 90 C36.92427734 90.6904541 35.84855469 91.3809082 34.74023438 92.09228516 C33.70189453 92.65222168 32.66355469 93.2121582 31.59375 93.7890625 C30.43746094 94.42070312 29.28117187 95.05234375 28.08984375 95.703125 C26.89348584 96.34422921 25.69686965 96.98485166 24.5 97.625 C22.13328194 98.90496632 19.76978621 100.19071448 17.40625 101.4765625 C15.73369141 102.37810059 15.73369141 102.37810059 14.02734375 103.29785156 C11.48498496 104.72731329 9.11625035 106.24511176 6.71875 107.8984375 C2.63553117 110.46506298 -1.17034243 111.49624706 -6 111 C-9.32788883 109.86861972 -12.19255221 108.19798521 -15.1875 106.375 C-16.03175537 105.88515625 -16.87601074 105.3953125 -17.74584961 104.890625 C-19.55440309 103.83683521 -21.35675318 102.77233954 -23.15332031 101.69824219 C-26.11590297 99.93085583 -29.0982238 98.20108493 -32.0859375 96.4765625 C-39.85559815 91.96449885 -39.85559815 91.96449885 -43.59765625 89.75 C-44.37633057 89.29109375 -45.15500488 88.8321875 -45.95727539 88.359375 C-49.22474878 86.1849646 -50.74403834 84.76788498 -52 81 C-52.11206662 79.32428952 -52.16892928 77.64461501 -52.19287109 75.96533203 C-52.20893402 74.94061798 -52.22499695 73.91590393 -52.24154663 72.86013794 C-52.28603151 68.18394681 -52.32704302 63.5078961 -52.35009766 58.83154297 C-52.36667581 56.36399924 -52.39398983 53.89650388 -52.43212891 51.42919922 C-52.48682859 47.87181688 -52.5087601 44.31555844 -52.5234375 40.7578125 C-52.55744156 39.1044841 -52.55744156 39.1044841 -52.59213257 37.41775513 C-52.57102972 29.78366863 -52.57102972 29.78366863 -49.78857422 25.96508789 C-47.1827202 24.12876159 -44.62879631 22.37990466 -41.859375 20.80078125 C-40.87888184 20.23568848 -39.89838867 19.6705957 -38.88818359 19.08837891 C-37.33478271 18.20931885 -37.33478271 18.20931885 -35.75 17.3125 C-33.59072631 16.07755615 -31.43187471 14.84187401 -29.2734375 13.60546875 C-28.21092773 12.99880371 -27.14841797 12.39213867 -26.05371094 11.76708984 C-23.29414292 10.17021158 -20.56718099 8.53347819 -17.8515625 6.86328125 C-16.7054248 6.16368286 -16.7054248 6.16368286 -15.53613281 5.44995117 C-14.13608357 4.59160648 -12.74175657 3.7238285 -11.35449219 2.8449707 C-7.30162417 0.38430083 -4.70396906 -0.45246495 0 0 Z " fill="#062B75" transform="translate(197,298)"/>
<path d="M0 0 C2.74765778 1.12341334 5.25757316 2.55742004 7.8125 4.0625 C8.56861572 4.49643066 9.32473145 4.93036133 10.10375977 5.37744141 C12.74507377 6.90292588 15.37225505 8.45126548 18 10 C19.59956543 10.93126709 19.59956543 10.93126709 21.23144531 11.88134766 C24.64038799 13.86769539 28.04036857 15.8685272 31.4375 17.875 C32.53360596 18.51703369 33.62971191 19.15906738 34.7590332 19.82055664 C35.78601318 20.43406982 36.81299316 21.04758301 37.87109375 21.6796875 C38.78818115 22.22351074 39.70526855 22.76733398 40.65014648 23.32763672 C43.11486721 25.08174965 44.41167914 26.4384559 46 29 C46.38768005 31.4594574 46.38768005 31.4594574 46.40405273 34.23999023 C46.41673691 35.28464951 46.42942108 36.32930878 46.44248962 37.40562439 C46.43955399 38.52860428 46.43661835 39.65158417 46.43359375 40.80859375 C46.4388356 41.96746597 46.44407745 43.1263382 46.44947815 44.32032776 C46.4559003 46.77059122 46.45455889 49.2208855 46.44604492 51.67114258 C46.43753972 55.4199924 46.46628867 59.16731653 46.49804688 62.91601562 C46.49965908 65.29687454 46.499081 67.67773616 46.49609375 70.05859375 C46.50732773 71.17954941 46.51856171 72.30050507 46.53013611 73.45542908 C46.46105572 81.17140804 46.46105572 81.17140804 44.3137207 85.03051758 C41.80624704 87.16492615 39.35440186 88.8348471 36.484375 90.453125 C34.86547363 91.37629517 34.86547363 91.37629517 33.21386719 92.31811523 C32.07079102 92.95563721 30.92771484 93.59315918 29.75 94.25 C28.57151722 94.91469676 27.39345908 95.58014694 26.21582031 96.24633789 C23.88600547 97.56293539 21.55329366 98.87387745 19.21875 100.18212891 C16.43916388 101.75197101 13.68298553 103.35203007 10.9375 104.98046875 C10.21594727 105.40360352 9.49439453 105.82673828 8.75097656 106.26269531 C7.46114683 107.01997456 6.17619488 107.78565482 4.89746094 108.56152344 C1.03057229 110.79587166 -1.57391854 111.36264691 -6 111 C-8.69042969 109.8894043 -8.69042969 109.8894043 -11.421875 108.32421875 C-12.43942871 107.74849121 -13.45698242 107.17276367 -14.50537109 106.57958984 C-15.57609863 105.9552002 -16.64682617 105.33081055 -17.75 104.6875 C-18.8529541 104.05537598 -19.9559082 103.42325195 -21.09228516 102.77197266 C-24.404732 100.8643989 -27.7040796 98.93596302 -31 97 C-31.94907227 96.44618652 -32.89814453 95.89237305 -33.87597656 95.32177734 C-36.38379114 93.85267805 -38.88195747 92.36900388 -41.375 90.875 C-42.11073242 90.43889404 -42.84646484 90.00278809 -43.60449219 89.5534668 C-44.61624512 88.93532104 -44.61624512 88.93532104 -45.6484375 88.3046875 C-46.51734619 87.7785083 -46.51734619 87.7785083 -47.40380859 87.24169922 C-50.18531261 85.07792904 -51.82864076 83.0685622 -52.39440918 79.5405426 C-52.40282837 78.62296677 -52.41124756 77.70539093 -52.41992188 76.76000977 C-52.44378967 75.19302086 -52.44378967 75.19302086 -52.46813965 73.59437561 C-52.46834106 72.47139572 -52.46854248 71.34841583 -52.46875 70.19140625 C-52.47636353 69.03253403 -52.48397705 67.8736618 -52.49182129 66.67967224 C-52.50262447 64.22942255 -52.50547453 61.7791268 -52.50097656 59.32885742 C-52.50000448 55.57978535 -52.54162281 51.83276081 -52.5859375 48.08398438 C-52.5911446 45.70312927 -52.59383269 43.32226705 -52.59375 40.94140625 C-52.61014526 39.82045059 -52.62654053 38.69949493 -52.64343262 37.54457092 C-52.57450129 29.78274709 -52.57450129 29.78274709 -49.75244141 25.93774414 C-44.89577812 22.51860838 -44.89577812 22.51860838 -42.3671875 21.0546875 C-41.48740234 20.53994873 -40.60761719 20.02520996 -39.70117188 19.49487305 C-38.76853516 18.96031494 -37.83589844 18.42575684 -36.875 17.875 C-35.90884766 17.31530518 -34.94269531 16.75561035 -33.94726562 16.17895508 C-31.95031371 15.0222837 -29.95192971 13.86808135 -27.95214844 12.71630859 C-25.12940842 11.07523497 -22.33146169 9.39910069 -19.5390625 7.70703125 C-18.68844238 7.19736816 -17.83782227 6.68770508 -16.96142578 6.16259766 C-15.35780375 5.20156966 -13.75949489 4.23160184 -12.16748047 3.25146484 C-7.99135614 0.77806409 -4.97591007 -0.92024757 0 0 Z " fill="#062B75" transform="translate(443,308)"/>
<path d="M0 0 C4.05883422 -0.05882368 7.99810247 0.36996904 12 1 C13.19786133 1.18804199 13.19786133 1.18804199 14.41992188 1.37988281 C23.42542354 3.01632273 31.44310303 5.10380125 36.890625 12.90234375 C39.74330916 17.59325159 42.20395977 22.47205546 44.63720703 27.390625 C51.20708738 39.9701451 62.70507286 52.22149702 74.09375 60.5625 C76 62 76 62 78.375 64.4375 C90.15651283 75.93850062 105.73832909 83.31867476 120.76953125 89.58984375 C124 91 124 91 127 93 C124.37305665 94.31347168 122.42789254 94.12889062 119.48492432 94.13371277 C117.72683441 94.14011024 117.72683441 94.14011024 115.93322754 94.14663696 C113.99449768 94.14595718 113.99449768 94.14595718 112.01660156 94.14526367 C110.64674793 94.14825467 109.27689513 94.15165706 107.90704346 94.15544128 C104.17960068 94.16429377 100.45218085 94.16661998 96.72472858 94.16725707 C93.61356035 94.16820568 90.50239747 94.17188362 87.3912313 94.17542917 C80.04890405 94.18357926 72.70658906 94.18601298 65.36425781 94.18530273 C57.79236936 94.18470249 50.22055228 94.19524234 42.64868188 94.2110464 C36.14838585 94.22413002 29.64811311 94.22948625 23.14780402 94.22884732 C19.26540353 94.22859248 15.38306638 94.23143576 11.50067902 94.24202538 C7.84650005 94.25171962 4.19244478 94.25177647 0.53826141 94.24450874 C-1.43820292 94.24296735 -3.41466727 94.25130131 -5.39111328 94.25994873 C-6.57445251 94.25575424 -7.75779175 94.25155975 -8.97698975 94.24723816 C-10.51340937 94.24805531 -10.51340937 94.24805531 -12.08086777 94.24888897 C-18.62506002 93.69092272 -24.22720157 91.08968968 -28.640625 86.171875 C-33.830641 79.57098086 -35.69043446 73.73251953 -35.484375 65.3046875 C-34.53820218 58.84934713 -31.24851309 53.54113012 -28 48 C-27.54399414 47.21367187 -27.08798828 46.42734375 -26.61816406 45.6171875 C-23.96696414 41.0573328 -21.28173865 36.51880417 -18.57421875 31.9921875 C-14.754458 25.60427888 -10.99786036 19.18029002 -7.25 12.75 C-6.64148193 11.7079541 -6.03296387 10.6659082 -5.40600586 9.59228516 C-4.84405518 8.6285498 -4.28210449 7.66481445 -3.703125 6.671875 C-3.20458008 5.8169043 -2.70603516 4.96193359 -2.19238281 4.08105469 C-1.42467809 2.74118675 -0.69059636 1.38119271 0 0 Z " fill="#92B1F3" transform="translate(266,435)"/>
<path d="M0 0 C2.19333708 2.82284226 4.07230494 5.70437802 5.86328125 8.796875 C6.4137915 9.7441748 6.96430176 10.69147461 7.53149414 11.66748047 C8.11922607 12.68471191 8.70695801 13.70194336 9.3125 14.75 C10.5675209 16.9141712 11.82273498 19.07823039 13.078125 21.2421875 C14.04588867 22.9123291 14.04588867 22.9123291 15.03320312 24.61621094 C16.96525461 27.94022206 18.90985295 31.25652247 20.859375 34.5703125 C21.48030029 35.62766602 22.10122559 36.68501953 22.7409668 37.77441406 C23.92245011 39.78551688 25.10607816 41.79536183 26.29223633 43.80371094 C37.58142794 63.0630217 37.58142794 63.0630217 36 74 C34.08839345 80.87751182 30.06327339 86.98076213 24.3125 91.25390625 C17.06721471 93.59148985 10.04193956 89.52235438 3.6875 86.375 C2.29047852 85.6934082 2.29047852 85.6934082 0.86523438 84.99804688 C-12.70069038 78.28628424 -25.36423113 69.83043353 -36 59 C-37.21830435 57.94564965 -38.44688986 56.903011 -39.6875 55.875 C-53.73865204 43.58682022 -64.60313393 27.60125383 -73 11 C-73 10.34 -73 9.68 -73 9 C-71.783125 9.16113281 -70.56625 9.32226562 -69.3125 9.48828125 C-63.21074531 10.16267315 -57.13328425 10.18398321 -51 10.1875 C-49.31390625 10.20586914 -49.31390625 10.20586914 -47.59375 10.22460938 C-41.08743343 10.23601063 -35.25757242 9.77143512 -29 8 C-28.12827148 7.76015381 -27.25654297 7.52030762 -26.35839844 7.27319336 C-22.56435498 6.21631901 -18.77699536 5.13813297 -14.99609375 4.03515625 C-9.81937721 2.57763412 -5.37985829 1.65723895 0 2 C0 1.34 0 0.68 0 0 Z " fill="#D1DBFC" transform="translate(373,435)"/>
<path d="M0 0 C3.4250513 0.88490368 5.93827685 2.14063514 8.97583008 3.9453125 C10.03479492 4.56921875 11.09375977 5.193125 12.18481445 5.8359375 C13.2747168 6.49078125 14.36461914 7.145625 15.48754883 7.8203125 C16.59678711 8.47515625 17.70602539 9.13 18.84887695 9.8046875 C26.97838529 14.62364897 26.97838529 14.62364897 28.17504883 15.8203125 C28.26352626 18.34125326 28.29032184 20.83462143 28.27270508 23.35546875 C28.27129013 24.10871933 28.26987518 24.86196991 28.26841736 25.63804626 C28.26280259 28.0530081 28.25024766 30.46787851 28.23754883 32.8828125 C28.23253573 34.51627471 28.22797249 36.14973836 28.22387695 37.78320312 C28.21282837 41.79560835 28.19555389 45.80794491 28.17504883 49.8203125 C24.29247502 52.15906567 20.39671055 54.47332473 16.48681641 56.76611328 C15.1590296 57.54926266 13.83507386 58.33894574 12.51513672 59.13525391 C10.61592748 60.27949354 8.70413384 61.39945056 6.78833008 62.515625 C6.20167068 62.87592804 5.61501129 63.23623108 5.01057434 63.60745239 C2.27503283 65.17241041 0.76302465 65.95679882 -2.3659668 65.23046875 C-3.17743164 64.76511719 -3.98889648 64.29976563 -4.82495117 63.8203125 C-5.76959229 63.32128418 -6.7142334 62.82225586 -7.6875 62.30810547 C-8.7086792 61.73205566 -9.7298584 61.15600586 -10.78198242 60.5625 C-11.89379883 59.93730469 -13.00561523 59.31210937 -14.15112305 58.66796875 C-15.31327018 58.0104834 -16.47537908 57.35293047 -17.63745117 56.6953125 C-18.81893306 56.02966609 -20.00057217 55.36429866 -21.18237305 54.69921875 C-24.06479022 53.07565316 -26.94557448 51.44926235 -29.82495117 49.8203125 C-33.08947385 24.97227255 -33.08947385 24.97227255 -29.82495117 15.8203125 C-24.46580695 8.96287632 -16.37431062 5.7019845 -8.36865234 2.79296875 C-0.91263634 -0.05805033 -0.91263634 -0.05805033 0 0 Z " fill="#FAC950" transform="translate(194.824951171875,321.1796875)"/>
<path d="M0 0 C3.00446305 1.47131986 5.90846858 3.09055347 8.8125 4.75 C9.58142578 5.18054688 10.35035156 5.61109375 11.14257812 6.0546875 C12.68637379 6.92494531 14.21745262 7.81815441 15.73486328 8.73364258 C17.95397437 10.05665715 17.95397437 10.05665715 20.33935547 10.8347168 C22.99448883 11.93283477 24.27570121 12.67556518 26 15 C27.01055434 20.7945826 26.75160599 26.45732014 26.5 32.3125 C26.45985202 33.92764688 26.42335348 35.54288887 26.390625 37.15820312 C26.30265046 41.10782023 26.16474097 45.0528698 26 49 C22.2115352 51.12119025 18.42121703 53.23901829 14.62915039 55.35375977 C13.33957367 56.07354237 12.05050662 56.79423891 10.76196289 57.51586914 C8.90905065 58.55335719 7.0543264 59.58753759 5.19921875 60.62109375 C4.08377686 61.2442749 2.96833496 61.86745605 1.8190918 62.50952148 C-1 64 -1 64 -4 65 C-6.25015376 63.95239424 -8.29372633 62.86135804 -10.41796875 61.59765625 C-11.03521317 61.24110458 -11.65245758 60.88455292 -12.28840637 60.51719666 C-14.26045683 59.37510545 -16.22390907 58.21906345 -18.1875 57.0625 C-19.52224469 56.28617716 -20.85752512 55.51077463 -22.19335938 54.73632812 C-25.46855393 52.83484591 -28.73610655 50.92081062 -32 49 C-32.3234878 44.30502444 -32.5580634 39.6166106 -32.71411133 34.91308594 C-32.77916664 33.31753592 -32.86766316 31.72275186 -32.98071289 30.12988281 C-33.34695836 24.8334098 -33.40385713 20.15262209 -32 15 C-28.17189449 11.1284328 -23.94799014 9.15721515 -19 7 C-17.59764076 6.17259763 -16.20796651 5.32248038 -14.84375 4.43359375 C-13.7403125 3.77488281 -12.636875 3.11617187 -11.5 2.4375 C-9.81390625 1.41462891 -9.81390625 1.41462891 -8.09375 0.37109375 C-4.51437132 -1.2152218 -3.60724242 -1.38002332 0 0 Z " fill="#AFD752" transform="translate(203,180)"/>
<path d="M0 0 C2.86079647 1.39797306 5.60454876 2.90827143 8.35253906 4.51733398 C9.41472656 5.13801758 10.47691406 5.75870117 11.57128906 6.39819336 C12.66957031 7.0446582 13.76785156 7.69112305 14.89941406 8.35717773 C16.01316406 9.00750977 17.12691406 9.6578418 18.27441406 10.32788086 C26.50630379 15.15156746 26.50630379 15.15156746 27.64941406 16.29467773 C28.03716702 20.90450641 28.13455042 25.51539912 28.21923828 30.13964844 C28.25582381 31.69291476 28.31032407 33.24586923 28.38330078 34.79785156 C28.9763798 47.60371206 28.9763798 47.60371206 25.92456055 51.49267578 C23.57137611 53.08206913 21.25991668 54.18404294 18.64941406 55.29467773 C17.10301422 56.21218456 15.56751883 57.14833956 14.04394531 58.10327148 C12.51885145 58.98348337 10.99150426 59.85980276 9.46191406 60.73217773 C8.69427734 61.19043945 7.92664063 61.64870117 7.13574219 62.12084961 C6.38357422 62.54817383 5.63140625 62.97549805 4.85644531 63.41577148 C4.19104736 63.80176514 3.52564941 64.18775879 2.84008789 64.58544922 C-1.23842236 65.90586294 -4.46572492 64.7212547 -8.21899414 62.91186523 C-9.6705188 62.04948242 -9.6705188 62.04948242 -11.15136719 61.16967773 C-12.21033203 60.54577148 -13.26929688 59.92186523 -14.36035156 59.27905273 C-15.45025391 58.62420898 -16.54015625 57.96936523 -17.66308594 57.29467773 C-18.77232422 56.63983398 -19.8815625 55.98499023 -21.02441406 55.31030273 C-29.1539224 50.49134127 -29.1539224 50.49134127 -30.35058594 49.29467773 C-30.83539472 44.7230419 -31.00695181 40.15347756 -31.14013672 35.55957031 C-31.19668484 34.01936097 -31.27836674 32.47985083 -31.38623047 30.94238281 C-31.74057764 25.79435162 -31.77131564 21.28887716 -30.35058594 16.29467773 C-26.51397229 12.47487291 -22.24923247 10.49256981 -17.35058594 8.29467773 C-15.87181308 7.38706394 -14.40904379 6.45197995 -12.97558594 5.47436523 C-11.76726005 4.70612435 -10.55892708 3.93789462 -9.35058594 3.16967773 C-8.73570312 2.75975586 -8.12082031 2.34983398 -7.48730469 1.92749023 C-2.97632125 -0.89308185 -2.97632125 -0.89308185 0 0 Z " fill="#FA7C9F" transform="translate(441.3505859375,330.705322265625)"/>
<path d="M0 0 C19.36813121 7.87627096 19.36813121 7.87627096 22.81298828 15.86248779 C24.26425145 20.84951956 24.4396813 25.80702061 24.39892578 30.97070312 C24.41066833 31.6993457 24.42241089 32.42798828 24.43450928 33.17871094 C24.44141205 38.19829162 23.954281 42.36893834 22.02392578 47.03320312 C18.11086862 50.70246249 13.87216987 52.81598756 9.02392578 55.03320312 C7.62500679 55.85437244 6.23631208 56.69374761 4.86767578 57.56445312 C3.76423828 58.21414062 2.66080078 58.86382812 1.52392578 59.53320312 C0.39986328 60.20351562 -0.72419922 60.87382812 -1.88232422 61.56445312 C-5.15186011 63.11665703 -6.45580726 63.71828502 -9.97607422 63.03320312 C-12.85456662 61.69347927 -15.52704829 60.07538905 -18.22607422 58.40820312 C-18.93892578 57.98152344 -19.65177734 57.55484375 -20.38623047 57.11523438 C-21.84674463 56.23366277 -23.29325094 55.32850889 -24.72558594 54.40185547 C-26.96354694 52.97277275 -26.96354694 52.97277275 -29.48046875 51.93408203 C-32.28047502 50.55105369 -33.97818776 49.45058045 -35.97607422 47.03320312 C-37.24415499 42.28262181 -37.44051032 37.81877715 -37.36914062 32.92089844 C-37.35110822 30.66246182 -37.45006656 28.42932533 -37.55810547 26.17382812 C-37.63743067 21.78662336 -37.3485047 18.23505591 -35.97607422 14.03320312 C-32.10932705 10.26398057 -27.86667438 8.22633614 -22.97607422 6.03320312 C-21.5860965 5.20444823 -20.20830144 4.35414973 -18.85498047 3.46679688 C-17.76056641 2.80808594 -16.66615234 2.149375 -15.53857422 1.47070312 C-14.42611328 0.78878906 -13.31365234 0.106875 -12.16748047 -0.59570312 C-7.64177231 -2.54004041 -4.58897852 -1.49075922 0 0 Z " fill="#CFDAFB" transform="translate(452.97607421875,190.966796875)"/>
<path d="M0 0 C0.92466064 0.5266626 1.84932129 1.0533252 2.80200195 1.59594727 C4.32083984 2.45736328 4.32083984 2.45736328 5.87036133 3.33618164 C6.91643555 3.93881836 7.96250977 4.54145508 9.0402832 5.16235352 C10.09795898 5.76112305 11.15563477 6.35989258 12.24536133 6.97680664 C20.06890578 11.4409761 20.06890578 11.4409761 22.3527832 13.72485352 C22.52781315 16.30588658 22.58440599 18.77793514 22.5480957 21.35766602 C22.54526581 22.10950165 22.54243591 22.86133728 22.53952026 23.63595581 C22.52831194 26.04074929 22.50320672 28.44517233 22.4777832 30.84985352 C22.46775422 32.47875439 22.45862823 34.1076611 22.45043945 35.73657227 C22.42837055 39.73280907 22.39383671 43.72876846 22.3527832 47.72485352 C18.70694872 49.84629462 15.05904238 51.96411362 11.40917969 54.07861328 C10.16804473 54.79832563 8.92747957 55.51902154 7.6875 56.24072266 C5.90424398 57.27839626 4.11896323 58.31250601 2.33325195 59.34594727 C1.25970459 59.96912842 0.18615723 60.59230957 -0.91992188 61.234375 C-3.6472168 62.72485352 -3.6472168 62.72485352 -6.6472168 63.72485352 C-8.89737056 62.67724775 -10.94094313 61.58621156 -13.06518555 60.32250977 C-13.68242996 59.9659581 -14.29967438 59.60940643 -14.93562317 59.24205017 C-16.90767363 58.09995896 -18.87112587 56.94391697 -20.8347168 55.78735352 C-22.16946149 55.01103067 -23.50474192 54.23562815 -24.84057617 53.46118164 C-28.11577073 51.55969942 -31.38332334 49.64566413 -34.6472168 47.72485352 C-34.87056584 42.99290812 -35.03337533 38.26405608 -35.14160156 33.52807617 C-35.18672564 31.91945954 -35.24804808 30.31120938 -35.32617188 28.70385742 C-35.95516508 15.42511195 -35.95516508 15.42511195 -32.92895508 11.49121094 C-30.57231894 9.89913232 -28.26980225 8.81753503 -25.6472168 7.72485352 C-24.08874681 6.8080874 -22.54153172 5.87189999 -21.0065918 4.91625977 C-19.47237662 4.03603631 -17.93591477 3.15971703 -16.3972168 2.28735352 C-15.62120117 1.8290918 -14.84518555 1.37083008 -14.0456543 0.89868164 C-12.91256836 0.25769531 -12.91256836 0.25769531 -11.7565918 -0.39624023 C-11.08595703 -0.78223389 -10.41532227 -1.16822754 -9.72436523 -1.56591797 C-6.0391989 -2.8241935 -3.40009696 -1.63780378 0 0 Z " fill="#FB8E01" transform="translate(331.647216796875,115.275146484375)"/>
<path d="M0 0 C24.42 0 48.84 0 74 0 C74 6.27 74 12.54 74 19 C49.58 19 25.16 19 0 19 C0 12.73 0 6.46 0 0 Z " fill="#91B0F2" transform="translate(283,278)"/>
<path d="M0 0 C9.12652368 4.67167627 17.6228848 10.18500074 26.17089844 15.82568359 C27.75013741 16.83958368 29.37565154 17.78072692 31.0078125 18.70703125 C31.99394531 19.34705078 31.99394531 19.34705078 33 20 C33 20.66 33 21.32 33 22 C31.06640625 23.47265625 31.06640625 23.47265625 28.5625 25.0625 C25.6281857 26.83678892 25.6281857 26.83678892 23 29 C22.87709282 30.65644366 22.82216092 32.31798993 22.79467773 33.97875977 C22.77473251 35.03978409 22.75478729 36.10080841 22.73423767 37.19398499 C22.71752518 38.348134 22.70081268 39.50228302 22.68359375 40.69140625 C22.66281265 41.86638168 22.64203156 43.04135712 22.62062073 44.25193787 C22.55499876 48.02206324 22.4961817 51.79226082 22.4375 55.5625 C22.3943268 58.11133573 22.35071292 60.66016403 22.30664062 63.20898438 C22.19930455 69.47257892 22.0975621 75.73624601 22 82 C21.67 82 21.34 82 21 82 C21.06396973 80.69442139 21.12793945 79.38884277 21.19384766 78.04370117 C21.40892723 73.15537657 21.5026096 68.27066578 21.56152344 63.37817383 C21.60346727 61.26985115 21.67745158 59.16189574 21.78515625 57.0559082 C22.72454571 45.32687837 22.72454571 45.32687837 18.26547241 34.99154663 C13.98469542 31.52058531 9.25796827 29.20440707 4.22294617 27.02677917 C0.90823619 25.49571413 -1.94225003 23.52078838 -4.9375 21.4375 C-5.85402344 20.81746094 -6.77054687 20.19742188 -7.71484375 19.55859375 C-8.46894531 19.04425781 -9.22304688 18.52992188 -10 18 C-10.99 17.34 -11.98 16.68 -13 16 C-12.30132812 15.60167969 -11.60265625 15.20335937 -10.8828125 14.79296875 C-9.97273438 14.26316406 -9.06265625 13.73335937 -8.125 13.1875 C-7.22007812 12.66542969 -6.31515625 12.14335937 -5.3828125 11.60546875 C-2.76726817 10.06266201 -2.76726817 10.06266201 -1 7 C-0.60612212 4.67612053 -0.26513915 2.34206251 0 0 Z " fill="#6A68F2" transform="translate(375,165)"/>
<path d="M0 0 C3.40312738 1.05875074 6.01353231 2.00902154 9 4 C13.64051343 4.34374174 16.77163657 3.83083777 21 2 C21.16139646 15.36004057 20.66509667 28.65738241 20 42 C19.31655518 41.64413818 18.63311035 41.28827637 17.92895508 40.92163086 C16.58160278 40.23145874 16.58160278 40.23145874 15.20703125 39.52734375 C14.31733643 39.06835693 13.4276416 38.60937012 12.51098633 38.13647461 C9.44218872 36.74753413 7.3251918 36.45868971 4 37 C2.32484634 37.64504453 0.65672737 38.30900316 -1 39 C-1.20956539 25.98366076 -0.57575125 13.00034071 0 0 Z " fill="#6B67F6" transform="translate(187,262)"/>
<path d="M0 0 C0.07476562 0.88042969 0.14953125 1.76085937 0.2265625 2.66796875 C0.79534004 10.36445225 0.79534004 10.36445225 5.125 16.3125 C6.07375 16.869375 7.0225 17.42625 8 18 C5.17341924 21.06934192 2.49686809 23.0133161 -1.2109375 24.91015625 C-2.20867187 25.42513672 -3.20640625 25.94011719 -4.234375 26.47070312 C-5.27078125 26.99599609 -6.3071875 27.52128906 -7.375 28.0625 C-8.40367187 28.59166016 -9.43234375 29.12082031 -10.4921875 29.66601562 C-12.46589796 30.67957699 -14.44202462 31.68845144 -16.42089844 32.69189453 C-17.94872312 33.46679842 -19.47393442 34.24695211 -20.99316406 35.03857422 C-24.78256965 37 -24.78256965 37 -27 37 C-27.01417969 36.19175781 -27.02835938 35.38351563 -27.04296875 34.55078125 C-27.23034137 27.71240351 -27.23034137 27.71240351 -30.4375 21.875 C-31.283125 21.25625 -32.12875 20.6375 -33 20 C-33.66 19.34 -34.32 18.68 -35 18 C-34.07662842 17.52578613 -33.15325684 17.05157227 -32.2019043 16.56298828 C-28.77372256 14.80178333 -25.34676293 13.03821188 -21.92016602 11.27392578 C-20.43742527 10.51091015 -18.95435463 9.74853522 -17.47094727 8.98681641 C-15.33783139 7.89133607 -13.20591555 6.79355114 -11.07421875 5.6953125 C-10.41161545 5.3556546 -9.74901215 5.0159967 -9.06632996 4.66604614 C-0.02490242 0 -0.02490242 0 0 0 Z " fill="#6965F6" transform="translate(276,160)"/>
<path d="M0 0 C3.3 1.65 6.6 3.3 10 5 C14.74498533 5.62669618 16.34893946 4.86042422 21 3 C20.67 16.2 20.34 29.4 20 43 C16.7 41.35 13.4 39.7 10 38 C5.25501467 37.37330382 3.65106054 38.13957578 -1 40 C-0.67 26.8 -0.34 13.6 0 0 Z " fill="#6966F6" transform="translate(433,271)"/>
<path d="M0 0 C0.33 0 0.66 0 1 0 C0.94126709 1.27528564 0.88253418 2.55057129 0.82202148 3.86450195 C0.62511574 8.64113769 0.54286815 13.41433267 0.4934082 18.19458008 C0.45647519 20.25428125 0.38931451 22.31368734 0.2902832 24.37133789 C-0.58289922 35.80423836 -0.58289922 35.80423836 3.61602783 45.97991943 C7.59281777 49.40426584 12.02446435 51.74005424 16.77127075 53.92172241 C20.35917348 55.65757934 23.66765823 57.82194912 27 60 C25.73252511 62.25195063 24.46117132 64.50155747 23.1875 66.75 C22.83107422 67.38421875 22.47464844 68.0184375 22.10742188 68.671875 C21.75615234 69.290625 21.40488281 69.909375 21.04296875 70.546875 C20.72352295 71.11245117 20.40407715 71.67802734 20.07495117 72.26074219 C18.83261168 74.27083224 17.43999926 76.12782163 16 78 C12.33162259 75.761552 8.66551465 73.51944696 5.00146484 71.27392578 C3.75468686 70.51054598 2.50729438 69.74816885 1.25927734 68.98681641 C-0.53450426 67.89228141 -2.3260449 66.79415931 -4.1171875 65.6953125 C-5.73536377 64.7055542 -5.73536377 64.7055542 -7.38623047 63.69580078 C-10 62 -10 62 -12 60 C-11.37351563 59.59007812 -10.74703125 59.18015625 -10.1015625 58.7578125 C-9.28429687 58.21898437 -8.46703125 57.68015625 -7.625 57.125 C-6.81289062 56.59132813 -6.00078125 56.05765625 -5.1640625 55.5078125 C-2.92405904 54.04134945 -2.92405904 54.04134945 -1 52 C-0.66898466 49.69661198 -0.66898466 49.69661198 -0.68115234 46.99951172 C-0.66128265 45.95858368 -0.64141296 44.91765564 -0.62094116 43.84518433 C-0.60938995 42.71807037 -0.59783875 41.59095642 -0.5859375 40.4296875 C-0.56657135 39.27832306 -0.5472052 38.12695862 -0.5272522 36.94070435 C-0.46732628 33.25221231 -0.42101874 29.56368928 -0.375 25.875 C-0.33683223 23.37889241 -0.29778122 20.88279815 -0.2578125 18.38671875 C-0.16161412 12.25793063 -0.07660494 6.12906262 0 0 Z " fill="#6A68F1" transform="translate(243,329)"/>
<path d="M0 0 C0.33 0 0.66 0 1 0 C1.15855469 0.81339844 1.31710937 1.62679688 1.48046875 2.46484375 C4.11281695 15.39389097 7.33631811 28.04333823 13 40 C13 40.66 13 41.32 13 42 C8.35687881 41.36717031 4.22362303 40.12893673 -0.1875 38.5625 C-6.39475496 36.40918268 -12.49165869 34.96425495 -19 34 C-15.26901258 26.24484511 -11.09795162 18.79899208 -6.75 11.375 C-5.79480469 9.72564453 -5.79480469 9.72564453 -4.8203125 8.04296875 C-4.21445312 7.00527344 -3.60859375 5.96757812 -2.984375 4.8984375 C-2.43491211 3.95661621 -1.88544922 3.01479492 -1.31933594 2.04443359 C-0.88395508 1.36977051 -0.44857422 0.69510742 0 0 Z " fill="#D0DAFB" transform="translate(286,401)"/>
<path d="M0 0 C0.01417969 0.80824219 0.02835937 1.61648438 0.04296875 2.44921875 C0.23034137 9.28759649 0.23034137 9.28759649 3.4375 15.125 C4.283125 15.74375 5.12875 16.3625 6 17 C6.66 17.66 7.32 18.32 8 19 C2.06 22.3 -3.88 25.6 -10 29 C-12.98682849 25.26646439 -15.37332774 21.90057941 -17.75 17.8125 C-18.36359375 16.76707031 -18.9771875 15.72164063 -19.609375 14.64453125 C-21 12 -21 12 -21 10 C-17.68910974 8.33012108 -14.37602825 6.66463741 -11.0625 5 C-9.64420898 4.28457031 -9.64420898 4.28457031 -8.19726562 3.5546875 C-6.84858398 2.87792969 -6.84858398 2.87792969 -5.47265625 2.1875 C-4.22367554 1.55908203 -4.22367554 1.55908203 -2.94946289 0.91796875 C-1 0 -1 0 0 0 Z " fill="#6965F5" transform="translate(391,378)"/>
<path d="M0 0 C3.34139976 0.02999461 4.22721051 0.29795352 7.1875 2.1875 C10.32180405 5.41678296 10.63788997 7.7618388 10.61328125 12.2734375 C10.00965397 15.661539 7.8344052 17.23236899 5.25 19.3125 C4.92 19.6425 4.59 19.9725 4.25 20.3125 C1.31771337 20.60572866 -0.89491883 20.81254247 -3.75 20.3125 C-6.6875 17.875 -6.6875 17.875 -8.75 15.3125 C-9.08 14.9825 -9.41 14.6525 -9.75 14.3125 C-10.04322866 11.38021337 -10.25004247 9.16758117 -9.75 6.3125 C-7.3125 3.375 -7.3125 3.375 -4.75 1.3125 C-3.75 0.3125 -3.75 0.3125 0 0 Z " fill="#6966F6" transform="translate(332.75,492.6875)"/>
<path d="M0 0 C2.8100346 1.79363911 4.50940468 3.01880935 6 6 C6.3751455 10.97067782 6.15878799 14.05151502 3 18 C-0.21522137 20.32826375 -3.10830425 20.39711181 -7 20 C-10.49406769 18.33237678 -11.82670681 17.25993978 -14 14 C-14.67226891 7.05322129 -14.67226891 7.05322129 -12.125 3.0625 C-8.49059499 -0.46501074 -4.90782663 -0.7051475 0 0 Z " fill="#6966F6" transform="translate(284,467)"/>
<path d="M0 0 C3.0625 1.9375 3.0625 1.9375 5 5 C5.69005003 8.15369971 5.73568899 10.8519355 5 14 C2.5625 17 2.5625 17 0 19 C-0.33 19.33 -0.66 19.66 -1 20 C-5.43946252 20.52228971 -7.51823656 20.29441099 -11.375 17.9375 C-14.51996441 14.41813506 -15.0822804 12.68998307 -15 8 C-12.11715652 0.36046479 -7.6980495 -1.2672796 0 0 Z " fill="#6A67F7" transform="translate(370,467)"/>
</svg>
