<?xml version="1.0" encoding="UTF-8"?>
<svg version="1.1" xmlns="http://www.w3.org/2000/svg" width="640" height="640">
<path d="M0 0 C211.2 0 422.4 0 640 0 C640 211.2 640 422.4 640 640 C428.8 640 217.6 640 0 640 C0 428.8 0 217.6 0 0 Z " fill="#FEFEFE" transform="translate(0,0)"/>
<path d="M0 0 C2.47509766 1.00292969 2.47509766 1.00292969 4.9140625 2.421875 C5.8309082 2.94724854 6.74775391 3.47262207 7.69238281 4.01391602 C8.66014648 4.58682373 9.62791016 5.15973145 10.625 5.75 C11.62885742 6.33257568 12.63271484 6.91515137 13.66699219 7.51538086 C15.75012494 8.72835874 17.82952792 9.94776325 19.90527344 11.17333984 C22.87898929 12.92857351 25.86391168 14.66315562 28.8515625 16.39453125 C30.65190053 17.44905591 32.45141918 18.50498106 34.25 19.5625 C35.08869629 20.05008789 35.92739258 20.53767578 36.79150391 21.04003906 C37.56671387 21.50249023 38.34192383 21.96494141 39.140625 22.44140625 C39.81641602 22.84045166 40.49220703 23.23949707 41.18847656 23.65063477 C43.48814068 25.3636056 44.67688531 26.41195532 46 29 C46.20665517 32.12262662 45.91663854 35.18989376 45.66796875 38.3046875 C43.53670825 57.68631877 43.53670825 57.68631877 49.24462891 75.3125 C54.78049004 80.12910883 61.10904404 82.75305762 68.046875 84.95996094 C71.69060305 86.24321834 74.70499432 88.09435076 77.88476562 90.26416016 C81.10745286 91.38525657 82.92015934 90.3215815 86 89 C88.05988599 87.92723036 90.09182883 86.79964164 92.09765625 85.62890625 C93.79438477 84.64374023 93.79438477 84.64374023 95.52539062 83.63867188 C96.70448445 82.94671233 97.88352043 82.25465419 99.0625 81.5625 C100.24515168 80.87384891 101.42809212 80.18569349 102.61132812 79.49804688 C108.64762596 76.03755923 108.64762596 76.03755923 114.49780273 72.28100586 C117.65235315 70.66602625 119.48931212 70.55861973 123 71 C126.01342773 72.32592773 126.01342773 72.32592773 129.18359375 74.18359375 C129.75671295 74.51466629 130.32983215 74.84573883 130.9203186 75.18684387 C132.76703096 76.25785959 134.60226972 77.34694665 136.4375 78.4375 C137.70118217 79.17706338 138.96542575 79.91566831 140.23022461 80.65332031 C142.70844167 82.10171398 145.18191075 83.55771818 147.65136719 85.02099609 C150.44800333 86.67377625 153.25410036 88.30672296 156.0703125 89.92578125 C166.54831275 96.01656728 166.54831275 96.01656728 169 100 C169.38768005 102.4594574 169.38768005 102.4594574 169.40405273 105.23999023 C169.42307899 106.80697914 169.42307899 106.80697914 169.44248962 108.40562439 C169.43808617 110.09009422 169.43808617 110.09009422 169.43359375 111.80859375 C169.4388356 112.96746597 169.44407745 114.1263382 169.44947815 115.32032776 C169.4559003 117.77059122 169.45455889 120.2208855 169.44604492 122.67114258 C169.43753972 126.4199924 169.46628867 130.16731653 169.49804688 133.91601562 C169.49965908 136.29687454 169.499081 138.67773616 169.49609375 141.05859375 C169.50732773 142.17954941 169.51856171 143.30050507 169.53013611 144.45542908 C169.46111754 152.16450312 169.46111754 152.16450312 167.33349609 156.01953125 C164.72659681 158.23204087 162.14895935 159.94944519 159.16796875 161.62890625 C158.03939453 162.27150391 156.91082031 162.91410156 155.74804688 163.57617188 C154.56134128 164.23853818 153.37449125 164.90064575 152.1875 165.5625 C151.01183456 166.22757036 149.83669916 166.89357861 148.66210938 167.56054688 C146.42542329 168.82719608 144.18580613 170.08868769 141.94287109 171.34423828 C139.5459117 172.69285107 137.17066834 174.06967324 134.80078125 175.46484375 C132 177 132 177 130 177 C130 190.53 130 204.06 130 218 C131.65 218.66 133.3 219.32 135 220 C139.06918064 222.17165882 143.06430152 224.47301457 147.06542969 226.76708984 C148.99101089 227.86985202 150.92104451 228.96450243 152.8515625 230.05859375 C154.08882021 230.76513745 155.32580846 231.47215327 156.5625 232.1796875 C157.67753906 232.81632324 158.79257812 233.45295898 159.94140625 234.10888672 C167.34246101 238.68492201 167.34246101 238.68492201 169 242 C169.11065314 243.66835563 169.15915111 245.34101362 169.17700195 247.01293945 C169.18983719 248.05774979 169.20267242 249.10256012 169.21589661 250.17903137 C169.22697701 251.87898506 169.22697701 251.87898506 169.23828125 253.61328125 C169.246353 254.77498337 169.25442474 255.93668549 169.26274109 257.1335907 C169.27659026 259.5957998 169.28730867 262.05802816 169.29516602 264.52026367 C169.31238191 268.2866654 169.35626257 272.05219032 169.40039062 275.81835938 C169.41051697 278.20832687 169.41903325 280.59830183 169.42578125 282.98828125 C169.44328934 284.11551102 169.46079742 285.24274078 169.47883606 286.40412903 C169.45727982 294.17220491 169.45727982 294.17220491 167.32470703 298.03271484 C164.78141221 300.18498009 162.2884656 301.8607071 159.37890625 303.48828125 C158.28441162 304.10880371 157.18991699 304.72932617 156.06225586 305.36865234 C154.89587622 306.01697168 153.72928729 306.6649146 152.5625 307.3125 C150.19828084 308.64057279 147.83733795 309.97441142 145.4765625 311.30859375 C144.35024414 311.94394043 143.22392578 312.57928711 142.06347656 313.23388672 C138.43099253 315.32803634 134.94024314 317.57188369 131.4375 319.875 C126.60034398 322.84369871 122.74059524 324.91588183 117 324 C114.6015625 322.91455078 114.6015625 322.91455078 112 321.4453125 C111.03368652 320.90084473 110.06737305 320.35637695 109.07177734 319.79541016 C105.97895922 317.98770196 102.9113793 316.14423095 99.8515625 314.28125 C98.82675781 313.65992188 97.80195313 313.03859375 96.74609375 312.3984375 C94.6343455 311.11394482 92.5303291 309.8166681 90.43359375 308.5078125 C89.41652344 307.89679688 88.39945312 307.28578125 87.3515625 306.65625 C86.44229004 306.09744141 85.53301758 305.53863281 84.59619141 304.96289062 C82.03199692 303.72713715 82.03199692 303.72713715 79.44213867 304.68505859 C78.63623291 305.11898926 77.83032715 305.55291992 77 306 C75.9011145 306.56678467 75.9011145 306.56678467 74.7800293 307.14501953 C74.05211182 307.55349121 73.32419434 307.96196289 72.57421875 308.3828125 C71.77822266 308.82753906 70.98222656 309.27226562 70.16210938 309.73046875 C68.93717773 310.42076172 68.93717773 310.42076172 67.6875 311.125 C66.85154297 311.59292969 66.01558594 312.06085938 65.15429688 312.54296875 C63.10133767 313.6926259 61.04997798 314.84503802 59 316 C59.68033001 319.6221819 61.20631911 322.38353377 63.03515625 325.56640625 C63.67179199 326.67838379 64.30842773 327.79036133 64.96435547 328.93603516 C65.66354683 330.14496676 66.36293343 331.35378547 67.0625 332.5625 C67.78294647 333.81545929 68.50315779 335.06855382 69.22314453 336.32177734 C74.20020728 344.96671357 79.272769 353.55352133 84.375 362.125 C88.91241069 369.74813558 93.42384204 377.37954193 97.75 385.125 C98.1320459 385.80449707 98.5140918 386.48399414 98.90771484 387.18408203 C99.97049986 389.10769881 100.99236396 391.04698797 102 393 C102.55965454 394.04305298 102.55965454 394.04305298 103.13061523 395.10717773 C106.08733737 401.04621849 106.66789722 406.22460091 106.5625 412.8125 C106.55154297 413.78227783 106.54058594 414.75205566 106.52929688 415.7512207 C106.29930074 423.37367596 105.04753268 429.43509944 101 436 C100.43023437 436.95003906 99.86046875 437.90007812 99.2734375 438.87890625 C92.26078318 449.48446371 82.1234896 456.63041797 69.71495247 459.53485584 C66.84664859 460.02627321 64.18121177 460.12879453 61.271698 460.13371277 C60.12798233 460.13797775 58.98426666 460.14224274 57.80589294 460.14663696 C56.56009964 460.14618378 55.31430634 460.14573059 54.03076172 460.14526367 C52.71146164 460.14862228 51.39216156 460.1519809 50.03288269 460.15544128 C46.41891443 460.16426323 42.80496986 460.16661873 39.19099188 460.16725707 C36.92899296 460.16796897 34.66700002 460.17010601 32.40500259 460.17275429 C24.50144317 460.18200402 16.59790059 460.18608992 8.69433594 460.18530273 C1.34799419 460.18470308 -5.99827386 460.19523368 -13.34459698 460.2110464 C-19.66668926 460.2241654 -25.9887576 460.22948476 -32.31086338 460.22884732 C-36.07992003 460.22859348 -39.84891126 460.23138129 -43.61795425 460.24202538 C-47.16877179 460.25177919 -50.71946237 460.2517362 -54.27028465 460.24450874 C-56.17776995 460.24298128 -58.08525544 460.25125985 -59.99272156 460.25994873 C-74.90149198 460.20606901 -88.07930434 457.46248241 -99.2578125 446.91015625 C-108.36340362 436.92667182 -112.17440457 426.06045477 -112.3125 412.8125 C-112.34150391 411.90435547 -112.37050781 410.99621094 -112.40039062 410.06054688 C-112.46206058 403.43339893 -111.1334078 398.80090778 -108 393 C-107.62029053 392.2670874 -107.24058105 391.5341748 -106.84936523 390.77905273 C-105.61767188 388.43881007 -104.34709102 386.12410699 -103.0625 383.8125 C-102.58651367 382.95156738 -102.11052734 382.09063477 -101.62011719 381.20361328 C-97.58304359 373.94970107 -93.38224341 366.79806134 -89.13696289 359.66455078 C-84.69945088 352.20554478 -80.33552902 344.70603523 -76 337.1875 C-75.37706055 336.10839355 -74.75412109 335.02928711 -74.11230469 333.91748047 C-70.6885246 327.97370164 -67.30717244 322.00949047 -64 316 C-64.6496875 315.77828125 -65.299375 315.5565625 -65.96875 315.328125 C-68.52190441 314.20947487 -70.6804454 313.01885376 -73.03125 311.546875 C-74.12373047 310.86625 -74.12373047 310.86625 -75.23828125 310.171875 C-76.75317556 309.21950621 -78.26100303 308.25580805 -79.76171875 307.28125 C-80.49003906 306.83265625 -81.21835938 306.3840625 -81.96875 305.921875 C-82.62294922 305.50518555 -83.27714844 305.08849609 -83.95117188 304.65917969 C-86.913227 303.70618292 -88.26605011 304.61979627 -91 306 C-92.7500395 306.92539151 -94.48381952 307.88196766 -96.203125 308.86328125 C-97.18410156 309.42080078 -98.16507812 309.97832031 -99.17578125 310.55273438 C-100.19027344 311.13345703 -101.20476562 311.71417969 -102.25 312.3125 C-105.23417439 314.01251676 -108.21863719 315.71173953 -111.20898438 317.40087891 C-112.98580249 318.41891238 -114.74944869 319.46055588 -116.49414062 320.53271484 C-117.25404297 320.98984863 -118.01394531 321.44698242 -118.796875 321.91796875 C-119.44495117 322.32168701 -120.09302734 322.72540527 -120.76074219 323.14135742 C-125.03699847 324.78108631 -128.7384603 324.524984 -132.92749023 322.78173828 C-133.87825439 322.21696777 -134.82901855 321.65219727 -135.80859375 321.0703125 C-136.87843506 320.44423096 -137.94827637 319.81814941 -139.05053711 319.1730957 C-140.16823486 318.49722412 -141.28593262 317.82135254 -142.4375 317.125 C-143.59907709 316.43540733 -144.7612723 315.74685481 -145.92407227 315.05932617 C-149.29477859 313.05938613 -152.64759264 311.03046881 -156 309 C-157.71874013 307.97263973 -159.43748896 306.94529402 -161.15625 305.91796875 C-162.58467965 305.05169528 -164.01188498 304.1833977 -165.4375 303.3125 C-166.07421631 302.92787598 -166.71093262 302.54325195 -167.36694336 302.14697266 C-170.64124153 300.10082112 -172.98273315 298.29781842 -175 295 C-175.38768005 292.5405426 -175.38768005 292.5405426 -175.40405273 289.76000977 C-175.41673691 288.71535049 -175.42942108 287.67069122 -175.44248962 286.59437561 C-175.43955399 285.47139572 -175.43661835 284.34841583 -175.43359375 283.19140625 C-175.4388356 282.03253403 -175.44407745 280.8736618 -175.44947815 279.67967224 C-175.4559003 277.22940878 -175.45455889 274.7791145 -175.44604492 272.32885742 C-175.43753972 268.5800076 -175.46628867 264.83268347 -175.49804688 261.08398438 C-175.49965908 258.70312546 -175.499081 256.32226384 -175.49609375 253.94140625 C-175.50732773 252.82045059 -175.51856171 251.69949493 -175.53013611 250.54457092 C-175.4610854 242.83190754 -175.4610854 242.83190754 -173.31762695 238.96459961 C-170.79119343 236.82299942 -168.33549744 235.20357311 -165.421875 233.625 C-164.34292969 233.03203125 -163.26398438 232.4390625 -162.15234375 231.828125 C-161.02957031 231.22484375 -159.90679687 230.6215625 -158.75 230 C-156.53546925 228.79348034 -154.32190579 227.58518331 -152.109375 226.375 C-151.06072266 225.80394531 -150.01207031 225.23289062 -148.93164062 224.64453125 C-146.33950146 223.19044652 -143.82910605 221.66656192 -141.328125 220.0625 C-138 218 -138 218 -136 218 C-136 204.47 -136 190.94 -136 177 C-138.97 176.01 -138.97 176.01 -142 175 C-143.8783082 174.03473519 -145.73000045 173.01627832 -147.5546875 171.953125 C-148.58207031 171.355 -149.60945313 170.756875 -150.66796875 170.140625 C-152.25544922 169.20476562 -152.25544922 169.20476562 -153.875 168.25 C-154.92558594 167.6415625 -155.97617188 167.033125 -157.05859375 166.40625 C-172.95131361 157.09737279 -172.95131361 157.09737279 -175 153 C-175.11065314 151.33164437 -175.15915111 149.65898638 -175.17700195 147.98706055 C-175.18983719 146.94225021 -175.20267242 145.89743988 -175.21589661 144.82096863 C-175.22328354 143.68766617 -175.23067047 142.55436371 -175.23828125 141.38671875 C-175.25038887 139.64416557 -175.25038887 139.64416557 -175.26274109 137.8664093 C-175.27659026 135.4042002 -175.28730867 132.94197184 -175.29516602 130.47973633 C-175.31238191 126.7133346 -175.35626257 122.94780968 -175.40039062 119.18164062 C-175.41051697 116.79167313 -175.41903325 114.40169817 -175.42578125 112.01171875 C-175.44328934 110.88448898 -175.46079742 109.75725922 -175.47883606 108.59587097 C-175.45726285 100.82167911 -175.45726285 100.82167911 -173.30224609 96.94921875 C-170.87174463 94.89141136 -168.54038266 93.31652708 -165.73828125 91.80078125 C-164.19491089 90.95314209 -164.19491089 90.95314209 -162.62036133 90.08837891 C-161.52876709 89.50233887 -160.43717285 88.91629883 -159.3125 88.3125 C-157.05103762 87.07873775 -154.79062437 85.8430506 -152.53125 84.60546875 C-151.42136719 83.99880371 -150.31148437 83.39213867 -149.16796875 82.76708984 C-146.33439376 81.18652451 -143.55031218 79.55360838 -140.78125 77.86328125 C-139.63402466 77.16368286 -139.63402466 77.16368286 -138.46362305 76.44995117 C-137.07064354 75.59196686 -135.68361343 74.72421572 -134.30395508 73.8449707 C-130.26837205 71.37473016 -127.6951354 70.5539331 -123 71 C-120.07495117 72.29760742 -120.07495117 72.29760742 -117.04296875 74.10546875 C-115.92986328 74.75966797 -114.81675781 75.41386719 -113.66992188 76.08789062 C-112.50885882 76.78733603 -111.34805285 77.48720836 -110.1875 78.1875 C-109.03913676 78.86906209 -107.89005298 79.54941167 -106.74023438 80.22851562 C-105.06477539 81.21948242 -105.06477539 81.21948242 -103.35546875 82.23046875 C-102.2679834 82.87161621 -101.18049805 83.51276367 -100.06005859 84.17333984 C-98.1506538 85.31313294 -96.25485443 86.47643188 -94.38134766 87.67431641 C-93.61226074 88.1491748 -92.84317383 88.6240332 -92.05078125 89.11328125 C-91.40407471 89.53005127 -90.75736816 89.94682129 -90.09106445 90.3762207 C-86.07689811 91.57367488 -82.72958797 89.38095554 -79.19506836 87.53540039 C-78.25284424 86.97844482 -77.31062012 86.42148926 -76.33984375 85.84765625 C-75.29892578 85.23599609 -74.25800781 84.62433594 -73.18554688 83.99414062 C-72.11369141 83.35669922 -71.04183594 82.71925781 -69.9375 82.0625 C-68.86177734 81.42892578 -67.78605469 80.79535156 -66.67773438 80.14257812 C-63.78124132 78.43485035 -60.88864827 76.72095854 -58 75 C-56.60793335 74.45049683 -56.60793335 74.45049683 -55.18774414 73.88989258 C-52.86235829 72.25864238 -52.86235829 72.25864238 -52.57017517 70.1098175 C-52.40439014 67.55185899 -52.41346528 65.03932736 -52.46875 62.4765625 C-52.46548706 61.53823578 -52.46222412 60.59990906 -52.4588623 59.63314819 C-52.44567691 55.61631658 -52.49044461 51.60058925 -52.52978516 47.58398438 C-52.55026526 44.65199593 -52.54142505 41.72107907 -52.53125 38.7890625 C-52.55086792 37.88370758 -52.57048584 36.97835266 -52.59069824 36.04556274 C-52.57221948 31.55941834 -52.50299906 29.63968189 -49.6496582 26.01098633 C-46.74795167 23.80870524 -43.8369096 21.8969312 -40.6875 20.0625 C-40.06593018 19.69769531 -39.44436035 19.33289063 -38.80395508 18.95703125 C-37.37785047 18.12167603 -35.94954559 17.29007026 -34.51953125 16.46142578 C-31.59123764 14.76290199 -28.67058296 13.05159073 -25.75 11.33984375 C-21.47495706 8.83718556 -17.19859562 6.3368472 -12.91796875 3.84375 C-12.01844482 3.31974609 -11.1189209 2.79574219 -10.19213867 2.25585938 C-6.47639673 0.12713941 -4.3394088 -0.29164663 0 0 Z " fill="#062B75" transform="translate(323,90)"/>
<path d="M0 0 C2.78615411 1.44208243 5.54566275 2.90542793 8.27880859 4.44628906 C9.35904297 5.0534375 10.43927734 5.66058594 11.55224609 6.28613281 C12.67115234 6.9190625 13.79005859 7.55199219 14.94287109 8.20410156 C16.05404297 8.82929688 17.16521484 9.45449219 18.31005859 10.09863281 C19.93427734 11.01322266 19.93427734 11.01322266 21.59130859 11.94628906 C23.15510254 12.82365723 23.15510254 12.82365723 24.75048828 13.71875 C26.41895453 14.67240714 28.07619231 15.64700551 29.70556641 16.66601562 C33.58529311 19.08684565 36.0237428 19.72467007 40.56787109 19.32910156 C43.4547806 18.1775775 43.4547806 18.1775775 46.27099609 16.47753906 C47.33447266 15.87296875 48.39794922 15.26839844 49.49365234 14.64550781 C50.59064453 14.00484375 51.68763672 13.36417969 52.81787109 12.70410156 C53.89939453 12.08664063 54.98091797 11.46917969 56.09521484 10.83300781 C62.33163281 7.26985052 62.33163281 7.26985052 68.41748047 3.45898438 C69.28695312 2.89276367 70.15642578 2.32654297 71.05224609 1.74316406 C72.18484863 0.97286865 72.18484863 0.97286865 73.34033203 0.18701172 C75.56787109 -0.67089844 75.56787109 -0.67089844 77.9909668 -0.01660156 C80.78459185 1.44227682 83.56402095 2.90599592 86.31396484 4.44628906 C87.94108398 5.35701172 87.94108398 5.35701172 89.60107422 6.28613281 C90.72449219 6.9190625 91.84791016 7.55199219 93.00537109 8.20410156 C94.12492188 8.82929688 95.24447266 9.45449219 96.39794922 10.09863281 C102.63455885 13.60001721 102.63455885 13.60001721 105.56787109 15.32910156 C106.66615234 15.86043701 107.76443359 16.39177246 108.89599609 16.93920898 C111.8442095 19.57627596 111.98287116 19.93753903 112.26147461 23.65112305 C112.26864782 25.41759755 112.24516678 27.18436914 112.19677734 28.95019531 C112.19862534 29.88710709 112.20047333 30.82401886 112.20237732 31.7893219 C112.20662956 34.78263627 112.17245149 37.77360338 112.13037109 40.76660156 C112.09356157 43.75587153 112.06585751 46.74366056 112.06907654 49.73316956 C112.07084298 51.59197301 112.04968916 53.45097547 112.00282288 55.30918884 C112.00424312 59.65587279 112.0729416 61.67465253 114.76000977 65.2277832 C117.44315734 67.23576957 120.08259806 69.0376483 122.98974609 70.70410156 C124.01583984 71.29707031 125.04193359 71.89003906 126.09912109 72.50097656 C127.16130859 73.10425781 128.22349609 73.70753906 129.31787109 74.32910156 C130.36458984 74.93238281 131.41130859 75.53566406 132.48974609 76.15722656 C138.48578833 79.60495085 144.52085598 82.96964872 150.56787109 86.32910156 C150.56787109 99.85910156 150.56787109 113.38910156 150.56787109 127.32910156 C138.25537109 134.39160156 138.25537109 134.39160156 134.44555664 136.5715332 C122.03049036 142.42640442 122.03049036 142.42640442 112.56787109 151.32910156 C112.49550828 152.68703498 112.48409298 154.04850949 112.50537109 155.40820312 C112.5144751 156.24957825 112.5235791 157.09095337 112.53295898 157.95782471 C112.54447998 158.86925232 112.55600098 159.78067993 112.56787109 160.71972656 C112.56902973 162.6455079 112.56764694 164.57129214 112.56396484 166.49707031 C112.55954782 169.53745172 112.56779773 172.57475778 112.61914062 175.61474609 C112.66448897 178.54711348 112.65246131 181.47468823 112.63037109 184.40722656 C112.65808594 185.31055725 112.68580078 186.21388794 112.71435547 187.14459229 C112.64037407 191.06551411 112.537438 193.39068925 109.63941956 196.19558716 C107.33914264 197.75071434 105.04021502 199.06863397 102.56787109 200.32910156 C101.1804526 201.10649988 99.79360823 201.88492512 98.40771484 202.66503906 C97.10952231 203.34965801 95.80876365 204.02943512 94.50537109 204.70410156 C93.83054687 205.05859375 93.15572266 205.41308594 92.46044922 205.77832031 C90.83190936 206.63301499 89.20023565 207.48173445 87.56787109 208.32910156 C77.12180076 197.38950435 78.2644293 183.7345201 78.41503906 169.47045898 C78.44969077 166.05326791 78.40203298 162.64271828 78.33205986 159.22626591 C78.27750498 155.93885046 78.29757299 152.65199793 78.31005859 149.36425781 C78.28354218 148.14545425 78.25702576 146.9266507 78.22970581 145.6709137 C78.30453811 142.27112499 78.45857053 139.54642 79.56787109 136.32910156 C81.97091696 134.18974623 84.18445394 132.94557428 87.13162231 131.6716156 C90.61067955 129.75445377 91.93617138 127.10726172 93.24047852 123.43579102 C94.00155232 118.5384712 93.83433072 113.53959696 93.86303711 108.59448242 C93.87454916 107.21449524 93.89498932 105.83455232 93.92456055 104.45483398 C94.11762187 95.43487974 94.22568313 89.40828046 87.97021484 82.58691406 C82.7009511 78.51201677 78.80332212 78.17402003 72.33618164 78.15209961 C71.0771402 78.14224281 71.0771402 78.14224281 69.79266357 78.13218689 C67.01330475 78.11246669 64.23399992 78.10079456 61.45458984 78.09082031 C60.50499704 78.08674479 59.55540424 78.08266926 58.5770359 78.07847023 C53.55160362 78.05761563 48.52619861 78.04331088 43.50073242 78.03393555 C38.31209399 78.02286824 33.12388406 77.98846284 27.93539715 77.94876385 C23.94364121 77.92261249 19.95198765 77.91424506 15.96015358 77.91065407 C14.04760657 77.90578483 12.13506423 77.89416124 10.22260094 77.87561607 C7.54397015 77.8512545 4.86645192 77.852184 2.18774414 77.85913086 C1.40051468 77.8463208 0.61328522 77.83351074 -0.19779968 77.8203125 C-6.16838126 77.87664645 -9.7264402 79.70053462 -14.07666016 83.92675781 C-19.23423232 90.39528478 -18.68307841 96.45486338 -18.72729492 104.3605957 C-18.73877975 105.78908216 -18.75917626 107.2175269 -18.78881836 108.64575195 C-19.05748614 120.09538958 -19.05748614 120.09538958 -14.43212891 130.32910156 C-12.73903077 132.18422971 -12.73903077 132.18422971 -10.86962891 133.26660156 C-10.00144531 133.83701172 -10.00144531 133.83701172 -9.11572266 134.41894531 C-7.27110337 135.4788741 -7.27110337 135.4788741 -4.43212891 136.32910156 C-4.24535811 143.79670397 -4.10391947 151.26405936 -4.01763153 158.73347759 C-3.97617887 162.20345736 -3.92012643 165.67181999 -3.82861328 169.14086914 C-3.11309442 196.95926113 -3.11309442 196.95926113 -10.69970703 206.55102539 C-11.27140625 207.13779053 -11.84310547 207.72455566 -12.43212891 208.32910156 C-34.12220155 196.63902892 -34.12220155 196.63902892 -36.43212891 194.32910156 C-36.53069817 191.21385435 -36.569274 188.11672381 -36.57275391 185.00097656 C-36.59108565 183.06737107 -36.6106563 181.133777 -36.63134766 179.20019531 C-36.660306 176.14091843 -36.68212838 173.082372 -36.68261719 170.02294922 C-36.68595296 167.07746013 -36.72051761 164.13367061 -36.76025391 161.18847656 C-36.7531842 160.27684753 -36.7461145 159.36521851 -36.73883057 158.42596436 C-36.82203088 154.08086627 -36.94532138 151.97571497 -39.61938477 148.42382812 C-42.37969462 146.36815079 -45.08585816 144.60025793 -48.10791016 142.95410156 C-49.18363281 142.36113281 -50.25935547 141.76816406 -51.36767578 141.15722656 C-52.48207031 140.55394531 -53.59646484 139.95066406 -54.74462891 139.32910156 C-56.95006929 138.12261869 -59.15451879 136.91432249 -61.35791016 135.70410156 C-62.33155518 135.17558594 -63.3052002 134.64707031 -64.30834961 134.10253906 C-65.33919678 133.51730469 -66.37004395 132.93207031 -67.43212891 132.32910156 C-68.48713089 131.83867119 -68.48713089 131.83867119 -69.56344604 131.33833313 C-75.01966231 128.53739772 -75.01966231 128.53739772 -76.12348938 125.30380249 C-76.36001375 122.78849875 -76.33300635 120.39561132 -76.21337891 117.87207031 C-76.20205933 116.96910721 -76.19073975 116.0661441 -76.17907715 115.13581848 C-76.13440132 112.26055845 -76.0340671 109.3903451 -75.93212891 106.51660156 C-75.89199 104.5641998 -75.85548993 102.6117196 -75.82275391 100.65917969 C-75.73469581 95.8805518 -75.59671849 91.10568116 -75.43212891 86.32910156 C-74.73240967 85.94165771 -74.03269043 85.55421387 -73.31176758 85.1550293 C-70.07908603 83.36241131 -66.8493556 81.56453741 -63.61962891 79.76660156 C-61.96930664 78.85297852 -61.96930664 78.85297852 -60.28564453 77.92089844 C-47.52573904 71.6871451 -47.52573904 71.6871451 -37.43212891 62.32910156 C-37.19336245 60.34561649 -37.19336245 60.34561649 -37.31958008 58.16821289 C-37.35271553 56.91594658 -37.35271553 56.91594658 -37.38652039 55.63838196 C-37.43036613 54.28839363 -37.43036613 54.28839363 -37.47509766 52.91113281 C-37.49865619 50.99775995 -37.51872699 49.08434155 -37.53564453 47.17089844 C-37.56825552 44.15769198 -37.6192895 41.15081489 -37.73022461 38.1394043 C-38.3057139 21.4392271 -38.3057139 21.4392271 -33.84472656 16.41503906 C-30.45952534 14.32690547 -27.11572443 12.81883011 -23.43212891 11.32910156 C-21.51501112 10.20580891 -19.61724108 9.04855354 -17.74462891 7.85253906 C-15.97497143 6.80107834 -14.20415484 5.75156578 -12.43212891 4.70410156 C-11.53107422 4.15109375 -10.63001953 3.59808594 -9.70166016 3.02832031 C-8.82896484 2.5165625 -7.95626953 2.00480469 -7.05712891 1.47753906 C-5.90083984 0.784104 -5.90083984 0.784104 -4.72119141 0.07666016 C-2.43212891 -0.67089844 -2.43212891 -0.67089844 0 0 Z " fill="#FCFDFD" transform="translate(282.43212890625,180.6708984375)"/>
<path d="M0 0 C14.52 0 29.04 0 44 0 C44.00257813 4.40859375 44.00515625 8.8171875 44.0078125 13.359375 C44.02666613 16.90597365 44.05148411 20.45242071 44.08029175 23.99894714 C44.10894527 27.72554112 44.12743599 31.45151097 44.12011719 35.17822266 C44.11346108 38.77730962 44.13635771 42.37517291 44.17855453 45.97400665 C44.19488752 47.99430669 44.1817149 50.01477738 44.16775513 52.03509521 C44.30814115 61.07774692 46.34197912 67.28745168 51 75 C51.77756905 76.36114426 51.77756905 76.36114426 52.57084656 77.74978638 C54.01252255 80.27187028 55.50100716 82.76159226 57 85.25 C58.14778741 87.17409038 59.29489917 89.09858394 60.44140625 91.0234375 C61.02809082 92.00666992 61.61477539 92.98990234 62.21923828 94.00292969 C65.15459877 98.94322107 68.04633712 103.90875446 70.9375 108.875 C71.51822266 109.87176758 72.09894531 110.86853516 72.69726562 111.89550781 C73.87634111 113.91947882 75.05521458 115.94356752 76.23388672 117.96777344 C78.57211195 121.9822547 80.91302879 125.99516225 83.25439453 130.0078125 C84.41340862 131.99450854 85.57194131 133.98148551 86.72998047 135.96875 C89.74919722 141.14892037 92.77657292 146.32408459 95.81640625 151.4921875 C96.75709961 153.09513672 96.75709961 153.09513672 97.71679688 154.73046875 C98.90689562 156.75804439 100.09942289 158.7841975 101.29492188 160.80859375 C112.58163254 180.06160672 112.58163254 180.06160672 111 191 C108.85345299 198.72277249 104.46966991 204.80230802 97.73196411 209.06997681 C91.82744554 211.94981783 85.77882027 211.54282016 79.33544922 211.48583984 C77.96470783 211.48798896 76.59396823 211.49187148 75.22323608 211.49734497 C71.52076394 211.50699112 67.8187783 211.49179603 64.11636496 211.47143888 C60.23278503 211.45379673 56.34921852 211.45739432 52.46560669 211.4581604 C45.94752928 211.45629095 39.42963879 211.43897339 32.91162109 211.41162109 C25.38389639 211.3801477 17.85637602 211.36962604 10.32859027 211.3710922 C2.29936067 211.37244463 -5.72979057 211.35855707 -13.75899649 211.34019899 C-16.06690489 211.33594378 -18.37480059 211.33451767 -20.68271255 211.33372116 C-24.31238359 211.33170721 -27.94188417 211.3194565 -31.57149887 211.29938889 C-33.53356937 211.29079313 -35.49567484 211.29187908 -37.45776367 211.29327393 C-38.63243195 211.28474396 -39.80710022 211.27621399 -41.0173645 211.26742554 C-42.54209476 211.262398 -42.54209476 211.262398 -44.09762764 211.25726891 C-50.63402232 210.67787698 -56.23001985 208.08654931 -60.640625 203.171875 C-65.80212341 196.60725081 -67.20453544 191.25576687 -67.36328125 182.9765625 C-66.29282584 174.20573429 -61.23950288 167.0211648 -56.75 159.625 C-55.29242516 157.19979984 -53.83974205 154.77167911 -52.38671875 152.34375 C-52.01792099 151.72887726 -51.64912323 151.11400452 -51.26914978 150.48049927 C-47.6287743 144.40302787 -44.08814442 138.26965397 -40.5625 132.125 C-35.2314325 122.84878715 -29.85376885 113.60159804 -24.4375 104.375 C-23.72532072 103.16114518 -23.01316239 101.94727806 -22.30102539 100.73339844 C-19.50350443 95.96569313 -16.70508544 91.19851937 -13.90283203 86.43359375 C-11.93222735 83.0824828 -9.96604143 79.7287903 -8 76.375 C-7.10945923 74.86365479 -7.10945923 74.86365479 -6.20092773 73.32177734 C-5.66024658 72.3983252 -5.11956543 71.47487305 -4.5625 70.5234375 C-4.08941406 69.71825684 -3.61632812 68.91307617 -3.12890625 68.08349609 C-1.05480926 64.2555671 -0.85458806 61.16408837 -0.79467773 56.8762207 C-0.77473251 55.61513992 -0.75478729 54.35405914 -0.73423767 53.05476379 C-0.71725467 51.67843753 -0.70037581 50.30210998 -0.68359375 48.92578125 C-0.66301803 47.51758725 -0.6420214 46.10939935 -0.62062073 44.70121765 C-0.56546378 40.99739519 -0.51602646 37.29351759 -0.46777344 33.58959961 C-0.41751179 29.80903227 -0.36190226 26.02854389 -0.30664062 22.24804688 C-0.19863139 14.83209179 -0.09955908 7.41609266 0 0 Z " fill="#FEFEFE" transform="translate(298,318)"/>
<path d="M0 0 C0.83921494 -0.0049649 1.67842987 -0.00992981 2.54307556 -0.01504517 C5.32787895 -0.0296859 8.11262533 -0.03647275 10.89746094 -0.04199219 C12.83079022 -0.04774305 14.76411949 -0.05350079 16.69744873 -0.05926514 C20.75614691 -0.06978123 24.81482526 -0.07561959 28.87353516 -0.07910156 C34.06997103 -0.08458079 39.26614415 -0.10859404 44.46249771 -0.13707352 C48.45854451 -0.15571601 52.45452831 -0.16090641 56.45061493 -0.16243744 C58.36593814 -0.16546198 60.2812603 -0.1734838 62.19654083 -0.18662262 C64.87992691 -0.20371313 67.56267504 -0.20179531 70.24609375 -0.1953125 C71.03489426 -0.20452728 71.82369476 -0.21374207 72.63639832 -0.22323608 C78.42862383 -0.17949013 82.60112184 1.03874221 86.96386719 5.09863281 C87.53492188 5.77925781 88.10597656 6.45988281 88.69433594 7.16113281 C89.27828125 7.84175781 89.86222656 8.52238281 90.46386719 9.22363281 C94.17006592 14.28775009 93.10514097 20.83014541 93.12207031 26.8203125 C93.13173753 28.89006331 93.16275534 30.95880403 93.19433594 33.02832031 C93.20207031 35.00445312 93.20207031 35.00445312 93.20996094 37.02050781 C93.21930664 38.2215918 93.22865234 39.42267578 93.23828125 40.66015625 C92.56471224 47.27589571 89.97249305 51.79771243 84.88183594 56.16113281 C80.43356008 59.16113281 80.43356008 59.16113281 77.88183594 59.16113281 C77.85014728 66.64685094 77.8567888 74.13174201 77.91030216 81.61732101 C77.93400062 85.0946273 77.94525287 88.57098277 77.92651367 92.04833984 C77.90546834 96.06065489 77.94133963 100.07081542 77.97949219 104.08300781 C77.95810936 105.92593414 77.95810936 105.92593414 77.93629456 107.80609131 C78.08625459 116.88675071 80.67570473 122.76586562 85.88183594 130.16113281 C97.93653601 123.7618014 97.93653601 123.7618014 109.88183594 117.16113281 C109.89601563 117.825 109.91019531 118.48886719 109.92480469 119.17285156 C110.23613338 125.1234152 110.23613338 125.1234152 113.25683594 130.16113281 C115.08691721 131.55548045 116.96750486 132.8849121 118.88183594 134.16113281 C118.88183594 134.82113281 118.88183594 135.48113281 118.88183594 136.16113281 C111.95183594 140.12113281 105.02183594 144.08113281 97.88183594 148.16113281 C98.83058369 151.95612381 99.98733107 154.36919451 101.91699219 157.72753906 C102.55362793 158.8395166 103.19026367 159.95149414 103.84619141 161.09716797 C104.54538277 162.30609958 105.24476937 163.51491828 105.94433594 164.72363281 C106.66478241 165.97659211 107.38499372 167.22968664 108.10498047 168.48291016 C113.08204322 177.12784638 118.15460494 185.71465414 123.25683594 194.28613281 C127.79424663 201.90926839 132.30567797 209.54067474 136.63183594 217.28613281 C137.01388184 217.96562988 137.39592773 218.64512695 137.78955078 219.34521484 C138.8523358 221.26883162 139.8741999 223.20812078 140.88183594 225.16113281 C141.44149048 226.20418579 141.44149048 226.20418579 142.01245117 227.26831055 C144.96917331 233.2073513 145.54973316 238.38573372 145.44433594 244.97363281 C145.42790039 246.42829956 145.42790039 246.42829956 145.41113281 247.91235352 C145.18113668 255.53480878 143.92936862 261.59623225 139.88183594 268.16113281 C139.31207031 269.11117188 138.74230469 270.06121094 138.15527344 271.04003906 C131.14261912 281.64559652 121.00532554 288.79155079 108.59678841 291.69598866 C105.72848453 292.18740602 103.06304771 292.28992734 100.15353394 292.29484558 C99.00981827 292.29911057 97.8661026 292.30337555 96.68772888 292.30776978 C95.44193558 292.30731659 94.19614227 292.3068634 92.91259766 292.30639648 C91.59329758 292.3097551 90.2739975 292.31311371 88.91471863 292.3165741 C85.30075037 292.32539604 81.6868058 292.32775154 78.07282782 292.32838988 C75.8108289 292.32910178 73.54883596 292.33123882 71.28683853 292.3338871 C63.38327911 292.34313683 55.47973653 292.34722274 47.57617188 292.34643555 C40.22983013 292.3458359 32.88356208 292.35636649 25.53723896 292.37217921 C19.21514667 292.38529822 12.89307834 292.39061757 6.57097256 292.38998014 C2.80191591 292.38972629 -0.96707532 292.39251411 -4.73611832 292.40315819 C-8.28693585 292.412912 -11.83762644 292.41286902 -15.38844872 292.40564156 C-17.29593402 292.40411409 -19.2034195 292.41239266 -21.11088562 292.42108154 C-36.01965604 292.36720182 -49.19746841 289.62361523 -60.37597656 279.07128906 C-69.48156768 269.08780463 -73.29256863 258.22158759 -73.43066406 244.97363281 C-73.45966797 244.06548828 -73.48867187 243.15734375 -73.51855469 242.22167969 C-73.58022464 235.59453174 -72.25157186 230.9620406 -69.11816406 225.16113281 C-68.73845459 224.42822021 -68.35874512 223.69530762 -67.9675293 222.94018555 C-66.73583594 220.59994289 -65.46525508 218.28523981 -64.18066406 215.97363281 C-63.70467773 215.1127002 -63.22869141 214.25176758 -62.73828125 213.36474609 C-58.70120765 206.11083388 -54.50040747 198.95919416 -50.25512695 191.82568359 C-45.81761495 184.36667759 -41.45369308 176.86716804 -37.11816406 169.34863281 C-36.49522461 168.26952637 -35.87228516 167.19041992 -35.23046875 166.07861328 C-31.80668867 160.13483446 -28.4253365 154.17062328 -25.11816406 148.16113281 C-26.08302734 147.82082031 -26.08302734 147.82082031 -27.06738281 147.47363281 C-31.21786533 145.6880219 -35.03759231 143.44541632 -38.93066406 141.16113281 C-39.71892578 140.70996094 -40.5071875 140.25878906 -41.31933594 139.79394531 C-42.43598633 139.14039063 -42.43598633 139.14039063 -43.57519531 138.47363281 C-44.25557861 138.07789063 -44.93596191 137.68214844 -45.63696289 137.27441406 C-46.12575928 136.90703125 -46.61455566 136.53964844 -47.11816406 136.16113281 C-47.11816406 135.50113281 -47.11816406 134.84113281 -47.11816406 134.16113281 C-45.62207031 132.94238281 -45.62207031 132.94238281 -43.68066406 131.66113281 C-40.8928456 129.87459652 -40.8928456 129.87459652 -39.11816406 127.16113281 C-38.89194325 125.4574946 -38.70927933 123.74784581 -38.55566406 122.03613281 C-38.471875 121.12605469 -38.38808594 120.21597656 -38.30175781 119.27832031 C-38.21087891 118.2303125 -38.21087891 118.2303125 -38.11816406 117.16113281 C-37.22355469 117.680625 -36.32894531 118.20011719 -35.40722656 118.73535156 C-28.41336405 122.77616373 -21.39349242 126.64265939 -14.11816406 130.16113281 C-7.95143946 121.40135049 -6.0924924 114.71229715 -6.21582031 104.08300781 C-6.2035289 102.79042053 -6.19123749 101.49783325 -6.17857361 100.16607666 C-6.14668721 96.77261211 -6.15566281 93.38051488 -6.1739502 89.98699951 C-6.18520493 86.50713816 -6.15671224 83.02760897 -6.13183594 79.54785156 C-6.0889753 72.7520955 -6.08939589 65.95695395 -6.11816406 59.16113281 C-6.88 59.03867187 -7.64183594 58.91621094 -8.42675781 58.79003906 C-13.66378576 57.56629233 -16.39857549 54.23463881 -19.27050781 49.95019531 C-22.03721589 44.18023518 -21.71599732 37.96032089 -21.63964844 31.69750977 C-21.61816708 29.59892727 -21.63953458 27.50375297 -21.66503906 25.40527344 C-21.68381132 16.93280987 -21.22502345 11.51059149 -15.26660156 5.20019531 C-14.68136719 4.73355469 -14.09613281 4.26691406 -13.49316406 3.78613281 C-12.90277344 3.30402344 -12.31238281 2.82191406 -11.70410156 2.32519531 C-8.00077691 -0.3930085 -4.42135396 0.00620212 0 0 Z M13.88183594 60.16113281 C13.87925781 64.56972656 13.87667969 68.97832031 13.87402344 73.52050781 C13.85516981 77.06710646 13.83035183 80.61355353 13.80154419 84.16007996 C13.77289067 87.88667393 13.75439995 91.61264379 13.76171875 95.33935547 C13.76837486 98.93844243 13.74547823 102.53630573 13.7032814 106.13513947 C13.68694842 108.15543951 13.70012104 110.17591019 13.71408081 112.19622803 C13.57353039 121.24946909 11.54807701 127.43821321 6.88183594 135.16113281 C6.25092041 136.29244629 5.62000488 137.42375977 4.9699707 138.58935547 C4.42655029 139.49218262 3.88312988 140.39500977 3.32324219 141.32519531 C2.69812744 142.37046387 2.0730127 143.41573242 1.42895508 144.49267578 C0.77403076 145.5795166 0.11910645 146.66635742 -0.55566406 147.78613281 C-1.9853607 150.17520097 -3.4113683 152.56646103 -4.83691406 154.95800781 C-5.19643661 155.56051361 -5.55595917 156.16301941 -5.92637634 156.78378296 C-9.53031601 162.83290655 -13.04922789 168.93004073 -16.55566406 175.03613281 C-21.58646324 183.79037872 -26.65666778 192.51991658 -31.76907349 201.22665405 C-32.85600252 203.07791918 -33.94216688 204.9296307 -35.02807617 206.78149414 C-40.47440113 216.06854925 -40.47440113 216.06854925 -42.92089844 220.22070312 C-44.4909829 222.88583488 -46.05527973 225.55427472 -47.61816406 228.22363281 C-48.06901367 228.98474365 -48.51986328 229.74585449 -48.984375 230.5300293 C-49.59200684 231.57139038 -49.59200684 231.57139038 -50.21191406 232.63378906 C-50.55931641 233.22426025 -50.90671875 233.81473145 -51.26464844 234.4230957 C-54.30003846 240.60414306 -54.13857235 248.89545069 -52.05566406 255.34863281 C-49.36676551 261.54202001 -44.31993661 267.38665562 -38.11816406 270.16113281 C-34.45289703 271.05524508 -31.02940963 271.29437546 -27.26251221 271.31503296 C-26.09066376 271.32363342 -24.91881531 271.33223389 -23.7114563 271.34109497 C-22.43446869 271.34535492 -21.15748108 271.34961487 -19.84179688 271.35400391 C-18.47636714 271.36191207 -17.11093945 271.37018146 -15.74551392 271.37878418 C-11.27079236 271.40491816 -6.79606185 271.42030158 -2.32128906 271.43457031 C-0.77710719 271.43993324 0.76707464 271.44531075 2.31125641 271.45070267 C8.7366238 271.47231731 15.16198876 271.4910525 21.58738327 271.50232506 C30.77733411 271.51855755 39.9668618 271.5517342 49.15665317 271.60872591 C55.62902789 271.64748938 62.10128972 271.6669652 68.57377744 271.67224562 C72.43459863 271.67588988 76.2949676 271.68781193 80.15566254 271.72034836 C83.79036034 271.75054325 87.42433496 271.75670095 91.05913162 271.7449646 C93.01716154 271.74464061 94.9751476 271.76902902 96.93301392 271.79434204 C105.73289248 271.73247076 111.80151522 270.07796823 118.22167969 263.91503906 C124.04699612 255.92481286 126.34601155 249.15058904 124.88183594 239.16113281 C123.10592382 234.17106988 120.55011768 229.71253708 117.88183594 225.16113281 C117.42583008 224.37480469 116.96982422 223.58847656 116.5 222.77832031 C113.83207698 218.18970321 111.12955663 213.62274159 108.40527344 209.06738281 C104.87586606 203.16478703 101.40388805 197.22987592 97.94433594 191.28613281 C97.06986816 189.78530151 97.06986816 189.78530151 96.17773438 188.25415039 C94.99650652 186.22670131 93.81551675 184.19911348 92.63476562 182.17138672 C89.78127464 177.27117171 86.925545 172.37226387 84.06933594 167.47363281 C83.50907715 166.51191162 82.94881836 165.55019043 82.37158203 164.55932617 C79.01439592 158.80085215 75.64169521 153.05180031 72.25683594 147.30957031 C71.08014268 145.31099063 69.90364851 143.31229386 68.72720337 141.31356812 C67.95967535 140.01105035 67.19111184 138.70914217 66.42147827 137.40786743 C65.3471666 135.59140847 64.27629228 133.77296301 63.20605469 131.95410156 C62.58819092 130.90762451 61.97032715 129.86114746 61.33374023 128.78295898 C59.07240817 124.69948076 58.74085848 121.64260351 58.67651367 117.03735352 C58.64659584 115.14573235 58.64659584 115.14573235 58.61607361 113.21589661 C58.5990906 111.83957034 58.58221175 110.46324279 58.56542969 109.08691406 C58.54485397 107.67872007 58.52385733 106.27053216 58.50245667 104.86235046 C58.44729972 101.15852801 58.3978624 97.4546504 58.34960938 93.75073242 C58.29934773 89.97016509 58.2437382 86.1896767 58.18847656 82.40917969 C58.08046732 74.9932246 57.98139502 67.57722548 57.88183594 60.16113281 C43.36183594 60.16113281 28.84183594 60.16113281 13.88183594 60.16113281 Z " fill="#072C76" transform="translate(284.1181640625,257.8388671875)"/>
<path d="M0 0 C1.56923218 0.91954468 1.56923218 0.91954468 3.17016602 1.85766602 C3.74328522 2.18873856 4.31640442 2.5198111 4.90689087 2.86091614 C6.75360323 3.93193185 8.58884198 5.02101891 10.42407227 6.11157227 C11.68775444 6.85113564 12.95199802 7.58974057 14.21679688 8.32739258 C16.69501393 9.77578625 19.16848302 11.23179045 21.63793945 12.69506836 C24.43457559 14.34784851 27.24067262 15.98079522 30.05688477 17.59985352 C40.53488501 23.69063955 40.53488501 23.69063955 42.98657227 27.67407227 C43.37425232 30.13352966 43.37425232 30.13352966 43.390625 32.9140625 C43.40965126 34.48105141 43.40965126 34.48105141 43.42906189 36.07969666 C43.42612625 37.20267654 43.42319061 38.32565643 43.42016602 39.48266602 C43.42540787 40.64153824 43.43064972 41.80041046 43.43605042 42.99440002 C43.44247257 45.44466348 43.44113116 47.89495776 43.43261719 50.34521484 C43.42411199 54.09406467 43.45286094 57.8413888 43.48461914 61.59008789 C43.48623134 63.97094681 43.48565326 66.35180843 43.48266602 68.73266602 C43.49389999 69.85362167 43.50513397 70.97457733 43.51670837 72.12950134 C43.44768981 79.83857538 43.44768981 79.83857538 41.32006836 83.69360352 C38.71316908 85.90611314 36.13553162 87.62351745 33.15454102 89.30297852 C32.0259668 89.94557617 30.89739258 90.58817383 29.73461914 91.25024414 C28.54791355 91.91261044 27.36106351 92.57471801 26.17407227 93.23657227 C24.99840682 93.90164263 23.82327142 94.56765088 22.64868164 95.23461914 C20.41199555 96.50126835 18.17237839 97.76275995 15.92944336 99.01831055 C13.53248397 100.36692334 11.1572406 101.7437455 8.78735352 103.13891602 C5.98657227 104.67407227 5.98657227 104.67407227 3.98657227 104.67407227 C3.98657227 118.20407227 3.98657227 131.73407227 3.98657227 145.67407227 C5.63657227 146.33407227 7.28657227 146.99407227 8.98657227 147.67407227 C13.05575291 149.84573109 17.05087379 152.14708684 21.05200195 154.44116211 C22.97758316 155.54392429 24.90761677 156.63857469 26.83813477 157.73266602 C28.07539248 158.43920972 29.31238073 159.14622554 30.54907227 159.85375977 C31.66411133 160.49039551 32.77915039 161.12703125 33.92797852 161.78295898 C41.32903327 166.35899428 41.32903327 166.35899428 42.98657227 169.67407227 C43.0972254 171.3424279 43.14572337 173.01508589 43.16357422 174.68701172 C43.18282707 176.25422722 43.18282707 176.25422722 43.20246887 177.85310364 C43.2098558 178.9864061 43.21724274 180.11970856 43.22485352 181.28735352 C43.23292526 182.44905563 43.24099701 183.61075775 43.24931335 184.80766296 C43.26316253 187.26987206 43.27388094 189.73210043 43.28173828 192.19433594 C43.29895418 195.96073767 43.34283484 199.72626259 43.38696289 203.49243164 C43.39708923 205.88239913 43.40560552 208.2723741 43.41235352 210.66235352 C43.4298616 211.78958328 43.44736969 212.91681305 43.46540833 214.07820129 C43.44385208 221.84627718 43.44385208 221.84627718 41.3112793 225.70678711 C38.76798448 227.85905235 36.27503786 229.53477936 33.36547852 231.16235352 C32.27098389 231.78287598 31.17648926 232.40339844 30.04882812 233.04272461 C28.88244849 233.69104394 27.71585955 234.33898687 26.54907227 234.98657227 C24.18485311 236.31464506 21.82391021 237.64848369 19.46313477 238.98266602 C18.33681641 239.6180127 17.21049805 240.25335938 16.05004883 240.90795898 C12.41756479 243.00210861 8.9268154 245.24595596 5.42407227 247.54907227 C0.58767649 250.5173044 -3.27335597 252.59110404 -9.01342773 251.67407227 C-11.38330078 250.58862305 -11.38330078 250.58862305 -13.96264648 249.11938477 C-14.92944336 248.57362793 -15.89624023 248.02787109 -16.89233398 247.46557617 C-17.92229492 246.87437988 -18.95225586 246.28318359 -20.01342773 245.67407227 C-21.06916992 245.07900879 -22.12491211 244.48394531 -23.21264648 243.87084961 C-26.55028665 241.98597693 -29.87644211 240.08203793 -33.20092773 238.17407227 C-34.88605469 237.21694336 -34.88605469 237.21694336 -36.60522461 236.24047852 C-52.91278227 226.87536319 -52.91278227 226.87536319 -55.01342773 222.67407227 C-55.12913008 221.00586372 -55.18297681 219.33318631 -55.20629883 217.66113281 C-55.22236176 216.61632248 -55.23842468 215.57151215 -55.25497437 214.49504089 C-55.29936579 209.71463621 -55.34048654 204.9343711 -55.36352539 200.15380859 C-55.3800923 197.63092835 -55.40739157 195.10809518 -55.44555664 192.58544922 C-55.50025963 188.95198157 -55.52219023 185.31961473 -55.53686523 181.68579102 C-55.55953461 180.55856125 -55.58220398 179.43133148 -55.6055603 178.26994324 C-55.58440292 170.44354487 -55.58440292 170.44354487 -52.71069336 166.57080078 C-51.8205957 165.94488037 -50.93049805 165.31895996 -50.01342773 164.67407227 C-49.38968262 164.23095703 -48.7659375 163.7878418 -48.12329102 163.33129883 C-47.23746338 162.82808105 -47.23746338 162.82808105 -46.33374023 162.31469727 C-45.32162476 161.73051025 -45.32162476 161.73051025 -44.2890625 161.13452148 C-43.57935303 160.73507324 -42.86964355 160.335625 -42.13842773 159.92407227 C-40.62882884 159.05772813 -39.11972474 158.19052131 -37.61108398 157.32250977 C-36.84940918 156.88648438 -36.08773437 156.45045898 -35.30297852 156.0012207 C-33.06285008 154.70272015 -30.84564664 153.37284352 -28.63452148 152.02563477 C-27.6085083 151.40060059 -27.6085083 151.40060059 -26.56176758 150.76293945 C-25.25956891 149.96695571 -23.9590476 149.16821994 -22.66040039 148.36645508 C-18.23300795 145.67407227 -18.23300795 145.67407227 -16.01342773 145.67407227 C-16.01342773 132.14407227 -16.01342773 118.61407227 -16.01342773 104.67407227 C-17.99342773 104.01407227 -19.97342773 103.35407227 -22.01342773 102.67407227 C-24.04882812 101.65600586 -24.04882812 101.65600586 -25.86108398 100.57250977 C-26.88371338 99.96656982 -26.88371338 99.96656982 -27.92700195 99.34838867 C-28.99072021 98.70522705 -28.99072021 98.70522705 -30.07592773 98.04907227 C-30.81601074 97.60611816 -31.55609375 97.16316406 -32.31860352 96.70678711 C-33.8270637 95.80210053 -35.33391366 94.89472348 -36.83911133 93.98461914 C-38.85494417 92.76959661 -40.87954786 91.5710591 -42.90795898 90.37719727 C-44.06850477 89.68514174 -45.22868443 88.99247174 -46.38842773 88.29907227 C-47.40678711 87.69321289 -48.42514648 87.08735352 -49.47436523 86.46313477 C-52.18250838 84.55493544 -53.45379321 83.58867166 -55.01342773 80.67407227 C-55.23916282 77.54190517 -54.95396612 74.46067594 -54.71655273 71.33422852 C-52.84907186 52.17862623 -52.84907186 52.17862623 -58.14379883 34.47583008 C-63.42699202 29.91564049 -69.43361203 27.67729292 -76.0480957 25.68725586 C-80.73306121 24.08651431 -85.08945606 21.70166387 -89.01342773 18.67407227 C-89.01342773 18.01407227 -89.01342773 17.35407227 -89.01342773 16.67407227 C-87.51733398 15.45532227 -87.51733398 15.45532227 -85.57592773 14.17407227 C-82.78810927 12.38753597 -82.78810927 12.38753597 -81.01342773 9.67407227 C-80.78720692 7.97043405 -80.604543 6.26078526 -80.45092773 4.54907227 C-80.36713867 3.63899414 -80.28334961 2.72891602 -80.19702148 1.79125977 C-80.13643555 1.09258789 -80.07584961 0.39391602 -80.01342773 -0.32592773 C-71.06333954 4.33801924 -62.27425296 9.18801494 -53.65039062 14.43530273 C-52.97226318 14.84280762 -52.29413574 15.2503125 -51.59545898 15.67016602 C-50.99967041 16.03295654 -50.40388184 16.39574707 -49.79003906 16.76953125 C-47.81395831 17.77562981 -46.2169857 18.38222802 -44.01342773 18.67407227 C-42.11405875 18.06960237 -42.11405875 18.06960237 -40.28295898 16.93579102 C-39.57042969 16.53215332 -38.85790039 16.12851563 -38.1237793 15.71264648 C-37.36548828 15.26679199 -36.60719727 14.8209375 -35.82592773 14.36157227 C-35.03798828 13.91313965 -34.25004883 13.46470703 -33.43823242 13.00268555 C-29.33955529 10.65790271 -25.28807525 8.24259895 -21.25952148 5.77954102 C-20.50372803 5.32168213 -19.74793457 4.86382324 -18.96923828 4.39208984 C-17.52926699 3.51535691 -16.0966782 2.62634854 -14.67285156 1.72363281 C-14.01696045 1.32313721 -13.36106934 0.9226416 -12.68530273 0.51000977 C-12.11908203 0.15471191 -11.55286133 -0.20058594 -10.96948242 -0.56665039 C-6.96605962 -2.12065001 -3.87813539 -1.70640471 0 0 Z " fill="#062B76" transform="translate(449.013427734375,162.325927734375)"/>
<path d="M0 0 C2.7980957 1.21826172 2.7980957 1.21826172 5.67578125 2.9296875 C7.27764282 3.86880981 7.27764282 3.86880981 8.91186523 4.8269043 C10.03407471 5.50277588 11.15628418 6.17864746 12.3125 6.875 C13.47599001 7.56466224 14.64013883 8.25321422 15.80493164 8.94067383 C18.12458521 10.31167288 20.44007801 11.68933836 22.75292969 13.07177734 C25.61425871 14.77093348 28.49019821 16.436919 31.3828125 18.08203125 C32.16358154 18.52885254 32.94435059 18.97567383 33.7487793 19.43603516 C35.16664421 20.24674074 36.58722732 21.0527182 38.01098633 21.85302734 C41.48207304 23.86479697 43.91733289 25.56030956 46 29 C46.38768005 31.4594574 46.38768005 31.4594574 46.40405273 34.23999023 C46.41673691 35.28464951 46.42942108 36.32930878 46.44248962 37.40562439 C46.43955399 38.52860428 46.43661835 39.65158417 46.43359375 40.80859375 C46.4388356 41.96746597 46.44407745 43.1263382 46.44947815 44.32032776 C46.4559003 46.77059122 46.45455889 49.2208855 46.44604492 51.67114258 C46.43753972 55.4199924 46.46628867 59.16731653 46.49804688 62.91601562 C46.49965908 65.29687454 46.499081 67.67773616 46.49609375 70.05859375 C46.50732773 71.17954941 46.51856171 72.30050507 46.53013611 73.45542908 C46.46105572 81.17140804 46.46105572 81.17140804 44.3137207 85.03051758 C41.80624704 87.16492615 39.35440186 88.8348471 36.484375 90.453125 C35.40518799 91.06857178 34.32600098 91.68401855 33.21411133 92.31811523 C32.07095459 92.95563721 30.92779785 93.59315918 29.75 94.25 C28.57079929 94.914722 27.39200871 95.58017208 26.21362305 96.24633789 C23.88295216 97.56270351 21.54952615 98.87371026 19.21435547 100.18212891 C16.44511259 101.74826763 13.70302743 103.34790484 10.97265625 104.98046875 C10.25561523 105.40360352 9.53857422 105.82673828 8.79980469 106.26269531 C7.52186454 107.01815575 6.24978625 107.78366971 4.98535156 108.56152344 C0.78652638 111.00147819 -2.19754513 111.35859782 -7 111 C-9.92749023 109.78173828 -9.92749023 109.78173828 -12.80859375 108.0703125 C-13.87843506 107.44423096 -14.94827637 106.81814941 -16.05053711 106.1730957 C-17.16823486 105.49722412 -18.28593262 104.82135254 -19.4375 104.125 C-20.59907709 103.43540733 -21.7612723 102.74685481 -22.92407227 102.05932617 C-26.29477859 100.05938613 -29.64759264 98.03046881 -33 96 C-34.71874013 94.97263973 -36.43748896 93.94529402 -38.15625 92.91796875 C-39.58467965 92.05169528 -41.01188498 91.1833977 -42.4375 90.3125 C-43.07421631 89.92787598 -43.71093262 89.54325195 -44.36694336 89.14697266 C-47.64124153 87.10082112 -49.98273315 85.29781842 -52 82 C-52.38768005 79.5405426 -52.38768005 79.5405426 -52.40405273 76.76000977 C-52.41673691 75.71535049 -52.42942108 74.67069122 -52.44248962 73.59437561 C-52.43955399 72.47139572 -52.43661835 71.34841583 -52.43359375 70.19140625 C-52.4388356 69.03253403 -52.44407745 67.8736618 -52.44947815 66.67967224 C-52.4559003 64.22940878 -52.45455889 61.7791145 -52.44604492 59.32885742 C-52.43753972 55.5800076 -52.46628867 51.83268347 -52.49804688 48.08398438 C-52.49965908 45.70312546 -52.499081 43.32226384 -52.49609375 40.94140625 C-52.50732773 39.82045059 -52.51856171 38.69949493 -52.53013611 37.54457092 C-52.46102454 29.82510962 -52.46102454 29.82510962 -50.29785156 25.95361328 C-47.87002455 23.88949601 -45.54212557 22.31746987 -42.73828125 20.80078125 C-41.70936768 20.23568848 -40.6804541 19.6705957 -39.62036133 19.08837891 C-38.52876709 18.50233887 -37.43717285 17.91629883 -36.3125 17.3125 C-34.05103762 16.07873775 -31.79062437 14.8430506 -29.53125 13.60546875 C-28.42136719 12.99880371 -27.31148437 12.39213867 -26.16796875 11.76708984 C-23.33439376 10.18652451 -20.55031218 8.55360838 -17.78125 6.86328125 C-16.63402466 6.16368286 -16.63402466 6.16368286 -15.46362305 5.44995117 C-14.07064354 4.59196686 -12.68361343 3.72421572 -11.30395508 2.8449707 C-7.26966808 0.37552348 -4.6930845 -0.43195056 0 0 Z " fill="#062B75" transform="translate(200,303)"/>
<path d="M0 0 C3.01342773 1.32592773 3.01342773 1.32592773 6.18359375 3.18359375 C7.04327255 3.68020256 7.04327255 3.68020256 7.9203186 4.18684387 C9.76703096 5.25785959 11.60226972 6.34694665 13.4375 7.4375 C14.70118217 8.17706338 15.96542575 8.91566831 17.23022461 9.65332031 C19.70844167 11.10171398 22.18191075 12.55771818 24.65136719 14.02099609 C27.44800333 15.67377625 30.25410036 17.30672296 33.0703125 18.92578125 C43.54831275 25.01656728 43.54831275 25.01656728 46 29 C46.38768005 31.4594574 46.38768005 31.4594574 46.40405273 34.23999023 C46.41673691 35.28464951 46.42942108 36.32930878 46.44248962 37.40562439 C46.43955399 38.52860428 46.43661835 39.65158417 46.43359375 40.80859375 C46.4388356 41.96746597 46.44407745 43.1263382 46.44947815 44.32032776 C46.4559003 46.77059122 46.45455889 49.2208855 46.44604492 51.67114258 C46.43753972 55.4199924 46.46628867 59.16731653 46.49804688 62.91601562 C46.49965908 65.29687454 46.499081 67.67773616 46.49609375 70.05859375 C46.50732773 71.17954941 46.51856171 72.30050507 46.53013611 73.45542908 C46.46107982 81.16871597 46.46107982 81.16871597 44.3203125 85.02832031 C41.77997805 87.1869631 39.29005666 88.85981708 36.37890625 90.48828125 C35.28441162 91.10880371 34.18991699 91.72932617 33.06225586 92.36865234 C31.89587622 93.01697168 30.72928729 93.6649146 29.5625 94.3125 C27.19828084 95.64057279 24.83733795 96.97441142 22.4765625 98.30859375 C21.35024414 98.94394043 20.22392578 99.57928711 19.06347656 100.23388672 C15.43099253 102.32803634 11.94024314 104.57188369 8.4375 106.875 C3.60110422 109.84323213 -0.25992823 111.91703177 -6 111 C-8.36987305 109.91455078 -8.36987305 109.91455078 -10.94921875 108.4453125 C-11.91601562 107.89955566 -12.8828125 107.35379883 -13.87890625 106.79150391 C-14.90886719 106.20030762 -15.93882812 105.60911133 -17 105 C-18.05574219 104.40493652 -19.11148438 103.80987305 -20.19921875 103.19677734 C-23.53685892 101.31190466 -26.86301438 99.40796566 -30.1875 97.5 C-31.31091797 96.86191406 -32.43433594 96.22382813 -33.59179688 95.56640625 C-49.89935454 86.20129093 -49.89935454 86.20129093 -52 82 C-52.11570235 80.33179145 -52.16954908 78.65911404 -52.19287109 76.98706055 C-52.20893402 75.94225021 -52.22499695 74.89743988 -52.24154663 73.82096863 C-52.28593806 69.04056394 -52.3270588 64.26029884 -52.35009766 59.47973633 C-52.36666456 56.95685608 -52.39396384 54.43402291 -52.43212891 51.91137695 C-52.48683189 48.2779093 -52.50876249 44.64554247 -52.5234375 41.01171875 C-52.54610687 39.88448898 -52.56877625 38.75725922 -52.59213257 37.59587097 C-52.57096474 29.76560772 -52.57096474 29.76560772 -49.67749023 25.88574219 C-48.35213257 24.9522998 -48.35213257 24.9522998 -47 24 C-46.13507935 23.37460327 -46.13507935 23.37460327 -45.25268555 22.73657227 C-44.7194165 22.43291748 -44.18614746 22.1292627 -43.63671875 21.81640625 C-43.00870361 21.45272949 -42.38068848 21.08905273 -41.73364258 20.71435547 C-40.720802 20.14418701 -40.720802 20.14418701 -39.6875 19.5625 C-38.18449101 18.70253007 -36.68191345 17.8418058 -35.1796875 16.98046875 C-34.36081055 16.51302246 -33.54193359 16.04557617 -32.69824219 15.56396484 C-29.69611383 13.8238604 -26.72674554 12.03440873 -23.7578125 10.23828125 C-22.15740112 9.2790979 -22.15740112 9.2790979 -20.5246582 8.30053711 C-18.41078258 7.03336853 -16.30235488 5.75705963 -14.19995117 4.47094727 C-13.2226001 3.89014404 -12.24524902 3.30934082 -11.23828125 2.7109375 C-10.37243408 2.18806152 -9.50658691 1.66518555 -8.61450195 1.12646484 C-5.4257887 -0.2474004 -3.4473493 -0.41516761 0 0 Z " fill="#062B75" transform="translate(446,303)"/>
<path d="M0 0 C2.47509766 1.00292969 2.47509766 1.00292969 4.9140625 2.421875 C6.28933105 3.2099353 6.28933105 3.2099353 7.69238281 4.01391602 C8.66014648 4.58682373 9.62791016 5.15973145 10.625 5.75 C12.13078613 6.62386353 12.13078613 6.62386353 13.66699219 7.51538086 C15.75012494 8.72835874 17.82952792 9.94776325 19.90527344 11.17333984 C22.87898929 12.92857351 25.86391168 14.66315562 28.8515625 16.39453125 C30.65190053 17.44905591 32.45141918 18.50498106 34.25 19.5625 C35.50804443 20.29388184 35.50804443 20.29388184 36.79150391 21.04003906 C37.56671387 21.50249023 38.34192383 21.96494141 39.140625 22.44140625 C39.81641602 22.84045166 40.49220703 23.23949707 41.18847656 23.65063477 C44.10056204 25.81978522 45.81298017 27.81353892 46.38768005 31.4594574 C46.39578453 32.83582115 46.39578453 32.83582115 46.40405273 34.23999023 C46.41673691 35.28464951 46.42942108 36.32930878 46.44248962 37.40562439 C46.43955399 38.52860428 46.43661835 39.65158417 46.43359375 40.80859375 C46.4388356 41.96746597 46.44407745 43.1263382 46.44947815 44.32032776 C46.4559003 46.77059122 46.45455889 49.2208855 46.44604492 51.67114258 C46.43753972 55.4199924 46.46628867 59.16731653 46.49804688 62.91601562 C46.49965908 65.29687454 46.499081 67.67773616 46.49609375 70.05859375 C46.50732773 71.17954941 46.51856171 72.30050507 46.53013611 73.45542908 C46.46116013 81.15974541 46.46116013 81.15974541 44.34545898 85.01464844 C41.67767345 87.2728385 39.0310428 89.00245807 35.9765625 90.70703125 C35.39393646 91.03611984 34.81131042 91.36520844 34.21102905 91.70426941 C32.3543319 92.75017118 30.49006228 93.78160366 28.625 94.8125 C27.41221836 95.4918718 26.19997411 96.17220383 24.98828125 96.85351562 C23.17002386 97.87570134 21.35053286 98.89510103 19.52545166 99.90505981 C16.37509552 101.6500653 13.2577988 103.43262291 10.17480469 105.29443359 C9.55173431 105.66581955 8.92866394 106.03720551 8.28671265 106.41984558 C6.56382615 107.45018798 4.8487823 108.4936119 3.13427734 109.5378418 C-0.32875808 111.15336752 -2.23077272 111.49719589 -6 111 C-8.70629883 109.87353516 -8.70629883 109.87353516 -11.45703125 108.2890625 C-12.47966064 107.70825928 -13.50229004 107.12745605 -14.5559082 106.52905273 C-15.6305835 105.90071533 -16.70525879 105.27237793 -17.8125 104.625 C-18.91875732 103.98957275 -20.02501465 103.35414551 -21.16479492 102.69946289 C-23.39828413 101.41385815 -25.62855501 100.12264496 -27.85546875 98.82568359 C-30.65245711 97.20177995 -33.4620845 95.60449232 -36.28125 94.01953125 C-37.79215098 93.15970466 -39.30260456 92.29909116 -40.8125 91.4375 C-41.49223877 91.0573877 -42.17197754 90.67727539 -42.87231445 90.28564453 C-46.88303616 87.95590604 -49.63770084 86.00395553 -52 82 C-52.61108887 78.03393363 -52.5841842 74.1004119 -52.56640625 70.09375 C-52.57570412 68.35756409 -52.57570412 68.35756409 -52.58518982 66.58630371 C-52.59228572 64.14201701 -52.58911808 61.69768196 -52.57641602 59.25341797 C-52.56254855 55.51309353 -52.59663133 51.77526953 -52.63476562 48.03515625 C-52.6357168 45.65885355 -52.63385808 43.28254773 -52.62890625 40.90625 C-52.64216446 39.7884314 -52.65542267 38.67061279 -52.66908264 37.5189209 C-52.57602566 29.76300125 -52.57602566 29.76300125 -49.64355469 25.87866211 C-46.71469147 23.79724334 -43.7941322 21.87201472 -40.6875 20.0625 C-40.06593018 19.69769531 -39.44436035 19.33289063 -38.80395508 18.95703125 C-37.37785047 18.12167603 -35.94954559 17.29007026 -34.51953125 16.46142578 C-31.59123764 14.76290199 -28.67058296 13.05159073 -25.75 11.33984375 C-21.47495706 8.83718556 -17.19859562 6.3368472 -12.91796875 3.84375 C-12.01844482 3.31974609 -11.1189209 2.79574219 -10.19213867 2.25585938 C-6.47639673 0.12713941 -4.3394088 -0.29164663 0 0 Z " fill="#072B75" transform="translate(323,90)"/>
<path d="M0 0 C4.25190672 0.72454016 8.46259148 1.56498974 12.671875 2.50048828 C14.24752863 2.83855323 15.8287753 3.15137219 17.4140625 3.44091797 C31.30775375 6.04598508 31.30775375 6.04598508 35.62207031 10.77978516 C38.55526994 15.12377319 40.62671428 19.87305843 42.8046875 24.625 C49.59604767 38.11894439 62.02474138 51.72322608 74.09375 60.5625 C76 62 76 62 78.375 64.4375 C90.15651283 75.93850062 105.73832909 83.31867476 120.76953125 89.58984375 C124 91 124 91 127 93 C124.37305665 94.31347168 122.42789254 94.12889062 119.48492432 94.13371277 C117.72683441 94.14011024 117.72683441 94.14011024 115.93322754 94.14663696 C113.99449768 94.14595718 113.99449768 94.14595718 112.01660156 94.14526367 C110.64674793 94.14825467 109.27689513 94.15165706 107.90704346 94.15544128 C104.17960068 94.16429377 100.45218085 94.16661998 96.72472858 94.16725707 C93.61356035 94.16820568 90.50239747 94.17188362 87.3912313 94.17542917 C80.04890405 94.18357926 72.70658906 94.18601298 65.36425781 94.18530273 C57.79236936 94.18470249 50.22055228 94.19524234 42.64868188 94.2110464 C36.14838585 94.22413002 29.64811311 94.22948625 23.14780402 94.22884732 C19.26540353 94.22859248 15.38306638 94.23143576 11.50067902 94.24202538 C7.84650005 94.25171962 4.19244478 94.25177647 0.53826141 94.24450874 C-1.43820292 94.24296735 -3.41466727 94.25130131 -5.39111328 94.25994873 C-6.57445251 94.25575424 -7.75779175 94.25155975 -8.97698975 94.24723816 C-10.51340937 94.24805531 -10.51340937 94.24805531 -12.08086777 94.24888897 C-18.62506002 93.69092272 -24.22720157 91.08968968 -28.640625 86.171875 C-33.80212341 79.60725081 -35.20453544 74.25576687 -35.36328125 65.9765625 C-34.29283436 57.20580415 -29.23963843 50.0210465 -24.75 42.625 C-23.31324651 40.23496339 -21.88137095 37.84201459 -20.44921875 35.44921875 C-20.08372421 34.8399202 -19.71822968 34.23062164 -19.34165955 33.6028595 C-15.34107495 26.92389 -11.44555921 20.1852636 -7.5625 13.4375 C-6.91829102 12.32004395 -6.27408203 11.20258789 -5.61035156 10.05126953 C-2.70648651 5.07914532 -2.70648651 5.07914532 0 0 Z " fill="#92B1F3" transform="translate(266,435)"/>
<path d="M0 0 C2.19333708 2.82284226 4.07230494 5.70437802 5.86328125 8.796875 C6.4137915 9.7441748 6.96430176 10.69147461 7.53149414 11.66748047 C8.11922607 12.68471191 8.70695801 13.70194336 9.3125 14.75 C10.5675209 16.9141712 11.82273498 19.07823039 13.078125 21.2421875 C14.04588867 22.9123291 14.04588867 22.9123291 15.03320312 24.61621094 C16.96525461 27.94022206 18.90985295 31.25652247 20.859375 34.5703125 C21.48030029 35.62766602 22.10122559 36.68501953 22.7409668 37.77441406 C23.92245011 39.78551688 25.10607816 41.79536183 26.29223633 43.80371094 C37.58142794 63.0630217 37.58142794 63.0630217 36 74 C34.08839345 80.87751182 30.06327339 86.98076213 24.3125 91.25390625 C17.06721471 93.59148985 10.04193956 89.52235438 3.6875 86.375 C2.29047852 85.6934082 2.29047852 85.6934082 0.86523438 84.99804688 C-12.70069038 78.28628424 -25.36423113 69.83043353 -36 59 C-37.21830435 57.94564965 -38.44688986 56.903011 -39.6875 55.875 C-53.99080222 43.36630686 -63.98067821 27.5397305 -73 11 C-69.41452603 9.86084496 -66.16782544 9.95955089 -62.42578125 10.078125 C-47.73745586 10.40961179 -34.89668726 10.31122032 -21 5 C-18.47084452 4.19640291 -15.92908718 3.47441263 -13.375 2.75 C-12.31023437 2.43546875 -11.24546875 2.1209375 -10.1484375 1.796875 C-6.77927467 0.94413404 -3.44606423 0.43401313 0 0 Z " fill="#D1DBFC" transform="translate(373,435)"/>
<path d="M0 0 C2.89628834 1.42024264 5.62944182 3.05967415 8.375 4.75 C9.45007813 5.39582031 9.45007813 5.39582031 10.546875 6.0546875 C11.99261381 6.9263062 13.42619028 7.81841539 14.84692383 8.73022461 C16.96106567 10.05916276 16.96106567 10.05916276 19.28393555 10.86547852 C21.87665569 11.97342172 23.23582766 12.77814144 25 15 C26.08169372 19.7519216 26.19351697 24.28909289 26.09790039 29.14672852 C26.06258968 31.43169657 26.11783066 33.70222712 26.18164062 35.98632812 C26.26225612 46.42883731 26.26225612 46.42883731 23.26416016 50.16064453 C20.91785697 51.74461839 18.58974046 52.86222124 16 54 C14.36725139 54.99997886 12.74730321 56.0211495 11.140625 57.0625 C9.5122603 58.04472959 7.88204448 59.02389684 6.25 60 C5.42628906 60.51433594 4.60257813 61.02867187 3.75390625 61.55859375 C2.95339844 62.03425781 2.15289062 62.50992188 1.328125 63 C0.6155957 63.433125 -0.09693359 63.86625 -0.83105469 64.3125 C-3.88724624 65.28123429 -5.18232412 64.4368086 -8 63 C-11.9486961 60.92860062 -15.81059151 58.70240889 -19.6875 56.5 C-20.74517578 55.90574219 -21.80285156 55.31148438 -22.89257812 54.69921875 C-23.90126953 54.12816406 -24.90996094 53.55710937 -25.94921875 52.96875 C-26.87049561 52.44732422 -27.79177246 51.92589844 -28.7409668 51.38867188 C-31 50 -31 50 -33 48 C-34.47253704 38.14211818 -36.71623514 21.70951668 -31.71240234 12.67529297 C-28.39555708 9.40194731 -24.41520705 7.99788382 -20.01416016 6.6875 C-16.79555613 5.58888316 -14.26674367 3.75404485 -11.4375 1.875 C-7.12434667 -0.87807659 -4.94940086 -1.51822112 0 0 Z " fill="#FAC950" transform="translate(201,327)"/>
<path d="M0 0 C16.82022559 7.62970506 16.82022559 7.62970506 19.70581055 14.62481689 C21.06609245 19.65360331 21.18062251 24.66353569 21.0703125 29.84375 C21.06497498 30.58093262 21.05963745 31.31811523 21.05413818 32.07763672 C20.80886535 43.60258182 20.80886535 43.60258182 17.13476562 47.89794922 C14.81330012 49.47615646 12.49898168 50.62073669 9.9453125 51.78125 C8.31405256 52.78365547 6.69416757 53.80479775 5.0859375 54.84375 C3.4575728 55.82597959 1.82735698 56.80514684 0.1953125 57.78125 C-0.62839844 58.29558594 -1.45210938 58.80992187 -2.30078125 59.33984375 C-3.10128906 59.81550781 -3.90179688 60.29117188 -4.7265625 60.78125 C-5.4390918 61.214375 -6.15162109 61.6475 -6.88574219 62.09375 C-9.94990106 63.06500972 -11.23017347 62.2300401 -14.0546875 60.78125 C-15.97346841 59.73904793 -17.87351871 58.66192609 -19.7578125 57.55859375 C-21.35109375 56.62756836 -21.35109375 56.62756836 -22.9765625 55.67773438 C-24.07484375 55.03126953 -25.173125 54.38480469 -26.3046875 53.71875 C-27.4184375 53.06841797 -28.5321875 52.41808594 -29.6796875 51.74804688 C-37.91157723 46.92436027 -37.91157723 46.92436027 -39.0546875 45.78125 C-42.56471737 18.45443782 -42.56471737 18.45443782 -37.54296875 10.33789062 C-33.67031319 6.79908468 -29.11740553 5.08383163 -24.17041016 3.51953125 C-21.24340299 2.49815233 -18.8950838 0.86444234 -16.3671875 -0.90625 C-10.87620666 -4.63048015 -5.76653709 -2.34502793 0 0 Z " fill="#FA7C9F" transform="translate(453.0546875,329.21875)"/>
<path d="M0 0 C16.82022559 7.62970506 16.82022559 7.62970506 19.70581055 14.62481689 C21.06609245 19.65360331 21.18062251 24.66353569 21.0703125 29.84375 C21.06497498 30.58093262 21.05963745 31.31811523 21.05413818 32.07763672 C20.80879105 43.60607316 20.80879105 43.60607316 17.11499023 47.91772461 C14.79749325 49.49835556 12.50433773 50.63816885 9.9453125 51.78125 C8.40092591 52.70214158 6.8655483 53.6383203 5.33984375 54.58984375 C3.81474988 55.47005564 2.2874027 56.34637503 0.7578125 57.21875 C-0.00982422 57.67701172 -0.77746094 58.13527344 -1.56835938 58.60742188 C-2.32052734 59.03474609 -3.07269531 59.46207031 -3.84765625 59.90234375 C-4.84575317 60.48133423 -4.84575317 60.48133423 -5.86401367 61.07202148 C-9.94252392 62.3924352 -13.16982648 61.20782697 -16.9230957 59.3984375 C-18.37462036 58.53605469 -18.37462036 58.53605469 -19.85546875 57.65625 C-20.91443359 57.03234375 -21.97339844 56.4084375 -23.06445312 55.765625 C-24.15435547 55.11078125 -25.24425781 54.4559375 -26.3671875 53.78125 C-27.47642578 53.12640625 -28.58566406 52.4715625 -29.72851562 51.796875 C-37.85802397 46.97791353 -37.85802397 46.97791353 -39.0546875 45.78125 C-42.2435857 18.56931866 -42.2435857 18.56931866 -37.77148438 10.45214844 C-34.45500794 7.18113026 -30.46807992 5.77859352 -26.06884766 4.46875 C-22.85024363 3.37013316 -20.32143117 1.53529485 -17.4921875 -0.34375 C-11.20094571 -4.35943625 -6.64208202 -2.70107824 0 0 Z " fill="#FA8E02" transform="translate(330.0546875,116.21875)"/>
<path d="M0 0 C2.89628834 1.42024264 5.62944182 3.05967415 8.375 4.75 C9.45007813 5.39582031 9.45007813 5.39582031 10.546875 6.0546875 C11.99277689 6.92640452 13.42666959 7.81834955 14.84790039 8.72973633 C16.96056704 10.05760852 16.96056704 10.05760852 19.27514648 10.86987305 C21.85462295 11.97965116 23.22636975 12.80116175 25 15 C26.17354754 19.71269823 26.36107791 24.19600988 26.31762695 29.03686523 C26.31251992 31.3036581 26.41890376 33.54702446 26.53320312 35.81054688 C26.62546199 40.20842259 26.35348285 43.78061656 25 48 C21.13692687 51.77794225 16.89498591 53.8095974 12 56 C10.60991793 56.82857987 9.23209072 57.67884524 7.87890625 58.56640625 C6.78449219 59.22511719 5.69007813 59.88382813 4.5625 60.5625 C3.45003906 61.24441406 2.33757812 61.92632812 1.19140625 62.62890625 C-2.6128209 64.26328046 -4.03314686 63.97946613 -8 63 C-10.8684082 61.6171875 -10.8684082 61.6171875 -13.80078125 59.875 C-14.85974609 59.25109375 -15.91871094 58.6271875 -17.00976562 57.984375 C-18.09966797 57.32953125 -19.18957031 56.6746875 -20.3125 56 C-21.42173828 55.34515625 -22.53097656 54.6903125 -23.67382812 54.015625 C-31.80333647 49.19666353 -31.80333647 49.19666353 -33 48 C-36.1888982 20.78806866 -36.1888982 20.78806866 -31.71679688 12.67089844 C-28.40032044 9.39988026 -24.41339242 7.99734352 -20.01416016 6.6875 C-16.79555613 5.58888316 -14.26674367 3.75404485 -11.4375 1.875 C-7.12434667 -0.87807659 -4.94940086 -1.51822112 0 0 Z " fill="#AFD752" transform="translate(201,185)"/>
<path d="M0 0 C16.82022559 7.62970506 16.82022559 7.62970506 19.70581055 14.62481689 C21.06609245 19.65360331 21.18062251 24.66353569 21.0703125 29.84375 C21.06497498 30.58093262 21.05963745 31.31811523 21.05413818 32.07763672 C20.80879105 43.60607316 20.80879105 43.60607316 17.11499023 47.91772461 C14.79749325 49.49835556 12.50433773 50.63816885 9.9453125 51.78125 C8.40092591 52.70214158 6.8655483 53.6383203 5.33984375 54.58984375 C3.81474988 55.47005564 2.2874027 56.34637503 0.7578125 57.21875 C-0.00982422 57.67701172 -0.77746094 58.13527344 -1.56835938 58.60742188 C-2.32052734 59.03474609 -3.07269531 59.46207031 -3.84765625 59.90234375 C-4.84575317 60.48133423 -4.84575317 60.48133423 -5.86401367 61.07202148 C-9.94252392 62.3924352 -13.16982648 61.20782697 -16.9230957 59.3984375 C-18.37462036 58.53605469 -18.37462036 58.53605469 -19.85546875 57.65625 C-20.91443359 57.03234375 -21.97339844 56.4084375 -23.06445312 55.765625 C-24.15435547 55.11078125 -25.24425781 54.4559375 -26.3671875 53.78125 C-27.47642578 53.12640625 -28.58566406 52.4715625 -29.72851562 51.796875 C-37.85802397 46.97791353 -37.85802397 46.97791353 -39.0546875 45.78125 C-42.56471737 18.45443782 -42.56471737 18.45443782 -37.54296875 10.33789062 C-33.67031319 6.79908468 -29.11740553 5.08383163 -24.17041016 3.51953125 C-21.24340299 2.49815233 -18.8950838 0.86444234 -16.3671875 -0.90625 C-10.87620666 -4.63048015 -5.76653709 -2.34502793 0 0 Z " fill="#D0DAFB" transform="translate(453.0546875,187.21875)"/>
<path d="M0 0 C24.09 0 48.18 0 73 0 C73 6.27 73 12.54 73 19 C48.91 19 24.82 19 0 19 C0 12.73 0 6.46 0 0 Z " fill="#92B1F3" transform="translate(284,278)"/>
<path d="M0 0 C8.18449119 4.26498959 16.27829723 8.66011684 24.25 13.3125 C24.97630615 13.73257324 25.7026123 14.15264648 26.45092773 14.58544922 C27.47295288 15.18703857 27.47295288 15.18703857 28.515625 15.80078125 C29.11665039 16.15309814 29.71767578 16.50541504 30.33691406 16.8684082 C32.11704254 18.07963772 33.52720293 19.43494279 35 21 C34.43410156 21.33773437 33.86820312 21.67546875 33.28515625 22.0234375 C32.55167969 22.46945313 31.81820312 22.91546875 31.0625 23.375 C30.33160156 23.81585938 29.60070312 24.25671875 28.84765625 24.7109375 C26.86227728 25.8773984 26.86227728 25.8773984 26 28 C25.77377919 29.70363822 25.59111527 31.41328701 25.4375 33.125 C25.35371094 34.03507812 25.26992188 34.94515625 25.18359375 35.8828125 C25.09271484 36.93082031 25.09271484 36.93082031 25 38 C16.81330409 34.21753923 9.02970539 29.79889541 1.25 25.25 C0.24888184 24.67096924 -0.75223633 24.09193848 -1.78369141 23.49536133 C-2.71616699 22.94517334 -3.64864258 22.39498535 -4.609375 21.828125 C-5.45467773 21.3321582 -6.29998047 20.83619141 -7.17089844 20.32519531 C-7.77450195 19.88788086 -8.37810547 19.45056641 -9 19 C-9 18.34 -9 17.68 -9 17 C-7.50390625 15.78125 -7.50390625 15.78125 -5.5625 14.5 C-2.77468153 12.7134637 -2.77468153 12.7134637 -1 10 C-0.77377919 8.29636178 -0.59111527 6.58671299 -0.4375 4.875 C-0.35371094 3.96492187 -0.26992188 3.05484375 -0.18359375 2.1171875 C-0.12300781 1.41851562 -0.06242187 0.71984375 0 0 Z " fill="#6865F5" transform="translate(369,162)"/>
<path d="M0 0 C0.01417969 0.66386719 0.02835937 1.32773438 0.04296875 2.01171875 C0.35429744 7.96228239 0.35429744 7.96228239 3.375 13 C5.20508127 14.39434763 7.08566893 15.72377928 9 17 C9 17.66 9 18.32 9 19 C5.12344166 21.22582818 1.24563681 23.44946451 -2.63330078 25.67114258 C-3.95069676 26.42608572 -5.26775971 27.18161033 -6.58447266 27.93774414 C-8.48511344 29.02906589 -10.38697109 30.11824024 -12.2890625 31.20703125 C-14.00150146 32.18893433 -14.00150146 32.18893433 -15.74853516 33.19067383 C-18.79360694 34.8851495 -21.87039999 36.46836132 -25 38 C-25.01417969 37.33613281 -25.02835938 36.67226562 -25.04296875 35.98828125 C-25.34766167 30.07692517 -25.34766167 30.07692517 -28.3125 25.0625 C-30.53100894 23.35992337 -32.76112682 21.6755746 -35 20 C-31.28338802 17.79387248 -27.56633049 15.58849808 -23.84887695 13.38378906 C-22.58703858 12.63529278 -21.32531742 11.88659885 -20.0637207 11.13769531 C-18.23941112 10.05480478 -16.41466651 8.97265047 -14.58984375 7.890625 C-12.94810181 6.91657715 -12.94810181 6.91657715 -11.27319336 5.92285156 C-1.19095988 0 -1.19095988 0 0 0 Z " fill="#6865F5" transform="translate(271,162)"/>
<path d="M0 0 C3.465 1.485 3.465 1.485 7 3 C11.67716115 3.29940305 15.67843795 1.72862482 20 0 C20 12.87 20 25.74 20 39 C15 37 15 37 13 36 C8.272765 35.57980133 5.91003176 36.39331216 2 39 C1.34 39 0.68 39 0 39 C0 26.13 0 13.26 0 0 Z " fill="#6763F6" transform="translate(187,268)"/>
<path d="M0 0 C3.465 1.485 3.465 1.485 7 3 C12.57528672 3.69691084 14.32259453 2.43317377 20 0 C20 12.87 20 25.74 20 39 C15 37 15 37 13 36 C8.272765 35.57980133 5.91003176 36.39331216 2 39 C1.34 39 0.68 39 0 39 C0 26.13 0 13.26 0 0 Z " fill="#6763F6" transform="translate(433,268)"/>
<path d="M0 0 C0.33 0 0.66 0 1 0 C1.21914063 1.09054687 1.43828125 2.18109375 1.6640625 3.3046875 C4.10364448 15.04566816 6.70826639 27.55864316 12.1796875 38.3203125 C13 40 13 40 13 43 C7.8841266 41.97682532 3.05149047 40.72362852 -1.875 39 C-7.51506531 37.05714974 -13.10821305 35.88144844 -19 35 C-17.76091793 30.94767703 -16.28411344 27.47613855 -14.1015625 23.84765625 C-13.53953125 22.90599609 -12.9775 21.96433594 -12.3984375 20.99414062 C-11.81320312 20.02669922 -11.22796875 19.05925781 -10.625 18.0625 C-9.4709607 16.13695451 -8.31730611 14.2111784 -7.1640625 12.28515625 C-6.62040039 11.38039551 -6.07673828 10.47563477 -5.51660156 9.54345703 C-3.63389842 6.3860196 -1.80750349 3.20097292 0 0 Z " fill="#D0DAFB" transform="translate(286,401)"/>
<path d="M0 0 C0.01417969 0.66386719 0.02835937 1.32773437 0.04296875 2.01171875 C0.35429744 7.96228239 0.35429744 7.96228239 3.375 13 C5.20508127 14.39434763 7.08566893 15.72377928 9 17 C9 17.66 9 18.32 9 19 C6.98046875 20.42041016 6.98046875 20.42041016 4.1875 22.0390625 C3.19492187 22.61914062 2.20234375 23.19921875 1.1796875 23.796875 C0.13039063 24.40015625 -0.91890625 25.0034375 -2 25.625 C-3.04929687 26.23601562 -4.09859375 26.84703125 -5.1796875 27.4765625 C-7.78268858 28.99103586 -10.38951889 30.49846843 -13 32 C-16.1588324 28.28907079 -18.48595492 24.49789353 -20.75 20.1875 C-21.36359375 19.02605469 -21.9771875 17.86460937 -22.609375 16.66796875 C-23.06828125 15.78753906 -23.5271875 14.90710938 -24 14 C-18.65335029 10.26583195 -13.1578255 6.86135145 -7.5 3.625 C-6.87657715 3.26728516 -6.2531543 2.90957031 -5.61083984 2.54101562 C-1.12938977 0 -1.12938977 0 0 0 Z " fill="#6865F5" transform="translate(394,375)"/>
<path d="M0 0 C8.05729945 4.57431698 16.08340363 9.18437456 24 14 C22.73252511 16.25195063 21.46117132 18.50155747 20.1875 20.75 C19.83107422 21.38421875 19.47464844 22.0184375 19.10742188 22.671875 C17.24751265 25.94804537 15.36160916 29.04985101 13 32 C10.27061722 30.39620082 7.54153281 28.7918946 4.8125 27.1875 C4.04357422 26.73568359 3.27464844 26.28386719 2.48242188 25.81835938 C0.98904695 24.94028056 -0.50302475 24.05998074 -1.99365234 23.17724609 C-3.66629406 22.19580555 -5.35653623 21.24443885 -7.05078125 20.30078125 C-7.69402344 19.87152344 -8.33726562 19.44226563 -9 19 C-9 18.34 -9 17.68 -9 17 C-7.50390625 15.78125 -7.50390625 15.78125 -5.5625 14.5 C-2.77468153 12.7134637 -2.77468153 12.7134637 -1 10 C-0.77377919 8.29636178 -0.59111527 6.58671299 -0.4375 4.875 C-0.35371094 3.96492188 -0.26992187 3.05484375 -0.18359375 2.1171875 C-0.12300781 1.41851562 -0.06242188 0.71984375 0 0 Z " fill="#6865F5" transform="translate(246,375)"/>
<path d="M0 0 C2.8100346 1.79363911 4.50940468 3.01880935 6 6 C6.37712577 10.99691647 6.09290612 13.99067725 3 18 C-0.66523155 20.4434877 -3.73970357 20.84707648 -8 20 C-10.9375 17.5625 -10.9375 17.5625 -13 15 C-13.33 14.67 -13.66 14.34 -14 14 C-14.58968059 6.92383292 -14.58968059 6.92383292 -12.125 3.0625 C-8.49059499 -0.46501074 -4.90782663 -0.7051475 0 0 Z " fill="#6966F6" transform="translate(284,467)"/>
<path d="M0 0 C3.34139976 0.02999461 4.22721051 0.29795352 7.1875 2.1875 C10.32180405 5.41678296 10.63788997 7.7618388 10.61328125 12.2734375 C10.00965397 15.661539 7.8344052 17.23236899 5.25 19.3125 C4.92 19.6425 4.59 19.9725 4.25 20.3125 C1.31771337 20.60572866 -0.89491883 20.81254247 -3.75 20.3125 C-6.6875 17.875 -6.6875 17.875 -8.75 15.3125 C-9.08 14.9825 -9.41 14.6525 -9.75 14.3125 C-10.04322866 11.38021337 -10.25004247 9.16758117 -9.75 6.3125 C-7.3125 3.375 -7.3125 3.375 -4.75 1.3125 C-3.75 0.3125 -3.75 0.3125 0 0 Z " fill="#6966F7" transform="translate(332.75,492.6875)"/>
<path d="M0 0 C3.0625 1.9375 3.0625 1.9375 5 5 C5.69005003 8.15369971 5.73568899 10.8519355 5 14 C2.5625 17 2.5625 17 0 19 C-0.33 19.33 -0.66 19.66 -1 20 C-5.43946252 20.52228971 -7.51823656 20.29441099 -11.375 17.9375 C-14.51996441 14.41813506 -15.0822804 12.68998307 -15 8 C-12.11715652 0.36046479 -7.6980495 -1.2672796 0 0 Z " fill="#6A67F7" transform="translate(370,467)"/>
</svg>
