<?xml version="1.0" encoding="UTF-8"?>
<svg version="1.1" xmlns="http://www.w3.org/2000/svg" width="640" height="640">
<path d="M0 0 C211.2 0 422.4 0 640 0 C640 211.2 640 422.4 640 640 C428.8 640 217.6 640 0 640 C0 428.8 0 217.6 0 0 Z " fill="#FEFEFE" transform="translate(0,0)"/>
<path d="M0 0 C2.69042969 1.1105957 2.69042969 1.1105957 5.421875 2.67578125 C6.43934814 3.25134766 7.45682129 3.82691406 8.50512695 4.41992188 C9.57593506 5.04447266 10.64674316 5.66902344 11.75 6.3125 C12.8536792 6.94607422 13.9573584 7.57964844 15.09448242 8.23242188 C18.40461218 10.14105156 21.70255836 12.0695565 25 14 C26.41563232 14.81476807 26.41563232 14.81476807 27.85986328 15.64599609 C30.35375597 17.08153876 32.83529625 18.53589039 35.3125 20 C36.03985352 20.41934814 36.76720703 20.83869629 37.51660156 21.27075195 C38.18788086 21.67640381 38.85916016 22.08205566 39.55078125 22.5 C40.12481689 22.8403125 40.69885254 23.180625 41.2902832 23.53125 C44.35632076 26.16516146 46.78504017 28.90279459 47.21122742 33.06079102 C47.14454384 35.48245261 46.9542136 37.86909133 46.73046875 40.28125 C44.52694982 59.21179641 44.52694982 59.21179641 50.37060547 76.27246094 C56.24714028 81.10948503 62.89864852 83.78838274 70.11816406 86.02636719 C72.72827065 86.90819581 74.65476838 87.89786709 76.9296875 89.4140625 C79.86924417 91.3587243 79.86924417 91.3587243 82.81079102 90.30981445 C86.08662742 88.96442195 89.03968085 87.41374576 92.09765625 85.62890625 C93.79438477 84.64374023 93.79438477 84.64374023 95.52539062 83.63867188 C96.70448445 82.94671233 97.88352043 82.25465419 99.0625 81.5625 C100.24515168 80.87384891 101.42809212 80.18569349 102.61132812 79.49804688 C108.64762596 76.03755923 108.64762596 76.03755923 114.49780273 72.28100586 C117.65235315 70.66602625 119.48931212 70.55861973 123 71 C126.01342773 72.32592773 126.01342773 72.32592773 129.18359375 74.18359375 C129.75671295 74.51466629 130.32983215 74.84573883 130.9203186 75.18684387 C132.76703096 76.25785959 134.60226972 77.34694665 136.4375 78.4375 C137.70118217 79.17706338 138.96542575 79.91566831 140.23022461 80.65332031 C142.70844167 82.10171398 145.18191075 83.55771818 147.65136719 85.02099609 C150.44800333 86.67377625 153.25410036 88.30672296 156.0703125 89.92578125 C166.54831275 96.01656728 166.54831275 96.01656728 169 100 C169.38768005 102.4594574 169.38768005 102.4594574 169.40405273 105.23999023 C169.42307899 106.80697914 169.42307899 106.80697914 169.44248962 108.40562439 C169.43808617 110.09009422 169.43808617 110.09009422 169.43359375 111.80859375 C169.4388356 112.96746597 169.44407745 114.1263382 169.44947815 115.32032776 C169.4559003 117.77059122 169.45455889 120.2208855 169.44604492 122.67114258 C169.43753972 126.4199924 169.46628867 130.16731653 169.49804688 133.91601562 C169.49965908 136.29687454 169.499081 138.67773616 169.49609375 141.05859375 C169.50732773 142.17954941 169.51856171 143.30050507 169.53013611 144.45542908 C169.46101041 152.17646928 169.46101041 152.17646928 167.29956055 156.03759766 C164.86458232 158.11556293 162.4966978 159.76027135 159.7109375 161.33984375 C158.68613281 161.92830078 157.66132813 162.51675781 156.60546875 163.12304688 C155.53941406 163.72181641 154.47335937 164.32058594 153.375 164.9375 C150.24092011 166.72535892 147.11036204 168.51286794 144.00634766 170.35253906 C141 172 141 172 138.03662109 173.06152344 C134.81514821 174.36251391 133.1664575 175.2563683 131 178 C129.1971273 184.56689809 129.74021217 191.63444632 129.875 198.375 C129.87694281 200.27474037 129.87438716 202.17449102 129.8671875 204.07421875 C129.85937607 208.71788045 129.91316506 213.35718271 130 218 C130.7019751 218.26119629 131.4039502 218.52239258 132.12719727 218.79150391 C135.23208021 220.09762871 138.04873571 221.65013776 140.96484375 223.3359375 C142.09470703 223.98820313 143.22457031 224.64046875 144.38867188 225.3125 C144.97189209 225.65152344 145.5551123 225.99054688 146.15600586 226.33984375 C147.926559 227.36864262 149.70030897 228.39174273 151.47460938 229.4140625 C166.35074331 238.02611497 166.35074331 238.02611497 169 242 C169.27415466 244.33247375 169.27415466 244.33247375 169.30639648 247.1105957 C169.32238388 248.15210281 169.33837128 249.19360992 169.35484314 250.26667786 C169.36288719 251.95418404 169.36288719 251.95418404 169.37109375 253.67578125 C169.38012222 254.83369675 169.3891507 255.99161224 169.39845276 257.18461609 C169.41297119 259.63664153 169.42184593 262.08870584 169.42553711 264.54077148 C169.43742107 268.28761369 169.48658433 272.03280297 169.53710938 275.77929688 C169.54657481 278.16145029 169.55380926 280.54361383 169.55859375 282.92578125 C169.57812607 284.04471268 169.59765839 285.1636441 169.61778259 286.31648254 C169.5675265 295.00678976 169.5675265 295.00678976 166.80883789 298.54418945 C164.11742327 300.89733502 161.64421829 302.67792599 158.5 304.3671875 C157.45344238 304.93928955 156.40688477 305.5113916 155.32861328 306.10083008 C154.2301709 306.68630615 153.13172852 307.27178223 152 307.875 C149.74623414 309.10333967 147.49361802 310.33379135 145.2421875 311.56640625 C144.16420898 312.15437988 143.08623047 312.74235352 141.97558594 313.34814453 C137.29324635 315.94748073 132.76914959 318.76194665 128.2578125 321.64453125 C124.11672231 324.13061827 120.7626938 324.33129864 116 324 C112.97729492 322.70239258 112.97729492 322.70239258 109.98046875 320.89453125 C108.87509766 320.24033203 107.76972656 319.58613281 106.63085938 318.91210938 C105.48264858 318.21293597 104.33486382 317.51306245 103.1875 316.8125 C99.83621156 314.80556796 96.48205419 312.80685143 93.10644531 310.84106445 C91.14995937 309.68153439 89.22137427 308.47217747 87.33886719 307.19604492 C84.82311747 305.62631466 82.91217441 304.57412181 80 304 C75.78715166 305.14125323 72.47994554 307.27492058 68.875 309.6875 C67.44027344 310.57985352 67.44027344 310.57985352 65.9765625 311.49023438 C63.62603561 312.95931368 61.30521978 314.46117195 59 316 C59.68033001 319.6221819 61.20631911 322.38353377 63.03515625 325.56640625 C63.67179199 326.67838379 64.30842773 327.79036133 64.96435547 328.93603516 C65.66354683 330.14496676 66.36293343 331.35378547 67.0625 332.5625 C67.78294647 333.81545929 68.50315779 335.06855382 69.22314453 336.32177734 C74.20020728 344.96671357 79.272769 353.55352133 84.375 362.125 C88.91241069 369.74813558 93.42384204 377.37954193 97.75 385.125 C98.1320459 385.80449707 98.5140918 386.48399414 98.90771484 387.18408203 C99.97049986 389.10769881 100.99236396 391.04698797 102 393 C102.55965454 394.04305298 102.55965454 394.04305298 103.13061523 395.10717773 C106.08733737 401.04621849 106.66789722 406.22460091 106.5625 412.8125 C106.55154297 413.78227783 106.54058594 414.75205566 106.52929688 415.7512207 C106.29930074 423.37367596 105.04753268 429.43509944 101 436 C100.43023437 436.95003906 99.86046875 437.90007812 99.2734375 438.87890625 C92.26078318 449.48446371 82.1234896 456.63041797 69.71495247 459.53485584 C66.84664859 460.02627321 64.18121177 460.12879453 61.271698 460.13371277 C60.12798233 460.13797775 58.98426666 460.14224274 57.80589294 460.14663696 C56.56009964 460.14618378 55.31430634 460.14573059 54.03076172 460.14526367 C52.71146164 460.14862228 51.39216156 460.1519809 50.03288269 460.15544128 C46.41891443 460.16426323 42.80496986 460.16661873 39.19099188 460.16725707 C36.92899296 460.16796897 34.66700002 460.17010601 32.40500259 460.17275429 C24.50144317 460.18200402 16.59790059 460.18608992 8.69433594 460.18530273 C1.34799419 460.18470308 -5.99827386 460.19523368 -13.34459698 460.2110464 C-19.66668926 460.2241654 -25.9887576 460.22948476 -32.31086338 460.22884732 C-36.07992003 460.22859348 -39.84891126 460.23138129 -43.61795425 460.24202538 C-47.16877179 460.25177919 -50.71946237 460.2517362 -54.27028465 460.24450874 C-56.17776995 460.24298128 -58.08525544 460.25125985 -59.99272156 460.25994873 C-74.90149198 460.20606901 -88.07930434 457.46248241 -99.2578125 446.91015625 C-108.36340362 436.92667182 -112.17440457 426.06045477 -112.3125 412.8125 C-112.34150391 411.90435547 -112.37050781 410.99621094 -112.40039062 410.06054688 C-112.46206058 403.43339893 -111.1334078 398.80090778 -108 393 C-107.62029053 392.2670874 -107.24058105 391.5341748 -106.84936523 390.77905273 C-105.61767188 388.43881007 -104.34709102 386.12410699 -103.0625 383.8125 C-102.58651367 382.95156738 -102.11052734 382.09063477 -101.62011719 381.20361328 C-97.58304359 373.94970107 -93.38224341 366.79806134 -89.13696289 359.66455078 C-84.69945088 352.20554478 -80.33552902 344.70603523 -76 337.1875 C-75.37706055 336.10839355 -74.75412109 335.02928711 -74.11230469 333.91748047 C-70.6885246 327.97370164 -67.30717244 322.00949047 -64 316 C-64.65097656 315.77828125 -65.30195313 315.5565625 -65.97265625 315.328125 C-68.52030592 314.21044643 -70.65676427 313.02503779 -72.99609375 311.546875 C-73.71990234 311.093125 -74.44371094 310.639375 -75.18945312 310.171875 C-76.69247537 309.22122322 -78.18732879 308.25753602 -79.67382812 307.28125 C-84.02854283 304.51242902 -84.02854283 304.51242902 -89.03515625 304.4140625 C-92.74914436 306.40072808 -96.3997234 308.43860386 -100 310.625 C-101.50632312 311.52114823 -103.01283657 312.41697662 -104.51953125 313.3125 C-106.70241324 314.61856995 -108.88252502 315.92858325 -111.05615234 317.25 C-112.92691618 318.38600441 -114.80628171 319.50642391 -116.6875 320.625 C-117.76386719 321.27726562 -118.84023437 321.92953125 -119.94921875 322.6015625 C-123.40554838 324.18589798 -125.23440128 324.32032886 -129 324 C-131.90576172 322.78173828 -131.90576172 322.78173828 -134.9296875 321.0703125 C-136.04794922 320.44423096 -137.16621094 319.81814941 -138.31835938 319.1730957 C-139.50431061 318.49109982 -140.68985047 317.80838812 -141.875 317.125 C-143.08884958 316.43583735 -144.30304414 315.74728197 -145.51757812 315.05932617 C-152.23346715 311.23896788 -158.91509377 307.35492268 -165.5 303.3125 C-166.13276855 302.92787598 -166.76553711 302.54325195 -167.41748047 302.14697266 C-170.66473165 300.09977274 -172.99255516 298.27641021 -175 295 C-175.38768005 292.5405426 -175.38768005 292.5405426 -175.40405273 289.76000977 C-175.41673691 288.71535049 -175.42942108 287.67069122 -175.44248962 286.59437561 C-175.43955399 285.47139572 -175.43661835 284.34841583 -175.43359375 283.19140625 C-175.4388356 282.03253403 -175.44407745 280.8736618 -175.44947815 279.67967224 C-175.4559003 277.22940878 -175.45455889 274.7791145 -175.44604492 272.32885742 C-175.43753972 268.5800076 -175.46628867 264.83268347 -175.49804688 261.08398438 C-175.49965908 258.70312546 -175.499081 256.32226384 -175.49609375 253.94140625 C-175.50732773 252.82045059 -175.51856171 251.69949493 -175.53013611 250.54457092 C-175.4610854 242.83190754 -175.4610854 242.83190754 -173.31762695 238.96459961 C-170.79119343 236.82299942 -168.33549744 235.20357311 -165.421875 233.625 C-164.34292969 233.03203125 -163.26398438 232.4390625 -162.15234375 231.828125 C-161.02957031 231.22484375 -159.90679687 230.6215625 -158.75 230 C-156.53546925 228.79348034 -154.32190579 227.58518331 -152.109375 226.375 C-151.06072266 225.80394531 -150.01207031 225.23289062 -148.93164062 224.64453125 C-146.33950146 223.19044652 -143.82910605 221.66656192 -141.328125 220.0625 C-138 218 -138 218 -136 218 C-136 204.47 -136 190.94 -136 177 C-138.97 176.01 -138.97 176.01 -142 175 C-144.03540039 173.98193359 -144.03540039 173.98193359 -145.84765625 172.8984375 C-146.52940918 172.49447754 -147.21116211 172.09051758 -147.91357422 171.67431641 C-148.97729248 171.03115479 -148.97729248 171.03115479 -150.0625 170.375 C-150.80258301 169.9320459 -151.54266602 169.4890918 -152.30517578 169.03271484 C-153.81363596 168.12802827 -155.32048593 167.22065121 -156.82568359 166.31054688 C-158.84151643 165.09552434 -160.86612012 163.89698684 -162.89453125 162.703125 C-164.05507703 162.01106948 -165.2152567 161.31839948 -166.375 160.625 C-167.39335937 160.01914063 -168.41171875 159.41328125 -169.4609375 158.7890625 C-172.03490564 156.97540495 -173.35873288 155.66098346 -175 153 C-175.40786743 150.50930786 -175.40786743 150.50930786 -175.45166016 147.68408203 C-175.4740274 146.6226297 -175.49639465 145.56117737 -175.5194397 144.46755981 C-175.52591522 143.3258432 -175.53239075 142.18412659 -175.5390625 141.0078125 C-175.55759781 139.23976761 -175.55759781 139.23976761 -175.57650757 137.43600464 C-175.59607531 134.94290127 -175.60730616 132.44972062 -175.61083984 129.95654297 C-175.62492425 126.14549714 -175.69225987 122.33773003 -175.76171875 118.52734375 C-175.77411729 116.10418124 -175.78333686 113.68099996 -175.7890625 111.2578125 C-175.81578033 110.12014435 -175.84249817 108.9824762 -175.87002563 107.81033325 C-175.80387789 100.09491504 -175.80387789 100.09491504 -173.52487183 96.99081421 C-171.75102031 95.43154508 -170.03155344 94.19906834 -168 93 C-167.32580017 92.58605988 -166.65160034 92.17211975 -165.95697021 91.74563599 C-163.96104446 90.55531786 -161.92934995 89.46121332 -159.875 88.375 C-158.2932398 87.52274413 -156.71255704 86.66848633 -155.1328125 85.8125 C-154.30426758 85.36390625 -153.47572266 84.9153125 -152.62207031 84.453125 C-149.84065923 82.91169495 -147.10261255 81.30904871 -144.3671875 79.6875 C-143.43148926 79.13658691 -142.49579102 78.58567383 -141.53173828 78.01806641 C-139.70920493 76.94156566 -137.89221112 75.85561786 -136.08154297 74.75927734 C-127.91352346 69.97112797 -127.91352346 69.97112797 -123 71 C-120.09181302 72.23964222 -117.40788888 73.77002377 -114.6875 75.375 C-113.91003418 75.8181958 -113.13256836 76.2613916 -112.33154297 76.71801758 C-108.24469535 79.0597755 -104.20535679 81.4742093 -100.18359375 83.92578125 C-99.41764893 84.38871582 -98.6517041 84.85165039 -97.86254883 85.32861328 C-96.39525926 86.21971352 -94.9351012 87.1226875 -93.4831543 88.03857422 C-90.03370829 90.33862051 -90.03370829 90.33862051 -86.07226562 90.765625 C-83.67519484 89.87999659 -81.58089456 88.76693819 -79.3671875 87.48828125 C-78.47773438 86.97716797 -77.58828125 86.46605469 -76.671875 85.93945312 C-75.74890625 85.40255859 -74.8259375 84.86566406 -73.875 84.3125 C-72.97523438 83.79494141 -72.07546875 83.27738281 -71.1484375 82.74414062 C-69.32697896 81.69339982 -67.51943346 80.61818592 -65.72631836 79.51977539 C-63 78 -63 78 -60.11938477 77.02514648 C-56.79978768 75.73027655 -55.19129704 74.84344192 -53 72 C-51.27524466 65.04264193 -51.96483959 57.53789305 -52.1875 50.4375 C-52.25417251 47.46178793 -52.30620392 44.48762244 -52.329422 41.51124573 C-52.34644472 39.66324774 -52.38968417 37.81525605 -52.46244812 35.96861267 C-52.52973349 31.48881225 -52.50839613 29.6474107 -49.65625 26.01538086 C-44.89462714 22.40258704 -39.76255816 19.49606181 -34.59667969 16.51318359 C-31.53151643 14.72699688 -28.48941315 12.90387276 -25.4453125 11.08203125 C-23.69455151 10.0441637 -21.94238897 9.00872358 -20.18930054 7.97479248 C-18.45911178 6.95029697 -16.73596694 5.91393573 -15.01293945 4.87744141 C-13.93488037 4.24628418 -12.85682129 3.61512695 -11.74609375 2.96484375 C-10.78372803 2.3937085 -9.8213623 1.82257324 -8.82983398 1.23413086 C-5.54960402 -0.19642409 -3.54553743 -0.41948022 0 0 Z " fill="#062B75" transform="translate(323,90)"/>
<path d="M0 0 C2.78615411 1.44208243 5.54566275 2.90542793 8.27880859 4.44628906 C9.35904297 5.0534375 10.43927734 5.66058594 11.55224609 6.28613281 C12.67115234 6.9190625 13.79005859 7.55199219 14.94287109 8.20410156 C16.05404297 8.82929688 17.16521484 9.45449219 18.31005859 10.09863281 C19.93427734 11.01322266 19.93427734 11.01322266 21.59130859 11.94628906 C23.15510254 12.82365723 23.15510254 12.82365723 24.75048828 13.71875 C26.41895453 14.67240714 28.07619231 15.64700551 29.70556641 16.66601562 C33.58529311 19.08684565 36.0237428 19.72467007 40.56787109 19.32910156 C43.4547806 18.1775775 43.4547806 18.1775775 46.27099609 16.47753906 C47.33447266 15.87296875 48.39794922 15.26839844 49.49365234 14.64550781 C50.59064453 14.00484375 51.68763672 13.36417969 52.81787109 12.70410156 C53.89939453 12.08664063 54.98091797 11.46917969 56.09521484 10.83300781 C62.33163281 7.26985052 62.33163281 7.26985052 68.41748047 3.45898438 C69.28695312 2.89276367 70.15642578 2.32654297 71.05224609 1.74316406 C72.18484863 0.97286865 72.18484863 0.97286865 73.34033203 0.18701172 C75.56787109 -0.67089844 75.56787109 -0.67089844 77.9909668 -0.01660156 C80.78459185 1.44227682 83.56402095 2.90599592 86.31396484 4.44628906 C87.94108398 5.35701172 87.94108398 5.35701172 89.60107422 6.28613281 C90.72449219 6.9190625 91.84791016 7.55199219 93.00537109 8.20410156 C94.12492188 8.82929688 95.24447266 9.45449219 96.39794922 10.09863281 C102.63455885 13.60001721 102.63455885 13.60001721 105.56787109 15.32910156 C106.66615234 15.86043701 107.76443359 16.39177246 108.89599609 16.93920898 C111.8442095 19.57627596 111.98287116 19.93753903 112.26147461 23.65112305 C112.26864782 25.41759755 112.24516678 27.18436914 112.19677734 28.95019531 C112.19862534 29.88710709 112.20047333 30.82401886 112.20237732 31.7893219 C112.20662956 34.78263627 112.17245149 37.77360338 112.13037109 40.76660156 C112.09356157 43.75587153 112.06585751 46.74366056 112.06907654 49.73316956 C112.07084298 51.59197301 112.04968916 53.45097547 112.00282288 55.30918884 C112.00422944 59.61400784 112.07437903 61.66886491 114.71240234 65.19824219 C117.64975859 67.39020913 120.58029851 69.33766815 123.75146484 71.17675781 C124.32945328 71.5153331 124.90744171 71.85390839 125.50294495 72.20274353 C127.33295192 73.27298867 129.16878538 74.33269322 131.00537109 75.39160156 C132.83712461 76.45611328 134.66756628 77.52282454 136.49708557 78.59117126 C138.15828292 79.55991769 139.82282065 80.52292943 141.48754883 81.4855957 C142.50405518 82.09395264 143.52056152 82.70230957 144.56787109 83.32910156 C146.20405396 84.16646851 146.20405396 84.16646851 147.87329102 85.02075195 C151.16722388 87.84254549 151.44015527 89.34600683 151.8601532 93.52302551 C151.90549698 94.33301498 151.95084076 95.14300446 151.99755859 95.97753906 C152.05518875 96.82293747 152.11281891 97.66833588 152.17219543 98.53935242 C152.32022945 101.26236839 152.39545036 103.9775443 152.44287109 106.70410156 C152.46290192 107.62093719 152.48293274 108.53777283 152.50357056 109.48239136 C152.61476622 124.41539281 152.61476622 124.41539281 148.36328125 130.46728516 C142.83471132 135.1945285 136.53475052 137.73357368 129.71777344 140.08349609 C125.32389938 141.82102093 121.6082258 144.3098455 117.72338867 146.97143555 C115.56787109 148.32910156 115.56787109 148.32910156 113.56787109 148.32910156 C112.64080522 151.11029917 112.46050865 152.66355831 112.50537109 155.52172852 C112.5144751 156.36302811 112.5235791 157.2043277 112.53295898 158.07112122 C112.54447998 158.97738754 112.55600098 159.88365387 112.56787109 160.81738281 C112.56902952 162.73990895 112.56764759 164.66243798 112.56396484 166.58496094 C112.55954559 169.61436058 112.56785535 172.64067143 112.61914062 175.66967773 C112.66447935 178.59545709 112.65246736 181.51643249 112.63037109 184.44238281 C112.65808594 185.34257645 112.68580078 186.24277008 112.71435547 187.17024231 C112.6402364 191.08361326 112.53330096 193.39580865 109.63941956 196.19335938 C107.33910144 197.74854394 105.03975706 199.06756053 102.56787109 200.32910156 C101.1804887 201.1065643 99.79365083 201.88500082 98.40771484 202.66503906 C97.10952231 203.34965801 95.80876365 204.02943512 94.50537109 204.70410156 C93.83054687 205.05859375 93.15572266 205.41308594 92.46044922 205.77832031 C90.83190936 206.63301499 89.20023565 207.48173445 87.56787109 208.32910156 C77.12180076 197.38950435 78.2644293 183.7345201 78.41503906 169.47045898 C78.44969077 166.05326791 78.40203298 162.64271828 78.33205986 159.22626591 C78.27750498 155.93885046 78.29757299 152.65199793 78.31005859 149.36425781 C78.28354218 148.14545425 78.25702576 146.9266507 78.22970581 145.6709137 C78.30456886 142.26972805 78.45873881 139.54786778 79.56787109 136.32910156 C81.97608696 134.13799467 84.20968195 132.85090211 87.17129517 131.51559448 C90.4019467 129.91616877 91.66175594 128.16087325 92.99365234 124.87255859 C94.1844162 119.59816325 94.15493762 114.24510685 94.08935547 108.86547852 C94.06787411 106.76689602 94.08924161 104.67172172 94.11474609 102.57324219 C94.13256015 94.28237142 93.70831191 88.84410549 87.97021484 82.58691406 C82.7009511 78.51201677 78.80332212 78.17402003 72.33618164 78.15209961 C71.0771402 78.14224281 71.0771402 78.14224281 69.79266357 78.13218689 C67.01330475 78.11246669 64.23399992 78.10079456 61.45458984 78.09082031 C60.50499704 78.08674479 59.55540424 78.08266926 58.5770359 78.07847023 C53.55160362 78.05761563 48.52619861 78.04331088 43.50073242 78.03393555 C38.31209399 78.02286824 33.12388406 77.98846284 27.93539715 77.94876385 C23.94364121 77.92261249 19.95198765 77.91424506 15.96015358 77.91065407 C14.04760657 77.90578483 12.13506423 77.89416124 10.22260094 77.87561607 C7.54397015 77.8512545 4.86645192 77.852184 2.18774414 77.85913086 C1.40051468 77.8463208 0.61328522 77.83351074 -0.19779968 77.8203125 C-6.16838126 77.87664645 -9.7264402 79.70053462 -14.07666016 83.92675781 C-19.23423232 90.39528478 -18.68307841 96.45486338 -18.72729492 104.3605957 C-18.73877975 105.78908216 -18.75917626 107.2175269 -18.78881836 108.64575195 C-19.05748614 120.09538958 -19.05748614 120.09538958 -14.43212891 130.32910156 C-12.73903077 132.18422971 -12.73903077 132.18422971 -10.86962891 133.26660156 C-10.00144531 133.83701172 -10.00144531 133.83701172 -9.11572266 134.41894531 C-7.27110337 135.4788741 -7.27110337 135.4788741 -4.43212891 136.32910156 C-4.24535811 143.79670397 -4.10391947 151.26405936 -4.01763153 158.73347759 C-3.97617887 162.20345736 -3.92012643 165.67181999 -3.82861328 169.14086914 C-3.11309442 196.95926113 -3.11309442 196.95926113 -10.69970703 206.55102539 C-11.27140625 207.13779053 -11.84310547 207.72455566 -12.43212891 208.32910156 C-13.07537109 207.9771875 -13.71861328 207.62527344 -14.38134766 207.26269531 C-19.68772087 204.36349283 -25.00180456 201.47939125 -30.32666016 198.61425781 C-31.47626221 197.99558838 -32.62586426 197.37691895 -33.81030273 196.73950195 C-34.67550537 196.27406982 -35.54070801 195.8086377 -36.43212891 195.32910156 C-36.43623779 194.02239502 -36.44034668 192.71568848 -36.44458008 191.36938477 C-36.46637695 186.51416762 -36.52067293 181.65976022 -36.5847168 176.80493164 C-36.60789187 174.70507578 -36.62229135 172.60510377 -36.62768555 170.50512695 C-36.63697853 167.48347631 -36.67797737 164.4636514 -36.72509766 161.44238281 C-36.72116501 160.50574295 -36.71723236 159.56910309 -36.71318054 158.6040802 C-36.81133197 154.20427455 -36.92433626 152.00659254 -39.62158203 148.40795898 C-42.38281818 146.36557488 -45.0920146 144.59690442 -48.10791016 142.95410156 C-49.18363281 142.36113281 -50.25935547 141.76816406 -51.36767578 141.15722656 C-52.48207031 140.55394531 -53.59646484 139.95066406 -54.74462891 139.32910156 C-56.95006929 138.12261869 -59.15451879 136.91432249 -61.35791016 135.70410156 C-62.33155518 135.17558594 -63.3052002 134.64707031 -64.30834961 134.10253906 C-65.33919678 133.51730469 -66.37004395 132.93207031 -67.43212891 132.32910156 C-68.48713089 131.83867119 -68.48713089 131.83867119 -69.56344604 131.33833313 C-75.01966231 128.53739772 -75.01966231 128.53739772 -76.12348938 125.30380249 C-76.36001375 122.78849875 -76.33300635 120.39561132 -76.21337891 117.87207031 C-76.20205933 116.96910721 -76.19073975 116.0661441 -76.17907715 115.13581848 C-76.13440132 112.26055845 -76.0340671 109.3903451 -75.93212891 106.51660156 C-75.89199 104.5641998 -75.85548993 102.6117196 -75.82275391 100.65917969 C-75.73469581 95.8805518 -75.59671849 91.10568116 -75.43212891 86.32910156 C-74.73240967 85.94165771 -74.03269043 85.55421387 -73.31176758 85.1550293 C-70.07908603 83.36241131 -66.8493556 81.56453741 -63.61962891 79.76660156 C-61.96930664 78.85297852 -61.96930664 78.85297852 -60.28564453 77.92089844 C-47.52573904 71.6871451 -47.52573904 71.6871451 -37.43212891 62.32910156 C-37.19336245 60.34561649 -37.19336245 60.34561649 -37.31958008 58.16821289 C-37.35271553 56.91594658 -37.35271553 56.91594658 -37.38652039 55.63838196 C-37.43036613 54.28839363 -37.43036613 54.28839363 -37.47509766 52.91113281 C-37.49865619 50.99775995 -37.51872699 49.08434155 -37.53564453 47.17089844 C-37.56825552 44.15769198 -37.6192895 41.15081489 -37.73022461 38.1394043 C-38.3057139 21.4392271 -38.3057139 21.4392271 -33.84472656 16.41503906 C-30.45952534 14.32690547 -27.11572443 12.81883011 -23.43212891 11.32910156 C-21.51501112 10.20580891 -19.61724108 9.04855354 -17.74462891 7.85253906 C-15.97497143 6.80107834 -14.20415484 5.75156578 -12.43212891 4.70410156 C-11.53107422 4.15109375 -10.63001953 3.59808594 -9.70166016 3.02832031 C-8.82896484 2.5165625 -7.95626953 2.00480469 -7.05712891 1.47753906 C-5.90083984 0.784104 -5.90083984 0.784104 -4.72119141 0.07666016 C-2.43212891 -0.67089844 -2.43212891 -0.67089844 0 0 Z " fill="#FCFDFD" transform="translate(282.43212890625,180.6708984375)"/>
<path d="M0 0 C14.52 0 29.04 0 44 0 C44.00257813 4.40859375 44.00515625 8.8171875 44.0078125 13.359375 C44.02666613 16.90597365 44.05148411 20.45242071 44.08029175 23.99894714 C44.10894527 27.72554112 44.12743599 31.45151097 44.12011719 35.17822266 C44.11346108 38.77730962 44.13635771 42.37517291 44.17855453 45.97400665 C44.19488752 47.99430669 44.1817149 50.01477738 44.16775513 52.03509521 C44.30814115 61.07774692 46.34197912 67.28745168 51 75 C51.77756905 76.36114426 51.77756905 76.36114426 52.57084656 77.74978638 C54.01252255 80.27187028 55.50100716 82.76159226 57 85.25 C58.14778741 87.17409038 59.29489917 89.09858394 60.44140625 91.0234375 C61.02809082 92.00666992 61.61477539 92.98990234 62.21923828 94.00292969 C65.15459877 98.94322107 68.04633712 103.90875446 70.9375 108.875 C71.51822266 109.87176758 72.09894531 110.86853516 72.69726562 111.89550781 C73.87634111 113.91947882 75.05521458 115.94356752 76.23388672 117.96777344 C78.57211195 121.9822547 80.91302879 125.99516225 83.25439453 130.0078125 C84.41340862 131.99450854 85.57194131 133.98148551 86.72998047 135.96875 C89.74919722 141.14892037 92.77657292 146.32408459 95.81640625 151.4921875 C96.75709961 153.09513672 96.75709961 153.09513672 97.71679688 154.73046875 C98.90689562 156.75804439 100.09942289 158.7841975 101.29492188 160.80859375 C112.58163254 180.06160672 112.58163254 180.06160672 111 191 C108.85345299 198.72277249 104.46966991 204.80230802 97.73196411 209.06997681 C91.82744554 211.94981783 85.77882027 211.54282016 79.33544922 211.48583984 C77.96470783 211.48798896 76.59396823 211.49187148 75.22323608 211.49734497 C71.52076394 211.50699112 67.8187783 211.49179603 64.11636496 211.47143888 C60.23278503 211.45379673 56.34921852 211.45739432 52.46560669 211.4581604 C45.94752928 211.45629095 39.42963879 211.43897339 32.91162109 211.41162109 C25.38389639 211.3801477 17.85637602 211.36962604 10.32859027 211.3710922 C2.29936067 211.37244463 -5.72979057 211.35855707 -13.75899649 211.34019899 C-16.06690489 211.33594378 -18.37480059 211.33451767 -20.68271255 211.33372116 C-24.31238359 211.33170721 -27.94188417 211.3194565 -31.57149887 211.29938889 C-33.53356937 211.29079313 -35.49567484 211.29187908 -37.45776367 211.29327393 C-38.63243195 211.28474396 -39.80710022 211.27621399 -41.0173645 211.26742554 C-42.54209476 211.262398 -42.54209476 211.262398 -44.09762764 211.25726891 C-50.63402232 210.67787698 -56.23001985 208.08654931 -60.640625 203.171875 C-65.80212341 196.60725081 -67.20453544 191.25576687 -67.36328125 182.9765625 C-66.29282584 174.20573429 -61.23950288 167.0211648 -56.75 159.625 C-55.29242516 157.19979984 -53.83974205 154.77167911 -52.38671875 152.34375 C-52.01792099 151.72887726 -51.64912323 151.11400452 -51.26914978 150.48049927 C-47.6287743 144.40302787 -44.08814442 138.26965397 -40.5625 132.125 C-35.2314325 122.84878715 -29.85376885 113.60159804 -24.4375 104.375 C-23.72532072 103.16114518 -23.01316239 101.94727806 -22.30102539 100.73339844 C-19.50350443 95.96569313 -16.70508544 91.19851937 -13.90283203 86.43359375 C-11.93222735 83.0824828 -9.96604143 79.7287903 -8 76.375 C-7.10945923 74.86365479 -7.10945923 74.86365479 -6.20092773 73.32177734 C-5.66024658 72.3983252 -5.11956543 71.47487305 -4.5625 70.5234375 C-4.08941406 69.71825684 -3.61632812 68.91307617 -3.12890625 68.08349609 C-1.05480926 64.2555671 -0.85458806 61.16408837 -0.79467773 56.8762207 C-0.77473251 55.61513992 -0.75478729 54.35405914 -0.73423767 53.05476379 C-0.71725467 51.67843753 -0.70037581 50.30210998 -0.68359375 48.92578125 C-0.66301803 47.51758725 -0.6420214 46.10939935 -0.62062073 44.70121765 C-0.56546378 40.99739519 -0.51602646 37.29351759 -0.46777344 33.58959961 C-0.41751179 29.80903227 -0.36190226 26.02854389 -0.30664062 22.24804688 C-0.19863139 14.83209179 -0.09955908 7.41609266 0 0 Z " fill="#FEFEFE" transform="translate(298,318)"/>
<path d="M0 0 C0.83921494 -0.0049649 1.67842987 -0.00992981 2.54307556 -0.01504517 C5.32787895 -0.0296859 8.11262533 -0.03647275 10.89746094 -0.04199219 C12.83079022 -0.04774305 14.76411949 -0.05350079 16.69744873 -0.05926514 C20.75614691 -0.06978123 24.81482526 -0.07561959 28.87353516 -0.07910156 C34.06997103 -0.08458079 39.26614415 -0.10859404 44.46249771 -0.13707352 C48.45854451 -0.15571601 52.45452831 -0.16090641 56.45061493 -0.16243744 C58.36593814 -0.16546198 60.2812603 -0.1734838 62.19654083 -0.18662262 C64.87992691 -0.20371313 67.56267504 -0.20179531 70.24609375 -0.1953125 C71.03489426 -0.20452728 71.82369476 -0.21374207 72.63639832 -0.22323608 C78.42862383 -0.17949013 82.60112184 1.03874221 86.96386719 5.09863281 C87.53492188 5.77925781 88.10597656 6.45988281 88.69433594 7.16113281 C89.27828125 7.84175781 89.86222656 8.52238281 90.46386719 9.22363281 C94.21007006 14.34241139 93.14305883 21.12373525 93.17700195 27.19262695 C93.18848678 28.62111341 93.20888329 30.04955815 93.23852539 31.4777832 C93.55040296 46.51585755 93.55040296 46.51585755 88.88183594 53.16113281 C86.59277344 55.25488281 86.59277344 55.25488281 84.25683594 56.66113281 C83.48082031 57.14582031 82.70480469 57.63050781 81.90527344 58.12988281 C79.88183594 59.16113281 79.88183594 59.16113281 77.88183594 59.16113281 C77.85014728 66.64685094 77.8567888 74.13174201 77.91030216 81.61732101 C77.93400062 85.0946273 77.94525287 88.57098277 77.92651367 92.04833984 C77.90546834 96.06065489 77.94133963 100.07081542 77.97949219 104.08300781 C77.95810936 105.92593414 77.95810936 105.92593414 77.93629456 107.80609131 C78.08625459 116.88675071 80.67570473 122.76586562 85.88183594 130.16113281 C97.93653601 123.7618014 97.93653601 123.7618014 109.88183594 117.16113281 C109.92050781 118.15693359 109.92050781 118.15693359 109.95996094 119.17285156 C110.31247435 124.66084448 110.62564612 128.26975926 114.88183594 132.16113281 C116.99844021 133.47278538 116.99844021 133.47278538 118.88183594 134.16113281 C118.88183594 134.82113281 118.88183594 135.48113281 118.88183594 136.16113281 C111.95183594 140.12113281 105.02183594 144.08113281 97.88183594 148.16113281 C98.83058369 151.95612381 99.98733107 154.36919451 101.91699219 157.72753906 C102.55362793 158.8395166 103.19026367 159.95149414 103.84619141 161.09716797 C104.54538277 162.30609958 105.24476937 163.51491828 105.94433594 164.72363281 C106.66478241 165.97659211 107.38499372 167.22968664 108.10498047 168.48291016 C113.08204322 177.12784638 118.15460494 185.71465414 123.25683594 194.28613281 C127.79424663 201.90926839 132.30567797 209.54067474 136.63183594 217.28613281 C137.01388184 217.96562988 137.39592773 218.64512695 137.78955078 219.34521484 C138.8523358 221.26883162 139.8741999 223.20812078 140.88183594 225.16113281 C141.44149048 226.20418579 141.44149048 226.20418579 142.01245117 227.26831055 C144.96917331 233.2073513 145.54973316 238.38573372 145.44433594 244.97363281 C145.42790039 246.42829956 145.42790039 246.42829956 145.41113281 247.91235352 C145.18113668 255.53480878 143.92936862 261.59623225 139.88183594 268.16113281 C139.31207031 269.11117188 138.74230469 270.06121094 138.15527344 271.04003906 C131.14261912 281.64559652 121.00532554 288.79155079 108.59678841 291.69598866 C105.72848453 292.18740602 103.06304771 292.28992734 100.15353394 292.29484558 C99.00981827 292.29911057 97.8661026 292.30337555 96.68772888 292.30776978 C95.44193558 292.30731659 94.19614227 292.3068634 92.91259766 292.30639648 C91.59329758 292.3097551 90.2739975 292.31311371 88.91471863 292.3165741 C85.30075037 292.32539604 81.6868058 292.32775154 78.07282782 292.32838988 C75.8108289 292.32910178 73.54883596 292.33123882 71.28683853 292.3338871 C63.38327911 292.34313683 55.47973653 292.34722274 47.57617188 292.34643555 C40.22983013 292.3458359 32.88356208 292.35636649 25.53723896 292.37217921 C19.21514667 292.38529822 12.89307834 292.39061757 6.57097256 292.38998014 C2.80191591 292.38972629 -0.96707532 292.39251411 -4.73611832 292.40315819 C-8.28693585 292.412912 -11.83762644 292.41286902 -15.38844872 292.40564156 C-17.29593402 292.40411409 -19.2034195 292.41239266 -21.11088562 292.42108154 C-36.01965604 292.36720182 -49.19746841 289.62361523 -60.37597656 279.07128906 C-69.48156768 269.08780463 -73.29256863 258.22158759 -73.43066406 244.97363281 C-73.45966797 244.06548828 -73.48867187 243.15734375 -73.51855469 242.22167969 C-73.58022464 235.59453174 -72.25157186 230.9620406 -69.11816406 225.16113281 C-68.73845459 224.42822021 -68.35874512 223.69530762 -67.9675293 222.94018555 C-66.73583594 220.59994289 -65.46525508 218.28523981 -64.18066406 215.97363281 C-63.70467773 215.1127002 -63.22869141 214.25176758 -62.73828125 213.36474609 C-58.70120765 206.11083388 -54.50040747 198.95919416 -50.25512695 191.82568359 C-45.81761495 184.36667759 -41.45369308 176.86716804 -37.11816406 169.34863281 C-36.49522461 168.26952637 -35.87228516 167.19041992 -35.23046875 166.07861328 C-31.80668867 160.13483446 -28.4253365 154.17062328 -25.11816406 148.16113281 C-26.08302734 147.82082031 -26.08302734 147.82082031 -27.06738281 147.47363281 C-31.21786533 145.6880219 -35.03759231 143.44541632 -38.93066406 141.16113281 C-39.71892578 140.70996094 -40.5071875 140.25878906 -41.31933594 139.79394531 C-42.43598633 139.14039063 -42.43598633 139.14039063 -43.57519531 138.47363281 C-44.25557861 138.07789063 -44.93596191 137.68214844 -45.63696289 137.27441406 C-46.12575928 136.90703125 -46.61455566 136.53964844 -47.11816406 136.16113281 C-47.11816406 135.50113281 -47.11816406 134.84113281 -47.11816406 134.16113281 C-45.62207031 132.94238281 -45.62207031 132.94238281 -43.68066406 131.66113281 C-40.8928456 129.87459652 -40.8928456 129.87459652 -39.11816406 127.16113281 C-38.89348576 125.62444416 -38.71019601 124.08145227 -38.55566406 122.53613281 C-38.471875 121.71886719 -38.38808594 120.90160156 -38.30175781 120.05957031 C-38.21087891 119.11984375 -38.21087891 119.11984375 -38.11816406 118.16113281 C-32.60248219 119.69424567 -28.09781555 122.34865725 -23.24316406 125.28613281 C-22.45941406 125.7540625 -21.67566406 126.22199219 -20.86816406 126.70410156 C-18.94833934 127.85131389 -17.03185845 129.00373351 -15.11816406 130.16113281 C-7.72918671 121.45269522 -6.51986424 115.87891165 -6.50878906 104.57128906 C-6.49225281 103.27162704 -6.47571655 101.97196503 -6.4586792 100.63291931 C-6.41520272 97.19871091 -6.39505104 93.76475698 -6.37994385 90.33032227 C-6.36030092 86.81739375 -6.3183394 83.30473721 -6.27832031 79.79199219 C-6.20323262 72.91514209 -6.15281192 66.03830243 -6.11816406 59.16113281 C-6.88 59.03867187 -7.64183594 58.91621094 -8.42675781 58.79003906 C-13.66378576 57.56629233 -16.39857549 54.23463881 -19.27050781 49.95019531 C-22.03721589 44.18023518 -21.71599732 37.96032089 -21.63964844 31.69750977 C-21.61816708 29.59892727 -21.63953458 27.50375297 -21.66503906 25.40527344 C-21.68381132 16.93280987 -21.22502345 11.51059149 -15.26660156 5.20019531 C-14.68136719 4.73355469 -14.09613281 4.26691406 -13.49316406 3.78613281 C-12.90277344 3.30402344 -12.31238281 2.82191406 -11.70410156 2.32519531 C-8.00077691 -0.3930085 -4.42135396 0.00620212 0 0 Z M13.88183594 60.16113281 C13.87925781 64.56972656 13.87667969 68.97832031 13.87402344 73.52050781 C13.85516981 77.06710646 13.83035183 80.61355353 13.80154419 84.16007996 C13.77289067 87.88667393 13.75439995 91.61264379 13.76171875 95.33935547 C13.76837486 98.93844243 13.74547823 102.53630573 13.7032814 106.13513947 C13.68694842 108.15543951 13.70012104 110.17591019 13.71408081 112.19622803 C13.57353039 121.24946909 11.54807701 127.43821321 6.88183594 135.16113281 C6.25092041 136.29244629 5.62000488 137.42375977 4.9699707 138.58935547 C4.42655029 139.49218262 3.88312988 140.39500977 3.32324219 141.32519531 C2.69812744 142.37046387 2.0730127 143.41573242 1.42895508 144.49267578 C0.77403076 145.5795166 0.11910645 146.66635742 -0.55566406 147.78613281 C-1.9853607 150.17520097 -3.4113683 152.56646103 -4.83691406 154.95800781 C-5.19643661 155.56051361 -5.55595917 156.16301941 -5.92637634 156.78378296 C-9.53031601 162.83290655 -13.04922789 168.93004073 -16.55566406 175.03613281 C-21.58646324 183.79037872 -26.65666778 192.51991658 -31.76907349 201.22665405 C-32.85600252 203.07791918 -33.94216688 204.9296307 -35.02807617 206.78149414 C-40.47440113 216.06854925 -40.47440113 216.06854925 -42.92089844 220.22070312 C-44.4909829 222.88583488 -46.05527973 225.55427472 -47.61816406 228.22363281 C-48.06901367 228.98474365 -48.51986328 229.74585449 -48.984375 230.5300293 C-49.59200684 231.57139038 -49.59200684 231.57139038 -50.21191406 232.63378906 C-50.55931641 233.22426025 -50.90671875 233.81473145 -51.26464844 234.4230957 C-54.30003846 240.60414306 -54.13857235 248.89545069 -52.05566406 255.34863281 C-49.36676551 261.54202001 -44.31993661 267.38665562 -38.11816406 270.16113281 C-34.45289703 271.05524508 -31.02940963 271.29437546 -27.26251221 271.31503296 C-26.09066376 271.32363342 -24.91881531 271.33223389 -23.7114563 271.34109497 C-22.43446869 271.34535492 -21.15748108 271.34961487 -19.84179688 271.35400391 C-18.47636714 271.36191207 -17.11093945 271.37018146 -15.74551392 271.37878418 C-11.27079236 271.40491816 -6.79606185 271.42030158 -2.32128906 271.43457031 C-0.77710719 271.43993324 0.76707464 271.44531075 2.31125641 271.45070267 C8.7366238 271.47231731 15.16198876 271.4910525 21.58738327 271.50232506 C30.77733411 271.51855755 39.9668618 271.5517342 49.15665317 271.60872591 C55.62902789 271.64748938 62.10128972 271.6669652 68.57377744 271.67224562 C72.43459863 271.67588988 76.2949676 271.68781193 80.15566254 271.72034836 C83.79036034 271.75054325 87.42433496 271.75670095 91.05913162 271.7449646 C93.01716154 271.74464061 94.9751476 271.76902902 96.93301392 271.79434204 C105.73289248 271.73247076 111.80151522 270.07796823 118.22167969 263.91503906 C124.04699612 255.92481286 126.34601155 249.15058904 124.88183594 239.16113281 C123.10592382 234.17106988 120.55011768 229.71253708 117.88183594 225.16113281 C117.42583008 224.37480469 116.96982422 223.58847656 116.5 222.77832031 C113.83207698 218.18970321 111.12955663 213.62274159 108.40527344 209.06738281 C104.87586606 203.16478703 101.40388805 197.22987592 97.94433594 191.28613281 C97.06986816 189.78530151 97.06986816 189.78530151 96.17773438 188.25415039 C94.99650652 186.22670131 93.81551675 184.19911348 92.63476562 182.17138672 C89.78127464 177.27117171 86.925545 172.37226387 84.06933594 167.47363281 C83.50907715 166.51191162 82.94881836 165.55019043 82.37158203 164.55932617 C79.01439592 158.80085215 75.64169521 153.05180031 72.25683594 147.30957031 C71.08014268 145.31099063 69.90364851 143.31229386 68.72720337 141.31356812 C67.95967535 140.01105035 67.19111184 138.70914217 66.42147827 137.40786743 C65.3471666 135.59140847 64.27629228 133.77296301 63.20605469 131.95410156 C62.58819092 130.90762451 61.97032715 129.86114746 61.33374023 128.78295898 C59.07240817 124.69948076 58.74085848 121.64260351 58.67651367 117.03735352 C58.64659584 115.14573235 58.64659584 115.14573235 58.61607361 113.21589661 C58.5990906 111.83957034 58.58221175 110.46324279 58.56542969 109.08691406 C58.54485397 107.67872007 58.52385733 106.27053216 58.50245667 104.86235046 C58.44729972 101.15852801 58.3978624 97.4546504 58.34960938 93.75073242 C58.29934773 89.97016509 58.2437382 86.1896767 58.18847656 82.40917969 C58.08046732 74.9932246 57.98139502 67.57722548 57.88183594 60.16113281 C43.36183594 60.16113281 28.84183594 60.16113281 13.88183594 60.16113281 Z " fill="#072C76" transform="translate(284.1181640625,257.8388671875)"/>
<path d="M0 0 C0.33 0 0.66 0 1 0 C0.89937256 1.19898926 0.79874512 2.39797852 0.69506836 3.63330078 C-1.72781623 24.30714552 -1.72781623 24.30714552 3.0848999 43.79321289 C8.41539528 49.95125438 16.55437898 52.6816623 24.11816406 55.02636719 C26.72827065 55.90819581 28.65476838 56.89786709 30.9296875 58.4140625 C33.86924417 60.3587243 33.86924417 60.3587243 36.81079102 59.30981445 C40.08662742 57.96442195 43.03968085 56.41374576 46.09765625 54.62890625 C47.22880859 53.97212891 48.35996094 53.31535156 49.52539062 52.63867188 C50.70448445 51.94671233 51.88352043 51.25465419 53.0625 50.5625 C54.24515168 49.87384891 55.42809212 49.18569349 56.61132812 48.49804688 C62.64762596 45.03755923 62.64762596 45.03755923 68.49780273 41.28100586 C71.65235315 39.66602625 73.48931212 39.55861973 77 40 C80.01342773 41.32592773 80.01342773 41.32592773 83.18359375 43.18359375 C83.75671295 43.51466629 84.32983215 43.84573883 84.9203186 44.18684387 C86.76703096 45.25785959 88.60226972 46.34694665 90.4375 47.4375 C91.70118217 48.17706338 92.96542575 48.91566831 94.23022461 49.65332031 C96.70844167 51.10171398 99.18191075 52.55771818 101.65136719 54.02099609 C104.44800333 55.67377625 107.25410036 57.30672296 110.0703125 58.92578125 C120.54831275 65.01656728 120.54831275 65.01656728 123 69 C123.38768005 71.4594574 123.38768005 71.4594574 123.40405273 74.23999023 C123.42307899 75.80697914 123.42307899 75.80697914 123.44248962 77.40562439 C123.43955399 78.52860428 123.43661835 79.65158417 123.43359375 80.80859375 C123.4388356 81.96746597 123.44407745 83.1263382 123.44947815 84.32032776 C123.4559003 86.77059122 123.45455889 89.2208855 123.44604492 91.67114258 C123.43753972 95.4199924 123.46628867 99.16731653 123.49804688 102.91601562 C123.49965908 105.29687454 123.499081 107.67773616 123.49609375 110.05859375 C123.50732773 111.17954941 123.51856171 112.30050507 123.53013611 113.45542908 C123.46101041 121.17646928 123.46101041 121.17646928 121.29956055 125.03759766 C118.86458232 127.11556293 116.4966978 128.76027135 113.7109375 130.33984375 C112.68613281 130.92830078 111.66132813 131.51675781 110.60546875 132.12304688 C109.53941406 132.72181641 108.47335937 133.32058594 107.375 133.9375 C104.24092011 135.72535892 101.11036204 137.51286794 98.00634766 139.35253906 C95 141 95 141 92.03662109 142.06152344 C88.81514821 143.36251391 87.1664575 144.2563683 85 147 C83.1971273 153.56689809 83.74021217 160.63444632 83.875 167.375 C83.87694281 169.27474037 83.87438716 171.17449102 83.8671875 173.07421875 C83.85937607 177.71788045 83.91316506 182.35718271 84 187 C85.05296265 187.39179443 85.05296265 187.39179443 86.12719727 187.79150391 C89.23208021 189.09762871 92.04873571 190.65013776 94.96484375 192.3359375 C96.09470703 192.98820313 97.22457031 193.64046875 98.38867188 194.3125 C99.2635022 194.82103516 99.2635022 194.82103516 100.15600586 195.33984375 C101.926559 196.36864262 103.70030897 197.39174273 105.47460938 198.4140625 C120.35074331 207.02611497 120.35074331 207.02611497 123 211 C123.27415466 213.33247375 123.27415466 213.33247375 123.30639648 216.1105957 C123.32238388 217.15210281 123.33837128 218.19360992 123.35484314 219.26667786 C123.36020584 220.39168198 123.36556854 221.5166861 123.37109375 222.67578125 C123.38012222 223.83369675 123.3891507 224.99161224 123.39845276 226.18461609 C123.41297119 228.63664153 123.42184593 231.08870584 123.42553711 233.54077148 C123.43742107 237.28761369 123.48658433 241.03280297 123.53710938 244.77929688 C123.54657481 247.16145029 123.55380926 249.54361383 123.55859375 251.92578125 C123.57812607 253.04471268 123.59765839 254.1636441 123.61778259 255.31648254 C123.5675265 264.00678976 123.5675265 264.00678976 120.80883789 267.54418945 C118.11742327 269.89733502 115.64421829 271.67792599 112.5 273.3671875 C111.45344238 273.93928955 110.40688477 274.5113916 109.32861328 275.10083008 C108.2301709 275.68630615 107.13172852 276.27178223 106 276.875 C103.74623414 278.10333967 101.49361802 279.33379135 99.2421875 280.56640625 C98.16420898 281.15437988 97.08623047 281.74235352 95.97558594 282.34814453 C91.29324635 284.94748073 86.76914959 287.76194665 82.2578125 290.64453125 C78.11694274 293.13048593 74.76188446 293.32085188 70 293 C67.05664062 291.76586914 67.05664062 291.76586914 64.15625 290.03515625 C63.08133301 289.40399902 62.00641602 288.7728418 60.89892578 288.12255859 C59.21645752 287.10282959 59.21645752 287.10282959 57.5 286.0625 C56.33519421 285.36939141 55.16966233 284.67750166 54.00341797 283.98681641 C51.70797566 282.6244954 49.41883337 281.2530753 47.13183594 279.87646484 C44.46976331 278.28146249 41.79464122 276.71755446 39.1015625 275.17578125 C37.77592014 274.40906425 36.450387 273.64215834 35.125 272.875 C33.45824219 271.91207031 33.45824219 271.91207031 31.7578125 270.9296875 C28.57812506 268.70480706 27.00386377 267.35964266 25 264 C24.38627005 260.03449263 24.41581672 256.10020439 24.43359375 252.09375 C24.42429588 250.35756409 24.42429588 250.35756409 24.41481018 248.58630371 C24.40771428 246.14201701 24.41088192 243.69768196 24.42358398 241.25341797 C24.43745145 237.51309353 24.40336867 233.77526953 24.36523438 230.03515625 C24.3642832 227.65885355 24.36614192 225.28254773 24.37109375 222.90625 C24.35783554 221.7884314 24.34457733 220.67061279 24.33091736 219.5189209 C24.42358616 211.79535379 24.42358616 211.79535379 27.19824219 207.96679688 C29.90917423 206.06375849 32.57809247 204.26396888 35.45703125 202.625 C36.48763672 202.03203125 37.51824219 201.4390625 38.58007812 200.828125 C39.64677734 200.22484375 40.71347656 199.6215625 41.8125 199 C43.92382174 197.79279343 46.03451189 196.5844815 48.14453125 195.375 C49.14564941 194.80394531 50.14676758 194.23289062 51.17822266 193.64453125 C53.70498004 192.17193757 56.17523316 190.64087414 58.63671875 189.0625 C62 187 62 187 64 187 C66.97335605 165.44421763 66.97335605 165.44421763 61.84088135 145.18981934 C55.97633649 138.63129263 47.27315758 135.4124708 39.25 132.33886719 C33.57174897 129.99965981 28.43782409 127.15673614 25 122 C24.876297 120.0942688 24.876297 120.0942688 25.04614258 117.91845703 C25.09953796 117.09941391 25.15293335 116.28037079 25.20794678 115.43650818 C25.26951965 114.5525386 25.33109253 113.66856903 25.39453125 112.7578125 C27.21235188 93.5447992 27.21235188 93.5447992 21.86523438 75.79736328 C16.58387086 71.23888401 10.5774525 69.00250966 3.96533203 67.01318359 C-0.71963348 65.41244204 -5.07602833 63.0275916 -9 60 C-9 59.34 -9 58.68 -9 58 C-7.50390625 56.78125 -7.50390625 56.78125 -5.5625 55.5 C-2.77468153 53.7134637 -2.77468153 53.7134637 -1 51 C-0.88127427 49.36664808 -0.82290908 47.72872646 -0.79467773 46.09130859 C-0.77473251 45.07040131 -0.75478729 44.04949402 -0.73423767 42.99765015 C-0.71752518 41.89240997 -0.70081268 40.7871698 -0.68359375 39.6484375 C-0.6524221 37.95468491 -0.6524221 37.95468491 -0.62062073 36.22671509 C-0.55508665 32.60954028 -0.49622226 28.99229119 -0.4375 25.375 C-0.39431846 22.92707556 -0.35070429 20.47915872 -0.30664062 18.03125 C-0.19940133 12.0209125 -0.09764213 6.01050065 0 0 Z " fill="#062B76" transform="translate(369,121)"/>
<path d="M0 0 C2.69042969 1.1105957 2.69042969 1.1105957 5.421875 2.67578125 C6.94820557 3.53937256 6.94820557 3.53937256 8.50537109 4.42041016 C9.57609863 5.0447998 10.64682617 5.66918945 11.75 6.3125 C12.8529541 6.94462402 13.9559082 7.57674805 15.09228516 8.22802734 C18.404732 10.1356011 21.7040796 12.06403698 25 14 C25.94907227 14.55381348 26.89814453 15.10762695 27.87597656 15.67822266 C30.38379114 17.14732195 32.88195747 18.63099612 35.375 20.125 C36.11073242 20.56110596 36.84646484 20.99721191 37.60449219 21.4465332 C38.27899414 21.85863037 38.95349609 22.27072754 39.6484375 22.6953125 C40.51734619 23.2214917 40.51734619 23.2214917 41.40380859 23.75830078 C44.18603733 25.92263473 45.83103787 27.92809766 46.38768005 31.4594574 C46.39578453 32.83582115 46.39578453 32.83582115 46.40405273 34.23999023 C46.41673691 35.28464951 46.42942108 36.32930878 46.44248962 37.40562439 C46.43955399 38.52860428 46.43661835 39.65158417 46.43359375 40.80859375 C46.4388356 41.96746597 46.44407745 43.1263382 46.44947815 44.32032776 C46.4559003 46.77059122 46.45455889 49.2208855 46.44604492 51.67114258 C46.43753972 55.4199924 46.46628867 59.16731653 46.49804688 62.91601562 C46.49965908 65.29687454 46.499081 67.67773616 46.49609375 70.05859375 C46.50732773 71.17954941 46.51856171 72.30050507 46.53013611 73.45542908 C46.46105572 81.17140804 46.46105572 81.17140804 44.3137207 85.03051758 C41.80624704 87.16492615 39.35440186 88.8348471 36.484375 90.453125 C34.86547363 91.37629517 34.86547363 91.37629517 33.21386719 92.31811523 C32.07079102 92.95563721 30.92771484 93.59315918 29.75 94.25 C28.57151722 94.91469676 27.39345908 95.58014694 26.21582031 96.24633789 C23.88600547 97.56293539 21.55329366 98.87387745 19.21875 100.18212891 C16.43916388 101.75197101 13.68298553 103.35203007 10.9375 104.98046875 C10.21594727 105.40360352 9.49439453 105.82673828 8.75097656 106.26269531 C7.46114683 107.01997456 6.17619488 107.78565482 4.89746094 108.56152344 C1.03048367 110.79592286 -1.57364228 111.36551062 -6 111 C-8.70629883 109.87353516 -8.70629883 109.87353516 -11.45703125 108.2890625 C-12.47966064 107.70825928 -13.50229004 107.12745605 -14.5559082 106.52905273 C-15.6305835 105.90071533 -16.70525879 105.27237793 -17.8125 104.625 C-18.91875732 103.98957275 -20.02501465 103.35414551 -21.16479492 102.69946289 C-23.39828413 101.41385815 -25.62855501 100.12264496 -27.85546875 98.82568359 C-30.65245711 97.20177995 -33.4620845 95.60449232 -36.28125 94.01953125 C-37.79215098 93.15970466 -39.30260456 92.29909116 -40.8125 91.4375 C-41.49223877 91.0573877 -42.17197754 90.67727539 -42.87231445 90.28564453 C-46.88303616 87.95590604 -49.63770084 86.00395553 -52 82 C-52.61108887 78.03393363 -52.5841842 74.1004119 -52.56640625 70.09375 C-52.57570412 68.35756409 -52.57570412 68.35756409 -52.58518982 66.58630371 C-52.59228572 64.14201701 -52.58911808 61.69768196 -52.57641602 59.25341797 C-52.56254855 55.51309353 -52.59663133 51.77526953 -52.63476562 48.03515625 C-52.6357168 45.65885355 -52.63385808 43.28254773 -52.62890625 40.90625 C-52.64216446 39.7884314 -52.65542267 38.67061279 -52.66908264 37.5189209 C-52.57601488 29.76210284 -52.57601488 29.76210284 -49.63916016 25.87646484 C-44.80026691 22.43597146 -39.73274388 19.47884647 -34.59667969 16.51318359 C-31.53151643 14.72699688 -28.48941315 12.90387276 -25.4453125 11.08203125 C-23.69455151 10.0441637 -21.94238897 9.00872358 -20.18930054 7.97479248 C-18.45911178 6.95029697 -16.73596694 5.91393573 -15.01293945 4.87744141 C-13.93488037 4.24628418 -12.85682129 3.61512695 -11.74609375 2.96484375 C-10.30254517 2.10814087 -10.30254517 2.10814087 -8.82983398 1.23413086 C-5.54960402 -0.19642409 -3.54553743 -0.41948022 0 0 Z " fill="#062B75" transform="translate(323,90)"/>
<path d="M0 0 C2.78222656 1.20239258 2.78222656 1.20239258 5.640625 2.89453125 C6.70345703 3.51553711 7.76628906 4.13654297 8.86132812 4.77636719 C10.5387207 5.78425293 10.5387207 5.78425293 12.25 6.8125 C13.41026214 7.49864404 14.57107407 8.18385921 15.73242188 8.86816406 C18.06044502 10.24373668 20.38309567 11.62775132 22.70117188 13.02001953 C25.67446075 14.80460899 28.656139 16.57407681 31.640625 18.33984375 C33.2613459 19.3083425 34.88120538 20.27828499 36.5 21.25 C37.24024414 21.69061768 37.98048828 22.13123535 38.74316406 22.58520508 C41.91446402 24.5192118 43.91082629 25.86623944 46 29 C46.27415466 31.33247375 46.27415466 31.33247375 46.30639648 34.1105957 C46.32238388 35.15210281 46.33837128 36.19360992 46.35484314 37.26667786 C46.36020584 38.39168198 46.36556854 39.5166861 46.37109375 40.67578125 C46.38012222 41.83369675 46.3891507 42.99161224 46.39845276 44.18461609 C46.41297119 46.63664153 46.42184593 49.08870584 46.42553711 51.54077148 C46.43742107 55.28761369 46.48658433 59.03280297 46.53710938 62.77929688 C46.54657481 65.16145029 46.55380926 67.54361383 46.55859375 69.92578125 C46.57812607 71.04471268 46.59765839 72.1636441 46.61778259 73.31648254 C46.5675265 82.00678976 46.5675265 82.00678976 43.80883789 85.54418945 C41.11742327 87.89733502 38.64421829 89.67792599 35.5 91.3671875 C34.45344238 91.93928955 33.40688477 92.5113916 32.32861328 93.10083008 C31.2301709 93.68630615 30.13172852 94.27178223 29 94.875 C26.74623414 96.10333967 24.49361802 97.33379135 22.2421875 98.56640625 C21.16420898 99.15437988 20.08623047 99.74235352 18.97558594 100.34814453 C14.29324635 102.94748073 9.76914959 105.76194665 5.2578125 108.64453125 C1.11694274 111.13048593 -2.23811554 111.32085188 -7 111 C-9.94335938 109.76586914 -9.94335938 109.76586914 -12.84375 108.03515625 C-13.91866699 107.40399902 -14.99358398 106.7728418 -16.10107422 106.12255859 C-17.22271973 105.44273926 -18.34436523 104.76291992 -19.5 104.0625 C-20.66480579 103.36939141 -21.83033767 102.67750166 -22.99658203 101.98681641 C-25.29202434 100.6244954 -27.58116663 99.2530753 -29.86816406 97.87646484 C-32.53023669 96.28146249 -35.20535878 94.71755446 -37.8984375 93.17578125 C-39.22407986 92.40906425 -40.549613 91.64215834 -41.875 90.875 C-43.54175781 89.91207031 -43.54175781 89.91207031 -45.2421875 88.9296875 C-48.42187494 86.70480706 -49.99613623 85.35964266 -52 82 C-52.61372995 78.03449263 -52.58418328 74.10020439 -52.56640625 70.09375 C-52.57570412 68.35756409 -52.57570412 68.35756409 -52.58518982 66.58630371 C-52.59228572 64.14201701 -52.58911808 61.69768196 -52.57641602 59.25341797 C-52.56254855 55.51309353 -52.59663133 51.77526953 -52.63476562 48.03515625 C-52.6357168 45.65885355 -52.63385808 43.28254773 -52.62890625 40.90625 C-52.64216446 39.7884314 -52.65542267 38.67061279 -52.66908264 37.5189209 C-52.57636216 29.79104675 -52.57636216 29.79104675 -49.78198242 25.95581055 C-47.17764092 24.12488648 -44.62506563 22.37777743 -41.859375 20.80078125 C-40.87888184 20.23568848 -39.89838867 19.6705957 -38.88818359 19.08837891 C-37.33478271 18.20931885 -37.33478271 18.20931885 -35.75 17.3125 C-33.59072631 16.07755615 -31.43187471 14.84187401 -29.2734375 13.60546875 C-28.21092773 12.99880371 -27.14841797 12.39213867 -26.05371094 11.76708984 C-23.29414292 10.17021158 -20.56718099 8.53347819 -17.8515625 6.86328125 C-16.7054248 6.16368286 -16.7054248 6.16368286 -15.53613281 5.44995117 C-14.13608357 4.59160648 -12.74175657 3.7238285 -11.35449219 2.8449707 C-7.30477607 0.38621449 -4.69974208 -0.42987677 0 0 Z " fill="#062B75" transform="translate(446,303)"/>
<path d="M0 0 C2.7980957 1.21826172 2.7980957 1.21826172 5.67578125 2.9296875 C7.27764282 3.86880981 7.27764282 3.86880981 8.91186523 4.8269043 C10.03407471 5.50277588 11.15628418 6.17864746 12.3125 6.875 C13.47599001 7.56466224 14.64013883 8.25321422 15.80493164 8.94067383 C18.12458521 10.31167288 20.44007801 11.68933836 22.75292969 13.07177734 C25.61425871 14.77093348 28.49019821 16.436919 31.3828125 18.08203125 C32.16358154 18.52885254 32.94435059 18.97567383 33.7487793 19.43603516 C35.16664421 20.24674074 36.58722732 21.0527182 38.01098633 21.85302734 C41.48207304 23.86479697 43.91733289 25.56030956 46 29 C46.38768005 31.4594574 46.38768005 31.4594574 46.40405273 34.23999023 C46.41673691 35.28464951 46.42942108 36.32930878 46.44248962 37.40562439 C46.43955399 38.52860428 46.43661835 39.65158417 46.43359375 40.80859375 C46.4388356 41.96746597 46.44407745 43.1263382 46.44947815 44.32032776 C46.4559003 46.77059122 46.45455889 49.2208855 46.44604492 51.67114258 C46.43753972 55.4199924 46.46628867 59.16731653 46.49804688 62.91601562 C46.49965908 65.29687454 46.499081 67.67773616 46.49609375 70.05859375 C46.50732773 71.17954941 46.51856171 72.30050507 46.53013611 73.45542908 C46.46116013 81.15974541 46.46116013 81.15974541 44.34545898 85.01464844 C41.67767345 87.2728385 39.0310428 89.00245807 35.9765625 90.70703125 C35.39393646 91.03611984 34.81131042 91.36520844 34.21102905 91.70426941 C32.3543319 92.75017118 30.49006228 93.78160366 28.625 94.8125 C27.41221836 95.4918718 26.19997411 96.17220383 24.98828125 96.85351562 C23.17002386 97.87570134 21.35053286 98.89510103 19.52545166 99.90505981 C16.37509552 101.6500653 13.2577988 103.43262291 10.17480469 105.29443359 C9.55173431 105.66581955 8.92866394 106.03720551 8.28671265 106.41984558 C6.56382615 107.45018798 4.8487823 108.4936119 3.13427734 109.5378418 C-0.34197225 111.159532 -2.21653812 111.51153949 -6 111 C-8.90576172 109.78173828 -8.90576172 109.78173828 -11.9296875 108.0703125 C-13.04794922 107.44423096 -14.16621094 106.81814941 -15.31835938 106.1730957 C-16.50431061 105.49109982 -17.68985047 104.80838812 -18.875 104.125 C-20.08884958 103.43583735 -21.30304414 102.74728197 -22.51757812 102.05932617 C-29.23346715 98.23896788 -35.91509377 94.35492268 -42.5 90.3125 C-43.13276855 89.92787598 -43.76553711 89.54325195 -44.41748047 89.14697266 C-47.66473165 87.09977274 -49.99255516 85.27641021 -52 82 C-52.38768005 79.5405426 -52.38768005 79.5405426 -52.40405273 76.76000977 C-52.41673691 75.71535049 -52.42942108 74.67069122 -52.44248962 73.59437561 C-52.43955399 72.47139572 -52.43661835 71.34841583 -52.43359375 70.19140625 C-52.4388356 69.03253403 -52.44407745 67.8736618 -52.44947815 66.67967224 C-52.4559003 64.22940878 -52.45455889 61.7791145 -52.44604492 59.32885742 C-52.43753972 55.5800076 -52.46628867 51.83268347 -52.49804688 48.08398438 C-52.49965908 45.70312546 -52.499081 43.32226384 -52.49609375 40.94140625 C-52.50732773 39.82045059 -52.51856171 38.69949493 -52.53013611 37.54457092 C-52.46102454 29.82510962 -52.46102454 29.82510962 -50.29785156 25.95361328 C-47.87002455 23.88949601 -45.54212557 22.31746987 -42.73828125 20.80078125 C-41.70936768 20.23568848 -40.6804541 19.6705957 -39.62036133 19.08837891 C-38.52876709 18.50233887 -37.43717285 17.91629883 -36.3125 17.3125 C-34.05103762 16.07873775 -31.79062437 14.8430506 -29.53125 13.60546875 C-28.42136719 12.99880371 -27.31148437 12.39213867 -26.16796875 11.76708984 C-23.33439376 10.18652451 -20.55031218 8.55360838 -17.78125 6.86328125 C-16.63402466 6.16368286 -16.63402466 6.16368286 -15.46362305 5.44995117 C-14.07064354 4.59196686 -12.68361343 3.72421572 -11.30395508 2.8449707 C-7.26966808 0.37552348 -4.6930845 -0.43195056 0 0 Z " fill="#062B75" transform="translate(200,303)"/>
<path d="M0 0 C4.25190672 0.72454016 8.46259148 1.56498974 12.671875 2.50048828 C14.24752863 2.83855323 15.8287753 3.15137219 17.4140625 3.44091797 C31.30775375 6.04598508 31.30775375 6.04598508 35.62207031 10.77978516 C38.55526994 15.12377319 40.62671428 19.87305843 42.8046875 24.625 C49.59604767 38.11894439 62.02474138 51.72322608 74.09375 60.5625 C76 62 76 62 78.375 64.4375 C90.15651283 75.93850062 105.73832909 83.31867476 120.76953125 89.58984375 C124 91 124 91 127 93 C124.37305665 94.31347168 122.42789254 94.12889062 119.48492432 94.13371277 C117.72683441 94.14011024 117.72683441 94.14011024 115.93322754 94.14663696 C113.99449768 94.14595718 113.99449768 94.14595718 112.01660156 94.14526367 C110.64674793 94.14825467 109.27689513 94.15165706 107.90704346 94.15544128 C104.17960068 94.16429377 100.45218085 94.16661998 96.72472858 94.16725707 C93.61356035 94.16820568 90.50239747 94.17188362 87.3912313 94.17542917 C80.04890405 94.18357926 72.70658906 94.18601298 65.36425781 94.18530273 C57.79236936 94.18470249 50.22055228 94.19524234 42.64868188 94.2110464 C36.14838585 94.22413002 29.64811311 94.22948625 23.14780402 94.22884732 C19.26540353 94.22859248 15.38306638 94.23143576 11.50067902 94.24202538 C7.84650005 94.25171962 4.19244478 94.25177647 0.53826141 94.24450874 C-1.43820292 94.24296735 -3.41466727 94.25130131 -5.39111328 94.25994873 C-6.57445251 94.25575424 -7.75779175 94.25155975 -8.97698975 94.24723816 C-10.51340937 94.24805531 -10.51340937 94.24805531 -12.08086777 94.24888897 C-18.62506002 93.69092272 -24.22720157 91.08968968 -28.640625 86.171875 C-33.80212341 79.60725081 -35.20453544 74.25576687 -35.36328125 65.9765625 C-34.29283436 57.20580415 -29.23963843 50.0210465 -24.75 42.625 C-23.31324651 40.23496339 -21.88137095 37.84201459 -20.44921875 35.44921875 C-20.08372421 34.8399202 -19.71822968 34.23062164 -19.34165955 33.6028595 C-15.34107495 26.92389 -11.44555921 20.1852636 -7.5625 13.4375 C-6.91829102 12.32004395 -6.27408203 11.20258789 -5.61035156 10.05126953 C-2.70648651 5.07914532 -2.70648651 5.07914532 0 0 Z " fill="#92B1F3" transform="translate(266,435)"/>
<path d="M0 0 C2.19333708 2.82284226 4.07230494 5.70437802 5.86328125 8.796875 C6.4137915 9.7441748 6.96430176 10.69147461 7.53149414 11.66748047 C8.11922607 12.68471191 8.70695801 13.70194336 9.3125 14.75 C10.5675209 16.9141712 11.82273498 19.07823039 13.078125 21.2421875 C14.04588867 22.9123291 14.04588867 22.9123291 15.03320312 24.61621094 C16.96525461 27.94022206 18.90985295 31.25652247 20.859375 34.5703125 C21.48030029 35.62766602 22.10122559 36.68501953 22.7409668 37.77441406 C23.92245011 39.78551688 25.10607816 41.79536183 26.29223633 43.80371094 C37.58142794 63.0630217 37.58142794 63.0630217 36 74 C34.08839345 80.87751182 30.06327339 86.98076213 24.3125 91.25390625 C17.06721471 93.59148985 10.04193956 89.52235438 3.6875 86.375 C2.29047852 85.6934082 2.29047852 85.6934082 0.86523438 84.99804688 C-12.70069038 78.28628424 -25.36423113 69.83043353 -36 59 C-37.21830435 57.94564965 -38.44688986 56.903011 -39.6875 55.875 C-53.99080222 43.36630686 -63.98067821 27.5397305 -73 11 C-69.31750072 9.81840953 -65.9111837 9.94755676 -62.06640625 10.04296875 C-60.68035346 10.06539478 -59.29428462 10.08684596 -57.90820312 10.10742188 C-55.74930074 10.14413707 -53.59124567 10.18669922 -51.43286133 10.24682617 C-41.59552421 10.50741035 -33.32669891 9.42362448 -24 6 C-22.42309735 5.50457879 -20.84267677 5.02010989 -19.2578125 4.55078125 C-18.56429687 4.34259766 -17.87078125 4.13441406 -17.15625 3.91992188 C-16.15078125 3.61924805 -16.15078125 3.61924805 -15.125 3.3125 C-14.43148437 3.10044922 -13.73796875 2.88839844 -13.0234375 2.66992188 C-8.68570493 1.3775711 -4.49601284 0.53412163 0 0 Z " fill="#D1DBFC" transform="translate(373,435)"/>
<path d="M0 0 C7.1981308 3.23693963 14.04879507 6.44596302 18.9453125 12.81640625 C22.69752412 23.22141702 20.4172609 36.11964401 18.9453125 46.81640625 C15.47870863 48.77756816 12.00981965 50.73461925 8.53881836 52.68798828 C7.35980688 53.35224286 6.18141149 54.01759226 5.00366211 54.68408203 C3.30487185 55.64517352 1.60363039 56.60192822 -0.09765625 57.55859375 C-1.62942505 58.42266846 -1.62942505 58.42266846 -3.19213867 59.30419922 C-4.13677979 59.80322754 -5.0814209 60.30225586 -6.0546875 60.81640625 C-6.86615234 61.28175781 -7.67761719 61.74710937 -8.51367188 62.2265625 C-12.27406902 63.09946022 -14.55062478 61.42626835 -17.66796875 59.51171875 C-18.28238327 59.15375214 -18.89679779 58.79578552 -19.52983093 58.42697144 C-21.48611828 57.28194685 -23.42630978 56.11232319 -25.3671875 54.94140625 C-26.69237631 54.15978921 -28.0185389 53.37982064 -29.34570312 52.6015625 C-32.59363199 50.69210758 -35.82735811 48.76045863 -39.0546875 46.81640625 C-41.74534336 17.27032639 -41.74534336 17.27032639 -37.54736328 10.32128906 C-33.68638873 6.75686084 -29.13473622 5.06743135 -24.17041016 3.53857422 C-21.23379684 2.5362084 -18.89491932 0.90336622 -16.3671875 -0.87109375 C-10.88669968 -4.58820706 -5.77038614 -2.31044248 0 0 Z " fill="#FA7C9F" transform="translate(453.0546875,329.18359375)"/>
<path d="M0 0 C9.1972671 2.93874941 19.00801718 7.20433973 25 15 C28.75221162 25.40501077 26.4719484 38.30323776 25 49 C24.3294458 49.37809814 23.6588916 49.75619629 22.96801758 50.14575195 C19.91578326 51.86730184 16.86413646 53.58989058 13.8125 55.3125 C12.75740234 55.90740234 11.70230469 56.50230469 10.61523438 57.11523438 C9.59365234 57.69208984 8.57207031 58.26894531 7.51953125 58.86328125 C6.58214111 59.39219971 5.64475098 59.92111816 4.67895508 60.46606445 C2.85831238 61.50854127 1.06400343 62.59810815 -0.70385742 63.7277832 C-3 65 -3 65 -5.2578125 64.4921875 C-6.16273438 63.99976563 -7.06765625 63.50734375 -8 63 C-8.64936523 62.65356445 -9.29873047 62.30712891 -9.96777344 61.95019531 C-12.28533069 60.70086313 -14.58099348 59.41702666 -16.875 58.125 C-17.65230469 57.69058594 -18.42960937 57.25617188 -19.23046875 56.80859375 C-23.83520732 54.23148796 -28.41968171 51.62020026 -33 49 C-36.50001944 19.77850904 -36.50001944 19.77850904 -30.92138672 12.16210938 C-25.76919688 7.85767598 -19.89559887 5.19595394 -13.5871582 2.99438477 C-10.91771794 2.08312267 -10.91771794 2.08312267 -8.54370117 0.31616211 C-5.1899036 -1.41916016 -3.60467787 -0.96876794 0 0 Z " fill="#CFDAFB" transform="translate(447,185)"/>
<path d="M0 0 C3.80319654 1.41688563 7.2026822 3.17300148 10.703125 5.22265625 C11.7653125 5.84333984 12.8275 6.46402344 13.921875 7.10351562 C15.02015625 7.74998047 16.1184375 8.39644531 17.25 9.0625 C18.36375 9.71283203 19.4775 10.36316406 20.625 11.03320312 C28.85688973 15.85688973 28.85688973 15.85688973 30 17 C30.48480879 21.57163583 30.65636587 26.14120017 30.78955078 30.73510742 C30.84609891 32.27531676 30.9277808 33.8148269 31.03564453 35.35229492 C31.39001997 40.50073685 31.42281869 45.0058769 30 50 C26.15885286 53.82444196 21.91617254 55.82323925 17 58 C15.60938422 58.82768382 14.23138167 59.67776516 12.87890625 60.56640625 C11.78449219 61.22511719 10.69007813 61.88382813 9.5625 62.5625 C8.45003906 63.24441406 7.33757812 63.92632812 6.19140625 64.62890625 C2.3871791 66.26328046 0.96685314 65.97946613 -3 65 C-5.8684082 63.6171875 -5.8684082 63.6171875 -8.80078125 61.875 C-9.85974609 61.25109375 -10.91871094 60.6271875 -12.00976562 59.984375 C-13.09966797 59.32953125 -14.18957031 58.6746875 -15.3125 58 C-16.42173828 57.34515625 -17.53097656 56.6903125 -18.67382812 56.015625 C-26.80333647 51.19666353 -26.80333647 51.19666353 -28 50 C-28.38775295 45.39017132 -28.48513636 40.77927862 -28.56982422 36.1550293 C-28.60640975 34.60176298 -28.66091001 33.0488085 -28.73388672 31.49682617 C-29.32634319 18.70440768 -29.32634319 18.70440768 -26.28613281 14.79760742 C-23.92830229 13.19536613 -21.62746931 12.09937931 -19 11 C-17.39762986 10.1024586 -15.80367662 9.18971566 -14.21875 8.26171875 C-12.64802504 7.3996404 -11.07510423 6.54155072 -9.5 5.6875 C-7.90545448 4.81786331 -6.31166119 3.94684543 -4.71875 3.07421875 C-4.02716797 2.69869873 -3.33558594 2.32317871 -2.62304688 1.9362793 C-1.01665532 1.10304548 -1.01665532 1.10304548 0 0 Z " fill="#AFD752" transform="translate(196,183)"/>
<path d="M0 0 C2.83368051 1.43763743 5.58870536 2.95014868 8.33105469 4.5559082 C9.39324219 5.1765918 10.45542969 5.79727539 11.54980469 6.43676758 C12.64808594 7.08323242 13.74636719 7.72969727 14.87792969 8.39575195 C15.99167969 9.04608398 17.10542969 9.69641602 18.25292969 10.36645508 C26.48481942 15.19014168 26.48481942 15.19014168 27.62792969 16.33325195 C28.01568264 20.94308063 28.11306604 25.55397334 28.19775391 30.17822266 C28.23433944 31.73148898 28.28883969 33.28444345 28.36181641 34.83642578 C28.95489542 47.64228628 28.95489542 47.64228628 25.90307617 51.53125 C23.54989174 53.12064334 21.2384323 54.22261715 18.62792969 55.33325195 C17.08152984 56.25075877 15.54603446 57.18691378 14.02246094 58.1418457 C12.49736707 59.02205759 10.97001989 59.89837698 9.44042969 60.77075195 C8.67279297 61.22901367 7.90515625 61.68727539 7.11425781 62.15942383 C6.36208984 62.58674805 5.60992187 63.01407227 4.83496094 63.4543457 C4.16956299 63.84033936 3.50416504 64.22633301 2.81860352 64.62402344 C-1.25990674 65.94443715 -4.48720929 64.75982892 -8.24047852 62.95043945 C-9.69200317 62.08805664 -9.69200317 62.08805664 -11.17285156 61.20825195 C-12.23181641 60.5843457 -13.29078125 59.96043945 -14.38183594 59.31762695 C-15.47173828 58.6627832 -16.56164062 58.00793945 -17.68457031 57.33325195 C-18.79380859 56.6784082 -19.90304687 56.02356445 -21.04589844 55.34887695 C-29.17540678 50.52991549 -29.17540678 50.52991549 -30.37207031 49.33325195 C-34.34980484 22.07957283 -34.34980484 22.07957283 -28.53369141 13.67749023 C-23.91134554 9.66733724 -18.61044068 7.38290055 -12.88769531 5.34692383 C-9.64651122 4.04088769 -7.01167105 2.19115568 -4.24121094 0.08227539 C-2.37207031 -0.66674805 -2.37207031 -0.66674805 0 0 Z " fill="#FA8D02" transform="translate(321.3720703125,112.666748046875)"/>
<path d="M0 0 C2.89628834 1.42024264 5.62944182 3.05967415 8.375 4.75 C9.45007813 5.39582031 9.45007813 5.39582031 10.546875 6.0546875 C11.99277689 6.92640452 13.42666959 7.81834955 14.84790039 8.72973633 C16.96056704 10.05760852 16.96056704 10.05760852 19.27514648 10.86987305 C21.85462295 11.97965116 23.22636975 12.80116175 25 15 C26.17354754 19.71269823 26.36107791 24.19600988 26.31762695 29.03686523 C26.31251992 31.3036581 26.41890376 33.54702446 26.53320312 35.81054688 C26.62546199 40.20842259 26.35348285 43.78061656 25 48 C21.13692687 51.77794225 16.89498591 53.8095974 12 56 C10.60991793 56.82857987 9.23209072 57.67884524 7.87890625 58.56640625 C6.78449219 59.22511719 5.69007813 59.88382812 4.5625 60.5625 C3.45003906 61.24441406 2.33757812 61.92632812 1.19140625 62.62890625 C-2.6128209 64.26328046 -4.03314686 63.97946613 -8 63 C-10.8684082 61.6171875 -10.8684082 61.6171875 -13.80078125 59.875 C-14.85974609 59.25109375 -15.91871094 58.6271875 -17.00976562 57.984375 C-18.09966797 57.32953125 -19.18957031 56.6746875 -20.3125 56 C-21.42173828 55.34515625 -22.53097656 54.6903125 -23.67382812 54.015625 C-31.80333647 49.19666353 -31.80333647 49.19666353 -33 48 C-36.1888982 20.78806866 -36.1888982 20.78806866 -31.71679688 12.67089844 C-28.40032044 9.39988026 -24.41339242 7.99734352 -20.01416016 6.6875 C-16.79555613 5.58888316 -14.26674367 3.75404485 -11.4375 1.875 C-7.12434667 -0.87807659 -4.94940086 -1.51822112 0 0 Z " fill="#FAC950" transform="translate(201,327)"/>
<path d="M0 0 C24.09 0 48.18 0 73 0 C73 6.27 73 12.54 73 19 C48.91 19 24.82 19 0 19 C0 12.73 0 6.46 0 0 Z " fill="#92B1F3" transform="translate(284,278)"/>
<path d="M0 0 C0.33 0 0.66 0 1 0 C0.89937256 1.19898926 0.79874512 2.39797852 0.69506836 3.63330078 C-1.72439095 24.30068728 -1.72439095 24.30068728 3.07775879 43.78607178 C8.39239328 49.9315095 16.49342293 52.56143994 24.01220703 54.95166016 C28.15204191 56.40422193 31.40322115 58.51263152 35 61 C34.2575 61.5775 33.515 62.155 32.75 62.75 C31.8425 63.4925 30.935 64.235 30 65 C29.2575 65.53625 28.515 66.0725 27.75 66.625 C25.0008881 70.35593757 25.17287595 74.47065007 25 79 C16.81330409 75.21753923 9.02970539 70.79889541 1.25 66.25 C0.24888184 65.67096924 -0.75223633 65.09193848 -1.78369141 64.49536133 C-3.18240479 63.67007935 -3.18240479 63.67007935 -4.609375 62.828125 C-5.45467773 62.3321582 -6.29998047 61.83619141 -7.17089844 61.32519531 C-7.77450195 60.88788086 -8.37810547 60.45056641 -9 60 C-9 59.34 -9 58.68 -9 58 C-7.50390625 56.78125 -7.50390625 56.78125 -5.5625 55.5 C-2.77468153 53.7134637 -2.77468153 53.7134637 -1 51 C-0.88127427 49.36664808 -0.82290908 47.72872646 -0.79467773 46.09130859 C-0.77473251 45.07040131 -0.75478729 44.04949402 -0.73423767 42.99765015 C-0.71752518 41.89240997 -0.70081268 40.7871698 -0.68359375 39.6484375 C-0.6524221 37.95468491 -0.6524221 37.95468491 -0.62062073 36.22671509 C-0.55508665 32.60954028 -0.49622226 28.99229119 -0.4375 25.375 C-0.39431846 22.92707556 -0.35070429 20.47915872 -0.30664062 18.03125 C-0.19940133 12.0209125 -0.09764213 6.01050065 0 0 Z " fill="#6B69F3" transform="translate(369,121)"/>
<path d="M0 0 C0.01417969 0.66386719 0.02835937 1.32773438 0.04296875 2.01171875 C0.35429744 7.96228239 0.35429744 7.96228239 3.375 13 C5.20508127 14.39434763 7.08566893 15.72377928 9 17 C9 17.66 9 18.32 9 19 C5.12344166 21.22582818 1.24563681 23.44946451 -2.63330078 25.67114258 C-3.95069676 26.42608572 -5.26775971 27.18161033 -6.58447266 27.93774414 C-8.48511344 29.02906589 -10.38697109 30.11824024 -12.2890625 31.20703125 C-14.00150146 32.18893433 -14.00150146 32.18893433 -15.74853516 33.19067383 C-18.79360694 34.8851495 -21.87039999 36.46836132 -25 38 C-24.979375 37.27554688 -24.95875 36.55109375 -24.9375 35.8046875 C-24.96455054 29.87754936 -24.96455054 29.87754936 -27.84765625 24.93359375 C-29.84390448 23.47249496 -31.82417616 22.1746475 -34 21 C-31.1080266 17.87728178 -28.22126858 15.76675389 -24.53515625 13.65234375 C-23.48779297 13.04712891 -22.44042969 12.44191406 -21.36132812 11.81835938 C-20.27271484 11.19767578 -19.18410156 10.57699219 -18.0625 9.9375 C-15.90748383 8.69673312 -13.75253356 7.45585177 -11.59765625 6.21484375 C-10.64383057 5.66948975 -9.69000488 5.12413574 -8.70727539 4.56225586 C-6.86224516 3.49756577 -5.03100955 2.40869261 -3.21264648 1.29907227 C-1 0 -1 0 0 0 Z " fill="#6865F6" transform="translate(271,162)"/>
<path d="M0 0 C3.465 1.485 3.465 1.485 7 3 C12.57528672 3.69691084 14.32259453 2.43317377 20 0 C20 12.87 20 25.74 20 39 C15 37 15 37 13 36 C8.272765 35.57980133 5.91003176 36.39331216 2 39 C1.34 39 0.68 39 0 39 C0 26.13 0 13.26 0 0 Z " fill="#6763F6" transform="translate(187,268)"/>
<path d="M0 0 C3.465 1.485 3.465 1.485 7 3 C9.46342775 3.22886081 9.46342775 3.22886081 11.6875 2.8125 C12.41324219 2.71582031 13.13898438 2.61914062 13.88671875 2.51953125 C16.39939471 1.98426399 16.39939471 1.98426399 20 0 C20 12.87 20 25.74 20 39 C15 37 15 37 13 36 C8.272765 35.57980133 5.91003176 36.39331216 2 39 C1.34 39 0.68 39 0 39 C0 26.13 0 13.26 0 0 Z " fill="#6763F6" transform="translate(433,268)"/>
<path d="M0 0 C0.33 0 0.66 0 1 0 C1.15855469 0.81339844 1.31710937 1.62679688 1.48046875 2.46484375 C4.11945368 15.42648795 7.40626425 27.98382692 13 40 C13 40.99 13 41.98 13 43 C7.8841266 41.97682532 3.05149047 40.72362852 -1.875 39 C-7.51506531 37.05714974 -13.10821305 35.88144844 -19 35 C-17.76091793 30.94767703 -16.28411344 27.47613855 -14.1015625 23.84765625 C-13.53953125 22.90599609 -12.9775 21.96433594 -12.3984375 20.99414062 C-11.81320312 20.02669922 -11.22796875 19.05925781 -10.625 18.0625 C-9.4709607 16.13695451 -8.31730611 14.2111784 -7.1640625 12.28515625 C-6.62040039 11.38039551 -6.07673828 10.47563477 -5.51660156 9.54345703 C-3.63389842 6.3860196 -1.80750349 3.20097292 0 0 Z " fill="#D0DAFB" transform="translate(286,401)"/>
<path d="M0 0 C0.02578125 0.66386719 0.0515625 1.32773437 0.078125 2.01171875 C0.43063841 7.49971167 0.74381018 11.10862645 5 15 C7.11660427 16.31165257 7.11660427 16.31165257 9 17 C9 17.66 9 18.32 9 19 C6.98046875 20.42041016 6.98046875 20.42041016 4.1875 22.0390625 C3.19492187 22.61914062 2.20234375 23.19921875 1.1796875 23.796875 C0.13039063 24.40015625 -0.91890625 25.0034375 -2 25.625 C-3.04929687 26.23601562 -4.09859375 26.84703125 -5.1796875 27.4765625 C-7.78268858 28.99103586 -10.38951889 30.49846843 -13 32 C-16.1588324 28.28907079 -18.48595492 24.49789353 -20.75 20.1875 C-21.36359375 19.02605469 -21.9771875 17.86460937 -22.609375 16.66796875 C-23.06828125 15.78753906 -23.5271875 14.90710938 -24 14 C-18.65335029 10.26583195 -13.1578255 6.86135145 -7.5 3.625 C-6.87657715 3.26728516 -6.2531543 2.90957031 -5.61083984 2.54101562 C-1.12938977 0 -1.12938977 0 0 0 Z " fill="#6865F5" transform="translate(394,375)"/>
<path d="M0 0 C5.45602849 1.54267898 10.02223036 4.08752597 14.875 6.9375 C15.65875 7.38029297 16.4425 7.82308594 17.25 8.27929688 C17.98992187 8.71177734 18.72984375 9.14425781 19.4921875 9.58984375 C20.16620605 9.98034912 20.84022461 10.37085449 21.53466797 10.77319336 C22.01822754 11.17803955 22.50178711 11.58288574 23 12 C23 15.19028531 22.57516922 16.11255344 21.03125 18.79296875 C20.62519531 19.50517578 20.21914063 20.21738281 19.80078125 20.95117188 C19.37152344 21.68916016 18.94226563 22.42714844 18.5 23.1875 C18.07074219 23.93708984 17.64148438 24.68667969 17.19921875 25.45898438 C16.13853779 27.30928339 15.07001077 29.15508063 14 31 C8.06940991 27.81289155 2.16886894 24.57162662 -3.6875 21.25 C-4.70199219 20.67765625 -5.71648437 20.1053125 -6.76171875 19.515625 C-7.50035156 19.01546875 -8.23898438 18.5153125 -9 18 C-9 17.34 -9 16.68 -9 16 C-7.50390625 14.78125 -7.50390625 14.78125 -5.5625 13.5 C-2.77468153 11.7134637 -2.77468153 11.7134637 -1 9 C-0.77532169 7.46331135 -0.59203195 5.92031946 -0.4375 4.375 C-0.35371094 3.55773437 -0.26992187 2.74046875 -0.18359375 1.8984375 C-0.12300781 1.27195312 -0.06242188 0.64546875 0 0 Z " fill="#6865F5" transform="translate(246,376)"/>
<path d="M0 0 C2.8100346 1.79363911 4.50940468 3.01880935 6 6 C6.37712577 10.99691647 6.09290612 13.99067725 3 18 C-0.66523155 20.4434877 -3.73970357 20.84707648 -8 20 C-10.9375 17.5625 -10.9375 17.5625 -13 15 C-13.33 14.67 -13.66 14.34 -14 14 C-14.58968059 6.92383292 -14.58968059 6.92383292 -12.125 3.0625 C-8.49059499 -0.46501074 -4.90782663 -0.7051475 0 0 Z " fill="#6966F6" transform="translate(284,467)"/>
<path d="M0 0 C3.34139976 0.02999461 4.22721051 0.29795352 7.1875 2.1875 C10.32180405 5.41678296 10.63788997 7.7618388 10.61328125 12.2734375 C10.00965397 15.661539 7.8344052 17.23236899 5.25 19.3125 C4.92 19.6425 4.59 19.9725 4.25 20.3125 C1.31771337 20.60572866 -0.89491883 20.81254247 -3.75 20.3125 C-6.6875 17.875 -6.6875 17.875 -8.75 15.3125 C-9.08 14.9825 -9.41 14.6525 -9.75 14.3125 C-10.04322866 11.38021337 -10.25004247 9.16758117 -9.75 6.3125 C-7.3125 3.375 -7.3125 3.375 -4.75 1.3125 C-3.75 0.3125 -3.75 0.3125 0 0 Z " fill="#6966F6" transform="translate(332.75,492.6875)"/>
<path d="M0 0 C3.0625 1.9375 3.0625 1.9375 5 5 C5.69005003 8.15369971 5.73568899 10.8519355 5 14 C2.5625 17 2.5625 17 0 19 C-0.33 19.33 -0.66 19.66 -1 20 C-5.43946252 20.52228971 -7.51823656 20.29441099 -11.375 17.9375 C-14.51996441 14.41813506 -15.0822804 12.68998307 -15 8 C-12.11715652 0.36046479 -7.6980495 -1.2672796 0 0 Z " fill="#6A67F7" transform="translate(370,467)"/>
</svg>
