<?xml version="1.0" encoding="UTF-8"?>
<svg version="1.1" xmlns="http://www.w3.org/2000/svg" width="640" height="640">
<path d="M0 0 C211.2 0 422.4 0 640 0 C640 211.2 640 422.4 640 640 C428.8 640 217.6 640 0 640 C0 428.8 0 217.6 0 0 Z " fill="#FEFEFE" transform="translate(0,0)"/>
<path d="M0 0 C2.72802734 1.12646484 2.72802734 1.12646484 5.3359375 2.7109375 C6.31006592 3.29166016 7.28419434 3.87238281 8.2878418 4.47070312 C9.81598511 5.41333008 9.81598511 5.41333008 11.375 6.375 C13.51418504 7.66429128 15.65350887 8.95335234 17.79296875 10.2421875 C18.84274902 10.88124023 19.8925293 11.52029297 20.97412109 12.17871094 C23.68618477 13.81111331 26.41769769 15.39236441 29.17578125 16.9453125 C29.9455127 17.38182129 30.71524414 17.81833008 31.50830078 18.26806641 C32.91251097 19.06188722 34.32077692 19.84859696 35.73388672 20.62646484 C36.36182129 20.98691895 36.98975586 21.34737305 37.63671875 21.71875 C38.43662231 22.16637695 38.43662231 22.16637695 39.25268555 22.62304688 C42.92869967 25.51989187 45.68188374 27.71895751 46.3445282 32.47042847 C46.36276854 35.52092316 46.22037834 38.52955848 46.03125 41.57421875 C45.95337787 43.87427055 45.87793379 46.17440561 45.8046875 48.47460938 C45.66250863 52.07982429 45.50038262 55.68082366 45.29394531 59.28295898 C43.82447377 73.33343969 43.82447377 73.33343969 48.66162109 85.88085938 C51.79392652 88.81987851 55.27808011 90.88118969 59 93 C60.433563 94.11744167 61.84791008 95.26078886 63.2265625 96.4453125 C64.35748062 97.34093893 65.49018429 98.23431722 66.625 99.125 C67.20894531 99.59164062 67.79289062 100.05828125 68.39453125 100.5390625 C70.92311165 102.52952396 72.92110636 103.97370212 76 105 C78.72102647 103.72460445 78.72102647 103.72460445 81.6640625 101.81640625 C82.78683594 101.13642578 83.90960938 100.45644531 85.06640625 99.75585938 C86.84161454 98.66596065 88.61261797 97.57026421 90.37744141 96.46362305 C102.70818619 88.77208252 102.70818619 88.77208252 108.78710938 89.3762207 C113.58565742 90.72885643 117.70168809 93.24164188 121.9375 95.8125 C123.43180542 96.69131836 123.43180542 96.69131836 124.95629883 97.58789062 C126.99387132 98.79114946 129.02606809 100.00355877 131.05273438 101.22509766 C133.80899696 102.88497415 136.58067898 104.51477203 139.359375 106.13671875 C140.96978516 107.08939816 142.57921956 108.04372966 144.1875 109 C144.92282959 109.43159424 145.65815918 109.86318848 146.41577148 110.30786133 C147.09712158 110.72189209 147.77847168 111.13592285 148.48046875 111.5625 C149.06723389 111.91441406 149.65399902 112.26632813 150.25854492 112.62890625 C153.50120584 115.18193916 155.71823417 117.16212386 156.3712616 121.42163086 C156.53074714 124.51733689 156.55415134 127.58773024 156.53125 130.6875 C156.5350769 131.82276123 156.53890381 132.95802246 156.54284668 134.12768555 C156.54556537 136.52491138 156.53820731 138.92216689 156.52148438 141.31933594 C156.50007587 144.98700142 156.52128935 148.65270789 156.546875 152.3203125 C156.54423172 154.65104599 156.53910674 156.98177826 156.53125 159.3125 C156.53934692 160.40844482 156.54744385 161.50438965 156.55578613 162.63354492 C156.46299856 170.17335076 156.46299856 170.17335076 154.31152344 174.01464844 C151.8075787 176.16526933 149.36111961 177.83105927 146.484375 179.453125 C144.86499023 180.37629517 144.86499023 180.37629517 143.21289062 181.31811523 C142.07013672 181.95563721 140.92738281 182.59315918 139.75 183.25 C138.5743887 183.91459567 137.39926026 184.58004619 136.22460938 185.24633789 C133.89821763 186.56386605 131.56836838 187.87454408 129.23632812 189.18212891 C126.41454243 190.76714824 123.60292803 192.36782672 120.796875 193.98046875 C119.36476549 194.79979764 117.93249023 195.61883694 116.5 196.4375 C115.85514648 196.80842773 115.21029297 197.17935547 114.54589844 197.56152344 C110.23020094 200 110.23020094 200 108 200 C107.85304688 201.70929688 107.85304688 201.70929688 107.703125 203.453125 C106.59074518 215.50048101 104.56549913 227.18126857 102 239 C103.08571289 239.41318481 103.08571289 239.41318481 104.19335938 239.8347168 C108.84305656 241.76521477 113.12905333 244.32641135 117.5 246.8125 C118.43714844 247.33392578 119.37429688 247.85535156 120.33984375 248.39257812 C131.3131849 254.6263698 131.3131849 254.6263698 134 260 C134.11036536 261.60707758 134.15911485 263.21858225 134.17700195 264.8293457 C134.18983719 265.83411453 134.20267242 266.83888336 134.21589661 267.87409973 C134.22697701 269.50843208 134.22697701 269.50843208 134.23828125 271.17578125 C134.246353 272.29309128 134.25442474 273.41040131 134.26274109 274.56156921 C134.27658946 276.92962081 134.28730823 279.29769243 134.29516602 281.66577148 C134.31238037 285.28733138 134.35626128 288.907979 134.40039062 292.52929688 C134.41051715 294.82811828 134.41903338 297.12694745 134.42578125 299.42578125 C134.44328934 300.50926346 134.46079742 301.59274567 134.47883606 302.70906067 C134.45727928 310.1822872 134.45727928 310.1822872 132.31811523 314.00756836 C129.81184741 316.16171809 127.36461291 317.82908955 124.484375 319.453125 C123.40526855 320.06857178 122.32616211 320.68401855 121.21435547 321.31811523 C120.07111816 321.95563721 118.92788086 322.59315918 117.75 323.25 C116.57008133 323.91474722 115.39055831 324.5801972 114.21142578 325.24633789 C111.87989873 326.56247195 109.54575911 327.87354285 107.20996094 329.18212891 C104.4509733 330.74460395 101.72308168 332.34370494 99.0078125 333.98046875 C98.2952832 334.40360352 97.58275391 334.82673828 96.84863281 335.26269531 C95.58255668 336.01632697 94.32333011 336.78165829 93.07324219 337.56152344 C88.75812094 340.0834117 84.8698356 341.16316751 80 340 C75.60676281 338.01985866 71.54688368 335.57071696 67.4375 333.0625 C66.27748666 332.37192555 65.11650961 331.68296744 63.95458984 330.99560547 C60.6233001 329.0184957 57.31019048 327.01225966 54 325 C51.67386278 323.59070891 49.34769558 322.1814904 47.01977539 320.77514648 C45.2595446 319.70666984 43.5082806 318.62345921 41.7578125 317.5390625 C39.37067531 316.20686412 37.61875079 315.5786019 35 315 C39.30431169 322.9119319 43.63506307 330.80884355 48 338.6875 C48.32092621 339.26693359 48.64185242 339.84636719 48.97250366 340.44335938 C53.64097397 348.86298956 58.42576129 357.20455192 63.3125 365.5 C67.60514366 372.80026289 71.78923283 380.138747 75.75 387.625 C76.15645752 388.38876953 76.56291504 389.15253906 76.98168945 389.93945312 C82.83309138 401.15833503 84.1774818 414.10006967 80.9375 426.5 C76.24504661 439.12336054 67.186541 449.32273592 55 455 C46.69907128 458.32588068 38.70283928 458.40868161 29.8671875 458.328125 C28.37383691 458.3254717 26.88048366 458.32407038 25.38713074 458.32382202 C21.38042186 458.31903411 17.3740515 458.29496095 13.36745071 458.26630402 C10.0272499 458.24445456 6.68704469 458.23300115 3.34679508 458.22139931 C-6.93474145 458.1849306 -17.21580081 458.11076969 -27.49700165 458.02156067 C-29.95162924 458.00041666 -32.40626315 457.98025546 -34.86090088 457.96032715 C-44.53248837 457.88060945 -54.20357647 457.77831537 -63.87465668 457.65122986 C-65.92335691 457.62517983 -67.97207289 457.60189924 -70.02081299 457.57922363 C-73.83570914 457.53406166 -77.65018998 457.47615233 -81.46484375 457.4140625 C-83.11478081 457.39670547 -83.11478081 457.39670547 -84.79804993 457.3789978 C-99.87075926 457.09162086 -112.41593909 454.36543998 -123.875 443.9375 C-133.54442796 433.5379679 -137.58187693 420.50674036 -137.30078125 406.5703125 C-136.08424584 392.12987919 -126.82757194 379.50514481 -119.38330078 367.50805664 C-118.28699838 365.74069919 -117.19558417 363.97030092 -116.10888672 362.19702148 C-113.26877098 357.5767395 -110.35923808 353.04128077 -107.27734375 348.578125 C-99.2226934 336.56988241 -94.87521938 325.89483737 -97.38720703 311.22460938 C-98.25846422 308.06170281 -99.46202302 306.44008896 -102 304.375 C-103.99778262 303.24606705 -105.99815039 302.12170546 -108 301 C-110.84330288 298.77329998 -113.56966718 296.41125487 -116.3125 294.0625 C-117.65368686 292.91766949 -119.00355266 291.78290166 -120.36328125 290.66015625 C-121.23400269 289.92744507 -121.23400269 289.92744507 -122.12231445 289.17993164 C-124.52872863 287.66774861 -126.1500722 287.16257447 -129 287 C-131.93529595 288.1225216 -131.93529595 288.1225216 -134.88671875 289.9296875 C-135.98951172 290.56003906 -137.09230469 291.19039063 -138.22851562 291.83984375 C-139.38172883 292.51785781 -140.53472126 293.19624751 -141.6875 293.875 C-142.85144263 294.54691013 -144.01614956 295.21749813 -145.18164062 295.88671875 C-147.31073102 297.11297492 -149.43634209 298.34530495 -151.55737305 299.58544922 C-155.40721484 301.81493281 -157.48878846 302.36166686 -162 302 C-165.01342773 300.67407227 -165.01342773 300.67407227 -168.18359375 298.81640625 C-168.75671295 298.48533371 -169.32983215 298.15426117 -169.9203186 297.81315613 C-171.76703096 296.74214041 -173.60226972 295.65305335 -175.4375 294.5625 C-176.70118217 293.82293662 -177.96542575 293.08433169 -179.23022461 292.34667969 C-181.70844167 290.89828602 -184.18191075 289.44228182 -186.65136719 287.97900391 C-189.44800333 286.32622375 -192.25410036 284.69327704 -195.0703125 283.07421875 C-205.54553455 276.98504767 -205.54553455 276.98504767 -208 273 C-208.39440918 270.5405426 -208.39440918 270.5405426 -208.41992188 267.76000977 C-208.43583374 266.71535049 -208.45174561 265.67069122 -208.46813965 264.59437561 C-208.46834106 263.47139572 -208.46854248 262.34841583 -208.46875 261.19140625 C-208.48017029 259.45309792 -208.48017029 259.45309792 -208.49182129 257.67967224 C-208.50262447 255.22942255 -208.50547453 252.7791268 -208.50097656 250.32885742 C-208.50000448 246.57978535 -208.54162281 242.83276081 -208.5859375 239.08398438 C-208.5911446 236.70312927 -208.59383269 234.32226705 -208.59375 231.94140625 C-208.61014526 230.82045059 -208.62654053 229.69949493 -208.64343262 228.54457092 C-208.57463277 220.79755121 -208.57463277 220.79755121 -205.83129883 216.98999023 C-202.95961383 214.97161441 -200.11862226 213.02124227 -197.10546875 211.21875 C-196.26570747 210.71365906 -196.26570747 210.71365906 -195.40898132 210.19836426 C-193.61162537 209.12238762 -191.8071731 208.05939602 -190 207 C-189.09873383 206.47019531 -189.09873383 206.47019531 -188.17926025 205.9296875 C-184.52085336 203.78443342 -180.84858487 201.6644528 -177.16625977 199.56054688 C-175.27284158 198.47731119 -173.38350489 197.38716285 -171.49414062 196.296875 C-170.28409375 195.60374824 -169.07381642 194.9110236 -167.86328125 194.21875 C-166.78344971 193.59935547 -165.70361816 192.97996094 -164.59106445 192.34179688 C-162 191 -162 191 -160 191 C-159.86722656 189.7315625 -159.73445313 188.463125 -159.59765625 187.15625 C-159.21500646 183.70632808 -158.76313995 180.27605668 -158.24609375 176.84375 C-158.11396484 175.96589844 -157.98183594 175.08804688 -157.84570312 174.18359375 C-157.57347875 172.39394643 -157.29743332 170.60487618 -157.01757812 168.81640625 C-156.17179399 163.14173637 -155.86588412 157.73782738 -156 152 C-156.73114014 151.60731934 -157.46228027 151.21463867 -158.21557617 150.81005859 C-160.95149292 149.33281548 -163.68088383 147.84430654 -166.40649414 146.34814453 C-168.15754709 145.39136632 -169.91564326 144.44751471 -171.67382812 143.50390625 C-172.78564453 142.89160156 -173.89746094 142.27929688 -175.04296875 141.6484375 C-176.06414795 141.09333496 -177.08532715 140.53823242 -178.13745117 139.96630859 C-181.46882082 137.67796308 -184.20609597 135.65203042 -186 132 C-186.69564154 128.13632828 -186.65382577 124.35030873 -186.59375 120.43359375 C-186.59379028 119.32194351 -186.59383057 118.21029327 -186.59387207 117.06495667 C-186.58852262 114.72073699 -186.57096482 112.37651743 -186.54199219 110.0324707 C-186.50010185 106.44621965 -186.50092918 102.86184536 -186.5078125 99.27539062 C-186.49732081 96.99477863 -186.48438282 94.7141763 -186.46875 92.43359375 C-186.46854858 91.36265976 -186.46834717 90.29172577 -186.46813965 89.18833923 C-186.31805372 79.74361199 -186.31805372 79.74361199 -183 76 C-180.97314453 74.42944336 -180.97314453 74.42944336 -178.6328125 73.08984375 C-177.7569751 72.58026123 -176.8811377 72.07067871 -175.97875977 71.5456543 C-175.03701904 71.01496338 -174.09527832 70.48427246 -173.125 69.9375 C-171.66888306 69.10182495 -171.66888306 69.10182495 -170.18334961 68.24926758 C-168.14963222 67.08303749 -166.11336447 65.92124473 -164.07470703 64.76367188 C-161.06785515 63.03892215 -158.0920792 61.27006573 -155.12109375 59.484375 C-153.2684007 58.3851275 -151.41554255 57.28615822 -149.5625 56.1875 C-148.7060791 55.66599365 -147.8496582 55.1444873 -146.96728516 54.60717773 C-142.16116605 51.79924194 -138.70972299 50.0221279 -133 51 C-130.18891759 52.11794671 -127.65560642 53.57452242 -125.0625 55.125 C-124.30759277 55.5593335 -123.55268555 55.99366699 -122.77490234 56.44116211 C-120.17309132 57.94397275 -117.58612715 59.47036431 -115 61 C-111.7884519 62.88964971 -108.57573817 64.77725974 -105.36108398 66.66162109 C-103.22791021 67.91464946 -101.09840899 69.17395418 -98.97290039 70.43994141 C-97.99442139 71.0179248 -97.01594238 71.5959082 -96.0078125 72.19140625 C-95.13785645 72.70904541 -94.26790039 73.22668457 -93.37158203 73.76000977 C-90.31153315 75.35996738 -88.32998302 76.34562418 -84.91625977 75.45849609 C-84.18205811 75.14992676 -83.44785645 74.84135742 -82.69140625 74.5234375 C-81.44520508 74.01103516 -81.44520508 74.01103516 -80.17382812 73.48828125 C-79.31208984 73.12089844 -78.45035156 72.75351563 -77.5625 72.375 C-75.87676112 71.67337525 -74.19055432 70.97287381 -72.50390625 70.2734375 C-71.63910645 69.91217773 -70.77430664 69.55091797 -69.88330078 69.17871094 C-64.62418465 67.0287522 -59.31051968 65.01890992 -54 63 C-53.99589111 61.99622314 -53.99178223 60.99244629 -53.98754883 59.95825195 C-53.96571688 56.22108156 -53.91138706 52.48495799 -53.84741211 48.74829102 C-53.82426714 47.13348451 -53.80984457 45.51852779 -53.80444336 43.90356445 C-53.79512726 41.57668852 -53.75408632 39.25216324 -53.70703125 36.92578125 C-53.7109639 36.20787918 -53.71489655 35.48997711 -53.71894836 34.75032043 C-53.60669781 30.86258391 -53.13509934 29.1641687 -50.63427734 26.12524414 C-45.96300449 22.35662225 -40.77520155 19.50525637 -35.59228516 16.51318359 C-32.53811118 14.7303836 -29.51046349 12.90561092 -26.48046875 11.08203125 C-24.7364623 10.04389235 -22.99086785 9.00850137 -21.24423218 7.97479248 C-19.52408932 6.95182589 -17.81237954 5.91472176 -16.10083008 4.87744141 C-14.48857544 3.93070557 -14.48857544 3.93070557 -12.84375 2.96484375 C-11.40805664 2.10814087 -11.40805664 2.10814087 -9.94335938 1.23413086 C-6.34229606 -0.27577085 -3.87555265 -0.39639434 0 0 Z " fill="#082C76" transform="translate(346,92)"/>
<path d="M0 0 C14.52 0 29.04 0 44 0 C43.92136719 4.49753906 43.84273438 8.99507813 43.76171875 13.62890625 C43.74082036 16.53225093 43.72388833 19.43460238 43.72070312 22.33789062 C43.71531986 26.91553644 43.69773958 31.49007711 43.59204102 36.06665039 C43.15895027 55.69888903 44.69579725 70.10340287 56.40475464 86.70248413 C58.58923529 89.84863274 60.43552723 93.13853822 62.27734375 96.4921875 C63.49706053 98.61998391 64.71710795 100.74759082 65.9375 102.875 C71.63675611 112.82100052 77.25963468 122.80745529 82.8359375 132.82299805 C86.35198784 139.11739194 89.94670636 145.3591977 93.60449219 151.57226562 C96.4263472 156.36806611 99.21747537 161.18130261 102 166 C102.63784424 167.09272217 102.63784424 167.09272217 103.28857422 168.20751953 C107.77137643 175.97452396 110.8057318 182.87032105 109 192 C106.90247596 198.07178013 103.9373042 202.82228106 99 207 C98.38125 207.556875 97.7625 208.11375 97.125 208.6875 C92.29089227 211.67327242 87.06573163 212.24919171 81.49047852 212.20410156 C79.5600193 212.19645782 79.5600193 212.19645782 77.59056091 212.18865967 C76.16584085 212.17281297 74.74112268 212.15679492 73.31640625 212.140625 C71.78748652 212.13066985 70.25856019 212.12168941 68.72962952 212.11358643 C65.34405088 212.09427408 61.9585734 212.06914901 58.57305908 212.04077148 C52.65925534 211.99384737 46.74550183 211.97741856 40.83154297 211.96289062 C30.9344364 211.93687568 21.03770718 211.88592331 11.14081383 211.81606293 C5.4217416 211.77620465 -0.29716173 211.74413883 -6.01635742 211.72900391 C-11.65900257 211.71383481 -17.30123309 211.67946801 -22.94369316 211.63169098 C-25.06499074 211.61697331 -27.18634693 211.60896458 -29.30769539 211.60811615 C-32.25514576 211.60574098 -35.20143322 211.57864706 -38.14868164 211.54589844 C-39.0021669 211.5509288 -39.85565216 211.55595917 -40.73500061 211.56114197 C-48.70196776 211.42480309 -55.88087789 209.19933599 -61.875 203.8125 C-67.89987488 197.06122177 -70.074853 189.93569075 -69.73828125 180.88671875 C-68.37074718 173.6872669 -64.58036018 167.92888359 -60.73388672 161.77929688 C-58.78065028 158.64839803 -56.87412577 155.49057369 -54.97265625 152.328125 C-52.05355348 147.48163617 -49.11653398 142.64654232 -46.1640625 137.8203125 C-42.74590348 132.23137747 -39.36043649 126.62381519 -36 121 C-32.64650183 115.39094821 -29.27210344 109.79522428 -25.87109375 104.21484375 C-16.07228301 88.14398904 -16.07228301 88.14398904 -6.5 71.9375 C-6.04939209 71.16462646 -5.59878418 70.39175293 -5.13452148 69.59545898 C-2.17468389 64.46119091 -0.87979197 60.95701503 -0.79467773 55.05981445 C-0.77473251 53.83877518 -0.75478729 52.6177359 -0.73423767 51.35969543 C-0.71752518 50.04087875 -0.70081268 48.72206207 -0.68359375 47.36328125 C-0.6630174 45.99992756 -0.64202075 44.63658015 -0.62062073 43.27323914 C-0.5654703 39.68778578 -0.51603013 36.10227552 -0.46777344 32.51672363 C-0.41750701 28.85680089 -0.3618999 25.19695958 -0.30664062 21.53710938 C-0.19864016 14.35813538 -0.09956283 7.17911586 0 0 Z " fill="#FDFDFE" transform="translate(299,318)"/>
<path d="M0 0 C0.85948242 0.51763916 1.71896484 1.03527832 2.60449219 1.56860352 C3.57652588 2.14666748 4.54855957 2.72473145 5.55004883 3.3203125 C7.08520142 4.24952515 7.08520142 4.24952515 8.65136719 5.19750977 C10.80057468 6.46924275 12.95031959 7.74006793 15.10058594 9.01000977 C18.12492924 10.80764824 21.14756251 12.60793319 24.16552734 14.41625977 C26.58842871 15.86106271 29.02388421 17.28181023 31.46386719 18.69750977 C32.52299316 19.34320923 32.52299316 19.34320923 33.60351562 20.00195312 C34.2702832 20.38488525 34.93705078 20.76781738 35.62402344 21.16235352 C36.47105835 21.66496704 36.47105835 21.66496704 37.33520508 22.17773438 C41.71491076 23.41200095 45.54291907 22.17911743 49.51928711 20.23779297 C50.54642822 19.60188232 51.57356934 18.96597168 52.63183594 18.31079102 C53.77560555 17.62115444 54.91948904 16.9317067 56.06347656 16.24243164 C57.83735768 15.15421099 59.6078017 14.06075169 61.37573242 12.96289062 C63.09870479 11.89875063 64.83387781 10.85444459 66.56933594 9.81079102 C67.59309326 9.17826416 68.61685059 8.5457373 69.67163086 7.89404297 C72.40136719 6.76000977 72.40136719 6.76000977 74.58569336 7.42431641 C77.34337296 9.45299263 79.94626501 11.63886574 82.52636719 13.88500977 C83.68301816 14.8782476 84.84058013 15.87042547 85.99902344 16.86157227 C86.85778076 17.59682129 86.85778076 17.59682129 87.73388672 18.34692383 C94.35823329 24.05596379 94.35823329 24.05596379 101.51051331 29.04985046 C103.40136719 30.76000977 103.40136719 30.76000977 103.84873962 33.05451965 C103.82477615 33.953535 103.80081268 34.85255035 103.77612305 35.77880859 C103.75968246 36.80029495 103.74324188 37.82178131 103.7263031 38.8742218 C103.68997269 39.97735214 103.65364227 41.08048248 103.61621094 42.21704102 C103.58023 44.54972064 103.54442832 46.88240303 103.50878906 49.21508789 C103.42798649 52.89541156 103.33879306 56.57538445 103.24389648 60.25537109 C103.15936342 63.80504551 103.10535181 67.35425879 103.05371094 70.90454102 C103.01535629 72.00159866 102.97700165 73.09865631 102.93748474 74.22895813 C102.76954436 80.66196024 102.76954436 80.66196024 105.53710938 86.25927734 C108.4395215 88.79332162 111.21896902 90.74132311 114.57714844 92.62719727 C115.14717087 92.95164825 115.7171933 93.27609924 116.30448914 93.61038208 C118.101514 94.62988383 119.90726278 95.63260144 121.71386719 96.63500977 C122.94430362 97.32922677 124.17412778 98.02453016 125.40332031 98.72094727 C128.39570466 100.41323411 131.39613845 102.0906149 134.40136719 103.76000977 C134.12873047 105.72067383 134.12873047 105.72067383 133.85058594 107.72094727 C133.67305786 109.00400757 133.67305786 109.00400757 133.49194336 110.31298828 C133.22043314 112.21388875 132.93515053 114.11286696 132.63696289 116.00976562 C131.92144683 120.6177506 131.3302887 125.07298056 131.30761719 129.74047852 C131.16975979 134.43107642 130.90607781 138.68266936 128.40136719 142.76000977 C122.99230408 147.59538436 116.08630156 150.31879924 109.54101562 153.27416992 C104.24480788 155.7806023 99.244764 158.76481847 94.21386719 161.76000977 C92.80754028 162.57078979 92.80754028 162.57078979 91.37280273 163.39794922 C90.50179932 163.9093042 89.6307959 164.42065918 88.73339844 164.94750977 C87.96745361 165.39481445 87.20150879 165.84211914 86.41235352 166.30297852 C84.06658886 168.0025686 82.79552558 169.20270335 81.40136719 171.76000977 C81.0770837 174.44143689 80.91336464 176.9044851 80.88964844 179.58813477 C80.87169724 180.3371405 80.85374603 181.08614624 80.83525085 181.85784912 C80.78122176 184.24184601 80.74727716 186.62564357 80.71386719 189.01000977 C80.68068743 190.62982912 80.64619716 192.24962221 80.61035156 193.86938477 C80.52550003 197.83278242 80.45865429 201.79612174 80.40136719 205.76000977 C74.95636719 207.74000977 74.95636719 207.74000977 69.40136719 209.76000977 C63.00300657 201.15953043 61.34205054 195.35453305 61.43652344 184.73657227 C61.42745468 183.43223236 61.41838593 182.12789246 61.40904236 180.7840271 C61.39433321 178.04546391 61.40497241 175.30850722 61.43383789 172.57006836 C61.46833868 169.06839184 61.43453545 165.57113256 61.3816309 162.0698185 C61.34091685 158.70843714 61.36034991 155.34817522 61.37402344 151.98657227 C61.35469254 150.73445953 61.33536163 149.4823468 61.31544495 148.19229126 C61.47448089 139.76400545 61.47448089 139.76400545 64.18087769 136.8324585 C66.88854851 135.07835887 69.13369706 133.76000977 72.40136719 133.76000977 C76.43555362 125.97979308 76.77383895 119.32033833 76.77197266 110.66821289 C76.77634109 108.39856644 76.81268219 106.13087462 76.85058594 103.86157227 C76.85645619 102.40324552 76.86042419 100.94490962 76.86230469 99.48657227 C76.87052246 98.17253418 76.87874023 96.85849609 76.88720703 95.50463867 C76.20124669 90.21757351 74.50467536 86.47283337 70.25390625 83.01123047 C63.46756901 79.7066841 57.64889432 78.98258965 50.15136719 78.94750977 C48.30551025 78.91633057 48.30551025 78.91633057 46.42236328 78.88452148 C43.51719599 78.83940241 40.61250385 78.8146543 37.70703125 78.79956055 C33.75523404 78.77639096 29.8048051 78.72144227 25.85351562 78.65405273 C19.80372329 78.55123475 13.75414545 78.47804339 7.70373535 78.42300415 C5.26052903 78.39776106 2.81738894 78.36491536 0.37438965 78.3243103 C-3.10388811 78.27024887 -6.58092636 78.24949715 -10.05957031 78.23657227 C-11.10436554 78.21396835 -12.14916077 78.19136444 -13.22561646 78.16807556 C-19.95550734 78.18710716 -24.40732529 79.37106167 -29.59863281 83.76000977 C-34.02284522 88.63798754 -34.77017021 91.71870873 -34.83691406 98.14672852 C-34.84498581 98.88196243 -34.85305756 99.61719635 -34.8613739 100.37471008 C-34.875215 101.93402754 -34.88593705 103.4933753 -34.89379883 105.05273438 C-34.91094276 107.42125245 -34.95481674 109.78834896 -34.99902344 112.15649414 C-35.00915693 113.67406203 -35.01767098 115.19164177 -35.02441406 116.70922852 C-35.04192215 117.41053391 -35.05943024 118.11183929 -35.07746887 118.83439636 C-35.05357575 124.33668153 -33.60828124 127.3231977 -30.59863281 131.76000977 C-27.88902481 134.27135377 -26.10006033 135.59286726 -22.59863281 136.76000977 C-22.48237582 144.44467615 -22.39373464 152.12925044 -22.33957195 159.81459808 C-22.31356554 163.38395934 -22.27833553 166.95271546 -22.22143555 170.52172852 C-22.16678997 173.97123593 -22.13714504 177.42016429 -22.1242466 180.87007141 C-22.11061976 182.8154716 -22.07163833 184.76064136 -22.03215027 186.70568848 C-22.02988157 193.91832218 -22.50980805 199.33905272 -27.59863281 204.76000977 C-29.95497897 206.70589242 -31.68897386 207.59614619 -34.59863281 208.76000977 C-38.61873493 207.42286997 -41.82341393 204.37290661 -45.09863281 201.76000977 C-45.64777344 201.32817383 -46.19691406 200.89633789 -46.76269531 200.45141602 C-47.98234703 199.4860863 -49.18074923 198.49357647 -50.36206055 197.48168945 C-52.65353947 195.62159705 -52.65353947 195.62159705 -55.7277832 194.07739258 C-59.5429735 191.71409492 -62.45300268 189.76473311 -64.59863281 185.76000977 C-66.51072437 177.23923059 -65.49877977 168.1546646 -65.03613281 159.51000977 C-64.88275269 155.93001661 -64.74714041 152.35102499 -64.63990784 148.76934814 C-64.56958434 146.54893131 -64.470835 144.32918243 -64.33995056 142.11151123 C-64.01991595 135.71703479 -64.01991595 135.71703479 -66.84375 130.19677734 C-69.11935479 128.183944 -71.07045373 126.56661582 -73.74316406 125.16235352 C-74.50306641 124.75307617 -75.26296875 124.34379883 -76.04589844 123.92211914 C-76.82642578 123.51799805 -77.60695312 123.11387695 -78.41113281 122.69750977 C-79.96045558 121.87544664 -81.50864171 121.05123761 -83.05566406 120.22485352 C-83.8067041 119.82508301 -84.55774414 119.4253125 -85.33154297 119.01342773 C-88.84401224 117.07147025 -92.22647657 114.93445919 -95.59863281 112.76000977 C-94.90387206 107.42308551 -94.18348018 102.09132816 -93.41894531 96.76391602 C-92.89525892 93.08580994 -92.46237615 89.42680491 -92.15332031 85.72485352 C-91.10623645 75.11138504 -91.10623645 75.11138504 -87.33691406 71.73266602 C-84.47363281 70.32250977 -84.47363281 70.32250977 -81.23535156 69.12719727 C-76.92204233 67.50565244 -73.21356513 65.33157696 -69.28613281 62.94750977 C-67.83994593 62.08221121 -66.39332933 61.21763046 -64.94628906 60.35375977 C-64.22844238 59.92321289 -63.5105957 59.49266602 -62.77099609 59.04907227 C-60.62070612 57.77310788 -58.45495004 56.52856704 -56.28222656 55.29125977 C-55.59878174 54.89656494 -54.91533691 54.50187012 -54.21118164 54.09521484 C-52.92329133 53.35152582 -51.63039987 52.61640479 -50.33178711 51.89160156 C-46.48150846 49.64243949 -44.49687651 47.7796174 -42.59863281 43.76000977 C-42.28098114 41.11745638 -42.11117405 38.69552017 -42.08691406 36.05297852 C-42.06896286 35.32758377 -42.05101166 34.60218903 -42.03251648 33.85481262 C-41.97861065 31.55243634 -41.9445828 29.25026497 -41.91113281 26.94750977 C-41.87794214 25.38042408 -41.84345085 23.81336537 -41.80761719 22.24633789 C-41.72289622 18.41771019 -41.65599214 14.58914117 -41.59863281 10.76000977 C-37.01624811 8.8714633 -32.42654478 7.00246643 -27.82910156 5.15087891 C-26.26738762 4.51877972 -24.70777552 3.88146084 -23.15039062 3.23876953 C-20.90674234 2.31394516 -18.65611574 1.40837803 -16.40332031 0.50610352 C-15.36701981 0.07182289 -15.36701981 0.07182289 -14.30978394 -0.37123108 C-8.81328037 -2.53863543 -5.30493466 -2.53135693 0 0 Z " fill="#FDFDFE" transform="translate(300.5986328125,179.239990234375)"/>
<path d="M0 0 C1.47746201 -0.00451675 1.47746201 -0.00451675 2.98477173 -0.00912476 C4.58293228 0.00155533 4.58293228 0.00155533 6.21337891 0.01245117 C7.32627289 0.01232025 8.43916687 0.01218933 9.58578491 0.01205444 C13.20396544 0.0152287 16.82182551 0.03404465 20.43994141 0.05541992 C22.91292307 0.06561783 25.38590484 0.07579033 27.85888672 0.0859375 C33.86526592 0.115312 39.87136145 0.16202645 45.87756348 0.21618652 C48.71445044 0.23998026 51.55122964 0.25657882 54.38818359 0.26928711 C58.53143923 0.29008341 62.67235561 0.35294014 66.81494141 0.43041992 C67.95108887 0.435979 69.08723633 0.44153809 70.2578125 0.44726562 C78.25827255 0.67117981 84.69454095 2.34807787 90.77685547 7.76855469 C95.46650707 13.70021826 94.74823137 21.43803958 94.60693359 28.6159668 C94.56490064 30.87010616 94.5658895 33.12126498 94.57275391 35.37573242 C94.51333911 43.5771285 94.31950461 49.46058971 88.75244141 55.93041992 C85.99128098 58.30630215 83.33468148 59.67795467 80.06494141 61.24291992 C79.78302396 68.70206572 79.57178646 76.16064098 79.44319534 83.62395 C79.3813705 87.09256296 79.29804006 90.5574555 79.15966797 94.02392578 C78.45549712 112.15401831 79.87926354 125.1485793 90.60498047 140.1590271 C92.57854372 142.97601637 94.18085172 145.88823647 95.80712891 148.91870117 C96.32782959 149.85504395 96.84853027 150.79138672 97.38500977 151.75610352 C97.89813721 152.67987793 98.41126465 153.60365234 98.93994141 154.55541992 C103.53542805 162.79873817 108.22143266 170.98090715 113.00244141 179.11791992 C146.76246465 236.66731547 146.76246465 236.66731547 143.63916016 259.33276367 C140.23164697 272.2311418 131.07090655 282.08952303 119.98291016 288.88354492 C110.70519832 293.2056918 102.06645586 293.66344185 91.93212891 293.57104492 C90.43877832 293.56839163 88.94542507 293.5669903 87.45207214 293.56674194 C83.44536326 293.56195403 79.43899291 293.53788087 75.43239212 293.50922394 C72.09219131 293.48737448 68.7519861 293.47592107 65.41173649 293.46431923 C55.13019996 293.42785052 44.84914059 293.35368961 34.56793976 293.26448059 C32.11331216 293.24333658 29.65867826 293.22317538 27.20404053 293.20324707 C17.53245304 293.12352938 7.86136493 293.0212353 -1.80971527 292.89414978 C-3.8584155 292.86809976 -5.90713148 292.84481916 -7.95587158 292.82214355 C-11.77076773 292.77698158 -15.58524858 292.71907225 -19.39990234 292.65698242 C-20.49986038 292.64541107 -21.59981842 292.63383972 -22.73310852 292.62191772 C-37.80581785 292.33454078 -50.35099769 289.6083599 -61.81005859 279.18041992 C-71.47948656 268.78088782 -75.51693552 255.74966028 -75.23583984 241.81323242 C-74.0192971 227.37271209 -64.76258343 214.74853552 -57.31860352 202.7512207 C-56.22166587 200.98293952 -55.12943996 199.21172747 -54.04174805 197.43774414 C-51.2102756 192.83334007 -48.31256608 188.30902983 -45.24755859 183.85620117 C-37.93796568 172.90365879 -34.49133531 164.53483488 -35.06689453 151.18505859 C-35.36196768 143.99417472 -35.36196768 143.99417472 -33.03271484 139.89526367 C-28.75922258 135.69101432 -23.06582719 133.19595511 -17.79638672 130.4753418 C-16.97460938 130.02868164 -16.15283203 129.58202148 -15.30615234 129.12182617 C-14.56292725 128.73583252 -13.81970215 128.34983887 -13.05395508 127.95214844 C-8.97986844 124.66574671 -7.21461322 121.41247391 -6.55577087 116.29936218 C-6.37587844 112.67266541 -6.32917915 109.06548081 -6.32568359 105.43432617 C-6.31068361 104.09909579 -6.29395266 102.76388383 -6.27557373 101.42869568 C-6.2320907 97.9353037 -6.21194406 94.44216191 -6.19683838 90.94854736 C-6.17719787 87.37529828 -6.13523604 83.8023167 -6.09521484 80.22924805 C-6.02011999 73.23390666 -5.96970358 66.23857551 -5.93505859 59.24291992 C-6.53189453 59.12303711 -7.12873047 59.0031543 -7.74365234 58.87963867 C-12.26169565 57.56690951 -15.15879211 54.54021047 -17.49951172 50.62841797 C-19.12656003 46.79129569 -19.38597188 43.52436629 -19.36865234 39.43041992 C-19.3738942 38.69847412 -19.37913605 37.96652832 -19.38453674 37.21240234 C-19.39092857 35.67278302 -19.3896569 34.13311469 -19.38110352 32.59350586 C-19.37258139 30.24919138 -19.40140886 27.90730747 -19.43310547 25.56323242 C-19.43471758 24.06062898 -19.43413977 22.55802126 -19.43115234 21.05541992 C-19.44238632 20.36150146 -19.4536203 19.66758301 -19.4651947 18.95263672 C-19.38347096 13.19521428 -17.31914287 9.69852672 -13.37255859 5.63354492 C-8.84462285 2.04072635 -5.83183581 -0.00966406 0 0 Z M15.06494141 61.24291992 C15.07396484 65.48393555 15.08298828 69.72495117 15.09228516 74.09448242 C15.07986844 77.51533691 15.06046292 80.93599615 15.03639984 84.35678101 C15.01303629 87.94639727 15.00145826 91.5350918 15.02026367 95.12475586 C15.0379544 98.59429483 15.02078749 102.06219444 14.98126411 105.5315361 C14.96769649 107.47311901 14.98855278 109.4148473 15.01048279 111.35635376 C14.85115161 121.33054303 12.04090834 127.78373962 7.06494141 136.24291992 C6.40227768 137.38341797 5.73961395 138.52391602 5.05686951 139.69897461 C3.14336742 142.94927754 1.17376808 146.16008941 -0.81005859 149.36791992 C-1.55498482 150.58270747 -2.29927239 151.79788686 -3.04296875 153.01342773 C-4.57866698 155.52216501 -6.11701306 158.02924468 -7.65771484 160.53491211 C-11.227264 166.34281868 -14.77048647 172.166705 -18.31005859 177.99291992 C-18.65356354 178.55805298 -18.99706848 179.12318604 -19.35098267 179.70544434 C-25.28780305 189.47713587 -31.15699414 199.28843124 -36.99755859 209.11791992 C-37.38925232 209.77642944 -37.78094604 210.43493896 -38.18450928 211.11340332 C-40.41683333 214.86823247 -42.63557421 218.6306495 -44.84469604 222.39916992 C-45.9627175 224.28968978 -47.10112403 226.16686646 -48.24194336 228.04370117 C-48.9759722 229.27393954 -49.70962917 230.50439988 -50.44287109 231.73510742 C-51.09529785 232.8138916 -51.74772461 233.89267578 -52.41992188 235.00415039 C-55.49253527 241.57219572 -55.13897119 248.2607475 -53.07177734 255.09838867 C-49.82243688 262.47919296 -44.73967463 267.56362068 -37.38935852 270.80793762 C-32.66506932 272.53368542 -28.30071981 272.68361317 -23.31079102 272.67529297 C-22.38073242 272.68548462 -21.45067383 272.69567627 -20.49243164 272.70617676 C-17.425068 272.73627944 -14.35801946 272.74558978 -11.29052734 272.75463867 C-9.12135333 272.77153347 -6.95218881 272.78968992 -4.78303528 272.80903625 C0.94258553 272.85654766 6.66816829 272.88628678 12.3939209 272.91247559 C18.08838325 272.94180894 23.78269619 272.98874862 29.47705078 273.03393555 C39.32549553 273.1098716 49.17384459 273.1608471 59.02250862 273.19752312 C64.76723691 273.22099563 70.51109789 273.26461293 76.25543308 273.33579159 C79.51250011 273.37478967 82.76960307 273.40251788 86.02680016 273.42807961 C87.49045705 273.44238775 88.9540746 273.46191057 90.41758156 273.48727989 C99.41795472 273.64109178 106.87109348 273.26259895 114.75244141 268.68041992 C121.32900739 261.74836389 124.65421915 254.16498206 124.51806641 244.65698242 C123.65457346 238.15100969 120.29380888 232.83225531 117.06494141 227.24291992 C116.17075686 225.66012594 115.27758471 224.07675973 114.38525391 222.49291992 C112.37023573 218.93391792 110.33682533 215.38615096 108.29150391 211.84448242 C105.09662528 206.30991021 101.95177241 200.74804125 98.81494141 195.18041992 C93.61844954 185.96727802 88.37429574 176.78189812 83.11676025 167.60351562 C77.4814323 157.76207248 71.91828899 147.88236821 66.4050293 137.97192383 C65.86225342 136.99787598 65.31947754 136.02382813 64.76025391 135.02026367 C64.28604004 134.16682373 63.81182617 133.31338379 63.32324219 132.43408203 C62.30584802 130.6624265 61.19819462 128.94279974 60.06494141 127.24291992 C59.78646851 124.37654114 59.78646851 124.37654114 59.74609375 120.84375 C59.73604813 120.19957626 59.7260025 119.55540253 59.71565247 118.89170837 C59.68479436 116.76529827 59.66777848 114.63901422 59.65087891 112.51245117 C59.63216932 111.03699151 59.61259606 109.56154257 59.5921936 108.08610535 C59.54084404 104.20474567 59.50123359 100.32335129 59.46405029 96.4418335 C59.41699031 91.78360971 59.35538043 87.12555848 59.29620361 82.46747589 C59.20795686 75.39269344 59.13821776 68.31794464 59.06494141 61.24291992 C44.54494141 61.24291992 30.02494141 61.24291992 15.06494141 61.24291992 Z " fill="#072B76" transform="translate(283.93505859375,256.757080078125)"/>
<path d="M0 0 C5.51349257 4.07090735 10.88602522 8.28235655 16.1875 12.625 C19.20697866 15.09071868 19.20697866 15.09071868 22.23974609 17.54003906 C23.75752583 18.79889105 25.19477132 20.15369547 26.61328125 21.5234375 C27.40089844 22.01070312 28.18851562 22.49796875 29 23 C33.15528408 21.94666881 36.49130025 20.26353413 40.08203125 17.9609375 C41.01466797 17.38085938 41.94730469 16.80078125 42.90820312 16.203125 C44.83956056 14.98742187 46.76413558 13.76087438 48.68164062 12.5234375 C53.60137491 9.48965779 57.79711525 6.93381766 63.71020508 7.41796875 C68.56810706 8.65277399 72.6851491 11.2316038 76.9375 13.8125 C77.93370361 14.39837891 78.92990723 14.98425781 79.95629883 15.58789062 C81.99387132 16.79114946 84.02606809 18.00355877 86.05273438 19.22509766 C88.80899696 20.88497415 91.58067898 22.51477203 94.359375 24.13671875 C95.96978516 25.08939816 97.57921956 26.04372966 99.1875 27 C99.92282959 27.43159424 100.65815918 27.86318848 101.41577148 28.30786133 C102.09712158 28.72189209 102.77847168 29.13592285 103.48046875 29.5625 C104.06723389 29.91441406 104.65399902 30.26632813 105.25854492 30.62890625 C108.50120584 33.18193916 110.71823417 35.16212386 111.3712616 39.42163086 C111.53074714 42.51733689 111.55415134 45.58773024 111.53125 48.6875 C111.5350769 49.82276123 111.53890381 50.95802246 111.54284668 52.12768555 C111.54556537 54.52491138 111.53820731 56.92216689 111.52148438 59.31933594 C111.50007587 62.98700142 111.52128935 66.65270789 111.546875 70.3203125 C111.54423172 72.65104599 111.53910674 74.98177826 111.53125 77.3125 C111.53934692 78.40844482 111.54744385 79.50438965 111.55578613 80.63354492 C111.46299856 88.17335076 111.46299856 88.17335076 109.31152344 92.01464844 C106.8075787 94.16526933 104.36111961 95.83105927 101.484375 97.453125 C99.86499023 98.37629517 99.86499023 98.37629517 98.21289062 99.31811523 C97.07013672 99.95563721 95.92738281 100.59315918 94.75 101.25 C93.5743887 101.91459567 92.39926026 102.58004619 91.22460938 103.24633789 C88.89821763 104.56386605 86.56836838 105.87454408 84.23632812 107.18212891 C81.41454243 108.76714824 78.60292803 110.36782672 75.796875 111.98046875 C74.36476549 112.79979764 72.93249023 113.61883694 71.5 114.4375 C70.85514648 114.80842773 70.21029297 115.17935547 69.54589844 115.56152344 C65.23020094 118 65.23020094 118 63 118 C62.90203125 119.13953125 62.8040625 120.2790625 62.703125 121.453125 C61.59074518 133.50048101 59.56549913 145.18126857 57 157 C57.72380859 157.27545654 58.44761719 157.55091309 59.19335938 157.8347168 C63.84305656 159.76521477 68.12905333 162.32641135 72.5 164.8125 C73.90572266 165.59463867 73.90572266 165.59463867 75.33984375 166.39257812 C86.3131849 172.6263698 86.3131849 172.6263698 89 178 C89.11036536 179.60707758 89.15911485 181.21858225 89.17700195 182.8293457 C89.19625481 184.33649895 89.19625481 184.33649895 89.21589661 185.87409973 C89.22328354 186.96365463 89.23067047 188.05320953 89.23828125 189.17578125 C89.246353 190.29309128 89.25442474 191.41040131 89.26274109 192.56156921 C89.27658946 194.92962081 89.28730823 197.29769243 89.29516602 199.66577148 C89.31238037 203.28733138 89.35626128 206.907979 89.40039062 210.52929688 C89.41051715 212.82811828 89.41903338 215.12694745 89.42578125 217.42578125 C89.44328934 218.50926346 89.46079742 219.59274567 89.47883606 220.70906067 C89.45727928 228.1822872 89.45727928 228.1822872 87.31811523 232.00756836 C84.81184741 234.16171809 82.36461291 235.82908955 79.484375 237.453125 C78.40526855 238.06857178 77.32616211 238.68401855 76.21435547 239.31811523 C75.07111816 239.95563721 73.92788086 240.59315918 72.75 241.25 C71.57008133 241.91474722 70.39055831 242.5801972 69.21142578 243.24633789 C66.87989873 244.56247195 64.54575911 245.87354285 62.20996094 247.18212891 C59.4509733 248.74460395 56.72308168 250.34370494 54.0078125 251.98046875 C53.2952832 252.40360352 52.58275391 252.82673828 51.84863281 253.26269531 C50.58255668 254.01632697 49.32333011 254.78165829 48.07324219 255.56152344 C43.75812094 258.0834117 39.8698356 259.16316751 35 258 C30.60674415 256.01985025 26.5471041 253.5703726 22.4375 251.0625 C21.2767946 250.37258733 20.11508469 249.68436195 18.95239258 248.99780273 C13.98216648 246.05236257 9.0528257 243.04108728 4.140625 240 C3.45685791 239.57968506 2.77309082 239.15937012 2.06860352 238.72631836 C0.32194367 237.64567884 -1.41188226 236.54437038 -3.14453125 235.44140625 C-6.15904996 233.9197135 -7.7044554 233.87211526 -11 234 C-12.7004792 231.04894616 -14.38311093 228.08809878 -16.0625 225.125 C-16.54783203 224.28324219 -17.03316406 223.44148437 -17.53320312 222.57421875 C-17.98759766 221.76855469 -18.44199219 220.96289062 -18.91015625 220.1328125 C-19.54642944 219.01737061 -19.54642944 219.01737061 -20.19555664 217.87939453 C-20.46102295 217.25919434 -20.72648926 216.63899414 -21 216 C-20 214 -20 214 -17.71484375 213.1484375 C-16.79832031 212.89320313 -15.88179688 212.63796875 -14.9375 212.375 C-14.01839844 212.11460937 -13.09929687 211.85421875 -12.15234375 211.5859375 C-11.44207031 211.39257812 -10.73179687 211.19921875 -10 211 C-10.02094727 209.99622314 -10.04189453 208.99244629 -10.06347656 207.95825195 C-10.13606694 204.22174434 -10.18186811 200.48529863 -10.21972656 196.74829102 C-10.23979892 195.13327542 -10.2670633 193.51833211 -10.30175781 191.90356445 C-10.35047215 189.57745499 -10.37301154 187.25230907 -10.390625 184.92578125 C-10.41127014 184.20787918 -10.43191528 183.48997711 -10.45318604 182.75032043 C-10.45472042 179.29516279 -10.11966566 177.19802232 -8.3203125 174.22045898 C-5.8407207 171.84757521 -3.47280636 170.23191582 -0.484375 168.546875 C1.13500977 167.62370483 1.13500977 167.62370483 2.78710938 166.68188477 C3.92986328 166.04436279 5.07261719 165.40684082 6.25 164.75 C7.4256113 164.08540433 8.60073974 163.41995381 9.77539062 162.75366211 C12.10178237 161.43613395 14.43163162 160.12545592 16.76367188 158.81787109 C19.58545757 157.23285176 22.39707197 155.63217328 25.203125 154.01953125 C26.63523451 153.20020236 28.06750977 152.38116306 29.5 151.5625 C30.14485352 151.19157227 30.78970703 150.82064453 31.45410156 150.43847656 C35.76979906 148 35.76979906 148 38 148 C37.96724976 146.48164551 37.96724976 146.48164551 37.93383789 144.93261719 C37.99697649 141.17971497 38.41168255 137.77021477 39.05859375 134.078125 C39.27966797 132.80582031 39.50074219 131.53351563 39.72851562 130.22265625 C39.90314331 129.24449951 39.90314331 129.24449951 40.08129883 128.24658203 C40.43887681 126.24228268 40.78752541 124.23658239 41.13476562 122.23046875 C42.85226739 112.44319784 42.85226739 112.44319784 44 109 C43.27546631 108.72309326 42.55093262 108.44618652 41.80444336 108.16088867 C37.18836197 106.25007932 32.91322429 103.75696361 28.5625 101.3125 C27.1693457 100.55549805 27.1693457 100.55549805 25.74804688 99.78320312 C24.84248047 99.27337891 23.93691406 98.76355469 23.00390625 98.23828125 C22.18736572 97.78493408 21.3708252 97.33158691 20.52954102 96.86450195 C16.28773938 93.73790808 12.47694468 90.89822569 11.57936096 85.44392395 C11.53798357 82.38207926 11.6918296 79.38266417 11.90625 76.328125 C11.99188784 74.03133477 12.07514663 71.73445482 12.15625 69.4375 C12.31713933 65.84299695 12.49980511 62.25308625 12.7265625 58.66210938 C14.05252014 45.87559492 14.05252014 45.87559492 10.72698975 33.89602661 C7.56299746 30.42672203 3.83665807 28.12408104 -0.28796387 25.94354248 C-2.57948252 24.68063386 -4.47137984 23.0971506 -6.4296875 21.37109375 C-7.01621094 20.87416016 -7.60273438 20.37722656 -8.20703125 19.86523438 C-9.03267578 19.15850586 -9.03267578 19.15850586 -9.875 18.4375 C-10.47957031 17.93154297 -11.08414062 17.42558594 -11.70703125 16.90429688 C-13.17811924 15.64836801 -14.59540826 14.32987941 -16 13 C-16 12.34 -16 11.68 -16 11 C-13.91904721 9.60181346 -11.85287677 8.31662363 -9.6875 7.0625 C-6.12111328 4.9798538 -2.85918754 3.01871532 0 0 Z " fill="#082C77" transform="translate(391,174)"/>
<path d="M0 0 C2.72802734 1.12646484 2.72802734 1.12646484 5.3359375 2.7109375 C6.31006592 3.29166016 7.28419434 3.87238281 8.2878418 4.47070312 C9.306604 5.09912109 10.32536621 5.72753906 11.375 6.375 C13.51418504 7.66429128 15.65350887 8.95335234 17.79296875 10.2421875 C18.84274902 10.88124023 19.8925293 11.52029297 20.97412109 12.17871094 C23.68618477 13.81111331 26.41769769 15.39236441 29.17578125 16.9453125 C29.9455127 17.38182129 30.71524414 17.81833008 31.50830078 18.26806641 C32.91251097 19.06188722 34.32077692 19.84859696 35.73388672 20.62646484 C36.36182129 20.98691895 36.98975586 21.34737305 37.63671875 21.71875 C38.16998779 22.01716797 38.70325684 22.31558594 39.25268555 22.62304688 C42.91503118 25.50912056 45.58298359 27.8032795 46.46812439 32.46594238 C46.66172146 35.49861632 46.69292021 38.49248978 46.6640625 41.53125 C46.66884613 42.64052856 46.67362976 43.74980713 46.67855835 44.8927002 C46.68195338 47.23268048 46.67277895 49.57270845 46.65185547 51.91259766 C46.62508696 55.48838351 46.65161965 59.0610302 46.68359375 62.63671875 C46.68028959 64.91406941 46.67388322 67.19141812 46.6640625 69.46875 C46.67418365 70.53452271 46.68430481 71.60029541 46.69473267 72.69836426 C46.56453588 80.96939594 46.56453588 80.96939594 43.84545898 84.48071289 C40.947285 87.04667234 38.1911552 88.96183097 34.80859375 90.83984375 C34.22263931 91.16988907 33.63668488 91.49993439 33.03297424 91.83998108 C31.17394803 92.88394763 29.30626891 93.91109559 27.4375 94.9375 C25.60324405 95.96014687 23.77091062 96.98618028 21.93862915 98.01235962 C20.72939856 98.68764213 19.51843973 99.35983937 18.30575562 100.02890015 C14.31704171 102.23358661 10.42537038 104.56556876 6.53515625 106.94140625 C-1.06413765 111.33216547 -1.06413765 111.33216547 -6 111 C-9.19036827 109.8141243 -12.01965553 108.17776276 -14.9375 106.4375 C-15.78779785 105.95313477 -16.6380957 105.46876953 -17.51416016 104.96972656 C-22.53352124 102.09402267 -27.48429488 99.10748469 -32.43359375 96.11328125 C-33.50552979 95.47140869 -34.57746582 94.82953613 -35.68188477 94.16821289 C-37.78218008 92.90649409 -39.87291906 91.62870495 -41.95288086 90.33374023 C-42.91460205 89.75438721 -43.87632324 89.17503418 -44.8671875 88.578125 C-45.71394043 88.05637695 -46.56069336 87.53462891 -47.43310547 86.99707031 C-52.77360137 84.92263762 -57.78150891 87.52789932 -62.859375 89.50390625 C-63.48982727 89.7466478 -64.12027954 89.98938934 -64.76983643 90.23948669 C-66.76534308 91.00847543 -68.7578431 91.78487884 -70.75 92.5625 C-72.75674262 93.3428465 -74.76408712 94.12150844 -76.77301025 94.89622498 C-78.58554355 95.59559506 -80.39585819 96.3007071 -82.20605469 97.00610352 C-85 98 -85 98 -87 98 C-87.06058594 96.73542969 -87.12117188 95.47085938 -87.18359375 94.16796875 C-87.26800904 92.50780129 -87.35265655 90.84764563 -87.4375 89.1875 C-87.49647461 87.93743164 -87.49647461 87.93743164 -87.55664062 86.66210938 C-87.59853516 85.85966797 -87.64042969 85.05722656 -87.68359375 84.23046875 C-87.72025146 83.49207764 -87.75690918 82.75368652 -87.79467773 81.99291992 C-87.94842141 79.792505 -87.94842141 79.792505 -89 77 C-77.49680576 71.89606171 -65.7818805 67.41525381 -54 63 C-53.99589111 61.99622314 -53.99178223 60.99244629 -53.98754883 59.95825195 C-53.96571688 56.22108156 -53.91138706 52.48495799 -53.84741211 48.74829102 C-53.82426714 47.13348451 -53.80984457 45.51852779 -53.80444336 43.90356445 C-53.79512726 41.57668852 -53.75408632 39.25216324 -53.70703125 36.92578125 C-53.71293022 35.84892815 -53.71293022 35.84892815 -53.71894836 34.75032043 C-53.60669781 30.86258391 -53.13509934 29.1641687 -50.63427734 26.12524414 C-45.96300449 22.35662225 -40.77520155 19.50525637 -35.59228516 16.51318359 C-32.53811118 14.7303836 -29.51046349 12.90561092 -26.48046875 11.08203125 C-24.7364623 10.04389235 -22.99086785 9.00850137 -21.24423218 7.97479248 C-19.52408932 6.95182589 -17.81237954 5.91472176 -16.10083008 4.87744141 C-15.02599365 4.24628418 -13.95115723 3.61512695 -12.84375 2.96484375 C-11.88662109 2.3937085 -10.92949219 1.82257324 -9.94335938 1.23413086 C-6.34229606 -0.27577085 -3.87555265 -0.39639434 0 0 Z " fill="#082C75" transform="translate(346,92)"/>
<path d="M0 0 C3.79881211 1.67281894 7.31576173 3.74666173 10.875 5.875 C11.88353027 6.46345703 12.89206055 7.05191406 13.93115234 7.65820312 C15.981838 8.85673588 18.02891483 10.0614655 20.07226562 11.27246094 C22.73770018 12.84522736 25.41769846 14.38678687 28.109375 15.9140625 C29.61486047 16.77555754 31.12008681 17.63750566 32.625 18.5 C33.3041748 18.88397949 33.98334961 19.26795898 34.68310547 19.66357422 C39.20765324 22.29953498 43.58986255 25.1797251 46 30 C46.11036536 31.60707758 46.15911485 33.21858225 46.17700195 34.8293457 C46.19625481 36.33649895 46.19625481 36.33649895 46.21589661 37.87409973 C46.22328354 38.96365463 46.23067047 40.05320953 46.23828125 41.17578125 C46.246353 42.29309128 46.25442474 43.41040131 46.26274109 44.56156921 C46.27658946 46.92962081 46.28730823 49.29769243 46.29516602 51.66577148 C46.31238037 55.28733138 46.35626128 58.907979 46.40039062 62.52929688 C46.41051715 64.82811828 46.41903338 67.12694745 46.42578125 69.42578125 C46.44328934 70.50926346 46.46079742 71.59274567 46.47883606 72.70906067 C46.45727928 80.1822872 46.45727928 80.1822872 44.31811523 84.00756836 C41.81184741 86.16171809 39.36461291 87.82908955 36.484375 89.453125 C35.40526855 90.06857178 34.32616211 90.68401855 33.21435547 91.31811523 C32.07111816 91.95563721 30.92788086 92.59315918 29.75 93.25 C28.57008133 93.91474722 27.39055831 94.5801972 26.21142578 95.24633789 C23.87989873 96.56247195 21.54575911 97.87354285 19.20996094 99.18212891 C16.4509733 100.74460395 13.72308168 102.34370494 11.0078125 103.98046875 C10.2952832 104.40360352 9.58275391 104.82673828 8.84863281 105.26269531 C7.58255668 106.01632697 6.32333011 106.78165829 5.07324219 107.56152344 C0.75812094 110.0834117 -3.1301644 111.16316751 -8 110 C-12.39325585 108.01985025 -16.4528959 105.5703726 -20.5625 103.0625 C-21.7232054 102.37258733 -22.88491531 101.68436195 -24.04760742 100.99780273 C-29.01783352 98.05236257 -33.9471743 95.04108728 -38.859375 92 C-39.54314209 91.57968506 -40.22690918 91.15937012 -40.93139648 90.72631836 C-42.67805633 89.64567884 -44.41188226 88.54437038 -46.14453125 87.44140625 C-49.15904996 85.9197135 -50.7044554 85.87211526 -54 86 C-55.7004792 83.04894616 -57.38311093 80.08809878 -59.0625 77.125 C-59.54783203 76.28324219 -60.03316406 75.44148438 -60.53320312 74.57421875 C-60.98759766 73.76855469 -61.44199219 72.96289062 -61.91015625 72.1328125 C-62.33433838 71.38918457 -62.75852051 70.64555664 -63.19555664 69.87939453 C-63.46102295 69.25919434 -63.72648926 68.63899414 -64 68 C-63 66 -63 66 -60.71484375 65.1484375 C-59.79832031 64.89320313 -58.88179688 64.63796875 -57.9375 64.375 C-56.55884766 63.98441406 -56.55884766 63.98441406 -55.15234375 63.5859375 C-54.44207031 63.39257812 -53.73179687 63.19921875 -53 63 C-53.02094727 61.99622314 -53.04189453 60.99244629 -53.06347656 59.95825195 C-53.13606694 56.22174434 -53.18186811 52.48529863 -53.21972656 48.74829102 C-53.23979892 47.13327542 -53.2670633 45.51833211 -53.30175781 43.90356445 C-53.35047215 41.57745499 -53.37301154 39.25230907 -53.390625 36.92578125 C-53.41127014 36.20787918 -53.43191528 35.48997711 -53.45318604 34.75032043 C-53.45472042 31.29516279 -53.11966566 29.19802232 -51.3203125 26.22045898 C-48.8407207 23.84757521 -46.47280636 22.23191582 -43.484375 20.546875 C-42.40518799 19.93142822 -41.32600098 19.31598145 -40.21411133 18.68188477 C-39.07095459 18.04436279 -37.92779785 17.40684082 -36.75 16.75 C-35.57079929 16.085278 -34.39200871 15.41982792 -33.21362305 14.75366211 C-30.88295216 13.43729649 -28.54952615 12.12628974 -26.21435547 10.81787109 C-23.44511259 9.25173237 -20.70302743 7.65209516 -17.97265625 6.01953125 C-16.89709473 5.3848291 -16.89709473 5.3848291 -15.79980469 4.73730469 C-14.52186454 3.98184425 -13.24978625 3.21633029 -11.98535156 2.43847656 C-7.76471468 -0.01415306 -4.82981554 -0.75889922 0 0 Z " fill="#082C76" transform="translate(434,322)"/>
<path d="M0 0 C2.81104404 1.11793145 5.34491495 2.5736506 7.9375 4.125 C8.69240723 4.56223389 9.44731445 4.99946777 10.22509766 5.44995117 C11.89594464 6.41972591 13.56308745 7.39590245 15.22705078 8.37744141 C18.2581561 10.151057 21.3124791 11.87975555 24.37109375 13.60546875 C26.53955356 14.84028389 28.70752724 16.07595311 30.875 17.3125 C31.91519287 17.89854004 32.95538574 18.48458008 34.02709961 19.08837891 C35.00557861 19.65347168 35.98405762 20.21856445 36.9921875 20.80078125 C37.86214355 21.29747314 38.73209961 21.79416504 39.62841797 22.3059082 C42.58146668 24.41535899 44.18337482 25.80999895 46 29 C46.57634298 32.82507798 46.53648658 36.60682613 46.49609375 40.46875 C46.49754898 41.58181519 46.49900421 42.69488037 46.50050354 43.8416748 C46.49884568 46.19183981 46.4872972 48.54201581 46.46655273 50.89208984 C46.43760369 54.48712331 46.44594617 58.08068139 46.45898438 61.67578125 C46.45274661 63.96094466 46.44435538 66.24610342 46.43359375 68.53125 C46.43652939 69.60532104 46.43946503 70.67939209 46.44248962 71.78601074 C46.32353857 81.20651845 46.32353857 81.20651845 43 85 C41.13818359 86.57226563 41.13818359 86.57226563 39.0234375 87.90625 C38.22647461 88.41027344 37.42951172 88.91429687 36.60839844 89.43359375 C31.99254919 92.20552269 27.32589707 94.87522856 22.625 97.5 C21.66078125 98.04269531 20.6965625 98.58539063 19.703125 99.14453125 C17.7696159 100.23051022 15.8324539 101.31001242 13.89160156 102.3828125 C11.9360225 103.47651021 9.99535244 104.59723134 8.06933594 105.7421875 C-1.21039874 111.14453389 -1.21039874 111.14453389 -7 110 C-10.18034402 108.69204669 -13.09830054 107.04909574 -16.0625 105.3125 C-16.91650391 104.82571777 -17.77050781 104.33893555 -18.65039062 103.83740234 C-20.47961527 102.79000235 -22.30453542 101.73505555 -24.12548828 100.67333984 C-27.09233687 98.94624793 -30.07443048 97.24775216 -33.05859375 95.55078125 C-35.03999878 94.41047952 -37.02049026 93.2685887 -39 92.125 C-39.937229 91.59044189 -40.87445801 91.05588379 -41.84008789 90.50512695 C-42.71785889 89.99038818 -43.59562988 89.47564941 -44.5 88.9453125 C-45.2734375 88.49687988 -46.046875 88.04844727 -46.84375 87.58642578 C-49.67017124 85.50693244 -51.22182263 84.08197563 -53 81 C-53.57920086 77.17550949 -53.53648423 73.39294919 -53.49609375 69.53125 C-53.49754898 68.41818481 -53.49900421 67.30511963 -53.50050354 66.1583252 C-53.49884568 63.80816019 -53.4872972 61.45798419 -53.46655273 59.10791016 C-53.43760369 55.51287669 -53.44594617 51.91931861 -53.45898438 48.32421875 C-53.45274661 46.03905534 -53.44435538 43.75389658 -53.43359375 41.46875 C-53.43652939 40.39467896 -53.43946503 39.32060791 -53.44248962 38.21398926 C-53.32286504 28.74013994 -53.32286504 28.74013994 -50 25 C-47.97314453 23.42944336 -47.97314453 23.42944336 -45.6328125 22.08984375 C-44.7569751 21.58026123 -43.8811377 21.07067871 -42.97875977 20.5456543 C-42.03701904 20.01496338 -41.09527832 19.48427246 -40.125 18.9375 C-39.15425537 18.3803833 -38.18351074 17.8232666 -37.18334961 17.24926758 C-35.14963222 16.08303749 -33.11336447 14.92124473 -31.07470703 13.76367188 C-28.06785515 12.03892215 -25.0920792 10.27006573 -22.12109375 8.484375 C-20.2684007 7.3851275 -18.41554255 6.28615822 -16.5625 5.1875 C-15.7060791 4.66599365 -14.8496582 4.1444873 -13.96728516 3.60717773 C-9.16116605 0.79924194 -5.70972299 -0.9778721 0 0 Z " fill="#082C75" transform="translate(213,143)"/>
<path d="M0 0 C19.32048291 1.12773744 19.32048291 1.12773744 26.4296875 6.6875 C28.85663585 9.71864679 30.42210972 13.02149746 32.046875 16.51953125 C40.448281 33.9105996 52.80766878 50.43569151 67.86328125 62.64453125 C68.33636719 63.09828125 68.80945313 63.55203125 69.296875 64.01953125 C69.296875 64.67953125 69.296875 65.33953125 69.296875 66.01953125 C69.82796875 66.25542969 70.3590625 66.49132812 70.90625 66.734375 C73.37489953 68.06147581 75.56548405 69.62349192 77.81201172 71.29370117 C89.6955077 80.11852643 102.3368004 86.89405131 115.96875 92.609375 C118.47030863 93.66930771 120.89161042 94.76223385 123.296875 96.01953125 C118.62098712 97.5119365 114.74039922 98.26369082 109.78735352 98.22363281 C107.8568943 98.21598907 107.8568943 98.21598907 105.88743591 98.20819092 C104.46271585 98.19234422 103.03799768 98.17632617 101.61328125 98.16015625 C100.08436152 98.1502011 98.55543519 98.14122066 97.02650452 98.13311768 C93.64092588 98.11380533 90.2554484 98.08868026 86.86993408 98.06030273 C80.95613034 98.01337862 75.04237683 97.99694981 69.12841797 97.98242188 C59.2313114 97.95640693 49.33458218 97.90545456 39.43768883 97.83559418 C33.7186166 97.7957359 27.99971327 97.76367008 22.28051758 97.74853516 C16.63787243 97.73336606 10.99564191 97.69899926 5.35318184 97.65122223 C3.23188426 97.63650456 1.11052807 97.62849583 -1.01082039 97.6276474 C-3.95827076 97.62527223 -6.90455822 97.59817831 -9.85180664 97.56542969 C-10.7052919 97.57046005 -11.55877716 97.57549042 -12.43812561 97.58067322 C-20.40509276 97.44433434 -27.58400289 95.21886724 -33.578125 89.83203125 C-39.60299988 83.08075302 -41.777978 75.955222 -41.44140625 66.90625 C-40.07488013 59.71210457 -36.28975775 53.96101262 -32.44580078 47.81640625 C-30.46320296 44.63447284 -28.53216083 41.42294313 -26.60546875 38.20703125 C-20.39365754 27.86123788 -14.0848129 17.57392059 -7.703125 7.33203125 C-7.30029297 6.68540527 -6.89746094 6.0387793 -6.48242188 5.37255859 C-3.12498332 0.02257936 -3.12498332 0.02257936 0 0 Z " fill="#92B1F3" transform="translate(270.703125,431.98046875)"/>
<path d="M0 0 C0.70640625 0.28875 1.4128125 0.5775 2.140625 0.875 C4.98935922 1.99581346 7.85054228 3.01817305 10.75 4 C11.71421875 4.33 12.6784375 4.66 13.671875 5 C20.92516407 7.17939202 27.72884875 8.38874542 35.3125 8.375 C36.59096802 8.3747583 36.59096802 8.3747583 37.89526367 8.37451172 C48.76792342 8.18542198 59.4209319 5.94885572 69.82421875 2.8671875 C73 2 73 2 77 2 C77.33 1.34 77.66 0.68 78 0 C78.2902002 0.54076172 78.58040039 1.08152344 78.87939453 1.63867188 C84.83428681 12.70869367 90.93010308 23.67020317 97.3125 34.5 C99.55013254 38.32845895 101.77777126 42.16258338 104 46 C104.42812988 46.73283203 104.85625977 47.46566406 105.29736328 48.22070312 C109.77671457 55.98261787 112.80433212 62.87739774 111 72 C108.88647306 78.1181043 105.87557903 82.783283 101 87 C100.34 87.66 99.68 88.32 99 89 C91.63297131 88.84079113 86.15205709 86.63852854 79.625 83.375 C78.69671387 82.91988037 77.76842773 82.46476074 76.81201172 81.99584961 C70.24410413 78.73034823 63.97745121 75.26588451 58 71 C57.39929688 70.57541504 56.79859375 70.15083008 56.1796875 69.71337891 C54.15415593 68.27713801 52.13760125 66.82929956 50.125 65.375 C49.49352051 64.91939697 48.86204102 64.46379395 48.21142578 63.99438477 C44.48316455 61.2502053 41.2187213 58.34619542 38 55 C37.195625 54.24203125 36.39125 53.4840625 35.5625 52.703125 C20.38988391 38.17812057 6.93214256 19.95822742 0 0 Z " fill="#D1DBFC" transform="translate(297,438)"/>
<path d="M0 0 C1.75209166 1.23903573 3.48211243 2.50993025 5.1875 3.8125 C6.84180921 4.76577679 8.51216789 5.69188213 10.19921875 6.5859375 C11.75810444 7.4526001 13.31665089 8.31987295 14.875 9.1875 C17.618125 10.71375 20.36125 12.24 23.1875 13.8125 C23.1875 25.3625 23.1875 36.9125 23.1875 48.8125 C10.75 55.75 10.75 55.75 6.82250977 57.93725586 C5.80987061 58.50323486 4.79723145 59.06921387 3.75390625 59.65234375 C2.71177979 60.23363037 1.66965332 60.81491699 0.59594727 61.41381836 C-1.68809403 62.60263865 -1.68809403 62.60263865 -2.8125 63.8125 C-13.12889089 63.32055429 -23.7427664 58.38213134 -31.56982422 51.828125 C-38.86706948 42.01584833 -35.26469595 25.21596176 -33.8125 13.8125 C-30.06126084 11.36366294 -26.27781264 8.97969587 -22.45385742 6.64697266 C-21.16061024 5.84642954 -19.87736835 5.0294721 -18.60522461 4.19580078 C-6.64243343 -3.61720714 -6.64243343 -3.61720714 0 0 Z " fill="#FBCA50" transform="translate(192.8125,307.1875)"/>
<path d="M0 0 C4.19243032 1.00938174 7.6513471 2.79250596 11.328125 5.00390625 C12.29234375 5.57947266 13.2565625 6.15503906 14.25 6.74804688 C15.24 7.34681641 16.23 7.94558594 17.25 8.5625 C19.23413213 9.7517074 21.2184954 10.94052925 23.203125 12.12890625 C24.07614258 12.65556885 24.94916016 13.18223145 25.84863281 13.72485352 C27.20608166 14.5294331 28.58861326 15.29430663 30 16 C30.3234878 20.69497556 30.5580634 25.3833894 30.71411133 30.08691406 C30.77916664 31.68246408 30.86766316 33.27724814 30.98071289 34.87011719 C31.34695836 40.1665902 31.40385713 44.84737791 30 50 C26.17189449 53.8715672 21.94799014 55.84278485 17 58 C15.59764076 58.82740237 14.20796651 59.67751962 12.84375 60.56640625 C11.7403125 61.22511719 10.636875 61.88382813 9.5 62.5625 C7.81390625 63.58537109 7.81390625 63.58537109 6.09375 64.62890625 C2.52110067 66.21223947 1.65597791 66.06883962 -2 65 C-4.01959322 64.01319833 -6.00356118 62.95181902 -7.95703125 61.83984375 C-9.06884766 61.21142578 -10.18066406 60.58300781 -11.32617188 59.93554688 C-12.48836675 59.26968046 -13.65047506 58.60366294 -14.8125 57.9375 C-15.99378217 57.26694627 -17.17541945 56.59701769 -18.35742188 55.92773438 C-21.24183374 54.29127213 -24.1224665 52.64851754 -27 51 C-30.82402078 20.97163168 -30.82402078 20.97163168 -24.69287109 13.00048828 C-18.95569385 8.35856427 -12.46383772 5.4268562 -5.54370117 2.95678711 C-2.81442349 2.03969 -2.81442349 2.03969 0 0 Z " fill="#FB8E01" transform="translate(341,114)"/>
<path d="M0 0 C1.93735837 0.97245638 3.83688591 2.02219426 5.703125 3.125 C6.7653125 3.74890625 7.8275 4.3728125 8.921875 5.015625 C10.56929688 5.99789062 10.56929688 5.99789062 12.25 7 C13.36375 7.65484375 14.4775 8.3096875 15.625 8.984375 C23.8234747 13.8234747 23.8234747 13.8234747 25 15 C26.72624811 25.51860513 28.67098171 38.75740582 25 49 C19.12362074 56.5997647 9.817291 59.90474162 1 63 C-0.23399536 63.64533691 -0.23399536 63.64533691 -1.49291992 64.30371094 C-4 65 -4 65 -6.81494141 63.97363281 C-7.81702637 63.38936523 -8.81911133 62.80509766 -9.8515625 62.203125 C-10.94984375 61.5740625 -12.048125 60.945 -13.1796875 60.296875 C-14.32831264 59.61489927 -15.47674826 58.93260425 -16.625 58.25 C-17.78029959 57.58168768 -18.93654179 56.915002 -20.09375 56.25 C-24.12493285 53.91665651 -28.12396529 51.58402314 -32 49 C-32.45410037 46.48443723 -32.70432091 44.22000832 -32.8203125 41.68359375 C-32.85762482 40.95514252 -32.89493713 40.22669128 -32.93338013 39.47616577 C-33.03077839 37.12949697 -33.08724926 34.7858656 -33.125 32.4375 C-33.13768921 31.64967133 -33.15037842 30.86184265 -33.16345215 30.05014038 C-33.22477972 17.24866964 -33.22477972 17.24866964 -30.70800781 12.62792969 C-27.40378642 9.32764892 -23.43707469 7.94718554 -19.01855469 6.67138672 C-15.77259943 5.59175719 -13.22642467 3.75580256 -10.375 1.875 C-6.29768049 -0.69473919 -4.62525376 -1.3132402 0 0 Z " fill="#D0DBFC" transform="translate(456,205)"/>
<path d="M0 0 C2.77602492 1.13582708 5.40665883 2.44641413 8.03564453 3.8894043 C11.41512787 5.73974657 14.54739892 7.22326854 18.26171875 8.27734375 C22.99637239 9.88505759 26.49740779 11.49720862 29 16 C30.35574425 21.6913496 30.6522546 27.22962294 30.75 33.0625 C30.78019226 33.82623932 30.81038452 34.58997864 30.8414917 35.37686157 C30.99238473 40.58225396 30.72468817 45.05495468 29 50 C25.12480088 53.76973049 20.90070389 55.81278039 16 58 C14.59880517 58.82937276 13.20950512 59.67988549 11.84375 60.56640625 C10.7403125 61.22511719 9.636875 61.88382813 8.5 62.5625 C6.81390625 63.58537109 6.81390625 63.58537109 5.09375 64.62890625 C0.81671472 66.52441052 -1.52883336 65.48871591 -5.86254883 64.04907227 C-14.10757304 60.76472298 -22.4586149 57.16047293 -28 50 C-31.7655037 39.6064212 -29.47087486 26.68896078 -28 16 C-24.33424729 13.88134239 -20.66805947 11.76344032 -17.00146484 9.64624023 C-15.75394874 8.92574531 -14.5065522 8.20504332 -13.25927734 7.48413086 C-11.46743592 6.44851209 -9.67516716 5.41363643 -7.8828125 4.37890625 C-6.26463623 3.44413452 -6.26463623 3.44413452 -4.61376953 2.49047852 C-3.0955855 1.62474776 -1.56316922 0.78158461 0 0 Z " fill="#B0D852" transform="translate(209,165)"/>
<path d="M0 0 C2.91801723 1.15066484 5.52166692 2.64732328 8.23144531 4.22802734 C8.80288269 4.55955307 9.37432007 4.8910788 9.96307373 5.23265076 C11.77920914 6.28771365 13.59127797 7.34954691 15.40332031 8.41162109 C16.6374328 9.13017111 17.87180507 9.84827514 19.10644531 10.56591797 C22.12509679 12.32182953 25.14014021 14.08383325 28.15332031 15.84912109 C30.84397618 45.39520096 30.84397618 45.39520096 26.64599609 52.34423828 C22.78652027 55.90728288 18.23589085 57.59834963 13.2734375 59.12695312 C10.32108883 60.13260114 7.95325437 61.76561826 5.40332031 63.53662109 C1.8264328 65.92335719 1.8264328 65.92335719 -1.12011719 65.59838867 C-4.29365967 64.72628965 -6.71649492 63.39839225 -9.54980469 61.72412109 C-10.61199219 61.10021484 -11.67417969 60.47630859 -12.76855469 59.83349609 C-13.86683594 59.17865234 -14.96511719 58.52380859 -16.09667969 57.84912109 C-17.21042969 57.19427734 -18.32417969 56.53943359 -19.47167969 55.86474609 C-27.67015439 51.02564639 -27.67015439 51.02564639 -28.84667969 49.84912109 C-32.67988789 21.58710251 -32.67988789 21.58710251 -27.10644531 13.24414062 C-22.73833594 9.44951428 -17.73507147 7.48741641 -12.27246094 5.74902344 C-9.03172131 4.54679253 -6.41538074 2.7452298 -3.63574219 0.71557617 C-1.84667969 -0.15087891 -1.84667969 -0.15087891 0 0 Z " fill="#FB7C9F" transform="translate(430.8466796875,344.15087890625)"/>
<path d="M0 0 C24.09 0 48.18 0 73 0 C73 6.6 73 13.2 73 20 C48.64223978 20.11673048 24.34275466 19.87778124 0 19 C0 12.73 0 6.46 0 0 Z " fill="#91B0F2" transform="translate(285,278)"/>
<path d="M0 0 C4.20622677 1.49253208 7.89585945 3.6107476 11.71875 5.87890625 C14.14920068 7.07332294 16.3343292 7.58231567 19 8 C17.90035902 20.92078151 15.91473244 33.36477638 13 46 C8.81483124 44.41582521 5.1200861 42.39871306 1.28125 40.12109375 C-1.14920068 38.92667706 -3.3343292 38.41768433 -6 38 C-6.10356062 33.2022009 -5.76478595 28.76801203 -4.94140625 24.04296875 C-4.72033203 22.76615234 -4.49925781 21.48933594 -4.27148438 20.17382812 C-4.15506592 19.51970947 -4.03864746 18.86559082 -3.91870117 18.19165039 C-3.56053645 16.17645218 -3.21222607 14.15972715 -2.86523438 12.14257812 C-1.13831967 2.27663934 -1.13831967 2.27663934 0 0 Z " fill="#6A66F6" transform="translate(435,284)"/>
<path d="M0 0 C1.02480469 0.56589844 2.04960937 1.13179687 3.10546875 1.71484375 C4.46595725 2.45607541 5.82664489 3.19694164 7.1875 3.9375 C7.86103516 4.31068359 8.53457031 4.68386719 9.22851562 5.06835938 C12.80620758 7.00554868 15.8986345 8.49827956 20 9 C19.00128679 18.17641194 17.8632527 27.31670876 16.4375 36.4375 C16.31076904 37.25968018 16.18403809 38.08186035 16.0534668 38.92895508 C15.12394681 44.75210639 15.12394681 44.75210639 14 47 C10.22328934 45.96140457 7.1878946 44.57153516 3.9375 42.4375 C0.96849403 40.49995292 -1.4014741 39.3373618 -5 39 C-4.13643303 30.79156871 -3.03830633 22.61671329 -1.9375 14.4375 C-1.7492568 13.03321548 -1.56110505 11.62891869 -1.37304688 10.22460938 C-0.91641825 6.81626431 -0.45855415 3.4080866 0 0 Z " fill="#6965F6" transform="translate(191,244)"/>
<path d="M0 0 C0.029729 0.83978394 0.029729 0.83978394 0.06005859 1.6965332 C0.15537783 4.23565854 0.26502753 6.77396888 0.375 9.3125 C0.4059375 10.19357422 0.436875 11.07464844 0.46875 11.98242188 C0.52675781 13.25375977 0.52675781 13.25375977 0.5859375 14.55078125 C0.6173584 15.33106689 0.6487793 16.11135254 0.68115234 16.9152832 C0.89587889 19.30155768 0.89587889 19.30155768 3 22 C1.98164063 22.35191406 0.96328125 22.70382813 -0.0859375 23.06640625 C-8.89556005 26.13290734 -17.62405144 29.34738782 -26.28466797 32.81469727 C-31.7926424 35 -31.7926424 35 -34 35 C-34.06058594 33.73542969 -34.12117188 32.47085938 -34.18359375 31.16796875 C-34.26800904 29.50780129 -34.35265655 27.84764563 -34.4375 26.1875 C-34.47681641 25.35412109 -34.51613281 24.52074219 -34.55664062 23.66210938 C-34.59853516 22.85966797 -34.64042969 22.05722656 -34.68359375 21.23046875 C-34.73858032 20.12288208 -34.73858032 20.12288208 -34.79467773 18.99291992 C-34.94842141 16.792505 -34.94842141 16.792505 -36 14 C-27.65186811 10.29595493 -19.22206199 6.87626171 -10.6875 3.625 C-9.75010986 3.26728516 -8.81271973 2.90957031 -7.84692383 2.54101562 C-1.13217859 0 -1.13217859 0 0 0 Z " fill="#6965F6" transform="translate(293,155)"/>
<path d="M0 0 C5.4884949 4.05460502 10.84336732 8.24255188 16.125 12.5625 C16.80175781 13.11357422 17.47851562 13.66464844 18.17578125 14.23242188 C22.13848428 17.46313624 26.07827741 20.71968063 30 24 C25.98507591 27.11848023 21.68747722 29.71565973 17.36328125 32.37890625 C14.90628271 33.78359502 14.90628271 33.78359502 14 36 C9.49693633 34.54605878 6.36473177 32.02125333 2.875 28.9375 C1.73266037 27.94558922 0.58941459 26.95472114 -0.5546875 25.96484375 C-1.12670898 25.46839355 -1.69873047 24.97194336 -2.28808594 24.46044922 C-5.76072357 21.49791096 -9.36501352 18.69571192 -12.953125 15.875 C-15 14 -15 14 -16 11 C-14.64455078 10.18595703 -14.64455078 10.18595703 -13.26171875 9.35546875 C-12.07017612 8.63303739 -10.8787774 7.91036864 -9.6875 7.1875 C-8.79514648 6.65286133 -8.79514648 6.65286133 -7.88476562 6.10742188 C-4.91390528 4.29835049 -2.39093857 2.51628266 0 0 Z " fill="#6865F6" transform="translate(391,174)"/>
<path d="M0 0 C5.10379295 3.77680678 10.13060632 7.64285762 15.125 11.5625 C15.71039551 12.02116455 16.29579102 12.4798291 16.89892578 12.95239258 C20.6536592 15.90616555 24.34272656 18.92633403 28 22 C26.74730031 25.75809907 25.64832553 26.01496975 22.25 27.875 C18.16251237 30.21739979 15.10665131 32.47912851 12 36 C5.13946161 30.54125431 -1.67293727 25.02550377 -8.46484375 19.48168945 C-11.60083251 16.9267945 -14.73299221 14.38742877 -18 12 C-17.03578125 11.46890625 -16.0715625 10.9378125 -15.078125 10.390625 C-13.80188759 9.6774335 -12.52585676 8.96387224 -11.25 8.25 C-10.61578125 7.90195312 -9.9815625 7.55390625 -9.328125 7.1953125 C-5.70341133 5.15641106 -2.80215588 3.14181113 0 0 Z " fill="#6965F6" transform="translate(236,365)"/>
<path d="M0 0 C0.33 0 0.66 0 1 0 C1.15855469 0.825 1.31710937 1.65 1.48046875 2.5 C3.12314341 10.63169334 5.2566307 18.4261424 7.81640625 26.30859375 C8.95414227 29.85697838 9.99545849 33.41235173 11 37 C10.49855469 36.81824219 9.99710937 36.63648438 9.48046875 36.44921875 C0.54592486 33.48118458 -8.71441271 32.34421746 -18 31 C-14.69102259 24.06531686 -10.81856488 17.5523968 -6.8125 11 C-5.85053711 9.40865234 -5.85053711 9.40865234 -4.86914062 7.78515625 C-4.25876953 6.78355469 -3.64839844 5.78195312 -3.01953125 4.75 C-2.46370361 3.83734375 -1.90787598 2.9246875 -1.33520508 1.984375 C-0.8945874 1.32953125 -0.45396973 0.6746875 0 0 Z " fill="#D0DAFB" transform="translate(286,401)"/>
<path d="M0 0 C3.91771408 3.16751351 5.80848291 5.30826567 6.375 10.3125 C5.90786625 14.90598187 4.47959782 16.11447985 1 19 C0.67 19.33 0.34 19.66 0 20 C-7.07616708 20.58968059 -7.07616708 20.58968059 -10.9375 18.125 C-14.09695358 14.8698054 -14.33421243 12.57586762 -14.29296875 8.0390625 C-13.83745033 4.86865433 -12.24684343 3.1807598 -10 1 C-6.78305636 -0.60847182 -3.47862778 -0.61309149 0 0 Z " fill="#6966F6" transform="translate(336,493)"/>
<path d="M0 0 C3.44394159 2.6020892 4.7839468 4.30100434 6.0625 8.4375 C5.98541095 12.83157589 4.78058336 14.66329997 2 18 C-1.48339075 19.74169538 -5.19948216 19.5776262 -9 19 C-12.37882179 16.6066679 -13.67073608 14.96721278 -15 11.0625 C-15 7.15544281 -14.21495196 5.21525285 -12 2 C-7.76530991 -0.91723095 -4.9062711 -1.67021995 0 0 Z " fill="#6966F6" transform="translate(283,467)"/>
<path d="M0 0 C4.03539675 1.94009459 5.6423493 3.24178051 7.5625 7.3125 C8.0992749 11.83674561 7.23370456 14.07176095 5 18 C0.97951146 20.6803257 -2.27573564 20.80395376 -7 20 C-10.37882179 17.6066679 -11.67073608 15.96721278 -13 12.0625 C-13 7.40965327 -11.39256182 4.44058119 -8.1875 1.125 C-5.17577826 -0.42388547 -3.35458352 -0.46964169 0 0 Z " fill="#6A66F7" transform="translate(367,467)"/>
<path d="M0 0 C0.04898437 1.25296875 0.09796875 2.5059375 0.1484375 3.796875 C0.22348583 5.44793821 0.29903277 7.09897881 0.375 8.75 C0.4059375 9.575 0.436875 10.4 0.46875 11.25 C0.50742187 12.04921875 0.54609375 12.8484375 0.5859375 13.671875 C0.6173584 14.4050293 0.6487793 15.13818359 0.68115234 15.89355469 C1.03772523 18.24922918 1.83662883 19.93450591 3 22 C1.68 22.33 0.36 22.66 -1 23 C-2.7004792 20.04894616 -4.38311093 17.08809878 -6.0625 14.125 C-6.54783203 13.28324219 -7.03316406 12.44148438 -7.53320312 11.57421875 C-7.98759766 10.76855469 -8.44199219 9.96289062 -8.91015625 9.1328125 C-9.54642944 8.01737061 -9.54642944 8.01737061 -10.19555664 6.87939453 C-10.46102295 6.25919434 -10.72648926 5.63899414 -11 5 C-9.70976282 2.41952564 -8.72910609 2.32977036 -6.0625 1.375 C-5.35222656 1.11460937 -4.64195312 0.85421875 -3.91015625 0.5859375 C-2 0 -2 0 0 0 Z " fill="#6967F4" transform="translate(381,385)"/>
</svg>
