<?xml version="1.0" encoding="UTF-8"?>
<svg version="1.1" xmlns="http://www.w3.org/2000/svg" width="640" height="640">
<path d="M0 0 C211.2 0 422.4 0 640 0 C640 211.2 640 422.4 640 640 C428.8 640 217.6 640 0 640 C0 428.8 0 217.6 0 0 Z " fill="#FEFEFE" transform="translate(0,0)"/>
<path d="M0 0 C3.61118968 1.54330843 6.97622276 3.41323195 10.375 5.375 C11.33728516 5.91648682 12.29957031 6.45797363 13.29101562 7.01586914 C16.20326086 8.66159608 19.10231581 10.32879846 22 12 C23.66915152 12.94942853 25.33841458 13.89866102 27.0078125 14.84765625 C28.50625896 15.70911258 30.00371817 16.57228935 31.5 17.4375 C32.17466309 17.82534668 32.84932617 18.21319336 33.54443359 18.61279297 C43.83732903 24.67465805 43.83732903 24.67465805 46 29 C46.08426094 30.6674606 46.10725143 32.33825187 46.09765625 34.0078125 C46.09443359 34.99394531 46.09121094 35.98007813 46.08789062 36.99609375 C46.07951172 38.02863281 46.07113281 39.06117188 46.0625 40.125 C46.05798828 41.16527344 46.05347656 42.20554688 46.04882812 43.27734375 C46.03701952 45.85161962 46.02055075 48.42578146 46 51 C46.61786377 51.04825928 47.23572754 51.09651855 47.87231445 51.14624023 C56.02039217 51.83025988 64.09274554 52.91880778 72.1875 54.0625 C73.53447166 54.25089105 74.88147671 54.43904356 76.22851562 54.62695312 C79.4860116 55.08230202 82.74315345 55.54003316 86 56 C85.896875 54.80375 85.79375 53.6075 85.6875 52.375 C85.72522365 48.56449205 86.50053189 46.27406199 89.22949219 43.43896484 C93.02865582 40.3512276 97.32540573 38.12024574 101.625 35.8125 C103.69093092 34.68119597 105.75602207 33.54835717 107.8203125 32.4140625 C108.85446289 31.84848633 109.88861328 31.28291016 110.95410156 30.70019531 C113.83674044 29.09113014 116.66919143 27.422063 119.4921875 25.7109375 C120.33958496 25.20071045 121.18698242 24.6904834 122.06005859 24.16479492 C123.64541585 23.20491932 125.22432253 22.23427841 126.79541016 21.2512207 C131.35969362 18.51685497 134.54594655 17.1010465 140 18 C143.16520801 19.27294769 146.05708765 20.90673032 149 22.625 C150.27713867 23.35130615 150.27713867 23.35130615 151.58007812 24.09228516 C154.39891162 25.70806986 157.20032489 27.35126085 160 29 C161.02609375 29.59876953 162.0521875 30.19753906 163.109375 30.81445312 C166.24881492 32.65288131 169.37654992 34.50955115 172.5 36.375 C173.48484375 36.95717285 174.4696875 37.5393457 175.484375 38.13916016 C176.86882812 38.97906494 176.86882812 38.97906494 178.28125 39.8359375 C179.09658203 40.32626465 179.91191406 40.8165918 180.75195312 41.32177734 C184.28434854 43.95879799 186.69071693 45.8869199 187.35971069 50.45761108 C187.51451587 53.61469855 187.52785902 56.74549883 187.49609375 59.90625 C187.49754898 61.06370728 187.49900421 62.22116455 187.50050354 63.41369629 C187.4988454 65.85801717 187.48729383 68.30234859 187.46655273 70.74658203 C187.43760485 74.48645408 187.44594552 78.2249079 187.45898438 81.96484375 C187.45274663 84.34115272 187.44435542 86.71745721 187.43359375 89.09375 C187.43652939 90.2115686 187.43946503 91.32938721 187.44248962 92.4810791 C187.42980545 93.52566284 187.41712128 94.57024658 187.40405273 95.64648438 C187.39864975 96.5618396 187.39324677 97.47719482 187.38768005 98.42028809 C186.80683599 102.28535756 185.21544895 105.05472137 182.13061523 107.45385742 C181.44684814 107.83388916 180.76308105 108.2139209 180.05859375 108.60546875 C179.31029297 109.03150391 178.56199219 109.45753906 177.79101562 109.89648438 C176.62602539 110.53553711 176.62602539 110.53553711 175.4375 111.1875 C173.89309717 112.05343685 172.35006243 112.9218195 170.80859375 113.79296875 C170.12595459 114.1696167 169.44331543 114.54626465 168.73999023 114.93432617 C166.83846378 116.00574519 166.83846378 116.00574519 165 118 C165.42410156 119.04978027 165.84820312 120.09956055 166.28515625 121.18115234 C167.85406427 125.06728881 169.41844432 128.9552344 170.98144531 132.84375 C171.65924189 134.52816872 172.33827417 136.21209074 173.01855469 137.89550781 C173.99477331 140.31186236 174.96656976 142.72995399 175.9375 145.1484375 C176.24373291 145.9036972 176.54996582 146.65895691 176.86547852 147.43710327 C179 152.77225659 179 152.77225659 179 155 C179.66 154.505 180.32 154.01 181 153.5 C184.77518015 151.61240992 187.89228117 151.37748265 192 152 C195.23980397 153.23626018 198.14550099 154.92409244 201.125 156.6875 C201.97376709 157.17283203 202.82253418 157.65816406 203.69702148 158.15820312 C206.47524799 159.75457688 209.23740578 161.37674619 212 163 C214.02952072 164.17391596 216.05947484 165.34708291 218.08984375 166.51953125 C220.08169119 167.67803505 222.07259966 168.83815496 224.0625 170 C225.00818848 170.55131592 225.95387695 171.10263184 226.92822266 171.6706543 C228.24959229 172.45243042 228.24959229 172.45243042 229.59765625 173.25 C230.37633057 173.70890625 231.15500488 174.1678125 231.95727539 174.640625 C235.22474878 176.8150354 236.74403834 178.23211502 238 182 C238.11183587 183.63978258 238.16888811 185.28358509 238.19287109 186.92700195 C238.20893402 187.92846756 238.22499695 188.92993317 238.24154663 189.96174622 C238.28607401 194.53658305 238.32705292 199.11127643 238.35009766 203.6862793 C238.36666301 206.09848677 238.3939603 208.51064505 238.43212891 210.92260742 C238.48690966 214.40309069 238.50877359 217.88242486 238.5234375 221.36328125 C238.54610687 222.43846512 238.56877625 223.51364899 238.59213257 224.62141418 C238.5685621 232.98197648 238.5685621 232.98197648 235.80444336 236.51904297 C233.14664608 238.87026922 230.71970795 240.64568614 227.60546875 242.33203125 C226.57478271 242.89905762 225.54409668 243.46608398 224.48217773 244.05029297 C223.39493408 244.63182129 222.30769043 245.21334961 221.1875 245.8125 C218.93191878 247.03967945 216.67671041 248.26754447 214.421875 249.49609375 C213.32423828 250.09019043 212.22660156 250.68428711 211.09570312 251.29638672 C208.38948332 252.78566131 205.72697236 254.32185203 203.078125 255.91015625 C202.0104187 256.54377075 202.0104187 256.54377075 200.92114258 257.19018555 C199.64756078 257.95088616 198.38100562 258.72354871 197.1237793 259.51098633 C192.8324251 262.03491852 188.8800794 262.98100206 184 262 C181.06137724 260.75837726 178.43325228 259.15406729 175.75 257.4375 C174.376742 256.57091805 172.99672464 255.71493189 171.609375 254.87109375 C171.01092773 254.48880615 170.41248047 254.10651855 169.79589844 253.71264648 C167.4369474 252.77657007 166.32929171 253.05331859 164 254 C162.19180969 256.00447413 160.59802479 257.96375122 159 260.125 C158.03482639 261.39396922 157.06864271 262.66217069 156.1015625 263.9296875 C155.59915039 264.59323242 155.09673828 265.25677734 154.57910156 265.94042969 C151.39785519 270.08962487 148.08610771 274.13599843 144.796875 278.19970703 C142.1467089 281.43191826 142.1467089 281.43191826 140 285 C141.11375 285.3403125 141.11375 285.3403125 142.25 285.6875 C145.82279822 287.39269915 146.96202336 288.55922901 149 292 C149.61149666 295.8813317 149.58421096 299.7294331 149.56640625 303.65234375 C149.57260483 304.78523331 149.57880341 305.91812286 149.58518982 307.08534241 C149.59228567 309.4783543 149.58911817 311.87141559 149.57641602 314.2644043 C149.56256124 317.921337 149.59661586 321.57570562 149.63476562 325.23242188 C149.63571694 327.55989646 149.63385732 329.88737424 149.62890625 332.21484375 C149.64216446 333.30562729 149.65542267 334.39641083 149.66908264 335.52024841 C149.56556446 343.98207982 149.56556446 343.98207982 146.58569336 347.61157227 C145.73241455 348.39975342 144.87913574 349.18793457 144 350 C143.34 350.66 142.68 351.32 142 352 C142.41773682 352.55349121 142.83547363 353.10698242 143.26586914 353.67724609 C145.19985093 356.24183351 147.13118299 358.8084053 149.0625 361.375 C149.71927734 362.24511719 150.37605469 363.11523438 151.05273438 364.01171875 C154.3653906 368.41771472 157.64440019 372.84571916 160.84765625 377.33203125 C161.3981665 378.10264893 161.94867676 378.8732666 162.51586914 379.66723633 C169.23154299 390.22296319 170.83616591 403.14443414 168.31640625 415.296875 C164.23815862 428.36080517 157.33046968 438.5553252 145.25 445.1875 C134.58810419 450.47250216 123.0943108 451.4233475 111.41699219 452.7277832 C108.75893678 453.02715005 106.10209014 453.33598423 103.4453125 453.64648438 C94.79531454 454.65734747 86.1450101 455.66433664 77.49047852 456.63574219 C66.31057927 457.89438612 55.14568546 459.21321322 43.99609375 460.71875 C42.9518222 460.85838165 41.90755066 460.99801331 40.83163452 461.14187622 C35.91587578 461.80009362 31.00288197 462.4722869 26.09277344 463.17138672 C16.55446878 464.48381666 7.17774228 465.23701345 -2.45703125 465.265625 C-3.89687126 465.2712294 -3.89687126 465.2712294 -5.36579895 465.27694702 C-12.18948062 465.21233738 -17.98427445 464.43300239 -24 461 C-24.79148437 460.55269531 -25.58296875 460.10539062 -26.3984375 459.64453125 C-28.71445205 458.20952556 -30.8538397 456.67694275 -33 455 C-33.61617188 454.52175781 -34.23234375 454.04351563 -34.8671875 453.55078125 C-43.43239933 445.99436104 -48.39482799 433.63189146 -49.28125 422.453125 C-50.02467085 405.38121675 -41.78918206 390.60326502 -35 375.3125 C-34.19748077 373.49433296 -33.39539503 371.67597452 -32.59375 369.85742188 C-28.77968794 361.21526499 -24.94339639 352.58407047 -21 344 C-22.0621875 344.6496875 -23.124375 345.299375 -24.21875 345.96875 C-25.64529283 346.81341352 -27.07240699 347.65711264 -28.5 348.5 C-29.54414063 349.14388672 -29.54414063 349.14388672 -30.609375 349.80078125 C-35.31292562 352.54451911 -39.5087448 354.35409087 -45 353 C-49.15245951 351.2142155 -52.98981635 348.98944607 -56.875 346.6875 C-57.96893066 346.05465088 -59.06286133 345.42180176 -60.18994141 344.76977539 C-63.47028339 342.86355299 -66.73519902 340.93268157 -70 339 C-71.84326682 337.93145772 -73.68698011 336.86368507 -75.53125 335.796875 C-77.14714987 334.84598372 -78.76182257 333.89300258 -80.375 332.9375 C-81.11089355 332.50977295 -81.84678711 332.0820459 -82.60498047 331.64135742 C-83.27932129 331.23248291 -83.95366211 330.8236084 -84.6484375 330.40234375 C-85.22770996 330.05679443 -85.80698242 329.71124512 -86.40380859 329.35522461 C-89.27028859 326.92147875 -90.82564618 324.13742124 -91.39440918 320.42701721 C-91.40282837 319.51467819 -91.41124756 318.60233917 -91.41992188 317.66235352 C-91.43583374 316.62099747 -91.45174561 315.57964142 -91.46813965 314.50672913 C-91.46834106 313.39204758 -91.46854248 312.27736603 -91.46875 311.12890625 C-91.47636353 309.97382065 -91.48397705 308.81873505 -91.49182129 307.62864685 C-91.50261522 305.18856974 -91.50547829 302.74844645 -91.50097656 300.30834961 C-91.50000434 296.57913039 -91.5416364 292.8519691 -91.5859375 289.12304688 C-91.59114468 286.75000428 -91.59383269 284.37695455 -91.59375 282.00390625 C-91.61014526 280.89124893 -91.62654053 279.77859161 -91.64343262 278.63221741 C-91.56654056 270.0012916 -91.56654056 270.0012916 -88.6940918 266.40942383 C-86.59646627 264.53344138 -84.71721518 262.86208188 -82.30078125 261.4453125 C-81.64916016 261.05859375 -80.99753906 260.671875 -80.32617188 260.2734375 C-79.66166016 259.89445312 -78.99714844 259.51546875 -78.3125 259.125 C-77.63638672 258.7228125 -76.96027344 258.320625 -76.26367188 257.90625 C-71.29635682 255 -71.29635682 255 -69 255 C-72.4024762 245.15400659 -75.94235383 235.38763907 -79.81469727 225.71533203 C-82 220.2073576 -82 220.2073576 -82 218 C-83.010625 218.495 -84.02125 218.99 -85.0625 219.5 C-88.75465606 221.30840297 -91.92325366 221.37834247 -96 221 C-98.80220316 219.93542209 -101.30426451 218.4696737 -103.875 216.9375 C-104.626604 216.50429443 -105.37820801 216.07108887 -106.15258789 215.62475586 C-108.77926996 214.10105398 -111.38956727 212.55136866 -114 211 C-115.59739014 210.06075684 -115.59739014 210.06075684 -117.22705078 209.10253906 C-120.63560629 207.09762153 -124.03801855 205.08276186 -127.4375 203.0625 C-128.53368652 202.4120874 -129.62987305 201.7616748 -130.75927734 201.09155273 C-132.29962646 200.16644897 -132.29962646 200.16644897 -133.87109375 199.22265625 C-134.78818115 198.67359619 -135.70526855 198.12453613 -136.65014648 197.55883789 C-140.07044384 195.28989258 -141.68931821 193.93204537 -143 190 C-143.10228209 188.32403624 -143.14842323 186.64436587 -143.16113281 184.96533203 C-143.17074036 183.94061798 -143.1803479 182.91590393 -143.19024658 181.86013794 C-143.19449646 180.75387054 -143.19874634 179.64760315 -143.203125 178.5078125 C-143.20882507 177.36972137 -143.21452515 176.23163025 -143.22039795 175.05905151 C-143.22984879 172.64989146 -143.23638226 170.24071848 -143.24023438 167.83154297 C-143.24994314 164.14658063 -143.28096781 160.46217523 -143.3125 156.77734375 C-143.31902977 154.43750331 -143.32428034 152.09765889 -143.328125 149.7578125 C-143.3404718 148.65559357 -143.3528186 147.55337463 -143.36553955 146.41775513 C-143.36253845 145.38673676 -143.35953735 144.35571838 -143.35644531 143.29345703 C-143.36009094 142.38983429 -143.36373657 141.48621155 -143.36749268 140.5552063 C-142.91789546 137.4291205 -141.8208134 135.55931888 -140 133 C-137.7578125 131.32177734 -137.7578125 131.32177734 -135.125 129.8359375 C-134.14853516 129.27600098 -133.17207031 128.71606445 -132.16601562 128.13916016 C-131.12123047 127.5569873 -130.07644531 126.97481445 -129 126.375 C-126.82262811 125.14113408 -124.6455485 123.90675223 -122.46875 122.671875 C-120.83679688 121.75245117 -120.83679688 121.75245117 -119.171875 120.81445312 C-116.2389998 119.13671848 -113.34885933 117.40700784 -110.46875 115.640625 C-109.20417969 114.87419678 -109.20417969 114.87419678 -107.9140625 114.09228516 C-106.34902625 113.14104448 -104.79117262 112.17784397 -103.2421875 111.20068359 C-98.20343342 108.183157 -94.88134804 107.28966318 -89 108 C-86.05859375 109.171875 -86.05859375 109.171875 -83.4375 110.75 C-82.50808594 111.29269531 -81.57867187 111.83539063 -80.62109375 112.39453125 C-79.02907604 113.36967175 -77.43773991 114.34592772 -75.84765625 115.32421875 C-74.26675117 116.27677255 -72.63697999 117.14740625 -71 118 C-67.0101988 116.67006627 -65.44433221 114.05002039 -63 110.8125 C-62.02494813 109.54541241 -61.049681 108.27849044 -60.07421875 107.01171875 C-59.57196777 106.35478027 -59.0697168 105.6978418 -58.55224609 105.02099609 C-56.00123006 101.69961976 -53.40513507 98.413916 -50.8125 95.125 C-49.8812971 93.94027181 -48.9502876 92.75539155 -48.01953125 91.5703125 C-47.01986328 90.29800781 -47.01986328 90.29800781 -46 89 C-46.42347214 88.63721451 -46.84694427 88.27442902 -47.2832489 87.90065002 C-51.98446599 83.28957827 -52.72422156 79.60352755 -52.85932922 73.12767029 C-52.84581673 71.43832115 -52.84581673 71.43832115 -52.83203125 69.71484375 C-52.8441993 67.95316612 -52.8441993 67.95316612 -52.85661316 66.15589905 C-52.86505427 63.68068013 -52.85825546 61.20536801 -52.8371582 58.73022461 C-52.81255063 54.94528773 -52.85731584 51.16544753 -52.90820312 47.38085938 C-52.90783271 44.97134989 -52.90341245 42.5618369 -52.89453125 40.15234375 C-52.92049126 38.45995827 -52.92049126 38.45995827 -52.94697571 36.73338318 C-52.81156558 29.12757622 -52.81156558 29.12757622 -50.59083557 26.04212952 C-48.81033798 24.46184435 -47.04093261 23.2210378 -45 22 C-44.01298096 21.35748291 -43.02596191 20.71496582 -42.0090332 20.05297852 C-41.03281006 19.50053467 -40.05658691 18.94809082 -39.05078125 18.37890625 C-37.95443359 17.75306641 -36.85808594 17.12722656 -35.72851562 16.48242188 C-34.60123047 15.84884766 -33.47394531 15.21527344 -32.3125 14.5625 C-30.07927413 13.29323783 -27.84620049 12.02370778 -25.61328125 10.75390625 C-23.96706787 9.82989014 -23.96706787 9.82989014 -22.28759766 8.88720703 C-20.08155453 7.62085374 -17.89853731 6.313586 -15.73974609 4.96826172 C-5.64292113 -1.28425102 -5.64292113 -1.28425102 0 0 Z " fill="#6965F6" transform="translate(272,102)"/>
<path d="M0 0 C3.23340365 1.25395561 6.14476674 2.92365787 9.125 4.6875 C9.97376709 5.17283203 10.82253418 5.65816406 11.69702148 6.15820312 C14.47524799 7.75457688 17.23740578 9.37674619 20 11 C22.02952072 12.17391596 24.05947484 13.34708291 26.08984375 14.51953125 C28.08169119 15.67803505 30.07259966 16.83815496 32.0625 18 C33.00818848 18.55131592 33.95387695 19.10263184 34.92822266 19.6706543 C35.80913574 20.19183838 36.69004883 20.71302246 37.59765625 21.25 C38.76566772 21.93835938 38.76566772 21.93835938 39.95727539 22.640625 C43.22474878 24.8150354 44.74403834 26.23211502 46 30 C46.11183587 31.63978258 46.16888811 33.28358509 46.19287109 34.92700195 C46.21696548 36.42920036 46.21696548 36.42920036 46.24154663 37.96174622 C46.28607401 42.53658305 46.32705292 47.11127643 46.35009766 51.6862793 C46.36666301 54.09848677 46.3939603 56.51064505 46.43212891 58.92260742 C46.48690966 62.40309069 46.50877359 65.88242486 46.5234375 69.36328125 C46.54610687 70.43846512 46.56877625 71.51364899 46.59213257 72.62141418 C46.5685621 80.98197648 46.5685621 80.98197648 43.80444336 84.51904297 C41.14664608 86.87026922 38.71970795 88.64568614 35.60546875 90.33203125 C34.0594397 91.1825708 34.0594397 91.1825708 32.48217773 92.05029297 C31.39493408 92.63182129 30.30769043 93.21334961 29.1875 93.8125 C26.93191878 95.03967945 24.67671041 96.26754447 22.421875 97.49609375 C21.32423828 98.09019043 20.22660156 98.68428711 19.09570312 99.29638672 C16.38948332 100.78566131 13.72697236 102.32185203 11.078125 103.91015625 C10.3663208 104.33256592 9.6545166 104.75497559 8.92114258 105.19018555 C7.64756078 105.95088616 6.38100562 106.72354871 5.1237793 107.51098633 C0.8324251 110.03491852 -3.1199206 110.98100206 -8 110 C-10.93862276 108.75837726 -13.56674772 107.15406729 -16.25 105.4375 C-17.623258 104.57091805 -19.00327536 103.71493189 -20.390625 102.87109375 C-20.98907227 102.48880615 -21.58751953 102.10651855 -22.20410156 101.71264648 C-24.5630526 100.77657007 -25.67070829 101.05331859 -28 102 C-29.80819031 104.00447413 -31.40197521 105.96375122 -33 108.125 C-33.96517361 109.39396922 -34.93135729 110.66217069 -35.8984375 111.9296875 C-36.40084961 112.59323242 -36.90326172 113.25677734 -37.42089844 113.94042969 C-40.60214481 118.08962487 -43.91389229 122.13599843 -47.203125 126.19970703 C-49.8532911 129.43191826 -49.8532911 129.43191826 -52 133 C-50.88625 133.3403125 -50.88625 133.3403125 -49.75 133.6875 C-46.17720178 135.39269915 -45.03797664 136.55922901 -43 140 C-42.38850334 143.8813317 -42.41578904 147.7294331 -42.43359375 151.65234375 C-42.42739517 152.78523331 -42.42119659 153.91812286 -42.41481018 155.08534241 C-42.40771433 157.4783543 -42.41088183 159.87141559 -42.42358398 162.2644043 C-42.43743876 165.921337 -42.40338414 169.57570562 -42.36523438 173.23242188 C-42.36428306 175.55989646 -42.36614268 177.88737424 -42.37109375 180.21484375 C-42.35783554 181.30562729 -42.34457733 182.39641083 -42.33091736 183.52024841 C-42.43443554 191.98207982 -42.43443554 191.98207982 -45.41430664 195.61157227 C-46.69422485 196.79384399 -46.69422485 196.79384399 -48 198 C-48.66 198.66 -49.32 199.32 -50 200 C-49.58226318 200.55349121 -49.16452637 201.10698242 -48.73413086 201.67724609 C-46.80014907 204.24183351 -44.86881701 206.8084053 -42.9375 209.375 C-42.28072266 210.24511719 -41.62394531 211.11523438 -40.94726562 212.01171875 C-37.6346094 216.41771472 -34.35559981 220.84571916 -31.15234375 225.33203125 C-30.6018335 226.10264893 -30.05132324 226.8732666 -29.48413086 227.66723633 C-22.76845701 238.22296319 -21.16383409 251.14443414 -23.68359375 263.296875 C-27.76184138 276.36080517 -34.66953032 286.5553252 -46.75 293.1875 C-57.41189581 298.47250216 -68.9056892 299.4233475 -80.58300781 300.7277832 C-83.24106322 301.02715005 -85.89790986 301.33598423 -88.5546875 301.64648438 C-97.20468546 302.65734747 -105.8549899 303.66433664 -114.50952148 304.63574219 C-125.68942073 305.89438612 -136.85431454 307.21321322 -148.00390625 308.71875 C-149.0481778 308.85838165 -150.09244934 308.99801331 -151.16836548 309.14187622 C-156.08412422 309.80009362 -160.99711803 310.4722869 -165.90722656 311.17138672 C-175.44553122 312.48381666 -184.82225772 313.23701345 -194.45703125 313.265625 C-195.89687126 313.2712294 -195.89687126 313.2712294 -197.36579895 313.27694702 C-204.18948062 313.21233738 -209.98427445 312.43300239 -216 309 C-216.79148438 308.55269531 -217.58296875 308.10539062 -218.3984375 307.64453125 C-220.71445205 306.20952556 -222.8538397 304.67694275 -225 303 C-225.61617187 302.52175781 -226.23234375 302.04351563 -226.8671875 301.55078125 C-235.43239933 293.99436104 -240.39482799 281.63189146 -241.28125 270.453125 C-241.97207659 254.5889909 -234.94425132 241.23483713 -228.61682129 227.02389526 C-226.59265226 222.47737194 -224.58471494 217.92367539 -222.57421875 213.37109375 C-222.17635162 212.47139359 -221.7784845 211.57169342 -221.36856079 210.64472961 C-218.10790361 203.26514935 -214.91133379 195.86023739 -211.75 188.4375 C-207.32509588 178.0592866 -202.83590474 167.71056126 -198.3125 157.375 C-198.00155396 156.66407196 -197.69060791 155.95314392 -197.37023926 155.22067261 C-192.18826531 143.37653061 -192.18826531 143.37653061 -191 141 C-190.43589449 133.48268092 -191.44450417 126.00868611 -192.375 118.5625 C-192.6504133 116.26700782 -192.92514724 113.97143402 -193.19921875 111.67578125 C-193.33505371 110.54994629 -193.47088867 109.42411133 -193.61083984 108.26416016 C-194.16738973 103.59598447 -194.68727715 98.92451239 -195.1875 94.25 C-195.27112793 93.49533447 -195.35475586 92.74066895 -195.44091797 91.96313477 C-195.86704857 87.95613246 -196.08235695 84.02915545 -196 80 C-196.70125 79.9175 -197.4025 79.835 -198.125 79.75 C-203.80587245 78.26803328 -207.8556877 74.87910529 -211 70 C-215.73441227 60.48713441 -218.1759286 43.02796019 -215.37109375 32.6796875 C-212.78076442 27.67244001 -209.86222585 23.9474181 -205 21 C-197.31525645 18.67304445 -188.93754175 18.12029669 -181 17.125 C-179.65307288 16.95477862 -178.30614913 16.78453062 -176.95922852 16.61425781 C-173.38284221 16.16386258 -169.80565793 15.72008614 -166.22833252 15.27722168 C-163.97329315 14.99667746 -161.7187765 14.71222552 -159.46435547 14.42675781 C-155.6871527 13.94902942 -151.90885542 13.48098699 -148.12963867 13.01947021 C-146.69212022 12.84276223 -145.25492847 12.66337137 -143.81811523 12.48101807 C-118.14145197 9.23396037 -118.14145197 9.23396037 -110.875 13.5625 C-102.78375988 20.0174782 -101.85519674 27.95199932 -100.66015625 37.80078125 C-100.37803131 40.53314196 -100.17084339 43.25855956 -100 46 C-99.93425781 46.86882812 -99.86851562 47.73765625 -99.80078125 48.6328125 C-99.53469826 54.63344268 -100.42671551 59.08673382 -104 64 C-105.90841391 66.00091356 -107.70538481 67.40374595 -110 69 C-110.66 69 -111.32 69 -112 69 C-111.82609741 70.22178955 -111.82609741 70.22178955 -111.64868164 71.46826172 C-109.5097292 86.62371783 -107.41522058 101.67836044 -107 117 C-106.29875 116.566875 -105.5975 116.13375 -104.875 115.6875 C-103.92625 115.130625 -102.9775 114.57375 -102 114 C-101.071875 113.443125 -100.14375 112.88625 -99.1875 112.3125 C-94.54752085 110.40192035 -90.55568047 109.95310914 -85.91162109 111.85546875 C-83.77873662 112.99300714 -81.73360353 114.21321534 -79.6875 115.5 C-78.29890536 116.34922317 -76.90709926 117.19322357 -75.51171875 118.03125 C-74.90803467 118.40830078 -74.30435059 118.78535156 -73.68237305 119.17382812 C-71.86357631 120.22039671 -71.86357631 120.22039671 -69 120 C-67.24341912 118.04144292 -65.6867143 116.10660276 -64.125 114 C-63.15259149 112.7227769 -62.17856259 111.44678625 -61.203125 110.171875 C-60.68814453 109.49576172 -60.17316406 108.81964844 -59.64257812 108.12304688 C-56.24023481 103.72548779 -52.68457309 99.450014 -49.15283203 95.15625 C-48.62544434 94.51171875 -48.09805664 93.8671875 -47.5546875 93.203125 C-47.08530762 92.63239258 -46.61592773 92.06166016 -46.13232422 91.47363281 C-44.91144939 89.98152438 -44.91144939 89.98152438 -44 88 C-44.7425 87.773125 -45.485 87.54625 -46.25 87.3125 C-49.82279822 85.60730085 -50.96202336 84.44077099 -53 81 C-53.61149666 77.1186683 -53.58421096 73.2705669 -53.56640625 69.34765625 C-53.57260483 68.21476669 -53.57880341 67.08187714 -53.58518982 65.91465759 C-53.59228567 63.5216457 -53.58911817 61.12858441 -53.57641602 58.7355957 C-53.56256124 55.078663 -53.59661586 51.42429438 -53.63476562 47.76757812 C-53.63571694 45.44010354 -53.63385732 43.11262576 -53.62890625 40.78515625 C-53.64216446 39.69437271 -53.65542267 38.60358917 -53.66908264 37.47975159 C-53.56551863 29.01417369 -53.56551863 29.01417369 -50.80004883 25.47167969 C-48.1330322 23.11743116 -45.69745704 21.34965945 -42.5703125 19.66796875 C-41.53447021 19.10094238 -40.49862793 18.53391602 -39.43139648 17.94970703 C-38.34028564 17.36817871 -37.2491748 16.78665039 -36.125 16.1875 C-33.86722697 14.96195863 -31.61071138 13.73409785 -29.35546875 12.50390625 C-28.26411621 11.90980957 -27.17276367 11.31571289 -26.04833984 10.70361328 C-23.41428365 9.23152902 -20.8489216 7.70447887 -18.30078125 6.08984375 C-17.63353027 5.66743408 -16.9662793 5.24502441 -16.27880859 4.80981445 C-14.57206269 3.71158615 -12.87727243 2.59483774 -11.18359375 1.4765625 C-7.29575841 -0.32662984 -4.16550818 -0.81418715 0 0 Z " fill="#072B76" transform="translate(464,254)"/>
<path d="M0 0 C0.08325531 0.69633545 0.16651062 1.3926709 0.25228882 2.11010742 C1.04124089 8.70107039 1.83512688 15.29141859 2.63443565 21.88113403 C3.04510847 25.26825896 3.45393001 28.65558516 3.85839844 32.04345703 C4.32443596 35.94632765 4.79874603 39.84817211 5.2734375 43.75 C5.41623138 44.95551514 5.55902527 46.16103027 5.70614624 47.40307617 C7.17395145 60.25403993 7.17395145 60.25403993 13.625 71.1875 C14.62054648 72.40065873 15.61389602 73.61562243 16.60546875 74.83203125 C17.1473584 75.49154785 17.68924805 76.15106445 18.24755859 76.83056641 C21.56846809 80.94168396 24.74412867 85.16459035 27.9375 89.375 C28.62602051 90.28016357 29.31454102 91.18532715 30.02392578 92.11791992 C34.51307658 98.0240551 38.97349576 103.95108456 43.41503906 109.89306641 C47.63937848 115.53738776 51.91088503 121.14522225 56.1875 126.75 C61.07792742 133.15970043 65.96664023 139.56917607 70.77734375 146.0390625 C72.52161678 148.3627162 74.28604485 150.66513671 76.06640625 152.9609375 C76.60362305 153.66049561 77.14083984 154.36005371 77.69433594 155.08081055 C78.73590986 156.43683671 79.78423441 157.78771799 80.84082031 159.13208008 C85.4044084 165.10519111 89.86112053 172.02717716 89.37890625 179.8359375 C87.88277157 188.38087162 84.48453173 195.20105753 78 201 C69.28804303 206.93997066 56.11811074 206.66064251 45.9375 207.8125 C43.67976827 208.07214323 41.42219008 208.33309653 39.16461182 208.59407043 C37.57493779 208.77774143 35.98521519 208.96099239 34.39544678 209.1438446 C26.87359405 210.01001017 19.35596095 210.91014844 11.83837891 211.8125 C3.83991679 212.77242812 -4.16011858 213.71904204 -12.16033936 214.66418457 C-15.10064941 215.0119027 -18.04080106 215.36094256 -20.98095703 215.70996094 C-25.99812458 216.30460405 -31.01612539 216.89175817 -36.034729 217.47415161 C-37.94607978 217.69693958 -39.85718108 217.92188008 -41.76800537 218.1491394 C-70.6679728 221.58131867 -70.6679728 221.58131867 -78 216 C-84.67985944 209.86272842 -88.94818378 203.78438399 -89.40234375 194.6015625 C-89.30856363 187.55970318 -86.38438892 181.64068669 -83.5625 175.3125 C-82.97887313 173.96756954 -82.39688655 172.62192629 -81.81640625 171.27563477 C-80.56284211 168.37789585 -79.2979312 165.48548904 -78.02392578 162.59667969 C-75.93355339 157.85633366 -73.86981502 153.10464143 -71.80859375 148.3515625 C-68.93588783 141.73383919 -66.05271758 135.12078684 -63.16015625 128.51171875 C-58.86836877 118.70488868 -54.5821015 108.89551872 -50.34887695 99.06323242 C-48.07631161 93.78514559 -45.79176647 88.51645487 -43.421875 83.28125 C-43.039104 82.41918945 -42.65633301 81.55712891 -42.26196289 80.66894531 C-41.58319164 79.14082318 -40.89131797 77.61839415 -40.18139648 76.10449219 C-36.28011317 67.20626424 -38.11473436 57.62891335 -39.3125 48.26171875 C-39.44567627 47.17792435 -39.57885254 46.09412994 -39.71606445 44.97749329 C-40.13835582 41.54676249 -40.56861612 38.11709835 -41 34.6875 C-41.43031428 31.23993175 -41.85885946 27.79216649 -42.28393555 24.34394836 C-42.54773065 22.20664745 -42.81468743 20.06973376 -43.08520508 17.93327332 C-43.20532959 16.96489029 -43.3254541 15.99650726 -43.44921875 14.9987793 C-43.60910278 13.72831001 -43.60910278 13.72831001 -43.7722168 12.43217468 C-44.00560937 9.94010546 -44.03936293 7.50144768 -44 5 C-36.13431293 3.47369032 -28.26784131 2.31942574 -20.3125 1.375 C-19.23677734 1.2409375 -18.16105469 1.106875 -17.05273438 0.96875 C-16.00021484 0.84242188 -14.94769531 0.71609375 -13.86328125 0.5859375 C-12.92782471 0.4729834 -11.99236816 0.3600293 -11.02856445 0.24365234 C-7.33502842 -0.05349792 -3.70512097 -0.03734248 0 0 Z " fill="#D1DBFC" transform="translate(332,327)"/>
<path d="M0 0 C6.84762262 -0.32098231 13.10518735 0.44315662 19.796875 1.78564453 C26.49883044 3.12952622 33.22327265 4.0999659 40 5 C40.00410889 5.69561035 40.00821777 6.3912207 40.01245117 7.10791016 C40.0454889 10.28111803 40.11614466 13.45243191 40.1875 16.625 C40.19330078 17.71941406 40.19910156 18.81382812 40.20507812 19.94140625 C40.27939141 27.47161339 40.27939141 27.47161339 44.17797852 33.67480469 C48.49754153 36.81651553 53.1693935 39.30474249 57.875 41.8125 C60.13411119 43.03797353 62.39192923 44.26583397 64.6484375 45.49609375 C65.73995117 46.09019043 66.83146484 46.68428711 67.95605469 47.29638672 C71.26962688 49.15090282 74.46527728 51.13857503 77.65698242 53.19287109 C83.59045887 56.99865901 87.79207329 59.25852689 95 58 C97.00712781 57.35511056 99.00863546 56.69203448 101 56 C103.02412532 61.06734019 105.03592501 66.13933192 107.03637695 71.21606445 C107.71886622 72.94299125 108.40472545 74.66859013 109.09399414 76.39282227 C110.08324533 78.86915514 111.06034263 81.34998559 112.03515625 83.83203125 C112.34655045 84.60400345 112.65794464 85.37597565 112.97877502 86.17134094 C115.11387171 91.65838488 115.11387171 91.65838488 114 95 C112.37353516 96.19506836 112.37353516 96.19506836 110.2890625 97.33984375 C109.53882813 97.76330078 108.78859375 98.18675781 108.015625 98.62304688 C107.22671875 99.05681641 106.4378125 99.49058594 105.625 99.9375 C104.07104071 100.79269047 102.52137599 101.65574093 100.9765625 102.52734375 C99.94136475 103.09569946 99.94136475 103.09569946 98.88525391 103.67553711 C96.64495349 105.24943374 95.4592373 106.67859182 94 109 C93.54293047 111.46152257 93.54293047 111.46152257 93.59594727 114.14819336 C93.58326309 115.17283188 93.57057892 116.1974704 93.55751038 117.25315857 C93.56044601 118.35426468 93.56338165 119.45537079 93.56640625 120.58984375 C93.5611644 121.72651993 93.55592255 122.86319611 93.55052185 124.03431702 C93.54410011 126.43750187 93.54544057 128.84071814 93.55395508 131.24389648 C93.56246028 134.92032895 93.53371097 138.59520561 93.50195312 142.27148438 C93.50034092 144.60677037 93.50091901 146.94205911 93.50390625 149.27734375 C93.48705528 150.92596657 93.48705528 150.92596657 93.46986389 152.6078949 C93.49630645 158.6797175 93.49630645 158.6797175 95.89038086 164.15063477 C97.86745929 165.88381022 99.55879191 167.04095396 102 168 C100.70234874 170.78454333 99.27315368 173.07241613 97.3125 175.43359375 C96.78293701 176.07683594 96.25337402 176.72007812 95.70776367 177.3828125 C95.14420166 178.06085938 94.58063965 178.73890625 94 179.4375 C88.1796269 186.51283252 82.53656841 193.7012281 77 201 C71.71557741 200.37303461 67.78756718 197.63319599 63.43554688 194.79492188 C58.73219488 191.92093993 55.51124511 191.424865 50 192 C47.32421094 192.99775691 47.32421094 192.99775691 45.125 194.5 C41.13888889 197 41.13888889 197 39 197 C38.2842309 190.9681224 37.5722559 184.93581352 36.86376953 178.90307617 C36.62229574 176.85152129 36.37979164 174.80008741 36.13623047 172.7487793 C35.78601487 169.79767681 35.43952535 166.84615687 35.09375 163.89453125 C34.92969666 162.52238213 34.92969666 162.52238213 34.7623291 161.12251282 C33.67108681 151.741946 33.67108681 151.741946 34 149 C35.96498322 147.61558 37.97048465 146.28796166 40 145 C47.55671349 134.99246051 45.12321807 123.24458239 43.67578125 111.453125 C42.65490439 104.17540732 40.95888563 99.15656147 35.125 94.4375 C24.41997121 88.38751963 8.36027188 92.74725172 -3.3125 94.3125 C-5.08858461 94.54429562 -6.8647906 94.77516293 -8.64111328 95.00512695 C-11.29177693 95.34843361 -13.94234 95.69236238 -16.59246826 96.03977966 C-24.8062613 97.11544656 -33.03043141 98.08883964 -41.26293945 99.01098633 C-54.38811117 100.08900186 -54.38811117 100.08900186 -65 107 C-68.68736789 112.60159692 -69.53217803 117.0941964 -68.875 123.6875 C-68.81151367 124.46915527 -68.74802734 125.25081055 -68.68261719 126.05615234 C-68.48235542 128.37434844 -68.24548665 130.68621194 -68 133 C-67.88398438 134.24652344 -67.76796875 135.49304688 -67.6484375 136.77734375 C-66.85974885 143.40387482 -65.6918087 149.0384123 -61 154 C-57.5457427 156.69189192 -54.15279535 158.61573488 -50 160 C-49.49611916 164.08286424 -48.99756732 168.16636193 -48.5 172.25 C-48.35691406 173.40886719 -48.21382813 174.56773437 -48.06640625 175.76171875 C-47.93105469 176.87675781 -47.79570312 177.99179687 -47.65625 179.140625 C-47.53056641 180.16704102 -47.40488281 181.19345703 -47.27539062 182.25097656 C-47 185 -47 185 -47 189 C-50.73013505 187.60742751 -54.06334723 185.90252414 -57.4921875 183.8828125 C-59.04486328 182.97208984 -59.04486328 182.97208984 -60.62890625 182.04296875 C-61.70011719 181.41003906 -62.77132812 180.77710938 -63.875 180.125 C-67.00499001 178.28494527 -70.1353132 176.44548288 -73.26733398 174.60888672 C-74.91269314 173.64016369 -76.55414964 172.66470267 -78.18774414 171.67626953 C-82.38169504 169.1727007 -85.07906777 168.44291333 -90 169 C-92.20067421 169.93283296 -92.20067421 169.93283296 -94 171 C-94.99 171 -95.98 171 -97 171 C-98.99820289 166.0538405 -100.99191611 161.10590477 -102.98144531 156.15625 C-103.65924189 154.47183128 -104.33827417 152.78790926 -105.01855469 151.10449219 C-105.99477331 148.68813764 -106.96656976 146.27004601 -107.9375 143.8515625 C-108.24373291 143.0963028 -108.54996582 142.34104309 -108.86547852 141.56289673 C-111 136.22774341 -111 136.22774341 -111 134 C-110.47567383 133.72325439 -109.95134766 133.44650879 -109.41113281 133.16137695 C-107.01782181 131.88983125 -104.63400686 130.60139941 -102.25 129.3125 C-101.425 128.87744141 -100.6 128.44238281 -99.75 127.99414062 C-98.95078125 127.55908203 -98.1515625 127.12402344 -97.328125 126.67578125 C-96.5949707 126.28302002 -95.86181641 125.89025879 -95.10644531 125.4855957 C-92.23121092 123.45780232 -90.77373999 122.1061384 -89 119 C-88.42782568 115.01771697 -88.48756676 111.07531523 -88.5390625 107.05859375 C-88.53997894 105.8987648 -88.54089539 104.73893585 -88.5418396 103.54396057 C-88.5478744 101.09542745 -88.56361658 98.64690167 -88.58837891 96.19848633 C-88.62489968 92.44780324 -88.62939807 88.69810801 -88.62890625 84.94726562 C-88.63873706 82.56769978 -88.6503939 80.18814064 -88.6640625 77.80859375 C-88.66628815 76.68561386 -88.66851379 75.56263397 -88.67080688 74.40562439 C-88.68356659 73.36096512 -88.69632629 72.31630585 -88.70947266 71.23999023 C-88.71709625 70.3224144 -88.72471985 69.40483856 -88.73257446 68.4594574 C-89.02108875 65.80605115 -89.55090186 64.23198981 -91 62 C-94.03201925 59.75592746 -94.03201925 59.75592746 -97 58 C-95.30091513 54.05155845 -92.6697087 50.88482457 -90 47.5625 C-89.01371416 46.32209838 -88.02805247 45.08120027 -87.04296875 43.83984375 C-86.54071777 43.20804199 -86.0384668 42.57624023 -85.52099609 41.92529297 C-83.08936704 38.84731115 -80.69945309 35.73768064 -78.3125 32.625 C-77.87873047 32.05982666 -77.44496094 31.49465332 -76.99804688 30.91235352 C-75.99805219 29.60873075 -74.99891997 28.30444646 -74 27 C-68.25296169 27.61495546 -63.855139 30.86196919 -59.05859375 33.84960938 C-54.5292616 36.53701312 -51.39301997 37.87942334 -46 37 C-42.50080873 35.61417031 -39.27212767 33.85245588 -36 32 C-35.03674805 31.45730469 -34.07349609 30.91460937 -33.08105469 30.35546875 C-29.99860809 28.59293394 -26.93492816 26.8013162 -23.875 25 C-22.84246094 24.39671875 -21.80992187 23.7934375 -20.74609375 23.171875 C-16.24587675 20.53480516 -11.77525618 17.87588296 -7.3828125 15.0625 C-4 13 -4 13 -2 13 C-1.34 8.71 -0.68 4.42 0 0 Z " fill="#FEFEFE" transform="translate(318,174)"/>
<path d="M0 0 C6.43785331 3.15844578 12.76352839 6.45997384 19 10 C18.34 10.33 17.68 10.66 17 11 C16.31560149 12.32431903 15.65129097 13.65908901 15 15 C14.10408288 16.21799958 13.17057932 17.40898677 12.20703125 18.57421875 C11.66199951 19.2379248 11.11696777 19.90163086 10.55541992 20.58544922 C9.98025635 21.27912598 9.40509277 21.97280273 8.8125 22.6875 C7.63746765 24.12064038 6.46298468 25.55423137 5.2890625 26.98828125 C4.72348633 27.67744629 4.15791016 28.36661133 3.57519531 29.07666016 C1.59439008 31.4952565 -0.3703046 33.92527617 -2.3125 36.375 C-3.11107422 37.37660156 -3.11107422 37.37660156 -3.92578125 38.3984375 C-5.18567841 39.95542004 -5.18567841 39.95542004 -5 42 C-4.05125 42.61875 -3.1025 43.2375 -2.125 43.875 C1.00722737 46.00491461 1.73146271 46.62216791 3 50 C3.27415466 52.45272827 3.27415466 52.45272827 3.30639648 55.22412109 C3.32238388 56.26555267 3.33837128 57.30698425 3.35484314 58.37997437 C3.36020584 59.4998172 3.36556854 60.61966003 3.37109375 61.7734375 C3.38012222 62.92993805 3.3891507 64.0864386 3.39845276 65.27798462 C3.41295772 67.72403371 3.4218426 70.17012163 3.42553711 72.61621094 C3.43743374 76.35418186 3.48662093 80.09050242 3.53710938 83.828125 C3.54657361 86.20572112 3.55380864 88.58332736 3.55859375 90.9609375 C3.57812607 92.07673187 3.59765839 93.19252625 3.61778259 94.34213257 C3.56754297 103.00291147 3.56754297 103.00291147 0.70996094 106.59277344 C-1.47063409 108.52977046 -3.3738108 110.16200694 -5.91796875 111.5546875 C-6.61470703 111.94140625 -7.31144531 112.328125 -8.02929688 112.7265625 C-8.74150391 113.10554688 -9.45371094 113.48453125 -10.1875 113.875 C-10.91130859 114.2771875 -11.63511719 114.679375 -12.38085938 115.09375 C-17.69415657 118 -17.69415657 118 -20 118 C-19.68248779 118.76554199 -19.36497559 119.53108398 -19.0378418 120.31982422 C-17.84306164 123.20708249 -16.65268018 126.09610669 -15.46508789 128.98632812 C-14.70463062 130.83339169 -13.93928474 132.67844015 -13.17382812 134.5234375 C-10.40713673 141.26610262 -7.89971922 147.96016302 -6 155 C-4.4840625 154.2575 -4.4840625 154.2575 -2.9375 153.5 C0.79167087 151.67346733 3.87881842 151.53932411 8 152 C11.51574258 153.51397766 14.73243483 155.45204586 18 157.4375 C18.9168457 157.97938965 19.83369141 158.5212793 20.77832031 159.07958984 C22.63805917 160.181357 24.49390623 161.28972115 26.34570312 162.40478516 C28.77706192 163.86601569 31.22042377 165.3032904 33.671875 166.73046875 C35.03171166 167.52785906 36.3911179 168.32598405 37.75 169.125 C38.37519531 169.49036865 39.00039063 169.8557373 39.64453125 170.23217773 C43.88383677 172.76767353 43.88383677 172.76767353 45 175 C45.49139912 178.14947671 45.75309372 181.32801266 46.0625 184.5 C46.15337891 185.36109375 46.24425781 186.2221875 46.33789062 187.109375 C46.5995514 189.73778699 46.80647224 192.365763 47 195 C47.0815332 195.80614746 47.16306641 196.61229492 47.24707031 197.44287109 C47.71218457 205.0895343 44.88876919 210.83874521 41.625 217.625 C40.51054779 220.00474615 39.39994679 222.38629918 38.29296875 224.76953125 C38.01258255 225.36898056 37.73219635 225.96842987 37.4433136 226.58604431 C35.57158008 230.62857948 33.91825047 234.71310688 32.36328125 238.88671875 C31.95190918 239.96937012 31.54053711 241.05202148 31.11669922 242.16748047 C30.35317154 244.20387044 29.61716323 246.2508803 28.91455078 248.30908203 C26.29157267 255.15313624 23.16992821 257.78591796 16.54394531 260.88012695 C15.28469238 261.43446411 15.28469238 261.43446411 14 262 C12.948125 262.61875 11.89625 263.2375 10.8125 263.875 C5.94876498 265.82049401 2.08353139 265.87850461 -2.70288086 263.86035156 C-5.81587598 262.21948993 -8.84752394 260.4812599 -11.875 258.6875 C-12.96893066 258.05465088 -14.06286133 257.42180176 -15.18994141 256.76977539 C-18.47028339 254.86355299 -21.73519902 252.93268157 -25 251 C-26.84326682 249.93145772 -28.68698011 248.86368507 -30.53125 247.796875 C-32.14714987 246.84598372 -33.76182257 245.89300258 -35.375 244.9375 C-36.11089355 244.50977295 -36.84678711 244.0820459 -37.60498047 243.64135742 C-38.27932129 243.23248291 -38.95366211 242.8236084 -39.6484375 242.40234375 C-40.22770996 242.05679443 -40.80698242 241.71124512 -41.40380859 241.35522461 C-44.27028859 238.92147875 -45.82564618 236.13742124 -46.39440918 232.42701721 C-46.40282837 231.51467819 -46.41124756 230.60233917 -46.41992188 229.66235352 C-46.43583374 228.62099747 -46.45174561 227.57964142 -46.46813965 226.50672913 C-46.46834106 225.39204758 -46.46854248 224.27736603 -46.46875 223.12890625 C-46.47636353 221.97382065 -46.48397705 220.81873505 -46.49182129 219.62864685 C-46.50261522 217.18856974 -46.50547829 214.74844645 -46.50097656 212.30834961 C-46.50000434 208.57913039 -46.5416364 204.8519691 -46.5859375 201.12304688 C-46.59114468 198.75000428 -46.59383269 196.37695455 -46.59375 194.00390625 C-46.61014526 192.89124893 -46.62654053 191.77859161 -46.64343262 190.63221741 C-46.56654056 182.0012916 -46.56654056 182.0012916 -43.6940918 178.40942383 C-41.59646627 176.53344138 -39.71721518 174.86208188 -37.30078125 173.4453125 C-36.64916016 173.05859375 -35.99753906 172.671875 -35.32617188 172.2734375 C-34.66166016 171.89445313 -33.99714844 171.51546875 -33.3125 171.125 C-32.29833008 170.52171875 -32.29833008 170.52171875 -31.26367188 169.90625 C-26.29635682 167 -26.29635682 167 -24 167 C-27.4024762 157.15400659 -30.94235383 147.38763907 -34.81469727 137.71533203 C-37 132.2073576 -37 132.2073576 -37 130 C-38.010625 130.495 -39.02125 130.99 -40.0625 131.5 C-43.75465606 133.30840297 -46.92325366 133.37834247 -51 133 C-53.80220316 131.93542209 -56.30426451 130.4696737 -58.875 128.9375 C-59.626604 128.50429443 -60.37820801 128.07108887 -61.15258789 127.62475586 C-63.77926996 126.10105398 -66.38956727 124.55136866 -69 123 C-70.59739014 122.06075684 -70.59739014 122.06075684 -72.22705078 121.10253906 C-75.63560629 119.09762153 -79.03801855 117.08276186 -82.4375 115.0625 C-83.53368652 114.4120874 -84.62987305 113.7616748 -85.75927734 113.09155273 C-86.78617676 112.47481689 -87.81307617 111.85808105 -88.87109375 111.22265625 C-90.24672485 110.39906616 -90.24672485 110.39906616 -91.65014648 109.55883789 C-95.07044384 107.28989258 -96.68931821 105.93204537 -98 102 C-98.10228209 100.32403624 -98.14842323 98.64436587 -98.16113281 96.96533203 C-98.17074036 95.94061798 -98.1803479 94.91590393 -98.19024658 93.86013794 C-98.19449646 92.75387054 -98.19874634 91.64760315 -98.203125 90.5078125 C-98.21167511 88.80067581 -98.21167511 88.80067581 -98.22039795 87.05905151 C-98.22984879 84.64989146 -98.23638226 82.24071848 -98.24023438 79.83154297 C-98.24994314 76.14658063 -98.28096781 72.46217523 -98.3125 68.77734375 C-98.31902977 66.43750331 -98.32428034 64.09765889 -98.328125 61.7578125 C-98.3466452 60.1044841 -98.3466452 60.1044841 -98.36553955 58.41775513 C-98.36253845 57.38673676 -98.35953735 56.35571838 -98.35644531 55.29345703 C-98.36009094 54.38983429 -98.36373657 53.48621155 -98.36749268 52.5552063 C-97.91789546 49.4291205 -96.8208134 47.55931888 -95 45 C-92.7578125 43.32177734 -92.7578125 43.32177734 -90.125 41.8359375 C-89.14853516 41.27600098 -88.17207031 40.71606445 -87.16601562 40.13916016 C-86.12123047 39.5569873 -85.07644531 38.97481445 -84 38.375 C-81.82262811 37.14113408 -79.6455485 35.90675223 -77.46875 34.671875 C-76.38078125 34.05892578 -75.2928125 33.44597656 -74.171875 32.81445312 C-71.2389998 31.13671848 -68.34885933 29.40700784 -65.46875 27.640625 C-64.62570313 27.12967285 -63.78265625 26.6187207 -62.9140625 26.09228516 C-61.34902625 25.14104448 -59.79117262 24.17784397 -58.2421875 23.20068359 C-53.20343342 20.183157 -49.88134804 19.28966318 -44 20 C-41.05859375 21.171875 -41.05859375 21.171875 -38.4375 22.75 C-37.04337891 23.56404297 -37.04337891 23.56404297 -35.62109375 24.39453125 C-34.02907604 25.36967175 -32.43773991 26.34592772 -30.84765625 27.32421875 C-29.26675117 28.27677255 -27.63697999 29.14740625 -26 30 C-22.02983692 28.67661231 -20.49086239 26.09810704 -18.0625 22.875 C-17.08933107 21.60876791 -16.11534178 20.34316597 -15.140625 19.078125 C-14.63208984 18.41490234 -14.12355469 17.75167969 -13.59960938 17.06835938 C-10.88062622 13.55260461 -8.09552731 10.0901214 -5.3125 6.625 C-4.28774919 5.34636316 -3.2630086 4.06771814 -2.23828125 2.7890625 C-1.13033203 1.40847656 -1.13033203 1.40847656 0 0 Z " fill="#6864F6" transform="translate(227,190)"/>
<path d="M0 0 C3.23340365 1.25395561 6.14476674 2.92365787 9.125 4.6875 C9.97376709 5.17283203 10.82253418 5.65816406 11.69702148 6.15820312 C14.47524799 7.75457688 17.23740578 9.37674619 20 11 C22.02952072 12.17391596 24.05947484 13.34708291 26.08984375 14.51953125 C28.08169119 15.67803505 30.07259966 16.83815496 32.0625 18 C33.00818848 18.55131592 33.95387695 19.10263184 34.92822266 19.6706543 C35.80913574 20.19183838 36.69004883 20.71302246 37.59765625 21.25 C38.37633057 21.70890625 39.15500488 22.1678125 39.95727539 22.640625 C43.22474878 24.8150354 44.74403834 26.23211502 46 30 C46.11183587 31.63978258 46.16888811 33.28358509 46.19287109 34.92700195 C46.20893402 35.92846756 46.22499695 36.92993317 46.24154663 37.96174622 C46.28607401 42.53658305 46.32705292 47.11127643 46.35009766 51.6862793 C46.36666301 54.09848677 46.3939603 56.51064505 46.43212891 58.92260742 C46.48690966 62.40309069 46.50877359 65.88242486 46.5234375 69.36328125 C46.54610687 70.43846512 46.56877625 71.51364899 46.59213257 72.62141418 C46.5685621 80.98197648 46.5685621 80.98197648 43.80444336 84.51904297 C41.14664608 86.87026922 38.71970795 88.64568614 35.60546875 90.33203125 C34.57478271 90.89905762 33.54409668 91.46608398 32.48217773 92.05029297 C31.39493408 92.63182129 30.30769043 93.21334961 29.1875 93.8125 C26.93191878 95.03967945 24.67671041 96.26754447 22.421875 97.49609375 C21.32423828 98.09019043 20.22660156 98.68428711 19.09570312 99.29638672 C16.38948332 100.78566131 13.72697236 102.32185203 11.078125 103.91015625 C10.3663208 104.33256592 9.6545166 104.75497559 8.92114258 105.19018555 C7.64756078 105.95088616 6.38100562 106.72354871 5.1237793 107.51098633 C0.78784109 110.06114031 -3.09623091 111.17702848 -8 110 C-12.39300333 108.01941405 -16.45363763 105.5715882 -20.5625 103.0625 C-21.72261489 102.36917255 -22.88359113 101.6772844 -24.04541016 100.98681641 C-26.33064091 99.62548932 -28.60863916 98.25397219 -30.88427734 96.87646484 C-33.53812612 95.27816664 -36.20598406 93.71463207 -38.89453125 92.17578125 C-40.22142179 91.40897116 -41.54825152 90.64205585 -42.875 89.875 C-44.54175781 88.91207031 -44.54175781 88.91207031 -46.2421875 87.9296875 C-49.41174277 85.7118967 -50.9960615 84.34269863 -53 81 C-53.61203213 77.11883021 -53.58421047 73.27045844 -53.56640625 69.34765625 C-53.57260483 68.21476669 -53.57880341 67.08187714 -53.58518982 65.91465759 C-53.59228567 63.5216457 -53.58911817 61.12858441 -53.57641602 58.7355957 C-53.56256124 55.078663 -53.59661586 51.42429438 -53.63476562 47.76757812 C-53.63571694 45.44010354 -53.63385732 43.11262576 -53.62890625 40.78515625 C-53.64879356 39.14898094 -53.64879356 39.14898094 -53.66908264 37.47975159 C-53.56551863 29.01417369 -53.56551863 29.01417369 -50.80004883 25.47167969 C-48.1330322 23.11743116 -45.69745704 21.34965945 -42.5703125 19.66796875 C-41.53447021 19.10094238 -40.49862793 18.53391602 -39.43139648 17.94970703 C-38.34028564 17.36817871 -37.2491748 16.78665039 -36.125 16.1875 C-33.86722697 14.96195863 -31.61071138 13.73409785 -29.35546875 12.50390625 C-28.26411621 11.90980957 -27.17276367 11.31571289 -26.04833984 10.70361328 C-23.41428365 9.23152902 -20.8489216 7.70447887 -18.30078125 6.08984375 C-17.29990479 5.45622925 -17.29990479 5.45622925 -16.27880859 4.80981445 C-14.57206269 3.71158615 -12.87727243 2.59483774 -11.18359375 1.4765625 C-7.29575841 -0.32662984 -4.16550818 -0.81418715 0 0 Z " fill="#082C76" transform="translate(464,254)"/>
<path d="M0 0 C3.61118968 1.54330843 6.97622276 3.41323195 10.375 5.375 C11.81842773 6.18723022 11.81842773 6.18723022 13.29101562 7.01586914 C16.20326086 8.66159608 19.10231581 10.32879846 22 12 C23.66915152 12.94942853 25.33841458 13.89866102 27.0078125 14.84765625 C28.50625896 15.70911258 30.00371817 16.57228935 31.5 17.4375 C32.17466309 17.82534668 32.84932617 18.21319336 33.54443359 18.61279297 C43.83732903 24.67465805 43.83732903 24.67465805 46 29 C46.10043927 30.64331622 46.13834662 32.29064347 46.14526367 33.93701172 C46.15164352 34.96502899 46.15802338 35.99304626 46.16459656 37.05221558 C46.16570938 38.16678131 46.1668222 39.28134705 46.16796875 40.4296875 C46.17296135 42.14250412 46.17296135 42.14250412 46.17805481 43.8899231 C46.18312509 46.30926103 46.1854631 48.72860598 46.18530273 51.14794922 C46.18748683 54.85265627 46.20563516 58.55706452 46.22460938 62.26171875 C46.22754372 64.60937398 46.22952824 66.95703063 46.23046875 69.3046875 C46.23765427 70.41520477 46.24483978 71.52572205 46.25224304 72.66989136 C46.24916641 73.70421295 46.24608978 74.73853455 46.24291992 75.80419922 C46.24434494 76.71305878 46.24576996 77.62191833 46.24723816 78.55831909 C45.97863095 81.21103704 45.45155606 82.77262557 44 85 C41.64719614 86.5984698 39.35332703 87.99951424 36.875 89.375 C35.34870597 90.2456515 33.82268082 91.11677446 32.296875 91.98828125 C31.45962891 92.46217285 30.62238281 92.93606445 29.75976562 93.42431641 C26.70514456 95.16834722 23.67189236 96.94616695 20.640625 98.73046875 C19.56184082 99.36484863 18.48305664 99.99922852 17.37158203 100.65283203 C15.22625673 101.91473115 13.08139126 103.17741236 10.93701172 104.44091797 C9.94975098 105.0185791 8.96249023 105.59624023 7.9453125 106.19140625 C7.06375488 106.70904541 6.18219727 107.22668457 5.27392578 107.76000977 C1.0540817 110.06112508 -2.23621196 110.40064679 -7 110 C-9.82371792 108.91719318 -12.34661446 107.42521367 -14.9375 105.875 C-15.69168213 105.43849121 -16.44586426 105.00198242 -17.22290039 104.55224609 C-18.89309436 103.58334256 -20.55949922 102.60788669 -22.22265625 101.62695312 C-25.2682897 99.84283733 -28.3354266 98.09975227 -31.40625 96.359375 C-33.58383335 95.11545825 -35.76092169 93.87067452 -37.9375 92.625 C-39.51035767 91.73337158 -39.51035767 91.73337158 -41.11499023 90.82373047 C-42.58754272 89.97125732 -42.58754272 89.97125732 -44.08984375 89.1015625 C-44.96503662 88.59963379 -45.84022949 88.09770508 -46.74194336 87.58056641 C-49.17837889 85.87514056 -50.43438883 84.52089146 -52 82 C-52.40786743 79.50930786 -52.40786743 79.50930786 -52.45166016 76.68408203 C-52.4740274 75.6226297 -52.49639465 74.56117737 -52.5194397 73.46755981 C-52.52591522 72.3258432 -52.53239075 71.18412659 -52.5390625 70.0078125 C-52.55141937 68.82911591 -52.56377625 67.65041931 -52.57650757 66.43600464 C-52.59607531 63.94290127 -52.60730616 61.44972062 -52.61083984 58.95654297 C-52.62492425 55.14549714 -52.69225987 51.33773003 -52.76171875 47.52734375 C-52.77411729 45.10418124 -52.78333686 42.68099996 -52.7890625 40.2578125 C-52.81578033 39.12014435 -52.84249817 37.9824762 -52.87002563 36.81033325 C-52.80414805 29.1264267 -52.80414805 29.1264267 -50.59751892 26.03544617 C-48.8151513 24.45367477 -47.0457324 23.21752727 -45 22 C-43.51947144 21.03622437 -43.51947144 21.03622437 -42.0090332 20.05297852 C-41.03281006 19.50053467 -40.05658691 18.94809082 -39.05078125 18.37890625 C-37.95443359 17.75306641 -36.85808594 17.12722656 -35.72851562 16.48242188 C-34.60123047 15.84884766 -33.47394531 15.21527344 -32.3125 14.5625 C-30.07927413 13.29323783 -27.84620049 12.02370778 -25.61328125 10.75390625 C-24.51580566 10.13789551 -23.41833008 9.52188477 -22.28759766 8.88720703 C-20.08155453 7.62085374 -17.89853731 6.313586 -15.73974609 4.96826172 C-5.64292113 -1.28425102 -5.64292113 -1.28425102 0 0 Z " fill="#062B75" transform="translate(272,102)"/>
<path d="M0 0 C1.640625 2.15234375 1.640625 2.15234375 3.25 4.9375 C9.07687783 14.53325201 16.37781 22.79255958 24 31 C24.82564453 31.90685547 24.82564453 31.90685547 25.66796875 32.83203125 C43.28279205 51.40370915 70.8747782 67.31716296 96 72 C96 72.33 96 72.66 96 73 C87.35829364 74.72114641 78.68867987 75.82237157 69.9375 76.8125 C67.67976827 77.07214323 65.42219008 77.33309653 63.16461182 77.59407043 C61.57493779 77.77774143 59.98521519 77.96099239 58.39544678 78.1438446 C50.87359405 79.01001017 43.35596095 79.91014844 35.83837891 80.8125 C27.83991679 81.77242812 19.83988142 82.71904204 11.83966064 83.66418457 C8.89935059 84.0119027 5.95919894 84.36094256 3.01904297 84.70996094 C-1.99812458 85.30460405 -7.01612539 85.89175817 -12.034729 86.47415161 C-13.94607978 86.69693958 -15.85718108 86.92188008 -17.76800537 87.1491394 C-46.6679728 90.58131867 -46.6679728 90.58131867 -54 85 C-60.65197613 78.88834684 -64.92026889 72.81122516 -65.43359375 63.671875 C-65.34543092 56.26145014 -62.02378581 49.828581 -59.0625 43.1875 C-58.46745667 41.81771325 -57.8741271 40.44718082 -57.2824707 39.07592773 C-56.09833442 36.33843444 -54.90479287 33.60538836 -53.70214844 30.87597656 C-51.72119106 26.37632965 -49.79274062 21.85478673 -47.86694336 17.33129883 C-46.25590421 13.54930855 -44.62846884 9.77451304 -43 6 C-42.67 6.66 -42.34 7.32 -42 8 C-41.17822266 7.75636719 -41.17822266 7.75636719 -40.33984375 7.5078125 C-37.69607645 6.93403996 -35.26789128 6.92529944 -32.5625 6.875 C-24.97981496 6.39136633 -18.2562109 3.96732295 -11.16040039 1.35107422 C-10.2914917 1.0367041 -9.42258301 0.72233398 -8.52734375 0.3984375 C-7.75124756 0.10630371 -6.97515137 -0.18583008 -6.17553711 -0.48681641 C-3.68649806 -1.07395142 -2.36538162 -0.93847222 0 0 Z " fill="#92B1F3" transform="translate(308,458)"/>
<path d="M0 0 C0.08325531 0.69633545 0.16651062 1.3926709 0.25228882 2.11010742 C1.04124089 8.70107039 1.83512688 15.29141859 2.63443565 21.88113403 C3.04510847 25.26825896 3.45393001 28.65558516 3.85839844 32.04345703 C4.32443596 35.94632765 4.79874603 39.84817211 5.2734375 43.75 C5.41623138 44.95551514 5.55902527 46.16103027 5.70614624 47.40307617 C7.24331973 60.43237103 7.24331973 60.43237103 13.875 71.5 C14.85972732 72.70307484 15.84273072 73.9075623 16.82421875 75.11328125 C17.33903809 75.73928223 17.85385742 76.3652832 18.38427734 77.01025391 C21.2276371 80.51182266 23.96201575 84.09388642 26.6875 87.6875 C27.21649902 88.37070312 27.74549805 89.05390625 28.29052734 89.7578125 C32 94.65288827 32 94.65288827 32 98 C30.87464844 98.3403125 29.74929688 98.680625 28.58984375 99.03125 C13.76593136 103.65093078 1.59494113 109.33065701 -10.13671875 119.5859375 C-14.39736548 123.17813351 -18.95021691 126.60070341 -24 129 C-27.59868129 127.80043957 -28.08250697 126.5004824 -29.75366211 123.23706055 C-30.08245361 122.56070557 -30.41124512 121.88435059 -30.75 121.1875 C-31.09490479 120.48987549 -31.43980957 119.79225098 -31.79516602 119.07348633 C-35.97675343 110.34424339 -38.99421269 101.18532211 -42 92 C-42.33 91.01 -42.66 90.02 -43 89 C-43.78087119 82.8831757 -41.80512178 78.81587026 -39.09375 73.35546875 C-36.48899011 65.36443752 -38.2664279 56.4425853 -39.3125 48.26171875 C-39.44567627 47.17792435 -39.57885254 46.09412994 -39.71606445 44.97749329 C-40.13835582 41.54676249 -40.56861612 38.11709835 -41 34.6875 C-41.43031428 31.23993175 -41.85885946 27.79216649 -42.28393555 24.34394836 C-42.54773065 22.20664745 -42.81468743 20.06973376 -43.08520508 17.93327332 C-43.20532959 16.96489029 -43.3254541 15.99650726 -43.44921875 14.9987793 C-43.55580811 14.15179977 -43.66239746 13.30482025 -43.7722168 12.43217468 C-44.00560937 9.94010546 -44.03936293 7.50144768 -44 5 C-36.13431293 3.47369032 -28.26784131 2.31942574 -20.3125 1.375 C-18.69891602 1.17390625 -18.69891602 1.17390625 -17.05273438 0.96875 C-16.00021484 0.84242188 -14.94769531 0.71609375 -13.86328125 0.5859375 C-12.92782471 0.4729834 -11.99236816 0.3600293 -11.02856445 0.24365234 C-7.33502842 -0.05349792 -3.70512097 -0.03734248 0 0 Z " fill="#FDFDFE" transform="translate(332,327)"/>
<path d="M0 0 C1.21719727 0.69802734 1.21719727 0.69802734 2.45898438 1.41015625 C3.40362549 1.90918457 4.3482666 2.40821289 5.3215332 2.92236328 C6.853302 3.78643799 6.853302 3.78643799 8.41601562 4.66796875 C9.41866455 5.2314502 10.42131348 5.79493164 11.4543457 6.37548828 C12.71400146 7.08817871 13.97365723 7.80086914 15.27148438 8.53515625 C19.29335938 10.80390625 23.31523437 13.07265625 27.45898438 15.41015625 C27.45898438 26.63015625 27.45898438 37.85015625 27.45898438 49.41015625 C22.92148437 52.07078125 18.38398438 54.73140625 13.70898438 57.47265625 C12.28360352 58.31707275 10.85822266 59.16148926 9.38964844 60.03149414 C7.6992041 61.00977173 7.6992041 61.00977173 5.97460938 62.0078125 C5.09844971 62.53368958 5.09844971 62.53368958 4.20458984 63.07019043 C0.06679645 65.43753648 0.06679645 65.43753648 -2.58422852 65.31811523 C-5.24974635 64.08130166 -7.80437513 62.72850919 -10.36523438 61.28515625 C-11.47576172 60.66125 -12.58628906 60.03734375 -13.73046875 59.39453125 C-14.30418213 59.06904297 -14.87789551 58.74355469 -15.46899414 58.40820312 C-17.23046011 57.40905328 -18.99569742 56.41685309 -20.76171875 55.42578125 C-29.38952197 50.56164991 -29.38952197 50.56164991 -30.54101562 49.41015625 C-30.62949305 46.88921549 -30.65628864 44.39584732 -30.63867188 41.875 C-30.63725693 41.12174942 -30.63584198 40.36849884 -30.63438416 39.59242249 C-30.62876938 37.17746065 -30.61621445 34.76259024 -30.60351562 32.34765625 C-30.59850252 30.71419404 -30.59393929 29.08073039 -30.58984375 27.44726562 C-30.57879516 23.4348604 -30.56152069 19.42252384 -30.54101562 15.41015625 C-26.65844182 13.07140308 -22.76267735 10.75714402 -18.8527832 8.46435547 C-17.5249964 7.68120609 -16.20104066 6.89152301 -14.88110352 6.09521484 C-12.98189428 4.95097521 -11.07010064 3.83101819 -9.15429688 2.71484375 C-8.27430779 2.17438919 -8.27430779 2.17438919 -7.37654114 1.62301636 C-4.64099963 0.05805834 -3.12899145 -0.72633007 0 0 Z " fill="#65CAD0" transform="translate(270.541015625,124.58984375)"/>
<path d="M0 0 C3.89665867 1.50857189 7.36288034 3.59326894 10.92578125 5.76171875 C11.64701172 6.19226563 12.36824219 6.6228125 13.11132812 7.06640625 C14.5680579 7.93913763 16.01313875 8.83160133 17.44604492 9.74291992 C19.57074397 11.06833895 19.57074397 11.06833895 21.8840332 11.8684082 C24.47850925 12.9761653 25.8326912 13.80044248 27.61328125 16.01171875 C29.07593343 21.56638539 29.21221819 26.97906498 29.17578125 32.69921875 C29.18191437 33.86680725 29.18191437 33.86680725 29.18817139 35.0579834 C29.12988829 47.58005853 29.12988829 47.58005853 26.07080078 52.48486328 C22.2119731 56.05944915 17.70296238 57.75875698 12.73339844 59.28955078 C9.78104976 60.2951988 7.41321531 61.92821591 4.86328125 63.69921875 C1.28639373 66.08595485 1.28639373 66.08595485 -1.66015625 65.76098633 C-4.83369873 64.88888731 -7.25653398 63.56098991 -10.08984375 61.88671875 C-11.15203125 61.2628125 -12.21421875 60.63890625 -13.30859375 59.99609375 C-14.406875 59.34125 -15.50515625 58.68640625 -16.63671875 58.01171875 C-17.75046875 57.356875 -18.86421875 56.70203125 -20.01171875 56.02734375 C-28.21019345 51.18824405 -28.21019345 51.18824405 -29.38671875 50.01171875 C-29.87187937 45.29751303 -30.04311205 40.58520327 -30.17626953 35.84936523 C-30.23282907 34.26068871 -30.31451977 32.67269069 -30.42236328 31.08666992 C-30.7749057 25.80240169 -30.81286665 21.14486539 -29.38671875 16.01171875 C-25.55485297 12.14892841 -21.33027076 10.17167404 -16.38671875 8.01171875 C-14.98446304 7.18414093 -13.59482089 6.33399093 -12.23046875 5.4453125 C-11.12703125 4.78660156 -10.02359375 4.12789063 -8.88671875 3.44921875 C-7.200625 2.42634766 -7.200625 2.42634766 -5.48046875 1.3828125 C-2.38671875 0.01171875 -2.38671875 0.01171875 0 0 Z " fill="#B0D852" transform="translate(461.38671875,275.98828125)"/>
<path d="M0 0 C2.86670298 1.34477025 5.58778234 2.76118348 8.30639648 4.38452148 C9.27512695 4.96008789 10.24385742 5.5356543 11.24194336 6.12866211 C12.23645508 6.72743164 13.2309668 7.32620117 14.25561523 7.94311523 C15.77638672 8.84707031 15.77638672 8.84707031 17.32788086 9.76928711 C24.77776795 14.21526795 24.77776795 14.21526795 25.94311523 15.38061523 C26.03151194 17.75630043 26.05841829 20.10270197 26.04077148 22.47827148 C26.03935654 23.18712997 26.03794159 23.89598846 26.03648376 24.62632751 C26.03086966 26.89863236 26.01831486 29.17083999 26.00561523 31.44311523 C26.00060205 32.98022319 25.99603883 34.51733268 25.99194336 36.05444336 C25.98089566 39.82987165 25.96362165 43.60522694 25.94311523 47.38061523 C22.34275621 49.55393533 18.73162108 51.70769601 15.109375 53.84423828 C13.87936276 54.57336841 12.65242237 55.30770715 11.42871094 56.04736328 C9.66664453 57.11118494 7.89429147 58.15563563 6.11889648 59.19702148 C5.05582275 59.83067627 3.99274902 60.46433105 2.89746094 61.1171875 C-0.48325719 62.56295366 -1.64278641 62.60437085 -5.05688477 61.38061523 C-6.91859595 60.47809152 -8.74575779 59.50231963 -10.54125977 58.47436523 C-12.06686523 57.60618164 -12.06686523 57.60618164 -13.62329102 56.72045898 C-14.67387695 56.11331055 -15.72446289 55.50616211 -16.80688477 54.88061523 C-18.4059668 53.96989258 -18.4059668 53.96989258 -20.03735352 53.04077148 C-27.88589332 48.55160668 -27.88589332 48.55160668 -29.05688477 47.38061523 C-29.1453227 44.93231097 -29.17217228 42.51240925 -29.15454102 40.06420898 C-29.15312607 39.33315445 -29.15171112 38.60209991 -29.1502533 37.84889221 C-29.14463885 35.50525891 -29.13208398 33.16171984 -29.11938477 30.81811523 C-29.11437162 29.23283015 -29.10980839 27.64754358 -29.10571289 26.06225586 C-29.09466473 22.16833913 -29.07739048 18.27449318 -29.05688477 14.38061523 C-25.47931136 12.18131856 -21.88675543 10.00973995 -18.27807617 7.86206055 C-17.05358429 7.12820744 -15.83344154 6.38704509 -14.61791992 5.63842773 C-12.86640911 4.56145624 -11.10076872 3.51202581 -9.33032227 2.46655273 C-8.27248535 1.82766113 -7.21464844 1.18876953 -6.12475586 0.53051758 C-3.05688477 -0.61938477 -3.05688477 -0.61938477 0 0 Z " fill="#D1DAFC" transform="translate(233.056884765625,367.619384765625)"/>
<path d="M0 0 C8.17199858 3.49806802 16.23117575 7.0342493 19.76318359 15.671875 C22.24201635 25.23894388 22.00770077 35.83909436 18.26171875 45 C12.17576853 52.31063066 3.18132413 56.18319978 -5.73828125 59 C-6.55425781 59.27191162 -7.37023437 59.54382324 -8.2109375 59.82397461 C-11.87072853 60.07887312 -13.7885376 58.67940385 -16.9140625 56.81640625 C-17.95731689 56.20482666 -19.00057129 55.59324707 -20.07543945 54.96313477 C-21.38730225 54.17092529 -22.69916504 53.37871582 -24.05078125 52.5625 C-28.23765625 50.066875 -32.42453125 47.57125 -36.73828125 45 C-36.73828125 34.11 -36.73828125 23.22 -36.73828125 12 C-28.23828125 7.3125 -28.23828125 7.3125 -25.61132812 5.8684082 C-24.90041016 5.47484131 -24.18949219 5.08127441 -23.45703125 4.67578125 C-22.668125 4.23959473 -21.87921875 3.8034082 -21.06640625 3.35400391 C-18.15063285 1.65823217 -15.38662582 -0.23048153 -12.64257812 -2.19067383 C-8.52992343 -3.93855207 -3.95125595 -1.49793397 0 0 Z " fill="#FBCA51" transform="translate(417.73828125,148)"/>
<path d="M0 0 C1.37152222 0.433125 1.37152222 0.433125 2.77075195 0.875 C10.67912554 3.87309013 18.69293349 7.1859043 24 14 C27.62850488 24.04862448 25.39829964 36.69381454 24 47 C23.49662109 47.27674561 22.99324219 47.55349121 22.47460938 47.83862305 C20.14844214 49.11924101 17.82421943 50.40335055 15.5 51.6875 C14.70851562 52.12255859 13.91703125 52.55761719 13.1015625 53.00585938 C8.51434186 55.5438708 4.10226957 58.18044494 -0.19335938 61.19067383 C-2.59500679 62.26654696 -3.56255129 61.92542679 -6 61 C-7.55223804 60.24470891 -9.08110801 59.44038551 -10.58984375 58.6015625 C-11.89018555 57.88226563 -11.89018555 57.88226563 -13.21679688 57.1484375 C-14.11462891 56.64570313 -15.01246094 56.14296875 -15.9375 55.625 C-16.83146484 55.13 -17.72542969 54.635 -18.64648438 54.125 C-21.10391752 52.76036749 -23.55822427 51.39246178 -26 50 C-26.91233398 49.60498291 -27.82466797 49.20996582 -28.76464844 48.80297852 C-31 47 -31 47 -31.56762695 43.63012695 C-31.56683736 42.24925863 -31.53869745 40.86822913 -31.48828125 39.48828125 C-31.48120651 38.76005661 -31.47413177 38.03183197 -31.46684265 37.28153992 C-31.43887081 34.95747763 -31.3761365 32.6358327 -31.3125 30.3125 C-31.28742031 28.73636295 -31.26460655 27.16018809 -31.24414062 25.58398438 C-31.18903626 21.72172602 -31.10275228 17.86127268 -31 14 C-27.39964097 11.8266799 -23.78850584 9.67291923 -20.16625977 7.53637695 C-18.93624753 6.80724682 -17.70930713 6.07290808 -16.4855957 5.33325195 C-14.72352929 4.26943029 -12.95117624 3.2249796 -11.17578125 2.18359375 C-9.58117065 1.23311157 -9.58117065 1.23311157 -7.9543457 0.26342773 C-4.57188485 -1.18308371 -3.43070148 -1.14322843 0 0 Z " fill="#FC7CA0" transform="translate(183,236)"/>
<path d="M0 0 C0.495 9.405 0.495 9.405 1 19 C-1.02253906 19.24234375 -3.04507813 19.4846875 -5.12890625 19.734375 C-7.19764584 19.98307123 -9.26632579 20.23225704 -11.33499146 20.48156738 C-12.8189157 20.66039214 -14.30286344 20.83902198 -15.78683472 21.01745605 C-24.13435812 22.02235441 -32.47772899 23.05012661 -40.8125 24.15625 C-41.51229477 24.24867981 -42.21208954 24.34110962 -42.93309021 24.43634033 C-46.27154079 24.87774229 -49.60900343 25.32463096 -52.94555664 25.78027344 C-59.02117151 26.5877019 -64.87020237 27.21427507 -71 27 C-72.23759823 23.28720531 -72.35608897 19.68693654 -72.5625 15.8125 C-72.60568359 15.06291016 -72.64886719 14.31332031 -72.69335938 13.54101562 C-72.79922685 11.69421625 -72.9000976 9.84713166 -73 8 C-66.15298274 6.51545086 -59.35598919 5.47708626 -52.390625 4.74609375 C-51.4201825 4.64031509 -50.44973999 4.53453644 -49.44989014 4.42555237 C-46.38369974 4.09197493 -43.31691001 3.76438902 -40.25 3.4375 C-37.16892473 3.10605903 -34.08799905 2.77331708 -31.00726318 2.43873596 C-29.09980969 2.23188749 -27.19214391 2.02698427 -25.28424072 1.82432556 C-7.57639474 -0.08418216 -7.57639474 -0.08418216 0 0 Z " fill="#90AFF1" transform="translate(342,286)"/>
<path d="M0 0 C2.23310552 1.07575855 4.46124501 2.16022483 6.6875 3.25 C7.31333984 3.55035156 7.93917969 3.85070312 8.58398438 4.16015625 C12.45438826 6.06496235 15.7119061 8.15828214 19 11 C17.97326172 11.98419922 17.97326172 11.98419922 16.92578125 12.98828125 C13.41560845 16.5009234 10.3211444 20.34081331 7.1875 24.1875 C6.57310059 24.93765381 5.95870117 25.68780762 5.32568359 26.46069336 C0.84342376 31.94156997 -3.60693841 37.4472793 -8 43 C-10.23310552 41.92424145 -12.46124501 40.83977517 -14.6875 39.75 C-15.31333984 39.44964844 -15.93917969 39.14929688 -16.58398438 38.83984375 C-20.45438826 36.93503765 -23.7119061 34.84171786 -27 32 C-26.30519531 31.33355469 -25.61039062 30.66710937 -24.89453125 29.98046875 C-21.55733997 26.64092981 -18.63778505 22.9925237 -15.6875 19.3125 C-15.1193457 18.60859131 -14.55119141 17.90468262 -13.96582031 17.17944336 C-10.09067026 12.37401523 -6.23125475 7.55571764 -2.390625 2.72265625 C-1 1 -1 1 0 0 Z " fill="#6965F6" transform="translate(420,343)"/>
<path d="M0 0 C2.09504323 1.05695719 4.15140488 2.19220286 6.17578125 3.37890625 C7.74066284 4.28878296 7.74066284 4.28878296 9.3371582 5.21704102 C10.649021 5.99104248 11.96088379 6.76504395 13.3125 7.5625 C17.499375 10.016875 21.68625 12.47125 26 15 C26 26.22 26 37.44 26 49 C20.37922849 43.37922849 20.37922849 43.37922849 18.44921875 40.75 C18.00570068 40.1516333 17.56218262 39.5532666 17.10522461 38.93676758 C16.63737549 38.29763428 16.16952637 37.65850098 15.6875 37 C14.64160884 35.58651108 13.59467543 34.17379294 12.546875 32.76171875 C11.98419922 32.00294434 11.42152344 31.24416992 10.84179688 30.46240234 C8.83498974 27.77938845 6.80352516 25.11650015 4.765625 22.45703125 C4.04802002 21.52052734 3.33041504 20.58402344 2.59106445 19.61914062 C1.17729699 17.77664308 -0.23817623 15.93545287 -1.65551758 14.09570312 C-2.30673584 13.24556641 -2.9579541 12.39542969 -3.62890625 11.51953125 C-4.4962439 10.39188354 -4.4962439 10.39188354 -5.38110352 9.24145508 C-7.07063794 6.90219772 -8.55018048 4.49360172 -10 2 C-6.16871792 -0.73663005 -4.50343986 -1.33103199 0 0 Z " fill="#F38B05" transform="translate(375,388)"/>
<path d="M0 0 C2.97361628 1.78152067 5.42653612 3.85307225 7 7 C7.375 10.3125 7.375 10.3125 7 14 C3.82324822 17.84554163 1.71385593 19.80224739 -3.25 20.375 C-8.07479235 19.89252077 -9.79065117 18.59141416 -13 15 C-14.125 11.5625 -14.125 11.5625 -14 8 C-10.57517533 1.51729616 -7.40020316 -0.87799021 0 0 Z " fill="#6966F6" transform="translate(343,502)"/>
<path d="M0 0 C2.8100346 1.79363911 4.50940468 3.01880935 6 6 C6.37340899 10.94766914 6.22237243 14.11092983 3 18 C-0.64643788 20.06959988 -3.8519852 20.51850185 -8 20 C-11.33761045 17.84909549 -12.73470933 16.79587201 -14 13 C-14.38887761 8.80012182 -14.45908323 6.70392762 -12.125 3.125 C-8.51880254 -0.48119746 -4.93573703 -0.70915762 0 0 Z " fill="#6965F6" transform="translate(284,488)"/>
<path d="M0 0 C3.52864183 2.06392258 5.41235516 3.28059473 6.73828125 7.16015625 C7.42473588 11.31355344 7.4065792 13.32704132 5.1875 17 C1.64213511 20.24147647 -1.04981886 20.47034537 -5.734375 20.40234375 C-8 20 -8 20 -11.0625 17.5 C-13.71565523 13.58960049 -13.73301898 10.61801955 -13 6 C-9.07404115 1.14420879 -6.25795636 -0.72207189 0 0 Z " fill="#6A67F7" transform="translate(377,470)"/>
</svg>
