<?xml version="1.0" encoding="UTF-8"?>
<svg version="1.1" xmlns="http://www.w3.org/2000/svg" width="640" height="640">
<path d="M0 0 C211.2 0 422.4 0 640 0 C640 211.2 640 422.4 640 640 C428.8 640 217.6 640 0 640 C0 428.8 0 217.6 0 0 Z " fill="#FEFEFE" transform="translate(0,0)"/>
<path d="M0 0 C2.65107912 1.2752327 5.20357013 2.66278684 7.76342773 4.11254883 C8.71604492 4.64992676 9.66866211 5.18730469 10.65014648 5.7409668 C13.70141801 7.48846789 16.73429483 9.26447493 19.76342773 11.05004883 C20.77920898 11.64495117 21.79499023 12.23985352 22.84155273 12.8527832 C24.8527446 14.03242459 26.86064206 15.21770303 28.86499023 16.40893555 C30.76205108 17.52397013 32.67331177 18.61527229 34.59936523 19.67944336 C35.47850586 20.17428223 36.35764648 20.66912109 37.26342773 21.17895508 C38.03686523 21.60249268 38.81030273 22.02603027 39.60717773 22.46240234 C43.24257712 25.24452015 45.46084612 27.94547611 46.11026001 32.59654236 C46.24331336 35.6556978 46.23906425 38.68762104 46.18920898 41.74926758 C46.18592087 42.86566116 46.18263275 43.98205475 46.179245 45.13227844 C46.16884599 47.48489234 46.14893334 49.83748101 46.12011719 52.18994141 C46.07595587 55.79775024 46.05866505 59.40489348 46.04663086 63.01293945 C46.03320989 65.30005847 46.01828778 67.58716927 46.00170898 69.87426758 C45.99432205 70.95552414 45.98693512 72.0367807 45.97932434 73.15080261 C45.96648911 74.15226822 45.95365387 75.15373383 45.94042969 76.18554688 C45.93058548 77.06679733 45.92074127 77.94804779 45.91059875 78.85600281 C45.76342773 81.11254883 45.76342773 81.11254883 44.76342773 84.11254883 C45.34302246 84.37898193 45.92261719 84.64541504 46.51977539 84.91992188 C48.83044259 86.14817098 50.65368184 87.52109391 52.66186523 89.19458008 C53.38889648 89.7972168 54.11592773 90.39985352 54.86499023 91.02075195 C55.9903418 91.96337891 55.9903418 91.96337891 57.13842773 92.92504883 C57.88092773 93.54186523 58.62342773 94.15868164 59.38842773 94.79418945 C60.4828418 95.70394531 60.4828418 95.70394531 61.59936523 96.63208008 C62.31189453 97.22069824 63.02442383 97.80931641 63.75854492 98.41577148 C65.02028854 99.48361344 66.25956058 100.57918727 67.46362305 101.71166992 C69.12570671 103.3086218 69.12570671 103.3086218 71.76342773 105.11254883 C75.94076386 104.79084239 78.94623977 103.0595213 82.50952148 100.95239258 C83.59426758 100.32397461 84.67901367 99.69555664 85.79663086 99.0480957 C88.06496663 97.71676611 90.33060385 96.38082792 92.59350586 95.0402832 C93.67954102 94.4131543 94.76557617 93.78602539 95.88452148 93.13989258 C96.86864014 92.55973389 97.85275879 91.9795752 98.86669922 91.38183594 C102.18519172 89.92774049 104.17609223 89.67988907 107.76342773 90.11254883 C110.46972656 91.23901367 110.46972656 91.23901367 113.22045898 92.82348633 C114.75440308 93.69481201 114.75440308 93.69481201 116.31933594 94.58374023 C117.39401123 95.21199707 118.46868652 95.84025391 119.57592773 96.48754883 C120.68218506 97.12225098 121.78844238 97.75695312 122.92822266 98.41088867 C125.16188396 99.69545856 127.39215757 100.98593823 129.61889648 102.2824707 C132.41944884 103.91235738 135.2293121 105.52407015 138.04467773 107.12817383 C139.55572017 107.99687792 141.06618458 108.86658863 142.57592773 109.73754883 C143.59553589 110.32028564 143.59553589 110.32028564 144.63574219 110.91479492 C148.1664962 112.98390491 151.14252803 114.95840222 153.76342773 118.11254883 C154.2713623 120.60997009 154.2713623 120.60997009 154.28100586 123.44433594 C154.2936145 124.50901596 154.30622314 125.57369598 154.31921387 126.67063904 C154.30706848 128.38791954 154.30706848 128.38791954 154.29467773 130.13989258 C154.29850464 131.32096085 154.30233154 132.50202911 154.30627441 133.71888733 C154.30899603 136.21624605 154.30161756 138.71363317 154.28491211 141.2109375 C154.26352703 145.03230467 154.28469768 148.85178748 154.31030273 152.6730957 C154.30765913 155.09953214 154.30253349 157.52596741 154.29467773 159.95239258 C154.30277466 161.09522202 154.31087158 162.23805145 154.31921387 163.41551208 C154.22651675 171.26607726 154.22651675 171.26607726 152.10668945 175.14086914 C149.43755052 177.38675016 146.78850376 179.1183367 143.73999023 180.81958008 C143.1573642 181.14866867 142.57473816 181.47775726 141.97445679 181.81681824 C140.11775963 182.86272001 138.25349001 183.89415249 136.38842773 184.92504883 C135.1756461 185.60442062 133.96340184 186.28475266 132.75170898 186.96606445 C130.32826662 188.32774046 127.90096842 189.68218548 125.47143555 191.03295898 C122.89953464 192.46768012 120.34426669 193.92792683 117.79760742 195.40698242 C117.15649017 195.77836838 116.51537292 196.14975433 115.85482788 196.53239441 C114.62553707 197.2461707 113.39824792 197.96340846 112.17324829 198.68452454 C107.98478268 201.11254883 107.98478268 201.11254883 105.76342773 201.11254883 C105.68825928 201.76102783 105.61309082 202.40950684 105.53564453 203.07763672 C104.07628081 215.53683041 102.53019735 227.86812159 99.76342773 240.11254883 C100.64426025 240.38276855 101.52509277 240.65298828 102.43261719 240.93139648 C107.65503305 242.78333872 112.20058988 245.66655029 116.95092773 248.48754883 C117.94801758 249.06504883 118.94510742 249.64254883 119.97241211 250.23754883 C120.92825195 250.8021582 121.8840918 251.36676758 122.86889648 251.94848633 C123.73667725 252.45943848 124.60445801 252.97039062 125.49853516 253.49682617 C127.91717855 255.22223115 129.1976756 256.59601297 130.76342773 259.11254883 C131.15783691 261.5652771 131.15783691 261.5652771 131.18334961 264.33666992 C131.20721741 265.89881729 131.20721741 265.89881729 131.23156738 267.49252319 C131.23186951 269.17228745 131.23186951 269.17228745 131.23217773 270.88598633 C131.23979126 272.04248688 131.24740479 273.19898743 131.25524902 274.39053345 C131.26605302 276.83658693 131.26890194 279.28268656 131.2644043 281.72875977 C131.26343311 285.46685002 131.30503189 289.20288054 131.34936523 292.94067383 C131.35457308 295.31827372 131.35726041 297.69588074 131.35717773 300.07348633 C131.373573 301.1892807 131.38996826 302.30507507 131.40686035 303.4546814 C131.32995495 312.11377994 131.32995495 312.11377994 128.45678711 315.71801758 C126.34291299 317.59735744 124.56205007 319.16240248 122.07592773 320.46411133 C121.38692383 320.83479736 120.69791992 321.2054834 119.98803711 321.58740234 C119.25391602 321.96695068 118.51979492 322.34649902 117.76342773 322.73754883 C116.16881176 323.5914023 114.5751012 324.44694827 112.98217773 325.30395508 C112.14170898 325.75270996 111.30124023 326.20146484 110.43530273 326.66381836 C105.66407907 329.25084698 100.96757021 331.96854479 96.26342773 334.67504883 C94.48248061 335.69771187 92.70125353 336.71988762 90.91967773 337.74145508 C90.16493164 338.17530518 89.41018555 338.60915527 88.63256836 339.05615234 C84.76057036 341.24451903 82.27832106 341.44443661 77.76342773 341.11254883 C74.43017578 339.65966797 74.43017578 339.65966797 71.02514648 337.64770508 C70.41830521 337.29494003 69.81146393 336.94217499 69.18623352 336.57872009 C67.26582051 335.45817869 65.35850336 334.31727936 63.45092773 333.17504883 C62.1516217 332.41127524 60.85149785 331.6488911 59.55053711 330.88793945 C57.17823478 329.49876929 54.81245877 328.10035247 52.44970703 326.69482422 C50.91293489 325.78963288 49.35868069 324.9101753 47.76342773 324.11254883 C50.30404874 328.39546489 52.84517392 332.6780813 55.38671875 336.96044922 C56.24687529 338.40991606 57.10690628 339.85945741 57.96679688 341.30908203 C59.22027086 343.42216485 60.47415506 345.53500349 61.72827148 347.64770508 C62.14446243 348.34896515 62.56065338 349.05022522 62.98945618 349.7727356 C65.08251729 353.29596441 67.18282769 356.81456307 69.29736328 360.32495117 C69.70310074 360.99876328 70.1088382 361.67257538 70.52687073 362.36680603 C71.28897617 363.63105193 72.05226477 364.89458574 72.81700134 366.15724182 C80.62867995 379.11280416 85.19966764 390.96052582 82.11108398 406.36645508 C78.38332459 418.63766304 71.20698066 429.75915726 59.83984375 435.98413086 C39.39040496 446.51910441 12.7486792 443.28122933 -9.62719727 443.31567383 C-10.88534996 443.31850121 -12.14350266 443.32132858 -13.43978119 443.32424164 C-19.39631627 443.33756884 -25.35283868 443.34752978 -31.30938649 443.35144353 C-38.12305304 443.35595049 -44.93652165 443.37367103 -51.75012803 443.40244412 C-57.71313537 443.42673428 -63.67609366 443.43439009 -69.63915253 443.43611908 C-72.15404096 443.43913304 -74.66892881 443.44711875 -77.18378448 443.46030426 C-80.69274509 443.47742171 -84.20121929 443.47547273 -87.71020508 443.46899414 C-88.73372574 443.47820892 -89.7572464 443.48742371 -90.81178284 443.49691772 C-103.54862864 443.42351875 -114.1836137 439.11723417 -123.48657227 430.36254883 C-132.46033869 420.82678895 -136.45039426 410.48673598 -136.54907227 397.55004883 C-136.55471191 396.85387451 -136.56035156 396.1577002 -136.56616211 395.44042969 C-136.4283379 385.4808789 -133.61051126 378.24990089 -128.54907227 369.73754883 C-127.37712868 367.71881267 -126.20661792 365.69924421 -125.03735352 363.67895508 C-124.11237061 362.08978271 -124.11237061 362.08978271 -123.16870117 360.46850586 C-121.14935762 356.9610638 -119.17423098 353.43223661 -117.21704102 349.88989258 C-116.8841658 349.28749756 -116.55129059 348.68510254 -116.20832825 348.06445312 C-114.58705329 345.12742413 -112.96885985 342.18870864 -111.35107422 339.24975586 C-108.80576919 334.6474471 -106.27354132 330.10966388 -103.35375977 325.73364258 C-100.52286521 321.26690036 -100.27709551 317.44991834 -100.51782227 312.21411133 C-101.83241314 306.54136592 -105.65197597 304.32053712 -110.23657227 301.11254883 C-112.04828301 299.70412633 -113.83988807 298.27214113 -115.63256836 296.83959961 C-117.96160887 294.98409591 -120.30932774 293.15488372 -122.67993164 291.3527832 C-124.23657227 290.11254883 -124.23657227 290.11254883 -126.78344727 287.65942383 C-129.14183669 285.80450516 -129.14183669 285.80450516 -131.93579102 286.48364258 C-137.42066503 289.19037922 -142.50936366 292.51972021 -147.62915039 295.85668945 C-152.93122602 299.17200102 -157.81621469 302.0981714 -164.23657227 301.11254883 C-168.15714835 299.51030768 -171.64038158 297.33444879 -175.23657227 295.11254883 C-177.31811223 293.95639378 -179.40552747 292.81076176 -181.49829102 291.67504883 C-183.64059133 290.48822229 -185.78251579 289.30071705 -187.92407227 288.11254883 C-188.99979492 287.5221582 -190.07551758 286.93176758 -191.18383789 286.32348633 C-206.40486411 277.86011106 -206.40486411 277.86011106 -210.23657227 272.11254883 C-210.51072693 269.77334595 -210.51072693 269.77334595 -210.54296875 266.98608398 C-210.55895615 265.94134918 -210.57494354 264.89661438 -210.59141541 263.82022095 C-210.59677811 262.69207977 -210.60214081 261.5639386 -210.60766602 260.40161133 C-210.61669449 259.24132416 -210.62572296 258.08103699 -210.63502502 256.8855896 C-210.64954234 254.42936794 -210.65841792 251.97310749 -210.66210938 249.5168457 C-210.6740043 245.75902126 -210.72317791 242.00283902 -210.77368164 238.24536133 C-210.78314572 235.85995269 -210.79038083 233.47453395 -210.79516602 231.08911133 C-210.81469833 229.96501862 -210.83423065 228.8409259 -210.85435486 227.68276978 C-210.8093583 219.90138518 -210.8093583 219.90138518 -208.02294922 216.06396484 C-205.41589638 214.23813698 -202.86104552 212.48998849 -200.09594727 210.91333008 C-198.62472412 210.06569092 -198.62472412 210.06569092 -197.1237793 209.20092773 C-196.08850098 208.6148877 -195.05322266 208.02884766 -193.98657227 207.42504883 C-191.83267215 206.18981504 -189.67902804 204.95413473 -187.52563477 203.71801758 C-186.46376953 203.11135254 -185.4019043 202.5046875 -184.30786133 201.87963867 C-181.50663737 200.26793287 -178.72288324 198.63155019 -175.94750977 196.97583008 C-175.16537109 196.50943115 -174.38323242 196.04303223 -173.57739258 195.5625 C-172.12979145 194.69690598 -170.68375403 193.82868999 -169.23950195 192.95751953 C-164.45700289 190.11254883 -164.45700289 190.11254883 -162.23657227 190.11254883 C-162.18831299 189.56034668 -162.14005371 189.00814453 -162.09033203 188.43920898 C-161.37375461 180.75058999 -160.28739896 173.12740903 -159.17407227 165.48754883 C-158.98780273 164.19719727 -158.8015332 162.9068457 -158.60961914 161.57739258 C-158.1538634 158.42216052 -157.69613728 155.26722791 -157.23657227 152.11254883 C-158.00324219 151.68433838 -158.76991211 151.25612793 -159.55981445 150.81494141 C-162.41975627 149.21104341 -165.27410213 147.59796731 -168.12524414 145.97851562 C-169.35687383 145.28144294 -170.59057755 144.58802093 -171.82641602 143.8984375 C-173.60943379 142.90267959 -175.38441211 141.89373534 -177.15844727 140.88208008 C-178.22675781 140.27984619 -179.29506836 139.6776123 -180.39575195 139.05712891 C-183.6205871 136.84968546 -185.34098043 135.55737676 -187.23657227 132.11254883 C-187.83172838 128.14318861 -187.82076198 124.21420444 -187.80297852 120.20629883 C-187.81227638 118.47011292 -187.81227638 118.47011292 -187.82176208 116.69885254 C-187.82885799 114.25456584 -187.82569035 111.81023079 -187.81298828 109.3659668 C-187.79912081 105.62564236 -187.8332036 101.88781836 -187.87133789 98.14770508 C-187.87228907 95.77140238 -187.87043034 93.39509655 -187.86547852 91.01879883 C-187.87873672 89.90098022 -187.89199493 88.78316162 -187.90565491 87.63146973 C-187.81266592 79.88121719 -187.81266592 79.88121719 -184.9074707 76.00488281 C-184.02607422 75.3804126 -183.14467773 74.75594238 -182.23657227 74.11254883 C-181.6599585 73.69561768 -181.08334473 73.27868652 -180.48925781 72.84912109 C-179.95598877 72.54546631 -179.42271973 72.24181152 -178.87329102 71.92895508 C-177.93126831 71.38343994 -177.93126831 71.38343994 -176.97021484 70.8269043 C-176.29498779 70.44679199 -175.61976074 70.06667969 -174.92407227 69.67504883 C-173.42106327 68.8150789 -171.91848572 67.95435463 -170.41625977 67.09301758 C-169.59738281 66.62557129 -168.77850586 66.158125 -167.93481445 65.67651367 C-164.93268609 63.93640923 -161.9633178 62.14695756 -158.99438477 60.35083008 C-157.92744385 59.71137451 -156.86050293 59.07191895 -155.76123047 58.41308594 C-153.64735484 57.14591735 -151.53892715 55.86960846 -149.43652344 54.58349609 C-148.45917236 54.00269287 -147.48182129 53.42188965 -146.47485352 52.82348633 C-145.60900635 52.30061035 -144.74315918 51.77773437 -143.85107422 51.23901367 C-140.66236097 49.86514842 -138.68392157 49.69738122 -135.23657227 50.11254883 C-132.22314453 51.43847656 -132.22314453 51.43847656 -129.05297852 53.29614258 C-128.48004059 53.62744171 -127.90710266 53.95874084 -127.31680298 54.30007935 C-126.0985056 55.0071687 -124.88370083 55.72030524 -123.67221069 56.43899536 C-121.78768766 57.55680161 -119.89404338 58.65751302 -117.99755859 59.75488281 C-112.71402432 62.82315765 -107.46278713 65.93429215 -102.30688477 69.21411133 C-101.63069092 69.64022705 -100.95449707 70.06634277 -100.2578125 70.50537109 C-98.56485803 71.58524659 -96.8900228 72.69338861 -95.21704102 73.80395508 C-89.62569914 76.25886927 -84.17374974 73.91424737 -78.71704102 71.82739258 C-76.93716797 71.15546875 -76.93716797 71.15546875 -75.12133789 70.4699707 C-73.90124023 70.00139648 -72.68114258 69.53282227 -71.42407227 69.05004883 C-68.98163459 68.11741272 -66.53722255 67.19034905 -64.09204102 66.26489258 C-63.01591553 65.85231201 -61.93979004 65.43973145 -60.83105469 65.01464844 C-58.23657227 64.11254883 -58.23657227 64.11254883 -56.23657227 64.11254883 C-56.25751953 63.11400879 -56.2784668 62.11546875 -56.30004883 61.08666992 C-56.37273927 57.3631844 -56.41847647 53.63976093 -56.45629883 49.91577148 C-56.47634853 48.30759109 -56.5035959 46.69948299 -56.53833008 45.09155273 C-56.5871449 42.77284863 -56.60960655 40.45511258 -56.62719727 38.13598633 C-56.65816498 37.06687515 -56.65816498 37.06687515 -56.6897583 35.97616577 C-56.69203239 30.85589502 -55.52750743 28.00228309 -52.23657227 24.11254883 C-49.88085938 22.32080078 -49.88085938 22.32080078 -47.26391602 20.85083008 C-46.29059326 20.29411621 -45.31727051 19.73740234 -44.31445312 19.16381836 C-43.27812744 18.59002441 -42.24180176 18.01623047 -41.17407227 17.42504883 C-39.00714794 16.20024414 -36.84048467 14.97497751 -34.67407227 13.74926758 C-33.59254883 13.14260254 -32.51102539 12.5359375 -31.39672852 11.91088867 C-28.45840053 10.23878392 -25.5613389 8.51552603 -22.67407227 6.75708008 C-21.82594971 6.24556396 -20.97782715 5.73404785 -20.10400391 5.20703125 C-18.52639684 4.25298554 -16.95483562 3.28884298 -15.390625 2.31298828 C-10.1273271 -0.82450653 -6.05440103 -2.40233029 0 0 Z " fill="#072C76" transform="translate(348.236572265625,91.887451171875)"/>
<path d="M0 0 C14.52 0 29.04 0 44 0 C43.99097656 4.24101562 43.98195313 8.48203125 43.97265625 12.8515625 C43.98507297 16.27241699 44.00447848 19.69307623 44.02854156 23.11386108 C44.05190511 26.70347735 44.06348315 30.29217188 44.04467773 33.88183594 C44.02698701 37.3513749 44.04415392 40.81927452 44.08367729 44.28861618 C44.09724492 46.23019909 44.07638862 48.17192737 44.05445862 50.11343384 C44.21374721 60.08495735 47.02253465 66.54377229 52 75 C52.65160599 76.11838257 53.30321198 77.23676514 53.9745636 78.38903809 C55.85872305 81.57762316 57.79808459 84.72746689 59.75 87.875 C61.25838604 90.32878529 62.76209469 92.78542467 64.265625 95.2421875 C64.65234375 95.87308289 65.0390625 96.50397827 65.4375 97.1539917 C69.86648846 104.39159024 74.18213178 111.69577839 78.5 119 C85.32172591 130.53273347 92.22024893 142.01500739 99.21875 153.44140625 C101.15977802 156.61940203 103.08206748 159.8080209 105 163 C105.36356598 163.59417725 105.72713196 164.18835449 106.10171509 164.80053711 C107.22657298 166.64342096 108.33341683 168.49617444 109.4375 170.3515625 C110.10007812 171.45064941 110.76265625 172.54973633 111.4453125 173.68212891 C114.54199503 180.29078398 114.21893514 186.96813762 112.13671875 193.85546875 C109.29871021 200.30194175 104.7566315 205.96564448 98.16487026 208.78486347 C92.14121987 210.96579782 86.75828057 211.44204108 80.38500977 211.43237305 C78.85097504 211.44766052 78.85097504 211.44766052 77.28594971 211.46325684 C73.9210452 211.49331484 70.55642736 211.50265633 67.19140625 211.51171875 C64.82273959 211.52860204 62.45408168 211.54675706 60.08543396 211.56611633 C53.8467387 211.61358409 47.60807866 211.64337155 41.3692627 211.66955566 C35.11003066 211.69906046 28.85093261 211.74595277 22.59179688 211.79101562 C11.21402833 211.86932255 -0.16369277 211.9448322 -11.54171753 211.97006226 C-16.05828896 211.98261329 -20.57245826 212.03723555 -25.08840942 212.11221313 C-27.41448958 212.13968272 -29.7405699 212.16713878 -32.06665039 212.19458008 C-33.13079635 212.21929477 -34.1949423 212.24400946 -35.29133511 212.26947308 C-42.53874691 212.33458206 -49.18336855 211.65390552 -55.26953125 207.421875 C-62.03401264 200.09225972 -65.63129474 193.28056347 -65.4453125 183.14453125 C-64.54442028 176.7829678 -61.17595263 171.47461045 -58 166 C-57.52224121 165.1740332 -57.04448242 164.34806641 -56.55224609 163.49707031 C-54.29702857 159.61156662 -52.03125509 155.73254044 -49.74951172 151.86254883 C-45.01684362 143.81973086 -40.47868865 135.68548798 -36 127.5 C-31.07824848 118.51111041 -26.06618913 109.58711825 -20.875 100.75 C-20.38356506 99.89351364 -19.89213013 99.03702728 -19.38580322 98.15458679 C-16.5082115 93.16812554 -13.56359151 88.30569727 -10.296875 83.5637207 C1.00174006 66.4795187 1.82965133 52.34322485 0.96130371 32.61541748 C0.81491632 28.92125806 0.75271246 25.22557539 0.68359375 21.52929688 C0.54339967 14.34535187 0.26951059 7.18481003 0 0 Z " fill="#D1DBFC" transform="translate(297,303)"/>
<path d="M0 0 C0.86359131 0.51127441 1.72718262 1.02254883 2.61694336 1.54931641 C3.59026611 2.12214355 4.56358887 2.6949707 5.56640625 3.28515625 C6.60273193 3.90084473 7.63905762 4.5165332 8.70678711 5.15087891 C9.7721167 5.77559082 10.83744629 6.40030273 11.93505859 7.04394531 C17.04802749 10.04358426 22.14188749 13.07077304 27.20678711 16.15087891 C28.05490967 16.6595752 28.90303223 17.16827148 29.77685547 17.69238281 C31.35579588 18.64009607 32.9274523 19.60009072 34.49023438 20.57421875 C39.04326276 23.29089164 42.19436569 24.45793887 47.64428711 23.77587891 C49.94512332 23.09933017 49.94512332 23.09933017 52.01928711 21.90087891 C52.85588867 21.45744141 53.69249023 21.01400391 54.55444336 20.55712891 C57.02523927 19.13275098 59.46010658 17.67339705 61.89038086 16.18212891 C63.01790771 15.49739502 63.01790771 15.49739502 64.16821289 14.79882812 C65.67677048 13.87734308 67.17679046 12.94171176 68.66723633 11.99121094 C73.85798623 8.80747135 73.85798623 8.80747135 77.26928711 8.67041016 C80.58225262 10.21246483 83.14066703 12.41733683 85.83178711 14.83837891 C86.97798095 15.839458 88.125127 16.83944783 89.27319336 17.83837891 C89.83925293 18.33466797 90.4053125 18.83095703 90.98852539 19.34228516 C93.3673546 21.40192613 95.81102156 23.3746543 98.26928711 25.33837891 C99.04530273 25.95841797 99.82131836 26.57845703 100.62084961 27.21728516 C102.24654374 28.46950901 103.93687085 29.6376014 105.64428711 30.77587891 C106.0093689 33.03279114 106.0093689 33.03279114 105.99731445 35.88061523 C106.00097015 36.94544632 106.00462585 38.0102774 106.00839233 39.1073761 C105.99909698 40.26255234 105.98980164 41.41772858 105.98022461 42.60791016 C105.99273886 45.03955344 106.00577606 47.47119408 106.01928711 49.90283203 C106.02321825 53.74773485 106.01927189 57.59237784 106.00463867 61.43725586 C105.99607711 65.14037121 106.01774296 68.84239112 106.04272461 72.54541016 C106.0293808 73.6945137 106.01603699 74.84361725 106.00228882 76.02754211 C105.99479063 82.33385729 105.99479063 82.33385729 108.80957031 87.8046875 C111.70201051 89.81601832 114.56576028 91.75520924 117.60131836 93.54541016 C118.71313477 94.20605469 119.82495117 94.86669922 120.97045898 95.54736328 C122.13247234 96.22786582 123.29458292 96.90820234 124.45678711 97.58837891 C125.63883464 98.28756124 126.82047933 98.98742509 128.00170898 99.68798828 C130.87868306 101.39068723 133.75955711 103.08636486 136.64428711 104.77587891 C133.75578229 141.04975437 133.75578229 141.04975437 127.08178711 147.03369141 C123.44682033 149.27043008 119.49378146 150.52323234 115.42895508 151.765625 C109.85793949 153.78674217 104.89770968 157.05266609 99.83178711 160.08837891 C98.80005371 160.67748047 97.76832031 161.26658203 96.70532227 161.87353516 C95.72998535 162.43556641 94.75464844 162.99759766 93.74975586 163.57666016 C92.88503662 164.07335205 92.02031738 164.57004395 91.12939453 165.08178711 C85.92391431 168.43825502 85.92391431 168.43825502 83.17848206 173.76304626 C82.96964113 176.19245761 82.92596323 178.57583485 82.93725586 181.01416016 C82.9145739 182.33531075 82.9145739 182.33531075 82.89143372 183.68315125 C82.84858421 186.48515478 82.83972155 189.28608048 82.83178711 192.08837891 C82.80864061 193.99270438 82.78327495 195.89700426 82.75561523 197.80126953 C82.69279014 202.45956782 82.66043342 207.1171944 82.64428711 211.77587891 C67.10450668 196.27644689 62.62969242 182.19685345 62.52303982 160.49253178 C62.54076117 147.58138342 62.98207508 134.6684602 63.64428711 121.77587891 C65.39192708 120.81355794 67.13956706 119.85123698 68.88720703 118.88891602 C73.08759875 116.22814266 75.11671345 112.36308077 76.64428711 107.77587891 C77.0901432 103.01421076 77.01456565 98.24385381 77.01928711 93.46337891 C77.0437793 92.16980469 77.06827148 90.87623047 77.09350586 89.54345703 C77.11782344 81.61997808 76.89710109 75.31834003 71.23193359 69.26733398 C66.54664175 65.0695465 62.22320713 63.51932177 56.01928711 63.54541016 C54.86299805 63.54629639 53.70670898 63.54718262 52.51538086 63.5480957 C51.23791992 63.56138916 49.96045898 63.57468262 48.64428711 63.58837891 C47.28100745 63.59876268 45.91772611 63.60892758 44.55444336 63.61889648 C41.42932859 63.64475147 38.30442781 63.67990778 35.17944336 63.71826172 C31.14554287 63.76503426 27.11202812 63.7886901 23.07788086 63.80224609 C17.12996956 63.82244649 11.18272229 63.86929872 5.23510742 63.93148804 C2.84909817 63.95267871 0.46300274 63.96577389 -1.9230957 63.97061157 C-5.31798196 63.97992811 -8.71118061 64.02088171 -12.10571289 64.06884766 C-13.1222998 64.06493011 -14.13888672 64.06101257 -15.1862793 64.05697632 C-21.793916 64.19232065 -26.25130992 65.47876738 -31.35571289 69.77587891 C-36.64584845 75.79309471 -35.9333802 82.94593677 -35.82226562 90.59130859 C-35.79328051 92.77079433 -35.80168255 94.94784494 -35.81469727 97.12744141 C-35.78345863 104.15618505 -35.38724345 109.41299079 -32.35571289 115.77587891 C-32.02571289 116.76587891 -31.69571289 117.75587891 -31.35571289 118.77587891 C-28.27111763 120.71803148 -24.79996474 121.64035949 -21.35571289 122.77587891 C-21.0498938 130.33067203 -20.82127067 137.8848008 -20.68215466 145.44443607 C-20.61525782 148.95815205 -20.52515982 152.46753814 -20.375 155.97875977 C-19.54667022 175.85950683 -22.24816049 190.31910425 -34.35571289 206.77587891 C-38.90873672 205.90010803 -41.61348233 203.23062379 -44.98071289 200.21337891 C-46.13787583 199.18932924 -47.2967733 198.16723669 -48.45727539 197.14697266 C-49.03019821 196.62954498 -49.60312103 196.11211731 -50.19340515 195.57901001 C-52.34775445 193.70971747 -52.34775445 193.70971747 -54.88313293 192.13571167 C-61.80779433 187.44717007 -61.80779433 187.44717007 -63.26629639 182.99836731 C-63.59013966 179.72316113 -63.61153969 176.57733688 -63.51586914 173.28759766 C-63.52154404 172.10744583 -63.52721893 170.92729401 -63.5330658 169.71138 C-63.54140128 165.96024199 -63.48154476 162.21392581 -63.41821289 158.46337891 C-63.40260116 154.6961477 -63.4006548 150.92907889 -63.39976501 147.16181946 C-63.39392199 144.82239361 -63.37651269 142.48296252 -63.34645081 140.14372253 C-63.33411911 139.08865005 -63.32178741 138.03357758 -63.30908203 136.9465332 C-63.29446426 136.01802048 -63.2798465 135.08950775 -63.26478577 134.13285828 C-63.25171395 131.62217275 -63.25171395 131.62217275 -64.35571289 128.77587891 C-66.63902882 127.70040674 -66.63902882 127.70040674 -69.35571289 126.77587891 C-73.37443087 124.76926669 -77.26641813 122.56218741 -81.16821289 120.33837891 C-82.77986328 119.48856445 -82.77986328 119.48856445 -84.42407227 118.62158203 C-91.89497476 114.30031716 -91.89497476 114.30031716 -93.09204102 110.33959961 C-93.12863637 107.40201546 -92.78657452 104.68134956 -92.35571289 101.77587891 C-92.24790031 99.5168138 -92.1411768 97.25769652 -92.03540039 94.99853516 C-90.31937429 76.98026107 -90.31937429 76.98026107 -85.23364258 71.48144531 C-80.02178376 67.65718562 -74.20534221 65.28277378 -68.20874023 62.95410156 C-63.85934381 61.15791919 -59.92468808 58.78838823 -55.91821289 56.33837891 C-55.25208984 55.94827637 -54.5859668 55.55817383 -53.8996582 55.15625 C-52.03221593 54.05778255 -50.1899275 52.92888453 -48.35571289 51.77587891 C-47.71102051 51.37353027 -47.06632812 50.97118164 -46.40209961 50.55664062 C-45.77706543 50.1430127 -45.15203125 49.72938477 -44.50805664 49.30322266 C-43.94981201 48.9383374 -43.39156738 48.57345215 -42.81640625 48.19750977 C-38.90296404 44.38872253 -39.06499244 39.44740669 -38.94165039 34.28759766 C-38.92228424 33.58439896 -38.90291809 32.88120026 -38.88296509 32.1566925 C-38.82351106 29.92570872 -38.7769224 27.69467236 -38.73071289 25.46337891 C-38.69250152 23.94447705 -38.65344797 22.42559613 -38.61352539 20.90673828 C-38.51783873 17.19664424 -38.43368217 13.4863924 -38.35571289 9.77587891 C-33.87695907 8.03452177 -29.39298252 6.3076708 -24.90356445 4.59399414 C-23.37730439 4.00907913 -21.85254318 3.42023724 -20.3293457 2.82739258 C-18.13884132 1.97560909 -15.9433239 1.13812193 -13.74633789 0.30322266 C-13.06702209 0.03557602 -12.3877063 -0.23207062 -11.68780518 -0.50782776 C-6.69692775 -2.38087848 -4.60879538 -2.3949114 0 0 Z " fill="#FDFDFE" transform="translate(298.355712890625,179.22412109375)"/>
<path d="M0 0 C2.65107912 1.2752327 5.20357013 2.66278684 7.76342773 4.11254883 C8.71604492 4.64992676 9.66866211 5.18730469 10.65014648 5.7409668 C13.70141801 7.48846789 16.73429483 9.26447493 19.76342773 11.05004883 C20.77920898 11.64495117 21.79499023 12.23985352 22.84155273 12.8527832 C24.8527446 14.03242459 26.86064206 15.21770303 28.86499023 16.40893555 C30.76205108 17.52397013 32.67331177 18.61527229 34.59936523 19.67944336 C35.47850586 20.17428223 36.35764648 20.66912109 37.26342773 21.17895508 C38.03686523 21.60249268 38.81030273 22.02603027 39.60717773 22.46240234 C43.24257712 25.24452015 45.46084612 27.94547611 46.11026001 32.59654236 C46.24331336 35.6556978 46.23906425 38.68762104 46.18920898 41.74926758 C46.18427681 43.42385796 46.18427681 43.42385796 46.179245 45.13227844 C46.16884599 47.48489234 46.14893334 49.83748101 46.12011719 52.18994141 C46.07595587 55.79775024 46.05866505 59.40489348 46.04663086 63.01293945 C46.03320989 65.30005847 46.01828778 67.58716927 46.00170898 69.87426758 C45.99432205 70.95552414 45.98693512 72.0367807 45.97932434 73.15080261 C45.96648911 74.15226822 45.95365387 75.15373383 45.94042969 76.18554688 C45.92566338 77.50742256 45.92566338 77.50742256 45.91059875 78.85600281 C45.76342773 81.11254883 45.76342773 81.11254883 44.76342773 84.11254883 C45.34302246 84.37898193 45.92261719 84.64541504 46.51977539 84.91992188 C48.83044259 86.14817098 50.65368184 87.52109391 52.66186523 89.19458008 C53.38889648 89.7972168 54.11592773 90.39985352 54.86499023 91.02075195 C55.61522461 91.64916992 56.36545898 92.27758789 57.13842773 92.92504883 C57.88092773 93.54186523 58.62342773 94.15868164 59.38842773 94.79418945 C60.4828418 95.70394531 60.4828418 95.70394531 61.59936523 96.63208008 C62.31189453 97.22069824 63.02442383 97.80931641 63.75854492 98.41577148 C65.02028854 99.48361344 66.25956058 100.57918727 67.46362305 101.71166992 C69.12570671 103.3086218 69.12570671 103.3086218 71.76342773 105.11254883 C75.94076386 104.79084239 78.94623977 103.0595213 82.50952148 100.95239258 C83.59426758 100.32397461 84.67901367 99.69555664 85.79663086 99.0480957 C88.06496663 97.71676611 90.33060385 96.38082792 92.59350586 95.0402832 C93.67954102 94.4131543 94.76557617 93.78602539 95.88452148 93.13989258 C96.86864014 92.55973389 97.85275879 91.9795752 98.86669922 91.38183594 C102.18519172 89.92774049 104.17609223 89.67988907 107.76342773 90.11254883 C110.46972656 91.23901367 110.46972656 91.23901367 113.22045898 92.82348633 C114.24308838 93.40437012 115.26571777 93.98525391 116.31933594 94.58374023 C117.39401123 95.21199707 118.46868652 95.84025391 119.57592773 96.48754883 C120.68218506 97.12225098 121.78844238 97.75695312 122.92822266 98.41088867 C125.16188396 99.69545856 127.39215757 100.98593823 129.61889648 102.2824707 C132.41944884 103.91235738 135.2293121 105.52407015 138.04467773 107.12817383 C139.55572017 107.99687792 141.06618458 108.86658863 142.57592773 109.73754883 C143.2556665 110.12604004 143.93540527 110.51453125 144.63574219 110.91479492 C148.1664962 112.98390491 151.14252803 114.95840222 153.76342773 118.11254883 C154.2713623 120.60997009 154.2713623 120.60997009 154.28100586 123.44433594 C154.2936145 124.50901596 154.30622314 125.57369598 154.31921387 126.67063904 C154.31111694 127.81549271 154.30302002 128.96034637 154.29467773 130.13989258 C154.29850464 131.32096085 154.30233154 132.50202911 154.30627441 133.71888733 C154.30899603 136.21624605 154.30161756 138.71363317 154.28491211 141.2109375 C154.26352703 145.03230467 154.28469768 148.85178748 154.31030273 152.6730957 C154.30765913 155.09953214 154.30253349 157.52596741 154.29467773 159.95239258 C154.30277466 161.09522202 154.31087158 162.23805145 154.31921387 163.41551208 C154.22651675 171.26607726 154.22651675 171.26607726 152.10668945 175.14086914 C149.43755052 177.38675016 146.78850376 179.1183367 143.73999023 180.81958008 C143.1573642 181.14866867 142.57473816 181.47775726 141.97445679 181.81681824 C140.11775963 182.86272001 138.25349001 183.89415249 136.38842773 184.92504883 C135.1756461 185.60442062 133.96340184 186.28475266 132.75170898 186.96606445 C130.93345159 187.98825017 129.1139606 189.00764986 127.28887939 190.01760864 C124.13852325 191.76261412 121.02122653 193.54517174 117.93823242 195.40698242 C117.31516205 195.77836838 116.69209167 196.14975433 116.05014038 196.53239441 C114.32725389 197.5627368 112.61221003 198.60616072 110.89770508 199.65039062 C107.42145548 201.27208083 105.54688961 201.62408832 101.76342773 201.11254883 C98.85766602 199.89428711 98.85766602 199.89428711 95.83374023 198.18286133 C94.71547852 197.55677979 93.5972168 196.93069824 92.44506836 196.28564453 C91.25911712 195.60364864 90.07357726 194.92093695 88.88842773 194.23754883 C87.67457815 193.54838618 86.46038359 192.8598308 85.24584961 192.171875 C78.52996058 188.35151671 71.84833397 184.4674715 65.26342773 180.42504883 C64.63065918 180.0404248 63.99789062 179.65580078 63.34594727 179.25952148 C60.09906014 177.21255109 57.7599399 175.39663233 55.76342773 172.11254883 C55.40266418 169.58148193 55.40266418 169.58148193 55.42285156 166.70141602 C55.42307816 165.62059753 55.42330475 164.53977905 55.42353821 163.4262085 C55.43902206 162.26566956 55.45450592 161.10513062 55.47045898 159.90942383 C55.47470383 158.71649719 55.47894867 157.52357056 55.48332214 156.29449463 C55.5001175 152.48361664 55.53777256 148.67326705 55.57592773 144.86254883 C55.59097341 142.27922313 55.60466201 139.69588915 55.61694336 137.11254883 C55.65002392 130.77903514 55.70023249 124.44582974 55.76342773 118.11254883 C55.16288574 117.83040527 54.56234375 117.54826172 53.94360352 117.25756836 C50.81063255 115.61214464 48.29301815 113.29629609 45.63842773 110.98754883 C44.4786897 110.00007827 43.31852899 109.01310393 42.15795898 108.02661133 C40.05311741 106.2278747 37.97205487 104.41078571 35.90014648 102.57348633 C35.0506543 101.84387695 34.20116211 101.11426758 33.32592773 100.36254883 C32.5847168 99.70770508 31.84350586 99.05286133 31.07983398 98.37817383 C27.89132994 96.63605695 26.2571153 97.27834726 22.76342773 98.11254883 C20.06600755 99.37260682 20.06600755 99.37260682 17.47045898 101.01879883 C16.51075195 101.59758789 15.55104492 102.17637695 14.56225586 102.77270508 C13.57676758 103.37985352 12.5912793 103.98700195 11.57592773 104.61254883 C9.60472446 105.8128549 7.6321301 107.01088031 5.65795898 108.20629883 C4.79017822 108.73932617 3.92239746 109.27235352 3.02832031 109.8215332 C-1.15004765 112.20325249 -4.48228949 112.4454458 -9.23657227 112.11254883 C-12.34765625 110.80249023 -12.34765625 110.80249023 -15.48266602 108.96411133 C-16.05150009 108.63554642 -16.62033417 108.30698151 -17.20640564 107.96846008 C-19.03762729 106.90559627 -20.85545334 105.82180722 -22.67407227 104.73754883 C-23.93260881 104.00393599 -25.19189053 103.27160007 -26.4519043 102.54052734 C-31.84332971 99.3968814 -37.18585743 96.18930753 -42.42016602 92.78833008 C-43.14598877 92.31766113 -43.87181152 91.84699219 -44.61962891 91.36206055 C-45.9052392 90.51528157 -47.18022086 89.65203275 -48.44140625 88.76928711 C-51.17224482 86.94820318 -52.72519863 86.06489234 -56.04492188 86.37426758 C-59.32142905 87.1321776 -62.28116224 88.1537316 -65.40454102 89.39770508 C-67.11480469 90.06962891 -67.11480469 90.06962891 -68.85961914 90.75512695 C-70.03588867 91.22370117 -71.2121582 91.69227539 -72.42407227 92.17504883 C-74.76990372 93.10803551 -77.11748381 94.03664118 -79.46704102 94.96020508 C-81.02007935 95.57907593 -81.02007935 95.57907593 -82.60449219 96.21044922 C-85.23657227 97.11254883 -85.23657227 97.11254883 -88.23657227 97.11254883 C-88.23657227 107.67254883 -88.23657227 118.23254883 -88.23657227 129.11254883 C-88.56657227 129.11254883 -88.89657227 129.11254883 -89.23657227 129.11254883 C-89.25203346 128.16081284 -89.25203346 128.16081284 -89.26780701 127.18984985 C-89.37573361 120.60407921 -89.49034261 114.01844924 -89.60888672 107.43286133 C-89.65228006 104.97293024 -89.69395182 102.51296818 -89.73388672 100.05297852 C-89.79148283 96.52326099 -89.85520783 92.99370007 -89.92016602 89.46411133 C-89.93687851 88.35887115 -89.953591 87.25363098 -89.97080994 86.11489868 C-89.99075516 85.09399139 -90.01070038 84.07308411 -90.03125 83.02124023 C-90.04679428 82.11967194 -90.06233856 81.21810364 -90.07835388 80.28921509 C-90.10092319 78.06618581 -90.10092319 78.06618581 -91.23657227 76.11254883 C-86.57497538 74.39947462 -81.91187412 72.69058602 -77.24731445 70.9855957 C-75.65997709 70.40471989 -74.07306049 69.82269294 -72.48657227 69.23950195 C-70.20901801 68.40250076 -67.92999353 67.56962127 -65.65063477 66.73754883 C-64.93912262 66.47506348 -64.22761047 66.21257812 -63.49453735 65.94213867 C-58.46431568 64.11254883 -58.46431568 64.11254883 -56.23657227 64.11254883 C-56.25751953 63.11400879 -56.2784668 62.11546875 -56.30004883 61.08666992 C-56.37273927 57.3631844 -56.41847647 53.63976093 -56.45629883 49.91577148 C-56.47634853 48.30759109 -56.5035959 46.69948299 -56.53833008 45.09155273 C-56.5871449 42.77284863 -56.60960655 40.45511258 -56.62719727 38.13598633 C-56.65816498 37.06687515 -56.65816498 37.06687515 -56.6897583 35.97616577 C-56.69203239 30.85589502 -55.52750743 28.00228309 -52.23657227 24.11254883 C-49.88085938 22.32080078 -49.88085938 22.32080078 -47.26391602 20.85083008 C-46.29059326 20.29411621 -45.31727051 19.73740234 -44.31445312 19.16381836 C-43.27812744 18.59002441 -42.24180176 18.01623047 -41.17407227 17.42504883 C-39.00714794 16.20024414 -36.84048467 14.97497751 -34.67407227 13.74926758 C-33.59254883 13.14260254 -32.51102539 12.5359375 -31.39672852 11.91088867 C-28.45840053 10.23878392 -25.5613389 8.51552603 -22.67407227 6.75708008 C-21.82594971 6.24556396 -20.97782715 5.73404785 -20.10400391 5.20703125 C-18.52639684 4.25298554 -16.95483562 3.28884298 -15.390625 2.31298828 C-10.1273271 -0.82450653 -6.05440103 -2.40233029 0 0 Z " fill="#6A66F5" transform="translate(348.236572265625,91.887451171875)"/>
<path d="M0 0 C3.01342773 1.32592773 3.01342773 1.32592773 6.18359375 3.18359375 C6.75671295 3.51471161 7.32983215 3.84582947 7.9203186 4.1869812 C9.76695769 5.25806373 11.60217712 6.34716089 13.4375 7.4375 C14.70115634 8.17637609 15.96540003 8.91424857 17.23022461 9.65112305 C19.70867774 11.09839363 22.18230455 12.55336901 24.65136719 14.01660156 C27.45173712 15.67526337 30.25859079 17.32164407 33.0703125 18.9609375 C43.86397185 25.30535953 43.86397185 25.30535953 46 28 C46.38768005 30.37716675 46.38768005 30.37716675 46.40405273 33.21826172 C46.41673691 34.28301727 46.42942108 35.34777283 46.44248962 36.4447937 C46.43955399 37.59480865 46.43661835 38.74482361 46.43359375 39.9296875 C46.4388356 41.11217072 46.44407745 42.29465393 46.44947815 43.51296997 C46.45590655 46.01628839 46.45455086 48.51963699 46.44604492 51.02294922 C46.43754861 54.85308751 46.46626579 58.68172842 46.49804688 62.51171875 C46.49965927 64.94270789 46.49908063 67.37369966 46.49609375 69.8046875 C46.50732773 70.95065399 46.51856171 72.09662048 46.53013611 73.27731323 C46.46104679 81.16551134 46.46104679 81.16551134 44.31811523 85.04418945 C41.78606197 87.18050106 39.30271254 88.86190045 36.4140625 90.48828125 C35.32424072 91.10880371 34.23441895 91.72932617 33.11157227 92.36865234 C31.96100342 93.01012207 30.81043457 93.6515918 29.625 94.3125 C28.44340007 94.98034754 27.26232992 95.64913324 26.08178711 96.31884766 C23.76966314 97.62888931 21.45446581 98.93288268 19.13720703 100.23388672 C16.50753037 101.71428212 13.88828889 103.20958113 11.27734375 104.72265625 C10.6313623 105.09672607 9.98538086 105.4707959 9.31982422 105.85620117 C8.73990723 106.19240479 8.15999023 106.5286084 7.5625 106.875 C4.66279405 108.55167603 2.17482093 109.94172636 -1 111 C-1.84958171 115.43454538 -2.67663744 119.87301808 -3.5 124.3125 C-3.73847656 125.55580078 -3.97695312 126.79910156 -4.22265625 128.08007812 C-4.8900157 131.71242028 -5.46359423 135.34622893 -6 139 C-6.18715576 140.02738281 -6.37431152 141.05476562 -6.56713867 142.11328125 C-6.90665882 145.13446586 -6.98152384 147.11681043 -6 150 C-2.54010449 153.3060104 1.41952184 155.27165407 5.6875 157.375 C7.88246005 158.52186984 10.07399632 159.67532101 12.26171875 160.8359375 C13.24100342 161.32626465 14.22028809 161.8165918 15.22924805 162.32177734 C18.60144467 164.3642903 20.67582909 165.7644457 23 169 C23.71740235 172.8984329 23.65290004 176.73360319 23.59375 180.6875 C23.59379028 181.82276123 23.59383057 182.95802246 23.59387207 184.12768555 C23.58851697 186.52495874 23.57093496 188.92223149 23.54199219 191.31933594 C23.50014975 194.98687444 23.50092381 198.65257562 23.5078125 202.3203125 C23.49731944 204.65105442 23.48438071 206.98178687 23.46875 209.3125 C23.46844788 210.95641724 23.46844788 210.95641724 23.46813965 212.63354492 C23.45222778 213.65810791 23.43631592 214.6826709 23.41992188 215.73828125 C23.41150269 216.63587158 23.4030835 217.53346191 23.39440918 218.45825195 C22.79347352 222.33094841 21.11825701 225.05565497 18.13818359 227.57226562 C17.44031738 228.01248047 16.74245117 228.45269531 16.0234375 228.90625 C14.82799316 229.66228516 14.82799316 229.66228516 13.60839844 230.43359375 C8.99254919 233.20552269 4.32589707 235.87522856 -0.375 238.5 C-1.33921875 239.04269531 -2.3034375 239.58539063 -3.296875 240.14453125 C-5.23181605 241.2313145 -7.17159502 242.30953091 -9.11621094 243.37890625 C-11.0555231 244.46907157 -12.97071597 245.60317619 -14.86035156 246.77734375 C-20.04446441 249.90478487 -23.81565048 251.93115611 -29.90869141 250.69335938 C-33.49190951 249.50536738 -36.52278613 247.78689922 -39.6875 245.75 C-41.15296827 244.84395525 -42.61915358 243.93906955 -44.0859375 243.03515625 C-44.86678711 242.54805176 -45.64763672 242.06094727 -46.45214844 241.55908203 C-49.2246791 239.8625143 -52.0315014 238.23735796 -54.8515625 236.62109375 C-55.84067627 236.05100586 -56.82979004 235.48091797 -57.84887695 234.89355469 C-59.79193306 233.77500489 -61.73828766 232.66216129 -63.68823242 231.55566406 C-64.58131104 231.03584961 -65.47438965 230.51603516 -66.39453125 229.98046875 C-67.18706299 229.52567139 -67.97959473 229.07087402 -68.79614258 228.60229492 C-71.67212329 226.51133875 -73.20955663 225.13290069 -75 222 C-75.60343997 218.0323385 -75.58418684 214.10100653 -75.56640625 210.09375 C-75.57260483 208.93629272 -75.57880341 207.77883545 -75.58518982 206.58630371 C-75.59228572 204.14201701 -75.58911808 201.69768196 -75.57641602 199.25341797 C-75.56254855 195.51309353 -75.59663133 191.77526953 -75.63476562 188.03515625 C-75.6357168 185.65885355 -75.63385808 183.28254773 -75.62890625 180.90625 C-75.64216446 179.7884314 -75.65542267 178.67061279 -75.66908264 177.5189209 C-75.57636216 169.79104675 -75.57636216 169.79104675 -72.78198242 165.95581055 C-70.17764092 164.12488648 -67.62506563 162.37777743 -64.859375 160.80078125 C-63.38815186 159.95314209 -63.38815186 159.95314209 -61.88720703 159.08837891 C-60.85192871 158.50233887 -59.81665039 157.91629883 -58.75 157.3125 C-56.59609988 156.07726621 -54.44245578 154.8415859 -52.2890625 153.60546875 C-51.22719727 152.99880371 -50.16533203 152.39213867 -49.07128906 151.76708984 C-46.2700651 150.15538404 -43.48631097 148.51900136 -40.7109375 146.86328125 C-39.92879883 146.39688232 -39.14666016 145.9304834 -38.34082031 145.44995117 C-36.89321918 144.58435715 -35.44718177 143.71614116 -34.00292969 142.8449707 C-29.22043062 140 -29.22043062 140 -27 140 C-26.95174072 139.44779785 -26.90348145 138.8955957 -26.85375977 138.32666016 C-26.13718234 130.63804116 -25.05082669 123.0148602 -23.9375 115.375 C-23.75123047 114.08464844 -23.56496094 112.79429687 -23.37304688 111.46484375 C-22.91729113 108.30961169 -22.45956501 105.15467908 -22 102 C-23.15000488 101.35768433 -23.15000488 101.35768433 -24.32324219 100.70239258 C-27.183184 99.09849458 -30.03752987 97.48541848 -32.88867188 95.8659668 C-34.12030157 95.16889411 -35.35400528 94.47547211 -36.58984375 93.78588867 C-38.37286153 92.79013076 -40.14783984 91.78118651 -41.921875 90.76953125 C-42.99018555 90.16729736 -44.05849609 89.56506348 -45.15917969 88.94458008 C-48.38401484 86.73713663 -50.10440817 85.44482793 -52 82 C-52.59515611 78.03063978 -52.58418972 74.10165561 -52.56640625 70.09375 C-52.57570412 68.35756409 -52.57570412 68.35756409 -52.58518982 66.58630371 C-52.59228572 64.14201701 -52.58911808 61.69768196 -52.57641602 59.25341797 C-52.56254855 55.51309353 -52.59663133 51.77526953 -52.63476562 48.03515625 C-52.6357168 45.65885355 -52.63385808 43.28254773 -52.62890625 40.90625 C-52.64216446 39.7884314 -52.65542267 38.67061279 -52.66908264 37.5189209 C-52.57609366 29.76866836 -52.57609366 29.76866836 -49.67089844 25.89233398 C-48.78950195 25.26786377 -47.90810547 24.64339355 -47 24 C-46.42338623 23.58306885 -45.84677246 23.1661377 -45.25268555 22.73657227 C-44.7194165 22.43291748 -44.18614746 22.1292627 -43.63671875 21.81640625 C-43.00870361 21.45272949 -42.38068848 21.08905273 -41.73364258 20.71435547 C-41.05841553 20.33424316 -40.38318848 19.95413086 -39.6875 19.5625 C-38.18449101 18.70253007 -36.68191345 17.8418058 -35.1796875 16.98046875 C-34.36081055 16.51302246 -33.54193359 16.04557617 -32.69824219 15.56396484 C-29.69611383 13.8238604 -26.72674554 12.03440873 -23.7578125 10.23828125 C-22.15740112 9.2790979 -22.15740112 9.2790979 -20.5246582 8.30053711 C-18.41078258 7.03336853 -16.30235488 5.75705963 -14.19995117 4.47094727 C-13.2226001 3.89014404 -12.24524902 3.30934082 -11.23828125 2.7109375 C-9.9395105 1.92662354 -9.9395105 1.92662354 -8.61450195 1.12646484 C-5.4257887 -0.2474004 -3.4473493 -0.41516761 0 0 Z " fill="#062B75" transform="translate(213,142)"/>
<path d="M0 0 C2.70629883 1.12646484 2.70629883 1.12646484 5.45703125 2.7109375 C6.47966064 3.29182129 7.50229004 3.87270508 8.5559082 4.47119141 C10.16792114 5.41357666 10.16792114 5.41357666 11.8125 6.375 C12.91875732 7.00970215 14.02501465 7.6444043 15.16479492 8.29833984 C17.39845623 9.58290973 19.62872984 10.87338941 21.85546875 12.16992188 C24.6560211 13.79980856 27.46588436 15.41152132 30.28125 17.015625 C31.79229244 17.88432909 33.30275685 18.7540398 34.8125 19.625 C35.49223877 20.01349121 36.17197754 20.40198242 36.87231445 20.80224609 C40.40306846 22.87135609 43.3791003 24.84585339 46 28 C46.50793457 30.49742126 46.50793457 30.49742126 46.51757812 33.33178711 C46.53018677 34.39646713 46.54279541 35.46114716 46.55578613 36.55809021 C46.54768921 37.70294388 46.53959229 38.84779755 46.53125 40.02734375 C46.53699036 41.79894615 46.53699036 41.79894615 46.54284668 43.6063385 C46.54556829 46.10369723 46.53818983 48.60108434 46.52148438 51.09838867 C46.5000993 54.91975584 46.52126995 58.73923865 46.546875 62.56054688 C46.5442314 64.98698332 46.53910575 67.41341859 46.53125 69.83984375 C46.53934692 70.98267319 46.54744385 72.12550262 46.55578613 73.30296326 C46.46308901 81.15352843 46.46308901 81.15352843 44.34326172 85.02832031 C41.67412278 87.27420134 39.02507603 89.00578787 35.9765625 90.70703125 C35.39393646 91.03611984 34.81131042 91.36520844 34.21102905 91.70426941 C32.3543319 92.75017118 30.49006228 93.78160366 28.625 94.8125 C27.41221836 95.4918718 26.19997411 96.17220383 24.98828125 96.85351562 C23.17002386 97.87570134 21.35053286 98.89510103 19.52545166 99.90505981 C16.37509552 101.6500653 13.2577988 103.43262291 10.17480469 105.29443359 C9.55173431 105.66581955 8.92866394 106.03720551 8.28671265 106.41984558 C6.56382615 107.45018798 4.8487823 108.4936119 3.13427734 109.5378418 C-0.34197225 111.159532 -2.21653812 111.51153949 -6 111 C-8.90576172 109.78173828 -8.90576172 109.78173828 -11.9296875 108.0703125 C-13.04794922 107.44423096 -14.16621094 106.81814941 -15.31835938 106.1730957 C-16.50431061 105.49109982 -17.68985047 104.80838812 -18.875 104.125 C-20.08884958 103.43583735 -21.30304414 102.74728197 -22.51757812 102.05932617 C-29.23346715 98.23896788 -35.91509377 94.35492268 -42.5 90.3125 C-43.13276855 89.92787598 -43.76553711 89.54325195 -44.41748047 89.14697266 C-47.66546768 87.09930872 -49.99214833 85.2769094 -52 82 C-52.40786743 79.50930786 -52.40786743 79.50930786 -52.45166016 76.68408203 C-52.4740274 75.6226297 -52.49639465 74.56117737 -52.5194397 73.46755981 C-52.52591522 72.3258432 -52.53239075 71.18412659 -52.5390625 70.0078125 C-52.55141937 68.82911591 -52.56377625 67.65041931 -52.57650757 66.43600464 C-52.59607531 63.94290127 -52.60730616 61.44972062 -52.61083984 58.95654297 C-52.62492425 55.14549714 -52.69225987 51.33773003 -52.76171875 47.52734375 C-52.77411729 45.10418124 -52.78333686 42.68099996 -52.7890625 40.2578125 C-52.81578033 39.12014435 -52.84249817 37.9824762 -52.87002563 36.81033325 C-52.80412183 29.12336807 -52.80412183 29.12336807 -50.58735657 26.02651978 C-48.80738714 24.44694829 -47.04520668 23.21176672 -45 22 C-44.05374756 21.3930127 -43.10749512 20.78602539 -42.13256836 20.16064453 C-41.21096924 19.65645996 -40.28937012 19.15227539 -39.33984375 18.6328125 C-38.30512939 18.06062988 -37.27041504 17.48844727 -36.2043457 16.89892578 C-35.12628662 16.31353027 -34.04822754 15.72813477 -32.9375 15.125 C-30.70006035 13.89667175 -28.46307803 12.66751007 -26.2265625 11.4375 C-25.15438477 10.8496875 -24.08220703 10.261875 -22.97753906 9.65625 C-20.44501213 8.24753709 -17.9453234 6.80382197 -15.4609375 5.3125 C-14.82808838 4.93464355 -14.19523926 4.55678711 -13.54321289 4.16748047 C-11.94691316 3.20596265 -10.35786837 2.23242757 -8.76953125 1.2578125 C-5.49972654 -0.22720459 -3.5690049 -0.27944736 0 0 Z " fill="#062B76" transform="translate(456,182)"/>
<path d="M0 0 C4.65538649 2.06350043 8.90070166 4.70931964 13.1875 7.4375 C14.38407465 8.17741691 15.58191986 8.91528292 16.78100586 9.65112305 C19.13037068 11.09611581 21.4726057 12.55164648 23.80957031 14.01660156 C26.5265512 15.70567049 29.25931531 17.35073576 32.0234375 18.9609375 C33.07301636 19.57304077 33.07301636 19.57304077 34.14379883 20.19750977 C34.77697021 20.56545654 35.4101416 20.93340332 36.0625 21.3125 C41.75390381 24.63085572 41.75390381 24.63085572 44 28 C44.26069641 30.30123901 44.26069641 30.30123901 44.2746582 33.03466797 C44.28419022 34.05938202 44.29372223 35.08409607 44.30354309 36.13986206 C44.30263168 37.24612946 44.30172028 38.35239685 44.30078125 39.4921875 C44.30506638 40.63027863 44.3093515 41.76836975 44.31376648 42.94094849 C44.31951334 45.35011123 44.32000744 47.75929133 44.31567383 50.16845703 C44.31251842 53.85349199 44.33595385 57.53772086 44.36132812 61.22265625 C44.36360153 63.56249899 44.36430442 65.90234388 44.36328125 68.2421875 C44.372491 69.34440643 44.38170074 70.44662537 44.39118958 71.58224487 C44.38496078 72.61326324 44.37873199 73.64428162 44.37231445 74.70654297 C44.37294388 75.61016571 44.3735733 76.51378845 44.3742218 77.4447937 C43.80453995 81.33461157 42.12594282 84.04916447 39.13818359 86.57226562 C38.44031738 87.01248047 37.74245117 87.45269531 37.0234375 87.90625 C36.22647461 88.41027344 35.42951172 88.91429687 34.60839844 89.43359375 C29.99254919 92.20552269 25.32589707 94.87522856 20.625 97.5 C19.66078125 98.04269531 18.6965625 98.58539063 17.703125 99.14453125 C15.76818395 100.2313145 13.82840498 101.30953091 11.88378906 102.37890625 C9.9444769 103.46907157 8.02928403 104.60317619 6.13964844 105.77734375 C0.95553559 108.90478487 -2.81565048 110.93115611 -8.90869141 109.69335938 C-12.49190951 108.50536738 -15.52278613 106.78689922 -18.6875 104.75 C-20.15296827 103.84395525 -21.61915358 102.93906955 -23.0859375 102.03515625 C-23.86678711 101.54805176 -24.64763672 101.06094727 -25.45214844 100.55908203 C-28.2246791 98.8625143 -31.0315014 97.23735796 -33.8515625 95.62109375 C-34.84067627 95.05100586 -35.82979004 94.48091797 -36.84887695 93.89355469 C-38.79193306 92.77500489 -40.73828766 91.66216129 -42.68823242 90.55566406 C-43.58131104 90.03584961 -44.47438965 89.51603516 -45.39453125 88.98046875 C-46.18706299 88.52567139 -46.97959473 88.07087402 -47.79614258 87.60229492 C-50.67212329 85.51133875 -52.20955663 84.13290069 -54 81 C-54.60343997 77.0323385 -54.58418684 73.10100653 -54.56640625 69.09375 C-54.57570412 67.35756409 -54.57570412 67.35756409 -54.58518982 65.58630371 C-54.59228572 63.14201701 -54.58911808 60.69768196 -54.57641602 58.25341797 C-54.56254855 54.51309353 -54.59663133 50.77526953 -54.63476562 47.03515625 C-54.6357168 44.65885355 -54.63385808 42.28254773 -54.62890625 39.90625 C-54.64216446 38.7884314 -54.65542267 37.67061279 -54.66908264 36.5189209 C-54.57637434 28.79206179 -54.57637434 28.79206179 -51.78637695 24.95800781 C-49.15855702 23.1114192 -46.58055467 21.35451079 -43.7890625 19.765625 C-42.7985791 19.19537598 -41.8080957 18.62512695 -40.78759766 18.03759766 C-39.74394043 17.44769043 -38.7002832 16.8577832 -37.625 16.25 C-35.45751354 15.01445788 -33.29084531 13.77747923 -31.125 12.5390625 C-30.07441406 11.93868164 -29.02382812 11.33830078 -27.94140625 10.71972656 C-25.39604604 9.23155282 -22.90866515 7.69309838 -20.4375 6.0859375 C-19.45209229 5.45316895 -19.45209229 5.45316895 -18.44677734 4.80761719 C-16.75939001 3.71224004 -15.08605746 2.59529392 -13.4140625 1.4765625 C-8.67646354 -0.57242195 -5.07639673 -1.06000376 0 0 Z " fill="#062B75" transform="translate(192,283)"/>
<path d="M0 0 C14.52 0 29.04 0 44 0 C43.99097656 4.24101562 43.98195313 8.48203125 43.97265625 12.8515625 C43.98507297 16.27241699 44.00447848 19.69307623 44.02854156 23.11386108 C44.05190511 26.70347735 44.06348315 30.29217188 44.04467773 33.88183594 C44.02698701 37.3513749 44.04415392 40.81927452 44.08367729 44.28861618 C44.09724492 46.23019909 44.07638862 48.17192737 44.05445862 50.11343384 C44.21409091 60.10647332 47.02096552 66.51980311 52 75 C52.62103859 76.1052301 52.62103859 76.1052301 53.25462341 77.23278809 C54.22110249 78.92489787 55.23957041 80.58701867 56.26171875 82.24609375 C56.61966019 82.83117203 56.97760162 83.41625031 57.34638977 84.01905823 C58.45477185 85.8285426 59.57071191 87.63319458 60.6875 89.4375 C73 109.45560168 73 109.45560168 73 112 C71.52853516 112.23783203 71.52853516 112.23783203 70.02734375 112.48046875 C58.50526983 114.43653173 47.0889169 116.86528763 37 123 C17.89451401 130.7919326 -1.22044965 130.32743631 -21 126 C-23.16488667 125.59454449 -25.33137837 125.19747881 -27.5 124.8125 C-28.81484375 124.57466797 -28.81484375 124.57466797 -30.15625 124.33203125 C-30.7646875 124.22246094 -31.373125 124.11289062 -32 124 C-31.40065384 119.9620827 -30.104996 117.00029381 -28.11328125 113.44921875 C-27.20968872 111.82898804 -27.20968872 111.82898804 -26.2878418 110.17602539 C-25.62965511 109.01303608 -24.97120179 107.85019764 -24.3125 106.6875 C-23.64000698 105.48906063 -22.96789252 104.29040877 -22.29614258 103.09155273 C-17.09831269 93.84029924 -11.77813548 84.66027582 -6.39379883 75.51635742 C-5.8448999 74.58412354 -5.29600098 73.65188965 -4.73046875 72.69140625 C-4.24989014 71.87873291 -3.76931152 71.06605957 -3.27416992 70.22875977 C-2.64345581 69.12552368 -2.64345581 69.12552368 -2 68 C-1.64840317 67.42456955 -1.29680634 66.8491391 -0.93455505 66.25627136 C0.29423824 63.28962846 0.23968693 60.88048131 0.22705078 57.67089844 C0.22682419 55.74935944 0.22682419 55.74935944 0.22659302 53.78900146 C0.21638051 52.39579106 0.20594853 51.00258224 0.1953125 49.609375 C0.19158064 48.18019814 0.18873448 46.75101872 0.18673706 45.32183838 C0.17911419 41.56694429 0.15947739 37.81220581 0.1373291 34.05737305 C0.11323718 29.54860652 0.10408327 25.03978786 0.09242249 20.53097534 C0.07305207 13.68720878 0.03472043 6.84378344 0 0 Z " fill="#FEFEFE" transform="translate(297,303)"/>
<path d="M0 0 C0.495 0.99 0.495 0.99 1 2 C1.9075 1.938125 2.815 1.87625 3.75 1.8125 C8.32731378 1.80327154 12.49065038 3.01878847 16.87109375 4.2578125 C19.94690244 5.09332477 19.94690244 5.09332477 22.97265625 5.1171875 C26.13975548 5.26530493 28.17449674 5.53342926 31 7 C33.72010069 11.06931398 35.40599338 15.36987155 37.1640625 19.91992188 C41.68051734 31.15829664 48.66641646 45.12092443 58 53 C61.23998869 53.88287609 63.34874553 53.77683413 66.640625 53.27734375 C69 53 69 53 72.1875 54.75 C74.28536093 58.51168167 73.93089512 59.49549732 73.4375 63.625 C73.28237889 66.77395853 73.20053516 68.98708581 75.20703125 71.52929688 C78.50225216 74.64054143 82.18680122 77.23330345 85.99975586 79.67041016 C88 81 88 81 89.98657227 82.62255859 C96.65378044 87.82129698 102.81105792 87.89254693 111.0625 87.875 C112.30966797 87.895625 113.55683594 87.91625 114.84179688 87.9375 C117.89520593 87.98429554 120.94630818 88.00446866 124 88 C124 88.33 124 88.66 124 89 C110.23721715 89.13183818 96.47442211 89.26231714 82.71161079 89.39115143 C76.31815088 89.45104166 69.92469573 89.51136676 63.53125 89.57275391 C57.33905888 89.63219155 51.14685721 89.69039788 44.95464706 89.74781799 C42.61487301 89.76971804 40.27510279 89.79203127 37.93533707 89.81480408 C32.46360269 89.86793318 26.99196887 89.91541074 21.52008057 89.94946289 C16.97647048 89.97828843 12.43456148 90.04100137 7.89154053 90.11889648 C5.56555643 90.14671479 3.23956773 90.17415184 0.91357422 90.20117188 C-0.14936796 90.22548531 -1.21231014 90.24979874 -2.30746269 90.27484894 C-9.54682325 90.33603785 -16.19059363 89.64888154 -22.26953125 85.421875 C-29.03401264 78.09225972 -32.63129474 71.28056347 -32.4453125 61.14453125 C-31.54425066 54.78177004 -28.17450513 49.47619996 -25 44 C-24.24348145 42.68926514 -24.24348145 42.68926514 -23.47167969 41.35205078 C-21.13777929 37.32070612 -18.79259218 33.2963157 -16.42871094 29.2824707 C-10.74624447 19.6327558 -5.33032435 9.8477164 0 0 Z " fill="#92B1F3" transform="translate(264,425)"/>
<path d="M0 0 C2.00761457 0.97522546 3.97991824 2.02482507 5.921875 3.125 C7.02917969 3.74890625 8.13648438 4.3728125 9.27734375 5.015625 C10.42332031 5.67046875 11.56929688 6.3253125 12.75 7 C13.92284227 7.66205181 15.09601629 8.32351628 16.26953125 8.984375 C24.83069407 13.83069407 24.83069407 13.83069407 26 15 C26.08847743 17.52094076 26.11527301 20.01430893 26.09765625 22.53515625 C26.0962413 23.28840683 26.09482635 24.04165741 26.09336853 24.81773376 C26.08775376 27.2326956 26.07519883 29.64756601 26.0625 32.0625 C26.0574869 33.69596221 26.05292366 35.32942586 26.04882812 36.96289062 C26.03777954 40.97529585 26.02050506 44.98763241 26 49 C25.50709473 49.27150879 25.01418945 49.54301758 24.50634766 49.82275391 C23.03917591 50.63183835 21.57259175 51.44198877 20.10644531 52.25292969 C18.44815815 53.16984958 16.78864418 54.08455414 15.12792969 54.99707031 C9.96501317 57.84999346 4.96928971 60.83642576 0.140625 64.234375 C-3.16110845 65.41528696 -4.8267867 64.40609452 -8 63 C-10.87009281 61.46661376 -13.65566066 59.81230485 -16.4375 58.125 C-17.89429862 57.25221576 -19.35132739 56.37981555 -20.80859375 55.5078125 C-21.76463501 54.92990967 -21.76463501 54.92990967 -22.73999023 54.34033203 C-25.80543161 52.52232694 -28.90268495 50.76315529 -32 49 C-34.36545202 19.40394961 -34.36545202 19.40394961 -30.72119141 12.61914062 C-27.41699039 9.32379806 -23.4336831 7.94620625 -19.01855469 6.67138672 C-15.77259943 5.59175719 -13.22642467 3.75580256 -10.375 1.875 C-6.29297083 -0.69770746 -4.6296789 -1.30786134 0 0 Z " fill="#FA7C9F" transform="translate(433,346)"/>
<path d="M0 0 C1.91878091 1.04220207 3.81883121 2.11932391 5.703125 3.22265625 C6.7653125 3.84333984 7.8275 4.46402344 8.921875 5.10351562 C10.02015625 5.74998047 11.1184375 6.39644531 12.25 7.0625 C13.36375 7.71283203 14.4775 8.36316406 15.625 9.03320312 C23.85688973 13.85688973 23.85688973 13.85688973 25 15 C25.48480879 19.57163583 25.65636587 24.14120017 25.78955078 28.73510742 C25.84609891 30.27531676 25.9277808 31.8148269 26.03564453 33.35229492 C26.39001997 38.50073685 26.42281869 43.0058769 25 48 C21.15885286 51.82444196 16.91617254 53.82323925 12 56 C10.60938422 56.82768382 9.23138167 57.67776516 7.87890625 58.56640625 C6.78449219 59.22511719 5.69007813 59.88382812 4.5625 60.5625 C3.45003906 61.24441406 2.33757812 61.92632812 1.19140625 62.62890625 C-2.6128209 64.26328046 -4.03314686 63.97946613 -8 63 C-10.8684082 61.6171875 -10.8684082 61.6171875 -13.80078125 59.875 C-14.85974609 59.25109375 -15.91871094 58.6271875 -17.00976562 57.984375 C-18.09966797 57.32953125 -19.18957031 56.6746875 -20.3125 56 C-21.42173828 55.34515625 -22.53097656 54.6903125 -23.67382812 54.015625 C-31.80333647 49.19666353 -31.80333647 49.19666353 -33 48 C-33.38775295 43.39017132 -33.48513636 38.77927862 -33.56982422 34.1550293 C-33.60640975 32.60176298 -33.66091001 31.0488085 -33.73388672 29.49682617 C-34.32678114 16.69495151 -34.32678114 16.69495151 -31.29492188 12.82177734 C-28.93830561 11.23535458 -26.60449051 10.12864525 -24 9 C-22.3666487 8.00100588 -20.74667121 6.97982496 -19.140625 5.9375 C-17.5122603 4.95527041 -15.88204448 3.97610316 -14.25 3 C-13.42628906 2.48566406 -12.60257812 1.97132813 -11.75390625 1.44140625 C-10.95339844 0.96574219 -10.15289062 0.49007812 -9.328125 0 C-8.6155957 -0.433125 -7.90306641 -0.86625 -7.16894531 -1.3125 C-4.10478644 -2.28375972 -2.82451403 -1.4487901 0 0 Z " fill="#CFDAFB" transform="translate(457,206)"/>
<path d="M0 0 C3.94340164 1.07075619 7.10047731 2.90513846 10.515625 5.07421875 C11.74988692 5.83872427 12.98426428 6.60304342 14.21875 7.3671875 C14.85055176 7.78452148 15.48235352 8.20185547 16.13330078 8.63183594 C18.29421195 9.98303101 18.29421195 9.98303101 20.95654297 10.91503906 C24.08831671 12.26412791 25.99421011 13.32249561 28.265625 15.88671875 C29.53029024 21.71559812 29.2104991 27.33861611 28.890625 33.26171875 C28.8404272 34.87225833 28.79480617 36.48294748 28.75390625 38.09375 C28.64404765 42.0284457 28.47177366 45.95593948 28.265625 49.88671875 C27.5950708 50.26481689 26.9245166 50.64291504 26.23364258 51.0324707 C23.18140826 52.75402059 20.12976146 54.47660933 17.078125 56.19921875 C16.02302734 56.79412109 14.96792969 57.38902344 13.88085938 58.00195312 C12.85927734 58.57880859 11.83769531 59.15566406 10.78515625 59.75 C9.84776611 60.27891846 8.91037598 60.80783691 7.94458008 61.3527832 C6.12393738 62.39526002 4.32962843 63.4848269 2.56176758 64.61450195 C0.265625 65.88671875 0.265625 65.88671875 -1.9921875 65.37890625 C-2.89710938 64.88648438 -3.80203125 64.3940625 -4.734375 63.88671875 C-5.38374023 63.5402832 -6.03310547 63.19384766 -6.70214844 62.83691406 C-9.01970569 61.58758188 -11.31536848 60.30374541 -13.609375 59.01171875 C-14.38667969 58.57730469 -15.16398438 58.14289063 -15.96484375 57.6953125 C-20.56958232 55.11820671 -25.15405671 52.50691901 -29.734375 49.88671875 C-32.99889768 25.0386788 -32.99889768 25.0386788 -29.734375 15.88671875 C-24.37523078 9.02928257 -16.28373445 5.76839075 -8.27807617 2.859375 C-0.72198464 -0.02991079 -0.72198464 -0.02991079 0 0 Z " fill="#FAC950" transform="translate(187.734375,305.11328125)"/>
<path d="M0 0 C2.89879682 1.41497998 5.62958292 3.05976101 8.375 4.75 C9.45007813 5.39582031 9.45007813 5.39582031 10.546875 6.0546875 C11.99261381 6.9263062 13.42619028 7.81841539 14.84692383 8.73022461 C16.96106567 10.05916276 16.96106567 10.05916276 19.28393555 10.86547852 C21.87665569 11.97342172 23.23582766 12.77814144 25 15 C26.08169372 19.7519216 26.19351697 24.28909289 26.09790039 29.14672852 C26.06258968 31.43169657 26.11783066 33.70222712 26.18164062 35.98632812 C26.26163706 46.43308573 26.26163706 46.43308573 23.24438477 50.18041992 C20.90166723 51.76720764 18.59556699 52.88006506 16 54 C14.45418015 54.91848367 12.9187215 55.85464651 11.39453125 56.80859375 C9.86943738 57.68880564 8.3420902 58.56512503 6.8125 59.4375 C6.04486328 59.89576172 5.27722656 60.35402344 4.48632812 60.82617188 C3.73416016 61.25349609 2.98199219 61.68082031 2.20703125 62.12109375 C1.20893433 62.70008423 1.20893433 62.70008423 0.19067383 63.29077148 C-3.88783642 64.6111852 -7.11513898 63.42657697 -10.8684082 61.6171875 C-12.31993286 60.75480469 -12.31993286 60.75480469 -13.80078125 59.875 C-14.85974609 59.25109375 -15.91871094 58.6271875 -17.00976562 57.984375 C-18.09966797 57.32953125 -19.18957031 56.6746875 -20.3125 56 C-21.42173828 55.34515625 -22.53097656 54.6903125 -23.67382812 54.015625 C-31.80333647 49.19666353 -31.80333647 49.19666353 -33 48 C-36.51002987 20.67318782 -36.51002987 20.67318782 -31.48828125 12.55664062 C-27.61562569 9.01783468 -23.06271803 7.30258163 -18.11572266 5.73828125 C-15.18871549 4.71690233 -12.8403963 3.08319234 -10.3125 1.3125 C-6.50524501 -1.26975156 -4.43163029 -1.28214033 0 0 Z " fill="#AFD752" transform="translate(214,166)"/>
<path d="M0 0 C2.73588816 0.92143504 5.05575037 2.21433412 7.56103516 3.65039062 C8.57681641 4.22917969 9.59259766 4.80796875 10.63916016 5.40429688 C11.69361328 6.01144531 12.74806641 6.61859375 13.83447266 7.24414062 C15.93067026 8.44233124 18.02701687 9.64026122 20.12353516 10.83789062 C21.51499756 11.63743164 21.51499756 11.63743164 22.93457031 12.453125 C24.34063222 13.25107041 25.76344998 14.02112929 27.20947266 14.74414062 C27.20947266 25.63414062 27.20947266 36.52414063 27.20947266 47.74414062 C23.57947266 49.72414062 19.94947266 51.70414063 16.20947266 53.74414062 C14.76958984 54.61039063 13.32970703 55.47664063 11.84619141 56.36914062 C11.18683594 56.76488281 10.52748047 57.160625 9.84814453 57.56835938 C8.51914343 58.3692189 7.19904989 59.18500535 5.88720703 60.01367188 C1.02887456 62.88167071 1.02887456 62.88167071 -2.56005859 62.27929688 C-3.62611328 61.77269531 -4.69216797 61.26609375 -5.79052734 60.74414062 C-7.04168335 60.31464111 -7.04168335 60.31464111 -8.31811523 59.87646484 C-15.76778684 57.25238628 -22.8077004 54.0534769 -27.79052734 47.74414062 C-31.79149716 37.41573176 -31.92992905 25.04219763 -27.79052734 14.74414062 C-21.57338265 7.38668429 -12.65749928 3.93674937 -3.79052734 0.74414062 C-1.79052734 -0.25585938 -1.79052734 -0.25585938 0 0 Z " fill="#FB8E03" transform="translate(343.79052734375,116.255859375)"/>
<path d="M0 0 C24.09 0 48.18 0 73 0 C73 6.27 73 12.54 73 19 C48.91 19 24.82 19 0 19 C0 12.73 0 6.46 0 0 Z " fill="#92B1F3" transform="translate(282,263)"/>
<path d="M0 0 C1.03640625 0.56589844 2.0728125 1.13179688 3.140625 1.71484375 C4.51028977 2.45596373 5.88008849 3.1968362 7.25 3.9375 C8.27287109 4.49727539 8.27287109 4.49727539 9.31640625 5.06835938 C10.31220703 5.60493164 10.31220703 5.60493164 11.328125 6.15234375 C11.9355957 6.48226318 12.54306641 6.81218262 13.16894531 7.15209961 C15.09064982 8.04197691 16.93451578 8.55141511 19 9 C16.03751649 34.76376337 16.03751649 34.76376337 13 47 C12.07058594 46.50628906 11.14117187 46.01257813 10.18359375 45.50390625 C8.93517585 44.8562308 7.68646195 44.20912569 6.4375 43.5625 C5.82841797 43.23701172 5.21933594 42.91152344 4.59179688 42.57617188 C0.34439386 40.39628779 -3.24162667 39.43480631 -8 39 C-7.01 38.505 -7.01 38.505 -6 38 C-5.67526667 35.73042524 -5.67526667 35.73042524 -5.625 32.875 C-5.21587898 26.09419785 -4.17373893 19.50104764 -3 12.8125 C-2.82162598 11.78431152 -2.64325195 10.75612305 -2.45947266 9.69677734 C-1.13525631 2.27051262 -1.13525631 2.27051262 0 0 Z " fill="#6966F5" transform="translate(435,284)"/>
<path d="M0 0 C0.70125 0.39832031 1.4025 0.79664063 2.125 1.20703125 C7.65233247 4.29362587 13.00456853 6.96381573 19 9 C18.53976346 16.34791444 17.42897109 23.47374228 16.09326172 30.70068359 C15.0499774 36.44715051 14.36528761 42.16799436 14 48 C13.0821875 47.43410156 12.164375 46.86820312 11.21875 46.28515625 C9.97960112 45.54354442 8.73999285 44.80269982 7.5 44.0625 C6.89929688 43.68931641 6.29859375 43.31613281 5.6796875 42.93164062 C1.0738397 40.21223049 -2.66346467 39.37190456 -8 39 C-7.01 38.505 -7.01 38.505 -6 38 C-5.6011132 36.10080481 -5.6011132 36.10080481 -5.5 33.78125 C-4.97396203 27.30267708 -3.99560559 20.92093458 -3 14.5 C-2.82210937 13.32179688 -2.64421875 12.14359375 -2.4609375 10.9296875 C-2.28820312 9.80820313 -2.11546875 8.68671875 -1.9375 7.53125 C-1.70353516 6.00854492 -1.70353516 6.00854492 -1.46484375 4.45507812 C-1 2 -1 2 0 0 Z " fill="#6966F5" transform="translate(192,244)"/>
<path d="M0 0 C1.3303125 1.1446875 1.3303125 1.1446875 2.6875 2.3125 C4.12456082 3.54218009 5.56214687 4.77124643 7 6 C7.48791016 6.41813965 7.97582031 6.8362793 8.47851562 7.26708984 C14.84541353 12.71860041 21.21061546 18.07436808 28 23 C25.8698889 27.82825183 22.59895997 29.81857098 18.25390625 32.47265625 C15.8630075 34.09283201 13.978662 35.90415073 12 38 C11.26910156 37.32517578 11.26910156 37.32517578 10.5234375 36.63671875 C5.21559558 31.82105854 -0.28956798 27.33504441 -5.94970703 22.94604492 C-9.69945329 20.0375674 -13.3700659 17.05707652 -17 14 C-13.3327227 11.12403776 -9.41473894 8.93803677 -5.33984375 6.6953125 C-2.67916677 4.7675432 -1.49665999 2.89517834 0 0 Z " fill="#6865F5" transform="translate(235,363)"/>
<path d="M0 0 C0.33 0 0.66 0 1 0 C1.09498779 0.54712646 1.18997559 1.09425293 1.2878418 1.65795898 C3.25833337 12.8576016 5.5574418 23.76954226 8.94921875 34.62890625 C9.71376756 37.08171526 10.42102361 39.49958549 11 42 C0.83525606 40.87791788 -9.03151427 39.33636384 -19 37 C-18.39751008 32.69393978 -16.85137959 29.55593173 -14.7265625 25.78125 C-14.23994644 24.91070984 -14.23994644 24.91070984 -13.74349976 24.02258301 C-12.71034319 22.1780747 -11.6677748 20.33908433 -10.625 18.5 C-9.93168288 17.2646644 -9.23896855 16.02899027 -8.546875 14.79296875 C-2.09779684 3.30210176 -2.09779684 3.30210176 0 0 Z " fill="#CFDAFB" transform="translate(284,390)"/>
<path d="M0 0 C3.34139976 0.02999461 4.22721051 0.29795352 7.1875 2.1875 C10.34695358 5.4426946 10.58421243 7.73663238 10.54296875 12.2734375 C10.08745033 15.44384567 8.49684343 17.1317402 6.25 19.3125 C3.03305636 20.92097182 -0.27137222 20.92559149 -3.75 20.3125 C-7.66771408 17.14498649 -9.55848291 15.00423433 -10.125 10 C-9.65786625 5.40651813 -8.22959782 4.19802015 -4.75 1.3125 C-3.75 0.3125 -3.75 0.3125 0 0 Z " fill="#6B67F7" transform="translate(366.75,451.6875)"/>
<path d="M0 0 C4.57627119 3.15254237 4.57627119 3.15254237 6 6 C6.38482057 10.07909806 6.44121857 12.29089873 4.25 15.8125 C0.75144509 19.21387283 0.75144509 19.21387283 -2 20 C-6.19641311 19.92370158 -8.45488384 19.37114292 -11.9375 17 C-14.37183453 13.45914977 -14.72811122 11.37474947 -14.49609375 7.15625 C-13.69457881 3.67250002 -11.7960989 2.08081779 -9 0 C-5.39965901 -1.20011366 -3.65462165 -0.95020163 0 0 Z " fill="#6966F6" transform="translate(275,458)"/>
<path d="M0 0 C3.57703045 0.06275492 4.66800666 0.32312666 7.8125 2.3125 C10.40884755 6.41640419 10.70259938 9.63774904 9.75 14.375 C7.95606332 17.24529869 6.76736724 18.86631638 3.75 20.375 C-0.62959914 20.88033836 -2.76443013 20.65375307 -6.625 18.4375 C-9.66703282 15.55945817 -10.34062197 12.63641879 -10.56640625 8.53125 C-10.04770832 4.99641967 -7.98839975 3.46139981 -5.25 1.375 C-3.69049449 -0.18450551 -2.16122869 0.09303302 0 0 Z " fill="#6966F6" transform="translate(328.25,477.625)"/>
<path d="M0 0 C1.32 0 2.64 0 4 0 C3.51781006 1.26384521 3.51781006 1.26384521 3.02587891 2.55322266 C1.93293357 6.2253317 1.68399664 9.32413089 1.5859375 13.1484375 C1.56657135 13.80582916 1.5472052 14.46322083 1.5272522 15.14053345 C1.46797539 17.21856135 1.42128206 19.29664624 1.375 21.375 C1.33677222 22.7929915 1.29771777 24.21096097 1.2578125 25.62890625 C1.16231829 29.08573461 1.07809811 32.54272983 1 36 C0.67 36 0.34 36 0 36 C0 24.12 0 12.24 0 0 Z " fill="#B7C3E0" transform="translate(297,303)"/>
<path d="M0 0 C0.33 0 0.66 0 1 0 C1 12.21 1 24.42 1 37 C0.01 36.01 -0.98 35.02 -2 34 C-2 33.34 -2 32.68 -2 32 C-1.34 32 -0.68 32 0 32 C0 21.44 0 10.88 0 0 Z " fill="#8793CC" transform="translate(380,354)"/>
</svg>
