<?xml version="1.0" encoding="UTF-8"?>
<svg version="1.1" xmlns="http://www.w3.org/2000/svg" width="640" height="640">
<path d="M0 0 C211.2 0 422.4 0 640 0 C640 211.2 640 422.4 640 640 C428.8 640 217.6 640 0 640 C0 428.8 0 217.6 0 0 Z " fill="#FEFEFE" transform="translate(0,0)"/>
<path d="M0 0 C2.70629883 1.12646484 2.70629883 1.12646484 5.45703125 2.7109375 C6.47966064 3.29182129 7.50229004 3.87270508 8.5559082 4.47119141 C10.16792114 5.41357666 10.16792114 5.41357666 11.8125 6.375 C13.47188599 7.32705322 13.47188599 7.32705322 15.16479492 8.29833984 C17.39845623 9.58290973 19.62872984 10.87338941 21.85546875 12.16992188 C24.6560211 13.79980856 27.46588436 15.41152132 30.28125 17.015625 C31.79229244 17.88432909 33.30275685 18.7540398 34.8125 19.625 C35.49223877 20.01349121 36.17197754 20.40198242 36.87231445 20.80224609 C41.51699532 23.52414503 45.25666064 25.76998193 47 31 C47.02197287 32.53899552 46.98194683 34.07928741 46.90380859 35.61645508 C46.6712078 40.87544637 46.54681394 46.1289959 46.45898438 51.39233398 C46.40345288 53.65378968 46.31575445 55.91470746 46.19433594 58.17358398 C45.22097676 70.91241821 45.22097676 70.91241821 49.79943848 82.34954834 C54.22587617 86.52961411 59.20527408 89.59302942 64.52178955 92.5118103 C67.95669275 94.57450339 70.89810559 97.1218595 73.89315796 99.77253723 C75.96857811 101.25131142 75.96857811 101.25131142 78.5851593 100.78509521 C81.65988044 99.78546453 84.14106636 98.31639351 86.89453125 96.62109375 C88.01537109 95.94755859 89.13621094 95.27402344 90.29101562 94.58007812 C92.05284656 93.51180423 93.81096694 92.43844926 95.56274414 91.35375977 C107.88425799 83.75569505 107.88425799 83.75569505 112.8737793 84.3137207 C118.28015149 86.05873302 123.12092003 89.01966378 128 91.875 C129.20451141 92.5652802 130.40959363 93.25456529 131.61523438 93.94287109 C135.09193703 95.93667591 138.54684308 97.96569404 142 100 C143.36898437 100.79760742 143.36898437 100.79760742 144.765625 101.61132812 C147.02167875 102.93155066 149.26440082 104.27049619 151.5 105.625 C152.13292969 106.00124512 152.76585937 106.37749023 153.41796875 106.76513672 C157.16001771 109.10391732 159.21942169 110.96481844 161 115 C161.44263044 118.66578575 161.42024533 122.30733441 161.3984375 125.99609375 C161.40130768 127.06239517 161.40417786 128.12869659 161.40713501 129.22731018 C161.40917364 131.47910087 161.40365789 133.73090935 161.39111328 135.98266602 C161.37507326 139.42179165 161.39096134 142.85973923 161.41015625 146.29882812 C161.40817347 148.48958592 161.40432909 150.68034298 161.3984375 152.87109375 C161.40451019 153.89625595 161.41058289 154.92141815 161.4168396 155.97764587 C161.36377523 161.38944863 161.10235883 165.3532662 158 170 C155.77734375 171.80859375 155.77734375 171.80859375 152.9375 173.4375 C151.803125 174.0975 150.66875 174.7575 149.5 175.4375 C148.48099609 176.01564453 148.48099609 176.01564453 147.44140625 176.60546875 C144.44616311 178.31635163 141.47397106 180.06490876 138.5 181.8125 C136.73809312 182.84349416 134.97540535 183.87313343 133.21218872 184.90188599 C132.03218407 185.59047398 130.85271676 186.27998366 129.67379761 186.97042847 C127.99259134 187.95293394 126.3069094 188.9277684 124.62109375 189.90234375 C123.6355249 190.47460693 122.64995605 191.04687012 121.63452148 191.63647461 C119.36549882 192.81083209 117.49448139 193.53641727 115 194 C114.96261719 194.79277344 114.92523438 195.58554687 114.88671875 196.40234375 C114.17673211 209.00112625 112.57906217 221.48485532 111 234 C111.73951904 234.28447998 112.47903809 234.56895996 113.2409668 234.86206055 C115.65259198 235.85671456 117.86840775 236.94071239 120.14453125 238.20703125 C120.90443359 238.62919922 121.66433594 239.05136719 122.44726562 239.48632812 C123.22779297 239.92396484 124.00832031 240.36160156 124.8125 240.8125 C125.58142578 241.23853516 126.35035156 241.66457031 127.14257812 242.10351562 C130.94493589 244.22449325 134.71999315 246.38941617 138.44921875 248.63671875 C139.08561279 249.01916748 139.72200684 249.40161621 140.37768555 249.7956543 C142 251 142 251 144 254 C144.27415466 256.37716675 144.27415466 256.37716675 144.30639648 259.21826172 C144.32238388 260.28301727 144.33837128 261.34777283 144.35484314 262.4447937 C144.36288719 264.16981613 144.36288719 264.16981613 144.37109375 265.9296875 C144.38012222 267.11217072 144.3891507 268.29465393 144.39845276 269.51296997 C144.41297072 272.01627057 144.42184581 274.51960924 144.42553711 277.02294922 C144.43743227 280.85318946 144.48660574 284.6818187 144.53710938 288.51171875 C144.5465734 290.94270046 144.55380853 293.37369208 144.55859375 295.8046875 C144.57812607 296.95065399 144.59765839 298.09662048 144.61778259 299.27731323 C144.5727467 307.21385383 144.5727467 307.21385383 141.7590332 311.07592773 C136.79776045 314.53578001 136.79776045 314.53578001 134.296875 315.98046875 C132.96221191 316.76031128 132.96221191 316.76031128 131.60058594 317.5559082 C130.65989258 318.0943335 129.71919922 318.63275879 128.75 319.1875 C126.7704278 320.33002682 124.79126557 321.47326423 122.8125 322.6171875 C121.83152344 323.18276367 120.85054688 323.74833984 119.83984375 324.33105469 C117.23366814 325.86267577 114.67451552 327.44664018 112.125 329.0703125 C111.3815332 329.53542236 110.63806641 330.00053223 109.87207031 330.47973633 C108.50635969 331.33746922 107.1504946 332.21119068 105.80761719 333.10424805 C100.65566988 336.28786334 95.98586842 337.16817911 90 336 C86.21577343 334.42687463 82.8745296 332.34374049 79.4375 330.125 C78.01111206 329.24992798 78.01111206 329.24992798 76.5559082 328.35717773 C72.83514195 326.07162204 69.14605111 323.74058337 65.47851562 321.37060547 C63.93674085 320.37442576 62.38889356 319.3875617 60.83422852 318.41162109 C59.44649811 317.53949574 58.07309206 316.64395602 56.71850586 315.72119141 C52.82163947 313.28131811 50.57553828 312.74955055 46.01953125 313.74609375 C44.6716208 314.13726709 43.32814054 314.54621387 42 315 C45.94040815 322.26338089 49.93310837 329.49418543 54 336.6875 C54.556875 337.67298828 55.11375 338.65847656 55.6875 339.67382812 C59.73520939 346.81604749 63.85216512 353.91556287 68 361 C69.74382185 363.98787199 71.48654533 366.9763802 73.22851562 369.96533203 C74.43256546 372.02794772 75.63971115 374.08875866 76.84960938 376.14794922 C78.66157798 379.23774711 80.45731807 382.33648182 82.25 385.4375 C82.79914063 386.36626953 83.34828125 387.29503906 83.9140625 388.25195312 C90.33039223 399.43167485 91.88699414 411.71513111 89.3125 424.3828125 C86.5676671 433.32639305 81.95284795 440.72547868 75 447 C74.52304687 447.48082031 74.04609375 447.96164062 73.5546875 448.45703125 C65.89486108 455.76531975 55.57077322 459.10339538 45.12657166 459.14717102 C43.95064453 459.15432632 42.77471741 459.16148163 41.56315613 459.16885376 C39.64071831 459.17288712 39.64071831 459.17288712 37.67944336 459.17700195 C36.30902944 459.18327217 34.9386172 459.18991947 33.56820679 459.19691467 C29.07543101 459.21789698 24.58265514 459.22831393 20.08984375 459.23828125 C18.53830002 459.24233146 16.98675647 459.24644846 15.43521309 459.25063133 C8.14164335 459.26967288 0.84808364 459.28390417 -6.44550616 459.2922433 C-14.84016049 459.3020019 -23.23455018 459.32828956 -31.62911135 459.36874419 C-38.13295741 459.39900175 -44.63672804 459.4137214 -51.14064306 459.41702431 C-55.01769524 459.41936446 -58.89446439 459.4281883 -62.77144051 459.45348549 C-66.42495401 459.47693989 -70.07800163 459.48093075 -73.7315712 459.47072411 C-75.69257377 459.47000063 -77.65355362 459.4889704 -79.61445618 459.50878906 C-93.29679523 459.42932902 -105.027633 455.18480215 -115.25390625 445.96875 C-125.46895202 435.26911952 -129.53020917 422.93024972 -129.23828125 408.44140625 C-128.14151598 392.60123903 -116.99756067 378.20548024 -109.00976562 365.00073242 C-102.33095906 353.94870035 -95.89246988 342.76534456 -89.47949219 331.55761719 C-88.48348632 329.83580903 -87.44061649 328.14036833 -86.35571289 326.47314453 C-84.08662316 322.3337822 -83.8114152 318.55995698 -85 314 C-87.4866588 310.93845634 -90.50937321 308.98781639 -93.8125 306.875 C-95.5613259 305.68508392 -97.31002444 304.49498062 -99.05859375 303.3046875 C-99.90921387 302.74233398 -100.75983398 302.17998047 -101.63623047 301.60058594 C-103.67417434 300.22062725 -105.61258789 298.79196583 -107.53515625 297.2578125 C-108.47230469 296.51273437 -109.40945312 295.76765625 -110.375 295 C-111.16648437 294.360625 -111.95796875 293.72125 -112.7734375 293.0625 C-114.96934664 291.7026615 -114.96934664 291.7026615 -117.28662109 292.72998047 C-120.18655019 294.08731637 -122.89210357 295.61522405 -125.640625 297.2578125 C-126.71183594 297.88300781 -127.78304687 298.50820313 -128.88671875 299.15234375 C-131.12072571 300.46264981 -133.34741466 301.78551695 -135.56640625 303.12109375 C-146.07337656 309.19877837 -146.07337656 309.19877837 -151.58691406 308.70654297 C-157.43709423 306.99363105 -162.57314249 303.6349673 -167.75 300.5 C-168.94688051 299.79511267 -170.14479348 299.09197538 -171.34375 298.390625 C-174.31986869 296.64261386 -177.27500101 294.86221404 -180.22485352 293.0703125 C-182.02389857 291.98559052 -183.83382217 290.92115702 -185.64648438 289.859375 C-186.81139094 289.16699132 -187.97611184 288.47429514 -189.140625 287.78125 C-190.6879834 286.86956055 -190.6879834 286.86956055 -192.26660156 285.93945312 C-195.37733043 283.7322693 -197.12036203 282.34688677 -199 279 C-199.60411007 275.20062052 -199.60811975 271.44276898 -199.6015625 267.6015625 C-199.61013275 266.49324066 -199.618703 265.38491882 -199.62753296 264.24301147 C-199.63900561 261.90129322 -199.64003026 259.5595037 -199.63134766 257.21777344 C-199.62503346 253.64393796 -199.67193095 250.07342535 -199.72265625 246.5 C-199.72720324 244.22135833 -199.72860876 241.94270779 -199.7265625 239.6640625 C-199.74498199 238.60031403 -199.76340149 237.53656555 -199.78237915 236.44058228 C-199.70687927 230.35341217 -199.0407487 226.69792623 -194.62554932 222.34939575 C-192.48305035 220.57087142 -190.36375481 219.11072166 -187.91015625 217.7890625 C-186.96744873 217.27045654 -186.02474121 216.75185059 -185.0534668 216.2175293 C-184.06644775 215.69199463 -183.07942871 215.16645996 -182.0625 214.625 C-180.00686 213.50043729 -177.95217387 212.37412922 -175.8984375 211.24609375 C-174.39555176 210.4260083 -174.39555176 210.4260083 -172.86230469 209.58935547 C-168.27303452 207.04106574 -163.79871055 204.31177729 -159.34204102 201.53955078 C-155.2057703 199 -155.2057703 199 -153 199 C-152.95101562 198.11183594 -152.90203125 197.22367188 -152.8515625 196.30859375 C-152.14194678 184.18395274 -151.09222463 172.09555313 -150 160 C-150.76143311 159.56655273 -151.52286621 159.13310547 -152.30737305 158.68652344 C-155.15147943 157.06478689 -157.99331674 155.43920715 -160.83374023 153.81103516 C-162.0597507 153.10930442 -163.28662651 152.40908317 -164.5144043 151.71044922 C-166.28668332 150.70162454 -168.05570169 149.68727684 -169.82421875 148.671875 C-170.88729248 148.0644043 -171.95036621 147.45693359 -173.0456543 146.83105469 C-180.34714405 142.30571189 -180.34714405 142.30571189 -182 139 C-182.1158454 137.30115232 -182.16957147 135.59789713 -182.19287109 133.89526367 C-182.20893402 132.83043259 -182.22499695 131.7656015 -182.24154663 130.66850281 C-182.28593193 125.79650454 -182.32705853 120.92464331 -182.35009766 116.05249023 C-182.36666521 113.48110916 -182.39396529 110.90977428 -182.43212891 108.33862305 C-182.48682553 104.63566133 -182.50876159 100.93377975 -182.5234375 97.23046875 C-182.54610687 96.0813652 -182.56877625 94.93226166 -182.59213257 93.74833679 C-182.57106332 85.80653191 -182.57106332 85.80653191 -179.85424805 81.96948242 C-176.89014988 79.92420144 -173.95182142 78.0183228 -170.80859375 76.2578125 C-169.92966209 75.7606221 -169.92966209 75.7606221 -169.03297424 75.25338745 C-167.17206247 74.20282071 -165.30510669 73.16360935 -163.4375 72.125 C-161.60354921 71.09499613 -159.770919 70.06267932 -157.93862915 69.02972412 C-156.72936895 68.34981601 -155.5184103 67.67291969 -154.30575562 66.99908447 C-151.38106374 65.36956295 -148.51492375 63.69898683 -145.66845703 61.93261719 C-135.6780401 55.74562686 -135.6780401 55.74562686 -130 57 C-126.78129056 58.33666584 -123.81895757 59.99321813 -120.8125 61.75 C-119.52158447 62.47751465 -119.52158447 62.47751465 -118.20458984 63.21972656 C-113.55854438 65.85992719 -108.99024237 68.60835285 -104.45703125 71.4375 C-103.56330811 71.99083008 -102.66958496 72.54416016 -101.7487793 73.11425781 C-100.03021866 74.18565972 -98.32150522 75.27305996 -96.62426758 76.37792969 C-95.45287231 77.11124512 -95.45287231 77.11124512 -94.2578125 77.859375 C-93.5786377 78.29733398 -92.89946289 78.73529297 -92.19970703 79.18652344 C-86.92958902 81.13547274 -81.74272581 78.23312203 -76.921875 76.05859375 C-75.94290253 75.6278933 -75.94290253 75.6278933 -74.94415283 75.18849182 C-72.87652113 74.27792327 -70.81304828 73.3584004 -68.75 72.4375 C-66.67220269 71.51416801 -64.5935767 70.59285029 -62.51300049 69.67579651 C-61.22248637 69.10658696 -59.9336409 68.53357599 -58.64666748 67.95640564 C-54.22374279 66 -54.22374279 66 -52 66 C-52.03665771 64.88028809 -52.07331543 63.76057617 -52.11108398 62.60693359 C-52.23817422 58.43643654 -52.31828329 54.26610894 -52.38452148 50.09423828 C-52.41963692 48.29186179 -52.46734303 46.48968348 -52.52807617 44.68798828 C-52.6134005 42.09097391 -52.65277328 39.49660185 -52.68359375 36.8984375 C-52.71972275 36.0982016 -52.75585175 35.2979657 -52.79307556 34.47348022 C-52.79538918 31.14631597 -52.71679792 28.90812578 -50.6118927 26.24137878 C-47.04214348 23.07096757 -43.02159701 20.65221893 -38.83203125 18.37890625 C-37.69056641 17.75306641 -36.54910156 17.12722656 -35.37304688 16.48242188 C-34.18639756 15.84207781 -32.99954795 15.20210478 -31.8125 14.5625 C-29.4849823 13.294243 -27.15815441 12.02471918 -24.83203125 10.75390625 C-23.69459473 10.13789551 -22.5571582 9.52188477 -21.38525391 8.88720703 C-17.07794283 6.48597274 -12.89298542 3.90078645 -8.7253418 1.26538086 C-5.48564842 -0.23881432 -3.53790087 -0.42342972 0 0 Z " fill="#082C75" transform="translate(339,91)"/>
<path d="M0 0 C0.80382111 -0.00992981 1.60764221 -0.01985962 2.43582153 -0.03009033 C5.09315435 -0.05927857 7.75024809 -0.07293076 10.40771484 -0.08398438 C12.26134239 -0.09549544 14.11496992 -0.1070108 15.96859741 -0.11853027 C19.8573314 -0.13953709 23.7459829 -0.15122977 27.63476562 -0.15820312 C32.59794961 -0.16914551 37.56002865 -0.21714452 42.5228672 -0.27414703 C46.35439135 -0.31155822 50.18565413 -0.32181945 54.01734543 -0.32487488 C55.84567656 -0.33089765 57.67400476 -0.34685203 59.5021553 -0.37324524 C78.34396458 -0.62575811 78.34396458 -0.62575811 85.99365234 6.32226562 C91.80078121 12.84166042 91.24282546 20.13041708 91.28881836 28.35375977 C91.30030319 29.78224623 91.3206997 31.21069096 91.3503418 32.63891602 C91.69634052 49.32224005 91.69634052 49.32224005 85.5456543 55.86181641 C82.83150925 58.30655363 80.52902262 59.59842904 76.99365234 60.32226562 C76.98530933 68.10334327 77.00949551 75.88360378 77.07393074 83.66438103 C77.10286474 87.27838039 77.12106249 90.89173715 77.11376953 94.50585938 C77.10712721 98.00121182 77.1299333 101.49529996 77.17220688 104.99039078 C77.1885861 106.95649075 77.17534676 108.92276671 77.16140747 110.8888855 C77.29544417 119.24931231 78.90014564 124.64288585 83.99365234 131.32226562 C84.82509766 130.96132813 85.65654297 130.60039062 86.51318359 130.22851562 C87.59986328 129.76445312 88.68654297 129.30039062 89.80615234 128.82226562 C90.88509766 128.35820312 91.96404297 127.89414062 93.07568359 127.41601562 C95.99365234 126.32226562 95.99365234 126.32226562 98.99365234 126.32226562 C98.96746826 125.23284668 98.94128418 124.14342773 98.91430664 123.02099609 C98.82350573 118.96212466 98.7662955 114.90334218 98.71899414 110.84375 C98.69391768 109.09001547 98.65984739 107.33638476 98.61645508 105.58300781 C98.5554963 103.05572856 98.52737515 100.52983582 98.50537109 98.00195312 C98.47956467 97.223591 98.45375824 96.44522888 98.4271698 95.64328003 C98.42501238 91.41410394 98.78555985 89.63859679 101.18701172 85.98803711 C103.84301677 83.46534059 106.17955689 81.72768985 109.38818359 79.99023438 C110.4189502 79.42320801 111.4497168 78.85618164 112.51171875 78.27197266 C114.14246338 77.39968018 114.14246338 77.39968018 115.80615234 76.50976562 C118.06039436 75.28251759 120.31430058 74.05465255 122.56787109 72.82617188 C123.66534668 72.2320752 124.76282227 71.63797852 125.89355469 71.02587891 C128.60993311 69.53313291 131.28698719 67.99630483 133.95068359 66.41210938 C135.02515747 65.77849487 135.02515747 65.77849487 136.12133789 65.13208008 C137.40677906 64.36955154 138.68618676 63.59670972 139.95776367 62.8112793 C144.18663234 60.33812765 147.14705403 59.93930154 151.99365234 60.32226562 C155.12060547 61.64819336 155.12060547 61.64819336 158.27490234 63.50585938 C158.84665192 63.83697723 159.41840149 64.16809509 160.00747681 64.50924683 C161.84512539 65.57829667 163.66928642 66.66823111 165.49365234 67.75976562 C166.75190585 68.49883014 168.01086078 69.23670177 169.27050781 69.97338867 C171.73783329 71.41987399 174.19968116 72.87500978 176.65673828 74.33886719 C179.45976173 76.00493117 182.27240162 77.65102759 185.09521484 79.28320312 C194.70660312 84.89169179 194.70660312 84.89169179 196.99365234 88.32226562 C197.26780701 90.69943237 197.26780701 90.69943237 197.30004883 93.54052734 C197.31603622 94.6052829 197.33202362 95.67003845 197.34849548 96.76705933 C197.35653954 98.49208176 197.35653954 98.49208176 197.36474609 100.25195312 C197.37377457 101.43443634 197.38280304 102.61691956 197.3921051 103.8352356 C197.40662306 106.33853619 197.41549816 108.84187487 197.41918945 111.34521484 C197.43108461 115.17545508 197.48025808 119.00408433 197.53076172 122.83398438 C197.54022574 125.26496608 197.54746087 127.6959577 197.55224609 130.12695312 C197.57177841 131.27291962 197.59131073 132.41888611 197.61143494 133.59957886 C197.56639904 141.53611946 197.56639904 141.53611946 194.75268555 145.39819336 C189.79141279 148.85804564 189.79141279 148.85804564 187.29052734 150.30273438 C185.95586426 151.0825769 185.95586426 151.0825769 184.59423828 151.87817383 C183.65354492 152.41659912 182.71285156 152.95502441 181.74365234 153.50976562 C179.76408015 154.65229245 177.78491791 155.79552985 175.80615234 156.93945312 C174.82517578 157.5050293 173.84419922 158.07060547 172.83349609 158.65332031 C170.22732049 160.1849414 167.66816786 161.76890581 165.11865234 163.39257812 C164.37518555 163.85768799 163.63171875 164.32279785 162.86572266 164.80200195 C161.50001203 165.65973484 160.14414695 166.5334563 158.80126953 167.42651367 C153.64932222 170.61012896 148.97952076 171.49044473 142.99365234 170.32226562 C139.20942577 168.74914025 135.86818194 166.66600611 132.43115234 164.44726562 C131.0047644 163.5721936 131.0047644 163.5721936 129.54956055 162.67944336 C125.82879429 160.39388767 122.13970345 158.062849 118.47216797 155.69287109 C116.93039319 154.69669139 115.38254591 153.70982733 113.82788086 152.73388672 C112.44015045 151.86176136 111.06674441 150.96622165 109.7121582 150.04345703 C105.81529181 147.60358373 103.56919062 147.07181618 99.01318359 148.06835938 C97.66527315 148.45953271 96.32179289 148.8684795 94.99365234 149.32226562 C98.9340605 156.58564652 102.92676071 163.81645105 106.99365234 171.00976562 C107.55052734 171.99525391 108.10740234 172.98074219 108.68115234 173.99609375 C112.72886174 181.13831312 116.84581746 188.23782849 120.99365234 195.32226562 C122.73747419 198.31013761 124.48019767 201.29864583 126.22216797 204.28759766 C127.4262178 206.35021334 128.6333635 208.41102428 129.84326172 210.47021484 C131.65523032 213.56001273 133.45097041 216.65874744 135.24365234 219.75976562 C135.79279297 220.68853516 136.34193359 221.61730469 136.90771484 222.57421875 C143.32404458 233.75394048 144.88064648 246.03739674 142.30615234 258.70507812 C139.56131944 267.64865867 134.94650029 275.0477443 127.99365234 281.32226562 C127.27822266 282.04349609 127.27822266 282.04349609 126.54833984 282.77929688 C118.88851342 290.08758537 108.56442556 293.42566101 98.120224 293.46943665 C96.94429687 293.47659195 95.76836975 293.48374725 94.55680847 293.49111938 C92.63437065 293.49515274 92.63437065 293.49515274 90.6730957 293.49926758 C89.30268178 293.5055378 87.93226954 293.51218509 86.56185913 293.5191803 C82.06908336 293.54016261 77.57630748 293.55057955 73.08349609 293.56054688 C71.53195237 293.56459708 69.98040881 293.56871408 68.42886543 293.57289696 C61.13529569 293.59193851 53.84173599 293.6061698 46.54814619 293.61450893 C38.15349185 293.62426753 29.75910216 293.65055519 21.36454099 293.69100982 C14.86069493 293.72126737 8.35692431 293.73598703 1.85300928 293.73928994 C-2.0240429 293.74163009 -5.90081205 293.75045392 -9.77778816 293.77575111 C-13.43130167 293.79920552 -17.08434928 293.80319638 -20.73791885 293.79298973 C-22.69892143 293.79226625 -24.65990127 293.81123602 -26.62080383 293.83105469 C-40.30314289 293.75159465 -52.03398066 289.50706777 -62.26025391 280.29101562 C-72.47529967 269.59138514 -76.53655682 257.25251535 -76.24462891 242.76367188 C-75.14786364 226.92350465 -64.00390833 212.52774586 -56.01611328 199.32299805 C-49.33730671 188.27096598 -42.89881754 177.08761018 -36.48583984 165.87988281 C-35.48983398 164.15807465 -34.44696415 162.46263396 -33.36206055 160.79541016 C-31.09297081 156.65604783 -30.81776286 152.88222261 -32.00634766 148.32226562 C-34.49317212 145.260518 -37.51662225 143.31172675 -40.81884766 141.19726562 C-41.68292236 140.60397461 -42.54699707 140.01068359 -43.43725586 139.39941406 C-45.15585221 138.221187 -46.88352784 137.05607913 -48.62060547 135.90527344 C-51.69844856 133.86303699 -54.69882163 131.73402982 -57.69384766 129.57226562 C-58.54333984 128.97929687 -59.39283203 128.38632812 -60.26806641 127.77539062 C-60.84169922 127.29585938 -61.41533203 126.81632812 -62.00634766 126.32226562 C-62.00634766 125.66226563 -62.00634766 125.00226563 -62.00634766 124.32226562 C-59.95947266 122.99023438 -59.95947266 122.99023438 -57.25634766 121.50976562 C-53.27912726 119.21219057 -50.59103941 117.19930326 -48.00634766 113.32226562 C-47.01634766 112.33226562 -47.01634766 112.33226562 -46.00634766 111.32226562 C-45.33599487 111.84228149 -45.33599487 111.84228149 -44.65209961 112.37280273 C-35.27785948 119.63054989 -25.84338747 126.70151013 -16.00634766 133.32226562 C-15.77947266 132.49726563 -15.55259766 131.67226563 -15.31884766 130.82226562 C-14.1883727 127.80766575 -13.34167723 126.40762902 -11.46850586 123.95898438 C-7.84144738 118.22096424 -8.27853363 112.23671683 -8.29931641 105.63476562 C-8.27663445 103.68739502 -8.27663445 103.68739502 -8.25349426 101.70068359 C-8.21386315 98.27460931 -8.20346824 94.84906693 -8.19946289 91.42279053 C-8.19008959 87.9164641 -8.15265032 84.41044485 -8.11767578 80.90429688 C-8.05332415 74.04366353 -8.01990053 67.18318251 -8.00634766 60.32226562 C-9.42802246 59.8820105 -9.42802246 59.8820105 -10.87841797 59.43286133 C-14.2366712 58.24048746 -15.50769293 57.20711981 -17.75634766 54.50976562 C-18.61486328 53.51009766 -18.61486328 53.51009766 -19.49072266 52.49023438 C-24.11974478 45.86882386 -23.37366766 38.78576675 -23.38134766 31.00976562 C-23.40583984 29.71619141 -23.43033203 28.42261719 -23.45556641 27.08984375 C-23.48149513 18.64140057 -22.97164184 12.82670068 -17.22509766 6.29882812 C-16.65791016 5.8528125 -16.09072266 5.40679687 -15.50634766 4.94726562 C-14.93916016 4.48578125 -14.37197266 4.02429688 -13.78759766 3.54882812 C-9.22648888 0.40806463 -5.48446507 0.01623272 0 0 Z " fill="#082C77" transform="translate(286.00634765625,256.677734375)"/>
<path d="M0 0 C14.52 0 29.04 0 44 0 C44.00257813 4.40859375 44.00515625 8.8171875 44.0078125 13.359375 C44.02666613 16.90597365 44.05148411 20.45242071 44.08029175 23.99894714 C44.10894527 27.72554112 44.12743599 31.45151097 44.12011719 35.17822266 C44.11346108 38.77730962 44.13635771 42.37517291 44.17855453 45.97400665 C44.19488752 47.99430669 44.1817149 50.01477738 44.16775513 52.03509521 C44.30829088 61.0873916 46.33297381 67.27813027 51 75 C51.62567871 76.12083984 52.25135742 77.24167969 52.89599609 78.39648438 C53.43305176 79.28658203 53.97010742 80.17667969 54.5234375 81.09375 C55.14355713 82.12894775 55.76367676 83.16414551 56.40258789 84.23071289 C57.05348389 85.30957764 57.70437988 86.38844238 58.375 87.5 C59.80156303 89.88210019 61.22369544 92.26682377 62.64453125 94.65234375 C63.00588669 95.25872177 63.36724213 95.86509979 63.73954773 96.48985291 C67.59189187 102.96958841 71.33489877 109.51044168 75.0625 116.0625 C75.72729256 117.23038872 76.39208748 118.39827609 77.05688477 119.56616211 C78.05041149 121.31170241 79.04389713 123.05726583 80.03709412 124.80299377 C83.60477736 131.07008392 87.2069237 137.31715963 90.8125 143.5625 C91.42834961 144.63089111 92.04419922 145.69928223 92.67871094 146.80004883 C95.53820823 151.75663857 98.40942795 156.70550892 101.3125 161.63671875 C101.82192139 162.50546631 102.33134277 163.37421387 102.85620117 164.26928711 C103.79165782 165.86277831 104.73155594 167.45367507 105.67700195 169.04125977 C109.84662721 176.15530074 112.30621507 182.67287895 111 191 C108.30449956 198.8684829 104.54604695 205.14374806 97 209 C92.86972611 210.57279033 89.43632859 211.25394252 85.02409363 211.27415466 C83.85087051 211.28412979 82.6776474 211.29410492 81.46887207 211.30438232 C80.19547974 211.305047 78.9220874 211.30571167 77.61010742 211.30639648 C76.24452769 211.31402482 74.87895223 211.32245347 73.51338196 211.33161926 C69.81489541 211.35350448 66.11649151 211.36235504 62.41794753 211.36744571 C60.10385591 211.37109629 57.78978571 211.37733998 55.47570229 211.3844471 C47.39289022 211.40892061 39.31014214 211.42198899 31.22729492 211.42553711 C23.70863022 211.42917101 16.19037406 211.45906103 8.67183417 211.50094169 C2.20367139 211.53570047 -4.26435634 211.55108651 -10.73261184 211.55178314 C-14.59004304 211.55257405 -18.44705768 211.56122597 -22.30439186 211.58978081 C-25.93502659 211.6160581 -29.56490221 211.61811391 -33.19558907 211.60212517 C-35.1512036 211.59946156 -37.10680399 211.62142822 -39.06228638 211.64431763 C-47.49775594 211.57461964 -53.53196542 210.14654535 -59.80897236 204.32118893 C-64.7485122 199.15936144 -68.12409399 192.69233494 -68.5 185.5 C-67.63354302 170.19259332 -53.28287934 153.03022752 -45.65625 140.17578125 C-41.5786578 133.29876517 -37.53914555 126.39963413 -33.5 119.5 C-27.93259206 109.99135122 -22.35207554 100.49087193 -16.72460938 91.01757812 C-15.74649646 89.36743769 -14.78906073 87.70493928 -13.84790039 86.03344727 C-12.39188763 83.64330874 -10.89530747 81.51444197 -9.21264648 79.29272461 C1.07819415 64.90470434 0.5135425 49.95965697 0.21887207 33.02740479 C0.16596933 29.29240984 0.17625175 25.55755606 0.18164062 21.82226562 C0.18767654 14.5449609 0.0917113 7.27931772 0 0 Z " fill="#FEFEFE" transform="translate(298,318)"/>
<path d="M0 0 C0.87744873 0.52924072 1.75489746 1.05848145 2.65893555 1.60375977 C3.64458496 2.19012207 4.63023437 2.77648437 5.64575195 3.38061523 C6.68521973 4.01241699 7.7246875 4.64421875 8.7956543 5.29516602 C10.95547518 6.57828278 13.11563238 7.8608336 15.27612305 9.14282227 C17.34542545 10.38061551 19.41445478 11.61886544 21.4831543 12.85766602 C24.51412214 14.66847061 27.55449641 16.46044396 30.6081543 18.23266602 C31.53688354 18.79425415 31.53688354 18.79425415 32.484375 19.3671875 C36.3966306 21.62536645 39.005211 22.26836091 43.4831543 21.85766602 C46.66475662 20.54302242 46.66475662 20.54302242 49.8347168 18.64672852 C50.41603363 18.31853119 50.99735046 17.99033386 51.59628296 17.65219116 C53.44063551 16.60754864 55.27435756 15.54570863 57.1081543 14.48266602 C58.34705577 13.77574054 59.58663376 13.06999928 60.8269043 12.36547852 C63.10432684 11.07158506 65.3763948 9.76979929 67.64575195 8.46166992 C69.8995531 7.18757996 72.1531745 5.98367072 74.4831543 4.85766602 C77.40049661 7.0025819 80.31689329 9.14878026 83.2331543 11.29516602 C84.03881836 11.88749023 84.84448242 12.47981445 85.67456055 13.09008789 C87.37090875 14.33897417 89.05071049 15.61056641 90.71557617 16.90112305 C93.47159828 18.96215351 93.47159828 18.96215351 96.76635742 20.45092773 C100.42267912 22.4497675 103.3939323 24.21391897 105.4831543 27.85766602 C107.5343123 36.01787842 106.75299574 44.77412126 106.4831543 53.10766602 C106.41433005 56.56235451 106.36266911 60.01613922 106.33178711 63.47137451 C106.30815869 65.61425664 106.26032049 67.75704371 106.18530273 69.89874268 C106.05999605 75.58762379 106.05999605 75.58762379 108.08764648 80.80273438 C110.90997157 83.22380146 113.75088904 85.03008135 116.9987793 86.84594727 C117.61460876 87.19400925 118.23043823 87.54207123 118.8649292 87.90068054 C120.81568654 89.00031512 122.77411391 90.08537029 124.7331543 91.17016602 C126.06441815 91.91726092 127.39515335 92.66529866 128.7253418 93.41430664 C131.97190371 95.23970386 135.22549961 97.05212328 138.4831543 98.85766602 C138.68946569 106.36510835 138.07723561 113.60467155 137.1081543 121.04516602 C136.98182617 122.08608398 136.85549805 123.12700195 136.7253418 124.19946289 C136.35769208 127.0947044 135.93601463 129.97466783 135.4831543 132.85766602 C135.17764648 134.8125293 135.17764648 134.8125293 134.8659668 136.80688477 C132.8599092 141.23267849 129.98586722 142.41368059 125.7331543 144.48266602 C124.11038298 145.32841329 122.48937033 146.17754117 120.86987305 147.02954102 C120.00410645 147.4787793 119.13833984 147.92801758 118.24633789 148.39086914 C113.26668473 151.03424749 108.40777283 153.88049103 103.5456543 156.73266602 C102.59271484 157.28003418 101.63977539 157.82740234 100.65795898 158.39135742 C99.76625 158.91391113 98.87454102 159.43646484 97.95581055 159.97485352 C97.16440674 160.4348877 96.37300293 160.89492188 95.55761719 161.36889648 C93.15149833 163.09568391 91.88443872 164.22827736 90.4831543 166.85766602 C90.15808523 169.75263457 89.99491121 172.44452653 89.97143555 175.34204102 C89.95348434 176.15763489 89.93553314 176.97322876 89.91703796 177.8135376 C89.86297409 180.41152824 89.82905248 183.00933559 89.7956543 185.60766602 C89.76247769 187.37201442 89.7279877 189.13633864 89.69213867 190.90063477 C89.60478281 195.21967097 89.54468372 199.53787597 89.4831543 203.85766602 C84.5331543 205.83766602 79.5831543 207.81766602 74.4831543 209.85766602 C68.02038356 201.19629636 66.42475496 195.3158291 66.51831055 184.61547852 C66.51103455 183.27553166 66.50183695 181.93559401 66.49082947 180.59567261 C66.47611767 177.81004082 66.48676502 175.02598815 66.515625 172.24047852 C66.55012185 168.67829462 66.51632662 165.12045366 66.46341801 161.55862617 C66.43058095 158.80105206 66.43549702 156.04451508 66.4515667 153.2868309 C66.45573432 151.33861198 66.42679012 149.39041247 66.39723206 147.44241333 C66.55720586 138.8187738 66.55720586 138.8187738 69.24728394 136.02655029 C71.39501953 134.71264648 71.39501953 134.71264648 73.53123474 133.78390503 C76.65323499 132.30243085 77.87868205 129.80989496 79.4831543 126.85766602 C81.19943248 121.70883148 80.74817505 116.21602135 80.77832031 110.82617188 C80.78980514 109.39768541 80.81020165 107.96924068 80.83984375 106.54101562 C81.10063903 95.09637751 81.10063903 95.09637751 76.4831543 84.85766602 C73.59805516 82.43344416 73.59805516 82.43344416 70.4831543 80.85766602 C69.92706482 80.50046982 69.37097534 80.14327362 68.79803467 79.7752533 C65.40047664 78.42850723 62.04708929 78.55442593 58.44506836 78.55126953 C57.23451782 78.53878426 57.23451782 78.53878426 55.99951172 78.52604675 C53.33255173 78.50196049 50.66583652 78.49317543 47.9987793 78.48657227 C46.14035978 78.47760339 44.281941 78.46848149 42.42352295 78.45921326 C38.52639004 78.44272339 34.62934303 78.43502341 30.73217773 78.43212891 C25.75099643 78.42675163 20.7706286 78.38909881 15.78967667 78.34338474 C11.94965712 78.31356155 8.10983199 78.30640417 4.26970673 78.30540276 C2.43416375 78.30120925 0.59861972 78.28881 -1.23680878 78.26788521 C-3.81219771 78.24086692 -6.38572084 78.24582685 -8.96118164 78.25830078 C-9.71159729 78.24346649 -10.46201294 78.2286322 -11.23516846 78.21334839 C-17.07258404 78.29339612 -20.94893032 80.27968434 -25.5168457 83.85766602 C-32.42383821 91.12818444 -31.88242742 98.63414975 -31.8918457 108.17016602 C-31.92858398 110.11052734 -31.92858398 110.11052734 -31.96606445 112.09008789 C-31.99029311 119.98459047 -31.80677815 126.38759982 -26.0690918 132.36621094 C-23.42957464 134.68979973 -20.66810641 136.34995076 -17.5168457 137.85766602 C-17.32992254 145.30799537 -17.18856131 152.75807621 -17.10234833 160.21022987 C-17.06092785 163.67233831 -17.00493753 167.13282118 -16.91333008 170.59399414 C-16.15257319 200.07608394 -16.15257319 200.07608394 -25.5168457 210.85766602 C-29.03330098 209.58731351 -31.73767117 208.13361142 -34.66137695 205.81079102 C-35.4212793 205.21266602 -36.18118164 204.61454102 -36.96411133 203.99829102 C-38.13490234 203.06243164 -38.13490234 203.06243164 -39.3293457 202.10766602 C-40.87699396 200.88303907 -42.4251674 199.65907553 -43.97387695 198.43579102 C-44.65426025 197.89341797 -45.33464355 197.35104492 -46.03564453 196.79223633 C-48.36925239 194.87717854 -48.36925239 194.87717854 -50.55265808 193.69740295 C-53.82551834 191.6797867 -56.12048831 190.22940127 -57.21867371 186.42874146 C-57.45641509 183.42720879 -57.44194929 180.51926072 -57.34106445 177.51000977 C-57.3395916 175.87582848 -57.3395916 175.87582848 -57.33808899 174.20863342 C-57.33116926 170.73600194 -57.27196997 167.26710663 -57.2043457 163.79516602 C-57.15263748 160.32013298 -57.11274701 156.84639993 -57.10273743 153.37098694 C-57.09509556 151.21159585 -57.06282866 149.05211777 -57.00309753 146.89353943 C-56.93395349 140.99015784 -56.93395349 140.99015784 -59.65966797 135.89013672 C-62.59759369 133.80022545 -65.51597292 131.8947547 -68.6574707 130.12329102 C-69.22512146 129.79979675 -69.79277222 129.47630249 -70.37762451 129.14300537 C-72.1698086 128.12354751 -73.96796504 127.11525162 -75.7668457 126.10766602 C-78.1485808 124.76138551 -80.52794207 123.41097299 -82.9074707 122.06079102 C-84.4857666 121.17375488 -84.4857666 121.17375488 -86.09594727 120.26879883 C-88.5168457 118.85766602 -88.5168457 118.85766602 -89.5168457 117.85766602 C-90.07917916 110.00723162 -89.12438856 102.25000784 -88.0793457 94.48266602 C-87.94463867 93.42950195 -87.80993164 92.37633789 -87.67114258 91.29125977 C-87.30545254 88.47633841 -86.93737962 85.66492129 -86.5168457 82.85766602 C-86.4552124 81.99874756 -86.3935791 81.1398291 -86.33007812 80.25488281 C-85.11671166 76.6781655 -83.01706072 75.93608027 -79.7512207 74.15063477 C-79.16197815 73.82154617 -78.5727356 73.49245758 -77.96563721 73.15339661 C-76.0744277 72.1012157 -74.17157738 71.07262967 -72.2668457 70.04516602 C-70.41550562 69.02794886 -68.56690257 68.00591212 -66.71887207 66.98269653 C-65.49146172 66.30355522 -64.26269932 65.62685168 -63.03259277 64.9526062 C-57.57093818 61.94189128 -52.29727195 58.66840224 -47.03735352 55.31982422 C-44.5168457 53.85766602 -44.5168457 53.85766602 -42.5168457 53.85766602 C-41.25059147 50.05890331 -41.28386023 46.43344676 -41.20043945 42.47094727 C-41.17965836 41.65393845 -41.15887726 40.83692963 -41.13746643 39.99516296 C-41.07211491 37.38691568 -41.01315297 34.77856826 -40.9543457 32.17016602 C-40.91114678 30.40127548 -40.86753205 28.63239504 -40.82348633 26.86352539 C-40.71644827 22.52834139 -40.61514027 18.19305672 -40.5168457 13.85766602 C-32.58379182 9.83000558 -24.65740303 5.87662667 -16.4543457 2.42016602 C-15.65319336 2.07018555 -14.85204102 1.72020508 -14.02661133 1.35961914 C-13.24866211 1.03026367 -12.47071289 0.7009082 -11.66918945 0.36157227 C-10.98848389 0.07096924 -10.30777832 -0.21963379 -9.60644531 -0.51904297 C-5.97291423 -1.60286174 -3.47386441 -1.57670109 0 0 Z " fill="#FDFEFE" transform="translate(295.516845703125,179.142333984375)"/>
<path d="M0 0 C0.33 0 0.66 0 1 0 C0.95550468 0.87418076 0.95550468 0.87418076 0.91011047 1.76602173 C0.61728062 7.89952636 0.46260877 14.02611813 0.38354492 20.16601562 C0.33667654 22.44791014 0.2560054 24.72939366 0.1394043 27.00878906 C-0.80950646 39.83834593 -0.80950646 39.83834593 3.80267334 51.35925293 C8.22640824 55.54150355 13.20424478 58.60114208 18.52279663 61.51483154 C21.95866657 63.57475352 24.89863017 66.1217086 27.89302063 68.77212524 C29.96849939 70.2513535 29.96849939 70.2513535 32.58517456 69.78514099 C35.65986132 68.78545689 38.14107968 67.31638531 40.89453125 65.62109375 C42.57579102 64.61079102 42.57579102 64.61079102 44.29101562 63.58007812 C46.05284656 62.51180423 47.81096694 61.43844926 49.56274414 60.35375977 C61.88425799 52.75569505 61.88425799 52.75569505 66.8737793 53.3137207 C72.28015149 55.05873302 77.12092003 58.01966378 82 60.875 C83.20451141 61.5652802 84.40959363 62.25456529 85.61523438 62.94287109 C89.09193703 64.93667591 92.54684308 66.96569404 96 69 C97.36898437 69.79760742 97.36898437 69.79760742 98.765625 70.61132812 C101.02167875 71.93155066 103.26440082 73.27049619 105.5 74.625 C106.13292969 75.00124512 106.76585937 75.37749023 107.41796875 75.76513672 C111.16001771 78.10391732 113.21942169 79.96481844 115 84 C115.44263044 87.66578575 115.42024533 91.30733441 115.3984375 94.99609375 C115.40274277 96.59554588 115.40274277 96.59554588 115.40713501 98.22731018 C115.40917364 100.47910087 115.40365789 102.73090935 115.39111328 104.98266602 C115.37507326 108.42179165 115.39096134 111.85973923 115.41015625 115.29882812 C115.40817347 117.48958592 115.40432909 119.68034298 115.3984375 121.87109375 C115.40451019 122.89625595 115.41058289 123.92141815 115.4168396 124.97764587 C115.36377523 130.38944863 115.10235883 134.3532662 112 139 C109.77734375 140.80859375 109.77734375 140.80859375 106.9375 142.4375 C105.803125 143.0975 104.66875 143.7575 103.5 144.4375 C102.48099609 145.01564453 102.48099609 145.01564453 101.44140625 145.60546875 C98.44616311 147.31635163 95.47397106 149.06490876 92.5 150.8125 C90.73809312 151.84349416 88.97540535 152.87313343 87.21218872 153.90188599 C86.03218407 154.59047398 84.85271676 155.27998366 83.67379761 155.97042847 C81.99259134 156.95293394 80.3069094 157.9277684 78.62109375 158.90234375 C77.14274048 159.76073853 77.14274048 159.76073853 75.63452148 160.63647461 C73.36549882 161.81083209 71.49448139 162.53641727 69 163 C68.92652344 164.27617187 68.92652344 164.27617187 68.8515625 165.578125 C68.37530384 173.29679975 67.75728078 180.99105449 67 188.6875 C66.9170166 189.54827148 66.8340332 190.40904297 66.74853516 191.29589844 C66.62551025 192.51647949 66.62551025 192.51647949 66.5 193.76171875 C66.4278125 194.48319092 66.355625 195.20466309 66.28125 195.94799805 C65.99737591 198.01914538 65.54484978 199.98320447 65 202 C61.93010008 200.88367275 59.45670237 199.65146945 56.6875 197.875 C52.70789679 195.50827563 49.55472713 195.68037003 45 196 C45.69490742 187.0645884 46.59067318 178.15918751 47.5625 169.25 C47.70107422 167.96867188 47.83964844 166.68734375 47.98242188 165.3671875 C48.32030865 162.24464763 48.65952393 159.12225841 49 156 C47.92782227 155.59249512 47.92782227 155.59249512 46.83398438 155.17675781 C41.8460887 153.10562953 37.21099705 150.37898337 32.5 147.75 C31.46746094 147.18925781 30.43492187 146.62851562 29.37109375 146.05078125 C28.37207031 145.49261719 27.37304688 144.93445313 26.34375 144.359375 C25.43818359 143.85889648 24.53261719 143.35841797 23.59960938 142.84277344 C20.4065364 140.57931412 17.73388676 138.53960613 16 135 C15.47645499 131.29275861 15.72851638 127.69559265 15.9609375 123.96875 C16.02247175 121.77355232 16.07962146 119.57822818 16.1328125 117.3828125 C16.23949732 113.94638673 16.37373296 110.5204896 16.5859375 107.08886719 C17.70091377 94.20284293 17.70091377 94.20284293 13.17623901 82.60443115 C8.70865654 78.36667337 3.68409729 75.24081261 -1.69911194 72.29660034 C-4.91061743 70.48684732 -7.75465743 68.35473333 -10.6875 66.125 C-12.12451934 65.08267034 -13.56178816 64.04068362 -15 63 C-12.30680255 60.15272947 -9.6228613 57.96517854 -6.3125 55.875 C-3.08003658 53.96574391 -3.08003658 53.96574391 -1 51 C-0.88127427 49.36664808 -0.82290908 47.72872646 -0.79467773 46.09130859 C-0.77473251 45.07040131 -0.75478729 44.04949402 -0.73423767 42.99765015 C-0.71752518 41.89240997 -0.70081268 40.7871698 -0.68359375 39.6484375 C-0.6524221 37.95468491 -0.6524221 37.95468491 -0.62062073 36.22671509 C-0.55508665 32.60954028 -0.49622226 28.99229119 -0.4375 25.375 C-0.39431846 22.92707556 -0.35070429 20.47915872 -0.30664062 18.03125 C-0.19940133 12.0209125 -0.09764213 6.01050065 0 0 Z " fill="#082C76" transform="translate(385,122)"/>
<path d="M0 0 C2.70629883 1.12646484 2.70629883 1.12646484 5.45703125 2.7109375 C6.47966064 3.29182129 7.50229004 3.87270508 8.5559082 4.47119141 C10.16792114 5.41357666 10.16792114 5.41357666 11.8125 6.375 C12.91875732 7.00970215 14.02501465 7.6444043 15.16479492 8.29833984 C17.39845623 9.58290973 19.62872984 10.87338941 21.85546875 12.16992188 C24.6560211 13.79980856 27.46588436 15.41152132 30.28125 17.015625 C31.79229244 17.88432909 33.30275685 18.7540398 34.8125 19.625 C35.49223877 20.01349121 36.17197754 20.40198242 36.87231445 20.80224609 C40.40306846 22.87135609 43.3791003 24.84585339 46 28 C46.50793457 30.49742126 46.50793457 30.49742126 46.51757812 33.33178711 C46.53018677 34.39646713 46.54279541 35.46114716 46.55578613 36.55809021 C46.54768921 37.70294388 46.53959229 38.84779755 46.53125 40.02734375 C46.5350769 41.20841202 46.53890381 42.38948029 46.54284668 43.6063385 C46.54556829 46.10369723 46.53818983 48.60108434 46.52148438 51.09838867 C46.5000993 54.91975584 46.52126995 58.73923865 46.546875 62.56054688 C46.5442314 64.98698332 46.53910575 67.41341859 46.53125 69.83984375 C46.53934692 70.98267319 46.54744385 72.12550262 46.55578613 73.30296326 C46.46294956 81.16533863 46.46294956 81.16533863 44.31152344 85.04418945 C41.80305359 87.16663896 39.34841785 88.83822121 36.484375 90.453125 C34.86547363 91.37629517 34.86547363 91.37629517 33.21386719 92.31811523 C32.07079102 92.95563721 30.92771484 93.59315918 29.75 94.25 C28.57151722 94.91469676 27.39345908 95.58014694 26.21582031 96.24633789 C23.88600547 97.56293539 21.55329366 98.87387745 19.21875 100.18212891 C16.43916388 101.75197101 13.68298553 103.35203007 10.9375 104.98046875 C10.21594727 105.40360352 9.49439453 105.82673828 8.75097656 106.26269531 C7.46114683 107.01997456 6.17619488 107.78565482 4.89746094 108.56152344 C1.0299818 110.79621286 -1.57296402 111.36814697 -6 111 C-8.73803711 109.85766602 -8.73803711 109.85766602 -11.52734375 108.25390625 C-13.07639404 107.37424194 -13.07639404 107.37424194 -14.65673828 106.47680664 C-15.73938965 105.84508545 -16.82204102 105.21336426 -17.9375 104.5625 C-19.6078833 103.61201782 -19.6078833 103.61201782 -21.31201172 102.64233398 C-26.1761061 99.86078372 -31.00075018 97.03623334 -35.73046875 94.03125 C-36.40279541 93.6077124 -37.07512207 93.1841748 -37.76782227 92.74780273 C-39.4961132 91.64475916 -41.20593541 90.51292412 -42.9140625 89.37890625 C-47.6883884 87.24556822 -51.50756729 88.46049239 -56.31738281 90.19921875 C-57.9933252 90.93591797 -57.9933252 90.93591797 -59.703125 91.6875 C-60.3075946 91.95006592 -60.91206421 92.21263184 -61.53485107 92.4831543 C-63.44351627 93.31410923 -65.34680421 94.1566041 -67.25 95 C-69.16852825 95.84080078 -71.088085 96.67920684 -73.00799561 97.5168457 C-74.74047168 98.27418309 -76.47040513 99.03732911 -78.20019531 99.80078125 C-81 101 -81 101 -84 102 C-84.03738281 100.90300781 -84.07476562 99.80601562 -84.11328125 98.67578125 C-84.17896653 97.22132143 -84.24541299 95.76689584 -84.3125 94.3125 C-84.33505859 93.59126953 -84.35761719 92.87003906 -84.38085938 92.12695312 C-84.41630859 91.42119141 -84.45175781 90.71542969 -84.48828125 89.98828125 C-84.51446533 89.34415283 -84.54064941 88.70002441 -84.56762695 88.03637695 C-85.14767367 85.30449122 -86.48558531 83.32186746 -88 81 C-84.00092112 79.17900112 -79.99898698 77.36447253 -75.99438477 75.55566406 C-74.63487483 74.94053624 -73.2761349 74.32370346 -71.91821289 73.70507812 C-69.95663396 72.81181413 -67.99228924 71.92489205 -66.02734375 71.0390625 C-64.84906006 70.50490723 -63.67077637 69.97075195 -62.45678711 69.42041016 C-58.9835387 67.99323597 -55.62379045 66.95906012 -52 66 C-52.05498657 64.32043213 -52.05498657 64.32043213 -52.11108398 62.60693359 C-52.23817422 58.43643654 -52.31828329 54.26610894 -52.38452148 50.09423828 C-52.41963692 48.29186179 -52.46734303 46.48968348 -52.52807617 44.68798828 C-52.6134005 42.09097391 -52.65277328 39.49660185 -52.68359375 36.8984375 C-52.71972275 36.0982016 -52.75585175 35.2979657 -52.79307556 34.47348022 C-52.79538918 31.14631597 -52.71679792 28.90812578 -50.6118927 26.24137878 C-47.04214348 23.07096757 -43.02159701 20.65221893 -38.83203125 18.37890625 C-37.69056641 17.75306641 -36.54910156 17.12722656 -35.37304688 16.48242188 C-34.18639756 15.84207781 -32.99954795 15.20210478 -31.8125 14.5625 C-29.4849823 13.294243 -27.15815441 12.02471918 -24.83203125 10.75390625 C-23.69459473 10.13789551 -22.5571582 9.52188477 -21.38525391 8.88720703 C-17.07794283 6.48597274 -12.89298542 3.90078645 -8.7253418 1.26538086 C-5.48564842 -0.23881432 -3.53790087 -0.42342972 0 0 Z " fill="#072B75" transform="translate(339,91)"/>
<path d="M0 0 C3.12695312 1.32592773 3.12695312 1.32592773 6.28125 3.18359375 C6.85299957 3.51471161 7.42474915 3.84582947 8.01382446 4.1869812 C9.85147305 5.25603104 11.67563407 6.34596548 13.5 7.4375 C14.75825351 8.17656451 16.01720843 8.91443615 17.27685547 9.65112305 C19.74418095 11.09760837 22.20602882 12.55274416 24.66308594 14.01660156 C27.46610939 15.68266554 30.27874928 17.32876196 33.1015625 18.9609375 C42.71295078 24.56942617 42.71295078 24.56942617 45 28 C45.27415466 30.37716675 45.27415466 30.37716675 45.30639648 33.21826172 C45.32238388 34.28301727 45.33837128 35.34777283 45.35484314 36.4447937 C45.36020584 37.59480865 45.36556854 38.74482361 45.37109375 39.9296875 C45.38012222 41.11217072 45.3891507 42.29465393 45.39845276 43.51296997 C45.41297072 46.01627057 45.42184581 48.51960924 45.42553711 51.02294922 C45.43743227 54.85318946 45.48660574 58.6818187 45.53710938 62.51171875 C45.5465734 64.94270046 45.55380853 67.37369208 45.55859375 69.8046875 C45.57812607 70.95065399 45.59765839 72.09662048 45.61778259 73.27731323 C45.5727467 81.21385383 45.5727467 81.21385383 42.7590332 85.07592773 C37.79776045 88.53578001 37.79776045 88.53578001 35.296875 89.98046875 C34.40709961 90.50036377 33.51732422 91.02025879 32.60058594 91.5559082 C31.1895459 92.36354614 31.1895459 92.36354614 29.75 93.1875 C27.7704278 94.33002682 25.79126557 95.47326423 23.8125 96.6171875 C22.83152344 97.18276367 21.85054688 97.74833984 20.83984375 98.33105469 C18.23366814 99.86267577 15.67451552 101.44664018 13.125 103.0703125 C12.3815332 103.53542236 11.63806641 104.00053223 10.87207031 104.47973633 C9.50635969 105.33746922 8.1504946 106.21119068 6.80761719 107.10424805 C1.65566988 110.28786334 -3.01413158 111.16817911 -9 110 C-12.78404922 108.42694835 -16.12683225 106.34570471 -19.5625 104.125 C-21.4879232 102.93041229 -23.41370894 101.73640874 -25.33984375 100.54296875 C-26.28843262 99.94532715 -27.23702148 99.34768555 -28.21435547 98.73193359 C-32.9730888 95.773261 -37.84753062 93.01307087 -42.72094727 90.24853516 C-46.94262587 87.7990174 -50.76906651 85.46186698 -53 81 C-53.11553689 79.36772933 -53.1695231 77.73091456 -53.19287109 76.09472656 C-53.20893402 75.07316467 -53.22499695 74.05160278 -53.24154663 72.99908447 C-53.28597741 68.32003402 -53.32706881 63.64112616 -53.35009766 58.96191406 C-53.36665182 56.49437017 -53.39393434 54.02687412 -53.43212891 51.55957031 C-53.4869113 48.00300194 -53.50877575 44.44755856 -53.5234375 40.890625 C-53.54610687 39.7904303 -53.56877625 38.6902356 -53.59213257 37.55670166 C-53.56855868 29.00262751 -53.56855868 29.00262751 -50.80444336 25.46508789 C-48.14612597 23.1284438 -45.71201392 21.35014758 -42.60546875 19.66796875 C-41.57470215 19.10094238 -40.54393555 18.53391602 -39.48193359 17.94970703 C-37.85118896 17.07741455 -37.85118896 17.07741455 -36.1875 16.1875 C-33.93325798 14.96025196 -31.67935176 13.73238693 -29.42578125 12.50390625 C-28.32830566 11.90980957 -27.23083008 11.31571289 -26.10009766 10.70361328 C-23.38371924 9.21086729 -20.70666515 7.67403921 -18.04296875 6.08984375 C-17.32665283 5.66743408 -16.61033691 5.24502441 -15.87231445 4.80981445 C-14.58687328 4.04728591 -13.30746558 3.27444409 -12.03588867 2.48901367 C-7.80702001 0.01586202 -4.84659832 -0.38296409 0 0 Z " fill="#062B75" transform="translate(438,317)"/>
<path d="M0 0 C3.17751198 1.3153281 6.09790015 2.95066969 9.0625 4.6875 C9.91650391 5.17428223 10.77050781 5.66106445 11.65039062 6.16259766 C13.47961527 7.20999765 15.30453542 8.26494445 17.12548828 9.32666016 C20.09233687 11.05375207 23.07443048 12.75224784 26.05859375 14.44921875 C28.03999878 15.58952048 30.02049026 16.7314113 32 17.875 C32.937229 18.40955811 33.87445801 18.94411621 34.84008789 19.49487305 C35.71785889 20.00961182 36.59562988 20.52435059 37.5 21.0546875 C38.2734375 21.50312012 39.046875 21.95155273 39.84375 22.41357422 C42.68546249 24.50431785 44.21850393 25.89223775 46 29 C46.60405163 32.96753322 46.58418661 36.89904356 46.56640625 40.90625 C46.57260483 42.06370728 46.57880341 43.22116455 46.58518982 44.41369629 C46.59228572 46.85798299 46.58911808 49.30231804 46.57641602 51.74658203 C46.56254855 55.48690647 46.59663133 59.22473047 46.63476562 62.96484375 C46.6357168 65.34114645 46.63385808 67.71745227 46.62890625 70.09375 C46.64216446 71.2115686 46.65542267 72.32938721 46.66908264 73.4810791 C46.57654581 81.1936468 46.57654581 81.1936468 43.84765625 85.01025391 C40.89090128 87.07623067 37.9568101 88.97888306 34.80859375 90.7421875 C34.22263931 91.07364777 33.63668488 91.40510803 33.03297424 91.74661255 C31.17206247 92.79717929 29.30510669 93.83639065 27.4375 94.875 C25.60361071 95.90496933 23.77104258 96.93725045 21.93887329 97.97027588 C20.72895481 98.65046274 19.51718 99.32735826 18.30355835 100.00091553 C15.38562608 101.62512744 12.53478165 103.29176929 9.70361328 105.06738281 C-0.25587761 111.28952034 -0.25587761 111.28952034 -7 110 C-10.22274437 108.71753948 -13.14363488 107.07731211 -16.125 105.3125 C-16.97376709 104.82644287 -17.82253418 104.34038574 -18.69702148 103.83959961 C-20.51511123 102.79376355 -22.32838758 101.73952324 -24.13720703 100.67773438 C-27.10959651 98.93577117 -30.0983343 97.22451465 -33.08984375 95.515625 C-35.08164212 94.36616386 -37.07254941 93.21515707 -39.0625 92.0625 C-40.00818848 91.51956299 -40.95387695 90.97662598 -41.92822266 90.41723633 C-43.24959229 89.64029419 -43.24959229 89.64029419 -44.59765625 88.84765625 C-45.37633057 88.39398682 -46.15500488 87.94031738 -46.95727539 87.47290039 C-49.25681684 85.814823 -50.49827077 84.40648271 -52 82 C-52.39440918 79.50257874 -52.39440918 79.50257874 -52.41992188 76.66821289 C-52.43583374 75.60353287 -52.45174561 74.53885284 -52.46813965 73.44190979 C-52.46834106 72.29705612 -52.46854248 71.15220245 -52.46875 69.97265625 C-52.47636353 68.79158798 -52.48397705 67.61051971 -52.49182129 66.3936615 C-52.50262514 63.89633295 -52.50547426 61.3989592 -52.50097656 58.90161133 C-52.50000448 55.08012569 -52.54162237 51.26064872 -52.5859375 47.43945312 C-52.59114458 45.01302502 -52.59383269 42.58658994 -52.59375 40.16015625 C-52.61014526 39.01732681 -52.62654053 37.87449738 -52.64343262 36.69703674 C-52.57469229 28.80882377 -52.57469229 28.80882377 -49.84985352 24.97387695 C-46.88880004 22.92298024 -43.95241407 21.01865474 -40.80859375 19.2578125 C-40.22263931 18.92635223 -39.63668488 18.59489197 -39.03297424 18.25338745 C-37.17206247 17.20282071 -35.30510669 16.16360935 -33.4375 15.125 C-31.60354921 14.09499613 -29.770919 13.06267932 -27.93862915 12.02972412 C-26.72936895 11.34981601 -25.5184103 10.67291969 -24.30575562 9.99908447 C-21.38106374 8.36956295 -18.51492375 6.69898683 -15.66845703 4.93261719 C-5.68248648 -1.25161952 -5.68248648 -1.25161952 0 0 Z " fill="#062B75" transform="translate(209,148)"/>
<path d="M0 0 C4.08816149 0.68064227 8.11559608 1.39531115 12.14453125 2.3671875 C12.85673828 2.52445312 13.56894531 2.68171875 14.30273438 2.84375 C26.48718637 5.72109561 26.48718637 5.72109561 29.95483398 10.24511719 C31.00048118 12.16574565 31.86825619 14.09793185 32.70703125 16.1171875 C33.36743184 17.5601759 34.03418926 19.00027068 34.70703125 20.4375 C35.03703125 21.14680664 35.36703125 21.85611328 35.70703125 22.58691406 C40.02862373 31.36092847 46.42382863 39.1796844 52.70703125 46.6171875 C53.42890625 47.47441406 54.15078125 48.33164062 54.89453125 49.21484375 C59.15465841 54.11842762 63.50733802 58.2466099 68.7265625 62.109375 C71.28713828 64.0588469 73.43250593 66.34266218 75.70703125 68.6171875 C87.40260561 79.34618547 102.01761276 86.20123222 116.546875 92.2421875 C119.70703125 93.6171875 119.70703125 93.6171875 122.70703125 95.6171875 C119.40844808 96.60258268 116.407355 96.75226339 112.97163391 96.77108765 C111.21592323 96.78398834 111.21592323 96.78398834 109.42474365 96.79714966 C107.50386932 96.80353958 107.50386932 96.80353958 105.54418945 96.81005859 C104.1789072 96.81796427 102.81362702 96.82623351 101.448349 96.83483887 C96.96819032 96.86100663 92.48802254 96.87636195 88.0078125 96.890625 C86.46270429 96.89598697 84.91759613 96.90136448 83.37248802 96.90675735 C76.94287201 96.928379 70.51325845 96.9471138 64.0836153 96.95837975 C54.88407024 96.9746078 45.68494823 97.00776558 36.48556262 97.06478059 C30.00896181 97.1035454 23.53247383 97.12302018 17.05576009 97.12830031 C13.19157074 97.13194505 9.32783315 97.14387182 5.46376991 97.17640305 C1.82498172 97.20659938 -1.81308411 97.21275512 -5.45197105 97.20101929 C-7.41239588 97.20069529 -9.3727769 97.22508409 -11.33303833 97.25039673 C-19.78211139 97.19106441 -25.81504706 95.77334684 -32.10181713 89.93831444 C-37.0416209 84.77684041 -40.41707053 78.30937345 -40.79296875 71.1171875 C-39.96565468 56.50130564 -26.57244147 40.2469717 -19.24584961 28.01245117 C-16.48187878 23.38672578 -13.79638861 18.74411357 -11.26171875 13.98828125 C-10.78138184 13.10438721 -10.30104492 12.22049316 -9.80615234 11.30981445 C-8.90150397 9.63654907 -8.01781318 7.95172898 -7.15869141 6.25463867 C-4.16536072 0.78069631 -4.16536072 0.78069631 0 0 Z " fill="#92B1F3" transform="translate(270.29296875,432.3828125)"/>
<path d="M0 0 C2.2875096 2.92975222 4.19978792 5.94000365 6.046875 9.1640625 C6.93306519 10.70562012 6.93306519 10.70562012 7.8371582 12.27832031 C8.78401489 13.93492676 8.78401489 13.93492676 9.75 15.625 C10.74885998 17.36743523 11.74772721 19.10986634 12.74702454 20.85205078 C13.43865458 22.05792466 14.12996502 23.26398189 14.82096863 24.47021484 C17.27800595 28.75534202 19.76046207 33.02503824 22.25390625 37.2890625 C22.94125043 38.46783726 23.62842732 39.64670959 24.31542969 40.82568359 C25.62315569 43.06800205 26.93485746 45.30800768 28.25097656 47.54541016 C28.84491211 48.56683105 29.43884766 49.58825195 30.05078125 50.640625 C30.83449097 51.97915527 30.83449097 51.97915527 31.6340332 53.34472656 C34.7891969 59.47798132 36.06943955 65.18232288 35 72 C32.57815596 79.06964768 29.25006421 84.62495039 23.3203125 89.20703125 C17.01753673 91.36101018 11.04512622 88.40423413 5.38867188 85.71289062 C4.49728516 85.27138672 3.60589844 84.82988281 2.6875 84.375 C1.29047852 83.6934082 1.29047852 83.6934082 -0.13476562 82.99804688 C-13.70069038 76.28628424 -26.36423113 67.83043353 -37 57 C-38.21830435 55.94564965 -39.44688986 54.903011 -40.6875 53.875 C-53.50026818 42.66982633 -72.58538548 21.5875301 -75 4 C-73.82244141 4.30744141 -73.82244141 4.30744141 -72.62109375 4.62109375 C-71.57050781 4.89050781 -70.51992188 5.15992188 -69.4375 5.4375 C-68.40496094 5.70433594 -67.37242187 5.97117187 -66.30859375 6.24609375 C-58.38582416 8.05140016 -50.71702007 8.1831117 -42.625 8.1875 C-40.85382813 8.20586914 -40.85382813 8.20586914 -39.046875 8.22460938 C-32.40991118 8.23569562 -26.38168166 7.85443027 -20 6 C-18.85273438 5.67 -17.70546875 5.34 -16.5234375 5 C-15.48445313 4.67 -14.44546875 4.34 -13.375 4 C-8.93117868 2.60381698 -4.48636501 1.25200884 0 0 Z " fill="#D1DBFC" transform="translate(374,437)"/>
<path d="M0 0 C2.86079647 1.39797306 5.60454876 2.90827143 8.35253906 4.51733398 C9.41472656 5.13801758 10.47691406 5.75870117 11.57128906 6.39819336 C12.66957031 7.0446582 13.76785156 7.69112305 14.89941406 8.35717773 C16.01316406 9.00750977 17.12691406 9.6578418 18.27441406 10.32788086 C26.50630379 15.15156746 26.50630379 15.15156746 27.64941406 16.29467773 C28.03716702 20.90450641 28.13455042 25.51539912 28.21923828 30.13964844 C28.25582381 31.69291476 28.31032407 33.24586923 28.38330078 34.79785156 C28.9763798 47.60371206 28.9763798 47.60371206 25.92456055 51.49267578 C23.57137611 53.08206913 21.25991668 54.18404294 18.64941406 55.29467773 C17.10301422 56.21218456 15.56751883 57.14833956 14.04394531 58.10327148 C12.51885145 58.98348337 10.99150426 59.85980276 9.46191406 60.73217773 C8.69427734 61.19043945 7.92664063 61.64870117 7.13574219 62.12084961 C6.38357422 62.54817383 5.63140625 62.97549805 4.85644531 63.41577148 C4.19104736 63.80176514 3.52564941 64.18775879 2.84008789 64.58544922 C-1.23842236 65.90586294 -4.46572492 64.7212547 -8.21899414 62.91186523 C-9.6705188 62.04948242 -9.6705188 62.04948242 -11.15136719 61.16967773 C-12.21033203 60.54577148 -13.26929688 59.92186523 -14.36035156 59.27905273 C-15.45025391 58.62420898 -16.54015625 57.96936523 -17.66308594 57.29467773 C-18.77232422 56.63983398 -19.8815625 55.98499023 -21.02441406 55.31030273 C-29.1539224 50.49134127 -29.1539224 50.49134127 -30.35058594 49.29467773 C-30.83539472 44.7230419 -31.00695181 40.15347756 -31.14013672 35.55957031 C-31.19668484 34.01936097 -31.27836674 32.47985083 -31.38623047 30.94238281 C-31.74057764 25.79435162 -31.77131564 21.28887716 -30.35058594 16.29467773 C-26.51397229 12.47487291 -22.24923247 10.49256981 -17.35058594 8.29467773 C-15.87181308 7.38706394 -14.40904379 6.45197995 -12.97558594 5.47436523 C-11.76726005 4.70612435 -10.55892708 3.93789462 -9.35058594 3.16967773 C-8.73570312 2.75975586 -8.12082031 2.34983398 -7.48730469 1.92749023 C-2.97632125 -0.89308185 -2.97632125 -0.89308185 0 0 Z " fill="#FA8D02" transform="translate(337.3505859375,113.705322265625)"/>
<path d="M0 0 C2.82275391 0.74609375 2.82275391 0.74609375 6 2 C6.95181152 2.32097656 7.90362305 2.64195312 8.88427734 2.97265625 C16.85658363 5.91627703 24.53865472 9.28766249 30 16 C34.1231712 25.0290492 33.692857 36.81076404 31.40673828 46.28613281 C28.61846544 53.64732796 23.15448627 56.66330294 16.27099609 59.84204102 C14.39502106 60.61041054 12.50118238 61.33764404 10.5871582 62.00561523 C7.9126867 62.92443389 7.9126867 62.92443389 5.48120117 64.68383789 C3 66 3 66 0.57348633 65.89868164 C-2.58938435 64.79418236 -5.28430518 63.31609696 -8.17578125 61.62109375 C-9.74066284 60.71121704 -9.74066284 60.71121704 -11.3371582 59.78295898 C-12.649021 59.00895752 -13.96088379 58.23495605 -15.3125 57.4375 C-19.499375 54.983125 -23.68625 52.52875 -28 50 C-28 38.78 -28 27.56 -28 16 C-15.6875 9.125 -15.6875 9.125 -11.81518555 6.96533203 C-10.8075415 6.40185059 -9.79989746 5.83836914 -8.76171875 5.2578125 C-7.73006592 4.6817627 -6.69841309 4.10571289 -5.63549805 3.51220703 C-3.7156323 2.41061848 -1.84170566 1.22780377 0 0 Z " fill="#FA7C9F" transform="translate(433,339)"/>
<path d="M0 0 C0.80099121 0.46011475 1.60198242 0.92022949 2.42724609 1.39428711 C3.30082764 1.85778564 4.17440918 2.32128418 5.07446289 2.79882812 C5.99912354 3.32661865 6.92378418 3.85440918 7.87646484 4.39819336 C8.88902344 4.97375977 9.90158203 5.54932617 10.94482422 6.14233398 C12.51393555 7.04048828 12.51393555 7.04048828 14.11474609 7.95678711 C16.20179048 9.14593184 18.28902061 10.33475067 20.37646484 11.52319336 C21.2977417 12.04985596 22.21901855 12.57651855 23.16821289 13.11914062 C24.56987231 13.91032912 25.98762715 14.67447764 27.42724609 15.39428711 C27.42724609 26.61428711 27.42724609 37.83428711 27.42724609 49.39428711 C16.23974609 55.70678711 16.23974609 55.70678711 12.73901367 57.68066406 C11.81757568 58.20104248 10.8961377 58.7214209 9.94677734 59.25756836 C9.00938721 59.78648682 8.07199707 60.31540527 7.10620117 60.86035156 C4.3997767 62.36525728 4.3997767 62.36525728 1.83227539 64.15283203 C-0.57275391 65.39428711 -0.57275391 65.39428711 -2.63232422 65.21362305 C-4.70610653 64.33797968 -6.65462238 63.3848331 -8.61962891 62.28491211 C-9.76431641 61.64682617 -9.76431641 61.64682617 -10.93212891 60.99584961 C-12.11548828 60.32682617 -12.11548828 60.32682617 -13.32275391 59.64428711 C-14.09619141 59.21374023 -14.86962891 58.78319336 -15.66650391 58.33959961 C-17.22070839 57.46861925 -18.76264852 56.57539017 -20.29150391 55.66064453 C-22.52564231 54.33893024 -22.52564231 54.33893024 -24.91650391 53.55957031 C-27.57108321 52.46143816 -28.85040258 51.7195178 -30.57275391 49.39428711 C-31.58293111 43.59960084 -31.32436189 37.9370135 -31.07275391 32.08178711 C-31.03260592 30.46664023 -30.99610739 28.85139824 -30.96337891 27.23608398 C-30.87540436 23.28646688 -30.73749487 19.34141731 -30.57275391 15.39428711 C-26.6901801 13.05553394 -22.79441563 10.74127488 -18.88452148 8.44848633 C-17.55673468 7.66533695 -16.23277894 6.87565387 -14.9128418 6.0793457 C-13.01363256 4.93510606 -11.10183892 3.81514905 -9.18603516 2.69897461 C-8.30604607 2.15852005 -8.30604607 2.15852005 -7.40827942 1.60714722 C-4.6495519 0.02892486 -3.15298581 -0.74231902 0 0 Z " fill="#AFD752" transform="translate(207.57275390625,170.605712890625)"/>
<path d="M0 0 C1.37086527 0.65939499 2.71947302 1.36635594 4.046875 2.109375 C4.81 2.53476563 5.573125 2.96015625 6.359375 3.3984375 C7.14828125 3.84445313 7.9371875 4.29046875 8.75 4.75 C9.5234375 5.18054688 10.296875 5.61109375 11.09375 6.0546875 C12.64893161 6.92621545 14.19276724 7.81829781 15.72460938 8.73022461 C17.9501676 10.0454308 17.9501676 10.0454308 20.29101562 10.86547852 C22.85788192 11.97587427 24.21859737 12.82254853 26 15 C27.64542449 20.46010669 27.94000668 25.75982207 28 31.4375 C28.0265416 32.59342651 28.0265416 32.59342651 28.05361938 33.77270508 C28.1052644 40.49236438 27.97072204 46.53464603 23.65771484 51.93017578 C17.90848492 56.55545283 11.45011135 59.51776174 4.54370117 62.02734375 C1.8163661 62.96285426 1.8163661 62.96285426 -1 65 C-5.15699385 64.67956143 -8.1551888 62.97156117 -11.703125 60.875 C-12.7653125 60.25109375 -13.8275 59.6271875 -14.921875 58.984375 C-16.02015625 58.32953125 -17.1184375 57.6746875 -18.25 57 C-19.36375 56.34515625 -20.4775 55.6903125 -21.625 55.015625 C-29.8234747 50.1765253 -29.8234747 50.1765253 -31 49 C-31.48516062 44.28579428 -31.6563933 39.57348452 -31.78955078 34.83764648 C-31.84611032 33.24896996 -31.92780102 31.66097194 -32.03564453 30.07495117 C-32.38818613 24.79069518 -32.42583589 20.13320638 -31 15 C-27.16906918 11.13499792 -22.94542213 9.1579301 -18 7 C-16.58661505 6.17165397 -15.18546336 5.32131231 -13.80859375 4.43359375 C-12.69613281 3.77488281 -11.58367187 3.11617187 -10.4375 2.4375 C-9.57415039 1.90672852 -9.57415039 1.90672852 -8.69335938 1.36523438 C-5.28848578 -0.6291047 -3.71322951 -1.28982172 0 0 Z " fill="#D0DBFC" transform="translate(453,199)"/>
<path d="M0 0 C1.21042969 0.66104736 1.21042969 0.66104736 2.4453125 1.33544922 C3.35966064 1.65642578 4.27400879 1.97740234 5.21606445 2.30810547 C13.18344257 5.23417506 21.07219139 8.54309865 26.4453125 15.33544922 C28.66094148 20.92934211 28.62005694 26.90259535 28.5078125 32.83544922 C28.50232895 33.97989502 28.50232895 33.97989502 28.49673462 35.14746094 C28.2833153 47.16981408 28.2833153 47.16981408 24.60180664 51.50756836 C22.28733947 53.07566081 19.99782846 54.20228416 17.4453125 55.33544922 C15.96984396 56.25065615 14.50707823 57.1867009 13.05859375 58.14404297 C11.62660701 59.02296865 10.19301788 59.89928916 8.7578125 60.77294922 C8.03787109 61.23121094 7.31792969 61.68947266 6.57617188 62.16162109 C5.86912109 62.58894531 5.16207031 63.01626953 4.43359375 63.45654297 C3.81009033 63.84253662 3.18658691 64.22853027 2.54418945 64.6262207 C-1.46802695 65.98198302 -4.72919201 64.73340704 -8.4230957 62.95263672 C-9.87462036 62.09025391 -9.87462036 62.09025391 -11.35546875 61.21044922 C-12.41443359 60.58654297 -13.47339844 59.96263672 -14.56445312 59.31982422 C-15.65435547 58.66498047 -16.74425781 58.01013672 -17.8671875 57.33544922 C-18.97642578 56.68060547 -20.08566406 56.02576172 -21.22851562 55.35107422 C-29.35802397 50.53211275 -29.35802397 50.53211275 -30.5546875 49.33544922 C-30.64316493 46.81450845 -30.66996051 44.32114029 -30.65234375 41.80029297 C-30.6509288 41.04704239 -30.64951385 40.29379181 -30.64805603 39.51771545 C-30.64244126 37.10275362 -30.62988633 34.68788321 -30.6171875 32.27294922 C-30.6121744 30.63948701 -30.60761116 29.00602336 -30.60351562 27.37255859 C-30.59246704 23.36015337 -30.57519256 19.34781681 -30.5546875 15.33544922 C-26.67211369 12.99669605 -22.77634923 10.68243699 -18.86645508 8.38964844 C-17.53866827 7.60649906 -16.21471254 6.81681598 -14.89477539 6.02050781 C-12.99556615 4.87626817 -11.08377251 3.75631116 -9.16796875 2.64013672 C-8.28797966 2.09968216 -8.28797966 2.09968216 -7.39021301 1.54830933 C-4.61590646 -0.03882554 -3.15868472 -0.82166856 0 0 Z " fill="#FBCA50" transform="translate(191.5546875,311.66455078125)"/>
<path d="M0 0 C24.09 0 48.18 0 73 0 C73 6.27 73 12.54 73 19 C48.91 19 24.82 19 0 19 C0 12.73 0 6.46 0 0 Z " fill="#92B1F3" transform="translate(284,278)"/>
<path d="M0 0 C0.33 0 0.66 0 1 0 C0.95550468 0.87418076 0.95550468 0.87418076 0.91011047 1.76602173 C0.61728062 7.89952636 0.46260877 14.02611813 0.38354492 20.16601562 C0.33667654 22.44791014 0.2560054 24.72939366 0.1394043 27.00878906 C-0.81293227 39.86564505 -0.81293227 39.86564505 3.8399353 51.39349365 C8.31102766 55.61821884 13.33112612 58.75040806 18.70414734 61.7013855 C21.91055939 63.51504422 24.75591658 65.64766 27.6875 67.875 C29.12451934 68.91732966 30.56178816 69.95931638 32 71 C28.53588767 73.66106811 24.91771735 75.98649906 21.21875 78.3046875 C18.6690328 80.25288691 16.91213343 82.4360029 15 85 C14.48203857 84.61779297 13.96407715 84.23558594 13.43041992 83.84179688 C-0.75273129 73.37710379 -0.75273129 73.37710379 -15 63 C-12.30680255 60.15272947 -9.6228613 57.96517854 -6.3125 55.875 C-3.08003658 53.96574391 -3.08003658 53.96574391 -1 51 C-0.88127427 49.36664808 -0.82290908 47.72872646 -0.79467773 46.09130859 C-0.77473251 45.07040131 -0.75478729 44.04949402 -0.73423767 42.99765015 C-0.71752518 41.89240997 -0.70081268 40.7871698 -0.68359375 39.6484375 C-0.6524221 37.95468491 -0.6524221 37.95468491 -0.62062073 36.22671509 C-0.55508665 32.60954028 -0.49622226 28.99229119 -0.4375 25.375 C-0.39431846 22.92707556 -0.35070429 20.47915872 -0.30664062 18.03125 C-0.19940133 12.0209125 -0.09764213 6.01050065 0 0 Z " fill="#6C6AF3" transform="translate(385,122)"/>
<path d="M0 0 C0.02578125 1.09699219 0.0515625 2.19398438 0.078125 3.32421875 C0.1344269 4.77868448 0.19177377 6.23311003 0.25 7.6875 C0.26417969 8.40873047 0.27835937 9.12996094 0.29296875 9.87304688 C0.5177738 14.79627744 1.40707253 17.35677155 5 21 C4.34 21.24492187 3.68 21.48984375 3 21.7421875 C-8.78920483 26.19384037 -20.38287133 31.12106162 -32 36 C-32.03738281 34.90300781 -32.07476562 33.80601562 -32.11328125 32.67578125 C-32.17896653 31.22132143 -32.24541299 29.76689584 -32.3125 28.3125 C-32.34633789 27.2306543 -32.34633789 27.2306543 -32.38085938 26.12695312 C-32.41630859 25.42119141 -32.45175781 24.71542969 -32.48828125 23.98828125 C-32.52755737 23.02208862 -32.52755737 23.02208862 -32.56762695 22.03637695 C-33.14767367 19.30449122 -34.48558531 17.32186746 -36 15 C-31.96209292 13.18391512 -27.92358313 11.36917918 -23.88452148 9.55566406 C-22.51196113 8.93916824 -21.13956308 8.32231093 -19.76733398 7.70507812 C-17.78933087 6.81544306 -15.81073827 5.92713066 -13.83203125 5.0390625 C-12.64327393 4.50490723 -11.4545166 3.97075195 -10.22973633 3.42041016 C-2.45238914 0 -2.45238914 0 0 0 Z " fill="#6965F6" transform="translate(287,157)"/>
<path d="M0 0 C1.16015625 0.63228516 1.16015625 0.63228516 2.34375 1.27734375 C3.90609375 2.09912109 3.90609375 2.09912109 5.5 2.9375 C6.5209375 3.48277344 7.541875 4.02804688 8.59375 4.58984375 C12.54086126 6.2239116 15.76124179 6.63601968 20 7 C18.71183961 20.00493838 17.38185531 33.00467981 16 46 C15.05898437 45.50628906 14.11796875 45.01257813 13.1484375 44.50390625 C11.8908464 43.85634068 10.63302136 43.20922929 9.375 42.5625 C8.75753906 42.23701172 8.14007813 41.91152344 7.50390625 41.57617188 C3.66714389 39.61740372 0.28256092 38.46778742 -4 38 C-3.50475113 29.39830902 -2.83943315 20.82498868 -2 12.25 C-1.9170166 11.38084961 -1.8340332 10.51169922 -1.74853516 9.61621094 C-1.62551025 8.3907959 -1.62551025 8.3907959 -1.5 7.140625 C-1.4278125 6.41391602 -1.355625 5.68720703 -1.28125 4.93847656 C-1 3 -1 3 0 0 Z " fill="#6865F6" transform="translate(190,251)"/>
<path d="M0 0 C3.03571143 1.15326005 5.5330985 2.33192925 8.3125 4.0625 C12.16530646 6.34533026 15.56584393 6.68883115 20 7 C19.48257218 15.22437897 18.80455273 23.42423433 18 31.625 C17.9170166 32.48963867 17.8340332 33.35427734 17.74853516 34.24511719 C17.62551025 35.47343262 17.62551025 35.47343262 17.5 36.7265625 C17.4278125 37.45439941 17.355625 38.18223633 17.28125 38.93212891 C16.99869673 41.00958223 16.54706631 42.97756423 16 45 C12.93010008 43.88367275 10.45670237 42.65146945 7.6875 40.875 C3.70789679 38.50827563 0.55472713 38.68037003 -4 39 C-3.32343391 30.22783168 -2.42936471 21.49169758 -1.4375 12.75 C-1.29892578 11.51636719 -1.16035156 10.28273438 -1.01757812 9.01171875 C-0.67991005 6.00763726 -0.34069305 3.00373966 0 0 Z " fill="#6865F6" transform="translate(434,279)"/>
<path d="M0 0 C6.57963288 4.18240229 12.74300003 8.80546276 18.890625 13.5859375 C22.56129286 16.43577763 26.27369418 19.22353684 30 22 C28.00575257 23.51580691 26.00762827 24.99486171 23.9296875 26.39453125 C19.50892918 29.44535876 17.05530026 31.45967361 16 37 C9.54635687 32.79084884 3.30447656 28.35049359 -2.875 23.75 C-4.53862676 22.5150378 -6.20267114 21.28063792 -7.8671875 20.046875 C-8.59019043 19.50901367 -9.31319336 18.97115234 -10.05810547 18.41699219 C-11.67591455 17.23648377 -13.3336323 16.1109118 -15 15 C-15 14.34 -15 13.68 -15 13 C-12.953125 11.66796875 -12.953125 11.66796875 -10.25 10.1875 C-5.56182758 7.47538894 -2.45554004 4.91108009 0 0 Z " fill="#6865F6" transform="translate(239,368)"/>
<path d="M0 0 C0.33 0 0.66 0 1 0 C1.15855469 0.81339844 1.31710937 1.62679688 1.48046875 2.46484375 C2.89857659 9.43002534 4.55324916 16.24648579 6.5625 23.0625 C6.77221436 23.77591553 6.98192871 24.48933105 7.19799805 25.22436523 C8.07359028 28.14219943 8.99552428 30.98909137 10.15234375 33.80859375 C11 36 11 36 11 39 C10.49855469 38.82984375 9.99710937 38.6596875 9.48046875 38.484375 C0.48962929 35.60485572 -8.75907324 33.86905808 -18 32 C-14.42602611 24.57697442 -10.45699733 17.45599101 -6.25 10.375 C-5.66089844 9.37082031 -5.07179688 8.36664063 -4.46484375 7.33203125 C-3.62373047 5.91083984 -3.62373047 5.91083984 -2.765625 4.4609375 C-2.25805664 3.60290527 -1.75048828 2.74487305 -1.22753906 1.86083984 C-0.82245117 1.2467627 -0.41736328 0.63268555 0 0 Z " fill="#D0DAFB" transform="translate(286,401)"/>
<path d="M0 0 C2.9375 2.4375 2.9375 2.4375 5 5 C5.33 5.33 5.66 5.66 6 6 C6.29322866 8.93228663 6.50004247 11.14491883 6 14 C3.5625 16.9375 3.5625 16.9375 1 19 C0.67 19.33 0.34 19.66 0 20 C-2.93228663 20.29322866 -5.14491883 20.50004247 -8 20 C-10.9375 17.5625 -10.9375 17.5625 -13 15 C-13.33 14.67 -13.66 14.34 -14 14 C-14.58968059 6.92383292 -14.58968059 6.92383292 -12.125 3.0625 C-8.53105139 -0.42574424 -4.86901199 -0.86746765 0 0 Z " fill="#6966F6" transform="translate(337,493)"/>
<path d="M0 0 C3.44996778 0.79999253 5.06552996 2.75592995 7.15625 5.5 C8.60772903 8.40295805 8.52864025 10.27261779 8.15625 13.5 C6.0878266 17.03633679 4.85724037 18.89096547 0.99609375 20.2734375 C-1.44439066 20.70530953 -3.38962813 20.86011571 -5.84375 20.5 C-8.84375 18.125 -8.84375 18.125 -10.84375 15.5 C-11.17375 15.17 -11.50375 14.84 -11.84375 14.5 C-12.52121739 9.81579688 -12.46747761 6.48589203 -9.90625 2.4375 C-6.33811424 0.18010799 -4.15624004 -0.22166614 0 0 Z " fill="#6966F6" transform="translate(281.84375,466.5)"/>
<path d="M0 0 C2.8100346 1.79363911 4.50940468 3.01880935 6 6 C6.70153846 13.13230769 6.70153846 13.13230769 3.625 16.9375 C-0.43871973 20.13042265 -2.79782067 20.52903519 -8 20 C-11.55105846 17.45250154 -12.77813617 15.76265693 -14 11.5625 C-14 7.46905764 -13.22004022 5.40934749 -11 2 C-7.31502204 -0.45665197 -4.28028214 -0.70086491 0 0 Z " fill="#6966F7" transform="translate(369,467)"/>
<path d="M0 0 C0.06058594 1.03640625 0.12117188 2.0728125 0.18359375 3.140625 C0.26803371 4.51042873 0.35267997 5.88021975 0.4375 7.25 C0.47681641 7.93191406 0.51613281 8.61382812 0.55664062 9.31640625 C0.80018667 14.24876667 0.80018667 14.24876667 2 19 C2.66 19.33 3.32 19.66 4 20 C1.03 21.32 -1.94 22.64 -5 24 C-8.3 18.39 -11.6 12.78 -15 7 C-12.30474522 4.30474522 -10.85961238 3.27393138 -7.5 1.8125 C-6.7265625 1.46832031 -5.953125 1.12414062 -5.15625 0.76953125 C-3 0 -3 0 0 0 Z " fill="#6865F4" transform="translate(385,383)"/>
</svg>
