<?xml version="1.0" encoding="UTF-8"?>
<svg version="1.1" xmlns="http://www.w3.org/2000/svg" width="640" height="640">
<path d="M0 0 C211.2 0 422.4 0 640 0 C640 211.2 640 422.4 640 640 C428.8 640 217.6 640 0 640 C0 428.8 0 217.6 0 0 Z " fill="#FEFEFE" transform="translate(0,0)"/>
<path d="M0 0 C3.14007365 1.33050036 6.05230913 2.97815891 9 4.6875 C9.85924072 5.17500732 10.71848145 5.66251465 11.60375977 6.16479492 C13.44412481 7.21375828 15.28069015 8.26941088 17.11376953 9.33105469 C20.07501663 11.04337791 23.05048711 12.72904931 26.02734375 14.4140625 C27.99835496 15.54520536 29.96843064 16.67798018 31.9375 17.8125 C33.3306543 18.6017688 33.3306543 18.6017688 34.75195312 19.40698242 C36.06389648 20.17425659 36.06389648 20.17425659 37.40234375 20.95703125 C38.17054443 21.40022705 38.93874512 21.84342285 39.73022461 22.30004883 C43.37297307 25.02828993 46.59344974 27.49006538 47.3441925 32.12495422 C47.37603515 34.64850472 47.24737128 37.12291933 47.07421875 39.640625 C47.01758727 41.53504376 46.96497954 43.4295863 46.91601562 45.32421875 C46.81518942 48.2891471 46.68793449 51.24351856 46.48950195 54.20361328 C45.79546208 63.78699399 45.79546208 63.78699399 48 73 C52.24440838 77.58915968 57.97893181 79.8123828 63.70173645 82.03401184 C67.30173157 83.54713363 70.52870862 85.59147928 73.8125 87.6875 C77.81409298 90.34819926 77.81409298 90.34819926 82.37304688 90.75195312 C85.23455364 89.93286011 87.4014683 88.80459716 89.94921875 87.26953125 C91.34624023 86.43518555 91.34624023 86.43518555 92.77148438 85.58398438 C93.73376953 84.99939453 94.69605469 84.41480469 95.6875 83.8125 C96.63044922 83.24724609 97.57339844 82.68199219 98.54492188 82.09960938 C99.95161133 81.2555957 99.95161133 81.2555957 101.38671875 80.39453125 C102.3204834 79.83459473 103.25424805 79.2746582 104.21630859 78.69775391 C106.0678733 77.56849755 107.90453567 76.4144262 109.72509766 75.23583984 C110.58538574 74.68750488 111.44567383 74.13916992 112.33203125 73.57421875 C113.08846924 73.07881592 113.84490723 72.58341309 114.62426758 72.07299805 C117.67698116 70.69424189 119.67502343 70.62658282 123 71 C125.7980957 72.21826172 125.7980957 72.21826172 128.67578125 73.9296875 C129.74368896 74.55576904 130.81159668 75.18185059 131.91186523 75.8269043 C133.03407471 76.50277588 134.15628418 77.17864746 135.3125 77.875 C136.47599001 78.56466224 137.64013883 79.25321422 138.80493164 79.94067383 C141.12458521 81.31167288 143.44007801 82.68933836 145.75292969 84.07177734 C148.61425871 85.77093348 151.49019821 87.436919 154.3828125 89.08203125 C155.16358154 89.52885254 155.94435059 89.97567383 156.7487793 90.43603516 C158.16664421 91.24674074 159.58722732 92.0527182 161.01098633 92.85302734 C164.48232003 94.86494013 166.91551288 96.56141729 169 100 C169.39440918 102.45272827 169.39440918 102.45272827 169.41992188 105.22412109 C169.43583374 106.26555267 169.45174561 107.30698425 169.46813965 108.37997437 C169.46844177 110.05973862 169.46844177 110.05973862 169.46875 111.7734375 C169.47636353 112.92993805 169.48397705 114.0864386 169.49182129 115.27798462 C169.50262528 117.7240381 169.5054742 120.17013773 169.50097656 122.61621094 C169.50000538 126.35430119 169.54160416 130.09033172 169.5859375 133.828125 C169.59114534 136.20572489 169.59383268 138.58333191 169.59375 140.9609375 C169.61014526 142.07673187 169.62654053 143.19252625 169.64343262 144.34213257 C169.5665155 153.00255015 169.5665155 153.00255015 166.78588867 156.55126953 C164.20179335 158.8226284 161.84788253 160.57915026 158.83203125 162.21875 C157.85556641 162.75886719 156.87910156 163.29898438 155.87304688 163.85546875 C154.86306641 164.39816406 153.85308594 164.94085938 152.8125 165.5 C149.82869412 167.13458982 146.8503451 168.7707549 143.8984375 170.46240234 C141 172 141 172 138.0546875 173.02587891 C134.80822271 174.33079658 133.16255215 175.22132397 131 178 C129.32420682 184.58951043 130.06797477 191.6540439 130.375 198.375 C130.42518606 200.27462331 130.47080907 202.17437303 130.51171875 204.07421875 C130.62168072 208.71927123 130.79405217 213.35825283 131 218 C131.81154541 218.45850342 132.62309082 218.91700684 133.45922852 219.3894043 C136.50072678 221.11024914 139.5401823 222.83459969 142.57836914 224.5612793 C143.88780211 225.30453195 145.19800878 226.04642337 146.5090332 226.78686523 C165.95402089 237.77235733 165.95402089 237.77235733 168 243 C168.26069641 245.3008728 168.26069641 245.3008728 168.2746582 247.85693359 C168.28419022 248.81828217 168.29372223 249.77963074 168.30354309 250.77011108 C168.30217598 252.31863266 168.30217598 252.31863266 168.30078125 253.8984375 C168.30506638 254.96615387 168.3093515 256.03387024 168.31376648 257.13394165 C168.31950718 259.39169608 168.32001196 261.649469 168.31567383 263.90722656 C168.31251818 267.35514036 168.33596211 270.80219254 168.36132812 274.25 C168.36360162 276.44531142 168.36430438 278.64062514 168.36328125 280.8359375 C168.372491 281.86423676 168.38170074 282.89253601 168.39118958 283.95199585 C168.35654407 289.33423314 168.23159873 293.46242376 165 298 C162.72607422 299.80761719 162.72607422 299.80761719 160.0546875 301.296875 C159.06799072 301.85866455 158.08129395 302.4204541 157.06469727 302.99926758 C156.01209717 303.57700928 154.95949707 304.15475098 153.875 304.75 C151.69351897 305.97699124 149.51253211 307.20486148 147.33203125 308.43359375 C146.25646973 309.03413574 145.1809082 309.63467773 144.07275391 310.25341797 C141.32636272 311.81449238 138.63114234 313.42901275 135.94921875 315.09765625 C135.19979004 315.56010742 134.45036133 316.02255859 133.67822266 316.49902344 C132.31779725 317.34359864 130.96394553 318.19890668 129.61865234 319.06738281 C124.95596257 321.91700783 120.5302242 323.54039212 115 323 C111.50753045 321.76390326 108.47064135 319.98246953 105.3125 318.0625 C104.44181885 317.5662915 103.5711377 317.07008301 102.67407227 316.55883789 C98.67457112 314.26567269 94.77562575 311.88541432 90.9765625 309.2734375 C87.75689586 307.10718019 84.71161031 305.23407524 81 304 C76.54982001 304.89746328 73.58977712 307.32106185 70 310 C67.51535671 311.52351941 64.97761523 312.94650984 62.4375 314.375 C61.52484375 314.91060547 61.52484375 314.91060547 60.59375 315.45703125 C56.23013436 318 56.23013436 318 54 318 C54.82019119 319.63038963 54.82019119 319.63038963 55.6569519 321.29371643 C60.81328808 331.5455306 65.96325801 341.80052055 71.1070385 352.05864048 C73.75160312 357.33212493 76.39838507 362.60447155 79.05029297 367.87426758 C81.610221 372.96148889 84.16424745 378.05163296 86.71423721 383.1438427 C87.68733965 385.08451154 88.66255125 387.0241243 89.63991928 388.96264839 C91.01020152 391.681385 92.37288508 394.40380563 93.73388672 397.12719727 C94.13812866 397.92489532 94.54237061 398.72259338 94.9588623 399.54446411 C100.73611438 411.16284797 101.94361338 423.32537628 98.375 435.875 C93.38947458 450.0094019 85.84138618 457.99471729 72.59765625 464.51953125 C64.60753388 467.80754034 57.62306632 468.35406217 49.0625 468.3125 C47.85142578 468.30903564 46.64035156 468.30557129 45.39257812 468.30200195 C33.17433101 468.16426511 21.03254315 467.24601637 8.85620117 466.28076172 C-7.93885271 464.95397792 -24.74776287 463.99585799 -41.5703125 463.09057617 C-51.92658271 462.5258987 -62.27459909 461.88911682 -72.61328125 461.05859375 C-74.02620956 460.95374916 -74.02620956 460.95374916 -75.46768188 460.8467865 C-82.71821004 460.23159841 -88.6337217 458.67114654 -95 455 C-95.61617188 454.64550781 -96.23234375 454.29101562 -96.8671875 453.92578125 C-98.29570178 453.02674117 -99.65364979 452.01797211 -101 451 C-101.825 450.4225 -102.65 449.845 -103.5 449.25 C-109.17129292 444.14583637 -112.90398626 437.9099437 -116 431 C-116.391875 430.154375 -116.78375 429.30875 -117.1875 428.4375 C-120.75278023 417.74165931 -119.66489085 404.97736092 -114.98999023 394.80151367 C-109.93345435 385.05948625 -103.48535595 376.11535782 -97.3125 367.0625 C-96.10786365 365.28806814 -94.90368461 363.51332574 -93.69995117 361.73828125 C-91.28706707 358.18189594 -88.87143708 354.62740353 -86.453125 351.07470703 C-83.29671415 346.43755009 -80.14684693 341.7959947 -77 337.15234375 C-72.67102851 330.76525963 -68.33759568 324.38123188 -64 318 C-68.29977997 314.49467867 -72.70884744 311.50902615 -77.4375 308.625 C-78.17548828 308.14933594 -78.91347656 307.67367188 -79.67382812 307.18359375 C-80.39892578 306.74402344 -81.12402344 306.30445313 -81.87109375 305.8515625 C-82.52005615 305.44760254 -83.16901855 305.04364258 -83.83764648 304.62744141 C-87.89545571 303.45000325 -91.19813829 305.58110332 -94.77319336 307.44873047 C-95.70268799 307.99932129 -96.63218262 308.54991211 -97.58984375 309.1171875 C-98.62173828 309.72433594 -99.65363281 310.33148438 -100.71679688 310.95703125 C-102.31104492 311.90642578 -102.31104492 311.90642578 -103.9375 312.875 C-107.05461702 314.71529428 -110.17191327 316.55520974 -113.29248047 318.38964844 C-114.90850537 319.35081167 -116.51549135 320.32785489 -118.10205078 321.33691406 C-121.94378207 323.73337739 -124.49316804 324.77840152 -129 324 C-132.12303756 322.69944314 -135.01099199 321.06596792 -137.9375 319.375 C-138.7927124 318.891521 -139.6479248 318.40804199 -140.52905273 317.90991211 C-143.36484312 316.29336104 -146.18409931 314.6509421 -149 313 C-150.03286133 312.39591309 -151.06572266 311.79182617 -152.12988281 311.16943359 C-155.2829728 309.31493025 -158.42500891 307.44325918 -161.5625 305.5625 C-162.55564209 304.97194824 -163.54878418 304.38139648 -164.57202148 303.77294922 C-165.49829346 303.20979004 -166.42456543 302.64663086 -167.37890625 302.06640625 C-168.1994751 301.57084229 -169.02004395 301.07527832 -169.86547852 300.56469727 C-172.94958108 298.30391569 -174.77741933 296.35921594 -175.40786743 292.50930786 C-175.42231903 291.57698334 -175.43677063 290.64465881 -175.45166016 289.68408203 C-175.4740274 288.6226297 -175.49639465 287.56117737 -175.5194397 286.46755981 C-175.52591522 285.3258432 -175.53239075 284.18412659 -175.5390625 283.0078125 C-175.55141937 281.82911591 -175.56377625 280.65041931 -175.57650757 279.43600464 C-175.59607531 276.94290127 -175.60730616 274.44972062 -175.61083984 271.95654297 C-175.62492425 268.14549714 -175.69225987 264.33773003 -175.76171875 260.52734375 C-175.77411729 258.10418124 -175.78333686 255.68099996 -175.7890625 253.2578125 C-175.82913925 251.55131027 -175.82913925 251.55131027 -175.87002563 249.81033325 C-175.80416595 242.12851431 -175.80416595 242.12851431 -173.59724426 239.03146362 C-171.81491723 237.44680865 -170.05049995 236.21312352 -168 235 C-167.01185303 234.37206543 -166.02370605 233.74413086 -165.00561523 233.09716797 C-164.03309814 232.56752441 -163.06058105 232.03788086 -162.05859375 231.4921875 C-160.98029297 230.89792969 -159.90199219 230.30367187 -158.79101562 229.69140625 C-157.68435547 229.09199219 -156.57769531 228.49257813 -155.4375 227.875 C-153.22664966 226.66628205 -151.0169755 225.45540979 -148.80859375 224.2421875 C-147.83720459 223.7147998 -146.86581543 223.18741211 -145.86499023 222.64404297 C-144.44682007 221.8302417 -144.44682007 221.8302417 -143 221 C-141.90679443 220.46165527 -140.81358887 219.92331055 -139.68725586 219.36865234 C-136.78285856 216.80860304 -136.58401558 216.48141568 -136.22705078 212.87402344 C-136.18620393 211.20293962 -136.17751981 209.53086326 -136.1953125 207.859375 C-136.18160614 206.97719299 -136.16789978 206.09501099 -136.15377808 205.18609619 C-136.11644225 202.37354705 -136.12019515 199.56276201 -136.125 196.75 C-136.10687566 194.84111819 -136.08607379 192.93225979 -136.0625 191.0234375 C-136.01061564 186.34866225 -135.99557167 181.67504741 -136 177 C-137.07761597 176.59140747 -137.07761597 176.59140747 -138.17700195 176.17456055 C-143.06688632 174.14003372 -147.58379912 171.41842386 -152.1875 168.8125 C-153.6734668 167.98395508 -153.6734668 167.98395508 -155.18945312 167.13867188 C-172.94216823 157.11566354 -172.94216823 157.11566354 -175 153 C-175.12593726 151.30673632 -175.19037204 149.60872813 -175.22460938 147.91113281 C-175.24712769 146.84952942 -175.269646 145.78792603 -175.29284668 144.69415283 C-175.36374291 139.83198031 -175.42136934 134.96996298 -175.45996094 130.10742188 C-175.48658128 127.54277892 -175.52752019 124.97824331 -175.58300781 122.4140625 C-175.66206645 118.71830932 -175.69525879 115.02459941 -175.71875 111.328125 C-175.75174194 110.18418274 -175.78473389 109.04024048 -175.81872559 107.8616333 C-175.79928131 100.12266776 -175.79928131 100.12266776 -173.59181213 97.02206421 C-171.81057302 95.44148107 -170.04843804 94.20940159 -168 93 C-167.05374756 92.3930127 -166.10749512 91.78602539 -165.13256836 91.16064453 C-163.75016968 90.40436768 -163.75016968 90.40436768 -162.33984375 89.6328125 C-161.30512939 89.06062988 -160.27041504 88.48844727 -159.2043457 87.89892578 C-158.12628662 87.31353027 -157.04822754 86.72813477 -155.9375 86.125 C-153.70006035 84.89667175 -151.46307803 83.66751007 -149.2265625 82.4375 C-147.6182959 81.55578125 -147.6182959 81.55578125 -145.97753906 80.65625 C-143.44501213 79.24753709 -140.9453234 77.80382197 -138.4609375 76.3125 C-137.82808838 75.93464355 -137.19523926 75.55678711 -136.54321289 75.16748047 C-134.94691316 74.20596265 -133.35786837 73.23242757 -131.76953125 72.2578125 C-128.41245443 70.73315984 -126.65741915 70.45681894 -123 71 C-120.08379395 72.21933276 -117.40720401 73.771072 -114.6875 75.375 C-113.90858398 75.8174707 -113.12966797 76.25994141 -112.32714844 76.71582031 C-108.24812331 79.0469265 -104.23317544 81.4636544 -100.25390625 83.9609375 C-99.49698486 84.42838379 -98.74006348 84.89583008 -97.96020508 85.37744141 C-96.51469054 86.27511983 -95.08021714 87.19089151 -93.65893555 88.12646484 C-92.67534058 88.73675537 -92.67534058 88.73675537 -91.671875 89.359375 C-90.82254395 89.90803223 -90.82254395 89.90803223 -89.95605469 90.46777344 C-86.04536867 91.53183928 -82.61807499 89.32272886 -79.19506836 87.53540039 C-78.25284424 86.97844482 -77.31062012 86.42148926 -76.33984375 85.84765625 C-75.29892578 85.23599609 -74.25800781 84.62433594 -73.18554688 83.99414062 C-72.11369141 83.35669922 -71.04183594 82.71925781 -69.9375 82.0625 C-68.86177734 81.42892578 -67.78605469 80.79535156 -66.67773438 80.14257812 C-63.78124132 78.43485035 -60.88864827 76.72095854 -58 75 C-57.07268066 74.63366455 -56.14536133 74.2673291 -55.18994141 73.88989258 C-52.86374322 72.25849529 -52.86374322 72.25849529 -52.56330872 70.1098175 C-52.38761315 67.55219042 -52.38714023 65.0398374 -52.43359375 62.4765625 C-52.42795914 61.53823578 -52.42232452 60.59990906 -52.41651917 59.63314819 C-52.40003166 56.62992726 -52.41563692 53.6281705 -52.4375 50.625 C-52.45409576 47.62910526 -52.46317898 44.63418492 -52.44776917 41.63827515 C-52.43849419 39.77403458 -52.44763712 37.90958875 -52.47740173 36.04556274 C-52.46032446 31.98712764 -52.36820974 29.62314016 -50.27001953 26.07226562 C-48.01020523 24.0093162 -45.92874427 22.5187166 -43.24609375 21.0546875 C-42.31788818 20.53994873 -41.38968262 20.02520996 -40.43334961 19.49487305 C-39.44471924 18.96031494 -38.45608887 18.42575684 -37.4375 17.875 C-35.36380964 16.73447851 -33.29090526 15.59252691 -31.21875 14.44921875 C-30.17847656 13.8773584 -29.13820313 13.30549805 -28.06640625 12.71630859 C-25.16870783 11.09442803 -22.31386059 9.41915604 -19.46875 7.70703125 C-18.61740479 7.19736816 -17.76605957 6.68770508 -16.88891602 6.16259766 C-15.29238575 5.20191288 -13.70138083 4.23196576 -12.11694336 3.25146484 C-7.95130733 0.76689562 -4.96603956 -0.9586949 0 0 Z " fill="#062B76" transform="translate(323,90)"/>
<path d="M0 0 C2.99133126 1.36159801 5.79910726 2.82456761 8.62670898 4.49951172 C9.65860352 5.10666016 10.69049805 5.71380859 11.75366211 6.33935547 C13.34791016 7.28875 13.34791016 7.28875 14.97436523 8.25732422 C18.09148225 10.0976185 21.2087785 11.93753396 24.3293457 13.77197266 C25.94537061 14.73313589 27.55235658 15.71017911 29.13891602 16.71923828 C32.98812055 19.1203634 35.52389976 20.18201946 40.03686523 19.38232422 C43.32329132 17.97167375 46.38169973 16.23503523 49.47436523 14.44482422 C50.79029663 13.70679565 50.79029663 13.70679565 52.1328125 12.95385742 C56.31926027 10.58906062 60.44567776 8.15371118 64.50561523 5.57763672 C65.18052002 5.15345459 65.8554248 4.72927246 66.55078125 4.29223633 C67.80470902 3.49538186 69.0481645 2.68172754 70.27880859 1.84936523 C71.97045898 0.76904297 71.97045898 0.76904297 75.03686523 -0.61767578 C78.87867753 0.56575038 82.28580945 2.54069523 85.78295898 4.49951172 C87.41007812 5.41023437 87.41007812 5.41023437 89.07006836 6.33935547 C90.19348633 6.97228516 91.3169043 7.60521484 92.47436523 8.25732422 C93.59391602 8.88251953 94.7134668 9.50771484 95.86694336 10.15185547 C102.10355299 13.65323987 102.10355299 13.65323987 105.03686523 15.38232422 C106.13442139 15.91365967 107.23197754 16.44499512 108.36279297 16.99243164 C111.31027668 19.62667961 111.45368364 19.9935411 111.74633789 23.7043457 C111.76026214 25.4707131 111.74319322 27.23750141 111.70092773 29.00341797 C111.7051474 29.94032974 111.70936707 30.87724152 111.7137146 31.84254456 C111.72458633 34.83577556 111.69649171 37.82679851 111.66186523 40.81982422 C111.63780762 43.80898231 111.6226382 46.79714261 111.63143921 49.78639221 C111.63600982 51.64512383 111.62135292 53.50402757 111.58511353 55.3624115 C111.58678226 59.37521432 111.67474963 61.75648311 113.71533203 65.28320312 C116.21732738 67.54549737 118.61032369 69.12225141 121.57983398 70.72216797 C123.19148438 71.60485352 123.19148438 71.60485352 124.83569336 72.50537109 C125.95395508 73.10414063 127.0722168 73.70291016 128.22436523 74.31982422 C131.50650457 76.09660698 134.77861109 77.88047499 138.02124023 79.72851562 C140.93973597 81.40425938 140.93973597 81.40425938 143.78686523 82.50097656 C146.66350412 83.85269862 148.13793327 84.81177469 150.03686523 87.38232422 C151.59902383 93.63529904 151.73676668 99.71243465 151.66186523 106.13232422 C151.66013306 107.00491882 151.65840088 107.87751343 151.65661621 108.77655029 C151.47711427 125.09872958 151.47711427 125.09872958 146.91967773 129.68701172 C143.44184837 132.0213625 139.62860849 133.26205563 135.6394043 134.46240234 C130.77158543 136.18303475 126.53017034 139.04648526 122.16186523 141.75732422 C120.86974121 142.51070068 120.86974121 142.51070068 119.55151367 143.27929688 C118.74488281 143.75415527 117.93825195 144.22901367 117.10717773 144.71826172 C116.39319824 145.13640137 115.67921875 145.55454102 114.94360352 145.98535156 C112.56921282 147.72494997 111.37515209 148.71613515 110.03686523 151.38232422 C109.81915743 154.66016639 110.09720999 157.88767523 110.33374023 161.15966797 C111.8478448 193.46248641 111.8478448 193.46248641 106.77758789 199.77197266 C100.82006636 204.95784746 92.1398175 209.38232422 84.03686523 209.38232422 C80.81545691 204.15322008 80.72491793 200.36254402 81.11108398 194.46044922 C81.15497757 193.60159119 81.19887115 192.74273315 81.24409485 191.85784912 C81.34009445 190.03859949 81.44396118 188.21975012 81.55517578 186.40136719 C81.72124379 183.6834114 81.86479257 180.96507214 82.00366211 178.24560547 C82.28565655 172.95284477 82.64482678 167.66797094 83.03686523 162.38232422 C83.09789429 161.51346588 83.15892334 160.64460754 83.22180176 159.74942017 C83.40593635 157.25069017 83.62021193 154.75655364 83.84545898 152.26123047 C83.89901047 151.51250671 83.95256195 150.76378296 84.00773621 149.99237061 C84.35235787 146.56109085 84.65819047 144.7578879 87.14672852 142.28979492 C89.39843998 141.07705487 91.63498409 140.24717269 94.03686523 139.38232422 C100.90150476 132.51768469 100.59108763 123.56894936 100.95336914 114.43652344 C101.03071718 112.53358081 101.1323556 110.63166756 101.23608398 108.72998047 C101.46276103 102.03128281 101.31818684 96.74690592 97.03686523 91.38232422 C90.75975481 85.83126931 85.11499148 84.43943568 76.91186523 84.13232422 C75.84653564 84.06988525 74.78120605 84.00744629 73.68359375 83.94311523 C71.37079581 83.80878732 69.0573307 83.68558367 66.7434082 83.57226562 C62.85016538 83.3727568 58.96135053 83.12589826 55.07202148 82.86279297 C49.73941427 82.50338162 44.40642249 82.15562193 39.07202148 81.82373047 C34.32937784 81.52852958 29.58843785 81.21717058 24.84814453 80.88671875 C21.9125736 80.69054518 18.97477241 80.53896619 16.03686523 80.38232422 C14.88702148 80.29337891 13.73717773 80.20443359 12.55249023 80.11279297 C4.57780059 79.71773346 -0.89312602 81.001028 -6.96313477 86.38232422 C-12.5250909 92.37326101 -11.75217947 101.52135166 -11.91186523 109.21484375 C-11.9599947 111.24957415 -12.05562163 113.28302368 -12.15454102 115.31591797 C-12.38368922 122.18297229 -12.31798964 127.8053004 -7.96313477 133.38232422 C-5.25433221 135.95899006 -3.49998694 137.20337349 0.03686523 138.38232422 C-0.16901973 146.24528876 -0.41684574 154.10571615 -0.72209167 161.96539307 C-0.85749833 165.46201385 -0.98295202 168.95808053 -1.07788086 172.45605469 C-1.19065257 176.30885023 -1.35270851 180.15681619 -1.52563477 184.00732422 C-1.54996582 185.17158936 -1.57429688 186.33585449 -1.59936523 187.53540039 C-2.08599375 196.6804558 -5.41101712 202.34267613 -10.96313477 209.38232422 C-32.13645761 199.20900138 -32.13645761 199.20900138 -36.96313477 194.38232422 C-37.06170403 191.267077 -37.10027986 188.16994647 -37.10375977 185.05419922 C-37.12209151 183.12059372 -37.14166215 181.18699965 -37.16235352 179.25341797 C-37.19131186 176.19414109 -37.21313424 173.13559465 -37.21362305 170.07617188 C-37.21695882 167.13068279 -37.25152347 164.18689327 -37.29125977 161.24169922 C-37.28419006 160.33007019 -37.27712036 159.41844116 -37.26983643 158.47918701 C-37.35273683 154.14975174 -37.47424484 152.03287653 -40.13452148 148.49291992 C-42.98095646 146.3690264 -45.80208437 144.5036626 -48.89282227 142.75341797 C-50.01817383 142.11082031 -51.14352539 141.46822266 -52.30297852 140.80615234 C-53.4812517 140.14384326 -54.65963793 139.48173526 -55.83813477 138.81982422 C-57.00913041 138.15455212 -58.17970704 137.4885419 -59.34985352 136.82177734 C-61.51821065 135.58891143 -63.68840782 134.35927166 -65.86108398 133.1340332 C-69.23518357 131.22869993 -72.59878021 129.30481254 -75.96313477 127.38232422 C-75.96313477 113.85232422 -75.96313477 100.32232422 -75.96313477 86.38232422 C-62.52563477 78.75732422 -62.52563477 78.75732422 -58.34423828 76.39160156 C-53.07905209 73.39303749 -47.81547826 70.38502611 -42.67797852 67.17138672 C-41.65692017 66.53644287 -41.65692017 66.53644287 -40.61523438 65.88867188 C-38.33994984 63.81411807 -37.72621282 62.3855287 -36.96313477 59.38232422 C-36.94629754 56.3976936 -37.25317761 53.45708754 -37.53344727 50.48779297 C-39.33485853 23.45603126 -39.33485853 23.45603126 -34.7376709 16.53826904 C-28.55818278 9.86942497 -19.5082985 6.44828 -11.08520508 3.54101562 C-7.93468695 2.52079831 -7.93468695 2.52079831 -5.42700195 0.61035156 C-2.96313477 -0.61767578 -2.96313477 -0.61767578 0 0 Z " fill="#FDFDFE" transform="translate(282.963134765625,180.61767578125)"/>
<path d="M0 0 C10.01441088 -0.14058054 19.88510137 0.2745314 29.875 1 C31.25647941 1.09679776 32.63798983 1.19315384 34.01953125 1.2890625 C37.34668343 1.52173048 40.67345958 1.75876968 44 2 C44.22530404 12.57509746 43.74000804 22.92336948 42.71142578 33.45458984 C42.4643579 36.22958932 42.29417527 39.00006278 42.14434433 41.78164864 C42.04368283 43.32866172 41.91488607 44.87398998 41.76462173 46.41697502 C40.05124438 64.69725558 44.99763187 77.3325103 53.4770267 93.32164478 C55.10731323 96.42175046 56.68040054 99.55068867 58.26026917 102.67669678 C61.24554455 108.56320304 64.27810574 114.42385009 67.33026606 120.27590537 C71.14478853 127.5952059 74.89816659 134.94549832 78.65039062 142.296875 C79.96781094 144.87732863 81.28563388 147.45757586 82.60401917 150.03753662 C82.92313375 150.66204201 83.24224834 151.28654739 83.57103306 151.92997718 C85.76580339 156.22085877 87.97727248 160.50285553 90.19615173 164.78131104 C90.78115952 165.91196991 91.3661673 167.04262878 91.96890259 168.20755005 C93.06187004 170.31829012 94.15813395 172.42732776 95.25828552 174.53433228 C95.97975769 175.92937485 95.97975769 175.92937485 96.71580505 177.3526001 C97.34492877 178.56132467 97.34492877 178.56132467 97.98676205 179.79446793 C100.53588098 185.34317793 101.00862838 191.415116 99.3515625 197.3046875 C96.60586903 204.08678505 92.23613305 210.84326353 85.375 213.9375 C78.07370024 216.23605733 71.5361242 216.01735631 63.9375 215.75 C63.27761078 215.7279953 62.61772156 215.7059906 61.93783569 215.68331909 C41.92910151 215.00136804 21.96410469 213.45491887 2 212 C-1.78956431 211.72513038 -5.57917938 211.45097848 -9.36889648 211.17822266 C-11.55354704 211.01975393 -13.73796607 210.85805499 -15.92211914 210.69287109 C-21.42239227 210.28562777 -26.91877476 209.94458859 -32.4287262 209.70713806 C-35.42813433 209.57709436 -38.42673607 209.43156632 -41.42544556 209.28640747 C-42.86631649 209.22161576 -44.30757829 209.16489547 -45.74911499 209.11715698 C-56.20630496 208.77008226 -64.94377542 207.50693533 -72.4375 199.6875 C-77.75988749 192.63119024 -79.505666 184.81708169 -78.44273376 175.98631287 C-77.67447589 172.53954502 -75.80189353 169.77833333 -73.86328125 166.890625 C-73.42452667 166.21360535 -72.98577209 165.53658569 -72.53372192 164.83905029 C-71.03962593 162.54756605 -69.52205042 160.27300305 -68 158 C-67.44764679 157.16936035 -66.89529358 156.3387207 -66.32620239 155.48291016 C-62.04410317 149.04814501 -57.71373596 142.64665625 -53.375 136.25 C-51.46051199 133.4218451 -49.54681739 130.59315458 -47.63320923 127.7644043 C-46.40021482 125.94201424 -45.16680071 124.11990806 -43.93295288 122.2980957 C-40.91556586 117.84123038 -37.91128923 113.37676266 -34.9375 108.890625 C-32.11255005 104.63314619 -29.22776942 100.42044952 -26.32363892 96.21685791 C-24.00272996 92.85006131 -21.69940134 89.47142628 -19.39794922 86.09130859 C-18.2125473 84.35874787 -17.01977552 82.63120738 -15.81982422 80.90869141 C-6.27655556 67.66813688 -6.27655556 67.66813688 -3 52 C-2.94150879 51.17725586 -2.88301758 50.35451172 -2.82275391 49.50683594 C-2.65451533 47.04492829 -2.56863534 44.59156774 -2.5 42.125 C-2.15410824 32.61170178 -1.58669279 23.12141689 -0.9375 13.625 C-0.89125488 12.94536194 -0.84500977 12.26572388 -0.79736328 11.56549072 C-0.53473771 7.71010535 -0.26886842 3.85495478 0 0 Z " fill="#FDFDFE" transform="translate(303,322)"/>
<path d="M0 0 C12.94485414 1.07914256 25.89856496 1.78134833 38.87109375 2.42724609 C61.94928227 3.5881061 61.94928227 3.5881061 69.5 10.125 C75.34388315 16.82212228 74.68956822 23.70644756 74.5 32.125 C74.48743164 32.79418457 74.47486328 33.46336914 74.46191406 34.15283203 C74.04187769 52.3215482 74.04187769 52.3215482 68.0078125 58.703125 C61.74461207 64.125 61.74461207 64.125 57.5 64.125 C57.44158936 65.1778418 57.38317871 66.23068359 57.32299805 67.31542969 C57.2839888 68.01782776 57.24497955 68.72022583 57.20478821 69.44390869 C57.11614381 71.04135185 57.02767951 72.63880501 56.93937683 74.23626709 C56.69716482 78.6102863 56.45124326 82.98404083 56.19775391 87.35742188 C55.94121303 91.79453561 55.6973449 96.23221927 55.46020508 100.67041016 C55.36054896 102.4951878 55.25660882 104.31973584 55.14868164 106.14404297 C54.99059045 108.82992902 54.84734173 111.51625877 54.70703125 114.203125 C54.65609818 115.01251526 54.6051651 115.82190552 54.5526886 116.65582275 C54.32846497 121.27982034 54.69069727 124.76243925 56.5 129.125 C57.18626465 128.73119141 57.8725293 128.33738281 58.57958984 127.93164062 C61.67554477 126.15832633 64.77520366 124.39159009 67.875 122.625 C69.49535156 121.69494141 69.49535156 121.69494141 71.1484375 120.74609375 C72.1796875 120.15957031 73.2109375 119.57304687 74.2734375 118.96875 C75.70308838 118.15180664 75.70308838 118.15180664 77.16162109 117.31835938 C79.5 116.125 79.5 116.125 81.5 116.125 C81.53996094 116.70507812 81.57992187 117.28515625 81.62109375 117.8828125 C82.14671702 121.81525328 82.56287181 124.30779681 85.63671875 126.98828125 C87.26285918 128.01706397 88.91809204 129.00157777 90.6015625 129.93359375 C91.22804688 130.32675781 91.85453125 130.71992188 92.5 131.125 C92.5 131.785 92.5 132.445 92.5 133.125 C90.32861328 134.63720703 90.32861328 134.63720703 87.3203125 136.3828125 C86.24652344 137.00800781 85.17273438 137.63320313 84.06640625 138.27734375 C82.93074219 138.92832031 81.79507813 139.57929688 80.625 140.25 C79.49707031 140.90871094 78.36914062 141.56742188 77.20703125 142.24609375 C68.77248318 147.125 68.77248318 147.125 66.5 147.125 C67.04679413 148.21192642 67.59358826 149.29885284 68.1569519 150.41871643 C73.31328808 160.6705306 78.46325801 170.92552055 83.6070385 181.18364048 C86.25160312 186.45712493 88.89838507 191.72947155 91.55029297 196.99926758 C94.110221 202.08648889 96.66424745 207.17663296 99.21423721 212.2688427 C100.18733965 214.20951154 101.16255125 216.1491243 102.13991928 218.08764839 C103.51020152 220.806385 104.87288508 223.52880563 106.23388672 226.25219727 C106.63812866 227.04989532 107.04237061 227.84759338 107.4588623 228.66946411 C113.23611438 240.28784797 114.44361338 252.45037628 110.875 265 C105.88947458 279.1344019 98.34138618 287.11971729 85.09765625 293.64453125 C77.10753388 296.93254034 70.12306632 297.47906217 61.5625 297.4375 C60.35142578 297.43403564 59.14035156 297.43057129 57.89257812 297.42700195 C45.67433101 297.28926511 33.53254315 296.37101637 21.35620117 295.40576172 C4.56114729 294.07897792 -12.24776287 293.12085799 -29.0703125 292.21557617 C-39.42658271 291.6508987 -49.77459909 291.01411682 -60.11328125 290.18359375 C-61.05523346 290.11369736 -61.99718567 290.04380096 -62.96768188 289.9717865 C-70.21821004 289.35659841 -76.1337217 287.79614654 -82.5 284.125 C-83.42425781 283.59326172 -83.42425781 283.59326172 -84.3671875 283.05078125 C-85.79570178 282.15174117 -87.15364979 281.14297211 -88.5 280.125 C-89.325 279.5475 -90.15 278.97 -91 278.375 C-96.67129292 273.27083637 -100.40398626 267.0349437 -103.5 260.125 C-103.891875 259.279375 -104.28375 258.43375 -104.6875 257.5625 C-108.25278023 246.86665931 -107.16489085 234.10236092 -102.48999023 223.92651367 C-97.43345435 214.18448625 -90.98535595 205.24035782 -84.8125 196.1875 C-83.60786365 194.41306814 -82.40368461 192.63832574 -81.19995117 190.86328125 C-78.78706707 187.30689594 -76.37143708 183.75240353 -73.953125 180.19970703 C-70.79671415 175.56255009 -67.64684693 170.9209947 -64.5 166.27734375 C-60.17102851 159.89025963 -55.83759568 153.50623188 -51.5 147.125 C-54.45097761 144.69588084 -57.34680304 142.50202559 -60.671875 140.6171875 C-61.41824219 140.18792969 -62.16460937 139.75867188 -62.93359375 139.31640625 C-64.49303139 138.43018284 -66.05293645 137.54478148 -67.61328125 136.66015625 C-68.35449219 136.23347656 -69.09570312 135.80679688 -69.859375 135.3671875 C-70.53452148 134.9841748 -71.20966797 134.60116211 -71.90527344 134.20654297 C-73.5 133.125 -73.5 133.125 -74.5 131.125 C-72.7421875 130.18098958 -70.984375 129.23697917 -69.2265625 128.29296875 C-67.19497635 127.07736507 -67.19497635 127.07736507 -65.5 124.125 C-65.04398739 121.61603314 -65.04398739 121.61603314 -64.875 118.9375 C-64.80023438 118.03644531 -64.72546875 117.13539063 -64.6484375 116.20703125 C-64.59945312 115.51996094 -64.55046875 114.83289063 -64.5 114.125 C-63.61699219 114.63289063 -62.73398438 115.14078125 -61.82421875 115.6640625 C-54.43020383 119.90812365 -47.00160043 124.07301548 -39.5 128.125 C-31.176519 120.58807527 -30.49573634 112.84135851 -29.92221069 102.16314697 C-29.77722803 98.77588378 -29.6684719 95.38868693 -29.5625 92 C-29.46637431 89.71729855 -29.36679317 87.43473987 -29.26367188 85.15234375 C-29.11852458 81.93035842 -28.97804838 78.70910524 -28.86549377 75.48580933 C-28.65884298 69.64982026 -28.22027918 63.92087387 -27.5 58.125 C-28.1084375 57.99222656 -28.716875 57.85945313 -29.34375 57.72265625 C-33.74465617 56.50283987 -36.50225179 53.56231771 -38.8125 49.75 C-41.53722619 43.78416805 -40.811579 37.52826648 -40.5 31.125 C-40.46529019 29.65760153 -40.43280296 28.1901491 -40.40234375 26.72265625 C-39.95502587 10.98940662 -39.95502587 10.98940662 -35.5 6.125 C-24.3671763 -2.82880127 -13.65019131 -1.21154225 0 0 Z M-7.5 61.125 C-7.53314301 61.74981262 -7.56628601 62.37462524 -7.60043335 63.01837158 C-7.94948796 69.57357699 -8.30803316 76.12821627 -8.671875 82.68261719 C-8.8061026 85.12259096 -8.93798141 87.5626952 -9.06738281 90.00292969 C-9.254753 93.52837182 -9.4508142 97.05324448 -9.6484375 100.578125 C-9.70373627 101.6536261 -9.75903503 102.7291272 -9.81600952 103.83721924 C-10.45264735 114.89046768 -11.05764424 124.46337256 -17.609375 133.66796875 C-18.12358002 134.42654175 -18.63778503 135.18511475 -19.16757202 135.9666748 C-20.84275072 138.4288899 -22.54603641 140.87014028 -24.25 143.3125 C-25.43690268 145.04710142 -26.62160532 146.78321009 -27.80419922 148.52075195 C-30.20833806 152.04883151 -32.62211009 155.56998396 -35.04394531 159.0859375 C-39.5357992 165.61852798 -43.92499699 172.21799073 -48.30618286 178.82507324 C-50.50734358 182.14217126 -52.71687097 185.45368475 -54.92578125 188.765625 C-55.58799934 189.759039 -55.58799934 189.759039 -56.26359558 190.77252197 C-59.32732133 195.36826485 -62.39407733 199.96197793 -65.46191406 204.55497742 C-67.70166648 207.90845618 -69.94056191 211.26250664 -72.17938232 214.61660767 C-73.26184843 216.23779858 -74.34472935 217.85871261 -75.42803955 219.4793396 C-76.9283231 221.72381766 -78.4272029 223.96922696 -79.92578125 226.21484375 C-80.37567917 226.88710999 -80.82557709 227.55937622 -81.28910828 228.25201416 C-86.25550992 235.70115952 -86.71057793 242.67200407 -85.0390625 251.58203125 C-82.83012941 258.16984936 -78.52106793 263.25711787 -72.5234375 266.7265625 C-64.46246358 270.60246645 -55.46335212 270.36497925 -46.6875 270.8125 C-44.77088375 270.92642961 -42.85437968 271.04226092 -40.93798828 271.15991211 C-36.0628932 271.4534848 -31.18681603 271.72087439 -26.30963135 271.97717285 C-23.63250903 272.11802811 -20.95563083 272.26274368 -18.27880859 272.40917969 C-11.93506782 272.75575784 -5.59131191 273.10098528 0.75366211 273.42431641 C9.30918059 273.86439859 17.84024692 274.43936197 26.375 275.1875 C35.19884164 275.9369526 44.02596979 276.49055766 52.87384033 276.85079956 C54.87389171 276.93482763 56.87325966 277.03466029 58.87255859 277.13500977 C67.76589876 277.45415985 76.95341926 277.29991373 83.875 270.9375 C89.09788711 265.96784378 92.56135674 259.34565462 92.8125 252.0625 C92.62737645 242.85898182 87.26712723 234.43067133 83.08886719 226.45654297 C81.99679768 224.35164403 80.90507784 222.24656364 79.81365967 220.1413269 C79.24039696 219.03872402 78.66713425 217.93612114 78.07649994 216.80010605 C74.6917439 210.27086973 71.35101044 203.71897389 68.00400686 197.1703279 C64.47943468 190.27592492 60.9396655 183.39039564 57.3515625 176.52880859 C54.48583054 171.04835073 51.65616262 165.55085777 48.86509824 160.03197968 C47.39423303 157.12672443 45.90325964 154.23535246 44.37831879 151.35802841 C35.95767137 135.43901177 32.85749746 123.09957012 34.5 105.125 C34.58913907 103.71831311 34.67282856 102.31126092 34.74893188 100.90380859 C34.92914415 97.80015622 35.19782189 94.7188744 35.5 91.625 C36.33717163 82.07435075 36.70416581 72.70793234 36.5 63.125 C32.48432025 62.83379545 28.46821814 62.54934324 24.45166016 62.27050781 C22.43237828 62.12902039 20.41344737 61.98255162 18.39453125 61.8359375 C9.73582141 61.2387851 1.17710741 61.00319229 -7.5 61.125 Z " fill="#072C76" transform="translate(310.5,260.875)"/>
<path d="M0 0 C2.91620605 1.21933276 5.59279599 2.771072 8.3125 4.375 C9.09141602 4.8174707 9.87033203 5.25994141 10.67285156 5.71582031 C14.75187669 8.0469265 18.76682456 10.4636544 22.74609375 12.9609375 C23.50301514 13.42838379 24.25993652 13.89583008 25.03979492 14.37744141 C26.48530946 15.27511983 27.91978286 16.19089151 29.34106445 17.12646484 C30.32465942 17.73675537 30.32465942 17.73675537 31.328125 18.359375 C32.17745605 18.90803223 32.17745605 18.90803223 33.04394531 19.46777344 C36.95228946 20.53120207 40.37235827 18.32958883 43.7890625 16.53540039 C44.72492188 15.97844482 45.66078125 15.42148926 46.625 14.84765625 C47.66140625 14.23599609 48.6978125 13.62433594 49.765625 12.99414062 C50.83296875 12.35669922 51.9003125 11.71925781 53 11.0625 C55.12399842 9.80169659 57.24896894 8.5425291 59.375 7.28515625 C60.31085938 6.72707275 61.24671875 6.16898926 62.2109375 5.59399414 C65.09086408 3.94806971 68.02044943 2.45654099 71 1 C71.01417969 1.66386719 71.02835937 2.32773438 71.04296875 3.01171875 C71.35429744 8.96228239 71.35429744 8.96228239 74.375 14 C76.20508127 15.39434763 78.08566893 16.72377928 80 18 C80 18.66 80 19.32 80 20 C76.10632243 22.24622034 72.21018839 24.48810081 68.31176758 26.72607422 C66.98719833 27.48726886 65.66329553 28.24962449 64.34008789 29.01318359 C62.43291434 30.11344844 60.52334613 31.20945152 58.61328125 32.3046875 C58.02662186 32.6443454 57.43996246 32.9840033 56.83552551 33.33395386 C53.63429233 35.16359992 50.4604925 36.72463421 47 38 C47.01571045 39.21059082 47.0314209 40.42118164 47.04760742 41.66845703 C47.10204969 46.17473658 47.13640207 50.68098724 47.16479492 55.1875 C47.17984899 57.13514094 47.2002968 59.08274816 47.22631836 61.03027344 C47.26285053 63.83537128 47.27976033 66.64001954 47.29296875 69.4453125 C47.30845261 70.31116974 47.32393646 71.17702698 47.33988953 72.06912231 C47.34128588 77.12474352 46.8922294 80.6639081 44 85 C42.19091797 86.64135742 42.19091797 86.64135742 40.1171875 87.91796875 C39.32151367 88.41216309 38.52583984 88.90635742 37.70605469 89.41552734 C32.54293716 92.43868078 27.35539159 95.40706635 22.125 98.3125 C20.99835938 98.94478516 19.87171875 99.57707031 18.7109375 100.22851562 C10.39764724 104.86745092 10.39764724 104.86745092 7 106 C7 119.53 7 133.06 7 147 C8.65 147.66 10.3 148.32 12 149 C16.15713085 151.15332329 20.22763261 153.46304127 24.3125 155.75 C25.41529297 156.3584375 26.51808594 156.966875 27.65429688 157.59375 C43.81114721 166.62229443 43.81114721 166.62229443 46 171 C46.11570235 172.66820855 46.16954908 174.34088596 46.19287109 176.01293945 C46.20893402 177.05774979 46.22499695 178.10256012 46.24154663 179.17903137 C46.28593806 183.95943606 46.3270588 188.73970116 46.35009766 193.52026367 C46.36666456 196.04314392 46.39396384 198.56597709 46.43212891 201.08862305 C46.48683189 204.7220907 46.50876249 208.35445753 46.5234375 211.98828125 C46.55744156 213.6791259 46.55744156 213.6791259 46.59213257 215.40412903 C46.57096474 223.23439228 46.57096474 223.23439228 43.67749023 227.11425781 C42.79391846 227.73655273 41.91034668 228.35884766 41 229 C40.42338623 229.41693115 39.84677246 229.8338623 39.25268555 230.26342773 C38.45278198 230.71890991 38.45278198 230.71890991 37.63671875 231.18359375 C37.00870361 231.54727051 36.38068848 231.91094727 35.73364258 232.28564453 C35.05841553 232.66575684 34.38318848 233.04586914 33.6875 233.4375 C32.18449101 234.29746993 30.68191345 235.1581942 29.1796875 236.01953125 C28.36081055 236.48697754 27.54193359 236.95442383 26.69824219 237.43603516 C23.69611383 239.1761396 20.72674554 240.96559127 17.7578125 242.76171875 C16.69087158 243.40117432 15.62393066 244.04062988 14.5246582 244.69946289 C12.41078258 245.96663147 10.30235488 247.24294037 8.19995117 248.52905273 C7.2226001 249.10985596 6.24524902 249.69065918 5.23828125 250.2890625 C4.37243408 250.81193848 3.50658691 251.33481445 2.61450195 251.87353516 C-1.16084988 253.50015514 -4.27863809 253.62996183 -8.15209961 252.21240234 C-8.81218018 251.84066895 -9.47226074 251.46893555 -10.15234375 251.0859375 C-10.91812744 250.66127197 -11.68391113 250.23660645 -12.47290039 249.79907227 C-13.6928772 249.09415649 -13.6928772 249.09415649 -14.9375 248.375 C-15.7927124 247.891521 -16.6479248 247.40804199 -17.52905273 246.90991211 C-20.36484312 245.29336104 -23.18409931 243.6509421 -26 242 C-27.03286133 241.39591309 -28.06572266 240.79182617 -29.12988281 240.16943359 C-32.2829728 238.31493025 -35.42500891 236.44325918 -38.5625 234.5625 C-40.05221313 233.67667236 -40.05221313 233.67667236 -41.57202148 232.77294922 C-42.49829346 232.20979004 -43.42456543 231.64663086 -44.37890625 231.06640625 C-45.1994751 230.57084229 -46.02004395 230.07527832 -46.86547852 229.56469727 C-49.94958108 227.30391569 -51.77741933 225.35921594 -52.40786743 221.50930786 C-52.42231903 220.57698334 -52.43677063 219.64465881 -52.45166016 218.68408203 C-52.4740274 217.6226297 -52.49639465 216.56117737 -52.5194397 215.46755981 C-52.52591522 214.3258432 -52.53239075 213.18412659 -52.5390625 212.0078125 C-52.55759781 210.23976761 -52.55759781 210.23976761 -52.57650757 208.43600464 C-52.59607531 205.94290127 -52.60730616 203.44972062 -52.61083984 200.95654297 C-52.62492425 197.14549714 -52.69225987 193.33773003 -52.76171875 189.52734375 C-52.77411729 187.10418124 -52.78333686 184.68099996 -52.7890625 182.2578125 C-52.82913925 180.55131027 -52.82913925 180.55131027 -52.87002563 178.81033325 C-52.80416595 171.12851431 -52.80416595 171.12851431 -50.59724426 168.03146362 C-48.81491723 166.44680865 -47.05049995 165.21312352 -45 164 C-44.01185303 163.37206543 -43.02370605 162.74413086 -42.00561523 162.09716797 C-41.03309814 161.56752441 -40.06058105 161.03788086 -39.05859375 160.4921875 C-37.98029297 159.89792969 -36.90199219 159.30367187 -35.79101562 158.69140625 C-34.68435547 158.09199219 -33.57769531 157.49257813 -32.4375 156.875 C-30.22664966 155.66628205 -28.0169755 154.45540979 -25.80859375 153.2421875 C-24.83720459 152.7147998 -23.86581543 152.18741211 -22.86499023 151.64404297 C-21.44682007 150.8302417 -21.44682007 150.8302417 -20 150 C-18.90679443 149.46165527 -17.81358887 148.92331055 -16.68725586 148.36865234 C-13.78285856 145.80860304 -13.58401558 145.48141568 -13.22705078 141.87402344 C-13.18620393 140.20293962 -13.17751981 138.53086326 -13.1953125 136.859375 C-13.18160614 135.97719299 -13.16789978 135.09501099 -13.15377808 134.18609619 C-13.11644225 131.37354705 -13.12019515 128.56276201 -13.125 125.75 C-13.10687566 123.84111819 -13.08607379 121.93225979 -13.0625 120.0234375 C-13.01061564 115.34866225 -12.99557167 110.67504741 -13 106 C-13.71841064 105.72760498 -14.43682129 105.45520996 -15.17700195 105.17456055 C-20.06688632 103.14003372 -24.58379912 100.41842386 -29.1875 97.8125 C-30.17814453 97.26013672 -31.16878906 96.70777344 -32.18945312 96.13867188 C-49.94216823 86.11566354 -49.94216823 86.11566354 -52 82 C-52.12593726 80.30673632 -52.19037204 78.60872813 -52.22460938 76.91113281 C-52.24712769 75.84952942 -52.269646 74.78792603 -52.29284668 73.69415283 C-52.36374291 68.83198031 -52.42136934 63.96996298 -52.45996094 59.10742188 C-52.48658128 56.54277892 -52.52752019 53.97824331 -52.58300781 51.4140625 C-52.66206645 47.71830932 -52.69525879 44.02459941 -52.71875 40.328125 C-52.75174194 39.18418274 -52.78473389 38.04024048 -52.81872559 36.8616333 C-52.79928131 29.12266776 -52.79928131 29.12266776 -50.59181213 26.02206421 C-48.81057302 24.44148107 -47.04843804 23.20940159 -45 22 C-44.05374756 21.3930127 -43.10749512 20.78602539 -42.13256836 20.16064453 C-41.21096924 19.65645996 -40.28937012 19.15227539 -39.33984375 18.6328125 C-38.30512939 18.06062988 -37.27041504 17.48844727 -36.2043457 16.89892578 C-35.12628662 16.31353027 -34.04822754 15.72813477 -32.9375 15.125 C-30.70006035 13.89667175 -28.46307803 12.66751007 -26.2265625 11.4375 C-25.15438477 10.8496875 -24.08220703 10.261875 -22.97753906 9.65625 C-20.44501213 8.24753709 -17.9453234 6.80382197 -15.4609375 5.3125 C-14.82808838 4.93464355 -14.19523926 4.55678711 -13.54321289 4.16748047 C-11.94691316 3.20596265 -10.35786837 2.23242757 -8.76953125 1.2578125 C-5.41245443 -0.26684016 -3.65741915 -0.54318106 0 0 Z " fill="#062B75" transform="translate(200,161)"/>
<path d="M0 0 C4.70134401 1.08448181 9.37445314 2.23672784 14.03417969 3.48828125 C15.61875428 3.90075869 17.21805435 4.2564325 18.8203125 4.59375 C21.49725276 5.37724471 22.95087874 6.08405014 25 8 C26.62820158 11.03285146 27.94881844 14.03695987 29.2019043 17.23608398 C34.403863 30.47193294 42.56571387 42.42012198 52 53 C52.763125 53.87140625 53.52625 54.7428125 54.3125 55.640625 C56.51221674 58.12273781 58.74457987 60.56850618 61 63 C61.54914063 63.60328125 62.09828125 64.2065625 62.6640625 64.828125 C74.8830601 77.70923577 90.98869179 87.32707632 106.875 94.9375 C107.63506348 95.30302979 108.39512695 95.66855957 109.17822266 96.04516602 C114.64570074 98.5820711 120.19223137 100.40259777 126 102 C121.43085486 108.23065246 116.70263137 110.76005379 109 112 C104.64395614 112.11124148 100.29152841 111.90319576 95.9375 111.75 C95.27761078 111.7279953 94.61772156 111.7059906 93.93783569 111.68331909 C73.92910151 111.00136804 53.96410469 109.45491887 34 108 C30.21043569 107.72513038 26.42082062 107.45097848 22.63110352 107.17822266 C20.44645296 107.01975393 18.26203393 106.85805499 16.07788086 106.69287109 C10.57760773 106.28562777 5.08122524 105.94458859 -0.4287262 105.70713806 C-3.42813433 105.57709436 -6.42673607 105.43156632 -9.42544556 105.28640747 C-10.86631649 105.22161576 -12.30757829 105.16489547 -13.74911499 105.11715698 C-24.20630496 104.77008226 -32.94377542 103.50693533 -40.4375 95.6875 C-45.76005631 88.63096642 -47.50553768 80.81703452 -46.44245911 71.98603821 C-45.67492971 68.54087754 -43.80458975 65.78100285 -41.8671875 62.89453125 C-41.20936531 61.87931145 -41.20936531 61.87931145 -40.53825378 60.84358215 C-39.04296786 58.55035007 -37.52392902 56.27428942 -36 54 C-35.44529022 53.16700378 -34.89058044 52.33400757 -34.31906128 51.47576904 C-30.01766899 45.02311708 -25.66936696 38.60277276 -21.3125 32.1875 C-18.76498268 28.43230396 -16.21929165 24.67587999 -13.67578125 20.91796875 C-13.07871368 20.03591766 -12.48164612 19.15386658 -11.8664856 18.24508667 C-7.80397006 12.22854764 -3.82053319 6.17400341 0 0 Z " fill="#92B1F3" transform="translate(271,426)"/>
<path d="M0 0 C1.1031958 0.49201904 2.2063916 0.98403809 3.34301758 1.4909668 C6.7387791 2.89220867 8.17923264 3.34787294 11.6875 2.8125 C12.41324219 2.71582031 13.13898438 2.61914062 13.88671875 2.51953125 C16.14149153 1.96521558 17.94489384 1.06448643 20 0 C19.88366211 1.12792969 19.76732422 2.25585938 19.64746094 3.41796875 C17.10445263 23.27827287 17.10445263 23.27827287 22.21765137 41.81732178 C28.4304162 48.46261432 37.47381039 51.66005731 45.82128906 54.74755859 C50.3294157 56.52380204 54.50700164 58.61065741 57.15324402 62.84561157 C58.12756437 65.32456009 58.26012658 67.19655145 58.2746582 69.85693359 C58.28419022 70.81828217 58.29372223 71.77963074 58.30354309 72.77011108 C58.30263168 73.8024588 58.30172028 74.83480652 58.30078125 75.8984375 C58.30506638 76.96615387 58.3093515 78.03387024 58.31376648 79.13394165 C58.31950718 81.39169608 58.32001196 83.649469 58.31567383 85.90722656 C58.31251818 89.35514036 58.33596211 92.80219254 58.36132812 96.25 C58.36360162 98.44531142 58.36430438 100.64062514 58.36328125 102.8359375 C58.372491 103.86423676 58.38170074 104.89253601 58.39118958 105.95199585 C58.35654407 111.33423314 58.23159873 115.46242376 55 120 C52.72607422 121.80761719 52.72607422 121.80761719 50.0546875 123.296875 C49.06799072 123.85866455 48.08129395 124.4204541 47.06469727 124.99926758 C45.48579712 125.86588013 45.48579712 125.86588013 43.875 126.75 C41.69351897 127.97699124 39.51253211 129.20486148 37.33203125 130.43359375 C36.25646973 131.03413574 35.1809082 131.63467773 34.07275391 132.25341797 C31.32636272 133.81449238 28.63114234 135.42901275 25.94921875 137.09765625 C25.19979004 137.56010742 24.45036133 138.02255859 23.67822266 138.49902344 C22.31779725 139.34359864 20.96394553 140.19890668 19.61865234 141.06738281 C14.95166641 143.91963345 10.53296198 145.49617986 5 145 C1.67055977 143.8736892 -1.19286435 142.19779521 -4.1875 140.375 C-5.45388306 139.64023437 -5.45388306 139.64023437 -6.74584961 138.890625 C-8.55440309 137.83683521 -10.35675318 136.77233954 -12.15332031 135.69824219 C-15.11590297 133.93085583 -18.0982238 132.20108493 -21.0859375 130.4765625 C-28.85559815 125.96449885 -28.85559815 125.96449885 -32.59765625 123.75 C-33.37633057 123.29109375 -34.15500488 122.8321875 -34.95727539 122.359375 C-38.22474878 120.1849646 -39.74403834 118.76788498 -41 115 C-41.11183587 113.36021742 -41.16888811 111.71641491 -41.19287109 110.07299805 C-41.20893402 109.07153244 -41.22499695 108.07006683 -41.24154663 107.03825378 C-41.28607401 102.46341695 -41.32705292 97.88872357 -41.35009766 93.3137207 C-41.36666301 90.90151323 -41.3939603 88.48935495 -41.43212891 86.07739258 C-41.48690966 82.59690931 -41.50877359 79.11757514 -41.5234375 75.63671875 C-41.54610687 74.56153488 -41.56877625 73.48635101 -41.59213257 72.37858582 C-41.56855958 64.01713043 -41.56855958 64.01713043 -38.86523438 60.51928711 C-35.90822376 57.91930479 -33.07249997 55.96886528 -29.6328125 54.0546875 C-29.03499969 53.71752716 -28.43718689 53.38036682 -27.82125854 53.0329895 C-25.92863622 51.96889659 -24.02727857 50.92171294 -22.125 49.875 C-20.85744821 49.16648103 -19.59051528 48.45685374 -18.32421875 47.74609375 C-15.98170355 46.4329898 -13.63542121 45.1278122 -11.28564453 43.82763672 C-10.20138184 43.2245166 -9.11711914 42.62139648 -8 42 C-7.04065804 41.59775208 -7.04065804 41.59775208 -6.06193542 41.18737793 C-3.83295659 40.25317658 -3.83295659 40.25317658 -1 38 C0.01668705 35.10526468 -0.04411322 32.34135707 -0.09765625 29.296875 C-0.08536484 28.45908508 -0.07307343 27.62129517 -0.06040955 26.75811768 C-0.02866963 24.08785485 -0.04495721 21.42034933 -0.0625 18.75 C-0.04939156 16.93747432 -0.03315198 15.1249684 -0.01367188 13.3125 C0.02719121 8.87441134 0.02499407 4.43818672 0 0 Z " fill="#072C76" transform="translate(433,268)"/>
<path d="M0 0 C3.73983192 1.62319094 7.19063466 3.6618064 10.6875 5.75 C11.6868457 6.33257568 12.68619141 6.91515137 13.71582031 7.51538086 C15.78850546 8.72761043 17.85700812 9.947018 19.92138672 11.17333984 C22.88627504 12.93252259 25.86471757 14.66618 28.84765625 16.39453125 C30.64924817 17.44913718 32.45006649 18.5050661 34.25 19.5625 C35.50816528 20.29388184 35.50816528 20.29388184 36.79174805 21.04003906 C37.95444214 21.73371582 37.95444214 21.73371582 39.140625 22.44140625 C39.81641602 22.84045166 40.49220703 23.23949707 41.18847656 23.65063477 C44.10000679 25.81937164 45.81025358 27.81677895 46.39440918 31.4594574 C46.40703796 32.83582115 46.40703796 32.83582115 46.41992188 34.23999023 C46.44378967 35.80697914 46.44378967 35.80697914 46.46813965 37.40562439 C46.46834106 38.52860428 46.46854248 39.65158417 46.46875 40.80859375 C46.48017029 42.54690208 46.48017029 42.54690208 46.49182129 44.32032776 C46.50262447 46.77057745 46.50547453 49.2208732 46.50097656 51.67114258 C46.50000448 55.42021465 46.54162281 59.16723919 46.5859375 62.91601562 C46.5911446 65.29687073 46.59383269 67.67773295 46.59375 70.05859375 C46.61014526 71.17954941 46.62654053 72.30050507 46.64343262 73.45542908 C46.57436705 81.23236938 46.57436705 81.23236938 43.6730957 85.10986328 C42.34991333 86.04548096 42.34991333 86.04548096 41 87 C40.42338623 87.41693115 39.84677246 87.8338623 39.25268555 88.26342773 C38.7194165 88.56708252 38.18614746 88.8707373 37.63671875 89.18359375 C37.00870361 89.54727051 36.38068848 89.91094727 35.73364258 90.28564453 C35.05841553 90.66575684 34.38318848 91.04586914 33.6875 91.4375 C32.18449101 92.29746993 30.68191345 93.1581942 29.1796875 94.01953125 C28.36081055 94.48697754 27.54193359 94.95442383 26.69824219 95.43603516 C23.69611383 97.1761396 20.72674554 98.96559127 17.7578125 100.76171875 C16.69087158 101.40117432 15.62393066 102.04062988 14.5246582 102.69946289 C12.41078258 103.96663147 10.30235488 105.24294037 8.19995117 106.52905273 C7.2226001 107.10985596 6.24524902 107.69065918 5.23828125 108.2890625 C3.9395105 109.07337646 3.9395105 109.07337646 2.61450195 109.87353516 C-1.16084988 111.50015514 -4.27863809 111.62996183 -8.15209961 110.21240234 C-8.81218018 109.84066895 -9.47226074 109.46893555 -10.15234375 109.0859375 C-10.91812744 108.66127197 -11.68391113 108.23660645 -12.47290039 107.79907227 C-13.6928772 107.09415649 -13.6928772 107.09415649 -14.9375 106.375 C-15.7927124 105.891521 -16.6479248 105.40804199 -17.52905273 104.90991211 C-20.36484312 103.29336104 -23.18409931 101.6509421 -26 100 C-27.03286133 99.39591309 -28.06572266 98.79182617 -29.12988281 98.16943359 C-32.2829728 96.31493025 -35.42500891 94.44325918 -38.5625 92.5625 C-39.55564209 91.97194824 -40.54878418 91.38139648 -41.57202148 90.77294922 C-42.96142944 89.92821045 -42.96142944 89.92821045 -44.37890625 89.06640625 C-45.1994751 88.57084229 -46.02004395 88.07527832 -46.86547852 87.56469727 C-49.94958108 85.30391569 -51.77741933 83.35921594 -52.40786743 79.50930786 C-52.42954483 78.11082108 -52.42954483 78.11082108 -52.45166016 76.68408203 C-52.4740274 75.6226297 -52.49639465 74.56117737 -52.5194397 73.46755981 C-52.52591522 72.3258432 -52.53239075 71.18412659 -52.5390625 70.0078125 C-52.55141937 68.82911591 -52.56377625 67.65041931 -52.57650757 66.43600464 C-52.59607531 63.94290127 -52.60730616 61.44972062 -52.61083984 58.95654297 C-52.62492425 55.14549714 -52.69225987 51.33773003 -52.76171875 47.52734375 C-52.77411729 45.10418124 -52.78333686 42.68099996 -52.7890625 40.2578125 C-52.81578033 39.12014435 -52.84249817 37.9824762 -52.87002563 36.81033325 C-52.80413036 29.12436373 -52.80413036 29.12436373 -50.58859253 26.02651978 C-48.80832355 24.4458302 -47.04667405 23.21120216 -45 22 C-44.04851074 21.3930127 -43.09702148 20.78602539 -42.11669922 20.16064453 C-41.18873535 19.65645996 -40.26077148 19.15227539 -39.3046875 18.6328125 C-37.74500244 17.77453857 -37.74500244 17.77453857 -36.15380859 16.89892578 C-35.07180176 16.31353027 -33.98979492 15.72813477 -32.875 15.125 C-24.9201665 10.77083589 -17.13522877 6.38487013 -9.6484375 1.2578125 C-5.9984363 -0.4756689 -4.03216682 -0.58365718 0 0 Z " fill="#062B75" transform="translate(200,303)"/>
<path d="M0 0 C2.7980957 1.21826172 2.7980957 1.21826172 5.67578125 2.9296875 C7.27764282 3.86880981 7.27764282 3.86880981 8.91186523 4.8269043 C10.03407471 5.50277588 11.15628418 6.17864746 12.3125 6.875 C13.47599001 7.56466224 14.64013883 8.25321422 15.80493164 8.94067383 C18.12458521 10.31167288 20.44007801 11.68933836 22.75292969 13.07177734 C25.61425871 14.77093348 28.49019821 16.436919 31.3828125 18.08203125 C32.16358154 18.52885254 32.94435059 18.97567383 33.7487793 19.43603516 C35.16664421 20.24674074 36.58722732 21.0527182 38.01098633 21.85302734 C41.48232003 23.86494013 43.91551288 25.56141729 46 29 C46.39440918 31.45272827 46.39440918 31.45272827 46.41992188 34.22412109 C46.44378967 35.78626846 46.44378967 35.78626846 46.46813965 37.37997437 C46.46834106 38.4998172 46.46854248 39.61966003 46.46875 40.7734375 C46.48017029 42.50818832 46.48017029 42.50818832 46.49182129 44.27798462 C46.50262528 46.7240381 46.5054742 49.17013773 46.50097656 51.61621094 C46.50000538 55.35430119 46.54160416 59.09033172 46.5859375 62.828125 C46.59114534 65.20572489 46.59383268 67.58333191 46.59375 69.9609375 C46.61014526 71.07673187 46.62654053 72.19252625 46.64343262 73.34213257 C46.5665169 82.00239235 46.5665169 82.00239235 43.77490234 85.55786133 C41.24500647 87.78437447 38.96318359 89.51285589 36.0078125 91.11328125 C35.06244629 91.6350293 34.11708008 92.15677734 33.14306641 92.69433594 C32.14710449 93.22833008 31.15114258 93.76232422 30.125 94.3125 C28.05093661 95.44712509 25.97802019 96.58384928 23.90625 97.72265625 C22.89691406 98.2758252 21.88757813 98.82899414 20.84765625 99.39892578 C18.34144195 100.80802672 15.89782307 102.27155003 13.46875 103.80859375 C12.80858887 104.22520264 12.14842773 104.64181152 11.46826172 105.07104492 C9.7555593 106.16649392 8.05310557 107.27792142 6.3515625 108.390625 C1.49213007 110.72405875 -2.97225524 112.02026144 -8.23730469 110.24609375 C-10.63982761 109.0704578 -12.90291488 107.76592011 -15.1875 106.375 C-16.03248047 105.88370605 -16.87746094 105.39241211 -17.74804688 104.88623047 C-19.5570746 103.83052318 -21.3601649 102.76458726 -23.15771484 101.68945312 C-26.10248194 99.93908478 -29.07248656 98.23948905 -32.05078125 96.546875 C-34.03462593 95.40759284 -36.01771724 94.26699766 -38 93.125 C-38.93739014 92.59052246 -39.87478027 92.05604492 -40.84057617 91.50537109 C-42.15699097 90.73314209 -42.15699097 90.73314209 -43.5 89.9453125 C-44.2734375 89.49687988 -45.046875 89.04844727 -45.84375 88.58642578 C-49.32690785 86.02374918 -51.68141324 84.05365729 -52.3742981 79.58721924 C-52.54771323 76.50019713 -52.58043928 73.43955348 -52.56640625 70.34765625 C-52.57260483 69.21476669 -52.57880341 68.08187714 -52.58518982 66.91465759 C-52.59228567 64.5216457 -52.58911817 62.12858441 -52.57641602 59.7355957 C-52.56256124 56.078663 -52.59661586 52.42429438 -52.63476562 48.76757812 C-52.63571694 46.44010354 -52.63385732 44.11262576 -52.62890625 41.78515625 C-52.64879356 40.14898094 -52.64879356 40.14898094 -52.66908264 38.47975159 C-52.56551763 30.0140923 -52.56551763 30.0140923 -49.8137207 26.48535156 C-47.0828741 24.07320246 -44.52992559 22.22206257 -41.3515625 20.44921875 C-40.27036133 19.83699463 -39.18916016 19.22477051 -38.07519531 18.59399414 C-36.93663086 17.96485107 -35.79806641 17.33570801 -34.625 16.6875 C-32.86029786 15.69822788 -31.09764483 14.70537793 -29.33520508 13.71208191 C-27.60969988 12.73994998 -25.88249758 11.77083233 -24.15527344 10.80175781 C-21.45439201 9.25947176 -18.79986149 7.67352772 -16.1640625 6.0234375 C-15.48649902 5.59973877 -14.80893555 5.17604004 -14.11083984 4.73950195 C-12.38619186 3.64864287 -10.6693065 2.54553724 -8.953125 1.44140625 C-5.54166145 -0.22371286 -3.759326 -0.32396502 0 0 Z " fill="#062B75" transform="translate(446,161)"/>
<path d="M0 0 C4.63367467 1.34772547 8.26857487 3.25805211 12.3125 5.875 C30.57349899 17.34760959 50.63020164 20.61128613 71.87890625 17.98828125 C72.66237427 17.89373657 73.44584229 17.79919189 74.25305176 17.70178223 C76.16899014 17.47023344 78.08453684 17.23544763 80 17 C83.37743542 23.70850451 86.75053291 30.41917466 90.11812496 37.13262558 C91.68201393 40.24997204 93.24738067 43.3665577 94.81616211 46.48144531 C96.62016405 50.06353664 98.41766642 53.64885477 100.21484375 57.234375 C100.77840073 58.35116638 101.3419577 59.46795776 101.92259216 60.61859131 C102.70328819 62.17975677 102.70328819 62.17975677 103.49975586 63.77246094 C103.95942245 64.68735291 104.41908905 65.60224487 104.89268494 66.54486084 C107.4742893 72.26879449 108.193128 78.50738894 106.140625 84.515625 C105.1595314 86.71953092 104.123545 88.86571573 103 91 C102.67 91.66 102.34 92.32 102 93 C96.43759249 93.47227988 92.67428908 91.91358001 87.75 89.625 C86.96786133 89.26704346 86.18572266 88.90908691 85.37988281 88.5402832 C66.65400566 79.81564172 51.0436456 69.1415575 36 55 C35.36191406 54.42636719 34.72382813 53.85273438 34.06640625 53.26171875 C19.35107445 39.46418311 5.48301245 19.51952433 0 0 Z " fill="#D1DBFC" transform="translate(296,435)"/>
<path d="M0 0 C3.87610795 1.12004418 7.23539737 3.19215757 10.703125 5.22265625 C11.7653125 5.84333984 12.8275 6.46402344 13.921875 7.10351562 C15.02015625 7.74998047 16.1184375 8.39644531 17.25 9.0625 C18.36375 9.71283203 19.4775 10.36316406 20.625 11.03320312 C28.85688973 15.85688973 28.85688973 15.85688973 30 17 C30.48480879 21.57163583 30.65636587 26.14120017 30.78955078 30.73510742 C30.84609891 32.27531676 30.9277808 33.8148269 31.03564453 35.35229492 C31.39002126 40.50075554 31.42242922 45.00576578 30 50 C26.16028181 53.82927282 21.92195142 55.83003386 17 58 C15.5992622 58.81806297 14.20999764 59.65680116 12.84375 60.53125 C11.7403125 61.1809375 10.636875 61.830625 9.5 62.5 C8.3759375 63.1703125 7.251875 63.840625 6.09375 64.53125 C2.82330012 66.08388782 1.52080859 66.69045797 -2 66 C-4.87666181 64.63588085 -7.55098464 62.99639897 -10.25 61.3125 C-11.69200206 60.43243545 -13.13471317 59.55353169 -14.578125 58.67578125 C-15.21137695 58.28302002 -15.84462891 57.89025879 -16.49707031 57.4855957 C-20.28229893 55.2389008 -24.15215928 53.13768929 -28 51 C-28 39.45 -28 27.9 -28 16 C-15.6875 9.125 -15.6875 9.125 -11.81518555 6.96533203 C-10.8075415 6.40185059 -9.79989746 5.83836914 -8.76171875 5.2578125 C-7.73006592 4.6817627 -6.69841309 4.10571289 -5.63549805 3.51220703 C-3.7156323 2.41061848 -1.84170566 1.22780377 0 0 Z " fill="#AFD752" transform="translate(196,325)"/>
<path d="M0 0 C2.8684082 1.3828125 2.8684082 1.3828125 5.80078125 3.125 C6.85974609 3.74890625 7.91871094 4.3728125 9.00976562 5.015625 C10.09966797 5.67046875 11.18957031 6.3253125 12.3125 7 C13.42173828 7.65484375 14.53097656 8.3096875 15.67382812 8.984375 C23.80333647 13.80333647 23.80333647 13.80333647 25 15 C25.08847743 17.52094076 25.11527301 20.01430893 25.09765625 22.53515625 C25.0962413 23.28840683 25.09482635 24.04165741 25.09336853 24.81773376 C25.08775376 27.2326956 25.07519883 29.64756601 25.0625 32.0625 C25.0574869 33.69596221 25.05292366 35.32942586 25.04882812 36.96289062 C25.03777954 40.97529585 25.02050506 44.98763241 25 49 C21.11742619 51.33875317 17.22166173 53.65301223 13.31176758 55.94580078 C11.98398077 56.72895016 10.66002504 57.51863324 9.34008789 58.31494141 C7.44087865 59.45918104 5.52908501 60.57913806 3.61328125 61.6953125 C3.02662186 62.05561554 2.43996246 62.41591858 1.83552551 62.78713989 C-0.90001599 64.35209791 -2.41202418 65.13648632 -5.54101562 64.41015625 C-6.35248047 63.94480469 -7.16394531 63.47945313 -8 63 C-8.94464111 62.50097168 -9.88928223 62.00194336 -10.86254883 61.48779297 C-11.88372803 60.91174316 -12.90490723 60.33569336 -13.95703125 59.7421875 C-15.06884766 59.11699219 -16.18066406 58.49179688 -17.32617188 57.84765625 C-18.48831901 57.1901709 -19.65042791 56.53261797 -20.8125 55.875 C-21.99398189 55.20935359 -23.175621 54.54398616 -24.35742188 53.87890625 C-27.23983905 52.25534066 -30.12062331 50.62894985 -33 49 C-35.69065586 19.45392014 -35.69065586 19.45392014 -31.49267578 12.50488281 C-27.63170123 8.94045459 -23.08004872 7.2510251 -18.11572266 5.72216797 C-15.17910934 4.71980215 -12.84023182 3.08695997 -10.3125 1.3125 C-6.47807783 -1.28817756 -4.47891818 -1.04008776 0 0 Z " fill="#FA7C9F" transform="translate(447,185)"/>
<path d="M0 0 C2.97607422 1.39868164 2.97607422 1.39868164 6.0546875 3.16015625 C7.55491455 4.00912476 7.55491455 4.00912476 9.08544922 4.87524414 C10.33600098 5.59703857 11.58655273 6.31883301 12.875 7.0625 C16.87625 9.351875 20.8775 11.64125 25 14 C25 25.55 25 37.1 25 49 C20.66875 51.495625 16.3375 53.99125 11.875 56.5625 C10.52003418 57.35470947 9.16506836 58.14691895 7.76904297 58.96313477 C6.68768066 59.57471436 5.60631836 60.18629395 4.4921875 60.81640625 C3.39245605 61.45006104 2.29272461 62.08371582 1.15966797 62.73657227 C-2.56378628 64.2254361 -4.19284849 64.15148179 -8 63 C-10.8684082 61.6171875 -10.8684082 61.6171875 -13.80078125 59.875 C-14.85974609 59.25109375 -15.91871094 58.6271875 -17.00976562 57.984375 C-18.09966797 57.32953125 -19.18957031 56.6746875 -20.3125 56 C-21.42173828 55.34515625 -22.53097656 54.6903125 -23.67382812 54.015625 C-31.80333647 49.19666353 -31.80333647 49.19666353 -33 48 C-33.48480879 43.42836417 -33.65636587 38.85879983 -33.78955078 34.26489258 C-33.84609891 32.72468324 -33.9277808 31.1851731 -34.03564453 29.64770508 C-34.39001997 24.49926315 -34.42281869 19.9941231 -33 15 C-29.15885286 11.17555804 -24.91617254 9.17676075 -20 7 C-18.60938422 6.17231618 -17.23138167 5.32223484 -15.87890625 4.43359375 C-14.78449219 3.77488281 -13.69007813 3.11617188 -12.5625 2.4375 C-11.45003906 1.75558594 -10.33757812 1.07367188 -9.19140625 0.37109375 C-5.38198859 -1.26551041 -3.97394164 -0.97906495 0 0 Z " fill="#CFDAFB" transform="translate(324,114)"/>
<path d="M0 0 C2.66551783 1.23681358 5.22014661 2.58960604 7.78100586 4.03295898 C8.8915332 4.65686523 10.00206055 5.28077148 11.14624023 5.92358398 C12.0068103 6.41181641 12.0068103 6.41181641 12.88476562 6.90991211 C14.6462316 7.90906195 16.41146891 8.90126215 18.17749023 9.89233398 C26.80529345 14.75646533 26.80529345 14.75646533 27.95678711 15.90795898 C28.04526454 18.42889975 28.07206012 20.92226791 28.05444336 23.44311523 C28.05302841 24.19636581 28.05161346 24.94961639 28.05015564 25.72569275 C28.04454087 28.14065458 28.03198594 30.55552499 28.01928711 32.97045898 C28.01427401 34.60392119 28.00971077 36.23738484 28.00561523 37.87084961 C27.99456665 41.88325483 27.97729217 45.89559139 27.95678711 49.90795898 C24.0742133 52.24671216 20.17844883 54.56097122 16.26855469 56.85375977 C14.94076788 57.63690915 13.61681215 58.42659223 12.296875 59.22290039 C10.39766576 60.36714003 8.48587212 61.48709704 6.57006836 62.60327148 C5.98340897 62.96357452 5.39674957 63.32387756 4.79231262 63.69509888 C2.03358511 65.27332123 0.53701901 66.04456511 -2.6159668 65.30224609 C-3.81745361 64.61207397 -3.81745361 64.61207397 -5.04321289 63.90795898 C-5.91679443 63.44446045 -6.79037598 62.98096191 -7.69042969 62.50341797 C-8.61509033 61.97562744 -9.53975098 61.44783691 -10.49243164 60.90405273 C-11.50499023 60.32848633 -12.51754883 59.75291992 -13.56079102 59.15991211 C-14.60686523 58.56114258 -15.65293945 57.96237305 -16.73071289 57.34545898 C-18.81775728 56.15631425 -20.9049874 54.96749543 -22.99243164 53.77905273 C-23.9137085 53.25239014 -24.83498535 52.72572754 -25.78417969 52.18310547 C-27.18583911 51.39191697 -28.60359395 50.62776846 -30.04321289 49.90795898 C-30.04321289 38.68795898 -30.04321289 27.46795898 -30.04321289 15.90795898 C-25.50571289 13.24733398 -20.96821289 10.58670898 -16.29321289 7.84545898 C-14.86783203 7.00104248 -13.44245117 6.15662598 -11.97387695 5.28662109 C-10.84691406 4.63443604 -9.71995117 3.98225098 -8.55883789 3.31030273 C-7.68267822 2.78442566 -7.68267822 2.78442566 -6.78881836 2.2479248 C-2.65102496 -0.11942125 -2.65102496 -0.11942125 0 0 Z " fill="#65CAD0" transform="translate(442.043212890625,325.092041015625)"/>
<path d="M0 0 C2.86079647 1.39797306 5.60454876 2.90827143 8.35253906 4.51733398 C9.41472656 5.13801758 10.47691406 5.75870117 11.57128906 6.39819336 C12.66957031 7.0446582 13.76785156 7.69112305 14.89941406 8.35717773 C16.01316406 9.00750977 17.12691406 9.6578418 18.27441406 10.32788086 C26.50630379 15.15156746 26.50630379 15.15156746 27.64941406 16.29467773 C29.32485932 26.92911337 30.49090487 38.80446143 27.64941406 49.29467773 C22.87765531 55.67715674 15.57509102 58.6712113 8.23657227 61.28442383 C5.56352321 62.22093406 5.56352321 62.22093406 3.13061523 63.98071289 C0.64941406 65.29467773 0.64941406 65.29467773 -1.79296875 65.17749023 C-4.83689092 64.12681989 -7.46941241 62.75768618 -10.27246094 61.16967773 C-11.37976563 60.54577148 -12.48707031 59.92186523 -13.62792969 59.27905273 C-14.77390625 58.62420898 -15.91988281 57.96936523 -17.10058594 57.29467773 C-18.27342821 56.63262592 -19.44660223 55.97116145 -20.62011719 55.31030273 C-29.18128001 50.46398366 -29.18128001 50.46398366 -30.35058594 49.29467773 C-30.83539472 44.7230419 -31.00695181 40.15347756 -31.14013672 35.55957031 C-31.19668484 34.01936097 -31.27836674 32.47985083 -31.38623047 30.94238281 C-31.74057764 25.79435162 -31.77131564 21.28887716 -30.35058594 16.29467773 C-26.51397229 12.47487291 -22.24923247 10.49256981 -17.35058594 8.29467773 C-15.87181308 7.38706394 -14.40904379 6.45197995 -12.97558594 5.47436523 C-11.76726005 4.70612435 -10.55892708 3.93789462 -9.35058594 3.16967773 C-8.73570312 2.75975586 -8.12082031 2.34983398 -7.48730469 1.92749023 C-2.97632125 -0.89308185 -2.97632125 -0.89308185 0 0 Z " fill="#FA8E02" transform="translate(198.3505859375,183.705322265625)"/>
<path d="M0 0 C9.97107362 -0.08289491 19.79783331 0.17612816 29.75 0.875 C31.08208952 0.96502354 32.41420268 1.05469797 33.74633789 1.14404297 C46.83555517 2.02938361 59.91909853 3.00008348 73 4 C73.18451025 17.6332574 73.18451025 17.6332574 72 24 C47.63470079 23.27004785 23.32229083 21.5701357 -1 20 C-0.67 13.4 -0.34 6.8 0 0 Z " fill="#8FAEF0" transform="translate(291,281)"/>
<path d="M0 0 C0.33 0 0.66 0 1 0 C0.93603027 1.25022949 0.87206055 2.50045898 0.80615234 3.78857422 C0.59119584 8.4662802 0.49741787 13.14021011 0.43847656 17.82226562 C0.39651157 19.84045884 0.32249083 21.85826625 0.21484375 23.87402344 C-0.35284349 33.6379222 -0.35284349 33.6379222 2 43 C6.22645875 47.59209813 11.92782542 49.79338572 17.64151001 52.00491333 C21.53672926 53.64837197 25.05101514 55.88404778 28.625 58.125 C29.86633139 58.87901538 31.10844087 59.6317523 32.3515625 60.3828125 C33.22554688 60.91648438 34.09953125 61.45015625 35 62 C34.22140625 62.61488281 33.4428125 63.22976562 32.640625 63.86328125 C28.18153192 67.47145272 25.89941617 70.05795114 25.25 75.8125 C25.14988885 77.2072304 25.06087116 78.60300686 25 80 C16.81330409 76.21753923 9.02970539 71.79889541 1.25 67.25 C0.24888184 66.67096924 -0.75223633 66.09193848 -1.78369141 65.49536133 C-3.18240479 64.67007935 -3.18240479 64.67007935 -4.609375 63.828125 C-5.45467773 63.3321582 -6.29998047 62.83619141 -7.17089844 62.32519531 C-7.77450195 61.88788086 -8.37810547 61.45056641 -9 61 C-9 60.34 -9 59.68 -9 59 C-7.50390625 57.78125 -7.50390625 57.78125 -5.5625 56.5 C-2.77468153 54.7134637 -2.77468153 54.7134637 -1 52 C-0.88112044 50.33600717 -0.82288056 48.66750725 -0.79467773 46.99951172 C-0.77473251 45.95858368 -0.75478729 44.91765564 -0.73423767 43.84518433 C-0.70916893 42.1545134 -0.70916893 42.1545134 -0.68359375 40.4296875 C-0.66281265 39.27832306 -0.64203156 38.12695862 -0.62062073 36.94070435 C-0.55508335 33.2521986 -0.49622072 29.56361997 -0.4375 25.875 C-0.39431877 23.37889862 -0.35070462 20.8828047 -0.30664062 18.38671875 C-0.19939769 12.25789019 -0.09763911 6.12898867 0 0 Z " fill="#6967F2" transform="translate(369,120)"/>
<path d="M0 0 C0.01417969 0.66386719 0.02835937 1.32773438 0.04296875 2.01171875 C0.35429744 7.96228239 0.35429744 7.96228239 3.375 13 C5.20508127 14.39434763 7.08566893 15.72377928 9 17 C9 17.66 9 18.32 9 19 C5.10632243 21.24622034 1.21018839 23.48810081 -2.68823242 25.72607422 C-4.01280167 26.48726886 -5.33670447 27.24962449 -6.65991211 28.01318359 C-8.56708566 29.11344844 -10.47665387 30.20945152 -12.38671875 31.3046875 C-12.97337814 31.6443454 -13.56003754 31.9840033 -14.16447449 32.33395386 C-17.41499087 34.19176744 -20.49272201 35.5970888 -24 37 C-24 50.53 -24 64.06 -24 78 C-24.33 78 -24.66 78 -25 78 C-24.99476318 77.37439178 -24.98952637 76.74878357 -24.98413086 76.10421753 C-24.93737996 69.58224584 -24.94649227 63.06203512 -24.98779297 56.54003906 C-24.99589519 54.10742751 -24.98983638 51.67472534 -24.96923828 49.2421875 C-24.94206391 45.74098428 -24.96610674 42.24326719 -25 38.7421875 C-24.9805835 37.65759247 -24.96116699 36.57299744 -24.94116211 35.45553589 C-24.95140496 29.71712081 -24.95140496 29.71712081 -27.84765625 25.00982666 C-30.01374769 23.36840235 -30.01374769 23.36840235 -32.28515625 22.09500122 C-32.85105469 21.73365082 -33.41695312 21.37230042 -34 21 C-34 20.34 -34 19.68 -34 19 C-33.03344482 18.45641846 -33.03344482 18.45641846 -32.04736328 17.90185547 C-29.07242391 16.22768637 -26.09870811 14.55135506 -23.125 12.875 C-22.11179688 12.30523437 -21.09859375 11.73546875 -20.0546875 11.1484375 C-14.26319542 7.88144197 -8.52791723 4.54646313 -2.85888672 1.07080078 C-1 0 -1 0 0 0 Z " fill="#6C69F4" transform="translate(271,162)"/>
<path d="M0 0 C2.475 0.99 2.475 0.99 5 2 C10.51594473 3.30376875 13.12601129 2.83371437 18 0 C18.66 0 19.32 0 20 0 C20 12.87 20 25.74 20 39 C15 37 15 37 13 36 C7.21963333 35.55535641 5.53026832 36.23486584 0 39 C0 26.13 0 13.26 0 0 Z " fill="#6763F6" transform="translate(187,268)"/>
<path d="M0 0 C3.465 1.485 3.465 1.485 7 3 C9.46342775 3.22886081 9.46342775 3.22886081 11.6875 2.8125 C12.41324219 2.71582031 13.13898438 2.61914062 13.88671875 2.51953125 C16.39939471 1.98426399 16.39939471 1.98426399 20 0 C20 13.2 20 26.4 20 40 C17.36 38.68 14.72 37.36 12 36 C6.90327393 35.55028888 4.60786394 35.69606803 0 38 C0 25.46 0 12.92 0 0 Z " fill="#6663F5" transform="translate(433,268)"/>
<path d="M0 0 C0.03996094 0.58007812 0.07992188 1.16015625 0.12109375 1.7578125 C0.64671702 5.69025328 1.06287181 8.18279681 4.13671875 10.86328125 C5.76285918 11.89206397 7.41809204 12.87657777 9.1015625 13.80859375 C9.72804688 14.20175781 10.35453125 14.59492188 11 15 C11 15.66 11 16.32 11 17 C8.84448242 18.51220703 8.84448242 18.51220703 5.85546875 20.2578125 C4.78619141 20.88300781 3.71691406 21.50820313 2.61523438 22.15234375 C1.48408203 22.80332031 0.35292969 23.45429688 -0.8125 24.125 C-1.93205078 24.78371094 -3.05160156 25.44242187 -4.20507812 26.12109375 C-12.61437306 31 -12.61437306 31 -16 31 C-18.97 25.39 -21.94 19.78 -25 14 C-21.74639424 11.39711539 -19.16992001 9.38373379 -15.64453125 7.421875 C-14.46407227 6.76445312 -14.46407227 6.76445312 -13.25976562 6.09375 C-12.45216797 5.6503125 -11.64457031 5.206875 -10.8125 4.75 C-9.58370117 4.06164062 -9.58370117 4.06164062 -8.33007812 3.359375 C-2.25620815 0 -2.25620815 0 0 0 Z " fill="#6865F6" transform="translate(392,377)"/>
<path d="M0 0 C0.88300781 0.50789063 1.76601562 1.01578125 2.67578125 1.5390625 C10.06961466 5.78301947 17.4941586 9.95603647 25 14 C23.5199653 18.16259759 21.4553071 21.58509308 19 25.25 C18.29875 26.30703125 17.5975 27.3640625 16.875 28.453125 C15 31 15 31 13 32 C11.30761719 31.2590332 11.30761719 31.2590332 9.296875 30.05078125 C8.56339844 29.61443359 7.82992187 29.17808594 7.07421875 28.72851562 C6.30722656 28.26123047 5.54023438 27.79394531 4.75 27.3125 C3.99847656 26.86455078 3.24695313 26.41660156 2.47265625 25.95507812 C-1.76510836 23.41463809 -5.91430829 20.77801013 -10 18 C-9.2575 17.4225 -8.515 16.845 -7.75 16.25 C-6.8425 15.5075 -5.935 14.765 -5 14 C-4.2575 13.46375 -3.515 12.9275 -2.75 12.375 C-0.0008881 8.64406243 -0.17287595 4.52934993 0 0 Z " fill="#6965F6" transform="translate(246,375)"/>
<path d="M0 0 C3.5386994 1.65139305 4.81070153 2.71605229 7 6 C7.46229036 10.99273591 7.08578614 13.99990685 4 18 C0.33476845 20.4434877 -2.73970357 20.84707648 -7 20 C-9.9375 17.5625 -9.9375 17.5625 -12 15 C-12.33 14.67 -12.66 14.34 -13 14 C-13.58968059 6.92383292 -13.58968059 6.92383292 -11.125 3.0625 C-7.50882222 -0.44731961 -4.97588405 -0.33734807 0 0 Z " fill="#6965F6" transform="translate(321,498)"/>
<path d="M0 0 C2.8100346 1.79363911 4.50940468 3.01880935 6 6 C6.37712577 10.99691647 6.09290612 13.99067725 3 18 C-0.74288753 20.49525835 -2.46632718 20.21150197 -6.76953125 19.59375 C-10.41912091 18.62223051 -11.94293909 17.11876977 -14 14 C-14.63578853 11.19004177 -14.63026343 8.8106342 -14 6 C-10.32759145 0.24655994 -6.71744997 -0.96515086 0 0 Z " fill="#6965F6" transform="translate(275,471)"/>
<path d="M0 0 C3.16664776 2.58501858 4.5764456 4.05996956 5.4375 8.00390625 C5.66167019 11.69570903 5.10710782 13.83219775 3.125 16.9375 C0.96461321 19.034346 0.00538418 19.95457007 -2.98828125 20.08984375 C-7.18133066 19.81500522 -10.14049031 19.5199934 -13.0625 16.3125 C-15.18735645 12.67968091 -15.70028854 11.11419517 -15 7 C-11.76809277 0.22838486 -7.13373101 -1.39926072 0 0 Z " fill="#6A66F7" transform="translate(371,481)"/>
<path d="M0 0 C3.15162094 4.7274314 4.1769552 10.12272242 5.6875 15.5625 C6.02072266 16.72458984 6.35394531 17.88667969 6.69726562 19.08398438 C7.16229492 20.7459082 7.16229492 20.7459082 7.63671875 22.44140625 C7.92248779 23.45920166 8.20825684 24.47699707 8.50268555 25.52563477 C9 28 9 28 8 30 C7.12601562 29.61908203 7.12601562 29.61908203 6.234375 29.23046875 C-0.38035687 26.45352943 -7.00976412 24.58541432 -14 23 C-12.72199484 19.55044666 -11.23881563 16.61909971 -9.1796875 13.57421875 C-8.64472656 12.77822266 -8.10976563 11.98222656 -7.55859375 11.16210938 C-7.00300781 10.34548828 -6.44742187 9.52886719 -5.875 8.6875 C-5.31167969 7.85154297 -4.74835938 7.01558594 -4.16796875 6.15429688 C-2.78279211 4.10000948 -1.39337781 2.04872962 0 0 Z " fill="#D0DAFB" transform="translate(286,404)"/>
</svg>
