<?xml version="1.0" encoding="UTF-8"?>
<svg version="1.1" xmlns="http://www.w3.org/2000/svg" width="640" height="640">
<path d="M0 0 C211.2 0 422.4 0 640 0 C640 211.2 640 422.4 640 640 C428.8 640 217.6 640 0 640 C0 428.8 0 217.6 0 0 Z " fill="#FEFEFE" transform="translate(0,0)"/>
<path d="M0 0 C0.99265869 0.56477051 1.98531738 1.12954102 3.00805664 1.71142578 C4.1230957 2.33750732 5.23813477 2.96358887 6.38696289 3.60864258 C7.56447415 4.29060279 8.74155013 4.9733151 9.91821289 5.65673828 C11.12738164 6.34611541 12.33702 7.03466946 13.54711914 7.72241211 C17.04027856 9.71662737 20.51271028 11.7440739 23.98071289 13.78173828 C24.89481934 14.31879395 25.80892578 14.85584961 26.75073242 15.40917969 C29.00473116 16.74596293 31.24674375 18.0992986 33.48071289 19.46923828 C34.11356201 19.8538623 34.74641113 20.23848633 35.3984375 20.63476562 C38.64519789 22.68194357 40.99619618 24.48890788 42.98071289 27.78173828 C43.32128906 30.43896484 43.32128906 30.43896484 43.27368164 33.42236328 C43.26401367 34.49228516 43.2543457 35.56220703 43.24438477 36.66455078 C43.21924805 37.77572266 43.19411133 38.88689453 43.16821289 40.03173828 C43.15467773 41.15837891 43.14114258 42.28501953 43.12719727 43.44580078 C43.09186934 46.22493092 43.04253809 49.00309191 42.98071289 51.78173828 C44.87176758 51.72373047 44.87176758 51.72373047 46.80102539 51.66455078 C52.29738879 51.66670032 57.47699287 52.59899836 62.85571289 53.65673828 C63.77223633 53.83076172 64.68875977 54.00478516 65.63305664 54.18408203 C67.47443203 54.53371027 69.31526319 54.88621785 71.15551758 55.24169922 C75.75787923 56.1214455 80.36920126 56.95150975 84.98071289 57.78173828 C84.93946289 56.54423828 84.89821289 55.30673828 84.85571289 54.03173828 C84.74348704 50.66496263 85.21074492 48.66245673 86.98071289 45.78173828 C88.89404297 44.32470703 88.89404297 44.32470703 91.25024414 42.96923828 C92.12922363 42.45643311 93.00820313 41.94362793 93.91381836 41.4152832 C95.33911865 40.60667847 95.33911865 40.60667847 96.79321289 39.78173828 C98.25718506 38.93929565 98.25718506 38.93929565 99.75073242 38.07983398 C101.79649781 36.90342848 103.84439614 35.73072528 105.89428711 34.56152344 C108.89537769 32.83094676 111.8643025 31.05530918 114.82836914 29.26220703 C116.67065584 28.16428021 118.51309764 27.06661361 120.35571289 25.96923828 C121.20367432 25.4478125 122.05163574 24.92638672 122.92529297 24.38916016 C127.06219503 21.96241908 130.82918067 19.83688902 135.80053711 20.21020508 C140.90609139 21.54862642 145.35022532 24.42525096 149.85571289 27.09423828 C151.49552124 28.04133667 151.49552124 28.04133667 153.16845703 29.00756836 C156.45113496 30.91276465 159.71741493 32.84357364 162.98071289 34.78173828 C164.40794678 35.62043457 164.40794678 35.62043457 165.86401367 36.47607422 C168.38921525 37.96224381 170.90623028 39.46085179 173.41821289 40.96923828 C174.16248535 41.41372314 174.90675781 41.85820801 175.67358398 42.31616211 C178.85349729 44.26532419 180.88400712 45.63667962 182.98071289 48.78173828 C183.2414093 51.12094116 183.2414093 51.12094116 183.25537109 53.90820312 C183.26490311 54.95293793 183.27443512 55.99767273 183.28425598 57.07406616 C183.28288887 58.76627792 183.28288887 58.76627792 183.28149414 60.49267578 C183.28577927 61.65296295 183.29006439 62.81325012 183.29447937 64.00869751 C183.3002265 66.46493883 183.30072013 68.92119718 183.29638672 71.37744141 C183.29323123 75.1348989 183.31666677 78.89156593 183.34204102 82.64892578 C183.3443144 85.03434145 183.34501732 87.41975925 183.34399414 89.80517578 C183.35320389 90.92926849 183.36241364 92.05336121 183.37190247 93.21151733 C183.36255928 94.78807602 183.36255928 94.78807602 183.35302734 96.39648438 C183.35365677 97.31787201 183.35428619 98.23925964 183.35493469 99.18856812 C182.79366767 103.07786824 181.18253967 105.82664935 178.11132812 108.26733398 C177.42756104 108.66009521 176.74379395 109.05285645 176.03930664 109.45751953 C174.91685547 110.11010742 174.91685547 110.11010742 173.77172852 110.77587891 C172.99506836 111.2109375 172.2184082 111.64599609 171.41821289 112.09423828 C170.24742187 112.77583008 170.24742187 112.77583008 169.05297852 113.47119141 C163.28316825 116.78173828 163.28316825 116.78173828 160.98071289 116.78173828 C161.32102539 117.54873047 161.66133789 118.31572266 162.01196289 119.10595703 C165.31011999 126.65838591 168.39716651 134.27715 171.35571289 141.96923828 C171.71342773 142.88987061 172.07114258 143.81050293 172.43969727 144.7590332 C172.7703418 145.62633057 173.10098633 146.49362793 173.44165039 147.38720703 C173.73861816 148.16217529 174.03558594 148.93714355 174.34155273 149.7355957 C174.98071289 151.78173828 174.98071289 151.78173828 174.98071289 154.78173828 C175.99133789 154.28673828 177.00196289 153.79173828 178.04321289 153.28173828 C181.63529835 151.52234949 185.07152179 150.97309266 188.98071289 151.78173828 C193.11814129 153.60080985 196.96522329 155.86406535 200.85571289 158.15673828 C201.95818359 158.79289063 203.0606543 159.42904297 204.1965332 160.08447266 C206.42024874 161.37014924 208.64036083 162.66208004 210.85668945 163.96044922 C213.63072524 165.57769734 216.41986944 167.16081209 219.22290039 168.72705078 C220.7258785 169.57795312 222.2285112 170.42946599 223.73071289 171.28173828 C224.73787354 171.83933838 224.73787354 171.83933838 225.76538086 172.40820312 C226.38815918 172.76865723 227.0109375 173.12911133 227.65258789 173.50048828 C228.17949219 173.79890625 228.70639648 174.09732422 229.24926758 174.40478516 C232.95314877 177.35034211 235.57642313 179.58565234 236.44897461 184.32531738 C236.64271999 187.47751771 236.67358364 190.59241649 236.64477539 193.75048828 C236.64955902 194.90415894 236.65434265 196.05782959 236.65927124 197.24645996 C236.66266696 199.68059659 236.65348773 202.11477902 236.63256836 204.54882812 C236.60580145 208.2694288 236.63233084 211.98701242 236.66430664 215.70751953 C236.66100249 218.07601576 236.65459615 220.44451011 236.64477539 222.81298828 C236.65489655 223.92250854 236.6650177 225.03202881 236.67544556 226.1751709 C236.54524358 234.77731991 236.54524358 234.77731991 233.82177734 238.29199219 C230.94298935 240.81479703 228.2037982 242.72750136 224.85961914 244.58642578 C223.98780251 245.07793625 223.98780251 245.07793625 223.09837341 245.57937622 C221.25277982 246.61660627 219.3985122 247.63699103 217.54321289 248.65673828 C216.33490135 249.33139377 215.12721406 250.00716857 213.92016602 250.68408203 C212.10926976 251.69941975 210.29699573 252.71149371 208.47817993 253.71258545 C205.3442347 255.43946499 202.25041254 257.20885147 199.19506836 259.07177734 C198.26729836 259.6287883 198.26729836 259.6287883 197.32078552 260.197052 C195.61242503 261.22664985 193.91330552 262.27153631 192.21484375 263.31738281 C188.46184876 265.0166705 186.05940434 265.21082571 181.98071289 264.78173828 C179.58129883 263.86376953 179.58129883 263.86376953 177.46508789 262.59423828 C176.68907227 262.14306641 175.91305664 261.69189453 175.11352539 261.22705078 C174.32719727 260.75009766 173.54086914 260.27314453 172.73071289 259.78173828 C171.14543612 258.83872798 169.55701929 257.9009707 167.96508789 256.96923828 C166.92433105 256.34082031 166.92433105 256.34082031 165.86254883 255.69970703 C163.88029433 254.56252647 163.88029433 254.56252647 160.98071289 254.78173828 C159.20271019 256.7610243 157.62485954 258.71565129 156.04321289 260.84423828 C155.07013465 262.11964982 154.09614193 263.39436405 153.12133789 264.66845703 C152.61280273 265.33796387 152.10426758 266.0074707 151.58032227 266.69726562 C148.87182074 270.22675068 146.08083919 273.68965158 143.29321289 277.15673828 C142.26838593 278.43531408 141.2436385 279.71395364 140.21899414 280.99267578 C139.48036133 281.91306641 138.74172852 282.83345703 137.98071289 283.78173828 C138.90883789 284.33861328 139.83696289 284.89548828 140.79321289 285.46923828 C144.21933354 287.95485522 145.32664362 288.94049008 146.98071289 292.78173828 C147.436019 296.6651623 147.42480098 300.52750624 147.41430664 304.43408203 C147.41954849 305.56697159 147.42479034 306.69986115 147.43019104 307.86708069 C147.43660717 310.26009299 147.43527957 312.65313685 147.42675781 315.04614258 C147.41825132 318.70272124 147.44701185 322.35773589 147.47875977 326.01416016 C147.480372 328.34163365 147.47979383 330.6691099 147.47680664 332.99658203 C147.48804062 334.08736557 147.4992746 335.17814911 147.510849 336.30198669 C147.45620078 342.2700827 147.20606368 346.18645754 142.98071289 350.78173828 C140.7824707 352.47265625 140.7824707 352.47265625 138.43383789 353.77392578 C137.58950195 354.25087891 136.74516602 354.72783203 135.87524414 355.21923828 C135.00254883 355.69361328 134.12985352 356.16798828 133.23071289 356.65673828 C132.34254883 357.15431641 131.45438477 357.65189453 130.53930664 358.16455078 C128.35984815 359.38317273 126.1739984 360.58823922 123.98071289 361.78173828 C128.20930088 369.88058218 133.2500053 377.42921792 138.29321289 385.03173828 C143.07094417 392.24486238 147.84162598 399.46167907 152.42993164 406.79736328 C153.05601318 407.79541992 153.68209473 408.79347656 154.32714844 409.82177734 C160.19910105 420.33285862 161.9374794 432.22555143 158.85571289 443.90673828 C154.48332068 456.531251 147.61354798 466.19161887 135.98071289 472.78173828 C135.18793945 473.24837891 134.39516602 473.71501953 133.57836914 474.19580078 C127.01393457 477.49247717 120.81389637 478.29637713 113.57055664 478.82861328 C112.53365692 478.9096228 111.4967572 478.99063232 110.42843628 479.07409668 C96.89092164 480.08120488 83.32658524 480.62164524 69.76517487 481.19054794 C63.18039078 481.46861197 56.59618661 481.76029175 50.01196289 482.05126953 C48.94616186 482.09815635 48.94616186 482.09815635 47.8588295 482.14599037 C37.27695172 482.61283653 26.70383378 483.16349923 16.13327026 483.8397522 C-27.92566369 486.65349197 -27.92566369 486.65349197 -45.26928711 472.46923828 C-53.68858482 464.76430523 -58.73779356 454.72878952 -59.29272461 443.34033203 C-59.33238935 441.63342591 -59.36607002 439.92637202 -59.39428711 438.21923828 C-59.45036133 436.97303711 -59.45036133 436.97303711 -59.50756836 435.70166016 C-59.69971908 421.77073256 -50.56964348 408.76287667 -44.33178711 396.71923828 C-43.47526138 395.05603581 -42.6191396 393.39262525 -41.76342773 391.72900391 C-36.27148836 381.06617169 -30.70039447 370.44575686 -25.10324097 359.83786011 C-22.69073699 355.26164864 -20.29297727 350.67770034 -17.89428711 346.09423828 C-17.17499023 344.72041992 -17.17499023 344.72041992 -16.44116211 343.31884766 C-15.30035515 341.13990636 -14.15972571 338.96087239 -13.01928711 336.78173828 C-15.90002202 337.74198325 -18.0070868 338.89713941 -20.58959961 340.46923828 C-21.48678711 341.00291016 -22.38397461 341.53658203 -23.30834961 342.08642578 C-25.18173608 343.20632899 -27.04909679 344.33638151 -28.90991211 345.47705078 C-39.59109696 351.77621108 -39.59109696 351.77621108 -46.01928711 350.78173828 C-49.94838348 349.19590973 -53.42379821 347.00740676 -57.01928711 344.78173828 C-58.7435133 343.80909152 -60.46795685 342.83676504 -62.19900513 341.87631226 C-64.63580867 340.52256906 -67.05871394 339.14483383 -69.48242188 337.76782227 C-70.72287676 337.06448844 -71.96476065 336.36366941 -73.20800781 335.6652832 C-75.04038409 334.63569418 -76.86810928 333.59824661 -78.69506836 332.55908203 C-79.76668213 331.95314209 -80.8382959 331.34720215 -81.94238281 330.72290039 C-90.13206601 325.55618047 -90.13206601 325.55618047 -92.01928711 321.78173828 C-92.134824 320.14946761 -92.18881021 318.51265285 -92.2121582 316.87646484 C-92.22822113 315.85490295 -92.24428406 314.83334106 -92.26083374 313.78082275 C-92.30526452 309.1017723 -92.34635592 304.42286444 -92.36938477 299.74365234 C-92.38593893 297.27610845 -92.41322145 294.8086124 -92.45141602 292.34130859 C-92.50619841 288.78474023 -92.52806286 285.22929684 -92.54272461 281.67236328 C-92.56539398 280.57216858 -92.58806335 279.47197388 -92.61141968 278.33843994 C-92.58785078 269.78617892 -92.58785078 269.78617892 -89.70849609 266.18457031 C-85.84924385 262.73629427 -85.84924385 262.73629427 -83.46850586 261.44580078 C-82.85297852 261.10419922 -82.23745117 260.76259766 -81.60327148 260.41064453 C-80.66451172 259.91371094 -80.66451172 259.91371094 -79.70678711 259.40673828 C-78.73902344 258.875 -78.73902344 258.875 -77.75170898 258.33251953 C-76.1802777 257.47114238 -74.60060736 256.62482377 -73.01928711 255.78173828 C-73.5727939 250.84864813 -74.63815887 246.67942237 -76.48803711 242.07861328 C-76.72840698 241.47414368 -76.96877686 240.86967407 -77.21643066 240.24688721 C-77.97687229 238.33887116 -78.7477244 236.4352806 -79.51928711 234.53173828 C-80.03693963 233.24036217 -80.55387308 231.94869758 -81.07006836 230.65673828 C-82.01353827 228.29681882 -82.96043972 225.93826629 -83.91186523 223.58154297 C-84.66842554 221.66879306 -85.36882606 219.73312142 -86.01928711 217.78173828 C-86.86491211 218.11173828 -87.71053711 218.44173828 -88.58178711 218.78173828 C-95.13087831 220.68692845 -98.54555951 220.27983765 -104.53881836 217.10595703 C-106.64589289 215.91016295 -108.74316292 214.69697422 -110.83178711 213.46923828 C-112.47945068 212.5199646 -112.47945068 212.5199646 -114.16040039 211.55151367 C-117.45623031 209.64409587 -120.73813175 207.7142597 -124.01928711 205.78173828 C-125.8642386 204.71385614 -127.70928283 203.6461342 -129.55444336 202.57861328 C-131.16909283 201.62780797 -132.78246736 200.67483274 -134.39428711 199.71923828 C-135.1301001 199.29151123 -135.86591309 198.86378418 -136.62402344 198.4230957 C-137.29844482 198.01422119 -137.97286621 197.60534668 -138.66772461 197.18408203 C-139.24699707 196.83853271 -139.82626953 196.4929834 -140.4230957 196.13696289 C-143.38458222 193.62255304 -144.83102601 191.32744268 -145.3086853 187.40565491 C-145.4507249 184.38258939 -145.48746791 181.37457256 -145.48803711 178.34814453 C-145.49565063 177.23745102 -145.50326416 176.12675751 -145.5111084 174.98240662 C-145.52190053 172.63648728 -145.52476613 170.29051992 -145.52026367 167.94458008 C-145.51929144 164.36018588 -145.56092499 160.77793288 -145.60522461 157.19384766 C-145.61043184 154.91195107 -145.6131198 152.63004706 -145.61303711 150.34814453 C-145.62943237 149.27923477 -145.64582764 148.21032501 -145.66271973 147.10902405 C-145.58582846 138.80905233 -145.58582846 138.80905233 -142.71044922 135.20361328 C-140.60426249 133.30817898 -138.859746 131.75768127 -136.36694336 130.46533203 C-135.68365967 130.09972168 -135.00037598 129.73411133 -134.29638672 129.35742188 C-133.56556885 128.98182129 -132.83475098 128.6062207 -132.08178711 128.21923828 C-126.70774677 125.37392738 -121.42665069 122.45944969 -116.26147461 119.24658203 C-115.29588623 118.65111572 -114.33029785 118.05564941 -113.33544922 117.44213867 C-111.45439388 116.27547276 -109.58229188 115.09421164 -107.72070312 113.89672852 C-102.16626838 110.48607468 -97.58727636 108.25925164 -91.01928711 109.78173828 C-88.20663688 111.00636721 -85.77451228 112.58430452 -83.26928711 114.34423828 C-78.72206977 117.62349722 -78.72206977 117.62349722 -73.38256836 118.94189453 C-69.97611164 117.26963396 -68.13295233 114.6565132 -65.95678711 111.65673828 C-65.00084748 110.38768609 -64.04377353 109.11948773 -63.08569336 107.85205078 C-62.34150146 106.8567334 -62.34150146 106.8567334 -61.58227539 105.84130859 C-58.42341585 101.67883764 -55.1034481 97.64300814 -51.81591797 93.58203125 C-49.16597016 90.34974324 -49.16597016 90.34974324 -47.01928711 86.78173828 C-47.76178711 86.55486328 -48.50428711 86.32798828 -49.26928711 86.09423828 C-52.83565872 84.39210638 -53.98407245 83.21340686 -56.01928711 79.78173828 C-56.60760848 75.95909096 -56.55576472 72.17405414 -56.51538086 68.31298828 C-56.51683609 67.1999231 -56.51829132 66.08685791 -56.51979065 64.94006348 C-56.51813279 62.58989847 -56.5065843 60.23972248 -56.48583984 57.88964844 C-56.4568908 54.29461497 -56.46523328 50.70105689 -56.47827148 47.10595703 C-56.47203372 44.82079362 -56.46364249 42.53563486 -56.45288086 40.25048828 C-56.4558165 39.17641724 -56.45875214 38.10234619 -56.46177673 36.99572754 C-56.34215215 27.52187822 -56.34215215 27.52187822 -53.01928711 23.78173828 C-50.99243164 22.21118164 -50.99243164 22.21118164 -48.65209961 20.87158203 C-47.77626221 20.36199951 -46.9004248 19.85241699 -45.99804688 19.32739258 C-45.05630615 18.79670166 -44.11456543 18.26601074 -43.14428711 17.71923828 C-42.17354248 17.16212158 -41.20279785 16.60500488 -40.20263672 16.03100586 C-38.16891933 14.86477577 -36.13265158 13.70298301 -34.09399414 12.54541016 C-31.08714226 10.82066043 -28.11136631 9.05180401 -25.14038086 7.26611328 C-23.28768781 6.16686579 -21.43482966 5.0678965 -19.58178711 3.96923828 C-18.72536621 3.44773193 -17.86894531 2.92622559 -16.98657227 2.38891602 C-16.17365723 1.91397705 -15.36074219 1.43903809 -14.52319336 0.94970703 C-13.82009033 0.52971436 -13.1169873 0.10972168 -12.39257812 -0.32299805 C-8.00526658 -1.97799974 -4.3149759 -1.74106329 0 0 Z " fill="#072B76" transform="translate(275.019287109375,101.21826171875)"/>
<path d="M0 0 C0.99265869 0.56477051 1.98531738 1.12954102 3.00805664 1.71142578 C4.1230957 2.33750732 5.23813477 2.96358887 6.38696289 3.60864258 C7.56447415 4.29060279 8.74155013 4.9733151 9.91821289 5.65673828 C11.12738164 6.34611541 12.33702 7.03466946 13.54711914 7.72241211 C17.04027856 9.71662737 20.51271028 11.7440739 23.98071289 13.78173828 C24.89481934 14.31879395 25.80892578 14.85584961 26.75073242 15.40917969 C29.00473116 16.74596293 31.24674375 18.0992986 33.48071289 19.46923828 C34.11356201 19.8538623 34.74641113 20.23848633 35.3984375 20.63476562 C38.64519789 22.68194357 40.99619618 24.48890788 42.98071289 27.78173828 C43.32128906 30.43896484 43.32128906 30.43896484 43.27368164 33.42236328 C43.26401367 34.49228516 43.2543457 35.56220703 43.24438477 36.66455078 C43.21924805 37.77572266 43.19411133 38.88689453 43.16821289 40.03173828 C43.15467773 41.15837891 43.14114258 42.28501953 43.12719727 43.44580078 C43.09186934 46.22493092 43.04253809 49.00309191 42.98071289 51.78173828 C44.87176758 51.72373047 44.87176758 51.72373047 46.80102539 51.66455078 C52.29738879 51.66670032 57.47699287 52.59899836 62.85571289 53.65673828 C63.77223633 53.83076172 64.68875977 54.00478516 65.63305664 54.18408203 C67.47443203 54.53371027 69.31526319 54.88621785 71.15551758 55.24169922 C75.75787923 56.1214455 80.36920126 56.95150975 84.98071289 57.78173828 C84.93946289 56.54423828 84.89821289 55.30673828 84.85571289 54.03173828 C84.74348704 50.66496263 85.21074492 48.66245673 86.98071289 45.78173828 C88.89404297 44.32470703 88.89404297 44.32470703 91.25024414 42.96923828 C92.12922363 42.45643311 93.00820313 41.94362793 93.91381836 41.4152832 C95.33911865 40.60667847 95.33911865 40.60667847 96.79321289 39.78173828 C98.25718506 38.93929565 98.25718506 38.93929565 99.75073242 38.07983398 C101.79649781 36.90342848 103.84439614 35.73072528 105.89428711 34.56152344 C108.89537769 32.83094676 111.8643025 31.05530918 114.82836914 29.26220703 C116.67065584 28.16428021 118.51309764 27.06661361 120.35571289 25.96923828 C121.20367432 25.4478125 122.05163574 24.92638672 122.92529297 24.38916016 C127.06219503 21.96241908 130.82918067 19.83688902 135.80053711 20.21020508 C140.90609139 21.54862642 145.35022532 24.42525096 149.85571289 27.09423828 C151.49552124 28.04133667 151.49552124 28.04133667 153.16845703 29.00756836 C156.45113496 30.91276465 159.71741493 32.84357364 162.98071289 34.78173828 C164.40794678 35.62043457 164.40794678 35.62043457 165.86401367 36.47607422 C168.38921525 37.96224381 170.90623028 39.46085179 173.41821289 40.96923828 C174.16248535 41.41372314 174.90675781 41.85820801 175.67358398 42.31616211 C178.85349729 44.26532419 180.88400712 45.63667962 182.98071289 48.78173828 C183.2414093 51.12094116 183.2414093 51.12094116 183.25537109 53.90820312 C183.26490311 54.95293793 183.27443512 55.99767273 183.28425598 57.07406616 C183.28288887 58.76627792 183.28288887 58.76627792 183.28149414 60.49267578 C183.28577927 61.65296295 183.29006439 62.81325012 183.29447937 64.00869751 C183.3002265 66.46493883 183.30072013 68.92119718 183.29638672 71.37744141 C183.29323123 75.1348989 183.31666677 78.89156593 183.34204102 82.64892578 C183.3443144 85.03434145 183.34501732 87.41975925 183.34399414 89.80517578 C183.35320389 90.92926849 183.36241364 92.05336121 183.37190247 93.21151733 C183.36255928 94.78807602 183.36255928 94.78807602 183.35302734 96.39648438 C183.35365677 97.31787201 183.35428619 98.23925964 183.35493469 99.18856812 C182.79366767 103.07786824 181.18253967 105.82664935 178.11132812 108.26733398 C177.42756104 108.66009521 176.74379395 109.05285645 176.03930664 109.45751953 C174.91685547 110.11010742 174.91685547 110.11010742 173.77172852 110.77587891 C172.99506836 111.2109375 172.2184082 111.64599609 171.41821289 112.09423828 C170.24742187 112.77583008 170.24742187 112.77583008 169.05297852 113.47119141 C163.28316825 116.78173828 163.28316825 116.78173828 160.98071289 116.78173828 C161.32102539 117.54873047 161.66133789 118.31572266 162.01196289 119.10595703 C165.31011999 126.65838591 168.39716651 134.27715 171.35571289 141.96923828 C171.71342773 142.88987061 172.07114258 143.81050293 172.43969727 144.7590332 C172.7703418 145.62633057 173.10098633 146.49362793 173.44165039 147.38720703 C173.73861816 148.16217529 174.03558594 148.93714355 174.34155273 149.7355957 C174.98071289 151.78173828 174.98071289 151.78173828 174.98071289 154.78173828 C175.99133789 154.28673828 177.00196289 153.79173828 178.04321289 153.28173828 C181.63529835 151.52234949 185.07152179 150.97309266 188.98071289 151.78173828 C193.11814129 153.60080985 196.96522329 155.86406535 200.85571289 158.15673828 C201.95818359 158.79289063 203.0606543 159.42904297 204.1965332 160.08447266 C206.42024874 161.37014924 208.64036083 162.66208004 210.85668945 163.96044922 C213.63072524 165.57769734 216.41986944 167.16081209 219.22290039 168.72705078 C220.7258785 169.57795312 222.2285112 170.42946599 223.73071289 171.28173828 C224.73787354 171.83933838 224.73787354 171.83933838 225.76538086 172.40820312 C226.38815918 172.76865723 227.0109375 173.12911133 227.65258789 173.50048828 C228.17949219 173.79890625 228.70639648 174.09732422 229.24926758 174.40478516 C232.95314877 177.35034211 235.57642313 179.58565234 236.44897461 184.32531738 C236.64271999 187.47751771 236.67358364 190.59241649 236.64477539 193.75048828 C236.64955902 194.90415894 236.65434265 196.05782959 236.65927124 197.24645996 C236.66266696 199.68059659 236.65348773 202.11477902 236.63256836 204.54882812 C236.60580145 208.2694288 236.63233084 211.98701242 236.66430664 215.70751953 C236.66100249 218.07601576 236.65459615 220.44451011 236.64477539 222.81298828 C236.65489655 223.92250854 236.6650177 225.03202881 236.67544556 226.1751709 C236.54524358 234.77731991 236.54524358 234.77731991 233.82177734 238.29199219 C230.94298935 240.81479703 228.2037982 242.72750136 224.85961914 244.58642578 C223.98780251 245.07793625 223.98780251 245.07793625 223.09837341 245.57937622 C221.25277982 246.61660627 219.3985122 247.63699103 217.54321289 248.65673828 C216.33490135 249.33139377 215.12721406 250.00716857 213.92016602 250.68408203 C212.10926976 251.69941975 210.29699573 252.71149371 208.47817993 253.71258545 C205.3442347 255.43946499 202.25041254 257.20885147 199.19506836 259.07177734 C198.26729836 259.6287883 198.26729836 259.6287883 197.32078552 260.197052 C195.61242503 261.22664985 193.91330552 262.27153631 192.21484375 263.31738281 C188.46184876 265.0166705 186.05940434 265.21082571 181.98071289 264.78173828 C179.58129883 263.86376953 179.58129883 263.86376953 177.46508789 262.59423828 C176.68907227 262.14306641 175.91305664 261.69189453 175.11352539 261.22705078 C174.32719727 260.75009766 173.54086914 260.27314453 172.73071289 259.78173828 C171.14543612 258.83872798 169.55701929 257.9009707 167.96508789 256.96923828 C166.92433105 256.34082031 166.92433105 256.34082031 165.86254883 255.69970703 C163.88029433 254.56252647 163.88029433 254.56252647 160.98071289 254.78173828 C159.20271019 256.7610243 157.62485954 258.71565129 156.04321289 260.84423828 C155.07013465 262.11964982 154.09614193 263.39436405 153.12133789 264.66845703 C152.61280273 265.33796387 152.10426758 266.0074707 151.58032227 266.69726562 C148.87182074 270.22675068 146.08083919 273.68965158 143.29321289 277.15673828 C142.26838593 278.43531408 141.2436385 279.71395364 140.21899414 280.99267578 C139.48036133 281.91306641 138.74172852 282.83345703 137.98071289 283.78173828 C138.90883789 284.33861328 139.83696289 284.89548828 140.79321289 285.46923828 C144.21933354 287.95485522 145.32664362 288.94049008 146.98071289 292.78173828 C147.436019 296.6651623 147.42480098 300.52750624 147.41430664 304.43408203 C147.41954849 305.56697159 147.42479034 306.69986115 147.43019104 307.86708069 C147.43660717 310.26009299 147.43527957 312.65313685 147.42675781 315.04614258 C147.41825132 318.70272124 147.44701185 322.35773589 147.47875977 326.01416016 C147.480372 328.34163365 147.47979383 330.6691099 147.47680664 332.99658203 C147.48804062 334.08736557 147.4992746 335.17814911 147.510849 336.30198669 C147.45618232 342.27209899 147.20239011 346.18148052 142.98071289 350.78173828 C140.81420898 352.47265625 140.81420898 352.47265625 138.50415039 353.77392578 C137.66883789 354.25087891 136.83352539 354.72783203 135.97290039 355.21923828 C135.10922852 355.69361328 134.24555664 356.16798828 133.35571289 356.65673828 C132.48430664 357.15431641 131.61290039 357.65189453 130.71508789 358.16455078 C124.29557381 361.78173828 124.29557381 361.78173828 121.98071289 361.78173828 C120.65893555 360.04785156 120.65893555 360.04785156 119.14477539 357.60205078 C118.58121338 356.70188232 118.01765137 355.80171387 117.43701172 354.87426758 C116.83268311 353.89498291 116.22835449 352.91569824 115.60571289 351.90673828 C114.33258479 349.87317643 113.05782107 347.84063773 111.78149414 345.80908203 C111.14163574 344.78927246 110.50177734 343.76946289 109.8425293 342.71875 C107.22546083 338.59032964 104.5172395 334.527482 101.79321289 330.46923828 C101.31215088 329.73745361 100.83108887 329.00566895 100.33544922 328.25170898 C97.94604662 324.62833882 95.49519097 321.11808227 92.82446289 317.69580078 C84.65368606 306.86952148 83.51252142 297.81662456 83.93676758 284.40625 C83.9765105 282.03271461 83.87550809 279.74287878 83.67602539 277.37939453 C83.09133213 268.93677823 83.09133213 268.93677823 85.48461914 265.82861328 C89.17704919 263.19838914 93.2695488 261.97925643 97.84790039 262.29345703 C104.62276719 263.84447965 110.67071676 268.05684332 116.38696289 271.86376953 C117.96302365 272.9481081 117.96302365 272.9481081 119.98071289 272.78173828 C121.58239015 271.07991915 121.58239015 271.07991915 123.29321289 268.78173828 C124.3431543 267.43208984 124.3431543 267.43208984 125.41430664 266.05517578 C125.81246582 265.5430957 126.210625 265.03101563 126.62084961 264.50341797 C128.16600982 262.54713973 129.7440717 260.62051471 131.32836914 258.69580078 C132.20078247 257.63425781 132.20078247 257.63425781 133.09082031 256.55126953 C134.25400355 255.1378788 135.41947954 253.72637137 136.58740234 252.31689453 C137.1271167 251.65818359 137.66683105 250.99947266 138.22290039 250.32080078 C138.7061377 249.73508301 139.189375 249.14936523 139.68725586 248.54589844 C141.03668146 246.70540214 142.01947469 244.84769154 142.98071289 242.78173828 C142.48700195 242.37181641 141.99329102 241.96189453 141.48461914 241.53955078 C140.84395508 241.00072266 140.20329102 240.46189453 139.54321289 239.90673828 C138.90512695 239.37306641 138.26704102 238.83939453 137.60961914 238.28955078 C135.5590031 236.39137862 135.01708665 235.35643498 134.840271 232.56278992 C134.83344299 231.64077286 134.82661499 230.7187558 134.81958008 229.76879883 C134.80997253 228.72398849 134.80036499 227.67917816 134.79046631 226.60270691 C134.78409149 224.90275322 134.78409149 224.90275322 134.77758789 223.16845703 C134.77188782 222.00675491 134.76618774 220.8450528 134.76031494 219.64814758 C134.75085493 217.18593255 134.744327 214.7237048 134.74047852 212.26147461 C134.73077979 208.49521755 134.69976781 204.72950763 134.66821289 200.96337891 C134.66168234 198.5734082 134.65643207 196.18343357 134.65258789 193.79345703 C134.64024109 192.66622726 134.62789429 191.5389975 134.61517334 190.37760925 C134.61817444 189.32334244 134.62117554 188.26907562 134.62426758 187.18286133 C134.62062195 186.25845749 134.61697632 185.33405365 134.61322021 184.38163757 C135.18236825 180.35508771 136.83650031 177.64750213 140.06542969 175.2043457 C141.23585815 174.55236206 141.23585815 174.55236206 142.42993164 173.88720703 C143.27749023 173.40703125 144.12504883 172.92685547 144.99829102 172.43212891 C145.87936523 171.949375 146.76043945 171.46662109 147.66821289 170.96923828 C148.56088867 170.46714844 149.45356445 169.96505859 150.37329102 169.44775391 C152.56977114 168.21443619 154.77203406 166.99303128 156.98071289 165.78173828 C152.70651891 153.28295891 147.97161646 141.01116776 142.98071289 128.78173828 C142.32071289 129.11173828 141.66071289 129.44173828 140.98071289 129.78173828 C135.89858531 131.47578081 132.19960588 131.72309901 127.28637695 129.63867188 C124.16750057 128.00316353 121.13555022 126.26430282 118.10571289 124.46923828 C117.01250732 123.83711426 115.91930176 123.20499023 114.79296875 122.55371094 C111.51142427 120.6474932 108.2455961 118.71631617 104.98071289 116.78173828 C103.12548185 115.7019027 101.2700308 114.62244496 99.41430664 113.54345703 C97.7892383 112.58353368 96.16544789 111.62144215 94.54321289 110.65673828 C93.79894043 110.22063232 93.05466797 109.78452637 92.2878418 109.33520508 C88.7224213 107.16670022 86.45371732 105.71237342 84.98071289 101.78173828 C84.66186523 99.21630859 84.66186523 99.21630859 84.56665039 96.35986328 C84.52797852 95.33505859 84.48930664 94.31025391 84.44946289 93.25439453 C84.40305664 91.65917969 84.40305664 91.65917969 84.35571289 90.03173828 C84.31704102 88.95279297 84.27836914 87.87384766 84.23852539 86.76220703 C84.14436658 84.10222054 84.05873902 81.44223888 83.98071289 78.78173828 C83.25070068 78.67104004 82.52068848 78.5603418 81.76855469 78.44628906 C78.4015214 77.93475338 75.03486763 77.4207592 71.66821289 76.90673828 C69.94634766 76.64570313 69.94634766 76.64570313 68.18969727 76.37939453 C49.85309981 73.57436263 49.85309981 73.57436263 42.98071289 71.78173828 C43.13540039 73.57611328 43.13540039 73.57611328 43.29321289 75.40673828 C43.56788749 78.59296361 42.95232408 79.82756775 41.23852539 82.59423828 C36.98113347 87.35307473 31.05651185 90.10251915 25.54321289 93.15673828 C24.36179782 93.81932817 23.18089112 94.4828253 22.00048828 95.1472168 C19.69434737 96.44465669 17.3857674 97.73732802 15.07543945 99.02734375 C12.50680082 100.48350005 9.98095804 101.97861299 7.47290039 103.53564453 C-3.16993803 110.13571358 -3.16993803 110.13571358 -8.52709961 109.66064453 C-12.95669459 108.09848329 -16.88634444 105.56828367 -20.79248047 102.98510742 C-24.2564007 100.69977871 -25.75083663 99.78173828 -30.01928711 99.78173828 C-31.8548506 101.74294134 -33.38604128 103.62260982 -34.95678711 105.78173828 C-35.91993989 107.05905677 -36.88486099 108.33504332 -37.85131836 109.60986328 C-38.61436279 110.6240332 -38.61436279 110.6240332 -39.39282227 111.65869141 C-42.77230744 116.06997977 -46.33673064 120.33448749 -49.86669922 124.62548828 C-50.39400635 125.27001953 -50.92131348 125.91455078 -51.46459961 126.57861328 C-51.93397949 127.1493457 -52.40335937 127.72007812 -52.88696289 128.30810547 C-54.10783772 129.80021391 -54.10783772 129.80021391 -55.01928711 131.78173828 C-53.90553711 132.12205078 -53.90553711 132.12205078 -52.76928711 132.46923828 C-49.19460523 134.17533645 -48.05573591 135.33708407 -46.01928711 138.78173828 C-45.41853276 142.67586481 -45.45897388 146.53543596 -45.48803711 150.46923828 C-45.48229675 152.17213013 -45.48229675 152.17213013 -45.47644043 153.90942383 C-45.47372174 156.30664966 -45.48107979 158.70390518 -45.49780273 161.10107422 C-45.51921124 164.7687397 -45.49799776 168.43444617 -45.47241211 172.10205078 C-45.47505539 174.43278427 -45.48018037 176.76351654 -45.48803711 179.09423828 C-45.47994019 180.19018311 -45.47184326 181.28612793 -45.46350098 182.4152832 C-45.55664359 189.98393891 -45.55664359 189.98393891 -47.7956543 193.8449707 C-49.85118658 195.63532397 -51.76164511 197.11262351 -54.12866211 198.45751953 C-54.88276367 198.89257812 -55.63686523 199.32763672 -56.41381836 199.77587891 C-57.19112305 200.2109375 -57.96842773 200.64599609 -58.76928711 201.09423828 C-59.56206055 201.54863281 -60.35483398 202.00302734 -61.17163086 202.47119141 C-63.11587956 203.58386385 -65.06492841 204.6869532 -67.01928711 205.78173828 C-64.79495875 213.82186592 -61.88660593 221.52485168 -58.83178711 229.28173828 C-57.91859263 231.60346223 -57.00827768 233.92632154 -56.10131836 236.25048828 C-55.70146729 237.265625 -55.30161621 238.28076172 -54.88964844 239.32666016 C-54.01928711 241.78173828 -54.01928711 241.78173828 -54.01928711 243.78173828 C-53.35928711 244.11173828 -52.69928711 244.44173828 -52.01928711 244.78173828 C-54.97723675 246.42826192 -57.9357117 248.07383936 -60.89428711 249.71923828 C-62.15692383 250.42209961 -62.15692383 250.42209961 -63.44506836 251.13916016 C-64.25073242 251.58710938 -65.05639648 252.03505859 -65.88647461 252.49658203 C-66.63010254 252.91029053 -67.37373047 253.32399902 -68.13989258 253.75024414 C-69.41953428 254.45256762 -70.71368651 255.12893798 -72.01928711 255.78173828 C-72.35959961 254.79818359 -72.69991211 253.81462891 -73.05053711 252.80126953 C-77.14744239 241.04025167 -81.53964193 229.40178045 -86.01928711 217.78173828 C-86.86491211 218.11173828 -87.71053711 218.44173828 -88.58178711 218.78173828 C-94.94335469 220.63237612 -98.71476772 220.1718123 -104.53881836 217.10595703 C-106.64589289 215.91016295 -108.74316292 214.69697422 -110.83178711 213.46923828 C-112.47945068 212.5199646 -112.47945068 212.5199646 -114.16040039 211.55151367 C-117.45623031 209.64409587 -120.73813175 207.7142597 -124.01928711 205.78173828 C-125.8642386 204.71385614 -127.70928283 203.6461342 -129.55444336 202.57861328 C-131.16909283 201.62780797 -132.78246736 200.67483274 -134.39428711 199.71923828 C-135.1301001 199.29151123 -135.86591309 198.86378418 -136.62402344 198.4230957 C-137.29844482 198.01422119 -137.97286621 197.60534668 -138.66772461 197.18408203 C-139.24699707 196.83853271 -139.82626953 196.4929834 -140.4230957 196.13696289 C-143.38458222 193.62255304 -144.83102601 191.32744268 -145.3086853 187.40565491 C-145.4507249 184.38258939 -145.48746791 181.37457256 -145.48803711 178.34814453 C-145.49565063 177.23745102 -145.50326416 176.12675751 -145.5111084 174.98240662 C-145.52190053 172.63648728 -145.52476613 170.29051992 -145.52026367 167.94458008 C-145.51929144 164.36018588 -145.56092499 160.77793288 -145.60522461 157.19384766 C-145.61043184 154.91195107 -145.6131198 152.63004706 -145.61303711 150.34814453 C-145.62943237 149.27923477 -145.64582764 148.21032501 -145.66271973 147.10902405 C-145.58582846 138.80905233 -145.58582846 138.80905233 -142.71044922 135.20361328 C-140.60426249 133.30817898 -138.859746 131.75768127 -136.36694336 130.46533203 C-135.68365967 130.09972168 -135.00037598 129.73411133 -134.29638672 129.35742188 C-133.56556885 128.98182129 -132.83475098 128.6062207 -132.08178711 128.21923828 C-126.70774677 125.37392738 -121.42665069 122.45944969 -116.26147461 119.24658203 C-115.29588623 118.65111572 -114.33029785 118.05564941 -113.33544922 117.44213867 C-111.45439388 116.27547276 -109.58229188 115.09421164 -107.72070312 113.89672852 C-102.16626838 110.48607468 -97.58727636 108.25925164 -91.01928711 109.78173828 C-88.20663688 111.00636721 -85.77451228 112.58430452 -83.26928711 114.34423828 C-78.72206977 117.62349722 -78.72206977 117.62349722 -73.38256836 118.94189453 C-69.97611164 117.26963396 -68.13295233 114.6565132 -65.95678711 111.65673828 C-65.00084748 110.38768609 -64.04377353 109.11948773 -63.08569336 107.85205078 C-62.34150146 106.8567334 -62.34150146 106.8567334 -61.58227539 105.84130859 C-58.42341585 101.67883764 -55.1034481 97.64300814 -51.81591797 93.58203125 C-49.16597016 90.34974324 -49.16597016 90.34974324 -47.01928711 86.78173828 C-47.76178711 86.55486328 -48.50428711 86.32798828 -49.26928711 86.09423828 C-52.83565872 84.39210638 -53.98407245 83.21340686 -56.01928711 79.78173828 C-56.60760848 75.95909096 -56.55576472 72.17405414 -56.51538086 68.31298828 C-56.51683609 67.1999231 -56.51829132 66.08685791 -56.51979065 64.94006348 C-56.51813279 62.58989847 -56.5065843 60.23972248 -56.48583984 57.88964844 C-56.4568908 54.29461497 -56.46523328 50.70105689 -56.47827148 47.10595703 C-56.47203372 44.82079362 -56.46364249 42.53563486 -56.45288086 40.25048828 C-56.4558165 39.17641724 -56.45875214 38.10234619 -56.46177673 36.99572754 C-56.34215215 27.52187822 -56.34215215 27.52187822 -53.01928711 23.78173828 C-50.99243164 22.21118164 -50.99243164 22.21118164 -48.65209961 20.87158203 C-47.77626221 20.36199951 -46.9004248 19.85241699 -45.99804688 19.32739258 C-45.05630615 18.79670166 -44.11456543 18.26601074 -43.14428711 17.71923828 C-42.17354248 17.16212158 -41.20279785 16.60500488 -40.20263672 16.03100586 C-38.16891933 14.86477577 -36.13265158 13.70298301 -34.09399414 12.54541016 C-31.08714226 10.82066043 -28.11136631 9.05180401 -25.14038086 7.26611328 C-23.28768781 6.16686579 -21.43482966 5.0678965 -19.58178711 3.96923828 C-18.72536621 3.44773193 -17.86894531 2.92622559 -16.98657227 2.38891602 C-16.17365723 1.91397705 -15.36074219 1.43903809 -14.52319336 0.94970703 C-13.82009033 0.52971436 -13.1169873 0.10972168 -12.39257812 -0.32299805 C-8.00526658 -1.97799974 -4.3149759 -1.74106329 0 0 Z " fill="#082C75" transform="translate(275.019287109375,101.21826171875)"/>
<path d="M0 0 C0.92296875 0.13535156 1.8459375 0.27070313 2.796875 0.41015625 C5.97049625 0.86387245 9.14780145 1.27960973 12.328125 1.68359375 C13.29363281 1.80669922 14.25914062 1.92980469 15.25390625 2.05664062 C17.23543779 2.30853023 19.21720661 2.55856096 21.19921875 2.80664062 C40.24779251 5.24779251 40.24779251 5.24779251 42 7 C42.14542134 8.65904005 42.22719862 10.32375738 42.28125 11.98828125 C42.33732422 13.51291992 42.33732422 13.51291992 42.39453125 15.06835938 C42.42933594 16.13892578 42.46414063 17.20949219 42.5 18.3125 C42.56903296 20.41289166 42.64180321 22.51316462 42.71875 24.61328125 C42.74904297 25.54954346 42.77933594 26.48580566 42.81054688 27.45043945 C43.00165791 30.82554169 43.00165791 30.82554169 44 34 C46.28322558 35.14088849 46.28322558 35.14088849 49 36 C50.76648885 36.96015497 52.51439162 37.95500087 54.24609375 38.9765625 C55.24189453 39.56163574 56.23769531 40.14670898 57.26367188 40.74951172 C58.31103516 41.36842285 59.35839844 41.98733398 60.4375 42.625 C61.51193359 43.25293457 62.58636719 43.88086914 63.69335938 44.52783203 C68.28987606 47.21467474 72.87758581 49.90953312 77.41015625 52.703125 C78.03156494 53.07872559 78.65297363 53.45432617 79.29321289 53.84130859 C80.86961609 54.79603484 82.43533351 55.7683456 84 56.7421875 C88.75263532 58.73482887 93.06696128 58.64434624 98 57 C98.66 56.67 99.32 56.34 100 56 C103.96155172 63.39489654 106.82424413 71.1579055 109.75 79 C110.26132294 80.36082587 110.77303859 81.72150425 111.28515625 83.08203125 C112.52796913 86.38633289 113.76545747 89.69259814 115 93 C112.55234063 95.58676948 110.34041491 97.5771877 107.1796875 99.21875 C106.47972656 99.59386719 105.77976562 99.96898437 105.05859375 100.35546875 C103.59673232 101.12170381 102.13316963 101.88470141 100.66796875 102.64453125 C99.97058594 103.01964844 99.27320313 103.39476562 98.5546875 103.78125 C97.92030762 104.11189453 97.28592773 104.44253906 96.63232422 104.78320312 C94.55445074 106.33212945 93.97746974 107.60147903 93 110 C92.67931752 112.50049355 92.67931752 112.50049355 92.69360352 115.22412109 C92.67761612 116.26555267 92.66162872 117.30698425 92.64515686 118.37997437 C92.63979416 119.4998172 92.63443146 120.61966003 92.62890625 121.7734375 C92.61987778 122.92993805 92.6108493 124.0864386 92.60154724 125.27798462 C92.58704228 127.72403371 92.5781574 130.17012163 92.57446289 132.61621094 C92.56256626 136.35418186 92.51337907 140.09050242 92.46289062 143.828125 C92.45342639 146.20572112 92.44619136 148.58332736 92.44140625 150.9609375 C92.42187393 152.07673187 92.40234161 153.19252625 92.38221741 154.34213257 C92.33697326 160.92919417 92.33697326 160.92919417 95.34741211 166.56494141 C96.22276611 167.36851074 97.09812012 168.17208008 98 169 C98.598125 169.61875 99.19625 170.2375 99.8125 170.875 C100.4003125 171.431875 100.4003125 171.431875 101 172 C99.78376953 173.48886719 99.78376953 173.48886719 98.54296875 175.0078125 C91.26581954 183.93168041 84.08022925 192.91914484 77 202 C73.01055832 200.53524189 69.51555575 198.62274587 65.875 196.4375 C60.20585123 193.03742449 55.72019983 191.08414976 49 192 C46.1818377 193.09568619 43.59533141 194.45384512 41 196 C40.59952972 192.99647287 40.27534675 190.01610592 40 187 C39.88527344 185.9790625 39.77054688 184.958125 39.65234375 183.90625 C39.438338 180.76231099 39.35944301 178.089211 40 175 C41.85378053 173.2034621 43.45271855 172.36230633 45.859375 171.453125 C49.342194 169.0888756 50.73067354 165.95253478 52 162 C52.47105587 158.37461447 52.42904321 154.83668084 52.3125 151.1875 C52.28494629 149.72763672 52.28494629 149.72763672 52.25683594 148.23828125 C52.19514681 145.49081322 52.10249798 142.74620229 52 140 C51.96777344 138.78957031 51.93554688 137.57914063 51.90234375 136.33203125 C51.5629615 130.02300226 50.22610633 126.02808446 45.47265625 121.56640625 C39.63502909 116.528063 35.82206946 116.80679824 28.375 116.8125 C27.27051514 116.81330566 26.16603027 116.81411133 25.02807617 116.81494141 C12.71117953 116.90197455 0.44866318 117.70828389 -11.83123779 118.58731079 C-15.99605156 118.87982591 -20.15977711 119.11662182 -24.33052063 119.30645752 C-26.39890872 119.40111397 -28.46662778 119.5050639 -30.53442383 119.61181641 C-33.10766407 119.74203887 -35.68179998 119.85597168 -38.2565918 119.95068359 C-45.26447881 120.33610039 -50.77349669 121.02121751 -56 126 C-60.57420311 131.14567016 -60.53309028 136.57989952 -60.3125 143.1875 C-60.29485596 144.11570557 -60.27721191 145.04391113 -60.2590332 146.00024414 C-60.19823977 148.66840021 -60.10562277 151.33328646 -60 154 C-59.95617187 155.26328125 -59.91234375 156.5265625 -59.8671875 157.828125 C-59.45660449 164.93299622 -58.50210091 169.60910357 -53.1875 174.6875 C-50.21461094 176.84430187 -47.34009168 178.48900615 -44 180 C-44 183.63 -44 187.26 -44 191 C-51.67787865 187.27459677 -59.03155112 183.1559367 -66.375 178.8125 C-68.486332 177.56791191 -70.59828531 176.32437704 -72.7109375 175.08203125 C-74.09224854 174.26569214 -74.09224854 174.26569214 -75.50146484 173.43286133 C-80.65907674 170.47507119 -84.0440086 169.36141948 -90 170 C-92.25132517 170.91568906 -92.25132517 170.91568906 -94 172 C-94.99 172 -95.98 172 -97 172 C-99.05017328 166.95400437 -101.07999016 161.90047603 -103.09130859 156.83886719 C-103.77846588 155.11789036 -104.47114963 153.39910951 -105.16943359 151.68261719 C-106.17182644 149.21584675 -107.15412297 146.74187893 -108.1328125 144.265625 C-108.44936798 143.49881409 -108.76592346 142.73200317 -109.09207153 141.94195557 C-111.15872071 136.63280381 -111.15872071 136.63280381 -110.40356445 133.62207031 C-108.84446614 131.82025275 -107.52555659 130.8728636 -105.41015625 129.78125 C-104.35731445 129.21857422 -104.35731445 129.21857422 -103.28320312 128.64453125 C-102.55037109 128.26683594 -101.81753906 127.88914062 -101.0625 127.5 C-99.61141232 126.7481544 -98.16460999 125.98796822 -96.72265625 125.21875 C-96.08078369 124.88810547 -95.43891113 124.55746094 -94.77758789 124.21679688 C-92.56935556 122.70521469 -91.42848122 121.26846418 -90 119 C-89.54293047 116.53847743 -89.54293047 116.53847743 -89.59594727 113.85180664 C-89.58326309 112.82716812 -89.57057892 111.8025296 -89.55751038 110.74684143 C-89.56044601 109.64573532 -89.56338165 108.54462921 -89.56640625 107.41015625 C-89.5611644 106.27348007 -89.55592255 105.13680389 -89.55052185 103.96568298 C-89.54410011 101.56249813 -89.54544057 99.15928186 -89.55395508 96.75610352 C-89.56246028 93.07967105 -89.53371097 89.40479439 -89.50195312 85.72851562 C-89.50034092 83.39322963 -89.50091901 81.05794089 -89.50390625 78.72265625 C-89.49267227 77.62357437 -89.48143829 76.52449249 -89.46986389 75.3921051 C-89.49630645 69.3202825 -89.49630645 69.3202825 -91.89038086 63.84936523 C-93.86745929 62.11618978 -95.55879191 60.95904604 -98 60 C-96.70234874 57.21545667 -95.27315368 54.92758387 -93.3125 52.56640625 C-92.78293701 51.92316406 -92.25337402 51.27992188 -91.70776367 50.6171875 C-91.14420166 49.93914062 -90.58063965 49.26109375 -90 48.5625 C-84.1796269 41.48716748 -78.53656841 34.2987719 -73 27 C-67.73645736 27.62331426 -63.83898469 30.34920131 -59.5234375 33.20507812 C-54.72921477 36.15086165 -50.57646085 37.13984968 -45 36 C-41.13104146 34.41544735 -37.63185596 32.35374443 -34.0625 30.1875 C-33.06702148 29.60234619 -32.07154297 29.01719238 -31.04589844 28.41430664 C-28.01935245 26.62771653 -25.00992052 24.81441694 -22 23 C-20.20275764 21.94112022 -18.40463048 20.88374025 -16.60546875 19.828125 C-14.98589839 18.86640107 -13.36734714 17.90295808 -11.75 16.9375 C-11.0062915 16.49752686 -10.26258301 16.05755371 -9.49633789 15.60424805 C-4.50119202 12.5862453 -4.50119202 12.5862453 -1 8 C-0.43672257 5.88181743 -0.43672257 5.88181743 -0.3125 3.75 C-0.209375 2.5125 -0.10625 1.275 0 0 Z " fill="#FDFDFE" transform="translate(318,173)"/>
<path d="M0 0 C0.02648117 0.74200653 0.05296234 1.48401306 0.08024597 2.24850464 C0.33532837 9.28076575 0.61269156 16.31172462 0.91439342 23.3421154 C1.06869419 26.95560372 1.21470562 30.5690119 1.34106445 34.18359375 C1.46359129 37.67947603 1.60881692 41.17377627 1.76906776 44.66812515 C1.853493 46.63368874 1.91508161 48.60019109 1.97612 50.56661987 C2.36354376 58.48917921 3.78129367 64.26309122 8 71 C8.44108093 71.70949799 8.88216187 72.41899597 9.33660889 73.1499939 C10.59917578 75.13110038 11.91684629 77.06573784 13.25 79 C14.31505354 80.57206955 15.37877529 82.14504191 16.44140625 83.71875 C17.01262207 84.56308594 17.58383789 85.40742188 18.17236328 86.27734375 C21.55777951 91.32064615 24.86908409 96.41246971 28.1875 101.5 C29.28123481 103.17513348 30.37496972 104.8502669 31.46871948 106.52539062 C32.57752099 108.22380824 33.68599807 109.92243726 34.79443359 111.62109375 C37.65644867 116.00647759 40.52257315 120.38917249 43.38891602 124.77172852 C44.79225636 126.91771781 46.19509142 129.06403762 47.59741211 131.21069336 C50.88910886 136.24880221 54.18461098 141.28428336 57.49487305 146.31021118 C59.04287338 148.66107013 60.58853624 151.01346157 62.1340332 153.3659668 C63.21404452 155.00783918 64.29739529 156.6475134 65.38085938 158.28710938 C77.78939283 177.183292 77.78939283 177.183292 76 190 C73.94069122 196.75852441 70.15761328 202.38648288 64 206 C58.09570153 208.5366766 53.06863072 209.53243591 46.6796875 209.84375 C45.77197098 209.89802658 44.86425446 209.95230316 43.92903137 210.00822449 C40.91159804 210.18494536 37.8935146 210.34291322 34.875 210.5 C32.72757872 210.62010592 30.58019995 210.74097406 28.43286133 210.86254883 C22.55441858 211.19058639 16.67509785 211.49916737 10.79534912 211.80279541 C6.89020654 212.00570482 2.98536301 212.21390983 -0.91943359 212.42333984 C-8.38650578 212.82302194 -15.854289 213.20765467 -23.32247162 213.58596802 C-25.27603517 213.68563955 -27.22948038 213.78762204 -29.18292236 213.88964844 C-42.92382917 214.60089977 -56.65806994 215.14232968 -70.41796875 215.26953125 C-71.58032547 215.28972824 -72.74268219 215.30992523 -73.94026184 215.33073425 C-83.36477747 215.35469588 -89.00001728 213.68887238 -96 207 C-101.56845548 199.57539269 -103.11679271 193.18575893 -102 184 C-100.66838465 179.82728226 -98.78127389 176.06041248 -96.75 172.1875 C-96.20424316 171.10130371 -95.65848633 170.01510742 -95.09619141 168.89599609 C-93.42288672 165.58355543 -91.71630148 162.29033193 -90 159 C-89.0543802 157.16552296 -88.10905092 155.33089611 -87.1640625 153.49609375 C-85.26063022 149.81963341 -83.33815237 146.1537588 -81.40625 142.4921875 C-77.16752215 134.44322305 -73.02710661 126.34385717 -68.875 118.25 C-58.47062475 97.97653231 -58.47062475 97.97653231 -53.34326172 88.38183594 C-52.65032405 87.0792609 -51.97324739 85.76816366 -51.30957031 84.45043945 C-50.26342035 82.49290641 -49.11397126 80.59070369 -47.93261719 78.71166992 C-40.91148749 67.01541437 -41.36807844 56.97426158 -42.5 43.6875 C-42.70526089 40.79171635 -42.89774213 37.8952644 -43.08959961 34.99856567 C-43.21640541 33.10501991 -43.34864653 31.21182956 -43.48657227 29.31906128 C-44.12999219 20.20683596 -44.14334574 11.12966374 -44 2 C-39.18045152 1.71178525 -34.36071203 1.42709003 -29.54077148 1.14550781 C-27.90464815 1.0494454 -26.26857878 0.95245885 -24.63256836 0.85449219 C-22.26690396 0.7129999 -19.9010587 0.5749475 -17.53515625 0.4375 C-16.81602554 0.39375244 -16.09689484 0.35000488 -15.35597229 0.30493164 C-10.23018682 0.01174519 -5.134239 -0.03539329 0 0 Z " fill="#92B1F3" transform="translate(338,350)"/>
<path d="M0 0 C3 1 3 1 3.99560547 2.74316406 C4.28322754 3.49307617 4.57084961 4.24298828 4.8671875 5.015625 C5.19332031 5.84908447 5.51945312 6.68254395 5.85546875 7.54125977 C6.19191406 8.43514404 6.52835937 9.32902832 6.875 10.25 C7.22433594 11.15355225 7.57367188 12.05710449 7.93359375 12.98803711 C8.63578193 14.80715146 9.33342416 16.62802751 10.02636719 18.45068359 C10.87747812 20.6791942 11.74764606 22.89813833 12.6328125 25.11328125 C16 33.60821429 16 33.60821429 16 37 C17.010625 36.505 18.02125 36.01 19.0625 35.5 C22.65458546 33.7406112 26.0908089 33.19135438 30 34 C34.1374284 35.81907157 37.98451039 38.08232707 41.875 40.375 C42.9774707 41.01115234 44.07994141 41.64730469 45.21582031 42.30273438 C47.43953585 43.58841096 49.65964794 44.88034176 51.87597656 46.17871094 C54.65001235 47.79595906 57.43915655 49.37907381 60.2421875 50.9453125 C61.74516561 51.79621484 63.24779831 52.64772771 64.75 53.5 C65.75716064 54.0576001 65.75716064 54.0576001 66.78466797 54.62646484 C67.71883545 55.167146 67.71883545 55.167146 68.671875 55.71875 C69.1987793 56.01716797 69.72568359 56.31558594 70.26855469 56.62304688 C73.97243588 59.56860383 76.59571024 61.80391406 77.46826172 66.5435791 C77.6620071 69.69577943 77.69287075 72.81067821 77.6640625 75.96875 C77.66884613 77.12242065 77.67362976 78.27609131 77.67855835 79.46472168 C77.68195407 81.89885831 77.67277484 84.33304074 77.65185547 86.76708984 C77.62508856 90.48769052 77.65161795 94.20527414 77.68359375 97.92578125 C77.6802896 100.29427748 77.67388326 102.66277183 77.6640625 105.03125 C77.67418365 106.14077026 77.68430481 107.25029053 77.69473267 108.39343262 C77.56453069 116.99558163 77.56453069 116.99558163 74.84106445 120.51025391 C71.96227646 123.03305875 69.22308531 124.94576308 65.87890625 126.8046875 C65.00708961 127.29619797 65.00708961 127.29619797 64.11766052 127.79763794 C62.27206693 128.83486798 60.41779931 129.85525275 58.5625 130.875 C57.35418845 131.54965549 56.14650117 132.22543029 54.93945312 132.90234375 C53.12855687 133.91768147 51.31628284 134.92975543 49.49746704 135.93084717 C46.36352181 137.65772671 43.26969965 139.42711319 40.21435547 141.29003906 C39.28658546 141.84705002 39.28658546 141.84705002 38.34007263 142.41531372 C36.63171214 143.44491157 34.93259263 144.48979803 33.23413086 145.53564453 C29.48113587 147.23493221 27.07869145 147.42908743 23 147 C20.60058594 146.08203125 20.60058594 146.08203125 18.484375 144.8125 C17.70835937 144.36132812 16.93234375 143.91015625 16.1328125 143.4453125 C15.34648437 142.96835937 14.56015625 142.49140625 13.75 142 C12.16472323 141.0569897 10.5763064 140.11923242 8.984375 139.1875 C8.29053711 138.76855469 7.59669922 138.34960938 6.88183594 137.91796875 C4.89958144 136.78078818 4.89958144 136.78078818 2 137 C0.2219973 138.97928602 -1.35585335 140.93391301 -2.9375 143.0625 C-3.91057824 144.33791154 -4.88457096 145.61262577 -5.859375 146.88671875 C-6.36791016 147.55622559 -6.87644531 148.22573242 -7.40039062 148.91552734 C-10.10889216 152.4450124 -12.8998737 155.9079133 -15.6875 159.375 C-16.71232696 160.6535758 -17.73707439 161.93221536 -18.76171875 163.2109375 C-19.50035156 164.13132812 -20.23898437 165.05171875 -21 166 C-20.071875 166.556875 -19.14375 167.11375 -18.1875 167.6875 C-14.76137935 170.17311694 -13.65406927 171.1587518 -12 175 C-11.54469389 178.88342402 -11.55591191 182.74576795 -11.56640625 186.65234375 C-11.5611644 187.78523331 -11.55592255 188.91812286 -11.55052185 190.08534241 C-11.54410572 192.47835471 -11.54543332 194.87139857 -11.55395508 197.2644043 C-11.56246158 200.92098296 -11.53370104 204.57599761 -11.50195312 208.23242188 C-11.50034089 210.55989537 -11.50091906 212.88737162 -11.50390625 215.21484375 C-11.48705528 216.85101906 -11.48705528 216.85101906 -11.46986389 218.52024841 C-11.52453057 224.49036071 -11.77832279 228.39974224 -16 233 C-18.16650391 234.69091797 -18.16650391 234.69091797 -20.4765625 235.9921875 C-21.72953125 236.70761719 -21.72953125 236.70761719 -23.0078125 237.4375 C-23.87148438 237.911875 -24.73515625 238.38625 -25.625 238.875 C-26.49640625 239.37257813 -27.3678125 239.87015625 -28.265625 240.3828125 C-34.68513908 244 -34.68513908 244 -37 244 C-38.32177734 242.26611328 -38.32177734 242.26611328 -39.8359375 239.8203125 C-40.39949951 238.92014404 -40.96306152 238.01997559 -41.54370117 237.0925293 C-42.14802979 236.11324463 -42.7523584 235.13395996 -43.375 234.125 C-44.6481281 232.09143814 -45.92289182 230.05889945 -47.19921875 228.02734375 C-48.15900635 226.49762939 -48.15900635 226.49762939 -49.13818359 224.93701172 C-51.75525206 220.80859136 -54.46347339 216.74574372 -57.1875 212.6875 C-57.66856201 211.95571533 -58.14962402 211.22393066 -58.64526367 210.4699707 C-61.03466627 206.84660054 -63.48552192 203.33634399 -66.15625 199.9140625 C-74.32702683 189.0877832 -75.46819147 180.03488628 -75.04394531 166.62451172 C-75.00420239 164.25097633 -75.1052048 161.9611405 -75.3046875 159.59765625 C-75.88938076 151.15503995 -75.88938076 151.15503995 -73.49609375 148.046875 C-69.8036637 145.41665086 -65.71116409 144.19751815 -61.1328125 144.51171875 C-54.3579457 146.06274137 -48.30999613 150.27510504 -42.59375 154.08203125 C-41.01768924 155.16636982 -41.01768924 155.16636982 -39 155 C-37.39832274 153.29818087 -37.39832274 153.29818087 -35.6875 151 C-34.98753906 150.10023438 -34.28757812 149.20046875 -33.56640625 148.2734375 C-32.96916748 147.50531738 -32.96916748 147.50531738 -32.35986328 146.72167969 C-30.81470307 144.76540145 -29.23664119 142.83877643 -27.65234375 140.9140625 C-26.77993042 139.85251953 -26.77993042 139.85251953 -25.88989258 138.76953125 C-24.72670934 137.35614052 -23.56123335 135.94463308 -22.39331055 134.53515625 C-21.85359619 133.87644531 -21.31388184 133.21773437 -20.7578125 132.5390625 C-20.03295654 131.66048584 -20.03295654 131.66048584 -19.29345703 130.76416016 C-17.94403143 128.92366386 -16.9612382 127.06595326 -16 125 C-16.49371094 124.59007812 -16.98742187 124.18015625 -17.49609375 123.7578125 C-18.13675781 123.21898437 -18.77742188 122.68015625 -19.4375 122.125 C-20.07558594 121.59132813 -20.71367187 121.05765625 -21.37109375 120.5078125 C-23.42170979 118.60964034 -23.96362624 117.5746967 -24.14044189 114.78105164 C-24.1472699 113.85903458 -24.1540979 112.93701752 -24.16113281 111.98706055 C-24.17074036 110.94225021 -24.1803479 109.89743988 -24.19024658 108.82096863 C-24.19449646 107.68766617 -24.19874634 106.55436371 -24.203125 105.38671875 C-24.20882507 104.22501663 -24.21452515 103.06331451 -24.22039795 101.8664093 C-24.22985796 99.40419427 -24.23638589 96.94196652 -24.24023438 94.47973633 C-24.2499331 90.71347927 -24.28094508 86.94776935 -24.3125 83.18164062 C-24.31903055 80.79166991 -24.32428082 78.40169529 -24.328125 76.01171875 C-24.3404718 74.88448898 -24.3528186 73.75725922 -24.36553955 72.59587097 C-24.36253845 71.54160416 -24.35953735 70.48733734 -24.35644531 69.40112305 C-24.36191376 68.01451729 -24.36191376 68.01451729 -24.36749268 66.59989929 C-23.79834464 62.57334943 -22.14421258 59.86576384 -18.9152832 57.42260742 C-18.13499756 56.98795166 -17.35471191 56.5532959 -16.55078125 56.10546875 C-15.70322266 55.62529297 -14.85566406 55.14511719 -13.98242188 54.65039062 C-13.10134766 54.16763672 -12.22027344 53.68488281 -11.3125 53.1875 C-10.41982422 52.68541016 -9.52714844 52.18332031 -8.60742188 51.66601562 C-6.41094175 50.43269791 -4.20867883 49.21129299 -2 48 C-6.41660757 35.23533495 -11.14152872 22.60270377 -16 10 C-14.58116014 9.05013718 -13.16178395 8.10107546 -11.7421875 7.15234375 C-10.95183105 6.62374756 -10.16147461 6.09515137 -9.34716797 5.55053711 C-6.27786648 3.52295923 -3.29386926 1.64693463 0 0 Z " fill="#6864F6" transform="translate(434,219)"/>
<path d="M0 0 C0.02648117 0.74200653 0.05296234 1.48401306 0.08024597 2.24850464 C0.33532837 9.28076575 0.61269156 16.31172462 0.91439342 23.3421154 C1.06869419 26.95560372 1.21470562 30.5690119 1.34106445 34.18359375 C1.46359129 37.67947603 1.60881692 41.17377627 1.76906776 44.66812515 C1.853493 46.63368874 1.91508161 48.60019109 1.97612 50.56661987 C2.36354376 58.48917921 3.78129367 64.26309122 8 71 C8.44108093 71.70949799 8.88216187 72.41899597 9.33660889 73.1499939 C10.59917578 75.13110038 11.91684629 77.06573784 13.25 79 C14.31505354 80.57206955 15.37877529 82.14504191 16.44140625 83.71875 C17.01262207 84.56308594 17.58383789 85.40742188 18.17236328 86.27734375 C21.55777951 91.32064615 24.86908409 96.41246971 28.1875 101.5 C29.28123481 103.17513348 30.37496972 104.8502669 31.46871948 106.52539062 C32.57752099 108.22380824 33.68599807 109.92243726 34.79443359 111.62109375 C37.65644867 116.00647759 40.52257315 120.38917249 43.38891602 124.77172852 C44.79225636 126.91771781 46.19509142 129.06403762 47.59741211 131.21069336 C50.88910886 136.24880221 54.18461098 141.28428336 57.49487305 146.31021118 C59.04287338 148.66107013 60.58853624 151.01346157 62.1340332 153.3659668 C63.21404452 155.00783918 64.29739529 156.6475134 65.38085938 158.28710938 C76.78200035 175.64919674 76.78200035 175.64919674 76 183 C42.15226226 178.77691168 8.08069457 157.71969172 -14 132 C-14 131.34 -14 130.68 -14 130 C-14.64437012 130.00523682 -15.28874023 130.01047363 -15.95263672 130.01586914 C-18.92674753 130.03690359 -21.9008426 130.0497432 -24.875 130.0625 C-25.88820313 130.07087891 -26.90140625 130.07925781 -27.9453125 130.08789062 C-44.32829064 130.14040017 -44.32829064 130.14040017 -51.1875 127.5625 C-57.53078013 125.22670731 -64.32118279 124.74795713 -71 124 C-64.8290612 110.59698213 -58.17166493 97.48203926 -51.33203125 84.41015625 C-50.78192383 83.32742432 -50.23181641 82.24469238 -49.66503906 81.12915039 C-48 78 -48 78 -46.21777344 75.29077148 C-40.1039613 65.37756043 -41.7894931 55.07606852 -42.625 43.9375 C-42.81497954 41.01468183 -42.9954014 38.09139516 -43.17425537 35.1678772 C-43.29175083 33.25241804 -43.41300236 31.33718531 -43.53814697 29.42221069 C-44.1125511 20.27643804 -44.1321772 11.15961306 -44 2 C-39.18045152 1.71178525 -34.36071203 1.42709003 -29.54077148 1.14550781 C-27.90464815 1.0494454 -26.26857878 0.95245885 -24.63256836 0.85449219 C-22.26690396 0.7129999 -19.9010587 0.5749475 -17.53515625 0.4375 C-16.81602554 0.39375244 -16.09689484 0.35000488 -15.35597229 0.30493164 C-10.23018682 0.01174519 -5.134239 -0.03539329 0 0 Z " fill="#FDFDFE" transform="translate(338,350)"/>
<path d="M0 0 C4.43145282 1.96389265 8.50089672 4.40000668 12.625 6.9375 C13.78042233 7.63104722 14.93684319 8.32293356 16.09423828 9.01318359 C18.36927283 10.37351849 20.63610954 11.74511943 22.90039062 13.12353516 C25.54602821 14.72517114 28.20657015 16.28826665 30.890625 17.82421875 C42.23104609 24.37248295 42.23104609 24.37248295 45 29 C45.60127858 32.89396891 45.56031244 36.75380492 45.53125 40.6875 C45.53699036 42.39039185 45.53699036 42.39039185 45.54284668 44.12768555 C45.54556537 46.52491138 45.53820731 48.92216689 45.52148438 51.31933594 C45.50007587 54.98700142 45.52128935 58.65270789 45.546875 62.3203125 C45.54423172 64.65104599 45.53910674 66.98177826 45.53125 69.3125 C45.53934692 70.40844482 45.54744385 71.50438965 45.55578613 72.63354492 C45.46264352 80.20220063 45.46264352 80.20220063 43.22363281 84.06323242 C41.16810053 85.85358569 39.257642 87.33088523 36.890625 88.67578125 C36.13652344 89.11083984 35.38242188 89.54589844 34.60546875 89.99414062 C33.82816406 90.42919922 33.05085938 90.86425781 32.25 91.3125 C31.45722656 91.76689453 30.66445312 92.22128906 29.84765625 92.68945312 C27.90340755 93.80212557 25.9543587 94.90521492 24 96 C26.22432835 104.04012763 29.13268118 111.7431134 32.1875 119.5 C33.10069448 121.82172394 34.01100943 124.14458326 34.91796875 126.46875 C35.31781982 127.48388672 35.7176709 128.49902344 36.12963867 129.54492188 C37 132 37 132 37 134 C37.66 134.33 38.32 134.66 39 135 C36.04205036 136.64652364 33.0835754 138.29210108 30.125 139.9375 C28.86236328 140.64036133 28.86236328 140.64036133 27.57421875 141.35742188 C26.76855469 141.80537109 25.96289062 142.25332031 25.1328125 142.71484375 C24.38918457 143.12855225 23.64555664 143.54226074 22.87939453 143.96850586 C21.59975283 144.67082934 20.3056006 145.3471997 19 146 C18.6596875 145.01644531 18.319375 144.03289062 17.96875 143.01953125 C13.87184472 131.25851339 9.47964518 119.62004217 5 108 C3.7315625 108.495 3.7315625 108.495 2.4375 109 C-3.92406758 110.85063784 -7.69548061 110.39007402 -13.51953125 107.32421875 C-15.62660578 106.12842467 -17.72387581 104.91523594 -19.8125 103.6875 C-20.91094238 103.05465088 -22.00938477 102.42180176 -23.14111328 101.76977539 C-26.43694321 99.86235759 -29.71884464 97.93252141 -33 96 C-34.84495149 94.93211786 -36.68999573 93.86439592 -38.53515625 92.796875 C-40.14980572 91.84606969 -41.76318025 90.89309446 -43.375 89.9375 C-44.11081299 89.50977295 -44.84662598 89.0820459 -45.60473633 88.64135742 C-46.27915771 88.23248291 -46.9535791 87.8236084 -47.6484375 87.40234375 C-48.22770996 87.05679443 -48.80698242 86.71124512 -49.40380859 86.35522461 C-52.36529511 83.84081475 -53.8117389 81.5457044 -54.28939819 77.62391663 C-54.43143779 74.60085111 -54.4681808 71.59283427 -54.46875 68.56640625 C-54.47636353 67.45571274 -54.48397705 66.34501923 -54.49182129 65.20066833 C-54.50261342 62.85474899 -54.50547902 60.50878164 -54.50097656 58.1628418 C-54.50000433 54.5784476 -54.54163788 50.9961946 -54.5859375 47.41210938 C-54.59114473 45.13021279 -54.59383269 42.84830878 -54.59375 40.56640625 C-54.61014526 39.49749649 -54.62654053 38.42858673 -54.64343262 37.32728577 C-54.56654135 29.02731405 -54.56654135 29.02731405 -51.69116211 25.421875 C-49.58497538 23.5264407 -47.84045889 21.97594299 -45.34765625 20.68359375 C-44.66437256 20.3179834 -43.98108887 19.95237305 -43.27709961 19.57568359 C-42.54628174 19.20008301 -41.81546387 18.82448242 -41.0625 18.4375 C-35.68845966 15.5921891 -30.40736358 12.6777114 -25.2421875 9.46484375 C-23.79380493 8.57164429 -23.79380493 8.57164429 -22.31616211 7.66040039 C-20.43510677 6.49373448 -18.56300478 5.31247336 -16.70141602 4.11499023 C-11.13341096 0.69600367 -6.55749147 -1.72047434 0 0 Z " fill="#082C76" transform="translate(184,211)"/>
<path d="M0 0 C4.150049 1.7918429 7.9893478 4.01069441 11.875 6.3125 C12.96820557 6.94389893 14.06141113 7.57529785 15.18774414 8.22583008 C18.47042207 10.13102637 21.73670204 12.06183536 25 14 C26.42723389 14.83869629 26.42723389 14.83869629 27.88330078 15.69433594 C30.40850236 17.18050553 32.92551739 18.67911351 35.4375 20.1875 C36.18177246 20.63198486 36.92604492 21.07646973 37.69287109 21.53442383 C40.8727844 23.48358591 42.90329423 24.85494134 45 28 C45.26069641 30.33920288 45.26069641 30.33920288 45.2746582 33.12646484 C45.28419022 34.17119965 45.29372223 35.21593445 45.30354309 36.29232788 C45.30263168 37.42046906 45.30172028 38.54861023 45.30078125 39.7109375 C45.30506638 40.87122467 45.3093515 42.03151184 45.31376648 43.22695923 C45.31951361 45.68320055 45.32000724 48.1394589 45.31567383 50.59570312 C45.31251834 54.35316062 45.33595387 58.10982765 45.36132812 61.8671875 C45.36360151 64.25260317 45.36430443 66.63802096 45.36328125 69.0234375 C45.372491 70.14753021 45.38170074 71.27162292 45.39118958 72.42977905 C45.38496078 73.48081818 45.37873199 74.5318573 45.37231445 75.61474609 C45.37294388 76.53613373 45.3735733 77.45752136 45.3742218 78.40682983 C44.91870851 81.56330943 43.85547551 83.42481165 42 86 C39.3112793 87.90942383 39.3112793 87.90942383 36.07421875 89.70703125 C35.49017776 90.03611984 34.90613678 90.36520844 34.30439758 90.70426941 C32.43845977 91.7522432 30.56349163 92.78265296 28.6875 93.8125 C27.47005098 94.49167085 26.2532479 95.17200094 25.03710938 95.85351562 C23.21038874 96.87707244 21.38218172 97.89702316 19.54684448 98.90505981 C16.40014424 100.63567993 13.29894864 102.41124739 10.24072266 104.29443359 C9.6266304 104.66581955 9.01253815 105.03720551 8.37983704 105.41984558 C6.68833088 106.4471591 5.00746749 107.49193814 3.32739258 108.5378418 C-1.68181231 110.73903984 -5.68819052 110.88003526 -10.91748047 108.8894043 C-11.80838379 108.37289307 -12.69928711 107.85638184 -13.6171875 107.32421875 C-15.13397095 106.46062744 -15.13397095 106.46062744 -16.68139648 105.57958984 C-17.73528564 104.9552002 -18.7891748 104.33081055 -19.875 103.6875 C-21.51480835 102.73931396 -21.51480835 102.73931396 -23.18774414 101.77197266 C-26.46928862 99.86575492 -29.73511679 97.93457789 -33 96 C-34.85523104 94.92016442 -36.71068209 93.84070668 -38.56640625 92.76171875 C-40.19147459 91.8017954 -41.815265 90.83970387 -43.4375 89.875 C-44.18177246 89.43889404 -44.92604492 89.00278809 -45.69287109 88.5534668 C-49.25371395 86.38774608 -51.53360613 84.93064471 -53 81 C-53.25396729 78.57177734 -53.25396729 78.57177734 -53.25878906 75.8359375 C-53.26509338 74.80807129 -53.27139771 73.78020508 -53.27789307 72.72119141 C-53.2738446 71.61694824 -53.26979614 70.51270508 -53.265625 69.375 C-53.26753845 68.23595215 -53.2694519 67.0969043 -53.27142334 65.92333984 C-53.27278387 63.51594827 -53.26909667 61.10854933 -53.26074219 58.70117188 C-53.25004108 55.01415544 -53.26064225 51.32762626 -53.2734375 47.640625 C-53.27211588 45.30208226 -53.26955344 42.96353982 -53.265625 40.625 C-53.26967346 39.52075684 -53.27372192 38.41651367 -53.27789307 37.27880859 C-53.27158875 36.25094238 -53.26528442 35.22307617 -53.25878906 34.1640625 C-53.25719788 33.26123535 -53.25560669 32.3584082 -53.25396729 31.42822266 C-52.98092641 28.81763429 -52.38339336 27.21701063 -51 25 C-49.08666992 23.54296875 -49.08666992 23.54296875 -46.73046875 22.1875 C-45.85148926 21.67469482 -44.97250977 21.16188965 -44.06689453 20.63354492 C-42.64159424 19.82494019 -42.64159424 19.82494019 -41.1875 19 C-40.21151855 18.43837158 -39.23553711 17.87674316 -38.22998047 17.2980957 C-36.18421508 16.1216902 -34.13631675 14.948987 -32.08642578 13.77978516 C-29.0853352 12.04920848 -26.11641039 10.27357089 -23.15234375 8.48046875 C-21.31005706 7.38254193 -19.46761525 6.28487533 -17.625 5.1875 C-16.77703857 4.66607422 -15.92907715 4.14464844 -15.05541992 3.60742188 C-10.14861347 0.7290485 -5.76892167 -1.51232314 0 0 Z " fill="#062B75" transform="translate(413,122)"/>
<path d="M0 0 C0.33 0 0.66 0 1 0 C1.29390625 1.12921875 1.29390625 1.12921875 1.59375 2.28125 C4.28597153 11.84327821 8.30415782 20.28142425 13 29 C13.56847656 30.06476563 14.13695312 31.12953125 14.72265625 32.2265625 C17.82580453 37.78728684 21.28031696 43.08565006 25 48.25 C25.39106934 48.82387451 25.78213867 49.39774902 26.18505859 49.98901367 C28.39434815 52.93941697 29.61424034 53.93769203 33.2890625 54.53125 C37.58370711 53.91643772 41.32926982 52.77589352 45.375 51.25 C46.13248535 50.97486572 46.8899707 50.69973145 47.67041016 50.41625977 C51.3233098 49.07209026 54.87727379 47.65110377 58.375 45.9375 C61.46424985 44.57313134 64.49886726 43.51144706 67.76171875 42.64453125 C69.06326904 42.29757202 69.06326904 42.29757202 70.39111328 41.94360352 C74.25547172 40.94025474 78.12508607 39.96183011 82 39 C82.60585938 39.98097656 83.21171875 40.96195312 83.8359375 41.97265625 C88.02662999 48.732738 92.25204386 55.45983457 96.6875 62.0625 C101.10299667 68.64028474 105.470772 75.248263 109.8125 81.875 C110.44696045 82.83801025 111.0814209 83.80102051 111.73510742 84.79321289 C122.77880853 101.67919977 122.77880853 101.67919977 122 109 C88.15226226 104.77691168 54.08069457 83.71969172 32 58 C32 57.34 32 56.68 32 56 C31.03344482 56.00785522 31.03344482 56.00785522 30.04736328 56.01586914 C27.07325247 56.03690359 24.0991574 56.0497432 21.125 56.0625 C19.60519531 56.07506836 19.60519531 56.07506836 18.0546875 56.08789062 C1.67170936 56.14040017 1.67170936 56.14040017 -5.1875 53.5625 C-11.53078013 51.22670731 -18.32118279 50.74795713 -25 50 C-18.23513692 35.30700373 -10.8793952 20.95249164 -3.36938477 6.63110352 C-2.22422362 4.43081797 -1.10068618 2.22277367 0 0 Z " fill="#D0DAFC" transform="translate(292,424)"/>
<path d="M0 0 C1.06911621 0.39316406 2.13823242 0.78632813 3.23974609 1.19140625 C4.19155762 1.51238281 5.14336914 1.83335937 6.12402344 2.1640625 C14.03106445 5.08358533 22.00437226 8.34897862 27.23974609 15.19140625 C30.90212874 25.60800197 28.64541847 38.49207691 27.23974609 49.19140625 C23.61384798 51.31565824 19.98423335 53.43336819 16.35107422 55.54516602 C15.11631438 56.26409295 13.8825775 56.98477988 12.64990234 57.70727539 C10.87523831 58.74702815 9.09696023 59.78034173 7.31787109 60.8125 C6.24956055 61.43568115 5.18125 62.0588623 4.08056641 62.70092773 C-0.22263017 64.95866365 -0.22263017 64.95866365 -2.76025391 65.19140625 C-4.70800781 64.48217773 -4.70800781 64.48217773 -6.73681641 63.3125 C-7.86796875 62.67151367 -7.86796875 62.67151367 -9.02197266 62.01757812 C-9.80185547 61.55931641 -10.58173828 61.10105469 -11.38525391 60.62890625 C-12.52027344 59.98211914 -12.52027344 59.98211914 -13.67822266 59.32226562 C-15.23740757 58.42922994 -16.78280815 57.51175166 -18.31445312 56.57226562 C-20.75708731 55.11356022 -20.75708731 55.11356022 -23.55371094 54.12304688 C-26.66362645 52.78400185 -28.5296973 51.75837007 -30.76025391 49.19140625 C-32.01623626 43.35983739 -31.70518246 37.74051732 -31.38525391 31.81640625 C-31.33505611 30.20586667 -31.28943508 28.59517752 -31.24853516 26.984375 C-31.13867655 23.0496793 -30.96640257 19.12218552 -30.76025391 15.19140625 C-27.0945012 13.07274864 -23.42831338 10.95484657 -19.76171875 8.83764648 C-18.51420265 8.11715156 -17.26680611 7.39644957 -16.01953125 6.67553711 C-14.22768983 5.63991834 -12.43542107 4.60504268 -10.64306641 3.5703125 C-9.02489014 2.63554077 -9.02489014 2.63554077 -7.37402344 1.68188477 C-2.92300272 -0.85626968 -2.92300272 -0.85626968 0 0 Z " fill="#FA8D02" transform="translate(410.76025390625,144.80859375)"/>
<path d="M0 0 C2.71972025 0.91419421 5.03049338 2.19124773 7.52368164 3.61303711 C8.53495117 4.18731445 9.5462207 4.7615918 10.58813477 5.35327148 C11.63807617 5.9559082 12.68801758 6.55854492 13.76977539 7.17944336 C15.35048828 8.07759766 15.35048828 8.07759766 16.96313477 8.99389648 C24.69185643 13.39833072 24.69185643 13.39833072 28.20727539 15.74194336 C28.47425427 18.3665658 28.55560523 20.75260269 28.50024414 23.37475586 C28.4959993 24.12659149 28.49175446 24.87842712 28.48738098 25.65304565 C28.4705671 28.05804021 28.43291163 30.46220145 28.39477539 32.86694336 C28.37973198 34.49583752 28.36604297 36.1247448 28.35375977 37.75366211 C28.32065493 41.7500777 28.26885548 45.74586918 28.20727539 49.74194336 C24.74067152 51.70310526 21.27178254 53.66015636 17.80078125 55.61352539 C16.62176977 56.27777997 15.44337438 56.94312937 14.265625 57.60961914 C12.56683474 58.57071063 10.86559328 59.52746533 9.16430664 60.48413086 C7.63253784 61.34820557 7.63253784 61.34820557 6.06982422 62.22973633 C5.12518311 62.72876465 4.18054199 63.22779297 3.20727539 63.74194336 C2.38533691 64.20205811 1.56339844 64.66217285 0.71655273 65.13623047 C-3.0161037 66.03725407 -4.6626986 64.63960649 -7.89819336 62.69116211 C-8.74611198 62.19106377 -8.74611198 62.19106377 -9.61116028 61.68086243 C-11.4115366 60.61388113 -13.19556119 59.52246253 -14.98022461 58.42944336 C-16.19210809 57.70444989 -17.4049899 56.98112242 -18.61889648 56.25952148 C-20.83866181 54.93793199 -23.05016277 53.60535549 -25.25830078 52.26416016 C-27.67148862 50.77041621 -27.67148862 50.77041621 -29.79272461 49.74194336 C-29.79272461 38.52194336 -29.79272461 27.30194336 -29.79272461 15.74194336 C-25.54397461 13.28756836 -21.29522461 10.83319336 -16.91772461 8.30444336 C-15.5785498 7.53044189 -14.239375 6.75644043 -12.85961914 5.95898438 C-11.28349854 5.04910767 -11.28349854 5.04910767 -9.67553711 4.12084961 C-8.05736084 3.18607788 -8.05736084 3.18607788 -6.40649414 2.23242188 C-1.98942639 -0.2863712 -1.98942639 -0.2863712 0 0 Z " fill="#65CAD0" transform="translate(232.792724609375,364.258056640625)"/>
<path d="M0 0 C1.21042969 0.66104736 1.21042969 0.66104736 2.4453125 1.33544922 C3.35966064 1.65642578 4.27400879 1.97740234 5.21606445 2.30810547 C13.19509519 5.23845456 21.03295671 8.56547152 26.4453125 15.33544922 C28.74679765 20.885722 28.79307073 26.78644111 28.7578125 32.71044922 C28.77123688 33.46487305 28.78466125 34.21929687 28.79849243 34.99658203 C28.8199722 40.16180277 28.36085656 44.50800351 26.4453125 49.33544922 C22.54366051 53.04648563 18.31878502 55.13099862 13.4453125 57.33544922 C12.04479236 58.16596079 10.65570485 59.01670304 9.2890625 59.90185547 C8.185625 60.56056641 7.0821875 61.21927734 5.9453125 61.89794922 C4.25921875 62.92082031 4.25921875 62.92082031 2.5390625 63.96435547 C-1.73797278 65.85985974 -4.08352086 64.82416513 -8.41723633 63.38452148 C-16.66226054 60.10017219 -25.0133024 56.49592215 -30.5546875 49.33544922 C-34.3201912 38.94187042 -32.02556236 26.02440999 -30.5546875 15.33544922 C-26.67211369 12.99669605 -22.77634923 10.68243699 -18.86645508 8.38964844 C-17.53866827 7.60649906 -16.21471254 6.81681598 -14.89477539 6.02050781 C-12.99556615 4.87626817 -11.08377251 3.75631116 -9.16796875 2.64013672 C-8.28797966 2.09968216 -8.28797966 2.09968216 -7.39021301 1.54830933 C-4.61590646 -0.03882554 -3.15868472 -0.82166856 0 0 Z " fill="#B0D852" transform="translate(270.5546875,122.66455078125)"/>
<path d="M0 0 C16.43859114 7.34151825 16.43859114 7.34151825 19.91381836 14.64709473 C23.23669264 24.38418131 23.51003395 37.39338966 19.04296875 46.81640625 C12.87656132 54.27947634 3.96507223 57.68435406 -4.95703125 60.81640625 C-5.81635254 61.22568359 -6.67567383 61.63496094 -7.56103516 62.05664062 C-9.95703125 62.81640625 -9.95703125 62.81640625 -12.01831055 62.22070312 C-12.68258057 61.82947266 -13.34685059 61.43824219 -14.03125 61.03515625 C-14.78212891 60.60460937 -15.53300781 60.1740625 -16.30664062 59.73046875 C-17.07814453 59.26382813 -17.84964844 58.7971875 -18.64453125 58.31640625 C-19.39669922 57.88070312 -20.14886719 57.445 -20.92382812 56.99609375 C-22.47411544 56.09362862 -24.00999369 55.16601525 -25.53149414 54.21582031 C-27.95090123 52.74226865 -27.95090123 52.74226865 -30.70874023 51.72167969 C-33.7590787 50.37593409 -35.68823155 49.27598826 -37.95703125 46.81640625 C-39.65302989 41.23087065 -39.74600935 35.86840519 -39.64453125 30.06640625 C-39.64362488 29.29051147 -39.64271851 28.5146167 -39.64178467 27.71520996 C-39.51913872 15.30240416 -39.51913872 15.30240416 -36.40576172 10.34765625 C-32.54735118 6.77065964 -28.04802507 5.06977237 -23.07714844 3.53857422 C-20.12479976 2.5329262 -17.75696531 0.89990909 -15.20703125 -0.87109375 C-9.8747682 -4.42913258 -5.630879 -2.24302233 0 0 Z " fill="#FBCA50" transform="translate(188.95703125,236.18359375)"/>
<path d="M0 0 C1.37152222 0.433125 1.37152222 0.433125 2.77075195 0.875 C10.67912554 3.87309013 18.69293349 7.1859043 24 14 C27.62850488 24.04862448 25.39829964 36.69381454 24 47 C23.49662109 47.27674561 22.99324219 47.55349121 22.47460938 47.83862305 C20.14844214 49.11924101 17.82421943 50.40335055 15.5 51.6875 C14.70851563 52.12255859 13.91703125 52.55761719 13.1015625 53.00585938 C12.31523437 53.44091797 11.52890625 53.87597656 10.71875 54.32421875 C9.92984375 54.76040527 9.1409375 55.1965918 8.328125 55.64599609 C5.4123516 57.34176783 2.64834457 59.23048153 -0.09570312 61.19067383 C-4.20835782 62.93855207 -8.7870253 60.49793397 -12.73828125 59 C-19.67704766 56.0171256 -26.27102086 53.07185087 -31 47 C-34.62850488 36.95137552 -32.39829964 24.30618546 -31 14 C-27.39964097 11.8266799 -23.78850584 9.67291923 -20.16625977 7.53637695 C-18.93624753 6.80724682 -17.70930713 6.07290808 -16.4855957 5.33325195 C-14.72352929 4.26943029 -12.95117624 3.2249796 -11.17578125 2.18359375 C-9.58117065 1.23311157 -9.58117065 1.23311157 -7.9543457 0.26342773 C-4.57188485 -1.18308371 -3.43070148 -1.14322843 0 0 Z " fill="#D1DBFC" transform="translate(464,279)"/>
<path d="M0 0 C0.495 9.405 0.495 9.405 1 19 C-23.32678036 20.70544889 -47.61655721 22.39198638 -72 23 C-72.33 16.4 -72.66 9.8 -73 3 C-64.52889477 2.40319847 -56.05723805 1.81629154 -47.58447266 1.24365234 C-45.48240483 1.10076556 -43.38045483 0.95608822 -41.27880859 0.80712891 C-27.52223744 -0.16608932 -13.78609043 -0.09588471 0 0 Z " fill="#8FAFF1" transform="translate(350,310)"/>
<path d="M0 0 C0.33 0 0.66 0 1 0 C1.29390625 1.12921875 1.29390625 1.12921875 1.59375 2.28125 C4.28597153 11.84327821 8.30415782 20.28142425 13 29 C13.56847656 30.06476563 14.13695312 31.12953125 14.72265625 32.2265625 C19.0969859 40.06519577 24.40090954 47.01521915 30 54 C26.12848273 56.58101152 22.91966039 56.26163416 18.4375 56.1875 C17.62482666 56.17887939 16.81215332 56.17025879 15.97485352 56.16137695 C7.71701118 56.03844574 0.43402107 55.63251859 -7.3515625 52.765625 C-13.06244214 51.11469224 -19.1030858 50.66039224 -25 50 C-18.23513692 35.30700373 -10.8793952 20.95249164 -3.36938477 6.63110352 C-2.22422362 4.43081797 -1.10068618 2.22277367 0 0 Z " fill="#D1DBFC" transform="translate(292,424)"/>
<path d="M0 0 C0.91458984 0.52916016 1.82917969 1.05832031 2.77148438 1.60351562 C4.17817383 2.43592773 4.17817383 2.43592773 5.61328125 3.28515625 C6.56267578 3.83623047 7.51207031 4.38730469 8.49023438 4.95507812 C12.02626394 7.01463391 15.52026582 9.07731263 18.92578125 11.34765625 C19.72327361 15.7772991 19.78136965 20.23930124 19.86621094 24.73095703 C19.90566692 26.21573076 19.97368419 27.7000415 20.07128906 29.18212891 C20.4005085 34.19320708 20.41867762 38.51654997 18.92578125 43.34765625 C15.44125212 47.26374668 10.68249968 49.35879884 5.92578125 51.34765625 C3.44520747 48.96248916 1.31795769 46.67531038 -0.51953125 43.765625 C-0.95225342 43.08862549 -1.38497559 42.41162598 -1.83081055 41.71411133 C-2.28238525 40.99505615 -2.73395996 40.27600098 -3.19921875 39.53515625 C-6.01792021 35.05280138 -8.82077353 30.6129621 -12.015625 26.38671875 C-17.37981872 19.19746816 -20.65657452 13.66155549 -19.93359375 4.2734375 C-18.97442345 1.00789861 -18.20769908 -0.14928492 -15.44921875 -2.08984375 C-10.00557584 -4.91594955 -4.99319758 -2.91888369 0 0 Z " fill="#FA7CA0" transform="translate(380.07421875,392.65234375)"/>
<path d="M0 0 C4.39383706 1.59623144 8.28995807 3.78024333 12.3125 6.125 C12.95767578 6.49753906 13.60285156 6.87007812 14.26757812 7.25390625 C15.84675945 8.16632213 17.42361864 9.08275509 19 10 C18.236875 10.86625 17.47375 11.7325 16.6875 12.625 C13.57674521 16.2493228 10.62753975 19.98746124 7.6875 23.75 C4.13217383 28.29393072 0.56455014 32.82548797 -3.0625 37.3125 C-3.77535156 38.19550781 -4.48820312 39.07851562 -5.22265625 39.98828125 C-7 42 -7 42 -9 43 C-10.87939453 42.19555664 -10.87939453 42.19555664 -13.1328125 40.91015625 C-13.93847656 40.45576172 -14.74414062 40.00136719 -15.57421875 39.53320312 C-16.41597656 39.04787109 -17.25773438 38.56253906 -18.125 38.0625 C-18.97449219 37.58103516 -19.82398438 37.09957031 -20.69921875 36.60351562 C-22.80365011 35.40942817 -24.90355191 34.20803163 -27 33 C-26.14148438 32.00613281 -25.28296875 31.01226562 -24.3984375 29.98828125 C-21.0732417 26.10823606 -17.83944696 22.15944885 -14.625 18.1875 C-14.06208252 17.49333984 -13.49916504 16.79917969 -12.91918945 16.08398438 C-8.58997534 10.74083743 -4.28174502 5.38128679 0 0 Z " fill="#6865F6" transform="translate(228,189)"/>
<path d="M0 0 C10.12382934 0 10.12382934 0 14.3046875 0.8046875 C15.67560547 1.06185547 15.67560547 1.06185547 17.07421875 1.32421875 C17.99847656 1.50597656 18.92273438 1.68773437 19.875 1.875 C20.79152344 2.04902344 21.70804687 2.22304687 22.65234375 2.40234375 C24.49371914 2.75197199 26.3345503 3.10447957 28.17480469 3.45996094 C32.77724552 4.33972236 37.38876038 5.16772748 42 6 C42 12.93 42 19.86 42 27 C37.14291546 26.32917441 32.28645757 25.65528186 27.4309082 24.97363281 C25.78141839 24.74299819 24.13168072 24.51412875 22.48168945 24.28710938 C20.10038865 23.9591501 17.72007244 23.62470392 15.33984375 23.2890625 C14.61039047 23.19001617 13.88093719 23.09096985 13.12937927 22.98892212 C12.42918167 22.88896942 11.72898407 22.78901672 11.00756836 22.68603516 C10.4013414 22.60165192 9.79511444 22.51726868 9.17051697 22.43032837 C6.06853141 21.81532632 3.04068809 20.86876803 0 20 C0 13.4 0 6.8 0 0 Z " fill="#6965F6" transform="translate(318,153)"/>
<path d="M0 0 C2.74224352 2.74224352 3.69590288 5.99864258 5.0390625 9.5625 C5.32478119 10.30959229 5.61049988 11.05668457 5.90487671 11.82641602 C6.50752116 13.40575724 7.10752247 14.98610919 7.70507812 16.56738281 C8.62228208 18.99281279 9.5487418 21.41455176 10.4765625 23.8359375 C11.06044837 25.36958142 11.64379994 26.90342889 12.2265625 28.4375 C12.50464752 29.16461182 12.78273254 29.89172363 13.06924438 30.64086914 C15 35.76871336 15 35.76871336 15 38 C15.99 38.495 15.99 38.495 17 39 C14.04205036 40.64652364 11.0835754 42.29210108 8.125 43.9375 C7.28324219 44.40607422 6.44148438 44.87464844 5.57421875 45.35742188 C4.76855469 45.80537109 3.96289062 46.25332031 3.1328125 46.71484375 C2.38918457 47.12855225 1.64555664 47.54226074 0.87939453 47.96850586 C-0.40024717 48.67082934 -1.6943994 49.3471997 -3 50 C-3.3403125 49.01644531 -3.680625 48.03289062 -4.03125 47.01953125 C-7.00339392 38.48646752 -10.09449454 30.00612077 -13.3125 21.5625 C-13.83650391 20.1863855 -13.83650391 20.1863855 -14.37109375 18.7824707 C-16.04270521 14.32915325 -16.04270521 14.32915325 -18 10 C-12.06 6.7 -6.12 3.4 0 0 Z " fill="#6965F6" transform="translate(206,307)"/>
<path d="M0 0 C2.87029869 1.79393668 4.49131638 2.98263276 6 6 C6.50533836 10.37959914 6.27875307 12.51443013 4.0625 16.375 C1.18445817 19.41703282 -1.73858121 20.09062197 -5.84375 20.31640625 C-9.37858033 19.79770832 -10.91360019 17.73839975 -13 15 C-13.33 14.67 -13.66 14.34 -14 14 C-14.67746739 9.31579688 -14.62372761 5.98589203 -12.0625 1.9375 C-7.95859581 -0.65884755 -4.73725096 -0.95259938 0 0 Z " fill="#6966F6" transform="translate(285,504)"/>
<path d="M0 0 C3.99062431 2.48472834 5.68655935 3.96748964 7.0625 8.5 C6.98014889 13.11166214 5.52758591 15.1597503 2.6640625 18.609375 C-0.00438337 20.83934385 -2.41576911 20.5359321 -5.7734375 20.41015625 C-8 20 -8 20 -11 17.9375 C-13.39441358 14.42070506 -14 12.24773336 -14 8 C-11.46118065 1.79399715 -6.64748684 -1.08530397 0 0 Z " fill="#6B67F7" transform="translate(372,486)"/>
<path d="M0 0 C3.4185354 0.79889686 5.05365451 2.80995577 7.15625 5.50390625 C7.48625 5.83390625 7.81625 6.16390625 8.15625 6.50390625 C8.67853971 10.94336877 8.45066099 13.02214281 6.09375 16.87890625 C2.57438506 20.02387066 0.84623307 20.58618665 -3.84375 20.50390625 C-7.85894063 18.98873997 -9.44743353 18.09838095 -11.84375 14.50390625 C-12.67364594 9.83901749 -12.45556179 6.4709636 -9.90625 2.44140625 C-6.33791328 0.1838871 -4.15607312 -0.21473044 0 0 Z " fill="#6966F6" transform="translate(332.84375,525.49609375)"/>
</svg>
