<?xml version="1.0" encoding="UTF-8"?>
<svg version="1.1" xmlns="http://www.w3.org/2000/svg" width="640" height="640">
<path d="M0 0 C211.2 0 422.4 0 640 0 C640 211.2 640 422.4 640 640 C428.8 640 217.6 640 0 640 C0 428.8 0 217.6 0 0 Z " fill="#FEFEFE" transform="translate(0,0)"/>
<path d="M0 0 C2.7980957 1.21826172 2.7980957 1.21826172 5.67578125 2.9296875 C6.74368896 3.55576904 7.81159668 4.18185059 8.91186523 4.8269043 C10.03407471 5.50277588 11.15628418 6.17864746 12.3125 6.875 C13.47599001 7.56466224 14.64013883 8.25321422 15.80493164 8.94067383 C18.12458521 10.31167288 20.44007801 11.68933836 22.75292969 13.07177734 C25.61425871 14.77093348 28.49019821 16.436919 31.3828125 18.08203125 C32.16358154 18.52885254 32.94435059 18.97567383 33.7487793 19.43603516 C35.16664421 20.24674074 36.58722732 21.0527182 38.01098633 21.85302734 C41.48129438 23.86434568 43.93263541 25.54979087 46 29 C46.36076355 31.56903076 46.36076355 31.56903076 46.34057617 34.50292969 C46.34034958 35.60376892 46.34012299 36.70460815 46.33988953 37.83880615 C46.32440567 39.02121887 46.30892181 40.20363159 46.29296875 41.421875 C46.28872391 42.63699768 46.28447906 43.85212036 46.28010559 45.10406494 C46.26330876 48.98626839 46.22565338 52.86795336 46.1875 56.75 C46.17245452 59.38150292 46.15876588 62.01301398 46.14648438 64.64453125 C46.11340185 71.09653117 46.06319179 77.54822854 46 84 C46.60126709 84.28286865 47.20253418 84.5657373 47.82202148 84.85717773 C50.9297887 86.4878759 53.42844041 88.77444142 56.0625 91.0625 C57.22131247 92.04692408 58.38016737 93.03129823 59.5390625 94.015625 C61.75282201 95.91031734 63.93068782 97.83603136 66.0859375 99.796875 C67.02695312 100.62703125 67.96796875 101.4571875 68.9375 102.3125 C69.77152344 103.07175781 70.60554688 103.83101563 71.46484375 104.61328125 C73.91444519 106.28418534 73.91444519 106.28418534 76.64453125 105.609375 C81.48789009 103.28636703 86.11468715 100.64830197 90.75 97.9375 C92.6404555 96.84215533 94.53107239 95.74708913 96.421875 94.65234375 C97.66855957 93.92519165 97.66855957 93.92519165 98.94042969 93.18334961 C102.89445582 90.9115188 105.36976578 90.67865598 110 91 C113.12695312 92.32592773 113.12695312 92.32592773 116.28125 94.18359375 C116.85299957 94.51471161 117.42474915 94.84582947 118.01382446 95.1869812 C119.85147305 96.25603104 121.67563407 97.34596548 123.5 98.4375 C124.75825351 99.17656451 126.01720843 99.91443615 127.27685547 100.65112305 C129.74418095 102.09760837 132.20602882 103.55274416 134.66308594 105.01660156 C137.46610939 106.68266554 140.27874928 108.32876196 143.1015625 109.9609375 C152.71295078 115.56942617 152.71295078 115.56942617 155 119 C155.27415466 121.37716675 155.27415466 121.37716675 155.30639648 124.21826172 C155.32238388 125.28301727 155.33837128 126.34777283 155.35484314 127.4447937 C155.36020584 128.59480865 155.36556854 129.74482361 155.37109375 130.9296875 C155.38012222 132.11217072 155.3891507 133.29465393 155.39845276 134.51296997 C155.41297072 137.01627057 155.42184581 139.51960924 155.42553711 142.02294922 C155.43743227 145.85318946 155.48660574 149.6818187 155.53710938 153.51171875 C155.5465734 155.94270046 155.55380853 158.37369208 155.55859375 160.8046875 C155.57812607 161.95065399 155.59765839 163.09662048 155.61778259 164.27731323 C155.57284562 172.19642129 155.57284562 172.19642129 152.84277344 176.02612305 C149.92304889 178.05343093 147.03034278 179.98899745 143.95703125 181.77734375 C143.38852951 182.11117569 142.82002777 182.44500763 142.23429871 182.78895569 C140.43115134 183.84571771 138.62210738 184.8918468 136.8125 185.9375 C135.61872092 186.63404682 134.42535808 187.3313075 133.23242188 188.02929688 C130.90850481 189.38883062 128.58153554 190.74255172 126.25244141 192.09326172 C123.31294734 193.81653515 120.41116975 195.58949043 117.51171875 197.37890625 C114.10334829 199.44174732 110.88188729 200.97845071 107 202 C106.91959473 202.58378418 106.83918945 203.16756836 106.75634766 203.76904297 C106.38232995 206.47146759 106.00368535 209.17322565 105.625 211.875 C105.49867188 212.7928125 105.37234375 213.710625 105.2421875 214.65625 C104.48932514 220.00157276 103.58566128 225.25695693 102.38037109 230.52001953 C101.89306273 233.69722 101.94375648 236.79118471 102 240 C102.76666992 240.42297363 103.53333984 240.84594727 104.32324219 241.28173828 C107.18500022 242.86953284 110.03893961 244.46989432 112.88867188 246.07910156 C114.11953735 246.77073688 115.35323619 247.45735625 116.58984375 248.13867188 C118.3750237 249.12340017 120.14896866 250.12619088 121.921875 251.1328125 C122.99018555 251.72980957 124.05849609 252.32680664 125.15917969 252.94189453 C128.59919144 255.43409968 130.16442538 257.14261344 132 261 C132.57591734 264.84809035 132.58448935 268.64556898 132.56640625 272.53125 C132.57260483 273.64052856 132.57880341 274.74980713 132.58518982 275.8927002 C132.59227817 278.23265711 132.58913129 280.57266456 132.57641602 282.91259766 C132.56254558 286.48824992 132.59664539 290.06128709 132.63476562 293.63671875 C132.63571682 295.91406314 132.63385798 298.1914108 132.62890625 300.46875 C132.64216446 301.53452271 132.65542267 302.60029541 132.66908264 303.69836426 C132.56552858 311.97103965 132.56552858 311.97103965 129.84765625 315.48071289 C126.94843338 318.04562037 124.19123878 319.96178456 120.80859375 321.83984375 C120.22263931 322.16988907 119.63668488 322.49993439 119.03297424 322.83998108 C117.17394803 323.88394763 115.30626891 324.91109559 113.4375 325.9375 C111.60324405 326.96014687 109.77091062 327.98618028 107.93862915 329.01235962 C106.72939856 329.68764213 105.51843973 330.35983937 104.30575562 331.02890015 C99.37665514 333.75336757 94.57394325 336.66395573 89.80102539 339.65454102 C86.40170864 341.28738636 83.77204159 341.85915486 80 342 C76.98071289 340.89526367 76.98071289 340.89526367 73.97265625 339.16796875 C72.30009766 338.22377075 72.30009766 338.22377075 70.59375 337.26049805 C69.41628645 336.5701468 68.23920967 335.87913546 67.0625 335.1875 C65.8536002 334.49456467 64.64395997 333.80291954 63.43359375 333.11254883 C53.43384974 327.37855161 43.59171527 321.39447685 34 315 C34.36206543 315.66209473 34.72413086 316.32418945 35.09716797 317.00634766 C37.74780454 321.85889434 40.38965254 326.71578177 43.0078125 331.5859375 C48.28044602 341.38577483 53.59652182 351.15420602 59.125 360.8125 C59.61315186 361.66642334 60.10130371 362.52034668 60.60424805 363.40014648 C63.03667018 367.6375947 65.50223774 371.85144579 68.01953125 376.0390625 C76.62938996 390.42009942 83.48440839 403.76337466 81 421 C78.93738262 429.17181039 75.21948163 436.40423714 70 443 C69.52304687 443.61359375 69.04609375 444.2271875 68.5546875 444.859375 C62.60145315 451.62033461 52.8683762 456.63181829 44 458 C41.65632223 458.09112696 39.31029197 458.12789435 36.96484375 458.12939453 C36.27086864 458.13111286 35.57689354 458.13283119 34.86188889 458.13460159 C32.55373562 458.13892896 30.24565426 458.13597678 27.9375 458.1328125 C26.29396539 458.13399853 24.65043099 458.13552173 23.00689697 458.13735962 C17.67124807 458.14112829 12.33564117 458.13350091 7 458.125 C5.17036951 458.12272937 3.34073897 458.12049147 1.5111084 458.11828613 C-10.46180841 458.10212207 -22.43456971 458.06369361 -34.40737915 458.01115417 C-36.90789564 458.00039626 -39.40841417 457.99062235 -41.90893555 457.9810791 C-50.56047915 457.94659899 -59.21122984 457.88787284 -67.86230469 457.79046631 C-70.43125618 457.76372656 -73.0002821 457.74330663 -75.56933594 457.72955322 C-94.87725874 457.61470086 -110.87636573 456.58353292 -125.75 442.875 C-135.72785216 432.40267021 -138.42791068 420.51241798 -138.1796875 406.54296875 C-137.51157629 393.36955852 -129.73206191 382.23835838 -122.96505737 371.2741394 C-121.84285972 369.4476896 -120.73555563 367.61286303 -119.63110352 365.77563477 C-116.31850936 360.28369882 -112.98660457 354.8828691 -109.22265625 349.68359375 C-100.6772994 337.59073784 -97.88801361 325.67610774 -100.20068359 310.85205078 C-102.12023119 304.00288921 -107.15486666 300.67052045 -113.03222656 297.22070312 C-115.05748414 295.96433986 -116.82574691 294.58020227 -118.6484375 293.046875 C-119.22311768 292.56613525 -119.79779785 292.08539551 -120.38989258 291.59008789 C-120.94185303 291.12723389 -121.49381348 290.66437988 -122.0625 290.1875 C-125.7629668 286.85876252 -125.7629668 286.85876252 -130.36645508 286.2277832 C-133.20829936 287.06107823 -135.42583548 288.18631908 -137.9765625 289.6875 C-138.894375 290.22117187 -139.8121875 290.75484375 -140.7578125 291.3046875 C-142.17707031 292.14386719 -142.17707031 292.14386719 -143.625 293 C-145.5116555 294.10649795 -147.39961961 295.21076851 -149.2890625 296.3125 C-150.12131348 296.80363281 -150.95356445 297.29476563 -151.81103516 297.80078125 C-155.80599475 299.98940957 -159.52712223 300.87543172 -164 300 C-168.1393301 298.18568821 -171.98462786 295.91736224 -175.875 293.625 C-176.97602051 292.99029785 -178.07704102 292.3555957 -179.21142578 291.70166016 C-181.43382168 290.41770274 -183.65246877 289.12723313 -185.8671875 287.83007812 C-188.67038115 286.19255166 -191.48652452 284.58213806 -194.3125 282.984375 C-195.83382797 282.11544878 -197.35469862 281.24572113 -198.875 280.375 C-199.90729736 279.79226318 -199.90729736 279.79226318 -200.96044922 279.19775391 C-204.44129224 277.16807924 -206.91195908 275.45724612 -209 272 C-209.39440918 269.50257874 -209.39440918 269.50257874 -209.41992188 266.66821289 C-209.43583374 265.60353287 -209.45174561 264.53885284 -209.46813965 263.44190979 C-209.46834106 262.29705612 -209.46854248 261.15220245 -209.46875 259.97265625 C-209.47636353 258.79158798 -209.48397705 257.61051971 -209.49182129 256.3936615 C-209.50262514 253.89633295 -209.50547426 251.3989592 -209.50097656 248.90161133 C-209.50000448 245.08012569 -209.54162237 241.26064872 -209.5859375 237.43945312 C-209.59114458 235.01302502 -209.59383269 232.58658994 -209.59375 230.16015625 C-209.61014526 229.01732681 -209.62654053 227.87449738 -209.64343262 226.69703674 C-209.57469229 218.80882377 -209.57469229 218.80882377 -206.84985352 214.97387695 C-203.88880004 212.92298024 -200.95241407 211.01865474 -197.80859375 209.2578125 C-197.22263931 208.92635223 -196.63668488 208.59489197 -196.03297424 208.25338745 C-194.17206247 207.20282071 -192.30510669 206.16360935 -190.4375 205.125 C-188.60330305 204.09485788 -186.7704247 203.06239863 -184.93765259 202.02972412 C-183.73102423 201.35093105 -182.5233264 200.67403542 -181.31454468 199.99908447 C-178.36193618 198.34773203 -175.42959081 196.67200294 -172.52783203 194.93261719 C-171.45774902 194.29227539 -170.38766602 193.65193359 -169.28515625 192.9921875 C-168.33648682 192.41581543 -167.38781738 191.83944336 -166.41040039 191.24560547 C-164 190 -164 190 -161 190 C-160.96261719 189.46375 -160.92523438 188.9275 -160.88671875 188.375 C-160.31944575 181.61221597 -159.0941002 175.05403349 -157.71875 168.41796875 C-156.65546979 162.66926033 -156.3784138 156.825903 -156 151 C-156.73637695 150.5968457 -157.47275391 150.19369141 -158.23144531 149.77832031 C-160.97783143 148.27044954 -163.72071772 146.7564445 -166.46142578 145.23828125 C-167.64529324 144.58413227 -168.83050019 143.93240111 -170.01708984 143.28320312 C-171.72849295 142.3463141 -173.43462082 141.3998094 -175.140625 140.453125 C-176.16704102 139.88754883 -177.19345703 139.32197266 -178.25097656 138.73925781 C-182.10150473 136.30309772 -184.54377135 134.36868594 -186 130 C-186.10675243 128.39072228 -186.15861618 126.7775047 -186.17700195 125.16479492 C-186.18983719 124.18335007 -186.20267242 123.20190521 -186.21589661 122.1907196 C-186.22328354 121.13133682 -186.23067047 120.07195404 -186.23828125 118.98046875 C-186.246353 117.88914139 -186.25442474 116.79781403 -186.26274109 115.67341614 C-186.27657661 113.36261583 -186.28730114 111.05179514 -186.29516602 108.7409668 C-186.31238204 105.21168213 -186.35627459 101.68333339 -186.40039062 98.15429688 C-186.41051743 95.90886105 -186.41903357 93.66341727 -186.42578125 91.41796875 C-186.44328934 90.36465866 -186.46079742 89.31134857 -186.47883606 88.22612 C-186.46143201 82.33130022 -186.18577727 78.52490274 -182 74 C-179.3972168 72.0847168 -179.3972168 72.0847168 -176.44921875 70.44921875 C-175.36503662 69.83699463 -174.28085449 69.22477051 -173.16381836 68.59399414 C-172.0166333 67.96485107 -170.86944824 67.33570801 -169.6875 66.6875 C-167.91274473 65.69854132 -166.14026796 64.70559189 -164.36805725 63.71208191 C-162.63273715 62.73965404 -160.89548214 61.77068168 -159.15820312 60.80175781 C-156.47716523 59.2722232 -153.86172674 57.69136929 -151.265625 56.0234375 C-150.60216064 55.59973877 -149.93869629 55.17604004 -149.25512695 54.73950195 C-147.57711163 53.65290533 -145.91101699 52.54795866 -144.24609375 51.44140625 C-139.902528 49.51267489 -136.67115603 49.02770041 -132 50 C-127.93157804 51.76004514 -124.25100392 54.023836 -120.5 56.375 C-119.45424805 57.00752686 -118.40849609 57.64005371 -117.33105469 58.29174805 C-115.21529274 59.57224707 -113.10421014 60.86051195 -110.99804688 62.15673828 C-106.77479234 64.75328321 -102.51640025 67.28773914 -98.25 69.8125 C-97.56615234 70.22612793 -96.88230469 70.63975586 -96.17773438 71.06591797 C-91.83850738 73.75784383 -91.83850738 73.75784383 -87 75 C-84.37676427 74.25594092 -81.92861181 73.44141514 -79.390625 72.47265625 C-78.66381531 72.20488876 -77.93700562 71.93712128 -77.18817139 71.66123962 C-74.87154492 70.80510928 -72.56086138 69.93405643 -70.25 69.0625 C-68.67875385 68.47882494 -67.10714295 67.89613077 -65.53515625 67.31445312 C-61.68578188 65.88764248 -57.84166813 64.44742468 -54 63 C-53.98541748 62.05680908 -53.97083496 61.11361816 -53.95581055 60.1418457 C-53.89460394 56.62841339 -53.82042492 53.11574554 -53.73754883 49.6027832 C-53.70438084 48.08498379 -53.67632368 46.56706344 -53.65356445 45.04907227 C-53.61986722 42.86161981 -53.56754796 40.67526736 -53.51171875 38.48828125 C-53.48553467 37.17384033 -53.45935059 35.85939941 -53.43237305 34.50512695 C-52.87894553 30.01864538 -51.64385408 27.39812102 -48.1953125 24.46508789 C-47.17050781 23.81914673 -47.17050781 23.81914673 -46.125 23.16015625 C-45.32835937 22.65629395 -44.53171875 22.15243164 -43.7109375 21.63330078 C-38.51167668 18.50082106 -33.26959891 15.44999433 -28 12.4375 C-26.8759375 11.79103516 -25.751875 11.14457031 -24.59375 10.47851562 C-22.40303369 9.22064522 -20.20912501 7.96831467 -18.01171875 6.72216797 C-16.12658648 5.64420728 -14.25210793 4.54714406 -12.39453125 3.42236328 C-11.62496094 2.96458496 -10.85539063 2.50680664 -10.0625 2.03515625 C-9.41410156 1.63820557 -8.76570312 1.24125488 -8.09765625 0.83227539 C-5.20794576 -0.31425895 -3.09034063 -0.30925305 0 0 Z " fill="#082C76" transform="translate(347,92)"/>
<path d="M0 0 C14.52 0 29.04 0 44 0 C43.89816406 4.45113281 43.79632813 8.90226562 43.69140625 13.48828125 C43.66022422 16.37349981 43.63367787 19.25738596 43.62304688 22.14257812 C43.60589068 26.6853397 43.57511541 31.22387567 43.44116211 35.76489258 C42.82613515 57.4988601 45.85852339 71.96179989 58.12802124 90.17074585 C61.00815067 94.52368955 63.52260341 99.0684865 66.0625 103.625 C67.03176688 105.3189044 68.00287666 107.01175682 68.9765625 108.703125 C72.33611487 114.57182229 75.63837253 120.47218047 78.9375 126.375 C83.58899077 134.69611447 88.2497813 143.01172824 92.9375 151.3125 C93.47729492 152.26866211 94.01708984 153.22482422 94.57324219 154.20996094 C97.8934028 160.07868097 101.25990112 165.91396187 104.73046875 171.6953125 C108.40160093 178.35982939 110.18263587 185.95408695 108.4140625 193.5 C105.49830884 200.67723979 100.14885423 207.7153913 93 211 C89.83778953 211.97321945 86.96318347 212.13188121 83.66162109 212.14526367 C82.5767038 212.15153778 81.4917865 212.15781189 80.37399292 212.16427612 C79.18580963 212.16549469 77.99762634 212.16671326 76.7734375 212.16796875 C75.51395294 212.17224884 74.25446838 212.17652893 72.95681763 212.18093872 C68.76286407 212.19286883 64.56896497 212.19132886 60.375 212.1875 C59.65853302 212.18708584 58.94206604 212.18667168 58.20388794 212.18624496 C34.60508692 212.16912848 11.0085351 211.93847733 -12.58465576 211.41714478 C-15.84989575 211.34535187 -19.11505873 211.28427925 -22.38067627 211.23251343 C-26.25068641 211.17015859 -30.11944028 211.08365002 -33.98852921 210.97893906 C-35.40805826 210.94412874 -36.82780701 210.91717866 -38.24764633 210.89899063 C-47.53736318 210.77213741 -56.09485881 210.01521465 -62.9005127 203.05683899 C-67.96617531 196.89579875 -70.82483397 189.83712865 -70.53125 181.8125 C-68.78342428 172.55930503 -62.52831677 164.03878842 -57.53100586 156.21704102 C-52.73721477 148.68868348 -48.22601632 140.9961149 -43.6875 133.3125 C-38.32544063 124.24394079 -32.94732674 115.19164058 -27.375 106.25 C-22.56168736 98.52223322 -17.77149978 90.78123005 -13.02764893 83.01062012 C-12.26891759 81.76941038 -11.50850341 80.52922752 -10.74627686 79.29016113 C-9.67793198 77.55290802 -8.61565931 75.81207561 -7.5546875 74.0703125 C-6.63405518 72.56621826 -6.63405518 72.56621826 -5.69482422 71.03173828 C-5.13553223 70.03126465 -4.57624023 69.03079102 -4 68 C-3.44223877 67.00911377 -2.88447754 66.01822754 -2.30981445 64.99731445 C0.01714282 59.32939797 -0.51791326 52.99267131 -0.48828125 46.97265625 C-0.47141401 45.61500953 -0.45326104 44.25737823 -0.43388367 42.89976501 C-0.38659877 39.34724753 -0.35665118 35.79479259 -0.33044434 32.24206543 C-0.30052938 28.60851783 -0.25419565 24.97518104 -0.20898438 21.34179688 C-0.1216593 14.2278491 -0.06153228 7.11440447 0 0 Z " fill="#FDFDFE" transform="translate(299,318)"/>
<path d="M0 0 C0.59731934 0.44456543 1.19463867 0.88913086 1.81005859 1.34716797 C2.9839917 2.0171582 2.9839917 2.0171582 4.18164062 2.70068359 C5.05159668 3.21308594 5.92155273 3.72548828 6.81787109 4.25341797 C8.28571045 5.11555908 8.28571045 5.11555908 9.78320312 5.99511719 C11.34337158 6.91188232 11.34337158 6.91188232 12.93505859 7.84716797 C16.18624478 9.74447049 19.43922632 11.6386554 22.69287109 13.53173828 C24.66327721 14.67928997 26.63222358 15.82935507 28.59912109 16.98291016 C31.03715634 18.40908712 33.48422781 19.81812742 35.93505859 21.22216797 C36.64936035 21.64433594 37.36366211 22.06650391 38.09960938 22.50146484 C38.76976074 22.88109375 39.43991211 23.26072266 40.13037109 23.65185547 C40.70029785 23.98169434 41.27022461 24.3115332 41.85742188 24.65136719 C45.91246653 26.09633809 48.94335358 25.74896808 52.81445312 23.9543457 C53.84683105 23.31956299 54.87920898 22.68478027 55.94287109 22.03076172 C56.50199188 21.69544937 57.06111267 21.36013702 57.63717651 21.0146637 C59.41094879 19.95030428 61.17385936 18.86968819 62.93505859 17.78466797 C65.26265514 16.35232522 67.59941488 14.93696675 69.94287109 13.53076172 C70.97299316 12.89710693 72.00311523 12.26345215 73.06445312 11.6105957 C75.81005859 10.34716797 75.81005859 10.34716797 77.9987793 10.51147461 C81.0326106 11.9112326 83.39314345 14.15235423 85.87255859 16.34716797 C87.02805363 17.34934118 88.184317 18.35062913 89.34130859 19.35107422 C90.20949219 20.10541748 90.20949219 20.10541748 91.09521484 20.875 C94.48824691 23.78786779 97.98621155 26.57159178 101.47021484 29.37451172 C107.66328148 34.59571147 107.66328148 34.59571147 108.28434753 37.77539062 C108.27244888 38.67821777 108.26055023 39.58104492 108.24829102 40.51123047 C108.24299629 42.05302979 108.24299629 42.05302979 108.2375946 43.62597656 C108.21381241 44.73021973 108.19003021 45.83446289 108.16552734 46.97216797 C108.15749588 48.11121582 108.14946442 49.25026367 108.14118958 50.42382812 C108.11217451 54.06541324 108.05592384 57.70594524 107.99755859 61.34716797 C107.95504723 64.98825439 107.91816126 68.62931513 107.88606262 72.27050781 C107.86437481 74.53653884 107.83570106 76.80251594 107.79936218 79.06835938 C107.77988274 80.61015869 107.77988274 80.61015869 107.76000977 82.18310547 C107.74572433 83.08593262 107.7314389 83.98875977 107.71672058 84.91894531 C107.80636134 87.25098263 108.01156916 89.15451866 108.81005859 91.34716797 C111.07386368 92.47349123 111.07386368 92.47349123 113.81005859 93.34716797 C115.74075223 94.4008922 117.65249351 95.48977674 119.54833984 96.60498047 C120.61503906 97.23017578 121.68173828 97.85537109 122.78076172 98.49951172 C123.88355469 99.15048828 124.98634766 99.80146484 126.12255859 100.47216797 C127.2446875 101.13087891 128.36681641 101.78958984 129.52294922 102.46826172 C132.28714516 104.09149167 135.04942492 105.71788951 137.81005859 107.34716797 C137.38957497 110.43811814 136.94424759 113.519391 136.45849609 116.60107422 C135.91188102 120.25025083 135.61304509 123.88210937 135.34912109 127.56201172 C133.91514539 143.75159746 133.91514539 143.75159746 130.44580078 148.02929688 C126.85278345 150.73113275 122.64853888 151.91798678 118.42626953 153.31933594 C113.02731149 155.44042714 108.14640973 158.62073372 103.18505859 161.59716797 C102.15413086 162.20133545 101.12320313 162.80550293 100.06103516 163.42797852 C90.93960716 168.25956524 90.93960716 168.25956524 83.81005859 175.34716797 C83.56984689 177.95510188 83.43742164 180.46603942 83.39599609 183.07763672 C83.37662994 183.8280574 83.35726379 184.57847809 83.33731079 185.35163879 C83.277584 187.74586664 83.23115795 190.14014274 83.18505859 192.53466797 C83.14687239 194.15903776 83.10782028 195.78338745 83.06787109 197.40771484 C82.97188835 201.38736901 82.88783223 205.36711798 82.81005859 209.34716797 C79.51005859 210.33716797 76.21005859 211.32716797 72.81005859 212.34716797 C66.21063231 203.99701665 64.82433991 197.64821181 65.12646484 187.14794922 C65.13636948 185.83175095 65.14627411 184.51555267 65.15647888 183.1594696 C65.18292097 179.69803896 65.2514205 176.23873884 65.32940674 172.77813721 C65.40164377 169.23177906 65.43311764 165.68506891 65.46826172 162.13818359 C65.54282786 155.2069822 65.66193778 148.27717797 65.81005859 141.34716797 C66.3542041 141.09249756 66.89834961 140.83782715 67.45898438 140.57543945 C68.17554199 140.2306958 68.89209961 139.88595215 69.63037109 139.53076172 C70.3395166 139.19359131 71.04866211 138.8564209 71.77929688 138.5090332 C76.52027937 135.79656198 79.14463184 131.46933947 80.81005859 126.34716797 C81.19645707 122.09840823 81.18168384 117.85725268 81.18066406 113.59204102 C81.18502462 111.55057511 81.22134725 109.51129716 81.25927734 107.47021484 C81.28395684 99.14088388 81.11750148 92.71019077 74.99365234 86.50732422 C74.41744141 86.14509766 73.84123047 85.78287109 73.24755859 85.40966797 C72.66876953 85.02939453 72.08998047 84.64912109 71.49365234 84.25732422 C68.27934416 82.51965878 65.488656 82.18367742 61.90625 82.04394531 C60.9009726 82.0038736 59.89569519 81.96380188 58.85995483 81.92251587 C57.21490463 81.86588272 57.21490463 81.86588272 55.53662109 81.80810547 C54.3873111 81.76688568 53.2380011 81.72566589 52.05386353 81.68319702 C39.39821875 81.25815322 26.74291072 81.05629999 14.08056641 80.99707031 C11.45124618 80.98026217 8.82197587 80.95266201 6.19287109 80.91503906 C2.32284868 80.86039115 -1.54614854 80.83845048 -5.41650391 80.82373047 C-6.58420319 80.8010611 -7.75190247 80.77839172 -8.95498657 80.7550354 C-15.98557684 80.77330606 -20.81462988 81.6324185 -26.18994141 86.34716797 C-31.84345019 92.18290383 -31.87062315 98.74786163 -31.82470703 106.48779297 C-31.80597534 107.5928418 -31.80597534 107.5928418 -31.78686523 108.72021484 C-31.75240221 110.97473183 -31.7662757 113.22535098 -31.78564453 115.47998047 C-31.77874828 116.92791364 -31.76907787 118.37583683 -31.75634766 119.82373047 C-31.74547119 121.12391113 -31.73459473 122.4240918 -31.72338867 123.76367188 C-30.70473342 130.60661089 -26.47187078 134.41381631 -21.18994141 138.34716797 C-20.19994141 138.67716797 -19.20994141 139.00716797 -18.18994141 139.34716797 C-18.12480898 151.34756654 -18.12375017 163.34676256 -18.18994141 175.34716797 C-18.19864258 177.30130615 -18.19864258 177.30130615 -18.20751953 179.29492188 C-18.23474053 182.58457933 -18.29738937 185.8709297 -18.37744141 189.15966797 C-18.38316162 190.10455078 -18.38888184 191.04943359 -18.39477539 192.02294922 C-18.59485964 198.05318909 -19.88400378 202.00984922 -24.18994141 206.34716797 C-27.11004147 208.66015592 -29.75346729 210.43738132 -33.61572266 210.19482422 C-36.82293653 209.13873103 -38.45053725 207.62332107 -40.87744141 205.28466797 C-49.2298741 197.31578083 -49.2298741 197.31578083 -58.79980469 190.98486328 C-62.69702557 186.68398744 -61.83690477 181.91577479 -61.75634766 176.31982422 C-61.76198227 175.13875595 -61.76761688 173.95768768 -61.77342224 172.74082947 C-61.78990447 168.96337387 -61.77430117 165.18708347 -61.75244141 161.40966797 C-61.73585936 157.63593142 -61.72673855 153.86296636 -61.74217224 150.08921814 C-61.75146584 147.74087795 -61.74224371 145.39237543 -61.71253967 143.04420471 C-61.69441695 136.91721628 -61.69441695 136.91721628 -63.85302734 131.30029297 C-66.46005154 129.12141775 -69.00327532 127.51581785 -72.01416016 125.93701172 C-73.1246875 125.33953125 -74.23521484 124.74205078 -75.37939453 124.12646484 C-77.72221192 122.89292112 -80.0659718 121.66116585 -82.41064453 120.43115234 C-83.51730469 119.83496094 -84.62396484 119.23876953 -85.76416016 118.62451172 C-86.78082764 118.09075928 -87.79749512 117.55700684 -88.8449707 117.00708008 C-91.18994141 115.34716797 -91.18994141 115.34716797 -92.05444336 113.61669922 C-92.76493668 101.71625611 -91.72119931 83.17866587 -83.99853516 73.640625 C-78.71249559 69.42692514 -72.65661367 67.03680701 -66.37939453 64.65722656 C-60.92013944 62.41485341 -55.97742933 59.33593195 -50.93994141 56.28466797 C-49.53905273 55.47763428 -49.53905273 55.47763428 -48.10986328 54.65429688 C-47.24425781 54.14946777 -46.37865234 53.64463867 -45.48681641 53.12451172 C-44.72723633 52.68357178 -43.96765625 52.24263184 -43.18505859 51.78833008 C-40.84339892 50.09684488 -39.58137494 48.89745725 -38.18994141 46.34716797 C-37.86565792 43.66574085 -37.70193886 41.20269263 -37.67822266 38.51904297 C-37.66027145 37.77003723 -37.64232025 37.02103149 -37.62382507 36.24932861 C-37.56979598 33.86533173 -37.53585138 31.48153417 -37.50244141 29.09716797 C-37.46926165 27.47734861 -37.43477138 25.85755553 -37.39892578 24.23779297 C-37.31407425 20.27439531 -37.24722851 16.311056 -37.18994141 12.34716797 C-32.28596164 10.43955785 -27.37486051 8.55215514 -22.45605469 6.68310547 C-20.78369316 6.04440811 -19.11341468 5.40022861 -17.4453125 4.75048828 C-15.04774476 3.81770464 -12.64338736 2.90486554 -10.23681641 1.99560547 C-9.11941071 1.55358292 -9.11941071 1.55358292 -7.97943115 1.10263062 C-2.78270146 -0.82953665 -2.78270146 -0.82953665 0 0 Z " fill="#FDFDFE" transform="translate(297.18994140625,176.65283203125)"/>
<path d="M0 0 C1.09700226 -0.00307663 2.19400452 -0.00615326 3.32424927 -0.00932312 C4.51259369 -0.0021376 5.70093811 0.00504791 6.92529297 0.01245117 C8.78865799 0.0131385 8.78865799 0.0131385 10.68966675 0.01383972 C13.33442664 0.01686576 15.97884088 0.02368204 18.62353516 0.03710938 C22.57570241 0.05697071 26.52776104 0.0576213 30.47998047 0.05737305 C38.16836177 0.06649381 45.85484285 0.1385893 53.54248047 0.24291992 C54.78380737 0.2572406 56.02513428 0.27156128 57.30407715 0.28631592 C60.86101217 0.33631158 64.41602817 0.41524295 67.97216797 0.50463867 C69.55289597 0.52467705 69.55289597 0.52467705 71.16555786 0.54512024 C78.4560185 0.77651684 84.21401667 1.95235135 89.60107422 7.27807617 C90.05611328 7.94709961 90.51115234 8.61612305 90.97998047 9.30541992 C91.45306641 9.97702148 91.92615234 10.64862305 92.41357422 11.34057617 C95.5855558 16.68574929 94.80280774 22.8271751 94.83764648 28.84716797 C94.84912886 30.2271554 94.86952149 31.60709973 94.89916992 32.98681641 C95.09936208 42.3108501 95.01040009 48.97537263 88.79638672 56.30151367 C88.23822266 56.75655273 87.68005859 57.2115918 87.10498047 57.68041992 C86.54939453 58.15350586 85.99380859 58.6265918 85.42138672 59.11401367 C83.165341 60.46951723 81.11621957 60.77901921 78.54248047 61.24291992 C78.39307913 68.70334282 78.31233781 76.16208306 78.31188583 83.62395 C78.30967484 87.0919227 78.28653859 90.55673472 78.20996094 94.02392578 C77.82986699 112.08884883 79.4564752 125.1994121 90.09057617 140.16226196 C92.04974449 142.9698569 93.65672055 145.87208021 95.28466797 148.88354492 C95.80552979 149.81505371 96.3263916 150.7465625 96.86303711 151.70629883 C97.63248657 153.08567627 97.63248657 153.08567627 98.41748047 154.49291992 C99.60106492 156.61011262 100.78465896 158.72729996 101.96826172 160.84448242 C102.55816895 161.90054688 103.14807617 162.95661133 103.75585938 164.04467773 C111.32945526 177.6022216 118.91482367 191.15320426 126.54248047 204.68041992 C127.05818604 205.59710449 127.5738916 206.51378906 128.10522461 207.45825195 C130.58358065 211.84691498 133.10994588 216.19188909 135.73779297 220.49291992 C142.50261279 231.73562684 145.4177644 243.23235101 143.54248047 256.24291992 C141.47986309 264.41473031 137.7619621 271.64715706 132.54248047 278.24291992 C132.06552734 278.85651367 131.58857422 279.47010742 131.09716797 280.10229492 C125.14393362 286.86325453 115.41085667 291.87473821 106.54248047 293.24291992 C104.1988027 293.33404689 101.85277244 293.37081427 99.50732422 293.37231445 C98.81334911 293.37403278 98.11937401 293.37575111 97.40436935 293.37752151 C95.09621609 293.38184888 92.78813473 293.3788967 90.47998047 293.37573242 C88.83644586 293.37691845 87.19291146 293.37844165 85.54937744 293.38027954 C80.21372854 293.38404821 74.87812164 293.37642084 69.54248047 293.36791992 C67.71284998 293.36564929 65.88321944 293.3634114 64.05358887 293.36120605 C52.08067205 293.34504199 40.10791076 293.30661353 28.13510132 293.2540741 C25.63458483 293.24331618 23.1340663 293.23354228 20.63354492 293.22399902 C11.98200132 293.18951891 3.33125063 293.13079277 -5.31982422 293.03338623 C-7.88877571 293.00664648 -10.45780163 292.98622655 -13.02685547 292.97247314 C-32.33477827 292.85762078 -48.33388526 291.82645284 -63.20751953 278.11791992 C-73.18537169 267.64559013 -75.88543022 255.75533791 -75.63720703 241.78588867 C-74.96909582 228.61247844 -67.18958144 217.4812783 -60.4225769 206.51705933 C-59.30037925 204.69060952 -58.19307516 202.85578295 -57.08862305 201.01855469 C-53.77602889 195.52661874 -50.4441241 190.12578902 -46.68017578 184.92651367 C-38.13481893 172.83365777 -35.34553314 160.91902766 -37.65820312 146.0949707 C-39.57371974 139.26019211 -44.61059993 135.90041352 -50.4765625 132.45043945 C-53.76332311 130.44694944 -56.69827029 128.00894186 -59.70751953 125.61791992 C-60.77327745 124.81065099 -61.84083477 124.00574902 -62.91064453 123.20385742 C-65.45751953 121.24291992 -65.45751953 121.24291992 -67.45751953 119.24291992 C-65.00233218 117.73754957 -62.54367433 116.23847566 -60.08251953 114.74291992 C-59.03451172 114.0990332 -59.03451172 114.0990332 -57.96533203 113.44213867 C-52.68408203 110.24291992 -52.68408203 110.24291992 -50.45751953 110.24291992 C-49.79751953 108.92291992 -49.13751953 107.60291992 -48.45751953 106.24291992 C-47.77431641 106.94545898 -47.09111328 107.64799805 -46.38720703 108.37182617 C-43.26953723 111.48839897 -39.94451799 114.33256656 -36.58251953 117.18041992 C-35.3976237 118.18953451 -34.21272786 119.19864909 -33.02783203 120.20776367 C-32.44283936 120.70147461 -31.85784668 121.19518555 -31.25512695 121.70385742 C-30.0091478 122.77063083 -28.77840258 123.85535739 -27.56030273 124.95385742 C-26.64124146 125.77563477 -26.64124146 125.77563477 -25.70361328 126.61401367 C-24.8788147 127.36509399 -24.8788147 127.36509399 -24.03735352 128.13134766 C-22.36141199 129.52374725 -22.36141199 129.52374725 -19.39501953 129.36791992 C-13.73978169 127.20208415 -10.16036802 124.6986736 -7.45751953 119.24291992 C-6.95418878 116.32207703 -6.95418878 116.32207703 -6.93334961 113.16748047 C-6.8935347 111.96661301 -6.85371979 110.76574554 -6.81269836 109.52848816 C-6.77030281 107.59855766 -6.77030281 107.59855766 -6.72705078 105.62963867 C-6.68773637 104.29153307 -6.64716503 102.95346386 -6.60539246 101.61543274 C-6.49918719 98.10584283 -6.40999566 94.59602146 -6.32440186 91.08587646 C-6.23391113 87.49925462 -6.1272515 83.91311713 -6.02197266 80.3269043 C-5.81804086 73.29929881 -5.63208862 66.27132108 -5.45751953 59.24291992 C-6.24231689 59.10861572 -7.02711426 58.97431152 -7.83569336 58.8359375 C-10.90728914 58.14118881 -11.99574067 57.18595526 -14.14501953 54.93041992 C-14.72638672 54.33616211 -15.30775391 53.7419043 -15.90673828 53.12963867 C-20.73224731 47.25880527 -19.86515626 40.51791622 -19.88305664 33.28149414 C-19.89491134 31.01361696 -19.94407458 28.74850113 -19.99462891 26.48120117 C-20.08090513 18.76217037 -20.09090969 12.14959472 -14.45751953 6.24291992 C-9.86725997 1.98853301 -6.27697699 -0.00930951 0 0 Z M14.54248047 61.24291992 C14.55150391 65.48393555 14.56052734 69.72495117 14.56982422 74.09448242 C14.5574075 77.51533691 14.53800198 80.93599615 14.5139389 84.35678101 C14.49057536 87.94639727 14.47899732 91.5350918 14.49780273 95.12475586 C14.51549346 98.59429483 14.49832655 102.06219444 14.45880318 105.5315361 C14.44523555 107.47311901 14.46609185 109.4148473 14.48802185 111.35635376 C14.3289702 121.31304463 11.51680287 127.79843561 6.54248047 136.24291992 C6.01402023 137.14856186 5.48556 138.0542038 4.94108582 138.98728943 C3.5589463 141.30997162 2.12214186 143.59002128 0.66748047 145.86791992 C-0.47432225 147.68619131 -1.614882 149.50524365 -2.75439453 151.32495117 C-3.35445312 152.28095215 -3.95451172 153.23695313 -4.57275391 154.22192383 C-7.95290868 159.63980402 -11.26938752 165.09638605 -14.58251953 170.55541992 C-15.10990723 171.42372437 -15.10990723 171.42372437 -15.64794922 172.30957031 C-22.42897159 183.48039622 -29.10129038 194.71494782 -35.75463867 205.9621582 C-40.53402452 214.03652771 -45.35350438 222.08219921 -50.33789062 230.0324707 C-54.63628547 236.95343498 -56.4127296 242.11773798 -55.45751953 250.24291992 C-53.57127175 257.18635093 -50.61110087 263.41828273 -44.5111084 267.5665741 C-37.01730751 271.74798763 -30.04508865 272.06055469 -21.61376953 272.16870117 C-20.14817609 272.2047304 -18.68262942 272.24270618 -17.21713257 272.2824707 C-13.2809116 272.38266556 -9.34472129 272.45221157 -5.40773773 272.51437759 C-2.12368149 272.56938711 1.15994419 272.64073446 4.44368935 272.71164227 C15.47589735 272.94801524 26.50862942 273.10728053 37.54248047 273.24291992 C38.36337662 273.25331299 39.18427277 273.26370605 40.03004456 273.27441406 C50.85767014 273.41078705 61.6848084 273.50432488 72.51321411 273.54574203 C74.6598045 273.55538544 76.80632348 273.56964092 78.95288086 273.58486938 C82.94381592 273.6114768 86.93427113 273.61081726 90.92529297 273.60620117 C92.67660019 273.61985718 92.67660019 273.61985718 94.46328735 273.63378906 C101.71628444 273.59284326 107.5975749 272.98164933 113.71435547 268.73510742 C119.61023879 262.69328639 123.23623664 255.81774708 123.54248047 247.24291992 C122.21644078 232.71291059 111.31129859 218.62863598 104.27587891 206.28637695 C101.5418765 201.48608484 98.82303069 196.67725726 96.10498047 191.86791992 C95.57259766 190.9266626 95.04021484 189.98540527 94.49169922 189.015625 C90.46701934 181.8946199 86.47065242 174.75802558 82.47998047 167.61791992 C76.67417873 157.23224592 70.79983747 146.88735179 64.87597656 136.56860352 C64.43592285 135.80112793 63.99586914 135.03365234 63.54248047 134.24291992 C62.84300293 133.30907471 62.14352539 132.37522949 61.42285156 131.41308594 C58.14208535 125.6206744 58.93687762 118.58843996 58.93310547 112.12182617 C58.91810866 110.65207612 58.90137837 109.18234283 58.88299561 107.71263123 C58.83947746 103.86413763 58.81935788 100.01587131 58.80426025 96.16717529 C58.78117542 91.53884498 58.72876383 86.91076332 58.68132019 82.28263092 C58.61268319 75.26932934 58.5810922 68.25674034 58.54248047 61.24291992 C44.02248047 61.24291992 29.50248047 61.24291992 14.54248047 61.24291992 Z " fill="#072B76" transform="translate(284.45751953125,256.757080078125)"/>
<path d="M0 0 C3.12695312 1.32592773 3.12695312 1.32592773 6.28125 3.18359375 C6.85299957 3.51471161 7.42474915 3.84582947 8.01382446 4.1869812 C9.85147305 5.25603104 11.67563407 6.34596548 13.5 7.4375 C14.75825351 8.17656451 16.01720843 8.91443615 17.27685547 9.65112305 C19.74418095 11.09760837 22.20602882 12.55274416 24.66308594 14.01660156 C27.46610939 15.68266554 30.27874928 17.32876196 33.1015625 18.9609375 C42.71295078 24.56942617 42.71295078 24.56942617 45 28 C45.27415466 30.37716675 45.27415466 30.37716675 45.30639648 33.21826172 C45.32238388 34.28301727 45.33837128 35.34777283 45.35484314 36.4447937 C45.36020584 37.59480865 45.36556854 38.74482361 45.37109375 39.9296875 C45.38012222 41.11217072 45.3891507 42.29465393 45.39845276 43.51296997 C45.41297072 46.01627057 45.42184581 48.51960924 45.42553711 51.02294922 C45.43743227 54.85318946 45.48660574 58.6818187 45.53710938 62.51171875 C45.5465734 64.94270046 45.55380853 67.37369208 45.55859375 69.8046875 C45.57812607 70.95065399 45.59765839 72.09662048 45.61778259 73.27731323 C45.57284562 81.19642129 45.57284562 81.19642129 42.84277344 85.02612305 C39.92304889 87.05343093 37.03034278 88.98899745 33.95703125 90.77734375 C33.10427864 91.27809166 33.10427864 91.27809166 32.23429871 91.78895569 C30.43115134 92.84571771 28.62210738 93.8918468 26.8125 94.9375 C25.61872092 95.63404682 24.42535808 96.3313075 23.23242188 97.02929688 C20.90850481 98.38883062 18.58153554 99.74255172 16.25244141 101.09326172 C13.31294734 102.81653515 10.41116975 104.58949043 7.51171875 106.37890625 C4.10334829 108.44174732 0.88188729 109.97845071 -3 111 C-3.08040527 111.58378418 -3.16081055 112.16756836 -3.24365234 112.76904297 C-3.61767005 115.47146759 -3.99631465 118.17322565 -4.375 120.875 C-4.56449219 122.25171875 -4.56449219 122.25171875 -4.7578125 123.65625 C-5.51067486 129.00157276 -6.41433872 134.25695693 -7.61962891 139.52001953 C-8.10693727 142.69722 -8.05624352 145.79118471 -8 149 C-7.23333008 149.42297363 -6.46666016 149.84594727 -5.67675781 150.28173828 C-2.81499978 151.86953284 0.03893961 153.46989432 2.88867188 155.07910156 C4.11953735 155.77073688 5.35323619 156.45735625 6.58984375 157.13867188 C8.3750237 158.12340017 10.14896866 159.12619088 11.921875 160.1328125 C12.99018555 160.72980957 14.05849609 161.32680664 15.15917969 161.94189453 C18.59919144 164.43409968 20.16442538 166.14261344 22 170 C22.57591734 173.84809035 22.58448935 177.64556898 22.56640625 181.53125 C22.57260483 182.64052856 22.57880341 183.74980713 22.58518982 184.8927002 C22.59227817 187.23265711 22.58913129 189.57266456 22.57641602 191.91259766 C22.56254558 195.48824992 22.59664539 199.06128709 22.63476562 202.63671875 C22.63571682 204.91406314 22.63385798 207.1914108 22.62890625 209.46875 C22.64216446 210.53452271 22.65542267 211.60029541 22.66908264 212.69836426 C22.56552858 220.97103965 22.56552858 220.97103965 19.84765625 224.48071289 C16.94843338 227.04562037 14.19123878 228.96178456 10.80859375 230.83984375 C10.22263931 231.16988907 9.63668488 231.49993439 9.03297424 231.83998108 C7.17394803 232.88394763 5.30626891 233.91109559 3.4375 234.9375 C1.60324405 235.96014687 -0.22908938 236.98618028 -2.06137085 238.01235962 C-3.27060144 238.68764213 -4.48156027 239.35983937 -5.69424438 240.02890015 C-10.62334486 242.75336757 -15.42605675 245.66395573 -20.19897461 248.65454102 C-23.59829136 250.28738636 -26.22795841 250.85915486 -30 251 C-33.01928711 249.89526367 -33.01928711 249.89526367 -36.02734375 248.16796875 C-37.14230225 247.53842285 -38.25726074 246.90887695 -39.40600586 246.26025391 C-40.58348021 245.56986375 -41.76063951 244.87893603 -42.9375 244.1875 C-44.14709285 243.49522615 -45.35746586 242.80431373 -46.56860352 242.11474609 C-53.93666371 237.89593294 -61.22968938 233.5415549 -68.32983398 228.88354492 C-71.46666327 226.77483718 -71.46666327 226.77483718 -75.02270508 225.64233398 C-77.76658447 224.75097126 -78.24183566 223.47917764 -79.578125 220.96484375 C-80.01640625 220.15595703 -80.4546875 219.34707031 -80.90625 218.51367188 C-81.3496875 217.66353516 -81.793125 216.81339844 -82.25 215.9375 C-82.93835938 214.65649414 -82.93835938 214.65649414 -83.640625 213.34960938 C-84.77249647 211.2391407 -85.89155136 209.1228375 -87 207 C-84.7448078 204.7448078 -82.9952413 204.02276532 -80 203 C-79.01 203 -78.02 203 -77 203 C-77.02094727 201.99622314 -77.04189453 200.99244629 -77.06347656 199.95825195 C-77.13606694 196.22174434 -77.18186811 192.48529863 -77.21972656 188.74829102 C-77.23979892 187.13327542 -77.2670633 185.51833211 -77.30175781 183.90356445 C-77.35047215 181.57745499 -77.37301154 179.25230907 -77.390625 176.92578125 C-77.41127014 176.20787918 -77.43191528 175.48997711 -77.45318604 174.75032043 C-77.45472042 171.29516279 -77.11966566 169.19802232 -75.3203125 166.22045898 C-72.8407207 163.84757521 -70.47280636 162.23191582 -67.484375 160.546875 C-65.86511108 159.62370483 -65.86511108 159.62370483 -64.21313477 158.68188477 C-63.07030029 158.04436279 -61.92746582 157.40684082 -60.75 156.75 C-59.57367087 156.08537904 -58.39781001 155.41992859 -57.22241211 154.75366211 C-54.89516476 153.43636709 -52.564599 152.12562225 -50.23193359 150.81787109 C-47.4208166 149.23669742 -44.62292722 147.63602089 -41.83203125 146.01953125 C-40.40894301 145.20036647 -38.98577399 144.381342 -37.5625 143.5625 C-36.92602539 143.19157227 -36.28955078 142.82064453 -35.63378906 142.43847656 C-32.85037532 140.85702668 -31.26175149 140 -28 140 C-27.96132813 138.99259766 -27.96132813 138.99259766 -27.921875 137.96484375 C-27.47856214 130.1564922 -26.34715012 122.57428714 -25 114.875 C-24.82178711 113.855271 -24.64357422 112.83554199 -24.45996094 111.78491211 C-23.14252057 104.4275617 -23.14252057 104.4275617 -22 101 C-22.7230835 100.72526855 -23.44616699 100.45053711 -24.19116211 100.16748047 C-28.86656398 98.22417132 -33.1707054 95.63202033 -37.5625 93.125 C-38.50802734 92.59519531 -39.45355469 92.06539063 -40.42773438 91.51953125 C-41.33974609 91.00003906 -42.25175781 90.48054688 -43.19140625 89.9453125 C-44.43192749 89.24172607 -44.43192749 89.24172607 -45.69750977 88.52392578 C-48.78714152 86.47902265 -51.32895483 84.34209034 -53 81 C-53.11553689 79.36772933 -53.1695231 77.73091456 -53.19287109 76.09472656 C-53.20893402 75.07316467 -53.22499695 74.05160278 -53.24154663 72.99908447 C-53.28597741 68.32003402 -53.32706881 63.64112616 -53.35009766 58.96191406 C-53.36665182 56.49437017 -53.39393434 54.02687412 -53.43212891 51.55957031 C-53.4869113 48.00300194 -53.50877575 44.44755856 -53.5234375 40.890625 C-53.54610687 39.7904303 -53.56877625 38.6902356 -53.59213257 37.55670166 C-53.56855868 29.00262751 -53.56855868 29.00262751 -50.80444336 25.46508789 C-48.14612597 23.1284438 -45.71201392 21.35014758 -42.60546875 19.66796875 C-41.05931885 18.8174292 -41.05931885 18.8174292 -39.48193359 17.94970703 C-38.39477051 17.36817871 -37.30760742 16.78665039 -36.1875 16.1875 C-33.93325798 14.96025196 -31.67935176 13.73238693 -29.42578125 12.50390625 C-28.32830566 11.90980957 -27.23083008 11.31571289 -26.10009766 10.70361328 C-23.38371924 9.21086729 -20.70666515 7.67403921 -18.04296875 6.08984375 C-17.32665283 5.66743408 -16.61033691 5.24502441 -15.87231445 4.80981445 C-14.58687328 4.04728591 -13.30746558 3.27444409 -12.03588867 2.48901367 C-7.80702001 0.01586202 -4.84659832 -0.38296409 0 0 Z " fill="#082C76" transform="translate(457,183)"/>
<path d="M0 0 C2.7980957 1.21826172 2.7980957 1.21826172 5.67578125 2.9296875 C7.27764282 3.86880981 7.27764282 3.86880981 8.91186523 4.8269043 C10.03407471 5.50277588 11.15628418 6.17864746 12.3125 6.875 C13.47599001 7.56466224 14.64013883 8.25321422 15.80493164 8.94067383 C18.12458521 10.31167288 20.44007801 11.68933836 22.75292969 13.07177734 C25.61425871 14.77093348 28.49019821 16.436919 31.3828125 18.08203125 C32.16358154 18.52885254 32.94435059 18.97567383 33.7487793 19.43603516 C35.16664421 20.24674074 36.58722732 21.0527182 38.01098633 21.85302734 C41.48129438 23.86434568 43.93263541 25.54979087 46 29 C46.36076355 31.56903076 46.36076355 31.56903076 46.34057617 34.50292969 C46.34034958 35.60376892 46.34012299 36.70460815 46.33988953 37.83880615 C46.32440567 39.02121887 46.30892181 40.20363159 46.29296875 41.421875 C46.28872391 42.63699768 46.28447906 43.85212036 46.28010559 45.10406494 C46.26330876 48.98626839 46.22565338 52.86795336 46.1875 56.75 C46.17245452 59.38150292 46.15876588 62.01301398 46.14648438 64.64453125 C46.11340185 71.09653117 46.06319179 77.54822854 46 84 C46.60126709 84.28286865 47.20253418 84.5657373 47.82202148 84.85717773 C50.92928912 86.48761376 53.43028635 88.77278655 56.0625 91.0625 C57.21408076 92.05297113 58.36643871 93.04253928 59.51953125 94.03125 C60.09783691 94.52753906 60.67614258 95.02382812 61.27197266 95.53515625 C64.7732732 98.50319853 68.36760119 101.35734604 71.953125 104.22265625 C74 106 74 106 75 108 C74.03578125 108.54269531 73.0715625 109.08539063 72.078125 109.64453125 C70.80200123 110.3670425 69.52596412 111.08970683 68.25 111.8125 C67.61578125 112.16892578 66.9815625 112.52535156 66.328125 112.89257812 C63.05195463 114.75248735 59.95014899 116.63839084 57 119 C54.38535863 116.86074797 51.77074125 114.72146674 49.15625 112.58203125 C47.11518949 110.91201538 45.07341625 109.24288354 43.03125 107.57421875 C42.0928125 106.80722656 41.154375 106.04023438 40.1875 105.25 C39.28128906 104.51523438 38.37507813 103.78046875 37.44140625 103.0234375 C35.98187397 101.81377715 34.54324747 100.57704522 33.15234375 99.2890625 C31.51276661 97.71137402 31.51276661 97.71137402 29 96 C24.85350001 96.33138817 21.96940732 98.000319 18.47265625 100.16015625 C16.91321289 101.1027832 16.91321289 101.1027832 15.32226562 102.06445312 C13.15018275 103.39581369 10.98089944 104.73175254 8.81445312 106.07226562 C7.77353516 106.69939453 6.73261719 107.32652344 5.66015625 107.97265625 C4.71793213 108.55281494 3.77570801 109.13297363 2.80493164 109.73071289 C-1.08342023 111.49026911 -4.14787146 111.68641385 -8.16796875 110.1965332 C-8.83441406 109.81843506 -9.50085938 109.44033691 -10.1875 109.05078125 C-10.95827881 108.62112061 -11.72905762 108.19145996 -12.52319336 107.7487793 C-13.74921265 107.03782104 -13.74921265 107.03782104 -15 106.3125 C-15.85924072 105.82499268 -16.71848145 105.33748535 -17.60375977 104.83520508 C-19.44412481 103.78624172 -21.28069015 102.73058912 -23.11376953 101.66894531 C-26.07501663 99.95662209 -29.05048711 98.27095069 -32.02734375 96.5859375 C-33.99835496 95.45479464 -35.96843064 94.32201982 -37.9375 93.1875 C-38.86626953 92.6613208 -39.79503906 92.1351416 -40.75195312 91.59301758 C-41.62658203 91.08150146 -42.50121094 90.56998535 -43.40234375 90.04296875 C-44.17054443 89.59977295 -44.93874512 89.15657715 -45.73022461 88.69995117 C-49.62013905 85.7865948 -52.54744068 83.44718114 -53.4495697 78.56898499 C-53.62866304 75.58457442 -53.6405608 72.64177976 -53.59375 69.65234375 C-53.59379028 68.56288956 -53.59383057 67.47343536 -53.59387207 66.35096741 C-53.5885232 64.053825 -53.57096786 61.75668267 -53.54199219 59.4597168 C-53.50009994 55.94588266 -53.50092945 52.43396394 -53.5078125 48.91992188 C-53.49732081 46.68488253 -53.48438283 44.44985305 -53.46875 42.21484375 C-53.46854858 41.16578354 -53.46834717 40.11672333 -53.46813965 39.03587341 C-53.31886054 29.82974557 -53.31886054 29.82974557 -50 26 C-48.1953125 24.46508789 -48.1953125 24.46508789 -46.125 23.16015625 C-45.32835937 22.65629395 -44.53171875 22.15243164 -43.7109375 21.63330078 C-38.51167668 18.50082106 -33.26959891 15.44999433 -28 12.4375 C-26.31390625 11.46780273 -26.31390625 11.46780273 -24.59375 10.47851562 C-22.40303369 9.22064522 -20.20912501 7.96831467 -18.01171875 6.72216797 C-16.12658648 5.64420728 -14.25210793 4.54714406 -12.39453125 3.42236328 C-11.24017578 2.7356958 -11.24017578 2.7356958 -10.0625 2.03515625 C-9.41410156 1.63820557 -8.76570313 1.24125488 -8.09765625 0.83227539 C-5.20794576 -0.31425895 -3.09034063 -0.30925305 0 0 Z " fill="#072C75" transform="translate(347,92)"/>
<path d="M0 0 C0.495 0.99 0.495 0.99 1 2 C1.59683594 1.94199219 2.19367188 1.88398438 2.80859375 1.82421875 C11.44130692 1.37526636 21.55298563 2.18893871 29 7 C32.52198386 10.94669005 34.21530004 15.98082728 36.10205078 20.84814453 C37.5660758 24.35655033 39.46463735 27.56975355 41.4375 30.8125 C42.00114258 31.74364624 42.00114258 31.74364624 42.57617188 32.69360352 C46.21117605 38.5599578 50.43616265 43.82712369 55 49 C56.13115234 50.29550781 56.13115234 50.29550781 57.28515625 51.6171875 C59.4924507 54.10843921 61.73869948 56.55779544 64 59 C64.56460938 59.64195312 65.12921875 60.28390625 65.7109375 60.9453125 C79.83630504 76.22116247 99.70488676 86.64098246 118.671875 94.58984375 C121.17343363 95.64977646 123.59473542 96.7427026 126 98 C120.00251315 100.65238 114.00509147 100.28713834 107.578125 100.265625 C106.32147034 100.26849014 105.06481567 100.27135529 103.77008057 100.27430725 C100.31819548 100.28026881 96.86650153 100.27159194 93.41464233 100.25815201 C91.24688812 100.24998828 89.07914075 100.24451499 86.91137695 100.23959351 C64.07828126 100.18085658 41.24508138 99.91481015 18.4173584 99.4161377 C15.15126208 99.34510175 11.88523303 99.28446678 8.61877441 99.23278809 C4.74890213 99.17044974 0.88029196 99.08384521 -2.98865509 98.979002 C-4.40813021 98.94414976 -5.82782572 98.91717277 -7.247612 98.89897346 C-16.53734769 98.77212898 -25.0948416 98.01523225 -31.9005127 91.05683899 C-36.96617531 84.89579875 -39.82483397 77.83712865 -39.53125 69.8125 C-37.78601805 60.57303672 -31.54453768 52.06175271 -26.55297852 44.25219727 C-21.54033849 36.38206556 -16.81491552 28.34121889 -12.0625 20.3125 C-11.63795532 19.59555969 -11.21341064 18.87861938 -10.77600098 18.13995361 C-9.17696367 15.43932809 -7.57802287 12.73864827 -5.98127747 10.03666687 C-3.99960826 6.68375834 -2.00811665 3.33713909 0 0 Z " fill="#92B1F3" transform="translate(268,430)"/>
<path d="M0 0 C3.12695312 1.32592773 3.12695312 1.32592773 6.28125 3.18359375 C6.85299957 3.51471161 7.42474915 3.84582947 8.01382446 4.1869812 C9.85147305 5.25603104 11.67563407 6.34596548 13.5 7.4375 C14.75825351 8.17656451 16.01720843 8.91443615 17.27685547 9.65112305 C19.74418095 11.09760837 22.20602882 12.55274416 24.66308594 14.01660156 C27.46610939 15.68266554 30.27874928 17.32876196 33.1015625 18.9609375 C42.71295078 24.56942617 42.71295078 24.56942617 45 28 C45.27415466 30.37716675 45.27415466 30.37716675 45.30639648 33.21826172 C45.32238388 34.28301727 45.33837128 35.34777283 45.35484314 36.4447937 C45.36020584 37.59480865 45.36556854 38.74482361 45.37109375 39.9296875 C45.38012222 41.11217072 45.3891507 42.29465393 45.39845276 43.51296997 C45.41297072 46.01627057 45.42184581 48.51960924 45.42553711 51.02294922 C45.43743227 54.85318946 45.48660574 58.6818187 45.53710938 62.51171875 C45.5465734 64.94270046 45.55380853 67.37369208 45.55859375 69.8046875 C45.57812607 70.95065399 45.59765839 72.09662048 45.61778259 73.27731323 C45.57284562 81.19642129 45.57284562 81.19642129 42.84277344 85.02612305 C39.92304889 87.05343093 37.03034278 88.98899745 33.95703125 90.77734375 C33.10427864 91.27809166 33.10427864 91.27809166 32.23429871 91.78895569 C30.43115134 92.84571771 28.62210738 93.8918468 26.8125 94.9375 C25.61872092 95.63404682 24.42535808 96.3313075 23.23242188 97.02929688 C20.91190494 98.38659998 18.58888431 99.73922848 16.26416016 101.08935547 C12.47921806 103.30483467 8.73101243 105.57662846 4.99487305 107.87329102 C0.46147693 110.4337638 -3.92935096 110.79010496 -9 110 C-12.74693526 108.42134937 -16.0816564 106.31408853 -19.5 104.125 C-21.43455437 102.93043642 -23.36945447 101.73643256 -25.3046875 100.54296875 C-26.25956055 99.94532715 -27.21443359 99.34768555 -28.19824219 98.73193359 C-32.96816287 95.78336115 -37.84367784 93.01544023 -42.72070312 90.24853516 C-46.94255754 87.79922313 -50.76905241 85.46189518 -53 81 C-53.11553689 79.36772933 -53.1695231 77.73091456 -53.19287109 76.09472656 C-53.20893402 75.07316467 -53.22499695 74.05160278 -53.24154663 72.99908447 C-53.28597741 68.32003402 -53.32706881 63.64112616 -53.35009766 58.96191406 C-53.36665182 56.49437017 -53.39393434 54.02687412 -53.43212891 51.55957031 C-53.4869113 48.00300194 -53.50877575 44.44755856 -53.5234375 40.890625 C-53.54610687 39.7904303 -53.56877625 38.6902356 -53.59213257 37.55670166 C-53.56855868 29.00262751 -53.56855868 29.00262751 -50.80444336 25.46508789 C-48.14612597 23.1284438 -45.71201392 21.35014758 -42.60546875 19.66796875 C-41.57470215 19.10094238 -40.54393555 18.53391602 -39.48193359 17.94970703 C-37.85118896 17.07741455 -37.85118896 17.07741455 -36.1875 16.1875 C-33.93325798 14.96025196 -31.67935176 13.73238693 -29.42578125 12.50390625 C-28.32830566 11.90980957 -27.23083008 11.31571289 -26.10009766 10.70361328 C-23.38371924 9.21086729 -20.70666515 7.67403921 -18.04296875 6.08984375 C-17.32665283 5.66743408 -16.61033691 5.24502441 -15.87231445 4.80981445 C-14.58687328 4.04728591 -13.30746558 3.27444409 -12.03588867 2.48901367 C-7.80702001 0.01586202 -4.84659832 -0.38296409 0 0 Z " fill="#062B75" transform="translate(457,183)"/>
<path d="M0 0 C3.17751198 1.3153281 6.09790015 2.95066969 9.0625 4.6875 C9.91650391 5.17428223 10.77050781 5.66106445 11.65039062 6.16259766 C13.47961527 7.20999765 15.30453542 8.26494445 17.12548828 9.32666016 C20.09233687 11.05375207 23.07443048 12.75224784 26.05859375 14.44921875 C28.03999878 15.58952048 30.02049026 16.7314113 32 17.875 C32.937229 18.40955811 33.87445801 18.94411621 34.84008789 19.49487305 C35.71785889 20.00961182 36.59562988 20.52435059 37.5 21.0546875 C38.2734375 21.50312012 39.046875 21.95155273 39.84375 22.41357422 C42.68073006 24.50083604 44.22231572 25.8988623 46 29 C46.5699159 32.9098493 46.51251591 36.77799212 46.4609375 40.72265625 C46.46002106 41.86028915 46.45910461 42.99792206 46.4581604 44.17002869 C46.4521261 46.57148418 46.43638542 48.9729322 46.41162109 51.37426758 C46.37509902 55.05252772 46.37060195 58.72978053 46.37109375 62.40820312 C46.36126295 64.74219622 46.34960612 67.07618248 46.3359375 69.41015625 C46.33371185 70.51126236 46.33148621 71.61236847 46.32919312 72.74684143 C46.31643341 73.77147995 46.30367371 74.79611847 46.29052734 75.85180664 C46.27909195 77.20152306 46.27909195 77.20152306 46.26742554 78.57850647 C45.97973553 81.18349143 45.38920513 82.78966542 44 85 C41.83959961 86.58056641 41.83959961 86.58056641 39.15234375 88.1015625 C37.6667395 88.95391479 37.6667395 88.95391479 36.15112305 89.82348633 C35.09062744 90.41798584 34.03013184 91.01248535 32.9375 91.625 C30.75497594 92.87068667 28.5726858 94.11678327 26.390625 95.36328125 C25.30974609 95.9763916 24.22886719 96.58950195 23.11523438 97.22119141 C18.06792633 100.10322012 13.07863957 103.08219422 8.09155273 106.06689453 C3.12990941 109.00773402 -1.16486212 111.14205329 -7 110 C-11.1393301 108.18568821 -14.98462786 105.91736224 -18.875 103.625 C-19.97602051 102.99029785 -21.07704102 102.3555957 -22.21142578 101.70166016 C-24.43382168 100.41770274 -26.65246877 99.12723313 -28.8671875 97.83007812 C-31.67038115 96.19255166 -34.48652452 94.58213806 -37.3125 92.984375 C-38.83382797 92.11544878 -40.35469862 91.24572113 -41.875 90.375 C-42.90729736 89.79226318 -42.90729736 89.79226318 -43.96044922 89.19775391 C-47.44129224 87.16807924 -49.91195908 85.45724612 -52 82 C-52.39440918 79.50257874 -52.39440918 79.50257874 -52.41992188 76.66821289 C-52.43583374 75.60353287 -52.45174561 74.53885284 -52.46813965 73.44190979 C-52.46834106 72.29705612 -52.46854248 71.15220245 -52.46875 69.97265625 C-52.47636353 68.79158798 -52.48397705 67.61051971 -52.49182129 66.3936615 C-52.50262514 63.89633295 -52.50547426 61.3989592 -52.50097656 58.90161133 C-52.50000448 55.08012569 -52.54162237 51.26064872 -52.5859375 47.43945312 C-52.59114458 45.01302502 -52.59383269 42.58658994 -52.59375 40.16015625 C-52.61014526 39.01732681 -52.62654053 37.87449738 -52.64343262 36.69703674 C-52.57469229 28.80882377 -52.57469229 28.80882377 -49.84985352 24.97387695 C-46.88880004 22.92298024 -43.95241407 21.01865474 -40.80859375 19.2578125 C-40.22263931 18.92635223 -39.63668488 18.59489197 -39.03297424 18.25338745 C-37.17206247 17.20282071 -35.30510669 16.16360935 -33.4375 15.125 C-31.60354921 14.09499613 -29.770919 13.06267932 -27.93862915 12.02972412 C-26.72936895 11.34981601 -25.5184103 10.67291969 -24.30575562 9.99908447 C-21.38106374 8.36956295 -18.51492375 6.69898683 -15.66845703 4.93261719 C-5.68248648 -1.25161952 -5.68248648 -1.25161952 0 0 Z " fill="#062B75" transform="translate(190,282)"/>
<path d="M0 0 C0.66128906 0.27714844 1.32257813 0.55429687 2.00390625 0.83984375 C5.60297195 2.23348458 9.25606987 3.41055761 12.9375 4.5625 C13.62779297 4.78357422 14.31808594 5.00464844 15.02929688 5.23242188 C32.50429511 10.71509905 50.39642379 8.51329716 67.72558594 3.63378906 C71.13322339 2.68421555 74.56508259 1.84491072 78 1 C78.85677083 2.52994792 79.71354167 4.05989583 80.5703125 5.58984375 C81.13057129 6.59023682 81.69083008 7.59062988 82.26806641 8.62133789 C83.51797822 10.85346412 84.76764821 13.08572578 86.01708984 15.31811523 C89.30788882 21.19701193 92.60251501 27.07367441 95.90625 32.9453125 C96.84186768 34.61025757 96.84186768 34.61025757 97.79638672 36.30883789 C98.98922518 38.43126222 100.1834944 40.55288327 101.37939453 42.67358398 C112.87479853 63.14311405 112.87479853 63.14311405 110.40625 73.48828125 C107.93533458 79.65491931 103.64745908 84.35254092 99 89 C91.621256 88.72016739 86.17978357 86.65269074 79.625 83.375 C78.69598877 82.91915527 77.76697754 82.46331055 76.80981445 81.99365234 C70.2396898 78.72501965 63.97251429 75.27958578 58 71 C57.42008301 70.59620117 56.84016602 70.19240234 56.24267578 69.77636719 C31.87656623 52.74170809 9.89086615 28.47664404 0 0 Z " fill="#D1DBFC" transform="translate(297,438)"/>
<path d="M0 0 C2.82275391 0.74609375 2.82275391 0.74609375 6 2 C6.95181152 2.32097656 7.90362305 2.64195312 8.88427734 2.97265625 C16.83609353 5.90871146 24.60921906 9.24595499 30 16 C34.29498953 26.17052709 33.07993626 39.65867124 30 50 C26.97320623 55.07134758 22.49310661 56.74789692 17.01855469 58.32861328 C13.77259943 59.40824281 11.22642467 61.24419744 8.375 63.125 C3.69442155 66.0749444 3.69442155 66.0749444 0.67675781 65.74926758 C-2.33725294 64.90559748 -4.69947923 63.68577858 -7.4140625 62.12890625 C-8.42210937 61.55462891 -9.43015625 60.98035156 -10.46875 60.38867188 C-11.5103125 59.78603516 -12.551875 59.18339844 -13.625 58.5625 C-14.67429687 57.96373047 -15.72359375 57.36496094 -16.8046875 56.74804688 C-24.39769345 52.4015377 -24.39769345 52.4015377 -28 50 C-28.26697888 47.37537756 -28.34832984 44.98934067 -28.29296875 42.3671875 C-28.28872391 41.61535187 -28.28447906 40.86351624 -28.28010559 40.08889771 C-28.2632917 37.68390315 -28.22563624 35.27974191 -28.1875 32.875 C-28.17245659 31.24610584 -28.15876758 29.61719856 -28.14648438 27.98828125 C-28.11337954 23.99186566 -28.06158009 19.99607418 -28 16 C-26.88757935 15.37955811 -26.88757935 15.37955811 -25.75268555 14.74658203 C-22.99578642 13.20817918 -20.23950783 11.668672 -17.48364258 10.12841797 C-16.29183222 9.46261118 -15.0997771 8.79724231 -13.9074707 8.13232422 C-12.19157316 7.17531258 -10.47663386 6.21658348 -8.76171875 5.2578125 C-7.73006592 4.6817627 -6.69841309 4.10571289 -5.63549805 3.51220703 C-3.7156323 2.41061848 -1.84170566 1.22780377 0 0 Z " fill="#CFDAFB" transform="translate(452,205)"/>
<path d="M0 0 C2.65307617 1.27514648 2.65307617 1.27514648 5.29296875 2.87109375 C6.25267578 3.44537109 7.21238281 4.01964844 8.20117188 4.61132812 C9.18666016 5.21396484 10.17214844 5.81660156 11.1875 6.4375 C12.18458984 7.03626953 13.18167969 7.63503906 14.20898438 8.25195312 C17.84928371 10.44398772 21.46402653 12.64268435 25 15 C25.42943119 17.45734328 25.65876804 19.65738294 25.75 22.1328125 C25.78988037 23.1988118 25.78988037 23.1988118 25.83056641 24.28634644 C25.87647224 25.79415918 25.91283176 27.30228795 25.94042969 28.81054688 C25.9798929 30.34378981 26.04791869 31.87658369 26.14550781 33.40722656 C26.47258138 38.54917903 26.46591875 43.02662806 25 48 C21.15414071 51.8166608 16.91636664 53.82639535 12 56 C10.59940254 56.81830323 9.21018374 57.65709199 7.84375 58.53125 C6.7403125 59.1809375 5.636875 59.830625 4.5 60.5 C3.3759375 61.1703125 2.251875 61.840625 1.09375 62.53125 C-2.17669988 64.08388782 -3.47919141 64.69045797 -7 64 C-9.87666181 62.63588085 -12.55098464 60.99639897 -15.25 59.3125 C-16.69200206 58.43243545 -18.13471317 57.55353169 -19.578125 56.67578125 C-20.29291016 56.23830566 -21.00769531 55.80083008 -21.74414062 55.35009766 C-25.44228161 53.13681631 -29.21766853 51.06516188 -33 49 C-33.3234878 44.30502444 -33.5580634 39.6166106 -33.71411133 34.91308594 C-33.77916664 33.31753592 -33.86766316 31.72275186 -33.98071289 30.12988281 C-34.34695922 24.83339745 -34.40416967 20.15256367 -33 15 C-29.17095303 11.13064361 -24.94612268 9.15924313 -20 7 C-18.60875787 6.17336944 -17.23058442 5.32344704 -15.87890625 4.43359375 C-14.78449219 3.77488281 -13.69007813 3.11617188 -12.5625 2.4375 C-11.45003906 1.75558594 -10.33757812 1.07367188 -9.19140625 0.37109375 C-5.39930177 -1.25807231 -3.95280133 -0.9658568 0 0 Z " fill="#FA8D02" transform="translate(348,116)"/>
<path d="M0 0 C1.21719727 0.69802734 1.21719727 0.69802734 2.45898438 1.41015625 C3.40362549 1.90918457 4.3482666 2.40821289 5.3215332 2.92236328 C6.853302 3.78643799 6.853302 3.78643799 8.41601562 4.66796875 C9.41866455 5.2314502 10.42131348 5.79493164 11.4543457 6.37548828 C12.71400146 7.08817871 13.97365723 7.80086914 15.27148438 8.53515625 C19.29335937 10.80390625 23.31523437 13.07265625 27.45898438 15.41015625 C27.45898438 26.63015625 27.45898438 37.85015625 27.45898438 49.41015625 C22.92148438 52.07078125 18.38398438 54.73140625 13.70898438 57.47265625 C12.28360352 58.31707275 10.85822266 59.16148926 9.38964844 60.03149414 C7.6992041 61.00977173 7.6992041 61.00977173 5.97460938 62.0078125 C5.09844971 62.53368958 5.09844971 62.53368958 4.20458984 63.07019043 C0.06679645 65.43753648 0.06679645 65.43753648 -2.58422852 65.31811523 C-5.24974635 64.08130166 -7.80437513 62.72850919 -10.36523438 61.28515625 C-11.47576172 60.66125 -12.58628906 60.03734375 -13.73046875 59.39453125 C-14.30418213 59.06904297 -14.87789551 58.74355469 -15.46899414 58.40820312 C-17.23046011 57.40905328 -18.99569742 56.41685309 -20.76171875 55.42578125 C-29.38952197 50.56164991 -29.38952197 50.56164991 -30.54101562 49.41015625 C-30.62949305 46.88921549 -30.65628864 44.39584732 -30.63867188 41.875 C-30.63725693 41.12174942 -30.63584198 40.36849884 -30.63438416 39.59242249 C-30.62876938 37.17746065 -30.61621445 34.76259024 -30.60351562 32.34765625 C-30.59850252 30.71419404 -30.59393929 29.08073039 -30.58984375 27.44726562 C-30.57879516 23.4348604 -30.56152069 19.42252384 -30.54101562 15.41015625 C-26.65844182 13.07140308 -22.76267735 10.75714402 -18.8527832 8.46435547 C-17.5249964 7.68120609 -16.20104066 6.89152301 -14.88110352 6.09521484 C-12.98189428 4.95097521 -11.07010064 3.83101819 -9.15429688 2.71484375 C-8.27430779 2.17438919 -8.27430779 2.17438919 -7.37654114 1.62301636 C-4.64099963 0.05805834 -3.12899145 -0.72633007 0 0 Z " fill="#FAC950" transform="translate(188.541015625,304.58984375)"/>
<path d="M0 0 C2.94719509 1.1240694 5.54555892 2.62553437 8.27050781 4.21508789 C8.84194519 4.54661362 9.41338257 4.87813934 10.00213623 5.2197113 C11.81827164 6.2747742 13.63034047 7.33660746 15.44238281 8.39868164 C16.6764953 9.11723166 17.91086757 9.83533569 19.14550781 10.55297852 C22.16415929 12.30889008 25.17920271 14.0708938 28.19238281 15.83618164 C28.41573186 20.56812703 28.57854135 25.29697908 28.68676758 30.03295898 C28.73189165 31.64157561 28.7932141 33.24982578 28.87133789 34.85717773 C29.5003311 48.13592321 29.5003311 48.13592321 26.47412109 52.06982422 C24.11748495 53.66190283 21.81496827 54.74350012 19.19238281 55.83618164 C17.63391283 56.75294776 16.08669773 57.68913516 14.55175781 58.64477539 C13.01754263 59.52499885 11.48108079 60.40131813 9.94238281 61.27368164 C9.16636719 61.73194336 8.39035156 62.19020508 7.59082031 62.66235352 C6.83542969 63.08967773 6.08003906 63.51700195 5.30175781 63.95727539 C4.63112305 64.34326904 3.96048828 64.7292627 3.26953125 65.12695312 C-0.41563509 66.38522865 -3.05473703 65.19883894 -6.45483398 63.56103516 C-7.37949463 63.03437256 -8.30415527 62.50770996 -9.25683594 61.96508789 C-10.26939453 61.39081055 -11.28195312 60.8165332 -12.32519531 60.22485352 C-13.37126953 59.6222168 -14.41734375 59.01958008 -15.49511719 58.39868164 C-16.55279297 57.79991211 -17.61046875 57.20114258 -18.70019531 56.58422852 C-26.52373977 52.12005906 -26.52373977 52.12005906 -28.80761719 49.83618164 C-30.81759964 39.50051286 -32.50366661 25.90759827 -28.80761719 15.83618164 C-23.42362126 8.99352352 -15.36364685 5.7202774 -7.35131836 2.80883789 C-0.00453922 -0.00041137 -0.00453922 -0.00041137 0 0 Z " fill="#FB7C9F" transform="translate(429.8076171875,345.163818359375)"/>
<path d="M0 0 C2.51079001 0.85085811 4.61404175 1.85556314 6.89819336 3.19848633 C7.71223633 3.67350586 8.5262793 4.14852539 9.36499023 4.63793945 C10.20223633 5.13616211 11.03948242 5.63438477 11.90209961 6.14770508 C12.73547852 6.63432617 13.56885742 7.12094727 14.42749023 7.62231445 C16.78633569 9.00778652 19.13666733 10.39832649 21.46459961 11.83520508 C22.5294458 12.39506104 23.59429199 12.95491699 24.69140625 13.53173828 C27.46459961 15.83520508 27.46459961 15.83520508 28.30444336 19.31518555 C28.37077632 20.69304291 28.40131055 22.07293966 28.40209961 23.45239258 C28.42494019 24.55455612 28.42494019 24.55455612 28.44824219 25.6789856 C28.46980864 27.23043259 28.47556414 28.78216952 28.46655273 30.33374023 C28.4646081 32.6998755 28.54772262 35.05298205 28.63647461 37.41723633 C28.81396401 48.33032971 28.81396401 48.33032971 25.47753906 52.05126953 C22.87056561 53.61505024 20.29165299 54.72570859 17.46459961 55.83520508 C15.93824781 56.73869297 14.43020999 57.67405942 12.94506836 58.64379883 C11.51426666 59.52040765 10.08327912 60.39671323 8.65209961 61.27270508 C7.92829102 61.7309668 7.20448242 62.18922852 6.45874023 62.66137695 C5.75297852 63.08870117 5.0472168 63.51602539 4.32006836 63.95629883 C3.69769287 64.34229248 3.07531738 64.72828613 2.43408203 65.12597656 C-2.79362728 67.00852218 -9.13562515 63.2577502 -13.87304688 61.14135742 C-27.43846067 54.33434658 -27.43846067 54.33434658 -30.39196777 47.99737549 C-33.7500685 37.84388746 -33.35714027 25.76726963 -29.53540039 15.83520508 C-24.55487553 9.52676251 -17.57094636 6.42898671 -10.12255859 3.82958984 C-7.44808709 2.91077119 -7.44808709 2.91077119 -5.01660156 1.15136719 C-2.53540039 -0.16479492 -2.53540039 -0.16479492 0 0 Z " fill="#B0D852" transform="translate(211.535400390625,164.164794921875)"/>
<path d="M0 0 C24.09 0 48.18 0 73 0 C73 6.6 73 13.2 73 20 C48.91 19.67 24.82 19.34 0 19 C0 12.73 0 6.46 0 0 Z " fill="#91B0F2" transform="translate(285,278)"/>
<path d="M0 0 C1.3303125 1.1446875 1.3303125 1.1446875 2.6875 2.3125 C6.84677736 5.87880503 11.03133645 9.41499197 15.21704102 12.95019531 C18.20063634 15.47154347 21.17198207 18.00531214 24.125 20.5625 C26.9356629 23.04014481 26.9356629 23.04014481 30 25 C29.01257813 25.55429687 28.02515625 26.10859375 27.0078125 26.6796875 C25.71344465 27.41128672 24.41917913 28.14306699 23.125 28.875 C22.47402344 29.23980469 21.82304687 29.60460937 21.15234375 29.98046875 C18.49606646 31.48660536 16.16980999 32.83019001 14 35 C13.62731113 37.91188245 13.62731113 37.91188245 13.5859375 41.3203125 C13.54726562 42.57714844 13.50859375 43.83398438 13.46875 45.12890625 C13.4378125 46.44761719 13.406875 47.76632812 13.375 49.125 C13.33681971 50.46486918 13.29776794 51.80471383 13.2578125 53.14453125 C13.1632797 56.42954619 13.07772844 59.71455138 13 63 C12.67 63 12.34 63 12 63 C12.06453369 61.91283691 12.06453369 61.91283691 12.13037109 60.80371094 C13.42013803 46.07565495 13.42013803 46.07565495 8.2734375 32.953125 C5.42898813 30.32022592 2.27749123 28.22270077 -1.03515625 26.22363281 C-3.68498851 24.57341421 -6.09009659 22.67144797 -8.53417969 20.734375 C-10.15537465 19.44996783 -11.79842443 18.20170094 -13.453125 16.9609375 C-16 15 -16 15 -18 13 C-15.54481265 11.49462965 -13.0861548 9.99555574 -10.625 8.5 C-9.92632812 8.07074219 -9.22765625 7.64148438 -8.5078125 7.19921875 C-3.2265625 4 -3.2265625 4 -1 4 C-0.67 2.68 -0.34 1.36 0 0 Z " fill="#6765F3" transform="translate(235,363)"/>
<path d="M0 0 C1.98036486 0.97674104 3.95926133 1.95645982 5.9375 2.9375 C7.03964844 3.48277344 8.14179688 4.02804687 9.27734375 4.58984375 C12 6 12 6 13 7 C14.34747084 7.23075082 15.70377565 7.41153063 17.0625 7.5625 C18.361875 7.706875 19.66125 7.85125 21 8 C20.01 8.495 20.01 8.495 19 9 C18.48609306 10.84685207 18.48609306 10.84685207 18.25390625 13.09375 C18.14022705 13.95202393 18.02654785 14.81029785 17.90942383 15.69458008 C17.79493896 16.62036865 17.6804541 17.54615723 17.5625 18.5 C17.30964143 20.41046872 17.05439502 22.32062278 16.796875 24.23046875 C16.66732422 25.19388184 16.53777344 26.15729492 16.40429688 27.14990234 C15.80305004 31.38840208 15.07361746 35.60016352 14.3125 39.8125 C14.18109619 40.54082031 14.04969238 41.26914062 13.91430664 42.01953125 C13.6124553 43.68022045 13.30672507 45.34020406 13 47 C12.29875 46.60167969 11.5975 46.20335937 10.875 45.79296875 C5.34766753 42.70637413 -0.00456853 40.03618427 -6 38 C-5.67270513 29.47396858 -4.46257639 21.20797524 -3 12.8125 C-2.82178711 11.78439209 -2.64357422 10.75628418 -2.45996094 9.69702148 C-1.13419344 2.26838688 -1.13419344 2.26838688 0 0 Z " fill="#6965F5" transform="translate(435,285)"/>
<path d="M0 0 C0.33 0.99 0.66 1.98 1 3 C2.32399022 3.68503439 3.6599563 4.34692642 5 5 C7.06239246 6.65500629 9.06919578 8.32856192 11.0625 10.0625 C12.21408076 11.05297113 13.36643871 12.04253928 14.51953125 13.03125 C15.09783691 13.52753906 15.67614258 14.02382812 16.27197266 14.53515625 C19.7732732 17.50319853 23.36760119 20.35734604 26.953125 23.22265625 C29 25 29 25 30 27 C29.03578125 27.54269531 28.0715625 28.08539063 27.078125 28.64453125 C25.80200123 29.3670425 24.52596412 30.08970683 23.25 30.8125 C22.61578125 31.16892578 21.9815625 31.52535156 21.328125 31.89257812 C18.05195463 33.75248735 14.95014899 35.63839084 12 38 C9.38394038 35.85958758 6.76795339 33.71908733 4.15234375 31.578125 C2.12550326 29.91963041 0.09658389 28.26379407 -1.93359375 26.609375 C-7.0118799 22.46786008 -12.04794265 18.29178304 -17 14 C-13.03837171 10.56658882 -8.77624408 8.08344501 -4.20703125 5.5625 C-1.83867401 3.88578691 -1.03127848 2.67325818 0 0 Z " fill="#6965F6" transform="translate(392,173)"/>
<path d="M0 0 C4.58874608 1.26190517 8.02557135 3.17628655 11.875 5.87890625 C14.5350477 7.282277 17.0421796 7.55647806 20 8 C19.16795287 13.09101955 18.33168164 18.18132008 17.49145508 23.27099609 C17.20610653 25.00322583 16.92192161 26.73564766 16.63891602 28.46826172 C16.23237606 30.95591604 15.82168236 33.44285381 15.41015625 35.9296875 C15.28407486 36.70682098 15.15799347 37.48395447 15.02809143 38.28463745 C14.11387171 43.77225659 14.11387171 43.77225659 13 46 C8.27097827 44.66617336 4.34725575 42.60355296 0.1484375 40.12109375 C-1.91422806 39.04475736 -3.72857651 38.45736808 -6 38 C-5.4813274 30.55973093 -4.18136795 23.31756261 -2.765625 16.0078125 C-1.73731205 10.68974628 -0.86085119 5.34740501 0 0 Z " fill="#6965F6" transform="translate(192,244)"/>
<path d="M0 0 C0.06058594 1.26457031 0.12117188 2.52914062 0.18359375 3.83203125 C0.26800904 5.49219871 0.35265655 7.15235437 0.4375 8.8125 C0.47681641 9.64587891 0.51613281 10.47925781 0.55664062 11.33789062 C0.59853516 12.14033203 0.64042969 12.94277344 0.68359375 13.76953125 C0.73858032 14.87711792 0.73858032 14.87711792 0.79467773 16.00708008 C0.94842141 18.207495 0.94842141 18.207495 2 21 C-5.76600414 24.4078668 -13.66119376 27.40341782 -21.625 30.3125 C-22.60936035 30.67408203 -23.5937207 31.03566406 -24.60791016 31.40820312 C-25.53394043 31.74400391 -26.4599707 32.07980469 -27.4140625 32.42578125 C-28.2488916 32.72911377 -29.0837207 33.03244629 -29.94384766 33.3449707 C-32 34 -32 34 -34 34 C-34.06058594 32.73542969 -34.12117188 31.47085938 -34.18359375 30.16796875 C-34.26800904 28.50780129 -34.35265655 26.84764563 -34.4375 25.1875 C-34.47681641 24.35412109 -34.51613281 23.52074219 -34.55664062 22.66210938 C-34.59853516 21.85966797 -34.64042969 21.05722656 -34.68359375 20.23046875 C-34.73858032 19.12288208 -34.73858032 19.12288208 -34.79467773 17.99291992 C-34.94842141 15.792505 -34.94842141 15.792505 -36 13 C-31.0345414 11.14653214 -26.06830343 9.29517408 -21.10131836 7.44580078 C-19.41034486 6.81585258 -17.71958904 6.18531974 -16.02905273 5.55419922 C-13.60456898 4.64919122 -11.17932013 3.74626181 -8.75390625 2.84375 C-7.99348526 2.55939087 -7.23306427 2.27503174 -6.44960022 1.98205566 C-1.11387171 0 -1.11387171 0 0 0 Z " fill="#6966F7" transform="translate(294,155)"/>
<path d="M0 0 C0.33 0 0.66 0 1 0 C1.15855469 0.825 1.31710937 1.65 1.48046875 2.5 C2.99765564 10.01049423 4.87480247 17.22419216 7.28588867 24.4921875 C8.53974359 28.31271708 9.4467504 32.01660287 10 36 C0.80879541 34.29254302 0.80879541 34.29254302 -2.9375 32.9375 C-7.53863072 31.5289906 -12.21534592 31.32351754 -17 31 C-16.41786179 26.89956105 -15.08274142 24.09495348 -12.91015625 20.5859375 C-12.29076172 19.57789063 -11.67136719 18.56984375 -11.03320312 17.53125 C-10.38287109 16.4896875 -9.73253906 15.448125 -9.0625 14.375 C-8.41603516 13.32570313 -7.76957031 12.27640625 -7.10351562 11.1953125 C-4.78000561 7.43137104 -2.45374498 3.68061748 0 0 Z " fill="#D0DAFB" transform="translate(286,401)"/>
<path d="M0 0 C2.73164739 1.93858847 4.49340637 4.00938344 6 7 C6.6995225 11.46683042 5.46746614 14.29880079 3 18 C-0.53548954 20.35699303 -2.66506401 20.73509616 -6.84375 20.484375 C-10.44202589 19.67606665 -11.93766516 17.96460633 -14 15 C-15.27497059 11.2547739 -15.19474412 9.55177501 -13.875 5.8125 C-10.32871483 0.49307225 -6.33123247 -1.11074254 0 0 Z " fill="#6966F6" transform="translate(336,493)"/>
<path d="M0 0 C3.02519989 2.05971056 4.66926776 3.51573824 5.48046875 7.15625 C5.74061616 11.37485661 5.37091002 13.46049451 2.9375 17 C-0.61794591 19.42072913 -2.69626051 20.0755042 -7 20 C-10.74669241 18.02061533 -12.64677369 16.52983947 -15 13 C-15.52406828 9.06948786 -15.14790087 7.27467304 -13.25 3.75 C-9.13714217 -1.27682623 -6.33980372 -1.6683694 0 0 Z " fill="#6A67F7" transform="translate(369,468)"/>
<path d="M0 0 C2.875 2.0625 2.875 2.0625 5 5 C5.74297224 9.68072512 5.74495371 12.55743109 2.9375 16.4375 C-0.56655537 19.49422915 -2.37720728 20.08254987 -7 20 C-10.64886208 18.42435501 -13.13562322 16.53250338 -15 13 C-15.52320903 8.88907195 -15.45925779 6.76542965 -13.3125 3.1875 C-9.06798265 -0.82758398 -5.63479356 -1.76087299 0 0 Z " fill="#6965F6" transform="translate(283,467)"/>
<path d="M0 0 C0.06058594 1.26457031 0.12117188 2.52914063 0.18359375 3.83203125 C0.26800904 5.49219871 0.35265655 7.15235437 0.4375 8.8125 C0.47681641 9.64587891 0.51613281 10.47925781 0.55664062 11.33789062 C0.61948242 12.54155273 0.61948242 12.54155273 0.68359375 13.76953125 C0.72025146 14.50792236 0.75690918 15.24631348 0.79467773 16.00708008 C0.94842141 18.207495 0.94842141 18.207495 2 21 C1.34 21.33 0.68 21.66 0 22 C-3.3 16.06 -6.6 10.12 -10 4 C-7.02096266 1.02096266 -4.19714671 0 0 0 Z " fill="#6866F3" transform="translate(380,386)"/>
</svg>
