<?xml version="1.0" encoding="UTF-8"?>
<svg version="1.1" xmlns="http://www.w3.org/2000/svg" width="640" height="640">
<path d="M0 0 C211.2 0 422.4 0 640 0 C640 211.2 640 422.4 640 640 C428.8 640 217.6 640 0 640 C0 428.8 0 217.6 0 0 Z " fill="#FEFEFE" transform="translate(0,0)"/>
<path d="M0 0 C4.39349459 1.97944077 8.45367426 4.42843417 12.5625 6.9375 C13.72261489 7.63082745 14.88359113 8.3227156 16.04541016 9.01318359 C18.33064091 10.37451068 20.60863916 11.74602781 22.88427734 13.12353516 C25.53812612 14.72183336 28.20598406 16.28536793 30.89453125 17.82421875 C32.22142179 18.59102884 33.54825152 19.35794415 34.875 20.125 C36.54175781 21.08792969 36.54175781 21.08792969 38.2421875 22.0703125 C41.41823597 24.2926467 43.0130913 25.63684773 45 29 C45.4671248 32.88518798 45.26968852 36.72149196 45.1171875 40.625 C45.08293327 42.9648017 45.05178381 45.30465052 45.0234375 47.64453125 C44.95981854 51.31534525 44.8757166 54.98113885 44.73632812 58.64990234 C43.63792631 73.326505 43.63792631 73.326505 48.97485352 86.40136719 C51.7940936 89.25726153 54.85206964 91.59798866 58.20521545 93.79144287 C61.067058 95.71852667 63.58699215 97.98561221 66.1875 100.25 C68.90696722 102.48428492 70.65511508 103.88503836 74 105 C76.75349533 103.72506144 76.75349533 103.72506144 79.734375 101.81640625 C80.87745738 101.12931304 82.02069148 100.44247218 83.1640625 99.75585938 C84.95538191 98.66358547 86.74351391 97.56650795 88.52832031 96.46362305 C90.25596105 95.40121502 91.99424953 94.35820054 93.734375 93.31640625 C94.76788086 92.68162354 95.80138672 92.04684082 96.86621094 91.39282227 C100.58119631 89.7416855 102.97111292 89.56105733 107 90 C109.69628906 91.1105957 109.69628906 91.1105957 112.265625 92.67578125 C113.22952148 93.25142822 114.19341797 93.8270752 115.18652344 94.42016602 C116.1974707 95.04463623 117.20841797 95.66910645 118.25 96.3125 C120.38495118 97.59973069 122.5203744 98.88617877 124.65625 100.171875 C126.24953125 101.13963867 126.24953125 101.13963867 127.875 102.12695312 C130.77793207 103.86689804 133.70392181 105.54873086 136.65625 107.203125 C137.51959961 107.68869873 138.38294922 108.17427246 139.27246094 108.67456055 C140.88138847 109.57589608 142.49384625 110.47096915 144.11035156 111.35864258 C145.19268066 111.97195435 145.19268066 111.97195435 146.296875 112.59765625 C146.91916992 112.94320557 147.54146484 113.28875488 148.18261719 113.64477539 C151.53211913 116.14250313 153.70927883 118.14885741 154.38427734 122.44685364 C154.5643201 125.58313653 154.60671422 128.69444331 154.6015625 131.8359375 C154.61013275 132.98865143 154.618703 134.14136536 154.62753296 135.32901001 C154.63900749 137.76488623 154.64002888 140.20083097 154.63134766 142.63671875 C154.62503334 146.35536237 154.67193046 150.07081304 154.72265625 153.7890625 C154.72720317 156.15885016 154.72860879 158.52864636 154.7265625 160.8984375 C154.74498199 162.00593353 154.76340149 163.11342957 154.78237915 164.25448608 C154.70887498 170.41701188 154.15730465 174.25108443 149.65686035 178.65032959 C147.34467108 180.53382776 145.03380901 182.05789699 142.40234375 183.46484375 C141.35933105 184.03364258 140.31631836 184.60244141 139.24169922 185.18847656 C138.15131348 185.7656543 137.06092773 186.34283203 135.9375 186.9375 C133.68757519 188.15789706 131.43886384 189.38053406 129.19140625 190.60546875 C127.58289795 191.47824463 127.58289795 191.47824463 125.94189453 192.36865234 C121.37897288 194.89889653 117.00489223 197.67585899 112.6484375 200.546875 C110 202 110 202 103 204 C99.535 221.82 99.535 221.82 96 240 C97.65 240.66 99.3 241.32 101 242 C104.57673193 243.83737951 108.06345334 245.83186236 111.5625 247.8125 C112.50802734 248.33392578 113.45355469 248.85535156 114.42773438 249.39257812 C115.33974609 249.90884766 116.25175781 250.42511719 117.19140625 250.95703125 C118.01842041 251.42085205 118.84543457 251.88467285 119.69750977 252.36254883 C122.65466463 254.46557477 124.19385983 255.79186234 126 259 C126.57093938 263.05539717 126.51235714 267.07110559 126.4609375 271.16015625 C126.46002106 272.34218124 126.45910461 273.52420624 126.4581604 274.74205017 C126.45212512 277.23766095 126.4363815 279.73326452 126.41162109 282.22875977 C126.37510158 286.05186601 126.37060192 289.87400311 126.37109375 293.69726562 C126.36126293 296.12240422 126.34960609 298.54753625 126.3359375 300.97265625 C126.33371185 302.11750992 126.33148621 303.26236359 126.32919312 304.44190979 C126.31643341 305.50658981 126.30367371 306.57126984 126.29052734 307.66821289 C126.28290375 308.60355362 126.27528015 309.53889435 126.26742554 310.50257874 C125.98463154 313.14352224 125.40226845 314.75926638 124 317 C122.1184082 318.44116211 122.1184082 318.44116211 119.80078125 319.77734375 C118.93195313 320.28499268 118.063125 320.7926416 117.16796875 321.31567383 C115.75451172 322.11847778 115.75451172 322.11847778 114.3125 322.9375 C113.343125 323.49655029 112.37375 324.05560059 111.375 324.6315918 C109.31593515 325.81657833 107.25416292 326.99687082 105.18994141 328.17285156 C101.99086826 330.00523052 98.81271948 331.87015256 95.63671875 333.7421875 C93.59168257 334.93321375 91.5461252 336.12334562 89.5 337.3125 C88.54005127 337.88154053 87.58010254 338.45058105 86.59106445 339.03686523 C77.96033497 343.98919975 77.96033497 343.98919975 73 343 C70.078125 341.72265625 70.078125 341.72265625 67.25 340.0625 C66.30640625 339.51722656 65.3628125 338.97195313 64.390625 338.41015625 C63.60171875 337.94480469 62.8128125 337.47945313 62 337 C61.34 336.67 60.68 336.34 60 336 C60.39268066 336.61407715 60.78536133 337.2281543 61.18994141 337.86083984 C63.00305116 340.69798631 64.81403438 343.53648448 66.625 346.375 C67.24246094 347.34050781 67.85992187 348.30601562 68.49609375 349.30078125 C78.54660584 365.064216 86.30684188 377.73506526 82.60888672 397.04199219 C80.52940467 405.22253719 76.7927324 411.92526846 71 418 C70.03126953 419.04607422 70.03126953 419.04607422 69.04296875 420.11328125 C59.85972107 429.16022841 49.72396642 432.22074723 37.21484375 433.03125 C36.10987549 433.10922821 35.00490723 433.18720642 33.86645508 433.26754761 C17.36210107 434.37946961 0.83259101 435.11174871 -15.69140625 435.85986328 C-19.54975508 436.0347712 -23.4077811 436.21516965 -27.265625 436.40087891 C-45.80277575 437.29212028 -64.35076487 438.16731897 -82.91108704 438.34392929 C-84.33702584 438.35912393 -85.76291487 438.38068987 -87.18864441 438.40945816 C-102.26047448 438.69168011 -112.67806174 434.49823251 -123.8125 424.34765625 C-133.29839313 414.24419195 -136.65668097 401.12345766 -136.35546875 387.640625 C-134.80980142 371.81027387 -124.30025661 355.42448118 -116.03125 342.17578125 C-108.78636371 330.28351909 -104.8981035 316.98711118 -108 303 C-110.26133881 298.38429963 -114.01889181 295.73677508 -118.29833984 293.08984375 C-121.09336953 291.29974152 -123.52947333 289.14306942 -126.0625 287 C-126.94035156 286.29875 -127.81820312 285.5975 -128.72265625 284.875 C-131 283 -131 283 -132.43359375 281.1875 C-134.04441248 279.68876381 -134.04441248 279.68876381 -136.77856445 280.2578125 C-140.01851375 281.00426539 -142.25588779 282.01040223 -145.109375 283.6875 C-146.02847656 284.22117187 -146.94757813 284.75484375 -147.89453125 285.3046875 C-148.83683594 285.86414063 -149.77914062 286.42359375 -150.75 287 C-152.64054563 288.10430256 -154.53116683 289.20847576 -156.421875 290.3125 C-157.25299805 290.80363281 -158.08412109 291.29476563 -158.94042969 291.80078125 C-162.5941368 293.92821242 -164.71401805 294.34361005 -169 294 C-172.01342773 292.67407227 -172.01342773 292.67407227 -175.18359375 290.81640625 C-175.75671295 290.48537903 -176.32983215 290.15435181 -176.9203186 289.81329346 C-178.76710433 288.74234451 -180.60236222 287.65326763 -182.4375 286.5625 C-183.70120803 285.82224929 -184.96545151 285.08291191 -186.23022461 284.34448242 C-188.70820582 282.89496578 -191.18151642 281.43793291 -193.65136719 279.97460938 C-196.44450232 278.32756381 -199.24946108 276.70820964 -202.0703125 275.109375 C-203.40135711 274.34429853 -204.73212233 273.57873562 -206.0625 272.8125 C-207.16722656 272.17957031 -208.27195313 271.54664063 -209.41015625 270.89453125 C-212.89919083 268.34222089 -214.72383176 265.7797509 -215.39440918 261.45825195 C-215.40282837 260.56066162 -215.41124756 259.66307129 -215.41992188 258.73828125 C-215.44378967 257.20143677 -215.44378967 257.20143677 -215.46813965 255.63354492 C-215.46834106 254.5376001 -215.46854248 253.44165527 -215.46875 252.3125 C-215.47636353 251.17723877 -215.48397705 250.04197754 -215.49182129 248.87231445 C-215.50261352 246.47512001 -215.50547898 244.07787857 -215.50097656 241.68066406 C-215.50000342 238.01287603 -215.54165607 234.34717405 -215.5859375 230.6796875 C-215.59114394 228.34896269 -215.5938327 226.01823062 -215.59375 223.6875 C-215.61014526 222.59155518 -215.62654053 221.49561035 -215.64343262 220.36645508 C-215.57451824 212.77871373 -215.57451824 212.77871373 -212.75244141 208.95361328 C-210.31960156 207.2268451 -207.94855171 205.54916152 -205.3671875 204.0546875 C-204.04726807 203.28257935 -204.04726807 203.28257935 -202.70068359 202.49487305 C-201.76820801 201.96031494 -200.83573242 201.42575684 -199.875 200.875 C-198.91029785 200.31530518 -197.9455957 199.75561035 -196.95166016 199.17895508 C-194.95638037 198.02192796 -192.95945804 196.86772895 -190.9609375 195.71630859 C-188.11698442 194.06781006 -185.29064461 192.39295063 -182.46875 190.70703125 C-180.77089725 189.70041302 -179.07298356 188.69389756 -177.375 187.6875 C-176.58851074 187.2136084 -175.80202148 186.7397168 -174.99169922 186.25146484 C-173.89365967 185.60685303 -173.89365967 185.60685303 -172.7734375 184.94921875 C-172.13841309 184.57112061 -171.50338867 184.19302246 -170.84912109 183.8034668 C-169 183 -169 183 -165 183 C-164.81824219 181.80246094 -164.63648438 180.60492188 -164.44921875 179.37109375 C-163.03316198 170.16245092 -161.48278346 161.02133736 -159.55078125 151.90625 C-158.90689911 149.001741 -158.90689911 149.001741 -159 146 C-159.76666992 145.57702637 -160.53333984 145.15405273 -161.32324219 144.71826172 C-164.18500022 143.13046716 -167.03893961 141.53010568 -169.88867188 139.92089844 C-171.11953735 139.22926312 -172.35323619 138.54264375 -173.58984375 137.86132812 C-175.3750237 136.87659983 -177.14896866 135.87380912 -178.921875 134.8671875 C-179.99018555 134.27019043 -181.05849609 133.67319336 -182.15917969 133.05810547 C-185.60862069 130.55906906 -187.16928606 128.87500666 -189 125 C-189.55653247 121.06559864 -189.53696092 117.1829161 -189.49609375 113.21484375 C-189.49754898 112.08099747 -189.49900421 110.94715118 -189.50050354 109.77894592 C-189.49884712 107.38767928 -189.48731479 104.99640169 -189.46655273 102.60522461 C-189.43757242 98.94664231 -189.44595553 95.28950737 -189.45898438 91.63085938 C-189.45274743 89.30468046 -189.44435685 86.97850612 -189.43359375 84.65234375 C-189.43652939 83.55953598 -189.43946503 82.46672821 -189.44248962 81.34080505 C-189.32207886 71.64527665 -189.32207886 71.64527665 -186 68 C-183.54248047 66.21411133 -183.54248047 66.21411133 -180.6171875 64.58203125 C-179.54009521 63.97174072 -178.46300293 63.3614502 -177.35327148 62.73266602 C-176.20544189 62.09901123 -175.0576123 61.46535645 -173.875 60.8125 C-172.09882855 59.81882586 -170.32455267 58.82182902 -168.55046082 57.82444763 C-167.36967774 57.16096019 -166.18804721 56.49897866 -165.00556946 55.83851624 C-161.55513621 53.90463033 -158.16608534 51.90005284 -154.81640625 49.796875 C-153.688396 49.09534302 -153.688396 49.09534302 -152.53759766 48.37963867 C-151.18775907 47.53304728 -149.84665181 46.6722818 -148.51708984 45.79418945 C-143.74501765 42.8426215 -139.56110634 41.82066 -134 43 C-130.1246635 44.6661666 -126.60309023 46.81711031 -123 49 C-120.9173425 50.15414074 -118.82996478 51.29979919 -116.73828125 52.4375 C-114.59598093 53.62432653 -112.45405648 54.81183178 -110.3125 56 C-109.23677734 56.59039062 -108.16105469 57.18078125 -107.05273438 57.7890625 C-101.6007657 60.82053069 -96.4674203 63.91073017 -91.61010742 67.8359375 C-89.88703174 69.20407597 -89.88703174 69.20407597 -87 70 C-84.43274938 69.31722256 -81.99115532 68.56227447 -79.48828125 67.69140625 C-78.76005661 67.44583481 -78.03183197 67.20026337 -77.28153992 66.94725037 C-74.95557721 66.16073158 -72.63409731 65.36180136 -70.3125 64.5625 C-68.73660734 64.02717213 -67.16043844 63.49265673 -65.58398438 62.95898438 C-61.71938723 61.64873023 -57.85876428 60.32732897 -54 59 C-53.99589111 58.12263184 -53.99178223 57.24526367 -53.98754883 56.34130859 C-53.96046651 53.06413123 -53.91128102 49.78879541 -53.84741211 46.51220703 C-53.82431474 45.09826063 -53.80985581 43.68414421 -53.80444336 42.27001953 C-53.75037609 30.46671784 -53.75037609 30.46671784 -51.19140625 25.46484375 C-46.85620261 21.52304689 -41.25609252 18.92221357 -36.125 16.1875 C-33.86722697 14.96195863 -31.61071138 13.73409785 -29.35546875 12.50390625 C-28.26411621 11.90980957 -27.17276367 11.31571289 -26.04833984 10.70361328 C-23.41428365 9.23152902 -20.8489216 7.70447887 -18.30078125 6.08984375 C-17.63353027 5.66743408 -16.9662793 5.24502441 -16.27880859 4.80981445 C-14.57206269 3.71158615 -12.87727243 2.59483774 -11.18359375 1.4765625 C-7.19901475 -0.37149991 -4.24285764 -1.01073194 0 0 Z " fill="#6965F6" transform="translate(351,95)"/>
<path d="M0 0 C2.86598508 1.54763195 5.64256508 3.20662934 8.42822266 4.89428711 C10.51088016 6.04842785 12.59825788 7.1940863 14.68994141 8.33178711 C16.83224173 9.51861364 18.97416618 10.70611889 21.11572266 11.89428711 C22.19144531 12.48467773 23.26716797 13.07506836 24.37548828 13.68334961 C29.82745695 16.7148178 34.96080235 19.80501728 39.81811523 23.73022461 C41.54119092 25.09836308 41.54119092 25.09836308 44.42822266 25.89428711 C47.06573923 25.21142348 49.58304036 24.45496513 52.15869141 23.58569336 C53.28432243 23.2173362 53.28432243 23.2173362 54.43269348 22.84153748 C56.829872 22.05494548 59.22274164 21.25604709 61.61572266 20.45678711 C63.23980312 19.92146663 64.86414921 19.38695132 66.48876953 18.85327148 C70.47173019 17.54293444 74.4508704 16.22154558 78.42822266 14.89428711 C78.43756836 15.57007813 78.44691406 16.24586914 78.45654297 16.94213867 C78.51029566 20.01025821 78.59393257 23.07686098 78.67822266 26.14428711 C78.69240234 27.20776367 78.70658203 28.27124023 78.72119141 29.36694336 C78.75341797 30.39174805 78.78564453 31.41655273 78.81884766 32.47241211 C78.83979492 33.41503906 78.86074219 34.35766602 78.88232422 35.32885742 C79.79797866 39.63194189 82.48449268 41.28014994 86.046875 43.59838867 C87.0260791 44.15494141 88.0052832 44.71149414 89.01416016 45.28491211 C90.1035791 45.90873779 91.19299805 46.53256348 92.31542969 47.17529297 C93.47775105 47.83211353 94.64035374 48.48843646 95.80322266 49.14428711 C97.5782745 50.151273 99.35266972 51.15940926 101.12704468 52.16758728 C102.85499055 53.14885072 104.58398167 54.12827283 106.31298828 55.10766602 C108.89279838 56.58721541 111.44197646 58.0985747 113.97509766 59.65600586 C114.59852051 60.03402344 115.22194336 60.41204102 115.86425781 60.80151367 C117.4154535 61.74774753 118.95747453 62.70897893 120.49853516 63.67163086 C124.37703009 65.29025608 127.35978434 65.82874738 131.42822266 64.89428711 C135.86994417 62.87718187 140.00411018 60.4113887 144.17822266 57.89428711 C146.39774333 56.57429663 148.62152959 55.26144464 150.85009766 53.95678711 C152.31334473 53.07700195 152.31334473 53.07700195 153.80615234 52.17944336 C156.42822266 50.89428711 156.42822266 50.89428711 160.42822266 50.89428711 C162.61962891 52.54663086 162.61962891 52.54663086 164.99072266 54.83178711 C169.49587199 59.06329034 174.15828322 62.99021021 178.98291016 66.85131836 C185.28767448 72.11871731 185.28767448 72.11871731 185.89578247 75.47436523 C185.88086761 76.44825195 185.86595276 77.42213867 185.85058594 78.42553711 C185.84382843 79.53348633 185.83707092 80.64143555 185.83010864 81.78295898 C185.80318939 82.97469727 185.77627014 84.16643555 185.74853516 85.39428711 C185.73813202 86.62211914 185.72772888 87.84995117 185.7170105 89.11499023 C185.68135611 93.0419016 185.61901672 96.96777395 185.55322266 100.89428711 C185.49799548 104.82069944 185.44856853 108.74696336 185.41085815 112.67358398 C185.38634052 115.11772987 185.35112935 117.56179637 185.30422974 120.00561523 C185.29116791 121.11356445 185.27810608 122.22151367 185.26464844 123.36303711 C185.2481424 124.33692383 185.23163635 125.31081055 185.21463013 126.31420898 C185.4406157 129.04398811 185.94858437 130.60597817 187.42822266 132.89428711 C189.84615515 134.69098566 189.84615515 134.69098566 192.76806641 136.27709961 C193.83089844 136.88682617 194.89373047 137.49655273 195.98876953 138.12475586 C197.10316406 138.74995117 198.21755859 139.37514648 199.36572266 140.01928711 C201.56262729 141.2713825 203.75925457 142.52396469 205.95556641 143.77709961 C206.93259521 144.32769043 207.90962402 144.87828125 208.91625977 145.44555664 C210.79371586 146.52834646 212.62490356 147.69207438 214.42822266 148.89428711 C214.84725666 153.82590745 214.10950066 158.3164168 213.11572266 163.14038086 C212.98254639 163.79635757 212.84937012 164.45233429 212.7121582 165.12818909 C212.2905532 167.19742185 211.85956736 169.26456518 211.42822266 171.33178711 C211.13853441 172.74507045 210.84946609 174.15848101 210.56103516 175.57202148 C209.85725225 179.01427544 209.14505007 182.45472294 208.42822266 185.89428711 C207.38021484 186.06702148 206.33220703 186.23975586 205.25244141 186.41772461 C198.6306276 188.08009246 193.00591993 191.99420319 187.24072266 195.51928711 C186.08698366 196.21422457 184.93268926 196.90824079 183.77783203 197.60131836 C181.47562493 198.98533184 179.18118724 200.38110349 176.89160156 201.78588867 C174.5354789 203.22938321 172.16243233 204.63775224 169.7734375 206.02612305 C169.1825383 206.37508636 168.5916391 206.72404968 167.98283386 207.08358765 C166.35243897 208.04618528 164.71607428 208.99865099 163.0793457 209.95043945 C159.48875898 212.58311755 157.75969849 214.98123545 156.99584961 219.38964844 C156.96966553 220.24324951 156.94348145 221.09685059 156.91650391 221.97631836 C156.88105469 222.90766602 156.84560547 223.83901367 156.80908203 224.79858398 C156.78652344 225.75829102 156.76396484 226.71799805 156.74072266 227.70678711 C156.7065625 228.68583008 156.67240234 229.66487305 156.63720703 230.67358398 C156.55502407 233.08037056 156.48577833 235.48680656 156.42822266 237.89428711 C152.96262987 234.59592454 150.49680007 230.80433369 147.86572266 226.83178711 C147.37136719 226.11829102 146.87701172 225.40479492 146.36767578 224.66967773 C139.30949027 213.98211401 139.85867456 201.62917017 139.52929688 189.23950195 C139.45784327 186.87462925 139.36637246 184.51032128 139.26074219 182.14672852 C139.08852058 178.22954078 138.97232477 174.3137569 138.86572266 170.39428711 C138.80239746 169.14800537 138.73907227 167.90172363 138.67382812 166.61767578 C138.52342127 157.96572855 138.52342127 157.96572855 141.14355469 154.86303711 C143.27587891 153.30053711 143.27587891 153.30053711 145.4050293 152.12280273 C148.39059796 150.30991731 149.98251149 148.20162107 151.10742188 144.90209961 C151.43940553 142.8242963 151.5576386 140.87321336 151.56103516 138.76928711 C151.56329102 137.98585938 151.56554687 137.20243164 151.56787109 136.39526367 C151.56303711 135.56994141 151.55820312 134.74461914 151.55322266 133.89428711 C151.54838867 133.04576172 151.54355469 132.19723633 151.53857422 131.32299805 C151.88962444 117.31775698 151.88962444 117.31775698 146.42822266 104.89428711 C140.63984461 99.40274896 135.4146744 98.58043828 127.63525391 98.69506836 C126.28111137 98.70598259 126.28111137 98.70598259 124.89961243 98.71711731 C112.3819858 98.86619766 99.87238189 99.35248741 87.36694336 99.90136719 C84.50986698 100.02564515 81.65273349 100.13616392 78.79467773 100.23535156 C75.28104499 100.3573539 71.7690474 100.50222762 68.25699806 100.66335487 C66.3056876 100.74746083 64.35345532 100.80924848 62.40129089 100.8704071 C53.61436641 101.31003707 48.14554874 102.98131228 42.05322266 109.39428711 C37.8610911 115.84372027 38.16359463 121.42681511 38.42822266 128.89428711 C38.44755859 129.55025879 38.46689453 130.20623047 38.48681641 130.88208008 C38.49312599 143.8122966 38.49312599 143.8122966 44.26416016 154.88647461 C47.57298084 157.94928632 50.00470971 159.91224532 54.42822266 160.89428711 C55.04253797 169.95707175 55.59149436 179.01966951 56.04858398 188.0917511 C56.2891117 192.73706315 56.63438507 197.35855257 57.05322266 201.99194336 C58.28259153 219.40602591 52.74428198 233.86314146 42.42822266 247.89428711 C39.07513106 250.81963922 35.52016975 253.17840174 31.74072266 255.51928711 C27.85615775 257.91893311 27.85615775 257.91893311 24.42822266 260.89428711 C23.53103516 259.68772461 23.53103516 259.68772461 22.61572266 258.45678711 C19.34502877 254.52274122 15.40766633 251.5177068 11.40869141 248.35522461 C9.32233962 246.63254883 7.40130528 244.94290862 5.47900391 243.05834961 C4.53412109 242.13795898 3.58923828 241.21756836 2.61572266 240.26928711 C1.76365234 239.41077148 0.91158203 238.55225586 0.03369141 237.66772461 C-2.44102563 235.58607769 -2.44102563 235.58607769 -5.4152832 236.11547852 C-8.59269415 236.89944796 -10.86967073 237.92937755 -13.68115234 239.58178711 C-14.60025391 240.11545898 -15.51935547 240.64913086 -16.46630859 241.19897461 C-17.40861328 241.75842773 -18.35091797 242.31788086 -19.32177734 242.89428711 C-21.21232297 243.99858967 -23.10294417 245.10276287 -24.99365234 246.20678711 C-25.82477539 246.69791992 -26.65589844 247.18905273 -27.51220703 247.69506836 C-31.16591415 249.82249953 -33.2857954 250.23789716 -37.57177734 249.89428711 C-40.58520508 248.56835938 -40.58520508 248.56835938 -43.75537109 246.71069336 C-44.3284903 246.37966614 -44.9016095 246.04863892 -45.49209595 245.70758057 C-47.33888167 244.63663162 -49.17413957 243.54755474 -51.00927734 242.45678711 C-52.27298538 241.7165364 -53.53722885 240.97719902 -54.80200195 240.23876953 C-57.27998317 238.78925289 -59.75329376 237.33222002 -62.22314453 235.86889648 C-65.01627966 234.22185092 -67.82123842 232.60249675 -70.64208984 231.00366211 C-71.97313445 230.23858564 -73.30389968 229.47302273 -74.63427734 228.70678711 C-75.73900391 228.07385742 -76.84373047 227.44092773 -77.98193359 226.78881836 C-81.47096817 224.236508 -83.2956091 221.67403801 -83.96618652 217.35253906 C-83.97460571 216.45494873 -83.9830249 215.5573584 -83.99169922 214.63256836 C-84.00761108 213.60800537 -84.02352295 212.58344238 -84.03991699 211.52783203 C-84.04011841 210.43188721 -84.04031982 209.33594238 -84.04052734 208.20678711 C-84.04814087 207.07152588 -84.05575439 205.93626465 -84.06359863 204.76660156 C-84.07439087 202.36940712 -84.07725632 199.97216568 -84.07275391 197.57495117 C-84.07178076 193.90716314 -84.11343341 190.24146116 -84.15771484 186.57397461 C-84.16292129 184.2432498 -84.16561005 181.91251773 -84.16552734 179.58178711 C-84.18192261 178.48584229 -84.19831787 177.38989746 -84.21520996 176.26074219 C-84.14629558 168.67300084 -84.14629558 168.67300084 -81.32421875 164.84790039 C-78.8913789 163.12113221 -76.52032905 161.44344862 -73.93896484 159.94897461 C-72.61904541 159.17686646 -72.61904541 159.17686646 -71.27246094 158.38916016 C-70.33998535 157.85460205 -69.40750977 157.32004395 -68.44677734 156.76928711 C-67.4820752 156.20959229 -66.51737305 155.64989746 -65.5234375 155.07324219 C-63.52815771 153.91621507 -61.53123538 152.76201606 -59.53271484 151.6105957 C-56.68876176 149.96209717 -53.86242195 148.28723774 -51.04052734 146.60131836 C-49.34267459 145.59470013 -47.64476091 144.58818467 -45.94677734 143.58178711 C-45.16028809 143.10789551 -44.37379883 142.63400391 -43.56347656 142.14575195 C-42.46543701 141.50114014 -42.46543701 141.50114014 -41.34521484 140.84350586 C-40.71019043 140.46540771 -40.07516602 140.08730957 -39.42089844 139.69775391 C-37.57177734 138.89428711 -37.57177734 138.89428711 -33.57177734 138.89428711 C-33.39001953 137.69674805 -33.20826172 136.49920898 -33.02099609 135.26538086 C-31.60493932 126.05673803 -30.05456081 116.91562447 -28.12255859 107.80053711 C-27.47867645 104.89602811 -27.47867645 104.89602811 -27.57177734 101.89428711 C-28.33844727 101.47131348 -29.10511719 101.04833984 -29.89501953 100.61254883 C-32.75677756 99.02475427 -35.61071696 97.42439279 -38.46044922 95.81518555 C-39.69131469 95.12355022 -40.92501354 94.43693086 -42.16162109 93.75561523 C-43.94680104 92.77088694 -45.720746 91.76809622 -47.49365234 90.76147461 C-49.09611816 89.865979 -49.09611816 89.865979 -50.73095703 88.95239258 C-54.18039804 86.45335617 -55.74106341 84.76929377 -57.57177734 80.89428711 C-58.12830982 76.95988575 -58.10873827 73.07720321 -58.06787109 69.10913086 C-58.06932632 67.97528458 -58.07078156 66.84143829 -58.07228088 65.67323303 C-58.07062446 63.28196639 -58.05909213 60.8906888 -58.03833008 58.49951172 C-58.00934976 54.84092942 -58.01773287 51.18379448 -58.03076172 47.52514648 C-58.02452478 45.19896757 -58.01613419 42.87279323 -58.00537109 40.54663086 C-58.00830673 39.45382309 -58.01124237 38.36101532 -58.01426697 37.23509216 C-57.8938562 27.53956376 -57.8938562 27.53956376 -54.57177734 23.89428711 C-52.11425781 22.10839844 -52.11425781 22.10839844 -49.18896484 20.47631836 C-48.11187256 19.86602783 -47.03478027 19.2557373 -45.92504883 18.62695312 C-44.77721924 17.99329834 -43.62938965 17.35964355 -42.44677734 16.70678711 C-40.67060589 15.71311297 -38.89633001 14.71611612 -37.12223816 13.71873474 C-35.94145508 13.0552473 -34.75982455 12.39326577 -33.5773468 11.73280334 C-30.12691355 9.79891744 -26.73786269 7.79433994 -23.38818359 5.69116211 C-22.63617676 5.22347412 -21.88416992 4.75578613 -21.109375 4.27392578 C-19.75953642 3.42733439 -18.41842915 2.56656891 -17.08886719 1.68847656 C-11.4363415 -1.8076595 -6.23562181 -2.68095037 0 0 Z " fill="#6A65F6" transform="translate(219.57177734375,139.105712890625)"/>
<path d="M0 0 C0.0501123 0.83732666 0.10022461 1.67465332 0.15185547 2.53735352 C0.25844482 4.31517212 0.25844482 4.31517212 0.3671875 6.12890625 C0.4057486 6.77738525 0.44430969 7.42586426 0.48403931 8.09399414 C0.70218376 11.74746859 0.92785585 15.40026269 1.16601562 19.05249023 C1.64874942 26.54670757 2.05417829 34.02306441 2.2265625 41.53125 C2.6151381 55.84643504 3.23021591 66.61573858 12.38867188 77.91455078 C15.7069862 82.20925395 18.51290665 86.8703876 21.4375 91.4375 C22.73082156 93.4194397 24.02636605 95.39993075 25.32421875 97.37890625 C29.81305799 104.23785261 34.26388517 111.12107513 38.71142578 118.00683594 C39.99194785 119.98754495 41.27487502 121.96667404 42.55859375 123.9453125 C50.12495877 135.61201306 57.63274715 147.31633578 65.10742188 159.04199219 C66.38735453 161.04246485 67.67535366 163.03779569 68.97070312 165.02832031 C69.59396484 165.99092773 70.21722656 166.95353516 70.859375 167.9453125 C71.41592773 168.79883301 71.97248047 169.65235352 72.54589844 170.53173828 C76.497973 177.24017914 76.30786579 182.45092173 75 190 C72.93719255 197.27588062 68.7842113 203.29458322 62.12109375 207.0625 C51.82123636 211.39052088 39.18745508 210.41594984 28.1875 210.9375 C27.31983002 210.97946503 26.45216003 211.02143005 25.55819702 211.06466675 C7.27810519 211.946249 -11.00890777 212.64032933 -29.2980957 213.30249023 C-44.22092436 213.84396167 -59.14387768 214.40776753 -74.05493164 215.21923828 C-81.4310027 215.57882668 -87.02484123 214.525999 -93 210 C-98.3926301 204.54620585 -102.50070969 198.41039776 -103.375 190.6875 C-102.37741695 180.87793333 -98.02683119 172.6533361 -93.4375 164.0625 C-92.80265139 162.85866533 -92.16862855 161.65439486 -91.53540039 160.44970703 C-90.27583274 158.05681184 -89.01155194 155.66652124 -87.7421875 153.27880859 C-85.85316113 149.72364827 -83.97803851 146.16138374 -82.10571289 142.59741211 C-80.92578254 140.35270867 -79.74218126 138.10996431 -78.55859375 135.8671875 C-75.51565204 130.0903057 -72.50891449 124.29465584 -69.5 118.5 C-66.04324818 111.84378039 -62.58532625 105.18841213 -59.08740234 98.55371094 C-58.28432819 97.02777302 -57.48511816 95.49979472 -56.68994141 93.96972656 C-54.52634387 89.82009386 -52.2840268 85.73686794 -49.9375 81.6875 C-49.42719238 80.7809668 -48.91688477 79.87443359 -48.39111328 78.94042969 C-47.42046919 77.21796627 -46.42600925 75.50857742 -45.40185547 73.81738281 C-41.61384209 66.99374146 -41.47970753 61.10362214 -41.878479 53.40826416 C-42.01636764 50.67563133 -42.11286565 47.94299754 -42.20654297 45.20849609 C-42.43808972 38.65833243 -42.71734032 32.11062447 -43 25.5625 C-43.09664102 23.27019437 -43.19299736 20.97787671 -43.2890625 18.68554688 C-43.522762 13.12355517 -43.75996663 7.56172178 -44 2 C-29.30484103 0.77851669 -14.74991657 -0.29333533 0 0 Z " fill="#D1DBFC" transform="translate(338,298)"/>
<path d="M0 0 C2.8982904 -0.0965202 5.79511879 -0.16232668 8.69451904 -0.21350098 C9.50392441 -0.24183014 10.31332977 -0.2701593 11.14726257 -0.29934692 C17.65754003 -0.3483661 22.8133719 1.61126809 27.71795654 5.93884277 C28.17299561 6.51505371 28.62803467 7.09126465 29.09686279 7.68493652 C29.56994873 8.26372559 30.04303467 8.84251465 30.53045654 9.43884277 C35.21521535 16.42545539 33.79527761 27.80892431 33.90936279 35.93493652 C33.93071289 36.7347998 33.95206299 37.53466309 33.97406006 38.35876465 C34.01039343 44.70587425 33.0471056 49.4415451 28.68670654 54.33728027 C27.99705811 54.90575684 27.30740967 55.4742334 26.59686279 56.05993652 C25.90463623 56.64645996 25.21240967 57.2329834 24.49920654 57.83728027 C22.65936279 59.12243652 22.65936279 59.12243652 20.65936279 59.12243652 C20.89603883 66.2029466 21.14565564 73.28291828 21.4039917 80.3626709 C21.49025989 82.76784086 21.57363762 85.1731164 21.6539917 87.57849121 C21.7704485 91.04919154 21.89752449 94.5193709 22.02655029 97.98962402 C22.05997528 99.05357391 22.09340027 100.1175238 22.12783813 101.2137146 C22.52901829 111.4749529 23.6229252 119.69565678 29.59686279 128.18493652 C30.59598565 129.66511853 31.59467128 131.14559574 32.59295654 132.62634277 C33.35841797 133.74420166 33.35841797 133.74420166 34.13934326 134.88464355 C36.5428252 138.42308163 38.84754947 142.02373739 41.15936279 145.62243652 C42.07551597 147.03943531 42.99218382 148.45610148 43.90936279 149.87243652 C52.15936279 162.62243652 52.15936279 162.62243652 60.40936279 175.37243652 C60.86303223 176.07352539 61.31670166 176.77461426 61.78411865 177.49694824 C62.70173407 178.91515521 63.61921432 180.33344964 64.53656006 181.75183105 C66.81261648 185.27065706 69.0909202 188.78798436 71.37420654 192.30212402 C73.66029463 195.82126446 75.93469794 199.34779913 78.20623779 202.87634277 C79.75313001 205.26737241 81.31573932 207.64774896 82.87811279 210.02868652 C92.40722217 224.64859173 98.73882888 237.29169977 95.26385498 255.15563965 C93.18579418 263.34294934 89.45674818 270.04282548 83.65936279 276.12243652 C82.69063232 277.16851074 82.69063232 277.16851074 81.70233154 278.23571777 C72.51908386 287.28266493 62.38332922 290.34318375 49.87420654 291.15368652 C48.76923828 291.23166473 47.66427002 291.30964294 46.52581787 291.38998413 C30.02146387 292.50190613 13.4919538 293.23418524 -3.03204346 293.9822998 C-6.89039228 294.15720773 -10.74841831 294.33760617 -14.60626221 294.52331543 C-33.14341295 295.41455681 -51.69140208 296.28975549 -70.25172424 296.46636581 C-71.67766305 296.48156046 -73.10355207 296.50312639 -74.52928162 296.53189468 C-89.60111168 296.81411663 -100.01869894 292.62066903 -111.15313721 282.47009277 C-120.63903034 272.36662847 -123.99731818 259.24589418 -123.69610596 245.76306152 C-122.1409871 229.83591015 -111.54267693 213.60445414 -103.37188721 200.19274902 C-97.59098582 190.47608743 -95.24846775 182.84008333 -95.53717041 171.41711426 C-95.69055981 164.75414776 -95.69055981 164.75414776 -93.71563721 161.18884277 C-91.03589927 158.85729447 -88.40553643 157.49145361 -85.21563721 155.93493652 C-76.91115145 151.36277756 -73.39198152 143.78171834 -69.47979736 135.45837402 C-68.34063721 133.12243652 -68.34063721 133.12243652 -66.9631958 130.75524902 C-63.14510775 124.0131565 -62.6933612 118.53423716 -62.96563721 110.87243652 C-62.99560791 109.18030029 -62.99560791 109.18030029 -63.02618408 107.45397949 C-63.21699672 98.26531953 -63.63877941 89.08138194 -64.11798096 79.90368652 C-64.39985023 74.30609434 -64.44704909 68.72679559 -64.34063721 63.12243652 C-65.08055908 63.02060059 -65.82048096 62.91876465 -66.58282471 62.81384277 C-71.25224845 61.64317988 -74.1681366 58.63214435 -77.34063721 55.12243652 C-81.16828246 48.331453 -81.03222124 40.73096171 -81.27325439 33.0970459 C-81.33467567 31.29713543 -81.43332233 29.49859319 -81.53594971 27.70056152 C-81.78045256 21.27828657 -81.32928108 16.33209383 -77.34063721 11.12243652 C-72.27154295 5.8534012 -67.84331639 2.9656077 -60.43658447 2.61999512 C-59.24336075 2.56008392 -58.05013702 2.50017273 -56.820755 2.43844604 C-55.52923019 2.38314728 -54.23770538 2.32784851 -52.90704346 2.27087402 C-51.55056251 2.20711848 -50.19411238 2.14270421 -48.83769226 2.07766724 C-45.98400025 1.94276318 -43.13011954 1.81397187 -40.27593994 1.68981934 C-36.68298172 1.53332952 -33.09071899 1.36486323 -29.49849892 1.19234848 C-19.66772634 0.72167716 -9.8353476 0.36047188 0 0 Z M-44.34063721 63.12243652 C-44.31558105 63.70300308 -44.2905249 64.28356964 -44.26470947 64.88172913 C-44.00134332 70.99883362 -43.74250824 77.11611862 -43.48614502 83.23352051 C-43.39026999 85.50765698 -43.29329172 87.78174724 -43.19512939 90.05578613 C-42.96080666 95.4918344 -42.74274069 100.92716845 -42.56427002 106.36535645 C-42.45180003 109.72269449 -42.27991695 113.04635491 -41.95294189 116.38928223 C-41.1455716 127.9815922 -46.16300467 136.32995381 -51.59063721 146.18493652 C-52.51903999 147.92430055 -53.44472201 149.66511942 -54.36773682 151.40734863 C-56.59942635 155.60240616 -58.86419385 159.77814709 -61.14770508 163.94519043 C-62.19899031 165.86391373 -63.24543115 167.78511695 -64.28839111 169.70837402 C-66.28427716 173.38768551 -68.28340043 177.06484995 -70.30987549 180.72741699 C-74.18597387 187.74361075 -77.77814567 194.88524662 -81.33013916 202.06994629 C-84.33172094 208.13461097 -87.42089893 214.14402347 -90.59063721 220.12243652 C-93.55794579 225.73227654 -96.52383772 231.3417778 -99.40313721 236.99743652 C-99.95098877 238.0673584 -100.49884033 239.13728027 -101.06329346 240.23962402 C-103.51673893 245.77675785 -104.61646826 251.78727652 -102.39923096 257.58337402 C-98.60462876 265.50564695 -94.49360655 271.47424364 -86.2901001 275.13586426 C-83.20589228 276.16750765 -80.96991903 276.36620453 -77.73126221 276.30993652 C-76.01229736 276.28069092 -76.01229736 276.28069092 -74.25860596 276.25085449 C-67.28738665 276.02236114 -60.32129543 275.72142239 -53.35464478 275.38192749 C-48.51826905 275.14659932 -43.68139683 274.92191759 -38.84454346 274.69665527 C-37.32652885 274.62569389 -37.32652885 274.62569389 -35.77784729 274.55329895 C-21.06710568 273.87070899 -6.35192184 273.2934817 8.36274719 272.70315552 C12.15636836 272.55044947 15.9499128 272.39589736 19.74343872 272.24084473 C21.75546402 272.15914154 23.76753164 272.07847611 25.77963257 271.99865723 C28.8985117 271.87462538 32.01722248 271.74691059 35.13592529 271.61853027 C36.55219963 271.5634153 36.55219963 271.5634153 37.99708557 271.50718689 C54.91453431 270.89727806 54.91453431 270.89727806 68.84686279 262.18493652 C74.1005102 255.99529446 76.03307381 248.69822963 75.78436279 240.62243652 C74.19259701 231.27290696 67.02900354 223.07570237 61.83416748 215.37585449 C58.11403569 209.85331199 54.53334701 204.24831211 50.97186279 198.62243652 C44.20241797 187.93740523 37.30135927 177.34184267 30.37860107 166.7557373 C26.56726944 160.91804589 22.78760162 155.0598606 19.00506592 149.20349121 C17.55357394 146.95883997 16.09892738 144.71625476 14.64373779 142.47399902 C13.89495361 141.31940186 13.89495361 141.31940186 13.13104248 140.14147949 C12.17921061 138.67394044 11.22677722 137.20679128 10.27362061 135.7401123 C9.84404053 135.07737305 9.41446045 134.41463379 8.97186279 133.73181152 C8.59674561 133.15398926 8.22162842 132.57616699 7.83514404 131.98083496 C7.44713623 131.36756348 7.05912842 130.75429199 6.65936279 130.12243652 C5.86574341 128.96228027 5.86574341 128.96228027 5.05609131 127.77868652 C3.42795957 124.68236188 3.18068343 122.49678371 2.99920654 119.01306152 C2.9287915 117.79820068 2.85837646 116.58333984 2.78582764 115.33166504 C2.72346924 114.02511963 2.66111084 112.71857422 2.59686279 111.37243652 C2.52218874 110.01030213 2.4461562 108.6482416 2.36883545 107.28625488 C2.20694041 104.40691655 2.05209639 101.52731759 1.90203857 98.64733887 C1.65741348 94.00854567 1.37891874 89.37212545 1.09295654 84.73571777 C1.04600143 83.97433502 0.99904633 83.21295227 0.95066833 82.42849731 C0.85757164 80.92107606 0.76438752 79.4136602 0.67111206 77.90625 C0.452479 74.35484106 0.23932599 70.80310674 0.02655029 67.25134277 C-0.04450928 66.06613037 -0.11556885 64.88091797 -0.18878174 63.65979004 C-0.23889404 62.82246338 -0.28900635 61.98513672 -0.34063721 61.12243652 C-15.09055377 60.8291012 -29.64547823 61.90095321 -44.34063721 63.12243652 Z " fill="#072C76" transform="translate(338.34063720703125,236.8775634765625)"/>
<path d="M0 0 C0.60666504 0.61069336 1.21333008 1.22138672 1.83837891 1.85058594 C4.24735043 4.2459536 6.63487615 5.71332273 9.5859375 7.390625 C11.22006592 8.32636353 11.22006592 8.32636353 12.88720703 9.28100586 C14.04952839 9.93782642 15.21213108 10.59414935 16.375 11.25 C18.15005184 12.25698589 19.92444707 13.26512215 21.69882202 14.27330017 C23.4267679 15.25456362 25.15575901 16.23398572 26.88476562 17.21337891 C29.46457572 18.6929283 32.01375381 20.2042876 34.546875 21.76171875 C35.17029785 22.13973633 35.7937207 22.51775391 36.43603516 22.90722656 C37.98723085 23.85346042 39.52925188 24.81469182 41.0703125 25.77734375 C44.94880744 27.39596897 47.93156168 27.93446027 52 27 C56.44172152 24.98289476 60.57588752 22.51710159 64.75 20 C66.96952068 18.68000952 69.19330693 17.36715753 71.421875 16.0625 C72.39737305 15.47597656 73.37287109 14.88945312 74.37792969 14.28515625 C77 13 77 13 81 13 C83.19140625 14.65234375 83.19140625 14.65234375 85.5625 16.9375 C90.06764934 21.16900323 94.73006056 25.0959231 99.5546875 28.95703125 C105.85945182 34.2244302 105.85945182 34.2244302 106.46755981 37.58007812 C106.45264496 38.55396484 106.4377301 39.52785156 106.42236328 40.53125 C106.41560577 41.63919922 106.40884827 42.74714844 106.40188599 43.88867188 C106.36150711 45.6762793 106.36150711 45.6762793 106.3203125 47.5 C106.30990936 48.72783203 106.29950623 49.95566406 106.28878784 51.22070312 C106.25313345 55.14761449 106.19079407 59.07348684 106.125 63 C106.06977282 66.92641233 106.02034588 70.85267625 105.9826355 74.77929688 C105.95811786 77.22344276 105.92290669 79.66750926 105.87600708 82.11132812 C105.86294525 83.21927734 105.84988342 84.32722656 105.83642578 85.46875 C105.81166672 86.92958008 105.81166672 86.92958008 105.78640747 88.41992188 C106.01239304 91.149701 106.52036171 92.71169106 108 95 C110.4179325 96.79669855 110.4179325 96.79669855 113.33984375 98.3828125 C114.9340918 99.29740234 114.9340918 99.29740234 116.56054688 100.23046875 C117.67494141 100.85566406 118.78933594 101.48085938 119.9375 102.125 C122.13440463 103.37709539 124.33103191 104.62967758 126.52734375 105.8828125 C127.50437256 106.43340332 128.48140137 106.98399414 129.48803711 107.55126953 C131.36549321 108.63405935 133.19668091 109.79778727 135 111 C135.41903401 115.93162034 134.681278 120.42212969 133.6875 125.24609375 C133.55432373 125.90207047 133.42114746 126.55804718 133.28393555 127.23390198 C132.86233055 129.30313474 132.43134471 131.37027807 132 133.4375 C131.71031175 134.85078334 131.42124343 136.2641939 131.1328125 137.67773438 C130.42902959 141.11998833 129.71682742 144.56043583 129 148 C127.95199219 148.17273438 126.90398437 148.34546875 125.82421875 148.5234375 C119.20240494 150.18580535 113.57769728 154.09991608 107.8125 157.625 C106.65876101 158.31993746 105.5044666 159.01395368 104.34960938 159.70703125 C102.04740228 161.09104473 99.75296458 162.48681638 97.46337891 163.89160156 C95.10725625 165.3350961 92.73420968 166.74346513 90.34521484 168.13183594 C89.75431564 168.48079926 89.16341644 168.82976257 88.55461121 169.18930054 C86.92421631 170.15189817 85.28785163 171.10436388 83.65112305 172.05615234 C80.06053632 174.68883045 78.33147583 177.08694834 77.56762695 181.49536133 C77.54144287 182.3489624 77.51525879 183.20256348 77.48828125 184.08203125 C77.45283203 185.01337891 77.41738281 185.94472656 77.38085938 186.90429688 C77.35830078 187.86400391 77.33574219 188.82371094 77.3125 189.8125 C77.27833984 190.79154297 77.24417969 191.77058594 77.20898438 192.77929688 C77.12680142 195.18608345 77.05755567 197.59251945 77 200 C73.53440722 196.70163743 71.06857741 192.91004658 68.4375 188.9375 C67.94314453 188.22400391 67.44878906 187.51050781 66.93945312 186.77539062 C59.88126761 176.0878269 60.4304519 163.73488306 60.10107422 151.34521484 C60.02962061 148.98034214 59.9381498 146.61603417 59.83251953 144.25244141 C59.66029793 140.33525367 59.54410211 136.41946979 59.4375 132.5 C59.3741748 131.25371826 59.31084961 130.00743652 59.24560547 128.72338867 C59.09519861 120.07144144 59.09519861 120.07144144 61.71533203 116.96875 C63.84765625 115.40625 63.84765625 115.40625 65.97680664 114.22851562 C68.96237531 112.4156302 70.55428884 110.30733396 71.67919922 107.0078125 C72.01118287 104.93000919 72.12941594 102.97892625 72.1328125 100.875 C72.13506836 100.09157227 72.13732422 99.30814453 72.13964844 98.50097656 C72.13481445 97.6756543 72.12998047 96.85033203 72.125 96 C72.12016602 95.15147461 72.11533203 94.30294922 72.11035156 93.42871094 C72.46140179 79.42346987 72.46140179 79.42346987 67 67 C61.21162195 61.50846185 55.98645175 60.68615117 48.20703125 60.80078125 C47.30426956 60.8080574 46.40150787 60.81533356 45.47138977 60.8228302 C32.95376315 60.97191055 20.44415923 61.4582003 7.9387207 62.00708008 C5.08164432 62.13135804 2.22451084 62.24187681 -0.63354492 62.34106445 C-4.14717767 62.46306679 -7.65917526 62.60794051 -11.17122459 62.76906776 C-13.12253506 62.85317372 -15.07476733 62.91496137 -17.02693176 62.97612 C-25.81385624 63.41574996 -31.28267391 65.08702517 -37.375 71.5 C-41.56713156 77.94943316 -41.26462802 83.532528 -41 91 C-40.98066406 91.65597168 -40.96132813 92.31194336 -40.94140625 92.98779297 C-40.93509667 105.91800949 -40.93509667 105.91800949 -35.1640625 116.9921875 C-31.85524181 120.05499922 -29.42351295 122.01795821 -25 123 C-24.38589243 132.05971985 -23.83465137 141.11950956 -23.37510681 150.18840027 C-23.13365024 154.85745878 -22.80061567 159.50848636 -22.41015625 164.16796875 C-21.31525702 181.04281862 -26.16418282 194.17947655 -36 208 C-36.66 208.33 -37.32 208.66 -38 209 C-47.82070458 201.2064148 -57.19480094 192.93250314 -66 184 C-65.67 183.34 -65.34 182.68 -65 182 C-64.88461737 180.39837105 -64.83050126 178.79213303 -64.80712891 177.18652344 C-64.79106598 176.1849823 -64.77500305 175.18344116 -64.75845337 174.15155029 C-64.71401528 169.56409344 -64.6729307 164.97678195 -64.64990234 160.38916016 C-64.63334912 157.97011694 -64.6060678 155.5511225 -64.56787109 153.13232422 C-64.51308033 149.64524955 -64.49122303 146.15932229 -64.4765625 142.671875 C-64.45389313 141.59355408 -64.43122375 140.51523315 -64.40786743 139.40423584 C-64.36664525 133.01248297 -64.36664525 133.01248297 -67.18994141 127.47387695 C-69.88051346 125.10519176 -72.3074504 123.38871442 -75.484375 121.74609375 C-76.50144531 121.20146484 -77.51851562 120.65683594 -78.56640625 120.09570312 C-80.70269572 118.98299775 -82.84074403 117.87366315 -84.98046875 116.76757812 C-85.99238281 116.22423828 -87.00429687 115.68089844 -88.046875 115.12109375 C-89.43664551 114.40070923 -89.43664551 114.40070923 -90.85449219 113.66577148 C-93 112 -93 112 -93.86743164 109.64379883 C-94.01229694 106.7547633 -93.69310583 104.40323218 -93.07421875 101.578125 C-92.85443359 100.55203125 -92.63464844 99.5259375 -92.40820312 98.46875 C-92.17037109 97.4065625 -91.93253906 96.344375 -91.6875 95.25 C-91.46126953 94.20328125 -91.23503906 93.1565625 -91.00195312 92.078125 C-90.55430272 90.01403093 -90.09087047 87.95328913 -89.61083984 85.89648438 C-88.95817794 83.05973424 -88.95817794 83.05973424 -88.73681641 80.36914062 C-88.45114249 77.93418178 -88.15721996 76.16512122 -87 74 C-84.70150635 72.56982618 -82.47176688 71.81436271 -79.89306641 70.99414062 C-74.61006731 69.17875056 -69.96683776 66.10264099 -65.1875 63.25 C-63.61234619 62.3216333 -63.61234619 62.3216333 -62.00537109 61.37451172 C-55.33967294 57.43405029 -48.72518464 53.41951768 -42.1953125 49.2578125 C-40 48 -40 48 -38 48 C-36.41217647 43.05546181 -35.71630387 38.77153894 -35.5859375 33.53515625 C-35.56657135 32.85698349 -35.5472052 32.17881073 -35.5272522 31.48008728 C-35.46808001 29.34101434 -35.42132481 27.20188572 -35.375 25.0625 C-35.33676255 23.60088964 -35.29770758 22.13930043 -35.2578125 20.67773438 C-35.16243181 17.11868457 -35.07817433 13.55947413 -35 10 C-30.50164435 8.40351507 -25.9993326 6.81896027 -21.49291992 5.24536133 C-19.96019474 4.70826638 -18.42860584 4.16791736 -16.89819336 3.62426758 C-14.69935403 2.84380435 -12.49670623 2.07509952 -10.29296875 1.30859375 C-9.60849167 1.06282089 -8.92401459 0.81704803 -8.21879578 0.56382751 C-3.34161512 -1.11387171 -3.34161512 -1.11387171 0 0 Z " fill="#FDFDFE" transform="translate(299,177)"/>
<path d="M0 0 C1.43569336 0.85670288 1.43569336 0.85670288 2.90039062 1.73071289 C3.97522705 2.36178955 5.05006348 2.99286621 6.1574707 3.64306641 C7.84005981 4.66291626 7.84005981 4.66291626 9.55664062 5.70336914 C10.72218919 6.39719223 11.88845349 7.08981432 13.05541992 7.78125 C15.35149312 9.14445888 17.64140934 10.51658028 19.92919922 11.89379883 C22.57680872 13.47864424 25.23803881 15.02918178 27.91992188 16.55493164 C29.23637254 17.31266698 30.55278332 18.07047163 31.86914062 18.82836914 C32.96871094 19.4587207 34.06828125 20.08907227 35.20117188 20.73852539 C39.34228909 23.67866197 42.58556197 26.11853019 43.49928284 31.25340271 C43.65178499 34.3148946 43.64469358 37.33794678 43.58007812 40.40258789 C43.57537506 41.51898148 43.570672 42.63537506 43.56582642 43.78559875 C43.54452343 47.34215636 43.48791579 50.89721137 43.43164062 54.45336914 C43.41512969 56.85765199 43.40078261 59.26195073 43.38867188 61.66625977 C43.35473853 66.05732295 43.31993506 70.44822549 43.24951172 74.83886719 C43.23665131 75.72011765 43.22379089 76.6013681 43.21054077 77.50932312 C43.05664062 79.76586914 43.05664062 79.76586914 42.05664062 82.76586914 C42.93964844 83.51610352 43.82265625 84.26633789 44.73242188 85.03930664 C63.18705205 100.7620215 63.18705205 100.7620215 70.05664062 107.76586914 C66.63521201 110.59524726 63.14224522 113.05391213 59.36914062 115.39086914 C55.48457572 117.79051514 55.48457572 117.79051514 52.05664062 120.76586914 C51.15945312 119.55930664 51.15945312 119.55930664 50.24414062 118.32836914 C46.97344674 114.39432326 43.0360843 111.38928883 39.03710938 108.22680664 C36.95075759 106.50413086 35.02972325 104.81449066 33.10742188 102.92993164 C32.16253906 102.00954102 31.21765625 101.08915039 30.24414062 100.14086914 C29.39207031 99.28235352 28.54 98.42383789 27.66210938 97.53930664 C25.18739234 95.45765972 25.18739234 95.45765972 22.21313477 95.98706055 C19.03572382 96.77102999 16.75874724 97.80095958 13.94726562 99.45336914 C13.02816406 99.98704102 12.1090625 100.52071289 11.16210938 101.07055664 C10.21980469 101.63000977 9.2775 102.18946289 8.30664062 102.76586914 C6.416095 103.8701717 4.5254738 104.9743449 2.63476562 106.07836914 C1.38808105 106.81506836 1.38808105 106.81506836 0.11621094 107.56665039 C-3.53749618 109.69408156 -5.65737743 110.10947919 -9.94335938 109.76586914 C-12.95678711 108.43994141 -12.95678711 108.43994141 -16.12695312 106.58227539 C-16.98663193 106.08573456 -16.98663193 106.08573456 -17.86367798 105.5791626 C-19.7104637 104.50821365 -21.5457216 103.41913677 -23.38085938 102.32836914 C-24.64456741 101.58811843 -25.90881088 100.84878105 -27.17358398 100.11035156 C-29.6515652 98.66083492 -32.12487579 97.20380205 -34.59472656 95.74047852 C-37.3878617 94.09343295 -40.19282045 92.47407878 -43.01367188 90.87524414 C-44.34471648 90.11016767 -45.67548171 89.34460476 -47.00585938 88.57836914 C-48.11058594 87.94543945 -49.2153125 87.31250977 -50.35351562 86.66040039 C-53.8425502 84.10809003 -55.66719113 81.54562004 -56.33776855 77.22412109 C-56.34618774 76.32653076 -56.35460693 75.42894043 -56.36328125 74.50415039 C-56.37919312 73.4795874 -56.39510498 72.45502441 -56.41149902 71.39941406 C-56.41170044 70.30346924 -56.41190186 69.20752441 -56.41210938 68.07836914 C-56.42352966 66.37547729 -56.42352966 66.37547729 -56.43518066 64.63818359 C-56.4459729 62.24098915 -56.44883835 59.84374771 -56.44433594 57.4465332 C-56.44336279 53.77874517 -56.48501544 50.11304319 -56.52929688 46.44555664 C-56.53450332 44.11483183 -56.53719208 41.78409976 -56.53710938 39.45336914 C-56.55350464 38.35742432 -56.5698999 37.26147949 -56.58679199 36.13232422 C-56.51787762 28.54458287 -56.51787762 28.54458287 -53.69580078 24.71948242 C-51.26296093 22.99271424 -48.89191108 21.31503066 -46.31054688 19.82055664 C-44.99098999 19.04844849 -44.99098999 19.04844849 -43.64477539 18.26074219 C-42.71205811 17.72618408 -41.77934082 17.19162598 -40.81835938 16.64086914 C-38.84569503 15.49895604 -36.87303894 14.35702868 -34.90039062 13.21508789 C-33.9073291 12.64322754 -32.91426758 12.07136719 -31.89111328 11.48217773 C-29.07888723 9.84477926 -26.29524128 8.16811818 -23.51757812 6.47290039 C-22.67146973 5.9632373 -21.82536133 5.45357422 -20.95361328 4.9284668 C-19.36188128 3.96923632 -17.77648649 2.99938276 -16.19873047 2.01733398 C-15.47637207 1.58759277 -14.75401367 1.15785156 -14.00976562 0.71508789 C-13.39045166 0.33698975 -12.7711377 -0.0411084 -12.13305664 -0.43066406 C-7.85735185 -1.99955072 -4.16318354 -1.74559496 0 0 Z " fill="#082C77" transform="translate(191.943359375,279.234130859375)"/>
<path d="M0 0 C4.39349459 1.97944077 8.45367426 4.42843417 12.5625 6.9375 C13.72261489 7.63082745 14.88359113 8.3227156 16.04541016 9.01318359 C18.33064091 10.37451068 20.60863916 11.74602781 22.88427734 13.12353516 C25.53812612 14.72183336 28.20598406 16.28536793 30.89453125 17.82421875 C32.22142179 18.59102884 33.54825152 19.35794415 34.875 20.125 C36.54175781 21.08792969 36.54175781 21.08792969 38.2421875 22.0703125 C41.41432541 24.28991042 42.99872579 25.65148682 45 29 C45.5904145 32.89507797 45.53640904 36.75449129 45.49609375 40.6875 C45.49754898 41.82276123 45.49900421 42.95802246 45.50050354 44.12768555 C45.49884554 46.52492848 45.48729548 48.92218217 45.46655273 51.31933594 C45.43760428 54.98678852 45.44594584 58.65279485 45.45898438 62.3203125 C45.45274662 64.65104869 45.4443554 66.98178031 45.43359375 69.3125 C45.43652939 70.40844482 45.43946503 71.50438965 45.44248962 72.63354492 C45.42980545 73.65810791 45.41712128 74.6826709 45.40405273 75.73828125 C45.39864975 76.63587158 45.39324677 77.53346191 45.38768005 78.45825195 C44.91226624 81.57520913 43.82917018 83.44965813 42 86 C39.3112793 87.90942383 39.3112793 87.90942383 36.07421875 89.70703125 C35.49017776 90.03611984 34.90613678 90.36520844 34.30439758 90.70426941 C32.43845977 91.7522432 30.56349163 92.78265296 28.6875 93.8125 C27.47005098 94.49167085 26.2532479 95.17200094 25.03710938 95.85351562 C23.21038874 96.87707244 21.38218172 97.89702316 19.54684448 98.90505981 C16.40014424 100.63567993 13.29894864 102.41124739 10.24072266 104.29443359 C9.6266304 104.66581955 9.01253815 105.03720551 8.37983704 105.41984558 C6.68833088 106.4471591 5.00746749 107.49193814 3.32739258 108.5378418 C-1.68181231 110.73903984 -5.68819052 110.88003526 -10.91748047 108.8894043 C-11.80838379 108.37289307 -12.69928711 107.85638184 -13.6171875 107.32421875 C-14.62837646 106.74841064 -15.63956543 106.17260254 -16.68139648 105.5793457 C-17.73528564 104.95503662 -18.7891748 104.33072754 -19.875 103.6875 C-20.96820557 103.05610107 -22.06141113 102.42470215 -23.18774414 101.77416992 C-26.47042207 99.86897363 -29.73670204 97.93816464 -33 96 C-34.42723389 95.16130371 -34.42723389 95.16130371 -35.88330078 94.30566406 C-38.40850236 92.81949447 -40.92551739 91.32088649 -43.4375 89.8125 C-44.18177246 89.36801514 -44.92604492 88.92353027 -45.69287109 88.46557617 C-48.8727844 86.51641409 -50.90329423 85.14505866 -53 82 C-53.27415466 79.66752625 -53.27415466 79.66752625 -53.30639648 76.8894043 C-53.32238388 75.84789719 -53.33837128 74.80639008 -53.35484314 73.73332214 C-53.36020584 72.60831802 -53.36556854 71.4833139 -53.37109375 70.32421875 C-53.38463646 68.5873455 -53.38463646 68.5873455 -53.39845276 66.81538391 C-53.41297119 64.36335847 -53.42184593 61.91129416 -53.42553711 59.45922852 C-53.43742107 55.71238631 -53.48658433 51.96719703 -53.53710938 48.22070312 C-53.54657481 45.83854971 -53.55380926 43.45638617 -53.55859375 41.07421875 C-53.57812607 39.95528732 -53.59765839 38.8363559 -53.61778259 37.68351746 C-53.56752693 28.99328521 -53.56752693 28.99328521 -50.80444336 25.45361328 C-48.13490204 23.11802607 -45.68879517 21.34500133 -42.5703125 19.66796875 C-41.53447021 19.10094238 -40.49862793 18.53391602 -39.43139648 17.94970703 C-38.34028564 17.36817871 -37.2491748 16.78665039 -36.125 16.1875 C-33.86722697 14.96195863 -31.61071138 13.73409785 -29.35546875 12.50390625 C-28.26411621 11.90980957 -27.17276367 11.31571289 -26.04833984 10.70361328 C-23.41428365 9.23152902 -20.8489216 7.70447887 -18.30078125 6.08984375 C-17.29990479 5.45622925 -17.29990479 5.45622925 -16.27880859 4.80981445 C-14.57206269 3.71158615 -12.87727243 2.59483774 -11.18359375 1.4765625 C-7.19901475 -0.37149991 -4.24285764 -1.01073194 0 0 Z " fill="#062B75" transform="translate(351,95)"/>
<path d="M0 0 C0.0501123 0.83732666 0.10022461 1.67465332 0.15185547 2.53735352 C0.25844482 4.31517212 0.25844482 4.31517212 0.3671875 6.12890625 C0.4057486 6.77738525 0.44430969 7.42586426 0.48403931 8.09399414 C0.70218376 11.74746859 0.92785585 15.40026269 1.16601562 19.05249023 C1.64874958 26.54670994 2.0541256 34.02306465 2.2265625 41.53125 C2.61464393 55.79489043 3.1961072 66.70174205 12.38769531 77.95214844 C15.72885409 82.19588554 18.63012404 86.75921016 21.625 91.25 C22.56714355 92.6105249 22.56714355 92.6105249 23.52832031 93.99853516 C24.10936523 94.8497998 24.69041016 95.70106445 25.2890625 96.578125 C25.81193848 97.33512695 26.33481445 98.09212891 26.87353516 98.87207031 C28 101 28 101 28 105 C27.1028125 105.13535156 26.205625 105.27070313 25.28125 105.41015625 C11.25923551 107.82924346 -0.34439055 113.16938071 -12.33129883 120.71533203 C-22.10813878 126.71731531 -33.47511924 131.22163232 -45 131 C-52.35168663 105.09273931 -52.35168663 105.09273931 -53 97 C-53.07573242 96.27707764 -53.15146484 95.55415527 -53.22949219 94.80932617 C-53.74282068 86.43667682 -50.26485074 81.19074645 -45.91015625 74.29492188 C-41.78865117 67.20272157 -41.40147129 61.50672516 -41.8684082 53.39920044 C-42.01808023 50.67035864 -42.11570066 47.94203928 -42.20898438 45.21069336 C-42.43826741 38.65971771 -42.71730885 32.11135361 -43 25.5625 C-43.09664102 23.27019437 -43.19299736 20.97787671 -43.2890625 18.68554688 C-43.522762 13.12355517 -43.75996663 7.56172178 -44 2 C-29.30484103 0.77851669 -14.74991657 -0.29333533 0 0 Z " fill="#FDFDFE" transform="translate(338,298)"/>
<path d="M0 0 C15.84 0.495 15.84 0.495 32 1 C33.010625 3.18625 34.02125 5.3725 35.0625 7.625 C36.04632324 9.72724343 37.03533733 11.82695439 38.02539062 13.92626953 C38.91574091 15.82071726 39.79442544 17.72063641 40.671875 19.62109375 C46.52752651 31.90401989 54.53731772 42.40763609 63 53 C63.433125 52.236875 63.86625 51.47375 64.3125 50.6875 C67.59242175 45.46392092 67.59242175 45.46392092 71.0859375 44.3125 C73.48012224 43.98564884 75.59000655 43.77168483 78 44 C81 46.375 81 46.375 83 49 C83.33 49.33 83.66 49.66 84 50 C84.58221024 56.98652291 84.58221024 56.98652291 82.3125 60.9375 C79.78804723 63.18903896 78.32957907 63.72253508 75 64 C81.98985031 71.45584033 88.59358963 77.65723737 99 79 C99 79.33 99 79.66 99 80 C97.74606445 80.0501123 96.49212891 80.10022461 95.20019531 80.15185547 C89.21673718 80.39142892 83.23336124 80.63302017 77.25 80.875 C75.60964783 80.94119537 75.60964783 80.94119537 73.93615723 81.00872803 C61.7580579 81.50131781 49.58102844 82.00881309 37.40625 82.578125 C36.41429626 82.6243399 35.42234253 82.67055481 34.40032959 82.71817017 C29.70188387 82.93775779 25.00366342 83.1612029 20.30566406 83.39013672 C-9.32719204 84.81191604 -9.32719204 84.81191604 -17 79 C-22.3926301 73.54620585 -26.50070969 67.41039776 -27.375 59.6875 C-26.37742222 49.87798515 -22.02700725 41.65325768 -17.4375 33.0625 C-16.81218117 31.87697159 -16.18767782 30.69101271 -15.56396484 29.50463867 C-14.31385147 27.13009016 -13.05895073 24.75818327 -11.79931641 22.38867188 C-9.70370891 18.44199181 -7.62629223 14.48597692 -5.55151367 10.52832031 C-3.70659782 7.01593901 -1.85244404 3.50841674 0 0 Z " fill="#92B1F3" transform="translate(262,429)"/>
<path d="M0 0 C3.93385818 1.14078984 7.40211584 3.2524756 10.95703125 5.2578125 C11.95968018 5.82129395 12.9623291 6.38477539 13.99536133 6.96533203 C15.25501709 7.67802246 16.51467285 8.39071289 17.8125 9.125 C21.834375 11.39375 25.85625 13.6625 30 16 C30 27.22 30 38.44 30 50 C23.68875 53.6815625 23.68875 53.6815625 17.25 57.4375 C15.9290332 58.21150146 14.60806641 58.98550293 13.24707031 59.78295898 C12.20131836 60.38954346 11.15556641 60.99612793 10.078125 61.62109375 C9.00981445 62.2442749 7.94150391 62.86745605 6.84082031 63.50952148 C2.33679 65.8726278 2.33679 65.8726278 0 66 C-2.70141602 64.86010742 -2.70141602 64.86010742 -5.75390625 63.10546875 C-6.85541016 62.47962891 -7.95691406 61.85378906 -9.09179688 61.20898438 C-10.24880106 60.53533337 -11.40570104 59.86150337 -12.5625 59.1875 C-13.72267722 58.52428721 -14.88347867 57.86216513 -16.04492188 57.20117188 C-24.19696234 52.53535844 -24.19696234 52.53535844 -28 50 C-28.26697888 47.37537756 -28.34832984 44.98934067 -28.29296875 42.3671875 C-28.28872391 41.61535187 -28.28447906 40.86351624 -28.28010559 40.08889771 C-28.2632917 37.68390315 -28.22563624 35.27974191 -28.1875 32.875 C-28.17245659 31.24610584 -28.15876758 29.61719856 -28.14648438 27.98828125 C-28.11337954 23.99186566 -28.06158009 19.99607418 -28 16 C-26.88757935 15.37955811 -26.88757935 15.37955811 -25.75268555 14.74658203 C-22.99578642 13.20817918 -20.23950783 11.668672 -17.48364258 10.12841797 C-16.29183222 9.46261118 -15.0997771 8.79724231 -13.9074707 8.13232422 C-12.19157316 7.17531258 -10.47663386 6.21658348 -8.76171875 5.2578125 C-7.73006592 4.6817627 -6.69841309 4.10571289 -5.63549805 3.51220703 C-3.7156323 2.41061848 -1.84170566 1.22780377 0 0 Z " fill="#66CAD0" transform="translate(346,117)"/>
<path d="M0 0 C1.75209166 1.23903573 3.48211243 2.50993025 5.1875 3.8125 C6.84180921 4.76577679 8.51216789 5.69188213 10.19921875 6.5859375 C11.75810444 7.4526001 13.31665089 8.31987295 14.875 9.1875 C17.618125 10.71375 20.36125 12.24 23.1875 13.8125 C23.1875 25.3625 23.1875 36.9125 23.1875 48.8125 C19.145 51.08125 15.1025 53.35 10.9375 55.6875 C9.03436035 56.75653564 9.03436035 56.75653564 7.09277344 57.84716797 C6.08762695 58.41064941 5.08248047 58.97413086 4.046875 59.5546875 C3.02045898 60.1307373 1.99404297 60.70678711 0.93652344 61.30029297 C-0.42424316 62.04883545 -0.42424316 62.04883545 -1.8125 62.8125 C-2.45896484 63.27785156 -3.10542969 63.74320312 -3.77148438 64.22265625 C-5.8125 64.8125 -5.8125 64.8125 -8.83691406 63.57080078 C-10.01008001 62.89935049 -11.1736208 62.21086575 -12.328125 61.5078125 C-13.45508789 60.85312988 -14.58205078 60.19844727 -15.74316406 59.52392578 C-17.16854492 58.67040527 -18.59392578 57.81688477 -20.0625 56.9375 C-24.6 54.25625 -29.1375 51.575 -33.8125 48.8125 C-33.8125 37.2625 -33.8125 25.7125 -33.8125 13.8125 C-29.419375 11.04875 -25.02625 8.285 -20.5 5.4375 C-19.13834717 4.54756348 -17.77669434 3.65762695 -16.3737793 2.74072266 C-6.18072909 -3.36578117 -6.18072909 -3.36578117 0 0 Z " fill="#D0DAFC" transform="translate(190.8125,302.1875)"/>
<path d="M0 0 C2.68481445 1.29101562 2.68481445 1.29101562 5.36328125 2.90625 C6.33201172 3.48503906 7.30074219 4.06382812 8.29882812 4.66015625 C9.29333984 5.26730469 10.28785156 5.87445313 11.3125 6.5 C12.32634766 7.10714844 13.34019531 7.71429688 14.38476562 8.33984375 C21.79977679 12.79977679 21.79977679 12.79977679 23 14 C23.08843793 16.44830426 23.11528752 18.86820599 23.09765625 21.31640625 C23.0962413 22.04746078 23.09482635 22.77851532 23.09336853 23.53172302 C23.08775408 25.87535632 23.07519922 28.21889539 23.0625 30.5625 C23.05748686 32.14778508 23.05292363 33.73307166 23.04882812 35.31835938 C23.03777997 39.2122761 23.02050572 43.10612205 23 47 C19.49641438 48.97883125 15.99092421 50.95424025 12.48364258 52.92651367 C11.29105795 53.59777817 10.09899561 54.26997148 8.9074707 54.94311523 C7.19360118 55.91114075 5.47768503 56.87553993 3.76171875 57.83984375 C2.73006592 58.42113037 1.69841309 59.00241699 0.63549805 59.60131836 C-2 61 -2 61 -5 62 C-7.71142578 60.75244141 -7.71142578 60.75244141 -10.9453125 58.8515625 C-11.51579315 58.51957855 -12.0862738 58.1875946 -12.67404175 57.84555054 C-14.49676331 56.78149296 -16.31068446 55.70331508 -18.125 54.625 C-19.35494229 53.90534947 -20.58540537 53.18658824 -21.81640625 52.46875 C-30.78004498 47.21995502 -30.78004498 47.21995502 -32 46 C-33.79755453 35.71443738 -35.05763173 24.11119533 -32 14 C-25.99011946 6.59197439 -16.74244386 3.20486012 -8 0 C-5.05519772 -1.47240114 -3.16664736 -0.73404374 0 0 Z " fill="#B0D753" transform="translate(431,351)"/>
<path d="M0 0 C2.68481445 1.29101562 2.68481445 1.29101562 5.36328125 2.90625 C6.33201172 3.48503906 7.30074219 4.06382812 8.29882812 4.66015625 C9.29333984 5.26730469 10.28785156 5.87445313 11.3125 6.5 C12.32634766 7.10714844 13.34019531 7.71429688 14.38476562 8.33984375 C21.79977679 12.79977679 21.79977679 12.79977679 23 14 C23.08843793 16.44830426 23.11528752 18.86820599 23.09765625 21.31640625 C23.0962413 22.04746078 23.09482635 22.77851532 23.09336853 23.53172302 C23.08775408 25.87535632 23.07519922 28.21889539 23.0625 30.5625 C23.05748686 32.14778508 23.05292363 33.73307166 23.04882812 35.31835938 C23.03777997 39.2122761 23.02050572 43.10612205 23 47 C19.49641438 48.97883125 15.99092421 50.95424025 12.48364258 52.92651367 C11.29105795 53.59777817 10.09899561 54.26997148 8.9074707 54.94311523 C7.19360118 55.91114075 5.47768503 56.87553993 3.76171875 57.83984375 C2.73006592 58.42113037 1.69841309 59.00241699 0.63549805 59.60131836 C-2 61 -2 61 -5 62 C-7.71142578 60.75244141 -7.71142578 60.75244141 -10.9453125 58.8515625 C-11.51579315 58.51957855 -12.0862738 58.1875946 -12.67404175 57.84555054 C-14.49676331 56.78149296 -16.31068446 55.70331508 -18.125 54.625 C-19.35494229 53.90534947 -20.58540537 53.18658824 -21.81640625 52.46875 C-30.78004498 47.21995502 -30.78004498 47.21995502 -32 46 C-32.0883967 43.6243148 -32.11530305 41.27791326 -32.09765625 38.90234375 C-32.0962413 38.19348526 -32.09482635 37.48462677 -32.09336853 36.75428772 C-32.08775443 34.48198288 -32.07519963 32.20977525 -32.0625 29.9375 C-32.05748681 28.40039204 -32.05292359 26.86328255 -32.04882812 25.32617188 C-32.03778042 21.55074358 -32.02050641 17.77538829 -32 14 C-28.41963885 11.82378432 -24.8268737 9.67024417 -21.22119141 7.53637695 C-19.99752738 6.80803633 -18.77740276 6.07371369 -17.56103516 5.33325195 C-15.80756954 4.26726529 -14.04232171 3.22374253 -12.2734375 2.18359375 C-11.21560059 1.54993896 -10.15776367 0.91628418 -9.06787109 0.26342773 C-5.40471829 -1.24515222 -3.7638614 -1.12619229 0 0 Z " fill="#FB7CA0" transform="translate(217,164)"/>
<path d="M0 0 C2.97934563 1.41600768 5.76234373 3.07266957 8.5625 4.8125 C9.65594727 5.47088867 9.65594727 5.47088867 10.77148438 6.14257812 C12.86159533 7.40868494 14.93849424 8.6877891 17 10 C18.06162354 10.56001709 19.12324707 11.12003418 20.21704102 11.69702148 C23 14 23 14 23.68115234 17.39160156 C23.6802087 18.72498682 23.64665898 20.05862273 23.5859375 21.390625 C23.57744781 22.09523865 23.56895813 22.79985229 23.56021118 23.52581787 C23.52671308 25.76879081 23.45146048 28.00812099 23.375 30.25 C23.34489485 31.77338543 23.31751997 33.29682744 23.29296875 34.8203125 C23.22694019 38.54805187 23.12345129 42.27367025 23 46 C19.39964097 48.1733201 15.78850584 50.32708077 12.16625977 52.46362305 C10.93624753 53.19275318 9.70930713 53.92709192 8.4855957 54.66674805 C6.72352929 55.73056971 4.95117624 56.7750204 3.17578125 57.81640625 C2.11270752 58.45006104 1.04963379 59.08371582 -0.0456543 59.73657227 C-3.4282478 61.18314043 -4.56965055 61.14615941 -8 60 C-8.91434814 59.70601318 -9.82869629 59.41202637 -10.77075195 59.10913086 C-18.66881236 56.06361797 -26.5596528 52.69254526 -32 46 C-33.88483902 40.46018051 -34.17978844 35.31459657 -34.0625 29.5 C-34.0588443 28.78496307 -34.0551886 28.06992615 -34.05142212 27.33322144 C-33.83857659 16.09899343 -33.83857659 16.09899343 -30.13671875 11.87280273 C-27.82784307 10.30517402 -25.54047112 9.14835903 -23 8 C-21.61213016 7.15332115 -20.23391481 6.29055629 -18.8671875 5.41015625 C-17.53852705 4.6240969 -16.20781125 3.84150068 -14.875 3.0625 C-14.21113281 2.65193359 -13.54726563 2.24136719 -12.86328125 1.81835938 C-8.20485421 -0.88462226 -5.37090371 -1.59883572 0 0 Z " fill="#FCCA51" transform="translate(459,212)"/>
<path d="M0 0 C0 6.27 0 12.54 0 19 C-7.89367874 19.39403769 -15.78746343 19.78573432 -23.68145466 20.17345428 C-27.34801168 20.35363106 -31.01451482 20.53478273 -34.6809082 20.71826172 C-38.22751281 20.89570846 -41.77424119 21.07046463 -45.3210659 21.24345398 C-47.31441999 21.34135036 -49.3076411 21.44194261 -51.30085754 21.54260254 C-58.54464623 21.89334321 -65.74772151 22.06487316 -73 22 C-73 15.73 -73 9.46 -73 3 C-63.99597943 1.87449743 -63.99597943 1.87449743 -60.49365234 1.70288086 C-59.70370377 1.66292496 -58.91375519 1.62296906 -58.09986877 1.58180237 C-56.85547279 1.52390785 -56.85547279 1.52390785 -55.5859375 1.46484375 C-54.70103134 1.42177597 -53.81612518 1.37870819 -52.90440369 1.33433533 C-50.06144536 1.19795093 -47.21827228 1.06716336 -44.375 0.9375 C-43.41234222 0.89264465 -42.44968445 0.84778931 -41.45785522 0.80157471 C-27.61742211 0.16178696 -13.85770075 -0.20838648 0 0 Z " fill="#91B0F3" transform="translate(351,258)"/>
<path d="M0 0 C5.02277178 1.49554441 7.96863403 4.49873229 11.625 8.0625 C17.52846904 13.69078742 23.59548527 18.94174041 30 24 C26.68382102 27.50947174 23.43607231 30.18410344 19.3125 32.6875 C15.42235849 35.04662248 15.42235849 35.04662248 12 38 C11.1028125 36.7934375 11.1028125 36.7934375 10.1875 35.5625 C6.91852146 31.63051737 2.9764127 28.63023349 -1.00390625 25.44921875 C-6.560578 20.9068026 -11.9249104 16.0750896 -17 11 C-15.94039062 10.37351562 -14.88078125 9.74703125 -13.7890625 9.1015625 C-12.4009489 8.27619766 -11.01293314 7.45066826 -9.625 6.625 C-8.92632812 6.2125 -8.22765625 5.8 -7.5078125 5.375 C-6.8375 4.97539062 -6.1671875 4.57578125 -5.4765625 4.1640625 C-4.85861816 3.79748535 -4.24067383 3.4309082 -3.60400391 3.05322266 C-1.83209267 1.96740106 -1.83209267 1.96740106 0 0 Z " fill="#6965F6" transform="translate(232,362)"/>
<path d="M0 0 C2.8125 2.4375 2.8125 2.4375 5 5 C5.33 5.33 5.66 5.66 6 6 C6.58968059 13.07616708 6.58968059 13.07616708 4.125 16.9375 C0.89661432 20.07093316 -1.44929709 20.39218693 -5.9609375 20.359375 C-9.38006698 19.7567698 -10.93189052 17.63213933 -13 15 C-14.56935594 11.86128812 -14.35201103 9.46144178 -14 6 C-9.97914728 1.00110202 -6.41389437 -0.76966732 0 0 Z " fill="#6A66F7" transform="translate(340,473)"/>
<path d="M0 0 C3 2.0625 3 2.0625 5 5 C5.73301898 9.61801955 5.71565523 12.58960049 3.0625 16.5 C-0.53787834 19.43908436 -2.32574711 19.76995019 -6.84375 19.46875 C-10.01247216 18.77989736 -11.80517228 17.33200445 -14 15 C-15.57455739 11.85088521 -15.34799118 9.47991184 -15 6 C-11.17175205 -0.42802827 -7.15784821 -1.9571172 0 0 Z " fill="#6965F6" transform="translate(283,453)"/>
<path d="M0 0 C3.6680136 0.87048873 5.09492027 2.41972415 7.15625 5.51171875 C8.16788036 8.27949395 8.52265953 10.58044248 8.15625 13.51171875 C6.1265015 17.23292434 4.96208985 18.87282956 0.9921875 20.27734375 C-1.44907027 20.7182398 -3.38741355 20.87215942 -5.84375 20.51171875 C-8.84375 18.13671875 -8.84375 18.13671875 -10.84375 15.51171875 C-11.17375 15.18171875 -11.50375 14.85171875 -11.84375 14.51171875 C-12.29814818 10.04347 -12.52896764 6.78807164 -9.90625 3.01171875 C-6.32689445 0.08979585 -4.50652681 -0.33798951 0 0 Z " fill="#6A66F7" transform="translate(370.84375,445.48828125)"/>
<path d="M0 0 C2.97 0 5.94 0 9 0 C6.69 5.28 4.38 10.56 2 16 C1.67 16 1.34 16 1 16 C0.67 10.72 0.34 5.44 0 0 Z " fill="#CBD6F8" transform="translate(294,300)"/>
</svg>
