<?xml version="1.0" encoding="UTF-8"?>
<svg version="1.1" xmlns="http://www.w3.org/2000/svg" width="640" height="640">
<path d="M0 0 C211.2 0 422.4 0 640 0 C640 211.2 640 422.4 640 640 C428.8 640 217.6 640 0 640 C0 428.8 0 217.6 0 0 Z " fill="#FEFEFE" transform="translate(0,0)"/>
<path d="M0 0 C4.16990602 1.8145973 8.03096419 4.05488071 11.9375 6.375 C13.03400879 7.00970215 14.13051758 7.6444043 15.26025391 8.29833984 C17.47222181 9.58150777 19.67997952 10.87196297 21.88330078 12.16992188 C24.67806562 13.81096505 27.48728682 15.42080816 30.30859375 17.015625 C31.83117381 17.88463808 33.35334262 18.7543723 34.875 19.625 C35.90741821 20.20773682 35.90741821 20.20773682 36.96069336 20.80224609 C40.43722404 22.82966583 42.94322004 24.52418593 45 28 C45.28001404 30.60890198 45.28001404 30.60890198 45.15014648 33.60375977 C45.09170815 35.29185509 45.09170815 35.29185509 45.03208923 37.01405334 C44.97896072 38.2275798 44.92583221 39.44110626 44.87109375 40.69140625 C44.80389284 43.27141427 44.73953056 45.8514975 44.67773438 48.43164062 C44.57067581 52.49271733 44.44324034 56.55123649 44.25952148 60.60961914 C42.74093559 76.044265 42.74093559 76.044265 47.48071289 90.0793457 C50.2924364 92.95625339 53.53538283 94.96911263 57 97 C58.26519398 98.09793764 59.50385861 99.22866843 60.69140625 100.41015625 C61.63886719 101.28542969 62.58632813 102.16070312 63.5625 103.0625 C64.05556641 103.52076172 64.54863281 103.97902344 65.05664062 104.45117188 C67.29762182 106.51674564 69.45533164 108.30355443 72 110 C72.7206665 109.57589844 73.44133301 109.15179688 74.18383789 108.71484375 C76.88122507 107.13719623 79.58609093 105.57347906 82.29663086 104.01855469 C84.03649971 103.01499699 85.76736592 101.9958834 87.49804688 100.9765625 C88.60341797 100.34492188 89.70878906 99.71328125 90.84765625 99.0625 C91.85836182 98.47597656 92.86906738 97.88945312 93.91040039 97.28515625 C98.07468553 95.55297158 101.7491893 95.24201696 106.06616211 96.69580078 C106.63085205 97.02563965 107.19554199 97.35547852 107.77734375 97.6953125 C108.44427246 98.07469971 109.11120117 98.45408691 109.79833984 98.8449707 C110.85722412 99.47858521 110.85722412 99.47858521 111.9375 100.125 C112.69240723 100.56223389 113.44731445 100.99946777 114.22509766 101.44995117 C115.89594464 102.41972591 117.56308745 103.39590245 119.22705078 104.37744141 C122.2581561 106.151057 125.3124791 107.87975555 128.37109375 109.60546875 C130.53955356 110.84028389 132.70752724 112.07595311 134.875 113.3125 C135.91519287 113.89854004 136.95538574 114.48458008 138.02709961 115.08837891 C139.00557861 115.65347168 139.98405762 116.21856445 140.9921875 116.80078125 C141.86214355 117.29747314 142.73209961 117.79416504 143.62841797 118.3059082 C146.587081 120.41936947 148.18090519 121.80169354 150 125 C150.59955372 128.88380579 150.58421488 132.7285696 150.56640625 136.65234375 C150.57260483 137.78523331 150.57880341 138.91812286 150.58518982 140.08534241 C150.59228567 142.4783543 150.58911817 144.87141559 150.57641602 147.2644043 C150.56256124 150.921337 150.59661586 154.57570562 150.63476562 158.23242188 C150.63571694 160.55989646 150.63385732 162.88737424 150.62890625 165.21484375 C150.64216446 166.30562729 150.65542267 167.39641083 150.66908264 168.52024841 C150.56551747 176.98592086 150.56551747 176.98592086 147.81591797 180.51245117 C145.07464695 182.93405776 142.50344386 184.79904521 139.31640625 186.5859375 C138.23012939 187.2032373 137.14385254 187.82053711 136.0246582 188.45654297 C134.882146 189.08963379 133.73963379 189.72272461 132.5625 190.375 C131.38249481 191.03822665 130.20305298 191.7024566 129.02416992 192.36767578 C126.71994936 193.66670668 124.41277473 194.95988158 122.10351562 196.25 C119.52051644 197.70649293 116.96377018 199.19219942 114.421875 200.71875 C113.79337646 201.09338379 113.16487793 201.46801758 112.51733398 201.85400391 C110.95265919 202.79106104 109.39213406 203.73503809 107.83203125 204.6796875 C104.54600615 206.21165506 101.59235902 206.65105355 98 207 C97.89816406 208.02351562 97.79632813 209.04703125 97.69140625 210.1015625 C96.8785693 216.60712527 95.34837349 222.97860372 93.9375 229.375 C93.38230173 231.90324842 92.82882351 234.43187537 92.27734375 236.9609375 C92.03234131 238.07259277 91.78733887 239.18424805 91.53491211 240.32958984 C90.93453027 242.87293107 90.93453027 242.87293107 91 245 C93.23485109 246.53951907 93.23485109 246.53951907 96.109375 248.08203125 C97.70652344 248.98598633 97.70652344 248.98598633 99.3359375 249.90820312 C101.5950776 251.16830701 103.8554774 252.42615538 106.1171875 253.68164062 C107.18710937 254.28814453 108.25703125 254.89464844 109.359375 255.51953125 C110.34389648 256.06714111 111.32841797 256.61475098 112.34277344 257.17895508 C115.47096061 259.32275774 117.13290514 260.66367123 119 264 C119.57274445 267.82581414 119.53648957 271.60653991 119.49609375 275.46875 C119.49754898 276.58181519 119.49900421 277.69488037 119.50050354 278.8416748 C119.49884568 281.19183981 119.4872972 283.54201581 119.46655273 285.89208984 C119.43760369 289.48712331 119.44594617 293.08068139 119.45898438 296.67578125 C119.45274661 298.96094466 119.44435538 301.24610342 119.43359375 303.53125 C119.43652939 304.60532104 119.43946503 305.67939209 119.44248962 306.78601074 C119.32439273 316.13887183 119.32439273 316.13887183 116 320 C113.33984375 321.9296875 113.33984375 321.9296875 109.9375 323.875 C109.31206299 324.23722656 108.68662598 324.59945313 108.04223633 324.97265625 C106.58003576 325.81747565 105.11449175 326.65652258 103.64648438 327.49121094 C100.52101269 329.27307579 97.40867648 331.07723486 94.296875 332.8828125 C89.65351331 335.57429007 85.00716477 338.26044774 80.35546875 340.9375 C79.37215576 341.50339844 78.38884277 342.06929688 77.37573242 342.65234375 C73.25305819 344.99096895 70.82244001 345.32080542 66 345 C62.97387695 343.74658203 62.97387695 343.74658203 59.98828125 342.0078125 C58.90095703 341.38519531 57.81363281 340.76257813 56.69335938 340.12109375 C55.57767578 339.46238281 54.46199219 338.80367188 53.3125 338.125 C51.07963339 336.83558017 48.8465688 335.54650311 46.61328125 334.2578125 C45.14048706 333.39373779 45.14048706 333.39373779 43.63793945 332.51220703 C41.45396265 331.26023551 39.26587286 330.09419352 37 329 C39.08221802 332.87560026 41.16584281 336.75044223 43.25 340.625 C43.56446075 341.20979126 43.87892151 341.79458252 44.20291138 342.39709473 C48.08243777 349.61010999 51.98352441 356.81028276 55.92358398 363.99047852 C75.39796443 399.4878051 75.39796443 399.4878051 70.09375 418.99609375 C67.72827385 425.43291828 64.56354845 430.89424778 60 436 C59.49984375 436.60328125 58.9996875 437.2065625 58.484375 437.828125 C51.91672022 445.16094344 41.47048616 450.438901 31.59402466 451.18070984 C28.78070252 451.24718437 25.9741932 451.25098671 23.16015625 451.23046875 C22.12040146 451.23001053 21.08064667 451.22955231 20.00938416 451.2290802 C17.81150164 451.22606722 15.61362109 451.21820958 13.41577148 451.20581055 C10.10457505 451.18772975 6.79366222 451.18530004 3.48242188 451.18554688 C1.33333099 451.18062359 -0.81575805 451.17479177 -2.96484375 451.16796875 C-3.93211899 451.16685593 -4.89939423 451.1657431 -5.89598083 451.16459656 C-12.17370697 451.1227554 -18.40087318 450.80146381 -24.66405582 450.37860966 C-31.9872759 449.90283637 -39.30991173 449.7502728 -46.64611435 449.61557388 C-49.12862578 449.56892307 -51.61094176 449.51616252 -54.09329224 449.4616394 C-61.13754595 449.30695454 -68.18178354 449.15479876 -75.2265625 449.02587891 C-79.57009991 448.94594994 -83.9131641 448.85237331 -88.2562294 448.75005722 C-89.89460173 448.71397768 -91.53309158 448.68284548 -93.17165756 448.65701675 C-108.60996396 448.4100622 -122.57276596 445.65993558 -134.37890625 434.81640625 C-143.91853298 424.1274269 -148.51386834 411.35628687 -148.25390625 397.1796875 C-147.19683443 383.94189582 -138.87986676 372.92744096 -132 362 C-130.89574542 360.23312786 -129.79157793 358.46620128 -128.6875 356.69921875 C-120.53944166 343.70680064 -120.53944166 343.70680064 -117.89575195 340.24291992 C-115.69393291 336.47643411 -115.25182693 333.33253509 -115.07421875 329.07421875 C-115.01739677 327.95367851 -115.01739677 327.95367851 -114.95942688 326.8105011 C-114.88819361 325.23681125 -114.82743227 323.662616 -114.77661133 322.08813477 C-114.68797393 319.70026751 -114.52994218 317.32340391 -114.36914062 314.93945312 C-113.90119731 306.62163034 -113.90119731 306.62163034 -116.88916016 299.0144043 C-119.14452036 296.74308308 -121.40824312 294.87046223 -124 293 C-125.34312998 291.82359195 -126.67825344 290.6378833 -128 289.4375 C-128.64582031 288.88964844 -129.29164063 288.34179688 -129.95703125 287.77734375 C-131.45035099 286.47818413 -132.90089114 285.12939092 -134.32421875 283.75390625 C-135.49404297 282.63822266 -135.49404297 282.63822266 -136.6875 281.5 C-137.39261719 280.8090625 -138.09773438 280.118125 -138.82421875 279.40625 C-140.88103551 277.80312695 -140.88103551 277.80312695 -143.234375 277.97265625 C-147.30394961 279.48437676 -150.8680439 281.67642945 -154.5625 283.9375 C-156.06315008 284.8435287 -157.56443171 285.74851237 -159.06640625 286.65234375 C-159.72584229 287.05445068 -160.38527832 287.45655762 -161.06469727 287.87084961 C-165.75221845 290.60577903 -169.50184725 292.13376542 -175 291 C-179.39922175 289.03445465 -183.45431505 286.57117453 -187.5625 284.0625 C-188.72261489 283.36917255 -189.88359113 282.6772844 -191.04541016 281.98681641 C-193.33064091 280.62548932 -195.60863916 279.25397219 -197.88427734 277.87646484 C-200.53812612 276.27816664 -203.20598406 274.71463207 -205.89453125 273.17578125 C-207.22142179 272.40897116 -208.54825152 271.64205585 -209.875 270.875 C-210.98617187 270.23304688 -212.09734375 269.59109375 -213.2421875 268.9296875 C-216.41373065 266.71050575 -217.99740173 265.34677207 -220 262 C-220.60127858 258.10603109 -220.56031244 254.24619508 -220.53125 250.3125 C-220.5350769 249.17723877 -220.53890381 248.04197754 -220.54284668 246.87231445 C-220.54556537 244.47508862 -220.53820731 242.07783311 -220.52148438 239.68066406 C-220.50007587 236.01299858 -220.52128935 232.34729211 -220.546875 228.6796875 C-220.54423172 226.34895401 -220.53910674 224.01822174 -220.53125 221.6875 C-220.53934692 220.59155518 -220.54744385 219.49561035 -220.55578613 218.36645508 C-220.46287355 210.81649131 -220.46287355 210.81649131 -218.28198242 206.96948242 C-215.92747181 204.93740399 -213.66324649 203.33464325 -210.95703125 201.80078125 C-209.48157837 200.95314209 -209.48157837 200.95314209 -207.97631836 200.08837891 C-206.9322583 199.50233887 -205.88819824 198.91629883 -204.8125 198.3125 C-202.64276262 197.07764231 -200.47349454 195.84195968 -198.3046875 194.60546875 C-197.23573242 193.99880371 -196.16677734 193.39213867 -195.06542969 192.76708984 C-192.30697961 191.17696069 -189.58870623 189.54080553 -186.8828125 187.86328125 C-186.12379639 187.39688232 -185.36478027 186.9304834 -184.58276367 186.44995117 C-183.19552224 185.59316737 -181.81491218 184.7255106 -180.44262695 183.8449707 C-176.128412 181.21238832 -173.02340658 180.57330137 -168 181 C-167.98582031 180.44957031 -167.97164062 179.89914062 -167.95703125 179.33203125 C-167.5068576 171.48440946 -165.70283507 164.10545673 -163.7277832 156.52661133 C-163.0931751 154.02684347 -162.53230824 151.5232725 -162 149 C-161.72929687 147.76894531 -161.45859375 146.53789062 -161.1796875 145.26953125 C-162.1962313 141.21787811 -163.17466002 140.85189375 -166.63671875 138.68359375 C-168.6392794 137.57519972 -170.65713709 136.49410443 -172.6875 135.4375 C-174.69729233 134.36381056 -176.70141078 133.27942109 -178.69921875 132.18359375 C-179.59471436 131.71493896 -180.49020996 131.24628418 -181.4128418 130.76342773 C-184.66152443 128.54909965 -187.24026395 126.53487224 -189 123 C-189.72212988 119.06741507 -189.70108159 115.20448907 -189.6640625 111.21484375 C-189.66884613 110.08099747 -189.67362976 108.94715118 -189.67855835 107.77894592 C-189.68195348 105.38769133 -189.67277837 102.99639008 -189.65185547 100.60522461 C-189.62506261 96.94605111 -189.65163243 93.28993837 -189.68359375 89.63085938 C-189.68029007 87.30468074 -189.67388472 84.978504 -189.6640625 82.65234375 C-189.67418365 81.55953598 -189.68430481 80.46672821 -189.69473267 79.34080505 C-189.57807995 71.78144828 -189.57807995 71.78144828 -186.74804688 67.95581055 C-184.31745712 66.22593719 -181.94850162 64.54913252 -179.3671875 63.0546875 C-178.48764404 62.53986816 -177.60810059 62.02504883 -176.7019043 61.49462891 C-175.30258667 60.6929126 -175.30258667 60.6929126 -173.875 59.875 C-171.8995661 58.73467548 -169.92430898 57.59404467 -167.94921875 56.453125 C-166.45914307 55.59557617 -166.45914307 55.59557617 -164.93896484 54.72070312 C-162.14271568 53.08355708 -159.39030423 51.39201951 -156.64453125 49.671875 C-155.38890381 48.90061279 -155.38890381 48.90061279 -154.10791016 48.11376953 C-152.53794648 47.14810093 -150.97817957 46.16557649 -149.43115234 45.16357422 C-144.82111234 42.37555318 -141.5243895 41.38903134 -136.16381836 42.359375 C-132.54986249 43.42933102 -129.58991608 45.15333829 -126.4375 47.1875 C-124.97759912 48.09022027 -123.51659005 48.99114994 -122.0546875 49.890625 C-121.2615918 50.38369141 -120.46849609 50.87675781 -119.65136719 51.38476562 C-116.67337757 53.19898103 -113.65899619 54.93927892 -110.6328125 56.671875 C-109.54556885 57.29553955 -108.4583252 57.9192041 -107.33813477 58.56176758 C-105.1765926 59.79953522 -103.01305455 61.03382473 -100.84741211 62.2644043 C-99.85749268 62.83586182 -98.86757324 63.40731934 -97.84765625 63.99609375 C-96.96086182 64.50325928 -96.07406738 65.0104248 -95.16040039 65.53295898 C-93 67 -93 67 -91 70 C-82.91191135 68.33209364 -75.13580336 65.95463129 -67.26367188 63.47851562 C-66.28591797 63.17494141 -65.30816406 62.87136719 -64.30078125 62.55859375 C-63.42591064 62.28329834 -62.55104004 62.00800293 -61.6496582 61.72436523 C-58.78404662 60.94096253 -55.93587019 60.44289177 -53 60 C-53.01047363 59.08186523 -53.02094727 58.16373047 -53.03173828 57.21777344 C-53.06587215 53.80352254 -53.0909241 50.38945362 -53.10986328 46.97509766 C-53.11990591 45.49883153 -53.13354265 44.02258521 -53.15087891 42.54638672 C-53.17520421 40.42149966 -53.1865004 38.29687615 -53.1953125 36.171875 C-53.20578613 34.8940918 -53.21625977 33.61630859 -53.22705078 32.29980469 C-53.00989342 29.14378432 -52.83630525 27.52844833 -51 25 C-49.08666992 23.54296875 -49.08666992 23.54296875 -46.73046875 22.1875 C-45.85148926 21.67469482 -44.97250977 21.16188965 -44.06689453 20.63354492 C-42.64159424 19.82494019 -42.64159424 19.82494019 -41.1875 19 C-40.21151855 18.43837158 -39.23553711 17.87674316 -38.22998047 17.2980957 C-36.18421508 16.1216902 -34.13631675 14.948987 -32.08642578 13.77978516 C-29.0853352 12.04920848 -26.11641039 10.27357089 -23.15234375 8.48046875 C-21.31005706 7.38254193 -19.46761525 6.28487533 -17.625 5.1875 C-16.77703857 4.66607422 -15.92907715 4.14464844 -15.05541992 3.60742188 C-10.15024523 0.7300057 -5.76627942 -1.52018922 0 0 Z " fill="#082C75" transform="translate(355,94)"/>
<path d="M0 0 C1.2569165 0.02070557 2.51383301 0.04141113 3.80883789 0.06274414 C11.12058643 0.2047699 18.42997823 0.46194162 25.72705078 0.9543457 C31.41788311 1.32041909 37.09640469 1.44492466 42.796875 1.5234375 C44.46623311 1.55116104 46.13558532 1.57924141 47.80493164 1.60766602 C50.32305804 1.65052761 52.84040433 1.6872862 55.3588562 1.70285034 C73.59047833 1.82002866 73.59047833 1.82002866 80.96484375 8.41015625 C81.51269531 9.07917969 82.06054688 9.74820312 82.625 10.4375 C83.19089844 11.10910156 83.75679687 11.78070313 84.33984375 12.47265625 C88.02079406 17.66866436 86.81930465 24.31198608 86.6875 30.375 C86.67493164 31.11427734 86.66236328 31.85355469 86.64941406 32.61523438 C86.60113785 34.97387214 86.52294545 37.32993802 86.4375 39.6875 C86.42348145 40.42750244 86.40946289 41.16750488 86.39501953 41.92993164 C86.10340046 48.41736775 84.23262046 53.75660352 79.65234375 58.46875 C78.98332031 58.9328125 78.31429687 59.396875 77.625 59.875 C76.61759766 60.60203125 76.61759766 60.60203125 75.58984375 61.34375 C73.6875 62.375 73.6875 62.375 70.6875 62.375 C70.34495295 69.92005379 70.05559359 77.46566335 69.83003902 85.01509094 C69.7236561 88.52268069 69.60049935 92.02782948 69.43579102 95.53320312 C68.20890874 118.56995698 68.20890874 118.56995698 78.6875 138.375 C79.3475 138.705 80.0075 139.035 80.6875 139.375 C80.66131592 138.46733887 80.63513184 137.55967773 80.6081543 136.62451172 C80.52261186 133.2361649 80.46010048 129.84897554 80.4128418 126.45996094 C80.38779471 124.99721093 80.35374608 123.53458488 80.31030273 122.07226562 C80.24920644 119.96192781 80.22119565 117.85325248 80.19921875 115.7421875 C80.17303467 114.47487793 80.14685059 113.20756836 80.11987305 111.90185547 C80.84823238 107.37631617 82.43702647 105.55484178 85.6875 102.375 C88.31201172 100.55151367 88.31201172 100.55151367 91.1171875 99.04296875 C92.15302979 98.47594238 93.18887207 97.90891602 94.25610352 97.32470703 C95.34721436 96.74317871 96.4383252 96.16165039 97.5625 95.5625 C99.82027303 94.33695863 102.07678862 93.10909785 104.33203125 91.87890625 C105.42338379 91.28480957 106.51473633 90.69071289 107.63916016 90.07861328 C110.27321635 88.60652902 112.8385784 87.07947887 115.38671875 85.46484375 C116.05396973 85.04243408 116.7212207 84.62002441 117.40869141 84.18481445 C119.11543731 83.08658615 120.81022757 81.96983774 122.50390625 80.8515625 C126.43859847 79.02663776 129.4861169 78.43627135 133.6875 79.375 C137.5407614 81.07204562 141.08369067 83.20663715 144.6875 85.375 C146.61388808 86.45382944 148.54359803 87.52674841 150.4765625 88.59375 C152.42236258 89.68663235 154.36767392 90.78038532 156.3125 91.875 C157.77042969 92.68904297 157.77042969 92.68904297 159.2578125 93.51953125 C176.39148076 103.16873421 176.39148076 103.16873421 179.6875 108.375 C180.06845093 110.75852966 180.06845093 110.75852966 180.07568359 113.43139648 C180.08514008 114.43601425 180.09459656 115.44063202 180.1043396 116.47569275 C180.09523056 118.09454124 180.09523056 118.09454124 180.0859375 119.74609375 C180.08880768 120.86057388 180.09167786 121.97505402 180.09463501 123.12330627 C180.09667582 125.47942615 180.09114481 127.83556296 180.07861328 130.19165039 C180.06257578 133.79547107 180.07845444 137.3981676 180.09765625 141.00195312 C180.09567353 143.29166914 180.09182925 145.58138446 180.0859375 147.87109375 C180.09201019 148.94830185 180.09808289 150.02550995 180.1043396 151.13536072 C180.01629324 160.51839275 180.01629324 160.51839275 176.6875 164.375 C174.02734375 166.3046875 174.02734375 166.3046875 170.625 168.25 C169.99956299 168.61222656 169.37412598 168.97445312 168.72973633 169.34765625 C167.26753576 170.19247565 165.80199175 171.03152258 164.33398438 171.86621094 C161.20851269 173.64807579 158.09617648 175.45223486 154.984375 177.2578125 C150.34101331 179.94929007 145.69466477 182.63544774 141.04296875 185.3125 C140.05965576 185.87839844 139.07634277 186.44429687 138.06323242 187.02734375 C133.94055819 189.36596895 131.50994001 189.69580542 126.6875 189.375 C123.66137695 188.12158203 123.66137695 188.12158203 120.67578125 186.3828125 C119.58845703 185.76019531 118.50113281 185.13757813 117.38085938 184.49609375 C116.26517578 183.83738281 115.14949219 183.17867187 114 182.5 C111.76713339 181.21058017 109.5340688 179.92150311 107.30078125 178.6328125 C106.31891846 178.0567627 105.33705566 177.48071289 104.32543945 176.88720703 C102.14146265 175.63523551 99.95337286 174.46919352 97.6875 173.375 C99.76971802 177.25060026 101.85334281 181.12544223 103.9375 185 C104.25196075 185.58479126 104.56642151 186.16958252 104.89041138 186.77209473 C108.76993777 193.98510999 112.67102441 201.18528276 116.61108398 208.36547852 C136.08546443 243.8628051 136.08546443 243.8628051 130.78125 263.37109375 C128.41577385 269.80791828 125.25104845 275.26924778 120.6875 280.375 C120.18734375 280.97828125 119.6871875 281.5815625 119.171875 282.203125 C112.60422022 289.53594344 102.15798616 294.813901 92.28152466 295.55570984 C89.46820252 295.62218437 86.6616932 295.62598671 83.84765625 295.60546875 C82.80790146 295.60501053 81.76814667 295.60455231 80.69688416 295.6040802 C78.49900164 295.60106722 76.30112109 295.59320958 74.10327148 295.58081055 C70.79207505 295.56272975 67.48116222 295.56030004 64.16992188 295.56054688 C62.02083099 295.55562359 59.87174195 295.54979177 57.72265625 295.54296875 C56.75538101 295.54185593 55.78810577 295.5407431 54.79151917 295.53959656 C48.51379303 295.4977554 42.28662682 295.17646381 36.02344418 294.75360966 C28.7002241 294.27783637 21.37758827 294.1252728 14.04138565 293.99057388 C11.55887422 293.94392307 9.07655824 293.89116252 6.59420776 293.8366394 C-0.45004595 293.68195454 -7.49428354 293.52979876 -14.5390625 293.40087891 C-18.88259991 293.32094994 -23.2256641 293.22737331 -27.5687294 293.12505722 C-29.20710173 293.08897768 -30.84559158 293.05784548 -32.48415756 293.03201675 C-47.92246396 292.7850622 -61.88526596 290.03493558 -73.69140625 279.19140625 C-83.23103298 268.5024269 -87.82636834 255.73128687 -87.56640625 241.5546875 C-86.50933443 228.31689582 -78.19236676 217.30244096 -71.3125 206.375 C-70.20824542 204.60812786 -69.10407793 202.84120128 -68 201.07421875 C-59.83565916 188.05583751 -59.83565916 188.05583751 -57.1796875 184.59936523 C-54.91617365 180.69060119 -54.82838451 178.23912639 -54.84375 173.74609375 C-54.83317566 172.67791161 -54.83317566 172.67791161 -54.8223877 171.58815002 C-54.80046979 169.32922847 -54.80332984 167.07149591 -54.8125 164.8125 C-54.82457311 161.83139409 -54.81079928 158.85204602 -54.78125 155.87109375 C-54.78576172 154.55294678 -54.79027344 153.2347998 -54.79492188 151.87670898 C-54.23224004 147.79242476 -53.22204688 146.24033176 -50.3125 143.375 C-48.38061523 142.00048828 -48.38061523 142.00048828 -46.37109375 140.9453125 C-45.62754639 140.54610596 -44.88399902 140.14689941 -44.11791992 139.7355957 C-43.33650635 139.32784912 -42.55509277 138.92010254 -41.75 138.5 C-40.12905247 137.62322732 -38.50925709 136.74432121 -36.890625 135.86328125 C-35.7140332 135.22640381 -35.7140332 135.22640381 -34.51367188 134.57666016 C-31.63745748 133.00648189 -28.80352918 131.38417135 -26 129.6875 C-25.19949219 129.20925781 -24.39898437 128.73101562 -23.57421875 128.23828125 C-19.20431252 124.63820306 -16.59234986 121.08563005 -15.66894531 115.44116211 C-15.63486757 114.01193103 -15.62662237 112.58191246 -15.640625 111.15234375 C-15.6281926 110.37722946 -15.61576019 109.60211517 -15.60295105 108.80351257 C-15.56735018 106.30619639 -15.5648655 103.81004693 -15.5625 101.3125 C-15.54311697 99.59876328 -15.52105328 97.88505483 -15.49633789 96.17138672 C-15.44845075 92.79218097 -15.40990271 89.4130775 -15.37744141 86.03369141 C-15.30773207 80.01586066 -15.05685897 74.0100079 -14.75 68 C-14.70584961 67.09886475 -14.66169922 66.19772949 -14.61621094 65.26928711 C-14.51858869 63.30434182 -14.41625019 61.33963126 -14.3125 59.375 C-14.93503662 59.23400879 -15.55757324 59.09301758 -16.19897461 58.94775391 C-18.63365612 58.28796844 -19.9470964 57.36305581 -21.875 55.75 C-22.45378906 55.28335938 -23.03257812 54.81671875 -23.62890625 54.3359375 C-28.246065 48.95817952 -28.75950969 43.53224109 -28.5625 36.75 C-28.54719238 35.96310791 -28.53188477 35.17621582 -28.51611328 34.36547852 C-28.47963692 32.77843384 -28.43501715 31.19155322 -28.38183594 29.60498047 C-28.31992113 27.61367802 -28.30152689 25.62113202 -28.2890625 23.62890625 C-28.06354813 16.26499484 -26.72471696 10.63316904 -21.3125 5.375 C-14.75349462 -0.39040023 -8.4277934 -0.26860362 0 0 Z " fill="#072C76" transform="translate(294.3125,249.625)"/>
<path d="M0 0 C21.78 0.495 21.78 0.495 44 1 C43.79117188 5.29773438 43.58234375 9.59546875 43.3671875 14.0234375 C41.52257027 57.78422333 41.52257027 57.78422333 59.67041016 96.72216797 C63.21111687 101.60192 65.99619122 106.9010987 68.875 112.1875 C69.91122635 114.00552571 70.95022984 115.82197172 71.9921875 117.63671875 C75.66472747 124.11648465 79.06267933 130.73323805 82.46875 137.35571289 C86.1014586 144.38027094 89.94609205 151.26244019 93.875 158.125 C95.92792056 161.74375851 97.97018419 165.36823238 100 169 C100.3801123 169.67804688 100.76022461 170.35609375 101.15185547 171.0546875 C105.49714008 178.96060309 107.55013264 185.95755961 106 195 C103.82511623 201.27663824 99.44173433 207.15994616 94 211 C88.03759496 213.64088446 83.38091541 214.41514613 76.90625 214.2421875 C75.56125427 214.22404495 75.56125427 214.22404495 74.18908691 214.20553589 C71.12533185 214.15662837 68.06308022 214.08057686 65 214 C63.31849854 213.95993835 63.31849854 213.95993835 61.60302734 213.91906738 C52.56722844 213.69967634 43.53358085 213.42013037 34.5 213.125 C33.45158998 213.09083166 33.45158998 213.09083166 32.38199997 213.05597305 C25.87068356 212.84357844 19.35939517 212.63036035 12.84825134 212.41273499 C4.59939591 212.1387207 -3.6492045 211.89806164 -11.90011597 211.69354248 C-16.7694351 211.57013733 -21.63812238 211.42855817 -26.50683594 211.28338623 C-28.77306027 211.22004581 -31.03952562 211.16475744 -33.30615234 211.11798096 C-36.44341273 211.05206474 -39.57856467 210.95706582 -42.71484375 210.85546875 C-43.61617538 210.84387222 -44.51750702 210.8322757 -45.44615173 210.82032776 C-53.61372798 210.50167845 -60.80589869 207.68931844 -66.4375 201.625 C-72.28980982 193.84955155 -73.25147648 186.65883126 -72 177 C-70.5920156 172.9186275 -68.38024139 169.58605106 -66 166 C-65.14863013 164.64816501 -64.3012848 163.29379068 -63.45703125 161.9375 C-61.45378946 158.72897961 -59.43275208 155.53265891 -57.3984375 152.34375 C-53.79406069 146.68784524 -50.23812046 141.00225971 -46.6875 135.3125 C-46.05787354 134.30421143 -45.42824707 133.29592285 -44.77954102 132.25708008 C-43.49398881 130.19833698 -42.20858908 128.13949866 -40.92333984 126.08056641 C-38.40575455 122.0482116 -35.88626144 118.01705112 -33.36645508 113.98608398 C-32.12511447 112.00010138 -30.88406486 110.01393684 -29.64331055 108.02758789 C-26.42401166 102.87426154 -23.20005564 97.72393254 -19.96875 92.578125 C-19.30423828 91.51851563 -18.63972656 90.45890625 -17.95507812 89.3671875 C-16.70009203 87.36623065 -15.44370308 85.36615258 -14.18554688 83.3671875 C-13.05866946 81.56921996 -11.94177836 79.7649356 -10.83729553 77.953125 C-9.65923558 76.05960366 -8.44046346 74.1904709 -7.17247009 72.35595703 C-1.84946629 64.24212507 -0.93435101 57.62500295 -0.87890625 48.046875 C-0.84699057 46.65148045 -0.81209871 45.25615114 -0.7743988 43.86090088 C-0.68415279 40.2312348 -0.63369784 36.60212569 -0.59222412 32.97161865 C-0.54243191 29.25008521 -0.4544073 25.52945551 -0.36914062 21.80859375 C-0.20529636 14.53876301 -0.1041881 7.27190395 0 0 Z " fill="#FDFDFE" transform="translate(300,311)"/>
<path d="M0 0 C0.061875 0.61875 0.12375 1.2375 0.1875 1.875 C0.5896875 2.926875 0.5896875 2.926875 1 4 C2.65149722 4.7034054 4.32159602 5.36346068 6 6 C7.76648885 6.96015497 9.51439162 7.95500087 11.24609375 8.9765625 C12.73979492 9.85417236 12.73979492 9.85417236 14.26367188 10.74951172 C15.31103516 11.36842285 16.35839844 11.98733398 17.4375 12.625 C18.51193359 13.25293457 19.58636719 13.88086914 20.69335938 14.52783203 C25.28987606 17.21467474 29.87758581 19.90953312 34.41015625 22.703125 C35.03156494 23.07872559 35.65297363 23.45432617 36.29321289 23.84130859 C37.86961609 24.79603484 39.43533351 25.7683456 41 26.7421875 C44.87792242 28.36808726 47.92350157 28.91988724 52 28 C56.10906742 26.12194735 59.90888206 23.80822821 63.75 21.4375 C65.77973611 20.19597384 67.81594887 18.96495614 69.859375 17.74609375 C70.75108398 17.19622803 71.64279297 16.6463623 72.56152344 16.07983398 C75 15 75 15 77.1159668 15.15283203 C79.25338166 16.11393474 80.59772194 17.18338532 82.28515625 18.80859375 C82.89359375 19.38617432 83.50203125 19.96375488 84.12890625 20.55883789 C84.76699219 21.17879639 85.40507812 21.79875488 86.0625 22.4375 C87.39604736 23.71728056 88.73069255 24.99591812 90.06640625 26.2734375 C90.72656738 26.90604492 91.38672852 27.53865234 92.06689453 28.19042969 C93.82803323 29.83902277 95.62286306 31.41949056 97.46484375 32.9765625 C98.46644531 33.82992187 99.46804688 34.68328125 100.5 35.5625 C101.3971875 36.30628906 102.294375 37.05007812 103.21875 37.81640625 C103.8065625 38.53699219 104.394375 39.25757813 105 40 C104.72618584 41.67747271 104.38358935 43.34417751 104 45 C103.89882026 46.72134591 103.84228991 48.4457128 103.82299805 50.16992188 C103.81016281 51.17446411 103.79732758 52.17900635 103.78410339 53.21398926 C103.77671646 54.2880603 103.76932953 55.36213135 103.76171875 56.46875 C103.74961113 58.13834778 103.74961113 58.13834778 103.73725891 59.8416748 C103.72345053 62.19179744 103.71271392 64.54193985 103.70483398 66.89208984 C103.68756228 70.48703627 103.64363922 74.08107667 103.59960938 77.67578125 C103.58948684 79.96093075 103.58096937 82.24608805 103.57421875 84.53125 C103.54795662 86.14235657 103.54795662 86.14235657 103.52116394 87.78601074 C103.52295157 93.646442 103.52295157 93.646442 105.67407227 98.99487305 C108.21736495 101.18738515 110.7208529 102.88899607 113.640625 104.55078125 C114.71054687 105.16630859 115.78046875 105.78183594 116.8828125 106.41601562 C118.54957031 107.35477539 118.54957031 107.35477539 120.25 108.3125 C121.93996094 109.28026367 121.93996094 109.28026367 123.6640625 110.26757812 C126.43767528 111.85417866 129.2162813 113.43122014 132 115 C130.77918476 121.19826374 129.54387634 127.39293217 128.27734375 133.58203125 C127.54166065 137.19743323 126.84918508 140.79850275 126.31640625 144.44921875 C126.12949219 145.57972656 125.94257813 146.71023438 125.75 147.875 C125.62109375 148.82117188 125.4921875 149.76734375 125.359375 150.7421875 C123.39545551 154.00409975 120.97472721 154.23358975 117.41650391 155.24365234 C113.70621524 156.40494496 110.60405481 158.34157237 107.3125 160.375 C105.84804256 161.26105546 104.38317624 162.14643538 102.91796875 163.03125 C102.13728027 163.505625 101.3565918 163.98 100.55224609 164.46875 C97.7567029 166.14596895 94.93804264 167.77874758 92.11328125 169.40625 C91.11965576 169.98197754 90.12603027 170.55770508 89.10229492 171.15087891 C87.14603732 172.28372771 85.18664348 173.41118116 83.22387695 174.53271484 C82.32757568 175.05559082 81.43127441 175.5784668 80.5078125 176.1171875 C79.71004395 176.57722168 78.91227539 177.03725586 78.09033203 177.51123047 C75.7125605 179.20471923 74.41397946 180.43490155 73 183 C72.49513031 186.38526241 72.49513031 186.38526241 72.48828125 190.171875 C72.47033005 190.8542926 72.45237885 191.53671021 72.43388367 192.23980713 C72.37989617 194.4098094 72.34592417 196.57959325 72.3125 198.75 C72.27931648 200.22529074 72.24482585 201.70055269 72.20898438 203.17578125 C72.12417842 206.78364427 72.05731163 210.39158362 72 214 C67.72886943 212.57628981 66.47783102 209.51808243 64.3125 205.8125 C63.89677734 205.17119141 63.48105469 204.52988281 63.05273438 203.86914062 C59.0978277 197.09579471 59.64837828 190.64188005 60 183 C60.03563595 181.62843794 60.06703414 180.2567601 60.09448242 178.88500977 C60.16720395 175.28149324 60.26442025 171.67928366 60.37231445 168.07666016 C60.43764185 165.87020903 60.49728614 163.66365019 60.55664062 161.45703125 C60.6730448 157.30311634 60.83004979 153.15208172 61 149 C61.0410083 147.79883545 61.0820166 146.5976709 61.12426758 145.36010742 C61.18122803 144.28349854 61.23818848 143.20688965 61.296875 142.09765625 C61.34038086 141.16445557 61.38388672 140.23125488 61.42871094 139.26977539 C62 137 62 137 63.8137207 135.51147461 C65.8125 134.5625 65.8125 134.5625 67.99609375 133.78125 C71.71851805 132.33001246 73.34680261 129.30879624 75.0625 125.87109375 C76.29225899 122.10495683 76.46838 118.42624439 76.625 114.5 C76.66004639 113.70553467 76.69509277 112.91106934 76.73120117 112.0925293 C76.79803037 110.48555408 76.85985807 108.8783625 76.91650391 107.27099609 C76.9912332 105.23844675 77.09340712 103.20694968 77.19921875 101.17578125 C77.42494907 94.47392589 77.21868686 90.32886761 73 85 C67.3228785 79.19844844 62.02966767 77.71312892 54.0859375 77.62109375 C53.32330093 77.6044165 52.56066437 77.58773926 51.7749176 77.57055664 C49.30836735 77.5179546 46.84177867 77.47781572 44.375 77.4375 C40.98818513 77.36885738 37.60152056 77.29386037 34.21484375 77.21875 C33.39357498 77.2013829 32.57230621 77.18401581 31.72615051 77.16612244 C26.1200964 77.04261656 20.53317258 76.80385228 14.9375 76.4375 C7.08832353 75.99093448 -0.76495574 75.72076271 -8.625 75.5625 C-9.81230713 75.51601318 -10.99961426 75.46952637 -12.22290039 75.42163086 C-20.09726186 75.32386475 -25.12235733 76.61641527 -31 82 C-35.94664251 88.05963708 -35.8050074 94.38748892 -36 102 C-36.04664795 103.10021484 -36.04664795 103.10021484 -36.09423828 104.22265625 C-36.19237648 106.58586356 -36.25688043 108.94793647 -36.3125 111.3125 C-36.3424707 112.05282471 -36.37244141 112.79314941 -36.40332031 113.5559082 C-36.46676319 119.72021104 -34.82595978 125.01404513 -30.51660156 129.56738281 C-28.09611523 131.66753267 -26.05055977 132.98314674 -23 134 C-22.93904578 140.02769487 -22.94435017 146.05270192 -22.98339844 152.08056641 C-22.99546646 154.9296855 -22.99602123 157.77744411 -22.98535156 160.62646484 C-22.97205426 164.83875856 -22.99794096 169.04961274 -23.04373169 173.26165771 C-23.05616692 174.95175684 -23.0565422 176.64199101 -23.04440308 178.33209229 C-22.94119002 194.98694565 -22.94119002 194.98694565 -29.06860352 201.37719727 C-31.78223426 203.6572508 -34.29047795 205.40058948 -37.4375 207.0625 C-38.48808594 207.63097656 -39.53867187 208.19945312 -40.62109375 208.78515625 C-41.40613281 209.18605469 -42.19117188 209.58695313 -43 210 C-48.2905685 206.93703929 -52.20918536 202.890946 -56.46875 198.53515625 C-58.70334207 196.29711573 -60.98279555 194.19140049 -63.375 192.125 C-64.01050781 191.57328125 -64.64601562 191.0215625 -65.30078125 190.453125 C-66.71048291 189.24758703 -68.1346912 188.05903657 -69.5625 186.875 C-70.036875 186.25625 -70.51125 185.6375 -71 185 C-70.70869161 183.32547669 -70.36863543 181.65921572 -70 180 C-69.90369859 178.30917996 -69.85228071 176.61538214 -69.83886719 174.921875 C-69.82925964 173.93735352 -69.8196521 172.95283203 -69.80975342 171.93847656 C-69.8033786 170.36018066 -69.8033786 170.36018066 -69.796875 168.75 C-69.78832489 167.11369629 -69.78832489 167.11369629 -69.77960205 165.44433594 C-69.77017075 163.14128586 -69.76362551 160.8382224 -69.75976562 158.53515625 C-69.75003531 155.01278289 -69.71898368 151.49098715 -69.6875 147.96875 C-69.6809719 145.72917012 -69.67572067 143.48958609 -69.671875 141.25 C-69.6595282 140.19780273 -69.6471814 139.14560547 -69.63446045 138.06152344 C-69.53935729 130.96880627 -69.53935729 130.96880627 -73 125 C-75.53564387 123.11498424 -75.53564387 123.11498424 -78.5078125 121.5546875 C-79.57644531 120.95269531 -80.64507812 120.35070312 -81.74609375 119.73046875 C-82.86113281 119.11816406 -83.97617188 118.50585938 -85.125 117.875 C-87.3405256 116.65150079 -89.55171981 115.42011447 -91.7578125 114.1796875 C-93.22951904 113.37120361 -93.22951904 113.37120361 -94.73095703 112.54638672 C-97 111 -97 111 -98 108 C-97.30921208 102.80109769 -96.2309411 97.68847613 -95.15185547 92.55761719 C-94.80132943 90.85599031 -94.46789382 89.15075112 -94.15185547 87.44238281 C-91.52567422 73.26264712 -91.52567422 73.26264712 -88.09106445 70.42016602 C-85.90234375 69.75390625 -85.90234375 69.75390625 -83.52929688 69.41064453 C-80.44959555 68.91063897 -78.35954445 67.75523125 -75.65234375 66.21484375 C-74.72454102 65.68882568 -73.79673828 65.16280762 -72.84082031 64.62084961 C-71.88272461 64.06534424 -70.92462891 63.50983887 -69.9375 62.9375 C-68.43654785 62.07620483 -68.43654785 62.07620483 -66.90527344 61.19750977 C-60.8118192 57.6810423 -54.74709366 54.11614052 -48.75 50.4375 C-48.101521 50.0448999 -47.45304199 49.6522998 -46.78491211 49.24780273 C-43.454647 47.16384701 -40.97878395 45.40569148 -39 42 C-38.49513031 38.61473759 -38.49513031 38.61473759 -38.48828125 34.828125 C-38.47033005 34.1457074 -38.45237885 33.46328979 -38.43388367 32.76019287 C-38.37989617 30.5901906 -38.34592417 28.42040675 -38.3125 26.25 C-38.27931648 24.77470926 -38.24482585 23.29944731 -38.20898438 21.82421875 C-38.12417842 18.21635573 -38.05731163 14.60841638 -38 11 C-33.07212137 9.427944 -28.14250303 7.86151601 -23.21118164 6.30029297 C-21.53360682 5.76831171 -19.85651918 5.23479164 -18.17993164 4.69970703 C-15.77095725 3.93117362 -13.36028918 3.16817824 -10.94921875 2.40625 C-9.82407112 2.04533264 -9.82407112 2.04533264 -8.67619324 1.67712402 C-5.67462918 0.73347017 -3.1666551 0 0 0 Z " fill="#FDFDFE" transform="translate(303,175)"/>
<path d="M0 0 C0.495 0.680625 0.99 1.36125 1.5 2.0625 C3.95519779 4.9473574 6.49838572 7.24388081 9.37109375 9.69140625 C13.64764064 13.44688799 17.76377563 17.37549682 21.89575195 21.28881836 C22.52570068 21.88186768 23.15564941 22.47491699 23.8046875 23.0859375 C24.37171387 23.6226709 24.93874023 24.1594043 25.52294922 24.71240234 C26.98881979 26.09883887 26.98881979 26.09883887 29 27 C31.55201702 25.80212837 31.55201702 25.80212837 34.41796875 24.03515625 C35.50787109 23.40029297 36.59777344 22.76542969 37.72070312 22.11132812 C40.01774601 20.75804413 42.30722182 19.3932336 44.59570312 18.02539062 C45.69205078 17.38923828 46.78839844 16.75308594 47.91796875 16.09765625 C48.91594482 15.50476807 49.9139209 14.91187988 50.94213867 14.30102539 C55.09007599 12.53620639 58.75429191 12.24373531 63.06616211 13.69580078 C63.63085205 14.02563965 64.19554199 14.35547852 64.77734375 14.6953125 C65.77773682 15.26439331 65.77773682 15.26439331 66.79833984 15.8449707 C67.5042627 16.26738037 68.21018555 16.68979004 68.9375 17.125 C69.69240723 17.56223389 70.44731445 17.99946777 71.22509766 18.44995117 C72.89594464 19.41972591 74.56308745 20.39590245 76.22705078 21.37744141 C79.2581561 23.151057 82.3124791 24.87975555 85.37109375 26.60546875 C87.53955356 27.84028389 89.70752724 29.07595311 91.875 30.3125 C92.91519287 30.89854004 93.95538574 31.48458008 95.02709961 32.08837891 C96.00557861 32.65347168 96.98405762 33.21856445 97.9921875 33.80078125 C98.86214355 34.29747314 99.73209961 34.79416504 100.62841797 35.3059082 C103.587081 37.41936947 105.18090519 38.80169354 107 42 C107.59955372 45.88380579 107.58421488 49.7285696 107.56640625 53.65234375 C107.57260483 54.78523331 107.57880341 55.91812286 107.58518982 57.08534241 C107.59228567 59.4783543 107.58911817 61.87141559 107.57641602 64.2644043 C107.56256124 67.921337 107.59661586 71.57570562 107.63476562 75.23242188 C107.63571694 77.55989646 107.63385732 79.88737424 107.62890625 82.21484375 C107.64216446 83.30562729 107.65542267 84.39641083 107.66908264 85.52024841 C107.56551747 93.98592086 107.56551747 93.98592086 104.81591797 97.51245117 C102.07464695 99.93405776 99.50344386 101.79904521 96.31640625 103.5859375 C95.23012939 104.2032373 94.14385254 104.82053711 93.0246582 105.45654297 C91.882146 106.08963379 90.73963379 106.72272461 89.5625 107.375 C88.38249481 108.03822665 87.20305298 108.7024566 86.02416992 109.36767578 C83.71994936 110.66670668 81.41277473 111.95988158 79.10351562 113.25 C76.52051644 114.70649293 73.96377018 116.19219942 71.421875 117.71875 C70.79337646 118.09338379 70.16487793 118.46801758 69.51733398 118.85400391 C67.95265919 119.79106104 66.39213406 120.73503809 64.83203125 121.6796875 C61.54600615 123.21165506 58.59235902 123.65105355 55 124 C54.89558594 125.02351563 54.79117188 126.04703125 54.68359375 127.1015625 C53.86900646 133.59821823 52.4280101 139.97642271 51.0625 146.375 C50.79759766 147.65761719 50.53269531 148.94023437 50.25976562 150.26171875 C50.00001953 151.48246094 49.74027344 152.70320312 49.47265625 153.9609375 C49.23812744 155.07259277 49.00359863 156.18424805 48.76196289 157.32958984 C48 160 48 160 46 162 C45.16597656 161.44570313 44.33195312 160.89140625 43.47265625 160.3203125 C37.1383248 156.20870239 31.61241519 153.03219189 24 152 C24 151.67 24 151.34 24 151 C25.65 151 27.3 151 29 151 C29.03665771 150.43474609 29.07331543 149.86949219 29.11108398 149.28710938 C29.71335808 141.83647997 31.30602887 134.75410349 33.0625 127.5 C33.61771022 125.17751881 34.17118903 122.8546228 34.72265625 120.53125 C34.96765869 119.51611328 35.21266113 118.50097656 35.46508789 117.45507812 C36.07096182 115.09308691 36.07096182 115.09308691 36 113 C35.3294458 112.6376123 34.6588916 112.27522461 33.96801758 111.90185547 C30.90895751 110.23914456 27.8608107 108.55733104 24.8125 106.875 C23.22985352 106.02035156 23.22985352 106.02035156 21.61523438 105.1484375 C20.08286133 104.29765625 20.08286133 104.29765625 18.51953125 103.4296875 C17.58214111 102.91647949 16.64475098 102.40327148 15.67895508 101.87451172 C12.43246417 99.60288526 9.76810795 97.57256218 8 94 C7.32303759 90.13414244 7.39353387 86.34857276 7.4765625 82.43359375 C7.48126556 81.32194351 7.48596863 80.21029327 7.49081421 79.06495667 C7.51211589 75.52183442 7.56870142 71.98022047 7.625 68.4375 C7.64151253 66.05014435 7.6558592 63.66277267 7.66796875 61.27539062 C7.70187659 56.90141336 7.73696899 52.52761069 7.80712891 48.15405273 C7.81998932 47.2772435 7.83284973 46.40043427 7.84609985 45.49705505 C8 43 8 43 8.59158325 40.29621887 C9.28339077 37.9482752 9.28339077 37.9482752 7.72753906 36.10644531 C7.08010742 35.51959961 6.43267578 34.93275391 5.765625 34.328125 C5.05075928 33.66748047 4.33589355 33.00683594 3.59936523 32.32617188 C2.82407471 31.64103516 2.04878418 30.95589844 1.25 30.25 C0.08803101 29.19135742 0.08803101 29.19135742 -1.09741211 28.11132812 C-6.89533103 22.86774153 -12.82759452 17.79927856 -19 13 C-14.94703532 9.74333569 -10.41153611 7.36109264 -5.86914062 4.87304688 C-2.33175226 3.06449512 -2.33175226 3.06449512 0 0 Z " fill="#082C77" transform="translate(398,177)"/>
<path d="M0 0 C2.0757836 1.02288043 4.04065011 2.1549801 6.02197266 3.35058594 C6.76906494 3.7852417 7.51615723 4.21989746 8.28588867 4.66772461 C9.95395151 5.64315573 11.61702888 6.62714635 13.27587891 7.61816406 C16.40480341 9.47854685 19.55637718 11.29711739 22.70947266 13.11621094 C24.98127119 14.44268426 27.25211171 15.77079975 29.52197266 17.10058594 C30.61823975 17.73424072 31.71450684 18.36789551 32.84399414 19.02075195 C33.87081299 19.63104248 34.89763184 20.24133301 35.95556641 20.87011719 C36.87265381 21.40870361 37.78974121 21.94729004 38.73461914 22.50219727 C41.60213333 24.68150805 42.7321502 25.91897333 44.08447266 29.28808594 C44.49350873 33.04200955 44.45686564 36.76555817 44.41259766 40.53808594 C44.41072449 41.62895508 44.40885132 42.71982422 44.40692139 43.84375 C44.40020816 46.14684106 44.38630821 48.44992085 44.36572266 50.75292969 C44.3345868 54.27517317 44.32475107 57.79696849 44.31884766 61.31933594 C44.30967624 63.55892472 44.29930002 65.79850895 44.28759766 68.03808594 C44.28334778 69.0902832 44.2790979 70.14248047 44.27471924 71.2265625 C44.26511169 72.21108398 44.25550415 73.19560547 44.24560547 74.20996094 C44.23877747 75.07202148 44.23194946 75.93408203 44.22491455 76.82226562 C44.08447266 79.28808594 44.08447266 79.28808594 43.47503662 81.96728516 C43.34615051 82.73314941 43.2172644 83.49901367 43.08447266 84.28808594 C44.65127714 86.6234519 44.65127714 86.6234519 47.02197266 88.66308594 C47.85599609 89.44296875 48.69001953 90.22285156 49.54931641 91.02636719 C50.38591797 91.77273438 51.22251953 92.51910156 52.08447266 93.28808594 C53.10734375 94.20654297 53.10734375 94.20654297 54.15087891 95.14355469 C55.43359644 96.275974 56.72394553 97.39981062 58.02197266 98.51464844 C60.39967217 100.55910976 62.74277737 102.64001357 65.08447266 104.72558594 C65.84759766 105.40492188 66.61072266 106.08425781 67.39697266 106.78417969 C67.95384766 107.28046875 68.51072266 107.77675781 69.08447266 108.28808594 C66.03907177 111.62772846 62.89720256 113.7168582 58.95947266 115.91308594 C54.74088107 118.22995497 54.74088107 118.22995497 51.08447266 121.28808594 C50.45541016 120.64742188 49.82634766 120.00675781 49.17822266 119.34667969 C44.61689126 114.73726197 40.04399259 110.22017973 35.09228516 106.03027344 C33.61117782 104.74511026 32.17429737 103.40855628 30.76416016 102.04589844 C29.98298828 101.30082031 29.20181641 100.55574219 28.39697266 99.78808594 C27.69185547 99.09714844 26.98673828 98.40621094 26.26025391 97.69433594 C24.20343715 96.09121289 24.20343715 96.09121289 21.85009766 96.26074219 C17.78052304 97.7724627 14.21642875 99.96451538 10.52197266 102.22558594 C9.02132257 103.13161464 7.52004095 104.03659831 6.01806641 104.94042969 C5.35863037 105.34253662 4.69919434 105.74464355 4.01977539 106.15893555 C-0.6677458 108.89386496 -4.4173746 110.42185136 -9.91552734 109.28808594 C-14.31474909 107.32254058 -18.36984239 104.85926046 -22.47802734 102.35058594 C-23.63814223 101.65725849 -24.79911847 100.96537033 -25.9609375 100.27490234 C-28.24616826 98.91357526 -30.52416651 97.54205813 -32.79980469 96.16455078 C-35.45365347 94.56625257 -38.1215114 93.00271801 -40.81005859 91.46386719 C-42.13694913 90.6970571 -43.46377886 89.93014178 -44.79052734 89.16308594 C-46.45728516 88.20015625 -46.45728516 88.20015625 -48.15771484 87.21777344 C-51.32925799 84.99859169 -52.91292908 83.63485801 -54.91552734 80.28808594 C-55.51680592 76.39411702 -55.47583978 72.53428102 -55.44677734 68.60058594 C-55.45060425 67.46532471 -55.45443115 66.33006348 -55.45837402 65.16040039 C-55.46109271 62.76317456 -55.45373466 60.36591904 -55.43701172 57.96875 C-55.41560322 54.30108452 -55.43681669 50.63537805 -55.46240234 46.96777344 C-55.45975906 44.63703995 -55.45463408 42.30630768 -55.44677734 39.97558594 C-55.45487427 38.87964111 -55.46297119 37.78369629 -55.47131348 36.65454102 C-55.37840089 29.10457725 -55.37840089 29.10457725 -53.19750977 25.25756836 C-50.84299915 23.22548993 -48.57877384 21.62272919 -45.87255859 20.08886719 C-44.88900391 19.52377441 -43.90544922 18.95868164 -42.89208984 18.37646484 C-41.32587891 17.49740479 -41.32587891 17.49740479 -39.72802734 16.60058594 C-37.55694713 15.36580039 -35.38637712 14.13011736 -33.21630859 12.89355469 C-31.61263428 11.98355713 -31.61263428 11.98355713 -29.9765625 11.05517578 C-27.22821108 9.46859359 -24.52451552 7.83277989 -21.83349609 6.15136719 C-21.0789917 5.68496826 -20.3244873 5.21856934 -19.54711914 4.73803711 C-18.17168326 3.88309603 -16.80393834 3.01559478 -15.44604492 2.13305664 C-10.35055519 -0.99246911 -5.76483646 -2.14252653 0 0 Z " fill="#082C76" transform="translate(189.91552734375,275.7119140625)"/>
<path d="M0 0 C4.16990602 1.8145973 8.03096419 4.05488071 11.9375 6.375 C13.03400879 7.00970215 14.13051758 7.6444043 15.26025391 8.29833984 C17.47222181 9.58150777 19.67997952 10.87196297 21.88330078 12.16992188 C24.67806562 13.81096505 27.48728682 15.42080816 30.30859375 17.015625 C31.83117381 17.88463808 33.35334262 18.7543723 34.875 19.625 C35.56327881 20.01349121 36.25155762 20.40198242 36.96069336 20.80224609 C40.44079478 22.83174819 42.91061173 24.54438094 45 28 C45.38095093 30.4594574 45.38095093 30.4594574 45.38818359 33.23999023 C45.39764008 34.28464951 45.40709656 35.32930878 45.4168396 36.40562439 C45.41076691 37.52860428 45.40469421 38.65158417 45.3984375 39.80859375 C45.40130768 40.96746597 45.40417786 42.1263382 45.40713501 43.32032776 C45.40917609 45.77060434 45.40364322 48.22089719 45.39111328 50.67114258 C45.3750757 54.41980507 45.39095398 58.16738693 45.41015625 61.91601562 C45.40817354 64.29687738 45.4043293 66.67773846 45.3984375 69.05859375 C45.40451019 70.17954941 45.41058289 71.30050507 45.4168396 72.45542908 C45.40265488 74.02714622 45.40265488 74.02714622 45.38818359 75.63061523 C45.38579681 76.54898666 45.38341003 77.46735809 45.38095093 78.41355896 C44.91914433 81.54896421 43.8270752 83.43146008 42 86 C39.84960938 87.58642578 39.84960938 87.58642578 37.34375 88.9453125 C36.41248291 89.46005127 35.48121582 89.97479004 34.52172852 90.50512695 C33.52455811 91.03968506 32.5273877 91.57424316 31.5 92.125 C29.41449522 93.26533858 27.3298732 94.40729295 25.24609375 95.55078125 C24.19921387 96.1226416 23.15233398 96.69450195 22.07373047 97.28369141 C19.18740854 98.89535488 16.35643051 100.5705011 13.53515625 102.29296875 C12.69339844 102.80263184 11.85164063 103.31229492 10.984375 103.83740234 C9.41256247 104.79475026 7.84819565 105.76447269 6.29296875 106.74853516 C2.38955442 109.09745348 -1.06617552 110.87053545 -5.7824707 110.55395508 C-10.91314038 109.27227617 -15.36384681 106.36018842 -19.875 103.6875 C-21.51480835 102.73931396 -21.51480835 102.73931396 -23.18774414 101.77197266 C-26.46928862 99.86575492 -29.73511679 97.93457789 -33 96 C-34.85523104 94.92016442 -36.71068209 93.84070668 -38.56640625 92.76171875 C-40.19147459 91.8017954 -41.815265 90.83970387 -43.4375 89.875 C-44.18177246 89.43889404 -44.92604492 89.00278809 -45.69287109 88.5534668 C-49.25371395 86.38774608 -51.53360613 84.93064471 -53 81 C-53.25396729 78.57177734 -53.25396729 78.57177734 -53.25878906 75.8359375 C-53.26509338 74.80807129 -53.27139771 73.78020508 -53.27789307 72.72119141 C-53.2738446 71.61694824 -53.26979614 70.51270508 -53.265625 69.375 C-53.26753845 68.23595215 -53.2694519 67.0969043 -53.27142334 65.92333984 C-53.27278387 63.51594827 -53.26909667 61.10854933 -53.26074219 58.70117188 C-53.25004108 55.01415544 -53.26064225 51.32762626 -53.2734375 47.640625 C-53.27211588 45.30208226 -53.26955344 42.96353982 -53.265625 40.625 C-53.26967346 39.52075684 -53.27372192 38.41651367 -53.27789307 37.27880859 C-53.27158875 36.25094238 -53.26528442 35.22307617 -53.25878906 34.1640625 C-53.25719788 33.26123535 -53.25560669 32.3584082 -53.25396729 31.42822266 C-52.98092641 28.81763429 -52.38339336 27.21701063 -51 25 C-49.08666992 23.54296875 -49.08666992 23.54296875 -46.73046875 22.1875 C-45.85148926 21.67469482 -44.97250977 21.16188965 -44.06689453 20.63354492 C-42.64159424 19.82494019 -42.64159424 19.82494019 -41.1875 19 C-40.21151855 18.43837158 -39.23553711 17.87674316 -38.22998047 17.2980957 C-36.18421508 16.1216902 -34.13631675 14.948987 -32.08642578 13.77978516 C-29.0853352 12.04920848 -26.11641039 10.27357089 -23.15234375 8.48046875 C-21.31005706 7.38254193 -19.46761525 6.28487533 -17.625 5.1875 C-16.77703857 4.66607422 -15.92907715 4.14464844 -15.05541992 3.60742188 C-10.15024523 0.7300057 -5.76627942 -1.52018922 0 0 Z " fill="#062B75" transform="translate(355,94)"/>
<path d="M0 0 C9.44105178 0.54763056 22.48545722 1.81306941 30 8 C31.50251154 10.59423696 32.54379391 13.33403418 33.625 16.125 C39.30209449 29.78101287 47.4522016 41.74120233 57 53 C57.78117187 54.01513672 57.78117187 54.01513672 58.578125 55.05078125 C61.03900046 58.17868348 62.94466142 60.21542123 66.6875 61.6875 C71.06941095 63.42372887 72.12473467 65.4027057 74.31640625 69.40234375 C82.67284099 82.29568273 102.48731391 90.57234392 116 97 C117.33440725 97.66451449 118.66795615 98.33076058 120 99 C102.81884605 99.15008496 85.67060705 98.68596998 68.5 98.125 C67.80105999 98.10222111 67.10211998 98.07944221 66.38199997 98.05597305 C59.87068356 97.84357844 53.35939517 97.63036035 46.84825134 97.41273499 C38.59939591 97.1387207 30.3507955 96.89806164 22.09988403 96.69354248 C17.2305649 96.57013733 12.36187762 96.42855817 7.49316406 96.28338623 C5.22693973 96.22004581 2.96047438 96.16475744 0.69384766 96.11798096 C-2.44341273 96.05206474 -5.57856467 95.95706582 -8.71484375 95.85546875 C-9.61617538 95.84387222 -10.51750702 95.8322757 -11.44615173 95.82032776 C-19.61372798 95.50167845 -26.80589869 92.68931844 -32.4375 86.625 C-38.28980982 78.84955155 -39.25147648 71.65883126 -38 62 C-36.5920156 57.9186275 -34.38024139 54.58605106 -32 51 C-31.14863013 49.64816501 -30.3012848 48.29379068 -29.45703125 46.9375 C-27.46679345 43.74981336 -25.45892415 40.57425042 -23.4375 37.40625 C-19.60852989 31.39826411 -15.83443381 25.35640377 -12.0625 19.3125 C-11.43609619 18.30936768 -10.80969238 17.30623535 -10.16430664 16.27270508 C-8.98452529 14.38324743 -7.8049096 12.49368632 -6.62548828 10.60400391 C-4.41847555 7.06840796 -2.2093564 3.53413178 0 0 Z " fill="#92B1F3" transform="translate(266,426)"/>
<path d="M0 0 C2.97710797 0.98644473 5.94236197 1.97860052 8.8828125 3.0703125 C17.64323728 5.92008923 25.9895929 6.40246266 35.1875 6.4375 C36.9502124 6.45224365 36.9502124 6.45224365 38.74853516 6.46728516 C46.56487855 6.39165373 53.51977924 5.22625618 61 3 C62.02053467 2.70472412 63.04106934 2.40944824 64.0925293 2.10522461 C65.84150472 1.5954927 67.58823958 1.07797408 69.33203125 0.55078125 C72.59622264 -0.12308549 75.67647522 -0.0858475 79 0 C82.41629155 6.2531085 85.82832966 12.50852478 89.23730469 18.765625 C90.40129567 20.90143561 91.56599539 23.03686014 92.73144531 25.171875 C96.0393089 31.23346434 99.32374648 37.30677989 102.5859375 43.39306641 C103.82060622 45.6692737 105.08768751 47.92131791 106.375 50.16796875 C110.60802454 57.72455125 112.61111855 64.30453036 111 73 C108.47561037 80.24246282 103.15062967 86.61338794 96.5 90.4375 C88.64863708 92.20405666 83.6954798 89.82198723 76.9375 86.125 C76.01300049 85.6290332 75.08850098 85.13306641 74.13598633 84.62207031 C66.28418243 80.32648296 59.02692834 75.53062824 52 70 C51.16726563 69.3503125 50.33453125 68.700625 49.4765625 68.03125 C46.28368164 65.40317478 44.28026329 63.59555948 42.5 59.8125 C40.84189728 56.70355741 40.43627104 56.54053583 37.375 55.25 C21.37895244 48.02409873 8.08014721 21.33487756 2 5.625 C1.32136804 3.75429743 0.6498743 1.88088619 0 0 Z " fill="#D1DBFC" transform="translate(295,433)"/>
<path d="M0 0 C2.66400108 0.96588269 4.99468327 2.24301469 7.45703125 3.6472168 C8.46830078 4.22149414 9.47957031 4.79577148 10.52148438 5.38745117 C11.57142578 5.99008789 12.62136719 6.59272461 13.703125 7.21362305 C15.28383789 8.11177734 15.28383789 8.11177734 16.89648438 9.02807617 C24.62520604 13.43251041 24.62520604 13.43251041 28.140625 15.77612305 C28.40760388 18.40074548 28.48895484 20.78678237 28.43359375 23.40893555 C28.42934891 24.16077118 28.42510406 24.91260681 28.42073059 25.68722534 C28.4039167 28.0922199 28.36626124 30.49638114 28.328125 32.90112305 C28.31308159 34.53001721 28.29939258 36.15892448 28.28710938 37.7878418 C28.25400454 41.78425739 28.20220509 45.78004887 28.140625 49.77612305 C24.51472689 51.90037504 20.88511225 54.01808499 17.25195312 56.12988281 C16.01719328 56.84880975 14.78345641 57.56949668 13.55078125 58.29199219 C11.77611722 59.33174494 9.99783914 60.36505852 8.21875 61.3972168 C7.15043945 62.02039795 6.08212891 62.6435791 4.98144531 63.28564453 C0.67824873 65.54338045 0.67824873 65.54338045 -1.859375 65.77612305 C-3.80712891 65.06689453 -3.80712891 65.06689453 -5.8359375 63.8972168 C-6.96708984 63.25623047 -6.96708984 63.25623047 -8.12109375 62.60229492 C-8.90097656 62.1440332 -9.68085938 61.68577148 -10.484375 61.21362305 C-11.61939453 60.56683594 -11.61939453 60.56683594 -12.77734375 59.90698242 C-14.33652866 59.01394673 -15.88192924 58.09646845 -17.41357422 57.15698242 C-19.8562084 55.69827702 -19.8562084 55.69827702 -22.65283203 54.70776367 C-25.76274755 53.36871865 -27.6288184 52.34308687 -29.859375 49.77612305 C-31.11535736 43.94455419 -30.80430356 38.32523411 -30.484375 32.40112305 C-30.4341772 30.79058347 -30.38855617 29.17989432 -30.34765625 27.5690918 C-30.23779765 23.6343961 -30.06552366 19.70690232 -29.859375 15.77612305 C-14.13671875 6.79174805 -14.13671875 6.79174805 -11.39013672 5.23510742 C-9.829548 4.33542787 -8.28104001 3.41390907 -6.75439453 2.45776367 C-2.33985151 -0.28172844 -2.33985151 -0.28172844 0 0 Z " fill="#FA8D02" transform="translate(351.859375,116.223876953125)"/>
<path d="M0 0 C1.69067204 0.60320002 3.35444036 1.28281405 5 2 C5.91434814 2.32097656 6.82869629 2.64195312 7.77075195 2.97265625 C15.73813007 5.89872585 23.62687889 9.20764943 29 16 C31.21562898 21.5938929 31.17474444 27.56714613 31.0625 33.5 C31.05701645 34.6444458 31.05701645 34.6444458 31.05142212 35.81201172 C30.83842867 47.81037485 30.83842867 47.81037485 27.17626953 52.17211914 C24.85573031 53.75518378 22.57098235 54.87483595 20 56 C18.44352789 56.92015399 16.89643068 57.85636025 15.359375 58.80859375 C13.82515982 59.68881721 12.28869797 60.56513649 10.75 61.4375 C9.97398437 61.89576172 9.19796875 62.35402344 8.3984375 62.82617188 C7.64304687 63.25349609 6.88765625 63.68082031 6.109375 64.12109375 C5.43874023 64.5070874 4.76810547 64.89308105 4.07714844 65.29077148 C1.28406867 66.24444999 -0.19145757 65.87806515 -3 65 C-4.93735837 64.02754362 -6.83688591 62.97780574 -8.703125 61.875 C-9.7653125 61.25109375 -10.8275 60.6271875 -11.921875 59.984375 C-13.02015625 59.32953125 -14.1184375 58.6746875 -15.25 58 C-16.36375 57.34515625 -17.4775 56.6903125 -18.625 56.015625 C-26.8234747 51.1765253 -26.8234747 51.1765253 -28 50 C-28.08847743 47.47905924 -28.11527301 44.98569107 -28.09765625 42.46484375 C-28.0962413 41.71159317 -28.09482635 40.95834259 -28.09336853 40.18226624 C-28.08775376 37.7673044 -28.07519883 35.35243399 -28.0625 32.9375 C-28.0574869 31.30403779 -28.05292366 29.67057414 -28.04882812 28.03710938 C-28.03777954 24.02470415 -28.02050506 20.01236759 -28 16 C-24.33424729 13.88134239 -20.66805947 11.76344032 -17.00146484 9.64624023 C-15.75394874 8.92574531 -14.5065522 8.20504332 -13.25927734 7.48413086 C-11.46743592 6.44851209 -9.67516716 5.41363643 -7.8828125 4.37890625 C-6.26463623 3.44413452 -6.26463623 3.44413452 -4.61376953 2.49047852 C-3.0955855 1.62474776 -1.56316922 0.78158461 0 0 Z " fill="#D0DBFC" transform="translate(455,212)"/>
<path d="M0 0 C2.55054074 1.0947625 4.9241348 2.36252021 7.33618164 3.73803711 C8.34745117 4.31231445 9.3587207 4.8865918 10.40063477 5.47827148 C11.45057617 6.0809082 12.50051758 6.68354492 13.58227539 7.30444336 C15.16298828 8.20259766 15.16298828 8.20259766 16.77563477 9.11889648 C24.50435643 13.52333072 24.50435643 13.52333072 28.01977539 15.86694336 C28.49878908 18.3700773 28.77145004 20.62082762 28.91040039 23.14819336 C28.95309052 23.87395569 28.99578064 24.59971802 29.0397644 25.34747314 C29.15204809 27.68767184 29.22094877 30.02458338 29.26977539 32.36694336 C29.28635193 33.15282837 29.30292847 33.93871338 29.32000732 34.74841309 C29.42617462 47.56720511 29.42617462 47.56720511 26.49926758 52.35327148 C22.63991127 55.92087534 18.10523196 57.6152829 13.13989258 59.14477539 C10.1875439 60.15042341 7.81970945 61.78344052 5.26977539 63.55444336 C1.69288787 65.94117945 1.69288787 65.94117945 -1.25366211 65.61621094 C-4.42720459 64.74411192 -6.85003984 63.41621452 -9.68334961 61.74194336 C-10.74553711 61.11803711 -11.80772461 60.49413086 -12.90209961 59.85131836 C-14.00038086 59.19647461 -15.09866211 58.54163086 -16.23022461 57.86694336 C-17.34397461 57.21209961 -18.45772461 56.55725586 -19.60522461 55.88256836 C-27.80369931 51.04346866 -27.80369931 51.04346866 -28.98022461 49.86694336 C-30.59401147 39.30366514 -32.42373997 26.18428423 -28.98022461 15.86694336 C-24.24090935 9.42009703 -16.94705732 6.4367449 -9.56738281 3.86132812 C-6.88766662 2.93504635 -6.88766662 2.93504635 -4.39892578 1.18310547 C-1.98022461 -0.13305664 -1.98022461 -0.13305664 0 0 Z " fill="#FBCA50" transform="translate(184.980224609375,297.133056640625)"/>
<path d="M0 0 C2.26171875 0.66796875 2.26171875 0.66796875 4.6875 2.1875 C6.09515625 3.03248047 6.09515625 3.03248047 7.53125 3.89453125 C8.06492188 4.22275879 8.59859375 4.55098633 9.1484375 4.88916016 C12.93253402 7.15941849 16.82267531 9.24625441 20.6875 11.375 C22.27519932 12.25698542 23.86247464 13.13973477 25.44921875 14.0234375 C26.47535278 14.59457275 26.47535278 14.59457275 27.5222168 15.17724609 C28.00988525 15.44875488 28.49755371 15.72026367 29 16 C29.22334904 20.73194539 29.38615853 25.46079744 29.49438477 30.19677734 C29.53950884 31.80539397 29.60083129 33.41364414 29.67895508 35.02099609 C30.30864305 48.31440885 30.30864305 48.31440885 27.26416016 52.23583984 C24.91264262 53.81660201 22.60944182 54.90390868 20 56 C18.51172568 56.90125159 17.037123 57.82552415 15.578125 58.7734375 C14.13702302 59.64329185 12.69431912 60.51049796 11.25 61.375 C10.52167969 61.82488281 9.79335937 62.27476562 9.04296875 62.73828125 C7.97755859 63.37443359 7.97755859 63.37443359 6.890625 64.0234375 C6.26188477 64.40419434 5.63314453 64.78495117 4.98535156 65.17724609 C2.40400686 66.24698683 0.7820339 66.34568581 -2 66 C-4.84667969 64.63891602 -4.84667969 64.63891602 -7.921875 62.75390625 C-9.02917969 62.08166016 -10.13648438 61.40941406 -11.27734375 60.71679688 C-12.43496513 59.99880964 -13.59251641 59.28070935 -14.75 58.5625 C-15.92257964 57.84732681 -17.09575127 57.13312329 -18.26953125 56.41992188 C-26.78236607 51.21763393 -26.78236607 51.21763393 -28 50 C-28.08847743 47.47905924 -28.11527301 44.98569107 -28.09765625 42.46484375 C-28.0962413 41.71159317 -28.09482635 40.95834259 -28.09336853 40.18226624 C-28.08775376 37.7673044 -28.07519883 35.35243399 -28.0625 32.9375 C-28.0574869 31.30403779 -28.05292366 29.67057414 -28.04882812 28.03710938 C-28.03777954 24.02470415 -28.02050506 20.01236759 -28 16 C-27.3294458 15.62190186 -26.6588916 15.24380371 -25.96801758 14.85424805 C-22.91578326 13.13269816 -19.86413646 11.41010942 -16.8125 9.6875 C-15.75740234 9.09259766 -14.70230469 8.49769531 -13.61523438 7.88476562 C-12.59365234 7.30791016 -11.57207031 6.73105469 -10.51953125 6.13671875 C-9.58214111 5.60780029 -8.64475098 5.07888184 -7.67895508 4.53393555 C-5.85687049 3.49063313 -4.06262804 2.39748839 -2.29638672 1.26220703 C-1.5385791 0.84567871 -0.78077148 0.42915039 0 0 Z " fill="#B0D852" transform="translate(215,158)"/>
<path d="M0 0 C7.22638198 3.24024173 14.10840656 6.4400584 19.04296875 12.81640625 C22.80847245 23.20998505 20.51384361 36.12744547 19.04296875 46.81640625 C15.41707064 48.94065824 11.787456 51.05836819 8.15429688 53.17016602 C6.91953703 53.88909295 5.68580016 54.60977988 4.453125 55.33227539 C2.67846097 56.37202815 0.90018289 57.40534173 -0.87890625 58.4375 C-1.9472168 59.06068115 -3.01552734 59.6838623 -4.11621094 60.32592773 C-8.57213538 62.66379459 -8.57213538 62.66379459 -10.95703125 62.81640625 C-13.35131836 61.78417969 -13.35131836 61.78417969 -15.984375 60.17578125 C-16.94150391 59.59957031 -17.89863281 59.02335937 -18.88476562 58.4296875 C-19.87798828 57.81480469 -20.87121094 57.19992187 -21.89453125 56.56640625 C-22.88388672 55.96699219 -23.87324219 55.36757813 -24.89257812 54.75 C-26.74288184 53.62762343 -28.59015389 52.50022264 -30.43334961 51.36621094 C-32.93562251 49.75524844 -32.93562251 49.75524844 -35.71166992 48.5793457 C-37.95703125 46.81640625 -37.95703125 46.81640625 -38.79443359 43.51342773 C-38.90688908 42.15691503 -38.98779569 40.79754739 -39.04296875 39.4375 C-39.08282898 38.71315262 -39.12268921 37.98880524 -39.16375732 37.24250793 C-39.26463236 34.91173486 -39.30857501 32.58669261 -39.33203125 30.25390625 C-39.34361267 29.4705188 -39.35519409 28.68713135 -39.36712646 27.88000488 C-39.40691065 15.16945126 -39.40691065 15.16945126 -36.42773438 10.33447266 C-32.56880836 6.76447638 -28.0437612 5.06845895 -23.07714844 3.53857422 C-20.12479976 2.5329262 -17.75696531 0.89990909 -15.20703125 -0.87109375 C-9.8747682 -4.42913258 -5.630879 -2.24302233 0 0 Z " fill="#FB7C9F" transform="translate(433.95703125,354.18359375)"/>
<path d="M0 0 C24.35607372 -0.12540313 48.65698626 0.19001261 73 1 C73 7.6 73 14.2 73 21 C48.58037403 21.26117247 24.37068524 20.56150844 0 19 C0 12.73 0 6.46 0 0 Z " fill="#90AFF1" transform="translate(287,271)"/>
<path d="M0 0 C4.69479269 1.75736363 8.86033299 4.14491635 13.18359375 6.66015625 C16.15992204 8.07607942 18.74123705 8.61125214 22 9 C20.68 9.33 19.36 9.66 18 10 C17.89558594 11.02351563 17.79117187 12.04703125 17.68359375 13.1015625 C16.86900646 19.59821823 15.4280101 25.97642271 14.0625 32.375 C13.79759766 33.65761719 13.53269531 34.94023437 13.25976562 36.26171875 C13.00001953 37.48246094 12.74027344 38.70320313 12.47265625 39.9609375 C12.23812744 41.07259277 12.00359863 42.18424805 11.76196289 43.32958984 C11 46 11 46 9 48 C8.16597656 47.44570313 7.33195312 46.89140625 6.47265625 46.3203125 C0.1383248 42.20870239 -5.38758481 39.03219189 -13 38 C-13 37.67 -13 37.34 -13 37 C-11.35 37 -9.7 37 -8 37 C-7.96261719 36.43547119 -7.92523438 35.87094238 -7.88671875 35.28930664 C-7.27805485 27.82944436 -5.72559118 20.71021565 -4 13.4375 C-3.72671875 12.25091797 -3.4534375 11.06433594 -3.171875 9.84179688 C-1.13647625 1.13647625 -1.13647625 1.13647625 0 0 Z " fill="#6965F5" transform="translate(435,291)"/>
<path d="M0 0 C1.72990025 0.93614567 3.45888696 1.87397958 5.1875 2.8125 C6.15042969 3.33457031 7.11335937 3.85664063 8.10546875 4.39453125 C9.96649041 5.42675784 11.80011921 6.5109195 13.59375 7.65625 C16.00182234 9.00101767 17.59409053 9.45712632 20.3125 9.6875 C21.529375 9.790625 22.74625 9.89375 24 10 C24 10.33 24 10.66 24 11 C22.35 11 20.7 11 19 11 C18.89558594 12.02351562 18.79117188 13.04703125 18.68359375 14.1015625 C17.86900646 20.59821823 16.4280101 26.97642271 15.0625 33.375 C14.79759766 34.65761719 14.53269531 35.94023437 14.25976562 37.26171875 C14.00001953 38.48246094 13.74027344 39.70320313 13.47265625 40.9609375 C13.23812744 42.07259277 13.00359863 43.18424805 12.76196289 44.32958984 C12 47 12 47 10 49 C4.39 45.7 -1.22 42.4 -7 39 C-6.62148743 30.54655264 -4.86988234 22.70167234 -2.81567383 14.52661133 C-1.60509319 9.68742615 -0.59559051 4.95423015 0 0 Z " fill="#6865F5" transform="translate(194,236)"/>
<path d="M0 0 C0.495 0.680625 0.99 1.36125 1.5 2.0625 C3.95438872 4.94640675 6.50323297 7.24362276 9.3671875 9.69921875 C12.94448677 12.82537494 16.4462282 16.02833403 19.9375 19.25 C20.61272705 19.86480225 21.2879541 20.47960449 21.98364258 21.11303711 C22.61681396 21.69964111 23.24998535 22.28624512 23.90234375 22.890625 C24.47460693 23.41688477 25.04687012 23.94314453 25.63647461 24.48535156 C27 26 27 26 28 29 C26.86820312 29.62648437 25.73640625 30.25296875 24.5703125 30.8984375 C23.08844357 31.72378222 21.60667809 32.54931272 20.125 33.375 C19.37863281 33.7875 18.63226563 34.2 17.86328125 34.625 C17.14785156 35.02460938 16.43242187 35.42421875 15.6953125 35.8359375 C15.03547363 36.20251465 14.37563477 36.5690918 13.69580078 36.94677734 C11.83480572 38.01345273 11.83480572 38.01345273 10 40 C9.5875 39.50371094 9.175 39.00742188 8.75 38.49609375 C5.1865687 34.30428953 1.5160834 30.55773188 -2.67578125 27 C-5.63206433 24.45610599 -8.50355131 21.8263489 -11.375 19.1875 C-11.89924561 18.70692139 -12.42349121 18.22634277 -12.96362305 17.73120117 C-15.00966949 15.85129383 -17.03503037 13.96496963 -19 12 C-18.45996338 11.70754395 -17.91992676 11.41508789 -17.36352539 11.11376953 C-14.92667669 9.78992607 -12.49457413 8.45759307 -10.0625 7.125 C-9.21236328 6.66480469 -8.36222656 6.20460937 -7.48632812 5.73046875 C-6.67744141 5.28574219 -5.86855469 4.84101563 -5.03515625 4.3828125 C-4.2862915 3.97434082 -3.53742676 3.56586914 -2.76586914 3.14501953 C-0.84417254 2.11097898 -0.84417254 2.11097898 0 0 Z " fill="#6965F6" transform="translate(398,177)"/>
<path d="M0 0 C0 6.93 0 13.86 0 21 C-3.7910336 22.27274732 -7.58279695 23.54324564 -11.375 24.8125 C-12.96634766 25.34713867 -12.96634766 25.34713867 -14.58984375 25.89257812 C-32.85607798 32 -32.85607798 32 -37 32 C-37.33 25.07 -37.66 18.14 -38 11 C-34.04203428 9.72801254 -30.0836422 8.45737904 -26.125 7.1875 C-25.01640625 6.83107422 -23.9078125 6.47464844 -22.765625 6.10742188 C-19.51260862 5.06454309 -16.25736896 4.02919963 -13 3 C-12.02772461 2.69271973 -11.05544922 2.38543945 -10.05371094 2.06884766 C-8.72388184 1.65771729 -8.72388184 1.65771729 -7.3671875 1.23828125 C-6.5922998 0.99762939 -5.81741211 0.75697754 -5.01904297 0.5090332 C-3 0 -3 0 0 0 Z " fill="#6965F6" transform="translate(302,154)"/>
<path d="M0 0 C5.66623074 4.78887888 11.09165417 9.78232118 16.48242188 14.87695312 C20.2204659 18.39171543 24.02255546 21.75798434 28 25 C24.95459911 28.33964252 21.8127299 30.42877227 17.875 32.625 C13.65640842 34.94186904 13.65640842 34.94186904 10 38 C9.05640625 37.03900391 9.05640625 37.03900391 8.09375 36.05859375 C3.55628943 31.4732985 -1.00676666 27.0013761 -5.90625 22.8046875 C-10.00103075 19.27523095 -13.98932687 15.62439928 -18 12 C-14.43450189 9.00894325 -10.79480214 6.60887166 -6.75 4.3125 C-3.16722798 2.4440632 -3.16722798 2.4440632 0 0 Z " fill="#6965F6" transform="translate(231,359)"/>
<path d="M0 0 C0.33 0 0.66 0 1 0 C1.15855469 0.88558594 1.31710937 1.77117187 1.48046875 2.68359375 C2.99116416 10.70446826 4.8874059 18.47188171 7.28588867 26.27514648 C8.37803993 29.83089894 9.35808771 33.33396759 10 37 C9.48695313 36.82984375 8.97390625 36.6596875 8.4453125 36.484375 C-0.23220497 33.73795533 -9.10964389 31.9078433 -18 30 C-16.72844318 26.60483143 -15.26917442 23.62087899 -13.3203125 20.56640625 C-12.80339844 19.75236328 -12.28648437 18.93832031 -11.75390625 18.09960938 C-10.94759766 16.84374023 -10.94759766 16.84374023 -10.125 15.5625 C-9.59519531 14.72912109 -9.06539063 13.89574219 -8.51953125 13.03710938 C-7.02142954 10.68587033 -5.51314727 8.34157718 -4 6 C-3.59104492 5.36175293 -3.18208984 4.72350586 -2.76074219 4.06591797 C-1.86809644 2.69227567 -0.93871512 1.34258092 0 0 Z " fill="#CFDAFB" transform="translate(285,396)"/>
<path d="M0 0 C3.22618733 2.0790985 4.8669302 3.80039529 7 7 C6.92361243 11.73602958 6.63331507 14.05002739 4 18 C0.4647802 20.3568132 -1.66500529 20.73815801 -5.84375 20.48046875 C-9.48426176 19.66926776 -10.94028944 18.02519989 -13 15 C-14.0625 11.5625 -14.0625 11.5625 -14 8 C-10.55043841 1.47047271 -7.42258927 -0.76785406 0 0 Z " fill="#6966F6" transform="translate(277,461)"/>
<path d="M0 0 C3.95403662 0.26360244 5.65370756 0.86143155 8.75 3.25 C11.23386059 6.97579089 11.1304212 8.83711402 10.75 13.25 C9.09860695 16.7886994 8.03394771 18.06070153 4.75 20.25 C-0.35257186 20.82609682 -0.35257186 20.82609682 -3.25 20.25 C-6.1875 17.8125 -6.1875 17.8125 -8.25 15.25 C-8.58 14.92 -8.91 14.59 -9.25 14.25 C-9.54322866 11.31771337 -9.75004247 9.10508117 -9.25 6.25 C-6.8125 3.3125 -6.8125 3.3125 -4.25 1.25 C-3.25 0.25 -3.25 0.25 0 0 Z " fill="#6A66F7" transform="translate(362.25,461.75)"/>
<path d="M0 0 C3.5386994 1.65139305 4.81070153 2.71605229 7 6 C7.60192898 9.09067378 7.60626701 11.90912086 7 15 C4.4085135 18.17457096 2.92564305 19.54580349 -1.00390625 20.47265625 C-4.76642733 20.75109709 -6.84151144 20.1079071 -9.9375 18 C-12.69292627 13.99210725 -13 11.86864262 -13 7 C-10.24735684 0.66892073 -6.68030367 -0.57588825 0 0 Z " fill="#6965F7" transform="translate(332,487)"/>
</svg>
