<?xml version="1.0" encoding="UTF-8"?>
<svg version="1.1" xmlns="http://www.w3.org/2000/svg" width="640" height="640">
<path d="M0 0 C211.2 0 422.4 0 640 0 C640 211.2 640 422.4 640 640 C428.8 640 217.6 640 0 640 C0 428.8 0 217.6 0 0 Z " fill="#FEFEFE" transform="translate(0,0)"/>
<path d="M0 0 C1.67768761 0.80216926 3.32453905 1.67032699 4.9453125 2.58203125 C5.91194824 3.12311523 6.87858398 3.66419922 7.87451172 4.22167969 C8.90592285 4.80852539 9.93733398 5.39537109 11 6 C12.59158936 6.89960449 12.59158936 6.89960449 14.21533203 7.81738281 C17.56710921 9.72064081 20.90947201 11.63957482 24.25 13.5625 C25.38179687 14.20896484 26.51359375 14.85542969 27.6796875 15.52148438 C43.23779799 24.47559597 43.23779799 24.47559597 45 28 C45.04317994 29.68934346 45.02102582 31.38053959 44.96728516 33.06958008 C44.80717549 39.02532561 44.72866408 44.97763358 44.67871094 50.93530273 C44.64316987 53.50088292 44.58267121 56.06624998 44.49609375 58.63061523 C43.38472907 73.95732954 43.38472907 73.95732954 49.2019043 87.45288086 C52.23901022 90.3173626 55.52261842 92.59488376 59.08512878 94.75535583 C62.22730125 96.79773163 64.86120073 99.35601433 67.5625 101.9375 C70.15529641 104.50391283 70.15529641 104.50391283 73 106 C77.16912126 104.9537852 80.5360457 103.24502401 84.15234375 100.9609375 C85.56483398 100.09082031 85.56483398 100.09082031 87.00585938 99.203125 C88.96099556 97.98393282 90.91154073 96.75734741 92.85742188 95.5234375 C93.80037109 94.9459375 94.74332031 94.3684375 95.71484375 93.7734375 C96.56167725 93.24153809 97.40851074 92.70963867 98.28100586 92.16162109 C101.79121667 90.6619728 104.20876815 90.60584916 108 91 C111.11108398 92.31005859 111.11108398 92.31005859 114.24609375 94.1484375 C114.8151091 94.47682114 115.38412445 94.80520477 115.97038269 95.14353943 C117.80189034 96.20587906 119.61965181 97.28948118 121.4375 98.375 C122.69326847 99.11125894 123.94961925 99.84652556 125.20654297 100.58081055 C128.81794354 102.69823524 132.41030748 104.84597732 136 107 C136.93505371 107.55800293 137.87010742 108.11600586 138.83349609 108.69091797 C141.10524655 110.05236497 143.36837056 111.42616556 145.625 112.8125 C146.26236084 113.20163574 146.89972168 113.59077148 147.55639648 113.99169922 C150.45987179 115.81879809 152.06238834 117.09358251 154 120 C154.27415466 122.33920288 154.27415466 122.33920288 154.30639648 125.12646484 C154.32238388 126.17119965 154.33837128 127.21593445 154.35484314 128.29232788 C154.36288719 129.98453964 154.36288719 129.98453964 154.37109375 131.7109375 C154.38012222 132.87122467 154.3891507 134.03151184 154.39845276 135.22695923 C154.41297007 137.68318088 154.42184565 140.13944134 154.42553711 142.59570312 C154.43743203 146.35352757 154.48660564 150.10970981 154.53710938 153.8671875 C154.54657345 156.25259614 154.55380856 158.63801488 154.55859375 161.0234375 C154.57812607 162.14753021 154.59765839 163.27162292 154.61778259 164.42977905 C154.57261982 172.2399083 154.57261982 172.2399083 151.64355469 176.12792969 C148.75083875 178.17644703 145.87545153 180.08678211 142.8125 181.875 C142.19536133 182.23650146 141.57822266 182.59800293 140.94238281 182.97045898 C139.50029035 183.81281706 138.05592617 184.65129266 136.60986328 185.48681641 C134.09893635 186.94263728 131.59637161 188.41217323 129.09550476 189.88519287 C126.74133052 191.27004698 124.38335379 192.64833263 122.02450562 194.02520752 C120.84307648 194.7158154 119.66275226 195.40831702 118.48355103 196.10272217 C116.81047083 197.08656834 115.13189233 198.06104594 113.453125 199.03515625 C112.47504883 199.6062915 111.49697266 200.17742676 110.48925781 200.76586914 C108 202 108 202 105 202 C104.83564453 203.09441406 104.83564453 203.09441406 104.66796875 204.2109375 C103.88818098 209.34612524 103.10040907 214.47454638 102.19921875 219.58984375 C101.99486206 220.76377686 101.99486206 220.76377686 101.78637695 221.96142578 C101.51833298 223.49333286 101.24499222 225.02432552 100.96557617 226.55419922 C100.11609652 231.4413021 99.87667284 236.03888461 100 241 C100.6705542 241.36762451 101.3411084 241.73524902 102.03198242 242.11401367 C105.08876531 243.79636759 108.13811728 245.49177248 111.1875 247.1875 C112.77014648 248.0547168 112.77014648 248.0547168 114.38476562 248.93945312 C119.59047738 251.84611237 124.111657 254.4455597 128 259 C128.33 259.33 128.66 259.66 129 260 C129.11943923 261.59407434 129.17011866 263.19336728 129.19287109 264.79174805 C129.20893402 265.81338547 129.22499695 266.83502289 129.24154663 267.88761902 C129.28589074 272.57928943 129.32708476 277.27081545 129.35009766 281.96264648 C129.36664001 284.43702613 129.3939069 286.91135833 129.43212891 289.38549805 C129.48692109 292.94865783 129.50877905 296.51069425 129.5234375 300.07421875 C129.54610687 301.17755051 129.56877625 302.28088226 129.59213257 303.41764832 C129.56855487 311.9998039 129.56855487 311.9998039 126.82250977 315.52124023 C124.07768028 317.9317803 121.49960207 319.8011992 118.31640625 321.5859375 C117.23012939 322.2032373 116.14385254 322.82053711 115.0246582 323.45654297 C113.882146 324.08963379 112.73963379 324.72272461 111.5625 325.375 C110.38249481 326.03822665 109.20305298 326.7024566 108.02416992 327.36767578 C105.71994936 328.66670668 103.41277473 329.95988158 101.10351562 331.25 C98.52051644 332.70649293 95.96377018 334.19219942 93.421875 335.71875 C92.79337646 336.09338379 92.16487793 336.46801758 91.51733398 336.85400391 C89.95265919 337.79106104 88.39213406 338.73503809 86.83203125 339.6796875 C83.1765976 341.38387588 81.08966237 342.09472531 77 342 C72.81615362 340.27680478 69.00495722 338.00351164 65.125 335.6875 C63.47455688 334.73194214 63.47455688 334.73194214 61.79077148 333.75708008 C58.5162861 331.85597387 55.25721772 329.93050352 52 328 C50.21819626 326.95705379 48.43571155 325.91526952 46.65234375 324.875 C43.77305898 323.19231263 40.90044671 321.49936785 38.03515625 319.79296875 C36.38265145 318.81677866 34.71667567 317.85833784 33 317 C33.35078613 317.62640381 33.70157227 318.25280762 34.06298828 318.89819336 C34.56040527 319.78643799 35.05782227 320.67468262 35.5703125 321.58984375 C36.12968506 322.58870605 36.68905762 323.58756836 37.26538086 324.61669922 C38.52406641 326.8643874 39.78269096 329.11210974 41.04125977 331.35986328 C44.76962111 338.01843594 48.49980757 344.67597811 52.23266602 351.33203125 C53.95484603 354.40596104 55.6727347 357.482265 57.390625 360.55859375 C59.59943313 364.51084373 61.8234574 368.45375291 64.06504822 372.38745117 C65.44515595 374.8127272 66.81724359 377.24248979 68.18826294 379.6729126 C69.15686605 381.38340245 70.13576661 383.08804841 71.11499023 384.79248047 C78.49588707 397.90718979 80.92857668 408.72542411 77.4375 423.5625 C73.91937794 435.59300131 67.31231315 444.91435154 56.5546875 451.49609375 C46.49983185 456.80720089 37.34737222 458.44256841 26.03491211 458.20605469 C24.81166953 458.19295635 23.58842695 458.17985802 22.32811642 458.16636276 C19.78983165 458.13766131 17.25161359 458.10231185 14.71351242 458.06040955 C11.24783864 458.00403171 7.7826823 457.96653988 4.31668091 457.93811035 C-9.73051734 457.81755853 -23.77661418 457.58719626 -37.82250977 457.36523438 C-42.92594235 457.28567522 -48.02936171 457.21662481 -53.13305664 457.15625 C-59.37725832 457.08223924 -65.6209287 456.98957376 -71.86467171 456.88387299 C-74.21788406 456.84711487 -76.57120675 456.81678049 -78.92458916 456.79331207 C-97.67217599 456.59908183 -113.1913239 455.17611959 -127.6875 442 C-136.75193278 432.51696109 -140.14850807 421.18039979 -140.3125 408.3125 C-140.34150391 407.57322266 -140.37050781 406.83394531 -140.40039062 406.07226562 C-140.52572377 394.85976952 -135.09346507 385.8874843 -129.287323 376.63577271 C-128.15546897 374.82371959 -127.04557015 372.99964192 -125.93969727 371.17163086 C-122.30909731 365.19409958 -118.58936018 359.34857392 -114.546875 353.63671875 C-104.75780641 339.44007208 -100.25712755 326.40446919 -103.14355469 308.97216797 C-105.15188116 302.00256521 -110.06362296 298.58196194 -116.12255859 295.12792969 C-119.07786451 293.35244031 -121.52343229 291.13508995 -124.125 288.875 C-128.21998669 285.34090632 -128.21998669 285.34090632 -133 283 C-135.64471081 284.0111278 -135.64471081 284.0111278 -138.32421875 285.83203125 C-139.35353516 286.46560547 -140.38285156 287.09917969 -141.44335938 287.75195312 C-143.58689939 289.11344302 -145.73013429 290.4754134 -147.87304688 291.83789062 C-159.79167497 299.1730015 -159.79167497 299.1730015 -166 298 C-170.60435183 296.15288115 -174.81254715 293.72365493 -179.0625 291.1875 C-180.26208021 290.49275809 -181.46260889 289.79965138 -182.6640625 289.1081543 C-186.12857296 287.10352026 -189.56523702 285.0551805 -193 283 C-193.91120605 282.46149414 -194.82241211 281.92298828 -195.76123047 281.36816406 C-198.01706447 280.03127378 -200.26225183 278.67940431 -202.5 277.3125 C-203.13301025 276.92795654 -203.76602051 276.54341309 -204.41821289 276.1472168 C-207.66464194 274.09921668 -209.98739756 272.27236913 -212 269 C-212.39440918 266.5852356 -212.39440918 266.5852356 -212.41992188 263.86767578 C-212.43583374 262.84626495 -212.45174561 261.82485413 -212.46813965 260.77249146 C-212.46834106 259.6745224 -212.46854248 258.57655334 -212.46875 257.4453125 C-212.47636353 256.311008 -212.48397705 255.17670349 -212.49182129 254.00802612 C-212.5026246 251.60905152 -212.50547448 249.21002987 -212.50097656 246.81103516 C-212.50000539 243.1453577 -212.54160425 239.48178086 -212.5859375 235.81640625 C-212.59114538 233.48437936 -212.59383268 231.1523452 -212.59375 228.8203125 C-212.61014526 227.72639191 -212.62654053 226.63247131 -212.64343262 225.50540161 C-212.56651357 217.01025869 -212.56651357 217.01025869 -209.8137207 213.4831543 C-207.09325269 211.08229702 -204.54685151 209.22356536 -201.38671875 207.44921875 C-200.31035156 206.83699463 -199.23398438 206.22477051 -198.125 205.59399414 C-196.4234375 204.65027954 -196.4234375 204.65027954 -194.6875 203.6875 C-193.51635356 203.0276282 -192.34578319 202.36673296 -191.17578125 201.70483398 C-188.86069081 200.39741858 -186.54174208 199.09781508 -184.22021484 197.80175781 C-181.40359556 196.22581768 -178.59896616 194.63179473 -175.80078125 193.0234375 C-174.36733102 192.20287423 -172.93375016 191.38253909 -171.5 190.5625 C-170.85506592 190.1914917 -170.21013184 189.8204834 -169.5456543 189.43823242 C-165.22992917 187 -165.22992917 187 -163 187 C-162.90203125 186.27941406 -162.8040625 185.55882812 -162.703125 184.81640625 C-160.9900663 172.51487263 -158.9841538 160.26016433 -157 148 C-158.17175781 147.68482422 -158.17175781 147.68482422 -159.3671875 147.36328125 C-164.30109201 145.51174074 -168.61956865 142.89928437 -173.125 140.1875 C-174.46498047 139.40536133 -174.46498047 139.40536133 -175.83203125 138.60742188 C-177.12560547 137.83301758 -177.12560547 137.83301758 -178.4453125 137.04296875 C-179.22406738 136.57914795 -180.00282227 136.11532715 -180.80517578 135.63745117 C-184.28651632 133.04019299 -186.67779696 131.07782588 -187.37408447 126.58760071 C-187.54771711 123.50043437 -187.58043999 120.43970921 -187.56640625 117.34765625 C-187.57260483 116.21476669 -187.57880341 115.08187714 -187.58518982 113.91465759 C-187.59228567 111.5216457 -187.58911817 109.12858441 -187.57641602 106.7355957 C-187.56256124 103.078663 -187.59661586 99.42429438 -187.63476562 95.76757812 C-187.63571694 93.44010354 -187.63385732 91.11262576 -187.62890625 88.78515625 C-187.64216446 87.69437271 -187.65542267 86.60358917 -187.66908264 85.47975159 C-187.56551863 77.01417369 -187.56551863 77.01417369 -184.80004883 73.47167969 C-182.1330322 71.11743116 -179.69745704 69.34965945 -176.5703125 67.66796875 C-175.53447021 67.10094238 -174.49862793 66.53391602 -173.43139648 65.94970703 C-172.34028564 65.36817871 -171.2491748 64.78665039 -170.125 64.1875 C-167.86722697 62.96195863 -165.61071138 61.73409785 -163.35546875 60.50390625 C-162.26411621 59.90980957 -161.17276367 59.31571289 -160.04833984 58.70361328 C-157.41428365 57.23152902 -154.8489216 55.70447887 -152.30078125 54.08984375 C-151.63353027 53.66743408 -150.9662793 53.24502441 -150.27880859 52.80981445 C-148.57206269 51.71158615 -146.87727243 50.59483774 -145.18359375 49.4765625 C-141.26562114 47.65939238 -138.18967068 47.12798387 -134 48 C-130.33279508 49.47988546 -126.97582204 51.38710047 -123.5625 53.375 C-122.60472656 53.91576172 -121.64695312 54.45652344 -120.66015625 55.01367188 C-117.7623012 56.6572027 -114.87980329 58.32507877 -112 60 C-111.14905762 60.49016602 -110.29811523 60.98033203 -109.42138672 61.48535156 C-95.80701559 69.32999222 -95.80701559 69.32999222 -92.26049805 72.27441406 C-89.05750992 74.39700846 -89.05750992 74.39700846 -85.3371582 73.35253906 C-83.98118122 72.85114402 -82.63584293 72.3203149 -81.30078125 71.765625 C-80.58391647 71.49361267 -79.8670517 71.22160034 -79.12846375 70.94134521 C-76.84572167 70.06953422 -74.57969026 69.16139942 -72.3125 68.25 C-70.03218367 67.36084725 -67.74909126 66.4793496 -65.46440125 65.60150146 C-64.04549888 65.05333354 -62.62965983 64.4971548 -61.21736145 63.93218994 C-58.31576569 62.78638358 -56.15129933 62 -53 62 C-53.02618408 61.03175293 -53.05236816 60.06350586 -53.0793457 59.06591797 C-53.17022925 55.45433904 -53.2273855 51.84285997 -53.2746582 48.23046875 C-53.29971627 46.67072521 -53.33377301 45.1110981 -53.37719727 43.55175781 C-53.43824193 41.30244157 -53.46629426 39.0546844 -53.48828125 36.8046875 C-53.51408768 36.1138205 -53.5398941 35.42295349 -53.56648254 34.71115112 C-53.56869201 30.84847915 -52.98550231 28.97822659 -50.8269043 25.73632812 C-48.0802743 23.07770225 -45.61037278 21.26849989 -42.28125 19.4140625 C-40.64434204 18.48799194 -40.64434204 18.48799194 -38.97436523 17.54321289 C-37.82782471 16.91020264 -36.68128418 16.27719238 -35.5 15.625 C-33.14471068 14.30768701 -30.79304921 12.98396474 -28.44140625 11.66015625 C-27.32137207 11.03125488 -26.20133789 10.40235352 -25.04736328 9.75439453 C-21.40655056 7.6583458 -17.93277331 5.39129354 -14.4375 3.0625 C-9.38862987 -0.04292887 -5.82739581 -1.51073923 0 0 Z " fill="#082C76" transform="translate(349,93)"/>
<path d="M0 0 C1.21332001 -0.00315216 2.42664001 -0.00630432 3.67672729 -0.009552 C4.99528717 -0.00752777 6.31384705 -0.00550354 7.67236328 -0.00341797 C9.05266334 -0.00409286 10.43296328 -0.00506444 11.81326294 -0.00631714 C14.72024659 -0.00779422 17.6271996 -0.00564512 20.53417969 -0.00097656 C23.47430451 0.00352297 26.41436759 0.00365043 29.35449219 -0.00097656 C56.76935096 -0.04397196 56.76935096 -0.04397196 70.18798828 0.38720703 C70.9952536 0.40081268 71.80251892 0.41441833 72.63424683 0.42843628 C79.04305498 0.69905163 84.33145223 2.67096198 89.17626953 6.94580078 C89.63130859 7.52201172 90.08634766 8.09822266 90.55517578 8.69189453 C91.02826172 9.27068359 91.50134766 9.84947266 91.98876953 10.44580078 C95.46901682 15.63606577 94.41861989 22.57346727 94.46777344 28.58813477 C94.48427678 30.0651837 94.51149282 31.54215462 94.54980469 33.01879883 C94.96059185 48.95912692 94.96059185 48.95912692 89.11767578 55.12939453 C86.34724961 57.87799945 83.87990751 59.87531729 80.11767578 61.12939453 C79.01670797 72.12321232 78.79949719 83.11773539 78.71264648 94.15917969 C78.69096001 96.2264058 78.65673339 98.29353756 78.61010742 100.36035156 C77.95422439 116.79393744 77.95422439 116.79393744 85.11767578 131.12939453 C87.75767578 130.46939453 90.39767578 129.80939453 93.11767578 129.12939453 C93.44767578 118.56939453 93.77767578 108.00939453 94.11767578 97.12939453 C94.44767578 97.12939453 94.77767578 97.12939453 95.11767578 97.12939453 C95.12354202 97.76531021 95.12940826 98.40122589 95.13545227 99.05641174 C95.1995248 105.69178703 95.28398046 112.32668352 95.38012695 118.96166992 C95.41332382 121.43588945 95.44137196 123.91018375 95.46411133 126.38452148 C95.49775279 129.94693787 95.55007565 133.50867225 95.60595703 137.07080078 C95.61554192 138.72276207 95.61554192 138.72276207 95.62532043 140.40809631 C95.74041232 146.45831098 96.2629781 150.77619803 99.11767578 156.12939453 C99.78271118 157.44834717 99.78271118 157.44834717 100.46118164 158.79394531 C101.1399939 160.04667236 101.1399939 160.04667236 101.83251953 161.32470703 C102.60462769 162.75206177 102.60462769 162.75206177 103.39233398 164.20825195 C103.94107178 165.213479 104.48980957 166.21870605 105.05517578 167.25439453 C105.63291748 168.31698486 106.21065918 169.3795752 106.8059082 170.47436523 C110.44008818 177.13198451 114.14823007 183.74227708 117.93017578 190.31689453 C122.52466523 198.32012308 127.09866947 206.33449469 131.60043335 214.39028931 C132.31011618 215.65659005 133.02325549 216.92096097 133.74014282 218.18319702 C141.74601828 232.29114769 145.35626922 243.53724742 141.55517578 259.69189453 C138.03705372 271.72239584 131.42998893 281.04374607 120.67236328 287.62548828 C110.61750763 292.93659542 101.465048 294.57196294 90.15258789 294.33544922 C88.92934531 294.32235088 87.70610273 294.30925255 86.4457922 294.29575729 C83.90750743 294.26705584 81.36928937 294.23170639 78.8311882 294.18980408 C75.36551442 294.13342625 71.90035809 294.09593441 68.43435669 294.06750488 C54.38715844 293.94695306 40.34106161 293.71659079 26.29516602 293.49462891 C21.19173343 293.41506975 16.08831407 293.34601934 10.98461914 293.28564453 C4.74041747 293.21163377 -1.50325292 293.11896829 -7.74699593 293.01326752 C-10.10020828 292.9765094 -12.45353097 292.94617502 -14.80691338 292.9227066 C-33.5545002 292.72847636 -49.07364812 291.30551412 -63.56982422 278.12939453 C-72.634257 268.64635562 -76.03083229 257.30979432 -76.19482422 244.44189453 C-76.22382813 243.70261719 -76.25283203 242.96333984 -76.28271484 242.20166016 C-76.40804799 230.98916405 -70.97578929 222.01687883 -65.16964722 212.76516724 C-64.03779318 210.95311412 -62.92789437 209.12903646 -61.82202148 207.30102539 C-58.19142153 201.32349411 -54.47168439 195.47796845 -50.42919922 189.76611328 C-40.64013063 175.56946661 -36.13945176 162.53386372 -39.02587891 145.1015625 C-41.03139992 138.14169566 -45.94497794 134.7028587 -51.99609375 131.24853516 C-54.96216885 129.48869976 -57.48410349 127.33800359 -60.13232422 125.12939453 C-61.00373047 124.44876953 -61.87513672 123.76814453 -62.77294922 123.06689453 C-64.8398372 121.16841965 -65.84555535 119.70979706 -66.88232422 117.12939453 C-65.54427734 116.33275391 -65.54427734 116.33275391 -64.17919922 115.52001953 C-62.9967247 114.80678093 -61.81444319 114.09322226 -60.63232422 113.37939453 C-60.04580078 113.03134766 -59.45927734 112.68330078 -58.85498047 112.32470703 C-55.42601551 110.24421144 -52.58280381 108.09724834 -49.88232422 105.12939453 C-49.26357422 105.76876953 -48.64482422 106.40814453 -48.00732422 107.06689453 C-41.97824802 113.07903512 -35.52512345 118.65723154 -29.00732422 124.12939453 C-28.12302734 124.87189453 -27.23873047 125.61439453 -26.32763672 126.37939453 C-23.36720471 128.56112916 -23.36720471 128.56112916 -19.88232422 129.12939453 C-17.27748546 127.82793337 -17.27748546 127.82793337 -14.75732422 125.87939453 C-13.88849609 125.25548828 -13.01966797 124.63158203 -12.12451172 123.98876953 C-9.44447603 121.76630091 -8.03884092 120.10345273 -7.47938538 116.62176514 C-6.99558713 109.5654709 -6.68553989 102.52930524 -6.56591797 95.45751953 C-6.53474632 93.88487335 -6.53474632 93.88487335 -6.50294495 92.28045654 C-6.43833747 88.9801595 -6.37898413 85.67979325 -6.31982422 82.37939453 C-6.27655421 80.1215753 -6.23293746 77.86376269 -6.18896484 75.60595703 C-6.08274931 70.11383951 -5.98082997 64.62165546 -5.88232422 59.12939453 C-6.83461914 58.83137939 -7.78691406 58.53336426 -8.76806641 58.22631836 C-11.92626857 57.11391617 -13.07746026 56.36289356 -15.13232422 53.81689453 C-15.61185547 53.24326172 -16.09138672 52.66962891 -16.58544922 52.07861328 C-20.70092756 45.89299975 -20.25465007 39.56975573 -20.25292969 32.37426758 C-20.25729024 30.33280167 -20.29361288 28.29352373 -20.33154297 26.25244141 C-20.35707759 17.63450682 -19.93306867 11.72023824 -14.06591797 5.07080078 C-13.20160156 4.38824219 -13.20160156 4.38824219 -12.31982422 3.69189453 C-11.74103516 3.21880859 -11.16224609 2.74572266 -10.56591797 2.25830078 C-7.11935149 -0.05273799 -4.02042751 0.00299791 0 0 Z " fill="#072C76" transform="translate(284.88232421875,256.87060546875)"/>
<path d="M0 0 C14.19 0 28.38 0 43 0 C42.92136719 4.49753906 42.84273438 8.99507813 42.76171875 13.62890625 C42.74082036 16.53225093 42.72388833 19.43460238 42.72070312 22.33789062 C42.71531986 26.91553644 42.69773958 31.49007711 42.59204102 36.06665039 C42.1583585 55.72259964 43.71779621 70.09815643 55.42623901 86.72396851 C57.55265889 89.79927578 59.29411981 92.97745254 61.05859375 96.2734375 C61.90260742 97.79614258 61.90260742 97.79614258 62.76367188 99.34960938 C63.5922168 100.84717773 63.5922168 100.84717773 64.4375 102.375 C69.27169891 111.09462982 74.12338363 119.80402266 79 128.5 C81.33415416 132.66620731 83.66723938 136.83301228 86 141 C86.3211377 141.57333069 86.64227539 142.14666138 86.97314453 142.73736572 C88.99282068 146.34345457 91.00946199 149.95121446 93.02246094 153.56103516 C93.96368352 155.24743147 94.90757001 156.93234014 95.8515625 158.6171875 C98.76398205 163.84542964 101.63130401 169.09770008 104.40234375 174.40234375 C104.88952881 175.32909912 105.37671387 176.25585449 105.87866211 177.21069336 C108.33688341 183.32547202 107.85978908 190.02081006 105.9375 196.25 C102.88994986 203.08562648 98.03457672 207.90131446 91.37065125 211.14379883 C87.02398705 212.71367081 82.69864697 212.52651166 78.125 212.4609375 C77.04327011 212.46092743 75.96154022 212.46091736 74.84703064 212.46090698 C71.23090174 212.45381962 67.61589739 212.41565355 64 212.375 C61.43823639 212.35842394 58.87646856 212.34248971 56.31469727 212.32714844 C48.35558348 212.27048423 40.3975398 212.15807314 32.4391861 212.03669739 C29.91559204 211.99873009 27.39197533 211.96274816 24.86834717 211.92712402 C14.01864013 211.7721872 3.17001935 211.58404235 -7.6784668 211.35919189 C-11.25780246 211.28506466 -14.83715677 211.21839361 -18.41674805 211.15789795 C-22.67809713 211.08466499 -26.93859821 210.99172594 -31.19921684 210.88425064 C-32.7738424 210.84740299 -34.34863041 210.81685131 -35.9235096 210.79320908 C-46.40926091 210.62949998 -55.66364954 210.00549588 -63.875 202.875 C-69.39433755 196.74240273 -71.91726883 189.2223121 -71.48779297 180.99731445 C-69.98217446 171.74582375 -63.31013604 162.92527276 -58.4375 155.0625 C-57.5235144 153.57399536 -57.5235144 153.57399536 -56.59106445 152.05541992 C-54.7332039 149.03330329 -52.86807683 146.01581039 -51 143 C-50.45923828 142.12666016 -49.91847656 141.25332031 -49.36132812 140.35351562 C-47.27498855 136.98567908 -45.18775063 133.61840385 -43.09838867 130.25244141 C-37.8818487 121.83705769 -32.74031604 113.37643196 -27.61181641 104.90722656 C-26.89095286 103.71679546 -26.17008696 102.52636578 -25.44921875 101.3359375 C-25.08914734 100.74123657 -24.72907593 100.14653564 -24.35809326 99.53381348 C-22.05114817 95.72640281 -19.73406012 91.92535066 -17.40963745 88.12858582 C-15.8369539 85.55952081 -14.26699337 82.98879656 -12.69714355 80.41799927 C-11.94742782 79.19197811 -11.1963932 77.96676237 -10.44396973 76.74240112 C-9.3979879 75.04002431 -8.35709016 73.3345269 -7.31640625 71.62890625 C-6.72287354 70.66025635 -6.12934082 69.69160645 -5.51782227 68.69360352 C-2.08531932 62.60211164 -1.68326995 57.87339518 -1.62109375 50.9765625 C-1.60409927 49.99819427 -1.5871048 49.01982605 -1.56959534 48.0118103 C-1.51658761 44.88293934 -1.4763181 41.75407648 -1.4375 38.625 C-1.39312995 35.53170451 -1.34591367 32.43849615 -1.29469299 29.3453064 C-1.26352188 27.42514611 -1.2364149 25.50491304 -1.21446228 23.58462524 C-1.09633764 15.67146478 -0.52895567 7.93433501 0 0 Z " fill="#FDFEFE" transform="translate(300,318)"/>
<path d="M0 0 C1.01416992 0.72231812 1.01416992 0.72231812 2.04882812 1.45922852 C7.68424834 5.32262728 13.60409922 8.59774343 19.58007812 11.90063477 C21.19462891 12.79878906 21.19462891 12.79878906 22.84179688 13.71508789 C24.94823051 14.88632657 27.05880763 16.05015013 29.17382812 17.20581055 C30.99391035 18.22807783 32.79107073 19.2936144 34.54882812 20.41967773 C39.01766566 23.22918779 42.3076519 24.65371859 47.60302734 23.6784668 C53.02279527 21.83982682 57.7942413 18.76529635 62.64257812 15.77563477 C63.74666016 15.11241211 64.85074219 14.44918945 65.98828125 13.76586914 C68.69455113 12.13742103 71.39101237 10.49478281 74.08007812 8.83813477 C78.91266055 11.88911998 83.1248406 15.35855838 87.39257812 19.15063477 C88.63652928 20.25331702 89.88264713 21.35355955 91.13085938 22.45141602 C92.02098473 23.24973343 92.02098473 23.24973343 92.92909241 24.06417847 C95.03553934 25.8849121 95.03553934 25.8849121 97.40977478 27.26821899 C101.00090352 29.55886266 103.64193818 31.28957258 104.83479309 35.50559998 C105.03847934 38.74975762 104.96227157 41.87766822 104.78320312 45.12329102 C104.75861023 46.29774277 104.73401733 47.47219452 104.7086792 48.68223572 C104.62542626 52.42434321 104.48222561 56.16074358 104.33007812 59.90063477 C104.19919391 63.64358655 104.0817537 67.38551833 103.99432373 71.12974548 C103.93799703 73.45555705 103.85574983 75.78092209 103.7444458 78.10475159 C103.45642112 84.71315655 103.45642112 84.71315655 106.32958984 90.43310547 C108.61127519 92.42821308 110.59574103 94.05947279 113.25976562 95.47094727 C114.02417969 95.88473633 114.78859375 96.29852539 115.57617188 96.72485352 C116.36121094 97.13348633 117.14625 97.54211914 117.95507812 97.96313477 C119.51512858 98.79878368 121.07502651 99.63471739 122.63476562 100.47094727 C123.38081055 100.86572266 124.12685547 101.26049805 124.89550781 101.66723633 C127.99441616 103.32820687 131.0370189 105.07721783 134.08007812 106.83813477 C133.62025698 110.67455299 133.06175741 114.48972481 132.46044922 118.30639648 C132.18285233 120.15407282 131.92854587 122.00529167 131.68798828 123.8581543 C129.06229296 143.69773015 129.06229296 143.69773015 124.68164062 148.42797852 C121.54030284 149.91258336 118.40339125 150.82764329 115.08007812 151.83813477 C112.26435061 153.2810623 109.58645928 154.93100183 106.89257812 156.58813477 C105.45109998 157.45216958 104.00837236 158.31412305 102.56445312 159.17407227 C101.46907227 159.82907715 101.46907227 159.82907715 100.3515625 160.49731445 C98.00976635 161.87963866 95.65005789 163.22578307 93.28320312 164.56469727 C92.50614014 165.00845703 91.72907715 165.4522168 90.9284668 165.90942383 C89.43586691 166.76069835 87.93878463 167.60417442 86.43676758 168.4387207 C81.64066646 171.18824961 81.64066646 171.18824961 79.08007812 175.83813477 C78.84543893 178.33400587 78.7085007 180.73025199 78.66601562 183.22875977 C78.64664948 183.93337341 78.62728333 184.63798706 78.60733032 185.36395264 C78.54775078 187.60522516 78.50123689 189.84654966 78.45507812 192.08813477 C78.41687834 193.61159414 78.37782544 195.13503238 78.33789062 196.65844727 C78.24206794 200.38481582 78.15795705 204.11134312 78.08007812 207.83813477 C75.11007812 208.82813477 72.14007813 209.81813477 69.08007812 210.83813477 C68.10000954 209.21367857 67.12105177 207.58855216 66.14257812 205.96313477 C65.59730469 205.05821289 65.05203125 204.15329102 64.49023438 203.22094727 C62.58614705 200.00351439 61.95449935 198.30468429 61.95068359 194.59472656 C61.94753143 193.71588303 61.94437927 192.83703949 61.94113159 191.93156433 C61.94416794 190.49892998 61.94416794 190.49892998 61.94726562 189.03735352 C61.9463089 188.0499971 61.94535217 187.06264069 61.94436646 186.04536438 C61.94368449 183.9462579 61.94553992 181.84714933 61.94970703 179.74804688 C61.95499275 176.57685412 61.94979532 173.4058071 61.94335938 170.23461914 C61.92790345 144.36292563 61.92790345 144.36292563 63.08007812 139.83813477 C64.9980756 137.97739865 66.66481859 136.94529176 69.07617188 135.81079102 C73.09979347 133.85780509 75.4584623 129.88442365 77.08007812 125.83813477 C77.48063038 121.31526027 77.45168886 116.78730758 77.45068359 112.24902344 C77.45504398 110.04290819 77.49134726 107.83881654 77.52929688 105.63305664 C77.53516848 104.21574571 77.53913557 102.79842536 77.54101562 101.38110352 C77.5492334 100.10259521 77.55745117 98.82408691 77.56591797 97.50683594 C76.8411771 92.03413192 74.69014202 88.36563128 70.64257812 84.52563477 C65.35244841 81.04189081 60.56614062 80.45247647 54.32617188 80.22875977 C52.97403847 80.17307831 52.97403847 80.17307831 51.59458923 80.11627197 C38.89621807 79.65023329 26.18714778 79.61451435 13.48168945 79.59790039 C9.82713704 79.59232864 6.172941 79.56803854 2.51850224 79.53992844 C-0.33058234 79.52130305 -3.17957864 79.51609744 -6.02871895 79.51456451 C-8.02618361 79.51011248 -10.02360087 79.49152063 -12.02098083 79.47259521 C-13.23407425 79.47559631 -14.44716766 79.47859741 -15.69702148 79.48168945 C-17.28745522 79.47622101 -17.28745522 79.47622101 -18.91001892 79.47064209 C-24.01420656 80.09383546 -27.15140695 82.03468735 -30.66992188 85.71313477 C-35.52467151 92.45584259 -35.29246476 98.49000258 -35.29052734 106.59326172 C-35.2948879 108.63472763 -35.33121053 110.67400557 -35.36914062 112.71508789 C-35.39138674 120.22315116 -35.12874847 125.52489487 -30.91992188 131.83813477 C-28.11573669 134.50211069 -25.36581489 136.15899198 -21.91992188 137.83813477 C-21.89435722 144.45433721 -21.87696576 151.0705267 -21.86499023 157.68676758 C-21.85999246 159.93286617 -21.85319201 162.17896156 -21.84448242 164.42504883 C-21.83221568 167.67212723 -21.82664786 170.91916225 -21.82226562 174.16625977 C-21.81710434 175.15426575 -21.81194305 176.14227173 -21.80662537 177.16021729 C-21.80505471 197.12512289 -21.80505471 197.12512289 -24.98242188 201.27563477 C-28.34019866 204.2047592 -31.74490146 207.16978665 -35.91992188 208.83813477 C-39.08129496 208.36517661 -40.8472056 207.32818636 -43.20507812 205.21313477 C-43.81931641 204.67043945 -44.43355469 204.12774414 -45.06640625 203.56860352 C-45.69869141 202.99754883 -46.33097656 202.42649414 -46.98242188 201.83813477 C-48.22169528 200.73215914 -49.46262589 199.62803809 -50.70507812 198.52563477 C-51.35428223 197.91623047 -52.00348633 197.30682617 -52.67236328 196.67895508 C-54.91401762 194.7113257 -54.91401762 194.7113257 -57.85107422 193.33325195 C-61.37167935 191.28990702 -64.06431138 189.48667756 -65.91992188 185.83813477 C-67.74105712 177.12909587 -66.81328605 167.91089747 -66.41992188 159.08813477 C-66.29964795 155.41978003 -66.19515868 151.75168883 -66.10559082 148.0824585 C-66.045434 145.80580642 -65.96508648 143.52957629 -65.86218262 141.25445557 C-65.82645142 140.22278259 -65.79072021 139.19110962 -65.75390625 138.12817383 C-65.69414612 136.77323822 -65.69414612 136.77323822 -65.63317871 135.39093018 C-65.99001128 132.21414811 -67.06233385 130.41539863 -68.91992188 127.83813477 C-71.42222326 125.93837846 -71.42222326 125.93837846 -74.35742188 124.35766602 C-75.41703125 123.75116211 -76.47664063 123.1446582 -77.56835938 122.51977539 C-78.674375 121.90295898 -79.78039062 121.28614258 -80.91992188 120.65063477 C-83.10767613 119.40759257 -85.2951873 118.16412242 -87.48242188 116.92016602 C-88.45308594 116.37593994 -89.42375 115.83171387 -90.42382812 115.27099609 C-92.29714758 114.19563304 -94.12266791 113.03630407 -95.91992188 111.83813477 C-95.50282027 108.72084912 -95.05420701 105.61583814 -94.55664062 102.51000977 C-94.02087647 98.97787705 -93.76730043 95.48228124 -93.56445312 91.91625977 C-92.35905834 76.53073463 -92.35905834 76.53073463 -88.26123047 72.00708008 C-83.87076607 68.81813692 -78.86821733 67.00949861 -73.83496094 65.07397461 C-68.30177224 62.72816211 -63.20844104 59.58209231 -58.04492188 56.52563477 C-57.0172168 55.93766113 -55.98951172 55.3496875 -54.93066406 54.74389648 C-46.66468351 50.1299391 -46.66468351 50.1299391 -40.91992188 42.83813477 C-40.76384165 40.43253203 -40.66187729 38.05110705 -40.60351562 35.64282227 C-40.58273453 34.93537872 -40.56195343 34.22793518 -40.5405426 33.49905396 C-40.47511109 31.23718051 -40.41619214 28.97519015 -40.35742188 26.71313477 C-40.31423055 25.18057055 -40.27061606 23.64801819 -40.2265625 22.11547852 C-40.11943632 18.35648404 -40.01815097 14.59737184 -39.91992188 10.83813477 C-32.14522458 7.54739328 -24.33844525 4.39145296 -16.41992188 1.46313477 C-14.97746094 0.91206055 -14.97746094 0.91206055 -13.50585938 0.34985352 C-12.5803125 0.00825195 -11.65476562 -0.33334961 -10.70117188 -0.68530273 C-9.87681641 -0.99387207 -9.05246094 -1.30244141 -8.203125 -1.62036133 C-4.81925223 -2.42290942 -2.93385259 -1.77545835 0 0 Z " fill="#FDFDFE" transform="translate(300.919921875,178.161865234375)"/>
<path d="M0 0 C4.16784814 3.5195162 8.23454761 7.11966646 12.25 10.8125 C14.16519907 12.54329201 16.08190036 14.27242301 18 16 C18.4861377 16.44972168 18.97227539 16.89944336 19.47314453 17.36279297 C20.9016766 18.67825865 22.35681793 19.96464264 23.8125 21.25 C24.66457031 22.01828125 25.51664062 22.7865625 26.39453125 23.578125 C28.94930367 25.35573085 28.94930367 25.35573085 31.84082031 24.27880859 C34.85065741 23.06045259 37.41146653 21.69210031 40.15234375 19.9609375 C41.09400391 19.38085938 42.03566406 18.80078125 43.00585938 18.203125 C44.96099556 16.98393282 46.91154073 15.75734741 48.85742188 14.5234375 C49.80037109 13.9459375 50.74332031 13.3684375 51.71484375 12.7734375 C52.56167725 12.24153809 53.40851074 11.70963867 54.28100586 11.16162109 C57.79121667 9.6619728 60.20876815 9.60584916 64 10 C67.11108398 11.31005859 67.11108398 11.31005859 70.24609375 13.1484375 C70.8151091 13.47682114 71.38412445 13.80520477 71.97038269 14.14353943 C73.80189034 15.20587906 75.61965181 16.28948118 77.4375 17.375 C78.69326847 18.11125894 79.94961925 18.84652556 81.20654297 19.58081055 C84.81794354 21.69823524 88.41030748 23.84597732 92 26 C92.93505371 26.55800293 93.87010742 27.11600586 94.83349609 27.69091797 C97.10524655 29.05236497 99.36837056 30.42616556 101.625 31.8125 C102.26236084 32.20163574 102.89972168 32.59077148 103.55639648 32.99169922 C106.45987179 34.81879809 108.06238834 36.09358251 110 39 C110.27415466 41.33920288 110.27415466 41.33920288 110.30639648 44.12646484 C110.32238388 45.17119965 110.33837128 46.21593445 110.35484314 47.29232788 C110.36020584 48.42046906 110.36556854 49.54861023 110.37109375 50.7109375 C110.38012222 51.87122467 110.3891507 53.03151184 110.39845276 54.22695923 C110.41297007 56.68318088 110.42184565 59.13944134 110.42553711 61.59570312 C110.43743203 65.35352757 110.48660564 69.10970981 110.53710938 72.8671875 C110.54657345 75.25259614 110.55380856 77.63801488 110.55859375 80.0234375 C110.57812607 81.14753021 110.59765839 82.27162292 110.61778259 83.42977905 C110.57261982 91.2399083 110.57261982 91.2399083 107.64355469 95.12792969 C104.75083875 97.17644703 101.87545153 99.08678211 98.8125 100.875 C98.19536133 101.23650146 97.57822266 101.59800293 96.94238281 101.97045898 C95.50029035 102.81281706 94.05592617 103.65129266 92.60986328 104.48681641 C90.09893635 105.94263728 87.59637161 107.41217323 85.09550476 108.88519287 C82.74133052 110.27004698 80.38335379 111.64833263 78.02450562 113.02520752 C76.84307648 113.7158154 75.66275226 114.40831702 74.48355103 115.10272217 C72.81047083 116.08656834 71.13189233 117.06104594 69.453125 118.03515625 C67.98601074 118.89185913 67.98601074 118.89185913 66.48925781 119.76586914 C64 121 64 121 61 121 C60.83564453 122.09441406 60.83564453 122.09441406 60.66796875 123.2109375 C59.88818098 128.34612524 59.10040907 133.47454638 58.19921875 138.58984375 C58.06298096 139.37246582 57.92674316 140.15508789 57.78637695 140.96142578 C57.51833298 142.49333286 57.24499222 144.02432552 56.96557617 145.55419922 C56.11609652 150.4413021 55.87667284 155.03888461 56 160 C56.6705542 160.36762451 57.3411084 160.73524902 58.03198242 161.11401367 C61.08876531 162.79636759 64.13811728 164.49177248 67.1875 166.1875 C68.24259766 166.76564453 69.29769531 167.34378906 70.38476562 167.93945312 C75.59047738 170.84611237 80.111657 173.4455597 84 178 C84.33 178.33 84.66 178.66 85 179 C85.11943923 180.59407434 85.17011866 182.19336728 85.19287109 183.79174805 C85.20893402 184.81338547 85.22499695 185.83502289 85.24154663 186.88761902 C85.28589074 191.57928943 85.32708476 196.27081545 85.35009766 200.96264648 C85.36664001 203.43702613 85.3939069 205.91135833 85.43212891 208.38549805 C85.48692109 211.94865783 85.50877905 215.51069425 85.5234375 219.07421875 C85.54610687 220.17755051 85.56877625 221.28088226 85.59213257 222.41764832 C85.56855487 230.9998039 85.56855487 230.9998039 82.82250977 234.52124023 C80.07768028 236.9317803 77.49960207 238.8011992 74.31640625 240.5859375 C73.23012939 241.2032373 72.14385254 241.82053711 71.0246582 242.45654297 C69.882146 243.08963379 68.73963379 243.72272461 67.5625 244.375 C66.38249481 245.03822665 65.20305298 245.7024566 64.02416992 246.36767578 C61.71994936 247.66670668 59.41277473 248.95988158 57.10351562 250.25 C54.52051644 251.70649293 51.96377018 253.19219942 49.421875 254.71875 C48.79337646 255.09338379 48.16487793 255.46801758 47.51733398 255.85400391 C45.95265919 256.79106104 44.39213406 257.73503809 42.83203125 258.6796875 C39.1765976 260.38387588 37.08966237 261.09472531 33 261 C28.81618442 259.27681747 25.0045848 257.00411192 21.125 254.6875 C20.02325439 254.04756104 18.92150879 253.40762207 17.78637695 252.74829102 C15.56249736 251.45392929 13.34310335 250.15182794 11.12841797 248.84179688 C8.3427022 247.20175943 5.54074994 245.59913046 2.72265625 244.015625 C1.21059042 243.15686083 -0.30115464 242.2975315 -1.8125 241.4375 C-2.49231934 241.05746826 -3.17213867 240.67743652 -3.87255859 240.28588867 C-7.88625921 237.95360318 -10.6433286 236.01198986 -13 232 C-13.61262235 227.96127701 -13.58415678 223.9537657 -13.56640625 219.875 C-13.57260483 218.69534668 -13.57880341 217.51569336 -13.58518982 216.30029297 C-13.59228629 213.80892766 -13.58911711 211.31751491 -13.57641602 208.82617188 C-13.56254887 205.0134362 -13.5966305 201.20315352 -13.63476562 197.390625 C-13.6357168 194.9687494 -13.63385808 192.54687073 -13.62890625 190.125 C-13.64216446 188.98530762 -13.65542267 187.84561523 -13.66908264 186.67138672 C-13.57642381 178.80063482 -13.57642381 178.80063482 -10.80004883 174.94433594 C-8.10144037 173.07043955 -5.45741502 171.33456044 -2.5703125 169.765625 C-1.01594482 168.91025146 -1.01594482 168.91025146 0.56982422 168.03759766 C1.66053223 167.44769043 2.75124023 166.8577832 3.875 166.25 C6.12609048 165.01500642 8.37609401 163.77802954 10.625 162.5390625 C11.71554687 161.93868164 12.80609375 161.33830078 13.9296875 160.71972656 C18.59148359 158.10858696 23.15535446 155.34446059 27.67138672 152.48925781 C30.37893436 150.81049733 31.73984957 150 35 150 C35.17015625 148.69289063 35.3403125 147.38578125 35.515625 146.0390625 C37.10556776 134.19638447 39.20572508 122.61680793 42 111 C41.18402344 110.76796875 40.36804688 110.5359375 39.52734375 110.296875 C35.22639327 108.71557316 31.49210968 106.5848344 27.5625 104.25 C26.83740234 103.83234375 26.11230469 103.4146875 25.36523438 102.984375 C13.49364053 95.98728105 13.49364053 95.98728105 11 91 C10.90471674 89.38186766 10.87205037 87.75985065 10.87060547 86.13891602 C10.86745331 85.1276918 10.86430115 84.11646759 10.86105347 83.07460022 C10.8630777 81.97877121 10.86510193 80.8829422 10.8671875 79.75390625 C10.86575241 78.07082619 10.86575241 78.07082619 10.86428833 76.35374451 C10.86360686 73.97728418 10.86545884 71.600822 10.86962891 69.22436523 C10.87497261 65.58117496 10.86968534 61.93810826 10.86328125 58.29492188 C10.86394214 55.98958306 10.86522351 53.68424432 10.8671875 51.37890625 C10.86516327 50.28510147 10.86313904 49.19129669 10.86105347 48.06434631 C10.86420563 47.04996994 10.86735779 46.03559357 10.87060547 44.99047852 C10.87140106 44.09716324 10.87219666 43.20384796 10.87301636 42.28346252 C11 40 11 40 12 37 C11.40848145 36.72687988 10.81696289 36.45375977 10.20751953 36.17236328 C8.06606855 35.0350875 6.48592604 33.84719768 4.6796875 32.2421875 C3.75941772 31.43237427 3.75941772 31.43237427 2.82055664 30.60620117 C2.17852295 30.03490479 1.53648926 29.4636084 0.875 28.875 C-4.96017211 23.74423228 -10.8683318 18.77548747 -17 14 C-13.50703171 10.23958866 -9.79477353 8.02778445 -5.33984375 5.5625 C-2.92375096 3.94908244 -1.5850322 2.41132768 0 0 Z " fill="#082D77" transform="translate(393,174)"/>
<path d="M0 0 C3.33561773 0.59196361 6.66794837 1.20080828 10 1.8125 C10.93457031 1.97814453 11.86914062 2.14378906 12.83203125 2.31445312 C18.50583877 3.36589298 23.84066037 4.36652807 29 7 C30.71687972 9.53141348 31.80017645 11.48774139 32.9375 14.25 C33.59915742 15.69891258 34.26596847 17.14548105 34.9375 18.58984375 C35.27394531 19.32444824 35.61039062 20.05905273 35.95703125 20.81591797 C40.90268713 31.1726215 47.42274593 40.41156991 55 49 C56.13115234 50.29550781 56.13115234 50.29550781 57.28515625 51.6171875 C59.4924507 54.10843921 61.73869948 56.55779544 64 59 C64.56460938 59.64195312 65.12921875 60.28390625 65.7109375 60.9453125 C79.83630504 76.22116247 99.70488676 86.64098246 118.671875 94.58984375 C121.17343363 95.64977646 123.59473542 96.7427026 126 98 C120.99911785 100.67475147 115.93405953 100.28716837 110.41796875 100.265625 C109.33199402 100.26844482 108.24601929 100.27126465 107.12713623 100.27416992 C103.48046691 100.27850823 99.83413569 100.26564335 96.1875 100.25 C94.92865997 100.24689819 93.66981995 100.24379639 92.37283325 100.24060059 C69.68578025 100.17617337 47.00033338 99.84165714 24.31851196 99.36120605 C20.74046462 99.28557002 17.16240751 99.21802234 13.58407593 99.15734863 C9.32252081 99.0840837 5.06180404 98.9913381 0.80097198 98.88412476 C-0.77373462 98.84736075 -2.3486025 98.81686306 -3.9235611 98.79324341 C-14.4092822 98.62951662 -23.66367901 98.00547029 -31.875 90.875 C-37.39433755 84.74240273 -39.91726883 77.2223121 -39.48779297 68.99731445 C-37.98219213 59.74593235 -31.31013446 50.92509716 -26.4375 43.0625 C-25.83615234 42.08321533 -25.23480469 41.10393066 -24.61523438 40.0949707 C-22.74920325 37.05974532 -20.87573304 34.02923772 -19 31 C-18.40074707 30.03094727 -17.80149414 29.06189453 -17.18408203 28.06347656 C-12.65422083 20.73939048 -12.65422083 20.73939048 -10.43920898 17.17797852 C-6.90166071 11.48603977 -3.4328578 5.75566694 0 0 Z " fill="#92B1F3" transform="translate(268,430)"/>
<path d="M0 0 C4.42139295 1.91711599 8.46040008 4.35640371 12.5625 6.875 C13.71471869 7.56572277 14.86780269 8.25500407 16.02172852 8.94287109 C18.30495948 10.30900982 20.57807692 11.68871953 22.84863281 13.07617188 C25.60200281 14.75703301 28.36973721 16.40841153 31.1484375 18.046875 C32.57918682 18.90448104 34.00896971 19.76370275 35.4375 20.625 C36.07437744 21.00124512 36.71125488 21.37749023 37.36743164 21.76513672 C41.14345958 24.10445515 43.20818474 25.93734373 45 30 C45.47621547 33.72426484 45.49193314 37.42858408 45.50390625 41.1796875 C45.51389145 42.26581329 45.52387665 43.35193909 45.53416443 44.47097778 C45.54933289 46.76560666 45.55639062 49.06030151 45.5559082 51.35498047 C45.5624649 54.85625817 45.61695099 58.35469313 45.67382812 61.85546875 C45.6826317 64.088532 45.68858491 66.32160868 45.69140625 68.5546875 C45.7129628 69.59656219 45.73451935 70.63843689 45.75672913 71.71188354 C45.70062936 77.69494079 45.03767758 81.31660782 40.70506287 85.59594727 C38.15006729 87.69988642 35.53763893 89.37237 32.640625 90.97265625 C31.75670074 91.46915932 31.75670074 91.46915932 30.85491943 91.97569275 C28.99355678 93.01774646 27.12248464 94.04059321 25.25 95.0625 C23.40047862 96.08885343 21.55316137 97.11908372 19.70617676 98.1499939 C18.50084073 98.8206358 17.2934081 99.487524 16.0838623 100.15054321 C12.51521592 102.1133234 9.08802438 104.21890913 5.671875 106.43359375 C1.12036043 109.12032562 -2.65371444 110.88628263 -8 110 C-12.60855853 108.16398414 -16.81293444 105.72342381 -21.0625 103.1875 C-22.26208021 102.49275809 -23.46260889 101.79965138 -24.6640625 101.1081543 C-28.12857296 99.10352026 -31.56523702 97.0551805 -35 95 C-35.91120605 94.46149414 -36.82241211 93.92298828 -37.76123047 93.36816406 C-40.01706447 92.03127378 -42.26225183 90.67940431 -44.5 89.3125 C-45.13301025 88.92795654 -45.76602051 88.54341309 -46.41821289 88.1472168 C-49.66464194 86.09921668 -51.98739756 84.27236913 -54 81 C-54.39440918 78.5852356 -54.39440918 78.5852356 -54.41992188 75.86767578 C-54.43583374 74.84626495 -54.45174561 73.82485413 -54.46813965 72.77249146 C-54.46834106 71.6745224 -54.46854248 70.57655334 -54.46875 69.4453125 C-54.47636353 68.311008 -54.48397705 67.17670349 -54.49182129 66.00802612 C-54.5026246 63.60905152 -54.50547448 61.21002987 -54.50097656 58.81103516 C-54.50000539 55.1453577 -54.54160425 51.48178086 -54.5859375 47.81640625 C-54.59114538 45.48437936 -54.59383268 43.1523452 -54.59375 40.8203125 C-54.61014526 39.72639191 -54.62654053 38.63247131 -54.64343262 37.50540161 C-54.5665129 29.01018462 -54.5665129 29.01018462 -51.81811523 25.48535156 C-49.07570655 23.0667671 -46.50249837 21.20042468 -43.31640625 19.4140625 C-42.23029053 18.79668213 -41.1441748 18.17930176 -40.02514648 17.54321289 C-38.88247314 16.91020264 -37.7397998 16.27719238 -36.5625 15.625 C-35.38108493 14.96241012 -34.20017823 14.29891298 -33.01977539 13.63452148 C-30.71363448 12.33708159 -28.40505451 11.04441026 -26.09472656 9.75439453 C-23.52608793 8.29823823 -21.00024515 6.80312529 -18.4921875 5.24609375 C-17.8727124 4.86694824 -17.2532373 4.48780273 -16.61499023 4.09716797 C-15.07905322 3.14980935 -13.55267728 2.18699463 -12.02734375 1.22265625 C-7.76981147 -0.49683743 -4.52240601 -0.93447347 0 0 Z " fill="#082C75" transform="translate(191,281)"/>
<path d="M0 0 C1.67768761 0.80216926 3.32453905 1.67032699 4.9453125 2.58203125 C6.39526611 3.39365723 6.39526611 3.39365723 7.87451172 4.22167969 C9.42162842 5.10194824 9.42162842 5.10194824 11 6 C12.06105957 6.59973633 13.12211914 7.19947266 14.21533203 7.81738281 C17.56710921 9.72064081 20.90947201 11.63957482 24.25 13.5625 C25.38179688 14.20896484 26.51359375 14.85542969 27.6796875 15.52148438 C43.23779799 24.47559597 43.23779799 24.47559597 45 28 C45.11568576 29.66291118 45.16954651 31.33030316 45.19287109 32.99707031 C45.20893402 34.03865295 45.22499695 35.0802356 45.24154663 36.15338135 C45.28597039 40.92402539 45.32706834 45.6945295 45.35009766 50.46533203 C45.36665272 52.98137667 45.3939364 55.49737437 45.43212891 58.01318359 C45.48690326 61.63924585 45.50877458 65.26420469 45.5234375 68.890625 C45.54610687 70.01269348 45.56877625 71.13476196 45.59213257 72.29083252 C45.5685598 81.01009224 45.5685598 81.01009224 42.77929688 84.56225586 C40.24752102 86.78289728 37.96119459 88.513933 35.0078125 90.11328125 C34.06244629 90.6350293 33.11708008 91.15677734 32.14306641 91.69433594 C31.14710449 92.22833008 30.15114258 92.76232422 29.125 93.3125 C27.05093661 94.44712509 24.97802019 95.58384928 22.90625 96.72265625 C21.89691406 97.2758252 20.88757813 97.82899414 19.84765625 98.39892578 C17.34144195 99.80802672 14.89782307 101.27155003 12.46875 102.80859375 C11.80858887 103.22520264 11.14842773 103.64181152 10.46826172 104.07104492 C8.7555593 105.16649392 7.05310557 106.27792142 5.3515625 107.390625 C1.12168493 109.42175502 -2.29241941 110.45814254 -7 110 C-10.76274754 108.65432825 -14.07618208 106.73187458 -17.5 104.6875 C-18.45326172 104.14150146 -19.40652344 103.59550293 -20.38867188 103.03295898 C-22.33413174 101.9141896 -24.27366366 100.78504667 -26.20703125 99.64550781 C-28.79188442 98.12261355 -31.39141969 96.63020353 -34 95.1484375 C-35.5008684 94.28797128 -37.00092019 93.42607848 -38.5 92.5625 C-39.17482422 92.17473389 -39.84964844 91.78696777 -40.54492188 91.38745117 C-50.83896847 85.32206306 -50.83896847 85.32206306 -53 81 C-53.11553689 79.36772933 -53.1695231 77.73091456 -53.19287109 76.09472656 C-53.20893402 75.07316467 -53.22499695 74.05160278 -53.24154663 72.99908447 C-53.28597741 68.32003402 -53.32706881 63.64112616 -53.35009766 58.96191406 C-53.36665182 56.49437017 -53.39393434 54.02687412 -53.43212891 51.55957031 C-53.4869113 48.00300194 -53.50877575 44.44755856 -53.5234375 40.890625 C-53.54610687 39.7904303 -53.56877625 38.6902356 -53.59213257 37.55670166 C-53.56855806 29.00240303 -53.56855806 29.00240303 -50.82470703 25.48095703 C-48.0685599 23.06021657 -45.48263968 21.1973481 -42.28125 19.4140625 C-41.18997803 18.79668213 -40.09870605 18.17930176 -38.97436523 17.54321289 C-37.82782471 16.91020264 -36.68128418 16.27719238 -35.5 15.625 C-33.14471068 14.30768701 -30.79304921 12.98396474 -28.44140625 11.66015625 C-27.32137207 11.03125488 -26.20133789 10.40235352 -25.04736328 9.75439453 C-21.40655056 7.6583458 -17.93277331 5.39129354 -14.4375 3.0625 C-9.38862987 -0.04292887 -5.82739581 -1.51073923 0 0 Z " fill="#062B75" transform="translate(349,93)"/>
<path d="M0 0 C2.91162109 1.21826172 2.91162109 1.21826172 5.7734375 2.9296875 C6.83812256 3.55576904 7.90280762 4.18185059 8.99975586 4.8269043 C10.11358643 5.50277588 11.22741699 6.17864746 12.375 6.875 C13.53379911 7.56488239 14.69339239 8.2534325 15.85375977 8.94067383 C18.16314128 10.31068286 20.46766875 11.68836456 22.76904297 13.07177734 C25.62201871 14.77442223 28.49086619 16.43983401 31.37890625 18.08203125 C32.16023926 18.52885254 32.94157227 18.97567383 33.74658203 19.43603516 C35.16541198 20.24647892 36.58681406 21.05244294 38.01123047 21.85302734 C41.48233526 23.86506717 43.91181399 25.56430566 46 29 C46.39440918 31.4147644 46.39440918 31.4147644 46.41992188 34.13232422 C46.44378967 35.66444046 46.44378967 35.66444046 46.46813965 37.22750854 C46.46834106 38.3254776 46.46854248 39.42344666 46.46875 40.5546875 C46.48017029 42.25614426 46.48017029 42.25614426 46.49182129 43.99197388 C46.5026246 46.39094848 46.50547448 48.78997013 46.50097656 51.18896484 C46.50000539 54.8546423 46.54160425 58.51821914 46.5859375 62.18359375 C46.59114538 64.51562064 46.59383268 66.8476548 46.59375 69.1796875 C46.61014526 70.27360809 46.62654053 71.36752869 46.64343262 72.49459839 C46.5665129 80.98981538 46.5665129 80.98981538 43.81811523 84.51464844 C41.07570655 86.9332329 38.50249837 88.79957532 35.31640625 90.5859375 C34.23012939 91.2032373 33.14385254 91.82053711 32.0246582 92.45654297 C30.882146 93.08963379 29.73963379 93.72272461 28.5625 94.375 C27.38249481 95.03822665 26.20305298 95.7024566 25.02416992 96.36767578 C22.71994936 97.66670668 20.41277473 98.95988158 18.10351562 100.25 C15.52051644 101.70649293 12.96377018 103.19219942 10.421875 104.71875 C9.79337646 105.09338379 9.16487793 105.46801758 8.51733398 105.85400391 C6.95265919 106.79106104 5.39213406 107.73503809 3.83203125 108.6796875 C0.1765976 110.38387588 -1.91033763 111.09472531 -6 111 C-10.18381558 109.27681747 -13.9954152 107.00411192 -17.875 104.6875 C-18.97674561 104.04756104 -20.07849121 103.40762207 -21.21362305 102.74829102 C-23.43750264 101.45392929 -25.65689665 100.15182794 -27.87158203 98.84179688 C-30.6572978 97.20175943 -33.45925006 95.59913046 -36.27734375 94.015625 C-37.78940958 93.15686083 -39.30115464 92.2975315 -40.8125 91.4375 C-41.49231934 91.05746826 -42.17213867 90.67743652 -42.87255859 90.28588867 C-46.88625921 87.95360318 -49.6433286 86.01198986 -52 82 C-52.61262235 77.96127701 -52.58415678 73.9537657 -52.56640625 69.875 C-52.57260483 68.69534668 -52.57880341 67.51569336 -52.58518982 66.30029297 C-52.59228629 63.80892766 -52.58911711 61.31751491 -52.57641602 58.82617188 C-52.56254887 55.0134362 -52.5966305 51.20315352 -52.63476562 47.390625 C-52.6357168 44.9687494 -52.63385808 42.54687073 -52.62890625 40.125 C-52.64216446 38.98530762 -52.65542267 37.84561523 -52.66908264 36.67138672 C-52.57642381 28.80063482 -52.57642381 28.80063482 -49.80004883 24.94433594 C-47.10144037 23.07043955 -44.45741502 21.33456044 -41.5703125 19.765625 C-40.53438965 19.19537598 -39.4984668 18.62512695 -38.43115234 18.03759766 C-37.34012207 17.44769043 -36.2490918 16.8577832 -35.125 16.25 C-26.09215869 11.34606864 -26.09215869 11.34606864 -17.265625 6.0859375 C-16.5938623 5.6640918 -15.92209961 5.24224609 -15.22998047 4.80761719 C-13.50746841 3.70945341 -11.79619564 2.59371449 -10.0859375 1.4765625 C-6.35907413 -0.30667086 -4.10453538 -0.30816799 0 0 Z " fill="#082B76" transform="translate(432,324)"/>
<path d="M0 0 C1.19625 0.4125 2.3925 0.825 3.625 1.25 C7.73037456 2.60982438 11.85442719 3.89301849 16 5.125 C17.11375 5.45757812 18.2275 5.79015625 19.375 6.1328125 C37.6835469 10.51265885 61.02713959 9.4864302 78 1 C78.41137207 1.74757568 78.82274414 2.49515137 79.24658203 3.26538086 C81.20511817 6.82327053 83.16488894 10.38047784 85.125 13.9375 C85.48192932 14.58549561 85.83885864 15.23349121 86.206604 15.90112305 C90.14782778 23.05447397 94.10083628 30.20051467 98.109375 37.31640625 C98.74472168 38.44506104 99.38006836 39.57371582 100.03466797 40.73657227 C101.23929545 42.87271655 102.44655154 45.00738113 103.65673828 47.14038086 C104.20056152 48.10468018 104.74438477 49.06897949 105.3046875 50.0625 C105.77890137 50.89910156 106.25311523 51.73570312 106.74169922 52.59765625 C110.46018449 59.69697621 111.06130444 66.37508647 109.5703125 74.27734375 C107.86205778 79.60245877 104.49728728 84.66034778 100 88 C94.45084765 89.52122174 90.73048322 88.60278313 85.6875 86.1875 C85.00091309 85.86982666 84.31432617 85.55215332 83.60693359 85.22485352 C81.38936002 84.1785688 79.19321416 83.09636707 77 82 C76.27280762 81.63970703 75.54561523 81.27941406 74.79638672 80.90820312 C42.22785649 64.50502215 12.15167087 34.98569293 0 0 Z " fill="#D1DBFC" transform="translate(297,438)"/>
<path d="M0 0 C4.42566478 0.41808273 7.51017195 1.58420364 11.29296875 3.87109375 C12.25267578 4.44537109 13.21238281 5.01964844 14.20117188 5.61132812 C15.18666016 6.21396484 16.17214844 6.81660156 17.1875 7.4375 C18.18458984 8.03626953 19.18167969 8.63503906 20.20898438 9.25195312 C23.84928371 11.44398772 27.46402653 13.64268435 31 16 C31.26697888 18.62462244 31.34832984 21.01065933 31.29296875 23.6328125 C31.28872391 24.38464813 31.28447906 25.13648376 31.28010559 25.91110229 C31.2632917 28.31609685 31.22563624 30.72025809 31.1875 33.125 C31.17245659 34.75389416 31.15876758 36.38280144 31.14648438 38.01171875 C31.11337954 42.00813434 31.06158009 46.00392582 31 50 C30.3294458 50.37809814 29.6588916 50.75619629 28.96801758 51.14575195 C25.91578326 52.86730184 22.86413646 54.58989058 19.8125 56.3125 C18.75740234 56.90740234 17.70230469 57.50230469 16.61523438 58.11523438 C15.59365234 58.69208984 14.57207031 59.26894531 13.51953125 59.86328125 C12.58214111 60.39219971 11.64475098 60.92111816 10.67895508 61.46606445 C8.85831238 62.50854127 7.06400343 63.59810815 5.29614258 64.7277832 C3 66 3 66 0.7421875 65.4921875 C-0.16273438 64.99976563 -1.06765625 64.50734375 -2 64 C-2.64936523 63.65356445 -3.29873047 63.30712891 -3.96777344 62.95019531 C-6.28533069 61.70086313 -8.58099348 60.41702666 -10.875 59.125 C-11.65230469 58.69058594 -12.42960937 58.25617188 -13.23046875 57.80859375 C-17.8354795 55.23133563 -22.41786664 52.61836192 -27 50 C-27 38.78 -27 27.56 -27 16 C-14.0625 8.5625 -14.0625 8.5625 -9.97680664 6.21704102 C-8.92356201 5.61045654 -7.87031738 5.00387207 -6.78515625 4.37890625 C-5.70113525 3.7557251 -4.61711426 3.13254395 -3.50024414 2.49047852 C-1.14058329 1.22234919 -1.14058329 1.22234919 0 0 Z " fill="#FA8D02" transform="translate(343,115)"/>
<path d="M0 0 C19.14370465 7.62576448 19.14370465 7.62576448 22.99401855 15.88690186 C26.35211928 26.04038989 25.95919105 38.11700772 22.13745117 48.04907227 C17.15692632 54.35751484 10.17299714 57.45529064 2.72460938 60.0546875 C0.05013787 60.97350615 0.05013787 60.97350615 -2.38134766 62.73291016 C-4.86254883 64.04907227 -4.86254883 64.04907227 -7.30273438 63.87304688 C-17.41667902 60.61748529 -28.03485507 56.52252043 -34.86254883 48.04907227 C-39.25263798 37.89057539 -38.00397785 24.38888628 -34.86254883 14.04907227 C-31.82433832 8.98431979 -27.3582332 7.30191965 -21.88110352 5.72045898 C-18.63514826 4.64082945 -16.0889735 2.80487482 -13.23754883 0.92407227 C-8.0371742 -2.35347477 -5.70218558 -1.89424417 0 0 Z " fill="#B0D852" transform="translate(217.862548828125,164.950927734375)"/>
<path d="M0 0 C14.13351767 7.06824605 14.13351767 7.06824605 16.3671875 13.23364258 C18.64318823 23.62517731 17.10222895 34.87832511 15.66772461 45.30297852 C12.0418265 47.42723051 8.41221186 49.54494046 4.77905273 51.65673828 C3.54429289 52.37566521 2.31055601 53.09635215 1.07788086 53.81884766 C-0.69678317 54.85860041 -2.47506125 55.89191399 -4.25415039 56.92407227 C-5.32246094 57.54725342 -6.39077148 58.17043457 -7.49145508 58.8125 C-11.99359996 61.17461709 -11.99359996 61.17461709 -14.33227539 61.30297852 C-16.94189453 60.16308594 -16.94189453 60.16308594 -19.86743164 58.40844727 C-20.92381836 57.78260742 -21.98020508 57.15676758 -23.06860352 56.51196289 C-24.16624023 55.84487305 -25.26387695 55.1777832 -26.39477539 54.49047852 C-28.04703125 53.50724609 -28.04703125 53.50724609 -29.73266602 52.50415039 C-33.64681661 50.1680935 -37.53923183 47.83167422 -41.33227539 45.30297852 C-41.71163918 42.75012843 -41.89590207 40.44510562 -41.94165039 37.88110352 C-41.95875061 37.14349792 -41.97585083 36.40589233 -41.99346924 35.64593506 C-42.02182726 34.0825288 -42.04142467 32.518943 -42.05297852 30.95532227 C-42.082029 28.57318218 -42.17495831 26.19890739 -42.26977539 23.81860352 C-42.5059644 12.81113249 -42.5059644 12.81113249 -39.60083008 9.078125 C-37.24878414 7.48708039 -34.94824562 6.40020772 -32.33227539 5.30297852 C-30.77407219 4.38575903 -29.22687379 3.44956952 -27.69165039 2.49438477 C-26.15743521 1.61416131 -24.62097336 0.73784203 -23.08227539 -0.13452148 C-22.30625977 -0.5927832 -21.53024414 -1.05104492 -20.73071289 -1.52319336 C-19.59762695 -2.16417969 -19.59762695 -2.16417969 -18.44165039 -2.81811523 C-17.77101562 -3.20410889 -17.10038086 -3.59010254 -16.40942383 -3.98779297 C-11.05877901 -5.81473505 -4.84248209 -2.17132343 0 0 Z " fill="#FBCA50" transform="translate(199.332275390625,307.697021484375)"/>
<path d="M0 0 C6.96105614 2.94303147 13.46519329 5.8832689 18.06640625 12.0703125 C21.74011798 22.83258348 19.47214319 36.03167305 18.06640625 47.0703125 C14.4632606 49.2205338 10.85200571 51.35620991 7.23266602 53.47900391 C6.00346782 54.20263303 4.77654209 54.93013714 3.55200195 55.66162109 C1.78795028 56.71446558 0.01610395 57.75294724 -1.7578125 58.7890625 C-3.3524231 59.73168945 -3.3524231 59.73168945 -4.97924805 60.69335938 C-8.02899249 62.11477568 -9.63194261 62.53367214 -12.93359375 62.0703125 C-14.91894531 61.23168945 -14.91894531 61.23168945 -16.82421875 60.05859375 C-17.88962891 59.41567383 -17.88962891 59.41567383 -18.9765625 58.75976562 C-19.70488281 58.30537109 -20.43320312 57.85097656 -21.18359375 57.3828125 C-22.62559581 56.50274795 -24.06830692 55.62384419 -25.51171875 54.74609375 C-26.1449707 54.35333252 -26.77822266 53.96057129 -27.43066406 53.5559082 C-31.21589268 51.3092133 -35.08575303 49.20800179 -38.93359375 47.0703125 C-38.93359375 35.5203125 -38.93359375 23.9703125 -38.93359375 12.0703125 C-30.43359375 7.3828125 -30.43359375 7.3828125 -27.80664062 5.9387207 C-27.09572266 5.54515381 -26.38480469 5.15158691 -25.65234375 4.74609375 C-24.46511719 4.09181396 -24.46511719 4.09181396 -23.25390625 3.42431641 C-21.00463579 2.11176864 -18.9119225 0.66493838 -16.77734375 -0.82421875 C-10.92825037 -4.44645966 -6.10704765 -2.10063429 0 0 Z " fill="#D0DBFC" transform="translate(463.93359375,209.9296875)"/>
<path d="M0 0 C2.21636132 1.03126324 4.3655326 2.11502724 6.51171875 3.2890625 C9.34977328 4.68107581 11.90768623 5.63083176 14.89453125 6.5859375 C20.60173406 8.71619964 25.50390179 10.81950714 29 16 C30.54866096 21.78519299 30.787102 27.34738248 30.75 33.3125 C30.75848969 34.46532974 30.75848969 34.46532974 30.76715088 35.64144897 C30.71986148 47.91402709 30.71986148 47.91402709 27.19824219 52.18530273 C24.8702243 53.77020059 22.58181033 54.88176527 20 56 C18.44310473 56.91943784 16.89598484 57.85564096 15.359375 58.80859375 C13.82515982 59.68881721 12.28869797 60.56513649 10.75 61.4375 C9.97398437 61.89576172 9.19796875 62.35402344 8.3984375 62.82617188 C7.64304687 63.25349609 6.88765625 63.68082031 6.109375 64.12109375 C5.43874023 64.5070874 4.76810547 64.89308105 4.07714844 65.29077148 C1.28406867 66.24444999 -0.19145757 65.87806515 -3 65 C-4.93735837 64.02754362 -6.83688591 62.97780574 -8.703125 61.875 C-9.7653125 61.25109375 -10.8275 60.6271875 -11.921875 59.984375 C-13.02015625 59.32953125 -14.1184375 58.6746875 -15.25 58 C-16.36375 57.34515625 -17.4775 56.6903125 -18.625 56.015625 C-26.8234747 51.1765253 -26.8234747 51.1765253 -28 50 C-28.08847743 47.47905924 -28.11527301 44.98569107 -28.09765625 42.46484375 C-28.0962413 41.71159317 -28.09482635 40.95834259 -28.09336853 40.18226624 C-28.08775376 37.7673044 -28.07519883 35.35243399 -28.0625 32.9375 C-28.0574869 31.30403779 -28.05292366 29.67057414 -28.04882812 28.03710938 C-28.03777954 24.02470415 -28.02050506 20.01236759 -28 16 C-26.88757935 15.37955811 -26.88757935 15.37955811 -25.75268555 14.74658203 C-22.99578642 13.20817918 -20.23950783 11.668672 -17.48364258 10.12841797 C-16.29183222 9.46261118 -15.0997771 8.79724231 -13.9074707 8.13232422 C-12.19157316 7.17531258 -10.47663386 6.21658348 -8.76171875 5.2578125 C-7.73006592 4.6817627 -6.69841309 4.10571289 -5.63549805 3.51220703 C-3.7156323 2.41061848 -1.84170566 1.22780377 0 0 Z " fill="#FB7C9F" transform="translate(428,346)"/>
<path d="M0 0 C24.68308243 -0.1571059 49.32646051 0.33056288 74 1 C74 7.6 74 14.2 74 21 C49.31483741 21.1438902 24.67476242 20.71447089 0 20 C0 13.4 0 6.8 0 0 Z " fill="#8DADEF" transform="translate(285,277)"/>
<path d="M0 0 C0.78503906 0.39832031 1.57007813 0.79664063 2.37890625 1.20703125 C7.86043293 3.97133489 13.31712575 6.67518781 19 9 C17 22 15 35 13 48 C11.58847656 47.16855469 11.58847656 47.16855469 10.1484375 46.3203125 C8.89079396 45.58825133 7.63297192 44.85649675 6.375 44.125 C5.75753906 43.76019531 5.14007813 43.39539063 4.50390625 43.01953125 C0.75893164 40.85138806 -2.81827217 39.22235121 -7 38 C-2.57032641 5.14065282 -2.57032641 5.14065282 0 0 Z " fill="#6966F6" transform="translate(435,286)"/>
<path d="M0 0 C4.16784814 3.5195162 8.23454761 7.11966646 12.25 10.8125 C16.98295876 15.14558274 21.85648004 19.2006074 26.8828125 23.1875 C29 25 29 25 30 27 C29.03578125 27.54269531 28.0715625 28.08539063 27.078125 28.64453125 C25.80200123 29.3670425 24.52596412 30.08970683 23.25 30.8125 C22.61578125 31.16892578 21.9815625 31.52535156 21.328125 31.89257812 C18.05195463 33.75248735 14.95014899 35.63839084 12 38 C5.78403397 32.97648459 -0.36239432 27.88008967 -6.4375 22.6875 C-7.02805176 22.18444336 -7.61860352 21.68138672 -8.22705078 21.16308594 C-11.27457444 18.54892974 -14.20622277 15.88987767 -17 13 C-15.625 12.08333333 -14.25 11.16666667 -12.875 10.25 C-12.05644531 9.70214844 -11.23789062 9.15429688 -10.39453125 8.58984375 C-8.98342812 7.65294494 -7.56646084 6.7246072 -6.13671875 5.81640625 C-3.33660155 4.03072357 -1.8837616 2.8256424 0 0 Z " fill="#6865F6" transform="translate(393,174)"/>
<path d="M0 0 C1.93873142 0.95583968 3.8759433 1.91476192 5.8125 2.875 C6.89144531 3.40867188 7.97039062 3.94234375 9.08203125 4.4921875 C12 6 12 6 15 8 C16.65549531 8.38499891 18.3222433 8.72793135 20 9 C15.84363246 36.16403693 15.84363246 36.16403693 13 47 C9.65800765 45.73942394 6.67812418 44.28370325 3.625 42.4375 C-0.359391 40.1683326 -3.44529579 39.2907258 -8 39 C-7.01 38.505 -7.01 38.505 -6 38 C-5.44081425 35.54269522 -5.44081425 35.54269522 -5.125 32.4375 C-4.20625759 25.30242792 -3.0715076 18.21873029 -1.875 11.125 C-1.69211426 10.03630615 -1.50922852 8.9476123 -1.32080078 7.82592773 C-0.88193882 5.21704494 -0.44169912 2.60840369 0 0 Z " fill="#6965F6" transform="translate(192,242)"/>
<path d="M0 0 C0.495 10.395 0.495 10.395 1 21 C-10.90936455 25.72593831 -22.81622682 30.03543889 -35 34 C-35.33 26.74 -35.66 19.48 -36 12 C-31.35679235 10.28652634 -26.71270433 8.57604091 -22.06567383 6.87304688 C-20.48495686 6.29275287 -18.90487297 5.71073134 -17.32543945 5.12695312 C-15.05584072 4.28842089 -12.78404208 3.45611592 -10.51171875 2.625 C-9.45219246 2.23127197 -9.45219246 2.23127197 -8.3712616 1.82958984 C-5.43928285 0.76304997 -3.14650219 0 0 0 Z " fill="#6965F6" transform="translate(296,155)"/>
<path d="M0 0 C5.48425223 4.69271067 10.94374841 9.41302697 16.39453125 14.14453125 C20.58338016 17.778336 24.78658188 21.39470409 29 25 C25.03470625 28.0914257 20.76868304 30.6024111 16.4609375 33.18359375 C13.98675472 35.00977628 13.06023453 36.16231348 12 39 C11.38125 38.360625 10.7625 37.72125 10.125 37.0625 C3.26148735 30.21826688 -4.11161538 23.99960676 -11.75 18.04296875 C-13.90111827 16.08978324 -14.94319168 14.67204376 -16 12 C-15.09636719 11.46890625 -14.19273437 10.9378125 -13.26171875 10.390625 C-12.07005944 9.67750604 -10.87866713 8.96394077 -9.6875 8.25 C-8.79514648 7.72792969 -8.79514648 7.72792969 -7.88476562 7.1953125 C-4.53059678 5.17156817 -2.08466832 3.34149001 0 0 Z " fill="#6865F5" transform="translate(234,362)"/>
<path d="M0 0 C0.33 0 0.66 0 1 0 C1.15855469 0.825 1.31710937 1.65 1.48046875 2.5 C2.99765564 10.01049423 4.87480247 17.22419216 7.28588867 24.4921875 C8.53974359 28.31271708 9.4467504 32.01660287 10 36 C8.97261719 35.73445313 7.94523437 35.46890625 6.88671875 35.1953125 C-1.03561722 33.1687575 -8.91909836 31.30116213 -17 30 C-15.69384244 25.61472327 -13.9889419 22.03481855 -11.55859375 18.1640625 C-10.89279297 17.10058594 -10.22699219 16.03710938 -9.54101562 14.94140625 C-8.84685547 13.84699219 -8.15269531 12.75257813 -7.4375 11.625 C-6.39045898 9.94857422 -6.39045898 9.94857422 -5.32226562 8.23828125 C-1.51301076 2.1863322 -1.51301076 2.1863322 0 0 Z " fill="#D0DAFB" transform="translate(286,401)"/>
<path d="M0 0 C3.0625 1.9375 3.0625 1.9375 5 5 C5.94728069 9.67719839 5.66588027 12.93459157 3.125 17 C-0.12251893 20.0564884 -2.48643116 20.38768765 -6.9609375 20.36328125 C-10.349039 19.75965397 -11.91986899 17.5844052 -14 15 C-14.33 14.67 -14.66 14.34 -15 14 C-15.38387346 9.00964496 -15.08713243 6.00183833 -12 2 C-7.96514506 -0.68990329 -4.73771348 -0.77993882 0 0 Z " fill="#6966F6" transform="translate(336,493)"/>
<path d="M0 0 C2.93462468 1.57699023 5.05804203 3.28125884 7 6 C7.88704203 9.20008832 7.83297631 11.79215506 7 15 C4.45474088 18.70219508 2.81135075 19.7681855 -1.5 21 C-6.33715959 21 -8.33273214 19.44496548 -11.875 16.375 C-13.69954346 12.52318604 -13.28399033 9.00890313 -12 5 C-8.97828387 0.74212727 -5.1416662 -1.1542516 0 0 Z " fill="#6B67F7" transform="translate(367,467)"/>
<path d="M0 0 C3.02519989 2.05971056 4.66926776 3.51573824 5.48046875 7.15625 C5.74308699 11.41492413 5.38490686 13.45660209 2.875 17 C-0.3910541 19.27203763 -2.01904979 20.079619 -6 20 C-9.76881901 18.65174048 -12.35039441 17.02854219 -14.5 13.625 C-15.13305242 10.30147482 -15.01335351 8.24273122 -14 5 C-9.30969056 -0.41189551 -7.06189669 -1.6757043 0 0 Z " fill="#6966F6" transform="translate(282,467)"/>
<path d="M0 0 C0 5.94 0 11.88 0 18 C-2.9225738 14.34678275 -4.79880946 11.75248029 -6.75 7.6875 C-7.17796875 6.80449219 -7.6059375 5.92148437 -8.046875 5.01171875 C-8.51867187 4.01591797 -8.51867187 4.01591797 -9 3 C-7.68825887 2.4980125 -6.37558403 1.99846423 -5.0625 1.5 C-4.33160156 1.2215625 -3.60070312 0.943125 -2.84765625 0.65625 C-1 0 -1 0 0 0 Z " fill="#6966F4" transform="translate(379,386)"/>
</svg>
