<?xml version="1.0" encoding="UTF-8"?>
<svg version="1.1" xmlns="http://www.w3.org/2000/svg" width="640" height="640">
<path d="M0 0 C211.2 0 422.4 0 640 0 C640 211.2 640 422.4 640 640 C428.8 640 217.6 640 0 640 C0 428.8 0 217.6 0 0 Z " fill="#FEFEFE" transform="translate(0,0)"/>
<path d="M0 0 C4.42140567 1.9171215 8.46026157 4.35661887 12.5625 6.875 C13.71469351 7.56503392 14.86777776 8.25358261 16.02172852 8.94067383 C19.36198735 10.93741711 22.68051392 12.96891067 26 15 C27.71535773 16.02865911 29.43141349 17.05615589 31.1484375 18.08203125 C32.57935756 18.94848857 34.00915585 19.81680287 35.4375 20.6875 C36.07437744 21.07212402 36.71125488 21.45674805 37.36743164 21.85302734 C40.63978173 23.89853088 42.96890179 25.71436529 45 29 C45.36076355 31.26531982 45.36076355 31.26531982 45.34057617 33.76855469 C45.34034958 34.70922791 45.34012299 35.64990112 45.33988953 36.61907959 C45.32440567 37.62650208 45.30892181 38.63392456 45.29296875 39.671875 C45.28872391 40.70942932 45.28447906 41.74698364 45.28010559 42.815979 C45.26332223 46.12758408 45.22566992 49.43857907 45.1875 52.75 C45.17245275 54.99608496 45.15876442 57.24217946 45.14648438 59.48828125 C45.11341986 64.99239541 45.0632236 70.49615412 45 76 C45.74024414 76.27618164 46.48048828 76.55236328 47.24316406 76.83691406 C49.77690435 77.90587782 51.84002027 79.07284409 54.109375 80.609375 C54.86476563 81.11726563 55.62015625 81.62515625 56.3984375 82.1484375 C57.17445313 82.67695313 57.95046875 83.20546875 58.75 83.75 C59.51054687 84.26304687 60.27109375 84.77609375 61.0546875 85.3046875 C61.81523437 85.81773437 62.57578125 86.33078125 63.359375 86.859375 C64.12185547 87.36919922 64.88433594 87.87902344 65.66992188 88.40429688 C67.27295942 89.50210213 68.85160434 90.63611322 70.40820312 91.79882812 C71.57512695 92.64864258 71.57512695 92.64864258 72.765625 93.515625 C73.80638184 94.30114746 73.80638184 94.30114746 74.86816406 95.10253906 C77.00271702 96.25493733 77.00271702 96.25493733 79.36889648 95.38623047 C82.41745664 93.78005764 85.37957295 92.08228314 88.33203125 90.3046875 C89.55483816 89.58118488 90.77816203 88.8585554 92.00195312 88.13671875 C93.90926223 87.00807834 95.8129268 85.87474133 97.70825195 84.72607422 C99.55286719 83.61101521 101.40958971 82.51893849 103.26953125 81.4296875 C104.36885986 80.77210449 105.46818848 80.11452148 106.60083008 79.43701172 C111.65468871 77.3004742 115.66776253 77.11218843 120.91748047 79.1105957 C121.80838379 79.62710693 122.69928711 80.14361816 123.6171875 80.67578125 C124.62837646 81.25158936 125.63956543 81.82739746 126.68139648 82.4206543 C127.73528564 83.04496338 128.7891748 83.66927246 129.875 84.3125 C130.96820557 84.94389893 132.06141113 85.57529785 133.18774414 86.22583008 C136.47042207 88.13102637 139.73670204 90.06183536 143 92 C143.95148926 92.55913086 144.90297852 93.11826172 145.88330078 93.69433594 C148.40850236 95.18050553 150.92551739 96.67911351 153.4375 98.1875 C154.18177246 98.63198486 154.92604492 99.07646973 155.69287109 99.53442383 C158.8727844 101.48358591 160.90329423 102.85494134 163 106 C163.26069641 108.33920288 163.26069641 108.33920288 163.2746582 111.12646484 C163.28419022 112.17119965 163.29372223 113.21593445 163.30354309 114.29232788 C163.30217598 115.98453964 163.30217598 115.98453964 163.30078125 117.7109375 C163.30506638 118.87122467 163.3093515 120.03151184 163.31376648 121.22695923 C163.31951361 123.68320055 163.32000724 126.1394589 163.31567383 128.59570312 C163.31251834 132.35316062 163.33595387 136.10982765 163.36132812 139.8671875 C163.36360151 142.25260317 163.36430443 144.63802096 163.36328125 147.0234375 C163.372491 148.14753021 163.38170074 149.27162292 163.39118958 150.42977905 C163.38184639 152.00633774 163.38184639 152.00633774 163.37231445 153.61474609 C163.37294388 154.53613373 163.3735733 155.45752136 163.3742218 156.40682983 C162.91847665 159.56491613 161.85847503 161.42461924 160 164 C157.24780273 165.94116211 157.24780273 165.94116211 153.93359375 167.77734375 C153.04330223 168.27809166 153.04330223 168.27809166 152.13502502 168.78895569 C150.2422185 169.85039597 148.34042744 170.8943333 146.4375 171.9375 C145.18618584 172.6335749 143.93552795 173.33083092 142.68554688 174.02929688 C142.07370544 174.36962952 141.46186401 174.70996216 140.83148193 175.06060791 C139.60863243 175.7463487 138.39019223 176.44001276 137.17633057 177.14154053 C134.47142981 178.69443452 131.87396251 180.04633317 128.94238281 181.12402344 C125.7714339 182.41775233 124.14744304 183.3064485 122 186 C119.95557042 192.53323871 120.08776882 199.59328598 119.875 206.375 C119.78043901 208.27496354 119.68152602 210.1747158 119.578125 212.07421875 C119.33497232 216.71521396 119.15155217 221.35514787 119 226 C119.70125 226.26264648 120.4025 226.52529297 121.125 226.79589844 C126.04148594 228.85501093 130.59014925 231.58498632 135.2109375 234.22998047 C136.98886856 235.2436535 138.77538974 236.24090446 140.5625 237.23828125 C141.696875 237.88667969 142.83125 238.53507813 144 239.203125 C145.03125 239.78739258 146.0625 240.37166016 147.125 240.97363281 C151.3860129 243.97689428 154.50794454 246.26594047 155.45095825 251.50570679 C155.64589312 254.610828 155.66671996 257.67413506 155.62890625 260.78515625 C155.63131821 261.91900253 155.63373016 263.05284882 155.63621521 264.22105408 C155.63523781 266.61233018 155.62187016 269.00362921 155.59692383 271.39477539 C155.56258279 275.05367866 155.57628106 278.71017057 155.59570312 282.36914062 C155.58880544 284.69532277 155.57913376 287.0214987 155.56640625 289.34765625 C155.57136612 290.44046402 155.57632599 291.53327179 155.58143616 292.65919495 C155.46495329 300.17154389 155.46495329 300.17154389 153.30932617 304.01245117 C150.80683627 306.16624864 148.36194174 307.8305957 145.484375 309.453125 C144.40518799 310.06857178 143.32600098 310.68401855 142.21411133 311.31811523 C141.07095459 311.95563721 139.92779785 312.59315918 138.75 313.25 C137.57079929 313.914722 136.39200871 314.58017208 135.21362305 315.24633789 C132.88295216 316.56270351 130.54952615 317.87371026 128.21435547 319.18212891 C125.44511259 320.74826763 122.70302743 322.34790484 119.97265625 323.98046875 C119.25561523 324.40360352 118.53857422 324.82673828 117.79980469 325.26269531 C116.52186454 326.01815575 115.24978625 326.78366971 113.98535156 327.56152344 C109.73914621 330.02901101 106.855684 330.80103952 102 330 C97.76698792 328.09830068 93.80762959 325.79164502 89.8125 323.4375 C88.22211914 322.52387695 88.22211914 322.52387695 86.59960938 321.59179688 C82.27165748 319.09946626 77.95869893 316.60562237 73.73583984 313.93798828 C72.69250488 313.28942871 71.64916992 312.64086914 70.57421875 311.97265625 C69.64569092 311.378479 68.71716309 310.78430176 67.76049805 310.17211914 C64.34883288 308.72351169 62.53634801 309.04829421 59 310 C56.22128895 311.15030088 56.22128895 311.15030088 53.625 312.5625 C52.75101563 313.01753906 51.87703125 313.47257812 50.9765625 313.94140625 C50.32429687 314.29074219 49.67203125 314.64007813 49 315 C49.68033001 318.6221819 51.20631911 321.38353377 53.03515625 324.56640625 C53.67179199 325.67838379 54.30842773 326.79036133 54.96435547 327.93603516 C55.66354683 329.14496676 56.36293343 330.35378547 57.0625 331.5625 C57.78294647 332.81545929 58.50315779 334.06855382 59.22314453 335.32177734 C64.20020728 343.96671357 69.272769 352.55352133 74.375 361.125 C78.91241069 368.74813558 83.42384204 376.37954193 87.75 384.125 C88.1320459 384.80449707 88.5140918 385.48399414 88.90771484 386.18408203 C89.97049986 388.10769881 90.99236396 390.04698797 92 392 C92.55965454 393.04305298 92.55965454 393.04305298 93.13061523 394.10717773 C96.08733737 400.04621849 96.66789722 405.22460091 96.5625 411.8125 C96.55154297 412.78227783 96.54058594 413.75205566 96.52929688 414.7512207 C96.29930074 422.37367596 95.04753268 428.43509944 91 435 C90.43023437 435.95003906 89.86046875 436.90007812 89.2734375 437.87890625 C82.26078318 448.48446371 72.1234896 455.63041797 59.71495247 458.53485584 C56.84664859 459.02627321 54.18121177 459.12879453 51.271698 459.13371277 C50.12798233 459.13797775 48.98426666 459.14224274 47.80589294 459.14663696 C46.56009964 459.14618378 45.31430634 459.14573059 44.03076172 459.14526367 C42.71146164 459.14862228 41.39216156 459.1519809 40.03288269 459.15544128 C36.41891443 459.16426323 32.80496986 459.16661873 29.19099188 459.16725707 C26.92899296 459.16796897 24.66700002 459.17010601 22.40500259 459.17275429 C14.50144317 459.18200402 6.59790059 459.18608992 -1.30566406 459.18530273 C-8.65200581 459.18470308 -15.99827386 459.19523368 -23.34459698 459.2110464 C-29.66668926 459.2241654 -35.9887576 459.22948476 -42.31086338 459.22884732 C-46.07992003 459.22859348 -49.84891126 459.23138129 -53.61795425 459.24202538 C-57.16877179 459.25177919 -60.71946237 459.2517362 -64.27028465 459.24450874 C-66.17776995 459.24298128 -68.08525544 459.25125985 -69.99272156 459.25994873 C-84.90149198 459.20606901 -98.07930434 456.46248241 -109.2578125 445.91015625 C-118.36340362 435.92667182 -122.17440457 425.06045477 -122.3125 411.8125 C-122.35600586 410.4502832 -122.35600586 410.4502832 -122.40039062 409.06054688 C-122.46206058 402.43339893 -121.1334078 397.80090778 -118 392 C-117.62029053 391.2670874 -117.24058105 390.5341748 -116.84936523 389.77905273 C-115.61767188 387.43881007 -114.34709102 385.12410699 -113.0625 382.8125 C-112.58651367 381.95156738 -112.11052734 381.09063477 -111.62011719 380.20361328 C-107.58416989 372.95172484 -103.38663313 365.80069141 -99.13916016 358.67114258 C-96.04918561 353.48142934 -92.99153714 348.27496742 -89.98046875 343.0390625 C-89.64300629 342.45232758 -89.30554382 341.86559265 -88.95785522 341.26107788 C-87.3100642 338.39386516 -85.66576933 335.52471406 -84.02441406 332.65380859 C-79.05189853 323.98746271 -79.05189853 323.98746271 -76.50390625 320.4375 C-75.75947266 319.2309375 -75.75947266 319.2309375 -75 318 C-76.27307412 314.18077765 -77.6678585 313.63960008 -81.0234375 311.49609375 C-82.044375 310.83802734 -83.0653125 310.17996094 -84.1171875 309.50195312 C-85.19226563 308.82068359 -86.26734375 308.13941406 -87.375 307.4375 C-88.44234375 306.75236328 -89.5096875 306.06722656 -90.609375 305.36132812 C-92.59180939 304.08922444 -94.5764626 302.82056764 -96.56396484 301.55639648 C-98.38867836 300.39057682 -100.19832484 299.20111678 -102 298 C-106.57537338 298.29698963 -109.73031283 299.71505879 -113.625 302.0546875 C-114.66140625 302.66957031 -115.6978125 303.28445313 -116.765625 303.91796875 C-118.36664063 304.88669922 -118.36664063 304.88669922 -120 305.875 C-122.12405313 307.14481437 -124.24902522 308.41309307 -126.375 309.6796875 C-127.77878906 310.52635986 -127.77878906 310.52635986 -129.2109375 311.39013672 C-137.15592901 315.97603255 -137.15592901 315.97603255 -141.1640625 316.08984375 C-146.78799529 314.49200541 -151.40258399 311.58850402 -156.375 308.5625 C-158.51165392 307.28504781 -160.64837312 306.00770479 -162.78515625 304.73046875 C-163.83461426 304.09802246 -164.88407227 303.46557617 -165.96533203 302.81396484 C-168.70902616 301.17392885 -171.46896495 299.57083033 -174.24609375 297.98828125 C-175.02484863 297.54218506 -175.80360352 297.09608887 -176.60595703 296.63647461 C-178.03745604 295.81809052 -179.47187407 295.00478334 -180.90966797 294.19750977 C-184.41691419 292.16950722 -186.89975791 290.47644055 -189 287 C-189.40786743 284.50930786 -189.40786743 284.50930786 -189.45166016 281.68408203 C-189.4740274 280.6226297 -189.49639465 279.56117737 -189.5194397 278.46755981 C-189.52591522 277.3258432 -189.53239075 276.18412659 -189.5390625 275.0078125 C-189.55141937 273.82911591 -189.56377625 272.65041931 -189.57650757 271.43600464 C-189.59607531 268.94290127 -189.60730616 266.44972062 -189.61083984 263.95654297 C-189.62492425 260.14549714 -189.69225987 256.33773003 -189.76171875 252.52734375 C-189.77411729 250.10418124 -189.78333686 247.68099996 -189.7890625 245.2578125 C-189.82913925 243.55131027 -189.82913925 243.55131027 -189.87002563 241.81033325 C-189.80390826 234.09845788 -189.80390826 234.09845788 -187.5322876 230.99452209 C-185.76543057 229.43928567 -184.02191907 228.19918286 -182 227 C-181.27103516 226.51942139 -180.54207031 226.03884277 -179.79101562 225.54370117 C-179.16904297 225.21345947 -178.54707031 224.88321777 -177.90625 224.54296875 C-176.83600586 223.96361572 -176.83600586 223.96361572 -175.74414062 223.37255859 C-175.00357422 222.98148926 -174.26300781 222.59041992 -173.5 222.1875 C-166.7435027 218.53871111 -160.11895254 214.74408013 -153.59570312 210.69213867 C-149.20806127 208 -149.20806127 208 -147 208 C-147.01160156 207.36578125 -147.02320313 206.7315625 -147.03515625 206.078125 C-147.10060426 199.30893132 -146.89319042 192.57188748 -146.5625 185.8125 C-146.52326416 184.98202148 -146.48402832 184.15154297 -146.44360352 183.29589844 C-146.16154109 177.8322247 -145.64969824 172.43235082 -145 167 C-145.87325928 166.73356689 -146.74651855 166.46713379 -147.64624023 166.19262695 C-153.16718965 164.22932799 -158.02159187 161.14293321 -163.0625 158.1875 C-164.13822266 157.57068359 -165.21394531 156.95386719 -166.32226562 156.31835938 C-171.49081587 153.30310471 -176.08393995 150.55610428 -180 146 C-180.33 145.67 -180.66 145.34 -181 145 C-181.11953209 143.36997389 -181.1701312 141.7348307 -181.19287109 140.10058594 C-181.21696548 138.53325714 -181.21696548 138.53325714 -181.24154663 136.93426514 C-181.28585347 132.14124053 -181.32707446 127.34835723 -181.35009766 122.55517578 C-181.36665296 120.02545978 -181.39393696 117.49579046 -181.43212891 114.96630859 C-181.4868416 111.32624952 -181.50876576 107.68728969 -181.5234375 104.046875 C-181.54610687 102.91650818 -181.56877625 101.78614136 -181.59213257 100.621521 C-181.57093222 92.7552175 -181.57093222 92.7552175 -178.625 88.85839844 C-167.19738551 80.76808952 -154.68081257 74.23494164 -142.47265625 67.40698242 C-140.74508805 66.42396746 -139.03881683 65.40299127 -137.3503418 64.35424805 C-134.14431904 62.50696351 -132.68406815 62.4212601 -129 63 C-125.41884001 64.54305751 -122.07052475 66.44175944 -118.6875 68.375 C-117.72142822 68.91141113 -116.75535645 69.44782227 -115.76000977 70.00048828 C-111.09812534 72.60548953 -106.49454541 75.28395032 -101.953125 78.09375 C-101.18653564 78.56377441 -100.41994629 79.03379883 -99.63012695 79.51806641 C-98.19850962 80.40404003 -96.77708391 81.30675958 -95.36791992 82.22802734 C-91.69683503 84.57349471 -91.69683503 84.57349471 -87.5 84.48828125 C-86.2625 83.75158203 -86.2625 83.75158203 -85 83 C-83.84628906 82.43925781 -82.69257813 81.87851563 -81.50390625 81.30078125 C-80.1890735 80.6400679 -78.87529414 79.97725472 -77.5625 79.3125 C-76.27218085 78.66267019 -74.98181412 78.01293487 -73.69140625 77.36328125 C-72.99289551 77.01088379 -72.29438477 76.65848633 -71.57470703 76.29541016 C-66.0556556 73.51861451 -60.52685237 70.76122737 -55 68 C-54.99589111 66.84999512 -54.99178223 65.69999023 -54.98754883 64.51513672 C-54.96571068 60.23197137 -54.91137294 55.94971855 -54.84741211 51.66699219 C-54.82427281 49.81649549 -54.80984595 47.96586785 -54.80444336 46.11523438 C-54.79512375 43.44839266 -54.75407009 40.78359868 -54.70703125 38.1171875 C-54.7109639 37.29507782 -54.71489655 36.47296814 -54.71894836 35.62594604 C-54.61083669 31.33102208 -54.22954086 29.35083961 -51.81103516 25.65429688 C-49.08004194 23.07557894 -46.58495473 21.2466559 -43.31640625 19.4140625 C-41.68723267 18.48799194 -41.68723267 18.48799194 -40.02514648 17.54321289 C-38.31113647 16.59369751 -38.31113647 16.59369751 -36.5625 15.625 C-35.38108493 14.96241012 -34.20017823 14.29891298 -33.01977539 13.63452148 C-30.71363448 12.33708159 -28.40505451 11.04441026 -26.09472656 9.75439453 C-23.52608793 8.29823823 -21.00024515 6.80312529 -18.4921875 5.24609375 C-17.8727124 4.86694824 -17.2532373 4.48780273 -16.61499023 4.09716797 C-15.07905322 3.14980935 -13.55267728 2.18699463 -12.02734375 1.22265625 C-7.76981147 -0.49683743 -4.52240601 -0.93447347 0 0 Z " fill="#082C76" transform="translate(333,91)"/>
<path d="M0 0 C2.92504883 1.41113281 2.92504883 1.41113281 5.95703125 3.203125 C7.07013672 3.85410156 8.18324219 4.50507813 9.33007812 5.17578125 C10.49107791 5.86686421 11.65188421 6.55827234 12.8125 7.25 C16.18943869 9.23598434 19.56705531 11.22046407 22.95166016 13.19335938 C24.82708581 14.30485624 26.68572666 15.44604874 28.51318359 16.63476562 C32.9333302 19.41067529 36.24723444 20.828187 41.48242188 19.86279297 C47.14557842 17.9219866 52.16788606 14.67275944 57.25 11.5625 C59.54347879 10.18303809 61.84202091 8.81234044 64.140625 7.44140625 C65.64931152 6.52403687 65.64931152 6.52403687 67.18847656 5.58813477 C69.7959296 4.11527249 72.1170144 2.81558537 75 2 C76.89013672 2.62402344 76.89013672 2.62402344 78.6796875 3.859375 C79.35451172 4.31135254 80.02933594 4.76333008 80.72460938 5.22900391 C81.43423828 5.73093262 82.14386719 6.23286133 82.875 6.75 C83.61298828 7.25063965 84.35097656 7.7512793 85.11132812 8.26708984 C86.64779784 9.31053779 88.1793318 10.36128752 89.70605469 11.41894531 C92.61147124 13.42144399 95.55485859 15.36305127 98.50048828 17.30566406 C106.7468593 22.7468593 106.7468593 22.7468593 108 24 C108.11699875 25.42082538 108.16721089 26.84724419 108.18945312 28.27270508 C108.21452942 29.63465752 108.21452942 29.63465752 108.2401123 31.02412415 C108.26047546 32.50685066 108.26047546 32.50685066 108.28125 34.01953125 C108.29965942 35.02964767 108.31806885 36.0397641 108.33703613 37.08049011 C108.39599044 40.3244322 108.44869327 43.56842848 108.5 46.8125 C108.56765073 51.069122 108.64139568 55.32557585 108.71875 59.58203125 C108.73911316 61.05564873 108.73911316 61.05564873 108.7598877 62.55903625 C108.78496399 63.93517342 108.78496399 63.93517342 108.81054688 65.33911133 C108.82307495 66.14439774 108.83560303 66.94968414 108.84851074 67.77937317 C109.00008451 70.00123881 109.25792825 71.89843921 110 74 C112.27066693 75.13191222 112.27066693 75.13191222 115 76 C116.87198875 77.01869199 118.7252161 78.07231453 120.5625 79.15234375 C121.60664063 79.76400391 122.65078125 80.37566406 123.7265625 81.00585938 C124.80679688 81.64330078 125.88703125 82.28074219 127 82.9375 C128.08023438 83.57107422 129.16046875 84.20464844 130.2734375 84.85742188 C134.86162482 87.55085776 139.44088555 90.25760164 144 93 C143.93941406 94.12792969 143.87882813 95.25585938 143.81640625 96.41796875 C143.77829834 97.16731689 143.74019043 97.91666504 143.70092773 98.6887207 C143.60725877 100.37955293 143.49825482 102.06959381 143.37524414 103.75854492 C143.06127227 108.41955739 143.01730279 112.79969705 143.5546875 117.4453125 C144.04011255 122.89868232 144.43864764 127.958884 142 133 C136.17833774 138.77651251 128.42700378 142.06382326 121.08837891 145.50390625 C116.74076098 147.61000923 112.69157121 150.08945291 108.625 152.6875 C107.97265381 153.08606201 107.32030762 153.48462402 106.64819336 153.89526367 C103.67296039 155.7441209 101.97505824 157.03741264 100 160 C99.67539843 161.91448052 99.67539843 161.91448052 99.68115234 164.01245117 C99.66128265 164.81305466 99.64141296 165.61365814 99.62094116 166.43852234 C99.60938995 167.29798965 99.59783875 168.15745697 99.5859375 169.04296875 C99.56657135 169.9265657 99.5472052 170.81016266 99.5272522 171.72053528 C99.46747195 174.54275866 99.42107734 177.36502286 99.375 180.1875 C99.33681878 182.10092925 99.29776696 184.01434133 99.2578125 185.92773438 C99.16177168 190.61835021 99.0777349 195.30904652 99 200 C96.2336466 201.34277732 93.46123789 202.67255228 90.6875 204 C89.90181641 204.3815625 89.11613281 204.763125 88.30664062 205.15625 C87.54931641 205.5171875 86.79199219 205.878125 86.01171875 206.25 C85.31522217 206.58515625 84.61872559 206.9203125 83.90112305 207.265625 C82 208 82 208 79 208 C72.3602949 200.06173095 70.9253081 192.18440619 70.96484375 182.1328125 C70.95103165 180.85445526 70.93721954 179.57609802 70.92298889 178.25900269 C70.90518491 175.57651539 70.90193839 172.89877323 70.92260742 170.21679688 C70.94585484 166.7918473 70.89122774 163.3729997 70.81600094 159.94897652 C70.75660687 156.6561035 70.7709978 153.36361462 70.77734375 150.0703125 C70.74769028 148.84837189 70.7180368 147.62643127 70.68748474 146.36746216 C70.7526675 142.95875127 70.89824609 140.22903419 72 137 C74.4073771 134.80503657 76.63826255 133.52006919 79.60218811 132.18525696 C82.83473521 130.58738393 84.09358178 128.83251993 85.42578125 125.54345703 C86.6165451 120.26906169 86.58706653 114.91600529 86.52148438 109.53637695 C86.50000301 107.43779446 86.52137052 105.34262015 86.546875 103.24414062 C86.56468905 94.95326986 86.14044082 89.51500392 80.40234375 83.2578125 C75.13308 79.1829152 71.23545103 78.84491847 64.76831055 78.82299805 C63.5092691 78.81314125 63.5092691 78.81314125 62.22479248 78.80308533 C59.44543366 78.78336513 56.66612882 78.771693 53.88671875 78.76171875 C52.93712595 78.75764322 51.98753315 78.7535677 51.00916481 78.74936867 C45.98373253 78.72851407 40.95832751 78.71420931 35.93286133 78.70483398 C30.74422289 78.69376668 25.55601297 78.65936128 20.36752605 78.61966228 C16.37577012 78.59351092 12.38411656 78.5851435 8.39228249 78.58155251 C6.47973548 78.57668327 4.56719314 78.56505968 2.65472984 78.54651451 C-0.02390095 78.52215294 -2.70141917 78.52308244 -5.38012695 78.5300293 C-6.16735641 78.51721924 -6.95458588 78.50440918 -7.76567078 78.49121094 C-13.73625236 78.54754489 -17.29431129 80.37143306 -21.64453125 84.59765625 C-26.80210342 91.06618321 -26.2509495 97.12576182 -26.29516602 105.03149414 C-26.30665085 106.4599806 -26.32704736 107.88842533 -26.35668945 109.31665039 C-26.62535723 120.76628802 -26.62535723 120.76628802 -22 131 C-20.30690186 132.85512814 -20.30690186 132.85512814 -18.4375 133.9375 C-17.56931641 134.50791016 -17.56931641 134.50791016 -16.68359375 135.08984375 C-14.83897446 136.14977253 -14.83897446 136.14977253 -12 137 C-11.81322921 144.46760241 -11.67179056 151.93495779 -11.58550262 159.40437603 C-11.54404996 162.8743558 -11.48799752 166.34271843 -11.39648438 169.81176758 C-10.68096551 197.63015956 -10.68096551 197.63015956 -18.26757812 207.22192383 C-18.83927734 207.80868896 -19.41097656 208.3954541 -20 209 C-23.0612713 207.84354884 -25.78610171 206.63904348 -28.48828125 204.79296875 C-29.11283203 204.37080078 -29.73738281 203.94863281 -30.38085938 203.51367188 C-31.01830078 203.07603516 -31.65574219 202.63839844 -32.3125 202.1875 C-33.57860302 201.32561113 -34.84553357 200.46493666 -36.11328125 199.60546875 C-36.70728226 199.18996765 -37.30128326 198.77446655 -37.9132843 198.34637451 C-39.94853078 196.96381844 -39.94853078 196.96381844 -42.10429382 196.03070068 C-44.43692835 194.8943461 -46.15643304 193.83569195 -48 192 C-49.08989267 188.39965498 -48.88397223 184.95415552 -48.71875 181.22265625 C-48.71065308 180.17855087 -48.70255615 179.1344455 -48.69421387 178.05870056 C-48.65839689 173.59925815 -48.52923417 169.14361703 -48.40869141 164.68579102 C-48.33389354 161.42684338 -48.30650507 158.16980388 -48.28125 154.91015625 C-48.23673706 153.90686783 -48.19222412 152.90357941 -48.1463623 151.86988831 C-48.06273108 146.5674104 -48.06273108 146.5674104 -50.61257935 142.11672974 C-52.66768533 140.53482503 -54.72845187 139.24779673 -57 138 C-58.04655762 137.3615918 -59.09311523 136.72318359 -60.17138672 136.06542969 C-61.16412598 135.52305664 -62.15686523 134.98068359 -63.1796875 134.421875 C-64.2728125 133.81859375 -65.3659375 133.2153125 -66.4921875 132.59375 C-67.60851562 131.9853125 -68.72484375 131.376875 -69.875 130.75 C-72.12404081 129.51862471 -74.3715204 128.28439226 -76.6171875 127.046875 C-77.60315918 126.50901367 -78.58913086 125.97115234 -79.60498047 125.41699219 C-82 124 -82 124 -84 122 C-85.58850551 110.12993629 -87.85691464 90.57953512 -80.76867676 80.19628906 C-74.5916248 73.6104654 -65.68700103 70.40993297 -57.40234375 67.33105469 C-50.57778975 64.6611732 -43.92284949 61.39441816 -40 55 C-39.41462845 51.9923429 -39.39516606 49.03807037 -39.390625 45.98046875 C-39.37408875 45.12189774 -39.35755249 44.26332672 -39.34051514 43.3787384 C-39.29209967 40.64825237 -39.27067894 37.918323 -39.25 35.1875 C-39.22183486 33.3313523 -39.19190666 31.47523046 -39.16015625 29.61914062 C-39.08634262 25.07947293 -39.03672872 20.54011307 -39 16 C-33.50863526 13.09006008 -28.00876453 10.19705665 -22.50146484 7.31738281 C-20.2691168 6.1417289 -18.04916234 4.94619246 -15.83203125 3.7421875 C-14.61749702 3.09837409 -13.40267423 2.45510461 -12.1875 1.8125 C-10.60001953 0.95591797 -10.60001953 0.95591797 -8.98046875 0.08203125 C-5.37070193 -1.22846077 -3.70976163 -0.89403834 0 0 Z " fill="#FCFDFD" transform="translate(290,180)"/>
<path d="M0 0 C14.52 0 29.04 0 44 0 C44.00257813 4.40859375 44.00515625 8.8171875 44.0078125 13.359375 C44.02666613 16.90597365 44.05148411 20.45242071 44.08029175 23.99894714 C44.10894527 27.72554112 44.12743599 31.45151097 44.12011719 35.17822266 C44.11346108 38.77730962 44.13635771 42.37517291 44.17855453 45.97400665 C44.19488752 47.99430669 44.1817149 50.01477738 44.16775513 52.03509521 C44.30814115 61.07774692 46.34197912 67.28745168 51 75 C51.77756905 76.36114426 51.77756905 76.36114426 52.57084656 77.74978638 C54.01252255 80.27187028 55.50100716 82.76159226 57 85.25 C58.14778741 87.17409038 59.29489917 89.09858394 60.44140625 91.0234375 C61.02809082 92.00666992 61.61477539 92.98990234 62.21923828 94.00292969 C65.15459877 98.94322107 68.04633712 103.90875446 70.9375 108.875 C71.51822266 109.87176758 72.09894531 110.86853516 72.69726562 111.89550781 C73.87634111 113.91947882 75.05521458 115.94356752 76.23388672 117.96777344 C78.57211195 121.9822547 80.91302879 125.99516225 83.25439453 130.0078125 C84.41340862 131.99450854 85.57194131 133.98148551 86.72998047 135.96875 C89.74919722 141.14892037 92.77657292 146.32408459 95.81640625 151.4921875 C96.75709961 153.09513672 96.75709961 153.09513672 97.71679688 154.73046875 C98.90689562 156.75804439 100.09942289 158.7841975 101.29492188 160.80859375 C112.58163254 180.06160672 112.58163254 180.06160672 111 191 C108.85345299 198.72277249 104.46966991 204.80230802 97.73196411 209.06997681 C91.82744554 211.94981783 85.77882027 211.54282016 79.33544922 211.48583984 C77.96470783 211.48798896 76.59396823 211.49187148 75.22323608 211.49734497 C71.52076394 211.50699112 67.8187783 211.49179603 64.11636496 211.47143888 C60.23278503 211.45379673 56.34921852 211.45739432 52.46560669 211.4581604 C45.94752928 211.45629095 39.42963879 211.43897339 32.91162109 211.41162109 C25.38389639 211.3801477 17.85637602 211.36962604 10.32859027 211.3710922 C2.29936067 211.37244463 -5.72979057 211.35855707 -13.75899649 211.34019899 C-16.06690489 211.33594378 -18.37480059 211.33451767 -20.68271255 211.33372116 C-24.31238359 211.33170721 -27.94188417 211.3194565 -31.57149887 211.29938889 C-33.53356937 211.29079313 -35.49567484 211.29187908 -37.45776367 211.29327393 C-38.63243195 211.28474396 -39.80710022 211.27621399 -41.0173645 211.26742554 C-42.54209476 211.262398 -42.54209476 211.262398 -44.09762764 211.25726891 C-50.63402232 210.67787698 -56.23001985 208.08654931 -60.640625 203.171875 C-65.830641 196.57098086 -67.69043446 190.73251953 -67.484375 182.3046875 C-66.53820218 175.84934713 -63.24851309 170.54113012 -60 165 C-59.54399414 164.21367187 -59.08798828 163.42734375 -58.61816406 162.6171875 C-55.94642383 158.02200509 -53.23991929 153.44858373 -50.51171875 148.88671875 C-47.04851487 143.09485851 -43.64305475 137.27066234 -40.25 131.4375 C-35.37521991 123.06683164 -30.4862109 114.70469109 -25.58483887 106.34957886 C-24.50703611 104.51199611 -23.42969677 102.67414257 -22.35253906 100.83618164 C-21.99983948 100.23437576 -21.64713989 99.63256989 -21.28375244 99.01252747 C-20.57520808 97.80353736 -19.86667127 96.59454283 -19.15814209 95.38554382 C-17.06226375 91.8099531 -14.96351595 88.23606567 -12.8626709 84.66339111 C-11.23966673 81.90183407 -9.6201683 79.13822148 -8 76.375 C-7.40638672 75.36759766 -6.81277344 74.36019531 -6.20117188 73.32226562 C-5.66041016 72.39865234 -5.11964844 71.47503906 -4.5625 70.5234375 C-4.08941406 69.71825684 -3.61632812 68.91307617 -3.12890625 68.08349609 C-1.05480926 64.2555671 -0.85458806 61.16408837 -0.79467773 56.8762207 C-0.77473251 55.61513992 -0.75478729 54.35405914 -0.73423767 53.05476379 C-0.71725467 51.67843753 -0.70037581 50.30210998 -0.68359375 48.92578125 C-0.66301803 47.51758725 -0.6420214 46.10939935 -0.62062073 44.70121765 C-0.56546378 40.99739519 -0.51602646 37.29351759 -0.46777344 33.58959961 C-0.41751179 29.80903227 -0.36190226 26.02854389 -0.30664062 22.24804688 C-0.19863139 14.83209179 -0.09955908 7.41609266 0 0 Z " fill="#FEFEFE" transform="translate(298,318)"/>
<path d="M0 0 C0.83921494 -0.0049649 1.67842987 -0.00992981 2.54307556 -0.01504517 C5.32787895 -0.0296859 8.11262533 -0.03647275 10.89746094 -0.04199219 C12.83079022 -0.04774305 14.76411949 -0.05350079 16.69744873 -0.05926514 C20.75614691 -0.06978123 24.81482526 -0.07561959 28.87353516 -0.07910156 C34.06997103 -0.08458079 39.26614415 -0.10859404 44.46249771 -0.13707352 C48.45854451 -0.15571601 52.45452831 -0.16090641 56.45061493 -0.16243744 C58.36593814 -0.16546198 60.2812603 -0.1734838 62.19654083 -0.18662262 C64.87992691 -0.20371313 67.56267504 -0.20179531 70.24609375 -0.1953125 C71.03489426 -0.20452728 71.82369476 -0.21374207 72.63639832 -0.22323608 C78.42862383 -0.17949013 82.60112184 1.03874221 86.96386719 5.09863281 C87.53492188 5.77925781 88.10597656 6.45988281 88.69433594 7.16113281 C89.27828125 7.84175781 89.86222656 8.52238281 90.46386719 9.22363281 C94.21007006 14.34241139 93.14305883 21.12373525 93.17700195 27.19262695 C93.18848678 28.62111341 93.20888329 30.04955815 93.23852539 31.4777832 C93.55040296 46.51585755 93.55040296 46.51585755 88.88183594 53.16113281 C86.59277344 55.25488281 86.59277344 55.25488281 84.25683594 56.66113281 C83.48082031 57.14582031 82.70480469 57.63050781 81.90527344 58.12988281 C79.88183594 59.16113281 79.88183594 59.16113281 77.88183594 59.16113281 C74.91098047 102.85285391 74.91098047 102.85285391 91.73388672 141.39550781 C95.67212669 146.46624916 98.69411787 152.10114122 101.88183594 157.66113281 C103.21965113 159.91961946 104.5607841 162.1761442 105.90527344 164.43066406 C110.45331765 172.10590526 114.91187637 179.83160786 119.35595703 187.56738281 C122.46781673 192.98276255 125.59417795 198.38850932 128.75683594 203.77441406 C129.38638184 204.84731689 130.01592773 205.92021973 130.66455078 207.02563477 C131.84968211 209.04268242 133.03730685 211.05826822 134.22802734 213.07202148 C143.25778578 228.450195 148.09031933 241.82790793 144.04589844 259.89550781 C142.87707477 262.86071148 141.55374739 265.44937399 139.88183594 268.16113281 C139.31207031 269.11117188 138.74230469 270.06121094 138.15527344 271.04003906 C131.14261912 281.64559652 121.00532554 288.79155079 108.59678841 291.69598866 C105.72848453 292.18740602 103.06304771 292.28992734 100.15353394 292.29484558 C99.00981827 292.29911057 97.8661026 292.30337555 96.68772888 292.30776978 C95.44193558 292.30731659 94.19614227 292.3068634 92.91259766 292.30639648 C91.59329758 292.3097551 90.2739975 292.31311371 88.91471863 292.3165741 C85.30075037 292.32539604 81.6868058 292.32775154 78.07282782 292.32838988 C75.8108289 292.32910178 73.54883596 292.33123882 71.28683853 292.3338871 C63.38327911 292.34313683 55.47973653 292.34722274 47.57617188 292.34643555 C40.22983013 292.3458359 32.88356208 292.35636649 25.53723896 292.37217921 C19.21514667 292.38529822 12.89307834 292.39061757 6.57097256 292.38998014 C2.80191591 292.38972629 -0.96707532 292.39251411 -4.73611832 292.40315819 C-8.28693585 292.412912 -11.83762644 292.41286902 -15.38844872 292.40564156 C-17.29593402 292.40411409 -19.2034195 292.41239266 -21.11088562 292.42108154 C-36.01965604 292.36720182 -49.19746841 289.62361523 -60.37597656 279.07128906 C-69.48156768 269.08780463 -73.29256863 258.22158759 -73.43066406 244.97363281 C-73.45966797 244.06548828 -73.48867187 243.15734375 -73.51855469 242.22167969 C-73.58022464 235.59453174 -72.25157186 230.9620406 -69.11816406 225.16113281 C-68.73845459 224.42822021 -68.35874512 223.69530762 -67.9675293 222.94018555 C-66.73583594 220.59994289 -65.46525508 218.28523981 -64.18066406 215.97363281 C-63.70467773 215.1127002 -63.22869141 214.25176758 -62.73828125 213.36474609 C-58.70233396 206.11285765 -54.50479719 198.96182422 -50.25732422 191.83227539 C-47.16734967 186.64256216 -44.10970121 181.43610023 -41.09863281 176.20019531 C-40.59243912 175.32009293 -40.59243912 175.32009293 -40.07601929 174.42221069 C-38.42822827 171.55499797 -36.78393339 168.68584688 -35.14257812 165.81494141 C-30.17006259 157.14859552 -30.17006259 157.14859552 -27.62207031 153.59863281 C-26.87763672 152.39207031 -26.87763672 152.39207031 -26.11816406 151.16113281 C-27.38529786 147.35973143 -28.72679298 146.84736792 -32.07128906 144.72753906 C-33.58916016 143.75397461 -33.58916016 143.75397461 -35.13769531 142.76074219 C-36.73677734 141.75237305 -36.73677734 141.75237305 -38.36816406 140.72363281 C-40.45820555 139.39395611 -42.54679716 138.06199713 -44.63378906 136.72753906 C-46.03032715 135.84497437 -46.03032715 135.84497437 -47.45507812 134.94458008 C-50.13636719 133.14894233 -52.6284911 131.21209812 -55.11816406 129.16113281 C-54.41949219 128.7628125 -53.72082031 128.36449219 -53.00097656 127.95410156 C-52.09089844 127.42429687 -51.18082031 126.89449219 -50.24316406 126.34863281 C-49.33824219 125.8265625 -48.43332031 125.30449219 -47.50097656 124.76660156 C-44.23005897 122.56275381 -43.24948105 120.83084943 -42.49316406 116.97363281 C-42.36941406 116.04550781 -42.24566406 115.11738281 -42.11816406 114.16113281 C-38.41044462 115.51142653 -35.35824321 117.19125968 -32.10644531 119.41894531 C-31.18412109 120.04414063 -30.26179688 120.66933594 -29.31152344 121.31347656 C-28.36083984 121.96445312 -27.41015625 122.61542969 -26.43066406 123.28613281 C-24.5337882 124.58459707 -22.63418455 125.8790884 -20.73144531 127.16894531 C-19.47521362 128.02963623 -19.47521362 128.02963623 -18.19360352 128.90771484 C-16.23692269 130.333455 -16.23692269 130.333455 -14.11816406 130.16113281 C-7.54334442 121.89793182 -6.09621721 114.39126545 -6.21582031 104.08300781 C-6.2035289 102.79042053 -6.19123749 101.49783325 -6.17857361 100.16607666 C-6.14668721 96.77261211 -6.15566281 93.38051488 -6.1739502 89.98699951 C-6.18520493 86.50713816 -6.15671224 83.02760897 -6.13183594 79.54785156 C-6.0889753 72.7520955 -6.08939589 65.95695395 -6.11816406 59.16113281 C-6.88 59.03867187 -7.64183594 58.91621094 -8.42675781 58.79003906 C-13.66378576 57.56629233 -16.39857549 54.23463881 -19.27050781 49.95019531 C-22.03721589 44.18023518 -21.71599732 37.96032089 -21.63964844 31.69750977 C-21.61816708 29.59892727 -21.63953458 27.50375297 -21.66503906 25.40527344 C-21.68381132 16.93280987 -21.22502345 11.51059149 -15.26660156 5.20019531 C-14.68136719 4.73355469 -14.09613281 4.26691406 -13.49316406 3.78613281 C-12.90277344 3.30402344 -12.31238281 2.82191406 -11.70410156 2.32519531 C-8.00077691 -0.3930085 -4.42135396 0.00620212 0 0 Z M13.88183594 60.16113281 C13.87925781 64.56972656 13.87667969 68.97832031 13.87402344 73.52050781 C13.85516981 77.06710646 13.83035183 80.61355353 13.80154419 84.16007996 C13.77289067 87.88667393 13.75439995 91.61264379 13.76171875 95.33935547 C13.76837486 98.93844243 13.74547823 102.53630573 13.7032814 106.13513947 C13.68694842 108.15543951 13.70012104 110.17591019 13.71408081 112.19622803 C13.57353039 121.24946909 11.54807701 127.43821321 6.88183594 135.16113281 C6.25092041 136.29244629 5.62000488 137.42375977 4.9699707 138.58935547 C4.42655029 139.49218262 3.88312988 140.39500977 3.32324219 141.32519531 C2.69804687 142.370625 2.07285156 143.41605469 1.42871094 144.49316406 C0.77386719 145.57984375 0.11902344 146.66652344 -0.55566406 147.78613281 C-1.9840693 150.17259033 -3.40880952 152.56122528 -4.83300781 154.95019531 C-5.19232391 155.55228821 -5.55164001 156.1543811 -5.92184448 156.77471924 C-9.5512619 162.86675464 -13.08945331 169.01030263 -16.61816406 175.16113281 C-21.77521635 184.14233981 -27.01008236 193.07372932 -32.30566406 201.97363281 C-37.27834384 210.33773697 -42.21506698 218.71977466 -47.05566406 227.16113281 C-47.55799561 228.03358643 -48.06032715 228.90604004 -48.57788086 229.80493164 C-49.03332275 230.60310303 -49.48876465 231.40127441 -49.95800781 232.22363281 C-50.35366943 232.91585937 -50.74933105 233.60808594 -51.15698242 234.32128906 C-54.19954588 240.1452053 -54.11688616 247.4458866 -52.43457031 253.70410156 C-49.57081463 260.60801049 -45.04284737 266.96512513 -38.11816406 270.16113281 C-34.45408121 271.0596892 -31.02899236 271.29437775 -27.26251221 271.31503296 C-26.09066376 271.32363342 -24.91881531 271.33223389 -23.7114563 271.34109497 C-22.43446869 271.34535492 -21.15748108 271.34961487 -19.84179688 271.35400391 C-18.47636714 271.36191207 -17.11093945 271.37018146 -15.74551392 271.37878418 C-11.27079236 271.40491816 -6.79606185 271.42030158 -2.32128906 271.43457031 C-0.77710719 271.43993324 0.76707464 271.44531075 2.31125641 271.45070267 C8.7366238 271.47231731 15.16198876 271.4910525 21.58738327 271.50232506 C30.77733411 271.51855755 39.9668618 271.5517342 49.15665317 271.60872591 C55.62902789 271.64748938 62.10128972 271.6669652 68.57377744 271.67224562 C72.43459863 271.67588988 76.2949676 271.68781193 80.15566254 271.72034836 C83.79036034 271.75054325 87.42433496 271.75670095 91.05913162 271.7449646 C93.01716154 271.74464061 94.9751476 271.76902902 96.93301392 271.79434204 C105.73289248 271.73247076 111.80151522 270.07796823 118.22167969 263.91503906 C124.04699612 255.92481286 126.34601155 249.15058904 124.88183594 239.16113281 C123.10592382 234.17106988 120.55011768 229.71253708 117.88183594 225.16113281 C117.42583008 224.37480469 116.96982422 223.58847656 116.5 222.77832031 C113.83207698 218.18970321 111.12955663 213.62274159 108.40527344 209.06738281 C104.87586606 203.16478703 101.40388805 197.22987592 97.94433594 191.28613281 C97.06986816 189.78530151 97.06986816 189.78530151 96.17773438 188.25415039 C94.99650652 186.22670131 93.81551675 184.19911348 92.63476562 182.17138672 C89.78127464 177.27117171 86.925545 172.37226387 84.06933594 167.47363281 C83.50907715 166.51191162 82.94881836 165.55019043 82.37158203 164.55932617 C79.01439592 158.80085215 75.64169521 153.05180031 72.25683594 147.30957031 C71.08014268 145.31099063 69.90364851 143.31229386 68.72720337 141.31356812 C67.95967535 140.01105035 67.19111184 138.70914217 66.42147827 137.40786743 C65.3471666 135.59140847 64.27629228 133.77296301 63.20605469 131.95410156 C62.58819092 130.90762451 61.97032715 129.86114746 61.33374023 128.78295898 C59.07240817 124.69948076 58.74085848 121.64260351 58.67651367 117.03735352 C58.64659584 115.14573235 58.64659584 115.14573235 58.61607361 113.21589661 C58.5990906 111.83957034 58.58221175 110.46324279 58.56542969 109.08691406 C58.54485397 107.67872007 58.52385733 106.27053216 58.50245667 104.86235046 C58.44729972 101.15852801 58.3978624 97.4546504 58.34960938 93.75073242 C58.29934773 89.97016509 58.2437382 86.1896767 58.18847656 82.40917969 C58.08046732 74.9932246 57.98139502 67.57722548 57.88183594 60.16113281 C43.36183594 60.16113281 28.84183594 60.16113281 13.88183594 60.16113281 Z " fill="#072B76" transform="translate(284.1181640625,257.8388671875)"/>
<path d="M0 0 C0.33 0 0.66 0 1 0 C1 15.51 1 31.02 1 47 C2.65 47.66 4.3 48.32 6 49 C7.39518285 49.82845131 8.76577223 50.69965068 10.109375 51.609375 C11.24246094 52.37121094 11.24246094 52.37121094 12.3984375 53.1484375 C13.17445313 53.67695313 13.95046875 54.20546875 14.75 54.75 C15.89082031 55.51957031 15.89082031 55.51957031 17.0546875 56.3046875 C18.19550781 57.07425781 18.19550781 57.07425781 19.359375 57.859375 C20.12185547 58.36919922 20.88433594 58.87902344 21.66992188 59.40429688 C23.27295942 60.50210213 24.85160434 61.63611322 26.40820312 62.79882812 C27.18615234 63.36537109 27.96410156 63.93191406 28.765625 64.515625 C29.45946289 65.03930664 30.15330078 65.56298828 30.86816406 66.10253906 C33.00271702 67.25493733 33.00271702 67.25493733 35.36889648 66.38623047 C38.41745664 64.78005764 41.37957295 63.08228314 44.33203125 61.3046875 C45.55483816 60.58118488 46.77816203 59.8585554 48.00195312 59.13671875 C49.90926223 58.00807834 51.8129268 56.87474133 53.70825195 55.72607422 C55.55286719 54.61101521 57.40958971 53.51893849 59.26953125 52.4296875 C60.36885986 51.77210449 61.46818848 51.11452148 62.60083008 50.43701172 C67.65468871 48.3004742 71.66776253 48.11218843 76.91748047 50.1105957 C77.80838379 50.62710693 78.69928711 51.14361816 79.6171875 51.67578125 C81.13397095 52.53949341 81.13397095 52.53949341 82.68139648 53.4206543 C83.73528564 54.04496338 84.7891748 54.66927246 85.875 55.3125 C86.96820557 55.94389893 88.06141113 56.57529785 89.18774414 57.22583008 C92.47042207 59.13102637 95.73670204 61.06183536 99 63 C100.42723389 63.83869629 100.42723389 63.83869629 101.88330078 64.69433594 C104.40850236 66.18050553 106.92551739 67.67911351 109.4375 69.1875 C110.55390869 69.85422729 110.55390869 69.85422729 111.69287109 70.53442383 C114.8727844 72.48358591 116.90329423 73.85494134 119 77 C119.26069641 79.33920288 119.26069641 79.33920288 119.2746582 82.12646484 C119.28419022 83.17119965 119.29372223 84.21593445 119.30354309 85.29232788 C119.30217598 86.98453964 119.30217598 86.98453964 119.30078125 88.7109375 C119.30506638 89.87122467 119.3093515 91.03151184 119.31376648 92.22695923 C119.31951361 94.68320055 119.32000724 97.1394589 119.31567383 99.59570312 C119.31251834 103.35316062 119.33595387 107.10982765 119.36132812 110.8671875 C119.36360151 113.25260317 119.36430443 115.63802096 119.36328125 118.0234375 C119.372491 119.14753021 119.38170074 120.27162292 119.39118958 121.42977905 C119.38496078 122.48081818 119.37873199 123.5318573 119.37231445 124.61474609 C119.37294388 125.53613373 119.3735733 126.45752136 119.3742218 127.40682983 C118.91847665 130.56491613 117.85847503 132.42461924 116 135 C113.24780273 136.94116211 113.24780273 136.94116211 109.93359375 138.77734375 C109.04330223 139.27809166 109.04330223 139.27809166 108.13502502 139.78895569 C106.2422185 140.85039597 104.34042744 141.8943333 102.4375 142.9375 C101.18618584 143.6335749 99.93552795 144.33083092 98.68554688 145.02929688 C98.07370544 145.36962952 97.46186401 145.70996216 96.83148193 146.06060791 C95.60863243 146.7463487 94.39019223 147.44001276 93.17633057 148.14154053 C90.47142981 149.69443452 87.87396251 151.04633317 84.94238281 152.12402344 C81.7714339 153.41775233 80.14744304 154.3064485 78 157 C75.95557042 163.53323871 76.08776882 170.59328598 75.875 177.375 C75.78043901 179.27496354 75.68152602 181.1747158 75.578125 183.07421875 C75.33497232 187.71521396 75.15155217 192.35514787 75 197 C75.70125 197.26264648 76.4025 197.52529297 77.125 197.79589844 C82.04148594 199.85501093 86.59014925 202.58498632 91.2109375 205.22998047 C92.98886856 206.2436535 94.77538974 207.24090446 96.5625 208.23828125 C97.696875 208.88667969 98.83125 209.53507813 100 210.203125 C101.03125 210.78739258 102.0625 211.37166016 103.125 211.97363281 C107.3860129 214.97689428 110.50794454 217.26594047 111.45095825 222.50570679 C111.64589312 225.610828 111.66671996 228.67413506 111.62890625 231.78515625 C111.63131821 232.91900253 111.63373016 234.05284882 111.63621521 235.22105408 C111.63523781 237.61233018 111.62187016 240.00362921 111.59692383 242.39477539 C111.56258279 246.05367866 111.57628106 249.71017057 111.59570312 253.36914062 C111.58880544 255.69532277 111.57913376 258.0214987 111.56640625 260.34765625 C111.57384605 261.9868679 111.57384605 261.9868679 111.58143616 263.65919495 C111.46495329 271.17154389 111.46495329 271.17154389 109.30932617 275.01245117 C106.80683627 277.16624864 104.36194174 278.8305957 101.484375 280.453125 C100.40518799 281.06857178 99.32600098 281.68401855 98.21411133 282.31811523 C97.07095459 282.95563721 95.92779785 283.59315918 94.75 284.25 C93.57079929 284.914722 92.39200871 285.58017208 91.21362305 286.24633789 C88.88295216 287.56270351 86.54952615 288.87371026 84.21435547 290.18212891 C81.44511259 291.74826763 78.70302743 293.34790484 75.97265625 294.98046875 C75.25561523 295.40360352 74.53857422 295.82673828 73.79980469 296.26269531 C72.52186454 297.01815575 71.24978625 297.78366971 69.98535156 298.56152344 C65.73914621 301.02901101 62.855684 301.80103952 58 301 C53.76698792 299.09830068 49.80762959 296.79164502 45.8125 294.4375 C44.75224609 293.82841797 43.69199219 293.21933594 42.59960938 292.59179688 C38.27165748 290.09946626 33.95869893 287.60562237 29.73583984 284.93798828 C28.69250488 284.28942871 27.64916992 283.64086914 26.57421875 282.97265625 C25.64569092 282.378479 24.71716309 281.78430176 23.76049805 281.17211914 C20.34005288 279.71978366 18.54548263 280.03798853 15 281 C12.84150273 281.94795318 10.71469447 282.97121511 8.625 284.0625 C7.03558594 284.88427734 7.03558594 284.88427734 5.4140625 285.72265625 C4.61742187 286.14417969 3.82078125 286.56570313 3 287 C1.32626249 284.21251481 -0.33776267 281.41935573 -2 278.625 C-2.47695313 277.8309375 -2.95390625 277.036875 -3.4453125 276.21875 C-3.89648438 275.45820313 -4.34765625 274.69765625 -4.8125 273.9140625 C-5.44091797 272.8614624 -5.44091797 272.8614624 -6.08203125 271.78759766 C-7 270 -7 270 -7 268 C-4.39939496 266.65929682 -1.79495084 265.32726646 0.8125 264 C1.55048828 263.6184375 2.28847656 263.236875 3.04882812 262.84375 C3.76103516 262.4828125 4.47324219 262.121875 5.20703125 261.75 C5.8616333 261.41484375 6.51623535 261.0796875 7.19067383 260.734375 C9 260 9 260 12 260 C11.97905273 258.81446533 11.95810547 257.62893066 11.93652344 256.4074707 C11.86400669 252.00004196 11.81815785 247.59266574 11.78027344 243.18481445 C11.76018454 241.2787997 11.73290806 239.37284638 11.69824219 237.46704102 C11.64960358 234.72396674 11.62700421 231.98170875 11.609375 229.23828125 C11.57840729 227.96456413 11.57840729 227.96456413 11.54681396 226.66511536 C11.54533621 222.74993926 11.67154543 220.55423765 13.70263672 217.12695312 C16.07775161 214.92801572 18.33640171 213.330298 21.1484375 211.73046875 C22.65857422 210.86131836 22.65857422 210.86131836 24.19921875 209.97460938 C25.24722656 209.38486328 26.29523438 208.79511719 27.375 208.1875 C28.38433594 207.60935547 29.39367187 207.03121094 30.43359375 206.43554688 C31.45324219 205.85224609 32.47289062 205.26894531 33.5234375 204.66796875 C35.07913452 203.75688354 35.07913452 203.75688354 36.66625977 202.82739258 C39.0723561 201.5084888 41.33584437 200.40513829 43.84741211 199.3503418 C47.76860685 197.6087711 50.81327755 195.92571205 54 193 C55.95912079 187.45851902 55.924573 182.25833098 55.8125 176.4375 C55.83017456 174.94326974 55.85421536 173.4491006 55.88476562 171.95507812 C55.93816317 169.19821756 55.94753291 166.45569785 55.92504883 163.69702148 C55.99977689 160.01100488 56.40301229 156.62969703 57 153 C55.94921265 152.60820557 55.94921265 152.60820557 54.87719727 152.20849609 C49.93108052 150.13100115 45.37455238 147.33910999 40.73413086 144.66015625 C38.94325525 143.62831598 37.14668075 142.60693936 35.34960938 141.5859375 C34.21201172 140.93109375 33.07441406 140.27625 31.90234375 139.6015625 C30.86585693 139.00682129 29.82937012 138.41208008 28.76147461 137.79931641 C25.46977057 135.65451411 22.77524724 133.55049447 21 130 C20.95733499 128.57025633 20.97847131 127.13833559 21.03271484 125.70898438 C21.19255827 120.72042215 21.27127445 115.73596886 21.32128906 110.74511719 C21.35686868 108.59546115 21.41742751 106.44606208 21.50390625 104.29785156 C22.38817801 92.67612316 22.38817801 92.67612316 18.61312866 82.10107422 C15.13646714 78.87716289 11.15976356 76.80476569 6.86376953 74.86499023 C4.35507978 73.70068741 2.1107699 72.22531292 -0.18359375 70.6875 C-2.34792133 69.31708272 -4.51490099 67.9518006 -6.68945312 66.59765625 C-8.49366736 65.45027577 -10.25249189 64.2320253 -12 63 C-12 62.34 -12 61.68 -12 61 C-10.3203125 59.7109375 -10.3203125 59.7109375 -8.125 58.375 C-7.40570313 57.92898437 -6.68640625 57.48296875 -5.9453125 57.0234375 C-4 56 -4 56 -2 56 C-1.00175095 53.00525286 -0.84675968 50.92654666 -0.79467773 47.79418945 C-0.77473251 46.73331619 -0.75478729 45.67244293 -0.73423767 44.579422 C-0.71752518 43.43559555 -0.70081268 42.2917691 -0.68359375 41.11328125 C-0.6524221 39.35506294 -0.6524221 39.35506294 -0.62062073 37.56132507 C-0.55516182 33.81177714 -0.49625704 30.06215837 -0.4375 26.3125 C-0.39431132 23.77277909 -0.35069692 21.23306538 -0.30664062 18.69335938 C-0.19948414 12.46231478 -0.0977108 6.23119949 0 0 Z " fill="#082C76" transform="translate(377,120)"/>
<path d="M0 0 C0.33 0 0.66 0 1 0 C1 15.51 1 31.02 1 47 C2.65 47.66 4.3 48.32 6 49 C7.39518285 49.82845131 8.76577223 50.69965068 10.109375 51.609375 C11.24246094 52.37121094 11.24246094 52.37121094 12.3984375 53.1484375 C13.17445313 53.67695313 13.95046875 54.20546875 14.75 54.75 C15.89082031 55.51957031 15.89082031 55.51957031 17.0546875 56.3046875 C18.19550781 57.07425781 18.19550781 57.07425781 19.359375 57.859375 C20.12185547 58.36919922 20.88433594 58.87902344 21.66992188 59.40429688 C23.27295942 60.50210213 24.85160434 61.63611322 26.40820312 62.79882812 C27.18615234 63.36537109 27.96410156 63.93191406 28.765625 64.515625 C29.45946289 65.03930664 30.15330078 65.56298828 30.86816406 66.10253906 C33.00271702 67.25493733 33.00271702 67.25493733 35.36889648 66.38623047 C38.41745664 64.78005764 41.37957295 63.08228314 44.33203125 61.3046875 C45.55483816 60.58118488 46.77816203 59.8585554 48.00195312 59.13671875 C49.90926223 58.00807834 51.8129268 56.87474133 53.70825195 55.72607422 C55.55286719 54.61101521 57.40958971 53.51893849 59.26953125 52.4296875 C60.36885986 51.77210449 61.46818848 51.11452148 62.60083008 50.43701172 C67.65468871 48.3004742 71.66776253 48.11218843 76.91748047 50.1105957 C77.80838379 50.62710693 78.69928711 51.14361816 79.6171875 51.67578125 C81.13397095 52.53949341 81.13397095 52.53949341 82.68139648 53.4206543 C83.73528564 54.04496338 84.7891748 54.66927246 85.875 55.3125 C86.96820557 55.94389893 88.06141113 56.57529785 89.18774414 57.22583008 C92.47042207 59.13102637 95.73670204 61.06183536 99 63 C100.42723389 63.83869629 100.42723389 63.83869629 101.88330078 64.69433594 C104.40850236 66.18050553 106.92551739 67.67911351 109.4375 69.1875 C110.55390869 69.85422729 110.55390869 69.85422729 111.69287109 70.53442383 C114.8727844 72.48358591 116.90329423 73.85494134 119 77 C119.26069641 79.33920288 119.26069641 79.33920288 119.2746582 82.12646484 C119.28419022 83.17119965 119.29372223 84.21593445 119.30354309 85.29232788 C119.30217598 86.98453964 119.30217598 86.98453964 119.30078125 88.7109375 C119.30506638 89.87122467 119.3093515 91.03151184 119.31376648 92.22695923 C119.31951361 94.68320055 119.32000724 97.1394589 119.31567383 99.59570312 C119.31251834 103.35316062 119.33595387 107.10982765 119.36132812 110.8671875 C119.36360151 113.25260317 119.36430443 115.63802096 119.36328125 118.0234375 C119.372491 119.14753021 119.38170074 120.27162292 119.39118958 121.42977905 C119.38496078 122.48081818 119.37873199 123.5318573 119.37231445 124.61474609 C119.37294388 125.53613373 119.3735733 126.45752136 119.3742218 127.40682983 C118.91870851 130.56330943 117.85547551 132.42481165 116 135 C113.3112793 136.90942383 113.3112793 136.90942383 110.07421875 138.70703125 C109.49017776 139.03611984 108.90613678 139.36520844 108.30439758 139.70426941 C106.43845977 140.7522432 104.56349163 141.78265296 102.6875 142.8125 C101.47005098 143.49167085 100.2532479 144.17200094 99.03710938 144.85351562 C97.21038874 145.87707244 95.38218172 146.89702316 93.54684448 147.90505981 C90.40014424 149.63567993 87.29894864 151.41124739 84.24072266 153.29443359 C83.31958427 153.85151253 83.31958427 153.85151253 82.37983704 154.41984558 C80.68833088 155.4471591 79.00746749 156.49193814 77.32739258 157.5378418 C72.31818769 159.73903984 68.31180948 159.88003526 63.08251953 157.8894043 C62.19161621 157.37289307 61.30071289 156.85638184 60.3828125 156.32421875 C59.37162354 155.74849121 58.36043457 155.17276367 57.31860352 154.57958984 C56.26471436 153.9552002 55.2108252 153.33081055 54.125 152.6875 C53.03179443 152.05537598 51.93858887 151.42325195 50.81225586 150.77197266 C47.53071138 148.86575492 44.26488321 146.93457789 41 145 C39.14476896 143.92016442 37.28931791 142.84070668 35.43359375 141.76171875 C33.80852541 140.8017954 32.184735 139.83970387 30.5625 138.875 C29.81822754 138.43889404 29.07395508 138.00278809 28.30712891 137.5534668 C24.75106166 135.39065063 22.47141632 133.92472906 21 130 C20.82246399 127.8399353 20.82246399 127.8399353 20.91918945 125.48193359 C20.94773514 124.59355804 20.97628082 123.7051825 21.00569153 122.78988647 C21.04119614 121.83570831 21.07670074 120.88153015 21.11328125 119.8984375 C21.14658861 117.86073869 21.17575249 115.82296872 21.20117188 113.78515625 C21.246014 110.5824974 21.31193814 107.38812082 21.44897461 104.18798828 C22.35900599 92.62805215 22.35900599 92.62805215 18.61636353 82.10754395 C15.13819159 78.88475814 11.15970984 76.81020761 6.86477661 74.86700439 C4.35657952 73.70084975 2.11122756 72.22530361 -0.18359375 70.6875 C-2.34792133 69.31708272 -4.51490099 67.9518006 -6.68945312 66.59765625 C-8.49366736 65.45027577 -10.25249189 64.2320253 -12 63 C-12 62.34 -12 61.68 -12 61 C-10.3203125 59.7109375 -10.3203125 59.7109375 -8.125 58.375 C-7.40570313 57.92898437 -6.68640625 57.48296875 -5.9453125 57.0234375 C-4 56 -4 56 -2 56 C-1.00175095 53.00525286 -0.84675968 50.92654666 -0.79467773 47.79418945 C-0.77473251 46.73331619 -0.75478729 45.67244293 -0.73423767 44.579422 C-0.71752518 43.43559555 -0.70081268 42.2917691 -0.68359375 41.11328125 C-0.6524221 39.35506294 -0.6524221 39.35506294 -0.62062073 37.56132507 C-0.55516182 33.81177714 -0.49625704 30.06215837 -0.4375 26.3125 C-0.39431132 23.77277909 -0.35069692 21.23306538 -0.30664062 18.69335938 C-0.19948414 12.46231478 -0.0977108 6.23119949 0 0 Z " fill="#062B76" transform="translate(377,120)"/>
<path d="M0 0 C0.9077417 0.52287598 1.8154834 1.04575195 2.75073242 1.58447266 C3.77336182 2.16535645 4.79599121 2.74624023 5.84960938 3.34472656 C7.46162231 4.28711182 7.46162231 4.28711182 9.10620117 5.24853516 C10.2124585 5.8832373 11.31871582 6.51793945 12.45849609 7.171875 C14.6921574 8.45644489 16.92243101 9.74692456 19.14916992 11.04345703 C21.94972228 12.67334371 24.75958554 14.28505648 27.57495117 15.88916016 C29.08599361 16.75786425 30.59645802 17.62757495 32.10620117 18.49853516 C32.78593994 18.88702637 33.46567871 19.27551758 34.16601562 19.67578125 C37.69676963 21.74489124 40.67280147 23.71938855 43.29370117 26.87353516 C43.80163574 29.37095642 43.80163574 29.37095642 43.8112793 32.20532227 C43.82388794 33.27000229 43.83649658 34.33468231 43.8494873 35.43162537 C43.84139038 36.57647903 43.83329346 37.7213327 43.82495117 38.90087891 C43.83069153 40.67248131 43.83069153 40.67248131 43.83654785 42.47987366 C43.83926947 44.97723238 43.831891 47.47461949 43.81518555 49.97192383 C43.79380047 53.793291 43.81497112 57.61277381 43.84057617 61.43408203 C43.83793257 63.86051847 43.83280693 66.28695374 43.82495117 68.71337891 C43.8330481 69.85620834 43.84114502 70.99903778 43.8494873 72.17649841 C43.75661471 80.04192412 43.75661471 80.04192412 41.59155273 83.93139648 C39.15223891 85.99309872 36.80354478 87.58079697 33.99682617 89.10791016 C32.96283691 89.67807861 31.92884766 90.24824707 30.86352539 90.83569336 C29.7679834 91.42568115 28.67244141 92.01566895 27.54370117 92.62353516 C25.28041263 93.86132704 23.01739184 95.0996086 20.75463867 96.33837891 C19.65087891 96.9389209 18.54711914 97.53946289 17.40991211 98.15820312 C14.69378653 99.65330641 12.00696699 101.18401501 9.33276367 102.75244141 C8.61701172 103.16977539 7.90125977 103.58710938 7.16381836 104.01708984 C5.88100635 104.76869336 4.60258519 105.5278694 3.32983398 106.29638672 C-0.7172506 108.64063707 -4.04347531 109.60947938 -8.70629883 109.87353516 C-11.83325195 108.66113281 -11.83325195 108.66113281 -14.98754883 106.78759766 C-15.55925308 106.45511017 -16.13095734 106.12262268 -16.71998596 105.78005981 C-18.55999032 104.70408261 -20.38286175 103.60231338 -22.20629883 102.49853516 C-23.46507504 101.7538341 -24.72476351 101.01067292 -25.98535156 100.26904297 C-28.45443138 98.81248338 -30.9168477 97.34560723 -33.3737793 95.86865234 C-36.15960332 94.20083154 -38.95754752 92.56137734 -41.77270508 90.94384766 C-52.24749333 84.8683733 -52.24749333 84.8683733 -54.70629883 80.87353516 C-55.11416626 78.38284302 -55.11416626 78.38284302 -55.15795898 75.55761719 C-55.18032623 74.49616486 -55.20269348 73.43471252 -55.22573853 72.34109497 C-55.23221405 71.19937836 -55.23868958 70.05766174 -55.24536133 68.88134766 C-55.2577182 67.70265106 -55.27007507 66.52395447 -55.2828064 65.30953979 C-55.30237414 62.81643643 -55.31360498 60.32325578 -55.31713867 57.83007812 C-55.33122308 54.0190323 -55.39855869 50.21126518 -55.46801758 46.40087891 C-55.48041611 43.9777164 -55.48963568 41.55453512 -55.49536133 39.13134766 C-55.52207916 37.9936795 -55.548797 36.85601135 -55.57632446 35.68386841 C-55.51017671 27.9684502 -55.51017671 27.9684502 -53.23117065 24.86434937 C-51.45731914 23.30508024 -49.73785227 22.0726035 -47.70629883 20.87353516 C-46.69499908 20.25262497 -46.69499908 20.25262497 -45.66326904 19.61917114 C-43.66734329 18.42885302 -41.63564878 17.33474848 -39.58129883 16.24853516 C-37.99953863 15.39627929 -36.41885587 14.54202148 -34.83911133 13.68603516 C-34.01056641 13.23744141 -33.18202148 12.78884766 -32.32836914 12.32666016 C-29.54695806 10.78523011 -26.80891138 9.18258386 -24.07348633 7.56103516 C-23.13778809 7.01012207 -22.20208984 6.45920898 -21.23803711 5.89160156 C-19.41550376 4.81510082 -17.59850995 3.72915301 -15.7878418 2.6328125 C-14.95140137 2.14248535 -14.11496094 1.6521582 -13.25317383 1.14697266 C-12.519375 0.70788574 -11.78557617 0.26879883 -11.02954102 -0.18359375 C-7.04639331 -1.80012553 -3.94830045 -1.64343331 0 0 Z " fill="#062B75" transform="translate(198.706298828125,297.12646484375)"/>
<path d="M0 0 C4.42140843 1.9171227 8.46020999 4.35670312 12.5625 6.875 C13.71395099 7.56431899 14.86630283 8.25213534 16.01953125 8.93847656 C19.36100011 10.93519718 22.68043463 12.96706797 26 15 C27.72734367 16.03992824 29.45514972 17.07908918 31.18359375 18.1171875 C32.62369572 18.99265698 34.0626139 19.87007858 35.5 20.75 C36.14525635 21.14300293 36.7905127 21.53600586 37.45532227 21.94091797 C40.39176294 23.78254558 42.0438343 25.06575145 44 28 C44.27415466 30.37716675 44.27415466 30.37716675 44.30639648 33.21826172 C44.32238388 34.28301727 44.33837128 35.34777283 44.35484314 36.4447937 C44.36020584 37.59480865 44.36556854 38.74482361 44.37109375 39.9296875 C44.38012222 41.11217072 44.3891507 42.29465393 44.39845276 43.51296997 C44.41297072 46.01627057 44.42184581 48.51960924 44.42553711 51.02294922 C44.43743227 54.85318946 44.48660574 58.6818187 44.53710938 62.51171875 C44.5465734 64.94270046 44.55380853 67.37369208 44.55859375 69.8046875 C44.57812607 70.95065399 44.59765839 72.09662048 44.61778259 73.27731323 C44.57283135 81.19893618 44.57283135 81.19893618 41.82470703 85.04199219 C39.00872039 86.99395527 36.22983903 88.83702574 33.24609375 90.5234375 C32.14330078 91.1525 31.04050781 91.7815625 29.90429688 92.4296875 C28.76025391 93.07164062 27.61621094 93.71359375 26.4375 94.375 C24.18604628 95.6533788 21.93474348 96.93202345 19.68359375 98.2109375 C18.57097168 98.83452148 17.45834961 99.45810547 16.31201172 100.10058594 C14.11741129 101.35917295 11.94607317 102.65928746 9.80126953 104.00097656 C-1.72420173 111.16303785 -1.72420173 111.16303785 -8 110 C-12.60497661 108.1545259 -16.81260657 105.72361947 -21.0625 103.1875 C-22.26208021 102.49275809 -23.46260889 101.79965138 -24.6640625 101.1081543 C-28.12857296 99.10352026 -31.56523702 97.0551805 -35 95 C-35.91120605 94.46149414 -36.82241211 93.92298828 -37.76123047 93.36816406 C-40.01706447 92.03127378 -42.26225183 90.67940431 -44.5 89.3125 C-45.13301025 88.92795654 -45.76602051 88.54341309 -46.41821289 88.1472168 C-49.66464194 86.09921668 -51.98739756 84.27236913 -54 81 C-54.39440918 78.5852356 -54.39440918 78.5852356 -54.41992188 75.86767578 C-54.43583374 74.84626495 -54.45174561 73.82485413 -54.46813965 72.77249146 C-54.46834106 71.6745224 -54.46854248 70.57655334 -54.46875 69.4453125 C-54.47636353 68.311008 -54.48397705 67.17670349 -54.49182129 66.00802612 C-54.5026246 63.60905152 -54.50547448 61.21002987 -54.50097656 58.81103516 C-54.50000539 55.1453577 -54.54160425 51.48178086 -54.5859375 47.81640625 C-54.59114538 45.48437936 -54.59383268 43.1523452 -54.59375 40.8203125 C-54.61014526 39.72639191 -54.62654053 38.63247131 -54.64343262 37.50540161 C-54.5665129 29.01018462 -54.5665129 29.01018462 -51.81811523 25.48535156 C-49.07570655 23.0667671 -46.50249837 21.20042468 -43.31640625 19.4140625 C-42.23029053 18.79668213 -41.1441748 18.17930176 -40.02514648 17.54321289 C-38.88247314 16.91020264 -37.7397998 16.27719238 -36.5625 15.625 C-35.38108493 14.96241012 -34.20017823 14.29891298 -33.01977539 13.63452148 C-30.71363448 12.33708159 -28.40505451 11.04441026 -26.09472656 9.75439453 C-23.52608793 8.29823823 -21.00024515 6.80312529 -18.4921875 5.24609375 C-17.8727124 4.86694824 -17.2532373 4.48780273 -16.61499023 4.09716797 C-15.07905322 3.14980935 -13.55267728 2.18699463 -12.02734375 1.22265625 C-7.76981147 -0.49683743 -4.52240601 -0.93447347 0 0 Z " fill="#072B74" transform="translate(333,91)"/>
<path d="M0 0 C5.37512792 0.8247168 10.68941234 1.82883958 16 3 C16.76344727 3.16677246 17.52689453 3.33354492 18.31347656 3.50537109 C31.10752847 6.51139993 31.10752847 6.51139993 35.34375 12.08203125 C37.0625 15.625 37.0625 15.625 38.5390625 19.3359375 C42.35153486 28.89769973 49.40426336 37.19024732 56 45 C56.71027344 45.845625 57.42054688 46.69125 58.15234375 47.5625 C62.64857428 52.74620339 67.35912741 57.09454109 72.80078125 61.26953125 C75 63 75 63 77.4375 65.5 C89.19570298 76.97141754 104.77329342 84.33326223 119.76953125 90.58984375 C123 92 123 92 126 94 C123.37305665 95.31347168 121.42789254 95.12889062 118.48492432 95.13371277 C116.72683441 95.14011024 116.72683441 95.14011024 114.93322754 95.14663696 C112.99449768 95.14595718 112.99449768 95.14595718 111.01660156 95.14526367 C109.64674793 95.14825467 108.27689513 95.15165706 106.90704346 95.15544128 C103.17960068 95.16429377 99.45218085 95.16661998 95.72472858 95.16725707 C92.61356035 95.16820568 89.50239747 95.17188362 86.3912313 95.17542917 C79.04890405 95.18357926 71.70658906 95.18601298 64.36425781 95.18530273 C56.79236936 95.18470249 49.22055228 95.19524234 41.64868188 95.2110464 C35.14838585 95.22413002 28.64811311 95.22948625 22.14780402 95.22884732 C18.26540353 95.22859248 14.38306638 95.23143576 10.50067902 95.24202538 C6.84650005 95.25171962 3.19244478 95.25177647 -0.46173859 95.24450874 C-2.43820292 95.24296735 -4.41466727 95.25130131 -6.39111328 95.25994873 C-7.57445251 95.25575424 -8.75779175 95.25155975 -9.97698975 95.24723816 C-11.51340937 95.24805531 -11.51340937 95.24805531 -13.08086777 95.24888897 C-19.62506002 94.69092272 -25.22720157 92.08968968 -29.640625 87.171875 C-34.830641 80.57098086 -36.69043446 74.73251953 -36.484375 66.3046875 C-35.53820218 59.84934713 -32.24851309 54.54113012 -29 49 C-28.54399414 48.21367187 -28.08798828 47.42734375 -27.61816406 46.6171875 C-24.96605502 42.05576919 -22.2795633 37.51596941 -19.5703125 32.98828125 C-15.14609975 25.5903567 -10.82190557 18.13464705 -6.49389648 10.68017578 C-5.65580444 9.23940674 -5.65580444 9.23940674 -4.80078125 7.76953125 C-4.30747314 6.91979736 -3.81416504 6.07006348 -3.3059082 5.19458008 C-2.25634799 3.43079307 -1.1384904 1.7077356 0 0 Z " fill="#92B1F3" transform="translate(267,434)"/>
<path d="M0 0 C0.3810791 0.66193359 0.7621582 1.32386719 1.15478516 2.00585938 C2.63991275 4.58475437 4.12555776 7.16335036 5.6116333 9.74169922 C6.28717052 10.91382933 6.96258558 12.08602986 7.63787842 13.25830078 C11.38270101 19.75798928 15.13918816 26.25010983 18.9375 32.71875 C19.55802246 33.77642578 20.17854492 34.83410156 20.81787109 35.92382812 C21.98991975 37.91893933 23.16456867 39.91252614 24.34228516 41.90429688 C35.5835473 61.04836446 35.5835473 61.04836446 34 72 C32.08839345 78.87751182 28.06327339 84.98076213 22.3125 89.25390625 C15.06721471 91.59148985 8.04193956 87.52235438 1.6875 84.375 C0.29047852 83.6934082 0.29047852 83.6934082 -1.13476562 82.99804688 C-14.70069038 76.28628424 -27.36423113 67.83043353 -38 57 C-39.21830435 55.94564965 -40.44688986 54.903011 -41.6875 53.875 C-55.34877902 41.92777659 -67.4825669 25.58939711 -75 9 C-74.67 8.01 -74.34 7.02 -74 6 C-72.80890625 6.32226562 -71.6178125 6.64453125 -70.390625 6.9765625 C-63.87728804 8.41520026 -57.39420929 8.36814323 -50.75 8.375 C-49.51636719 8.39949219 -48.28273438 8.42398437 -47.01171875 8.44921875 C-38.29659554 8.47671125 -31.18422034 6.87631835 -23 4 C-20.22033854 3.18587558 -17.43238633 2.46750644 -14.625 1.75 C-13.97917969 1.57726562 -13.33335937 1.40453125 -12.66796875 1.2265625 C-8.36360785 0.13531607 -4.43041133 -0.16027328 0 0 Z " fill="#D1DBFC" transform="translate(375,437)"/>
<path d="M0 0 C1.06911621 0.39316406 2.13823242 0.78632813 3.23974609 1.19140625 C4.19155762 1.51238281 5.14336914 1.83335937 6.12402344 2.1640625 C14.03106445 5.08358533 22.00437226 8.34897862 27.23974609 15.19140625 C30.90212874 25.60800197 28.64541847 38.49207691 27.23974609 49.19140625 C23.3771511 51.53304255 19.49979057 53.84706061 15.60644531 56.13720703 C14.28500963 56.91957211 12.96786864 57.70923963 11.65527344 58.50634766 C9.7646432 59.65274798 7.85998509 60.77176497 5.95068359 61.88671875 C5.36918549 62.24702179 4.78768738 62.60732483 4.18856812 62.97854614 C1.14723295 64.71867828 -0.34523305 65.28169452 -3.81494141 64.52685547 C-4.78689453 64.08615723 -5.75884766 63.64545898 -6.76025391 63.19140625 C-7.71206543 62.87042969 -8.66387695 62.54945313 -9.64453125 62.21875 C-17.55157226 59.29922717 -25.52488007 56.03383388 -30.76025391 49.19140625 C-34.42263655 38.77481053 -32.16592628 25.89073559 -30.76025391 15.19140625 C-27.0945012 13.07274864 -23.42831338 10.95484657 -19.76171875 8.83764648 C-18.51420265 8.11715156 -17.26680611 7.39644957 -16.01953125 6.67553711 C-14.22768983 5.63991834 -12.43542107 4.60504268 -10.64306641 3.5703125 C-9.02489014 2.63554077 -9.02489014 2.63554077 -7.37402344 1.68188477 C-2.92300272 -0.85626968 -2.92300272 -0.85626968 0 0 Z " fill="#D0DAFB" transform="translate(448.76025390625,191.80859375)"/>
<path d="M0 0 C2.92359869 1.33846779 5.65705214 2.84714398 8.43188477 4.47192383 C9.49407227 5.09260742 10.55625977 5.71329102 11.65063477 6.3527832 C12.74891602 6.99924805 13.84719727 7.64571289 14.97875977 8.31176758 C16.09250977 8.96209961 17.20625977 9.61243164 18.35375977 10.2824707 C26.58564949 15.10615731 26.58564949 15.10615731 27.72875977 16.24926758 C31.23878964 43.57607976 31.23878964 43.57607976 26.21704102 51.69262695 C22.34438545 55.2314329 17.79147779 56.94668595 12.84448242 58.51098633 C9.91747525 59.53236524 7.56915607 61.16607524 5.04125977 62.93676758 C2.30439705 64.79303095 1.29914661 65.31330038 -2.02880859 64.93969727 C-12.29241372 62.75420857 -23.78159691 57.69239169 -30.27124023 49.24926758 C-34.02345185 38.84425681 -31.74318863 25.94602981 -30.27124023 15.24926758 C-29.77833496 14.97775879 -29.28542969 14.70625 -28.77758789 14.42651367 C-27.31035377 13.61739483 -25.84368652 12.80724759 -24.37744141 11.99633789 C-22.71981611 11.07969378 -21.06111799 10.16498712 -19.40136719 9.25219727 C-14.21787752 6.38593024 -9.18850074 3.38871929 -4.31420898 0.01489258 C-2.27124023 -0.75073242 -2.27124023 -0.75073242 0 0 Z " fill="#FAC950" transform="translate(194.271240234375,318.750732421875)"/>
<path d="M0 0 C2.73901367 1.26928711 2.73901367 1.26928711 5.66796875 3.02734375 C6.72564453 3.65447266 7.78332031 4.28160156 8.87304688 4.92773438 C9.96681641 5.59095703 11.06058594 6.25417969 12.1875 6.9375 C14.36840942 8.23841565 16.54939508 9.53920349 18.73046875 10.83984375 C19.69364014 11.42113037 20.65681152 12.00241699 21.64916992 12.60131836 C23.07239279 13.44809827 24.5187574 14.2593787 26 15 C26 26.55 26 38.1 26 50 C17.5 54.6875 17.5 54.6875 14.87304688 56.1315918 C14.16212891 56.52515869 13.45121094 56.91872559 12.71875 57.32421875 C11.92726562 57.76040527 11.13578125 58.1965918 10.3203125 58.64599609 C8.07104204 59.95854386 5.97832875 61.40537412 3.84375 62.89453125 C1.09847267 64.59463334 0.11771859 64.99571932 -3.22265625 65.1171875 C-13.35156545 62.12146048 -24.45013285 58.80731102 -31 50 C-34.67371173 39.23772902 -32.40573694 26.03863945 -31 15 C-27.39685435 12.8497787 -23.78559946 10.71410259 -20.16625977 8.59130859 C-18.93706157 7.86767947 -17.71013584 7.14017536 -16.4855957 6.40869141 C-14.72154403 5.35584692 -12.9496977 4.31736526 -11.17578125 3.28125 C-9.58117065 2.33862305 -9.58117065 2.33862305 -7.9543457 1.37695312 C-4.85397151 -0.06806055 -3.35070607 -0.53525127 0 0 Z " fill="#B0D852" transform="translate(204,177)"/>
<path d="M0 0 C8.24502421 3.28434929 16.59606607 6.88859934 22.13745117 14.04907227 C25.90295487 24.44265106 23.60832604 37.36011149 22.13745117 48.04907227 C18.51155306 50.17332426 14.88193843 52.29103421 11.2487793 54.40283203 C10.01401946 55.12175896 8.78028258 55.8424459 7.54760742 56.56494141 C5.77294339 57.60469416 3.99466531 58.63800774 2.21557617 59.67016602 C1.14726562 60.29334717 0.07895508 60.91652832 -1.02172852 61.55859375 C-5.52387339 63.92071084 -5.52387339 63.92071084 -7.86254883 64.04907227 C-10.47216797 62.90917969 -10.47216797 62.90917969 -13.39770508 61.15454102 C-14.4540918 60.52870117 -15.51047852 59.90286133 -16.59887695 59.25805664 C-17.69651367 58.5909668 -18.79415039 57.92387695 -19.92504883 57.23657227 C-21.57730469 56.25333984 -21.57730469 56.25333984 -23.26293945 55.25024414 C-27.17709005 52.91418725 -31.06950527 50.57776797 -34.86254883 48.04907227 C-35.29178687 45.52078356 -35.52161585 43.24345207 -35.61254883 40.69750977 C-35.63913574 39.96464752 -35.66572266 39.23178528 -35.69311523 38.47671509 C-35.73902423 36.92181629 -35.77538237 35.36661088 -35.80297852 33.8112793 C-35.84244858 32.22956509 -35.91048249 30.64828684 -36.00805664 29.0690918 C-36.33340698 23.79155517 -36.33234557 19.1614802 -34.86254883 14.04907227 C-31.02453842 10.19892064 -26.80046215 8.21266559 -21.86254883 6.04907227 C-20.46043513 5.22125386 -19.07084002 4.37105415 -17.70629883 3.48266602 C-16.60286133 2.82395508 -15.49942383 2.16524414 -14.36254883 1.48657227 C-12.67645508 0.46370117 -12.67645508 0.46370117 -10.95629883 -0.57983398 C-6.67926355 -2.47533826 -4.33371547 -1.43964364 0 0 Z " fill="#FB8E01" transform="translate(334.862548828125,114.950927734375)"/>
<path d="M0 0 C1.93735837 0.97245638 3.83688591 2.02219426 5.703125 3.125 C6.7653125 3.74890625 7.8275 4.3728125 8.921875 5.015625 C10.56929688 5.99789063 10.56929688 5.99789063 12.25 7 C13.36375 7.65484375 14.4775 8.3096875 15.625 8.984375 C23.8234747 13.8234747 23.8234747 13.8234747 25 15 C26.72624811 25.51860513 28.67098171 38.75740582 25 49 C19.12362074 56.5997647 9.817291 59.90474162 1 63 C-0.23399536 63.64533691 -0.23399536 63.64533691 -1.49291992 64.30371094 C-4 65 -4 65 -6.81494141 63.97363281 C-7.81702637 63.38936523 -8.81911133 62.80509766 -9.8515625 62.203125 C-10.94984375 61.5740625 -12.048125 60.945 -13.1796875 60.296875 C-14.32831264 59.61489927 -15.47674826 58.93260425 -16.625 58.25 C-17.78029959 57.58168768 -18.93654179 56.915002 -20.09375 56.25 C-24.12493285 53.91665651 -28.12396529 51.58402314 -32 49 C-32.45410037 46.48443723 -32.70432091 44.22000832 -32.8203125 41.68359375 C-32.85762482 40.95514252 -32.89493713 40.22669128 -32.93338013 39.47616577 C-33.03077839 37.12949697 -33.08724926 34.7858656 -33.125 32.4375 C-33.13768921 31.64967133 -33.15037842 30.86184265 -33.16345215 30.05014038 C-33.22477972 17.24866964 -33.22477972 17.24866964 -30.70800781 12.62792969 C-27.40378642 9.32764892 -23.43707469 7.94718554 -19.01855469 6.67138672 C-15.77259943 5.59175719 -13.22642467 3.75580256 -10.375 1.875 C-6.29768049 -0.69473919 -4.62525376 -1.3132402 0 0 Z " fill="#FB7C9F" transform="translate(442,334)"/>
<path d="M0 0 C24.42 0 48.84 0 74 0 C74 6.27 74 12.54 74 19 C49.58 19 25.16 19 0 19 C0 12.73 0 6.46 0 0 Z " fill="#91B0F2" transform="translate(283,278)"/>
<path d="M0 0 C0.33 0 0.66 0 1 0 C1 15.51 1 31.02 1 47 C2.65 47.66 4.3 48.32 6 49 C7.39518285 49.82845131 8.76577223 50.69965068 10.109375 51.609375 C11.24246094 52.37121094 11.24246094 52.37121094 12.3984375 53.1484375 C13.17445313 53.67695313 13.95046875 54.20546875 14.75 54.75 C15.89082031 55.51957031 15.89082031 55.51957031 17.0546875 56.3046875 C18.58892317 57.33964647 20.12083877 58.37805322 21.65039062 59.41992188 C23.28275425 60.51766267 24.92841395 61.59578492 26.58398438 62.65820312 C27.81858398 63.45387695 27.81858398 63.45387695 29.078125 64.265625 C29.8299707 64.74290039 30.58181641 65.22017578 31.35644531 65.71191406 C31.89881836 66.13698242 32.44119141 66.56205078 33 67 C33 67.66 33 68.32 33 69 C31.3203125 70.2890625 31.3203125 70.2890625 29.125 71.625 C28.40570313 72.07101563 27.68640625 72.51703125 26.9453125 72.9765625 C25 74 25 74 23 74 C22.34 77.3 21.68 80.6 21 84 C20.3915625 83.61070312 19.783125 83.22140625 19.15625 82.8203125 C12.68340791 78.68911622 6.18304898 74.60489422 -0.33984375 70.55322266 C-2.23089108 69.37555598 -4.11590876 68.18875378 -6 67 C-6.8979126 66.44578369 -6.8979126 66.44578369 -7.81396484 65.88037109 C-9.24461455 64.97369213 -10.62808218 63.99331104 -12 63 C-12 62.34 -12 61.68 -12 61 C-10.3203125 59.7109375 -10.3203125 59.7109375 -8.125 58.375 C-7.40570313 57.92898437 -6.68640625 57.48296875 -5.9453125 57.0234375 C-4 56 -4 56 -2 56 C-1.00175095 53.00525286 -0.84675968 50.92654666 -0.79467773 47.79418945 C-0.77473251 46.73331619 -0.75478729 45.67244293 -0.73423767 44.579422 C-0.71752518 43.43559555 -0.70081268 42.2917691 -0.68359375 41.11328125 C-0.6524221 39.35506294 -0.6524221 39.35506294 -0.62062073 37.56132507 C-0.55516182 33.81177714 -0.49625704 30.06215837 -0.4375 26.3125 C-0.39431132 23.77277909 -0.35069692 21.23306538 -0.30664062 18.69335938 C-0.19948414 12.46231478 -0.0977108 6.23119949 0 0 Z " fill="#6766F0" transform="translate(377,120)"/>
<path d="M0 0 C0.97839844 0.54140625 0.97839844 0.54140625 1.9765625 1.09375 C8.55285748 4.58558804 12.70417523 5.89380983 20 4 C20.09614472 13.13374847 20.09669105 22.25063237 19.625 31.375 C19.59414307 32.08132568 19.56328613 32.78765137 19.53149414 33.51538086 C19.32079331 37.11832125 18.94386635 39.91826067 17 43 C16.41992188 42.6390625 15.83984375 42.278125 15.2421875 41.90625 C9.82016663 38.6852475 6.18410273 36.98978421 -0.16796875 38.5234375 C-0.77253906 38.68070312 -1.37710938 38.83796875 -2 39 C-1.88079038 34.73145229 -1.75649009 30.46309065 -1.62768555 26.19482422 C-1.58465509 24.74597085 -1.54296107 23.2970771 -1.50268555 21.84814453 C-1.08904092 7.02843217 -1.08904092 7.02843217 0 0 Z " fill="#6A66F6" transform="translate(188,259)"/>
<path d="M0 0 C4.7734375 1.859375 4.7734375 1.859375 6.8125 3.125 C11.08634949 4.8345398 15.67356778 4.44214407 20 3 C20.14569473 11.8023902 19.7048247 20.47778987 19 29.25 C18.90460938 30.48363281 18.80921875 31.71726562 18.7109375 32.98828125 C18.47804982 35.99253233 18.24100659 38.99639123 18 42 C13.24414062 40.13964844 13.24414062 40.13964844 11.046875 38.8828125 C8.35413273 37.72143893 6.16872179 37.80550662 3.25 37.875 C2.26515625 37.89304687 1.2803125 37.91109375 0.265625 37.9296875 C-0.48203125 37.95289063 -1.2296875 37.97609375 -2 38 C-2.24130116 25.15741598 -1.72221049 12.73205613 0 0 Z " fill="#6965F5" transform="translate(434,274)"/>
<path d="M0 0 C0.01417969 0.88042969 0.02835937 1.76085937 0.04296875 2.66796875 C-0.02086341 10.0617513 -0.02086341 10.0617513 3.4375 16.1875 C4.7059375 17.0846875 4.7059375 17.0846875 6 18 C6.66 18.66 7.32 19.32 8 20 C-16.77626887 31.89438718 -16.77626887 31.89438718 -28 37 C-28.01417969 36.20335937 -28.02835938 35.40671875 -28.04296875 34.5859375 C-28.36394441 27.45507275 -29.04129617 24.08919604 -34 19 C-33 16 -33 16 -29.96484375 14.23828125 C-28.62724684 13.58630632 -27.2843816 12.94507153 -25.9375 12.3125 C-24.48679692 11.61105388 -23.03628179 10.90921892 -21.5859375 10.20703125 C-20.8340918 9.84689941 -20.08224609 9.48676758 -19.30761719 9.11572266 C-14.83039081 6.9510036 -10.40316563 4.68519202 -5.96655273 2.4387207 C-1.11059515 0 -1.11059515 0 0 0 Z " fill="#6A66F6" transform="translate(279,159)"/>
<path d="M0 0 C3.67949857 1.34741044 6.75929216 3.00862037 10.01171875 5.1875 C11.39520508 6.11175781 11.39520508 6.11175781 12.80664062 7.0546875 C13.75732422 7.69664062 14.70800781 8.33859375 15.6875 9 C16.64978516 9.64195312 17.61207031 10.28390625 18.60351562 10.9453125 C25.71878332 15.71878332 25.71878332 15.71878332 28 18 C24.7 23.61 21.4 29.22 18 35 C14.15668097 33.46267239 11.45003825 32.13152562 8.09375 29.8828125 C7.18496094 29.27566406 6.27617187 28.66851562 5.33984375 28.04296875 C4.40269531 27.41003906 3.46554688 26.77710938 2.5 26.125 C1.56285156 25.49980469 0.62570313 24.87460937 -0.33984375 24.23046875 C-4.69776612 21.30664282 -8.98260761 18.38754697 -13 15 C-12.30132812 14.60167969 -11.60265625 14.20335937 -10.8828125 13.79296875 C-9.97273437 13.26316406 -9.06265625 12.73335938 -8.125 12.1875 C-7.22007812 11.66542969 -6.31515625 11.14335937 -5.3828125 10.60546875 C-2.11189491 8.401621 -1.13131698 6.66971662 -0.375 2.8125 C-0.25125 1.884375 -0.1275 0.95625 0 0 Z " fill="#6865F6" transform="translate(242,372)"/>
<path d="M0 0 C0.33 0 0.66 0 1 0 C1.15855469 0.81339844 1.31710937 1.62679688 1.48046875 2.46484375 C4.11281695 15.39389097 7.33631811 28.04333823 13 40 C13 40.66 13 41.32 13 42 C12.44054687 41.82984375 11.88109375 41.6596875 11.3046875 41.484375 C8.53876122 40.64837156 5.76982627 39.82299457 3 39 C1.83339844 38.65195312 0.66679687 38.30390625 -0.53515625 37.9453125 C-1.74042969 37.59210938 -2.94570313 37.23890625 -4.1875 36.875 C-5.31542969 36.54242188 -6.44335938 36.20984375 -7.60546875 35.8671875 C-11.06205214 34.98414779 -14.46212506 34.4405486 -18 34 C-17.41726708 30.08329925 -16.24088069 27.3257849 -14.19921875 23.9453125 C-13.63396484 23.00042969 -13.06871094 22.05554688 -12.48632812 21.08203125 C-11.89271484 20.10621094 -11.29910156 19.13039063 -10.6875 18.125 C-9.52437534 16.1903231 -8.36160687 14.25543202 -7.19921875 12.3203125 C-6.64927246 11.40926758 -6.09932617 10.49822266 -5.53271484 9.55957031 C-3.64013644 6.39904275 -1.80981154 3.2085054 0 0 Z " fill="#CFDAFB" transform="translate(286,401)"/>
<path d="M0 0 C0.19916016 1.35544922 0.19916016 1.35544922 0.40234375 2.73828125 C0.57894531 3.91777344 0.75554687 5.09726562 0.9375 6.3125 C1.11152344 7.48425781 1.28554688 8.65601563 1.46484375 9.86328125 C1.92093031 13.01641403 1.92093031 13.01641403 3 16 C5.50447516 17.21869929 5.50447516 17.21869929 8 18 C4.73285958 20.17809362 1.3249824 21.89165864 -2.1875 23.625 C-2.84169922 23.94984375 -3.49589844 24.2746875 -4.16992188 24.609375 C-5.77904812 25.4080654 -7.38940455 26.20427649 -9 27 C-10.67373751 24.21251481 -12.33776267 21.41935573 -14 18.625 C-14.47695313 17.8309375 -14.95390625 17.036875 -15.4453125 16.21875 C-15.89648438 15.45820313 -16.34765625 14.69765625 -16.8125 13.9140625 C-17.44091797 12.8614624 -17.44091797 12.8614624 -18.08203125 11.78759766 C-19 10 -19 10 -19 8 C-16.39939496 6.65929682 -13.79495084 5.32726646 -11.1875 4 C-10.44951172 3.6184375 -9.71152344 3.236875 -8.95117188 2.84375 C-8.23896484 2.4828125 -7.52675781 2.121875 -6.79296875 1.75 C-6.1383667 1.41484375 -5.48376465 1.0796875 -4.80932617 0.734375 C-3 0 -3 0 0 0 Z " fill="#6966F5" transform="translate(389,380)"/>
<path d="M0 0 C3.34139976 0.02999461 4.22721051 0.29795352 7.1875 2.1875 C10.32180405 5.41678296 10.63788997 7.7618388 10.61328125 12.2734375 C10.00965397 15.661539 7.8344052 17.23236899 5.25 19.3125 C4.92 19.6425 4.59 19.9725 4.25 20.3125 C1.31771337 20.60572866 -0.89491883 20.81254247 -3.75 20.3125 C-6.6875 17.875 -6.6875 17.875 -8.75 15.3125 C-9.08 14.9825 -9.41 14.6525 -9.75 14.3125 C-10.04322866 11.38021337 -10.25004247 9.16758117 -9.75 6.3125 C-7.3125 3.375 -7.3125 3.375 -4.75 1.3125 C-3.75 0.3125 -3.75 0.3125 0 0 Z " fill="#6966F6" transform="translate(332.75,492.6875)"/>
<path d="M0 0 C2.8100346 1.79363911 4.50940468 3.01880935 6 6 C6.3751455 10.97067782 6.15878799 14.05151502 3 18 C-0.21522137 20.32826375 -3.10830425 20.39711181 -7 20 C-10.49406769 18.33237678 -11.82670681 17.25993978 -14 14 C-14.67226891 7.05322129 -14.67226891 7.05322129 -12.125 3.0625 C-8.49059499 -0.46501074 -4.90782663 -0.7051475 0 0 Z " fill="#6966F6" transform="translate(284,467)"/>
<path d="M0 0 C3.0625 1.9375 3.0625 1.9375 5 5 C5.69005003 8.15369971 5.73568899 10.8519355 5 14 C2.5625 17 2.5625 17 0 19 C-0.33 19.33 -0.66 19.66 -1 20 C-5.43946252 20.52228971 -7.51823656 20.29441099 -11.375 17.9375 C-14.51996441 14.41813506 -15.0822804 12.68998307 -15 8 C-12.11715652 0.36046479 -7.6980495 -1.2672796 0 0 Z " fill="#6A66F7" transform="translate(370,467)"/>
</svg>
