<?xml version="1.0" encoding="UTF-8"?>
<svg version="1.1" xmlns="http://www.w3.org/2000/svg" width="640" height="640">
<path d="M0 0 C211.2 0 422.4 0 640 0 C640 211.2 640 422.4 640 640 C428.8 640 217.6 640 0 640 C0 428.8 0 217.6 0 0 Z " fill="#FEFEFE" transform="translate(0,0)"/>
<path d="M0 0 C4.52406552 1.95825129 8.75109972 4.38884383 13 6.875 C14.2052295 7.56530583 15.4110443 8.25459072 16.61743164 8.94287109 C20.09409505 10.93559388 23.54853113 12.96394859 27 15 C27.90733887 15.53173828 28.81467773 16.06347656 29.74951172 16.61132812 C31.9895819 17.93245277 34.21731868 19.27077487 36.4375 20.625 C37.06205078 21.00124512 37.68660156 21.37749023 38.33007812 21.76513672 C42.0302321 24.09079847 44.87276209 26.15440932 47 30 C47.46626228 33.6209173 47.37721487 37.1697511 47.25 40.8125 C47.23195313 41.79154297 47.21390625 42.77058594 47.1953125 43.77929688 C47.14832887 46.18720771 47.08265694 48.59309335 47 51 C47.79277344 50.97679687 48.58554687 50.95359375 49.40234375 50.9296875 C61.99650072 50.73486076 74.46415823 51.88107383 87 53 C86.87818359 51.80503906 86.87818359 51.80503906 86.75390625 50.5859375 C86.25853129 42.27576976 86.25853129 42.27576976 88.07739258 39.14624023 C89.94399436 37.47854103 91.8362384 36.26478634 94 35 C94.99306152 34.39430176 95.98612305 33.78860352 97.00927734 33.16455078 C100.5377106 31.07054782 104.10326356 29.05856274 107.6875 27.0625 C109.50793427 26.03915883 111.32712068 25.01363963 113.14578247 23.9871521 C114.34443556 23.3128679 115.5451792 22.6422861 116.74801636 21.97549438 C119.65189298 20.36010633 122.48586403 18.68992162 125.28759766 16.90185547 C132.85667077 12.10680067 132.85667077 12.10680067 137.97265625 11.62890625 C143.92151299 13.11420442 149.24763314 16.80262524 154.4375 19.9375 C155.59190893 20.62474106 156.74694397 21.31093145 157.90258789 21.99609375 C160.19995066 23.35928956 162.49337859 24.72843591 164.78515625 26.10107422 C167.62350113 27.77761177 170.4824267 29.39222928 173.375 30.97265625 C174.15689697 31.40650635 174.93879395 31.84035645 175.74438477 32.28735352 C177.15875351 33.06940512 178.5807273 33.83793095 180.01147461 34.58959961 C183.84969177 36.75476046 185.79510851 38.75165818 187.41438293 42.84628296 C188.58597399 47.15502971 188.42551361 51.5363281 188.3984375 55.97265625 C188.40130768 57.01393173 188.40417786 58.05520721 188.40713501 59.1280365 C188.40916921 61.32079617 188.40368458 63.51357425 188.39111328 65.70629883 C188.37503474 69.05526387 188.39099284 72.40302508 188.41015625 75.75195312 C188.40817402 77.88802349 188.40433077 80.0240931 188.3984375 82.16015625 C188.40451019 83.15717056 188.41058289 84.15418488 188.4168396 85.18141174 C188.36281873 90.53951716 188.02944683 94.38131254 185 99 C180.96082079 102.92037982 175.93594265 105.3761002 171 108 C171.63369829 112.35661178 173.20694292 115.79631287 175.16015625 119.7265625 C175.46948593 120.35605804 175.77881561 120.98555359 176.09751892 121.63412476 C177.41417046 124.31313841 178.74443033 126.98532741 180.07348633 129.65820312 C181.04464017 131.6161784 182.0088028 133.57748593 182.97265625 135.5390625 C183.55281494 136.70646973 184.13297363 137.87387695 184.73071289 139.07666016 C186 142 186 142 186 145 C186.64066406 144.6390625 187.28132813 144.278125 187.94140625 143.90625 C188.80636719 143.4421875 189.67132813 142.978125 190.5625 142.5 C191.40941406 142.0359375 192.25632812 141.571875 193.12890625 141.09375 C197.62992502 139.37907618 201.44918983 139.35112001 205.91162109 141.21826172 C206.85602051 141.78303223 207.80041992 142.34780273 208.7734375 142.9296875 C209.83812256 143.55576904 210.90280762 144.18185059 211.99975586 144.8269043 C213.11358643 145.50277588 214.22741699 146.17864746 215.375 146.875 C216.53379911 147.56488239 217.69339239 148.2534325 218.85375977 148.94067383 C221.16314128 150.31068286 223.46766875 151.68836456 225.76904297 153.07177734 C228.62201871 154.77442223 231.49086619 156.43983401 234.37890625 158.08203125 C235.55090576 158.75226318 235.55090576 158.75226318 236.74658203 159.43603516 C238.16541198 160.24647892 239.58681406 161.05244294 241.01123047 161.85302734 C244.48182653 163.86477228 246.91481445 165.5625738 249 169 C249.38095093 171.42149353 249.38095093 171.42149353 249.38818359 174.14819336 C249.39764008 175.17283188 249.40709656 176.1974704 249.4168396 177.25315857 C249.40773056 178.90481773 249.40773056 178.90481773 249.3984375 180.58984375 C249.40130768 181.72651993 249.40417786 182.86319611 249.40713501 184.03431702 C249.40917596 186.43751524 249.403644 188.84073006 249.39111328 191.24389648 C249.37507574 194.92013792 249.3909542 198.5952774 249.41015625 202.27148438 C249.40817353 204.60677326 249.40432927 206.94206146 249.3984375 209.27734375 C249.40451019 210.37642563 249.41058289 211.47550751 249.4168396 212.6078949 C249.40738312 213.63568558 249.39792664 214.66347626 249.38818359 215.72241211 C249.38579681 216.62301865 249.38341003 217.52362518 249.38095093 218.45152283 C248.91467019 221.57083752 247.82364917 223.44610555 246 226 C243.54248047 227.78588867 243.54248047 227.78588867 240.6171875 229.41796875 C239.54009521 230.02833984 238.46300293 230.63871094 237.35327148 231.26757812 C235.6315271 232.21793945 235.6315271 232.21793945 233.875 233.1875 C232.09884731 234.18015236 230.32451334 235.17599374 228.55046082 236.1723938 C227.36966016 236.8353932 226.18802964 237.49691682 225.00556946 238.1569519 C221.5479273 240.09515167 218.16134284 242.11199583 214.81640625 244.23828125 C214.06439941 244.71048096 213.31239258 245.18268066 212.53759766 245.66918945 C211.18573709 246.52584976 209.84443368 247.39952434 208.51708984 248.29370117 C204.24131465 250.96107891 201.12659914 251.43023011 196.14379883 250.59082031 C192.93005697 249.70512901 190.39719411 248.2013011 187.625 246.375 C184.7198085 244.41411735 184.7198085 244.41411735 182 243 C178.60062217 244.13312594 178.26391334 244.68653253 176.3984375 247.578125 C175.91213867 248.32143066 175.42583984 249.06473633 174.92480469 249.83056641 C174.41336914 250.62897949 173.90193359 251.42739258 173.375 252.25 C172.30566812 253.88866117 171.23534634 255.52667677 170.1640625 257.1640625 C169.36790527 258.38657715 169.36790527 258.38657715 168.55566406 259.63378906 C166.34111935 263.00217691 164.0557754 266.31864067 161.75 269.625 C161.02296875 270.66914063 160.2959375 271.71328125 159.546875 272.7890625 C159.03640625 273.51867187 158.5259375 274.24828125 158 275 C159.93677628 277.03476793 161.59644754 278.3852057 164 279.9375 C166.84052989 281.8903643 168.23656226 283.108698 170 286 C170.40113831 288.44599915 170.40113831 288.44599915 170.43579102 291.20825195 C170.45493057 292.24645584 170.47407013 293.28465973 170.49378967 294.35432434 C170.49879738 296.02938301 170.49879738 296.02938301 170.50390625 297.73828125 C170.51389145 298.89241013 170.52387665 300.046539 170.53416443 301.23564148 C170.54935088 303.67748428 170.55639006 306.11938932 170.5559082 308.5612793 C170.56245809 312.28864827 170.61690825 316.01333809 170.67382812 319.74023438 C170.68263262 322.11457424 170.68858521 324.48892674 170.69140625 326.86328125 C170.7129628 327.97391434 170.73451935 329.08454742 170.75672913 330.22883606 C170.70064433 336.594873 169.9989387 340.27093275 165.48350525 344.89543152 C164 346 164 346 162 346 C162.433125 347.12921875 162.433125 347.12921875 162.875 348.28125 C167.58784095 361.7652116 167.65182744 374.56320767 161.78125 387.734375 C156.1119883 399.13589019 147.76073648 406.52506819 136.00816345 411.33085632 C127.25928617 414.24608511 118.2652768 414.27156589 109.14453125 414.171875 C107.73070118 414.1631994 106.31686717 414.15514763 104.9030304 414.14764404 C100.84979287 414.12176102 96.79688254 414.07896472 92.74384308 414.03170776 C89.85250253 413.99829552 86.96113958 413.96788582 84.06976318 413.93774414 C71.79081491 413.80623564 59.51290652 413.63461963 47.23504448 413.42490387 C41.33216567 413.32423917 35.42938919 413.23123062 29.52612305 413.15625 C23.71055466 413.08227015 17.89555859 412.98964881 12.08048439 412.88387299 C9.89391738 412.84714345 7.70723237 412.81679915 5.52048302 412.79331207 C-12.03817484 412.5971902 -26.95319669 410.74774218 -40.3125 398.1875 C-49.61809585 388.26402757 -53.58114723 375.37100764 -53.4855957 361.90795898 C-53.23073362 355.46582967 -51.4032217 349.91421776 -49 344 C-49.59014893 343.66266846 -50.18029785 343.32533691 -50.78833008 342.9777832 C-53.4704823 341.43520919 -56.14141016 339.87414471 -58.8125 338.3125 C-59.74126953 337.78205078 -60.67003906 337.25160156 -61.62695312 336.70507812 C-62.51962891 336.17978516 -63.41230469 335.65449219 -64.33203125 335.11328125 C-65.15421143 334.63673096 -65.9763916 334.16018066 -66.82348633 333.66918945 C-69.58975575 331.54771059 -70.66100842 330.25856567 -72 327 C-72.44431641 323.26066888 -72.44412199 319.54745968 -72.43359375 315.78515625 C-72.4388356 314.69665878 -72.44407745 313.60816132 -72.44947815 312.48667908 C-72.45589318 310.18782401 -72.45456811 307.8889361 -72.44604492 305.59008789 C-72.43753838 302.07834235 -72.46630012 298.56822542 -72.49804688 295.05664062 C-72.49965912 292.82031299 -72.49908091 290.58398247 -72.49609375 288.34765625 C-72.50732773 287.30062027 -72.51856171 286.25358429 -72.53013611 285.17481995 C-72.47408204 279.29245256 -72.09969944 275.57247739 -68 271 C-66.26074219 269.58447266 -66.26074219 269.58447266 -64.546875 268.6640625 C-63.928125 268.32246094 -63.309375 267.98085938 -62.671875 267.62890625 C-61.72054687 267.13197266 -61.72054687 267.13197266 -60.75 266.625 C-60.1003125 266.27050781 -59.450625 265.91601562 -58.78125 265.55078125 C-57.19455263 264.68743121 -55.59821382 263.8418399 -54 263 C-54.63447725 258.34585324 -56.53590796 254.45467207 -58.59765625 250.29296875 C-58.95137802 249.56757401 -59.30509979 248.84217926 -59.66954041 248.09480286 C-60.79511865 245.78967614 -61.92867335 243.48857895 -63.0625 241.1875 C-63.82930659 239.62070225 -64.59558855 238.05364763 -65.36132812 236.48632812 C-67.23482179 232.65455012 -69.1154766 228.82636468 -71 225 C-73.50783328 225.99311867 -75.98796402 226.99444493 -78.4375 228.125 C-82.20201709 229.41044486 -85.23716432 229.72530549 -89.00561523 228.17480469 C-91.37912452 226.95206364 -93.69023131 225.65181974 -96 224.3125 C-96.85851562 223.82571777 -97.71703125 223.33893555 -98.6015625 222.83740234 C-100.44127333 221.7893106 -102.27710253 220.7343817 -104.109375 219.67333984 C-107.08527755 217.95063409 -110.07355732 216.2507424 -113.0625 214.55078125 C-115.0426471 213.41055513 -117.02183777 212.26866619 -119 211.125 C-119.93714844 210.59044189 -120.87429687 210.05588379 -121.83984375 209.50512695 C-122.71769531 208.99038818 -123.59554687 208.47564941 -124.5 207.9453125 C-125.66015625 207.27266357 -125.66015625 207.27266357 -126.84375 206.58642578 C-130.32690785 204.02374918 -132.68141324 202.05365729 -133.3742981 197.58721924 C-133.54771323 194.50019713 -133.58043928 191.43955348 -133.56640625 188.34765625 C-133.57260483 187.21476669 -133.57880341 186.08187714 -133.58518982 184.91465759 C-133.59228567 182.5216457 -133.58911817 180.12858441 -133.57641602 177.7355957 C-133.56256124 174.078663 -133.59661586 170.42429438 -133.63476562 166.76757812 C-133.63571694 164.44010354 -133.63385732 162.11262576 -133.62890625 159.78515625 C-133.64879356 158.14898094 -133.64879356 158.14898094 -133.66908264 156.47975159 C-133.56551747 148.01407914 -133.56551747 148.01407914 -130.81591797 144.48754883 C-128.07464695 142.06594224 -125.50344386 140.20095479 -122.31640625 138.4140625 C-121.23029053 137.79668213 -120.1441748 137.17930176 -119.02514648 136.54321289 C-117.88247314 135.91020264 -116.7397998 135.27719238 -115.5625 134.625 C-114.38108493 133.96241012 -113.20017823 133.29891298 -112.01977539 132.63452148 C-109.71363448 131.33708159 -107.40505451 130.04441026 -105.09472656 128.75439453 C-102.52608793 127.29823823 -100.00024515 125.80312529 -97.4921875 124.24609375 C-86.98771312 117.73715248 -86.98771312 117.73715248 -81.29296875 118.25 C-77.04168259 119.64053994 -73.39472594 122.08824261 -69.69921875 124.56640625 C-67.19426146 126.16270706 -67.19426146 126.16270706 -64.859375 126.01953125 C-62.17802822 124.54929699 -61.17602988 122.7195848 -59.5625 120.125 C-58.88316406 119.06023437 -58.20382813 117.99546875 -57.50390625 116.8984375 C-57.1186377 116.29225586 -56.73336914 115.68607422 -56.33642578 115.06152344 C-53.64016323 110.90236359 -50.80825344 106.83396905 -48 102.75 C-46.85403928 101.07821231 -45.70819609 99.40634406 -44.5625 97.734375 C-43.70843483 96.48951369 -42.85430909 95.24469392 -42 94 C-45.37178077 91.29662146 -45.37178077 91.29662146 -48.765625 88.62109375 C-52.88888889 85.33333333 -52.88888889 85.33333333 -54 82 C-54.11204007 80.32958541 -54.16892458 78.65519772 -54.19287109 76.98120117 C-54.20893402 75.95971481 -54.22499695 74.93822845 -54.24154663 73.88578796 C-54.2860649 69.21935749 -54.32705275 64.55306778 -54.35009766 59.88647461 C-54.36666371 57.42576647 -54.39396189 54.96510657 -54.43212891 52.50463867 C-54.48690148 48.95466172 -54.50877244 45.40581137 -54.5234375 41.85546875 C-54.54610687 40.7584111 -54.56877625 39.66135345 -54.59213257 38.53105164 C-54.56856165 30.0047495 -54.56856165 30.0047495 -51.8203125 26.48095703 C-49.08623262 24.07585664 -46.52809577 22.22104193 -43.3515625 20.44921875 C-41.73000244 19.53088257 -41.73000244 19.53088257 -40.07568359 18.59399414 C-38.93695801 17.96485107 -37.79823242 17.33570801 -36.625 16.6875 C-34.85821415 15.6981917 -33.09339035 14.70545619 -31.32888794 13.71208191 C-29.60240167 12.74022804 -27.87445277 11.770974 -26.14648438 10.80175781 C-23.46506559 9.26630851 -20.84009854 7.68277513 -18.234375 6.0234375 C-17.56583496 5.59973877 -16.89729492 5.17604004 -16.20849609 4.73950195 C-14.51421944 3.6518711 -12.83080487 2.5473693 -11.1484375 1.44140625 C-7.17014852 -0.3799196 -4.22771781 -0.98297711 0 0 Z " fill="#6965F6" transform="translate(262,103)"/>
<path d="M0 0 C0.95857407 -0.0030162 1.91714813 -0.00603241 2.9047699 -0.00914001 C3.94198685 -0.00201492 4.9792038 0.00511017 6.04785156 0.01245117 C7.67576378 0.01232277 7.67576378 0.01232277 9.33656311 0.01219177 C12.87066137 0.01547831 16.40444266 0.03432637 19.93847656 0.05541992 C22.35734013 0.06495239 24.77620407 0.07439228 27.19506836 0.08374023 C33.12409214 0.11172462 39.05280405 0.15725256 44.98162842 0.21295166 C47.88536166 0.24008729 50.78909812 0.26305593 53.69287109 0.28540039 C57.46934004 0.31806592 61.2446307 0.37317191 65.02038574 0.45346069 C66.94504181 0.49180554 68.87000315 0.51372697 70.79492188 0.53515625 C78.56658347 0.75516044 84.5754133 1.6709921 90.24707031 7.27807617 C90.70210937 7.94709961 91.15714844 8.61612305 91.62597656 9.30541992 C92.0990625 9.97702148 92.57214844 10.64862305 93.05957031 11.34057617 C96.2315519 16.68574929 95.44880383 22.8271751 95.48364258 28.84716797 C95.49512495 30.2271554 95.51551759 31.60709973 95.54516602 32.98681641 C95.74451172 42.27142606 95.73262092 49.09288965 89.37207031 56.30151367 C88.79585937 56.75655273 88.21964844 57.2115918 87.62597656 57.68041992 C87.0471875 58.15350586 86.46839844 58.6265918 85.87207031 59.11401367 C84.18847656 60.24291992 84.18847656 60.24291992 81.18847656 61.24291992 C80.81539889 67.6052266 80.55401721 73.96452221 80.34375 80.33422852 C80.23419562 83.09203611 80.09968161 85.83897885 79.93164062 88.59301758 C78.69770795 109.24476838 78.85332437 124.18125325 91.35839844 141.60229492 C94.45950949 146.07689699 97.00556846 150.85178023 99.62597656 155.61791992 C100.70709208 157.53583845 101.79044174 159.45249924 102.87597656 161.36791992 C107.4812075 169.52825787 112.05674576 177.70519108 116.62988281 185.88354492 C119.04901196 190.20948557 121.47399164 194.53207406 123.90332031 198.85229492 C127.3450171 204.97511769 130.77460519 211.10453769 134.18847656 217.24291992 C134.63545898 218.04600586 135.08244141 218.8490918 135.54296875 219.67651367 C136.68377302 221.73557039 137.81385171 223.79999272 138.93847656 225.86791992 C139.53144531 226.95331055 140.12441406 228.03870117 140.73535156 229.15698242 C145.23548464 238.71371664 145.83026722 250.3395775 143.06347656 260.55541992 C137.8308058 274.99371518 129.65015226 284.01208208 116.00878906 290.83276367 C106.86255447 294.57278431 97.05374057 294.52104375 87.33300781 294.41479492 C85.91917774 294.40611932 84.50534374 294.39806755 83.09150696 294.39056396 C79.03826943 294.36468094 74.9853591 294.32188464 70.93231964 294.27462769 C68.04097909 294.24121545 65.14961614 294.21080574 62.25823975 294.18066406 C49.97929147 294.04915556 37.70138308 293.87753955 25.42352104 293.66782379 C19.52064223 293.5671591 13.61786575 293.47415054 7.71459961 293.39916992 C1.89903123 293.32519007 -3.91596485 293.23256873 -9.73103905 293.12679291 C-11.91760606 293.09006338 -14.10429107 293.05971907 -16.29104042 293.03623199 C-33.84969828 292.84011012 -48.76472013 290.9906621 -62.12402344 278.43041992 C-71.42961929 268.50694749 -75.39267067 255.61392756 -75.29711914 242.15087891 C-75.04225706 235.70874959 -73.21474514 230.15713769 -70.81152344 224.24291992 C-71.40167236 223.90558838 -71.99182129 223.56825684 -72.59985352 223.22070312 C-75.28200574 221.67812911 -77.9529336 220.11706463 -80.62402344 218.55541992 C-82.01717773 217.75974609 -82.01717773 217.75974609 -83.43847656 216.94799805 C-84.33115234 216.42270508 -85.22382813 215.89741211 -86.14355469 215.35620117 C-86.96573486 214.87965088 -87.78791504 214.40310059 -88.63500977 213.91210938 C-91.40127919 211.79063052 -92.47253186 210.50148559 -93.81152344 207.24291992 C-94.25583985 203.5035888 -94.25564543 199.7903796 -94.24511719 196.02807617 C-94.25035904 194.9395787 -94.25560089 193.85108124 -94.26100159 192.729599 C-94.26741661 190.43074394 -94.26609155 188.13185603 -94.25756836 185.83300781 C-94.24906181 182.32126227 -94.27782356 178.81114535 -94.30957031 175.29956055 C-94.31118256 173.06323291 -94.31060434 170.8269024 -94.30761719 168.59057617 C-94.31885117 167.54354019 -94.33008514 166.49650421 -94.34165955 165.41773987 C-94.28572804 159.54823416 -93.96470348 155.75326381 -89.81152344 151.24291992 C-87.22460938 149.32763672 -87.22460938 149.32763672 -84.29589844 147.69213867 C-83.21679199 147.07991455 -82.13768555 146.46769043 -81.02587891 145.83691406 C-79.31102295 144.89319946 -79.31102295 144.89319946 -77.56152344 143.93041992 C-76.38139293 143.27061356 -75.2018707 142.6097181 -74.02294922 141.94775391 C-71.69234787 140.6407006 -69.35816288 139.34093254 -67.02148438 138.04467773 C-64.25866668 136.49390236 -61.53222817 134.90225525 -58.81933594 133.26635742 C-57.75054199 132.63080933 -57.75054199 132.63080933 -56.66015625 131.98242188 C-55.39433611 131.22753334 -54.13513668 130.46136355 -52.88476562 129.68115234 C-48.60419838 127.18007105 -44.66042715 126.19767029 -39.81152344 127.24291992 C-36.34130622 128.7520992 -33.196715 130.66594913 -29.99902344 132.68041992 C-28.32707003 133.70195667 -26.65394283 134.72157543 -24.97949219 135.73901367 C-23.88544067 136.42241821 -23.88544067 136.42241821 -22.76928711 137.11962891 C-20.71126248 138.38625092 -20.71126248 138.38625092 -17.81152344 139.24291992 C-17.5748999 138.53917236 -17.33827637 137.8354248 -17.09448242 137.11035156 C-15.81152344 134.24291992 -15.81152344 134.24291992 -13.70239258 131.56103516 C-4.22358406 119.47843516 -5.348688 105.05914645 -5.26641846 90.39923096 C-5.23716808 86.87840934 -5.15775058 83.35872064 -5.08300781 79.83862305 C-4.94441042 72.97369443 -4.85998806 66.1090627 -4.81152344 59.24291992 C-5.5963208 59.10716553 -6.38111816 58.97141113 -7.18969727 58.83154297 C-10.21998013 58.1512178 -11.34455039 57.24862507 -13.49902344 55.05541992 C-14.08039063 54.48436523 -14.66175781 53.91331055 -15.26074219 53.32495117 C-19.89956773 47.09700655 -19.21731095 39.37660977 -19.23706055 31.98510742 C-19.24895656 29.87975589 -19.29820381 27.77734193 -19.34863281 25.67260742 C-19.44005743 18.05607255 -19.18213075 12.03393861 -13.81152344 6.24291992 C-9.51267841 2.25862453 -5.90947464 -0.01007143 0 0 Z " fill="#072C76" transform="translate(283.8115234375,222.757080078125)"/>
<path d="M0 0 C14.19 0 28.38 0 43 0 C42.82597656 4.30675781 42.65195312 8.61351562 42.47265625 13.05078125 C42.37561426 16.57161909 42.29448882 20.09205944 42.22374725 23.61348724 C42.14577475 27.28502602 42.04250373 30.95104035 41.8684082 34.61938477 C40.87589168 56.11372912 43.9783138 70.05706877 56.07978821 88.07427979 C59.16719853 92.77839567 61.84614926 97.70085888 64.5625 102.625 C65.62414851 104.5038227 66.68769506 106.38157531 67.75390625 108.2578125 C71.18970566 114.32713283 74.59604039 120.41278119 78 126.5 C82.63155518 134.778921 87.27420927 143.05140817 91.9375 151.3125 C92.47810059 152.27244873 93.01870117 153.23239746 93.57568359 154.22143555 C95.76096075 158.09174978 97.9486217 161.95436518 100.26171875 165.75 C105.30961779 174.0467565 109.1066891 181.63020896 107.62890625 191.5546875 C105.57808733 199.52867906 100.73753934 205.39346269 94 210 C89.58497234 212.25163333 85.40452234 212.2894718 80.5546875 212.265625 C79.23773643 212.26999069 79.23773643 212.26999069 77.8941803 212.27444458 C74.88762953 212.27904596 71.88150875 212.26604187 68.875 212.25 C67.8232962 212.24623352 66.77159241 212.24246704 65.6880188 212.23858643 C58.05619805 212.20752992 50.42501705 212.13659392 42.79364014 212.05212402 C39.39608062 212.01452254 35.99850419 211.98027543 32.60089111 211.94787598 C21.48562154 211.84041916 10.37126081 211.70483658 -0.74304581 211.5221405 C-5.91403002 211.43722918 -11.08474647 211.36128292 -16.25616455 211.30822754 C-21.20772329 211.25646414 -26.15802173 211.17563804 -31.10879707 211.07387924 C-32.95343358 211.04066441 -34.79827914 211.01734969 -36.64317131 211.00470352 C-55.48896935 210.86223382 -55.48896935 210.86223382 -63 204 C-67.68386103 198.59431938 -70.36524621 193.1531869 -71 186 C-71.06703125 185.26523437 -71.1340625 184.53046875 -71.203125 183.7734375 C-71.14319341 174.81366417 -65.5179283 167.3732711 -61 160 C-59.96145566 158.28042113 -58.9237303 156.56034742 -57.88671875 154.83984375 C-54.92934794 149.94944285 -51.94612511 145.07519282 -48.95947266 140.20263672 C-45.52043378 134.58174064 -42.10500092 128.9465047 -38.6875 123.3125 C-37.25275823 120.94782315 -35.81782841 118.58326049 -34.3828125 116.21875 C-34.02419632 115.62780045 -33.66558014 115.03685089 -33.2960968 114.42799377 C-30.69817221 110.14785267 -28.09585219 105.87040114 -25.4921875 101.59375 C-16.18197063 86.30421482 -16.18197063 86.30421482 -7 70.9375 C-6.596604 70.25921143 -6.19320801 69.58092285 -5.77758789 68.88208008 C-3.24392867 64.57117099 -1.88612164 61.34438851 -1.81054688 56.35180664 C-1.79382935 55.40974869 -1.77711182 54.46769073 -1.7598877 53.49708557 C-1.74631226 52.4783989 -1.73273682 51.45971222 -1.71875 50.41015625 C-1.70034058 49.35525497 -1.68193115 48.3003537 -1.66296387 47.21348572 C-1.60417582 43.82988101 -1.55146165 40.44622355 -1.5 37.0625 C-1.44829969 33.71091851 -1.39510694 30.35939682 -1.33703613 27.00791931 C-1.30094875 24.92315261 -1.26840231 22.83832031 -1.2401123 20.75343323 C-1.11969358 13.76330746 -0.58361119 7.00333429 0 0 Z " fill="#D1DBFC" transform="translate(300,284)"/>
<path d="M0 0 C13.01013024 0.5318284 26.00865083 1.11379766 39 2 C39.0093457 2.60473145 39.01869141 3.20946289 39.02832031 3.83251953 C39.08231722 6.5974788 39.16590394 9.36079906 39.25 12.125 C39.26417969 13.07632813 39.27835938 14.02765625 39.29296875 15.0078125 C39.49320875 20.77472457 39.92250395 24.59153836 44 29 C46.41263705 30.68538282 48.68274779 32.10462932 51.25 33.5 C52.7677471 34.35010011 54.2846217 35.2017592 55.80078125 36.0546875 C56.62658691 36.51584961 57.45239258 36.97701172 58.30322266 37.45214844 C61.27776733 39.15942829 64.19058514 40.95064845 67.10546875 42.7578125 C68.15379883 43.39783203 69.20212891 44.03785156 70.28222656 44.69726562 C72.34724441 45.95890141 74.40307646 47.23572789 76.44824219 48.52929688 C82.7081165 52.2981888 87.6500611 54.32798386 95 53 C97.63293039 52.04945106 97.63293039 52.04945106 99.5 50.5 C102.88888889 48 102.88888889 48 105 48 C107.47803741 52.90136194 109.93504629 57.81248697 112.37304688 62.73388672 C113.20554154 64.4069932 114.04373815 66.07727502 114.88769531 67.74462891 C116.09905841 70.14027757 117.28962845 72.54529868 118.4765625 74.953125 C119.04982773 76.0705307 119.04982773 76.0705307 119.63467407 77.21051025 C122.15485767 82.39458554 122.15485767 82.39458554 121.38769531 85.39379883 C119.32085158 87.78608682 116.90764178 88.96453681 114.125 90.4375 C109.65194472 92.80591134 106.61668158 94.61410448 104 99 C103.40151025 102.82162529 103.43963799 106.60699096 103.46875 110.46875 C103.4649231 111.58181519 103.46109619 112.69488037 103.45715332 113.8416748 C103.45443486 116.19182237 103.4617913 118.54200022 103.47851562 120.89208984 C103.49992462 124.48734049 103.47871003 128.08059269 103.453125 131.67578125 C103.45576829 133.96094191 103.46089328 136.24610132 103.46875 138.53125 C103.46065308 139.60532104 103.45255615 140.67939209 103.44421387 141.78601074 C103.49709615 147.75555621 103.49709615 147.75555621 105.89941406 153.11791992 C107.93761132 154.94410108 109.88754763 156.43440279 112.25 157.8125 C113.5 158.54166667 114.75 159.27083333 116 160 C111.0746719 167.89006979 105.90144279 175.57230164 100.5625 183.1875 C99.46518555 184.75854492 99.46518555 184.75854492 98.34570312 186.36132812 C96.56583414 188.90898373 94.78391202 191.45517459 93 194 C88.64066044 193.25204262 85.85992732 191.8385247 82.125 189.4375 C75.4670191 185.44271146 71.41460797 185.49449584 64 187 C50.89902514 172.51874386 52.99929459 155.66003583 53.83105469 137.42041016 C54.00030616 133.50855132 54.00384734 129.61497857 53.9453125 125.69921875 C53.94203184 123.65364681 53.93936857 121.60807372 53.9375 119.5625 C53.90889893 118.65935059 53.88029785 117.75620117 53.85083008 116.82568359 C53.90366029 114.25227654 54.03236012 112.3885216 55 110 C57.15108286 108.06566424 59.27736436 106.70790186 61.82446289 105.3425293 C65.2714553 103.21538181 66.32728007 100.62422652 68 97 C68.33 96.34 68.66 95.68 69 95 C69.2588156 90.82682161 69.27111723 86.65175327 69.29516602 82.47119141 C69.30663404 81.08436844 69.32700338 79.69758779 69.35668945 78.31103516 C69.60261726 67.01125822 69.60261726 67.01125822 65 57 C63.30690186 55.14487186 63.30690186 55.14487186 61.4375 54.0625 C60.56931641 53.49208984 60.56931641 53.49208984 59.68359375 52.91015625 C50.06631924 47.71102641 33.86810686 50.20066531 23 50 C21.94582886 49.97983826 20.89165771 49.95967651 19.80554199 49.93890381 C12.73342923 49.80828869 5.66190208 49.71547461 -1.41119385 49.65896606 C-3.79650414 49.63639042 -6.18174933 49.60525329 -8.5668335 49.56539917 C-11.96150905 49.51124927 -15.35494967 49.49006671 -18.75 49.4765625 C-19.76659698 49.45393845 -20.78319397 49.43131439 -21.83059692 49.40800476 C-28.46613868 49.4274265 -32.89870136 50.65224205 -38 55 C-43.93091571 61.21414171 -43.71481334 68.27286074 -43.54199219 76.46362305 C-43.50001025 78.56198788 -43.50094513 80.65714343 -43.5078125 82.75585938 C-43.46985219 93.6431974 -43.46985219 93.6431974 -38.28125 102.9609375 C-37.6934375 103.42757812 -37.105625 103.89421875 -36.5 104.375 C-35.9121875 104.85710937 -35.324375 105.33921875 -34.71875 105.8359375 C-32.89183915 107.18614229 -32.89183915 107.18614229 -30 108 C-29.94758741 117.6568179 -29.93949513 127.31190843 -29.99478149 136.96875 C-30.01507197 141.66163831 -29.94894839 146.33998633 -29.80078125 151.03125 C-29.54391456 166.14557398 -33.99565384 175.93211083 -43 188 C-46.48770231 187.44748149 -48.97111747 186.63951691 -51.92578125 184.71484375 C-52.64056641 184.26689453 -53.35535156 183.81894531 -54.09179688 183.35742188 C-55.56574265 182.4149781 -57.03458353 181.4644998 -58.49804688 180.50585938 C-63.63814856 177.31115941 -66.93841834 176.28234974 -73 177 C-75.18828115 177.80371432 -75.18828115 177.80371432 -76.8125 179.0625 C-77.864375 179.701875 -78.91625 180.34125 -80 181 C-83 180 -83 180 -84.25512695 177.98144531 C-84.66206787 177.10584961 -85.06900879 176.23025391 -85.48828125 175.328125 C-85.94493164 174.35907227 -86.40158203 173.39001953 -86.87207031 172.39160156 C-87.34741211 171.35487305 -87.82275391 170.31814453 -88.3125 169.25 C-89.04291504 167.68330566 -89.04291504 167.68330566 -89.78808594 166.08496094 C-90.75609961 164.00640793 -91.72020963 161.92603194 -92.68017578 159.84375 C-93.79316663 157.44565206 -94.92941938 155.06286142 -96.08984375 152.6875 C-96.91162109 150.9859375 -96.91162109 150.9859375 -97.75 149.25 C-98.21921875 148.28578125 -98.6884375 147.3215625 -99.171875 146.328125 C-100 144 -100 144 -99 141 C-96.36353209 139.24235472 -93.68503204 137.68397144 -90.92382812 136.13671875 C-86.98071356 133.84140631 -84.3422979 131.9269405 -82 128 C-81.41525396 124.24955315 -81.46345085 120.53913474 -81.50390625 116.75 C-81.50245102 115.65913086 -81.50099579 114.56826172 -81.49949646 113.44433594 C-81.50115417 111.14124883 -81.51270102 108.83815051 -81.53344727 106.53515625 C-81.56239693 103.01254151 -81.55405349 99.49143251 -81.54101562 95.96875 C-81.5472534 93.72915936 -81.55564464 91.48957347 -81.56640625 89.25 C-81.56347061 88.19780273 -81.56053497 87.14560547 -81.55751038 86.06152344 C-81.588036 79.01928675 -81.588036 79.01928675 -85 73 C-86.99524696 71.37999001 -86.99524696 71.37999001 -89.1875 70.1875 C-89.90292969 69.76855469 -90.61835938 69.34960938 -91.35546875 68.91796875 C-92.16951172 68.46357422 -92.16951172 68.46357422 -93 68 C-92.35976136 64.29699812 -90.73346457 61.83094007 -88.625 58.75 C-87.9134375 57.70457031 -87.201875 56.65914062 -86.46875 55.58203125 C-85.64619545 54.38777134 -84.82325251 53.19377888 -84 52 C-83.03099134 50.58741698 -82.06225233 49.17464896 -81.09375 47.76171875 C-78.77148756 44.37682918 -76.44302253 40.99628331 -74.10986328 37.61889648 C-73.06034729 36.08802527 -72.02957056 34.54435584 -71 33 C-65.92265849 33.87710766 -61.76230758 36.93033507 -57.38671875 39.50390625 C-53.49855782 41.22151367 -51.21860327 41.31839045 -47 41 C-43.91745022 39.83424727 -43.91745022 39.83424727 -40.97265625 38.0703125 C-39.85761719 37.44423096 -38.74257813 36.81814941 -37.59375 36.1730957 C-36.41623874 35.49113549 -35.23916276 34.80842318 -34.0625 34.125 C-32.85333125 33.43562287 -31.64369289 32.74706883 -30.43359375 32.05932617 C-26.94043433 30.06511091 -23.46800262 28.03766438 -20 26 C-19.08589355 25.46294434 -18.17178711 24.92588867 -17.22998047 24.37255859 C-14.97598173 23.03577535 -12.73396914 21.68243968 -10.5 20.3125 C-9.86715088 19.92787598 -9.23430176 19.54325195 -8.58227539 19.14697266 C-5.38404076 17.13039163 -2.80324396 15.36481604 -1 12 C-0.42562939 8.96116319 -0.42562939 8.96116319 -0.3125 5.75 C-0.24675781 4.67234375 -0.18101562 3.5946875 -0.11328125 2.484375 C-0.07589844 1.66453125 -0.03851563 0.8446875 0 0 Z " fill="#FDFDFE" transform="translate(309,174)"/>
<path d="M0 0 C2.91162109 1.21826172 2.91162109 1.21826172 5.7734375 2.9296875 C6.83812256 3.55576904 7.90280762 4.18185059 8.99975586 4.8269043 C10.11358643 5.50277588 11.22741699 6.17864746 12.375 6.875 C13.53379911 7.56488239 14.69339239 8.2534325 15.85375977 8.94067383 C18.16314128 10.31068286 20.46766875 11.68836456 22.76904297 13.07177734 C25.62201871 14.77442223 28.49086619 16.43983401 31.37890625 18.08203125 C32.16023926 18.52885254 32.94157227 18.97567383 33.74658203 19.43603516 C35.16541198 20.24647892 36.58681406 21.05244294 38.01123047 21.85302734 C41.48182653 23.86477228 43.91481445 25.5625738 46 29 C46.38095093 31.42149353 46.38095093 31.42149353 46.38818359 34.14819336 C46.39764008 35.17283188 46.40709656 36.1974704 46.4168396 37.25315857 C46.40773056 38.90481773 46.40773056 38.90481773 46.3984375 40.58984375 C46.40274277 42.29485802 46.40274277 42.29485802 46.40713501 44.03431702 C46.40917596 46.43751524 46.403644 48.84073006 46.39111328 51.24389648 C46.37507574 54.92013792 46.3909542 58.5952774 46.41015625 62.27148438 C46.40817353 64.60677326 46.40432927 66.94206146 46.3984375 69.27734375 C46.40451019 70.37642563 46.41058289 71.47550751 46.4168396 72.6078949 C46.40265488 74.14958092 46.40265488 74.14958092 46.38818359 75.72241211 C46.38579681 76.62301865 46.38341003 77.52362518 46.38095093 78.45152283 C45.91467019 81.57083752 44.82364917 83.44610555 43 86 C40.54248047 87.78588867 40.54248047 87.78588867 37.6171875 89.41796875 C36.54009521 90.02833984 35.46300293 90.63871094 34.35327148 91.26757812 C32.6315271 92.21793945 32.6315271 92.21793945 30.875 93.1875 C29.09884731 94.18015236 27.32451334 95.17599374 25.55046082 96.1723938 C24.36966016 96.8353932 23.18802964 97.49691682 22.00556946 98.1569519 C18.5479273 100.09515167 15.16134284 102.11199583 11.81640625 104.23828125 C11.06439941 104.71048096 10.31239258 105.18268066 9.53759766 105.66918945 C8.18573709 106.52584976 6.84443368 107.39952434 5.51708984 108.29370117 C1.24131465 110.96107891 -1.87340086 111.43023011 -6.85620117 110.59082031 C-10.06994303 109.70512901 -12.60280589 108.2013011 -15.375 106.375 C-18.2801915 104.41411735 -18.2801915 104.41411735 -21 103 C-24.39937783 104.13312594 -24.73608666 104.68653253 -26.6015625 107.578125 C-27.08786133 108.32143066 -27.57416016 109.06473633 -28.07519531 109.83056641 C-28.84234863 111.02818604 -28.84234863 111.02818604 -29.625 112.25 C-30.69433188 113.88866117 -31.76465366 115.52667677 -32.8359375 117.1640625 C-33.36670898 117.97907227 -33.89748047 118.79408203 -34.44433594 119.63378906 C-36.65888065 123.00217691 -38.9442246 126.31864067 -41.25 129.625 C-41.97703125 130.66914063 -42.7040625 131.71328125 -43.453125 132.7890625 C-44.21882813 133.88347656 -44.21882813 133.88347656 -45 135 C-43.06322372 137.03476793 -41.40355246 138.3852057 -39 139.9375 C-36.15947011 141.8903643 -34.76343774 143.108698 -33 146 C-32.59886169 148.44599915 -32.59886169 148.44599915 -32.56420898 151.20825195 C-32.54506943 152.24645584 -32.52592987 153.28465973 -32.50621033 154.35432434 C-32.50287186 155.47103012 -32.49953339 156.5877359 -32.49609375 157.73828125 C-32.48610855 158.89241013 -32.47612335 160.046539 -32.46583557 161.23564148 C-32.45064912 163.67748428 -32.44360994 166.11938932 -32.4440918 168.5612793 C-32.43754191 172.28864827 -32.38309175 176.01333809 -32.32617188 179.74023438 C-32.31736738 182.11457424 -32.31141479 184.48892674 -32.30859375 186.86328125 C-32.2870372 187.97391434 -32.26548065 189.08454742 -32.24327087 190.22883606 C-32.29935567 196.594873 -33.0010613 200.27093275 -37.51649475 204.89543152 C-39 206 -39 206 -41 206 C-41.33 206.66 -41.66 207.32 -42 208 C-42.49886719 207.03964844 -42.99773437 206.07929688 -43.51171875 205.08984375 C-48.97725593 194.63471195 -54.71479843 184.35035574 -60.54296875 174.09375 C-64.05610252 167.91111322 -67.5308168 161.70737717 -71 155.5 C-76.30544367 146.01110306 -81.64097418 136.53966578 -87.00195312 127.08203125 C-87.51306641 126.1796875 -88.02417969 125.27734375 -88.55078125 124.34765625 C-89.00106689 123.55367432 -89.45135254 122.75969238 -89.9152832 121.94165039 C-90.64018326 120.6440744 -91.33529201 119.32941598 -92 118 C-87.8247018 115.97561299 -84.61972302 115.61701778 -80 116 C-77.40680568 117.0681318 -75.10739577 118.48963388 -72.75 120 C-68.2323555 123.02975888 -68.2323555 123.02975888 -63 124 C-61.16404508 121.87511398 -61.16404508 121.87511398 -59.41796875 119.06640625 C-58.73283203 118.02419922 -58.04769531 116.98199219 -57.34179688 115.90820312 C-56.63087891 114.80412109 -55.91996094 113.70003906 -55.1875 112.5625 C-54.48818359 111.49322266 -53.78886719 110.42394531 -53.06835938 109.32226562 C-51.69056232 107.21497079 -50.31661515 105.10515315 -48.94677734 102.99267578 C-46.33156228 98.97244676 -43.67219652 94.98250875 -41 91 C-41.99229614 90.36723145 -41.99229614 90.36723145 -43.00463867 89.72167969 C-50.54215922 84.91514485 -50.54215922 84.91514485 -53 81 C-53.40113831 78.62992859 -53.40113831 78.62992859 -53.43579102 75.9753418 C-53.45493057 74.97717941 -53.47407013 73.97901703 -53.49378967 72.9506073 C-53.49712814 71.87764908 -53.50046661 70.80469086 -53.50390625 69.69921875 C-53.51389145 68.58948196 -53.52387665 67.47974518 -53.53416443 66.33638 C-53.54934895 63.98869555 -53.55639012 61.6409464 -53.5559082 59.29321289 C-53.56245766 55.71065791 -53.6169074 52.13089127 -53.67382812 48.54882812 C-53.68263279 46.26563446 -53.68858527 43.98242765 -53.69140625 41.69921875 C-53.7129628 40.63233322 -53.73451935 39.56544769 -53.75672913 38.4662323 C-53.70103743 32.38641899 -53.06974569 28.70526448 -48.65364075 24.36158752 C-46.36858934 22.4801042 -44.08385421 20.9676748 -41.47265625 19.5703125 C-39.92360596 18.72460693 -39.92360596 18.72460693 -38.34326172 17.86181641 C-37.26061035 17.28866699 -36.17795898 16.71551758 -35.0625 16.125 C-32.81518484 14.90850369 -30.56908626 13.68975719 -28.32421875 12.46875 C-27.23931152 11.8809375 -26.1544043 11.293125 -25.03662109 10.6875 C-19.91161593 7.83945082 -14.99304905 4.6819204 -10.0859375 1.4765625 C-6.35907413 -0.30667086 -4.10453538 -0.30816799 0 0 Z " fill="#082C76" transform="translate(465,243)"/>
<path d="M0 0 C2.25396427 1.18850118 4.39180287 2.48537378 6.54125977 3.85375977 C8.19193907 4.86216567 9.84299747 5.86995121 11.49438477 6.87719727 C12.35741211 7.41183594 13.22043945 7.94647461 14.10961914 8.49731445 C16.98924538 10.24866009 19.90475544 11.92072178 22.83813477 13.58032227 C23.82982666 14.14662354 24.82151855 14.7129248 25.84326172 15.29638672 C27.77193615 16.39704887 29.70522145 17.48968023 31.64355469 18.57324219 C32.5263208 19.0847583 33.40908691 19.59627441 34.31860352 20.12329102 C35.09840576 20.56648682 35.87820801 21.00968262 36.68164062 21.46630859 C40.25776676 24.26506843 42.50990542 26.98480681 43.23478699 31.58354187 C43.41645141 34.5441498 43.46051733 37.47740692 43.45532227 40.44360352 C43.46389252 41.52831436 43.47246277 42.61302521 43.48129272 43.73060608 C43.49275296 46.01926894 43.4937992 48.30800464 43.48510742 50.59667969 C43.47878604 54.08924133 43.52573036 57.57841356 43.57641602 61.07055664 C43.58096242 63.29906801 43.58236879 65.52758845 43.58032227 67.75610352 C43.59874176 68.79484116 43.61716125 69.8335788 43.63613892 70.90379333 C43.55897425 76.98118161 42.77408452 80.43298462 38.45428467 84.81985474 C35.95458587 86.92266927 33.34373369 88.54394063 30.47875977 90.10375977 C29.41915039 90.6902832 28.35954102 91.27680664 27.26782227 91.88110352 C26.47118164 92.30520508 25.67454102 92.72930664 24.85375977 93.16625977 C26.23936751 97.63909135 28.0012725 101.72497769 30.07641602 105.92016602 C30.7034688 107.19941405 31.33041886 108.47871243 31.95727539 109.75805664 C32.93845507 111.74919466 33.92151709 113.73937419 34.90673828 115.72851562 C35.86412468 117.6649876 36.81434699 119.60485157 37.76391602 121.54516602 C38.33247314 122.69573486 38.90103027 123.84630371 39.48681641 125.03173828 C40.85375977 128.16625977 40.85375977 128.16625977 41.85375977 133.16625977 C36.24375977 136.46625977 30.63375977 139.76625977 24.85375977 143.16625977 C22.52401426 139.6716415 20.75864703 135.99096022 18.93969727 132.21704102 C18.5651944 131.44442429 18.19069153 130.67180756 17.80484009 129.8757782 C16.61074609 127.41110002 15.4197175 124.94495471 14.22875977 122.47875977 C13.41906558 120.8061361 12.60917211 119.13360888 11.79907227 117.46118164 C9.81498854 113.36398938 7.83365251 109.26547878 5.85375977 105.16625977 C3.34592648 106.15937844 0.86579574 107.1607047 -1.58374023 108.29125977 C-5.34825732 109.57670462 -8.38340455 109.89156526 -12.15185547 108.34106445 C-14.52536475 107.11832341 -16.83647154 105.81807951 -19.14624023 104.47875977 C-20.00475586 103.99197754 -20.86327148 103.50519531 -21.74780273 103.00366211 C-23.58751356 101.95557037 -25.42334277 100.90064147 -27.25561523 99.83959961 C-30.23151778 98.11689386 -33.21979755 96.41700217 -36.20874023 94.71704102 C-38.18888734 93.57681489 -40.16807801 92.43492596 -42.14624023 91.29125977 C-43.55196289 90.48942261 -43.55196289 90.48942261 -44.98608398 89.67138672 C-45.86393555 89.15664795 -46.74178711 88.64190918 -47.64624023 88.11157227 C-48.41967773 87.66313965 -49.19311523 87.21470703 -49.98999023 86.75268555 C-53.47314808 84.19000895 -55.82765347 82.21991706 -56.52053833 77.753479 C-56.69395346 74.66645689 -56.72667952 71.60581325 -56.71264648 68.51391602 C-56.71884506 67.38102646 -56.72504364 66.2481369 -56.73143005 65.08091736 C-56.73852591 62.68790546 -56.7353584 60.29484417 -56.72265625 57.90185547 C-56.70880147 54.24492276 -56.7428561 50.59055415 -56.78100586 46.93383789 C-56.78195718 44.60636331 -56.78009756 42.27888553 -56.77514648 39.95141602 C-56.7950338 38.31524071 -56.7950338 38.31524071 -56.81532288 36.64601135 C-56.71175771 28.18033891 -56.71175771 28.18033891 -53.9621582 24.65380859 C-51.22088719 22.23220201 -48.6496841 20.36721456 -45.46264648 18.58032227 C-44.37653076 17.96294189 -43.29041504 17.34556152 -42.17138672 16.70947266 C-41.02871338 16.0764624 -39.88604004 15.44345215 -38.70874023 14.79125977 C-37.52732516 14.12866988 -36.34641847 13.46517275 -35.16601562 12.80078125 C-32.85987471 11.50334136 -30.55129474 10.21067003 -28.2409668 8.9206543 C-25.67232816 7.464498 -23.14648539 5.96938506 -20.63842773 4.41235352 C-20.01895264 4.03320801 -19.39947754 3.6540625 -18.76123047 3.26342773 C-17.22529345 2.31606911 -15.69891751 1.35325439 -14.17358398 0.38891602 C-9.37098977 -1.55071236 -4.89522685 -1.90162663 0 0 Z " fill="#072C76" transform="translate(185.146240234375,222.833740234375)"/>
<path d="M0 0 C14.19 0 28.38 0 43 0 C42.82597656 4.30675781 42.65195312 8.61351562 42.47265625 13.05078125 C42.37561426 16.57161909 42.29448882 20.09205944 42.22374725 23.61348724 C42.14577475 27.28502602 42.04250373 30.95104035 41.8684082 34.61938477 C40.87640284 56.10214693 43.96265473 70.11857489 56.08811951 88.12142944 C59.08014249 92.62628699 61.73931674 97.31582916 64.4375 102 C64.90127548 102.77397629 65.36505096 103.54795258 65.84288025 104.34538269 C69 109.6671735 69 109.6671735 69 113 C67.83984375 113.17015625 66.6796875 113.3403125 65.484375 113.515625 C54.42599961 115.20303887 44.1966956 117.2875435 34.1875 122.5 C13.30177722 132.20447725 -13.71184318 130.69806224 -35 123 C-35.66 122.34 -36.32 121.68 -37 121 C-30.19503824 109.29613457 -23.20735702 97.70700344 -16.15454102 86.15136719 C-6.3239449 72.18306163 -6.3239449 72.18306163 -1.81054688 56.35180664 C-1.78547058 54.93871971 -1.78547058 54.93871971 -1.7598877 53.49708557 C-1.74631226 52.4783989 -1.73273682 51.45971222 -1.71875 50.41015625 C-1.70034058 49.35525497 -1.68193115 48.3003537 -1.66296387 47.21348572 C-1.60417582 43.82988101 -1.55146165 40.44622355 -1.5 37.0625 C-1.44829969 33.71091851 -1.39510694 30.35939682 -1.33703613 27.00791931 C-1.30094875 24.92315261 -1.26840231 22.83832031 -1.2401123 20.75343323 C-1.11969358 13.76330746 -0.58361119 7.00333429 0 0 Z " fill="#FEFEFE" transform="translate(300,284)"/>
<path d="M0 0 C3.08239859 0.38914002 6.13707058 0.83842312 9.19921875 1.3671875 C12.98208013 2.04918006 12.98208013 2.04918006 16.76953125 2.3203125 C20.92516598 2.94874714 23.51721563 3.61514765 27 6 C29.55016625 10.42424192 30.44842788 15.49958663 31.6015625 20.42578125 C36.99453131 43.4280353 52.15139312 63.5013351 67.82421875 80.578125 C70.29371363 83.32693439 72.64023635 86.15648846 75 89 C58.45712351 89.06313802 41.91497689 89.06429464 25.37207031 89.00921631 C22.25453643 89.00069568 19.13707475 88.99860083 16.01953125 88.99853516 C11.72329127 88.99557695 7.42846076 88.96224944 3.13265991 88.90133667 C1.6034656 88.88397843 0.07411919 88.87667934 -1.45516968 88.88015747 C-10.54587567 88.89215932 -17.85830892 88.16272365 -25 82 C-29.69592478 76.61496699 -32.36638182 71.14038949 -33 64 C-33.06703125 63.26523437 -33.1340625 62.53046875 -33.203125 61.7734375 C-33.14319896 52.8144946 -27.51791012 45.37249532 -23 38 C-21.86777868 36.12803396 -20.73630676 34.25561451 -19.60546875 32.3828125 C-17.2141517 28.43327398 -14.811145 24.49119292 -12.3984375 20.5546875 C-9.44779906 15.73944393 -6.52538067 10.90815648 -3.625 6.0625 C-3.24988281 5.43593506 -2.87476563 4.80937012 -2.48828125 4.16381836 C-1.65819709 2.77627179 -0.82897735 1.38820811 0 0 Z " fill="#92B1F3" transform="translate(262,406)"/>
<path d="M0 0 C2.25195063 1.26747489 4.50155747 2.53882868 6.75 3.8125 C7.38421875 4.16892578 8.0184375 4.52535156 8.671875 4.89257812 C11.94804537 6.75248735 15.04985101 8.63839084 18 11 C17.39478516 11.80824219 17.39478516 11.80824219 16.77734375 12.6328125 C9.21498985 22.87651057 2.14065442 33.46056143 -5 44 C-3.06322372 46.03476793 -1.40355246 47.3852057 1 48.9375 C3.84052989 50.8903643 5.23656226 52.108698 7 55 C7.40113831 57.44599915 7.40113831 57.44599915 7.43579102 60.20825195 C7.45493057 61.24645584 7.47407013 62.28465973 7.49378967 63.35432434 C7.49712814 64.47103012 7.50046661 65.5877359 7.50390625 66.73828125 C7.51389145 67.89241013 7.52387665 69.046539 7.53416443 70.23564148 C7.54935088 72.67748428 7.55639006 75.11938932 7.5559082 77.5612793 C7.56245809 81.28864827 7.61690825 85.01333809 7.67382812 88.74023438 C7.68263262 91.11457424 7.68858521 93.48892674 7.69140625 95.86328125 C7.72374107 97.52923088 7.72374107 97.52923088 7.75672913 99.22883606 C7.70064433 105.594873 6.9989387 109.27093275 2.48350525 113.89543152 C1 115 1 115 -1 115 C-1.33 115.66 -1.66 116.32 -2 117 C-2.74830078 115.55947266 -2.74830078 115.55947266 -3.51171875 114.08984375 C-8.97725593 103.63471195 -14.71479843 93.35035574 -20.54296875 83.09375 C-24.05610252 76.91111322 -27.5308168 70.70737717 -31 64.5 C-36.30544367 55.01110306 -41.64097418 45.53966578 -47.00195312 36.08203125 C-47.51306641 35.1796875 -48.02417969 34.27734375 -48.55078125 33.34765625 C-49.00106689 32.55367432 -49.45135254 31.75969238 -49.9152832 30.94165039 C-50.64018326 29.6440744 -51.33529201 28.32941598 -52 27 C-47.8247018 24.97561299 -44.61972302 24.61701778 -40 25 C-37.40680568 26.0681318 -35.10739577 27.48963388 -32.75 29 C-28.2323555 32.02975888 -28.2323555 32.02975888 -23 33 C-21.1803466 30.87452597 -21.1803466 30.87452597 -19.453125 28.06640625 C-18.7725 27.02419922 -18.091875 25.98199219 -17.390625 24.90820312 C-16.68421875 23.80412109 -15.9778125 22.70003906 -15.25 21.5625 C-10.44366455 14.12433721 -5.58956845 6.87701626 0 0 Z " fill="#6865F6" transform="translate(425,334)"/>
<path d="M0 0 C10.39081768 1.16535185 20.6703952 6.29684156 28.64306641 12.93359375 C35.56138982 21.93443714 32.73135956 36.51548948 31.39672852 47.11694336 C31.26580811 48.06835205 31.1348877 49.01976074 31 50 C27.11742619 52.33875317 23.22166173 54.65301223 19.31176758 56.94580078 C17.98398077 57.72895016 16.66002504 58.51863324 15.34008789 59.31494141 C13.44087865 60.45918104 11.52908501 61.57913806 9.61328125 62.6953125 C9.02662186 63.05561554 8.43996246 63.41591858 7.83552551 63.78713989 C5.09998401 65.35209791 3.58797582 66.13648632 0.45898438 65.41015625 C-0.35248047 64.94480469 -1.16394531 64.47945313 -2 64 C-2.94464111 63.50097168 -3.88928223 63.00194336 -4.86254883 62.48779297 C-5.88372803 61.91174316 -6.90490723 61.33569336 -7.95703125 60.7421875 C-8.95968018 60.17870605 -9.9623291 59.61522461 -10.99536133 59.03466797 C-12.25501709 58.32197754 -13.51467285 57.60928711 -14.8125 56.875 C-18.834375 54.60625 -22.85625 52.3375 -27 50 C-27 38.78 -27 27.56 -27 16 C-14.0625 8.5625 -14.0625 8.5625 -9.97680664 6.21704102 C-8.92356201 5.61045654 -7.87031738 5.00387207 -6.78515625 4.37890625 C-5.70113525 3.7557251 -4.61711426 3.13254395 -3.50024414 2.49047852 C-1.14058329 1.22234919 -1.14058329 1.22234919 0 0 Z " fill="#CFDAFB" transform="translate(176,244)"/>
<path d="M0 0 C2.77542742 1.31552051 5.49569683 2.67649314 8.19921875 4.13671875 C10.94164533 5.57680576 13.61429557 6.51774238 16.58203125 7.39453125 C21.83429135 9.25058487 26.1126111 11.02329229 29 16 C31.21838381 27.44605429 30.01928237 39.46043217 29 51 C25.39685435 53.1502213 21.78559946 55.28589741 18.16625977 57.40869141 C16.93706157 58.13232053 15.71013584 58.85982464 14.4855957 59.59130859 C12.72154403 60.64415308 10.9496977 61.68263474 9.17578125 62.71875 C7.58117065 63.66137695 7.58117065 63.66137695 5.9543457 64.62304688 C2.85397151 66.06806055 1.35070607 66.53525127 -2 66 C-4.73901367 64.73071289 -4.73901367 64.73071289 -7.66796875 62.97265625 C-8.72564453 62.34552734 -9.78332031 61.71839844 -10.87304688 61.07226562 C-11.96681641 60.40904297 -13.06058594 59.74582031 -14.1875 59.0625 C-16.36840942 57.76158435 -18.54939508 56.46079651 -20.73046875 55.16015625 C-21.69364014 54.57886963 -22.65681152 53.99758301 -23.64916992 53.39868164 C-25.07239279 52.55190173 -26.5187574 51.7406213 -28 51 C-28 39.45 -28 27.9 -28 16 C-15.6875 9.125 -15.6875 9.125 -11.81518555 6.96533203 C-10.8075415 6.40185059 -9.79989746 5.83836914 -8.76171875 5.2578125 C-7.73006592 4.6817627 -6.69841309 4.10571289 -5.63549805 3.51220703 C-3.7156323 2.41061848 -1.84170566 1.22780377 0 0 Z " fill="#FBCA50" transform="translate(461,265)"/>
<path d="M0 0 C2.84861595 1.07541317 5.38803812 2.48187363 8.03808594 3.98266602 C9.04323242 4.54864502 10.04837891 5.11462402 11.08398438 5.69775391 C12.98712402 6.78044556 12.98712402 6.78044556 14.92871094 7.88500977 C18.97121094 10.17438477 23.01371094 12.46375977 27.17871094 14.82250977 C27.17871094 25.71250977 27.17871094 36.60250977 27.17871094 47.82250977 C16.99121094 53.63500977 16.99121094 53.63500977 13.80688477 55.45068359 C12.54654419 56.17034302 12.54654419 56.17034302 11.26074219 56.90454102 C10.40714111 57.39156494 9.55354004 57.87858887 8.67407227 58.38037109 C6.13233535 59.80256648 6.13233535 59.80256648 3.67358398 61.56738281 C0.56482487 63.1313451 -0.55092211 62.86611713 -3.82128906 61.82250977 C-4.73563721 61.53375977 -5.64998535 61.24500977 -6.59204102 60.94750977 C-14.5004146 57.94941964 -22.51422255 54.63660546 -27.82128906 47.82250977 C-31.44979395 37.77388528 -29.21958871 25.12869522 -27.82128906 14.82250977 C-27.14026123 14.4391748 -26.4592334 14.05583984 -25.75756836 13.66088867 C-22.67395973 11.92430383 -19.59136433 10.18592818 -16.50878906 8.44750977 C-15.43693359 7.84422852 -14.36507812 7.24094727 -13.26074219 6.61938477 C-12.23271484 6.03930664 -11.2046875 5.45922852 -10.14550781 4.86157227 C-9.19764404 4.32741699 -8.24978027 3.79326172 -7.27319336 3.24291992 C-1.43404352 -0.13975196 -1.43404352 -0.13975196 0 0 Z " fill="#FC7CA0" transform="translate(258.8212890625,128.177490234375)"/>
<path d="M0 0 C0.91434814 0.3314502 1.82869629 0.66290039 2.77075195 1.00439453 C10.6336873 3.99431532 18.65278875 7.28356294 24 14 C27.02245994 24.28933799 25.46830883 35.53171099 24 46 C20.41963885 48.17621568 16.8268737 50.32975583 13.22119141 52.46362305 C11.99752738 53.19196367 10.77740276 53.92628631 9.56103516 54.66674805 C7.80756954 55.73273471 6.04232171 56.77625747 4.2734375 57.81640625 C3.21560059 58.45006104 2.15776367 59.08371582 1.06787109 59.73657227 C-2.59528171 61.24515222 -4.2361386 61.12619229 -8 60 C-10.68481445 58.70898438 -10.68481445 58.70898438 -13.36328125 57.09375 C-14.33201172 56.51496094 -15.30074219 55.93617188 -16.29882812 55.33984375 C-17.29333984 54.73269531 -18.28785156 54.12554687 -19.3125 53.5 C-20.83327148 52.58927734 -20.83327148 52.58927734 -22.38476562 51.66015625 C-29.79977679 47.20022321 -29.79977679 47.20022321 -31 46 C-31.38734139 41.53376938 -31.48515209 37.06259914 -31.56982422 32.58227539 C-31.60640382 31.07749438 -31.6608987 29.573035 -31.73388672 28.06958008 C-32.32764117 15.65135615 -32.32764117 15.65135615 -29.25976562 11.83544922 C-26.91240385 10.26019235 -24.58637932 9.13450384 -22 8 C-20.51176909 7.07465253 -19.03719027 6.12693415 -17.578125 5.15625 C-16.13702375 4.26822004 -14.69432005 3.38278513 -13.25 2.5 C-12.52167969 2.03335938 -11.79335938 1.56671875 -11.04296875 1.0859375 C-10.33269531 0.65539062 -9.62242187 0.22484375 -8.890625 -0.21875 C-8.26188477 -0.60998047 -7.63314453 -1.00121094 -6.98535156 -1.40429688 C-4.10067951 -2.26984038 -2.67868317 -1.27470613 0 0 Z " fill="#67CAD1" transform="translate(403,142)"/>
<path d="M0 0 C9.22270799 -0.02256554 18.44539774 -0.04092353 27.66812706 -0.05181217 C31.95031126 -0.05703738 36.23247564 -0.06412848 40.51464844 -0.07543945 C44.64487529 -0.08628117 48.77508305 -0.09227957 52.90532303 -0.09487724 C54.4834282 -0.09672917 56.06153229 -0.10034535 57.63962936 -0.10573006 C59.84489984 -0.11295752 62.05009074 -0.11399022 64.25537109 -0.11352539 C65.51223724 -0.115746 66.76910339 -0.11796661 68.0640564 -0.12025452 C71 0 71 0 73 1 C73 7.27 73 13.54 73 20 C48.64497305 20.13024079 24.34279956 19.77986086 0 19 C0 12.73 0 6.46 0 0 Z " fill="#90AFF1" transform="translate(285,244)"/>
<path d="M0 0 C2.930674 0.88742713 5.3148566 2.06711979 7.95703125 3.61328125 C8.84003906 4.11472656 9.72304687 4.61617188 10.6328125 5.1328125 C11.29667969 5.68324219 11.96054688 6.23367188 12.64453125 6.80078125 C12.64453125 11.50463599 11.08357597 13.93638991 8.70703125 17.80078125 C8.27898193 18.50976562 7.85093262 19.21875 7.40991211 19.94921875 C6.4160315 21.59322666 5.41840864 23.2349754 4.41796875 24.875 C2.74210432 27.63980717 1.08705225 30.41580614 -0.56175232 33.19677734 C-2.08355771 35.76084947 -3.61348851 38.32001771 -5.14480591 40.87841797 C-5.91007377 42.1597021 -6.67267188 43.44258457 -7.43258667 44.72705078 C-8.5117753 46.54847015 -9.60210557 48.36275056 -10.6953125 50.17578125 C-11.32816162 51.23539062 -11.96101074 52.295 -12.61303711 53.38671875 C-14.35546875 55.80078125 -14.35546875 55.80078125 -17.35546875 56.80078125 C-22.12680778 55.36995401 -25.76889508 53.25687563 -29.35546875 49.80078125 C-31.47927681 44.28845111 -31.67476219 39.09719323 -31.60546875 33.23828125 C-31.61317291 32.47265869 -31.62087708 31.70703613 -31.6288147 30.91821289 C-31.60998682 24.20240545 -31.32665251 18.24100315 -26.99560547 12.87939453 C-21.24785836 8.25030426 -14.80684423 5.28347886 -7.89916992 2.7734375 C-0.52903127 -0.04474394 -0.52903127 -0.04474394 0 0 Z " fill="#FA8D02" transform="translate(240.35546875,372.19921875)"/>
<path d="M0 0 C2.76902011 3.38382928 4.6507232 7.08039047 6.5390625 10.99609375 C7.02854874 12.0019326 7.02854874 12.0019326 7.52792358 13.02809143 C8.2141443 14.44158608 8.89815406 15.85615599 9.58007812 17.27172852 C10.62151244 19.43027145 11.67357335 21.58340282 12.7265625 23.73632812 C13.39387983 25.11426842 14.06056774 26.49251374 14.7265625 27.87109375 C15.04009674 28.51082626 15.35363098 29.15055878 15.67666626 29.80967712 C17.35425026 33.31640391 18.22308863 36.11544317 19 40 C13.39 43.3 7.78 46.6 2 50 C-0.31553156 46.52670265 -2.07157154 42.87209727 -3.87890625 39.12109375 C-4.43710304 37.96928368 -4.43710304 37.96928368 -5.00657654 36.79420471 C-6.1939542 34.34296545 -7.37828143 31.89026677 -8.5625 29.4375 C-9.36372771 27.78180202 -10.16515765 26.1262019 -10.96679688 24.47070312 C-12.43169549 21.4451947 -13.89523839 18.41903746 -15.35766602 15.39233398 C-16.22988333 13.59071967 -17.10483776 11.79032448 -18 10 C-17.28714844 9.61328125 -16.57429687 9.2265625 -15.83984375 8.828125 C-10.52719747 5.93941827 -5.23610159 3.02530314 0 0 Z " fill="#6965F6" transform="translate(208,316)"/>
<path d="M0 0 C0.33 0 0.66 0 1 0 C1.01981934 0.58265625 1.03963867 1.1653125 1.06005859 1.765625 C1.47025307 22.07398882 1.47025307 22.07398882 5 42 C-3.84698726 40.60213923 -12.38361708 38.39537771 -21 36 C-17.55467989 28.76639115 -13.6470216 21.96128767 -9.375 15.1875 C-8.23676156 13.36862574 -7.09873371 11.54961967 -5.9609375 9.73046875 C-5.46384277 8.94051514 -4.96674805 8.15056152 -4.45458984 7.33666992 C-3.40043821 5.64326857 -2.3787187 3.92953775 -1.37744141 2.2043457 C-0.92288574 1.47691162 -0.46833008 0.74947754 0 0 Z " fill="#D0DAFB" transform="translate(284,370)"/>
<path d="M0 0 C3.95403662 0.26360244 5.65370756 0.86143155 8.75 3.25 C11.1934877 6.91523155 11.59707648 9.98970357 10.75 14.25 C8.3125 17.1875 8.3125 17.1875 5.75 19.25 C5.42 19.58 5.09 19.91 4.75 20.25 C-2.32616708 20.83968059 -2.32616708 20.83968059 -6.1875 18.375 C-9.32180405 15.14571704 -9.63788997 12.8006612 -9.61328125 8.2890625 C-9.00965397 4.900961 -6.8344052 3.33013101 -4.25 1.25 C-3.25 0.25 -3.25 0.25 0 0 Z " fill="#6A66F7" transform="translate(364.25,433.75)"/>
<path d="M0 0 C5.53846154 3.07692308 5.53846154 3.07692308 7 6 C7.6469176 10.7040151 7.63833677 13.99101607 5.0625 18.0625 C1.49416328 20.32001915 -0.68767688 20.71863669 -4.84375 20.50390625 C-8.2622854 19.70500939 -9.89740451 17.69395048 -12 15 C-12.33 14.67 -12.66 14.34 -13 14 C-13.13661818 9.27691443 -12.58818086 5.84767241 -9.875 1.9375 C-6.19390816 -0.5432358 -4.36559685 -0.68930477 0 0 Z " fill="#6966F6" transform="translate(279,433)"/>
<path d="M0 0 C2.69990662 1.79993774 4.5418865 3.083773 6 6 C6.47847852 9.0828553 6.5463489 11.92347221 6 15 C3.4085135 18.17457096 1.92564305 19.54580349 -2.00390625 20.47265625 C-5.80737271 20.7541272 -7.8374258 20.11414784 -10.9375 17.9375 C-13.40599406 14.42176604 -14 12.28616677 -14 8 C-11.43831695 1.73810811 -6.68250414 -0.97453185 0 0 Z " fill="#6A66F7" transform="translate(335,459)"/>
<path d="M0 0 C4.3633321 1.5904512 8.24786385 3.74175922 12.25 6.0625 C12.88679688 6.42666016 13.52359375 6.79082031 14.1796875 7.16601562 C18.85925752 9.85925752 18.85925752 9.85925752 20 11 C20.08726223 12.78071246 20.10699041 14.5648314 20.09765625 16.34765625 C20.09443359 17.42724609 20.09121094 18.50683594 20.08789062 19.61914062 C20.07951172 20.75544922 20.07113281 21.89175781 20.0625 23.0625 C20.05798828 24.20267578 20.05347656 25.34285156 20.04882812 26.51757812 C20.03699747 29.34510351 20.0205141 32.1725264 20 35 C17.45573894 31.79191325 15.47651006 28.42429588 13.49609375 24.84375 C13.17214127 24.25960327 12.84818878 23.67545654 12.51441956 23.0736084 C11.83317311 21.84395 11.15334229 20.61350637 10.47485352 19.38232422 C9.43999129 17.50452056 8.40106316 15.62901546 7.36132812 13.75390625 C1.89236917 3.87253772 1.89236917 3.87253772 0 0 Z " fill="#ABD355" transform="translate(389,389)"/>
<path d="M0 0 C3.96 0 7.92 0 12 0 C10.29438597 4.26403507 8.3480032 8.10795043 6.0625 12.0625 C5.71509766 12.67416016 5.36769531 13.28582031 5.00976562 13.91601562 C3.1813613 17.10108907 1.28740967 20.12460415 -1 23 C-1.13707865 15.26267194 -0.72516706 7.70490004 0 0 Z " fill="#CFDAFB" transform="translate(300,284)"/>
</svg>
