<?xml version="1.0" encoding="UTF-8"?>
<svg version="1.1" xmlns="http://www.w3.org/2000/svg" width="640" height="640">
<path d="M0 0 C211.2 0 422.4 0 640 0 C640 211.2 640 422.4 640 640 C428.8 640 217.6 640 0 640 C0 428.8 0 217.6 0 0 Z " fill="#FEFEFE" transform="translate(0,0)"/>
<path d="M0 0 C3.78139339 1.59833636 7.23742225 3.63406102 10.75 5.75 C11.74410889 6.33185059 12.73821777 6.91370117 13.76245117 7.51318359 C15.82403595 8.72380244 17.88090567 9.94248463 19.93310547 11.16894531 C22.90377423 12.94254949 25.88875743 14.6891757 28.87890625 16.4296875 C30.69090351 17.49343123 32.5021376 18.55847632 34.3125 19.625 C35.15973633 20.1209668 36.00697266 20.61693359 36.87988281 21.12792969 C37.6581543 21.59360352 38.43642578 22.05927734 39.23828125 22.5390625 C40.259823 23.14548584 40.259823 23.14548584 41.30200195 23.76416016 C43 25 43 25 45 28 C45.24723816 30.390625 45.24723816 30.390625 45.24291992 33.25 C45.24599655 34.32121094 45.24907318 35.39242187 45.25224304 36.49609375 C45.24146477 38.23052734 45.24146477 38.23052734 45.23046875 40 C45.23001053 41.18722656 45.22955231 42.37445313 45.2290802 43.59765625 C45.22605733 46.10938516 45.21817001 48.62111218 45.20581055 51.1328125 C45.18757366 54.98444233 45.18530073 58.83583154 45.18554688 62.6875 C45.18063094 65.12500209 45.17480229 67.56250254 45.16796875 70 C45.16685593 71.15628906 45.1657431 72.31257813 45.16459656 73.50390625 C45.15821671 74.57511719 45.15183685 75.64632812 45.14526367 76.75 C45.14145187 77.69359375 45.13764008 78.6371875 45.13371277 79.609375 C45 82 45 82 44 85 C44.71542969 85.65484375 45.43085938 86.3096875 46.16796875 86.984375 C46.64298828 87.41951416 47.11800781 87.85465332 47.60742188 88.30297852 C48.67204488 89.27795079 49.73715935 90.25238666 50.80273438 91.22631836 C53.73577252 93.91052629 56.65446754 96.60820273 59.55078125 99.33203125 C60.12739502 99.87182617 60.70400879 100.41162109 61.2980957 100.96777344 C62.41342525 102.0128649 63.52537835 103.0615741 64.63354492 104.11425781 C68.39911902 107.74763922 68.39911902 107.74763922 73 110 C75.67755654 108.97245042 75.67755654 108.97245042 78.39453125 107.1328125 C79.43287109 106.49472656 80.47121094 105.85664063 81.54101562 105.19921875 C83.16040039 104.17248047 83.16040039 104.17248047 84.8125 103.125 C86.93503537 101.78000172 89.06634593 100.44873162 91.20703125 99.1328125 C92.62205933 98.23393311 92.62205933 98.23393311 94.06567383 97.31689453 C97.70134128 95.68524545 100.04624728 95.56008619 104 96 C107.11108398 97.31005859 107.11108398 97.31005859 110.24609375 99.1484375 C110.8151091 99.47682114 111.38412445 99.80520477 111.97038269 100.14353943 C113.80189034 101.20587906 115.61965181 102.28948118 117.4375 103.375 C118.69326847 104.11125894 119.94961925 104.84652556 121.20654297 105.58081055 C124.81794354 107.69823524 128.41030748 109.84597732 132 112 C132.93505371 112.55800293 133.87010742 113.11600586 134.83349609 113.69091797 C137.10524655 115.05236497 139.36837056 116.42616556 141.625 117.8125 C142.26236084 118.20163574 142.89972168 118.59077148 143.55639648 118.99169922 C146.45987179 120.81879809 148.06238834 122.09358251 150 125 C150.27415466 127.33920288 150.27415466 127.33920288 150.30639648 130.12646484 C150.32238388 131.17119965 150.33837128 132.21593445 150.35484314 133.29232788 C150.36288719 134.98453964 150.36288719 134.98453964 150.37109375 136.7109375 C150.38012222 137.87122467 150.3891507 139.03151184 150.39845276 140.22695923 C150.41297007 142.68318088 150.42184565 145.13944134 150.42553711 147.59570312 C150.43743203 151.35352757 150.48660564 155.10970981 150.53710938 158.8671875 C150.54657345 161.25259614 150.55380856 163.63801488 150.55859375 166.0234375 C150.57812607 167.14753021 150.59765839 168.27162292 150.61778259 169.42977905 C150.57282397 177.20460324 150.57282397 177.20460324 147.81591797 181.03271484 C145.04941929 182.96547419 142.32321351 184.78834832 139.38671875 186.453125 C137.77253052 187.37629517 137.77253052 187.37629517 136.12573242 188.31811523 C134.99111572 188.95563721 133.85649902 189.59315918 132.6875 190.25 C131.51441303 190.91488735 130.34164443 191.58033672 129.16918945 192.24633789 C126.850603 193.56214249 124.52955322 194.87324443 122.20703125 196.18212891 C119.4257152 197.75868793 116.66176454 199.35941258 113.90625 200.98046875 C113.17962158 201.40360352 112.45299316 201.82673828 111.7043457 202.26269531 C110.401636 203.02151859 109.10295924 203.78732785 107.80932617 204.56152344 C104.30724842 206.57397392 101.99493495 207.15594319 98 207 C97.96334229 207.56525391 97.92668457 208.13050781 97.88891602 208.71289062 C97.28664192 216.16352003 95.69397113 223.24589651 93.9375 230.5 C93.38228978 232.82248119 92.82881097 235.1453772 92.27734375 237.46875 C91.90984009 238.99145508 91.90984009 238.99145508 91.53491211 240.54492188 C90.92903818 242.90691309 90.92903818 242.90691309 91 245 C93.23485109 246.53951907 93.23485109 246.53951907 96.109375 248.08203125 C97.70652344 248.98598633 97.70652344 248.98598633 99.3359375 249.90820312 C101.5950776 251.16830701 103.8554774 252.42615538 106.1171875 253.68164062 C107.18710937 254.28814453 108.25703125 254.89464844 109.359375 255.51953125 C110.34389648 256.06714111 111.32841797 256.61475098 112.34277344 257.17895508 C115.46905963 259.32145496 117.13132823 260.66766203 119 264 C119.58352284 267.81303771 119.56036839 271.58226984 119.53125 275.43359375 C119.5350769 276.54428726 119.53890381 277.65498077 119.54284668 278.79933167 C119.54556535 281.14528308 119.53820745 283.49126482 119.52148438 285.8371582 C119.50009592 289.4214263 119.52127881 293.00368521 119.546875 296.58789062 C119.54423132 298.86979608 119.53910552 301.15170029 119.53125 303.43359375 C119.53934692 304.50250351 119.54744385 305.57141327 119.55578613 306.67271423 C119.48153426 312.58798456 119.17974273 316.44740166 115 321 C112.62841797 322.80761719 112.62841797 322.80761719 109.9921875 324.296875 C109.01378906 324.85874512 108.03539062 325.42061523 107.02734375 325.99951172 C105.98707031 326.57717285 104.94679688 327.15483398 103.875 327.75 C102.80636719 328.35473145 101.73773438 328.95946289 100.63671875 329.58251953 C98.46371183 330.81019056 96.28761009 332.03240033 94.10839844 333.24902344 C91.28118556 334.84160675 88.48444338 336.47472818 85.6953125 338.1328125 C84.1304574 339.04730133 82.56536934 339.9613917 81 340.875 C80.30245605 341.29749023 79.60491211 341.71998047 78.88623047 342.15527344 C74.3626107 344.7405128 70.23213007 346.2976878 65 345 C60.96171 343.14716339 57.2533048 340.86921208 53.5 338.5 C52.48679687 337.87996094 51.47359375 337.25992187 50.4296875 336.62109375 C47.94296363 335.0962159 45.46743111 333.55583117 43 332 C43.60303955 333.08547119 43.60303955 333.08547119 44.21826172 334.19287109 C44.78303223 335.20945801 45.34780273 336.22604492 45.9296875 337.2734375 C46.86893066 338.96388184 46.86893066 338.96388184 47.82714844 340.68847656 C49.19817223 343.15625335 50.56855296 345.62438575 51.93847656 348.09277344 C54.98770222 353.58591138 58.03904459 359.07767378 61.1171875 364.5546875 C61.56852051 365.35986816 62.01985352 366.16504883 62.48486328 366.99462891 C63.30070045 368.44902947 64.1191895 369.90194719 64.94091797 371.35302734 C72.0030935 383.96516863 74.13494213 397.00376192 71.3515625 411.33984375 C67.48937036 422.84389469 59.36962023 433.02508145 48.67578125 438.79296875 C41.32034825 442.26064769 35.71480847 444.15419335 27.59765625 444.16796875 C26.81279846 444.1721582 26.02794067 444.17634766 25.21929932 444.18066406 C22.50031981 444.19076193 19.78149596 444.19037374 17.0625 444.1875 C15.62709366 444.18709213 15.62709366 444.18709213 14.16268921 444.18667603 C-8.67078417 444.15797662 -31.50267761 443.7451661 -54.33132935 443.30728149 C-58.56129095 443.2262922 -62.79129234 443.15138455 -67.02145386 443.08163452 C-72.10018877 442.99718032 -77.17846001 442.89837159 -82.2567215 442.78918457 C-84.15094345 442.7505662 -86.04526581 442.71655072 -87.93965912 442.68753052 C-104.71979861 442.42402203 -120.41228697 440.72579518 -133.37890625 428.81640625 C-142.82132244 418.23634956 -147.42850533 405.70846882 -147.26953125 391.71875 C-146.46000641 380.54965361 -140.73497925 371.3302961 -135 362 C-134.49162598 361.17161621 -133.98325195 360.34323242 -133.45947266 359.48974609 C-130.70403115 355.00982161 -127.93331253 350.53980409 -125.1484375 346.078125 C-124.63063721 345.23113037 -124.11283691 344.38413574 -123.5793457 343.51147461 C-122.53998717 341.85868727 -121.45283657 340.23486025 -120.31713867 338.64672852 C-115.43615603 331.50960162 -114.81987823 324.95715576 -114.5625 316.4375 C-114.46646484 315.17486328 -114.37042969 313.91222656 -114.27148438 312.61132812 C-113.9939374 305.51370199 -113.9939374 305.51370199 -116.89794922 299.21948242 C-119.15834214 296.94030314 -121.46097349 294.95960696 -124 293 C-125.33911364 291.81902214 -126.67351654 290.63264671 -128 289.4375 C-128.64582031 288.88964844 -129.29164063 288.34179688 -129.95703125 287.77734375 C-131.45035099 286.47818413 -132.90089114 285.12939092 -134.32421875 283.75390625 C-135.49404297 282.63822266 -135.49404297 282.63822266 -136.6875 281.5 C-137.39261719 280.8090625 -138.09773438 280.118125 -138.82421875 279.40625 C-140.8992427 277.74305653 -140.8992427 277.74305653 -143.3359375 278.24194336 C-146.19054471 279.05421933 -148.28153599 280.16124508 -150.80078125 281.72265625 C-151.69603516 282.26083984 -152.59128906 282.79902344 -153.51367188 283.35351562 C-155.37277603 284.48869786 -157.22701397 285.63188997 -159.07617188 286.78320312 C-167.91071752 292.05859848 -167.91071752 292.05859848 -172.81713867 291.63354492 C-178.14431952 290.08740531 -182.79774484 286.98992981 -187.5 284.125 C-188.65688614 283.43518717 -189.81452573 282.74663645 -190.97290039 282.05932617 C-194.32837576 280.06098282 -197.66405306 278.03077763 -201 276 C-202.71704973 274.97199088 -204.43445125 273.9445689 -206.15234375 272.91796875 C-207.58201854 272.05160332 -209.01052032 271.18329736 -210.4375 270.3125 C-211.07429687 269.92787598 -211.71109375 269.54325195 -212.3671875 269.14697266 C-215.64128046 267.10066456 -217.97749921 265.29383023 -220 262 C-220.39440918 259.5852356 -220.39440918 259.5852356 -220.41992188 256.86767578 C-220.43583374 255.84626495 -220.45174561 254.82485413 -220.46813965 253.77249146 C-220.46834106 252.6745224 -220.46854248 251.57655334 -220.46875 250.4453125 C-220.47636353 249.311008 -220.48397705 248.17670349 -220.49182129 247.00802612 C-220.5026246 244.60905152 -220.50547448 242.21002987 -220.50097656 239.81103516 C-220.50000539 236.1453577 -220.54160425 232.48178086 -220.5859375 228.81640625 C-220.59114538 226.48437936 -220.59383268 224.1523452 -220.59375 221.8203125 C-220.61014526 220.72639191 -220.62654053 219.63247131 -220.64343262 218.50540161 C-220.56650868 210.00971844 -220.56650868 210.00971844 -217.84545898 206.49902344 C-214.96539459 203.96960781 -212.22759476 202.05674359 -208.87890625 200.1953125 C-208.00708961 199.70380203 -208.00708961 199.70380203 -207.11766052 199.20236206 C-205.27206693 198.16513202 -203.41779931 197.14474725 -201.5625 196.125 C-200.35418845 195.45034451 -199.14650117 194.77456971 -197.93945312 194.09765625 C-196.1295898 193.08317132 -194.31849761 192.07146639 -192.50186157 191.06915283 C-189.35216902 189.33033977 -186.23237963 187.55587901 -183.14404297 185.70996094 C-182.20273781 185.15294998 -182.20273781 185.15294998 -181.24241638 184.58468628 C-179.50335734 183.55216189 -177.77087086 182.50859065 -176.03881836 181.46435547 C-173.00227078 180.00109425 -171.30878261 179.6560805 -168 180 C-167.96261719 179.43474609 -167.92523438 178.86949219 -167.88671875 178.28710938 C-167.28006979 170.84673831 -165.72744775 163.75202123 -164 156.5 C-163.72671875 155.32179687 -163.4534375 154.14359375 -163.171875 152.9296875 C-161.14691558 144.29383117 -161.14691558 144.29383117 -160 142 C-160.73283203 141.71930664 -161.46566406 141.43861328 -162.22070312 141.14941406 C-166.51746332 139.37243348 -170.46744809 137.05343318 -174.5 134.75 C-175.34175781 134.28464844 -176.18351562 133.81929687 -177.05078125 133.33984375 C-177.86933594 132.87191406 -178.68789062 132.40398437 -179.53125 131.921875 C-180.26923828 131.50518555 -181.00722656 131.08849609 -181.76757812 130.65917969 C-185.68298897 127.74916961 -188.55825567 125.42459171 -189.45007324 120.5296936 C-189.62878438 117.48575955 -189.64051411 114.48243819 -189.59375 111.43359375 C-189.59379028 110.32194351 -189.59383057 109.21029327 -189.59387207 108.06495667 C-189.58852262 105.72073699 -189.57096482 103.37651743 -189.54199219 101.0324707 C-189.50010185 97.44621965 -189.50092918 93.86184536 -189.5078125 90.27539062 C-189.49732081 87.99477863 -189.48438282 85.7141763 -189.46875 83.43359375 C-189.46854858 82.36265976 -189.46834717 81.29172577 -189.46813965 80.18833923 C-189.31745083 70.70567286 -189.31745083 70.70567286 -186 67 C-183.7578125 65.32177734 -183.7578125 65.32177734 -181.125 63.8359375 C-180.14861572 63.27592041 -179.17223145 62.71590332 -178.16625977 62.13891602 C-177.12139404 61.55682373 -176.07652832 60.97473145 -175 60.375 C-172.82121054 59.14264116 -170.64283026 57.90955863 -168.46484375 56.67578125 C-167.37671387 56.06299316 -166.28858398 55.45020508 -165.16748047 54.81884766 C-162.23965184 53.13761417 -159.36679835 51.39444697 -156.50390625 49.60546875 C-155.24610352 48.83227295 -155.24610352 48.83227295 -153.96289062 48.04345703 C-152.40774007 47.08398355 -150.86260802 46.10799884 -149.33007812 45.11279297 C-144.94294015 42.45346618 -141.61198737 41.2650026 -136.48901367 42.18334961 C-131.040712 43.97094834 -126.25120636 47.03700763 -121.375 50 C-120.22083693 50.68719228 -119.06588284 51.37305771 -117.91015625 52.05761719 C-115.63756489 53.40694578 -113.37184823 54.76606442 -111.10839844 56.13085938 C-108.43118227 57.74072169 -105.74194656 59.32442551 -103.0390625 60.890625 C-93.2723833 66.59142505 -93.2723833 66.59142505 -91 70 C-82.15303892 68.20797164 -73.66274929 65.4731444 -65.06640625 62.74609375 C-63.94363281 62.39417969 -62.82085937 62.04226562 -61.6640625 61.6796875 C-60.64779785 61.35726074 -59.6315332 61.03483398 -58.58447266 60.70263672 C-56 60 -56 60 -53 60 C-53.02618408 59.09233887 -53.05236816 58.18467773 -53.0793457 57.24951172 C-53.16488814 53.8611649 -53.22739952 50.47397554 -53.2746582 47.08496094 C-53.29970529 45.62221093 -53.33375392 44.15958488 -53.37719727 42.69726562 C-53.43829356 40.58692781 -53.46630435 38.47825248 -53.48828125 36.3671875 C-53.51446533 35.09987793 -53.54064941 33.83256836 -53.56762695 32.52685547 C-52.84137895 28.01443454 -51.22993012 26.17739939 -48 23 C-45.59082031 21.28417969 -45.59082031 21.28417969 -43.078125 19.921875 C-42.14299072 19.40520264 -41.20785645 18.88853027 -40.24438477 18.35620117 C-39.25623779 17.82615479 -38.26809082 17.2961084 -37.25 16.75 C-35.17996659 15.61775371 -33.11096432 14.48362029 -31.04296875 13.34765625 C-30.02122559 12.78836426 -28.99948242 12.22907227 -27.94677734 11.65283203 C-25.25011271 10.14028691 -22.61346312 8.56627031 -19.98828125 6.93359375 C-19.23450195 6.46791992 -18.48072266 6.00224609 -17.70410156 5.52246094 C-16.32117616 4.66041852 -14.94610615 3.78558326 -13.58105469 2.89550781 C-9.16786643 0.1746119 -5.2089304 -1.19569292 0 0 Z " fill="#082C75" transform="translate(355,94)"/>
<path d="M0 0 C1.17296631 -0.00225586 2.34593262 -0.00451172 3.55444336 -0.00683594 C5.5074939 0.00041504 5.5074939 0.00041504 7.5 0.0078125 C8.50645065 0.01113586 8.50645065 0.01113586 9.53323364 0.01452637 C14.24717023 0.0323223 18.96083733 0.06883595 23.67462158 0.10998535 C26.73732803 0.13472995 29.80003967 0.15291492 32.86279297 0.17089844 C38.57544266 0.20725237 44.28748035 0.26797076 49.99975586 0.34234619 C52.28191464 0.3692099 54.56415972 0.3895702 56.84643555 0.40325928 C60.09476933 0.42464392 63.34187771 0.47120683 66.58984375 0.5234375 C68.04136086 0.52529556 68.04136086 0.52529556 69.52220154 0.52719116 C76.75202238 0.68238467 83.0629644 2.18144498 88.65625 6.984375 C89.0996875 7.56960937 89.543125 8.15484375 90 8.7578125 C90.4640625 9.34820312 90.928125 9.93859375 91.40625 10.546875 C94.8181807 15.49417451 93.72497962 21.76724605 93.74023438 27.57104492 C93.74988791 29.79449621 93.78088421 32.01700217 93.8125 34.24023438 C93.81903566 35.6666612 93.82428391 37.09309462 93.828125 38.51953125 C93.8374707 39.81076904 93.84681641 41.10200684 93.85644531 42.43237305 C93.25570882 48.66892309 90.83282074 53.54511995 86.5 58.1328125 C83.50493457 60.25127342 82.19349436 61.1328125 78.5 61.1328125 C78.26563946 68.64414747 78.08930532 76.15509252 77.98187828 83.6692791 C77.93024588 87.16090182 77.86055636 90.64997922 77.74560547 94.14013672 C77.18814141 111.50631529 77.67473729 124.9196209 88.5 139.1328125 C88.50410889 138.40690918 88.50821777 137.68100586 88.51245117 136.93310547 C88.5454749 133.62386334 88.61613026 130.31644066 88.6875 127.0078125 C88.69620117 125.29464844 88.69620117 125.29464844 88.70507812 123.546875 C88.98137724 112.98610893 88.98137724 112.98610893 92.67797852 109.44042969 C97.01471431 106.32806778 101.67132837 103.82722396 106.375 101.3203125 C108.63277303 100.09477113 110.88928862 98.86691035 113.14453125 97.63671875 C114.23588379 97.04262207 115.32723633 96.44852539 116.45166016 95.83642578 C119.08571635 94.36434152 121.6510784 92.83729137 124.19921875 91.22265625 C124.86646973 90.80024658 125.5337207 90.37783691 126.22119141 89.94262695 C127.92793731 88.84439865 129.62272757 87.72765024 131.31640625 86.609375 C135.20424159 84.80618266 138.33449182 84.31862535 142.5 85.1328125 C145.73338833 86.38676217 148.6449535 88.05615856 151.625 89.8203125 C152.47449219 90.30709473 153.32398438 90.79387695 154.19921875 91.29541016 C156.01796376 92.34211512 157.83197635 93.39707853 159.64160156 94.45947266 C162.5993984 96.19100148 165.57526304 97.88802654 168.5546875 99.58203125 C170.53735053 100.72240855 172.51914284 101.86430123 174.5 103.0078125 C175.90596436 103.80964966 175.90596436 103.80964966 177.34033203 104.62768555 C178.21802246 105.14242432 179.09571289 105.65716309 180 106.1875 C180.7734375 106.63593262 181.546875 107.08436523 182.34375 107.54638672 C185.80229032 110.09095137 188.18080863 112.07052871 188.86743164 116.5067749 C189.03093649 119.5342068 189.05417223 122.53461401 189.03125 125.56640625 C189.0350769 126.67709976 189.03890381 127.78779327 189.04284668 128.93214417 C189.04556535 131.27809558 189.03820745 133.62407732 189.02148438 135.9699707 C189.00009592 139.5542388 189.02127881 143.13649771 189.046875 146.72070312 C189.04423132 149.00260858 189.03910552 151.28451279 189.03125 153.56640625 C189.03934692 154.63531601 189.04744385 155.70422577 189.05578613 156.80552673 C188.98153426 162.72079706 188.67974273 166.58021416 184.5 171.1328125 C182.12841797 172.94042969 182.12841797 172.94042969 179.4921875 174.4296875 C178.51378906 174.99155762 177.53539062 175.55342773 176.52734375 176.13232422 C174.96693359 176.99881592 174.96693359 176.99881592 173.375 177.8828125 C171.77205078 178.78990967 171.77205078 178.78990967 170.13671875 179.71533203 C167.96371183 180.94300306 165.78761009 182.16521283 163.60839844 183.38183594 C160.78118556 184.97441925 157.98444338 186.60754068 155.1953125 188.265625 C153.6304574 189.18011383 152.06536934 190.0942042 150.5 191.0078125 C149.80245605 191.43030273 149.10491211 191.85279297 148.38623047 192.28808594 C143.8626107 194.8733253 139.73213007 196.4305003 134.5 195.1328125 C130.46171 193.27997589 126.7533048 191.00202458 123 188.6328125 C121.98679687 188.01277344 120.97359375 187.39273438 119.9296875 186.75390625 C117.44296363 185.2290284 114.96743111 183.68864367 112.5 182.1328125 C112.90202637 182.85645996 113.30405273 183.58010742 113.71826172 184.32568359 C114.28303223 185.34227051 114.84780273 186.35885742 115.4296875 187.40625 C116.05584961 188.53321289 116.68201172 189.66017578 117.32714844 190.82128906 C118.69817223 193.28906585 120.06855296 195.75719825 121.43847656 198.22558594 C124.48770222 203.71872388 127.53904459 209.21048628 130.6171875 214.6875 C131.06852051 215.49268066 131.51985352 216.29786133 131.98486328 217.12744141 C132.80070045 218.58184197 133.6191895 220.03475969 134.44091797 221.48583984 C141.5030935 234.09798113 143.63494213 247.13657442 140.8515625 261.47265625 C136.98937036 272.97670719 128.86962023 283.15789395 118.17578125 288.92578125 C110.82034825 292.39346019 105.21480847 294.28700585 97.09765625 294.30078125 C96.31279846 294.3049707 95.52794067 294.30916016 94.71929932 294.31347656 C92.00031981 294.32357443 89.28149596 294.32318624 86.5625 294.3203125 C85.12709366 294.31990463 85.12709366 294.31990463 83.66268921 294.31948853 C60.82921583 294.29078912 37.99732239 293.8779786 15.16867065 293.44009399 C10.93870905 293.3591047 6.70870766 293.28419705 2.47854614 293.21444702 C-2.60018877 293.12999282 -7.67846001 293.03118409 -12.7567215 292.92199707 C-14.65094345 292.8833787 -16.54526581 292.84936322 -18.43965912 292.82034302 C-35.21979861 292.55683453 -50.91228697 290.85860768 -63.87890625 278.94921875 C-73.32132244 268.36916206 -77.92850533 255.84128132 -77.76953125 241.8515625 C-76.96000641 230.68246611 -71.23497925 221.4631086 -65.5 212.1328125 C-64.99162598 211.30442871 -64.48325195 210.47604492 -63.95947266 209.62255859 C-61.20403115 205.14263411 -58.43331253 200.67261659 -55.6484375 196.2109375 C-55.13063721 195.36394287 -54.61283691 194.51694824 -54.0793457 193.64428711 C-53.03998717 191.99149977 -51.95283657 190.36767275 -50.81713867 188.77954102 C-45.93615603 181.64241412 -45.31987823 175.08996826 -45.0625 166.5703125 C-44.96646484 165.30767578 -44.87042969 164.04503906 -44.77148438 162.74414062 C-44.4939374 155.64651449 -44.4939374 155.64651449 -47.39794922 149.35229492 C-49.65834214 147.07311564 -51.96097349 145.09241946 -54.5 143.1328125 C-55.83953494 141.95231254 -57.17401934 140.76601702 -58.5 139.5703125 C-59.83329198 138.42443104 -61.16662751 137.27860027 -62.5 136.1328125 C-64.12789407 134.69859071 -65.7528719 133.26105247 -67.375 131.8203125 C-68.48488281 130.83611328 -68.48488281 130.83611328 -69.6171875 129.83203125 C-70.94427515 128.63434841 -72.23595771 127.39685479 -73.5 126.1328125 C-70.56830554 124.45577444 -67.62875476 122.79301732 -64.6875 121.1328125 C-63.85412109 120.65585937 -63.02074219 120.17890625 -62.16210938 119.6875 C-60.95844727 119.01074219 -60.95844727 119.01074219 -59.73046875 118.3203125 C-58.99207764 117.90136719 -58.25368652 117.48242188 -57.49291992 117.05078125 C-55.5 116.1328125 -55.5 116.1328125 -52.5 116.1328125 C-50.30078125 118.07421875 -50.30078125 118.07421875 -47.8125 120.6953125 C-44.11537035 124.5108364 -40.36421643 128.0997384 -36.3046875 131.5234375 C-34.50908448 133.12471118 -32.9681845 134.83325695 -31.375 136.6328125 C-28.7489774 139.44211954 -28.7489774 139.44211954 -25.4375 139.2578125 C-17.37464359 136.16991005 -13.07865138 128.83033686 -9.41189575 121.42189026 C-7.95958633 117.77624416 -7.82056924 114.35006332 -7.76953125 110.4609375 C-7.7428688 109.64848068 -7.71620636 108.83602386 -7.68873596 107.99894714 C-7.60719674 105.37705512 -7.55339467 102.75541391 -7.5 100.1328125 C-7.44859406 98.33987212 -7.39535887 96.54698329 -7.34033203 94.75415039 C-7.17964122 89.31837966 -7.05631377 83.88213373 -6.9375 78.4453125 C-6.89413626 76.55663473 -6.85051757 74.66796279 -6.80664062 72.77929688 C-6.70150468 68.23053027 -6.59976053 63.68170004 -6.5 59.1328125 C-7.098125 59.0090625 -7.69625 58.8853125 -8.3125 58.7578125 C-12.46619936 57.57104126 -15.35454144 54.90668404 -17.65258789 51.34790039 C-21.0182752 44.48359459 -21.06562343 38.11306276 -20.9375 30.5703125 C-20.94458984 29.39017578 -20.95167969 28.21003906 -20.95898438 26.99414062 C-20.90096178 19.01826504 -20.4744958 12.56492303 -15.0625 6.3203125 C-9.95118511 1.95699491 -6.84646867 0.00771992 0 0 Z " fill="#072C76" transform="translate(285.5,243.8671875)"/>
<path d="M0 0 C5.48095369 -0.02473355 10.96187483 -0.04287596 16.44287109 -0.05493164 C18.30713466 -0.05995792 20.1713943 -0.06677992 22.03564453 -0.07543945 C24.71648124 -0.08757963 27.3972658 -0.09324539 30.078125 -0.09765625 C30.91055725 -0.10281754 31.7429895 -0.10797882 32.60064697 -0.11329651 C33.38115417 -0.11337204 34.16166138 -0.11344757 34.96582031 -0.11352539 C35.64976868 -0.115746 36.33371704 -0.11796661 37.03839111 -0.12025452 C39.12821596 0.00786015 40.98847744 0.43274249 43 1 C42.96882835 2.13155266 42.96882835 2.13155266 42.93702698 3.28596497 C42.75147986 10.53331898 42.64336465 17.77638091 42.61396885 25.02591419 C42.59635603 28.75009491 42.55280592 32.46949589 42.44116211 36.19213867 C41.82222374 57.7142888 44.94541015 71.88625036 57.01263428 89.93191528 C60.47972636 95.28439375 63.45598954 100.89881337 66.5 106.5 C67.74271966 108.7474222 68.99244496 110.99084155 70.2421875 113.234375 C72.7705545 117.7851721 75.29632484 122.33739765 77.8203125 126.890625 C79.08839545 129.17716443 80.3566236 131.46362334 81.625 133.75 C82.24165527 134.86173584 82.85831055 135.97347168 83.49365234 137.11889648 C88.17661238 145.54859533 92.91172353 153.94797356 97.70166016 162.31738281 C108.94234348 182.06482714 108.94234348 182.06482714 106.55859375 194.2578125 C104.68678103 200.26174011 100.67541303 205.83307953 95.23327637 209.04161072 C88.71222388 212.26817119 83.044387 212.53990762 75.8515625 212.42578125 C74.66979935 212.422901 73.48803619 212.42002075 72.27046204 212.41705322 C68.38823997 212.40211366 64.50697631 212.35785969 60.625 212.3125 C58.59708123 212.2976965 56.56916226 212.28601757 54.54122066 212.27481747 C46.06803316 212.22793635 37.59570502 212.13461385 29.12310028 212.02676392 C27.02041089 212.0002573 24.91771066 211.97491589 22.81500244 211.94995117 C13.52219743 211.83905477 4.22980883 211.70986286 -5.0625 211.5625 C-6.89019928 211.53357162 -6.89019928 211.53357162 -8.75482178 211.50405884 C-20.27834924 211.31367692 -31.8010312 211.07912974 -43.31640625 210.59375 C-44.11788589 210.56555679 -44.91936554 210.53736359 -45.74513245 210.50831604 C-53.00875053 210.16039157 -58.63846016 208.44828925 -63.81640625 203.13671875 C-65.40557964 201.16461201 -66.72041203 199.18332337 -68 197 C-68.61875 195.948125 -69.2375 194.89625 -69.875 193.8125 C-72.41903935 185.19103332 -72.14495934 178.44102681 -67.92626953 170.47827148 C-65.71661108 166.58836056 -63.38374084 162.78514773 -61 159 C-60.23479173 157.75966035 -59.47041542 156.5188069 -58.70703125 155.27734375 C-57.13857861 152.74340091 -55.54981164 150.22326135 -53.953125 147.70703125 C-50.11378412 141.62717234 -46.4101303 135.4641596 -42.6875 129.3125 C-37.16671677 120.19495477 -31.60665873 111.1039868 -25.97802734 102.05249023 C-20.43751177 93.12610404 -14.99734331 84.13900415 -9.55859375 75.15039062 C-9.2040361 74.56488434 -8.84947845 73.97937805 -8.48417664 73.37612915 C-7.51594869 71.77699602 -6.54859536 70.17733342 -5.58129883 68.57763672 C-4.42594104 66.69431612 -3.22559224 64.83838835 -2 63 C-1.68069465 60.91461444 -1.68069465 60.91461444 -1.69702148 58.59887695 C-1.68037949 57.70977127 -1.66373749 56.82066559 -1.64659119 55.90461731 C-1.63817703 54.94222641 -1.62976288 53.97983551 -1.62109375 52.98828125 C-1.60409927 51.98725876 -1.5871048 50.98623627 -1.56959534 49.95487976 C-1.51642459 46.74081818 -1.47626089 43.52676499 -1.4375 40.3125 C-1.37879021 36.12100568 -1.31437775 31.92963011 -1.24609375 27.73828125 C-1.23017181 26.72702179 -1.21424988 25.71576233 -1.19784546 24.67385864 C-1.04972549 16.42677749 -0.63226868 8.22404705 0 0 Z " fill="#FDFEFE" transform="translate(300,305)"/>
<path d="M0 0 C0.59619141 0.74781738 1.19238281 1.49563477 1.80664062 2.26611328 C4.30821528 5.38417127 6.61238218 6.80177862 10.09375 8.7421875 C10.97480408 9.2393779 10.97480408 9.2393779 11.87365723 9.74661255 C13.74378761 10.79924912 15.62146616 11.83744896 17.5 12.875 C19.34080386 13.90462684 21.17994905 14.93716394 23.01879883 15.97027588 C24.2340606 16.65078183 25.45135206 17.32767591 26.6706543 18.00091553 C29.60056488 19.62307734 32.46039929 21.28836252 35.30078125 23.06738281 C42.08663212 27.5846014 42.08663212 27.5846014 49.90429688 28.65673828 C54.91639793 27.08607753 59.3084697 24.17880118 63.75 21.4375 C65.77973611 20.19597384 67.81594887 18.96495614 69.859375 17.74609375 C70.75108398 17.19622803 71.64279297 16.6463623 72.56152344 16.07983398 C75 15 75 15 77.1159668 15.15283203 C79.25338166 16.11393474 80.59772194 17.18338532 82.28515625 18.80859375 C82.89359375 19.38617432 83.50203125 19.96375488 84.12890625 20.55883789 C84.76699219 21.17879639 85.40507812 21.79875488 86.0625 22.4375 C87.39604736 23.71728056 88.73069255 24.99591812 90.06640625 26.2734375 C90.72656738 26.90604492 91.38672852 27.53865234 92.06689453 28.19042969 C93.82803323 29.83902277 95.62286306 31.41949056 97.46484375 32.9765625 C98.46644531 33.82992187 99.46804688 34.68328125 100.5 35.5625 C101.3971875 36.30628906 102.294375 37.05007812 103.21875 37.81640625 C103.8065625 38.53699219 104.394375 39.25757813 105 40 C104.72618584 41.67747271 104.38358935 43.34417751 104 45 C103.89882026 46.72134591 103.84228991 48.4457128 103.82299805 50.16992188 C103.81016281 51.17446411 103.79732758 52.17900635 103.78410339 53.21398926 C103.77671646 54.2880603 103.76932953 55.36213135 103.76171875 56.46875 C103.74961113 58.13834778 103.74961113 58.13834778 103.73725891 59.8416748 C103.72345053 62.19179744 103.71271392 64.54193985 103.70483398 66.89208984 C103.68756228 70.48703627 103.64363922 74.08107667 103.59960938 77.67578125 C103.58948684 79.96093075 103.58096937 82.24608805 103.57421875 84.53125 C103.54795662 86.14235657 103.54795662 86.14235657 103.52116394 87.78601074 C103.52295157 93.646442 103.52295157 93.646442 105.67407227 98.99487305 C108.21736495 101.18738515 110.7208529 102.88899607 113.640625 104.55078125 C114.71054687 105.16630859 115.78046875 105.78183594 116.8828125 106.41601562 C118.54957031 107.35477539 118.54957031 107.35477539 120.25 108.3125 C121.93996094 109.28026367 121.93996094 109.28026367 123.6640625 110.26757812 C126.43767528 111.85417866 129.2162813 113.43122014 132 115 C130.6175016 123.54856177 129.16203342 132.07585243 127.4375 140.5625 C127.23576172 141.72330078 127.03402344 142.88410156 126.82617188 144.08007812 C125.110246 152.26043387 125.110246 152.26043387 122.18652344 154.20800781 C120.01171875 154.86328125 120.01171875 154.86328125 117.60668945 155.3581543 C112.39979928 156.64024798 107.93445286 159.88372493 103.375 162.625 C102.32481689 163.24874512 101.27463379 163.87249023 100.19262695 164.51513672 C98.09560605 165.76185741 96.00058286 167.01194537 93.90771484 168.265625 C91.35146697 169.79035925 88.78427492 171.29239744 86.20703125 172.78125 C84.86709115 173.56233474 83.52723904 174.34357046 82.1875 175.125 C81.04667969 175.78757812 79.90585937 176.45015625 78.73046875 177.1328125 C76.00338783 178.99768328 74.68478232 180.19907961 73 183 C72.49815261 185.89560969 72.49815261 185.89560969 72.48828125 189.078125 C72.45283203 190.23828125 72.41738281 191.3984375 72.38085938 192.59375 C72.35830078 193.8003125 72.33574219 195.006875 72.3125 196.25 C72.27833984 197.47203125 72.24417969 198.6940625 72.20898438 199.953125 C72.12652838 202.96865846 72.05736799 205.98390194 72 209 C65.59076207 203.36571837 60.21565076 193.87220043 59.25292969 185.37353516 C58.97416966 180.5102336 59.15955 175.67462641 59.375 170.8125 C59.41731011 169.08985371 59.45569325 167.36710669 59.49023438 165.64428711 C59.58477061 161.49801927 59.73182082 157.35622339 59.90710449 153.21264648 C60.03885233 150.07458957 60.14577706 146.93568904 60.2578125 143.796875 C60.44051612 139.19237087 60.68792791 134.59749062 61 130 C61.54342041 129.75185547 62.08684082 129.50371094 62.64672852 129.24804688 C68.02003622 126.78911698 68.02003622 126.78911698 71.9375 122.5 C72.31777344 121.9328125 72.69804687 121.365625 73.08984375 120.78125 C76.11607607 114.85866658 75.26009797 107.83567354 75.29516602 101.35595703 C75.30669494 99.87213614 75.32716158 98.38835701 75.35668945 96.90478516 C75.3995095 94.75134348 75.41555154 92.5991278 75.42578125 90.4453125 C75.44036377 89.16156738 75.45494629 87.87782227 75.4699707 86.55517578 C74.7793947 81.33119254 72.38352862 78.31071132 68.625 74.75 C62.51497579 70.67665053 56.48431672 70.66952012 49.3828125 70.5859375 C48.34475967 70.56639008 47.30670685 70.54684265 46.23719788 70.52670288 C42.8665466 70.46613432 39.49589579 70.41974522 36.125 70.375 C33.81159956 70.3392057 31.49820434 70.30307159 29.18481445 70.26660156 C23.4934975 70.18023659 17.80209373 70.10793648 12.11053467 70.03967285 C9.26252269 70.00334831 6.41474555 69.96019953 3.56689453 69.91308594 C-0.22367552 69.85053543 -4.01404508 69.80220916 -7.80499268 69.76983643 C-9.76382078 69.75048101 -11.72250455 69.71793757 -13.68115234 69.68505859 C-19.58095474 69.66299868 -23.90605934 69.6657843 -29 73 C-30.485 73.495 -30.485 73.495 -32 74 C-33.11935073 75.64630193 -33.11935073 75.64630193 -34 78 C-34.50660156 79.093125 -35.01320313 80.18625 -35.53515625 81.3125 C-37.73140668 87.21266454 -37.47486885 93.21728515 -37.4375 99.4375 C-37.45748047 100.61376953 -37.47746094 101.79003906 -37.49804688 103.00195312 C-37.49377285 110.64818269 -36.90211775 117.7503278 -31.51708984 123.61499023 C-29.11676558 125.71963313 -27.03434721 126.98855093 -24 128 C-23.97483089 133.49112636 -23.95692424 138.9822174 -23.94506836 144.47338867 C-23.94011345 146.3321186 -23.93334763 148.19084479 -23.92456055 150.04956055 C-23.89549343 156.36738398 -23.92066452 162.6826065 -24 169 C-24.01229645 170.31821243 -24.01229645 170.31821243 -24.02484131 171.66305542 C-24.26796808 189.73639159 -24.26796808 189.73639159 -29.75 196.9375 C-30.18054688 197.58138672 -30.61109375 198.22527344 -31.0546875 198.88867188 C-34.27654855 203.55265337 -37.51356783 207.07665649 -42.9453125 209.09375 C-46.62829023 208.98071744 -47.9029714 207.80457745 -50.38842773 205.17602539 C-50.87899658 204.62293701 -51.36956543 204.06984863 -51.875 203.5 C-52.92379636 202.38224882 -53.97457774 201.26635687 -55.02734375 200.15234375 C-55.53378418 199.60819824 -56.04022461 199.06405273 -56.56201172 198.50341797 C-58.41796903 196.56301303 -60.39443968 194.80317189 -62.4375 193.0625 C-63.36175781 192.26392578 -63.36175781 192.26392578 -64.3046875 191.44921875 C-65.40745124 190.50653362 -66.51654844 189.57119065 -67.6328125 188.64453125 C-69.0625 187.375 -69.0625 187.375 -71 185 C-70.63116455 182.66894531 -70.63116455 182.66894531 -70 180 C-69.90369859 178.30917996 -69.85228071 176.61538214 -69.83886719 174.921875 C-69.82925964 173.93735352 -69.8196521 172.95283203 -69.80975342 171.93847656 C-69.8033786 170.36018066 -69.8033786 170.36018066 -69.796875 168.75 C-69.78832489 167.11369629 -69.78832489 167.11369629 -69.77960205 165.44433594 C-69.77017075 163.14128586 -69.76362551 160.8382224 -69.75976562 158.53515625 C-69.75003531 155.01278289 -69.71898368 151.49098715 -69.6875 147.96875 C-69.6809719 145.72917012 -69.67572067 143.48958609 -69.671875 141.25 C-69.6595282 140.19780273 -69.6471814 139.14560547 -69.63446045 138.06152344 C-69.53935729 130.96880627 -69.53935729 130.96880627 -73 125 C-75.53564387 123.11498424 -75.53564387 123.11498424 -78.5078125 121.5546875 C-79.57644531 120.95269531 -80.64507812 120.35070312 -81.74609375 119.73046875 C-82.86113281 119.11816406 -83.97617188 118.50585938 -85.125 117.875 C-87.3405256 116.65150079 -89.55171981 115.42011447 -91.7578125 114.1796875 C-93.22951904 113.37120361 -93.22951904 113.37120361 -94.73095703 112.54638672 C-97 111 -97 111 -98 108 C-97.30921208 102.80109769 -96.2309411 97.68847613 -95.15185547 92.55761719 C-94.80132943 90.85599031 -94.46789382 89.15075112 -94.15185547 87.44238281 C-91.5298346 73.28511059 -91.5298346 73.28511059 -88.18994141 70.47949219 C-86.078125 69.859375 -86.078125 69.859375 -83.70751953 69.51757812 C-80.12789219 68.83328507 -77.53711807 67.26835967 -74.3828125 65.453125 C-73.50122971 64.94755066 -73.50122971 64.94755066 -72.60183716 64.4317627 C-71.3865634 63.73228267 -70.1734401 63.02905426 -68.96240234 62.32226562 C-67.13976024 61.25861373 -65.3109021 60.2064261 -63.48046875 59.15625 C-57.87490944 55.92803237 -52.31078741 52.62971269 -46.8046875 49.234375 C-45.94601074 48.70553711 -45.08733398 48.17669922 -44.20263672 47.63183594 C-41.81571816 45.86347375 -40.43079407 44.60917849 -39 42 C-38.49513031 38.61473759 -38.49513031 38.61473759 -38.48828125 34.828125 C-38.47033005 34.1457074 -38.45237885 33.46328979 -38.43388367 32.76019287 C-38.37989617 30.5901906 -38.34592417 28.42040675 -38.3125 26.25 C-38.27931648 24.77470926 -38.24482585 23.29944731 -38.20898438 21.82421875 C-38.12417842 18.21635573 -38.05731163 14.60841638 -38 11 C-33.42777385 9.55378499 -28.85506197 8.10916062 -24.28125 6.66796875 C-20.94522097 5.61631486 -17.61193414 4.55673414 -14.28125 3.48828125 C-12.85417672 3.03382259 -11.4270939 2.57939391 -10 2.125 C-9.33677734 1.91012939 -8.67355469 1.69525879 -7.99023438 1.47387695 C-5.19512283 0.58814854 -2.95456361 0 0 0 Z " fill="#FDFDFE" transform="translate(303,175)"/>
<path d="M0 0 C2.10272491 1.33501115 3.90008302 2.75895187 5.7565918 4.41918945 C6.45187988 5.04083984 7.14716797 5.66249023 7.86352539 6.30297852 C12.12292268 10.20942958 16.30132555 14.20078211 20.46557617 18.20825195 C21.14168945 18.85020508 21.81780273 19.4921582 22.5144043 20.15356445 C23.11808838 20.73219238 23.72177246 21.31082031 24.34375 21.90698242 C26.08970099 23.50588166 26.08970099 23.50588166 29.02612305 24.28637695 C31.5847418 23.10914936 31.5847418 23.10914936 34.32299805 21.3215332 C35.8853418 20.36923828 35.8853418 20.36923828 37.47924805 19.39770508 C39.66414565 18.0399103 41.8464767 16.67797619 44.02612305 15.31176758 C45.0728418 14.67561523 46.11956055 14.03946289 47.19799805 13.3840332 C48.14771484 12.79114502 49.09743164 12.19825684 50.07592773 11.58740234 C53.71651253 9.9819177 56.07758817 9.84923043 60.02612305 10.28637695 C63.13720703 11.59643555 63.13720703 11.59643555 66.2722168 13.43481445 C66.84123215 13.76319809 67.4102475 14.09158173 67.99650574 14.42991638 C69.82801338 15.49225601 71.64577486 16.57585813 73.46362305 17.66137695 C74.71939152 18.39763589 75.9757423 19.13290251 77.23266602 19.8671875 C80.84406659 21.98461219 84.43643052 24.13235427 88.02612305 26.28637695 C88.96117676 26.84437988 89.89623047 27.40238281 90.85961914 27.97729492 C93.1313696 29.33874192 95.39449361 30.71254252 97.65112305 32.09887695 C98.28848389 32.4880127 98.92584473 32.87714844 99.58251953 33.27807617 C102.48599483 35.10517504 104.08851139 36.37995947 106.02612305 39.28637695 C106.30027771 41.62557983 106.30027771 41.62557983 106.33251953 44.4128418 C106.34850693 45.4575766 106.36449432 46.5023114 106.38096619 47.57870483 C106.38632889 48.70684601 106.39169159 49.83498718 106.3972168 50.99731445 C106.40624527 52.15760162 106.41527374 53.31788879 106.42457581 54.51333618 C106.43909312 56.96955784 106.4479687 59.42581829 106.45166016 61.88208008 C106.46355508 65.63990453 106.51272869 69.39608676 106.56323242 73.15356445 C106.5726965 75.5389731 106.57993161 77.92439184 106.5847168 80.30981445 C106.60424911 81.43390717 106.62378143 82.55799988 106.64390564 83.71615601 C106.59894702 91.4909802 106.59894702 91.4909802 103.84204102 95.3190918 C101.07554234 97.25185115 98.34933656 99.07472527 95.4128418 100.73950195 C93.79865356 101.66267212 93.79865356 101.66267212 92.15185547 102.60449219 C91.01723877 103.24201416 89.88262207 103.87953613 88.71362305 104.53637695 C87.54053608 105.20126431 86.36776748 105.86671368 85.1953125 106.53271484 C82.87672604 107.84851944 80.55567627 109.15962138 78.2331543 110.46850586 C75.45183825 112.04506488 72.68788759 113.64578954 69.93237305 115.2668457 C69.20574463 115.68998047 68.47911621 116.11311523 67.73046875 116.54907227 C66.42775905 117.30789554 65.12908229 118.0737048 63.83544922 118.84790039 C60.33337146 120.86035087 58.021058 121.44232015 54.02612305 121.28637695 C53.98801514 121.85163086 53.94990723 122.41688477 53.91064453 122.99926758 C53.29961469 130.42962798 51.78708613 137.5363427 50.08862305 144.78637695 C49.8237207 145.96458008 49.55881836 147.1427832 49.28588867 148.35668945 C49.02614258 149.47817383 48.76639648 150.5996582 48.4987793 151.75512695 C48.14698608 153.27783203 48.14698608 153.27783203 47.78808594 154.83129883 C47.02612305 157.28637695 47.02612305 157.28637695 45.02612305 159.28637695 C43.94073242 158.64829102 42.8553418 158.01020508 41.73706055 157.3527832 C40.29202635 156.51766604 38.84669821 155.68305736 37.40112305 154.84887695 C36.68827148 154.42799805 35.97541992 154.00711914 35.2409668 153.57348633 C31.15631843 151.23137144 27.8102666 149.70140518 23.02612305 149.28637695 C23.02612305 148.95637695 23.02612305 148.62637695 23.02612305 148.28637695 C24.67612305 148.28637695 26.32612305 148.28637695 28.02612305 148.28637695 C28.17887695 146.73370117 28.17887695 146.73370117 28.3347168 145.1496582 C29.12363858 138.83410971 30.66287181 132.66977503 32.08862305 126.47387695 C32.64492195 124.05136707 33.19844448 121.62821744 33.7487793 119.2043457 C33.99378174 118.13982178 34.23878418 117.07529785 34.49121094 115.97851562 C35.12356525 113.25342488 35.12356525 113.25342488 35.02612305 110.28637695 C34.52274414 110.01486816 34.01936523 109.74335938 33.50073242 109.46362305 C31.17222797 108.20279445 28.84921054 106.93215679 26.52612305 105.66137695 C25.73463867 105.23469727 24.9431543 104.80801758 24.12768555 104.3684082 C10.90718447 97.10796909 10.90718447 97.10796909 7.02612305 91.28637695 C6.77888489 89.02310181 6.77888489 89.02310181 6.78320312 86.34350586 C6.7801265 85.33881256 6.77704987 84.33411926 6.77388 83.29898071 C6.78106552 82.2145871 6.78825104 81.13019348 6.7956543 80.01293945 C6.79634163 78.33909683 6.79634163 78.33909683 6.79704285 76.63143921 C6.80006576 74.26933734 6.8079532 71.90723748 6.8203125 69.54516602 C6.83851515 65.93278927 6.84082252 62.32066968 6.84057617 58.70825195 C6.84549357 56.41397891 6.85132286 54.1197076 6.8581543 51.82543945 C6.85926712 50.7450943 6.86037994 49.66474915 6.86152649 48.55166626 C6.86790634 47.54066864 6.87428619 46.52967102 6.88085938 45.48803711 C6.88657707 44.15925034 6.88657707 44.15925034 6.89241028 42.80361938 C7.02612305 40.28637695 7.02612305 40.28637695 7.61473083 37.57962036 C8.30984452 35.23441836 8.30984452 35.23441836 6.75366211 33.39282227 C6.10623047 32.80597656 5.45879883 32.21913086 4.79174805 31.61450195 C4.07688232 30.95385742 3.3620166 30.29321289 2.62548828 29.61254883 C1.85019775 28.92741211 1.07490723 28.24227539 0.27612305 27.53637695 C-0.88584595 26.47773438 -0.88584595 26.47773438 -2.07128906 25.39770508 C-7.86920799 20.15411848 -13.80147147 15.08565551 -19.97387695 10.28637695 C-16.49129577 7.54384427 -12.78069761 5.23168795 -8.97387695 2.97387695 C-8.35770508 2.5890918 -7.7415332 2.20430664 -7.10668945 1.80786133 C-2.50200036 -0.90455746 -2.50200036 -0.90455746 0 0 Z " fill="#082C77" transform="translate(398.973876953125,179.713623046875)"/>
<path d="M0 0 C3.22273486 1.28245673 6.14381592 2.92237259 9.125 4.6875 C9.97449219 5.17500732 10.82398438 5.66251465 11.69921875 6.16479492 C13.51778202 7.2125534 15.33179868 8.26823593 17.14160156 9.33105469 C20.09605669 11.05608503 23.07266002 12.7372095 26.0546875 14.4140625 C28.03730168 15.54539835 30.01909281 16.67817796 32 17.8125 C32.93730957 18.3386792 33.87461914 18.8648584 34.84033203 19.40698242 C35.71802246 19.91849854 36.59571289 20.43001465 37.5 20.95703125 C38.66015625 21.62182495 38.66015625 21.62182495 39.84375 22.30004883 C43.40752379 25.10966805 45.6695361 27.81974793 46.36743164 32.42414856 C46.52952198 35.39466814 46.55432432 38.33763439 46.53125 41.3125 C46.53699036 42.94312378 46.53699036 42.94312378 46.54284668 44.60668945 C46.54556241 46.89958627 46.53822511 49.19251425 46.52148438 51.48535156 C46.50007131 54.98833506 46.52129906 58.48926755 46.546875 61.9921875 C46.54423167 64.22396285 46.53910657 66.45573692 46.53125 68.6875 C46.53934692 69.73139893 46.54744385 70.77529785 46.55578613 71.85083008 C46.48051957 77.70815588 46.12292053 81.48258196 42 86 C39.7043457 87.71582031 39.7043457 87.71582031 37.17578125 89.078125 C36.23694092 89.5947168 35.29810059 90.11130859 34.33081055 90.64355469 C33.33476807 91.17368164 32.33872559 91.70380859 31.3125 92.25 C29.2414605 93.38409004 27.1711546 94.51952075 25.1015625 95.65625 C24.07450195 96.21570313 23.04744141 96.77515625 21.98925781 97.3515625 C17.67109556 99.73282937 13.42537273 102.22935298 9.1875 104.75 C-1.63716295 111.17617592 -1.63716295 111.17617592 -8 110 C-12.38317578 108.06686834 -16.41323964 105.61492902 -20.5 103.125 C-21.65688614 102.43518717 -22.81452573 101.74663645 -23.97290039 101.05932617 C-27.32837576 99.06098282 -30.66405306 97.03077763 -34 95 C-35.71704973 93.97199088 -37.43445125 92.9445689 -39.15234375 91.91796875 C-40.58201854 91.05160332 -42.01052032 90.18329736 -43.4375 89.3125 C-44.07429687 88.92787598 -44.71109375 88.54325195 -45.3671875 88.14697266 C-48.64128046 86.10066456 -50.97749921 84.29383023 -53 81 C-53.39440918 78.5852356 -53.39440918 78.5852356 -53.41992188 75.86767578 C-53.43583374 74.84626495 -53.45174561 73.82485413 -53.46813965 72.77249146 C-53.46834106 71.6745224 -53.46854248 70.57655334 -53.46875 69.4453125 C-53.47636353 68.311008 -53.48397705 67.17670349 -53.49182129 66.00802612 C-53.5026246 63.60905152 -53.50547448 61.21002987 -53.50097656 58.81103516 C-53.50000539 55.1453577 -53.54160425 51.48178086 -53.5859375 47.81640625 C-53.59114538 45.48437936 -53.59383268 43.1523452 -53.59375 40.8203125 C-53.61014526 39.72639191 -53.62654053 38.63247131 -53.64343262 37.50540161 C-53.56650799 29.00964266 -53.56650799 29.00964266 -50.84985352 25.5012207 C-47.9479965 22.95435827 -45.18283687 21.03355066 -41.80859375 19.16015625 C-41.22263931 18.83011093 -40.63668488 18.50006561 -40.03297424 18.16001892 C-38.17394803 17.11605237 -36.30626891 16.08890441 -34.4375 15.0625 C-32.60327033 14.03986778 -30.77096547 13.01385196 -28.93887329 11.98739624 C-27.72925815 11.31215217 -26.51748198 10.64076454 -25.30355835 9.97329712 C-22.38210344 8.36282448 -19.53370332 6.70817605 -16.70361328 4.93701172 C-6.74065616 -1.28885757 -6.74065616 -1.28885757 0 0 Z " fill="#082C75" transform="translate(188,275)"/>
<path d="M0 0 C3.78139339 1.59833636 7.23742225 3.63406102 10.75 5.75 C11.74410889 6.33185059 12.73821777 6.91370117 13.76245117 7.51318359 C15.82403595 8.72380244 17.88090567 9.94248463 19.93310547 11.16894531 C22.90377423 12.94254949 25.88875743 14.6891757 28.87890625 16.4296875 C30.69090351 17.49343123 32.5021376 18.55847632 34.3125 19.625 C35.15973633 20.1209668 36.00697266 20.61693359 36.87988281 21.12792969 C37.6581543 21.59360352 38.43642578 22.05927734 39.23828125 22.5390625 C40.259823 23.14548584 40.259823 23.14548584 41.30200195 23.76416016 C43 25 43 25 45 28 C45.27415466 30.37716675 45.27415466 30.37716675 45.30639648 33.21826172 C45.32238388 34.28301727 45.33837128 35.34777283 45.35484314 36.4447937 C45.36020584 37.59480865 45.36556854 38.74482361 45.37109375 39.9296875 C45.38012222 41.11217072 45.3891507 42.29465393 45.39845276 43.51296997 C45.41297072 46.01627057 45.42184581 48.51960924 45.42553711 51.02294922 C45.43743227 54.85318946 45.48660574 58.6818187 45.53710938 62.51171875 C45.5465734 64.94270046 45.55380853 67.37369208 45.55859375 69.8046875 C45.57812607 70.95065399 45.59765839 72.09662048 45.61778259 73.27731323 C45.57261962 81.23624948 45.57261962 81.23624948 42.64916992 85.13549805 C39.7647274 87.16558629 36.89983971 89.12036657 33.875 90.9375 C33.30370361 91.28176025 32.73240723 91.62602051 32.14379883 91.98071289 C27.83413998 94.55740624 23.46072459 96.99888698 19.0234375 99.34765625 C16.65581318 100.64159047 14.34858524 101.97934572 12.0390625 103.37109375 C11.34079346 103.78431885 10.64252441 104.19754395 9.9230957 104.62329102 C8.55137398 105.43680371 7.18734312 106.26347768 5.83276367 107.10522461 C1.30967502 109.7584585 -2.74892592 111.35718397 -8 110 C-12.76449491 107.82956305 -17.20853585 105.19321776 -21.6875 102.5 C-22.88906179 101.79531734 -24.09153169 101.09218074 -25.29492188 100.390625 C-28.28403827 98.6413238 -31.25367282 96.86170999 -34.2177124 95.0703125 C-36.02144693 93.98712053 -37.83513319 92.92228615 -39.65087891 91.859375 C-40.81568869 91.16710227 -41.98024947 90.47441036 -43.14453125 89.78125 C-44.17553955 89.17345703 -45.20654785 88.56566406 -46.26879883 87.93945312 C-49.38752799 85.72481252 -51.12345364 84.36312893 -53 81 C-53.59492782 77.11524408 -53.58421647 73.27178027 -53.56640625 69.34765625 C-53.57260483 68.21476669 -53.57880341 67.08187714 -53.58518982 65.91465759 C-53.59228567 63.5216457 -53.58911817 61.12858441 -53.57641602 58.7355957 C-53.56256124 55.078663 -53.59661586 51.42429438 -53.63476562 47.76757812 C-53.63571694 45.44010354 -53.63385732 43.11262576 -53.62890625 40.78515625 C-53.64879356 39.14898094 -53.64879356 39.14898094 -53.66908264 37.47975159 C-53.56552495 29.01469042 -53.56552495 29.01469042 -50.76831055 25.45581055 C-48.2615692 23.23204203 -46.01482724 21.51406296 -43.078125 19.921875 C-42.14299072 19.40520264 -41.20785645 18.88853027 -40.24438477 18.35620117 C-39.25623779 17.82615479 -38.26809082 17.2961084 -37.25 16.75 C-35.17996659 15.61775371 -33.11096432 14.48362029 -31.04296875 13.34765625 C-30.02122559 12.78836426 -28.99948242 12.22907227 -27.94677734 11.65283203 C-25.25011271 10.14028691 -22.61346312 8.56627031 -19.98828125 6.93359375 C-19.23450195 6.46791992 -18.48072266 6.00224609 -17.70410156 5.52246094 C-16.32117616 4.66041852 -14.94610615 3.78558326 -13.58105469 2.89550781 C-9.16786643 0.1746119 -5.2089304 -1.19569292 0 0 Z " fill="#062B75" transform="translate(355,94)"/>
<path d="M0 0 C4.93094759 0.73426943 9.81996487 1.58042777 14.70800781 2.56103516 C16.77171231 2.95627809 18.85055476 3.2704091 20.9296875 3.57421875 C25.7178629 4.64815306 29.51789912 5.69773994 32.29443359 10.01074219 C34.45277305 14.35585537 36.10947657 18.86376487 37.7890625 23.41015625 C40.65650689 31.06148429 45.01698488 37.5706252 49.72607422 44.20068359 C50.90038696 45.8593047 52.03239697 47.54766201 53.16015625 49.23828125 C56.39285869 54.04095688 56.39285869 54.04095688 61.31640625 56.64453125 C63.66734857 56.84118972 63.66734857 56.84118972 65.94921875 56.80078125 C68 57 68 57 71 59.5 C71.66 60.325 72.32 61.15 73 62 C73.33 62.33 73.66 62.66 74 63 C73.95359375 63.63808594 73.9071875 64.27617187 73.859375 64.93359375 C73.72596142 67.9878118 73.98255692 70.10048831 75 73 C78.8309892 77.05597388 83.3156049 80.00593236 88 83 C88.71994141 83.46035645 89.43988281 83.92071289 90.18164062 84.39501953 C93.09572478 86.24395131 96.01494539 88.08069864 98.96899414 89.86523438 C100.66017633 90.88704653 102.33230091 91.9402939 104 93 C104 93.33 104 93.66 104 94 C80.05784969 94.1343787 56.12681655 93.9583234 32.1875 93.5625 C30.93440033 93.54285187 29.68130066 93.52320374 28.39022827 93.50296021 C16.45917707 93.31296442 4.52799868 93.09869717 -7.39453125 92.59375 C-8.1910762 92.56555679 -8.98762115 92.53736359 -9.80830383 92.50831604 C-17.17242771 92.15254158 -22.64304424 90.44358688 -27.81640625 85.13671875 C-29.40557964 83.16461201 -30.72041203 81.18332337 -32 79 C-32.61875 77.948125 -33.2375 76.89625 -33.875 75.8125 C-36.41914188 67.19068586 -36.14491667 60.44046322 -31.92578125 52.47753906 C-29.71633415 48.58778423 -27.38421653 44.78457711 -25 41 C-24.21148952 39.72442168 -23.42368895 38.44840416 -22.63671875 37.171875 C-21.06324781 34.63473609 -19.47081421 32.11049278 -17.87109375 29.58984375 C-14.10672923 23.62034329 -10.49865048 17.55547758 -6.875 11.5 C-6.19864502 10.37005615 -5.52229004 9.2401123 -4.82543945 8.07592773 C-3.21580655 5.38463811 -1.60725254 2.69271167 0 0 Z " fill="#92B1F3" transform="translate(264,423)"/>
<path d="M0 0 C2.37538153 3.01565926 4.26848102 6.12615361 6.1171875 9.48828125 C6.71805176 10.57633057 7.31891602 11.66437988 7.93798828 12.78540039 C8.58367609 13.96109079 9.22934626 15.13679088 9.875 16.3125 C11.22235527 18.75609486 12.57194154 21.19845366 13.921875 23.640625 C14.26239899 24.25720474 14.60292297 24.87378448 14.95376587 25.50904846 C18.8075987 32.47783511 22.74264133 39.40057928 26.69873047 46.31176758 C37.94189956 66.06709781 37.94189956 66.06709781 35.55859375 78.2578125 C33.67008814 84.31528332 29.61873086 89.91811744 24.09375 93.09667969 C15.46482972 97.3240937 4.28054443 98.36622196 -4.97412109 95.35839844 C-9.07073856 93.48377171 -12.50250636 90.80069221 -16 88 C-17.17691229 87.11219447 -18.35669178 86.22817921 -19.5390625 85.34765625 C-21.78931898 83.65834843 -24.01746776 81.94693859 -26.22265625 80.19921875 C-28.86432998 78.02925316 -28.86432998 78.02925316 -31.34375 76.51171875 C-33 75 -33 75 -33.43359375 72.6953125 C-33.43488281 71.84710938 -33.43617188 70.99890625 -33.4375 70.125 C-33.69105271 66.42960419 -33.9079389 65.14096856 -36 61.9375 C-39.08254266 59.9466912 -39.90603457 59.80589472 -43.375 59.6875 C-47.1899591 59.41724754 -48.8604671 58.72009306 -51.4375 55.875 C-52.66408864 54.27929904 -53.84614068 52.64905728 -55 51 C-55.37769531 50.47567383 -55.75539063 49.95134766 -56.14453125 49.41113281 C-62.80870863 40.11830768 -68.23725352 30.38740271 -73 20 C-73.29277832 19.36707031 -73.58555664 18.73414063 -73.88720703 18.08203125 C-75.17635821 15.20687 -76 13.18781621 -76 10 C-75.13213867 10.16153564 -74.26427734 10.32307129 -73.37011719 10.48950195 C-68.00498848 11.30220002 -62.66701964 11.18444988 -57.25 11.1875 C-56.12078125 11.19974609 -54.9915625 11.21199219 -53.828125 11.22460938 C-43.62314974 11.24232635 -34.9228829 9.51617361 -25.375 6.0625 C-17.02873689 3.14812878 -8.72281203 1.35476917 0 0 Z " fill="#D1DBFC" transform="translate(371,421)"/>
<path d="M0 0 C2.66551783 1.23681358 5.22014661 2.58960604 7.78100586 4.03295898 C8.8915332 4.65686523 10.00206055 5.28077148 11.14624023 5.92358398 C12.0068103 6.41181641 12.0068103 6.41181641 12.88476562 6.90991211 C14.6462316 7.90906195 16.41146891 8.90126215 18.17749023 9.89233398 C26.80529345 14.75646533 26.80529345 14.75646533 27.95678711 15.90795898 C29.68029854 26.40988863 31.6541452 39.68928416 27.95678711 49.90795898 C22.58521488 56.75801846 14.50947958 60.02507586 6.50048828 62.93530273 C3.77315321 63.87081324 3.77315321 63.87081324 0.95678711 65.90795898 C-3.36762711 65.60015354 -6.52745079 63.6930609 -10.21899414 61.52905273 C-11.78387573 60.61917603 -11.78387573 60.61917603 -13.38037109 59.69091797 C-14.69223389 58.9169165 -16.00409668 58.14291504 -17.35571289 57.34545898 C-21.54258789 54.89108398 -25.72946289 52.43670898 -30.04321289 49.90795898 C-30.04321289 38.68795898 -30.04321289 27.46795898 -30.04321289 15.90795898 C-25.50571289 13.24733398 -20.96821289 10.58670898 -16.29321289 7.84545898 C-14.86783203 7.00104248 -13.44245117 6.15662598 -11.97387695 5.28662109 C-10.84691406 4.63443604 -9.71995117 3.98225098 -8.55883789 3.31030273 C-7.68267822 2.78442566 -7.68267822 2.78442566 -6.78881836 2.2479248 C-2.65102496 -0.11942125 -2.65102496 -0.11942125 0 0 Z " fill="#FA8D02" transform="translate(352.043212890625,116.092041015625)"/>
<path d="M0 0 C19.14370465 7.62576448 19.14370465 7.62576448 22.99401855 15.88690186 C26.35211928 26.04038989 25.95919105 38.11700772 22.13745117 48.04907227 C17.15692632 54.35751484 10.17299714 57.45529064 2.72460938 60.0546875 C0.05013787 60.97350615 0.05013787 60.97350615 -2.38134766 62.73291016 C-4.86254883 64.04907227 -4.86254883 64.04907227 -7.31860352 63.93188477 C-10.31055737 62.89360212 -12.83789416 61.53598314 -15.56567383 59.92407227 C-16.62786133 59.30016602 -17.69004883 58.67625977 -18.78442383 58.03344727 C-19.88270508 57.37860352 -20.98098633 56.72375977 -22.11254883 56.04907227 C-23.22629883 55.39422852 -24.34004883 54.73938477 -25.48754883 54.06469727 C-33.68602353 49.22559756 -33.68602353 49.22559756 -34.86254883 48.04907227 C-35.34770944 43.33486655 -35.51894213 38.62255678 -35.65209961 33.88671875 C-35.70865914 32.29804222 -35.79034985 30.7100442 -35.89819336 29.12402344 C-36.25073578 23.8397552 -36.28869673 19.1822189 -34.86254883 14.04907227 C-31.03068305 10.18628193 -26.80610083 8.20902756 -21.86254883 6.04907227 C-20.46029312 5.22149445 -19.07065097 4.37134445 -17.70629883 3.48266602 C-16.60286133 2.82395508 -15.49942383 2.16524414 -14.36254883 1.48657227 C-12.67645508 0.46370117 -12.67645508 0.46370117 -10.95629883 -0.57983398 C-6.67926355 -2.47533826 -4.33371547 -1.43964364 0 0 Z " fill="#FB7C9F" transform="translate(430.862548828125,352.950927734375)"/>
<path d="M0 0 C1.37086527 0.65939499 2.71947302 1.36635594 4.046875 2.109375 C4.81 2.53476562 5.573125 2.96015625 6.359375 3.3984375 C7.14828125 3.84445312 7.9371875 4.29046875 8.75 4.75 C9.5234375 5.18054688 10.296875 5.61109375 11.09375 6.0546875 C12.64795448 6.92566786 14.18989462 7.81889694 15.71875 8.73364258 C17.95288841 10.05535687 17.95288841 10.05535687 20.34375 10.8347168 C22.9983293 11.93284895 24.27764867 12.67476931 26 15 C27.0101772 20.79468627 26.75160799 26.45727361 26.5 32.3125 C26.45985202 33.92764688 26.42335348 35.54288887 26.390625 37.15820312 C26.30265046 41.10782023 26.16474097 45.0528698 26 49 C22.37410189 51.12425199 18.74448725 53.24196194 15.11132812 55.35375977 C13.87656828 56.0726867 12.64283141 56.79337363 11.41015625 57.51586914 C9.63549222 58.5556219 7.85721414 59.58893548 6.078125 60.62109375 C5.00981445 61.2442749 3.94150391 61.86745605 2.84082031 62.50952148 C-1.70440081 64.89423917 -1.70440081 64.89423917 -4 65 C-6.82495117 63.75244141 -6.82495117 63.75244141 -10.04296875 61.8515625 C-10.61203445 61.51957855 -11.18110016 61.1875946 -11.76741028 60.84555054 C-13.58113083 59.78348451 -15.38406414 58.70441824 -17.1875 57.625 C-18.41276597 56.90515017 -19.63867102 56.18638696 -20.86523438 55.46875 C-29.75696806 50.24303194 -29.75696806 50.24303194 -31 49 C-31.48516062 44.28579428 -31.6563933 39.57348452 -31.78955078 34.83764648 C-31.84611032 33.24896996 -31.92780102 31.66097194 -32.03564453 30.07495117 C-32.38818613 24.79069518 -32.42583589 20.13320638 -31 15 C-27.16906918 11.13499792 -22.94542213 9.1579301 -18 7 C-16.58661505 6.17165397 -15.18546336 5.32131231 -13.80859375 4.43359375 C-12.69613281 3.77488281 -11.58367187 3.11617188 -10.4375 2.4375 C-9.57415039 1.90672852 -9.57415039 1.90672852 -8.69335938 1.36523438 C-5.28848578 -0.6291047 -3.71322951 -1.28982172 0 0 Z " fill="#FBCA50" transform="translate(187,298)"/>
<path d="M0 0 C1.88916399 1.22078295 3.77483229 2.4469998 5.65625 3.6796875 C8.13630575 4.61253954 8.13630575 4.61253954 10.546875 5.2578125 C15.66197603 7.05650455 19.74208901 8.92984934 22.65625 13.6796875 C24.05783394 19.43853513 24.28830459 25.02192834 24.28125 30.9296875 C24.29063599 31.70010376 24.30002197 32.47052002 24.30969238 33.26428223 C24.3300194 45.63556472 24.3300194 45.63556472 20.86328125 49.86938477 C18.53229389 51.45509913 16.24224772 52.56383573 13.65625 53.6796875 C12.09919983 54.59886298 10.55207097 55.53506429 9.015625 56.48828125 C7.48140982 57.36850471 5.94494797 58.24482399 4.40625 59.1171875 C3.63023437 59.57544922 2.85421875 60.03371094 2.0546875 60.50585938 C1.29929688 60.93318359 0.54390625 61.36050781 -0.234375 61.80078125 C-0.90500977 62.1867749 -1.57564453 62.57276855 -2.26660156 62.97045898 C-5.05968133 63.92413749 -6.53520757 63.55775265 -9.34375 62.6796875 C-11.28110837 61.70723112 -13.18063591 60.65749324 -15.046875 59.5546875 C-16.1090625 58.93078125 -17.17125 58.306875 -18.265625 57.6640625 C-19.36390625 57.00921875 -20.4621875 56.354375 -21.59375 55.6796875 C-22.7075 55.02484375 -23.82125 54.37 -24.96875 53.6953125 C-33.1672247 48.8562128 -33.1672247 48.8562128 -34.34375 47.6796875 C-34.43222743 45.15874674 -34.45902301 42.66537857 -34.44140625 40.14453125 C-34.4399913 39.39128067 -34.43857635 38.63803009 -34.43711853 37.86195374 C-34.43150376 35.4469919 -34.41894883 33.03212149 -34.40625 30.6171875 C-34.4012369 28.98372529 -34.39667366 27.35026164 -34.39257812 25.71679688 C-34.38152954 21.70439165 -34.36425506 17.69205509 -34.34375 13.6796875 C-30.61263967 11.22774938 -26.84776661 8.84430508 -23.04003906 6.51416016 C-21.75307898 5.714411 -20.47662012 4.89748426 -19.21191406 4.06298828 C-7.32516803 -3.75231324 -7.32516803 -3.75231324 0 0 Z " fill="#B0D852" transform="translate(221.34375,160.3203125)"/>
<path d="M0 0 C10.3314204 0.47817233 20.87343584 5.52384481 28.71777344 12.05810547 C33.38142145 18.06976128 33.19529225 25.14782265 33.0625 32.5 C33.05902557 33.26287323 33.05555115 34.02574646 33.05197144 34.81173706 C32.83865934 46.81010011 32.83865934 46.81010011 29.17626953 51.17211914 C26.85573031 52.75518378 24.57098235 53.87483595 22 55 C20.44352789 55.92015399 18.89643068 56.85636025 17.359375 57.80859375 C15.82515982 58.68881721 14.28869797 59.56513649 12.75 60.4375 C11.97398437 60.89576172 11.19796875 61.35402344 10.3984375 61.82617188 C9.64304687 62.25349609 8.88765625 62.68082031 8.109375 63.12109375 C7.43874023 63.5070874 6.76810547 63.89308105 6.07714844 64.29077148 C3.28406867 65.24444999 1.80854243 64.87806515 -1 64 C-2.93735837 63.02754362 -4.83688591 61.97780574 -6.703125 60.875 C-7.7653125 60.25109375 -8.8275 59.6271875 -9.921875 58.984375 C-11.02015625 58.32953125 -12.1184375 57.6746875 -13.25 57 C-14.36375 56.34515625 -15.4775 55.6903125 -16.625 55.015625 C-24.8234747 50.1765253 -24.8234747 50.1765253 -26 49 C-26.08847743 46.47905924 -26.11527301 43.98569107 -26.09765625 41.46484375 C-26.0962413 40.71159317 -26.09482635 39.95834259 -26.09336853 39.18226624 C-26.08775376 36.7673044 -26.07519883 34.35243399 -26.0625 31.9375 C-26.0574869 30.30403779 -26.05292366 28.67057414 -26.04882812 27.03710938 C-26.03777954 23.02470415 -26.02050506 19.01236759 -26 15 C-24.8718689 14.37170288 -24.8718689 14.37170288 -23.72094727 13.73071289 C-20.9378088 12.17964254 -18.15551068 10.62707856 -15.3737793 9.07348633 C-14.16838663 8.40068258 -12.96265835 7.72847976 -11.7565918 7.05688477 C-10.02565339 6.09288084 -8.29600957 5.12655352 -6.56640625 4.16015625 C-5.52427979 3.57886963 -4.48215332 2.99758301 -3.40844727 2.39868164 C-1.12440597 1.20986135 -1.12440597 1.20986135 0 0 Z " fill="#D0DBFC" transform="translate(453,213)"/>
<path d="M0 0 C24.09 0 48.18 0 73 0 C73 6.6 73 13.2 73 20 C48.64940273 20.1540094 24.3407127 19.67882466 0 19 C0 12.73 0 6.46 0 0 Z " fill="#90B0F2" transform="translate(286,265)"/>
<path d="M0 0 C3.6895572 1.37858906 6.97561616 3.08033779 10.375 5.0625 C14.73422157 7.48691145 18.03427062 8.77930092 23 9 C23 9.33 23 9.66 23 10 C21.35 10 19.7 10 18 10 C17.96189209 10.56525391 17.92378418 11.13050781 17.88452148 11.71289062 C17.27349165 19.14325103 15.76096308 26.24996575 14.0625 33.5 C13.79759766 34.67820312 13.53269531 35.85640625 13.25976562 37.0703125 C13.00001953 38.19179688 12.74027344 39.31328125 12.47265625 40.46875 C12.23812744 41.48388672 12.00359863 42.49902344 11.76196289 43.54492188 C11 46 11 46 9 48 C7.91460937 47.36191406 6.82921875 46.72382813 5.7109375 46.06640625 C4.26590331 45.23128909 2.82057516 44.39668041 1.375 43.5625 C0.66214844 43.14162109 -0.05070313 42.72074219 -0.78515625 42.28710938 C-4.86980462 39.94499448 -8.21585645 38.41502823 -13 38 C-13 37.67 -13 37.34 -13 37 C-11.35 37 -9.7 37 -8 37 C-7.96261719 36.43547119 -7.92523438 35.87094238 -7.88671875 35.28930664 C-7.27805485 27.82944436 -5.72559118 20.71021565 -4 13.4375 C-3.72671875 12.25091797 -3.4534375 11.06433594 -3.171875 9.84179688 C-1.13647625 1.13647625 -1.13647625 1.13647625 0 0 Z " fill="#6966F5" transform="translate(195,237)"/>
<path d="M0 0 C3.6895572 1.37858906 6.97561616 3.08033779 10.375 5.0625 C14.73422157 7.48691145 18.03427062 8.77930092 23 9 C23 9.33 23 9.66 23 10 C21.35 10 19.7 10 18 10 C17.96189209 10.56525391 17.92378418 11.13050781 17.88452148 11.71289062 C17.27349165 19.14325103 15.76096308 26.24996575 14.0625 33.5 C13.79759766 34.67820312 13.53269531 35.85640625 13.25976562 37.0703125 C13.00001953 38.19179688 12.74027344 39.31328125 12.47265625 40.46875 C12.23812744 41.48388672 12.00359863 42.49902344 11.76196289 43.54492188 C11 46 11 46 9 48 C7.91460937 47.36191406 6.82921875 46.72382813 5.7109375 46.06640625 C4.26590331 45.23128909 2.82057516 44.39668041 1.375 43.5625 C0.66214844 43.14162109 -0.05070312 42.72074219 -0.78515625 42.28710938 C-4.86980462 39.94499448 -8.21585645 38.41502823 -13 38 C-13 37.67 -13 37.34 -13 37 C-11.35 37 -9.7 37 -8 37 C-7.8453125 35.44925781 -7.8453125 35.44925781 -7.6875 33.8671875 C-6.89496081 27.53524588 -5.40259373 21.34404767 -4 15.125 C-3.72671875 13.89007813 -3.4534375 12.65515625 -3.171875 11.3828125 C-1.13225446 2.26450893 -1.13225446 2.26450893 0 0 Z " fill="#6966F5" transform="translate(435,291)"/>
<path d="M0 0 C3.08928166 1.11973465 5.29783671 2.96380194 7.72265625 5.140625 C8.41762207 5.76259766 9.11258789 6.38457031 9.82861328 7.02539062 C10.5451709 7.67701172 11.26172852 8.32863281 12 9 C12.70237793 9.63615234 13.40475586 10.27230469 14.12841797 10.92773438 C16.2429005 12.85646228 18.34185531 14.80083561 20.4375 16.75 C21.15615234 17.40871094 21.87480469 18.06742188 22.61523438 18.74609375 C23.29779297 19.38160156 23.98035156 20.01710937 24.68359375 20.671875 C25.60483032 21.52410645 25.60483032 21.52410645 26.54467773 22.39355469 C28 24 28 24 29 27 C27.95199219 27.62648437 26.90398437 28.25296875 25.82421875 28.8984375 C24.44528908 29.72391921 23.06638412 30.5494422 21.6875 31.375 C20.99720703 31.7875 20.30691406 32.2 19.59570312 32.625 C18.92861328 33.02460938 18.26152344 33.42421875 17.57421875 33.8359375 C16.96151123 34.20251465 16.34880371 34.5690918 15.7175293 34.94677734 C14.12072885 35.9259667 12.55853114 36.96097924 11 38 C10.5875 37.50371094 10.175 37.00742188 9.75 36.49609375 C6.1865687 32.30428953 2.5160834 28.55773188 -1.67578125 25 C-4.63206433 22.45610599 -7.50355131 19.8263489 -10.375 17.1875 C-10.89924561 16.70692139 -11.42349121 16.22634277 -11.96362305 15.73120117 C-14.00966949 13.85129383 -16.03503037 11.96496963 -18 10 C-17.28714844 9.61328125 -16.57429688 9.2265625 -15.83984375 8.828125 C-14.88207031 8.30734375 -13.92429687 7.7865625 -12.9375 7.25 C-11.93460937 6.70859375 -10.93171875 6.1671875 -9.8984375 5.609375 C-7.55774468 4.30969111 -5.31770031 2.9378133 -3.0625 1.5 C-1.5465625 0.7575 -1.5465625 0.7575 0 0 Z " fill="#6865F6" transform="translate(397,179)"/>
<path d="M0 0 C0 6.93 0 13.86 0 21 C-7.60448036 23.8266654 -15.23651928 26.39773601 -23 28.75 C-24.02222656 29.06582031 -25.04445313 29.38164062 -26.09765625 29.70703125 C-27.07605469 30.00480469 -28.05445313 30.30257812 -29.0625 30.609375 C-30.37927734 31.0110791 -30.37927734 31.0110791 -31.72265625 31.42089844 C-34 32 -34 32 -37 32 C-37.33 25.07 -37.66 18.14 -38 11 C-35.97617187 10.37351563 -33.95234375 9.74703125 -31.8671875 9.1015625 C-29.8912283 8.48941174 -27.91533755 7.87704051 -25.93945312 7.26464844 C-24.57396456 6.8415666 -23.20840576 6.41871135 -21.84277344 5.99609375 C-19.8715562 5.3860236 -17.90059912 4.77511916 -15.9296875 4.1640625 C-14.74616699 3.79748535 -13.56264648 3.4309082 -12.34326172 3.05322266 C-10.13593238 2.35785105 -7.93888592 1.62884155 -5.75439453 0.86474609 C-3 0 -3 0 0 0 Z " fill="#6966F6" transform="translate(302,154)"/>
<path d="M0 0 C5.23073505 4.41600014 10.2703466 8.99120374 15.25 13.6875 C15.95640625 14.35072266 16.6628125 15.01394531 17.390625 15.69726562 C22.69855637 20.68853063 22.69855637 20.68853063 24.53417969 22.58520508 C26.14986533 24.22898484 26.14986533 24.22898484 29 26 C26.25852669 27.68100777 23.5055518 29.34218835 20.75 31 C19.97269531 31.47695313 19.19539063 31.95390625 18.39453125 32.4453125 C17.64042969 32.89648438 16.88632813 33.34765625 16.109375 33.8125 C15.41811523 34.23144531 14.72685547 34.65039062 14.01464844 35.08203125 C12 36 12 36 8 36 C6.140625 34.49609375 6.140625 34.49609375 4.25 32.4375 C1.00207077 29.02147092 -2.34068592 25.87547351 -5.91015625 22.80078125 C-8.25075881 20.78392558 -10.56473227 18.73901775 -12.875 16.6875 C-13.98488281 15.70330078 -13.98488281 15.70330078 -15.1171875 14.69921875 C-16.44427515 13.50153591 -17.73595771 12.26404229 -19 11 C-18.18994507 10.55346069 -18.18994507 10.55346069 -17.36352539 10.09790039 C-14.92887423 8.75452698 -12.4956726 7.40854945 -10.0625 6.0625 C-9.21236328 5.59392578 -8.36222656 5.12535156 -7.48632812 4.64257812 C-6.67744141 4.19462891 -5.86855469 3.74667969 -5.03515625 3.28515625 C-3.91185913 2.66459351 -3.91185913 2.66459351 -2.76586914 2.03149414 C-1.03748855 1.1221285 -1.03748855 1.1221285 0 0 Z " fill="#6965F6" transform="translate(231,359)"/>
<path d="M0 0 C2.12543075 3.59062131 2.64375689 7.09708967 3.3125 11.1875 C4.50683962 18.13116574 6.26709768 24.78266382 8.37426758 31.50268555 C9.29243955 34.45272182 10 36.88891506 10 40 C5.82323743 39.01276521 1.78812135 37.95431427 -2.25 36.5 C-7.70266889 34.61878149 -13.30650228 33.81886177 -19 33 C-17.65494761 29.41600084 -16.05402324 26.20064322 -14.1015625 22.91015625 C-13.25851562 21.48606445 -13.25851562 21.48606445 -12.3984375 20.03320312 C-11.81320312 19.05287109 -11.22796875 18.07253906 -10.625 17.0625 C-10.0475 16.08603516 -9.47 15.10957031 -8.875 14.10351562 C-6.03209084 9.31665374 -3.15272761 4.58931532 0 0 Z " fill="#CFDAFB" transform="translate(284,391)"/>
<path d="M0 0 C3.02519989 2.05971056 4.66926776 3.51573824 5.48046875 7.15625 C5.74061616 11.37485661 5.37091002 13.46049451 2.9375 17 C-0.57929494 19.39441358 -2.75226664 20 -7 20 C-10.64886208 18.42435501 -13.13562322 16.53250338 -15 13 C-15.49500009 9.65874937 -15.72317495 7.24131179 -13.98046875 4.25 C-9.72827016 -1.09415291 -6.47393302 -1.56267349 0 0 Z " fill="#6966F6" transform="translate(276,457)"/>
<path d="M0 0 C2.9375 2.4375 2.9375 2.4375 5 5 C5.33 5.33 5.66 5.66 6 6 C6.29322866 8.93228663 6.50004247 11.14491883 6 14 C3.5625 16.9375 3.5625 16.9375 1 19 C0.67 19.33 0.34 19.66 0 20 C-4.68843466 20.13561588 -8.14729851 19.57426835 -12.0625 16.9375 C-14.24502521 13.62851017 -14.6757183 11.81492367 -14.43359375 7.93359375 C-13.75194607 4.89381354 -12.19767713 3.13303956 -10 1 C-6.78540014 -0.60729993 -3.47611897 -0.61930855 0 0 Z " fill="#6A67F7" transform="translate(368,455)"/>
<path d="M0 0 C3.72291725 0.54481716 5.14229984 2.61866093 7.5625 5.375 C7.8925 5.705 8.2225 6.035 8.5625 6.375 C8.94637346 11.36535504 8.64963243 14.37316167 5.5625 18.375 C1.89726845 20.8184877 -1.17720357 21.22207648 -5.4375 20.375 C-8.375 17.9375 -8.375 17.9375 -10.4375 15.375 C-10.7675 15.045 -11.0975 14.715 -11.4375 14.375 C-11.48149236 10.03735335 -11.19990011 6.42658636 -8.625 2.875 C-5.66456791 0.84498942 -3.48337789 0.53590429 0 0 Z " fill="#6965F7" transform="translate(329.4375,479.625)"/>
</svg>
