<?xml version="1.0" encoding="UTF-8"?>
<svg version="1.1" xmlns="http://www.w3.org/2000/svg" width="640" height="640">
<path d="M0 0 C211.2 0 422.4 0 640 0 C640 211.2 640 422.4 640 640 C428.8 640 217.6 640 0 640 C0 428.8 0 217.6 0 0 Z " fill="#FEFEFE" transform="translate(0,0)"/>
<path d="M0 0 C3.01342773 1.32592773 3.01342773 1.32592773 6.18359375 3.18359375 C6.75671295 3.51471161 7.32983215 3.84582947 7.9203186 4.1869812 C9.76695769 5.25806373 11.60217712 6.34716089 13.4375 7.4375 C14.70115634 8.17637609 15.96540003 8.91424857 17.23022461 9.65112305 C19.70867774 11.09839363 22.18230455 12.55336901 24.65136719 14.01660156 C27.45173712 15.67526337 30.25859079 17.32164407 33.0703125 18.9609375 C45.4034093 26.21022789 45.4034093 26.21022789 47 31 C47.08494728 33.65894107 47.11594796 36.29085377 47.09765625 38.94921875 C47.09553383 40.10814384 47.09553383 40.10814384 47.09336853 41.29048157 C47.08777466 43.75619389 47.07522333 46.22181515 47.0625 48.6875 C47.05748421 50.36002473 47.05292144 52.03255088 47.04882812 53.70507812 C47.03780724 57.80342046 47.02054684 61.90169479 47 66 C47.57903076 66.1549292 48.15806152 66.3098584 48.75463867 66.46948242 C57.0205167 68.80146911 64.70933126 72.22270066 72.51757812 75.76757812 C73.53916016 76.21166016 74.56074219 76.65574219 75.61328125 77.11328125 C76.52891846 77.52360596 77.44455566 77.93393066 78.38793945 78.35668945 C83.58142628 79.6357658 87.86116245 76.04107628 92.26171875 73.515625 C92.85241653 73.17754822 93.44311432 72.83947144 94.05171204 72.4911499 C95.29893371 71.77653814 96.54527187 71.06038238 97.79077148 70.34277344 C99.66268763 69.2642953 101.53711587 68.19030475 103.41210938 67.1171875 C104.01910675 66.76877808 104.62610413 66.42036865 105.25149536 66.06140137 C106.46344682 65.36605165 107.67639573 64.67243745 108.89035034 63.98059082 C111.5817135 62.43764563 114.21784107 60.85616199 116.80712891 59.14648438 C121.36288538 56.14749095 125.05954156 53.97262366 130.6328125 54.39550781 C135.75283095 55.70297127 140.06292938 58.59237587 144.5 61.375 C146.61966632 62.66296674 148.73945883 63.9507258 150.859375 65.23828125 C151.89642578 65.87717285 152.93347656 66.51606445 154.00195312 67.17431641 C156.71164848 68.82440614 159.44251973 70.41752654 162.203125 71.98046875 C162.97849609 72.42148926 163.75386719 72.86250977 164.55273438 73.31689453 C165.97264995 74.12182889 167.39563984 74.92137474 168.82226562 75.71435547 C172.85796438 78.04034426 175.62353634 79.98012228 178 84 C178.59842889 87.89457107 178.5603141 91.75357987 178.53125 95.6875 C178.5350769 96.82276123 178.53890381 97.95802246 178.54284668 99.12768555 C178.54556537 101.52491138 178.53820731 103.92216689 178.52148438 106.31933594 C178.50007587 109.98700142 178.52128935 113.65270789 178.546875 117.3203125 C178.54423172 119.65104599 178.53910674 121.98177826 178.53125 124.3125 C178.53934692 125.40844482 178.54744385 126.50438965 178.55578613 127.63354492 C178.46327871 135.15058614 178.46327871 135.15058614 176.37402344 138.98120117 C173.55619738 141.37739653 170.71524449 143.18193149 167.484375 144.98828125 C166.5606308 145.51037422 166.5606308 145.51037422 165.6182251 146.04301453 C163.66746776 147.1426491 161.70904039 148.22770427 159.75 149.3125 C158.41873615 150.05959491 157.08800094 150.80763265 155.7578125 151.55664062 C152.51125059 153.38203785 149.25765468 155.19445726 146 157 C146.47554651 161.39623285 146.95606737 165.79190816 147.4375 170.1875 C147.57220703 171.43337891 147.70691406 172.67925781 147.84570312 173.96289062 C148.04389648 175.7659668 148.04389648 175.7659668 148.24609375 177.60546875 C148.36654053 178.71043701 148.4869873 179.81540527 148.61108398 180.95385742 C148.95497869 183.94759054 148.95497869 183.94759054 149.54321289 186.66137695 C150.1544962 189.79097759 150.06233819 192.82075225 150 196 C150.69512695 196.25813477 151.39025391 196.51626953 152.10644531 196.78222656 C155.32452023 198.13657669 158.2640832 199.75404214 161.296875 201.484375 C161.88994446 201.82245178 162.48301392 202.16052856 163.09405518 202.5088501 C164.34551256 203.22338752 165.59604647 203.93954449 166.84570312 204.65722656 C168.72776244 205.73723906 170.61361608 206.81037562 172.5 207.8828125 C191.74207288 218.86430327 191.74207288 218.86430327 195 224 C195.39440918 226.4147644 195.39440918 226.4147644 195.41992188 229.13232422 C195.43583374 230.15373505 195.45174561 231.17514587 195.46813965 232.22750854 C195.46844177 233.87446213 195.46844177 233.87446213 195.46875 235.5546875 C195.47636353 236.688992 195.48397705 237.82329651 195.49182129 238.99197388 C195.5026246 241.39094848 195.50547448 243.78997013 195.50097656 246.18896484 C195.50000539 249.8546423 195.54160425 253.51821914 195.5859375 257.18359375 C195.59114538 259.51562064 195.59383268 261.8476548 195.59375 264.1796875 C195.61014526 265.27360809 195.62654053 266.36752869 195.64343262 267.49459839 C195.5665131 275.98979294 195.5665131 275.98979294 192.80664062 279.52832031 C190.11679201 281.89714663 187.65186299 283.6738188 184.5 285.3671875 C183.45344238 285.93928955 182.40688477 286.5113916 181.32861328 287.10083008 C180.2301709 287.68630615 179.13172852 288.27178223 178 288.875 C175.74623414 290.10333967 173.49361802 291.33379135 171.2421875 292.56640625 C170.16420898 293.15437988 169.08623047 293.74235352 167.97558594 294.34814453 C163.29324635 296.94748073 158.76914959 299.76194665 154.2578125 302.64453125 C150.00587443 305.19716535 145.84440132 305.92674663 141 305 C136.68272773 303.03034161 132.7106538 300.56996533 128.6875 298.0625 C126.54678146 296.75973078 124.40490794 295.45885697 122.26171875 294.16015625 C121.32287842 293.57886963 120.38403809 292.99758301 119.41674805 292.39868164 C116.98534293 290.88316726 116.98534293 290.88316726 114 290 C111.90088298 291.36167212 110.05053094 292.73356463 108.125 294.3125 C106.96366121 295.2345256 105.80219913 296.1563959 104.640625 297.078125 C104.04314453 297.55830078 103.44566406 298.03847656 102.83007812 298.53320312 C99.8686112 300.90680148 96.87418264 303.23687348 93.875 305.5625 C93.33117676 305.99151611 92.78735352 306.42053223 92.22705078 306.86254883 C89.80918728 308.74366036 87.93467033 310.02177656 85 311 C82.68954093 333.54298036 90.11337114 348.92425448 100.4695282 368.30793762 C104.28620259 375.45628193 107.71582222 382.74739507 111.0625 390.125 C111.55596924 391.19693604 112.04943848 392.26887207 112.55786133 393.37329102 C115.85366481 400.55575063 117.20423869 405.74261437 117.25 413.625 C117.2809375 414.92244141 117.2809375 414.92244141 117.3125 416.24609375 C117.34921628 422.36853285 116.29588105 427.33678038 114 433 C113.720354 433.69383789 113.44070801 434.38767578 113.15258789 435.10253906 C108.86087772 445.23016658 99.70231411 453.80328793 89.609375 457.9921875 C71.1360228 464.41504174 49.75418303 460.66872209 30.6875 459.1015625 C28.21521635 458.90398157 25.74288452 458.7070026 23.27050781 458.5105896 C18.13026294 458.10046681 12.99051091 457.68477516 7.85107422 457.26464844 C1.29467583 456.72891319 -5.26259078 456.20484901 -11.82023621 455.68462563 C-16.90971119 455.28000671 -21.99878251 454.8704888 -27.08773804 454.45939255 C-29.5051408 454.26444973 -31.92264027 454.07070206 -34.34024048 453.87822342 C-77.83856688 450.40228057 -77.83856688 450.40228057 -92.8125 432.87890625 C-99.1250015 424.27812295 -101.33313658 414.50061358 -101.5625 404 C-101.58940918 403.30140869 -101.61631836 402.60281738 -101.64404297 401.88305664 C-101.56068743 390.13664859 -95.28452847 380.11453017 -88.5625 370.9375 C-87.85802734 369.95072266 -87.15355469 368.96394531 -86.42773438 367.94726562 C-84.98455817 365.92578161 -83.53618732 363.90799558 -82.08251953 361.89404297 C-79.01147611 357.62626469 -76.00657244 353.31330518 -73 349 C-71.87141026 347.38779922 -70.74249925 345.7758233 -69.61328125 344.1640625 C-65.46571479 338.23830386 -61.32397864 332.3085037 -57.1875 326.375 C-56.48689453 325.37210937 -55.78628906 324.36921875 -55.06445312 323.3359375 C-54.41798828 322.4078125 -53.77152344 321.4796875 -53.10546875 320.5234375 C-52.52949951 319.69763184 -51.95353027 318.87182617 -51.36010742 318.02099609 C-49.97349631 316.05396247 -49.97349631 316.05396247 -49 314 C-57.26984415 318.00269272 -65.2328786 322.362869 -73.125 327.0625 C-77.06599809 329.40640988 -81.01814445 331.72611153 -85 334 C-86.36463379 334.78286377 -86.36463379 334.78286377 -87.75683594 335.58154297 C-88.61825195 336.04834473 -89.47966797 336.51514648 -90.3671875 336.99609375 C-91.1185498 337.40915771 -91.86991211 337.82222168 -92.64404297 338.24780273 C-96.7321487 339.5530311 -99.90819588 338.49733391 -103.72216797 336.76000977 C-105.09332764 335.98355103 -105.09332764 335.98355103 -106.4921875 335.19140625 C-108.03386597 334.3250354 -108.03386597 334.3250354 -109.60668945 333.44116211 C-110.68523193 332.82120361 -111.76377441 332.20124512 -112.875 331.5625 C-113.98383545 330.93158447 -115.0926709 330.30066895 -116.23510742 329.65063477 C-122.63765844 325.98705351 -129.01905469 322.2860043 -135.3125 318.4375 C-135.94462402 318.05730713 -136.57674805 317.67711426 -137.22802734 317.28540039 C-141.02037654 314.91163175 -143.70247299 312.84834255 -146 309 C-146.61083624 305.10686608 -146.58421232 301.24697274 -146.56640625 297.3125 C-146.57260483 296.17723877 -146.57880341 295.04197754 -146.58518982 293.87231445 C-146.59228514 291.47510637 -146.5891191 289.07784899 -146.57641602 286.68066406 C-146.56254821 283.01275019 -146.59663219 279.34738607 -146.63476562 275.6796875 C-146.6357168 273.34895771 -146.63385807 271.01822472 -146.62890625 268.6875 C-146.64216446 267.59155518 -146.65542267 266.49561035 -146.66908264 265.36645508 C-146.57601153 257.75803213 -146.57601153 257.75803213 -143.63818359 253.8918457 C-140.82700223 251.87594302 -138.03132069 249.96579739 -135.0625 248.1875 C-133.93585938 247.51074219 -132.80921875 246.83398438 -131.6484375 246.13671875 C-125.80087108 242.69612934 -119.91016641 239.33166802 -114 236 C-114.45352713 232.08276166 -114.91373304 228.16633388 -115.375 224.25 C-115.50132812 223.15816406 -115.62765625 222.06632813 -115.7578125 220.94140625 C-116.01940749 218.73092862 -116.29476846 216.52203897 -116.58349609 214.31494141 C-116.86132166 212.10373655 -117.09344594 209.88631362 -117.27978516 207.66552734 C-117.75949748 202.07428714 -117.75949748 202.07428714 -120.45947266 197.34960938 C-122.45347007 196.02347072 -124.42571059 195.07171555 -126.625 194.125 C-128.24813559 193.32443908 -129.8691144 192.51949524 -131.48828125 191.7109375 C-132.36693848 191.28651367 -133.2455957 190.86208984 -134.15087891 190.42480469 C-139.49440733 187.75258259 -144.64350869 184.74199482 -149.8125 181.75 C-150.84391113 181.17137207 -151.87532227 180.59274414 -152.93798828 179.99658203 C-153.91364746 179.43567871 -154.88930664 178.87477539 -155.89453125 178.296875 C-156.75925049 177.80541992 -157.62396973 177.31396484 -158.51489258 176.80761719 C-162.60997948 173.82893329 -165.53858457 171.54014283 -166.46131897 166.46038818 C-166.66244326 163.30620646 -166.69289282 160.19174133 -166.6640625 157.03125 C-166.66884613 155.87757935 -166.67362976 154.72390869 -166.67855835 153.53527832 C-166.68195407 151.10114169 -166.67277484 148.66695926 -166.65185547 146.23291016 C-166.62508856 142.51230948 -166.65161795 138.79472586 -166.68359375 135.07421875 C-166.6802896 132.70572252 -166.67388326 130.33722817 -166.6640625 127.96875 C-166.67418365 126.85922974 -166.68430481 125.74970947 -166.69473267 124.60656738 C-166.56453859 116.00493991 -166.56453859 116.00493991 -163.80932617 112.47387695 C-161.09026238 110.07948455 -158.54238789 108.22105913 -155.38671875 106.44921875 C-154.31075439 105.83699463 -153.23479004 105.22477051 -152.1262207 104.59399414 C-150.99144287 103.96485107 -149.85666504 103.33570801 -148.6875 102.6875 C-147.5127636 102.02750294 -146.33853108 101.36660823 -145.16479492 100.70483398 C-142.84543486 99.39857898 -140.52289556 98.09864199 -138.19824219 96.80175781 C-135.43405478 95.24452857 -132.69927667 93.65164991 -129.9765625 92.0234375 C-129.25895752 91.59973877 -128.54135254 91.17604004 -127.80200195 90.73950195 C-126.52335317 89.98304524 -125.25046454 89.21671867 -123.98510742 88.43823242 C-119.78158474 85.99579851 -116.81295025 85.28772406 -112 86 C-108.52421712 87.45954067 -105.31406522 89.28729797 -102.0625 91.1875 C-101.20720703 91.67025391 -100.35191406 92.15300781 -99.47070312 92.65039062 C-95.43416547 94.94422781 -91.52571895 97.32020209 -87.68359375 99.92578125 C-85.24895401 101.44388305 -84.29289831 101.98997521 -81.375 102.08984375 C-78.23771238 100.65020025 -75.65775287 98.72893131 -73 96.5625 C-71.989375 95.75941406 -70.97875 94.95632812 -69.9375 94.12890625 C-69.36644531 93.6388208 -68.79539062 93.14873535 -68.20703125 92.64379883 C-66 91 -66 91 -62.69921875 89.34643555 C-58.6960796 87.17777114 -55.37432134 84.97242685 -53 81 C-50.78810727 72.52387766 -51.68045113 63.35570215 -52 54.6875 C-52.08903837 51.09684707 -52.15929314 47.50747025 -52.20239258 43.91596985 C-52.23353007 41.68942929 -52.29340641 39.4630581 -52.38549805 37.23820496 C-52.55146921 29.738533 -52.55146921 29.738533 -49.70117188 25.92138672 C-48.80978516 25.2873291 -47.91839844 24.65327148 -47 24 C-46.40767578 23.57259521 -45.81535156 23.14519043 -45.20507812 22.70483398 C-44.65271484 22.38844971 -44.10035156 22.07206543 -43.53125 21.74609375 C-42.56566162 21.18535156 -42.56566162 21.18535156 -41.58056641 20.61328125 C-40.55068604 20.03126953 -40.55068604 20.03126953 -39.5 19.4375 C-38.77603027 19.01984375 -38.05206055 18.6021875 -37.30615234 18.171875 C-34.87555972 16.7727071 -32.4381808 15.38589866 -30 14 C-28.10654827 12.91835826 -26.21332586 11.83631501 -24.3203125 10.75390625 C-21.50512301 9.14437101 -18.68913172 7.53641214 -15.86914062 5.93530273 C-15.01771484 5.45134033 -14.16628906 4.96737793 -13.2890625 4.46875 C-12.53318848 4.04013672 -11.77731445 3.61152344 -10.99853516 3.16992188 C-4.759979 -0.48206458 -4.759979 -0.48206458 0 0 Z " fill="#082C76" transform="translate(304,91)"/>
<path d="M0 0 C3.53578901 0.29308053 7.07236618 0.57498162 10.60931969 0.8536129 C13.37057233 1.07233214 16.13133477 1.29680589 18.89198685 1.52296829 C20.82026764 1.679994 22.74892114 1.83242152 24.67758179 1.98471069 C46.19079859 3.79337864 46.19079859 3.79337864 53.10302734 11.47363281 C59.2001367 20.18378904 57.02448184 30.64393849 56.16552734 40.78613281 C56.11235352 41.57383057 56.05917969 42.36152832 56.00439453 43.1730957 C55.31290902 50.28476976 52.52625715 55.43406449 47.35302734 60.34863281 C44.90592179 61.93925142 42.56821839 62.93280958 39.85302734 63.97363281 C33.20626393 99.37492609 33.20626393 99.37492609 39.85302734 132.97363281 C44.53115877 132.49117359 47.37922962 130.35871919 50.91552734 127.47363281 C52.05553596 126.56920949 53.19617697 125.66558281 54.33740234 124.76269531 C54.91554688 124.3015332 55.49369141 123.84037109 56.08935547 123.36523438 C58.90884493 121.14055416 61.78569995 118.99426723 64.66552734 116.84863281 C65.66197266 116.10355469 66.65841797 115.35847656 67.68505859 114.59082031 C68.40048828 114.05714844 69.11591797 113.52347656 69.85302734 112.97363281 C70.39830078 113.34875 70.94357422 113.72386719 71.50537109 114.11035156 C76.8060827 117.70758662 82.20351567 120.95521759 87.85302734 123.97363281 C86.56258927 127.84494703 84.89496815 128.66197132 81.60302734 131.03613281 C80.5150043 131.82802624 79.42779447 132.62103793 78.34130859 133.41503906 C77.77234863 133.82898926 77.20338867 134.24293945 76.6171875 134.66943359 C74.81295321 136.00325861 73.03904986 137.36960922 71.27099609 138.75097656 C70.68930664 139.20529053 70.10761719 139.65960449 69.50830078 140.12768555 C68.38059025 141.01129387 67.25486801 141.89744685 66.13134766 142.78637695 C63.69713326 144.68349814 61.80907698 145.98828293 58.85302734 146.97363281 C56.54256828 169.51661317 63.96639849 184.89788729 74.32255554 204.28157043 C78.13922993 211.42991474 81.56884956 218.72102789 84.91552734 226.09863281 C85.6557312 227.70653687 85.6557312 227.70653687 86.41088867 229.34692383 C89.70669215 236.52938344 91.05726603 241.71624718 91.10302734 249.59863281 C91.13396484 250.89607422 91.13396484 250.89607422 91.16552734 252.21972656 C91.20224362 258.34216566 90.1489084 263.31041319 87.85302734 268.97363281 C87.57338135 269.6674707 87.29373535 270.36130859 87.00561523 271.07617188 C82.71390507 281.20379939 73.55534145 289.77692075 63.46240234 293.96582031 C44.98905015 300.38867455 23.60721037 296.64235491 4.54052734 295.07519531 C2.06824369 294.87761438 -0.40408813 294.68063542 -2.87646484 294.48422241 C-8.01670972 294.07409962 -13.15646175 293.65840798 -18.29589844 293.23828125 C-24.85229682 292.70254601 -31.40956343 292.17848182 -37.96720886 291.65825844 C-43.05668384 291.25363952 -48.14575517 290.84412161 -53.23471069 290.43302536 C-55.65211345 290.23808254 -58.06961293 290.04433488 -60.48721313 289.85185623 C-103.98553953 286.37591339 -103.98553953 286.37591339 -118.95947266 268.85253906 C-125.27197416 260.25175576 -127.48010924 250.47424639 -127.70947266 239.97363281 C-127.74983643 238.92574585 -127.74983643 238.92574585 -127.79101562 237.85668945 C-127.70766009 226.1102814 -121.43150113 216.08816298 -114.70947266 206.91113281 C-114.005 205.92435547 -113.30052734 204.93757812 -112.57470703 203.92089844 C-111.13153082 201.89941443 -109.68315998 199.88162839 -108.22949219 197.86767578 C-105.15844877 193.5998975 -102.1535451 189.28693799 -99.14697266 184.97363281 C-98.01838291 183.36143203 -96.8894719 181.74945611 -95.76025391 180.13769531 C-91.61268744 174.21193668 -87.47095129 168.28213652 -83.33447266 162.34863281 C-82.63386719 161.34574219 -81.93326172 160.34285156 -81.21142578 159.30957031 C-80.56496094 158.38144531 -79.91849609 157.45332031 -79.25244141 156.49707031 C-78.67647217 155.67126465 -78.10050293 154.84545898 -77.50708008 153.99462891 C-76.12046896 152.02759528 -76.12046896 152.02759528 -75.14697266 149.97363281 C-83.41681681 153.97632553 -91.37985125 158.33650181 -99.27197266 163.03613281 C-103.21297075 165.38004269 -107.16511711 167.69974434 -111.14697266 169.97363281 C-112.51160645 170.75649658 -112.51160645 170.75649658 -113.90380859 171.55517578 C-114.76522461 172.02197754 -115.62664062 172.4887793 -116.51416016 172.96972656 C-117.26552246 173.38279053 -118.01688477 173.79585449 -118.79101562 174.22143555 C-122.87912135 175.52666391 -126.05516853 174.47096673 -129.86914062 172.73364258 C-131.24030029 171.95718384 -131.24030029 171.95718384 -132.63916016 171.16503906 C-134.18083862 170.29866821 -134.18083862 170.29866821 -135.75366211 169.41479492 C-137.37147583 168.48485718 -137.37147583 168.48485718 -139.02197266 167.53613281 C-140.13080811 166.90521729 -141.23964355 166.27430176 -142.38208008 165.62426758 C-148.7846311 161.96068633 -155.16602735 158.25963712 -161.45947266 154.41113281 C-162.40765869 153.84084351 -162.40765869 153.84084351 -163.375 153.2590332 C-167.1673492 150.88526456 -169.84944565 148.82197536 -172.14697266 144.97363281 C-172.7578089 141.08049889 -172.73118498 137.22060555 -172.71337891 133.28613281 C-172.71957748 132.15087158 -172.72577606 131.01561035 -172.73216248 129.84594727 C-172.73925779 127.44873919 -172.73609176 125.0514818 -172.72338867 122.65429688 C-172.70952086 118.98638301 -172.74360484 115.32101888 -172.78173828 111.65332031 C-172.78268946 109.32259052 -172.78083072 106.99185754 -172.77587891 104.66113281 C-172.78913712 103.56518799 -172.80239532 102.46924316 -172.8160553 101.34008789 C-172.72292626 93.72692973 -172.72292626 93.72692973 -169.75878906 89.85009766 C-132.44770494 63.04387289 -132.44770494 63.04387289 -119.14697266 63.97363281 C-115.98828125 65.31542969 -115.98828125 65.31542969 -112.79541016 67.19238281 C-112.21465729 67.52854614 -111.63390442 67.86470947 -111.03555298 68.21105957 C-109.18910065 69.28462367 -107.35579665 70.37866789 -105.52197266 71.47363281 C-104.31573106 72.17811164 -103.10870402 72.88124738 -101.90087891 73.58300781 C-98.89961659 75.33349895 -95.91431352 77.10903331 -92.93640137 78.89892578 C-91.73062136 79.62310118 -90.52330948 80.34473131 -89.3145752 81.06396484 C-87.53875065 82.12139683 -85.76803043 83.18690081 -83.99853516 84.25488281 C-82.96809082 84.87427734 -81.93764648 85.49367188 -80.87597656 86.13183594 C-77.10938504 88.67389771 -74.60072761 90.61236796 -73.14697266 94.97363281 C-73.06215493 97.55993506 -73.03099037 100.11841338 -73.04931641 102.70410156 C-73.05073135 103.45452225 -73.0521463 104.20494293 -73.05360413 104.97810364 C-73.05919706 107.37248742 -73.07174822 109.76677734 -73.08447266 112.16113281 C-73.08948857 113.78548042 -73.09405132 115.40982949 -73.09814453 117.03417969 C-73.10916417 121.0140335 -73.12642392 124.99381725 -73.14697266 128.97363281 C-69.51697266 129.96363281 -65.88697266 130.95363281 -62.14697266 131.97363281 C-51.42192128 119.51789409 -49.24891875 108.93412942 -48.45947266 92.78613281 C-48.32128581 90.75262651 -48.17872753 88.71941242 -48.03173828 86.68652344 C-47.64604866 81.11823041 -47.37844395 75.55014997 -47.14697266 69.97363281 C-47.09163864 68.8890831 -47.09163864 68.8890831 -47.03518677 67.78262329 C-46.94427328 65.95400262 -46.88398673 64.12392686 -46.82666016 62.29394531 C-46.79427246 61.33891113 -46.76188477 60.38387695 -46.72851562 59.39990234 C-47.27546623 56.22860996 -48.54674749 55.09489444 -50.95947266 53.03613281 C-51.66716797 52.57335937 -52.37486328 52.11058594 -53.10400391 51.63378906 C-56.39006538 48.96347142 -57.91420316 46.0262783 -58.39428711 41.79272461 C-58.479031 39.28292295 -58.45999112 36.7965249 -58.39697266 34.28613281 C-58.37618652 32.95146973 -58.37618652 32.95146973 -58.35498047 31.58984375 C-58.30583551 29.05006938 -58.23130128 26.51245134 -58.14697266 23.97363281 C-58.11603516 22.82765625 -58.08509766 21.68167969 -58.05322266 20.50097656 C-57.68446398 13.94629108 -56.32106595 8.30940914 -51.68994141 3.44238281 C-38.9021794 -7.69430106 -15.67591189 -1.29940779 0 0 Z " fill="#072C76" transform="translate(330.14697265625,255.0263671875)"/>
<path d="M0 0 C14.3811306 -0.44023869 28.67399914 0.87227545 43 2 C43.31757008 13.58689723 42.23131554 25.05455201 41.28173828 36.58862305 C40.86798454 41.65358801 40.47866752 46.71881227 40.14584351 51.78979492 C40.01530167 53.7681087 39.87053197 55.74547166 39.72387695 57.72265625 C39.36437865 66.01896124 41.45817405 71.78738664 45.1875 79.125 C46.06046639 80.92264289 46.93343028 82.72028698 47.80633545 84.51795959 C48.7873355 86.52543955 49.78100522 88.52621375 50.77783203 90.52587891 C53.26805984 95.526434 55.71023237 100.55003282 58.15234375 105.57421875 C61.78806824 113.04728992 65.43560544 120.51444162 69.09375 127.9765625 C74.03979017 138.06977328 78.95414338 148.17572256 83.73779297 158.34716797 C85.16623195 161.34937647 86.63262932 164.3318921 88.09765625 167.31640625 C89.12844615 169.46053292 90.15841382 171.6050551 91.1875 173.75 C91.67041504 174.71510498 92.15333008 175.68020996 92.65087891 176.67456055 C96.60848144 185.03813887 97.40682442 192.40701638 94.4375 201.25 C91.27231681 208.28498313 86.2088429 213.17914843 79 216 C67.5228351 218.71024747 55.04658961 216.53911073 43.43676758 215.51898193 C39.22259865 215.14875941 35.0075042 214.78964493 30.79241943 214.43002319 C28.57838534 214.24111516 26.36439652 214.05167583 24.15045166 213.86172485 C11.93761035 212.81632227 -0.28085934 211.84349756 -12.5 210.875 C-14.51513999 210.71521058 -16.53027679 210.55538085 -18.54541016 210.39550781 C-20.00534897 210.27991516 -20.00534897 210.27991516 -21.49478149 210.1619873 C-23.42265792 210.00816619 -25.35037634 209.85235059 -27.27792358 209.69445801 C-32.3214134 209.28244691 -37.36427736 208.90584565 -42.4140625 208.57910156 C-44.01139221 208.46708908 -44.01139221 208.46708908 -45.64099121 208.35281372 C-47.65844455 208.21147435 -49.67677925 208.08194507 -51.69592285 207.96725464 C-59.53133126 207.3946907 -67.37003428 205.77462897 -73.71875 200.921875 C-79.87411966 193.41664357 -82.23332914 187.80289074 -82.59375 178.1015625 C-80.99373823 169.74360626 -75.58041608 162.58988776 -70.6875 155.8125 C-69.44087266 154.05897297 -68.19480108 152.30505073 -66.94921875 150.55078125 C-66.30259277 149.64408691 -65.6559668 148.73739258 -64.98974609 147.80322266 C-61.62351178 143.06075611 -58.31446164 138.27872036 -55 133.5 C-50.01330357 126.32396388 -45.0148441 119.1563916 -40 112 C-32.91423917 101.88256611 -25.83280929 91.76253993 -18.80957031 81.6015625 C-17.16868735 79.24251651 -15.50666562 76.90044495 -13.8359375 74.5625 C-12.93174233 73.27121782 -12.02805174 71.97958209 -11.125 70.6875 C-9.98417969 69.08455078 -9.98417969 69.08455078 -8.8203125 67.44921875 C-4.68736024 59.61789505 -4.56097841 50.41129583 -3.96484375 41.71875 C-3.88126114 40.58344849 -3.79767853 39.44814697 -3.71156311 38.27844238 C-3.44761978 34.6860291 -3.19184283 31.0931048 -2.9375 27.5 C-2.67884832 23.87839614 -2.41835105 20.25696355 -2.15272522 16.63586426 C-1.98818808 14.39032192 -1.82777409 12.14447295 -1.67185974 9.89831543 C-1.59830765 8.88966431 -1.52475555 7.88101318 -1.44897461 6.84179688 C-1.38616806 5.95262573 -1.32336151 5.06345459 -1.25865173 4.14733887 C-1 2 -1 2 0 0 Z " fill="#FDFDFE" transform="translate(305,315)"/>
<path d="M0 0 C2.52183644 0.94026541 5.00356321 1.91237223 7.48828125 2.94140625 C8.5430793 3.3721067 8.5430793 3.3721067 9.6191864 3.81150818 C11.85202217 4.72434348 14.08226939 5.64332071 16.3125 6.5625 C17.83121316 7.18465272 19.35009168 7.80640196 20.86914062 8.42773438 C24.58135805 9.94715757 28.2912672 11.47209206 32 13 C32.02187378 14.55110474 32.02187378 14.55110474 32.04418945 16.13354492 C32.10230882 19.98236082 32.17954023 23.83059999 32.26245117 27.67895508 C32.29563655 29.34227108 32.32368834 31.00569796 32.34643555 32.66918945 C32.38009999 35.06509499 32.4324194 37.45999035 32.48828125 39.85546875 C32.49786613 40.96513252 32.49786613 40.96513252 32.50764465 42.09721375 C32.63399851 46.56781295 33.12611073 49.52466123 36 53 C38.69502085 54.98369742 38.69502085 54.98369742 41.890625 56.671875 C42.46794373 56.99473984 43.04526245 57.31760468 43.64007568 57.6502533 C44.87022197 58.33698154 46.10324469 59.01857866 47.33886719 59.69540405 C49.26753838 60.75967798 51.17787747 61.85164707 53.0859375 62.95239258 C60.85194767 67.4229759 60.85194767 67.4229759 69.046875 71.02734375 C73.11135362 72.65494735 76.63823576 74.16820662 79 78 C81.98136962 87.34964642 82.53220405 97.2568376 83 107 C83.08258057 107.84046875 83.16516113 108.6809375 83.25024414 109.546875 C83.40625 111.66015625 83.40625 111.66015625 83 115 C80.75390625 117.1796875 80.75390625 117.1796875 77.5625 118.875 C76.99354004 119.19178711 76.42458008 119.50857422 75.83837891 119.83496094 C74.58796017 120.53086359 73.33069668 121.21456899 72.06787109 121.88769531 C69.05993678 123.50565856 66.10449356 125.20943416 63.15209961 126.92626953 C61.65788118 127.79489313 60.15751287 128.65304019 58.65063477 129.49951172 C57.95897217 129.8967041 57.26730957 130.29389648 56.5546875 130.703125 C55.94093262 131.05020508 55.32717773 131.39728516 54.69482422 131.75488281 C52.58084966 133.3079324 51.39322475 134.76947823 50 137 C49.66160121 139.4662754 49.66160121 139.4662754 49.8815918 142.14477539 C49.94971321 143.68271507 49.94971321 143.68271507 50.01921082 145.25172424 C50.10831474 146.90796059 50.10831474 146.90796059 50.19921875 148.59765625 C50.27617055 150.94976151 50.34962607 153.30198328 50.41992188 155.65429688 C50.54316183 159.3546807 50.68675362 163.04901428 50.89135742 166.74584961 C51.9500513 186.76710603 51.9500513 186.76710603 48.70419312 192.14825439 C45.53780323 195.6356874 41.82716003 197.94612193 37.6713562 200.10079956 C35.53240897 201.251567 33.78104594 202.69266898 31.96484375 204.296875 C30.96582031 205.10640625 29.96679688 205.9159375 28.9375 206.75 C28.42251953 207.18570313 27.90753906 207.62140625 27.37695312 208.0703125 C24.90395696 210.04368174 23.48613513 211.00348234 20.2734375 210.98046875 C17.59679922 209.826111 16.92542661 209.17590062 15.6875 206.5625 C10.01012342 191.58438048 14.82489179 171.3082359 16.24609375 155.70703125 C16.30658905 155.03463913 16.36708435 154.36224701 16.42941284 153.66947937 C17.57854741 141.35049809 17.57854741 141.35049809 19.92578125 139.3984375 C20.71339844 139.06070313 21.50101563 138.72296875 22.3125 138.375 C27.75038727 135.74237203 30.53897584 132.4955218 33 127 C33.44593852 125.00077968 33.44593852 125.00077968 33.6328125 122.91015625 C33.71716553 122.13196533 33.80151855 121.35377441 33.88842773 120.55200195 C34.00553101 119.31969849 34.00553101 119.31969849 34.125 118.0625 C34.24693726 116.79249146 34.24693726 116.79249146 34.37133789 115.49682617 C36.39211922 101.46422286 36.39211922 101.46422286 31.65113831 88.78327942 C26.16396051 82.85696107 20.07718767 81.20839735 12.25390625 80.70703125 C10.87321457 80.59239784 10.87321457 80.59239784 9.46463013 80.47544861 C6.49846052 80.233985 3.53103003 80.02275355 0.5625 79.8125 C-1.48281476 79.65260755 -3.52798194 79.49081633 -5.57299805 79.32714844 C-9.58079087 79.00930866 -13.58917261 78.70278377 -17.59863281 78.40673828 C-22.056438 78.07567855 -26.50858745 77.70618849 -30.9609375 77.30859375 C-36.63694226 76.8025383 -42.31263384 76.35687656 -48 76 C-48.80115234 75.9479541 -49.60230469 75.8959082 -50.42773438 75.84228516 C-61.08503073 75.12031409 -61.08503073 75.12031409 -70.51953125 79.5 C-79.12942351 88.22347923 -78.09916591 99.87095415 -78.25 111.3125 C-78.28202515 112.60208618 -78.28202515 112.60208618 -78.31469727 113.91772461 C-78.34204096 119.02503031 -77.94809278 122.63392076 -75 127 C-72.99280899 128.68935887 -72.99280899 128.68935887 -70.8125 130.0625 C-68.39789577 132.12232429 -67.12781125 133.25434692 -66.58374023 136.4284668 C-66.61669189 137.38406494 -66.64964355 138.33966309 -66.68359375 139.32421875 C-66.7199292 140.47913818 -66.75626465 141.63405762 -66.79370117 142.82397461 C-66.86213689 144.21599936 -66.93093332 145.60800641 -67 147 C-67.06577459 148.6986389 -67.13126741 150.39728874 -67.1965332 152.09594727 C-67.40202705 156.97041183 -67.70699848 161.83359945 -68.04980469 166.70019531 C-68.18271507 168.7249716 -68.29487902 170.75122188 -68.38574219 172.77832031 C-69.10248611 188.45010408 -72.65150139 198.1246082 -83 210 C-84.4589426 209.52269162 -85.91713496 209.04308958 -87.375 208.5625 C-88.18710937 208.29566406 -88.99921875 208.02882813 -89.8359375 207.75390625 C-92 207 -92 207 -94 206 C-94.01458252 204.99622314 -94.02916504 203.99244629 -94.04418945 202.95825195 C-94.10232052 199.2212425 -94.17955165 195.48482631 -94.26245117 191.74829102 C-94.2956311 190.13348037 -94.32368458 188.51855569 -94.34643555 186.90356445 C-94.38011025 184.57714408 -94.43242963 182.25176217 -94.48828125 179.92578125 C-94.49467117 179.20787918 -94.5010611 178.48997711 -94.50764465 177.75032043 C-94.63602009 173.33803925 -95.26419929 170.49123169 -98 167 C-99.77912006 165.41132779 -99.77912006 165.41132779 -101.87109375 164.16015625 C-102.66757324 163.65629395 -103.46405273 163.15243164 -104.28466797 162.63330078 C-109.50263798 159.49463693 -114.77106886 156.45038227 -120.0625 153.4375 C-123.40456622 151.52965002 -126.7430079 149.62035904 -130.05712891 147.66430664 C-132.87490436 145.996505 -132.87490436 145.996505 -135.50146484 144.94311523 C-137.90515339 143.84549446 -139.29791641 143.03361112 -141 141 C-142.558268 136.14591596 -143.03949319 131.24048293 -143.5 126.1875 C-143.65300768 124.83231229 -143.80923144 123.47748363 -143.96875 122.12304688 C-144.67619795 115.72759106 -145.19770258 109.43357158 -145 103 C-143.91114502 102.40312378 -143.91114502 102.40312378 -142.80029297 101.79418945 C-140.08012162 100.29902901 -137.36326273 98.7980556 -134.6484375 97.29321289 C-132.90609894 96.32969775 -131.16010944 95.37279417 -129.4140625 94.41601562 C-119.89694229 89.68371716 -119.89694229 89.68371716 -113 82 C-112.94679327 80.35632966 -112.95807733 78.7103779 -113.00097656 77.06640625 C-113.02299133 76.03773438 -113.0450061 75.0090625 -113.06768799 73.94921875 C-113.0917572 72.83160156 -113.11582642 71.71398437 -113.140625 70.5625 C-113.1721157 66.95981198 -113.19202806 63.35716643 -113.21142578 59.75439453 C-113.23699802 57.26547155 -113.28395903 54.7766701 -113.35302734 52.28857422 C-113.92627786 30.43230689 -113.92627786 30.43230689 -109.3203125 25.31933594 C-106.17519161 22.623198 -102.68707155 20.85682923 -99 19 C-97.4352268 17.81920138 -95.89833013 16.59954052 -94.40625 15.328125 C-93.1043156 14.30189436 -91.80223835 13.27584491 -90.5 12.25 C-89.83742188 11.70601562 -89.17484375 11.16203125 -88.4921875 10.6015625 C-87.84507812 10.09882813 -87.19796875 9.59609375 -86.53125 9.078125 C-85.96986328 8.62856445 -85.40847656 8.17900391 -84.83007812 7.71582031 C-83 7 -83 7 -80.61987305 7.68237305 C-77.88558187 9.05754493 -75.20910907 10.48654931 -72.55078125 12.00390625 C-71.53822266 12.57947266 -70.52566406 13.15503906 -69.48242188 13.74804688 C-68.43634766 14.34681641 -67.39027344 14.94558594 -66.3125 15.5625 C-64.22545561 16.75164473 -62.13822549 17.94046356 -60.05078125 19.12890625 C-59.12950439 19.65556885 -58.20822754 20.18223145 -57.2590332 20.72485352 C-52.62049023 23.34315136 -49.15044125 23.2795657 -44 22 C-39.93233278 20.14066048 -36.17733733 17.84729785 -32.375 15.5 C-31.3233667 14.87085693 -30.2717334 14.24171387 -29.18823242 13.59350586 C-24.51835457 10.79258165 -19.88518427 7.93683681 -15.27734375 5.03515625 C-14.59559082 4.61105469 -13.91383789 4.18695313 -13.21142578 3.75 C-11.98318404 2.98191465 -10.76334247 2.20015668 -9.55419922 1.40234375 C-5.82489992 -0.94146774 -4.17842561 -1.1552204 0 0 Z " fill="#FDFDFE" transform="translate(351,178)"/>
<path d="M0 0 C0.69480469 0.74894531 1.38960938 1.49789062 2.10546875 2.26953125 C5.03129477 5.02952097 7.79018683 6.77366684 11.3125 8.6875 C13.23970308 9.73595427 15.14638492 10.82633941 17 12 C17 12.66 17 13.32 17 14 C14.62034132 15.93573758 12.22914013 17.76174276 9.75 19.5625 C7.64506852 21.11253222 5.54890466 22.66220249 3.48657227 24.26879883 C1 26 1 26 -2.19165039 27.47143555 C-5.94419085 29.4781818 -8.90416277 31.26166026 -11 35 C-13.06694752 43.63259931 -12.22415005 52.8897275 -11.9375 61.6875 C-11.85589092 65.34594612 -11.79170412 69.00312897 -11.75526428 72.66230774 C-11.72885697 74.9321903 -11.67458401 77.20196602 -11.58885193 79.47038269 C-11.43073285 88.01527805 -11.43073285 88.01527805 -14.13623047 91.49975586 C-17.01816849 94.01586219 -19.78071538 95.97745654 -23.10546875 97.8671875 C-23.67074783 98.19163849 -24.23602692 98.51608948 -24.81843567 98.85037231 C-26.00105183 99.52623182 -27.18687267 100.1965127 -28.37573242 100.86132812 C-30.1999737 101.88197895 -32.01353616 102.91983892 -33.82617188 103.9609375 C-42.69952102 109 -42.69952102 109 -45 109 C-44.87882812 109.97348389 -44.75765625 110.94696777 -44.6328125 111.94995117 C-44.18248359 115.5744137 -43.73615722 119.19935994 -43.29101562 122.82446289 C-43.09809114 124.39100326 -42.90409292 125.95741179 -42.70898438 127.52368164 C-42.42813765 129.77976923 -42.15120235 132.03630845 -41.875 134.29296875 C-41.78750488 134.98899704 -41.70000977 135.68502533 -41.60986328 136.40214539 C-41.17877243 139.95661196 -40.90297377 143.41912581 -41 147 C-42.093125 147.20625 -43.18625 147.4125 -44.3125 147.625 C-50.04725765 149.02522808 -54.94153025 152.04302687 -60 155 C-61.93185902 148.14231863 -62.78444833 141.32244848 -63.5625 134.25 C-63.8114798 132.02578048 -64.06268842 129.80180903 -64.31640625 127.578125 C-64.42412354 126.60262695 -64.53184082 125.62712891 -64.64282227 124.62207031 C-65.07462088 121.24912774 -65.07462088 121.24912774 -66 118 C-68.50224475 116.36450588 -70.9152528 114.98655422 -73.5625 113.625 C-75.1939655 112.74973513 -76.82410177 111.87198952 -78.453125 110.9921875 C-79.33806641 110.51749023 -80.22300781 110.04279297 -81.13476562 109.55371094 C-86.40483883 106.69594459 -91.61277067 103.73336695 -96.8125 100.75 C-97.84383057 100.1720166 -98.87516113 99.5940332 -99.93774414 98.99853516 C-100.91348389 98.4369873 -101.88922363 97.87543945 -102.89453125 97.296875 C-103.75925049 96.80541992 -104.62396973 96.31396484 -105.51489258 95.80761719 C-109.60997948 92.82893329 -112.53858457 90.54014283 -113.46131897 85.46038818 C-113.66244326 82.30620646 -113.69289282 79.19174133 -113.6640625 76.03125 C-113.66884613 74.87757935 -113.67362976 73.72390869 -113.67855835 72.53527832 C-113.68195407 70.10114169 -113.67277484 67.66695926 -113.65185547 65.23291016 C-113.62508856 61.51230948 -113.65161795 57.79472586 -113.68359375 54.07421875 C-113.6802896 51.70572252 -113.67388326 49.33722817 -113.6640625 46.96875 C-113.67418365 45.85922974 -113.68430481 44.74970947 -113.69473267 43.60656738 C-113.56453859 35.00493991 -113.56453859 35.00493991 -110.80932617 31.47387695 C-108.09026238 29.07948455 -105.54238789 27.22105913 -102.38671875 25.44921875 C-100.77277222 24.53088257 -100.77277222 24.53088257 -99.1262207 23.59399414 C-97.99144287 22.96485107 -96.85666504 22.33570801 -95.6875 21.6875 C-94.5127636 21.02750294 -93.33853108 20.36660823 -92.16479492 19.70483398 C-89.84543486 18.39857898 -87.52289556 17.09864199 -85.19824219 15.80175781 C-82.43405478 14.24452857 -79.69927667 12.65164991 -76.9765625 11.0234375 C-76.25895752 10.59973877 -75.54135254 10.17604004 -74.80200195 9.73950195 C-73.52335317 8.98304524 -72.25046454 8.21671867 -70.98510742 7.43823242 C-66.78158474 4.99579851 -63.81295025 4.28772406 -59 5 C-55.52421712 6.45954067 -52.31406522 8.28729797 -49.0625 10.1875 C-48.20720703 10.67025391 -47.35191406 11.15300781 -46.47070312 11.65039062 C-42.43416547 13.94422781 -38.52571895 16.32020209 -34.68359375 18.92578125 C-32.24895401 20.44388305 -31.29289831 20.98997521 -28.375 21.08984375 C-25.23713962 19.64993743 -22.65877485 17.72806581 -20 15.5625 C-18.8608917 14.65988534 -17.72156174 13.75755035 -16.58203125 12.85546875 C-15.99760254 12.38802246 -15.41317383 11.92057617 -14.81103516 11.43896484 C-11.79933751 9.04600907 -8.74158054 6.71343931 -5.6875 4.375 C-4.58702534 3.52892442 -3.48674476 2.68259631 -2.38671875 1.8359375 C-1.59910156 1.23007813 -0.81148438 0.62421875 0 0 Z " fill="#6964F6" transform="translate(251,172)"/>
<path d="M0 0 C4.36416904 0.89037143 8.68028498 1.9152067 13 3 C13.8765625 3.17402344 14.753125 3.34804688 15.65625 3.52734375 C18.39972307 4.32125976 19.89850261 5.04003202 22 7 C23.85696802 10.77281552 25.17838828 14.57239728 26.48046875 18.5625 C33.11237565 38.7369466 46.7502127 55.65607912 61 71 C61.82564453 71.90685547 61.82564453 71.90685547 62.66796875 72.83203125 C74.56936177 85.3799197 90.24472586 94.74875075 105.5625 102.5 C106.20485596 102.82629395 106.84721191 103.15258789 107.5090332 103.48876953 C111.61532085 105.50357942 115.5929152 106.86561524 120 108 C116.17640807 112.25240598 111.27880274 113.73635209 105.64086914 114.18969727 C96.19774929 114.19589064 86.83580373 113.34485397 77.43676758 112.51898193 C73.22259865 112.14875941 69.0075042 111.78964493 64.79241943 111.43002319 C62.57838534 111.24111516 60.36439652 111.05167583 58.15045166 110.86172485 C45.93761035 109.81632227 33.71914066 108.84349756 21.5 107.875 C19.48486001 107.71521058 17.46972321 107.55538085 15.45458984 107.39550781 C14.4812973 107.31844604 13.50800476 107.24138428 12.50521851 107.1619873 C10.57734208 107.00816619 8.64962366 106.85235059 6.72207642 106.69445801 C1.6785866 106.28244691 -3.36427736 105.90584565 -8.4140625 105.57910156 C-9.47894897 105.50442657 -10.54383545 105.42975159 -11.64099121 105.35281372 C-13.65844455 105.21147435 -15.67677925 105.08194507 -17.69592285 104.96725464 C-25.53133126 104.3946907 -33.37003428 102.77462897 -39.71875 97.921875 C-45.87411966 90.41664357 -48.23332914 84.80289074 -48.59375 75.1015625 C-46.99372138 66.74351828 -41.58032411 59.59002961 -36.6875 52.8125 C-35.44221211 51.06024838 -34.19744119 49.30762928 -32.953125 47.5546875 C-32.30666016 46.6481543 -31.66019531 45.74162109 -30.99414062 44.80761719 C-27.60850579 40.04086883 -24.27363729 35.2389606 -20.9375 30.4375 C-20.27451904 29.48456055 -19.61153809 28.53162109 -18.9284668 27.54980469 C-12.56926306 18.40052074 -6.27279513 9.20868495 0 0 Z " fill="#92B1F3" transform="translate(271,418)"/>
<path d="M0 0 C3.15869141 1.34179688 3.15869141 1.34179688 6.3515625 3.21875 C6.93231537 3.55491333 7.51306824 3.89107666 8.11141968 4.23742676 C9.95787201 5.31099086 11.791176 6.40503508 13.625 7.5 C14.8312416 8.20447882 16.03826864 8.90761456 17.24609375 9.609375 C20.24735607 11.35986614 23.23265913 13.1354005 26.21057129 14.92529297 C27.4163513 15.64946837 28.62366318 16.3710985 29.83239746 17.09033203 C31.608222 18.14776402 33.37894223 19.21326799 35.1484375 20.28125 C36.17888184 20.90064453 37.20932617 21.52003906 38.27099609 22.15820312 C42.03758762 24.7002649 44.54624505 26.63873515 46 31 C46.08481773 33.58630224 46.11598229 36.14478056 46.09765625 38.73046875 C46.0962413 39.48088943 46.09482635 40.23131012 46.09336853 41.00447083 C46.0877756 43.3988546 46.07522444 45.79314453 46.0625 48.1875 C46.05748408 49.81184761 46.05292134 51.43619668 46.04882812 53.06054688 C46.03780848 57.04040069 46.02054873 61.02018444 46 65 C48.97 65.99 51.94 66.98 55 68 C55 73.1702949 53.15970738 75.49448072 50.375 79.6875 C49.94832031 80.37650391 49.52164063 81.06550781 49.08203125 81.77539062 C48.65019531 82.43087891 48.21835937 83.08636719 47.7734375 83.76171875 C47.38591309 84.35944092 46.99838867 84.95716309 46.59912109 85.57299805 C44.29492759 87.62918293 42.01796154 87.54401879 39 88 C36.28948771 89.24355971 36.28948771 89.24355971 33.65625 90.87890625 C32.66359131 91.46712158 31.67093262 92.05533691 30.64819336 92.66137695 C29.60928955 93.28874756 28.57038574 93.91611816 27.5 94.5625 C25.3450979 95.83861903 23.19015019 97.11466106 21.03515625 98.390625 C18.23017141 100.06516479 15.42718591 101.74282652 12.62841797 103.42773438 C10.73656287 104.5649004 8.83788084 105.68967011 6.9375 106.8125 C5.93589844 107.41707031 4.93429688 108.02164063 3.90234375 108.64453125 C-0.19354856 110.5574177 -3.63571002 111.85653005 -8.07495117 110.24829102 C-10.47302584 109.05494887 -12.76182281 107.74679109 -15.0625 106.375 C-15.917229 105.88298096 -16.77195801 105.39096191 -17.65258789 104.8840332 C-19.48320821 103.82606548 -21.30884608 102.75943826 -23.12988281 101.68505859 C-26.07814631 99.95411995 -29.04788084 98.26555726 -32.0234375 96.58203125 C-33.99563034 95.45198326 -35.96700493 94.32050585 -37.9375 93.1875 C-38.8663501 92.66140137 -39.7952002 92.13530273 -40.75219727 91.59326172 C-41.62674561 91.08166504 -42.50129395 90.57006836 -43.40234375 90.04296875 C-44.17054443 89.59977295 -44.93874512 89.15657715 -45.73022461 88.69995117 C-49.6804205 85.74144693 -52.54945852 83.43955386 -53.46330261 78.49134827 C-53.66213849 75.38805826 -53.69291544 72.32440083 -53.6640625 69.21484375 C-53.66884613 68.08099747 -53.67362976 66.94715118 -53.67855835 65.77894592 C-53.68195348 63.38769133 -53.67277837 60.99639008 -53.65185547 58.60522461 C-53.62506261 54.94605111 -53.65163243 51.28993837 -53.68359375 47.63085938 C-53.68029007 45.30468074 -53.67388472 42.978504 -53.6640625 40.65234375 C-53.67418365 39.55953598 -53.68430481 38.46672821 -53.69473267 37.34080505 C-53.57766108 29.75430466 -53.57766108 29.75430466 -50.60961914 25.87866211 C-13.36430122 -0.93420358 -13.36430122 -0.93420358 0 0 Z " fill="#082C76" transform="translate(211,319)"/>
<path d="M0 0 C4.43145282 1.96389265 8.50089672 4.40000668 12.625 6.9375 C13.78042233 7.63104722 14.93684319 8.32293356 16.09423828 9.01318359 C18.36927283 10.37351849 20.63610954 11.74511943 22.90039062 13.12353516 C25.54602821 14.72517114 28.20657015 16.28826665 30.890625 17.82421875 C42.22304765 24.36786444 42.22304765 24.36786444 45 29 C45.61203213 32.88116979 45.58421047 36.72954156 45.56640625 40.65234375 C45.57260483 41.78523331 45.57880341 42.91812286 45.58518982 44.08534241 C45.59228567 46.4783543 45.58911817 48.87141559 45.57641602 51.2644043 C45.56256124 54.921337 45.59661586 58.57570562 45.63476562 62.23242188 C45.63571694 64.55989646 45.63385732 66.88737424 45.62890625 69.21484375 C45.64216446 70.30562729 45.65542267 71.39641083 45.66908264 72.52024841 C45.56551774 80.98589879 45.56551774 80.98589879 42.80444336 84.52612305 C40.11563855 86.89799204 37.65287608 88.67327451 34.5 90.3671875 C33.45344238 90.93928955 32.40688477 91.5113916 31.32861328 92.10083008 C30.2301709 92.68630615 29.13172852 93.27178223 28 93.875 C25.74623414 95.10333967 23.49361802 96.33379135 21.2421875 97.56640625 C20.16420898 98.15437988 19.08623047 98.74235352 17.97558594 99.34814453 C13.29324635 101.94748073 8.76914959 104.76194665 4.2578125 107.64453125 C0.00856457 110.19555034 -4.15466834 110.87051385 -9 110 C-13.02999224 108.22605365 -16.70279024 105.94731693 -20.4375 103.625 C-22.56509103 102.339822 -24.69269529 101.0546659 -26.8203125 99.76953125 C-27.86348633 99.13096191 -28.90666016 98.49239258 -29.98144531 97.83447266 C-32.71698576 96.17199685 -35.46976192 94.54919081 -38.2421875 92.94921875 C-39.02150635 92.4991748 -39.8008252 92.04913086 -40.60375977 91.58544922 C-42.03825761 90.7587142 -43.47359529 89.93343407 -44.90991211 89.10986328 C-52.42512011 84.72463966 -52.42512011 84.72463966 -54 80 C-54.11183587 78.36021742 -54.16888811 76.71641491 -54.19287109 75.07299805 C-54.20893402 74.07153244 -54.22499695 73.07006683 -54.24154663 72.03825378 C-54.28607401 67.46341695 -54.32705292 62.88872357 -54.35009766 58.3137207 C-54.36666301 55.90151323 -54.3939603 53.48935495 -54.43212891 51.07739258 C-54.48690966 47.59690931 -54.50877359 44.11757514 -54.5234375 40.63671875 C-54.54610687 39.56153488 -54.56877625 38.48635101 -54.59213257 37.37858582 C-54.56856666 29.01964099 -54.56856666 29.01964099 -51.69555664 25.41748047 C-49.58823659 23.52755355 -47.8383561 21.97485283 -45.34765625 20.68359375 C-44.66437256 20.3179834 -43.98108887 19.95237305 -43.27709961 19.57568359 C-42.54628174 19.20008301 -41.81546387 18.82448242 -41.0625 18.4375 C-35.68845966 15.5921891 -30.40736358 12.6777114 -25.2421875 9.46484375 C-23.79380493 8.57164429 -23.79380493 8.57164429 -22.31616211 7.66040039 C-20.43510677 6.49373448 -18.56300478 5.31247336 -16.70141602 4.11499023 C-11.13341096 0.69600367 -6.55749147 -1.72047434 0 0 Z " fill="#072C76" transform="translate(454,286)"/>
<path d="M0 0 C3.01342773 1.32592773 3.01342773 1.32592773 6.18359375 3.18359375 C7.04327255 3.68027054 7.04327255 3.68027054 7.9203186 4.1869812 C9.76695769 5.25806373 11.60217712 6.34716089 13.4375 7.4375 C14.70115634 8.17637609 15.96540003 8.91424857 17.23022461 9.65112305 C19.70867774 11.09839363 22.18230455 12.55336901 24.65136719 14.01660156 C27.45173712 15.67526337 30.25859079 17.32164407 33.0703125 18.9609375 C43.8662709 25.30671089 43.8662709 25.30671089 46 28 C46.40786743 30.40840149 46.40786743 30.40840149 46.45166016 33.29418945 C46.4740274 34.37573807 46.49639465 35.45728668 46.5194397 36.5716095 C46.52915298 38.32473701 46.52915298 38.32473701 46.5390625 40.11328125 C46.55141937 41.31558884 46.56377625 42.51789642 46.57650757 43.75663757 C46.59609396 46.30279666 46.60730943 48.8490317 46.61083984 51.39526367 C46.62490994 55.28758523 46.69221136 59.17668499 46.76171875 63.06835938 C46.77411872 65.54165238 46.78333754 68.01496379 46.7890625 70.48828125 C46.81578033 71.65096024 46.84249817 72.81363922 46.87002563 74.0115509 C46.80414345 81.86330851 46.80414345 81.86330851 44.59999084 84.97897339 C42.81714338 86.56213445 41.05115795 87.78931645 39 89 C38.00250732 89.64775391 37.00501465 90.29550781 35.97729492 90.96289062 C34.98834229 91.52169922 33.99938965 92.08050781 32.98046875 92.65625 C31.87509766 93.28660156 30.76972656 93.91695313 29.63085938 94.56640625 C28.49455078 95.20449219 27.35824219 95.84257812 26.1875 96.5 C23.93053788 97.78045415 21.67402107 99.06169354 19.41796875 100.34375 C18.32790527 100.95605469 17.2378418 101.56835938 16.11474609 102.19921875 C13.25758253 103.85107942 10.50702502 105.6121597 7.73828125 107.40625 C3.21112375 110.09092249 -0.68044824 111.72693027 -6 111 C-9.75662057 109.6361642 -13.07534106 107.73237676 -16.5 105.6875 C-17.45326172 105.14150146 -18.40652344 104.59550293 -19.38867188 104.03295898 C-21.33413174 102.9141896 -23.27366366 101.78504667 -25.20703125 100.64550781 C-27.79188442 99.12261355 -30.39141969 97.63020353 -33 96.1484375 C-34.5008684 95.28797128 -36.00092019 94.42607848 -37.5 93.5625 C-38.17482422 93.17473389 -38.84964844 92.78696777 -39.54492188 92.38745117 C-49.83896847 86.32206306 -49.83896847 86.32206306 -52 82 C-52.11570235 80.33179145 -52.16954908 78.65911404 -52.19287109 76.98706055 C-52.20893402 75.94225021 -52.22499695 74.89743988 -52.24154663 73.82096863 C-52.28593806 69.04056394 -52.3270588 64.26029884 -52.35009766 59.47973633 C-52.36666456 56.95685608 -52.39396384 54.43402291 -52.43212891 51.91137695 C-52.48683189 48.2779093 -52.50876249 44.64554247 -52.5234375 41.01171875 C-52.54610687 39.88448898 -52.56877625 38.75725922 -52.59213257 37.59587097 C-52.57096771 29.76670744 -52.57096771 29.76670744 -49.68408203 25.89013672 C-48.79833496 25.2663916 -47.91258789 24.64264648 -47 24 C-46.40767578 23.57259521 -45.81535156 23.14519043 -45.20507812 22.70483398 C-44.65271484 22.38844971 -44.10035156 22.07206543 -43.53125 21.74609375 C-42.56566162 21.18535156 -42.56566162 21.18535156 -41.58056641 20.61328125 C-40.55068604 20.03126953 -40.55068604 20.03126953 -39.5 19.4375 C-38.77603027 19.01984375 -38.05206055 18.6021875 -37.30615234 18.171875 C-34.87555972 16.7727071 -32.4381808 15.38589866 -30 14 C-28.10654827 12.91835826 -26.21332586 11.83631501 -24.3203125 10.75390625 C-21.50512301 9.14437101 -18.68913172 7.53641214 -15.86914062 5.93530273 C-15.01771484 5.45134033 -14.16628906 4.96737793 -13.2890625 4.46875 C-12.15525146 3.82583008 -12.15525146 3.82583008 -10.99853516 3.16992188 C-4.759979 -0.48206458 -4.759979 -0.48206458 0 0 Z " fill="#062B76" transform="translate(304,91)"/>
<path d="M0 0 C5.73587453 2.73691475 11.38710339 5.44205082 16.625 9.0625 C29.42166193 17.83015925 43.94686066 22.16204622 59.46484375 22.09765625 C60.14301651 22.0962413 60.82118927 22.09482635 61.51991272 22.09336853 C63.65915578 22.08782745 65.79828925 22.07528653 67.9375 22.0625 C69.39908702 22.05747736 70.86067569 22.0529158 72.32226562 22.04882812 C75.88154526 22.03787745 79.44076191 22.02065445 83 22 C87.03451046 30.26791663 91.04954295 38.5447887 95.032547 46.83764648 C97.07656474 51.09157239 99.14389448 55.33321913 101.22265625 59.5703125 C102.12915275 61.46280068 103.03421699 63.35597592 103.9375 65.25 C104.35563965 66.08547363 104.7737793 66.92094727 105.20458984 67.78173828 C108.51838224 74.84973677 109.02826523 81.46184618 107.30078125 89.0859375 C103.41264162 98.09166802 103.41264162 98.09166802 99 101 C92.98480192 100.73265786 88.58679129 99.23492144 83.3125 96.4375 C82.2754895 95.90068604 82.2754895 95.90068604 81.2175293 95.35302734 C65.56782828 87.13868836 51.85699862 77.09807856 39 65 C38.360625 64.42507813 37.72125 63.85015625 37.0625 63.2578125 C19.93650987 47.20219676 7.13989235 25.22382874 0 3 C0 2.01 0 1.02 0 0 Z " fill="#D1DBFC" transform="translate(293,425)"/>
<path d="M0 0 C10.25863303 2.44810072 21.64508657 7.24524896 28.19091797 15.76147461 C31.94312958 26.16648538 29.66286637 39.06471237 28.19091797 49.76147461 C27.52036377 50.13957275 26.84980957 50.5176709 26.15893555 50.90722656 C23.10670123 52.62877645 20.05505443 54.35136519 17.00341797 56.07397461 C15.94832031 56.66887695 14.89322266 57.2637793 13.80615234 57.87670898 C12.78457031 58.45356445 11.76298828 59.03041992 10.71044922 59.62475586 C9.77305908 60.15367432 8.83566895 60.68259277 7.86987305 61.22753906 C5.15748897 62.7194232 5.15748897 62.7194232 2.65844727 64.58251953 C0.19091797 65.76147461 0.19091797 65.76147461 -2.24926758 65.15258789 C-3.09400635 64.69352051 -3.93874512 64.23445313 -4.80908203 63.76147461 C-5.75372314 63.26244629 -6.69836426 62.76341797 -7.67163086 62.24926758 C-8.69281006 61.67321777 -9.71398926 61.09716797 -10.76611328 60.50366211 C-11.87792969 59.8784668 -12.98974609 59.25327148 -14.13525391 58.60913086 C-15.29740104 57.95164551 -16.45950994 57.29409258 -17.62158203 56.63647461 C-18.80306392 55.9708282 -19.98470303 55.30546077 -21.16650391 54.64038086 C-24.04892108 53.01681527 -26.92970534 51.39042446 -29.80908203 49.76147461 C-33.07360471 24.91343466 -33.07360471 24.91343466 -29.80908203 15.76147461 C-24.44993781 8.90403843 -16.35844148 5.64314661 -8.3527832 2.73413086 C-0.98395433 -0.08354975 -0.98395433 -0.08354975 0 0 Z " fill="#D0DAFB" transform="translate(301.80908203125,114.238525390625)"/>
<path d="M0 0 C19.40686049 7.73059082 19.40686049 7.73059082 22.94403076 15.91546631 C25.94326228 26.11775768 25.20345065 37.95752977 22.13745117 48.04907227 C19.10050843 53.11171134 14.63547787 54.79644953 9.16040039 56.37768555 C5.89817481 57.46036963 3.32263357 59.29564335 0.44995117 61.17407227 C-4.30457133 64.13331864 -4.30457133 64.13331864 -6.73339844 63.76660156 C-9.13134563 62.95848703 -11.20176849 61.90950122 -13.41723633 60.68579102 C-14.27961914 60.21077148 -15.14200195 59.73575195 -16.03051758 59.24633789 C-16.92383789 58.74811523 -17.8171582 58.24989258 -18.73754883 57.73657227 C-19.62313477 57.24995117 -20.5087207 56.76333008 -21.42114258 56.26196289 C-23.91732135 54.87995035 -26.40525236 53.49924395 -28.86254883 52.04907227 C-29.92900635 51.48704102 -30.99546387 50.92500977 -32.09423828 50.34594727 C-34.86254883 48.04907227 -34.86254883 48.04907227 -35.78173828 44.61669922 C-35.88029566 43.25895145 -35.94300665 41.8982779 -35.97583008 40.53735352 C-36.00889755 39.81173218 -36.04196503 39.08611084 -36.07603455 38.33850098 C-36.15630046 36.01099221 -36.17540927 33.69039931 -36.17504883 31.36157227 C-36.18024536 30.57873871 -36.18544189 29.79590515 -36.1907959 28.98934937 C-36.14737231 14.27656319 -36.14737231 14.27656319 -31.92114258 10.04907227 C-28.81844335 7.93327564 -25.47180616 6.75723469 -21.88110352 5.72045898 C-18.63514826 4.64082945 -16.0889735 2.80487482 -13.23754883 0.92407227 C-8.0371742 -2.35347477 -5.70218558 -1.89424417 0 0 Z " fill="#66CBD0" transform="translate(455.862548828125,309.950927734375)"/>
<path d="M0 0 C10.18176973 3.27739369 20.56871893 7.41767202 27.55981445 15.82397461 C31.94798392 24.75700172 31.7880309 36.52054919 29.21948242 45.96655273 C26.2091203 54.27250426 18.06770599 58.19605892 10.60961914 61.95068359 C0.73904404 66.56967688 0.73904404 66.56967688 -4.44018555 64.82397461 C-6.97973633 63.54882812 -6.97973633 63.54882812 -9.63549805 61.95288086 C-10.59842773 61.37860352 -11.56135742 60.80432617 -12.5534668 60.21264648 C-13.54733398 59.61000977 -14.54120117 59.00737305 -15.56518555 58.38647461 C-17.06758789 57.48832031 -17.06758789 57.48832031 -18.6003418 56.57202148 C-22.25761892 54.38010976 -25.89208258 52.18937658 -29.44018555 49.82397461 C-30.61791598 44.45894349 -30.82232976 38.99210232 -31.00268555 33.51147461 C-31.04212784 32.34139359 -31.04212784 32.34139359 -31.08236694 31.14767456 C-31.30109887 18.3408121 -31.30109887 18.3408121 -27.34838867 12.99487305 C-22.19672585 8.68659035 -16.33781244 6.0206363 -10.02734375 3.81835938 C-7.35287224 2.89954072 -7.35287224 2.89954072 -4.92138672 1.14013672 C-2.44018555 -0.17602539 -2.44018555 -0.17602539 0 0 Z " fill="#FB7C9F" transform="translate(433.440185546875,168.176025390625)"/>
<path d="M0 0 C3.81417982 0.51302157 6.79670906 2.46474695 10.078125 4.37890625 C10.64956238 4.71043198 11.22099976 5.0419577 11.80975342 5.38352966 C13.62588883 6.43859256 15.43795766 7.50042582 17.25 8.5625 C18.48411249 9.28105002 19.71848476 9.99915405 20.953125 10.71679688 C23.97177648 12.47270844 26.98681989 14.23471216 30 16 C30.22334904 20.73194539 30.38615853 25.46079744 30.49438477 30.19677734 C30.53950884 31.80539397 30.60083129 33.41364414 30.67895508 35.02099609 C31.30794828 48.29974157 31.30794828 48.29974157 28.28173828 52.23364258 C25.92510214 53.82572119 23.62258546 54.90731848 21 56 C19.44153002 56.91676612 17.89431492 57.85295352 16.359375 58.80859375 C14.82515982 59.68881721 13.28869797 60.56513649 11.75 61.4375 C10.97398437 61.89576172 10.19796875 62.35402344 9.3984375 62.82617188 C8.64304688 63.25349609 7.88765625 63.68082031 7.109375 64.12109375 C6.43874023 64.5070874 5.76810547 64.89308105 5.07714844 65.29077148 C2.28406867 66.24444999 0.80854243 65.87806515 -2 65 C-3.93735837 64.02754362 -5.83688591 62.97780574 -7.703125 61.875 C-8.7653125 61.25109375 -9.8275 60.6271875 -10.921875 59.984375 C-12.02015625 59.32953125 -13.1184375 58.6746875 -14.25 58 C-15.36375 57.34515625 -16.4775 56.6903125 -17.625 56.015625 C-25.8234747 51.1765253 -25.8234747 51.1765253 -27 50 C-27.08847743 47.47905924 -27.11527301 44.98569107 -27.09765625 42.46484375 C-27.0962413 41.71159317 -27.09482635 40.95834259 -27.09336853 40.18226624 C-27.08775376 37.7673044 -27.07519883 35.35243399 -27.0625 32.9375 C-27.0574869 31.30403779 -27.05292366 29.67057414 -27.04882812 28.03710938 C-27.03777954 24.02470415 -27.02050506 20.01236759 -27 16 C-26.21761963 15.55084229 -25.43523926 15.10168457 -24.62915039 14.63891602 C-21.73421244 12.97595821 -18.84009701 11.31158703 -15.9465332 9.64624023 C-14.69263 8.92496561 -13.43839908 8.2042604 -12.18383789 7.48413086 C-10.38341747 6.450543 -8.58417519 5.41493106 -6.78515625 4.37890625 C-5.70113525 3.7557251 -4.61711426 3.13254395 -3.50024414 2.49047852 C-1.14058329 1.22234919 -1.14058329 1.22234919 0 0 Z " fill="#B0D852" transform="translate(206,341)"/>
<path d="M0 0 C3.81733703 1.68411928 7.34121672 3.7522696 10.8984375 5.92578125 C12.3643588 6.807665 13.83050226 7.68917959 15.296875 8.5703125 C15.94060059 8.9619458 16.58432617 9.3535791 17.24755859 9.75708008 C20.31469591 11.58479385 23.42344847 13.34185895 26.5234375 15.11328125 C26.5234375 26.00328125 26.5234375 36.89328125 26.5234375 48.11328125 C22.3159375 50.60890625 18.1084375 53.10453125 13.7734375 55.67578125 C12.4524707 56.46799072 11.13150391 57.2602002 9.77050781 58.07641602 C8.72475586 58.68799561 7.67900391 59.2995752 6.6015625 59.9296875 C5.53325195 60.56334229 4.46494141 61.19699707 3.36425781 61.84985352 C0.5234375 63.11328125 0.5234375 63.11328125 -1.60131836 62.94628906 C-3.65015244 62.03617034 -5.60485565 61.07031358 -7.55859375 59.96875 C-8.71004883 59.32389648 -8.71004883 59.32389648 -9.88476562 58.66601562 C-10.67818359 58.21548828 -11.47160156 57.76496094 -12.2890625 57.30078125 C-13.07087891 56.86185547 -13.85269531 56.42292969 -14.65820312 55.97070312 C-19.27715494 53.37374859 -23.87569851 50.74234639 -28.4765625 48.11328125 C-28.4765625 37.22328125 -28.4765625 26.33328125 -28.4765625 15.11328125 C-19.9765625 10.42578125 -19.9765625 10.42578125 -17.34960938 8.98168945 C-16.63869141 8.58812256 -15.92777344 8.19455566 -15.1953125 7.7890625 C-14.40640625 7.35287598 -13.6175 6.91668945 -12.8046875 6.46728516 C-10.5269095 5.14256234 -8.37416288 3.69879146 -6.1953125 2.21875 C-3.83499265 0.75078182 -2.80972376 0.12852049 0 0 Z " fill="#FB8E02" transform="translate(189.4765625,201.88671875)"/>
<path d="M0 0 C12.59109296 -0.25952386 24.9905256 0.62654769 37.53662109 1.65405273 C41.0200281 1.93913912 44.50405216 2.2153951 47.98828125 2.49023438 C50.22139488 2.66876224 52.45446933 2.84778108 54.6875 3.02734375 C55.71987793 3.10967758 56.75225586 3.19201141 57.81591797 3.27684021 C62.91063378 3.69614828 67.94966066 4.20580765 73 5 C73.10655578 11.44070471 72.96205088 17.62641289 72 24 C62.20434187 24.13531027 52.61042308 23.80256408 42.84765625 22.90625 C41.58150986 22.79526978 40.31536346 22.68428955 39.010849 22.56994629 C35.70127017 22.27869731 32.39225684 21.98189293 29.08343506 21.68218994 C25.68430473 21.37575389 22.28450759 21.07690376 18.88476562 20.77734375 C12.25588256 20.19174837 5.6277661 19.59809918 -1 19 C-0.67 12.73 -0.34 6.46 0 0 Z " fill="#90AFF1" transform="translate(293,274)"/>
<path d="M0 0 C0.54527344 0.37511719 1.09054687 0.75023437 1.65234375 1.13671875 C6.95305535 4.7339538 12.35048832 7.98158478 18 11 C16.70956193 14.87131421 15.0419408 15.68833851 11.75 18.0625 C10.66197696 18.85439343 9.57476712 19.64740512 8.48828125 20.44140625 C7.91932129 20.85535645 7.35036133 21.26930664 6.76416016 21.69580078 C4.95992587 23.0296258 3.18602252 24.39597641 1.41796875 25.77734375 C0.8362793 26.23165771 0.25458984 26.68597168 -0.34472656 27.15405273 C-1.47243709 28.03766106 -2.59815933 28.92381404 -3.72167969 29.81274414 C-6.15589408 31.70986532 -8.04395036 33.01465012 -11 34 C-11 42.25 -11 50.5 -11 59 C-13.63475698 55.48699069 -15.41502856 52.36428961 -17.3203125 48.44140625 C-17.62444061 47.81523911 -17.92856873 47.18907196 -18.24191284 46.54393005 C-18.88106364 45.22459404 -19.51799684 43.90418167 -20.15283203 42.58276367 C-21.12183489 40.56907743 -22.10146338 38.56080957 -23.08203125 36.55273438 C-23.7037758 35.26593924 -24.32489079 33.9788397 -24.9453125 32.69140625 C-25.50750488 31.52810791 -26.06969727 30.36480957 -26.64892578 29.16625977 C-27.83478991 26.38717197 -28.55836345 23.97459308 -29 21 C-27.9996875 20.46246094 -26.999375 19.92492187 -25.96875 19.37109375 C-21.80602852 16.9913488 -18.18961987 14.1092892 -14.5 11.0625 C-9.77711964 7.19168569 -5.00464918 3.50196457 0 0 Z " fill="#6864F6" transform="translate(400,368)"/>
<path d="M0 0 C0.33 0 0.66 0 1 0 C1 11.55 1 23.1 1 35 C5.95 36.485 5.95 36.485 11 38 C13.09052627 38.78811342 15.16898421 39.60995486 17.2265625 40.48046875 C18.27714844 40.92197266 19.32773437 41.36347656 20.41015625 41.81835938 C21.47105469 42.27017578 22.53195312 42.72199219 23.625 43.1875 C25.27435547 43.88262695 25.27435547 43.88262695 26.95703125 44.59179688 C29.63998883 45.72330507 32.32088144 46.85943902 35 48 C35 51 35 51 34 53 C33.7677354 55.71262116 33.58063765 58.40773126 33.4375 61.125 C33.37272461 62.25615234 33.37272461 62.25615234 33.30664062 63.41015625 C33.2005168 65.27321888 33.09974999 67.13658524 33 69 C28.8049165 68.32505943 25.16113826 66.96468924 21.23828125 65.34765625 C20.60641403 65.08746201 19.97454681 64.82726776 19.3235321 64.55918884 C17.99559668 64.01087386 16.66860873 63.4602592 15.3425293 62.9074707 C13.31131335 62.06200607 11.27605842 61.22687594 9.24023438 60.39257812 C7.94766174 59.85738611 6.65533516 59.32159937 5.36328125 58.78515625 C4.19063721 58.29926025 3.01799316 57.81336426 1.80981445 57.31274414 C-1 56 -1 56 -3 54 C-2.34 53.34 -1.68 52.68 -1 52 C-0.66898466 49.69661198 -0.66898466 49.69661198 -0.68115234 46.99951172 C-0.66128265 45.95858368 -0.64141296 44.91765564 -0.62094116 43.84518433 C-0.60938995 42.71807037 -0.59783875 41.59095642 -0.5859375 40.4296875 C-0.56657135 39.27832306 -0.5472052 38.12695862 -0.5272522 36.94070435 C-0.46732628 33.25221231 -0.42101874 29.56368928 -0.375 25.875 C-0.33683223 23.37889241 -0.29778122 20.88279815 -0.2578125 18.38671875 C-0.16161412 12.25793063 -0.07660494 6.12906262 0 0 Z " fill="#6A67F3" transform="translate(350,122)"/>
<path d="M0 0 C2.13232066 4.26464132 2.14723539 9.52511725 2.78442383 14.21142578 C3.05963747 16.22901484 3.34288588 18.24535959 3.62695312 20.26171875 C3.80291016 21.54175781 3.97886719 22.82179688 4.16015625 24.140625 C4.32136963 25.31141602 4.48258301 26.48220703 4.64868164 27.68847656 C4.98123258 30.82309845 5.06428562 33.85090162 5 37 C3.741875 37.04125 2.48375 37.0825 1.1875 37.125 C-3.09549355 37.56647584 -6.09289367 38.93135232 -9.82421875 41.0546875 C-11.28541138 41.87815674 -11.28541138 41.87815674 -12.77612305 42.71826172 C-13.51000244 43.14123535 -14.24388184 43.56420898 -15 44 C-15.67729549 39.52237431 -16.33990223 35.04269063 -17 30.5625 C-17.19078125 29.30244141 -17.3815625 28.04238281 -17.578125 26.74414062 C-18.55171563 20.08547616 -19.23431482 13.72922871 -19 7 C-18.35933594 6.82984375 -17.71867187 6.6596875 -17.05859375 6.484375 C-11.97342849 5.05961931 -4.84790899 0 0 0 Z " fill="#6965F5" transform="translate(449,249)"/>
<path d="M0 0 C3.53391293 1.42952946 5.00166375 3.56213375 6.90234375 6.76953125 C7.72121798 11.35522691 7.27541931 13.15904397 4.83984375 17.14453125 C1.34010251 20.27195959 -0.4349926 20.8527931 -5.09765625 20.76953125 C-8.72099899 19.20490598 -11.39419284 17.36573179 -13.09765625 13.76953125 C-13.41198856 9.87327256 -13.14157688 6.36421 -10.96484375 3.0390625 C-7.54622718 -0.29548973 -4.47213068 -0.91846062 0 0 Z " fill="#6965F6" transform="translate(274.09765625,462.23046875)"/>
<path d="M0 0 C2.84578139 1.23729626 4.42813811 2.2981695 6.375 4.6875 C7.3485867 8.28977078 7.17711224 11.50328422 6 15 C2.90872317 18.53288781 1.08505904 19.82867489 -3.5625 20.5625 C-7.52374737 19.91429589 -9.18799374 18.81200626 -12 16 C-13.74465448 12.51069104 -13.56450552 8.80713023 -13 5 C-9.56254845 -0.26359769 -5.89263092 -1.09741305 0 0 Z " fill="#6965F6" transform="translate(321,491)"/>
<path d="M0 0 C2.5642661 1.79969134 3.35119499 3.1810753 5 6 C5.59626815 9.65214239 5.27796555 11.41759598 3.6875 14.75 C1.75631717 17.32491044 0.13105539 18.77971955 -3.0859375 19.40625 C-7.6328594 19.59247206 -9.41365613 19.47864806 -13.0625 16.5 C-15.71025581 12.61110865 -15.65676891 9.59738237 -15 5 C-10.94853969 -1.34728783 -7.01605559 -1.95965691 0 0 Z " fill="#6A66F7" transform="translate(370,475)"/>
<path d="M0 0 C1.80770833 2.7115625 2.38422836 4.00357174 3.03515625 7.0546875 C3.20466797 7.83457031 3.37417969 8.61445313 3.54882812 9.41796875 C3.71833984 10.22878906 3.88785156 11.03960937 4.0625 11.875 C4.32256836 13.07962891 4.32256836 13.07962891 4.58789062 14.30859375 C5.42436102 18.1993028 6.23320919 22.0949004 7 26 C2.41105799 25.32930848 -1.92547207 24.23877704 -6.375 22.9375 C-7.62023437 22.57527344 -8.86546875 22.21304687 -10.1484375 21.83984375 C-11.08945312 21.56269531 -12.03046875 21.28554688 -13 21 C-11.3518456 15.96617902 -8.39351949 11.9739509 -5.375 7.6875 C-4.859375 6.94693359 -4.34375 6.20636719 -3.8125 5.44335938 C-2.54605274 3.62577303 -1.27514241 1.81149162 0 0 Z " fill="#CFDAFB" transform="translate(285,398)"/>
<path d="M0 0 C2.97 0.99 5.94 1.98 9 3 C9 7.00645044 8.91644529 7.62115433 6.8125 10.671875 C6.36132812 11.33574219 5.91015625 11.99960937 5.4453125 12.68359375 C4.96835937 13.36550781 4.49140625 14.04742187 4 14.75 C3.52304687 15.44738281 3.04609375 16.14476562 2.5546875 16.86328125 C1.37803398 18.5811954 0.19009199 20.29136792 -1 22 C-1.99 21.34 -2.98 20.68 -4 20 C-3.34 19.34 -2.68 18.68 -2 18 C-0.72086124 14.37436166 -0.68438675 10.5591099 -0.4375 6.75 C-0.31181641 4.85507812 -0.31181641 4.85507812 -0.18359375 2.921875 C-0.12300781 1.95765625 -0.06242187 0.9934375 0 0 Z " fill="#6764F3" transform="translate(257,384)"/>
</svg>
