<?xml version="1.0" encoding="UTF-8"?>
<svg version="1.1" xmlns="http://www.w3.org/2000/svg" width="640" height="640">
<path d="M0 0 C211.2 0 422.4 0 640 0 C640 211.2 640 422.4 640 640 C428.8 640 217.6 640 0 640 C0 428.8 0 217.6 0 0 Z " fill="#FEFEFE" transform="translate(0,0)"/>
<path d="M0 0 C4.06818621 1.76047144 7.74953733 4.02296893 11.5 6.375 C13.61966632 7.66296674 15.73945883 8.9507258 17.859375 10.23828125 C18.89642578 10.87717285 19.93347656 11.51606445 21.00195312 12.17431641 C23.71164848 13.82440614 26.44251973 15.41752654 29.203125 16.98046875 C29.97849609 17.42148926 30.75386719 17.86250977 31.55273438 18.31689453 C32.97264995 19.12182889 34.39563984 19.92137474 35.82226562 20.71435547 C39.83111698 23.02487067 42.63810914 25.0022013 45 29 C45.28339558 32.39147083 44.89331596 35.68789434 44.5546875 39.06640625 C42.08245168 60.63938095 42.08245168 60.63938095 48.89355469 80.18310547 C56.06387975 87.44018286 66.23417609 93.11497078 76 96 C80.34510829 95.78291158 83.61000882 93.76135028 87.359375 91.65625 C87.9492218 91.32709595 88.5390686 90.99794189 89.14678955 90.65881348 C90.38560345 89.96597116 91.62261984 89.26990606 92.85791016 88.57080078 C94.75443373 87.49749079 96.65592705 86.4334691 98.55859375 85.37109375 C104.10663812 82.61933413 104.10663812 82.61933413 109 79 C117.50825332 77.97970133 122.40762966 80.92715533 129.5 85.375 C131.61966632 86.66296674 133.73945883 87.9507258 135.859375 89.23828125 C136.89642578 89.87717285 137.93347656 90.51606445 139.00195312 91.17431641 C141.71164848 92.82440614 144.44251973 94.41752654 147.203125 95.98046875 C147.97849609 96.42148926 148.75386719 96.86250977 149.55273438 97.31689453 C150.97264995 98.12182889 152.39563984 98.92137474 153.82226562 99.71435547 C157.85430068 102.03823267 160.61674327 103.98930849 163 108 C163.59672946 111.8102776 163.56036062 115.58329816 163.53125 119.43359375 C163.5350769 120.54428726 163.53890381 121.65498077 163.54284668 122.79933167 C163.54556535 125.14528308 163.53820745 127.49126482 163.52148438 129.8371582 C163.50009592 133.4214263 163.52127881 137.00368521 163.546875 140.58789062 C163.54423132 142.86979608 163.53910552 145.15170029 163.53125 147.43359375 C163.53934692 148.50250351 163.54744385 149.57141327 163.55578613 150.67271423 C163.4815495 156.58677087 163.18387532 160.45236765 159 165 C156.56494141 166.83935547 156.56494141 166.83935547 153.8515625 168.3671875 C152.85205566 168.93743652 151.85254883 169.50768555 150.82275391 170.09521484 C149.76749512 170.68254395 148.71223633 171.26987305 147.625 171.875 C146.01310791 172.81593506 146.01310791 172.81593506 144.36865234 173.77587891 C139.7954697 176.4269893 135.33451294 178.99064679 130.375 180.84375 C126.49520005 182.36189063 123.77123192 183.75190025 121 187 C118.58794056 194.72671373 118.92137638 202.9908736 119 211 C118.97876988 212.7083999 118.95315656 214.41675458 118.921875 216.125 C118.87109681 219.75290631 118.90398038 223.3725921 119 227 C119.65484375 227.3623877 120.3096875 227.72477539 120.984375 228.09814453 C123.99301437 229.76766316 126.99650124 231.44625221 130 233.125 C131.54494141 233.97964844 131.54494141 233.97964844 133.12109375 234.8515625 C148.20365466 243.30548199 148.20365466 243.30548199 152 249 C152.28088379 251.24981689 152.28088379 251.24981689 152.32226562 253.91113281 C152.34148071 254.90937073 152.3606958 255.90760864 152.38049316 256.93609619 C152.3932428 258.55327545 152.3932428 258.55327545 152.40625 260.203125 C152.41765015 261.31427673 152.42905029 262.42542847 152.4407959 263.57025146 C152.45969947 265.92391143 152.47276531 268.27762438 152.48046875 270.63134766 C152.49985226 274.22262726 152.56187477 277.81160313 152.625 281.40234375 C152.63806345 283.69009058 152.64856307 285.97785378 152.65625 288.265625 C152.6809436 289.33564758 152.70563721 290.40567017 152.7310791 291.50811768 C152.70122624 296.53572019 152.53132456 300.04966907 149.27709961 304.03271484 C146.72197552 306.54334401 144.07288981 308.5072946 140.91015625 310.2109375 C139.9680127 310.72946289 139.02586914 311.24798828 138.05517578 311.78222656 C137.06759277 312.3078418 136.08000977 312.83345703 135.0625 313.375 C132.99755263 314.50050548 130.93375078 315.62811511 128.87109375 316.7578125 C127.86804199 317.30469727 126.86499023 317.85158203 125.83154297 318.41503906 C123.33006335 319.81524649 120.89444523 321.27204974 118.47265625 322.8046875 C117.81193115 323.22186035 117.15120605 323.6390332 116.47045898 324.06884766 C114.75723689 325.16536419 113.05395345 326.27736695 111.3515625 327.390625 C107.07069421 329.44624008 103.76912651 330.58412415 99 330 C94.60402299 328.27436499 90.66085837 325.93711254 86.625 323.5 C85.56539063 322.88640625 84.50578125 322.2728125 83.4140625 321.640625 C79.18159062 319.17168307 74.99961996 316.67427346 70.93652344 313.93359375 C69.97520508 313.28519531 69.01388672 312.63679688 68.0234375 311.96875 C67.17442871 311.37513672 66.32541992 310.78152344 65.45068359 310.16992188 C62.4233072 308.72469497 61.14475172 308.96985025 58 310 C55.56199744 311.14101803 53.18944526 312.30820809 50.8125 313.5625 C44.25366928 317 44.25366928 317 42 317 C47.61187866 328.99091122 53.38003591 340.88440687 59.5 352.625 C60.06783203 353.71538574 60.63566406 354.80577148 61.22070312 355.92919922 C63.53665026 360.37102524 65.8549141 364.81163339 68.17736816 369.25006104 C70.7440665 374.1560015 73.30163001 379.06654457 75.84936523 383.98236084 C76.6890092 385.59837417 77.53186343 387.21272424 78.37817383 388.82525635 C87.13271585 405.51060409 93.46179639 420.07777422 88.04296875 439.18359375 C83.52679571 451.37895242 75.12159347 460.73782686 63.375 466.2265625 C55.11460116 469.64381083 47.94534321 470.19382726 39.0625 470.1875 C37.86375244 470.18669434 36.66500488 470.18588867 35.42993164 470.18505859 C25.65695722 470.12043341 15.96294267 469.57047922 6.21923828 468.85009766 C-3.65512271 468.12728 -13.52774706 467.61867454 -23.41864014 467.18066406 C-38.77317895 466.49441185 -54.12541422 465.73566657 -69.4670105 464.80221558 C-71.4241283 464.68545645 -73.38159679 464.57441399 -75.33938599 464.46951294 C-91.77161524 463.58094393 -105.25243896 461.36243502 -117.10546875 448.76171875 C-125.83498733 437.98476511 -130.23070622 425.91911406 -129 412 C-127.0816303 397.70728163 -119.08467542 386.89424441 -111.1875 375.1875 C-110.43189181 374.05940422 -109.67678214 372.9309744 -108.92211914 371.80224609 C-104.5894604 365.32635776 -100.2348833 358.86537646 -95.87419128 352.40834045 C-93.4829462 348.86388087 -91.09826995 345.31502881 -88.71450806 341.76553345 C-87.53298826 340.00986186 -86.34841036 338.2562443 -85.16073608 336.50473022 C-83.48387761 334.03148235 -81.81715494 331.55167984 -80.15234375 329.0703125 C-79.64588318 328.3286937 -79.13942261 327.58707489 -78.61761475 326.82298279 C-76.2362621 323.25227467 -74.39151439 320.38990213 -74 316 C-74.67675781 315.76667969 -75.35351562 315.53335937 -76.05078125 315.29296875 C-79.73212766 313.67902748 -82.87444881 311.57101584 -86.1875 309.3125 C-87.1772583 308.64963989 -87.1772583 308.64963989 -88.18701172 307.97338867 C-92.86029346 304.82959634 -97.40344284 301.53907864 -101.8515625 298.08203125 C-104.74628735 296.62414255 -105.89778162 297.11290805 -109 298 C-111.15993242 299.11777112 -113.27951612 300.31496301 -115.3671875 301.5625 C-116.5949238 302.28407248 -117.82279254 303.00541966 -119.05078125 303.7265625 C-120.96418374 304.86155695 -122.87528859 306.0001729 -124.78369141 307.14355469 C-126.63913243 308.25155224 -128.50253701 309.34509305 -130.3671875 310.4375 C-131.47175293 311.09621094 -132.57631836 311.75492187 -133.71435547 312.43359375 C-137.33430047 314.15937523 -139.99120297 314.88381528 -144 315 C-147.01928711 313.89526367 -147.01928711 313.89526367 -150.02734375 312.16796875 C-151.69978149 311.2241333 -151.69978149 311.2241333 -153.40600586 310.26123047 C-154.58365822 309.57081809 -155.76081447 308.87955888 -156.9375 308.1875 C-158.1471931 307.49247663 -159.35756537 306.79863407 -160.56860352 306.10595703 C-164.06230709 304.09812799 -167.5323906 302.05256439 -171 300 C-172.36318359 299.20021729 -172.36318359 299.20021729 -173.75390625 298.38427734 C-175.99230704 297.0643215 -178.21863547 295.72748385 -180.4375 294.375 C-181.37420532 293.81075317 -181.37420532 293.81075317 -182.32983398 293.23510742 C-186.08137735 290.87694904 -188.72354638 288.81121911 -191 285 C-191.6003663 281.10584745 -191.56031287 277.24625357 -191.53125 273.3125 C-191.5350769 272.17723877 -191.53890381 271.04197754 -191.54284668 269.87231445 C-191.54556537 267.47508862 -191.53820731 265.07783311 -191.52148438 262.68066406 C-191.50007587 259.01299858 -191.52128935 255.34729211 -191.546875 251.6796875 C-191.54423172 249.34895401 -191.53910674 247.01822174 -191.53125 244.6875 C-191.53934692 243.59155518 -191.54744385 242.49561035 -191.55578613 241.36645508 C-191.46303774 233.82983363 -191.46303774 233.82983363 -189.3203125 229.98974609 C-186.77244438 227.8048634 -184.27118369 226.12241175 -181.34375 224.4765625 C-180.23773438 223.8475 -179.13171875 223.2184375 -177.9921875 222.5703125 C-176.83976563 221.92835938 -175.68734375 221.28640625 -174.5 220.625 C-171.11366661 218.70997008 -167.72835419 216.79458917 -164.35644531 214.85424805 C-161 213 -161 213 -157.54199219 211.40551758 C-151.4793827 208.57561095 -151.4793827 208.57561095 -147.875 203.24023438 C-147.35989294 199.92319413 -147.23452635 196.79334763 -147.25 193.4375 C-147.20875 192.34630859 -147.1675 191.25511719 -147.125 190.13085938 C-147.01372481 186.75087549 -146.99430607 183.38171836 -147 180 C-146.99677734 178.69305176 -146.99355469 177.38610352 -146.99023438 176.03955078 C-146.98517972 172.6929479 -146.98864389 169.34658116 -147 166 C-147.78648926 165.57178955 -148.57297852 165.1435791 -149.38330078 164.70239258 C-152.32714787 163.09549388 -155.26761268 161.48271358 -158.20605469 159.8659668 C-159.473323 159.17025907 -160.74185751 158.47685225 -162.01171875 157.78588867 C-163.84721191 156.78661272 -165.67784167 155.77887721 -167.5078125 154.76953125 C-168.60754395 154.16729736 -169.70727539 153.56506348 -170.84033203 152.94458008 C-179.05575088 147.88849824 -179.05575088 147.88849824 -181 144 C-181.12593726 142.30673632 -181.19037204 140.60872813 -181.22460938 138.91113281 C-181.24712769 137.84952942 -181.269646 136.78792603 -181.29284668 135.69415283 C-181.36374291 130.83198031 -181.42136934 125.96996298 -181.45996094 121.10742188 C-181.48658128 118.54277892 -181.52752019 115.97824331 -181.58300781 113.4140625 C-181.66206645 109.71830932 -181.69525879 106.02459941 -181.71875 102.328125 C-181.75174194 101.18418274 -181.78473389 100.04024048 -181.81872559 98.8616333 C-181.79920998 91.09427636 -181.79920998 91.09427636 -179.52932739 87.98635864 C-177.75410866 86.42599884 -176.03486791 85.19678154 -174 84 C-173.32570953 83.58615051 -172.65141907 83.17230103 -171.95669556 82.74591064 C-169.96097401 81.55523861 -167.92935433 80.46121564 -165.875 79.375 C-164.2932398 78.52274413 -162.71255704 77.66848633 -161.1328125 76.8125 C-160.30426758 76.36390625 -159.47572266 75.9153125 -158.62207031 75.453125 C-155.84065923 73.91169495 -153.10261255 72.30904871 -150.3671875 70.6875 C-149.43148926 70.13658691 -148.49579102 69.58567383 -147.53173828 69.01806641 C-145.70920493 67.94156566 -143.89221112 66.85561786 -142.08154297 65.75927734 C-141.24510254 65.2689502 -140.40866211 64.77862305 -139.546875 64.2734375 C-138.81307617 63.83435059 -138.07927734 63.39526367 -137.32324219 62.94287109 C-133.30755455 61.31313322 -130.21914052 61.48726927 -126.24609375 63.15820312 C-125.31925781 63.69380859 -124.39242187 64.22941406 -123.4375 64.78125 C-122.39956299 65.37292969 -121.36162598 65.96460938 -120.29223633 66.57421875 C-119.20579834 67.20972656 -118.11936035 67.84523438 -117 68.5 C-115.88455811 69.13550781 -114.76911621 69.77101563 -113.61987305 70.42578125 C-108.85781499 73.14557246 -104.12407625 75.90123891 -99.45703125 78.78125 C-98.82474609 79.16474609 -98.19246094 79.54824219 -97.54101562 79.94335938 C-95.93893941 80.92270766 -94.35342635 81.92901224 -92.76953125 82.9375 C-89.05476333 84.36262958 -87.66657052 83.43636568 -84 82 C-81.76831832 80.95184741 -79.55554447 79.86284206 -77.359375 78.7421875 C-76.75111877 78.43427277 -76.14286255 78.12635803 -75.51617432 77.80911255 C-73.59211296 76.83496102 -71.67076161 75.85563997 -69.75 74.875 C-67.20541274 73.57616075 -64.65824792 72.28259211 -62.109375 70.9921875 C-60.98499023 70.41839355 -59.86060547 69.84459961 -58.70214844 69.25341797 C-56 68 -56 68 -54 68 C-54.02618408 66.84999512 -54.05236816 65.69999023 -54.0793457 64.51513672 C-54.17011176 60.23262119 -54.22734469 55.95019001 -54.2746582 51.66699219 C-54.29974245 49.81626062 -54.33381845 47.96562753 -54.37719727 46.11523438 C-54.43811995 43.44897117 -54.46626991 40.78402175 -54.48828125 38.1171875 C-54.51408768 37.29507782 -54.5398941 36.47296814 -54.56648254 35.62594604 C-54.56842819 31.60560959 -54.33336181 28.86516086 -51.80883789 25.63842773 C-49.1408822 23.13233498 -46.78261288 21.39545387 -43.5703125 19.66796875 C-42.01666992 18.8174292 -42.01666992 18.8174292 -40.43164062 17.94970703 C-38.79485352 17.07741455 -38.79485352 17.07741455 -37.125 16.1875 C-34.86588881 14.96202647 -32.60807077 13.73416603 -30.3515625 12.50390625 C-29.26004883 11.90980957 -28.16853516 11.31571289 -27.04394531 10.70361328 C-24.41938672 9.23471932 -21.86927831 7.70915702 -19.3359375 6.08984375 C-18.67319824 5.66743408 -18.01045898 5.24502441 -17.32763672 4.80981445 C-15.63604331 3.71319372 -13.95799765 2.59575086 -12.28125 1.4765625 C-7.91909333 -0.486408 -4.69999137 -0.98331192 0 0 Z " fill="#082C76" transform="translate(334,91)"/>
<path d="M0 0 C1.76715714 1.1096103 3.53095386 2.22617585 5.25585938 3.40039062 C9.04507148 5.89025585 13.00385526 8.08784111 16.93554688 10.34326172 C21.07448652 12.72431053 25.18401067 15.15344887 29.29199219 17.58740234 C33.3130925 19.93230317 35.77443531 20.18677524 40.5 19.875 C43.5694692 18.69221301 43.5694692 18.69221301 46.4765625 16.91796875 C47.559375 16.29986328 48.6421875 15.68175781 49.7578125 15.04492188 C50.86898437 14.39072266 51.98015625 13.73652344 53.125 13.0625 C54.24390625 12.41990234 55.3628125 11.77730469 56.515625 11.11523438 C62.36648671 7.79407556 62.36648671 7.79407556 67.98193359 4.1027832 C71.32288179 2.47377133 72.96834963 2.83329636 76.5 3.875 C79.08959961 5.28613281 79.08959961 5.28613281 81.65234375 7.078125 C82.59400391 7.72910156 83.53566406 8.38007813 84.50585938 9.05078125 C85.47330078 9.73527344 86.44074219 10.41976562 87.4375 11.125 C88.40107422 11.79402344 89.36464844 12.46304688 90.35742188 13.15234375 C93.08080393 15.04735601 95.79388327 16.95542362 98.5 18.875 C99.1138707 19.1961377 99.72774139 19.51727539 100.36021423 19.84814453 C103.32542104 21.54188945 105.17752357 22.71230631 106.1164093 26.09747314 C106.34169523 28.91125925 106.33838103 31.64697896 106.26171875 34.46875 C106.26452347 35.49303101 106.26732819 36.51731201 106.2702179 37.57263184 C106.27549363 40.84115816 106.23488897 44.10684505 106.1875 47.375 C106.1559918 50.64271282 106.13472322 53.9094983 106.13691711 57.17736816 C106.1367873 59.2086454 106.11657176 61.24004508 106.07389832 63.27087402 C106.0608476 67.46703214 106.07457652 70.12361965 108.16967773 73.82397461 C110.71078621 76.06052278 113.17047831 77.67332916 116.1484375 79.28515625 C117.23640625 79.88263672 118.324375 80.48011719 119.4453125 81.09570312 C120.57710937 81.70349609 121.70890625 82.31128906 122.875 82.9375 C126.16746899 84.72910153 129.45580051 86.52471477 132.72558594 88.35742188 C135.35555395 89.85034549 135.35555395 89.85034549 137.62597656 90.79882812 C139.2890625 91.59765625 139.2890625 91.59765625 141.5 93.875 C142.13399698 97.71483053 141.83419881 101.38785237 141.5 105.25 C141.42023926 106.32967041 141.34047852 107.40934082 141.25830078 108.52172852 C141.09308817 110.66900941 140.91514157 112.81535368 140.72363281 114.96044922 C140.53551192 117.41218196 140.46738445 119.79781379 140.4921875 122.25390625 C140.37009965 125.96130736 140.06805973 128.51020516 138.5 131.875 C134.71731927 135.25802249 130.59233558 137.35161818 126.05908203 139.57617188 C120.86044876 142.2146692 115.85353634 145.20024421 110.8125 148.125 C109.7611084 148.71603516 108.7097168 149.30707031 107.62646484 149.91601562 C106.63211426 150.48513672 105.63776367 151.05425781 104.61328125 151.640625 C103.72423096 152.14368164 102.83518066 152.64673828 101.91918945 153.16503906 C98.53241697 155.55891881 95.91504605 157.64108407 95.12361145 161.90084839 C94.94092917 164.38545236 94.89413916 166.84074007 94.890625 169.33203125 C94.87408875 170.23499435 94.85755249 171.13795746 94.84051514 172.06828308 C94.79207943 174.94142489 94.77067412 177.81403757 94.75 180.6875 C94.7218366 182.64000051 94.69190865 184.59247643 94.66015625 186.54492188 C94.58632163 191.32157102 94.53671993 196.09792719 94.5 200.875 C91.40034597 202.3844588 88.29458597 203.88090667 85.1875 205.375 C83.86588867 206.01888672 83.86588867 206.01888672 82.51757812 206.67578125 C81.67001953 207.08183594 80.82246094 207.48789062 79.94921875 207.90625 C78.77879028 208.47182617 78.77879028 208.47182617 77.5847168 209.04882812 C75.5 209.875 75.5 209.875 72.5 209.875 C71.01490051 206.90480102 71.35907912 203.8917769 71.3828125 200.63671875 C71.38850754 199.51568001 71.38850754 199.51568001 71.39431763 198.37199402 C71.47190592 189.42277249 71.74659728 180.48678863 72.23242188 171.55053711 C72.32841258 169.62299775 72.40520154 167.69441703 72.46386719 165.76538086 C72.96952852 149.57470315 72.96952852 149.57470315 76.77636719 145.34692383 C79.31535787 143.8526842 81.74612172 142.88880603 84.5 141.875 C91.94695145 133.12483205 91.11853773 117.72103958 90.8125 106.64453125 C90.2638638 100.02660712 88.47194551 96.76011268 83.75 92.24609375 C80.62490945 89.73257802 78.16405151 89.08031393 74.125 88.6875 C73.46927002 88.62054932 72.81354004 88.55359863 72.13793945 88.48461914 C69.59378053 88.24428961 67.04911539 88.05576402 64.5 87.875 C62.73487061 87.7497998 62.73487061 87.7497998 60.93408203 87.62207031 C52.68774911 87.0544882 44.43857043 86.55427104 36.18603516 86.08642578 C33.11671316 85.9103738 30.04857813 85.72308106 26.98046875 85.52734375 C22.48861166 85.24816011 17.99728724 85.04277445 13.5 84.875 C12.57944824 84.83568359 11.65889648 84.79636719 10.71044922 84.75585938 C7.74453528 84.64056442 4.77989711 84.56546091 1.8125 84.5 C0.90290527 84.46181152 -0.00668945 84.42362305 -0.94384766 84.38427734 C-7.40301109 84.30394247 -11.53451078 85.70352708 -16.5 89.875 C-23.83404325 97.36282157 -22.73017575 109.30915761 -22.9375 119.1875 C-22.97198242 120.11812256 -23.00646484 121.04874512 -23.04199219 122.00756836 C-23.08088409 128.40471509 -21.89508262 133.06422629 -17.5 137.875 C-16.24626055 138.63318123 -14.97467672 139.36258751 -13.6875 140.0625 C-11.87158203 141.2590332 -11.87158203 141.2590332 -10.5 142.875 C-10.15576172 145.35620117 -10.15576172 145.35620117 -10.2421875 148.41796875 C-10.27111084 149.58207275 -10.30003418 150.74617676 -10.32983398 151.94555664 C-10.41406616 153.8906311 -10.41406616 153.8906311 -10.5 155.875 C-10.54400436 156.91163284 -10.54400436 156.91163284 -10.58889771 157.96920776 C-10.78868813 162.52585514 -11.03380547 167.07908535 -11.29956055 171.63232422 C-11.43769571 174.00335926 -11.56986093 176.37467195 -11.70117188 178.74609375 C-11.90981163 182.46931092 -12.13684643 186.19100657 -12.37692261 189.912323 C-12.48899275 191.69947087 -12.58624715 193.48753223 -12.68188477 195.27563477 C-13.2464857 203.82316473 -13.2464857 203.82316473 -16.5625 207.5625 C-17.38427734 208.52736328 -17.38427734 208.52736328 -18.22265625 209.51171875 C-18.85494141 210.18654297 -18.85494141 210.18654297 -19.5 210.875 C-23.98662598 209.32259329 -27.7263986 206.90008236 -31.625 204.25 C-32.22570312 203.84910156 -32.82640625 203.44820312 -33.4453125 203.03515625 C-34.73780835 202.16541425 -36.0122087 201.26837406 -37.27050781 200.34985352 C-39.53670168 198.76415024 -39.53670168 198.76415024 -42.40917969 197.57006836 C-46.0439131 195.66662205 -48.05295087 194.20106546 -50.5 190.875 C-52.43122169 183.39693533 -51.72021092 175.33604268 -51.5 167.6875 C-51.45137806 164.51142805 -51.4183248 161.33597802 -51.3996582 158.15959167 C-51.38354494 156.18935667 -51.34776291 154.21915805 -51.28979492 152.24971008 C-51.12956464 145.52429795 -51.12956464 145.52429795 -54.5 139.875 C-57.37604465 137.7921282 -57.37604465 137.7921282 -60.77734375 135.9921875 C-61.38510147 135.65124054 -61.99285919 135.31029358 -62.61903381 134.95901489 C-64.55214382 133.87737628 -66.4941725 132.81315275 -68.4375 131.75 C-70.37523017 130.67640251 -72.31092066 129.5992657 -74.24525452 128.51956177 C-76.00102899 127.54165434 -77.76198307 126.57306377 -79.52319336 125.60498047 C-84.82576926 122.52337194 -84.82576926 122.52337194 -86.5 120.875 C-86.87817383 118.56933594 -86.87817383 118.56933594 -86.70703125 115.859375 C-86.65514648 114.86228516 -86.60326172 113.86519531 -86.54980469 112.83789062 C-86.47149414 111.77763672 -86.39318359 110.71738281 -86.3125 109.625 C-86.16740676 107.44274563 -86.02287481 105.26045386 -85.87890625 103.078125 C-85.76699951 101.48387695 -85.76699951 101.48387695 -85.65283203 99.85742188 C-85.5210434 97.28564888 -85.52711662 94.80355098 -85.65234375 92.234375 C-85.87768037 83.32907182 -85.87768037 83.32907182 -82.45703125 79.71875 C-79.70891725 77.96826443 -76.9177152 76.51098384 -73.97802734 75.11132812 C-69.08771957 72.67147408 -64.38541881 69.88083899 -59.65524292 67.14697266 C-57.89428448 66.13607052 -56.12440585 65.14266346 -54.35180664 64.15234375 C-53.25344482 63.52972656 -52.15508301 62.90710938 -51.0234375 62.265625 C-50.03263184 61.70907227 -49.04182617 61.15251953 -48.02099609 60.57910156 C-45.33592459 58.764091 -43.96210801 57.76492671 -42.5 54.875 C-42.04341351 51.90220795 -42.01133834 48.95683394 -41.98828125 45.953125 C-41.97033005 45.09313904 -41.95237885 44.23315308 -41.93388367 43.34710693 C-41.87979962 40.60645416 -41.84589137 37.86597535 -41.8125 35.125 C-41.77932521 33.26429872 -41.7448354 31.40362039 -41.70898438 29.54296875 C-41.62407431 24.98710472 -41.55725416 20.43129212 -41.5 15.875 C-36.92477308 13.44602244 -32.34325927 11.0323615 -27.73828125 8.66015625 C-24.45824247 6.95223892 -21.29315673 5.1595898 -18.16796875 3.18359375 C-11.92912596 -0.63928591 -7.16119289 -3.4294253 0 0 Z " fill="#FDFEFE" transform="translate(292.5,180.125)"/>
<path d="M0 0 C14.19 0.66 28.38 1.32 43 2 C43 20.35429616 43 20.35429616 42.5625 27.77734375 C42.51810791 28.59900528 42.47371582 29.42066681 42.42797852 30.26722717 C42.28937958 32.82422829 42.14518859 35.38086535 42 37.9375 C41.85551061 40.51915684 41.71235529 43.10086833 41.57202148 45.68275452 C41.48555327 47.27016623 41.39672076 48.85745189 41.30493164 50.44456482 C41.22464435 51.90525435 41.1542477 53.36652426 41.09420776 54.82818604 C41.03062926 56.29388986 40.93988855 57.75863218 40.82400513 59.22113037 C40.49551925 65.55040013 42.32443692 69.85823354 45.2421875 75.3984375 C45.68458771 76.27287506 46.12698792 77.14731262 46.58279419 78.04824829 C47.99677096 80.83276486 49.43536488 83.60367819 50.875 86.375 C51.80371338 88.19578408 52.73081007 90.01739372 53.65625 91.83984375 C58.55500577 101.45675103 63.57319791 111.0103406 68.61361694 120.55355835 C71.65964788 126.32859644 74.61547682 132.14249262 77.5 138 C80.96589763 144.99177601 84.52047461 151.92424724 88.1875 158.8125 C89.80039751 161.87048463 91.40292673 164.93372479 93 168 C93.39944824 168.76248047 93.79889648 169.52496094 94.21044922 170.31054688 C103.02251101 187.30652676 103.02251101 187.30652676 101 195 C97.75159509 203.5697219 93.49182163 210.0709482 85 214 C74.66077369 218.13569052 61.92043054 215.9250822 51.04296875 215.23046875 C49.71147127 215.1487085 48.37994779 215.06737089 47.04840088 214.98641968 C43.49602241 214.76958982 39.94393459 214.54834704 36.39191818 214.32567215 C29.64177291 213.90257544 22.89133477 213.4843017 16.140625 213.0703125 C15.38328505 213.02372812 14.62594509 212.97714375 13.84565544 212.92914772 C3.06196192 212.26872854 -7.72210838 211.71353688 -18.515625 211.2421875 C-21.08489092 211.12500463 -23.65414577 211.0075789 -26.22338867 210.88989258 C-29.86054229 210.72374217 -33.49715076 210.56490054 -37.13565063 210.4312439 C-40.46791518 210.3085754 -43.79800712 210.15879232 -47.12890625 210.00390625 C-48.08955994 209.97678558 -49.05021362 209.94966492 -50.03997803 209.92172241 C-58.376896 209.4902726 -65.65892068 206.83387132 -71.4375 200.625 C-76.05854647 194.58108894 -78.68809199 187.54593129 -77.73901367 179.89648438 C-76.59085197 174.29079068 -74.66959959 170.10971243 -71.5 165.375 C-71.11585938 164.77816406 -70.73171875 164.18132812 -70.3359375 163.56640625 C-68.90981307 161.36443425 -67.45679499 159.18182027 -66 157 C-64.44783934 154.67453073 -62.89572285 152.34903211 -61.34375 150.0234375 C-60.9154187 149.38181671 -60.4870874 148.74019592 -60.04577637 148.07913208 C-55.47589697 141.22693646 -50.95927227 134.34010479 -46.44369507 127.45205688 C-39.113521 116.27139926 -31.75770725 105.10966897 -24.31832886 94.00134277 C-19.10796425 86.21989419 -13.91643102 78.4322063 -8.9375 70.5 C-8.33748169 69.54734253 -8.33748169 69.54734253 -7.7253418 68.57543945 C-5.0505371 64.25862724 -3.89312377 60.96536078 -3.62695312 55.92114258 C-3.57019409 54.88609085 -3.51343506 53.85103912 -3.45495605 52.78462219 C-3.39763306 51.66589218 -3.34031006 50.54716217 -3.28125 49.39453125 C-3.21844849 48.2413591 -3.15564697 47.08818695 -3.09094238 45.90007019 C-2.89003561 42.20441265 -2.69456406 38.50849651 -2.5 34.8125 C-2.30498311 31.13438515 -2.10871891 27.45635395 -1.90905762 23.77848816 C-1.78489743 21.48918025 -1.66343333 19.19972406 -1.54504395 16.91011047 C-1.48828491 15.85929794 -1.43152588 14.80848541 -1.37304688 13.72583008 C-1.32498901 12.81110428 -1.27693115 11.89637848 -1.22741699 10.95393372 C-0.94538574 7.29061188 -0.45572374 3.64578995 0 0 Z " fill="#FDFEFE" transform="translate(303,325)"/>
<path d="M0 0 C1.37973999 0.01474365 1.37973999 0.01474365 2.78735352 0.02978516 C24.08388969 0.39060051 45.45504107 1.58840665 66.6875 3.25 C68.01285767 3.3435376 68.01285767 3.3435376 69.36499023 3.43896484 C75.28069899 3.95388661 80.40351822 4.98295575 85.05078125 8.9609375 C85.50839844 9.53070313 85.96601563 10.10046875 86.4375 10.6875 C86.90800781 11.25210937 87.37851562 11.81671875 87.86328125 12.3984375 C91.02291682 17.19169269 91.44918125 21.55100424 91.375 27.1875 C91.36823242 27.92983887 91.36146484 28.67217773 91.35449219 29.43701172 C90.95927484 51.05907723 90.95927484 51.05907723 85.125 58.3125 C81.97919093 61.04174075 79.0865151 62.99199497 75.125 64.3125 C74.68874685 70.08782655 74.26201576 75.86375908 73.84326172 81.64038086 C73.70022818 83.59629254 73.55480722 85.55203143 73.40673828 87.50756836 C72.4273124 100.46997004 71.92089258 113.3129362 72.125 126.3125 C72.72038574 126.03986328 73.31577148 125.76722656 73.92919922 125.48632812 C76.61771094 124.25783419 79.30880463 123.03510308 82 121.8125 C82.93714844 121.38324219 83.87429688 120.95398438 84.83984375 120.51171875 C85.73574219 120.10566406 86.63164062 119.69960938 87.5546875 119.28125 C88.38210449 118.90419922 89.20952148 118.52714844 90.06201172 118.13867188 C92.125 117.3125 92.125 117.3125 94.125 117.3125 C94.17398438 117.98796875 94.22296875 118.6634375 94.2734375 119.359375 C94.38558594 120.69742188 94.38558594 120.69742188 94.5 122.0625 C94.56960938 122.94421875 94.63921875 123.8259375 94.7109375 124.734375 C95.56453343 130.04921758 97.83231724 132.14947059 102.125 135.3125 C99.3368978 136.8191972 96.54396042 138.31669804 93.75 139.8125 C92.9559375 140.24175781 92.161875 140.67101562 91.34375 141.11328125 C90.58320313 141.51933594 89.82265625 141.92539062 89.0390625 142.34375 C88.3373291 142.72080078 87.6355957 143.09785156 86.91259766 143.48632812 C85.125 144.3125 85.125 144.3125 83.125 144.3125 C88.73687866 156.30341122 94.50503591 168.19690687 100.625 179.9375 C101.19283203 181.02788574 101.76066406 182.11827148 102.34570312 183.24169922 C104.66165026 187.68352524 106.9799141 192.12413339 109.30236816 196.56256104 C111.8690665 201.4685015 114.42663001 206.37904457 116.97436523 211.29486084 C117.8140092 212.91087417 118.65686343 214.52522424 119.50317383 216.13775635 C128.25771585 232.82310409 134.58679639 247.39027422 129.16796875 266.49609375 C124.65179571 278.69145242 116.24659347 288.05032686 104.5 293.5390625 C96.23960116 296.95631083 89.07034321 297.50632726 80.1875 297.5 C78.98875244 297.49919434 77.79000488 297.49838867 76.55493164 297.49755859 C66.78195722 297.43293341 57.08794267 296.88297922 47.34423828 296.16259766 C37.46987729 295.43978 27.59725294 294.93117454 17.70635986 294.49316406 C2.35182105 293.80691185 -13.00041422 293.04816657 -28.3420105 292.11471558 C-30.2991283 291.99795645 -32.25659679 291.88691399 -34.21438599 291.78201294 C-50.64661524 290.89344393 -64.12743896 288.67493502 -75.98046875 276.07421875 C-84.70998733 265.29726511 -89.10570622 253.23161406 -87.875 239.3125 C-85.97158611 225.1312091 -78.09803775 214.41902501 -70.25 202.8125 C-68.66420949 200.45346812 -67.08189966 198.09211103 -65.5 195.73046875 C-65.06972504 195.08857101 -64.63945007 194.44667328 -64.19613647 193.7853241 C-60.3757761 188.0782874 -56.59096731 182.34811773 -52.8125 176.61328125 C-52.19628281 175.67878647 -51.58006561 174.74429169 -50.94517517 173.78147888 C-47.77144513 168.96532975 -44.60753603 164.1431127 -41.45922852 159.31030273 C-31.00038573 143.29028532 -31.00038573 143.29028532 -25.52734375 136.171875 C-15.0414456 122.33687725 -12.82711856 111.51124611 -12.90820312 94.24023438 C-12.85413737 87.84457372 -12.36158153 81.48371942 -11.89984131 75.10671997 C-11.66206653 71.76368411 -11.45308629 68.41905629 -11.2421875 65.07421875 C-11.17112793 63.96006592 -11.10006836 62.84591309 -11.02685547 61.69799805 C-10.95168701 60.51717651 -10.95168701 60.51717651 -10.875 59.3125 C-11.66430908 59.01520996 -12.45361816 58.71791992 -13.2668457 58.41162109 C-16.03392582 57.24552593 -17.190112 56.23657159 -19.0625 53.9375 C-19.55105469 53.35226562 -20.03960937 52.76703125 -20.54296875 52.1640625 C-23.09236986 48.62032019 -24.12852238 45.95490347 -24.140625 41.56640625 C-24.14727173 40.19572998 -24.14727173 40.19572998 -24.15405273 38.79736328 C-24.14446533 37.8329834 -24.13487793 36.86860352 -24.125 35.875 C-24.11158569 34.39362549 -24.11158569 34.39362549 -24.09790039 32.88232422 C-23.76915363 12.09122102 -23.76915363 12.09122102 -16.921875 4.8984375 C-11.32443654 0.5614909 -6.83354897 -0.14213469 0 0 Z M10.125 61.3125 C9.54381178 65.96200577 9.00182636 70.2995081 8.81542969 74.92724609 C8.77158142 75.95546478 8.72773315 76.98368347 8.68255615 78.0430603 C8.63778137 79.12970978 8.59300659 80.21635925 8.546875 81.3359375 C8.43739136 83.67974355 8.32667613 86.02349234 8.21484375 88.3671875 C8.04161664 92.02900253 7.87488046 95.69050175 7.72900391 99.35351562 C7.58498315 102.9114503 7.41212711 106.46704818 7.234375 110.0234375 C7.19769714 111.10603851 7.16101929 112.18863953 7.12322998 113.30404663 C6.58384517 123.18779705 2.81088758 130.14475582 -2.66796875 138.24609375 C-3.37155518 139.29337646 -4.0751416 140.34065918 -4.80004883 141.41967773 C-5.55416862 142.52980594 -6.30831984 143.6399128 -7.0625 144.75 C-7.85700172 145.92933946 -8.65085217 147.10911791 -9.4440918 148.28930664 C-11.09134017 150.7388879 -12.74134496 153.18657504 -14.39355469 155.6328125 C-18.34716302 161.49029661 -22.26744943 167.37002923 -26.1875 173.25 C-26.56529602 173.81628113 -26.94309204 174.38256226 -27.33233643 174.96600342 C-33.11555056 183.63602051 -38.83249925 192.34654917 -44.4921875 201.09765625 C-47.10633015 205.13689741 -49.74124285 209.16225842 -52.3828125 213.18359375 C-53.16595268 214.37685965 -53.94907443 215.57013764 -54.73217773 216.76342773 C-55.88819709 218.52482468 -57.04488583 220.28576061 -58.20388794 222.04519653 C-59.2771797 223.67469379 -60.3476291 225.30606212 -61.41796875 226.9375 C-62.03696045 227.87851562 -62.65595215 228.81953125 -63.29370117 229.7890625 C-67.35317343 236.26717046 -68.64492115 242.26873182 -67.25 249.875 C-65.28162432 257.39419509 -61.18572272 262.8949941 -54.875 267.3125 C-50.06908954 269.667261 -46.18365403 270.72514764 -40.84960938 270.97265625 C-40.18192504 271.00734638 -39.5142407 271.04203651 -38.82632351 271.07777786 C-36.62420712 271.18920507 -34.42171719 271.28205274 -32.21875 271.375 C-30.65167797 271.45105399 -29.08466687 271.52837267 -27.51771545 271.60687256 C-24.19343881 271.77112877 -20.86892797 271.92755688 -17.54397583 272.07751465 C-12.35932706 272.31148854 -7.17558818 272.56222344 -1.99194336 272.81738281 C-1.13428973 272.85959583 -0.2766361 272.90180885 0.60700703 272.94530106 C2.33553191 273.03044958 4.06405295 273.11567609 5.79257011 273.20098114 C8.37761279 273.32806141 10.96273177 273.45348855 13.54786682 273.57867432 C29.41958476 274.35176064 45.27275258 275.34647836 61.125 276.44921875 C82.09515738 278.70214933 82.09515738 278.70214933 101.4375 272.125 C104.63270762 268.78117807 106.91878605 265.35861313 109.125 261.3125 C109.558125 260.52875 109.99125 259.745 110.4375 258.9375 C112.62371059 250.59015049 110.73749306 244.07081995 106.875 236.625 C106.39466309 235.66062012 105.91432617 234.69624023 105.41943359 233.70263672 C104.0017638 230.87379028 102.5640892 228.05615569 101.11633301 225.24261475 C100.06594258 223.19751585 99.02202536 221.14921258 97.97949219 219.10009766 C93.4194958 210.13918023 88.8276574 201.19495537 84.21966553 192.25863647 C79.54362064 183.18919036 74.88678926 174.10993984 70.23455811 165.02825928 C68.49918301 161.64157057 66.76180863 158.25590936 65.02397156 154.8704834 C64.21375545 153.28726799 63.4067322 151.70241407 62.60310364 150.11584473 C60.70458783 146.36870573 58.7738167 142.65115542 56.74243164 138.97412109 C52.46580597 131.11187196 49.96168414 124.92645474 51.0625 115.8125 C51.2276978 113.75009062 51.39172516 111.68758722 51.5546875 109.625 C51.65233398 108.58601563 51.74998047 107.54703125 51.85058594 106.4765625 C52.30278675 101.26257443 52.48668886 96.04113583 52.6875 90.8125 C52.73060303 89.89533203 52.77370605 88.97816406 52.81811523 88.03320312 C53.18833062 79.76970239 53.125 71.61387749 53.125 63.3125 C38.935 62.6525 24.745 61.9925 10.125 61.3125 Z " fill="#072C76" transform="translate(292.875,263.6875)"/>
<path d="M0 0 C1.36161255 0.78431396 1.36161255 0.78431396 2.75073242 1.58447266 C3.77336182 2.16527588 4.79599121 2.7460791 5.84960938 3.34448242 C7.46162231 4.28698853 7.46162231 4.28698853 9.10620117 5.24853516 C10.2124585 5.8839624 11.31871582 6.51938965 12.45849609 7.17407227 C14.6919853 8.45967701 16.92225618 9.7508902 19.14916992 11.04785156 C21.94615829 12.67175521 24.75578568 14.26904284 27.57495117 15.85400391 C29.08585216 16.7138305 30.59630574 17.574444 32.10620117 18.43603516 C32.78593994 18.81614746 33.46567871 19.19625977 34.16601562 19.58789062 C38.17661228 21.91755647 40.93347996 23.86830175 43.29370117 27.87353516 C43.8938899 31.84068303 43.85396851 35.77380403 43.82495117 39.77978516 C43.83069153 41.51597107 43.83069153 41.51597107 43.83654785 43.28723145 C43.83926677 45.73153555 43.83190715 48.17586877 43.81518555 50.62011719 C43.79377751 54.36019803 43.81498992 58.09835777 43.84057617 61.83837891 C43.83793289 64.21468523 43.83280792 66.59099035 43.82495117 68.96728516 C43.8330481 70.08510376 43.84114502 71.20292236 43.8494873 72.35461426 C43.75686444 80.0281078 43.75686444 80.0281078 41.64575195 83.8815918 C38.93561985 86.17679294 36.23503966 87.92210608 33.12963867 89.65087891 C32.24146957 90.15162682 32.24146957 90.15162682 31.33535767 90.66249084 C29.45179398 91.72186201 27.56070602 92.76682844 25.66870117 93.81103516 C24.42205343 94.50730981 23.17595444 95.20456793 21.93041992 95.90283203 C21.32068329 96.24361282 20.71094666 96.58439362 20.08273315 96.9355011 C18.86710022 97.61901178 17.65459467 98.30811551 16.44534302 99.00285339 C13.74570819 100.54745099 11.08247171 101.96430438 8.22290039 103.19311523 C5.36277886 104.51354569 3.43586849 105.55652624 1.29370117 107.87353516 C-0.2025418 112.7712677 -0.29110514 117.60518706 -0.33129883 122.68603516 C-0.37766824 124.02799174 -0.42841569 125.36980453 -0.48364258 126.71142578 C-0.57322617 129.28759393 -0.62515175 131.86540977 -0.63525391 134.44311523 C-0.70629883 137.87353516 -0.70629883 137.87353516 -1.12695312 140.57543945 C-1.47039179 143.06028812 -1.59295579 144.52018483 -0.70629883 146.87353516 C2.73033113 149.97199881 6.6305765 151.96164938 10.73120117 154.06103516 C12.87707985 155.21869725 15.0216321 156.37882169 17.16479492 157.54150391 C18.2023291 158.09757324 19.23986328 158.65364258 20.30883789 159.2265625 C32.22365186 165.80085786 32.22365186 165.80085786 34.29370117 170.87353516 C34.43759155 173.00668335 34.43759155 173.00668335 34.29516602 175.328125 C34.25133286 176.20395233 34.20749969 177.07977966 34.16233826 177.98214722 C34.11029739 178.92341461 34.05825653 179.86468201 34.00463867 180.83447266 C31.85879107 203.14097576 31.85879107 203.14097576 39.45385742 222.81884766 C43.49743163 225.95616972 47.81827513 228.05092491 52.60961914 229.80712891 C57.14660962 231.60970981 61.18453123 234.26187291 65.29370117 236.87353516 C61.55971117 243.42684902 57.82228282 249.83542629 53.29370117 255.87353516 C52.96370117 254.88353516 52.63370117 253.89353516 52.29370117 252.87353516 C50.64064091 252.17381094 48.97004146 251.51548956 47.29370117 250.87353516 C44.82768325 249.41518443 42.47287085 247.79940019 40.10620117 246.18603516 C39.4463623 245.74412842 38.78652344 245.30222168 38.10668945 244.84692383 C33.43340771 241.70313149 28.89025833 238.41261379 24.44213867 234.95556641 C21.54741382 233.49767771 20.39591955 233.9864432 17.29370117 234.87353516 C15.13376876 235.99130628 13.01418505 237.18849816 10.92651367 238.43603516 C9.69877737 239.15760764 8.47090863 239.87895482 7.24291992 240.60009766 C5.32951743 241.73509211 3.41841258 242.87370806 1.51000977 244.01708984 C-0.34543126 245.1250874 -2.20883584 246.21862821 -4.07348633 247.31103516 C-5.17805176 247.96974609 -6.28261719 248.62845703 -7.4206543 249.30712891 C-11.0405993 251.03291039 -13.6975018 251.75735043 -17.70629883 251.87353516 C-20.72558594 250.76879883 -20.72558594 250.76879883 -23.73364258 249.04150391 C-24.84860107 248.41228027 -25.96355957 247.78305664 -27.11230469 247.13476562 C-28.28995704 246.44435325 -29.4671133 245.75309403 -30.64379883 245.06103516 C-31.85349192 244.36601178 -33.0638642 243.67216923 -34.27490234 242.97949219 C-37.76860592 240.97166315 -41.23868943 238.92609954 -44.70629883 236.87353516 C-45.61508789 236.34034668 -46.52387695 235.8071582 -47.46020508 235.2578125 C-49.69860586 233.93785666 -51.9249343 232.601019 -54.14379883 231.24853516 C-55.08050415 230.68428833 -55.08050415 230.68428833 -56.03613281 230.10864258 C-59.78767618 227.75048419 -62.42984521 225.68475426 -64.70629883 221.87353516 C-65.30666513 217.97938261 -65.2666117 214.11978873 -65.23754883 210.18603516 C-65.24137573 209.05077393 -65.24520264 207.9155127 -65.24914551 206.74584961 C-65.2518642 204.34862378 -65.24450614 201.95136826 -65.2277832 199.55419922 C-65.2063747 195.88653373 -65.22758818 192.22082727 -65.25317383 188.55322266 C-65.25053055 186.22248917 -65.24540557 183.8917569 -65.23754883 181.56103516 C-65.24564575 180.46509033 -65.25374268 179.36914551 -65.26208496 178.23999023 C-65.16933657 170.70336879 -65.16933657 170.70336879 -63.02661133 166.86328125 C-60.47874321 164.67839855 -57.97748252 162.99594691 -55.05004883 161.35009766 C-53.9440332 160.72103516 -52.83801758 160.09197266 -51.69848633 159.44384766 C-50.54606445 158.80189453 -49.39364258 158.15994141 -48.20629883 157.49853516 C-44.81996544 155.58350524 -41.43465302 153.66812432 -38.06274414 151.7277832 C-34.70629883 149.87353516 -34.70629883 149.87353516 -31.24829102 148.27905273 C-25.18568153 145.44914611 -25.18568153 145.44914611 -21.58129883 140.11376953 C-21.06619176 136.79672928 -20.94082518 133.66688279 -20.95629883 130.31103516 C-20.91504883 129.21984375 -20.87379883 128.12865234 -20.83129883 127.00439453 C-20.72002364 123.62441065 -20.7006049 120.25525351 -20.70629883 116.87353516 C-20.70307617 115.56658691 -20.69985352 114.25963867 -20.6965332 112.91308594 C-20.69147855 109.56648305 -20.69494272 106.22011631 -20.70629883 102.87353516 C-21.49278809 102.44532471 -22.27927734 102.01711426 -23.08959961 101.57592773 C-26.0334467 99.96902904 -28.97391151 98.35624874 -31.91235352 96.73950195 C-33.17962183 96.04379422 -34.44815634 95.3503874 -35.71801758 94.65942383 C-37.55351074 93.66014787 -39.3841405 92.65241237 -41.21411133 91.64306641 C-42.31384277 91.04083252 -43.41357422 90.43859863 -44.54663086 89.81811523 C-52.76204971 84.7620334 -52.76204971 84.7620334 -54.70629883 80.87353516 C-54.83223609 79.18027148 -54.89667086 77.48226329 -54.9309082 75.78466797 C-54.95342651 74.72306458 -54.97594482 73.66146118 -54.99914551 72.56768799 C-55.07004174 67.70551546 -55.12766817 62.84349814 -55.16625977 57.98095703 C-55.19288011 55.41631408 -55.23381902 52.85177847 -55.28930664 50.28759766 C-55.36836528 46.59184447 -55.40155761 42.89813456 -55.42504883 39.20166016 C-55.45804077 38.0577179 -55.49103271 36.91377563 -55.52502441 35.73516846 C-55.50550881 27.96781152 -55.50550881 27.96781152 -53.23562622 24.8598938 C-51.46040748 23.299534 -49.74116674 22.0703167 -47.70629883 20.87353516 C-47.03200836 20.45968567 -46.3577179 20.04583618 -45.66299438 19.6194458 C-43.66727284 18.42877377 -41.63565316 17.33475079 -39.58129883 16.24853516 C-37.99953863 15.39627929 -36.41885587 14.54202148 -34.83911133 13.68603516 C-34.01056641 13.23744141 -33.18202148 12.78884766 -32.32836914 12.32666016 C-29.54695806 10.78523011 -26.80891138 9.18258386 -24.07348633 7.56103516 C-23.13778809 7.01012207 -22.20208984 6.45920898 -21.23803711 5.89160156 C-19.41550376 4.81510082 -17.59850995 3.72915301 -15.7878418 2.6328125 C-14.95140137 2.14248535 -14.11496094 1.6521582 -13.25317383 1.14697266 C-12.519375 0.70788574 -11.78557617 0.26879883 -11.02954102 -0.18359375 C-7.04639331 -1.80012553 -3.94830045 -1.64343331 0 0 Z " fill="#072C75" transform="translate(207.706298828125,154.12646484375)"/>
<path d="M0 0 C4.35726442 1.06550592 8.68207416 2.20661086 12.99462891 3.44091797 C14.78141064 3.93905897 16.58345186 4.3817087 18.38671875 4.81640625 C23.29151667 6.31736234 26.59004658 7.89564061 29.203125 12.38671875 C30.96647965 15.81813458 32.47933472 19.3545154 34.01708984 22.89111328 C40.35599452 36.49157493 50.8951515 48.11927647 61 59 C61.82564453 59.90685547 61.82564453 59.90685547 62.66796875 60.83203125 C79.66836214 78.7559028 104.42056202 92.26974126 128 99 C124.41771296 105.30482519 120.5081393 107.59674428 113.875 110.25 C103.85598889 112.18916344 93.1671988 110.87698229 83.04296875 110.23046875 C81.71147127 110.1487085 80.37994779 110.06737089 79.04840088 109.98641968 C75.49602241 109.76958982 71.94393459 109.54834704 68.39191818 109.32567215 C61.64177291 108.90257544 54.89133477 108.4843017 48.140625 108.0703125 C47.38328505 108.02372812 46.62594509 107.97714375 45.84565544 107.92914772 C35.06196192 107.26872854 24.27789162 106.71353688 13.484375 106.2421875 C10.91510908 106.12500463 8.34585423 106.0075789 5.77661133 105.88989258 C2.13945771 105.72374217 -1.49715076 105.56490054 -5.13565063 105.4312439 C-8.46791518 105.3085754 -11.79800712 105.15879232 -15.12890625 105.00390625 C-16.08955994 104.97678558 -17.05021362 104.94966492 -18.03997803 104.92172241 C-26.376896 104.4902726 -33.65892068 101.83387132 -39.4375 95.625 C-44.05854647 89.58108894 -46.68809199 82.54593129 -45.73901367 74.89648438 C-44.59085197 69.29079068 -42.66959959 65.10971243 -39.5 60.375 C-39.11585938 59.77816406 -38.73171875 59.18132812 -38.3359375 58.56640625 C-36.90981576 56.36443841 -35.45674662 54.18184516 -34 52 C-32.47003147 49.707045 -30.94007823 47.41407981 -29.41015625 45.12109375 C-28.98533463 44.48463425 -28.560513 43.84817474 -28.12281799 43.19242859 C-23.20840277 35.82387555 -18.3382613 28.42630293 -13.47387695 21.0246582 C-11.90886287 18.6439368 -10.34213663 16.26434751 -8.77539062 13.88476562 C-7.77593805 12.36465145 -6.77658514 10.84447175 -5.77734375 9.32421875 C-5.07749611 8.26191292 -5.07749611 8.26191292 -4.36351013 7.17814636 C-2.0394056 3.67287586 -2.0394056 3.67287586 0 0 Z " fill="#92B1F3" transform="translate(271,430)"/>
<path d="M0 0 C4.06818621 1.76047144 7.74953733 4.02296893 11.5 6.375 C13.61966632 7.66296674 15.73945883 8.9507258 17.859375 10.23828125 C18.89642578 10.87717285 19.93347656 11.51606445 21.00195312 12.17431641 C23.71164848 13.82440614 26.44251973 15.41752654 29.203125 16.98046875 C29.97849609 17.42148926 30.75386719 17.86250977 31.55273438 18.31689453 C32.97264995 19.12182889 34.39563984 19.92137474 35.82226562 20.71435547 C39.85796438 23.04034426 42.62353634 24.98012228 45 29 C45.59842889 32.89457107 45.5603141 36.75357987 45.53125 40.6875 C45.5350769 41.82276123 45.53890381 42.95802246 45.54284668 44.12768555 C45.54556537 46.52491138 45.53820731 48.92216689 45.52148438 51.31933594 C45.50007587 54.98700142 45.52128935 58.65270789 45.546875 62.3203125 C45.54423172 64.65104599 45.53910674 66.98177826 45.53125 69.3125 C45.53934692 70.40844482 45.54744385 71.50438965 45.55578613 72.63354492 C45.46314206 80.16168966 45.46314206 80.16168966 43.34326172 83.9987793 C40.67954628 86.27367776 38.0376985 87.99874382 34.9765625 89.70703125 C34.39393646 90.03611984 33.81131042 90.36520844 33.21102905 90.70426941 C31.3543319 91.75017118 29.49006228 92.78160366 27.625 93.8125 C26.41221836 94.4918718 25.19997411 95.17220383 23.98828125 95.85351562 C22.16950911 96.87612813 20.34942605 97.89571209 18.52325439 98.90505981 C15.38072878 100.64410658 12.27639722 102.42401216 9.20996094 104.29443359 C8.59140228 104.66581955 7.97284363 105.03720551 7.33554077 105.41984558 C5.62799299 106.44871939 3.92963562 107.49280181 2.23193359 108.5378418 C-1.54936954 110.24854013 -3.88961313 110.46738724 -8 110 C-10.86743164 108.84179688 -10.86743164 108.84179688 -13.66015625 107.21875 C-14.69382324 106.62650635 -15.72749023 106.0342627 -16.79248047 105.42407227 C-17.87158691 104.78912842 -18.95069336 104.15418457 -20.0625 103.5 C-21.18285645 102.86956787 -22.30321289 102.23913574 -23.45751953 101.58959961 C-28.17121211 98.92101382 -32.78686099 96.28278877 -37.08203125 92.97265625 C-40.2999102 90.55417006 -42.98163485 88.845731 -47 88 C-53.03343631 89.22977124 -58.30717569 92.52135396 -63.55566406 95.60888672 C-67.48301353 97.8440083 -71.57957914 99.6873816 -75.6875 101.5625 C-77.1089069 102.22869224 -78.52956578 102.89648454 -79.94921875 103.56640625 C-80.95597656 104.03949219 -81.96273437 104.51257813 -83 105 C-83.01417969 104.05898437 -83.02835938 103.11796875 -83.04296875 102.1484375 C-83.09066406 100.90320313 -83.13835937 99.65796875 -83.1875 98.375 C-83.22230469 97.14523438 -83.25710937 95.91546875 -83.29296875 94.6484375 C-84.18997297 90.01969751 -85.7713407 88.34709497 -89 85 C-70.91081007 75.40988567 -70.91081007 75.40988567 -61.9375 70.875 C-60.83277344 70.31554687 -59.72804688 69.75609375 -58.58984375 69.1796875 C-56 68 -56 68 -54 68 C-54.02618408 66.84999512 -54.05236816 65.69999023 -54.0793457 64.51513672 C-54.17011176 60.23262119 -54.22734469 55.95019001 -54.2746582 51.66699219 C-54.29974245 49.81626062 -54.33381845 47.96562753 -54.37719727 46.11523438 C-54.43811995 43.44897117 -54.46626991 40.78402175 -54.48828125 38.1171875 C-54.51408768 37.29507782 -54.5398941 36.47296814 -54.56648254 35.62594604 C-54.56842819 31.60560959 -54.33336181 28.86516086 -51.80883789 25.63842773 C-49.1408822 23.13233498 -46.78261288 21.39545387 -43.5703125 19.66796875 C-42.53455078 19.10094238 -41.49878906 18.53391602 -40.43164062 17.94970703 C-39.34044922 17.36817871 -38.24925781 16.78665039 -37.125 16.1875 C-34.86588881 14.96202647 -32.60807077 13.73416603 -30.3515625 12.50390625 C-29.26004883 11.90980957 -28.16853516 11.31571289 -27.04394531 10.70361328 C-24.41938672 9.23471932 -21.86927831 7.70915702 -19.3359375 6.08984375 C-18.67319824 5.66743408 -18.01045898 5.24502441 -17.32763672 4.80981445 C-15.63604331 3.71319372 -13.95799765 2.59575086 -12.28125 1.4765625 C-7.91909333 -0.486408 -4.69999137 -0.98331192 0 0 Z " fill="#082C77" transform="translate(334,91)"/>
<path d="M0 0 C2.69042969 1.1105957 2.69042969 1.1105957 5.421875 2.67578125 C6.43934814 3.25142822 7.45682129 3.8270752 8.50512695 4.42016602 C10.11133911 5.35687134 10.11133911 5.35687134 11.75 6.3125 C12.8536792 6.94534912 13.9573584 7.57819824 15.09448242 8.23022461 C18.40572241 10.13781545 21.7041566 12.06595452 25 14 C26.41563232 14.82274414 26.41563232 14.82274414 27.85986328 15.66210938 C30.35266804 17.11497951 32.83502879 18.58366508 35.3125 20.0625 C36.40353027 20.70409058 36.40353027 20.70409058 37.51660156 21.35864258 C38.18788086 21.76751709 38.85916016 22.1763916 39.55078125 22.59765625 C40.12481689 22.94320557 40.69885254 23.28875488 41.2902832 23.64477539 C44.48060287 26.1736151 46.70407345 28.18019646 47.38526917 32.36921692 C47.56398243 35.38573254 47.60672105 38.37658421 47.6015625 41.3984375 C47.61013275 42.50675934 47.618703 43.61508118 47.62753296 44.75698853 C47.63900561 47.09870678 47.64003026 49.4404963 47.63134766 51.78222656 C47.62503346 55.35606204 47.67193095 58.92657465 47.72265625 62.5 C47.72720324 64.77864167 47.72860876 67.05729221 47.7265625 69.3359375 C47.74498199 70.39968597 47.76340149 71.46343445 47.78237915 72.55941772 C47.70687927 78.64658783 47.0407487 82.30207377 42.62554932 86.65060425 C40.48305035 88.42912858 38.36375481 89.88927834 35.91015625 91.2109375 C34.9680127 91.72946289 34.02586914 92.24798828 33.05517578 92.78222656 C32.06759277 93.3078418 31.08000977 93.83345703 30.0625 94.375 C27.99755263 95.50050548 25.93375078 96.62811511 23.87109375 97.7578125 C22.86804199 98.30469727 21.86499023 98.85158203 20.83154297 99.41503906 C18.33006335 100.81524649 15.89444523 102.27204974 13.47265625 103.8046875 C12.81193115 104.22186035 12.15120605 104.6390332 11.47045898 105.06884766 C9.75723689 106.16536419 8.05395345 107.27736695 6.3515625 108.390625 C2.08410003 110.43980279 -1.24704611 111.54866686 -6 111 C-10.23269032 109.38450944 -14.00364801 107.14986357 -17.875 104.8125 C-18.96111572 104.17844238 -20.04723145 103.54438477 -21.16625977 102.89111328 C-24.46104136 100.9542001 -27.73228649 98.98217018 -31 97 C-31.98242676 96.41234863 -32.96485352 95.82469727 -33.97705078 95.21923828 C-36.64135206 93.62139875 -39.29279423 92.00503289 -41.9375 90.375 C-42.72946777 89.89135986 -43.52143555 89.40771973 -44.33740234 88.90942383 C-45.06008301 88.45204834 -45.78276367 87.99467285 -46.52734375 87.5234375 C-47.15374756 87.13075684 -47.78015137 86.73807617 -48.42553711 86.33349609 C-50.96915002 84.17917546 -51.89077173 81.92165807 -52.28088379 78.62992859 C-52.29453979 77.75391495 -52.3081958 76.87790131 -52.32226562 75.9753418 C-52.34148071 74.97717941 -52.3606958 73.97901703 -52.38049316 72.9506073 C-52.38899292 71.87764908 -52.39749268 70.80469086 -52.40625 69.69921875 C-52.42335022 68.03461357 -52.42335022 68.03461357 -52.4407959 66.33638 C-52.4596812 63.98869635 -52.47275805 61.64095984 -52.48046875 59.29321289 C-52.49987376 55.71080519 -52.56192245 52.13069685 -52.625 48.54882812 C-52.63806174 46.2656386 -52.64856203 43.98243269 -52.65625 41.69921875 C-52.6809436 40.63233322 -52.70563721 39.56544769 -52.7310791 38.4662323 C-52.70144653 33.49166362 -52.53621223 29.955835 -49.33618164 25.99902344 C-46.50293878 23.21422664 -43.47874138 21.18512167 -39.96484375 19.31640625 C-38.82466797 18.69830078 -37.68449219 18.08019531 -36.50976562 17.44335938 C-35.31939603 16.81567441 -34.12863968 16.18872237 -32.9375 15.5625 C-30.61161497 14.31690852 -28.28739073 13.06821087 -25.96484375 11.81640625 C-24.81612793 11.20168457 -23.66741211 10.58696289 -22.48388672 9.95361328 C-20.0732553 8.60183524 -17.75948927 7.2379737 -15.44189453 5.74560547 C-14.86443985 5.37523666 -14.28698517 5.00486786 -13.69203186 4.62327576 C-12.09966041 3.5895074 -10.51925267 2.53737755 -8.93969727 1.48413086 C-5.56319907 -0.22052262 -3.73287988 -0.48832797 0 0 Z " fill="#072C76" transform="translate(439,310)"/>
<path d="M0 0 C0.9077417 0.52287598 1.8154834 1.04575195 2.75073242 1.58447266 C3.77336182 2.16527588 4.79599121 2.7460791 5.84960938 3.34448242 C7.46162231 4.28698853 7.46162231 4.28698853 9.10620117 5.24853516 C10.2124585 5.8839624 11.31871582 6.51938965 12.45849609 7.17407227 C14.6919853 8.45967701 16.92225618 9.7508902 19.14916992 11.04785156 C21.94615829 12.67175521 24.75578568 14.26904284 27.57495117 15.85400391 C29.08585216 16.7138305 30.59630574 17.574444 32.10620117 18.43603516 C32.78593994 18.81614746 33.46567871 19.19625977 34.16601562 19.58789062 C38.17661228 21.91755647 40.93347996 23.86830175 43.29370117 27.87353516 C43.8938899 31.84068303 43.85396851 35.77380403 43.82495117 39.77978516 C43.83069153 41.51597107 43.83069153 41.51597107 43.83654785 43.28723145 C43.83926677 45.73153555 43.83190715 48.17586877 43.81518555 50.62011719 C43.79377751 54.36019803 43.81498992 58.09835777 43.84057617 61.83837891 C43.83793289 64.21468523 43.83280792 66.59099035 43.82495117 68.96728516 C43.8330481 70.08510376 43.84114502 71.20292236 43.8494873 72.35461426 C43.75684429 80.02977708 43.75684429 80.02977708 41.64135742 83.88378906 C38.95318961 86.16213428 36.2802955 87.89883211 33.19995117 89.61572266 C32.61258179 89.94718292 32.0252124 90.27864319 31.42004395 90.62014771 C29.54991356 91.67278428 27.67223502 92.71098412 25.79370117 93.74853516 C23.9529327 94.77814221 22.11382145 95.81066116 20.27490234 96.84356689 C19.05936467 97.52438995 17.84207458 98.20209377 16.62304688 98.87664795 C12.64082715 101.08518712 8.7652687 103.42996573 4.88745117 105.81884766 C-3.84449612 110.82826983 -3.84449612 110.82826983 -8.70629883 109.87353516 C-12.92305701 108.15076498 -16.74638852 105.9067235 -20.64379883 103.56103516 C-21.74103271 102.92109619 -22.8382666 102.28115723 -23.96875 101.62182617 C-26.18220908 100.3282546 -28.39071547 99.02616825 -30.59399414 97.71533203 C-33.37136358 96.07174284 -36.16622577 94.46978406 -38.97973633 92.88916016 C-40.49305468 92.03030918 -42.00609797 91.17097326 -43.51879883 90.31103516 C-44.19869873 89.93100342 -44.87859863 89.55097168 -45.57910156 89.15942383 C-49.59231141 86.82712334 -52.3445966 84.88165254 -54.70629883 80.87353516 C-55.34067423 76.84863199 -55.33831299 72.85222371 -55.34301758 68.78369141 C-55.3539595 67.60640976 -55.36490143 66.42912811 -55.37617493 65.21617126 C-55.39202704 62.72903824 -55.39724028 60.24181784 -55.39257812 57.75463867 C-55.39379363 53.95230067 -55.45358578 50.1537997 -55.5168457 46.35205078 C-55.52498688 43.9334404 -55.52965966 41.51481534 -55.53051758 39.09619141 C-55.55409836 37.96166031 -55.57767914 36.82712921 -55.60197449 35.65821838 C-55.51253505 27.96879065 -55.51253505 27.96879065 -53.22894287 24.86657715 C-51.45577218 23.30785097 -49.73619673 22.07374688 -47.70629883 20.87353516 C-46.69506706 20.25255699 -46.69506706 20.25255699 -45.66340637 19.61903381 C-43.6673785 18.42889261 -41.63564664 17.33474735 -39.58129883 16.24853516 C-37.99953863 15.39627929 -36.41885587 14.54202148 -34.83911133 13.68603516 C-34.01056641 13.23744141 -33.18202148 12.78884766 -32.32836914 12.32666016 C-29.54695806 10.78523011 -26.80891138 9.18258386 -24.07348633 7.56103516 C-23.13778809 7.01012207 -22.20208984 6.45920898 -21.23803711 5.89160156 C-19.41550376 4.81510082 -17.59850995 3.72915301 -15.7878418 2.6328125 C-14.95140137 2.14248535 -14.11496094 1.6521582 -13.25317383 1.14697266 C-12.519375 0.70788574 -11.78557617 0.26879883 -11.02954102 -0.18359375 C-7.04639331 -1.80012553 -3.94830045 -1.64343331 0 0 Z " fill="#062B75" transform="translate(207.706298828125,154.12646484375)"/>
<path d="M0 0 C3.71979642 1.33769602 7.00424602 3.13283722 10.41186523 5.12329102 C31.62048638 17.20176565 53.3207636 16.67394271 77 16 C77.33 15.34 77.66 14.68 78 14 C78.25056152 14.50635986 78.50112305 15.01271973 78.75927734 15.53442383 C83.43933866 24.97838429 88.172696 34.38305394 93.125 43.6875 C94.75897028 46.78702978 96.38212344 49.89204332 98 53 C98.40089844 53.76538086 98.80179687 54.53076172 99.21484375 55.31933594 C107.9323308 72.13265317 107.9323308 72.13265317 106 80 C104.88835856 83.13708982 103.58320434 86.07389911 102 89 C95.90460701 88.5000408 91.15461213 87.12787946 85.625 84.5625 C84.85188477 84.20905518 84.07876953 83.85561035 83.28222656 83.49145508 C64.59088668 74.79011863 49.01245168 64.11223412 34 50 C33.36191406 49.42636719 32.72382813 48.85273438 32.06640625 48.26171875 C18.86673804 35.88531467 5.01158169 17.55453476 0 0 Z " fill="#D1DBFC" transform="translate(298,440)"/>
<path d="M0 0 C1.83219414 0.97211223 3.64789349 1.97572103 5.44921875 3.00390625 C6.46177734 3.57947266 7.47433594 4.15503906 8.51757812 4.74804688 C10.08668945 5.64620117 10.08668945 5.64620117 11.6875 6.5625 C13.77454439 7.75164473 15.86177451 8.94046356 17.94921875 10.12890625 C18.87049561 10.65556885 19.79177246 11.18223145 20.7409668 11.72485352 C22.14262622 12.51604201 23.56038106 13.28019053 25 14 C25.22334904 18.73194539 25.38615853 23.46079744 25.49438477 28.19677734 C25.53950884 29.80539397 25.60083129 31.41364414 25.67895508 33.02099609 C26.30804518 46.30178723 26.30804518 46.30178723 23.27954102 50.23364258 C20.9236695 51.82399063 18.62040196 52.90635394 16 54 C14.45291851 54.91635699 12.91739614 55.85253215 11.39453125 56.80859375 C9.86943738 57.68880564 8.3420902 58.56512503 6.8125 59.4375 C6.04486328 59.89576172 5.27722656 60.35402344 4.48632812 60.82617188 C3.73416016 61.25349609 2.98199219 61.68082031 2.20703125 62.12109375 C1.5416333 62.5070874 0.87623535 62.89308105 0.19067383 63.29077148 C-3.88783642 64.6111852 -7.11513898 63.42657697 -10.8684082 61.6171875 C-12.31993286 60.75480469 -12.31993286 60.75480469 -13.80078125 59.875 C-14.85974609 59.25109375 -15.91871094 58.6271875 -17.00976562 57.984375 C-18.09966797 57.32953125 -19.18957031 56.6746875 -20.3125 56 C-21.42173828 55.34515625 -22.53097656 54.6903125 -23.67382812 54.015625 C-31.80333647 49.19666353 -31.80333647 49.19666353 -33 48 C-33.38775295 43.39017132 -33.48513636 38.77927862 -33.56982422 34.1550293 C-33.60640975 32.60176298 -33.66091001 31.0488085 -33.73388672 29.49682617 C-34.32678114 16.69495151 -34.32678114 16.69495151 -31.29492188 12.82177734 C-28.93830561 11.23535458 -26.60449051 10.12864525 -24 9 C-22.3666487 8.00100588 -20.74667121 6.97982496 -19.140625 5.9375 C-17.5122603 4.95527041 -15.88204448 3.97610316 -14.25 3 C-13.42628906 2.48566406 -12.60257813 1.97132813 -11.75390625 1.44140625 C-10.95339844 0.96574219 -10.15289062 0.49007812 -9.328125 0 C-8.6155957 -0.433125 -7.90306641 -0.86625 -7.16894531 -1.3125 C-4.11181698 -2.28153122 -2.81775072 -1.43925578 0 0 Z " fill="#FA8D02" transform="translate(206,177)"/>
<path d="M0 0 C2.94719509 1.1240694 5.54555892 2.62553437 8.27050781 4.21508789 C8.84194519 4.54661362 9.41338257 4.87813934 10.00213623 5.2197113 C11.81827164 6.2747742 13.63034047 7.33660746 15.44238281 8.39868164 C16.6764953 9.11723166 17.91086757 9.83533569 19.14550781 10.55297852 C22.16415929 12.30889008 25.17920271 14.0708938 28.19238281 15.83618164 C28.41573186 20.56812703 28.57854135 25.29697908 28.68676758 30.03295898 C28.73189165 31.64157561 28.7932141 33.24982578 28.87133789 34.85717773 C29.5003311 48.13592321 29.5003311 48.13592321 26.47412109 52.06982422 C24.11748495 53.66190283 21.81496827 54.74350012 19.19238281 55.83618164 C17.63391283 56.75294776 16.08669773 57.68913516 14.55175781 58.64477539 C13.01754263 59.52499885 11.48108079 60.40131813 9.94238281 61.27368164 C9.16636719 61.73194336 8.39035156 62.19020508 7.59082031 62.66235352 C6.83542969 63.08967773 6.08003906 63.51700195 5.30175781 63.95727539 C4.63112305 64.34326904 3.96048828 64.7292627 3.26953125 65.12695312 C0.47645149 66.08063163 -0.99907476 65.71424679 -3.80761719 64.83618164 C-5.74497556 63.86372526 -7.64450309 62.81398739 -9.51074219 61.71118164 C-10.57292969 61.08727539 -11.63511719 60.46336914 -12.72949219 59.82055664 C-13.82777344 59.16571289 -14.92605469 58.51086914 -16.05761719 57.83618164 C-17.17136719 57.18133789 -18.28511719 56.52649414 -19.43261719 55.85180664 C-27.63109189 51.01270694 -27.63109189 51.01270694 -28.80761719 49.83618164 C-30.53112862 39.33425199 -32.50497528 26.05485646 -28.80761719 15.83618164 C-23.43604496 8.98612217 -15.36030965 5.71906476 -7.35131836 2.80883789 C-0.00453922 -0.00041137 -0.00453922 -0.00041137 0 0 Z " fill="#B0D852" transform="translate(192.8076171875,317.163818359375)"/>
<path d="M0 0 C19.33524024 7.70206138 19.33524024 7.70206138 22.95831299 15.9083252 C26.05377104 26.08565319 25.43489873 38.01426436 22.13745117 48.04907227 C18.53278686 53.46368729 13.28917969 55.46992505 7.26196289 57.3269043 C4.29372841 58.33587207 1.89711401 59.96893555 -0.67504883 61.73657227 C-4.3286726 64.13567744 -4.3286726 64.13567744 -6.70166016 63.75073242 C-9.12566409 62.96363635 -11.18605567 61.91818017 -13.41723633 60.68579102 C-14.27961914 60.21077148 -15.14200195 59.73575195 -16.03051758 59.24633789 C-16.92383789 58.74811523 -17.8171582 58.24989258 -18.73754883 57.73657227 C-19.62313477 57.24995117 -20.5087207 56.76333008 -21.42114258 56.26196289 C-23.91732135 54.87995035 -26.40525236 53.49924395 -28.86254883 52.04907227 C-29.92900635 51.48704102 -30.99546387 50.92500977 -32.09423828 50.34594727 C-34.86254883 48.04907227 -34.86254883 48.04907227 -35.78173828 44.61669922 C-35.88029566 43.25895145 -35.94300665 41.8982779 -35.97583008 40.53735352 C-36.00889755 39.81173218 -36.04196503 39.08611084 -36.07603455 38.33850098 C-36.15630046 36.01099221 -36.17540927 33.69039931 -36.17504883 31.36157227 C-36.18024536 30.57873871 -36.18544189 29.79590515 -36.1907959 28.98934937 C-36.14737231 14.27656319 -36.14737231 14.27656319 -31.92114258 10.04907227 C-28.81844335 7.93327564 -25.47180616 6.75723469 -21.88110352 5.72045898 C-18.63514826 4.64082945 -16.0889735 2.80487482 -13.23754883 0.92407227 C-8.0371742 -2.35347477 -5.70218558 -1.89424417 0 0 Z " fill="#FB7C9F" transform="translate(453.862548828125,193.950927734375)"/>
<path d="M0 0 C1.93735837 0.97245638 3.83688591 2.02219426 5.703125 3.125 C6.7653125 3.74890625 7.8275 4.3728125 8.921875 5.015625 C10.56929688 5.99789063 10.56929688 5.99789063 12.25 7 C13.36375 7.65484375 14.4775 8.3096875 15.625 8.984375 C23.8234747 13.8234747 23.8234747 13.8234747 25 15 C25.08847743 17.52094076 25.11527301 20.01430893 25.09765625 22.53515625 C25.0962413 23.28840683 25.09482635 24.04165741 25.09336853 24.81773376 C25.08775376 27.2326956 25.07519883 29.64756601 25.0625 32.0625 C25.0574869 33.69596221 25.05292366 35.32942586 25.04882812 36.96289062 C25.03777954 40.97529585 25.02050506 44.98763241 25 49 C24.3294458 49.37809814 23.6588916 49.75619629 22.96801758 50.14575195 C19.91578326 51.86730184 16.86413646 53.58989058 13.8125 55.3125 C12.75740234 55.90740234 11.70230469 56.50230469 10.61523438 57.11523438 C9.59365234 57.69208984 8.57207031 58.26894531 7.51953125 58.86328125 C6.58214111 59.39219971 5.64475098 59.92111816 4.67895508 60.46606445 C1.966571 61.95794859 1.966571 61.95794859 -0.5324707 63.82104492 C-3 65 -3 65 -5.45385742 64.31640625 C-6.29408447 63.88199219 -7.13431152 63.44757813 -8 63 C-9.37152222 62.51853516 -9.37152222 62.51853516 -10.77075195 62.02734375 C-18.73813007 59.10127415 -26.62687889 55.79235057 -32 49 C-34.21562898 43.4061071 -34.17474444 37.43285387 -34.0625 31.5 C-34.0588443 30.73703613 -34.0551886 29.97407227 -34.05142212 29.18798828 C-33.83842867 17.18962515 -33.83842867 17.18962515 -30.17626953 12.82788086 C-27.85573031 11.24481622 -25.57098235 10.12516405 -23 9 C-21.44352789 8.07984601 -19.89643068 7.14363975 -18.359375 6.19140625 C-16.82515982 5.31118279 -15.28869797 4.43486351 -13.75 3.5625 C-12.97398437 3.10423828 -12.19796875 2.64597656 -11.3984375 2.17382812 C-10.26535156 1.5328418 -10.26535156 1.5328418 -9.109375 0.87890625 C-8.43874023 0.4929126 -7.76810547 0.10691895 -7.07714844 -0.29077148 C-4.28406867 -1.24444999 -2.80854243 -0.87806515 0 0 Z " fill="#66CBD0" transform="translate(440,334)"/>
<path d="M0 0 C8.24502421 3.28434929 16.59606607 6.88859934 22.13745117 14.04907227 C25.90295487 24.44265106 23.60832604 37.36011149 22.13745117 48.04907227 C18.49161669 50.17051337 14.84371035 52.28833237 11.19384766 54.40283203 C9.9527127 55.12254438 8.71214754 55.84324029 7.47216797 56.56494141 C5.68891195 57.60261501 3.9036312 58.63672476 2.11791992 59.67016602 C1.04437256 60.29334717 -0.0291748 60.91652832 -1.13525391 61.55859375 C-3.86254883 63.04907227 -3.86254883 63.04907227 -6.86254883 64.04907227 C-9.45043945 62.90917969 -9.45043945 62.90917969 -12.51879883 61.15454102 C-13.62352539 60.52870117 -14.72825195 59.90286133 -15.86645508 59.25805664 C-17.03189255 58.58435458 -18.19725636 57.9105251 -19.36254883 57.23657227 C-20.52739801 56.57355656 -21.69275734 55.91143629 -22.85864258 55.25024414 C-31.15032234 50.52388992 -31.15032234 50.52388992 -34.86254883 48.04907227 C-35.3166492 45.5335095 -35.56686974 43.26908059 -35.68286133 40.73266602 C-35.72017365 40.00421478 -35.75748596 39.27576355 -35.79592896 38.52523804 C-35.89332722 36.17856923 -35.94979809 33.83493787 -35.98754883 31.48657227 C-36.00023804 30.69874359 -36.01292725 29.91091492 -36.02600098 29.09921265 C-36.08732855 16.29774191 -36.08732855 16.29774191 -33.57055664 11.67700195 C-30.26633524 8.37672119 -26.29962352 6.9962578 -21.88110352 5.72045898 C-18.63514826 4.64082945 -16.0889735 2.80487482 -13.23754883 0.92407227 C-8.0371742 -2.35347477 -5.70218558 -1.89424417 0 0 Z " fill="#D0DBFC" transform="translate(335.862548828125,114.950927734375)"/>
<path d="M0 0 C24.39352612 -0.68039794 48.67915042 1.341087 73 3 C73 9.6 73 16.2 73 23 C56.3168638 22.36968556 39.6615787 21.48869187 23 20.4375 C20.74871185 20.29730216 18.49740979 20.15732735 16.24609375 20.01757812 C10.83056651 19.68093958 5.41523273 19.34134205 0 19 C0 12.73 0 6.46 0 0 Z " fill="#90AFF1" transform="translate(290,285)"/>
<path d="M0 0 C0.33 0 0.66 0 1 0 C0.96811584 0.54520294 0.93623169 1.09040588 0.90338135 1.65213013 C-1.53959032 26.20112511 -1.53959032 26.20112511 3.84912109 49.45605469 C8.20769986 54.16431097 13.3498694 56.74681728 19.31591797 58.93359375 C23.85290845 60.73617465 27.89083006 63.38833775 32 66 C28.26601 72.55331386 24.52858165 78.96189113 20 85 C19.67 84.01 19.34 83.02 19 82 C17.34710742 81.29987976 15.67651808 80.64148996 14 80 C11.60595965 78.49709019 9.26778111 76.97011326 6.9375 75.375 C5.61202312 74.47910163 4.28650161 73.58326929 2.9609375 72.6875 C1.9704541 72.01460937 1.9704541 72.01460937 0.95996094 71.328125 C-1.99429672 69.32623641 -4.96604188 67.35126668 -7.9375 65.375 C-9.625 64.25 -11.3125 63.125 -13 62 C-11.01675703 60.46162879 -9.08778732 59.04908644 -6.89453125 57.82272339 C-3.52455152 55.80110108 -1.36965149 54.29277173 -0.26171875 50.41802979 C0.02286091 47.19467402 0.05567597 44.05578518 0 40.8203125 C0.01087646 39.6524118 0.02175293 38.48451111 0.03295898 37.28121948 C0.05909454 33.56153865 0.0302837 29.84460734 0 26.125 C0.00809218 23.59894411 0.01976965 21.07289699 0.03515625 18.546875 C0.06499453 12.36408202 0.04976043 6.1826372 0 0 Z " fill="#6665F0" transform="translate(241,325)"/>
<path d="M0 0 C0.05607422 1.21236328 0.05607422 1.21236328 0.11328125 2.44921875 C0.17902344 3.51785156 0.24476563 4.58648437 0.3125 5.6875 C0.37050781 6.74324219 0.42851562 7.79898438 0.48828125 8.88671875 C1.04356897 12.26507231 1.9926525 14.24919046 4 17 C4.66 17.33 5.32 17.66 6 18 C6 18.66 6 19.32 6 20 C1.17745574 22.42359485 -3.6463741 24.844604 -8.47143555 27.26318359 C-10.11404814 28.08701048 -11.75630169 28.91155366 -13.39819336 29.73681641 C-15.75281142 30.92016292 -18.10869185 32.10096109 -20.46484375 33.28125 C-21.20339096 33.65310425 -21.94193817 34.0249585 -22.7028656 34.40808105 C-27.88612829 37 -27.88612829 37 -29 37 C-29.01417969 36.05898437 -29.02835938 35.11796875 -29.04296875 34.1484375 C-29.09066406 32.90320313 -29.13835937 31.65796875 -29.1875 30.375 C-29.22230469 29.14523438 -29.25710937 27.91546875 -29.29296875 26.6484375 C-30.18997297 22.01969751 -31.7713407 20.34709497 -35 17 C-16.91081007 7.40988567 -16.91081007 7.40988567 -7.9375 2.875 C-6.83277344 2.31554687 -5.72804688 1.75609375 -4.58984375 1.1796875 C-2 0 -2 0 0 0 Z " fill="#6965F6" transform="translate(280,159)"/>
<path d="M0 0 C2.77718866 1.06707417 5.20460302 2.12555185 7.75 3.6875 C12.10441999 5.44601576 15.46828192 4.83585022 20 4 C20.37739565 17.08304907 19.21618838 29.98257939 18 43 C17.32380615 42.64341309 16.6476123 42.28682617 15.95092773 41.91943359 C15.05833252 41.45875488 14.1657373 40.99807617 13.24609375 40.5234375 C12.3636499 40.06372559 11.48120605 39.60401367 10.57202148 39.13037109 C6.12353364 37.17531664 2.51015567 37.49661478 -2 39 C-2.13410739 30.00456084 -1.75578753 21.14971026 -1 12.1875 C-0.90460938 11.00607422 -0.80921875 9.82464844 -0.7109375 8.60742188 C-0.47858506 5.73786929 -0.24155526 2.86878997 0 0 Z " fill="#6865F6" transform="translate(188,258)"/>
<path d="M0 0 C7.21982891 4.55379117 14.39558257 9.17602421 21.5625 13.8125 C22.45549805 14.38766357 23.34849609 14.96282715 24.26855469 15.55541992 C25.1093457 16.10045166 25.95013672 16.6454834 26.81640625 17.20703125 C27.57381104 17.6966333 28.33121582 18.18623535 29.11157227 18.69067383 C31 20 31 20 33 22 C32.31292969 22.38671875 31.62585938 22.7734375 30.91796875 23.171875 C30.01691406 23.69265625 29.11585938 24.2134375 28.1875 24.75 C26.84751953 25.51570313 26.84751953 25.51570313 25.48046875 26.296875 C22.03582027 28.66201947 20.32717735 30.69129061 19.3125 34.75 C19.209375 35.4925 19.10625 36.235 19 37 C12.31964055 33.35443241 6.0633153 29.11675872 -0.25 24.875 C-1.33796875 24.14667969 -2.4259375 23.41835937 -3.546875 22.66796875 C-5.55441803 21.32380937 -7.56132612 19.97870083 -9.56738281 18.63232422 C-11.37624548 17.41854905 -13.18749836 16.20833443 -15 15 C-14.24074219 14.61328125 -13.48148437 14.2265625 -12.69921875 13.828125 C-11.70535156 13.30734375 -10.71148437 12.7865625 -9.6875 12.25 C-8.70136719 11.73953125 -7.71523438 11.2290625 -6.69921875 10.703125 C-2.99048197 8.3630248 -1.37869742 6.51478968 -0.3125 2.25 C-0.209375 1.5075 -0.10625 0.765 0 0 Z " fill="#6865F6" transform="translate(379,167)"/>
<path d="M0 0 C0.78310547 0.54140625 0.78310547 0.54140625 1.58203125 1.09375 C2.31808594 1.5578125 3.05414063 2.021875 3.8125 2.5 C4.52019531 2.9640625 5.22789062 3.428125 5.95703125 3.90625 C10.57930154 5.56765652 15.13764039 5.19216703 20 5 C19.4681716 18.01013024 18.88620234 31.00865083 18 44 C17.13117188 43.4946875 16.26234375 42.989375 15.3671875 42.46875 C14.20350241 41.811831 13.03941845 41.15561821 11.875 40.5 C10.73804688 39.8503125 9.60109375 39.200625 8.4296875 38.53125 C4.89832988 36.95460742 2.8087199 36.60256836 -1 37 C-1.99 37.495 -1.99 37.495 -3 38 C-2.73797997 33.39157488 -2.47132332 28.78344973 -2.20043945 24.17553711 C-2.10900665 22.60920411 -2.01882267 21.04279767 -1.92993164 19.47631836 C-1.8016567 17.21968263 -1.66883552 14.96335251 -1.53515625 12.70703125 C-1.49656998 12.01100296 -1.4579837 11.31497467 -1.41822815 10.59785461 C-1.19958959 6.98556663 -0.81546171 3.52769335 0 0 Z " fill="#6965F6" transform="translate(434,274)"/>
<path d="M0 0 C0.04898437 0.67546875 0.09796875 1.3509375 0.1484375 2.046875 C0.22320312 2.93890625 0.29796875 3.8309375 0.375 4.75 C0.44460938 5.63171875 0.51421875 6.5134375 0.5859375 7.421875 C1.43953343 12.73671758 3.70731724 14.83697059 8 18 C5.2118978 19.5066972 2.41896042 21.00419804 -0.375 22.5 C-1.1690625 22.92925781 -1.963125 23.35851562 -2.78125 23.80078125 C-3.92207031 24.40986328 -3.92207031 24.40986328 -5.0859375 25.03125 C-5.7876709 25.40830078 -6.4894043 25.78535156 -7.21240234 26.17382812 C-9 27 -9 27 -11 27 C-11.33 27.66 -11.66 28.32 -12 29 C-14.97 22.73 -17.94 16.46 -21 10 C-18.27772607 7.95829455 -16.35012013 6.5532598 -13.3984375 5.17578125 C-12.74359375 4.86962891 -12.08875 4.56347656 -11.4140625 4.24804688 C-10.40472656 3.78495117 -10.40472656 3.78495117 -9.375 3.3125 C-8.694375 2.99216797 -8.01375 2.67183594 -7.3125 2.34179688 C-2.25941165 0 -2.25941165 0 0 0 Z " fill="#6965F5" transform="translate(387,381)"/>
<path d="M0 0 C0.33 0 0.66 0 1 0 C1.24234375 1.01578125 1.4846875 2.0315625 1.734375 3.078125 C3.57780455 10.68934594 5.57423243 18.14800964 8.16796875 25.546875 C8.8937165 27.68663833 9.4911659 29.80019198 10 32 C5.50792022 31.22641288 1.26728329 29.88902305 -3.0625 28.5 C-8.99025168 26.60733986 -8.99025168 26.60733986 -15 25 C-13.67370498 21.41417984 -12.07863922 18.33953445 -9.99609375 15.13671875 C-9.42052734 14.25048828 -8.84496094 13.36425781 -8.25195312 12.45117188 C-7.65318359 11.53916016 -7.05441406 10.62714844 -6.4375 9.6875 C-5.53354492 8.29047852 -5.53354492 8.29047852 -4.61132812 6.86523438 C-1.29031729 1.77749051 -1.29031729 1.77749051 0 0 Z " fill="#CFD9FB" transform="translate(287,406)"/>
<path d="M0 0 C2.8100346 1.79363911 4.50940468 3.01880935 6 6 C6.50698467 11.15434412 6.50698467 11.15434412 6 14 C3.5625 16.9375 3.5625 16.9375 1 19 C0.67 19.33 0.34 19.66 0 20 C-4.68843466 20.13561588 -8.14729851 19.57426835 -12.0625 16.9375 C-14.24502521 13.62851017 -14.6757183 11.81492367 -14.43359375 7.93359375 C-13.75194607 4.89381354 -12.19767713 3.13303956 -10 1 C-6.79826746 -0.60086627 -3.47422941 -0.49917089 0 0 Z " fill="#6966F6" transform="translate(275,475)"/>
<path d="M0 0 C3.5542299 0.64622362 5.59136218 1.42940796 8.4375 3.625 C11.11446661 7.64044992 11.36267507 10.90825925 10.4375 15.625 C7.8460135 18.79957096 6.36314305 20.17080349 2.43359375 21.09765625 C-1.62309387 21.39786653 -3.38026115 20.77621947 -6.5 18.1875 C-7.180625 17.341875 -7.86125 16.49625 -8.5625 15.625 C-8.8925 15.295 -9.2225 14.965 -9.5625 14.625 C-10.03923203 11.21977124 -10.13648765 8.68482719 -8.46875 5.60546875 C-5.81531759 2.14048121 -4.39645644 0.77130815 0 0 Z " fill="#6966F6" transform="translate(317.5625,500.375)"/>
<path d="M0 0 C3.5386994 1.65139305 4.81070153 2.71605229 7 6 C7.57609682 11.10257186 7.57609682 11.10257186 7 14 C4.5625 16.9375 4.5625 16.9375 2 19 C1.67 19.33 1.34 19.66 1 20 C-3.72308557 20.13661818 -7.15232759 19.58818086 -11.0625 16.875 C-13.52005404 13.22830691 -13.61758081 11.32306567 -13 7 C-10.07206868 0.72586146 -6.78388043 -0.58481728 0 0 Z " fill="#6A66F7" transform="translate(370,484)"/>
</svg>
