<?xml version="1.0" encoding="UTF-8"?>
<svg version="1.1" xmlns="http://www.w3.org/2000/svg" width="640" height="640">
<path d="M0 0 C211.2 0 422.4 0 640 0 C640 211.2 640 422.4 640 640 C428.8 640 217.6 640 0 640 C0 428.8 0 217.6 0 0 Z " fill="#FEFEFE" transform="translate(0,0)"/>
<path d="M0 0 C3.747803 1.77707605 7.30334156 3.83225417 10.875 5.9375 C11.88353027 6.52217041 12.89206055 7.10684082 13.93115234 7.70922852 C15.98085202 8.89923541 18.0279173 10.09379191 20.07226562 11.29296875 C22.73739037 12.84688404 25.41757194 14.36793183 28.109375 15.875 C29.61482497 16.72874071 31.120049 17.58288002 32.625 18.4375 C33.3041748 18.81318115 33.98334961 19.1888623 34.68310547 19.57592773 C39.05491164 22.10009223 42.27440636 24.62974075 45 29 C45.56034909 32.16069682 45.4781923 35.17841322 45.3125 38.375 C45.27866211 39.62216797 45.27866211 39.62216797 45.24414062 40.89453125 C45.18563654 42.93047353 45.09596795 44.96547945 45 47 C45.69738281 46.97679687 46.39476562 46.95359375 47.11328125 46.9296875 C60.118364 46.70737839 73.04839133 47.94615779 86 49 C85.95359375 48.11957031 85.9071875 47.23914063 85.859375 46.33203125 C85.82328125 45.17058594 85.7871875 44.00914062 85.75 42.8125 C85.70359375 41.66394531 85.6571875 40.51539063 85.609375 39.33203125 C86.08598474 35.26655013 87.10225993 33.84645532 90 31 C92.6027832 29.19824219 92.6027832 29.19824219 95.55078125 27.546875 C97.17693359 26.62370483 97.17693359 26.62370483 98.8359375 25.68188477 C99.98320312 25.04436279 101.13046875 24.40684082 102.3125 23.75 C104.67516568 22.42409305 107.03491455 21.09304222 109.39453125 19.76171875 C110.5335791 19.12024902 111.67262695 18.4787793 112.84619141 17.81787109 C115.51346423 16.28044166 118.11622691 14.69299441 120.69921875 13.01953125 C121.35817139 12.59639648 122.01712402 12.17326172 122.69604492 11.73730469 C124.35952051 10.65398563 126.00861371 9.54866678 127.65625 8.44140625 C132.91103411 6.17620142 137.8834135 5.8775173 143.3203125 7.83569336 C145.70855897 9.01354718 147.9713399 10.30971642 150.25 11.6875 C151.09046875 12.17428223 151.9309375 12.66106445 152.796875 13.16259766 C154.59468081 14.20790276 156.38688295 15.26289541 158.17382812 16.32666016 C161.11352635 18.06721749 164.07680492 19.76107353 167.046875 21.44921875 C169.03205428 22.58974707 171.01644831 23.73164341 173 24.875 C173.9374707 25.40955811 174.87494141 25.94411621 175.84082031 26.49487305 C176.71834961 27.00961182 177.59587891 27.52435059 178.5 28.0546875 C179.2734375 28.50312012 180.046875 28.95155273 180.84375 29.41357422 C183.68489641 31.50390137 185.21970358 32.89266825 187 36 C187.59303889 39.95690914 187.5602688 43.87615488 187.53125 47.87109375 C187.5350769 49.02617935 187.53890381 50.18126495 187.54284668 51.37135315 C187.5455658 53.8114611 187.53820477 56.25159821 187.52148438 58.69165039 C187.50009608 62.4207484 187.52127801 66.14791538 187.546875 69.87695312 C187.54423134 72.25000424 187.53910559 74.62305416 187.53125 76.99609375 C187.53934692 78.10875107 187.54744385 79.22140839 187.55578613 80.36778259 C187.48133301 86.53552799 187.22441461 90.36306705 183 95 C181.26074219 96.41552734 181.26074219 96.41552734 179.546875 97.3359375 C178.928125 97.67753906 178.309375 98.01914063 177.671875 98.37109375 C177.03765625 98.70238281 176.4034375 99.03367187 175.75 99.375 C175.1003125 99.72949219 174.450625 100.08398438 173.78125 100.44921875 C172.19455263 101.31256879 170.59821382 102.1581601 169 103 C170.39215052 107.4986691 172.17068876 111.60530974 174.2578125 115.82421875 C174.88942745 117.11257897 175.52093475 118.40099196 176.15234375 119.68945312 C177.14236258 121.69834784 178.13429644 123.70626706 179.12841797 125.71313477 C180.09325268 127.66439788 181.05088836 129.61906699 182.0078125 131.57421875 C182.58160645 132.73526123 183.15540039 133.89630371 183.74658203 135.0925293 C185 138 185 138 185 141 C185.72445313 140.566875 186.44890625 140.13375 187.1953125 139.6875 C188.16210938 139.130625 189.12890625 138.57375 190.125 138 C191.07632812 137.443125 192.02765625 136.88625 193.0078125 136.3125 C196.39666445 134.82600619 198.33086945 134.70619572 202 135 C204.61450195 136.12646484 204.61450195 136.12646484 207.23828125 137.7109375 C208.21563232 138.29174072 209.1929834 138.87254395 210.19995117 139.47094727 C211.22709229 140.09928467 212.2542334 140.72762207 213.3125 141.375 C215.46088177 142.66285339 217.60931963 143.95061321 219.7578125 145.23828125 C220.81387695 145.87717285 221.86994141 146.51606445 222.95800781 147.17431641 C225.68154663 148.80887686 228.42121349 150.40582627 231.1796875 151.98046875 C231.94885498 152.42148926 232.71802246 152.86250977 233.51049805 153.31689453 C234.9155086 154.12079314 236.32305678 154.92028032 237.73364258 155.71435547 C238.36165771 156.07803223 238.98967285 156.44170898 239.63671875 156.81640625 C240.43662231 157.27188843 240.43662231 157.27188843 241.25268555 157.73657227 C241.82929932 158.15350342 242.40591309 158.57043457 243 159 C243.88067139 159.62447021 244.76134277 160.24894043 245.66870117 160.89233398 C249.22941974 165.63884007 248.7164487 170.12051967 248.6640625 175.90625 C248.66884613 177.06370728 248.67362976 178.22116455 248.67855835 179.41369629 C248.681957 181.85800538 248.67275725 184.30235995 248.65185547 186.74658203 C248.62509277 190.48703408 248.65160805 194.22448499 248.68359375 197.96484375 C248.68028965 200.34115245 248.67388342 202.71745929 248.6640625 205.09375 C248.67418365 206.2115686 248.68430481 207.32938721 248.69473267 208.4810791 C248.57772019 216.23635167 248.57772019 216.23635167 245.63696289 220.12353516 C240.79605501 223.56832897 235.72397672 226.51722738 230.58349609 229.48242188 C227.54730713 231.26591749 224.55106272 233.10988904 221.55078125 234.953125 C219.82056719 235.99885827 218.08807247 237.04065801 216.35409546 238.08013916 C214.65237355 239.10845866 212.96432836 240.15930238 211.27661133 241.21044922 C201.37309229 247.09087369 201.37309229 247.09087369 195.03710938 245.71875 C191.57776114 244.49819377 188.53543484 242.88930008 185.4375 240.9375 C184.49680664 240.37192383 184.49680664 240.37192383 183.53710938 239.79492188 C182.01600365 238.87761384 180.50665451 237.94085538 179 237 C178.7328418 237.7312207 178.46568359 238.46244141 178.19042969 239.21582031 C177.01692468 241.96041652 175.68216002 244.1216677 173.953125 246.546875 C173.355 247.3925 172.756875 248.238125 172.140625 249.109375 C171.51671875 249.98078125 170.8928125 250.8521875 170.25 251.75 C164.84781797 259.3474498 164.84781797 259.3474498 159.546875 267.015625 C159.05541992 267.73524414 158.56396484 268.45486328 158.05761719 269.19628906 C156.83139487 270.93906135 156.83139487 270.93906135 157 273 C158.9518669 274.52034596 158.9518669 274.52034596 161.375 276 C163.84952162 277.57112484 165.92383041 278.92383041 168 281 C168.26742554 283.25691223 168.26742554 283.25691223 168.29052734 286.10473633 C168.30328705 287.16956741 168.31604675 288.2343985 168.32919312 289.33149719 C168.33253159 291.06426155 168.33253159 291.06426155 168.3359375 292.83203125 C168.3425943 294.01592941 168.3492511 295.19982758 168.35610962 296.41960144 C168.36625149 298.92888837 168.37092617 301.43820236 168.37060547 303.94750977 C168.37497035 307.78642372 168.41125322 311.6241809 168.44921875 315.46289062 C168.45508818 317.89843356 168.45905673 320.33398197 168.4609375 322.76953125 C168.47530853 323.9186348 168.48967957 325.06773834 168.50448608 326.25166321 C168.45890772 334.20911649 168.45890772 334.20911649 166.18701172 338.12451172 C164.33838031 339.70981943 162.67777689 341.07417744 160.546875 342.23828125 C159.928125 342.58310547 159.309375 342.92792969 158.671875 343.28320312 C158.03765625 343.62287109 157.4034375 343.96253906 156.75 344.3125 C156.1003125 344.67150391 155.450625 345.03050781 154.78125 345.40039062 C153.19270247 346.27642786 151.59704858 347.13955805 150 348 C153.44373411 353.36346277 157.0735975 358.44093973 161.10083008 363.38012695 C172.43096659 377.31711475 180.44775457 390.50544515 179 409 C176.28038187 422.47376525 169.76798496 433.56625397 158.65234375 441.72265625 C148.10521151 448.52564012 136.09038614 449.74837746 123.875 451.3125 C122.27085894 451.5236653 120.66677528 451.73526695 119.06274414 451.94726562 C103.43746248 453.99742451 87.79008825 455.87790469 72.14331055 457.75561523 C60.99547741 459.09988184 49.87749534 460.56227814 38.76928711 462.20117188 C-4.61965001 468.60145899 -4.61965001 468.60145899 -23 455 C-31.60221725 447.99627906 -37.75888268 437.70780998 -39.33349609 426.66015625 C-39.50849725 424.24524053 -39.55669431 421.85847318 -39.5625 419.4375 C-39.59923828 418.65826172 -39.63597656 417.87902344 -39.67382812 417.07617188 C-39.77972048 402.28653974 -30.4572966 386.8833174 -24.625 373.625 C-23.52165804 371.11490908 -22.41961206 368.60429587 -21.32211304 366.09164429 C-20.64672014 364.5453894 -19.96800226 363.00058148 -19.28555298 361.45742798 C-17.59225523 357.86397237 -17.59225523 357.86397237 -17 354 C-17.66 354.33 -18.32 354.66 -19 355 C-25.61797772 355.76913917 -29.54578978 353.54472849 -35.0625 350.3125 C-35.917229 349.82499268 -36.77195801 349.33748535 -37.65258789 348.83520508 C-39.48246731 347.78693494 -41.30812361 346.73126465 -43.12988281 345.66894531 C-46.08211626 343.95225019 -49.05134654 342.26798188 -52.0234375 340.5859375 C-53.99570685 339.45471912 -55.96708334 338.32194241 -57.9375 337.1875 C-58.8663501 336.6613208 -59.7952002 336.1351416 -60.75219727 335.59301758 C-61.62674561 335.08150146 -62.50129395 334.56998535 -63.40234375 334.04296875 C-64.17054443 333.59977295 -64.93874512 333.15657715 -65.73022461 332.69995117 C-69.71123968 329.71836486 -72.56768329 327.44970665 -73.4495697 322.45252991 C-73.6290835 319.28889059 -73.64043733 316.16450882 -73.59375 312.99609375 C-73.59379028 311.84005142 -73.59383057 310.68400909 -73.59387207 309.49293518 C-73.58852153 307.05456084 -73.57095909 304.61618666 -73.54199219 302.17797852 C-73.50010544 298.44689232 -73.50092867 294.71761004 -73.5078125 290.98632812 C-73.49732079 288.6145708 -73.4843828 286.24282276 -73.46875 283.87109375 C-73.46854858 282.7564122 -73.46834717 281.64173065 -73.46813965 280.49327087 C-73.45222778 279.45191483 -73.43631592 278.41055878 -73.41992188 277.33764648 C-73.41150269 276.42530746 -73.4030835 275.51296844 -73.39440918 274.57298279 C-72.81627089 270.80141776 -71.24939475 268.01390116 -68.2824707 265.60620117 C-67.66976318 265.25533447 -67.05705566 264.90446777 -66.42578125 264.54296875 C-65.75869141 264.15302734 -65.09160156 263.76308594 -64.40429688 263.36132812 C-63.71400391 262.97396484 -63.02371094 262.58660156 -62.3125 262.1875 C-61.61060547 261.78080078 -60.90871094 261.37410156 -60.18554688 260.95507812 C-58.46326148 259.95919882 -56.73244601 258.97809682 -55 258 C-56.40272684 253.47876456 -58.1869574 249.32497843 -60.2578125 245.0703125 C-60.56572723 244.43511688 -60.87364197 243.79992126 -61.19088745 243.14547729 C-62.16549367 241.13696251 -63.14515331 239.13096259 -64.125 237.125 C-64.79070141 235.75537199 -65.45606933 234.38558185 -66.12109375 233.015625 C-67.74354458 229.67520006 -69.37053387 226.33700953 -71 223 C-75.07051191 224.25964957 -75.07051191 224.25964957 -78.875 226.125 C-82.32039346 227.54369143 -85.38539721 227.62109059 -89 227 C-93.1652748 225.24699137 -96.9913254 222.98855197 -100.875 220.6875 C-101.96893066 220.05465088 -103.06286133 219.42180176 -104.18994141 218.76977539 C-107.47028339 216.86355299 -110.73519902 214.93268157 -114 213 C-115.84326682 211.93145772 -117.68698011 210.86368507 -119.53125 209.796875 C-121.14714987 208.84598372 -122.76182257 207.89300258 -124.375 206.9375 C-125.11089355 206.50977295 -125.84678711 206.0820459 -126.60498047 205.64135742 C-127.27932129 205.23248291 -127.95366211 204.8236084 -128.6484375 204.40234375 C-129.22770996 204.05679443 -129.80698242 203.71124512 -130.40380859 203.35522461 C-133.27862486 200.91440095 -134.83490657 198.14104633 -135.3742218 194.41355896 C-135.37359238 193.49518753 -135.37296295 192.5768161 -135.37231445 191.63061523 C-135.37854324 190.5828038 -135.38477203 189.53499237 -135.39118958 188.45542908 C-135.38197983 187.33447342 -135.37277008 186.21351776 -135.36328125 185.05859375 C-135.36377975 183.8987648 -135.36427826 182.73893585 -135.36479187 181.54396057 C-135.36245418 179.0954517 -135.35274372 176.6469403 -135.33618164 174.19848633 C-135.31256524 170.44786132 -135.31562638 166.69794622 -135.32226562 162.94726562 C-135.31668951 160.56770409 -135.30958004 158.18814555 -135.30078125 155.80859375 C-135.30169266 154.68561386 -135.30260406 153.56263397 -135.30354309 152.40562439 C-135.29401108 151.36096512 -135.28447906 150.31630585 -135.2746582 149.23999023 C-135.27005081 148.3224144 -135.26544342 147.40483856 -135.26069641 146.4594574 C-134.97951335 143.80672525 -134.44933455 142.2299446 -133 140 C-130.68882529 138.42009541 -128.43835658 137.04245783 -126 135.6875 C-125.27611084 135.2737915 -124.55222168 134.86008301 -123.80639648 134.43383789 C-122.15951806 133.49288554 -120.51016535 132.55625573 -118.85888672 131.62304688 C-115.61575412 129.78185597 -112.38684817 127.91665598 -109.16015625 126.046875 C-104.53745233 123.3696964 -99.91364175 120.69451887 -95.28515625 118.02734375 C-94.31457275 117.46781006 -93.34398926 116.90827637 -92.34399414 116.33178711 C-88.52099059 114.15967125 -86.46949205 113.57854615 -82 114 C-79.3016959 115.12601894 -76.8252127 116.57376122 -74.3125 118.0625 C-71.89855026 119.48178046 -69.51989496 120.76200283 -67 122 C-62.90976185 120.63658728 -61.59488191 117.86765597 -59.33203125 114.41015625 C-58.89235519 113.7504332 -58.45267914 113.09071014 -57.99967957 112.41099548 C-57.07218607 111.01556433 -56.14864062 109.61750219 -55.22875977 108.21704102 C-53.81643146 106.06848089 -52.39076815 103.9292653 -50.96289062 101.79101562 C-50.06430089 100.43542797 -49.16648766 99.07932519 -48.26953125 97.72265625 C-47.84146683 97.0799025 -47.4134024 96.43714874 -46.97236633 95.7749176 C-44.73391297 92.64963077 -44.73391297 92.64963077 -44 89 C-45.95030467 87.66653588 -47.99004369 86.56108684 -50.0546875 85.4140625 C-52.34934451 83.74605881 -52.94559599 82.61572786 -54 80 C-54.27415466 77.62319946 -54.27415466 77.62319946 -54.30639648 74.95947266 C-54.32238388 73.95808258 -54.33837128 72.9566925 -54.35484314 71.92495728 C-54.36288719 70.31081436 -54.36288719 70.31081436 -54.37109375 68.6640625 C-54.38012222 67.55195404 -54.3891507 66.43984558 -54.39845276 65.29403687 C-54.41295584 62.94214572 -54.42184213 60.59021421 -54.42553711 58.23828125 C-54.43743332 54.64514013 -54.48662133 51.05371624 -54.53710938 47.4609375 C-54.54657374 45.17448754 -54.55380871 42.88802704 -54.55859375 40.6015625 C-54.57812607 39.52951569 -54.59765839 38.45746887 -54.61778259 37.35293579 C-54.56753478 29.02179037 -54.56753478 29.02179037 -51.81591797 25.49682617 C-49.09527603 23.08447962 -46.55330906 21.22719113 -43.38671875 19.44921875 C-42.31075439 18.83691406 -41.23479004 18.22460938 -40.1262207 17.59375 C-38.99144287 16.9646875 -37.85666504 16.335625 -36.6875 15.6875 C-35.51278916 15.02819081 -34.33855652 14.36802888 -33.16479492 13.70703125 C-30.84521824 12.40191924 -28.52270639 11.10260202 -26.19824219 9.80615234 C-23.42887238 8.24219831 -20.6961794 6.6366193 -17.9765625 4.98828125 C-17.25895752 4.5600708 -16.54135254 4.13186035 -15.80200195 3.69067383 C-14.52140409 2.92426374 -13.24832902 2.14506598 -11.98510742 1.3503418 C-7.55772708 -1.2473655 -4.89838804 -1.42211266 0 0 Z " fill="#6965F6" transform="translate(263,107)"/>
<path d="M0 0 C2.61450195 1.12646484 2.61450195 1.12646484 5.23828125 2.7109375 C6.70430786 3.58214233 6.70430786 3.58214233 8.19995117 4.47094727 C9.22709229 5.09928467 10.2542334 5.72762207 11.3125 6.375 C13.46088177 7.66285339 15.60931963 8.95061321 17.7578125 10.23828125 C18.81387695 10.87717285 19.86994141 11.51606445 20.95800781 12.17431641 C23.68154663 13.80887686 26.42121349 15.40582627 29.1796875 16.98046875 C29.94885498 17.42148926 30.71802246 17.86250977 31.51049805 18.31689453 C32.9155086 19.12079314 34.32305678 19.92028032 35.73364258 20.71435547 C36.36165771 21.07803223 36.98967285 21.44170898 37.63671875 21.81640625 C38.43662231 22.27188843 38.43662231 22.27188843 39.25268555 22.73657227 C39.82929932 23.15350342 40.40591309 23.57043457 41 24 C42.32100708 24.93670532 42.32100708 24.93670532 43.66870117 25.89233398 C47.22941974 30.63884007 46.7164487 35.12051967 46.6640625 40.90625 C46.66884613 42.06370728 46.67362976 43.22116455 46.67855835 44.41369629 C46.681957 46.85800538 46.67275725 49.30235995 46.65185547 51.74658203 C46.62509277 55.48703408 46.65160805 59.22448499 46.68359375 62.96484375 C46.68028965 65.34115245 46.67388342 67.71745929 46.6640625 70.09375 C46.67418365 71.2115686 46.68430481 72.32938721 46.69473267 73.4810791 C46.57772019 81.23635167 46.57772019 81.23635167 43.63696289 85.12353516 C38.79605501 88.56832897 33.72397672 91.51722738 28.58349609 94.48242188 C25.54730713 96.26591749 22.55106272 98.10988904 19.55078125 99.953125 C17.82056719 100.99885827 16.08807247 102.04065801 14.35409546 103.08013916 C12.65237355 104.10845866 10.96432836 105.15930238 9.27661133 106.21044922 C-0.62690771 112.09087369 -0.62690771 112.09087369 -6.96289062 110.71875 C-10.42223886 109.49819377 -13.46456516 107.88930008 -16.5625 105.9375 C-17.18962891 105.56044922 -17.81675781 105.18339844 -18.46289062 104.79492188 C-19.98399635 103.87761384 -21.49334549 102.94085538 -23 102 C-23.4007373 103.09683105 -23.4007373 103.09683105 -23.80957031 104.21582031 C-24.98307532 106.96041652 -26.31783998 109.1216677 -28.046875 111.546875 C-28.645 112.3925 -29.243125 113.238125 -29.859375 114.109375 C-30.48328125 114.98078125 -31.1071875 115.8521875 -31.75 116.75 C-37.15218203 124.3474498 -37.15218203 124.3474498 -42.453125 132.015625 C-42.94458008 132.73524414 -43.43603516 133.45486328 -43.94238281 134.19628906 C-45.16860513 135.93906135 -45.16860513 135.93906135 -45 138 C-43.0481331 139.52034596 -43.0481331 139.52034596 -40.625 141 C-38.15047838 142.57112484 -36.07616959 143.92383041 -34 146 C-33.73257446 148.25691223 -33.73257446 148.25691223 -33.70947266 151.10473633 C-33.69671295 152.16956741 -33.68395325 153.2343985 -33.67080688 154.33149719 C-33.66858124 155.48667343 -33.66635559 156.64184967 -33.6640625 157.83203125 C-33.6540773 159.60787849 -33.6540773 159.60787849 -33.64389038 161.41960144 C-33.63374851 163.92888837 -33.62907383 166.43820236 -33.62939453 168.94750977 C-33.62502965 172.78642372 -33.58874678 176.6241809 -33.55078125 180.46289062 C-33.54491182 182.89843356 -33.54094327 185.33398197 -33.5390625 187.76953125 C-33.52469147 188.9186348 -33.51032043 190.06773834 -33.49551392 191.25166321 C-33.54109228 199.20911649 -33.54109228 199.20911649 -35.81298828 203.12451172 C-37.66161969 204.70981943 -39.32222311 206.07417744 -41.453125 207.23828125 C-42.071875 207.58310547 -42.690625 207.92792969 -43.328125 208.28320312 C-43.96234375 208.62287109 -44.5965625 208.96253906 -45.25 209.3125 C-46.22453125 209.85100586 -46.22453125 209.85100586 -47.21875 210.40039062 C-48.80729753 211.27642786 -50.40295142 212.13955805 -52 213 C-48.55626589 218.36346277 -44.9264025 223.44093973 -40.89916992 228.38012695 C-29.56903341 242.31711475 -21.55224543 255.50544515 -23 274 C-25.71961813 287.47376525 -32.23201504 298.56625397 -43.34765625 306.72265625 C-53.89478849 313.52564012 -65.90961386 314.74837746 -78.125 316.3125 C-79.72914106 316.5236653 -81.33322472 316.73526695 -82.93725586 316.94726562 C-98.56253752 318.99742451 -114.20991175 320.87790469 -129.85668945 322.75561523 C-141.00452259 324.09988184 -152.12250466 325.56227814 -163.23071289 327.20117188 C-206.61965001 333.60145899 -206.61965001 333.60145899 -225 320 C-233.60221725 312.99627906 -239.75888268 302.70780998 -241.33349609 291.66015625 C-241.50849725 289.24524053 -241.55669431 286.85847318 -241.5625 284.4375 C-241.59923828 283.65826172 -241.63597656 282.87902344 -241.67382812 282.07617188 C-241.73572491 273.43125436 -238.28459862 265.83052166 -235 258 C-234.71168304 257.31138885 -234.42336609 256.62277771 -234.12631226 255.91329956 C-232.30961299 251.60408005 -230.44580508 247.31635661 -228.56533813 243.03463745 C-226.80930088 239.03408308 -225.06819298 235.02705238 -223.328125 231.01953125 C-222.7925573 229.78632896 -222.7925573 229.78632896 -222.24617004 228.5282135 C-218.34953858 219.53362861 -214.57091185 210.49054473 -210.8125 201.4375 C-210.50289337 200.69181763 -210.19328674 199.94613525 -209.8742981 199.17785645 C-207.443586 193.32062099 -205.01356218 187.46309929 -202.6003418 181.59863281 C-200.80504911 177.2518123 -199.00021805 172.92756892 -196.98046875 168.6796875 C-196.5309082 167.72255859 -196.5309082 167.72255859 -196.07226562 166.74609375 C-195.47580224 165.48469878 -194.86608046 164.22949905 -194.24414062 162.98046875 C-190.32334093 154.48396656 -192.02625627 145.3427415 -193.3125 136.35546875 C-193.44567627 135.38265457 -193.57885254 134.40984039 -193.71606445 133.407547 C-194.13773027 130.3332864 -194.56823047 127.26035644 -195 124.1875 C-195.43057613 121.0966473 -195.85917957 118.0055527 -196.28393555 114.91389465 C-196.54736637 112.99907089 -196.81429797 111.08472455 -197.08520508 109.17094421 C-197.20532959 108.30266495 -197.3254541 107.43438568 -197.44921875 106.53979492 C-197.60910278 105.40256233 -197.60910278 105.40256233 -197.7722168 104.24235535 C-198.01884205 101.81451408 -198.03787855 99.4386832 -198 97 C-199.03125 96.773125 -200.0625 96.54625 -201.125 96.3125 C-205.85892603 94.9257944 -209.36716688 92.46701778 -212.08813477 88.35595703 C-215.07751175 82.70844424 -216.01982323 77.30529117 -216.75 71 C-216.93755859 69.58074219 -216.93755859 69.58074219 -217.12890625 68.1328125 C-219.23653267 51.41076553 -219.23653267 51.41076553 -214 44 C-209.08735778 38.73811781 -204.13349866 36.01734351 -196.90625 35.32421875 C-195.38704956 35.16928955 -195.38704956 35.16928955 -193.8371582 35.01123047 C-192.735896 34.90439941 -191.63463379 34.79756836 -190.5 34.6875 C-178.73692919 33.46930199 -167.02771808 31.98242275 -155.3125 30.375 C-154.5090918 30.26481537 -153.70568359 30.15463074 -152.87792969 30.04110718 C-148.3675936 29.42225191 -148.3675936 29.42225191 -143.85786438 28.79899597 C-120.36992896 25.55023157 -120.36992896 25.55023157 -113 30 C-103.42617481 39.02674947 -103.04803405 48.54989294 -102 61 C-101.88914062 62.23878906 -101.77828125 63.47757812 -101.6640625 64.75390625 C-101.32922776 71.50640683 -102.1864429 75.69977968 -106.19921875 81.1953125 C-108.26842532 83.26900758 -110.43955903 84.59546509 -113 86 C-112.03640758 96.55417112 -110.93238944 107.06890841 -109.4375 117.5625 C-109.31076904 118.4599292 -109.18403809 119.3573584 -109.0534668 120.28198242 C-108.55985499 123.66428219 -108.08399684 126.74800947 -107 130 C-106.39526855 129.63648438 -105.79053711 129.27296875 -105.16748047 128.8984375 C-102.41122001 127.2519637 -99.64343776 125.62590789 -96.875 124 C-95.44800781 123.14148438 -95.44800781 123.14148438 -93.9921875 122.265625 C-93.0640625 121.72421875 -92.1359375 121.1828125 -91.1796875 120.625 C-89.90714111 119.87089844 -89.90714111 119.87089844 -88.60888672 119.1015625 C-85.50188618 117.78967906 -83.34453294 117.68186219 -80 118 C-77.4694125 119.27505897 -75.18364244 120.54668962 -72.8125 122.0625 C-70.56714529 123.48494984 -68.36009294 124.75985178 -66 126 C-61.70293575 124.56764525 -60.26272753 121.32774274 -57.89453125 117.68359375 C-57.4104631 116.95253922 -56.92639496 116.22148468 -56.42765808 115.46827698 C-54.88162853 113.12962384 -53.34699225 110.78373553 -51.8125 108.4375 C-50.76701733 106.85172457 -49.72080233 105.2664317 -48.67382812 103.68164062 C-46.10735058 99.79331123 -43.55106733 95.89845537 -41 92 C-41.62108643 91.5366626 -42.24217285 91.0733252 -42.88208008 90.59594727 C-44.8714487 89.09686915 -46.78810784 87.5484812 -48.6875 85.9375 C-49.28949219 85.43089844 -49.89148438 84.92429687 -50.51171875 84.40234375 C-52.43098069 82.59390534 -52.96412961 81.49791774 -53.15390015 78.8637085 C-53.16676056 77.98023743 -53.17962097 77.09676636 -53.19287109 76.18652344 C-53.20893402 75.1849823 -53.22499695 74.18344116 -53.24154663 73.15155029 C-53.28598472 68.56409344 -53.3270693 63.97678195 -53.35009766 59.38916016 C-53.36665088 56.97011694 -53.3939322 54.5511225 -53.43212891 52.13232422 C-53.48691967 48.64524955 -53.50877697 45.15932229 -53.5234375 41.671875 C-53.54610687 40.59355408 -53.56877625 39.51523315 -53.59213257 38.40423584 C-53.56855685 30.01511065 -53.56855685 30.01511065 -50.84985352 26.50830078 C-47.96849788 23.97227338 -45.23211547 22.05925651 -41.87890625 20.1953125 C-41.29769516 19.86763885 -40.71648407 19.53996521 -40.11766052 19.20236206 C-38.27206693 18.16513202 -36.41779931 17.14474725 -34.5625 16.125 C-33.35418845 15.45034451 -32.14650117 14.77456971 -30.93945312 14.09765625 C-29.12907399 13.08274535 -27.31739006 12.07085465 -25.49966431 11.06915283 C-22.35790511 9.33634504 -19.25104351 7.56430059 -16.17919922 5.70996094 C-15.24466164 5.15294998 -15.24466164 5.15294998 -14.29124451 4.58468628 C-12.56754537 3.55362056 -10.85173932 2.50939241 -9.13647461 1.46435547 C-5.67653479 -0.15101925 -3.76612769 -0.49946641 0 0 Z " fill="#072B76" transform="translate(465,242)"/>
<path d="M0 0 C9.32280281 -0.14109129 18.51940252 0.27725779 27.8125 1 C29.72772461 1.14308594 29.72772461 1.14308594 31.68164062 1.2890625 C34.78811078 1.52175689 37.89418101 1.75879625 41 2 C41.02187378 2.86951294 41.02187378 2.86951294 41.04418945 3.7565918 C41.11898528 6.40087553 41.21553898 9.04394002 41.3125 11.6875 C41.33505859 12.59951172 41.35761719 13.51152344 41.38085938 14.45117188 C41.41630859 15.33740234 41.45175781 16.22363281 41.48828125 17.13671875 C41.51446533 17.94842529 41.54064941 18.76013184 41.56762695 19.59643555 C42.32376103 23.79978958 44.00768329 26.27419291 47.44165039 28.78588867 C48.88012329 29.59376831 48.88012329 29.59376831 50.34765625 30.41796875 C51.41975342 31.02833984 52.49185059 31.63871094 53.59643555 32.26757812 C54.74023682 32.90115234 55.88403809 33.53472656 57.0625 34.1875 C58.24110877 34.84877683 59.41924745 35.51089221 60.59692383 36.17382812 C62.37144916 37.17141841 64.14690279 38.16711477 65.92576599 39.1569519 C69.47514462 41.13234174 72.98731371 43.15873084 76.4765625 45.23828125 C77.282146 45.71048096 78.08772949 46.18268066 78.91772461 46.66918945 C80.38729592 47.53082581 81.84965449 48.40493441 83.30297852 49.29370117 C86.83177235 51.32196753 88.56912711 52.01345077 92.75390625 51.8828125 C95.51753281 51.1312125 97.41474852 50.46519506 99.75 48.875 C100.8225 48.25625 101.895 47.6375 103 47 C106 48 106 48 107.90112305 51.29467773 C108.6153689 52.75244901 109.31815021 54.21587208 110.01171875 55.68359375 C110.38480667 56.45429703 110.75789459 57.22500031 111.14228821 58.01905823 C111.92947375 59.65013656 112.71175355 61.28359017 113.48950195 62.91918945 C114.68331937 65.42871191 115.89200939 67.93061728 117.10351562 70.43164062 C117.86546673 72.01520025 118.6265636 73.59917124 119.38671875 75.18359375 C119.93038338 76.31177773 119.93038338 76.31177773 120.48503113 77.4627533 C123 82.76655759 123 82.76655759 123 85 C122.03578125 85.51949219 121.0715625 86.03898437 120.078125 86.57421875 C118.80177552 87.27808795 117.52575086 87.9825464 116.25 88.6875 C115.61578125 89.02716797 114.9815625 89.36683594 114.328125 89.71679688 C113.709375 90.06162109 113.090625 90.40644531 112.453125 90.76171875 C111.88754883 91.07069092 111.32197266 91.37966309 110.73925781 91.69799805 C107.46981558 94.14549039 105.28943763 96.18198665 104.62161255 100.37672424 C104.45267224 103.40267091 104.41955764 106.40291954 104.43359375 109.43359375 C104.42429588 111.09963402 104.42429588 111.09963402 104.41481018 112.79933167 C104.40771493 115.14526494 104.41088079 117.49124859 104.42358398 119.8371582 C104.43743886 123.42168127 104.40338358 127.00358837 104.36523438 130.58789062 C104.36428305 132.8697923 104.3661427 135.15169724 104.37109375 137.43359375 C104.35783554 138.50250351 104.34457733 139.57141327 104.33091736 140.67271423 C104.37919752 147.12774901 104.37919752 147.12774901 107.41308594 152.6315918 C109.51858249 154.55924583 111.28677874 156.0873774 113.8125 157.375 C114.864375 157.91125 115.91625 158.4475 117 159 C113.5619056 165.47073944 109.7361242 171.54369458 105.5625 177.5625 C105.01529297 178.36107422 104.46808594 179.15964844 103.90429688 179.98242188 C100.39134039 185.08348414 96.75627814 190.07555412 93 195 C88.2798505 193.24168029 84.13520259 190.81012046 79.81640625 188.2421875 C76.53318232 186.79410815 74.5649966 186.7262587 71 187 C68.33833358 188.05467493 68.33833358 188.05467493 65.8203125 189.625 C64.428125 190.43710937 64.428125 190.43710937 63.0078125 191.265625 C62.05648437 191.83796875 61.10515625 192.4103125 60.125 193 C59.15046875 193.57234375 58.1759375 194.1446875 57.171875 194.734375 C54.77415226 196.14480014 52.38417229 197.56682849 50 199 C47.57396202 195.12557149 47.2439965 190.87502783 46.67578125 186.4375 C46.50999825 185.19504517 46.50999825 185.19504517 46.34086609 183.92749023 C46.10965835 182.17966803 45.88210305 180.43135929 45.65795898 178.68261719 C45.31355485 176.00819128 44.95347477 173.33620074 44.59179688 170.6640625 C44.36884504 168.96366552 44.14680886 167.26314817 43.92578125 165.5625 C43.76339714 164.36548462 43.76339714 164.36548462 43.59773254 163.14428711 C42.75864582 156.45142881 42.75864582 156.45142881 44 153 C45.11375 152.38125 45.11375 152.38125 46.25 151.75 C50.24405029 149.20833163 52.3066882 146.42220272 54 142 C54.60398276 137.61188036 54.34174437 133.40622409 54 129 C53.94924316 128.26797363 53.89848633 127.53594727 53.84619141 126.78173828 C53.67378259 124.41395759 53.46855893 122.0514451 53.25 119.6875 C53.18868896 118.94709473 53.12737793 118.20668945 53.06420898 117.44384766 C52.21591343 109.60303523 49.22035314 103.03552397 43 98 C32.70361527 92.97153304 18.57033696 96.89463351 7.6875 98.3125 C5.88196743 98.54303603 4.07638446 98.77317766 2.27075195 99.00292969 C-7.75277158 100.28512108 -17.76872948 101.61452417 -27.76171875 103.11865234 C-31.94884257 103.74293737 -36.0826894 104.18166468 -40.3125 104.4375 C-46.65175135 104.95991057 -51.62524679 107.14417371 -55.875 111.9375 C-61.79206663 120.46503721 -60.04647495 129.18956068 -58.75 139 C-58.64042969 139.94617188 -58.53085938 140.89234375 -58.41796875 141.8671875 C-57.4806541 148.99077884 -55.87366978 155.12633022 -50.6875 160.3125 C-47.98434747 162.17679464 -47.98434747 162.17679464 -44.453125 163.05859375 C-41 165 -41 165 -40.15161133 166.81567383 C-39.62728913 169.12941156 -39.31093385 171.39082666 -39.0625 173.75 C-38.95099609 174.53632813 -38.83949219 175.32265625 -38.72460938 176.1328125 C-38.10278242 180.78299671 -37.89346413 185.31242179 -38 190 C-45.22369716 186.55834324 -52.05716084 182.85184455 -58.72265625 178.41796875 C-62.92850455 175.79923301 -67.14845096 175.30564986 -72 176 C-73.98889922 176.89264364 -73.98889922 176.89264364 -75.8125 178.0625 C-76.864375 178.701875 -77.91625 179.34125 -79 180 C-82.64155244 178.78614919 -83.0960427 177.41109088 -84.77934265 174.11039734 C-85.11383926 173.4281459 -85.44833588 172.74589447 -85.79296875 172.04296875 C-86.14386063 171.34359695 -86.4947525 170.64422516 -86.85627747 169.92366028 C-87.59645507 168.44232511 -88.3316562 166.95849451 -89.06225586 165.47241211 C-90.18107224 163.20055216 -91.31868448 160.93887344 -92.45898438 158.67773438 C-93.17562661 157.23754957 -93.89115856 155.79681164 -94.60546875 154.35546875 C-94.94603806 153.67929001 -95.28660736 153.00311127 -95.63749695 152.30644226 C-97.31167252 148.87274461 -98 146.90100602 -98 143 C-97.02417969 142.45730469 -96.04835937 141.91460937 -95.04296875 141.35546875 C-93.75766633 140.6330725 -92.47251813 139.91040182 -91.1875 139.1875 C-90.54490234 138.83107422 -89.90230469 138.47464844 -89.24023438 138.10742188 C-83.18516493 134.77470438 -83.18516493 134.77470438 -80 129 C-79.89790288 127.35466572 -79.85159595 125.70557869 -79.83886719 124.05712891 C-79.82925964 123.05243561 -79.8196521 122.04774231 -79.80975342 121.01260376 C-79.8033786 119.38601334 -79.8033786 119.38601334 -79.796875 117.7265625 C-79.78832489 116.05271988 -79.78832489 116.05271988 -79.77960205 114.34506226 C-79.77015166 111.98298084 -79.76361792 109.62088624 -79.75976562 107.25878906 C-79.75005711 103.64625049 -79.71903218 100.03428009 -79.6875 96.421875 C-79.68097019 94.12760755 -79.67571963 91.83333602 -79.671875 89.5390625 C-79.6595282 88.45871735 -79.6471814 87.37837219 -79.63446045 86.26528931 C-79.55568746 79.10404638 -79.55568746 79.10404638 -83 73 C-85.22293946 71.3662283 -85.22293946 71.3662283 -87.6875 70.1875 C-88.89986328 69.55908203 -88.89986328 69.55908203 -90.13671875 68.91796875 C-90.75160156 68.61503906 -91.36648437 68.31210938 -92 68 C-91.39570865 63.79079817 -88.97498662 60.66990285 -86.625 57.25 C-85.96975342 56.28211548 -85.96975342 56.28211548 -85.30126953 55.29467773 C-83.87436098 53.19169233 -82.4381398 51.09531867 -81 49 C-80.23333008 47.87972412 -80.23333008 47.87972412 -79.45117188 46.73681641 C-76.31165388 42.15033032 -73.16028458 37.57219879 -70 33 C-68.08085447 33.93241504 -66.16477614 34.87114475 -64.25 35.8125 C-63.18265625 36.33457031 -62.1153125 36.85664063 -61.015625 37.39453125 C-58 39 -58 39 -56.109375 40.69921875 C-52.67362985 42.81792826 -49.8187643 42.86970875 -46 42 C-41.27167584 39.86573467 -36.87288178 37.23549105 -32.4375 34.5625 C-31.18390789 33.82253215 -29.92950911 33.08392922 -28.67431641 32.34667969 C-26.21747563 30.90008935 -23.76673899 29.44394839 -21.32080078 27.97900391 C-18.52948278 26.3155409 -15.72515147 24.68334145 -12.90234375 23.07421875 C-11.55960477 22.29998374 -10.21712405 21.5253005 -8.875 20.75 C-7.75867188 20.10546875 -6.64234375 19.4609375 -5.4921875 18.796875 C-2.86598455 16.90337444 -1.93853045 16.05568052 -1 13 C-0.71306612 10.75866742 -0.51033409 8.5055681 -0.375 6.25 C-0.25 4.16666667 -0.125 2.08333333 0 0 Z " fill="#FDFEFE" transform="translate(308,174)"/>
<path d="M0 0 C2.03838284 11.30790032 3.40316011 22.69375292 4.82275391 34.09130859 C5.43792006 39.01730521 6.06615736 43.94118072 6.71969604 48.86224365 C6.97243248 50.78975449 7.20993099 52.71924853 7.44555664 54.64892578 C8.31352805 60.93841774 9.52335487 64.85236897 13.4375 69.875 C14.09685547 70.74016235 14.09685547 70.74016235 14.76953125 71.62280273 C16.15809131 73.4332752 17.57653706 75.2168946 19 77 C19.91949736 78.17979982 20.83747667 79.36078439 21.75390625 80.54296875 C23.58265464 82.89286812 25.4243163 85.23170324 27.27734375 87.5625 C29.90524176 90.87094425 32.49097963 94.21012291 35.0625 97.5625 C35.47113281 98.09496338 35.87976563 98.62742676 36.30078125 99.17602539 C37.12276495 100.24756309 37.9445428 101.31925873 38.76611328 102.39111328 C40.84092587 105.09649812 42.92072853 107.79804166 45 110.5 C45.83335693 111.58331518 46.66669027 112.66664851 47.5 113.75 C48.11875 114.554375 48.11875 114.554375 48.75 115.375 C55.625 124.3125 55.625 124.3125 62.5 133.25 C62.91258057 133.78625 63.32516113 134.3225 63.75024414 134.875 C64.58317281 135.9580188 65.4156927 137.0413521 66.24780273 138.125 C68.33408251 140.84087682 70.42726114 143.55085612 72.53515625 146.25 C91.50181687 170.60022652 91.50181687 170.60022652 90 185 C87.71028586 192.56829176 84.21289732 197.79879168 77.44140625 201.9140625 C72.20587794 204.24282549 66.85185536 205.28044812 61.1875 205.9296875 C59.88329102 206.08276367 58.57908203 206.23583984 57.23535156 206.39355469 C56.547677 206.47166382 55.86000244 206.54977295 55.15148926 206.63024902 C52.17350877 206.9690207 49.19721943 207.32170189 46.22076416 207.67358398 C44.68319522 207.85532451 43.14555621 208.03647309 41.60784912 208.21704102 C34.8158912 209.01573152 28.03188506 209.86980913 21.25 210.75 C20.07348877 210.90162598 18.89697754 211.05325195 17.68481445 211.20947266 C9.42555462 212.27951899 1.17023809 213.37748947 -7.08407593 214.48504639 C-11.89953036 215.13085077 -16.71560033 215.77201782 -21.53178215 216.41237259 C-25.68423727 216.96489569 -29.83584713 217.52330302 -33.98693943 218.08596802 C-37.24710414 218.52610328 -40.50841354 218.95761656 -43.76953125 219.390625 C-44.95386246 219.55292603 -46.13819366 219.71522705 -47.3584137 219.88244629 C-67.56500097 222.53801107 -67.56500097 222.53801107 -77 216 C-82.78101177 210.90358173 -86.21624748 205.37947189 -87.32788086 197.74951172 C-87.83004879 188.55652656 -84.24785043 181.13711479 -80.625 172.9375 C-79.94663355 171.36196181 -79.27016616 169.78560479 -78.59545898 168.20849609 C-77.1592018 164.86029867 -75.7114904 161.51740319 -74.25439453 158.17822266 C-71.99931625 153.00755175 -69.77539377 147.82389642 -67.55859375 142.63671875 C-66.81100173 140.88816309 -66.0633616 139.139628 -65.31567383 137.39111328 C-64.94423248 136.52246643 -64.57279114 135.65381958 -64.19009399 134.7588501 C-63.06343195 132.12717687 -61.93398068 129.49671987 -60.8034668 126.86669922 C-55.46726191 114.45187574 -50.18255076 102.01610335 -44.9375 89.5625 C-44.41568649 88.32515106 -44.41568649 88.32515106 -43.8833313 87.06280518 C-42.90916995 84.75206339 -41.93665921 82.44063546 -40.96484375 80.12890625 C-40.67721161 79.4466246 -40.38957947 78.76434296 -40.0932312 78.06138611 C-34.9249023 65.74049631 -38.24617028 52.03419181 -40 39.0625 C-40.18013625 37.7051376 -40.35982478 36.34771571 -40.5390625 34.99023438 C-40.71179688 33.68505859 -40.88453125 32.37988281 -41.0625 31.03515625 C-41.22621094 29.79652832 -41.38992188 28.55790039 -41.55859375 27.28173828 C-41.81051211 25.40879216 -42.06906194 23.53664479 -42.34765625 21.66748047 C-43.15001848 16.10886182 -43.092661 10.60084258 -43 5 C-40.65625 4.70703125 -40.65625 4.70703125 -38.3125 4.4140625 C-37.31049561 4.28878174 -36.30849121 4.16350098 -35.27612305 4.03442383 C-33.08490956 3.76058338 -30.89366585 3.48698467 -28.70239258 3.21362305 C-23.78394765 2.59977034 -18.86572135 1.98470883 -13.94921875 1.35546875 C-13.21896484 1.26249512 -12.48871094 1.16952148 -11.73632812 1.07373047 C-9.80713113 0.82775325 -7.87816689 0.57995248 -5.94921875 0.33203125 C-3 0 -3 0 0 0 Z " fill="#FDFDFE" transform="translate(331,331)"/>
<path d="M0 0 C0.96421875 0.55429688 1.9284375 1.10859375 2.921875 1.6796875 C4.19788361 2.41151597 5.47392712 3.1432836 6.75 3.875 C7.70132813 4.42220703 7.70132813 4.42220703 8.671875 4.98046875 C11.74250368 6.7396831 14.80851875 8.46873374 18 10 C16.61562003 13.82254172 14.84687544 16.95480055 12.5625 20.3125 C11.86125 21.34890625 11.16 22.3853125 10.4375 23.453125 C8.65595884 26.05393676 6.86043781 28.64487756 5.0625 31.234375 C4.56548584 31.95197998 4.06847168 32.66958496 3.55639648 33.40893555 C2.57266355 34.82706077 1.58528273 36.24266353 0.59399414 37.65551758 C0.14145264 38.30673584 -0.31108887 38.9579541 -0.77734375 39.62890625 C-1.18202881 40.20713135 -1.58671387 40.78535645 -2.00366211 41.38110352 C-3.17605495 43.14828913 -3.17605495 43.14828913 -4 46 C-3.113125 46.2475 -2.22625 46.495 -1.3125 46.75 C2.7303748 48.27561313 5.81086073 50.07699801 8.12345886 53.81678772 C9.14959298 56.37259316 9.26028628 58.30501382 9.2746582 61.05639648 C9.28419022 62.06101425 9.29372223 63.06563202 9.30354309 64.10069275 C9.30263168 65.17992508 9.30172028 66.25915741 9.30078125 67.37109375 C9.30506638 68.48557388 9.3093515 69.60005402 9.31376648 70.74830627 C9.31950753 73.10441407 9.32001171 75.46053959 9.31567383 77.81665039 C9.312515 81.42039241 9.33597291 85.02331267 9.36132812 88.62695312 C9.36360124 90.91666563 9.36430456 93.20638034 9.36328125 95.49609375 C9.372491 96.57330185 9.38170074 97.65050995 9.39118958 98.76036072 C9.33375031 108.05358777 9.33375031 108.05358777 6 112 C2.1868618 115.58883595 -4.52911903 121 -10 121 C-6.95593887 129.15556654 -3.18511525 136.86720135 0.75 144.625 C1.35845037 145.83184102 1.96652571 147.0388712 2.57421875 148.24609375 C4.045819 151.16593551 5.52114379 154.08382849 7 157 C10.40312738 155.94124926 13.01353231 154.99097846 16 153 C23.79980161 151.88574263 28.45540145 155.06352117 35 159 C36.32000088 159.70083211 37.6430943 160.39586147 38.96875 161.0859375 C48.95718764 166.4173789 48.95718764 166.4173789 51.328125 170.015625 C51.89137586 172.39581412 51.95414236 174.5519077 52 177 C52.26847183 178.94995328 52.53802115 180.89980253 52.82299805 182.84741211 C53.31128859 186.22676159 53.72254007 189.59771084 54 193 C54.07355713 193.76562256 54.14711426 194.53124512 54.22290039 195.32006836 C54.62000435 202.66905128 52.28714837 208.12176362 49.1875 214.6875 C48.50977539 216.17733398 48.50977539 216.17733398 47.81835938 217.69726562 C46.94059652 219.6257811 46.05652218 221.55143897 45.16552734 223.47387695 C43.71228278 226.62358821 42.34466818 229.8024426 41 233 C40.63156982 233.87599854 40.26313965 234.75199707 39.88354492 235.65454102 C38.58515489 238.74725319 37.29210191 241.84215587 36 244.9375 C35.34257812 246.50661133 35.34257812 246.50661133 34.671875 248.10742188 C34.24390625 249.13287109 33.8159375 250.15832031 33.375 251.21484375 C32.96121094 252.20210449 32.54742187 253.18936523 32.12109375 254.20654297 C31.1280795 256.68086114 30.27216498 259.16090506 29.4375 261.69140625 C28.963125 262.78324219 28.48875 263.87507813 28 265 C23.74332403 266.54108708 19.17354248 266.86177264 14.91748047 265.17431641 C12.54061863 263.96191137 10.23969875 262.66135322 7.9375 261.3125 C7.082771 260.82499268 6.22804199 260.33748535 5.34741211 259.83520508 C3.51753269 258.78693494 1.69187639 257.73126465 -0.12988281 256.66894531 C-3.08211626 254.95225019 -6.05134654 253.26798188 -9.0234375 251.5859375 C-10.99570685 250.45471912 -12.96708334 249.32194241 -14.9375 248.1875 C-15.8663501 247.6613208 -16.7952002 247.1351416 -17.75219727 246.59301758 C-18.62674561 246.08150146 -19.50129395 245.56998535 -20.40234375 245.04296875 C-21.17054443 244.59977295 -21.93874512 244.15657715 -22.73022461 243.69995117 C-26.71123968 240.71836486 -29.56768329 238.44970665 -30.4495697 233.45252991 C-30.6290835 230.28889059 -30.64043733 227.16450882 -30.59375 223.99609375 C-30.59379028 222.84005142 -30.59383057 221.68400909 -30.59387207 220.49293518 C-30.58852153 218.05456084 -30.57095909 215.61618666 -30.54199219 213.17797852 C-30.50010544 209.44689232 -30.50092867 205.71761004 -30.5078125 201.98632812 C-30.49732079 199.6145708 -30.4843828 197.24282276 -30.46875 194.87109375 C-30.46854858 193.7564122 -30.46834717 192.64173065 -30.46813965 191.49327087 C-30.45222778 190.45191483 -30.43631592 189.41055878 -30.41992188 188.33764648 C-30.41150269 187.42530746 -30.4030835 186.51296844 -30.39440918 185.57298279 C-29.81627089 181.80141776 -28.24939475 179.01390116 -25.2824707 176.60620117 C-24.36340942 176.07990112 -24.36340942 176.07990112 -23.42578125 175.54296875 C-22.75869141 175.15302734 -22.09160156 174.76308594 -21.40429688 174.36132812 C-20.71400391 173.97396484 -20.02371094 173.58660156 -19.3125 173.1875 C-18.61060547 172.78080078 -17.90871094 172.37410156 -17.18554688 171.95507812 C-15.46326148 170.95919882 -13.73244601 169.97809682 -12 169 C-13.40272684 164.47876456 -15.1869574 160.32497843 -17.2578125 156.0703125 C-17.56572723 155.43511688 -17.87364197 154.79992126 -18.19088745 154.14547729 C-19.16549367 152.13696251 -20.14515331 150.13096259 -21.125 148.125 C-21.79070141 146.75537199 -22.45606933 145.38558185 -23.12109375 144.015625 C-24.74354458 140.67520006 -26.37053387 137.33700953 -28 134 C-32.07051191 135.25964957 -32.07051191 135.25964957 -35.875 137.125 C-39.32039346 138.54369143 -42.38539721 138.62109059 -46 138 C-50.1652748 136.24699137 -53.9913254 133.98855197 -57.875 131.6875 C-58.96893066 131.05465088 -60.06286133 130.42180176 -61.18994141 129.76977539 C-64.47028339 127.86355299 -67.73519902 125.93268157 -71 124 C-72.84326682 122.93145772 -74.68698011 121.86368507 -76.53125 120.796875 C-78.14714987 119.84598372 -79.76182257 118.89300258 -81.375 117.9375 C-82.11089355 117.50977295 -82.84678711 117.0820459 -83.60498047 116.64135742 C-84.27932129 116.23248291 -84.95366211 115.8236084 -85.6484375 115.40234375 C-86.22770996 115.05679443 -86.80698242 114.71124512 -87.40380859 114.35522461 C-90.27862486 111.91440095 -91.83490657 109.14104633 -92.3742218 105.41355896 C-92.37359238 104.49518753 -92.37296295 103.5768161 -92.37231445 102.63061523 C-92.37854324 101.5828038 -92.38477203 100.53499237 -92.39118958 99.45542908 C-92.38197983 98.33447342 -92.37277008 97.21351776 -92.36328125 96.05859375 C-92.36377975 94.8987648 -92.36427826 93.73893585 -92.36479187 92.54396057 C-92.36245418 90.0954517 -92.35274372 87.6469403 -92.33618164 85.19848633 C-92.31256524 81.44786132 -92.31562638 77.69794622 -92.32226562 73.94726562 C-92.31668951 71.56770409 -92.30958004 69.18814555 -92.30078125 66.80859375 C-92.30169266 65.68561386 -92.30260406 64.56263397 -92.30354309 63.40562439 C-92.29401108 62.36096512 -92.28447906 61.31630585 -92.2746582 60.23999023 C-92.27005081 59.3224144 -92.26544342 58.40483856 -92.26069641 57.4594574 C-91.97951335 54.80672525 -91.44933455 53.2299446 -90 51 C-87.68882529 49.42009541 -85.43835658 48.04245783 -83 46.6875 C-82.27611084 46.2737915 -81.55222168 45.86008301 -80.80639648 45.43383789 C-79.15951806 44.49288554 -77.51016535 43.55625573 -75.85888672 42.62304688 C-72.61575412 40.78185597 -69.38684817 38.91665598 -66.16015625 37.046875 C-61.53745233 34.3696964 -56.91364175 31.69451887 -52.28515625 29.02734375 C-50.82928101 28.18804321 -50.82928101 28.18804321 -49.34399414 27.33178711 C-45.52099059 25.15967125 -43.46949205 24.57854615 -39 25 C-36.3016959 26.12601894 -33.8252127 27.57376122 -31.3125 29.0625 C-28.89855026 30.48178046 -26.51989496 31.76200283 -24 33 C-19.91059005 31.63686335 -18.61671455 28.87304112 -16.3671875 25.41015625 C-15.92988312 24.7504332 -15.49257874 24.09071014 -15.04202271 23.41099548 C-13.64538464 21.29975379 -12.26026761 19.18121519 -10.875 17.0625 C-9.93431044 15.63819828 -8.99291253 14.21436411 -8.05078125 12.79101562 C-3.76573271 6.54653469 -3.76573271 6.54653469 0 0 Z " fill="#6965F6" transform="translate(220,196)"/>
<path d="M0 0 C2.61450195 1.12646484 2.61450195 1.12646484 5.23828125 2.7109375 C6.21563232 3.29174072 7.1929834 3.87254395 8.19995117 4.47094727 C9.22709229 5.09928467 10.2542334 5.72762207 11.3125 6.375 C13.46088177 7.66285339 15.60931963 8.95061321 17.7578125 10.23828125 C18.81387695 10.87717285 19.86994141 11.51606445 20.95800781 12.17431641 C23.68154663 13.80887686 26.42121349 15.40582627 29.1796875 16.98046875 C29.94885498 17.42148926 30.71802246 17.86250977 31.51049805 18.31689453 C32.9155086 19.12079314 34.32305678 19.92028032 35.73364258 20.71435547 C36.36165771 21.07803223 36.98967285 21.44170898 37.63671875 21.81640625 C38.16998779 22.12006104 38.70325684 22.42371582 39.25268555 22.73657227 C40.1176062 23.36196899 40.1176062 23.36196899 41 24 C41.88067139 24.62447021 42.76134277 25.24894043 43.66870117 25.89233398 C47.22941974 30.63884007 46.7164487 35.12051967 46.6640625 40.90625 C46.66884613 42.06370728 46.67362976 43.22116455 46.67855835 44.41369629 C46.681957 46.85800538 46.67275725 49.30235995 46.65185547 51.74658203 C46.62509277 55.48703408 46.65160805 59.22448499 46.68359375 62.96484375 C46.68028965 65.34115245 46.67388342 67.71745929 46.6640625 70.09375 C46.67924423 71.77047791 46.67924423 71.77047791 46.69473267 73.4810791 C46.57772019 81.23635167 46.57772019 81.23635167 43.63696289 85.12353516 C38.79605501 88.56832897 33.72397672 91.51722738 28.58349609 94.48242188 C25.54730713 96.26591749 22.55106272 98.10988904 19.55078125 99.953125 C17.82056719 100.99885827 16.08807247 102.04065801 14.35409546 103.08013916 C12.65237355 104.10845866 10.96432836 105.15930238 9.27661133 106.21044922 C-0.62690771 112.09087369 -0.62690771 112.09087369 -6.96289062 110.71875 C-10.42223886 109.49819377 -13.46456516 107.88930008 -16.5625 105.9375 C-17.18962891 105.56044922 -17.81675781 105.18339844 -18.46289062 104.79492188 C-19.98399635 103.87761384 -21.49334549 102.94085538 -23 102 C-23.2678833 102.7326709 -23.5357666 103.4653418 -23.81176758 104.22021484 C-24.97574257 106.94325147 -26.29094288 109.07524937 -28.01171875 111.4765625 C-28.60194824 112.30768555 -29.19217773 113.13880859 -29.80029297 113.99511719 C-30.42307129 114.86297852 -31.04584961 115.73083984 -31.6875 116.625 C-36.66294416 123.63614211 -41.52089366 130.6583069 -46 138 C-47.44632812 137.16855469 -47.44632812 137.16855469 -48.921875 136.3203125 C-50.19788361 135.58848403 -51.47392712 134.8567164 -52.75 134.125 C-53.38421875 133.76019531 -54.0184375 133.39539063 -54.671875 133.01953125 C-57.74250368 131.2603169 -60.80851875 129.53126626 -64 128 C-62.5306702 123.71114544 -60.24659222 120.3491944 -57.5625 116.75 C-51.6926872 108.72303647 -46.33977225 100.38526973 -41 92 C-41.58394531 91.56816406 -42.16789062 91.13632812 -42.76953125 90.69140625 C-44.79332091 89.15672863 -46.75086514 87.58006882 -48.6875 85.9375 C-49.28949219 85.43089844 -49.89148438 84.92429687 -50.51171875 84.40234375 C-52.43098069 82.59390534 -52.96412961 81.49791774 -53.15390015 78.8637085 C-53.16676056 77.98023743 -53.17962097 77.09676636 -53.19287109 76.18652344 C-53.20893402 75.1849823 -53.22499695 74.18344116 -53.24154663 73.15155029 C-53.28598472 68.56409344 -53.3270693 63.97678195 -53.35009766 59.38916016 C-53.36665088 56.97011694 -53.3939322 54.5511225 -53.43212891 52.13232422 C-53.48691967 48.64524955 -53.50877697 45.15932229 -53.5234375 41.671875 C-53.54610687 40.59355408 -53.56877625 39.51523315 -53.59213257 38.40423584 C-53.56855685 30.01511065 -53.56855685 30.01511065 -50.84985352 26.50830078 C-47.96849788 23.97227338 -45.23211547 22.05925651 -41.87890625 20.1953125 C-41.29769516 19.86763885 -40.71648407 19.53996521 -40.11766052 19.20236206 C-38.27206693 18.16513202 -36.41779931 17.14474725 -34.5625 16.125 C-33.35418845 15.45034451 -32.14650117 14.77456971 -30.93945312 14.09765625 C-29.12907399 13.08274535 -27.31739006 12.07085465 -25.49966431 11.06915283 C-22.35790511 9.33634504 -19.25104351 7.56430059 -16.17919922 5.70996094 C-15.55617416 5.3386203 -14.93314911 4.96727966 -14.29124451 4.58468628 C-12.56754537 3.55362056 -10.85173932 2.50939241 -9.13647461 1.46435547 C-5.67653479 -0.15101925 -3.76612769 -0.49946641 0 0 Z " fill="#082D76" transform="translate(465,242)"/>
<path d="M0 0 C3.747803 1.77707605 7.30334156 3.83225417 10.875 5.9375 C11.88353027 6.52217041 12.89206055 7.10684082 13.93115234 7.70922852 C15.98085202 8.89923541 18.0279173 10.09379191 20.07226562 11.29296875 C22.73739037 12.84688404 25.41757194 14.36793183 28.109375 15.875 C29.61482497 16.72874071 31.120049 17.58288002 32.625 18.4375 C33.3041748 18.81318115 33.98334961 19.1888623 34.68310547 19.57592773 C35.6327417 20.12422241 35.6327417 20.12422241 36.6015625 20.68359375 C37.14119629 20.98837646 37.68083008 21.29315918 38.23681641 21.60717773 C41.90791875 24.50715542 44.59297238 26.78439979 45.45425415 31.47267151 C45.62851837 34.51539086 45.64049174 37.51901966 45.59375 40.56640625 C45.59379028 41.67805649 45.59383057 42.78970673 45.59387207 43.93504333 C45.58852262 46.27926301 45.57096482 48.62348257 45.54199219 50.9675293 C45.50010185 54.55378035 45.50092918 58.13815464 45.5078125 61.72460938 C45.49732081 64.00522137 45.48438282 66.2858237 45.46875 68.56640625 C45.46844788 70.17280724 45.46844788 70.17280724 45.46813965 71.81166077 C45.31745083 81.29432714 45.31745083 81.29432714 42 85 C39.7578125 86.67822266 39.7578125 86.67822266 37.125 88.1640625 C36.14853516 88.72399902 35.17207031 89.28393555 34.16601562 89.86083984 C33.12123047 90.4430127 32.07644531 91.02518555 31 91.625 C28.82262811 92.85886592 26.6455485 94.09324777 24.46875 95.328125 C23.38078125 95.94107422 22.2928125 96.55402344 21.171875 97.18554688 C18.2389998 98.86328152 15.34885933 100.59299216 12.46875 102.359375 C11.20417969 103.12580322 11.20417969 103.12580322 9.9140625 103.90771484 C8.34902625 104.85895552 6.79117262 105.82215603 5.2421875 106.79931641 C0.21025758 109.81275626 -3.12518712 110.74639016 -9 110 C-11.78125 108.7421875 -11.78125 108.7421875 -14.5 106.875 C-21.01662388 102.59198925 -27.68309586 98.6477864 -34.4375 94.75 C-38.30267985 92.51820502 -42.16034451 90.27546128 -46 88 C-46.65500488 87.61392578 -47.31000977 87.22785156 -47.98486328 86.83007812 C-51.11067776 84.88815523 -52.65301666 83.41127297 -54 80 C-54.27415466 77.62319946 -54.27415466 77.62319946 -54.30639648 74.95947266 C-54.32238388 73.95808258 -54.33837128 72.9566925 -54.35484314 71.92495728 C-54.36020584 70.848862 -54.36556854 69.77276672 -54.37109375 68.6640625 C-54.38012222 67.55195404 -54.3891507 66.43984558 -54.39845276 65.29403687 C-54.41295584 62.94214572 -54.42184213 60.59021421 -54.42553711 58.23828125 C-54.43743332 54.64514013 -54.48662133 51.05371624 -54.53710938 47.4609375 C-54.54657374 45.17448754 -54.55380871 42.88802704 -54.55859375 40.6015625 C-54.58789223 38.99349228 -54.58789223 38.99349228 -54.61778259 37.35293579 C-54.56753478 29.02179037 -54.56753478 29.02179037 -51.81591797 25.49682617 C-49.09527603 23.08447962 -46.55330906 21.22719113 -43.38671875 19.44921875 C-42.31075439 18.83691406 -41.23479004 18.22460938 -40.1262207 17.59375 C-38.42405396 16.65015625 -38.42405396 16.65015625 -36.6875 15.6875 C-35.51278916 15.02819081 -34.33855652 14.36802888 -33.16479492 13.70703125 C-30.84521824 12.40191924 -28.52270639 11.10260202 -26.19824219 9.80615234 C-23.42887238 8.24219831 -20.6961794 6.6366193 -17.9765625 4.98828125 C-17.25895752 4.5600708 -16.54135254 4.13186035 -15.80200195 3.69067383 C-14.52140409 2.92426374 -13.24832902 2.14506598 -11.98510742 1.3503418 C-7.55772708 -1.2473655 -4.89838804 -1.42211266 0 0 Z " fill="#072C76" transform="translate(263,107)"/>
<path d="M0 0 C1.37719268 1.84937303 2.67483775 3.75811556 3.9375 5.6875 C25.26767225 37.43544568 56.60938465 58.93618654 93 70 C95.0018227 70.66117344 97.00243078 71.32608482 99 72 C94.94848604 76.05151396 88.67659737 76.30053591 83.1875 76.9296875 C81.88329102 77.08276367 80.57908203 77.23583984 79.23535156 77.39355469 C78.547677 77.47166382 77.86000244 77.54977295 77.15148926 77.63024902 C74.17350877 77.9690207 71.19721943 78.32170189 68.22076416 78.67358398 C66.68319522 78.85532451 65.14555621 79.03647309 63.60784912 79.21704102 C56.8158912 80.01573152 50.03188506 80.86980913 43.25 81.75 C41.48523315 81.97743896 41.48523315 81.97743896 39.68481445 82.20947266 C31.42555462 83.27951899 23.17023809 84.37748947 14.91592407 85.48504639 C10.10046964 86.13085077 5.28439967 86.77201782 0.46821785 87.41237259 C-3.68423727 87.96489569 -7.83584713 88.52330302 -11.98693943 89.08596802 C-15.24710414 89.52610328 -18.50841354 89.95761656 -21.76953125 90.390625 C-22.95386246 90.55292603 -24.13819366 90.71522705 -25.3584137 90.88244629 C-45.56500097 93.53801107 -45.56500097 93.53801107 -55 87 C-61.4709523 81.29534468 -64.9597594 74.9723973 -65.51171875 66.3515625 C-65.41713462 57.66354075 -61.31877344 49.99386877 -57.875 42.1875 C-57.20130679 40.62252625 -56.52941957 39.05677377 -55.859375 37.49023438 C-54.23650957 33.70667098 -52.5925762 29.9327263 -50.94226074 26.16107178 C-49.44850781 22.73515455 -47.97736071 19.29963558 -46.5078125 15.86328125 C-46.02199707 14.72802002 -45.53618164 13.59275879 -45.03564453 12.4230957 C-44.52300049 11.22366333 -44.52300049 11.22366333 -44 10 C-42.86498047 9.94424805 -41.72996094 9.88849609 -40.56054688 9.83105469 C-31.48614188 9.37265913 -23.2373136 8.81001934 -14.75 5.3125 C-13.59649048 4.83997803 -13.59649048 4.83997803 -12.41967773 4.35791016 C-10.86382738 3.70914231 -9.31114905 3.05270768 -7.76196289 2.38818359 C-2.1876481 0 -2.1876481 0 0 0 Z " fill="#92B1F3" transform="translate(309,460)"/>
<path d="M0 0 C2.08594433 2.10741729 3.75263348 4.07307085 5.5 6.4375 C6.01481934 7.10765137 6.52963867 7.77780273 7.06005859 8.46826172 C8.15725273 9.90020426 9.24739365 11.33757394 10.33105469 12.77978516 C11.97957241 14.97282497 13.6465057 17.15043729 15.3203125 19.32421875 C17.52220963 22.18678246 19.71634547 25.05496352 21.90234375 27.9296875 C24.65208116 31.54575733 27.41577357 35.15076945 30.1875 38.75 C30.98414063 39.78640625 31.78078125 40.8228125 32.6015625 41.890625 C34.23640944 44.01006827 35.87602982 46.12478146 37.5234375 48.234375 C56.55042858 72.66584897 56.55042858 72.66584897 55 87 C52.7479835 93.68047846 49.96332195 99.02755309 44 103 C16.03159371 103.51793345 -14.77868684 79.08672176 -34 61 C-34.639375 60.42507813 -35.27875 59.85015625 -35.9375 59.2578125 C-44.04012815 51.66159861 -50.8498899 42.22516515 -57 33 C-57 32.01 -57 31.02 -57 30 C-55.015625 28.52734375 -55.015625 28.52734375 -52.25 26.9375 C-47.87143952 24.29025807 -44.08388885 21.44840727 -40.25 18.0625 C-31.29979296 10.45366766 -12.15532129 -2.62135523 0 0 Z " fill="#D1DBFC" transform="translate(366,429)"/>
<path d="M0 0 C1.93735837 0.97245638 3.83688591 2.02219426 5.703125 3.125 C6.7653125 3.74890625 7.8275 4.3728125 8.921875 5.015625 C10.56929688 5.99789062 10.56929688 5.99789062 12.25 7 C13.36375 7.65484375 14.4775 8.3096875 15.625 8.984375 C23.8234747 13.8234747 23.8234747 13.8234747 25 15 C25.08847743 17.52094076 25.11527301 20.01430893 25.09765625 22.53515625 C25.0962413 23.28840683 25.09482635 24.04165741 25.09336853 24.81773376 C25.08775376 27.2326956 25.07519883 29.64756601 25.0625 32.0625 C25.0574869 33.69596221 25.05292366 35.32942586 25.04882812 36.96289062 C25.03777954 40.97529585 25.02050506 44.98763241 25 49 C21.26888967 51.45193812 17.50401661 53.83538242 13.69628906 56.16552734 C12.40932898 56.9652765 11.13287012 57.78220324 9.86816406 58.61669922 C5.69921228 61.35770295 1.82283583 63.62881448 -3 65 C-7.66416564 63.93446141 -11.03879747 61.59534372 -15 59 C-17.48005575 58.06714796 -17.48005575 58.06714796 -19.890625 57.421875 C-25.00572603 55.62318295 -29.08583901 53.74983816 -32 49 C-33.40158394 43.24115237 -33.63205459 37.65775916 -33.625 31.75 C-33.63438599 30.97958374 -33.64377197 30.20916748 -33.65344238 29.41540527 C-33.6737694 17.04412278 -33.6737694 17.04412278 -30.20703125 12.81030273 C-27.87604389 11.22458837 -25.58599772 10.11585177 -23 9 C-21.44294983 8.08082452 -19.89582097 7.14462321 -18.359375 6.19140625 C-16.82515982 5.31118279 -15.28869797 4.43486351 -13.75 3.5625 C-12.97398437 3.10423828 -12.19796875 2.64597656 -11.3984375 2.17382812 C-10.26535156 1.5328418 -10.26535156 1.5328418 -9.109375 0.87890625 C-8.43874023 0.4929126 -7.76810547 0.10691895 -7.07714844 -0.29077148 C-4.28406867 -1.24444999 -2.80854243 -0.87806515 0 0 Z " fill="#66CBD0" transform="translate(262,130)"/>
<path d="M0 0 C1.93735837 0.97245638 3.83688591 2.02219426 5.703125 3.125 C6.7653125 3.74890625 7.8275 4.3728125 8.921875 5.015625 C10.56929688 5.99789063 10.56929688 5.99789063 12.25 7 C13.36375 7.65484375 14.4775 8.3096875 15.625 8.984375 C23.8234747 13.8234747 23.8234747 13.8234747 25 15 C25.08847743 17.52094076 25.11527301 20.01430893 25.09765625 22.53515625 C25.0962413 23.28840683 25.09482635 24.04165741 25.09336853 24.81773376 C25.08775376 27.2326956 25.07519883 29.64756601 25.0625 32.0625 C25.0574869 33.69596221 25.05292366 35.32942586 25.04882812 36.96289062 C25.03777954 40.97529585 25.02050506 44.98763241 25 49 C21.39685435 51.1502213 17.78559946 53.28589741 14.16625977 55.40869141 C12.93706157 56.13232053 11.71013584 56.85982464 10.4855957 57.59130859 C8.72154403 58.64415308 6.9496977 59.68263474 5.17578125 60.71875 C3.58117065 61.66137695 3.58117065 61.66137695 1.9543457 62.62304688 C-1.14602849 64.06806055 -2.64929393 64.53525127 -6 64 C-8.73901367 62.73071289 -8.73901367 62.73071289 -11.66796875 60.97265625 C-12.72564453 60.34552734 -13.78332031 59.71839844 -14.87304688 59.07226562 C-15.96681641 58.40904297 -17.06058594 57.74582031 -18.1875 57.0625 C-20.36840942 55.76158435 -22.54939508 54.46079651 -24.73046875 53.16015625 C-25.69364014 52.57886963 -26.65681152 51.99758301 -27.64916992 51.39868164 C-29.07239279 50.55190173 -30.5187574 49.7406213 -32 49 C-32.3234878 44.30502444 -32.5580634 39.6166106 -32.71411133 34.91308594 C-32.77916664 33.31753592 -32.86766316 31.72275186 -32.98071289 30.12988281 C-33.34695836 24.8334098 -33.40385713 20.15262209 -32 15 C-28.17189449 11.1284328 -23.94799014 9.15721515 -19 7 C-17.59764076 6.17259763 -16.20796651 5.32248038 -14.84375 4.43359375 C-13.7403125 3.77488281 -12.636875 3.11617188 -11.5 2.4375 C-9.81390625 1.41462891 -9.81390625 1.41462891 -8.09375 0.37109375 C-4.5275627 -1.20937562 -3.64787323 -1.06981541 0 0 Z " fill="#B0D852" transform="translate(465,266)"/>
<path d="M0 0 C3.91976445 1.96652464 7.64219994 4.20176624 11.375 6.5 C12.38433594 7.10714844 13.39367187 7.71429688 14.43359375 8.33984375 C21.77830038 12.77830038 21.77830038 12.77830038 23 14 C26.51333225 40.51111281 26.51333225 40.51111281 21.45605469 48.41210938 C17.58688751 51.87916022 13.13671379 53.61558532 8.234375 55.16552734 C5.13095348 56.32456305 2.59965643 58.0955464 -0.078125 60.02270508 C-3.53837127 61.78227899 -6.23450314 61.23242378 -9.86254883 60.13085938 C-18.06601203 56.71873646 -26.29117237 53.00749637 -32 46 C-33.9385626 40.43197316 -34.25660065 35.29459084 -34.125 29.4375 C-34.11957184 28.72432617 -34.11414368 28.01115234 -34.10855103 27.27636719 C-33.86322388 16.1177427 -33.86322388 16.1177427 -30.13232422 11.87719727 C-27.82496037 10.30975704 -25.53800579 9.15056601 -23 8 C-21.61224449 7.15313378 -20.23403899 6.29036348 -18.8671875 5.41015625 C-17.53852705 4.6240969 -16.20781125 3.84150068 -14.875 3.0625 C-14.21113281 2.65193359 -13.54726563 2.24136719 -12.86328125 1.81835938 C-8.18415667 -0.89663169 -5.37616218 -1.67722707 0 0 Z " fill="#FCCA51" transform="translate(404,140)"/>
<path d="M0 0 C2.86670298 1.34477025 5.58778234 2.76118348 8.30639648 4.38452148 C9.27512695 4.96008789 10.24385742 5.5356543 11.24194336 6.12866211 C12.23645508 6.72743164 13.2309668 7.32620117 14.25561523 7.94311523 C15.77638672 8.84707031 15.77638672 8.84707031 17.32788086 9.76928711 C24.77776795 14.21526795 24.77776795 14.21526795 25.94311523 15.38061523 C26.03151194 17.75630043 26.05841829 20.10270197 26.04077148 22.47827148 C26.03935654 23.18712997 26.03794159 23.89598846 26.03648376 24.62632751 C26.03086966 26.89863236 26.01831486 29.17083999 26.00561523 31.44311523 C26.00060205 32.98022319 25.99603883 34.51733268 25.99194336 36.05444336 C25.98089566 39.82987165 25.96362165 43.60522694 25.94311523 47.38061523 C22.34275621 49.55393533 18.73162108 51.70769601 15.109375 53.84423828 C13.87936276 54.57336841 12.65242237 55.30770715 11.42871094 56.04736328 C9.66664453 57.11118494 7.89429147 58.15563563 6.11889648 59.19702148 C5.05582275 59.83067627 3.99274902 60.46433105 2.89746094 61.1171875 C-0.48325719 62.56295366 -1.64278641 62.60437085 -5.05688477 61.38061523 C-6.91859595 60.47809152 -8.74575779 59.50231963 -10.54125977 58.47436523 C-12.06686523 57.60618164 -12.06686523 57.60618164 -13.62329102 56.72045898 C-14.67387695 56.11331055 -15.72446289 55.50616211 -16.80688477 54.88061523 C-18.4059668 53.96989258 -18.4059668 53.96989258 -20.03735352 53.04077148 C-27.88589332 48.55160668 -27.88589332 48.55160668 -29.05688477 47.38061523 C-29.1453227 44.93231097 -29.17217228 42.51240925 -29.15454102 40.06420898 C-29.15312607 39.33315445 -29.15171112 38.60209991 -29.1502533 37.84889221 C-29.14463885 35.50525891 -29.13208398 33.16171984 -29.11938477 30.81811523 C-29.11437162 29.23283015 -29.10980839 27.64754358 -29.10571289 26.06225586 C-29.09466473 22.16833913 -29.07739048 18.27449318 -29.05688477 14.38061523 C-25.47931136 12.18131856 -21.88675543 10.00973995 -18.27807617 7.86206055 C-17.05358429 7.12820744 -15.83344154 6.38704509 -14.61791992 5.63842773 C-12.86640911 4.56145624 -11.10076872 3.51202581 -9.33032227 2.46655273 C-8.27248535 1.82766113 -7.21464844 1.18876953 -6.12475586 0.53051758 C-3.05688477 -0.61938477 -3.05688477 -0.61938477 0 0 Z " fill="#FB7CA0" transform="translate(180.056884765625,246.619384765625)"/>
<path d="M0 0 C2.01708984 0.96801758 2.01708984 0.96801758 3.9609375 2.14453125 C4.68023437 2.57443359 5.39953125 3.00433594 6.140625 3.44726562 C6.87796875 3.89779297 7.6153125 4.34832031 8.375 4.8125 C9.8409213 5.69438375 11.30706476 6.57589834 12.7734375 7.45703125 C13.47823242 7.88322754 14.18302734 8.30942383 14.90917969 8.74853516 C17.91314429 10.54656441 20.95323527 12.27564371 24 14 C25.22492927 39.89312033 25.22492927 39.89312033 20.64453125 47.37109375 C14.59514688 53.38473582 6.10421788 59.19973773 -2 62 C-5.4769804 61.67957174 -7.99614682 60.64990812 -10.9609375 58.85546875 C-11.68023437 58.42556641 -12.39953125 57.99566406 -13.140625 57.55273438 C-13.87796875 57.10220703 -14.6153125 56.65167969 -15.375 56.1875 C-16.8409213 55.30561625 -18.30706476 54.42410166 -19.7734375 53.54296875 C-20.41716309 53.15133545 -21.06088867 52.75970215 -21.72412109 52.35620117 C-24.79125841 50.5284874 -27.90001097 48.7714223 -31 47 C-31 36.11 -31 25.22 -31 14 C-24.7196875 10.2565625 -24.7196875 10.2565625 -18.3125 6.4375 C-17.00063721 5.64529053 -15.68877441 4.85308105 -14.3371582 4.03686523 C-12.77227661 3.11949585 -12.77227661 3.11949585 -11.17578125 2.18359375 C-9.58117065 1.23311157 -9.58117065 1.23311157 -7.9543457 0.26342773 C-4.61436659 -1.16491636 -3.37628256 -1.19093106 0 0 Z " fill="#D1DBFC" transform="translate(244,375)"/>
<path d="M0 0 C3.01538077 1.70040467 6.03028897 3.40139918 9.0402832 5.11132812 C10.09795898 5.70558594 11.15563477 6.29984375 12.24536133 6.91210938 C13.25405273 7.48316406 14.26274414 8.05421875 15.30200195 8.64257812 C16.22327881 9.16400391 17.14455566 9.68542969 18.09375 10.22265625 C20.3527832 11.61132812 20.3527832 11.61132812 22.3527832 13.61132812 C22.9414086 18.22121326 23.02267248 22.83307782 23.10791016 27.47680664 C23.14595643 29.01662838 23.20724885 30.55606239 23.29248047 32.09399414 C23.56974229 37.13733777 23.62225091 41.69634485 22.3527832 46.61132812 C19.09701675 50.00409937 15.70238524 51.89140643 11.3527832 53.61132812 C6.96424026 49.46156144 3.33437866 44.90015028 -0.3347168 40.11132812 C-1.25619507 38.91745483 -1.25619507 38.91745483 -2.19628906 37.69946289 C-4.01671743 35.33938466 -5.83243515 32.97574977 -7.6472168 30.61132812 C-8.61052074 29.35984302 -9.57404012 28.1085237 -10.5378418 26.85742188 C-12.17779235 24.72833638 -13.81398741 22.59655741 -15.44799805 20.46289062 C-18.0808778 17.04903233 -20.76373981 13.67629148 -23.4675293 10.31835938 C-24.6472168 8.61132812 -24.6472168 8.61132812 -24.6472168 6.61132812 C-22.10380235 4.5906824 -19.24790726 3.02101959 -16.4597168 1.36132812 C-15.69079102 0.87664062 -14.92186523 0.39195312 -14.12963867 -0.10742188 C-13.37875977 -0.55601562 -12.62788086 -1.00460937 -11.85424805 -1.46679688 C-11.1682251 -1.88348633 -10.48220215 -2.30017578 -9.77539062 -2.72949219 C-5.99815174 -3.89945261 -3.32786963 -1.74572742 0 0 Z " fill="#FA8D02" transform="translate(388.647216796875,385.388671875)"/>
<path d="M0 0 C0.99 9.405 0.99 9.405 2 19 C-5.89073427 20.36004267 -13.76431696 21.53075071 -21.71484375 22.47265625 C-23.30299644 22.6646183 -23.30299644 22.6646183 -24.92323303 22.86045837 C-28.26102055 23.26369251 -31.59921189 23.66343305 -34.9375 24.0625 C-38.30074643 24.46541524 -41.66388582 24.86914832 -45.02674866 25.2752533 C-47.10776507 25.52649717 -49.18900484 25.77589975 -51.27049255 26.02320862 C-52.21239944 26.13680222 -53.15430634 26.25039581 -54.12475586 26.36743164 C-54.94793808 26.46576797 -55.7711203 26.56410431 -56.61924744 26.66542053 C-58.27732915 26.89843933 -59.92736313 27.19354687 -61.56642151 27.53562927 C-64.73223097 28.13972289 -67.78577492 28.06302402 -71 28 C-71.36295678 24.85511498 -71.71388796 21.70900484 -72.0625 18.5625 C-72.16626953 17.66466797 -72.27003906 16.76683594 -72.37695312 15.84179688 C-72.47041016 14.98779297 -72.56386719 14.13378906 -72.66015625 13.25390625 C-72.74918213 12.46314697 -72.83820801 11.6723877 -72.92993164 10.85766602 C-72.9530542 10.24463623 -72.97617676 9.63160645 -73 9 C-70.75712544 6.75712544 -65.68075521 7.11917868 -62.5625 6.75 C-61.54365723 6.6264917 -60.52481445 6.5029834 -59.47509766 6.37573242 C-57.08438514 6.08689041 -54.69340984 5.80021915 -52.30224609 5.51513672 C-48.23019722 5.02913934 -44.15948176 4.53247516 -40.08879089 4.0352478 C-36.30177236 3.57337678 -32.51432387 3.11510166 -28.72677612 2.65759277 C-26.83010525 2.42807707 -24.93355867 2.1975318 -23.03713989 1.96594238 C-20.33506491 1.63655446 -17.63246309 1.31186356 -14.9296875 0.98828125 C-13.71216545 0.83849571 -13.71216545 0.83849571 -12.470047 0.6856842 C-11.32447578 0.54990211 -11.32447578 0.54990211 -10.15576172 0.41137695 C-9.49534882 0.3316011 -8.83493591 0.25182526 -8.1545105 0.16963196 C-5.44414002 -0.04376475 -2.71875822 0 0 0 Z " fill="#90AFF1" transform="translate(341,290)"/>
<path d="M0 0 C0.33 0 0.66 0 1 0 C1.18433594 0.83917969 1.36867188 1.67835938 1.55859375 2.54296875 C3.517413 10.66553924 6.1505158 18.25156774 9.4375 25.9375 C9.99425415 27.24980591 9.99425415 27.24980591 10.56225586 28.58862305 C12.70807295 33.49461591 15.07780599 37.92856674 18.16430664 42.31079102 C19 44 19 44 18 47 C16.14575195 48.05908203 16.14575195 48.05908203 13.73828125 49.0078125 C12.43020508 49.52794922 12.43020508 49.52794922 11.09570312 50.05859375 C10.17724609 50.41050781 9.25878906 50.76242187 8.3125 51.125 C6.96381836 51.66447266 6.96381836 51.66447266 5.58789062 52.21484375 C-1.71734775 55.07691073 -8.01366024 56.1615285 -15.875 56.0625 C-16.56335938 56.05798828 -17.25171875 56.05347656 -17.9609375 56.04882812 C-19.64066335 56.03716336 -21.32034375 56.01923271 -23 56 C-21.05948048 49.90935023 -18.85018792 44.00548171 -16.34765625 38.125 C-15.83554848 36.91094482 -15.83554848 36.91094482 -15.31309509 35.67236328 C-14.23271462 33.11356336 -13.14759342 30.55680429 -12.0625 28 C-11.3389016 26.28658124 -10.61559202 24.57304048 -9.89257812 22.859375 C-9.19036679 21.19780565 -8.48790125 19.53634371 -7.78515625 17.875 C-7.46523209 17.11848145 -7.14530792 16.36196289 -6.81568909 15.58251953 C-4.59988839 10.3629325 -2.31756757 5.17516848 0 0 Z " fill="#D0DAFB" transform="translate(289,414)"/>
<path d="M0 0 C4.7871428 0.57665391 8.25128824 2.64082996 12.3125 5.0625 C12.95767578 5.43955078 13.60285156 5.81660156 14.26757812 6.20507812 C15.84878152 7.13037493 17.4249146 8.06432681 19 9 C15.76075898 15.11302006 12.18906693 20.78136843 8.125 26.375 C3.52456248 32.79166077 -0.87027749 39.267389 -5 46 C-5.96421875 45.44570313 -6.9284375 44.89140625 -7.921875 44.3203125 C-9.19788361 43.58848403 -10.47392712 42.8567164 -11.75 42.125 C-12.38421875 41.76019531 -13.0184375 41.39539063 -13.671875 41.01953125 C-16.74250368 39.2603169 -19.80851875 37.53126626 -23 36 C-21.5306702 31.71114544 -19.24659222 28.3491944 -16.5625 24.75 C-10.6926872 16.72303647 -5.33977225 8.38526973 0 0 Z " fill="#6865F6" transform="translate(424,334)"/>
<path d="M0 0 C3.45362441 2.05889147 5.39055897 3.33399034 6.77734375 7.125 C7.5484123 11.47235791 7.24781222 13.53741719 5.125 17.5 C2.21244141 20.40442295 -0.80784173 21.09725156 -4.84375 21.3125 C-7 21 -7 21 -10 18.6875 C-12.74645676 14.99694873 -13.39792297 12.70902702 -13.35546875 8.0390625 C-12.75359564 4.58655959 -10.68176469 3.05809848 -8 1 C-4.88155225 -0.03948258 -3.23905421 -0.45196105 0 0 Z " fill="#6966F6" transform="translate(343,506)"/>
<path d="M0 0 C2.8100346 1.79363911 4.50940468 3.01880935 6 6 C6.57884232 13.06187625 6.57884232 13.06187625 4.1875 16.9375 C1.35796607 19.60534627 -0.5331709 19.9481301 -4.375 20.375 C-8 20 -8 20 -10.875 17.625 C-14.16087102 13.56598286 -14.44427743 11.24247372 -14 6 C-10.26747896 0.27680107 -6.74763808 -0.96948823 0 0 Z " fill="#6965F6" transform="translate(284,493)"/>
<path d="M0 0 C2.8100346 1.79363911 4.50940468 3.01880935 6 6 C6.57884232 13.06187625 6.57884232 13.06187625 4.1875 16.9375 C1.35796607 19.60534627 -0.5331709 19.9481301 -4.375 20.375 C-8 20 -8 20 -10.875 18 C-13.71238974 13.9942733 -14 11.9090291 -14 7 C-11.20255119 0.56586773 -6.77299948 -1.10902915 0 0 Z " fill="#6A66F7" transform="translate(378,474)"/>
</svg>
