<?xml version="1.0" encoding="UTF-8"?>
<svg version="1.1" xmlns="http://www.w3.org/2000/svg" width="640" height="640">
<path d="M0 0 C211.2 0 422.4 0 640 0 C640 211.2 640 422.4 640 640 C428.8 640 217.6 640 0 640 C0 428.8 0 217.6 0 0 Z " fill="#FEFEFE" transform="translate(0,0)"/>
<path d="M0 0 C2.58276367 1.1105957 2.58276367 1.1105957 5.16796875 2.67578125 C6.13516846 3.25150879 7.10236816 3.82723633 8.09887695 4.42041016 C9.11812256 5.0447998 10.13736816 5.66918945 11.1875 6.3125 C13.33031227 7.59835125 15.47354734 8.88349815 17.6171875 10.16796875 C18.68549805 10.8129834 19.75380859 11.45799805 20.85449219 12.12255859 C23.78027078 13.86885147 26.72695745 15.56563674 29.6953125 17.23828125 C30.56260986 17.7283667 31.42990723 18.21845215 32.32348633 18.72338867 C33.94522805 19.63662253 35.56993852 20.54461055 37.19799805 21.4465332 C37.922854 21.85863037 38.64770996 22.27072754 39.39453125 22.6953125 C40.02206299 23.04609863 40.64959473 23.39688477 41.29614258 23.75830078 C43.56763407 25.4136677 44.66926106 26.47370671 46 29 C46.41033064 32.195951 46.34844182 35.36072318 46.29296875 38.578125 C46.28872391 39.5046991 46.28447906 40.43127319 46.28010559 41.38592529 C46.26333322 44.34091434 46.22568355 47.29521761 46.1875 50.25 C46.1724513 52.25519847 46.15876322 54.26040765 46.14648438 56.265625 C46.11343438 61.17734696 46.06166182 66.08855726 46 71 C46.71478516 71.27400635 47.42957031 71.5480127 48.16601562 71.83032227 C50.98323506 72.99308056 53.64309218 74.30372601 56.34375 75.71484375 C57.84228516 76.49698242 57.84228516 76.49698242 59.37109375 77.29492188 C60.40363281 77.83697266 61.43617188 78.37902344 62.5 78.9375 C63.53253906 79.47568359 64.56507813 80.01386719 65.62890625 80.56835938 C73.72007311 84.80186668 73.72007311 84.80186668 76.45898438 86.74047852 C79.82889607 88.41086422 81.41917484 88.03992572 85 87 C88.02059088 85.59276011 88.02059088 85.59276011 91.02734375 83.76171875 C92.14947266 83.10623047 93.27160156 82.45074219 94.42773438 81.77539062 C95.59780896 81.07968385 96.76772979 80.38371843 97.9375 79.6875 C99.10300904 79.00239268 100.26902104 78.31814023 101.43554688 77.63476562 C105.3837881 75.31746742 109.3313547 72.99923956 113.2590332 70.6472168 C117.52218826 68.13004845 120.00027134 67.23732953 125 68 C132.68543741 71.22142994 139.82197135 75.72778025 146.96044922 79.9934082 C148.75907146 81.06791936 150.5609017 82.1368838 152.36328125 83.20507812 C168.36514123 92.7197978 168.36514123 92.7197978 171 97 C171.39440918 99.4147644 171.39440918 99.4147644 171.41992188 102.13232422 C171.43583374 103.15373505 171.45174561 104.17514587 171.46813965 105.22750854 C171.46844177 106.87446213 171.46844177 106.87446213 171.46875 108.5546875 C171.47636353 109.688992 171.48397705 110.82329651 171.49182129 111.99197388 C171.5026246 114.39094848 171.50547448 116.78997013 171.50097656 119.18896484 C171.50000539 122.8546423 171.54160425 126.51821914 171.5859375 130.18359375 C171.59114538 132.51562064 171.59383268 134.8476548 171.59375 137.1796875 C171.61014526 138.27360809 171.62654053 139.36752869 171.64343262 140.49459839 C171.56650509 148.99067724 171.56650509 148.99067724 168.86962891 152.48779297 C165.87006816 155.1137484 162.97719153 157.08067348 159.4921875 159.015625 C158.58123825 159.52848053 158.58123825 159.52848053 157.65188599 160.05169678 C155.73239812 161.12926177 153.80421633 162.18996979 151.875 163.25 C149.9409282 164.32807041 148.00875096 165.40947976 146.07669067 166.4911499 C144.33126277 167.46588107 142.58151221 168.43285983 140.83154297 169.39941406 C137.92792529 170.99500596 137.92792529 170.99500596 135 173 C134.733513 176.05075084 134.65242854 178.89626179 134.70703125 181.9453125 C134.71127609 182.8303244 134.71552094 183.7153363 134.71989441 184.62716675 C134.73671741 187.46008445 134.77437575 190.29229652 134.8125 193.125 C134.82754218 195.04295849 134.84123139 196.96092811 134.85351562 198.87890625 C134.88663273 203.58621031 134.93843945 208.29298544 135 213 C135.80107178 213.4532666 136.60214355 213.9065332 137.42749023 214.37353516 C140.44270833 216.0817741 143.45615294 217.79306488 146.46850586 219.50634766 C147.76437398 220.24257428 149.06090672 220.97763251 150.3581543 221.71142578 C171.70251581 233.78816603 171.70251581 233.78816603 175 239 C175.39440918 241.4594574 175.39440918 241.4594574 175.41992188 244.23999023 C175.43583374 245.28464951 175.45174561 246.32930878 175.46813965 247.40562439 C175.46844177 249.09009422 175.46844177 249.09009422 175.46875 250.80859375 C175.47636353 251.96746597 175.48397705 253.1263382 175.49182129 254.32032776 C175.50262447 256.77057745 175.50547453 259.2208732 175.50097656 261.67114258 C175.50000448 265.42021465 175.54162281 269.16723919 175.5859375 272.91601562 C175.5911446 275.29687073 175.59383269 277.67773295 175.59375 280.05859375 C175.61014526 281.17954941 175.62654053 282.30050507 175.64343262 283.45542908 C175.57463279 291.20244543 175.57463279 291.20244543 172.81811523 295.02832031 C170.02960432 296.97928749 167.27883631 298.81139243 164.31640625 300.48828125 C162.68711182 301.41918579 162.68711182 301.41918579 161.02490234 302.36889648 C159.88230957 303.01028564 158.7397168 303.6516748 157.5625 304.3125 C156.38201389 304.9800016 155.20183906 305.64805401 154.02197266 306.31665039 C151.71570857 307.62336971 149.4079296 308.9272568 147.09912109 310.22949219 C144.52442563 311.70039903 141.98258443 313.20480692 139.45703125 314.7578125 C138.83304443 315.13639404 138.20905762 315.51497559 137.56616211 315.9050293 C136.01445527 316.85236122 134.47160331 317.81415761 132.9296875 318.77734375 C129.05895205 320.39273068 126.06305489 320.90648995 122 320 C117.59559417 318.07591514 113.50805176 315.69490386 109.375 313.25 C107.71597656 312.29867187 107.71597656 312.29867187 106.0234375 311.328125 C97.45791079 306.38647498 97.45791079 306.38647498 93.5390625 303.546875 C90.569013 301.73742946 89.41965948 301.62462608 86 302 C83.21928712 303.31067813 83.21928712 303.31067813 80.4375 305.17578125 C78.87128906 306.17061523 78.87128906 306.17061523 77.2734375 307.18554688 C75.65308594 308.23838867 75.65308594 308.23838867 74 309.3125 C71.85423012 310.68369305 69.70839898 312.05479024 67.5625 313.42578125 C66.61503906 314.03848877 65.66757812 314.65119629 64.69140625 315.2824707 C62 317 62 317 59.21142578 318.36181641 C56.76316035 319.83156389 56.76316035 319.83156389 56.22607422 322.62524414 C55.36225466 338.5517634 55.70914728 349.71111728 66.421875 361.98046875 C67.02708984 362.64739746 67.63230469 363.31432617 68.25585938 364.00146484 C71.00217967 367.14835425 73.26013742 370.58518543 75.5625 374.0625 C76.46115756 375.38313589 77.36220334 376.70214981 78.265625 378.01953125 C78.71357422 378.6738916 79.16152344 379.32825195 79.62304688 380.00244141 C81.99136191 383.43817787 84.40160144 386.84407082 86.8125 390.25 C87.81251211 391.66405394 88.81251187 393.0781166 89.8125 394.4921875 C90.32554687 395.21760742 90.83859375 395.94302734 91.3671875 396.69042969 C121.80162503 439.73914067 121.80162503 439.73914067 118.5390625 459.83984375 C115.42731578 472.5980053 108.65480496 483.09291792 97.7265625 490.39453125 C82.42500206 499.40447586 62.55336366 498.73225523 45.32421875 500.12890625 C42.94436895 500.32503309 40.56455279 500.52156835 38.18476868 500.7184906 C31.95633602 501.23295679 25.72752342 501.74265973 19.49859619 502.25109863 C9.51346778 503.06697482 -0.47105322 503.8902514 -10.45558739 504.71336174 C-13.92798343 504.99894709 -17.400537 505.28254816 -20.87312317 505.56581116 C-23.01087748 505.7411839 -25.1486289 505.91659198 -27.28637695 506.09204102 C-28.71966843 506.20816994 -28.71966843 506.20816994 -30.18191528 506.3266449 C-35.15461899 506.73628626 -40.1118734 507.20891292 -45.06762981 507.78990078 C-58.69024345 509.27103546 -70.74698494 507.27387778 -81.78515625 498.84765625 C-92.75081351 489.69993864 -98.77111656 478.70721588 -100.421875 464.32421875 C-101.00302722 448.77839674 -93.59023681 435.6143875 -86.81945801 422.02416992 C-84.55609539 417.47985542 -82.31815422 412.92303679 -80.078125 408.3671875 C-79.63498962 407.46728088 -79.19185425 406.56737427 -78.73529053 405.64019775 C-74.6032585 397.23205361 -70.6413262 388.75511479 -66.76098633 380.2277832 C-63.8576095 373.88155551 -60.82071839 367.6267602 -57.65234375 361.41015625 C-56.53097422 359.18619544 -55.41136655 356.96135512 -54.29211426 354.73632812 C-53.56835213 353.3119988 -52.83533957 351.89232376 -52.09216309 350.47802734 C-47.41602272 341.57670415 -44.86691633 334.29847155 -46 324 C-46.9744104 323.49400269 -46.9744104 323.49400269 -47.96850586 322.9777832 C-50.95885112 321.4239946 -53.94817978 319.8682597 -56.9375 318.3125 C-57.95908203 317.78205078 -58.98066406 317.25160156 -60.03320312 316.70507812 C-61.04189453 316.17978516 -62.05058594 315.65449219 -63.08984375 315.11328125 C-64.58813721 314.33525146 -64.58813721 314.33525146 -66.11669922 313.54150391 C-69.50224457 311.73148415 -72.79587003 309.78673895 -76.06469727 307.77416992 C-78.52401449 306.79038098 -79.54776838 307.07217736 -82 308 C-83.30052058 308.62431054 -84.57902432 309.29589023 -85.8359375 310.00390625 C-86.56369385 310.41141113 -87.2914502 310.81891602 -88.04125977 311.23876953 C-88.81139404 311.67560059 -89.58152832 312.11243164 -90.375 312.5625 C-91.57177368 313.22934814 -91.57177368 313.22934814 -92.79272461 313.90966797 C-96.56603195 316.01988737 -100.30485704 318.16486814 -103.98046875 320.44140625 C-104.58906738 320.81128662 -105.19766602 321.18116699 -105.82470703 321.56225586 C-107.45637144 322.56009727 -109.0744251 323.58009875 -110.69140625 324.6015625 C-115.12641893 326.47610151 -118.26448485 327.04863163 -123 326 C-127.81311389 323.87342354 -132.25885534 321.21971783 -136.75 318.5 C-137.94688051 317.79511267 -139.14479348 317.09197538 -140.34375 316.390625 C-143.31986869 314.64261386 -146.27500101 312.86221404 -149.22485352 311.0703125 C-151.02389857 309.98559052 -152.83382217 308.92115702 -154.64648438 307.859375 C-155.81139094 307.16699132 -156.97611184 306.47429514 -158.140625 305.78125 C-159.6879834 304.86956055 -159.6879834 304.86956055 -161.26660156 303.93945312 C-164.37733043 301.7322693 -166.12036203 300.34688677 -168 297 C-168.60411007 293.20062052 -168.60811975 289.44276898 -168.6015625 285.6015625 C-168.61013275 284.49324066 -168.618703 283.38491882 -168.62753296 282.24301147 C-168.63900561 279.90129322 -168.64003026 277.5595037 -168.63134766 275.21777344 C-168.62503346 271.64393796 -168.67193095 268.07342535 -168.72265625 264.5 C-168.72720324 262.22135833 -168.72860876 259.94270779 -168.7265625 257.6640625 C-168.74498199 256.60031403 -168.76340149 255.53656555 -168.78237915 254.44058228 C-168.70708205 248.36976153 -168.05214271 244.7008876 -163.64782715 240.36276245 C-161.39077512 238.49616755 -159.13394046 236.9765325 -156.55859375 235.578125 C-155.56279297 235.02769531 -154.56699219 234.47726562 -153.54101562 233.91015625 C-152.51685547 233.36230469 -151.49269531 232.81445312 -150.4375 232.25 C-148.39439569 231.13045569 -146.35142236 230.01067231 -144.30859375 228.890625 C-143.40939209 228.40625977 -142.51019043 227.92189453 -141.58374023 227.42285156 C-139.79280261 226.43659204 -138.03017122 225.39782617 -136.29321289 224.31933594 C-134 223 -134 223 -132 223 C-132.1416186 218.79151412 -132.28910375 214.58325191 -132.4375 210.375 C-132.47681641 209.20453125 -132.51613281 208.0340625 -132.55664062 206.828125 C-132.64208531 204.43567385 -132.7491002 202.04390634 -132.87646484 199.65332031 C-133 196 -133 196 -132.78369141 192.27636719 C-132.68746814 188.47732997 -132.80271202 185.61344933 -134 182 C-137.97394891 178.11585998 -142.5525029 175.87124175 -147.5 173.5 C-148.77078564 172.84871425 -150.03905297 172.19249014 -151.3046875 171.53125 C-153.15483901 170.56689648 -155.00601497 169.60651848 -156.86767578 168.66455078 C-169.48947809 162.26578286 -169.48947809 162.26578286 -173 157 C-173.28761292 154.62956238 -173.28761292 154.62956238 -173.33813477 151.79760742 C-173.36057755 150.73607956 -173.38302032 149.6745517 -173.40614319 148.58085632 C-173.41778 147.43397842 -173.42941681 146.28710052 -173.44140625 145.10546875 C-173.45517807 143.92535721 -173.46894989 142.74524567 -173.48313904 141.52937317 C-173.50642918 139.03029073 -173.52368531 136.53114593 -173.53540039 134.03198242 C-173.56232572 130.21222394 -173.63722417 126.39523274 -173.71289062 122.57617188 C-173.72954756 120.14845615 -173.74331411 117.72071852 -173.75390625 115.29296875 C-173.78376114 114.15216354 -173.81361603 113.01135834 -173.84437561 111.83598328 C-173.80171013 104.12607394 -173.80171013 104.12607394 -171.5997467 101.03321838 C-169.81675242 99.45094871 -168.04733409 98.21635702 -166 97 C-164.51947144 96.03622437 -164.51947144 96.03622437 -163.0090332 95.05297852 C-162.03281006 94.50053467 -161.05658691 93.94809082 -160.05078125 93.37890625 C-158.95443359 92.75306641 -157.85808594 92.12722656 -156.72851562 91.48242188 C-155.03758789 90.53206055 -155.03758789 90.53206055 -153.3125 89.5625 C-151.07927413 88.29323783 -148.84620049 87.02370778 -146.61328125 85.75390625 C-144.96706787 84.82989014 -144.96706787 84.82989014 -143.28759766 83.88720703 C-141.08155453 82.62085374 -138.89853731 81.313586 -136.73974609 79.96826172 C-126.62877624 73.70698969 -126.62877624 73.70698969 -121 75 C-117.2864295 76.60858425 -113.81568082 78.54187153 -110.3125 80.5625 C-108.84756104 81.37654297 -108.84756104 81.37654297 -107.35302734 82.20703125 C-103.21325573 84.52106097 -99.12268113 86.86446302 -95.17578125 89.49609375 C-93.66564453 90.48802734 -93.66564453 90.48802734 -92.125 91.5 C-91.30257812 92.0878125 -90.48015625 92.675625 -89.6328125 93.28125 C-86.14619538 94.23308613 -84.32898356 93.12625956 -81.27050781 91.39355469 C-80.52124023 90.93368164 -79.77197266 90.47380859 -79 90 C-78.1656543 89.49629883 -77.33130859 88.99259766 -76.47167969 88.47363281 C-72.79561528 86.21960721 -69.15604351 83.90949931 -65.51367188 81.6015625 C-64.61841797 81.03953125 -63.72316406 80.4775 -62.80078125 79.8984375 C-61.99809814 79.38974121 -61.19541504 78.88104492 -60.3684082 78.35693359 C-57.97321603 76.98465465 -55.58414484 75.96184905 -53 75 C-53.01571045 73.69329346 -53.0314209 72.38658691 -53.04760742 71.0402832 C-53.1019672 66.18552836 -53.13637226 61.33080036 -53.16479492 56.47583008 C-53.17986772 54.37584914 -53.20032941 52.2758996 -53.22631836 50.17602539 C-53.26276754 47.15503176 -53.27974159 44.13445489 -53.29296875 41.11328125 C-53.30845261 40.17664139 -53.32393646 39.24000153 -53.33988953 38.27497864 C-53.34114978 33.37767427 -53.29173594 29.91147779 -50 26 C-48.23486328 24.48486328 -48.23486328 24.48486328 -46.1953125 23.1953125 C-45.39899414 22.69161133 -44.60267578 22.18791016 -43.78222656 21.66894531 C-38.19484039 18.31729808 -32.54608679 15.08194398 -26.875 11.875 C-25.01377494 10.81787061 -23.15306678 9.75983748 -21.2925415 8.70147705 C-19.54208189 7.70800502 -17.78817743 6.72061038 -16.03417969 5.73339844 C-13.65341701 4.37329102 -11.33229767 2.95917968 -9.0078125 1.5078125 C-5.5674449 -0.21683931 -3.80345173 -0.31722582 0 0 Z " fill="#072C76" transform="translate(319,90)"/>
<path d="M0 0 C2.58276367 1.1105957 2.58276367 1.1105957 5.16796875 2.67578125 C6.13516846 3.25150879 7.10236816 3.82723633 8.09887695 4.42041016 C9.11812256 5.0447998 10.13736816 5.66918945 11.1875 6.3125 C13.33031227 7.59835125 15.47354734 8.88349815 17.6171875 10.16796875 C18.68549805 10.8129834 19.75380859 11.45799805 20.85449219 12.12255859 C23.78027078 13.86885147 26.72695745 15.56563674 29.6953125 17.23828125 C30.56260986 17.7283667 31.42990723 18.21845215 32.32348633 18.72338867 C33.94522805 19.63662253 35.56993852 20.54461055 37.19799805 21.4465332 C37.922854 21.85863037 38.64770996 22.27072754 39.39453125 22.6953125 C40.02206299 23.04609863 40.64959473 23.39688477 41.29614258 23.75830078 C43.56763407 25.4136677 44.66926106 26.47370671 46 29 C46.41033064 32.195951 46.34844182 35.36072318 46.29296875 38.578125 C46.28872391 39.5046991 46.28447906 40.43127319 46.28010559 41.38592529 C46.26333322 44.34091434 46.22568355 47.29521761 46.1875 50.25 C46.1724513 52.25519847 46.15876322 54.26040765 46.14648438 56.265625 C46.11343438 61.17734696 46.06166182 66.08855726 46 71 C46.71478516 71.27400635 47.42957031 71.5480127 48.16601562 71.83032227 C50.98323506 72.99308056 53.64309218 74.30372601 56.34375 75.71484375 C57.84228516 76.49698242 57.84228516 76.49698242 59.37109375 77.29492188 C60.40363281 77.83697266 61.43617188 78.37902344 62.5 78.9375 C63.53253906 79.47568359 64.56507813 80.01386719 65.62890625 80.56835938 C73.72007311 84.80186668 73.72007311 84.80186668 76.45898438 86.74047852 C79.82889607 88.41086422 81.41917484 88.03992572 85 87 C88.02059088 85.59276011 88.02059088 85.59276011 91.02734375 83.76171875 C92.14947266 83.10623047 93.27160156 82.45074219 94.42773438 81.77539062 C95.59780896 81.07968385 96.76772979 80.38371843 97.9375 79.6875 C99.10300904 79.00239268 100.26902104 78.31814023 101.43554688 77.63476562 C105.3837881 75.31746742 109.3313547 72.99923956 113.2590332 70.6472168 C117.52218826 68.13004845 120.00027134 67.23732953 125 68 C132.68543741 71.22142994 139.82197135 75.72778025 146.96044922 79.9934082 C148.75907146 81.06791936 150.5609017 82.1368838 152.36328125 83.20507812 C168.36514123 92.7197978 168.36514123 92.7197978 171 97 C171.39440918 99.4147644 171.39440918 99.4147644 171.41992188 102.13232422 C171.43583374 103.15373505 171.45174561 104.17514587 171.46813965 105.22750854 C171.46844177 106.87446213 171.46844177 106.87446213 171.46875 108.5546875 C171.47636353 109.688992 171.48397705 110.82329651 171.49182129 111.99197388 C171.5026246 114.39094848 171.50547448 116.78997013 171.50097656 119.18896484 C171.50000539 122.8546423 171.54160425 126.51821914 171.5859375 130.18359375 C171.59114538 132.51562064 171.59383268 134.8476548 171.59375 137.1796875 C171.61014526 138.27360809 171.62654053 139.36752869 171.64343262 140.49459839 C171.56650509 148.99067724 171.56650509 148.99067724 168.86962891 152.48779297 C165.87006816 155.1137484 162.97719153 157.08067348 159.4921875 159.015625 C158.58123825 159.52848053 158.58123825 159.52848053 157.65188599 160.05169678 C155.73239812 161.12926177 153.80421633 162.18996979 151.875 163.25 C149.9409282 164.32807041 148.00875096 165.40947976 146.07669067 166.4911499 C144.33126277 167.46588107 142.58151221 168.43285983 140.83154297 169.39941406 C137.92792529 170.99500596 137.92792529 170.99500596 135 173 C134.733513 176.05075084 134.65242854 178.89626179 134.70703125 181.9453125 C134.71127609 182.8303244 134.71552094 183.7153363 134.71989441 184.62716675 C134.73671741 187.46008445 134.77437575 190.29229652 134.8125 193.125 C134.82754218 195.04295849 134.84123139 196.96092811 134.85351562 198.87890625 C134.88663273 203.58621031 134.93843945 208.29298544 135 213 C135.80107178 213.4532666 136.60214355 213.9065332 137.42749023 214.37353516 C140.44270833 216.0817741 143.45615294 217.79306488 146.46850586 219.50634766 C147.76437398 220.24257428 149.06090672 220.97763251 150.3581543 221.71142578 C171.70251581 233.78816603 171.70251581 233.78816603 175 239 C175.39440918 241.4594574 175.39440918 241.4594574 175.41992188 244.23999023 C175.43583374 245.28464951 175.45174561 246.32930878 175.46813965 247.40562439 C175.46844177 249.09009422 175.46844177 249.09009422 175.46875 250.80859375 C175.47636353 251.96746597 175.48397705 253.1263382 175.49182129 254.32032776 C175.50262447 256.77057745 175.50547453 259.2208732 175.50097656 261.67114258 C175.50000448 265.42021465 175.54162281 269.16723919 175.5859375 272.91601562 C175.5911446 275.29687073 175.59383269 277.67773295 175.59375 280.05859375 C175.61014526 281.17954941 175.62654053 282.30050507 175.64343262 283.45542908 C175.57463279 291.20244543 175.57463279 291.20244543 172.81811523 295.02832031 C170.02960432 296.97928749 167.27883631 298.81139243 164.31640625 300.48828125 C162.68711182 301.41918579 162.68711182 301.41918579 161.02490234 302.36889648 C159.88230957 303.01028564 158.7397168 303.6516748 157.5625 304.3125 C156.38201389 304.9800016 155.20183906 305.64805401 154.02197266 306.31665039 C151.71570857 307.62336971 149.4079296 308.9272568 147.09912109 310.22949219 C144.52442563 311.70039903 141.98258443 313.20480692 139.45703125 314.7578125 C138.83304443 315.13639404 138.20905762 315.51497559 137.56616211 315.9050293 C136.01445527 316.85236122 134.47160331 317.81415761 132.9296875 318.77734375 C129.05895205 320.39273068 126.06305489 320.90648995 122 320 C117.59559417 318.07591514 113.50805176 315.69490386 109.375 313.25 C107.71597656 312.29867187 107.71597656 312.29867187 106.0234375 311.328125 C97.45791079 306.38647498 97.45791079 306.38647498 93.5390625 303.546875 C90.569013 301.73742946 89.41965948 301.62462608 86 302 C83.21928712 303.31067813 83.21928712 303.31067813 80.4375 305.17578125 C78.87128906 306.17061523 78.87128906 306.17061523 77.2734375 307.18554688 C75.65308594 308.23838867 75.65308594 308.23838867 74 309.3125 C71.85423012 310.68369305 69.70839898 312.05479024 67.5625 313.42578125 C66.61503906 314.03848877 65.66757812 314.65119629 64.69140625 315.2824707 C62 317 62 317 59.1965332 318.34960938 C56.73374249 319.83582886 56.73374249 319.83582886 56.34057617 322.72729492 C56.32486572 323.80084229 56.30915527 324.87438965 56.29296875 325.98046875 C56.26396484 327.14384766 56.23496094 328.30722656 56.20507812 329.50585938 C56.19637695 331.32827148 56.19637695 331.32827148 56.1875 333.1875 C56.16236328 334.41404297 56.13722656 335.64058594 56.11132812 336.90429688 C56.05233546 339.9365198 56.01614319 342.96729509 56 346 C45.04289248 335.51501201 39.46628269 325.31230428 39.02636719 310.0234375 C38.98716005 307.01465274 38.97624455 304.00902412 39 301 C39.90492188 301.31453125 40.80984375 301.6290625 41.7421875 301.953125 C48.00911015 302.84254231 53.18683742 298.04809404 58.125 294.75 C59.19621094 294.05519531 60.26742187 293.36039062 61.37109375 292.64453125 C63.3666725 291.34976596 65.35705154 290.04692432 67.34033203 288.73339844 C74.60309859 284 74.60309859 284 77 284 C76.98334541 283.17434036 76.98334541 283.17434036 76.96635437 282.33200073 C76.85551001 276.58933787 76.78022965 270.84698014 76.7253418 265.10351562 C76.70023837 262.96178844 76.66614832 260.82014659 76.62280273 258.67871094 C76.5619685 255.5954887 76.53374819 252.51340157 76.51171875 249.4296875 C76.48591232 248.47633514 76.4601059 247.52298279 76.43351746 246.54074097 C76.43172088 242.25699049 76.47250797 239.03391801 79.16918945 235.56958008 C81.94340612 233.05137133 84.49280188 231.23863103 87.78125 229.45703125 C89.41513672 228.55887695 89.41513672 228.55887695 91.08203125 227.64257812 C92.20996094 227.03865234 93.33789062 226.43472656 94.5 225.8125 C96.73978673 224.59021639 98.97937731 223.36757326 101.21875 222.14453125 C102.20810547 221.61190674 103.19746094 221.07928223 104.21679688 220.53051758 C106.08427934 219.50356604 107.92499711 218.42649849 109.73632812 217.3034668 C112 216 112 216 114 216 C116.24663756 192.9731731 116.24663756 192.9731731 109.75927734 171.81298828 C104.20355201 167.07143883 97.76783198 164.4562498 90.92578125 162.06591797 C87.03089366 160.64693606 83.66870396 158.72063288 80.1875 156.5 C79.23230469 155.9534375 78.27710938 155.406875 77.29296875 154.84375 C74.32576248 152.45785331 73.39013232 150.55559892 72 147 C71.78074799 144.07484904 72.02512334 141.22399107 72.26171875 138.3046875 C73.97720377 120.97915187 73.97720377 120.97915187 68.95166016 105.08203125 C63.84864198 100.85406373 58.07542153 98.72156558 51.76171875 96.91308594 C48.21897273 95.74177493 45.32490127 93.94489717 42.24804688 91.85986328 C38.8666628 90.56650591 36.48882645 91.1906318 33 92 C29.87831762 93.38866352 29.87831762 93.38866352 26.875 95.23828125 C25.75609375 95.89376953 24.6371875 96.54925781 23.484375 97.22460938 C22.32272811 97.92025815 21.16127102 98.61622395 20 99.3125 C18.83917044 99.99781097 17.67771605 100.68206471 16.515625 101.36523438 C10.63816741 104.80386462 10.63816741 104.80386462 4.83984375 108.37255859 C1.01069597 110.75946417 -1.51031431 111.79915295 -6 111 C-9.32772153 109.56806673 -12.42891018 107.81212513 -15.5625 106 C-16.44421875 105.50467773 -17.3259375 105.00935547 -18.234375 104.49902344 C-22.23189373 102.2361944 -26.18195698 99.91766366 -30.05859375 97.453125 C-30.64890381 97.07800781 -31.23921387 96.70289063 -31.84741211 96.31640625 C-33.39836852 95.31558226 -34.93416444 94.2913743 -36.46875 93.265625 C-38.825263 91.78242394 -38.825263 91.78242394 -40.93212891 92.29785156 C-43.01315376 93.00446638 -44.7278677 93.85042637 -46.6171875 94.96875 C-47.308125 95.37609375 -47.9990625 95.7834375 -48.7109375 96.203125 C-49.42507813 96.63109375 -50.13921875 97.0590625 -50.875 97.5 C-51.55046875 97.89703125 -52.2259375 98.2940625 -52.921875 98.703125 C-54.40442613 99.58288062 -55.86946417 100.49255382 -57.31958008 101.42480469 C-60 103 -60 103 -63.6550293 104.55175781 C-67.71694925 106.41932645 -71.34072297 108.30658792 -74 112 C-76.31582676 119.23860834 -75.41321092 127.26855727 -75.0625 134.75 C-74.96594191 137.84804592 -74.88962226 140.944609 -74.83995056 144.04376221 C-74.80416089 145.96446478 -74.73883506 147.88490611 -74.64015198 149.80340576 C-74.51005413 154.24196567 -74.45935549 156.2781763 -77.18994141 159.92382812 C-79.80140369 161.85326993 -82.35953155 163.61976999 -85.17578125 165.234375 C-86.1613501 165.80454346 -87.14691895 166.37471191 -88.16235352 166.9621582 C-89.20190186 167.552146 -90.2414502 168.14213379 -91.3125 168.75 C-92.38105225 169.36254639 -93.44960449 169.97509277 -94.55053711 170.60620117 C-96.69784686 171.8356115 -98.8469923 173.06182166 -100.99804688 174.28466797 C-103.64189214 175.79537526 -106.26947574 177.32929252 -108.890625 178.87890625 C-110.28105108 179.69044508 -111.67166008 180.50167064 -113.0625 181.3125 C-113.67327393 181.67891602 -114.28404785 182.04533203 -114.91333008 182.42285156 C-118.9762511 184.75555311 -122.32985973 185.73537213 -127 186 C-130.12695313 184.78759766 -130.12695313 184.78759766 -133.28125 182.9140625 C-134.13880638 182.41533127 -134.13880638 182.41533127 -135.01368713 181.90652466 C-136.85369149 180.83054745 -138.67656292 179.72877823 -140.5 178.625 C-141.75877621 177.88029894 -143.01846468 177.13713776 -144.27905273 176.39550781 C-146.74813255 174.93894822 -149.21054888 173.47207208 -151.66748047 171.99511719 C-154.4533045 170.32729638 -157.25124869 168.68784218 -160.06640625 167.0703125 C-170.5411945 160.99483814 -170.5411945 160.99483814 -173 157 C-173.40786743 154.50930786 -173.40786743 154.50930786 -173.45166016 151.68408203 C-173.4740274 150.6226297 -173.49639465 149.56117737 -173.5194397 148.46755981 C-173.52591522 147.3258432 -173.53239075 146.18412659 -173.5390625 145.0078125 C-173.55759781 143.23976761 -173.55759781 143.23976761 -173.57650757 141.43600464 C-173.59607531 138.94290127 -173.60730616 136.44972062 -173.61083984 133.95654297 C-173.62492425 130.14549714 -173.69225987 126.33773003 -173.76171875 122.52734375 C-173.77411729 120.10418124 -173.78333686 117.68099996 -173.7890625 115.2578125 C-173.81578033 114.12014435 -173.84249817 112.9824762 -173.87002563 111.81033325 C-173.80414805 104.1264267 -173.80414805 104.1264267 -171.59751892 101.03544617 C-169.8151513 99.45367477 -168.0457324 98.21752727 -166 97 C-164.51947144 96.03622437 -164.51947144 96.03622437 -163.0090332 95.05297852 C-162.03281006 94.50053467 -161.05658691 93.94809082 -160.05078125 93.37890625 C-158.95443359 92.75306641 -157.85808594 92.12722656 -156.72851562 91.48242188 C-155.03758789 90.53206055 -155.03758789 90.53206055 -153.3125 89.5625 C-151.07927413 88.29323783 -148.84620049 87.02370778 -146.61328125 85.75390625 C-144.96706787 84.82989014 -144.96706787 84.82989014 -143.28759766 83.88720703 C-141.08155453 82.62085374 -138.89853731 81.313586 -136.73974609 79.96826172 C-126.62877624 73.70698969 -126.62877624 73.70698969 -121 75 C-117.2864295 76.60858425 -113.81568082 78.54187153 -110.3125 80.5625 C-108.84756104 81.37654297 -108.84756104 81.37654297 -107.35302734 82.20703125 C-103.21325573 84.52106097 -99.12268113 86.86446302 -95.17578125 89.49609375 C-93.66564453 90.48802734 -93.66564453 90.48802734 -92.125 91.5 C-91.30257812 92.0878125 -90.48015625 92.675625 -89.6328125 93.28125 C-86.14619538 94.23308613 -84.32898356 93.12625956 -81.27050781 91.39355469 C-80.52124023 90.93368164 -79.77197266 90.47380859 -79 90 C-78.1656543 89.49629883 -77.33130859 88.99259766 -76.47167969 88.47363281 C-72.79561528 86.21960721 -69.15604351 83.90949931 -65.51367188 81.6015625 C-64.61841797 81.03953125 -63.72316406 80.4775 -62.80078125 79.8984375 C-61.99809814 79.38974121 -61.19541504 78.88104492 -60.3684082 78.35693359 C-57.97321603 76.98465465 -55.58414484 75.96184905 -53 75 C-53.01571045 73.69329346 -53.0314209 72.38658691 -53.04760742 71.0402832 C-53.1019672 66.18552836 -53.13637226 61.33080036 -53.16479492 56.47583008 C-53.17986772 54.37584914 -53.20032941 52.2758996 -53.22631836 50.17602539 C-53.26276754 47.15503176 -53.27974159 44.13445489 -53.29296875 41.11328125 C-53.30845261 40.17664139 -53.32393646 39.24000153 -53.33988953 38.27497864 C-53.34114978 33.37767427 -53.29173594 29.91147779 -50 26 C-48.23486328 24.48486328 -48.23486328 24.48486328 -46.1953125 23.1953125 C-45.39899414 22.69161133 -44.60267578 22.18791016 -43.78222656 21.66894531 C-38.19484039 18.31729808 -32.54608679 15.08194398 -26.875 11.875 C-25.01377494 10.81787061 -23.15306678 9.75983748 -21.2925415 8.70147705 C-19.54208189 7.70800502 -17.78817743 6.72061038 -16.03417969 5.73339844 C-13.65341701 4.37329102 -11.33229767 2.95917968 -9.0078125 1.5078125 C-5.5674449 -0.21683931 -3.80345173 -0.31722582 0 0 Z " fill="#062B75" transform="translate(319,90)"/>
<path d="M0 0 C1.02714111 0.56219238 2.05428223 1.12438477 3.11254883 1.70361328 C4.24499023 2.31849609 5.37743164 2.93337891 6.54418945 3.56689453 C7.12322021 3.88835449 7.70225098 4.20981445 8.29882812 4.54101562 C10.07011355 5.5242219 11.8490912 6.49210745 13.63012695 7.45751953 C19.8442781 10.85738064 19.8442781 10.85738064 22.88208008 12.64892578 C23.65197266 13.0347583 24.42186523 13.42059082 25.21508789 13.81811523 C27.95228483 16.82430151 27.42455104 20.40329184 27.38598633 24.26220703 C27.40011818 25.53296333 27.40011818 25.53296333 27.41453552 26.82939148 C27.44323466 29.54031446 27.44626292 32.25036304 27.44458008 34.96142578 C27.4481929 37.66164982 27.45780793 40.36123378 27.4853363 43.06132507 C27.5020599 44.74077834 27.5050513 46.4204415 27.49232483 48.09992981 C27.53604737 52.99515917 28.00578727 56.5020908 30.88208008 60.64892578 C33.65417332 62.80554717 33.65417332 62.80554717 36.98364258 64.52392578 C37.57954193 64.85634277 38.17544128 65.18875977 38.78939819 65.53125 C40.68710891 66.58619097 42.59609497 67.6182604 44.50708008 68.64892578 C48.20415786 70.6767544 51.89276127 72.71896562 55.56689453 74.78808594 C57.61216022 75.93610973 59.67094442 77.06085171 61.75 78.14648438 C67.40632208 81.36217605 67.40632208 81.36217605 68.66235352 84.75927734 C69.00474834 87.31196246 69.02659309 89.70014364 68.94458008 92.27392578 C68.95094482 93.18166748 68.95730957 94.08940918 68.96386719 95.0246582 C68.97191302 96.92889226 68.95993015 98.83330557 68.92895508 100.73730469 C68.88205019 103.65078236 68.88972545 106.5594487 68.91333008 109.47314453 C68.94597322 114.19937623 68.9277674 118.92282593 68.88208008 123.64892578 C68.10606445 124.07189941 67.33004883 124.49487305 66.53051758 124.93066406 C63.61287651 126.52483459 60.69843627 128.12458294 57.78588867 129.72802734 C56.53221659 130.41675923 55.27736011 131.10334028 54.02124023 131.78759766 C41.83246403 137.4882181 41.83246403 137.4882181 32.88208008 146.64892578 C32.8644993 148.03847684 32.91227187 149.42915763 32.99414062 150.81640625 C34.80716021 186.55014792 34.80716021 186.55014792 30.0534668 194.83642578 C25.54949373 199.18073774 20.26361763 201.15591432 14.32348633 202.86035156 C10.83119749 203.98836086 8.44077928 205.77337513 5.50708008 207.96142578 C2.39097273 210.19689409 1.48258608 210.70954693 -2.40698242 210.31689453 C-3.3015918 210.09646484 -4.19620117 209.87603516 -5.11791992 209.64892578 C-7.34911908 204.08967746 -7.76266612 198.62012214 -8.24291992 192.71142578 C-8.3724707 191.26606445 -8.3724707 191.26606445 -8.50463867 189.79150391 C-8.73829125 187.07853782 -8.93557475 184.3657641 -9.11791992 181.64892578 C-9.17915039 180.94106934 -9.24038086 180.23321289 -9.3034668 179.50390625 C-9.40698242 177.64501953 -9.40698242 177.64501953 -9.11791992 174.64892578 C-7.50854492 172.89892578 -7.50854492 172.89892578 -5.36791992 171.64892578 C-1.33882872 168.89142719 1.60251231 166.50804389 2.88208008 161.64892578 C3.3625155 156.27790409 3.20218542 151.01775146 2.88208008 145.64892578 C2.8434082 144.90094727 2.80473633 144.15296875 2.76489258 143.38232422 C2.22930906 131.8467293 2.22930906 131.8467293 -3.37963867 122.09814453 C-14.36752345 112.93745857 -30.81682813 116.66991733 -44.17651367 117.82080078 C-45.66048012 117.9458197 -47.14445346 118.07075692 -48.62843323 118.19561768 C-51.70698445 118.45652578 -54.78499985 118.72298084 -57.86279297 118.99267578 C-61.78723641 119.33544427 -65.71312399 119.65690683 -69.6397543 119.97349167 C-72.69237752 120.22320678 -75.74358701 120.48774991 -78.79460335 120.75632477 C-80.24168749 120.88127302 -81.68924259 121.00089712 -83.13723564 121.11483002 C-92.09229446 121.82611301 -98.91124519 122.72449184 -106.21166992 128.22705078 C-111.32202913 134.30270006 -110.71813402 140.95960439 -110.24438477 148.48486328 C-110.11815683 150.64487175 -110.05817079 152.79834708 -110.01245117 154.96142578 C-109.77927125 163.03784542 -109.45535685 170.03047181 -103.73120117 176.12548828 C-101.21615795 178.38308613 -98.98714295 179.69580809 -95.80541992 180.83642578 C-93.11791992 182.64892578 -93.11791992 182.64892578 -92.52026367 184.52783203 C-92.20127613 187.25495085 -92.12824665 189.90201557 -92.11791992 192.64892578 C-92.10374023 193.96634766 -92.08956055 195.28376953 -92.07495117 196.64111328 C-92.04983899 200.31095559 -92.07388346 203.9792204 -92.11791992 207.64892578 C-94.66217845 206.40399168 -97.20326354 205.1531869 -99.74291992 203.89892578 C-100.45577148 203.55087891 -101.16862305 203.20283203 -101.90307617 202.84423828 C-102.60561523 202.49619141 -103.3081543 202.14814453 -104.03198242 201.78955078 C-104.99031982 201.3182373 -104.99031982 201.3182373 -105.96801758 200.83740234 C-106.67748535 200.44520508 -107.38695312 200.05300781 -108.11791992 199.64892578 C-109.17922119 199.14321045 -110.24052246 198.63749512 -111.33398438 198.11645508 C-114.37413337 195.4218321 -114.53785262 195.11825959 -114.81152344 191.3269043 C-114.81869665 189.56042979 -114.79521561 187.79365821 -114.74682617 186.02783203 C-114.74867416 185.09092026 -114.75052216 184.15400848 -114.75242615 183.18870544 C-114.75667839 180.19539108 -114.72250032 177.20442396 -114.68041992 174.21142578 C-114.6436104 171.22215582 -114.61590634 168.23436679 -114.61912537 165.24485779 C-114.62089181 163.38605433 -114.59973799 161.52705188 -114.5528717 159.6688385 C-114.55428585 155.34081257 -114.62565874 153.30462764 -117.28710938 149.75952148 C-120.09050535 147.66936554 -122.85795754 145.837751 -125.90698242 144.12548828 C-127.56793945 143.18189453 -127.56793945 143.18189453 -129.26245117 142.21923828 C-130.41100586 141.57728516 -131.55956055 140.93533203 -132.74291992 140.27392578 C-136.13007556 138.36501333 -139.50949089 136.45122878 -142.86010742 134.47875977 C-146.05465019 132.60677443 -146.05465019 132.60677443 -149.34448242 131.27416992 C-153.12257417 129.478285 -156.28786183 127.94943153 -157.78009033 123.8137207 C-159.02147283 118.19693113 -158.98994467 112.56069051 -158.86791992 106.83642578 C-158.86218964 105.96699341 -158.85645935 105.09756104 -158.85055542 104.20178223 C-158.61834154 87.99321552 -158.61834154 87.99321552 -153.88745117 83.27783203 C-150.39475189 80.92678952 -146.60321777 79.65329231 -142.58276367 78.47851562 C-138.2672903 77.02606133 -134.54275194 74.58349441 -130.68041992 72.21142578 C-129.95346924 71.79602539 -129.22651855 71.380625 -128.47753906 70.95263672 C-125.22062378 69.07997854 -123.23266951 67.82105016 -121.11791992 64.64892578 C-120.85885425 62.5779464 -120.85885425 62.5779464 -120.95776367 60.28857422 C-120.9701709 59.41046082 -120.98257813 58.53234741 -120.99536133 57.62762451 C-121.02509033 56.20730927 -121.02509033 56.20730927 -121.05541992 54.75830078 C-121.06435755 52.74919553 -121.0707886 50.74007785 -121.07495117 48.73095703 C-121.08918167 45.5654062 -121.11782551 42.4030831 -121.18969727 39.23828125 C-121.55359573 21.73011373 -121.55359573 21.73011373 -118.24243164 16.93017578 C-115.62104101 15.07054336 -113.0787256 13.89055397 -110.11791992 12.64892578 C-108.14388024 11.41738443 -106.18833635 10.15578206 -104.25073242 8.86767578 C-102.25030158 7.62458821 -100.2476791 6.38502082 -98.24291992 5.14892578 C-97.22456055 4.50439453 -96.20620117 3.85986328 -95.15698242 3.19580078 C-94.17729492 2.59251953 -93.19760742 1.98923828 -92.18823242 1.36767578 C-91.30925293 0.82046875 -90.43027344 0.27326172 -89.5246582 -0.29052734 C-87.11791992 -1.35107422 -87.11791992 -1.35107422 -85.12011719 -1.19384766 C-82.63838653 -0.14922697 -80.34944931 1.07474841 -78.01245117 2.41455078 C-77.02825195 2.97529297 -76.04405273 3.53603516 -75.0300293 4.11376953 C-73.49572266 4.99742187 -73.49572266 4.99742187 -71.93041992 5.89892578 C-68.93143036 7.61318442 -65.93207886 9.32668393 -62.92895508 11.03369141 C-61.13556632 12.06418125 -59.35261743 13.11321028 -57.58422852 14.18603516 C-56.43108154 14.87149414 -56.43108154 14.87149414 -55.25463867 15.57080078 C-54.5955249 15.97395508 -53.93641113 16.37710938 -53.25732422 16.79248047 C-49.43175922 18.32392883 -46.29362112 18.13793717 -42.51586914 16.56665039 C-41.23220459 15.81653687 -41.23220459 15.81653687 -39.92260742 15.05126953 C-38.96483398 14.49971191 -38.00706055 13.9481543 -37.02026367 13.37988281 C-36.02124023 12.78804199 -35.0222168 12.19620117 -33.99291992 11.58642578 C-32.96553711 10.99458496 -31.9381543 10.40274414 -30.87963867 9.79296875 C-26.60739134 7.32451405 -22.35991438 4.82717655 -18.18823242 2.19189453 C-17.1750293 1.55896484 -16.16182617 0.92603516 -15.11791992 0.27392578 C-14.29291992 -0.27005859 -13.46791992 -0.81404297 -12.61791992 -1.37451172 C-8.21491373 -3.09443601 -4.22346099 -1.83013336 0 0 Z " fill="#FEFEFE" transform="translate(364.117919921875,182.35107421875)"/>
<path d="M0 0 C1.16884181 9.54285275 2.1351571 19.06576622 2.7109375 28.6640625 C2.79411224 30.01053864 2.79411224 30.01053864 2.87896729 31.38421631 C3.10504656 35.06928381 3.3281926 38.7542314 3.52636719 42.44091797 C3.67624812 45.18316618 3.84809787 47.92333974 4.0234375 50.6640625 C4.08149063 51.8954747 4.08149063 51.8954747 4.14071655 53.15176392 C4.64688701 60.57907192 7.43278342 66.21643885 11.84765625 72.15625 C12.36448975 72.85991699 12.88132324 73.56358398 13.41381836 74.28857422 C14.22991577 75.38322998 14.22991577 75.38322998 15.0625 76.5 C16.23325081 78.09526909 17.40249648 79.69164376 18.5703125 81.2890625 C19.15071289 82.0821582 19.73111328 82.87525391 20.32910156 83.69238281 C22.75784349 87.04663014 25.10487177 90.4534929 27.4375 93.875 C35.83372125 106.17001785 44.40819796 118.34111084 53 130.5 C59.69661599 139.97908414 66.38057673 149.4667835 73 159 C73.4552002 159.65532715 73.91040039 160.3106543 74.37939453 160.98583984 C75.53141094 162.65196439 76.67247297 164.32564903 77.8125 166 C78.41707031 166.886875 79.02164063 167.77375 79.64453125 168.6875 C82.9179137 174.27206026 82.57744262 180.70350236 82 187 C79.72896513 194.86036941 75.42058716 200.62213435 68.45349121 204.86602783 C63.75666266 207.03684175 58.80753105 207.19881739 53.703125 207.5859375 C52.4590387 207.69739105 51.21495239 207.8088446 49.9331665 207.92367554 C46.40106998 208.23905255 42.86714164 208.52655772 39.33236694 208.81010437 C35.18966612 209.14739297 31.04914449 209.5100357 26.90820312 209.86816406 C16.80566645 210.73627561 6.70024898 211.56760861 -3.40588379 212.39263916 C-10.96822204 213.01047301 -18.5301694 213.63305649 -26.09203339 214.25666428 C-28.70027038 214.4711872 -31.30864892 214.68391532 -33.91705322 214.89639282 C-35.5205528 215.02804413 -37.12404831 215.15974515 -38.72753906 215.29150391 C-39.43508331 215.34865067 -40.14262756 215.40579742 -40.87161255 215.4646759 C-45.27034137 215.82799341 -49.65303545 216.27953269 -54.03747845 216.787323 C-58.37122163 217.25696753 -62.70763674 217.30915327 -67.0625 217.375 C-68.00416016 217.41238281 -68.94582031 217.44976563 -69.91601562 217.48828125 C-77.87781563 217.58801152 -82.37927319 215.26826667 -88.20703125 210.0078125 C-93.38052634 203.94059928 -96.33564431 199.25928091 -95.90234375 191.04296875 C-95.24860128 183.7054489 -92.83096921 178.03305201 -89.5625 171.5 C-88.99337891 170.31857422 -88.42425781 169.13714844 -87.83789062 167.91992188 C-86.25829325 164.64189298 -84.65237916 161.37740356 -83.0413208 158.11474609 C-81.21010077 154.39584851 -79.40111465 150.6661432 -77.58984375 146.9375 C-75.28804174 142.20155736 -72.98459648 137.46646164 -70.671875 132.73583984 C-65.48726528 122.12274671 -60.41459636 111.46768727 -55.5090332 100.72216797 C-53.03135754 95.30581664 -50.49112909 89.94887022 -47.7578125 84.65625 C-47.24081787 83.63772949 -46.72382324 82.61920898 -46.19116211 81.56982422 C-45.23369511 79.69468751 -44.25487035 77.83019438 -43.24829102 75.98095703 C-39.50625217 68.58689643 -39.4396001 62.13453655 -40 54 C-40.06093842 53.07330505 -40.12187683 52.14661011 -40.18466187 51.1918335 C-40.71606136 43.33004341 -41.3524704 35.4779261 -42 27.625 C-42.19321865 25.23181198 -42.38593119 22.83858304 -42.578125 20.4453125 C-43.04624749 14.62972357 -43.52062222 8.81467142 -44 3 C-13.36833175 -0.47995989 -13.36833175 -0.47995989 0 0 Z " fill="#92B1F3" transform="translate(335,360)"/>
<path d="M0 0 C-0.11633789 1.12792969 -0.23267578 2.25585938 -0.35253906 3.41796875 C-2.88558427 23.26618547 -2.88558427 23.26618547 2.20336914 41.81018066 C8.35957401 48.43846164 17.3665599 51.59176614 25.66015625 54.66503906 C31.78871478 57.1146705 37.40856003 60.33692951 41 66 C41.39440918 68.4594574 41.39440918 68.4594574 41.41992188 71.23999023 C41.43583374 72.28464951 41.45174561 73.32930878 41.46813965 74.40562439 C41.46834106 75.52860428 41.46854248 76.65158417 41.46875 77.80859375 C41.47636353 78.96746597 41.48397705 80.1263382 41.49182129 81.32032776 C41.50262447 83.77057745 41.50547453 86.2208732 41.50097656 88.67114258 C41.50000448 92.42021465 41.54162281 96.16723919 41.5859375 99.91601562 C41.5911446 102.29687073 41.59383269 104.67773295 41.59375 107.05859375 C41.61014526 108.17954941 41.62654053 109.30050507 41.64343262 110.45542908 C41.57463279 118.20244543 41.57463279 118.20244543 38.81811523 122.02832031 C36.02960432 123.97928749 33.27883631 125.81139243 30.31640625 127.48828125 C28.68711182 128.41918579 28.68711182 128.41918579 27.02490234 129.36889648 C25.88230957 130.01028564 24.7397168 130.6516748 23.5625 131.3125 C22.38201389 131.9800016 21.20183906 132.64805401 20.02197266 133.31665039 C17.71570857 134.62336971 15.4079296 135.9272568 13.09912109 137.22949219 C10.52442563 138.70039903 7.98258443 140.20480692 5.45703125 141.7578125 C4.83304443 142.13639404 4.20905762 142.51497559 3.56616211 142.9050293 C2.01445527 143.85236122 0.47160331 144.81415761 -1.0703125 145.77734375 C-4.94104795 147.39273068 -7.93694511 147.90648995 -12 147 C-16.40440583 145.07591514 -20.49194824 142.69490386 -24.625 140.25 C-26.28402344 139.29867187 -26.28402344 139.29867187 -27.9765625 138.328125 C-36.54208921 133.38647498 -36.54208921 133.38647498 -40.4609375 130.546875 C-43.430987 128.73742946 -44.58034052 128.62462608 -48 129 C-50.78071288 130.31067813 -50.78071288 130.31067813 -53.5625 132.17578125 C-54.60664063 132.83900391 -55.65078125 133.50222656 -56.7265625 134.18554688 C-57.80679688 134.88744141 -58.88703125 135.58933594 -60 136.3125 C-62.14576988 137.68369305 -64.29160102 139.05479024 -66.4375 140.42578125 C-67.38496094 141.03848877 -68.33242188 141.65119629 -69.30859375 142.2824707 C-72 144 -72 144 -74.8034668 145.34960938 C-77.26625751 146.83582886 -77.26625751 146.83582886 -77.65942383 149.72729492 C-77.67513428 150.80084229 -77.69084473 151.87438965 -77.70703125 152.98046875 C-77.75053711 154.72553711 -77.75053711 154.72553711 -77.79492188 156.50585938 C-77.80072266 157.72080078 -77.80652344 158.93574219 -77.8125 160.1875 C-77.83763672 161.41404297 -77.86277344 162.64058594 -77.88867188 163.90429688 C-77.94766454 166.9365198 -77.98385681 169.96729509 -78 173 C-88.95710752 162.51501201 -94.53371731 152.31230428 -94.97363281 137.0234375 C-95.01283995 134.01465274 -95.02375545 131.00902412 -95 128 C-94.09507812 128.31453125 -93.19015625 128.6290625 -92.2578125 128.953125 C-85.99088985 129.84254231 -80.81316258 125.04809404 -75.875 121.75 C-74.80378906 121.05519531 -73.73257812 120.36039062 -72.62890625 119.64453125 C-70.6333275 118.34976596 -68.64294846 117.04692432 -66.65966797 115.73339844 C-59.39690141 111 -59.39690141 111 -57 111 C-57.01665459 110.17434036 -57.01665459 110.17434036 -57.03364563 109.33200073 C-57.14448999 103.58933787 -57.21977035 97.84698014 -57.2746582 92.10351562 C-57.29976163 89.96178844 -57.33385168 87.82014659 -57.37719727 85.67871094 C-57.4380315 82.5954887 -57.46625181 79.51340157 -57.48828125 76.4296875 C-57.52699089 74.99965897 -57.52699089 74.99965897 -57.56648254 73.54074097 C-57.56827912 69.25699049 -57.52749203 66.03391801 -54.83081055 62.56958008 C-52.05659388 60.05137133 -49.50719812 58.23863103 -46.21875 56.45703125 C-44.58486328 55.55887695 -44.58486328 55.55887695 -42.91796875 54.64257812 C-41.22607422 53.73668945 -41.22607422 53.73668945 -39.5 52.8125 C-37.26021327 51.59021639 -35.02062269 50.36757326 -32.78125 49.14453125 C-31.79189453 48.61190674 -30.80253906 48.07928223 -29.78320312 47.53051758 C-27.91572066 46.50356604 -26.07500289 45.42649849 -24.26367188 44.3034668 C-22 43 -22 43 -20 43 C-20.10828125 41.19982422 -20.10828125 41.19982422 -20.21875 39.36328125 C-20.92695148 26.89590551 -21.11282221 14.48565818 -21 2 C-20.25492187 2.32226562 -19.50984375 2.64453125 -18.7421875 2.9765625 C-14.40453934 4.59545683 -10.22312446 4.98141771 -5.96484375 3.1015625 C-0.60859929 0 -0.60859929 0 0 0 Z " fill="#062B76" transform="translate(453,263)"/>
<path d="M0 0 C1.16884181 9.54285275 2.1351571 19.06576622 2.7109375 28.6640625 C2.79411224 30.01053864 2.79411224 30.01053864 2.87896729 31.38421631 C3.10504656 35.06928381 3.3281926 38.7542314 3.52636719 42.44091797 C3.67624812 45.18316618 3.84809787 47.92333974 4.0234375 50.6640625 C4.08149063 51.8954747 4.08149063 51.8954747 4.14071655 53.15176392 C4.64688701 60.57907192 7.43278342 66.21643885 11.84765625 72.15625 C12.36448975 72.85991699 12.88132324 73.56358398 13.41381836 74.28857422 C14.22991577 75.38322998 14.22991577 75.38322998 15.0625 76.5 C16.23325081 78.09526909 17.40249648 79.69164376 18.5703125 81.2890625 C19.15071289 82.0821582 19.73111328 82.87525391 20.32910156 83.69238281 C22.75784349 87.04663014 25.10487177 90.4534929 27.4375 93.875 C36.30581814 106.86133357 45.37245887 119.70994518 54.44970703 132.55078125 C60.09652929 140.54309104 65.72097417 148.55178857 71.30322266 156.58935547 C72.50740132 158.30015549 73.7333929 159.99569469 74.97412109 161.68017578 C75.61559082 162.56044434 76.25706055 163.44071289 76.91796875 164.34765625 C77.50731201 165.14308838 78.09665527 165.93852051 78.70385742 166.75805664 C80 169 80 169 80 173 C47.81228128 170.37243112 17.26919367 150.26919367 -5 128 C-8.48446399 128.24889029 -11.76337679 128.7130688 -15.16333008 129.50195312 C-22.19941767 131.12560804 -28.98727471 131.3073016 -36.1875 131.25 C-37.9662854 131.24311157 -37.9662854 131.24311157 -39.78100586 131.23608398 C-60.9652782 131.0173609 -60.9652782 131.0173609 -67 128 C-66.35144591 123.14330239 -64.35351242 119.15739787 -62.24609375 114.796875 C-61.86695328 114.00081848 -61.48781281 113.20476196 -61.09718323 112.38458252 C-59.88253654 109.83717584 -58.66023971 107.29353045 -57.4375 104.75 C-56.64205291 103.08618849 -55.84712626 101.42212807 -55.05273438 99.7578125 C-54.66115143 98.93873413 -54.26956848 98.11965576 -53.86611938 97.27575684 C-53.07637983 95.62025696 -52.28942042 93.96342805 -51.50521851 92.30529785 C-49.61481566 88.31853808 -47.68555366 84.36891213 -45.62548828 80.46679688 C-41.32878636 72.19761569 -38.84266443 65.76278079 -39.78515625 56.24108887 C-40.04410098 53.53997166 -40.22484932 50.83730928 -40.40625 48.12988281 C-40.87865516 41.28984976 -41.43656758 34.45803613 -42 27.625 C-42.19321865 25.23181198 -42.38593119 22.83858304 -42.578125 20.4453125 C-43.04624749 14.62972357 -43.52062222 8.81467142 -44 3 C-13.36833175 -0.47995989 -13.36833175 -0.47995989 0 0 Z " fill="#FDFDFE" transform="translate(335,360)"/>
<path d="M0 0 C-0.10586426 1.0422876 -0.21172852 2.0845752 -0.32080078 3.15844727 C-2.66784199 22.52705469 -2.66784199 22.52705469 3.38964844 40.09570312 C9.52340613 45.02898828 16.54737585 47.98359932 23.86181641 50.76269531 C27.85480385 52.33702707 31.35338156 54.35194741 34.9375 56.6875 C35.87464844 57.24824219 36.81179687 57.80898438 37.77734375 58.38671875 C40.88426579 60.64183088 42.75961722 62.58181147 43.41459656 66.44599915 C43.43206436 67.35754257 43.44953217 68.269086 43.4675293 69.20825195 C43.49312424 70.24645584 43.51871918 71.28465973 43.54508972 72.35432434 C43.5547023 73.47103012 43.56431488 74.5877359 43.57421875 75.73828125 C43.5889473 76.89241013 43.60367584 78.046539 43.61885071 79.23564148 C43.64280025 81.67745339 43.65822231 84.11936161 43.66577148 86.5612793 C43.68736547 90.28927534 43.76755179 94.01314458 43.84960938 97.74023438 C43.86560563 100.11456167 43.87809025 102.48891575 43.88671875 104.86328125 C43.91859787 105.97391434 43.95047699 107.08454742 43.98332214 108.22883606 C43.91786261 115.78260499 43.91786261 115.78260499 41.34613037 119.19358826 C39.32163942 121.01557935 37.29046938 122.5304049 35 124 C34.07687012 124.61415771 33.15374023 125.22831543 32.20263672 125.86108398 C31.37006348 126.31813721 30.53749023 126.77519043 29.6796875 127.24609375 C28.73883301 127.76985596 27.79797852 128.29361816 26.82861328 128.83325195 C25.8539209 129.36265381 24.87922852 129.89205566 23.875 130.4375 C21.82765001 131.56424152 19.78077351 132.69184382 17.734375 133.8203125 C16.25807617 134.63097168 16.25807617 134.63097168 14.75195312 135.45800781 C12.36600134 136.79491976 10.02787553 138.17746566 7.703125 139.6171875 C6.77717529 140.18288452 6.77717529 140.18288452 5.83251953 140.76000977 C4.25843085 141.73025516 2.69508134 142.71786625 1.1328125 143.70703125 C-3.21302371 145.50063697 -6.37211265 146.00901438 -11 145 C-15.81371066 142.87511308 -20.25897042 140.21964814 -24.75 137.5 C-25.94688051 136.79511267 -27.14479348 136.09197538 -28.34375 135.390625 C-31.31986869 133.64261386 -34.27500101 131.86221404 -37.22485352 130.0703125 C-39.02389857 128.98559052 -40.83382217 127.92115702 -42.64648438 126.859375 C-43.81139094 126.16699132 -44.97611184 125.47429514 -46.140625 124.78125 C-47.17219727 124.17345703 -48.20376953 123.56566406 -49.26660156 122.93945312 C-52.37733043 120.7322693 -54.12036203 119.34688677 -56 116 C-56.60411007 112.20062052 -56.60811975 108.44276898 -56.6015625 104.6015625 C-56.61013275 103.49324066 -56.618703 102.38491882 -56.62753296 101.24301147 C-56.63900561 98.90129322 -56.64003026 96.5595037 -56.63134766 94.21777344 C-56.62503346 90.64393796 -56.67193095 87.07342535 -56.72265625 83.5 C-56.72720324 81.22135833 -56.72860876 78.94270779 -56.7265625 76.6640625 C-56.74498199 75.60031403 -56.76340149 74.53656555 -56.78237915 73.44058228 C-56.70708205 67.36976153 -56.05214271 63.7008876 -51.64782715 59.36276245 C-49.39077512 57.49616755 -47.13394046 55.9765325 -44.55859375 54.578125 C-43.56279297 54.02769531 -42.56699219 53.47726562 -41.54101562 52.91015625 C-40.51685547 52.36230469 -39.49269531 51.81445312 -38.4375 51.25 C-36.39439569 50.13045569 -34.35142236 49.01067231 -32.30859375 47.890625 C-31.40939209 47.40625977 -30.51019043 46.92189453 -29.58374023 46.42285156 C-27.79280261 45.43659204 -26.03017122 44.39782617 -24.29321289 43.31933594 C-22 42 -22 42 -20 42 C-20.03029297 41.25540527 -20.06058594 40.51081055 -20.09179688 39.74365234 C-21.19008061 12.42595656 -21.19008061 12.42595656 -21 1 C-20.0821875 1.49757813 -19.164375 1.99515625 -18.21875 2.5078125 C-14.19951677 4.37109781 -12.25734733 4.06433683 -8 3 C-1.64 0 -1.64 0 0 0 Z " fill="#072C76" transform="translate(207,271)"/>
<path d="M0 0 C3.61118968 1.54330843 6.97622276 3.41323195 10.375 5.375 C11.81842773 6.18723022 11.81842773 6.18723022 13.29101562 7.01586914 C16.20326086 8.66159608 19.10231581 10.32879846 22 12 C23.66915152 12.94942853 25.33841458 13.89866102 27.0078125 14.84765625 C28.50625896 15.70911258 30.00371817 16.57228935 31.5 17.4375 C32.17466309 17.82534668 32.84932617 18.21319336 33.54443359 18.61279297 C43.83732903 24.67465805 43.83732903 24.67465805 46 29 C46.11570235 30.66820855 46.16954908 32.34088596 46.19287109 34.01293945 C46.20893402 35.05774979 46.22499695 36.10256012 46.24154663 37.17903137 C46.28593806 41.95943606 46.3270588 46.73970116 46.35009766 51.52026367 C46.36666456 54.04314392 46.39396384 56.56597709 46.43212891 59.08862305 C46.48683189 62.7220907 46.50876249 66.35445753 46.5234375 69.98828125 C46.54610687 71.11551102 46.56877625 72.24274078 46.59213257 73.40412903 C46.57102521 81.21202433 46.57102521 81.21202433 43.79077148 85.04858398 C41.16956324 86.88143478 38.5992373 88.64340853 35.82421875 90.234375 C34.8386499 90.80454346 33.85308105 91.37471191 32.83764648 91.9621582 C31.79809814 92.552146 30.7585498 93.14213379 29.6875 93.75 C28.61894775 94.36254639 27.55039551 94.97509277 26.44946289 95.60620117 C24.30215314 96.8356115 22.1530077 98.06182166 20.00195312 99.28466797 C17.35810786 100.79537526 14.73052426 102.32929252 12.109375 103.87890625 C10.71894892 104.69044508 9.32833992 105.50167064 7.9375 106.3125 C7.32672607 106.67891602 6.71595215 107.04533203 6.08666992 107.42285156 C2.0237489 109.75555311 -1.32985973 110.73537213 -6 111 C-9.12695313 109.78759766 -9.12695313 109.78759766 -12.28125 107.9140625 C-12.85295425 107.58157501 -13.42465851 107.24908752 -14.01368713 106.90652466 C-15.85369149 105.83054745 -17.67656292 104.72877823 -19.5 103.625 C-20.75877621 102.88029894 -22.01846468 102.13713776 -23.27905273 101.39550781 C-25.74813255 99.93894822 -28.21054888 98.47207208 -30.66748047 96.99511719 C-33.4533045 95.32729638 -36.25124869 93.68784218 -39.06640625 92.0703125 C-49.5411945 85.99483814 -49.5411945 85.99483814 -52 82 C-52.40786743 79.50930786 -52.40786743 79.50930786 -52.45166016 76.68408203 C-52.4740274 75.6226297 -52.49639465 74.56117737 -52.5194397 73.46755981 C-52.52591522 72.3258432 -52.53239075 71.18412659 -52.5390625 70.0078125 C-52.55141937 68.82911591 -52.56377625 67.65041931 -52.57650757 66.43600464 C-52.59607531 63.94290127 -52.60730616 61.44972062 -52.61083984 58.95654297 C-52.62492425 55.14549714 -52.69225987 51.33773003 -52.76171875 47.52734375 C-52.77411729 45.10418124 -52.78333686 42.68099996 -52.7890625 40.2578125 C-52.81578033 39.12014435 -52.84249817 37.9824762 -52.87002563 36.81033325 C-52.80414805 29.1264267 -52.80414805 29.1264267 -50.59751892 26.03544617 C-48.8151513 24.45367477 -47.0457324 23.21752727 -45 22 C-43.51947144 21.03622437 -43.51947144 21.03622437 -42.0090332 20.05297852 C-41.03281006 19.50053467 -40.05658691 18.94809082 -39.05078125 18.37890625 C-37.95443359 17.75306641 -36.85808594 17.12722656 -35.72851562 16.48242188 C-34.60123047 15.84884766 -33.47394531 15.21527344 -32.3125 14.5625 C-30.07927413 13.29323783 -27.84620049 12.02370778 -25.61328125 10.75390625 C-24.51580566 10.13789551 -23.41833008 9.52188477 -22.28759766 8.88720703 C-20.08155453 7.62085374 -17.89853731 6.313586 -15.73974609 4.96826172 C-5.64292113 -1.28425102 -5.64292113 -1.28425102 0 0 Z " fill="#062B75" transform="translate(198,165)"/>
<path d="M0 0 C6.81244502 3.28632181 13.28608373 7.27404415 19.77514648 11.15161133 C21.57376872 12.22612249 23.37559897 13.29508692 25.17797852 14.36328125 C41.17983849 23.87800093 41.17983849 23.87800093 43.81469727 28.15820312 C44.20910645 30.57296753 44.20910645 30.57296753 44.23461914 33.29052734 C44.25848694 34.82264359 44.25848694 34.82264359 44.28283691 36.38571167 C44.28303833 37.48368073 44.28323975 38.58164978 44.28344727 39.71289062 C44.29486755 41.41434738 44.29486755 41.41434738 44.30651855 43.150177 C44.31732187 45.54915161 44.32017174 47.94817326 44.31567383 50.34716797 C44.31470266 54.01284542 44.35630152 57.67642226 44.40063477 61.34179688 C44.40584264 63.67382376 44.40852994 66.00585792 44.40844727 68.33789062 C44.42484253 69.43181122 44.44123779 70.52573181 44.45812988 71.65280151 C44.38120526 80.14856047 44.38120526 80.14856047 41.66455078 83.65698242 C38.76269377 86.20384485 35.99753414 88.12465247 32.62329102 89.99804688 C32.03733658 90.32809219 31.45138214 90.65813751 30.84767151 90.9981842 C28.9886453 92.04215076 27.12096617 93.06929872 25.25219727 94.09570312 C23.41796759 95.11833534 21.58566273 96.14435116 19.75357056 97.17080688 C18.54395542 97.84605095 17.33217924 98.51743859 16.11825562 99.18490601 C13.1968007 100.79537864 10.34840058 102.45002707 7.51831055 104.22119141 C-2.39648332 110.41696339 -2.39648332 110.41696339 -9.18530273 109.15820312 C-12.0367793 108.05689304 -14.57432117 106.61451032 -17.18530273 105.03320312 C-17.93497314 104.59596924 -18.68464355 104.15873535 -19.45703125 103.70825195 C-21.11653503 102.73893832 -22.77203093 101.7627399 -24.42407227 100.78076172 C-27.45722721 98.99841444 -30.51924649 97.27365289 -33.58764648 95.55273438 C-35.76647006 94.31783005 -37.94485979 93.08215992 -40.12280273 91.84570312 C-41.17145508 91.25966309 -42.22010742 90.67362305 -43.30053711 90.06982422 C-44.2821582 89.50473145 -45.2637793 88.93963867 -46.27514648 88.35742188 C-47.58793579 87.61238403 -47.58793579 87.61238403 -48.92724609 86.85229492 C-51.77531208 84.71555259 -52.83837448 83.49499125 -54.18530273 80.15820312 C-54.64157638 76.27399152 -54.6533325 72.41357259 -54.65405273 68.50585938 C-54.66166626 67.37296982 -54.66927979 66.24008026 -54.67712402 65.07286072 C-54.68791707 62.67986248 -54.69078138 60.28681717 -54.6862793 57.89379883 C-54.68530707 54.23699244 -54.72693986 50.58228478 -54.77124023 46.92578125 C-54.77644744 44.59831166 -54.77913542 42.27083479 -54.77905273 39.94335938 C-54.795448 38.85257584 -54.81184326 37.7617923 -54.82873535 36.63795471 C-54.75182698 28.17066784 -54.75182698 28.17066784 -52.00341797 24.64575195 C-49.26115064 22.22515403 -46.68882426 20.35920146 -43.50170898 18.57226562 C-42.41543213 17.95488525 -41.32915527 17.33750488 -40.20996094 16.70141602 C-38.49619263 15.75190063 -38.49619263 15.75190063 -36.74780273 14.78320312 C-35.56782346 14.12066384 -34.38838158 13.45716659 -33.20947266 12.79272461 C-30.90503818 11.49483024 -28.59788973 10.20228076 -26.28881836 8.91259766 C-23.70041397 7.44939171 -21.14565186 5.95173094 -18.60717773 4.40429688 C-17.9786792 4.02515137 -17.35018066 3.64600586 -16.70263672 3.25537109 C-15.13626925 2.3047388 -13.57646636 1.343312 -12.01733398 0.38085938 C-7.72650722 -1.47159411 -4.42452296 -1.70436322 0 0 Z " fill="#062B75" transform="translate(446.185302734375,158.841796875)"/>
<path d="M0 0 C1.3030175 2.55374472 2.49844507 5.11660975 3.59375 7.765625 C9.61936999 22.03699899 16.90362599 34.93960598 27.0390625 46.7109375 C29 49 29 49 30.4609375 51.0390625 C31.74934101 52.94236637 31.74934101 52.94236637 34 55 C38.96012196 54.7648218 42.62065811 52.75868114 46.8125 50.3125 C52.38522705 47.20209168 57.97797542 44.67845387 64 42.5625 C64.69327393 42.31604736 65.38654785 42.06959473 66.10083008 41.81567383 C70.39657884 40.35819689 74.49236993 39.51062997 79 39 C84.8515625 47.359375 90.703125 55.71875 96.5546875 64.078125 C97.12541992 64.89313477 97.69615234 65.70814453 98.28417969 66.54785156 C99.42928348 68.18436587 100.57316172 69.8217384 101.71582031 71.45996094 C104.77938331 75.84858845 107.8677114 80.21698167 110.9921875 84.5625 C111.641875 85.47257813 112.2915625 86.38265625 112.9609375 87.3203125 C114.21112536 89.0705755 115.46864149 90.81563347 116.734375 92.5546875 C117.29382813 93.34101562 117.85328125 94.12734375 118.4296875 94.9375 C118.92710449 95.62714844 119.42452148 96.31679688 119.93701172 97.02734375 C121 99 121 99 121 103 C88.81228128 100.37243112 58.26919367 80.26919367 36 58 C32.51553601 58.24889029 29.23662321 58.7130688 25.83666992 59.50195312 C18.80058233 61.12560804 12.01272529 61.3073016 4.8125 61.25 C3.62664307 61.24540771 2.44078613 61.24081543 1.21899414 61.23608398 C-19.9652782 61.0173609 -19.9652782 61.0173609 -26 58 C-25.35216816 53.11902576 -23.329026 49.1079097 -21.2109375 44.7265625 C-20.82942535 43.92576263 -20.44791321 43.12496277 -20.05484009 42.29989624 C-18.83347856 39.73904909 -17.60448245 37.18195663 -16.375 34.625 C-15.57108502 32.94426361 -14.76769463 31.2632762 -13.96484375 29.58203125 C-12.78065516 27.10233563 -11.59611513 24.62281794 -10.40936279 22.14434814 C-6.88822832 14.78665696 -3.43150953 7.39984602 0 0 Z " fill="#D0DAFC" transform="translate(294,430)"/>
<path d="M0 0 C1.21719727 0.69802734 1.21719727 0.69802734 2.45898438 1.41015625 C3.40362549 1.90918457 4.3482666 2.40821289 5.3215332 2.92236328 C6.853302 3.78643799 6.853302 3.78643799 8.41601562 4.66796875 C9.52783203 5.29316406 10.63964844 5.91835938 11.78515625 6.5625 C12.94730338 7.21998535 14.10941228 7.87753828 15.27148438 8.53515625 C16.45296626 9.20080266 17.63460538 9.86617009 18.81640625 10.53125 C21.69882343 12.15481559 24.57960768 13.7812064 27.45898438 15.41015625 C30.71929549 40.2261397 30.71929549 40.2261397 27.45898438 49.41015625 C22.14111776 56.26263314 14.08896053 59.52503239 6.11621094 62.4375 C3.4964787 63.30766475 3.4964787 63.30766475 1.41894531 64.6015625 C-1.31481291 65.729391 -2.73847915 65.29218347 -5.54101562 64.41015625 C-7.47837399 63.43769987 -9.37790153 62.38796199 -11.24414062 61.28515625 C-12.30632812 60.66125 -13.36851562 60.03734375 -14.46289062 59.39453125 C-15.56117188 58.7396875 -16.65945312 58.08484375 -17.79101562 57.41015625 C-18.90476563 56.7553125 -20.01851562 56.10046875 -21.16601562 55.42578125 C-29.36449033 50.58668155 -29.36449033 50.58668155 -30.54101562 49.41015625 C-30.62949305 46.88921549 -30.65628864 44.39584732 -30.63867188 41.875 C-30.63725693 41.12174942 -30.63584198 40.36849884 -30.63438416 39.59242249 C-30.62876938 37.17746065 -30.61621445 34.76259024 -30.60351562 32.34765625 C-30.59850252 30.71419404 -30.59393929 29.08073039 -30.58984375 27.44726562 C-30.57879516 23.4348604 -30.56152069 19.42252384 -30.54101562 15.41015625 C-26.65844182 13.07140308 -22.76267735 10.75714402 -18.8527832 8.46435547 C-17.5249964 7.68120609 -16.20104066 6.89152301 -14.88110352 6.09521484 C-12.98189428 4.95097521 -11.07010064 3.83101819 -9.15429688 2.71484375 C-8.27430779 2.17438919 -8.27430779 2.17438919 -7.37654114 1.62301636 C-4.64099963 0.05805834 -3.12899145 -0.72633007 0 0 Z " fill="#65CACF" transform="translate(202.541015625,328.58984375)"/>
<path d="M0 0 C0.84473877 0.45906738 1.68947754 0.91813477 2.55981445 1.39111328 C3.50445557 1.8901416 4.44909668 2.38916992 5.42236328 2.90332031 C6.95413208 3.76739502 6.95413208 3.76739502 8.5168457 4.64892578 C9.62866211 5.27412109 10.74047852 5.89931641 11.88598633 6.54345703 C13.04813346 7.20094238 14.21024236 7.85849531 15.37231445 8.51611328 C16.55379634 9.18175969 17.73543545 9.84712712 18.91723633 10.51220703 C21.7996535 12.13577262 24.68043776 13.76216343 27.55981445 15.39111328 C30.25047032 44.93719314 30.25047032 44.93719314 26.05249023 51.88623047 C22.19151568 55.45065869 17.63986317 57.14008818 12.67553711 58.66894531 C9.73892379 59.67131113 7.40004628 61.30415331 4.87231445 63.07861328 C2.14794424 64.92640368 1.10365524 65.44027917 -2.21362305 65.14038086 C-5.71249056 64.32787901 -8.15861783 63.09740478 -11.2409668 61.26611328 C-12.29993164 60.64220703 -13.35889648 60.01830078 -14.44995117 59.37548828 C-15.53985352 58.72064453 -16.62975586 58.06580078 -17.75268555 57.39111328 C-18.86192383 56.73626953 -19.97116211 56.08142578 -21.11401367 55.40673828 C-29.24352201 50.58777682 -29.24352201 50.58777682 -30.44018555 49.39111328 C-30.52866298 46.87017252 -30.55545856 44.37680435 -30.5378418 41.85595703 C-30.53642685 41.10270645 -30.5350119 40.34945587 -30.53355408 39.57337952 C-30.52793931 37.15841768 -30.51538438 34.74354727 -30.50268555 32.32861328 C-30.49767245 30.69515107 -30.49310921 29.06168742 -30.48901367 27.42822266 C-30.47796508 23.41581743 -30.46069061 19.40348088 -30.44018555 15.39111328 C-29.76963135 15.01301514 -29.09907715 14.63491699 -28.40820312 14.24536133 C-25.35596881 12.52381144 -22.30432201 10.8012227 -19.25268555 9.07861328 C-18.19758789 8.48371094 -17.14249023 7.88880859 -16.05541992 7.27587891 C-15.03383789 6.69902344 -14.01225586 6.12216797 -12.9597168 5.52783203 C-12.02232666 4.99891357 -11.08493652 4.46999512 -10.11914062 3.92504883 C-7.40675655 2.43316469 -7.40675655 2.43316469 -4.90771484 0.57006836 C-2.44018555 -0.60888672 -2.44018555 -0.60888672 0 0 Z " fill="#FAC950" transform="translate(196.440185546875,187.60888671875)"/>
<path d="M0 0 C1.45792969 0.66104736 1.45792969 0.66104736 2.9453125 1.33544922 C3.89712402 1.65642578 4.84893555 1.97740234 5.82958984 2.30810547 C13.73663085 5.2276283 21.70993866 8.49302159 26.9453125 15.33544922 C30.60769514 25.75204494 28.35098487 38.63611988 26.9453125 49.33544922 C23.31941439 51.45970121 19.68979975 53.57741116 16.05664062 55.68920898 C14.82188078 56.40813592 13.58814391 57.12882285 12.35546875 57.85131836 C10.58080472 58.89107112 8.80252664 59.92438469 7.0234375 60.95654297 C5.95512695 61.57972412 4.88681641 62.20290527 3.78613281 62.8449707 C-0.7178975 65.20807702 -0.7178975 65.20807702 -3.0546875 65.33544922 C-5.75610352 64.19555664 -5.75610352 64.19555664 -8.80859375 62.44091797 C-9.91009766 61.81507813 -11.01160156 61.18923828 -12.14648438 60.54443359 C-13.30348856 59.87078259 -14.46038854 59.19695259 -15.6171875 58.52294922 C-16.77736472 57.85973643 -17.93816617 57.19761434 -19.09960938 56.53662109 C-27.25164984 51.87080766 -27.25164984 51.87080766 -31.0546875 49.33544922 C-31.32166638 46.71082678 -31.40301734 44.32478989 -31.34765625 41.70263672 C-31.34341141 40.95080109 -31.33916656 40.19896545 -31.33479309 39.42434692 C-31.3179792 37.01935237 -31.28032374 34.61519113 -31.2421875 32.21044922 C-31.22714409 30.58155506 -31.21345508 28.95264778 -31.20117188 27.32373047 C-31.16806704 23.32731488 -31.11626759 19.3315234 -31.0546875 15.33544922 C-27.1920925 12.99381292 -23.31473198 10.67979486 -19.42138672 8.38964844 C-18.09995104 7.60728335 -16.78281005 6.81761584 -15.47021484 6.02050781 C-13.5795846 4.87410749 -11.6749265 3.7550905 -9.765625 2.64013672 C-8.89337784 2.09968216 -8.89337784 2.09968216 -8.00350952 1.54830933 C-4.96217435 -0.19182281 -3.46970836 -0.75483905 0 0 Z " fill="#CFDAFB" transform="translate(447.0546875,322.66455078125)"/>
<path d="M0 0 C1.06911621 0.39316406 2.13823242 0.78632813 3.23974609 1.19140625 C4.19155762 1.51238281 5.14336914 1.83335937 6.12402344 2.1640625 C14.03106445 5.08358533 22.00437226 8.34897862 27.23974609 15.19140625 C30.90212874 25.60800197 28.64541847 38.49207691 27.23974609 49.19140625 C23.3771511 51.53304255 19.49979057 53.84706061 15.60644531 56.13720703 C14.28500963 56.91957211 12.96786864 57.70923963 11.65527344 58.50634766 C9.7646432 59.65274798 7.85998509 60.77176497 5.95068359 61.88671875 C5.36918549 62.24702179 4.78768738 62.60732483 4.18856812 62.97854614 C1.14723295 64.71867828 -0.34523305 65.28169452 -3.81494141 64.52685547 C-4.78689453 64.08615723 -5.75884766 63.64545898 -6.76025391 63.19140625 C-7.71206543 62.87042969 -8.66387695 62.54945313 -9.64453125 62.21875 C-17.55157226 59.29922717 -25.52488007 56.03383388 -30.76025391 49.19140625 C-34.42263655 38.77481053 -32.16592628 25.89073559 -30.76025391 15.19140625 C-27.0945012 13.07274864 -23.42831338 10.95484657 -19.76171875 8.83764648 C-18.51420265 8.11715156 -17.26680611 7.39644957 -16.01953125 6.67553711 C-14.22768983 5.63991834 -12.43542107 4.60504268 -10.64306641 3.5703125 C-9.02489014 2.63554077 -9.02489014 2.63554077 -7.37402344 1.68188477 C-2.92300272 -0.85626968 -2.92300272 -0.85626968 0 0 Z " fill="#FA8D02" transform="translate(442.76025390625,180.80859375)"/>
<path d="M0 0 C2.00761457 0.97522546 3.97991824 2.02482507 5.921875 3.125 C7.02917969 3.74890625 8.13648438 4.3728125 9.27734375 5.015625 C10.42332031 5.67046875 11.56929688 6.3253125 12.75 7 C13.92284227 7.66205181 15.09601629 8.32351628 16.26953125 8.984375 C24.83069407 13.83069407 24.83069407 13.83069407 26 15 C26.48480879 19.57163583 26.65636587 24.14120017 26.78955078 28.73510742 C26.84609891 30.27531676 26.9277808 31.8148269 27.03564453 33.35229492 C27.38999261 38.5003394 27.42104062 43.00586046 26 48 C22.16244423 51.81760678 17.89678082 53.8000743 13 56 C11.53233854 56.90689549 10.08109135 57.84182743 8.66015625 58.8203125 C8.05236328 59.20960938 7.44457031 59.59890625 6.81835938 60 C5.61056041 60.77385117 4.41306137 61.56394045 3.22460938 62.3671875 C1.41015625 63.5078125 1.41015625 63.5078125 -2 65 C-6.18624627 63.95494657 -9.64692358 62.21015458 -13.328125 59.99609375 C-14.29234375 59.42052734 -15.2565625 58.84496094 -16.25 58.25195312 C-17.24 57.65318359 -18.23 57.05441406 -19.25 56.4375 C-21.23413213 55.2482926 -23.2184954 54.05947075 -25.203125 52.87109375 C-26.07614258 52.34443115 -26.94916016 51.81776855 -27.84863281 51.27514648 C-29.20608166 50.4705669 -30.58861326 49.70569337 -32 49 C-32.3234878 44.30502444 -32.5580634 39.6166106 -32.71411133 34.91308594 C-32.77916664 33.31753592 -32.86766316 31.72275186 -32.98071289 30.12988281 C-33.34695836 24.8334098 -33.40385713 20.15262209 -32 15 C-28.17189449 11.1284328 -23.94799014 9.15721515 -19 7 C-17.59764076 6.17259763 -16.20796651 5.32248038 -14.84375 4.43359375 C-13.7403125 3.77488281 -12.636875 3.11617188 -11.5 2.4375 C-9.81390625 1.41462891 -9.81390625 1.41462891 -8.09375 0.37109375 C-4.52201844 -1.21183273 -3.65515526 -1.06647589 0 0 Z " fill="#AFD752" transform="translate(319,114)"/>
<path d="M0 0 C1.3030175 2.55374472 2.49844507 5.11660975 3.59375 7.765625 C10.06916262 23.1023099 18.09234237 36.40759525 29 49 C29.96054577 50.18571111 30.91930596 51.37287488 31.875 52.5625 C33.94645098 55.15400229 33.94645098 55.15400229 37 57 C35.33546212 57.48651015 33.66822271 57.96377915 32 58.4375 C31.071875 58.70433594 30.14375 58.97117187 29.1875 59.24609375 C21.13011277 61.15182382 13.18122314 61.19264982 4.9375 61.1875 C3.74261963 61.18741943 2.54773926 61.18733887 1.31665039 61.18725586 C-19.89901591 61.05049205 -19.89901591 61.05049205 -26 58 C-25.35216816 53.11902576 -23.329026 49.1079097 -21.2109375 44.7265625 C-20.82942535 43.92576263 -20.44791321 43.12496277 -20.05484009 42.29989624 C-18.83347856 39.73904909 -17.60448245 37.18195663 -16.375 34.625 C-15.57108502 32.94426361 -14.76769463 31.2632762 -13.96484375 29.58203125 C-12.78065516 27.10233563 -11.59611513 24.62281794 -10.40936279 22.14434814 C-6.88822832 14.78665696 -3.43150953 7.39984602 0 0 Z " fill="#D1DBFC" transform="translate(294,430)"/>
<path d="M0 0 C1.15368049 6.34524267 1.07747442 12.56596278 1 19 C-12.39173597 20.75007648 -25.81390297 21.85001095 -39.27954102 22.85986328 C-42.85138304 23.12791804 -46.42277533 23.4014544 -49.99414062 23.67578125 C-52.27341356 23.84927318 -54.55270961 24.02246166 -56.83203125 24.1953125 C-57.89549271 24.27653351 -58.95895416 24.35775452 -60.05464172 24.44143677 C-61.04054794 24.51506439 -62.02645416 24.58869202 -63.04223633 24.66455078 C-63.90585281 24.72957794 -64.7694693 24.7946051 -65.65925598 24.86160278 C-67.76965517 24.98638079 -69.88591526 25 -72 25 C-72.17221435 23.35473791 -72.33740831 21.70874089 -72.5 20.0625 C-72.5928125 19.14597656 -72.685625 18.22945313 -72.78125 17.28515625 C-72.96002916 14.60027643 -73.02222782 11.98231398 -73.01367188 9.29467773 C-73.011698 8.48900864 -73.00972412 7.68333954 -73.00769043 6.85325623 C-73.00515259 6.24168167 -73.00261475 5.63010712 -73 5 C-65.25432651 4.34217088 -57.50821052 3.68983928 -49.76150894 3.04424286 C-46.16320679 2.74419884 -42.56507457 2.4423662 -38.96728516 2.13623047 C-35.48575822 1.84005737 -32.00384535 1.54886394 -28.52162933 1.26091003 C-26.56746162 1.09806954 -24.61370942 0.93026673 -22.65997314 0.7623291 C-15.08603923 0.14105376 -7.59884527 -0.13817279 0 0 Z " fill="#90AFF1" transform="translate(346,319)"/>
<path d="M0 0 C0.02835937 0.65226562 0.05671875 1.30453125 0.0859375 1.9765625 C0.561854 6.33698663 0.90970278 9.07577454 4.359375 12 C6.86204297 13.47049418 9.35754325 14.80065616 12 16 C9.26615099 18.1120963 6.48478557 19.97780412 3.515625 21.7421875 C2.66226563 22.25136719 1.80890625 22.76054687 0.9296875 23.28515625 C0.04539062 23.80980469 -0.83890625 24.33445312 -1.75 24.875 C-4.35352454 26.42398122 -6.95402383 27.97348548 -9.53320312 29.56274414 C-12 31 -12 31 -14.38867188 32.02905273 C-16.77876084 33.14440982 -18.27668627 33.9926733 -20 36 C-21.12216326 40.44259981 -21.07361534 44.750803 -21 49.3125 C-21.01160156 50.53001953 -21.02320313 51.74753906 -21.03515625 53.00195312 C-21.0586939 56.00300357 -21.04571956 58.99933627 -21 62 C-31.95710752 51.51501201 -37.53371731 41.31230428 -37.97363281 26.0234375 C-38.01283995 23.01465274 -38.02375545 20.00902412 -38 17 C-37.09507812 17.31453125 -36.19015625 17.6290625 -35.2578125 17.953125 C-28.99088985 18.84254231 -23.81316258 14.04809404 -18.875 10.75 C-17.80378906 10.05519531 -16.73257812 9.36039062 -15.62890625 8.64453125 C-13.6333275 7.34976596 -11.64294846 6.04692432 -9.65966797 4.73339844 C-2.39690141 0 -2.39690141 0 0 0 Z " fill="#6965F6" transform="translate(396,374)"/>
<path d="M0 0 C3.54274042 1.35753959 6.88213341 2.91239489 10.23828125 4.6796875 C11.71651367 5.45505859 11.71651367 5.45505859 13.22460938 6.24609375 C14.24361328 6.78363281 15.26261719 7.32117188 16.3125 7.875 C22.84624148 11.31117114 29.38276882 14.72696092 36 18 C35.236875 18.5775 34.47375 19.155 33.6875 19.75 C30.58199084 22.34996116 28.28810071 24.28089948 27.60127258 28.37921143 C27.59016953 29.25857361 27.57906647 30.13793579 27.56762695 31.04394531 C27.54783279 32.04468079 27.52803864 33.04541626 27.50764465 34.07647705 C27.49805977 35.68604279 27.49805977 35.68604279 27.48828125 37.328125 C27.47033005 38.43226746 27.45237885 39.53640991 27.43388367 40.67401123 C27.37971773 44.19930202 27.345864 47.72445691 27.3125 51.25 C27.27933257 53.64064393 27.24484345 56.03126992 27.20898438 58.421875 C27.1239876 64.28112815 27.05566421 70.14039875 27 76 C26.67 76 26.34 76 26 76 C26.08491699 74.88141602 26.16983398 73.76283203 26.25732422 72.61035156 C28.4689416 52.53826437 28.4689416 52.53826437 22.93847656 34.05566406 C17.84274129 29.83711086 12.06498022 27.73640048 5.7734375 25.90136719 C2.21367014 24.7444428 -0.83526158 23.05432175 -4.04492188 21.15283203 C-5.99057646 20.00555669 -7.96981478 18.98843934 -10 18 C-9.43410156 17.66226563 -8.86820312 17.32453125 -8.28515625 16.9765625 C-7.55167969 16.53054687 -6.81820313 16.08453125 -6.0625 15.625 C-5.33160156 15.18414062 -4.60070312 14.74328125 -3.84765625 14.2890625 C-1.86227728 13.1226016 -1.86227728 13.1226016 -1 11 C-0.7724985 9.12943209 -0.59037189 7.25314042 -0.4375 5.375 C-0.35371094 4.37210938 -0.26992188 3.36921875 -0.18359375 2.3359375 C-0.12300781 1.56507813 -0.06242187 0.79421875 0 0 Z " fill="#6B68F3" transform="translate(365,161)"/>
<path d="M0 0 C0.33 0 0.66 0 1 0 C0.99920441 0.6403569 0.99840881 1.28071381 0.99758911 1.94047546 C0.99515053 8.60818695 1.03433723 15.2747341 1.09765625 21.94213867 C1.11581966 24.43003936 1.12338416 26.91804101 1.12011719 29.40600586 C1.11726131 32.98370525 1.15256782 36.55930938 1.1953125 40.13671875 C1.18621857 41.24834885 1.17712463 42.35997894 1.16775513 43.5052948 C1.1229368 48.93100911 1.1229368 48.93100911 3.24847412 53.73916626 C4.98689175 55.2812906 4.98689175 55.2812906 8 57 C8.78375 57.598125 9.5675 58.19625 10.375 58.8125 C10.91125 59.204375 11.4475 59.59625 12 60 C4.93281442 64.78591974 -2.26162673 69.35320749 -9.5 73.875 C-10.59570312 74.56335938 -11.69140625 75.25171875 -12.8203125 75.9609375 C-14.37878906 76.93546875 -14.37878906 76.93546875 -15.96875 77.9296875 C-16.91169922 78.51991699 -17.85464844 79.11014648 -18.82617188 79.71826172 C-21 81 -21 81 -22 81 C-22.08636719 80.32453125 -22.17273438 79.6490625 -22.26171875 78.953125 C-23.10716828 73.17744856 -23.10716828 73.17744856 -26.375 68.5 C-29.6301355 66.63687713 -29.6301355 66.63687713 -33 65 C-33 64.34 -33 63.68 -33 63 C-31.33862305 61.7824707 -31.33862305 61.7824707 -29.01171875 60.42578125 C-28.16464355 59.92594727 -27.31756836 59.42611328 -26.44482422 58.91113281 C-25.53490723 58.38358398 -24.62499023 57.85603516 -23.6875 57.3125 C-21.84952428 56.23171965 -20.01227946 55.14969533 -18.17578125 54.06640625 C-17.28455566 53.54191895 -16.39333008 53.01743164 -15.47509766 52.47705078 C-11.54299666 50.13051192 -7.71573197 47.63818206 -3.8984375 45.109375 C-2 44 -2 44 0 44 C0 29.48 0 14.96 0 0 Z " fill="#6A68F2" transform="translate(266,121)"/>
<path d="M0 0 C0 13.2 0 26.4 0 40 C-1.32 39.34 -2.64 38.68 -4 38 C-8.92109426 37.50789057 -11.88662706 37.70568336 -16.265625 40.0234375 C-17.32185059 40.57523682 -17.32185059 40.57523682 -18.39941406 41.13818359 C-19.1917041 41.56478271 -19.1917041 41.56478271 -20 42 C-20.85439108 28.65013933 -21.11978427 15.37590974 -21 2 C-20.25492187 2.32226562 -19.50984375 2.64453125 -18.7421875 2.9765625 C-14.40453934 4.59545683 -10.22312446 4.98141771 -5.96484375 3.1015625 C-0.60859929 0 -0.60859929 0 0 0 Z " fill="#6A66F6" transform="translate(453,263)"/>
<path d="M0 0 C0 12.21 0 24.42 0 37 C-1.485 36.505 -1.485 36.505 -3 36 C-7.92818275 35.39654905 -10.94116736 36.28077248 -15.24609375 38.5234375 C-16.13868896 38.98411621 -17.03128418 39.44479492 -17.95092773 39.91943359 C-18.62712158 40.27602051 -19.30331543 40.63260742 -20 41 C-21.19388403 12.84846857 -21.19388403 12.84846857 -21 1 C-20.0821875 1.49757813 -19.164375 1.99515625 -18.21875 2.5078125 C-14.19951677 4.37109781 -12.25734733 4.06433683 -8 3 C-1.64 0 -1.64 0 0 0 Z " fill="#6965F6" transform="translate(207,271)"/>
<path d="M0 0 C2.56376764 1.26832688 5.12602212 2.53956365 7.6875 3.8125 C8.40873047 4.16892578 9.12996094 4.52535156 9.87304688 4.89257812 C13.68140477 6.78806219 17.38873857 8.74207126 21 11 C21.33 9.02 21.66 7.04 22 5 C22.33 5 22.66 5 23 5 C23.02505615 5.61520508 23.0501123 6.23041016 23.07592773 6.86425781 C23.19218487 9.65970156 23.31477642 12.45483298 23.4375 15.25 C23.47681641 16.21808594 23.51613281 17.18617188 23.55664062 18.18359375 C23.59853516 19.11816406 23.64042969 20.05273438 23.68359375 21.015625 C23.73858032 22.30388184 23.73858032 22.30388184 23.79467773 23.61816406 C23.93367918 25.96513466 23.93367918 25.96513466 24.51367188 28.0546875 C25.03710774 30.14843096 25.11398228 31.95433894 25.09765625 34.109375 C25.09443359 34.86347656 25.09121094 35.61757813 25.08789062 36.39453125 C25.07532227 37.56048828 25.07532227 37.56048828 25.0625 38.75 C25.05798828 39.54277344 25.05347656 40.33554687 25.04882812 41.15234375 C25.03708565 43.10159508 25.01915146 45.05080738 25 47 C24.67 47 24.34 47 24 47 C24.08205688 45.91875854 24.08205688 45.91875854 24.16577148 44.81567383 C24.18538912 41.60026349 23.97373495 39.0730379 23 36 C19.7818647 33.00119707 16.06991505 31.42759437 12.0625 29.6875 C10.03114436 28.73607273 8.00118307 27.78166251 5.97265625 26.82421875 C4.98023926 26.36837402 3.98782227 25.9125293 2.96533203 25.44287109 C-1.53518968 23.25300749 -5.77016886 20.66860591 -10 18 C-9.2575 17.4225 -8.515 16.845 -7.75 16.25 C-6.8425 15.5075 -5.935 14.765 -5 14 C-4.2575 13.46375 -3.515 12.9275 -2.75 12.375 C-0.0008881 8.64406243 -0.17287595 4.52934993 0 0 Z " fill="#6865F4" transform="translate(250,378)"/>
<path d="M0 0 C3.0625 1.9375 3.0625 1.9375 5 5 C5.69005003 8.15369971 5.73568899 10.8519355 5 14 C2.5625 17 2.5625 17 0 19 C-0.33 19.33 -0.66 19.66 -1 20 C-5.40011913 20.51766107 -7.52443744 20.28181485 -11.375 18 C-14.18513669 14.78841521 -15.00222967 13.15355601 -15.24609375 9 C-14.83064605 5.6236631 -13.15928024 3.52944256 -11 1 C-7.50797535 -0.74601232 -3.81017721 -0.55838804 0 0 Z " fill="#6966F6" transform="translate(335,536)"/>
<path d="M0 0 C2.69105198 2.17574416 4.45532928 3.91065856 6 7 C6.4136968 11.65408901 5.81070393 14.25239476 3 18 C-0.71585327 20.47723552 -3.69499733 20.76209087 -8 20 C-10.99264813 18.70213576 -11.81373741 17.67817168 -14 15 C-14.73994373 11.85239319 -14.68576465 9.15451739 -14 6 C-10.45121729 0.32194767 -6.6293259 -1.16838694 0 0 Z " fill="#6966F6" transform="translate(284,517)"/>
<path d="M0 0 C3.4375 1.9375 3.4375 1.9375 6 5 C6.74526995 8.14606321 6.6855981 10.84624876 6 14 C4.20606332 16.87029869 3.01736724 18.49131638 0 20 C-7.13230769 20.70153846 -7.13230769 20.70153846 -10.9375 17.625 C-13.90672736 13.84598336 -14.55686828 11.82619179 -14 7 C-10.30863055 1.03595906 -6.96661383 -0.69666138 0 0 Z " fill="#6A66F7" transform="translate(374,493)"/>
</svg>
