<?xml version="1.0" encoding="UTF-8"?>
<svg version="1.1" xmlns="http://www.w3.org/2000/svg" width="640" height="640">
<path d="M0 0 C211.2 0 422.4 0 640 0 C640 211.2 640 422.4 640 640 C428.8 640 217.6 640 0 640 C0 428.8 0 217.6 0 0 Z " fill="#FEFEFE" transform="translate(0,0)"/>
<path d="M0 0 C3.23338833 1.25394967 6.1449535 2.92334606 9.125 4.6875 C9.97449219 5.17428223 10.82398438 5.66106445 11.69921875 6.16259766 C13.51796376 7.20930262 15.33197635 8.26426603 17.14160156 9.32666016 C20.0993984 11.05818898 23.07526304 12.75521404 26.0546875 14.44921875 C28.03735053 15.58959605 30.01914284 16.73148873 32 17.875 C33.40596436 18.67683716 33.40596436 18.67683716 34.84033203 19.49487305 C35.71802246 20.00961182 36.59571289 20.52435059 37.5 21.0546875 C38.2734375 21.50312012 39.046875 21.95155273 39.84375 22.41357422 C42.67175906 24.49423577 44.22402011 25.91408279 46 29 C46.55746535 32.82671882 46.48870712 36.60842815 46.42578125 40.46875 C46.42249313 41.58181519 46.41920502 42.69488037 46.41581726 43.8416748 C46.40540658 46.19187274 46.38547404 48.54204513 46.35668945 50.89208984 C46.3126617 54.48679764 46.29525679 58.0808373 46.28320312 61.67578125 C46.2697764 63.96094711 46.25485271 66.24610478 46.23828125 68.53125 C46.23089432 69.60532104 46.22350739 70.67939209 46.21589661 71.78601074 C46.20306137 72.79055298 46.19022614 73.79509521 46.17700195 74.83007812 C46.16715775 75.70990356 46.15731354 76.589729 46.14717102 77.49621582 C46 80 46 80 45.33927917 82.64831543 C45.22731705 83.42437134 45.11535492 84.20042725 45 85 C46.88792172 87.20514185 48.6149343 88.90351578 50.8125 90.75 C51.40474365 91.27005615 51.9969873 91.7901123 52.60717773 92.32592773 C53.81654122 93.38690705 55.03149612 94.44154676 56.25195312 95.48974609 C58.73253941 97.6328895 61.14371152 99.85010515 63.5625 102.0625 C65.02831701 103.38989247 66.50615355 104.70423264 68 106 C68.62777344 106.61746094 69.25554687 107.23492187 69.90234375 107.87109375 C71.99857052 109.27422782 71.99857052 109.27422782 74.625 108.5703125 C80.26913866 105.94422021 85.42586319 102.52926145 90.65625 99.16796875 C91.5121875 98.63558594 92.368125 98.10320312 93.25 97.5546875 C94.01828125 97.06468262 94.7865625 96.57467773 95.578125 96.06982422 C98.64305851 94.71593928 100.67362394 94.64039178 104 95 C106.70629883 96.12646484 106.70629883 96.12646484 109.45703125 97.7109375 C110.47958008 98.29166016 111.50212891 98.87238281 112.55566406 99.47070312 C114.16779785 100.41333008 114.16779785 100.41333008 115.8125 101.375 C117.47297363 102.32922852 117.47297363 102.32922852 119.16699219 103.30273438 C121.40114078 104.58919976 123.6321441 105.88114385 125.85986328 107.17871094 C128.64224379 108.79250029 131.43839513 110.37615932 134.24609375 111.9453125 C135.74781928 112.79612803 137.24915382 113.64763424 138.75 114.5 C139.42135986 114.8717334 140.09271973 115.2434668 140.78442383 115.62646484 C141.40728271 115.98691895 142.0301416 116.34737305 142.671875 116.71875 C143.46223145 117.16637695 143.46223145 117.16637695 144.26855469 117.62304688 C147.90876 120.51796481 150.57704532 122.8109535 151.47512817 127.45907593 C151.67832432 130.48204395 151.71913178 133.46631317 151.69921875 136.49609375 C151.70995171 138.15645409 151.70995171 138.15645409 151.72090149 139.85035706 C151.72866942 142.18611853 151.72368574 144.52195275 151.70678711 146.85766602 C151.68757927 150.42278712 151.72694556 153.98400027 151.77148438 157.54882812 C151.77177478 159.82291898 151.76863355 162.09701339 151.76171875 164.37109375 C151.77700119 165.43170517 151.79228363 166.49231659 151.80802917 167.58506775 C151.71315822 173.64051451 151.03901011 177.30778538 146.64894104 181.63594055 C144.37694785 183.51540968 142.10498831 185.03015172 139.5078125 186.4296875 C138.48010742 186.99349121 137.45240234 187.55729492 136.39355469 188.13818359 C134.77562012 188.99790771 134.77562012 188.99790771 133.125 189.875 C130.88255117 191.0932691 128.64036378 192.31201955 126.3984375 193.53125 C125.30756836 194.1190625 124.21669922 194.706875 123.09277344 195.3125 C120.36072848 196.80317688 117.66237784 198.33428081 114.9765625 199.90625 C113.88770752 200.54071045 113.88770752 200.54071045 112.77685547 201.18798828 C111.4669141 201.95514498 110.16092752 202.72911306 108.85986328 203.51123047 C105.42668326 205.49644168 102.98111075 206.43403087 99 206 C98.88785156 207.24523437 98.77570313 208.49046875 98.66015625 209.7734375 C97.91202349 216.51586856 96.27512117 223.05299567 94.72851562 229.6484375 C93.53799189 234.8964605 92.70596251 239.61685202 93 245 C93.67579102 245.37286133 94.35158203 245.74572266 95.04785156 246.12988281 C98.1191617 247.82960134 101.18458817 249.53966867 104.25 251.25 C105.84521484 252.12978516 105.84521484 252.12978516 107.47265625 253.02734375 C108.49746094 253.60097656 109.52226562 254.17460937 110.578125 254.765625 C111.52075195 255.28930664 112.46337891 255.81298828 113.43457031 256.35253906 C116.09113157 258.05852264 117.96931929 259.58197309 120 262 C120.5146637 264.49742126 120.5146637 264.49742126 120.53344727 267.33178711 C120.5492836 268.39646713 120.56511993 269.46114716 120.58143616 270.55809021 C120.57399635 272.27537071 120.57399635 272.27537071 120.56640625 274.02734375 C120.57260483 275.20841202 120.57880341 276.38948029 120.58518982 277.6063385 C120.59229277 280.10368017 120.58910581 282.60106914 120.57641602 285.09838867 C120.56256345 288.91999511 120.59660334 292.73914778 120.63476562 296.56054688 C120.63571692 298.98697977 120.63385745 301.41341572 120.62890625 303.83984375 C120.64216446 304.98267319 120.65542267 306.12550262 120.66908264 307.30296326 C120.57608654 315.22631329 120.57608654 315.22631329 117.67749023 319.11914062 C116.35213257 320.05016602 116.35213257 320.05016602 115 321 C114.40767578 321.42740479 113.81535156 321.85480957 113.20507812 322.29516602 C112.65271484 322.61155029 112.10035156 322.92793457 111.53125 323.25390625 C110.88760498 323.62773437 110.24395996 324.0015625 109.58081055 324.38671875 C108.89414307 324.77472656 108.20747559 325.16273438 107.5 325.5625 C106.77530518 325.98015625 106.05061035 326.3978125 105.30395508 326.828125 C103.72637857 327.73558493 102.14661155 328.63924489 100.56494141 329.53955078 C97.82376784 331.10034464 95.08931888 332.67251067 92.35546875 334.24609375 C88.70151666 336.34517925 85.04681595 338.44289477 81.38671875 340.53125 C80.63608154 340.95986328 79.88544434 341.38847656 79.11206055 341.83007812 C72.47843958 345.50460265 72.47843958 345.50460265 68.17236328 344.72167969 C63.05433446 343.02142197 58.51716843 339.91795664 53.9375 337.125 C51.8225284 335.85524749 49.70667005 334.58697059 47.58984375 333.3203125 C46.19560181 332.47364014 46.19560181 332.47364014 44.77319336 331.60986328 C41.90391582 329.94422228 38.98141728 328.45377389 36 327 C36.40613525 327.73186523 36.81227051 328.46373047 37.23071289 329.21777344 C44.98636704 343.20512558 52.69801146 357.21393066 60.25 371.3125 C60.86883057 372.4665332 61.48766113 373.62056641 62.12524414 374.80957031 C70.49956504 390.48116628 75.97522259 402.14607737 70.96875 420.0859375 C66.1997985 434.43125128 57.22342935 443.17409774 43.953125 450.0625 C37.33169851 453.10952812 30.69777452 453.16032861 23.5625 453.12109375 C22.61221924 453.11822861 21.66193848 453.11536346 20.68286133 453.1124115 C7.81267814 453.0320177 -5.04941624 452.56695014 -17.91146088 452.1325798 C-23.59213762 451.94196776 -29.27309743 451.7598146 -34.9540062 451.57627296 C-36.36196209 451.53072695 -37.76991348 451.48504145 -39.17786026 451.43921471 C-52.50237808 451.00558188 -65.82797443 450.63852224 -79.15625 450.34204102 C-86.31905692 450.17649821 -93.476668 449.92692693 -100.6328125 449.578125 C-101.37900848 449.54629623 -102.12520447 449.51446747 -102.89401245 449.48167419 C-109.18750185 449.14932098 -114.38040646 447.7918428 -120 445 C-120.84820312 444.58878906 -121.69640625 444.17757813 -122.5703125 443.75390625 C-132.77049336 438.24830404 -139.71006563 429.68176429 -144 419 C-144.36351562 418.12085938 -144.72703125 417.24171875 -145.1015625 416.3359375 C-146.31952386 411.81359401 -146.40733927 407.53985979 -146.4375 402.875 C-146.48680664 401.56402344 -146.48680664 401.56402344 -146.53710938 400.2265625 C-146.63809758 387.66730217 -139.87155206 377.61473829 -133.375 367.3125 C-132.66515179 366.1546048 -131.95675572 364.99581821 -131.24975586 363.83618164 C-128.23877859 358.93001968 -125.23445899 354.12510079 -121.54296875 349.6953125 C-111.3458409 337.10379577 -112.62258669 322.4528566 -113.03076172 306.98657227 C-113 304 -113 304 -112 302 C-112.59296875 301.73574219 -113.1859375 301.47148437 -113.796875 301.19921875 C-116.08029054 299.95629575 -117.47426723 298.69598354 -119.25 296.8125 C-122.32392793 293.64700826 -125.52747503 290.72507056 -128.8671875 287.84375 C-131.26432953 285.77149536 -133.63334823 283.66948778 -136 281.5625 C-137.1446875 280.54349609 -137.1446875 280.54349609 -138.3125 279.50390625 C-139.1478125 278.75947266 -139.1478125 278.75947266 -140 278 C-143.51288424 279.31664868 -146.63315566 280.8715974 -149.8359375 282.8203125 C-151.18558594 283.62275391 -151.18558594 283.62275391 -152.5625 284.44140625 C-154.43521397 285.56243364 -156.30246002 286.6926471 -158.1640625 287.83203125 C-159.06640625 288.36441406 -159.96875 288.89679688 -160.8984375 289.4453125 C-161.70974121 289.93531738 -162.52104492 290.42532227 -163.35693359 290.93017578 C-167.94501499 292.78727653 -171.57391068 292.60051756 -176.11108398 290.68994141 C-177.14563721 290.08327637 -178.18019043 289.47661133 -179.24609375 288.8515625 C-180.09961678 288.35905502 -180.09961678 288.35905502 -180.97038269 287.8565979 C-182.80196485 286.79432423 -184.6197435 285.71073344 -186.4375 284.625 C-187.69329409 283.88805327 -188.94964472 283.15205412 -190.20654297 282.41699219 C-193.8167464 280.29842549 -197.40864661 278.15035587 -201 276 C-201.93505371 275.44731445 -202.87010742 274.89462891 -203.83349609 274.32519531 C-206.10607749 272.98062549 -208.3684285 271.62122453 -210.625 270.25 C-211.26236084 269.86924316 -211.89972168 269.48848633 -212.55639648 269.09619141 C-215.82674548 267.05665855 -217.60683066 265.58911165 -219 262 C-219.27415466 259.62319946 -219.27415466 259.62319946 -219.30639648 256.95947266 C-219.32238388 255.95808258 -219.33837128 254.9566925 -219.35484314 253.92495728 C-219.36020584 252.848862 -219.36556854 251.77276672 -219.37109375 250.6640625 C-219.38012222 249.55195404 -219.3891507 248.43984558 -219.39845276 247.29403687 C-219.41295584 244.94214572 -219.42184213 242.59021421 -219.42553711 240.23828125 C-219.43743332 236.64514013 -219.48662133 233.05371624 -219.53710938 229.4609375 C-219.54657374 227.17448754 -219.55380871 224.88802704 -219.55859375 222.6015625 C-219.58789223 220.99349228 -219.58789223 220.99349228 -219.61778259 219.35293579 C-219.56753147 211.02124122 -219.56753147 211.02124122 -216.84765625 207.51269531 C-213.9677067 204.97150526 -211.23409582 203.06035732 -207.87890625 201.1953125 C-207.00708961 200.70380203 -207.00708961 200.70380203 -206.11766052 200.20236206 C-204.27206693 199.16513202 -202.41779931 198.14474725 -200.5625 197.125 C-199.35418845 196.45034451 -198.14650117 195.77456971 -196.93945312 195.09765625 C-195.1295898 194.08317132 -193.31849761 193.07146639 -191.50186157 192.06915283 C-188.35216902 190.33033977 -185.23237963 188.55587901 -182.14404297 186.70996094 C-181.20273781 186.15294998 -181.20273781 186.15294998 -180.24241638 185.58468628 C-178.50335734 184.55216189 -176.77087086 183.50859065 -175.03881836 182.46435547 C-172.00227078 181.00109425 -170.30878261 180.6560805 -167 181 C-166.98582031 180.44957031 -166.97164062 179.89914062 -166.95703125 179.33203125 C-166.50758925 171.4971639 -164.72113967 164.10972638 -162.81567383 156.52661133 C-161.60509319 151.68742615 -160.59559051 146.95423015 -160 142 C-160.63808594 141.77054688 -161.27617187 141.54109375 -161.93359375 141.3046875 C-166.13375049 139.51761444 -170.07190897 137.33447978 -174.0625 135.125 C-175.26616211 134.47337891 -175.26616211 134.47337891 -176.49414062 133.80859375 C-185.61671266 128.76657468 -185.61671266 128.76657468 -188 124 C-188.11570235 122.33179145 -188.16954908 120.65911404 -188.19287109 118.98706055 C-188.20893402 117.94225021 -188.22499695 116.89743988 -188.24154663 115.82096863 C-188.28593806 111.04056394 -188.3270588 106.26029884 -188.35009766 101.47973633 C-188.36666456 98.95685608 -188.39396384 96.43402291 -188.43212891 93.91137695 C-188.48683189 90.2779093 -188.50876249 86.64554247 -188.5234375 83.01171875 C-188.54610687 81.88448898 -188.56877625 80.75725922 -188.59213257 79.59587097 C-188.57104508 71.79532706 -188.57104508 71.79532706 -185.82250977 67.96728516 C-183.03111803 66.02168922 -180.27822978 64.18826424 -177.31640625 62.51171875 C-176.23020996 61.89111572 -175.14401367 61.2705127 -174.02490234 60.63110352 C-172.88230957 59.98971436 -171.7397168 59.3483252 -170.5625 58.6875 C-169.38201389 58.0199984 -168.20183906 57.35194599 -167.02197266 56.68334961 C-164.71570857 55.37663029 -162.4079296 54.0727432 -160.09912109 52.77050781 C-157.52442563 51.29960097 -154.98258443 49.79519308 -152.45703125 48.2421875 C-151.83304443 47.86360596 -151.20905762 47.48502441 -150.56616211 47.0949707 C-149.01445527 46.14763878 -147.47160331 45.18584239 -145.9296875 44.22265625 C-142.10948866 42.62835993 -139.02015951 42.161741 -135 43 C-131.15367868 44.63282303 -127.63649001 46.7193597 -124.0625 48.875 C-122.55755981 49.7565979 -122.55755981 49.7565979 -121.0222168 50.65600586 C-118.98261666 51.85289793 -116.94716448 53.05688777 -114.91601562 54.26806641 C-112.24454289 55.85475659 -109.55801821 57.40933599 -106.859375 58.94921875 C-105.34347037 59.81982578 -103.8278274 60.69088865 -102.3125 61.5625 C-101.28104858 62.1510376 -101.28104858 62.1510376 -100.22875977 62.75146484 C-97.40208965 64.40444225 -95.13266801 65.84628987 -92.98046875 68.33984375 C-91.05251874 70.31702357 -91.05251874 70.31702357 -88.0390625 70 C-82.37024464 68.80274567 -76.86576454 66.82176179 -71.375 65 C-69.15446305 64.26834843 -66.93313584 63.53908991 -64.7109375 62.8125 C-63.24599854 62.32716797 -63.24599854 62.32716797 -61.75146484 61.83203125 C-59.17806714 61.05384674 -56.64395648 60.47710493 -54 60 C-53.99589111 59.09233887 -53.99178223 58.18467773 -53.98754883 57.24951172 C-53.96047347 53.86054374 -53.91129422 50.47335887 -53.84741211 47.08496094 C-53.82430885 45.62250818 -53.80985442 44.15989085 -53.80444336 42.69726562 C-53.79509602 40.58620576 -53.75399179 38.47770634 -53.70703125 36.3671875 C-53.6913208 35.09987793 -53.67561035 33.83256836 -53.65942383 32.52685547 C-52.64636052 27.1085983 -49.82389702 24.26722669 -45.37548828 21.17651367 C-44.44978027 20.67869385 -43.52407227 20.18087402 -42.5703125 19.66796875 C-41.53447021 19.10094238 -40.49862793 18.53391602 -39.43139648 17.94970703 C-38.34028564 17.36817871 -37.2491748 16.78665039 -36.125 16.1875 C-33.86722697 14.96195863 -31.61071138 13.73409785 -29.35546875 12.50390625 C-28.26411621 11.90980957 -27.17276367 11.31571289 -26.04833984 10.70361328 C-23.41428365 9.23152902 -20.8489216 7.70447887 -18.30078125 6.08984375 C-17.63353027 5.66743408 -16.9662793 5.24502441 -16.27880859 4.80981445 C-14.57206269 3.71158615 -12.87727243 2.59483774 -11.18359375 1.4765625 C-7.29575841 -0.32662984 -4.16550818 -0.81418715 0 0 Z " fill="#082C75" transform="translate(354,94)"/>
<path d="M0 0 C1.49909773 0.0173085 2.99820302 0.03397155 4.49731445 0.05004883 C8.78270743 0.10655388 13.0665924 0.20154779 17.35107422 0.30535889 C20.53861431 0.38031732 23.72627949 0.44454742 26.9140625 0.50830078 C32.77487575 0.63013724 38.63412955 0.78497542 44.49356079 0.96087646 C46.82195569 1.02835795 49.15056971 1.08867798 51.4793396 1.1416626 C54.78301531 1.22055723 58.08424848 1.33090432 61.38671875 1.44921875 C62.37188477 1.46719009 63.35705078 1.48516144 64.37207031 1.50367737 C70.80827778 1.77835524 75.36361582 3.13741369 80.3125 7.375 C87.35265895 15.36242069 86.50143568 23.37252297 86.3125 33.375 C86.30524902 34.06400391 86.29799805 34.75300781 86.29052734 35.46289062 C86.14705245 45.53045091 85.06296093 51.74330059 77.8125 58.8125 C75.21411212 60.43649243 73.29588142 60.86285286 70.3125 61.375 C70.32410156 62.55191406 70.33570313 63.72882813 70.34765625 64.94140625 C70.40942613 74.33332411 70.26079033 83.68059203 69.8125 93.0625 C69.75412964 94.52018799 69.75412964 94.52018799 69.69458008 96.00732422 C69.52113336 100.32494765 69.30918555 104.60806034 68.859375 108.90625 C67.7901436 121.74593709 73.49398161 130.79937247 80.3125 141.375 C80.30613525 140.28558105 80.29977051 139.19616211 80.29321289 138.07373047 C80.27873301 134.01409255 80.31019609 129.95586241 80.35522461 125.89648438 C80.36832757 124.14295248 80.3691322 122.38928229 80.35717773 120.63574219 C80.34211071 118.10735213 80.37192417 115.58276639 80.41015625 113.0546875 C80.39590103 112.27632538 80.38164581 111.49796326 80.36695862 110.6960144 C80.4549193 107.3552356 80.61952901 105.2119796 82.79437256 102.58517456 C86.9302935 98.95988752 91.59352649 96.31148145 96.4375 93.75 C98.01791395 92.89766066 99.59729635 92.04340654 101.17578125 91.1875 C102.00416504 90.73890625 102.83254883 90.2903125 103.68603516 89.828125 C106.47818386 88.2833333 109.23081549 86.68165176 111.98046875 85.0625 C112.92067871 84.51158691 113.86088867 83.96067383 114.82958984 83.39306641 C116.66407095 82.31480808 118.49401266 81.22878142 120.31884766 80.13427734 C121.57834229 79.39878662 121.57834229 79.39878662 122.86328125 78.6484375 C123.60231689 78.20935059 124.34135254 77.77026367 125.1027832 77.31787109 C127.65646393 76.22823293 129.56358057 76.19920931 132.3125 76.375 C132.41691406 75.35148437 132.52132812 74.32796875 132.62890625 73.2734375 C133.44349354 66.77678177 134.8844899 60.39857729 136.25 54 C136.51490234 52.71738281 136.77980469 51.43476563 137.05273438 50.11328125 C137.31248047 48.89253906 137.57222656 47.67179687 137.83984375 46.4140625 C138.19163696 44.74657959 138.19163696 44.74657959 138.55053711 43.04541016 C139.3125 40.375 139.3125 40.375 141.3125 38.375 C143.95946694 39.8521687 146.60510565 41.33162882 149.25 42.8125 C150.00474609 43.23337891 150.75949219 43.65425781 151.53710938 44.08789062 C152.61508789 44.69213867 152.61508789 44.69213867 153.71484375 45.30859375 C154.71245728 45.8663147 154.71245728 45.8663147 155.73022461 46.43530273 C157.3125 47.375 157.3125 47.375 158.3125 48.375 C157.7288192 56.44788088 155.8847841 64.16075541 154.04101562 72.0234375 C152.85049189 77.2714605 152.01846251 81.99185202 152.3125 87.375 C152.98829102 87.74786133 153.66408203 88.12072266 154.36035156 88.50488281 C157.4316617 90.20460134 160.49708817 91.91466867 163.5625 93.625 C164.62597656 94.21152344 165.68945312 94.79804688 166.78515625 95.40234375 C167.80996094 95.97597656 168.83476562 96.54960937 169.890625 97.140625 C170.83325195 97.66430664 171.77587891 98.18798828 172.74707031 98.72753906 C175.40363157 100.43352264 177.28181929 101.95697309 179.3125 104.375 C179.8271637 106.87242126 179.8271637 106.87242126 179.84594727 109.70678711 C179.8617836 110.77146713 179.87761993 111.83614716 179.89393616 112.93309021 C179.88649635 114.65037071 179.88649635 114.65037071 179.87890625 116.40234375 C179.88510483 117.58341202 179.89130341 118.76448029 179.89768982 119.9813385 C179.90479277 122.47868017 179.90160581 124.97606914 179.88891602 127.47338867 C179.87506345 131.29499511 179.90910334 135.11414778 179.94726562 138.93554688 C179.94821692 141.36197977 179.94635745 143.78841572 179.94140625 146.21484375 C179.95466446 147.35767319 179.96792267 148.50050262 179.98158264 149.67796326 C179.88858654 157.60131329 179.88858654 157.60131329 176.98999023 161.49414062 C176.10641846 162.11482422 175.22284668 162.73550781 174.3125 163.375 C173.72017578 163.80240479 173.12785156 164.22980957 172.51757812 164.67016602 C171.96521484 164.98655029 171.41285156 165.30293457 170.84375 165.62890625 C170.20010498 166.00273437 169.55645996 166.3765625 168.89331055 166.76171875 C168.20664307 167.14972656 167.51997559 167.53773438 166.8125 167.9375 C165.72545776 168.56398438 165.72545776 168.56398438 164.61645508 169.203125 C163.03887857 170.11058493 161.45911155 171.01424489 159.87744141 171.91455078 C157.13626784 173.47534464 154.40181888 175.04751067 151.66796875 176.62109375 C148.01401666 178.72017925 144.35931595 180.81789477 140.69921875 182.90625 C139.57326294 183.54916992 139.57326294 183.54916992 138.42456055 184.20507812 C131.79093958 187.87960265 131.79093958 187.87960265 127.48486328 187.09667969 C122.36683446 185.39642197 117.82966843 182.29295664 113.25 179.5 C111.1350284 178.23024749 109.01917005 176.96197059 106.90234375 175.6953125 C105.97284912 175.13086426 105.04335449 174.56641602 104.08569336 173.98486328 C101.21641582 172.31922228 98.29391728 170.82877389 95.3125 169.375 C95.71863525 170.10686523 96.12477051 170.83873047 96.54321289 171.59277344 C104.29886704 185.58012558 112.01051146 199.58893066 119.5625 213.6875 C120.18133057 214.8415332 120.80016113 215.99556641 121.43774414 217.18457031 C129.81206504 232.85616628 135.28772259 244.52107737 130.28125 262.4609375 C125.5122985 276.80625128 116.53592935 285.54909774 103.265625 292.4375 C96.64419851 295.48452812 90.01027452 295.53532861 82.875 295.49609375 C81.92471924 295.49322861 80.97443848 295.49036346 79.99536133 295.4874115 C67.12517814 295.4070177 54.26308376 294.94195014 41.40103912 294.5075798 C35.72036238 294.31696776 30.03940257 294.1348146 24.3584938 293.95127296 C22.95053791 293.90572695 21.54258652 293.86004145 20.13463974 293.81421471 C6.81012192 293.38058188 -6.51547443 293.01352224 -19.84375 292.71704102 C-27.00655692 292.55149821 -34.164168 292.30192693 -41.3203125 291.953125 C-42.06650848 291.92129623 -42.81270447 291.88946747 -43.58151245 291.85667419 C-49.87500185 291.52432098 -55.06790646 290.1668428 -60.6875 287.375 C-61.53570312 286.96378906 -62.38390625 286.55257813 -63.2578125 286.12890625 C-73.45799336 280.62330404 -80.39756563 272.05676429 -84.6875 261.375 C-85.05101562 260.49585938 -85.41453125 259.61671875 -85.7890625 258.7109375 C-87.00702386 254.18859401 -87.09483927 249.91485979 -87.125 245.25 C-87.15787109 244.37601563 -87.19074219 243.50203125 -87.22460938 242.6015625 C-87.32559758 230.04230217 -80.55905206 219.98973829 -74.0625 209.6875 C-73.35265179 208.5296048 -72.64425572 207.37081821 -71.93725586 206.21118164 C-68.92627859 201.30501968 -65.92195899 196.50010079 -62.23046875 192.0703125 C-52.0333409 179.47879577 -53.31008669 164.8278566 -53.71826172 149.36157227 C-53.6875 146.375 -53.6875 146.375 -52.6875 144.375 C-53.28046875 144.11074219 -53.8734375 143.84648437 -54.484375 143.57421875 C-56.76779054 142.33129575 -58.16176723 141.07098354 -59.9375 139.1875 C-64.43061138 134.56055126 -69.30050849 130.41993042 -74.1953125 126.2265625 C-75.01773438 125.51242187 -75.84015625 124.79828125 -76.6875 124.0625 C-77.450625 123.40636719 -78.21375 122.75023437 -79 122.07421875 C-80.6875 120.375 -80.6875 120.375 -80.6875 118.375 C-79.12695312 117.22998047 -79.12695312 117.22998047 -76.96875 115.9921875 C-76.20175781 115.54746094 -75.43476563 115.10273438 -74.64453125 114.64453125 C-73.83371094 114.18433594 -73.02289063 113.72414063 -72.1875 113.25 C-71.37667969 112.78207031 -70.56585938 112.31414062 -69.73046875 111.83203125 C-67.71987359 110.67298228 -65.70553239 109.52103529 -63.6875 108.375 C-60.49003905 110.18344469 -57.89195447 111.95190692 -55.375 114.625 C-51.66794208 118.44439301 -47.72043552 121.90621803 -43.6875 125.375 C-42.18638785 126.68622788 -40.68635314 127.99869046 -39.1875 129.3125 C-38.18203125 130.19228516 -38.18203125 130.19228516 -37.15625 131.08984375 C-36.6715625 131.51394531 -36.186875 131.93804687 -35.6875 132.375 C-32.15961126 131.03705293 -28.89619905 129.50581305 -25.625 127.625 C-24.78839844 127.15578125 -23.95179688 126.6865625 -23.08984375 126.203125 C-19.67791807 123.60673278 -17.13252151 120.71317172 -16.30738831 116.37786865 C-16.14681342 114.06212548 -16.10780798 111.77442596 -16.11328125 109.453125 C-16.09203438 108.16483795 -16.09203438 108.16483795 -16.07035828 106.8505249 C-16.02863053 104.10855747 -16.01329775 101.36723879 -16 98.625 C-15.96091676 95.04678377 -15.9117103 91.46872505 -15.86328125 87.890625 C-15.85354279 87.01651978 -15.84380432 86.14241455 -15.83377075 85.24182129 C-15.72078311 76.60272 -15.24885201 67.99515042 -14.6875 59.375 C-15.45964844 59.09011719 -16.23179687 58.80523437 -17.02734375 58.51171875 C-21.96099704 56.40350567 -25.26855431 52.30642451 -27.85180664 47.66967773 C-29.67537075 42.66246795 -29.21340007 37.25837862 -29.125 32 C-29.13208984 30.81921875 -29.13917969 29.6384375 -29.14648438 28.421875 C-29.08792447 20.33159891 -28.25788647 13.50597825 -23.9375 6.5625 C-16.62489707 -0.54697507 -9.77808761 -0.19108521 0 0 Z " fill="#072C76" transform="translate(294.6875,251.625)"/>
<path d="M0 0 C4.19514597 -0.02507213 8.39025006 -0.04303239 12.58544922 -0.05493164 C14.00700644 -0.05990212 15.42855872 -0.06668084 16.85009766 -0.07543945 C18.91570267 -0.08783017 20.98123908 -0.09330105 23.046875 -0.09765625 C24.90070801 -0.10551147 24.90070801 -0.10551147 26.79199219 -0.11352539 C32.21227997 -0.04580176 37.60524062 0.50473983 43 1 C42.98445572 1.77070831 42.96891144 2.54141663 42.95289612 3.33547974 C42.81163859 10.65964718 42.70556486 17.98313864 42.6373148 25.308321 C42.60104418 29.07284579 42.55199078 32.83622946 42.47192383 36.60009766 C42.39490489 40.24419951 42.35381394 43.88721618 42.3358593 47.53207016 C42.32309369 48.91063364 42.29817314 50.28914921 42.2598896 51.66724014 C41.96453255 62.75764279 44.5018847 69.62961454 50 79 C50.95628437 80.77555373 51.90799642 82.55359244 52.8515625 84.3359375 C53.77362252 86.0169542 54.69815186 87.69661853 55.625 89.375 C56.66963791 91.27844442 57.71389506 93.18209785 58.7578125 95.0859375 C59.29051758 96.0562793 59.82322266 97.02662109 60.37207031 98.02636719 C63.09923901 103.0079081 65.79882894 108.00432925 68.5 113 C72.65251631 120.67444247 76.8179809 128.34159553 81 136 C85.31864879 143.9133248 89.63399927 151.82842527 93.9375 159.75 C94.46923828 160.72582031 95.00097656 161.70164062 95.54882812 162.70703125 C97.04527943 165.46475014 98.52559351 168.23044236 100 171 C100.7271521 172.34179321 100.7271521 172.34179321 101.46899414 173.71069336 C105.36327348 181.11404274 106.63785747 187.31105889 104.265625 195.55078125 C101.03854439 203.42009666 96.50349573 208.27889245 88.8710022 211.95565796 C83.83849938 213.78625714 79.02736177 213.56606224 73.73046875 213.39453125 C72.467686 213.37413284 71.20490326 213.35373444 69.90385437 213.3327179 C66.96881245 213.28352948 64.03488373 213.21541931 61.1005249 213.13531494 C56.42973135 213.00786169 51.75864205 212.90868009 47.08709908 212.8131237 C34.54994034 212.55545361 22.01516012 212.23124836 9.48022461 211.88305664 C3.46041518 211.71646813 -2.55969493 211.566434 -8.58001995 211.41984844 C-13.26874335 211.30272806 -17.95708088 211.17358143 -22.64539528 211.04117775 C-24.86626271 210.98050956 -27.08725642 210.9242797 -29.30835533 210.87277794 C-32.40228022 210.79992537 -35.49527729 210.70994597 -38.58862305 210.6159668 C-39.93134529 210.59006721 -39.93134529 210.59006721 -41.30119324 210.56364441 C-50.56307771 210.24562294 -59.47207789 208.76980389 -66.2734375 202.06640625 C-71.88904872 195.34545979 -73.55216222 189.15221171 -73.6640625 180.46875 C-72.10902632 172.34597276 -67.06482242 165.23186568 -62.625 158.375 C-61.56053892 156.71005656 -60.49676989 155.04467051 -59.43359375 153.37890625 C-58.87526855 152.50637207 -58.31694336 151.63383789 -57.74169922 150.73486328 C-54.69248806 145.94690935 -51.69170799 141.12876996 -48.6875 136.3125 C-47.41018919 134.26690652 -46.13284516 132.22133377 -44.85546875 130.17578125 C-44.21786621 129.15436035 -43.58026367 128.13293945 -42.92333984 127.08056641 C-39.78410775 122.05253511 -36.64189186 117.02636951 -33.5 112 C-32.88656738 111.01837891 -32.27313477 110.03675781 -31.64111328 109.02539062 C-28.43012433 103.88713532 -25.21793665 98.74963472 -22.00390625 93.61328125 C-21.34390625 92.55818359 -20.68390625 91.50308594 -20.00390625 90.41601562 C-18.76080006 88.42879657 -17.51734334 86.44179673 -16.2734375 84.45507812 C-15.10627046 82.58892228 -13.95496574 80.7127591 -12.8190918 78.82739258 C-11 76 -11 76 -8.83129883 73.3815918 C-0.2416033 62.16531898 -1.6858888 48.71038715 -1.5625 35.1875 C-1.49134842 31.43383188 -1.40955862 27.68050267 -1.3266449 23.92707825 C-1.27934184 21.6044057 -1.24098255 19.28152785 -1.21302795 16.95854187 C-1.13635436 11.22025106 -0.85151065 5.67716707 0 0 Z " fill="#FDFDFE" transform="translate(301,313)"/>
<path d="M0 0 C0.63292969 0.68578125 1.26585937 1.3715625 1.91796875 2.078125 C5.98910275 6.30532657 11.25246859 8.87944673 16.3125 11.75 C17.38250244 12.36109619 18.45250488 12.97219238 19.55493164 13.60180664 C21.70424744 14.82881068 23.8548635 16.05354018 26.00683594 17.27587891 C28.63990208 18.79257655 31.23542595 20.35234558 33.8203125 21.94921875 C34.52631592 22.37557617 35.23231934 22.80193359 35.9597168 23.24121094 C37.22979663 24.009436 38.49020117 24.79402337 39.73754883 25.59863281 C43.83462471 28.0238701 46.99138882 28.47553093 51.57055664 27.73168945 C56.39386043 26.27902726 60.51303821 23.5404781 64.75 20.875 C66.5698479 19.73408554 68.39773403 18.60586704 70.234375 17.4921875 C71.03069336 16.99058105 71.82701172 16.48897461 72.64746094 15.97216797 C75.62278049 14.74264094 76.98370815 14.93544412 80 16 C81.98535156 17.45532227 81.98535156 17.45532227 83.890625 19.31640625 C84.59646729 19.99509766 85.30230957 20.67378906 86.02954102 21.37304688 C87.12866821 22.45682617 87.12866821 22.45682617 88.25 23.5625 C89.7634802 25.0230092 91.27779558 26.48265345 92.79296875 27.94140625 C93.51661621 28.64281738 94.24026367 29.34422852 94.98583984 30.06689453 C98.55581513 33.49320536 102.25991803 36.76072672 106 40 C105.83897797 40.55381851 105.67795593 41.10763702 105.51205444 41.67823792 C104.95009054 44.22629993 104.84441686 46.53924826 104.80712891 49.14819336 C104.79106598 50.17283188 104.77500305 51.1974704 104.75845337 52.25315857 C104.71388059 56.91672972 104.67297316 61.58016229 104.64990234 66.24389648 C104.6333122 68.70460446 104.60598254 71.16526366 104.56787109 73.62573242 C104.51318135 77.17652335 104.49124325 80.72618875 104.4765625 84.27734375 C104.44255844 85.92596657 104.44255844 85.92596657 104.40786743 87.6078949 C104.3800888 93.73276703 104.3800888 93.73276703 107.18774414 99.02441406 C109.91702629 100.94171167 112.60035603 102.71751535 115.51953125 104.33203125 C116.54111328 104.90244141 117.56269531 105.47285156 118.61523438 106.06054688 C119.67033203 106.63869141 120.72542969 107.21683594 121.8125 107.8125 C122.88693359 108.40998047 123.96136719 109.00746094 125.06835938 109.62304688 C127.70816623 111.08960624 130.3520176 112.54827061 133 114 C131.68971824 122.91875552 130.2456885 131.79289054 128.4375 140.625 C128.23576172 141.78128906 128.03402344 142.93757812 127.82617188 144.12890625 C126.1143918 152.25630528 126.1143918 152.25630528 123.22607422 154.18383789 C121.08203125 154.82421875 121.08203125 154.82421875 118.67797852 155.3203125 C113.07489634 156.74240939 108.18851077 160.26509476 103.25 163.1875 C102.09015698 163.86666476 100.92999907 164.54529205 99.76953125 165.22338867 C86.68720682 172.15084859 86.68720682 172.15084859 75 181 C74.7540591 183.9366021 74.62624748 186.78562112 74.5859375 189.7265625 C74.56657135 190.58937836 74.5472052 191.45219421 74.5272522 192.34115601 C74.46737796 195.10233616 74.42104002 197.86355784 74.375 200.625 C74.33682741 202.49481005 74.29777611 204.36460238 74.2578125 206.234375 C74.16167008 210.82277309 74.07766834 215.41125351 74 220 C71.01096443 216.073398 68.36203608 212.03505548 65.8125 207.8125 C65.34908203 207.11447266 64.88566406 206.41644531 64.40820312 205.69726562 C59.75464374 197.83624557 60.5750505 189.7771603 61 181 C61.07010339 179.20146764 61.13882039 177.40288081 61.20629883 175.60424805 C61.43279732 169.87998803 61.71375534 164.15903129 62 158.4375 C62.09672801 156.44337747 62.19308433 154.44923688 62.2890625 152.45507812 C62.52177216 147.63650046 62.75945821 142.81819277 63 138 C63.54994629 137.74025391 64.09989258 137.48050781 64.66650391 137.21289062 C65.74810791 136.68985352 65.74810791 136.68985352 66.8515625 136.15625 C67.56650879 135.81400391 68.28145508 135.47175781 69.01806641 135.11914062 C73.00152448 132.86979697 75.28845184 129.13624138 77 125 C77.66234471 120.02616612 77.80359982 115.01107599 78 110 C78.05099854 108.94353271 78.05099854 108.94353271 78.10302734 107.86572266 C78.67734019 96.32418539 78.67734019 96.32418539 74 86 C69.84545615 82.05318334 66.0758057 79.81015028 60.32788086 79.58935547 C58.93438667 79.52957268 58.93438667 79.52957268 57.51274109 79.46858215 C56.50693497 79.43512192 55.50112885 79.40166168 54.46484375 79.3671875 C53.41001297 79.32530807 52.35518219 79.28342865 51.26838684 79.24028015 C47.82506264 79.10750011 44.38146812 78.98979298 40.9375 78.875 C39.77005249 78.83430389 38.60260498 78.79360779 37.39978027 78.75167847 C29.2673233 78.47011446 21.1341626 78.22634378 13 78 C12.02081604 77.97145935 11.04163208 77.9429187 10.03277588 77.91351318 C5.0055652 77.76903474 -0.02031668 77.65238269 -5.04928589 77.59259033 C-6.5013486 77.5727363 -7.9533256 77.54471194 -9.40505981 77.50799561 C-16.65628896 77.33571904 -22.49770504 77.22480072 -28.53051758 81.57983398 C-34.12388559 86.98548637 -35.08416026 93.61945445 -35.2734375 101.078125 C-35.3132355 103.46865844 -35.34687413 105.85930074 -35.375 108.25 C-35.41238281 109.43980469 -35.44976562 110.62960937 -35.48828125 111.85546875 C-35.56084874 119.1525327 -35.05749977 125.36036565 -30 131 C-28.58078296 131.6850766 -27.14170154 132.33020697 -25.6875 132.9375 C-23.58911133 134.09790039 -23.58911133 134.09790039 -22 136 C-21.71365626 138.74471889 -21.65080379 141.13749994 -21.76171875 143.87109375 C-21.79671595 145.50560649 -21.83128517 147.14012845 -21.86547852 148.7746582 C-21.88957794 149.63096832 -21.91367737 150.48727844 -21.93850708 151.36953735 C-22.01986507 154.84976161 -22.01296323 158.32752317 -22.00694275 161.80851746 C-22.00811135 165.35132577 -22.05101076 168.89308095 -22.09765625 172.43554688 C-22.11606665 174.24634116 -22.12334055 176.05727906 -22.12011719 177.86816406 C-22.1003169 196.34183077 -22.1003169 196.34183077 -27.31542969 201.65478516 C-29.84217336 203.67251815 -32.25334796 205.50837831 -35.0625 207.125 C-36.56490234 208.02605469 -36.56490234 208.02605469 -38.09765625 208.9453125 C-41 210 -41 210 -43.5390625 209.50390625 C-46.61344877 207.62511464 -48.82650737 205.42081355 -51.3125 202.8125 C-57.19120985 196.74418637 -63.34118949 191.20219571 -70 186 C-69.83865067 185.44618149 -69.67730133 184.89236298 -69.51106262 184.32176208 C-68.94961837 181.77111579 -68.85156811 179.46325625 -68.82299805 176.85180664 C-68.81016281 175.82716812 -68.79732758 174.8025296 -68.78410339 173.74684143 C-68.77671646 172.64573532 -68.76932953 171.54462921 -68.76171875 170.41015625 C-68.753647 169.27348007 -68.74557526 168.13680389 -68.73725891 166.96568298 C-68.72343623 164.56250528 -68.71270597 162.15930808 -68.70483398 159.75610352 C-68.68758149 156.0798651 -68.64367314 152.40451689 -68.59960938 148.72851562 C-68.58948555 146.39323577 -68.58096848 144.05794829 -68.57421875 141.72265625 C-68.55671066 140.62357437 -68.53920258 139.52449249 -68.52116394 138.3921051 C-68.51391164 132.43336435 -68.51391164 132.43336435 -70.67407227 126.98925781 C-73.21994969 124.81188726 -75.72760681 123.10715995 -78.640625 121.44921875 C-79.71054688 120.83369141 -80.78046875 120.21816406 -81.8828125 119.58398438 C-82.99398437 118.95814453 -84.10515625 118.33230469 -85.25 117.6875 C-86.93996094 116.71973633 -86.93996094 116.71973633 -88.6640625 115.73242188 C-91.43767528 114.14582134 -94.2162813 112.56877986 -97 111 C-96.02580855 103.94621655 -94.81481957 96.94918378 -93.42822266 89.96484375 C-93.14190731 88.48396987 -92.87080992 87.00007533 -92.61474609 85.51367188 C-90.47128042 73.14857127 -90.47128042 73.14857127 -87.21240234 70.60449219 C-85.0859375 69.96875 -85.0859375 69.96875 -82.69824219 69.56542969 C-77.48323738 68.47260023 -72.98894236 65.35560802 -68.38964844 62.74951172 C-66.6393671 61.75813764 -64.88291289 60.77854656 -63.125 59.80078125 C-56.64052415 56.16332697 -50.32066094 52.36650176 -44.12255859 48.25878906 C-42 47 -42 47 -40 47 C-38.8513433 43.28832638 -38.79457567 39.69663773 -38.68359375 35.828125 C-38.66281265 35.1457074 -38.64203156 34.46328979 -38.62062073 33.76019287 C-38.55547948 31.59022644 -38.49640596 29.42014376 -38.4375 27.25 C-38.39428103 25.77472779 -38.35066568 24.29946713 -38.30664062 22.82421875 C-38.19983482 19.21626834 -38.09846847 15.60818867 -38 12 C-31.26466847 9.37881934 -24.42467917 7.13516693 -17.54345703 4.9284668 C-15.60722765 4.30679376 -13.67273519 3.67990727 -11.73828125 3.05273438 C-10.51753906 2.66021484 -9.29679687 2.26769531 -8.0390625 1.86328125 C-6.92740723 1.50532471 -5.81575195 1.14736816 -4.67041016 0.77856445 C-2 0 -2 0 0 0 Z " fill="#FDFDFE" transform="translate(302,175)"/>
<path d="M0 0 C3.84632132 1.63282303 7.36350999 3.7193597 10.9375 5.875 C12.44244019 6.7565979 12.44244019 6.7565979 13.9777832 7.65600586 C16.01738334 8.85289793 18.05283552 10.05688777 20.08398438 11.26806641 C22.75545711 12.85475659 25.44198179 14.40933599 28.140625 15.94921875 C29.65652963 16.81982578 31.1721726 17.69088865 32.6875 18.5625 C33.37513428 18.9548584 34.06276855 19.3472168 34.77124023 19.75146484 C38.96404195 22.20332736 42.78075318 24.56150636 45 29 C45.10043927 30.64331622 45.13834662 32.29064347 45.14526367 33.93701172 C45.15164352 34.96502899 45.15802338 35.99304626 45.16459656 37.05221558 C45.16626579 38.72406418 45.16626579 38.72406418 45.16796875 40.4296875 C45.17129715 41.57156525 45.17462555 42.71344299 45.17805481 43.8899231 C45.18312509 46.30926103 45.1854631 48.72860598 45.18530273 51.14794922 C45.18748683 54.85265627 45.20563516 58.55706452 45.22460938 62.26171875 C45.22754372 64.60937398 45.22952824 66.95703063 45.23046875 69.3046875 C45.23765427 70.41520477 45.24483978 71.52572205 45.25224304 72.66989136 C45.24916641 73.70421295 45.24608978 74.73853455 45.24291992 75.80419922 C45.24434494 76.71305878 45.24576996 77.62191833 45.24723816 78.55831909 C44.98114363 81.18622223 44.40400487 82.77578387 43 85 C40.83959961 86.58056641 40.83959961 86.58056641 38.15234375 88.1015625 C37.16234375 88.66979736 36.17234375 89.23803223 35.15234375 89.82348633 C34.09144531 90.41798584 33.03054687 91.01248535 31.9375 91.625 C29.74826084 92.8703257 27.55946126 94.11642447 25.37109375 95.36328125 C24.28940918 95.9763916 23.20772461 96.58950195 22.09326172 97.22119141 C19.33612051 98.80671081 16.61668948 100.43550338 13.91015625 102.10546875 C13.15677979 102.56679199 12.40340332 103.02811523 11.62719727 103.50341797 C10.25541248 104.34761744 8.88948355 105.20144402 7.53100586 106.06689453 C2.98285926 108.83285945 -0.68241919 109.64118094 -6 110 C-6.07476562 110.72058594 -6.14953125 111.44117188 -6.2265625 112.18359375 C-7.75727661 124.68442569 -10.94507249 136.80040709 -14 149 C-13.26716797 149.28069336 -12.53433594 149.56138672 -11.77929688 149.85058594 C-7.48253668 151.62756652 -3.53255191 153.94656682 0.5 156.25 C1.34175781 156.71535156 2.18351562 157.18070313 3.05078125 157.66015625 C4.27861328 158.36205078 4.27861328 158.36205078 5.53125 159.078125 C6.63823242 159.70315918 6.63823242 159.70315918 7.76757812 160.34082031 C11.71290719 163.27306619 14.55338203 165.58386082 15.46380615 170.50912476 C15.6621164 173.61220767 15.69291322 176.67583791 15.6640625 179.78515625 C15.66884613 180.91900253 15.67362976 182.05284882 15.67855835 183.22105408 C15.68195348 185.61230867 15.67277837 188.00360992 15.65185547 190.39477539 C15.62506261 194.05394889 15.65163243 197.71006163 15.68359375 201.36914062 C15.68029007 203.69531926 15.67388472 206.021496 15.6640625 208.34765625 C15.67924423 209.9868679 15.67924423 209.9868679 15.69473267 211.65919495 C15.57775974 219.23930194 15.57775974 219.23930194 12.64135742 223.10546875 C9.71754346 225.20259384 6.7984591 227.125465 3.6875 228.9375 C2.75514526 229.48470703 2.75514526 229.48470703 1.80395508 230.04296875 C0.37785047 230.87832397 -1.05045441 231.70992974 -2.48046875 232.53857422 C-5.40876236 234.23709801 -8.32941704 235.94840927 -11.25 237.66015625 C-15.52504294 240.16281444 -19.80140438 242.6631528 -24.08203125 245.15625 C-24.98155518 245.68025391 -25.8810791 246.20425781 -26.80786133 246.74414062 C-30.83189675 249.04947955 -33.28622767 249.32458187 -38 249 C-41.11108398 247.68994141 -41.11108398 247.68994141 -44.24609375 245.8515625 C-45.09961678 245.35905502 -45.09961678 245.35905502 -45.97038269 244.8565979 C-47.80196485 243.79432423 -49.6197435 242.71073344 -51.4375 241.625 C-52.69329409 240.88805327 -53.94964472 240.15205412 -55.20654297 239.41699219 C-58.8167464 237.29842549 -62.40864661 235.15035587 -66 233 C-66.93505371 232.44731445 -67.87010742 231.89462891 -68.83349609 231.32519531 C-71.10607749 229.98062549 -73.3684285 228.62122453 -75.625 227.25 C-76.26236084 226.86924316 -76.89972168 226.48848633 -77.55639648 226.09619141 C-80.82674548 224.05665855 -82.60683066 222.58911165 -84 219 C-84.27415466 216.62319946 -84.27415466 216.62319946 -84.30639648 213.95947266 C-84.32238388 212.95808258 -84.33837128 211.9566925 -84.35484314 210.92495728 C-84.36020584 209.848862 -84.36556854 208.77276672 -84.37109375 207.6640625 C-84.38012222 206.55195404 -84.3891507 205.43984558 -84.39845276 204.29403687 C-84.41295584 201.94214572 -84.42184213 199.59021421 -84.42553711 197.23828125 C-84.43743332 193.64514013 -84.48662133 190.05371624 -84.53710938 186.4609375 C-84.54657374 184.17448754 -84.55380871 181.88802704 -84.55859375 179.6015625 C-84.58789223 177.99349228 -84.58789223 177.99349228 -84.61778259 176.35293579 C-84.56753147 168.02124122 -84.56753147 168.02124122 -81.84765625 164.51269531 C-78.9677067 161.97150526 -76.23409582 160.06035732 -72.87890625 158.1953125 C-72.00708961 157.70380203 -72.00708961 157.70380203 -71.11766052 157.20236206 C-69.27206693 156.16513202 -67.41779931 155.14474725 -65.5625 154.125 C-64.35418845 153.45034451 -63.14650117 152.77456971 -61.93945312 152.09765625 C-60.1295898 151.08317132 -58.31849761 150.07146639 -56.50186157 149.06915283 C-53.35216902 147.33033977 -50.23237963 145.55587901 -47.14404297 143.70996094 C-46.20273781 143.15294998 -46.20273781 143.15294998 -45.24241638 142.58468628 C-43.50335734 141.55216189 -41.77087086 140.50859065 -40.03881836 139.46435547 C-37.00227078 138.00109425 -35.30878261 137.6560805 -32 138 C-31.98582031 137.44957031 -31.97164062 136.89914062 -31.95703125 136.33203125 C-31.50758925 128.4971639 -29.72113967 121.10972638 -27.81567383 113.52661133 C-26.60509319 108.68742615 -25.59559051 103.95423015 -25 99 C-25.63808594 98.77054687 -26.27617187 98.54109375 -26.93359375 98.3046875 C-31.13375049 96.51761444 -35.07190897 94.33447978 -39.0625 92.125 C-40.26616211 91.47337891 -40.26616211 91.47337891 -41.49414062 90.80859375 C-50.61671266 85.76657468 -50.61671266 85.76657468 -53 81 C-53.11570235 79.33179145 -53.16954908 77.65911404 -53.19287109 75.98706055 C-53.20893402 74.94225021 -53.22499695 73.89743988 -53.24154663 72.82096863 C-53.28593806 68.04056394 -53.3270588 63.26029884 -53.35009766 58.47973633 C-53.36666456 55.95685608 -53.39396384 53.43402291 -53.43212891 50.91137695 C-53.48683189 47.2779093 -53.50876249 43.64554247 -53.5234375 40.01171875 C-53.54610687 38.88448898 -53.56877625 37.75725922 -53.59213257 36.59587097 C-53.57104508 28.79532706 -53.57104508 28.79532706 -50.82250977 24.96728516 C-48.03111803 23.02168922 -45.27822978 21.18826424 -42.31640625 19.51171875 C-41.23020996 18.89111572 -40.14401367 18.2705127 -39.02490234 17.63110352 C-37.88230957 16.98971436 -36.7397168 16.3483252 -35.5625 15.6875 C-34.38201389 15.0199984 -33.20183906 14.35194599 -32.02197266 13.68334961 C-29.71570857 12.37663029 -27.4079296 11.0727432 -25.09912109 9.77050781 C-22.52442563 8.29960097 -19.98258443 6.79519308 -17.45703125 5.2421875 C-16.83304443 4.86360596 -16.20905762 4.48502441 -15.56616211 4.0949707 C-14.01445527 3.14763878 -12.47160331 2.18584239 -10.9296875 1.22265625 C-7.10948866 -0.37164007 -4.02015951 -0.838259 0 0 Z " fill="#082C75" transform="translate(219,137)"/>
<path d="M0 0 C2.70629883 1.12646484 2.70629883 1.12646484 5.45703125 2.7109375 C6.47958008 3.29166016 7.50212891 3.87238281 8.55566406 4.47070312 C9.63041992 5.09912109 10.70517578 5.72753906 11.8125 6.375 C12.91948242 7.01115234 14.02646484 7.64730469 15.16699219 8.30273438 C17.40114078 9.58919976 19.6321441 10.88114385 21.85986328 12.17871094 C24.64224379 13.79250029 27.43839513 15.37615932 30.24609375 16.9453125 C31.74781928 17.79612803 33.24915382 18.64763424 34.75 19.5 C35.42135986 19.8717334 36.09271973 20.2434668 36.78442383 20.62646484 C37.40728271 20.98691895 38.0301416 21.34737305 38.671875 21.71875 C39.1987793 22.01716797 39.72568359 22.31558594 40.26855469 22.62304688 C43.90876 25.51796481 46.57704532 27.8109535 47.47512817 32.45907593 C47.67832432 35.48204395 47.71913178 38.46631317 47.69921875 41.49609375 C47.70637405 42.60300064 47.71352936 43.70990753 47.72090149 44.85035706 C47.72866942 47.18611853 47.72368574 49.52195275 47.70678711 51.85766602 C47.68757927 55.42278712 47.72694556 58.98400027 47.77148438 62.54882812 C47.77177478 64.82291898 47.76863355 67.09701339 47.76171875 69.37109375 C47.78464241 70.96201088 47.78464241 70.96201088 47.80802917 72.58506775 C47.71315822 78.64051451 47.03901011 82.30778538 42.64894104 86.63594055 C40.37694785 88.51540968 38.10498831 90.03015172 35.5078125 91.4296875 C34.48018799 91.99349121 33.45256348 92.55729492 32.39379883 93.13818359 C30.77574341 93.99790771 30.77574341 93.99790771 29.125 94.875 C26.88121202 96.09320054 24.63772251 97.311951 22.39453125 98.53125 C21.30350098 99.1190625 20.2124707 99.706875 19.08837891 100.3125 C16.36664413 101.79966449 13.68270132 103.33033155 11.01171875 104.90625 C9.92963135 105.54071045 9.92963135 105.54071045 8.82568359 106.18798828 C7.52765039 106.95333359 6.23455825 107.72715251 4.94775391 108.51123047 C1.05254808 110.77624076 -1.53208921 111.40564423 -6 111 C-8.99755859 109.68994141 -8.99755859 109.68994141 -12.1484375 107.8515625 C-13.00408295 107.35898705 -13.00408295 107.35898705 -13.87701416 106.85646057 C-15.71751177 105.79216019 -17.54630146 104.70942739 -19.375 103.625 C-20.63545412 102.88895724 -21.8963611 102.15368947 -23.15771484 101.41918945 C-26.78434189 99.30015562 -30.39382449 97.15365938 -34 95 C-34.93650391 94.44199707 -35.87300781 93.88399414 -36.83789062 93.30908203 C-39.10847244 91.94806858 -41.37007998 90.57427312 -43.625 89.1875 C-44.26228027 88.79836426 -44.89956055 88.40922852 -45.55615234 88.00830078 C-48.45983586 86.18132831 -50.06233699 84.90649452 -52 82 C-52.28088379 79.71221924 -52.28088379 79.71221924 -52.32226562 76.99707031 C-52.34148071 75.97881165 -52.3606958 74.96055298 -52.38049316 73.91143799 C-52.3932428 72.26144806 -52.3932428 72.26144806 -52.40625 70.578125 C-52.41765015 69.44477722 -52.42905029 68.31142944 -52.4407959 67.14373779 C-52.45970033 64.74299862 -52.47276564 62.34220749 -52.48046875 59.94140625 C-52.49985335 56.27771721 -52.56187607 52.61628575 -52.625 48.953125 C-52.63806329 46.61980498 -52.64856297 44.28646892 -52.65625 41.953125 C-52.6809436 40.86122864 -52.70563721 39.76933228 -52.7310791 38.64434814 C-52.70129183 33.52843464 -52.55213488 29.96436601 -49.22509766 25.91967773 C-46.92651882 23.66922531 -44.61753558 21.80449598 -41.7421875 20.33203125 C-40.57067139 19.7129187 -40.57067139 19.7129187 -39.37548828 19.08129883 C-38.55032715 18.66259521 -37.72516602 18.2438916 -36.875 17.8125 C-28.56198531 13.44851566 -20.5282262 8.77906897 -12.62451172 3.70825195 C-11.84350098 3.22316162 -11.06249023 2.73807129 -10.2578125 2.23828125 C-9.5786377 1.80555908 -8.89946289 1.37283691 -8.19970703 0.92700195 C-5.26051993 -0.31163217 -3.16829224 -0.31871586 0 0 Z " fill="#082D77" transform="translate(458,189)"/>
<path d="M0 0 C3.84632132 1.63282303 7.36350999 3.7193597 10.9375 5.875 C12.44244019 6.7565979 12.44244019 6.7565979 13.9777832 7.65600586 C16.01738334 8.85289793 18.05283552 10.05688777 20.08398438 11.26806641 C22.75545711 12.85475659 25.44198179 14.40933599 28.140625 15.94921875 C29.65652963 16.81982578 31.1721726 17.69088865 32.6875 18.5625 C33.37513428 18.9548584 34.06276855 19.3472168 34.77124023 19.75146484 C38.96404195 22.20332736 42.78075318 24.56150636 45 29 C45.10043927 30.64331622 45.13834662 32.29064347 45.14526367 33.93701172 C45.15164352 34.96502899 45.15802338 35.99304626 45.16459656 37.05221558 C45.16570938 38.16678131 45.1668222 39.28134705 45.16796875 40.4296875 C45.17296135 42.14250412 45.17296135 42.14250412 45.17805481 43.8899231 C45.18312509 46.30926103 45.1854631 48.72860598 45.18530273 51.14794922 C45.18748683 54.85265627 45.20563516 58.55706452 45.22460938 62.26171875 C45.22754372 64.60937398 45.22952824 66.95703063 45.23046875 69.3046875 C45.23765427 70.41520477 45.24483978 71.52572205 45.25224304 72.66989136 C45.24916641 73.70421295 45.24608978 74.73853455 45.24291992 75.80419922 C45.24434494 76.71305878 45.24576996 77.62191833 45.24723816 78.55831909 C44.98114363 81.18622223 44.40400487 82.77578387 43 85 C40.83959961 86.58056641 40.83959961 86.58056641 38.15234375 88.1015625 C36.6667395 88.95391479 36.6667395 88.95391479 35.15112305 89.82348633 C34.09062744 90.41798584 33.03013184 91.01248535 31.9375 91.625 C29.75497594 92.87068667 27.5726858 94.11678327 25.390625 95.36328125 C24.30974609 95.9763916 23.22886719 96.58950195 22.11523438 97.22119141 C17.06792633 100.10322012 12.07863957 103.08219422 7.09155273 106.06689453 C1.78453873 109.21244034 -1.78686175 110.41542052 -8 110 C-10.91162109 108.78173828 -10.91162109 108.78173828 -13.7734375 107.0703125 C-14.83820313 106.44423096 -15.90296875 105.81814941 -17 105.1730957 C-18.11375 104.49722412 -19.2275 103.82135254 -20.375 103.125 C-21.53308172 102.43514368 -22.69194237 101.74659334 -23.8515625 101.05932617 C-26.16014587 99.68903625 -28.46337906 98.31088507 -30.76464844 96.92822266 C-33.62886311 95.22119221 -36.51047988 93.55680404 -39.4140625 91.91796875 C-40.19990723 91.47114746 -40.98575195 91.02432617 -41.79541016 90.56396484 C-43.22626524 89.75172086 -44.66066099 88.94567102 -46.09912109 88.14697266 C-49.59651799 86.1301075 -51.56832611 84.78610933 -53 81 C-53.27415466 78.5405426 -53.27415466 78.5405426 -53.30639648 75.76000977 C-53.32238388 74.71535049 -53.33837128 73.67069122 -53.35484314 72.59437561 C-53.36020584 71.47139572 -53.36556854 70.34841583 -53.37109375 69.19140625 C-53.38012222 68.03253403 -53.3891507 66.8736618 -53.39845276 65.67967224 C-53.41295662 63.22942693 -53.42184232 60.77914287 -53.42553711 58.32885742 C-53.43744472 54.57990426 -53.48664216 50.83259075 -53.53710938 47.08398438 C-53.54657226 44.70313303 -53.55380794 42.32227159 -53.55859375 39.94140625 C-53.57812607 38.82045059 -53.59765839 37.69949493 -53.61778259 36.54457092 C-53.57283697 28.79586355 -53.57283697 28.79586355 -50.8203125 24.97167969 C-48.03076696 23.02150917 -45.27917653 21.18880015 -42.31640625 19.51171875 C-41.23020996 18.89111572 -40.14401367 18.2705127 -39.02490234 17.63110352 C-37.88230957 16.98971436 -36.7397168 16.3483252 -35.5625 15.6875 C-34.38201389 15.0199984 -33.20183906 14.35194599 -32.02197266 13.68334961 C-29.71570857 12.37663029 -27.4079296 11.0727432 -25.09912109 9.77050781 C-22.52442563 8.29960097 -19.98258443 6.79519308 -17.45703125 5.2421875 C-16.83304443 4.86360596 -16.20905762 4.48502441 -15.56616211 4.0949707 C-14.01445527 3.14763878 -12.47160331 2.18584239 -10.9296875 1.22265625 C-7.10948866 -0.37164007 -4.02015951 -0.838259 0 0 Z " fill="#062B75" transform="translate(219,137)"/>
<path d="M0 0 C5.70643537 0.83162506 11.35142249 1.83996834 17 3 C18.74216797 3.33644531 18.74216797 3.33644531 20.51953125 3.6796875 C24.57934476 4.85750246 27.73607319 6.03071687 30.1015625 9.71630859 C31.97474395 13.40279403 33.44617394 17.22690921 34.94140625 21.078125 C39.59139268 32.80840436 47.8319642 43.49294194 56 53 C56.6909375 53.8353125 57.381875 54.670625 58.09375 55.53125 C61.59879017 59.66405856 63.87938241 62.08395192 69 64 C71.0625 66.3125 71.0625 66.3125 73 69 C75.93604935 73.0229841 79.19529601 75.91633104 83.25 78.75 C83.8577124 79.17829102 84.4654248 79.60658203 85.09155273 80.04785156 C96.04735946 87.62010399 107.81081908 93.67766929 120 99 C120 99.33 120 99.66 120 100 C94.48138198 100.27945697 68.98698163 99.59215314 43.48022461 98.88305664 C37.46041518 98.71646813 31.44030507 98.566434 25.41998005 98.41984844 C20.73125665 98.30272806 16.04291912 98.17358143 11.35460472 98.04117775 C9.13373729 97.98050956 6.91274358 97.9242797 4.69164467 97.87277794 C1.59771978 97.79992537 -1.49527729 97.70994597 -4.58862305 97.6159668 C-5.48377121 97.59870041 -6.37891937 97.58143402 -7.30119324 97.56364441 C-16.56307771 97.24562294 -25.47207789 95.76980389 -32.2734375 89.06640625 C-37.88904872 82.34545979 -39.55216222 76.15221171 -39.6640625 67.46875 C-38.10905626 59.34612918 -33.06497781 52.23161704 -28.625 45.375 C-27.57091057 43.72701259 -26.5175625 42.07855082 -25.46484375 40.4296875 C-24.62928955 39.12402832 -24.62928955 39.12402832 -23.77685547 37.79199219 C-20.54641834 32.71597144 -17.37000975 27.60615303 -14.1875 22.5 C-9.49694464 14.97502498 -4.77278206 7.47313593 0 0 Z " fill="#92B1F3" transform="translate(267,426)"/>
<path d="M0 0 C4.14020534 4.61754666 6.6623177 9.88604135 9.4375 15.375 C14.26374483 24.79342584 19.33000739 34.0392607 24.63452148 43.19677734 C30.19061939 52.86251848 34.50974934 60.56250498 33 72 C30.94423775 79.18967117 26.95124831 85.25217726 20.6875 89.4375 C16.67761275 91.43251956 13.25744296 91.08565934 9 90 C5.49072803 88.59162892 2.19627203 86.86494587 -1.125 85.0625 C-2.0442627 84.57177002 -2.96352539 84.08104004 -3.91064453 83.57543945 C-11.7527913 79.30469874 -18.97668906 74.50030014 -26 69 C-26.74765625 68.42378906 -27.4953125 67.84757812 -28.265625 67.25390625 C-31.07839394 64.97887255 -33.0903205 62.86041377 -35.0625 59.8125 C-36.7811977 56.82131781 -36.7811977 56.82131781 -39.796875 55.6484375 C-56.33522973 47.13723543 -70.76619537 19.78560523 -76.40625 2.9140625 C-76.6021875 2.28242188 -76.798125 1.65078125 -77 1 C-71.21557589 2.23274612 -65.5460837 3.64932397 -59.87109375 5.31640625 C-39.48636801 10.16991238 -19.68262762 5.49996829 0 0 Z " fill="#D1DBFC" transform="translate(373,434)"/>
<path d="M0 0 C1.91878091 1.04220207 3.81883121 2.11932391 5.703125 3.22265625 C6.7653125 3.84333984 7.8275 4.46402344 8.921875 5.10351562 C10.02015625 5.74998047 11.1184375 6.39644531 12.25 7.0625 C13.36375 7.71283203 14.4775 8.36316406 15.625 9.03320312 C23.85688973 13.85688973 23.85688973 13.85688973 25 15 C28.1888982 42.21193134 28.1888982 42.21193134 23.71679688 50.32910156 C20.40032044 53.60011974 16.41339242 55.00265648 12.01416016 56.3125 C8.79555613 57.41111684 6.26674367 59.24595515 3.4375 61.125 C-1.17489498 64.0690819 -1.17489498 64.0690819 -4.80517578 63.76513672 C-8.27494702 62.93415223 -10.73828529 61.69449639 -13.80078125 59.875 C-14.85974609 59.25109375 -15.91871094 58.6271875 -17.00976562 57.984375 C-18.09966797 57.32953125 -19.18957031 56.6746875 -20.3125 56 C-21.42173828 55.34515625 -22.53097656 54.6903125 -23.67382812 54.015625 C-31.80333647 49.19666353 -31.80333647 49.19666353 -33 48 C-33.38775295 43.39017132 -33.48513636 38.77927862 -33.56982422 34.1550293 C-33.60640975 32.60176298 -33.66091001 31.0488085 -33.73388672 29.49682617 C-34.32678114 16.69495151 -34.32678114 16.69495151 -31.29492188 12.82177734 C-28.93830561 11.23535458 -26.60449051 10.12864525 -24 9 C-22.3666487 8.00100588 -20.74667121 6.97982496 -19.140625 5.9375 C-17.5122603 4.95527041 -15.88204448 3.97610316 -14.25 3 C-13.42628906 2.48566406 -12.60257812 1.97132813 -11.75390625 1.44140625 C-10.95339844 0.96574219 -10.15289062 0.49007813 -9.328125 0 C-8.6155957 -0.433125 -7.90306641 -0.86625 -7.16894531 -1.3125 C-4.10478644 -2.28375972 -2.82451403 -1.4487901 0 0 Z " fill="#FA7C9F" transform="translate(429,352)"/>
<path d="M0 0 C3.01602304 1.03483944 5.57869862 2.54590753 8.33300781 4.15258789 C9.90163574 5.0624646 9.90163574 5.0624646 11.50195312 5.99072266 C12.82291992 6.76472412 14.14388672 7.53872559 15.50488281 8.33618164 C19.71238281 10.79055664 23.91988281 13.24493164 28.25488281 15.77368164 C28.25488281 26.99368164 28.25488281 38.21368164 28.25488281 49.77368164 C21.51050781 53.79555664 21.51050781 53.79555664 14.62988281 57.89868164 C13.22270996 58.75220215 11.81553711 59.60572266 10.36572266 60.48510742 C9.24375488 61.13979004 8.12178711 61.79447266 6.96582031 62.46899414 C6.3919458 62.82469482 5.81807129 63.18039551 5.22680664 63.546875 C2.17836115 65.29236635 0.68031185 65.86623422 -2.79980469 65.10913086 C-3.77175781 64.66843262 -4.74371094 64.22773438 -5.74511719 63.77368164 C-6.69692871 63.45270508 -7.64874023 63.13172852 -8.62939453 62.80102539 C-16.53643554 59.88150256 -24.50974335 56.61610927 -29.74511719 49.77368164 C-33.40749983 39.35708592 -31.15078956 26.47301098 -29.74511719 15.77368164 C-26.07936448 13.65502403 -22.41317666 11.53712196 -18.74658203 9.41992188 C-17.49906593 8.69942695 -16.25166939 7.97872497 -15.00439453 7.2578125 C-13.21255311 6.22219373 -11.42028435 5.18731807 -9.62792969 4.15258789 C-8.00975342 3.21781616 -8.00975342 3.21781616 -6.35888672 2.26416016 C-1.94582648 -0.25234767 -1.94582648 -0.25234767 0 0 Z " fill="#AFD752" transform="translate(215.7451171875,159.226318359375)"/>
<path d="M0 0 C1.93735837 0.97245638 3.83688591 2.02219426 5.703125 3.125 C6.7653125 3.74890625 7.8275 4.3728125 8.921875 5.015625 C10.56929687 5.99789063 10.56929687 5.99789063 12.25 7 C13.36375 7.65484375 14.4775 8.3096875 15.625 8.984375 C23.8234747 13.8234747 23.8234747 13.8234747 25 15 C26.72624811 25.51860513 28.67098171 38.75740582 25 49 C19.12362074 56.5997647 9.817291 59.90474162 1 63 C0.14067871 63.40927734 -0.71864258 63.81855469 -1.60400391 64.24023438 C-4 65 -4 65 -6.0612793 64.40429688 C-6.72554932 64.01306641 -7.38981934 63.62183594 -8.07421875 63.21875 C-8.82509766 62.78820312 -9.57597656 62.35765625 -10.34960938 61.9140625 C-11.12111328 61.44742188 -11.89261719 60.98078125 -12.6875 60.5 C-13.43966797 60.06429687 -14.19183594 59.62859375 -14.96679688 59.1796875 C-16.51674788 58.27741815 -18.05198904 57.34946579 -19.57250977 56.3984375 C-21.99489298 54.92298225 -21.99489298 54.92298225 -24.76928711 53.9140625 C-27.84464758 52.57172811 -29.74762189 51.50504606 -32 49 C-33.29400163 44.06080424 -33.4006082 39.43285857 -33.2487793 34.35058594 C-33.18753854 32.00147842 -33.22783459 29.6693565 -33.27929688 27.3203125 C-33.29804134 16.62587861 -33.29804134 16.62587861 -30.23779297 12.79272461 C-27.89630263 11.20434969 -25.60099427 10.10654034 -23 9 C-21.4423728 8.08180269 -19.89521021 7.14560696 -18.359375 6.19140625 C-16.82515982 5.31118279 -15.28869797 4.43486351 -13.75 3.5625 C-12.97398437 3.10423828 -12.19796875 2.64597656 -11.3984375 2.17382812 C-10.26535156 1.5328418 -10.26535156 1.5328418 -9.109375 0.87890625 C-8.43874023 0.4929126 -7.76810547 0.10691895 -7.07714844 -0.29077148 C-4.28406867 -1.24444999 -2.80854243 -0.87806515 0 0 Z " fill="#FBCA50" transform="translate(188,299)"/>
<path d="M0 0 C8.24502421 3.28434929 16.59606607 6.88859934 22.13745117 14.04907227 C25.90295487 24.44265106 23.60832604 37.36011149 22.13745117 48.04907227 C18.51155306 50.17332426 14.88193843 52.29103421 11.2487793 54.40283203 C10.01401946 55.12175896 8.78028258 55.8424459 7.54760742 56.56494141 C5.77294339 57.60469416 3.99466531 58.63800774 2.21557617 59.67016602 C1.14726562 60.29334717 0.07895508 60.91652832 -1.02172852 61.55859375 C-5.32095677 63.81424762 -5.32095677 63.81424762 -7.86254883 64.04907227 C-9.71850586 63.33984375 -9.71850586 63.33984375 -11.62036133 62.17016602 C-12.68383789 61.52917969 -12.68383789 61.52917969 -13.76879883 60.87524414 C-14.50098633 60.41698242 -15.23317383 59.9587207 -15.98754883 59.48657227 C-17.05102539 58.83978516 -17.05102539 58.83978516 -18.13598633 58.17993164 C-19.60762027 57.28398184 -21.06671375 56.36716262 -22.51367188 55.43188477 C-24.86282579 53.96807559 -24.86282579 53.96807559 -27.59619141 52.96313477 C-30.66178291 51.61709155 -32.59123123 50.5264481 -34.86254883 48.04907227 C-36.24927005 43.15052019 -36.42985032 38.57747033 -36.33105469 33.50952148 C-36.30010672 31.1784332 -36.3915097 28.87378122 -36.4934082 26.54516602 C-36.55944033 22.04227833 -36.25513161 18.36483703 -34.86254883 14.04907227 C-31.00274706 10.2454946 -26.77904922 8.22630203 -21.86254883 6.04907227 C-20.46096536 5.22035646 -19.07154182 4.36997525 -17.70629883 3.48266602 C-16.60286133 2.82395508 -15.49942383 2.16524414 -14.36254883 1.48657227 C-12.67645508 0.46370117 -12.67645508 0.46370117 -10.95629883 -0.57983398 C-6.67926355 -2.47533826 -4.33371547 -1.43964364 0 0 Z " fill="#FB8E01" transform="translate(356.862548828125,117.950927734375)"/>
<path d="M0 0 C1.93735837 0.97245638 3.83688591 2.02219426 5.703125 3.125 C6.7653125 3.74890625 7.8275 4.3728125 8.921875 5.015625 C10.56929688 5.99789062 10.56929688 5.99789062 12.25 7 C13.36375 7.65484375 14.4775 8.3096875 15.625 8.984375 C23.8234747 13.8234747 23.8234747 13.8234747 25 15 C25.08847743 17.52094076 25.11527301 20.01430893 25.09765625 22.53515625 C25.0962413 23.28840683 25.09482635 24.04165741 25.09336853 24.81773376 C25.08775376 27.2326956 25.07519883 29.64756601 25.0625 32.0625 C25.0574869 33.69596221 25.05292366 35.32942586 25.04882812 36.96289062 C25.03777954 40.97529585 25.02050506 44.98763241 25 49 C21.51352184 50.95837843 18.02636095 52.91553502 14.53857422 54.87158203 C13.35316636 55.53661429 12.1679427 56.20197499 10.98291016 56.86767578 C9.27555504 57.82671909 7.56747295 58.78446784 5.859375 59.7421875 C4.83295898 60.3182373 3.80654297 60.89428711 2.74902344 61.48779297 C1.8418457 61.98682129 0.93466797 62.48584961 0 63 C-0.64646484 63.46535156 -1.29292969 63.93070312 -1.95898438 64.41015625 C-4 65 -4 65 -7.02441406 63.75830078 C-8.19774897 63.08714579 -9.36103817 62.39823005 -10.515625 61.6953125 C-11.13145447 61.33734589 -11.74728394 60.97937927 -12.3817749 60.61056519 C-14.34702368 59.46357227 -16.29825696 58.29479779 -18.25 57.125 C-19.5798665 56.34358209 -20.91058685 55.56361536 -22.2421875 54.78515625 C-25.50493863 52.8734699 -28.75529534 50.94214597 -32 49 C-32.22334904 44.26805461 -32.38615853 39.53920256 -32.49438477 34.80322266 C-32.53950884 33.19460603 -32.60083129 31.58635586 -32.67895508 29.97900391 C-33.30794828 16.70025843 -33.30794828 16.70025843 -30.28173828 12.76635742 C-27.92510214 11.17427881 -25.62258546 10.09268152 -23 9 C-21.44153002 8.08323388 -19.89431492 7.14704648 -18.359375 6.19140625 C-16.82515982 5.31118279 -15.28869797 4.43486351 -13.75 3.5625 C-12.97398437 3.10423828 -12.19796875 2.64597656 -11.3984375 2.17382812 C-10.26535156 1.5328418 -10.26535156 1.5328418 -9.109375 0.87890625 C-8.43874023 0.4929126 -7.76810547 0.10691895 -7.07714844 -0.29077148 C-4.28406867 -1.24444999 -2.80854243 -0.87806515 0 0 Z " fill="#D0DBFC" transform="translate(459,213)"/>
<path d="M0 0 C49.63829787 -0.19148936 49.63829787 -0.19148936 73 1 C73 7.6 73 14.2 73 21 C57.62595659 21.14376662 42.2991541 20.57994209 26.9375 20 C24.31706777 19.90336133 21.69662511 19.80700499 19.07617188 19.7109375 C12.71732308 19.47721123 6.35862737 19.23967158 0 19 C0 12.73 0 6.46 0 0 Z " fill="#90B0F2" transform="translate(287,273)"/>
<path d="M0 0 C2.97541463 1.14730917 5.79141368 2.34642662 8.55078125 3.9453125 C9.47407227 4.47705078 9.47407227 4.47705078 10.41601562 5.01953125 C11.04185547 5.38433594 11.66769531 5.74914062 12.3125 6.125 C12.95767578 6.49753906 13.60285156 6.87007812 14.26757812 7.25390625 C15.84675945 8.16632213 17.42361864 9.08275509 19 10 C17.56081052 22.78086181 15.07388224 35.77835329 11 48 C7.3104428 46.62141094 4.02438384 44.91966221 0.625 42.9375 C-3.73422157 40.51308855 -7.03427062 39.22069908 -12 39 C-12 38.67 -12 38.34 -12 38 C-10.35 38 -8.7 38 -7 38 C-6.96334229 37.37053467 -6.92668457 36.74106934 -6.88891602 36.0925293 C-6.30836541 28.1392013 -4.73984796 20.56970524 -2.9375 12.8125 C-2.65583984 11.57435547 -2.37417969 10.33621094 -2.08398438 9.06054688 C-1.39564548 6.03885578 -0.70087909 3.01880236 0 0 Z " fill="#6965F5" transform="translate(194,237)"/>
<path d="M0 0 C5.13627561 3.60632117 9.61731243 7.48940532 13.9921875 11.984375 C18.99766593 17.00933 24.53309231 21.48980115 30 26 C26.80928952 28.51412609 23.45888244 30.54217773 19.9375 32.5625 C16.89542227 34.31103664 13.92001887 36.05332076 11 38 C10.5373877 37.56244385 10.07477539 37.1248877 9.59814453 36.67407227 C-4.02519482 23.01402304 -4.02519482 23.01402304 -19 11 C-18.18994507 10.55346069 -18.18994507 10.55346069 -17.36352539 10.09790039 C-14.92887423 8.75452698 -12.4956726 7.40854945 -10.0625 6.0625 C-9.21236328 5.59392578 -8.36222656 5.12535156 -7.48632812 4.64257812 C-6.67744141 4.19462891 -5.86855469 3.74667969 -5.03515625 3.28515625 C-3.91185913 2.66459351 -3.91185913 2.66459351 -2.76586914 2.03149414 C-1.03748855 1.1221285 -1.03748855 1.1221285 0 0 Z " fill="#6865F6" transform="translate(397,178)"/>
<path d="M0 0 C0 6.93 0 13.86 0 21 C-6.85036881 23.80073743 -13.72729993 26.35506922 -20.75 28.6875 C-21.65621094 28.99494141 -22.56242187 29.30238281 -23.49609375 29.61914062 C-24.37910156 29.91369141 -25.26210938 30.20824219 -26.171875 30.51171875 C-26.9565918 30.77428467 -27.74130859 31.03685059 -28.54980469 31.30737305 C-31.3141616 32.08880794 -34.1664026 32.52773377 -37 33 C-37.33 25.74 -37.66 18.48 -38 11 C-33.53499536 9.59174725 -29.06954824 8.18510133 -24.6027832 6.7824707 C-23.0845864 6.30521216 -21.56667881 5.82703256 -20.04907227 5.34790039 C-17.86290353 4.65787073 -15.67570316 3.97120141 -13.48828125 3.28515625 C-12.81412674 3.07157974 -12.13997223 2.85800323 -11.44538879 2.63795471 C-3.00572576 0 -3.00572576 0 0 0 Z " fill="#6965F6" transform="translate(301,154)"/>
<path d="M0 0 C2.25256041 1.0991772 4.50198174 2.20410211 6.75 3.3125 C7.38421875 3.62123047 8.0184375 3.92996094 8.671875 4.24804688 C10.46350602 5.13453097 12.23252723 6.06627853 14 7 C14.83015625 7.38542969 15.6603125 7.77085937 16.515625 8.16796875 C18 10 18 10 17.94140625 13.74609375 C17.6598246 15.50286423 17.34085379 17.25376135 17 19 C16.7819873 20.13840332 16.56397461 21.27680664 16.33935547 22.44970703 C15.56904931 26.32733287 14.75919733 30.19554975 13.9375 34.0625 C13.65260708 35.4185384 13.36809891 36.77465768 13.08398438 38.13085938 C12.3930909 41.42138594 11.69833305 44.71104574 11 48 C6.26588227 46.50715551 2.2920986 44.54307444 -1.875 41.875 C-2.46796875 41.50246094 -3.0609375 41.12992187 -3.671875 40.74609375 C-5.1181343 39.83635 -6.55958046 38.91896202 -8 38 C-7.23642462 30.42151435 -5.61381735 23.06226201 -4 15.625 C-3.72671875 14.34238281 -3.4534375 13.05976563 -3.171875 11.73828125 C-1.13016002 2.26032004 -1.13016002 2.26032004 0 0 Z " fill="#6865F6" transform="translate(435,290)"/>
<path d="M0 0 C3.19746095 1.80844469 5.79554553 3.57690692 8.3125 6.25 C12.71049367 10.78126621 17.45917488 14.85875764 22.28515625 18.92578125 C23.01605469 19.54839844 23.74695313 20.17101562 24.5 20.8125 C25.1703125 21.37582031 25.840625 21.93914062 26.53125 22.51953125 C28 24 28 24 28 26 C25.61065429 27.61964355 23.23682644 29.10763758 20.75 30.5625 C20.06808594 30.97435547 19.38617188 31.38621094 18.68359375 31.81054688 C12.46154296 35.50149156 12.46154296 35.50149156 9 36 C6.921875 34.375 6.921875 34.375 4.75 32 C1.92220442 29.01048409 -0.88235987 26.1249058 -4 23.4375 C-4.9590625 22.60992187 -4.9590625 22.60992187 -5.9375 21.765625 C-6.9584375 20.89164062 -6.9584375 20.89164062 -8 20 C-9.67182371 18.56850095 -11.33847993 17.13094556 -13 15.6875 C-13.763125 15.03136719 -14.52625 14.37523437 -15.3125 13.69921875 C-17 12 -17 12 -17 10 C-15.43945312 8.85498047 -15.43945312 8.85498047 -13.28125 7.6171875 C-12.51425781 7.17246094 -11.74726563 6.72773438 -10.95703125 6.26953125 C-10.14621094 5.80933594 -9.33539063 5.34914063 -8.5 4.875 C-7.68917969 4.40707031 -6.87835938 3.93914062 -6.04296875 3.45703125 C-4.03237359 2.29798228 -2.01803239 1.14603529 0 0 Z " fill="#6965F6" transform="translate(231,360)"/>
<path d="M0 0 C1.88856268 3.31904845 2.59812924 6.44910575 3.3125 10.1875 C4.64588235 16.75768971 6.43051822 23.10157099 8.4621582 29.48901367 C10.1046477 34.7907046 10.1046477 34.7907046 9 37 C8.46375 36.74605469 7.9275 36.49210937 7.375 36.23046875 C-0.52046416 32.76321722 -8.54743743 31.38429064 -17 30 C-16.35248793 26.7199569 -15.146475 24.29694953 -13.41796875 21.4453125 C-12.89783203 20.58292969 -12.37769531 19.72054688 -11.84179688 18.83203125 C-11.29587891 17.93871094 -10.74996094 17.04539062 -10.1875 16.125 C-9.65318359 15.23941406 -9.11886719 14.35382813 -8.56835938 13.44140625 C-5.81074565 8.88947806 -2.9972588 4.39791485 0 0 Z " fill="#CFDAFB" transform="translate(285,397)"/>
<path d="M0 0 C3.24812693 0.84648156 4.88992576 2.9648036 6.93359375 5.50390625 C7.26359375 5.83390625 7.59359375 6.16390625 7.93359375 6.50390625 C8.61106114 11.18810937 8.55732136 14.51801422 5.99609375 18.56640625 C1.89218956 21.1627538 -1.32915529 21.45650563 -6.06640625 20.50390625 C-8.93670494 18.70996957 -10.55772263 17.52127349 -12.06640625 14.50390625 C-12.19568432 9.80372508 -11.64997063 6.37041093 -9.00390625 2.44140625 C-5.71168201 0.2699392 -3.8709167 -0.22684011 0 0 Z " fill="#6966F6" transform="translate(276.06640625,461.49609375)"/>
<path d="M0 0 C3.49406769 1.66762322 4.82670681 2.74006022 7 6 C7.60192898 9.09067378 7.60626701 11.90912086 7 15 C4.4085135 18.17457096 2.92564305 19.54580349 -1.00390625 20.47265625 C-5.06059387 20.77286653 -6.81776115 20.15121947 -9.9375 17.5625 C-10.618125 16.716875 -11.29875 15.87125 -12 15 C-12.33 14.67 -12.66 14.34 -13 14 C-13.38301738 10.74435228 -13.67642942 8.13831966 -11.953125 5.23828125 C-8.14164467 0.60845367 -5.92879236 -0.46500332 0 0 Z " fill="#6A66F7" transform="translate(366,463)"/>
<path d="M0 0 C3.23929605 2.36569115 4.81751169 5.02672899 5.5625 9 C4.85564296 12.76990419 3.364441 15.00967755 1 18 C-2.49202465 19.74601232 -6.18982279 19.55838804 -10 19 C-13.0625 17.0625 -13.0625 17.0625 -15 14 C-15.69022545 10.84549858 -15.73034598 8.14961704 -15 5 C-10.61554899 -0.53825391 -6.85558636 -2.12352771 0 0 Z " fill="#6966F7" transform="translate(335,489)"/>
<path d="M0 0 C0.33 0 0.66 0 1 0 C1 11.88 1 23.76 1 36 C-2 32 -2 32 -2 30 C-1.34 30 -0.68 30 0 30 C0 20.1 0 10.2 0 0 Z " fill="#959ED7" transform="translate(375,359)"/>
</svg>
