<?xml version="1.0" encoding="UTF-8"?>
<svg version="1.1" xmlns="http://www.w3.org/2000/svg" width="640" height="640">
<path d="M0 0 C211.2 0 422.4 0 640 0 C640 211.2 640 422.4 640 640 C428.8 640 217.6 640 0 640 C0 428.8 0 217.6 0 0 Z " fill="#FEFEFE" transform="translate(0,0)"/>
<path d="M0 0 C3.82237216 1.74651667 7.39044566 3.85423361 11 6 C12.92700928 7.07771947 14.85670676 8.15064639 16.7890625 9.21875 C18.73486258 10.31163235 20.68017392 11.40538532 22.625 12.5 C24.08292969 13.31404297 24.08292969 13.31404297 25.5703125 14.14453125 C42.70591965 23.79482614 42.70591965 23.79482614 46 29 C46.2641449 31.20907593 46.2641449 31.20907593 46.11499023 33.63818359 C46.0491272 35.01197929 46.0491272 35.01197929 45.98193359 36.41352844 C45.92473145 37.39854843 45.8675293 38.38356842 45.80859375 39.3984375 C43.50613338 62.54907701 43.50613338 62.54907701 51.15625 83.04296875 C55.20420396 86.17238253 59.52886646 88.17925727 64.33544922 89.87939453 C68.26393788 91.53156266 71.38658172 94.06924526 74.69555664 96.72241211 C76.91712678 98.21695171 76.91712678 98.21695171 79.4387207 97.890625 C82.41323921 96.85630573 84.92175832 95.51545155 87.6328125 93.91015625 C88.68597656 93.29076172 89.73914063 92.67136719 90.82421875 92.03320312 C91.91347656 91.38287109 93.00273437 90.73253906 94.125 90.0625 C95.22199219 89.41603516 96.31898438 88.76957031 97.44921875 88.10351562 C103.28984632 84.65618212 103.28984632 84.65618212 109 81 C114.32401881 80.23942588 117.28745307 80.90571217 121.953125 83.55859375 C123.40138672 84.37529541 123.40138672 84.37529541 124.87890625 85.20849609 C125.90886719 85.79969238 126.93882812 86.39088867 128 87 C129.59134766 87.90032959 129.59134766 87.90032959 131.21484375 88.81884766 C134.56731109 90.72072817 137.90954181 92.639615 141.25 94.5625 C142.38179688 95.20896484 143.51359375 95.85542969 144.6796875 96.52148438 C159.82556206 105.2383431 159.82556206 105.2383431 163 110 C163.27415466 112.29450989 163.27415466 112.29450989 163.30639648 115.01879883 C163.32238388 116.04028519 163.33837128 117.06177155 163.35484314 118.11421204 C163.36288719 119.76890755 163.36288719 119.76890755 163.37109375 121.45703125 C163.38012222 122.5927507 163.3891507 123.72847015 163.39845276 124.89860535 C163.41297053 127.30355182 163.42184577 129.70853793 163.42553711 132.11352539 C163.43742061 135.78795247 163.4865838 139.46069373 163.53710938 143.13476562 C163.54657489 145.47134597 163.55380931 147.80793663 163.55859375 150.14453125 C163.57812607 151.2415889 163.59765839 152.33864655 163.61778259 153.46894836 C163.56752675 161.9936635 163.56752675 161.9936635 160.80883789 165.53051758 C158.11794534 167.89630446 155.65085364 169.67436109 152.5 171.3671875 C151.44683594 171.94339844 150.39367187 172.51960937 149.30859375 173.11328125 C148.21675781 173.69464844 147.12492187 174.27601563 146 174.875 C142.76319009 176.62515846 139.53424643 178.38307627 136.3269043 180.18676758 C134.05078839 181.42729835 131.72704269 182.58317833 129.37036133 183.6628418 C122.49723984 187.1111469 122.49723984 187.1111469 118.69677734 193.51953125 C117.90279266 197.68011695 117.78484821 201.83853745 117.6875 206.0625 C117.60786265 207.50878567 117.52261437 208.95477376 117.43164062 210.40039062 C117.07092737 216.60012469 116.97454415 222.79027093 117 229 C117.75619629 229.43344727 118.51239258 229.86689453 119.29150391 230.31347656 C122.12156623 231.93697698 124.95053621 233.56234969 127.77880859 235.18896484 C128.99843417 235.88990279 130.21847884 236.5901121 131.43896484 237.28955078 C133.20263073 238.30045003 134.96472597 239.31404159 136.7265625 240.328125 C137.78439941 240.9355957 138.84223633 241.54306641 139.93212891 242.16894531 C148.53617059 247.30425588 148.53617059 247.30425588 151 251 C151.26742554 253.33920288 151.26742554 253.33920288 151.29052734 256.12646484 C151.30328705 257.17119965 151.31604675 258.21593445 151.32919312 259.29232788 C151.33253159 260.98453964 151.33253159 260.98453964 151.3359375 262.7109375 C151.3425943 263.87122467 151.3492511 265.03151184 151.35610962 266.22695923 C151.36624186 268.68319105 151.37092646 271.13945043 151.37060547 273.59570312 C151.3749748 277.35332659 151.41127999 281.10977224 151.44921875 284.8671875 C151.45508749 287.25260015 151.4590565 289.63801838 151.4609375 292.0234375 C151.47530853 293.14753021 151.48967957 294.27162292 151.50448608 295.42977905 C151.45913256 303.17662095 151.45913256 303.17662095 149.30004883 307.04858398 C146.87088458 309.10954459 144.54125182 310.68300277 141.73828125 312.19921875 C140.70936768 312.76431152 139.6804541 313.3294043 138.62036133 313.91162109 C137.52876709 314.49766113 136.43717285 315.08370117 135.3125 315.6875 C133.05103762 316.92126225 130.79062437 318.1569494 128.53125 319.39453125 C127.42136719 320.00119629 126.31148438 320.60786133 125.16796875 321.23291016 C122.33439376 322.81347549 119.55031218 324.44639162 116.78125 326.13671875 C116.01643311 326.60311768 115.25161621 327.0695166 114.46362305 327.55004883 C113.07064354 328.40803314 111.68361343 329.27578428 110.30395508 330.1550293 C106.30164391 332.60490364 103.66101257 333.86822783 99 333 C95.423311 331.44572592 92.07099355 329.55863381 88.6875 327.625 C87.72070312 327.08786377 86.75390625 326.55072754 85.7578125 325.99731445 C81.11191419 323.40006448 76.52066919 320.73204269 71.98828125 317.94140625 C70.84516479 317.24313721 70.84516479 317.24313721 69.67895508 316.53076172 C68.26110257 315.65669735 66.85267921 314.76708552 65.45581055 313.85986328 C62.38792791 311.95990095 60.4457601 310.98477892 56.796875 311.109375 C54.26853246 311.91448966 52.07114768 312.78769645 49.75 314.0625 C46.19217082 316 46.19217082 316 44 316 C48.45107115 325.1799056 53.22132548 334.01322412 58.5 342.75 C59.91033217 345.10381044 61.31654175 347.46007444 62.72265625 349.81640625 C63.07743546 350.41004471 63.43221466 351.00368317 63.79774475 351.61531067 C69.43755653 361.06495053 74.90538902 370.61479347 80.37255859 380.16503906 C81.84962282 382.73804683 83.33854077 385.30369358 84.83203125 387.8671875 C85.63840116 389.26540573 86.44442392 390.66382426 87.25 392.0625 C87.59667725 392.6505542 87.94335449 393.2386084 88.30053711 393.84448242 C92.72559394 401.59644764 94.56829878 408.87202264 94.5 417.75 C94.49427979 418.62180908 94.48855957 419.49361816 94.48266602 420.3918457 C94.10345797 434.21570251 88.08393411 444.37860266 78.25 453.75 C73.6818984 457.57301318 68.55691493 459.93644466 63 462 C61.6035601 462.51876961 61.6035601 462.51876961 60.1789093 463.04801941 C54.37104307 464.67013078 48.30805776 464.28616854 42.32885742 464.2746582 C40.94505032 464.2790106 39.56124562 464.28419551 38.17744446 464.29014587 C34.43347793 464.30349221 30.68961264 464.3041193 26.94562697 464.30158257 C23.81221122 464.30050962 20.67881567 464.30540465 17.54540426 464.310188 C10.14768564 464.32126868 2.75001781 464.32172909 -4.64770508 464.31567383 C-12.25999131 464.30963836 -19.8720925 464.32193745 -27.48434716 464.3432439 C-34.03661928 464.360904 -40.58883275 464.36685422 -47.14112777 464.36360615 C-51.04708146 464.36179973 -54.95290323 464.36436477 -58.85883522 464.37832069 C-62.53531098 464.39096601 -66.21150013 464.38889225 -69.88797188 464.37590981 C-71.86600631 464.37244523 -73.84404976 464.3836732 -75.822052 464.39547729 C-90.74649149 464.30812653 -101.81254888 459.65426324 -112.703125 449.45703125 C-120.99556371 440.58637828 -124.53991603 430.09836553 -124.4375 418.125 C-124.45748047 417.30386719 -124.47746094 416.48273438 -124.49804688 415.63671875 C-124.48952991 404.71796507 -119.62967935 395.73210135 -114.25 386.5 C-113.68853271 385.521521 -113.12706543 384.54304199 -112.54858398 383.53491211 C-108.11560842 375.84095274 -103.59093715 368.2005371 -99.0625 360.5625 C-98.39831055 359.44133789 -97.73412109 358.32017578 -97.04980469 357.16503906 C-91.61183336 347.99983 -91.61183336 347.99983 -88.92529297 343.57958984 C-86.93841789 340.31000672 -84.96865047 337.03057719 -83 333.75 C-82.39422119 332.76845947 -81.78844238 331.78691895 -81.16430664 330.77563477 C-76.89107928 323.86525741 -76.89107928 323.86525741 -77 316 C-79.20632606 313.98387446 -80.96005422 312.70991202 -83.5 311.25 C-84.8670348 310.40550358 -86.23287803 309.5590759 -87.59765625 308.7109375 C-88.31453613 308.27491211 -89.03141602 307.83888672 -89.77001953 307.38964844 C-93.58115788 305.01467586 -97.2521384 302.439092 -100.9375 299.875 C-102.30050791 298.93449958 -103.66376462 297.99435955 -105.02734375 297.0546875 C-106.49880859 296.03761719 -106.49880859 296.03761719 -108 295 C-116.64741803 299.13870087 -124.94295363 303.58291388 -133.04858398 308.71044922 C-133.72219971 309.12311035 -134.39581543 309.53577148 -135.08984375 309.9609375 C-135.67628662 310.33009277 -136.26272949 310.69924805 -136.86694336 311.07958984 C-141.11728594 312.91360513 -144.63458452 313.49959611 -149.01928711 311.89526367 C-150.50827515 311.04025269 -150.50827515 311.04025269 -152.02734375 310.16796875 C-153.69978149 309.2241333 -153.69978149 309.2241333 -155.40600586 308.26123047 C-156.58365822 307.57081809 -157.76081447 306.87955888 -158.9375 306.1875 C-160.1471931 305.49247663 -161.35756537 304.79863407 -162.56860352 304.10595703 C-166.06230709 302.09812799 -169.5323906 300.05256439 -173 298 C-174.36318359 297.20021729 -174.36318359 297.20021729 -175.75390625 296.38427734 C-177.99230704 295.0643215 -180.21863547 293.72748385 -182.4375 292.375 C-183.37420532 291.81075317 -183.37420532 291.81075317 -184.32983398 291.23510742 C-188.08137735 288.87694904 -190.72354638 286.81121911 -193 283 C-193.6003663 279.10584745 -193.56031287 275.24625357 -193.53125 271.3125 C-193.5350769 270.17723877 -193.53890381 269.04197754 -193.54284668 267.87231445 C-193.54556537 265.47508862 -193.53820731 263.07783311 -193.52148438 260.68066406 C-193.50007587 257.01299858 -193.52128935 253.34729211 -193.546875 249.6796875 C-193.54423172 247.34895401 -193.53910674 245.01822174 -193.53125 242.6875 C-193.53934692 241.59155518 -193.54744385 240.49561035 -193.55578613 239.36645508 C-193.4631828 231.84162029 -193.4631828 231.84162029 -191.35205078 228.00561523 C-188.64452663 225.69688461 -185.94719091 223.95468711 -182.8359375 222.22265625 C-181.9477684 221.72190834 -181.9477684 221.72190834 -181.04165649 221.21104431 C-179.1580928 220.15167315 -177.26700485 219.10670671 -175.375 218.0625 C-173.51185882 217.02190294 -171.65038677 215.97836929 -169.78912354 214.93441772 C-168.57737871 214.25552426 -167.36461931 213.5784383 -166.15081787 212.90322876 C-161.65203982 210.39441696 -157.24606238 207.75728423 -152.87744141 205.02905273 C-151 204 -151 204 -149 204 C-149.01160156 203.30487305 -149.02320313 202.60974609 -149.03515625 201.89355469 C-149.11113802 193.63596405 -148.63574669 185.48034231 -148 177.25 C-147.90460938 175.96867188 -147.80921875 174.68734375 -147.7109375 173.3671875 C-147.4778991 170.24447295 -147.24085291 167.12211985 -147 164 C-148.72283203 163.05640625 -148.72283203 163.05640625 -150.48046875 162.09375 C-157.84613074 158.04394794 -165.21196294 153.98370814 -172.4375 149.6875 C-173.44683594 149.09324219 -174.45617187 148.49898437 -175.49609375 147.88671875 C-178.90896026 145.31508922 -180.73164414 142.72940445 -181.39440918 138.45825195 C-181.40282837 137.56066162 -181.41124756 136.66307129 -181.41992188 135.73828125 C-181.43583374 134.71371826 -181.45174561 133.68915527 -181.46813965 132.63354492 C-181.46834106 131.5376001 -181.46854248 130.44165527 -181.46875 129.3125 C-181.48017029 127.60960815 -181.48017029 127.60960815 -181.49182129 125.87231445 C-181.50261352 123.47512001 -181.50547898 121.07787857 -181.50097656 118.68066406 C-181.50000342 115.01287603 -181.54165607 111.34717405 -181.5859375 107.6796875 C-181.59114394 105.34896269 -181.5938327 103.01823062 -181.59375 100.6875 C-181.61014526 99.59155518 -181.62654053 98.49561035 -181.64343262 97.36645508 C-181.57458298 89.78584162 -181.57458298 89.78584162 -178.78417969 85.96948242 C-176.18100747 84.12804168 -173.62942965 82.3802658 -170.859375 80.80078125 C-169.87888184 80.23568848 -168.89838867 79.6705957 -167.88818359 79.08837891 C-166.85258301 78.50233887 -165.81698242 77.91629883 -164.75 77.3125 C-162.59072631 76.07755615 -160.43187471 74.84187401 -158.2734375 73.60546875 C-157.21092773 72.99880371 -156.14841797 72.39213867 -155.05371094 71.76708984 C-152.29414292 70.17021158 -149.56718099 68.53347819 -146.8515625 66.86328125 C-145.7054248 66.16368286 -145.7054248 66.16368286 -144.53613281 65.44995117 C-143.13608357 64.59160648 -141.74175657 63.7238285 -140.35449219 62.8449707 C-136.30657833 60.38730872 -133.69592745 59.60321319 -129 60 C-126.47729492 61.03466797 -126.47729492 61.03466797 -123.98046875 62.4921875 C-123.048396 63.02835693 -122.11632324 63.56452637 -121.15600586 64.11694336 C-120.17639893 64.69710205 -119.19679199 65.27726074 -118.1875 65.875 C-117.17373291 66.45838135 -116.15996582 67.0417627 -115.11547852 67.64282227 C-110.33446005 70.40479521 -105.60089953 73.22875299 -100.921875 76.16015625 C-100.1585083 76.63146973 -99.3951416 77.1027832 -98.60864258 77.58837891 C-97.19560365 78.46642379 -95.79354313 79.36247286 -94.4050293 80.27880859 C-92.29850349 81.65009493 -92.29850349 81.65009493 -89 83 C-84.42331993 81.84911078 -80.30190698 79.80181313 -76.0703125 77.7421875 C-75.43511688 77.43427277 -74.79992126 77.12635803 -74.14547729 76.80911255 C-72.13696251 75.83450633 -70.13096259 74.85484669 -68.125 73.875 C-66.75537199 73.20929859 -65.38558185 72.54393067 -64.015625 71.87890625 C-60.67520006 70.25645542 -57.33700953 68.62946613 -54 67 C-53.98541748 65.90534424 -53.97083496 64.81068848 -53.95581055 63.68286133 C-53.89771261 59.61043095 -53.82048073 55.53854685 -53.73754883 51.46655273 C-53.70435346 49.70622645 -53.67630476 47.94579512 -53.65356445 46.18530273 C-53.6199188 43.65042475 -53.5675994 41.11650477 -53.51171875 38.58203125 C-53.50532883 37.79850784 -53.4989389 37.01498444 -53.49235535 36.2077179 C-53.37033146 31.64347838 -52.90517056 28.58023263 -50 25 C-47.97314453 23.42944336 -47.97314453 23.42944336 -45.6328125 22.08984375 C-44.7569751 21.58026123 -43.8811377 21.07067871 -42.97875977 20.5456543 C-42.03701904 20.01496338 -41.09527832 19.48427246 -40.125 18.9375 C-39.15425537 18.3803833 -38.18351074 17.8232666 -37.18334961 17.24926758 C-35.14963222 16.08303749 -33.11336447 14.92124473 -31.07470703 13.76367188 C-28.06785515 12.03892215 -25.0920792 10.27006573 -22.12109375 8.484375 C-20.2684007 7.3851275 -18.41554255 6.28615822 -16.5625 5.1875 C-15.27786865 4.40524048 -15.27786865 4.40524048 -13.96728516 3.60717773 C-9.15938318 0.79820032 -5.68791786 -1.10787519 0 0 Z " fill="#072C76" transform="translate(335,91)"/>
<path d="M0 0 C1.0005542 0.58612061 2.0011084 1.17224121 3.03198242 1.77612305 C4.14508789 2.42387695 5.25819336 3.07163086 6.4050293 3.73901367 C7.56596651 4.4217355 8.72677313 5.10467946 9.88745117 5.7878418 C19.01752963 11.13548863 19.01752963 11.13548863 28.18823242 16.4128418 C28.86539307 16.79956055 29.54255371 17.1862793 30.24023438 17.5847168 C33.51191537 19.17288609 35.50891696 19.15165863 39.07495117 18.4753418 C42.9059099 16.76963666 46.47014583 14.60659574 50.07495117 12.4753418 C53.51870355 10.44906313 56.98014529 8.45661315 60.44995117 6.4753418 C61.31837646 5.9580249 62.18680176 5.44070801 63.08154297 4.90771484 C63.91210205 4.43503174 64.74266113 3.96234863 65.59838867 3.4753418 C66.34008301 3.0422168 67.08177734 2.6090918 67.84594727 2.1628418 C70.91526065 1.21616201 72.27714418 2.01396464 75.07495117 3.4753418 C76.81323242 4.56933594 76.81323242 4.56933594 78.38745117 5.76049805 C78.98944336 6.20973633 79.59143555 6.65897461 80.21166992 7.12182617 C80.82655273 7.58911133 81.44143555 8.05639648 82.07495117 8.5378418 C83.28166849 9.4475415 84.49007621 10.35500216 85.69995117 11.26049805 C86.35358643 11.77789551 87.00722168 12.29529297 87.68066406 12.82836914 C90.14079544 14.62378586 90.14079544 14.62378586 93.43603516 16.0012207 C97.33009784 17.88708327 100.66339633 19.78660067 103.07495117 23.4753418 C105.29781401 31.24566874 104.43814923 39.74253824 104.13745117 47.7253418 C104.06114996 51.03734379 104.00341474 54.34840534 103.96592712 57.66107178 C103.93761224 59.71502299 103.88426753 61.76882186 103.80274963 63.8213501 C103.66771912 69.36744722 103.66771912 69.36744722 105.72924805 74.42700195 C108.28844403 76.6617703 110.77314169 78.29603389 113.75854492 79.9206543 C114.85102539 80.52264648 115.94350586 81.12463867 117.0690918 81.74487305 C118.20540039 82.35717773 119.34170898 82.96948242 120.51245117 83.6003418 C122.76138264 84.83168617 125.01008884 86.06344207 127.25854492 87.2956543 C128.75212524 88.10413818 128.75212524 88.10413818 130.27587891 88.92895508 C132.91426938 90.38657089 135.50084133 91.90752035 138.07495117 93.4753418 C137.81005325 97.40408265 137.5434503 101.33270405 137.27539062 105.26123047 C137.14065674 107.24074546 137.00720242 109.2203474 136.8737793 111.19995117 C136.69919809 113.75400956 136.51853687 116.30766024 136.33154297 118.86083984 C136.16811706 121.16295263 136.02421745 123.46659501 135.90625 125.77148438 C135.84590576 126.74883545 135.78556152 127.72618652 135.72338867 128.7331543 C135.68004395 129.58151855 135.63669922 130.42988281 135.59204102 131.30395508 C134.93551091 134.06088554 133.9065553 134.90279209 131.63745117 136.5378418 C129.80283704 137.55317051 127.94427625 138.52543382 126.07495117 139.4753418 C124.69041186 140.23678718 123.30915507 141.00421789 121.93041992 141.77612305 C118.83439953 143.5089479 115.73092093 145.22703691 112.62182617 146.9362793 C100.69050989 152.49994155 100.69050989 152.49994155 92.46278381 161.36541748 C91.83178478 164.79823889 91.83439777 168.2606487 91.75854492 171.7409668 C91.73776382 172.53436462 91.71698273 173.32776245 91.6955719 174.14520264 C91.63035145 176.67183023 91.57131973 179.19855901 91.51245117 181.7253418 C91.46923977 183.44149796 91.42562465 185.15764401 91.3815918 186.8737793 C91.27469834 191.07419726 91.17335388 195.27471669 91.07495117 199.4753418 C88.4940435 200.79280513 85.91044659 202.10443797 83.32495117 203.4128418 C82.5953418 203.78602539 81.86573242 204.15920898 81.11401367 204.54370117 C80.4050293 204.90141602 79.69604492 205.25913086 78.96557617 205.62768555 C78.31621094 205.95760498 77.6668457 206.28752441 76.99780273 206.62744141 C75.04202038 207.48986296 73.15954423 208.01908359 71.07495117 208.4753418 C65.622979 201.44765513 65.28749884 195.73643871 65.27026367 186.9987793 C65.25599335 185.71476227 65.24172302 184.43074524 65.22702026 183.1078186 C65.20173235 180.40294306 65.19628969 177.69887182 65.20336914 174.99389648 C65.20948807 171.53802933 65.15139704 168.08650821 65.07670784 164.631567 C65.01692146 161.31636557 65.02252957 158.00201625 65.02026367 154.6862793 C64.98949738 153.45179047 64.95873108 152.21730164 64.92703247 150.94540405 C65.03957071 142.53744093 65.03957071 142.53744093 68.06170654 139.43731689 C70.48461914 137.84887695 70.48461914 137.84887695 72.8991394 136.63467407 C77.03831039 134.42921008 78.62182679 130.83471493 80.07495117 126.4753418 C80.34860671 122.13461078 80.38832217 117.79198602 80.42504883 113.44384766 C80.44154892 112.01529583 80.46876072 110.58682453 80.50708008 109.15869141 C80.88678692 98.42819754 80.88678692 98.42819754 76.46069336 88.9074707 C72.41327118 84.72456399 68.33021605 82.57355895 62.54109192 82.32144165 C61.0469797 82.30328585 59.55279349 82.29072159 58.05859375 82.2824707 C57.24195251 82.27429321 56.42531128 82.26611572 55.58392334 82.25769043 C52.87911711 82.23286304 50.17436334 82.2163255 47.46948242 82.2019043 C46.08193536 82.19391878 46.08193536 82.19391878 44.66635704 82.18577194 C39.76830245 82.15904943 34.87027324 82.13967332 29.97216797 82.12524414 C25.92441155 82.11191472 21.87716041 82.08407928 17.82958984 82.04321289 C12.93719493 81.99381899 8.04525773 81.96911458 3.15262413 81.96201706 C1.29194837 81.95531634 -0.56871766 81.94012504 -2.42925072 81.91612625 C-5.0406096 81.88436966 -7.65021605 81.88445346 -10.26171875 81.8918457 C-11.02305618 81.87544037 -11.78439362 81.85903503 -12.56880188 81.84213257 C-18.42038473 81.90956386 -22.38536521 83.81271321 -26.92504883 87.4753418 C-32.84153598 93.64960418 -32.67053462 100.73133607 -32.52197266 108.8840332 C-32.48760661 110.97183115 -32.5013603 113.05539404 -32.52075195 115.14331055 C-32.51262582 122.55230033 -32.09932294 128.21393063 -27.92504883 134.4753418 C-25.47548339 136.7992885 -23.34309278 138.27506089 -20.30632019 139.72994995 C-17.92504883 141.4753418 -17.92504883 141.4753418 -17.28340149 144.01541138 C-17.27640732 145.02973236 -17.26941315 146.04405334 -17.26220703 147.08911133 C-17.24321854 148.24105988 -17.22423004 149.39300842 -17.20466614 150.5798645 C-17.21165024 151.82670013 -17.21863434 153.07353577 -17.22583008 154.3581543 C-17.21867477 155.64213104 -17.21151947 156.92610779 -17.20414734 158.24899292 C-17.1922573 160.97121531 -17.19898049 163.69262089 -17.21826172 166.41479492 C-17.24102097 169.88198938 -17.21452411 173.34671188 -17.17319965 176.81366158 C-17.14124272 180.14114016 -17.15463848 183.4680331 -17.16333008 186.7956543 C-17.14040642 188.64768967 -17.14040642 188.64768967 -17.11701965 190.53713989 C-17.22376067 198.50505696 -18.67758738 203.40303105 -23.92504883 209.4753418 C-27.32410392 208.15947684 -30.12537239 206.8041301 -33.06958008 204.6472168 C-33.82948242 204.09420898 -34.58938477 203.54120117 -35.37231445 202.97143555 C-36.1528418 202.39522461 -36.93336914 201.81901367 -37.73754883 201.2253418 C-38.50647461 200.66459961 -39.27540039 200.10385742 -40.06762695 199.52612305 C-42.35989508 197.85092963 -44.64575598 196.16815911 -46.92504883 194.4753418 C-47.59686691 194.09181046 -48.268685 193.70827911 -48.96086121 193.31312561 C-52.17445111 191.31490341 -54.51351252 189.85458566 -55.62687683 186.12319946 C-55.86436996 183.24072409 -55.8503955 180.45565096 -55.74926758 177.56518555 C-55.74779472 175.99759239 -55.74779472 175.99759239 -55.74629211 174.39833069 C-55.73937452 171.06829399 -55.68018947 167.74215756 -55.61254883 164.4128418 C-55.56082983 161.08045476 -55.52094741 157.7494247 -55.51094055 154.41664124 C-55.5033022 152.34626968 -55.47105954 150.2758066 -55.41130066 148.20628357 C-55.35999034 142.47105753 -55.35999034 142.47105753 -58.07226562 137.53295898 C-60.98185207 135.43437152 -63.87073021 133.54050998 -66.99536133 131.77612305 C-68.13875977 131.12450195 -69.2821582 130.47288086 -70.46020508 129.80151367 C-71.656658 129.1300016 -72.85327428 128.45878049 -74.05004883 127.7878418 C-75.25491231 127.10566929 -76.4593436 126.42273284 -77.66333008 125.73901367 C-79.86559623 124.48857442 -82.06996819 123.24183148 -84.27709961 122 C-86.20025892 120.89266735 -88.07858556 119.70631731 -89.92504883 118.4753418 C-90.2487793 116.30664062 -90.2487793 116.30664062 -90.16723633 113.61987305 C-90.13984375 112.63196777 -90.11245117 111.6440625 -90.08422852 110.6262207 C-89.82336849 105.46263252 -89.48396798 100.31482218 -89.05004883 95.1628418 C-88.97141602 94.11805664 -88.8927832 93.07327148 -88.81176758 91.99682617 C-88.57614324 89.14577165 -88.27203281 86.31472289 -87.92504883 83.4753418 C-87.79227539 82.37448242 -87.65950195 81.27362305 -87.52270508 80.1394043 C-84.74033082 75.49984624 -79.92633686 73.61734035 -75.23754883 71.1628418 C-73.14311418 70.02217094 -71.04936504 68.88024048 -68.95629883 67.73706055 C-67.92891602 67.18324707 -66.9015332 66.62943359 -65.84301758 66.05883789 C-61.93088784 63.93583978 -58.07060033 61.73744639 -54.23754883 59.4753418 C-53.09930664 58.8153418 -51.96106445 58.1553418 -50.78833008 57.4753418 C-47.35295544 55.07573496 -44.4079284 52.87510577 -43.53987122 48.56112671 C-43.36705825 46.25829917 -43.31919668 43.9838596 -43.31567383 41.67456055 C-43.29913757 40.83818558 -43.28260132 40.00181061 -43.26556396 39.14009094 C-43.21715943 36.48093264 -43.19573039 33.82234587 -43.17504883 31.1628418 C-43.14688274 29.35487045 -43.11695441 27.54692564 -43.08520508 25.73901367 C-43.01140278 21.31783679 -42.96178231 16.89697577 -42.92504883 12.4753418 C-38.88760893 10.5159679 -34.84908766 8.55884577 -30.80957031 6.60375977 C-29.43687842 5.93900618 -28.06447855 5.27364922 -26.69238281 4.60766602 C-24.71472289 3.64788764 -22.73600648 2.69031811 -20.75708008 1.7331543 C-19.84428032 1.28928879 -19.84428032 1.28928879 -18.91304016 0.8364563 C-17.25648107 0.03664889 -15.59101315 -0.74463076 -13.92504883 -1.5246582 C-13.08288818 -1.96310059 -12.24072754 -2.40154297 -11.37304688 -2.85327148 C-7.02309177 -4.04628799 -3.83846226 -2.00076762 0 0 Z " fill="#FDFDFE" transform="translate(295.925048828125,181.524658203125)"/>
<path d="M0 0 C14.52 0 29.04 0 44 0 C43.95617187 4.41117187 43.91234375 8.82234375 43.8671875 13.3671875 C43.86025129 16.93798479 43.86342106 20.50846346 43.87329102 24.07923889 C43.88091525 27.8197035 43.87174247 31.55820623 43.81835938 35.29833984 C43.5946197 51.91734443 43.43642936 66.27224353 53.70910645 80.21295166 C55.67971513 82.94096356 57.28304525 85.82614828 58.94921875 88.75 C60.193201 90.83459482 61.43931856 92.91791679 62.6875 95 C64.07645278 97.32810042 65.46256439 99.65788202 66.84765625 101.98828125 C67.36746063 102.86266594 67.36746063 102.86266594 67.89776611 103.75471497 C71.52603508 109.86865677 75.0806782 116.02457058 78.625 122.1875 C83.49747744 130.65962094 88.38657511 139.1213201 93.3125 147.5625 C93.88718018 148.54782715 94.46186035 149.5331543 95.05395508 150.54833984 C97.71012636 155.09751588 100.37539962 159.64089193 103.0625 164.171875 C103.53002686 164.96134521 103.99755371 165.75081543 104.47924805 166.56420898 C105.34005613 168.0158079 106.20332588 169.46595115 107.06958008 170.91430664 C111.27519453 178.00490582 111.80064769 183.83525555 111 192 C108.8248631 199.36903856 104.35631144 204.76245904 98 209 C94.20998612 210.79604369 91.2035622 211.25545552 87.02372742 211.27415466 C85.82519135 211.28412979 84.62665527 211.29410492 83.39179993 211.30438232 C82.08518906 211.305047 80.77857819 211.30571167 79.43237305 211.30639648 C78.03576211 211.31402206 76.63915536 211.32245025 75.24255371 211.33161926 C71.45523518 211.35353236 67.66799738 211.36235888 63.88062263 211.36744571 C61.51210373 211.37109316 59.14360585 211.37733524 56.77509499 211.3844471 C48.50540873 211.40893084 40.2357851 211.42199109 31.96606445 211.42553711 C24.26847314 211.42917122 16.57128082 211.45906017 8.87381142 211.50094169 C2.25621675 211.53568004 -4.36124592 211.55108616 -10.97893113 211.55178314 C-14.92744411 211.55257478 -18.87555046 211.56126055 -22.82396889 211.58978081 C-26.53994271 211.61602266 -30.25517457 211.6181334 -33.97119904 211.60212517 C-35.97591833 211.59945613 -37.98062356 211.62145272 -39.98521423 211.64431763 C-48.6827104 211.57396175 -53.55667247 209.96320373 -59.98828125 204.2265625 C-65.80111458 197.1962921 -67.74372727 191.53410374 -67.453125 182.359375 C-66.66169979 176.49191225 -64.00280168 172.00381434 -61 167 C-60.06527536 165.40039988 -59.13178526 163.80007802 -58.19921875 162.19921875 C-56.00293679 158.4478674 -53.78696818 154.70893362 -51.55859375 150.9765625 C-48.02128646 145.04834248 -44.5356662 139.0909718 -41.0625 133.125 C-40.48177734 132.12823242 -39.90105469 131.13146484 -39.30273438 130.10449219 C-38.12365889 128.08052118 -36.94478542 126.05643248 -35.76611328 124.03222656 C-33.4278527 120.01768462 -31.08686446 116.00473718 -28.74560547 111.99194336 C-27.58687508 110.00589568 -26.42834467 108.01973132 -25.27001953 106.03344727 C-22.24412851 100.84480638 -19.21569755 95.65766933 -16.18359375 90.47265625 C-15.55646484 89.39951172 -14.92933594 88.32636719 -14.28320312 87.22070312 C-13.09127622 85.18118375 -11.89861991 83.14209038 -10.70507812 81.10351562 C-10.16173828 80.17345703 -9.61839844 79.24339844 -9.05859375 78.28515625 C-8.58736084 77.47957275 -8.11612793 76.67398926 -7.63061523 75.84399414 C-7.09251221 74.90547607 -6.55440918 73.96695801 -6 73 C-5.57814926 72.40295761 -5.15629852 71.80591522 -4.72166443 71.19078064 C-0.12033345 64.16030394 -0.26609933 57.30142242 -0.29296875 49.12109375 C-0.2798305 47.69903974 -0.2645198 46.27700431 -0.24714661 44.85499573 C-0.20753095 41.14124577 -0.19712153 37.42798656 -0.19311523 33.71405029 C-0.18208597 29.24252126 -0.13421364 24.77124834 -0.09262848 20.29991913 C-0.0337631 13.53306131 -0.02125123 6.76755058 0 0 Z " fill="#FDFDFE" transform="translate(298,323)"/>
<path d="M0 0 C0.81678726 -0.00671722 1.63357452 -0.01343445 2.47511292 -0.02035522 C5.17455132 -0.03934719 7.87374113 -0.04326037 10.57324219 -0.04541016 C12.45408225 -0.05183853 14.33492131 -0.05856692 16.21575928 -0.06558228 C20.15997636 -0.07755894 24.10410585 -0.08126283 28.04833984 -0.08007812 C33.08994077 -0.07987521 38.13097628 -0.1071475 43.17244339 -0.14162254 C47.05878247 -0.16392002 50.94498626 -0.16791475 54.83138275 -0.16685867 C56.68923639 -0.16921149 58.54709393 -0.17801695 60.40488434 -0.19352341 C63.01120401 -0.21323608 65.6163149 -0.20732454 68.22265625 -0.1953125 C68.98242264 -0.20655151 69.74218903 -0.21779053 70.52497864 -0.22937012 C76.58559929 -0.15879681 81.91707247 1.50096064 86.40225601 5.73784828 C92.36595126 12.63335238 92.24272847 18.66214259 92.24072266 27.39746094 C92.2450755 29.52019739 92.28135727 31.64081748 92.31933594 33.76318359 C92.38718911 41.84140192 92.32481556 48.66154735 86.42236328 54.79492188 C83.78520554 57.12348488 81.02245027 58.78229902 77.87011719 60.29052734 C77.68334639 67.75812975 77.54190775 75.22548514 77.45561981 82.69490337 C77.41416715 86.16488314 77.35811471 89.63324577 77.26660156 93.10229492 C76.2989987 114.2216432 76.2989987 114.2216432 85.87011719 132.29052734 C87.0785208 134.26822683 88.24540333 136.2718766 89.37011719 138.29833984 C89.93859375 139.29027344 90.50707031 140.28220703 91.09277344 141.30419922 C91.67929687 142.3309375 92.26582031 143.35767578 92.87011719 144.41552734 C98.13201701 153.58398916 103.46380709 162.70610514 108.87011719 171.79052734 C116.10191087 183.95168655 123.21323871 196.17629658 130.24267578 208.45556641 C131.71974001 211.02857417 133.20865795 213.59422092 134.70214844 216.15771484 C135.50851834 217.55593308 136.31454111 218.9543516 137.12011719 220.35302734 C137.46679443 220.94108154 137.81347168 221.52913574 138.1706543 222.13500977 C142.59571112 229.88697499 144.43841597 237.16254999 144.37011719 246.04052734 C144.36439697 246.91233643 144.35867676 247.78414551 144.3527832 248.68237305 C143.97357516 262.50622986 137.9540513 272.66913001 128.12011719 282.04052734 C123.55201559 285.86354053 118.42703212 288.22697201 112.87011719 290.29052734 C111.47367729 290.80929695 111.47367729 290.80929695 110.04902649 291.33854675 C104.24116026 292.96065813 98.17817494 292.57669589 92.19897461 292.56518555 C90.8151675 292.56953795 89.4313628 292.57472285 88.04756165 292.58067322 C84.30359512 292.59401956 80.55972982 292.59464664 76.81574416 292.59210992 C73.6823284 292.59103696 70.54893285 292.595932 67.41552144 292.60071534 C60.01780283 292.61179602 52.620135 292.61225643 45.22241211 292.60620117 C37.61012588 292.6001657 29.99802469 292.61246479 22.38577002 292.63377124 C15.8334979 292.65143135 9.28128444 292.65738156 2.72898942 292.6541335 C-1.17696428 292.65232708 -5.08278605 292.65489211 -8.98871803 292.66884804 C-12.6651938 292.68149335 -16.34138294 292.67941959 -20.01785469 292.66643715 C-21.99588912 292.66297258 -23.97393257 292.67420054 -25.95193481 292.68600464 C-40.8763743 292.59865387 -51.94243169 287.94479058 -62.83300781 277.74755859 C-71.12544652 268.87690562 -74.66979885 258.38889288 -74.56738281 246.41552734 C-74.58736328 245.59439453 -74.60734375 244.77326172 -74.62792969 243.92724609 C-74.61941272 233.00849241 -69.75956216 224.02262869 -64.37988281 214.79052734 C-63.53768188 213.32280884 -63.53768188 213.32280884 -62.6784668 211.82543945 C-58.24547969 204.13146005 -53.7197919 196.49169431 -49.19238281 188.85302734 C-48.52746826 187.72751465 -47.86255371 186.60200195 -47.17749023 185.44238281 C-43.85216125 179.82568112 -40.48810022 174.24056123 -37.03613281 168.70068359 C-36.38894287 167.64228271 -35.74175293 166.58388184 -35.07495117 165.4934082 C-33.8643621 163.51417122 -32.63480889 161.54634366 -31.38208008 159.59350586 C-27.59534166 153.33926901 -26.43615111 148.36212146 -26.34912109 141.04223633 C-26.12988281 138.29052734 -26.12988281 138.29052734 -23.94238281 135.22802734 C-23.01425781 134.58865234 -22.08613281 133.94927734 -21.12988281 133.29052734 C-19.55207031 132.14583984 -19.55207031 132.14583984 -17.94238281 130.97802734 C-15.12988281 129.29052734 -15.12988281 129.29052734 -13.12988281 129.29052734 C-12.86175781 128.38302734 -12.59363281 127.47552734 -12.31738281 126.54052734 C-11.12988281 123.29052734 -11.12988281 123.29052734 -9.58488464 121.44932556 C-7.70666637 118.66259762 -7.71940094 116.84453702 -7.66235352 113.49975586 C-7.63675858 112.33497208 -7.61116364 111.17018829 -7.58479309 109.97010803 C-7.57518051 108.71588547 -7.56556793 107.4616629 -7.55566406 106.16943359 C-7.54093552 104.8773851 -7.52620697 103.58533661 -7.5110321 102.25413513 C-7.48407659 99.52134259 -7.47050092 96.78882132 -7.46411133 94.0559082 C-7.45323296 90.5599858 -7.39149704 87.06694439 -7.31739521 83.57186985 C-7.25729594 80.22941941 -7.25403464 76.88740252 -7.24316406 73.54443359 C-7.21128494 72.29223526 -7.17940582 71.04003693 -7.14656067 69.74989319 C-6.97539979 63.56548087 -6.97539979 63.56548087 -9.88729858 58.44869995 C-11.98457846 57.08434694 -11.98457846 57.08434694 -14.17912292 56.16246033 C-17.80155114 54.54334018 -19.52933709 51.52656112 -21.20825195 48.07104492 C-22.91333345 42.92689307 -22.54115038 37.48032721 -22.55541992 32.1081543 C-22.5672935 29.99392965 -22.61649812 27.88265068 -22.66699219 25.76904297 C-22.75828333 18.13960683 -22.51613247 12.08950506 -17.12988281 6.29052734 C-11.60019394 1.16544985 -7.45101619 -0.00879505 0 0 Z M12.87011719 60.29052734 C12.91394531 64.70169922 12.95777344 69.11287109 13.00292969 73.65771484 C13.00986589 77.22851213 13.00669612 80.79899081 12.99682617 84.36976624 C12.98920194 88.11023085 12.99837472 91.84873357 13.05175781 95.58886719 C13.27551975 112.20897317 13.43450649 126.56932039 3.15777588 140.50994873 C1.20236006 143.21390406 -0.39002961 146.07204496 -2.04394531 148.97021484 C-3.2789858 151.03647903 -4.51599096 153.10157006 -5.75488281 155.16552734 C-11.37668222 164.58890662 -16.89481772 174.06365162 -22.31738281 183.60302734 C-29.61305484 196.43324801 -37.09385576 209.14594406 -44.640625 221.82958984 C-46.05618693 224.21094387 -47.46828572 226.59432168 -48.87988281 228.97802734 C-49.29866699 229.67951904 -49.71745117 230.38101074 -50.14892578 231.10375977 C-54.37563125 238.24762599 -54.93632595 244.06668276 -54.12988281 252.29052734 C-51.74130486 260.38267228 -46.49754683 266.0236633 -39.37308121 270.35975075 C-36.54977238 271.53123419 -34.33046502 271.54810643 -31.27386475 271.55795288 C-30.07670334 271.56648285 -28.87954193 271.57501282 -27.64610291 271.58380127 C-25.68079369 271.58244171 -25.68079369 271.58244171 -23.67578125 271.58105469 C-22.27931865 271.58704041 -20.88285936 271.59384606 -19.48640442 271.60140991 C-15.69488504 271.619076 -11.90345594 271.62376563 -8.11189938 271.62504148 C-5.7412084 271.62646367 -3.37054033 271.63073462 -0.99985504 271.63603592 C7.27631587 271.65454051 15.55242237 271.66270628 23.82861328 271.66113281 C31.53351175 271.65993234 39.23812966 271.68101484 46.94295716 271.71262014 C53.56477746 271.73881126 60.18650631 271.74949887 66.80837798 271.74822199 C70.76019256 271.74771305 74.71175799 271.75335813 78.66352081 271.77457809 C82.38351081 271.79400769 86.10301527 271.7940532 89.82302284 271.77954483 C91.83011361 271.7764718 93.83720466 271.79310144 95.84422302 271.8104248 C104.08350632 271.75322782 109.65959897 270.90486599 116.07714844 265.39599609 C122.12713804 258.16839295 124.62566069 252.19768656 124.32324219 242.64990234 C123.53181698 236.78243959 120.87291887 232.29434168 117.87011719 227.29052734 C116.93539255 225.69092722 116.00190245 224.09060536 115.06933594 222.48974609 C112.87305398 218.73839474 110.65708536 214.99946096 108.42871094 211.26708984 C104.89140364 205.33886982 101.40578339 199.38149915 97.93261719 193.41552734 C97.35189453 192.41875977 96.77117187 191.42199219 96.17285156 190.39501953 C94.99377608 188.37104853 93.81490261 186.34695983 92.63623047 184.32275391 C90.29796989 180.30821197 87.95698164 176.29526453 85.61572266 172.2824707 C84.45699227 170.29642303 83.29846186 168.31025866 82.14013672 166.32397461 C79.11424569 161.13533372 76.08581474 155.94819667 73.05371094 150.76318359 C72.42658203 149.69003906 71.79945313 148.61689453 71.15332031 147.51123047 C69.9613934 145.47171109 68.7687371 143.43261773 67.57519531 141.39404297 C67.03185547 140.46398437 66.48851562 139.53392578 65.92871094 138.57568359 C65.45747803 137.7701001 64.98624512 136.9645166 64.50073242 136.13452148 C63.96262939 135.19600342 63.42452637 134.25748535 62.87011719 133.29052734 C62.44826645 132.69348495 62.02641571 132.09644257 61.59178162 131.48130798 C56.99045063 124.45083129 57.13621652 117.59194976 57.16308594 109.41162109 C57.14994769 107.98956708 57.13463699 106.56753165 57.11726379 105.14552307 C57.07764814 101.43177312 57.06723872 97.7185139 57.06323242 94.00457764 C57.05220315 89.5330486 57.00433082 85.06177568 56.96274567 80.59044647 C56.90388029 73.82358866 56.89136842 67.05807793 56.87011719 60.29052734 C42.35011719 60.29052734 27.83011719 60.29052734 12.87011719 60.29052734 Z " fill="#062B76" transform="translate(285.1298828125,262.70947265625)"/>
<path d="M0 0 C5.48808874 3.34823762 10.81044756 6.83462832 16.0078125 10.6171875 C16.89049805 11.25446777 17.77318359 11.89174805 18.68261719 12.54833984 C20.46578168 13.8409239 22.2400786 15.14583755 24.00488281 16.46337891 C24.83600586 17.06327637 25.66712891 17.66317383 26.5234375 18.28125 C27.26513184 18.82845703 28.00682617 19.37566406 28.77099609 19.93945312 C31.70604682 21.3359329 32.9415845 21.02614833 36 20 C37.91393849 19.03925573 39.79009035 18.00128649 41.6328125 16.91015625 C42.68597656 16.29076172 43.73914063 15.67136719 44.82421875 15.03320312 C46.45810547 14.05770508 46.45810547 14.05770508 48.125 13.0625 C49.22199219 12.41603516 50.31898438 11.76957031 51.44921875 11.10351562 C57.28984632 7.65618212 57.28984632 7.65618212 63 4 C68.32401881 3.23942588 71.28745307 3.90571217 75.953125 6.55859375 C76.91863281 7.10306152 77.88414062 7.6475293 78.87890625 8.20849609 C79.90886719 8.79969238 80.93882812 9.39088867 82 10 C83.06089844 10.60021973 84.12179687 11.20043945 85.21484375 11.81884766 C88.56731109 13.72072817 91.90954181 15.639615 95.25 17.5625 C96.38179688 18.20896484 97.51359375 18.85542969 98.6796875 19.52148438 C113.82556206 28.2383431 113.82556206 28.2383431 117 33 C117.27415466 35.29450989 117.27415466 35.29450989 117.30639648 38.01879883 C117.32238388 39.04028519 117.33837128 40.06177155 117.35484314 41.11421204 C117.36020584 42.21734238 117.36556854 43.32047272 117.37109375 44.45703125 C117.38012222 45.5927507 117.3891507 46.72847015 117.39845276 47.89860535 C117.41297053 50.30355182 117.42184577 52.70853793 117.42553711 55.11352539 C117.43742061 58.78795247 117.4865838 62.46069373 117.53710938 66.13476562 C117.54657489 68.47134597 117.55380931 70.80793663 117.55859375 73.14453125 C117.57812607 74.2415889 117.59765839 75.33864655 117.61778259 76.46894836 C117.56752675 84.9936635 117.56752675 84.9936635 114.80883789 88.53051758 C112.11794534 90.89630446 109.65085364 92.67436109 106.5 94.3671875 C105.44683594 94.94339844 104.39367187 95.51960938 103.30859375 96.11328125 C102.21675781 96.69464844 101.12492187 97.27601563 100 97.875 C96.76319009 99.62515846 93.53424643 101.38307627 90.3269043 103.18676758 C88.05078839 104.42729835 85.72704269 105.58317833 83.37036133 106.6628418 C76.49723984 110.1111469 76.49723984 110.1111469 72.69677734 116.51953125 C71.90279266 120.68011695 71.78484821 124.83853745 71.6875 129.0625 C71.60786265 130.50878567 71.52261437 131.95477376 71.43164062 133.40039062 C71.07092737 139.60012469 70.97454415 145.79027093 71 152 C72.13429443 152.6501709 72.13429443 152.6501709 73.29150391 153.31347656 C76.12156623 154.93697698 78.95053621 156.56234969 81.77880859 158.18896484 C82.99843417 158.88990279 84.21847884 159.5901121 85.43896484 160.28955078 C87.20263073 161.30045003 88.96472597 162.31404159 90.7265625 163.328125 C91.78439941 163.9355957 92.84223633 164.54306641 93.93212891 165.16894531 C102.53617059 170.30425588 102.53617059 170.30425588 105 174 C105.26742554 176.33920288 105.26742554 176.33920288 105.29052734 179.12646484 C105.30328705 180.17119965 105.31604675 181.21593445 105.32919312 182.29232788 C105.33141876 183.42046906 105.33364441 184.54861023 105.3359375 185.7109375 C105.3459227 187.45136826 105.3459227 187.45136826 105.35610962 189.22695923 C105.36624186 191.68319105 105.37092646 194.13945043 105.37060547 196.59570312 C105.3749748 200.35332659 105.41127999 204.10977224 105.44921875 207.8671875 C105.45508749 210.25260015 105.4590565 212.63801838 105.4609375 215.0234375 C105.47530853 216.14753021 105.48967957 217.27162292 105.50448608 218.42977905 C105.45913256 226.17662095 105.45913256 226.17662095 103.30004883 230.04858398 C100.87088458 232.10954459 98.54125182 233.68300277 95.73828125 235.19921875 C94.70936768 235.76431152 93.6804541 236.3294043 92.62036133 236.91162109 C91.52876709 237.49766113 90.43717285 238.08370117 89.3125 238.6875 C87.05103762 239.92126225 84.79062437 241.1569494 82.53125 242.39453125 C80.86642578 243.30452881 80.86642578 243.30452881 79.16796875 244.23291016 C76.33439376 245.81347549 73.55031218 247.44639162 70.78125 249.13671875 C69.63402466 249.83631714 69.63402466 249.83631714 68.46362305 250.55004883 C67.07064354 251.40803314 65.68361343 252.27578428 64.30395508 253.1550293 C60.30164391 255.60490364 57.66101257 256.86822783 53 256 C49.423311 254.44572592 46.07099355 252.55863381 42.6875 250.625 C41.72070312 250.08786377 40.75390625 249.55072754 39.7578125 248.99731445 C35.11191419 246.40006448 30.52066919 243.73204269 25.98828125 240.94140625 C25.22620361 240.47589355 24.46412598 240.01038086 23.67895508 239.53076172 C22.26110257 238.65669735 20.85267921 237.76708552 19.45581055 236.85986328 C16.38792791 234.95990095 14.4457601 233.98477892 10.796875 234.109375 C8.26853246 234.91448966 6.07114768 235.78769645 3.75 237.0625 C0.19217082 239 0.19217082 239 -2 239 C-2.495 239.99 -2.495 239.99 -3 241 C-4.70413664 238.23907588 -6.38530685 235.46486002 -8.0625 232.6875 C-8.54783203 231.90181641 -9.03316406 231.11613281 -9.53320312 230.30664062 C-9.98759766 229.54931641 -10.44199219 228.79199219 -10.91015625 228.01171875 C-11.33433838 227.31522217 -11.75852051 226.61872559 -12.19555664 225.90112305 C-13 224 -13 224 -12 221 C-10.32592773 219.92504883 -10.32592773 219.92504883 -8.18359375 218.95703125 C-7.41982422 218.60576172 -6.65605469 218.25449219 -5.86914062 217.89257812 C-5.06669922 217.53615234 -4.26425781 217.17972656 -3.4375 216.8125 C-2.63119141 216.44447266 -1.82488281 216.07644531 -0.99414062 215.69726562 C0.99986298 214.78875511 2.99776958 213.89019664 5 213 C5.01981934 211.93563721 5.03963867 210.87127441 5.06005859 209.7746582 C5.13630792 205.81413693 5.22499514 201.8539738 5.31738281 197.89379883 C5.35559285 196.18195686 5.39045952 194.47003678 5.421875 192.75805664 C5.46769938 190.29284817 5.52566413 187.82817367 5.5859375 185.36328125 C5.60326431 184.22080681 5.60326431 184.22080681 5.62094116 183.05525208 C5.73374939 178.96542507 5.93498414 175.57478931 8 172 C11.29271654 168.94727738 14.93351961 166.75523986 18.82421875 164.5390625 C19.93603516 163.90226563 21.04785156 163.26546875 22.19335938 162.609375 C23.35795699 161.94771259 24.5226711 161.28625516 25.6875 160.625 C29.07793177 158.68981325 32.46490505 156.7542231 35.82592773 154.76831055 C39 153 39 153 41.98852539 151.80395508 C45.01176575 150.48660644 46.82259051 149.49296386 49 147 C50.64742347 141.18346794 50.86134905 135.45209474 51.0625 129.4375 C51.14853169 127.82071987 51.23898614 126.20416868 51.33398438 124.58789062 C51.46705959 122.30831377 51.59374603 120.03050443 51.68580627 117.74888611 C51.83554592 114.06895883 52.15006337 110.58721326 53 107 C52.35546875 106.76796875 51.7109375 106.5359375 51.046875 106.296875 C46.9543719 104.55493778 43.12938757 102.41931798 39.25 100.25 C38.44812256 99.80188965 37.64624512 99.3537793 36.82006836 98.89208984 C21.27923542 90.13842625 21.27923542 90.13842625 18 85 C17.7089386 82.77073669 17.7089386 82.77073669 17.8215332 80.31420898 C17.85338211 79.38901962 17.88523102 78.46383026 17.91804504 77.51060486 C17.96184799 76.51581619 18.00565094 75.52102753 18.05078125 74.49609375 C18.0918741 72.37181811 18.12885057 70.24745961 18.16210938 68.12304688 C18.22554113 64.78418568 18.31173186 61.4537432 18.46948242 58.11791992 C19.46393708 45.98166526 19.46393708 45.98166526 15.49404907 34.95614624 C11.80638903 31.5161356 7.64781887 29.24127103 3.12031555 27.08695984 C-0.48381306 25.23933718 -3.67770364 22.82584378 -6.9375 20.4375 C-7.82789726 19.81259422 -7.82789726 19.81259422 -8.73628235 19.17506409 C-12.87782793 16.24434413 -12.87782793 16.24434413 -14 14 C-13.31292969 13.62488281 -12.62585938 13.24976563 -11.91796875 12.86328125 C-11.01691406 12.35152344 -10.11585938 11.83976563 -9.1875 11.3125 C-8.29417969 10.81363281 -7.40085937 10.31476563 -6.48046875 9.80078125 C-2.82058432 7.14376279 -1.40911227 4.22733681 0 0 Z " fill="#082C77" transform="translate(381,168)"/>
<path d="M0 0 C3.12050587 0.94340875 5.755755 1.84124075 8.5 3.625 C11.56878328 5.3128308 13.54374852 5.30054361 17 5 C17.99 4.67 18.98 4.34 20 4 C19.93941406 4.82089111 19.87882812 5.64178223 19.81640625 6.48754883 C19.58959639 9.58677477 19.36640175 12.68623588 19.14550781 15.78588867 C19.00336313 17.76565883 18.85719891 19.74513909 18.7109375 21.72460938 C18.18346442 29.16574746 17.8599273 36.54015605 18 44 C18.7206665 44.39791748 19.44133301 44.79583496 20.18383789 45.20581055 C22.89001316 46.70271878 25.59400268 48.2034855 28.29663086 49.70678711 C30.02880886 50.66878891 31.76340583 51.62643096 33.49804688 52.58398438 C48.69916441 61.04874662 48.69916441 61.04874662 52 66 C52.17753601 68.10900879 52.17753601 68.10900879 52.08081055 70.57226562 C52.05226486 71.49753052 52.02371918 72.42279541 51.99430847 73.37609863 C51.95880386 74.37604858 51.92329926 75.37599854 51.88671875 76.40625 C51.85340212 78.53379502 51.82424068 80.66140839 51.79882812 82.7890625 C51.75403454 86.13854533 51.68831657 89.48009273 51.55102539 92.82714844 C50.63575855 104.9331897 50.63575855 104.9331897 54.39974976 116.04507446 C57.85320388 119.51349889 61.8319674 121.86953506 66.17819214 124.0647583 C68.51749572 125.26566115 70.61216515 126.73031408 72.74609375 128.26171875 C73.97407943 129.07407851 75.2043871 129.88294437 76.4375 130.6875 C77.08525391 131.11482422 77.73300781 131.54214844 78.40039062 131.98242188 C79.93133715 132.99171254 81.46528507 133.99644882 83 135 C80.32414436 137.19883553 77.85817549 139.07786444 74.8125 140.75 C70.92468085 143.86025532 70.80454831 146.17271014 70 151 C63.79058727 147.71689362 58.05014532 144.06913052 52.375 139.9375 C50.25977358 138.40281127 48.14173984 136.87846863 45.99291992 135.39111328 C44.70841297 134.49449187 43.44768151 133.5622965 42.2199707 132.58935547 C40.32835332 131.12401765 40.32835332 131.12401765 37 130 C33.77188806 130.80702799 31.21826107 132.46303391 28.4375 134.25 C27.65463623 134.71639893 26.87177246 135.18279785 26.06518555 135.66333008 C23.69179285 137.08109135 21.34416607 138.5345207 19 140 C17.03483233 141.21936212 15.06740612 142.43221535 13.08422852 143.62207031 C11.41417226 144.62635934 9.76299524 145.66185281 8.11328125 146.69921875 C4.26421286 148.30742424 1.84470539 148.36346359 -2 147 C-6.10236335 145.06172915 -10.01301792 142.83599918 -13.9375 140.5625 C-15.04182373 139.93158447 -16.14614746 139.30066895 -17.28393555 138.65063477 C-20.53283272 136.78400513 -23.76909739 134.89757925 -27 133 C-27.8775293 132.4853418 -28.75505859 131.97068359 -29.65917969 131.44042969 C-31.88736963 130.12240946 -34.10327167 128.78701189 -36.3125 127.4375 C-36.94470459 127.05730713 -37.57690918 126.67711426 -38.22827148 126.28540039 C-42.02040365 123.91143834 -44.70444265 121.84962264 -47 118 C-47.5999717 114.10576398 -47.5603131 110.24628477 -47.53125 106.3125 C-47.5350769 105.17723877 -47.53890381 104.04197754 -47.54284668 102.87231445 C-47.54556537 100.47508862 -47.53820731 98.07783311 -47.52148438 95.68066406 C-47.50007587 92.01299858 -47.52128935 88.34729211 -47.546875 84.6796875 C-47.54423172 82.34895401 -47.53910674 80.01822174 -47.53125 77.6875 C-47.53934692 76.59155518 -47.54744385 75.49561035 -47.55578613 74.36645508 C-47.4631828 66.84162029 -47.4631828 66.84162029 -45.35205078 63.00561523 C-42.64452663 60.69688461 -39.94719091 58.95468711 -36.8359375 57.22265625 C-36.24382477 56.88882431 -35.65171204 56.55499237 -35.04165649 56.21104431 C-33.1580928 55.15167315 -31.26700485 54.10670671 -29.375 53.0625 C-27.51185882 52.02190294 -25.65038677 50.97836929 -23.78912354 49.93441772 C-22.57737871 49.25552426 -21.36461931 48.5784383 -20.15081787 47.90322876 C-15.65203982 45.39441696 -11.24606238 42.75728423 -6.87744141 40.02905273 C-5 39 -5 39 -3 39 C-3.01087646 38.27949463 -3.02175293 37.55898926 -3.03295898 36.81665039 C-3.096473 29.3056639 -2.72206047 21.9171964 -2.0625 14.4375 C-1.97548828 13.37208984 -1.88847656 12.30667969 -1.79882812 11.20898438 C-1.13157685 3.39473055 -1.13157685 3.39473055 0 0 Z " fill="#082C76" transform="translate(189,256)"/>
<path d="M0 0 C2.61450195 1.12646484 2.61450195 1.12646484 5.23828125 2.7109375 C6.21563232 3.29174072 7.1929834 3.87254395 8.19995117 4.47094727 C9.22709229 5.09928467 10.2542334 5.72762207 11.3125 6.375 C13.46088177 7.66285339 15.60931963 8.95061321 17.7578125 10.23828125 C18.81387695 10.87717285 19.86994141 11.51606445 20.95800781 12.17431641 C23.68154663 13.80887686 26.42121349 15.40582627 29.1796875 16.98046875 C29.94885498 17.42148926 30.71802246 17.86250977 31.51049805 18.31689453 C32.9155086 19.12079314 34.32305678 19.92028032 35.73364258 20.71435547 C36.36165771 21.07803223 36.98967285 21.44170898 37.63671875 21.81640625 C38.16998779 22.12006104 38.70325684 22.42371582 39.25268555 22.73657227 C40.1176062 23.36196899 40.1176062 23.36196899 41 24 C41.88139648 24.62447021 42.76279297 25.24894043 43.67089844 25.89233398 C47.23049904 30.64182624 46.69753111 35.12038951 46.62890625 40.90625 C46.63131821 42.06370728 46.63373016 43.22116455 46.63621521 44.41369629 C46.6352368 46.85802643 46.62184499 49.30237874 46.59692383 51.74658203 C46.56262135 55.48676881 46.57626622 59.22459238 46.59570312 62.96484375 C46.58880455 65.34115589 46.57913208 67.71746193 46.56640625 70.09375 C46.57384605 71.77047791 46.57384605 71.77047791 46.58143616 73.4810791 C46.46485714 81.17077201 46.46485714 81.17077201 44.29345703 85.04418945 C41.86804714 87.11252654 39.5428822 88.68212084 36.73828125 90.19921875 C35.70936768 90.76431152 34.6804541 91.3294043 33.62036133 91.91162109 C32.52876709 92.49766113 31.43717285 93.08370117 30.3125 93.6875 C28.05103762 94.92126225 25.79062437 96.1569494 23.53125 97.39453125 C22.42136719 98.00119629 21.31148438 98.60786133 20.16796875 99.23291016 C17.33439376 100.81347549 14.55031218 102.44639162 11.78125 104.13671875 C10.63402466 104.83631714 10.63402466 104.83631714 9.46362305 105.55004883 C8.07064354 106.40803314 6.68361343 107.27578428 5.30395508 108.1550293 C1.30164391 110.60490364 -1.33898743 111.86822783 -6 111 C-9.576689 109.44572592 -12.92900645 107.55863381 -16.3125 105.625 C-17.27929688 105.08786377 -18.24609375 104.55072754 -19.2421875 103.99731445 C-23.88808581 101.40006448 -28.47933081 98.73204269 -33.01171875 95.94140625 C-33.77379639 95.47589355 -34.53587402 95.01038086 -35.32104492 94.53076172 C-36.73889743 93.65669735 -38.14732079 92.76708552 -39.54418945 91.85986328 C-42.61207209 89.95990095 -44.5542399 88.98477892 -48.203125 89.109375 C-50.73146754 89.91448966 -52.92885232 90.78769645 -55.25 92.0625 C-58.80782918 94 -58.80782918 94 -61 94 C-61.495 94.99 -61.495 94.99 -62 96 C-63.70413664 93.23907588 -65.38530685 90.46486002 -67.0625 87.6875 C-67.54783203 86.90181641 -68.03316406 86.11613281 -68.53320312 85.30664062 C-68.98759766 84.54931641 -69.44199219 83.79199219 -69.91015625 83.01171875 C-70.33433838 82.31522217 -70.75852051 81.61872559 -71.19555664 80.90112305 C-72 79 -72 79 -71 76 C-69.32592773 74.92504883 -69.32592773 74.92504883 -67.18359375 73.95703125 C-66.41982422 73.60576172 -65.65605469 73.25449219 -64.86914062 72.89257812 C-64.06669922 72.53615234 -63.26425781 72.17972656 -62.4375 71.8125 C-61.63119141 71.44447266 -60.82488281 71.07644531 -59.99414062 70.69726562 C-58.00013702 69.78875511 -56.00223042 68.89019664 -54 68 C-53.98018066 66.93563721 -53.96036133 65.87127441 -53.93994141 64.7746582 C-53.86369208 60.81413693 -53.77500486 56.8539738 -53.68261719 52.89379883 C-53.64440715 51.18195686 -53.60954048 49.47003678 -53.578125 47.75805664 C-53.53230062 45.29284817 -53.47433587 42.82817367 -53.4140625 40.36328125 C-53.39673569 39.22080681 -53.39673569 39.22080681 -53.37905884 38.05525208 C-53.26625061 33.96542507 -53.06501586 30.57478931 -51 27 C-47.74415094 23.9868425 -44.15763796 21.80436455 -40.31640625 19.609375 C-39.23004883 18.98554932 -38.14369141 18.36172363 -37.02441406 17.71899414 C-35.88198242 17.06922607 -34.73955078 16.41945801 -33.5625 15.75 C-31.79646192 14.74268905 -30.03080541 13.73471154 -28.26516724 12.72669983 C-26.54653451 11.74587946 -24.82722757 10.76624076 -23.10791016 9.78662109 C-20.51659957 8.29697373 -17.94543164 6.78290953 -15.38671875 5.23828125 C-14.7537085 4.86026367 -14.12069824 4.48224609 -13.46850586 4.09277344 C-11.88574975 3.14388428 -10.30972853 2.18378515 -8.734375 1.22265625 C-5.49337489 -0.2265338 -3.52943988 -0.2748972 0 0 Z " fill="#072C76" transform="translate(440,313)"/>
<path d="M0 0 C7.02985575 0.18588561 13.41332609 1.83090614 20.03198242 4.08984375 C23.10877085 5.13516057 25.84292999 5.98150948 29.0859375 6.36328125 C33.07158704 6.83721952 35.77072063 7.48300773 38.38525391 10.70947266 C40.93939824 14.48298082 43.15921432 18.42768194 45.375 22.40625 C48.61031723 28.21468503 52.57478636 33.03743899 57 38 C57.763125 38.87140625 58.52625 39.7428125 59.3125 40.640625 C61.51221674 43.12273781 63.74457987 45.56850618 66 48 C66.54914063 48.60328125 67.09828125 49.2065625 67.6640625 49.828125 C84.6676847 67.75312574 109.41709662 81.26875213 133 88 C129.97353108 91.50433244 126.77030551 92.83709809 122.17382336 93.26006222 C120.61452587 93.26703798 120.61452587 93.26703798 119.02372742 93.27415466 C117.82519135 93.28412979 116.62665527 93.29410492 115.39179993 93.30438232 C114.08518906 93.305047 112.77857819 93.30571167 111.43237305 93.30639648 C110.03576211 93.31402206 108.63915536 93.32245025 107.24255371 93.33161926 C103.45523518 93.35353236 99.66799738 93.36235888 95.88062263 93.36744571 C93.51210373 93.37109316 91.14360585 93.37733524 88.77509499 93.3844471 C80.50540873 93.40893084 72.2357851 93.42199109 63.96606445 93.42553711 C56.26847314 93.42917122 48.57128082 93.45906017 40.87381142 93.50094169 C34.25621675 93.53568004 27.63875408 93.55108616 21.02106887 93.55178314 C17.07255589 93.55257478 13.12444954 93.56126055 9.17603111 93.58978081 C5.46005729 93.61602266 1.74482543 93.6181334 -1.97119904 93.60212517 C-3.97591833 93.59945613 -5.98062356 93.62145272 -7.98521423 93.64431763 C-16.6827104 93.57396175 -21.55667247 91.96320373 -27.98828125 86.2265625 C-33.80111458 79.1962921 -35.74372727 73.53410374 -35.453125 64.359375 C-34.66169979 58.49191225 -32.00280168 54.00381434 -29 49 C-28.06527536 47.40039988 -27.13178526 45.80007802 -26.19921875 44.19921875 C-24.01891074 40.47498013 -21.81858142 36.76342466 -19.60546875 33.05859375 C-15.17484708 25.63434179 -10.83522934 18.15750161 -6.49414062 10.68066406 C-5.93533203 9.71999023 -5.37652344 8.75931641 -4.80078125 7.76953125 C-4.30747314 6.91979736 -3.81416504 6.07006348 -3.3059082 5.19458008 C-2.25634799 3.43079307 -1.1384904 1.7077356 0 0 Z " fill="#92B1F3" transform="translate(266,441)"/>
<path d="M0 0 C3.83068743 1.72718083 7.39112773 3.85463908 11 6 C12.92700928 7.07771947 14.85670676 8.15064639 16.7890625 9.21875 C18.73486258 10.31163235 20.68017392 11.40538532 22.625 12.5 C24.08292969 13.31404297 24.08292969 13.31404297 25.5703125 14.14453125 C42.70398076 23.79373421 42.70398076 23.79373421 46 29 C46.38095093 31.38352966 46.38095093 31.38352966 46.38818359 34.05639648 C46.39764008 35.06101425 46.40709656 36.06563202 46.4168396 37.10069275 C46.41076691 38.17992508 46.40469421 39.25915741 46.3984375 40.37109375 C46.40130768 41.48557388 46.40417786 42.60005402 46.40713501 43.74830627 C46.40917582 46.10442615 46.40364481 48.46056296 46.39111328 50.81665039 C46.37507578 54.42047107 46.39095444 58.0231676 46.41015625 61.62695312 C46.40817353 63.91666914 46.40432925 66.20638446 46.3984375 68.49609375 C46.40451019 69.57330185 46.41058289 70.65050995 46.4168396 71.76036072 C46.32827428 81.198698 46.32827428 81.198698 43 85 C41.23706055 86.51293945 41.23706055 86.51293945 39.19921875 87.80078125 C38.40306152 88.30432129 37.6069043 88.80786133 36.78662109 89.32666016 C31.79113312 92.32640385 26.75610792 95.24951239 21.68774414 98.1237793 C19.8033371 99.1926976 17.92198913 100.26685019 16.04101562 101.34179688 C12.7025098 103.24373136 9.36475408 105.14466831 6 107 C5.02248779 107.56887939 4.04497559 108.13775879 3.0378418 108.72387695 C-1.68228331 110.70668608 -5.27498066 110.69603352 -10.01928711 108.78173828 C-11.0119458 108.21696777 -12.00460449 107.65219727 -13.02734375 107.0703125 C-14.70002319 106.13106934 -14.70002319 106.13106934 -16.40649414 105.17285156 C-17.58390541 104.49094062 -18.76090038 103.80831044 -19.9375 103.125 C-21.14592551 102.43633595 -22.35483148 101.74851431 -23.56420898 101.06152344 C-30.28830204 97.22432487 -36.97010911 93.309628 -43.5625 89.25 C-44.20372803 88.85699707 -44.84495605 88.46399414 -45.50561523 88.05908203 C-48.41765974 86.21694244 -50.05571046 84.91643432 -52 82 C-52.27415466 79.62283325 -52.27415466 79.62283325 -52.30639648 76.78173828 C-52.32238388 75.71698273 -52.33837128 74.65222717 -52.35484314 73.5552063 C-52.36020584 72.40519135 -52.36556854 71.25517639 -52.37109375 70.0703125 C-52.38012222 68.88782928 -52.3891507 67.70534607 -52.39845276 66.48703003 C-52.41297072 63.98372943 -52.42184581 61.48039076 -52.42553711 58.97705078 C-52.43743227 55.14681054 -52.48660574 51.3181813 -52.53710938 47.48828125 C-52.5465734 45.05729954 -52.55380853 42.62630792 -52.55859375 40.1953125 C-52.57812607 39.04934601 -52.59765839 37.90337952 -52.61778259 36.72268677 C-52.57282542 28.80001793 -52.57282542 28.80001793 -49.8203125 24.95581055 C-47.0278078 23.01928396 -44.27455651 21.18618498 -41.31640625 19.51171875 C-40.23012939 18.89111572 -39.14385254 18.2705127 -38.0246582 17.63110352 C-36.882146 16.98971436 -35.73963379 16.3483252 -34.5625 15.6875 C-33.38273168 15.02002391 -32.20328929 14.35197143 -31.02416992 13.68334961 C-28.71876266 12.37640318 -26.41169394 11.07257406 -24.10351562 9.77050781 C-21.51880589 8.29597076 -18.96272067 6.79047854 -16.421875 5.2421875 C-15.79337646 4.86360596 -15.16487793 4.48502441 -14.51733398 4.0949707 C-12.95039882 3.1460134 -11.3908378 2.18490774 -9.83203125 1.22265625 C-6.07802326 -0.39803961 -4.08319283 -0.60476298 0 0 Z " fill="#062B75" transform="translate(335,91)"/>
<path d="M0 0 C2.02539062 2.06591797 2.02539062 2.06591797 3.65625 4.9921875 C4.27918945 6.07781982 4.90212891 7.16345215 5.54394531 8.28198242 C6.19643929 9.47939582 6.8484458 10.67707497 7.5 11.875 C8.18857426 13.09557429 8.87969211 14.31471687 9.57324219 15.5324707 C11.01167911 18.06588078 12.43570387 20.60663033 13.84960938 23.15380859 C15.93265573 26.89627292 18.07386974 30.60261454 20.234375 34.30078125 C27.65535281 47.02421561 27.65535281 47.02421561 31 53 C31.63699829 54.13163574 31.63699829 54.13163574 32.28686523 55.28613281 C35.67591499 61.61436512 35.98406781 66.97695198 35 74 C33.30085809 79.01683402 30.66397729 85.20161362 26 88 C19.90338238 87.65727123 15.13003594 86.11647771 9.625 83.5625 C8.85188477 83.20905518 8.07876953 82.85561035 7.28222656 82.49145508 C-11.40911332 73.79011863 -26.98754832 63.11223412 -42 49 C-42.63808594 48.42636719 -43.27617187 47.85273438 -43.93359375 47.26171875 C-55.14303666 36.75140949 -63.89953206 23.53593738 -71 10 C-68.45134393 8.72567196 -67.69424572 9.27653667 -65 10 C-50.61710406 11.27711451 -37.63699772 9.48091283 -24 5 C-22.78828125 4.608125 -21.5765625 4.21625 -20.328125 3.8125 C-18.36069269 3.15988831 -16.39829887 2.49152321 -14.4453125 1.796875 C-9.59536619 0.21638131 -5.10976157 -0.48221144 0 0 Z " fill="#D1DBFC" transform="translate(374,441)"/>
<path d="M0 0 C4.15460299 0.45565132 7.10563759 2.00607067 10.66796875 4.125 C11.72564453 4.74890625 12.78332031 5.3728125 13.87304688 6.015625 C14.96681641 6.67046875 16.06058594 7.3253125 17.1875 8 C19.36831648 9.29195892 21.5492976 10.58363996 23.73046875 11.875 C25.17522583 12.73738281 25.17522583 12.73738281 26.64916992 13.6171875 C28.07441349 14.45554865 29.52103586 15.26051793 31 16 C31 27.22 31 38.44 31 50 C19.8125 56.3125 19.8125 56.3125 16.31176758 58.28637695 C15.39032959 58.80675537 14.4688916 59.32713379 13.51953125 59.86328125 C12.58214111 60.39219971 11.64475098 60.92111816 10.67895508 61.46606445 C7.97253061 62.97097017 7.97253061 62.97097017 5.4050293 64.75854492 C3 66 3 66 0.94042969 65.81933594 C-1.13335263 64.94369258 -3.08186848 63.99054599 -5.046875 62.890625 C-6.1915625 62.25253906 -6.1915625 62.25253906 -7.359375 61.6015625 C-8.54273438 60.93253906 -8.54273438 60.93253906 -9.75 60.25 C-10.5234375 59.81945312 -11.296875 59.38890625 -12.09375 58.9453125 C-13.64795448 58.07433214 -15.18989462 57.18110306 -16.71875 56.26635742 C-18.95288841 54.94464313 -18.95288841 54.94464313 -21.34375 54.1652832 C-23.9983293 53.06715105 -25.27764867 52.32523069 -27 50 C-28.0101772 44.20531373 -27.75160799 38.54272639 -27.5 32.6875 C-27.45985202 31.07235312 -27.42335348 29.45711113 -27.390625 27.84179688 C-27.30265046 23.89217977 -27.16474097 19.9471302 -27 16 C-26.21761963 15.55084229 -25.43523926 15.10168457 -24.62915039 14.63891602 C-21.73421244 12.97595821 -18.84009701 11.31158703 -15.9465332 9.64624023 C-14.69263 8.92496561 -13.43839908 8.2042604 -12.18383789 7.48413086 C-10.38341747 6.450543 -8.58417519 5.41493106 -6.78515625 4.37890625 C-5.70113525 3.7557251 -4.61711426 3.13254395 -3.50024414 2.49047852 C-1.14058329 1.22234919 -1.14058329 1.22234919 0 0 Z " fill="#FA8D02" transform="translate(330,113)"/>
<path d="M0 0 C2.00761457 0.97522546 3.97991824 2.02482507 5.921875 3.125 C7.02917969 3.74890625 8.13648438 4.3728125 9.27734375 5.015625 C10.42332031 5.67046875 11.56929688 6.3253125 12.75 7 C13.92284227 7.66205181 15.09601629 8.32351628 16.26953125 8.984375 C24.83069407 13.83069407 24.83069407 13.83069407 26 15 C26.48480879 19.57163583 26.65636587 24.14120017 26.78955078 28.73510742 C26.84609891 30.27531676 26.9277808 31.8148269 27.03564453 33.35229492 C27.38999261 38.5003394 27.42104062 43.00586046 26 48 C22.16244423 51.81760678 17.89678082 53.8000743 13 56 C11.53233854 56.90689549 10.08109135 57.84182743 8.66015625 58.8203125 C8.05236328 59.20960938 7.44457031 59.59890625 6.81835938 60 C5.61056041 60.77385117 4.41306137 61.56394045 3.22460938 62.3671875 C1.41015625 63.5078125 1.41015625 63.5078125 -2 65 C-6.18624627 63.95494657 -9.64692358 62.21015458 -13.328125 59.99609375 C-14.29234375 59.42052734 -15.2565625 58.84496094 -16.25 58.25195312 C-17.24 57.65318359 -18.23 57.05441406 -19.25 56.4375 C-21.23413213 55.2482926 -23.2184954 54.05947075 -25.203125 52.87109375 C-26.07614258 52.34443115 -26.94916016 51.81776855 -27.84863281 51.27514648 C-29.20608166 50.4705669 -30.58861326 49.70569337 -32 49 C-32.3234878 44.30502444 -32.5580634 39.6166106 -32.71411133 34.91308594 C-32.77916664 33.31753592 -32.86766316 31.72275186 -32.98071289 30.12988281 C-33.34695836 24.8334098 -33.40385713 20.15262209 -32 15 C-28.17189449 11.1284328 -23.94799014 9.15721515 -19 7 C-17.59764076 6.17259763 -16.20796651 5.32248038 -14.84375 4.43359375 C-13.7403125 3.77488281 -12.636875 3.11617188 -11.5 2.4375 C-9.81390625 1.41462891 -9.81390625 1.41462891 -8.09375 0.37109375 C-4.52201844 -1.21183273 -3.65515526 -1.06647589 0 0 Z " fill="#FA7C9F" transform="translate(440,337)"/>
<path d="M0 0 C3.4250513 0.88490368 5.93827685 2.14063514 8.97583008 3.9453125 C10.03479492 4.56921875 11.09375977 5.193125 12.18481445 5.8359375 C13.2747168 6.49078125 14.36461914 7.145625 15.48754883 7.8203125 C16.59678711 8.47515625 17.70602539 9.13 18.84887695 9.8046875 C26.97838529 14.62364897 26.97838529 14.62364897 28.17504883 15.8203125 C28.26352626 18.34125326 28.29032184 20.83462143 28.27270508 23.35546875 C28.27129013 24.10871933 28.26987518 24.86196991 28.26841736 25.63804626 C28.26280259 28.0530081 28.25024766 30.46787851 28.23754883 32.8828125 C28.23253573 34.51627471 28.22797249 36.14973836 28.22387695 37.78320312 C28.21282837 41.79560835 28.19555389 45.80794491 28.17504883 49.8203125 C27.42296143 50.23917725 26.67087402 50.65804199 25.89599609 51.08959961 C23.11285763 52.64066996 20.33055951 54.19323394 17.54882812 55.74682617 C16.34343546 56.41962992 15.13770718 57.09183274 13.93164062 57.76342773 C12.20070221 58.72743166 10.4710584 59.69375898 8.74145508 60.66015625 C7.69932861 61.24144287 6.65720215 61.82272949 5.58349609 62.42163086 C3.2994548 63.61045115 3.2994548 63.61045115 2.17504883 64.8203125 C-2.88478886 64.43662813 -6.3876596 63.28528091 -10.72338867 60.6953125 C-11.77913086 60.07140625 -12.83487305 59.4475 -13.92260742 58.8046875 C-15.00413086 58.14984375 -16.0856543 57.495 -17.19995117 56.8203125 C-18.30467773 56.16546875 -19.4094043 55.510625 -20.54760742 54.8359375 C-28.60772093 50.03754274 -28.60772093 50.03754274 -29.82495117 48.8203125 C-31.53452078 38.7207662 -33.4750738 25.67245372 -29.82495117 15.8203125 C-24.41819956 9.03617549 -16.33925477 5.75637121 -8.36865234 2.80883789 C-0.98040356 -0.06236082 -0.98040356 -0.06236082 0 0 Z " fill="#AFD752" transform="translate(203.824951171875,174.1796875)"/>
<path d="M0 0 C2.94719509 1.1240694 5.54555892 2.62553437 8.27050781 4.21508789 C8.84194519 4.54661362 9.41338257 4.87813934 10.00213623 5.2197113 C11.81827164 6.2747742 13.63034047 7.33660746 15.44238281 8.39868164 C16.6764953 9.11723166 17.91086757 9.83533569 19.14550781 10.55297852 C22.16415929 12.30889008 25.17920271 14.0708938 28.19238281 15.83618164 C28.41573186 20.56812703 28.57854135 25.29697908 28.68676758 30.03295898 C28.73189165 31.64157561 28.7932141 33.24982578 28.87133789 34.85717773 C29.5003311 48.13592321 29.5003311 48.13592321 26.47412109 52.06982422 C24.11748495 53.66190283 21.81496827 54.74350012 19.19238281 55.83618164 C17.63391283 56.75294776 16.08669773 57.68913516 14.55175781 58.64477539 C13.01754263 59.52499885 11.48108079 60.40131813 9.94238281 61.27368164 C9.16636719 61.73194336 8.39035156 62.19020508 7.59082031 62.66235352 C6.83542969 63.08967773 6.08003906 63.51700195 5.30175781 63.95727539 C4.63112305 64.34326904 3.96048828 64.7292627 3.26953125 65.12695312 C0.47645149 66.08063163 -0.99907476 65.71424679 -3.80761719 64.83618164 C-5.74497556 63.86372526 -7.64450309 62.81398739 -9.51074219 61.71118164 C-10.57292969 61.08727539 -11.63511719 60.46336914 -12.72949219 59.82055664 C-13.82777344 59.16571289 -14.92605469 58.51086914 -16.05761719 57.83618164 C-17.17136719 57.18133789 -18.28511719 56.52649414 -19.43261719 55.85180664 C-27.63109189 51.01270694 -27.63109189 51.01270694 -28.80761719 49.83618164 C-30.53112862 39.33425199 -32.50497528 26.05485646 -28.80761719 15.83618164 C-23.43604496 8.98612217 -15.36030965 5.71906476 -7.35131836 2.80883789 C-0.00453922 -0.00041137 -0.00453922 -0.00041137 0 0 Z " fill="#FBCA50" transform="translate(191.8076171875,315.163818359375)"/>
<path d="M0 0 C0.87640137 0.5266626 1.75280273 1.0533252 2.65576172 1.59594727 C4.10015625 2.45736328 4.10015625 2.45736328 5.57373047 3.33618164 C6.56759766 3.93881836 7.56146484 4.54145508 8.58544922 5.16235352 C9.58705078 5.76112305 10.58865234 6.35989258 11.62060547 6.97680664 C15.27788259 9.16871837 18.91234626 11.35945154 22.46044922 13.72485352 C22.91454959 16.24041628 23.16477013 18.5048452 23.28076172 21.04125977 C23.31807404 21.769711 23.35538635 22.49816223 23.39382935 23.24868774 C23.49122761 25.59535655 23.54769848 27.93898791 23.58544922 30.28735352 C23.59813843 31.07518219 23.61082764 31.86301086 23.62390137 32.67471313 C23.68522894 45.47618387 23.68522894 45.47618387 21.16845703 50.09692383 C17.86423563 53.39720459 13.89752391 54.77766798 9.47900391 56.0534668 C6.23304865 57.13309633 3.68687389 58.96905096 0.83544922 60.84985352 C-3.86377647 63.81155038 -3.86377647 63.81155038 -6.82885742 63.43115234 C-17.06611458 60.76373048 -27.68612748 55.96561491 -34.53955078 47.72485352 C-38.92772025 38.7918264 -38.76776723 27.02827894 -36.19921875 17.58227539 C-33.18885663 9.27632386 -25.04744232 5.35276921 -17.58935547 1.59814453 C-11.0820987 -1.44696429 -6.72837443 -3.37841758 0 0 Z " fill="#D0DAFC" transform="translate(454.53955078125,196.275146484375)"/>
<path d="M0 0 C24.42 0 48.84 0 74 0 C74 6.6 74 13.2 74 20 C49.58 20 25.16 20 0 20 C0 13.4 0 6.8 0 0 Z " fill="#8DACEF" transform="translate(283,283)"/>
<path d="M0 0 C0.33 0 0.66 0 1 0 C1.00546844 0.96053535 1.00546844 0.96053535 1.01104736 1.94047546 C1.05287198 8.60806513 1.12221772 15.27496642 1.20751953 21.94213867 C1.23573752 24.43002435 1.25694787 26.91799982 1.27099609 29.40600586 C1.29241321 32.98337807 1.3390602 36.55966973 1.390625 40.13671875 C1.39185364 41.24834885 1.39308228 42.35997894 1.39434814 43.5052948 C1.47312327 49.70567734 1.47312327 49.70567734 4.03808594 55.24145508 C4.68551758 55.8217749 5.33294922 56.40209473 6 57 C-2.41459495 61.2582607 -10.85499038 65.45604583 -19.375 69.5 C-20.10581787 69.84998047 -20.83663574 70.19996094 -21.58959961 70.56054688 C-26.76362079 73 -26.76362079 73 -29 73 C-29.03738281 72.19175781 -29.07476562 71.38351563 -29.11328125 70.55078125 C-29.21189453 68.94783203 -29.21189453 68.94783203 -29.3125 67.3125 C-29.39951172 65.72888672 -29.39951172 65.72888672 -29.48828125 64.11328125 C-30.04285672 60.73926101 -31.1285588 58.82399996 -33 56 C-33.495 54.515 -33.495 54.515 -34 53 C-17.665 45.08 -17.665 45.08 -1 37 C-0.67 24.79 -0.34 12.58 0 0 Z " fill="#6967F2" transform="translate(282,121)"/>
<path d="M0 0 C2.67602083 0.9939506 4.88489703 1.91449493 7.1875 3.625 C11.37842575 5.67389704 15.41479587 5.24038934 20 5 C19.39469657 18.04588183 18.31974085 31.00759981 17 44 C16.27554687 43.566875 15.55109375 43.13375 14.8046875 42.6875 C13.83789062 42.130625 12.87109375 41.57375 11.875 41 C10.92367188 40.443125 9.97234375 39.88625 8.9921875 39.3125 C4.64263381 37.40460178 1.46291367 37.51236211 -3 39 C-3.13168633 31.1329611 -2.75084305 23.39789429 -2.0625 15.5625 C-1.97548828 14.50095703 -1.88847656 13.43941406 -1.79882812 12.34570312 C-1.0742034 3.84880726 -1.0742034 3.84880726 0 0 Z " fill="#6966F6" transform="translate(434,276)"/>
<path d="M0 0 C7.37764202 4.50103848 14.48113724 9.36262996 21.5625 14.3125 C22.90199707 15.24666748 22.90199707 15.24666748 24.26855469 16.19970703 C25.1093457 16.78993652 25.95013672 17.38016602 26.81640625 17.98828125 C27.57381104 18.51977783 28.33121582 19.05127441 29.11157227 19.59887695 C31 21 31 21 33 23 C32.24074219 23.38671875 31.48148437 23.7734375 30.69921875 24.171875 C29.70535156 24.69265625 28.71148437 25.2134375 27.6875 25.75 C26.70136719 26.26046875 25.71523438 26.7709375 24.69921875 27.296875 C20.71949398 29.80796038 18.95032914 32.79929108 17 37 C8.98787553 31.52678251 0.98704147 26.03706407 -6.9375 20.4375 C-7.53385254 20.02064941 -8.13020508 19.60379883 -8.74462891 19.17431641 C-12.88380312 16.23239376 -12.88380312 16.23239376 -14 14 C-13.31292969 13.62488281 -12.62585938 13.24976563 -11.91796875 12.86328125 C-11.01691406 12.35152344 -10.11585938 11.83976563 -9.1875 11.3125 C-8.29417969 10.81363281 -7.40085937 10.31476563 -6.48046875 9.80078125 C-2.82058432 7.14376279 -1.40911227 4.22733681 0 0 Z " fill="#6965F6" transform="translate(381,168)"/>
<path d="M0 0 C3.12050587 0.94340875 5.755755 1.84124075 8.5 3.625 C11.56878328 5.3128308 13.54374852 5.30054361 17 5 C17.99 4.67 18.98 4.34 20 4 C19.73555243 7.94708208 19.4689331 11.89401134 19.20043945 15.84082031 C19.06546296 17.83130551 18.93212711 19.82190175 18.79882812 21.8125 C18.31629456 28.88965894 17.77255887 35.94819074 17 43 C13.91138451 42.06623253 11.34138401 41.23989146 8.6875 39.375 C4.80109893 37.38660875 1.27252453 37.79380331 -3 38 C-3.13217395 30.11264199 -2.74964893 22.35591545 -2.0625 14.5 C-1.97548828 13.43007813 -1.88847656 12.36015625 -1.79882812 11.2578125 C-1.12995298 3.38985894 -1.12995298 3.38985894 0 0 Z " fill="#6965F6" transform="translate(189,256)"/>
<path d="M0 0 C10.83831684 6.60213479 21.14730133 14.00170659 31 22 C30.22914063 22.4125 29.45828125 22.825 28.6640625 23.25 C22.87899429 26.33865588 22.87899429 26.33865588 18.82421875 31.24609375 C18.20974036 33.64429046 18.20974036 33.64429046 18 37 C11.78173403 33.70786946 6.0103746 30.05925642 0.3125 25.9375 C-1.12839523 24.90423493 -2.56979216 23.87166907 -4.01171875 22.83984375 C-5.02371338 22.11063721 -5.02371338 22.11063721 -6.05615234 21.36669922 C-7.84760646 20.10714632 -9.67003951 18.92563057 -11.51953125 17.75390625 C-12.33808594 17.17511719 -13.15664062 16.59632813 -14 16 C-14 15.34 -14 14.68 -14 14 C-11.56512381 12.40111319 -9.03094039 11.03870019 -6.48046875 9.6328125 C-3.20714985 7.47809234 -1.46157715 5.51061613 -0.3125 1.75 C-0.1578125 0.88375 -0.1578125 0.88375 0 0 Z " fill="#6965F6" transform="translate(241,370)"/>
<path d="M0 0 C0.33 0 0.66 0 1 0 C1.22042969 1.20269531 1.22042969 1.20269531 1.4453125 2.4296875 C4.0818733 15.79432328 8.10566771 28.78136061 14.1171875 41.03125 C15 43 15 43 15 45 C9.99892052 44.42442819 5.61183257 43.31307208 0.875 41.625 C-5.98322114 39.23754063 -12.88512755 37.47576612 -20 36 C-18.63981742 32.40075386 -17.03292649 29.10798559 -15.13671875 25.76171875 C-14.57919922 24.77623047 -14.02167969 23.79074219 -13.44726562 22.77539062 C-12.86654297 21.75638672 -12.28582031 20.73738281 -11.6875 19.6875 C-11.11837891 18.68009766 -10.54925781 17.67269531 -9.96289062 16.63476562 C-6.76888972 11.00584324 -3.55036882 5.41285738 0 0 Z " fill="#CFDAFB" transform="translate(287,405)"/>
<path d="M0 0 C0.02578125 0.88042969 0.0515625 1.76085937 0.078125 2.66796875 C0.13484375 3.82941406 0.1915625 4.99085938 0.25 6.1875 C0.29640625 7.33605469 0.3428125 8.48460937 0.390625 9.66796875 C1.25534173 14.39619548 3.69301744 16.69301744 7 20 C4.87717331 21.00460531 2.75166979 22.00355602 0.625 23 C-0.55835938 23.556875 -1.74171875 24.11375 -2.9609375 24.6875 C-6 26 -6 26 -8 26 C-8.33 26.66 -8.66 27.32 -9 28 C-10.70413664 25.23907588 -12.38530685 22.46486002 -14.0625 19.6875 C-14.79049805 18.50897461 -14.79049805 18.50897461 -15.53320312 17.30664062 C-15.98759766 16.54931641 -16.44199219 15.79199219 -16.91015625 15.01171875 C-17.33433838 14.31522217 -17.75852051 13.61872559 -18.19555664 12.90112305 C-19 11 -19 11 -18 8 C-16.34179688 6.92504883 -16.34179688 6.92504883 -14.21875 5.95703125 C-13.45949219 5.60576172 -12.70023437 5.25449219 -11.91796875 4.89257812 C-11.12003906 4.53615234 -10.32210938 4.17972656 -9.5 3.8125 C-8.70207031 3.44447266 -7.90414063 3.07644531 -7.08203125 2.69726562 C-1.18707966 0 -1.18707966 0 0 0 Z " fill="#6965F5" transform="translate(387,381)"/>
<path d="M0 0 C3.0625 1.9375 3.0625 1.9375 5 5 C5.94728069 9.67719839 5.66588027 12.93459157 3.125 17 C-0.04757815 19.98595591 -2.49199515 20.52472268 -6.890625 20.4765625 C-10.31758634 19.70232309 -11.89735018 17.68948041 -13.93359375 14.9375 C-15.51397109 12.06619171 -15.62605936 10.19985895 -15 7 C-11.71283909 0.11261524 -7.18422493 -1.18269202 0 0 Z " fill="#6B67F7" transform="translate(370,470)"/>
<path d="M0 0 C3.67123639 0.01977327 4.15668193 0.29756585 7.1875 2.8125 C8.2084375 4.0809375 8.2084375 4.0809375 9.25 5.375 C9.58 5.705 9.91 6.035 10.25 6.375 C10.54322866 9.30728663 10.75004247 11.51991883 10.25 14.375 C7.8125 17.3125 7.8125 17.3125 5.25 19.375 C4.92 19.705 4.59 20.035 4.25 20.375 C1.31771337 20.66822866 -0.89491883 20.87504247 -3.75 20.375 C-6.6875 17.9375 -6.6875 17.9375 -8.75 15.375 C-9.08 15.045 -9.41 14.715 -9.75 14.375 C-10.04322866 11.44271337 -10.25004247 9.23008117 -9.75 6.375 C-7.3125 3.4375 -7.3125 3.4375 -4.75 1.375 C-3.75 0.375 -3.75 0.375 0 0 Z " fill="#6966F6" transform="translate(279.75,471.625)"/>
<path d="M0 0 C2.86262257 2.00992648 4.64014872 3.43748788 5.4453125 6.93359375 C5.66317186 10.77518043 5.2331958 12.63465991 3.125 15.9375 C-0.10428296 19.07180405 -2.4493388 19.38788997 -6.9609375 19.36328125 C-10.349039 18.75965397 -11.91986899 16.5844052 -14 14 C-14.33 13.67 -14.66 13.34 -15 13 C-15.70983213 5.90167866 -15.70983213 5.90167866 -12.6875 2.0625 C-8.23981568 -1.35083913 -5.3598911 -1.29376682 0 0 Z " fill="#6965F6" transform="translate(338,499)"/>
</svg>
