<?xml version="1.0" encoding="UTF-8"?>
<svg version="1.1" xmlns="http://www.w3.org/2000/svg" width="640" height="640">
<path d="M0 0 C211.2 0 422.4 0 640 0 C640 211.2 640 422.4 640 640 C428.8 640 217.6 640 0 640 C0 428.8 0 217.6 0 0 Z " fill="#FEFEFE" transform="translate(0,0)"/>
<path d="M0 0 C4.43145282 1.96389265 8.50089672 4.40000668 12.625 6.9375 C13.78042233 7.63104722 14.93684319 8.32293356 16.09423828 9.01318359 C18.36927283 10.37351849 20.63610954 11.74511943 22.90039062 13.12353516 C25.54602821 14.72517114 28.20657015 16.28826665 30.890625 17.82421875 C42.43540535 24.49048549 42.43540535 24.49048549 45 29 C45.46233846 32.29019808 45.37849999 35.49868303 45.25 38.8125 C45.23195313 39.69615234 45.21390625 40.57980469 45.1953125 41.49023438 C45.14838513 43.66062543 45.07664731 45.83045519 45 48 C45.59200195 47.99476318 46.18400391 47.98952637 46.79394531 47.98413086 C60.5680255 47.87929923 74.25113524 48.15669614 88 49 C87.91298828 47.80503906 87.91298828 47.80503906 87.82421875 46.5859375 C87.77910156 45.52632812 87.73398437 44.46671875 87.6875 43.375 C87.60048828 41.80878906 87.60048828 41.80878906 87.51171875 40.2109375 C88.15831225 35.95893864 89.81001817 33.71522806 93 31 C96.6320019 28.53310598 100.41693959 26.38729564 104.25 24.25 C106.41338379 23.02584057 108.57614075 21.80057277 110.73828125 20.57421875 C112.332771 19.67388916 112.332771 19.67388916 113.95947266 18.75537109 C116.69847883 17.17407558 119.37682604 15.53240775 122.04296875 13.83203125 C123.16880371 13.12481934 123.16880371 13.12481934 124.31738281 12.40332031 C125.68376651 11.53918175 127.03966999 10.65812969 128.38183594 9.75683594 C132.56577773 7.15529644 135.72029594 6.43029208 140.60961914 7.26782227 C145.33241238 8.71442189 149.34769712 11.31625505 153.5 13.9375 C155.43577661 15.12568666 157.37197973 16.31317872 159.30859375 17.5 C160.26362793 18.09167969 161.21866211 18.68335937 162.20263672 19.29296875 C164.7883521 20.87084639 167.39694141 22.38701943 170.03515625 23.875 C170.8034375 24.31078369 171.57171875 24.74656738 172.36328125 25.19555664 C173.78209514 25.99678957 175.20501835 26.79080932 176.6328125 27.57592773 C177.27089844 27.94145752 177.90898437 28.3069873 178.56640625 28.68359375 C179.11240479 28.98837646 179.65840332 29.29315918 180.22094727 29.60717773 C183.89672156 32.48494532 186.57444204 34.79569156 187.47471619 39.4589386 C187.678354 42.48199143 187.71913252 45.46620005 187.69921875 48.49609375 C187.70995171 50.15645409 187.70995171 50.15645409 187.72090149 51.85035706 C187.72866942 54.18611853 187.72368574 56.52195275 187.70678711 58.85766602 C187.68757927 62.42278712 187.72694556 65.98400027 187.77148438 69.54882812 C187.77177478 71.82291898 187.76863355 74.09701339 187.76171875 76.37109375 C187.77700119 77.43170517 187.79228363 78.49231659 187.80802917 79.58506775 C187.71182229 85.7257847 186.95434251 89.25264551 182.57792664 93.68264771 C180.24288447 95.63208761 177.84213408 97.07893296 175.125 98.4375 C173.67480469 99.17806641 173.67480469 99.17806641 172.1953125 99.93359375 C171.47085937 100.28550781 170.74640625 100.63742188 170 101 C171.40781934 105.60022315 173.28528394 109.81001019 175.4765625 114.078125 C175.80667328 114.73077332 176.13678406 115.38342163 176.47689819 116.05584717 C177.52238664 118.12256004 178.57303893 120.18657499 179.625 122.25 C181.01758279 124.98209074 182.40490831 127.71675635 183.7890625 130.453125 C184.11089508 131.08019348 184.43272766 131.70726196 184.76431274 132.35333252 C187 136.77444448 187 136.77444448 187 139 C187.70125 138.566875 188.4025 138.13375 189.125 137.6875 C190.07375 137.130625 191.0225 136.57375 192 136 C192.928125 135.443125 193.85625 134.88625 194.8125 134.3125 C198.76735058 132.68403211 201.84388202 132.10915203 206 133 C210.15772261 134.7725028 213.9903031 137.01113928 217.875 139.3125 C218.96893066 139.94462402 220.06286133 140.57674805 221.18994141 141.22802734 C224.47141064 143.13322642 227.73679178 145.06372907 231 147 C231.94617188 147.55381348 232.89234375 148.10762695 233.8671875 148.67822266 C236.37737492 150.14817295 238.87859454 151.63178644 241.375 153.125 C242.11089355 153.56110596 242.84678711 153.99721191 243.60498047 154.4465332 C244.27932129 154.85863037 244.95366211 155.27072754 245.6484375 155.6953125 C246.22770996 156.04609863 246.80698242 156.39688477 247.40380859 156.75830078 C250.20219755 158.93520598 251.83219413 160.94030672 252.39440918 164.49069214 C252.40282837 165.42301666 252.41124756 166.35534119 252.41992188 167.31591797 C252.43583374 168.3773703 252.45174561 169.43882263 252.46813965 170.53244019 C252.46844177 172.24501511 252.46844177 172.24501511 252.46875 173.9921875 C252.47636353 175.17088409 252.48397705 176.34958069 252.49182129 177.56399536 C252.50262594 180.05712771 252.50547394 182.55030533 252.50097656 185.04345703 C252.50000536 188.85396068 252.54160407 192.66244392 252.5859375 196.47265625 C252.59114531 198.89582914 252.59383268 201.31900902 252.59375 203.7421875 C252.61014526 204.87985565 252.62654053 206.0175238 252.64343262 207.18966675 C252.56651182 216.01599499 252.56651182 216.01599499 249.8137207 219.54418945 C247.09150834 221.92013168 244.53424102 223.78351516 241.38671875 225.55078125 C240.31075439 226.16300537 239.23479004 226.77522949 238.1262207 227.40600586 C236.42405396 228.34972046 236.42405396 228.34972046 234.6875 229.3125 C233.5127636 229.97249706 232.33853108 230.63339177 231.16479492 231.29516602 C228.84543486 232.60142102 226.52289556 233.90135801 224.19824219 235.19824219 C221.43405478 236.75547143 218.69927667 238.34835009 215.9765625 239.9765625 C214.90015503 240.6121106 214.90015503 240.6121106 213.80200195 241.26049805 C212.52335317 242.01695476 211.25046454 242.78328133 209.98510742 243.56176758 C205.81771053 245.9832108 202.77635953 246.63790232 198 246 C195.35260687 244.91475264 192.98350617 243.51665149 190.5625 242 C189.92634766 241.6184375 189.29019531 241.236875 188.63476562 240.84375 C187.08155008 239.90948501 185.53955137 238.95661444 184 238 C180.82880658 240.95781947 178.53325159 244.02505549 176.21484375 247.68359375 C175.17166992 249.32231445 175.17166992 249.32231445 174.10742188 250.99414062 C173.38405193 252.1418876 172.66074518 253.2896744 171.9375 254.4375 C171.21074575 255.58167207 170.48353619 256.72555507 169.75585938 257.86914062 C166.78525345 262.54984467 163.83571215 267.23606891 161 272 C161.60328125 272.37511719 162.2065625 272.75023437 162.828125 273.13671875 C163.62734375 273.64847656 164.4265625 274.16023438 165.25 274.6875 C166.03890625 275.18636719 166.8278125 275.68523437 167.640625 276.19921875 C171.08439722 278.82766079 173.6607914 280.89163958 174.38265991 285.37843323 C174.54699793 288.4034867 174.5804371 291.40405593 174.56640625 294.43359375 C174.57260483 295.54428726 174.57880341 296.65498077 174.58518982 297.79933167 C174.59228507 300.14526494 174.58911921 302.49124859 174.57641602 304.8371582 C174.56256114 308.42168127 174.59661642 312.00358837 174.63476562 315.58789062 C174.63571695 317.8697923 174.6338573 320.15169724 174.62890625 322.43359375 C174.64216446 323.50250351 174.65542267 324.57141327 174.66908264 325.67271423 C174.56550772 333.97373004 174.56550772 333.97373004 171.87402344 337.4675293 C168.84491035 340.13665859 165.9133722 342.12131777 162.38671875 344.0859375 C161.46509697 344.60590805 161.46509697 344.60590805 160.52485657 345.13638306 C158.58520527 346.22733947 156.63676068 347.30132628 154.6875 348.375 C153.36070757 349.1173816 152.03452907 349.86086156 150.70898438 350.60546875 C147.47964928 352.41638647 144.24221502 354.21222173 141 356 C141.60353604 358.85368436 142.45311987 361.03737629 143.9765625 363.51953125 C144.39284912 364.20088135 144.80913574 364.88223145 145.23803711 365.58422852 C145.69573486 366.31955811 146.15343262 367.0548877 146.625 367.8125 C147.10138916 368.587146 147.57777832 369.36179199 148.06860352 370.15991211 C150.95216379 374.81437692 153.91295391 379.4125804 156.92578125 383.984375 C157.59077637 384.99395264 158.25577148 386.00353027 158.94091797 387.04370117 C160.24437214 389.0145022 161.5543173 390.98102987 162.87158203 392.94262695 C171.00601441 405.21107484 176.3657861 418.47525007 173.53515625 433.4609375 C169.90249861 447.08877739 161.88282744 458.21985723 149.6875 465.4375 C138.09967568 471.03178535 126.02203901 471.52994086 113.41796875 471.87890625 C111.71629322 471.93588214 110.01465868 471.99409374 108.31306458 472.05345154 C103.83914136 472.20667839 99.36489321 472.34532081 94.89038086 472.48010254 C87.8585741 472.69446753 80.82746952 472.93145132 73.7963295 473.16651535 C72.04318615 473.22480597 70.29001965 473.28240465 68.5368309 473.33931351 C53.5084295 473.82790701 38.49580529 474.52240447 23.48295593 475.36195374 C16.07365017 475.76828402 8.67181613 476.09643241 1.25073242 476.15844727 C-0.61727776 476.17440697 -0.61727776 476.17440697 -2.52302551 476.19068909 C-15.15480361 475.49791948 -26.42018156 468.46721177 -34.95703125 459.4921875 C-42.49317287 450.29895929 -45.35116883 440.43348436 -45.4375 428.75 C-45.47037109 427.98042969 -45.50324219 427.21085937 -45.53710938 426.41796875 C-45.64909213 414.05914475 -38.01260387 402.80120505 -32.4375 392.125 C-31.7322749 390.76627094 -31.02719851 389.40746468 -30.32226562 388.04858398 C-24.37514782 376.61160342 -18.25473138 365.27184742 -12 354 C-13.2478125 354.13148438 -14.495625 354.26296875 -15.78125 354.3984375 C-22.38531811 354.38553893 -27.05138563 351.04199449 -32.5 347.625 C-34.61966632 346.33703326 -36.73945883 345.0492742 -38.859375 343.76171875 C-39.89642578 343.12282715 -40.93347656 342.48393555 -42.00195312 341.82568359 C-44.71164848 340.17559386 -47.44251973 338.58247346 -50.203125 337.01953125 C-50.97849609 336.57851074 -51.75386719 336.13749023 -52.55273438 335.68310547 C-53.97264995 334.87817111 -55.39563984 334.07862526 -56.82226562 333.28564453 C-60.85430068 330.96176733 -63.61674327 329.01069151 -66 325 C-66.59672946 321.1897224 -66.56036062 317.41670184 -66.53125 313.56640625 C-66.53699036 311.90036598 -66.53699036 311.90036598 -66.54284668 310.20066833 C-66.54556535 307.85471692 -66.53820745 305.50873518 -66.52148438 303.1628418 C-66.50009592 299.5785737 -66.52127881 295.99631479 -66.546875 292.41210938 C-66.54423132 290.13020392 -66.53910552 287.84829971 -66.53125 285.56640625 C-66.53934692 284.49749649 -66.54744385 283.42858673 -66.55578613 282.32728577 C-66.47948742 276.24895394 -66.11146151 272.5962861 -62 268 C-58.984375 265.8828125 -58.984375 265.8828125 -55.75 264.125 C-54.67234375 263.52945312 -53.5946875 262.93390625 -52.484375 262.3203125 C-51.66453125 261.88460938 -50.8446875 261.44890625 -50 261 C-50.46148437 260.07703125 -50.92296875 259.1540625 -51.3984375 258.203125 C-56.93229167 247.13541667 -62.46614583 236.06770833 -68 225 C-70.63326146 225.57954259 -72.35821432 226.20353086 -74.75 227.5625 C-78.68475723 229.30287339 -81.80383322 229.72673253 -86 229 C-89.79044739 227.42512206 -93.23851984 225.3652778 -96.75 223.25 C-98.24116333 222.37722412 -98.24116333 222.37722412 -99.76245117 221.48681641 C-101.82403595 220.27619756 -103.88090567 219.05751537 -105.93310547 217.83105469 C-108.90377423 216.05745051 -111.88875743 214.3108243 -114.87890625 212.5703125 C-116.69090351 211.50656877 -118.5021376 210.44152368 -120.3125 209.375 C-121.15973633 208.8790332 -122.00697266 208.38306641 -122.87988281 207.87207031 C-124.04729004 207.17355957 -124.04729004 207.17355957 -125.23828125 206.4609375 C-125.91930908 206.05665527 -126.60033691 205.65237305 -127.30200195 205.23583984 C-129 204 -129 204 -131 201 C-131.28761292 198.62956238 -131.28761292 198.62956238 -131.33813477 195.79760742 C-131.36057755 194.73607956 -131.38302032 193.6745517 -131.40614319 192.58085632 C-131.41778 191.43397842 -131.42941681 190.28710052 -131.44140625 189.10546875 C-131.45517807 187.92535721 -131.46894989 186.74524567 -131.48313904 185.52937317 C-131.50642918 183.03029073 -131.52368531 180.53114593 -131.53540039 178.03198242 C-131.56232572 174.21222394 -131.63722417 170.39523274 -131.71289062 166.57617188 C-131.72954756 164.14845615 -131.74331411 161.72071852 -131.75390625 159.29296875 C-131.79868858 157.58176094 -131.79868858 157.58176094 -131.84437561 155.83598328 C-131.80176237 148.13551364 -131.80176237 148.13551364 -129.61759949 145.04214478 C-127.83046397 143.45074116 -126.05676244 142.21882159 -124 141 C-122.94192139 140.32195312 -121.88384277 139.64390625 -120.79370117 138.9453125 C-119.18458862 138.04425781 -119.18458862 138.04425781 -117.54296875 137.125 C-116.95510086 136.79258301 -116.36723297 136.46016602 -115.7615509 136.11767578 C-113.90753627 135.07113365 -112.04787418 134.03518668 -110.1875 133 C-108.34490289 131.9657978 -106.50356655 130.92938559 -104.66259766 129.89228821 C-103.46571549 129.21852658 -102.26797108 128.54629421 -101.06933594 127.87565613 C-96.66136294 125.40206166 -92.34464832 122.80269315 -88.06713867 120.1105957 C-85.50035898 118.73156171 -83.14482087 118.11450669 -80.21484375 118.32421875 C-75.97441618 119.61803527 -72.33919442 122.07944432 -68.63671875 124.46875 C-66.07580685 126.25109866 -66.07580685 126.25109866 -63 126 C-61.35313058 123.71711945 -59.91946834 121.48279293 -58.5 119.0625 C-57.6203687 117.60043031 -56.73878631 116.13953307 -55.85546875 114.6796875 C-55.16396729 113.53258301 -55.16396729 113.53258301 -54.45849609 112.36230469 C-52.97475659 109.95911363 -51.43290279 107.60569866 -49.86328125 105.2578125 C-49.35410156 104.49331787 -48.84492188 103.72882324 -48.3203125 102.94116211 C-47.32622969 101.45534955 -46.32506633 99.97424645 -45.31640625 98.49829102 C-44.13317981 96.71473866 -43.05622834 94.86157609 -42 93 C-43.34403703 88.96788892 -45.39015317 88.43043352 -48.9921875 86.4765625 C-51.7146179 84.47446388 -52.59164962 83.13241619 -54 80 C-54.47158871 76.19124343 -54.46802887 72.40069866 -54.46875 68.56640625 C-54.48017029 66.90036598 -54.48017029 66.90036598 -54.49182129 65.20066833 C-54.50261342 62.85474899 -54.50547902 60.50878164 -54.50097656 58.1628418 C-54.50000433 54.5784476 -54.54163788 50.9961946 -54.5859375 47.41210938 C-54.59114473 45.13021279 -54.59383269 42.84830878 -54.59375 40.56640625 C-54.61014526 39.49749649 -54.62654053 38.42858673 -54.64343262 37.32728577 C-54.56654135 29.02731405 -54.56654135 29.02731405 -51.69116211 25.421875 C-49.58497538 23.5264407 -47.84045889 21.97594299 -45.34765625 20.68359375 C-44.66437256 20.3179834 -43.98108887 19.95237305 -43.27709961 19.57568359 C-42.54628174 19.20008301 -41.81546387 18.82448242 -41.0625 18.4375 C-35.68845966 15.5921891 -30.40736358 12.6777114 -25.2421875 9.46484375 C-24.27659912 8.86937744 -23.31101074 8.27391113 -22.31616211 7.66040039 C-20.43510677 6.49373448 -18.56300478 5.31247336 -16.70141602 4.11499023 C-11.13341096 0.69600367 -6.55749147 -1.72047434 0 0 Z " fill="#072C76" transform="translate(260,106)"/>
<path d="M0 0 C4.43145282 1.96389265 8.50089672 4.40000668 12.625 6.9375 C13.78042233 7.63104722 14.93684319 8.32293356 16.09423828 9.01318359 C18.36927283 10.37351849 20.63610954 11.74511943 22.90039062 13.12353516 C25.54602821 14.72517114 28.20657015 16.28826665 30.890625 17.82421875 C42.43540535 24.49048549 42.43540535 24.49048549 45 29 C45.46233846 32.29019808 45.37849999 35.49868303 45.25 38.8125 C45.23195313 39.69615234 45.21390625 40.57980469 45.1953125 41.49023438 C45.14838513 43.66062543 45.07664731 45.83045519 45 48 C45.59200195 47.99476318 46.18400391 47.98952637 46.79394531 47.98413086 C60.5680255 47.87929923 74.25113524 48.15669614 88 49 C87.91298828 47.80503906 87.91298828 47.80503906 87.82421875 46.5859375 C87.77910156 45.52632812 87.73398437 44.46671875 87.6875 43.375 C87.60048828 41.80878906 87.60048828 41.80878906 87.51171875 40.2109375 C88.15831225 35.95893864 89.81001817 33.71522806 93 31 C96.6320019 28.53310598 100.41693959 26.38729564 104.25 24.25 C106.41338379 23.02584057 108.57614075 21.80057277 110.73828125 20.57421875 C112.332771 19.67388916 112.332771 19.67388916 113.95947266 18.75537109 C116.69847883 17.17407558 119.37682604 15.53240775 122.04296875 13.83203125 C123.16880371 13.12481934 123.16880371 13.12481934 124.31738281 12.40332031 C125.68376651 11.53918175 127.03966999 10.65812969 128.38183594 9.75683594 C132.56577773 7.15529644 135.72029594 6.43029208 140.60961914 7.26782227 C145.33241238 8.71442189 149.34769712 11.31625505 153.5 13.9375 C155.43577661 15.12568666 157.37197973 16.31317872 159.30859375 17.5 C160.26362793 18.09167969 161.21866211 18.68335937 162.20263672 19.29296875 C164.7883521 20.87084639 167.39694141 22.38701943 170.03515625 23.875 C170.8034375 24.31078369 171.57171875 24.74656738 172.36328125 25.19555664 C173.78209514 25.99678957 175.20501835 26.79080932 176.6328125 27.57592773 C177.27089844 27.94145752 177.90898437 28.3069873 178.56640625 28.68359375 C179.11240479 28.98837646 179.65840332 29.29315918 180.22094727 29.60717773 C183.89672156 32.48494532 186.57444204 34.79569156 187.47471619 39.4589386 C187.678354 42.48199143 187.71913252 45.46620005 187.69921875 48.49609375 C187.70995171 50.15645409 187.70995171 50.15645409 187.72090149 51.85035706 C187.72866942 54.18611853 187.72368574 56.52195275 187.70678711 58.85766602 C187.68757927 62.42278712 187.72694556 65.98400027 187.77148438 69.54882812 C187.77177478 71.82291898 187.76863355 74.09701339 187.76171875 76.37109375 C187.77700119 77.43170517 187.79228363 78.49231659 187.80802917 79.58506775 C187.71182229 85.7257847 186.95434251 89.25264551 182.57792664 93.68264771 C180.24288447 95.63208761 177.84213408 97.07893296 175.125 98.4375 C173.67480469 99.17806641 173.67480469 99.17806641 172.1953125 99.93359375 C171.47085937 100.28550781 170.74640625 100.63742188 170 101 C171.40781934 105.60022315 173.28528394 109.81001019 175.4765625 114.078125 C175.80667328 114.73077332 176.13678406 115.38342163 176.47689819 116.05584717 C177.52238664 118.12256004 178.57303893 120.18657499 179.625 122.25 C181.01758279 124.98209074 182.40490831 127.71675635 183.7890625 130.453125 C184.11089508 131.08019348 184.43272766 131.70726196 184.76431274 132.35333252 C187 136.77444448 187 136.77444448 187 139 C187.70125 138.566875 188.4025 138.13375 189.125 137.6875 C190.07375 137.130625 191.0225 136.57375 192 136 C192.928125 135.443125 193.85625 134.88625 194.8125 134.3125 C198.76735058 132.68403211 201.84388202 132.10915203 206 133 C210.15772261 134.7725028 213.9903031 137.01113928 217.875 139.3125 C218.96893066 139.94462402 220.06286133 140.57674805 221.18994141 141.22802734 C224.47141064 143.13322642 227.73679178 145.06372907 231 147 C231.94617188 147.55381348 232.89234375 148.10762695 233.8671875 148.67822266 C236.37737492 150.14817295 238.87859454 151.63178644 241.375 153.125 C242.11089355 153.56110596 242.84678711 153.99721191 243.60498047 154.4465332 C244.27932129 154.85863037 244.95366211 155.27072754 245.6484375 155.6953125 C246.22770996 156.04609863 246.80698242 156.39688477 247.40380859 156.75830078 C250.20219755 158.93520598 251.83219413 160.94030672 252.39440918 164.49069214 C252.40282837 165.42301666 252.41124756 166.35534119 252.41992188 167.31591797 C252.43583374 168.3773703 252.45174561 169.43882263 252.46813965 170.53244019 C252.46844177 172.24501511 252.46844177 172.24501511 252.46875 173.9921875 C252.47636353 175.17088409 252.48397705 176.34958069 252.49182129 177.56399536 C252.50262594 180.05712771 252.50547394 182.55030533 252.50097656 185.04345703 C252.50000536 188.85396068 252.54160407 192.66244392 252.5859375 196.47265625 C252.59114531 198.89582914 252.59383268 201.31900902 252.59375 203.7421875 C252.61014526 204.87985565 252.62654053 206.0175238 252.64343262 207.18966675 C252.56651182 216.01599499 252.56651182 216.01599499 249.8137207 219.54418945 C247.09150834 221.92013168 244.53424102 223.78351516 241.38671875 225.55078125 C240.31075439 226.16300537 239.23479004 226.77522949 238.1262207 227.40600586 C236.42405396 228.34972046 236.42405396 228.34972046 234.6875 229.3125 C233.5127636 229.97249706 232.33853108 230.63339177 231.16479492 231.29516602 C228.84543486 232.60142102 226.52289556 233.90135801 224.19824219 235.19824219 C221.43405478 236.75547143 218.69927667 238.34835009 215.9765625 239.9765625 C214.90015503 240.6121106 214.90015503 240.6121106 213.80200195 241.26049805 C212.52335317 242.01695476 211.25046454 242.78328133 209.98510742 243.56176758 C205.81771053 245.9832108 202.77635953 246.63790232 198 246 C195.35260687 244.91475264 192.98350617 243.51665149 190.5625 242 C189.92634766 241.6184375 189.29019531 241.236875 188.63476562 240.84375 C187.08155008 239.90948501 185.53955137 238.95661444 184 238 C180.82443025 240.95453852 178.57004676 244.00362332 176.28515625 247.68359375 C175.59873047 248.77607422 174.91230469 249.86855469 174.20507812 250.99414062 C173.13254836 252.71533639 172.06225645 254.43789272 170.9934082 256.16137695 C169.95041746 257.83893966 168.89910851 259.5113215 167.84765625 261.18359375 C167.22898682 262.17931396 166.61031738 263.17503418 165.97290039 264.20092773 C164 267 164 267 159 272 C150.585 267.05 150.585 267.05 142 262 C145.61243075 256.29245337 149.24575131 250.60352692 152.96484375 244.96484375 C153.61904297 243.97162109 154.27324219 242.97839844 154.94726562 241.95507812 C156.29853709 239.90629067 157.65280923 237.85947977 159.00976562 235.81445312 C159.65494141 234.83283203 160.30011719 233.85121094 160.96484375 232.83984375 C161.84064087 231.51521118 161.84064087 231.51521118 162.73413086 230.16381836 C164.16831817 228.13010091 164.16831817 228.13010091 164 226 C161.56075673 224.43943348 159.02980899 223.10262446 156.48046875 221.73046875 C153.42025409 219.59554734 152.51760402 218.44554616 151 215 C150.52983209 211.11803361 150.53197008 207.25451811 150.53125 203.34765625 C150.52363647 202.21476669 150.51602295 201.08187714 150.50817871 199.91465759 C150.49738566 197.52165936 150.49452135 195.12861404 150.49902344 192.7355957 C150.49999567 189.07878931 150.45836287 185.42408166 150.4140625 181.76757812 C150.4088553 179.44010853 150.40616731 177.11263166 150.40625 174.78515625 C150.38985474 173.69437271 150.37345947 172.60358917 150.35656738 171.47975159 C150.43345358 163.01490597 150.43345358 163.01490597 153.34692383 159.39575195 C156.15359151 156.86130546 158.88781994 154.96954165 162.1875 153.125 C163.23292969 152.52945313 164.27835937 151.93390625 165.35546875 151.3203125 C168 150 168 150 170 150 C163.84062979 137.5705408 157.62573328 125.18831165 151 113 C150.27554687 113.3609375 149.55109375 113.721875 148.8046875 114.09375 C147.35449219 114.78984375 147.35449219 114.78984375 145.875 115.5 C144.92367188 115.9640625 143.97234375 116.428125 142.9921875 116.90625 C138.49856832 118.5488262 135.36906779 118.60325476 130.95483398 116.65820312 C129.36650757 115.72911133 129.36650757 115.72911133 127.74609375 114.78125 C126.87284203 114.277005 126.87284203 114.277005 125.98194885 113.76257324 C124.12651599 112.68702105 122.28221532 111.59380995 120.4375 110.5 C119.22658006 109.79572416 118.01499566 109.09258948 116.80273438 108.390625 C113.7857587 106.63785885 110.78617422 104.85759915 107.79217529 103.06591797 C105.99368166 101.99624209 104.18539873 100.94474811 102.37548828 99.89453125 C90.83599331 93.1268529 90.83599331 93.1268529 88 88 C87.46764441 84.83460363 87.52176107 81.8224865 87.6875 78.625 C87.72133789 77.37783203 87.72133789 77.37783203 87.75585938 76.10546875 C87.81436346 74.06952647 87.90403205 72.03452055 88 70 C87.24203125 70.02320313 86.4840625 70.04640625 85.703125 70.0703125 C72.09172049 70.28587773 58.56028393 69.06744829 45 68 C45.08701172 69.30324219 45.08701172 69.30324219 45.17578125 70.6328125 C45.54073376 79.95474233 45.54073376 79.95474233 43.25 84.3828125 C38.90512298 88.47444177 33.22040962 91.09249181 28 93.875 C25.74623414 95.10333967 23.49361802 96.33379135 21.2421875 97.56640625 C20.16420898 98.15437988 19.08623047 98.74235352 17.97558594 99.34814453 C13.29324635 101.94748073 8.76914959 104.76194665 4.2578125 107.64453125 C0.0271446 110.18439589 -4.17926784 110.97789812 -9 110 C-12.29068848 108.35259651 -15.35922939 106.51006125 -18.4609375 104.53125 C-20.79126655 102.82785605 -20.79126655 102.82785605 -23 103 C-24.73624993 105.44667318 -26.35022398 107.89593105 -27.9375 110.4375 C-28.92166284 111.98711393 -29.9060446 113.53658884 -30.890625 115.0859375 C-31.39916016 115.8912793 -31.90769531 116.69662109 -32.43164062 117.52636719 C-34.98748572 121.55747281 -37.58913113 125.55872944 -40.1875 129.5625 C-41.11870928 131.0011599 -42.04971928 132.43994883 -42.98046875 133.87890625 C-43.98013672 135.42384766 -43.98013672 135.42384766 -45 137 C-44.319375 137.53625 -43.63875 138.0725 -42.9375 138.625 C-41.968125 139.40875 -40.99875 140.1925 -40 141 C-39.1149881 141.55179176 -39.1149881 141.55179176 -38.21209717 142.11473083 C-35.11466951 144.24997917 -33.28470507 145.86352412 -32.35144043 149.58889771 C-32.10615602 152.81992554 -32.08224342 155.98275174 -32.140625 159.22265625 C-32.13867126 160.40089462 -32.13671753 161.579133 -32.13470459 162.79307556 C-32.13869735 165.27855718 -32.15993526 167.76406311 -32.19726562 170.24926758 C-32.24987583 174.05352121 -32.2384229 177.85370976 -32.21875 181.65820312 C-32.23056324 184.07554247 -32.24606345 186.49286719 -32.265625 188.91015625 C-32.26177795 190.04671158 -32.25793091 191.18326691 -32.25396729 192.35426331 C-32.41820367 200.2006452 -32.41820367 200.2006452 -35.22241211 204.0534668 C-37.83839506 205.88674728 -40.40424238 207.64540349 -43.17578125 209.234375 C-44.65401367 210.08974854 -44.65401367 210.08974854 -46.16210938 210.96240234 C-47.20173828 211.55230957 -48.24136719 212.1422168 -49.3125 212.75 C-50.38177734 213.36182129 -51.45105469 213.97364258 -52.55273438 214.60400391 C-54.70104744 215.83221115 -56.85092805 217.05768098 -59.00244141 218.28027344 C-61.64062897 219.79382558 -64.25255788 221.34092928 -66.85546875 222.9140625 C-67.56598389 223.3359082 -68.27649902 223.75775391 -69.00854492 224.19238281 C-70.28847423 224.95246342 -71.56150352 225.72435327 -72.82543945 226.51074219 C-77.16051949 229.03806643 -81.093234 230.07213055 -86 229 C-89.78299028 227.4057826 -93.23763088 225.3658133 -96.75 223.25 C-98.24116333 222.37722412 -98.24116333 222.37722412 -99.76245117 221.48681641 C-101.82403595 220.27619756 -103.88090567 219.05751537 -105.93310547 217.83105469 C-108.90377423 216.05745051 -111.88875743 214.3108243 -114.87890625 212.5703125 C-116.69090351 211.50656877 -118.5021376 210.44152368 -120.3125 209.375 C-121.15973633 208.8790332 -122.00697266 208.38306641 -122.87988281 207.87207031 C-124.04729004 207.17355957 -124.04729004 207.17355957 -125.23828125 206.4609375 C-125.91930908 206.05665527 -126.60033691 205.65237305 -127.30200195 205.23583984 C-129 204 -129 204 -131 201 C-131.28761292 198.62956238 -131.28761292 198.62956238 -131.33813477 195.79760742 C-131.36057755 194.73607956 -131.38302032 193.6745517 -131.40614319 192.58085632 C-131.41778 191.43397842 -131.42941681 190.28710052 -131.44140625 189.10546875 C-131.45517807 187.92535721 -131.46894989 186.74524567 -131.48313904 185.52937317 C-131.50642918 183.03029073 -131.52368531 180.53114593 -131.53540039 178.03198242 C-131.56232572 174.21222394 -131.63722417 170.39523274 -131.71289062 166.57617188 C-131.72954756 164.14845615 -131.74331411 161.72071852 -131.75390625 159.29296875 C-131.79868858 157.58176094 -131.79868858 157.58176094 -131.84437561 155.83598328 C-131.80176237 148.13551364 -131.80176237 148.13551364 -129.61759949 145.04214478 C-127.83046397 143.45074116 -126.05676244 142.21882159 -124 141 C-122.94192139 140.32195312 -121.88384277 139.64390625 -120.79370117 138.9453125 C-119.18458862 138.04425781 -119.18458862 138.04425781 -117.54296875 137.125 C-116.95510086 136.79258301 -116.36723297 136.46016602 -115.7615509 136.11767578 C-113.90753627 135.07113365 -112.04787418 134.03518668 -110.1875 133 C-108.34490289 131.9657978 -106.50356655 130.92938559 -104.66259766 129.89228821 C-103.46571549 129.21852658 -102.26797108 128.54629421 -101.06933594 127.87565613 C-96.66136294 125.40206166 -92.34464832 122.80269315 -88.06713867 120.1105957 C-85.50035898 118.73156171 -83.14482087 118.11450669 -80.21484375 118.32421875 C-75.97441618 119.61803527 -72.33919442 122.07944432 -68.63671875 124.46875 C-66.07580685 126.25109866 -66.07580685 126.25109866 -63 126 C-61.35313058 123.71711945 -59.91946834 121.48279293 -58.5 119.0625 C-57.6203687 117.60043031 -56.73878631 116.13953307 -55.85546875 114.6796875 C-55.16396729 113.53258301 -55.16396729 113.53258301 -54.45849609 112.36230469 C-52.97475659 109.95911363 -51.43290279 107.60569866 -49.86328125 105.2578125 C-49.35410156 104.49331787 -48.84492188 103.72882324 -48.3203125 102.94116211 C-47.32622969 101.45534955 -46.32506633 99.97424645 -45.31640625 98.49829102 C-44.13317981 96.71473866 -43.05622834 94.86157609 -42 93 C-43.34403703 88.96788892 -45.39015317 88.43043352 -48.9921875 86.4765625 C-51.7146179 84.47446388 -52.59164962 83.13241619 -54 80 C-54.47158871 76.19124343 -54.46802887 72.40069866 -54.46875 68.56640625 C-54.48017029 66.90036598 -54.48017029 66.90036598 -54.49182129 65.20066833 C-54.50261342 62.85474899 -54.50547902 60.50878164 -54.50097656 58.1628418 C-54.50000433 54.5784476 -54.54163788 50.9961946 -54.5859375 47.41210938 C-54.59114473 45.13021279 -54.59383269 42.84830878 -54.59375 40.56640625 C-54.61014526 39.49749649 -54.62654053 38.42858673 -54.64343262 37.32728577 C-54.56654135 29.02731405 -54.56654135 29.02731405 -51.69116211 25.421875 C-49.58497538 23.5264407 -47.84045889 21.97594299 -45.34765625 20.68359375 C-44.66437256 20.3179834 -43.98108887 19.95237305 -43.27709961 19.57568359 C-42.54628174 19.20008301 -41.81546387 18.82448242 -41.0625 18.4375 C-35.68845966 15.5921891 -30.40736358 12.6777114 -25.2421875 9.46484375 C-24.27659912 8.86937744 -23.31101074 8.27391113 -22.31616211 7.66040039 C-20.43510677 6.49373448 -18.56300478 5.31247336 -16.70141602 4.11499023 C-11.13341096 0.69600367 -6.55749147 -1.72047434 0 0 Z " fill="#082C75" transform="translate(260,106)"/>
<path d="M0 0 C30.33290997 0.9874945 30.33290997 0.9874945 43 2 C43.01417969 3.22976562 43.02835938 4.45953125 43.04296875 5.7265625 C43.0898897 7.35941158 43.13813697 8.99222292 43.1875 10.625 C43.19330078 11.43324219 43.19910156 12.24148437 43.20507812 13.07421875 C43.23408203 13.86699219 43.26308594 14.65976563 43.29296875 15.4765625 C43.31653442 16.5605835 43.31653442 16.5605835 43.34057617 17.66650391 C44.68516716 22.42459375 48.02195722 25.32347923 51.94750977 28.03881836 C53.01799561 28.63315674 54.08848145 29.22749512 55.19140625 29.83984375 C55.77736069 30.16988907 56.36331512 30.49993439 56.96702576 30.83998108 C58.82605197 31.88394763 60.69373109 32.91109559 62.5625 33.9375 C64.39692344 34.96024025 66.22942462 35.98636844 68.06192017 37.01255798 C69.26944218 37.68695839 70.47856578 38.35849939 71.68930054 39.02711487 C76.68488829 41.79038297 81.56446825 44.72858449 86.41870117 47.73388672 C89.85697365 49.420341 92.19886373 49.513084 95.90527344 48.73510742 C98.13259082 47.95346958 100.16820794 47.00739905 102.265625 45.92578125 C102.96977539 45.56524658 103.67392578 45.20471191 104.39941406 44.83325195 C104.92760742 44.55827881 105.45580078 44.28330566 106 44 C125 78.47818585 125 78.47818585 125 82 C124.03578125 82.51949219 123.0715625 83.03898437 122.078125 83.57421875 C120.80177552 84.27808795 119.52575086 84.9825464 118.25 85.6875 C117.61578125 86.02716797 116.9815625 86.36683594 116.328125 86.71679688 C115.709375 87.06162109 115.090625 87.40644531 114.453125 87.76171875 C113.88754883 88.07069092 113.32197266 88.37966309 112.73925781 88.69799805 C109.44085522 91.16717 107.27409522 93.17917875 106.63534546 97.42240906 C106.48591718 100.51806315 106.47213858 103.58836488 106.50390625 106.6875 C106.50245102 107.82276123 106.50099579 108.95802246 106.49949646 110.12768555 C106.50115446 112.52492848 106.51270452 114.92218217 106.53344727 117.31933594 C106.56239572 120.98678852 106.55405416 124.65279485 106.54101562 128.3203125 C106.54725338 130.65104869 106.5556446 132.98178031 106.56640625 135.3125 C106.56347061 136.40844482 106.56053497 137.50438965 106.55751038 138.63354492 C106.57653664 140.1703894 106.57653664 140.1703894 106.59594727 141.73828125 C106.60405174 143.08466675 106.60405174 143.08466675 106.61231995 144.45825195 C107.08694781 147.57005621 108.18040659 149.4503307 110 152 C112.45261154 153.85528681 112.45261154 153.85528681 115.1875 155.3125 C116.08855469 155.82425781 116.98960937 156.33601562 117.91796875 156.86328125 C118.60503906 157.23839844 119.29210937 157.61351562 120 158 C118.54091123 162.06497176 116.56222506 165.43150047 114.19140625 169.03515625 C113.8240184 169.59569199 113.45663055 170.15622772 113.07810974 170.73374939 C112.30439617 171.91248982 111.52856517 173.08984282 110.75073242 174.26586914 C109.56562478 176.05777527 108.38675045 177.8536526 107.20898438 179.65039062 C100.99631757 189.10157786 100.99631757 189.10157786 98 193 C93.57900196 192.58553143 90.91143903 190.74246745 87.453125 188.15625 C83.64377714 186.3607612 80.21652272 185.65201437 76 186 C72.40580033 187.39187492 69.28853981 189.34500202 66.0625 191.4375 C64.38864395 192.48095924 62.71295318 193.521483 61.03515625 194.55859375 C60.3069165 195.02579834 59.57867676 195.49300293 58.82836914 195.97436523 C57 197 57 197 55 197 C53.98105924 191.15111957 53.88201547 185.49080831 53.9375 179.5625 C53.94201172 178.64017578 53.94652344 177.71785156 53.95117188 176.76757812 C53.96286062 174.51164952 53.97924545 172.25586033 54 170 C54.93199219 169.566875 55.86398437 169.13375 56.82421875 168.6875 C61.50990844 166.19768703 64.28948829 163.13153512 66 158 C66.25115501 153.65900212 66.27085174 149.31579907 66.29516602 144.96850586 C66.30665085 143.5400194 66.32704736 142.11157467 66.35668945 140.68334961 C66.60508444 129.24411263 66.60508444 129.24411263 62 119 C58.6115483 115.48328236 55.4582195 113.13945849 50.43945312 112.85473633 C46.79284285 112.82851997 43.14669219 112.80672509 39.5 112.8125 C38.80568878 112.81310425 38.11137756 112.8137085 37.39602661 112.81433105 C23.7189871 112.8458587 10.04682227 113.18095885 -3.62207031 113.63778687 C-5.90752216 113.71232922 -8.19318211 113.7807536 -10.47900391 113.84292603 C-13.72782884 113.93385125 -16.97487711 114.04962777 -20.22265625 114.171875 C-21.19231827 114.19499252 -22.16198029 114.21811005 -23.161026 114.2419281 C-30.76152964 114.57189015 -36.00879745 116.52900659 -41.875 121.375 C-47.07991647 127.8046027 -46.36650093 135.38835756 -46.375 143.25 C-46.41173828 145.01537109 -46.41173828 145.01537109 -46.44921875 146.81640625 C-46.47531303 154.63599293 -45.90079412 162.45525456 -40.58764648 168.64550781 C-37.70978203 171.20135734 -34.64361255 172.82118417 -31 174 C-30.22959149 180.06696699 -29.90293888 185.88514973 -30 192 C-33.66491477 190.63214992 -36.91864382 188.9680014 -40.2734375 186.9609375 C-41.2634375 186.38085938 -42.2534375 185.80078125 -43.2734375 185.203125 C-45.3387858 183.98576605 -47.39873515 182.75919992 -49.453125 181.5234375 C-56.71817796 177.16273199 -56.71817796 177.16273199 -65 177 C-67.52457088 178.05441872 -67.52457088 178.05441872 -69.6875 179.5625 C-73.49764552 182.05973569 -73.49764552 182.05973569 -76.00616455 181.76144409 C-79.50724103 180.42438591 -80.56462142 176.77733503 -82.109375 173.5703125 C-82.48104797 172.82417694 -82.85272095 172.07804138 -83.23565674 171.30929565 C-84.01869533 169.73045445 -84.79496229 168.14823941 -85.56494141 166.56298828 C-86.74544064 164.13437984 -87.94689747 161.71708823 -89.15234375 159.30078125 C-89.9101104 157.7662447 -90.66666223 156.23110754 -91.421875 154.6953125 C-91.78118103 153.97022491 -92.14048706 153.24513733 -92.51068115 152.49807739 C-95 147.34939673 -95 147.34939673 -95 144 C-94.01257813 143.45730469 -93.02515625 142.91460937 -92.0078125 142.35546875 C-90.71333285 141.63318662 -89.41907342 140.91050971 -88.125 140.1875 C-87.47402344 139.83107422 -86.82304687 139.47464844 -86.15234375 139.10742188 C-82.93402097 137.29918897 -81.0803217 136.12048255 -79 133 C-78.66935695 130.55144715 -78.66935695 130.55144715 -78.67773438 127.78173828 C-78.65851929 126.71698273 -78.6393042 125.65222717 -78.61950684 124.5552063 C-78.6067572 122.83018387 -78.6067572 122.83018387 -78.59375 121.0703125 C-78.58234985 119.88782928 -78.57094971 118.70534607 -78.5592041 117.48703003 C-78.54030091 114.98374005 -78.52723485 112.48040027 -78.51953125 109.97705078 C-78.50010941 106.14657904 -78.43806908 102.31824939 -78.375 98.48828125 C-78.36194068 96.05730443 -78.35143944 93.62631224 -78.34375 91.1953125 C-78.3190564 90.04934601 -78.29436279 88.90337952 -78.2689209 87.72268677 C-78.13586828 82.13112381 -78.13586828 82.13112381 -80.31338501 77.18312073 C-82.07554161 75.61707724 -82.07554161 75.61707724 -85 74 C-85.62648437 73.55011719 -86.25296875 73.10023438 -86.8984375 72.63671875 C-87.38570312 72.32347656 -87.87296875 72.01023437 -88.375 71.6875 C-89.24125 71.130625 -90.1075 70.57375 -91 70 C-86.80770526 61.93460722 -81.75755843 54.46353889 -76.6875 46.9375 C-75.84277423 45.67795209 -74.99837075 44.41818799 -74.15429688 43.15820312 C-72.10657032 40.10296976 -70.05451116 37.05067644 -68 34 C-64.27183776 35.19369657 -61.28250489 36.30768955 -58.125 38.625 C-54.84630051 40.70130308 -52.172131 41.8229247 -48.16601562 41.54956055 C-45.49737074 40.87247312 -43.4278097 39.7514864 -41.03125 38.39453125 C-40.06276123 37.85159424 -39.09427246 37.30865723 -38.09643555 36.74926758 C-37.07461182 36.17200928 -36.05278809 35.59475098 -35 35 C-32.91362197 33.85259867 -30.82636846 32.70678795 -28.73828125 31.5625 C-26.59598093 30.37567347 -24.45405648 29.18816822 -22.3125 28 C-21.23677734 27.40960938 -20.16105469 26.81921875 -19.05273438 26.2109375 C-8.672313 21.11669485 -8.672313 21.11669485 -1 13 C-0.77049681 10.795636 -0.58924067 8.58607827 -0.4375 6.375 C-0.31181641 4.59222656 -0.31181641 4.59222656 -0.18359375 2.7734375 C-0.12300781 1.85820312 -0.06242187 0.94296875 0 0 Z " fill="#FDFDFE" transform="translate(305,174)"/>
<path d="M0 0 C1.09280273 0.00225586 2.18560547 0.00451172 3.31152344 0.00683594 C5.96811412 0.01264905 8.62467413 0.02081821 11.28125 0.03125 C11.31550331 0.92755379 11.31550331 0.92755379 11.35044861 1.84196472 C11.59091225 8.12124247 11.83488955 14.40037703 12.08081055 20.67944336 C12.17186175 23.01567217 12.26204881 25.35193485 12.35131836 27.68823242 C12.60149317 34.2277181 12.86716728 40.76612629 13.16174316 47.30377197 C13.26377757 49.63248057 13.35072467 51.96112331 13.43457031 54.29052734 C13.75967075 60.76002607 14.55129181 64.86739819 18.15625 70.28125 C18.5577124 70.9014502 18.9591748 71.52165039 19.37280273 72.16064453 C20.22524286 73.47211605 21.08894959 74.77632851 21.96337891 76.07324219 C23.25608966 77.99386839 24.51379804 79.93284402 25.76171875 81.8828125 C27.54538821 84.66677613 29.34177106 87.44184127 31.1484375 90.2109375 C34.7871856 95.79725084 38.37779975 101.41413564 41.96875 107.03125 C42.64752197 108.09263184 43.32629395 109.15401367 44.02563477 110.24755859 C45.41744627 112.42407144 46.80912825 114.60066712 48.20068359 116.77734375 C50.89761899 120.99522158 53.59630272 125.21197865 56.29541016 129.4284668 C57.61453837 131.48954381 58.93322654 133.55090253 60.25146484 135.61254883 C63.36532631 140.48155871 66.48298955 145.34800347 69.61453247 150.20565796 C70.72639006 151.93076888 71.83701306 153.65666827 72.94726562 155.3828125 C74.34324719 157.55236347 75.74156028 159.72041661 77.14257812 161.88671875 C83.45486686 171.70727031 86.51029125 178.09589383 85.28125 190.03125 C84.38401083 193.08958135 83.12415708 195.44513777 81.28125 198.03125 C80.53875 199.10375 79.79625 200.17625 79.03125 201.28125 C67.4140407 212.8984593 47.26032655 210.3243818 32.03125 210.96875 C31.05847107 211.01038269 30.08569214 211.05201538 29.08343506 211.09490967 C12.75865503 211.79123977 -3.5684952 212.42833913 -19.89733887 213.02151489 C-22.32194953 213.10989256 -24.74651255 213.19958923 -27.17102051 213.29074097 C-33.92838486 213.54331474 -40.68535764 213.7622779 -47.44519043 213.93713379 C-49.65269094 214.00060035 -51.85986104 214.07664479 -54.06652832 214.16442871 C-57.30720201 214.29241102 -60.54690297 214.38056486 -63.7890625 214.4609375 C-64.7455368 214.50791779 -65.70201111 214.55489807 -66.68746948 214.603302 C-73.95053851 214.72086432 -79.07700858 212.63147373 -84.71875 208.03125 C-87.05862567 205.17798698 -88.97146522 202.27789402 -90.71875 199.03125 C-91.08742187 198.39960937 -91.45609375 197.76796875 -91.8359375 197.1171875 C-94.37869564 191.10907756 -93.61252676 184.38571334 -91.3515625 178.4296875 C-89.71373611 175.00546883 -87.87615156 171.694265 -86.01953125 168.38476562 C-84.09571998 164.90399599 -82.29300571 161.36307679 -80.47412109 157.82666016 C-75.58013929 148.33236721 -70.50665735 138.94272567 -65.36035156 129.58349609 C-60.74941275 121.16293696 -56.34792753 112.63899215 -51.9543457 104.10351562 C-47.6134548 95.69345462 -43.13846747 87.36611801 -38.53710938 79.09570312 C-34.39863232 71.61394026 -31.20861263 65.70263754 -31.46875 56.90625 C-31.47970703 56.12838135 -31.49066406 55.3505127 -31.50195312 54.54907227 C-31.62482765 47.8223599 -31.99199462 41.10635041 -32.36010742 34.3894043 C-32.92928264 23.27669248 -32.80873538 12.1548275 -32.71875 1.03125 C-21.8046223 0.35515359 -10.93688372 -0.04370719 0 0 Z " fill="#FDFDFE" transform="translate(327.71875,346.96875)"/>
<path d="M0 0 C2.8477094 3.47802591 4.80325987 7.31681299 6.79296875 11.3203125 C7.14386063 12.0201828 7.4947525 12.7200531 7.85627747 13.44113159 C8.59357057 14.91436149 9.32885907 16.38859612 10.06225586 17.86376953 C11.1885268 20.1270634 12.3233115 22.38594311 13.45898438 24.64453125 C14.17499265 26.07786861 14.89050491 27.51145388 15.60546875 28.9453125 C15.94603806 29.62240265 16.28660736 30.2994928 16.63749695 30.99710083 C19 35.77005166 19 35.77005166 19 38 C19.70125 37.566875 20.4025 37.13375 21.125 36.6875 C22.548125 35.8521875 22.548125 35.8521875 24 35 C24.928125 34.443125 25.85625 33.88625 26.8125 33.3125 C30.76735058 31.68403211 33.84388202 31.10915203 38 32 C42.15772261 33.7725028 45.9903031 36.01113928 49.875 38.3125 C50.96893066 38.94462402 52.06286133 39.57674805 53.18994141 40.22802734 C56.47141064 42.13322642 59.73679178 44.06372907 63 46 C64.41925781 46.83072021 64.41925781 46.83072021 65.8671875 47.67822266 C68.37737492 49.14817295 70.87859454 50.63178644 73.375 52.125 C74.11089355 52.56110596 74.84678711 52.99721191 75.60498047 53.4465332 C76.27932129 53.85863037 76.95366211 54.27072754 77.6484375 54.6953125 C78.22770996 55.04609863 78.80698242 55.39688477 79.40380859 55.75830078 C82.20219755 57.93520598 83.83219413 59.94030672 84.39440918 63.49069214 C84.40703796 64.88917892 84.40703796 64.88917892 84.41992188 66.31591797 C84.44378967 67.90809647 84.44378967 67.90809647 84.46813965 69.53244019 C84.46834106 70.6741568 84.46854248 71.81587341 84.46875 72.9921875 C84.48017029 74.76023239 84.48017029 74.76023239 84.49182129 76.56399536 C84.50262594 79.05712771 84.50547394 81.55030533 84.50097656 84.04345703 C84.50000536 87.85396068 84.54160407 91.66244392 84.5859375 95.47265625 C84.59114531 97.89582914 84.59383268 100.31900902 84.59375 102.7421875 C84.61014526 103.87985565 84.62654053 105.0175238 84.64343262 106.18966675 C84.56651182 115.01599499 84.56651182 115.01599499 81.8137207 118.54418945 C79.09150834 120.92013168 76.53424102 122.78351516 73.38671875 124.55078125 C72.31075439 125.16300537 71.23479004 125.77522949 70.1262207 126.40600586 C68.99144287 127.03514893 67.85666504 127.66429199 66.6875 128.3125 C65.5127636 128.97249706 64.33853108 129.63339177 63.16479492 130.29516602 C60.84543486 131.60142102 58.52289556 132.90135801 56.19824219 134.19824219 C53.43405478 135.75547143 50.69927667 137.34835009 47.9765625 138.9765625 C46.90015503 139.6121106 46.90015503 139.6121106 45.80200195 140.26049805 C44.52335317 141.01695476 43.25046454 141.78328133 41.98510742 142.56176758 C37.81771053 144.9832108 34.77635953 145.63790232 30 145 C27.35260687 143.91475264 24.98350617 142.51665149 22.5625 141 C21.60827148 140.42765625 21.60827148 140.42765625 20.63476562 139.84375 C19.08155008 138.90948501 17.53955137 137.95661444 16 137 C12.82443025 139.95453852 10.57004676 143.00362332 8.28515625 146.68359375 C7.59873047 147.77607422 6.91230469 148.86855469 6.20507812 149.99414062 C5.13254836 151.71533639 4.06225645 153.43789272 2.9934082 155.16137695 C1.95041746 156.83893966 0.89910851 158.5113215 -0.15234375 160.18359375 C-0.77101318 161.17931396 -1.38968262 162.17503418 -2.02709961 163.20092773 C-4 166 -4 166 -9 171 C-14.61 167.7 -20.22 164.4 -26 161 C-22.38756925 155.29245337 -18.75424869 149.60352692 -15.03515625 143.96484375 C-14.05385742 142.47500977 -14.05385742 142.47500977 -13.05273438 140.95507812 C-11.70146291 138.90629067 -10.34719077 136.85947977 -8.99023438 134.81445312 C-8.0224707 133.34202148 -8.0224707 133.34202148 -7.03515625 131.83984375 C-6.4512915 130.95675537 -5.86742676 130.07366699 -5.26586914 129.16381836 C-3.83168183 127.13010091 -3.83168183 127.13010091 -4 125 C-6.43924327 123.43943348 -8.97019101 122.10262446 -11.51953125 120.73046875 C-14.57974591 118.59554734 -15.48239598 117.44554616 -17 114 C-17.47016791 110.11803361 -17.46802992 106.25451811 -17.46875 102.34765625 C-17.47636353 101.21476669 -17.48397705 100.08187714 -17.49182129 98.91465759 C-17.50261434 96.52165936 -17.50547865 94.12861404 -17.50097656 91.7355957 C-17.50000433 88.07878931 -17.54163713 84.42408166 -17.5859375 80.76757812 C-17.5911447 78.44010853 -17.59383269 76.11263166 -17.59375 73.78515625 C-17.61014526 72.69437271 -17.62654053 71.60358917 -17.64343262 70.47975159 C-17.56654642 62.01490597 -17.56654642 62.01490597 -14.65307617 58.39575195 C-11.84640849 55.86130546 -9.11218006 53.96954165 -5.8125 52.125 C-4.76707031 51.52945313 -3.72164063 50.93390625 -2.64453125 50.3203125 C0 49 0 49 2 49 C-6.1138157 32.57153067 -6.1138157 32.57153067 -14.71289062 16.39428711 C-17 12.20749889 -17 12.20749889 -17 10 C-15.43945312 8.85498047 -15.43945312 8.85498047 -13.28125 7.6171875 C-12.13076172 6.95009766 -12.13076172 6.95009766 -10.95703125 6.26953125 C-9.74080078 5.57923828 -9.74080078 5.57923828 -8.5 4.875 C-7.68917969 4.40707031 -6.87835938 3.93914062 -6.04296875 3.45703125 C-4.03237359 2.29798228 -2.01803239 1.14603529 0 0 Z " fill="#6965F6" transform="translate(428,207)"/>
<path d="M0 0 C18.49341471 2.86861548 18.49341471 2.86861548 26.54296875 5.3515625 C31.06657028 6.54539057 35.23121112 7.04147313 39.91015625 6.7890625 C45.23179619 6.50357637 50.43979055 6.23490228 54.98730469 9.37011719 C58.898187 12.93968614 62.19023689 17.0314595 65.48779297 21.16162109 C84.76000763 44.59070996 117.59497383 57.66858082 146 65 C144.93149052 72.12339655 142.44219292 78.05887855 137 83 C124.12643352 90.93576016 107.39988269 89.31763848 92.75 89.9375 C91.77722107 89.97913269 90.80444214 90.02076538 89.80218506 90.06365967 C73.47740503 90.75998977 57.1502548 91.39708913 40.82141113 91.99026489 C38.39680047 92.07864256 35.97223745 92.16833923 33.54772949 92.25949097 C26.79036514 92.51206474 20.03339236 92.7310279 13.27355957 92.90588379 C11.06605906 92.96935035 8.85888896 93.04539479 6.65222168 93.13317871 C3.41154799 93.26116102 0.17184703 93.34931486 -3.0703125 93.4296875 C-4.0267868 93.47666779 -4.98326111 93.52364807 -5.96871948 93.572052 C-13.23178851 93.68961432 -18.35825858 91.60022373 -24 87 C-26.33987567 84.14673698 -28.25271522 81.24664402 -30 78 C-30.55300781 77.05253906 -30.55300781 77.05253906 -31.1171875 76.0859375 C-33.65994564 70.07782756 -32.89377676 63.35446334 -30.6328125 57.3984375 C-28.99498611 53.97421883 -27.15740156 50.663015 -25.30078125 47.35351562 C-23.37577335 43.8705809 -21.57199633 40.327421 -19.75195312 36.78881836 C-13.37364981 24.41478552 -6.71493989 12.19376946 0 0 Z " fill="#92B1F3" transform="translate(267,468)"/>
<path d="M0 0 C2.72754223 1.50879302 5.36257729 3.11763399 7.99829102 4.78149414 C9.93406763 5.9696808 11.87027074 7.15717286 13.80688477 8.34399414 C14.76191895 8.93567383 15.71695313 9.52735352 16.70092773 10.13696289 C19.28664312 11.71484053 21.89523243 13.23101357 24.53344727 14.71899414 C25.30172852 15.15477783 26.07000977 15.59056152 26.86157227 16.03955078 C28.28038616 16.84078371 29.70330936 17.63480346 31.13110352 18.41992188 C31.76918945 18.78545166 32.40727539 19.15098145 33.06469727 19.52758789 C33.6106958 19.83237061 34.15669434 20.13715332 34.71923828 20.45117188 C38.39501258 23.32893946 41.07273305 25.6396857 41.9730072 30.30293274 C42.17664502 33.32598557 42.21742354 36.3101942 42.19750977 39.34008789 C42.20466507 40.44699478 42.21182037 41.55390167 42.2191925 42.6943512 C42.22696044 45.03011267 42.22197676 47.36594689 42.20507812 49.70166016 C42.18587028 53.26678126 42.22523657 56.82799441 42.26977539 60.39282227 C42.2700658 62.66691312 42.26692457 64.94100753 42.26000977 67.21508789 C42.28293343 68.80600502 42.28293343 68.80600502 42.30632019 70.42906189 C42.21089128 76.52012244 41.47927118 80.06909605 37.15708923 84.48239136 C34.13185709 86.96561353 30.85107118 88.76363215 27.37329102 90.53149414 C22.21414408 93.2526902 17.13489348 96.0200007 12.18969727 99.11743164 C10.87412842 99.93787964 10.87412842 99.93787964 9.53198242 100.77490234 C7.84277146 101.83649693 6.16095929 102.90998792 4.48803711 103.99707031 C-0.6320976 107.18725938 -5.33793263 109.8892364 -11.50170898 108.84399414 C-16.36062661 106.80503496 -20.77253925 104.15076574 -25.25170898 101.40649414 C-26.44837705 100.69670255 -27.64628941 99.98900442 -28.84545898 99.28344727 C-31.82494338 97.52281979 -34.77999791 95.72497045 -37.73095703 93.91705322 C-39.51410878 92.83647998 -41.31104486 91.78293235 -43.11303711 90.73413086 C-44.26868805 90.05078778 -45.424289 89.36736014 -46.57983398 88.68383789 C-47.59980469 88.08821045 -48.61977539 87.49258301 -49.6706543 86.87890625 C-53.85092281 83.87420307 -56.99674325 81.55532577 -57.95983887 76.38414001 C-58.16401489 73.34844047 -58.19466416 70.35518554 -58.16577148 67.31274414 C-58.17055511 66.20346558 -58.17533875 65.09418701 -58.18026733 63.95129395 C-58.18366237 61.61131366 -58.17448794 59.27128569 -58.15356445 56.93139648 C-58.12679595 53.35561063 -58.15332863 49.78296394 -58.18530273 46.20727539 C-58.18199857 43.92992473 -58.1755922 41.65257602 -58.16577148 39.37524414 C-58.17589264 38.30947144 -58.18601379 37.24369873 -58.19644165 36.14562988 C-58.06626135 27.87564531 -58.06626135 27.87564531 -55.28149414 24.3293457 C-52.7127913 22.03271871 -50.3554623 20.23651127 -47.36108398 18.54711914 C-46.38083252 17.98516846 -45.40058105 17.42321777 -44.390625 16.84423828 C-43.35478271 16.26665771 -42.31894043 15.68907715 -41.25170898 15.09399414 C-39.0883252 13.86983471 -36.92556823 12.64456691 -34.76342773 11.41821289 C-33.70043457 10.81799316 -32.63744141 10.21777344 -31.54223633 9.59936523 C-28.80323016 8.01806972 -26.12488295 6.37640189 -23.45874023 4.67602539 C-22.33290527 3.96881348 -22.33290527 3.96881348 -21.18432617 3.24731445 C-19.81794247 2.38317589 -18.46203899 1.50212383 -17.11987305 0.60083008 C-11.22995889 -3.06146856 -6.27269777 -2.89852874 0 0 Z " fill="#082C75" transform="translate(405.501708984375,115.156005859375)"/>
<path d="M0 0 C3.07437514 1.26889446 5.81421804 2.91861732 8.625 4.6875 C10.28502982 5.69291712 11.94519186 6.69811593 13.60546875 7.703125 C14.47478027 8.23744141 15.3440918 8.77175781 16.23974609 9.32226562 C19.13459685 11.0818105 22.05589123 12.78819325 24.98828125 14.484375 C25.97940918 15.05969971 26.97053711 15.63502441 27.99169922 16.2277832 C29.92286487 17.34861472 31.85543548 18.4670298 33.78955078 19.58276367 C35.1138208 20.35970581 35.1138208 20.35970581 36.46484375 21.15234375 C37.244646 21.60601318 38.02444824 22.05968262 38.82788086 22.52709961 C44.6915452 26.50321369 44.6915452 26.50321369 45.5146637 30.49742126 C45.52086227 31.43276199 45.52706085 32.36810272 45.53344727 33.33178711 C45.5492836 34.39646713 45.56511993 35.46114716 45.58143616 36.55809021 C45.57647629 37.70294388 45.57151642 38.84779755 45.56640625 40.02734375 C45.57260483 41.20841202 45.57880341 42.38948029 45.58518982 43.6063385 C45.59229277 46.10368017 45.58910581 48.60106914 45.57641602 51.09838867 C45.56256345 54.91999511 45.59660334 58.73914778 45.63476562 62.56054688 C45.63571692 64.98697977 45.63385745 67.41341572 45.62890625 69.83984375 C45.64216446 70.98267319 45.65542267 72.12550262 45.66908264 73.30296326 C45.5763409 81.20464194 45.5763409 81.20464194 42.78417969 85.05786133 C40.16441335 86.88531145 37.59556666 88.64551297 34.82421875 90.234375 C33.34598633 91.08974854 33.34598633 91.08974854 31.83789062 91.96240234 C30.79826172 92.55230957 29.75863281 93.1422168 28.6875 93.75 C27.61822266 94.36182129 26.54894531 94.97364258 25.44726562 95.60400391 C23.29895256 96.83221115 21.14907195 98.05768098 18.99755859 99.28027344 C16.35937103 100.79382558 13.74744212 102.34092928 11.14453125 103.9140625 C10.43401611 104.3359082 9.72350098 104.75775391 8.99145508 105.19238281 C7.71152577 105.95246342 6.43849648 106.72435327 5.17456055 107.51074219 C0.83948051 110.03806643 -3.093234 111.07213055 -8 110 C-11.78299028 108.4057826 -15.23763088 106.3658133 -18.75 104.25 C-20.24116333 103.37722412 -20.24116333 103.37722412 -21.76245117 102.48681641 C-23.82403595 101.27619756 -25.88090567 100.05751537 -27.93310547 98.83105469 C-30.90377423 97.05745051 -33.88875743 95.3108243 -36.87890625 93.5703125 C-38.69090351 92.50656877 -40.5021376 91.44152368 -42.3125 90.375 C-43.15973633 89.8790332 -44.00697266 89.38306641 -44.87988281 88.87207031 C-45.6581543 88.40639648 -46.43642578 87.94072266 -47.23828125 87.4609375 C-48.259823 86.85451416 -48.259823 86.85451416 -49.30200195 86.23583984 C-51 85 -51 85 -53 82 C-53.28761292 79.62956238 -53.28761292 79.62956238 -53.33813477 76.79760742 C-53.36057755 75.73607956 -53.38302032 74.6745517 -53.40614319 73.58085632 C-53.41778 72.43397842 -53.42941681 71.28710052 -53.44140625 70.10546875 C-53.45517807 68.92535721 -53.46894989 67.74524567 -53.48313904 66.52937317 C-53.50642918 64.03029073 -53.52368531 61.53114593 -53.53540039 59.03198242 C-53.56232572 55.21222394 -53.63722417 51.39523274 -53.71289062 47.57617188 C-53.72954756 45.14845615 -53.74331411 42.72071852 -53.75390625 40.29296875 C-53.78376114 39.15216354 -53.81361603 38.01135834 -53.84437561 36.83598328 C-53.80176237 29.13551364 -53.80176237 29.13551364 -51.61759949 26.04214478 C-49.83046397 24.45074116 -48.05676244 23.21882159 -46 22 C-44.94192139 21.32195312 -43.88384277 20.64390625 -42.79370117 19.9453125 C-41.18458862 19.04425781 -41.18458862 19.04425781 -39.54296875 18.125 C-38.95510086 17.79258301 -38.36723297 17.46016602 -37.7615509 17.11767578 C-35.90753627 16.07113365 -34.04787418 15.03518668 -32.1875 14 C-30.34512777 12.96592402 -28.50401898 11.92964624 -26.66360474 10.89208984 C-25.46423509 10.21743556 -24.26313375 9.54585004 -23.06027222 8.87744141 C-19.48208093 6.88039246 -16.04491659 4.73656784 -12.61328125 2.5 C-7.98607098 -0.26516144 -5.35671773 -0.91417039 0 0 Z " fill="#062B75" transform="translate(182,225)"/>
<path d="M0 0 C2.38658381 3.36989731 4.53911637 6.82473706 6.6328125 10.3828125 C11.09294509 17.82871106 15.74224256 25.12884611 20.5078125 32.3828125 C31.28197087 48.80637268 31.28197087 48.80637268 35.8203125 56.5703125 C36.21347656 57.23160156 36.60664063 57.89289062 37.01171875 58.57421875 C38.0334888 61.09655932 38.016655 63.10929765 37.9453125 65.8203125 C37.92726563 66.71234375 37.90921875 67.604375 37.890625 68.5234375 C37.86742187 69.19890625 37.84421875 69.874375 37.8203125 70.5703125 C13.35995391 66.128288 -8.50275487 55.64315504 -28.1796875 40.5703125 C-29.13617188 39.83941406 -30.09265625 39.10851562 -31.078125 38.35546875 C-36.19675524 34.30016427 -40.973776 29.96663852 -45.6171875 25.3828125 C-46.1136377 24.89570801 -46.61008789 24.40860352 -47.12158203 23.90673828 C-50.31812737 20.68179862 -52.78282319 17.39509597 -55.1796875 13.5703125 C-53.41818359 13.25900391 -53.41818359 13.25900391 -51.62109375 12.94140625 C-43.22799037 11.36715031 -35.38195256 9.53411283 -27.5546875 6.0703125 C-21.75311745 3.52485139 -16.0134032 1.44543208 -9.8671875 -0.1171875 C-9.15546387 -0.31441406 -8.44374023 -0.51164062 -7.71044922 -0.71484375 C-4.53685833 -1.46391865 -2.79033098 -1.8302171 0 0 Z " fill="#D0DBFC" transform="translate(375.1796875,462.4296875)"/>
<path d="M0 0 C3.45967326 1.0388191 6.53423576 2.75235166 9.6875 4.49609375 C10.55117187 4.97240234 11.41484375 5.44871094 12.3046875 5.93945312 C13.19414062 6.43380859 14.08359375 6.92816406 15 7.4375 C15.88945312 7.92798828 16.77890625 8.41847656 17.6953125 8.92382812 C20.13575879 10.2733585 22.57443186 11.62389774 25 13 C25.89420654 13.39993164 26.78841309 13.79986328 27.7097168 14.21191406 C30 16 30 16 30.94848633 19.23950195 C31.10765946 20.56905149 31.23349195 21.90286818 31.33203125 23.23828125 C31.39071381 23.95187302 31.44939636 24.66546478 31.50985718 25.40068054 C31.66285616 27.70554684 31.75024184 30.00346249 31.8125 32.3125 C31.83768707 33.08811279 31.86287415 33.86372559 31.88882446 34.6628418 C31.99286797 41.39244933 31.97303291 47.51033856 27.67089844 52.93896484 C21.92101251 57.56053871 15.44833624 60.51840676 8.54370117 63.02734375 C5.8163661 63.96285426 5.8163661 63.96285426 3 66 C-1.32441422 65.69219455 -4.4842379 63.78510192 -8.17578125 61.62109375 C-9.74066284 60.71121704 -9.74066284 60.71121704 -11.3371582 59.78295898 C-12.649021 59.00895752 -13.96088379 58.23495605 -15.3125 57.4375 C-19.499375 54.983125 -23.68625 52.52875 -28 50 C-28 38.78 -28 27.56 -28 16 C-15.6875 9.125 -15.6875 9.125 -11.81518555 6.96533203 C-10.8075415 6.40185059 -9.79989746 5.83836914 -8.76171875 5.2578125 C-7.73006592 4.6817627 -6.69841309 4.10571289 -5.63549805 3.51220703 C-3.7156323 2.41061848 -1.84170566 1.22780377 0 0 Z " fill="#FAC950" transform="translate(177,247)"/>
<path d="M0 0 C16.73979222 7.48694464 16.73979222 7.48694464 19.84954834 14.68280029 C22.84877986 24.88509166 22.10896823 36.72486376 19.04296875 46.81640625 C16.00475824 51.88115872 11.53865313 53.56355886 6.06152344 55.14501953 C2.81556818 56.22464906 0.26939342 58.06060369 -2.58203125 59.94140625 C-7.15654883 62.82450557 -7.15654883 62.82450557 -10.2734375 62.79296875 C-14.22825869 61.35380529 -17.68281689 59.24934938 -21.26953125 57.06640625 C-21.99076172 56.63585937 -22.71199219 56.2053125 -23.45507812 55.76171875 C-24.9118079 54.88898737 -26.35688875 53.99652367 -27.78979492 53.08520508 C-29.91449397 51.75978605 -29.91449397 51.75978605 -32.2277832 50.9597168 C-34.82225925 49.8519597 -36.1764412 49.02768252 -37.95703125 46.81640625 C-39.41968343 41.26173961 -39.55596819 35.84906002 -39.51953125 30.12890625 C-39.52362 29.35051392 -39.52770874 28.57212158 -39.53192139 27.7701416 C-39.47363829 15.24806647 -39.47363829 15.24806647 -36.41455078 10.34326172 C-32.5557231 6.76867585 -28.04671238 5.06936802 -23.07714844 3.53857422 C-20.12479976 2.5329262 -17.75696531 0.89990909 -15.20703125 -0.87109375 C-9.8747682 -4.42913258 -5.630879 -2.24302233 0 0 Z " fill="#B0D852" transform="translate(264.95703125,131.18359375)"/>
<path d="M0 0 C2.94308197 1.62952851 5.3189019 3.58849819 7.921875 5.72265625 C10.91387892 7.58077457 13.9831097 9.29868476 17.046875 11.03515625 C18.53131973 11.90168552 20.01329651 12.77246343 21.4921875 13.6484375 C22.12914551 14.02395752 22.76610352 14.39947754 23.42236328 14.78637695 C24.921875 15.72265625 24.921875 15.72265625 25.921875 16.72265625 C26.01035243 19.24359701 26.03714801 21.73696518 26.01953125 24.2578125 C26.0181163 25.01106308 26.01670135 25.76431366 26.01524353 26.54039001 C26.00962876 28.95535185 25.99707383 31.37022226 25.984375 33.78515625 C25.9793619 35.41861846 25.97479866 37.05208211 25.97070312 38.68554688 C25.95965454 42.6979521 25.94238006 46.71028866 25.921875 50.72265625 C23.15146244 52.2650799 20.38046262 53.80644577 17.609375 55.34765625 C16.45985352 55.98767578 16.45985352 55.98767578 15.28710938 56.640625 C13.68702302 57.53029957 12.07738684 58.40296701 10.4597168 59.26025391 C7.8476101 60.69268653 7.8476101 60.69268653 5.37817383 62.66552734 C2.4904045 64.70768613 0.38547802 65.9534625 -3.078125 66.72265625 C-8.56772346 65.11124914 -13.01207221 62.21279212 -17.765625 59.09765625 C-19.06185499 58.29526672 -20.36067149 57.49703973 -21.66210938 56.703125 C-24.83212507 54.75687824 -27.9631511 52.75613457 -31.078125 50.72265625 C-31.30147404 45.99071086 -31.46428353 41.26185881 -31.57250977 36.52587891 C-31.61763384 34.91726228 -31.67895629 33.30901211 -31.75708008 31.70166016 C-32.38685191 18.40647697 -32.38685191 18.40647697 -29.36425781 14.51757812 C-27.01087326 12.94865509 -24.6677928 11.8532211 -22.078125 10.72265625 C-20.51002812 9.68248369 -18.96019703 8.61425832 -17.4296875 7.51953125 C-5.31729878 -0.47909672 -5.31729878 -0.47909672 0 0 Z " fill="#FB8E01" transform="translate(400.078125,135.27734375)"/>
<path d="M0 0 C2.26635742 0.79541016 2.26635742 0.79541016 5 2 C5.91434814 2.35239746 6.82869629 2.70479492 7.77075195 3.06787109 C15.51316441 6.21324606 23.41220865 9.60563758 29 16 C32.4397117 25.37349541 31.47719917 37.43086112 27.97900391 46.70751953 C25.45845281 51.70458122 22.71048066 54.49417741 17.75 57.25 C16.61046875 57.89324219 15.4709375 58.53648437 14.296875 59.19921875 C13.20890625 59.79347656 12.1209375 60.38773437 11 61 C10.11828125 61.54269531 9.2365625 62.08539063 8.328125 62.64453125 C7.55984375 63.11246094 6.7915625 63.58039063 6 64.0625 C5.34 64.46597656 4.68 64.86945313 4 65.28515625 C1.27116149 66.26050283 -0.20669191 65.7567498 -3 65 C-4.93735837 64.02754362 -6.83688591 62.97780574 -8.703125 61.875 C-9.7653125 61.25109375 -10.8275 60.6271875 -11.921875 59.984375 C-13.02015625 59.32953125 -14.1184375 58.6746875 -15.25 58 C-16.36375 57.34515625 -17.4775 56.6903125 -18.625 56.015625 C-26.8234747 51.1765253 -26.8234747 51.1765253 -28 50 C-28.08847743 47.47905924 -28.11527301 44.98569107 -28.09765625 42.46484375 C-28.0962413 41.71159317 -28.09482635 40.95834259 -28.09336853 40.18226624 C-28.08775376 37.7673044 -28.07519883 35.35243399 -28.0625 32.9375 C-28.0574869 31.30403779 -28.05292366 29.67057414 -28.04882812 28.03710938 C-28.03777954 24.02470415 -28.02050506 20.01236759 -28 16 C-24.33424729 13.88134239 -20.66805947 11.76344032 -17.00146484 9.64624023 C-15.75394874 8.92574531 -14.5065522 8.20504332 -13.25927734 7.48413086 C-11.46743592 6.44851209 -9.67516716 5.41363643 -7.8828125 4.37890625 C-6.26463623 3.44413452 -6.26463623 3.44413452 -4.61376953 2.49047852 C-3.0955855 1.62474776 -1.56316922 0.78158461 0 0 Z " fill="#66CBD0" transform="translate(243,372)"/>
<path d="M0 0 C6.67827493 3.00714867 12.94513087 6.00085616 17.3828125 12 C20.86279242 22.11783635 18.72898033 34.64666377 17.3828125 45 C13.87922688 46.97883125 10.37373671 48.95424025 6.86645508 50.92651367 C5.67387045 51.59777817 4.48180811 52.26997148 3.2902832 52.94311523 C1.57641368 53.91114075 -0.13950247 54.87553993 -1.85546875 55.83984375 C-2.88712158 56.42113037 -3.91877441 57.00241699 -4.98168945 57.60131836 C-7.6171875 59 -7.6171875 59 -10.6171875 60 C-13.32861328 58.75244141 -13.32861328 58.75244141 -16.5625 56.8515625 C-17.13298065 56.51957855 -17.7034613 56.1875946 -18.29122925 55.84555054 C-20.11395081 54.78149296 -21.92787196 53.70331508 -23.7421875 52.625 C-24.97212979 51.90534947 -26.20259287 51.18658824 -27.43359375 50.46875 C-36.39723248 45.21995502 -36.39723248 45.21995502 -37.6171875 44 C-37.7055842 41.6243148 -37.73249055 39.27791326 -37.71484375 36.90234375 C-37.7134288 36.19348526 -37.71201385 35.48462677 -37.71055603 34.75428772 C-37.70494193 32.48198288 -37.69238713 30.20977525 -37.6796875 27.9375 C-37.67467431 26.40039204 -37.67011109 24.86328255 -37.66601562 23.32617188 C-37.65496792 19.55074358 -37.63769391 15.77538829 -37.6171875 12 C-34.03682635 9.82378432 -30.4440612 7.67024417 -26.83837891 5.53637695 C-25.61471488 4.80803633 -24.39459026 4.07371369 -23.17822266 3.33325195 C-21.42475704 2.26726529 -19.65950921 1.22374253 -17.890625 0.18359375 C-16.83278809 -0.45006104 -15.77495117 -1.08371582 -14.68505859 -1.73657227 C-9.41265545 -3.90788265 -5.09325946 -2.02849953 0 0 Z " fill="#D0DAFC" transform="translate(471.6171875,267)"/>
<path d="M0 0 C2.05268836 1.0769734 4.07583386 2.21090308 6.078125 3.37890625 C6.64956238 3.71043198 7.22099976 4.0419577 7.80975342 4.38352966 C9.62588883 5.43859256 11.43795766 6.50042582 13.25 7.5625 C14.48411249 8.28105002 15.71848476 8.99915405 16.953125 9.71679688 C19.97177648 11.47270844 22.98681989 13.23471216 26 15 C26.3234878 19.69497556 26.5580634 24.3833894 26.71411133 29.08691406 C26.77916664 30.68246408 26.86766316 32.27724814 26.98071289 33.87011719 C27.34702115 39.16749814 27.41192795 43.84830007 26 49 C22.0888193 52.91395458 18.07034207 54.7748038 13 57 C11.10614542 58.13580409 9.22686045 59.29694183 7.375 60.5 C3.37234043 63 3.37234043 63 0 63 C-1.72706701 60.51190526 -3.24786913 58.05888179 -4.75 55.4375 C-8.02327474 49.8459632 -11.38059906 44.3720069 -15.05859375 39.03515625 C-15.74276367 38.03234619 -16.42693359 37.02953613 -17.13183594 35.99633789 C-18.47807957 34.03405189 -19.84148359 32.08340357 -21.22363281 30.14624023 C-24.66517182 25.07814095 -27.38950267 20.5871402 -26.90942383 14.29443359 C-24.91318261 9.25801078 -19.81736833 7.20751377 -15.25 4.8125 C-14.23421875 4.22919922 -13.2184375 3.64589844 -12.171875 3.04492188 C-3.81755792 -1.59941887 -3.81755792 -1.59941887 0 0 Z " fill="#FB7C9F" transform="translate(387,382)"/>
<path d="M0 0 C0 6.6 0 13.2 0 20 C-6.69937164 20.29112554 -13.39898542 20.57558697 -20.09887695 20.85449219 C-22.3668538 20.94977056 -24.63476154 21.04671207 -26.90258789 21.14550781 C-42.27918594 21.81390728 -57.60892284 22.13191567 -73 22 C-73 15.73 -73 9.46 -73 3 C-65.40167011 2.60529974 -57.803201 2.21349334 -50.20447254 1.82654572 C-46.67471503 1.64668998 -43.14502723 1.46564944 -39.61547852 1.28173828 C-35.54201356 1.0695411 -31.46828697 0.86279053 -27.39453125 0.65625 C-26.1492012 0.59062866 -24.90387115 0.52500732 -23.62080383 0.45739746 C-15.73632027 0.06285078 -7.89448084 -0.05781738 0 0 Z " fill="#90AFF2" transform="translate(352,306)"/>
<path d="M0 0 C1.38892555 2.68648932 2.56998139 5.3712428 3.62890625 8.203125 C9.41424621 23.37242862 16.20916188 36.9470917 26.25 49.7421875 C28 52 28 52 29 54 C14.08433756 54.49841941 1.01181313 52.39095335 -13.42578125 48.62890625 C-16.61144206 47.85061886 -19.74407768 47.36999117 -23 47 C-22.40871658 43.30786383 -21.38054579 40.44483771 -19.62890625 37.1484375 C-19.14131836 36.22297119 -18.65373047 35.29750488 -18.15136719 34.34399414 C-17.62704102 33.36422607 -17.10271484 32.38445801 -16.5625 31.375 C-16.02915039 30.36622803 -15.49580078 29.35745605 -14.94628906 28.31811523 C-13.84516717 26.23627602 -12.74146809 24.15579798 -11.63525391 22.07666016 C-9.6050651 18.25694692 -7.59286916 14.42794121 -5.58178711 10.59814453 C-3.72520025 7.06331206 -1.8626596 3.53163556 0 0 Z " fill="#D0DBFC" transform="translate(291,422)"/>
<path d="M0 0 C6.43557831 3.17023562 12.82195683 6.34933813 19 10 C18.63390625 10.57363281 18.2678125 11.14726562 17.890625 11.73828125 C14.92665847 16.38888588 11.97021954 21.04348736 9.0390625 25.71484375 C8.25740723 26.95850708 8.25740723 26.95850708 7.45996094 28.22729492 C6.42241314 29.87870919 5.38653938 31.53117669 4.35253906 33.18481445 C1.38155311 37.90938531 -1.70931142 42.49187718 -5 47 C-5.70125 46.61328125 -6.4025 46.2265625 -7.125 45.828125 C-12.69832834 42.76885238 -18.29206196 39.80012055 -24 37 C-21.00813076 32.50622831 -18.01253534 28.01510712 -15 23.53515625 C-9.80773803 15.80116814 -4.63326124 8.08788585 0 0 Z " fill="#6865F6" transform="translate(219,197)"/>
<path d="M0 0 C14.38250885 -0.11682543 28.63984679 0.16145091 43 1 C43 7.93 43 14.86 43 22 C28.60098474 22.31302207 14.34943811 21.12151924 0 20 C0 13.4 0 6.8 0 0 Z " fill="#6A66F7" transform="translate(305,154)"/>
<path d="M0 0 C0.5347998 1.08007324 1.06959961 2.16014648 1.62060547 3.27294922 C3.6032082 7.27431689 5.5910801 11.27304708 7.58056641 15.27099609 C8.44138567 17.00270079 9.30076846 18.73512031 10.15869141 20.46826172 C11.3910964 22.95729239 12.6286207 25.44371845 13.8671875 27.9296875 C14.25059296 28.70682098 14.63399841 29.48395447 15.02902222 30.28463745 C15.38924469 31.00523346 15.74946716 31.72582947 16.12060547 32.46826172 C16.43593231 33.10335663 16.75125916 33.73845154 17.07614136 34.39279175 C18.01645257 36.19022069 18.01645257 36.19022069 20 38 C18.33436871 38.91854666 16.66743141 39.83472515 15 40.75 C14.071875 41.26046875 13.14375 41.7709375 12.1875 42.296875 C8.49314038 44.27082205 4.75468769 46.1440979 1 48 C-5.92453954 35.4553432 -12.72446134 22.88331171 -19 10 C-16.21251481 8.32626249 -13.41935573 6.66223733 -10.625 5 C-9.8309375 4.52304687 -9.036875 4.04609375 -8.21875 3.5546875 C-7.45820313 3.10351562 -6.69765625 2.65234375 -5.9140625 2.1875 C-4.8614624 1.55908203 -4.8614624 1.55908203 -3.78759766 0.91796875 C-2 0 -2 0 0 0 Z " fill="#6965F6" transform="translate(210,319)"/>
<path d="M0 0 C2.9375 2.4375 2.9375 2.4375 5 5 C5.33 5.33 5.66 5.66 6 6 C6.29322866 8.93228663 6.50004247 11.14491883 6 14 C3.5625 16.9375 3.5625 16.9375 1 19 C0.67 19.33 0.34 19.66 0 20 C-7.07616708 20.58968059 -7.07616708 20.58968059 -10.9375 18.125 C-14.09695358 14.8698054 -14.33421243 12.57586762 -14.29296875 8.0390625 C-13.83745033 4.86865433 -12.24684343 3.1807598 -10 1 C-6.78540014 -0.60729993 -3.47611897 -0.61930855 0 0 Z " fill="#6966F6" transform="translate(335,522)"/>
<path d="M0 0 C2.8100346 1.79363911 4.50940468 3.01880935 6 6 C6.50698467 11.15434412 6.50698467 11.15434412 6 14 C3.5625 16.9375 3.5625 16.9375 1 19 C0.67 19.33 0.34 19.66 0 20 C-2.93228663 20.29322866 -5.14491883 20.50004247 -8 20 C-10.9375 17.5625 -10.9375 17.5625 -13 15 C-13.33 14.67 -13.66 14.34 -14 14 C-14.58968059 6.92383292 -14.58968059 6.92383292 -12.125 3.0625 C-8.49059499 -0.46501074 -4.90782663 -0.7051475 0 0 Z " fill="#6966F6" transform="translate(285,499)"/>
<path d="M0 0 C3.16872216 0.68885264 4.96142228 2.13674555 7.15625 4.46875 C8.76472182 7.68569364 8.76934149 10.99012222 8.15625 14.46875 C4.98873649 18.38646408 2.84798433 20.27723291 -2.15625 20.84375 C-5.84375 20.46875 -5.84375 20.46875 -8.71875 18.09375 C-12.00220854 14.03771298 -12.36838598 11.71510977 -11.84375 6.46875 C-8.73903642 0.9603872 -6.06890656 -0.40459377 0 0 Z " fill="#6B67F7" transform="translate(369.84375,483.53125)"/>
</svg>
