<?xml version="1.0" encoding="UTF-8"?>
<svg version="1.1" xmlns="http://www.w3.org/2000/svg" width="640" height="640">
<path d="M0 0 C211.2 0 422.4 0 640 0 C640 211.2 640 422.4 640 640 C428.8 640 217.6 640 0 640 C0 428.8 0 217.6 0 0 Z " fill="#FEFEFE" transform="translate(0,0)"/>
<path d="M0 0 C3.58110377 1.54303328 6.93035529 3.4402577 10.3125 5.375 C11.28002197 5.91721191 12.24754395 6.45942383 13.24438477 7.01806641 C16.17094873 8.66499624 19.08605164 10.33087433 22 12 C22.84852539 12.47953125 23.69705078 12.9590625 24.57128906 13.453125 C26.86613205 14.75008864 29.15350471 16.05904376 31.4375 17.375 C32.10370361 17.75446777 32.76990723 18.13393555 33.45629883 18.52490234 C44.50351154 25.00702307 44.50351154 25.00702307 47 30 C47.15676775 32.69655446 47.25836315 35.37129977 47.31640625 38.0703125 C47.33718735 38.86654022 47.35796844 39.66276794 47.37937927 40.48312378 C47.44484149 43.03032685 47.50374415 45.57763425 47.5625 48.125 C47.6056884 49.85027127 47.64930279 51.57553193 47.69335938 53.30078125 C47.80051945 57.53374685 47.90179623 61.76681753 48 66 C52.4605397 68.00566165 56.92627881 69.999071 61.3972168 71.98144531 C62.91660224 72.65715964 64.4345279 73.33616658 65.95092773 74.01855469 C68.13407613 75.00029169 70.32224466 75.9699679 72.51171875 76.9375 C73.52295052 77.39684937 73.52295052 77.39684937 74.55461121 77.86547852 C78.16243323 79.44483164 81.05785111 80.58840514 85 80 C87.38190684 78.99588065 87.38190684 78.99588065 89.703125 77.5078125 C91.03815063 76.70380005 91.03815063 76.70380005 92.40014648 75.88354492 C93.34059814 75.3032251 94.2810498 74.72290527 95.25 74.125 C96.70805054 73.24775269 96.70805054 73.24775269 98.19555664 72.3527832 C102.81232018 69.57334556 107.40198008 66.75207297 111.98046875 63.91015625 C112.7374707 63.44786621 113.49447266 62.98557617 114.27441406 62.50927734 C115.67682628 61.652318 117.07134999 60.78225919 118.45605469 59.89697266 C122.79347759 57.25492693 125.81314833 56.0840356 131 57 C134.97204472 58.8375365 138.65332888 61.07930726 142.375 63.375 C144.51418504 64.66429128 146.65350887 65.95335234 148.79296875 67.2421875 C149.84274902 67.88124023 150.8925293 68.52029297 151.97412109 69.17871094 C154.68618477 70.81111331 157.41769769 72.39236441 160.17578125 73.9453125 C160.9455127 74.38182129 161.71524414 74.81833008 162.50830078 75.26806641 C163.91251097 76.06188722 165.32077692 76.84859696 166.73388672 77.62646484 C167.36182129 77.98691895 167.98975586 78.34737305 168.63671875 78.71875 C169.16998779 79.01716797 169.70325684 79.31558594 170.25268555 79.62304688 C173.90944417 82.50471777 176.57661146 84.80807444 177.47499084 89.45907593 C177.67833651 92.48205683 177.71913192 95.46629067 177.69921875 98.49609375 C177.70995171 100.15645409 177.70995171 100.15645409 177.72090149 101.85035706 C177.72866942 104.18611853 177.72368574 106.52195275 177.70678711 108.85766602 C177.68757927 112.42278712 177.72694556 115.98400027 177.77148438 119.54882812 C177.77177478 121.82291898 177.76863355 124.09701339 177.76171875 126.37109375 C177.77700119 127.43170517 177.79228363 128.49231659 177.80802917 129.58506775 C177.71348991 135.61934345 177.05383435 139.30350996 172.67790222 143.61811829 C170.2566368 145.61221685 167.80526255 147.20914078 165.05078125 148.7109375 C163.95572266 149.31550781 162.86066406 149.92007813 161.73242188 150.54296875 C160.60384766 151.14753906 159.47527344 151.75210938 158.3125 152.375 C157.17232422 153.00277344 156.03214844 153.63054687 154.85742188 154.27734375 C146.57101094 158.80966302 146.57101094 158.80966302 143 160 C143.08040527 160.54188965 143.16081055 161.0837793 143.24365234 161.64208984 C143.48516989 163.27827648 143.72329314 164.91496589 143.95898438 166.55200195 C144.2396352 168.45644176 144.53557409 170.35868286 144.84570312 172.25854492 C145.57018971 176.88793715 146.11193606 181.16016368 145.6953125 185.83984375 C145.38728534 190.70688282 145.31753035 194.76887815 148 199 C154.94994491 205.10079494 163.46880226 209.17382166 171.68066406 213.30664062 C175.91983181 215.46925224 179.99688289 217.84347428 184.0625 220.3125 C185.75052734 221.29669922 185.75052734 221.29669922 187.47265625 222.30078125 C190 224 190 224 192 227 C192.27415466 229.33247375 192.27415466 229.33247375 192.30639648 232.1105957 C192.32238388 233.15210281 192.33837128 234.19360992 192.35484314 235.26667786 C192.36288719 236.95418404 192.36288719 236.95418404 192.37109375 238.67578125 C192.38012222 239.83369675 192.3891507 240.99161224 192.39845276 242.18461609 C192.41297119 244.63664153 192.42184593 247.08870584 192.42553711 249.54077148 C192.43742107 253.28761369 192.48658433 257.03280297 192.53710938 260.77929688 C192.54657481 263.16145029 192.55380926 265.54361383 192.55859375 267.92578125 C192.57812607 269.04471268 192.59765839 270.1636441 192.61778259 271.31648254 C192.5675265 280.00678976 192.5675265 280.00678976 189.80883789 283.54418945 C187.11742327 285.89733502 184.64421829 287.67792599 181.5 289.3671875 C180.45392578 289.93928955 179.40785156 290.5113916 178.33007812 291.10083008 C177.23115234 291.68630615 176.13222656 292.27178223 175 292.875 C172.73821086 294.10294412 170.47777873 295.33339122 168.21875 296.56640625 C167.13980469 297.15437988 166.06085938 297.74235352 164.94921875 298.34814453 C161.35617007 300.36060872 157.93905602 302.54845478 154.5 304.8125 C149.73484818 307.75418706 145.7014767 310.07974868 140 309 C136.07232033 307.4224361 132.5965244 305.21651209 129 303 C125.89254309 301.1561069 122.76175385 299.35596733 119.625 297.5625 C118.85164307 297.10125732 118.07828613 296.64001465 117.28149414 296.16479492 C113.10464632 293.74301228 113.10464632 293.74301228 108.44140625 292.86328125 C104.67635992 294.61628682 101.56524063 297.06373807 98.3125 299.625 C96.97664769 300.66064605 95.63938712 301.69447797 94.30078125 302.7265625 C93.62039795 303.28110107 92.94001465 303.83563965 92.23901367 304.40698242 C90 306 90 306 87.30200195 307.1184082 C83.88002322 308.7267902 82.22894159 309.90509442 80 313 C78.21232866 319.68582732 78.43840389 326.71618061 78.53149414 333.58422852 C78.56217407 336.90225096 78.47123648 340.20131704 78.36914062 343.51757812 C78.24626093 355.67786278 79.48867307 363.88321783 87.95399475 372.96092224 C89.07464559 374.09532536 90.20671977 375.21857516 91.3507843 376.32936096 C94.03964945 379.05315452 96.31296405 382.08191634 98.625 385.125 C99.52330123 386.27586373 100.42286457 387.42574451 101.32421875 388.57421875 C101.76556152 389.13931152 102.2069043 389.7044043 102.66162109 390.28662109 C104.91644957 393.17322931 107.17655888 396.05567867 109.4375 398.9375 C109.88520752 399.50968262 110.33291504 400.08186523 110.79418945 400.67138672 C113.21655069 403.7598865 115.66406713 406.82437751 118.1484375 409.86328125 C130.10917426 424.51949876 137.44667002 436.60590914 136.21142578 456.015625 C135.09263366 466.51625124 128.60520281 477.28170486 120.9765625 484.40625 C111.30421727 492.20529516 100.953759 495.11695848 88.86328125 496.8671875 C87.80261948 497.02697586 86.7419577 497.18676422 85.64915466 497.35139465 C82.20478692 497.86761043 78.75877395 498.37168097 75.3125 498.875 C72.91368613 499.23118442 70.51492352 499.58771416 68.11621094 499.94458008 C52.82363509 502.207046 37.51599789 504.32830523 22.17895508 506.26586914 C14.80141406 507.20269578 7.4491561 508.213953 0.109375 509.4140625 C-45.56464659 516.86778476 -45.56464659 516.86778476 -62.6875 505.375 C-72.60777514 497.70483006 -79.61869687 487.47802839 -82 475 C-82.17066284 472.87930439 -82.2662598 470.75204902 -82.3125 468.625 C-82.34988281 467.52414062 -82.38726562 466.42328125 -82.42578125 465.2890625 C-81.80483759 453.90129755 -76.4807503 442.74610392 -72.11639404 432.35961914 C-70.72557301 429.04932294 -69.35225228 425.73183942 -67.97732544 422.41491699 C-67.22256183 420.59464959 -66.46690449 418.77475255 -65.7104187 416.9552002 C-61.02884425 405.68788976 -56.43289668 394.38568848 -51.83392334 383.08447266 C-49.94752146 378.44971511 -48.05880728 373.81590263 -46.16879272 369.18261719 C-45.29037797 367.02333594 -44.41563313 364.86255756 -43.54483032 362.70019531 C-41.76176451 358.27657516 -39.96915948 353.87300296 -37.98535156 349.53515625 C-34.1882535 341.11957635 -33.47092888 335.09206457 -35 326 C-35.22784889 324.37162687 -35.45025197 322.74248641 -35.66845703 321.11279297 C-36.42220898 315.54763663 -37.2389289 309.99268881 -38.0625 304.4375 C-38.48577688 301.57044356 -38.90773575 298.70321598 -39.32627869 295.83546448 C-39.58491774 294.06431914 -39.84631591 292.29357388 -40.1108551 290.52330017 C-40.22775192 289.7246907 -40.34464874 288.92608124 -40.46508789 288.10327148 C-40.56866104 287.40523911 -40.67223419 286.70720673 -40.77894592 285.98802185 C-41 284 -41 284 -41 280 C-41.721875 279.896875 -42.44375 279.79375 -43.1875 279.6875 C-46.25035117 278.93880305 -48.34430363 277.66483151 -51 276 C-51.01458252 276.88260498 -51.02916504 277.76520996 -51.04418945 278.67456055 C-51.10542067 281.96438643 -51.1796033 285.2533993 -51.26245117 288.54272461 C-51.29560557 289.96351202 -51.32366692 291.38442813 -51.34643555 292.80541992 C-51.38015847 294.8539082 -51.43247745 296.9012272 -51.48828125 298.94921875 C-51.51446533 300.17987061 -51.54064941 301.41052246 -51.56762695 302.6784668 C-52.15458465 307.1875348 -53.44270479 309.79989276 -57.05859375 312.58642578 C-58.23615234 313.25907471 -58.23615234 313.25907471 -59.4375 313.9453125 C-60.32348877 314.4599707 -61.20947754 314.97462891 -62.12231445 315.50488281 C-63.07195068 316.03952148 -64.02158691 316.57416016 -65 317.125 C-66.9935536 318.26811754 -68.98704197 319.41134883 -70.98046875 320.5546875 C-72.48939697 321.41271973 -72.48939697 321.41271973 -74.02880859 322.28808594 C-76.83385836 323.90427402 -79.60229567 325.56770779 -82.36328125 327.2578125 C-83.19923828 327.76296387 -84.03519531 328.26811523 -84.89648438 328.78857422 C-86.46062106 329.73470621 -88.01842026 330.69142936 -89.56835938 331.66064453 C-94.51914848 334.60950564 -99.13650813 336.7999131 -105 336 C-109.26920113 334.32923102 -113.08713168 332.06129276 -117 329.6875 C-118.09272217 329.04756104 -119.18544434 328.40762207 -120.3112793 327.74829102 C-122.51432397 326.45551251 -124.71194475 325.15344279 -126.90380859 323.84179688 C-129.6728417 322.19461301 -132.46056503 320.59339026 -135.26953125 319.015625 C-136.78410224 318.15668728 -138.2984438 317.29734481 -139.8125 316.4375 C-140.49248047 316.05746826 -141.17246094 315.67743652 -141.87304688 315.28588867 C-145.87924692 312.95736226 -148.63105906 310.99470946 -151 307 C-151.60940539 303.11826787 -151.5842114 299.27066445 -151.56640625 295.34765625 C-151.57260483 294.21476669 -151.57880341 293.08187714 -151.58518982 291.91465759 C-151.59228567 289.5216457 -151.58911817 287.12858441 -151.57641602 284.7355957 C-151.56256124 281.078663 -151.59661586 277.42429438 -151.63476562 273.76757812 C-151.63571694 271.44010354 -151.63385732 269.11262576 -151.62890625 266.78515625 C-151.64216446 265.69437271 -151.65542267 264.60358917 -151.66908264 263.47975159 C-151.56550601 255.013142 -151.56550601 255.013142 -148.87402344 251.51879883 C-145.84333859 248.86270168 -142.90705784 246.87516464 -139.38671875 244.9140625 C-138.77230423 244.56741547 -138.15788971 244.22076843 -137.52485657 243.86361694 C-135.58520527 242.77266053 -133.63676068 241.69867372 -131.6875 240.625 C-130.36070757 239.8826184 -129.03452907 239.13913844 -127.70898438 238.39453125 C-124.47964928 236.58361353 -121.24221502 234.78777827 -118 233 C-118.09087891 232.13310547 -118.18175781 231.26621094 -118.27539062 230.37304688 C-118.6141135 227.12304434 -118.949133 223.87270243 -119.28173828 220.62207031 C-119.42578844 219.221529 -119.57126661 217.82113373 -119.71826172 216.42089844 C-121.21963851 202.101645 -121.21963851 202.101645 -121 195 C-121.69512695 194.74186523 -122.39025391 194.48373047 -123.10644531 194.21777344 C-126.32452023 192.86342331 -129.2640832 191.24595786 -132.296875 189.515625 C-132.88994446 189.17754822 -133.48301392 188.83947144 -134.09405518 188.4911499 C-135.34551256 187.77661248 -136.59604647 187.06045551 -137.84570312 186.34277344 C-139.72776244 185.26276094 -141.61361608 184.18962438 -143.5 183.1171875 C-162.76449499 172.12290038 -162.76449499 172.12290038 -166 167 C-166.38095093 164.5405426 -166.38095093 164.5405426 -166.38818359 161.76000977 C-166.39764008 160.71535049 -166.40709656 159.67069122 -166.4168396 158.59437561 C-166.41076691 157.47139572 -166.40469421 156.34841583 -166.3984375 155.19140625 C-166.40130768 154.03253403 -166.40417786 152.8736618 -166.40713501 151.67967224 C-166.40917609 149.22939566 -166.40364322 146.77910281 -166.39111328 144.32885742 C-166.3750757 140.58019493 -166.39095398 136.83261307 -166.41015625 133.08398438 C-166.40817354 130.70312262 -166.4043293 128.32226154 -166.3984375 125.94140625 C-166.40451019 124.82045059 -166.41058289 123.69949493 -166.4168396 122.54457092 C-166.40738312 121.49675949 -166.39792664 120.44894806 -166.38818359 119.36938477 C-166.38579681 118.45101334 -166.38341003 117.53264191 -166.38095093 116.58644104 C-165.91807094 113.44374806 -164.83981291 111.5700522 -163 109 C-160.54248047 107.21411133 -160.54248047 107.21411133 -157.6171875 105.58203125 C-156.00154907 104.66659546 -156.00154907 104.66659546 -154.35327148 103.73266602 C-153.20544189 103.09901123 -152.0576123 102.46535645 -150.875 101.8125 C-149.09882855 100.81882586 -147.32455267 99.82182902 -145.55046082 98.82444763 C-144.36967774 98.16096019 -143.18804721 97.49897866 -142.00556946 96.83851624 C-138.55513621 94.90463033 -135.16608534 92.90005284 -131.81640625 90.796875 C-131.06439941 90.32918701 -130.31239258 89.86149902 -129.53759766 89.37963867 C-128.18775907 88.53304728 -126.84665181 87.6722818 -125.51708984 86.79418945 C-121.65439423 84.40507878 -118.22343953 83.12800706 -113.6394043 83.34838867 C-107.46714461 84.87218491 -102.03461509 88.7895272 -96.6875 92.125 C-94.79806355 93.29768729 -92.90596049 94.46376792 -91.00068665 95.61056519 C-89.28462959 96.64388267 -87.58267866 97.70051993 -85.8815918 98.75830078 C-83.14913471 100.30274104 -83.14913471 100.30274104 -80.80200195 99.33569336 C-80.20734131 98.89491455 -79.61268066 98.45413574 -79 98 C-77.9996875 97.31808594 -76.999375 96.63617188 -75.96875 95.93359375 C-74.81039424 95.10449665 -73.65420065 94.2723718 -72.5 93.4375 C-71.95085937 93.04498047 -71.40171875 92.65246094 -70.8359375 92.24804688 C-69.61775415 91.3726483 -68.41848184 90.47059945 -67.23461914 89.54931641 C-65 88 -65 88 -61.88842773 86.54052734 C-58.17224701 84.51011907 -55.15334971 82.68244407 -53 79 C-50.94405197 70.8546356 -51.77506567 62.06868752 -52.0625 53.75 C-52.14407996 50.29524522 -52.20826259 46.84182092 -52.24473572 43.3862915 C-52.27116961 41.24328049 -52.32550742 39.10038561 -52.41114807 36.95892334 C-52.55331601 29.72279658 -52.55331601 29.72279658 -49.63989258 25.91699219 C-38.31357843 17.69224247 -25.67273855 11.23042589 -13.47265625 4.40698242 C-11.74508805 3.42396746 -10.03881683 2.40299127 -8.3503418 1.35424805 C-5.14431904 -0.49303649 -3.68406815 -0.5787399 0 0 Z " fill="#072C76" transform="translate(307,91)"/>
<path d="M0 0 C3.58110377 1.54303328 6.93035529 3.4402577 10.3125 5.375 C11.28002197 5.91721191 12.24754395 6.45942383 13.24438477 7.01806641 C16.17094873 8.66499624 19.08605164 10.33087433 22 12 C22.84852539 12.47953125 23.69705078 12.9590625 24.57128906 13.453125 C26.86613205 14.75008864 29.15350471 16.05904376 31.4375 17.375 C32.10370361 17.75446777 32.76990723 18.13393555 33.45629883 18.52490234 C44.50351154 25.00702307 44.50351154 25.00702307 47 30 C47.15676775 32.69655446 47.25836315 35.37129977 47.31640625 38.0703125 C47.33718735 38.86654022 47.35796844 39.66276794 47.37937927 40.48312378 C47.44484149 43.03032685 47.50374415 45.57763425 47.5625 48.125 C47.6056884 49.85027127 47.64930279 51.57553193 47.69335938 53.30078125 C47.80051945 57.53374685 47.90179623 61.76681753 48 66 C52.4605397 68.00566165 56.92627881 69.999071 61.3972168 71.98144531 C62.91660224 72.65715964 64.4345279 73.33616658 65.95092773 74.01855469 C68.13407613 75.00029169 70.32224466 75.9699679 72.51171875 76.9375 C73.52295052 77.39684937 73.52295052 77.39684937 74.55461121 77.86547852 C78.16243323 79.44483164 81.05785111 80.58840514 85 80 C87.38190684 78.99588065 87.38190684 78.99588065 89.703125 77.5078125 C91.03815063 76.70380005 91.03815063 76.70380005 92.40014648 75.88354492 C93.34059814 75.3032251 94.2810498 74.72290527 95.25 74.125 C96.70805054 73.24775269 96.70805054 73.24775269 98.19555664 72.3527832 C102.81232018 69.57334556 107.40198008 66.75207297 111.98046875 63.91015625 C112.7374707 63.44786621 113.49447266 62.98557617 114.27441406 62.50927734 C115.67682628 61.652318 117.07134999 60.78225919 118.45605469 59.89697266 C122.79347759 57.25492693 125.81314833 56.0840356 131 57 C134.97204472 58.8375365 138.65332888 61.07930726 142.375 63.375 C144.51418504 64.66429128 146.65350887 65.95335234 148.79296875 67.2421875 C149.84274902 67.88124023 150.8925293 68.52029297 151.97412109 69.17871094 C154.68618477 70.81111331 157.41769769 72.39236441 160.17578125 73.9453125 C160.9455127 74.38182129 161.71524414 74.81833008 162.50830078 75.26806641 C163.91251097 76.06188722 165.32077692 76.84859696 166.73388672 77.62646484 C167.36182129 77.98691895 167.98975586 78.34737305 168.63671875 78.71875 C169.16998779 79.01716797 169.70325684 79.31558594 170.25268555 79.62304688 C173.90944417 82.50471777 176.57661146 84.80807444 177.47499084 89.45907593 C177.67833651 92.48205683 177.71913192 95.46629067 177.69921875 98.49609375 C177.70995171 100.15645409 177.70995171 100.15645409 177.72090149 101.85035706 C177.72866942 104.18611853 177.72368574 106.52195275 177.70678711 108.85766602 C177.68757927 112.42278712 177.72694556 115.98400027 177.77148438 119.54882812 C177.77177478 121.82291898 177.76863355 124.09701339 177.76171875 126.37109375 C177.77700119 127.43170517 177.79228363 128.49231659 177.80802917 129.58506775 C177.71348991 135.61934345 177.05383435 139.30350996 172.67790222 143.61811829 C170.2566368 145.61221685 167.80526255 147.20914078 165.05078125 148.7109375 C163.95572266 149.31550781 162.86066406 149.92007813 161.73242188 150.54296875 C160.60384766 151.14753906 159.47527344 151.75210938 158.3125 152.375 C157.17232422 153.00277344 156.03214844 153.63054687 154.85742188 154.27734375 C146.57101094 158.80966302 146.57101094 158.80966302 143 160 C143.08040527 160.54188965 143.16081055 161.0837793 143.24365234 161.64208984 C143.48516989 163.27827648 143.72329314 164.91496589 143.95898438 166.55200195 C144.2396352 168.45644176 144.53557409 170.35868286 144.84570312 172.25854492 C145.57018971 176.88793715 146.11193606 181.16016368 145.6953125 185.83984375 C145.38728534 190.70688282 145.31753035 194.76887815 148 199 C154.94994491 205.10079494 163.46880226 209.17382166 171.68066406 213.30664062 C175.91983181 215.46925224 179.99688289 217.84347428 184.0625 220.3125 C185.75052734 221.29669922 185.75052734 221.29669922 187.47265625 222.30078125 C190 224 190 224 192 227 C192.27415466 229.33247375 192.27415466 229.33247375 192.30639648 232.1105957 C192.32238388 233.15210281 192.33837128 234.19360992 192.35484314 235.26667786 C192.36288719 236.95418404 192.36288719 236.95418404 192.37109375 238.67578125 C192.38012222 239.83369675 192.3891507 240.99161224 192.39845276 242.18461609 C192.41297119 244.63664153 192.42184593 247.08870584 192.42553711 249.54077148 C192.43742107 253.28761369 192.48658433 257.03280297 192.53710938 260.77929688 C192.54657481 263.16145029 192.55380926 265.54361383 192.55859375 267.92578125 C192.57812607 269.04471268 192.59765839 270.1636441 192.61778259 271.31648254 C192.5675265 280.00678976 192.5675265 280.00678976 189.80883789 283.54418945 C187.11742327 285.89733502 184.64421829 287.67792599 181.5 289.3671875 C180.45392578 289.93928955 179.40785156 290.5113916 178.33007812 291.10083008 C177.23115234 291.68630615 176.13222656 292.27178223 175 292.875 C172.73821086 294.10294412 170.47777873 295.33339122 168.21875 296.56640625 C167.13980469 297.15437988 166.06085938 297.74235352 164.94921875 298.34814453 C161.35617007 300.36060872 157.93905602 302.54845478 154.5 304.8125 C149.63991652 307.81279154 145.78003301 309.92674373 140 309 C137.61254883 307.89697266 137.61254883 307.89697266 135.01953125 306.4140625 C134.05273438 305.86830566 133.0859375 305.32254883 132.08984375 304.76025391 C130.56037109 303.88892822 130.56037109 303.88892822 129 303 C126.91408259 301.8517615 124.82682065 300.7059624 122.73828125 299.5625 C120.59598093 298.37567347 118.45405648 297.18816822 116.3125 296 C115.23677734 295.40960938 114.16105469 294.81921875 113.05273438 294.2109375 C97.83170816 285.74756224 97.83170816 285.74756224 94 280 C93.72584534 277.66079712 93.72584534 277.66079712 93.69360352 274.87353516 C93.67761612 273.82880035 93.66162872 272.78406555 93.64515686 271.70767212 C93.63711281 270.01546036 93.63711281 270.01546036 93.62890625 268.2890625 C93.61987778 267.12877533 93.6108493 265.96848816 93.60154724 264.77304077 C93.58702993 262.31681912 93.57815435 259.86055866 93.57446289 257.40429688 C93.56256797 253.64647243 93.51339436 249.89029019 93.46289062 246.1328125 C93.45342655 243.74740386 93.44619144 241.36198512 93.44140625 238.9765625 C93.42187393 237.85246979 93.40234161 236.72837708 93.38221741 235.57022095 C93.42717605 227.79539306 93.42717605 227.79539306 96.18286133 223.96899414 C98.95634144 222.03051446 101.69278155 220.19627151 104.6328125 218.51953125 C106.21255859 217.60977539 106.21255859 217.60977539 107.82421875 216.68164062 C108.91347656 216.06482422 110.00273437 215.44800781 111.125 214.8125 C113.29462069 213.56962093 115.46390704 212.326158 117.6328125 211.08203125 C118.59074707 210.53780518 119.54868164 209.9935791 120.53564453 209.43286133 C122.39522385 208.35163773 124.21020591 207.19319606 126 206 C126.11467938 203.39646821 126.04480159 201.07857636 125.8125 198.5 C125.75570068 197.75331055 125.69890137 197.00662109 125.64038086 196.23730469 C125.4476954 193.82258155 125.22723107 191.41170455 125 189 C124.92587891 188.18080078 124.85175781 187.36160156 124.77539062 186.51757812 C124.55118712 184.09349748 124.31121721 181.67168078 124.0625 179.25 C123.98813721 178.50041016 123.91377441 177.75082031 123.8371582 176.97851562 C123.39293334 172.99000123 122.86246235 169.56430673 121 166 C118.67092983 164.17443111 118.67092983 164.17443111 115.79296875 162.73046875 C114.7369043 162.15554687 113.68083984 161.580625 112.59277344 160.98828125 C111.4690332 160.39402344 110.34529297 159.79976562 109.1875 159.1875 C106.9040542 157.94304473 104.62149293 156.69696499 102.33984375 155.44921875 C100.69411377 154.55662354 100.69411377 154.55662354 99.01513672 153.64599609 C95.38238357 151.66283644 91.80269557 149.62340302 88.25 147.5 C87.32703125 146.9534375 86.4040625 146.406875 85.453125 145.84375 C81.9400891 143.20337907 78.60769692 140.45875196 77.52383423 136.07342529 C77.328892 133.88286542 77.28153638 131.73820607 77.29296875 129.5390625 C77.27784744 128.74849457 77.26272614 127.95792664 77.24714661 127.1434021 C77.20441654 124.63697461 77.19544648 122.13175476 77.1875 119.625 C77.16434405 117.91793697 77.13897642 116.21090243 77.11132812 114.50390625 C77.04862175 110.33583145 77.01617174 106.16850457 77 102 C72.58062987 99.96572312 68.15171685 97.95454586 63.71264648 95.96362305 C62.20561265 95.2839296 60.70131868 94.59812563 59.19995117 93.90600586 C57.03484355 92.90920954 54.86066518 91.93518065 52.68359375 90.96484375 C51.68784584 90.49775246 51.68784584 90.49775246 50.67198181 90.02122498 C46.02703913 87.98683603 42.89794629 87.75000329 38 89 C35.41604604 90.11058082 35.41604604 90.11058082 33.06640625 91.625 C32.17759766 92.16294189 31.28878906 92.70088379 30.37304688 93.25512695 C29.44556641 93.83093506 28.51808594 94.40674316 27.5625 95 C25.60604467 96.18194342 23.64900871 97.36292625 21.69140625 98.54296875 C20.72992676 99.12739746 19.76844727 99.71182617 18.77783203 100.31396484 C14.87284221 102.68414059 10.95217517 105.02193267 7 107.3125 C6.05942749 107.88000977 6.05942749 107.88000977 5.09985352 108.45898438 C1.1518702 110.73253958 -1.48316058 111.42003376 -6 111 C-8.98852539 109.65478516 -8.98852539 109.65478516 -12.09765625 107.7890625 C-13.22880859 107.12132812 -14.35996094 106.45359375 -15.52539062 105.765625 C-16.70480638 105.05271045 -17.88383969 104.33916284 -19.0625 103.625 C-21.38360045 102.2368566 -23.70915361 100.85650702 -26.03515625 99.4765625 C-27.0600415 98.85861816 -28.08492676 98.24067383 -29.14086914 97.60400391 C-32.92307581 95.43740255 -32.92307581 95.43740255 -37 94 C-39.29144758 94.90413443 -39.29144758 94.90413443 -41.36328125 96.65625 C-42.16830078 97.26726562 -42.97332031 97.87828125 -43.80273438 98.5078125 C-44.63095703 99.16523438 -45.45917969 99.82265625 -46.3125 100.5 C-47.12912109 101.12648438 -47.94574219 101.75296875 -48.78710938 102.3984375 C-50.34012086 103.59134831 -51.88750611 104.79165009 -53.42700195 106.00195312 C-56 108 -56 108 -58.04924011 109.14733887 C-61.4077309 111.19136377 -63.62458895 112.64077649 -64.70097351 116.53796387 C-64.94007956 119.70877212 -64.92476866 122.79050178 -64.82421875 125.96875 C-64.82323685 127.12242065 -64.82225494 128.27609131 -64.82124329 129.46472168 C-64.81432084 133.14453853 -64.75511579 136.82083483 -64.6875 140.5 C-64.6357718 144.17871712 -64.59589226 147.85620187 -64.58589172 151.53527832 C-64.57825788 153.82155827 -64.5460491 156.10792205 -64.48625183 158.39343262 C-64.43508648 167.01656705 -64.43508648 167.01656705 -67.11987305 170.49487305 C-70.12533081 173.10901242 -73.03378165 175.10231603 -76.5078125 177.05078125 C-77.115112 177.39505661 -77.7224115 177.73933197 -78.34811401 178.09403992 C-80.2676309 179.17817977 -82.19610325 180.24515781 -84.125 181.3125 C-85.42636893 182.04648504 -86.7271561 182.78150257 -88.02734375 183.51757812 C-97.43500455 188.81166818 -97.43500455 188.81166818 -101 190 C-100.91435791 190.62865967 -100.82871582 191.25731934 -100.74047852 191.9050293 C-97.61248196 214.99644479 -97.61248196 214.99644479 -97 226 C-98.11375 225.87625 -99.2275 225.7525 -100.375 225.625 C-105.46887067 225.57042281 -108.76855968 227.92572412 -112.8984375 230.6875 C-115 232 -115 232 -117 232 C-119.23313089 227.53373822 -119.02670698 221.78686328 -119.5625 216.875 C-119.70107422 215.66328125 -119.83964844 214.4515625 -119.98242188 213.203125 C-120.65749254 207.09755981 -121.17616266 201.14271526 -121 195 C-121.69512695 194.74186523 -122.39025391 194.48373047 -123.10644531 194.21777344 C-126.32452023 192.86342331 -129.2640832 191.24595786 -132.296875 189.515625 C-132.88994446 189.17754822 -133.48301392 188.83947144 -134.09405518 188.4911499 C-135.34551256 187.77661248 -136.59604647 187.06045551 -137.84570312 186.34277344 C-139.72776244 185.26276094 -141.61361608 184.18962438 -143.5 183.1171875 C-162.76449499 172.12290038 -162.76449499 172.12290038 -166 167 C-166.38095093 164.5405426 -166.38095093 164.5405426 -166.38818359 161.76000977 C-166.39764008 160.71535049 -166.40709656 159.67069122 -166.4168396 158.59437561 C-166.41076691 157.47139572 -166.40469421 156.34841583 -166.3984375 155.19140625 C-166.40130768 154.03253403 -166.40417786 152.8736618 -166.40713501 151.67967224 C-166.40917609 149.22939566 -166.40364322 146.77910281 -166.39111328 144.32885742 C-166.3750757 140.58019493 -166.39095398 136.83261307 -166.41015625 133.08398438 C-166.40817354 130.70312262 -166.4043293 128.32226154 -166.3984375 125.94140625 C-166.40451019 124.82045059 -166.41058289 123.69949493 -166.4168396 122.54457092 C-166.40738312 121.49675949 -166.39792664 120.44894806 -166.38818359 119.36938477 C-166.38579681 118.45101334 -166.38341003 117.53264191 -166.38095093 116.58644104 C-165.91807094 113.44374806 -164.83981291 111.5700522 -163 109 C-160.54248047 107.21411133 -160.54248047 107.21411133 -157.6171875 105.58203125 C-156.00154907 104.66659546 -156.00154907 104.66659546 -154.35327148 103.73266602 C-153.20544189 103.09901123 -152.0576123 102.46535645 -150.875 101.8125 C-149.09882855 100.81882586 -147.32455267 99.82182902 -145.55046082 98.82444763 C-144.36967774 98.16096019 -143.18804721 97.49897866 -142.00556946 96.83851624 C-138.55513621 94.90463033 -135.16608534 92.90005284 -131.81640625 90.796875 C-131.06439941 90.32918701 -130.31239258 89.86149902 -129.53759766 89.37963867 C-128.18775907 88.53304728 -126.84665181 87.6722818 -125.51708984 86.79418945 C-121.65439423 84.40507878 -118.22343953 83.12800706 -113.6394043 83.34838867 C-107.46714461 84.87218491 -102.03461509 88.7895272 -96.6875 92.125 C-94.79806355 93.29768729 -92.90596049 94.46376792 -91.00068665 95.61056519 C-89.28462959 96.64388267 -87.58267866 97.70051993 -85.8815918 98.75830078 C-83.14913471 100.30274104 -83.14913471 100.30274104 -80.80200195 99.33569336 C-80.20734131 98.89491455 -79.61268066 98.45413574 -79 98 C-77.9996875 97.31808594 -76.999375 96.63617188 -75.96875 95.93359375 C-74.81039424 95.10449665 -73.65420065 94.2723718 -72.5 93.4375 C-71.95085937 93.04498047 -71.40171875 92.65246094 -70.8359375 92.24804688 C-69.61775415 91.3726483 -68.41848184 90.47059945 -67.23461914 89.54931641 C-65 88 -65 88 -61.88842773 86.54052734 C-58.17224701 84.51011907 -55.15334971 82.68244407 -53 79 C-50.94405197 70.8546356 -51.77506567 62.06868752 -52.0625 53.75 C-52.14407996 50.29524522 -52.20826259 46.84182092 -52.24473572 43.3862915 C-52.27116961 41.24328049 -52.32550742 39.10038561 -52.41114807 36.95892334 C-52.55331601 29.72279658 -52.55331601 29.72279658 -49.63989258 25.91699219 C-38.31357843 17.69224247 -25.67273855 11.23042589 -13.47265625 4.40698242 C-11.74508805 3.42396746 -10.03881683 2.40299127 -8.3503418 1.35424805 C-5.14431904 -0.49303649 -3.68406815 -0.5787399 0 0 Z " fill="#082C76" transform="translate(307,91)"/>
<path d="M0 0 C0.65360504 0.28476196 1.30721008 0.56952393 1.98062134 0.86291504 C3.34870122 1.46075761 4.71501306 2.06266127 6.07958984 2.66845703 C8.17564141 3.59888985 10.27665987 4.51725503 12.37890625 5.43359375 C22.6155567 9.9202442 22.6155567 9.9202442 23.7890625 11.09375 C23.88741403 13.68805761 23.92619619 16.26058961 23.9296875 18.85546875 C23.94802516 20.46550883 23.96759635 22.07553524 23.98828125 23.68554688 C24.01718682 26.22899205 24.03906063 28.77156578 24.03955078 31.31518555 C24.04289849 33.76690342 24.07753492 36.21660296 24.1171875 38.66796875 C24.10658295 39.79799568 24.10658295 39.79799568 24.09576416 40.95085144 C24.18949103 45.04507699 24.6248639 46.84298785 26.93969727 50.37817383 C29.84517597 53.14722872 32.54607715 55.02519673 36.05078125 56.96875 C36.64147903 57.30116699 37.23217682 57.63358398 37.84077454 57.97607422 C39.71323345 59.02677704 41.59432454 60.06068749 43.4765625 61.09375 C44.71873994 61.78530825 45.96028204 62.478009 47.20117188 63.171875 C47.80873322 63.51130127 48.41629456 63.85072754 49.04226685 64.20043945 C50.83770503 65.20444779 52.63248489 66.20962589 54.42724609 67.21484375 C56.55905537 68.40630375 58.69677068 69.58730634 60.84228516 70.75390625 C61.73866699 71.25792969 62.63504883 71.76195312 63.55859375 72.28125 C64.33436768 72.70792969 65.1101416 73.13460937 65.90942383 73.57421875 C69.86371177 76.77093107 70.11581032 81.4055274 70.640625 86.20703125 C70.76953125 87.37298828 70.8984375 88.53894531 71.03125 89.74023438 C71.15757812 90.95001953 71.28390625 92.15980469 71.4140625 93.40625 C71.61515625 95.20352539 71.61515625 95.20352539 71.8203125 97.03710938 C72.07092977 99.35787643 72.29997709 101.68109877 72.50488281 104.00634766 C72.67466593 105.85091581 72.88822801 107.69344797 73.19042969 109.52099609 C73.4375 111.57421875 73.4375 111.57421875 72.7890625 115.09375 C70.11519358 117.68278406 67.04604648 119.33071196 63.7890625 121.09375 C62.14409031 122.07651544 60.50084442 123.06217641 58.859375 124.05078125 C57.21272011 125.00568476 55.56427507 125.95750792 53.9140625 126.90625 C53.07359375 127.39544922 52.233125 127.88464844 51.3671875 128.38867188 C45.17257361 131.96591296 45.17257361 131.96591296 41.7890625 133.09375 C40.80640004 136.04173737 40.69020958 137.83396039 40.74243164 140.8972168 C40.76092918 142.359701 40.76092918 142.359701 40.77980042 143.85173035 C40.79445847 144.90483902 40.80911652 145.95794769 40.82421875 147.04296875 C40.8302501 149.27538485 40.83341407 151.5078102 40.83398438 153.74023438 C40.83570122 157.25903936 40.85143846 160.77446661 40.91577148 164.29272461 C41.24618926 183.78463117 41.24618926 183.78463117 37.8190918 189.21557617 C35.24229894 191.29247271 32.76781414 192.66716892 29.7890625 194.09375 C28.18593227 195.25841726 26.60539678 196.45491685 25.05078125 197.68359375 C23.52794173 198.80207078 22.00321549 199.91798377 20.4765625 201.03125 C19.70505859 201.60681641 18.93355469 202.18238281 18.13867188 202.77539062 C17.38779297 203.32259766 16.63691406 203.86980469 15.86328125 204.43359375 C15.19901123 204.92206787 14.53474121 205.41054199 13.8503418 205.91381836 C11.43286799 207.2976453 9.56168179 207.83334125 6.7890625 208.09375 C1.03106301 206.42125837 -5.05378929 202.3700399 -9.2109375 198.09375 C-11.20925233 193.34185175 -11.39896658 189.19991474 -11.2109375 184.09375 C-11.28957031 182.86914062 -11.36820313 181.64453125 -11.44921875 180.3828125 C-11.2109375 177.09375 -11.2109375 177.09375 -9.56640625 175.16015625 C-8.85097656 174.66386719 -8.13554687 174.16757812 -7.3984375 173.65625 C-3.13105049 170.22115479 -0.97232262 167.5936378 -0.2109375 162.09375 C-0.08117207 154.36771589 -1.31017693 146.70683591 -2.5234375 139.09375 C-2.68126709 138.03522827 -2.68126709 138.03522827 -2.84228516 136.95532227 C-3.88554163 130.96623092 -6.20617257 126.94430224 -10.6484375 122.84375 C-17.08955427 118.44493855 -22.98133733 118.37166891 -30.51293945 119.6574707 C-31.79128662 119.90070068 -33.06963379 120.14393066 -34.38671875 120.39453125 C-41.86145785 121.76556875 -49.35930248 122.83218246 -56.89453125 123.8125 C-58.01020477 123.95818924 -59.1258783 124.10387848 -60.27536011 124.25398254 C-64.90732666 124.85597686 -69.53989021 125.45294553 -74.17358398 126.04150391 C-77.60239178 126.47867511 -81.02973089 126.9261848 -84.45703125 127.375 C-85.48952499 127.50322144 -86.52201874 127.63144287 -87.58580017 127.7635498 C-98.81811654 129.08447939 -98.81811654 129.08447939 -108.68359375 134.06640625 C-109.20824219 134.75605469 -109.73289063 135.44570313 -110.2734375 136.15625 C-111.09521484 137.19458984 -111.09521484 137.19458984 -111.93359375 138.25390625 C-114.46459313 141.89947417 -114.49237873 144.80211217 -114.7734375 149.21875 C-114.85722656 150.50007812 -114.94101563 151.78140625 -115.02734375 153.1015625 C-115.11822266 154.58269531 -115.11822266 154.58269531 -115.2109375 156.09375 C-119.11724416 154.64279763 -122.6094247 152.81406599 -126.2109375 150.72265625 C-127.3453125 150.06587891 -128.4796875 149.40910156 -129.6484375 148.73242188 C-130.83596245 148.0404074 -132.02346224 147.34834973 -133.2109375 146.65625 C-134.39826482 145.96780107 -135.58576333 145.27964727 -136.7734375 144.59179688 C-139.92270705 142.76486266 -143.07022045 140.93534742 -146.2109375 139.09375 C-147.13680664 138.62614258 -148.06267578 138.15853516 -149.01660156 137.67675781 C-151.2109375 136.09375 -151.2109375 136.09375 -152.03808594 133.86401367 C-152.1312207 133.00525635 -152.22435547 132.14649902 -152.3203125 131.26171875 C-152.43503906 130.29685547 -152.54976562 129.33199219 -152.66796875 128.33789062 C-152.76464844 127.32919922 -152.86132812 126.32050781 -152.9609375 125.28125 C-153.07308594 124.31509766 -153.18523437 123.34894531 -153.30078125 122.35351562 C-154.1664037 114.61892445 -154.69565079 106.85831472 -155.2109375 99.09375 C-154.46521484 98.67077637 -153.71949219 98.24780273 -152.95117188 97.81201172 C-150.14561209 96.21723123 -147.34292188 94.6175448 -144.54199219 93.01464844 C-143.33671338 92.32619318 -142.13035851 91.63961784 -140.92285156 90.95507812 C-129.02341147 85.18231997 -129.02341147 85.18231997 -120.2109375 76.09375 C-120.14254782 74.43997982 -120.13780848 72.78338951 -120.16430664 71.12841797 C-120.18280418 69.57572708 -120.18280418 69.57572708 -120.20167542 67.9916687 C-120.22366249 66.30583176 -120.22366249 66.30583176 -120.24609375 64.5859375 C-120.25212576 62.2135471 -120.25528913 59.841148 -120.25585938 57.46875 C-120.25757593 53.72175349 -120.27327983 49.97792752 -120.33764648 46.23144531 C-120.39521089 42.61898 -120.38876305 39.0112216 -120.37109375 35.3984375 C-120.40396988 34.28669159 -120.43684601 33.17494568 -120.47071838 32.0295105 C-120.39888667 27.30855447 -120.28133252 24.30142414 -117.0735321 20.68222046 C-114.53549362 18.63699116 -111.95077678 16.85590378 -109.2109375 15.09375 C-107.62120734 13.87530537 -106.04008532 12.64544007 -104.47265625 11.3984375 C-102.94978541 10.2527202 -101.42505915 9.10946472 -99.8984375 7.96875 C-99.12693359 7.36804688 -98.35542969 6.76734375 -97.56054688 6.1484375 C-96.43422852 5.313125 -96.43422852 5.313125 -95.28515625 4.4609375 C-94.28875122 3.70466064 -94.28875122 3.70466064 -93.2722168 2.93310547 C-91.2109375 2.09375 -91.2109375 2.09375 -88.82910156 2.72851562 C-85.90484221 4.25336254 -83.07078499 5.8671931 -80.24609375 7.5703125 C-79.11623047 8.240625 -77.98636719 8.9109375 -76.82226562 9.6015625 C-75.04357238 10.66008032 -73.26755251 11.72231578 -71.49731445 12.79492188 C-69.77485805 13.83608504 -68.04181453 14.85966906 -66.30859375 15.8828125 C-64.76957397 16.80634521 -64.76957397 16.80634521 -63.19946289 17.74853516 C-59.18959913 19.55348159 -56.15529321 19.81797395 -52.01123047 18.27441406 C-51.33205566 17.88995117 -50.65288086 17.50548828 -49.953125 17.109375 C-49.17219482 16.67399414 -48.39126465 16.23861328 -47.58666992 15.79003906 C-46.34880737 15.07412598 -46.34880737 15.07412598 -45.0859375 14.34375 C-44.22009033 13.85874023 -43.35424316 13.37373047 -42.4621582 12.87402344 C-37.80423602 10.24210635 -33.22873292 7.50323486 -28.69921875 4.65625 C-27.36624756 3.82625488 -27.36624756 3.82625488 -26.00634766 2.97949219 C-24.30058911 1.90960057 -22.6056048 0.82228536 -20.92333984 -0.28417969 C-20.14555176 -0.77305664 -19.36776367 -1.26193359 -18.56640625 -1.765625 C-17.89246826 -2.20358398 -17.21853027 -2.64154297 -16.52416992 -3.09277344 C-10.85143755 -5.08765938 -5.20022603 -2.32690612 0 0 Z " fill="#FEFEFE" transform="translate(361.2109375,181.90625)"/>
<path d="M0 0 C0.10609085 0.7383609 0.2121817 1.4767218 0.32148743 2.23745728 C1.32559103 9.21258338 2.33969822 16.18616535 3.36492634 23.15821266 C3.89159456 26.74223881 4.41444592 30.32673397 4.9284668 33.91259766 C5.42513277 37.37637737 5.93196482 40.8385329 6.44573021 44.29981613 C6.73346071 46.25628448 7.01077949 48.21427494 7.28791809 50.17227173 C7.46787827 51.37306366 7.64783844 52.57385559 7.83325195 53.81103516 C7.98647415 54.86360504 8.13969635 55.91617493 8.29756165 57.00064087 C9.42913411 61.83237051 11.6158561 65.84056358 14.78515625 69.62890625 C15.31044922 70.26441406 15.83574219 70.89992188 16.37695312 71.5546875 C16.93318359 72.21726562 17.48941406 72.87984375 18.0625 73.5625 C19.2422677 74.98974394 20.42063884 76.41814336 21.59765625 77.84765625 C22.17789551 78.55164551 22.75813477 79.25563477 23.35595703 79.98095703 C25.63227286 82.77649192 27.81800229 85.63008183 30 88.5 C33.74368174 93.41054358 37.59100949 98.22020319 41.5 103 C45.42612763 107.80176754 49.30182896 112.62990957 53.0625 117.5625 C56.62884581 122.23683674 60.25641774 126.85304501 63.9375 131.4375 C79.84574317 151.27511738 79.84574317 151.27511738 86.5625 160.5625 C87.18922607 161.42016968 87.18922607 161.42016968 87.82861328 162.29516602 C92.47338804 168.80113116 93.965682 174.08611825 93 182 C90.98676913 188.47554673 87.62735888 194.64211382 82.5625 199.1875 C73.69790463 203.69755729 62.97459315 204.60620988 53.21484375 206.015625 C51.4209597 206.28073883 51.4209597 206.28073883 49.59083557 206.5512085 C46.37245055 207.02518448 43.15339423 207.49417393 39.93386841 207.96032715 C37.92506192 208.25180476 35.91658556 208.5454593 33.90820312 208.83984375 C12.23909142 212.01545143 -9.451458 215.0172531 -31.16430664 217.87988281 C-32.20079849 218.01686584 -33.23729034 218.15384888 -34.30519104 218.29498291 C-36.22427074 218.54809335 -38.1435582 218.79963587 -40.06309509 219.04925537 C-44.07846907 219.57777203 -48.03275211 220.17603313 -52 221 C-60.79823659 221.74381227 -67.95884118 221.7517285 -75 216 C-81.21547314 210.23631235 -84.11332517 204.39520255 -84.53125 195.94921875 C-84.42802293 186.05789931 -80.49564544 177.83066389 -76.625 168.875 C-75.85327191 167.03832994 -75.08411951 165.20057577 -74.31738281 163.36181641 C-72.71075518 159.51632112 -71.09189612 155.67632547 -69.46386719 151.83984375 C-67.03785145 146.10923348 -64.66979417 140.35610117 -62.3203125 134.59375 C-61.94019516 133.66193909 -61.56007782 132.73012817 -61.16844177 131.77008057 C-59.65026576 128.04548767 -58.13424551 124.32002141 -56.61929321 120.59411621 C-49.51936623 103.13973546 -49.51936623 103.13973546 -45.92318726 94.86984253 C-44.66222373 91.96658091 -43.4213725 89.05492979 -42.18200684 86.14239502 C-41.61524911 84.8274264 -41.03815462 83.51685028 -40.44934082 82.21160889 C-36.26129814 72.92552071 -35.47508968 65.98388295 -37 56 C-37.22394024 54.36404429 -37.44572565 52.72779268 -37.66577148 51.09130859 C-38.55056256 44.64522326 -39.52180997 38.2125722 -40.49145508 31.77880859 C-40.90658471 29.01207345 -41.31481707 26.24438019 -41.72265625 23.4765625 C-41.85076187 22.64307281 -41.97886749 21.80958313 -42.1108551 20.95083618 C-42.8522759 15.908025 -43.1194218 11.09752142 -43 6 C-36.50197183 3.66825052 -30.00000675 2.82755144 -23.1875 1.875 C-21.95451172 1.69324219 -20.72152344 1.51148438 -19.45117188 1.32421875 C-18.24396484 1.15277344 -17.03675781 0.98132813 -15.79296875 0.8046875 C-14.16137817 0.57241455 -14.16137817 0.57241455 -12.49682617 0.33544922 C-8.31586519 -0.06562879 -4.19587765 -0.06861561 0 0 Z " fill="#92B1F3" transform="translate(330,363)"/>
<path d="M0 0 C0.69222656 0.93005859 0.69222656 0.93005859 1.3984375 1.87890625 C5.44160391 7.23363639 10.1287502 9.93892104 16 13 C14.66362692 17.00911925 12.04150846 18.34613163 8.6875 20.625 C6.86345609 21.88281722 5.05748305 23.14507987 3.28295898 24.47241211 C1 26 1 26 -2.12475586 27.40454102 C-5.90476757 29.4262385 -8.8786056 31.2419969 -11 35 C-13.07739635 43.6269865 -12.22403275 52.8933274 -11.9375 61.6875 C-11.85589092 65.34594612 -11.79170412 69.00312897 -11.75526428 72.66230774 C-11.72885697 74.9321903 -11.67458401 77.20196602 -11.58885193 79.47038269 C-11.43072216 88.01585569 -11.43072216 88.01585569 -14.11108398 91.48828125 C-17.12010741 94.10442533 -20.03034642 96.10038932 -23.5078125 98.05078125 C-24.115112 98.39505661 -24.7224115 98.73933197 -25.34811401 99.09403992 C-27.2676309 100.17817977 -29.19610325 101.24515781 -31.125 102.3125 C-32.42636893 103.04648504 -33.7271561 103.78150257 -35.02734375 104.51757812 C-44.43500455 109.81166818 -44.43500455 109.81166818 -48 111 C-47.91435791 111.62865967 -47.82871582 112.25731934 -47.74047852 112.9050293 C-44.61248196 135.99644479 -44.61248196 135.99644479 -44 147 C-45.11375 146.87625 -46.2275 146.7525 -47.375 146.625 C-52.46887067 146.57042281 -55.76855968 148.92572412 -59.8984375 151.6875 C-62 153 -62 153 -64 153 C-66.23313089 148.53373822 -66.02670698 142.78686328 -66.5625 137.875 C-66.70107422 136.66328125 -66.83964844 135.4515625 -66.98242188 134.203125 C-67.65749254 128.09755981 -68.17616266 122.14271526 -68 116 C-68.69512695 115.74186523 -69.39025391 115.48373047 -70.10644531 115.21777344 C-73.32452023 113.86342331 -76.2640832 112.24595786 -79.296875 110.515625 C-80.18647919 110.00850983 -80.18647919 110.00850983 -81.09405518 109.4911499 C-82.34551256 108.77661248 -83.59604647 108.06045551 -84.84570312 107.34277344 C-86.72776244 106.26276094 -88.61361608 105.18962438 -90.5 104.1171875 C-109.76449499 93.12290038 -109.76449499 93.12290038 -113 88 C-113.38095093 85.5405426 -113.38095093 85.5405426 -113.38818359 82.76000977 C-113.39764008 81.71535049 -113.40709656 80.67069122 -113.4168396 79.59437561 C-113.41076691 78.47139572 -113.40469421 77.34841583 -113.3984375 76.19140625 C-113.40130768 75.03253403 -113.40417786 73.8736618 -113.40713501 72.67967224 C-113.40917609 70.22939566 -113.40364322 67.77910281 -113.39111328 65.32885742 C-113.3750757 61.58019493 -113.39095398 57.83261307 -113.41015625 54.08398438 C-113.40817354 51.70312262 -113.4043293 49.32226154 -113.3984375 46.94140625 C-113.40451019 45.82045059 -113.41058289 44.69949493 -113.4168396 43.54457092 C-113.40738312 42.49675949 -113.39792664 41.44894806 -113.38818359 40.36938477 C-113.38579681 39.45101334 -113.38341003 38.53264191 -113.38095093 37.58644104 C-112.91807094 34.44374806 -111.83981291 32.5700522 -110 30 C-107.54248047 28.21411133 -107.54248047 28.21411133 -104.6171875 26.58203125 C-103.00154907 25.66659546 -103.00154907 25.66659546 -101.35327148 24.73266602 C-99.6315271 23.78218384 -99.6315271 23.78218384 -97.875 22.8125 C-96.09882855 21.81882586 -94.32455267 20.82182902 -92.55046082 19.82444763 C-91.36967774 19.16096019 -90.18804721 18.49897866 -89.00556946 17.83851624 C-85.55513621 15.90463033 -82.16608534 13.90005284 -78.81640625 11.796875 C-78.06439941 11.32918701 -77.31239258 10.86149902 -76.53759766 10.37963867 C-75.18775907 9.53304728 -73.84665181 8.6722818 -72.51708984 7.79418945 C-68.65439423 5.40507878 -65.22343953 4.12800706 -60.6394043 4.34838867 C-54.46714461 5.87218491 -49.03461509 9.7895272 -43.6875 13.125 C-41.79806355 14.29768729 -39.90596049 15.46376792 -38.00068665 16.61056519 C-36.28462959 17.64388267 -34.58267866 18.70051993 -32.8815918 19.75830078 C-30.14913471 21.30274104 -30.14913471 21.30274104 -27.80200195 20.33569336 C-27.20734131 19.89491455 -26.61268066 19.45413574 -26 19 C-24.9996875 18.31808594 -23.999375 17.63617188 -22.96875 16.93359375 C-21.81013238 16.10486263 -20.65399843 15.27265129 -19.5 14.4375 C-18.58710205 13.78128662 -18.58710205 13.78128662 -17.65576172 13.11181641 C-11.7095666 8.82222662 -5.84225707 4.42984327 0 0 Z " fill="#6865F6" transform="translate(254,170)"/>
<path d="M0 0 C0.10609085 0.7383609 0.2121817 1.4767218 0.32148743 2.23745728 C1.32559103 9.21258338 2.33969822 16.18616535 3.36492634 23.15821266 C3.89159456 26.74223881 4.41444592 30.32673397 4.9284668 33.91259766 C5.42513277 37.37637737 5.93196482 40.8385329 6.44573021 44.29981613 C6.73346071 46.25628448 7.01077949 48.21427494 7.28791809 50.17227173 C7.46787827 51.37306366 7.64783844 52.57385559 7.83325195 53.81103516 C7.98647415 54.86360504 8.13969635 55.91617493 8.29756165 57.00064087 C9.42913411 61.83237051 11.6158561 65.84056358 14.78515625 69.62890625 C15.31044922 70.26441406 15.83574219 70.89992188 16.37695312 71.5546875 C16.93318359 72.21726562 17.48941406 72.87984375 18.0625 73.5625 C19.2422677 74.98974394 20.42063884 76.41814336 21.59765625 77.84765625 C22.17789551 78.55164551 22.75813477 79.25563477 23.35595703 79.98095703 C25.63227286 82.77649192 27.81800229 85.63008183 30 88.5 C33.74368174 93.41054358 37.59100949 98.22020319 41.5 103 C45.42612763 107.80176754 49.30182896 112.62990957 53.0625 117.5625 C56.62884581 122.23683674 60.25641774 126.85304501 63.9375 131.4375 C79.75465638 151.16153194 79.75465638 151.16153194 86.6875 160.625 C87.1220752 161.20515869 87.55665039 161.78531738 88.00439453 162.38305664 C90.35630768 165.64276789 91 166.83547714 91 171 C76.340816 170.27905652 60.01463548 165.8636262 47 159 C46.67 158.01 46.34 157.02 46 156 C46.969375 155.54625 47.93875 155.0925 48.9375 154.625 C52.07079582 153.34213779 52.07079582 153.34213779 53 151 C53.19758231 148.92435324 53.19758231 148.92435324 53.1875 146.625 C53.20167969 145.85414063 53.21585937 145.08328125 53.23046875 144.2890625 C52.96756024 141.67780169 52.5234638 140.14325807 51 138 C46.88971683 136.52223611 43.04992078 136.5532252 39.0625 138.25 C36.69606754 140.25788209 35.10904062 141.85943515 34.8046875 145.04296875 C34.82789063 145.75066406 34.85109375 146.45835937 34.875 147.1875 C34.91625 148.445625 34.9575 149.70375 35 151 C20.21254285 145.46458823 7.70512007 133.30354293 -3 122 C-6.12071227 123.17227442 -8.81797882 124.4275604 -11.5625 126.3125 C-27.20780467 136.28197046 -43.92999924 138.23133714 -62 138 C-61.53924219 130.78495152 -58.56386925 124.6467683 -55.75 118.0625 C-55.21847847 116.79214072 -54.68831348 115.52121312 -54.15942383 114.24975586 C-51.56016718 108.01214969 -48.91888908 101.79531135 -46.20828247 95.60523987 C-44.97865604 92.78326636 -43.77268215 89.9515152 -42.57019043 87.1178894 C-41.98986686 85.76657657 -41.39890871 84.41977251 -40.79650879 83.07815552 C-36.54143863 73.59084206 -35.38396176 66.32607988 -37 56 C-37.22528735 54.36538393 -37.44749749 52.73034189 -37.66723633 51.0949707 C-38.55012918 44.64744095 -39.5216357 38.21372854 -40.49145508 31.77880859 C-40.90658471 29.01207345 -41.31481707 26.24438019 -41.72265625 23.4765625 C-41.85076187 22.64307281 -41.97886749 21.80958313 -42.1108551 20.95083618 C-42.8522759 15.908025 -43.1194218 11.09752142 -43 6 C-36.50197183 3.66825052 -30.00000675 2.82755144 -23.1875 1.875 C-21.95451172 1.69324219 -20.72152344 1.51148438 -19.45117188 1.32421875 C-17.64036133 1.06705078 -17.64036133 1.06705078 -15.79296875 0.8046875 C-14.7052417 0.64983887 -13.61751465 0.49499023 -12.49682617 0.33544922 C-8.31586519 -0.06562879 -4.19587765 -0.06861561 0 0 Z " fill="#FDFDFE" transform="translate(330,363)"/>
<path d="M0 0 C3.58110377 1.54303328 6.93035529 3.4402577 10.3125 5.375 C11.28002197 5.91721191 12.24754395 6.45942383 13.24438477 7.01806641 C16.17094873 8.66499624 19.08605164 10.33087433 22 12 C22.84852539 12.47953125 23.69705078 12.9590625 24.57128906 13.453125 C26.86613205 14.75008864 29.15350471 16.05904376 31.4375 17.375 C32.10370361 17.75446777 32.76990723 18.13393555 33.45629883 18.52490234 C44.50351154 25.00702307 44.50351154 25.00702307 47 30 C47.15676775 32.69655446 47.25836315 35.37129977 47.31640625 38.0703125 C47.33718735 38.86654022 47.35796844 39.66276794 47.37937927 40.48312378 C47.44484149 43.03032685 47.50374415 45.57763425 47.5625 48.125 C47.6056884 49.85027127 47.64930279 51.57553193 47.69335938 53.30078125 C47.80051945 57.53374685 47.90179623 61.76681753 48 66 C48.95366455 66.41362793 49.9073291 66.82725586 50.88989258 67.25341797 C54.43023673 68.78986783 57.96890436 70.330146 61.50708008 71.87158203 C63.03820111 72.5379918 64.56977388 73.20336468 66.10180664 73.86767578 C68.30474728 74.82311648 70.50603259 75.78228315 72.70703125 76.7421875 C73.39150833 77.03809784 74.07598541 77.33400818 74.78120422 77.6388855 C77.71476461 78.92208031 80.32697872 80.21798581 83 82 C82.35546875 82.66386719 81.7109375 83.32773438 81.046875 84.01171875 C78.57131059 87.62585382 78.33925904 90.57269568 78.25 94.8125 C78.22035156 95.50537109 78.19070313 96.19824219 78.16015625 96.91210938 C78.09000372 98.60746213 78.04267338 100.30373312 78 102 C71.85756531 99.76944434 65.83438653 97.42849077 59.9296875 94.62890625 C59.05344727 94.21697021 58.17720703 93.80503418 57.27441406 93.38061523 C55.53233429 92.55500555 53.79698038 91.71502429 52.06933594 90.85961914 C46.94730672 88.44302265 43.6209932 87.20672384 38 89 C34.3934163 90.80329185 30.98664842 92.87418444 27.5625 95 C25.60604467 96.18194342 23.64900871 97.36292625 21.69140625 98.54296875 C20.72992676 99.12739746 19.76844727 99.71182617 18.77783203 100.31396484 C14.87284221 102.68414059 10.95217517 105.02193267 7 107.3125 C6.37295166 107.69083984 5.74590332 108.06917969 5.09985352 108.45898438 C1.15437911 110.73109476 -1.48678622 111.39800854 -6 111 C-8.7980957 109.78173828 -8.7980957 109.78173828 -11.67578125 108.0703125 C-12.74368896 107.44431152 -13.81159668 106.81831055 -14.91186523 106.17333984 C-16.59517944 105.15941162 -16.59517944 105.15941162 -18.3125 104.125 C-19.4760154 103.4346493 -20.64016401 102.74536473 -21.80493164 102.05712891 C-24.1243437 100.68500043 -26.43968165 99.30631807 -28.75292969 97.92382812 C-31.61101217 96.23046798 -34.4860271 94.57904121 -37.3828125 92.953125 C-38.55396606 92.28966064 -38.55396606 92.28966064 -39.7487793 91.61279297 C-41.16489856 90.81193132 -42.58539736 90.01874418 -44.01098633 89.23486328 C-47.96131826 86.9657298 -49.98873487 85.06674603 -52 81 C-52.39440918 78.45825195 -52.39440918 78.45825195 -52.41992188 75.73828125 C-52.43583374 74.71371826 -52.45174561 73.68915527 -52.46813965 72.63354492 C-52.46834106 71.5376001 -52.46854248 70.44165527 -52.46875 69.3125 C-52.48017029 67.60960815 -52.48017029 67.60960815 -52.49182129 65.87231445 C-52.50261352 63.47512001 -52.50547898 61.07787857 -52.50097656 58.68066406 C-52.50000342 55.01287603 -52.54165607 51.34717405 -52.5859375 47.6796875 C-52.59114394 45.34896269 -52.5938327 43.01823062 -52.59375 40.6875 C-52.61014526 39.59155518 -52.62654053 38.49561035 -52.64343262 37.36645508 C-52.57428312 29.75282589 -52.57428312 29.75282589 -49.62060547 25.88085938 C-38.25135086 17.72092482 -25.67212629 11.23008345 -13.47265625 4.40698242 C-11.74508805 3.42396746 -10.03881683 2.40299127 -8.3503418 1.35424805 C-5.14431904 -0.49303649 -3.68406815 -0.5787399 0 0 Z " fill="#082C76" transform="translate(307,91)"/>
<path d="M0 0 C2.78222656 1.20239258 2.78222656 1.20239258 5.640625 2.89453125 C6.70345703 3.51553711 7.76628906 4.13654297 8.86132812 4.77636719 C10.5387207 5.78425293 10.5387207 5.78425293 12.25 6.8125 C13.41026214 7.49864404 14.57107407 8.18385921 15.73242188 8.86816406 C18.06044502 10.24373668 20.38309567 11.62775132 22.70117188 13.02001953 C25.67446075 14.80460899 28.656139 16.57407681 31.640625 18.33984375 C33.2613459 19.3083425 34.88120538 20.27828499 36.5 21.25 C37.24024414 21.69061768 37.98048828 22.13123535 38.74316406 22.58520508 C41.91446402 24.5192118 43.91082629 25.86623944 46 29 C46.27415466 31.33247375 46.27415466 31.33247375 46.30639648 34.1105957 C46.32238388 35.15210281 46.33837128 36.19360992 46.35484314 37.26667786 C46.36020584 38.39168198 46.36556854 39.5166861 46.37109375 40.67578125 C46.38012222 41.83369675 46.3891507 42.99161224 46.39845276 44.18461609 C46.41297119 46.63664153 46.42184593 49.08870584 46.42553711 51.54077148 C46.43742107 55.28761369 46.48658433 59.03280297 46.53710938 62.77929688 C46.54657481 65.16145029 46.55380926 67.54361383 46.55859375 69.92578125 C46.57812607 71.04471268 46.59765839 72.1636441 46.61778259 73.31648254 C46.5675265 82.00678976 46.5675265 82.00678976 43.80883789 85.54418945 C41.11742327 87.89733502 38.64421829 89.67792599 35.5 91.3671875 C34.45392578 91.93928955 33.40785156 92.5113916 32.33007812 93.10083008 C30.68168945 93.97904419 30.68168945 93.97904419 29 94.875 C26.73821086 96.10294412 24.47777873 97.33339122 22.21875 98.56640625 C21.13980469 99.15437988 20.06085938 99.74235352 18.94921875 100.34814453 C15.35617007 102.36060872 11.93905602 104.54845478 8.5 106.8125 C3.63991652 109.81279154 -0.21996699 111.92674373 -6 111 C-8.38745117 109.89697266 -8.38745117 109.89697266 -10.98046875 108.4140625 C-11.94726562 107.86830566 -12.9140625 107.32254883 -13.91015625 106.76025391 C-14.92980469 106.17937012 -15.94945312 105.59848633 -17 105 C-19.08591741 103.8517615 -21.17317935 102.7059624 -23.26171875 101.5625 C-25.40401907 100.37567347 -27.54594352 99.18816822 -29.6875 98 C-30.76322266 97.40960938 -31.83894531 96.81921875 -32.94726562 96.2109375 C-48.16829184 87.74756224 -48.16829184 87.74756224 -52 82 C-52.27415466 79.66079712 -52.27415466 79.66079712 -52.30639648 76.87353516 C-52.33037758 75.30643295 -52.33037758 75.30643295 -52.35484314 73.70767212 C-52.36020584 72.57953094 -52.36556854 71.45138977 -52.37109375 70.2890625 C-52.38012222 69.12877533 -52.3891507 67.96848816 -52.39845276 66.77304077 C-52.41297007 64.31681912 -52.42184565 61.86055866 -52.42553711 59.40429688 C-52.43743203 55.64647243 -52.48660564 51.89029019 -52.53710938 48.1328125 C-52.54657345 45.74740386 -52.55380856 43.36198512 -52.55859375 40.9765625 C-52.57812607 39.85246979 -52.59765839 38.72837708 -52.61778259 37.57022095 C-52.57278604 29.78883636 -52.57278604 29.78883636 -49.78637695 25.95141602 C-47.17932411 24.12558816 -44.62447325 22.37743966 -41.859375 20.80078125 C-40.87888184 20.23568848 -39.89838867 19.6705957 -38.88818359 19.08837891 C-37.33478271 18.20931885 -37.33478271 18.20931885 -35.75 17.3125 C-33.59072631 16.07755615 -31.43187471 14.84187401 -29.2734375 13.60546875 C-28.21092773 12.99880371 -27.14841797 12.39213867 -26.05371094 11.76708984 C-23.29414292 10.17021158 -20.56718099 8.53347819 -17.8515625 6.86328125 C-16.7054248 6.16368286 -16.7054248 6.16368286 -15.53613281 5.44995117 C-14.13608357 4.59160648 -12.74175657 3.7238285 -11.35449219 2.8449707 C-7.30477607 0.38621449 -4.69974208 -0.42987677 0 0 Z " fill="#062B75" transform="translate(453,289)"/>
<path d="M0 0 C3.39528287 1.69764143 4.10245592 5.68789184 5.5 9.0625 C11.01611635 21.88398536 18.10066684 33.26738473 27.1875 43.86328125 C29 46 29 46 31 49 C35.1851733 47.55393464 38.27373566 45.45180947 41.8125 42.8125 C46.72392113 39.28769004 51.71181552 36.48598804 57.25 34.0625 C57.88655518 33.78059814 58.52311035 33.49869629 59.17895508 33.20825195 C64.00232298 31.18130894 68.87164801 29.99717955 74 29 C81.64523668 38.35903377 89.22312313 47.76241066 96.66162109 57.28662109 C98.91644922 60.17322886 101.1763629 63.05583287 103.4375 65.9375 C103.88520752 66.50895752 104.33291504 67.08041504 104.79418945 67.66918945 C107.22368388 70.76375311 109.67278913 73.84064034 112.1484375 76.8984375 C127 95.24810472 127 95.24810472 127 101 C112.340816 100.27905652 96.01463548 95.8636262 83 89 C82.67 88.01 82.34 87.02 82 86 C82.969375 85.54625 83.93875 85.0925 84.9375 84.625 C88.07079582 83.34213779 88.07079582 83.34213779 89 81 C89.19758231 78.92435324 89.19758231 78.92435324 89.1875 76.625 C89.20167969 75.85414063 89.21585937 75.08328125 89.23046875 74.2890625 C88.96756024 71.67780169 88.5234638 70.14325807 87 68 C82.88971683 66.52223611 79.04992078 66.5532252 75.0625 68.25 C72.69606754 70.25788209 71.10904062 71.85943515 70.8046875 75.04296875 C70.82789063 75.75066406 70.85109375 76.45835937 70.875 77.1875 C70.91625 78.445625 70.9575 79.70375 71 81 C56.21254285 75.46458823 43.70512007 63.30354293 33 52 C29.87928773 53.17227442 27.18202118 54.4275604 24.4375 56.3125 C8.79219533 66.28197046 -7.92999924 68.23133714 -26 68 C-25.53930569 60.78594586 -22.56620584 54.64500501 -19.75 48.0625 C-18.94344498 46.15165263 -18.14000273 44.23951536 -17.33673096 42.32728577 C-16.77411727 40.98831321 -16.2105845 39.64972651 -15.6461792 38.31150818 C-12.2717186 30.30104601 -9.01212812 22.244192 -5.75 14.1875 C-5.17163785 12.76111325 -4.5931895 11.33476146 -4.01464844 9.90844727 C-2.67536619 6.6060629 -1.33729253 3.30319069 0 0 Z " fill="#D0DAFC" transform="translate(294,433)"/>
<path d="M0 0 C7.1981308 3.23693963 14.04879507 6.44596302 18.9453125 12.81640625 C22.69752412 23.22141702 20.4172609 36.11964401 18.9453125 46.81640625 C15.47870863 48.77756816 12.00981965 50.73461925 8.53881836 52.68798828 C7.35980688 53.35224286 6.18141149 54.01759226 5.00366211 54.68408203 C3.30487185 55.64517352 1.60363039 56.60192822 -0.09765625 57.55859375 C-1.62942505 58.42266846 -1.62942505 58.42266846 -3.19213867 59.30419922 C-4.13677979 59.80322754 -5.0814209 60.30225586 -6.0546875 60.81640625 C-6.87662598 61.276521 -7.69856445 61.73663574 -8.54541016 62.21069336 C-12.27806659 63.11171696 -13.92466149 61.71406938 -17.16015625 59.765625 C-18.00807487 59.26552666 -18.00807487 59.26552666 -18.87312317 58.75532532 C-20.67349949 57.68834402 -22.45752408 56.59692542 -24.2421875 55.50390625 C-25.45407098 54.77891278 -26.66695279 54.05558531 -27.88085938 53.33398438 C-30.1006247 52.01239488 -32.31212566 50.67981838 -34.52026367 49.33862305 C-36.93345152 47.8448791 -36.93345152 47.8448791 -39.0546875 46.81640625 C-41.74534336 17.27032639 -41.74534336 17.27032639 -37.54736328 10.32128906 C-33.68638873 6.75686084 -29.13473622 5.06743135 -24.17041016 3.53857422 C-21.23379684 2.5362084 -18.89491932 0.90336622 -16.3671875 -0.87109375 C-10.88669968 -4.58820706 -5.77038614 -2.31044248 0 0 Z " fill="#FA8D02" transform="translate(460.0546875,315.18359375)"/>
<path d="M0 0 C1.75209166 1.23903573 3.48211243 2.50993025 5.1875 3.8125 C6.84180921 4.76577679 8.51216789 5.69188213 10.19921875 6.5859375 C11.75810444 7.4526001 13.31665089 8.31987295 14.875 9.1875 C17.618125 10.71375 20.36125 12.24 23.1875 13.8125 C23.1875 25.3625 23.1875 36.9125 23.1875 48.8125 C10.75 55.75 10.75 55.75 6.82250977 57.93725586 C5.80987061 58.50323486 4.79723145 59.06921387 3.75390625 59.65234375 C2.71177979 60.23363037 1.66965332 60.81491699 0.59594727 61.41381836 C-1.68809403 62.60263865 -1.68809403 62.60263865 -2.8125 63.8125 C-13.12889089 63.32055429 -23.7427664 58.38213134 -31.56982422 51.828125 C-38.86706948 42.01584833 -35.26469595 25.21596176 -33.8125 13.8125 C-30.06126084 11.36366294 -26.27781264 8.97969587 -22.45385742 6.64697266 C-21.16061024 5.84642954 -19.87736835 5.0294721 -18.60522461 4.19580078 C-6.64243343 -3.61720714 -6.64243343 -3.61720714 0 0 Z " fill="#FBCA50" transform="translate(309.8125,115.1875)"/>
<path d="M0 0 C8.24502421 3.28434929 16.59606607 6.88859934 22.13745117 14.04907227 C25.90295487 24.44265106 23.60832604 37.36011149 22.13745117 48.04907227 C18.51155306 50.17332426 14.88193843 52.29103421 11.2487793 54.40283203 C10.01401946 55.12175896 8.78028258 55.8424459 7.54760742 56.56494141 C5.77294339 57.60469416 3.99466531 58.63800774 2.21557617 59.67016602 C1.14726562 60.29334717 0.07895508 60.91652832 -1.02172852 61.55859375 C-5.52387339 63.92071084 -5.52387339 63.92071084 -7.86254883 64.04907227 C-10.47216797 62.90917969 -10.47216797 62.90917969 -13.39770508 61.15454102 C-14.4540918 60.52870117 -15.51047852 59.90286133 -16.59887695 59.25805664 C-17.69651367 58.5909668 -18.79415039 57.92387695 -19.92504883 57.23657227 C-21.57730469 56.25333984 -21.57730469 56.25333984 -23.26293945 55.25024414 C-27.17709005 52.91418725 -31.06950527 50.57776797 -34.86254883 48.04907227 C-35.29178687 45.52078356 -35.52161585 43.24345207 -35.61254883 40.69750977 C-35.63913574 39.96464752 -35.66572266 39.23178528 -35.69311523 38.47671509 C-35.73902423 36.92181629 -35.77538237 35.36661088 -35.80297852 33.8112793 C-35.84244858 32.22956509 -35.91048249 30.64828684 -36.00805664 29.0690918 C-36.33340698 23.79155517 -36.33234557 19.1614802 -34.86254883 14.04907227 C-31.02453842 10.19892064 -26.80046215 8.21266559 -21.86254883 6.04907227 C-20.46043513 5.22125386 -19.07084002 4.37105415 -17.70629883 3.48266602 C-16.60286133 2.82395508 -15.49942383 2.16524414 -14.36254883 1.48657227 C-12.67645508 0.46370117 -12.67645508 0.46370117 -10.95629883 -0.57983398 C-6.67926355 -2.47533826 -4.33371547 -1.43964364 0 0 Z " fill="#FB7C9F" transform="translate(211.862548828125,340.950927734375)"/>
<path d="M0 0 C2.94308197 1.62952851 5.3189019 3.58849819 7.921875 5.72265625 C10.91387892 7.58077457 13.9831097 9.29868476 17.046875 11.03515625 C18.53131973 11.90168552 20.01329651 12.77246343 21.4921875 13.6484375 C22.12914551 14.02395752 22.76610352 14.39947754 23.42236328 14.78637695 C24.921875 15.72265625 24.921875 15.72265625 25.921875 16.72265625 C26.01035243 19.24359701 26.03714801 21.73696518 26.01953125 24.2578125 C26.0181163 25.01106308 26.01670135 25.76431366 26.01524353 26.54039001 C26.00962876 28.95535185 25.99707383 31.37022226 25.984375 33.78515625 C25.9793619 35.41861846 25.97479866 37.05208211 25.97070312 38.68554688 C25.95965454 42.6979521 25.94238006 46.71028866 25.921875 50.72265625 C25.1697876 51.141521 24.4177002 51.56038574 23.64282227 51.99194336 C20.8596838 53.54301371 18.07738568 55.09557769 15.2956543 56.64916992 C14.09026163 57.32197367 12.88453335 57.99417649 11.6784668 58.66577148 C9.94752839 59.62977541 8.21788457 60.59610273 6.48828125 61.5625 C5.44615479 62.14378662 4.40402832 62.72507324 3.33032227 63.32397461 C1.04628097 64.5127949 1.04628097 64.5127949 -0.078125 65.72265625 C-6.2828232 65.44280517 -10.38213381 63.15881264 -15.578125 59.91015625 C-17.02584197 59.02831791 -18.47375649 58.1468038 -19.921875 57.265625 C-20.55287109 56.8739917 -21.18386719 56.4823584 -21.83398438 56.07885742 C-24.88346503 54.23596523 -27.9801852 52.48287054 -31.078125 50.72265625 C-31.30147404 45.99071086 -31.46428353 41.26185881 -31.57250977 36.52587891 C-31.61763384 34.91726228 -31.67895629 33.30901211 -31.75708008 31.70166016 C-32.38685191 18.40647697 -32.38685191 18.40647697 -29.36425781 14.51757812 C-27.01087326 12.94865509 -24.6677928 11.8532211 -22.078125 10.72265625 C-20.51002812 9.68248369 -18.96019703 8.61425832 -17.4296875 7.51953125 C-5.31729878 -0.47909672 -5.31729878 -0.47909672 0 0 Z " fill="#B0D852" transform="translate(437.078125,170.27734375)"/>
<path d="M0 0 C1.37152222 0.433125 1.37152222 0.433125 2.77075195 0.875 C10.67912554 3.87309013 18.69293349 7.1859043 24 14 C27.62850488 24.04862448 25.39829964 36.69381454 24 47 C20.51628516 48.98160104 17.02908326 50.95690367 13.53857422 52.92651367 C12.35238451 53.59700392 11.16715049 54.26918792 9.98291016 54.94311523 C8.27760822 55.91317574 6.56853148 56.87659082 4.859375 57.83984375 C3.83295898 58.42113037 2.80654297 59.00241699 1.74902344 59.60131836 C-2.69221793 61.86098726 -2.69221793 61.86098726 -5 62 C-7.62548828 60.84423828 -7.62548828 60.84423828 -10.5703125 59.0703125 C-11.63121094 58.43996094 -12.69210938 57.80960937 -13.78515625 57.16015625 C-14.88730469 56.48855469 -15.98945313 55.81695312 -17.125 55.125 C-19.31506153 53.81503288 -21.50516362 52.50513357 -23.6953125 51.1953125 C-24.66484863 50.60766113 -25.63438477 50.02000977 -26.63330078 49.41455078 C-28.90887347 48.01431301 -28.90887347 48.01431301 -31 47 C-31 36.11 -31 25.22 -31 14 C-20.8125 8.1875 -20.8125 8.1875 -17.62817383 6.37182617 C-16.78794678 5.89205322 -15.94771973 5.41228027 -15.08203125 4.91796875 C-14.22843018 4.43094482 -13.3748291 3.9439209 -12.49536133 3.44213867 C-9.95362441 2.01994329 -9.95362441 2.01994329 -7.49487305 0.25512695 C-4.38611393 -1.30883533 -3.27036695 -1.04360737 0 0 Z " fill="#67CBD1" transform="translate(195,201)"/>
<path d="M0 0 C1.16998155 1.75497233 2.32397383 3.5211753 3.4375 5.3125 C7.28567143 9.34838711 12.05313202 11.51803693 17 14 C12.51737088 17.68151668 7.83361063 21.05487742 3.125 24.4375 C2.34769531 24.99759766 1.57039063 25.55769531 0.76953125 26.13476562 C-5.9518442 30.97528559 -5.9518442 30.97528559 -7.80378723 31.92573547 C-10.83560228 33.64422638 -12.67631841 34.8507594 -13.64715576 38.29774475 C-13.90803215 41.21493953 -13.94310784 44.05967453 -13.90234375 46.98828125 C-13.91463516 48.04661667 -13.92692657 49.10495209 -13.93959045 50.19535828 C-13.97132875 53.56844361 -13.95503973 56.93934616 -13.9375 60.3125 C-13.95060824 62.60223387 -13.96684768 64.8919521 -13.98632812 67.18164062 C-14.02719018 72.78808611 -14.02864973 78.39350202 -14 84 C-17.99745327 80.06082226 -21.41237917 75.99472506 -24.76000977 71.49316406 C-27.19329503 68.25825809 -29.70088802 65.17966142 -32.43359375 62.19140625 C-40.18291609 53.58571009 -43.95269673 46.95452453 -44.8203125 35.35791016 C-45.02101653 32.72421512 -45.30301572 30.10570843 -45.59375 27.48046875 C-46.11842201 22.65770048 -46.57521564 17.83254675 -47 13 C-42.37252065 14.69398798 -38.58160045 17.13227595 -34.5 19.85546875 C-31.39204251 21.27833054 -30.24303047 20.93686874 -27 20 C-24.76273127 18.71898511 -24.76273127 18.71898511 -22.63671875 17.05078125 C-21.83169922 16.44943359 -21.02667969 15.84808594 -20.19726562 15.22851562 C-19.36904297 14.59623047 -18.54082031 13.96394531 -17.6875 13.3125 C-16.46256836 12.39307617 -16.46256836 12.39307617 -15.21289062 11.45507812 C-12.80285191 9.64418848 -10.40141864 7.82229679 -8 6 C-5.335618 3.99694692 -2.66816803 1.99800631 0 0 Z " fill="#6864F6" transform="translate(400,368)"/>
<path d="M0 0 C0.99 9.405 0.99 9.405 2 19 C-10.12556784 21.58923098 -22.29837791 23.47421483 -34.57226562 25.21704102 C-37.8904848 25.68970574 -41.20693881 26.1736307 -44.5234375 26.65820312 C-46.65875678 26.964222 -48.79417034 27.26958386 -50.9296875 27.57421875 C-51.9079953 27.71792404 -52.8863031 27.86162933 -53.89425659 28.00968933 C-54.82617828 28.14015152 -55.75809998 28.27061371 -56.71826172 28.4050293 C-57.52351288 28.52033493 -58.32876404 28.63564056 -59.15841675 28.75444031 C-63.09180021 29.09434956 -67.05195698 29 -71 29 C-71.66 22.73 -72.32 16.46 -73 10 C-56.17245366 7.19938145 -39.33184665 4.55458405 -22.4375 2.1875 C-21.65701294 2.07677155 -20.87652588 1.96604309 -20.0723877 1.85195923 C-17.8392343 1.53603866 -15.60534627 1.2260088 -13.37109375 0.91796875 C-12.09161865 0.74031982 -10.81214355 0.5626709 -9.49389648 0.37963867 C-6 0 -6 0 0 0 Z " fill="#8FAEF0" transform="translate(339,321)"/>
<path d="M0 0 C2.10420875 12.67818857 3.55006717 25.15364191 4 38 C2.97648437 37.9278125 1.95296875 37.855625 0.8984375 37.78125 C-3.54994688 38.03085874 -5.64709142 39.13367012 -9.375 41.5 C-14.97222222 45 -14.97222222 45 -16 45 C-16.57256499 40.08903703 -17.14214691 35.17774064 -17.70898438 30.26611328 C-17.90217745 28.59577115 -18.09618097 26.92552254 -18.29101562 25.25537109 C-18.57115101 22.85278143 -18.84835665 20.44986894 -19.125 18.046875 C-19.21249512 17.30193787 -19.29999023 16.55700073 -19.39013672 15.78948975 C-19.76729621 12.49076708 -20 9.32655124 -20 6 C-19.071875 6.12375 -18.14375 6.2475 -17.1875 6.375 C-12.21821193 6.4360978 -8.50741396 3.78648666 -4.35546875 1.3125 C-2 0 -2 0 0 0 Z " fill="#6A66F6" transform="translate(450,252)"/>
<path d="M0 0 C12 5 24 10 36 15 C35.35546875 15.82757813 34.7109375 16.65515625 34.046875 17.5078125 C31.64245172 21.11444741 31.34068099 24.62123739 31.25 28.875 C31.20552734 29.90753906 31.20552734 29.90753906 31.16015625 30.9609375 C31.09019464 32.64001626 31.04274789 34.32000812 31 36 C18.77225131 31.54074424 6.9070315 26.24165746 -5 21 C-4.03320312 19.75863281 -4.03320312 19.75863281 -3.046875 18.4921875 C-0.64245172 14.88555259 -0.34068099 11.37876261 -0.25 7.125 C-0.22035156 6.43664062 -0.19070313 5.74828125 -0.16015625 5.0390625 C-0.09019464 3.35998374 -0.04274789 1.67999188 0 0 Z " fill="#6965F6" transform="translate(354,157)"/>
<path d="M0 0 C10.37486486 3.80382796 10.37486486 3.80382796 12.625 8.109375 C12.74875 9.31078125 12.8725 10.5121875 13 11.75 C13.08354736 12.41451172 13.16709473 13.07902344 13.25317383 13.76367188 C13.43788201 15.28196976 13.5987742 16.80328114 13.74072266 18.32617188 C14.04164899 21.42951016 14.42988652 24.51653859 14.82421875 27.609375 C15.59830687 33.73439066 16.31525002 39.86440531 17 46 C9.5708406 43.19827683 2.20820167 40.33402609 -5 37 C-4.35256836 36.16194824 -3.70513672 35.32389648 -3.03808594 34.46044922 C-0.66905084 30.89149119 -0.4616594 27.9303939 -0.390625 23.6328125 C-0.37408875 22.95322479 -0.35755249 22.27363708 -0.34051514 21.57345581 C-0.29231287 19.42387612 -0.27072872 17.27500219 -0.25 15.125 C-0.22181667 13.65881918 -0.19188595 12.19267085 -0.16015625 10.7265625 C-0.08656499 7.15119371 -0.03681974 3.57595827 0 0 Z " fill="#6764F4" transform="translate(255,366)"/>
<path d="M0 0 C3.43030767 3.06538132 4.81377742 4.95715354 5.625 9.5 C4.81377742 14.04284646 3.43030767 15.93461868 0 19 C-3.90448895 20.18529129 -5.96301745 20.42422013 -9.75 18.875 C-13.22359465 15.98033779 -14.73917923 13.53232201 -15.5 9.0625 C-14.79092206 4.71939764 -13.10290655 3.10290655 -10 0 C-6.12329273 -1.29223576 -3.9545896 -1.02273869 0 0 Z " fill="#6865F6" transform="translate(341,539)"/>
<path d="M0 0 C3.02519989 2.05971056 4.66926776 3.51573824 5.48046875 7.15625 C5.73681175 11.31316358 5.31925337 13.49537371 3.0625 17.0625 C-1.05278307 19.66604643 -4.25486592 20.0487434 -9 19 C-12.66508667 16.55660889 -14.23005206 14.30129886 -15.125 10.0625 C-15.36038506 6.79188654 -14.78320837 5.12557479 -12.75 2.5625 C-8.43393504 -1.4592878 -5.59955749 -1.35161732 0 0 Z " fill="#6A66F7" transform="translate(379,500)"/>
<path d="M0 0 C3.46546137 0.7094151 4.97219087 1.64308049 7.15625 4.44140625 C8.41932299 8.1809538 8.9459708 11.62880899 7.3359375 15.32421875 C5.12717846 18.35212021 3.22341114 19.42221735 -0.34375 20.44140625 C-4.81902061 20.44140625 -7.31811672 19.8092154 -10.65625 16.81640625 C-12.39443658 13.34003309 -12.58349657 10.19041316 -11.84375 6.44140625 C-9.44385139 0.94598625 -5.67982451 -0.44491959 0 0 Z " fill="#6865F7" transform="translate(280.84375,526.55859375)"/>
<path d="M0 0 C4.01302143 1.21464361 7.5599038 2.5747582 11 5 C13.45867806 10.3747846 13.04273581 16.19647639 13 22 C11.01959844 21.1905146 9.04070923 20.37732831 7.0625 19.5625 C5.96035156 19.11003906 4.85820312 18.65757812 3.72265625 18.19140625 C1 17 1 17 0 16 C-0.07319621 13.30345146 -0.09242537 10.63308542 -0.0625 7.9375 C-0.05798828 7.17888672 -0.05347656 6.42027344 -0.04882812 5.63867188 C-0.0370068 3.75908129 -0.01907078 1.87953101 0 0 Z " fill="#F8F9FC" transform="translate(255,366)"/>
<path d="M0 0 C4.875 1.875 4.875 1.875 6 3 C6.07179964 4.51928038 6.08392007 6.04167482 6.0625 7.5625 C6.05347656 8.38878906 6.04445313 9.21507812 6.03515625 10.06640625 C6.01775391 11.02353516 6.01775391 11.02353516 6 12 C1.30021142 9.10782241 1.30021142 9.10782241 0.4453125 5.953125 C0.21402785 3.97669255 0.09937182 1.98743631 0 0 Z " fill="#C9D4F8" transform="translate(357,410)"/>
</svg>
