<?xml version="1.0" encoding="UTF-8"?>
<svg version="1.1" xmlns="http://www.w3.org/2000/svg" width="640" height="640">
<path d="M0 0 C211.2 0 422.4 0 640 0 C640 211.2 640 422.4 640 640 C428.8 640 217.6 640 0 640 C0 428.8 0 217.6 0 0 Z " fill="#FEFEFE" transform="translate(0,0)"/>
<path d="M0 0 C3.7361254 1.6324736 7.19023162 3.66144742 10.6875 5.75 C11.6875708 6.33330078 12.6876416 6.91660156 13.71801758 7.51757812 C15.79136125 8.7306682 17.86059815 9.95080313 19.92578125 11.17773438 C22.87604846 12.92652682 25.84142719 14.64623247 28.8125 16.359375 C30.60494008 17.40492522 32.39664229 18.45174175 34.1875 19.5 C35.01789795 19.97920898 35.8482959 20.45841797 36.70385742 20.95214844 C37.86171753 21.64099121 37.86171753 21.64099121 39.04296875 22.34375 C39.71352295 22.73755859 40.38407715 23.13136719 41.07495117 23.53710938 C44.45567103 26.10619921 46.71509137 28.06786184 47.36268616 32.45959473 C47.51430828 35.61578456 47.52784852 38.74654367 47.49609375 41.90625 C47.49754898 43.06370728 47.49900421 44.22116455 47.50050354 45.41369629 C47.4988454 47.85801717 47.48729383 50.30234859 47.46655273 52.74658203 C47.43760485 56.48645408 47.44594552 60.2249079 47.45898438 63.96484375 C47.45274663 66.34115272 47.44435542 68.71745721 47.43359375 71.09375 C47.43652939 72.2115686 47.43946503 73.32938721 47.44248962 74.4810791 C47.42980545 75.52566284 47.41712128 76.57024658 47.40405273 77.64648438 C47.39864975 78.5618396 47.39324677 79.47719482 47.38768005 80.42028809 C46.78862987 84.40650526 45.13107046 87.12412326 41.95703125 89.58203125 C41.24933594 89.98808594 40.54164063 90.39414063 39.8125 90.8125 C39.09707031 91.23144531 38.38164062 91.65039062 37.64453125 92.08203125 C37.10183594 92.38496094 36.55914062 92.68789062 36 93 C38.96971419 98.40658493 42.2900667 103.4213024 45.875 108.4375 C46.63103516 109.50581055 46.63103516 109.50581055 47.40234375 110.59570312 C50.47704355 114.92466027 53.63365241 119.17131 56.90283203 123.35571289 C58 125 58 125 58 127 C59.0621875 126.3503125 60.124375 125.700625 61.21875 125.03125 C62.64529283 124.18658648 64.07240699 123.34288736 65.5 122.5 C66.19609375 122.07074219 66.8921875 121.64148438 67.609375 121.19921875 C72.43770858 118.38269083 76.40528045 116.78358246 82 118 C85.230203 119.26255547 88.14443075 120.92345902 91.125 122.6875 C91.97376709 123.17283203 92.82253418 123.65816406 93.69702148 124.15820312 C96.47524799 125.75457688 99.23740578 127.37674619 102 129 C104.02952072 130.17391596 106.05947484 131.34708291 108.08984375 132.51953125 C110.08169119 133.67803505 112.07259966 134.83815496 114.0625 136 C115.00818848 136.55131592 115.95387695 137.10263184 116.92822266 137.6706543 C118.24959229 138.45243042 118.24959229 138.45243042 119.59765625 139.25 C120.37633057 139.70890625 121.15500488 140.1678125 121.95727539 140.640625 C125.22474878 142.8150354 126.74403834 144.23211502 128 148 C128.10675243 149.60927772 128.15861618 151.2224953 128.17700195 152.83520508 C128.18983719 153.81664993 128.20267242 154.79809479 128.21589661 155.8092804 C128.22697701 157.39835457 128.22697701 157.39835457 128.23828125 159.01953125 C128.246353 160.11085861 128.25442474 161.20218597 128.26274109 162.32658386 C128.27657661 164.63738417 128.28730114 166.94820486 128.29516602 169.2590332 C128.31238204 172.78831787 128.35627459 176.31666661 128.40039062 179.84570312 C128.41051743 182.09113895 128.41903357 184.33658273 128.42578125 186.58203125 C128.44328934 187.63534134 128.46079742 188.68865143 128.47883606 189.77388 C128.46141766 195.67356028 128.16900312 199.45527465 124 204 C121.62841797 205.80761719 121.62841797 205.80761719 118.9921875 207.296875 C118.01378906 207.85874512 117.03539062 208.42061523 116.02734375 208.99951172 C114.46693359 209.86600342 114.46693359 209.86600342 112.875 210.75 C111.80636719 211.35473145 110.73773438 211.95946289 109.63671875 212.58251953 C107.46371183 213.81019056 105.28761009 215.03240033 103.10839844 216.24902344 C100.28118556 217.84160675 97.48444338 219.47472818 94.6953125 221.1328125 C93.1304574 222.04730133 91.56536934 222.9613917 90 223.875 C89.30245605 224.29749023 88.60491211 224.71998047 87.88623047 225.15527344 C82.98950681 227.9537409 79.64666329 228.72824031 74 228 C71.43857857 226.87178378 69.3447342 225.56315614 67 224 C62.46801386 232.84169504 58.13599691 241.74927891 54.0625 250.8125 C53.67328369 251.6777832 53.28406738 252.54306641 52.88305664 253.43457031 C51.46728442 256.60675642 50.09932709 259.70201874 49 263 C49.72058594 263.27199219 50.44117188 263.54398437 51.18359375 263.82421875 C53.95691043 264.98201115 56.47070733 266.29427833 59.0625 267.8125 C59.89910156 268.29332031 60.73570312 268.77414062 61.59765625 269.26953125 C64.56641049 271.40799975 66.08545575 272.82547564 68 276 C68.60325111 279.89355133 68.5603113 283.75395843 68.53125 287.6875 C68.5350769 288.82276123 68.53890381 289.95802246 68.54284668 291.12768555 C68.54556537 293.52491138 68.53820731 295.92216689 68.52148438 298.31933594 C68.50007587 301.98700142 68.52128935 305.65270789 68.546875 309.3203125 C68.54423172 311.65104599 68.53910674 313.98177826 68.53125 316.3125 C68.53934692 317.40844482 68.54744385 318.50438965 68.55578613 319.63354492 C68.46303774 327.17016637 68.46303774 327.17016637 66.3203125 331.01025391 C63.77244438 333.1951366 61.27118369 334.87758825 58.34375 336.5234375 C57.23773438 337.1525 56.13171875 337.7815625 54.9921875 338.4296875 C53.83976562 339.07164062 52.68734375 339.71359375 51.5 340.375 C49.2394371 341.65338729 46.97901975 342.93203198 44.71875 344.2109375 C43.61144531 344.83323242 42.50414062 345.45552734 41.36328125 346.09667969 C36.21150011 349.01213307 31.10403668 352.00178409 26 355 C28.77845443 359.27997484 31.75308724 363.32411914 34.9375 367.3125 C35.90799769 368.54522223 36.87802877 369.77831192 37.84765625 371.01171875 C39.45589167 373.05241228 41.07019789 375.08726815 42.69873047 377.11181641 C49.53988434 385.62041729 55.78229257 393.40552715 59 404 C59.19207031 404.62777344 59.38414062 405.25554687 59.58203125 405.90234375 C62.13524364 418.71612931 58.90580697 430.33712874 52.58203125 441.50390625 C51.17683414 443.51526682 49.70832121 445.24003187 48 447 C47.34257812 447.68449219 46.68515625 448.36898438 46.0078125 449.07421875 C36.18916461 458.52597766 25.0716716 460.97552518 12 463 C10.01165213 463.32120245 8.02337546 463.64284585 6.03515625 463.96484375 C-5.76685617 465.84858174 -17.58198788 467.49345878 -29.44677734 468.92578125 C-36.30057902 469.76136151 -43.1102958 470.76313047 -49.92407227 471.87524414 C-56.82319577 472.9943559 -63.73932989 473.95457733 -70.66845703 474.8684082 C-75.2202638 475.47130969 -79.75833412 476.10934024 -84.2890625 476.85546875 C-102.38094675 479.79129891 -121.33252686 482.67642363 -137.53515625 472.390625 C-145.25970565 466.76808153 -151.42077949 459.89833989 -155 451 C-155.2990625 450.29746094 -155.598125 449.59492187 -155.90625 448.87109375 C-157.83808664 443.58537406 -158.36130754 438.34750163 -158.5 432.75 C-158.53061523 432.09588135 -158.56123047 431.4417627 -158.59277344 430.76782227 C-158.59973608 416.26986114 -149.13903869 400.45098017 -143.63671875 387.27075195 C-142.5612852 384.69118399 -141.49134581 382.1093883 -140.421875 379.52734375 C-139.92817413 378.35231544 -139.92817413 378.35231544 -139.42449951 377.15354919 C-137.89359133 373.45238424 -136.58081303 369.99284176 -136 366 C-137.0041394 365.41883423 -137.0041394 365.41883423 -138.02856445 364.82592773 C-141.12460959 363.03218941 -144.21855812 361.23486353 -147.3125 359.4375 C-148.8912793 358.52387695 -148.8912793 358.52387695 -150.50195312 357.59179688 C-153.67825441 355.74465551 -156.84247493 353.87904802 -160 352 C-161.04849121 351.37754395 -162.09698242 350.75508789 -163.17724609 350.11376953 C-164.16418457 349.51032715 -165.15112305 348.90688477 -166.16796875 348.28515625 C-167.05121826 347.74898682 -167.93446777 347.21281738 -168.84448242 346.66040039 C-171.22910736 344.82351804 -171.90248475 343.76660491 -173 341 C-173.27415466 338.50257874 -173.27415466 338.50257874 -173.30639648 335.66821289 C-173.33037758 334.07119286 -173.33037758 334.07119286 -173.35484314 332.44190979 C-173.36020584 331.29705612 -173.36556854 330.15220245 -173.37109375 328.97265625 C-173.38012222 327.79158798 -173.3891507 326.61051971 -173.39845276 325.3936615 C-173.41295752 322.89633725 -173.42184255 320.39897497 -173.42553711 317.90161133 C-173.43744471 314.08024234 -173.48664156 310.26048189 -173.53710938 306.43945312 C-173.54657222 304.01302872 -173.55380792 301.58659439 -173.55859375 299.16015625 C-173.57812607 298.01732681 -173.59765839 296.87449738 -173.61778259 295.69703674 C-173.57261493 287.76126187 -173.57261493 287.76126187 -170.63305664 283.85327148 C-163.73771572 279 -163.73771572 279 -161 279 C-162.95570449 276.12320392 -164.9146863 273.24865714 -166.875 270.375 C-167.45983154 269.51720947 -168.04466309 268.65941895 -168.6472168 267.77563477 C-172.70427092 261.84380097 -176.83216704 255.9710418 -181.10302734 250.19091797 C-184 246.21470477 -184 246.21470477 -184 244 C-184.50861572 244.3081665 -185.01723145 244.61633301 -185.54125977 244.93383789 C-187.87039698 246.32994501 -190.21578037 247.69617143 -192.5625 249.0625 C-193.36236328 249.54783203 -194.16222656 250.03316406 -194.98632812 250.53320312 C-198.56260977 252.5913897 -201.18455193 253.94754428 -205.33984375 254.21484375 C-210.96217201 252.3487348 -215.89029514 249.46746943 -221 246.5 C-222.10690186 245.86723145 -223.21380371 245.23446289 -224.35424805 244.58251953 C-227.57693095 242.7341988 -230.7895785 240.86951633 -234 239 C-234.8451416 238.51241211 -235.6902832 238.02482422 -236.56103516 237.52246094 C-251.57377475 228.8524505 -251.57377475 228.8524505 -254 224 C-254.11555424 222.36243173 -254.1695258 220.72033164 -254.19287109 219.07885742 C-254.20893402 218.05406784 -254.22499695 217.02927826 -254.24154663 215.97343445 C-254.28594443 211.28462335 -254.32705908 206.59595448 -254.35009766 201.90698242 C-254.3666639 199.43260294 -254.39396232 196.95827143 -254.43212891 194.48413086 C-254.48683851 190.92015711 -254.50876343 187.35730563 -254.5234375 183.79296875 C-254.54610687 182.68761276 -254.56877625 181.58225677 -254.59213257 180.44340515 C-254.57094809 172.7557972 -254.57094809 172.7557972 -251.64575195 168.88354492 C-246.80616887 165.43818334 -241.73558368 162.48048622 -236.59667969 159.51318359 C-233.53151643 157.72699688 -230.48941315 155.90387276 -227.4453125 154.08203125 C-225.69455151 153.0441637 -223.94238897 152.00872358 -222.18930054 150.97479248 C-220.45911178 149.95029697 -218.73596694 148.91393573 -217.01293945 147.87744141 C-215.93488037 147.24628418 -214.85682129 146.61512695 -213.74609375 145.96484375 C-212.30254517 145.10814087 -212.30254517 145.10814087 -210.82983398 144.23413086 C-207.6193522 142.83399408 -205.46780684 142.68742506 -202 143 C-199.2265625 144.09375 -199.2265625 144.09375 -196.625 145.5 C-195.75101563 145.9640625 -194.87703125 146.428125 -193.9765625 146.90625 C-192.99816406 147.44765625 -192.99816406 147.44765625 -192 148 C-191.64292969 146.81535156 -191.28585938 145.63070312 -190.91796875 144.41015625 C-188.6177761 137.5095783 -185.41328385 131.0038167 -182.3125 124.4375 C-181.6994155 123.12977017 -181.08678178 121.82182892 -180.47460938 120.51367188 C-178.98825841 117.33999516 -177.49584 114.16921737 -176 111 C-179.83641184 107.89838959 -183.74005275 105.18372114 -187.9140625 102.5625 C-190.91739365 100.31281374 -192.78172897 98.36334556 -193.38768005 94.57850647 C-193.39308304 93.67869553 -193.39848602 92.77888458 -193.40405273 91.85180664 C-193.41673691 90.82716812 -193.42942108 89.8025296 -193.44248962 88.74684143 C-193.43955399 87.64573532 -193.43661835 86.54462921 -193.43359375 85.41015625 C-193.4388356 84.27348007 -193.44407745 83.13680389 -193.44947815 81.96568298 C-193.45589989 79.56249813 -193.45455943 77.15928186 -193.44604492 74.75610352 C-193.43753972 71.07967105 -193.46628903 67.40479439 -193.49804688 63.72851562 C-193.49965908 61.39322963 -193.49908099 59.05794089 -193.49609375 56.72265625 C-193.50732773 55.62357437 -193.51856171 54.52449249 -193.53013611 53.3921051 C-193.46097556 45.81477497 -193.46097556 45.81477497 -191.28417969 41.96728516 C-188.92833784 39.93827985 -186.66240626 38.33416701 -183.95703125 36.80078125 C-182.48169922 35.95314209 -182.48169922 35.95314209 -180.9765625 35.08837891 C-179.93242187 34.50233887 -178.88828125 33.91629883 -177.8125 33.3125 C-175.64141978 32.07771446 -173.47084977 30.84203142 -171.30078125 29.60546875 C-170.23166504 28.99880371 -169.16254883 28.39213867 -168.06103516 27.76708984 C-165.31268374 26.18050765 -162.60898817 24.54469395 -159.91796875 22.86328125 C-159.16346436 22.39688232 -158.40895996 21.9304834 -157.6315918 21.44995117 C-156.25615591 20.5950101 -154.888411 19.72750885 -153.53051758 18.8449707 C-148.78085439 15.93157172 -145.57677267 15.31937027 -140 16 C-137.43268806 17.10277717 -135.34045874 18.16882586 -133 19.625 C-131.61852981 20.44538024 -130.23701637 21.26568766 -128.85546875 22.0859375 C-128.09669434 22.54452148 -127.33791992 23.00310547 -126.55615234 23.47558594 C-123.65942325 25.20310996 -120.73313903 26.87275701 -117.80078125 28.5390625 C-115.63780008 29.77565561 -113.47503911 31.01263397 -111.3125 32.25 C-110.27287109 32.83990723 -109.23324219 33.42981445 -108.16210938 34.03759766 C-96.65067844 40.69864313 -96.65067844 40.69864313 -94 46 C-94 48.64 -94 51.28 -94 54 C-74.2 52.515 -74.2 52.515 -54 51 C-54 44.4 -54 37.8 -54 31 C-49.50113278 24.25169917 -49.50113278 24.25169917 -44.51953125 21.484375 C-43.44550049 20.87730713 -42.37146973 20.27023926 -41.26489258 19.64477539 C-39.55595825 18.70686157 -39.55595825 18.70686157 -37.8125 17.75 C-36.04497332 16.76338007 -34.27971564 15.77277829 -32.51445007 14.78211975 C-30.7651983 13.80148892 -29.01346746 12.82528453 -27.26171875 11.84912109 C-24.38675274 10.21925638 -21.56056063 8.5385708 -18.75 6.80078125 C-17.98840576 6.3325293 -17.22681152 5.86427734 -16.44213867 5.38183594 C-15.06801908 4.53055286 -13.70040387 3.66863604 -12.34106445 2.79394531 C-7.98861705 0.13051591 -5.05635924 -0.8356299 0 0 Z " fill="#072C76" transform="translate(383,102)"/>
<path d="M0 0 C3.7361254 1.6324736 7.19023162 3.66144742 10.6875 5.75 C11.6875708 6.33330078 12.6876416 6.91660156 13.71801758 7.51757812 C15.79136125 8.7306682 17.86059815 9.95080313 19.92578125 11.17773438 C22.87604846 12.92652682 25.84142719 14.64623247 28.8125 16.359375 C30.60494008 17.40492522 32.39664229 18.45174175 34.1875 19.5 C35.01789795 19.97920898 35.8482959 20.45841797 36.70385742 20.95214844 C37.86171753 21.64099121 37.86171753 21.64099121 39.04296875 22.34375 C39.71352295 22.73755859 40.38407715 23.13136719 41.07495117 23.53710938 C44.45567103 26.10619921 46.71509137 28.06786184 47.36268616 32.45959473 C47.51430828 35.61578456 47.52784852 38.74654367 47.49609375 41.90625 C47.49754898 43.06370728 47.49900421 44.22116455 47.50050354 45.41369629 C47.4988454 47.85801717 47.48729383 50.30234859 47.46655273 52.74658203 C47.43760485 56.48645408 47.44594552 60.2249079 47.45898438 63.96484375 C47.45274663 66.34115272 47.44435542 68.71745721 47.43359375 71.09375 C47.43652939 72.2115686 47.43946503 73.32938721 47.44248962 74.4810791 C47.42980545 75.52566284 47.41712128 76.57024658 47.40405273 77.64648438 C47.39864975 78.5618396 47.39324677 79.47719482 47.38768005 80.42028809 C46.78862987 84.40650526 45.13107046 87.12412326 41.95703125 89.58203125 C41.24933594 89.98808594 40.54164063 90.39414063 39.8125 90.8125 C39.09707031 91.23144531 38.38164062 91.65039062 37.64453125 92.08203125 C37.10183594 92.38496094 36.55914062 92.68789062 36 93 C38.9483064 98.36887299 42.24439044 103.33796997 45.8125 108.3125 C46.87644498 109.80718996 47.94024756 111.30198129 49.00390625 112.796875 C49.5158252 113.51423828 50.02774414 114.23160156 50.55517578 114.97070312 C52.46830933 117.65775383 54.36100989 120.35842418 56.25 123.0625 C56.79140625 123.83722656 57.3328125 124.61195313 57.890625 125.41015625 C58.43976563 126.19712891 58.43976563 126.19712891 59 127 C56.0914032 129.27087629 53.10549268 131.16693559 49.90234375 132.99609375 C48.93619141 133.55490234 47.97003906 134.11371094 46.97460938 134.68945312 C44.94861912 135.85553755 42.91995946 137.01699618 40.88867188 138.17382812 C39.92380859 138.73392578 38.95894531 139.29402344 37.96484375 139.87109375 C36.64407837 140.62797485 36.64407837 140.62797485 35.29663086 141.40014648 C32.84156522 143.11036708 31.57738375 144.46832758 30 147 C29.54983062 149.42113076 29.54983062 149.42113076 29.61181641 152.05639648 C29.60235992 153.06101425 29.59290344 154.06563202 29.5831604 155.10069275 C29.58923309 156.17992508 29.59530579 157.25915741 29.6015625 158.37109375 C29.59869232 159.48557388 29.59582214 160.60005402 29.59286499 161.74830627 C29.59082418 164.10442615 29.59635519 166.46056296 29.60888672 168.81665039 C29.62492422 172.42047107 29.60904556 176.0231676 29.58984375 179.62695312 C29.59182647 181.91666914 29.59567075 184.20638446 29.6015625 186.49609375 C29.59245346 188.1119059 29.59245346 188.1119059 29.5831604 189.76036072 C29.54113027 196.9222056 29.54113027 196.9222056 33 203 C34.67450916 204.43530296 34.67450916 204.43530296 36.57421875 205.45703125 C37.24130859 205.84697266 37.90839844 206.23691406 38.59570312 206.63867188 C39.63114258 207.2197168 39.63114258 207.2197168 40.6875 207.8125 C41.38939453 208.21919922 42.09128906 208.62589844 42.81445312 209.04492188 C44.53673852 210.04080118 46.26755399 211.02190318 48 212 C47.3393763 216.55725838 45.5961347 220.48795493 43.69140625 224.63671875 C43.36462387 225.35737015 43.03784149 226.07802155 42.70115662 226.82051086 C42.01191494 228.33699465 41.32005363 229.85229022 40.62573242 231.36645508 C39.562742 233.68697172 38.51032583 236.01207687 37.45898438 238.33789062 C36.78708387 239.81278513 36.11457863 241.28740432 35.44140625 242.76171875 C34.96943565 243.80545906 34.96943565 243.80545906 34.4879303 244.87028503 C33.21111834 247.64118934 32.17554302 249.82445698 30 252 C28.47005208 250.95833333 26.94010417 249.91666667 25.41015625 248.875 C20.48629468 247.08740682 16.14685651 247.07928148 11.29711914 249.15917969 C8.29794188 250.80464975 5.39843764 252.55802719 2.5 254.375 C0.93463501 255.32270264 0.93463501 255.32270264 -0.66235352 256.28955078 C-2.77577472 257.56955801 -4.88465204 258.85709966 -6.98876953 260.15234375 C-11.27321129 262.78122775 -15.60273741 265.3303128 -19.9375 267.875 C-20.64648438 268.29700684 -21.35546875 268.71901367 -22.0859375 269.15380859 C-26.88714965 272 -26.88714965 272 -28 272 C-28.74028695 267.09012767 -29.47039663 262.17888938 -30.19116211 257.26611328 C-30.43772482 255.59545231 -30.68705189 253.92519685 -30.93920898 252.25537109 C-31.3014102 249.85355555 -31.65360827 247.45045175 -32.00390625 245.046875 C-32.17570152 243.9294693 -32.17570152 243.9294693 -32.35096741 242.78948975 C-33.3345494 235.91257314 -33.3345494 235.91257314 -32 233 C-30.33927151 232.31867549 -28.672233 231.65257873 -27 231 C-25.78309467 229.23470405 -25.78309467 229.23470405 -25 227 C-24.46375 226.154375 -23.9275 225.30875 -23.375 224.4375 C-20.1110357 216.27758926 -22.22993311 206.68266671 -23.6875 198.25 C-23.83638672 197.26128906 -23.98527344 196.27257812 -24.13867188 195.25390625 C-25.34400427 188.17316929 -27.0903709 182.84660951 -33.140625 178.44140625 C-40.2977425 175.45927396 -46.07632667 175.30164533 -53.609375 176.9375 C-58.98551678 178.04067817 -64.36417852 178.73808094 -69.8125 179.375 C-79.34377118 180.5306496 -88.86236567 181.76209393 -98.375 183.0625 C-99.58003174 183.22476074 -100.78506348 183.38702148 -102.02661133 183.55419922 C-118.3280296 184.94470303 -118.3280296 184.94470303 -131.8125 192.9375 C-138.33578042 202.07009259 -136.31807042 212.17804707 -134.8125 222.8125 C-134.71171143 223.60019775 -134.61092285 224.38789551 -134.50708008 225.19946289 C-133.39597023 232.30981772 -130.69641293 237.86533977 -125 242.375 C-122.08404973 244.02926858 -122.08404973 244.02926858 -119.1875 245.125 C-117 246 -117 246 -116 248 C-115.52233824 250.93594651 -115.08979448 253.86597211 -114.6875 256.8125 C-114.56141357 257.72016113 -114.43532715 258.62782227 -114.30541992 259.56298828 C-114.024909 261.58461885 -113.74577559 263.60644088 -113.46777344 265.62841797 C-112.96027006 269.28636249 -112.43781078 272.94200374 -111.9140625 276.59765625 C-111.54663503 279.19007017 -111.1794455 281.78251782 -110.8125 284.375 C-110.63356201 285.61612549 -110.45462402 286.85725098 -110.27026367 288.13598633 C-110.10502197 289.31572021 -109.93978027 290.4954541 -109.76953125 291.7109375 C-109.62104736 292.75556152 -109.47256348 293.80018555 -109.31958008 294.87646484 C-108.62397027 301.67526692 -109.24851646 306.62126794 -111.9296875 312.8984375 C-112.23596573 313.64310776 -112.54224396 314.38777802 -112.85780334 315.15501404 C-113.8523766 317.56647285 -114.86358212 319.97056416 -115.875 322.375 C-116.56192727 324.03290964 -117.24754836 325.69136105 -117.93188477 327.3503418 C-119.30130266 330.66798367 -120.67589591 333.98340379 -122.05419922 337.29736328 C-124.74341727 343.77802439 -127.34488181 350.29267101 -129.9375 356.8125 C-130.73820352 358.81904143 -131.53897573 360.82555546 -132.33984375 362.83203125 C-132.8933719 364.2212973 -133.44682024 365.61059518 -134 367 C-137.87603202 364.8106372 -141.7396359 362.60062185 -145.59716797 360.37890625 C-147.32022034 359.39010318 -149.04614843 358.40630478 -150.77392578 357.42578125 C-153.75210505 355.73326407 -156.72024271 354.0240801 -159.6875 352.3125 C-160.65574707 351.76634033 -161.62399414 351.22018066 -162.62158203 350.6574707 C-163.53407715 350.12726318 -164.44657227 349.59705566 -165.38671875 349.05078125 C-166.20358154 348.58325439 -167.02044434 348.11572754 -167.86206055 347.6340332 C-171.1145574 345.14814061 -172.78148606 342.45026707 -173.39440918 338.38232422 C-173.40703796 336.98264404 -173.40703796 336.98264404 -173.41992188 335.5546875 C-173.43583374 334.49008301 -173.45174561 333.42547852 -173.46813965 332.32861328 C-173.46834106 331.1889209 -173.46854248 330.04922852 -173.46875 328.875 C-173.47636353 327.69534668 -173.48397705 326.51569336 -173.49182129 325.30029297 C-173.50261528 322.80894078 -173.50547827 320.31754337 -173.50097656 317.82617188 C-173.50000346 314.01355725 -173.54165392 310.20294956 -173.5859375 306.390625 C-173.59114393 303.9687542 -173.5938327 301.5468764 -173.59375 299.125 C-173.61014526 297.98530762 -173.62654053 296.84561523 -173.64343262 295.67138672 C-173.5743011 287.7622628 -173.5743011 287.7622628 -170.63085938 283.85546875 C-163.74631579 279 -163.74631579 279 -161 279 C-162.95570449 276.12320392 -164.9146863 273.24865714 -166.875 270.375 C-167.45983154 269.51720947 -168.04466309 268.65941895 -168.6472168 267.77563477 C-172.70427092 261.84380097 -176.83216704 255.9710418 -181.10302734 250.19091797 C-184 246.21470477 -184 246.21470477 -184 244 C-184.50861572 244.3081665 -185.01723145 244.61633301 -185.54125977 244.93383789 C-187.87039698 246.32994501 -190.21578037 247.69617143 -192.5625 249.0625 C-193.36236328 249.54783203 -194.16222656 250.03316406 -194.98632812 250.53320312 C-198.56260977 252.5913897 -201.18455193 253.94754428 -205.33984375 254.21484375 C-210.96217201 252.3487348 -215.89029514 249.46746943 -221 246.5 C-222.10690186 245.86723145 -223.21380371 245.23446289 -224.35424805 244.58251953 C-227.57693095 242.7341988 -230.7895785 240.86951633 -234 239 C-234.8451416 238.51241211 -235.6902832 238.02482422 -236.56103516 237.52246094 C-251.57377475 228.8524505 -251.57377475 228.8524505 -254 224 C-254.11555424 222.36243173 -254.1695258 220.72033164 -254.19287109 219.07885742 C-254.20893402 218.05406784 -254.22499695 217.02927826 -254.24154663 215.97343445 C-254.28594443 211.28462335 -254.32705908 206.59595448 -254.35009766 201.90698242 C-254.3666639 199.43260294 -254.39396232 196.95827143 -254.43212891 194.48413086 C-254.48683851 190.92015711 -254.50876343 187.35730563 -254.5234375 183.79296875 C-254.54610687 182.68761276 -254.56877625 181.58225677 -254.59213257 180.44340515 C-254.57094809 172.7557972 -254.57094809 172.7557972 -251.64575195 168.88354492 C-246.80616887 165.43818334 -241.73558368 162.48048622 -236.59667969 159.51318359 C-233.53151643 157.72699688 -230.48941315 155.90387276 -227.4453125 154.08203125 C-225.69455151 153.0441637 -223.94238897 152.00872358 -222.18930054 150.97479248 C-220.45911178 149.95029697 -218.73596694 148.91393573 -217.01293945 147.87744141 C-215.93488037 147.24628418 -214.85682129 146.61512695 -213.74609375 145.96484375 C-212.30254517 145.10814087 -212.30254517 145.10814087 -210.82983398 144.23413086 C-207.6193522 142.83399408 -205.46780684 142.68742506 -202 143 C-199.2265625 144.09375 -199.2265625 144.09375 -196.625 145.5 C-195.75101563 145.9640625 -194.87703125 146.428125 -193.9765625 146.90625 C-192.99816406 147.44765625 -192.99816406 147.44765625 -192 148 C-191.64292969 146.81535156 -191.28585938 145.63070312 -190.91796875 144.41015625 C-188.6177761 137.5095783 -185.41328385 131.0038167 -182.3125 124.4375 C-181.6994155 123.12977017 -181.08678178 121.82182892 -180.47460938 120.51367188 C-178.98825841 117.33999516 -177.49584 114.16921737 -176 111 C-179.83641184 107.89838959 -183.74005275 105.18372114 -187.9140625 102.5625 C-190.91739365 100.31281374 -192.78172897 98.36334556 -193.38768005 94.57850647 C-193.39308304 93.67869553 -193.39848602 92.77888458 -193.40405273 91.85180664 C-193.41673691 90.82716812 -193.42942108 89.8025296 -193.44248962 88.74684143 C-193.43955399 87.64573532 -193.43661835 86.54462921 -193.43359375 85.41015625 C-193.4388356 84.27348007 -193.44407745 83.13680389 -193.44947815 81.96568298 C-193.45589989 79.56249813 -193.45455943 77.15928186 -193.44604492 74.75610352 C-193.43753972 71.07967105 -193.46628903 67.40479439 -193.49804688 63.72851562 C-193.49965908 61.39322963 -193.49908099 59.05794089 -193.49609375 56.72265625 C-193.50732773 55.62357437 -193.51856171 54.52449249 -193.53013611 53.3921051 C-193.46097556 45.81477497 -193.46097556 45.81477497 -191.28417969 41.96728516 C-188.92833784 39.93827985 -186.66240626 38.33416701 -183.95703125 36.80078125 C-182.48169922 35.95314209 -182.48169922 35.95314209 -180.9765625 35.08837891 C-179.93242187 34.50233887 -178.88828125 33.91629883 -177.8125 33.3125 C-175.64141978 32.07771446 -173.47084977 30.84203142 -171.30078125 29.60546875 C-170.23166504 28.99880371 -169.16254883 28.39213867 -168.06103516 27.76708984 C-165.31268374 26.18050765 -162.60898817 24.54469395 -159.91796875 22.86328125 C-159.16346436 22.39688232 -158.40895996 21.9304834 -157.6315918 21.44995117 C-156.25615591 20.5950101 -154.888411 19.72750885 -153.53051758 18.8449707 C-148.78085439 15.93157172 -145.57677267 15.31937027 -140 16 C-137.43268806 17.10277717 -135.34045874 18.16882586 -133 19.625 C-131.61852981 20.44538024 -130.23701637 21.26568766 -128.85546875 22.0859375 C-128.09669434 22.54452148 -127.33791992 23.00310547 -126.55615234 23.47558594 C-123.65942325 25.20310996 -120.73313903 26.87275701 -117.80078125 28.5390625 C-115.63780008 29.77565561 -113.47503911 31.01263397 -111.3125 32.25 C-110.27287109 32.83990723 -109.23324219 33.42981445 -108.16210938 34.03759766 C-96.65067844 40.69864313 -96.65067844 40.69864313 -94 46 C-94 48.64 -94 51.28 -94 54 C-74.2 52.515 -74.2 52.515 -54 51 C-54 44.4 -54 37.8 -54 31 C-49.50113278 24.25169917 -49.50113278 24.25169917 -44.51953125 21.484375 C-43.44550049 20.87730713 -42.37146973 20.27023926 -41.26489258 19.64477539 C-39.55595825 18.70686157 -39.55595825 18.70686157 -37.8125 17.75 C-36.04497332 16.76338007 -34.27971564 15.77277829 -32.51445007 14.78211975 C-30.7651983 13.80148892 -29.01346746 12.82528453 -27.26171875 11.84912109 C-24.38675274 10.21925638 -21.56056063 8.5385708 -18.75 6.80078125 C-17.98840576 6.3325293 -17.22681152 5.86427734 -16.44213867 5.38183594 C-15.06801908 4.53055286 -13.70040387 3.66863604 -12.34106445 2.79394531 C-7.98861705 0.13051591 -5.05635924 -0.8356299 0 0 Z " fill="#082C76" transform="translate(383,102)"/>
<path d="M0 0 C0.09765625 2.66927083 0.1953125 5.33854167 0.29296875 8.0078125 C1.51545699 13.18143674 4.18545367 15.8077005 8.49536133 18.63964844 C11.56757696 20.43304623 14.67567435 22.13472249 17.8125 23.8125 C20.06808122 25.03967945 22.32328959 26.26754447 24.578125 27.49609375 C25.67576172 28.09019043 26.77339844 28.68428711 27.90429688 29.29638672 C30.61051668 30.78566131 33.27302764 32.32185203 35.921875 33.91015625 C36.6336792 34.33256592 37.3454834 34.75497559 38.07885742 35.19018555 C39.35243922 35.95088616 40.61899438 36.72354871 41.8762207 37.51098633 C46.28379824 40.10327452 50.01558329 40.94215775 55 40 C57.63151315 38.94008028 59.93817423 37.54292081 62.3125 36 C68.67060811 32 68.67060811 32 72 32 C73.48291016 33.62963867 73.48291016 33.62963867 75.0390625 35.91796875 C75.904104 37.17335449 75.904104 37.17335449 76.78662109 38.45410156 C77.39328613 39.35612305 77.99995117 40.25814453 78.625 41.1875 C79.55626709 42.54633301 79.55626709 42.54633301 80.50634766 43.93261719 C81.75762816 45.75944133 83.00489925 47.58901849 84.24804688 49.42138672 C86.59896342 52.88158467 88.98649144 56.31571469 91.375 59.75 C92.58390028 61.4996084 93.79249086 63.2494312 95 65 C92.43040383 67.06085062 89.85650421 69.11088311 87.25 71.125 C84.93200395 72.80197641 84.93200395 72.80197641 84 75 C83.8946709 76.60723004 83.85127276 78.21871578 83.83886719 79.8293457 C83.82925964 80.83411453 83.8196521 81.83888336 83.80975342 82.87409973 C83.80550354 83.96365463 83.80125366 85.05320953 83.796875 86.17578125 C83.79117493 87.29309128 83.78547485 88.41040131 83.77960205 89.56156921 C83.77014258 91.92962698 83.76361433 94.29769796 83.75976562 96.66577148 C83.7500678 100.28718086 83.71905581 103.90802099 83.6875 107.52929688 C83.68096933 109.82812162 83.67571911 112.12695044 83.671875 114.42578125 C83.6533548 116.05100456 83.6533548 116.05100456 83.63446045 117.70906067 C83.53648836 124.9002867 83.53648836 124.9002867 87 131 C88.67450916 132.43530296 88.67450916 132.43530296 90.57421875 133.45703125 C91.24130859 133.84697266 91.90839844 134.23691406 92.59570312 134.63867188 C93.28599609 135.02603516 93.97628906 135.41339844 94.6875 135.8125 C95.38939453 136.21919922 96.09128906 136.62589844 96.81445312 137.04492188 C98.53673852 138.04080118 100.26755399 139.02190318 102 140 C101.3393763 144.55725838 99.5961347 148.48795493 97.69140625 152.63671875 C97.36462387 153.35737015 97.03784149 154.07802155 96.70115662 154.82051086 C96.01191494 156.33699465 95.32005363 157.85229022 94.62573242 159.36645508 C93.562742 161.68697172 92.51032583 164.01207687 91.45898438 166.33789062 C90.78708387 167.81278513 90.11457863 169.28740432 89.44140625 170.76171875 C89.12675919 171.45754562 88.81211212 172.1533725 88.4879303 172.87028503 C87.21111834 175.64118934 86.17554302 177.82445698 84 180 C82.47005208 178.95833333 80.94010417 177.91666667 79.41015625 176.875 C74.48629468 175.08740682 70.14685651 175.07928148 65.29711914 177.15917969 C62.29794188 178.80464975 59.39843764 180.55802719 56.5 182.375 C54.93463501 183.32270264 54.93463501 183.32270264 53.33764648 184.28955078 C51.22422528 185.56955801 49.11534796 186.85709966 47.01123047 188.15234375 C42.72678871 190.78122775 38.39726259 193.3303128 34.0625 195.875 C33.35351562 196.29700684 32.64453125 196.71901367 31.9140625 197.15380859 C27.11285035 200 27.11285035 200 26 200 C25.25971305 195.09012767 24.52960337 190.17888938 23.80883789 185.26611328 C23.56227518 183.59545231 23.31294811 181.92519685 23.06079102 180.25537109 C22.6985898 177.85355555 22.34639173 175.45045175 21.99609375 173.046875 C21.82429848 171.9294693 21.82429848 171.9294693 21.64903259 170.78948975 C20.6654506 163.91257314 20.6654506 163.91257314 22 161 C23.66072849 160.31867549 25.327767 159.65257873 27 159 C28.21690533 157.23470405 28.21690533 157.23470405 29 155 C29.53625 154.154375 30.0725 153.30875 30.625 152.4375 C33.8889643 144.27758926 31.77006689 134.68266671 30.3125 126.25 C30.16361328 125.26128906 30.01472656 124.27257812 29.86132812 123.25390625 C28.65599573 116.17316929 26.9096291 110.84660951 20.859375 106.44140625 C13.7022575 103.45927396 7.92367333 103.30164533 0.390625 104.9375 C-4.98551678 106.04067817 -10.36417852 106.73808094 -15.8125 107.375 C-25.34377118 108.5306496 -34.86236567 109.76209393 -44.375 111.0625 C-46.18254761 111.30589111 -46.18254761 111.30589111 -48.02661133 111.55419922 C-64.3280296 112.94470303 -64.3280296 112.94470303 -77.8125 120.9375 C-84.33578042 130.07009259 -82.31807042 140.17804707 -80.8125 150.8125 C-80.71171143 151.60019775 -80.61092285 152.38789551 -80.50708008 153.19946289 C-79.39597023 160.30981772 -76.69641293 165.86533977 -71 170.375 C-68.08404973 172.02926858 -68.08404973 172.02926858 -65.1875 173.125 C-63 174 -63 174 -62 176 C-61.77141886 178.0374763 -61.58975722 180.08040303 -61.4375 182.125 C-61.35371094 183.22070312 -61.26992188 184.31640625 -61.18359375 185.4453125 C-61.12300781 186.28835938 -61.06242187 187.13140625 -61 188 C-61.680625 187.835 -62.36125 187.67 -63.0625 187.5 C-70.26905265 186.27335274 -74.24640138 187.18167331 -80.1875 191.0625 C-86.34427409 195.046295 -86.34427409 195.046295 -89.00219727 194.85864258 C-91.66539618 193.71401706 -92.55582951 192.30878488 -94.171875 189.9140625 C-94.75050293 189.07020996 -95.32913086 188.22635742 -95.92529297 187.35693359 C-96.52744629 186.45539551 -97.12959961 185.55385742 -97.75 184.625 C-98.99651784 182.79627622 -100.24390858 180.96814713 -101.4921875 179.140625 C-102.09256836 178.25568359 -102.69294922 177.37074219 -103.31152344 176.45898438 C-106.0138323 172.52352242 -108.86836891 168.71015504 -111.7421875 164.8984375 C-113 163 -113 163 -113 161 C-111.1015625 159.59765625 -111.1015625 159.59765625 -108.625 158.0625 C-105.51789754 156.13412371 -104.06851285 155.10276927 -102 152 C-101.6767363 149.68042354 -101.6767363 149.68042354 -101.69360352 147.07299805 C-101.67761612 146.07153244 -101.66162872 145.07006683 -101.64515686 144.03825378 C-101.63979416 142.95699722 -101.63443146 141.87574066 -101.62890625 140.76171875 C-101.61987778 139.64819534 -101.6108493 138.53467194 -101.60154724 137.3874054 C-101.58703014 135.0295379 -101.5781544 132.67162999 -101.57446289 130.3137207 C-101.56257986 126.71170822 -101.51341675 123.11141576 -101.46289062 119.50976562 C-101.45342502 117.21875836 -101.44619064 114.92774057 -101.44140625 112.63671875 C-101.42187393 111.56153488 -101.40234161 110.48635101 -101.38221741 109.37858582 C-101.37277474 102.94384876 -101.37277474 102.94384876 -104.31298828 97.41870117 C-107.25255972 94.76983734 -107.25255972 94.76983734 -110.55078125 92.6640625 C-111.16630859 92.32246094 -111.78183594 91.98085938 -112.41601562 91.62890625 C-113.04185547 91.29761719 -113.66769531 90.96632813 -114.3125 90.625 C-114.95767578 90.27050781 -115.60285156 89.91601562 -116.26757812 89.55078125 C-117.83900941 88.6894041 -119.41867975 87.84308549 -121 87 C-115.48877112 74.26212662 -109.7687161 61.62310284 -104 49 C-101.04945782 49.50398979 -99.1979918 49.86622176 -96.6875 51.5625 C-92.98357856 53.54366728 -90.05429981 53.77230425 -86 53 C-81.46817146 51.06092394 -77.2482674 48.61089821 -73 46.125 C-71.7962317 45.43543311 -70.59188188 44.74688042 -69.38696289 44.05932617 C-65.90901376 42.06559569 -62.45322541 40.03625312 -59 38 C-58.08202637 37.46294434 -57.16405273 36.92588867 -56.21826172 36.37255859 C-53.94711378 35.03624619 -51.6885828 33.68228282 -49.4375 32.3125 C-48.79619141 31.92787598 -48.15488281 31.54325195 -47.49414062 31.14697266 C-44.21086022 29.08804402 -42.40979787 27.60326445 -41 24 C-40.63820497 21.58820096 -40.63820497 21.58820096 -40.5859375 19.015625 C-40.54726563 18.08105469 -40.50859375 17.14648438 -40.46875 16.18359375 C-40.4378125 15.21550781 -40.406875 14.24742187 -40.375 13.25 C-40.33632813 12.26644531 -40.29765625 11.28289062 -40.2578125 10.26953125 C-40.16371574 7.84653963 -40.07807672 5.42355204 -40 3 C-35.77224241 2.4875996 -31.54262493 1.99244244 -27.3125 1.5 C-25.54422852 1.28537109 -25.54422852 1.28537109 -23.74023438 1.06640625 C-15.78869775 0.15143491 -8.0017033 -0.18028246 0 0 Z " fill="#FDFEFE" transform="translate(329,174)"/>
<path d="M0 0 C0.77753947 4.83228089 1.54730343 9.66575263 2.3125 14.5 C2.48431793 15.58294846 2.48431793 15.58294846 2.65960693 16.68777466 C4.32153269 27.19886432 5.81935252 37.70961854 6.9230957 48.296875 C8.04254383 58.25392933 10.44407671 65.16499156 17.0625 72.75 C18.23969694 74.14724599 19.41546275 75.54569889 20.58984375 76.9453125 C21.16976074 77.63012695 21.74967773 78.31494141 22.34716797 79.02050781 C24.69009679 81.82648519 26.91589245 84.71323981 29.125 87.625 C33.89618234 93.87609674 38.74585201 100.06196348 43.61328125 106.23828125 C44.98417682 107.97989788 46.35199991 109.72387885 47.71875 111.46875 C51.91247176 116.82047911 56.12017571 122.15887138 60.38208008 127.45654297 C65.82624909 134.22458431 71.15185527 141.07200276 76.40332031 147.99072266 C79.41111906 151.94772631 82.47326979 155.84308183 85.625 159.6875 C91.73576512 167.39686191 93.01972899 173.15034498 92 183 C90.3269695 190.19004776 86.97978141 195.65284299 81 200 C72.7930191 204.00463243 64.16345883 205.05733041 55.1875 206.0625 C53.79978955 206.22841789 52.41225797 206.39583816 51.02490234 206.56469727 C48.27126089 206.89893727 45.51708075 207.22783525 42.76220703 207.55175781 C37.87645531 208.13386295 32.99975721 208.77017018 28.125 209.4375 C27.2801001 209.55230713 26.4352002 209.66711426 25.56469727 209.78540039 C16.52202197 211.03355366 7.50324985 212.44215418 -1.51882935 213.82971191 C-11.75397211 215.4007234 -21.99475199 216.81705665 -32.27832031 218.0402832 C-37.09649514 218.61710102 -41.85399661 219.28707472 -46.625 220.1875 C-54.88939917 221.61365738 -64.70214563 223.00281168 -72.19140625 218.4609375 C-78.56453338 213.31288232 -83.95890993 207.15984262 -85.35473633 198.90112305 C-86.03148734 188.83207054 -81.53876947 180.23593051 -77.6875 171.1875 C-76.91905034 169.34207707 -76.15248819 167.49586718 -75.38769531 165.64892578 C-73.77228467 161.75595472 -72.14609379 157.86775128 -70.51123047 153.98291016 C-68.01426942 148.04473259 -65.55155802 142.09279875 -63.09765625 136.13671875 C-62.4946167 134.67390976 -62.4946167 134.67390976 -61.87939453 133.18154907 C-61.0711846 131.22085629 -60.26309895 129.26011228 -59.45513916 127.29931641 C-57.47066931 122.48392419 -55.48430626 117.66931686 -53.49609375 112.85546875 C-53.11525635 111.93309418 -52.73441895 111.0107196 -52.34204102 110.06039429 C-50.21086032 104.90570695 -48.06093383 99.75950712 -45.88937378 94.6217041 C-44.64080593 91.66237223 -43.40402464 88.69820769 -42.16955566 85.73297119 C-41.60806954 84.39291391 -41.04096512 83.0551937 -40.46765137 81.72015381 C-37.43283205 74.65023325 -34.96940883 68.7286261 -36 61 C-36.12987305 60.01314209 -36.25974609 59.02628418 -36.39355469 58.00952148 C-36.88141496 54.66358818 -37.43207878 51.33321989 -38 48 C-38.69537875 43.7512553 -39.37916691 39.50069557 -40.0625 35.25 C-40.23587891 34.21101563 -40.40925781 33.17203125 -40.58789062 32.1015625 C-42.01909657 23.08661013 -42.57829422 14.10665777 -43 5 C-37.68031945 4.28374995 -32.36008821 3.57179423 -27.03930664 2.86376953 C-25.23023046 2.6224298 -23.42130888 2.37992813 -21.61254883 2.13623047 C-19.00902684 1.78566004 -16.40497303 1.43930528 -13.80078125 1.09375 C-12.99538406 0.9843811 -12.18998688 0.87501221 -11.36018372 0.7623291 C-7.54389841 0.25993691 -3.8599551 -0.13531832 0 0 Z " fill="#D1DBFC" transform="translate(330,340)"/>
<path d="M0 0 C3.7361254 1.6324736 7.19023162 3.66144742 10.6875 5.75 C11.6875708 6.33330078 12.6876416 6.91660156 13.71801758 7.51757812 C15.79136125 8.7306682 17.86059815 9.95080313 19.92578125 11.17773438 C22.87604846 12.92652682 25.84142719 14.64623247 28.8125 16.359375 C30.60494008 17.40492522 32.39664229 18.45174175 34.1875 19.5 C35.01789795 19.97920898 35.8482959 20.45841797 36.70385742 20.95214844 C37.86171753 21.64099121 37.86171753 21.64099121 39.04296875 22.34375 C39.71352295 22.73755859 40.38407715 23.13136719 41.07495117 23.53710938 C44.45567103 26.10619921 46.71509137 28.06786184 47.36268616 32.45959473 C47.51430828 35.61578456 47.52784852 38.74654367 47.49609375 41.90625 C47.49754898 43.06370728 47.49900421 44.22116455 47.50050354 45.41369629 C47.4988454 47.85801717 47.48729383 50.30234859 47.46655273 52.74658203 C47.43760485 56.48645408 47.44594552 60.2249079 47.45898438 63.96484375 C47.45274663 66.34115272 47.44435542 68.71745721 47.43359375 71.09375 C47.43652939 72.2115686 47.43946503 73.32938721 47.44248962 74.4810791 C47.42980545 75.52566284 47.41712128 76.57024658 47.40405273 77.64648438 C47.39864975 78.5618396 47.39324677 79.47719482 47.38768005 80.42028809 C46.78862987 84.40650526 45.13107046 87.12412326 41.95703125 89.58203125 C41.24933594 89.98808594 40.54164063 90.39414063 39.8125 90.8125 C38.73935547 91.44091797 38.73935547 91.44091797 37.64453125 92.08203125 C36.83048828 92.53642578 36.83048828 92.53642578 36 93 C38.9483064 98.36887299 42.24439044 103.33796997 45.8125 108.3125 C46.87644498 109.80718996 47.94024756 111.30198129 49.00390625 112.796875 C49.5158252 113.51423828 50.02774414 114.23160156 50.55517578 114.97070312 C52.46830933 117.65775383 54.36100989 120.35842418 56.25 123.0625 C56.79140625 123.83722656 57.3328125 124.61195313 57.890625 125.41015625 C58.43976563 126.19712891 58.43976563 126.19712891 59 127 C55.79483445 129.5100694 52.44094 131.61669346 48.9375 133.6875 C47.37322266 134.62142578 47.37322266 134.62142578 45.77734375 135.57421875 C43 137 43 137 40 137 C38.5012207 135.33862305 38.5012207 135.33862305 36.92578125 133.01171875 C36.34393066 132.16464355 35.76208008 131.31756836 35.16259766 130.44482422 C34.24679932 129.07994873 34.24679932 129.07994873 33.3125 127.6875 C32.05687293 125.8496566 30.8003676 124.01241291 29.54296875 122.17578125 C28.93630371 121.28455566 28.32963867 120.39333008 27.70458984 119.47509766 C24.99272459 115.53741648 22.13601519 111.71596994 19.2578125 107.8984375 C18 106 18 106 18 104 C16.10290012 104.93493439 14.20737422 105.87306296 12.3125 106.8125 C11.25675781 107.33457031 10.20101562 107.85664063 9.11328125 108.39453125 C6.04117694 109.8864278 6.04117694 109.8864278 3.60546875 111.69921875 C-0.02617431 113.51231791 -3.0800332 113.7484505 -7 113 C-10.60829468 111.57029833 -13.8989955 109.69875179 -17.25 107.75 C-18.19931396 107.21294434 -19.14862793 106.67588867 -20.12670898 106.12255859 C-23.09536348 104.43328034 -26.04776928 102.71778566 -29 101 C-30.90229827 99.91398284 -32.80464087 98.82804331 -34.70703125 97.7421875 C-36.49357804 96.7055177 -38.27879231 95.66654721 -40.0625 94.625 C-40.8884668 94.15030273 -41.71443359 93.67560547 -42.56542969 93.18652344 C-47.37665394 90.31902577 -51.15269304 87.89255562 -54 83 C-54.38983916 79.29252384 -54.2971818 75.71147043 -54 72 C-55.44451538 72.13631836 -55.44451538 72.13631836 -56.91821289 72.27539062 C-60.51670734 72.61410987 -64.11558959 72.94854558 -67.71459961 73.28173828 C-69.26744179 73.42609108 -70.82017878 73.57158035 -72.37280273 73.71826172 C-74.61414832 73.92980445 -76.85584976 74.13715579 -79.09765625 74.34375 C-79.78336197 74.40937134 -80.46906769 74.47499268 -81.17555237 74.54260254 C-85.50245783 74.93627262 -89.6245535 75 -94 75 C-94.33 65.43 -94.66 55.86 -95 46 C-94.67 46 -94.34 46 -94 46 C-94 48.64 -94 51.28 -94 54 C-74.2 52.515 -74.2 52.515 -54 51 C-54 44.4 -54 37.8 -54 31 C-49.50113278 24.25169917 -49.50113278 24.25169917 -44.51953125 21.484375 C-43.44550049 20.87730713 -42.37146973 20.27023926 -41.26489258 19.64477539 C-40.12560303 19.01949951 -38.98631348 18.39422363 -37.8125 17.75 C-36.04497332 16.76338007 -34.27971564 15.77277829 -32.51445007 14.78211975 C-30.7651983 13.80148892 -29.01346746 12.82528453 -27.26171875 11.84912109 C-24.38675274 10.21925638 -21.56056063 8.5385708 -18.75 6.80078125 C-17.98840576 6.3325293 -17.22681152 5.86427734 -16.44213867 5.38183594 C-15.06801908 4.53055286 -13.70040387 3.66863604 -12.34106445 2.79394531 C-7.98861705 0.13051591 -5.05635924 -0.8356299 0 0 Z " fill="#6965F6" transform="translate(383,102)"/>
<path d="M0 0 C3.23340365 1.25395561 6.14476674 2.92365787 9.125 4.6875 C9.97376709 5.17283203 10.82253418 5.65816406 11.69702148 6.15820312 C14.47524799 7.75457688 17.23740578 9.37674619 20 11 C22.02952072 12.17391596 24.05947484 13.34708291 26.08984375 14.51953125 C28.08169119 15.67803505 30.07259966 16.83815496 32.0625 18 C33.00818848 18.55131592 33.95387695 19.10263184 34.92822266 19.6706543 C35.80913574 20.19183838 36.69004883 20.71302246 37.59765625 21.25 C38.37633057 21.70890625 39.15500488 22.1678125 39.95727539 22.640625 C43.22474878 24.8150354 44.74403834 26.23211502 46 30 C46.10675243 31.60927772 46.15861618 33.2224953 46.17700195 34.83520508 C46.19625481 36.30737236 46.19625481 36.30737236 46.21589661 37.8092804 C46.22328354 38.86866318 46.23067047 39.92804596 46.23828125 41.01953125 C46.246353 42.11085861 46.25442474 43.20218597 46.26274109 44.32658386 C46.27657661 46.63738417 46.28730114 48.94820486 46.29516602 51.2590332 C46.31238204 54.78831787 46.35627459 58.31666661 46.40039062 61.84570312 C46.41051743 64.09113895 46.41903357 66.33658273 46.42578125 68.58203125 C46.45204338 70.16199638 46.45204338 70.16199638 46.47883606 71.77388 C46.46141766 77.67356028 46.16900312 81.45527465 42 86 C39.62841797 87.80761719 39.62841797 87.80761719 36.9921875 89.296875 C36.01378906 89.85874512 35.03539062 90.42061523 34.02734375 90.99951172 C32.98707031 91.57717285 31.94679688 92.15483398 30.875 92.75 C29.80636719 93.35473145 28.73773438 93.95946289 27.63671875 94.58251953 C25.46371183 95.81019056 23.28761009 97.03240033 21.10839844 98.24902344 C18.28118556 99.84160675 15.48444338 101.47472818 12.6953125 103.1328125 C11.1304574 104.04730133 9.56536934 104.9613917 8 105.875 C7.30245605 106.29749023 6.60491211 106.71998047 5.88623047 107.15527344 C0.98950681 109.9537409 -2.35333671 110.72824031 -8 110 C-10.56142143 108.87178378 -12.6552658 107.56315614 -15 106 C-21.40460969 118.4871999 -27.26277897 131.19395601 -33 144 C-36.95258651 142.46069922 -40.56485481 140.67283561 -44.25 138.5625 C-45.83554687 137.66724609 -45.83554687 137.66724609 -47.453125 136.75390625 C-50 135 -50 135 -51 132 C-49.96902728 129.30135468 -48.86969327 126.75889088 -47.6328125 124.15625 C-47.27863251 123.39074829 -46.92445251 122.62524658 -46.55953979 121.83654785 C-45.4238381 119.38665609 -44.27486061 116.94327376 -43.125 114.5 C-41.98512392 112.05548699 -40.84796701 109.60972981 -39.71188354 107.16345215 C-39.00354931 105.64073087 -38.29247501 104.11928062 -37.57839966 102.59924316 C-36.24730841 99.75663131 -34.99359764 96.98079292 -34 94 C-34.71929687 93.73058594 -35.43859375 93.46117187 -36.1796875 93.18359375 C-38.99564064 92.00182948 -41.50910576 90.63443645 -44.125 89.0625 C-44.97320312 88.55847656 -45.82140625 88.05445313 -46.6953125 87.53515625 C-50.08654671 85.2762494 -51.69785804 83.90642588 -53 80 C-53.11183587 78.36021742 -53.16888811 76.71641491 -53.19287109 75.07299805 C-53.20893402 74.07153244 -53.22499695 73.07006683 -53.24154663 72.03825378 C-53.28607401 67.46341695 -53.32705292 62.88872357 -53.35009766 58.3137207 C-53.36666301 55.90151323 -53.3939603 53.48935495 -53.43212891 51.07739258 C-53.48690966 47.59690931 -53.50877359 44.11757514 -53.5234375 40.63671875 C-53.54610687 39.56153488 -53.56877625 38.48635101 -53.59213257 37.37858582 C-53.56856192 29.01796121 -53.56856192 29.01796121 -50.80664062 25.48095703 C-48.13704716 23.12114415 -45.70217208 21.35219506 -42.5703125 19.66796875 C-41.53447021 19.10094238 -40.49862793 18.53391602 -39.43139648 17.94970703 C-38.34028564 17.36817871 -37.2491748 16.78665039 -36.125 16.1875 C-33.86722697 14.96195863 -31.61071138 13.73409785 -29.35546875 12.50390625 C-28.26411621 11.90980957 -27.17276367 11.31571289 -26.04833984 10.70361328 C-23.41428365 9.23152902 -20.8489216 7.70447887 -18.30078125 6.08984375 C-17.29990479 5.45622925 -17.29990479 5.45622925 -16.27880859 4.80981445 C-14.57206269 3.71158615 -12.87727243 2.59483774 -11.18359375 1.4765625 C-7.29575841 -0.32662984 -4.16550818 -0.81418715 0 0 Z " fill="#082C76" transform="translate(465,220)"/>
<path d="M0 0 C1.65625 1.984375 1.65625 1.984375 3.5 4.75 C25.79060035 36.49474895 62.49716297 58.88220621 100.546875 65.62890625 C101.35640625 65.75136719 102.1659375 65.87382813 103 66 C97.58381573 73.61193465 91.65745283 75.94556722 82.55493164 77.64208984 C78.77087693 78.18110871 74.98597811 78.63712877 71.1875 79.0625 C69.79978955 79.22841789 68.41225797 79.39583816 67.02490234 79.56469727 C64.27126089 79.89893727 61.51708075 80.22783525 58.76220703 80.55175781 C53.87645531 81.13386295 48.99975721 81.77017018 44.125 82.4375 C43.2801001 82.55230713 42.4352002 82.66711426 41.56469727 82.78540039 C32.52202197 84.03355366 23.50324985 85.44215418 14.48117065 86.82971191 C4.24602789 88.4007234 -5.99475199 89.81705665 -16.27832031 91.0402832 C-21.09649514 91.61710102 -25.85399661 92.28707472 -30.625 93.1875 C-38.88939917 94.61365738 -48.70214563 96.00281168 -56.19140625 91.4609375 C-61.94887309 86.81019754 -67.00655363 81.22624308 -69 74 C-69.7209361 66.21842921 -68.49801366 60.20049371 -65.421875 53.08984375 C-65.05402893 52.19689102 -64.68618286 51.30393829 -64.30718994 50.38392639 C-63.1394265 47.56056619 -61.94551315 44.74920565 -60.75 41.9375 C-59.96305321 40.04957348 -59.17788212 38.16090577 -58.39453125 36.27148438 C-56.94554514 32.78163487 -55.48565262 29.2967821 -54.01464844 25.81616211 C-51.94519573 20.90301691 -49.96372959 15.95620641 -48 11 C-47.175 11.04640625 -46.35 11.0928125 -45.5 11.140625 C-28.99133372 11.65652082 -14.53664545 0 0 0 Z " fill="#92B1F3" transform="translate(314,467)"/>
<path d="M0 0 C1.19800549 0.69842963 2.38506231 1.4158656 3.5625 2.1484375 C4.94397019 2.96881774 6.32548363 3.78912516 7.70703125 4.609375 C8.46580566 5.06795898 9.22458008 5.52654297 10.00634766 5.99902344 C12.90307675 7.72654746 15.82936097 9.39619451 18.76171875 11.0625 C20.92469992 12.29909311 23.08746089 13.53607147 25.25 14.7734375 C26.28962891 15.36334473 27.32925781 15.95325195 28.40039062 16.56103516 C38.98957621 22.68842688 38.98957621 22.68842688 41.5625 26.5234375 C42.46310234 30.17118508 42.49040844 33.77825542 42.5625 37.5234375 C42.58266174 38.25483948 42.60282349 38.98624146 42.62359619 39.73980713 C42.76806608 45.00704355 42.83490433 50.27167368 42.85766602 55.54077148 C42.86927799 57.41324362 42.88987183 59.28568037 42.91918945 61.15795898 C42.96182505 63.89068636 42.97801638 66.62245043 42.98828125 69.35546875 C43.00578934 70.18681839 43.02329742 71.01816803 43.04133606 71.87471008 C43.02137888 77.22897094 42.21745455 80.3468965 38.5625 84.5234375 C35.97558594 86.4387207 35.97558594 86.4387207 33.046875 88.07421875 C31.96776855 88.68644287 30.88866211 89.29866699 29.77685547 89.92944336 C28.63361816 90.55858643 27.49038086 91.18772949 26.3125 91.8359375 C25.13236949 92.49574386 23.95284726 93.15663933 22.77392578 93.81860352 C20.44332443 95.12565683 18.10913944 96.42542488 15.77246094 97.72167969 C13.00964324 99.27245506 10.28320473 100.86410218 7.5703125 102.5 C6.8577832 102.92369873 6.14525391 103.34739746 5.41113281 103.78393555 C4.14531268 104.53882408 2.88611325 105.30499387 1.63574219 106.08520508 C-2.65089369 108.5898322 -6.58150479 109.53745427 -11.4375 108.5234375 C-14.89003955 107.09147287 -18.00640607 105.2261734 -21.1875 103.2734375 C-22.08911865 102.73710693 -22.9907373 102.20077637 -23.91967773 101.64819336 C-25.80928401 100.52178253 -27.69457492 99.38810381 -29.57568359 98.24755859 C-32.40419917 96.54349982 -35.2538004 94.88194158 -38.11328125 93.23046875 C-39.90930086 92.18305724 -41.70489004 91.13490725 -43.5 90.0859375 C-44.33821289 89.60286133 -45.17642578 89.11978516 -46.04003906 88.62207031 C-46.82217773 88.15768555 -47.60431641 87.69330078 -48.41015625 87.21484375 C-49.09343994 86.81467041 -49.77672363 86.41449707 -50.48071289 86.00219727 C-53.85600224 83.45146394 -56.14021259 81.4721742 -56.80677795 77.10279846 C-56.96839455 74.00660768 -56.9916557 70.93629771 -56.96875 67.8359375 C-56.9725769 66.70067627 -56.97640381 65.56541504 -56.98034668 64.39575195 C-56.98306537 61.99852612 -56.97570731 59.60127061 -56.95898438 57.20410156 C-56.93757587 53.53643608 -56.95878935 49.87072961 -56.984375 46.203125 C-56.98173172 43.87239151 -56.97660674 41.54165924 -56.96875 39.2109375 C-56.97684692 38.11499268 -56.98494385 37.01904785 -56.99328613 35.88989258 C-56.90037355 28.33992881 -56.90037355 28.33992881 -54.71948242 24.49291992 C-52.36497181 22.46084149 -50.10074649 20.85808075 -47.39453125 19.32421875 C-46.41097656 18.75912598 -45.42742187 18.1940332 -44.4140625 17.61181641 C-42.84785156 16.73275635 -42.84785156 16.73275635 -41.25 15.8359375 C-39.07891978 14.60115196 -36.90834977 13.36546892 -34.73828125 12.12890625 C-33.13460693 11.21890869 -33.13460693 11.21890869 -31.49853516 10.29052734 C-28.75018374 8.70394515 -26.04648817 7.06813145 -23.35546875 5.38671875 C-22.60096436 4.92031982 -21.84645996 4.4539209 -21.0690918 3.97338867 C-19.69365591 3.1184476 -18.325911 2.25094635 -16.96801758 1.3684082 C-11.13316962 -2.21063297 -6.51002068 -2.79634979 0 0 Z " fill="#072B76" transform="translate(246.4375,119.4765625)"/>
<path d="M0 0 C2.35606569 1.60332905 3.58862916 3.21770485 5.19384766 5.57080078 C5.78101563 6.42158203 6.36818359 7.27236328 6.97314453 8.14892578 C7.57578125 9.04095703 8.17841797 9.93298828 8.79931641 10.85205078 C9.39035156 11.71314453 9.98138672 12.57423828 10.59033203 13.46142578 C11.7837531 15.20015047 12.97402705 16.94103949 14.16113281 18.68408203 C17.06762876 22.93149949 20.02655494 27.14200163 22.98681641 31.35205078 C27.34615597 30.6040934 30.12688909 29.19057548 33.86181641 26.78955078 C39.60209076 23.35242945 43.01565949 22.46557835 49.57666016 23.93017578 C51.98681641 25.35205078 51.98681641 25.35205078 53.02587891 28.52783203 C53.24492148 29.90316827 53.43842272 31.2827172 53.61181641 32.66455078 C53.72243408 33.40495605 53.83305176 34.14536133 53.94702148 34.90820312 C54.18497366 36.52134213 54.41245983 38.13605079 54.63085938 39.75195312 C55.00348879 42.47383467 55.41542009 45.18773045 55.83447266 47.90283203 C56.11572917 49.76070732 56.39569855 51.61877796 56.67431641 53.47705078 C56.80596191 54.35272705 56.93760742 55.22840332 57.07324219 56.13061523 C57.19296387 56.96939209 57.31268555 57.80816895 57.43603516 58.67236328 C57.54262451 59.40729004 57.64921387 60.1422168 57.7590332 60.89941406 C58.36474447 67.42135977 57.62208681 72.24539741 55.05712891 78.25048828 C54.75085068 78.99515854 54.44457245 79.7398288 54.12901306 80.50706482 C53.13443981 82.91852363 52.12323429 85.32261494 51.11181641 87.72705078 C50.42488913 89.38496042 49.73926805 91.04341183 49.05493164 92.70239258 C47.68551375 96.02003445 46.31092049 99.33545457 44.93261719 102.64941406 C42.24339914 109.13007518 39.6419346 115.64472179 37.04931641 122.16455078 C36.24861288 124.17109222 35.44784067 126.17760625 34.64697266 128.18408203 C34.0934445 129.57334809 33.53999616 130.96264597 32.98681641 132.35205078 C29.11078439 130.16268798 25.2471805 127.95267263 21.38964844 125.73095703 C19.66659607 124.74215397 17.94066798 123.75835556 16.21289062 122.77783203 C13.23471136 121.08531485 10.26657369 119.37613088 7.29931641 117.66455078 C5.8469458 116.84531128 5.8469458 116.84531128 4.36523438 116.00952148 C3.45273926 115.47931396 2.54024414 114.94910645 1.60009766 114.40283203 C0.37480347 113.70154175 0.37480347 113.70154175 -0.87524414 112.98608398 C-4.12774099 110.50019139 -5.79466965 107.80231786 -6.40759277 103.734375 C-6.41601196 102.80125488 -6.42443115 101.86813477 -6.43310547 100.90673828 C-6.44901733 99.84213379 -6.4649292 98.7775293 -6.48132324 97.68066406 C-6.48152466 96.54097168 -6.48172607 95.4012793 -6.48193359 94.22705078 C-6.48954712 93.04739746 -6.49716064 91.86774414 -6.50500488 90.65234375 C-6.51579887 88.16099157 -6.51866186 85.66959416 -6.51416016 83.17822266 C-6.51318705 79.36560803 -6.55483751 75.55500034 -6.59912109 71.74267578 C-6.60432752 69.32080498 -6.6070163 66.89892718 -6.60693359 64.47705078 C-6.63152649 62.76751221 -6.63152649 62.76751221 -6.65661621 61.0234375 C-6.5874847 53.11431358 -6.5874847 53.11431358 -3.64404297 49.20751953 C3.24050062 44.35205078 3.24050062 44.35205078 5.98681641 44.35205078 C4.031112 41.47525483 2.07169079 38.6010071 0.11181641 35.72705078 C-0.47229004 34.86781006 -1.05639648 34.00856934 -1.65820312 33.12329102 C-4.42314214 29.07153688 -7.20707402 25.04747763 -10.13818359 21.11376953 C-10.60498535 20.4835791 -11.07178711 19.85338867 -11.55273438 19.20410156 C-12.42576353 18.03421057 -13.3091992 16.87199524 -14.20410156 15.71875 C-15.79641592 13.57781758 -16.96157358 11.94391885 -17.19677734 9.24658203 C-15.27085203 6.16383029 -12.29556275 4.70022973 -9.20068359 2.97705078 C-8.57097656 2.59677734 -7.94126953 2.21650391 -7.29248047 1.82470703 C-2.60811947 -0.83943113 -2.60811947 -0.83943113 0 0 Z " fill="#6965F6" transform="translate(216.01318359375,336.64794921875)"/>
<path d="M0 0 C0.77753947 4.83228089 1.54730343 9.66575263 2.3125 14.5 C2.42704529 15.22196564 2.54159058 15.94393127 2.65960693 16.68777466 C4.32153269 27.19886432 5.81935252 37.70961854 6.9230957 48.296875 C8.04261264 58.25454134 10.44451498 65.16409146 17.0625 72.75 C18.22651728 74.13436083 19.38926058 75.51979378 20.55078125 76.90625 C21.12908691 77.58945312 21.70739258 78.27265625 22.30322266 78.9765625 C24.85236458 82.0164601 27.31463032 85.11861659 29.75 88.25 C30.54921875 89.26578125 31.3484375 90.2815625 32.171875 91.328125 C33.79131033 93.69499203 34.60025693 95.20179849 35 98 C33.88818359 98.29390625 33.88818359 98.29390625 32.75390625 98.59375 C18.04016492 102.77194827 5.43120276 108.70641292 -6 119 C-7.63027134 120.39341584 -9.2752581 121.76988221 -10.9375 123.125 C-11.97197266 123.99511719 -11.97197266 123.99511719 -13.02734375 124.8828125 C-15 126 -15 126 -16.97973633 125.76660156 C-20.55262591 124.41084648 -21.94848346 120.81007561 -23.75 117.625 C-24.18248047 116.87492676 -24.61496094 116.12485352 -25.06054688 115.35205078 C-40.75767686 87.40954589 -40.75767686 87.40954589 -38 75 C-37.4740625 73.824375 -37.4740625 73.824375 -36.9375 72.625 C-34.88516578 66.87846418 -35.94841377 60.89334717 -36.88671875 54.984375 C-37.06734863 53.83904297 -37.24797852 52.69371094 -37.43408203 51.51367188 C-37.96423323 48.22206874 -38.4988231 44.9312257 -39.03515625 41.640625 C-39.54882812 38.4453125 -39.54882812 38.4453125 -40.0625 35.25 C-40.23587891 34.21101563 -40.40925781 33.17203125 -40.58789062 32.1015625 C-42.01909657 23.08661013 -42.57829422 14.10665777 -43 5 C-37.68031945 4.28374995 -32.36008821 3.57179423 -27.03930664 2.86376953 C-25.23023046 2.6224298 -23.42130888 2.37992813 -21.61254883 2.13623047 C-19.00902684 1.78566004 -16.40497303 1.43930528 -13.80078125 1.09375 C-12.99538406 0.9843811 -12.18998688 0.87501221 -11.36018372 0.7623291 C-7.54389841 0.25993691 -3.8599551 -0.13531832 0 0 Z " fill="#FDFDFE" transform="translate(330,340)"/>
<path d="M0 0 C2.66551783 1.23681358 5.22014661 2.58960604 7.78100586 4.03295898 C8.8915332 4.65686523 10.00206055 5.28077148 11.14624023 5.92358398 C12.0068103 6.41181641 12.0068103 6.41181641 12.88476562 6.90991211 C14.6462316 7.90906195 16.41146891 8.90126215 18.17749023 9.89233398 C26.80529345 14.75646533 26.80529345 14.75646533 27.95678711 15.90795898 C29.68029854 26.40988863 31.6541452 39.68928416 27.95678711 49.90795898 C22.58521488 56.75801846 14.50947958 60.02507586 6.50048828 62.93530273 C3.77315321 63.87081324 3.77315321 63.87081324 0.95678711 65.90795898 C-3.36762711 65.60015354 -6.52745079 63.6930609 -10.21899414 61.52905273 C-11.78387573 60.61917603 -11.78387573 60.61917603 -13.38037109 59.69091797 C-14.69223389 58.9169165 -16.00409668 58.14291504 -17.35571289 57.34545898 C-21.54258789 54.89108398 -25.72946289 52.43670898 -30.04321289 49.90795898 C-30.04321289 38.68795898 -30.04321289 27.46795898 -30.04321289 15.90795898 C-25.50571289 13.24733398 -20.96821289 10.58670898 -16.29321289 7.84545898 C-14.86783203 7.00104248 -13.44245117 6.15662598 -11.97387695 5.28662109 C-10.84691406 4.63443604 -9.71995117 3.98225098 -8.55883789 3.31030273 C-7.68267822 2.78442566 -7.68267822 2.78442566 -6.78881836 2.2479248 C-2.65102496 -0.11942125 -2.65102496 -0.11942125 0 0 Z " fill="#65CACF" transform="translate(240.043212890625,140.092041015625)"/>
<path d="M0 0 C2.84917787 1.45906084 5.57887099 3.08626097 8.3125 4.75 C9.03373047 5.18054688 9.75496094 5.61109375 10.49804688 6.0546875 C11.95496366 6.92753092 13.40044061 7.81974683 14.83398438 8.73046875 C16.95694383 10.05454104 16.95694383 10.05454104 19.25976562 10.86328125 C21.83559156 11.973511 23.2081519 12.81985012 25 15 C26.5956377 20.48324191 26.84261218 25.81396428 26.875 31.5 C26.88880707 32.27256134 26.90261414 33.04512268 26.9168396 33.84109497 C26.94382177 40.35350115 26.90221788 46.46590656 22.88623047 51.81591797 C17.73573792 56.13006273 11.90048137 58.80234213 5.5871582 61.00561523 C2.9126867 61.92443389 2.9126867 61.92443389 0.48120117 63.68383789 C-2 65 -2 65 -4.45605469 64.8828125 C-7.44800854 63.84452986 -9.97534533 62.48691087 -12.703125 60.875 C-13.7653125 60.25109375 -14.8275 59.6271875 -15.921875 58.984375 C-17.02015625 58.32953125 -18.1184375 57.6746875 -19.25 57 C-20.36375 56.34515625 -21.4775 55.6903125 -22.625 55.015625 C-30.8234747 50.1765253 -30.8234747 50.1765253 -32 49 C-35.19356084 20.91440662 -35.19356084 20.91440662 -30.71679688 12.62353516 C-27.41222571 9.32585672 -23.43551787 7.94673602 -19.01855469 6.67138672 C-15.77259943 5.59175719 -13.22642467 3.75580256 -10.375 1.875 C-6.40410427 -0.62766537 -4.49291451 -1.63497617 0 0 Z " fill="#B0D852" transform="translate(465,243)"/>
<path d="M0 0 C1.75209166 1.23903573 3.48211243 2.50993025 5.1875 3.8125 C6.84180921 4.76577679 8.51216789 5.69188213 10.19921875 6.5859375 C11.75806039 7.45267932 13.31665752 8.31986104 14.875 9.1875 C15.68388672 9.63738281 16.49277344 10.08726562 17.32617188 10.55078125 C19.28017089 11.63762094 21.23394574 12.72486117 23.1875 13.8125 C23.41084904 18.54444539 23.57365853 23.27329744 23.68188477 28.00927734 C23.72700884 29.61789397 23.78833129 31.22614414 23.86645508 32.83349609 C24.49544828 46.11224157 24.49544828 46.11224157 21.46923828 50.04614258 C19.11260214 51.63822119 16.81008546 52.71981848 14.1875 53.8125 C12.62903002 54.72926612 11.08181492 55.66545352 9.546875 56.62109375 C8.01265982 57.50131721 6.47619797 58.37763649 4.9375 59.25 C4.16148437 59.70826172 3.38546875 60.16652344 2.5859375 60.63867188 C1.83054688 61.06599609 1.07515625 61.49332031 0.296875 61.93359375 C-0.37375977 62.3195874 -1.04439453 62.70558105 -1.73535156 63.10327148 C-5.4205179 64.36154701 -8.05961984 63.1751573 -11.4597168 61.53735352 C-12.38437744 61.01069092 -13.30903809 60.48402832 -14.26171875 59.94140625 C-15.27427734 59.36712891 -16.28683594 58.79285156 -17.33007812 58.20117188 C-18.37615234 57.59853516 -19.42222656 56.99589844 -20.5 56.375 C-21.55767578 55.77623047 -22.61535156 55.17746094 -23.70507812 54.56054688 C-31.52862258 50.09637742 -31.52862258 50.09637742 -33.8125 47.8125 C-33.98752995 45.23146694 -34.04412279 42.75941837 -34.0078125 40.1796875 C-34.0049826 39.42785187 -34.00215271 38.67601624 -33.99923706 37.90139771 C-33.98802874 35.49660422 -33.96292352 33.09218119 -33.9375 30.6875 C-33.92747102 29.05859912 -33.91834503 27.42969242 -33.91015625 25.80078125 C-33.88808735 21.80454444 -33.85355351 17.80858506 -33.8125 13.8125 C-30.06126084 11.36366294 -26.27781264 8.97969587 -22.45385742 6.64697266 C-21.16061024 5.84642954 -19.87736835 5.0294721 -18.60522461 4.19580078 C-6.64243343 -3.61720714 -6.64243343 -3.61720714 0 0 Z " fill="#FB7C9F" transform="translate(183.8125,269.1875)"/>
<path d="M0 0 C1.93735837 0.97245638 3.83688591 2.02219426 5.703125 3.125 C6.7653125 3.74890625 7.8275 4.3728125 8.921875 5.015625 C10.56929688 5.99789063 10.56929688 5.99789063 12.25 7 C13.36375 7.65484375 14.4775 8.3096875 15.625 8.984375 C23.8234747 13.8234747 23.8234747 13.8234747 25 15 C26.72624811 25.51860513 28.67098171 38.75740582 25 49 C19.12362074 56.5997647 9.817291 59.90474162 1 63 C0.13310547 63.40259033 -0.73378906 63.80518066 -1.62695312 64.2199707 C-4 65 -4 65 -7.70703125 63.54296875 C-9.08911055 62.78198853 -10.45726478 61.99531903 -11.8125 61.1875 C-12.52374023 60.77532227 -13.23498047 60.36314453 -13.96777344 59.93847656 C-19.73909928 56.45345312 -23.99420104 52.43360848 -28 47 C-28.67216553 46.25548584 -29.34433105 45.51097168 -30.03686523 44.74389648 C-35.02218184 37.775861 -33.78216605 26.19227667 -32.82568359 18.01660156 C-31.68754669 13.85846448 -29.98676331 12.13443242 -26.41577148 9.83789062 C-23.37766959 8.31220202 -20.3125288 7.00258717 -17.12011719 5.83496094 C-14.2340331 4.698341 -11.80288043 3.05839087 -9.25 1.3125 C-5.66473983 -1.07982289 -4.13803053 -1.13714324 0 0 Z " fill="#FB8E01" transform="translate(405,372)"/>
<path d="M0 0 C2.72112317 1.3083874 5.30494753 2.72999837 7.90136719 4.27124023 C9.35929687 5.13458984 9.35929687 5.13458984 10.84667969 6.01538086 C11.84957031 6.61415039 12.85246094 7.21291992 13.88574219 7.82983398 C14.90410156 8.4324707 15.92246094 9.03510742 16.97167969 9.65600586 C24.49072987 14.12232167 24.49072987 14.12232167 25.63574219 15.26733398 C27.416042 25.08198204 29.29036263 37.69916724 25.63574219 47.26733398 C19.76254763 54.7278456 9.78644925 59.94400024 0.63574219 62.26733398 C-9.29029544 61.46321558 -19.42529543 56.31914957 -27.04833984 50.10571289 C-31.67580348 44.43431376 -31.71805853 37.9115789 -31.67675781 30.89233398 C-31.69027283 30.1858371 -31.70378784 29.47934021 -31.7177124 28.75143433 C-31.73903248 23.93567422 -31.24839181 19.76828502 -29.36425781 15.26733398 C-25.44499894 11.63032203 -21.18476321 9.5058479 -16.36425781 7.26733398 C-14.96380282 6.42464821 -13.57474767 5.56210606 -12.20800781 4.66577148 C-11.10457031 3.99803711 -10.00113281 3.33030273 -8.86425781 2.64233398 C-8.29707031 2.28010742 -7.72988281 1.91788086 -7.14550781 1.54467773 C-2.99097895 -0.92688226 -2.99097895 -0.92688226 0 0 Z " fill="#FBCA51" transform="translate(381.3642578125,127.732666015625)"/>
<path d="M0 0 C0.75925781 0.25136719 1.51851563 0.50273437 2.30078125 0.76171875 C4.77856438 1.90198011 6.17083929 2.95433961 8 5 C11.58049083 17.4988646 6.61381976 28.01879828 1.625 39.3125 C0.90342198 41.00856525 0.18465125 42.70582769 -0.53125 44.40429688 C-5.13093143 55.26186286 -5.13093143 55.26186286 -7 59 C-16.20906317 57.31278087 -26.47338001 53.99962115 -32 46 C-34.60004328 35.31443955 -33.20935682 23.81723161 -32 13 C-28.42242659 10.80070333 -24.82987066 8.62912472 -21.22119141 6.48144531 C-19.99669953 5.74759221 -18.77655677 5.00642985 -17.56103516 4.2578125 C-15.80952434 3.18084101 -14.04388395 2.13141057 -12.2734375 1.0859375 C-11.21560059 0.4470459 -10.15776367 -0.1918457 -9.06787109 -0.85009766 C-5.22231827 -2.2914914 -3.6726038 -1.65562061 0 0 Z " fill="#D0DAFC" transform="translate(265,387)"/>
<path d="M0 0 C0.33868777 2.20751848 0.67071689 4.41605911 1 6.625 C1.185625 7.85476563 1.37125 9.08453125 1.5625 10.3515625 C1.95402516 13.6166027 2.08080924 16.71712451 2 20 C1.40276123 20.07516846 0.80552246 20.15033691 0.19018555 20.2277832 C-10.04055888 21.52191026 -20.26048362 22.82970939 -30.4375 24.5 C-37.87771178 25.71265789 -45.33398511 26.73963844 -52.8125 27.6875 C-53.83335693 27.81898438 -54.85421387 27.95046875 -55.90600586 28.0859375 C-60.63303992 28.67282333 -65.22531021 29.17023512 -70 29 C-70.3407482 27.14718166 -70.67221783 25.29265605 -71 23.4375 C-71.185625 22.40496094 -71.37125 21.37242187 -71.5625 20.30859375 C-72.02191106 16.83429759 -72.0290652 13.50053991 -72 10 C-64.33271665 8.84176327 -56.66514935 7.68542627 -48.99722385 6.53144932 C-45.43591711 5.99543431 -41.8747078 5.45878912 -38.3137207 4.9206543 C-34.87098121 4.40041355 -31.42798651 3.88189274 -27.9848156 3.3645153 C-26.04557319 3.07267675 -24.10659234 2.77910184 -22.1676178 2.48548889 C-5.60012391 0 -5.60012391 0 0 0 Z " fill="#91B0F2" transform="translate(339,298)"/>
<path d="M0 0 C4.1201119 1.60380195 7.92831916 3.50635591 11.8125 5.625 C12.40998047 5.94984375 13.00746094 6.2746875 13.62304688 6.609375 C15.08337135 7.40379151 16.54187491 8.20155376 18 9 C17.33686825 13.79843781 15.42769409 17.7993401 13.40234375 22.14453125 C13.04862198 22.91431808 12.69490021 23.68410492 12.33045959 24.47721863 C11.20446314 26.9246486 10.07110163 29.36858472 8.9375 31.8125 C8.17073482 33.47568604 7.40445328 35.13909514 6.63867188 36.80273438 C4.76470774 40.87109505 2.88413284 44.93633927 1 49 C-2.95258651 47.46069922 -6.56485481 45.67283561 -10.25 43.5625 C-11.30703125 42.96566406 -12.3640625 42.36882812 -13.453125 41.75390625 C-16 40 -16 40 -17 37 C-16.47486877 35.23457336 -16.47486877 35.23457336 -15.55297852 33.26293945 C-15.2125502 32.52239822 -14.87212189 31.78185699 -14.52137756 31.01887512 C-14.14436203 30.22502914 -13.7673465 29.43118317 -13.37890625 28.61328125 C-13.00015854 27.79627243 -12.62141083 26.97926361 -12.23118591 26.13749695 C-11.01742489 23.52479528 -9.79017 20.91869064 -8.5625 18.3125 C-7.73803682 16.54403699 -6.91445769 14.77516154 -6.09179688 13.00585938 C-4.07143131 8.66571769 -2.03893993 4.33144479 0 0 Z " fill="#6865F6" transform="translate(431,315)"/>
<path d="M0 0 C0.70125 0.38671875 1.4025 0.7734375 2.125 1.171875 C7.69832834 4.23114762 13.29206196 7.19987945 19 10 C18.34 10.33 17.68 10.66 17 11 C16.32743598 13.03510471 15.66075846 15.0722716 15.01708984 17.11669922 C12.90188289 23.11300123 10.02536165 28.81765947 7.3125 34.5625 C6.6994155 35.87022983 6.08678178 37.17817108 5.47460938 38.48632812 C3.98825841 41.66000484 2.49584 44.83078263 1 48 C-2.20067028 47.45975183 -4.75251159 46.79992308 -7.55078125 45.15234375 C-8.16630859 44.79462891 -8.78183594 44.43691406 -9.41601562 44.06835938 C-10.04185547 43.69517578 -10.66769531 43.32199219 -11.3125 42.9375 C-11.95767578 42.56044922 -12.60285156 42.18339844 -13.26757812 41.79492188 C-14.84878152 40.86962507 -16.4249146 39.93567319 -18 39 C-15.33938285 32.99729973 -12.67188609 26.99769251 -10 21 C-9.58878906 20.07622559 -9.17757812 19.15245117 -8.75390625 18.20068359 C-7.52602571 15.44512457 -6.29473486 12.69111419 -5.0625 9.9375 C-4.47867554 8.62604004 -4.47867554 8.62604004 -3.88305664 7.28808594 C-3.52074951 6.48016602 -3.15844238 5.67224609 -2.78515625 4.83984375 C-2.46426025 4.12175537 -2.14336426 3.40366699 -1.81274414 2.66381836 C-1 1 -1 1 0 0 Z " fill="#6865F6" transform="translate(208,212)"/>
<path d="M0 0 C4.57627119 3.15254237 4.57627119 3.15254237 6 6 C6.43867925 13.89622642 6.43867925 13.89622642 4 17 C0.55324254 19.32455736 -1.44616045 20.00954896 -5.625 19.9375 C-9.46240224 18.87155493 -10.83216235 18.33513484 -13 15 C-14.16356124 11.24519502 -14.87986705 7.73100375 -13.04296875 4.1171875 C-9.09403454 -0.82196284 -5.9456801 -1.54587683 0 0 Z " fill="#6965F6" transform="translate(284,503)"/>
<path d="M0 0 C2.97672584 1.77280561 5.42804007 3.85608015 7 7 C7.40417552 9.96395382 7.56382171 12.08904926 5.953125 14.69140625 C4.15636794 16.88450678 2.55808759 18.7209562 0 20 C-4.18144011 20.39447548 -6.30946048 20.45035186 -9.875 18.125 C-12.80038857 15.19961143 -12.96503325 14.42659437 -13.3125 10.1875 C-13.28232024 6.86772673 -13.0060988 6.00955479 -11.125 3.0625 C-7.52217335 -0.43436116 -4.97275774 -0.49727577 0 0 Z " fill="#6865F7" transform="translate(343,515)"/>
<path d="M0 0 C3.3250875 2.49381562 4.56143001 5.20465133 5.25 9.25 C4.71073607 12.5529916 3.72973619 14.63459397 1.44140625 17.10546875 C-1.81942471 19.43248206 -5.33616033 19.75918822 -9.25 19.3125 C-12.17143417 17.54746686 -13.72923817 16.35402365 -15.25 13.3125 C-15.8311138 6.22291162 -15.8311138 6.22291162 -13.375 2.375 C-9.45577549 -1.4289532 -5.20576272 -1.59064972 0 0 Z " fill="#6A66F7" transform="translate(380.25,481.6875)"/>
</svg>
