<?xml version="1.0" encoding="UTF-8"?>
<svg version="1.1" xmlns="http://www.w3.org/2000/svg" width="640" height="640">
<path d="M0 0 C211.2 0 422.4 0 640 0 C640 211.2 640 422.4 640 640 C428.8 640 217.6 640 0 640 C0 428.8 0 217.6 0 0 Z " fill="#FEFEFE" transform="translate(0,0)"/>
<path d="M0 0 C4.39349459 1.97944077 8.45367426 4.42843417 12.5625 6.9375 C13.72261489 7.63082745 14.88359113 8.3227156 16.04541016 9.01318359 C18.33064091 10.37451068 20.60863916 11.74602781 22.88427734 13.12353516 C25.53812612 14.72183336 28.20598406 16.28536793 30.89453125 17.82421875 C32.22142179 18.59102884 33.54825152 19.35794415 34.875 20.125 C35.98617188 20.76695313 37.09734375 21.40890625 38.2421875 22.0703125 C41.423678 24.29645458 43.0001122 25.63511776 45 29 C45.58103605 32.96878165 45.51241956 36.90183301 45.4609375 40.90625 C45.46002106 42.06370728 45.45910461 43.22116455 45.4581604 44.41369629 C45.45212515 46.85803331 45.43638163 49.30236297 45.41162109 51.74658203 C45.37513386 55.48628012 45.37060173 59.2249863 45.37109375 62.96484375 C45.36126154 65.34115439 45.34960409 67.71745832 45.3359375 70.09375 C45.33371185 71.2115686 45.33148621 72.32938721 45.32919312 73.4810791 C45.31643341 74.52566284 45.30367371 75.57024658 45.29052734 76.64648438 C45.28290375 77.5618396 45.27528015 78.47719482 45.26742554 79.42028809 C44.97459287 82.24508902 44.16814461 84.4237134 43 87 C46.42798799 90.60109948 49.8784143 94.17851899 53.3515625 97.73608398 C54.52955244 98.94926443 55.70118215 100.16865461 56.86621094 101.39428711 C58.54286547 103.15591689 60.24118603 104.89388961 61.9453125 106.62890625 C62.46118927 107.18091202 62.97706604 107.73291779 63.50857544 108.301651 C65.17033114 110.04243114 65.17033114 110.04243114 68 112 C72.17741144 111.98946345 75.01181711 110.70081395 78.49609375 108.49609375 C79.30240234 108.00302734 80.10871094 107.50996094 80.93945312 107.00195312 C82.60377536 105.95963717 84.26524977 104.91275996 85.92382812 103.86132812 C90.7673257 100.91193574 94.19207153 98.84347017 100 100 C103.82099684 101.74662079 107.38700147 103.86245143 111 106 C113.0838921 107.15191007 115.17121387 108.29763489 117.26171875 109.4375 C119.40401907 110.62432653 121.54594352 111.81183178 123.6875 113 C124.76322266 113.59039062 125.83894531 114.18078125 126.94726562 114.7890625 C142.16829184 123.25243776 142.16829184 123.25243776 146 129 C146.27415466 131.33920288 146.27415466 131.33920288 146.30639648 134.12646484 C146.32238388 135.17119965 146.33837128 136.21593445 146.35484314 137.29232788 C146.36288719 138.98453964 146.36288719 138.98453964 146.37109375 140.7109375 C146.38012222 141.87122467 146.3891507 143.03151184 146.39845276 144.22695923 C146.41297007 146.68318088 146.42184565 149.13944134 146.42553711 151.59570312 C146.43743203 155.35352757 146.48660564 159.10970981 146.53710938 162.8671875 C146.54657345 165.25259614 146.55380856 167.63801488 146.55859375 170.0234375 C146.57812607 171.14753021 146.59765839 172.27162292 146.61778259 173.42977905 C146.57282995 181.20356875 146.57282995 181.20356875 143.8203125 185.03051758 C141.03036244 186.97879728 138.27853019 188.81156571 135.31640625 190.48828125 C133.68711182 191.41918579 133.68711182 191.41918579 132.02490234 192.36889648 C130.31101318 193.33098022 130.31101318 193.33098022 128.5625 194.3125 C127.38201389 194.9800016 126.20183906 195.64805401 125.02197266 196.31665039 C122.71570857 197.62336971 120.4079296 198.9272568 118.09912109 200.22949219 C115.52442563 201.70039903 112.98258443 203.20480692 110.45703125 204.7578125 C109.83304443 205.13639404 109.20905762 205.51497559 108.56616211 205.9050293 C107.01445527 206.85236122 105.47160331 207.81415761 103.9296875 208.77734375 C100.04987405 210.39651923 97.18046735 210.22026118 93 210 C92.82984375 210.90878906 92.6596875 211.81757813 92.484375 212.75390625 C90.93144147 220.80768386 89.08952167 228.67740378 86.91796875 236.58984375 C85.81039561 240.70436014 84.87765053 244.83115999 84 249 C84.65871094 249.24105469 85.31742187 249.48210937 85.99609375 249.73046875 C89.83118207 251.35127981 93.42405306 253.29484611 97.0625 255.3125 C98.12307617 255.88000977 98.12307617 255.88000977 99.20507812 256.45898438 C99.89150391 256.83990234 100.57792969 257.22082031 101.28515625 257.61328125 C102.21146851 258.12048706 102.21146851 258.12048706 103.15649414 258.63793945 C106.506602 261.11314165 108.70770403 263.12944054 109.37736511 267.41496277 C109.54751626 270.50102129 109.58043412 273.56158365 109.56640625 276.65234375 C109.57260483 277.78523331 109.57880341 278.91812286 109.58518982 280.08534241 C109.59228567 282.4783543 109.58911817 284.87141559 109.57641602 287.2644043 C109.56256124 290.921337 109.59661586 294.57570562 109.63476562 298.23242188 C109.63571694 300.55989646 109.63385732 302.88737424 109.62890625 305.21484375 C109.64216446 306.30562729 109.65542267 307.39641083 109.66908264 308.52024841 C109.56551095 316.98645358 109.56551095 316.98645358 106.84765625 320.49658203 C103.94704308 323.04655524 101.18377352 324.96592931 97.80859375 326.83984375 C97.22263931 327.16988907 96.63668488 327.49993439 96.03297424 327.83998108 C94.17394803 328.88394763 92.30626891 329.91109559 90.4375 330.9375 C88.60333195 331.96009786 86.77108949 332.98607799 84.93911743 334.01260376 C83.72884207 334.68812566 82.51624892 335.35951188 81.30136108 336.02670288 C78.38638721 337.63207872 75.553773 339.28227415 72.73876953 341.06298828 C63.01570056 347.19291678 63.01570056 347.19291678 57.38574219 346.68847656 C51.82547366 345.08389641 47.01318959 341.89268005 42.125 338.875 C39.89912371 337.53791948 37.67256749 336.20197016 35.4453125 334.8671875 C34.37442383 334.2184668 33.30353516 333.56974609 32.20019531 332.90136719 C27.53930841 330.13214326 22.78467536 327.54790269 18 325 C18.41660889 325.7528125 18.83321777 326.505625 19.26245117 327.28125 C27.05772139 341.37323444 34.82469236 355.47826591 42.47412109 369.65014648 C45.71297566 375.64410428 48.99213151 381.61334577 52.3125 387.5625 C53.87729928 390.37372766 55.43970678 393.186269 57 396 C57.57886963 397.04269043 57.57886963 397.04269043 58.16943359 398.10644531 C59.28765927 400.12918081 60.39537294 402.1573128 61.5 404.1875 C62.1290625 405.33605469 62.758125 406.48460937 63.40625 407.66796875 C68.34140329 417.98582601 68.58878992 430.15206683 65 441 C60.38064455 453.880895 51.62982878 463.57631553 39.25 469.4375 C33.07853731 472.17291885 28.00807923 473.12612986 21.26586914 473.14379883 C20.59597143 473.14604902 19.92607372 473.14829922 19.23587608 473.1506176 C16.98141913 473.15515215 14.72710843 473.15063073 12.47265625 473.14453125 C11.67738085 473.14358774 10.88210545 473.14264423 10.06273079 473.14167213 C-11.53562497 473.10460355 -33.1233048 472.51087232 -54.71118164 471.88305664 C-60.48516663 471.71579352 -66.25947462 471.56596802 -72.03402805 471.41984844 C-76.54950413 471.30269742 -81.06458144 471.17357928 -85.57963371 471.04117775 C-87.71035858 470.98064235 -89.84121031 470.92439533 -91.97216988 470.87277794 C-109.96142011 470.42981965 -125.63696506 469.195456 -139.375 456.25 C-143.79107345 451.57498088 -146.67792834 446.97508684 -149 441 C-149.47566406 439.88431641 -149.47566406 439.88431641 -149.9609375 438.74609375 C-153.77135469 428.41601779 -153.59562831 416.71579846 -149.5 406.5625 C-144.36873183 395.53588331 -137.36925832 385.26682746 -130.88232422 375.00488281 C-128.1906802 370.70802748 -125.58507831 366.36159444 -123 362 C-123.64976807 361.24259521 -124.29953613 360.48519043 -124.96899414 359.70483398 C-128.03409649 355.07241599 -127.55414737 350.10098179 -127.49609375 344.72265625 C-127.49754898 343.6379454 -127.49900421 342.55323456 -127.50050354 341.43565369 C-127.49884722 339.1469351 -127.48731598 336.85820508 -127.46655273 334.56958008 C-127.43762677 331.07780309 -127.445945 327.58754819 -127.45898438 324.09570312 C-127.45274555 321.86718016 -127.44435349 319.63866197 -127.43359375 317.41015625 C-127.43652939 316.37141861 -127.43946503 315.33268097 -127.44248962 314.26246643 C-127.36649777 308.38436553 -126.75021899 304.21575161 -124 299 C-123.67 298.34 -123.34 297.68 -123 297 C-123.56082275 296.76949951 -124.12164551 296.53899902 -124.69946289 296.30151367 C-127.61024936 294.65475545 -129.5123673 292.60711932 -131.80859375 290.17578125 C-132.72060547 289.23025391 -133.63261719 288.28472656 -134.57226562 287.31054688 C-136.01184816 285.8088985 -137.44624047 284.30319361 -138.87036133 282.78686523 C-140.25262844 281.32003255 -141.65536914 279.87257812 -143.05859375 278.42578125 C-143.88673584 277.55348877 -144.71487793 276.68119629 -145.56811523 275.7824707 C-147.83431357 273.74251451 -147.83431357 273.74251451 -150.50439453 274.05322266 C-153.16178028 275.06137585 -155.44430675 276.24203085 -157.87109375 277.72265625 C-158.77537109 278.26083984 -159.67964844 278.79902344 -160.61132812 279.35351562 C-162.49431761 280.4921582 -164.37454044 281.63538871 -166.25195312 282.78320312 C-167.15751953 283.32009766 -168.06308594 283.85699219 -168.99609375 284.41015625 C-169.81263428 284.90652588 -170.6291748 285.40289551 -171.47045898 285.91430664 C-175.37081662 287.58836227 -178.47775909 287.59042828 -182.4309082 286.05712891 C-183.21296631 285.61804199 -183.99502441 285.17895508 -184.80078125 284.7265625 C-185.68757568 284.23615479 -186.57437012 283.74574707 -187.48803711 283.24047852 C-188.42010986 282.70737061 -189.35218262 282.1742627 -190.3125 281.625 C-191.28002197 281.08351318 -192.24754395 280.54202637 -193.24438477 279.98413086 C-196.17206078 278.33826181 -199.0876099 276.67274454 -202 275 C-202.84852539 274.51515137 -203.69705078 274.03030273 -204.57128906 273.53076172 C-206.86496367 272.21629899 -209.1531461 270.89308657 -211.4375 269.5625 C-212.10370361 269.17465332 -212.76990723 268.78680664 -213.45629883 268.38720703 C-216.64475927 266.50006775 -219.77818355 264.54043717 -222.84765625 262.46484375 C-223.40590088 262.08835693 -223.96414551 261.71187012 -224.53930664 261.32397461 C-226.971017 259.11986876 -227.90532181 256.86563631 -228.26069641 253.61647034 C-228.2653038 252.73442429 -228.26991119 251.85237823 -228.2746582 250.94360352 C-228.28419022 249.93898575 -228.29372223 248.93436798 -228.30354309 247.89930725 C-228.30263168 246.82007492 -228.30172028 245.74084259 -228.30078125 244.62890625 C-228.30506638 243.51442612 -228.3093515 242.39994598 -228.31376648 241.25169373 C-228.31950753 238.89558593 -228.32001171 236.53946041 -228.31567383 234.18334961 C-228.312515 230.57960759 -228.33597291 226.97668733 -228.36132812 223.37304688 C-228.36360124 221.08333437 -228.36430456 218.79361966 -228.36328125 216.50390625 C-228.372491 215.42669815 -228.38170074 214.34949005 -228.39118958 213.23963928 C-228.33273725 203.78250623 -228.33273725 203.78250623 -225 200 C-218.60073113 194.48642486 -210.86336919 190.50156995 -203.5 186.4375 C-201.55134437 185.35419277 -199.6034214 184.26956652 -197.65625 183.18359375 C-196.71378418 182.66087891 -195.77131836 182.13816406 -194.80029297 181.59960938 C-191.22126318 179.55516272 -187.74494436 177.36018523 -184.28369141 175.12280273 C-180.44077047 173.23338715 -177.20181533 173.59337271 -173 174 C-170.52093875 164.20243348 -168.12734386 154.38914719 -165.83203125 144.546875 C-165.24046687 142.0250888 -164.63268776 139.51144286 -164 137 C-164.64549805 136.63237549 -165.29099609 136.26475098 -165.95605469 135.88598633 C-168.89347085 134.20523715 -171.82170252 132.50908235 -174.75 130.8125 C-175.76578125 130.23435547 -176.7815625 129.65621094 -177.828125 129.06054688 C-178.8078125 128.49013672 -179.7875 127.91972656 -180.796875 127.33203125 C-181.69760742 126.81358643 -182.59833984 126.2951416 -183.52636719 125.76098633 C-186.54324776 123.61326035 -188.16377933 122.26377988 -190 119 C-190.58917756 115.0305949 -190.56027353 111.10058595 -190.53125 107.09375 C-190.5350769 105.93629272 -190.53890381 104.77883545 -190.54284668 103.58630371 C-190.54556559 101.1419996 -190.53820598 98.69766639 -190.52148438 96.25341797 C-190.50007634 92.51333713 -190.52128875 88.77517739 -190.546875 85.03515625 C-190.54423172 82.65884993 -190.53910675 80.2825448 -190.53125 77.90625 C-190.53934692 76.7884314 -190.54744385 75.67061279 -190.55578613 74.5189209 C-190.46293929 66.82687151 -190.46293929 66.82687151 -188.2956543 62.95581055 C-185.86916456 60.88853316 -183.54300388 59.31794498 -180.73828125 57.80078125 C-179.70936768 57.23568848 -178.6804541 56.6705957 -177.62036133 56.08837891 C-176.52876709 55.50233887 -175.43717285 54.91629883 -174.3125 54.3125 C-172.05103762 53.07873775 -169.79062437 51.8430506 -167.53125 50.60546875 C-166.42136719 49.99880371 -165.31148437 49.39213867 -164.16796875 48.76708984 C-161.33439376 47.18652451 -158.55031218 45.55360838 -155.78125 43.86328125 C-154.63402466 43.16368286 -154.63402466 43.16368286 -153.46362305 42.44995117 C-152.07064354 41.59196686 -150.68361343 40.72421572 -149.30395508 39.8449707 C-145.26966808 37.37552348 -142.6930845 36.56804944 -138 37 C-135.2019043 38.21826172 -135.2019043 38.21826172 -132.32421875 39.9296875 C-131.25631104 40.55576904 -130.18840332 41.18185059 -129.08813477 41.8269043 C-127.96592529 42.50277588 -126.84371582 43.17864746 -125.6875 43.875 C-124.52400999 44.56466224 -123.35986117 45.25321422 -122.19506836 45.94067383 C-119.87541479 47.31167288 -117.55992199 48.68933836 -115.24707031 50.07177734 C-112.38574129 51.77093348 -109.50980179 53.436919 -106.6171875 55.08203125 C-105.83641846 55.52885254 -105.05564941 55.97567383 -104.2512207 56.43603516 C-102.83335579 57.24674074 -101.41277268 58.0527182 -99.98901367 58.85302734 C-96.58929529 60.82343338 -93.97172494 62.54402455 -92 66 C-92 66.66 -92 67.32 -92 68 C-87.72885797 66.89702521 -83.4581447 65.79239871 -79.1875 64.6875 C-77.99189453 64.37876953 -76.79628906 64.07003906 -75.56445312 63.75195312 C-68.36134753 61.88738901 -61.17223338 59.98009822 -54 58 C-53.99589111 57.1529248 -53.99178223 56.30584961 -53.98754883 55.43310547 C-53.96046092 52.26793746 -53.91126375 49.1040766 -53.84741211 45.93945312 C-53.82432106 44.57401335 -53.8098573 43.20839771 -53.80444336 41.84277344 C-53.75040815 30.4538145 -53.75040815 30.4538145 -51.19140625 25.49609375 C-46.87022682 21.523906 -41.26312697 18.92596271 -36.125 16.1875 C-33.86722697 14.96195863 -31.61071138 13.73409785 -29.35546875 12.50390625 C-28.26411621 11.90980957 -27.17276367 11.31571289 -26.04833984 10.70361328 C-23.41428365 9.23152902 -20.8489216 7.70447887 -18.30078125 6.08984375 C-17.63353027 5.66743408 -16.9662793 5.24502441 -16.27880859 4.80981445 C-14.57206269 3.71158615 -12.87727243 2.59483774 -11.18359375 1.4765625 C-7.19901475 -0.37149991 -4.24285764 -1.01073194 0 0 Z " fill="#072C76" transform="translate(360,95)"/>
<path d="M0 0 C4.39349459 1.97944077 8.45367426 4.42843417 12.5625 6.9375 C13.72261489 7.63082745 14.88359113 8.3227156 16.04541016 9.01318359 C18.33064091 10.37451068 20.60863916 11.74602781 22.88427734 13.12353516 C25.53812612 14.72183336 28.20598406 16.28536793 30.89453125 17.82421875 C32.22142179 18.59102884 33.54825152 19.35794415 34.875 20.125 C35.98617188 20.76695313 37.09734375 21.40890625 38.2421875 22.0703125 C41.423678 24.29645458 43.0001122 25.63511776 45 29 C45.58103605 32.96878165 45.51241956 36.90183301 45.4609375 40.90625 C45.46002106 42.06370728 45.45910461 43.22116455 45.4581604 44.41369629 C45.45212515 46.85803331 45.43638163 49.30236297 45.41162109 51.74658203 C45.37513386 55.48628012 45.37060173 59.2249863 45.37109375 62.96484375 C45.36126154 65.34115439 45.34960409 67.71745832 45.3359375 70.09375 C45.33371185 71.2115686 45.33148621 72.32938721 45.32919312 73.4810791 C45.31643341 74.52566284 45.30367371 75.57024658 45.29052734 76.64648438 C45.28290375 77.5618396 45.27528015 78.47719482 45.26742554 79.42028809 C44.97459287 82.24508902 44.16814461 84.4237134 43 87 C46.50224112 90.52697177 50.0077629 94.05063751 53.51635742 97.57128906 C54.70932155 98.76927995 55.90138634 99.96816709 57.0925293 101.16796875 C58.8054176 102.89299507 60.52152084 104.61476576 62.23828125 106.3359375 C62.76964188 106.87245941 63.3010025 107.40898132 63.84846497 107.96176147 C66.14262288 110.25626574 68.28943121 112.19295414 71 114 C64.73 117.63 58.46 121.26 52 125 C47.6667367 121.28577431 43.75701977 117.85537715 39.86328125 113.78515625 C38.95642578 112.85251953 38.04957031 111.91988281 37.11523438 110.95898438 C35.70048428 109.50068066 34.29009684 108.0389592 32.8894043 106.56713867 C31.51725779 105.12869346 30.12800719 103.70662468 28.73828125 102.28515625 C27.92399658 101.43832275 27.10971191 100.59148926 26.27075195 99.71899414 C24.20597932 97.77905953 24.20597932 97.77905953 21.98193359 98.07568359 C19.75531601 99.11411352 17.65876981 100.23964967 15.55078125 101.50390625 C14.70193359 101.99697266 13.85308594 102.49003906 12.97851562 102.99804688 C11.21395816 104.03351247 9.4559721 105.08026631 7.70507812 106.13867188 C2.12562843 109.34675033 -2.55201837 111.70883358 -9 110 C-13.60189325 107.88324176 -17.85056592 105.26415099 -22.125 102.5625 C-23.32632482 101.82142711 -24.52872481 101.08209439 -25.73217773 100.34448242 C-28.09125609 98.89623494 -30.44413788 97.43862512 -32.79345703 95.97460938 C-35.51284271 94.29999453 -38.24894471 92.6831656 -41.02734375 91.109375 C-41.72649902 90.71032959 -42.4256543 90.31128418 -43.14599609 89.90014648 C-44.91907242 88.89389743 -46.69571248 87.8939349 -48.47265625 86.89453125 C-51.28516624 84.78623551 -52.07008639 83.34422349 -53 80 C-65.72988804 83.12267609 -78.3905548 86.42123234 -91 90 C-91.00410889 90.8470752 -91.00821777 91.69415039 -91.01245117 92.56689453 C-91.03953908 95.73206254 -91.08873625 98.8959234 -91.15258789 102.06054688 C-91.17567894 103.42598665 -91.1901427 104.79160229 -91.19555664 106.15722656 C-91.24956944 117.54146251 -91.24956944 117.54146251 -93.80078125 122.5 C-98.15538039 126.50421123 -103.82182199 129.11500149 -109 131.875 C-111.25376586 133.10333967 -113.50638198 134.33379135 -115.7578125 135.56640625 C-116.83579102 136.15437988 -117.91376953 136.74235352 -119.02441406 137.34814453 C-123.70675365 139.94748073 -128.23085041 142.76194665 -132.7421875 145.64453125 C-136.88876527 148.13391271 -140.25305428 148.08956501 -145 148 C-145.37125 149.7015625 -145.37125 149.7015625 -145.75 151.4375 C-146.81011994 156.19289518 -147.89822937 160.94160766 -149 165.6875 C-149.1659668 166.41187256 -149.33193359 167.13624512 -149.50292969 167.88256836 C-150.24702348 171.06981882 -151.03965259 174.11303741 -152.125 177.20703125 C-153.04088606 180.13050683 -153.41656925 181.96872531 -153 185 C-151.03120485 186.81226543 -151.03120485 186.81226543 -148.328125 188.15625 C-146.86632812 188.97802734 -146.86632812 188.97802734 -145.375 189.81640625 C-144.34375 190.37199219 -143.3125 190.92757812 -142.25 191.5 C-140.22924724 192.60525944 -138.21341578 193.71957424 -136.203125 194.84375 C-135.30239258 195.33037109 -134.40166016 195.81699219 -133.47363281 196.31835938 C-130.09735253 198.61364348 -127.82384377 201.35231247 -126 205 C-125.89503834 206.52476078 -125.85130664 208.05395682 -125.83886719 209.58227539 C-125.82925964 210.53409195 -125.8196521 211.48590851 -125.80975342 212.46656799 C-125.80550354 213.49982712 -125.80125366 214.53308624 -125.796875 215.59765625 C-125.79117493 216.66108749 -125.78547485 217.72451874 -125.77960205 218.82017517 C-125.77013994 221.07729088 -125.76361328 223.33442047 -125.75976562 225.59155273 C-125.75010782 229.0241767 -125.71911529 232.45618976 -125.6875 235.88867188 C-125.68096515 238.08332978 -125.67571657 240.27799197 -125.671875 242.47265625 C-125.6595282 243.49174576 -125.6471814 244.51083527 -125.63446045 245.56080627 C-125.63746155 246.53468796 -125.64046265 247.50856964 -125.64355469 248.51196289 C-125.63808624 249.77865562 -125.63808624 249.77865562 -125.63250732 251.07093811 C-126 254 -126 254 -129 263 C-121.08 270.92 -113.16 278.84 -105 287 C-101.59297459 285.63718983 -98.91973911 284.4714703 -95.86328125 282.6171875 C-95.12142578 282.17246094 -94.37957031 281.72773438 -93.61523438 281.26953125 C-92.06804219 280.33255481 -90.52117191 279.39504662 -88.97460938 278.45703125 C-87.86762695 277.79380859 -87.86762695 277.79380859 -86.73828125 277.1171875 C-86.06837158 276.71097168 -85.39846191 276.30475586 -84.70825195 275.88623047 C-83 275 -83 275 -81 275 C-80.10881457 291.35237035 -82.57594963 301.38353936 -92.23242188 314.50878906 C-95.39601746 318.96753621 -98.13699378 323.68320212 -100.9375 328.375 C-102.10371058 330.30184646 -103.27168432 332.22762688 -104.44140625 334.15234375 C-105.02293457 335.10995605 -105.60446289 336.06756836 -106.20361328 337.05419922 C-111.08869608 345.06499143 -116.04742716 353.03081479 -121 361 C-124.16115776 359.63016497 -124.9927092 359.0109362 -127 356 C-127.26069641 353.78814697 -127.26069641 353.78814697 -127.2746582 351.18066406 C-127.28419022 350.2024469 -127.29372223 349.22422974 -127.30354309 348.21636963 C-127.30263168 347.1601239 -127.30172028 346.10387817 -127.30078125 345.015625 C-127.30506638 343.92666931 -127.3093515 342.83771362 -127.31376648 341.71575928 C-127.31951372 339.40914607 -127.32000716 337.10251473 -127.31567383 334.79589844 C-127.31252477 331.27767669 -127.33593101 327.76030457 -127.36132812 324.2421875 C-127.36360225 322.00000106 -127.36430409 319.75781236 -127.36328125 317.515625 C-127.372491 316.4674762 -127.38170074 315.41932739 -127.39118958 314.3394165 C-127.35397697 308.41993421 -126.7813044 304.24774415 -124 299 C-123.67 298.34 -123.34 297.68 -123 297 C-123.56082275 296.76949951 -124.12164551 296.53899902 -124.69946289 296.30151367 C-127.61024936 294.65475545 -129.5123673 292.60711932 -131.80859375 290.17578125 C-132.72060547 289.23025391 -133.63261719 288.28472656 -134.57226562 287.31054688 C-136.01184816 285.8088985 -137.44624047 284.30319361 -138.87036133 282.78686523 C-140.25262844 281.32003255 -141.65536914 279.87257812 -143.05859375 278.42578125 C-143.88673584 277.55348877 -144.71487793 276.68119629 -145.56811523 275.7824707 C-147.83431357 273.74251451 -147.83431357 273.74251451 -150.50439453 274.05322266 C-153.16178028 275.06137585 -155.44430675 276.24203085 -157.87109375 277.72265625 C-158.77537109 278.26083984 -159.67964844 278.79902344 -160.61132812 279.35351562 C-162.49431761 280.4921582 -164.37454044 281.63538871 -166.25195312 282.78320312 C-167.15751953 283.32009766 -168.06308594 283.85699219 -168.99609375 284.41015625 C-169.81263428 284.90652588 -170.6291748 285.40289551 -171.47045898 285.91430664 C-175.37081662 287.58836227 -178.47775909 287.59042828 -182.4309082 286.05712891 C-183.21296631 285.61804199 -183.99502441 285.17895508 -184.80078125 284.7265625 C-185.68757568 284.23615479 -186.57437012 283.74574707 -187.48803711 283.24047852 C-188.42010986 282.70737061 -189.35218262 282.1742627 -190.3125 281.625 C-191.28002197 281.08351318 -192.24754395 280.54202637 -193.24438477 279.98413086 C-196.17206078 278.33826181 -199.0876099 276.67274454 -202 275 C-202.84852539 274.51515137 -203.69705078 274.03030273 -204.57128906 273.53076172 C-206.86496367 272.21629899 -209.1531461 270.89308657 -211.4375 269.5625 C-212.10370361 269.17465332 -212.76990723 268.78680664 -213.45629883 268.38720703 C-216.64475927 266.50006775 -219.77818355 264.54043717 -222.84765625 262.46484375 C-223.40590088 262.08835693 -223.96414551 261.71187012 -224.53930664 261.32397461 C-226.971017 259.11986876 -227.90532181 256.86563631 -228.26069641 253.61647034 C-228.2653038 252.73442429 -228.26991119 251.85237823 -228.2746582 250.94360352 C-228.28419022 249.93898575 -228.29372223 248.93436798 -228.30354309 247.89930725 C-228.30263168 246.82007492 -228.30172028 245.74084259 -228.30078125 244.62890625 C-228.30506638 243.51442612 -228.3093515 242.39994598 -228.31376648 241.25169373 C-228.31950753 238.89558593 -228.32001171 236.53946041 -228.31567383 234.18334961 C-228.312515 230.57960759 -228.33597291 226.97668733 -228.36132812 223.37304688 C-228.36360124 221.08333437 -228.36430456 218.79361966 -228.36328125 216.50390625 C-228.372491 215.42669815 -228.38170074 214.34949005 -228.39118958 213.23963928 C-228.33273725 203.78250623 -228.33273725 203.78250623 -225 200 C-218.60073113 194.48642486 -210.86336919 190.50156995 -203.5 186.4375 C-201.55134437 185.35419277 -199.6034214 184.26956652 -197.65625 183.18359375 C-196.71378418 182.66087891 -195.77131836 182.13816406 -194.80029297 181.59960938 C-191.22126318 179.55516272 -187.74494436 177.36018523 -184.28369141 175.12280273 C-180.44077047 173.23338715 -177.20181533 173.59337271 -173 174 C-170.52093875 164.20243348 -168.12734386 154.38914719 -165.83203125 144.546875 C-165.24046687 142.0250888 -164.63268776 139.51144286 -164 137 C-164.64549805 136.63237549 -165.29099609 136.26475098 -165.95605469 135.88598633 C-168.89347085 134.20523715 -171.82170252 132.50908235 -174.75 130.8125 C-175.76578125 130.23435547 -176.7815625 129.65621094 -177.828125 129.06054688 C-178.8078125 128.49013672 -179.7875 127.91972656 -180.796875 127.33203125 C-181.69760742 126.81358643 -182.59833984 126.2951416 -183.52636719 125.76098633 C-186.54324776 123.61326035 -188.16377933 122.26377988 -190 119 C-190.58917756 115.0305949 -190.56027353 111.10058595 -190.53125 107.09375 C-190.5350769 105.93629272 -190.53890381 104.77883545 -190.54284668 103.58630371 C-190.54556559 101.1419996 -190.53820598 98.69766639 -190.52148438 96.25341797 C-190.50007634 92.51333713 -190.52128875 88.77517739 -190.546875 85.03515625 C-190.54423172 82.65884993 -190.53910675 80.2825448 -190.53125 77.90625 C-190.53934692 76.7884314 -190.54744385 75.67061279 -190.55578613 74.5189209 C-190.46293929 66.82687151 -190.46293929 66.82687151 -188.2956543 62.95581055 C-185.86916456 60.88853316 -183.54300388 59.31794498 -180.73828125 57.80078125 C-179.70936768 57.23568848 -178.6804541 56.6705957 -177.62036133 56.08837891 C-176.52876709 55.50233887 -175.43717285 54.91629883 -174.3125 54.3125 C-172.05103762 53.07873775 -169.79062437 51.8430506 -167.53125 50.60546875 C-166.42136719 49.99880371 -165.31148437 49.39213867 -164.16796875 48.76708984 C-161.33439376 47.18652451 -158.55031218 45.55360838 -155.78125 43.86328125 C-154.63402466 43.16368286 -154.63402466 43.16368286 -153.46362305 42.44995117 C-152.07064354 41.59196686 -150.68361343 40.72421572 -149.30395508 39.8449707 C-145.26966808 37.37552348 -142.6930845 36.56804944 -138 37 C-135.2019043 38.21826172 -135.2019043 38.21826172 -132.32421875 39.9296875 C-131.25631104 40.55576904 -130.18840332 41.18185059 -129.08813477 41.8269043 C-127.96592529 42.50277588 -126.84371582 43.17864746 -125.6875 43.875 C-124.52400999 44.56466224 -123.35986117 45.25321422 -122.19506836 45.94067383 C-119.87541479 47.31167288 -117.55992199 48.68933836 -115.24707031 50.07177734 C-112.38574129 51.77093348 -109.50980179 53.436919 -106.6171875 55.08203125 C-105.83641846 55.52885254 -105.05564941 55.97567383 -104.2512207 56.43603516 C-102.83335579 57.24674074 -101.41277268 58.0527182 -99.98901367 58.85302734 C-96.58929529 60.82343338 -93.97172494 62.54402455 -92 66 C-92 66.66 -92 67.32 -92 68 C-87.72885797 66.89702521 -83.4581447 65.79239871 -79.1875 64.6875 C-77.99189453 64.37876953 -76.79628906 64.07003906 -75.56445312 63.75195312 C-68.36134753 61.88738901 -61.17223338 59.98009822 -54 58 C-53.99589111 57.1529248 -53.99178223 56.30584961 -53.98754883 55.43310547 C-53.96046092 52.26793746 -53.91126375 49.1040766 -53.84741211 45.93945312 C-53.82432106 44.57401335 -53.8098573 43.20839771 -53.80444336 41.84277344 C-53.75040815 30.4538145 -53.75040815 30.4538145 -51.19140625 25.49609375 C-46.87022682 21.523906 -41.26312697 18.92596271 -36.125 16.1875 C-33.86722697 14.96195863 -31.61071138 13.73409785 -29.35546875 12.50390625 C-28.26411621 11.90980957 -27.17276367 11.31571289 -26.04833984 10.70361328 C-23.41428365 9.23152902 -20.8489216 7.70447887 -18.30078125 6.08984375 C-17.63353027 5.66743408 -16.9662793 5.24502441 -16.27880859 4.80981445 C-14.57206269 3.71158615 -12.87727243 2.59483774 -11.18359375 1.4765625 C-7.19901475 -0.37149991 -4.24285764 -1.01073194 0 0 Z " fill="#062B76" transform="translate(360,95)"/>
<path d="M0 0 C0.4316748 0.76183594 0.86334961 1.52367187 1.30810547 2.30859375 C3.33159197 5.52748483 5.14835303 6.61181713 8.453125 8.453125 C10.08423218 9.37629517 10.08423218 9.37629517 11.74829102 10.31811523 C12.90385498 10.95563721 14.05941895 11.59315918 15.25 12.25 C17.03131899 13.24597246 18.81064356 14.24543144 20.58961487 15.24559021 C22.33398018 16.22620125 24.07982336 17.20418187 25.82568359 18.18212891 C28.5116023 19.72030386 31.13488036 21.30805469 33.73828125 22.98046875 C34.73263184 23.6151709 34.73263184 23.6151709 35.74707031 24.26269531 C37.42456049 25.34823629 39.08982791 26.45260288 40.75390625 27.55859375 C45.06256594 29.47182531 48.36319271 29.88851518 53 29 C56.64587888 27.51594597 59.94831807 25.59612908 63.3125 23.5625 C65.05637189 22.53917298 66.80238744 21.51948808 68.55078125 20.50390625 C69.31044189 20.04830322 70.07010254 19.5927002 70.8527832 19.12329102 C72.99568672 18.00225644 74.60787534 17.32918902 77 17 C79.31101706 18.86370482 81.25754874 20.67692954 83.296875 22.80859375 C83.89050842 23.40930191 84.48414185 24.01001007 85.09576416 24.62892151 C86.99253452 26.5537215 88.87121235 28.49515877 90.75 30.4375 C92.03139897 31.74397052 93.31393761 33.04932431 94.59765625 34.35351562 C97.74515048 37.55619306 100.87652311 40.7739018 104 44 C103.51398819 45.07138466 103.51398819 45.07138466 103.01815796 46.16441345 C101.9616529 49.1067973 101.73529911 51.25821838 101.70947266 54.36938477 C101.69671295 55.4171962 101.68395325 56.46500763 101.67080688 57.54457092 C101.66858124 58.66552658 101.66635559 59.78648224 101.6640625 60.94140625 C101.6574057 62.1012352 101.6507489 63.26106415 101.64389038 64.45603943 C101.63377769 66.90451473 101.62907293 69.35301751 101.62939453 71.80151367 C101.62501183 75.55237893 101.5886493 79.30207646 101.55078125 83.05273438 C101.54491483 85.43228764 101.54094427 87.8118465 101.5390625 90.19140625 C101.51750595 91.87587608 101.51750595 91.87587608 101.49551392 93.59437561 C101.5047438 95.16136452 101.5047438 95.16136452 101.51416016 96.76000977 C101.51131012 97.6775856 101.50846008 98.59516144 101.50552368 99.5405426 C102.33345522 103.65856052 105.11159144 105.40831218 108.47363281 107.64746094 C109.37436523 108.17114258 110.27509766 108.69482422 111.203125 109.234375 C112.1828125 109.80800781 113.1625 110.38164062 114.171875 110.97265625 C115.18765625 111.55917969 116.2034375 112.14570313 117.25 112.75 C118.796875 113.65298828 118.796875 113.65298828 120.375 114.57421875 C122.91351253 116.05501773 125.45520136 117.53003893 128 119 C127.75765625 119.95777344 127.5153125 120.91554688 127.265625 121.90234375 C126.92677921 123.24731925 126.58826431 124.59237814 126.25 125.9375 C125.98147217 127.0044812 125.98147217 127.0044812 125.70751953 128.09301758 C124.74385745 131.94556185 123.80597503 135.80204686 122.9140625 139.671875 C122.7397168 140.42734619 122.56537109 141.18281738 122.38574219 141.96118164 C122.05215223 143.41529581 121.72192362 144.87018634 121.39550781 146.32592773 C120.54368547 150.03724804 119.53109589 153.51099831 118 157 C116.741875 156.87882813 115.48375 156.75765625 114.1875 156.6328125 C107.80457436 156.64527915 103.32579939 159.63455794 98 162.875 C96.50182739 163.7565979 96.50182739 163.7565979 94.97338867 164.65600586 C92.94420749 165.8521121 90.9196449 167.05609017 88.89990234 168.26806641 C86.23695187 169.8584832 83.55733549 171.41225683 80.86328125 172.94921875 C79.34612348 173.81991067 77.82918165 174.69097899 76.3125 175.5625 C75.28092773 176.1510376 75.28092773 176.1510376 74.22851562 176.75146484 C70.03589074 179.20353447 66.21923304 181.56153391 64 186 C63.84504237 188.24974161 63.74989072 190.50371536 63.68359375 192.7578125 C63.6524221 193.75238968 63.6524221 193.75238968 63.62062073 194.76705933 C63.55520769 196.88626694 63.49627895 199.005599 63.4375 201.125 C63.39430691 202.56121081 63.35069236 203.99740902 63.30664062 205.43359375 C63.19953501 208.95559594 63.09824425 212.47773825 63 216 C59.535 216.99 59.535 216.99 56 218 C55.92208005 210.5237363 55.89272447 203.04892927 55.92484188 195.57227802 C55.93824262 192.10005502 55.93510948 188.62950801 55.89379883 185.1574707 C55.84699914 181.1625309 55.87281948 177.17089134 55.90234375 173.17578125 C55.87776596 171.93290848 55.85318817 170.69003571 55.8278656 169.40950012 C55.88405985 166.03677735 56.00045441 163.22319704 57 160 C59.17771657 157.99062934 61.0863251 156.96362668 63.83180237 155.87467957 C67.68299596 154.3210572 69.33775689 151.37359131 71.07666016 147.7668457 C72.75444387 142.73926168 72.37186209 137.50070643 72.37060547 132.24487305 C72.37496602 130.20340714 72.41128866 128.1641292 72.44921875 126.12304688 C72.47147101 118.61290802 72.2039309 113.3174668 68 107 C63.21071902 102.3335211 58.58427517 100.78580738 51.98242188 100.58935547 C50.78927368 100.54946503 49.59612549 100.50957458 48.36682129 100.46847534 C47.08045776 100.43505035 45.79409424 100.40162537 44.46875 100.3671875 C43.11370697 100.32591743 41.75868587 100.28392175 40.40368652 100.24124146 C37.55587803 100.15342017 34.70798448 100.07163371 31.85986328 99.99462891 C28.27497228 99.89762892 24.69050391 99.79012257 21.10603333 99.67876816 C13.62240416 99.44649623 6.13873694 99.25428563 -1.34667969 99.08972168 C-4.69861073 99.0074018 -8.04778234 98.89292742 -11.3984375 98.77050781 C-13.2551724 98.72317812 -15.11194163 98.67716625 -16.96875 98.6328125 C-17.77002319 98.59421112 -18.57129639 98.55560974 -19.39685059 98.51583862 C-25.5244342 98.42180731 -30.09242395 100.33554624 -35 104 C-40.84494463 110.64393474 -40.8087203 118.38725314 -40.70678711 126.85644531 C-40.68752013 128.99776286 -40.72706769 131.13260234 -40.77148438 133.2734375 C-40.81900378 140.55734792 -40.42219459 146.42692971 -35.77661133 152.29296875 C-33.07207305 154.89158517 -30.40418334 156.43407566 -27 158 C-26.92464196 165.55255021 -26.92464196 165.55255021 -26.97802734 168.96728516 C-27.04589077 173.31293992 -26.98868886 177.49673909 -26.44921875 181.8125 C-26.02136192 186.52291448 -25.70015013 190.7284215 -28 195 C-33.80279732 200.62687482 -42.17299663 205.83235468 -50 208 C-53.97267243 206.90405665 -56.61052043 203.644944 -59.421875 200.7734375 C-60.17914886 200.01191879 -60.17914886 200.01191879 -60.95172119 199.23501587 C-62.55592096 197.61966158 -64.15300856 195.99747791 -65.75 194.375 C-66.83938107 193.27558302 -67.9292199 192.17661941 -69.01953125 191.078125 C-71.68501885 188.3906398 -74.34415143 185.69700979 -77 183 C-76.78846786 182.48241623 -76.57693573 181.96483246 -76.35899353 181.43156433 C-73.97453717 175.06868415 -73.54670714 169.36750859 -73.56640625 162.61328125 C-73.5611644 161.55263962 -73.55592255 160.49199799 -73.55052185 159.3992157 C-73.54413357 157.17134472 -73.54539693 154.94343987 -73.55395508 152.71557617 C-73.56250193 149.31172946 -73.53359818 145.90954234 -73.50195312 142.50585938 C-73.50034176 140.33333383 -73.5009174 138.16080533 -73.50390625 135.98828125 C-73.49267227 134.97566727 -73.48143829 133.96305328 -73.46986389 132.91975403 C-73.52696542 127.12791842 -73.94001298 123.47342413 -78 119 C-80.42506491 117.08140253 -80.42506491 117.08140253 -83.16796875 115.60546875 C-84.14314453 115.04279297 -85.11832031 114.48011719 -86.12304688 113.90039062 C-87.13431641 113.33513672 -88.14558594 112.76988281 -89.1875 112.1875 C-91.20230592 111.03600096 -93.21665461 109.8837014 -95.23046875 108.73046875 C-96.12145264 108.22926514 -97.01243652 107.72806152 -97.93041992 107.21166992 C-100 106 -100 106 -101 105 C-100.34756403 92.38623793 -95.79519043 79.97099959 -92 68 C-91.4006665 67.92523438 -90.80133301 67.85046875 -90.18383789 67.7734375 C-82.91316015 66.62554681 -77.62369219 63.88350158 -71.4375 60 C-69.51337225 58.82364375 -67.58888862 57.64786944 -65.6640625 56.47265625 C-64.71563477 55.88758301 -63.76720703 55.30250977 -62.79003906 54.69970703 C-60.18131739 53.11045954 -57.55126811 51.57278314 -54.8984375 50.05859375 C-54.12056885 49.61322266 -53.3427002 49.16785156 -52.54125977 48.70898438 C-51.09419454 47.88344865 -49.64430491 47.06283704 -48.19116211 46.24804688 C-44.64645424 44.20249474 -42.06435254 42.55291523 -40 39 C-39.49622716 35.81055812 -39.49622716 35.81055812 -39.48828125 32.265625 C-39.45283203 30.97011719 -39.41738281 29.67460937 -39.38085938 28.33984375 C-39.35776133 26.97656774 -39.33497886 25.61328636 -39.3125 24.25 C-39.27931352 22.87106138 -39.24482262 21.4921535 -39.20898438 20.11328125 C-39.12647709 16.74226941 -39.05733229 13.37151872 -39 10 C-33.93552302 8.0345139 -28.95589203 6.35812469 -23.6875 5 C-18.22248106 3.58552451 -12.78503404 2.1021595 -7.3671875 0.515625 C-4.69822017 -0.06573422 -2.71175443 -0.44454991 0 0 Z " fill="#FDFDFE" transform="translate(307,175)"/>
<path d="M0 0 C14.69863461 -0.13651983 29.32061786 0.24214641 44 1 C43.95003624 2.12822174 43.95003624 2.12822174 43.89906311 3.27923584 C43.59338428 10.51033489 43.36768001 17.73813941 43.22281742 24.97410202 C43.14581658 28.6911906 43.0422681 32.40278023 42.8684082 36.11669922 C41.87223793 57.98856386 45.09767313 72.4601883 57.08493042 90.99975586 C60.09615317 95.71728859 62.78033293 100.61090414 65.5 105.5 C66.56083484 107.36553121 67.6231459 109.23022441 68.6875 111.09375 C72.73551061 118.25561492 76.58781992 125.52159878 80.44894409 132.78515625 C84.86775377 141.09298062 89.400166 149.32608447 94.0625 157.5 C108.4393421 182.73269305 108.4393421 182.73269305 107 193 C103.73292642 201.80803036 99.3559941 207.74603937 91 212 C87.36958738 213.21013754 84.04864427 213.14168932 80.26977539 213.13061523 C79.089712 213.13241004 79.089712 213.13241004 77.88580894 213.1342411 C75.26888399 213.13582099 72.65206876 213.12900822 70.03515625 213.12109375 C69.12866899 213.1197537 68.22218174 213.11841366 67.28822517 213.117033 C46.91140871 213.08335539 26.54751283 212.650126 6.17816162 212.13116455 C2.46770864 212.03820284 -1.24287757 211.95132595 -4.95347691 211.86443424 C-8.60076325 211.77844894 -12.24796794 211.68933358 -15.89515495 211.59924126 C-17.59842956 211.55739964 -19.30172324 211.51632533 -21.00503731 211.4761219 C-29.29571224 211.27833468 -37.58183777 211.02729729 -45.86303711 210.57592773 C-47.12675644 210.50824692 -48.39047577 210.4405661 -49.69248962 210.37083435 C-56.80596081 209.57327995 -61.38240063 206.38719927 -66 201 C-70.4470641 195.15528718 -72.6811473 188.99019761 -72.42333984 181.62133789 C-70.94130417 172.44451148 -64.05366714 163.58402532 -59.125 155.875 C-57.79598913 153.77269518 -56.46789616 151.66980986 -55.140625 149.56640625 C-54.45935547 148.48891113 -53.77808594 147.41141602 -53.07617188 146.30126953 C-49.63524732 140.82994053 -46.25543849 135.32133248 -42.875 129.8125 C-41.52879774 127.62100043 -40.1824456 125.42959292 -38.8359375 123.23828125 C-37.86479004 121.65781006 -37.86479004 121.65781006 -36.87402344 120.04541016 C-34.09202247 115.52447738 -31.29675826 111.01181313 -28.5 106.5 C-23.82799894 98.95859257 -19.16238838 91.41325892 -14.5078125 83.86108398 C-13.46560695 82.17059044 -12.42227216 80.48079325 -11.37890625 78.79101562 C-10.73695313 77.74880859 -10.095 76.70660156 -9.43359375 75.6328125 C-8.86697021 74.71387207 -8.30034668 73.79493164 -7.71655273 72.84814453 C-7.15009033 71.90825684 -6.58362793 70.96836914 -6 70 C-5.28626221 69.02716064 -4.57252441 68.05432129 -3.8371582 67.05200195 C-0.67633845 61.44323203 -1.27782987 54.79692531 -1.171875 48.53515625 C-1.13440671 47.13264015 -1.09525657 45.73016806 -1.05450439 44.32774353 C-0.95231973 40.65707482 -0.87282832 36.98626027 -0.79821777 33.31494141 C-0.71784711 29.56051249 -0.61579639 25.80667793 -0.515625 22.05273438 C-0.3226511 14.7022323 -0.1536723 7.35143997 0 0 Z " fill="#FDFDFE" transform="translate(300,334)"/>
<path d="M0 0 C0.70125 0.38671875 1.4025 0.7734375 2.125 1.171875 C3.07375 1.69265625 4.0225 2.2134375 5 2.75 C5.928125 3.26046875 6.85625 3.7709375 7.8125 4.296875 C11.50685962 6.27082205 15.24531231 8.1440979 19 10 C18.52820313 11.68802734 18.52820313 11.68802734 18.046875 13.41015625 C16.91842398 17.4533666 15.79795077 21.49874827 14.68017578 25.54492188 C14.05049964 27.81772275 13.41423346 30.08858799 12.77734375 32.359375 C12.41363014 33.67696406 12.05032607 34.99466626 11.6875 36.3125 C11.36136719 37.48425781 11.03523438 38.65601563 10.69921875 39.86328125 C10.03356614 42.84942116 9.59433038 44.97739253 10 48 C11.96879515 49.81226543 11.96879515 49.81226543 14.671875 51.15625 C16.13367188 51.97802734 16.13367188 51.97802734 17.625 52.81640625 C18.65625 53.37199219 19.6875 53.92757812 20.75 54.5 C22.77075276 55.60525944 24.78658422 56.71957424 26.796875 57.84375 C27.69760742 58.33037109 28.59833984 58.81699219 29.52636719 59.31835938 C32.90264747 61.61364348 35.17615623 64.35231247 37 68 C37.10496166 69.52476078 37.14869336 71.05395682 37.16113281 72.58227539 C37.17074036 73.53409195 37.1803479 74.48590851 37.19024658 75.46656799 C37.19449646 76.49982712 37.19874634 77.53308624 37.203125 78.59765625 C37.20882507 79.66108749 37.21452515 80.72451874 37.22039795 81.82017517 C37.22986006 84.07729088 37.23638672 86.33442047 37.24023438 88.59155273 C37.24989218 92.0241767 37.28088471 95.45618976 37.3125 98.88867188 C37.31903485 101.08332978 37.32428343 103.27799197 37.328125 105.47265625 C37.3404718 106.49174576 37.3528186 107.51083527 37.36553955 108.56080627 C37.36253845 109.53468796 37.35953735 110.50856964 37.35644531 111.51196289 C37.36191376 112.77865562 37.36191376 112.77865562 37.36749268 114.07093811 C37 117 37 117 34 126 C41.92 133.92 49.84 141.84 58 150 C61.40702541 148.63718983 64.08026089 147.4714703 67.13671875 145.6171875 C68.24950195 144.95009766 68.24950195 144.95009766 69.38476562 144.26953125 C70.93195781 143.33255481 72.47882809 142.39504662 74.02539062 141.45703125 C74.76337891 141.01488281 75.50136719 140.57273437 76.26171875 140.1171875 C76.93162842 139.71097168 77.60153809 139.30475586 78.29174805 138.88623047 C80 138 80 138 82 138 C82.89118543 154.35237035 80.42405037 164.38353936 70.76757812 177.50878906 C67.60398254 181.96753621 64.86300622 186.68320212 62.0625 191.375 C60.89628942 193.30184646 59.72831568 195.22762688 58.55859375 197.15234375 C57.97706543 198.10995605 57.39553711 199.06756836 56.79638672 200.05419922 C51.91130392 208.06499143 46.95257284 216.03081479 42 224 C38.83884224 222.63016497 38.0072908 222.0109362 36 219 C35.73930359 216.78814697 35.73930359 216.78814697 35.7253418 214.18066406 C35.71580978 213.2024469 35.70627777 212.22422974 35.69645691 211.21636963 C35.69736832 210.1601239 35.69827972 209.10387817 35.69921875 208.015625 C35.69493362 206.92666931 35.6906485 205.83771362 35.68623352 204.71575928 C35.68048628 202.40914607 35.67999284 200.10251473 35.68432617 197.79589844 C35.68747523 194.27767669 35.66406899 190.76030457 35.63867188 187.2421875 C35.63639775 185.00000106 35.63569591 182.75781236 35.63671875 180.515625 C35.627509 179.4674762 35.61829926 178.41932739 35.60881042 177.3394165 C35.64602303 171.41993421 36.2186956 167.24774415 39 162 C39.33 161.34 39.66 160.68 40 160 C39.15876587 159.65424927 39.15876587 159.65424927 38.30053711 159.30151367 C35.38975064 157.65475545 33.4876327 155.60711932 31.19140625 153.17578125 C30.27939453 152.23025391 29.36738281 151.28472656 28.42773438 150.31054688 C26.98815184 148.8088985 25.55375953 147.30319361 24.12963867 145.78686523 C22.74737156 144.32003255 21.34463086 142.87257812 19.94140625 141.42578125 C19.11326416 140.55348877 18.28512207 139.68119629 17.43188477 138.7824707 C15.16568643 136.74251451 15.16568643 136.74251451 12.49560547 137.05322266 C9.83821972 138.06137585 7.55569325 139.24203085 5.12890625 140.72265625 C4.22462891 141.26083984 3.32035156 141.79902344 2.38867188 142.35351562 C0.50568239 143.4921582 -1.37454044 144.63538871 -3.25195312 145.78320312 C-4.15751953 146.32009766 -5.06308594 146.85699219 -5.99609375 147.41015625 C-6.81263428 147.90652588 -7.6291748 148.40289551 -8.47045898 148.91430664 C-12.37081662 150.58836227 -15.47775909 150.59042828 -19.4309082 149.05712891 C-20.21296631 148.61804199 -20.99502441 148.17895508 -21.80078125 147.7265625 C-22.68757568 147.23615479 -23.57437012 146.74574707 -24.48803711 146.24047852 C-25.88614624 145.44081665 -25.88614624 145.44081665 -27.3125 144.625 C-28.28002197 144.08351318 -29.24754395 143.54202637 -30.24438477 142.98413086 C-33.17206078 141.33826181 -36.0876099 139.67274454 -39 138 C-39.84852539 137.51515137 -40.69705078 137.03030273 -41.57128906 136.53076172 C-43.86496367 135.21629899 -46.1531461 133.89308657 -48.4375 132.5625 C-49.43680542 131.98072998 -49.43680542 131.98072998 -50.45629883 131.38720703 C-53.64475927 129.50006775 -56.77818355 127.54043717 -59.84765625 125.46484375 C-60.40590088 125.08835693 -60.96414551 124.71187012 -61.53930664 124.32397461 C-63.971017 122.11986876 -64.90532181 119.86563631 -65.26069641 116.61647034 C-65.2653038 115.73442429 -65.26991119 114.85237823 -65.2746582 113.94360352 C-65.28419022 112.93898575 -65.29372223 111.93436798 -65.30354309 110.89930725 C-65.30263168 109.82007492 -65.30172028 108.74084259 -65.30078125 107.62890625 C-65.30506638 106.51442612 -65.3093515 105.39994598 -65.31376648 104.25169373 C-65.31950753 101.89558593 -65.32001171 99.53946041 -65.31567383 97.18334961 C-65.312515 93.57960759 -65.33597291 89.97668733 -65.36132812 86.37304688 C-65.36360124 84.08333437 -65.36430456 81.79361966 -65.36328125 79.50390625 C-65.372491 78.42669815 -65.38170074 77.34949005 -65.39118958 76.23963928 C-65.33273725 66.78250623 -65.33273725 66.78250623 -62 63 C-55.60073113 57.48642486 -47.86336919 53.50156995 -40.5 49.4375 C-38.55134437 48.35419277 -36.6034214 47.26956652 -34.65625 46.18359375 C-33.71378418 45.66087891 -32.77131836 45.13816406 -31.80029297 44.59960938 C-28.22126318 42.55516272 -24.74494436 40.36018523 -21.28369141 38.12280273 C-17.44077047 36.23338715 -14.20181533 36.59337271 -10 37 C-9.41497743 34.68791611 -8.83170815 32.37541868 -8.25 30.0625 C-8.07098145 29.3519043 -7.89196289 28.64130859 -7.70751953 27.90917969 C-6.74017006 24.0448509 -5.80184327 20.1764032 -4.9140625 16.29296875 C-4.7397168 15.53298584 -4.56537109 14.77300293 -4.38574219 13.98999023 C-4.05126391 12.52305038 -3.7210215 11.05513674 -3.39550781 9.58618164 C-2.61063814 6.15011437 -1.7814292 3.05838287 0 0 Z " fill="#6966F6" transform="translate(197,232)"/>
<path d="M0 0 C0.495 0.99 0.495 0.99 1 2 C2.84406794 2.29977459 4.7025079 2.51177069 6.5625 2.6875 C15.09334284 3.85636686 22.35365682 7.20220344 30 11 C30.89074219 11.433125 31.78148437 11.86625 32.69921875 12.3125 C35.75536634 14.55402082 37.41882433 17.35557908 39.3125 20.5625 C45.51650217 30.61422638 52.96899959 39.35235971 61 48 C61.82564453 48.90685547 61.82564453 48.90685547 62.66796875 49.83203125 C81.58199969 69.77349103 108.13573361 82.12020558 134 90 C130.3865754 97.36895016 127.28340249 101.292086 120 105 C116.36958738 106.21013754 113.04864427 106.14168932 109.26977539 106.13061523 C108.089712 106.13241004 108.089712 106.13241004 106.88580894 106.1342411 C104.26888399 106.13582099 101.65206876 106.12900822 99.03515625 106.12109375 C98.12866899 106.1197537 97.22218174 106.11841366 96.28822517 106.117033 C75.91140871 106.08335539 55.54751283 105.650126 35.17816162 105.13116455 C31.46770864 105.03820284 27.75712243 104.95132595 24.04652309 104.86443424 C20.39923675 104.77844894 16.75203206 104.68933358 13.10484505 104.59924126 C11.40157044 104.55739964 9.69827676 104.51632533 7.99496269 104.4761219 C-0.29571224 104.27833468 -8.58183777 104.02729729 -16.86303711 103.57592773 C-18.12675644 103.50824692 -19.39047577 103.4405661 -20.69248962 103.37083435 C-27.80596081 102.57327995 -32.38240063 99.38719927 -37 94 C-41.4470641 88.15528718 -43.6811473 81.99019761 -43.42333984 74.62133789 C-41.94131197 65.44455973 -35.05363676 56.58394409 -30.125 48.875 C-28.80511003 46.78701407 -27.48613309 44.69845076 -26.16796875 42.609375 C-25.48782715 41.53365234 -24.80768555 40.45792969 -24.10693359 39.34960938 C-20.51080405 33.63247179 -16.97391136 27.87920284 -13.4375 22.125 C-12.78346191 21.06265137 -12.12942383 20.00030273 -11.45556641 18.90576172 C-7.59598776 12.62810985 -3.7763251 6.32808578 0 0 Z " fill="#92B1F3" transform="translate(271,441)"/>
<path d="M0 0 C2.7980957 1.21826172 2.7980957 1.21826172 5.67578125 2.9296875 C7.27764282 3.86880981 7.27764282 3.86880981 8.91186523 4.8269043 C10.03407471 5.50277588 11.15628418 6.17864746 12.3125 6.875 C13.47599001 7.56466224 14.64013883 8.25321422 15.80493164 8.94067383 C18.12458521 10.31167288 20.44007801 11.68933836 22.75292969 13.07177734 C25.61425871 14.77093348 28.49019821 16.436919 31.3828125 18.08203125 C32.16358154 18.52885254 32.94435059 18.97567383 33.7487793 19.43603516 C35.16664421 20.24674074 36.58722732 21.0527182 38.01098633 21.85302734 C41.48232003 23.86494013 43.91551288 25.56141729 46 29 C46.39440918 31.45272827 46.39440918 31.45272827 46.41992188 34.22412109 C46.44378967 35.78626846 46.44378967 35.78626846 46.46813965 37.37997437 C46.46834106 38.4998172 46.46854248 39.61966003 46.46875 40.7734375 C46.48017029 42.50818832 46.48017029 42.50818832 46.49182129 44.27798462 C46.50262528 46.7240381 46.5054742 49.17013773 46.50097656 51.61621094 C46.50000538 55.35430119 46.54160416 59.09033172 46.5859375 62.828125 C46.59114534 65.20572489 46.59383268 67.58333191 46.59375 69.9609375 C46.61014526 71.07673187 46.62654053 72.19252625 46.64343262 73.34213257 C46.56651222 82.00291976 46.56651222 82.00291976 43.80664062 85.54199219 C41.11627549 87.89816792 38.64521352 89.67739129 35.5 91.3671875 C34.45392578 91.93928955 33.40785156 92.5113916 32.33007812 93.10083008 C30.68168945 93.97904419 30.68168945 93.97904419 29 94.875 C26.73821086 96.10294412 24.47777873 97.33339122 22.21875 98.56640625 C21.13980469 99.15437988 20.06085938 99.74235352 18.94921875 100.34814453 C15.35617007 102.36060872 11.93905602 104.54845478 8.5 106.8125 C3.63991652 109.81279154 -0.21996699 111.92674373 -6 111 C-8.38745117 109.89697266 -8.38745117 109.89697266 -10.98046875 108.4140625 C-11.94726562 107.86830566 -12.9140625 107.32254883 -13.91015625 106.76025391 C-14.92980469 106.17937012 -15.94945312 105.59848633 -17 105 C-19.08591741 103.8517615 -21.17317935 102.7059624 -23.26171875 101.5625 C-25.40401907 100.37567347 -27.54594352 99.18816822 -29.6875 98 C-30.76322266 97.40960938 -31.83894531 96.81921875 -32.94726562 96.2109375 C-48.16829184 87.74756224 -48.16829184 87.74756224 -52 82 C-52.26742554 79.66079712 -52.26742554 79.66079712 -52.29052734 76.87353516 C-52.3096669 75.30643295 -52.3096669 75.30643295 -52.32919312 73.70767212 C-52.33141876 72.57953094 -52.33364441 71.45138977 -52.3359375 70.2890625 C-52.3425943 69.12877533 -52.3492511 67.96848816 -52.35610962 66.77304077 C-52.36624186 64.31680895 -52.37092646 61.86054957 -52.37060547 59.40429688 C-52.3749748 55.64667341 -52.41127999 51.89022776 -52.44921875 48.1328125 C-52.45508749 45.74739985 -52.4590565 43.36198162 -52.4609375 40.9765625 C-52.47530853 39.85246979 -52.48967957 38.72837708 -52.50448608 37.57022095 C-52.45913256 29.82337905 -52.45913256 29.82337905 -50.30004883 25.95141602 C-47.87088458 23.89045541 -45.54125182 22.31699723 -42.73828125 20.80078125 C-41.70936768 20.23568848 -40.6804541 19.6705957 -39.62036133 19.08837891 C-38.52876709 18.50233887 -37.43717285 17.91629883 -36.3125 17.3125 C-34.05103762 16.07873775 -31.79062437 14.8430506 -29.53125 13.60546875 C-28.42136719 12.99880371 -27.31148437 12.39213867 -26.16796875 11.76708984 C-23.33439376 10.18652451 -20.55031218 8.55360838 -17.78125 6.86328125 C-16.63402466 6.16368286 -16.63402466 6.16368286 -15.46362305 5.44995117 C-14.07064354 4.59196686 -12.68361343 3.72421572 -11.30395508 2.8449707 C-7.26966808 0.37552348 -4.6930845 -0.43195056 0 0 Z " fill="#062B75" transform="translate(222,132)"/>
<path d="M0 0 C3.82812791 1.72986853 7.38765334 3.8628371 11 6 C13.0838921 7.15191007 15.17121387 8.29763489 17.26171875 9.4375 C19.40401907 10.62432653 21.54594352 11.81183178 23.6875 13 C24.76322266 13.59039062 25.83894531 14.18078125 26.94726562 14.7890625 C42.16829184 23.25243776 42.16829184 23.25243776 46 29 C46.27415466 31.33920288 46.27415466 31.33920288 46.30639648 34.12646484 C46.32238388 35.17119965 46.33837128 36.21593445 46.35484314 37.29232788 C46.36020584 38.42046906 46.36556854 39.54861023 46.37109375 40.7109375 C46.38012222 41.87122467 46.3891507 43.03151184 46.39845276 44.22695923 C46.41297007 46.68318088 46.42184565 49.13944134 46.42553711 51.59570312 C46.43743203 55.35352757 46.48660564 59.10970981 46.53710938 62.8671875 C46.54657345 65.25259614 46.55380856 67.63801488 46.55859375 70.0234375 C46.57812607 71.14753021 46.59765839 72.27162292 46.61778259 73.42977905 C46.57282995 81.20356875 46.57282995 81.20356875 43.8203125 85.03051758 C41.03036244 86.97879728 38.27853019 88.81156571 35.31640625 90.48828125 C33.68699097 91.41918579 33.68699097 91.41918579 32.0246582 92.36889648 C30.882146 93.01028564 29.73963379 93.6516748 28.5625 94.3125 C27.38273168 94.97997609 26.20328929 95.64802857 25.02416992 96.31665039 C22.71876266 97.62359682 20.41169394 98.92742594 18.10351562 100.22949219 C15.51880589 101.70402924 12.96272067 103.20952146 10.421875 104.7578125 C9.79337646 105.13639404 9.16487793 105.51497559 8.51733398 105.9050293 C6.95039882 106.8539866 5.3908378 107.81509226 3.83203125 108.77734375 C0.05693144 110.40714546 -1.88502912 110.59966912 -6 110 C-14.45223287 106.53227937 -22.32827752 101.62366589 -30.1875 97 C-31.20263672 96.40960938 -32.21777344 95.81921875 -33.26367188 95.2109375 C-50.41495983 85.17008033 -50.41495983 85.17008033 -52 82 C-52.11568576 80.33708882 -52.16954651 78.66969684 -52.19287109 77.00292969 C-52.20893402 75.96134705 -52.22499695 74.9197644 -52.24154663 73.84661865 C-52.28597039 69.07597461 -52.32706834 64.3054705 -52.35009766 59.53466797 C-52.36665272 57.01862333 -52.3939364 54.50262563 -52.43212891 51.98681641 C-52.48690326 48.36075415 -52.50877458 44.73579531 -52.5234375 41.109375 C-52.54610687 39.98730652 -52.56877625 38.86523804 -52.59213257 37.70916748 C-52.56855853 28.98943906 -52.56855853 28.98943906 -49.80664062 25.45141602 C-47.13606575 23.11884448 -44.68780153 21.34446698 -41.5703125 19.66796875 C-40.53438965 19.10094238 -39.4984668 18.53391602 -38.43115234 17.94970703 C-37.34012207 17.36817871 -36.2490918 16.78665039 -35.125 16.1875 C-32.86856521 14.96189073 -30.61335205 13.73402962 -28.359375 12.50390625 C-26.72258789 11.61276123 -26.72258789 11.61276123 -25.05273438 10.70361328 C-19.92676321 7.84300653 -14.99899656 4.68580536 -10.0859375 1.4765625 C-6.17940723 -0.39263806 -4.30500872 -0.68347561 0 0 Z " fill="#062B75" transform="translate(460,195)"/>
<path d="M0 0 C1.155 0.4125 2.31 0.825 3.5 1.25 C7.99413331 2.74804444 12.53412713 3.96772631 17.125 5.125 C17.79337891 5.29547852 18.46175781 5.46595703 19.15039062 5.64160156 C36.94113001 10.04984881 53.30773561 7.30589709 71 4 C71.57105469 5.10472656 72.14210938 6.20945312 72.73046875 7.34765625 C77.56649971 16.6457669 82.55893283 25.83243234 87.75 34.9375 C101.11832768 58.42067274 101.11832768 58.42067274 101.1875 66.5 C101.20167969 67.2528125 101.21585937 68.005625 101.23046875 68.78125 C100.97331907 71.25686048 100.15507281 72.8186091 99 75 C92.20286145 73.86966532 86.12104864 72.13311902 79.8125 69.375 C78.99370361 69.02163574 78.17490723 68.66827148 77.33129883 68.30419922 C64.19322602 62.54311917 52.38991051 55.72485213 41 47 C39.56527344 45.90365234 39.56527344 45.90365234 38.1015625 44.78515625 C27.8412019 36.65624592 19.03729835 27.6635927 11.0625 17.3125 C10.53092285 16.62414062 9.9993457 15.93578125 9.45166016 15.2265625 C5.81616589 10.38998476 2.81224128 5.3539398 0 0 Z " fill="#D0DAFC" transform="translate(306,456)"/>
<path d="M0 0 C2.00761457 0.97522546 3.97991824 2.02482507 5.921875 3.125 C7.02917969 3.74890625 8.13648438 4.3728125 9.27734375 5.015625 C10.42332031 5.67046875 11.56929687 6.3253125 12.75 7 C13.92284227 7.66205181 15.09601629 8.32351628 16.26953125 8.984375 C24.83069407 13.83069407 24.83069407 13.83069407 26 15 C26.08847743 17.52094076 26.11527301 20.01430893 26.09765625 22.53515625 C26.0962413 23.28840683 26.09482635 24.04165741 26.09336853 24.81773376 C26.08775376 27.2326956 26.07519883 29.64756601 26.0625 32.0625 C26.0574869 33.69596221 26.05292366 35.32942586 26.04882812 36.96289062 C26.03777954 40.97529585 26.02050506 44.98763241 26 49 C25.50709473 49.27150879 25.01418945 49.54301758 24.50634766 49.82275391 C23.03917591 50.63183835 21.57259175 51.44198877 20.10644531 52.25292969 C18.44815815 53.16984958 16.78864418 54.08455414 15.12792969 54.99707031 C9.96501317 57.84999346 4.96928971 60.83642576 0.140625 64.234375 C-3.16110845 65.41528696 -4.8267867 64.40609452 -8 63 C-10.87009281 61.46661376 -13.65566066 59.81230485 -16.4375 58.125 C-17.89429862 57.25221576 -19.35132739 56.37981555 -20.80859375 55.5078125 C-21.76463501 54.92990967 -21.76463501 54.92990967 -22.73999023 54.34033203 C-25.80543161 52.52232694 -28.90268495 50.76315529 -32 49 C-34.36545202 19.40394961 -34.36545202 19.40394961 -30.72119141 12.61914062 C-27.41699039 9.32379806 -23.4336831 7.94620625 -19.01855469 6.67138672 C-15.77259943 5.59175719 -13.22642467 3.75580256 -10.375 1.875 C-6.29297083 -0.69770746 -4.6296789 -1.30786134 0 0 Z " fill="#FA8D02" transform="translate(222,156)"/>
<path d="M0 0 C4.92239728 1.31624543 9.45436305 4.38521597 13.875 6.875 C15.04095703 7.52662109 15.04095703 7.52662109 16.23046875 8.19140625 C20.83520732 10.76851204 25.41968171 13.37979974 30 16 C33.26452268 40.84803995 33.26452268 40.84803995 30 50 C24.64085578 56.85743618 16.54935945 60.118328 8.54370117 63.02734375 C5.8163661 63.96285426 5.8163661 63.96285426 3 66 C-1.01191536 65.66602118 -3.95719207 64.11149635 -7.4140625 62.12890625 C-8.42210937 61.55462891 -9.43015625 60.98035156 -10.46875 60.38867188 C-11.5103125 59.78603516 -12.551875 59.18339844 -13.625 58.5625 C-14.67429687 57.96373047 -15.72359375 57.36496094 -16.8046875 56.74804688 C-24.39769345 52.4015377 -24.39769345 52.4015377 -28 50 C-28.26697888 47.37537756 -28.34832984 44.98934067 -28.29296875 42.3671875 C-28.28872391 41.61535187 -28.28447906 40.86351624 -28.28010559 40.08889771 C-28.2632917 37.68390315 -28.22563624 35.27974191 -28.1875 32.875 C-28.17245659 31.24610584 -28.15876758 29.61719856 -28.14648438 27.98828125 C-28.11337954 23.99186566 -28.06158009 19.99607418 -28 16 C-26.88757935 15.37955811 -26.88757935 15.37955811 -25.75268555 14.74658203 C-22.99578642 13.20817918 -20.23950783 11.668672 -17.48364258 10.12841797 C-16.29183222 9.46261118 -15.0997771 8.79724231 -13.9074707 8.13232422 C-12.19157316 7.17531258 -10.47663386 6.21658348 -8.76171875 5.2578125 C-7.73006592 4.6817627 -6.69841309 4.10571289 -5.63549805 3.51220703 C-3.7156323 2.41061848 -1.84170566 1.22780377 0 0 Z " fill="#D0DAFB" transform="translate(355,117)"/>
<path d="M0 0 C1.45792969 0.66104736 1.45792969 0.66104736 2.9453125 1.33544922 C3.89712402 1.65642578 4.84893555 1.97740234 5.82958984 2.30810547 C13.73663085 5.2276283 21.70993866 8.49302159 26.9453125 15.33544922 C30.60769514 25.75204494 28.35098487 38.63611988 26.9453125 49.33544922 C23.31941439 51.45970121 19.68979975 53.57741116 16.05664062 55.68920898 C14.82188078 56.40813592 13.58814391 57.12882285 12.35546875 57.85131836 C10.58080472 58.89107112 8.80252664 59.92438469 7.0234375 60.95654297 C5.95512695 61.57972412 4.88681641 62.20290527 3.78613281 62.8449707 C-0.7178975 65.20807702 -0.7178975 65.20807702 -3.0546875 65.33544922 C-5.75610352 64.19555664 -5.75610352 64.19555664 -8.80859375 62.44091797 C-9.91009766 61.81507813 -11.01160156 61.18923828 -12.14648438 60.54443359 C-13.30348856 59.87078259 -14.46038854 59.19695259 -15.6171875 58.52294922 C-16.77736472 57.85973643 -17.93816617 57.19761434 -19.09960938 56.53662109 C-27.25164984 51.87080766 -27.25164984 51.87080766 -31.0546875 49.33544922 C-31.32166638 46.71082678 -31.40301734 44.32478989 -31.34765625 41.70263672 C-31.34341141 40.95080109 -31.33916656 40.19896545 -31.33479309 39.42434692 C-31.3179792 37.01935237 -31.28032374 34.61519113 -31.2421875 32.21044922 C-31.22714409 30.58155506 -31.21345508 28.95264778 -31.20117188 27.32373047 C-31.16806704 23.32731488 -31.11626759 19.3315234 -31.0546875 15.33544922 C-27.1920925 12.99381292 -23.31473198 10.67979486 -19.42138672 8.38964844 C-18.09995104 7.60728335 -16.78281005 6.81761584 -15.47021484 6.02050781 C-13.5795846 4.87410749 -11.6749265 3.7550905 -9.765625 2.64013672 C-8.89337784 2.09968216 -8.89337784 2.09968216 -8.00350952 1.54830933 C-4.96217435 -0.19182281 -3.46970836 -0.75483905 0 0 Z " fill="#FA7C9F" transform="translate(459.0546875,217.66455078125)"/>
<path d="M0 0 C0.87881836 0.4031543 1.75763672 0.80630859 2.66308594 1.22167969 C3.57743408 1.54265625 4.49178223 1.86363281 5.43383789 2.19433594 C13.41286863 5.12468503 21.25073015 8.45170199 26.66308594 15.22167969 C28.96457109 20.77195247 29.01084417 26.67267158 28.97558594 32.59667969 C28.98901031 33.35110352 29.00243469 34.10552734 29.01626587 34.8828125 C29.03774564 40.04803324 28.57863 44.39423398 26.66308594 49.22167969 C22.76143395 52.9327161 18.53655845 55.01722908 13.66308594 57.22167969 C12.2625658 58.05219126 10.87347829 58.90293351 9.50683594 59.78808594 C8.40339844 60.44679688 7.29996094 61.10550781 6.16308594 61.78417969 C4.47699219 62.80705078 4.47699219 62.80705078 2.75683594 63.85058594 C-1.52019934 65.74609021 -3.86574743 64.7103956 -8.19946289 63.27075195 C-16.4444871 59.98640266 -24.79552896 56.38215261 -30.33691406 49.22167969 C-34.10241776 38.82810089 -31.80778893 25.91064046 -30.33691406 15.22167969 C-14.61425781 6.23730469 -14.61425781 6.23730469 -11.86376953 4.68457031 C-10.30862569 3.78423969 -8.77103505 2.85163567 -7.26708984 1.86816406 C-2.88308605 -0.96022548 -2.88308605 -0.96022548 0 0 Z " fill="#66CBD0" transform="translate(421.3369140625,353.7783203125)"/>
<path d="M0 0 C2.68481445 1.29101562 2.68481445 1.29101562 5.36328125 2.90625 C6.33201172 3.48503906 7.30074219 4.06382812 8.29882812 4.66015625 C9.29333984 5.26730469 10.28785156 5.87445313 11.3125 6.5 C12.32634766 7.10714844 13.34019531 7.71429688 14.38476562 8.33984375 C21.79977679 12.79977679 21.79977679 12.79977679 23 14 C23.08843793 16.44830426 23.11528752 18.86820599 23.09765625 21.31640625 C23.0962413 22.04746078 23.09482635 22.77851532 23.09336853 23.53172302 C23.08775408 25.87535632 23.07519922 28.21889539 23.0625 30.5625 C23.05748686 32.14778508 23.05292363 33.73307166 23.04882812 35.31835938 C23.03777997 39.2122761 23.02050572 43.10612205 23 47 C19.49641438 48.97883125 15.99092421 50.95424025 12.48364258 52.92651367 C11.29105795 53.59777817 10.09899561 54.26997148 8.9074707 54.94311523 C7.19360118 55.91114075 5.47768503 56.87553993 3.76171875 57.83984375 C2.73006592 58.42113037 1.69841309 59.00241699 0.63549805 59.60131836 C-2 61 -2 61 -5 62 C-7.71142578 60.75244141 -7.71142578 60.75244141 -10.9453125 58.8515625 C-11.51579315 58.51957855 -12.0862738 58.1875946 -12.67404175 57.84555054 C-14.49676331 56.78149296 -16.31068446 55.70331508 -18.125 54.625 C-19.35494229 53.90534947 -20.58540537 53.18658824 -21.81640625 52.46875 C-30.78004498 47.21995502 -30.78004498 47.21995502 -32 46 C-32.0883967 43.6243148 -32.11530305 41.27791326 -32.09765625 38.90234375 C-32.0962413 38.19348526 -32.09482635 37.48462677 -32.09336853 36.75428772 C-32.08775443 34.48198288 -32.07519963 32.20977525 -32.0625 29.9375 C-32.05748681 28.40039204 -32.05292359 26.86328255 -32.04882812 25.32617188 C-32.03778042 21.55074358 -32.02050641 17.77538829 -32 14 C-28.41963885 11.82378432 -24.8268737 9.67024417 -21.22119141 7.53637695 C-19.99752738 6.80803633 -18.77740276 6.07371369 -17.56103516 5.33325195 C-15.80756954 4.26726529 -14.04232171 3.22374253 -12.2734375 2.18359375 C-11.21560059 1.54993896 -10.15776367 0.91628418 -9.06787109 0.26342773 C-5.40471829 -1.24515222 -3.7638614 -1.12619229 0 0 Z " fill="#B0D753" transform="translate(187,295)"/>
<path d="M0 0 C49.44680851 -0.19148936 49.44680851 -0.19148936 74 1 C74 7.6 74 14.2 74 21 C49.31857096 21.17300067 24.67219113 20.62973687 0 20 C0 13.4 0 6.8 0 0 Z " fill="#8DACEF" transform="translate(286,294)"/>
<path d="M0 0 C0 7.26 0 14.52 0 22 C-4.393125 23.0828125 -4.393125 23.0828125 -8.875 24.1875 C-16.79659367 26.15294395 -24.67282728 28.24864618 -32.52490234 30.4753418 C-37.91059639 32 -37.91059639 32 -39 32 C-39 24.74 -39 17.48 -39 10 C-37.17855469 9.52949219 -35.35710937 9.05898437 -33.48046875 8.57421875 C-31.04946941 7.9453502 -28.61848038 7.31644183 -26.1875 6.6875 C-24.99189453 6.37876953 -23.79628906 6.07003906 -22.56445312 5.75195312 C-16.03004054 4.06048393 -9.508067 2.33559264 -3.00512695 0.52661133 C-1 0 -1 0 0 0 Z " fill="#6865F5" transform="translate(307,153)"/>
<path d="M0 0 C3.40607301 3.40263253 6.80330079 6.81382302 10.1953125 10.23046875 C11.66709469 11.70961314 13.13935024 13.18828455 14.61181641 14.66674805 C15.6250728 15.68507236 16.63743556 16.70428659 17.64892578 17.72436523 C19.12036694 19.20792973 20.59500985 20.68824544 22.0703125 22.16796875 C22.94445801 23.04735107 23.81860352 23.9267334 24.71923828 24.83276367 C26.99931741 27.12306896 26.99931741 27.12306896 30 29 C23.73 32.63 17.46 36.26 11 40 C6.62283632 36.24814542 2.53687753 32.65839751 -1.49609375 28.6015625 C-1.97450211 28.1217392 -2.45291046 27.64191589 -2.94581604 27.14755249 C-4.44544879 25.64240542 -5.94153128 24.13378786 -7.4375 22.625 C-8.46525983 21.59221405 -9.49325285 20.55966009 -10.52148438 19.52734375 C-13.01701598 17.02089713 -15.50938082 14.5113292 -18 12 C-14.22612769 8.92686908 -10.35310748 6.25772357 -6.1875 3.75 C-5.59001953 3.38648438 -4.99253906 3.02296875 -4.37695312 2.6484375 C-2.91985204 1.76252004 -1.4601898 0.88081727 0 0 Z " fill="#6965F6" transform="translate(401,180)"/>
<path d="M0 0 C7.05707675 1.85712546 12.99014985 5.99343323 19 10 C18.83918945 10.54712646 18.67837891 11.09425293 18.51269531 11.65795898 C14.98645508 23.70175453 11.72931157 35.75020748 9 48 C6.76955389 46.89835882 4.54064354 45.79378106 2.3125 44.6875 C1.68666016 44.37876953 1.06082031 44.07003906 0.41601562 43.75195312 C-3.15420407 41.9761894 -6.61309592 40.10467271 -10 38 C-9.18143215 32.5065002 -7.9148088 27.14723561 -6.625 21.75 C-6.31175781 20.41388672 -6.31175781 20.41388672 -5.9921875 19.05078125 C-1.91293155 1.91293155 -1.91293155 1.91293155 0 0 Z " fill="#6965F6" transform="translate(435,295)"/>
<path d="M0 0 C2 1 2 1 3.04296875 4 C3.42920968 5.33197069 3.81034516 6.66542808 4.1875 8 C6.02288764 14.18510142 8.14851299 20.16724606 10.625 26.125 C10.9139917 26.82238281 11.2029834 27.51976562 11.50073242 28.23828125 C13.18663994 32.23995326 15.0137201 36.13578275 17 40 C12.6546595 38.63020186 8.58177023 36.94975168 4.4375 35.0625 C-2.19529966 32.11757276 -8.86154872 30.35179974 -16 29 C-15.42361351 25.06406604 -14.24571679 22.3775638 -12.12890625 19.0234375 C-11.26749023 17.64671875 -11.26749023 17.64671875 -10.38867188 16.2421875 C-9.4847168 14.82292969 -9.4847168 14.82292969 -8.5625 13.375 C-7.96373047 12.42109375 -7.36496094 11.4671875 -6.74804688 10.484375 C-4.53428327 6.9641686 -2.30674584 3.46011876 0 0 Z " fill="#D0DAFC" transform="translate(288,414)"/>
<path d="M0 0 C3.0625 1.9375 3.0625 1.9375 5 5 C5.69005003 8.15369971 5.73568899 10.8519355 5 14 C2.5625 17 2.5625 17 0 19 C-0.33 19.33 -0.66 19.66 -1 20 C-4.25564772 20.38301738 -6.86168034 20.67642942 -9.76171875 18.953125 C-11.93688531 17.16243098 -13.73024391 15.53951219 -15 13 C-15.39447548 8.81855989 -15.45035186 6.69053952 -13.125 3.125 C-9.25066951 -0.74933049 -5.26519502 -0.77162341 0 0 Z " fill="#6966F6" transform="translate(276,486)"/>
<path d="M0 0 C2.89159772 1.56908404 5.03513794 3.35699971 7 6 C7.70771676 10.03398552 7.4111303 12.1190065 5.6875 15.8125 C3.74275565 18.3334649 2.09490767 19.78675955 -1.0859375 20.40625 C-5.6328594 20.59247206 -7.41365613 20.47864806 -11.0625 17.5 C-13.71025581 13.61110865 -13.65676891 10.59738237 -13 6 C-9.41625445 0.38546531 -6.62175615 -0.75987366 0 0 Z " fill="#6B67F7" transform="translate(373,491)"/>
<path d="M0 0 C3.66304688 2.51834473 4.75360451 4.20283811 6.0625 8.4375 C5.98454913 12.88069934 4.87270176 14.66145471 2 18 C-0.65863745 20.10857453 -1.98701207 20.00023614 -5.4375 19.9375 C-9.82440811 18.7830505 -11.4274428 17.74190139 -14 14 C-15.05631455 9.2594664 -14.66309569 6.04811899 -12.0625 1.9375 C-7.95188101 -0.66309569 -4.7405336 -1.05631455 0 0 Z " fill="#6965F6" transform="translate(324,510)"/>
<path d="M0 0 C0.66 0.33 1.32 0.66 2 1 C-0.09329065 4.40359182 -2.19301763 7.8031137 -4.29882812 11.19897461 C-5.01448369 12.35509605 -5.72836158 13.51231985 -6.44042969 14.6706543 C-7.46342976 16.334098 -8.49333701 17.99328767 -9.5234375 19.65234375 C-10.14138184 20.65257568 -10.75932617 21.65280762 -11.39599609 22.68334961 C-13 25 -13 25 -15 26 C-16.8001798 14.3855066 -16.8001798 14.3855066 -15 9 C-11.17264862 4.46921544 -5.4636973 2.00130935 0 0 Z " fill="#EEC15B" transform="translate(271,400)"/>
<path d="M0 0 C0 4.62 0 9.24 0 14 C-2.7552086 11.2447914 -3.7340486 9.77071195 -5.1875 6.3125 C-5.53167969 5.50425781 -5.87585938 4.69601562 -6.23046875 3.86328125 C-6.48441406 3.24839844 -6.73835938 2.63351562 -7 2 C-1.125 0 -1.125 0 0 0 Z " fill="#6664F2" transform="translate(370,391)"/>
</svg>
