<?xml version="1.0" encoding="UTF-8"?>
<svg version="1.1" xmlns="http://www.w3.org/2000/svg" width="640" height="640">
<path d="M0 0 C211.2 0 422.4 0 640 0 C640 211.2 640 422.4 640 640 C428.8 640 217.6 640 0 640 C0 428.8 0 217.6 0 0 Z " fill="#FEFEFE" transform="translate(0,0)"/>
<path d="M0 0 C2.60987965 1.27842863 4.93486188 2.57883225 7.375 4.125 C8.86616831 5.04072423 10.35842414 5.95467907 11.8515625 6.8671875 C13.07020996 7.61693848 13.07020996 7.61693848 14.31347656 8.38183594 C17.27207814 10.16387985 20.2664729 11.87119965 23.2734375 13.5703125 C24.8814624 14.48466064 24.8814624 14.48466064 26.52197266 15.41748047 C28.63961703 16.61964645 30.76157175 17.81425778 32.88818359 19.00048828 C34.35892334 19.84329346 34.35892334 19.84329346 35.859375 20.703125 C36.73045898 21.19458008 37.60154297 21.68603516 38.49902344 22.19238281 C42.39251811 25.00646272 45.51786472 27.43568971 46.42684937 32.27026367 C46.57829974 35.00470953 46.56238602 37.69207651 46.48828125 40.4296875 C46.47766914 41.915186 46.47766914 41.915186 46.46684265 43.43069458 C46.43895593 46.57957961 46.37622678 49.7266566 46.3125 52.875 C46.28740979 55.01559924 46.26459789 57.15622647 46.24414062 59.296875 C46.18914855 64.53186212 46.10558032 69.76580187 46 75 C46.72453369 75.27021973 47.44906738 75.54043945 48.19555664 75.81884766 C50.95017739 76.97901612 53.33768284 78.31796556 55.87109375 79.8984375 C56.77537109 80.46046875 57.67964844 81.0225 58.61132812 81.6015625 C59.54396484 82.18679687 60.47660156 82.77203125 61.4375 83.375 C62.8306543 84.24125 62.8306543 84.24125 64.25195312 85.125 C65.15751953 85.68960938 66.06308594 86.25421875 66.99609375 86.8359375 C67.86733887 87.37831055 68.73858398 87.92068359 69.63623047 88.47949219 C71.60615685 89.74665822 73.47022428 91.0800461 75.34765625 92.4765625 C77.81946967 94.22960514 77.81946967 94.22960514 80.2590332 93.81567383 C83.67011878 92.80058191 86.42623361 91.25516406 89.5078125 89.47265625 C90.115112 89.12367783 90.7224115 88.7746994 91.34811401 88.41514587 C93.27759785 87.30412518 95.20122789 86.18337549 97.125 85.0625 C98.42542322 84.31252989 99.72620115 83.56317448 101.02734375 82.81445312 C107.59913007 79.04664193 107.59913007 79.04664193 114 75 C118.43222591 74.57473472 121.09372434 75.19927186 124.9140625 77.421875 C125.8309082 77.9473291 126.74775391 78.4727832 127.69238281 79.01416016 C129.14402832 79.87340088 129.14402832 79.87340088 130.625 80.75 C131.62885742 81.33185059 132.63271484 81.91370117 133.66699219 82.51318359 C136.78655111 84.32794115 139.89394546 86.16224289 143 88 C143.98258789 88.57588867 144.96517578 89.15177734 145.97753906 89.74511719 C148.73964171 91.36408663 151.49636799 92.99167082 154.25 94.625 C155.08869629 95.1209668 155.92739258 95.61693359 156.79150391 96.12792969 C157.56671387 96.59360352 158.34192383 97.05927734 159.140625 97.5390625 C159.81641602 97.94334473 160.49220703 98.34762695 161.18847656 98.76416016 C164.3226739 100.90234168 165.78424742 102.35274227 167 106 C167.116466 107.60372803 167.17907679 109.21165811 167.20874023 110.81933594 C167.22803085 111.7975531 167.24732147 112.77577026 167.26719666 113.78363037 C167.32505441 118.25708204 167.37421251 122.73037536 167.4050293 127.20410156 C167.42661222 129.56102141 167.46071807 131.91786106 167.50756836 134.27441406 C167.57460193 137.67809737 167.60203484 141.08012449 167.62109375 144.484375 C167.64892441 145.5325238 167.67675507 146.58067261 167.70542908 147.6605835 C167.69132518 152.69734002 167.48836883 156.08861976 164.2109375 160.06005859 C161.99352007 162.24626387 159.78131622 164.11550037 157.00390625 165.5546875 C155.92882812 166.12920654 155.92882812 166.12920654 154.83203125 166.71533203 C154.08308594 167.09802246 153.33414062 167.48071289 152.5625 167.875 C150.96875162 168.72151445 149.37632532 169.57052218 147.78515625 170.421875 C146.98867676 170.84533203 146.19219727 171.26878906 145.37158203 171.70507812 C141.0191325 174.08158547 136.8071174 176.69144558 132.59594727 179.30810547 C128.20709514 182 128.20709514 182 126 182 C126 195.53 126 209.06 126 223 C134.848619 227.96084573 134.848619 227.96084573 143.70898438 232.90063477 C144.82595703 233.53283936 145.94292969 234.16504395 147.09375 234.81640625 C148.22490234 235.45006104 149.35605469 236.08371582 150.52148438 236.73657227 C151.69025414 237.47661515 152.84917585 238.23234773 154 239 C154.71826462 239.46013489 155.43652924 239.92026978 156.17655945 240.39434814 C159.45390553 242.7991036 161.62474971 244.63268165 162.72244263 248.63240051 C163.0088475 251.8174225 163.03094543 254.90454544 162.95703125 258.1015625 C162.95757004 259.25618988 162.95810883 260.41081726 162.95866394 261.60043335 C162.95098464 264.03291173 162.92375488 266.46539753 162.87817383 268.89746094 C162.81257784 272.62058167 162.81656194 276.33891295 162.83007812 280.0625 C162.81401211 282.42971902 162.79396564 284.79691507 162.76953125 287.1640625 C162.77024124 288.27560699 162.77095123 289.38715149 162.77168274 290.53237915 C162.58297609 298.23174487 162.58297609 298.23174487 159.63476562 302.11694336 C156.71155342 304.20615164 153.79406667 306.12802345 150.6875 307.9375 C150.06593018 308.30230469 149.44436035 308.66710937 148.80395508 309.04296875 C147.37785047 309.87832397 145.94954559 310.70992974 144.51953125 311.53857422 C141.59123764 313.23709801 138.67058296 314.94840927 135.75 316.66015625 C131.47495706 319.16281444 127.19859562 321.6631528 122.91796875 324.15625 C122.01844482 324.68025391 121.1189209 325.20425781 120.19213867 325.74414062 C116.16476262 328.05139337 113.71942784 328.33716726 109 328 C105.76196289 326.6105957 105.76196289 326.6105957 102.47265625 324.67578125 C101.88004501 324.3325029 101.28743378 323.98922455 100.67686462 323.63554382 C98.79681359 322.54183404 96.92990933 321.42762741 95.0625 320.3125 C93.81394569 319.58262332 92.56460186 318.85409546 91.31445312 318.12695312 C86.26610151 315.17599643 81.28936435 312.21315082 76.49609375 308.85546875 C73.21258756 306.6178454 73.21258756 306.6178454 70.16918945 307.68261719 C66.92413922 309.03153415 63.88239131 310.54075016 60.796875 312.22265625 C59.6521875 312.84333984 58.5075 313.46402344 57.328125 314.10351562 C56.13534081 314.75637184 54.94263329 315.40936817 53.75 316.0625 C52.54191175 316.71985167 51.33358047 317.37675689 50.125 318.03320312 C47.92160466 319.23086315 45.71933656 320.43060095 43.51855469 321.63305664 C42.02415597 322.44414024 40.5208114 323.2395943 39 324 C38.11902706 333.26059774 39.46909487 338.36636412 45.1875 345.625 C45.82099365 346.47763428 46.4544873 347.33026855 47.10717773 348.20874023 C48.41597699 349.96807503 49.73610096 351.71904149 51.06738281 353.46142578 C53.97174419 357.27642699 56.76353332 361.16993152 59.5625 365.0625 C60.09311035 365.79275391 60.6237207 366.52300781 61.17041016 367.27539062 C65.07323003 372.65581645 68.83567381 378.12161824 72.5625 383.625 C76.52404963 389.47252368 80.58934857 395.19835407 84.875 400.8125 C89.7756019 407.25778487 94.4624963 413.83691402 99.0625 420.5 C100.02808838 421.88022339 100.02808838 421.88022339 101.01318359 423.28833008 C108.93676326 434.86578299 111.07064333 445.99115976 110 460 C107.25268179 472.95164298 100.26896765 484.06621146 89.4375 491.6875 C81.47052549 496.3272706 72.25073067 498.02069856 63.19458008 499.00976562 C62.46266606 499.09259544 61.73075205 499.17542526 60.97665882 499.26076508 C52.43908324 500.20610305 43.88310419 500.93562106 35.32421875 501.65625 C33.58036472 501.80526526 31.83653486 501.95456368 30.09272766 502.10412598 C25.54532707 502.49358612 20.99768195 502.88010269 16.44995117 503.26568604 C9.18715381 503.88172402 1.92466115 504.50131125 -5.33766747 505.12284851 C-7.83179572 505.33572812 -10.3260792 505.54670377 -12.82038879 505.75744629 C-21.96452715 506.53520157 -31.0977526 507.38451919 -40.22517109 508.34051514 C-46.98392941 509.03761397 -53.7036441 509.39878658 -60.5 509.4375 C-61.54929687 509.47037109 -62.59859375 509.50324219 -63.6796875 509.53710938 C-76.95924582 509.62727922 -86.61985029 503.8093094 -96.12109375 495.04296875 C-105.03954097 485.95593085 -108.50851343 475.9083891 -108.6875 463.4375 C-108.70683594 462.59993164 -108.72617188 461.76236328 -108.74609375 460.89941406 C-108.52313663 448.87366448 -102.20679097 437.99809908 -97 427.4375 C-95.84210626 425.06067498 -94.68552832 422.68326499 -93.53125 420.3046875 C-93.23786743 419.70098831 -92.94448486 419.09728912 -92.64221191 418.47529602 C-88.95796551 410.87815161 -85.38298618 403.22865378 -81.90551758 395.53466797 C-79.23696827 389.65679532 -76.45919905 383.9398861 -73.29296875 378.3125 C-63.98406265 361.27030773 -59.48726505 343.15372557 -62.89160156 323.71777344 C-64.37678115 318.7362063 -66.37443425 316.4115669 -70.62695312 313.52001953 C-74.17547056 311.67672602 -77.75542537 310.21238153 -81.53808594 308.921875 C-84.97046123 307.63660635 -87.49483514 305.79754596 -90.4375 303.625 C-92.67973912 301.87010205 -92.67973912 301.87010205 -95 301 C-98.95036227 302.26610364 -102.32772517 304.29395721 -105.859375 306.44140625 C-106.97570312 307.10720703 -108.09203125 307.77300781 -109.2421875 308.45898438 C-110.99532228 309.50709664 -112.74511608 310.55951104 -114.48730469 311.62573242 C-128.54969434 320.20857052 -128.54969434 320.20857052 -135 319 C-139.26064857 317.30561225 -143.08589438 315.06204339 -147 312.6875 C-148.09272217 312.04756104 -149.18544434 311.40762207 -150.3112793 310.74829102 C-152.51432397 309.45551251 -154.71194475 308.15344279 -156.90380859 306.84179688 C-159.6728417 305.19461301 -162.46056503 303.59339026 -165.26953125 302.015625 C-166.78410224 301.15668728 -168.2984438 300.29734481 -169.8125 299.4375 C-170.49248047 299.05746826 -171.17246094 298.67743652 -171.87304688 298.28588867 C-175.87924692 295.95736226 -178.63105906 293.99470946 -181 290 C-181.60940539 286.11826787 -181.5842114 282.27066445 -181.56640625 278.34765625 C-181.57260483 277.21476669 -181.57880341 276.08187714 -181.58518982 274.91465759 C-181.59228567 272.5216457 -181.58911817 270.12858441 -181.57641602 267.7355957 C-181.56256124 264.078663 -181.59661586 260.42429438 -181.63476562 256.76757812 C-181.63571694 254.44010354 -181.63385732 252.11262576 -181.62890625 249.78515625 C-181.64879356 248.14898094 -181.64879356 248.14898094 -181.66908264 246.47975159 C-181.56550803 238.01330751 -181.56550803 238.01330751 -178.86303711 234.51220703 C-175.8865432 231.90044593 -173.02302077 229.94307072 -169.5625 228.01953125 C-168.95994385 227.67999924 -168.3573877 227.34046722 -167.73657227 226.99064636 C-165.83051721 225.9198173 -163.91574771 224.86587112 -162 223.8125 C-160.71551539 223.09552935 -159.43165506 222.37743905 -158.1484375 221.65820312 C-155.78890681 220.3363915 -153.4255891 219.02262877 -151.05859375 217.71411133 C-150.04925781 217.14845459 -149.03992188 216.58279785 -148 216 C-147.0613208 215.62214355 -146.1226416 215.24428711 -145.15551758 214.85498047 C-142.62888107 212.68062503 -142.60542232 212.09466829 -142.2487793 208.89575195 C-142.16573536 207.17761638 -142.10922777 205.45806627 -142.07421875 203.73828125 C-142.0369014 202.83248825 -141.99958405 201.92669525 -141.96113586 200.99345398 C-141.84716772 198.10012257 -141.76694837 195.20696509 -141.6875 192.3125 C-141.61615182 190.35082947 -141.54261087 188.38923738 -141.46679688 186.42773438 C-141.28574114 181.61903004 -141.1349425 176.81021034 -141 172 C-141.69150146 171.74259033 -142.38300293 171.48518066 -143.09545898 171.2199707 C-148.32868963 169.02189946 -153.19162373 166.08915679 -158.12036133 163.2878418 C-160.05474256 162.19189507 -161.99685467 161.11059393 -163.93945312 160.02929688 C-165.18019322 159.32641278 -166.42044448 158.62266497 -167.66015625 157.91796875 C-168.78043213 157.28656982 -169.90070801 156.6551709 -171.05493164 156.00463867 C-174.33206998 153.77396779 -176.09013482 152.49459245 -178 149 C-178.59368791 145.03034289 -178.58419022 141.10176969 -178.56640625 137.09375 C-178.57260483 135.93629272 -178.57880341 134.77883545 -178.58518982 133.58630371 C-178.59228572 131.14201701 -178.58911808 128.69768196 -178.57641602 126.25341797 C-178.56254855 122.51309353 -178.59663133 118.77526953 -178.63476562 115.03515625 C-178.6357168 112.65885355 -178.63385808 110.28254773 -178.62890625 107.90625 C-178.64216446 106.7884314 -178.65542267 105.67061279 -178.66908264 104.5189209 C-178.57636216 96.79104675 -178.57636216 96.79104675 -175.78198242 92.95581055 C-173.17764092 91.12488648 -170.62506563 89.37777743 -167.859375 87.80078125 C-166.38863525 86.95314209 -166.38863525 86.95314209 -164.88818359 86.08837891 C-163.85258301 85.50233887 -162.81698242 84.91629883 -161.75 84.3125 C-159.59072631 83.07755615 -157.43187471 81.84187401 -155.2734375 80.60546875 C-154.21092773 79.99880371 -153.14841797 79.39213867 -152.05371094 78.76708984 C-149.29414292 77.17021158 -146.56718099 75.53347819 -143.8515625 73.86328125 C-142.7054248 73.16368286 -142.7054248 73.16368286 -141.53613281 72.44995117 C-140.13608357 71.59160648 -138.74175657 70.7238285 -137.35449219 69.8449707 C-133.30381057 67.38562829 -130.70020183 66.57733314 -126 67 C-123.21435547 68.17407227 -123.21435547 68.17407227 -120.3671875 69.81640625 C-119.31273437 70.41646484 -118.25828125 71.01652344 -117.171875 71.63476562 C-116.08390625 72.27091797 -114.9959375 72.90707031 -113.875 73.5625 C-112.81023437 74.17158203 -111.74546875 74.78066406 -110.6484375 75.40820312 C-101.8675944 80.44333463 -101.8675944 80.44333463 -97.73144531 83.09716797 C-96.68827148 83.75475098 -95.64509766 84.41233398 -94.5703125 85.08984375 C-93.64234863 85.69562256 -92.71438477 86.30140137 -91.75830078 86.92553711 C-89.00440357 88.29011806 -89.00440357 88.29011806 -85.99194336 87.3515625 C-83.1359256 86.06140221 -80.33281398 84.74314241 -77.55859375 83.28515625 C-76.56279297 82.76373047 -75.56699219 82.24230469 -74.54101562 81.70507812 C-73.51685547 81.16302734 -72.49269531 80.62097656 -71.4375 80.0625 C-70.40947266 79.52431641 -69.38144531 78.98613281 -68.32226562 78.43164062 C-62.73406639 75.50709843 -62.73406639 75.50709843 -57.29321289 72.32202148 C-55 71 -55 71 -53 71 C-53.02618408 69.78940918 -53.05236816 68.57881836 -53.0793457 67.33154297 C-53.17008038 62.82538449 -53.22733371 58.31930621 -53.2746582 53.8125 C-53.29974946 51.86477057 -53.33383061 49.9171348 -53.37719727 47.96972656 C-53.43808749 45.1644781 -53.46626331 42.36047792 -53.48828125 39.5546875 C-53.51408768 38.68883026 -53.5398941 37.82297302 -53.56648254 36.93087769 C-53.56851188 32.52246533 -53.2884096 30.45107025 -50.85205078 26.640625 C-47.97914295 23.9806891 -45.29660518 22.09510432 -41.87890625 20.1953125 C-41.29769516 19.86763885 -40.71648407 19.53996521 -40.11766052 19.20236206 C-38.27206693 18.16513202 -36.41779931 17.14474725 -34.5625 16.125 C-33.35418845 15.45034451 -32.14650117 14.77456971 -30.93945312 14.09765625 C-29.12907399 13.08274535 -27.31739006 12.07085465 -25.49966431 11.06915283 C-22.35790511 9.33634504 -19.25104351 7.56430059 -16.17919922 5.70996094 C-15.24466164 5.15294998 -15.24466164 5.15294998 -14.29124451 4.58468628 C-12.56754537 3.55362056 -10.85173932 2.50939241 -9.13647461 1.46435547 C-5.72242185 -0.12959553 -3.71734214 -0.42856414 0 0 Z " fill="#082C76" transform="translate(328,90)"/>
<path d="M0 0 C2.95460366 1.42669367 5.78005866 2.98333565 8.61645508 4.63330078 C10.30448242 5.61169922 10.30448242 5.61169922 12.02661133 6.60986328 C13.20505582 7.29726201 14.38344082 7.98476275 15.56176758 8.67236328 C16.73215885 9.35236352 17.90273027 10.03205379 19.07348633 10.71142578 C20.20141602 11.36626953 21.3293457 12.02111328 22.49145508 12.69580078 C24.11905762 13.63504395 24.11905762 13.63504395 25.77954102 14.59326172 C27.47720514 15.58836548 29.1640181 16.60337151 30.82055664 17.66552734 C35.00571932 20.31776612 37.77206068 21.12242288 42.68676758 20.29736328 C46.62842472 18.53560208 50.29525012 16.38371699 53.99926758 14.17236328 C54.98088867 13.60259766 55.96250977 13.03283203 56.97387695 12.44580078 C62.78826212 9.06034366 62.78826212 9.06034366 68.46948242 5.45849609 C69.77393311 4.60916504 69.77393311 4.60916504 71.10473633 3.74267578 C72.25171997 2.96561279 72.25171997 2.96561279 73.421875 2.17285156 C75.68676758 1.29736328 75.68676758 1.29736328 78.09594727 1.92016602 C81.03841306 3.48428678 83.88606934 5.136019 86.72192383 6.88720703 C87.56272743 7.40499474 87.56272743 7.40499474 88.42051697 7.9332428 C89.59903519 8.66010361 90.77639176 9.38885096 91.95263672 10.11938477 C93.74473296 11.23204786 95.54060053 12.33840595 97.3371582 13.44384766 C103.67483901 17.35855576 103.67483901 17.35855576 106.68676758 19.29736328 C107.45811035 19.66821045 108.22945312 20.03905762 109.02416992 20.42114258 C111.93379218 23.70461498 111.22773976 27.82096894 111.19067383 32.03955078 C111.20480568 33.48033493 111.20480568 33.48033493 111.21922302 34.95022583 C111.24794001 38.0244876 111.25094915 41.09797803 111.24926758 44.17236328 C111.25287484 47.2394952 111.26242008 50.3060631 111.2900238 53.37307739 C111.30681041 55.28175744 111.30968926 57.19062295 111.29701233 59.09933472 C111.34004812 65.72230403 111.34004812 65.72230403 114.68676758 71.29736328 C117.54622213 73.37986495 117.54622213 73.37986495 120.92895508 75.18017578 C121.53434113 75.52112274 122.13972717 75.8620697 122.76345825 76.21334839 C124.68985816 77.29491929 126.62532918 78.35888964 128.56176758 79.42236328 C129.8553894 80.14384983 131.14836549 80.86649545 132.44067383 81.59033203 C134.82204438 82.92339871 137.20734411 84.24807457 139.59643555 85.56738281 C140.61624512 86.13827637 141.63605469 86.70916992 142.68676758 87.29736328 C143.63519531 87.78591797 144.58362305 88.27447266 145.56079102 88.77783203 C146.26236328 89.27927734 146.96393555 89.78072266 147.68676758 90.29736328 C148.10681373 93.45084412 148.20784228 96.03280265 148.06176758 99.17236328 C147.99534011 100.97965417 147.92893459 102.78694586 147.86254883 104.59423828 C147.82210449 105.53074219 147.78166016 106.46724609 147.73999023 107.43212891 C147.68680742 110.29521849 147.83708675 113.08278296 148.04223633 115.93798828 C148.71213046 128.83914661 148.71213046 128.83914661 145.27709961 133.00830078 C141.35371384 136.20489364 136.84304726 138.1703916 132.22143555 140.15527344 C127.76625877 142.16272065 123.59403741 144.65521523 119.37426758 147.10986328 C118.56876465 147.55475098 117.76326172 147.99963867 116.93334961 148.45800781 C116.17521973 148.88581543 115.41708984 149.31362305 114.63598633 149.75439453 C113.63571411 150.31090698 113.63571411 150.31090698 112.61523438 150.87866211 C109.46623465 153.19526388 107.05563183 155.33309651 106.30583191 159.32591248 C106.12793462 161.8092178 106.08090444 164.26473133 106.07739258 166.75439453 C106.06085632 167.65735764 106.04432007 168.56032074 106.02728271 169.49064636 C105.97884701 172.36378817 105.9574417 175.23640085 105.93676758 178.10986328 C105.90860418 180.0623638 105.87867623 182.01483971 105.84692383 183.96728516 C105.77308921 188.7439343 105.72348751 193.52029047 105.68676758 198.29736328 C102.06253667 200.19466946 98.43724051 202.08993166 94.81176758 203.98486328 C93.29196289 204.78053711 93.29196289 204.78053711 91.74145508 205.59228516 C85.42204504 208.89377181 79.07662792 212.13432041 72.68676758 215.29736328 C70.6770875 211.27800312 70.9815578 206.28761545 70.62426758 201.85986328 C70.53338867 200.81636719 70.44250977 199.77287109 70.34887695 198.69775391 C70.09028305 195.56546229 69.87451403 192.43467291 69.68676758 189.29736328 C69.62336182 188.26627441 69.55995605 187.23518555 69.49462891 186.17285156 C69.46006592 185.19687012 69.42550293 184.22088867 69.38989258 183.21533203 C69.35412109 182.34545654 69.31834961 181.47558105 69.28149414 180.5793457 C69.68676758 178.29736328 69.68676758 178.29736328 71.47753906 176.4362793 C73.49926758 175.04736328 73.49926758 175.04736328 75.64379883 173.90673828 C78.60187513 171.5764755 79.75148694 168.8483163 80.68676758 165.29736328 C81.06691173 162.07582653 81.06732659 158.91259098 80.99926758 155.67236328 C80.98798828 154.79370605 80.97670898 153.91504883 80.96508789 153.00976562 C80.96914095 138.65593657 80.96914095 138.65593657 74.68676758 126.29736328 C68.56111453 120.64291431 63.67186924 120.06186222 55.68676758 120.29736328 C52.54159851 120.4864458 49.40914284 120.76784679 46.27270508 121.06689453 C45.39189774 121.14747604 44.51109039 121.22805756 43.60359192 121.31108093 C40.75587605 121.57281694 37.90879324 121.84072971 35.06176758 122.10986328 C33.09082956 122.29485768 31.11988222 122.47975272 29.14892578 122.66455078 C26.17480011 122.94352231 23.2007217 123.22293304 20.2268219 123.50430298 C14.94826455 124.00161238 9.66898979 124.47537612 4.38464355 124.90690613 C1.53557222 125.14011884 -1.31241014 125.38520413 -4.16033936 125.63192749 C-6.07513816 125.79310454 -7.99131213 125.93767318 -9.9074707 126.08178711 C-17.76586532 126.77873419 -23.09566123 127.81890794 -28.62573242 133.79736328 C-34.57424115 142.60996881 -32.48776299 152.93134791 -31.62573242 163.10986328 C-31.57255859 163.89756104 -31.51938477 164.68525879 -31.46459961 165.49682617 C-30.7731141 172.60850023 -27.98646223 177.75779496 -22.81323242 182.67236328 C-20.37249278 184.25884405 -18.01537676 185.24652937 -15.31323242 186.29736328 C-11.94720851 193.0294111 -13.18510606 202.93721561 -13.31323242 210.29736328 C-14.39459473 209.84526489 -14.39459473 209.84526489 -15.49780273 209.3840332 C-18.22743703 208.27519125 -18.22743703 208.27519125 -20.79272461 207.62280273 C-28.52092212 205.47910245 -35.1724694 202.41467772 -39.31323242 195.29736328 C-41.73607051 185.46025197 -40.97067913 174.83133267 -40.58569336 164.79467773 C-40.54857239 163.75632278 -40.51145142 162.71796783 -40.47320557 161.64814758 C-40.3891001 159.66298546 -40.27601895 157.67878245 -40.13031006 155.69718933 C-39.80282681 150.07273179 -39.80282681 150.07273179 -42.61303711 145.28442383 C-45.66807124 143.03623912 -48.77663425 140.99540167 -52.06323242 139.10986328 C-53.02156982 138.5471875 -53.02156982 138.5471875 -53.99926758 137.97314453 C-55.3711998 137.16857757 -56.74512891 136.36740773 -58.12084961 135.56933594 C-61.21659005 133.7732549 -64.30272178 131.96095828 -67.38842773 130.14770508 C-68.90461248 129.25746964 -70.42216283 128.36955534 -71.94116211 127.48413086 C-77.20365235 124.40694335 -77.20365235 124.40694335 -78.31323242 123.29736328 C-78.41309921 121.69308804 -78.44404107 120.08443014 -78.44604492 118.47705078 C-78.44733398 117.46513672 -78.44862305 116.45322266 -78.44995117 115.41064453 C-78.44608398 114.34201172 -78.4422168 113.27337891 -78.43823242 112.17236328 C-78.44209961 111.15787109 -78.4459668 110.14337891 -78.44995117 109.09814453 C-78.44729652 106.97708053 -78.41598317 104.8558993 -78.35913086 102.7355957 C-78.26852859 99.22636882 -78.26852859 99.22636882 -78.55639648 95.44702148 C-78.65281054 91.37403506 -78.51710107 88.19618661 -77.31323242 84.29736328 C-73.37338305 80.31321219 -68.80650818 78.09501497 -63.81323242 75.73486328 C-62.54227094 75.08851546 -61.27399999 74.43684837 -60.00854492 73.77978516 C-58.15791791 72.82171746 -56.30618122 71.86809218 -54.44335938 70.93392944 C-44.50750914 66.21213642 -44.50750914 66.21213642 -37.31323242 58.29736328 C-36.84343486 55.18117027 -36.82446671 52.08528546 -36.80151367 48.93798828 C-36.78356247 48.03361023 -36.76561127 47.12923218 -36.74711609 46.19744873 C-36.69301385 43.31413408 -36.65911768 40.43098496 -36.62573242 37.54736328 C-36.59255927 35.590309 -36.55806961 33.63327656 -36.5222168 31.67626953 C-36.43728738 26.88342022 -36.37047572 22.09061999 -36.31323242 17.29736328 C-35.53197998 16.89420898 -34.75072754 16.49105469 -33.94580078 16.07568359 C-31.01727746 14.56354328 -28.08946594 13.05004154 -25.16210938 11.53564453 C-23.90066854 10.88341404 -22.63895526 10.23171018 -21.37695312 9.58056641 C-20.15110211 8.9479943 -18.92564268 8.31466272 -17.70059204 7.68054199 C-15.93573958 6.76738867 -14.16917874 5.85753957 -12.40258789 4.94775391 C-9.93219941 3.62802685 -7.60422861 2.23510276 -5.25463867 0.71923828 C-2.31323242 -0.70263672 -2.31323242 -0.70263672 0 0 Z " fill="#FEFEFE" transform="translate(285.313232421875,179.70263671875)"/>
<path d="M0 0 C0.5541665 6.11547187 1.10537945 12.2312008 1.65405273 18.34716797 C1.84044855 20.42048031 2.0276013 22.49372476 2.21557617 24.56689453 C2.48824137 27.5756641 2.75842029 30.58464381 3.02734375 33.59375 C3.11561432 34.57479706 3.20388489 35.55584412 3.29483032 36.56661987 C3.6849315 40.99849054 4.04320793 45.42436198 4.27294922 49.86767578 C4.31110245 50.60095093 4.34925568 51.33422607 4.38856506 52.08972168 C4.48084512 54.00937285 4.55809869 55.92973046 4.6340332 57.85009766 C5.26485488 63.27962484 7.75782976 66.72704736 11 71 C11.94726115 72.31146021 12.89095177 73.62550314 13.83203125 74.94140625 C16.03849543 78.01891502 18.26281937 81.08252962 20.49609375 84.140625 C23.97015612 88.92457974 27.30846629 93.79353003 30.625 98.6875 C34.93272885 105.03407486 39.34338358 111.27933876 43.90893555 117.44262695 C48.87876189 124.15931353 53.67408613 130.99613329 58.47509766 137.83398438 C60.00212866 140.00302361 61.53688097 142.16638106 63.07421875 144.328125 C68.01253056 151.27685534 72.91187126 158.2506845 77.6875 165.3125 C78.32099365 166.23699951 78.32099365 166.23699951 78.96728516 167.18017578 C80.89836568 170.06268637 82.520252 172.53273033 83 176 C83.10183594 176.7115625 83.20367187 177.423125 83.30859375 178.15625 C83.73174968 185.84999413 81.19793896 191.62501173 77 198 C71.70623988 203.89713493 66.51063413 206.19723693 58.6875 206.9375 C57.94204422 207.01191818 57.19658844 207.08633636 56.42854309 207.16300964 C53.61907677 207.4424922 50.80954971 207.72135693 48 208 C46.97682175 208.10160934 45.95364349 208.20321869 44.89945984 208.3079071 C23.51683392 210.42373291 2.11999789 212.35811269 -19.28637695 214.21704102 C-23.83711102 214.61252369 -28.38726613 215.01432313 -32.93733501 215.41737652 C-36.50519646 215.73226715 -40.07345059 216.04252013 -43.64182472 216.35154152 C-45.32066712 216.49772157 -46.99936318 216.64559417 -48.67789268 216.79532433 C-77.40102788 219.35234905 -77.40102788 219.35234905 -85.90234375 212.45703125 C-90.92552522 207.8161638 -94.53764878 203.06045425 -95.32617188 196.13549805 C-95.53848808 187.68751403 -93.87635022 181.90517876 -90.0625 174.4375 C-88.95420958 172.15505352 -87.84614987 169.872495 -86.73828125 167.58984375 C-86.13030991 166.35892072 -85.52173384 165.12829622 -84.91259766 163.89794922 C-82.88645471 159.78936343 -80.92848873 155.64999429 -78.98046875 151.50390625 C-78.63698395 150.77297256 -78.29349915 150.04203888 -77.93960571 149.28895569 C-77.23400315 147.78689408 -76.52855017 146.2847622 -75.82324219 144.78256226 C-74.01789218 140.94295939 -72.20202542 137.10834037 -70.38671875 133.2734375 C-64.46861622 120.76503078 -58.55261952 108.2557793 -52.68917847 95.72163391 C-50.74402414 91.5688305 -48.7683305 87.43187597 -46.77734375 83.30078125 C-45.85107029 81.34658739 -44.92525052 79.39217839 -44 77.4375 C-43.58435791 76.59396973 -43.16871582 75.75043945 -42.74047852 74.88134766 C-42.18831665 73.70064697 -42.18831665 73.70064697 -41.625 72.49609375 C-41.30789063 71.83794678 -40.99078125 71.1797998 -40.6640625 70.50170898 C-38.80931263 63.51434799 -40.18986775 55.72725651 -40.875 48.62890625 C-41.00817627 47.18535011 -41.00817627 47.18535011 -41.14404297 45.71263123 C-41.52009796 41.63651979 -41.90551675 37.56131161 -42.29101562 33.48608398 C-42.57277765 30.49236246 -42.84903675 27.49816703 -43.125 24.50390625 C-43.21249512 23.59943253 -43.29999023 22.6949588 -43.39013672 21.76307678 C-43.93599823 15.82528833 -44.10086279 9.9616614 -44 4 C-35.5573342 2.44079478 -27.18595362 1.48011955 -18.625 0.875 C-17.48933594 0.78863281 -16.35367188 0.70226562 -15.18359375 0.61328125 C-10.10640343 0.23829533 -5.09341252 -0.04437264 0 0 Z " fill="#92B1F3" transform="translate(335,361)"/>
<path d="M0 0 C7.39810806 6.62713005 8.5679378 14.83624789 9.14428711 24.39233398 C9.24032428 26.9289626 9.28365643 29.46176546 9.3125 32 C9.34150391 32.85078125 9.37050781 33.7015625 9.40039062 34.578125 C9.45992582 40.54996332 8.40393398 45.02798661 5 50 C2.71809758 52.11890939 0.76653461 53.61673269 -2 55 C-2.10017458 62.21489319 -1.8532532 69.30424594 -1.1953125 76.48828125 C-1.11127167 77.43511276 -1.02723083 78.38194427 -0.94064331 79.35746765 C-0.76322333 81.33822818 -0.58327785 83.31876402 -0.40087891 85.29907227 C-0.12415801 88.32169708 0.13948469 91.34528246 0.40234375 94.36914062 C0.57733672 96.30475893 0.7530912 98.24030857 0.9296875 100.17578125 C1.00686005 101.07275223 1.08403259 101.96972321 1.1635437 102.89387512 C1.78435211 109.45639957 2.90571063 114.86497516 6.80078125 120.328125 C7.63802734 121.51341797 7.63802734 121.51341797 8.4921875 122.72265625 C9.09289062 123.55667969 9.69359375 124.39070312 10.3125 125.25 C10.93769531 126.13042969 11.56289063 127.01085937 12.20703125 127.91796875 C16.80167709 134.37455776 21.44758318 140.79496455 26.1027832 147.20800781 C30.73649863 153.60098096 35.25990209 160.06785014 39.77392578 166.5456543 C43.58717857 172.0081521 47.45802595 177.42401244 51.375 182.8125 C56.49600399 189.87567919 61.55238558 196.9827164 66.5625 204.125 C67.2416748 205.08510986 67.92084961 206.04521973 68.62060547 207.03442383 C77.58729242 219.87242443 81.40507081 231.15782658 80 247 C77.22591758 259.95622583 70.2825213 271.05667478 59.4375 278.6875 C51.47052549 283.3272706 42.25073067 285.02069856 33.19458008 286.00976562 C32.46266606 286.09259544 31.73075205 286.17542526 30.97665882 286.26076508 C22.43908324 287.20610305 13.88310419 287.93562106 5.32421875 288.65625 C3.58036472 288.80526526 1.83653486 288.95456368 0.09272766 289.10412598 C-4.45467293 289.49358612 -9.00231805 289.88010269 -13.55004883 290.26568604 C-20.81284619 290.88172402 -28.07533885 291.50131125 -35.33766747 292.12284851 C-37.83179572 292.33572812 -40.3260792 292.54670377 -42.82038879 292.75744629 C-51.96452715 293.53520157 -61.0977526 294.38451919 -70.22517109 295.34051514 C-76.98392941 296.03761397 -83.7036441 296.39878658 -90.5 296.4375 C-91.54929687 296.47037109 -92.59859375 296.50324219 -93.6796875 296.53710938 C-106.95924582 296.62727922 -116.61985029 290.8093094 -126.12109375 282.04296875 C-135.03954097 272.95593085 -138.50851343 262.9083891 -138.6875 250.4375 C-138.70683594 249.59993164 -138.72617188 248.76236328 -138.74609375 247.89941406 C-138.52313698 235.8736832 -132.20682293 224.99807421 -127 214.4375 C-125.8368824 212.05026561 -124.67508084 209.662447 -123.515625 207.2734375 C-123.07431244 206.3654113 -123.07431244 206.3654113 -122.62408447 205.43904114 C-119.58985109 199.18214734 -116.66403411 192.87616452 -113.75 186.5625 C-107.53587313 173.11026749 -101.21652823 159.70894016 -94.86795044 146.31968689 C-94.19237965 144.88978967 -93.52034906 143.45821401 -92.85202026 142.0249176 C-91.35462384 138.81801984 -89.82322644 135.66680463 -88.16357422 132.53857422 C-83.96763557 124.41086289 -83.23337501 118.02014243 -84 109 C-84.0942627 107.76431274 -84.0942627 107.76431274 -84.19042969 106.50366211 C-84.71100172 99.74416872 -85.34649923 92.99772441 -86 86.25 C-86.28669221 83.22626308 -86.57158461 80.20236164 -86.85595703 77.17840576 C-87.03224685 75.3107655 -87.21024413 73.44328545 -87.39013672 71.57598877 C-87.47021973 70.74041443 -87.55030273 69.90484009 -87.6328125 69.04394531 C-87.73940186 67.94146454 -87.73940186 67.94146454 -87.84814453 66.81671143 C-88 65 -88 65 -88 63 C-88.73992187 62.90074219 -89.47984375 62.80148437 -90.2421875 62.69921875 C-93.32592403 61.91736487 -94.76357004 60.91000544 -97.125 58.8125 C-98.11886719 57.95591797 -98.11886719 57.95591797 -99.1328125 57.08203125 C-103.76826221 51.91321389 -104.61144284 46.58979474 -105.1875 39.9375 C-105.26427979 39.09985107 -105.34105957 38.26220215 -105.42016602 37.39916992 C-105.63350221 34.93387293 -105.82143954 32.46803401 -106 30 C-106.09796875 28.72898437 -106.1959375 27.45796875 -106.296875 26.1484375 C-106.59672852 19.03524562 -105.80701698 14.38079885 -101 9 C-93.57551773 1.0575306 -82.17595904 1.59179136 -71.94140625 0.74609375 C-70.71646957 0.64031509 -69.4915329 0.53453644 -68.22947693 0.42555237 C-64.34091521 0.0909211 -60.45174889 -0.23596238 -56.5625 -0.5625 C-53.95503338 -0.78528423 -51.34761099 -1.00858676 -48.74023438 -1.23242188 C-43.93459435 -1.64460164 -39.12868691 -2.05336463 -34.32250977 -2.45922852 C-29.34627979 -2.88080195 -24.37270916 -3.32623355 -19.4002533 -3.79014587 C-11.91921018 -4.44421341 -6.32613049 -4.52817761 0 0 Z M-36.8828125 58.62109375 C-37.61950165 58.68531021 -38.3561908 58.74952667 -39.11520386 58.81568909 C-40.66334376 58.9514183 -42.21136742 59.08847934 -43.75927734 59.22680664 C-46.12431596 59.43743908 -48.48983982 59.64182036 -50.85546875 59.84570312 C-52.36461658 59.97879022 -53.87373237 60.11224125 -55.3828125 60.24609375 C-56.08705353 60.3065538 -56.79129456 60.36701385 -57.51687622 60.42930603 C-60.7730755 60.72479425 -63.84409947 61.15779076 -67 62 C-67.11664735 68.89463349 -66.78868725 75.64309273 -66.125 82.50390625 C-66.03621582 83.46723373 -65.94743164 84.43056122 -65.85595703 85.42308044 C-65.57494993 88.46997342 -65.28815962 91.51627573 -65 94.5625 C-64.62022686 98.58420839 -64.24610007 102.60638944 -63.875 106.62890625 C-63.78750488 107.53540421 -63.70000977 108.44190216 -63.60986328 109.37586975 C-62.1359009 125.3513643 -62.1359009 125.3513643 -65.46484375 132.17578125 C-66.00866699 133.3143457 -66.55249023 134.45291016 -67.11279297 135.62597656 C-67.72087819 136.85489217 -68.32911881 138.08373089 -68.9375 139.3125 C-69.5709615 140.62511503 -70.20258888 141.93861654 -70.83251953 143.25292969 C-72.17747113 146.05420071 -73.53120143 148.850982 -74.89111328 151.64501953 C-77.00993386 156.00762904 -79.08669925 160.38934782 -81.15234375 164.77734375 C-81.49831604 165.51226547 -81.84428833 166.24718719 -82.20074463 167.00437927 C-82.90466175 168.50021845 -83.60843721 169.9961243 -84.31207275 171.49209595 C-86.09557348 175.28066523 -87.88586517 179.06602107 -89.67578125 182.8515625 C-90.39535618 184.37401818 -91.11491997 185.89647912 -91.83447266 187.41894531 C-93.28427907 190.48618664 -94.7345574 193.55320436 -96.18505859 196.62011719 C-96.90858845 198.15036235 -97.63205888 199.68063561 -98.35546875 201.2109375 C-98.7087323 201.95821609 -99.06199585 202.70549469 -99.42596436 203.47541809 C-102.10886722 209.15495597 -104.77325357 214.84301786 -107.42999268 220.53483582 C-109.1747609 224.26518694 -110.95821298 227.97338947 -112.77734375 231.66796875 C-117.22146718 240.83888071 -120.2217189 249.04787198 -117.359375 259.29296875 C-114.50001413 266.0124668 -108.87015158 271.23375288 -102.75 275 C-92.21261275 277.80996993 -80.37776436 275.57012644 -69.62109375 274.609375 C-67.93765915 274.46282516 -66.25418649 274.31671198 -64.57067871 274.17100525 C-60.1095768 273.7834977 -55.64907557 273.38946798 -51.18870163 272.99367905 C-47.5105247 272.66789607 -43.83206432 272.34537834 -40.15360355 272.02281857 C-31.1670485 271.23466783 -22.18113019 270.43952488 -13.19561863 269.63957119 C-8.17235867 269.19250696 -3.14883624 268.74864795 1.875 268.30810547 C7.05770638 267.85352623 12.23985113 267.39324647 17.4213562 266.9251709 C19.16200765 266.76853339 20.90283022 266.61378421 22.64382935 266.46105957 C24.98321959 266.25498658 27.32172759 266.04089373 29.66015625 265.82421875 C30.90418213 265.71166748 32.14820801 265.59911621 33.42993164 265.4831543 C42.215749 264.29412793 49.17812482 262.05458154 54.83203125 254.75390625 C59.24770947 248.12300485 61.05503623 241.95951385 60 234 C57.89994677 226.91232036 53.18959304 221.01229549 49 215 C48.55978516 214.36771484 48.11957031 213.73542969 47.66601562 213.08398438 C41.53627507 204.30400731 35.28391747 195.61467888 28.99951172 186.94506836 C23.12999731 178.82937952 17.40701518 170.61250849 11.67578125 162.39892578 C9.10471707 158.71837849 6.5240345 155.0446887 3.9375 151.375 C3.45925781 150.6958252 2.98101562 150.01665039 2.48828125 149.31689453 C-0.15557782 145.57349488 -2.82836743 141.85338322 -5.53125 138.15234375 C-6.120271 137.3442627 -6.70929199 136.53618164 -7.31616211 135.70361328 C-8.44832701 134.1534353 -9.58432908 132.60604965 -10.72485352 131.06201172 C-11.23975342 130.35705566 -11.75465332 129.65209961 -12.28515625 128.92578125 C-12.73769775 128.31130127 -13.19023926 127.69682129 -13.65649414 127.0637207 C-17.12157243 121.74111362 -18.49934825 117.213446 -18.87890625 110.91015625 C-18.93591705 110.13636124 -18.99292786 109.36256622 -19.05166626 108.56532288 C-19.23350133 106.06505164 -19.39801402 103.56396663 -19.5625 101.0625 C-19.68458222 99.34674431 -19.80804137 97.63108604 -19.93286133 95.91552734 C-20.17948224 92.51804196 -20.42104559 89.12025797 -20.65917969 85.72216797 C-21.09990085 79.51693271 -21.6325017 73.32104756 -22.1875 67.125 C-22.27136963 66.17633057 -22.35523926 65.22766113 -22.44165039 64.25024414 C-22.62621356 62.16669124 -22.81280965 60.08331851 -23 58 C-27.65955411 57.92786085 -32.24571031 58.20728472 -36.8828125 58.62109375 Z " fill="#072C76" transform="translate(358,303)"/>
<path d="M0 0 C2.78564453 1.17407227 2.78564453 1.17407227 5.6328125 2.81640625 C6.68726563 3.41646484 7.74171875 4.01652344 8.828125 4.63476562 C9.91609375 5.27091797 11.0040625 5.90707031 12.125 6.5625 C13.18976563 7.17158203 14.25453125 7.78066406 15.3515625 8.40820312 C24.1324056 13.44333463 24.1324056 13.44333463 28.26855469 16.09716797 C29.31172852 16.75475098 30.35490234 17.41233398 31.4296875 18.08984375 C32.8216333 18.99851196 32.8216333 18.99851196 34.24169922 19.92553711 C36.99559643 21.29011806 36.99559643 21.29011806 40.00805664 20.3515625 C42.8640744 19.06140221 45.66718602 17.74314241 48.44140625 16.28515625 C49.43720703 15.76373047 50.43300781 15.24230469 51.45898438 14.70507812 C52.48314453 14.16302734 53.50730469 13.62097656 54.5625 13.0625 C55.59052734 12.52431641 56.61855469 11.98613281 57.67773438 11.43164062 C63.26593361 8.50709843 63.26593361 8.50709843 68.70678711 5.32202148 C71 4 71 4 73 4 C73.04898438 4.67546875 73.09796875 5.3509375 73.1484375 6.046875 C73.26058594 7.38492188 73.26058594 7.38492188 73.375 8.75 C73.47941406 10.07257813 73.47941406 10.07257813 73.5859375 11.421875 C74.00648233 14.04036167 74.58416609 15.76809516 76 18 C77.65261839 19.02304948 79.31791365 20.02616054 81 21 C81 21.66 81 22.32 81 23 C80.35039307 23.33733154 79.70078613 23.67466309 79.03149414 24.0222168 C76.04114888 25.5760054 73.05182022 27.1317403 70.0625 28.6875 C69.04091797 29.21794922 68.01933594 29.74839844 66.96679688 30.29492188 C61.49804152 33.14286796 56.07675151 36.03885607 50.73999023 39.12817383 C49 40 49 40 47 40 C47.0314209 41.205354 47.0628418 42.41070801 47.09521484 43.65258789 C47.20421875 48.14564036 47.27284275 52.63857718 47.32958984 57.13256836 C47.35967215 59.07352382 47.40054963 61.01434436 47.45263672 62.95483398 C47.52583255 65.75278065 47.55954101 68.54892336 47.5859375 71.34765625 C47.61690521 72.2083522 47.64787292 73.06904816 47.67977905 73.95582581 C47.68286711 79.5455857 46.58751554 82.56432616 42.64163208 86.57319641 C40.46320596 88.4665477 38.2735987 89.94291707 35.734375 91.31640625 C34.76113281 91.85330078 33.78789062 92.39019531 32.78515625 92.94335938 C31.28275391 93.74483398 31.28275391 93.74483398 29.75 94.5625 C27.76492675 95.64585697 25.7805459 96.73048364 23.796875 97.81640625 C22.83330078 98.3386377 21.86972656 98.86086914 20.87695312 99.39892578 C17.17181799 101.46089763 13.56606755 103.66846266 9.96972656 105.91381836 C8 107 8 107 6 107 C6 119.87 6 132.74 6 146 C14.10314197 150.62658858 14.10314197 150.62658858 22.21240234 155.24243164 C40.48750844 165.73126266 40.48750844 165.73126266 44 171 C44.24050903 173.14506531 44.24050903 173.14506531 44.22705078 175.6550293 C44.22689972 176.59577805 44.22674866 177.53652679 44.22659302 178.50578308 C44.21627045 179.51836685 44.20594788 180.53095062 44.1953125 181.57421875 C44.1924826 182.61318802 44.18965271 183.65215729 44.18673706 184.72261047 C44.17553282 188.04435697 44.15042764 191.36583485 44.125 194.6875 C44.11497052 196.93814715 44.10584462 199.18879852 44.09765625 201.43945312 C44.0755927 206.95972722 44.04211271 212.47984442 44 218 C45.09598511 218.40883423 45.09598511 218.40883423 46.21411133 218.82592773 C48.8792683 219.94911938 51.14430177 221.22563414 53.57421875 222.78515625 C54.40630859 223.31560547 55.23839844 223.84605469 56.09570312 224.39257812 C56.95099609 224.94365234 57.80628906 225.49472656 58.6875 226.0625 C60.39926939 227.15828694 62.11148708 228.25337399 63.82421875 229.34765625 C64.57791748 229.83242432 65.33161621 230.31719238 66.1081543 230.81665039 C67.98331344 232.03130963 67.98331344 232.03130963 70 233 C70.33 232.34 70.66 231.68 71 231 C71.6503709 238.01743282 72.23746791 245.03712169 72.76416016 252.06494141 C72.95172601 254.39922371 73.18417321 256.71686974 73.44921875 259.04296875 C74.24214138 269.92290715 69.05402866 278.68947556 64 288 C63.67 288 63.34 288 63 288 C63.07444336 287.00258789 63.14888672 286.00517578 63.22558594 284.97753906 C65.11875392 266.94486269 65.11875392 266.94486269 60.16699219 250.27734375 C55.55355641 246.21046788 50.18685208 244.00813375 44.44580078 241.95410156 C41.05050945 240.6296058 38.49460526 238.77870593 35.5625 236.625 C33.32026088 234.87010205 33.32026088 234.87010205 31 234 C27.04963773 235.26610364 23.67227483 237.29395721 20.140625 239.44140625 C19.02429688 240.10720703 17.90796875 240.77300781 16.7578125 241.45898438 C15.00467772 242.50709664 13.25488392 243.55951104 11.51269531 244.62573242 C-2.54969434 253.20857052 -2.54969434 253.20857052 -9 252 C-13.26064857 250.30561225 -17.08589438 248.06204339 -21 245.6875 C-22.09272217 245.04756104 -23.18544434 244.40762207 -24.3112793 243.74829102 C-26.51432397 242.45551251 -28.71194475 241.15344279 -30.90380859 239.84179688 C-33.6728417 238.19461301 -36.46056503 236.59339026 -39.26953125 235.015625 C-40.78410224 234.15668728 -42.2984438 233.29734481 -43.8125 232.4375 C-44.8324707 231.86745239 -44.8324707 231.86745239 -45.87304688 231.28588867 C-49.87924692 228.95736226 -52.63105906 226.99470946 -55 223 C-55.60940539 219.11826787 -55.5842114 215.27066445 -55.56640625 211.34765625 C-55.57260483 210.21476669 -55.57880341 209.08187714 -55.58518982 207.91465759 C-55.59228567 205.5216457 -55.58911817 203.12858441 -55.57641602 200.7355957 C-55.56256124 197.078663 -55.59661586 193.42429438 -55.63476562 189.76757812 C-55.63571694 187.44010354 -55.63385732 185.11262576 -55.62890625 182.78515625 C-55.64879356 181.14898094 -55.64879356 181.14898094 -55.66908264 179.47975159 C-55.56550803 171.01330751 -55.56550803 171.01330751 -52.86303711 167.51220703 C-49.8865432 164.90044593 -47.02302077 162.94307072 -43.5625 161.01953125 C-42.95994385 160.67999924 -42.3573877 160.34046722 -41.73657227 159.99064636 C-39.83051721 158.9198173 -37.91574771 157.86587112 -36 156.8125 C-34.71551539 156.09552935 -33.43165506 155.37743905 -32.1484375 154.65820312 C-29.78890681 153.3363915 -27.4255891 152.02262877 -25.05859375 150.71411133 C-24.04925781 150.14845459 -23.03992188 149.58279785 -22 149 C-21.0613208 148.62214355 -20.1226416 148.24428711 -19.15551758 147.85498047 C-16.62888107 145.68062503 -16.60542232 145.09466829 -16.2487793 141.89575195 C-16.16573536 140.17761638 -16.10922777 138.45806627 -16.07421875 136.73828125 C-16.0369014 135.83248825 -15.99958405 134.92669525 -15.96113586 133.99345398 C-15.84716772 131.10012257 -15.76694837 128.20696509 -15.6875 125.3125 C-15.61615182 123.35082947 -15.54261087 121.38923738 -15.46679688 119.42773438 C-15.28574114 114.61903004 -15.1349425 109.81021034 -15 105 C-15.69150146 104.74259033 -16.38300293 104.48518066 -17.09545898 104.2199707 C-22.32868963 102.02189946 -27.19162373 99.08915679 -32.12036133 96.2878418 C-34.05474256 95.19189507 -35.99685467 94.11059393 -37.93945312 93.02929688 C-39.18019322 92.32641278 -40.42044448 91.62266497 -41.66015625 90.91796875 C-42.78043213 90.28656982 -43.90070801 89.6551709 -45.05493164 89.00463867 C-48.33206998 86.77396779 -50.09013482 85.49459245 -52 82 C-52.59368791 78.03034289 -52.58419022 74.10176969 -52.56640625 70.09375 C-52.57260483 68.93629272 -52.57880341 67.77883545 -52.58518982 66.58630371 C-52.59228572 64.14201701 -52.58911808 61.69768196 -52.57641602 59.25341797 C-52.56254855 55.51309353 -52.59663133 51.77526953 -52.63476562 48.03515625 C-52.6357168 45.65885355 -52.63385808 43.28254773 -52.62890625 40.90625 C-52.64216446 39.7884314 -52.65542267 38.67061279 -52.66908264 37.5189209 C-52.57636216 29.79104675 -52.57636216 29.79104675 -49.78198242 25.95581055 C-47.17764092 24.12488648 -44.62506563 22.37777743 -41.859375 20.80078125 C-40.87888184 20.23568848 -39.89838867 19.6705957 -38.88818359 19.08837891 C-37.85258301 18.50233887 -36.81698242 17.91629883 -35.75 17.3125 C-33.59072631 16.07755615 -31.43187471 14.84187401 -29.2734375 13.60546875 C-28.21092773 12.99880371 -27.14841797 12.39213867 -26.05371094 11.76708984 C-23.29414292 10.17021158 -20.56718099 8.53347819 -17.8515625 6.86328125 C-16.7054248 6.16368286 -16.7054248 6.16368286 -15.53613281 5.44995117 C-14.13608357 4.59160648 -12.74175657 3.7238285 -11.35449219 2.8449707 C-7.30381057 0.38562829 -4.70020183 -0.42266686 0 0 Z " fill="#072C76" transform="translate(202,157)"/>
<path d="M0 0 C4.7578125 1.859375 4.7578125 1.859375 6.9375 3.125 C12.01409 5.27870485 15.89868109 3.70043964 21 2 C21 15.2 21 28.4 21 42 C29.848619 46.96084573 29.848619 46.96084573 38.70898438 51.90063477 C39.82595703 52.53283936 40.94292969 53.16504395 42.09375 53.81640625 C43.22490234 54.45006104 44.35605469 55.08371582 45.52148438 55.73657227 C46.69025414 56.47661515 47.84917585 57.23234773 49 58 C49.71826462 58.46013489 50.43652924 58.92026978 51.17655945 59.39434814 C54.45390553 61.7991036 56.62474971 63.63268165 57.72244263 67.63240051 C58.0088475 70.8174225 58.03094543 73.90454544 57.95703125 77.1015625 C57.95757004 78.25618988 57.95810883 79.41081726 57.95866394 80.60043335 C57.95098464 83.03291173 57.92375488 85.46539753 57.87817383 87.89746094 C57.81257784 91.62058167 57.81656194 95.33891295 57.83007812 99.0625 C57.81401211 101.42971902 57.79396564 103.79691507 57.76953125 106.1640625 C57.77024124 107.27560699 57.77095123 108.38715149 57.77168274 109.53237915 C57.58297609 117.23174487 57.58297609 117.23174487 54.63476562 121.11694336 C51.71155342 123.20615164 48.79406667 125.12802345 45.6875 126.9375 C44.75514526 127.48470703 44.75514526 127.48470703 43.80395508 128.04296875 C42.37785047 128.87832397 40.94954559 129.70992974 39.51953125 130.53857422 C36.59123764 132.23709801 33.67058296 133.94840927 30.75 135.66015625 C26.47495706 138.16281444 22.19859562 140.6631528 17.91796875 143.15625 C17.01844482 143.68025391 16.1189209 144.20425781 15.19213867 144.74414062 C11.16476262 147.05139337 8.71942784 147.33716726 4 147 C0.76196289 145.6105957 0.76196289 145.6105957 -2.52734375 143.67578125 C-3.11995499 143.3325029 -3.71256622 142.98922455 -4.32313538 142.63554382 C-6.20318641 141.54183404 -8.07009067 140.42762741 -9.9375 139.3125 C-11.18605431 138.58262332 -12.43539814 137.85409546 -13.68554688 137.12695312 C-18.73389849 134.17599643 -23.71063565 131.21315082 -28.50390625 127.85546875 C-31.78741244 125.6178454 -31.78741244 125.6178454 -34.83081055 126.68261719 C-38.07586078 128.03153415 -41.11760869 129.54075016 -44.203125 131.22265625 C-45.3478125 131.84333984 -46.4925 132.46402344 -47.671875 133.10351562 C-48.86465919 133.75637184 -50.05736671 134.40936817 -51.25 135.0625 C-52.45808825 135.71985167 -53.66641953 136.37675689 -54.875 137.03320312 C-57.07839534 138.23086315 -59.28066344 139.43060095 -61.48144531 140.63305664 C-62.97584403 141.44414024 -64.4791886 142.2395943 -66 143 C-66.4683265 145.58605332 -66.4683265 145.58605332 -66.625 148.5625 C-66.69976562 149.57441406 -66.77453125 150.58632813 -66.8515625 151.62890625 C-66.90054687 152.41136719 -66.94953125 153.19382812 -67 154 C-71.85107965 149.31062301 -73.38704177 145.8795264 -74.125 139.25 C-74.21136719 138.5590625 -74.29773438 137.868125 -74.38671875 137.15625 C-74.90957297 132.74103663 -75.08145264 128.44498668 -75 124 C-69.00568066 120.65636732 -63.00609259 117.32244044 -57 114 C-55.96238525 113.42548096 -55.96238525 113.42548096 -54.90380859 112.83935547 C-53.10527828 111.84625991 -51.3027809 110.86035836 -49.5 109.875 C-48.4790625 109.31554687 -47.458125 108.75609375 -46.40625 108.1796875 C-44 107 -44 107 -42 107 C-42.02618408 105.78940918 -42.05236816 104.57881836 -42.0793457 103.33154297 C-42.17008038 98.82538449 -42.22733371 94.31930621 -42.2746582 89.8125 C-42.29974946 87.86477057 -42.33383061 85.9171348 -42.37719727 83.96972656 C-42.43808749 81.1644781 -42.46626331 78.36047792 -42.48828125 75.5546875 C-42.51408768 74.68883026 -42.5398941 73.82297302 -42.56648254 72.93087769 C-42.56850599 68.53525202 -42.28770789 66.45203242 -39.86743164 62.64941406 C-36.92068793 59.92671821 -34.13543051 58.00388597 -30.6328125 56.0546875 C-30.03499969 55.71752716 -29.43718689 55.38036682 -28.82125854 55.0329895 C-26.92863622 53.96889659 -25.02727857 52.92171294 -23.125 51.875 C-21.85744821 51.16648103 -20.59051528 50.45685374 -19.32421875 49.74609375 C-16.98170355 48.4329898 -14.63542121 47.1278122 -12.28564453 45.82763672 C-10.65925049 44.92295654 -10.65925049 44.92295654 -9 44 C-8.36297653 43.7369104 -7.72595306 43.4738208 -7.06962585 43.20275879 C-4.83928341 42.281001 -4.83928341 42.281001 -2 40 C-0.91970951 36.97661742 -0.90734373 34.04820712 -0.87890625 30.859375 C-0.84441879 29.97719299 -0.80993134 29.09501099 -0.7743988 28.18609619 C-0.6717983 25.37405468 -0.61656596 22.5633522 -0.5625 19.75 C-0.5011661 17.84104306 -0.43674883 15.93218252 -0.36914062 14.0234375 C-0.21032232 9.34932318 -0.0939599 4.67584964 0 0 Z " fill="#082C77" transform="translate(433,271)"/>
<path d="M0 0 C2.99755859 1.31005859 2.99755859 1.31005859 6.1484375 3.1484375 C7.00401497 3.64094498 7.00401497 3.64094498 7.87687683 4.1434021 C9.71745114 5.2077007 11.54629316 6.29045818 13.375 7.375 C14.63619724 8.11175654 15.89783664 8.8477567 17.15991211 9.58300781 C20.78531075 11.7020906 24.39388896 13.84825869 28 16 C28.93118652 16.55268555 29.86237305 17.10537109 30.82177734 17.67480469 C33.07723324 19.01978906 35.32306093 20.37855222 37.5625 21.75 C38.19140137 22.13075684 38.82030273 22.51151367 39.46826172 22.90380859 C42.70292001 24.9322299 44.98772481 26.75215886 47 30 C47.36076355 32.26531982 47.36076355 32.26531982 47.34057617 34.76855469 C47.34034958 35.70922791 47.34012299 36.64990112 47.33988953 37.61907959 C47.32440567 38.62650208 47.30892181 39.63392456 47.29296875 40.671875 C47.28872391 41.70942932 47.28447906 42.74698364 47.28010559 43.815979 C47.26332223 47.12758408 47.22566992 50.43857907 47.1875 53.75 C47.17245275 55.99608496 47.15876442 58.24217946 47.14648438 60.48828125 C47.11341986 65.99239541 47.0632236 71.49615412 47 77 C48.09598511 77.40883423 48.09598511 77.40883423 49.21411133 77.82592773 C51.8792683 78.94911938 54.14430177 80.22563414 56.57421875 81.78515625 C57.40630859 82.31560547 58.23839844 82.84605469 59.09570312 83.39257812 C59.95099609 83.94365234 60.80628906 84.49472656 61.6875 85.0625 C63.39926939 86.15828694 65.11148708 87.25337399 66.82421875 88.34765625 C67.57791748 88.83242432 68.33161621 89.31719238 69.1081543 89.81665039 C70.98331344 91.03130963 70.98331344 91.03130963 73 92 C73.33 91.34 73.66 90.68 74 90 C74.6503709 97.01743282 75.23746791 104.03712169 75.76416016 111.06494141 C75.95172601 113.39922371 76.18417321 115.71686974 76.44921875 118.04296875 C77.24214138 128.92290715 72.05402866 137.68947556 67 147 C66.67 147 66.34 147 66 147 C66.07444336 146.00258789 66.14888672 145.00517578 66.22558594 143.97753906 C68.11875392 125.94486269 68.11875392 125.94486269 63.16699219 109.27734375 C58.55355641 105.21046788 53.18685208 103.00813375 47.44580078 100.95410156 C44.05050945 99.6296058 41.49460526 97.77870593 38.5625 95.625 C36.32026088 93.87010205 36.32026088 93.87010205 34 93 C30.04963773 94.26610364 26.67227483 96.29395721 23.140625 98.44140625 C22.02429688 99.10720703 20.90796875 99.77300781 19.7578125 100.45898438 C18.00467772 101.50709664 16.25488392 102.55951104 14.51269531 103.62573242 C0.45030566 112.20857052 0.45030566 112.20857052 -6 111 C-10.26064857 109.30561225 -14.08589438 107.06204339 -18 104.6875 C-19.09272217 104.04756104 -20.18544434 103.40762207 -21.3112793 102.74829102 C-23.51432397 101.45551251 -25.71194475 100.15344279 -27.90380859 98.84179688 C-30.6728417 97.19461301 -33.46056503 95.59339026 -36.26953125 94.015625 C-37.78410224 93.15668728 -39.2984438 92.29734481 -40.8125 91.4375 C-41.8324707 90.86745239 -41.8324707 90.86745239 -42.87304688 90.28588867 C-46.87924692 87.95736226 -49.63105906 85.99470946 -52 82 C-52.60940539 78.11826787 -52.5842114 74.27066445 -52.56640625 70.34765625 C-52.57260483 69.21476669 -52.57880341 68.08187714 -52.58518982 66.91465759 C-52.59228567 64.5216457 -52.58911817 62.12858441 -52.57641602 59.7355957 C-52.56256124 56.078663 -52.59661586 52.42429438 -52.63476562 48.76757812 C-52.63571694 46.44010354 -52.63385732 44.11262576 -52.62890625 41.78515625 C-52.64879356 40.14898094 -52.64879356 40.14898094 -52.66908264 38.47975159 C-52.56551112 30.01356015 -52.56551112 30.01356015 -49.84545898 26.5012207 C-46.95536848 23.96076792 -44.21009934 22.05536834 -40.84375 20.1953125 C-40.26016724 19.86763885 -39.67658447 19.53996521 -39.07531738 19.20236206 C-37.22302178 18.16504815 -35.36220005 17.14440654 -33.5 16.125 C-31.67621215 15.11389202 -29.85444415 14.09926513 -28.03369141 13.08270264 C-26.82531971 12.40866237 -25.61535616 11.73746783 -24.40380859 11.06915283 C-21.34300509 9.36855736 -18.34772895 7.61046977 -15.40625 5.70996094 C-14.82782349 5.3386203 -14.24939697 4.96727966 -13.65344238 4.58468628 C-12.06784092 3.55644654 -10.49346826 2.5109503 -8.91992188 1.46435547 C-5.53334772 -0.23402846 -3.74071007 -0.51558352 0 0 Z " fill="#072C76" transform="translate(199,298)"/>
<path d="M0 0 C2.47509766 1.00292969 2.47509766 1.00292969 4.9140625 2.421875 C6.28933105 3.21005615 6.28933105 3.21005615 7.69238281 4.01416016 C8.66014648 4.5869873 9.62791016 5.15981445 10.625 5.75 C11.62885742 6.33185059 12.63271484 6.91370117 13.66699219 7.51318359 C16.78655111 9.32794115 19.89394546 11.16224289 23 13 C24.47388184 13.86383301 24.47388184 13.86383301 25.97753906 14.74511719 C28.73964171 16.36408663 31.49636799 17.99167082 34.25 19.625 C35.50804443 20.3689502 35.50804443 20.3689502 36.79150391 21.12792969 C37.56671387 21.59360352 38.34192383 22.05927734 39.140625 22.5390625 C39.81641602 22.94334473 40.49220703 23.34762695 41.18847656 23.76416016 C44.3226739 25.90234168 45.78424742 27.35274227 47 31 C47.116466 32.60372803 47.17907679 34.21165811 47.20874023 35.81933594 C47.22803085 36.7975531 47.24732147 37.77577026 47.26719666 38.78363037 C47.32505441 43.25708204 47.37421251 47.73037536 47.4050293 52.20410156 C47.42661222 54.56102141 47.46071807 56.91786106 47.50756836 59.27441406 C47.57460193 62.67809737 47.60203484 66.08012449 47.62109375 69.484375 C47.64892441 70.5325238 47.67675507 71.58067261 47.70542908 72.6605835 C47.68838881 78.74596878 46.98087453 82.22864518 42.66030884 86.63441467 C39.64950691 89.11076537 36.39766008 90.91785552 32.9375 92.6875 C31.35195809 93.53215474 29.76736414 94.37859073 28.18359375 95.2265625 C26.93231689 95.89026855 26.93231689 95.89026855 25.65576172 96.56738281 C20.88529196 99.1407526 16.19721432 101.85843563 11.5 104.5625 C9.71908174 105.58521331 7.9378569 106.60739305 6.15625 107.62890625 C5.02413086 108.2796814 5.02413086 108.2796814 3.86914062 108.94360352 C0.30386904 110.95861529 -1.84959015 111.29668305 -6 111 C-8.69042969 109.8894043 -8.69042969 109.8894043 -11.421875 108.32421875 C-12.43942871 107.74857178 -13.45698242 107.1729248 -14.50537109 106.57983398 C-15.57609863 105.95536377 -16.64682617 105.33089355 -17.75 104.6875 C-18.8529541 104.05465088 -19.9559082 103.42180176 -21.09228516 102.76977539 C-24.40361551 100.8611647 -27.70248889 98.93236368 -31 97 C-31.94907227 96.45150391 -32.89814453 95.90300781 -33.87597656 95.33789062 C-36.38487217 93.88609845 -38.88222916 92.41676954 -41.375 90.9375 C-42.11073242 90.50977295 -42.84646484 90.0820459 -43.60449219 89.64135742 C-44.27899414 89.23248291 -44.95349609 88.8236084 -45.6484375 88.40234375 C-46.22770996 88.05679443 -46.80698242 87.71124512 -47.40380859 87.35522461 C-50.25591742 84.93368039 -51.82155778 82.14996095 -52.39440918 78.45825195 C-52.40282837 77.56066162 -52.41124756 76.66307129 -52.41992188 75.73828125 C-52.43583374 74.71371826 -52.45174561 73.68915527 -52.46813965 72.63354492 C-52.46834106 71.5376001 -52.46854248 70.44165527 -52.46875 69.3125 C-52.48017029 67.60960815 -52.48017029 67.60960815 -52.49182129 65.87231445 C-52.50261352 63.47512001 -52.50547898 61.07787857 -52.50097656 58.68066406 C-52.50000342 55.01287603 -52.54165607 51.34717405 -52.5859375 47.6796875 C-52.59114394 45.34896269 -52.5938327 43.01823062 -52.59375 40.6875 C-52.61014526 39.59155518 -52.62654053 38.49561035 -52.64343262 37.36645508 C-52.57458298 29.78584162 -52.57458298 29.78584162 -49.78417969 25.96948242 C-47.18100747 24.12804168 -44.62942965 22.3802658 -41.859375 20.80078125 C-40.87888184 20.23568848 -39.89838867 19.6705957 -38.88818359 19.08837891 C-37.33478271 18.20931885 -37.33478271 18.20931885 -35.75 17.3125 C-33.59072631 16.07755615 -31.43187471 14.84187401 -29.2734375 13.60546875 C-28.21092773 12.99880371 -27.14841797 12.39213867 -26.05371094 11.76708984 C-23.29414292 10.17021158 -20.56718099 8.53347819 -17.8515625 6.86328125 C-16.7054248 6.16368286 -16.7054248 6.16368286 -15.53613281 5.44995117 C-14.13608357 4.59160648 -12.74175657 3.7238285 -11.35449219 2.8449707 C-7.30675756 0.38741753 -4.69534804 -0.39090812 0 0 Z " fill="#082C76" transform="translate(448,165)"/>
<path d="M0 0 C0.5541665 6.11547187 1.10537945 12.2312008 1.65405273 18.34716797 C1.84044855 20.42048031 2.0276013 22.49372476 2.21557617 24.56689453 C2.48824137 27.5756641 2.75842029 30.58464381 3.02734375 33.59375 C3.11561432 34.57479706 3.20388489 35.55584412 3.29483032 36.56661987 C3.6849315 40.99849054 4.04320793 45.42436198 4.27294922 49.86767578 C4.31110245 50.60095093 4.34925568 51.33422607 4.38856506 52.08972168 C4.48084512 54.00937285 4.55809869 55.92973046 4.6340332 57.85009766 C5.26485488 63.27962484 7.75782976 66.72704736 11 71 C11.94726115 72.31146021 12.89095177 73.62550314 13.83203125 74.94140625 C16.02443649 77.99919005 18.23420217 81.04344939 20.453125 84.08203125 C26.15035713 91.92763436 31.56613637 99.97083816 37 108 C33.55914771 109.79837426 30.26798965 110.7825432 26.5 111.75 C18.45430817 113.99608897 11.0286673 117.13442075 4.19921875 121.9921875 C0.36922134 124.3958733 -3.40000702 125.75643044 -7.6875 127.125 C-8.89321655 127.51292725 -8.89321655 127.51292725 -10.12329102 127.90869141 C-29.03970623 133.86544712 -47.53739284 132.2969568 -67 130 C-66.43069236 125.11995293 -64.88437921 121.12465566 -62.75390625 116.75 C-62.42680161 116.06284409 -62.09969696 115.37568817 -61.76268005 114.66770935 C-61.06346927 113.20060987 -60.36099107 111.73506385 -59.65551758 110.27096558 C-58.55423133 107.98282017 -57.46400273 105.68971517 -56.37695312 103.39477539 C-53.68891159 97.72280757 -50.99115653 92.0556804 -48.26513672 86.40185547 C-46.8289045 83.4203731 -45.41237067 80.43033651 -44 77.4375 C-43.58564697 76.59638672 -43.17129395 75.75527344 -42.74438477 74.88867188 C-42.19028931 73.7043457 -42.19028931 73.7043457 -41.625 72.49609375 C-41.30789063 71.83794678 -40.99078125 71.1797998 -40.6640625 70.50170898 C-38.80931263 63.51434799 -40.18986775 55.72725651 -40.875 48.62890625 C-41.00817627 47.18535011 -41.00817627 47.18535011 -41.14404297 45.71263123 C-41.52009796 41.63651979 -41.90551675 37.56131161 -42.29101562 33.48608398 C-42.57277765 30.49236246 -42.84903675 27.49816703 -43.125 24.50390625 C-43.21249512 23.59943253 -43.29999023 22.6949588 -43.39013672 21.76307678 C-43.93599823 15.82528833 -44.10086279 9.9616614 -44 4 C-35.5573342 2.44079478 -27.18595362 1.48011955 -18.625 0.875 C-17.48933594 0.78863281 -16.35367188 0.70226562 -15.18359375 0.61328125 C-10.10640343 0.23829533 -5.09341252 -0.04437264 0 0 Z " fill="#FDFDFE" transform="translate(335,361)"/>
<path d="M0 0 C3.4250513 0.88490368 5.93827685 2.14063514 8.97583008 3.9453125 C10.03479492 4.56921875 11.09375977 5.193125 12.18481445 5.8359375 C13.2747168 6.49078125 14.36461914 7.145625 15.48754883 7.8203125 C16.59678711 8.47515625 17.70602539 9.13 18.84887695 9.8046875 C26.97838529 14.62364897 26.97838529 14.62364897 28.17504883 15.8203125 C28.26352626 18.34125326 28.29032184 20.83462143 28.27270508 23.35546875 C28.27129013 24.10871933 28.26987518 24.86196991 28.26841736 25.63804626 C28.26280259 28.0530081 28.25024766 30.46787851 28.23754883 32.8828125 C28.23253573 34.51627471 28.22797249 36.14973836 28.22387695 37.78320312 C28.21282837 41.79560835 28.19555389 45.80794491 28.17504883 49.8203125 C24.70844495 51.78147441 21.23955598 53.7385255 17.76855469 55.69189453 C16.58954321 56.35614911 15.41114782 57.02149851 14.23339844 57.68798828 C12.53460818 58.64907977 10.83336672 59.60583447 9.13208008 60.5625 C7.60031128 61.42657471 7.60031128 61.42657471 6.03759766 62.30810547 C5.09295654 62.80713379 4.14831543 63.30616211 3.17504883 63.8203125 C2.33216309 64.26922852 1.48927734 64.71814453 0.62084961 65.18066406 C-1.82495117 65.8203125 -1.82495117 65.8203125 -4.31689453 64.91748047 C-5.17420166 64.38783691 -6.03150879 63.85819336 -6.91479492 63.3125 C-8.33888672 62.45011719 -8.33888672 62.45011719 -9.79174805 61.5703125 C-10.77208008 60.9515625 -11.75241211 60.3328125 -12.76245117 59.6953125 C-13.73891602 59.09976563 -14.71538086 58.50421875 -15.72143555 57.890625 C-18.43941024 56.22482898 -21.14066351 54.53983663 -23.82495117 52.8203125 C-24.89318115 52.23894531 -25.96141113 51.65757812 -27.06201172 51.05859375 C-29.82495117 48.8203125 -29.82495117 48.8203125 -30.88696289 45.55908203 C-31.28871512 41.34575223 -31.60573417 37.17641391 -31.69995117 32.9453125 C-31.73398544 31.82115433 -31.73398544 31.82115433 -31.76870728 30.67428589 C-31.8563105 24.08291991 -31.75356265 18.2065606 -27.49145508 12.93310547 C-21.72719429 8.33573023 -15.25658656 5.35599989 -8.36865234 2.80883789 C-0.98040356 -0.06236082 -0.98040356 -0.06236082 0 0 Z " fill="#FA8D02" transform="translate(445.824951171875,188.1796875)"/>
<path d="M0 0 C3.4250513 0.88490368 5.93827685 2.14063514 8.97583008 3.9453125 C10.03479492 4.56921875 11.09375977 5.193125 12.18481445 5.8359375 C13.2747168 6.49078125 14.36461914 7.145625 15.48754883 7.8203125 C16.59678711 8.47515625 17.70602539 9.13 18.84887695 9.8046875 C26.97838529 14.62364897 26.97838529 14.62364897 28.17504883 15.8203125 C28.26352626 18.34125326 28.29032184 20.83462143 28.27270508 23.35546875 C28.27129013 24.10871933 28.26987518 24.86196991 28.26841736 25.63804626 C28.26280259 28.0530081 28.25024766 30.46787851 28.23754883 32.8828125 C28.23253573 34.51627471 28.22797249 36.14973836 28.22387695 37.78320312 C28.21282837 41.79560835 28.19555389 45.80794491 28.17504883 49.8203125 C27.50449463 50.19841064 26.83394043 50.57650879 26.14306641 50.96606445 C23.09083209 52.68761434 20.03918529 54.41020308 16.98754883 56.1328125 C15.93245117 56.72771484 14.87735352 57.32261719 13.7902832 57.93554688 C12.76870117 58.51240234 11.74711914 59.08925781 10.69458008 59.68359375 C9.75718994 60.21251221 8.8197998 60.74143066 7.85400391 61.28637695 C5.14161983 62.77826109 5.14161983 62.77826109 2.64257812 64.64135742 C0.17504883 65.8203125 0.17504883 65.8203125 -2.28100586 65.20922852 C-3.12050781 64.75088623 -3.96000977 64.29254395 -4.82495117 63.8203125 C-6.18861816 63.07962524 -6.18861816 63.07962524 -7.57983398 62.32397461 C-8.55275391 61.75428955 -9.52567383 61.18460449 -10.52807617 60.59765625 C-12.12135742 59.66663086 -12.12135742 59.66663086 -13.74682617 58.71679688 C-14.84510742 58.07033203 -15.94338867 57.42386719 -17.07495117 56.7578125 C-18.18870117 56.10748047 -19.30245117 55.45714844 -20.44995117 54.78710938 C-28.6818409 49.96342277 -28.6818409 49.96342277 -29.82495117 48.8203125 C-31.53452078 38.7207662 -33.4750738 25.67245372 -29.82495117 15.8203125 C-24.41819956 9.03617549 -16.33925477 5.75637121 -8.36865234 2.80883789 C-0.98040356 -0.06236082 -0.98040356 -0.06236082 0 0 Z " fill="#FAC950" transform="translate(199.824951171875,180.1796875)"/>
<path d="M0 0 C1.93735837 0.97245638 3.83688591 2.02219426 5.703125 3.125 C6.7653125 3.74890625 7.8275 4.3728125 8.921875 5.015625 C10.56929687 5.99789063 10.56929687 5.99789063 12.25 7 C13.36375 7.65484375 14.4775 8.3096875 15.625 8.984375 C23.8234747 13.8234747 23.8234747 13.8234747 25 15 C25.08847743 17.52094076 25.11527301 20.01430893 25.09765625 22.53515625 C25.0962413 23.28840683 25.09482635 24.04165741 25.09336853 24.81773376 C25.08775376 27.2326956 25.07519883 29.64756601 25.0625 32.0625 C25.0574869 33.69596221 25.05292366 35.32942586 25.04882812 36.96289062 C25.03777954 40.97529585 25.02050506 44.98763241 25 49 C21.37410189 51.12425199 17.74448725 53.24196194 14.11132812 55.35375977 C12.87656828 56.0726867 11.64283141 56.79337363 10.41015625 57.51586914 C8.63549222 58.5556219 6.85721414 59.58893548 5.078125 60.62109375 C4.00981445 61.2442749 2.94150391 61.86745605 1.84082031 62.50952148 C-2.66132457 64.87163858 -2.66132457 64.87163858 -5 65 C-7.60961914 63.86010742 -7.60961914 63.86010742 -10.53515625 62.10546875 C-11.59154297 61.47962891 -12.64792969 60.85378906 -13.73632812 60.20898438 C-14.83396484 59.54189453 -15.93160156 58.87480469 -17.0625 58.1875 C-18.71475586 57.20426758 -18.71475586 57.20426758 -20.40039062 56.20117188 C-24.31454122 53.86511498 -28.20695644 51.5286957 -32 49 C-32.37936379 46.44714992 -32.56362667 44.14212711 -32.609375 41.578125 C-32.62647522 40.84051941 -32.64357544 40.10291382 -32.66119385 39.34295654 C-32.68955187 37.77955029 -32.70914928 36.21596449 -32.72070312 34.65234375 C-32.74975361 32.27020366 -32.84268292 29.89592888 -32.9375 27.515625 C-33.17368901 16.50815397 -33.17368901 16.50815397 -30.26855469 12.77514648 C-27.91650875 11.18410188 -25.61597023 10.09722921 -23 9 C-21.4417968 8.08278051 -19.8945984 7.14659101 -18.359375 6.19140625 C-16.82515982 5.31118279 -15.28869797 4.43486351 -13.75 3.5625 C-12.97398437 3.10423828 -12.19796875 2.64597656 -11.3984375 2.17382812 C-10.26535156 1.5328418 -10.26535156 1.5328418 -9.109375 0.87890625 C-8.43874023 0.4929126 -7.76810547 0.10691895 -7.07714844 -0.29077148 C-4.28406867 -1.24444999 -2.80854243 -0.87806515 0 0 Z " fill="#66CBD0" transform="translate(200,322)"/>
<path d="M0 0 C2.01959322 0.98680167 4.00356118 2.04818098 5.95703125 3.16015625 C6.95968018 3.72613525 7.9623291 4.29211426 8.99536133 4.87524414 C10.25501709 5.59703857 11.51467285 6.31883301 12.8125 7.0625 C16.834375 9.351875 20.85625 11.64125 25 14 C25 25.55 25 37.1 25 49 C18.6578125 52.6815625 18.6578125 52.6815625 12.1875 56.4375 C10.1923938 57.5985022 10.1923938 57.5985022 8.15698242 58.78295898 C7.10873291 59.38954346 6.0604834 59.99612793 4.98046875 60.62109375 C3.90692139 61.2442749 2.83337402 61.86745605 1.72729492 62.50952148 C-1 64 -1 64 -4 65 C-6.25015376 63.95239424 -8.29372633 62.86135804 -10.41796875 61.59765625 C-11.03521317 61.24110458 -11.65245758 60.88455292 -12.28840637 60.51719666 C-14.26045683 59.37510545 -16.22390907 58.21906345 -18.1875 57.0625 C-19.52224469 56.28617716 -20.85752512 55.51077463 -22.19335938 54.73632812 C-25.46855393 52.83484591 -28.73610655 50.92081062 -32 49 C-32.3234878 44.30502444 -32.5580634 39.6166106 -32.71411133 34.91308594 C-32.77916664 33.31753592 -32.86766316 31.72275186 -32.98071289 30.12988281 C-33.34695836 24.8334098 -33.40385713 20.15262209 -32 15 C-28.17189449 11.1284328 -23.94799014 9.15721515 -19 7 C-17.59764076 6.17259763 -16.20796651 5.32248038 -14.84375 4.43359375 C-13.7403125 3.77488281 -12.636875 3.11617188 -11.5 2.4375 C-9.81390625 1.41462891 -9.81390625 1.41462891 -8.09375 0.37109375 C-4.52110067 -1.21223947 -3.65597791 -1.06883962 0 0 Z " fill="#D0DBFC" transform="translate(444,331)"/>
<path d="M0 0 C0.92466064 0.5266626 1.84932129 1.0533252 2.80200195 1.59594727 C4.32083984 2.45736328 4.32083984 2.45736328 5.87036133 3.33618164 C6.91643555 3.93881836 7.96250977 4.54145508 9.0402832 5.16235352 C10.09795898 5.76112305 11.15563477 6.35989258 12.24536133 6.97680664 C20.06890578 11.4409761 20.06890578 11.4409761 22.3527832 13.72485352 C22.52781315 16.30588658 22.58440599 18.77793514 22.5480957 21.35766602 C22.54526581 22.10950165 22.54243591 22.86133728 22.53952026 23.63595581 C22.52831194 26.04074929 22.50320672 28.44517233 22.4777832 30.84985352 C22.46775422 32.47875439 22.45862823 34.1076611 22.45043945 35.73657227 C22.42837055 39.73280907 22.39383671 43.72876846 22.3527832 47.72485352 C18.70694872 49.84629462 15.05904238 51.96411362 11.40917969 54.07861328 C10.16804473 54.79832563 8.92747957 55.51902154 7.6875 56.24072266 C5.90424398 57.27839626 4.11896323 58.31250601 2.33325195 59.34594727 C1.25970459 59.96912842 0.18615723 60.59230957 -0.91992188 61.234375 C-3.6472168 62.72485352 -3.6472168 62.72485352 -6.6472168 63.72485352 C-8.89737056 62.67724775 -10.94094313 61.58621156 -13.06518555 60.32250977 C-13.68242996 59.9659581 -14.29967438 59.60940643 -14.93562317 59.24205017 C-16.90767363 58.09995896 -18.87112587 56.94391697 -20.8347168 55.78735352 C-22.16946149 55.01103067 -23.50474192 54.23562815 -24.84057617 53.46118164 C-28.11577073 51.55969942 -31.38332334 49.64566413 -34.6472168 47.72485352 C-34.87056584 42.99290812 -35.03337533 38.26405608 -35.14160156 33.52807617 C-35.18672564 31.91945954 -35.24804808 30.31120938 -35.32617188 28.70385742 C-35.95516508 15.42511195 -35.95516508 15.42511195 -32.92895508 11.49121094 C-30.57231894 9.89913232 -28.26980225 8.81753503 -25.6472168 7.72485352 C-24.08874681 6.8080874 -22.54153172 5.87189999 -21.0065918 4.91625977 C-19.47237662 4.03603631 -17.93591477 3.15971703 -16.3972168 2.28735352 C-15.62120117 1.8290918 -14.84518555 1.37083008 -14.0456543 0.89868164 C-12.91256836 0.25769531 -12.91256836 0.25769531 -11.7565918 -0.39624023 C-11.08595703 -0.78223389 -10.41532227 -1.16822754 -9.72436523 -1.56591797 C-6.0391989 -2.8241935 -3.40009696 -1.63780378 0 0 Z " fill="#B0D852" transform="translate(330.647216796875,115.275146484375)"/>
<path d="M0 0 C3.61365376 0.74726791 4.55622311 2.68071974 6.57592773 5.65185547 C7.05618408 6.39322754 7.53644043 7.13459961 8.03125 7.8984375 C9.09367248 9.47228635 10.15752128 11.04517312 11.22265625 12.6171875 C11.76809082 13.431875 12.31352539 14.2465625 12.87548828 15.0859375 C15.48222192 18.9233938 18.22892761 22.65549261 20.96875 26.3984375 C27.21522975 34.99714417 33.25434072 43.73423212 39.19189453 52.54882812 C40.04477134 53.80622288 40.90918597 55.0559236 41.78857422 56.29492188 C44.53125 60.20512864 44.53125 60.20512864 44.53125 63.5234375 C17.96013333 61.35436675 -8.57813329 46.62359884 -28.46875 29.5234375 C-29.46390625 28.66878906 -30.4590625 27.81414062 -31.484375 26.93359375 C-38.05824192 21.13919962 -38.05824192 21.13919962 -40.46875 17.5234375 C-39.77910156 17.14832031 -39.08945312 16.77320313 -38.37890625 16.38671875 C-37.43917969 15.87496094 -36.49945313 15.36320312 -35.53125 14.8359375 C-34.51933594 14.28679687 -33.50742187 13.73765625 -32.46484375 13.171875 C-30.69522567 12.19823898 -28.93355244 11.20947941 -27.19140625 10.1875 C-18.60320223 5.16571962 -9.67347488 2.05102157 0 0 Z " fill="#D0DAFC" transform="translate(370.46875,469.4765625)"/>
<path d="M0 0 C1.90647864 2.85971796 3.18433469 5.69393281 4.51147461 8.85131836 C10.23522907 22.37826487 17.41038755 34.38279959 26.94921875 45.58203125 C29.79443222 48.93667342 32.40591429 52.44966308 35 56 C15.53211838 64.81983977 -5.36466165 62.43536132 -26 60 C-25.43079402 55.0929544 -23.86085197 51.07738029 -21.71875 46.6796875 C-21.38891113 45.98665527 -21.05907227 45.29362305 -20.71923828 44.57958984 C-19.6527097 42.34152988 -18.57628996 40.10837941 -17.5 37.875 C-16.03846339 34.81402295 -14.58199236 31.75064208 -13.125 28.6875 C-12.76700317 27.93677216 -12.40900635 27.18604431 -12.04016113 26.41256714 C-9.11411202 20.2686561 -6.27426741 14.0890315 -3.5 7.875 C-2.94989258 6.64305908 -2.94989258 6.64305908 -2.38867188 5.38623047 C-1.58981923 3.59198838 -0.79439677 1.79621936 0 0 Z " fill="#D0DBFC" transform="translate(294,431)"/>
<path d="M0 0 C0.33 6.6 0.66 13.2 1 20 C-1.38089844 20.19335938 -3.76179688 20.38671875 -6.21484375 20.5859375 C-7.0307901 20.65221848 -7.84673645 20.71849945 -8.68740845 20.78678894 C-12.80243401 21.12093835 -16.91752173 21.45429696 -21.03271484 21.78637695 C-28.56834529 22.39482473 -36.10362921 23.00530441 -43.63671875 23.64453125 C-44.74861572 23.73750488 -45.8605127 23.83047852 -47.00610352 23.92626953 C-49.01080633 24.0941781 -51.01523208 24.26544693 -53.01928711 24.44091797 C-59.35874379 24.96652149 -65.63999783 25.08976119 -72 25 C-72.81352826 20.52559456 -73.05606391 16.28772742 -73.03125 11.734375 C-73.02673828 10.65897461 -73.02222656 9.58357422 -73.01757812 8.47558594 C-73.01177734 7.65864258 -73.00597656 6.84169922 -73 6 C-57.64534891 4.42051935 -42.28603048 2.8955686 -26.91229248 1.51309204 C-25.44166796 1.38049739 -23.9711648 1.24654886 -22.50079346 1.11117554 C-20.42144781 0.92026971 -18.34168333 0.73480631 -16.26171875 0.55078125 C-15.07537842 0.44419189 -13.88903809 0.33760254 -12.66674805 0.2277832 C-8.45194082 -0.03404616 -4.22293199 0 0 0 Z " fill="#90AFF1" transform="translate(346,320)"/>
<path d="M0 0 C0.33 0 0.66 0 1 0 C1 15.51 1 31.02 1 47 C2.65 47.66 4.3 48.32 6 49 C7.54704374 49.89072215 9.07187451 50.82095085 10.57421875 51.78515625 C11.40630859 52.31560547 12.23839844 52.84605469 13.09570312 53.39257812 C13.95099609 53.94365234 14.80628906 54.49472656 15.6875 55.0625 C17.39926939 56.15828694 19.11148708 57.25337399 20.82421875 58.34765625 C21.57791748 58.83242432 22.33161621 59.31719238 23.1081543 59.81665039 C24.98331344 61.03130963 24.98331344 61.03130963 27 62 C27.495 61.01 27.495 61.01 28 60 C28.6503709 67.01743282 29.23746791 74.03712169 29.76416016 81.06494141 C29.95172601 83.39922371 30.18417321 85.71686974 30.44921875 88.04296875 C31.24214138 98.92290715 26.05402866 107.68947556 21 117 C20.67 117 20.34 117 20 117 C20.07444336 116.00258789 20.14888672 115.00517578 20.22558594 113.97753906 C22.11875392 95.94486269 22.11875392 95.94486269 17.16699219 79.27734375 C12.56478247 75.22036397 7.1949319 72.99162401 1.46777344 70.93652344 C-1.94480113 69.64144666 -4.71175373 67.89252311 -7.75 65.875 C-8.59046875 65.35679687 -9.4309375 64.83859375 -10.296875 64.3046875 C-10.85890625 63.87414062 -11.4209375 63.44359375 -12 63 C-12 62.34 -12 61.68 -12 61 C-10.3203125 59.7109375 -10.3203125 59.7109375 -8.125 58.375 C-7.40570313 57.92898438 -6.68640625 57.48296875 -5.9453125 57.0234375 C-4 56 -4 56 -2 56 C-1.00175095 53.00525286 -0.84675968 50.92654666 -0.79467773 47.79418945 C-0.77473251 46.73331619 -0.75478729 45.67244293 -0.73423767 44.579422 C-0.71752518 43.43559555 -0.70081268 42.2917691 -0.68359375 41.11328125 C-0.6524221 39.35506294 -0.6524221 39.35506294 -0.62062073 37.56132507 C-0.55516182 33.81177714 -0.49625704 30.06215837 -0.4375 26.3125 C-0.39431132 23.77277909 -0.35069692 21.23306538 -0.30664062 18.69335938 C-0.19948414 12.46231478 -0.0977108 6.23119949 0 0 Z " fill="#6664F1" transform="translate(245,328)"/>
<path d="M0 0 C0.01417969 0.65226562 0.02835937 1.30453125 0.04296875 1.9765625 C0.39290692 8.38894295 1.32014122 11.54842701 6 16 C6.66 16.33 7.32 16.66 8 17 C8 17.66 8 18.32 8 19 C7.03586182 19.45737549 6.07172363 19.91475098 5.07836914 20.38598633 C1.49161701 22.10131807 -2.06570246 23.8713931 -5.61694336 25.65893555 C-7.1547693 26.42339926 -8.70007921 27.17300222 -10.25268555 27.90698242 C-19.3302097 31.76971254 -19.3302097 31.76971254 -25.22705078 39.02880859 C-25.48120733 41.82453068 -25.45894044 44.23631702 -25 47 C-29.85107965 42.31062301 -31.38704177 38.8795264 -32.125 32.25 C-32.21136719 31.5590625 -32.29773438 30.868125 -32.38671875 30.15625 C-32.90957297 25.74103663 -33.08145264 21.44498668 -33 17 C-27.00568066 13.65636732 -21.00609259 10.32244044 -15 7 C-14.30825684 6.6169873 -13.61651367 6.23397461 -12.90380859 5.83935547 C-11.10527828 4.84625991 -9.3027809 3.86035836 -7.5 2.875 C-6.4790625 2.31554687 -5.458125 1.75609375 -4.40625 1.1796875 C-2 0 -2 0 0 0 Z " fill="#6865F6" transform="translate(391,378)"/>
<path d="M0 0 C4.7578125 1.859375 4.7578125 1.859375 6.9375 3.125 C12.01409 5.27870485 15.89868109 3.70043964 21 2 C20.67 15.2 20.34 28.4 20 42 C15.545 39.525 15.545 39.525 11 37 C6.46791545 36.37794918 3.26919223 37.52969728 -1 39 C-1.12368859 25.95772483 -0.82461396 13.01712039 0 0 Z " fill="#6B67F6" transform="translate(433,271)"/>
<path d="M0 0 C3.52295745 1.31480478 6.61527293 2.86974072 9.80078125 4.86328125 C10.69603516 5.42080078 11.59128906 5.97832031 12.51367188 6.55273438 C13.43728516 7.13345703 14.36089844 7.71417969 15.3125 8.3125 C16.22451172 8.88162109 17.13652344 9.45074219 18.07617188 10.03710938 C20.71978364 11.68770855 23.36012224 13.34343751 26 15 C27.55576662 15.97301284 29.11173276 16.9457068 30.66796875 17.91796875 C31.76753906 18.60503906 32.86710937 19.29210937 34 20 C32.66666667 21 31.33333333 22 30 23 C29.29875 23.556875 28.5975 24.11375 27.875 24.6875 C26 26 26 26 24 26 C23.34 29.63 22.68 33.26 22 37 C10.58127078 31.04240214 -0.28730243 24.14179838 -11 17 C-9.750615 13.25184501 -8.10576529 12.77324357 -4.69140625 11.0625 C-2.67580728 9.95734403 -2.67580728 9.95734403 -1 7 C-0.60612212 4.67612053 -0.26513915 2.34206251 0 0 Z " fill="#6965F6" transform="translate(374,165)"/>
<path d="M0 0 C0.04898438 0.67546875 0.09796875 1.3509375 0.1484375 2.046875 C0.22320312 2.93890625 0.29796875 3.8309375 0.375 4.75 C0.47941406 6.07257813 0.47941406 6.07257813 0.5859375 7.421875 C1.00648233 10.04036167 1.58416609 11.76809516 3 14 C4.65261839 15.02304948 6.31791365 16.02616054 8 17 C8 17.66 8 18.32 8 19 C7.35039307 19.33733154 6.70078613 19.67466309 6.03149414 20.0222168 C3.04114888 21.5760054 0.05182022 23.1317403 -2.9375 24.6875 C-3.95908203 25.21794922 -4.98066406 25.74839844 -6.03320312 26.29492188 C-11.50195848 29.14286796 -16.92324849 32.03885607 -22.26000977 35.12817383 C-24 36 -24 36 -26 36 C-26.08636719 35.18015625 -26.17273438 34.3603125 -26.26171875 33.515625 C-26.94944299 26.82012872 -26.94944299 26.82012872 -30.5 21.375 C-31.325 20.92125 -32.15 20.4675 -33 20 C-33.66 19.34 -34.32 18.68 -35 18 C-18.88671875 9.2109375 -18.88671875 9.2109375 -15.96240234 7.62011719 C-13.93191447 6.50965753 -11.90641835 5.39003551 -9.88525391 4.26269531 C-8.89831543 3.71452148 -7.91137695 3.16634766 -6.89453125 2.6015625 C-6.0022583 2.10221191 -5.10998535 1.60286133 -4.19067383 1.08837891 C-2 0 -2 0 0 0 Z " fill="#6965F6" transform="translate(275,161)"/>
<path d="M0 0 C2.42672851 0.94372775 4.75729939 1.86298405 7.02734375 3.14453125 C9.46284855 4.20072046 10.95102013 4.05425606 13.5625 3.6875 C14.32691406 3.58824219 15.09132812 3.48898437 15.87890625 3.38671875 C18.17759623 3.0191013 18.17759623 3.0191013 21 2 C21.20100772 14.6858203 20.58707468 27.33105335 20 40 C19.45947998 39.71632568 18.91895996 39.43265137 18.36206055 39.14038086 C17.64832275 38.77307861 16.93458496 38.40577637 16.19921875 38.02734375 C15.49369873 37.66116943 14.78817871 37.29499512 14.0612793 36.91772461 C11.18266518 35.63610546 9.10158173 35.51753173 6 36 C3.28873616 37.42621684 3.28873616 37.42621684 1 39 C0.34 39 -0.32 39 -1 39 C-1.15552202 25.97071086 -0.68257988 13.01077137 0 0 Z " fill="#6B67F6" transform="translate(187,263)"/>
<path d="M0 0 C3.53633679 2.0684234 5.39096547 3.29900963 6.7734375 7.16015625 C7.20530953 9.60064066 7.36011571 11.54587813 7 14 C4.625 17 4.625 17 2 19 C1.67 19.33 1.34 19.66 1 20 C-3.76149689 20.68864624 -7.01111938 20.7004571 -11 17.875 C-13.24451616 14.64850802 -14 12.92438428 -14 9 C-12.74365054 5.44034319 -11.62302702 3.50515704 -8.6875 1.125 C-5.39972755 -0.25127684 -3.53319608 -0.57684834 0 0 Z " fill="#6B67F7" transform="translate(374,494)"/>
<path d="M0 0 C2.97672584 1.77280561 5.42804007 3.85608015 7 7 C7.50250607 10.08682302 7.45017471 12.17108052 5.94140625 14.94921875 C3.94615623 17.6149593 2.26866223 19.60228446 -0.96875 20.6171875 C-4.65491862 20.85820622 -7.43235769 20.12447655 -10.5 18.0625 C-13.43908436 14.46212166 -13.76995019 12.67425289 -13.46875 8.15625 C-12.77989736 4.98752784 -11.33200445 3.19482772 -9 1 C-5.85088521 -0.57455739 -3.47991184 -0.34799118 0 0 Z " fill="#6965F6" transform="translate(283,519)"/>
<path d="M0 0 C3.71627428 0.95084362 5.54325283 2.63552694 8 5.51171875 C9.11630697 8.28539984 9.42235797 10.54942726 9 13.51171875 C6.98084478 17.21350332 5.81166307 18.86018487 1.87109375 20.27734375 C-2.12784744 21.00811473 -5.13882837 20.96513998 -8.5625 18.63671875 C-11.3759875 15.0296835 -11.84777932 13.20415279 -11.51171875 8.73828125 C-10.12816102 2.71822088 -6.49647935 -0.55367722 0 0 Z " fill="#6865F6" transform="translate(332,536.48828125)"/>
</svg>
