<?xml version="1.0" encoding="UTF-8"?>
<svg version="1.1" xmlns="http://www.w3.org/2000/svg" width="640" height="640">
<path d="M0 0 C211.2 0 422.4 0 640 0 C640 211.2 640 422.4 640 640 C428.8 640 217.6 640 0 640 C0 428.8 0 217.6 0 0 Z " fill="#FEFEFE" transform="translate(0,0)"/>
<path d="M0 0 C3.24784713 1.33516778 6.22475686 3.03703333 9.25 4.8125 C10.54478271 5.55040771 10.54478271 5.55040771 11.86572266 6.30322266 C13.67304884 7.33602736 15.47655948 8.37553506 17.27636719 9.42138672 C19.94671803 10.96911785 22.63080784 12.489752 25.3203125 14.00390625 C27.0057427 14.95999611 28.6906585 15.91699348 30.375 16.875 C31.15262695 17.31432861 31.93025391 17.75365723 32.73144531 18.20629883 C43.79313676 24.58627352 43.79313676 24.58627352 46 29 C46.11570235 30.66820855 46.16954908 32.34088596 46.19287109 34.01293945 C46.20893402 35.05774979 46.22499695 36.10256012 46.24154663 37.17903137 C46.28593806 41.95943606 46.3270588 46.73970116 46.35009766 51.52026367 C46.36666456 54.04314392 46.39396384 56.56597709 46.43212891 59.08862305 C46.48683189 62.7220907 46.50876249 66.35445753 46.5234375 69.98828125 C46.54610687 71.11551102 46.56877625 72.24274078 46.59213257 73.40412903 C46.57102521 81.21202433 46.57102521 81.21202433 43.79077148 85.04858398 C41.16956324 86.88143478 38.5992373 88.64340853 35.82421875 90.234375 C34.83848877 90.80454346 33.85275879 91.37471191 32.8371582 91.9621582 C31.797771 92.552146 30.75838379 93.14213379 29.6875 93.75 C28.62039795 94.36254639 27.5532959 94.97509277 26.45385742 95.60620117 C24.30821027 96.83595437 22.16053052 98.06216856 20.01074219 99.28466797 C17.34566605 100.80306117 14.69043364 102.33675979 12.0390625 103.87890625 C10.63057546 104.69074144 9.22175038 105.50199059 7.8125 106.3125 C7.18496826 106.67891602 6.55743652 107.04533203 5.91088867 107.42285156 C2.62919041 109.28618486 -0.24563927 110.51214522 -4 111 C-4.0424585 111.55220215 -4.08491699 112.1044043 -4.12866211 112.67333984 C-4.80604733 120.41197651 -6.15883975 127.98940277 -7.5625 135.625 C-7.91344727 137.56052734 -7.91344727 137.56052734 -8.27148438 139.53515625 C-8.84416743 142.69075678 -9.42041653 145.84566088 -10 149 C-9.29915283 149.39268066 -8.59830566 149.78536133 -7.8762207 150.18994141 C-4.68119396 151.98930855 -1.49690555 153.80690746 1.6875 155.625 C2.79029297 156.24246094 3.89308594 156.85992187 5.02929688 157.49609375 C6.09599609 158.10839844 7.16269531 158.72070312 8.26171875 159.3515625 C9.24100342 159.90666504 10.22028809 160.46176758 11.22924805 161.03369141 C17.29166981 165.33598631 17.29166981 165.33598631 19 169 C19.52213284 173.09374859 19.24868022 177.08567023 18.99609375 181.1953125 C18.91334165 183.62751466 18.83335128 186.05981206 18.75585938 188.4921875 C18.60760489 192.30612597 18.43806192 196.1152475 18.21850586 199.92578125 C16.6701177 214.90990218 16.6701177 214.90990218 21.95898438 228.23461914 C24.79935755 230.90274932 27.87255441 232.9638749 31.24133301 234.90455627 C34.05683072 236.65828186 36.25680297 238.871837 38.625 241.1875 C41.46522064 243.87747006 43.20225842 245.19314109 47 246 C60.51877012 227.80319086 62.88886458 213.2858913 61.875 191 C61.79635512 188.26721263 61.73974343 185.5341115 61.68359375 182.80078125 C61.53150344 176.19653431 61.29912408 169.59914033 61 163 C59.88020752 162.37150146 58.76041504 161.74300293 57.60668945 161.09545898 C52.14882908 158.03216171 48.9567531 154.0297743 47 148 C46.59254741 143.75177922 46.58619398 139.51142009 46.57446289 135.24487305 C46.56259033 133.20303416 46.51338489 131.1642469 46.46289062 129.12304688 C46.42138185 121.48165838 46.67681088 115.78455734 52 110 C57.68501683 104.34339909 62.10834594 102.69999714 70.03808594 102.70947266 C70.84511963 102.70275543 71.65215332 102.69603821 72.48364258 102.68911743 C75.15061613 102.67012685 77.81733804 102.66621235 80.484375 102.6640625 C82.34279483 102.65763401 84.20121364 102.65090561 86.05963135 102.64389038 C89.95677027 102.63191404 93.85382054 102.62820979 97.75097656 102.62939453 C102.73204617 102.62959744 107.71254346 102.60232573 112.69347763 102.56785011 C116.53349388 102.54555095 120.37337322 102.54155796 124.21344757 102.54261398 C126.04897275 102.5402614 127.8845019 102.53145724 129.71996307 102.51594925 C132.29515438 102.49623317 134.86912264 102.50214938 137.44433594 102.51416016 C138.56995941 102.49730164 138.56995941 102.49730164 139.71832275 102.48010254 C146.1006818 102.55530063 151.50559496 104.49139531 156.05859375 109.0703125 C156.51363281 109.74835938 156.96867188 110.42640625 157.4375 111.125 C157.91058594 111.80820313 158.38367188 112.49140625 158.87109375 113.1953125 C162.13238918 118.40887128 161.26298561 124.40299923 161.29516602 130.38330078 C161.30663969 131.8671221 161.32701807 133.35090366 161.35668945 134.83447266 C161.66426649 150.21332448 161.66426649 150.21332448 157 157 C154.28641827 159.81228179 151.75876359 161.7470788 148 163 C147.76563946 170.51133497 147.58930532 178.02228002 147.48187828 185.5364666 C147.43024588 189.02808932 147.36055636 192.51716672 147.24560547 196.00732422 C146.71975547 212.40068967 146.75353582 225.80309121 156.82501221 239.40142822 C158.37482525 241.50995003 159.69197937 243.73576371 161 246 C161.00410889 245.12263184 161.00821777 244.24526367 161.01245117 243.34130859 C161.03953349 240.06413123 161.08871898 236.78879541 161.15258789 233.51220703 C161.17568526 232.09826063 161.19014419 230.68414421 161.19555664 229.27001953 C161.24962391 217.46671784 161.24962391 217.46671784 163.80859375 212.46484375 C168.14379739 208.52304689 173.74390748 205.92221357 178.875 203.1875 C181.13277303 201.96195863 183.38928862 200.73409785 185.64453125 199.50390625 C186.73588379 198.90980957 187.82723633 198.31571289 188.95166016 197.70361328 C191.58571635 196.23152902 194.1510784 194.70447887 196.69921875 193.08984375 C197.36646973 192.66743408 198.0337207 192.24502441 198.72119141 191.80981445 C200.42793731 190.71158615 202.12272757 189.59483774 203.81640625 188.4765625 C207.80098525 186.62850009 210.75714236 185.98926806 215 187 C219.39349459 188.97944077 223.45367426 191.42843417 227.5625 193.9375 C228.72261489 194.63082745 229.88359113 195.3227156 231.04541016 196.01318359 C233.33064091 197.37451068 235.60863916 198.74602781 237.88427734 200.12353516 C240.53812612 201.72183336 243.20598406 203.28536793 245.89453125 204.82421875 C247.22142179 205.59102884 248.54825152 206.35794415 249.875 207.125 C250.98617188 207.76695312 252.09734375 208.40890625 253.2421875 209.0703125 C256.41432541 211.28991042 257.99872579 212.65148682 260 216 C260.5904145 219.89507797 260.53640904 223.75449129 260.49609375 227.6875 C260.49754898 228.82276123 260.49900421 229.95802246 260.50050354 231.12768555 C260.49884554 233.52492848 260.48729548 235.92218217 260.46655273 238.31933594 C260.43760428 241.98678852 260.44594584 245.65279485 260.45898438 249.3203125 C260.45274662 251.65104869 260.4443554 253.98178031 260.43359375 256.3125 C260.43652939 257.40844482 260.43946503 258.50438965 260.44248962 259.63354492 C260.42980545 260.65810791 260.41712128 261.6826709 260.40405273 262.73828125 C260.39864975 263.63587158 260.39324677 264.53346191 260.38768005 265.45825195 C259.91226624 268.57520913 258.82917018 270.44965813 257 273 C254.3112793 274.90942383 254.3112793 274.90942383 251.07421875 276.70703125 C250.49017776 277.03611984 249.90613678 277.36520844 249.30439758 277.70426941 C247.43845977 278.7522432 245.56349163 279.78265296 243.6875 280.8125 C242.47005098 281.49167085 241.2532479 282.17200094 240.03710938 282.85351562 C238.21038874 283.87707244 236.38218172 284.89702316 234.54684448 285.90505981 C231.40014424 287.63567993 228.29894864 289.41124739 225.24072266 291.29443359 C224.6266304 291.66581955 224.01253815 292.03720551 223.37983704 292.41984558 C221.68833088 293.4471591 220.00746749 294.49193814 218.32739258 295.5378418 C214.02639457 297.42783204 211.67924843 297.46858971 207 297 C203.98046875 295.80664062 203.98046875 295.80664062 201.1875 294.15625 C200.17558594 293.56972656 199.16367187 292.98320312 198.12109375 292.37890625 C197.09113281 291.75886719 196.06117188 291.13882812 195 290.5 C193.93910156 289.87996094 192.87820313 289.25992187 191.78515625 288.62109375 C189.18061921 287.0959144 186.5865182 285.55547502 184 284 C184.94578896 286.83736688 186.08297966 289.06345748 187.5546875 291.65625 C188.0820752 292.58759766 188.60946289 293.51894531 189.15283203 294.47851562 C189.72114746 295.47560547 190.28946289 296.47269531 190.875 297.5 C191.45491699 298.52287109 192.03483398 299.54574219 192.63232422 300.59960938 C195.46260802 305.58214445 198.31309704 310.55186702 201.203125 315.5 C201.69699707 316.34626953 202.19086914 317.19253906 202.69970703 318.06445312 C203.62382479 319.64358961 204.55166208 321.22055759 205.48388672 322.79492188 C212.78814878 335.25892137 215.51038649 348.5039875 212.09375 362.7890625 C209.707165 369.321574 206.6212138 374.81550393 202 380 C201.52304687 380.59167969 201.04609375 381.18335938 200.5546875 381.79296875 C193.65739543 389.6434042 181.60651179 395.48636946 171.18444443 396.1901207 C167.67226119 396.27455228 164.16506561 396.29306631 160.65185547 396.29052734 C159.30247122 396.29651935 157.95309039 396.30332644 156.60371399 396.31088257 C152.95252713 396.32848671 149.30143415 396.33323573 145.65020895 396.33451414 C143.36304988 396.33594008 141.07591434 396.34021815 138.78876114 396.34550858 C130.79210152 396.36399414 122.7955084 396.37218151 114.79882812 396.37060547 C107.37400428 396.36940619 99.94947211 396.39047018 92.52472198 396.4220928 C86.12781386 396.44835543 79.73100038 396.45896852 73.33403885 396.45769465 C69.5235105 396.45718771 65.71324128 396.46272022 61.90276718 396.48405075 C58.31239952 396.5036012 54.72253355 396.5034449 51.13214684 396.48901749 C49.20834762 396.48597254 47.28454745 396.50248969 45.36082458 396.51989746 C32.83653432 396.43065595 22.29083764 393.13021474 12 386 C10.96875 385.29875 9.9375 384.5975 8.875 383.875 C-0.19538681 375.78380268 -5.19203771 364.12170429 -6.375 352.23046875 C-6.98730748 333.34460979 4.23504312 317.85137016 13.625 302.1875 C13.98158691 301.58405762 14.33817383 300.98061523 14.70556641 300.35888672 C16.53604035 297.29319472 18.44197071 294.35706859 20.55859375 291.48046875 C27.21751561 282.12174258 29.49626934 272.79119966 27.66503906 261.30078125 C25.99824875 255.53432315 21.48004733 252.36710646 16.68554688 249.15429688 C13.95040506 247.28121598 11.47590927 245.13117783 8.9375 243 C8.05964844 242.29875 7.18179688 241.5975 6.27734375 240.875 C4 239 4 239 2.56640625 237.1875 C0.97481611 235.73158391 0.97481611 235.73158391 -1.65625 236.0078125 C-6.06376459 237.31564977 -9.61079055 239.46218641 -13.5 241.875 C-27.66315555 250.51228467 -27.66315555 250.51228467 -34 250 C-36.7980957 248.78173828 -36.7980957 248.78173828 -39.67578125 247.0703125 C-40.74368896 246.44431152 -41.81159668 245.81831055 -42.91186523 245.17333984 C-44.03407471 244.4973877 -45.15628418 243.82143555 -46.3125 243.125 C-47.4760154 242.4346493 -48.64016401 241.74536473 -49.80493164 241.05712891 C-52.1243437 239.68500043 -54.43968165 238.30631807 -56.75292969 236.92382812 C-59.61101217 235.23046798 -62.4860271 233.57904121 -65.3828125 231.953125 C-66.16358154 231.51081543 -66.94435059 231.06850586 -67.7487793 230.61279297 C-69.16489856 229.81193132 -70.58539736 229.01874418 -72.01098633 228.23486328 C-76.00972138 225.93792628 -78.16462557 224.23266663 -80 220 C-80.46541386 216.19021422 -80.46802879 212.40107797 -80.46875 208.56640625 C-80.47636353 207.45571274 -80.48397705 206.34501923 -80.49182129 205.20066833 C-80.50261342 202.85474899 -80.50547902 200.50878164 -80.50097656 198.1628418 C-80.50000433 194.5784476 -80.54163788 190.9961946 -80.5859375 187.41210938 C-80.59114473 185.13021279 -80.59383269 182.84830878 -80.59375 180.56640625 C-80.61014526 179.49749649 -80.62654053 178.42858673 -80.64343262 177.32728577 C-80.56652608 169.02566597 -80.56652608 169.02566597 -77.8137207 165.49902344 C-75.09419416 163.08365913 -72.55426923 161.22773024 -69.38671875 159.44921875 C-68.31043213 158.83699463 -67.23414551 158.22477051 -66.12524414 157.59399414 C-64.42356079 156.65027954 -64.42356079 156.65027954 -62.6875 155.6875 C-61.51563562 155.02760312 -60.34433282 154.36670798 -59.17358398 153.70483398 C-56.85763984 152.39765129 -54.53797184 151.09798003 -52.21582031 149.80175781 C-49.40984745 148.22962908 -46.6190073 146.63562928 -43.8359375 145.0234375 C-42.41150866 144.20303762 -40.98703404 143.3827172 -39.5625 142.5625 C-38.92594482 142.1914917 -38.28938965 141.8204834 -37.63354492 141.43823242 C-34.85017487 139.85697461 -33.26162651 139 -30 139 C-29.82984375 137.86046875 -29.6596875 136.7209375 -29.484375 135.546875 C-27.66974644 123.62017473 -25.45186641 111.81127523 -23 100 C-23.77988281 99.79117188 -24.55976563 99.58234375 -25.36328125 99.3671875 C-30.32373357 97.5023558 -34.66100696 94.85859536 -39.1875 92.125 C-40.08919922 91.59519531 -40.99089844 91.06539063 -41.91992188 90.51953125 C-42.78552734 90.00003906 -43.65113281 89.48054688 -44.54296875 88.9453125 C-45.7189563 88.24172607 -45.7189563 88.24172607 -46.91870117 87.52392578 C-49.95949214 85.29746042 -51.78399094 83.34330423 -52.39440918 79.54727173 C-52.40282837 78.6327121 -52.41124756 77.71815247 -52.41992188 76.77587891 C-52.43583374 75.73444733 -52.45174561 74.69301575 -52.46813965 73.62002563 C-52.46844177 71.94026138 -52.46844177 71.94026138 -52.46875 70.2265625 C-52.48017029 68.49181168 -52.48017029 68.49181168 -52.49182129 66.72201538 C-52.50262528 64.2759619 -52.5054742 61.82986227 -52.50097656 59.38378906 C-52.50000538 55.64569881 -52.54160416 51.90966828 -52.5859375 48.171875 C-52.59114534 45.79427511 -52.59383268 43.41666809 -52.59375 41.0390625 C-52.6183429 39.36537094 -52.6183429 39.36537094 -52.64343262 37.65786743 C-52.56651754 28.99767974 -52.56651754 28.99767974 -49.77050781 25.43994141 C-47.26272892 23.23138111 -45.00723248 21.50994532 -42.078125 19.921875 C-41.14291016 19.40520264 -40.20769531 18.88853027 -39.24414062 18.35620117 C-38.25607422 17.82615479 -37.26800781 17.2961084 -36.25 16.75 C-34.18130733 15.6176819 -32.11360703 14.48354902 -30.046875 13.34765625 C-29.02529297 12.78836426 -28.00371094 12.22907227 -26.95117188 11.65283203 C-24.24448969 10.13692879 -21.59294112 8.56247304 -18.953125 6.93359375 C-18.19483398 6.46791992 -17.43654297 6.00224609 -16.65527344 5.52246094 C-15.26054622 4.65857688 -13.87261007 3.78358911 -12.49316406 2.89550781 C-8.10378671 0.20320592 -5.11063885 -0.7964632 0 0 Z " fill="#072C76" transform="translate(216,139)"/>
<path d="M0 0 C3.85248073 1.69723888 7.39424962 3.83607432 11 6 C13.08361106 7.16407081 15.17094876 8.32149304 17.26171875 9.47265625 C19.40400637 10.66862524 21.54593091 11.86524484 23.6875 13.0625 C24.76322266 13.66126953 25.83894531 14.26003906 26.94726562 14.87695312 C29.97395275 16.5691548 32.98943766 18.27930565 36 20 C36.80646973 20.4522998 37.61293945 20.90459961 38.44384766 21.37060547 C39.14944824 21.7832666 39.85504883 22.19592773 40.58203125 22.62109375 C41.17862549 22.96454834 41.77521973 23.30800293 42.38989258 23.66186523 C45.2949167 26.07618475 46.83601813 28.86368757 47.3742218 32.59317017 C47.37359238 33.5145578 47.37296295 34.43594543 47.37231445 35.38525391 C47.37854324 36.43629303 47.38477203 37.48733215 47.39118958 38.57022095 C47.37737495 40.25636002 47.37737495 40.25636002 47.36328125 41.9765625 C47.36402901 43.71986343 47.36402901 43.71986343 47.36479187 45.49838257 C47.36245435 47.95108758 47.35274491 50.40379512 47.33618164 52.85644531 C47.31254364 56.61805558 47.31562913 60.37895911 47.32226562 64.140625 C47.3166903 66.52344174 47.30958134 68.90625549 47.30078125 71.2890625 C47.30169266 72.41720367 47.30260406 73.54534485 47.30354309 74.70767212 C47.29401108 75.75240692 47.28447906 76.79714172 47.2746582 77.87353516 C47.27005081 78.7933316 47.26544342 79.71312805 47.26069641 80.66079712 C47 83 47 83 45 86 C45.54527344 86.22558594 46.09054687 86.45117188 46.65234375 86.68359375 C49.69808369 88.39143794 52.05311194 90.67062475 54.5625 93.0625 C63.60939608 101.98173556 63.60939608 101.98173556 74 109 C76.64972521 107.82074721 76.64972521 107.82074721 79.62890625 106.0703125 C80.74587891 105.43996094 81.86285156 104.80960937 83.01367188 104.16015625 C84.19662828 103.48179471 85.37957082 102.803409 86.5625 102.125 C87.74895354 101.45372772 88.93579796 100.78314579 90.12304688 100.11328125 C95.3545408 97.46594253 95.3545408 97.46594253 100 94 C105.71827119 93.2873887 109.12816173 95.31768976 113.875 98.125 C114.63514404 98.56295898 115.39528809 99.00091797 116.1784668 99.45214844 C117.86047339 100.42344566 119.53927293 101.40031143 121.21533203 102.38183594 C124.24114044 104.14012615 127.28870821 105.85637748 130.33984375 107.5703125 C132.49791908 108.79595414 134.65547654 110.02250811 136.8125 111.25 C137.8442334 111.82766113 138.8759668 112.40532227 139.93896484 113.00048828 C140.91430176 113.5623584 141.88963867 114.12422852 142.89453125 114.703125 C143.75925049 115.19458008 144.62396973 115.68603516 145.51489258 116.19238281 C149.55352642 119.13000389 152.53814738 121.45246548 153.44758606 126.46884155 C153.62893846 129.51352178 153.64052781 132.51666853 153.59375 135.56640625 C153.59379028 136.67805649 153.59383057 137.78970673 153.59387207 138.93504333 C153.58852262 141.27926301 153.57096482 143.62348257 153.54199219 145.9675293 C153.50010185 149.55378035 153.50092918 153.13815464 153.5078125 156.72460938 C153.49732081 159.00522137 153.48438282 161.2858237 153.46875 163.56640625 C153.46854858 164.63734024 153.46834717 165.70827423 153.46813965 166.81166077 C153.31686932 176.33092056 153.31686932 176.33092056 150 180 C147.54248047 181.78588867 147.54248047 181.78588867 144.6171875 183.41796875 C143.53969238 184.02825928 142.46219727 184.6385498 141.35205078 185.26733398 C140.20462402 185.90098877 139.05719727 186.53464355 137.875 187.1875 C136.6957582 187.84910701 135.51721275 188.51195667 134.33935547 189.17602539 C132.57017221 190.17334342 130.80057884 191.16980259 129.02822876 192.16148376 C125.53104555 194.12079717 122.0713945 196.12987322 118.640625 198.203125 C117.86605957 198.67081299 117.09149414 199.13850098 116.29345703 199.62036133 C114.88451383 200.47616504 113.47901645 201.33767703 112.07763672 202.20581055 C108.67028189 204.2586203 107.09171845 205 103 205 C101.43664515 213.55864913 99.90242534 222.1223736 98.375 230.6875 C98.14554688 231.97333984 97.91609375 233.25917969 97.6796875 234.58398438 C97.11963216 237.72262783 96.55973959 240.86130022 96 244 C95.01257813 243.43410156 94.02515625 242.86820313 93.0078125 242.28515625 C91.71355794 241.54424241 90.41928621 240.80335855 89.125 240.0625 C88.47402344 239.68931641 87.82304687 239.31613281 87.15234375 238.93164062 C81.86505123 235.90643717 78.1971169 233.84555178 72 235 C67.59682531 236.95587616 63.54531148 239.42916929 59.4375 241.9375 C58.27812777 242.63011278 57.11788396 243.32126862 55.95678711 244.01098633 C53.67218662 245.3714274 51.394965 246.74224172 49.12011719 248.11914062 C46.45181109 249.72764064 43.7700951 251.3045742 41.0703125 252.859375 C33.54416491 256.82379577 33.54416491 256.82379577 28 263 C27.49462846 266.48315506 27.49462846 266.48315506 27.48828125 270.390625 C27.47033005 271.09523865 27.45237885 271.79985229 27.43388367 272.52581787 C27.37988142 274.76715179 27.34591912 277.00827405 27.3125 279.25 C27.27931782 280.77346689 27.24482731 282.29690589 27.20898438 283.8203125 C27.12416262 287.5466716 27.05730276 291.27310463 27 295 C25.99846192 293.66782161 24.99879306 292.33423769 24 291 C23.53096756 290.37600815 23.06193512 289.7520163 22.57868958 289.1091156 C11.4257452 273.68627866 10.17954031 259.72094273 10.65142822 241.09405518 C10.70009778 238.35299547 10.6694018 235.61496588 10.63907146 232.8738184 C10.61318971 229.57291747 10.65846031 226.27330666 10.69921875 222.97265625 C10.68600838 221.1492849 10.68600838 221.1492849 10.67253113 219.28907776 C10.94895711 211.05851874 10.94895711 211.05851874 14.00152588 207.98423767 C16.42358398 206.40039062 16.42358398 206.40039062 18.83055115 205.18640137 C21.84123239 203.53995723 23.07890878 201.68538351 24.38183594 198.56591797 C25.67608888 193.19364372 25.66517116 187.7153141 25.63134766 182.21899414 C25.62501933 180.06906571 25.67205095 177.92464194 25.72265625 175.77539062 C25.79214325 168.61542932 25.35819283 162.81599917 21.07177734 156.79467773 C15.4739245 151.94553606 9.77538601 150.40281762 2.5078125 150.46655273 C1.7001947 150.45793716 0.8925769 150.44932159 0.06048584 150.44044495 C-2.58501062 150.41791042 -5.22943705 150.42449979 -7.875 150.43359375 C-9.72770499 150.428353 -11.58040731 150.42207487 -13.43310547 150.41481018 C-17.3064433 150.40442939 -21.1794132 150.40893456 -25.05273438 150.42358398 C-30.00249489 150.44077772 -34.95109517 150.41725724 -39.90072632 150.38209438 C-43.72362883 150.36007683 -47.5462555 150.36157223 -51.36920166 150.3698597 C-53.19355544 150.37067665 -55.01792998 150.36386247 -56.84222412 150.34908867 C-59.39813478 150.33155907 -61.95198269 150.34625243 -64.5078125 150.36889648 C-65.6240097 150.35135818 -65.6240097 150.35135818 -66.76275635 150.33346558 C-72.5675472 150.43747436 -76.46030651 152.43538728 -81 156 C-87.38422208 162.88823961 -87.37277934 168.53202669 -87.37060547 177.6796875 C-87.3749576 179.73002538 -87.41123836 181.77817062 -87.44921875 183.828125 C-87.47294884 191.86471619 -87.40099455 198.42088763 -81.55224609 204.50634766 C-78.91397839 206.83257111 -76.15182802 208.49201332 -73 210 C-72.64630865 217.25920081 -72.38298068 224.51643925 -72.22281742 231.78262997 C-72.14575107 235.16160741 -72.03352373 238.5300373 -71.8684082 241.90649414 C-70.82229511 263.88307384 -74.86249873 276.61946774 -88 294 C-92.40541771 292.37901681 -95.28879056 290.17492012 -98.625 286.9375 C-103.50311389 282.30049797 -108.53527502 278.12080878 -113.91796875 274.0703125 C-116.8403263 271.16440349 -116.94302412 268.52837321 -117.09333801 264.49621582 C-117.07190987 263.17647766 -117.07190987 263.17647766 -117.05004883 261.83007812 C-117.03706253 260.82553589 -117.02407623 259.82099365 -117.01069641 258.78601074 C-116.99298691 257.7119397 -116.9752774 256.63786865 -116.95703125 255.53125 C-116.93464994 253.24610236 -116.91319378 250.9609455 -116.89257812 248.67578125 C-116.85543447 245.08096442 -116.81227994 241.48661698 -116.75317383 237.89208984 C-116.69872849 234.41757349 -116.66960437 230.94358601 -116.64453125 227.46875 C-116.62074905 226.39467896 -116.59696686 225.32060791 -116.57246399 224.21398926 C-116.53392978 218.35191703 -116.53392978 218.35191703 -118.671875 212.99853516 C-121.20576717 210.82336304 -123.68224311 209.17220087 -126.60546875 207.5546875 C-128.20358398 206.65169922 -128.20358398 206.65169922 -129.83398438 205.73046875 C-131.49397461 204.81201172 -131.49397461 204.81201172 -133.1875 203.875 C-135.39397532 202.65158256 -137.59605954 201.42020089 -139.79296875 200.1796875 C-140.7677417 199.64069824 -141.74251465 199.10170898 -142.74682617 198.54638672 C-145 197 -145 197 -146 194 C-145.60096254 188.89748994 -144.80654209 183.87844552 -143.96362305 178.83227539 C-143.6983115 177.16564091 -143.46081799 175.49431636 -143.25268555 173.81958008 C-141.56855336 160.39304554 -141.56855336 160.39304554 -137.44485474 156.55111694 C-133.59992525 154.00556405 -129.40004968 152.41499289 -125.0909729 150.82852173 C-121.83122379 149.53688712 -118.94858149 147.82267562 -115.92578125 146.04296875 C-114.82685547 145.40552734 -113.72792969 144.76808594 -112.59570312 144.11132812 C-111.51224609 143.47646484 -110.42878906 142.84160156 -109.3125 142.1875 C-107.62350586 141.20620117 -107.62350586 141.20620117 -105.90039062 140.20507812 C-102.9294732 138.4768974 -99.96146611 136.74432255 -97 135 C-95.65071411 134.24843628 -95.65071411 134.24843628 -94.27416992 133.48168945 C-91.74744453 132.04836278 -91.74744453 132.04836278 -90 129 C-89.709846 126.51421865 -89.709846 126.51421865 -89.77294922 123.70239258 C-89.77317581 122.08105156 -89.77317581 122.08105156 -89.77340698 120.42695618 C-89.78372955 119.26125595 -89.79405212 118.09555573 -89.8046875 116.89453125 C-89.80893234 115.10301888 -89.80893234 115.10301888 -89.81326294 113.27531433 C-89.82447323 109.45427503 -89.84957963 105.63346866 -89.875 101.8125 C-89.88502869 99.22461276 -89.89415473 96.63672184 -89.90234375 94.04882812 C-89.92441535 87.69913904 -89.9579014 81.34958616 -90 75 C-82.74306326 72.06883757 -75.45414064 69.32349191 -68.0625 66.75 C-67.03576172 66.38648438 -66.00902344 66.02296875 -64.95117188 65.6484375 C-63.96826172 65.30554688 -62.98535156 64.96265625 -61.97265625 64.609375 C-61.08843994 64.29967773 -60.20422363 63.98998047 -59.29321289 63.67089844 C-57 63 -57 63 -54 63 C-54.0314209 61.49433472 -54.0314209 61.49433472 -54.06347656 59.95825195 C-54.13606694 56.22174434 -54.18186811 52.48529863 -54.21972656 48.74829102 C-54.23979892 47.13327542 -54.2670633 45.51833211 -54.30175781 43.90356445 C-54.35047215 41.57745499 -54.37301154 39.25230907 -54.390625 36.92578125 C-54.41127014 36.20787918 -54.43191528 35.48997711 -54.45318604 34.75032043 C-54.45472695 31.28045964 -54.11664837 29.19231444 -52.30444336 26.20458984 C-49.896062 23.90056572 -47.66677871 22.38489872 -44.73828125 20.80078125 C-43.70952881 20.23568848 -42.68077637 19.6705957 -41.62084961 19.08837891 C-40.52909424 18.50233887 -39.43733887 17.91629883 -38.3125 17.3125 C-36.04835825 16.07887799 -33.78534069 14.84319049 -31.5234375 13.60546875 C-30.41323242 12.99880371 -29.30302734 12.39213867 -28.15917969 11.76708984 C-25.34560195 10.19331274 -22.59111575 8.56167282 -19.8515625 6.86328125 C-19.09576904 6.39688232 -18.33997559 5.9304834 -17.5612793 5.44995117 C-16.19191324 4.59565187 -14.83061875 3.72820758 -13.47973633 2.8449707 C-9.0387728 0.09802505 -5.11883507 -1.19992218 0 0 Z " fill="#6965F6" transform="translate(351,92)"/>
<path d="M0 0 C14.52 0 29.04 0 44 0 C44.00257813 4.40859375 44.00515625 8.8171875 44.0078125 13.359375 C44.02666613 16.90597365 44.05148411 20.45242071 44.08029175 23.99894714 C44.10894527 27.72554112 44.12743599 31.45151097 44.12011719 35.17822266 C44.11346108 38.77730962 44.13635771 42.37517291 44.17855453 45.97400665 C44.19488752 47.99430669 44.1817149 50.01477738 44.16775513 52.03509521 C44.30812255 61.07654914 46.34068047 67.28881417 51 75 C51.51285553 75.89638184 52.02571106 76.79276367 52.55410767 77.71630859 C53.98098074 80.20761173 55.45440222 82.66678819 56.9375 85.125 C58.08455851 87.04614401 59.23033837 88.96805191 60.375 90.890625 C60.96796875 91.88642578 61.5609375 92.88222656 62.171875 93.90820312 C65.30397286 99.20533017 68.36995568 104.54031328 71.4375 109.875 C76.2654317 118.26553549 81.1149389 126.64259213 86 135 C90.74455949 143.12305519 95.47806576 151.25238586 100.18725586 159.39599609 C101.16208903 161.08107506 102.13863891 162.76516052 103.11523438 164.44921875 C104.00758789 165.99416016 104.00758789 165.99416016 104.91796875 167.5703125 C105.44156982 168.47539551 105.9651709 169.38047852 106.50463867 170.31298828 C110.86851018 178.15442008 112.11725255 183.38954429 110.25 192.1875 C108.15345359 199.45361289 103.13140562 204.76692993 97 209 C92.93419455 210.58085532 89.53423956 211.25162158 85.18267822 211.26069641 C84.04455688 211.26778122 82.90643555 211.27486603 81.73382568 211.28216553 C79.88219818 211.2784494 79.88219818 211.2784494 77.99316406 211.2746582 C76.68186523 211.27976913 75.37056641 211.28488007 74.01953125 211.29014587 C70.43252413 211.30350427 66.8456226 211.30411783 63.25859547 211.30158257 C60.25695192 211.30051021 57.25532949 211.30540328 54.25369048 211.310188 C47.16618112 211.32127335 40.07872476 211.32172678 32.99121094 211.31567383 C25.69874732 211.30964114 18.40647698 211.32192926 11.11404634 211.3432439 C4.83780006 211.36090858 -1.43838497 211.36685341 -7.71465516 211.36360615 C-11.45630541 211.36180008 -15.19781793 211.36436098 -18.9394455 211.37832069 C-23.11828475 211.39332854 -27.29673572 211.38388655 -31.47558594 211.37231445 C-33.31506805 211.38378006 -33.31506805 211.38378006 -35.19171143 211.39547729 C-43.34631073 211.34571318 -51.69013574 210.86568978 -58.375 205.6875 C-64.18209105 199.74214487 -67.52667354 193.12097167 -68.171875 184.77734375 C-67.61552405 173.82915184 -59.61430813 163.43961266 -54.0625 154.375 C-48.72868726 145.57878309 -43.4950644 136.73486245 -38.375 127.8125 C-34.34848935 120.80077289 -30.32202185 113.79071853 -26.18896484 106.84106445 C-25.13513339 105.05303854 -24.09927631 103.25431136 -23.08056641 101.44604492 C-20.20254123 96.39822056 -17.16764813 91.90147813 -13.4453125 87.43359375 C5.67715179 62.6992094 0.86519855 29.63974016 0 0 Z " fill="#FDFEFE" transform="translate(298,303)"/>
<path d="M0 0 C0.92401611 0.63784424 0.92401611 0.63784424 1.86669922 1.28857422 C2.4814209 1.69188965 3.09614258 2.09520508 3.72949219 2.51074219 C4.72166748 3.20127686 4.72166748 3.20127686 5.73388672 3.90576172 C11.94725779 8.09463693 18.47389533 11.72782002 24.99169922 15.41357422 C26.8528629 16.47066875 28.71351013 17.52866533 30.57391357 18.58709717 C32.32547894 19.58106198 34.08090169 20.56821964 35.83642578 21.55517578 C37.59255848 22.55973123 39.33691912 23.58680871 41.04541016 24.67041016 C45.19747149 27.30336818 47.99131504 27.6651006 52.86669922 27.28857422 C55.86050285 26.07636192 55.86050285 26.07636192 58.65966797 24.26123047 C60.22297852 23.32053711 60.22297852 23.32053711 61.81787109 22.36083984 C62.88585937 21.69761719 63.95384766 21.03439453 65.05419922 20.35107422 C67.19094535 19.04606449 69.33016822 17.74509903 71.47216797 16.44873047 C72.88212036 15.57680054 72.88212036 15.57680054 74.32055664 14.68725586 C76.59535433 13.43763308 78.29363666 12.56049857 80.86669922 12.28857422 C83.27685547 14.06201172 83.27685547 14.06201172 85.92919922 16.66357422 C86.89948594 17.59443583 87.8722106 18.5227619 88.84716797 19.44873047 C89.34394043 19.9232666 89.84071289 20.39780273 90.35253906 20.88671875 C93.5350169 23.83315341 96.96687371 26.48468318 100.35888672 29.18310547 C101.18646484 29.87791016 102.01404297 30.57271484 102.86669922 31.28857422 C103.73697754 31.90240967 104.60725586 32.51624512 105.50390625 33.14868164 C109.1757621 38.02817515 108.39109929 42.70015088 108.17919922 48.63232422 C108.16026611 49.83417358 108.14133301 51.03602295 108.12182617 52.27429199 C108.04008596 57.41308223 107.89927599 62.54988131 107.76416016 67.6875 C107.67385665 71.43984822 107.61332057 75.19187631 107.55419922 78.94482422 C107.51270752 80.10639038 107.47121582 81.26795654 107.4284668 82.46472168 C107.24863678 88.8151601 107.24863678 88.8151601 110.02758789 94.33813477 C112.84931087 96.27662861 115.63275505 98.13867033 118.60498047 99.83935547 C119.67167969 100.45488281 120.73837891 101.07041016 121.83740234 101.70458984 C122.94019531 102.33042969 124.04298828 102.95626953 125.17919922 103.60107422 C126.86239258 104.56883789 126.86239258 104.56883789 128.57958984 105.55615234 C131.33797866 107.14075868 134.10034388 108.71793058 136.86669922 110.28857422 C136.68276611 111.47108765 136.68276611 111.47108765 136.49511719 112.67749023 C136.32641113 113.76731201 136.15770508 114.85713379 135.98388672 115.97998047 C135.79922852 117.16865723 135.61457031 118.35733398 135.42431641 119.58203125 C135.07238787 121.92133908 134.73738388 124.26331365 134.42626953 126.60839844 C133.99845872 129.82383233 133.49989825 133.02246568 132.99169922 136.22607422 C132.86279297 137.30953125 132.73388672 138.39298828 132.60107422 139.50927734 C131.81958592 144.12175716 131.26807498 147.2341152 127.42089844 150.12890625 C124.28776355 151.6747634 121.1027746 152.97363608 117.86669922 154.28857422 C115.82276288 155.39742839 113.79864965 156.54362907 111.79638672 157.72607422 C110.29785156 158.60392578 110.29785156 158.60392578 108.76904297 159.49951172 C107.27050781 160.38509766 107.27050781 160.38509766 105.74169922 161.28857422 C104.73494141 161.87896484 103.72818359 162.46935547 102.69091797 163.07763672 C100.70349741 164.24489278 98.71871476 165.41665384 96.73681641 166.59326172 C94.83440458 167.71697282 92.92358454 168.82657755 91.00439453 169.92138672 C90.1159082 170.43443359 89.22742188 170.94748047 88.31201172 171.47607422 C87.52584473 171.92337891 86.73967773 172.37068359 85.9296875 172.83154297 C83.54918768 174.51282379 82.27419043 175.7229235 80.86669922 178.28857422 C80.36132768 181.77172928 80.36132768 181.77172928 80.35498047 185.67919922 C80.33702927 186.38381287 80.31907806 187.08842651 80.30058289 187.81439209 C80.24658064 190.05572601 80.21261834 192.29684827 80.17919922 194.53857422 C80.14601704 196.06204111 80.11152653 197.58548011 80.07568359 199.10888672 C79.99086184 202.83524582 79.92400198 206.56167885 79.86669922 210.28857422 C78.86516114 208.95639583 77.86549228 207.62281191 76.86669922 206.28857422 C76.39766678 205.66458237 75.92863434 205.04059052 75.44538879 204.39768982 C64.29244442 188.97485288 63.04623952 175.00951694 63.51812744 156.38262939 C63.566797 153.64156969 63.53610102 150.9035401 63.50577068 148.16239262 C63.47988893 144.86149169 63.52515953 141.56188088 63.56591797 138.26123047 C63.5527076 136.43785912 63.5527076 136.43785912 63.53923035 134.57765198 C63.81565633 126.34709296 63.81565633 126.34709296 66.8682251 123.27281189 C69.2902832 121.68896484 69.2902832 121.68896484 71.69725037 120.47497559 C74.70793161 118.82853145 75.945608 116.97395772 77.24853516 113.85449219 C78.5427881 108.48221793 78.53187038 103.00388832 78.49804688 97.50756836 C78.49171854 95.35763993 78.53875017 93.21321616 78.58935547 91.06396484 C78.65884247 83.90400354 78.22489205 78.10457339 73.93847656 72.08325195 C68.34062372 67.23411028 62.64208523 65.69139184 55.37451172 65.75512695 C54.16308502 65.7422036 54.16308502 65.7422036 52.92718506 65.72901917 C50.2816886 65.70648464 47.63726217 65.71307401 44.99169922 65.72216797 C43.13899423 65.71692722 41.28629191 65.71064909 39.43359375 65.7033844 C35.56025592 65.69300361 31.68728602 65.69750878 27.81396484 65.7121582 C22.86420433 65.72935194 17.91560405 65.70583146 12.9659729 65.6706686 C9.14307039 65.64865104 5.32044372 65.65014644 1.49749756 65.65843391 C-0.32685622 65.65925087 -2.15123076 65.65243669 -3.9755249 65.63766289 C-6.53143556 65.62013328 -9.08528348 65.63482665 -11.64111328 65.6574707 C-12.75731049 65.6399324 -12.75731049 65.6399324 -13.89605713 65.62203979 C-19.70084799 65.72604858 -23.59360729 67.7239615 -28.13330078 71.28857422 C-34.51752286 78.17681383 -34.50608012 83.82060091 -34.50390625 92.96826172 C-34.50825838 95.01859959 -34.54453914 97.06674484 -34.58251953 99.11669922 C-34.60624962 107.15329041 -34.53429533 113.70946185 -28.68554688 119.79492188 C-26.04727917 122.12114533 -23.2851288 123.78058754 -20.13330078 125.28857422 C-19.77960943 132.54777503 -19.51628146 139.80501347 -19.3561182 147.07120419 C-19.27905185 150.45018163 -19.16682452 153.81861152 -19.00170898 157.19506836 C-17.95559589 179.17164806 -21.99579951 191.90804196 -35.13330078 209.28857422 C-39.53871849 207.66759103 -42.42209134 205.46349433 -45.75830078 202.22607422 C-50.63641467 197.58907218 -55.6685758 193.409383 -61.05126953 189.35888672 C-63.97362708 186.45297771 -64.0763249 183.81694743 -64.22663879 179.78479004 C-64.21235336 178.9049646 -64.19806793 178.02513916 -64.18334961 177.11865234 C-64.17036331 176.11411011 -64.15737701 175.10956787 -64.14399719 174.07458496 C-64.12628769 173.00051392 -64.10857819 171.92644287 -64.09033203 170.81982422 C-64.06795072 168.53467658 -64.04649457 166.24951972 -64.02587891 163.96435547 C-63.98873525 160.36953864 -63.94558072 156.7751912 -63.88647461 153.18066406 C-63.83202927 149.70614771 -63.80290515 146.23216022 -63.77783203 142.75732422 C-63.75404984 141.68325317 -63.73026764 140.60918213 -63.70576477 139.50256348 C-63.66723056 133.64049125 -63.66723056 133.64049125 -65.80517578 128.28710938 C-68.33906795 126.11193726 -70.81554389 124.46077509 -73.73876953 122.84326172 C-75.33688477 121.94027344 -75.33688477 121.94027344 -76.96728516 121.01904297 C-78.62727539 120.10058594 -78.62727539 120.10058594 -80.32080078 119.16357422 C-82.5272761 117.94015678 -84.72936033 116.70877511 -86.92626953 115.46826172 C-88.38842896 114.65977783 -88.38842896 114.65977783 -89.88012695 113.83496094 C-92.13330078 112.28857422 -92.13330078 112.28857422 -93.13330078 109.28857422 C-92.73426332 104.18606416 -91.93984287 99.16701974 -91.09692383 94.12084961 C-90.83161228 92.45421513 -90.59411877 90.78289058 -90.38598633 89.1081543 C-88.70185414 75.68161976 -88.70185414 75.68161976 -84.57815552 71.83969116 C-80.73322603 69.29413827 -76.53335046 67.70356711 -72.22427368 66.11709595 C-68.96452458 64.82546134 -66.08188227 63.11124984 -63.05908203 61.33154297 C-61.96015625 60.69410156 -60.86123047 60.05666016 -59.72900391 59.39990234 C-58.10381836 58.44760742 -58.10381836 58.44760742 -56.44580078 57.47607422 C-55.31980469 56.821875 -54.19380859 56.16767578 -53.03369141 55.49365234 C-50.06277398 53.76547162 -47.09476689 52.03289677 -44.13330078 50.28857422 C-43.23377686 49.78753174 -42.33425293 49.28648926 -41.4074707 48.77026367 C-38.88074531 47.33693699 -38.88074531 47.33693699 -37.13330078 44.28857422 C-36.89336423 41.75270574 -36.76076859 39.31641391 -36.71923828 36.77685547 C-36.69987213 36.04863083 -36.68050598 35.32040619 -36.66055298 34.57011414 C-36.60083702 32.24721947 -36.55440461 29.92427503 -36.50830078 27.60107422 C-36.47011357 26.02488089 -36.4310614 24.44870827 -36.39111328 22.87255859 C-36.2951423 19.01139887 -36.21108229 15.15014146 -36.13330078 11.28857422 C-32.25583039 9.90021187 -28.37805348 8.51270937 -24.5 7.12597656 C-23.18285973 6.65485431 -21.86580104 6.18350392 -20.54882812 5.71191406 C-18.64751644 5.03112646 -16.74590545 4.35118063 -14.84423828 3.67138672 C-13.7026123 3.26291504 -12.56098633 2.85444336 -11.38476562 2.43359375 C-10.31178223 2.0557373 -9.23879883 1.67788086 -8.13330078 1.28857422 C-7.0873877 0.86817871 -6.04147461 0.4477832 -4.96386719 0.01464844 C-2.13330078 -0.71142578 -2.13330078 -0.71142578 0 0 Z " fill="#FDFDFE" transform="translate(298.13330078125,176.71142578125)"/>
<path d="M0 0 C3.24784713 1.33516778 6.22475686 3.03703333 9.25 4.8125 C10.54478271 5.55040771 10.54478271 5.55040771 11.86572266 6.30322266 C13.67304884 7.33602736 15.47655948 8.37553506 17.27636719 9.42138672 C19.94671803 10.96911785 22.63080784 12.489752 25.3203125 14.00390625 C27.0057427 14.95999611 28.6906585 15.91699348 30.375 16.875 C31.15262695 17.31432861 31.93025391 17.75365723 32.73144531 18.20629883 C43.79313676 24.58627352 43.79313676 24.58627352 46 29 C46.11570235 30.66820855 46.16954908 32.34088596 46.19287109 34.01293945 C46.20893402 35.05774979 46.22499695 36.10256012 46.24154663 37.17903137 C46.28593806 41.95943606 46.3270588 46.73970116 46.35009766 51.52026367 C46.36666456 54.04314392 46.39396384 56.56597709 46.43212891 59.08862305 C46.48683189 62.7220907 46.50876249 66.35445753 46.5234375 69.98828125 C46.54610687 71.11551102 46.56877625 72.24274078 46.59213257 73.40412903 C46.57102521 81.21202433 46.57102521 81.21202433 43.79077148 85.04858398 C41.16956324 86.88143478 38.5992373 88.64340853 35.82421875 90.234375 C34.83848877 90.80454346 33.85275879 91.37471191 32.8371582 91.9621582 C31.797771 92.552146 30.75838379 93.14213379 29.6875 93.75 C28.62039795 94.36254639 27.5532959 94.97509277 26.45385742 95.60620117 C24.30821027 96.83595437 22.16053052 98.06216856 20.01074219 99.28466797 C17.34566605 100.80306117 14.69043364 102.33675979 12.0390625 103.87890625 C10.63057546 104.69074144 9.22175038 105.50199059 7.8125 106.3125 C7.18496826 106.67891602 6.55743652 107.04533203 5.91088867 107.42285156 C2.62919041 109.28618486 -0.24563927 110.51214522 -4 111 C-4.0424585 111.55220215 -4.08491699 112.1044043 -4.12866211 112.67333984 C-4.80604733 120.41197651 -6.15883975 127.98940277 -7.5625 135.625 C-7.91344727 137.56052734 -7.91344727 137.56052734 -8.27148438 139.53515625 C-8.84416743 142.69075678 -9.42041653 145.84566088 -10 149 C-9.29915283 149.39268066 -8.59830566 149.78536133 -7.8762207 150.18994141 C-4.68119396 151.98930855 -1.49690555 153.80690746 1.6875 155.625 C2.79029297 156.24246094 3.89308594 156.85992187 5.02929688 157.49609375 C6.09599609 158.10839844 7.16269531 158.72070312 8.26171875 159.3515625 C9.24100342 159.90666504 10.22028809 160.46176758 11.22924805 161.03369141 C17.29166981 165.33598631 17.29166981 165.33598631 19 169 C19.52213284 173.09374859 19.24868022 177.08567023 18.99609375 181.1953125 C18.91334165 183.62751466 18.83335128 186.05981206 18.75585938 188.4921875 C18.60760489 192.30612597 18.43806192 196.1152475 18.21850586 199.92578125 C16.67189342 214.91014217 16.67189342 214.91014217 21.95678711 228.23901367 C24.79542904 230.90944881 27.86473363 232.97743116 31.23631287 234.91459656 C34.04192686 236.64121974 36.28872755 238.81062894 38.6875 241.0625 C39.45449219 241.75472656 40.22148437 242.44695312 41.01171875 243.16015625 C42.71630683 244.73748629 44.37362975 246.34265127 46 248 C44.55367187 248.79664063 44.55367187 248.79664063 43.078125 249.609375 C41.80188759 250.3225665 40.52585676 251.03612776 39.25 251.75 C38.29867187 252.27207031 38.29867187 252.27207031 37.328125 252.8046875 C33.70341133 254.84358894 30.80215588 256.85818887 28 260 C27.18917969 259.23816406 26.37835938 258.47632813 25.54296875 257.69140625 C19.27757797 251.83793685 12.95098296 246.18498197 6.2421875 240.83984375 C4 239 4 239 2.5703125 237.19140625 C0.97583044 235.73144648 0.97583044 235.73144648 -1.65625 236.0078125 C-6.06376459 237.31564977 -9.61079055 239.46218641 -13.5 241.875 C-27.66315555 250.51228467 -27.66315555 250.51228467 -34 250 C-36.7980957 248.78173828 -36.7980957 248.78173828 -39.67578125 247.0703125 C-40.74368896 246.44431152 -41.81159668 245.81831055 -42.91186523 245.17333984 C-44.03407471 244.4973877 -45.15628418 243.82143555 -46.3125 243.125 C-47.4760154 242.4346493 -48.64016401 241.74536473 -49.80493164 241.05712891 C-52.1243437 239.68500043 -54.43968165 238.30631807 -56.75292969 236.92382812 C-59.61101217 235.23046798 -62.4860271 233.57904121 -65.3828125 231.953125 C-66.16358154 231.51081543 -66.94435059 231.06850586 -67.7487793 230.61279297 C-69.16489856 229.81193132 -70.58539736 229.01874418 -72.01098633 228.23486328 C-76.00972138 225.93792628 -78.16462557 224.23266663 -80 220 C-80.46541386 216.19021422 -80.46802879 212.40107797 -80.46875 208.56640625 C-80.47636353 207.45571274 -80.48397705 206.34501923 -80.49182129 205.20066833 C-80.50261342 202.85474899 -80.50547902 200.50878164 -80.50097656 198.1628418 C-80.50000433 194.5784476 -80.54163788 190.9961946 -80.5859375 187.41210938 C-80.59114473 185.13021279 -80.59383269 182.84830878 -80.59375 180.56640625 C-80.61014526 179.49749649 -80.62654053 178.42858673 -80.64343262 177.32728577 C-80.56652608 169.02566597 -80.56652608 169.02566597 -77.8137207 165.49902344 C-75.09419416 163.08365913 -72.55426923 161.22773024 -69.38671875 159.44921875 C-68.31043213 158.83699463 -67.23414551 158.22477051 -66.12524414 157.59399414 C-64.42356079 156.65027954 -64.42356079 156.65027954 -62.6875 155.6875 C-61.51563562 155.02760312 -60.34433282 154.36670798 -59.17358398 153.70483398 C-56.85763984 152.39765129 -54.53797184 151.09798003 -52.21582031 149.80175781 C-49.40984745 148.22962908 -46.6190073 146.63562928 -43.8359375 145.0234375 C-42.41150866 144.20303762 -40.98703404 143.3827172 -39.5625 142.5625 C-38.92594482 142.1914917 -38.28938965 141.8204834 -37.63354492 141.43823242 C-34.85017487 139.85697461 -33.26162651 139 -30 139 C-29.82984375 137.86046875 -29.6596875 136.7209375 -29.484375 135.546875 C-27.66974644 123.62017473 -25.45186641 111.81127523 -23 100 C-23.77988281 99.79117188 -24.55976563 99.58234375 -25.36328125 99.3671875 C-30.32373357 97.5023558 -34.66100696 94.85859536 -39.1875 92.125 C-40.08919922 91.59519531 -40.99089844 91.06539063 -41.91992188 90.51953125 C-42.78552734 90.00003906 -43.65113281 89.48054688 -44.54296875 88.9453125 C-45.7189563 88.24172607 -45.7189563 88.24172607 -46.91870117 87.52392578 C-49.95949214 85.29746042 -51.78399094 83.34330423 -52.39440918 79.54727173 C-52.40282837 78.6327121 -52.41124756 77.71815247 -52.41992188 76.77587891 C-52.43583374 75.73444733 -52.45174561 74.69301575 -52.46813965 73.62002563 C-52.46844177 71.94026138 -52.46844177 71.94026138 -52.46875 70.2265625 C-52.48017029 68.49181168 -52.48017029 68.49181168 -52.49182129 66.72201538 C-52.50262528 64.2759619 -52.5054742 61.82986227 -52.50097656 59.38378906 C-52.50000538 55.64569881 -52.54160416 51.90966828 -52.5859375 48.171875 C-52.59114534 45.79427511 -52.59383268 43.41666809 -52.59375 41.0390625 C-52.6183429 39.36537094 -52.6183429 39.36537094 -52.64343262 37.65786743 C-52.56651754 28.99767974 -52.56651754 28.99767974 -49.77050781 25.43994141 C-47.26272892 23.23138111 -45.00723248 21.50994532 -42.078125 19.921875 C-41.14291016 19.40520264 -40.20769531 18.88853027 -39.24414062 18.35620117 C-38.25607422 17.82615479 -37.26800781 17.2961084 -36.25 16.75 C-34.18130733 15.6176819 -32.11360703 14.48354902 -30.046875 13.34765625 C-29.02529297 12.78836426 -28.00371094 12.22907227 -26.95117188 11.65283203 C-24.24448969 10.13692879 -21.59294112 8.56247304 -18.953125 6.93359375 C-18.19483398 6.46791992 -17.43654297 6.00224609 -16.65527344 5.52246094 C-15.26054622 4.65857688 -13.87261007 3.78358911 -12.49316406 2.89550781 C-8.10378671 0.20320592 -5.11063885 -0.7964632 0 0 Z " fill="#082C76" transform="translate(216,139)"/>
<path d="M0 0 C2.7655336 1.15109103 5.29918702 2.60164787 7.875 4.125 C8.63514404 4.56295898 9.39528809 5.00091797 10.1784668 5.45214844 C11.86047339 6.42344566 13.53927293 7.40031143 15.21533203 8.38183594 C18.24114044 10.14012615 21.28870821 11.85637748 24.33984375 13.5703125 C26.49791908 14.79595414 28.65547654 16.02250811 30.8125 17.25 C31.8442334 17.82766113 32.8759668 18.40532227 33.93896484 19.00048828 C34.91430176 19.5623584 35.88963867 20.12422852 36.89453125 20.703125 C37.75925049 21.19458008 38.62396973 21.68603516 39.51489258 22.19238281 C43.55352642 25.13000389 46.53814738 27.45246548 47.44758606 32.46884155 C47.62893846 35.51352178 47.64052781 38.51666853 47.59375 41.56640625 C47.59379028 42.67805649 47.59383057 43.78970673 47.59387207 44.93504333 C47.58852262 47.27926301 47.57096482 49.62348257 47.54199219 51.9675293 C47.50010185 55.55378035 47.50092918 59.13815464 47.5078125 62.72460938 C47.49732081 65.00522137 47.48438282 67.2858237 47.46875 69.56640625 C47.46844788 71.17280724 47.46844788 71.17280724 47.46813965 72.81166077 C47.31686932 82.33092056 47.31686932 82.33092056 44 86 C41.54248047 87.78588867 41.54248047 87.78588867 38.6171875 89.41796875 C37.53969238 90.02825928 36.46219727 90.6385498 35.35205078 91.26733398 C34.20462402 91.90098877 33.05719727 92.53464355 31.875 93.1875 C30.6957582 93.84910701 29.51721275 94.51195667 28.33935547 95.17602539 C26.57017221 96.17334342 24.80057884 97.16980259 23.02822876 98.16148376 C19.53104555 100.12079717 16.0713945 102.12987322 12.640625 104.203125 C11.86605957 104.67081299 11.09149414 105.13850098 10.29345703 105.62036133 C8.88451383 106.47616504 7.47901645 107.33767703 6.07763672 108.20581055 C2.67028189 110.2586203 1.09171845 111 -3 111 C-4.56335485 119.55864913 -6.09757466 128.1223736 -7.625 136.6875 C-7.85445313 137.97333984 -8.08390625 139.25917969 -8.3203125 140.58398438 C-8.88036784 143.72262783 -9.44026041 146.86130022 -10 150 C-11.41152344 149.16855469 -11.41152344 149.16855469 -12.8515625 148.3203125 C-14.10920604 147.58825133 -15.36702808 146.85649675 -16.625 146.125 C-17.24246094 145.76019531 -17.85992187 145.39539063 -18.49609375 145.01953125 C-19.10839844 144.66503906 -19.72070312 144.31054688 -20.3515625 143.9453125 C-21.18421631 143.45828857 -21.18421631 143.45828857 -22.03369141 142.96142578 C-24.60910173 141.70217996 -27.27057832 140.86493387 -30 140 C-29.78794922 138.92516357 -29.57589844 137.85032715 -29.35742188 136.74291992 C-28.57185693 132.75714876 -27.7900055 128.77065671 -27.00927734 124.78393555 C-26.67077354 123.05815033 -26.33126129 121.33256259 -25.99072266 119.60717773 C-25.50158033 117.12795345 -25.01606212 114.64804295 -24.53125 112.16796875 C-24.37813354 111.39599655 -24.22501709 110.62402435 -24.06726074 109.82865906 C-23.48510488 106.83565588 -23 104.05718197 -23 101 C-23.6705542 100.63237549 -24.3411084 100.26475098 -25.03198242 99.88598633 C-28.08876531 98.20363241 -31.13811728 96.50822752 -34.1875 94.8125 C-35.24259766 94.23435547 -36.29769531 93.65621094 -37.38476562 93.06054688 C-42.59047738 90.15388763 -47.111657 87.5544403 -51 83 C-51.33 82.67 -51.66 82.34 -52 82 C-52.1246416 80.41140271 -52.18064828 78.81735294 -52.20874023 77.22412109 C-52.22803085 76.20571136 -52.24732147 75.18730164 -52.26719666 74.13803101 C-52.32480132 69.45614945 -52.37425437 64.77442668 -52.4050293 60.09228516 C-52.42658384 57.62469466 -52.46065584 55.15718008 -52.50756836 52.68994141 C-52.57460134 49.13409223 -52.6020398 45.57982968 -52.62109375 42.0234375 C-52.64892441 40.92526703 -52.67675507 39.82709656 -52.70542908 38.69564819 C-52.69169896 33.56227829 -52.56751113 29.97578097 -49.22729492 25.9152832 C-46.92789947 23.66802347 -44.61589818 21.80365747 -41.7421875 20.33203125 C-40.57067139 19.7129187 -40.57067139 19.7129187 -39.37548828 19.08129883 C-38.55032715 18.66259521 -37.72516602 18.2438916 -36.875 17.8125 C-28.56198531 13.44851566 -20.5282262 8.77906897 -12.62451172 3.70825195 C-5.02189428 -1.01377812 -5.02189428 -1.01377812 0 0 Z " fill="#082C77" transform="translate(457,186)"/>
<path d="M0 0 C3.24784713 1.33516778 6.22475686 3.03703333 9.25 4.8125 C10.54478271 5.55040771 10.54478271 5.55040771 11.86572266 6.30322266 C13.67304884 7.33602736 15.47655948 8.37553506 17.27636719 9.42138672 C19.94671803 10.96911785 22.63080784 12.489752 25.3203125 14.00390625 C27.0057427 14.95999611 28.6906585 15.91699348 30.375 16.875 C31.15262695 17.31432861 31.93025391 17.75365723 32.73144531 18.20629883 C43.79313676 24.58627352 43.79313676 24.58627352 46 29 C46.11570235 30.66820855 46.16954908 32.34088596 46.19287109 34.01293945 C46.20893402 35.05774979 46.22499695 36.10256012 46.24154663 37.17903137 C46.28593806 41.95943606 46.3270588 46.73970116 46.35009766 51.52026367 C46.36666456 54.04314392 46.39396384 56.56597709 46.43212891 59.08862305 C46.48683189 62.7220907 46.50876249 66.35445753 46.5234375 69.98828125 C46.54610687 71.11551102 46.56877625 72.24274078 46.59213257 73.40412903 C46.57102521 81.21202433 46.57102521 81.21202433 43.79077148 85.04858398 C41.16956324 86.88143478 38.5992373 88.64340853 35.82421875 90.234375 C34.83881104 90.80462402 33.85340332 91.37487305 32.83813477 91.96240234 C31.79842529 92.55230957 30.75871582 93.1422168 29.6875 93.75 C28.61749756 94.36182129 27.54749512 94.97364258 26.44506836 95.60400391 C24.29592451 96.83203997 22.14531077 98.05750756 19.99316406 99.28027344 C17.36525487 100.79014231 14.76755993 102.33695651 12.1796875 103.9140625 C11.47368408 104.3359082 10.76768066 104.75775391 10.0402832 105.19238281 C8.77220056 105.95063393 7.51200731 106.72233379 6.26245117 107.51074219 C1.48836656 110.30973908 -2.63482497 111.17496869 -8 110 C-12.43923753 108.05497133 -16.50167168 105.59940083 -20.625 103.0625 C-21.77967979 102.36966764 -22.93536822 101.6785136 -24.09204102 100.98901367 C-26.36644566 99.62956279 -28.63250351 98.25866613 -30.89599609 96.88085938 C-33.55604058 95.26901552 -36.23051211 93.69249842 -38.92578125 92.140625 C-49.55784115 85.97215242 -49.55784115 85.97215242 -52 82 C-52.39440918 79.54727173 -52.39440918 79.54727173 -52.41992188 76.77587891 C-52.43583374 75.73444733 -52.45174561 74.69301575 -52.46813965 73.62002563 C-52.46834106 72.5001828 -52.46854248 71.38033997 -52.46875 70.2265625 C-52.47636353 69.07006195 -52.48397705 67.9135614 -52.49182129 66.72201538 C-52.50262528 64.2759619 -52.5054742 61.82986227 -52.50097656 59.38378906 C-52.50000538 55.64569881 -52.54160416 51.90966828 -52.5859375 48.171875 C-52.59114534 45.79427511 -52.59383268 43.41666809 -52.59375 41.0390625 C-52.61014526 39.92326813 -52.62654053 38.80747375 -52.64343262 37.65786743 C-52.56651754 28.99767974 -52.56651754 28.99767974 -49.77050781 25.43994141 C-47.26272892 23.23138111 -45.00723248 21.50994532 -42.078125 19.921875 C-41.14291016 19.40520264 -40.20769531 18.88853027 -39.24414062 18.35620117 C-38.25607422 17.82615479 -37.26800781 17.2961084 -36.25 16.75 C-34.18130733 15.6176819 -32.11360703 14.48354902 -30.046875 13.34765625 C-29.02529297 12.78836426 -28.00371094 12.22907227 -26.95117188 11.65283203 C-24.24448969 10.13692879 -21.59294112 8.56247304 -18.953125 6.93359375 C-18.19483398 6.46791992 -17.43654297 6.00224609 -16.65527344 5.52246094 C-15.26054622 4.65857688 -13.87261007 3.78358911 -12.49316406 2.89550781 C-8.10378671 0.20320592 -5.11063885 -0.7964632 0 0 Z " fill="#062B75" transform="translate(216,139)"/>
<path d="M0 0 C0.495 0.99 0.495 0.99 1 2 C2.09054687 1.95746094 3.18109375 1.91492188 4.3046875 1.87109375 C13.23829064 1.90059706 23.08800717 3.7550394 31 8 C34.08754628 11.98491195 35.06780063 16.00742573 36.28857422 20.78173828 C38.71989811 28.36272964 43.7770234 35.30717327 48 42 C48.43393066 42.69625488 48.86786133 43.39250977 49.31494141 44.10986328 C53.6497966 51.49867642 53.6497966 51.49867642 60.63671875 55.61328125 C63.23379772 55.53922844 63.23379772 55.53922844 65.7265625 55.171875 C68.35593696 54.97309068 69.44633176 55.29755451 71.625 56.75 C73.0703125 58.1328125 73.0703125 58.1328125 74 60 C73.90459835 61.87997375 73.72810516 63.75647898 73.5 65.625 C73.32742301 68.74289099 73.20578883 70.97319132 75.17041016 73.51318359 C79.04029405 77.20844928 83.50711166 80.12320858 88 83 C88.57508301 83.37592285 89.15016602 83.7518457 89.74267578 84.13916016 C92.16678031 85.72123017 94.60619167 87.26424801 97.0859375 88.7578125 C97.71757812 89.16773438 98.34921875 89.57765625 99 90 C99 90.33 99 90.66 99 91 C84.83052539 91.07026087 70.66107802 91.12287166 56.49146461 91.15543652 C49.91140308 91.17106878 43.33145887 91.19226275 36.75146484 91.22631836 C30.39722928 91.2589984 24.04310633 91.27687136 17.68879318 91.28463173 C15.26879479 91.29015969 12.84880232 91.30095438 10.42885208 91.31719017 C7.03007099 91.33907893 3.63175079 91.34196209 0.23291016 91.34057617 C-1.25603256 91.35675491 -1.25603256 91.35675491 -2.77505493 91.3732605 C-10.34727121 91.34001484 -18.21549308 90.48546105 -24.375 85.6875 C-30.18209105 79.74214487 -33.52667354 73.12097167 -34.171875 64.77734375 C-33.61009007 53.72221896 -25.47609233 43.21058544 -19.875 34.0625 C-13.0539474 22.81647546 -6.46140266 11.45588241 0 0 Z " fill="#92B1F3" transform="translate(264,423)"/>
<path d="M0 0 C2.30552433 2.95003786 4.22399315 5.98545286 6.08203125 9.234375 C6.67757812 10.27182861 7.273125 11.30928223 7.88671875 12.37817383 C8.52222656 13.49087646 9.15773438 14.6035791 9.8125 15.75 C11.16150723 18.10358444 12.51234842 20.45611418 13.86328125 22.80859375 C14.20646393 23.40673386 14.54964661 24.00487396 14.90322876 24.62113953 C17.80835901 29.67966488 20.75112467 34.71564618 23.70336914 39.74682617 C25.99283891 43.65345369 28.26576124 47.56955485 30.53613281 51.48730469 C31.81973077 53.6905719 33.12173534 55.88147184 34.4296875 58.0703125 C37.98589484 64.22583606 40.26373075 68.85244759 39 76 C38.89042969 76.69867188 38.78085937 77.39734375 38.66796875 78.1171875 C37.00170254 86.37065566 31.82394789 92.28880466 25 97 C14.72627302 100.958958 -0.14366252 101.16477035 -10.625 97.85546875 C-13.38207167 96.1280961 -15.59633611 94.19223049 -18 92 C-19.31285873 91.08052124 -20.63679934 90.17675407 -21.96875 89.28515625 C-32.53300202 81.98298135 -32.53300202 81.98298135 -33.77734375 76.69921875 C-33.625 73.5 -33.625 73.5 -33.234375 70.515625 C-32.71132633 67.79557499 -32.71132633 67.79557499 -34.875 65.25 C-38.17892075 63.9284317 -39.33429035 64.07039102 -42.75 64.4375 C-46.27045041 64.56267157 -47.56835016 64.3528394 -50.33203125 62.09375 C-52.77217079 59.18780449 -54.94261768 56.18179704 -57 53 C-57.38043457 52.41669922 -57.76086914 51.83339844 -58.15283203 51.23242188 C-75 25.01786089 -75 25.01786089 -75 16 C-74.36610352 15.98018066 -73.73220703 15.96036133 -73.07910156 15.93994141 C-55.91478105 15.37569476 -41.9375815 14.24300191 -26.08959961 7.27539062 C-17.43571482 3.51924298 -9.43968504 1.65038204 0 2 C0 1.34 0 0.68 0 0 Z " fill="#D1DBFC" transform="translate(370,415)"/>
<path d="M0 0 C3.93385818 1.14078984 7.40211584 3.2524756 10.95703125 5.2578125 C12.06884766 5.88300781 13.18066406 6.50820312 14.32617188 7.15234375 C15.48831901 7.8098291 16.65042791 8.46738203 17.8125 9.125 C18.99398189 9.79064641 20.175621 10.45601384 21.35742188 11.12109375 C24.23983905 12.74465934 27.12062331 14.37105015 30 16 C32.69065586 45.54607986 32.69065586 45.54607986 28.49267578 52.49511719 C24.63170123 56.05954541 20.08004872 57.7489749 15.11572266 59.27783203 C12.17910934 60.28019785 9.84023182 61.91304003 7.3125 63.6875 C4.57563729 65.54376338 3.57038684 66.0640328 0.24243164 65.69042969 C-10.02117349 63.504941 -21.51035668 58.44312411 -28 50 C-31.75221162 39.59498923 -29.4719484 26.69676224 -28 16 C-26.88757935 15.37955811 -26.88757935 15.37955811 -25.75268555 14.74658203 C-22.99578642 13.20817918 -20.23950783 11.668672 -17.48364258 10.12841797 C-16.29183222 9.46261118 -15.0997771 8.79724231 -13.9074707 8.13232422 C-12.19157316 7.17531258 -10.47663386 6.21658348 -8.76171875 5.2578125 C-7.73006592 4.6817627 -6.69841309 4.10571289 -5.63549805 3.51220703 C-3.7156323 2.41061848 -1.84170566 1.22780377 0 0 Z " fill="#AFD752" transform="translate(212,161)"/>
<path d="M0 0 C1.45792969 0.66104736 1.45792969 0.66104736 2.9453125 1.33544922 C3.89712402 1.65642578 4.84893555 1.97740234 5.82958984 2.30810547 C13.73663085 5.2276283 21.70993866 8.49302159 26.9453125 15.33544922 C30.60769514 25.75204494 28.35098487 38.63611988 26.9453125 49.33544922 C23.31941439 51.45970121 19.68979975 53.57741116 16.05664062 55.68920898 C14.82188078 56.40813592 13.58814391 57.12882285 12.35546875 57.85131836 C10.58080472 58.89107112 8.80252664 59.92438469 7.0234375 60.95654297 C5.95512695 61.57972412 4.88681641 62.20290527 3.78613281 62.8449707 C-0.7178975 65.20807702 -0.7178975 65.20807702 -3.0546875 65.33544922 C-5.75610352 64.19555664 -5.75610352 64.19555664 -8.80859375 62.44091797 C-9.91009766 61.81507813 -11.01160156 61.18923828 -12.14648438 60.54443359 C-13.30348856 59.87078259 -14.46038854 59.19695259 -15.6171875 58.52294922 C-16.77736472 57.85973643 -17.93816617 57.19761434 -19.09960938 56.53662109 C-27.25164984 51.87080766 -27.25164984 51.87080766 -31.0546875 49.33544922 C-31.32166638 46.71082678 -31.40301734 44.32478989 -31.34765625 41.70263672 C-31.34341141 40.95080109 -31.33916656 40.19896545 -31.33479309 39.42434692 C-31.3179792 37.01935237 -31.28032374 34.61519113 -31.2421875 32.21044922 C-31.22714409 30.58155506 -31.21345508 28.95264778 -31.20117188 27.32373047 C-31.16806704 23.32731488 -31.11626759 19.3315234 -31.0546875 15.33544922 C-27.1920925 12.99381292 -23.31473198 10.67979486 -19.42138672 8.38964844 C-18.09995104 7.60728335 -16.78281005 6.81761584 -15.47021484 6.02050781 C-13.5795846 4.87410749 -11.6749265 3.7550905 -9.765625 2.64013672 C-8.89337784 2.09968216 -8.89337784 2.09968216 -8.00350952 1.54830933 C-4.96217435 -0.19182281 -3.46970836 -0.75483905 0 0 Z " fill="#FA7C9F" transform="translate(429.0546875,348.66455078125)"/>
<path d="M0 0 C1.93735837 0.97245638 3.83688591 2.02219426 5.703125 3.125 C6.7653125 3.74890625 7.8275 4.3728125 8.921875 5.015625 C10.56929687 5.99789063 10.56929687 5.99789063 12.25 7 C13.36375 7.65484375 14.4775 8.3096875 15.625 8.984375 C23.8234747 13.8234747 23.8234747 13.8234747 25 15 C25.08847743 17.52094076 25.11527301 20.01430893 25.09765625 22.53515625 C25.0962413 23.28840683 25.09482635 24.04165741 25.09336853 24.81773376 C25.08775376 27.2326956 25.07519883 29.64756601 25.0625 32.0625 C25.0574869 33.69596221 25.05292366 35.32942586 25.04882812 36.96289062 C25.03777954 40.97529585 25.02050506 44.98763241 25 49 C21.35416552 51.12144111 17.70625918 53.23926011 14.05639648 55.35375977 C12.81526153 56.07347212 11.57469637 56.79416802 10.3347168 57.51586914 C8.55146078 58.55354275 6.76618003 59.58765249 4.98046875 60.62109375 C3.90692139 61.2442749 2.83337402 61.86745605 1.72729492 62.50952148 C-1 64 -1 64 -4 65 C-6.58213951 63.75530702 -8.98047096 62.45893336 -11.4375 61 C-12.08654297 60.62488281 -12.73558594 60.24976563 -13.40429688 59.86328125 C-14.80272345 59.05302832 -16.18854265 58.22075239 -17.56323242 57.37084961 C-20.06346279 55.89526446 -20.06346279 55.89526446 -23.1652832 54.72485352 C-26.72475383 53.13238225 -29.22778441 51.75710291 -32 49 C-33.50631836 44.01142606 -33.6108181 39.45265614 -33.3996582 34.27514648 C-33.31237485 31.93414348 -33.33781821 29.61342618 -33.37695312 27.27148438 C-33.33495198 16.66050065 -33.33495198 16.66050065 -30.22900391 12.79711914 C-27.89049699 11.20956289 -25.59681282 10.10892276 -23 9 C-21.44252742 8.08154043 -19.89537437 7.1453427 -18.359375 6.19140625 C-16.82515982 5.31118279 -15.28869797 4.43486351 -13.75 3.5625 C-12.97398437 3.10423828 -12.19796875 2.64597656 -11.3984375 2.17382812 C-10.26535156 1.5328418 -10.26535156 1.5328418 -9.109375 0.87890625 C-8.43874023 0.4929126 -7.76810547 0.10691895 -7.07714844 -0.29077148 C-4.28406867 -1.24444999 -2.80854243 -0.87806515 0 0 Z " fill="#FBCA50" transform="translate(189,302)"/>
<path d="M0 0 C1.93735837 0.97245638 3.83688591 2.02219426 5.703125 3.125 C6.7653125 3.74890625 7.8275 4.3728125 8.921875 5.015625 C10.56929688 5.99789062 10.56929688 5.99789062 12.25 7 C13.36375 7.65484375 14.4775 8.3096875 15.625 8.984375 C23.8234747 13.8234747 23.8234747 13.8234747 25 15 C25.08847743 17.52094076 25.11527301 20.01430893 25.09765625 22.53515625 C25.0962413 23.28840683 25.09482635 24.04165741 25.09336853 24.81773376 C25.08775376 27.2326956 25.07519883 29.64756601 25.0625 32.0625 C25.0574869 33.69596221 25.05292366 35.32942586 25.04882812 36.96289062 C25.03777954 40.97529585 25.02050506 44.98763241 25 49 C21.37410189 51.12425199 17.74448725 53.24196194 14.11132812 55.35375977 C12.87656828 56.0726867 11.64283141 56.79337363 10.41015625 57.51586914 C8.63549222 58.5556219 6.85721414 59.58893548 5.078125 60.62109375 C4.00981445 61.2442749 2.94150391 61.86745605 1.84082031 62.50952148 C-2.39629482 64.73258679 -2.39629482 64.73258679 -5 65 C-7.47661931 63.76169035 -9.68775651 62.49559897 -12 61 C-13.22839692 60.2279406 -14.45759264 59.45715097 -15.6875 58.6875 C-16.67036987 58.03575806 -16.67036987 58.03575806 -17.6730957 57.37084961 C-20.06844379 55.88394234 -20.06844379 55.88394234 -23.12963867 54.72485352 C-26.69259422 53.13105983 -29.21400458 51.74873924 -32 49 C-33.50912601 44.01207489 -33.61082048 39.45271448 -33.3996582 34.27514648 C-33.31237485 31.93414348 -33.33781821 29.61342618 -33.37695312 27.27148438 C-33.33495198 16.66050065 -33.33495198 16.66050065 -30.22900391 12.79711914 C-27.89049699 11.20956289 -25.59681282 10.10892276 -23 9 C-21.44252742 8.08154043 -19.89537437 7.1453427 -18.359375 6.19140625 C-16.82515982 5.31118279 -15.28869797 4.43486351 -13.75 3.5625 C-12.97398437 3.10423828 -12.19796875 2.64597656 -11.3984375 2.17382812 C-10.26535156 1.5328418 -10.26535156 1.5328418 -9.109375 0.87890625 C-8.43874023 0.4929126 -7.76810547 0.10691895 -7.07714844 -0.29077148 C-4.28406867 -1.24444999 -2.80854243 -0.87806515 0 0 Z " fill="#D0DBFC" transform="translate(458,210)"/>
<path d="M0 0 C7.90979344 3.05003717 15.74936172 6.4394116 21.22924805 13.10913086 C23.21214038 18.60522292 23.57859515 23.68001816 23.54174805 29.48413086 C23.55517242 30.19062775 23.5685968 30.89712463 23.58242798 31.62503052 C23.60381814 36.44088259 23.11343727 40.60804791 21.22924805 45.10913086 C17.30998917 48.74614281 13.04975345 50.87061695 8.22924805 53.10913086 C6.82879305 53.95181663 5.4397379 54.81435878 4.07299805 55.71069336 C2.96956055 56.37842773 1.86612305 57.04616211 0.72924805 57.73413086 C0.16206055 58.09635742 -0.40512695 58.45858398 -0.98950195 58.83178711 C-2.67700195 59.83569336 -2.67700195 59.83569336 -5.77075195 61.10913086 C-9.48619012 59.95774404 -12.7027767 58.0840589 -16.03637695 56.10522461 C-17.00833008 55.5296582 -17.9802832 54.9540918 -18.98168945 54.36108398 C-19.98458008 53.76231445 -20.9874707 53.16354492 -22.02075195 52.54663086 C-23.54829102 51.64267578 -23.54829102 51.64267578 -25.10668945 50.72045898 C-32.62573964 46.25414317 -32.62573964 46.25414317 -33.77075195 45.10913086 C-35.56830648 34.82356824 -36.82838369 23.22032619 -33.77075195 13.10913086 C-27.76087141 5.70110525 -18.51319581 2.31399098 -9.77075195 -0.89086914 C-6.41761662 -2.56743681 -3.43800481 -1.10540837 0 0 Z " fill="#FB8E02" transform="translate(353.770751953125,118.890869140625)"/>
<path d="M0 0 C24.09 0 48.18 0 73 0 C73 6.27 73 12.54 73 19 C48.91 19 24.82 19 0 19 C0 12.73 0 6.46 0 0 Z " fill="#92B1F3" transform="translate(284,263)"/>
<path d="M0 0 C1.93873142 0.95583968 3.8759433 1.91476192 5.8125 2.875 C6.89144531 3.40867188 7.97039062 3.94234375 9.08203125 4.4921875 C12 6 12 6 15 8 C16.9896995 8.39013716 18.99019869 8.73202649 21 9 C20.01 9.495 20.01 9.495 19 10 C18.61821889 11.90004812 18.61821889 11.90004812 18.52734375 14.21875 C17.99675001 20.73913172 16.79933461 27.08144137 15.5625 33.5 C15.34529297 34.67820312 15.12808594 35.85640625 14.90429688 37.0703125 C14.68966797 38.19179688 14.47503906 39.31328125 14.25390625 40.46875 C14.06127197 41.48388672 13.8686377 42.49902344 13.67016602 43.54492188 C13 46 13 46 11 48 C10.07058594 47.43410156 9.14117187 46.86820312 8.18359375 46.28515625 C6.93525676 45.54366285 5.68653829 44.80281145 4.4375 44.0625 C3.82841797 43.68931641 3.21933594 43.31613281 2.59179688 42.93164062 C-1.66756987 40.43010777 -5.07072433 39.399671 -10 39 C-8.515 38.505 -8.515 38.505 -7 38 C-6.82984375 36.84886719 -6.6596875 35.69773437 -6.484375 34.51171875 C-4.73088003 22.90817773 -2.52783932 11.4586828 0 0 Z " fill="#6966F5" transform="translate(193,240)"/>
<path d="M0 0 C3.74649348 1.03028571 6.64851702 2.36863605 9.8125 4.5625 C14.07467384 7.36547699 17.97033674 7.87192987 23 8 C21.68 8.33 20.36 8.66 19 9 C17.43664515 17.55864913 15.90242534 26.1223736 14.375 34.6875 C14.03082031 36.61625977 14.03082031 36.61625977 13.6796875 38.58398438 C13.11963216 41.72262783 12.55973959 44.86130022 12 48 C10.58847656 47.16855469 10.58847656 47.16855469 9.1484375 46.3203125 C7.89079396 45.58825133 6.63297192 44.85649675 5.375 44.125 C4.75753906 43.76019531 4.14007813 43.39539063 3.50390625 43.01953125 C2.89160156 42.66503906 2.27929688 42.31054688 1.6484375 41.9453125 C0.81578369 41.45828857 0.81578369 41.45828857 -0.03369141 40.96142578 C-2.60910173 39.70217996 -5.27057832 38.86493387 -8 38 C-7.02515646 32.90893943 -6.04647821 27.81863699 -5.06420898 22.72900391 C-4.73046555 20.99678614 -4.39777848 19.26436451 -4.06616211 17.53173828 C-3.58984262 15.04405471 -3.1097524 12.55712454 -2.62890625 10.0703125 C-2.48095108 9.29317902 -2.33299591 8.51604553 -2.18055725 7.71536255 C-1.11387171 2.22774341 -1.11387171 2.22774341 0 0 Z " fill="#6965F5" transform="translate(435,288)"/>
<path d="M0 0 C4.16784814 3.5195162 8.23454761 7.11966646 12.25 10.8125 C17.66642983 15.76316194 23.27259989 20.41364865 29 25 C25.34382235 27.8521571 21.45664784 30.10481259 17.4375 32.40234375 C14.94429355 34.03651272 13.02868342 35.82573976 11 38 C10.18917969 37.23816406 9.37835938 36.47632813 8.54296875 35.69140625 C2.34343557 29.89958842 -3.90593793 24.30155215 -10.5625 19.03515625 C-13.20319224 16.83034751 -15.60089661 14.46336508 -18 12 C-17.49025635 11.70754395 -16.9805127 11.41508789 -16.45532227 11.11376953 C-14.1545184 9.78964522 -11.85849322 8.45744691 -9.5625 7.125 C-8.76005859 6.66480469 -7.95761719 6.20460938 -7.13085938 5.73046875 C-6.36708984 5.28574219 -5.60332031 4.84101563 -4.81640625 4.3828125 C-4.10943604 3.97434082 -3.40246582 3.56586914 -2.67407227 3.14501953 C-0.843565 2.09195051 -0.843565 2.09195051 0 0 Z " fill="#6865F5" transform="translate(233,361)"/>
<path d="M0 0 C0.33 0 0.66 0 1 0 C1.22042969 1.70929688 1.22042969 1.70929688 1.4453125 3.453125 C3.05704551 15.08638802 5.80557143 25.98081642 9.49682617 37.125 C10 39 10 39 10 42 C5.42458373 41.32424621 1.07643059 40.24823621 -3.375 39 C-8.57794689 37.56796114 -13.6151853 36.43957671 -19 36 C-18.41075575 31.91734613 -17.08208056 29.04207836 -14.98046875 25.5078125 C-14.37009766 24.47269531 -13.75972656 23.43757813 -13.13085938 22.37109375 C-12.48955078 21.29988281 -11.84824219 20.22867187 -11.1875 19.125 C-9.93083767 17.00269411 -8.67432345 14.88030051 -7.41796875 12.7578125 C-6.82677246 11.76426758 -6.23557617 10.77072266 -5.62646484 9.74707031 C-3.71451616 6.51782286 -1.84732258 3.26655026 0 0 Z " fill="#D0DAFB" transform="translate(284,389)"/>
<path d="M0 0 C4.99503071 0.4913145 6.31841769 1.88091769 9.8125 5.375 C11.38185594 8.51371188 11.16451103 10.91355822 10.8125 14.375 C8.375 17.25 8.375 17.25 5.8125 19.375 C5.4825 19.705 5.1525 20.035 4.8125 20.375 C1.73612417 20.87713572 -1.11534382 20.91223614 -4.1875 20.375 C-7.36207096 17.7835135 -8.73330349 16.30064305 -9.66015625 12.37109375 C-9.96036653 8.31440613 -9.33871947 6.55723885 -6.75 3.4375 C-5.904375 2.756875 -5.05875 2.07625 -4.1875 1.375 C-3.1875 0.375 -3.1875 0.375 0 0 Z " fill="#6A67F7" transform="translate(365.1875,451.625)"/>
<path d="M0 0 C2.84237587 1.70542552 3.68204063 2.94342693 4.62890625 6.08984375 C5.07883789 8.52596012 5.27671404 10.53592737 5 13 C2.625 16 2.625 16 0 18 C-0.33 18.33 -0.66 18.66 -1 19 C-4.07637583 19.50213572 -6.92784382 19.53723614 -10 19 C-13.16664776 16.41498142 -14.5764456 14.94003044 -15.4375 10.99609375 C-15.66167019 7.30429097 -15.10710782 5.16780225 -13.125 2.0625 C-9.01082297 -1.93067182 -5.33693165 -1.18703996 0 0 Z " fill="#6965F6" transform="translate(276,457)"/>
<path d="M0 0 C2.99264813 1.29786424 3.81373741 2.32182832 6 5 C6.79666742 8.16947542 6.79254555 10.82981781 6 14 C3.5625 17 3.5625 17 1 19 C0.67 19.33 0.34 19.66 0 20 C-4.43946252 20.52228971 -6.51823656 20.29441099 -10.375 17.9375 C-13.51996441 14.41813506 -14.0822804 12.68998307 -14 8 C-11.35403853 0.98820209 -7.42516912 -1.31443672 0 0 Z " fill="#6965F6" transform="translate(332,478)"/>
</svg>
