<?xml version="1.0" encoding="UTF-8"?>
<svg version="1.1" xmlns="http://www.w3.org/2000/svg" width="640" height="640">
<path d="M0 0 C211.2 0 422.4 0 640 0 C640 211.2 640 422.4 640 640 C428.8 640 217.6 640 0 640 C0 428.8 0 217.6 0 0 Z " fill="#FEFEFE" transform="translate(0,0)"/>
<path d="M0 0 C4.16391426 1.82924277 8.03046018 4.054163 11.9375 6.375 C13.03473389 7.01115234 14.13196777 7.64730469 15.26245117 8.30273438 C17.47490742 9.58779341 19.68339428 10.87971274 21.88769531 12.17871094 C24.66469441 13.80378258 27.45960346 15.38522086 30.2734375 16.9453125 C31.78670478 17.79643698 33.2997442 18.64796677 34.8125 19.5 C35.4923999 19.8717334 36.1722998 20.2434668 36.87280273 20.62646484 C41.29477111 23.17298132 43.70109669 25.44681107 46 30 C46.41747895 33.78038061 46.20100739 37.49288898 46.01171875 41.28515625 C45.96284831 43.53051649 45.91805751 45.77596854 45.87695312 48.02148438 C45.79493261 51.53808354 45.68832677 55.04621148 45.51000977 58.55932617 C44.44981361 71.50585924 44.44981361 71.50585924 48.64035034 83.31567383 C52.59970437 87.27259133 57.08868283 90.10955674 61.96641541 92.80444336 C64.88133381 94.51814146 67.20173511 96.58861599 69.6875 98.875 C71.71071661 100.85095186 71.71071661 100.85095186 74 102 C78.60557016 101.62412553 81.64594696 100.29593925 85.51953125 97.83984375 C86.54240234 97.21142578 87.56527344 96.58300781 88.61914062 95.93554688 C90.74139695 94.6076764 92.8586472 93.27176997 94.97070312 91.92773438 C104.97182678 85.81907567 104.97182678 85.81907567 110.63842773 86.3269043 C116.10261743 87.88430851 120.82133815 90.98188539 125.625 93.9375 C126.78042233 94.63104722 127.93684319 95.32293356 129.09423828 96.01318359 C131.36927283 97.37351849 133.63610954 98.74511943 135.90039062 100.12353516 C138.54602821 101.72517114 141.20657015 103.28826665 143.890625 104.82421875 C155.23104609 111.37248295 155.23104609 111.37248295 158 116 C158.60127858 119.89396891 158.56031244 123.75380492 158.53125 127.6875 C158.5350769 128.82276123 158.53890381 129.95802246 158.54284668 131.12768555 C158.54556537 133.52491138 158.53820731 135.92216689 158.52148438 138.31933594 C158.50007587 141.98700142 158.52128935 145.65270789 158.546875 149.3203125 C158.54423172 151.65104599 158.53910674 153.98177826 158.53125 156.3125 C158.53934692 157.40844482 158.54744385 158.50438965 158.55578613 159.63354492 C158.46303171 167.17065636 158.46303171 167.17065636 156.31811523 171.01245117 C153.78138272 173.18744216 151.29680947 174.85603963 148.37890625 176.48828125 C147.28392822 177.10880371 146.1889502 177.72932617 145.06079102 178.36865234 C143.8947554 179.01671204 142.72865738 179.66465945 141.5625 180.3125 C139.78918241 181.31203233 138.01794714 182.31517977 136.24693298 183.31878662 C134.52888764 184.2922261 132.80937753 185.26307892 131.08984375 186.23388672 C126.38499078 188.92311763 121.79552473 191.77368304 117.22265625 194.6796875 C115 196 115 196 112 197 C110.02 209.87 108.04 222.74 106 236 C107.65 236.66 109.3 237.32 111 238 C114.90808076 240.02754717 118.72840991 242.21132455 122.5625 244.375 C123.60341797 244.9525 124.64433594 245.53 125.71679688 246.125 C127.22016602 246.97191406 127.22016602 246.97191406 128.75390625 247.8359375 C129.66470947 248.34688965 130.5755127 248.8578418 131.51391602 249.38427734 C134.57355624 251.37275805 137.42652617 253.24143806 138.59536743 256.82569885 C139.03702901 259.19897611 139.16314213 261.42717073 139.20874023 263.84106445 C139.22803085 264.79918533 139.24732147 265.75730621 139.26719666 266.74446106 C139.32519092 271.11369746 139.37419003 275.48277607 139.4050293 279.85229492 C139.42662746 282.15387967 139.46075137 284.45538189 139.50756836 286.7565918 C139.57460226 290.08419267 139.60203218 293.41010025 139.62109375 296.73828125 C139.66283974 298.2729882 139.66283974 298.2729882 139.70542908 299.83869934 C139.69147661 304.70446341 139.48196165 308.08829012 136.35864258 311.95556641 C133.42705278 314.85665013 130.25520793 316.9759909 126.640625 318.97265625 C126.05134216 319.30365829 125.46205933 319.63466034 124.85491943 319.97569275 C122.99355678 321.01774646 121.12248464 322.04059321 119.25 323.0625 C117.40047862 324.08885343 115.55316137 325.11908372 113.70617676 326.1499939 C112.50084073 326.8206358 111.2934081 327.487524 110.0838623 328.15054321 C106.51521592 330.1133234 103.08802438 332.21890913 99.671875 334.43359375 C95.18850613 337.11296552 91.27368593 338.64253838 86 338 C82.67492332 336.85976514 79.80848403 335.19714567 76.8125 333.375 C75.96606934 332.88733154 75.11963867 332.39966309 74.24755859 331.8972168 C69.46342094 329.12416459 64.74610386 326.24077117 60.01953125 323.37109375 C59.03557373 322.77828613 58.05161621 322.18547852 57.0378418 321.57470703 C55.12822611 320.41943036 53.22693434 319.25025604 51.33520508 318.06591797 C45.15766342 314.22255025 45.15766342 314.22255025 38 314 C42.96306497 324.38347722 48.55515368 334.29976702 54.37548828 344.22167969 C58.06562978 350.53274224 61.70958883 356.8707408 65.35449219 363.20800781 C68.38626171 368.47828817 71.42980871 373.74001099 74.51953125 378.9765625 C75.06617432 379.91129395 75.61281738 380.84602539 76.17602539 381.80908203 C77.18634289 383.53635356 78.20441321 385.25912679 79.23217773 386.97607422 C85.6633413 398.03252241 87.70314212 409.08648255 85.25 421.75 C82.02951539 433.88196258 75.31911094 444.69656992 64.66015625 451.56640625 C60.28570669 453.92385557 55.75591646 455.58690022 51 457 C50.40403204 457.17708874 49.80806408 457.35417747 49.19403648 457.53663254 C46.56608965 458.09163929 44.13713963 458.13229439 41.45010376 458.14044189 C40.32051239 458.14615204 39.19092102 458.15186218 38.02709961 458.15774536 C36.7917749 458.15886322 35.5564502 458.15998108 34.28369141 458.16113281 C32.9791098 458.16609772 31.6745282 458.17106262 30.33041382 458.17617798 C26.75131291 458.18928559 23.17223076 458.1957449 19.59310961 458.20018864 C17.35169634 458.20312482 15.11028813 458.20723088 12.86887741 458.21169281 C5.84119714 458.22536963 -1.18647149 458.23503276 -8.21416414 458.2388947 C-16.29747036 458.24336207 -24.38060636 458.2608474 -32.46386087 458.2898953 C-38.72823085 458.31161594 -44.99255333 458.32160465 -51.25696051 458.32293582 C-54.98983858 458.32397738 -58.7225567 458.32974395 -62.45539474 458.34775543 C-65.97670349 458.36441441 -69.49773521 458.36630681 -73.01906967 458.35761642 C-74.90333854 458.35649666 -76.78759895 458.37007963 -78.67181396 458.3843689 C-95.57143584 458.30307902 -109.3620662 454.21013192 -121.7734375 442.48828125 C-131.21166678 431.94064607 -133.82996072 419.31447867 -133.390625 405.62890625 C-132.97776637 399.27929344 -131.10545657 394.53159452 -128 389 C-127.58105469 388.23961426 -127.16210938 387.47922852 -126.73046875 386.69580078 C-121.19753823 376.67974853 -115.36226875 366.83900687 -109.4375 357.05078125 C-105.68543995 350.83964417 -102.01977961 344.57668175 -98.34008789 338.32250977 C-97.80633545 337.41686279 -97.27258301 336.51121582 -96.72265625 335.578125 C-96.00734741 334.36237793 -96.00734741 334.36237793 -95.27758789 333.12207031 C-94.23209658 331.38551184 -93.12437161 329.68655741 -92 328 C-91.05924837 322.36739848 -90.52317021 316.58644807 -92 311 C-94.80307039 307.41333208 -98.12156852 305.47616658 -102.0390625 303.22949219 C-104.30076961 301.81141985 -106.32974656 300.21630768 -108.40625 298.5390625 C-109.15656494 297.93416992 -109.90687988 297.32927734 -110.67993164 296.70605469 C-112.16536113 295.50126165 -113.64645894 294.29110487 -115.12280273 293.07519531 C-115.81317627 292.53217773 -116.5035498 291.98916016 -117.21484375 291.4296875 C-117.82448975 290.93710449 -118.43413574 290.44452148 -119.06225586 289.93701172 C-121.7955788 288.61529149 -123.13890449 289.07015066 -126 290 C-128.72585319 291.3767328 -128.72585319 291.3767328 -131.4921875 293.125 C-133.04486328 294.06085938 -133.04486328 294.06085938 -134.62890625 295.015625 C-136.78728436 296.33506673 -138.94355124 297.65796852 -141.09765625 298.984375 C-142.13535156 299.60828125 -143.17304688 300.2321875 -144.2421875 300.875 C-145.1791748 301.44992187 -146.11616211 302.02484375 -147.08154297 302.6171875 C-150.53264713 304.25237689 -153.17996053 304.86130645 -157 305 C-160.01928711 303.89526367 -160.01928711 303.89526367 -163.02734375 302.16796875 C-164.69978149 301.2241333 -164.69978149 301.2241333 -166.40600586 300.26123047 C-167.58365822 299.57081809 -168.76081447 298.87955888 -169.9375 298.1875 C-171.1471931 297.49247663 -172.35756537 296.79863407 -173.56860352 296.10595703 C-177.06230709 294.09812799 -180.5323906 292.05256439 -184 290 C-185.36318359 289.20021729 -185.36318359 289.20021729 -186.75390625 288.38427734 C-188.99230704 287.0643215 -191.21863547 285.72748385 -193.4375 284.375 C-194.37420532 283.81075317 -194.37420532 283.81075317 -195.32983398 283.23510742 C-199.08137161 280.87695264 -201.72162922 278.80990219 -204 275 C-204.61122973 271.10695039 -204.58421218 267.24694161 -204.56640625 263.3125 C-204.57260483 262.17723877 -204.57880341 261.04197754 -204.58518982 259.87231445 C-204.59228514 257.47510637 -204.5891191 255.07784899 -204.57641602 252.68066406 C-204.56254821 249.01275019 -204.59663219 245.34738607 -204.63476562 241.6796875 C-204.6357168 239.34895771 -204.63385807 237.01822472 -204.62890625 234.6875 C-204.64216446 233.59155518 -204.65542267 232.49561035 -204.66908264 231.36645508 C-204.57628448 223.78034484 -204.57628448 223.78034484 -201.75024414 219.95361328 C-199.31837382 218.22615422 -196.94821129 216.54896443 -194.3671875 215.0546875 C-193.04714722 214.28487549 -193.04714722 214.28487549 -191.70043945 213.49951172 C-190.76804443 212.96342285 -189.83564941 212.42733398 -188.875 211.875 C-187.91102295 211.30152832 -186.9470459 210.72805664 -185.95385742 210.13720703 C-181.19724514 207.32554317 -176.45345903 204.68785512 -171.43359375 202.375 C-162.86945172 198.63030711 -162.86945172 198.63030711 -156.91845703 191.83251953 C-155.44577467 186.98918474 -155.10158642 182.15807829 -155.03564453 177.1171875 C-154.9919898 174.52421585 -154.66589317 172.004678 -154.3125 169.4375 C-154.03243944 166.19120249 -153.96699595 162.98037919 -153.98046875 159.72265625 C-153.98328857 158.83457275 -153.9861084 157.94648926 -153.98901367 157.03149414 C-153.99263916 156.36110107 -153.99626465 155.69070801 -154 155 C-155.08885498 154.41883423 -155.08885498 154.41883423 -156.19970703 153.82592773 C-158.92341962 152.36317709 -161.6396068 150.88749526 -164.3515625 149.40307617 C-166.09097068 148.4560278 -167.83839657 147.52375296 -169.5859375 146.59179688 C-170.69453125 145.98271484 -171.803125 145.37363281 -172.9453125 144.74609375 C-173.96125488 144.19622803 -174.97719727 143.6463623 -176.02392578 143.07983398 C-180.52554408 139.93387121 -184.34700684 137.04366437 -185.54699707 131.45039368 C-185.77647604 128.40699283 -185.80569123 125.42281273 -185.76171875 122.37109375 C-185.76508743 121.26323013 -185.76845612 120.15536652 -185.77192688 119.01393127 C-185.77162882 116.67989442 -185.75645401 114.34581762 -185.72729492 112.01196289 C-185.68758249 108.44490924 -185.70661417 104.88156898 -185.73242188 101.31445312 C-185.72486333 99.04165229 -185.71391044 96.76885967 -185.69921875 94.49609375 C-185.70620285 93.4334581 -185.71318695 92.37082245 -185.72038269 91.27598572 C-185.56357994 83.03463099 -185.56357994 83.03463099 -182.83886719 79.51928711 C-179.96362601 76.96772074 -177.23688421 75.0619073 -173.87890625 73.1953125 C-173.00708961 72.70380203 -173.00708961 72.70380203 -172.11766052 72.20236206 C-170.27206693 71.16513202 -168.41779931 70.14474725 -166.5625 69.125 C-165.35418845 68.45034451 -164.14650117 67.77456971 -162.93945312 67.09765625 C-161.12907399 66.08274535 -159.31739006 65.07085465 -157.49966431 64.06915283 C-154.35790511 62.33634504 -151.25104351 60.56430059 -148.17919922 58.70996094 C-147.55617416 58.3386203 -146.93314911 57.96727966 -146.29124451 57.58468628 C-144.56754537 56.55362056 -142.85173932 55.50939241 -141.13647461 54.46435547 C-137.67653479 52.84898075 -135.76612769 52.50053359 -132 53 C-129.38549805 54.12646484 -129.38549805 54.12646484 -126.76171875 55.7109375 C-125.78452881 56.29222412 -124.80733887 56.87351074 -123.80053711 57.47241211 C-122.77323486 58.10026611 -121.74593262 58.72812012 -120.6875 59.375 C-119.6260376 60.00607666 -118.5645752 60.63715332 -117.47094727 61.28735352 C-112.57682223 64.2019735 -107.71773214 67.16722942 -102.890625 70.19140625 C-102.13048096 70.65949707 -101.37033691 71.12758789 -100.5871582 71.60986328 C-99.19466863 72.4698699 -97.8121136 73.34626229 -96.44213867 74.24169922 C-91.77849713 77.11544541 -89.26728843 77.08724003 -84 76 C-81.55890169 75.16413166 -79.14318102 74.25151157 -76.75390625 73.27734375 C-76.09792953 73.01240616 -75.44195282 72.74746857 -74.76609802 72.47450256 C-72.69517092 71.63614841 -70.62885676 70.78704777 -68.5625 69.9375 C-67.14938075 69.36321274 -65.73597168 68.78963809 -64.32226562 68.21679688 C-60.87812292 66.81941625 -57.43802737 65.41237023 -54 64 C-53.99589111 62.97116699 -53.99178223 61.94233398 -53.98754883 60.88232422 C-53.96569212 57.0463731 -53.91133647 53.21143824 -53.84741211 49.37597656 C-53.82428871 47.71950051 -53.80984968 46.06287862 -53.80444336 44.40625 C-53.79511157 42.01731079 -53.75403536 39.63064721 -53.70703125 37.2421875 C-53.7109639 36.50757294 -53.71489655 35.77295837 -53.71894836 35.01608276 C-53.56285632 29.45142743 -51.97218396 26.80741542 -48 23 C-45.05249023 20.96118164 -45.05249023 20.96118164 -41.80859375 19.16015625 C-41.22263931 18.83011093 -40.63668488 18.50006561 -40.03297424 18.16001892 C-38.17394803 17.11605237 -36.30626891 16.08890441 -34.4375 15.0625 C-32.60327033 14.03986778 -30.77096547 13.01385196 -28.93887329 11.98739624 C-27.72925815 11.31215217 -26.51748198 10.64076454 -25.30355835 9.97329712 C-22.38210344 8.36282448 -19.53370332 6.70817605 -16.70361328 4.93701172 C-5.91936466 -1.80208406 -5.91936466 -1.80208406 0 0 Z " fill="#072C76" transform="translate(343,92)"/>
<path d="M0 0 C1.14940063 -0.00744736 1.14940063 -0.00744736 2.32202148 -0.01504517 C4.85970966 -0.02966037 7.39733522 -0.03646944 9.93505859 -0.04199219 C11.70283001 -0.04774632 13.47060141 -0.05350402 15.2383728 -0.05926514 C18.94895722 -0.06977478 22.65951998 -0.07561698 26.37011719 -0.07910156 C31.10775011 -0.08457133 35.84509346 -0.10856689 40.58263588 -0.13707352 C44.23738415 -0.15577179 47.89206387 -0.16090942 51.54685593 -0.16243744 C53.29223581 -0.16545077 55.03761488 -0.17343436 56.78294754 -0.18662262 C78.27758753 -0.33738323 78.27758753 -0.33738323 85.33349609 5.91113281 C85.86716797 6.35972656 86.40083984 6.80832031 86.95068359 7.27050781 C92.58790455 14.3389403 91.91130539 21.9897192 91.83349609 30.66113281 C91.84509766 31.9540625 91.85669922 33.24699219 91.86865234 34.57910156 C91.84006272 43.85166806 91.03340759 50.19946181 84.45849609 57.16113281 C81.46343066 59.27959373 80.15199045 60.16113281 76.45849609 60.16113281 C76.45015308 67.94221046 76.47433926 75.72247097 76.53877449 83.50324821 C76.56770849 87.11724758 76.58590624 90.73060433 76.57861328 94.34472656 C76.57197096 97.84007901 76.59477705 101.33416715 76.63705063 104.82925797 C76.65342985 106.79535794 76.64019051 108.7616339 76.62625122 110.72775269 C76.76028792 119.08817949 78.36498939 124.48175304 83.45849609 131.16113281 C84.2830127 130.85433594 85.1075293 130.54753906 85.95703125 130.23144531 C94.20849609 127.16113281 94.20849609 127.16113281 96.45849609 127.16113281 C96.43231201 126.09677002 96.40612793 125.03240723 96.37915039 123.93579102 C96.28844834 119.97571955 96.2311752 116.0157393 96.18383789 112.05493164 C96.15873895 110.34286037 96.1246518 108.63089577 96.08129883 106.91918945 C96.0204387 104.45399636 95.99224177 101.99022296 95.97021484 99.52441406 C95.94440842 98.76276443 95.91860199 98.00111481 95.89201355 97.21638489 C95.88997276 93.32362524 96.24290848 91.43659131 98.66772461 88.33837891 C101.24902051 86.32455712 103.75716973 84.5823941 106.59912109 82.96191406 C107.57961426 82.39682129 108.56010742 81.83172852 109.5703125 81.24951172 C110.60591309 80.66347168 111.64151367 80.07743164 112.70849609 79.47363281 C114.86776978 78.23868896 117.02662138 77.00300682 119.18505859 75.76660156 C120.77882324 74.856604 120.77882324 74.856604 122.40478516 73.92822266 C125.16435318 72.33134439 127.8913151 70.694611 130.60693359 69.02441406 C131.37102539 68.55801514 132.13511719 68.09161621 132.92236328 67.61108398 C134.32241253 66.75273929 135.71673952 65.88496132 137.10400391 65.00610352 C141.15405806 62.54714206 143.75961802 61.7500269 148.45849609 62.16113281 C151.14892578 63.27172852 151.14892578 63.27172852 153.88037109 64.83691406 C154.8979248 65.41272217 155.91547852 65.98853027 156.96386719 66.58178711 C158.03459473 67.20609619 159.10532227 67.83040527 160.20849609 68.47363281 C161.3114502 69.10503174 162.4144043 69.73643066 163.55078125 70.38696289 C170.3541717 74.30145171 177.11806799 78.28502773 183.83349609 82.34863281 C184.56922852 82.79311768 185.30496094 83.23760254 186.06298828 83.69555664 C186.73749023 84.11087646 187.41199219 84.52619629 188.10693359 84.95410156 C188.68620605 85.31012451 189.26547852 85.66614746 189.86230469 86.03295898 C193.22465191 88.40943597 194.66863052 90.10230217 195.45849609 94.16113281 C195.57131064 95.77237572 195.63673111 97.3872978 195.66723633 99.00219727 C195.68652695 99.96031815 195.70581757 100.91843903 195.72569275 101.90559387 C195.78368702 106.27483027 195.83268613 110.64390889 195.86352539 115.01342773 C195.88512355 117.31501248 195.91924747 119.61651471 195.96606445 121.91772461 C196.03309835 125.24532549 196.06052828 128.57123306 196.07958984 131.89941406 C196.1074205 132.92255203 196.13525116 133.94569 196.16392517 134.99983215 C196.14997271 139.86559622 195.94045775 143.24942293 192.81713867 147.11669922 C189.88554888 150.01778294 186.71370402 152.13712371 183.09912109 154.13378906 C182.50983826 154.46479111 181.92055542 154.79579315 181.31341553 155.13682556 C179.45205287 156.17887927 177.58098073 157.20172602 175.70849609 158.22363281 C173.85897472 159.24998624 172.01165746 160.28021654 170.16467285 161.31112671 C168.95933682 161.98176861 167.75190419 162.64865681 166.5423584 163.31167603 C162.97371201 165.27445621 159.54652047 167.38004194 156.13037109 169.59472656 C151.64700222 172.27409833 147.73218203 173.80367119 142.45849609 173.16113281 C139.13341941 172.02089795 136.26698013 170.35827848 133.27099609 168.53613281 C132.42456543 168.04846436 131.57813477 167.5607959 130.70605469 167.05834961 C125.92191704 164.2852974 121.20459996 161.40190398 116.47802734 158.53222656 C115.49406982 157.93941895 114.5101123 157.34661133 113.49633789 156.73583984 C111.58672221 155.58056317 109.68543043 154.41138885 107.79370117 153.22705078 C101.61615951 149.38368306 101.61615951 149.38368306 94.45849609 149.16113281 C99.42156106 159.54461004 105.01364978 169.46089983 110.83398438 179.3828125 C114.52412587 185.69387506 118.16808493 192.03187361 121.81298828 198.36914062 C124.8447578 203.63942098 127.88830481 208.90114381 130.97802734 214.13769531 C131.52467041 215.07242676 132.07131348 216.0071582 132.63452148 216.97021484 C133.64483899 218.69748637 134.6629093 220.42025961 135.69067383 222.13720703 C142.12183739 233.19365522 144.16163822 244.24761537 141.70849609 256.91113281 C138.48801148 269.0430954 131.77760704 279.85770273 121.11865234 286.72753906 C116.74420278 289.08498839 112.21441255 290.74803303 107.45849609 292.16113281 C106.86252813 292.33822155 106.26656017 292.51531029 105.65253258 292.69776535 C103.02458574 293.2527721 100.59563572 293.29342721 97.90859985 293.30157471 C96.77900848 293.30728485 95.64941711 293.312995 94.4855957 293.31887817 C93.250271 293.31999603 92.01494629 293.32111389 90.7421875 293.32226562 C89.4376059 293.32723053 88.13302429 293.33219543 86.78890991 293.33731079 C83.20980901 293.3504184 79.63072686 293.35687771 76.0516057 293.36132145 C73.81019243 293.36425764 71.56878422 293.36836369 69.3273735 293.37282562 C62.29969324 293.38650244 55.27202461 293.39616557 48.24433196 293.40002751 C40.16102573 293.40449488 32.07788974 293.42198021 23.99463522 293.45102811 C17.73026525 293.47274875 11.46594276 293.48273746 5.20153558 293.48406863 C1.46865751 293.48511019 -2.2640606 293.49087676 -5.99689865 293.50888824 C-9.5182074 293.52554722 -13.03923911 293.52743962 -16.56057358 293.51874924 C-18.44484244 293.51762947 -20.32910285 293.53121245 -22.21331787 293.54550171 C-39.11293974 293.46421183 -52.90357011 289.37126473 -65.31494141 277.64941406 C-74.75317068 267.10177889 -77.37146463 254.47561148 -76.93212891 240.79003906 C-76.51927028 234.44042625 -74.64696048 229.69272733 -71.54150391 224.16113281 C-71.12255859 223.40074707 -70.70361328 222.64036133 -70.27197266 221.85693359 C-64.73904214 211.84088135 -58.90377265 202.00013968 -52.97900391 192.21191406 C-49.22694386 186.00077699 -45.56128351 179.73781456 -41.8815918 173.48364258 C-41.34783936 172.57799561 -40.81408691 171.67234863 -40.26416016 170.73925781 C-39.7872876 169.92875977 -39.31041504 169.11826172 -38.8190918 168.28320312 C-37.77360049 166.54664465 -36.66587551 164.84769022 -35.54150391 163.16113281 C-34.60026751 157.5256288 -34.07266756 151.75178801 -35.54150391 146.16113281 C-38.314291 142.59990053 -41.63649787 140.67685999 -45.51123047 138.43359375 C-49.67583674 135.82345331 -53.44673258 132.65125195 -57.29150391 129.59863281 C-58.86859252 128.36683601 -60.44663594 127.13626013 -62.02587891 125.90722656 C-63.19786925 124.99200966 -64.36979093 124.07670479 -65.54150391 123.16113281 C-62.38846377 120.58391384 -59.20124245 118.19911652 -55.79150391 115.97363281 C-53.02518324 114.24362821 -53.02518324 114.24362821 -50.54150391 112.16113281 C-50.41859672 110.50468915 -50.36366483 108.84314289 -50.33618164 107.18237305 C-50.31623642 106.12134872 -50.2962912 105.0603244 -50.27574158 103.96714783 C-50.25902908 102.81299881 -50.24231659 101.65884979 -50.22509766 100.46972656 C-50.20431656 99.29475113 -50.18353546 98.1197757 -50.16212463 96.90919495 C-50.09650266 93.13906958 -50.0376856 89.36887199 -49.97900391 85.59863281 C-49.93583071 83.04979708 -49.89221682 80.50096878 -49.84814453 77.95214844 C-49.74080845 71.68855389 -49.63906601 65.4248868 -49.54150391 59.16113281 C-49.21150391 59.16113281 -48.88150391 59.16113281 -48.54150391 59.16113281 C-48.56006439 59.77563797 -48.57862488 60.39014313 -48.5977478 61.02326965 C-48.77827996 67.46486347 -48.85878376 73.9024005 -48.88330078 80.34643555 C-48.90525925 82.74523695 -48.95205792 85.14395239 -49.02490234 87.54174805 C-50.07334112 101.70437714 -50.07334112 101.70437714 -44.57983398 114.0480957 C-41.19162214 116.9700627 -37.46776499 119.04063546 -33.54150391 121.16113281 C-32.16328919 122.23038156 -30.80863671 123.3326418 -29.50634766 124.49316406 C-28.50732422 125.31171875 -27.50830078 126.13027344 -26.47900391 126.97363281 C-25.96402344 127.41771484 -25.44904297 127.86179687 -24.91845703 128.31933594 C-23.24387739 129.73463108 -23.24387739 129.73463108 -20.54150391 131.16113281 C-16.40244326 130.10097566 -14.53214245 128.476656 -12.27929688 124.90380859 C-8.69416316 118.48840437 -8.68387624 112.49078823 -8.73681641 105.27832031 C-8.72311005 103.98290314 -8.70940369 102.68748596 -8.69528198 101.35281372 C-8.65953294 97.94306606 -8.65883289 94.53422017 -8.66595459 91.12432861 C-8.66687348 87.63122851 -8.63392483 84.13845578 -8.60400391 80.64550781 C-8.550415 73.81733151 -8.53392652 66.98950832 -8.54150391 60.16113281 C-9.31365234 59.86464844 -10.08580078 59.56816406 -10.88134766 59.26269531 C-16.13962759 57.08525781 -19.21527726 54.00676998 -21.69702148 48.85888672 C-23.37431137 43.50067531 -23.16788844 37.89130824 -23.11791992 32.32519531 C-23.10402736 30.16477966 -23.13822314 28.0086859 -23.17626953 25.84863281 C-23.21922311 18.25631407 -23.05492613 11.85365406 -17.54150391 6.16113281 C-11.91279353 1.26697341 -7.29952925 0.011284 0 0 Z " fill="#082C76" transform="translate(286.54150390625,256.8388671875)"/>
<path d="M0 0 C14.52 0 29.04 0 44 0 C43.99097656 4.38539063 43.98195313 8.77078125 43.97265625 13.2890625 C43.98507147 16.82460942 44.00447598 20.35996727 44.02854156 23.89544678 C44.05191267 27.606361 44.06347473 31.3163832 44.04467773 35.02734375 C44.02699746 38.61357266 44.04413439 42.19821438 44.08367729 45.78425217 C44.09725561 47.79231322 44.07637967 49.80051489 44.05445862 51.8085022 C44.21081244 61.91749802 46.95503906 68.42935002 52 77 C52.43331635 77.77085434 52.86663269 78.54170868 53.31307983 79.33592224 C54.32005314 81.12188684 55.3711936 82.87389864 56.4375 84.625 C60.92607659 92.13517658 65.29164761 99.71185205 69.625 107.3125 C70.31288413 108.5180794 71.00079121 109.7236457 71.6887207 110.92919922 C74.1384877 115.22335964 76.58617246 119.51870594 79.03369141 123.81414795 C81.06289173 127.37527851 83.09282667 130.93598803 85.12414551 134.49591064 C85.78928089 135.66162145 86.45423971 136.827433 87.11901855 137.99334717 C92.55565549 147.52540505 98.06819535 157.01058944 103.66064453 166.45214844 C104.4744458 167.83515137 104.4744458 167.83515137 105.3046875 169.24609375 C105.77890137 170.04716553 106.25311523 170.8482373 106.74169922 171.67358398 C110.66454276 178.92635389 111.47792342 186.60757672 109.27734375 194.63671875 C106.36212326 201.58839837 102.49217412 206.83170918 95.52518845 210.16856194 C90.27452851 211.89738282 84.7810586 211.56148708 79.30712891 211.53344727 C77.9330198 211.54051535 76.55891847 211.54926409 75.18482971 211.55955505 C71.47181173 211.58196203 67.75922177 211.57912959 64.04616213 211.57023358 C60.93752858 211.56510435 57.82897411 211.57243205 54.72034872 211.57970566 C47.38152865 211.59667775 40.04291663 211.59316691 32.70410156 211.57641602 C25.15356882 211.55950377 17.60361461 211.57532257 10.05314505 211.6076389 C3.55177641 211.63440247 -2.94941289 211.64159243 -9.45083106 211.63312382 C-13.32555014 211.62821342 -17.19992149 211.63030669 -21.07459641 211.65091133 C-24.72090978 211.66937508 -28.36639674 211.66318154 -32.0126667 211.63871193 C-33.97399326 211.63138139 -35.93536457 211.64847724 -37.8966217 211.66653442 C-46.63074029 211.57354859 -53.54082109 210.0535302 -60.13861656 204.05593204 C-65.63197477 198.35018909 -68.04392013 192.60761241 -68.5625 184.75 C-68.30957276 177.88349384 -65.44538666 172.79359562 -62 167 C-61.4119458 166.00226563 -61.4119458 166.00226563 -60.81201172 164.984375 C-58.41943892 160.93946287 -55.99345962 156.91562995 -53.5546875 152.8984375 C-49.04058659 145.44204098 -44.65372955 137.91129612 -40.25961304 130.38381958 C-36.03843449 123.15302196 -31.78215318 115.94565838 -27.46670532 108.77067566 C-23.42802284 102.05513414 -19.4233685 95.31952893 -15.4230957 88.58105469 C-14.17141245 86.47290451 -12.91873183 84.36534901 -11.66601562 82.2578125 C-10.85410675 80.89066058 -10.04225563 79.52347436 -9.23046875 78.15625 C-8.86374557 77.53947388 -8.4970224 76.92269775 -8.1191864 76.28723145 C-7.41434522 75.09914715 -6.71810838 73.90591273 -6.03091431 72.70753479 C-5.04047931 71.06704711 -3.90844733 69.5146313 -2.77368164 67.97045898 C0.39363555 62.35754979 -0.39439048 55.57084339 -0.390625 49.31640625 C-0.3756272 47.89149612 -0.3588967 46.46660328 -0.34051514 45.04173279 C-0.29700796 41.31160642 -0.27687993 37.58171448 -0.26177979 33.85137939 C-0.23868988 29.36487999 -0.18627961 24.87863693 -0.13883972 20.39234161 C-0.07021498 13.59482786 -0.03861431 6.79804861 0 0 Z " fill="#FDFDFE" transform="translate(298,318)"/>
<path d="M0 0 C1.02109863 0.57226318 2.04219727 1.14452637 3.09423828 1.73413086 C4.22877441 2.36770508 5.36331055 3.0012793 6.53222656 3.65405273 C7.12618225 3.98864502 7.72013794 4.3232373 8.33209229 4.66796875 C10.17242143 5.70340292 12.0172556 6.73037681 13.86328125 7.75561523 C18.91615103 10.56891348 23.95823317 13.38527777 28.86767578 16.44506836 C29.48787598 16.82590576 30.10807617 17.20674316 30.74707031 17.59912109 C32.27615687 18.55037861 33.7877475 19.52961069 35.29736328 20.51147461 C39.68937237 22.16277829 42.80849149 21.99169361 47.28955078 20.63647461 C51.98976711 18.40267245 56.41085429 15.77192054 60.85205078 13.07397461 C62.06277226 12.35441474 63.27435549 11.63630277 64.48681641 10.91967773 C67.42983151 9.17262893 70.36331994 7.41144327 73.28955078 5.63647461 C76.51039818 7.50989266 79.50641057 9.47768133 82.43408203 11.78100586 C83.19398438 12.3759082 83.95388672 12.97081055 84.73681641 13.58374023 C85.51734375 14.19926758 86.29787109 14.81479492 87.10205078 15.44897461 C88.64968512 16.66450971 90.19785846 17.87935886 91.74658203 19.09350586 C92.42696533 19.62951416 93.10734863 20.16552246 93.80834961 20.71777344 C96.14257649 22.61725458 96.14257649 22.61725458 98.32289124 23.78681946 C101.62640877 25.81616147 103.89494414 27.27552559 105.00511169 31.10435486 C105.26250232 34.16433656 105.26686944 37.13318142 105.18408203 40.20288086 C105.1897242 41.87035622 105.1897242 41.87035622 105.19548035 43.57151794 C105.20177866 47.11526227 105.15474935 50.65565764 105.10205078 54.19897461 C105.07583959 57.74517978 105.06101203 61.29084051 105.06217957 64.83714294 C105.06015142 67.04089626 105.04088378 69.24471725 105.00239563 71.44813538 C104.8130968 78.61666006 104.8130968 78.61666006 108.28955078 84.63647461 C111.00322104 86.65222552 111.00322104 86.65222552 114.19970703 88.37084961 C114.76781601 88.69434387 115.33592499 89.01783813 115.92124939 89.35113525 C117.72516349 90.37468316 119.53821469 91.38063538 121.35205078 92.38647461 C122.57469393 93.07675214 123.79670652 93.76814779 125.01806641 94.46069336 C130.60215408 97.64481043 130.60215408 97.64481043 136.28955078 100.63647461 C136.47820622 108.09246578 135.93291977 115.39546227 135.07495117 122.80322266 C134.92594815 124.15404197 134.79353303 125.50679081 134.67749023 126.86083984 C133.71015592 138.04387212 133.71015592 138.04387212 130.42431641 141.72753906 C128.11450367 143.29816173 125.83004623 144.48078336 123.28955078 145.63647461 C121.85471594 146.44643349 120.4248425 147.265255 119.00048828 148.09350586 C117.55697641 148.88196767 116.11161882 149.6670586 114.66455078 150.44897461 C107.99895565 154.09383972 101.44151968 157.87243888 94.97265625 161.85644531 C92.41973868 163.41775445 90.14179416 164.68572682 87.28955078 165.63647461 C86.04481546 169.37068058 86.05745293 172.91012699 85.97314453 176.80444336 C85.94197289 177.99666252 85.94197289 177.99666252 85.91017151 179.21296692 C85.84482991 181.74988224 85.7858627 184.28690033 85.72705078 186.82397461 C85.68385092 188.54468833 85.64023615 190.26539168 85.59619141 191.98608398 C85.4891643 196.20277574 85.38785354 200.41957081 85.28955078 204.63647461 C80.99955078 206.28647461 76.70955078 207.93647461 72.28955078 209.63647461 C65.70123324 200.87267703 64.29951756 195.05424826 64.60595703 184.21850586 C64.6190487 182.86661878 64.62899596 181.51469798 64.63597107 180.1627655 C64.66241904 176.64216831 64.73092462 173.12366429 64.80889893 169.60388184 C64.88112255 165.99719547 64.91260706 162.39016344 64.94775391 158.78295898 C65.02233061 151.73328593 65.14144774 144.68501849 65.28955078 137.63647461 C65.84570572 137.36838989 66.40186066 137.10030518 66.97486877 136.82409668 C67.70076706 136.46891968 68.42666534 136.11374268 69.17456055 135.74780273 C69.89571548 135.39721802 70.61687042 135.0466333 71.35987854 134.6854248 C73.59256486 133.47175924 74.86027358 132.27662396 76.22705078 130.13647461 C76.60732422 129.56928711 76.98759766 129.00209961 77.37939453 128.41772461 C80.48505119 122.33970129 79.55327403 115.01360929 79.60205078 108.38647461 C79.63105469 107.08838867 79.66005859 105.79030273 79.68994141 104.45288086 C79.74718307 95.8137932 79.24617183 89.81918829 73.10205078 83.32397461 C63.67138665 77.66557613 53.84120228 78.16249472 43.22705078 78.16772461 C41.46785239 78.16061228 39.70865628 78.15291173 37.94946289 78.14465332 C34.27467384 78.1312562 30.6000995 78.12961885 26.92529297 78.13549805 C22.23463024 78.14139876 17.54500087 78.11076527 12.85453796 78.07038116 C9.22548956 78.04443844 5.59668815 78.04163251 1.96755981 78.04527283 C0.23891599 78.04358866 -1.48974012 78.03401436 -3.21829224 78.01612854 C-16.3366576 77.71666519 -16.3366576 77.71666519 -27.71044922 83.63647461 C-33.30742159 89.3269444 -33.39358732 95.62085173 -33.34521484 103.32397461 C-33.32648315 104.38745117 -33.32648315 104.38745117 -33.30737305 105.47241211 C-33.27301097 107.63259252 -33.28675879 109.78867976 -33.30615234 111.94897461 C-33.44674972 122.54351194 -33.44674972 122.54351194 -28.71044922 131.63647461 C-27.19399638 132.45842503 -25.66256252 133.25307703 -24.12060547 134.02612305 C-21.14560137 135.97091365 -19.92054213 136.9465337 -18.87464905 140.38122559 C-18.56700487 143.87599665 -18.54170041 147.2694988 -18.62060547 150.77709961 C-18.6183622 152.69313995 -18.6183622 152.69313995 -18.61607361 154.64788818 C-18.6163421 157.34878383 -18.64744393 160.04698004 -18.7019043 162.74731445 C-18.76970954 166.18207067 -18.77164798 169.61285945 -18.75135136 173.04809952 C-18.73881185 176.35403706 -18.77493519 179.6587974 -18.80810547 182.96459961 C-18.80537125 184.18471741 -18.80263702 185.40483521 -18.79981995 186.66192627 C-18.99644098 194.64545353 -20.51895277 200.42489747 -25.71044922 206.63647461 C-27.76844788 208.43389893 -27.76844788 208.43389893 -29.71044922 209.63647461 C-34.75843934 208.6878006 -38.62981597 204.66656144 -42.46044922 201.44897461 C-43.8085621 200.32946614 -45.15752665 199.2109825 -46.50732422 198.09350586 C-47.14582809 197.55001999 -47.78433197 197.00653412 -48.44218445 196.44657898 C-50.65941978 194.60516972 -50.65941978 194.60516972 -53.05354309 193.1776886 C-56.54857341 190.90997061 -59.22757576 189.15527427 -60.52359009 185.07887268 C-60.81397101 182.00978416 -60.82716521 179.0538946 -60.73779297 175.97241211 C-60.74487022 174.30705917 -60.74487022 174.30705917 -60.75209045 172.60806274 C-60.75940607 169.07429456 -60.70598574 165.54471897 -60.64794922 162.01147461 C-60.62702439 158.4720511 -60.61864958 154.93294588 -60.61878967 151.39346313 C-60.61486482 149.19528605 -60.59657877 146.99707619 -60.5622406 144.79916382 C-60.55306107 143.80107697 -60.54388153 142.80299011 -60.53442383 141.7746582 C-60.52060165 140.90086517 -60.50677948 140.02707214 -60.49253845 139.12680054 C-60.74185574 136.27755484 -61.42807208 134.18805863 -62.71044922 131.63647461 C-65.00178193 130.41734369 -65.00178193 130.41734369 -67.71044922 129.63647461 C-71.88713929 127.62007802 -75.95162493 125.41904799 -80.02294922 123.19897461 C-81.14507812 122.63243164 -82.26720703 122.06588867 -83.42333984 121.48217773 C-86.57199998 119.73845166 -89.15918184 118.17914221 -91.71044922 115.63647461 C-92.78620384 111.7744186 -92.42471304 108.54259314 -91.71044922 104.63647461 C-91.52869141 103.06639648 -91.52869141 103.06639648 -91.34326172 101.46459961 C-91.09189453 100.18842773 -91.09189453 100.18842773 -90.83544922 98.88647461 C-90.19659076 95.4777403 -89.62536744 92.09357407 -89.23779297 88.64819336 C-89.12056885 87.63354004 -89.12056885 87.63354004 -89.00097656 86.59838867 C-88.78294756 84.66273934 -88.57649683 82.72579635 -88.37060547 80.78881836 C-87.64878146 77.34200194 -87.30317616 76.80710519 -84.71044922 74.63647461 C-82.92104898 73.50449819 -81.09854219 72.42424339 -79.25732422 71.37866211 C-78.16935547 70.75701172 -77.08138672 70.13536133 -75.96044922 69.49487305 C-75.38810547 69.17063354 -74.81576172 68.84639404 -74.22607422 68.5123291 C-71.86052753 67.17140562 -69.50191671 65.81850942 -67.14294434 64.46606445 C-65.40103932 63.46751556 -63.65828771 62.47044397 -61.91552734 61.47338867 C-57.83345384 59.13384563 -53.76100159 56.78017099 -49.71044922 54.38647461 C-48.57607422 53.72131836 -47.44169922 53.05616211 -46.27294922 52.37084961 C-43.49886039 50.72874519 -43.49886039 50.72874519 -41.71044922 47.63647461 C-41.46971786 44.88428484 -41.33762234 42.22429995 -41.29638672 39.46850586 C-41.27702057 38.67369308 -41.25765442 37.87888031 -41.23770142 37.0599823 C-41.1779548 34.52308866 -41.13154039 31.98614952 -41.08544922 29.44897461 C-41.04726487 27.72825177 -41.00821286 26.00754796 -40.96826172 24.28686523 C-40.87225743 20.07022296 -40.78820846 15.85349121 -40.71044922 11.63647461 C-35.94756154 9.60985145 -31.17874109 7.59817723 -26.40380859 5.60009766 C-24.78034582 4.91830169 -23.15857914 4.23245232 -21.53857422 3.54248047 C-19.20958588 2.55137606 -16.87488573 1.57501185 -14.53857422 0.60131836 C-13.81551086 0.28992416 -13.09244751 -0.02147003 -12.34747314 -0.34230042 C-7.13774523 -2.48901336 -4.93142952 -2.48081732 0 0 Z " fill="#FEFEFE" transform="translate(297.71044921875,179.363525390625)"/>
<path d="M0 0 C0.33 0 0.66 0 1 0 C0.97477768 0.61006393 0.94955536 1.22012787 0.92356873 1.84867859 C0.67578511 8.25795276 0.55068548 14.66169637 0.4934082 21.07543945 C0.45648587 23.46088034 0.38934946 25.84606744 0.2902832 28.22973633 C-0.66028213 41.36548465 -0.66028213 41.36548465 3.65328979 53.33508301 C7.6085651 57.2924314 12.09080671 60.12459935 16.97044373 62.81048584 C19.88642201 64.51952811 22.20313057 66.58932022 24.6875 68.875 C26.71071661 70.85095186 26.71071661 70.85095186 29 72 C33.60557016 71.62412553 36.64594696 70.29593925 40.51953125 67.83984375 C41.54240234 67.21142578 42.56527344 66.58300781 43.61914062 65.93554688 C45.74139695 64.6076764 47.8586472 63.27176997 49.97070312 61.92773438 C59.97182678 55.81907567 59.97182678 55.81907567 65.63842773 56.3269043 C71.10261743 57.88430851 75.82133815 60.98188539 80.625 63.9375 C81.78042233 64.63104722 82.93684319 65.32293356 84.09423828 66.01318359 C86.36927283 67.37351849 88.63610954 68.74511943 90.90039062 70.12353516 C93.54602821 71.72517114 96.20657015 73.28826665 98.890625 74.82421875 C110.23104609 81.37248295 110.23104609 81.37248295 113 86 C113.60127858 89.89396891 113.56031244 93.75380492 113.53125 97.6875 C113.5350769 98.82276123 113.53890381 99.95802246 113.54284668 101.12768555 C113.54556537 103.52491138 113.53820731 105.92216689 113.52148438 108.31933594 C113.50007587 111.98700142 113.52128935 115.65270789 113.546875 119.3203125 C113.54423172 121.65104599 113.53910674 123.98177826 113.53125 126.3125 C113.53934692 127.40844482 113.54744385 128.50438965 113.55578613 129.63354492 C113.46303171 137.17065636 113.46303171 137.17065636 111.31811523 141.01245117 C108.78138272 143.18744216 106.29680947 144.85603963 103.37890625 146.48828125 C102.28392822 147.10880371 101.1889502 147.72932617 100.06079102 148.36865234 C98.8947554 149.01671204 97.72865738 149.66465945 96.5625 150.3125 C94.78918241 151.31203233 93.01794714 152.31517977 91.24693298 153.31878662 C89.52888764 154.2922261 87.80937753 155.26307892 86.08984375 156.23388672 C81.38499078 158.92311763 76.79552473 161.77368304 72.22265625 164.6796875 C70 166 70 166 67 167 C66.78065796 168.51352051 66.78065796 168.51352051 66.55688477 170.05761719 C66.012881 173.80759273 65.46619317 177.55717291 64.91870117 181.30664062 C64.68229325 182.92827904 64.44660954 184.55002321 64.21166992 186.171875 C63.8734957 188.50549164 63.53270338 190.83871331 63.19140625 193.171875 C63.08719864 193.89493835 62.98299103 194.61800171 62.87562561 195.36297607 C62.39649315 198.62208979 61.89397956 201.82619306 61 205 C56.79377323 203.50746792 53.10414055 201.3892524 49.28125 199.12109375 C46.85079932 197.92667706 44.6656708 197.41768433 42 197 C41.91797939 191.70967084 42.17398386 186.69512105 42.875 181.4375 C43.00817627 180.42236328 43.00817627 180.42236328 43.14404297 179.38671875 C43.42453614 177.25713964 43.71213036 175.12859316 44 173 C44.19318203 171.54303148 44.38589447 170.08600061 44.578125 168.62890625 C45.04666639 165.08520169 45.5215744 161.54238529 46 158 C45.0929834 157.71479492 44.1859668 157.42958984 43.25146484 157.13574219 C40.58424154 156.20407656 38.39367686 155.24908402 35.9765625 153.828125 C35.26886719 153.41377197 34.56117188 152.99941895 33.83203125 152.57250977 C33.10371094 152.13608154 32.37539063 151.69965332 31.625 151.25 C30.49771484 150.57892212 30.49771484 150.57892212 29.34765625 149.89428711 C15.52631607 141.57894821 15.52631607 141.57894821 14 137 C13.96816292 135.39486596 13.99781814 133.78814833 14.06445312 132.18408203 C14.26053832 126.68832512 14.36220917 121.19702887 14.43115234 115.69824219 C14.47672 113.33324844 14.55085646 110.96861722 14.65478516 108.60546875 C15.62107308 95.57376811 15.62107308 95.57376811 11.37210083 83.68167114 C7.45282374 79.73003136 2.99771197 76.89519536 -1.85899353 74.22767639 C-5.15272447 72.33901525 -8.08181525 70.02757482 -11.0625 67.6875 C-12.70768983 66.45747217 -14.35324286 65.22792873 -16 64 C-13.18290153 60.96620165 -10.41194794 58.90600312 -6.8125 56.875 C-3.26347917 55.05921601 -3.26347917 55.05921601 -1 52 C-0.88112044 50.33600717 -0.82288056 48.66750725 -0.79467773 46.99951172 C-0.77473251 45.95858368 -0.75478729 44.91765564 -0.73423767 43.84518433 C-0.70916893 42.1545134 -0.70916893 42.1545134 -0.68359375 40.4296875 C-0.66281265 39.27832306 -0.64203156 38.12695862 -0.62062073 36.94070435 C-0.55508335 33.2521986 -0.49622072 29.56361997 -0.4375 25.875 C-0.39431877 23.37889862 -0.35070462 20.8828047 -0.30664062 18.38671875 C-0.19939769 12.25789019 -0.09763911 6.12898867 0 0 Z " fill="#072C76" transform="translate(388,122)"/>
<path d="M0 0 C2.69042969 1.1105957 2.69042969 1.1105957 5.421875 2.67578125 C6.94820557 3.53949341 6.94820557 3.53949341 8.50537109 4.4206543 C9.57609863 5.04496338 10.64682617 5.66927246 11.75 6.3125 C12.8529541 6.94389893 13.9559082 7.57529785 15.09228516 8.22583008 C21.8956756 12.1403189 28.6595719 16.12389492 35.375 20.1875 C36.47859863 20.85422729 36.47859863 20.85422729 37.60449219 21.53442383 C38.27899414 21.94974365 38.95349609 22.36506348 39.6484375 22.79296875 C40.51734619 23.32700317 40.51734619 23.32700317 41.40380859 23.87182617 C44.76615582 26.24830316 46.21013442 27.94116936 47 32 C47.11281455 33.61124291 47.17823502 35.22616499 47.20874023 36.84106445 C47.22803085 37.79918533 47.24732147 38.75730621 47.26719666 39.74446106 C47.32519092 44.11369746 47.37419003 48.48277607 47.4050293 52.85229492 C47.42662746 55.15387967 47.46075137 57.45538189 47.50756836 59.7565918 C47.57460226 63.08419267 47.60203218 66.41010025 47.62109375 69.73828125 C47.64892441 70.76141922 47.67675507 71.78455719 47.70542908 72.83869934 C47.69147661 77.70446341 47.48196165 81.08829012 44.35864258 84.95556641 C41.42705278 87.85665013 38.25520793 89.9759909 34.640625 91.97265625 C33.75670074 92.46915932 33.75670074 92.46915932 32.85491943 92.97569275 C30.99355678 94.01774646 29.12248464 95.04059321 27.25 96.0625 C25.40047862 97.08885343 23.55316137 98.11908372 21.70617676 99.1499939 C20.50084073 99.8206358 19.2934081 100.487524 18.0838623 101.15054321 C14.51521592 103.1133234 11.08802438 105.21890913 7.671875 107.43359375 C3.18850613 110.11296552 -0.72631407 111.64253838 -6 111 C-9.32495336 109.85980743 -12.19239142 108.19850691 -15.1875 106.375 C-16.03248047 105.88370605 -16.87746094 105.39241211 -17.74804688 104.88623047 C-19.5570746 103.83052318 -21.3601649 102.76458726 -23.15771484 101.68945312 C-26.10248194 99.93908478 -29.07248656 98.23948905 -32.05078125 96.546875 C-34.03462593 95.40759284 -36.01771724 94.26699766 -38 93.125 C-38.93739014 92.59052246 -39.87478027 92.05604492 -40.84057617 91.50537109 C-42.15699097 90.73314209 -42.15699097 90.73314209 -43.5 89.9453125 C-44.2734375 89.49687988 -45.046875 89.04844727 -45.84375 88.58642578 C-48.68546249 86.49568215 -50.21850393 85.10776225 -52 82 C-52.60405163 78.03246678 -52.58418661 74.10095644 -52.56640625 70.09375 C-52.57570412 68.35756409 -52.57570412 68.35756409 -52.58518982 66.58630371 C-52.59228572 64.14201701 -52.58911808 61.69768196 -52.57641602 59.25341797 C-52.56254855 55.51309353 -52.59663133 51.77526953 -52.63476562 48.03515625 C-52.6357168 45.65885355 -52.63385808 43.28254773 -52.62890625 40.90625 C-52.64216446 39.7884314 -52.65542267 38.67061279 -52.66908264 37.5189209 C-52.57636216 29.79104675 -52.57636216 29.79104675 -49.78198242 25.95581055 C-47.17764092 24.12488648 -44.62506563 22.37777743 -41.859375 20.80078125 C-40.87888184 20.23568848 -39.89838867 19.6705957 -38.88818359 19.08837891 C-37.33478271 18.20931885 -37.33478271 18.20931885 -35.75 17.3125 C-33.59072631 16.07755615 -31.43187471 14.84187401 -29.2734375 13.60546875 C-28.21092773 12.99880371 -27.14841797 12.39213867 -26.05371094 11.76708984 C-23.29414292 10.17021158 -20.56718099 8.53347819 -17.8515625 6.86328125 C-16.7054248 6.16368286 -16.7054248 6.16368286 -15.53613281 5.44995117 C-14.13608357 4.59160648 -12.74175657 3.7238285 -11.35449219 2.8449707 C-7.30443803 0.38600925 -4.69887807 -0.41110591 0 0 Z " fill="#072C76" transform="translate(435,319)"/>
<path d="M0 0 C3.92849872 1.8214264 7.56898487 4.03893183 11.25 6.3125 C13.38240802 7.59702588 15.51522634 8.88087085 17.6484375 10.1640625 C18.71030273 10.80891602 19.77216797 11.45376953 20.86621094 12.11816406 C23.79787733 13.87862562 26.75113944 15.58823292 29.7265625 17.2734375 C30.59893555 17.76803467 31.47130859 18.26263184 32.37011719 18.7722168 C34.00659662 19.69684363 35.64518687 20.61774716 37.28613281 21.53442383 C38.01413086 21.94974365 38.74212891 22.36506348 39.4921875 22.79296875 C40.12495605 23.1489917 40.75772461 23.50501465 41.40966797 23.87182617 C43 25 43 25 45 28 C45.28761292 30.40840149 45.28761292 30.40840149 45.33813477 33.29418945 C45.36057755 34.37573807 45.38302032 35.45728668 45.40614319 36.5716095 C45.4235984 38.32473701 45.4235984 38.32473701 45.44140625 40.11328125 C45.46206398 41.91674263 45.46206398 41.91674263 45.48313904 43.75663757 C45.50643015 46.30279934 45.52368579 48.84902233 45.53540039 51.39526367 C45.56232656 55.28742889 45.637225 59.17687877 45.71289062 63.06835938 C45.72954742 65.54164837 45.74331402 68.01495885 45.75390625 70.48828125 C45.78376114 71.65096024 45.81361603 72.81363922 45.84437561 74.0115509 C45.80169664 81.86807083 45.80169664 81.86807083 43.59205627 84.98789978 C41.81092529 86.56943349 40.05176096 87.79529769 38 89 C37.04327393 89.61222412 36.08654785 90.22444824 35.10083008 90.85522461 C34.16650146 91.36577393 33.23217285 91.87632324 32.26953125 92.40234375 C30.69268555 93.27342773 30.69268555 93.27342773 29.08398438 94.16210938 C28.00439453 94.74798828 26.92480469 95.33386719 25.8125 95.9375 C23.67257379 97.1121829 21.53324918 98.2879624 19.39453125 99.46484375 C18.33830566 100.04089355 17.28208008 100.61694336 16.19384766 101.21044922 C12.0059746 103.55696424 7.92610417 106.07124184 3.8581543 108.61938477 C0.43176643 110.274482 -2.19398679 110.86184879 -6 111 C-9.01928711 109.89526367 -9.01928711 109.89526367 -12.02734375 108.16796875 C-13.14230225 107.53874512 -14.25726074 106.90952148 -15.40600586 106.26123047 C-16.58365822 105.57081809 -17.76081447 104.87955888 -18.9375 104.1875 C-20.1471931 103.49247663 -21.35756537 102.79863407 -22.56860352 102.10595703 C-26.06230709 100.09812799 -29.5323906 98.05256439 -33 96 C-33.90878906 95.46681152 -34.81757813 94.93362305 -35.75390625 94.38427734 C-37.99230704 93.0643215 -40.21863547 91.72748385 -42.4375 90.375 C-43.06197021 89.99883545 -43.68644043 89.6226709 -44.32983398 89.23510742 C-48.08137161 86.87695264 -50.72162922 84.80990219 -53 81 C-53.61122973 77.10695039 -53.58421218 73.24694161 -53.56640625 69.3125 C-53.57260483 68.17723877 -53.57880341 67.04197754 -53.58518982 65.87231445 C-53.59228514 63.47510637 -53.5891191 61.07784899 -53.57641602 58.68066406 C-53.56254821 55.01275019 -53.59663219 51.34738607 -53.63476562 47.6796875 C-53.6357168 45.34895771 -53.63385807 43.01822472 -53.62890625 40.6875 C-53.64216446 39.59155518 -53.65542267 38.49561035 -53.66908264 37.36645508 C-53.57628448 29.78034484 -53.57628448 29.78034484 -50.75024414 25.95361328 C-48.31837382 24.22615422 -45.94821129 22.54896443 -43.3671875 21.0546875 C-42.04763062 20.28257935 -42.04763062 20.28257935 -40.70141602 19.49487305 C-39.76869873 18.96031494 -38.83598145 18.42575684 -37.875 17.875 C-35.90233566 16.73308689 -33.92967957 15.59115954 -31.95703125 14.44921875 C-30.96396973 13.8773584 -29.9709082 13.30549805 -28.94775391 12.71630859 C-26.13552785 11.07891012 -23.3518819 9.40224904 -20.57421875 7.70703125 C-19.72811035 7.19736816 -18.88200195 6.68770508 -18.01025391 6.16259766 C-16.41852191 5.20336718 -14.83312712 4.23351362 -13.25537109 3.25146484 C-8.67140057 0.52439605 -5.44807761 -1.02115193 0 0 Z " fill="#082C75" transform="translate(192,286)"/>
<path d="M0 0 C4.16392316 1.82924668 8.03027765 4.05447297 11.9375 6.375 C13.03400879 7.00970215 14.13051758 7.6444043 15.26025391 8.29833984 C17.47222181 9.58150777 19.67997952 10.87196297 21.88330078 12.16992188 C24.67806562 13.81096505 27.48728682 15.42080816 30.30859375 17.015625 C31.83117381 17.88463808 33.35334262 18.7543723 34.875 19.625 C35.56327881 20.01349121 36.25155762 20.40198242 36.96069336 20.80224609 C40.44135137 22.83207278 42.91199395 24.54281162 45 28 C45.39440918 30.49742126 45.39440918 30.49742126 45.41992188 33.33178711 C45.44378967 34.92880714 45.44378967 34.92880714 45.46813965 36.55809021 C45.46834106 37.70294388 45.46854248 38.84779755 45.46875 40.02734375 C45.48017029 41.79894615 45.48017029 41.79894615 45.49182129 43.6063385 C45.50262514 46.10366705 45.50547426 48.6010408 45.50097656 51.09838867 C45.50000448 54.91987431 45.54162237 58.73935128 45.5859375 62.56054688 C45.59114458 64.98697498 45.59383269 67.41341006 45.59375 69.83984375 C45.61014526 70.98267319 45.62654053 72.12550262 45.64343262 73.30296326 C45.57470171 81.19009496 45.57470171 81.19009496 42.85424805 85.02392578 C39.86975149 87.09017461 36.90753807 89.00449283 33.73828125 90.77734375 C32.85223457 91.27809166 32.85223457 91.27809166 31.94828796 91.78895569 C30.07394416 92.84625844 28.1935811 93.89223972 26.3125 94.9375 C24.45673575 95.97817208 22.60230749 97.02117652 20.74850464 98.06533813 C19.53721173 98.74617451 18.32426336 99.42407427 17.10964966 100.09896851 C13.53899958 102.09106579 10.09802193 104.21860443 6.66796875 106.44140625 C2.18662396 109.11506103 -1.73134256 110.64192571 -7 110 C-10.32497224 108.85980096 -13.19220293 107.19819781 -16.1875 105.375 C-17.03175537 104.88515625 -17.87601074 104.3953125 -18.74584961 103.890625 C-20.55440309 102.83683521 -22.35675318 101.77233954 -24.15332031 100.69824219 C-27.11590297 98.93085583 -30.0982238 97.20108493 -33.0859375 95.4765625 C-40.85559815 90.96449885 -40.85559815 90.96449885 -44.59765625 88.75 C-45.37633057 88.29109375 -46.15500488 87.8321875 -46.95727539 87.359375 C-50.22474878 85.1849646 -51.74403834 83.76788498 -53 80 C-53.11183587 78.36021742 -53.16888811 76.71641491 -53.19287109 75.07299805 C-53.20893402 74.07153244 -53.22499695 73.07006683 -53.24154663 72.03825378 C-53.28607401 67.46341695 -53.32705292 62.88872357 -53.35009766 58.3137207 C-53.36666301 55.90151323 -53.3939603 53.48935495 -53.43212891 51.07739258 C-53.48690966 47.59690931 -53.50877359 44.11757514 -53.5234375 40.63671875 C-53.54610687 39.56153488 -53.56877625 38.48635101 -53.59213257 37.37858582 C-53.56856007 29.01730229 -53.56856007 29.01730229 -50.85424805 25.51269531 C-47.95131206 22.95713829 -45.1883912 21.03663444 -41.80859375 19.16015625 C-41.22263931 18.83011093 -40.63668488 18.50006561 -40.03297424 18.16001892 C-38.17394803 17.11605237 -36.30626891 16.08890441 -34.4375 15.0625 C-32.60327033 14.03986778 -30.77096547 13.01385196 -28.93887329 11.98739624 C-27.72925815 11.31215217 -26.51748198 10.64076454 -25.30355835 9.97329712 C-22.38210344 8.36282448 -19.53370332 6.70817605 -16.70361328 4.93701172 C-5.91936466 -1.80208406 -5.91936466 -1.80208406 0 0 Z " fill="#062B75" transform="translate(343,92)"/>
<path d="M0 0 C0.495 0.99 0.495 0.99 1 2 C3.5086467 2.2818911 3.5086467 2.2818911 6.5625 2.3125 C23.59351245 3.58795027 23.59351245 3.58795027 30 8 C33.41989263 12.0226705 35.1439995 17.04343409 37.08154297 21.89111328 C38.55294755 25.26963343 40.47658077 28.30388317 42.5 31.375 C42.87825928 31.95145264 43.25651855 32.52790527 43.64624023 33.12182617 C47.13233716 38.33859887 50.92304098 43.23564673 55 48 C55.68578125 48.80824219 56.3715625 49.61648438 57.078125 50.44921875 C74.11975739 69.97353499 94.88108811 83.61533153 118.671875 93.58984375 C121.17343363 94.64977646 123.59473542 95.7427026 126 97 C122.86223689 98.04592104 120.6476116 98.13597575 117.35362244 98.15390015 C116.17755432 98.16250061 115.00148621 98.17110107 113.78977966 98.17996216 C112.49782181 98.18422211 111.20586395 98.18848206 109.87475586 98.19287109 C108.50139154 98.20077431 107.12802928 98.2090434 105.75466919 98.21765137 C101.24141417 98.24385562 96.72814997 98.25918174 92.21484375 98.2734375 C90.65892595 98.27879866 89.10300821 98.28417617 87.54709053 98.28956985 C81.07119392 98.31120011 74.59529978 98.32993375 68.11937618 98.34119225 C58.85268705 98.35741029 49.58641862 98.39053379 40.31988806 98.44759309 C33.7974323 98.48637859 27.27508863 98.50583533 20.75252062 98.51111281 C16.86089896 98.51475578 12.96972618 98.52666284 9.0782299 98.55921555 C5.41154715 98.58944699 1.74558124 98.59555524 -1.9211998 98.58383179 C-3.89456172 98.5835083 -5.86788039 98.60787561 -7.84107971 98.63320923 C-16.61026458 98.57220749 -23.51445572 97.07847826 -30.13830662 91.05574608 C-35.63235815 85.3508339 -38.04394168 79.60728581 -38.5625 71.75 C-38.30957276 64.88349384 -35.44538666 59.79359562 -32 54 C-31.60796387 53.33484375 -31.21592773 52.6696875 -30.81201172 51.984375 C-28.42716854 47.95253066 -26.00915231 43.94163221 -23.578125 39.9375 C-19.29080789 32.85581469 -15.11601914 25.70869143 -10.9375 18.5625 C-9.83256513 16.67317918 -8.72761651 14.78386647 -7.62249756 12.89465332 C-6.65140644 11.23417302 -5.68102582 9.57327727 -4.71069336 7.91235352 C-3.15586431 5.2653497 -1.58441735 2.6293747 0 0 Z " fill="#92B1F3" transform="translate(268,431)"/>
<path d="M0 0 C2.6908148 3.23266975 4.93884808 6.42777197 6.9609375 10.11328125 C7.78223145 11.59779785 7.78223145 11.59779785 8.62011719 13.11230469 C9.19922852 14.16836914 9.77833984 15.22443359 10.375 16.3125 C15.9540932 26.39766954 21.67490307 36.38160535 27.55615234 46.29418945 C28.10996582 47.23351318 28.6637793 48.17283691 29.234375 49.140625 C29.72131836 49.96079102 30.20826172 50.78095703 30.70996094 51.62597656 C34.65876562 58.89285331 35.4850038 66.5817429 33.27734375 74.63671875 C30.78875827 80.57103798 27.40230097 85.39846602 22 89 C14.92937904 89.5186942 8.78088532 86.45294266 2.625 83.375 C1.23474609 82.6934082 1.23474609 82.6934082 -0.18359375 81.99804688 C-6.74859435 78.73401352 -13.04689901 75.29843472 -19 71 C-19.99515625 70.28714844 -20.9903125 69.57429688 -22.015625 68.83984375 C-45.85891747 51.3302669 -63.44724464 29.68337103 -76 3 C-72.96267269 1.48133635 -71.10347367 2.76458123 -67.9375 3.8125 C-59.42523081 6.61618438 -51.66108296 8.35610344 -42.6875 8.25 C-41.86008301 8.24395752 -41.03266602 8.23791504 -40.18017578 8.23168945 C-31.18518642 8.08700499 -22.85386827 6.85597731 -14.37890625 3.796875 C-9.67498419 2.22117697 -4.82233443 1.15050618 0 0 Z " fill="#D1DBFC" transform="translate(374,438)"/>
<path d="M0 0 C3.4250513 0.88490368 5.93827685 2.14063514 8.97583008 3.9453125 C10.03479492 4.56921875 11.09375977 5.193125 12.18481445 5.8359375 C13.2747168 6.49078125 14.36461914 7.145625 15.48754883 7.8203125 C16.59678711 8.47515625 17.70602539 9.13 18.84887695 9.8046875 C26.97838529 14.62364897 26.97838529 14.62364897 28.17504883 15.8203125 C28.26352626 18.34125326 28.29032184 20.83462143 28.27270508 23.35546875 C28.27129013 24.10871933 28.26987518 24.86196991 28.26841736 25.63804626 C28.26280259 28.0530081 28.25024766 30.46787851 28.23754883 32.8828125 C28.23253573 34.51627471 28.22797249 36.14973836 28.22387695 37.78320312 C28.21282837 41.79560835 28.19555389 45.80794491 28.17504883 49.8203125 C24.29247502 52.15906567 20.39671055 54.47332473 16.48681641 56.76611328 C15.1590296 57.54926266 13.83507386 58.33894574 12.51513672 59.13525391 C10.61592748 60.27949354 8.70413384 61.39945056 6.78833008 62.515625 C6.20167068 62.87592804 5.61501129 63.23623108 5.01057434 63.60745239 C2.27503283 65.17241041 0.76302465 65.95679882 -2.3659668 65.23046875 C-3.17743164 64.76511719 -3.98889648 64.29976563 -4.82495117 63.8203125 C-5.76959229 63.32128418 -6.7142334 62.82225586 -7.6875 62.30810547 C-8.7086792 61.73205566 -9.7298584 61.15600586 -10.78198242 60.5625 C-11.89379883 59.93730469 -13.00561523 59.31210937 -14.15112305 58.66796875 C-15.31327018 58.0104834 -16.47537908 57.35293047 -17.63745117 56.6953125 C-18.81893306 56.02966609 -20.00057217 55.36429866 -21.18237305 54.69921875 C-24.06479022 53.07565316 -26.94557448 51.44926235 -29.82495117 49.8203125 C-33.08947385 24.97227255 -33.08947385 24.97227255 -29.82495117 15.8203125 C-24.46580695 8.96287632 -16.37431062 5.7019845 -8.36865234 2.79296875 C-0.91263634 -0.05805033 -0.91263634 -0.05805033 0 0 Z " fill="#FA7C9F" transform="translate(432.824951171875,342.1796875)"/>
<path d="M0 0 C2.66551783 1.23681358 5.22014661 2.58960604 7.78100586 4.03295898 C8.8915332 4.65686523 10.00206055 5.28077148 11.14624023 5.92358398 C12.0068103 6.41181641 12.0068103 6.41181641 12.88476562 6.90991211 C14.6462316 7.90906195 16.41146891 8.90126215 18.17749023 9.89233398 C26.80529345 14.75646533 26.80529345 14.75646533 27.95678711 15.90795898 C28.04526454 18.42889975 28.07206012 20.92226791 28.05444336 23.44311523 C28.05302841 24.19636581 28.05161346 24.94961639 28.05015564 25.72569275 C28.04454087 28.14065458 28.03198594 30.55552499 28.01928711 32.97045898 C28.01427401 34.60392119 28.00971077 36.23738484 28.00561523 37.87084961 C27.99456665 41.88325483 27.97729217 45.89559139 27.95678711 49.90795898 C24.0742133 52.24671216 20.17844883 54.56097122 16.26855469 56.85375977 C14.94076788 57.63690915 13.61681215 58.42659223 12.296875 59.22290039 C10.39766576 60.36714003 8.48587212 61.48709704 6.57006836 62.60327148 C5.98340897 62.96357452 5.39674957 63.32387756 4.79231262 63.69509888 C2.05677112 65.2600569 0.54476293 66.0444453 -2.58422852 65.31811523 C-3.39569336 64.85276367 -4.2071582 64.38741211 -5.04321289 63.90795898 C-5.987854 63.40893066 -6.93249512 62.90990234 -7.90576172 62.39575195 C-8.92694092 61.81970215 -9.94812012 61.24365234 -11.00024414 60.65014648 C-12.00289307 60.08666504 -13.00554199 59.52318359 -14.03857422 58.94262695 C-15.29822998 58.22993652 -16.55788574 57.51724609 -17.85571289 56.78295898 C-21.87758789 54.51420898 -25.89946289 52.24545898 -30.04321289 49.90795898 C-30.04321289 38.68795898 -30.04321289 27.46795898 -30.04321289 15.90795898 C-25.50571289 13.24733398 -20.96821289 10.58670898 -16.29321289 7.84545898 C-14.86783203 7.00104248 -13.44245117 6.15662598 -11.97387695 5.28662109 C-10.84691406 4.63443604 -9.71995117 3.98225098 -8.55883789 3.31030273 C-7.68267822 2.78442566 -7.68267822 2.78442566 -6.78881836 2.2479248 C-2.65102496 -0.11942125 -2.65102496 -0.11942125 0 0 Z " fill="#FA8D02" transform="translate(340.043212890625,114.092041015625)"/>
<path d="M0 0 C2.65307617 1.27514648 2.65307617 1.27514648 5.29296875 2.87109375 C6.25267578 3.44537109 7.21238281 4.01964844 8.20117188 4.61132812 C9.18666016 5.21396484 10.17214844 5.81660156 11.1875 6.4375 C12.18458984 7.03626953 13.18167969 7.63503906 14.20898438 8.25195312 C17.84928371 10.44398772 21.46402653 12.64268435 25 15 C25.98258149 20.28728342 26.03598232 25.69275545 26.125 31.0625 C26.13768921 31.82665222 26.15037842 32.59080444 26.16345215 33.37811279 C26.22476976 45.79624761 26.22476976 45.79624761 23.70800781 50.32470703 C20.39447052 53.59576308 16.41610258 55.00622472 12.01855469 56.31689453 C8.79337422 57.40833804 6.22705669 59.20973 3.375 61.0625 C-0.29220717 63.32753972 -2.67278296 64.76956338 -7 64 C-9.87910408 62.64142038 -12.55122924 60.99624636 -15.25 59.3125 C-16.69200206 58.43243545 -18.13471317 57.55353169 -19.578125 56.67578125 C-20.29291016 56.23830566 -21.00769531 55.80083008 -21.74414062 55.35009766 C-25.44228161 53.13681631 -29.21766853 51.06516188 -33 49 C-33.3234878 44.30502444 -33.5580634 39.6166106 -33.71411133 34.91308594 C-33.77916664 33.31753592 -33.86766316 31.72275186 -33.98071289 30.12988281 C-34.34695922 24.83339745 -34.40416967 20.15256367 -33 15 C-29.17095303 11.13064361 -24.94612268 9.15924313 -20 7 C-18.60875787 6.17336944 -17.23058442 5.32344704 -15.87890625 4.43359375 C-14.78449219 3.77488281 -13.69007813 3.11617187 -12.5625 2.4375 C-11.45003906 1.75558594 -10.33757812 1.07367188 -9.19140625 0.37109375 C-5.39930177 -1.25807231 -3.95280133 -0.9658568 0 0 Z " fill="#AFD752" transform="translate(212,169)"/>
<path d="M0 0 C10.15339732 3.26826094 20.63715359 7.38894912 27.55981445 15.82397461 C31.76447558 24.84539053 31.32587829 36.64158196 28.98266602 46.1262207 C26.16128938 53.45850803 20.70664998 56.49036065 13.83105469 59.66625977 C11.95495983 60.43446101 10.06104131 61.16160313 8.14697266 61.82958984 C5.4668767 62.77300756 5.4668767 62.77300756 2.87182617 64.44628906 C0.55981445 65.82397461 0.55981445 65.82397461 -1.7331543 65.80834961 C-5.69750152 64.3667688 -9.15762127 62.26199966 -12.75268555 60.07397461 C-13.47391602 59.64342773 -14.19514648 59.21288086 -14.93823242 58.76928711 C-16.3951492 57.89644369 -17.84062616 57.00422778 -19.27416992 56.09350586 C-21.39712938 54.76943357 -21.39712938 54.76943357 -23.69995117 53.96069336 C-26.2757771 52.85046361 -27.64833745 52.00412449 -29.44018555 49.82397461 C-31.03582324 44.3407327 -31.28279773 39.01001032 -31.31518555 33.32397461 C-31.33589615 32.1651326 -31.33589615 32.1651326 -31.35702515 30.98287964 C-31.38400732 24.47047346 -31.34240343 18.35806805 -27.32641602 13.00805664 C-22.17592347 8.69391188 -16.34066692 6.02163248 -10.02734375 3.81835938 C-7.35287224 2.89954072 -7.35287224 2.89954072 -4.92138672 1.14013672 C-2.44018555 -0.17602539 -2.44018555 -0.17602539 0 0 Z " fill="#D0DBFC" transform="translate(452.440185546875,201.176025390625)"/>
<path d="M0 0 C2.26171875 0.66796875 2.26171875 0.66796875 4.6875 2.1875 C6.09515625 3.03248047 6.09515625 3.03248047 7.53125 3.89453125 C8.06492188 4.22275879 8.59859375 4.55098633 9.1484375 4.88916016 C12.93253402 7.15941849 16.82267531 9.24625441 20.6875 11.375 C22.27519932 12.25698542 23.86247464 13.13973477 25.44921875 14.0234375 C26.47535278 14.59457275 26.47535278 14.59457275 27.5222168 15.17724609 C28.00988525 15.44875488 28.49755371 15.72026367 29 16 C29.22334904 20.73194539 29.38615853 25.46079744 29.49438477 30.19677734 C29.53950884 31.80539397 29.60083129 33.41364414 29.67895508 35.02099609 C30.30794828 48.29974157 30.30794828 48.29974157 27.28173828 52.23364258 C24.92510214 53.82572119 22.62258546 54.90731848 20 56 C18.44153002 56.91676612 16.89431492 57.85295352 15.359375 58.80859375 C13.82515982 59.68881721 12.28869797 60.56513649 10.75 61.4375 C9.97398437 61.89576172 9.19796875 62.35402344 8.3984375 62.82617188 C7.64304688 63.25349609 6.88765625 63.68082031 6.109375 64.12109375 C5.43874023 64.5070874 4.76810547 64.89308105 4.07714844 65.29077148 C1.28406867 66.24444999 -0.19145757 65.87806515 -3 65 C-4.93735837 64.02754362 -6.83688591 62.97780574 -8.703125 61.875 C-9.7653125 61.25109375 -10.8275 60.6271875 -11.921875 59.984375 C-13.02015625 59.32953125 -14.1184375 58.6746875 -15.25 58 C-16.36375 57.34515625 -17.4775 56.6903125 -18.625 56.015625 C-26.8234747 51.1765253 -26.8234747 51.1765253 -28 50 C-28.08847743 47.47905924 -28.11527301 44.98569107 -28.09765625 42.46484375 C-28.0962413 41.71159317 -28.09482635 40.95834259 -28.09336853 40.18226624 C-28.08775376 37.7673044 -28.07519883 35.35243399 -28.0625 32.9375 C-28.0574869 31.30403779 -28.05292366 29.67057414 -28.04882812 28.03710938 C-28.03777954 24.02470415 -28.02050506 20.01236759 -28 16 C-27.3294458 15.62190186 -26.6588916 15.24380371 -25.96801758 14.85424805 C-22.91578326 13.13269816 -19.86413646 11.41010942 -16.8125 9.6875 C-15.75740234 9.09259766 -14.70230469 8.49769531 -13.61523438 7.88476562 C-12.59365234 7.30791016 -11.57207031 6.73105469 -10.51953125 6.13671875 C-9.58214111 5.60780029 -8.64475098 5.07888184 -7.67895508 4.53393555 C-5.85687049 3.49063313 -4.06262804 2.39748839 -2.29638672 1.26220703 C-1.5385791 0.84567871 -0.78077148 0.42915039 0 0 Z " fill="#FBCA50" transform="translate(188,308)"/>
<path d="M0 0 C24.42 0 48.84 0 74 0 C74 6.6 74 13.2 74 20 C49.58 20 25.16 20 0 20 C0 13.4 0 6.8 0 0 Z " fill="#8DACEF" transform="translate(284,278)"/>
<path d="M0 0 C0.33 0 0.66 0 1 0 C0.97477768 0.61006393 0.94955536 1.22012787 0.92356873 1.84867859 C0.67578511 8.25795276 0.55068548 14.66169637 0.4934082 21.07543945 C0.45648587 23.46088034 0.38934946 25.84606744 0.2902832 28.22973633 C-0.65745418 41.36454458 -0.65745418 41.36454458 3.65026855 53.33810425 C7.59665714 57.30041811 12.0725329 60.14911121 16.9553833 62.82554626 C19.87084644 64.50022523 22.30848245 66.52029008 24.875 68.6875 C27.21489125 70.59120943 29.48504591 72.32336394 32 74 C31.01257813 74.55429688 30.02515625 75.10859375 29.0078125 75.6796875 C27.71344465 76.41128672 26.41917913 77.14306699 25.125 77.875 C24.14853516 78.42220703 24.14853516 78.42220703 23.15234375 78.98046875 C20.49606646 80.48660536 18.16980999 81.83019001 16 84 C15.66883262 86.34409571 15.66883262 86.34409571 15.68115234 89.09228516 C15.66128265 90.15323395 15.64141296 91.21418274 15.62094116 92.30728149 C15.60361435 94.03076309 15.60361435 94.03076309 15.5859375 95.7890625 C15.56657135 96.96262299 15.5472052 98.13618347 15.5272522 99.3453064 C15.46732336 103.10512961 15.42101754 106.86498323 15.375 110.625 C15.3368325 113.16928442 15.29778151 115.71355575 15.2578125 118.2578125 C15.16161095 124.50509241 15.07660262 130.75245072 15 137 C14.67 137 14.34 137 14 137 C14.02522232 136.38993607 14.05044464 135.77987213 14.07643127 135.15132141 C14.32421489 128.74204724 14.44931452 122.33830363 14.5065918 115.92456055 C14.54351413 113.53911966 14.61065054 111.15393256 14.7097168 108.77026367 C15.65178098 95.64796996 15.65178098 95.64796996 11.36886597 83.67196655 C7.45208125 79.71834259 2.99894956 76.88700413 -1.86000061 74.22465515 C-5.15492657 72.33907142 -8.08256779 70.02758104 -11.0625 67.6875 C-12.70768983 66.45747217 -14.35324286 65.22792873 -16 64 C-13.18290153 60.96620165 -10.41194794 58.90600312 -6.8125 56.875 C-3.26347917 55.05921601 -3.26347917 55.05921601 -1 52 C-0.88112044 50.33600717 -0.82288056 48.66750725 -0.79467773 46.99951172 C-0.77473251 45.95858368 -0.75478729 44.91765564 -0.73423767 43.84518433 C-0.70916893 42.1545134 -0.70916893 42.1545134 -0.68359375 40.4296875 C-0.66281265 39.27832306 -0.64203156 38.12695862 -0.62062073 36.94070435 C-0.55508335 33.2521986 -0.49622072 29.56361997 -0.4375 25.875 C-0.39431877 23.37889862 -0.35070462 20.8828047 -0.30664062 18.38671875 C-0.19939769 12.25789019 -0.09763911 6.12898867 0 0 Z " fill="#6767EC" transform="translate(388,122)"/>
<path d="M0 0 C0.33 0 0.66 0 1 0 C0.98143951 0.61450516 0.96287903 1.22901031 0.9437561 1.86213684 C0.76322395 8.30373066 0.68272014 14.74126768 0.65820312 21.18530273 C0.63624465 23.58410413 0.58944599 25.98281958 0.51660156 28.38061523 C-0.52794599 42.5393277 -0.52794599 42.5393277 4.95068359 54.89135742 C7.83664752 57.39001829 10.95372423 59.31415961 14.32354736 61.09194946 C16.48089734 62.26047803 18.32117388 63.70377819 20.2109375 65.26171875 C21.25507813 66.06222656 22.29921875 66.86273438 23.375 67.6875 C23.931875 68.11482422 24.48875 68.54214844 25.0625 68.98242188 C26.37444725 69.98900209 27.68712718 70.99462729 29 72 C27.73390452 75.79828645 26.58706633 75.99115206 23.125 77.8125 C18.80617679 80.27422923 16.62474962 82.12575115 15 87 C9.49107118 84.0628598 4.84230339 80.62583832 0.0625 76.625 C-5.18832762 72.26543798 -10.50304706 68.04653336 -16 64 C-12.15304854 60.77352458 -8.0859098 58.01313638 -3.890625 55.26953125 C-2.07270473 54.13698792 -2.07270473 54.13698792 -1 53 C-0.87709282 51.34355634 -0.82216092 49.68201007 -0.79467773 48.02124023 C-0.77473251 46.96021591 -0.75478729 45.89919159 -0.73423767 44.80601501 C-0.71752518 43.651866 -0.70081268 42.49771698 -0.68359375 41.30859375 C-0.6524221 39.5461306 -0.6524221 39.5461306 -0.62062073 37.74806213 C-0.55499876 33.97793676 -0.4961817 30.20773918 -0.4375 26.4375 C-0.3943268 23.88866427 -0.35071292 21.33983597 -0.30664062 18.79101562 C-0.19930455 12.52742108 -0.0975621 6.26375399 0 0 Z " fill="#6665F0" transform="translate(237,316)"/>
<path d="M0 0 C1.01320312 0.5775 2.02640625 1.155 3.0703125 1.75 C4.42150665 2.50066342 5.77308996 3.25062664 7.125 4 C7.79015625 4.3815625 8.4553125 4.763125 9.140625 5.15625 C10.12675781 5.69765625 10.12675781 5.69765625 11.1328125 6.25 C11.72980957 6.58515625 12.32680664 6.9203125 12.94189453 7.265625 C15.57763771 8.33606744 15.57763771 8.33606744 21 8 C19.35 20.87 17.7 33.74 16 47 C11.04282982 45.34760994 8.20632467 43.98652378 4.125 41.12109375 C1.46004736 39.71513528 -1.02888977 39.37560911 -4 39 C-3.32193011 25.92961823 -1.62509702 12.97937322 0 0 Z " fill="#6966F6" transform="translate(190,247)"/>
<path d="M0 0 C0.04898438 1.09699219 0.09796875 2.19398438 0.1484375 3.32421875 C0.22350591 4.77866925 0.29905197 6.23309516 0.375 7.6875 C0.4059375 8.40873047 0.436875 9.12996094 0.46875 9.87304688 C0.52675781 10.93168945 0.52675781 10.93168945 0.5859375 12.01171875 C0.6173584 12.65584717 0.6487793 13.29997559 0.68115234 13.96362305 C1.0778702 16.49733183 1.98454958 18.65377508 3 21 C-1.12122044 22.77972055 -5.24761837 24.54712048 -9.375 26.3125 C-11.10943359 27.06176758 -11.10943359 27.06176758 -12.87890625 27.82617188 C-19.49502918 30.64830341 -26.04709413 33.14304357 -33 35 C-33.06058594 33.80761719 -33.12117188 32.61523438 -33.18359375 31.38671875 C-33.26801149 29.82030075 -33.35265887 28.25389512 -33.4375 26.6875 C-33.47681641 25.90181641 -33.51613281 25.11613281 -33.55664062 24.30664062 C-33.59853516 23.54931641 -33.64042969 22.79199219 -33.68359375 22.01171875 C-33.72025146 21.31522217 -33.75690918 20.61872559 -33.79467773 19.90112305 C-33.95581153 17.7783428 -33.95581153 17.7783428 -35 15 C-35.66 14.67 -36.32 14.34 -37 14 C-35.61554688 13.48953125 -35.61554688 13.48953125 -34.203125 12.96875 C-25.20730664 9.63228923 -16.28106382 6.14696048 -7.38964844 2.54101562 C-6.57141602 2.21037109 -5.75318359 1.87972656 -4.91015625 1.5390625 C-4.17933838 1.24209473 -3.44852051 0.94512695 -2.69555664 0.63916016 C-1 0 -1 0 0 0 Z " fill="#6965F6" transform="translate(290,156)"/>
<path d="M0 0 C10 5 10 5 12.125 6.125 C14.67944776 7.31707562 17.22231934 7.62122537 20 8 C19.49080682 20.8062086 17.12198238 33.38460091 15 46 C10.8308491 44.37007616 7.12573564 42.40206499 3.28125 40.12109375 C0.85079932 38.92667706 -1.3343292 38.41768433 -4 38 C-4.32710341 30.06774232 -3.09645655 22.33340938 -2 14.5 C-1.80680232 13.09121286 -1.61408982 11.68235908 -1.421875 10.2734375 C-0.95351182 6.8481716 -0.47857611 3.4238557 0 0 Z " fill="#6965F6" transform="translate(434,281)"/>
<path d="M0 0 C0.33 0 0.66 0 1 0 C1.15855469 0.81339844 1.31710937 1.62679688 1.48046875 2.46484375 C3.31939814 11.4969334 5.73152917 20.24293722 8.41455078 29.05419922 C9.30901215 32.02703369 10.15486134 35.01280482 11 38 C10.40050537 37.85377197 9.80101074 37.70754395 9.18334961 37.55688477 C6.43554789 36.88868682 3.6865461 36.22555896 0.9375 35.5625 C-0.00544922 35.33240234 -0.94839844 35.10230469 -1.91992188 34.86523438 C-6.93793368 33.65881342 -11.87515501 32.61839322 -17 32 C-16.41276224 27.55281126 -14.72267161 24.43877705 -12.4375 20.60546875 C-12.0861499 20.01325027 -11.7347998 19.4210318 -11.37280273 18.81086731 C-10.6331654 17.56757482 -9.89001503 16.32636624 -9.14355469 15.0871582 C-7.99602763 13.18090115 -6.86052184 11.26786833 -5.7265625 9.35351562 C-1.7018963 2.60669185 -1.7018963 2.60669185 0 0 Z " fill="#CFDAFB" transform="translate(286,401)"/>
<path d="M0 0 C4.36879433 2.34042553 4.36879433 2.34042553 6 5 C6.85406516 8.52013345 6.85406516 11.47986655 6 15 C4.26673512 17.82597535 3.09484645 18.34204655 0 20 C-3.09425163 20.72380155 -4.71119054 20.52203325 -8 20 C-10.69105198 17.82425584 -12.45532928 16.08934144 -14 13 C-14.4136968 8.34591099 -13.81070393 5.74760524 -11 2 C-7.28037496 -0.47975003 -4.30819875 -0.75454328 0 0 Z " fill="#6966F6" transform="translate(336,493)"/>
<path d="M0 0 C3.67123639 0.01977327 4.15668193 0.29756585 7.1875 2.8125 C8.2084375 4.0809375 8.2084375 4.0809375 9.25 5.375 C9.58 5.705 9.91 6.035 10.25 6.375 C10.54322866 9.30728663 10.75004247 11.51991883 10.25 14.375 C7.8125 17.3125 7.8125 17.3125 5.25 19.375 C4.92 19.705 4.59 20.035 4.25 20.375 C1.31771337 20.66822866 -0.89491883 20.87504247 -3.75 20.375 C-6.6875 17.9375 -6.6875 17.9375 -8.75 15.375 C-9.08 15.045 -9.41 14.715 -9.75 14.375 C-10.04322866 11.44271337 -10.25004247 9.23008117 -9.75 6.375 C-7.3125 3.4375 -7.3125 3.4375 -4.75 1.375 C-3.75 0.375 -3.75 0.375 0 0 Z " fill="#6A67F7" transform="translate(364.75,466.625)"/>
<path d="M0 0 C3.02519989 2.05971056 4.66926776 3.51573824 5.48046875 7.15625 C5.73815801 11.33499471 5.3568132 13.4647802 3 17 C-0.6643958 19.44293053 -3.58618029 20.47354746 -8 20 C-11.32478579 17.97621735 -12.8408692 16.2386962 -15 13 C-15.52406828 9.06948786 -15.14790087 7.27467304 -13.25 3.75 C-9.13714217 -1.27682623 -6.33980372 -1.6683694 0 0 Z " fill="#6966F6" transform="translate(284,467)"/>
<path d="M0 0 C0.07347656 1.77117187 0.07347656 1.77117187 0.1484375 3.578125 C0.22348879 5.13543937 0.29903561 6.69272991 0.375 8.25 C0.4059375 9.02730469 0.436875 9.80460937 0.46875 10.60546875 C0.72658242 16.07379907 0.72658242 16.07379907 3 21 C2.195625 21.12375 1.39125 21.2475 0.5625 21.375 C-0.283125 21.58125 -1.12875 21.7875 -2 22 C-2.33 22.66 -2.66 23.32 -3 24 C-4.7004792 21.04894616 -6.38311093 18.08809878 -8.0625 15.125 C-8.54783203 14.28324219 -9.03316406 13.44148438 -9.53320312 12.57421875 C-9.98759766 11.76855469 -10.44199219 10.96289062 -10.91015625 10.1328125 C-11.33433838 9.38918457 -11.75852051 8.64555664 -12.19555664 7.87939453 C-12.46102295 7.25919434 -12.72648926 6.63899414 -13 6 C-11.59719304 3.19438607 -9.9490995 2.99319493 -7.0625 1.875 C-6.16660156 1.52179688 -5.27070313 1.16859375 -4.34765625 0.8046875 C-2 0 -2 0 0 0 Z " fill="#6865F4" transform="translate(383,384)"/>
</svg>
