<?xml version="1.0" encoding="UTF-8"?>
<svg version="1.1" xmlns="http://www.w3.org/2000/svg" width="640" height="640">
<path d="M0 0 C211.2 0 422.4 0 640 0 C640 211.2 640 422.4 640 640 C428.8 640 217.6 640 0 640 C0 428.8 0 217.6 0 0 Z " fill="#FEFEFE" transform="translate(0,0)"/>
<path d="M0 0 C2.58276367 1.1105957 2.58276367 1.1105957 5.16796875 2.67578125 C6.13516846 3.25150879 7.10236816 3.82723633 8.09887695 4.42041016 C9.11812256 5.0447998 10.13736816 5.66918945 11.1875 6.3125 C13.33031227 7.59835125 15.47354734 8.88349815 17.6171875 10.16796875 C18.68549805 10.8129834 19.75380859 11.45799805 20.85449219 12.12255859 C23.78027078 13.86885147 26.72695745 15.56563674 29.6953125 17.23828125 C30.56260986 17.7283667 31.42990723 18.21845215 32.32348633 18.72338867 C33.94522805 19.63662253 35.56993852 20.54461055 37.19799805 21.4465332 C37.922854 21.85863037 38.64770996 22.27072754 39.39453125 22.6953125 C40.02206299 23.04609863 40.64959473 23.39688477 41.29614258 23.75830078 C43.48434092 25.35296718 44.66052281 26.62387959 46 29 C46.43237305 32.39160156 46.43237305 32.39160156 46.51171875 36.390625 C46.54483154 37.68000977 46.57794434 38.96939453 46.61206055 40.29785156 C46.64940308 42.74916504 46.64940308 42.74916504 46.6875 45.25 C46.790625 50.4475 46.89375 55.645 47 61 C59.21 64.96 71.42 68.92 84 73 C84.99 71.02 84.99 71.02 86 69 C88.57519531 67.20410156 88.57519531 67.20410156 91.828125 65.390625 C92.41358093 65.06012146 92.99903687 64.72961792 93.60223389 64.38909912 C95.47926933 63.33244695 97.36423969 62.29098609 99.25 61.25 C101.08232285 60.22448243 102.91293082 59.19594838 104.74353027 58.1673584 C105.9693465 57.4813287 107.19731385 56.799129 108.42736816 56.12072754 C111.58264428 54.37798903 114.69441378 52.59187955 117.76367188 50.70117188 C118.37780945 50.3297406 118.99194702 49.95830933 119.62469482 49.57562256 C121.31538818 48.54903378 122.99548952 47.50505861 124.67480469 46.45996094 C128.68902762 44.69747539 131.68842712 44.29351663 136 45 C139.2722168 46.34179688 139.2722168 46.34179688 142.44921875 48.21875 C143.02855667 48.55491333 143.60789459 48.89107666 144.20478821 49.23742676 C146.04228838 50.30900734 147.86456647 51.4038633 149.6875 52.5 C150.88906179 53.20468266 152.09153169 53.90781926 153.29492188 54.609375 C156.28403827 56.3586762 159.25367282 58.13829001 162.2177124 59.9296875 C164.02144693 61.01287947 165.83513319 62.07771385 167.65087891 63.140625 C168.81568869 63.83289773 169.98024947 64.52558964 171.14453125 65.21875 C172.17553955 65.82654297 173.20654785 66.43433594 174.26879883 67.06054688 C177.38752799 69.27518748 179.12345364 70.63687107 181 74 C181.59492782 77.88475592 181.58421647 81.72821973 181.56640625 85.65234375 C181.57260483 86.78523331 181.57880341 87.91812286 181.58518982 89.08534241 C181.59228567 91.4783543 181.58911817 93.87141559 181.57641602 96.2644043 C181.56256124 99.921337 181.59661586 103.57570562 181.63476562 107.23242188 C181.63571694 109.55989646 181.63385732 111.88737424 181.62890625 114.21484375 C181.64216446 115.30562729 181.65542267 116.39641083 181.66908264 117.52024841 C181.56551835 125.98584933 181.56551835 125.98584933 178.80566406 129.5222168 C176.11492128 131.89850887 173.62437148 133.70844466 170.48046875 135.4296875 C169.45888672 135.996875 168.43730469 136.5640625 167.38476562 137.1484375 C166.32966797 137.71820313 165.27457031 138.28796875 164.1875 138.875 C163.11306641 139.46796875 162.03863281 140.0609375 160.93164062 140.671875 C158.29360998 142.125723 155.64989088 143.56791912 153 145 C153.75730405 153.32163994 155.47603831 161.31752377 157.27148438 169.46875 C157.49255859 170.49484375 157.71363281 171.5209375 157.94140625 172.578125 C158.14451416 173.50012695 158.34762207 174.42212891 158.55688477 175.37207031 C158.99483763 177.96938417 159.08046243 180.37175865 159 183 C159.88647217 183.11158447 160.77294434 183.22316895 161.6862793 183.33813477 C164.98660737 183.99732503 167.12470084 184.91838843 170.01953125 186.58984375 C170.95168457 187.12222656 171.88383789 187.65460938 172.84423828 188.203125 C173.82376465 188.77546875 174.80329102 189.3478125 175.8125 189.9375 C176.82554199 190.52144531 177.83858398 191.10539063 178.88232422 191.70703125 C180.94263668 192.89678458 183.00059938 194.09061662 185.05615234 195.28857422 C187.73323133 196.84491222 190.42041003 198.38136579 193.11328125 199.91015625 C194.61759904 200.77272017 196.12153218 201.63595542 197.625 202.5 C198.30409424 202.88406006 198.98318848 203.26812012 199.68286133 203.66381836 C200.31603271 204.0325708 200.9492041 204.40132324 201.6015625 204.78125 C202.14119629 205.09126953 202.68083008 205.40128906 203.23681641 205.72070312 C203.81866699 206.14287109 204.40051758 206.56503906 205 207 C205.88357178 207.62447021 206.76714355 208.24894043 207.67749023 208.89233398 C211.23693484 213.65509761 210.65953238 218.14855924 210.55859375 223.94140625 C210.55626236 225.1012352 210.55393097 226.26106415 210.55152893 227.45603943 C210.54179691 229.9046058 210.52002269 232.35314983 210.48706055 234.80151367 C210.43763495 238.55225905 210.42557807 242.30169266 210.41992188 246.05273438 C210.40583636 248.43230564 210.38963213 250.81186551 210.37109375 253.19140625 C210.36573105 254.31438614 210.36036835 255.43736603 210.35484314 256.59437561 C210.33086205 258.16136452 210.33086205 258.16136452 210.30639648 259.76000977 C210.29575668 260.6775856 210.28511688 261.59516144 210.27415466 262.5405426 C209.97932954 265.18543587 209.44431755 266.77400162 208 269 C205.68867869 270.5800048 203.43903901 271.95839229 201 273.3125 C199.46968336 274.18033971 197.93976263 275.04887778 196.41015625 275.91796875 C195.55953613 276.3979834 194.70891602 276.87799805 193.83251953 277.37255859 C190.65109125 279.20046765 187.51154766 281.09087683 184.37109375 282.98828125 C182.63573744 284.02544368 180.89896302 285.06017523 179.16137695 286.09359741 C177.46371693 287.1093143 175.7757015 288.14109531 174.08789062 289.1730957 C163.93956176 295.15842233 163.93956176 295.15842233 159.16040039 294.67919922 C153.7184255 292.96831955 148.87837703 289.89461547 144 287 C142.83294359 286.32394344 141.66498075 285.64944906 140.49609375 284.9765625 C137.65478279 283.33282889 134.82364595 281.67383697 132 280 C126.1374732 284.18260998 120.87534401 288.76300737 115.6875 293.75 C114.29743379 295.08007254 112.90558004 296.40828008 111.51171875 297.734375 C110.90803467 298.31413086 110.30435059 298.89388672 109.68237305 299.49121094 C108 301 108 301 105 303 C105.16134933 303.71869766 105.32269867 304.43739532 105.48893738 305.1778717 C105.98194876 307.90031964 106.14598385 310.39131539 106.17700195 313.15405273 C106.18983719 314.15536728 106.20267242 315.15668182 106.21589661 316.18833923 C106.22697701 317.79474022 106.22697701 317.79474022 106.23828125 319.43359375 C106.246353 320.54428726 106.25442474 321.65498077 106.26274109 322.79933167 C106.27655053 325.1452581 106.28728667 327.49120436 106.29516602 329.8371582 C106.30671367 332.23565558 106.32720896 334.63412671 106.35668945 337.0324707 C106.3993065 340.49968923 106.41552499 343.96614604 106.42578125 347.43359375 C106.44328934 348.50250351 106.46079742 349.57141327 106.47883606 350.67271423 C106.46112085 356.75506925 105.94182462 360.10710797 102 365 C101.0284857 367.0512648 101.0284857 367.0512648 101 369 C101.74224763 370.83350456 101.74224763 370.83350456 103.078125 372.5625 C103.57046631 373.26318604 104.06280762 373.96387207 104.57006836 374.68579102 C105.1244458 375.44947998 105.67882324 376.21316895 106.25 377 C107.44517479 378.69579454 108.63910544 380.39246638 109.83203125 382.08984375 C110.49283691 383.02296387 111.15364258 383.95608398 111.83447266 384.91748047 C115.50747175 390.14581041 119.09641122 395.43099891 122.6842041 400.71801758 C123.91084441 402.52327082 125.14207895 404.32531684 126.37402344 406.12695312 C137.29226828 422.14004108 144.54461864 434.22672211 141.53125 454.08984375 C138.57664678 466.34792973 131.83987414 476.92585924 121.1875 483.8203125 C113.84884104 487.94830816 107.16508069 490.221994 98.75390625 490.93359375 C97.43200035 491.05232094 97.43200035 491.05232094 96.08338928 491.17344666 C79.66721386 492.59947185 63.2210017 493.69765834 46.78460693 494.8604126 C42.99333699 495.12951661 39.20231645 495.40204605 35.41129208 495.67458439 C31.69534981 495.94129544 27.97925979 496.20590137 24.26312447 496.46990776 C22.5184356 496.59407146 20.77378803 496.71881713 19.02918816 496.84422493 C-45.01388587 501.43888558 -45.01388587 501.43888558 -59.23828125 489.5703125 C-60.11033203 488.79300781 -60.11033203 488.79300781 -61 488 C-61.59167969 487.52304687 -62.18335938 487.04609375 -62.79296875 486.5546875 C-71.57223906 478.84133301 -76.24146632 466.60875526 -77.24609375 455.20703125 C-77.82592415 441.62494332 -71.30685907 429.97487666 -65.4375 418.125 C-64.64426618 416.50818509 -63.85147901 414.89115099 -63.05908203 413.27392578 C-57.50034664 401.96012957 -51.84691048 390.69374167 -46.19135475 379.42815018 C-44.99628706 377.04726011 -43.80184957 374.66605489 -42.60758972 372.28475952 C-41.80620672 370.68706079 -41.0047998 369.08937405 -40.20336914 367.49169922 C-39.80535316 366.69821768 -39.40733717 365.90473614 -38.99726009 365.0872097 C-36.58888252 360.28790934 -34.1737607 355.49207189 -31.75372791 350.69863892 C-30.22351642 347.66506082 -28.69813229 344.62907253 -27.17379951 341.59253693 C-26.45435101 340.16215443 -25.73275962 338.73284755 -25.00892448 337.30467987 C-24.00871997 335.33068412 -23.0159981 333.35309268 -22.02490234 331.37451172 C-21.46265961 330.25970428 -20.90041687 329.14489685 -20.32113647 327.99630737 C-19.12332063 325.27968836 -18.43265882 322.92423687 -18 320 C-19.010625 319.855625 -20.02125 319.71125 -21.0625 319.5625 C-25 319 -25 319 -28.375 318.0625 C-32.34984124 317.99396825 -32.88730826 318.33522669 -35.9453125 320.5546875 C-41.5768452 324.46716301 -47.50277977 327.7478687 -53.5 331.0625 C-54.57636719 331.66126953 -55.65273437 332.26003906 -56.76171875 332.87695312 C-58.86770576 334.04794347 -60.97699472 335.21301885 -63.08984375 336.37158203 C-64.9155418 337.39317649 -66.72391706 338.44708372 -68.50390625 339.54638672 C-72.48978764 341.97432176 -75.97591228 343.91661934 -80.82470703 343.56933594 C-85.8199044 342.26195095 -90.09260017 339.32722279 -94.4375 336.625 C-96.56628943 335.33704647 -98.69519646 334.04928732 -100.82421875 332.76171875 C-101.86755371 332.12282715 -102.91088867 331.48393555 -103.98583984 330.82568359 C-106.70388576 329.17935706 -109.44201913 327.58527401 -112.20703125 326.01953125 C-112.98183838 325.57851074 -113.75664551 325.13749023 -114.55493164 324.68310547 C-115.97388439 323.87791173 -117.39605553 323.07835189 -118.82202148 322.28564453 C-122.85424043 319.96195804 -125.6167222 318.01072697 -128 314 C-128.59672946 310.1897224 -128.56036062 306.41670184 -128.53125 302.56640625 C-128.5350769 301.45571274 -128.53890381 300.34501923 -128.54284668 299.20066833 C-128.54556535 296.85471692 -128.53820745 294.50873518 -128.52148438 292.1628418 C-128.50009592 288.5785737 -128.52127881 284.99631479 -128.546875 281.41210938 C-128.54423132 279.13020392 -128.53910552 276.84829971 -128.53125 274.56640625 C-128.53934692 273.49749649 -128.54744385 272.42858673 -128.55578613 271.32728577 C-128.4816102 265.41806494 -128.19516997 261.53321787 -124 257 C-121.43457031 255.12548828 -121.43457031 255.12548828 -118.578125 253.5703125 C-117.55332031 253.003125 -116.52851563 252.4359375 -115.47265625 251.8515625 C-114.40917969 251.28179687 -113.34570312 250.71203125 -112.25 250.125 C-111.17105469 249.53203125 -110.09210938 248.9390625 -108.98046875 248.328125 C-106.32711309 246.87230154 -103.66719471 245.43026249 -101 244 C-101.63304224 239.31190415 -102.42273055 234.69585403 -103.375 230.0625 C-105.00017715 222.05670125 -106.51176656 214.03223862 -108 206 C-108.88196045 205.89292725 -109.7639209 205.78585449 -110.67260742 205.67553711 C-114.09085133 204.98155509 -116.26117465 203.97124341 -119.23828125 202.19140625 C-120.21579346 201.61374512 -121.19330566 201.03608398 -122.20043945 200.44091797 C-123.74090942 199.51110107 -123.74090942 199.51110107 -125.3125 198.5625 C-127.45827684 197.28506135 -129.60411056 196.00771824 -131.75 194.73046875 C-132.80574219 194.09802246 -133.86148438 193.46557617 -134.94921875 192.81396484 C-137.70136561 191.1775651 -140.4682953 189.57374511 -143.25 187.98828125 C-144.02819092 187.54218506 -144.80638184 187.09608887 -145.6081543 186.63647461 C-147.03868731 185.81782757 -148.47228735 185.00450816 -149.90942383 184.19750977 C-153.41685361 182.16965862 -155.89972302 180.4764983 -158 177 C-158.40786743 174.50930786 -158.40786743 174.50930786 -158.45166016 171.68408203 C-158.4740274 170.6226297 -158.49639465 169.56117737 -158.5194397 168.46755981 C-158.52591522 167.3258432 -158.53239075 166.18412659 -158.5390625 165.0078125 C-158.55759781 163.23976761 -158.55759781 163.23976761 -158.57650757 161.43600464 C-158.59607531 158.94290127 -158.60730616 156.44972062 -158.61083984 153.95654297 C-158.62492425 150.14549714 -158.69225987 146.33773003 -158.76171875 142.52734375 C-158.77411729 140.10418124 -158.78333686 137.68099996 -158.7890625 135.2578125 C-158.82913925 133.55131027 -158.82913925 133.55131027 -158.87002563 131.81033325 C-158.80405208 124.11523297 -158.80405208 124.11523297 -156.57073975 121.01759338 C-154.79468502 119.44597238 -153.03724772 118.2087842 -151 117 C-150.11957031 116.42854248 -149.23914063 115.85708496 -148.33203125 115.26831055 C-147.50058594 114.81238525 -146.66914063 114.35645996 -145.8125 113.88671875 C-144.87341797 113.36489014 -143.93433594 112.84306152 -142.96679688 112.30541992 C-141.98775391 111.77150635 -141.00871094 111.23759277 -140 110.6875 C-131.60992315 106.08163194 -131.60992315 106.08163194 -123.40625 101.15625 C-122.7359375 100.73512939 -122.065625 100.31400879 -121.375 99.88012695 C-119.62799208 98.76891163 -117.89166432 97.64095447 -116.15625 96.51171875 C-112.41775987 94.72113004 -110.10140574 94.53489213 -106 95 C-103.40234375 96.03125 -103.40234375 96.03125 -100.9375 97.5 C-100.00550781 98.03625 -99.07351562 98.5725 -98.11328125 99.125 C-96.47691876 100.11051317 -94.84156768 101.09784377 -93.21630859 102.1015625 C-91.97451919 102.8679463 -90.72862627 103.62772009 -89.47875977 104.38085938 C-88.26197102 105.11545171 -87.05486377 105.86637539 -85.85913086 106.63476562 C-83.06954354 108.31583049 -81.57340759 109.11802988 -78.32421875 108.44921875 C-75.89718251 106.93589027 -74.13715441 105.40170862 -72.1875 103.3125 C-69.54409538 100.56494622 -66.87921785 97.93772454 -64 95.4375 C-63.38582214 94.89487518 -62.77164429 94.35225037 -62.13885498 93.79318237 C-60 92 -60 92 -57.88189697 90.58157349 C-54.52098981 88.1731015 -52.3314789 86.35737751 -51.32800293 82.24822998 C-51.14077902 78.88355828 -51.20488104 75.60854333 -51.359375 72.2421875 C-51.38018127 71.02097198 -51.40098755 69.79975647 -51.42242432 68.54153442 C-51.49350154 64.6507247 -51.61813054 60.76418648 -51.75 56.875 C-51.86058354 52.97909393 -51.95939304 49.08379337 -52.034729 45.18704224 C-52.08364424 42.76581813 -52.15395518 40.34491028 -52.24798584 37.92501831 C-52.44103123 29.80974437 -52.44103123 29.80974437 -50.32202148 25.91918945 C-47.87820431 23.89933383 -45.52827321 22.30997669 -42.73828125 20.80078125 C-41.19491089 19.95314209 -41.19491089 19.95314209 -39.62036133 19.08837891 C-38.52876709 18.50233887 -37.43717285 17.91629883 -36.3125 17.3125 C-34.05103762 16.07873775 -31.79062437 14.8430506 -29.53125 13.60546875 C-28.42136719 12.99880371 -27.31148437 12.39213867 -26.16796875 11.76708984 C-23.33439376 10.18652451 -20.55031218 8.55360838 -17.78125 6.86328125 C-17.01643311 6.39688232 -16.25161621 5.9304834 -15.46362305 5.44995117 C-14.07064354 4.59196686 -12.68361343 3.72421572 -11.30395508 2.8449707 C-7.27243011 0.37721416 -4.6892306 -0.41206605 0 0 Z " fill="#072C76" transform="translate(294,93)"/>
<path d="M0 0 C2.58276367 1.1105957 2.58276367 1.1105957 5.16796875 2.67578125 C6.13516846 3.25150879 7.10236816 3.82723633 8.09887695 4.42041016 C9.11812256 5.0447998 10.13736816 5.66918945 11.1875 6.3125 C13.33031227 7.59835125 15.47354734 8.88349815 17.6171875 10.16796875 C18.68549805 10.8129834 19.75380859 11.45799805 20.85449219 12.12255859 C23.78027078 13.86885147 26.72695745 15.56563674 29.6953125 17.23828125 C30.56260986 17.7283667 31.42990723 18.21845215 32.32348633 18.72338867 C33.94522805 19.63662253 35.56993852 20.54461055 37.19799805 21.4465332 C37.922854 21.85863037 38.64770996 22.27072754 39.39453125 22.6953125 C40.02206299 23.04609863 40.64959473 23.39688477 41.29614258 23.75830078 C43.48434092 25.35296718 44.66052281 26.62387959 46 29 C46.43237305 32.39160156 46.43237305 32.39160156 46.51171875 36.390625 C46.54483154 37.68000977 46.57794434 38.96939453 46.61206055 40.29785156 C46.64940308 42.74916504 46.64940308 42.74916504 46.6875 45.25 C46.790625 50.4475 46.89375 55.645 47 61 C59.21 64.96 71.42 68.92 84 73 C84.99 71.02 84.99 71.02 86 69 C88.57519531 67.20410156 88.57519531 67.20410156 91.828125 65.390625 C92.41358093 65.06012146 92.99903687 64.72961792 93.60223389 64.38909912 C95.47926933 63.33244695 97.36423969 62.29098609 99.25 61.25 C101.08232285 60.22448243 102.91293082 59.19594838 104.74353027 58.1673584 C105.9693465 57.4813287 107.19731385 56.799129 108.42736816 56.12072754 C111.58264428 54.37798903 114.69441378 52.59187955 117.76367188 50.70117188 C118.37780945 50.3297406 118.99194702 49.95830933 119.62469482 49.57562256 C121.31538818 48.54903378 122.99548952 47.50505861 124.67480469 46.45996094 C128.68902762 44.69747539 131.68842712 44.29351663 136 45 C139.2722168 46.34179688 139.2722168 46.34179688 142.44921875 48.21875 C143.02855667 48.55491333 143.60789459 48.89107666 144.20478821 49.23742676 C146.04228838 50.30900734 147.86456647 51.4038633 149.6875 52.5 C150.88906179 53.20468266 152.09153169 53.90781926 153.29492188 54.609375 C156.28403827 56.3586762 159.25367282 58.13829001 162.2177124 59.9296875 C164.02144693 61.01287947 165.83513319 62.07771385 167.65087891 63.140625 C168.81568869 63.83289773 169.98024947 64.52558964 171.14453125 65.21875 C172.17553955 65.82654297 173.20654785 66.43433594 174.26879883 67.06054688 C177.38752799 69.27518748 179.12345364 70.63687107 181 74 C181.59492782 77.88475592 181.58421647 81.72821973 181.56640625 85.65234375 C181.57260483 86.78523331 181.57880341 87.91812286 181.58518982 89.08534241 C181.59228567 91.4783543 181.58911817 93.87141559 181.57641602 96.2644043 C181.56256124 99.921337 181.59661586 103.57570562 181.63476562 107.23242188 C181.63571694 109.55989646 181.63385732 111.88737424 181.62890625 114.21484375 C181.64216446 115.30562729 181.65542267 116.39641083 181.66908264 117.52024841 C181.56551835 125.98584933 181.56551835 125.98584933 178.80566406 129.5222168 C176.11492128 131.89850887 173.62437148 133.70844466 170.48046875 135.4296875 C169.45888672 135.996875 168.43730469 136.5640625 167.38476562 137.1484375 C166.32966797 137.71820313 165.27457031 138.28796875 164.1875 138.875 C163.11306641 139.46796875 162.03863281 140.0609375 160.93164062 140.671875 C158.29360998 142.125723 155.64989088 143.56791912 153 145 C153.75730405 153.32163994 155.47603831 161.31752377 157.27148438 169.46875 C157.49255859 170.49484375 157.71363281 171.5209375 157.94140625 172.578125 C158.14451416 173.50012695 158.34762207 174.42212891 158.55688477 175.37207031 C158.99483763 177.96938417 159.08046243 180.37175865 159 183 C159.88647217 183.11158447 160.77294434 183.22316895 161.6862793 183.33813477 C164.98660737 183.99732503 167.12470084 184.91838843 170.01953125 186.58984375 C170.95168457 187.12222656 171.88383789 187.65460938 172.84423828 188.203125 C173.82376465 188.77546875 174.80329102 189.3478125 175.8125 189.9375 C176.82554199 190.52144531 177.83858398 191.10539063 178.88232422 191.70703125 C180.94263668 192.89678458 183.00059938 194.09061662 185.05615234 195.28857422 C187.73323133 196.84491222 190.42041003 198.38136579 193.11328125 199.91015625 C194.61759904 200.77272017 196.12153218 201.63595542 197.625 202.5 C198.30409424 202.88406006 198.98318848 203.26812012 199.68286133 203.66381836 C200.31603271 204.0325708 200.9492041 204.40132324 201.6015625 204.78125 C202.14119629 205.09126953 202.68083008 205.40128906 203.23681641 205.72070312 C203.81866699 206.14287109 204.40051758 206.56503906 205 207 C205.88357178 207.62447021 206.76714355 208.24894043 207.67749023 208.89233398 C211.23693484 213.65509761 210.65953238 218.14855924 210.55859375 223.94140625 C210.55626236 225.1012352 210.55393097 226.26106415 210.55152893 227.45603943 C210.54179691 229.9046058 210.52002269 232.35314983 210.48706055 234.80151367 C210.43763495 238.55225905 210.42557807 242.30169266 210.41992188 246.05273438 C210.40583636 248.43230564 210.38963213 250.81186551 210.37109375 253.19140625 C210.36573105 254.31438614 210.36036835 255.43736603 210.35484314 256.59437561 C210.33086205 258.16136452 210.33086205 258.16136452 210.30639648 259.76000977 C210.29575668 260.6775856 210.28511688 261.59516144 210.27415466 262.5405426 C209.97932954 265.18543587 209.44431755 266.77400162 208 269 C205.68867869 270.5800048 203.43903901 271.95839229 201 273.3125 C199.46968336 274.18033971 197.93976263 275.04887778 196.41015625 275.91796875 C195.55953613 276.3979834 194.70891602 276.87799805 193.83251953 277.37255859 C190.65109125 279.20046765 187.51154766 281.09087683 184.37109375 282.98828125 C182.63573744 284.02544368 180.89896302 285.06017523 179.16137695 286.09359741 C177.46371693 287.1093143 175.7757015 288.14109531 174.08789062 289.1730957 C163.93956176 295.15842233 163.93956176 295.15842233 159.16040039 294.67919922 C153.7184255 292.96831955 148.87837703 289.89461547 144 287 C142.83294359 286.32394344 141.66498075 285.64944906 140.49609375 284.9765625 C137.65478279 283.33282889 134.82364595 281.67383697 132 280 C126.1374732 284.18260998 120.87534401 288.76300737 115.6875 293.75 C114.29743379 295.08007254 112.90558004 296.40828008 111.51171875 297.734375 C110.90803467 298.31413086 110.30435059 298.89388672 109.68237305 299.49121094 C108 301 108 301 105 303 C105.16134933 303.71869766 105.32269867 304.43739532 105.48893738 305.1778717 C105.98194876 307.90031964 106.14598385 310.39131539 106.17700195 313.15405273 C106.18983719 314.15536728 106.20267242 315.15668182 106.21589661 316.18833923 C106.22697701 317.79474022 106.22697701 317.79474022 106.23828125 319.43359375 C106.246353 320.54428726 106.25442474 321.65498077 106.26274109 322.79933167 C106.27655053 325.1452581 106.28728667 327.49120436 106.29516602 329.8371582 C106.30671367 332.23565558 106.32720896 334.63412671 106.35668945 337.0324707 C106.3993065 340.49968923 106.41552499 343.96614604 106.42578125 347.43359375 C106.44328934 348.50250351 106.46079742 349.57141327 106.47883606 350.67271423 C106.45797519 357.83510067 105.22464766 361.54502036 100.25 366.875 C99.8375 367.24625 99.425 367.6175 99 368 C98.6179541 367.38866211 98.2359082 366.77732422 97.84228516 366.14746094 C92.97654706 358.42626932 87.90275488 350.85841407 82.77441406 343.31005859 C81.3685639 341.2405255 79.96535896 339.16921783 78.5625 337.09765625 C77.65379976 335.7577081 76.74495081 334.41786078 75.8359375 333.078125 C75.21856216 332.16694916 75.21856216 332.16694916 74.5887146 331.23736572 C74.19125031 330.65275574 73.79378601 330.06814575 73.38427734 329.46582031 C72.99690903 328.8914624 72.60954071 328.31710449 72.21043396 327.7253418 C71.38168653 326.54405258 70.51561278 325.3883296 69.61976624 324.25708008 C66.37840458 320.10296264 65.32989647 317.18516845 65.07421875 311.78125 C65.0369014 311.11967896 64.99958405 310.45810791 64.96113586 309.77648926 C64.84840885 307.68475455 64.76759857 305.59321029 64.6875 303.5 C64.61599934 302.09754934 64.54244752 300.69520168 64.46679688 299.29296875 C64.15285262 293.19204094 63.96721866 287.11005055 64 281 C68.99409214 282.78765798 73.36566974 285.52415685 77.828125 288.34179688 C80.41530525 289.89129287 82.47175766 290.97453264 85.51171875 291.12109375 C89.28313547 289.42188402 91.8846753 286.75238605 94.8125 283.875 C96.05258442 282.68796472 97.29346515 281.50176076 98.53515625 280.31640625 C99.1295752 279.74422363 99.72399414 279.17204102 100.33642578 278.58251953 C102.9949997 276.05347989 105.7637886 273.65935544 108.546875 271.26953125 C111.33330595 269.00845308 111.33330595 269.00845308 112.2068634 265.66716003 C112.17758003 264.20419243 112.17758003 264.20419243 112.14770508 262.71166992 C112.13141556 261.60679733 112.11512604 260.50192474 112.0983429 259.36357117 C112.07233505 258.16464737 112.04632721 256.96572357 112.01953125 255.73046875 C111.98936314 253.20769256 111.96009438 250.68490548 111.93164062 248.16210938 C111.87585764 244.17202861 111.81240594 240.18279369 111.73266602 236.19311523 C111.66015282 232.35134247 111.61891363 228.51022611 111.58203125 224.66796875 C111.53391045 222.87869209 111.53391045 222.87869209 111.4848175 221.05326843 C111.43416786 212.7933459 111.43416786 212.7933459 114.19921875 208.91650391 C115.58560547 207.96783447 115.58560547 207.96783447 117 207 C117.84328857 206.41887451 118.68657715 205.83774902 119.55541992 205.23901367 C120.43818604 204.72056885 121.32095215 204.20212402 122.23046875 203.66796875 C123.19791016 203.09755859 124.16535156 202.52714844 125.16210938 201.93945312 C126.16048828 201.36130859 127.15886719 200.78316406 128.1875 200.1875 C129.19748047 199.59001953 130.20746094 198.99253906 131.24804688 198.37695312 C138.72638393 194 138.72638393 194 141 194 C140.82871582 193.27522461 140.65743164 192.55044922 140.48095703 191.80371094 C139.69161569 188.45340733 138.90828352 185.10172485 138.125 181.75 C137.85558594 180.61046875 137.58617187 179.4709375 137.30859375 178.296875 C135.58542787 170.89987024 134.14859982 163.5078373 133 156 C132.27433838 155.88696533 131.54867676 155.77393066 130.80102539 155.6574707 C127.87044432 154.96959004 125.79053981 153.97048556 123.18359375 152.48046875 C122.26352539 151.95839844 121.34345703 151.43632812 120.39550781 150.8984375 C119.41936523 150.33382812 118.44322266 149.76921875 117.4375 149.1875 C116.42913086 148.60871094 115.42076172 148.02992188 114.38183594 147.43359375 C112.28919709 146.22844337 110.1988851 145.01924419 108.11083984 143.80615234 C106.08320942 142.62891095 104.05242163 141.45708585 102.01806641 140.29150391 C99.25422011 138.70739965 96.50073534 137.10673912 93.75 135.5 C92.91138428 135.02071045 92.07276855 134.5414209 91.20874023 134.04760742 C90.43344971 133.58845947 89.65815918 133.12931152 88.859375 132.65625 C88.18358398 132.26244141 87.50779297 131.86863281 86.81152344 131.46289062 C84.40192045 129.51702255 83.29326659 127.82362794 82 125 C81.65942383 121.58666992 81.65942383 121.58666992 81.70703125 117.73046875 C81.71127609 117.04946609 81.71552094 116.36846344 81.71989441 115.66682434 C81.7365939 113.50663541 81.77422688 111.34740358 81.8125 109.1875 C81.82755826 107.71681042 81.84124466 106.24610611 81.85351562 104.77539062 C81.88646786 101.18328643 81.93818827 97.59173674 82 94 C80.76765625 93.75636719 79.5353125 93.51273437 78.265625 93.26171875 C71.1603171 91.68569803 64.37193169 89.11138448 57.53125 86.65820312 C55.99210937 86.12549805 55.99210937 86.12549805 54.421875 85.58203125 C53.49987305 85.25436768 52.57787109 84.9267041 51.62792969 84.58911133 C47.88764852 83.75064064 45.35433349 84.22315566 42.03955078 86.12451172 C41.06477783 86.83244873 41.06477783 86.83244873 40.0703125 87.5546875 C36.23242552 90.21657599 32.29803711 92.63344359 28.2421875 94.9453125 C27.34635956 95.45599274 27.34635956 95.45599274 26.43243408 95.97698975 C24.58134621 97.0287988 22.72824962 98.07700551 20.875 99.125 C19.01377494 100.18212939 17.15306678 101.24016252 15.2925415 102.29852295 C13.54208189 103.29199498 11.78817743 104.27938962 10.03417969 105.26660156 C7.65341701 106.62670898 5.33229767 108.04082032 3.0078125 109.4921875 C-0.45367424 111.22742631 -2.17038243 111.34646402 -6 111 C-8.91259766 109.69897461 -8.91259766 109.69897461 -11.9140625 107.90234375 C-13.00460937 107.26619141 -14.09515625 106.63003906 -15.21875 105.97460938 C-16.3428125 105.30236328 -17.466875 104.63011719 -18.625 103.9375 C-20.86051474 102.60204729 -23.10245167 101.2772692 -25.3515625 99.96484375 C-26.33979004 99.3730835 -27.32801758 98.78132324 -28.34619141 98.17163086 C-30.86386858 96.79894373 -30.86386858 96.79894373 -33.25048828 97.22827148 C-35.433029 98.19101377 -36.63259243 99.37411705 -38.25 101.125 C-40.68410633 103.66763337 -43.14949554 106.07244261 -45.8125 108.375 C-46.74749077 109.20272919 -46.74749077 109.20272919 -47.70137024 110.04718018 C-50 112 -50 112 -52.56828308 113.86737061 C-57.92711216 118.0037976 -57.92711216 118.0037976 -60.84317017 123.92980957 C-61.07164614 127.31627517 -60.99688801 130.5647406 -60.80078125 133.953125 C-60.77477341 135.17151062 -60.74876556 136.38989624 -60.7219696 137.64520264 C-60.63331231 141.51658651 -60.47755612 145.38118093 -60.3125 149.25 C-60.17421999 153.13242162 -60.05076448 157.01389589 -59.95658875 160.89764404 C-59.89548009 163.30805329 -59.80762047 165.71796768 -59.6900177 168.12628174 C-59.44721988 176.24370352 -59.44721988 176.24370352 -62.29174805 180.13549805 C-63.18547119 180.75078369 -64.07919434 181.36606934 -65 182 C-65.59232422 182.42740479 -66.18464844 182.85480957 -66.79492188 183.29516602 C-67.34728516 183.61155029 -67.89964844 183.92793457 -68.46875 184.25390625 C-69.43445923 184.81476929 -69.43445923 184.81476929 -70.41967773 185.38696289 C-71.10618408 185.77489014 -71.79269043 186.16281738 -72.5 186.5625 C-73.22324463 186.97943115 -73.94648926 187.3963623 -74.69165039 187.82592773 C-77.12341958 189.22501023 -79.56174196 190.61226065 -82 192 C-83.90531966 193.0931023 -85.81025601 194.18687293 -87.71484375 195.28125 C-106.7101047 206.18003836 -106.7101047 206.18003836 -114 205 C-118.07738839 203.26240977 -121.75040763 200.97637284 -125.5 198.625 C-127.61839347 197.33838341 -129.73688372 196.05192615 -131.85546875 194.765625 C-132.8923584 194.12689453 -133.92924805 193.48816406 -134.99755859 192.83007812 C-137.72153934 191.16973013 -140.46628727 189.5628492 -143.23828125 187.984375 C-144.40810547 187.31607666 -144.40810547 187.31607666 -145.6015625 186.63427734 C-147.03525711 185.81769201 -148.47132515 185.00525432 -149.91015625 184.19775391 C-153.41685055 182.16910987 -155.89979981 180.47637119 -158 177 C-158.40786743 174.50930786 -158.40786743 174.50930786 -158.45166016 171.68408203 C-158.4740274 170.6226297 -158.49639465 169.56117737 -158.5194397 168.46755981 C-158.52591522 167.3258432 -158.53239075 166.18412659 -158.5390625 165.0078125 C-158.55759781 163.23976761 -158.55759781 163.23976761 -158.57650757 161.43600464 C-158.59607531 158.94290127 -158.60730616 156.44972062 -158.61083984 153.95654297 C-158.62492425 150.14549714 -158.69225987 146.33773003 -158.76171875 142.52734375 C-158.77411729 140.10418124 -158.78333686 137.68099996 -158.7890625 135.2578125 C-158.82913925 133.55131027 -158.82913925 133.55131027 -158.87002563 131.81033325 C-158.80405208 124.11523297 -158.80405208 124.11523297 -156.57073975 121.01759338 C-154.79468502 119.44597238 -153.03724772 118.2087842 -151 117 C-150.11957031 116.42854248 -149.23914063 115.85708496 -148.33203125 115.26831055 C-147.50058594 114.81238525 -146.66914063 114.35645996 -145.8125 113.88671875 C-144.87341797 113.36489014 -143.93433594 112.84306152 -142.96679688 112.30541992 C-141.98775391 111.77150635 -141.00871094 111.23759277 -140 110.6875 C-131.60992315 106.08163194 -131.60992315 106.08163194 -123.40625 101.15625 C-122.7359375 100.73512939 -122.065625 100.31400879 -121.375 99.88012695 C-119.62799208 98.76891163 -117.89166432 97.64095447 -116.15625 96.51171875 C-112.41775987 94.72113004 -110.10140574 94.53489213 -106 95 C-103.40234375 96.03125 -103.40234375 96.03125 -100.9375 97.5 C-100.00550781 98.03625 -99.07351562 98.5725 -98.11328125 99.125 C-96.47691876 100.11051317 -94.84156768 101.09784377 -93.21630859 102.1015625 C-91.97451919 102.8679463 -90.72862627 103.62772009 -89.47875977 104.38085938 C-88.26197102 105.11545171 -87.05486377 105.86637539 -85.85913086 106.63476562 C-83.06954354 108.31583049 -81.57340759 109.11802988 -78.32421875 108.44921875 C-75.89718251 106.93589027 -74.13715441 105.40170862 -72.1875 103.3125 C-69.54409538 100.56494622 -66.87921785 97.93772454 -64 95.4375 C-63.38582214 94.89487518 -62.77164429 94.35225037 -62.13885498 93.79318237 C-60 92 -60 92 -57.88189697 90.58157349 C-54.52098981 88.1731015 -52.3314789 86.35737751 -51.32800293 82.24822998 C-51.14077902 78.88355828 -51.20488104 75.60854333 -51.359375 72.2421875 C-51.38018127 71.02097198 -51.40098755 69.79975647 -51.42242432 68.54153442 C-51.49350154 64.6507247 -51.61813054 60.76418648 -51.75 56.875 C-51.86058354 52.97909393 -51.95939304 49.08379337 -52.034729 45.18704224 C-52.08364424 42.76581813 -52.15395518 40.34491028 -52.24798584 37.92501831 C-52.44103123 29.80974437 -52.44103123 29.80974437 -50.32202148 25.91918945 C-47.87820431 23.89933383 -45.52827321 22.30997669 -42.73828125 20.80078125 C-41.19491089 19.95314209 -41.19491089 19.95314209 -39.62036133 19.08837891 C-38.52876709 18.50233887 -37.43717285 17.91629883 -36.3125 17.3125 C-34.05103762 16.07873775 -31.79062437 14.8430506 -29.53125 13.60546875 C-28.42136719 12.99880371 -27.31148437 12.39213867 -26.16796875 11.76708984 C-23.33439376 10.18652451 -20.55031218 8.55360838 -17.78125 6.86328125 C-17.01643311 6.39688232 -16.25161621 5.9304834 -15.46362305 5.44995117 C-14.07064354 4.59196686 -12.68361343 3.72421572 -11.30395508 2.8449707 C-7.27243011 0.37721416 -4.6892306 -0.41206605 0 0 Z " fill="#062B75" transform="translate(294,93)"/>
<path d="M0 0 C5.01599143 0.36713675 9.50056547 1.67615739 14.24609375 3.28515625 C14.90207047 3.50570175 15.55804718 3.72624725 16.23390198 3.95347595 C18.30373666 4.65081199 20.37060953 5.35649132 22.4375 6.0625 C23.85072317 6.54027085 25.2641331 7.01748965 26.67773438 7.49414062 C30.12067028 8.65639084 33.56100429 9.82613495 37 11 C37.01981934 11.91813477 37.03963867 12.83626953 37.06005859 13.78222656 C37.13826955 17.19671825 37.22496584 20.61077702 37.31738281 24.02490234 C37.35560666 25.50105536 37.39047103 26.97729943 37.421875 28.45361328 C37.46766986 30.57878094 37.52563837 32.70332542 37.5859375 34.828125 C37.6173584 36.1059082 37.6487793 37.38369141 37.68115234 38.70019531 C38.04867021 42.67795251 38.04867021 42.67795251 40 46 C42.69192349 47.97528489 42.69192349 47.97528489 45.9765625 49.79296875 C46.57484863 50.14075882 47.17313477 50.48854889 47.78955078 50.84687805 C49.72892417 51.97078893 51.67658857 53.07934436 53.625 54.1875 C54.95278338 54.95230583 56.28009448 55.71793216 57.60693359 56.484375 C60.82640255 58.34047543 64.05285187 60.18396885 67.28271484 62.02191162 C69.64978959 63.37009092 72.01203507 64.72666498 74.375 66.08203125 C75.79095478 66.88927081 77.20754355 67.69540018 78.625 68.5 C79.24971191 68.85473389 79.87442383 69.20946777 80.51806641 69.57495117 C82.99944767 70.96385806 85.29214573 72.09738191 88 73 C88.7734375 74.94921875 88.7734375 74.94921875 89.375 77.6875 C89.73658203 79.28658203 89.73658203 79.28658203 90.10546875 80.91796875 C90.24130371 81.54364746 90.37713867 82.16932617 90.51708984 82.81396484 C91.08806966 85.39867329 91.69395168 87.97425686 92.30078125 90.55078125 C92.763644 92.53370881 93.22587934 94.51678292 93.6875 96.5 C94.0275708 97.95152466 94.0275708 97.95152466 94.37451172 99.43237305 C94.58479004 100.35187744 94.79506836 101.27138184 95.01171875 102.21875 C95.20209717 103.04310547 95.39247559 103.86746094 95.58862305 104.71679688 C96 107 96 107 96 111 C93.86035156 112.67578125 93.86035156 112.67578125 90.890625 114.3125 C89.82585937 114.91320312 88.76109375 115.51390625 87.6640625 116.1328125 C86.53742188 116.74898438 85.41078125 117.36515625 84.25 118 C82.04369515 119.22344979 79.84044166 120.45242221 77.640625 121.6875 C76.65610352 122.22761719 75.67158203 122.76773438 74.65722656 123.32421875 C71.93714906 125.03963698 70.05143511 126.52504673 68 129 C67.48444796 131.59469745 67.48444796 131.59469745 67.6887207 134.4519043 C67.71807205 135.54371506 67.7474234 136.63552582 67.77766418 137.76042175 C67.82654282 138.93647476 67.87542145 140.11252777 67.92578125 141.32421875 C67.98125822 143.82223405 68.03524761 146.32028275 68.08789062 148.81835938 C68.19311979 152.75157551 68.31233562 156.6830999 68.45922852 160.61499023 C68.59275079 164.41404528 68.66909784 168.211021 68.73828125 172.01171875 C68.79728104 173.1776506 68.85628082 174.34358246 68.91706848 175.54484558 C68.97629524 180.37157404 68.94665113 183.67382504 66.08602905 187.68130493 C63.82481263 189.96685451 61.51246816 191.99724465 59 194 C57.6629999 195.18337009 56.32898871 196.37013972 55 197.5625 C54.35289062 198.11035156 53.70578125 198.65820312 53.0390625 199.22265625 C51.55417883 200.51695141 50.1169242 201.86649929 48.7109375 203.24609375 C47.94007813 203.98988281 47.16921875 204.73367188 46.375 205.5 C45.68148437 206.1909375 44.98796875 206.881875 44.2734375 207.59375 C42 209 42 209 39.27734375 209.00390625 C34.90266775 207.66386843 31.14842213 205.70329603 27.1875 203.4375 C26.41212891 203.03208984 25.63675781 202.62667969 24.83789062 202.20898438 C19.44158827 199.12605748 19.44158827 199.12605748 18.27026367 196.13916016 C17.98163814 194.05264339 17.93798282 192.10434997 18 190 C17.96777344 188.7315625 17.93554688 187.463125 17.90234375 186.15625 C17.91974609 184.34640625 17.91974609 184.34640625 17.9375 182.5 C17.94652344 181.2728125 17.95554687 180.045625 17.96484375 178.78125 C17.98224609 177.40453125 17.98224609 177.40453125 18 176 C19.0725 175.484375 20.145 174.96875 21.25 174.4375 C26.32894185 171.55874753 28.17469863 167.47590412 30 162 C30.74489427 150.01596574 31.53911294 133.92389117 23.75 124.1875 C18.19477388 119.76857013 13.1615787 118.51121246 6.16796875 118.67578125 C5.37053757 118.68571609 4.57310638 118.69565094 3.75151062 118.70588684 C-8.91314648 118.96509752 -21.56238639 119.92909492 -34.19213867 120.86157227 C-37.96403223 121.13890983 -41.73724102 121.38909819 -45.51138592 121.63358593 C-48.45433934 121.8290835 -51.39562247 122.04424536 -54.33680153 122.26470375 C-55.72800794 122.36564179 -57.11975814 122.45938319 -58.51196861 122.5453701 C-66.31777256 123.03489282 -73.02979134 123.53601444 -79 129 C-83.17594842 134.03431945 -83.55180931 138.68545817 -83.3125 145.0625 C-83.29630615 145.89015869 -83.2801123 146.71781738 -83.26342773 147.57055664 C-83.19078299 160.42889989 -83.19078299 160.42889989 -81 173 C-81.72058594 172.58492187 -82.44117188 172.16984375 -83.18359375 171.7421875 C-85.53634831 170.39210745 -87.89166889 169.04728657 -90.25 167.70703125 C-92.84014517 166.23499576 -95.42474597 164.75441784 -98.00390625 163.26318359 C-101.30920226 161.35249578 -104.62286063 159.45692439 -107.9375 157.5625 C-109.55386353 156.62156494 -109.55386353 156.62156494 -111.20288086 155.66162109 C-116.51310595 152.64385601 -120.83185296 150.20180282 -127 150 C-127.79423805 145.91716259 -128.58490427 141.83364086 -129.375 137.75 C-129.59671875 136.61046875 -129.8184375 135.4709375 -130.046875 134.296875 C-131.47935832 126.8816672 -132.79812048 119.45607295 -134 112 C-133.3294458 111.63237549 -132.6588916 111.26475098 -131.96801758 110.88598633 C-128.91123469 109.20363241 -125.86188272 107.50822752 -122.8125 105.8125 C-121.75740234 105.23435547 -120.70230469 104.65621094 -119.61523438 104.06054688 C-118.59365234 103.49013672 -117.57207031 102.91972656 -116.51953125 102.33203125 C-115.11344604 101.55436401 -115.11344604 101.55436401 -113.67895508 100.76098633 C-109.34697595 97.92515108 -109.34697595 97.92515108 -106 94 C-105.39530249 89.83282541 -105.61099641 85.73999724 -105.79296875 81.54296875 C-105.84646642 79.04363601 -105.89917622 76.54428631 -105.95117188 74.04492188 C-106.06288989 70.11416647 -106.18760978 66.1844458 -106.32885742 62.25463867 C-106.45598371 58.45492202 -106.53324244 54.65656865 -106.60546875 50.85546875 C-106.66244431 49.68751266 -106.71941986 48.51955658 -106.77812195 47.31620789 C-106.89951376 39.30869285 -106.89951376 39.30869285 -104.31314087 35.54580688 C-102.30432963 33.5125763 -100.2569235 31.74988263 -98 30 C-96.70338066 28.8597741 -95.41096425 27.71472947 -94.125 26.5625 C-93.47273438 26.00433594 -92.82046875 25.44617188 -92.1484375 24.87109375 C-90.54525897 23.47487099 -88.97160201 22.04461516 -87.4140625 20.59765625 C-86.53492188 19.78167969 -85.65578125 18.96570313 -84.75 18.125 C-83.94046875 17.36445313 -83.1309375 16.60390625 -82.296875 15.8203125 C-79.9252336 13.94074636 -78.96502166 13.26963678 -76 13 C-73.34619141 14.17163086 -73.34619141 14.17163086 -70.3515625 15.96484375 C-69.26359375 16.59970703 -68.175625 17.23457031 -67.0546875 17.88867188 C-64.77570665 19.25009039 -62.49705847 20.61206595 -60.21875 21.97460938 C-59.12820313 22.61076172 -58.03765625 23.24691406 -56.9140625 23.90234375 C-55.9235791 24.49523193 -54.9330957 25.08812012 -53.91259766 25.69897461 C-50.58184781 27.18678399 -48.61017795 27.43873072 -45 27 C-42.24548269 25.93039013 -42.24548269 25.93039013 -39.578125 24.32421875 C-38.56049072 23.74833008 -37.54285645 23.17244141 -36.49438477 22.57910156 C-35.42373779 21.95487305 -34.35309082 21.33064453 -33.25 20.6875 C-32.147771 20.05682617 -31.04554199 19.42615234 -29.90991211 18.77636719 C-14.09507713 10.57357386 -14.09507713 10.57357386 0 0 Z " fill="#FDFEFE" transform="translate(339,176)"/>
<path d="M0 0 C0.84220266 2.99238056 1.1981721 5.80004584 1.37304688 8.90112305 C1.45818542 10.35865242 1.45818542 10.35865242 1.54504395 11.84562683 C1.60236694 12.89043716 1.65968994 13.9352475 1.71875 15.01171875 C1.81295227 16.63591484 1.81295227 16.63591484 1.90905762 18.29292297 C2.10963937 21.75758628 2.30521584 25.22250627 2.5 28.6875 C2.69526945 32.13460852 2.89168589 35.58163824 3.09094238 39.02851868 C3.21472102 41.17208641 3.33618419 43.31578953 3.45495605 45.4596405 C3.61867957 48.30796781 3.80250989 51.15383039 4 54 C4.05314362 54.8384848 4.10628723 55.6769696 4.16104126 56.54086304 C4.54656713 61.20827936 5.27971954 64.3406169 8.0234375 68.265625 C8.65733398 69.19439453 9.29123047 70.12316406 9.94433594 71.08007812 C10.62270508 72.04365234 11.30107422 73.00722656 12 74 C13.36898683 76.03524919 14.73611185 78.07175169 16.1015625 80.109375 C17.6078247 82.32399476 19.11569589 84.53745831 20.625 86.75 C21.45396986 87.96796706 22.2827408 89.18606954 23.11132812 90.40429688 C24.41100904 92.3151229 25.71079789 94.22587435 27.01116943 96.13623047 C32.29274795 103.8958057 37.55316982 111.66969689 42.81506348 119.44262695 C47.63744103 126.56583064 52.46428099 133.6859072 57.3046875 140.796875 C58.58592512 142.680373 59.86706581 144.5639369 61.14819336 146.44750977 C61.94950739 147.62484339 62.75140259 148.80178173 63.55395508 149.97827148 C81.0458195 175.62030635 81.0458195 175.62030635 80 185 C78.52896219 192.33220407 76.12349781 198.89325507 70.00390625 203.50390625 C65.56515272 206.36262642 61.82378007 208.04440568 56.50610352 208.40136719 C55.12010956 208.49744263 55.12010956 208.49744263 53.70611572 208.59545898 C52.6906366 208.66192627 51.67515747 208.72839355 50.62890625 208.796875 C49.01347931 208.90769409 49.01347931 208.90769409 47.36541748 209.02075195 C43.76467096 209.26728151 40.16359334 209.50859382 36.5625 209.75 C32.06468369 210.05594451 27.56701218 210.36396393 23.06943321 210.67337799 C21.71216492 210.76673792 20.35488659 210.85995199 18.99759865 210.95302582 C8.62936835 211.66474425 -1.73528393 212.41801607 -12.09846306 213.19976044 C-14.41403974 213.37440904 -16.72966464 213.5484048 -19.04530334 213.722229 C-25.80254573 214.22984005 -32.55959543 214.73952349 -39.31590462 215.2594223 C-42.13284523 215.47506264 -44.95010119 215.68635213 -47.76744843 215.89660645 C-49.67933295 216.04066722 -51.59080782 216.190134 -53.5022583 216.33984375 C-80.09338052 218.31066757 -80.09338052 218.31066757 -88.9609375 211.4921875 C-94.28346464 206.66373461 -97.54939081 201.25735013 -98.31243896 194.04808044 C-98.48672262 186.0148227 -97.20074833 180.58360455 -93.453125 173.53515625 C-92.93365295 172.50479752 -92.41418091 171.47443878 -91.87896729 170.41285706 C-90.65882316 168.00382751 -89.42929893 165.60238687 -88.18334961 163.20684814 C-85.69412546 158.42006241 -83.24278886 153.61415374 -80.79101562 148.80810547 C-79.84045532 146.94672586 -78.88989377 145.08534689 -77.93933105 143.22396851 C-75.95532155 139.33714013 -73.97277136 135.4495716 -71.99133301 131.56143188 C-71.24111752 130.08948081 -71.24111752 130.08948081 -70.47574615 128.58779335 C-69.45459113 126.5836519 -68.43391866 124.5792645 -67.41371918 122.57463646 C-64.81406187 117.46999691 -62.20240274 112.3721218 -59.56689453 107.28588867 C-56.97652937 102.28503521 -54.41844818 97.26881422 -51.88092804 92.24095345 C-50.92114767 90.35312968 -49.95012559 88.47097203 -48.96703339 86.59518242 C-42.84492908 74.89646411 -39.59521486 66.29427888 -41 53 C-41.07011236 51.40327992 -41.13303624 49.80619906 -41.18359375 48.20874023 C-41.26738281 46.92169189 -41.35117187 45.63464355 -41.4375 44.30859375 C-41.48189209 43.58994644 -41.52628418 42.87129913 -41.57202148 42.13087463 C-41.71003084 39.89942532 -41.85415749 37.66844997 -42 35.4375 C-42.70660377 24.60251368 -43.14310736 13.8612527 -43 3 C-39.46902595 1.96077446 -36.02887425 1.7091498 -32.36328125 1.46484375 C-31.06326172 1.37783203 -29.76324219 1.29082031 -28.42382812 1.20117188 C-27.74779541 1.15790771 -27.0717627 1.11464355 -26.37524414 1.07006836 C-24.33638947 0.93903533 -22.29809664 0.8010248 -20.25976562 0.66210938 C-13.49096187 0.21797968 -6.7831921 -0.11218069 0 0 Z " fill="#92B1F3" transform="translate(336,355)"/>
<path d="M0 0 C2.07231261 7.58278022 3.69760101 15.22214202 5.1875 22.9375 C5.36635742 23.84910889 5.54521484 24.76071777 5.72949219 25.69995117 C5.89481445 26.57111572 6.06013672 27.44228027 6.23046875 28.33984375 C6.37895264 29.11706787 6.52743652 29.89429199 6.68041992 30.69506836 C7.02177387 33.15704136 7.0540545 35.51760895 7 38 C7.88647217 38.11158447 8.77294434 38.22316895 9.6862793 38.33813477 C12.98660737 38.99732503 15.12470084 39.91838843 18.01953125 41.58984375 C18.95168457 42.12222656 19.88383789 42.65460938 20.84423828 43.203125 C21.82376465 43.77546875 22.80329102 44.3478125 23.8125 44.9375 C24.82554199 45.52144531 25.83858398 46.10539062 26.88232422 46.70703125 C28.94263668 47.89678458 31.00059938 49.09061662 33.05615234 50.28857422 C35.73323133 51.84491222 38.42041003 53.38136579 41.11328125 54.91015625 C42.61759904 55.77272017 44.12153218 56.63595542 45.625 57.5 C46.30409424 57.88406006 46.98318848 58.26812012 47.68286133 58.66381836 C48.63261841 59.21694702 48.63261841 59.21694702 49.6015625 59.78125 C50.14119629 60.09126953 50.68083008 60.40128906 51.23681641 60.72070312 C51.81866699 61.14287109 52.40051758 61.56503906 53 62 C53.88357178 62.62447021 54.76714355 63.24894043 55.67749023 63.89233398 C59.23693484 68.65509761 58.65953238 73.14855924 58.55859375 78.94140625 C58.55626236 80.1012352 58.55393097 81.26106415 58.55152893 82.45603943 C58.54179691 84.9046058 58.52002269 87.35314983 58.48706055 89.80151367 C58.43763495 93.55225905 58.42557807 97.30169266 58.41992188 101.05273438 C58.40583636 103.43230564 58.38963213 105.81186551 58.37109375 108.19140625 C58.36573105 109.31438614 58.36036835 110.43736603 58.35484314 111.59437561 C58.33885574 112.63903488 58.32286835 113.68369415 58.30639648 114.76000977 C58.29575668 115.6775856 58.28511688 116.59516144 58.27415466 117.5405426 C57.97932954 120.18543587 57.44431755 121.77400162 56 124 C53.68867869 125.5800048 51.43903901 126.95839229 49 128.3125 C47.46968336 129.18033971 45.93976263 130.04887778 44.41015625 130.91796875 C43.55953613 131.3979834 42.70891602 131.87799805 41.83251953 132.37255859 C38.65109125 134.20046765 35.51154766 136.09087683 32.37109375 137.98828125 C30.63573744 139.02544368 28.89896302 140.06017523 27.16137695 141.09359741 C25.46371693 142.1093143 23.7757015 143.14109531 22.08789062 144.1730957 C11.93956176 150.15842233 11.93956176 150.15842233 7.16040039 149.67919922 C1.7184255 147.96831955 -3.12162297 144.89461547 -8 142 C-9.16705641 141.32394344 -10.33501925 140.64944906 -11.50390625 139.9765625 C-14.34521721 138.33282889 -17.17635405 136.67383697 -20 135 C-25.8625268 139.18260998 -31.12465599 143.76300737 -36.3125 148.75 C-37.70256621 150.08007254 -39.09441996 151.40828008 -40.48828125 152.734375 C-41.09196533 153.31413086 -41.69564941 153.89388672 -42.31762695 154.49121094 C-44 156 -44 156 -47 158 C-46.757976 159.07804649 -46.757976 159.07804649 -46.51106262 160.1778717 C-46.01805124 162.90031964 -45.85401615 165.39131539 -45.82299805 168.15405273 C-45.80374519 169.65602455 -45.80374519 169.65602455 -45.78410339 171.18833923 C-45.77671646 172.25927322 -45.76932953 173.33020721 -45.76171875 174.43359375 C-45.753647 175.54428726 -45.74557526 176.65498077 -45.73725891 177.79933167 C-45.72344947 180.1452581 -45.71271333 182.49120436 -45.70483398 184.8371582 C-45.69328633 187.23565558 -45.67279104 189.63412671 -45.64331055 192.0324707 C-45.6006935 195.49968923 -45.58447501 198.96614604 -45.57421875 202.43359375 C-45.55671066 203.50250351 -45.53920258 204.57141327 -45.52116394 205.67271423 C-45.54202481 212.83510067 -46.77535234 216.54502036 -51.75 221.875 C-52.1625 222.24625 -52.575 222.6175 -53 223 C-53.3820459 222.38866211 -53.7640918 221.77732422 -54.15771484 221.14746094 C-59.02345294 213.42626932 -64.09724512 205.85841407 -69.22558594 198.31005859 C-70.6314361 196.2405255 -72.03464104 194.16921783 -73.4375 192.09765625 C-74.34620024 190.7577081 -75.25504919 189.41786078 -76.1640625 188.078125 C-76.57564606 187.47067444 -76.98722961 186.86322388 -77.4112854 186.23736572 C-78.00748184 185.36045074 -78.00748184 185.36045074 -78.61572266 184.46582031 C-79.00309097 183.8914624 -79.39045929 183.31710449 -79.78956604 182.7253418 C-80.61831347 181.54405258 -81.48438722 180.3883296 -82.38023376 179.25708008 C-85.62159542 175.10296264 -86.67010353 172.18516845 -86.92578125 166.78125 C-86.9630986 166.11967896 -87.00041595 165.45810791 -87.03886414 164.77648926 C-87.15159115 162.68475455 -87.23240143 160.59321029 -87.3125 158.5 C-87.38400066 157.09754934 -87.45755248 155.69520168 -87.53320312 154.29296875 C-87.84714738 148.19204094 -88.03278134 142.11005055 -88 136 C-83.00590786 137.78765798 -78.63433026 140.52415685 -74.171875 143.34179688 C-71.58469475 144.89129287 -69.52824234 145.97453264 -66.48828125 146.12109375 C-62.71686453 144.42188402 -60.1153247 141.75238605 -57.1875 138.875 C-55.94741558 137.68796472 -54.70653485 136.50176076 -53.46484375 135.31640625 C-52.8704248 134.74422363 -52.27600586 134.17204102 -51.66357422 133.58251953 C-49.0050003 131.05347989 -46.2362114 128.65935544 -43.453125 126.26953125 C-40.66669405 124.00845308 -40.66669405 124.00845308 -39.7931366 120.66716003 C-39.81265884 119.6918483 -39.83218109 118.71653656 -39.85229492 117.71166992 C-39.86858444 116.60679733 -39.88487396 115.50192474 -39.9016571 114.36357117 C-39.92766495 113.16464737 -39.95367279 111.96572357 -39.98046875 110.73046875 C-40.01063686 108.20769256 -40.03990562 105.68490548 -40.06835938 103.16210938 C-40.12414236 99.17202861 -40.18759406 95.18279369 -40.26733398 91.19311523 C-40.33984718 87.35134247 -40.38108637 83.51022611 -40.41796875 79.66796875 C-40.45004929 78.47511765 -40.48212982 77.28226654 -40.5151825 76.05326843 C-40.56583214 67.7933459 -40.56583214 67.7933459 -37.80078125 63.91650391 C-36.87652344 63.28405762 -35.95226562 62.65161133 -35 62 C-34.15671143 61.41887451 -33.31342285 60.83774902 -32.44458008 60.23901367 C-31.56181396 59.72056885 -30.67904785 59.20212402 -29.76953125 58.66796875 C-28.80208984 58.09755859 -27.83464844 57.52714844 -26.83789062 56.93945312 C-25.83951172 56.36130859 -24.84113281 55.78316406 -23.8125 55.1875 C-22.2975293 54.2912793 -22.2975293 54.2912793 -20.75195312 53.37695312 C-13.27361607 49 -13.27361607 49 -11 49 C-11.17128418 48.27522461 -11.34256836 47.55044922 -11.51904297 46.80371094 C-12.30838431 43.45340733 -13.09171648 40.10172485 -13.875 36.75 C-14.14441406 35.61046875 -14.41382813 34.4709375 -14.69140625 33.296875 C-16.41457213 25.89987024 -17.85140018 18.5078373 -19 11 C-19.99 10.67 -20.98 10.34 -22 10 C-21.40574219 9.86464844 -20.81148438 9.72929687 -20.19921875 9.58984375 C-13.70108734 7.90214866 -8.70051233 5.18421803 -3.15234375 1.42578125 C-1 0 -1 0 0 0 Z " fill="#062B76" transform="translate(446,238)"/>
<path d="M0 0 C0.84220266 2.99238056 1.1981721 5.80004584 1.37304688 8.90112305 C1.45818542 10.35865242 1.45818542 10.35865242 1.54504395 11.84562683 C1.60236694 12.89043716 1.65968994 13.9352475 1.71875 15.01171875 C1.81295227 16.63591484 1.81295227 16.63591484 1.90905762 18.29292297 C2.10963937 21.75758628 2.30521584 25.22250627 2.5 28.6875 C2.69526945 32.13460852 2.89168589 35.58163824 3.09094238 39.02851868 C3.21472102 41.17208641 3.33618419 43.31578953 3.45495605 45.4596405 C3.61867957 48.30796781 3.80250989 51.15383039 4 54 C4.05314362 54.8384848 4.10628723 55.6769696 4.16104126 56.54086304 C4.54656713 61.20827936 5.27971954 64.3406169 8.0234375 68.265625 C8.65733398 69.19439453 9.29123047 70.12316406 9.94433594 71.08007812 C10.62270508 72.04365234 11.30107422 73.00722656 12 74 C13.36898683 76.03524919 14.73611185 78.07175169 16.1015625 80.109375 C17.6078247 82.32399476 19.11569589 84.53745831 20.625 86.75 C21.45396986 87.96796706 22.2827408 89.18606954 23.11132812 90.40429688 C24.41100904 92.3151229 25.71079789 94.22587435 27.01116943 96.13623047 C32.29274795 103.8958057 37.55316982 111.66969689 42.81506348 119.44262695 C47.63744103 126.56583064 52.46428099 133.6859072 57.3046875 140.796875 C58.58592512 142.680373 59.86706581 144.5639369 61.14819336 146.44750977 C61.94950739 147.62484339 62.75140259 148.80178173 63.55395508 149.97827148 C66.05261869 153.64116401 68.53193659 157.3164303 71 161 C72.01755371 162.49756836 72.01755371 162.49756836 73.05566406 164.02539062 C73.68956055 164.98123047 74.32345703 165.93707031 74.9765625 166.921875 C75.53682129 167.7581543 76.09708008 168.59443359 76.67431641 169.45605469 C78.16656634 172.3196356 78.62996695 174.80853757 79 178 C47.72419405 175.44687298 18.01821451 156.29421132 -4 135 C-4.78375 133.96875 -5.5675 132.9375 -6.375 131.875 C-10.10370288 129.2116408 -12.5876853 130.02299204 -17.0234375 130.58984375 C-28.96262878 131.82129275 -41.80318811 132.33639414 -53.33984375 128.734375 C-58.1250682 127.41334387 -63.06000484 127.25400684 -68 127 C-67.45657023 122.77100819 -66.5025154 119.55586997 -64.49975586 115.79931641 C-63.97929184 114.81033356 -63.45882782 113.82135071 -62.92259216 112.80239868 C-62.35903519 111.74612274 -61.79547821 110.6898468 -61.21484375 109.6015625 C-60.03174254 107.3249772 -58.85015027 105.04760721 -57.66992188 102.76953125 C-55.81487004 99.20184093 -53.94930961 95.64044209 -52.0534668 92.09423828 C-41.91977264 73.57278636 -41.91977264 73.57278636 -41 53 C-41.1435675 50.84626667 -41.24028641 48.69322923 -41.33555603 46.53686523 C-41.50496828 42.8338853 -41.7581981 39.13633887 -42 35.4375 C-42.70660377 24.60251368 -43.14310736 13.8612527 -43 3 C-39.46902595 1.96077446 -36.02887425 1.7091498 -32.36328125 1.46484375 C-31.06326172 1.37783203 -29.76324219 1.29082031 -28.42382812 1.20117188 C-27.40977905 1.13627563 -27.40977905 1.13627563 -26.37524414 1.07006836 C-24.33638947 0.93903533 -22.29809664 0.8010248 -20.25976562 0.66210938 C-13.49096187 0.21797968 -6.7831921 -0.11218069 0 0 Z " fill="#FDFDFE" transform="translate(336,355)"/>
<path d="M0 0 C3.83586735 1.71886092 7.39228715 3.85037777 11 6 C13.15856447 7.22156703 15.31877158 8.44023522 17.48046875 9.65625 C19.71694439 10.93610557 21.95261436 12.21736998 24.1875 13.5 C25.31091797 14.13808594 26.43433594 14.77617187 27.59179688 15.43359375 C41.31397629 23.31397629 41.31397629 23.31397629 46 28 C46.11961595 29.66067637 46.17014258 31.3263874 46.19287109 32.99121094 C46.20893402 34.05611755 46.22499695 35.12102417 46.24154663 36.21820068 C46.28584896 41.10281883 46.32707389 45.9872983 46.35009766 50.87207031 C46.36665382 53.45028716 46.39393892 56.02845817 46.43212891 58.60644531 C46.48683506 62.31599848 46.50876479 66.02447299 46.5234375 69.734375 C46.54610687 70.8866156 46.56877625 72.0388562 46.59213257 73.22601318 C46.57096358 81.22938575 46.57096358 81.22938575 43.68408203 85.12573242 C42.79833496 85.74424072 41.91258789 86.36274902 41 87 C40.40767578 87.42740479 39.81535156 87.85480957 39.20507812 88.29516602 C38.65271484 88.61155029 38.10035156 88.92793457 37.53125 89.25390625 C36.88744385 89.62781494 36.2436377 90.00172363 35.58032227 90.38696289 C34.89381592 90.77489014 34.20730957 91.16281738 33.5 91.5625 C32.77675537 91.97943115 32.05351074 92.3963623 31.30834961 92.82592773 C28.87658042 94.22501023 26.43825804 95.61226065 24 97 C22.09468034 98.0931023 20.18974399 99.18687293 18.28515625 100.28125 C-0.7101047 111.18003836 -0.7101047 111.18003836 -8 110 C-12.07738839 108.26240977 -15.75040763 105.97637284 -19.5 103.625 C-21.61839347 102.33838341 -23.73688372 101.05192615 -25.85546875 99.765625 C-26.8923584 99.12689453 -27.92924805 98.48816406 -28.99755859 97.83007812 C-31.72153934 96.16973013 -34.46628727 94.5628492 -37.23828125 92.984375 C-38.01816406 92.53884277 -38.79804688 92.09331055 -39.6015625 91.63427734 C-41.03525711 90.81769201 -42.47132515 90.00525432 -43.91015625 89.19775391 C-47.41685055 87.16910987 -49.89979981 85.47637119 -52 82 C-52.40786743 79.50930786 -52.40786743 79.50930786 -52.45166016 76.68408203 C-52.4740274 75.6226297 -52.49639465 74.56117737 -52.5194397 73.46755981 C-52.52591522 72.3258432 -52.53239075 71.18412659 -52.5390625 70.0078125 C-52.55141937 68.82911591 -52.56377625 67.65041931 -52.57650757 66.43600464 C-52.59607531 63.94290127 -52.60730616 61.44972062 -52.61083984 58.95654297 C-52.62492425 55.14549714 -52.69225987 51.33773003 -52.76171875 47.52734375 C-52.77411729 45.10418124 -52.78333686 42.68099996 -52.7890625 40.2578125 C-52.81578033 39.12014435 -52.84249817 37.9824762 -52.87002563 36.81033325 C-52.80405208 29.11523297 -52.80405208 29.11523297 -50.57073975 26.01759338 C-48.79468502 24.44597238 -47.03724772 23.2087842 -45 22 C-44.11957031 21.42854248 -43.23914063 20.85708496 -42.33203125 20.26831055 C-41.50058594 19.81238525 -40.66914063 19.35645996 -39.8125 18.88671875 C-38.40387695 18.10397583 -38.40387695 18.10397583 -36.96679688 17.30541992 C-35.98775391 16.77150635 -35.00871094 16.23759277 -34 15.6875 C-25.60992315 11.08163194 -25.60992315 11.08163194 -17.40625 6.15625 C-16.40078125 5.52456909 -16.40078125 5.52456909 -15.375 4.88012695 C-13.62799208 3.76891163 -11.89166432 2.64095447 -10.15625 1.51171875 C-6.21107142 -0.37786554 -4.34457748 -0.69567098 0 0 Z " fill="#062B75" transform="translate(188,188)"/>
<path d="M0 0 C4.76618072 2.16589055 9.20883594 4.80696267 13.6875 7.5 C14.88906179 8.20468266 16.09153169 8.90781926 17.29492188 9.609375 C20.28403827 11.3586762 23.25367282 13.13829001 26.2177124 14.9296875 C28.02144693 16.01287947 29.83513319 17.07771385 31.65087891 18.140625 C32.81568869 18.83289773 33.98024947 19.52558964 35.14453125 20.21875 C36.6910437 21.13043945 36.6910437 21.13043945 38.26879883 22.06054688 C41.38752799 24.27518748 43.12345364 25.63687107 45 29 C45.59492782 32.88475592 45.58421647 36.72821973 45.56640625 40.65234375 C45.57260483 41.78523331 45.57880341 42.91812286 45.58518982 44.08534241 C45.59228567 46.4783543 45.58911817 48.87141559 45.57641602 51.2644043 C45.56256124 54.921337 45.59661586 58.57570562 45.63476562 62.23242188 C45.63571694 64.55989646 45.63385732 66.88737424 45.62890625 69.21484375 C45.64216446 70.30562729 45.65542267 71.39641083 45.66908264 72.52024841 C45.56551774 80.98589879 45.56551774 80.98589879 42.80444336 84.52612305 C40.11563855 86.89799204 37.65287608 88.67327451 34.5 90.3671875 C33.45344238 90.93928955 32.40688477 91.5113916 31.32861328 92.10083008 C30.2301709 92.68630615 29.13172852 93.27178223 28 93.875 C25.74623414 95.10333967 23.49361802 96.33379135 21.2421875 97.56640625 C20.16420898 98.15437988 19.08623047 98.74235352 17.97558594 99.34814453 C13.29324635 101.94748073 8.76914959 104.76194665 4.2578125 107.64453125 C0.30674476 110.01653904 -3.47956544 110.83081642 -8 110 C-11.74621623 108.39328101 -15.1915859 106.33780089 -18.6875 104.25 C-19.68612061 103.66742432 -20.68474121 103.08484863 -21.71362305 102.48461914 C-23.78547155 101.27220894 -25.85324049 100.05280193 -27.91699219 98.82666016 C-30.89295975 97.06342059 -33.88489953 95.33106462 -36.8828125 93.60546875 C-38.69346695 92.55078046 -40.50339728 91.49484776 -42.3125 90.4375 C-43.15965576 89.94991211 -44.00681152 89.46232422 -44.87963867 88.95996094 C-46.04716675 88.26628418 -46.04716675 88.26628418 -47.23828125 87.55859375 C-47.91930908 87.15954834 -48.60033691 86.76050293 -49.30200195 86.34936523 C-51.37107431 84.70511463 -52.00453569 83.4457052 -53 81 C-53.27415466 78.5405426 -53.27415466 78.5405426 -53.30639648 75.76000977 C-53.32238388 74.71535049 -53.33837128 73.67069122 -53.35484314 72.59437561 C-53.36020584 71.47139572 -53.36556854 70.34841583 -53.37109375 69.19140625 C-53.38012222 68.03253403 -53.3891507 66.8736618 -53.39845276 65.67967224 C-53.41295662 63.22942693 -53.42184232 60.77914287 -53.42553711 58.32885742 C-53.43744472 54.57990426 -53.48664216 50.83259075 -53.53710938 47.08398438 C-53.54657226 44.70313303 -53.55380794 42.32227159 -53.55859375 39.94140625 C-53.57812607 38.82045059 -53.59765839 37.69949493 -53.61778259 36.54457092 C-53.57279422 28.78849317 -53.57279422 28.78849317 -50.78857422 24.95581055 C-48.16911554 23.11861186 -45.60013895 21.3571084 -42.82421875 19.765625 C-41.83873047 19.19537598 -40.85324219 18.62512695 -39.83789062 18.03759766 C-38.79826172 17.44769043 -37.75863281 16.8577832 -36.6875 16.25 C-35.08358398 15.33226807 -35.08358398 15.33226807 -33.44726562 14.39599609 C-31.29895256 13.16778885 -29.14907195 11.94231902 -26.99755859 10.71972656 C-24.35937103 9.20617442 -21.74744212 7.65907072 -19.14453125 6.0859375 C-18.43401611 5.6640918 -17.72350098 5.24224609 -16.99145508 4.80761719 C-15.71152577 4.04753658 -14.43849648 3.27564673 -13.17456055 2.48925781 C-8.80242766 -0.05966801 -4.92690924 -1.22190573 0 0 Z " fill="#062B75" transform="translate(430,138)"/>
<path d="M0 0 C1.86408558 2.79612837 3.03937052 5.48054945 4.2565918 8.59594727 C10.0659799 23.42401435 18.01968732 35.85695538 27.75634766 48.39550781 C29.19218831 50.24795084 30.60141059 52.11930297 32 54 C41.11157612 53.47433215 48.85842171 49.71232078 56.8125 45.4375 C63.2002504 42.13958977 70.05838175 40.71647288 77 39 C77.99 38.67 78.98 38.34 80 38 C84.6089988 44.75079688 89.21327647 51.50480271 93.81500244 58.26055908 C95.03053385 60.04482019 96.24645742 61.82881364 97.46240234 63.61279297 C99.56432501 66.69711906 101.66425235 69.78279646 103.76303101 72.8692627 C104.57676195 74.06537672 105.3910571 75.26110715 106.20596313 76.4564209 C108.82109324 80.29292635 111.41595739 84.14244471 114 88 C115.03060547 89.517146 115.03060547 89.517146 116.08203125 91.06494141 C117.03142578 92.49652588 117.03142578 92.49652588 118 93.95703125 C118.556875 94.78823486 119.11375 95.61943848 119.6875 96.47583008 C121.17146119 99.32975022 121.62996501 101.82087906 122 105 C90.72419405 102.44687298 61.01821451 83.29421132 39 62 C38.21625 60.96875 37.4325 59.9375 36.625 58.875 C32.89629712 56.2116408 30.4123147 57.02299204 25.9765625 57.58984375 C14.03737122 58.82129275 1.19681189 59.33639414 -10.33984375 55.734375 C-15.1250682 54.41334387 -20.06000484 54.25400684 -25 54 C-24.45409137 49.87807211 -23.55627326 46.61922143 -21.68334961 42.91259766 C-21.20292709 41.95205475 -20.72250458 40.99151184 -20.2275238 40.00186157 C-19.70771439 38.98288788 -19.18790497 37.96391418 -18.65234375 36.9140625 C-18.12105362 35.85714203 -17.58976349 34.80022156 -17.04237366 33.71127319 C-15.34823837 30.34534443 -13.64304608 26.98515883 -11.9375 23.625 C-10.78507317 21.34021388 -9.6333719 19.05506165 -8.48242188 16.76953125 C-5.66334491 11.17541609 -2.83517559 5.58597182 0 0 Z " fill="#D0DAFC" transform="translate(293,428)"/>
<path d="M0 0 C0.54527344 0.37511719 1.09054687 0.75023437 1.65234375 1.13671875 C6.95305535 4.7339538 12.35048832 7.98158478 18 11 C16.44298875 14.89252812 13.98565894 17.06142977 10.875 19.8125 C9.89015625 20.68777344 8.9053125 21.56304687 7.890625 22.46484375 C6.93671875 23.30144531 5.9828125 24.13804687 5 25 C4.23171875 25.68191406 3.4634375 26.36382812 2.671875 27.06640625 C-0.81104596 30.14387267 -4.33615636 33.13762215 -8 36 C-7.757976 37.07804649 -7.757976 37.07804649 -7.51106262 38.1778717 C-7.01805124 40.90031964 -6.85401615 43.39131539 -6.82299805 46.15405273 C-6.80374519 47.65602455 -6.80374519 47.65602455 -6.78410339 49.18833923 C-6.77671646 50.25927322 -6.76932953 51.33020721 -6.76171875 52.43359375 C-6.753647 53.54428726 -6.74557526 54.65498077 -6.73725891 55.79933167 C-6.72344947 58.1452581 -6.71271333 60.49120436 -6.70483398 62.8371582 C-6.69328633 65.23565558 -6.67279104 67.63412671 -6.64331055 70.0324707 C-6.6006935 73.49968923 -6.58447501 76.96614604 -6.57421875 80.43359375 C-6.55671066 81.50250351 -6.53920258 82.57141327 -6.52116394 83.67271423 C-6.54202481 90.83510067 -7.77535234 94.54502036 -12.75 99.875 C-13.1625 100.24625 -13.575 100.6175 -14 101 C-14.3820459 100.38866211 -14.7640918 99.77732422 -15.15771484 99.14746094 C-20.02345294 91.42626932 -25.09724512 83.85841407 -30.22558594 76.31005859 C-31.6314361 74.2405255 -33.03464104 72.16921783 -34.4375 70.09765625 C-35.34620024 68.7577081 -36.25504919 67.41786078 -37.1640625 66.078125 C-37.57564606 65.47067444 -37.98722961 64.86322388 -38.4112854 64.23736572 C-39.00748184 63.36045074 -39.00748184 63.36045074 -39.61572266 62.46582031 C-40.00309097 61.8914624 -40.39045929 61.31710449 -40.78956604 60.7253418 C-41.61831347 59.54405258 -42.48438722 58.3883296 -43.38023376 57.25708008 C-46.62159542 53.10296264 -47.67010353 50.18516845 -47.92578125 44.78125 C-47.9630986 44.11967896 -48.00041595 43.45810791 -48.03886414 42.77648926 C-48.15159115 40.68475455 -48.23240143 38.59321029 -48.3125 36.5 C-48.38400066 35.09754934 -48.45755248 33.69520168 -48.53320312 32.29296875 C-48.84714738 26.19204094 -49.03278134 20.11005055 -49 14 C-44.00590786 15.78765798 -39.63433026 18.52415685 -35.171875 21.34179688 C-32.58469475 22.89129287 -30.52824234 23.97453264 -27.48828125 24.12109375 C-23.71686476 22.42188412 -21.11531939 19.75238767 -18.1875 16.875 C-16.94611689 15.68665913 -15.70393431 14.49915284 -14.4609375 13.3125 C-13.86635742 12.74015625 -13.27177734 12.1678125 -12.65917969 11.578125 C-10.03510706 9.08224427 -7.30138948 6.72136661 -4.55078125 4.3671875 C-2.96670906 2.97065031 -1.47721653 1.50845676 0 0 Z " fill="#6965F6" transform="translate(407,360)"/>
<path d="M0 0 C3.26915051 1.01301371 5.92070607 2.48368977 8.87426758 4.21508789 C9.91752197 4.82167236 10.96077637 5.42825684 12.03564453 6.05322266 C13.34750732 6.82722412 14.65937012 7.60122559 16.01098633 8.39868164 C20.19786133 10.85305664 24.38473633 13.30743164 28.69848633 15.83618164 C28.69848633 27.05618164 28.69848633 38.27618164 28.69848633 49.83618164 C22.41817383 53.51774414 22.41817383 53.51774414 16.01098633 57.27368164 C14.69912354 58.04768311 13.38726074 58.82168457 12.03564453 59.61914062 C10.99239014 60.2257251 9.94913574 60.83230957 8.87426758 61.45727539 C7.81119385 62.08045654 6.74812012 62.7036377 5.65283203 63.34570312 C2.85718763 64.75611624 0.81093601 65.60966913 -2.30151367 65.83618164 C-4.27099609 65.12695312 -4.27099609 65.12695312 -6.15698242 63.95727539 C-7.215625 63.31628906 -7.215625 63.31628906 -8.2956543 62.66235352 C-9.01946289 62.2040918 -9.74327148 61.74583008 -10.48901367 61.27368164 C-11.19348633 60.84249023 -11.89795898 60.41129883 -12.6237793 59.96704102 C-14.08544642 59.07152188 -15.5345408 58.15520965 -16.97143555 57.22045898 C-19.30140831 55.75766436 -19.30140831 55.75766436 -22.0065918 54.73706055 C-25.03667697 53.38617484 -27.00707717 52.24828156 -29.30151367 49.83618164 C-31.18162919 44.35020493 -31.42978498 39.09977833 -31.42651367 33.33618164 C-31.43921295 32.56806152 -31.45191223 31.79994141 -31.46499634 31.00854492 C-31.48148739 24.29078019 -31.27248056 18.28894044 -26.95043945 12.91040039 C-21.20195326 8.28321911 -14.75225194 5.31864771 -7.84521484 2.80883789 C-0.42112115 -0.02997478 -0.42112115 -0.02997478 0 0 Z " fill="#FA8D02" transform="translate(426.301513671875,160.163818359375)"/>
<path d="M0 0 C1.06911621 0.39316406 2.13823242 0.78632813 3.23974609 1.19140625 C4.19155762 1.51238281 5.14336914 1.83335937 6.12402344 2.1640625 C14.03106445 5.08358533 22.00437226 8.34897862 27.23974609 15.19140625 C30.90212874 25.60800197 28.64541847 38.49207691 27.23974609 49.19140625 C23.61384798 51.31565824 19.98423335 53.43336819 16.35107422 55.54516602 C15.11631438 56.26409295 13.8825775 56.98477988 12.64990234 57.70727539 C10.87523831 58.74702815 9.09696023 59.78034173 7.31787109 60.8125 C6.24956055 61.43568115 5.18125 62.0588623 4.08056641 62.70092773 C-0.42346391 65.06403405 -0.42346391 65.06403405 -2.76025391 65.19140625 C-5.46166992 64.05151367 -5.46166992 64.05151367 -8.51416016 62.296875 C-9.61566406 61.67103516 -10.71716797 61.04519531 -11.85205078 60.40039062 C-13.00905497 59.72673962 -14.16595495 59.05290962 -15.32275391 58.37890625 C-16.48293113 57.71569346 -17.64373258 57.05357138 -18.80517578 56.39257812 C-26.95721625 51.72676469 -26.95721625 51.72676469 -30.76025391 49.19140625 C-31.02723278 46.56678381 -31.10858374 44.18074692 -31.05322266 41.55859375 C-31.04897781 40.80675812 -31.04473297 40.05492249 -31.0403595 39.28030396 C-31.02354561 36.8753094 -30.98589015 34.47114816 -30.94775391 32.06640625 C-30.93271049 30.43751209 -30.91902149 28.80860481 -30.90673828 27.1796875 C-30.87363345 23.18327191 -30.821834 19.18748043 -30.76025391 15.19140625 C-27.0945012 13.07274864 -23.42831338 10.95484657 -19.76171875 8.83764648 C-18.51420265 8.11715156 -17.26680611 7.39644957 -16.01953125 6.67553711 C-14.22768983 5.63991834 -12.43542107 4.60504268 -10.64306641 3.5703125 C-9.02489014 2.63554077 -9.02489014 2.63554077 -7.37402344 1.68188477 C-2.92300272 -0.85626968 -2.92300272 -0.85626968 0 0 Z " fill="#D0DAFB" transform="translate(456.76025390625,299.80859375)"/>
<path d="M0 0 C1.91878091 1.04220207 3.81883121 2.11932391 5.703125 3.22265625 C6.7653125 3.84333984 7.8275 4.46402344 8.921875 5.10351562 C10.02015625 5.74998047 11.1184375 6.39644531 12.25 7.0625 C13.36375 7.71283203 14.4775 8.36316406 15.625 9.03320312 C23.85688973 13.85688973 23.85688973 13.85688973 25 15 C28.51002987 42.32681218 28.51002987 42.32681218 23.48828125 50.44335938 C19.61562569 53.98216532 15.06271803 55.69741837 10.11572266 57.26171875 C7.18871549 58.28309767 4.8403963 59.91680766 2.3125 61.6875 C-0.33216427 63.48123025 -1.52520083 64.01013085 -4.74609375 63.94140625 C-9.07379596 62.68933394 -12.55582508 60.60130698 -16.375 58.25 C-17.09171875 57.81945312 -17.8084375 57.38890625 -18.546875 56.9453125 C-19.99261381 56.0736938 -21.42619028 55.18158461 -22.84692383 54.26977539 C-24.96106567 52.94083724 -24.96106567 52.94083724 -27.28393555 52.13452148 C-29.87665569 51.02657828 -31.23582766 50.22185856 -33 48 C-34.08169372 43.2480784 -34.19351697 38.71090711 -34.09790039 33.85327148 C-34.06258968 31.56830343 -34.11783066 29.29777288 -34.18164062 27.01367188 C-34.26225612 16.57116269 -34.26225612 16.57116269 -31.26416016 12.83935547 C-28.91785697 11.25538161 -26.58974046 10.13777876 -24 9 C-22.36725139 8.00002114 -20.74730321 6.9788505 -19.140625 5.9375 C-17.5122603 4.95527041 -15.88204448 3.97610316 -14.25 3 C-13.42628906 2.48566406 -12.60257813 1.97132813 -11.75390625 1.44140625 C-10.95339844 0.96574219 -10.15289062 0.49007812 -9.328125 0 C-8.6155957 -0.433125 -7.90306641 -0.86625 -7.16894531 -1.3125 C-4.10478644 -2.28375972 -2.82451403 -1.4487901 0 0 Z " fill="#FAC950" transform="translate(189,212)"/>
<path d="M0 0 C2.65307617 1.27514648 2.65307617 1.27514648 5.29296875 2.87109375 C6.25267578 3.44537109 7.21238281 4.01964844 8.20117188 4.61132812 C9.18666016 5.21396484 10.17214844 5.81660156 11.1875 6.4375 C12.18458984 7.03626953 13.18167969 7.63503906 14.20898438 8.25195312 C17.84928371 10.44398772 21.46402653 12.64268435 25 15 C25.42943119 17.45734328 25.65876804 19.65738294 25.75 22.1328125 C25.78988037 23.1988118 25.78988037 23.1988118 25.83056641 24.28634644 C25.87647224 25.79415918 25.91283176 27.30228795 25.94042969 28.81054688 C25.9798929 30.34378981 26.04791869 31.87658369 26.14550781 33.40722656 C26.47258016 38.54915991 26.46630929 43.02674308 25 48 C21.15272442 51.81183603 16.91058207 53.81960068 12 56 C10.60952728 56.82792413 9.23157261 57.67805583 7.87890625 58.56640625 C6.78449219 59.22511719 5.69007813 59.88382813 4.5625 60.5625 C3.45003906 61.24441406 2.33757812 61.92632812 1.19140625 62.62890625 C-2.6128209 64.26328046 -4.03314686 63.97946613 -8 63 C-10.8684082 61.6171875 -10.8684082 61.6171875 -13.80078125 59.875 C-14.85974609 59.25109375 -15.91871094 58.6271875 -17.00976562 57.984375 C-18.09966797 57.32953125 -19.18957031 56.6746875 -20.3125 56 C-21.42173828 55.34515625 -22.53097656 54.6903125 -23.67382812 54.015625 C-31.80333647 49.19666353 -31.80333647 49.19666353 -33 48 C-33.48480879 43.42836417 -33.65636587 38.85879983 -33.78955078 34.26489258 C-33.84609891 32.72468324 -33.9277808 31.1851731 -34.03564453 29.64770508 C-34.39001997 24.49926315 -34.42281869 19.9941231 -33 15 C-29.15885286 11.17555804 -24.91617254 9.17676075 -20 7 C-18.60938422 6.17231618 -17.23138167 5.32223484 -15.87890625 4.43359375 C-14.78449219 3.77488281 -13.69007813 3.11617188 -12.5625 2.4375 C-11.45003906 1.75558594 -10.33757812 1.07367188 -9.19140625 0.37109375 C-5.39930177 -1.25807231 -3.95280133 -0.9658568 0 0 Z " fill="#AFD752" transform="translate(295,117)"/>
<path d="M0 0 C3.51724954 0.52458484 6.25517325 2.12536574 9.31640625 3.87109375 C10.32767578 4.44537109 11.33894531 5.01964844 12.38085938 5.61132812 C13.43080078 6.21396484 14.48074219 6.81660156 15.5625 7.4375 C17.14321289 8.3356543 17.14321289 8.3356543 18.75585938 9.25195312 C26.48458104 13.65638736 26.48458104 13.65638736 30 16 C30.47901369 18.50313394 30.75167465 20.75388426 30.890625 23.28125 C30.93331512 24.00701233 30.97600525 24.73277466 31.01998901 25.48052979 C31.1322727 27.82072848 31.20117337 30.15764002 31.25 32.5 C31.26657654 33.28588501 31.28315308 34.07177002 31.30023193 34.88146973 C31.40639923 47.70026175 31.40639923 47.70026175 28.47949219 52.48632812 C24.62013588 56.05393198 20.08545657 57.74833954 15.12011719 59.27783203 C12.16776851 60.28348005 9.79993406 61.91649716 7.25 63.6875 C3.65065473 66.08922139 3.65065473 66.08922139 0.74243164 65.69042969 C-9.33627538 63.15303242 -20.53464819 58.35440522 -27 50 C-30.7655037 39.6064212 -28.47087486 26.68896078 -27 16 C-26.21761963 15.55084229 -25.43523926 15.10168457 -24.62915039 14.63891602 C-21.73421244 12.97595821 -18.84009701 11.31158703 -15.9465332 9.64624023 C-14.69263 8.92496561 -13.43839908 8.2042604 -12.18383789 7.48413086 C-10.38341747 6.450543 -8.58417519 5.41493106 -6.78515625 4.37890625 C-5.70113525 3.7557251 -4.61711426 3.13254395 -3.50024414 2.49047852 C-1.14058329 1.22234919 -1.14058329 1.22234919 0 0 Z " fill="#66CBD0" transform="translate(214,348)"/>
<path d="M0 0 C1.86408558 2.79612837 3.03937052 5.48054945 4.2565918 8.59594727 C10.064779 23.42094914 18.00665149 35.88346593 27.76806641 48.40332031 C28.76300749 49.69283967 29.72149719 51.010434 30.66796875 52.3359375 C32.07993955 54.27207647 32.07993955 54.27207647 35 56 C20.59108718 59.09750141 3.83495408 60.16008507 -10.33984375 55.734375 C-15.1250682 54.41334387 -20.06000484 54.25400684 -25 54 C-24.45409137 49.87807211 -23.55627326 46.61922143 -21.68334961 42.91259766 C-21.20292709 41.95205475 -20.72250458 40.99151184 -20.2275238 40.00186157 C-19.70771439 38.98288788 -19.18790497 37.96391418 -18.65234375 36.9140625 C-18.12105362 35.85714203 -17.58976349 34.80022156 -17.04237366 33.71127319 C-15.34823837 30.34534443 -13.64304608 26.98515883 -11.9375 23.625 C-10.78507317 21.34021388 -9.6333719 19.05506165 -8.48242188 16.76953125 C-5.66334491 11.17541609 -2.83517559 5.58597182 0 0 Z " fill="#D0DBFC" transform="translate(293,428)"/>
<path d="M0 0 C0.90783007 4.18732692 1.10261921 8.0197449 1.0625 12.3125 C1.05347656 13.56675781 1.04445313 14.82101562 1.03515625 16.11328125 C1.02355469 17.06589844 1.01195312 18.01851563 1 19 C-5.0046052 19.96814799 -10.99015544 20.38969136 -17.05859375 20.75390625 C-18.65152 20.85166603 -18.65152 20.85166603 -20.27662659 20.95140076 C-22.52148584 21.08814685 -24.76643806 21.22337401 -27.01147461 21.35717773 C-30.39538916 21.55997629 -33.77872947 21.77091436 -37.16210938 21.98242188 C-48.79117031 22.69191439 -60.3475838 23.2263773 -72 23 C-72.61614798 18.22485317 -73.0273453 13.63238272 -73.01367188 8.81591797 C-73.011698 7.91436981 -73.00972412 7.01282166 -73.00769043 6.08395386 C-73.00515259 5.39624908 -73.00261475 4.70854431 -73 4 C-65.81905576 3.41919348 -58.6371821 2.85106923 -51.45458984 2.29101562 C-49.02044936 2.09980069 -46.58652017 1.90587295 -44.15283203 1.70898438 C-29.40165995 0.51770719 -14.80137576 -0.30614739 0 0 Z " fill="#90AFF1" transform="translate(348,315)"/>
<path d="M0 0 C18.315 5.94 18.315 5.94 37 12 C37 29.16 37 46.32 37 64 C36.67 64 36.34 64 36 64 C36 53.77 36 43.54 36 33 C33.03 32.34 30.06 31.68 27 31 C24.6551794 30.31247495 22.31958353 29.59242254 19.99609375 28.8359375 C18.76181641 28.43632812 17.52753906 28.03671875 16.25585938 27.625 C14.9830432 27.20842412 13.71025709 26.79175636 12.4375 26.375 C11.12968058 25.95014112 9.82173868 25.52565909 8.51367188 25.1015625 C5.34124609 24.0714021 2.17045559 23.03620808 -1 22 C-0.67 14.74 -0.34 7.48 0 0 Z " fill="#6967F3" transform="translate(340,154)"/>
<path d="M0 0 C2.07231261 7.58278022 3.69760101 15.22214202 5.1875 22.9375 C5.36635742 23.84910889 5.54521484 24.76071777 5.72949219 25.69995117 C5.89481445 26.57111572 6.06013672 27.44228027 6.23046875 28.33984375 C6.37895264 29.11706787 6.52743652 29.89429199 6.68041992 30.69506836 C7.02177387 33.15704136 7.0540545 35.51760895 7 38 C8.32 38.33 9.64 38.66 11 39 C9.39125 39.2784375 9.39125 39.2784375 7.75 39.5625 C2.44709109 40.84546183 -1.8633296 43.68738165 -6.4609375 46.5390625 C-9 48 -9 48 -11 48 C-14.56782418 35.81625999 -16.86808785 23.50527566 -19 11 C-19.99 10.67 -20.98 10.34 -22 10 C-21.40574219 9.86464844 -20.81148438 9.72929687 -20.19921875 9.58984375 C-13.70108734 7.90214866 -8.70051233 5.18421803 -3.15234375 1.42578125 C-1 0 -1 0 0 0 Z " fill="#6966F5" transform="translate(446,238)"/>
<path d="M0 0 C0.78503906 0.45890625 1.57007813 0.9178125 2.37890625 1.390625 C7.9055082 4.61843178 13.43532159 7.8382509 19 11 C15.15499438 14.89569308 11.20301322 18.65576227 7.1875 22.375 C6.57092529 22.94645752 5.95435059 23.51791504 5.3190918 24.10668945 C-6.37846802 34.91897868 -6.37846802 34.91897868 -11 38 C-11.54527344 37.62488281 -12.09054688 37.24976563 -12.65234375 36.86328125 C-17.95305535 33.2660462 -23.35048832 30.01841522 -29 27 C-27.84960919 25.84960919 -26.69888266 24.69955293 -25.546875 23.55078125 C-24.48959702 22.49083338 -23.43774005 21.42545767 -22.390625 20.35546875 C-18.77274379 16.6795023 -15.03768461 13.21265927 -11.1328125 9.84375 C-8.73567047 7.77149536 -6.36665177 5.66948778 -4 3.5625 C-3.236875 2.88316406 -2.47375 2.20382813 -1.6875 1.50390625 C-1.130625 1.00761719 -0.57375 0.51132813 0 0 Z " fill="#6865F6" transform="translate(243,177)"/>
<path d="M0 0 C3.87304647 3.87304647 4.02750636 10.4000901 5.125 15.625 C5.54072266 17.51412109 5.54072266 17.51412109 5.96484375 19.44140625 C7.30680642 25.74135906 8.37333211 31.55596321 8 38 C5.37785672 39.50519387 2.75255792 41.00431319 0.125 42.5 C-0.62136719 42.92925781 -1.36773437 43.35851562 -2.13671875 43.80078125 C-2.85214844 44.20683594 -3.56757813 44.61289062 -4.3046875 45.03125 C-5.2944458 45.59682617 -5.2944458 45.59682617 -6.30419922 46.17382812 C-8 47 -8 47 -10 47 C-11.5082122 42.74075697 -12.57876497 38.55937183 -13.4375 34.125 C-13.56165283 33.48876709 -13.68580566 32.85253418 -13.8137207 32.19702148 C-14.21459111 30.13235042 -14.60837369 28.06644366 -15 26 C-15.14115234 25.2560498 -15.28230469 24.51209961 -15.42773438 23.74560547 C-16.2945393 19.16546314 -17.15077022 14.58343165 -18 10 C-19.32 9.67 -20.64 9.34 -22 9 C-20.783125 8.814375 -19.56625 8.62875 -18.3125 8.4375 C-11.60695137 6.99141523 -5.88101472 3.39953556 0 0 Z " fill="#6965F5" transform="translate(204,289)"/>
<path d="M0 0 C2.51019137 3.54379957 2.86489761 5.58503982 2.609375 9.84375 C1.80106665 13.44202589 0.08960633 14.93766516 -2.875 17 C-6.25398805 18.05593376 -8.15638858 18.20054272 -11.5625 17.25 C-14.57268863 15.62287101 -16.45212222 14.2614252 -17.5625 10.94921875 C-18.37942174 5.03674766 -18.37942174 5.03674766 -16.95703125 2.11328125 C-15.23145518 -0.07952772 -13.4570365 -1.71836943 -10.9375 -2.9375 C-6.46548078 -3.07301573 -3.728672 -2.59385879 0 0 Z " fill="#6966F6" transform="translate(287.875,513)"/>
<path d="M0 0 C3.0625 1.9375 3.0625 1.9375 5 5 C5.69005003 8.15369971 5.73568899 10.8519355 5 14 C2.5625 17 2.5625 17 0 19 C-0.33 19.33 -0.66 19.66 -1 20 C-4.25564772 20.38301738 -6.86168034 20.67642942 -9.76171875 18.953125 C-11.93688531 17.16243098 -13.73024391 15.53951219 -15 13 C-15.4136968 8.34591099 -14.81070393 5.74760524 -12 2 C-7.96514506 -0.68990329 -4.73771348 -0.77993882 0 0 Z " fill="#6B67F7" transform="translate(374,490)"/>
<path d="M0 0 C2.98969861 1.30562787 3.81241879 2.32021302 6 5 C6.73994373 8.14760681 6.68576465 10.84548261 6 14 C4.20606332 16.87029869 3.01736724 18.49131638 0 20 C-5.86390959 20.67660495 -5.86390959 20.67660495 -8.7578125 18.953125 C-10.93626824 17.16405507 -12.72957812 15.54084375 -14 13 C-14.2551373 9.08789473 -14.25916135 6.27578396 -12 3 C-8.6482413 -0.60958629 -4.66198998 -0.91989458 0 0 Z " fill="#6965F6" transform="translate(334,531)"/>
<path d="M0 0 C0.69480469 0.28617187 1.38960938 0.57234375 2.10546875 0.8671875 C5.00384377 2.05523175 5.00384377 2.05523175 8.11328125 2.8828125 C12.17576263 4.46018622 14.22761007 5.57681432 17 9 C18.59737527 16.8298511 17.71926223 25.09825896 17 33 C12.92615283 29.03529739 10.05459692 24.72107786 6.97265625 19.95703125 C5.41107232 17.61620148 3.80023004 15.52399256 2 13.375 C-0.69147636 8.83313363 -0.46633067 5.15036317 0 0 Z " fill="#F37AA3" transform="translate(360,402)"/>
<path d="M0 0 C3.465 1.485 3.465 1.485 7 3 C7.83358324 5.65952748 7.98528526 7.26953201 8 10 C8.10496663 12.05080701 8.21048696 14.10158572 8.31640625 16.15234375 C8.40212219 18.41392585 8.4840619 20.67565379 8.5625 22.9375 C8.60568359 24.09830078 8.64886719 25.25910156 8.69335938 26.45507812 C8.79884842 29.30328232 8.90096555 32.15156529 9 35 C6.03 34.34 3.06 33.68 0 33 C0 22.11 0 11.22 0 0 Z " fill="#F9FAFC" transform="translate(265,356)"/>
<path d="M0 0 C4.455 0.99 4.455 0.99 9 2 C10.17700048 6.62459244 10.11408412 11.07866462 10.0625 15.8125 C10.05798828 16.60076172 10.05347656 17.38902344 10.04882812 18.20117188 C10.03711312 20.13414761 10.01917998 22.06708393 10 24 C8.5608866 23.71640113 7.12374482 23.42278601 5.6875 23.125 C4.88699219 22.96257812 4.08648437 22.80015625 3.26171875 22.6328125 C1 22 1 22 -2 20 C-1.67 19.34 -1.34 18.68 -1 18 C-0.84995027 16.6265365 -0.75161994 15.2471474 -0.68359375 13.8671875 C-0.64169922 13.06152344 -0.59980469 12.25585938 -0.55664062 11.42578125 C-0.51732422 10.58402344 -0.47800781 9.74226563 -0.4375 8.875 C-0.39431641 8.02550781 -0.35113281 7.17601562 -0.30664062 6.30078125 C-0.20045764 4.20071777 -0.09971503 2.10038052 0 0 Z " fill="#6966F5" transform="translate(265,389)"/>
</svg>
