<?xml version="1.0" encoding="UTF-8"?>
<svg version="1.1" xmlns="http://www.w3.org/2000/svg" width="640" height="640">
<path d="M0 0 C211.2 0 422.4 0 640 0 C640 211.2 640 422.4 640 640 C428.8 640 217.6 640 0 640 C0 428.8 0 217.6 0 0 Z " fill="#FEFEFE" transform="translate(0,0)"/>
<path d="M0 0 C3.142152 1.3251248 6.05259581 2.97832515 9 4.6875 C9.85924072 5.17500732 10.71848145 5.66251465 11.60375977 6.16479492 C13.44412481 7.21375828 15.28069015 8.26941088 17.11376953 9.33105469 C20.07501663 11.04337791 23.05048711 12.72904931 26.02734375 14.4140625 C27.99835496 15.54520536 29.96843064 16.67798018 31.9375 17.8125 C33.3306543 18.6017688 33.3306543 18.6017688 34.75195312 19.40698242 C36.06389648 20.17425659 36.06389648 20.17425659 37.40234375 20.95703125 C38.17054443 21.40022705 38.93874512 21.84342285 39.73022461 22.30004883 C43.43489492 25.07466638 46.51926294 27.54166258 47.42897034 32.19361877 C47.57786515 34.80819988 47.56254918 37.3744495 47.48828125 39.9921875 C47.47766914 41.41109787 47.47766914 41.41109787 47.46684265 42.8586731 C47.4389669 45.86493712 47.37624116 48.86930381 47.3125 51.875 C47.28740832 53.91924384 47.26459667 55.96351702 47.24414062 58.0078125 C47.18916248 63.00593373 47.10293701 68.00264575 47 73 C47.72380859 73.26949463 48.44761719 73.53898926 49.19335938 73.81665039 C51.96460083 74.98507483 54.36039572 76.33794214 56.90625 77.93359375 C57.81503906 78.50013672 58.72382813 79.06667969 59.66015625 79.65039062 C60.59730469 80.24013672 61.53445313 80.82988281 62.5 81.4375 C64.36443924 82.6030951 66.22901809 83.76846693 68.09375 84.93359375 C68.91552734 85.44978271 69.73730469 85.96597168 70.58398438 86.49780273 C71.38126953 86.99352783 72.17855469 87.48925293 73 88 C73.82306641 88.57886963 74.64613281 89.15773926 75.49414062 89.75415039 C77.89817113 91.20166324 77.89817113 91.20166324 80.4375 90.89208984 C83.53459233 89.81389097 86.16892448 88.38495346 89 86.7265625 C90.134375 86.0665625 91.26875 85.4065625 92.4375 84.7265625 C93.62508032 84.02617785 94.81257963 83.3256558 96 82.625 C97.18712379 81.93164713 98.37462059 81.2389325 99.5625 80.546875 C105.66234285 76.99551378 105.66234285 76.99551378 111.68359375 73.31396484 C115.15768485 71.34331157 117.01524682 71.43074955 121 72 C129.39403776 75.64678542 137.31067697 80.36597952 145.1875 85 C146.20263672 85.59039062 147.21777344 86.18078125 148.26367188 86.7890625 C151.19068213 88.50261847 154.10034053 90.24059899 157 92 C157.86963379 92.52722656 158.73926758 93.05445313 159.63525391 93.59765625 C160.43237793 94.10167969 161.22950195 94.60570312 162.05078125 95.125 C162.74469971 95.56070313 163.43861816 95.99640625 164.15356445 96.4453125 C167.25187742 99.05407317 168.80106415 101.26698259 169.27333069 105.38110352 C169.3982648 108.41471028 169.41560358 111.4326034 169.3984375 114.46875 C169.40130768 115.58181519 169.40417786 116.69488037 169.40713501 117.8416748 C169.40917385 120.19181833 169.40365664 122.5419789 169.39111328 124.89208984 C169.37505788 128.48704006 169.39096894 132.08086596 169.41015625 135.67578125 C169.40817379 137.96093998 169.40433005 140.24609801 169.3984375 142.53125 C169.40451019 143.60532104 169.41058289 144.67939209 169.4168396 145.78601074 C169.32822561 155.19928945 169.32822561 155.19928945 166 159 C164.20410156 160.52832031 164.20410156 160.52832031 162.140625 161.828125 C161.34462891 162.33150391 160.54863281 162.83488281 159.72851562 163.35351562 C154.4366107 166.54684122 149.10928705 169.67113193 143.75 172.75 C142.5806162 173.42819066 141.41134472 174.10657505 140.2421875 174.78515625 C138.56769531 175.75001953 138.56769531 175.75001953 136.859375 176.734375 C135.85358398 177.31413086 134.84779297 177.89388672 133.81152344 178.49121094 C131.25088934 179.86536157 128.71997412 180.98545588 126 182 C122.9557788 203.08688985 122.9557788 203.08688985 128.21765137 222.78155518 C134.47893789 229.36031465 143.50164503 232.50094415 151.81738281 235.64111328 C156.4684635 237.62699201 160.67159175 240.34318351 163 245 C163.11555424 246.63756827 163.1695258 248.27966836 163.19287109 249.92114258 C163.21696548 251.45832695 163.21696548 251.45832695 163.24154663 253.02656555 C163.28594443 257.71537665 163.32705908 262.40404552 163.35009766 267.09301758 C163.3666639 269.56739706 163.39396232 272.04172857 163.43212891 274.51586914 C163.48683851 278.07984289 163.50876343 281.64269437 163.5234375 285.20703125 C163.54610687 286.31238724 163.56877625 287.41774323 163.59213257 288.55659485 C163.57094809 296.2442028 163.57094809 296.2442028 160.64575195 300.11645508 C155.80237038 303.56452085 150.72732894 306.51529371 145.58349609 309.48242188 C142.54730713 311.26591749 139.55106272 313.10988904 136.55078125 314.953125 C134.82056719 315.99885827 133.08807247 317.04065801 131.35409546 318.08013916 C129.65237355 319.10845866 127.96432836 320.15930238 126.27661133 321.21044922 C116.34417348 327.10804485 116.34417348 327.10804485 110.05615234 325.73730469 C106.41030947 324.42996136 103.25273961 322.64870476 100 320.5625 C99.28158936 320.12454102 98.56317871 319.68658203 97.82299805 319.23535156 C94.74973265 317.36022926 91.70253382 315.44570612 88.66259766 313.51708984 C86.38874419 312.0788406 84.10124276 310.66438877 81.8125 309.25 C81.11833984 308.79568604 80.42417969 308.34137207 79.70898438 307.87329102 C75.61388303 305.34549413 75.61388303 305.34549413 70.88671875 305.484375 C67.75885274 307.12661047 64.87413534 308.94704618 62 311 C72.99513937 327.6624278 72.99513937 327.6624278 84.375 344.0625 C89.74697647 351.60312983 94.96053811 359.23286257 100 367 C100.91458984 368.40572266 100.91458984 368.40572266 101.84765625 369.83984375 C102.63462891 371.09474609 102.63462891 371.09474609 103.4375 372.375 C103.86933594 373.06335938 104.30117188 373.75171875 104.74609375 374.4609375 C108.13154303 381.31620862 109.53783449 387.68707907 109.4375 395.3125 C109.42847656 396.14136719 109.41945313 396.97023438 109.41015625 397.82421875 C109.04078126 410.99859346 104.06732556 421.12898904 94.609375 430.32421875 C81.24239652 441.69455737 64.64744055 443.23774046 47.76171875 443.7890625 C43.90338822 443.92515606 40.11978777 444.30062599 36.28833008 444.75927734 C31.36287574 445.27741433 26.40731907 445.40000367 21.4609375 445.60546875 C20.62820313 445.64285156 19.79546875 445.68023438 18.9375 445.71875 C18.20402344 445.74904297 17.47054687 445.77933594 16.71484375 445.81054688 C14.42610517 445.9702646 12.17403359 446.20468686 9.89648438 446.47265625 C4.51417466 447.08594664 -0.87425563 447.40791281 -6.28125 447.71875 C-7.33477661 447.78155151 -8.38830322 447.84435303 -9.47375488 447.90905762 C-13.94242814 448.17536731 -18.41141055 448.43631681 -22.88037109 448.69775391 C-26.15994396 448.89038878 -29.43934614 449.08576227 -32.71875 449.28125 C-33.71588013 449.338573 -34.71301025 449.395896 -35.74035645 449.45495605 C-40.85660982 449.7602197 -45.9352873 450.16297692 -51.02349854 450.7832489 C-66.15708539 452.44285889 -79.67948993 450.53522164 -92 441 C-93.546875 439.9171875 -93.546875 439.9171875 -95.125 438.8125 C-99.46871142 435.0479501 -102.20781826 429.9488548 -105 425 C-105.43957031 424.26265625 -105.87914062 423.5253125 -106.33203125 422.765625 C-109.16653363 417.11665205 -109.43719232 411.46001546 -109.5625 405.25 C-109.58948975 404.45279541 -109.61647949 403.65559082 -109.64428711 402.83422852 C-109.55999215 389.44203355 -102.23943016 376.92737432 -96.29296875 365.265625 C-95.55941977 363.81110608 -94.82671389 362.35616169 -94.09480286 360.90081787 C-92.18979587 357.11709656 -90.27585572 353.33797705 -88.35913086 349.56018066 C-85.27262729 343.47432111 -82.19757728 337.38269319 -79.12731361 331.28862762 C-78.05639013 329.1672117 -76.98005655 327.04860617 -75.90312195 324.93023682 C-75.25188528 323.64140754 -74.60081878 322.35249226 -73.94995117 321.06347656 C-73.37879074 319.93766174 -72.80763031 318.81184692 -72.21916199 317.6519165 C-70.86076596 315.18359458 -70.86076596 315.18359458 -71 313 C-72.82492912 311.60782742 -72.82492912 311.60782742 -75.19921875 310.25 C-76.07900391 309.7240625 -76.95878906 309.198125 -77.86523438 308.65625 C-78.79658203 308.1096875 -79.72792969 307.563125 -80.6875 307 C-82.05551758 306.18015625 -82.05551758 306.18015625 -83.45117188 305.34375 C-87.1963178 303.12027047 -87.1963178 303.12027047 -91 301 C-91.80300537 300.55253418 -92.60601074 300.10506836 -93.43334961 299.64404297 C-96.08005355 298.71911215 -96.08005355 298.71911215 -98.84326172 300.08642578 C-99.86178223 300.6998584 -100.88030273 301.31329102 -101.9296875 301.9453125 C-103.61771484 302.94304687 -103.61771484 302.94304687 -105.33984375 303.9609375 C-106.5185262 304.68180622 -107.69690954 305.40316423 -108.875 306.125 C-110.04456636 306.82460214 -111.21513156 307.52253734 -112.38671875 308.21875 C-118.30620061 311.72796418 -118.30620061 311.72796418 -124.13378906 315.38574219 C-128.29727664 318.01959558 -131.12019449 318.38938042 -136 318 C-139.15869141 316.65820312 -139.15869141 316.65820312 -142.3515625 314.78125 C-143.2226918 314.277005 -143.2226918 314.277005 -144.11141968 313.76257324 C-145.95787201 312.68900914 -147.791176 311.59496492 -149.625 310.5 C-150.8312416 309.79552118 -152.03826864 309.09238544 -153.24609375 308.390625 C-156.2500461 306.63914049 -159.23515078 304.85809744 -162.21496582 303.06591797 C-164.00879667 301.99474714 -165.81330396 300.94362494 -167.62011719 299.89453125 C-168.77568421 299.2114339 -169.93096922 298.5278592 -171.0859375 297.84375 C-172.10478027 297.24755859 -173.12362305 296.65136719 -174.17333984 296.03710938 C-178.34838344 293.02825087 -181.49526589 290.70989064 -182.4581604 285.54016113 C-182.66230246 282.50445951 -182.69295517 279.51119128 -182.6640625 276.46875 C-182.66884613 275.35947144 -182.67362976 274.25019287 -182.67855835 273.1072998 C-182.68195338 270.76731952 -182.67277895 268.42729155 -182.65185547 266.08740234 C-182.62508696 262.51161649 -182.65161965 258.9389698 -182.68359375 255.36328125 C-182.68028959 253.08593059 -182.67388322 250.80858188 -182.6640625 248.53125 C-182.67418365 247.46547729 -182.68430481 246.39970459 -182.69473267 245.30163574 C-182.56453335 237.03044333 -182.56453335 237.03044333 -179.85644531 233.52587891 C-176.90435431 230.91542305 -174.07520714 228.97037181 -170.6328125 227.0546875 C-170.03499969 226.71752716 -169.43718689 226.38036682 -168.82125854 226.0329895 C-166.92863622 224.96889659 -165.02727857 223.92171294 -163.125 222.875 C-161.85744821 222.16648103 -160.59051528 221.45685374 -159.32421875 220.74609375 C-156.98170355 219.4329898 -154.63542121 218.1278122 -152.28564453 216.82763672 C-151.20138184 216.2245166 -150.11711914 215.62139648 -149 215 C-148.04235748 214.49850433 -148.04235748 214.49850433 -147.06536865 213.98687744 C-142.99448928 211.94596682 -142.99448928 211.94596682 -141 208 C-140.91492921 205.2684044 -140.88408435 202.56308557 -140.90234375 199.83203125 C-140.9037587 199.03721848 -140.90517365 198.2424057 -140.90663147 197.42350769 C-140.91222622 194.88646675 -140.92477772 192.34951425 -140.9375 189.8125 C-140.94251568 188.09179815 -140.94707847 186.37109492 -140.95117188 184.65039062 C-140.96219393 180.4335597 -140.97945494 176.21679484 -141 172 C-142.11072876 171.36553955 -142.11072876 171.36553955 -143.24389648 170.71826172 C-146.03540136 169.12168394 -148.82522908 167.52222238 -151.61401367 165.92089844 C-152.81291106 165.23324595 -154.0124381 164.54668987 -155.21264648 163.86132812 C-175.95184822 152.01530392 -175.95184822 152.01530392 -178 147 C-178.27415466 144.54727173 -178.27415466 144.54727173 -178.30639648 141.77587891 C-178.32238388 140.73444733 -178.33837128 139.69301575 -178.35484314 138.62002563 C-178.36020584 137.5001828 -178.36556854 136.38033997 -178.37109375 135.2265625 C-178.38012222 134.07006195 -178.3891507 132.9135614 -178.39845276 131.72201538 C-178.41295772 129.27596629 -178.4218426 126.82987837 -178.42553711 124.38378906 C-178.43743374 120.64581814 -178.48662093 116.90949758 -178.53710938 113.171875 C-178.54657361 110.79427888 -178.55380864 108.41667264 -178.55859375 106.0390625 C-178.57812607 104.92326813 -178.59765839 103.80747375 -178.61778259 102.65786743 C-178.56753078 93.99498812 -178.56753078 93.99498812 -175.84765625 90.48535156 C-172.96536151 87.96976853 -170.22132571 86.05325882 -166.87890625 84.1953125 C-166.00708961 83.70380203 -166.00708961 83.70380203 -165.11766052 83.20236206 C-163.27206693 82.16513202 -161.41779931 81.14474725 -159.5625 80.125 C-158.35418845 79.45034451 -157.14650117 78.77456971 -155.93945312 78.09765625 C-154.12907399 77.08274535 -152.31739006 76.07085465 -150.49966431 75.06915283 C-147.35790511 73.33634504 -144.25104351 71.56430059 -141.17919922 69.70996094 C-140.55617416 69.3386203 -139.93314911 68.96727966 -139.29124451 68.58468628 C-137.56754537 67.55362056 -135.85173932 66.50939241 -134.13647461 65.46435547 C-130.68927438 63.8549286 -128.7528099 63.53089876 -125 64 C-122.53735352 64.95874023 -122.53735352 64.95874023 -120.12890625 66.30859375 C-119.23171875 66.80464111 -118.33453125 67.30068848 -117.41015625 67.81176758 C-116.47042969 68.34825928 -115.53070313 68.88475098 -114.5625 69.4375 C-113.59054688 69.97721436 -112.61859375 70.51692871 -111.6171875 71.07299805 C-107.16040461 73.56521985 -102.75619576 76.11721004 -98.43359375 78.8359375 C-97.42413696 79.46737671 -97.42413696 79.46737671 -96.39428711 80.11157227 C-95.16693664 80.88967988 -93.94941989 81.68361136 -92.74438477 82.49584961 C-90.00751013 84.24500437 -88.42480039 85.03660255 -85.14672852 84.75415039 C-81.94040645 83.98571771 -79.46446104 82.92688767 -76.55859375 81.3828125 C-75.56279297 80.85816406 -74.56699219 80.33351563 -73.54101562 79.79296875 C-72.51685547 79.24253906 -71.49269531 78.69210938 -70.4375 78.125 C-69.40947266 77.58230469 -68.38144531 77.03960937 -67.32226562 76.48046875 C-61.73669363 73.52500401 -61.73669363 73.52500401 -56.29321289 70.31982422 C-54 69 -54 69 -52 69 C-52.02618408 67.84999512 -52.05236816 66.69999023 -52.0793457 65.51513672 C-52.17011176 61.23262119 -52.22734469 56.95019001 -52.2746582 52.66699219 C-52.29974245 50.81626062 -52.33381845 48.96562753 -52.37719727 47.11523438 C-52.43811995 44.44897117 -52.46626991 41.78402175 -52.48828125 39.1171875 C-52.51408768 38.29507782 -52.5398941 37.47296814 -52.56648254 36.62594604 C-52.568434 32.59360836 -52.3319821 29.86561157 -49.79077148 26.63623047 C-47.22003079 24.20784643 -44.92759321 22.43417671 -41.859375 20.703125 C-40.87888184 20.14125488 -39.89838867 19.57938477 -38.88818359 19.00048828 C-37.85258301 18.42282715 -36.81698242 17.84516602 -35.75 17.25 C-33.59071546 16.0241953 -31.43186392 14.79762757 -29.2734375 13.5703125 C-28.21092773 12.96993164 -27.14841797 12.36955078 -26.05371094 11.75097656 C-23.29000205 10.16628515 -20.56477163 8.53644072 -17.8515625 6.8671875 C-17.0874707 6.40022461 -16.32337891 5.93326172 -15.53613281 5.45214844 C-14.13635115 4.5925446 -12.74204439 3.72393436 -11.35449219 2.84472656 C-7.35782925 0.41869651 -4.65132029 -0.82599013 0 0 Z " fill="#6965F5" transform="translate(327,92)"/>
<path d="M0 0 C0.90642018 4.7327021 1.20002433 9.38499768 1.375 14.1875 C1.79518057 23.43327205 2.40890338 32.66440798 3.13140869 41.89102173 C3.25129588 43.45272717 3.36527375 45.01489849 3.4730835 46.57748413 C4.15747938 58.39190857 4.15747938 58.39190857 9 69 C9.35666748 69.5583252 9.71333496 70.11665039 10.08081055 70.69189453 C11.24395722 72.470765 12.45752502 74.20422652 13.6875 75.9375 C14.66883065 77.34314867 15.64923604 78.74944358 16.62890625 80.15625 C17.16531738 80.92453125 17.70172852 81.6928125 18.25439453 82.484375 C21.58042952 87.27758682 24.84871476 92.11021335 28.125 96.9375 C29.59629532 99.10290457 31.06765027 101.26826862 32.5390625 103.43359375 C33.27801758 104.52140137 34.01697266 105.60920898 34.77832031 106.72998047 C37.64785509 110.95355727 40.51908338 115.17598081 43.390625 119.39819336 C44.79453784 121.46262769 46.19818459 123.52724301 47.6015625 125.59204102 C50.87819203 130.41255467 54.15675394 135.23171249 57.44329834 140.04547119 C58.59489669 141.73242289 59.74579278 143.41985156 60.89648438 145.10742188 C62.33129933 147.21123031 63.76739629 149.31416528 65.20507812 151.41601562 C81.65810701 175.55465957 81.65810701 175.55465957 80 187 C77.48686762 194.26214766 73.85706379 201.09372186 67 205 C52.49675283 210.40453672 35.27670258 209.7062536 20 210.5625 C16.69453669 210.75070026 13.38918243 210.94048127 10.08398438 211.13328552 C8.04508786 211.25194628 6.00603075 211.3678914 3.96679688 211.48060608 C-1.39808183 211.78982074 -6.67268515 212.30097636 -12 213 C-13.61173413 213.11738204 -15.22519788 213.21503702 -16.83984375 213.28125 C-17.67580078 213.31863281 -18.51175781 213.35601563 -19.37304688 213.39453125 C-20.21931641 213.42933594 -21.06558594 213.46414063 -21.9375 213.5 C-27.58293323 213.73324667 -33.15729944 214.09577001 -38.76879883 214.75927734 C-46.14402927 215.55498554 -53.59099826 215.72489327 -61 216 C-61.87237305 216.03544922 -62.74474609 216.07089844 -63.64355469 216.10742188 C-66.17907274 216.20080059 -68.71330374 216.26186684 -71.25 216.3125 C-72.01103027 216.342229 -72.77206055 216.37195801 -73.55615234 216.40258789 C-80.19673946 216.47229571 -85.16921442 214.42996638 -90.20703125 210.10546875 C-96.36416261 202.749869 -98.42769217 197.03961901 -98.32006836 187.41430664 C-97.81787255 182.05716827 -95.81907145 178.01309256 -93.3125 173.3125 C-92.79502197 172.28850098 -92.27754395 171.26450195 -91.74438477 170.20947266 C-90.54765108 167.84452724 -89.34213276 165.48614209 -88.12402344 163.13232422 C-85.67787211 158.39216131 -83.29562661 153.62051582 -80.9140625 148.84765625 C-80.46925034 147.95635513 -80.02443817 147.06505402 -79.56614685 146.14674377 C-78.65210476 144.31503029 -77.73816019 142.48326813 -76.8243103 140.65145874 C-75.43634418 137.872686 -74.04459005 135.09584304 -72.65161133 132.31958008 C-67.58891937 122.2254797 -62.55899486 112.12366654 -57.78173828 101.89038086 C-55.47019415 96.96304365 -53.02889972 92.1372494 -50.45703125 87.33984375 C-49.85181641 86.19128906 -49.24660156 85.04273438 -48.62304688 83.859375 C-47.45951079 81.66032945 -46.27370978 79.47284326 -45.06054688 77.30078125 C-40.85076834 69.28117879 -40.35709235 62.94987258 -41 54 C-41.06405029 52.75114014 -41.12810059 51.50228027 -41.1940918 50.21557617 C-41.36973732 46.9433803 -41.5731539 43.67490646 -41.7979126 40.40576172 C-42.03718462 36.92475655 -42.26175248 33.44279108 -42.48828125 29.9609375 C-42.5331366 29.2775531 -42.57799194 28.5941687 -42.62420654 27.89007568 C-43.1862524 19.26520294 -43.60566289 10.63390718 -44 2 C-39.50198002 1.71072342 -35.00369496 1.42610164 -30.50512695 1.14550781 C-28.97965851 1.04973417 -27.45426482 0.95276098 -25.92895508 0.85449219 C-17.27622384 0.29790035 -8.67641675 -0.169273 0 0 Z " fill="#D1DBFC" transform="translate(336,306)"/>
<path d="M0 0 C8.42748333 9.39274574 8.19939519 18.98508365 8.3125 31.125 C8.34150391 32.17042969 8.37050781 33.21585937 8.40039062 34.29296875 C8.46171085 41.75516856 7.52511668 46.16285146 2.3671875 51.77734375 C-1.77777778 55 -1.77777778 55 -4 55 C-4.87377148 99.03346434 -4.87377148 99.03346434 14.65673828 136.40966797 C18.88876895 141.08791816 22.17482304 146.42263247 25.625 151.6875 C27.04016979 153.77752231 28.45938904 155.8648089 29.8828125 157.94921875 C30.57149414 158.96161621 31.26017578 159.97401367 31.96972656 161.01708984 C34.53167057 164.78113889 37.09626319 168.54337523 39.66186523 172.30493164 C40.88046888 174.0916451 42.09873449 175.87858915 43.31665039 177.66577148 C46.32336298 182.07766934 49.33285309 186.48760538 52.34988403 190.89245605 C53.88303699 193.13191756 55.41385843 195.37296727 56.94433594 197.61425781 C58.02470947 199.19471691 59.10800559 200.77317695 60.19140625 202.3515625 C75.6262236 224.96950639 75.6262236 224.96950639 75.4375 239.3125 C75.42847656 240.14136719 75.41945313 240.97023438 75.41015625 241.82421875 C75.04078126 254.99859346 70.06732556 265.12898904 60.609375 274.32421875 C47.24239652 285.69455737 30.64744055 287.23774046 13.76171875 287.7890625 C9.90338822 287.92515606 6.11978777 288.30062599 2.28833008 288.75927734 C-2.63712426 289.27741433 -7.59268093 289.40000367 -12.5390625 289.60546875 C-13.37179687 289.64285156 -14.20453125 289.68023438 -15.0625 289.71875 C-15.79597656 289.74904297 -16.52945313 289.77933594 -17.28515625 289.81054688 C-19.57389483 289.9702646 -21.82596641 290.20468686 -24.10351562 290.47265625 C-29.48582534 291.08594664 -34.87425563 291.40791281 -40.28125 291.71875 C-41.33477661 291.78155151 -42.38830322 291.84435303 -43.47375488 291.90905762 C-47.94242814 292.17536731 -52.41141055 292.43631681 -56.88037109 292.69775391 C-60.15994396 292.89038878 -63.43934614 293.08576227 -66.71875 293.28125 C-67.71588013 293.338573 -68.71301025 293.395896 -69.74035645 293.45495605 C-74.85660982 293.7602197 -79.9352873 294.16297692 -85.02349854 294.7832489 C-100.15708539 296.44285889 -113.67948993 294.53522164 -126 285 C-127.546875 283.9171875 -127.546875 283.9171875 -129.125 282.8125 C-133.46871142 279.0479501 -136.20781826 273.9488548 -139 269 C-139.43957031 268.26265625 -139.87914062 267.5253125 -140.33203125 266.765625 C-143.16653363 261.11665205 -143.43719232 255.46001546 -143.5625 249.25 C-143.58948975 248.45279541 -143.61647949 247.65559082 -143.64428711 246.83422852 C-143.56119409 233.63299007 -136.4229961 221.27201458 -130.57421875 209.7578125 C-129.85995057 208.33677289 -129.14640962 206.91536754 -128.43354797 205.49362183 C-126.57128794 201.78420657 -124.6994931 198.07968852 -122.82543945 194.3762207 C-120.94103024 190.64823586 -119.0655642 186.91575953 -117.18945312 183.18359375 C-114.73915716 178.31094655 -112.28602295 173.43976093 -109.82714462 168.57143879 C-106.77278157 162.5237813 -103.72729649 156.47175262 -100.69433594 150.41333008 C-100.36754191 149.76133448 -100.04074789 149.10933887 -99.70405102 148.43758583 C-96.45001908 141.93040425 -93.34405605 135.35660371 -90.25195312 128.77148438 C-89.84009766 127.89943359 -89.42824219 127.02738281 -89.00390625 126.12890625 C-88.64111572 125.35619385 -88.2783252 124.58348145 -87.90454102 123.78735352 C-87 122 -87 122 -86 121 C-86.04051223 118.07065414 -86.1521941 115.17377627 -86.3125 112.25 C-86.35882568 111.33565186 -86.40515137 110.42130371 -86.45288086 109.47924805 C-86.95432341 100.02068029 -87.63004524 90.57296534 -88.33911133 81.12792969 C-88.82947609 74.40266262 -89.13059118 67.74334172 -89 61 C-90.0209375 60.9071875 -90.0209375 60.9071875 -91.0625 60.8125 C-95.64347334 59.54542227 -99.43498479 57.42350491 -102.06103516 53.35693359 C-104.87085642 48.23089109 -105.80232569 43.5321167 -106.25 37.75 C-106.32226807 36.91879639 -106.39453613 36.08759277 -106.46899414 35.23120117 C-106.66698991 32.82182411 -106.83650595 30.41192655 -107 28 C-107.09667969 26.80503906 -107.19335938 25.61007812 -107.29296875 24.37890625 C-107.61379963 17.57208901 -106.56675824 13.1525466 -102 8 C-95.84434925 1.69932083 -89.90375052 0.68464309 -81.4765625 0.21875 C-80.08123291 0.13111137 -80.08123291 0.13111137 -78.65771484 0.04170227 C-75.6472121 -0.14621919 -72.63616725 -0.32307802 -69.625 -0.5 C-65.52058136 -0.75253289 -61.4165292 -1.01075545 -57.3125 -1.26953125 C-56.31449371 -1.33175369 -55.31648743 -1.39397614 -54.28823853 -1.45808411 C-47.05319845 -1.91503758 -39.84157894 -2.49521004 -32.625 -3.1875 C-6.49127193 -5.56834227 -6.49127193 -5.56834227 0 0 Z M-53.1875 59 C-54.72719395 59.09666676 -56.26690742 59.19302313 -57.80664062 59.2890625 C-61.53799193 59.52246905 -65.2690627 59.76005603 -69 60 C-68.57407698 69.32547248 -68.09971524 78.64556081 -67.48828125 87.9609375 C-67.44326477 88.65286194 -67.39824829 89.34478638 -67.35186768 90.05767822 C-67.12714512 93.50631659 -66.89768696 96.95453059 -66.66064453 100.40234375 C-66.48886166 103.01837933 -66.33973386 105.63600399 -66.21362305 108.25463867 C-66.05064593 111.93445177 -66.05064593 111.93445177 -65.56176758 115.30200195 C-64.43426322 127.76032089 -71.14466201 137.77451538 -76.8125 148.4375 C-77.83015913 150.39378781 -78.84515095 152.35146554 -79.85742188 154.31054688 C-81.37977054 157.25641726 -82.90374762 160.20125398 -84.43791199 163.14099121 C-88.4429438 170.83378611 -92.2170463 178.62028338 -95.92852783 186.45808411 C-100.81354842 196.76082556 -105.93283981 206.94244632 -111.0625 217.125 C-112.90990039 220.79309597 -114.75454761 224.46255857 -116.59765625 228.1328125 C-117.21943504 229.36392258 -117.21943504 229.36392258 -117.85377502 230.61990356 C-122.26760191 239.40966595 -125.19290383 247.41205437 -122.3125 257.37890625 C-121.3574904 259.41228085 -120.29909173 261.16836135 -119 263 C-118.56429687 263.62648438 -118.12859375 264.25296875 -117.6796875 264.8984375 C-113.88535497 269.81240914 -109.17368328 273.33921519 -102.89355469 274.33349609 C-100.66533175 274.43013082 -98.47853982 274.39955602 -96.25 274.3125 C-95.43869629 274.29630615 -94.62739258 274.2801123 -93.79150391 274.26342773 C-91.19275237 274.20195564 -88.59731413 274.10554287 -86 274 C-85.11473633 273.96712891 -84.22947266 273.93425781 -83.31738281 273.90039062 C-72.37832851 273.48203036 -72.37832851 273.48203036 -61.48046875 272.4921875 C-56.96905193 271.96526735 -52.47402815 271.74507609 -47.9375 271.5625 C-39.55423737 271.18511588 -31.21538091 270.54052441 -22.85717773 269.80102539 C-16.80808567 269.28015394 -10.76016901 268.84635366 -4.69921875 268.49609375 C-3.98039017 268.45436539 -3.26156158 268.41263702 -2.52095032 268.36964417 C1.01191471 268.16644099 4.54502823 267.97104817 8.07885742 267.78540039 C29.9463627 267.58650446 29.9463627 267.58650446 48.3125 257.8125 C53.19324509 251.4090712 55.86179127 245.01530367 55.5 236.875 C53.82639917 227.25179524 47.26987687 219.28713635 41.61328125 211.59375 C39.11685119 208.19061068 36.75970441 204.71109722 34.4375 201.1875 C29.99173678 194.46277844 25.4741682 187.78871135 20.9375 181.125 C19.84912842 179.52579712 19.84912842 179.52579712 18.73876953 177.89428711 C15.75915846 173.51747386 12.77818574 169.14159193 9.79589844 164.76660156 C2.16635649 153.57364289 -5.45334039 142.37407135 -13 131.125 C-13.59385498 130.24489258 -14.18770996 129.36478516 -14.79956055 128.45800781 C-15.34008057 127.64944336 -15.88060059 126.84087891 -16.4375 126.0078125 C-16.91058594 125.30285645 -17.38367188 124.59790039 -17.87109375 123.87158203 C-20.1796091 120.04435913 -20.35656083 116.09501942 -20.71875 111.75390625 C-20.7812796 111.03465973 -20.8438092 110.31541321 -20.90823364 109.57437134 C-21.10969779 107.23741866 -21.30515505 104.90001317 -21.5 102.5625 C-21.56725281 101.77154938 -21.63450562 100.98059875 -21.70379639 100.16567993 C-22.56103899 90.07313006 -23.34309917 79.98812217 -23.70898438 69.86352539 C-23.86036924 65.83105719 -24.24065635 61.96476971 -25 58 C-34.43143979 57.81599684 -43.78245334 58.39407547 -53.1875 59 Z " fill="#072C76" transform="translate(361,248)"/>
<path d="M0 0 C2.76398307 1.41073155 5.49411512 2.85118113 8.19995117 4.37109375 C9.26665039 4.96921875 10.33334961 5.56734375 11.43237305 6.18359375 C12.53774414 6.8075 13.64311523 7.43140625 14.78198242 8.07421875 C15.86801758 8.68265625 16.95405273 9.29109375 18.07299805 9.91796875 C23.13600114 12.76419751 28.12262493 15.65474358 33.02026367 18.77734375 C36.81710818 21.02340188 39.12519625 22.38696675 43.59448242 21.32421875 C47.26704806 19.688454 50.73166838 17.75682281 54.21948242 15.76171875 C55.69010132 14.94441284 55.69010132 14.94441284 57.19042969 14.1105957 C61.33088692 11.7983745 65.44091364 9.4552646 69.45776367 6.93359375 C70.47225586 6.299375 71.48674805 5.66515625 72.53198242 5.01171875 C73.36600586 4.45871094 74.2000293 3.90570313 75.05932617 3.3359375 C78.7516221 1.86243265 80.75394405 2.27860634 84.59448242 3.32421875 C87.89149121 5.02097827 90.94970235 7.01773324 94.03198242 9.07421875 C95.65562522 10.13159506 97.2793226 11.18888756 98.90307617 12.24609375 C99.61262451 12.7162793 100.32217285 13.18646484 101.05322266 13.67089844 C103.44935722 15.31719125 103.44935722 15.31719125 105.63555908 16.26353455 C107.9626137 17.43280715 109.73223688 18.49673359 111.59448242 20.32421875 C112.73600521 23.79234196 112.62036643 27.11037595 112.52416992 30.734375 C112.53030304 31.73883163 112.53643616 32.74328827 112.54275513 33.77818298 C112.55567145 36.98231709 112.51470454 40.18292431 112.46948242 43.38671875 C112.45602276 46.59324343 112.45371866 49.79942233 112.46047974 53.00596619 C112.46125991 54.99930661 112.44846029 56.9927089 112.42062378 58.9858551 C112.41467194 59.89036911 112.40872009 60.79488312 112.40258789 61.72680664 C112.39178192 62.52002823 112.38097595 63.31324982 112.36984253 64.13050842 C112.62782398 66.64981416 113.24185054 68.18978574 114.59448242 70.32421875 C116.68926709 71.78712674 118.70404156 73.05148153 120.92260742 74.29296875 C121.86254547 74.83624817 121.86254547 74.83624817 122.82147217 75.39050293 C124.82354683 76.54515603 126.83354284 77.68508771 128.84448242 78.82421875 C130.83933054 79.96627051 132.83242116 81.11131346 134.824646 82.25793457 C136.06269611 82.96917757 137.30254292 83.67730584 138.54449463 84.38171387 C140.23690922 85.34678769 141.91594173 86.33521129 143.59448242 87.32421875 C144.71314697 87.97108643 145.83181152 88.6179541 146.984375 89.28442383 C149.59448242 91.32421875 149.59448242 91.32421875 150.29150391 93.52807617 C150.25391968 94.71687378 150.25391968 94.71687378 150.21557617 95.9296875 C150.20276611 96.82268555 150.18995605 97.71568359 150.17675781 98.63574219 C150.12898193 99.58481445 150.08120605 100.53388672 150.03198242 101.51171875 C149.99516357 102.49043945 149.95834473 103.46916016 149.92041016 104.47753906 C149.84382968 106.47480987 149.75831582 108.4717584 149.66381836 110.46826172 C149.60022727 113.08758767 149.72144954 115.59532305 149.94604492 118.203125 C150.23826064 122.69538921 150.1045872 126.02942535 148.59448242 130.32421875 C144.68125856 134.52344546 139.26174342 136.7545041 134.12915039 139.11767578 C129.71327007 141.21970627 125.51335856 143.69008277 121.28198242 146.13671875 C120.47647949 146.58128418 119.67097656 147.02584961 118.84106445 147.48388672 C118.08293457 147.9120166 117.32480469 148.34014648 116.54370117 148.78125 C115.54342896 149.33776245 115.54342896 149.33776245 114.52294922 149.90551758 C111.37394949 152.22211935 108.96334667 154.35995197 108.21354675 158.35276794 C108.03564946 160.83607327 107.98861928 163.29158679 107.98510742 165.78125 C107.96857117 166.6842131 107.95203491 167.58717621 107.93499756 168.51750183 C107.88656186 171.39064364 107.86515654 174.26325632 107.84448242 177.13671875 C107.81631902 179.08921926 107.78639107 181.04169518 107.75463867 182.99414062 C107.68080406 187.77078977 107.63120235 192.54714594 107.59448242 197.32421875 C105.52090937 198.55278082 103.43851488 199.75647221 101.34448242 200.94921875 C100.75795898 201.29984375 100.17143555 201.65046875 99.56713867 202.01171875 C95.17707477 204.47804679 95.17707477 204.47804679 92.38183594 203.73999023 C82.81327234 196.16068408 76.87628449 185.71368236 75.3039093 173.69612122 C74.15429456 162.76891298 73.767747 151.77609537 73.63430786 140.79406738 C73.59543503 138.38329654 73.51652903 135.97679101 73.42822266 133.56738281 C73.39019572 132.12046862 73.35311064 130.67352924 73.31713867 129.2265625 C73.27854736 127.97480225 73.23995605 126.72304199 73.20019531 125.43334961 C73.59448242 122.32421875 73.59448242 122.32421875 75.3840332 120.14526367 C77.40698242 118.69921875 77.40698242 118.69921875 79.55151367 117.66015625 C82.67199813 115.61961001 83.36025427 113.85772553 84.59448242 110.32421875 C84.97115348 106.37828269 84.92198789 102.47176364 84.84448242 98.51171875 C84.83674805 96.9484082 84.83674805 96.9484082 84.82885742 95.35351562 C84.83928005 80.64898979 84.83928005 80.64898979 77.59448242 68.32421875 C71.72799046 63.15280877 64.19815129 63.78621212 56.8293457 64.17822266 C51.94802283 64.49710305 47.07778902 64.93159428 42.20922852 65.40527344 C34.94064434 66.09332746 27.67628039 66.57126116 20.38745117 66.984375 C18.3602546 67.10349494 16.33307374 67.22288245 14.3059082 67.3425293 C11.24375226 67.52307937 8.18184748 67.6979509 5.11834717 67.85415649 C2.21473379 68.00289611 -0.68693204 68.17340839 -3.58911133 68.34765625 C-4.89426445 68.40561119 -4.89426445 68.40561119 -6.2257843 68.46473694 C-12.547013 68.87274068 -18.215757 70.30603633 -22.93309021 74.7696228 C-29.82151682 82.7171533 -28.79697679 90.04526745 -28.09301758 100.0546875 C-27.95169511 101.72825162 -27.80585772 103.4014406 -27.65551758 105.07421875 C-27.56318848 106.26156616 -27.56318848 106.26156616 -27.46899414 107.47290039 C-26.82974673 113.81696677 -25.14854673 119.49095838 -20.62426758 124.1640625 C-20.05708008 124.52628906 -19.48989258 124.88851562 -18.90551758 125.26171875 C-18.33833008 125.64199219 -17.77114258 126.02226562 -17.18676758 126.4140625 C-15.27938413 127.38866852 -13.48389767 127.83659467 -11.40551758 128.32421875 C-10.83212767 135.74377578 -10.2629013 143.16364392 -9.6965332 150.58374023 C-9.50347622 153.10659983 -9.30947524 155.62938738 -9.11450195 158.15209961 C-8.83400721 161.78350475 -8.55693677 165.41515763 -8.28051758 169.046875 C-8.1492749 170.73164696 -8.1492749 170.73164696 -8.01538086 172.45045471 C-6.82567262 188.20623426 -6.82567262 188.20623426 -9.59301758 192.9453125 C-10.04418945 193.73486328 -10.49536133 194.52441406 -10.96020508 195.33789062 C-11.4371582 196.13775391 -11.91411133 196.93761719 -12.40551758 197.76171875 C-13.12094727 199.00211914 -13.12094727 199.00211914 -13.85083008 200.26757812 C-15.02254785 202.29464987 -16.20743733 204.31265475 -17.40551758 206.32421875 C-19.5734064 205.09716932 -21.7398222 203.86762929 -23.90551758 202.63671875 C-24.80657227 202.1272168 -24.80657227 202.1272168 -25.72583008 201.60742188 C-26.93653492 200.9183505 -28.14045297 200.21719609 -29.33673096 199.50337219 C-31.37782848 198.29882441 -31.37782848 198.29882441 -33.50067139 197.36894226 C-35.8018057 196.21379164 -37.55754056 195.12576792 -39.40551758 193.32421875 C-40.52637261 189.93581034 -40.38492474 186.70842582 -40.26489258 183.16796875 C-40.26628235 182.18807983 -40.26767212 181.20819092 -40.269104 180.1986084 C-40.2687928 177.072282 -40.21567352 173.94992138 -40.15551758 170.82421875 C-40.11654476 167.69917581 -40.08919542 164.5751169 -40.08477783 161.4498291 C-40.079947 159.50751469 -40.05422021 157.56511143 -40.00506592 155.62341309 C-39.9768501 151.53444712 -40.00912737 149.02120779 -42.05932617 145.41625977 C-44.66441029 143.0933705 -47.22601126 141.40118463 -50.27270508 139.6953125 C-51.40579102 139.05271484 -52.53887695 138.41011719 -53.70629883 137.74804688 C-54.89745023 137.08547912 -56.08885862 136.4233732 -57.28051758 135.76171875 C-59.61335164 134.45161498 -61.9429615 133.13591685 -64.27270508 131.8203125 C-65.30508301 131.24466553 -66.33746094 130.66901855 -67.40112305 130.07592773 C-68.39257324 129.49786377 -69.38402344 128.9197998 -70.40551758 128.32421875 C-71.50919678 127.69233643 -72.61287598 127.0604541 -73.75 126.40942383 C-76.40551758 124.32421875 -76.40551758 124.32421875 -77.10253906 122.01269531 C-77.07748291 121.1719043 -77.05242676 120.33111328 -77.02661133 119.46484375 C-77.013479 118.52133057 -77.00034668 117.57781738 -76.98681641 116.60571289 C-76.93936279 115.60531982 -76.89190918 114.60492676 -76.84301758 113.57421875 C-76.80909912 112.5473999 -76.77518066 111.52058105 -76.74023438 110.46264648 C-76.66846944 108.3879432 -76.58596847 106.31358186 -76.49243164 104.23974609 C-76.41511951 101.64631509 -76.47340535 99.1200066 -76.61645508 96.53125 C-76.77170666 92.58948455 -76.5758983 89.13486778 -75.40551758 85.32421875 C-72.34183381 82.05139051 -68.81928574 80.38043718 -64.78881836 78.50146484 C-59.63416106 75.95529014 -54.73505822 72.92233136 -49.78051758 70.01171875 C-48.71309326 69.39989746 -47.64566895 68.78807617 -46.54589844 68.15771484 C-45.53793213 67.57715332 -44.52996582 66.9965918 -43.49145508 66.3984375 C-42.58443848 65.87854248 -41.67742187 65.35864746 -40.74291992 64.82299805 C-37.29419806 62.61162312 -35.71315672 61.24713616 -34.40551758 57.32421875 C-34.48251287 55.22861336 -34.56710761 53.13284003 -34.70124817 51.04011536 C-36.59608111 21.0172931 -36.59608111 21.0172931 -31.34838867 13.29833984 C-26.27356576 9.02031872 -20.51701118 6.93822039 -14.17504883 5.20898438 C-10.54865275 4.05048126 -7.60259629 2.20761098 -4.45825195 0.09082031 C-2.40551758 -0.67578125 -2.40551758 -0.67578125 0 0 Z " fill="#FDFDFE" transform="translate(283.405517578125,180.67578125)"/>
<path d="M0 0 C2.46264648 0.95874023 2.46264648 0.95874023 4.87109375 2.30859375 C5.76828125 2.80464111 6.66546875 3.30068848 7.58984375 3.81176758 C8.99943359 4.61650513 8.99943359 4.61650513 10.4375 5.4375 C11.89542969 6.24707153 11.89542969 6.24707153 13.3828125 7.07299805 C17.83959539 9.56521985 22.24380424 12.11721004 26.56640625 14.8359375 C27.57586304 15.46737671 27.57586304 15.46737671 28.60571289 16.11157227 C29.83306336 16.88967988 31.05058011 17.68361136 32.25561523 18.49584961 C34.99248987 20.24500437 36.57519961 21.03660255 39.85327148 20.75415039 C43.05959355 19.98571771 45.53553896 18.92688767 48.44140625 17.3828125 C49.43720703 16.85816406 50.43300781 16.33351562 51.45898438 15.79296875 C52.48314453 15.24253906 53.50730469 14.69210938 54.5625 14.125 C56.10454102 13.31095703 56.10454102 13.31095703 57.67773438 12.48046875 C63.26330637 9.52500401 63.26330637 9.52500401 68.70678711 6.31982422 C71 5 71 5 73 5 C73.04898438 5.81984375 73.09796875 6.6396875 73.1484375 7.484375 C73.26058594 9.10085937 73.26058594 9.10085937 73.375 10.75 C73.47941406 12.35101563 73.47941406 12.35101563 73.5859375 13.984375 C73.98019554 16.85576378 74.41273808 18.60291057 76 21 C76.99 21.66 77.98 22.32 79 23 C79 23.66 79 24.32 79 25 C64.15 32.92 64.15 32.92 49 41 C48.96261719 43.90167969 48.92523438 46.80335938 48.88671875 49.79296875 C48.84048066 52.60953218 48.78925529 55.42596392 48.73754883 58.24243164 C48.70433646 60.19677702 48.67629305 62.15121747 48.65356445 64.10571289 C48.61995067 66.91854282 48.56763146 69.73050447 48.51171875 72.54296875 C48.50532883 73.41398727 48.4989389 74.2850058 48.49235535 75.18241882 C48.37799573 79.9226553 48.13044821 83.2042296 45 87 C41.84652052 89.83210785 38.5287474 91.96936544 34.83203125 94.0234375 C33.85556641 94.57 32.87910156 95.1165625 31.87304688 95.6796875 C30.86306641 96.23914063 29.85308594 96.79859375 28.8125 97.375 C25.83499966 99.03325653 22.86021982 100.69493256 19.89648438 102.37768555 C17.97364726 103.45466234 16.0317903 104.49839547 14.07226562 105.50708008 C8.69445052 108.24488626 8.69445052 108.24488626 5.8046875 113.27734375 C5.82789063 114.48519531 5.85109375 115.69304687 5.875 116.9375 C5.87314697 117.60265625 5.87129395 118.2678125 5.86938477 118.953125 C5.8705631 120.44792343 5.89448248 121.94281796 5.93701172 123.43701172 C6.00851835 126.34661085 5.99461283 129.24978859 5.97265625 132.16015625 C5.93556636 137.77409873 5.95203762 143.38618834 6 149 C6.81154541 149.4532666 7.62309082 149.9065332 8.45922852 150.37353516 C11.50252875 152.07823521 14.54166992 153.78993606 17.57836914 155.50634766 C18.88702069 156.24416498 20.197214 156.97925527 21.5090332 157.71142578 C39.33278277 167.66556554 39.33278277 167.66556554 42 173 C42.08949417 174.45037107 42.1175844 175.90478629 42.11352539 177.35791016 C42.11341209 178.70908432 42.11341209 178.70908432 42.11329651 180.08755493 C42.10813522 181.06155243 42.10297394 182.03554993 42.09765625 183.0390625 C42.0962413 184.03505463 42.09482635 185.03104675 42.09336853 186.05722046 C42.08775936 189.24651053 42.0752053 192.43573106 42.0625 195.625 C42.05748618 197.78385315 42.05292307 199.94270741 42.04882812 202.1015625 C42.03778695 207.4010655 42.02103988 212.70052778 42 218 C42.7434668 218.28302979 43.48693359 218.56605957 44.25292969 218.85766602 C48.1788114 220.49019361 51.64911381 222.69342254 55.25 224.9375 C55.9821875 225.38029297 56.714375 225.82308594 57.46875 226.27929688 C58.16484375 226.71177734 58.8609375 227.14425781 59.578125 227.58984375 C60.52800293 228.17560181 60.52800293 228.17560181 61.49707031 228.77319336 C63 230 63 230 64 233 C62.81771289 235.64482006 61.5890133 238.10180177 60.1875 240.625 C59.81818359 241.31851563 59.44886719 242.01203125 59.06835938 242.7265625 C56.27457453 247.86271273 56.27457453 247.86271273 54 249 C52.01635742 248.04370117 52.01635742 248.04370117 49.60546875 246.54296875 C48.73212891 246.00736328 47.85878906 245.47175781 46.95898438 244.91992188 C46.04439453 244.34822266 45.12980469 243.77652344 44.1875 243.1875 C42.39141627 242.07344092 40.59329913 240.96265209 38.79296875 239.85546875 C37.59450317 239.10753052 37.59450317 239.10753052 36.37182617 238.34448242 C32.8373038 236.30838298 32.8373038 236.30838298 29 235 C26.03035924 236.03903707 26.03035924 236.03903707 23.0703125 237.9453125 C21.38228516 238.94304687 21.38228516 238.94304687 19.66015625 239.9609375 C18.4814738 240.68180622 17.30309046 241.40316423 16.125 242.125 C14.95543364 242.82460214 13.78486844 243.52253734 12.61328125 244.21875 C6.69379939 247.72796418 6.69379939 247.72796418 0.86621094 251.38574219 C-3.29727664 254.01959558 -6.12019449 254.38938042 -11 254 C-14.15869141 252.65820313 -14.15869141 252.65820313 -17.3515625 250.78125 C-17.93231537 250.44508667 -18.51306824 250.10892334 -19.11141968 249.76257324 C-20.95787201 248.68900914 -22.791176 247.59496492 -24.625 246.5 C-25.8312416 245.79552118 -27.03826864 245.09238544 -28.24609375 244.390625 C-31.2500461 242.63914049 -34.23515078 240.85809744 -37.21496582 239.06591797 C-39.00879667 237.99474714 -40.81330396 236.94362494 -42.62011719 235.89453125 C-43.77568421 235.2114339 -44.93096922 234.5278592 -46.0859375 233.84375 C-47.10478027 233.24755859 -48.12362305 232.65136719 -49.17333984 232.03710938 C-53.34838344 229.02825087 -56.49526589 226.70989064 -57.4581604 221.54016113 C-57.66230246 218.50445951 -57.69295517 215.51119128 -57.6640625 212.46875 C-57.66884613 211.35947144 -57.67362976 210.25019287 -57.67855835 209.1072998 C-57.68195338 206.76731952 -57.67277895 204.42729155 -57.65185547 202.08740234 C-57.62508696 198.51161649 -57.65161965 194.9389698 -57.68359375 191.36328125 C-57.68028959 189.08593059 -57.67388322 186.80858188 -57.6640625 184.53125 C-57.67418365 183.46547729 -57.68430481 182.39970459 -57.69473267 181.30163574 C-57.56453335 173.03044333 -57.56453335 173.03044333 -54.85644531 169.52587891 C-51.90435431 166.91542305 -49.07520714 164.97037181 -45.6328125 163.0546875 C-45.03499969 162.71752716 -44.43718689 162.38036682 -43.82125854 162.0329895 C-41.92863622 160.96889659 -40.02727857 159.92171294 -38.125 158.875 C-36.85744821 158.16648103 -35.59051528 157.45685374 -34.32421875 156.74609375 C-31.98170355 155.4329898 -29.63542121 154.1278122 -27.28564453 152.82763672 C-26.20138184 152.2245166 -25.11711914 151.62139648 -24 151 C-23.04235748 150.49850433 -23.04235748 150.49850433 -22.06536865 149.98687744 C-17.99448928 147.94596682 -17.99448928 147.94596682 -16 144 C-15.91492921 141.2684044 -15.88408435 138.56308557 -15.90234375 135.83203125 C-15.9037587 135.03721848 -15.90517365 134.2424057 -15.90663147 133.42350769 C-15.91222622 130.88646675 -15.92477772 128.34951425 -15.9375 125.8125 C-15.94251568 124.09179815 -15.94707847 122.37109492 -15.95117188 120.65039062 C-15.96219393 116.4335597 -15.97945494 112.21679484 -16 108 C-17.11072876 107.36553955 -17.11072876 107.36553955 -18.24389648 106.71826172 C-21.03540136 105.12168394 -23.82522908 103.52222238 -26.61401367 101.92089844 C-27.81291106 101.23324595 -29.0124381 100.54668987 -30.21264648 99.86132812 C-50.95184822 88.01530392 -50.95184822 88.01530392 -53 83 C-53.27415466 80.54727173 -53.27415466 80.54727173 -53.30639648 77.77587891 C-53.32238388 76.73444733 -53.33837128 75.69301575 -53.35484314 74.62002563 C-53.36020584 73.5001828 -53.36556854 72.38033997 -53.37109375 71.2265625 C-53.38012222 70.07006195 -53.3891507 68.9135614 -53.39845276 67.72201538 C-53.41295772 65.27596629 -53.4218426 62.82987837 -53.42553711 60.38378906 C-53.43743374 56.64581814 -53.48662093 52.90949758 -53.53710938 49.171875 C-53.54657361 46.79427888 -53.55380864 44.41667264 -53.55859375 42.0390625 C-53.57812607 40.92326813 -53.59765839 39.80747375 -53.61778259 38.65786743 C-53.56753078 29.99498812 -53.56753078 29.99498812 -50.84765625 26.48535156 C-47.96536151 23.96976853 -45.22132571 22.05325882 -41.87890625 20.1953125 C-41.29769516 19.86763885 -40.71648407 19.53996521 -40.11766052 19.20236206 C-38.27206693 18.16513202 -36.41779931 17.14474725 -34.5625 16.125 C-33.35418845 15.45034451 -32.14650117 14.77456971 -30.93945312 14.09765625 C-29.12907399 13.08274535 -27.31739006 12.07085465 -25.49966431 11.06915283 C-22.35790511 9.33634504 -19.25104351 7.56430059 -16.17919922 5.70996094 C-15.55617416 5.3386203 -14.93314911 4.96727966 -14.29124451 4.58468628 C-12.56754537 3.55362056 -10.85173932 2.50939241 -9.13647461 1.46435547 C-5.68927438 -0.1450714 -3.7528099 -0.46910124 0 0 Z " fill="#6965F6" transform="translate(202,156)"/>
<path d="M0 0 C2.61450195 1.12646484 2.61450195 1.12646484 5.23828125 2.7109375 C6.21563232 3.29166016 7.1929834 3.87238281 8.19995117 4.47070312 C9.22709229 5.09912109 10.2542334 5.72753906 11.3125 6.375 C13.46080782 7.6642786 15.60924617 8.95333974 17.7578125 10.2421875 C18.81387695 10.88124023 19.86994141 11.52029297 20.95800781 12.17871094 C23.67839304 13.8074488 26.41713533 15.38954227 29.1796875 16.9453125 C29.94885498 17.38182129 30.71802246 17.81833008 31.51049805 18.26806641 C32.91374653 19.06214422 34.32119446 19.84886842 35.73364258 20.62646484 C36.36165771 20.98691895 36.98967285 21.34737305 37.63671875 21.71875 C38.16998779 22.01716797 38.70325684 22.31558594 39.25268555 22.62304688 C42.77205265 25.39644781 45.57728554 27.78384557 46.43379211 32.27423096 C46.57788416 35.00650924 46.56231739 37.69461205 46.48828125 40.4296875 C46.48120651 41.42001984 46.47413177 42.41035217 46.46684265 43.43069458 C46.43895593 46.57957961 46.37622678 49.7266566 46.3125 52.875 C46.28740979 55.01559924 46.26459789 57.15622647 46.24414062 59.296875 C46.18914855 64.53186212 46.10558032 69.76580187 46 75 C46.7434668 75.28302979 47.48693359 75.56605957 48.25292969 75.85766602 C52.1788114 77.49019361 55.64911381 79.69342254 59.25 81.9375 C59.9821875 82.38029297 60.714375 82.82308594 61.46875 83.27929688 C62.16484375 83.71177734 62.8609375 84.14425781 63.578125 84.58984375 C64.52800293 85.17560181 64.52800293 85.17560181 65.49707031 85.77319336 C67 87 67 87 68 90 C66.81771289 92.64482006 65.5890133 95.10180177 64.1875 97.625 C63.81818359 98.31851563 63.44886719 99.01203125 63.06835938 99.7265625 C60.27457453 104.86271273 60.27457453 104.86271273 58 106 C56.01635742 105.04370117 56.01635742 105.04370117 53.60546875 103.54296875 C52.73212891 103.00736328 51.85878906 102.47175781 50.95898438 101.91992188 C50.04439453 101.34822266 49.12980469 100.77652344 48.1875 100.1875 C46.39141627 99.07344092 44.59329913 97.96265209 42.79296875 96.85546875 C41.59450317 96.10753052 41.59450317 96.10753052 40.37182617 95.34448242 C36.8373038 93.30838298 36.8373038 93.30838298 33 92 C30.03035924 93.03903707 30.03035924 93.03903707 27.0703125 94.9453125 C25.94496094 95.61046875 24.81960937 96.275625 23.66015625 96.9609375 C22.4814738 97.68180622 21.30309046 98.40316423 20.125 99.125 C18.95543364 99.82460214 17.78486844 100.52253734 16.61328125 101.21875 C10.69379939 104.72796418 10.69379939 104.72796418 4.86621094 108.38574219 C0.70272336 111.01959558 -2.12019449 111.38938042 -7 111 C-10.15869141 109.65820312 -10.15869141 109.65820312 -13.3515625 107.78125 C-13.93231537 107.44508667 -14.51306824 107.10892334 -15.11141968 106.76257324 C-16.95787201 105.68900914 -18.791176 104.59496492 -20.625 103.5 C-21.8312416 102.79552118 -23.03826864 102.09238544 -24.24609375 101.390625 C-27.2500461 99.63914049 -30.23515078 97.85809744 -33.21496582 96.06591797 C-35.00879667 94.99474714 -36.81330396 93.94362494 -38.62011719 92.89453125 C-39.77568421 92.2114339 -40.93096922 91.5278592 -42.0859375 90.84375 C-43.10478027 90.24755859 -44.12362305 89.65136719 -45.17333984 89.03710938 C-49.34838344 86.02825087 -52.49526589 83.70989064 -53.4581604 78.54016113 C-53.66230246 75.50445951 -53.69295517 72.51119128 -53.6640625 69.46875 C-53.66884613 68.35947144 -53.67362976 67.25019287 -53.67855835 66.1072998 C-53.68195338 63.76731952 -53.67277895 61.42729155 -53.65185547 59.08740234 C-53.62508696 55.51161649 -53.65161965 51.9389698 -53.68359375 48.36328125 C-53.68028959 46.08593059 -53.67388322 43.80858188 -53.6640625 41.53125 C-53.67418365 40.46547729 -53.68430481 39.39970459 -53.69473267 38.30163574 C-53.56453703 30.03067723 -53.56453703 30.03067723 -50.84106445 26.51708984 C-47.96460047 23.96863718 -45.23592312 22.06137306 -41.87890625 20.1953125 C-41.29769516 19.86763885 -40.71648407 19.53996521 -40.11766052 19.20236206 C-38.27206693 18.16513202 -36.41779931 17.14474725 -34.5625 16.125 C-33.35418845 15.45034451 -32.14650117 14.77456971 -30.93945312 14.09765625 C-29.12907399 13.08274535 -27.31739006 12.07085465 -25.49966431 11.06915283 C-22.35790511 9.33634504 -19.25104351 7.56430059 -16.17919922 5.70996094 C-15.55617416 5.3386203 -14.93314911 4.96727966 -14.29124451 4.58468628 C-12.56754537 3.55362056 -10.85173932 2.50939241 -9.13647461 1.46435547 C-5.67653479 -0.15101925 -3.76612769 -0.49946641 0 0 Z " fill="#082C77" transform="translate(198,299)"/>
<path d="M0 0 C2.61450195 1.12646484 2.61450195 1.12646484 5.23828125 2.7109375 C6.21563232 3.29166016 7.1929834 3.87238281 8.19995117 4.47070312 C9.22709229 5.09912109 10.2542334 5.72753906 11.3125 6.375 C13.46080782 7.6642786 15.60924617 8.95333974 17.7578125 10.2421875 C18.81387695 10.88124023 19.86994141 11.52029297 20.95800781 12.17871094 C23.67839304 13.8074488 26.41713533 15.38954227 29.1796875 16.9453125 C29.94885498 17.38182129 30.71802246 17.81833008 31.51049805 18.26806641 C32.91374653 19.06214422 34.32119446 19.84886842 35.73364258 20.62646484 C36.36165771 20.98691895 36.98967285 21.34737305 37.63671875 21.71875 C38.16998779 22.01716797 38.70325684 22.31558594 39.25268555 22.62304688 C42.94920353 25.53604973 45.59039223 27.80233197 46.46812439 32.5116272 C46.66185062 35.61346166 46.69289909 38.67736077 46.6640625 41.78515625 C46.66884613 42.91900253 46.67362976 44.05284882 46.67855835 45.22105408 C46.68195348 47.61230867 46.67277837 50.00360992 46.65185547 52.39477539 C46.62506261 56.05394889 46.65163243 59.71006163 46.68359375 63.36914062 C46.68029007 65.69531926 46.67388472 68.021496 46.6640625 70.34765625 C46.67924423 71.9868679 46.67924423 71.9868679 46.69473267 73.65919495 C46.57774592 81.24019756 46.57774592 81.24019756 43.63696289 85.10766602 C38.80647059 88.57411781 33.72694836 91.51551324 28.58349609 94.48242188 C25.54730713 96.26591749 22.55106272 98.10988904 19.55078125 99.953125 C17.82056719 100.99885827 16.08807247 102.04065801 14.35409546 103.08013916 C12.65237355 104.10845866 10.96432836 105.15930238 9.27661133 106.21044922 C-0.65582652 112.10804485 -0.65582652 112.10804485 -6.94384766 110.73730469 C-10.58969053 109.42996136 -13.74726039 107.64870476 -17 105.5625 C-17.71841064 105.12454102 -18.43682129 104.68658203 -19.17700195 104.23535156 C-22.25026735 102.36022926 -25.29746618 100.44570612 -28.33740234 98.51708984 C-30.61125581 97.0788406 -32.89875724 95.66438877 -35.1875 94.25 C-35.88166016 93.79568604 -36.57582031 93.34137207 -37.29101562 92.87329102 C-41.47201153 90.28007451 -41.47201153 90.28007451 -46.3203125 90.6328125 C-49.03720127 91.97845761 -49.03720127 91.97845761 -51.6875 93.625 C-54 95 -54 95 -57 95 C-58.24267578 93.65478516 -58.24267578 93.65478516 -59.4453125 91.7890625 C-59.88230469 91.12132812 -60.31929688 90.45359375 -60.76953125 89.765625 C-61.21683594 89.05921875 -61.66414063 88.3528125 -62.125 87.625 C-62.80755859 86.57699219 -62.80755859 86.57699219 -63.50390625 85.5078125 C-66.75218141 80.49563718 -66.75218141 80.49563718 -68 78 C-65.87767021 76.82823482 -63.75242209 75.66245215 -61.625 74.5 C-61.02171875 74.16613281 -60.4184375 73.83226562 -59.796875 73.48828125 C-55.2265625 71 -55.2265625 71 -53 71 C-53.02618408 69.78940918 -53.05236816 68.57881836 -53.0793457 67.33154297 C-53.17008038 62.82538449 -53.22733371 58.31930621 -53.2746582 53.8125 C-53.29974946 51.86477057 -53.33383061 49.9171348 -53.37719727 47.96972656 C-53.43808749 45.1644781 -53.46626331 42.36047792 -53.48828125 39.5546875 C-53.51408768 38.68883026 -53.5398941 37.82297302 -53.56648254 36.93087769 C-53.56851188 32.52246533 -53.2884096 30.45107025 -50.85205078 26.640625 C-47.97914295 23.9806891 -45.29660518 22.09510432 -41.87890625 20.1953125 C-41.29769516 19.86763885 -40.71648407 19.53996521 -40.11766052 19.20236206 C-38.27206693 18.16513202 -36.41779931 17.14474725 -34.5625 16.125 C-33.35418845 15.45034451 -32.14650117 14.77456971 -30.93945312 14.09765625 C-29.12907399 13.08274535 -27.31739006 12.07085465 -25.49966431 11.06915283 C-22.35790511 9.33634504 -19.25104351 7.56430059 -16.17919922 5.70996094 C-15.55617416 5.3386203 -14.93314911 4.96727966 -14.29124451 4.58468628 C-12.56754537 3.55362056 -10.85173932 2.50939241 -9.13647461 1.46435547 C-5.67653479 -0.15101925 -3.76612769 -0.49946641 0 0 Z " fill="#082C76" transform="translate(444,307)"/>
<path d="M0 0 C3.14216049 1.32512839 6.0524177 2.97863451 9 4.6875 C9.85851562 5.17355713 10.71703125 5.65961426 11.6015625 6.16040039 C14.40994572 7.75857884 17.20533743 9.37796274 20 11 C20.99515625 11.57169922 21.9903125 12.14339844 23.015625 12.73242188 C26.01617274 14.45773683 29.00959431 16.19467285 32 17.9375 C32.93714844 18.48043701 33.87429688 19.02337402 34.83984375 19.58276367 C35.71769531 20.1007251 36.59554687 20.61868652 37.5 21.15234375 C38.2734375 21.60601318 39.046875 22.05968262 39.84375 22.52709961 C45.69118531 26.52139051 45.69118531 26.52139051 46.52812195 30.52865601 C46.54035294 31.47874542 46.55258392 32.42883484 46.56518555 33.40771484 C46.58747726 34.48918793 46.60976898 35.57066101 46.63273621 36.68490601 C46.63470757 38.4302916 46.63470757 38.4302916 46.63671875 40.2109375 C46.65313164 42.01227646 46.65313164 42.01227646 46.6698761 43.8500061 C46.68574364 46.39019477 46.69093703 48.93046917 46.6862793 51.47070312 C46.68749353 55.35431352 46.74724192 59.23415514 46.81054688 63.1171875 C46.81868901 65.58592828 46.82336093 68.05468344 46.82421875 70.5234375 C46.84779953 71.68297943 46.87138031 72.84252136 46.89567566 74.03720093 C46.80667856 81.85569937 46.80667856 81.85569937 44.61190796 84.96905518 C42.82643283 86.55844624 41.0561756 87.78544071 39 89 C37.9471582 89.67804688 36.89431641 90.35609375 35.80957031 91.0546875 C34.74319336 91.65539062 33.67681641 92.25609375 32.578125 92.875 C31.99262878 93.20741699 31.40713257 93.53983398 30.80389404 93.88232422 C28.95656707 94.92877625 27.10346568 95.96446833 25.25 97 C24.02565346 97.69202196 22.8016925 98.38472655 21.578125 99.078125 C19.18988625 100.42964993 16.79587792 101.76994972 14.39648438 103.1015625 C12.2083898 104.32458028 10.03148046 105.56794034 7.86914062 106.8359375 C6.91716797 107.38507813 5.96519531 107.93421875 4.984375 108.5 C4.16163086 108.9846875 3.33888672 109.469375 2.49121094 109.96875 C-0.62275115 111.25779115 -2.64998362 111.38488191 -6 111 C-8.99755859 109.68994141 -8.99755859 109.68994141 -12.1484375 107.8515625 C-12.7188678 107.52322418 -13.2892981 107.19488586 -13.87701416 106.8565979 C-15.71758528 105.79236439 -17.54639359 104.70964185 -19.375 103.625 C-20.63547987 102.88826963 -21.89638673 102.15226935 -23.15771484 101.41699219 C-26.78315023 99.29680932 -30.39216396 97.14998845 -34 95 C-34.93650391 94.44731445 -35.87300781 93.89462891 -36.83789062 93.32519531 C-39.10930061 91.98105505 -41.3701321 90.62166194 -43.625 89.25 C-44.26228027 88.86924316 -44.89956055 88.48848633 -45.55615234 88.09619141 C-48.8267028 86.05682027 -50.60680767 84.58917086 -52 81 C-52.27415466 78.62319946 -52.27415466 78.62319946 -52.30639648 75.95947266 C-52.32238388 74.95808258 -52.33837128 73.9566925 -52.35484314 72.92495728 C-52.36020584 71.848862 -52.36556854 70.77276672 -52.37109375 69.6640625 C-52.38012222 68.55195404 -52.3891507 67.43984558 -52.39845276 66.29403687 C-52.41295584 63.94214572 -52.42184213 61.59021421 -52.42553711 59.23828125 C-52.43743332 55.64514013 -52.48662133 52.05371624 -52.53710938 48.4609375 C-52.54657374 46.17448754 -52.55380871 43.88802704 -52.55859375 41.6015625 C-52.58789223 39.99349228 -52.58789223 39.99349228 -52.61778259 38.35293579 C-52.56753765 30.02226662 -52.56753765 30.02226662 -49.78637695 26.48095703 C-47.21471794 24.19118231 -44.85187273 22.39145613 -41.859375 20.703125 C-40.87888184 20.14125488 -39.89838867 19.57938477 -38.88818359 19.00048828 C-37.85258301 18.42282715 -36.81698242 17.84516602 -35.75 17.25 C-33.59071546 16.0241953 -31.43186392 14.79762757 -29.2734375 13.5703125 C-28.21092773 12.96993164 -27.14841797 12.36955078 -26.05371094 11.75097656 C-23.29000205 10.16628515 -20.56477163 8.53644072 -17.8515625 6.8671875 C-17.0874707 6.40022461 -16.32337891 5.93326172 -15.53613281 5.45214844 C-14.13635115 4.5925446 -12.74204439 3.72393436 -11.35449219 2.84472656 C-7.35782925 0.41869651 -4.65132029 -0.82599013 0 0 Z " fill="#072C76" transform="translate(327,92)"/>
<path d="M0 0 C0.90642018 4.7327021 1.20002433 9.38499768 1.375 14.1875 C1.79518057 23.43327205 2.40890338 32.66440798 3.13140869 41.89102173 C3.25129588 43.45272717 3.36527375 45.01489849 3.4730835 46.57748413 C4.15683959 58.39333308 4.15683959 58.39333308 9 69 C9.59083374 69.91724854 9.59083374 69.91724854 10.19360352 70.85302734 C11.46611634 72.78549953 12.78661142 74.67514525 14.125 76.5625 C15.09341529 77.94854336 16.06083769 79.33528088 17.02734375 80.72265625 C17.51702637 81.42406738 18.00670898 82.12547852 18.51123047 82.84814453 C20.94741148 86.36938091 23.31917489 89.93290895 25.6875 93.5 C26.12143066 94.15299072 26.55536133 94.80598145 27.00244141 95.47875977 C28.00263508 96.98517141 29.00148248 98.4924768 30 100 C29.67 100.66 29.34 101.32 29 102 C26.56096464 102.68700996 24.1591131 103.2715973 21.6875 103.8125 C9.82684558 106.6143437 0.12598892 111.23539308 -10 118 C-18.78851284 123.8404674 -26.95870181 127.82906373 -37 131 C-38.47146484 131.52980469 -38.47146484 131.52980469 -39.97265625 132.0703125 C-47.0647784 134.24828033 -54.09532952 134.12460034 -61.4375 134.0625 C-62.45521484 134.05798828 -63.47292969 134.05347656 -64.52148438 134.04882812 C-67.01438509 134.03712437 -69.50716074 134.02072848 -72 134 C-71.37056289 128.92964005 -69.11982112 124.76363741 -66.87890625 120.24609375 C-66.25072243 118.9627993 -66.25072243 118.9627993 -65.60984802 117.65357971 C-64.26616114 114.91218236 -62.91439235 112.17485859 -61.5625 109.4375 C-60.68763445 107.65455026 -59.81328082 105.87134924 -58.93945312 104.08789062 C-58.29053604 102.76695908 -58.29053604 102.76695908 -57.62850952 101.41934204 C-56.75121444 99.63196171 -55.8764103 97.84335667 -55.00405884 96.05355835 C-52.7956357 91.54516461 -50.52595578 87.09236139 -48.10888672 82.69189453 C-42.71565154 72.74922597 -39.60253897 65.55611995 -41 54 C-41.1431546 51.44580312 -41.27691712 48.89106628 -41.40234375 46.3359375 C-41.53215498 44.35907689 -41.66202847 42.38221418 -41.7979126 40.40576172 C-42.03718462 36.92475655 -42.26175248 33.44279108 -42.48828125 29.9609375 C-42.5331366 29.2775531 -42.57799194 28.5941687 -42.62420654 27.89007568 C-43.1862524 19.26520294 -43.60566289 10.63390718 -44 2 C-39.50198002 1.71072342 -35.00369496 1.42610164 -30.50512695 1.14550781 C-28.97965851 1.04973417 -27.45426482 0.95276098 -25.92895508 0.85449219 C-17.27622384 0.29790035 -8.67641675 -0.169273 0 0 Z " fill="#FDFDFE" transform="translate(336,306)"/>
<path d="M0 0 C0.49628906 1.01578125 0.99257813 2.0315625 1.50390625 3.078125 C9.64289723 19.62875307 18.77073558 34.16162184 31 48 C31.639375 47.34 32.27875 46.68 32.9375 46 C36.52777835 43.65532843 38.64073824 43.36003076 42.84375 43.53515625 C46.31113075 44.28265319 47.91009693 46.25700222 50 49 C51.43304064 51.86608129 51.30644155 53.81300783 51 57 C49.71802697 59.03330345 48.38907669 61.0383059 47 63 C49.18449406 64.5876212 51.37241595 66.17012174 53.5625 67.75 C54.47612305 68.41515625 54.47612305 68.41515625 55.40820312 69.09375 C59.47420202 72.01954815 63.61179721 74.58281751 68 77 C64.52908556 79.09263236 61.56080852 79.36255766 57.546875 79.59765625 C56.28746094 79.67693359 55.02804687 79.75621094 53.73046875 79.83789062 C52.41691406 79.91201172 51.10335937 79.98613281 49.75 80.0625 C40.20341046 80.55713043 40.20341046 80.55713043 30.69921875 81.52734375 C26.15525189 82.10793508 21.63688259 82.3118685 17.0625 82.5 C11.41706677 82.73324667 5.84270056 83.09577001 0.23120117 83.75927734 C-7.14402927 84.55498554 -14.59099826 84.72489327 -22 85 C-22.87237305 85.03544922 -23.74474609 85.07089844 -24.64355469 85.10742188 C-27.17907274 85.20080059 -29.71330374 85.26186684 -32.25 85.3125 C-33.01103027 85.342229 -33.77206055 85.37195801 -34.55615234 85.40258789 C-41.19673946 85.47229571 -46.16921442 83.42996638 -51.20703125 79.10546875 C-57.33075878 71.78977479 -59.45191449 66.0649195 -59.35522461 56.48461914 C-58.77391863 50.7822272 -56.47407426 46.32249793 -53.8125 41.3125 C-53.28237305 40.26392822 -52.75224609 39.21535645 -52.20605469 38.13500977 C-51.07905829 35.9098341 -49.94125936 33.69010111 -48.79345703 31.47558594 C-46.93135616 27.86697336 -45.11283272 24.23930645 -43.30859375 20.6015625 C-40.22591845 14.39081665 -37.12058145 8.19178662 -34 2 C-33.35039307 2.01047363 -32.70078613 2.02094727 -32.03149414 2.03173828 C-29.04186999 2.07372962 -26.05230821 2.09946167 -23.0625 2.125 C-21.53012695 2.15013672 -21.53012695 2.15013672 -19.96679688 2.17578125 C-13.13550187 2.2194317 -6.61293062 0 0 0 Z " fill="#92B1F3" transform="translate(297,437)"/>
<path d="M0 0 C0.92466064 0.5266626 1.84932129 1.0533252 2.80200195 1.59594727 C4.32083984 2.45736328 4.32083984 2.45736328 5.87036133 3.33618164 C6.91643555 3.93881836 7.96250977 4.54145508 9.0402832 5.16235352 C10.09795898 5.76112305 11.15563477 6.35989258 12.24536133 6.97680664 C20.06890578 11.4409761 20.06890578 11.4409761 22.3527832 13.72485352 C24.36609085 24.07762105 26.02307322 37.62918541 22.3527832 47.72485352 C16.46161737 55.31774375 7.17516168 58.62780921 -1.6472168 61.72485352 C-2.88121216 62.37019043 -2.88121216 62.37019043 -4.14013672 63.02856445 C-6.6472168 63.72485352 -6.6472168 63.72485352 -9.4621582 62.69848633 C-10.46424316 62.11421875 -11.46632812 61.52995117 -12.4987793 60.92797852 C-13.59706055 60.29891602 -14.6953418 59.66985352 -15.8269043 59.02172852 C-16.97552944 58.33975279 -18.12396506 57.65745776 -19.2722168 56.97485352 C-20.42751639 56.3065412 -21.58375859 55.63985552 -22.7409668 54.97485352 C-26.77214965 52.64151003 -30.77118209 50.30887665 -34.6472168 47.72485352 C-35.02658059 45.17200343 -35.21084347 42.86698062 -35.2565918 40.30297852 C-35.27369202 39.56537292 -35.29079224 38.82776733 -35.30841064 38.06781006 C-35.33676867 36.5044038 -35.35636607 34.940818 -35.36791992 33.37719727 C-35.39697041 30.99505718 -35.48989971 28.62078239 -35.5847168 26.24047852 C-35.82090581 15.23300749 -35.82090581 15.23300749 -32.91577148 11.5 C-30.56372554 9.90895539 -28.26318703 8.82208272 -25.6472168 7.72485352 C-24.0890136 6.80763403 -22.5418152 5.87144452 -21.0065918 4.91625977 C-19.47237662 4.03603631 -17.93591477 3.15971703 -16.3972168 2.28735352 C-15.62120117 1.8290918 -14.84518555 1.37083008 -14.0456543 0.89868164 C-12.91256836 0.25769531 -12.91256836 0.25769531 -11.7565918 -0.39624023 C-11.08595703 -0.78223389 -10.41532227 -1.16822754 -9.72436523 -1.56591797 C-6.0391989 -2.8241935 -3.40009696 -1.63780378 0 0 Z " fill="#D0DBFC" transform="translate(200.647216796875,324.275146484375)"/>
<path d="M0 0 C1.21429688 0.75216797 1.21429688 0.75216797 2.453125 1.51953125 C3.86464844 2.36644531 3.86464844 2.36644531 5.3046875 3.23046875 C6.42617188 3.92398438 7.54765625 4.6175 8.703125 5.33203125 C10.18768248 6.20335799 11.67483086 7.07028018 13.1640625 7.93359375 C16.205631 9.69977872 19.24480559 11.46951357 22.2734375 13.2578125 C22.91039551 13.63333252 23.54735352 14.00885254 24.20361328 14.39575195 C25.703125 15.33203125 25.703125 15.33203125 26.703125 16.33203125 C26.79160243 18.85297201 26.81839801 21.34634018 26.80078125 23.8671875 C26.7993663 24.62043808 26.79795135 25.37368866 26.79649353 26.14976501 C26.79087876 28.56472685 26.77832383 30.97959726 26.765625 33.39453125 C26.7606119 35.02799346 26.75604866 36.66145711 26.75195312 38.29492188 C26.74090454 42.3073271 26.72363006 46.31966366 26.703125 50.33203125 C23.21664684 52.29040968 19.72948595 54.24756627 16.24169922 56.20361328 C15.05629136 56.86864554 13.8710677 57.53400624 12.68603516 58.19970703 C10.97868004 59.15875034 9.27059795 60.11649909 7.5625 61.07421875 C6.53608398 61.65026855 5.50966797 62.22631836 4.45214844 62.81982422 C3.09138184 63.5683667 3.09138184 63.5683667 1.703125 64.33203125 C1.03047607 64.78167236 0.35782715 65.23131348 -0.33520508 65.69458008 C-2.296875 66.33203125 -2.296875 66.33203125 -4.78295898 65.41333008 C-6.14916382 64.60931763 -6.14916382 64.60931763 -7.54296875 63.7890625 C-8.54521484 63.20962891 -9.54746094 62.63019531 -10.58007812 62.03320312 C-11.62099609 61.40994141 -12.66191406 60.78667969 -13.734375 60.14453125 C-14.77142578 59.54060547 -15.80847656 58.93667969 -16.87695312 58.31445312 C-19.69374178 56.66996958 -22.49831388 55.00730171 -25.296875 53.33203125 C-26.22274414 52.93483887 -27.14861328 52.53764648 -28.10253906 52.12841797 C-30.296875 50.33203125 -30.296875 50.33203125 -30.86450195 46.77856445 C-30.86371188 45.31307533 -30.83554521 43.8474353 -30.78515625 42.3828125 C-30.77808151 41.61019577 -30.77100677 40.83757904 -30.76371765 40.04154968 C-30.73573755 37.57488983 -30.67299907 35.11050421 -30.609375 32.64453125 C-30.5842965 30.97203801 -30.56148254 29.29950916 -30.54101562 27.62695312 C-30.48589991 23.52777016 -30.39960796 19.43028618 -30.296875 15.33203125 C-29.6263208 14.95393311 -28.9557666 14.57583496 -28.26489258 14.1862793 C-25.21265826 12.46472941 -22.16101146 10.74214067 -19.109375 9.01953125 C-18.05427734 8.42462891 -16.99917969 7.82972656 -15.91210938 7.21679688 C-14.89052734 6.63994141 -13.86894531 6.06308594 -12.81640625 5.46875 C-11.87901611 4.93983154 -10.94162598 4.41091309 -9.97583008 3.8659668 C-8.1542886 2.82297535 -6.36075394 1.72983426 -4.59545898 0.59423828 C-2.296875 -0.66796875 -2.296875 -0.66796875 0 0 Z " fill="#66CBD0" transform="translate(326.296875,114.66796875)"/>
<path d="M0 0 C1.84969797 0.89098704 3.6652008 1.85496363 5.44921875 2.87109375 C6.96805664 3.73250977 6.96805664 3.73250977 8.51757812 4.61132812 C9.56365234 5.21396484 10.60972656 5.81660156 11.6875 6.4375 C12.74517578 7.03626953 13.80285156 7.63503906 14.89257812 8.25195312 C22.71612258 12.71612258 22.71612258 12.71612258 25 15 C25.17502995 17.58103306 25.23162279 20.05308163 25.1953125 22.6328125 C25.1924826 23.38464813 25.18965271 24.13648376 25.18673706 24.91110229 C25.17552874 27.31589578 25.15042352 29.72031881 25.125 32.125 C25.11497102 33.75390088 25.10584503 35.38280758 25.09765625 37.01171875 C25.07558735 41.00795556 25.04105351 45.00391494 25 49 C21.39685435 51.1502213 17.78559946 53.28589741 14.16625977 55.40869141 C12.93706157 56.13232053 11.71013584 56.85982464 10.4855957 57.59130859 C8.72154403 58.64415308 6.9496977 59.68263474 5.17578125 60.71875 C3.58117065 61.66137695 3.58117065 61.66137695 1.9543457 62.62304688 C-1.14602849 64.06806055 -2.64929393 64.53525127 -6 64 C-8.73901367 62.73071289 -8.73901367 62.73071289 -11.66796875 60.97265625 C-12.72564453 60.34552734 -13.78332031 59.71839844 -14.87304688 59.07226562 C-15.96681641 58.40904297 -17.06058594 57.74582031 -18.1875 57.0625 C-20.36840942 55.76158435 -22.54939508 54.46079651 -24.73046875 53.16015625 C-25.69364014 52.57886963 -26.65681152 51.99758301 -27.64916992 51.39868164 C-29.07239279 50.55190173 -30.5187574 49.7406213 -32 49 C-32.3234878 44.30502444 -32.5580634 39.6166106 -32.71411133 34.91308594 C-32.77916664 33.31753592 -32.86766316 31.72275186 -32.98071289 30.12988281 C-33.34695836 24.8334098 -33.40385713 20.15262209 -32 15 C-28.17189449 11.1284328 -23.94799014 9.15721515 -19 7 C-17.59764076 6.17259763 -16.20796651 5.32248038 -14.84375 4.43359375 C-13.7403125 3.77488281 -12.636875 3.11617188 -11.5 2.4375 C-9.81390625 1.41462891 -9.81390625 1.41462891 -8.09375 0.37109375 C-4.53390658 -1.20656413 -3.64227703 -1.05274336 0 0 Z " fill="#B0D852" transform="translate(444,331)"/>
<path d="M0 0 C2.75779285 1.28781336 5.40564955 2.62227032 8.03662109 4.15209961 C8.95572266 4.68254883 9.87482422 5.21299805 10.82177734 5.75952148 C12.23523438 6.58613281 12.23523438 6.58613281 13.67724609 7.42944336 C15.56770159 8.52478803 17.45831848 9.61985423 19.34912109 10.71459961 C20.59580566 11.44175171 20.59580566 11.44175171 21.86767578 12.18359375 C23.19991835 12.94904891 24.55297047 13.67980555 25.92724609 14.36694336 C25.92724609 25.25694336 25.92724609 36.14694336 25.92724609 47.36694336 C21.74037109 49.86256836 17.55349609 52.35819336 13.23974609 54.92944336 C11.9278833 55.72165283 10.61602051 56.5138623 9.2644043 57.33007812 C8.2211499 57.94165771 7.17789551 58.5532373 6.10302734 59.18334961 C5.03995361 59.81700439 3.97687988 60.45065918 2.8815918 61.10351562 C-0.49912633 62.54928178 -1.65865555 62.59069898 -5.07275391 61.36694336 C-6.93446509 60.46441964 -8.76162693 59.48864776 -10.55712891 58.46069336 C-12.08273437 57.59250977 -12.08273437 57.59250977 -13.63916016 56.70678711 C-14.68974609 56.09963867 -15.74033203 55.49249023 -16.82275391 54.86694336 C-18.42183594 53.9562207 -18.42183594 53.9562207 -20.05322266 53.02709961 C-27.90176246 48.5379348 -27.90176246 48.5379348 -29.07275391 47.36694336 C-29.16119184 44.91863909 -29.18804142 42.49873737 -29.17041016 40.05053711 C-29.16899521 39.31948257 -29.16758026 38.58842804 -29.16612244 37.83522034 C-29.16050799 35.49158704 -29.14795312 33.14804797 -29.13525391 30.80444336 C-29.13024076 29.21915828 -29.12567754 27.6338717 -29.12158203 26.04858398 C-29.11053387 22.15466726 -29.09325962 18.2608213 -29.07275391 14.36694336 C-25.4951805 12.16764669 -21.90262457 9.99606808 -18.29394531 7.84838867 C-17.06945343 7.11453557 -15.84931068 6.37337321 -14.63378906 5.62475586 C-12.88227825 4.54778437 -11.11663786 3.49835393 -9.34619141 2.45288086 C-8.28835449 1.81398926 -7.23051758 1.17509766 -6.140625 0.5168457 C-3.07275391 -0.63305664 -3.07275391 -0.63305664 0 0 Z " fill="#FBCA51" transform="translate(447.07275390625,189.633056640625)"/>
<path d="M0 0 C2.86670298 1.34477025 5.58778234 2.76118348 8.30639648 4.38452148 C9.27512695 4.96008789 10.24385742 5.5356543 11.24194336 6.12866211 C12.23645508 6.72743164 13.2309668 7.32620117 14.25561523 7.94311523 C15.77638672 8.84707031 15.77638672 8.84707031 17.32788086 9.76928711 C24.77776795 14.21526795 24.77776795 14.21526795 25.94311523 15.38061523 C26.03151194 17.75630043 26.05841829 20.10270197 26.04077148 22.47827148 C26.03935654 23.18712997 26.03794159 23.89598846 26.03648376 24.62632751 C26.03086966 26.89863236 26.01831486 29.17083999 26.00561523 31.44311523 C26.00060205 32.98022319 25.99603883 34.51733268 25.99194336 36.05444336 C25.98089566 39.82987165 25.96362165 43.60522694 25.94311523 47.38061523 C25.2620874 47.7639502 24.58105957 48.14728516 23.87939453 48.54223633 C20.79578591 50.27882117 17.71319051 52.01719682 14.63061523 53.75561523 C13.55875977 54.35889648 12.4869043 54.96217773 11.38256836 55.58374023 C10.35454102 56.16381836 9.32651367 56.74389648 8.26733398 57.34155273 C7.31947021 57.87570801 6.37160645 58.40986328 5.39501953 58.96020508 C3.53867451 60.0356024 1.72814844 61.1905931 -0.05688477 62.38061523 C-4.09367583 62.04771868 -7.06214277 60.46621692 -10.54125977 58.47436523 C-12.06686523 57.60618164 -12.06686523 57.60618164 -13.62329102 56.72045898 C-14.67387695 56.11331055 -15.72446289 55.50616211 -16.80688477 54.88061523 C-18.4059668 53.96989258 -18.4059668 53.96989258 -20.03735352 53.04077148 C-27.88589332 48.55160668 -27.88589332 48.55160668 -29.05688477 47.38061523 C-29.1453227 44.93231097 -29.17217228 42.51240925 -29.15454102 40.06420898 C-29.15312607 39.33315445 -29.15171112 38.60209991 -29.1502533 37.84889221 C-29.14463885 35.50525891 -29.13208398 33.16171984 -29.11938477 30.81811523 C-29.11437162 29.23283015 -29.10980839 27.64754358 -29.10571289 26.06225586 C-29.09466473 22.16833913 -29.07739048 18.27449318 -29.05688477 14.38061523 C-25.47931136 12.18131856 -21.88675543 10.00973995 -18.27807617 7.86206055 C-17.05358429 7.12820744 -15.83344154 6.38704509 -14.61791992 5.63842773 C-12.86640911 4.56145624 -11.10076872 3.51202581 -9.33032227 2.46655273 C-8.27248535 1.82766113 -7.21464844 1.18876953 -6.12475586 0.53051758 C-3.05688477 -0.61938477 -3.05688477 -0.61938477 0 0 Z " fill="#FB7CA0" transform="translate(201.056884765625,181.619384765625)"/>
<path d="M0 0 C1.96646484 0.01353516 1.96646484 0.01353516 3.97265625 0.02734375 C4.95105469 0.03894531 5.92945313 0.05054688 6.9375 0.0625 C7.55364798 4.83764683 7.9648453 9.43011728 7.95117188 14.24658203 C7.949198 15.14813019 7.94722412 16.04967834 7.94519043 16.97854614 C7.94265259 17.66625092 7.94011475 18.35395569 7.9375 19.0625 C-5.47901623 20.49695871 -18.89348832 21.62065848 -32.35791016 22.49511719 C-35.35220948 22.69008561 -38.34602134 22.8916026 -41.33984375 23.09375 C-43.27341224 23.22173643 -45.20700515 23.34935448 -47.140625 23.4765625 C-48.0209137 23.53590973 -48.90120239 23.59525696 -49.8081665 23.65640259 C-54.90554465 23.98334974 -59.95458895 24.11784431 -65.0625 24.0625 C-65.23471435 22.41723791 -65.39990831 20.77124089 -65.5625 19.125 C-65.6553125 18.20847656 -65.748125 17.29195313 -65.84375 16.34765625 C-66.02252916 13.66277643 -66.08472782 11.04481398 -66.07617188 8.35717773 C-66.074198 7.55150864 -66.07222412 6.74583954 -66.07019043 5.91575623 C-66.06765259 5.30418167 -66.06511475 4.69260712 -66.0625 4.0625 C-65.17166466 4.00945457 -65.17166466 4.00945457 -64.26283264 3.95533752 C-58.04899645 3.58487667 -51.8353597 3.21119567 -45.62182617 2.83569336 C-43.30677106 2.69620494 -40.99166729 2.55752157 -38.67651367 2.41967773 C-35.33759473 2.22073591 -31.99886486 2.0188437 -28.66015625 1.81640625 C-27.63479263 1.7559462 -26.60942902 1.69548615 -25.55299377 1.63319397 C-20.35614373 1.31519925 -15.19717545 0.90700308 -10.02978516 0.26428223 C-6.6787418 -0.07943052 -3.36831285 -0.03034516 0 0 Z " fill="#90AFF1" transform="translate(341.0625,264.9375)"/>
<path d="M0 0 C0.33 0 0.66 0 1 0 C1.07476562 0.69480469 1.14953125 1.38960938 1.2265625 2.10546875 C2.308346 10.47338233 4.37946583 18.32605913 6.79150391 26.39916992 C8.43200233 31.89987855 9.81725212 37.38194757 11 43 C4.76843271 47.15437819 -3.19891561 46.1237242 -10.4375 46.0625 C-11.45521484 46.05798828 -12.47292969 46.05347656 -13.52148438 46.04882812 C-16.01438509 46.03712437 -18.50716074 46.02072848 -21 46 C-20.42184008 42.59167224 -19.57576029 39.76711052 -18.05053711 36.66870117 C-17.6501976 35.848228 -17.24985809 35.02775482 -16.83738708 34.18241882 C-16.40507278 33.3114003 -15.97275848 32.44038177 -15.52734375 31.54296875 C-15.0848378 30.64000565 -14.64233185 29.73704254 -14.18641663 28.80671692 C-12.77555669 25.93093127 -11.35665304 23.05920074 -9.9375 20.1875 C-8.97798214 18.23528816 -8.01899155 16.28281707 -7.06054688 14.33007812 C-4.7131353 9.55036321 -2.35911182 4.77394994 0 0 Z " fill="#CFDAFB" transform="translate(285,394)"/>
<path d="M0 0 C4.81522974 1.67774737 8.94666344 4.25565446 13.25 6.9375 C13.9821875 7.38029297 14.714375 7.82308594 15.46875 8.27929688 C16.16484375 8.71177734 16.8609375 9.14425781 17.578125 9.58984375 C18.21137695 9.98034912 18.84462891 10.37085449 19.49707031 10.77319336 C21 12 21 12 22 15 C20.81771289 17.64482006 19.5890133 20.10180177 18.1875 22.625 C17.63352539 23.66527344 17.63352539 23.66527344 17.06835938 24.7265625 C14.27457453 29.86271273 14.27457453 29.86271273 12 31 C9.98461914 30.04370117 9.98461914 30.04370117 7.53515625 28.54296875 C6.65279297 28.00736328 5.77042969 27.47175781 4.86132812 26.91992188 C3.93771484 26.34822266 3.01410156 25.77652344 2.0625 25.1875 C0.68288086 24.34735352 0.68288086 24.34735352 -0.72460938 23.49023438 C-4.18700694 21.3764293 -7.62439192 19.25040539 -11 17 C-11 16.34 -11 15.68 -11 15 C-9.3203125 13.81640625 -9.3203125 13.81640625 -7.125 12.5625 C-4.08869645 10.82669206 -3.00897332 10.01345998 -1 7 C-0.60612212 4.67612053 -0.26513915 2.34206251 0 0 Z " fill="#6865F5" transform="translate(244,374)"/>
<path d="M0 0 C3.87949018 3.20479623 5.80826445 5.30633597 6.375 10.3125 C5.90786625 14.90598187 4.47959782 16.11447985 1 19 C0.67 19.33 0.34 19.66 0 20 C-7.07616708 20.58968059 -7.07616708 20.58968059 -10.9375 18.125 C-14.09606699 14.87071886 -14.33855508 12.57588248 -14.2890625 8.0390625 C-13.83478357 4.83455438 -12.30444019 3.17275789 -10 1 C-6.36217368 -0.21260877 -3.82264001 -0.39544552 0 0 Z " fill="#6965F6" transform="translate(283,462)"/>
<path d="M0 0 C3.43203219 0.8517906 5.0647359 2.79004399 7.15625 5.53515625 C8.60772903 8.4381143 8.52864025 10.30777404 8.15625 13.53515625 C6.34314858 16.46453279 4.28329101 18.97163574 1.15625 20.53515625 C-3.24309481 21.04277296 -5.38600386 20.79315862 -9.28125 18.59765625 C-12.26680939 15.02954868 -12.69997958 13.29114075 -12.3515625 8.76171875 C-10.82874586 2.08475348 -6.67803592 -0.43407233 0 0 Z " fill="#6A66F7" transform="translate(339.84375,480.46484375)"/>
<path d="M0 0 C2.50826863 3.54108513 2.87481158 5.58302217 2.59765625 9.83984375 C2.125 12 2.125 12 0.1875 15.0625 C-3.38083672 17.32001915 -5.56267688 17.71863669 -9.71875 17.50390625 C-13.1372854 16.70500939 -14.77240451 14.69395048 -16.875 12 C-17.205 11.67 -17.535 11.34 -17.875 11 C-18.37720394 6.73126647 -18.28777145 3.99838837 -15.625 0.625 C-10.61327253 -4.15892168 -5.74458779 -3.99623499 0 0 Z " fill="#6A67F7" transform="translate(377.875,455)"/>
<path d="M0 0 C0.07476562 0.80824219 0.14953125 1.61648438 0.2265625 2.44921875 C0.78020737 8.53889457 0.78020737 8.53889457 3.46875 13.83984375 C4.92360385 14.96872799 6.45757259 15.99406908 8 17 C8 17.66 8 18.32 8 19 C6.56705502 19.84114171 5.12845595 20.67265687 3.6875 21.5 C2.48673828 22.19609375 2.48673828 22.19609375 1.26171875 22.90625 C-1 24 -1 24 -4 24 C-5.24267578 22.65478516 -5.24267578 22.65478516 -6.4453125 20.7890625 C-6.88230469 20.12132812 -7.31929688 19.45359375 -7.76953125 18.765625 C-8.21683594 18.05921875 -8.66414063 17.3528125 -9.125 16.625 C-9.58003906 15.92632812 -10.03507812 15.22765625 -10.50390625 14.5078125 C-13.75218141 9.49563718 -13.75218141 9.49563718 -15 7 C-12.87767021 5.82823482 -10.75242209 4.66245215 -8.625 3.5 C-7.72007812 2.99919922 -7.72007812 2.99919922 -6.796875 2.48828125 C-2.2265625 0 -2.2265625 0 0 0 Z " fill="#6864F4" transform="translate(391,378)"/>
<path d="M0 0 C2.31 0 4.62 0 7 0 C5.15962441 5.65258216 5.15962441 5.65258216 3.9375 8.3125 C2.60393995 12.13537214 2.33269967 15.98133816 2 20 C1.67 20 1.34 20 1 20 C0.67 13.4 0.34 6.8 0 0 Z " fill="#C1CDEF" transform="translate(292,308)"/>
</svg>
