<?xml version="1.0" encoding="UTF-8"?>
<svg version="1.1" xmlns="http://www.w3.org/2000/svg" width="640" height="640">
<path d="M0 0 C211.2 0 422.4 0 640 0 C640 211.2 640 422.4 640 640 C428.8 640 217.6 640 0 640 C0 428.8 0 217.6 0 0 Z " fill="#FEFEFE" transform="translate(0,0)"/>
<path d="M0 0 C2.76487087 1.15279755 5.29893433 2.60190771 7.875 4.125 C8.63441895 4.56150879 9.39383789 4.99801758 10.17626953 5.44775391 C11.85781273 6.4171141 13.53586505 7.39254752 15.2109375 8.37304688 C18.2546483 10.14854484 21.31387152 11.89534132 24.375 13.640625 C26.54222053 14.88445212 28.70889286 16.12923493 30.875 17.375 C32.43516846 18.26662842 32.43516846 18.26662842 34.02685547 19.17626953 C35.00541504 19.74458496 35.98397461 20.31290039 36.9921875 20.8984375 C37.86214355 21.40036621 38.73209961 21.90229492 39.62841797 22.41943359 C45.68610703 26.45664576 45.68610703 26.45664576 46.50793457 30.49742126 C46.51111694 31.43276199 46.51429932 32.36810272 46.51757812 33.33178711 C46.53018677 34.39646713 46.54279541 35.46114716 46.55578613 36.55809021 C46.54364075 38.27537071 46.54364075 38.27537071 46.53125 40.02734375 C46.5350769 41.20841202 46.53890381 42.38948029 46.54284668 43.6063385 C46.54556829 46.10369723 46.53818983 48.60108434 46.52148438 51.09838867 C46.5000993 54.91975584 46.52126995 58.73923865 46.546875 62.56054688 C46.5442314 64.98698332 46.53910575 67.41341859 46.53125 69.83984375 C46.53934692 70.98267319 46.54744385 72.12550262 46.55578613 73.30296326 C46.46248382 81.20478202 46.46248382 81.20478202 44.16992188 85.14672852 C41.62650658 87.31899061 39.06347908 88.67713403 36 90 C37.52444501 94.58199664 40.11641262 98.13124403 43 101.9375 C43.98649395 103.25980764 44.97215011 104.58274067 45.95703125 105.90625 C46.71040771 106.91558594 46.71040771 106.91558594 47.47900391 107.9453125 C49.92291595 111.24675131 52.30676618 114.59035112 54.6875 117.9375 C55.3381543 118.8510022 55.3381543 118.8510022 56.00195312 119.78295898 C57.00216368 121.18802638 58.00122327 122.59391302 59 124 C64.07734151 123.12289234 68.23769242 120.06966493 72.61328125 117.49609375 C76.64951087 115.71307651 78.62362622 115.32986777 83 116 C86.73796631 117.62778085 90.19069332 119.66125412 93.6875 121.75 C94.6868457 122.33402588 95.68619141 122.91805176 96.71582031 123.51977539 C98.78814908 124.73408676 100.85665279 125.95494822 102.92138672 127.18212891 C105.87939285 128.92878344 108.85836968 130.6317961 111.84765625 132.32421875 C113.64907042 133.36088012 115.44988057 134.398592 117.25 135.4375 C118.08877686 135.90833008 118.92755371 136.37916016 119.79174805 136.86425781 C120.56687744 137.32026367 121.34200684 137.77626953 122.140625 138.24609375 C122.81641602 138.63466553 123.49220703 139.0232373 124.18847656 139.42358398 C127.36863544 142.19100795 128.79047743 145.15107054 129.26681519 149.35450745 C129.38039342 152.21126115 129.38952462 155.05126486 129.36328125 157.91015625 C129.36377975 158.95521835 129.36427826 160.00028046 129.36479187 161.07701111 C129.36245747 163.27995715 129.35276648 165.48290617 129.33618164 167.68579102 C129.31255651 171.05444205 129.31562995 174.42230257 129.32226562 177.79101562 C129.31668945 179.93490054 129.30957995 182.07878214 129.30078125 184.22265625 C129.30169266 185.2279689 129.30260406 186.23328156 129.30354309 187.26905823 C129.29401108 188.21031052 129.28447906 189.15156281 129.2746582 190.12133789 C129.27005081 190.94485245 129.26544342 191.768367 129.26069641 192.61683655 C128.8181816 196.6620979 127.74612799 199.30435329 124.76635742 202.08251953 C121.82984335 204.11794284 118.85031757 205.92379999 115.73828125 207.6796875 C115.14758347 208.01493439 114.55688568 208.35018127 113.94828796 208.69558716 C112.07200064 209.75953422 110.19245113 210.81754261 108.3125 211.875 C105.84918947 213.26634109 103.38737634 214.66031429 100.92578125 216.0546875 C100.33044586 216.39092636 99.73511047 216.72716522 99.12173462 217.07359314 C94.70000268 219.57867573 90.34617009 222.18107083 86.02612305 224.85717773 C82.8289776 226.660508 80.67779697 227.19702484 77 227 C73.50794633 225.59083549 70.25299705 223.89158179 67 222 C66.73719238 222.83950195 66.47438477 223.67900391 66.20361328 224.54394531 C64.9186917 228.23346863 63.37787631 231.75450622 61.7421875 235.296875 C61.11065497 236.68097949 60.47914521 238.06509438 59.84765625 239.44921875 C58.85670674 241.61133529 57.86449467 243.77286635 56.87158203 245.93408203 C55.90867519 248.03277372 54.95025422 250.13347041 53.9921875 252.234375 C53.6922287 252.88331726 53.3922699 253.53225952 53.08322144 254.2008667 C51.51144593 257.46717062 51.51144593 257.46717062 51 261 C51.95261719 261.50789063 52.90523438 262.01578125 53.88671875 262.5390625 C55.15400376 263.23372243 56.42091094 263.92907194 57.6875 264.625 C58.31333984 264.95628906 58.93917969 265.28757812 59.58398438 265.62890625 C60.19951172 265.97050781 60.81503906 266.31210937 61.44921875 266.6640625 C62.00955811 266.96779785 62.56989746 267.2715332 63.1472168 267.58447266 C66.88304036 270.43864383 69.57690269 272.76794794 70.46739197 277.46572876 C70.66177613 280.49854456 70.69292201 283.49230001 70.6640625 286.53125 C70.66884613 287.64052856 70.67362976 288.74980713 70.67855835 289.8927002 C70.68195338 292.23268048 70.67277895 294.57270845 70.65185547 296.91259766 C70.62508696 300.48838351 70.65161965 304.0610302 70.68359375 307.63671875 C70.68028959 309.91406941 70.67388322 312.19141812 70.6640625 314.46875 C70.67418365 315.53452271 70.68430481 316.60029541 70.69473267 317.69836426 C70.56454524 325.96880114 70.56454524 325.96880114 67.80932617 329.4987793 C65.09190408 331.91817526 62.55516522 333.77176667 59.38671875 335.55078125 C58.31067383 336.16300537 57.23462891 336.77522949 56.12597656 337.40600586 C54.42393066 338.34972046 54.42393066 338.34972046 52.6875 339.3125 C51.51348164 339.97247204 50.33998156 340.63336686 49.16699219 341.29516602 C46.84848627 342.60165247 44.52666393 343.90152382 42.20263672 345.19824219 C39.42812814 346.7591412 36.67919229 348.35246168 33.94140625 349.9765625 C32.8582312 350.6121106 32.8582312 350.6121106 31.75317383 351.26049805 C30.4626371 352.01877685 29.1768753 352.78527167 27.8972168 353.56176758 C24.0396436 355.79050274 21.41658415 356.78289083 17 356 C13.56002176 354.4020674 10.35631063 352.48063769 7.125 350.5 C6.24585938 349.97535156 5.36671875 349.45070313 4.4609375 348.91015625 C2.29999362 347.61828763 0.14704086 346.31480027 -2 345 C5.42638619 356.13957929 13.75729395 366.7349389 21.875 377.375 C22.53653076 378.2424585 23.19806152 379.10991699 23.87963867 380.00366211 C27.32423765 384.5142782 30.78195987 389.01430671 34.25390625 393.50390625 C60.79954016 427.91058803 60.79954016 427.91058803 58.78515625 450.3984375 C56.60597683 463.57145466 48.55133391 474.5812636 37.95703125 482.18359375 C26.22116422 489.55946916 12.53116946 490.12562737 -0.92041016 491.47851562 C-6.64381514 492.0576486 -12.35875656 492.70707621 -18.07421875 493.359375 C-19.14475998 493.48149353 -20.21530121 493.60361206 -21.31828308 493.72943115 C-23.5398422 493.9828524 -25.76139463 494.23633235 -27.98294067 494.48986816 C-31.38263644 494.87586704 -34.78288226 495.2566049 -38.18334961 495.63574219 C-49.79461691 496.93290376 -61.39813071 498.27520805 -72.9921875 499.71875 C-74.1155954 499.85838165 -75.2390033 499.99801331 -76.39645386 500.14187622 C-81.75808151 500.80997218 -87.11861512 501.48575286 -92.47802734 502.17138672 C-94.4072109 502.41386163 -96.33640931 502.65621837 -98.265625 502.8984375 C-99.12268036 503.01062622 -99.97973572 503.12281494 -100.86276245 503.23840332 C-116.23709041 505.15215514 -129.00471028 503.57405476 -141.99609375 494.625 C-151.08541682 487.49929461 -157.24899407 476.36501959 -159 465 C-159.14394705 462.42279409 -159.23034571 459.88966938 -159.25 457.3125 C-159.270625 456.65572266 -159.29125 455.99894531 -159.3125 455.32226562 C-159.40776504 442.99735122 -152.9429315 431.6368363 -148.0625 420.625 C-146.91492197 418.01768403 -145.76949636 415.40942904 -144.62411499 412.80114746 C-143.8570619 411.05484176 -143.08934227 409.30882869 -142.32095337 407.56311035 C-138.83640052 399.64422477 -135.40591806 391.70297509 -132 383.75 C-131.50250244 382.59193848 -131.00500488 381.43387695 -130.49243164 380.24072266 C-129.81555298 378.65976807 -129.81555298 378.65976807 -129.125 377.046875 C-128.54105469 375.68320801 -128.54105469 375.68320801 -127.9453125 374.29199219 C-127.22872477 372.55456305 -126.59431961 370.78295883 -126 369 C-126.72058594 368.72687988 -127.44117188 368.45375977 -128.18359375 368.17236328 C-130.94246598 367.02394923 -133.46248132 365.7122961 -136.0625 364.2421875 C-137.01850098 363.70279541 -137.97450195 363.16340332 -138.95947266 362.60766602 C-140.46453369 361.74999634 -140.46453369 361.74999634 -142 360.875 C-143.02786621 360.28968506 -144.05573242 359.70437012 -145.11474609 359.10131836 C-148.079982 357.40686444 -151.04077219 355.70491993 -154 354 C-154.74668945 353.57251465 -155.49337891 353.1450293 -156.26269531 352.70458984 C-158.05820164 351.67112462 -159.84224482 350.6178091 -161.625 349.5625 C-162.56601563 349.00691406 -163.50703125 348.45132812 -164.4765625 347.87890625 C-168.46209917 344.91134721 -171.54524033 342.49720584 -172.45767212 337.48680115 C-172.62842063 334.38523359 -172.64043488 331.32080777 -172.59375 328.21484375 C-172.59379028 327.08099747 -172.59383057 325.94715118 -172.59387207 324.77894592 C-172.58852207 322.38764894 -172.5709619 319.99635209 -172.54199219 317.60522461 C-172.50010369 313.9465562 -172.50092892 310.28972741 -172.5078125 306.63085938 C-172.4973208 304.30467472 -172.48438281 301.97849954 -172.46875 299.65234375 C-172.46844788 298.0131321 -172.46844788 298.0131321 -172.46813965 296.34080505 C-172.32084513 286.88640834 -172.32084513 286.88640834 -169 283 C-166.95703125 281.41796875 -166.95703125 281.41796875 -164.8125 280.1875 C-164.09707031 279.76855469 -163.38164062 279.34960938 -162.64453125 278.91796875 C-162.10183594 278.61503906 -161.55914062 278.31210937 -161 278 C-162.25521297 274.58315544 -163.6789001 271.78918169 -165.828125 268.85546875 C-166.65763672 267.71561523 -166.65763672 267.71561523 -167.50390625 266.55273438 C-168.08011719 265.77220703 -168.65632813 264.99167969 -169.25 264.1875 C-170.09111328 263.03411133 -170.09111328 263.03411133 -170.94921875 261.85742188 C-174.59125187 256.87380843 -178.28556343 251.92980966 -182 247 C-187.10877683 248.11571779 -191.15857219 250.93400891 -195.61328125 253.6015625 C-199.90522409 255.37378342 -201.52821131 255.30179753 -206 254 C-210.08020029 252.05889326 -213.97046705 249.83294092 -217.875 247.5625 C-218.97674561 246.93085938 -220.07849121 246.29921875 -221.21362305 245.6484375 C-223.43568951 244.37212058 -225.65505222 243.09108397 -227.87158203 241.80517578 C-230.6597223 240.19634878 -233.46252261 238.62008046 -236.27734375 237.05859375 C-237.7894448 236.20640715 -239.30119255 235.3535932 -240.8125 234.5 C-241.49231934 234.12818604 -242.17213867 233.75637207 -242.87255859 233.37329102 C-247.05063146 230.9680761 -250.16826851 228.50011824 -252 224 C-252.58447661 219.9970118 -252.56064777 216.03585588 -252.53125 211.99609375 C-252.5350769 210.84005142 -252.53890381 209.68400909 -252.54284668 208.49293518 C-252.54556306 206.05460741 -252.53822124 203.61625036 -252.52148438 201.17797852 C-252.50005323 197.44676815 -252.52130738 193.71747916 -252.546875 189.98632812 C-252.54423206 187.61457909 -252.53910778 185.24283124 -252.53125 182.87109375 C-252.53934692 181.7564122 -252.54744385 180.64173065 -252.55578613 179.49327087 C-252.46297824 171.82820624 -252.46297824 171.82820624 -250.30712891 167.97167969 C-247.82347786 165.84914362 -245.40104558 164.18938923 -242.5546875 162.58203125 C-241.48581299 161.97166016 -240.41693848 161.36128906 -239.31567383 160.73242188 C-237.61254028 159.78206055 -237.61254028 159.78206055 -235.875 158.8125 C-234.70106896 158.15100615 -233.52748725 157.488892 -232.35424805 156.82617188 C-230.58713305 155.82909869 -228.81922266 154.83360673 -227.04844666 153.8430481 C-223.51159136 151.86368002 -220.00904396 149.83638135 -216.52734375 147.76171875 C-215.31812256 147.05341919 -215.31812256 147.05341919 -214.08447266 146.33081055 C-212.61393521 145.46944158 -211.1507428 144.59535525 -209.69677734 143.70629883 C-205.09547053 141.06125313 -202.32818683 140.61364923 -197 142 C-194.54758493 142.83477268 -192.35287 143.89559163 -190 145 C-189.43345703 143.15341797 -189.43345703 143.15341797 -188.85546875 141.26953125 C-186.45324715 134.05721748 -183.03370385 127.29269496 -179.76367188 120.44335938 C-179.28091797 119.41404297 -178.79816406 118.38472656 -178.30078125 117.32421875 C-177.85903564 116.39697998 -177.41729004 115.46974121 -176.9621582 114.5144043 C-175.76174237 111.8260634 -175.76174237 111.8260634 -176 108 C-178.42446623 106.33299308 -180.72948637 104.93583783 -183.3125 103.5625 C-184.68994306 102.82554867 -186.0612998 102.07708818 -187.42578125 101.31640625 C-188.03848877 100.99099854 -188.65119629 100.66559082 -189.2824707 100.33032227 C-191.81135449 98.37156068 -192.72691803 96.99265895 -194 94 C-194.46261441 90.18974928 -194.46802876 86.40125669 -194.46875 82.56640625 C-194.48017029 80.90036598 -194.48017029 80.90036598 -194.49182129 79.20066833 C-194.50261342 76.85474899 -194.50547902 74.50878164 -194.50097656 72.1628418 C-194.50000433 68.5784476 -194.54163788 64.9961946 -194.5859375 61.41210938 C-194.59114473 59.13021279 -194.59383269 56.84830878 -194.59375 54.56640625 C-194.6183429 52.96304161 -194.6183429 52.96304161 -194.64343262 51.32728577 C-194.56654135 43.02731405 -194.56654135 43.02731405 -191.69116211 39.421875 C-189.58497538 37.5264407 -187.84045889 35.97594299 -185.34765625 34.68359375 C-184.66437256 34.3179834 -183.98108887 33.95237305 -183.27709961 33.57568359 C-182.54628174 33.20008301 -181.81546387 32.82448242 -181.0625 32.4375 C-175.68845966 29.5921891 -170.40736358 26.6777114 -165.2421875 23.46484375 C-164.27659912 22.86937744 -163.31101074 22.27391113 -162.31616211 21.66040039 C-160.43510677 20.49373448 -158.56300478 19.31247336 -156.70141602 18.11499023 C-152.04326864 15.25469411 -148.00405055 12.94816368 -142.4230957 13.36425781 C-136.91183496 14.81023494 -132.18626022 17.97721024 -127.375 20.9375 C-126.21957767 21.63104722 -125.06315681 22.32293356 -123.90576172 23.01318359 C-121.63072717 24.37351849 -119.36389046 25.74511943 -117.09960938 27.12353516 C-114.45397179 28.72517114 -111.79342985 30.28826665 -109.109375 31.82421875 C-97.94662555 38.26989057 -97.94662555 38.26989057 -95 43 C-94.609375 45.89453125 -94.609375 45.89453125 -94.75 48.8125 C-94.78609375 49.78832031 -94.8221875 50.76414063 -94.859375 51.76953125 C-94.90578125 52.50558594 -94.9521875 53.24164063 -95 54 C-94.08863281 53.87882812 -93.17726563 53.75765625 -92.23828125 53.6328125 C-84.12835356 52.58376713 -76.01474116 51.6621869 -67.875 50.875 C-66.98723877 50.78750488 -66.09947754 50.70000977 -65.18481445 50.60986328 C-60.77113945 50.19271077 -56.43968431 49.89810561 -52 50 C-52.03665771 49.36497559 -52.07331543 48.72995117 -52.11108398 48.07568359 C-52.25731315 45.17595653 -52.3478416 42.27700465 -52.4375 39.375 C-52.52547852 37.87646484 -52.52547852 37.87646484 -52.61523438 36.34765625 C-52.78246903 29.13267521 -52.78246903 29.13267521 -50.69628906 26.11279297 C-48.88792138 24.49534856 -47.08157012 23.2445169 -45 22 C-44.36473389 21.60570801 -43.72946777 21.21141602 -43.07495117 20.80517578 C-41.03658825 19.6008157 -38.96793755 18.48161606 -36.875 17.375 C-35.2932398 16.52274413 -33.71255704 15.66848633 -32.1328125 14.8125 C-31.30426758 14.36390625 -30.47572266 13.9153125 -29.62207031 13.453125 C-26.84065923 11.91169495 -24.10261255 10.30904871 -21.3671875 8.6875 C-20.43148926 8.13658691 -19.49579102 7.58567383 -18.53173828 7.01806641 C-16.70920493 5.94156566 -14.89221112 4.85561786 -13.08154297 3.75927734 C-4.93482272 -1.01638625 -4.93482272 -1.01638625 0 0 Z " fill="#072C76" transform="translate(382,103)"/>
<path d="M0 0 C2.76487087 1.15279755 5.29893433 2.60190771 7.875 4.125 C8.63441895 4.56150879 9.39383789 4.99801758 10.17626953 5.44775391 C11.85781273 6.4171141 13.53586505 7.39254752 15.2109375 8.37304688 C18.2546483 10.14854484 21.31387152 11.89534132 24.375 13.640625 C26.54222053 14.88445212 28.70889286 16.12923493 30.875 17.375 C32.43516846 18.26662842 32.43516846 18.26662842 34.02685547 19.17626953 C35.00541504 19.74458496 35.98397461 20.31290039 36.9921875 20.8984375 C37.86214355 21.40036621 38.73209961 21.90229492 39.62841797 22.41943359 C45.68610703 26.45664576 45.68610703 26.45664576 46.50793457 30.49742126 C46.51111694 31.43276199 46.51429932 32.36810272 46.51757812 33.33178711 C46.53018677 34.39646713 46.54279541 35.46114716 46.55578613 36.55809021 C46.54364075 38.27537071 46.54364075 38.27537071 46.53125 40.02734375 C46.5350769 41.20841202 46.53890381 42.38948029 46.54284668 43.6063385 C46.54556829 46.10369723 46.53818983 48.60108434 46.52148438 51.09838867 C46.5000993 54.91975584 46.52126995 58.73923865 46.546875 62.56054688 C46.5442314 64.98698332 46.53910575 67.41341859 46.53125 69.83984375 C46.53934692 70.98267319 46.54744385 72.12550262 46.55578613 73.30296326 C46.46248382 81.20478202 46.46248382 81.20478202 44.16992188 85.14672852 C41.62650658 87.31899061 39.06347908 88.67713403 36 90 C37.52444501 94.58199664 40.11641262 98.13124403 43 101.9375 C43.98649395 103.25980764 44.97215011 104.58274067 45.95703125 105.90625 C46.71040771 106.91558594 46.71040771 106.91558594 47.47900391 107.9453125 C49.92291595 111.24675131 52.30676618 114.59035112 54.6875 117.9375 C55.3381543 118.8510022 55.3381543 118.8510022 56.00195312 119.78295898 C57.00216368 121.18802638 58.00122327 122.59391302 59 124 C64.07734151 123.12289234 68.23769242 120.06966493 72.61328125 117.49609375 C76.64951087 115.71307651 78.62362622 115.32986777 83 116 C86.73796631 117.62778085 90.19069332 119.66125412 93.6875 121.75 C94.6868457 122.33402588 95.68619141 122.91805176 96.71582031 123.51977539 C98.78814908 124.73408676 100.85665279 125.95494822 102.92138672 127.18212891 C105.87939285 128.92878344 108.85836968 130.6317961 111.84765625 132.32421875 C113.64907042 133.36088012 115.44988057 134.398592 117.25 135.4375 C118.08877686 135.90833008 118.92755371 136.37916016 119.79174805 136.86425781 C120.56687744 137.32026367 121.34200684 137.77626953 122.140625 138.24609375 C122.81641602 138.63466553 123.49220703 139.0232373 124.18847656 139.42358398 C127.36863544 142.19100795 128.79047743 145.15107054 129.26681519 149.35450745 C129.38039342 152.21126115 129.38952462 155.05126486 129.36328125 157.91015625 C129.36377975 158.95521835 129.36427826 160.00028046 129.36479187 161.07701111 C129.36245747 163.27995715 129.35276648 165.48290617 129.33618164 167.68579102 C129.31255651 171.05444205 129.31562995 174.42230257 129.32226562 177.79101562 C129.31668945 179.93490054 129.30957995 182.07878214 129.30078125 184.22265625 C129.30169266 185.2279689 129.30260406 186.23328156 129.30354309 187.26905823 C129.29401108 188.21031052 129.28447906 189.15156281 129.2746582 190.12133789 C129.27005081 190.94485245 129.26544342 191.768367 129.26069641 192.61683655 C128.8181816 196.6620979 127.74612799 199.30435329 124.76635742 202.08251953 C121.82984335 204.11794284 118.85031757 205.92379999 115.73828125 207.6796875 C115.14758347 208.01493439 114.55688568 208.35018127 113.94828796 208.69558716 C112.07200064 209.75953422 110.19245113 210.81754261 108.3125 211.875 C105.84918947 213.26634109 103.38737634 214.66031429 100.92578125 216.0546875 C100.33044586 216.39092636 99.73511047 216.72716522 99.12173462 217.07359314 C94.70000268 219.57867573 90.34617009 222.18107083 86.02612305 224.85717773 C82.8289776 226.660508 80.67779697 227.19702484 77 227 C73.50794633 225.59083549 70.25299705 223.89158179 67 222 C66.73501709 222.83877686 66.47003418 223.67755371 66.19702148 224.54174805 C64.92216291 228.22487505 63.43042593 231.77433934 61.84765625 235.33203125 C61.54685654 236.00924728 61.24605682 236.68646332 60.93614197 237.38420105 C60.30328168 238.80433606 59.66869784 240.22370414 59.0324707 241.64233398 C58.05948576 243.81924391 57.1010985 246.00223685 56.14257812 248.18554688 C55.5243306 249.56810805 54.90522033 250.95028383 54.28515625 252.33203125 C54.0006813 252.9861348 53.71620636 253.64023834 53.42311096 254.31416321 C52.69473022 255.91463837 51.85514531 257.46351514 51 259 C48 260 48 260 46.19067383 259.28735352 C45.53607178 258.90506592 44.88146973 258.52277832 44.20703125 258.12890625 C43.49482422 257.71962891 42.78261719 257.31035156 42.04882812 256.88867188 C40.9418457 256.2322168 40.9418457 256.2322168 39.8125 255.5625 C39.06291016 255.12873047 38.31332031 254.69496094 37.54101562 254.24804688 C35.68872757 253.17442769 33.8436575 252.08837319 32 251 C34.55454875 242.42469321 38.36504441 234.49866165 42.1875 226.4375 C42.84876801 225.03342001 43.50957906 223.62912472 44.16992188 222.22460938 C45.77469047 218.81390118 47.38561427 215.40616599 49 212 C44.97821903 208.72881729 40.93063883 206.16502209 36.40234375 203.66015625 C33.38410268 201.5743799 31.91870884 200.18590744 30 197 C29.39681423 193.10642933 29.4396886 189.24605438 29.46875 185.3125 C29.4649231 184.17723877 29.46109619 183.04197754 29.45715332 181.87231445 C29.45443463 179.47508862 29.46179269 177.07783311 29.47851562 174.68066406 C29.49992413 171.01299858 29.47871065 167.34729211 29.453125 163.6796875 C29.45576828 161.34895401 29.46089326 159.01822174 29.46875 156.6875 C29.46065308 155.59155518 29.45255615 154.49561035 29.44421387 153.36645508 C29.53768621 145.77100607 29.53768621 145.77100607 31.86914062 141.8828125 C37.39522822 137 37.39522822 137 41 137 C37.95382434 131.4042272 34.45801356 126.31748743 30.6875 121.1875 C29.53070469 119.6006578 28.37445091 118.01342068 27.21875 116.42578125 C26.66574219 115.6673291 26.11273438 114.90887695 25.54296875 114.12744141 C22.6394093 110.12402099 19.81127324 106.06867909 17 102 C9.99533999 105.41934731 9.99533999 105.41934731 3.25 109.3125 C-0.34985703 111.18165653 -2.0144325 111.32977954 -6 111 C-8.47509766 109.99707031 -8.47509766 109.99707031 -10.9140625 108.578125 C-11.8309082 108.05275146 -12.74775391 107.52737793 -13.69238281 106.98608398 C-14.66014648 106.41317627 -15.62791016 105.84026855 -16.625 105.25 C-17.62885742 104.66742432 -18.63271484 104.08484863 -19.66699219 103.48461914 C-21.75012494 102.27164126 -23.82952792 101.05223675 -25.90527344 99.82666016 C-28.87898929 98.07142649 -31.86391168 96.33684438 -34.8515625 94.60546875 C-36.65190053 93.55094409 -38.45141918 92.49501894 -40.25 91.4375 C-41.08869629 90.94991211 -41.92739258 90.46232422 -42.79150391 89.95996094 C-43.95431885 89.26628418 -43.95431885 89.26628418 -45.140625 88.55859375 C-45.81641602 88.15954834 -46.49220703 87.76050293 -47.18847656 87.34936523 C-49.36135744 85.73083254 -50.6403732 84.35374285 -52 82 C-52.29296875 79.203125 -52.29296875 79.203125 -52.1875 76.25 C-52.14689453 74.77273437 -52.14689453 74.77273437 -52.10546875 73.265625 C-52.07066406 72.51796875 -52.03585937 71.7703125 -52 71 C-52.87624023 71.09087891 -53.75248047 71.18175781 -54.65527344 71.27539062 C-57.96487224 71.61568684 -61.27493995 71.950462 -64.58544922 72.28173828 C-66.00721656 72.42510169 -67.42877604 72.57054473 -68.85009766 72.71826172 C-77.58420271 73.62434037 -86.20656276 74.22579439 -95 74 C-94.97905273 74.60996826 -94.95810547 75.21993652 -94.93652344 75.84838867 C-94.85307139 78.62792294 -94.80124989 81.4071932 -94.75 84.1875 C-94.69972656 85.62706055 -94.69972656 85.62706055 -94.6484375 87.09570312 C-94.63554687 88.02705078 -94.62265625 88.95839844 -94.609375 89.91796875 C-94.58842773 90.77156982 -94.56748047 91.6251709 -94.54589844 92.50463867 C-95.3526123 96.93766146 -97.98635271 99.29400557 -101.58691406 101.80175781 C-102.55338867 102.34670898 -103.51986328 102.89166016 -104.515625 103.453125 C-106.13428467 104.37629517 -106.13428467 104.37629517 -107.78564453 105.31811523 C-108.92888184 105.95563721 -110.07211914 106.59315918 -111.25 107.25 C-112.42991867 107.91474722 -113.60944169 108.5801972 -114.78857422 109.24633789 C-117.12010127 110.56247195 -119.45424089 111.87354285 -121.79003906 113.18212891 C-124.5490267 114.74460395 -127.27691832 116.34370494 -129.9921875 117.98046875 C-130.7047168 118.40360352 -131.41724609 118.82673828 -132.15136719 119.26269531 C-133.41744332 120.01632697 -134.67666989 120.78165829 -135.92675781 121.56152344 C-140.55754346 124.26789559 -143.78352694 124.47085812 -149 124 C-151.89371936 122.99970195 -154.35033068 121.51409675 -157 120 C-157.36738281 121.20527344 -157.73476562 122.41054687 -158.11328125 123.65234375 C-160.29031 130.18342999 -163.26367947 136.33948034 -166.1875 142.5625 C-166.75239992 143.77388029 -167.31685629 144.98546752 -167.88085938 146.19726562 C-169.24957399 149.13356791 -170.622709 152.06771332 -172 155 C-168.62849215 158.59010778 -164.49275349 160.59804438 -160.18164062 162.86328125 C-156.07126638 165.11326247 -153.37597049 166.95057794 -151 171 C-150.40066719 174.95562111 -150.43973465 178.87662982 -150.46875 182.87109375 C-150.46300964 184.60372215 -150.46300964 184.60372215 -150.45715332 186.37135315 C-150.4544342 188.8114611 -150.46179523 191.25159821 -150.47851562 193.69165039 C-150.49990392 197.4207484 -150.47872199 201.14791538 -150.453125 204.87695312 C-150.45576866 207.25000424 -150.46089441 209.62305416 -150.46875 211.99609375 C-150.46065308 213.10875107 -150.45255615 214.22140839 -150.44421387 215.36778259 C-150.51876321 221.54349926 -150.8330076 225.31567525 -155 230 C-157.63628843 232.08010944 -160.56091102 234 -164 234 C-160.92094075 239.66125319 -157.37328418 244.80862315 -153.5625 250 C-152.43865943 251.54156268 -151.31495954 253.08322793 -150.19140625 254.625 C-149.65531738 255.35847656 -149.11922852 256.09195312 -148.56689453 256.84765625 C-146.35678432 259.88354462 -144.17685371 262.94019815 -142 266 C-137.50202887 264.31326082 -133.27113698 262.18326108 -129 260 C-128.38125 260.70576172 -128.38125 260.70576172 -127.75 261.42578125 C-127.1725 262.04839844 -126.595 262.67101562 -126 263.3125 C-125.1646875 264.23482422 -125.1646875 264.23482422 -124.3125 265.17578125 C-122.09139818 266.92790042 -120.48033871 267.67041015 -117.85546875 268.61401367 C-117.13383545 268.87599045 -116.41220215 269.13796722 -115.66870117 269.40788269 C-115.11802979 269.6032814 -114.5673584 269.79868011 -114 270 C-113.13386806 276.59642325 -112.28087466 283.19445494 -111.43652344 289.79370117 C-111.14845253 292.03333971 -110.8574972 294.27260938 -110.56347656 296.51147461 C-109.73819074 302.80357724 -108.95963904 309.09702643 -108.28070068 315.40673828 C-108.05055201 317.53297376 -107.79645597 319.65660445 -107.53564453 321.77929688 C-106.81292747 332.10382633 -111.67030176 340.97223145 -115.875 350.125 C-116.63104483 351.82196548 -117.38496787 353.51987795 -118.13671875 355.21875 C-123.49486802 367.24230203 -123.49486802 367.24230203 -126 371 C-126 370.34 -126 369.68 -126 369 C-126.72058594 368.72687988 -127.44117188 368.45375977 -128.18359375 368.17236328 C-130.94246598 367.02394923 -133.46248132 365.7122961 -136.0625 364.2421875 C-137.01850098 363.70279541 -137.97450195 363.16340332 -138.95947266 362.60766602 C-140.46453369 361.74999634 -140.46453369 361.74999634 -142 360.875 C-143.02786621 360.28968506 -144.05573242 359.70437012 -145.11474609 359.10131836 C-148.079982 357.40686444 -151.04077219 355.70491993 -154 354 C-154.74668945 353.57251465 -155.49337891 353.1450293 -156.26269531 352.70458984 C-158.05820164 351.67112462 -159.84224482 350.6178091 -161.625 349.5625 C-162.56601563 349.00691406 -163.50703125 348.45132812 -164.4765625 347.87890625 C-168.46209917 344.91134721 -171.54524033 342.49720584 -172.45767212 337.48680115 C-172.62842063 334.38523359 -172.64043488 331.32080777 -172.59375 328.21484375 C-172.59379028 327.08099747 -172.59383057 325.94715118 -172.59387207 324.77894592 C-172.58852207 322.38764894 -172.5709619 319.99635209 -172.54199219 317.60522461 C-172.50010369 313.9465562 -172.50092892 310.28972741 -172.5078125 306.63085938 C-172.4973208 304.30467472 -172.48438281 301.97849954 -172.46875 299.65234375 C-172.46844788 298.0131321 -172.46844788 298.0131321 -172.46813965 296.34080505 C-172.32084513 286.88640834 -172.32084513 286.88640834 -169 283 C-166.95703125 281.41796875 -166.95703125 281.41796875 -164.8125 280.1875 C-164.09707031 279.76855469 -163.38164062 279.34960938 -162.64453125 278.91796875 C-162.10183594 278.61503906 -161.55914062 278.31210937 -161 278 C-162.25521297 274.58315544 -163.6789001 271.78918169 -165.828125 268.85546875 C-166.65763672 267.71561523 -166.65763672 267.71561523 -167.50390625 266.55273438 C-168.08011719 265.77220703 -168.65632813 264.99167969 -169.25 264.1875 C-170.09111328 263.03411133 -170.09111328 263.03411133 -170.94921875 261.85742188 C-174.59125187 256.87380843 -178.28556343 251.92980966 -182 247 C-187.10877683 248.11571779 -191.15857219 250.93400891 -195.61328125 253.6015625 C-199.90522409 255.37378342 -201.52821131 255.30179753 -206 254 C-210.08020029 252.05889326 -213.97046705 249.83294092 -217.875 247.5625 C-218.97674561 246.93085938 -220.07849121 246.29921875 -221.21362305 245.6484375 C-223.43568951 244.37212058 -225.65505222 243.09108397 -227.87158203 241.80517578 C-230.6597223 240.19634878 -233.46252261 238.62008046 -236.27734375 237.05859375 C-237.7894448 236.20640715 -239.30119255 235.3535932 -240.8125 234.5 C-241.49231934 234.12818604 -242.17213867 233.75637207 -242.87255859 233.37329102 C-247.05063146 230.9680761 -250.16826851 228.50011824 -252 224 C-252.58447661 219.9970118 -252.56064777 216.03585588 -252.53125 211.99609375 C-252.5350769 210.84005142 -252.53890381 209.68400909 -252.54284668 208.49293518 C-252.54556306 206.05460741 -252.53822124 203.61625036 -252.52148438 201.17797852 C-252.50005323 197.44676815 -252.52130738 193.71747916 -252.546875 189.98632812 C-252.54423206 187.61457909 -252.53910778 185.24283124 -252.53125 182.87109375 C-252.53934692 181.7564122 -252.54744385 180.64173065 -252.55578613 179.49327087 C-252.46297824 171.82820624 -252.46297824 171.82820624 -250.30712891 167.97167969 C-247.82347786 165.84914362 -245.40104558 164.18938923 -242.5546875 162.58203125 C-241.48581299 161.97166016 -240.41693848 161.36128906 -239.31567383 160.73242188 C-237.61254028 159.78206055 -237.61254028 159.78206055 -235.875 158.8125 C-234.70106896 158.15100615 -233.52748725 157.488892 -232.35424805 156.82617188 C-230.58713305 155.82909869 -228.81922266 154.83360673 -227.04844666 153.8430481 C-223.51159136 151.86368002 -220.00904396 149.83638135 -216.52734375 147.76171875 C-215.31812256 147.05341919 -215.31812256 147.05341919 -214.08447266 146.33081055 C-212.61393521 145.46944158 -211.1507428 144.59535525 -209.69677734 143.70629883 C-205.09547053 141.06125313 -202.32818683 140.61364923 -197 142 C-194.54758493 142.83477268 -192.35287 143.89559163 -190 145 C-189.43345703 143.15341797 -189.43345703 143.15341797 -188.85546875 141.26953125 C-186.45324715 134.05721748 -183.03370385 127.29269496 -179.76367188 120.44335938 C-179.28091797 119.41404297 -178.79816406 118.38472656 -178.30078125 117.32421875 C-177.85903564 116.39697998 -177.41729004 115.46974121 -176.9621582 114.5144043 C-175.76174237 111.8260634 -175.76174237 111.8260634 -176 108 C-178.42446623 106.33299308 -180.72948637 104.93583783 -183.3125 103.5625 C-184.68994306 102.82554867 -186.0612998 102.07708818 -187.42578125 101.31640625 C-188.03848877 100.99099854 -188.65119629 100.66559082 -189.2824707 100.33032227 C-191.81135449 98.37156068 -192.72691803 96.99265895 -194 94 C-194.46261441 90.18974928 -194.46802876 86.40125669 -194.46875 82.56640625 C-194.48017029 80.90036598 -194.48017029 80.90036598 -194.49182129 79.20066833 C-194.50261342 76.85474899 -194.50547902 74.50878164 -194.50097656 72.1628418 C-194.50000433 68.5784476 -194.54163788 64.9961946 -194.5859375 61.41210938 C-194.59114473 59.13021279 -194.59383269 56.84830878 -194.59375 54.56640625 C-194.6183429 52.96304161 -194.6183429 52.96304161 -194.64343262 51.32728577 C-194.56654135 43.02731405 -194.56654135 43.02731405 -191.69116211 39.421875 C-189.58497538 37.5264407 -187.84045889 35.97594299 -185.34765625 34.68359375 C-184.66437256 34.3179834 -183.98108887 33.95237305 -183.27709961 33.57568359 C-182.54628174 33.20008301 -181.81546387 32.82448242 -181.0625 32.4375 C-175.68845966 29.5921891 -170.40736358 26.6777114 -165.2421875 23.46484375 C-164.27659912 22.86937744 -163.31101074 22.27391113 -162.31616211 21.66040039 C-160.43510677 20.49373448 -158.56300478 19.31247336 -156.70141602 18.11499023 C-152.04326864 15.25469411 -148.00405055 12.94816368 -142.4230957 13.36425781 C-136.91183496 14.81023494 -132.18626022 17.97721024 -127.375 20.9375 C-126.21957767 21.63104722 -125.06315681 22.32293356 -123.90576172 23.01318359 C-121.63072717 24.37351849 -119.36389046 25.74511943 -117.09960938 27.12353516 C-114.45397179 28.72517114 -111.79342985 30.28826665 -109.109375 31.82421875 C-97.94662555 38.26989057 -97.94662555 38.26989057 -95 43 C-94.609375 45.89453125 -94.609375 45.89453125 -94.75 48.8125 C-94.78609375 49.78832031 -94.8221875 50.76414063 -94.859375 51.76953125 C-94.90578125 52.50558594 -94.9521875 53.24164063 -95 54 C-94.08863281 53.87882812 -93.17726563 53.75765625 -92.23828125 53.6328125 C-84.12835356 52.58376713 -76.01474116 51.6621869 -67.875 50.875 C-66.98723877 50.78750488 -66.09947754 50.70000977 -65.18481445 50.60986328 C-60.77113945 50.19271077 -56.43968431 49.89810561 -52 50 C-52.03665771 49.36497559 -52.07331543 48.72995117 -52.11108398 48.07568359 C-52.25731315 45.17595653 -52.3478416 42.27700465 -52.4375 39.375 C-52.52547852 37.87646484 -52.52547852 37.87646484 -52.61523438 36.34765625 C-52.78246903 29.13267521 -52.78246903 29.13267521 -50.69628906 26.11279297 C-48.88792138 24.49534856 -47.08157012 23.2445169 -45 22 C-44.36473389 21.60570801 -43.72946777 21.21141602 -43.07495117 20.80517578 C-41.03658825 19.6008157 -38.96793755 18.48161606 -36.875 17.375 C-35.2932398 16.52274413 -33.71255704 15.66848633 -32.1328125 14.8125 C-31.30426758 14.36390625 -30.47572266 13.9153125 -29.62207031 13.453125 C-26.84065923 11.91169495 -24.10261255 10.30904871 -21.3671875 8.6875 C-20.43148926 8.13658691 -19.49579102 7.58567383 -18.53173828 7.01806641 C-16.70920493 5.94156566 -14.89221112 4.85561786 -13.08154297 3.75927734 C-4.93482272 -1.01638625 -4.93482272 -1.01638625 0 0 Z " fill="#082C75" transform="translate(382,103)"/>
<path d="M0 0 C0.01417969 0.73605469 0.02835937 1.47210938 0.04296875 2.23046875 C0.11451172 3.69419922 0.11451172 3.69419922 0.1875 5.1875 C0.23970703 6.63189453 0.23970703 6.63189453 0.29296875 8.10546875 C1.44069003 12.80415092 4.80131735 15.20255631 8.73217773 17.81762695 C10.19312866 18.64460083 10.19312866 18.64460083 11.68359375 19.48828125 C12.76995117 20.10888428 13.85630859 20.7294873 14.97558594 21.36889648 C16.6892334 22.33098022 16.6892334 22.33098022 18.4375 23.3125 C19.61655055 23.97995056 20.79526052 24.64800311 21.97363281 25.31665039 C24.27818336 26.62382424 26.58454126 27.92759488 28.89208984 29.22949219 C31.48692213 30.70771086 34.05712864 32.21414284 36.61328125 33.7578125 C37.2462915 34.13639404 37.87930176 34.51497559 38.53149414 34.9050293 C40.11368315 35.85560144 41.68994724 36.81601703 43.265625 37.77734375 C46.60614883 39.27103512 48.36774207 39.54259655 52 39 C54.93402076 37.72725956 57.63796173 36.14816229 60.375 34.5 C61.11105469 34.07074219 61.84710938 33.64148438 62.60546875 33.19921875 C64.41044544 32.14436224 66.20618718 31.07373119 68 30 C72.26960404 33.98080084 75.51216137 38.32382864 78.8125 43.125 C79.86502504 44.64122261 80.91841258 46.15684686 81.97265625 47.671875 C82.4845752 48.40857422 82.99649414 49.14527344 83.52392578 49.90429688 C86.15143617 53.63478797 88.90734954 57.26859309 91.671875 60.8984375 C93 63 93 63 93 66 C91.06640625 67.53515625 91.06640625 67.53515625 88.5625 69.0625 C85.18407643 70.97424522 85.18407643 70.97424522 83 74 C82.88948821 75.63771719 82.84086666 77.27979827 82.82299805 78.92114258 C82.81016281 79.94593216 82.79732758 80.97072174 82.78410339 82.02656555 C82.77671646 83.13799423 82.76932953 84.24942291 82.76171875 85.39453125 C82.74961113 87.10379036 82.74961113 87.10379036 82.73725891 88.84757996 C82.72341013 91.26271031 82.71269154 93.6778603 82.70483398 96.09301758 C82.68761885 99.78699824 82.64373806 103.48008471 82.59960938 107.17382812 C82.58948294 109.51822257 82.58096669 111.86262464 82.57421875 114.20703125 C82.54795662 115.86506523 82.54795662 115.86506523 82.52116394 117.55659485 C82.50386152 123.60387446 82.50386152 123.60387446 84.79711914 129.08349609 C86.71340816 130.75066542 88.47680578 132.18918954 90.671875 133.45703125 C91.33574219 133.84697266 91.99960937 134.23691406 92.68359375 134.63867188 C93.70646484 135.2197168 93.70646484 135.2197168 94.75 135.8125 C95.44738281 136.21919922 96.14476562 136.62589844 96.86328125 137.04492188 C98.57040168 138.03879336 100.28451487 139.02063722 102 140 C96.37691647 153.20383318 90.61856159 166.26204209 84 179 C83.41992188 178.71125 82.83984375 178.4225 82.2421875 178.125 C81.46101562 177.75375 80.67984375 177.3825 79.875 177 C79.10929688 176.62875 78.34359375 176.2575 77.5546875 175.875 C73.29038166 174.41444265 70.12900696 174.50322962 65.98657227 176.32592773 C64.94041748 176.93895752 63.8942627 177.5519873 62.81640625 178.18359375 C62.24328705 178.51471161 61.67016785 178.84582947 61.0796814 179.1869812 C59.23304231 180.25806373 57.39782288 181.34716089 55.5625 182.4375 C54.29884366 183.17637609 53.03459997 183.91424857 51.76977539 184.65112305 C49.29132226 186.09839363 46.81769545 187.55336901 44.34863281 189.01660156 C41.54826288 190.67526337 38.74140921 192.32164407 35.9296875 193.9609375 C28.96101636 197.81879677 28.96101636 197.81879677 23 203 C22.24230504 198.29465061 21.68439727 193.76668951 22 189 C23.53510351 186.95911094 24.90210951 186.21375696 27.140625 185.02734375 C29.64049636 183.64611231 31.07042996 181.85441385 32.34765625 179.31640625 C35.25820015 168.98136114 33.71614826 151.21246197 29.25 141.3125 C26.25356206 136.26645396 21.72617018 132.49971124 16 131 C8.60174198 130.65813737 1.44402748 131.74738086 -5.875 132.75 C-8.64017775 133.12058737 -11.40595194 133.48658328 -14.171875 133.8515625 C-14.88662994 133.94617767 -15.60138489 134.04079285 -16.33779907 134.13827515 C-25.99128475 135.40677207 -35.66553277 136.50388612 -45.33935547 137.60449219 C-61.84549989 138.31440669 -61.84549989 138.31440669 -76 145 C-82.42396293 153.55383299 -81.38876324 161.25294774 -79.98242188 171.41601562 C-79.84384766 172.37185547 -79.70527344 173.32769531 -79.5625 174.3125 C-79.42779297 175.28767578 -79.29308594 176.26285156 -79.15429688 177.26757812 C-78.59576171 181.23726461 -78.03613543 185.12301023 -77 189 C-78.73656095 190.22756895 -80.48980377 191.43156853 -82.25 192.625 C-83.22453125 193.29789063 -84.1990625 193.97078125 -85.203125 194.6640625 C-88 196 -88 196 -89.98803711 195.33569336 C-92.32372669 193.7850857 -93.44993307 192.30301917 -94.98828125 189.96484375 C-95.53033203 189.15466797 -96.07238281 188.34449219 -96.63085938 187.50976562 C-97.18580078 186.66091797 -97.74074219 185.81207031 -98.3125 184.9375 C-99.40975212 183.27795498 -100.51001395 181.62039597 -101.61328125 179.96484375 C-102.15936035 179.14483887 -102.70543945 178.32483398 -103.26806641 177.47998047 C-105.58768019 174.15849233 -108.11893724 171.0301595 -110.70385742 167.91235352 C-112 166 -112 166 -112 163 C-109.8828125 161.53515625 -109.8828125 161.53515625 -107.125 160.0625 C-103.40572931 158.0757101 -101.54113037 156.94506783 -100 153 C-99.67928464 150.4923627 -99.67928464 150.4923627 -99.69360352 147.76000977 C-99.66962242 146.19302086 -99.66962242 146.19302086 -99.64515686 144.59437561 C-99.63979416 143.47139572 -99.63443146 142.34841583 -99.62890625 141.19140625 C-99.61987778 140.03253403 -99.6108493 138.8736618 -99.60154724 137.67967224 C-99.58704338 135.22942693 -99.57815768 132.77914287 -99.57446289 130.32885742 C-99.56255528 126.57990426 -99.51335784 122.83259075 -99.46289062 119.08398438 C-99.45342774 116.70313303 -99.44619206 114.32227159 -99.44140625 111.94140625 C-99.42187393 110.82045059 -99.40234161 109.69949493 -99.38221741 108.54457092 C-99.36152245 102.27845586 -99.36152245 102.27845586 -102.30151367 96.90283203 C-103.19201416 96.27489746 -104.08251465 95.64696289 -105 95 C-105.95471191 94.32578003 -105.95471191 94.32578003 -106.92871094 93.63793945 C-107.82251465 93.13073364 -107.82251465 93.13073364 -108.734375 92.61328125 C-109.71857422 92.0419043 -109.71857422 92.0419043 -110.72265625 91.45898438 C-111.39167969 91.08064453 -112.06070313 90.70230469 -112.75 90.3125 C-119.87253127 86.25493746 -119.87253127 86.25493746 -121 84 C-119.944168 81.32000127 -118.82153572 78.75119213 -117.59765625 76.1484375 C-117.24110458 75.37440582 -116.88455292 74.60037415 -116.51719666 73.80288696 C-115.37299258 71.32344201 -114.21789872 68.84924526 -113.0625 66.375 C-112.28638862 64.69825009 -111.51098855 63.02117075 -110.73632812 61.34375 C-108.83246156 57.22529396 -106.91881131 53.11151314 -105 49 C-101.62537285 49.54723683 -99.91765 50.0549 -97 52 C-89.85652478 52.85318379 -85.63113056 50.71764837 -79.5625 47.125 C-78.69794189 46.6304834 -77.83338379 46.1359668 -76.94262695 45.62646484 C-74.28529133 44.10055676 -71.64256714 42.5513086 -69 41 C-67.38875676 40.07163824 -65.77680818 39.14449927 -64.1640625 38.21875 C-52.65032785 32.55315124 -52.65032785 32.55315124 -44 24 C-43.84824451 22.40737934 -43.75099675 20.80935144 -43.68359375 19.2109375 C-43.64169922 18.26992187 -43.59980469 17.32890625 -43.55664062 16.359375 C-43.51732422 15.37453125 -43.47800781 14.3896875 -43.4375 13.375 C-43.37272461 11.88613281 -43.37272461 11.88613281 -43.30664062 10.3671875 C-43.20038931 7.91160162 -43.09835036 5.45591297 -43 3 C-38.48394714 2.5667539 -33.96735847 2.1397744 -29.45019531 1.71826172 C-27.91781147 1.57441972 -26.38557935 1.42895077 -24.85351562 1.28173828 C-16.55257141 0.48523776 -8.35056155 -0.19921817 0 0 Z " fill="#FEFEFE" transform="translate(330,174)"/>
<path d="M0 0 C1.51068476 10.39168003 2.8977188 20.78546581 3.984375 31.23046875 C4.06850647 32.02899261 4.15263794 32.82751648 4.23931885 33.65023804 C4.66173366 37.66438825 5.0726133 41.67917313 5.46582031 45.69628906 C5.62255843 47.20252487 5.77976509 48.70871201 5.9375 50.21484375 C6.03124908 51.2372541 6.03124908 51.2372541 6.12689209 52.28031921 C6.82355154 58.72322109 9.02528296 64.07499783 12.8984375 69.2421875 C13.45321777 69.98903809 14.00799805 70.73588867 14.57958984 71.50537109 C15.1720752 72.28734863 15.76456055 73.06932617 16.375 73.875 C16.99713379 74.70725098 17.61926758 75.53950195 18.26025391 76.39697266 C20.16459379 78.93818324 22.07994008 81.47065176 24 84 C24.82564453 85.08861328 24.82564453 85.08861328 25.66796875 86.19921875 C28.84912734 90.38578055 32.04885442 94.5579022 35.25341797 98.7265625 C44.17573491 110.34029124 53.04312831 121.98748122 61.6887207 133.80908203 C66.90372194 140.92078585 72.26161616 147.92060611 77.671875 154.88476562 C85.54283944 165.10586621 88.82524864 171.84023152 88 185 C87.33959667 187.82128188 86.49410312 189.43868037 85 192 C84.401875 193.051875 83.80375 194.10375 83.1875 195.1875 C78.20040801 201.59947542 71.01269718 204.21583033 63.17993164 205.44116211 C59.91442318 205.79908729 56.64819024 206.09591195 53.375 206.375 C50.77942331 206.61931522 48.1844463 206.86691069 45.58984375 207.12109375 C44.56229729 207.22113457 44.56229729 207.22113457 43.51399231 207.32319641 C34.96523792 208.17439289 26.45413022 209.31585352 17.9375 210.4375 C1.35861615 212.61113319 -15.23837508 214.53552999 -31.86296082 216.32347107 C-36.16328359 216.7890731 -40.45792845 217.29208559 -44.75186157 217.81318665 C-70.06120341 220.87170112 -70.06120341 220.87170112 -77.1875 216.5625 C-83.17744504 211.6637465 -88.26547632 204.26699706 -89.34912109 196.49658203 C-89.489834 189.038798 -87.71734595 183.59834802 -84.625 176.875 C-84.14603271 175.78880371 -83.66706543 174.70260742 -83.17358398 173.58349609 C-82.08369905 171.11601685 -80.98681462 168.65290309 -79.87939453 166.19335938 C-77.78441804 161.53252166 -75.73307059 156.85286138 -73.68359375 152.171875 C-72.92109528 150.43097465 -72.15856232 148.69008942 -71.39599609 146.94921875 C-70.82060089 145.6355835 -70.82060089 145.6355835 -70.23358154 144.29541016 C-69.05990653 141.61908612 -67.88327867 138.94408095 -66.70556641 136.26953125 C-61.76526878 125.04927296 -56.86359548 113.81484498 -52.08129883 102.52612305 C-49.80909903 97.16984975 -47.48793903 91.84814196 -45.046875 86.56640625 C-44.57572266 85.53209473 -44.10457031 84.4977832 -43.61914062 83.43212891 C-42.7444137 81.51889771 -41.85396606 79.61272528 -40.94335938 77.71630859 C-36.39673158 67.69751642 -37.94375553 57.81457919 -39.3125 47.1640625 C-39.44567627 46.08168304 -39.57885254 44.99930359 -39.71606445 43.88412476 C-40.13778133 40.46360438 -40.56830517 37.04427415 -41 33.625 C-41.4304056 30.18416236 -41.85887203 26.74310697 -42.28393555 23.30160522 C-42.54762521 21.16985457 -42.81457487 19.03850395 -43.08520508 16.90762329 C-43.26539185 15.45989029 -43.26539185 15.45989029 -43.44921875 13.98291016 C-43.60910278 12.71696518 -43.60910278 12.71696518 -43.7722168 11.42544556 C-44.00604354 8.93564809 -44.03931011 6.49922415 -44 4 C-39.66368706 3.42038618 -35.32615538 2.85123614 -30.98730469 2.29101562 C-29.51689258 2.09975294 -28.04682465 1.90582191 -26.57714844 1.70898438 C-17.66875732 0.517958 -9.01261317 -0.31122693 0 0 Z " fill="#92B1F3" transform="translate(332,367)"/>
<path d="M0 0 C0.94101563 0.54269531 1.88203125 1.08539063 2.8515625 1.64453125 C4.10932463 2.36727516 5.36713997 3.08992648 6.625 3.8125 C7.55119141 4.34713867 7.55119141 4.34713867 8.49609375 4.89257812 C12.27265506 7.05913172 16.08447772 9.0904299 20 11 C19.34 11.33 18.68 11.66 18 12 C17.31492625 14.05522126 16.63642548 16.11280168 15.98583984 18.17919922 C14.01623036 23.81487726 11.34873872 29.16440417 8.8125 34.5625 C8.24760008 35.77388029 7.68314371 36.98546752 7.11914062 38.19726562 C5.75042601 41.13356791 4.377291 44.06771332 3 47 C6.37150785 50.59010778 10.50724651 52.59804438 14.81835938 54.86328125 C18.92873362 57.11326247 21.62402951 58.95057794 24 63 C24.59933281 66.95562111 24.56026535 70.87662982 24.53125 74.87109375 C24.53699036 76.60372215 24.53699036 76.60372215 24.54284668 78.37135315 C24.5455658 80.8114611 24.53820477 83.25159821 24.52148438 85.69165039 C24.50009608 89.4207484 24.52127801 93.14791538 24.546875 96.87695312 C24.54423134 99.25000424 24.53910559 101.62305416 24.53125 103.99609375 C24.53934692 105.10875107 24.54744385 106.22140839 24.55578613 107.36778259 C24.48123679 113.54349926 24.1669924 117.31567525 20 122 C17.36371157 124.08010944 14.43908898 126 11 126 C14.07905925 131.66125319 17.62671582 136.80862315 21.4375 142 C22.56134057 143.54156268 23.68504046 145.08322793 24.80859375 146.625 C25.34468262 147.35847656 25.88077148 148.09195313 26.43310547 148.84765625 C28.64321568 151.88354462 30.82314629 154.94019815 33 158 C37.49797113 156.31326082 41.72886302 154.18326108 46 152 C46.4125 152.47050781 46.825 152.94101562 47.25 153.42578125 C47.8275 154.04839844 48.405 154.67101562 49 155.3125 C49.556875 155.92738281 50.11375 156.54226563 50.6875 157.17578125 C52.90860182 158.92790042 54.51966129 159.67041015 57.14453125 160.61401367 C57.86616455 160.87599045 58.58779785 161.13796722 59.33129883 161.40788269 C60.15730591 161.70098076 60.15730591 161.70098076 61 162 C61.86613194 168.59642325 62.71912534 175.19445494 63.56347656 181.79370117 C63.85154747 184.03333971 64.1425028 186.27260938 64.43652344 188.51147461 C65.26180926 194.80357724 66.04036096 201.09702643 66.71929932 207.40673828 C66.94944799 209.53297376 67.20354403 211.65660445 67.46435547 213.77929688 C68.18707253 224.10382633 63.32969824 232.97223145 59.125 242.125 C58.36895517 243.82196548 57.61503213 245.51987795 56.86328125 247.21875 C51.50513198 259.24230203 51.50513198 259.24230203 49 263 C49 262.34 49 261.68 49 261 C48.27941406 260.72687988 47.55882812 260.45375977 46.81640625 260.17236328 C44.05753402 259.02394923 41.53751868 257.7122961 38.9375 256.2421875 C37.98149902 255.70279541 37.02549805 255.16340332 36.04052734 254.60766602 C34.53546631 253.74999634 34.53546631 253.74999634 33 252.875 C31.97213379 252.28968506 30.94426758 251.70437012 29.88525391 251.10131836 C26.920018 249.40686444 23.95922781 247.70491993 21 246 C20.25331055 245.57251465 19.50662109 245.1450293 18.73730469 244.70458984 C16.94179836 243.67112462 15.15775518 242.6178091 13.375 241.5625 C12.43398437 241.00691406 11.49296875 240.45132813 10.5234375 239.87890625 C6.53790083 236.91134721 3.45475967 234.49720584 2.54232788 229.48680115 C2.37157937 226.38523359 2.35956512 223.32080777 2.40625 220.21484375 C2.40620972 219.08099747 2.40616943 217.94715118 2.40612793 216.77894592 C2.41147793 214.38764894 2.4290381 211.99635209 2.45800781 209.60522461 C2.49989631 205.9465562 2.49907108 202.28972741 2.4921875 198.63085938 C2.5026792 196.30467472 2.51561719 193.97849954 2.53125 191.65234375 C2.53155212 190.0131321 2.53155212 190.0131321 2.53186035 188.34080505 C2.67915487 178.88640834 2.67915487 178.88640834 6 175 C8.04296875 173.41796875 8.04296875 173.41796875 10.1875 172.1875 C10.90292969 171.76855469 11.61835938 171.34960938 12.35546875 170.91796875 C12.89816406 170.61503906 13.44085938 170.31210937 14 170 C12.74478703 166.58315544 11.3210999 163.78918169 9.171875 160.85546875 C8.61886719 160.09556641 8.06585938 159.33566406 7.49609375 158.55273438 C6.91988281 157.77220703 6.34367187 156.99167969 5.75 156.1875 C4.90888672 155.03411133 4.90888672 155.03411133 4.05078125 153.85742188 C0.40874813 148.87380843 -3.28556343 143.92980966 -7 139 C-12.10877683 140.11571779 -16.15857219 142.93400891 -20.61328125 145.6015625 C-24.90522409 147.37378342 -26.52821131 147.30179753 -31 146 C-35.08020029 144.05889326 -38.97046705 141.83294092 -42.875 139.5625 C-43.97674561 138.93085938 -45.07849121 138.29921875 -46.21362305 137.6484375 C-48.43568951 136.37212058 -50.65505222 135.09108397 -52.87158203 133.80517578 C-55.6597223 132.19634878 -58.46252261 130.62008046 -61.27734375 129.05859375 C-62.7894448 128.20640715 -64.30119255 127.3535932 -65.8125 126.5 C-66.832229 125.94227905 -66.832229 125.94227905 -67.87255859 125.37329102 C-72.05063146 122.9680761 -75.16826851 120.50011824 -77 116 C-77.58447661 111.9970118 -77.56064777 108.03585588 -77.53125 103.99609375 C-77.5350769 102.84005142 -77.53890381 101.68400909 -77.54284668 100.49293518 C-77.54556306 98.05460741 -77.53822124 95.61625036 -77.52148438 93.17797852 C-77.50005323 89.44676815 -77.52130738 85.71747916 -77.546875 81.98632812 C-77.54423206 79.61457909 -77.53910778 77.24283124 -77.53125 74.87109375 C-77.53934692 73.7564122 -77.54744385 72.64173065 -77.55578613 71.49327087 C-77.46297824 63.82820624 -77.46297824 63.82820624 -75.30712891 59.97167969 C-72.82347786 57.84914362 -70.40104558 56.18938923 -67.5546875 54.58203125 C-66.48581299 53.97166016 -65.41693848 53.36128906 -64.31567383 52.73242188 C-62.61254028 51.78206055 -62.61254028 51.78206055 -60.875 50.8125 C-59.70106896 50.15100615 -58.52748725 49.488892 -57.35424805 48.82617188 C-55.58713305 47.82909869 -53.81922266 46.83360673 -52.04844666 45.8430481 C-48.51159136 43.86368002 -45.00904396 41.83638135 -41.52734375 39.76171875 C-40.31812256 39.05341919 -40.31812256 39.05341919 -39.08447266 38.33081055 C-37.61393521 37.46944158 -36.1507428 36.59535525 -34.69677734 35.70629883 C-30.09547053 33.06125313 -27.32818683 32.61364923 -22 34 C-19.54758493 34.83477268 -17.35287 35.89559163 -15 37 C-14.43152344 35.15341797 -14.43152344 35.15341797 -13.8515625 33.26953125 C-11.8267226 27.19382187 -9.10002346 21.47462664 -6.375 15.6875 C-5.37963981 13.56789324 -4.38731808 11.44685624 -3.3984375 9.32421875 C-2.96192871 8.39697998 -2.52541992 7.46974121 -2.07568359 6.5144043 C-1.14284847 4.33390748 -0.48597996 2.31433553 0 0 Z " fill="#6965F6" transform="translate(207,211)"/>
<path d="M0 0 C3.1656303 3.89446146 6.16568036 7.88632077 9.125 11.9375 C9.59784424 12.58340088 10.07068848 13.22930176 10.55786133 13.89477539 C15.42574003 20.55808368 20.22133064 27.27254574 25 34 C30.07734151 33.12289234 34.23769242 30.06966493 38.61328125 27.49609375 C42.64951087 25.71307651 44.62362622 25.32986777 49 26 C52.73796631 27.62778085 56.19069332 29.66125412 59.6875 31.75 C60.6868457 32.33402588 61.68619141 32.91805176 62.71582031 33.51977539 C64.78814908 34.73408676 66.85665279 35.95494822 68.92138672 37.18212891 C71.87939285 38.92878344 74.85836968 40.6317961 77.84765625 42.32421875 C79.64907042 43.36088012 81.44988057 44.398592 83.25 45.4375 C84.08877686 45.90833008 84.92755371 46.37916016 85.79174805 46.86425781 C86.56687744 47.32026367 87.34200684 47.77626953 88.140625 48.24609375 C88.81641602 48.63466553 89.49220703 49.0232373 90.18847656 49.42358398 C93.36863544 52.19100795 94.79047743 55.15107054 95.26681519 59.35450745 C95.38039342 62.21126115 95.38952462 65.05126486 95.36328125 67.91015625 C95.36402901 69.4777494 95.36402901 69.4777494 95.36479187 71.07701111 C95.36245747 73.27995715 95.35276648 75.48290617 95.33618164 77.68579102 C95.31255651 81.05444205 95.31562995 84.42230257 95.32226562 87.79101562 C95.31668945 89.93490054 95.30957995 92.07878214 95.30078125 94.22265625 C95.30169266 95.2279689 95.30260406 96.23328156 95.30354309 97.26905823 C95.29401108 98.21031052 95.28447906 99.15156281 95.2746582 100.12133789 C95.26774712 101.35660973 95.26774712 101.35660973 95.26069641 102.61683655 C94.8181816 106.6620979 93.74612799 109.30435329 90.76635742 112.08251953 C87.82984335 114.11794284 84.85031757 115.92379999 81.73828125 117.6796875 C81.14758347 118.01493439 80.55688568 118.35018127 79.94828796 118.69558716 C78.07200064 119.75953422 76.19245113 120.81754261 74.3125 121.875 C71.84918947 123.26634109 69.38737634 124.66031429 66.92578125 126.0546875 C66.33044586 126.39092636 65.73511047 126.72716522 65.12173462 127.07359314 C60.70000268 129.57867573 56.34617009 132.18107083 52.02612305 134.85717773 C48.8289776 136.660508 46.67779697 137.19702484 43 137 C39.50794633 135.59083549 36.25299705 133.89158179 33 132 C32.73501709 132.83877686 32.47003418 133.67755371 32.19702148 134.54174805 C30.92216291 138.22487505 29.43042593 141.77433934 27.84765625 145.33203125 C27.54685654 146.00924728 27.24605682 146.68646332 26.93614197 147.38420105 C26.30328168 148.80433606 25.66869784 150.22370414 25.0324707 151.64233398 C24.05948576 153.81924391 23.1010985 156.00223685 22.14257812 158.18554688 C21.5243306 159.56810805 20.90522033 160.95028383 20.28515625 162.33203125 C19.85844383 163.31318657 19.85844383 163.31318657 19.42311096 164.31416321 C18.69473022 165.91463837 17.85514531 167.46351514 17 169 C14 170 14 170 12.19067383 169.28735352 C11.53607178 168.90506592 10.88146973 168.52277832 10.20703125 168.12890625 C9.1387207 167.51499023 9.1387207 167.51499023 8.04882812 166.88867188 C7.31083984 166.45103516 6.57285156 166.01339844 5.8125 165.5625 C5.06291016 165.12873047 4.31332031 164.69496094 3.54101562 164.24804688 C1.68872757 163.17442769 -0.1563425 162.08837319 -2 161 C0.55454875 152.42469321 4.36504441 144.49866165 8.1875 136.4375 C8.84876801 135.03342001 9.50957906 133.62912472 10.16992188 132.22460938 C11.77469047 128.81390118 13.38561427 125.40616599 15 122 C10.97821903 118.72881729 6.93063883 116.16502209 2.40234375 113.66015625 C-0.61589732 111.5743799 -2.08129116 110.18590744 -4 107 C-4.60318577 103.10642933 -4.5603114 99.24605438 -4.53125 95.3125 C-4.5350769 94.17723877 -4.53890381 93.04197754 -4.54284668 91.87231445 C-4.54556537 89.47508862 -4.53820731 87.07783311 -4.52148438 84.68066406 C-4.50007587 81.01299858 -4.52128935 77.34729211 -4.546875 73.6796875 C-4.54423172 71.34895401 -4.53910674 69.01822174 -4.53125 66.6875 C-4.53934692 65.59155518 -4.54744385 64.49561035 -4.55578613 63.36645508 C-4.46231379 55.77100607 -4.46231379 55.77100607 -2.13085938 51.8828125 C3.39522822 47 3.39522822 47 7 47 C3.96253629 41.41284048 0.46310827 36.36077144 -3.3125 31.25 C-8.14267295 24.64585104 -12.7587567 18.00190712 -17 11 C-11.39722251 7.22590683 -5.75234036 3.54231313 0 0 Z " fill="#082C75" transform="translate(416,193)"/>
<path d="M0 0 C1.51068476 10.39168003 2.8977188 20.78546581 3.984375 31.23046875 C4.06850647 32.02899261 4.15263794 32.82751648 4.23931885 33.65023804 C4.66173366 37.66438825 5.0726133 41.67917313 5.46582031 45.69628906 C5.62255843 47.20252487 5.77976509 48.70871201 5.9375 50.21484375 C6.03124908 51.2372541 6.03124908 51.2372541 6.12689209 52.28031921 C6.82355154 58.72322109 9.02528296 64.07499783 12.8984375 69.2421875 C13.45321777 69.98903809 14.00799805 70.73588867 14.57958984 71.50537109 C15.1720752 72.28734863 15.76456055 73.06932617 16.375 73.875 C16.99713379 74.70725098 17.61926758 75.53950195 18.26025391 76.39697266 C20.16459379 78.93818324 22.07994008 81.47065176 24 84 C24.82564453 85.08861328 24.82564453 85.08861328 25.66796875 86.19921875 C28.84912734 90.38578055 32.04885442 94.5579022 35.25341797 98.7265625 C44.17376793 110.33773092 53.04432313 121.97910181 61.68212891 133.80249023 C64.86681879 138.14893966 68.10122872 142.44993469 71.39453125 146.71484375 C72.12994141 147.66875 72.86535156 148.62265625 73.62304688 149.60546875 C75.05487629 151.45752285 76.49216606 153.30537166 77.93554688 155.1484375 C78.58201172 155.98503906 79.22847656 156.82164062 79.89453125 157.68359375 C80.47050049 158.42150146 81.04646973 159.15940918 81.63989258 159.91967773 C82.99198554 161.98774166 83.57288482 163.58422565 84 166 C69.93210878 165.62801249 56.62751295 159.74157229 44 154 C44 153.34 44 152.68 44 152 C44.928125 151.62875 44.928125 151.62875 45.875 151.25 C48.52534901 149.69097117 49.14374887 148.95795846 50 146 C50.15906594 141.70521953 49.67295679 138.86222588 47 135.4375 C42.77895259 133.41491478 39.43194975 133.57514886 35 135 C31.29209752 138.24441467 30.44958886 141.16691977 30 146 C23.31211374 142.47921372 17.46236358 138.13513608 11.625 133.375 C10.93535156 132.81272705 10.24570312 132.2504541 9.53515625 131.67114258 C6.19825526 128.91664835 2.98699839 126.14017779 0 123 C-5.67786949 124.80895537 -11.08924468 127.11830556 -16.5625 129.46484375 C-27.65519449 133.60162208 -38.63630607 134.42060034 -50.375 134.1875 C-51.70831784 134.17239296 -53.04165267 134.15871542 -54.375 134.14648438 C-57.58378565 134.11160627 -60.7916563 134.06260026 -64 134 C-63.40549029 129.15005233 -61.92650124 125.00515427 -59.97265625 120.56640625 C-59.66779297 119.85983383 -59.36292969 119.15326141 -59.04882812 118.42527771 C-58.39651897 116.915946 -57.74117074 115.40792468 -57.08303833 113.90112305 C-56.05417385 111.54342013 -55.03559793 109.18149796 -54.01928711 106.81835938 C-51.00936175 99.83438669 -47.96346901 92.87216671 -44.78125 85.96484375 C-44.31581787 84.94124756 -43.85038574 83.91765137 -43.37084961 82.86303711 C-42.53022609 81.02351631 -41.67297268 79.19145505 -40.79516602 77.36938477 C-36.32798617 67.55196672 -37.9722989 57.59247659 -39.3125 47.1640625 C-39.44567627 46.08168304 -39.57885254 44.99930359 -39.71606445 43.88412476 C-40.13778133 40.46360438 -40.56830517 37.04427415 -41 33.625 C-41.4304056 30.18416236 -41.85887203 26.74310697 -42.28393555 23.30160522 C-42.54762521 21.16985457 -42.81457487 19.03850395 -43.08520508 16.90762329 C-43.26539185 15.45989029 -43.26539185 15.45989029 -43.44921875 13.98291016 C-43.60910278 12.71696518 -43.60910278 12.71696518 -43.7722168 11.42544556 C-44.00604354 8.93564809 -44.03931011 6.49922415 -44 4 C-39.66368706 3.42038618 -35.32615538 2.85123614 -30.98730469 2.29101562 C-29.51689258 2.09975294 -28.04682465 1.90582191 -26.57714844 1.70898438 C-17.66875732 0.517958 -9.01261317 -0.31122693 0 0 Z " fill="#FDFDFE" transform="translate(332,367)"/>
<path d="M0 0 C2.76487087 1.15279755 5.29893433 2.60190771 7.875 4.125 C8.63441895 4.56150879 9.39383789 4.99801758 10.17626953 5.44775391 C11.85781273 6.4171141 13.53586505 7.39254752 15.2109375 8.37304688 C18.2546483 10.14854484 21.31387152 11.89534132 24.375 13.640625 C26.54222053 14.88445212 28.70889286 16.12923493 30.875 17.375 C31.9151123 17.96941895 32.95522461 18.56383789 34.02685547 19.17626953 C35.00541504 19.74458496 35.98397461 20.31290039 36.9921875 20.8984375 C37.86214355 21.40036621 38.73209961 21.90229492 39.62841797 22.41943359 C45.68610703 26.45664576 45.68610703 26.45664576 46.50793457 30.49742126 C46.51111694 31.43276199 46.51429932 32.36810272 46.51757812 33.33178711 C46.53018677 34.39646713 46.54279541 35.46114716 46.55578613 36.55809021 C46.54768921 37.70294388 46.53959229 38.84779755 46.53125 40.02734375 C46.53699036 41.79894615 46.53699036 41.79894615 46.54284668 43.6063385 C46.54556829 46.10369723 46.53818983 48.60108434 46.52148438 51.09838867 C46.5000993 54.91975584 46.52126995 58.73923865 46.546875 62.56054688 C46.5442314 64.98698332 46.53910575 67.41341859 46.53125 69.83984375 C46.53934692 70.98267319 46.54744385 72.12550262 46.55578613 73.30296326 C46.46285027 81.17374787 46.46285027 81.17374787 44.27172852 85.08520508 C41.95788702 87.0354962 39.82655012 88.44401841 37.12109375 89.796875 C32.72134565 92.08120491 28.41549141 94.47374061 24.16015625 97.015625 C23.57962494 97.36113403 22.99909363 97.70664307 22.40097046 98.06262207 C20.6204604 99.12338282 18.8413344 100.18643203 17.0625 101.25 C15.25224697 102.33136828 13.44162875 103.41210523 11.62998962 104.4911499 C10.00511175 105.45906165 8.38154296 106.42917005 6.75805664 107.39941406 C5.84789795 107.92760742 4.93773926 108.45580078 4 109 C3.34185303 109.40186523 2.68370605 109.80373047 2.00561523 110.21777344 C-1.67740102 111.65421703 -4.84045576 111.46985675 -8.47509766 109.99707031 C-9.27995605 109.52881836 -10.08481445 109.06056641 -10.9140625 108.578125 C-11.8309082 108.05275146 -12.74775391 107.52737793 -13.69238281 106.98608398 C-14.66014648 106.41317627 -15.62791016 105.84026855 -16.625 105.25 C-17.62885742 104.66742432 -18.63271484 104.08484863 -19.66699219 103.48461914 C-21.75012494 102.27164126 -23.82952792 101.05223675 -25.90527344 99.82666016 C-28.87898929 98.07142649 -31.86391168 96.33684438 -34.8515625 94.60546875 C-36.65190053 93.55094409 -38.45141918 92.49501894 -40.25 91.4375 C-41.08869629 90.94991211 -41.92739258 90.46232422 -42.79150391 89.95996094 C-43.95431885 89.26628418 -43.95431885 89.26628418 -45.140625 88.55859375 C-45.81641602 88.15954834 -46.49220703 87.76050293 -47.18847656 87.34936523 C-50.1161793 85.16858181 -51.80874446 83.16792523 -52.40786743 79.50930786 C-52.42954483 78.11082108 -52.42954483 78.11082108 -52.45166016 76.68408203 C-52.4740274 75.6226297 -52.49639465 74.56117737 -52.5194397 73.46755981 C-52.52591522 72.3258432 -52.53239075 71.18412659 -52.5390625 70.0078125 C-52.55141937 68.82911591 -52.56377625 67.65041931 -52.57650757 66.43600464 C-52.59607531 63.94290127 -52.60730616 61.44972062 -52.61083984 58.95654297 C-52.62492425 55.14549714 -52.69225987 51.33773003 -52.76171875 47.52734375 C-52.77411729 45.10418124 -52.78333686 42.68099996 -52.7890625 40.2578125 C-52.81578033 39.12014435 -52.84249817 37.9824762 -52.87002563 36.81033325 C-52.80387789 29.09491504 -52.80387789 29.09491504 -50.52487183 25.99081421 C-48.75102031 24.43154508 -47.03155344 23.19906834 -45 22 C-43.98870026 21.37908981 -43.98870026 21.37908981 -42.95697021 20.74563599 C-40.96104446 19.55531786 -38.92934995 18.46121332 -36.875 17.375 C-35.2932398 16.52274413 -33.71255704 15.66848633 -32.1328125 14.8125 C-31.30426758 14.36390625 -30.47572266 13.9153125 -29.62207031 13.453125 C-26.84065923 11.91169495 -24.10261255 10.30904871 -21.3671875 8.6875 C-20.43148926 8.13658691 -19.49579102 7.58567383 -18.53173828 7.01806641 C-16.70920493 5.94156566 -14.89221112 4.85561786 -13.08154297 3.75927734 C-4.93482272 -1.01638625 -4.93482272 -1.01638625 0 0 Z " fill="#062B75" transform="translate(382,103)"/>
<path d="M0 0 C0.33 0 0.66 0 1 0 C1.2475 1.7325 1.2475 1.7325 1.5 3.5 C6.02454796 23.65480454 21.64640248 42.06066278 35 57 C38.89033733 56.35934779 41.55374112 54.46451058 44.8125 52.3125 C52.71315136 47.27352879 61.52612611 42.75444741 70.8828125 41.46484375 C71.91148437 41.31144531 72.94015625 41.15804687 74 41 C74.495 40.01 74.495 40.01 75 39 C75.3403125 39.46559326 75.680625 39.93118652 76.03125 40.41088867 C82.93293562 49.84219809 89.8972702 59.21894948 97 68.5 C102.32731177 75.47352249 107.63503966 82.46051257 112.875 89.5 C113.46410156 90.28310547 114.05320312 91.06621094 114.66015625 91.87304688 C117.31432374 95.45711865 119.64878057 98.68978107 121 103 C106.93210878 102.62801249 93.62751295 96.74157229 81 91 C81 90.34 81 89.68 81 89 C81.928125 88.62875 81.928125 88.62875 82.875 88.25 C85.52534901 86.69097117 86.14374887 85.95795846 87 83 C87.15906594 78.70521953 86.67295679 75.86222588 84 72.4375 C79.77895259 70.41491478 76.43194975 70.57514886 72 72 C68.29209752 75.24441467 67.44958886 78.16691977 67 83 C60.31211374 79.47921372 54.46236358 75.13513608 48.625 70.375 C47.59052734 69.53159058 47.59052734 69.53159058 46.53515625 68.67114258 C43.19825526 65.91664835 39.98699839 63.14017779 37 60 C31.32213051 61.80895537 25.91075532 64.11830556 20.4375 66.46484375 C9.34480551 70.60162208 -1.63630607 71.42060034 -13.375 71.1875 C-14.70831784 71.17239296 -16.04165267 71.15871542 -17.375 71.14648438 C-20.58378565 71.11160627 -23.7916563 71.06260026 -27 71 C-26.40548742 66.15002895 -24.92642677 62.00519695 -22.97265625 57.56640625 C-22.66783829 56.85965256 -22.36302032 56.15289886 -22.04896545 55.42472839 C-21.39676298 53.91518751 -20.74145903 52.40698345 -20.08331299 50.90002441 C-19.05489907 48.5450949 -18.03503943 46.18661817 -17.01708984 43.82714844 C-13.9853385 36.81047741 -10.92273313 29.80818841 -7.81640625 22.82421875 C-7.35548584 21.78257568 -6.89456543 20.74093262 -6.41967773 19.66772461 C-5.5823724 17.78074816 -4.73733804 15.89717418 -3.88305664 14.01782227 C-1.77770186 9.27769066 -0.43394801 5.17937944 0 0 Z " fill="#D0DAFC" transform="translate(295,430)"/>
<path d="M0 0 C3.80319654 1.41688563 7.2026822 3.17300148 10.703125 5.22265625 C11.7653125 5.84333984 12.8275 6.46402344 13.921875 7.10351562 C15.02015625 7.74998047 16.1184375 8.39644531 17.25 9.0625 C18.36375 9.71283203 19.4775 10.36316406 20.625 11.03320312 C28.85688973 15.85688973 28.85688973 15.85688973 30 17 C30.38775295 21.60982868 30.48513636 26.22072138 30.56982422 30.8449707 C30.60640975 32.39823702 30.66091001 33.9511915 30.73388672 35.50317383 C31.32696573 48.30903432 31.32696573 48.30903432 28.27514648 52.19799805 C25.92196205 53.78739139 23.61050262 54.8893652 21 56 C19.45360015 56.91750682 17.91810477 57.85366183 16.39453125 58.80859375 C14.86943738 59.68880564 13.3420902 60.56512503 11.8125 61.4375 C11.04486328 61.89576172 10.27722656 62.35402344 9.48632812 62.82617188 C8.73416016 63.25349609 7.98199219 63.68082031 7.20703125 64.12109375 C6.5416333 64.5070874 5.87623535 64.89308105 5.19067383 65.29077148 C1.11216358 66.6111852 -2.11513898 65.42657697 -5.8684082 63.6171875 C-7.31993286 62.75480469 -7.31993286 62.75480469 -8.80078125 61.875 C-9.85974609 61.25109375 -10.91871094 60.6271875 -12.00976562 59.984375 C-13.09966797 59.32953125 -14.18957031 58.6746875 -15.3125 58 C-16.42173828 57.34515625 -17.53097656 56.6903125 -18.67382812 56.015625 C-26.80333647 51.19666353 -26.80333647 51.19666353 -28 50 C-28.38775295 45.39017132 -28.48513636 40.77927862 -28.56982422 36.1550293 C-28.60640975 34.60176298 -28.66091001 33.0488085 -28.73388672 31.49682617 C-29.32634319 18.70440768 -29.32634319 18.70440768 -26.28613281 14.79760742 C-23.92830229 13.19536613 -21.62746931 12.09937931 -19 11 C-17.39762986 10.1024586 -15.80367662 9.18971566 -14.21875 8.26171875 C-12.64802504 7.3996404 -11.07510423 6.54155072 -9.5 5.6875 C-7.90545448 4.81786331 -6.31166119 3.94684543 -4.71875 3.07421875 C-4.02716797 2.69869873 -3.33558594 2.32317871 -2.62304688 1.9362793 C-1.01665532 1.10304548 -1.01665532 1.10304548 0 0 Z " fill="#AFD752" transform="translate(378,125)"/>
<path d="M0 0 C2.94719509 1.1240694 5.54555892 2.62553437 8.27050781 4.21508789 C8.84194519 4.54661362 9.41338257 4.87813934 10.00213623 5.2197113 C11.81827164 6.2747742 13.63034047 7.33660746 15.44238281 8.39868164 C16.6764953 9.11723166 17.91086757 9.83533569 19.14550781 10.55297852 C22.16415929 12.30889008 25.17920271 14.0708938 28.19238281 15.83618164 C28.41573186 20.56812703 28.57854135 25.29697908 28.68676758 30.03295898 C28.73189165 31.64157561 28.7932141 33.24982578 28.87133789 34.85717773 C29.5003311 48.13592321 29.5003311 48.13592321 26.47412109 52.06982422 C24.11748495 53.66190283 21.81496827 54.74350012 19.19238281 55.83618164 C17.63391283 56.75294776 16.08669773 57.68913516 14.55175781 58.64477539 C13.01754263 59.52499885 11.48108079 60.40131813 9.94238281 61.27368164 C9.16636719 61.73194336 8.39035156 62.19020508 7.59082031 62.66235352 C6.83542969 63.08967773 6.08003906 63.51700195 5.30175781 63.95727539 C4.63112305 64.34326904 3.96048828 64.7292627 3.26953125 65.12695312 C-0.41563509 66.38522865 -3.05473703 65.19883894 -6.45483398 63.56103516 C-7.37949463 63.03437256 -8.30415527 62.50770996 -9.25683594 61.96508789 C-10.26939453 61.39081055 -11.28195312 60.8165332 -12.32519531 60.22485352 C-13.37126953 59.6222168 -14.41734375 59.01958008 -15.49511719 58.39868164 C-16.55279297 57.79991211 -17.61046875 57.20114258 -18.70019531 56.58422852 C-26.52373977 52.12005906 -26.52373977 52.12005906 -28.80761719 49.83618164 C-30.81759964 39.50051286 -32.50366661 25.90759827 -28.80761719 15.83618164 C-23.42362126 8.99352352 -15.36364685 5.7202774 -7.35131836 2.80883789 C-0.00453922 -0.00041137 -0.00453922 -0.00041137 0 0 Z " fill="#FB8E01" transform="translate(461.8076171875,241.163818359375)"/>
<path d="M0 0 C10.12487754 3.25908075 20.70595114 7.36089584 27.55981445 15.82397461 C32.03281932 25.95533562 30.9396975 39.53829863 27.55981445 49.82397461 C23.95380203 55.24061465 18.70919853 57.24458849 12.67993164 59.10180664 C9.72758297 60.10745466 7.35974851 61.74047177 4.80981445 63.51147461 C2.35761636 65.14774348 1.20007832 65.84988748 -1.7565918 65.73022461 C-5.35280457 64.51578303 -8.43049971 62.6400444 -11.62768555 60.63647461 C-12.87108907 59.8720117 -14.11458044 59.10769166 -15.3581543 58.34350586 C-15.9980127 57.92721924 -16.63787109 57.51093262 -17.29711914 57.08203125 C-19.46519718 55.73707257 -19.46519718 55.73707257 -22.0871582 54.76708984 C-25.14205874 53.40767833 -27.12645142 52.25486667 -29.44018555 49.82397461 C-31.27300386 44.31461699 -31.47156673 39.03204167 -31.44018555 33.26147461 C-31.4489975 32.49141083 -31.45780945 31.72134705 -31.46688843 30.927948 C-31.45980686 24.4170849 -31.34438862 18.34626614 -27.31762695 13.01245117 C-22.16778576 8.69630305 -16.3414735 6.02191397 -10.02734375 3.81835938 C-7.35287224 2.89954072 -7.35287224 2.89954072 -4.92138672 1.14013672 C-2.44018555 -0.17602539 -2.44018555 -0.17602539 0 0 Z " fill="#FBCA50" transform="translate(238.440185546875,139.176025390625)"/>
<path d="M0 0 C1.75209166 1.23903573 3.48211243 2.50993025 5.1875 3.8125 C6.84180921 4.76577679 8.51216789 5.69188213 10.19921875 6.5859375 C11.75806039 7.45267932 13.31665752 8.31986104 14.875 9.1875 C15.68388672 9.63738281 16.49277344 10.08726562 17.32617188 10.55078125 C19.28017089 11.63762094 21.23394574 12.72486117 23.1875 13.8125 C23.41084904 18.54444539 23.57365853 23.27329744 23.68188477 28.00927734 C23.72700884 29.61789397 23.78833129 31.22614414 23.86645508 32.83349609 C24.4964069 46.13247906 24.4964069 46.13247906 21.44726562 50.04614258 C19.09766032 51.62144613 16.78962639 52.71114541 14.1875 53.8125 C12.72127907 54.72391286 11.27001263 55.65989359 9.8359375 56.62109375 C8.41306541 57.50000288 6.98859096 58.3763234 5.5625 59.25 C4.8509375 59.70826172 4.139375 60.16652344 3.40625 60.63867188 C0.06424385 62.66774703 -2.18014372 63.77600358 -6.12890625 64.00390625 C-11.61081092 62.23086179 -16.24254537 59.33237673 -21.125 56.3125 C-23.10016599 55.11442765 -25.07542182 53.91650339 -27.05078125 52.71875 C-27.91743408 52.18572266 -28.78408691 51.65269531 -29.67700195 51.10351562 C-31.75943292 49.80568971 -31.75943292 49.80568971 -33.8125 48.8125 C-33.8125 37.2625 -33.8125 25.7125 -33.8125 13.8125 C-29.419375 11.04875 -25.02625 8.285 -20.5 5.4375 C-19.13834717 4.54756348 -17.77669434 3.65762695 -16.3737793 2.74072266 C-6.18072909 -3.36578117 -6.18072909 -3.36578117 0 0 Z " fill="#D0DAFC" transform="translate(407.8125,372.1875)"/>
<path d="M0 0 C2.77661133 1.29101562 2.77661133 1.29101562 5.58203125 2.90625 C7.10280273 3.77443359 7.10280273 3.77443359 8.65429688 4.66015625 C9.69650391 5.26730469 10.73871094 5.87445313 11.8125 6.5 C12.87404297 7.10714844 13.93558594 7.71429688 15.02929688 8.33984375 C22.8103266 12.8103266 22.8103266 12.8103266 24 14 C27.50698804 40.46324035 27.50698804 40.46324035 22.47216797 48.41210938 C18.57846445 51.93530985 14.02598782 53.71334011 9.07275391 55.29296875 C6.37004237 56.21488307 4.13174198 57.62942688 1.75 59.1875 C-0.59251131 60.63462992 -1.51553541 61.05925743 -4.2734375 60.72192383 C-7.35546304 59.9058825 -9.71840645 58.67731247 -12.484375 57.09375 C-14.00998047 56.22556641 -14.00998047 56.22556641 -15.56640625 55.33984375 C-16.61699219 54.73269531 -17.66757813 54.12554687 -18.75 53.5 C-20.34908203 52.58927734 -20.34908203 52.58927734 -21.98046875 51.66015625 C-29.82900856 47.17099144 -29.82900856 47.17099144 -31 46 C-34.51333225 19.48888719 -34.51333225 19.48888719 -29.45605469 11.58789062 C-25.58739177 8.12129163 -21.13614646 6.37826354 -16.23046875 4.83837891 C-13.13309562 3.67415175 -10.65081984 1.86206238 -8.01953125 -0.12036133 C-5.02685439 -1.42386891 -3.11748246 -0.82286269 0 0 Z " fill="#66CBD1" transform="translate(184,271)"/>
<path d="M0 0 C0.84046875 0.43828125 1.6809375 0.8765625 2.546875 1.328125 C3.82099243 1.90699463 3.82099243 1.90699463 5.12084961 2.49755859 C7.546875 4.328125 7.546875 4.328125 8.48168945 7.30810547 C8.69378052 9.10852295 8.69378052 9.10852295 8.91015625 10.9453125 C8.99186569 11.59831329 9.07357513 12.25131409 9.15776062 12.92410278 C9.32684399 14.30979732 9.48502042 15.69686014 9.63305664 17.08496094 C9.8552244 19.16427857 10.10879415 21.23765499 10.36914062 23.3125 C13.45495046 48.86351768 13.45495046 48.86351768 6.546875 58.328125 C3.609375 61.015625 3.609375 61.015625 0.546875 62.328125 C-10.25547439 61.21691425 -22.50139981 55.75776456 -29.453125 47.328125 C-33.26737451 37.30344312 -32.89946889 25.42235045 -29.453125 15.328125 C-25.8044072 10.03676616 -20.50819813 8.01169681 -14.57324219 6.08691406 C-11.6283547 5.03294005 -9.25192152 3.36770553 -6.703125 1.578125 C-3.13697528 -0.85917157 -3.13697528 -0.85917157 0 0 Z " fill="#FA7CA0" transform="translate(262.453125,385.671875)"/>
<path d="M0 0 C0.96205088 6.37358711 1.10655578 12.55929529 1 19 C-4.97888178 20.63527927 -10.79840338 21.57200684 -16.95703125 22.21875 C-17.89947189 22.32215698 -18.84191254 22.42556396 -19.81291199 22.53210449 C-22.81223745 22.85992296 -25.81232447 23.18006517 -28.8125 23.5 C-30.78325763 23.7143432 -32.75396131 23.92918309 -34.72460938 24.14453125 C-46.81301935 25.461363 -58.90612247 26.73449524 -71 28 C-72.11271741 21.25415067 -73.05714832 14.85422605 -73 8 C-34.41401656 3.08189243 -34.41401656 3.08189243 -16.8125 1.1875 C-15.67586914 1.0639917 -14.53923828 0.9404834 -13.36816406 0.81323242 C-8.88407007 0.3412043 -4.51306938 -0.06232262 0 0 Z " fill="#90AFF2" transform="translate(342,325)"/>
<path d="M0 0 C0 6.93 0 13.86 0 21 C-4.19470207 21.43286852 -8.38947252 21.86185498 -12.58544922 22.28173828 C-14.00721656 22.42510169 -15.42877604 22.57054473 -16.85009766 22.71826172 C-25.59539198 23.62550114 -34.19434694 24.16562357 -43 24 C-43 17.4 -43 10.8 -43 4 C-33.96823491 2.81827373 -24.94162261 1.75182476 -15.875 0.875 C-14.98723877 0.78750488 -14.09947754 0.70000977 -13.18481445 0.60986328 C-12.33749756 0.52978027 -11.49018066 0.44969727 -10.6171875 0.3671875 C-9.87065918 0.29612793 -9.12413086 0.22506836 -8.35498047 0.15185547 C-5.57529999 -0.0273858 -2.78545346 0 0 0 Z " fill="#6965F6" transform="translate(330,153)"/>
<path d="M0 0 C3.16562072 3.89444968 6.16584393 7.88621158 9.125 11.9375 C9.59856934 12.58485107 10.07213867 13.23220215 10.56005859 13.89916992 C13.93559018 18.52218057 17.29031312 23.15994584 20.625 27.8125 C21.26332764 28.70086548 21.26332764 28.70086548 21.91455078 29.60717773 C24.88024764 33.76049528 24.88024764 33.76049528 26 36 C23.21251481 37.67373751 20.41935573 39.33776267 17.625 41 C16.43390625 41.71542969 16.43390625 41.71542969 15.21875 42.4453125 C14.45820313 42.89648438 13.69765625 43.34765625 12.9140625 43.8125 C11.8614624 44.44091797 11.8614624 44.44091797 10.78759766 45.08203125 C9 46 9 46 7 46 C5.75415039 44.49389648 5.75415039 44.49389648 4.34765625 42.37109375 C3.82324951 41.58968018 3.29884277 40.8082666 2.75854492 40.00317383 C2.1988501 39.15650146 1.63915527 38.3098291 1.0625 37.4375 C-4.7438586 28.78957561 -10.77289762 20.34856011 -17 12 C-13.8296865 8.51579408 -10.26911027 6.13496654 -6.25 3.75 C-5.64800781 3.38648438 -5.04601562 3.02296875 -4.42578125 2.6484375 C-2.95361969 1.76046703 -1.4772326 0.87950842 0 0 Z " fill="#6865F6" transform="translate(416,193)"/>
<path d="M0 0 C2.25195063 1.26747489 4.50155747 2.53882868 6.75 3.8125 C7.38421875 4.16892578 8.0184375 4.52535156 8.671875 4.89257812 C9.290625 5.24384766 9.909375 5.59511719 10.546875 5.95703125 C11.11245117 6.27647705 11.67802734 6.59592285 12.26074219 6.92504883 C14.27083224 8.16738832 16.12782163 9.56000074 18 11 C15.64723468 16.2571795 13.28088799 21.5079393 10.90161133 26.75317383 C10.09378638 28.53922556 9.28973143 30.32698736 8.48950195 32.11645508 C7.34006594 34.68507091 6.17730983 37.24727606 5.01171875 39.80859375 C4.65534836 40.6127623 4.29897797 41.41693085 3.93180847 42.24546814 C3.03344115 44.20184129 2.02527748 46.10704838 1 48 C-2 49 -2 49 -3.80932617 48.28735352 C-4.79122925 47.71392212 -4.79122925 47.71392212 -5.79296875 47.12890625 C-6.8612793 46.51499023 -6.8612793 46.51499023 -7.95117188 45.88867188 C-8.68916016 45.45103516 -9.42714844 45.01339844 -10.1875 44.5625 C-11.31188477 43.9118457 -11.31188477 43.9118457 -12.45898438 43.24804688 C-14.31127243 42.17442769 -16.1563425 41.08837319 -18 40 C-15.66468316 32.18101325 -12.32375476 24.9178694 -8.84716797 17.55859375 C-7.865154 15.47915081 -6.89102126 13.39614929 -5.91796875 11.3125 C-5.29732523 9.98937205 -4.67624766 8.66644759 -4.0546875 7.34375 C-3.76302704 6.7209314 -3.47136658 6.09811279 -3.17086792 5.4564209 C-1.11643226 1.11643226 -1.11643226 1.11643226 0 0 Z " fill="#6865F6" transform="translate(432,314)"/>
<path d="M0 0 C2.99937545 1.59966691 4.58453638 2.79263058 5.70703125 6.0546875 C6.30141068 9.35432658 6.60477844 11.85685016 5.00390625 14.8828125 C2.3889836 18.09521005 0.37934879 19.77545485 -3.6875 20.4375 C-7.76056361 19.8995482 -9.67990048 18.62604932 -12.6328125 15.84375 C-14.60309874 13.18667828 -14.85979433 11.21708179 -14.56640625 7.96484375 C-13.54039909 4.40566031 -11.67171205 2.54744638 -9 0 C-5.39965901 -1.20011366 -3.65462165 -0.95020163 0 0 Z " fill="#6966F6" transform="translate(336,543)"/>
<path d="M0 0 C2.69105198 2.17574416 4.45532928 3.91065856 6 7 C6.41204834 11.63554388 5.87454146 14.30416098 3 18 C-0.42094119 20.56570589 -3.84773484 20.43708054 -8 20 C-11.38939556 17.86320715 -12.72582557 16.8225233 -14 13 C-14.38887761 8.80012182 -14.45908323 6.70392762 -12.125 3.125 C-8.55624116 -0.44375884 -4.90002395 -0.86360575 0 0 Z " fill="#6965F6" transform="translate(283,528)"/>
<path d="M0 0 C3.33014331 2.01065256 5.36952397 3.26268827 6.703125 6.9375 C7.31617174 10.45585519 7.19013797 12.53966596 5.8125 15.875 C2.71073125 19.51155647 0.85336097 19.90518211 -3.9375 20.4375 C-7.21506512 20.32722678 -8.08823293 19.94301623 -11 18.0625 C-13.67835983 13.96126151 -13.95120167 10.77330294 -13 6 C-9.7239304 0.57753997 -6.23204555 -0.73318183 0 0 Z " fill="#6A67F7" transform="translate(376,500)"/>
</svg>
