<?xml version="1.0" encoding="UTF-8"?>
<svg version="1.1" xmlns="http://www.w3.org/2000/svg" width="640" height="640">
<path d="M0 0 C211.2 0 422.4 0 640 0 C640 211.2 640 422.4 640 640 C428.8 640 217.6 640 0 640 C0 428.8 0 217.6 0 0 Z " fill="#FEFEFE" transform="translate(0,0)"/>
<path d="M0 0 C2.69042969 1.1105957 2.69042969 1.1105957 5.421875 2.67578125 C6.43942871 3.25158936 7.45698242 3.82739746 8.50537109 4.4206543 C9.57609863 5.04496338 10.64682617 5.66927246 11.75 6.3125 C12.8529541 6.94389893 13.9559082 7.57529785 15.09228516 8.22583008 C21.8956756 12.1403189 28.6595719 16.12389492 35.375 20.1875 C36.11073242 20.63198486 36.84646484 21.07646973 37.60449219 21.53442383 C38.27899414 21.94974365 38.95349609 22.36506348 39.6484375 22.79296875 C40.22770996 23.1489917 40.80698242 23.50501465 41.40380859 23.87182617 C43.22613468 25.15982997 44.58525588 26.25881721 46 28 C46.39440918 30.37716675 46.39440918 30.37716675 46.41992188 33.21826172 C46.43583374 34.28301727 46.45174561 35.34777283 46.46813965 36.4447937 C46.46834106 37.59480865 46.46854248 38.74482361 46.46875 39.9296875 C46.47636353 41.11217072 46.48397705 42.29465393 46.49182129 43.51296997 C46.50263497 46.01627489 46.50547028 48.51962498 46.50097656 51.02294922 C46.5000055 54.85330587 46.54159092 58.68165213 46.5859375 62.51171875 C46.59114522 64.94270415 46.59383268 67.37369652 46.59375 69.8046875 C46.61014526 70.95065399 46.62654053 72.09662048 46.64343262 73.27731323 C46.56653229 82.12859106 46.56653229 82.12859106 43.46289062 85.26220703 C42.65013672 85.83567871 41.83738281 86.40915039 41 87 C42.51119445 91.83220262 45.2595626 94.92480912 48.5625 98.625 C49.64279866 99.86121806 50.72221548 101.09820725 51.80078125 102.3359375 C52.60636475 103.25584473 52.60636475 103.25584473 53.42822266 104.19433594 C55.73969498 106.84976453 58.00176225 109.54067693 60.25 112.25 C60.97703125 113.12140625 61.7040625 113.9928125 62.453125 114.890625 C64 117 64 117 64 119 C73.29157498 114.52789061 73.29157498 114.52789061 81.890625 108.8828125 C85.401303 107.41352875 88.33260381 107.23985682 92 108 C96.39920633 109.96561891 100.45429601 112.42881385 104.5625 114.9375 C105.72261489 115.63082745 106.88359113 116.3227156 108.04541016 117.01318359 C110.33064091 118.37451068 112.60863916 119.74602781 114.88427734 121.12353516 C117.53812612 122.72183336 120.20598406 124.28536793 122.89453125 125.82421875 C124.22142179 126.59102884 125.54825152 127.35794415 126.875 128.125 C127.98617188 128.76695312 129.09734375 129.40890625 130.2421875 130.0703125 C133.42187494 132.29519294 134.99613623 133.64035734 137 137 C137.61372995 140.96550737 137.58418328 144.89979561 137.56640625 148.90625 C137.57260483 150.06370728 137.57880341 151.22116455 137.58518982 152.41369629 C137.59228572 154.85798299 137.58911808 157.30231804 137.57641602 159.74658203 C137.56254855 163.48690647 137.59663133 167.22473047 137.63476562 170.96484375 C137.6357168 173.34114645 137.63385808 175.71745227 137.62890625 178.09375 C137.64216446 179.2115686 137.65542267 180.32938721 137.66908264 181.4810791 C137.57645395 189.20130262 137.57645395 189.20130262 134.81591797 193.02612305 C132.02884367 194.97978142 129.27914812 196.81121593 126.31640625 198.48828125 C124.68711182 199.41918579 124.68711182 199.41918579 123.02490234 200.36889648 C121.31101318 201.33098022 121.31101318 201.33098022 119.5625 202.3125 C118.38201389 202.9800016 117.20183906 203.64805401 116.02197266 204.31665039 C113.71570857 205.62336971 111.4079296 206.9272568 109.09912109 208.22949219 C106.52442563 209.70039903 103.98258443 211.20480692 101.45703125 212.7578125 C100.83304443 213.13639404 100.20905762 213.51497559 99.56616211 213.9050293 C98.01445527 214.85236122 96.47160331 215.81415761 94.9296875 216.77734375 C90.95015366 218.43813587 88.30695273 218.35096899 84 218 C81.75732422 216.98022461 81.75732422 216.98022461 80 216 C71.18195858 234.50967188 71.18195858 234.50967188 67 254 C68.71680521 255.49503587 68.71680521 255.49503587 71.05078125 256.62109375 C71.89447266 257.08193359 72.73816406 257.54277344 73.60742188 258.01757812 C74.94643555 258.72043945 74.94643555 258.72043945 76.3125 259.4375 C78.06492783 260.3617871 79.81130824 261.29765105 81.55078125 262.24609375 C82.33106689 262.65529053 83.11135254 263.0644873 83.9152832 263.48608398 C86.51944063 265.37721646 87.54194477 267.13609053 89 270 C89.38768005 272.57971191 89.38768005 272.57971191 89.40405273 275.35351562 C89.42307899 276.92039124 89.42307899 276.92039124 89.44248962 278.5189209 C89.43808617 280.1956488 89.43808617 280.1956488 89.43359375 281.90625 C89.4388356 283.06370728 89.44407745 284.22116455 89.44947815 285.41369629 C89.45589433 287.85798338 89.45456662 290.30230137 89.44604492 292.74658203 C89.43753059 296.48656116 89.46631172 300.22501528 89.49804688 303.96484375 C89.49965887 306.34114538 89.49908139 308.71744971 89.49609375 311.09375 C89.50732773 312.2115686 89.51856171 313.32938721 89.53013611 314.4810791 C89.46112936 322.16508969 89.46112936 322.16508969 87.33349609 326.01733398 C84.72698254 328.23197057 82.14988971 329.94892103 79.16796875 331.62890625 C78.03939453 332.27150391 76.91082031 332.91410156 75.74804688 333.57617188 C74.56134128 334.23853818 73.37449125 334.90064575 72.1875 335.5625 C71.01183456 336.22757036 69.83669916 336.89357861 68.66210938 337.56054688 C66.42739751 338.82607807 64.19036486 340.08752268 61.95068359 341.34423828 C58.62320867 343.21143462 55.30953369 345.10124564 52 347 C53.23025779 350.17816596 54.58122433 353.27804564 56 356.375 C61.06610473 367.92496266 61.7960731 379.27415316 57.25390625 391.19140625 C51.86177234 403.26911429 44.42146475 411.81797844 32.48046875 417.7109375 C20.77672749 422.04565648 9.68132059 422.53912263 -2.64453125 422.73046875 C-4.5639676 422.77019513 -6.48338094 422.8110476 -8.402771 422.85295105 C-13.49248009 422.96020809 -18.58234218 423.04979497 -23.67247391 423.13433075 C-26.81637892 423.18756568 -29.9601739 423.24513874 -33.10397339 423.30426025 C-45.30393221 423.53365017 -57.50408056 423.73788735 -69.70483398 423.91998291 C-73.70850558 423.97978735 -77.71207013 424.0443136 -81.71561718 424.11188793 C-88.04724289 424.21855507 -94.37842211 424.30469455 -100.71078491 424.35147095 C-102.58586804 424.36694196 -104.46091235 424.38855374 -106.33584595 424.4168396 C-121.88338694 424.63372382 -134.47629235 421.72871332 -146.29296875 410.8984375 C-151.05515607 405.84140556 -154.36813605 400.41644352 -157 394 C-157.54720703 392.67935547 -157.54720703 392.67935547 -158.10546875 391.33203125 C-161.3288315 379.32535691 -160.04574249 365.78015491 -154 355 C-153.47881592 354.22011719 -152.95763184 353.44023437 -152.4206543 352.63671875 C-150.30217037 347.21363289 -150.73035486 342.10316111 -150.8828125 336.33984375 C-150.91586842 333.83008471 -150.94840478 331.32031878 -150.98046875 328.81054688 C-151.04888896 324.86457127 -151.12540791 320.91899947 -151.21240234 316.97338867 C-151.29080488 313.15803605 -151.33849102 309.34322224 -151.3828125 305.52734375 C-151.41803009 304.34704086 -151.45324768 303.16673798 -151.48953247 301.95066833 C-151.56418752 293.7776591 -151.56418752 293.7776591 -148.66357422 289.77954102 C-146 288 -146 288 -143 287 C-149.15030713 279.0336573 -155.41944375 271.2145517 -162.02636719 263.62060547 C-169 255.59644232 -169 255.59644232 -169 253 C-167.43945313 251.85498047 -167.43945313 251.85498047 -165.28125 250.6171875 C-164.13076172 249.95009766 -164.13076172 249.95009766 -162.95703125 249.26953125 C-162.14621094 248.80933594 -161.33539063 248.34914063 -160.5 247.875 C-159.28376953 247.17310547 -159.28376953 247.17310547 -158.04296875 246.45703125 C-156.03237359 245.29798228 -154.01803239 244.14603529 -152 243 C-148.34677216 246.56107434 -144.96425507 250.27540196 -141.6875 254.1875 C-141.21111084 254.75267334 -140.73472168 255.31784668 -140.24389648 255.90014648 C-136.66518253 260.16229331 -133.17902846 264.49208666 -129.75390625 268.87890625 C-127.9511275 271.05910416 -126.01136935 273.01304867 -124 275 C-120.6164877 273.30301466 -117.27608613 271.53353704 -113.9375 269.75 C-112.52307617 269.04230469 -112.52307617 269.04230469 -111.08007812 268.3203125 C-103.37850859 264.13409352 -99.35429205 259.09028286 -96 251 C-95.14172115 246.19588937 -95.17576987 241.57080989 -95.31640625 236.703125 C-95.32631088 235.38834167 -95.33621552 234.07355835 -95.34642029 232.71893311 C-95.37282833 229.2657311 -95.44129616 225.81467372 -95.51934814 222.36230469 C-95.59166088 218.82256061 -95.62307483 215.28246126 -95.65820312 211.7421875 C-95.73270872 204.82725792 -95.85177451 197.91373259 -96 191 C-97.14082031 190.82210937 -97.14082031 190.82210937 -98.3046875 190.640625 C-103.04909347 189.51296909 -106.05448196 186.33676689 -108.8125 182.4375 C-111.89352933 176.1132819 -111.25791129 169.23971758 -111.29516602 162.35595703 C-111.30669494 160.87213614 -111.32716158 159.38835701 -111.35668945 157.90478516 C-111.3995095 155.75134348 -111.41555154 153.5991278 -111.42578125 151.4453125 C-111.44036377 150.16156738 -111.45494629 148.87782227 -111.4699707 147.55517578 C-110.73908546 142.02626619 -108.07036241 139.02382491 -104.125 135.25 C-99.19401123 131.69968808 -94.70620285 130.76052009 -88.69921875 130.5859375 C-86.80284668 130.52744629 -86.80284668 130.52744629 -84.86816406 130.46777344 C-83.47463048 130.43591226 -82.0810745 130.40501841 -80.6875 130.375 C-79.97444702 130.35731567 -79.26139404 130.33963135 -78.5267334 130.32141113 C-72.68496438 130.17763246 -66.84293999 130.081481 -61 130 C-59.98383606 129.9856189 -58.96767212 129.97123779 -57.92071533 129.9564209 C-51.30061492 129.86724692 -44.68081891 129.80515216 -38.06021118 129.76983643 C-35.8591481 129.75664657 -33.65810811 129.738727 -31.4571228 129.71600342 C-28.34106517 129.68613056 -25.22555988 129.67635321 -22.109375 129.671875 C-21.17634048 129.65957855 -20.24330597 129.6472821 -19.28199768 129.63461304 C-13.07558199 129.65561541 -8.73162464 130.55509169 -3.953125 134.83203125 C-3.39109375 135.48558594 -2.8290625 136.13914063 -2.25 136.8125 C-1.67765625 137.45832031 -1.1053125 138.10414063 -0.515625 138.76953125 C4.04174669 145.47638495 3.36698024 153.10385224 3.375 160.875 C3.39949219 162.11636719 3.42398438 163.35773438 3.44921875 164.63671875 C3.47565447 172.91110041 2.89524003 179.06066292 -3.0703125 185.09375 C-3.74835938 185.5578125 -4.42640625 186.021875 -5.125 186.5 C-5.80820312 186.9846875 -6.49140625 187.469375 -7.1953125 187.96875 C-9 189 -9 189 -11 189 C-10.87978693 194.65194711 -10.75546577 200.3037853 -10.62768555 205.95556641 C-10.5849486 207.86960531 -10.54324524 209.78366763 -10.50268555 211.69775391 C-10.36587527 218.13290395 -10.19723062 224.5664237 -10 231 C-9.97573944 231.86739807 -9.95147888 232.73479614 -9.92648315 233.628479 C-9.85230853 236.0865446 -9.75774088 238.54292805 -9.65625 241 C-9.6364357 241.72178436 -9.6166214 242.44356873 -9.59620667 243.18722534 C-9.29129131 249.57058785 -7.0052045 254.12516395 -3 259 C1.54066703 258.46676334 4.67577122 257.32104137 8.58984375 254.98046875 C9.62173828 254.37009766 10.65363281 253.75972656 11.71679688 253.13085938 C12.77962891 252.48955078 13.84246094 251.84824219 14.9375 251.1875 C17.05071998 249.93088654 19.1639997 248.67437354 21.27734375 247.41796875 C25.23232731 245.06022437 25.23232731 245.06022437 29.17016602 242.67407227 C34.00700034 239.7771344 36.47272183 239.38585798 42 240 C45.5 241.5 45.5 241.5 48 243 C48.22558594 241.78957031 48.45117188 240.57914063 48.68359375 239.33203125 C50.12072233 232.86558572 52.62169971 226.82920256 55.0625 220.6875 C55.97209339 218.37970977 56.87973235 216.071148 57.78515625 213.76171875 C58.18613525 212.75069092 58.58711426 211.73966309 59.00024414 210.69799805 C59.82701698 208.46682183 60.48856977 206.31956575 61 204 C60.33355469 203.76152344 59.66710937 203.52304687 58.98046875 203.27734375 C55.22538034 201.66802015 51.81059406 199.6627136 48.3125 197.5625 C47.63638672 197.16740234 46.96027344 196.77230469 46.26367188 196.36523438 C43.0760478 194.45900346 41.08809789 193.13214684 39 190 C38.72584534 187.66752625 38.72584534 187.66752625 38.69360352 184.8894043 C38.67761612 183.84789719 38.66162872 182.80639008 38.64515686 181.73332214 C38.63979416 180.60831802 38.63443146 179.4833139 38.62890625 178.32421875 C38.61987778 177.16630325 38.6108493 176.00838776 38.60154724 174.81538391 C38.58702881 172.36335847 38.57815407 169.91129416 38.57446289 167.45922852 C38.56257893 163.71238631 38.51341567 159.96719703 38.46289062 156.22070312 C38.45342519 153.83854971 38.44619074 151.45638617 38.44140625 149.07421875 C38.42187393 147.95528732 38.40234161 146.8363559 38.38221741 145.68351746 C38.43245065 136.99716243 38.43245065 136.99716243 41.40991211 133.37036133 C42.26464111 132.58814209 43.11937012 131.80592285 44 131 C44.66 130.34 45.32 129.68 46 129 C45.29875 128.17757812 44.5975 127.35515625 43.875 126.5078125 C38.7340693 120.46399107 33.65659437 114.38630113 28.7265625 108.16796875 C26.52796965 105.4072922 24.27318501 102.6994072 22 100 C16.26374717 100.6249614 11.87530276 103.82070361 7.05859375 106.76171875 C6.38183594 107.16003906 5.70507812 107.55835938 5.0078125 107.96875 C4.40598145 108.33419922 3.80415039 108.69964844 3.18408203 109.07617188 C-1.19418486 110.92810144 -4.64600128 111.52498108 -9.12695312 109.78759766 C-10.16787109 109.16933105 -11.20878906 108.55106445 -12.28125 107.9140625 C-12.85295425 107.58157501 -13.42465851 107.24908752 -14.01368713 106.90652466 C-15.85369149 105.83054745 -17.67656292 104.72877823 -19.5 103.625 C-20.75877621 102.88029894 -22.01846468 102.13713776 -23.27905273 101.39550781 C-25.74813255 99.93894822 -28.21054888 98.47207208 -30.66748047 96.99511719 C-33.4533045 95.32729638 -36.25124869 93.68784218 -39.06640625 92.0703125 C-49.5411945 85.99483814 -49.5411945 85.99483814 -52 82 C-52.40786743 79.50930786 -52.40786743 79.50930786 -52.45166016 76.68408203 C-52.4740274 75.6226297 -52.49639465 74.56117737 -52.5194397 73.46755981 C-52.52915298 71.75498489 -52.52915298 71.75498489 -52.5390625 70.0078125 C-52.55141937 68.82911591 -52.56377625 67.65041931 -52.57650757 66.43600464 C-52.59607531 63.94290127 -52.60730616 61.44972062 -52.61083984 58.95654297 C-52.62492425 55.14549714 -52.69225987 51.33773003 -52.76171875 47.52734375 C-52.77411729 45.10418124 -52.78333686 42.68099996 -52.7890625 40.2578125 C-52.81578033 39.12014435 -52.84249817 37.9824762 -52.87002563 36.81033325 C-52.80412183 29.12336807 -52.80412183 29.12336807 -50.58735657 26.02651978 C-48.80738714 24.44694829 -47.04520668 23.21176672 -45 22 C-44.05374756 21.3930127 -43.10749512 20.78602539 -42.13256836 20.16064453 C-41.21096924 19.65645996 -40.28937012 19.15227539 -39.33984375 18.6328125 C-38.30512939 18.06062988 -37.27041504 17.48844727 -36.2043457 16.89892578 C-35.12628662 16.31353027 -34.04822754 15.72813477 -32.9375 15.125 C-30.70006035 13.89667175 -28.46307803 12.66751007 -26.2265625 11.4375 C-24.6182959 10.55578125 -24.6182959 10.55578125 -22.97753906 9.65625 C-20.44501213 8.24753709 -17.9453234 6.80382197 -15.4609375 5.3125 C-14.51166382 4.74571533 -14.51166382 4.74571533 -13.54321289 4.16748047 C-11.94691316 3.20596265 -10.35786837 2.23242757 -8.76953125 1.2578125 C-5.50108831 -0.22658613 -3.56737396 -0.27703752 0 0 Z " fill="#072C76" transform="translate(372,101)"/>
<path d="M0 0 C4.08006553 1.94142263 7.97032568 4.1672719 11.875 6.4375 C12.97674561 7.06841553 14.07849121 7.69933105 15.21362305 8.34936523 C17.43586112 9.62464801 19.65522677 10.90495018 21.87158203 12.19042969 C24.6631504 13.80515614 27.46636681 15.39596667 30.27734375 16.9765625 C31.78958456 17.83762544 33.30134296 18.69953647 34.8125 19.5625 C35.49231934 19.94269287 36.17213867 20.32288574 36.87255859 20.71459961 C40.78297323 22.98586103 43.74394896 25.03912449 46 29 C46.31278891 31.75980763 46.18935821 34.20696633 46 37 C46.54301758 36.88930176 47.08603516 36.77860352 47.64550781 36.66455078 C75.50260146 31 75.50260146 31 85 31 C85 24.07 85 17.14 85 10 C85.33 10 85.66 10 86 10 C86.00142502 10.62782883 86.00285004 11.25565765 86.00431824 11.9025116 C86.02401328 18.44041566 86.07828305 24.97738583 86.15258789 31.51489258 C86.17577689 33.95427753 86.19016568 36.39376274 86.19555664 38.83325195 C86.20483906 42.34129375 86.24581782 45.84775672 86.29296875 49.35546875 C86.28706978 50.99010323 86.28706978 50.99010323 86.28105164 52.65776062 C86.36447242 58.73621997 86.36447242 58.73621997 89.15722656 63.99389648 C92.10837231 66.07647675 95.03891607 67.97648931 98.19140625 69.7421875 C98.77736069 70.07364777 99.36331512 70.40510803 99.96702576 70.74661255 C101.82793753 71.79717929 103.69489331 72.83639065 105.5625 73.875 C107.39648619 74.90502375 109.22915048 75.93735889 111.06137085 76.97052002 C112.27035447 77.65011022 113.48131382 78.32619786 114.69424438 78.99871826 C117.62911712 80.63112325 120.48915449 82.30870573 123.33154297 84.10253906 C129.10163922 87.82992684 129.10163922 87.82992684 135.67578125 89.2578125 C141.01428459 87.23783826 145.72395415 84.3679368 150.59179688 81.41796875 C151.35943359 80.96808594 152.12707031 80.51820313 152.91796875 80.0546875 C153.95087036 79.42796143 153.95087036 79.42796143 155.00463867 78.78857422 C157.49687238 77.80363419 158.5472758 77.97234674 161 79 C163.02510054 81.08078348 164.85725191 83.13457946 166.6875 85.375 C167.21206787 86.0033374 167.73663574 86.6316748 168.27709961 87.27905273 C169.34686825 88.5635233 170.41239659 89.85153737 171.47363281 91.14306641 C172.86592802 92.83689196 174.27001915 94.51985158 175.6796875 96.19921875 C179.12262193 100.33638423 182.32133638 104.31859722 185 109 C183.47005208 110.23697917 181.94010417 111.47395833 180.41015625 112.7109375 C178.47125123 114.48334375 178.02610162 115.60526335 177.85282898 118.22567749 C177.84298477 119.15071075 177.83314056 120.07574402 177.82299805 121.02880859 C177.81016281 122.07684662 177.79732758 123.12488464 177.78410339 124.2046814 C177.77671646 125.34112091 177.76932953 126.47756042 177.76171875 127.6484375 C177.753647 128.81251129 177.74557526 129.97658508 177.73725891 131.17593384 C177.72341082 133.64233914 177.71269193 136.10876366 177.70483398 138.57519531 C177.68760227 142.35258097 177.64371889 146.12909594 177.59960938 149.90625 C177.58948447 152.29947271 177.58096774 154.69270288 177.57421875 157.0859375 C177.54795662 158.78452408 177.54795662 158.78452408 177.52116394 160.51742554 C177.52408951 161.57176788 177.52701508 162.62611023 177.5300293 163.71240234 C177.52416306 164.63902679 177.51829681 165.56565125 177.51225281 166.52035522 C178.28655654 170.45681704 180.81468732 172.19274633 184.01464844 174.37207031 C184.7059082 174.77006836 185.39716797 175.16806641 186.109375 175.578125 C186.86347656 176.01640625 187.61757813 176.4546875 188.39453125 176.90625 C189.17183594 177.3496875 189.94914062 177.793125 190.75 178.25 C191.54277344 178.70890625 192.33554687 179.1678125 193.15234375 179.640625 C195.09840405 180.76605746 197.04759896 181.88561584 199 183 C198.37623063 187.61880072 197.15628643 191.67932628 195.53125 196.04296875 C195.29088013 196.69324539 195.05051025 197.34352203 194.80285645 198.01350403 C194.04023802 200.07340002 193.27032863 202.13047655 192.5 204.1875 C191.73138106 206.25584058 190.9642386 208.32472484 190.19714355 210.39363098 C189.5028864 212.26352659 188.80524128 214.13216327 188.10742188 216.00073242 C187.37326461 217.98907502 186.67026063 219.9892181 186 222 C185.175 221.67 184.35 221.34 183.5 221 C178.03303054 219.43800873 173.80739806 219.24435365 168.60083008 221.42114258 C167.50150146 222.07236084 166.40217285 222.7235791 165.26953125 223.39453125 C164.67121994 223.74255295 164.07290863 224.09057465 163.45646667 224.44914246 C161.56518728 225.55428197 159.68910947 226.68266751 157.8125 227.8125 C156.5432494 228.55952797 155.27307295 229.30498521 154.00195312 230.04882812 C149.72406767 232.55951977 145.45083509 235.07555116 141.26733398 237.74121094 C139 239 139 239 136.390625 238.93359375 C132.49818627 237.41350738 131.24397085 234.98694323 129.32177734 231.38964844 C127.81743969 227.53183092 127.49191154 224.06425777 127.3671875 219.98046875 C127.33468903 219.20374817 127.30219055 218.42702759 127.26870728 217.62677002 C127.20175209 215.9547726 127.14110682 214.28251273 127.08618164 212.6100769 C126.99907043 209.97184725 126.89203836 207.33492421 126.78320312 204.69750977 C126.60613635 200.1410995 126.50050438 195.58657706 126.43017578 191.02734375 C126.3929566 189.15386836 126.33785917 187.28067418 126.26611328 185.40820312 C125.67457572 169.60842577 125.67457572 169.60842577 128.90722656 165.68554688 C131.2890625 164.234375 131.2890625 164.234375 133.75415039 163.10058594 C136.9749125 161.52224094 138.03650128 159.69156167 139.39501953 156.4453125 C140.73341854 151.03554475 140.52727767 145.53725471 140.4375 140 C140.44458984 138.76765625 140.45167969 137.5353125 140.45898438 136.265625 C140.40511592 128.54171687 140.27530857 121.84980826 135.0625 115.72265625 C134.381875 115.17480469 133.70125 114.62695312 133 114.0625 C132.319375 113.49660156 131.63875 112.93070312 130.9375 112.34765625 C127.88023473 110.22113101 125.31927658 109.87438697 121.70092773 109.87060547 C120.82871078 109.86751373 119.95649384 109.864422 119.05784607 109.86123657 C118.1093428 109.86320038 117.16083954 109.86516418 116.18359375 109.8671875 C115.19138321 109.86568695 114.19917267 109.8641864 113.17689514 109.86264038 C109.93038971 109.86027524 106.68399448 109.86655674 103.4375 109.875 C101.78621094 109.87832336 101.78621094 109.87832336 100.1015625 109.88171387 C92.40086364 109.89994469 84.70050316 109.94313156 77 110 C76.065047 110.0062439 75.13009399 110.01248779 74.16680908 110.0189209 C69.3221244 110.05374363 64.4788623 110.11071986 59.63504028 110.20953369 C58.22830641 110.2361961 56.82143917 110.25665285 55.41452026 110.27044678 C47.09929669 110.3612246 38.77095168 110.50807671 32.38867188 116.51708984 C27.01712115 122.73668075 27.78027047 128.63699382 27.75976562 136.43823242 C27.75011209 138.66168371 27.71911579 140.88418967 27.6875 143.10742188 C27.68096434 144.5338487 27.67571609 145.96028212 27.671875 147.38671875 C27.65785645 149.32357544 27.65785645 149.32357544 27.64355469 151.29956055 C28.28807973 157.99070171 30.78149357 162.63101787 36 167 C37.98559801 168.02829983 39.98413316 169.03238392 42 170 C42.30281547 179.64499491 42.57543407 189.29000905 42.8056488 198.93702698 C42.9248624 203.7215118 43.1085376 208.49701447 43.34765625 213.27734375 C44.13884588 232.05260514 44.13884588 232.05260514 38.17578125 240.15234375 C31.54744114 246.75286292 22.28541352 250.8808824 14 255 C10.19608028 251.29326071 6.68827009 247.42120909 3.25 243.375 C2.73066895 242.76688477 2.21133789 242.15876953 1.67626953 241.53222656 C-2.36998648 236.77908702 -6.33557859 231.96547413 -10.2578125 227.109375 C-11.97777519 224.95895522 -11.97777519 224.95895522 -14 223 C-15.72772902 224.01631119 -17.45544481 225.03264487 -19.18310547 226.04907227 C-20.69883895 226.94055467 -22.21479319 227.83166182 -23.73095703 228.72241211 C-27.76204879 231.09141662 -31.78924486 233.46658714 -35.80859375 235.85546875 C-36.57437744 236.30937988 -37.34016113 236.76329102 -38.12915039 237.23095703 C-39.60495572 238.10594804 -41.07944607 238.98316149 -42.55249023 239.86279297 C-47.64058367 242.87447512 -52.00779163 245.17279513 -58 244 C-62.1393301 242.18568821 -65.98462786 239.91736224 -69.875 237.625 C-70.97602051 236.99029785 -72.07704102 236.3555957 -73.21142578 235.70166016 C-75.43382168 234.41770274 -77.65246877 233.12723313 -79.8671875 231.83007812 C-82.67038115 230.19255166 -85.48652452 228.58213806 -88.3125 226.984375 C-89.83382797 226.11544878 -91.35469862 225.24572113 -92.875 224.375 C-93.90729736 223.79226318 -93.90729736 223.79226318 -94.96044922 223.19775391 C-98.44129224 221.16807924 -100.91195908 219.45724612 -103 216 C-103.39440918 213.50257874 -103.39440918 213.50257874 -103.41992188 210.66821289 C-103.43583374 209.60353287 -103.45174561 208.53885284 -103.46813965 207.44190979 C-103.46834106 206.29705612 -103.46854248 205.15220245 -103.46875 203.97265625 C-103.47636353 202.79158798 -103.48397705 201.61051971 -103.49182129 200.3936615 C-103.50262514 197.89633295 -103.50547426 195.3989592 -103.50097656 192.90161133 C-103.50000448 189.08012569 -103.54162237 185.26064872 -103.5859375 181.43945312 C-103.59114458 179.01302502 -103.59383269 176.58658994 -103.59375 174.16015625 C-103.61014526 173.01732681 -103.62654053 171.87449738 -103.64343262 170.69703674 C-103.57469229 162.80882377 -103.57469229 162.80882377 -100.84985352 158.97387695 C-97.88880004 156.92298024 -94.95241407 155.01865474 -91.80859375 153.2578125 C-91.22263931 152.92635223 -90.63668488 152.59489197 -90.03297424 152.25338745 C-88.17206247 151.20282071 -86.30510669 150.16360935 -84.4375 149.125 C-82.60337897 148.09490052 -80.7705763 147.06248392 -78.93786621 146.02987671 C-77.73048893 145.3506408 -76.52207792 144.67323901 -75.31262207 143.99771118 C-72.37194111 142.35264953 -69.4502166 140.68464808 -66.55859375 138.95458984 C-64.9653125 138.00253662 -64.9653125 138.00253662 -63.33984375 137.03125 C-62.40132568 136.46212891 -61.46280762 135.89300781 -60.49584961 135.30664062 C-57.09412265 133.52575021 -54.75683543 133.24863291 -51 134 C-47.5625 135.5 -47.5625 135.5 -45 137 C-44.77441406 135.78957031 -44.54882812 134.57914063 -44.31640625 133.33203125 C-42.87927767 126.86558572 -40.37830029 120.82920256 -37.9375 114.6875 C-37.02790661 112.37970977 -36.12026765 110.071148 -35.21484375 107.76171875 C-34.81386475 106.75069092 -34.41288574 105.73966309 -33.99975586 104.69799805 C-33.17298302 102.46682183 -32.51143023 100.31956575 -32 98 C-32.67933594 97.74863281 -33.35867187 97.49726563 -34.05859375 97.23828125 C-37.5276937 95.77785006 -40.78778373 94.03148127 -44.0625 92.1875 C-44.67416016 91.85685547 -45.28582031 91.52621094 -45.91601562 91.18554688 C-49.955275 88.91046132 -52.6548872 87.00475999 -55 83 C-55.60138853 78.96014732 -55.56022293 74.95311971 -55.53125 70.875 C-55.5350769 69.69534668 -55.53890381 68.51569336 -55.54284668 67.30029297 C-55.54556581 64.80891058 -55.5382047 62.31749964 -55.52148438 59.82617188 C-55.50007679 56.01367518 -55.52128817 52.20306311 -55.546875 48.390625 C-55.54423173 45.96874584 -55.53910676 43.54686786 -55.53125 41.125 C-55.53934692 39.98530762 -55.54744385 38.84561523 -55.55578613 37.67138672 C-55.46308515 29.84422519 -55.46308515 29.84422519 -53.33886719 25.97167969 C-50.69217148 23.74049863 -48.07118327 22.01798857 -45.046875 20.328125 C-44.4738414 20.0039006 -43.9008078 19.67967621 -43.31040955 19.34562683 C-41.46257874 18.30330433 -39.60690567 17.27605478 -37.75 16.25 C-36.47591254 15.53856809 -35.202232 14.82640694 -33.92895508 14.11352539 C-32.03566515 13.05397948 -30.14185737 11.99547883 -28.24543762 10.94154358 C-24.74033419 8.99081775 -21.27291884 6.99265802 -17.83984375 4.91796875 C-16.76041504 4.27456543 -16.76041504 4.27456543 -15.65917969 3.61816406 C-14.39217273 2.85946599 -13.13287035 2.08766592 -11.88378906 1.29980469 C-7.48481473 -1.28857731 -4.86678546 -1.42175755 0 0 Z " fill="#6965F6" transform="translate(234,122)"/>
<path d="M0 0 C2.69042969 1.1105957 2.69042969 1.1105957 5.421875 2.67578125 C6.94820557 3.53949341 6.94820557 3.53949341 8.50537109 4.4206543 C9.57609863 5.04496338 10.64682617 5.66927246 11.75 6.3125 C12.8529541 6.94389893 13.9559082 7.57529785 15.09228516 8.22583008 C21.8956756 12.1403189 28.6595719 16.12389492 35.375 20.1875 C36.47859863 20.85422729 36.47859863 20.85422729 37.60449219 21.53442383 C38.27899414 21.94974365 38.95349609 22.36506348 39.6484375 22.79296875 C40.51734619 23.32700317 40.51734619 23.32700317 41.40380859 23.87182617 C43.22613468 25.15982997 44.58525588 26.25881721 46 28 C46.39440918 30.37716675 46.39440918 30.37716675 46.41992188 33.21826172 C46.44378967 34.81539505 46.44378967 34.81539505 46.46813965 36.4447937 C46.46834106 37.59480865 46.46854248 38.74482361 46.46875 39.9296875 C46.47636353 41.11217072 46.48397705 42.29465393 46.49182129 43.51296997 C46.50263497 46.01627489 46.50547028 48.51962498 46.50097656 51.02294922 C46.5000055 54.85330587 46.54159092 58.68165213 46.5859375 62.51171875 C46.59114522 64.94270415 46.59383268 67.37369652 46.59375 69.8046875 C46.61014526 70.95065399 46.62654053 72.09662048 46.64343262 73.27731323 C46.56653229 82.12859106 46.56653229 82.12859106 43.46289062 85.26220703 C42.65013672 85.83567871 41.83738281 86.40915039 41 87 C42.51119445 91.83220262 45.2595626 94.92480912 48.5625 98.625 C49.64279866 99.86121806 50.72221548 101.09820725 51.80078125 102.3359375 C52.33783691 102.94920898 52.87489258 103.56248047 53.42822266 104.19433594 C55.73969498 106.84976453 58.00176225 109.54067693 60.25 112.25 C60.97703125 113.12140625 61.7040625 113.9928125 62.453125 114.890625 C64 117 64 117 64 119 C73.29157498 114.52789061 73.29157498 114.52789061 81.890625 108.8828125 C85.401303 107.41352875 88.33260381 107.23985682 92 108 C96.39920633 109.96561891 100.45429601 112.42881385 104.5625 114.9375 C105.72261489 115.63082745 106.88359113 116.3227156 108.04541016 117.01318359 C110.33064091 118.37451068 112.60863916 119.74602781 114.88427734 121.12353516 C117.53812612 122.72183336 120.20598406 124.28536793 122.89453125 125.82421875 C124.22142179 126.59102884 125.54825152 127.35794415 126.875 128.125 C127.98617187 128.76695312 129.09734375 129.40890625 130.2421875 130.0703125 C133.42187494 132.29519294 134.99613623 133.64035734 137 137 C137.61372995 140.96550737 137.58418328 144.89979561 137.56640625 148.90625 C137.57260483 150.06370728 137.57880341 151.22116455 137.58518982 152.41369629 C137.59228572 154.85798299 137.58911808 157.30231804 137.57641602 159.74658203 C137.56254855 163.48690647 137.59663133 167.22473047 137.63476562 170.96484375 C137.6357168 173.34114645 137.63385808 175.71745227 137.62890625 178.09375 C137.64216446 179.2115686 137.65542267 180.32938721 137.66908264 181.4810791 C137.57645395 189.20130262 137.57645395 189.20130262 134.81591797 193.02612305 C132.02884367 194.97978142 129.27914812 196.81121593 126.31640625 198.48828125 C125.23020996 199.10888428 124.14401367 199.7294873 123.02490234 200.36889648 C121.88230957 201.01028564 120.7397168 201.6516748 119.5625 202.3125 C118.38201389 202.9800016 117.20183906 203.64805401 116.02197266 204.31665039 C113.71570857 205.62336971 111.4079296 206.9272568 109.09912109 208.22949219 C106.52442563 209.70039903 103.98258443 211.20480692 101.45703125 212.7578125 C100.83304443 213.13639404 100.20905762 213.51497559 99.56616211 213.9050293 C98.01445527 214.85236122 96.47160331 215.81415761 94.9296875 216.77734375 C90.95015366 218.43813587 88.30695273 218.35096899 84 218 C81.75732422 216.98022461 81.75732422 216.98022461 80 216 C71.18195858 234.50967188 71.18195858 234.50967188 67 254 C68.71680521 255.49503587 68.71680521 255.49503587 71.05078125 256.62109375 C71.89447266 257.08193359 72.73816406 257.54277344 73.60742188 258.01757812 C74.94643555 258.72043945 74.94643555 258.72043945 76.3125 259.4375 C78.06492783 260.3617871 79.81130824 261.29765105 81.55078125 262.24609375 C82.33106689 262.65529053 83.11135254 263.0644873 83.9152832 263.48608398 C86.51944063 265.37721646 87.54194477 267.13609053 89 270 C89.38768005 272.57971191 89.38768005 272.57971191 89.40405273 275.35351562 C89.42307899 276.92039124 89.42307899 276.92039124 89.44248962 278.5189209 C89.43955399 279.6367395 89.43661835 280.75455811 89.43359375 281.90625 C89.4388356 283.06370728 89.44407745 284.22116455 89.44947815 285.41369629 C89.45589433 287.85798338 89.45456662 290.30230137 89.44604492 292.74658203 C89.43753059 296.48656116 89.46631172 300.22501528 89.49804688 303.96484375 C89.49965887 306.34114538 89.49908139 308.71744971 89.49609375 311.09375 C89.50732773 312.2115686 89.51856171 313.32938721 89.53013611 314.4810791 C89.46112936 322.16508969 89.46112936 322.16508969 87.33349609 326.01733398 C84.72698254 328.23197057 82.14988971 329.94892103 79.16796875 331.62890625 C78.03939453 332.27150391 76.91082031 332.91410156 75.74804688 333.57617188 C74.56134128 334.23853818 73.37449125 334.90064575 72.1875 335.5625 C71.01183456 336.22757036 69.83669916 336.89357861 68.66210938 337.56054688 C66.42542329 338.82719608 64.18580613 340.08868769 61.94287109 341.34423828 C59.5459117 342.69285107 57.17066834 344.06967324 54.80078125 345.46484375 C52 347 52 347 50 347 C48.6940918 345.22192383 48.6940918 345.22192383 47.19921875 342.70703125 C46.64129639 341.77802002 46.08337402 340.84900879 45.50854492 339.8918457 C44.9076001 338.87566162 44.30665527 337.85947754 43.6875 336.8125 C42.40702391 334.67661918 41.12575812 332.54121161 39.84375 330.40625 C39.19664062 329.32472656 38.54953125 328.24320312 37.8828125 327.12890625 C35.19511982 322.66242941 32.44441435 318.23645673 29.6875 313.8125 C24.47867227 305.43367995 19.35716752 297.00344324 14.25 288.5625 C8.63631967 279.28485925 2.97253972 270.05239638 -3 261 C-2.47075928 260.74404053 -1.94151855 260.48808105 -1.39624023 260.22436523 C1.56998795 258.70876316 4.44831259 257.06397483 7.33984375 255.41015625 C7.94381485 255.06496445 8.54778595 254.71977264 9.1700592 254.36412048 C10.44366176 253.63591732 11.71696627 252.90719267 12.98999023 252.17797852 C14.92686819 251.0685896 16.86471974 249.96091741 18.80273438 248.85351562 C25.29703166 245.1825776 25.29703166 245.1825776 31.65844727 241.29077148 C35.0444446 239.42425414 38.2651235 239.43212404 42 240 C45.5 241.5 45.5 241.5 48 243 C48.22558594 241.78957031 48.45117188 240.57914063 48.68359375 239.33203125 C50.12072233 232.86558572 52.62169971 226.82920256 55.0625 220.6875 C55.97209339 218.37970977 56.87973235 216.071148 57.78515625 213.76171875 C58.18613525 212.75069092 58.58711426 211.73966309 59.00024414 210.69799805 C59.82701698 208.46682183 60.48856977 206.31956575 61 204 C60.33355469 203.76152344 59.66710937 203.52304687 58.98046875 203.27734375 C55.22538034 201.66802015 51.81059406 199.6627136 48.3125 197.5625 C47.63638672 197.16740234 46.96027344 196.77230469 46.26367188 196.36523438 C43.0760478 194.45900346 41.08809789 193.13214684 39 190 C38.72584534 187.66752625 38.72584534 187.66752625 38.69360352 184.8894043 C38.67761612 183.84789719 38.66162872 182.80639008 38.64515686 181.73332214 C38.63979416 180.60831802 38.63443146 179.4833139 38.62890625 178.32421875 C38.61987778 177.16630325 38.6108493 176.00838776 38.60154724 174.81538391 C38.58702881 172.36335847 38.57815407 169.91129416 38.57446289 167.45922852 C38.56257893 163.71238631 38.51341567 159.96719703 38.46289062 156.22070312 C38.45342519 153.83854971 38.44619074 151.45638617 38.44140625 149.07421875 C38.42187393 147.95528732 38.40234161 146.8363559 38.38221741 145.68351746 C38.43245065 136.99716243 38.43245065 136.99716243 41.40991211 133.37036133 C42.26464111 132.58814209 43.11937012 131.80592285 44 131 C44.66 130.34 45.32 129.68 46 129 C44.948125 127.76636719 44.948125 127.76636719 43.875 126.5078125 C38.7340693 120.46399107 33.65659437 114.38630113 28.7265625 108.16796875 C26.52796965 105.4072922 24.27318501 102.6994072 22 100 C16.26374717 100.6249614 11.87530276 103.82070361 7.05859375 106.76171875 C6.38183594 107.16003906 5.70507812 107.55835938 5.0078125 107.96875 C4.40598145 108.33419922 3.80415039 108.69964844 3.18408203 109.07617188 C-1.19418486 110.92810144 -4.64600128 111.52498108 -9.12695312 109.78759766 C-10.16787109 109.16933105 -11.20878906 108.55106445 -12.28125 107.9140625 C-12.85295425 107.58157501 -13.42465851 107.24908752 -14.01368713 106.90652466 C-15.85369149 105.83054745 -17.67656292 104.72877823 -19.5 103.625 C-20.75877621 102.88029894 -22.01846468 102.13713776 -23.27905273 101.39550781 C-25.74813255 99.93894822 -28.21054888 98.47207208 -30.66748047 96.99511719 C-33.4533045 95.32729638 -36.25124869 93.68784218 -39.06640625 92.0703125 C-49.5411945 85.99483814 -49.5411945 85.99483814 -52 82 C-52.40786743 79.50930786 -52.40786743 79.50930786 -52.45166016 76.68408203 C-52.4740274 75.6226297 -52.49639465 74.56117737 -52.5194397 73.46755981 C-52.52591522 72.3258432 -52.53239075 71.18412659 -52.5390625 70.0078125 C-52.55141937 68.82911591 -52.56377625 67.65041931 -52.57650757 66.43600464 C-52.59607531 63.94290127 -52.60730616 61.44972062 -52.61083984 58.95654297 C-52.62492425 55.14549714 -52.69225987 51.33773003 -52.76171875 47.52734375 C-52.77411729 45.10418124 -52.78333686 42.68099996 -52.7890625 40.2578125 C-52.81578033 39.12014435 -52.84249817 37.9824762 -52.87002563 36.81033325 C-52.80412183 29.12336807 -52.80412183 29.12336807 -50.58735657 26.02651978 C-48.80738714 24.44694829 -47.04520668 23.21176672 -45 22 C-44.05374756 21.3930127 -43.10749512 20.78602539 -42.13256836 20.16064453 C-41.21096924 19.65645996 -40.28937012 19.15227539 -39.33984375 18.6328125 C-38.30512939 18.06062988 -37.27041504 17.48844727 -36.2043457 16.89892578 C-35.12628662 16.31353027 -34.04822754 15.72813477 -32.9375 15.125 C-30.70006035 13.89667175 -28.46307803 12.66751007 -26.2265625 11.4375 C-25.15438477 10.8496875 -24.08220703 10.261875 -22.97753906 9.65625 C-20.44501213 8.24753709 -17.9453234 6.80382197 -15.4609375 5.3125 C-14.82808838 4.93464355 -14.19523926 4.55678711 -13.54321289 4.16748047 C-11.94691316 3.20596265 -10.35786837 2.23242757 -8.76953125 1.2578125 C-5.50108831 -0.22658613 -3.56737396 -0.27703752 0 0 Z " fill="#062B75" transform="translate(372,101)"/>
<path d="M0 0 C14.52 0 29.04 0 44 0 C44.57557815 9.20925039 45.11543753 17.91016079 44.82421875 27.03515625 C44.0061225 57.35238031 44.0061225 57.35238031 57.95898438 83.39160156 C61.71060327 88.18613462 64.69263099 93.46994129 67.8125 98.6875 C69.15996528 100.88062605 70.51025329 103.07202017 71.86328125 105.26171875 C76.46139255 112.73897023 81.01431579 120.24333668 85.56085205 127.75201416 C89.48791681 134.23720608 93.42971204 140.71237336 97.41796875 147.16015625 C97.77863434 147.74372894 98.13929993 148.32730164 98.51089478 148.92855835 C100.21955281 151.69242327 101.93134547 154.45425573 103.6484375 157.21289062 C117.04343004 178.84987543 117.04343004 178.84987543 115 191 C112.37267197 198.61544357 108.06139071 204.09514618 101 208 C97.30159054 209.70521025 94.31361033 210.28034905 90.2512207 210.39428711 C89.11814987 210.43010391 87.98507904 210.46592072 86.81767273 210.50282288 C85.59522354 210.53153976 84.37277435 210.56025665 83.11328125 210.58984375 C81.82907791 210.62665756 80.54487457 210.66347137 79.22175598 210.70140076 C75.14815014 210.81598104 71.07421416 210.91003303 67 211 C65.73250916 211.02862122 64.46501831 211.05724243 63.15911865 211.08673096 C54.16912642 211.28217509 45.17864832 211.43208435 36.1875 211.5625 C35.50756989 211.57239834 34.82763977 211.58229668 34.12710571 211.59249496 C25.75221421 211.71358537 17.37721742 211.82379144 9.00206566 211.92521954 C4.50600087 211.98002289 0.01008349 212.04211338 -4.48583984 212.10742188 C-10.12381788 212.18742984 -15.76159426 212.24597883 -21.3999939 212.28610229 C-23.44663441 212.3035302 -25.49322976 212.32774671 -27.53970337 212.35916138 C-30.34962389 212.40066603 -33.15856375 212.41658308 -35.96875 212.42578125 C-36.77414719 212.44324402 -37.57954437 212.46070679 -38.40934753 212.47869873 C-45.04408624 212.45343144 -50.16125932 210.4367951 -55.20703125 206.10546875 C-60.95166981 199.24265237 -64.00645326 193.09978953 -63.796875 183.97265625 C-62.64066732 175.90623615 -57.48535123 168.53241527 -53.49169922 161.59423828 C-52.14518166 159.25248777 -50.83164549 156.89704685 -49.53515625 154.52734375 C-47.05531917 150.0001573 -44.52884949 145.49994228 -42 141 C-40.35774219 138.07019147 -38.7164327 135.13985292 -37.07519531 132.20947266 C-35.8926478 130.09824864 -34.70970013 127.98724873 -33.52636719 125.87646484 C-28.57994569 117.04927103 -23.66337873 108.20568987 -18.76489258 99.35180664 C-18.20181396 98.33594482 -17.63873535 97.32008301 -17.05859375 96.2734375 C-16.46183838 95.15751221 -15.86508301 94.04158691 -15.25024414 92.8918457 C-13.57406164 89.86383102 -11.66917795 87.07843761 -9.66967773 84.25463867 C1.49411337 67.76555037 1.6440644 52.94556755 0.89263916 33.82562256 C0.73304475 29.31869107 0.67602886 24.80930756 0.60074615 20.30033112 C0.47672792 13.52867247 0.22710832 6.77248653 0 0 Z " fill="#D1DBFC" transform="translate(296,292)"/>
<path d="M0 0 C0.08636719 0.59167969 0.17273438 1.18335938 0.26171875 1.79296875 C0.40222656 2.58316406 0.54273438 3.37335938 0.6875 4.1875 C0.81511719 4.96480469 0.94273437 5.74210938 1.07421875 6.54296875 C3.15882492 12.07553113 8.23924435 14.96849977 13.19140625 17.7421875 C13.77736069 18.07364777 14.36331512 18.40510803 14.96702576 18.74661255 C16.82793753 19.79717929 18.69489331 20.83639065 20.5625 21.875 C22.39648619 22.90502375 24.22915048 23.93735889 26.06137085 24.97052002 C27.27035447 25.65011022 28.48131382 26.32619786 29.69424438 26.99871826 C32.62911712 28.63112325 35.48915449 30.30870573 38.33154297 32.10253906 C44.10163922 35.82992684 44.10163922 35.82992684 50.67578125 37.2578125 C56.01428459 35.23783826 60.72395415 32.3679368 65.59179688 29.41796875 C66.35943359 28.96808594 67.12707031 28.51820313 67.91796875 28.0546875 C68.95087036 27.42796143 68.95087036 27.42796143 70.00463867 26.78857422 C72.49687238 25.80363419 73.5472758 25.97234674 76 27 C78.02510054 29.08078348 79.85725191 31.13457946 81.6875 33.375 C82.21206787 34.0033374 82.73663574 34.6316748 83.27709961 35.27905273 C84.34686825 36.5635233 85.41239659 37.85153737 86.47363281 39.14306641 C87.86592802 40.83689196 89.27001915 42.51985158 90.6796875 44.19921875 C94.12262193 48.33638423 97.32133638 52.31859722 100 57 C98.47005208 58.23697917 96.94010417 59.47395833 95.41015625 60.7109375 C93.47125123 62.48334375 93.02610162 63.60526335 92.85282898 66.22567749 C92.83806267 67.61322739 92.83806267 67.61322739 92.82299805 69.02880859 C92.81016281 70.07684662 92.79732758 71.12488464 92.78410339 72.2046814 C92.77671646 73.34112091 92.76932953 74.47756042 92.76171875 75.6484375 C92.74961113 77.39454819 92.74961113 77.39454819 92.73725891 79.17593384 C92.72341082 81.64233914 92.71269193 84.10876366 92.70483398 86.57519531 C92.68760227 90.35258097 92.64371889 94.12909594 92.59960938 97.90625 C92.58948447 100.29947271 92.58096774 102.69270288 92.57421875 105.0859375 C92.54795662 106.78452408 92.54795662 106.78452408 92.52116394 108.51742554 C92.52408951 109.57176788 92.52701508 110.62611023 92.5300293 111.71240234 C92.52416306 112.63902679 92.51829681 113.56565125 92.51225281 114.52035522 C93.28655654 118.45681704 95.81468732 120.19274633 99.01464844 122.37207031 C99.7059082 122.77006836 100.39716797 123.16806641 101.109375 123.578125 C101.86347656 124.01640625 102.61757813 124.4546875 103.39453125 124.90625 C104.17183594 125.3496875 104.94914063 125.793125 105.75 126.25 C106.54277344 126.70890625 107.33554687 127.1678125 108.15234375 127.640625 C110.09840405 128.76605746 112.04759896 129.88561584 114 131 C113.37623063 135.61880072 112.15628643 139.67932628 110.53125 144.04296875 C110.29088013 144.69324539 110.05051025 145.34352203 109.80285645 146.01350403 C109.04023802 148.07340002 108.27032863 150.13047655 107.5 152.1875 C106.73138106 154.25584058 105.9642386 156.32472484 105.19714355 158.39363098 C104.5028864 160.26352659 103.80524128 162.13216327 103.10742188 164.00073242 C102.37326461 165.98907502 101.67026063 167.9892181 101 170 C100.175 169.67 99.35 169.34 98.5 169 C93.03303054 167.43800873 88.80739806 167.24435365 83.60083008 169.42114258 C82.50150146 170.07236084 81.40217285 170.7235791 80.26953125 171.39453125 C79.67121994 171.74255295 79.07290863 172.09057465 78.45646667 172.44914246 C76.56518728 173.55428197 74.68910947 174.68266751 72.8125 175.8125 C71.5432494 176.55952797 70.27307295 177.30498521 69.00195312 178.04882812 C64.72406767 180.55951977 60.45083509 183.07555116 56.26733398 185.74121094 C54 187 54 187 51.390625 186.93359375 C47.49818627 185.41350738 46.24397085 182.98694323 44.32177734 179.38964844 C42.81743969 175.53183092 42.49191154 172.06425777 42.3671875 167.98046875 C42.33468903 167.20374817 42.30219055 166.42702759 42.26870728 165.62677002 C42.20175209 163.9547726 42.14110682 162.28251273 42.08618164 160.6100769 C41.99907043 157.97184725 41.89203836 155.33492421 41.78320312 152.69750977 C41.60613635 148.1410995 41.50050438 143.58657706 41.43017578 139.02734375 C41.3929566 137.15386836 41.33785917 135.28067418 41.26611328 133.40820312 C40.67457572 117.60842577 40.67457572 117.60842577 43.90722656 113.68554688 C46.2890625 112.234375 46.2890625 112.234375 48.75415039 111.10058594 C51.9749125 109.52224094 53.03650128 107.69156167 54.39501953 104.4453125 C55.73341854 99.03554475 55.52727767 93.53725471 55.4375 88 C55.44458984 86.76765625 55.45167969 85.5353125 55.45898438 84.265625 C55.40511592 76.54171687 55.27530857 69.84980826 50.0625 63.72265625 C49.381875 63.17480469 48.70125 62.62695312 48 62.0625 C47.319375 61.49660156 46.63875 60.93070313 45.9375 60.34765625 C42.88023473 58.22113101 40.31927658 57.87438697 36.70092773 57.87060547 C35.82871078 57.86751373 34.95649384 57.864422 34.05784607 57.86123657 C33.1093428 57.86320038 32.16083954 57.86516418 31.18359375 57.8671875 C30.19138321 57.86568695 29.19917267 57.8641864 28.17689514 57.86264038 C24.93038971 57.86027524 21.68399448 57.86655674 18.4375 57.875 C16.78621094 57.87832336 16.78621094 57.87832336 15.1015625 57.88171387 C7.40086364 57.89994469 -0.29949684 57.94313156 -8 58 C-8.934953 58.0062439 -9.86990601 58.01248779 -10.83319092 58.0189209 C-15.6778756 58.05374363 -20.5211377 58.11071986 -25.36495972 58.20953369 C-26.77169359 58.2361961 -28.17856083 58.25665285 -29.58547974 58.27044678 C-37.90070331 58.3612246 -46.22904832 58.50807671 -52.61132812 64.51708984 C-57.98287885 70.73668075 -57.21972953 76.63699382 -57.24023438 84.43823242 C-57.24988791 86.66168371 -57.28088421 88.88418967 -57.3125 91.10742188 C-57.31903566 92.5338487 -57.32428391 93.96028212 -57.328125 95.38671875 C-57.3374707 96.67795654 -57.34681641 97.96919434 -57.35644531 99.29956055 C-56.71192027 105.99070171 -54.21850643 110.63101787 -49 115 C-47.01440199 116.02829983 -45.01586684 117.03238392 -43 118 C-42.69718453 127.64499491 -42.42456593 137.29000905 -42.1943512 146.93702698 C-42.0751376 151.7215118 -41.8914624 156.49701447 -41.65234375 161.27734375 C-40.86115412 180.05260514 -40.86115412 180.05260514 -46.82421875 188.15234375 C-53.45255886 194.75286292 -62.71458648 198.8808824 -71 203 C-74.80379446 199.29338277 -78.312993 195.42215971 -81.75 191.375 C-82.52682129 190.46065186 -82.52682129 190.46065186 -83.31933594 189.52783203 C-84.37295752 188.28520694 -85.42537738 187.04156186 -86.4765625 185.796875 C-87.90152818 184.11614625 -89.33971579 182.44776353 -90.78125 180.78125 C-91.5959375 179.8221875 -92.410625 178.863125 -93.25 177.875 C-93.97703125 177.02679688 -94.7040625 176.17859375 -95.453125 175.3046875 C-97 173 -97 173 -97 169 C-96.195625 168.7525 -95.39125 168.505 -94.5625 168.25 C-91.88423867 167.3089005 -91.88423867 167.3089005 -91.35090637 165.24363708 C-90.96105527 162.75099389 -90.85060702 160.37540807 -90.82299805 157.85180664 C-90.81016281 156.82716812 -90.79732758 155.8025296 -90.78410339 154.74684143 C-90.77671646 153.64573532 -90.76932953 152.54462921 -90.76171875 151.41015625 C-90.753647 150.27348007 -90.74557526 149.13680389 -90.73725891 147.96568298 C-90.72343623 145.56250528 -90.71270597 143.15930808 -90.70483398 140.75610352 C-90.68758149 137.0798651 -90.64367314 133.40451689 -90.59960938 129.72851562 C-90.58948555 127.39323577 -90.58096848 125.05794829 -90.57421875 122.72265625 C-90.55671066 121.62357437 -90.53920258 120.52449249 -90.52116394 119.3921051 C-90.51052133 113.37235259 -90.51052133 113.37235259 -92.78564453 107.90991211 C-94.77701504 106.1923276 -96.50819628 104.88341595 -98.85546875 103.71875 C-99.55994141 103.35136719 -100.26441406 102.98398437 -100.99023438 102.60546875 C-102.46443729 101.86378089 -103.94104434 101.12685381 -105.41992188 100.39453125 C-106.12052734 100.02714844 -106.82113281 99.65976562 -107.54296875 99.28125 C-108.18258545 98.96220703 -108.82220215 98.64316406 -109.48120117 98.31445312 C-111 97 -111 97 -111.88769531 94.8527832 C-112.04410899 90.87953569 -110.71409497 87.69493925 -109.25390625 84.07421875 C-108.96394272 83.32662796 -108.67397919 82.57903717 -108.37522888 81.80879211 C-107.44950934 79.43018968 -106.50632814 77.05896734 -105.5625 74.6875 C-104.93047525 73.07272127 -104.29960236 71.45749119 -103.66992188 69.84179688 C-102.12658127 65.88917629 -100.56754745 61.94307969 -99 58 C-96.23035305 58.53425109 -93.55335484 59.12627376 -90.8359375 59.89453125 C-85.13473476 60.0512853 -81.45430605 57.5183563 -76.625 54.6875 C-75.66271484 54.14222656 -74.70042969 53.59695312 -73.70898438 53.03515625 C-70.7942759 51.37622224 -67.89603732 49.69127378 -65 48 C-63.33094985 47.03737769 -61.66169338 46.07511297 -59.9921875 45.11328125 C-48.80701636 39.36525687 -48.80701636 39.36525687 -40 31 C-39.63201307 28.28924456 -39.63201307 28.28924456 -39.5859375 25.23828125 C-39.54726563 24.12001953 -39.50859375 23.00175781 -39.46875 21.84960938 C-39.4378125 20.68236328 -39.406875 19.51511719 -39.375 18.3125 C-39.33632813 17.13365234 -39.29765625 15.95480469 -39.2578125 14.74023438 C-39.16345609 11.82698023 -39.07786839 8.91373393 -39 6 C-32.18859783 4.16042423 -25.34007462 2.97862098 -18.375 1.875 C-16.71597656 1.60236328 -16.71597656 1.60236328 -15.0234375 1.32421875 C-13.4146875 1.06705078 -13.4146875 1.06705078 -11.7734375 0.8046875 C-10.80841309 0.64983887 -9.84338867 0.49499023 -8.84912109 0.33544922 C-5.8736651 -0.01487439 -2.99320645 -0.05703983 0 0 Z " fill="#FDFDFE" transform="translate(319,174)"/>
<path d="M0 0 C2.69042969 1.1105957 2.69042969 1.1105957 5.421875 2.67578125 C6.94820557 3.53949341 6.94820557 3.53949341 8.50537109 4.4206543 C9.57609863 5.04496338 10.64682617 5.66927246 11.75 6.3125 C12.8529541 6.94389893 13.9559082 7.57529785 15.09228516 8.22583008 C21.8956756 12.1403189 28.6595719 16.12389492 35.375 20.1875 C36.47859863 20.85422729 36.47859863 20.85422729 37.60449219 21.53442383 C38.27899414 21.94974365 38.95349609 22.36506348 39.6484375 22.79296875 C40.51734619 23.32700317 40.51734619 23.32700317 41.40380859 23.87182617 C43.22613468 25.15982997 44.58525588 26.25881721 46 28 C46.39440918 30.37716675 46.39440918 30.37716675 46.41992188 33.21826172 C46.44378967 34.81539505 46.44378967 34.81539505 46.46813965 36.4447937 C46.46834106 37.59480865 46.46854248 38.74482361 46.46875 39.9296875 C46.47636353 41.11217072 46.48397705 42.29465393 46.49182129 43.51296997 C46.50263497 46.01627489 46.50547028 48.51962498 46.50097656 51.02294922 C46.5000055 54.85330587 46.54159092 58.68165213 46.5859375 62.51171875 C46.59114522 64.94270415 46.59383268 67.37369652 46.59375 69.8046875 C46.61014526 70.95065399 46.62654053 72.09662048 46.64343262 73.27731323 C46.56653229 82.12859106 46.56653229 82.12859106 43.46289062 85.26220703 C42.65013672 85.83567871 41.83738281 86.40915039 41 87 C42.47563943 91.70799248 45.26457981 94.89779107 48.5 98.5 C54.3124038 105.1111223 59.71611714 111.96261619 65 119 C61.41515516 122.00621497 57.74744951 124.43002885 53.6875 126.75 C52.61886719 127.36359375 51.55023438 127.9771875 50.44921875 128.609375 C49.64097656 129.06828125 48.83273437 129.5271875 48 130 C44.19608986 126.29327004 40.68816864 122.42128771 37.25 118.375 C36.73211914 117.76833496 36.21423828 117.16166992 35.68066406 116.53662109 C31.04309732 111.08712344 26.49781612 105.56547954 22 100 C16.26374717 100.6249614 11.87530276 103.82070361 7.05859375 106.76171875 C6.38183594 107.16003906 5.70507812 107.55835938 5.0078125 107.96875 C4.40598145 108.33419922 3.80415039 108.69964844 3.18408203 109.07617188 C-1.19418486 110.92810144 -4.64600128 111.52498108 -9.12695312 109.78759766 C-10.16787109 109.16933105 -11.20878906 108.55106445 -12.28125 107.9140625 C-12.85295425 107.58157501 -13.42465851 107.24908752 -14.01368713 106.90652466 C-15.85369149 105.83054745 -17.67656292 104.72877823 -19.5 103.625 C-20.75877621 102.88029894 -22.01846468 102.13713776 -23.27905273 101.39550781 C-25.74813255 99.93894822 -28.21054888 98.47207208 -30.66748047 96.99511719 C-33.4533045 95.32729638 -36.25124869 93.68784218 -39.06640625 92.0703125 C-49.5411945 85.99483814 -49.5411945 85.99483814 -52 82 C-52.40786743 79.50930786 -52.40786743 79.50930786 -52.45166016 76.68408203 C-52.4740274 75.6226297 -52.49639465 74.56117737 -52.5194397 73.46755981 C-52.52591522 72.3258432 -52.53239075 71.18412659 -52.5390625 70.0078125 C-52.55141937 68.82911591 -52.56377625 67.65041931 -52.57650757 66.43600464 C-52.59607531 63.94290127 -52.60730616 61.44972062 -52.61083984 58.95654297 C-52.62492425 55.14549714 -52.69225987 51.33773003 -52.76171875 47.52734375 C-52.77411729 45.10418124 -52.78333686 42.68099996 -52.7890625 40.2578125 C-52.81578033 39.12014435 -52.84249817 37.9824762 -52.87002563 36.81033325 C-52.80412183 29.12336807 -52.80412183 29.12336807 -50.58735657 26.02651978 C-48.80738714 24.44694829 -47.04520668 23.21176672 -45 22 C-44.05374756 21.3930127 -43.10749512 20.78602539 -42.13256836 20.16064453 C-41.21096924 19.65645996 -40.28937012 19.15227539 -39.33984375 18.6328125 C-38.30512939 18.06062988 -37.27041504 17.48844727 -36.2043457 16.89892578 C-35.12628662 16.31353027 -34.04822754 15.72813477 -32.9375 15.125 C-30.70006035 13.89667175 -28.46307803 12.66751007 -26.2265625 11.4375 C-25.15438477 10.8496875 -24.08220703 10.261875 -22.97753906 9.65625 C-20.44501213 8.24753709 -17.9453234 6.80382197 -15.4609375 5.3125 C-14.82808838 4.93464355 -14.19523926 4.55678711 -13.54321289 4.16748047 C-11.94691316 3.20596265 -10.35786837 2.23242757 -8.76953125 1.2578125 C-5.50108831 -0.22658613 -3.56737396 -0.27703752 0 0 Z " fill="#062B75" transform="translate(372,101)"/>
<path d="M0 0 C3.17751198 1.3153281 6.09790015 2.95066969 9.0625 4.6875 C9.91650391 5.17428223 10.77050781 5.66106445 11.65039062 6.16259766 C13.47961527 7.20999765 15.30453542 8.26494445 17.12548828 9.32666016 C20.09233687 11.05375207 23.07443048 12.75224784 26.05859375 14.44921875 C28.03999878 15.58952048 30.02049026 16.7314113 32 17.875 C32.937229 18.40955811 33.87445801 18.94411621 34.84008789 19.49487305 C35.71785889 20.00961182 36.59562988 20.52435059 37.5 21.0546875 C38.2734375 21.50312012 39.046875 21.95155273 39.84375 22.41357422 C42.68073006 24.50083604 44.22231572 25.8988623 46 29 C46.5699159 32.9098493 46.51251591 36.77799212 46.4609375 40.72265625 C46.46002106 41.86028915 46.45910461 42.99792206 46.4581604 44.17002869 C46.4521261 46.57148418 46.43638542 48.9729322 46.41162109 51.37426758 C46.37509902 55.05252772 46.37060195 58.72978053 46.37109375 62.40820312 C46.36126295 64.74219622 46.34960612 67.07618248 46.3359375 69.41015625 C46.33371185 70.51126236 46.33148621 71.61236847 46.32919312 72.74684143 C46.31643341 73.77147995 46.30367371 74.79611847 46.29052734 75.85180664 C46.27909195 77.20152306 46.27909195 77.20152306 46.26742554 78.57850647 C45.97973553 81.18349143 45.38920513 82.78966542 44 85 C41.83959961 86.58056641 41.83959961 86.58056641 39.15234375 88.1015625 C37.6667395 88.95391479 37.6667395 88.95391479 36.15112305 89.82348633 C35.09062744 90.41798584 34.03013184 91.01248535 32.9375 91.625 C30.75497594 92.87068667 28.5726858 94.11678327 26.390625 95.36328125 C25.30974609 95.9763916 24.22886719 96.58950195 23.11523438 97.22119141 C18.06792633 100.10322012 13.07863957 103.08219422 8.09155273 106.06689453 C3.12990941 109.00773402 -1.16486212 111.14205329 -7 110 C-11.1393301 108.18568821 -14.98462786 105.91736224 -18.875 103.625 C-19.97602051 102.99029785 -21.07704102 102.3555957 -22.21142578 101.70166016 C-24.43382168 100.41770274 -26.65246877 99.12723313 -28.8671875 97.83007812 C-31.67038115 96.19255166 -34.48652452 94.58213806 -37.3125 92.984375 C-38.83382797 92.11544878 -40.35469862 91.24572113 -41.875 90.375 C-42.90729736 89.79226318 -42.90729736 89.79226318 -43.96044922 89.19775391 C-47.44129224 87.16807924 -49.91195908 85.45724612 -52 82 C-52.39440918 79.50257874 -52.39440918 79.50257874 -52.41992188 76.66821289 C-52.43583374 75.60353287 -52.45174561 74.53885284 -52.46813965 73.44190979 C-52.46834106 72.29705612 -52.46854248 71.15220245 -52.46875 69.97265625 C-52.47636353 68.79158798 -52.48397705 67.61051971 -52.49182129 66.3936615 C-52.50262514 63.89633295 -52.50547426 61.3989592 -52.50097656 58.90161133 C-52.50000448 55.08012569 -52.54162237 51.26064872 -52.5859375 47.43945312 C-52.59114458 45.01302502 -52.59383269 42.58658994 -52.59375 40.16015625 C-52.61014526 39.01732681 -52.62654053 37.87449738 -52.64343262 36.69703674 C-52.57469229 28.80882377 -52.57469229 28.80882377 -49.84985352 24.97387695 C-46.88880004 22.92298024 -43.95241407 21.01865474 -40.80859375 19.2578125 C-40.22263931 18.92635223 -39.63668488 18.59489197 -39.03297424 18.25338745 C-37.17206247 17.20282071 -35.30510669 16.16360935 -33.4375 15.125 C-31.60354921 14.09499613 -29.770919 13.06267932 -27.93862915 12.02972412 C-26.72936895 11.34981601 -25.5184103 10.67291969 -24.30575562 9.99908447 C-21.38106374 8.36956295 -18.51492375 6.69898683 -15.66845703 4.93261719 C-5.68248648 -1.25161952 -5.68248648 -1.25161952 0 0 Z " fill="#062B75" transform="translate(183,256)"/>
<path d="M0 0 C14.52 0 29.04 0 44 0 C44.57558505 9.20936088 45.11516231 17.91011304 44.82421875 27.03515625 C43.98429633 57.5089002 43.98429633 57.5089002 58.12109375 83.66064453 C61.28436651 87.59911642 63.79124822 91.9193829 66.375 96.25 C66.84470215 96.99677002 67.3144043 97.74354004 67.79833984 98.51293945 C71 103.64810124 71 103.64810124 71 107 C70.37246826 107.12938965 69.74493652 107.2587793 69.09838867 107.39208984 C56.7086957 110.02147181 45.66492428 113.11916069 34.61425781 119.37841797 C21.29771651 126.89582032 6.95756221 130.39442506 -8.3125 130.3125 C-9.31418213 130.31121094 -10.31586426 130.30992187 -11.34790039 130.30859375 C-18.92056235 130.21062125 -25.75899901 129.33491011 -33 127 C-31.62595793 123.39471532 -30.02707054 120.02939875 -28.19921875 116.6328125 C-27.64024902 115.59294189 -27.0812793 114.55307129 -26.50537109 113.48168945 C-25.90547363 112.37398193 -25.30557617 111.26627441 -24.6875 110.125 C-24.06955566 108.9805542 -23.45161133 107.8361084 -22.81494141 106.65698242 C-6.13591805 75.84028038 -6.13591805 75.84028038 -1.85302734 70.14501953 C1.42001058 64.36628418 0.48698968 57.31824868 0.390625 50.87890625 C0.38315493 49.40918247 0.37746562 47.93944865 0.37347412 46.4697113 C0.35827776 42.62094112 0.31904931 38.77278477 0.2746582 34.92425537 C0.22633844 30.29620293 0.20814278 25.66794404 0.18484497 21.039711 C0.14619302 14.02604845 0.06950021 7.01372997 0 0 Z " fill="#FDFEFE" transform="translate(296,292)"/>
<path d="M0 0 C4.1201119 1.60380195 7.92831916 3.50635591 11.8125 5.625 C12.40998047 5.94984375 13.00746094 6.2746875 13.62304688 6.609375 C15.08337135 7.40379151 16.54187491 8.20155376 18 9 C17.38032937 13.62176516 16.14962639 17.65277889 14.49609375 22.0078125 C13.99801961 23.33722937 13.49997357 24.66665676 13.00195312 25.99609375 C12.21806157 28.06824693 11.43196976 30.1395486 10.64477539 32.21044922 C9.88145662 34.22424065 9.1260089 36.24085882 8.37109375 38.2578125 C7.91661865 39.4555127 7.46214355 40.65321289 6.99389648 41.88720703 C5.79722287 45.09047687 5.79722287 45.09047687 6 49 C7.71680521 50.49503587 7.71680521 50.49503587 10.05078125 51.62109375 C10.89447266 52.08193359 11.73816406 52.54277344 12.60742188 53.01757812 C13.50009766 53.48615234 14.39277344 53.95472656 15.3125 54.4375 C17.06492783 55.3617871 18.81130824 56.29765105 20.55078125 57.24609375 C21.72120972 57.85988892 21.72120972 57.85988892 22.9152832 58.48608398 C25.51944063 60.37721646 26.54194477 62.13609053 28 65 C28.38768005 67.57971191 28.38768005 67.57971191 28.40405273 70.35351562 C28.41673691 71.39809937 28.42942108 72.44268311 28.44248962 73.5189209 C28.43955399 74.6367395 28.43661835 75.75455811 28.43359375 76.90625 C28.4388356 78.06370728 28.44407745 79.22116455 28.44947815 80.41369629 C28.45589433 82.85798338 28.45456662 85.30230137 28.44604492 87.74658203 C28.43753059 91.48656116 28.46631172 95.22501528 28.49804688 98.96484375 C28.49965887 101.34114538 28.49908139 103.71744971 28.49609375 106.09375 C28.50732773 107.2115686 28.51856171 108.32938721 28.53013611 109.4810791 C28.46112936 117.16508969 28.46112936 117.16508969 26.33349609 121.01733398 C23.72698254 123.23197057 21.14988971 124.94892103 18.16796875 126.62890625 C17.03939453 127.27150391 15.91082031 127.91410156 14.74804688 128.57617188 C13.56134128 129.23853818 12.37449125 129.90064575 11.1875 130.5625 C10.01183456 131.22757036 8.83669916 131.89357861 7.66210938 132.56054688 C5.42542329 133.82719608 3.18580613 135.08868769 0.94287109 136.34423828 C-1.4540883 137.69285107 -3.82933166 139.06967324 -6.19921875 140.46484375 C-9 142 -9 142 -11 142 C-12.3059082 140.22192383 -12.3059082 140.22192383 -13.80078125 137.70703125 C-14.35870361 136.77802002 -14.91662598 135.84900879 -15.49145508 134.8918457 C-16.0923999 133.87566162 -16.69334473 132.85947754 -17.3125 131.8125 C-18.59297609 129.67661918 -19.87424188 127.54121161 -21.15625 125.40625 C-21.80335938 124.32472656 -22.45046875 123.24320312 -23.1171875 122.12890625 C-25.80488018 117.66242941 -28.55558565 113.23645673 -31.3125 108.8125 C-36.52132773 100.43367995 -41.64283248 92.00344324 -46.75 83.5625 C-52.36368033 74.28485925 -58.02746028 65.05239638 -64 56 C-63.47075928 55.74404053 -62.94151855 55.48808105 -62.39624023 55.22436523 C-59.43001205 53.70876316 -56.55168741 52.06397483 -53.66015625 50.41015625 C-53.05618515 50.06496445 -52.45221405 49.71977264 -51.8299408 49.36412048 C-50.55633824 48.63591732 -49.28303373 47.90719267 -48.01000977 47.17797852 C-46.07313181 46.0685896 -44.13528026 44.96091741 -42.19726562 43.85351562 C-35.70296834 40.1825776 -35.70296834 40.1825776 -29.34155273 36.29077148 C-25.9555554 34.42425414 -22.7348765 34.43212404 -19 35 C-15.5 36.5 -15.5 36.5 -13 38 C-12.78601563 36.82566406 -12.57203125 35.65132813 -12.3515625 34.44140625 C-10.77805686 27.36063087 -7.99469708 20.68082493 -5.375 13.9375 C-4.85358826 12.58160249 -4.33275032 11.22548419 -3.8125 9.86914062 C-2.54826968 6.57685598 -1.27630808 3.28762434 0 0 Z " fill="#6865F6" transform="translate(433,306)"/>
<path d="M0 0 C7.38942308 0.89182692 7.38942308 0.89182692 10.9765625 1.52734375 C14.77106902 2.1205418 18.54306727 2.3511547 22.375 2.5625 C23.11105469 2.60568359 23.84710938 2.64886719 24.60546875 2.69335938 C26.40348068 2.79843799 28.20171958 2.89962093 30 3 C30.3403125 4.0415625 30.680625 5.083125 31.03125 6.15625 C37.71846561 26.13327827 47.36117847 43.87125738 61 60 C61.226875 58.948125 61.45375 57.89625 61.6875 56.8125 C62.89441817 52.7453511 64.45579326 50.48848558 68 48 C72.73964156 46.94196749 75.95303007 47.33763127 80.0625 49.9375 C82.66309569 54.04811899 83.05631455 57.2594664 82 62 C79.37178848 65.82285311 77.84719119 66.81333075 73.3125 67.8125 C71.5433959 67.91263797 69.77193593 68 68 68 C69.55926748 69.58651682 71.12256518 71.16907315 72.6875 72.75 C73.55761719 73.63171875 74.42773438 74.5134375 75.32421875 75.421875 C76.64873047 76.69804687 76.64873047 76.69804687 78 78 C78.7425 78.7528125 79.485 79.505625 80.25 80.28125 C84.19518498 82.74699061 87.74347401 82.67066411 92.3125 82.75 C93.56643555 82.79447266 93.56643555 82.79447266 94.84570312 82.83984375 C96.89662485 82.91016107 98.94831562 82.95738973 101 83 C101 83.33 101 83.66 101 84 C81.06063667 84.35931985 61.12095333 84.6738518 41.18017578 84.94281006 C37.24897675 84.99605036 33.3178532 85.05400181 29.38671875 85.11181641 C23.78148306 85.19148614 18.17646858 85.24889878 12.57080078 85.28710938 C10.53654993 85.30392939 8.50234403 85.32776451 6.46826172 85.35888672 C3.65568921 85.40044723 0.84408857 85.41644348 -1.96875 85.42578125 C-2.77429321 85.44324905 -3.57983643 85.46071686 -4.40979004 85.47871399 C-11.04433283 85.45339839 -16.16142335 83.4366543 -21.20703125 79.10546875 C-26.95166981 72.24265237 -30.00645326 66.09978953 -29.796875 56.97265625 C-28.64298177 48.92238316 -23.50429352 41.56713874 -19.51806641 34.64257812 C-18.09024662 32.15709705 -16.69969436 29.6553678 -15.32421875 27.140625 C-10.33382422 18.02768894 -5.18273951 9.00464797 0 0 Z " fill="#92B1F3" transform="translate(262,419)"/>
<path d="M0 0 C1.21719727 0.69802734 1.21719727 0.69802734 2.45898438 1.41015625 C3.40362549 1.90918457 4.3482666 2.40821289 5.3215332 2.92236328 C6.853302 3.78643799 6.853302 3.78643799 8.41601562 4.66796875 C9.41866455 5.2314502 10.42131348 5.79493164 11.4543457 6.37548828 C12.71400146 7.08817871 13.97365723 7.80086914 15.27148438 8.53515625 C19.29335937 10.80390625 23.31523437 13.07265625 27.45898438 15.41015625 C27.45898438 26.63015625 27.45898438 37.85015625 27.45898438 49.41015625 C21.17867187 53.09171875 21.17867187 53.09171875 14.77148438 56.84765625 C13.45962158 57.62165771 12.14775879 58.39565918 10.79614258 59.19311523 C9.75288818 59.79969971 8.70963379 60.40628418 7.63476562 61.03125 C6.57169189 61.65443115 5.50861816 62.2776123 4.41333008 62.91967773 C1.55006813 64.36420415 -0.34491102 65.29238365 -3.54101562 65.41015625 C-6.47949219 64.16259766 -6.47949219 64.16259766 -9.68164062 62.26171875 C-10.24929138 61.9297348 -10.81694214 61.59775085 -11.40179443 61.25570679 C-13.20654199 60.19562817 -14.9984587 59.11569379 -16.79101562 58.03515625 C-18.01160387 57.31510632 -19.23295108 56.5963413 -20.45507812 55.87890625 C-29.274494 50.67667787 -29.274494 50.67667787 -30.54101562 49.41015625 C-30.62949305 46.88921549 -30.65628864 44.39584732 -30.63867188 41.875 C-30.63725693 41.12174942 -30.63584198 40.36849884 -30.63438416 39.59242249 C-30.62876938 37.17746065 -30.61621445 34.76259024 -30.60351562 32.34765625 C-30.59850252 30.71419404 -30.59393929 29.08073039 -30.58984375 27.44726562 C-30.57879516 23.4348604 -30.56152069 19.42252384 -30.54101562 15.41015625 C-26.65844182 13.07140308 -22.76267735 10.75714402 -18.8527832 8.46435547 C-17.5249964 7.68120609 -16.20104066 6.89152301 -14.88110352 6.09521484 C-12.98189428 4.95097521 -11.07010064 3.83101819 -9.15429688 2.71484375 C-8.27430779 2.17438919 -8.27430779 2.17438919 -7.37654114 1.62301636 C-4.64099963 0.05805834 -3.12899145 -0.72633007 0 0 Z " fill="#CFDAFB" transform="translate(181.541015625,278.58984375)"/>
<path d="M0 0 C1.91878091 1.04220207 3.81883121 2.11932391 5.703125 3.22265625 C6.7653125 3.84333984 7.8275 4.46402344 8.921875 5.10351562 C10.02015625 5.74998047 11.1184375 6.39644531 12.25 7.0625 C13.36375 7.71283203 14.4775 8.36316406 15.625 9.03320312 C23.85688973 13.85688973 23.85688973 13.85688973 25 15 C28.51002987 42.32681218 28.51002987 42.32681218 23.48828125 50.44335938 C19.61562569 53.98216532 15.06271803 55.69741837 10.11572266 57.26171875 C7.18871549 58.28309767 4.8403963 59.91680766 2.3125 61.6875 C-0.42360188 63.54324735 -1.43038449 64.06349233 -4.75756836 63.69262695 C-15.05013247 61.493997 -26.34514396 56.31043452 -33 48 C-35.24822202 42.54995617 -35.24872166 36.74753202 -35.125 30.9375 C-35.11966248 30.20031738 -35.11432495 29.46313477 -35.10882568 28.70361328 C-34.86355285 17.17866818 -34.86355285 17.17866818 -31.18945312 12.88330078 C-28.86798762 11.30509354 -26.55366918 10.16051331 -24 9 C-22.36874006 7.99759453 -20.74885507 6.97645225 -19.140625 5.9375 C-17.5122603 4.95527041 -15.88204448 3.97610316 -14.25 3 C-13.42628906 2.48566406 -12.60257812 1.97132812 -11.75390625 1.44140625 C-10.95339844 0.96574219 -10.15289062 0.49007812 -9.328125 0 C-8.6155957 -0.433125 -7.90306641 -0.86625 -7.16894531 -1.3125 C-4.10478644 -2.28375972 -2.82451403 -1.4487901 0 0 Z " fill="#65CAD0" transform="translate(373,125)"/>
<path d="M0 0 C3.93385818 1.14078984 7.40211584 3.2524756 10.95703125 5.2578125 C11.95968018 5.82129395 12.9623291 6.38477539 13.99536133 6.96533203 C15.25501709 7.67802246 16.51467285 8.39071289 17.8125 9.125 C21.834375 11.39375 25.85625 13.6625 30 16 C30 27.22 30 38.44 30 50 C23.68875 53.6815625 23.68875 53.6815625 17.25 57.4375 C15.9290332 58.21150146 14.60806641 58.98550293 13.24707031 59.78295898 C12.20131836 60.38954346 11.15556641 60.99612793 10.078125 61.62109375 C9.00981445 62.2442749 7.94150391 62.86745605 6.84082031 63.50952148 C2.53762373 65.7672574 2.53762373 65.7672574 0 66 C-1.94775391 65.29077148 -1.94775391 65.29077148 -3.9765625 64.12109375 C-5.10771484 63.48010742 -5.10771484 63.48010742 -6.26171875 62.82617188 C-7.04160156 62.36791016 -7.82148438 61.90964844 -8.625 61.4375 C-9.76001953 60.79071289 -9.76001953 60.79071289 -10.91796875 60.13085938 C-12.47715366 59.23782369 -14.02255424 58.32034541 -15.55419922 57.38085938 C-17.9968334 55.92215397 -17.9968334 55.92215397 -20.79345703 54.93164062 C-23.90337255 53.5925956 -25.7694434 52.56696382 -28 50 C-29.25598236 44.16843114 -28.94492856 38.54911107 -28.625 32.625 C-28.5748022 31.01446042 -28.52918117 29.40377127 -28.48828125 27.79296875 C-28.37842265 23.85827305 -28.20614866 19.93077927 -28 16 C-26.88757935 15.37955811 -26.88757935 15.37955811 -25.75268555 14.74658203 C-22.99578642 13.20817918 -20.23950783 11.668672 -17.48364258 10.12841797 C-16.29183222 9.46261118 -15.0997771 8.79724231 -13.9074707 8.13232422 C-12.19157316 7.17531258 -10.47663386 6.21658348 -8.76171875 5.2578125 C-7.73006592 4.6817627 -6.69841309 4.10571289 -5.63549805 3.51220703 C-3.7156323 2.41061848 -1.84170566 1.22780377 0 0 Z " fill="#FAC950" transform="translate(459,231)"/>
<path d="M0 0 C2.75488281 1.26928711 2.75488281 1.26928711 5.703125 3.02734375 C7.29640625 3.96803711 7.29640625 3.96803711 8.921875 4.92773438 C10.56929687 5.92256836 10.56929687 5.92256836 12.25 6.9375 C13.36375 7.59685547 14.4775 8.25621094 15.625 8.93554688 C23.7893562 13.7893562 23.7893562 13.7893562 25 15 C25.48429769 19.42781179 25.65641366 23.85845747 25.78955078 28.30786133 C25.84608685 29.79960581 25.92775949 31.29062908 26.03564453 32.77954102 C26.39198542 37.79233016 26.4212856 42.14533045 25 47 C21.14209841 50.76224539 16.86037958 52.77262516 12 55 C10.67084525 55.87616861 9.36046198 56.78309776 8.08984375 57.7421875 C-0.1294543 63.30319956 -0.1294543 63.30319956 -4.98828125 62.515625 C-7.875 61.125 -7.875 61.125 -10.7578125 59.15625 C-13.46736131 57.35423681 -15.30716823 56.47274155 -18.3046875 55.46875 C-23.26491528 53.56650048 -27.10799864 51.5986463 -30 47 C-33.17381548 36.88035514 -33.6050681 25.04904183 -30 15 C-24.96274138 8.72908099 -17.7758357 5.61773926 -10.36010742 2.91259766 C-2.1677274 -0.25520172 -2.1677274 -0.25520172 0 0 Z " fill="#FC7CA0" transform="translate(232,147)"/>
<path d="M0 0 C10.81416359 1.24387348 23.0449105 6.47587281 30 15 C31.97617496 20.49571112 32.34663855 25.57299777 32.3125 31.375 C32.32601501 32.08149689 32.33953003 32.78799377 32.35345459 33.51589966 C32.37477561 38.33187109 31.88733756 42.50001909 30 47 C26.0320817 50.66699127 21.91419672 52.73116581 17 55 C15.73365743 55.75797174 14.47764318 56.53437237 13.24609375 57.34765625 C12.31925781 57.91355469 11.39242187 58.47945313 10.4375 59.0625 C9.01244141 59.94615234 9.01244141 59.94615234 7.55859375 60.84765625 C5 62 5 62 3.07714844 61.92797852 C-0.09274499 60.51180962 -1.04373649 58.26342195 -2.79296875 55.3046875 C-3.31478981 54.43446457 -3.31478981 54.43446457 -3.84715271 53.54666138 C-4.97283144 51.66307741 -6.08049928 49.76961116 -7.1875 47.875 C-7.95064413 46.58663721 -8.7148052 45.29887626 -9.47998047 44.01171875 C-10.614395 42.10174809 -11.74726276 40.19096815 -12.87457275 38.27679443 C-14.92089122 34.80236988 -17.00253965 31.35663111 -19.15234375 27.9453125 C-19.79683472 26.91494873 -19.79683472 26.91494873 -20.4543457 25.86376953 C-21.54008281 24.13519454 -22.63302133 22.41114853 -23.7265625 20.6875 C-25 18 -25 18 -24.89794922 16.03198242 C-23.58709614 13.06563381 -21.72954561 12.33500443 -18.90625 10.80078125 C-17.87628906 10.23166016 -16.84632813 9.66253906 -15.78515625 9.07617188 C-14.70105469 8.49416016 -13.61695313 7.91214844 -12.5 7.3125 C-10.36403589 6.14292631 -8.22859025 4.97240509 -6.09375 3.80078125 C-4.66579102 3.02988159 -4.66579102 3.02988159 -3.20898438 2.2434082 C-1.09334149 1.18312382 -1.09334149 1.18312382 0 0 Z " fill="#B0D753" transform="translate(408,366)"/>
<path d="M0 0 C0 6.6 0 13.2 0 20 C-51.0212766 21.19148936 -51.0212766 21.19148936 -73 21 C-73 14.4 -73 7.8 -73 1 C-65.818245 0.85503866 -58.63644329 0.71275291 -51.45458984 0.57275391 C-49.02065667 0.52495424 -46.58673677 0.47647262 -44.15283203 0.42724609 C-29.43177422 0.13003479 -14.72421626 -0.05566811 0 0 Z " fill="#90AFF2" transform="translate(354,251)"/>
<path d="M0 0 C3.65317523 3.56102306 7.03639852 7.2748988 10.3125 11.1875 C10.78816406 11.75339844 11.26382813 12.31929688 11.75390625 12.90234375 C23.46813322 26.88384046 23.46813322 26.88384046 27 33 C24.01823395 35.02841228 21.01529877 37.02181036 18 39 C17.33484375 39.44859375 16.6696875 39.8971875 15.984375 40.359375 C14.1875 41.5 14.1875 41.5 11 43 C6.80698171 41.8032427 4.45845763 38.31417005 1.8125 35.0625 C1.33417725 34.48564453 0.85585449 33.90878906 0.36303711 33.31445312 C-1.09827304 31.54857212 -2.5497723 29.7749872 -4 28 C-4.85899 26.95671414 -5.7183444 25.91372816 -6.578125 24.87109375 C-8.72812305 22.25478817 -10.86966629 19.63233314 -13 17 C-13.74378906 16.113125 -14.48757812 15.22625 -15.25390625 14.3125 C-17 12 -17 12 -17 10 C-15.43945312 8.85498047 -15.43945312 8.85498047 -13.28125 7.6171875 C-12.51425781 7.17246094 -11.74726563 6.72773438 -10.95703125 6.26953125 C-10.14621094 5.80933594 -9.33539063 5.34914063 -8.5 4.875 C-7.68917969 4.40707031 -6.87835938 3.93914062 -6.04296875 3.45703125 C-4.03237359 2.29798228 -2.01803239 1.14603529 0 0 Z " fill="#6865F6" transform="translate(220,344)"/>
<path d="M0 0 C0.54398437 0.6909375 1.08796875 1.381875 1.6484375 2.09375 C3.75513371 4.69737455 5.91533139 7.23268398 8.11230469 9.75927734 C14.37004741 16.96032732 20.27278924 24.3721662 26 32 C22.41515516 35.00621497 18.74744951 37.43002885 14.6875 39.75 C13.61886719 40.36359375 12.55023438 40.9771875 11.44921875 41.609375 C10.23685547 42.29773438 10.23685547 42.29773438 9 43 C5.19608028 39.29326071 1.68827009 35.42120909 -1.75 31.375 C-2.26933105 30.76688477 -2.78866211 30.15876953 -3.32373047 29.53222656 C-7.36998648 24.77908702 -11.33557859 19.96547413 -15.2578125 15.109375 C-16.97777519 12.95895522 -16.97777519 12.95895522 -19 11 C-18.18994507 10.55346069 -18.18994507 10.55346069 -17.36352539 10.09790039 C-14.92887423 8.75452698 -12.4956726 7.40854945 -10.0625 6.0625 C-9.21236328 5.59392578 -8.36222656 5.12535156 -7.48632812 4.64257812 C-6.67744141 4.19462891 -5.86855469 3.74667969 -5.03515625 3.28515625 C-3.91185913 2.66459351 -3.91185913 2.66459351 -2.76586914 2.03149414 C-1.03748855 1.1221285 -1.03748855 1.1221285 0 0 Z " fill="#6865F6" transform="translate(411,188)"/>
<path d="M0 0 C0.33 0 0.66 0 1 0 C1.02578125 0.92296875 1.0515625 1.8459375 1.078125 2.796875 C1.50522077 12.62007777 2.98949419 21.89833353 5.0625 31.50390625 C5.88596952 35.3237998 6.50066293 39.12493629 7 43 C-2.88140184 43.36901501 -11.41076859 42.71667939 -21 40 C-19.5663796 36.21111513 -17.84520509 32.70237459 -15.91796875 29.140625 C-15.01401367 27.46613281 -15.01401367 27.46613281 -14.09179688 25.7578125 C-13.46337891 24.60023438 -12.83496094 23.44265625 -12.1875 22.25 C-11.57068359 21.10789062 -10.95386719 19.96578125 -10.31835938 18.7890625 C-6.91907193 12.50345128 -3.4897052 6.2358854 0 0 Z " fill="#D0DAFB" transform="translate(284,379)"/>
<path d="M0 0 C3.57703045 0.06275492 4.66800666 0.32312666 7.8125 2.3125 C10.07001915 5.88083672 10.46863669 8.06267688 10.25390625 12.21875 C9.45500939 15.6372854 7.44395048 17.27240451 4.75 19.375 C4.42 19.705 4.09 20.035 3.75 20.375 C0.49435228 20.75801738 -2.11168034 21.05142942 -5.01171875 19.328125 C-8.6103235 16.36559324 -10.10164773 14.68544502 -10.625 10.0625 C-10.15786625 5.46901813 -8.72959782 4.26052015 -5.25 1.375 C-3.69049449 -0.18450551 -2.16122869 0.09303302 0 0 Z " fill="#6966F6" transform="translate(277.25,443.625)"/>
<path d="M0 0 C3.34139976 0.02999461 4.22721051 0.29795352 7.1875 2.1875 C10.32093316 5.41588568 10.64218693 7.76179709 10.609375 12.2734375 C10.0067698 15.69256698 7.88213933 17.24439052 5.25 19.3125 C2.11128812 20.88185594 -0.28855822 20.66451103 -3.75 20.3125 C-6.625 17.875 -6.625 17.875 -8.75 15.3125 C-9.08 14.9825 -9.41 14.6525 -9.75 14.3125 C-10.04322866 11.38021337 -10.25004247 9.16758117 -9.75 6.3125 C-7.3125 3.375 -7.3125 3.375 -4.75 1.3125 C-3.75 0.3125 -3.75 0.3125 0 0 Z " fill="#6A66F7" transform="translate(366.75,439.6875)"/>
<path d="M0 0 C3.0625 1.9375 3.0625 1.9375 5 5 C5.69113243 8.15864655 5.70352709 10.84270771 5 14 C2.48165527 17.66304688 0.79716189 18.75360451 -3.4375 20.0625 C-7.83157589 19.98541095 -9.66329997 18.78058336 -13 16 C-14.74601232 12.50797535 -14.55838804 8.81017721 -14 5 C-10.50663347 -0.5217729 -6.10406345 -1.33560882 0 0 Z " fill="#6966F7" transform="translate(339,467)"/>
<path d="M0 0 C3.63 0 7.26 0 11 0 C9.29523878 4.26190306 7.45074241 8.41207107 5.5 12.5625 C5.19191406 13.22185547 4.88382812 13.88121094 4.56640625 14.56054688 C3.08270481 17.728536 1.56462276 20.87075449 0 24 C0 16.08 0 8.16 0 0 Z " fill="#B9C6EB" transform="translate(296,292)"/>
<path d="M0 0 C0.33 0.66 0.66 1.32 1 2 C-0.07674702 4.28258633 -1.19546116 6.4356434 -2.4375 8.625 C-2.77587891 9.23601562 -3.11425781 9.84703125 -3.46289062 10.4765625 C-4.30146192 11.988353 -5.14982577 13.49470399 -6 15 C-6.33 15 -6.66 15 -7 15 C-7 11.37 -7 7.74 -7 4 C-4.69 2.68 -2.38 1.36 0 0 Z " fill="#D67F12" transform="translate(248,400)"/>
</svg>
