<?xml version="1.0" encoding="UTF-8"?>
<svg version="1.1" xmlns="http://www.w3.org/2000/svg" width="640" height="640">
<path d="M0 0 C211.2 0 422.4 0 640 0 C640 211.2 640 422.4 640 640 C428.8 640 217.6 640 0 640 C0 428.8 0 217.6 0 0 Z " fill="#FEFEFE" transform="translate(0,0)"/>
<path d="M0 0 C2.80395508 1.1105957 2.80395508 1.1105957 5.51953125 2.67578125 C6.5338623 3.25142822 7.54819336 3.8270752 8.59326172 4.42016602 C10.18678467 5.35687134 10.18678467 5.35687134 11.8125 6.3125 C12.91094238 6.94534912 14.00938477 7.57819824 15.14111328 8.23022461 C18.43694321 10.13764241 21.71884464 12.06747859 25 14 C26.84495149 15.06788214 28.68999573 16.13560408 30.53515625 17.203125 C32.14980572 18.15393031 33.76318025 19.10690554 35.375 20.0625 C36.11081299 20.49022705 36.84662598 20.9179541 37.60473633 21.35864258 C38.27915771 21.76751709 38.9535791 22.1763916 39.6484375 22.59765625 C40.51734619 23.11598022 40.51734619 23.11598022 41.40380859 23.64477539 C44.38016669 26.17181176 45.82984561 28.44308637 46.26193237 32.39668274 C46.36476988 35.44871878 46.36302308 38.48548029 46.328125 41.5390625 C46.32625183 42.65687103 46.32437866 43.77467957 46.32244873 44.92636108 C46.31573593 47.28492219 46.30183685 49.64347231 46.28125 52.00195312 C46.25005525 55.61859444 46.2402735 59.23479988 46.234375 62.8515625 C46.22520631 65.1432345 46.21483097 67.43490206 46.203125 69.7265625 C46.19887512 70.81095612 46.19462524 71.89534973 46.19024658 73.01260376 C46.17583527 74.51964371 46.17583527 74.51964371 46.16113281 76.05712891 C46.15089081 77.3835289 46.15089081 77.3835289 46.14044189 78.73672485 C46 81 46 81 45 84 C45.65484375 84.52207031 46.3096875 85.04414063 46.984375 85.58203125 C53.29371141 90.67049324 59.28803926 95.95308487 65.17578125 101.51953125 C68.01071009 104.00940651 70.82116996 105.98564536 74 108 C77.54326558 106.02662692 81.08530872 104.05107963 84.6262207 102.07348633 C85.83161337 101.40068258 87.03734165 100.72847976 88.2434082 100.05688477 C89.97434661 99.09288084 91.70399043 98.12655352 93.43359375 97.16015625 C94.99678345 96.28822632 94.99678345 96.28822632 96.59155273 95.39868164 C98.87559403 94.20986135 98.87559403 94.20986135 100 93 C104.68592501 92.60064333 107.41294358 93.38146835 111.45703125 95.7109375 C112.47958008 96.29166016 113.50212891 96.87238281 114.55566406 97.47070312 C116.16779785 98.41333008 116.16779785 98.41333008 117.8125 99.375 C119.47297363 100.32922852 119.47297363 100.32922852 121.16699219 101.30273438 C123.40114078 102.58919976 125.6321441 103.88114385 127.85986328 105.17871094 C130.64224379 106.79250029 133.43839513 108.37615932 136.24609375 109.9453125 C137.74781928 110.79612803 139.24915382 111.64763424 140.75 112.5 C141.42135986 112.8717334 142.09271973 113.2434668 142.78442383 113.62646484 C143.40728271 113.98691895 144.0301416 114.34737305 144.671875 114.71875 C145.46223145 115.16637695 145.46223145 115.16637695 146.26855469 115.62304688 C149.92053371 118.52732799 152.59497387 120.79650445 153.45452881 125.47280884 C153.62850001 128.51545476 153.64049038 131.51910892 153.59375 134.56640625 C153.59379028 135.67805649 153.59383057 136.78970673 153.59387207 137.93504333 C153.58852262 140.27926301 153.57096482 142.62348257 153.54199219 144.9675293 C153.50010185 148.55378035 153.50092918 152.13815464 153.5078125 155.72460938 C153.49732081 158.00522137 153.48438282 160.2858237 153.46875 162.56640625 C153.46854858 163.63734024 153.46834717 164.70827423 153.46813965 165.81166077 C153.31736906 175.29947254 153.31736906 175.29947254 150 179 C147.72607422 180.6940918 147.72607422 180.6940918 145.0546875 182.19921875 C144.06774902 182.76423096 143.08081055 183.32924316 142.06396484 183.91137695 C141.01160645 184.49749756 139.95924805 185.08361816 138.875 185.6875 C136.69755649 186.92384504 134.52047535 188.16082849 132.34375 189.3984375 C131.26867187 190.00526367 130.19359375 190.61208984 129.0859375 191.23730469 C126.31329857 192.82104306 123.57252295 194.44372465 120.84375 196.1015625 C120.08078613 196.56344971 119.31782227 197.02533691 118.53173828 197.5012207 C117.13555215 198.35009049 115.74302534 199.20502088 114.35498047 200.06713867 C110.57092522 202.34449804 107.40699256 203.5864207 103 204 C101.43664515 212.55864913 99.90242534 221.1223736 98.375 229.6875 C98.14554687 230.97333984 97.91609375 232.25917969 97.6796875 233.58398438 C97.11963216 236.72262783 96.55973959 239.86130022 96 243 C97.0981604 243.41995239 97.0981604 243.41995239 98.21850586 243.84838867 C102.54124318 245.63811499 106.50905009 247.98786345 110.5625 250.3125 C111.41263672 250.78623047 112.26277344 251.25996094 113.13867188 251.74804688 C113.96044922 252.21919922 114.78222656 252.69035156 115.62890625 253.17578125 C116.37213135 253.59770752 117.11535645 254.01963379 117.88110352 254.4543457 C120.709984 256.51790629 122.22492266 257.91989979 124 261 C124.59229259 264.89584731 124.56031761 268.75310469 124.53125 272.6875 C124.5350769 273.82276123 124.53890381 274.95802246 124.54284668 276.12768555 C124.54556537 278.52491138 124.53820731 280.92216689 124.52148438 283.31933594 C124.50007587 286.98700142 124.52128935 290.65270789 124.546875 294.3203125 C124.54423172 296.65104599 124.53910674 298.98177826 124.53125 301.3125 C124.53934692 302.40844482 124.54744385 303.50438965 124.55578613 304.63354492 C124.46314206 312.16168966 124.46314206 312.16168966 122.34326172 315.9987793 C119.67954628 318.27367776 117.0376985 319.99874382 113.9765625 321.70703125 C113.39393646 322.03611984 112.81131042 322.36520844 112.21102905 322.70426941 C110.3543319 323.75017118 108.49006228 324.78160366 106.625 325.8125 C105.41221836 326.4918718 104.19997411 327.17220383 102.98828125 327.85351562 C101.16950911 328.87612813 99.34942605 329.89571209 97.52325439 330.90505981 C94.38072878 332.64410658 91.27639722 334.42401216 88.20996094 336.29443359 C87.59140228 336.66581955 86.97284363 337.03720551 86.33554077 337.41984558 C84.62799299 338.44871939 82.92963562 339.49280181 81.23193359 340.5378418 C77.45509412 342.24652072 75.10539499 342.46014016 71 342 C68.19604492 340.8894043 68.19604492 340.8894043 65.48046875 339.32421875 C64.46621826 338.74816895 63.45196777 338.17211914 62.40698242 337.57861328 C61.34455322 336.9545459 60.28212402 336.33047852 59.1875 335.6875 C57.53874878 334.74366455 57.53874878 334.74366455 55.85668945 333.78076172 C48.29594371 329.42655524 40.81392582 324.93455101 33.4831543 320.2019043 C29.95644429 317.96887161 28.27976892 317 24 317 C25.38113434 321.54799516 27.24173495 325.6436352 29.4921875 329.8125 C30.00465782 330.77481033 30.00465782 330.77481033 30.52748108 331.75656128 C31.63874288 333.84019086 32.75673456 335.9201221 33.875 338 C34.65469234 339.45832821 35.43406772 340.91682593 36.21313477 342.37548828 C40.41403554 350.23090575 44.65627088 358.06305745 48.9375 365.875 C50.9630874 369.58075657 52.9827955 373.28967387 55 377 C55.35334412 377.64894226 55.70668823 378.29788452 56.07073975 378.9664917 C58.52445426 383.47573079 60.96399995 387.99229678 63.39016724 392.51641846 C64.20419344 394.03004087 65.02204199 395.54161473 65.84396362 397.05096436 C73.44358179 411.01790387 77.48112249 423.5389885 73.7421875 439.5703125 C70.25098469 450.99940803 62.30999974 460.89012439 52.11328125 467.16015625 C50.09829419 468.16983523 48.06943591 469.10679765 46 470 C45.30519531 470.30292969 44.61039062 470.60585938 43.89453125 470.91796875 C31.64907731 475.40726598 16.8192451 472.99899423 4.02832031 472.42675781 C-3.22776912 472.11408828 -10.48124876 471.90431697 -17.7421875 471.74609375 C-19.16432304 471.71498253 -19.16432304 471.71498253 -20.6151886 471.6832428 C-25.38455342 471.58051616 -30.15398143 471.48379904 -34.92358398 471.39282227 C-42.92648828 471.23137806 -50.85179735 470.99463299 -58.82348633 470.23193359 C-63.01029611 469.92623309 -67.19029931 469.83591898 -71.38671875 469.75390625 C-72.22185501 469.73721893 -73.05699127 469.72053162 -73.91743469 469.70333862 C-77.3840821 469.63695632 -80.85072924 469.57500535 -84.31762695 469.52319336 C-86.88254238 469.48318767 -89.44704041 469.43177217 -92.01171875 469.37890625 C-92.78069992 469.3704921 -93.54968109 469.36207794 -94.34196472 469.35340881 C-108.45081542 469.03671021 -120.83711534 464.56351201 -131.234375 454.9296875 C-140.6410785 445.06325789 -144.47405047 432.88303433 -144.35473633 419.47241211 C-143.97975896 405.67235579 -136.20133913 395.28818401 -129 384 C-127.78094918 382.07701358 -126.5622094 380.15382996 -125.34375 378.23046875 C-122.46576195 373.69423999 -119.5765677 369.16533684 -116.67822266 364.64208984 C-116.12440918 363.7702002 -115.5705957 362.89831055 -115 362 C-114.5804303 361.44232941 -114.1608606 360.88465881 -113.72857666 360.31008911 C-109.65053261 354.57518501 -109.11372356 349.56124043 -108.90625 342.6328125 C-108.86504028 341.55804657 -108.82383057 340.48328064 -108.78137207 339.37594604 C-108.70506426 337.1121956 -108.64194551 334.8479662 -108.59130859 332.58349609 C-108.50034399 329.13802934 -108.32412676 325.70355595 -108.14453125 322.26171875 C-107.25787911 310.74014279 -107.25787911 310.74014279 -111.27734375 300.37573242 C-114.05353159 297.83238463 -116.76258033 295.90668045 -120 294 C-121.14467596 293.07727517 -122.27470901 292.13538131 -123.375 291.16015625 C-124.24125 290.46792969 -125.1075 289.77570313 -126 289.0625 C-128.80738327 286.81414509 -131.51711229 284.60539861 -134 282 C-137.66491477 283.36785008 -140.91864382 285.0319986 -144.2734375 287.0390625 C-145.2634375 287.61914062 -146.2534375 288.19921875 -147.2734375 288.796875 C-149.3387858 290.01423395 -151.39873515 291.24080008 -153.453125 292.4765625 C-154.94199219 293.3428125 -154.94199219 293.3428125 -156.4609375 294.2265625 C-157.35603027 294.75846191 -158.25112305 295.29036133 -159.17333984 295.83837891 C-163.78342447 297.7329015 -167.41058971 297.64131619 -172.01928711 295.78173828 C-173.50827515 294.93458252 -173.50827515 294.93458252 -175.02734375 294.0703125 C-176.14230225 293.44431152 -177.25726074 292.81831055 -178.40600586 292.17333984 C-179.58361712 291.49133036 -180.76077408 290.80853591 -181.9375 290.125 C-183.14741197 289.43490977 -184.35778273 288.7456233 -185.56860352 288.05712891 C-189.06051329 286.06283363 -192.53206467 284.03570697 -196 282 C-196.90878906 281.46826172 -197.81757813 280.93652344 -198.75390625 280.38867188 C-200.99280921 279.06797069 -203.21901442 277.72965758 -205.4375 276.375 C-206.06197021 275.99875488 -206.68644043 275.62250977 -207.32983398 275.23486328 C-211.08453066 272.87525303 -213.72601959 270.81665303 -216 267 C-216.6127179 263.04600451 -216.58418201 259.12383324 -216.56640625 255.12890625 C-216.57260483 253.97382065 -216.57880341 252.81873505 -216.58518982 251.62864685 C-216.59228625 249.18855634 -216.58911717 246.74841739 -216.57641602 244.30834961 C-216.56256132 240.57900654 -216.59661532 236.85217769 -216.63476562 233.12304688 C-216.63571694 230.74999939 -216.63385735 228.37694876 -216.62890625 226.00390625 C-216.64216446 224.89124893 -216.65542267 223.77859161 -216.66908264 222.63221741 C-216.56551648 214.00102407 -216.56551648 214.00102407 -213.81152344 210.47167969 C-211.09133145 208.08029173 -208.54145144 206.22053334 -205.38671875 204.44921875 C-204.31059326 203.83699463 -203.23446777 203.22477051 -202.12573242 202.59399414 C-200.42380737 201.65027954 -200.42380737 201.65027954 -198.6875 200.6875 C-197.51419966 200.027553 -196.34143201 199.36665807 -195.16918945 198.70483398 C-192.85153757 197.39811576 -190.53043276 196.09831058 -188.20703125 194.80175781 C-185.42211629 193.2371512 -182.6591197 191.64349907 -179.90625 190.0234375 C-178.81630737 189.3878894 -178.81630737 189.3878894 -177.7043457 188.73950195 C-176.40189602 187.97941117 -175.10324019 187.21276434 -173.80932617 186.43823242 C-170.39499561 184.47668582 -167.95012034 183.57756687 -164 184 C-163.98582031 183.35160156 -163.97164062 182.70320312 -163.95703125 182.03515625 C-163.36276374 169.81251899 -160.53303243 157.93944488 -158 146 C-158.7223584 145.72526855 -159.4447168 145.45053711 -160.18896484 145.16748047 C-164.88219871 143.21828433 -169.21166765 140.63230189 -173.625 138.125 C-174.57890625 137.59519531 -175.5328125 137.06539062 -176.515625 136.51953125 C-177.43085938 136.00003906 -178.34609375 135.48054687 -179.2890625 134.9453125 C-180.53743896 134.24172607 -180.53743896 134.24172607 -181.81103516 133.52392578 C-184.21533825 131.85008462 -185.45346437 130.48354689 -187 128 C-187.39440918 125.54727173 -187.39440918 125.54727173 -187.41992188 122.77587891 C-187.43583374 121.73444733 -187.45174561 120.69301575 -187.46813965 119.62002563 C-187.46844177 117.94026138 -187.46844177 117.94026138 -187.46875 116.2265625 C-187.48017029 114.49181168 -187.48017029 114.49181168 -187.49182129 112.72201538 C-187.50262528 110.2759619 -187.5054742 107.82986227 -187.50097656 105.38378906 C-187.50000538 101.64569881 -187.54160416 97.90966828 -187.5859375 94.171875 C-187.59114534 91.79427511 -187.59383268 89.41666809 -187.59375 87.0390625 C-187.6183429 85.36537094 -187.6183429 85.36537094 -187.64343262 83.65786743 C-187.56651287 74.99715398 -187.56651287 74.99715398 -184.80224609 71.45581055 C-182.13373809 69.11720434 -179.68979263 67.34553774 -176.5703125 65.66796875 C-175.53438965 65.10094238 -174.4984668 64.53391602 -173.43115234 63.94970703 C-172.34012207 63.36817871 -171.2490918 62.78665039 -170.125 62.1875 C-167.86856521 60.96189073 -165.61335205 59.73402962 -163.359375 58.50390625 C-162.26818359 57.90980957 -161.17699219 57.31571289 -160.05273438 56.70361328 C-154.92676321 53.84300653 -149.99899656 50.68580536 -145.0859375 47.4765625 C-141.17940723 45.60736194 -139.30500872 45.31652439 -135 46 C-131.17187209 47.72986853 -127.61234666 49.8628371 -124 52 C-121.9161079 53.15191007 -119.82878613 54.29763489 -117.73828125 55.4375 C-115.59598093 56.62432653 -113.45405648 57.81183178 -111.3125 59 C-110.23677734 59.59039062 -109.16105469 60.18078125 -108.05273438 60.7890625 C-102.58459845 63.8295202 -97.41986198 66.94589295 -92.51245117 70.8359375 C-90.98917607 72.08504945 -90.98917607 72.08504945 -89 73 C-86.33376772 72.23419148 -83.75949612 71.39795526 -81.1484375 70.47265625 C-80.37440582 70.20488876 -79.60037415 69.93712128 -78.80288696 69.66123962 C-76.32441628 68.80202124 -73.84973994 67.93239841 -71.375 67.0625 C-69.69815567 66.47913026 -68.02107511 65.89643907 -66.34375 65.31445312 C-62.22638134 63.88416962 -58.11238647 62.44454281 -54 61 C-53.98598145 59.58521362 -53.98598145 59.58521362 -53.97167969 58.1418457 C-53.9275569 54.62824458 -53.86589795 51.11584747 -53.79248047 47.6027832 C-53.7643283 46.08499315 -53.7430851 44.56705807 -53.72900391 43.04907227 C-53.70749277 40.86138979 -53.66080772 38.67544035 -53.609375 36.48828125 C-53.58842773 35.17384033 -53.56748047 33.85939941 -53.54589844 32.50512695 C-52.90553276 28.39344091 -51.96915692 26.87429766 -49 24 C-46.19775391 22.09057617 -46.19775391 22.09057617 -42.9765625 20.29296875 C-42.39393646 19.96388016 -41.81131042 19.63479156 -41.21102905 19.29573059 C-39.3543319 18.24982882 -37.49006228 17.21839634 -35.625 16.1875 C-34.41221836 15.5081282 -33.19997411 14.82779617 -31.98828125 14.14648438 C-30.16950911 13.12387187 -28.34942605 12.10428791 -26.52325439 11.09494019 C-23.38072878 9.35589342 -20.27639722 7.57598784 -17.20996094 5.70556641 C-16.59140228 5.33418045 -15.97284363 4.96279449 -15.33554077 4.58015442 C-13.62799299 3.55128061 -11.92963562 2.50719819 -10.23193359 1.4621582 C-6.45509412 -0.24652072 -4.10539499 -0.46014016 0 0 Z " fill="#082C77" transform="translate(351,93)"/>
<path d="M0 0 C2.19458008 1.35864258 2.19458008 1.35864258 4.45703125 3.08203125 C10.56333085 7.51382216 17.07118275 11.08428571 23.6875 14.6875 C24.8837607 15.34385974 26.07972572 16.00075868 27.27539062 16.65820312 C29.53993532 17.90275122 31.80783089 19.14122847 34.07958984 20.37255859 C36.42300124 21.67845898 38.64809467 23.05969192 40.89453125 24.51953125 C44.85614471 26.40814949 46.74904986 25.92069966 51 25 C53.98002634 23.61277452 53.98002634 23.61277452 56.79296875 21.76953125 C57.83517578 21.13208984 58.87738281 20.49464844 59.95117188 19.83789062 C62.12241684 18.4790608 64.29166741 17.11703933 66.45898438 15.75195312 C67.49732422 15.11837891 68.53566406 14.48480469 69.60546875 13.83203125 C70.54543701 13.24139893 71.48540527 12.6507666 72.45385742 12.04223633 C75 11 75 11 77.20019531 11.70751953 C79.48325484 13.34703623 81.50775227 15.14315574 83.5625 17.0625 C88.05272289 21.18739411 92.6911693 25.05794892 97.45703125 28.859375 C98.29621094 29.56578125 99.13539063 30.2721875 100 31 C100.87100342 31.61456055 101.74200684 32.22912109 102.6394043 32.86230469 C106.30923006 37.74022389 105.52431354 42.41399914 105.3125 48.34375 C105.29356689 49.54559937 105.27463379 50.74744873 105.25512695 51.98571777 C105.17338674 57.12450801 105.03257677 62.26130709 104.89746094 67.39892578 C104.80715743 71.151274 104.74662135 74.90330209 104.6875 78.65625 C104.6460083 79.81781616 104.6045166 80.97938232 104.56176758 82.17614746 C104.38193756 88.52658589 104.38193756 88.52658589 107.16088867 94.04956055 C109.98261165 95.98805439 112.76605583 97.85009612 115.73828125 99.55078125 C116.80498047 100.16630859 117.87167969 100.78183594 118.97070312 101.41601562 C120.07349609 102.04185547 121.17628906 102.66769531 122.3125 103.3125 C123.99569336 104.28026367 123.99569336 104.28026367 125.71289062 105.26757812 C128.47127944 106.85218447 131.23364466 108.42935636 134 110 C129.84363246 135.9701529 129.84363246 135.9701529 127 147 C126.07960938 147.1959375 125.15921875 147.391875 124.2109375 147.59375 C118.5299472 149.22421987 113.65661155 152.47936157 108.625 155.5 C106.4883321 156.76831483 104.351613 158.03654342 102.21484375 159.3046875 C101.16538574 159.93084961 100.11592773 160.55701172 99.03466797 161.20214844 C96.28797459 162.82939301 93.52739109 164.42680254 90.75390625 166.0078125 C89.97515137 166.45447266 89.19639648 166.90113281 88.39404297 167.36132812 C86.96280998 168.18098534 85.52840446 168.99513701 84.09033203 169.80273438 C80.57458913 171.83520347 78.00758943 173.44997638 76 177 C75.67571651 179.68142712 75.51199745 182.14447534 75.48828125 184.828125 C75.47033005 185.57713074 75.45237885 186.32613647 75.43388367 187.09783936 C75.37985457 189.48183624 75.34590997 191.8656338 75.3125 194.25 C75.27932025 195.86981936 75.24482997 197.48961244 75.20898438 199.109375 C75.12413284 203.07277266 75.05728711 207.03611197 75 211 C73.56445975 211.50559908 72.1264798 212.0042749 70.6875 212.5 C69.48673828 212.91765625 69.48673828 212.91765625 68.26171875 213.34375 C66 214 66 214 63 214 C62.89211095 194.63806423 62.88698758 175.33859078 64 156 C64.54414551 155.74532959 65.08829102 155.49065918 65.64892578 155.22827148 C66.3654834 154.88352783 67.08204102 154.53878418 67.8203125 154.18359375 C68.52945801 153.84642334 69.23860352 153.50925293 69.96923828 153.16186523 C74.70366803 150.45314305 77.35348534 146.12284208 79 141 C79.38920652 136.43189286 79.37162343 131.86287867 79.37060547 127.28051758 C79.37498059 125.07229573 79.41134286 122.8660722 79.44921875 120.65820312 C79.4550877 119.24219427 79.45905657 117.82617601 79.4609375 116.41015625 C79.46915527 115.13277588 79.47737305 113.85539551 79.48583984 112.53930664 C78.76460131 107.2851383 76.37820148 104.24038133 72.5 100.75 C68.19983802 97.73988661 65.27851021 96.73960663 59.98828125 96.49755859 C58.77180908 96.4376474 57.55533691 96.37773621 56.30200195 96.31600952 C54.98546631 96.26071075 53.66893066 96.20541199 52.3125 96.1484375 C50.93120324 96.08469249 49.54993721 96.02027823 48.16870117 95.95523071 C45.26373014 95.82033743 42.35857458 95.691534 39.453125 95.56738281 C35.7906286 95.41070223 32.12879693 95.24230393 28.4670105 95.06991196 C19.64641165 94.65575336 10.82505761 94.30536021 2 94 C0.38593262 93.93939392 0.38593262 93.93939392 -1.26074219 93.87756348 C-4.02810645 93.78182065 -6.79400979 93.71569809 -9.5625 93.6640625 C-10.70271606 93.62156876 -10.70271606 93.62156876 -11.8659668 93.57821655 C-18.19732722 93.52733503 -23.48511006 95.55669137 -28.05859375 100 C-28.51363281 100.66 -28.96867187 101.32 -29.4375 102 C-30.14712891 102.99 -30.14712891 102.99 -30.87109375 104 C-34.22637411 109.94430292 -33.22320396 117.21062444 -33.25 123.8125 C-33.270625 125.07126953 -33.29125 126.33003906 -33.3125 127.62695312 C-33.34730454 135.8799791 -33.08030036 141.35227589 -27.625 147.8125 C-25.07784972 149.93512524 -23.06910705 150.86576479 -20 152 C-20.11856268 157.87171171 -20.24283188 163.74326502 -20.37231445 169.61474609 C-20.41553815 171.61080673 -20.45722174 173.60690136 -20.49731445 175.60302734 C-20.55532239 178.47764309 -20.61892791 181.35208975 -20.68359375 184.2265625 C-20.70030624 185.11429352 -20.71701874 186.00202454 -20.73423767 186.91665649 C-21.02094393 198.99740587 -21.02094393 198.99740587 -23.50292969 201.5390625 C-24.13618164 201.89742187 -24.76943359 202.25578125 -25.421875 202.625 C-26.11796875 203.02074219 -26.8140625 203.41648437 -27.53125 203.82421875 C-28.2634375 204.21222656 -28.995625 204.60023438 -29.75 205 C-30.46671875 205.41894531 -31.1834375 205.83789062 -31.921875 206.26953125 C-37.13123464 209.13276385 -37.13123464 209.13276385 -40.6328125 208.59765625 C-43.75162655 206.49271409 -46.43676081 204.05159484 -49.125 201.4375 C-54.86520258 195.98732349 -60.79662981 190.92291502 -67 186 C-66.83865067 185.44618149 -66.67730133 184.89236298 -66.51106262 184.32176208 C-65.94961837 181.77111579 -65.85156811 179.46325625 -65.82299805 176.85180664 C-65.81016281 175.82716812 -65.79732758 174.8025296 -65.78410339 173.74684143 C-65.77671646 172.64573532 -65.76932953 171.54462921 -65.76171875 170.41015625 C-65.753647 169.27348007 -65.74557526 168.13680389 -65.73725891 166.96568298 C-65.72343623 164.56250528 -65.71270597 162.15930808 -65.70483398 159.75610352 C-65.68758149 156.0798651 -65.64367314 152.40451689 -65.59960938 148.72851562 C-65.58948555 146.39323577 -65.58096848 144.05794829 -65.57421875 141.72265625 C-65.55671066 140.62357437 -65.53920258 139.52449249 -65.52116394 138.3921051 C-65.51396239 132.4319214 -65.51396239 132.4319214 -67.67626953 126.98706055 C-70.21088833 124.81966589 -72.70209115 123.12868967 -75.60546875 121.484375 C-76.67087891 120.87335938 -77.73628906 120.26234375 -78.83398438 119.6328125 C-79.94064453 119.01148438 -81.04730469 118.39015625 -82.1875 117.75 C-84.38991437 116.49582974 -86.59176908 115.24067597 -88.79296875 113.984375 C-89.7677417 113.43491211 -90.74251465 112.88544922 -91.74682617 112.31933594 C-94 111 -94 111 -95 110 C-94.88324615 105.98642487 -94.40468862 101.99353311 -94 98 C-93.90187012 96.94361328 -93.80374023 95.88722656 -93.70263672 94.79882812 C-91.76025317 76.29612301 -91.76025317 76.29612301 -87.58398438 71.30908203 C-83.98514478 68.63581226 -79.80107185 67.43221311 -75.59130859 66.0234375 C-70.24737207 63.91284942 -65.41354762 60.76243212 -60.5 57.8125 C-59.48574951 57.21671143 -58.47149902 56.62092285 -57.42651367 56.00708008 C-54.60909188 54.35197559 -51.80225535 52.68062991 -49 51 C-48.18789062 50.5157959 -47.37578125 50.0315918 -46.5390625 49.53271484 C-45.45238281 48.87263428 -45.45238281 48.87263428 -44.34375 48.19921875 C-43.71662109 47.81983154 -43.08949219 47.44044434 -42.44335938 47.04956055 C-40.83160404 46.04685781 -40.83160404 46.04685781 -40 44 C-39.84373424 41.52167341 -39.74186802 39.06688669 -39.68359375 36.5859375 C-39.66281265 35.85629791 -39.64203156 35.12665833 -39.62062073 34.37490845 C-39.55518083 32.04170237 -39.49626632 29.70838279 -39.4375 27.375 C-39.39430947 25.79425905 -39.35069501 24.21352961 -39.30664062 22.6328125 C-39.19950519 18.75532496 -39.09822218 14.87772315 -39 11 C-34.25504529 9.25686992 -29.50456984 7.53010578 -24.74829102 5.81811523 C-23.1317688 5.2336915 -21.51683286 4.64486029 -19.90356445 4.05151367 C-17.58169035 3.1984198 -15.25453577 2.36144277 -12.92578125 1.52734375 C-12.20787918 1.25969711 -11.48997711 0.99205048 -10.75032043 0.71629333 C-6.78888534 -0.68307616 -3.9995698 -1.49000227 0 0 Z " fill="#FDFDFE" transform="translate(301,177)"/>
<path d="M0 0 C1.55741158 0.04309044 1.55741158 0.04309044 3.14628601 0.08705139 C3.81444493 0.105531 4.48260386 0.1240106 5.17101002 0.14305019 C6.63058533 0.18344792 8.09015906 0.22390266 9.54973125 0.26441288 C12.55026323 0.34763574 15.55079343 0.43055121 18.55142212 0.51022339 C27.0718914 0.73666716 35.52195256 1.06386551 44 2 C44.02748063 5.06256338 44.04706558 8.12486989 44.0625 11.1875 C44.07087891 12.03248047 44.07925781 12.87746094 44.08789062 13.74804688 C44.10606223 18.59986623 43.92886283 23.38242662 43.53125 28.21875 C40.7639261 55.17138067 40.7639261 55.17138067 49.61767578 79.82080078 C52.5593285 84.458242 54.99564864 89.39880451 57.5625 94.25 C58.78136922 96.50915496 60.00277068 98.76694534 61.2265625 101.0234375 C64.98373073 107.96319405 68.71379996 114.91723992 72.4375 121.875 C73.68878682 124.21224776 74.94008899 126.54948729 76.19140625 128.88671875 C76.50270981 129.46827225 76.81401337 130.04982574 77.13475037 130.64900208 C79.73858241 135.51295681 82.34546607 140.37527159 84.95314026 145.23716736 C87.16955816 149.37011683 89.38225559 153.50503889 91.59375 157.640625 C93.68638607 161.55324856 95.7890266 165.46000697 97.90625 169.359375 C98.72919476 170.88540151 99.55211386 172.41144187 100.375 173.9375 C100.73835449 174.59903076 101.10170898 175.26056152 101.47607422 175.94213867 C104.82807809 182.18829957 106.32103553 188.4768892 104.28125 195.4609375 C101.10628739 203.98724839 97.18975173 208.90512413 89 213 C85.47311478 214.17562841 82.2890001 214.15123437 78.61938477 214.14819336 C77.49569016 214.15207282 77.49569016 214.15207282 76.34929466 214.15603065 C73.85911946 214.16148734 71.36908034 214.15779897 68.87890625 214.15234375 C68.01624208 214.1516432 67.15357792 214.15094265 66.26477242 214.15022087 C46.99779633 214.12305252 27.76783509 213.459302 8.51947021 212.66760254 C4.16881355 212.49050326 -0.18221052 212.32290405 -4.53320312 212.15429688 C-9.56632068 211.9592167 -14.59921067 211.76106341 -19.63150024 211.54556274 C-21.20371187 211.47838107 -22.77592656 211.41127126 -24.34814453 211.34423828 C-25.10035593 211.31216593 -25.85256733 211.28009357 -26.62757301 211.24704933 C-31.08735812 211.06247244 -35.54416047 210.93508161 -40.00732422 210.85498047 C-41.52669838 210.81775124 -41.52669838 210.81775124 -43.07676697 210.7797699 C-44.84103888 210.73877706 -46.6058727 210.71502766 -48.37062073 210.71546936 C-55.48785108 210.5199589 -60.84998253 207.57874312 -66.3046875 203.11328125 C-71.60309725 197.0372442 -74.93936153 189.54980507 -74.52734375 181.29296875 C-71.95430674 170.10502263 -63.81536012 159.82126871 -57.57714844 150.40136719 C-54.6908568 146.00669775 -51.88004263 141.56393316 -49.0625 137.125 C-48.47025635 136.19324951 -47.8780127 135.26149902 -47.26782227 134.30151367 C-41.98509752 125.98668821 -36.72301775 117.65887283 -31.46777344 109.32666016 C-29.48043948 106.17641188 -27.49137943 103.02725531 -25.50219727 99.87817383 C-24.50777205 98.30386926 -23.51346693 96.72948884 -22.51928711 95.1550293 C-19.90915828 91.02150236 -17.29745478 86.88898052 -14.68359375 82.7578125 C-14.14025391 81.89865234 -13.59691406 81.03949219 -13.03710938 80.15429688 C-11.99851439 78.51207403 -10.95947752 76.87013053 -9.91992188 75.22851562 C-9.45005859 74.48537109 -8.98019531 73.74222656 -8.49609375 72.9765625 C-7.88012329 72.00323975 -7.88012329 72.00323975 -7.25170898 71.01025391 C-6.83864502 70.34687012 -6.42558105 69.68348633 -6 69 C-5.49188782 68.26641769 -4.98377563 67.53283539 -4.46026611 66.77702332 C-2.74138073 63.50817749 -2.53644832 61.23710955 -2.3840332 57.55737305 C-2.32419754 56.27642258 -2.26436188 54.99547211 -2.20271301 53.67570496 C-2.151772 52.28772043 -2.10113515 50.8997247 -2.05078125 49.51171875 C-1.98901525 48.08391639 -1.92602434 46.65616654 -1.86186218 45.22846985 C-1.69678841 41.482317 -1.5483066 37.73568535 -1.40332031 33.9887085 C-1.25224127 30.16066198 -1.0854109 26.33330521 -0.91992188 22.50585938 C-0.59789903 15.00449145 -0.29340906 7.50254742 0 0 Z " fill="#FDFDFE" transform="translate(301,331)"/>
<path d="M0 0 C0.84604797 0.01178787 1.69209595 0.02357574 2.56378174 0.03572083 C5.57991783 0.08850304 8.59409921 0.17246036 11.609375 0.26171875 C12.8063501 0.29489197 14.0033252 0.32806519 15.23657227 0.36224365 C22.7832641 0.58058266 30.32627973 0.85161971 37.86914825 1.17617607 C41.49932419 1.33232474 45.12930376 1.47902533 48.76074219 1.6027832 C52.33804191 1.72477625 55.9137346 1.86966676 59.48947906 2.03078651 C61.47846637 2.11495387 63.46836251 2.1767033 65.45819092 2.23783875 C73.66204336 2.64044993 79.3238527 3.87677605 85.15570068 9.84391785 C90.54907037 16.0674235 89.86232541 21.7998098 89.90454102 29.64501953 C89.91601469 31.12884085 89.93639307 32.61262241 89.96606445 34.09619141 C90.15343202 43.46456984 90.24154062 50.8005302 83.86328125 58.3203125 C83.30511719 58.77535156 82.74695313 59.23039062 82.171875 59.69921875 C81.61628906 60.17230469 81.06070313 60.64539063 80.48828125 61.1328125 C78.22992624 62.48970356 76.19893125 62.87528411 73.609375 63.26171875 C73.62097656 64.504375 73.63257813 65.74703125 73.64453125 67.02734375 C73.648479 67.87901123 73.65242676 68.73067871 73.65649414 69.6081543 C73.66701392 71.59405449 73.68613594 73.57992273 73.71264648 75.56567383 C73.75536006 82.0403796 73.46152727 88.38150572 72.859375 94.8203125 C71.02167807 116.23641531 73.55835917 128.65707801 85.52392578 146.98535156 C88.86995864 152.2421721 91.71432615 157.74805367 94.609375 163.26171875 C95.76449619 165.41146421 96.92206005 167.5598989 98.08203125 169.70703125 C102.37060696 177.6716999 106.64837085 185.64219896 110.90722656 193.62280273 C113.82254257 199.08235994 116.74986048 204.53346064 119.73402405 209.95574951 C121.11685044 212.47035889 122.4912096 214.98955082 123.86502075 217.50909424 C124.82690665 219.26495004 125.800825 221.01419768 126.77514648 222.76318359 C133.85257129 235.76569194 136.76823213 248.18247515 133.3515625 262.83203125 C129.86035969 274.26112678 121.91937474 284.15184314 111.72265625 290.421875 C109.70766919 291.43155398 107.67881091 292.3685164 105.609375 293.26171875 C104.56716797 293.71611328 104.56716797 293.71611328 103.50390625 294.1796875 C91.25845231 298.66898473 76.4286201 296.26071298 63.63769531 295.68847656 C56.38160588 295.37580703 49.12812624 295.16603572 41.8671875 295.0078125 C40.91909714 294.98707169 39.97100677 294.96633087 38.9941864 294.94496155 C34.22482158 294.84223491 29.45539357 294.74551779 24.68579102 294.65454102 C16.68288672 294.49309681 8.75757765 294.25635174 0.78588867 293.49365234 C-3.40092111 293.18795184 -7.58092431 293.09763773 -11.77734375 293.015625 C-12.61248001 292.99893768 -13.44761627 292.98225037 -14.30805969 292.96505737 C-17.7747071 292.89867507 -21.24135424 292.8367241 -24.70825195 292.78491211 C-27.27316738 292.74490642 -29.83766541 292.69349092 -32.40234375 292.640625 C-33.17132492 292.63221085 -33.94030609 292.62379669 -34.73258972 292.61512756 C-48.84144042 292.29842896 -61.22774034 287.82523076 -71.625 278.19140625 C-81.0317035 268.32497664 -84.86467547 256.14475308 -84.74536133 242.73413086 C-84.37037634 228.93379407 -76.59261535 218.55038972 -69.390625 207.26171875 C-68.25358941 205.46764868 -67.11687851 203.6733728 -65.98046875 201.87890625 C-63.61458492 198.14945856 -61.24149773 194.42471941 -58.86328125 190.703125 C-55.68837709 185.73351929 -52.53526562 180.75051346 -49.390625 175.76171875 C-44.48955493 167.99029107 -39.56055777 160.23691027 -34.62353516 152.48828125 C-30.1605431 145.48050279 -25.71926157 138.45925777 -21.296875 131.42578125 C-20.61238281 130.33910156 -20.61238281 130.33910156 -19.9140625 129.23046875 C-19.52138184 128.60591797 -19.12870117 127.98136719 -18.72412109 127.33789062 C-17.390625 125.26171875 -17.390625 125.26171875 -15.2824707 122.71191406 C-12.61757914 117.85190018 -12.70344553 113.55460057 -12.59765625 108.08984375 C-12.56129562 107.01224792 -12.524935 105.9346521 -12.48747253 104.82440186 C-12.37491971 101.38711971 -12.28816117 97.94978151 -12.203125 94.51171875 C-12.10199575 91.08828861 -11.9955397 87.66507363 -11.88664246 84.24188232 C-11.82080984 82.11611541 -11.76035444 79.99017253 -11.70625305 77.86407471 C-11.53412307 71.62331355 -11.10610611 65.46408263 -10.390625 59.26171875 C-11.1125 59.17921875 -11.834375 59.09671875 -12.578125 59.01171875 C-17.01615558 57.82824393 -19.5345458 55.48468903 -22.140625 51.76171875 C-25.34169653 45.35957569 -24.61219033 38.45480956 -24.640625 31.44921875 C-24.66125 30.19044922 -24.681875 28.93167969 -24.703125 27.63476562 C-24.73864243 19.2126942 -24.24998811 13.12950669 -18.640625 6.51171875 C-18.19203125 5.96 -17.7434375 5.40828125 -17.28125 4.83984375 C-12.05361366 0.47627953 -6.59819396 -0.1774112 0 0 Z M9.609375 61.26171875 C9.60065872 62.01688278 9.59194244 62.77204681 9.58296204 63.5500946 C9.48822524 70.77180225 9.33132429 77.98852373 9.10947895 85.20735455 C8.99755455 88.91644246 8.90732503 92.62307139 8.87182617 96.33374023 C8.6742341 115.03324349 7.07966427 128.95228842 -4.84799194 144.2583313 C-6.87277482 146.88787731 -8.57492333 149.62320914 -10.30078125 152.45703125 C-11.35026277 154.10109082 -12.4010021 155.74434829 -13.453125 157.38671875 C-14.63178761 159.23289597 -15.81016807 161.07925336 -16.98828125 162.92578125 C-17.55949707 163.82071289 -18.13071289 164.71564453 -18.71923828 165.63769531 C-21.28851737 169.67138092 -23.84011857 173.71614656 -26.390625 177.76171875 C-30.11542892 183.66788236 -33.85251529 189.56600069 -37.60351562 195.45556641 C-38.7904693 197.31934312 -39.97667311 199.18359762 -41.16210938 201.04833984 C-44.00826337 205.52526743 -46.86176996 209.99702331 -49.734375 214.45703125 C-61.66519553 231.20789094 -61.66519553 231.20789094 -63.98046875 250.65625 C-62.04559028 258.9980108 -57.32265531 264.74035991 -50.17456055 269.32397461 C-43.95866369 272.34582525 -37.20051032 272.07116467 -30.421875 272.2734375 C-28.94049006 272.33101979 -27.4591666 272.39020299 -25.97790527 272.45088196 C-22.07147599 272.60648072 -18.16459321 272.73993731 -14.25720215 272.86877441 C-10.40271162 272.99979568 -6.54908427 273.15227754 -2.6953125 273.30273438 C5.66412173 273.62468266 14.02451992 273.91171439 22.38557816 274.18787384 C24.58781002 274.26100265 26.78998874 274.33556522 28.99215698 274.4105835 C52.14164192 275.19931449 52.14164192 275.19931449 75.30151367 275.50195312 C76.92655739 275.50864812 78.55158263 275.52269473 80.17651367 275.54296875 C82.62434076 275.57336179 85.07153715 275.58396375 87.51953125 275.58984375 C88.2360939 275.60219055 88.95265656 275.61453735 89.69093323 275.6272583 C96.00993849 275.59924632 100.52895798 274.10022681 105.296875 269.88671875 C106.06 269.02046875 106.823125 268.15421875 107.609375 267.26171875 C108.310625 266.49859375 109.011875 265.73546875 109.734375 264.94921875 C113.57349172 259.44648478 115.31975094 254.01029015 114.609375 247.26171875 C112.78952721 240.2214317 109.58435 233.9553989 106.171875 227.57421875 C105.64037842 226.5680249 105.10888184 225.56183105 104.5612793 224.52514648 C100.59139519 217.03454497 96.5376735 209.59009624 92.45874023 202.15844727 C87.6052989 193.30074203 82.87347017 184.38004965 78.14483643 175.45535278 C72.50177814 164.80554875 66.8160651 154.18018418 61.07470703 143.58300781 C60.03246175 141.65531241 58.99921131 139.72271521 57.97680664 137.78442383 C56.68383495 135.32295092 56.68383495 135.32295092 55.34936523 133.30737305 C51.35378742 126.75673995 52.13700062 119.50351935 52.296875 112.07421875 C52.30839607 110.72722741 52.31817238 109.38021998 52.32617188 108.03320312 C52.39357664 100.75210362 52.77868028 93.53667375 53.39331055 86.2824707 C53.72335342 81.66821028 53.71772236 77.07274817 53.671875 72.44921875 C53.66736328 71.55396484 53.66285156 70.65871094 53.65820312 69.73632812 C53.64666177 67.57809449 53.6287405 65.41989636 53.609375 63.26171875 C44.22452408 62.22545625 34.85181947 61.94895785 25.421875 61.69921875 C23.88215261 61.65591254 22.34243894 61.61229494 20.80273438 61.56835938 C17.07170816 61.46256139 13.34058211 61.36095807 9.609375 61.26171875 Z " fill="#072B76" transform="translate(291.390625,269.73828125)"/>
<path d="M0 0 C3.68821514 1.44202056 7.0996652 3.07352723 10.5625 5 C13.68203111 6.73066913 16.80392159 8.4157718 20 10 C19.81824219 10.90766113 19.63648438 11.81532227 19.44921875 12.75048828 C18.77374906 16.1377956 18.10343478 19.52604062 17.43652344 22.91503906 C17.14754971 24.37800897 16.85656256 25.84058275 16.56347656 27.30273438 C16.1411018 29.41173487 15.72613196 31.52208212 15.3125 33.6328125 C15.06113281 34.90012207 14.80976563 36.16743164 14.55078125 37.47314453 C13.76863858 42.2314182 13.76863858 42.2314182 14 47 C16.124862 49.01792692 16.124862 49.01792692 19.07421875 50.4375 C20.66459961 51.31535156 20.66459961 51.31535156 22.28710938 52.2109375 C23.40923828 52.80132812 24.53136719 53.39171875 25.6875 54 C27.88488879 55.17639283 30.07652169 56.36361243 32.26171875 57.5625 C33.24100342 58.07941406 34.22028809 58.59632813 35.22924805 59.12890625 C38.55423823 61.37427807 41.23237507 63.37069329 43 67 C43.67780404 70.95006481 43.60629315 74.82207629 43.5234375 78.8203125 C43.51873444 79.95653046 43.51403137 81.09274841 43.50918579 82.26339722 C43.48788029 85.88455402 43.43128131 89.50423597 43.375 93.125 C43.3584887 95.56899661 43.34414171 98.01300887 43.33203125 100.45703125 C43.29810719 104.92743807 43.26316719 109.39768114 43.19287109 113.86767578 C43.18001068 114.76447052 43.16715027 115.66126526 43.15390015 116.5852356 C43.00951494 118.85070619 42.6318812 120.82542603 42 123 C42.64324219 123.51046875 43.28648437 124.0209375 43.94921875 124.546875 C50.09117649 129.48847866 55.93274487 134.60399545 61.58276367 140.10058594 C63.58051089 142.00107155 65.52457967 143.73203581 67.93359375 145.08984375 C71.46954917 144.93610656 74.19809512 142.88804377 77.125 141.0625 C83.78505843 137 83.78505843 137 86 137 C87.05454335 146.83595481 84.91451933 152.23739797 79.1875 160.125 C77.79980277 162.13644938 76.41440725 164.14948854 75.03125 166.1640625 C74.34417969 167.14922852 73.65710938 168.13439453 72.94921875 169.14941406 C70.19874237 173.17177907 67.68236009 177.31607884 65.1875 181.5 C61.69708969 187.28637375 58.11105253 192.99369246 54.375 198.625 C53.94856201 199.27146484 53.52212402 199.91792969 53.08276367 200.58398438 C52.08349946 202.07536201 51.04587907 203.54093414 50 205 C49.67 205 49.34 205 49 205 C49.02442673 204.42085846 49.04885345 203.84171692 49.07402039 203.24502563 C49.31874018 197.1779506 49.48381332 191.11229014 49.60424805 185.04150391 C49.65932721 182.78115851 49.73421954 180.52120081 49.82983398 178.26220703 C51.00638325 165.20369699 51.00638325 165.20369699 46.71337891 153.40307617 C43.93957667 150.86782751 41.22085591 148.92157638 38 147 C36.85607744 146.07634133 35.72624705 145.13430157 34.625 144.16015625 C33.75875 143.46792969 32.8925 142.77570313 32 142.0625 C29.19261673 139.81414509 26.48288771 137.60539861 24 135 C20.33508523 136.36785008 17.08135618 138.0319986 13.7265625 140.0390625 C12.7365625 140.61914062 11.7465625 141.19921875 10.7265625 141.796875 C8.6612142 143.01423395 6.60126485 144.24080008 4.546875 145.4765625 C3.55429688 146.0540625 2.56171875 146.6315625 1.5390625 147.2265625 C0.64396973 147.75846191 -0.25112305 148.29036133 -1.17333984 148.83837891 C-5.78342447 150.7329015 -9.41058971 150.64131619 -14.01928711 148.78173828 C-15.0119458 148.21696777 -16.00460449 147.65219727 -17.02734375 147.0703125 C-18.14230225 146.44431152 -19.25726074 145.81831055 -20.40600586 145.17333984 C-21.58361712 144.49133036 -22.76077408 143.80853591 -23.9375 143.125 C-25.14741197 142.43490977 -26.35778273 141.7456233 -27.56860352 141.05712891 C-31.06051329 139.06283363 -34.53206467 137.03570697 -38 135 C-38.90878906 134.46826172 -39.81757813 133.93652344 -40.75390625 133.38867188 C-42.99280921 132.06797069 -45.21901442 130.72965758 -47.4375 129.375 C-48.06197021 128.99875488 -48.68644043 128.62250977 -49.32983398 128.23486328 C-53.08453066 125.87525303 -55.72601959 123.81665303 -58 120 C-58.6127179 116.04600451 -58.58418201 112.12383324 -58.56640625 108.12890625 C-58.57260483 106.97382065 -58.57880341 105.81873505 -58.58518982 104.62864685 C-58.59228625 102.18855634 -58.58911717 99.74841739 -58.57641602 97.30834961 C-58.56256132 93.57900654 -58.59661532 89.85217769 -58.63476562 86.12304688 C-58.63571694 83.74999939 -58.63385735 81.37694876 -58.62890625 79.00390625 C-58.64216446 77.89124893 -58.65542267 76.77859161 -58.66908264 75.63221741 C-58.56551648 67.00102407 -58.56551648 67.00102407 -55.81152344 63.47167969 C-53.09133145 61.08029173 -50.54145144 59.22053334 -47.38671875 57.44921875 C-46.31059326 56.83699463 -45.23446777 56.22477051 -44.12573242 55.59399414 C-42.99111572 54.96485107 -41.85649902 54.33570801 -40.6875 53.6875 C-39.51419966 53.027553 -38.34143201 52.36665807 -37.16918945 51.70483398 C-34.85153757 50.39811576 -32.53043276 49.09831058 -30.20703125 47.80175781 C-27.42211629 46.2371512 -24.6591197 44.64349907 -21.90625 43.0234375 C-21.17962158 42.59973877 -20.45299316 42.17604004 -19.7043457 41.73950195 C-18.40189602 40.97941117 -17.10324019 40.21276434 -15.80932617 39.43823242 C-12.39499561 37.47668582 -9.95012034 36.57756687 -6 37 C-5.98582031 36.34 -5.97164062 35.68 -5.95703125 35 C-5.38365334 23.09853418 -2.57407631 11.59965298 0 0 Z " fill="#6864F6" transform="translate(193,240)"/>
<path d="M0 0 C27.15350669 5.46625421 27.15350669 5.46625421 33.35766602 13.83032227 C34.73916205 16.04291649 36.0344999 18.28862523 37.3125 20.5625 C41.67424771 27.99901977 46.24925567 34.550951 52 41 C52.763125 41.87140625 53.52625 42.7428125 54.3125 43.640625 C56.51221674 46.12273781 58.74457987 48.56850618 61 51 C61.54914063 51.60328125 62.09828125 52.2065625 62.6640625 52.828125 C79.91462625 71.01344836 104.50717636 83.95362708 128.2890625 91.02734375 C131 92 131 92 132 94 C127.57277415 100.68138114 123.7404508 104.41984973 116 107 C113.53008087 107.10300985 111.08949206 107.15024034 108.61938477 107.14819336 C107.49569016 107.15207282 107.49569016 107.15207282 106.34929466 107.15603065 C103.85911946 107.16148734 101.36908034 107.15779897 98.87890625 107.15234375 C98.01624208 107.1516432 97.15357792 107.15094265 96.26477242 107.15022087 C76.99779633 107.12305252 57.76783509 106.459302 38.51947021 105.66760254 C34.16881355 105.49050326 29.81778948 105.32290405 25.46679688 105.15429688 C20.43367932 104.9592167 15.40078933 104.76106341 10.36849976 104.54556274 C8.79628813 104.47838107 7.22407344 104.41127126 5.65185547 104.34423828 C4.89964407 104.31216593 4.14743267 104.28009357 3.37242699 104.24704933 C-1.08735812 104.06247244 -5.54416047 103.93508161 -10.00732422 103.85498047 C-11.02024033 103.83016098 -12.03315643 103.80534149 -13.07676697 103.7797699 C-14.84103888 103.73877706 -16.6058727 103.71502766 -18.37062073 103.71546936 C-25.48785108 103.5199589 -30.84998253 100.57874312 -36.3046875 96.11328125 C-41.60309725 90.0372442 -44.93936153 82.54980507 -44.52734375 74.29296875 C-41.95430674 63.10502263 -33.81536012 52.82126871 -27.57714844 43.40136719 C-24.6908566 39.00669745 -21.88005933 34.56392294 -19.0625 30.125 C-18.47895752 29.20702637 -17.89541504 28.28905273 -17.29418945 27.34326172 C-11.51061805 18.24074986 -5.75170682 9.12267053 0 0 Z " fill="#92B1F3" transform="translate(271,438)"/>
<path d="M0 0 C4.24292532 1.60630825 8.27025107 3.5768162 12.3125 5.625 C13.28026367 6.11226563 13.28026367 6.11226563 14.26757812 6.609375 C15.84597541 7.40441956 17.42311694 8.20195634 19 9 C18.8860791 9.62366455 18.7721582 10.2473291 18.65478516 10.88989258 C17.20945017 18.81910097 15.78999591 26.75282815 14.375 34.6875 C14.14554687 35.97333984 13.91609375 37.25917969 13.6796875 38.58398438 C13.11963216 41.72262783 12.55973959 44.86130022 12 48 C12.73210693 48.27996826 13.46421387 48.55993652 14.21850586 48.84838867 C18.54124318 50.63811499 22.50905009 52.98786345 26.5625 55.3125 C27.41263672 55.78623047 28.26277344 56.25996094 29.13867188 56.74804688 C29.96044922 57.21919922 30.78222656 57.69035156 31.62890625 58.17578125 C32.37213135 58.59770752 33.11535645 59.01963379 33.88110352 59.4543457 C36.709984 61.51790629 38.22492266 62.91989979 40 66 C40.59229259 69.89584731 40.56031761 73.75310469 40.53125 77.6875 C40.53699036 79.39039185 40.53699036 79.39039185 40.54284668 81.12768555 C40.54556537 83.52491138 40.53820731 85.92216689 40.52148438 88.31933594 C40.50007587 91.98700142 40.52128935 95.65270789 40.546875 99.3203125 C40.54423172 101.65104599 40.53910674 103.98177826 40.53125 106.3125 C40.53934692 107.40844482 40.54744385 108.50438965 40.55578613 109.63354492 C40.46314206 117.16168966 40.46314206 117.16168966 38.34326172 120.9987793 C35.67954628 123.27367776 33.0376985 124.99874382 29.9765625 126.70703125 C29.39393646 127.03611984 28.81131042 127.36520844 28.21102905 127.70426941 C26.3543319 128.75017118 24.49006228 129.78160366 22.625 130.8125 C21.41221836 131.4918718 20.19997411 132.17220383 18.98828125 132.85351562 C17.16950911 133.87612813 15.34942605 134.89571209 13.52325439 135.90505981 C10.38072878 137.64410658 7.27639722 139.42401216 4.20996094 141.29443359 C3.28212296 141.85151253 3.28212296 141.85151253 2.33554077 142.41984558 C0.62799299 143.44871939 -1.07036438 144.49280181 -2.76806641 145.5378418 C-6.54490588 147.24652072 -8.89460501 147.46014016 -13 147 C-15.80395508 145.8894043 -15.80395508 145.8894043 -18.51953125 144.32421875 C-19.53362061 143.74808838 -20.54770996 143.17195801 -21.5925293 142.57836914 C-22.65511963 141.95438232 -23.71770996 141.33039551 -24.8125 140.6875 C-25.91311768 140.05900146 -27.01373535 139.43050293 -28.14770508 138.78295898 C-33.30713377 135.81730903 -38.4060319 132.77630702 -43.4296875 129.5859375 C-44.24074951 129.07329346 -45.05181152 128.56064941 -45.88745117 128.0324707 C-47.38299701 127.07666118 -48.86831306 126.10458549 -50.34106445 125.11401367 C-53.78649215 122.894592 -55.27736816 121.955493 -59.48828125 122.21484375 C-60.31714844 122.47394531 -61.14601563 122.73304688 -62 123 C-63.69443888 120.01490342 -65.35011859 117.00991879 -67 114 C-67.47695313 113.16082031 -67.95390625 112.32164062 -68.4453125 111.45703125 C-71.42376169 105.96817489 -72.57834752 102.24615321 -72 96 C-71.67 96 -71.34 96 -71 96 C-71 98.31 -71 100.62 -71 103 C-70.38511719 102.7834375 -69.77023437 102.566875 -69.13671875 102.34375 C-68.32847656 102.0653125 -67.52023437 101.786875 -66.6875 101.5 C-65.88699219 101.2215625 -65.08648437 100.943125 -64.26171875 100.65625 C-62 100 -62 100 -59 100 C-59.02618408 99.00145996 -59.05236816 98.00291992 -59.0793457 96.97412109 C-59.17020673 93.25071841 -59.22737771 89.52741262 -59.2746582 85.80322266 C-59.29972128 84.19498182 -59.33378171 82.58685398 -59.37719727 80.97900391 C-59.43821848 78.66019761 -59.46628963 76.34290335 -59.48828125 74.0234375 C-59.51408768 73.31069672 -59.5398941 72.59795593 -59.56648254 71.86361694 C-59.56866666 67.92946442 -59.00431217 66.00647234 -56.80444336 62.70458984 C-54.15732005 60.1517186 -51.86380361 58.43815761 -48.640625 56.703125 C-47.61485352 56.14125488 -46.58908203 55.57938477 -45.53222656 55.00048828 C-44.4490918 54.42282715 -43.36595703 53.84516602 -42.25 53.25 C-39.99899031 52.02529148 -37.74899378 50.79871901 -35.5 49.5703125 C-34.3965625 48.96993164 -33.293125 48.36955078 -32.15625 47.75097656 C-27.08438922 44.93728647 -22.12437403 41.93407554 -17.21582031 38.84472656 C-13.67439722 36.68836082 -11.18341694 35.47308107 -7 36 C-6.90203125 35.31679688 -6.8040625 34.63359375 -6.703125 33.9296875 C-5.57814474 26.34576886 -4.28872954 18.79660479 -2.9375 11.25 C-2.7631543 10.26112793 -2.58880859 9.27225586 -2.40917969 8.25341797 C-2.24192383 7.32932129 -2.07466797 6.40522461 -1.90234375 5.453125 C-1.75273193 4.61942383 -1.60312012 3.78572266 -1.44897461 2.92675781 C-1 1 -1 1 0 0 Z " fill="#072C76" transform="translate(435,288)"/>
<path d="M0 0 C2.70629883 1.12646484 2.70629883 1.12646484 5.45703125 2.7109375 C6.47958008 3.29166016 7.50212891 3.87238281 8.55566406 4.47070312 C9.63041992 5.09912109 10.70517578 5.72753906 11.8125 6.375 C12.91948242 7.01115234 14.02646484 7.64730469 15.16699219 8.30273438 C17.40114078 9.58919976 19.6321441 10.88114385 21.85986328 12.17871094 C24.64224379 13.79250029 27.43839513 15.37615932 30.24609375 16.9453125 C31.74781928 17.79612803 33.24915382 18.64763424 34.75 19.5 C35.42135986 19.8717334 36.09271973 20.2434668 36.78442383 20.62646484 C37.40728271 20.98691895 38.0301416 21.34737305 38.671875 21.71875 C39.1987793 22.01716797 39.72568359 22.31558594 40.26855469 22.62304688 C43.92053371 25.52732799 46.59497387 27.79650445 47.45452881 32.47280884 C47.62850001 35.51545476 47.64049038 38.51910892 47.59375 41.56640625 C47.59379028 42.67805649 47.59383057 43.78970673 47.59387207 44.93504333 C47.58852262 47.27926301 47.57096482 49.62348257 47.54199219 51.9675293 C47.50010185 55.55378035 47.50092918 59.13815464 47.5078125 62.72460938 C47.49732081 65.00522137 47.48438282 67.2858237 47.46875 69.56640625 C47.46844788 71.17280724 47.46844788 71.17280724 47.46813965 72.81166077 C47.31736906 82.29947254 47.31736906 82.29947254 44 86 C41.72607422 87.6940918 41.72607422 87.6940918 39.0546875 89.19921875 C38.06799072 89.76423096 37.08129395 90.32924316 36.06469727 90.91137695 C34.48579712 91.79055786 34.48579712 91.79055786 32.875 92.6875 C30.6935285 93.92362909 28.5125416 95.16061375 26.33203125 96.3984375 C24.71868896 97.30867676 24.71868896 97.30867676 23.07275391 98.23730469 C20.33063662 99.81032922 17.63332876 101.43210387 14.94921875 103.1015625 C14.19979004 103.56344971 13.45036133 104.02533691 12.67822266 104.5012207 C11.31753393 105.34454625 9.96365708 106.19901768 8.61865234 107.06713867 C3.9575114 109.91642737 -0.46832557 111.62858662 -6 111 C-9.87983186 109.53888053 -13.29104143 107.48406612 -16.8125 105.3125 C-17.80282227 104.7254126 -18.79314453 104.1383252 -19.81347656 103.53344727 C-21.86608979 102.31309383 -23.91279726 101.08275471 -25.95361328 99.84277344 C-28.89735383 98.06209114 -31.86260431 96.32552013 -34.83984375 94.6015625 C-36.64386174 93.54795736 -38.44727574 92.49331719 -40.25 91.4375 C-41.08893799 90.94999268 -41.92787598 90.46248535 -42.79223633 89.96020508 C-43.56720459 89.49767334 -44.34217285 89.0351416 -45.140625 88.55859375 C-45.81641602 88.15954834 -46.49220703 87.76050293 -47.18847656 87.34936523 C-50.07521261 85.19909702 -51.80468297 83.19582563 -52.39440918 79.5852356 C-52.40703796 78.24004349 -52.40703796 78.24004349 -52.41992188 76.86767578 C-52.43583374 75.84626495 -52.45174561 74.82485413 -52.46813965 73.77249146 C-52.46834106 72.6745224 -52.46854248 71.57655334 -52.46875 70.4453125 C-52.47636353 69.311008 -52.48397705 68.17670349 -52.49182129 67.00802612 C-52.5026246 64.60905152 -52.50547448 62.21002987 -52.50097656 59.81103516 C-52.50000539 56.1453577 -52.54160425 52.48178086 -52.5859375 48.81640625 C-52.59114538 46.48437936 -52.59383268 44.1523452 -52.59375 41.8203125 C-52.61014526 40.72639191 -52.62654053 39.63247131 -52.64343262 38.50540161 C-52.56651302 30.010198 -52.56651302 30.010198 -49.81591797 26.4831543 C-47.0839495 24.07402899 -44.52896984 22.22152947 -41.3515625 20.44921875 C-40.27036133 19.83699463 -39.18916016 19.22477051 -38.07519531 18.59399414 C-36.93663086 17.96485107 -35.79806641 17.33570801 -34.625 16.6875 C-32.86029786 15.69822788 -31.09764483 14.70537793 -29.33520508 13.71208191 C-27.60969988 12.73994998 -25.88249758 11.77083233 -24.15527344 10.80175781 C-21.45439201 9.25947176 -18.79986149 7.67352772 -16.1640625 6.0234375 C-15.48649902 5.59973877 -14.80893555 5.17604004 -14.11083984 4.73950195 C-12.38619186 3.64864287 -10.6693065 2.54553724 -8.953125 1.44140625 C-5.54955564 -0.21985975 -3.74976508 -0.30829919 0 0 Z " fill="#082C76" transform="translate(457,186)"/>
<path d="M0 0 C3.82812791 1.72986853 7.38765334 3.8628371 11 6 C13.0838921 7.15191007 15.17121387 8.29763489 17.26171875 9.4375 C19.40401907 10.62432653 21.54594352 11.81183178 23.6875 13 C24.76322266 13.59039062 25.83894531 14.18078125 26.94726562 14.7890625 C33.77302321 18.58440107 40.44417806 22.44417806 46 28 C46.27415466 30.25691223 46.27415466 30.25691223 46.30639648 33.10473633 C46.32238388 34.16956741 46.33837128 35.2343985 46.35484314 36.33149719 C46.36020584 37.48667343 46.36556854 38.64184967 46.37109375 39.83203125 C46.38012222 41.01592941 46.3891507 42.19982758 46.39845276 43.41960144 C46.41298388 45.92887838 46.42184906 48.43819346 46.42553711 50.94750977 C46.4374199 54.78662125 46.48657003 58.6241193 46.53710938 62.46289062 C46.54657457 64.89842964 46.55380914 67.33397855 46.55859375 69.76953125 C46.57812607 70.9186348 46.59765839 72.06773834 46.61778259 73.25166321 C46.57281859 81.19941416 46.57281859 81.19941416 43.8203125 85.04638672 C41.02739116 86.98102631 38.27392561 88.81417214 35.31640625 90.48828125 C33.68711182 91.41918579 33.68711182 91.41918579 32.02490234 92.36889648 C30.88230957 93.01028564 29.7397168 93.6516748 28.5625 94.3125 C27.38201389 94.9800016 26.20183906 95.64805401 25.02197266 96.31665039 C22.71570857 97.62336971 20.4079296 98.9272568 18.09912109 100.22949219 C15.52442563 101.70039903 12.98258443 103.20480692 10.45703125 104.7578125 C9.83304443 105.13639404 9.20905762 105.51497559 8.56616211 105.9050293 C7.01445527 106.85236122 5.47160331 107.81415761 3.9296875 108.77734375 C0.08295412 110.38271382 -2.95698342 110.86880029 -7 110 C-11.15771306 108.22744569 -14.99023958 105.98877731 -18.875 103.6875 C-19.96820557 103.05610107 -21.06141113 102.42470215 -22.18774414 101.77416992 C-25.47042207 99.86897363 -28.73670204 97.93816464 -32 96 C-33.42723389 95.16130371 -33.42723389 95.16130371 -34.88330078 94.30566406 C-37.40850236 92.81949447 -39.92551739 91.32088649 -42.4375 89.8125 C-43.18177246 89.36801514 -43.92604492 88.92353027 -44.69287109 88.46557617 C-47.8727844 86.51641409 -49.90329423 85.14505866 -52 82 C-52.27415466 79.66752625 -52.27415466 79.66752625 -52.30639648 76.8894043 C-52.32238388 75.84789719 -52.33837128 74.80639008 -52.35484314 73.73332214 C-52.36020584 72.60831802 -52.36556854 71.4833139 -52.37109375 70.32421875 C-52.38463646 68.5873455 -52.38463646 68.5873455 -52.39845276 66.81538391 C-52.41297119 64.36335847 -52.42184593 61.91129416 -52.42553711 59.45922852 C-52.43742107 55.71238631 -52.48658433 51.96719703 -52.53710938 48.22070312 C-52.54657481 45.83854971 -52.55380926 43.45638617 -52.55859375 41.07421875 C-52.57812607 39.95528732 -52.59765839 38.8363559 -52.61778259 37.68351746 C-52.56752693 28.99328521 -52.56752693 28.99328521 -49.80444336 25.45361328 C-47.13490204 23.11802607 -44.68879517 21.34500133 -41.5703125 19.66796875 C-40.53438965 19.10094238 -39.4984668 18.53391602 -38.43115234 17.94970703 C-37.34012207 17.36817871 -36.2490918 16.78665039 -35.125 16.1875 C-32.86856521 14.96189073 -30.61335205 13.73402962 -28.359375 12.50390625 C-26.72258789 11.61276123 -26.72258789 11.61276123 -25.05273438 10.70361328 C-19.92676321 7.84300653 -14.99899656 4.68580536 -10.0859375 1.4765625 C-6.17940723 -0.39263806 -4.30500872 -0.68347561 0 0 Z " fill="#062B75" transform="translate(216,139)"/>
<path d="M0 0 C0.76123169 0.33994995 0.76123169 0.33994995 1.5378418 0.68676758 C3.91597932 1.74058363 6.30156052 2.77647609 8.6875 3.8125 C9.48478516 4.16892578 10.28207031 4.52535156 11.10351562 4.89257812 C22.41821919 9.76729231 33.29032682 11.4883191 45.5625 11.3125 C46.69107422 11.31572266 47.81964844 11.31894531 48.98242188 11.32226562 C61.88328402 11.79889064 61.88328402 11.79889064 73 7 C73.36125977 7.7027002 73.72251953 8.40540039 74.09472656 9.12939453 C80.97978503 22.50589316 87.91609805 35.84120393 95.17871094 49.01806641 C103.66117654 64.41294013 103.66117654 64.41294013 103 74 C102.13228757 76.4033269 101.05679667 78.66948525 100 81 C72.73534183 73.67286414 49.4518911 59.24466142 29 40 C28.360625 39.42507813 27.72125 38.85015625 27.0625 38.2578125 C16.3100018 28.17734544 6.89396049 15.017297 0 2 C0 1.34 0 0.68 0 0 Z " fill="#D1DBFC" transform="translate(303,450)"/>
<path d="M0 0 C4.92239728 1.31624543 9.45436305 4.38521597 13.875 6.875 C15.04095703 7.52662109 15.04095703 7.52662109 16.23046875 8.19140625 C20.8354795 10.76866437 25.41786664 13.38163808 30 16 C30 27.22 30 38.44 30 50 C23.68875 53.6815625 23.68875 53.6815625 17.25 57.4375 C15.9290332 58.21150146 14.60806641 58.98550293 13.24707031 59.78295898 C12.20131836 60.38954346 11.15556641 60.99612793 10.078125 61.62109375 C9.00981445 62.2442749 7.94150391 62.86745605 6.84082031 63.50952148 C2.53762373 65.7672574 2.53762373 65.7672574 0 66 C-1.94775391 65.29077148 -1.94775391 65.29077148 -3.9765625 64.12109375 C-5.10771484 63.48010742 -5.10771484 63.48010742 -6.26171875 62.82617188 C-7.04160156 62.36791016 -7.82148438 61.90964844 -8.625 61.4375 C-9.76001953 60.79071289 -9.76001953 60.79071289 -10.91796875 60.13085938 C-12.47715366 59.23782369 -14.02255424 58.32034541 -15.55419922 57.38085938 C-17.9968334 55.92215397 -17.9968334 55.92215397 -20.79345703 54.93164062 C-23.90337255 53.5925956 -25.7694434 52.56696382 -28 50 C-29.25598236 44.16843114 -28.94492856 38.54911107 -28.625 32.625 C-28.5748022 31.01446042 -28.52918117 29.40377127 -28.48828125 27.79296875 C-28.37842265 23.85827305 -28.20614866 19.93077927 -28 16 C-26.88757935 15.37955811 -26.88757935 15.37955811 -25.75268555 14.74658203 C-22.99578642 13.20817918 -20.23950783 11.668672 -17.48364258 10.12841797 C-16.29183222 9.46261118 -15.0997771 8.79724231 -13.9074707 8.13232422 C-12.19157316 7.17531258 -10.47663386 6.21658348 -8.76171875 5.2578125 C-7.73006592 4.6817627 -6.69841309 4.10571289 -5.63549805 3.51220703 C-3.7156323 2.41061848 -1.84170566 1.22780377 0 0 Z " fill="#FA8D02" transform="translate(212,161)"/>
<path d="M0 0 C1.93735837 0.97245638 3.83688591 2.02219426 5.703125 3.125 C6.7653125 3.74890625 7.8275 4.3728125 8.921875 5.015625 C10.56929688 5.99789062 10.56929688 5.99789062 12.25 7 C13.36375 7.65484375 14.4775 8.3096875 15.625 8.984375 C23.8234747 13.8234747 23.8234747 13.8234747 25 15 C25.08847743 17.52094076 25.11527301 20.01430893 25.09765625 22.53515625 C25.0962413 23.28840683 25.09482635 24.04165741 25.09336853 24.81773376 C25.08775376 27.2326956 25.07519883 29.64756601 25.0625 32.0625 C25.0574869 33.69596221 25.05292366 35.32942586 25.04882812 36.96289062 C25.03777954 40.97529585 25.02050506 44.98763241 25 49 C21.37410189 51.12425199 17.74448725 53.24196194 14.11132812 55.35375977 C12.87656828 56.0726867 11.64283141 56.79337363 10.41015625 57.51586914 C8.63549222 58.5556219 6.85721414 59.58893548 5.078125 60.62109375 C4.00981445 61.2442749 2.94150391 61.86745605 1.84082031 62.50952148 C-2.45840794 64.76517536 -2.45840794 64.76517536 -5 65 C-6.85595703 64.29077148 -6.85595703 64.29077148 -8.7578125 63.12109375 C-9.82128906 62.48010742 -9.82128906 62.48010742 -10.90625 61.82617188 C-11.6384375 61.36791016 -12.370625 60.90964844 -13.125 60.4375 C-14.18847656 59.79071289 -14.18847656 59.79071289 -15.2734375 59.13085938 C-16.74490988 58.23500793 -18.20368213 57.31801736 -19.65014648 56.38232422 C-22.00079442 54.91757761 -22.00079442 54.91757761 -24.74243164 53.91845703 C-27.82051691 52.5741448 -29.73688975 51.50009528 -32 49 C-33.29616318 44.06125297 -33.40060897 39.43288454 -33.2487793 34.35058594 C-33.18753854 32.00147842 -33.22783459 29.6693565 -33.27929688 27.3203125 C-33.29804134 16.62587861 -33.29804134 16.62587861 -30.23779297 12.79272461 C-27.89630263 11.20434969 -25.60099427 10.10654034 -23 9 C-21.4423728 8.08180269 -19.89521021 7.14560696 -18.359375 6.19140625 C-16.82515982 5.31118279 -15.28869797 4.43486351 -13.75 3.5625 C-12.97398437 3.10423828 -12.19796875 2.64597656 -11.3984375 2.17382812 C-10.26535156 1.5328418 -10.26535156 1.5328418 -9.109375 0.87890625 C-8.43874023 0.4929126 -7.76810547 0.10691895 -7.07714844 -0.29077148 C-4.28406867 -1.24444999 -2.80854243 -0.87806515 0 0 Z " fill="#FB7C9F" transform="translate(458,210)"/>
<path d="M0 0 C2.94719509 1.1240694 5.54555892 2.62553437 8.27050781 4.21508789 C8.84194519 4.54661362 9.41338257 4.87813934 10.00213623 5.2197113 C11.81827164 6.2747742 13.63034047 7.33660746 15.44238281 8.39868164 C16.6764953 9.11723166 17.91086757 9.83533569 19.14550781 10.55297852 C22.16415929 12.30889008 25.17920271 14.0708938 28.19238281 15.83618164 C28.41573186 20.56812703 28.57854135 25.29697908 28.68676758 30.03295898 C28.73189165 31.64157561 28.7932141 33.24982578 28.87133789 34.85717773 C29.5003311 48.13592321 29.5003311 48.13592321 26.47412109 52.06982422 C24.11748495 53.66190283 21.81496827 54.74350012 19.19238281 55.83618164 C17.63391283 56.75294776 16.08669773 57.68913516 14.55175781 58.64477539 C13.01754263 59.52499885 11.48108079 60.40131813 9.94238281 61.27368164 C9.16636719 61.73194336 8.39035156 62.19020508 7.59082031 62.66235352 C6.83542969 63.08967773 6.08003906 63.51700195 5.30175781 63.95727539 C4.63112305 64.34326904 3.96048828 64.7292627 3.26953125 65.12695312 C0.47645149 66.08063163 -0.99907476 65.71424679 -3.80761719 64.83618164 C-5.74497556 63.86372526 -7.64450309 62.81398739 -9.51074219 61.71118164 C-10.57292969 61.08727539 -11.63511719 60.46336914 -12.72949219 59.82055664 C-13.82777344 59.16571289 -14.92605469 58.51086914 -16.05761719 57.83618164 C-17.17136719 57.18133789 -18.28511719 56.52649414 -19.43261719 55.85180664 C-27.63109189 51.01270694 -27.63109189 51.01270694 -28.80761719 49.83618164 C-30.53112862 39.33425199 -32.50497528 26.05485646 -28.80761719 15.83618164 C-23.43604496 8.98612217 -15.36030965 5.71906476 -7.35131836 2.80883789 C-0.00453922 -0.00041137 -0.00453922 -0.00041137 0 0 Z " fill="#D0DBFC" transform="translate(347.8076171875,115.163818359375)"/>
<path d="M0 0 C1.93735837 0.97245638 3.83688591 2.02219426 5.703125 3.125 C6.7653125 3.74890625 7.8275 4.3728125 8.921875 5.015625 C10.56929688 5.99789063 10.56929688 5.99789063 12.25 7 C13.36375 7.65484375 14.4775 8.3096875 15.625 8.984375 C23.8234747 13.8234747 23.8234747 13.8234747 25 15 C25.08847743 17.52094076 25.11527301 20.01430893 25.09765625 22.53515625 C25.0962413 23.28840683 25.09482635 24.04165741 25.09336853 24.81773376 C25.08775376 27.2326956 25.07519883 29.64756601 25.0625 32.0625 C25.0574869 33.69596221 25.05292366 35.32942586 25.04882812 36.96289062 C25.03777954 40.97529585 25.02050506 44.98763241 25 49 C21.35416552 51.12144111 17.70625918 53.23926011 14.05639648 55.35375977 C12.81526153 56.07347212 11.57469637 56.79416802 10.3347168 57.51586914 C8.55146078 58.55354275 6.76618003 59.58765249 4.98046875 60.62109375 C3.90692139 61.2442749 2.83337402 61.86745605 1.72729492 62.50952148 C-1 64 -1 64 -4 65 C-6.80322266 63.75244141 -6.80322266 63.75244141 -10.1640625 61.8515625 C-11.05307755 61.35358658 -11.05307755 61.35358658 -11.96005249 60.84555054 C-13.85385788 59.78144911 -15.7392317 58.70326772 -17.625 57.625 C-18.90314332 56.90535677 -20.18178373 56.18659564 -21.4609375 55.46875 C-30.78764744 50.21235256 -30.78764744 50.21235256 -32 49 C-32.48516062 44.28579428 -32.6563933 39.57348452 -32.78955078 34.83764648 C-32.84611032 33.24896996 -32.92780102 31.66097194 -33.03564453 30.07495117 C-33.38818695 24.79068294 -33.4261479 20.13314664 -32 15 C-28.16813422 11.13720966 -23.94355201 9.15995529 -19 7 C-17.59774429 6.17242218 -16.20810214 5.32227218 -14.84375 4.43359375 C-13.7403125 3.77488281 -12.636875 3.11617188 -11.5 2.4375 C-9.81390625 1.41462891 -9.81390625 1.41462891 -8.09375 0.37109375 C-4.5275627 -1.20937562 -3.64787323 -1.06981541 0 0 Z " fill="#66CBD0" transform="translate(429,348)"/>
<path d="M0 0 C3.7071795 0.52449013 6.63699094 2.33523467 9.859375 4.16015625 C10.86452148 4.72613525 11.86966797 5.29211426 12.90527344 5.87524414 C14.80841309 6.95793579 14.80841309 6.95793579 16.75 8.0625 C20.7925 10.351875 24.835 12.64125 29 15 C29 25.89 29 36.78 29 48 C24.813125 50.495625 20.62625 52.99125 16.3125 55.5625 C15.00063721 56.35470947 13.68877441 57.14691895 12.3371582 57.96313477 C11.29390381 58.57471436 10.25064941 59.18629395 9.17578125 59.81640625 C8.11270752 60.45006104 7.04963379 61.08371582 5.9543457 61.73657227 C2.57188485 63.18308371 1.43070148 63.14322843 -2 62 C-2.91434814 61.71125 -3.82869629 61.4225 -4.77075195 61.125 C-12.67912554 58.12690987 -20.69293349 54.8140957 -26 48 C-29.62850488 37.95137552 -27.39829964 25.30618546 -26 15 C-24.8718689 14.37170288 -24.8718689 14.37170288 -23.72094727 13.73071289 C-20.9378088 12.17964254 -18.15551068 10.62707856 -15.3737793 9.07348633 C-14.16838663 8.40068258 -12.96265835 7.72847976 -11.7565918 7.05688477 C-10.02565339 6.09288084 -8.29600957 5.12655352 -6.56640625 4.16015625 C-5.52427979 3.57886963 -4.48215332 2.99758301 -3.40844727 2.39868164 C-1.12440597 1.20986135 -1.12440597 1.20986135 0 0 Z " fill="#B0D853" transform="translate(184,302)"/>
<path d="M0 0 C24.32507429 -0.31591006 48.7163516 0.64011569 73 2 C73 8.6 73 15.2 73 22 C58.32216637 22.14977381 43.68165442 21.60607057 29.01477051 21.07287598 C25.62189974 20.95015293 22.22891385 20.83069955 18.8359375 20.7109375 C12.22385062 20.47690681 5.61188303 20.23971737 -1 20 C-1.00592912 18.3992558 -1.01015945 16.79850524 -1.01367188 15.19775391 C-1.01620972 14.30633698 -1.01874756 13.41492004 -1.0213623 12.49649048 C-0.99797794 9.76369387 -0.81027135 7.0898743 -0.5 4.375 C-0.4071875 3.53710938 -0.314375 2.69921875 -0.21875 1.8359375 C-0.1465625 1.23007812 -0.074375 0.62421875 0 0 Z " fill="#8FAEF0" transform="translate(288,291)"/>
<path d="M0 0 C0.33 7.26 0.66 14.52 1 22 C-3.94696732 23.71182391 -8.89449755 25.42178099 -13.84375 27.12695312 C-15.52805031 27.70788078 -17.21197176 28.28990808 -18.89550781 28.87304688 C-21.31216812 29.70991158 -23.7301529 30.54284253 -26.1484375 31.375 C-26.9036972 31.63748535 -27.65895691 31.8999707 -28.43710327 32.17041016 C-33.77225659 34 -33.77225659 34 -36 34 C-36 26.74 -36 19.48 -36 12 C-31.03425091 10.28960359 -26.06820556 8.58012706 -21.10131836 6.87304688 C-19.41037373 6.29156616 -17.71961799 5.70953589 -16.02905273 5.12695312 C-13.6044942 4.29153536 -11.17927188 3.45807126 -8.75390625 2.625 C-7.99348526 2.36251465 -7.23306427 2.1000293 -6.44960022 1.82958984 C-1.11387171 0 -1.11387171 0 0 0 Z " fill="#6965F6" transform="translate(298,154)"/>
<path d="M0 0 C4.69638355 1.44704069 7.67847646 4.209982 11.125 7.5625 C16.20386495 12.39822779 21.40930995 16.85809168 26.953125 21.16015625 C29 23 29 23 30 26 C29.03578125 26.54269531 28.0715625 27.08539063 27.078125 27.64453125 C25.80200123 28.3670425 24.52596412 29.08970683 23.25 29.8125 C22.61578125 30.16892578 21.9815625 30.52535156 21.328125 30.89257812 C18.05195463 32.75248735 14.95014899 34.63839084 12 37 C11.11699219 36.16597656 10.23398437 35.33195312 9.32421875 34.47265625 C2.79352625 28.33762485 -3.7744834 22.3815949 -10.79296875 16.8046875 C-12.66223175 15.2761928 -14.41847519 13.82364751 -16 12 C-16 11.34 -16 10.68 -16 10 C-15.01257813 9.44570312 -14.02515625 8.89140625 -13.0078125 8.3203125 C-11.71344465 7.58871328 -10.41917913 6.85693301 -9.125 6.125 C-8.47402344 5.76019531 -7.82304687 5.39539063 -7.15234375 5.01953125 C-4.49606646 3.51339464 -2.16980999 2.16980999 0 0 Z " fill="#6865F6" transform="translate(394,177)"/>
<path d="M0 0 C4.24292532 1.60630825 8.27025107 3.5768162 12.3125 5.625 C12.95767578 5.94984375 13.60285156 6.2746875 14.26757812 6.609375 C15.84597541 7.40441956 17.42311694 8.20195634 19 9 C17.47979447 17.39983436 15.93147157 25.79431755 14.375 34.1875 C14.14554687 35.42564453 13.91609375 36.66378906 13.6796875 37.93945312 C13.11995691 40.95966609 12.56005791 43.97984772 12 47 C8.07552339 45.48775954 4.69984969 43.66133507 1.125 41.4375 C-3.41214721 38.73761734 -6.72920423 37.11979081 -12 37 C-12 36.67 -12 36.34 -12 36 C-10.35 36 -8.7 36 -7 36 C-6.90203125 35.31679688 -6.8040625 34.63359375 -6.703125 33.9296875 C-5.57814474 26.34576886 -4.28872954 18.79660479 -2.9375 11.25 C-2.7631543 10.26112793 -2.58880859 9.27225586 -2.40917969 8.25341797 C-2.24192383 7.32932129 -2.07466797 6.40522461 -1.90234375 5.453125 C-1.75273193 4.61942383 -1.60312012 3.78572266 -1.44897461 2.92675781 C-1 1 -1 1 0 0 Z " fill="#6966F5" transform="translate(435,288)"/>
<path d="M0 0 C1.90245349 3.65101742 3.08702278 7.37663322 4.25 11.3125 C6.20822004 17.79390082 8.50334128 24.05828603 11.12011719 30.30200195 C13 34.8145853 13 34.8145853 13 37 C8.66515062 35.58359785 4.39734185 34.03130236 0.125 32.4375 C-5.00650996 30.58928667 -9.56578051 29.32605317 -15 29 C-15.85487737 26.62321681 -16.20528477 25.47437592 -15.18310547 23.11230469 C-14.53172607 22.15179199 -14.53172607 22.15179199 -13.8671875 21.171875 C-13.39023437 20.45386719 -12.91328125 19.73585938 -12.421875 18.99609375 C-11.65617187 17.88427734 -11.65617187 17.88427734 -10.875 16.75 C-9.89263925 15.28685423 -8.91086583 13.82331395 -7.9296875 12.359375 C-7.44467773 11.64330078 -6.95966797 10.92722656 -6.45996094 10.18945312 C-4.22779297 6.84194772 -2.10779977 3.42676969 0 0 Z " fill="#D0DAFB" transform="translate(288,411)"/>
<path d="M0 0 C3.34139976 0.02999461 4.22721051 0.29795352 7.1875 2.1875 C10.34695358 5.4426946 10.58421243 7.73663238 10.54296875 12.2734375 C10.08745033 15.44384567 8.49684343 17.1317402 6.25 19.3125 C3.03540014 20.91979993 -0.27388103 20.93180855 -3.75 20.3125 C-6.6875 17.875 -6.6875 17.875 -8.75 15.3125 C-9.08 14.9825 -9.41 14.6525 -9.75 14.3125 C-10.04322866 11.38021337 -10.25004247 9.16758117 -9.75 6.3125 C-7.3125 3.375 -7.3125 3.375 -4.75 1.3125 C-3.75 0.3125 -3.75 0.3125 0 0 Z " fill="#6966F6" transform="translate(318.75,506.6875)"/>
<path d="M0 0 C3.67123639 0.01977327 4.15668193 0.29756585 7.1875 2.8125 C8.2084375 4.0809375 8.2084375 4.0809375 9.25 5.375 C9.58 5.705 9.91 6.035 10.25 6.375 C10.54322866 9.30728663 10.75004247 11.51991883 10.25 14.375 C7.8125 17.3125 7.8125 17.3125 5.25 19.375 C4.92 19.705 4.59 20.035 4.25 20.375 C-2.82616708 20.96468059 -2.82616708 20.96468059 -6.6875 18.5 C-9.82180405 15.27071704 -10.13788997 12.9256612 -10.11328125 8.4140625 C-9.50965397 5.025961 -7.3344052 3.45513101 -4.75 1.375 C-3.75 0.375 -3.75 0.375 0 0 Z " fill="#6B67F7" transform="translate(368.75,488.625)"/>
<path d="M0 0 C3.49406769 1.66762322 4.82670681 2.74006022 7 6 C7.51853954 10.51870169 7.69360888 13.68035572 5.0625 17.5 C1.46212166 20.43908436 -0.32574711 20.76995019 -4.84375 20.46875 C-8.01247216 19.77989736 -9.80517228 18.33200445 -12 16 C-13.76825051 12.46349897 -13.03934815 8.72112302 -12 5 C-8.9666059 0.67790906 -5.19214806 -0.88376988 0 0 Z " fill="#6965F6" transform="translate(274,482)"/>
<path d="M0 0 C0.33 0 0.66 0 1 0 C1 2.31 1 4.62 1 7 C1.61488281 6.7834375 2.22976563 6.566875 2.86328125 6.34375 C3.67152344 6.0653125 4.47976563 5.786875 5.3125 5.5 C6.11300781 5.2215625 6.91351563 4.943125 7.73828125 4.65625 C10 4 10 4 13 4 C13.06058594 5.26457031 13.12117188 6.52914063 13.18359375 7.83203125 C13.26800904 9.49219871 13.35265655 11.15235437 13.4375 12.8125 C13.47681641 13.64587891 13.51613281 14.47925781 13.55664062 15.33789062 C13.61948242 16.54155273 13.61948242 16.54155273 13.68359375 17.76953125 C13.72025146 18.50792236 13.75690918 19.24631348 13.79467773 20.00708008 C13.94842141 22.207495 13.94842141 22.207495 15 25 C13.35 25.66 11.7 26.32 10 27 C8.30556112 24.01490342 6.64988141 21.00991879 5 18 C4.52304687 17.16082031 4.04609375 16.32164062 3.5546875 15.45703125 C0.57623831 9.96817489 -0.57834752 6.24615321 0 0 Z " fill="#6A68F2" transform="translate(363,384)"/>
</svg>
