<?xml version="1.0" encoding="UTF-8"?>
<svg version="1.1" xmlns="http://www.w3.org/2000/svg" width="640" height="640">
<path d="M0 0 C211.2 0 422.4 0 640 0 C640 211.2 640 422.4 640 640 C428.8 640 217.6 640 0 640 C0 428.8 0 217.6 0 0 Z " fill="#FEFEFE" transform="translate(0,0)"/>
<path d="M0 0 C0.8048584 0.46825195 1.6097168 0.93650391 2.43896484 1.41894531 C3.35581055 1.94431885 4.27265625 2.46969238 5.21728516 3.01098633 C6.18504883 3.58389404 7.1528125 4.15680176 8.14990234 4.74707031 C9.15375977 5.329646 10.15761719 5.91222168 11.19189453 6.51245117 C13.27502729 7.72542906 15.35443027 8.94483356 17.43017578 10.17041016 C20.40389163 11.92564382 23.38881402 13.66022593 26.37646484 15.39160156 C28.17680287 16.44612622 29.97632152 17.50205138 31.77490234 18.55957031 C32.61359863 19.0471582 33.45229492 19.53474609 34.31640625 20.03710938 C35.09161621 20.49956055 35.86682617 20.96201172 36.66552734 21.43847656 C37.34131836 21.83752197 38.01710938 22.23656738 38.71337891 22.64770508 C41.01304302 24.36067591 42.20178766 25.40902563 43.52490234 27.99707031 C43.73155751 31.11969693 43.44154088 34.18696407 43.19287109 37.30175781 C41.0616106 56.68338908 41.0616106 56.68338908 46.76953125 74.30957031 C52.30539238 79.12617914 58.63394639 81.75012793 65.57177734 83.95703125 C69.21550539 85.24028865 72.22989666 87.09142107 75.40966797 89.26123047 C78.6323552 90.38232688 80.44506168 89.31865181 83.52490234 87.99707031 C85.58478833 86.92430067 87.61673118 85.79671195 89.62255859 84.62597656 C91.31928711 83.64081055 91.31928711 83.64081055 93.05029297 82.63574219 C94.2293868 81.94378265 95.40842277 81.25172451 96.58740234 80.55957031 C97.77005402 79.87091923 98.95299447 79.1827638 100.13623047 78.49511719 C106.1725283 75.03462954 106.1725283 75.03462954 112.02270508 71.27807617 C115.17725549 69.66309656 117.01421446 69.55569005 120.52490234 69.99707031 C123.53833008 71.32299805 123.53833008 71.32299805 126.70849609 73.18066406 C127.2816153 73.5117366 127.8547345 73.84280914 128.44522095 74.18391418 C130.29193331 75.2549299 132.12717206 76.34401696 133.96240234 77.43457031 C135.22608452 78.17413369 136.4903281 78.91273862 137.75512695 79.65039062 C140.23334401 81.09878429 142.70681309 82.55478849 145.17626953 84.01806641 C147.97290567 85.67084656 150.7790027 87.30379327 153.59521484 88.92285156 C164.07321509 95.0136376 164.07321509 95.0136376 166.52490234 98.99707031 C166.9125824 101.45652771 166.9125824 101.45652771 166.92895508 104.23706055 C166.94798134 105.80404945 166.94798134 105.80404945 166.96739197 107.4026947 C166.96298851 109.08716454 166.96298851 109.08716454 166.95849609 110.80566406 C166.96373795 111.96453629 166.9689798 113.12340851 166.97438049 114.31739807 C166.98080265 116.76766153 166.97946124 119.21795581 166.97094727 121.66821289 C166.96244206 125.41706272 166.99119101 129.16438684 167.02294922 132.91308594 C167.02456142 135.29394486 167.02398334 137.67480647 167.02099609 140.05566406 C167.03223007 141.17661972 167.04346405 142.29757538 167.05503845 143.45249939 C166.98601988 151.16157343 166.98601988 151.16157343 164.85839844 155.01660156 C162.25149916 157.22911118 159.6738617 158.9465155 156.69287109 160.62597656 C155.56429688 161.26857422 154.43572266 161.91117188 153.27294922 162.57324219 C152.08624363 163.23560849 150.89939359 163.89771606 149.71240234 164.55957031 C148.5367369 165.22464067 147.3616015 165.89064893 146.18701172 166.55761719 C143.95032563 167.82426639 141.71070847 169.085758 139.46777344 170.34130859 C137.07081405 171.68992138 134.69557068 173.06674355 132.32568359 174.46191406 C129.52490234 175.99707031 129.52490234 175.99707031 127.52490234 175.99707031 C127.52490234 189.52707031 127.52490234 203.05707031 127.52490234 216.99707031 C129.17490234 217.65707031 130.82490234 218.31707031 132.52490234 218.99707031 C136.32811664 220.98434863 140.04382784 223.12789585 143.77490234 225.24707031 C144.77392578 225.8078125 145.77294922 226.36855469 146.80224609 226.94628906 C163.43331732 236.35969278 163.43331732 236.35969278 166.52490234 240.99707031 C166.79232788 243.33627319 166.79232788 243.33627319 166.81542969 246.12353516 C166.82818939 247.16826996 166.8409491 248.21300476 166.85409546 249.28939819 C166.85743393 250.98160995 166.85743393 250.98160995 166.86083984 252.70800781 C166.86749664 253.86829498 166.87415344 255.02858215 166.88101196 256.22402954 C166.8911442 258.68026136 166.89582881 261.13652074 166.89550781 263.59277344 C166.89987714 267.3503969 166.93618233 271.10684255 166.97412109 274.86425781 C166.97998983 277.24967046 166.98395884 279.63508869 166.98583984 282.02050781 C167.00021088 283.14460052 167.01458191 284.26869324 167.02938843 285.42684937 C166.98407088 293.16754637 166.98407088 293.16754637 164.84741211 297.02758789 C162.30559746 299.1830403 159.81416119 300.85733367 156.90380859 302.48535156 C155.80931396 303.10587402 154.71481934 303.72639648 153.5871582 304.36572266 C152.42077856 305.01404199 151.25418963 305.66198491 150.08740234 306.30957031 C147.72318318 307.63764311 145.36224029 308.97148174 143.00146484 310.30566406 C141.87514648 310.94101074 140.74882812 311.57635742 139.58837891 312.23095703 C135.95589487 314.32510666 132.46514548 316.568954 128.96240234 318.87207031 C124.12518791 321.84080488 120.26553779 323.9128638 114.52490234 322.99707031 C112.12426758 321.91162109 112.12426758 321.91162109 109.52099609 320.44238281 C108.55452148 319.89791504 107.58804687 319.35344727 106.59228516 318.79248047 C103.51007546 316.9883918 100.45692669 315.14396967 97.41162109 313.27832031 C96.39132812 312.65699219 95.37103516 312.03566406 94.31982422 311.39550781 C92.22003712 310.11267119 90.1290303 308.81536798 88.04638672 307.50488281 C87.03253906 306.89386719 86.01869141 306.28285156 84.97412109 305.65332031 C84.07008545 305.09451172 83.1660498 304.53570312 82.23461914 303.95996094 C78.60571107 302.67043815 76.98457055 303.44360862 73.52490234 304.99707031 C72.06434252 305.74309793 70.62655349 306.53607962 69.22021484 307.37988281 C68.47255859 307.82460938 67.72490234 308.26933594 66.95458984 308.72753906 C65.81376953 309.41783203 65.81376953 309.41783203 64.64990234 310.12207031 C63.86615234 310.59 63.08240234 311.05792969 62.27490234 311.54003906 C60.35507763 312.68725139 58.43859673 313.83967101 56.52490234 314.99707031 C57.20523236 318.61925221 58.73122145 321.38060408 60.56005859 324.56347656 C61.19669434 325.6754541 61.83333008 326.78743164 62.48925781 327.93310547 C63.18844918 329.14203708 63.88783578 330.35085578 64.58740234 331.55957031 C65.30784881 332.81252961 66.02806013 334.06562414 66.74804688 335.31884766 C71.72510962 343.96378388 76.79767134 352.55059164 81.89990234 361.12207031 C86.43731304 368.74520589 90.94874438 376.37661224 95.27490234 384.12207031 C95.65694824 384.80156738 96.03899414 385.48106445 96.43261719 386.18115234 C97.4954022 388.10476912 98.51726631 390.04405828 99.52490234 391.99707031 C100.08455688 393.04012329 100.08455688 393.04012329 100.65551758 394.10424805 C103.61223971 400.0432888 104.19279956 405.22167122 104.08740234 411.80957031 C104.07644531 412.77934814 104.06548828 413.74912598 104.05419922 414.74829102 C103.82420308 422.37074628 102.57243502 428.43216975 98.52490234 434.99707031 C97.95513672 435.94710938 97.38537109 436.89714844 96.79833984 437.87597656 C89.78568553 448.48153402 79.64839194 455.62748829 67.23985481 458.53192616 C64.37155093 459.02334352 61.70611411 459.12586484 58.79660034 459.13078308 C57.65288467 459.13504807 56.50916901 459.13931305 55.33079529 459.14370728 C54.08500198 459.14325409 52.83920868 459.1428009 51.55566406 459.14233398 C50.23636398 459.1456926 48.9170639 459.14905121 47.55778503 459.1525116 C43.94381678 459.16133354 40.32987221 459.16368904 36.71589422 459.16432738 C34.45389531 459.16503928 32.19190237 459.16717632 29.92990494 459.1698246 C22.02634551 459.17907433 14.12280294 459.18316024 6.21923828 459.18237305 C-1.12710347 459.1817734 -8.47337152 459.19230399 -15.81969464 459.20811671 C-22.14178692 459.22123572 -28.46385526 459.22655507 -34.78596103 459.22591764 C-38.55501769 459.22566379 -42.32400891 459.22845161 -46.09305191 459.23909569 C-49.64386945 459.2488495 -53.19456003 459.24880652 -56.74538231 459.24157906 C-58.65286761 459.24005159 -60.56035309 459.24833016 -62.46781921 459.25701904 C-77.37658964 459.20313932 -90.554402 456.45955273 -101.73291016 445.90722656 C-110.83850128 435.92374213 -114.64950223 425.05752509 -114.78759766 411.80957031 C-114.81660156 410.90142578 -114.84560547 409.99328125 -114.87548828 409.05761719 C-114.93715823 402.43046924 -113.60850546 397.7979781 -110.47509766 391.99707031 C-110.09538818 391.26415771 -109.71567871 390.53124512 -109.32446289 389.77612305 C-108.09276954 387.43588039 -106.82218867 385.12117731 -105.53759766 382.80957031 C-105.06161133 381.9486377 -104.585625 381.08770508 -104.09521484 380.20068359 C-100.05814125 372.94677138 -95.85734106 365.79513166 -91.61206055 358.66162109 C-87.17454854 351.20261509 -82.81062667 343.70310554 -78.47509766 336.18457031 C-77.8521582 335.10546387 -77.22921875 334.02635742 -76.58740234 332.91455078 C-73.16362226 326.97077196 -69.78227009 321.00656078 -66.47509766 314.99707031 C-67.12478516 314.77535156 -67.77447266 314.55363281 -68.44384766 314.32519531 C-70.99700207 313.20654518 -73.15554306 312.01592407 -75.50634766 310.54394531 C-76.59882813 309.86332031 -76.59882813 309.86332031 -77.71337891 309.16894531 C-79.22827322 308.21657652 -80.73610068 307.25287836 -82.23681641 306.27832031 C-86.34555875 303.57087058 -86.34555875 303.57087058 -91.03759766 303.44238281 C-92.24416016 304.21195312 -92.24416016 304.21195312 -93.47509766 304.99707031 C-94.64981915 305.62908422 -95.82715145 306.25625754 -97.00634766 306.87988281 C-98.33142782 307.62343617 -99.65425093 308.37102241 -100.97509766 309.12207031 C-101.67272217 309.51587891 -102.37034668 309.9096875 -103.08911133 310.31542969 C-108.78662354 313.55375651 -114.36248853 316.96350067 -119.90087891 320.46582031 C-124.20956884 323.02880431 -127.51267778 323.32866742 -132.47509766 322.99707031 C-135.40258789 321.77880859 -135.40258789 321.77880859 -138.28369141 320.06738281 C-139.35353271 319.44130127 -140.42337402 318.81521973 -141.52563477 318.17016602 C-142.64333252 317.49429443 -143.76103027 316.81842285 -144.91259766 316.12207031 C-146.07417475 315.43247764 -147.23636995 314.74392512 -148.39916992 314.05639648 C-151.76987624 312.05645644 -155.1226903 310.02753912 -158.47509766 307.99707031 C-160.19383778 306.96971005 -161.91258661 305.94236433 -163.63134766 304.91503906 C-165.05977731 304.04876559 -166.48698263 303.18046801 -167.91259766 302.30957031 C-168.54931396 301.92494629 -169.18603027 301.54032227 -169.84204102 301.14404297 C-173.11633919 299.09789143 -175.45783081 297.29488873 -177.47509766 293.99707031 C-177.86277771 291.53761292 -177.86277771 291.53761292 -177.87915039 288.75708008 C-177.89183456 287.71242081 -177.90451874 286.66776154 -177.91758728 285.59144592 C-177.91465164 284.46846603 -177.911716 283.34548615 -177.90869141 282.18847656 C-177.91393326 281.02960434 -177.91917511 279.87073212 -177.92457581 278.67674255 C-177.93099796 276.2264791 -177.92965655 273.77618482 -177.92114258 271.32592773 C-177.91263738 267.57707791 -177.94138633 263.82975378 -177.97314453 260.08105469 C-177.97475673 257.70019577 -177.97417865 255.31933415 -177.97119141 252.93847656 C-177.98242538 251.8175209 -177.99365936 250.69656525 -178.00523376 249.54164124 C-177.93618306 241.82897785 -177.93618306 241.82897785 -175.79272461 237.96166992 C-173.26629109 235.82006974 -170.8105951 234.20064342 -167.89697266 232.62207031 C-166.81802734 232.02910156 -165.73908203 231.43613281 -164.62744141 230.82519531 C-163.50466797 230.22191406 -162.38189453 229.61863281 -161.22509766 228.99707031 C-159.0105669 227.79055065 -156.79700345 226.58225362 -154.58447266 225.37207031 C-153.53582031 224.80101562 -152.48716797 224.22996094 -151.40673828 223.64160156 C-148.81459912 222.18751683 -146.30420371 220.66363223 -143.80322266 219.05957031 C-140.47509766 216.99707031 -140.47509766 216.99707031 -138.47509766 216.99707031 C-138.47509766 203.46707031 -138.47509766 189.93707031 -138.47509766 175.99707031 C-141.44509766 175.00707031 -141.44509766 175.00707031 -144.47509766 173.99707031 C-146.35340585 173.0318055 -148.2050981 172.01334864 -150.02978516 170.95019531 C-151.05716797 170.35207031 -152.08455078 169.75394531 -153.14306641 169.13769531 C-154.73054688 168.20183594 -154.73054688 168.20183594 -156.35009766 167.24707031 C-157.40068359 166.63863281 -158.45126953 166.03019531 -159.53369141 165.40332031 C-175.42641126 156.0944431 -175.42641126 156.0944431 -177.47509766 151.99707031 C-177.58575079 150.32871468 -177.63424876 148.65605669 -177.65209961 146.98413086 C-177.66493484 145.93932053 -177.67777008 144.89451019 -177.69099426 143.81803894 C-177.6983812 142.68473648 -177.70576813 141.55143402 -177.71337891 140.38378906 C-177.72548653 138.64123589 -177.72548653 138.64123589 -177.73783875 136.86347961 C-177.75168792 134.40127052 -177.76240633 131.93904215 -177.77026367 129.47680664 C-177.78747957 125.71040491 -177.83136023 121.94487999 -177.87548828 118.17871094 C-177.88561463 115.78874345 -177.89413091 113.39876848 -177.90087891 111.00878906 C-177.91838699 109.8815593 -177.93589508 108.75432953 -177.95393372 107.59294128 C-177.9323605 99.81874942 -177.9323605 99.81874942 -175.77734375 95.94628906 C-173.34684229 93.88848168 -171.01548032 92.31359739 -168.21337891 90.79785156 C-166.67000854 89.9502124 -166.67000854 89.9502124 -165.09545898 89.08544922 C-164.00386475 88.49940918 -162.91227051 87.91336914 -161.78759766 87.30957031 C-159.52613528 86.07580807 -157.26572202 84.84012091 -155.00634766 83.60253906 C-153.89646484 82.99587402 -152.78658203 82.38920898 -151.64306641 81.76416016 C-148.80949142 80.18359482 -146.02540984 78.55067869 -143.25634766 76.86035156 C-142.10912231 76.16075317 -142.10912231 76.16075317 -140.9387207 75.44702148 C-139.5457412 74.58903717 -138.15871109 73.72128603 -136.77905273 72.84204102 C-132.74346971 70.37180047 -130.17023306 69.55100341 -125.47509766 69.99707031 C-122.55004883 71.29467773 -122.55004883 71.29467773 -119.51806641 73.10253906 C-118.40496094 73.75673828 -117.29185547 74.4109375 -116.14501953 75.08496094 C-114.98395648 75.78440635 -113.8231505 76.48427867 -112.66259766 77.18457031 C-111.51423442 77.8661324 -110.36515064 78.54648198 -109.21533203 79.22558594 C-107.53987305 80.21655273 -107.53987305 80.21655273 -105.83056641 81.22753906 C-104.74308105 81.86868652 -103.6555957 82.50983398 -102.53515625 83.17041016 C-100.62575145 84.31020325 -98.72995209 85.47350219 -96.85644531 86.67138672 C-96.0873584 87.14624512 -95.31827148 87.62110352 -94.52587891 88.11035156 C-93.87917236 88.52712158 -93.23246582 88.9438916 -92.56616211 89.37329102 C-88.55199576 90.57074519 -85.20468562 88.37802585 -81.67016602 86.5324707 C-80.72794189 85.97551514 -79.78571777 85.41855957 -78.81494141 84.84472656 C-77.77402344 84.23306641 -76.73310547 83.62140625 -75.66064453 82.99121094 C-74.58878906 82.35376953 -73.51693359 81.71632813 -72.41259766 81.05957031 C-71.336875 80.42599609 -70.26115234 79.79242188 -69.15283203 79.13964844 C-66.25633897 77.43192066 -63.36374593 75.71802885 -60.47509766 73.99707031 C-59.54777832 73.63073486 -58.62045898 73.26439941 -57.66503906 72.88696289 C-55.33884087 71.2555656 -55.33884087 71.2555656 -55.03840637 69.10688782 C-54.86271081 66.54926073 -54.86223789 64.03690771 -54.90869141 61.47363281 C-54.90305679 60.53530609 -54.89742218 59.59697937 -54.89161682 58.63021851 C-54.87512932 55.62699757 -54.89073457 52.62524082 -54.91259766 49.62207031 C-54.92919341 46.62617557 -54.93827663 43.63125523 -54.92286682 40.63534546 C-54.91359184 38.7711049 -54.92273477 36.90665907 -54.95249939 35.04263306 C-54.93542211 30.98419795 -54.84330739 28.62021047 -52.74511719 25.06933594 C-50.48530289 23.00638651 -48.40384192 21.51578691 -45.72119141 20.05175781 C-44.79298584 19.53701904 -43.86478027 19.02228027 -42.90844727 18.49194336 C-41.91981689 17.95738525 -40.93118652 17.42282715 -39.91259766 16.87207031 C-37.8389073 15.73154882 -35.76600292 14.58959722 -33.69384766 13.44628906 C-32.65357422 12.87442871 -31.61330078 12.30256836 -30.54150391 11.71337891 C-27.64380548 10.09149834 -24.78895825 8.41622635 -21.94384766 6.70410156 C-21.09250244 6.19443848 -20.24115723 5.68477539 -19.36401367 5.15966797 C-17.7674834 4.19898319 -16.17647849 3.22903607 -14.59204102 2.24853516 C-13.87153564 1.81879395 -13.15103027 1.38905273 -12.40869141 0.94628906 C-11.79050537 0.56819092 -11.17231934 0.19009277 -10.53540039 -0.19946289 C-6.83034408 -1.64434265 -3.66146012 -1.4836534 0 0 Z " fill="#062B75" transform="translate(325.47509765625,91.0029296875)"/>
<path d="M0 0 C2.78615411 1.44208243 5.54566275 2.90542793 8.27880859 4.44628906 C9.35904297 5.0534375 10.43927734 5.66058594 11.55224609 6.28613281 C12.67115234 6.9190625 13.79005859 7.55199219 14.94287109 8.20410156 C16.05404297 8.82929688 17.16521484 9.45449219 18.31005859 10.09863281 C19.93427734 11.01322266 19.93427734 11.01322266 21.59130859 11.94628906 C23.15510254 12.82365723 23.15510254 12.82365723 24.75048828 13.71875 C26.41895453 14.67240714 28.07619231 15.64700551 29.70556641 16.66601562 C33.58529311 19.08684565 36.0237428 19.72467007 40.56787109 19.32910156 C43.4547806 18.1775775 43.4547806 18.1775775 46.27099609 16.47753906 C47.33447266 15.87296875 48.39794922 15.26839844 49.49365234 14.64550781 C50.59064453 14.00484375 51.68763672 13.36417969 52.81787109 12.70410156 C53.89939453 12.08664063 54.98091797 11.46917969 56.09521484 10.83300781 C62.33163281 7.26985052 62.33163281 7.26985052 68.41748047 3.45898438 C69.28695312 2.89276367 70.15642578 2.32654297 71.05224609 1.74316406 C72.18484863 0.97286865 72.18484863 0.97286865 73.34033203 0.18701172 C75.56787109 -0.67089844 75.56787109 -0.67089844 77.9909668 -0.01660156 C80.78459185 1.44227682 83.56402095 2.90599592 86.31396484 4.44628906 C87.94108398 5.35701172 87.94108398 5.35701172 89.60107422 6.28613281 C90.72449219 6.9190625 91.84791016 7.55199219 93.00537109 8.20410156 C94.12492188 8.82929688 95.24447266 9.45449219 96.39794922 10.09863281 C102.63455885 13.60001721 102.63455885 13.60001721 105.56787109 15.32910156 C106.66615234 15.86043701 107.76443359 16.39177246 108.89599609 16.93920898 C111.8442095 19.57627596 111.98287116 19.93753903 112.26147461 23.65112305 C112.26864782 25.41759755 112.24516678 27.18436914 112.19677734 28.95019531 C112.19862534 29.88710709 112.20047333 30.82401886 112.20237732 31.7893219 C112.20662956 34.78263627 112.17245149 37.77360338 112.13037109 40.76660156 C112.09356157 43.75587153 112.06585751 46.74366056 112.06907654 49.73316956 C112.07084298 51.59197301 112.04968916 53.45097547 112.00282288 55.30918884 C112.00424312 59.65587279 112.0729416 61.67465253 114.76000977 65.2277832 C117.44315734 67.23576957 120.08259806 69.0376483 122.98974609 70.70410156 C124.01583984 71.29707031 125.04193359 71.89003906 126.09912109 72.50097656 C127.16130859 73.10425781 128.22349609 73.70753906 129.31787109 74.32910156 C130.36458984 74.93238281 131.41130859 75.53566406 132.48974609 76.15722656 C138.48578833 79.60495085 144.52085598 82.96964872 150.56787109 86.32910156 C150.56787109 99.85910156 150.56787109 113.38910156 150.56787109 127.32910156 C138.25537109 134.39160156 138.25537109 134.39160156 134.44555664 136.5715332 C122.03049036 142.42640442 122.03049036 142.42640442 112.56787109 151.32910156 C112.51544779 152.67720379 112.52544844 154.02804194 112.56884766 155.37646484 C112.59086243 156.21138458 112.6128772 157.04630432 112.63555908 157.90652466 C112.6716629 159.26425491 112.6716629 159.26425491 112.70849609 160.64941406 C112.73997362 163.57029542 112.75988677 166.49112479 112.77929688 169.41210938 C112.80488175 171.4297519 112.85186736 173.44724361 112.92089844 175.46386719 C113.44857995 191.78181529 113.44857995 191.78181529 110.33340454 196.00109863 C106.86589362 199.09090065 102.87704813 200.66061581 98.56787109 202.32910156 C96.44971271 203.4701684 94.34418131 204.63515836 92.25537109 205.82910156 C90.69484741 206.66612996 89.13314104 207.50098279 87.56787109 208.32910156 C77.12180076 197.38950435 78.2644293 183.7345201 78.41503906 169.47045898 C78.44969077 166.05326791 78.40203298 162.64271828 78.33205986 159.22626591 C78.27750498 155.93885046 78.29757299 152.65199793 78.31005859 149.36425781 C78.28354218 148.14545425 78.25702576 146.9266507 78.22970581 145.6709137 C78.30453811 142.27112499 78.45857053 139.54642 79.56787109 136.32910156 C81.97091696 134.18974623 84.18445394 132.94557428 87.13162231 131.6716156 C90.61067955 129.75445377 91.93617138 127.10726172 93.24047852 123.43579102 C94.00155232 118.5384712 93.83433072 113.53959696 93.86303711 108.59448242 C93.87454916 107.21449524 93.89498932 105.83455232 93.92456055 104.45483398 C94.11762187 95.43487974 94.22568313 89.40828046 87.97021484 82.58691406 C82.7009511 78.51201677 78.80332212 78.17402003 72.33618164 78.15209961 C71.0771402 78.14224281 71.0771402 78.14224281 69.79266357 78.13218689 C67.01330475 78.11246669 64.23399992 78.10079456 61.45458984 78.09082031 C60.50499704 78.08674479 59.55540424 78.08266926 58.5770359 78.07847023 C53.55160362 78.05761563 48.52619861 78.04331088 43.50073242 78.03393555 C38.31209399 78.02286824 33.12388406 77.98846284 27.93539715 77.94876385 C23.94364121 77.92261249 19.95198765 77.91424506 15.96015358 77.91065407 C14.04760657 77.90578483 12.13506423 77.89416124 10.22260094 77.87561607 C7.54397015 77.8512545 4.86645192 77.852184 2.18774414 77.85913086 C1.40051468 77.8463208 0.61328522 77.83351074 -0.19779968 77.8203125 C-6.16838126 77.87664645 -9.7264402 79.70053462 -14.07666016 83.92675781 C-19.23423232 90.39528478 -18.68307841 96.45486338 -18.72729492 104.3605957 C-18.73877975 105.78908216 -18.75917626 107.2175269 -18.78881836 108.64575195 C-19.05748614 120.09538958 -19.05748614 120.09538958 -14.43212891 130.32910156 C-12.73903077 132.18422971 -12.73903077 132.18422971 -10.86962891 133.26660156 C-10.00144531 133.83701172 -10.00144531 133.83701172 -9.11572266 134.41894531 C-7.27110337 135.4788741 -7.27110337 135.4788741 -4.43212891 136.32910156 C-4.24535811 143.79670397 -4.10391947 151.26405936 -4.01763153 158.73347759 C-3.97617887 162.20345736 -3.92012643 165.67181999 -3.82861328 169.14086914 C-3.11309442 196.95926113 -3.11309442 196.95926113 -10.69970703 206.55102539 C-11.27140625 207.13779053 -11.84310547 207.72455566 -12.43212891 208.32910156 C-34.12220155 196.63902892 -34.12220155 196.63902892 -36.43212891 194.32910156 C-36.53069817 191.21385435 -36.569274 188.11672381 -36.57275391 185.00097656 C-36.59108565 183.06737107 -36.6106563 181.133777 -36.63134766 179.20019531 C-36.660306 176.14091843 -36.68212838 173.082372 -36.68261719 170.02294922 C-36.68595296 167.07746013 -36.72051761 164.13367061 -36.76025391 161.18847656 C-36.7531842 160.27684753 -36.7461145 159.36521851 -36.73883057 158.42596436 C-36.8225411 154.0542202 -36.9430605 151.97292415 -39.65112305 148.40795898 C-42.24432109 146.46949166 -44.7641244 144.76681248 -47.60009766 143.20800781 C-49.06479492 142.39299805 -49.06479492 142.39299805 -50.55908203 141.56152344 C-51.5690625 141.01044922 -52.57904297 140.459375 -53.61962891 139.89160156 C-56.60485703 138.24263691 -59.58382878 136.59244745 -62.53369141 134.88085938 C-65.37158801 133.26226045 -65.37158801 133.26226045 -68.37744141 132.31640625 C-71.65178037 131.01712068 -73.27037421 130.14060593 -75.43212891 127.32910156 C-77.11508804 120.57237321 -76.36382208 113.34023132 -76.05712891 106.45410156 C-76.00694448 104.50629825 -75.9613212 102.55837172 -75.92041016 100.61035156 C-75.81043354 95.84688908 -75.63804909 91.08934254 -75.43212891 86.32910156 C-74.73240967 85.94165771 -74.03269043 85.55421387 -73.31176758 85.1550293 C-70.07908603 83.36241131 -66.8493556 81.56453741 -63.61962891 79.76660156 C-61.96930664 78.85297852 -61.96930664 78.85297852 -60.28564453 77.92089844 C-47.52573904 71.6871451 -47.52573904 71.6871451 -37.43212891 62.32910156 C-37.19336245 60.34561649 -37.19336245 60.34561649 -37.31958008 58.16821289 C-37.35271553 56.91594658 -37.35271553 56.91594658 -37.38652039 55.63838196 C-37.43036613 54.28839363 -37.43036613 54.28839363 -37.47509766 52.91113281 C-37.49865619 50.99775995 -37.51872699 49.08434155 -37.53564453 47.17089844 C-37.56825552 44.15769198 -37.6192895 41.15081489 -37.73022461 38.1394043 C-38.3057139 21.4392271 -38.3057139 21.4392271 -33.84472656 16.41503906 C-30.45952534 14.32690547 -27.11572443 12.81883011 -23.43212891 11.32910156 C-21.51501112 10.20580891 -19.61724108 9.04855354 -17.74462891 7.85253906 C-15.97497143 6.80107834 -14.20415484 5.75156578 -12.43212891 4.70410156 C-11.53107422 4.15109375 -10.63001953 3.59808594 -9.70166016 3.02832031 C-8.82896484 2.5165625 -7.95626953 2.00480469 -7.05712891 1.47753906 C-5.90083984 0.784104 -5.90083984 0.784104 -4.72119141 0.07666016 C-2.43212891 -0.67089844 -2.43212891 -0.67089844 0 0 Z " fill="#FCFDFD" transform="translate(282.43212890625,180.6708984375)"/>
<path d="M0 0 C14.52 0 29.04 0 44 0 C44.00257813 4.40859375 44.00515625 8.8171875 44.0078125 13.359375 C44.02666613 16.90597365 44.05148411 20.45242071 44.08029175 23.99894714 C44.10894527 27.72554112 44.12743599 31.45151097 44.12011719 35.17822266 C44.11346108 38.77730962 44.13635771 42.37517291 44.17855453 45.97400665 C44.19488752 47.99430669 44.1817149 50.01477738 44.16775513 52.03509521 C44.30814115 61.07774692 46.34197912 67.28745168 51 75 C51.77756905 76.36114426 51.77756905 76.36114426 52.57084656 77.74978638 C54.01252255 80.27187028 55.50100716 82.76159226 57 85.25 C58.14778741 87.17409038 59.29489917 89.09858394 60.44140625 91.0234375 C61.02809082 92.00666992 61.61477539 92.98990234 62.21923828 94.00292969 C65.15459877 98.94322107 68.04633712 103.90875446 70.9375 108.875 C71.51822266 109.87176758 72.09894531 110.86853516 72.69726562 111.89550781 C73.87634111 113.91947882 75.05521458 115.94356752 76.23388672 117.96777344 C78.57211195 121.9822547 80.91302879 125.99516225 83.25439453 130.0078125 C84.41340862 131.99450854 85.57194131 133.98148551 86.72998047 135.96875 C89.74919722 141.14892037 92.77657292 146.32408459 95.81640625 151.4921875 C96.75709961 153.09513672 96.75709961 153.09513672 97.71679688 154.73046875 C98.90689562 156.75804439 100.09942289 158.7841975 101.29492188 160.80859375 C112.58163254 180.06160672 112.58163254 180.06160672 111 191 C108.85345299 198.72277249 104.46966991 204.80230802 97.73196411 209.06997681 C91.82744554 211.94981783 85.77882027 211.54282016 79.33544922 211.48583984 C77.96470783 211.48798896 76.59396823 211.49187148 75.22323608 211.49734497 C71.52076394 211.50699112 67.8187783 211.49179603 64.11636496 211.47143888 C60.23278503 211.45379673 56.34921852 211.45739432 52.46560669 211.4581604 C45.94752928 211.45629095 39.42963879 211.43897339 32.91162109 211.41162109 C25.38389639 211.3801477 17.85637602 211.36962604 10.32859027 211.3710922 C2.29936067 211.37244463 -5.72979057 211.35855707 -13.75899649 211.34019899 C-16.06690489 211.33594378 -18.37480059 211.33451767 -20.68271255 211.33372116 C-24.31238359 211.33170721 -27.94188417 211.3194565 -31.57149887 211.29938889 C-33.53356937 211.29079313 -35.49567484 211.29187908 -37.45776367 211.29327393 C-38.63243195 211.28474396 -39.80710022 211.27621399 -41.0173645 211.26742554 C-42.54209476 211.262398 -42.54209476 211.262398 -44.09762764 211.25726891 C-50.63402232 210.67787698 -56.23001985 208.08654931 -60.640625 203.171875 C-65.80212341 196.60725081 -67.20453544 191.25576687 -67.36328125 182.9765625 C-66.29282584 174.20573429 -61.23950288 167.0211648 -56.75 159.625 C-55.29242516 157.19979984 -53.83974205 154.77167911 -52.38671875 152.34375 C-52.01792099 151.72887726 -51.64912323 151.11400452 -51.26914978 150.48049927 C-47.6287743 144.40302787 -44.08814442 138.26965397 -40.5625 132.125 C-35.2314325 122.84878715 -29.85376885 113.60159804 -24.4375 104.375 C-23.72532072 103.16114518 -23.01316239 101.94727806 -22.30102539 100.73339844 C-19.50350443 95.96569313 -16.70508544 91.19851937 -13.90283203 86.43359375 C-11.93222735 83.0824828 -9.96604143 79.7287903 -8 76.375 C-7.10945923 74.86365479 -7.10945923 74.86365479 -6.20092773 73.32177734 C-5.66024658 72.3983252 -5.11956543 71.47487305 -4.5625 70.5234375 C-4.08941406 69.71825684 -3.61632812 68.91307617 -3.12890625 68.08349609 C-1.05480926 64.2555671 -0.85458806 61.16408837 -0.79467773 56.8762207 C-0.77473251 55.61513992 -0.75478729 54.35405914 -0.73423767 53.05476379 C-0.71725467 51.67843753 -0.70037581 50.30210998 -0.68359375 48.92578125 C-0.66301803 47.51758725 -0.6420214 46.10939935 -0.62062073 44.70121765 C-0.56546378 40.99739519 -0.51602646 37.29351759 -0.46777344 33.58959961 C-0.41751179 29.80903227 -0.36190226 26.02854389 -0.30664062 22.24804688 C-0.19863139 14.83209179 -0.09955908 7.41609266 0 0 Z " fill="#FEFEFE" transform="translate(298,318)"/>
<path d="M0 0 C0.83921494 -0.0049649 1.67842987 -0.00992981 2.54307556 -0.01504517 C5.32787895 -0.0296859 8.11262533 -0.03647275 10.89746094 -0.04199219 C12.83079022 -0.04774305 14.76411949 -0.05350079 16.69744873 -0.05926514 C20.75614691 -0.06978123 24.81482526 -0.07561959 28.87353516 -0.07910156 C34.06997103 -0.08458079 39.26614415 -0.10859404 44.46249771 -0.13707352 C48.45854451 -0.15571601 52.45452831 -0.16090641 56.45061493 -0.16243744 C58.36593814 -0.16546198 60.2812603 -0.1734838 62.19654083 -0.18662262 C64.87992691 -0.20371313 67.56267504 -0.20179531 70.24609375 -0.1953125 C71.03489426 -0.20452728 71.82369476 -0.21374207 72.63639832 -0.22323608 C78.42862383 -0.17949013 82.60112184 1.03874221 86.96386719 5.09863281 C87.53492188 5.77925781 88.10597656 6.45988281 88.69433594 7.16113281 C89.27828125 7.84175781 89.86222656 8.52238281 90.46386719 9.22363281 C94.17006592 14.28775009 93.10514097 20.83014541 93.12207031 26.8203125 C93.13173753 28.89006331 93.16275534 30.95880403 93.19433594 33.02832031 C93.20207031 35.00445312 93.20207031 35.00445312 93.20996094 37.02050781 C93.21930664 38.2215918 93.22865234 39.42267578 93.23828125 40.66015625 C92.56471224 47.27589571 89.97249305 51.79771243 84.88183594 56.16113281 C80.43356008 59.16113281 80.43356008 59.16113281 77.88183594 59.16113281 C77.85014728 66.64685094 77.8567888 74.13174201 77.91030216 81.61732101 C77.93400062 85.0946273 77.94525287 88.57098277 77.92651367 92.04833984 C77.90546834 96.06065489 77.94133963 100.07081542 77.97949219 104.08300781 C77.95810936 105.92593414 77.95810936 105.92593414 77.93629456 107.80609131 C78.08625459 116.88675071 80.67570473 122.76586562 85.88183594 130.16113281 C97.93653601 123.7618014 97.93653601 123.7618014 109.88183594 117.16113281 C109.89601563 117.825 109.91019531 118.48886719 109.92480469 119.17285156 C110.23613338 125.1234152 110.23613338 125.1234152 113.25683594 130.16113281 C115.08691721 131.55548045 116.96750486 132.8849121 118.88183594 134.16113281 C118.88183594 134.82113281 118.88183594 135.48113281 118.88183594 136.16113281 C111.95183594 140.12113281 105.02183594 144.08113281 97.88183594 148.16113281 C98.83058369 151.95612381 99.98733107 154.36919451 101.91699219 157.72753906 C102.55362793 158.8395166 103.19026367 159.95149414 103.84619141 161.09716797 C104.54538277 162.30609958 105.24476937 163.51491828 105.94433594 164.72363281 C106.66478241 165.97659211 107.38499372 167.22968664 108.10498047 168.48291016 C113.08204322 177.12784638 118.15460494 185.71465414 123.25683594 194.28613281 C127.79424663 201.90926839 132.30567797 209.54067474 136.63183594 217.28613281 C137.01388184 217.96562988 137.39592773 218.64512695 137.78955078 219.34521484 C138.8523358 221.26883162 139.8741999 223.20812078 140.88183594 225.16113281 C141.44149048 226.20418579 141.44149048 226.20418579 142.01245117 227.26831055 C144.96917331 233.2073513 145.54973316 238.38573372 145.44433594 244.97363281 C145.42790039 246.42829956 145.42790039 246.42829956 145.41113281 247.91235352 C145.18113668 255.53480878 143.92936862 261.59623225 139.88183594 268.16113281 C139.31207031 269.11117188 138.74230469 270.06121094 138.15527344 271.04003906 C131.14261912 281.64559652 121.00532554 288.79155079 108.59678841 291.69598866 C105.72848453 292.18740602 103.06304771 292.28992734 100.15353394 292.29484558 C99.00981827 292.29911057 97.8661026 292.30337555 96.68772888 292.30776978 C95.44193558 292.30731659 94.19614227 292.3068634 92.91259766 292.30639648 C91.59329758 292.3097551 90.2739975 292.31311371 88.91471863 292.3165741 C85.30075037 292.32539604 81.6868058 292.32775154 78.07282782 292.32838988 C75.8108289 292.32910178 73.54883596 292.33123882 71.28683853 292.3338871 C63.38327911 292.34313683 55.47973653 292.34722274 47.57617188 292.34643555 C40.22983013 292.3458359 32.88356208 292.35636649 25.53723896 292.37217921 C19.21514667 292.38529822 12.89307834 292.39061757 6.57097256 292.38998014 C2.80191591 292.38972629 -0.96707532 292.39251411 -4.73611832 292.40315819 C-8.28693585 292.412912 -11.83762644 292.41286902 -15.38844872 292.40564156 C-17.29593402 292.40411409 -19.2034195 292.41239266 -21.11088562 292.42108154 C-36.01965604 292.36720182 -49.19746841 289.62361523 -60.37597656 279.07128906 C-69.48156768 269.08780463 -73.29256863 258.22158759 -73.43066406 244.97363281 C-73.45966797 244.06548828 -73.48867187 243.15734375 -73.51855469 242.22167969 C-73.58022464 235.59453174 -72.25157186 230.9620406 -69.11816406 225.16113281 C-68.73845459 224.42822021 -68.35874512 223.69530762 -67.9675293 222.94018555 C-66.73583594 220.59994289 -65.46525508 218.28523981 -64.18066406 215.97363281 C-63.70467773 215.1127002 -63.22869141 214.25176758 -62.73828125 213.36474609 C-58.70120765 206.11083388 -54.50040747 198.95919416 -50.25512695 191.82568359 C-45.81761495 184.36667759 -41.45369308 176.86716804 -37.11816406 169.34863281 C-36.49522461 168.26952637 -35.87228516 167.19041992 -35.23046875 166.07861328 C-31.80668867 160.13483446 -28.4253365 154.17062328 -25.11816406 148.16113281 C-26.08302734 147.82082031 -26.08302734 147.82082031 -27.06738281 147.47363281 C-31.21786533 145.6880219 -35.03759231 143.44541632 -38.93066406 141.16113281 C-39.71892578 140.70996094 -40.5071875 140.25878906 -41.31933594 139.79394531 C-42.43598633 139.14039063 -42.43598633 139.14039063 -43.57519531 138.47363281 C-44.25557861 138.07789063 -44.93596191 137.68214844 -45.63696289 137.27441406 C-46.12575928 136.90703125 -46.61455566 136.53964844 -47.11816406 136.16113281 C-47.11816406 135.50113281 -47.11816406 134.84113281 -47.11816406 134.16113281 C-45.62207031 132.94238281 -45.62207031 132.94238281 -43.68066406 131.66113281 C-40.8928456 129.87459652 -40.8928456 129.87459652 -39.11816406 127.16113281 C-38.89194325 125.4574946 -38.70927933 123.74784581 -38.55566406 122.03613281 C-38.471875 121.12605469 -38.38808594 120.21597656 -38.30175781 119.27832031 C-38.21087891 118.2303125 -38.21087891 118.2303125 -38.11816406 117.16113281 C-37.22355469 117.680625 -36.32894531 118.20011719 -35.40722656 118.73535156 C-28.41336405 122.77616373 -21.39349242 126.64265939 -14.11816406 130.16113281 C-7.95143946 121.40135049 -6.0924924 114.71229715 -6.21582031 104.08300781 C-6.2035289 102.79042053 -6.19123749 101.49783325 -6.17857361 100.16607666 C-6.14668721 96.77261211 -6.15566281 93.38051488 -6.1739502 89.98699951 C-6.18520493 86.50713816 -6.15671224 83.02760897 -6.13183594 79.54785156 C-6.0889753 72.7520955 -6.08939589 65.95695395 -6.11816406 59.16113281 C-6.88 59.03867187 -7.64183594 58.91621094 -8.42675781 58.79003906 C-13.66378576 57.56629233 -16.39857549 54.23463881 -19.27050781 49.95019531 C-22.03721589 44.18023518 -21.71599732 37.96032089 -21.63964844 31.69750977 C-21.61816708 29.59892727 -21.63953458 27.50375297 -21.66503906 25.40527344 C-21.68381132 16.93280987 -21.22502345 11.51059149 -15.26660156 5.20019531 C-14.68136719 4.73355469 -14.09613281 4.26691406 -13.49316406 3.78613281 C-12.90277344 3.30402344 -12.31238281 2.82191406 -11.70410156 2.32519531 C-8.00077691 -0.3930085 -4.42135396 0.00620212 0 0 Z M13.88183594 60.16113281 C13.87925781 64.56972656 13.87667969 68.97832031 13.87402344 73.52050781 C13.85516981 77.06710646 13.83035183 80.61355353 13.80154419 84.16007996 C13.77289067 87.88667393 13.75439995 91.61264379 13.76171875 95.33935547 C13.76837486 98.93844243 13.74547823 102.53630573 13.7032814 106.13513947 C13.68694842 108.15543951 13.70012104 110.17591019 13.71408081 112.19622803 C13.57353039 121.24946909 11.54807701 127.43821321 6.88183594 135.16113281 C6.25092041 136.29244629 5.62000488 137.42375977 4.9699707 138.58935547 C4.42655029 139.49218262 3.88312988 140.39500977 3.32324219 141.32519531 C2.69812744 142.37046387 2.0730127 143.41573242 1.42895508 144.49267578 C0.77403076 145.5795166 0.11910645 146.66635742 -0.55566406 147.78613281 C-1.9853607 150.17520097 -3.4113683 152.56646103 -4.83691406 154.95800781 C-5.19643661 155.56051361 -5.55595917 156.16301941 -5.92637634 156.78378296 C-9.53031601 162.83290655 -13.04922789 168.93004073 -16.55566406 175.03613281 C-21.58646324 183.79037872 -26.65666778 192.51991658 -31.76907349 201.22665405 C-32.85600252 203.07791918 -33.94216688 204.9296307 -35.02807617 206.78149414 C-40.47440113 216.06854925 -40.47440113 216.06854925 -42.92089844 220.22070312 C-44.4909829 222.88583488 -46.05527973 225.55427472 -47.61816406 228.22363281 C-48.06901367 228.98474365 -48.51986328 229.74585449 -48.984375 230.5300293 C-49.59200684 231.57139038 -49.59200684 231.57139038 -50.21191406 232.63378906 C-50.55931641 233.22426025 -50.90671875 233.81473145 -51.26464844 234.4230957 C-54.30003846 240.60414306 -54.13857235 248.89545069 -52.05566406 255.34863281 C-49.36676551 261.54202001 -44.31993661 267.38665562 -38.11816406 270.16113281 C-34.45289703 271.05524508 -31.02940963 271.29437546 -27.26251221 271.31503296 C-26.09066376 271.32363342 -24.91881531 271.33223389 -23.7114563 271.34109497 C-22.43446869 271.34535492 -21.15748108 271.34961487 -19.84179688 271.35400391 C-18.47636714 271.36191207 -17.11093945 271.37018146 -15.74551392 271.37878418 C-11.27079236 271.40491816 -6.79606185 271.42030158 -2.32128906 271.43457031 C-0.77710719 271.43993324 0.76707464 271.44531075 2.31125641 271.45070267 C8.7366238 271.47231731 15.16198876 271.4910525 21.58738327 271.50232506 C30.77733411 271.51855755 39.9668618 271.5517342 49.15665317 271.60872591 C55.62902789 271.64748938 62.10128972 271.6669652 68.57377744 271.67224562 C72.43459863 271.67588988 76.2949676 271.68781193 80.15566254 271.72034836 C83.79036034 271.75054325 87.42433496 271.75670095 91.05913162 271.7449646 C93.01716154 271.74464061 94.9751476 271.76902902 96.93301392 271.79434204 C105.73289248 271.73247076 111.80151522 270.07796823 118.22167969 263.91503906 C124.04699612 255.92481286 126.34601155 249.15058904 124.88183594 239.16113281 C123.10592382 234.17106988 120.55011768 229.71253708 117.88183594 225.16113281 C117.42583008 224.37480469 116.96982422 223.58847656 116.5 222.77832031 C113.83207698 218.18970321 111.12955663 213.62274159 108.40527344 209.06738281 C104.87586606 203.16478703 101.40388805 197.22987592 97.94433594 191.28613281 C97.06986816 189.78530151 97.06986816 189.78530151 96.17773438 188.25415039 C94.99650652 186.22670131 93.81551675 184.19911348 92.63476562 182.17138672 C89.78127464 177.27117171 86.925545 172.37226387 84.06933594 167.47363281 C83.50907715 166.51191162 82.94881836 165.55019043 82.37158203 164.55932617 C79.01439592 158.80085215 75.64169521 153.05180031 72.25683594 147.30957031 C71.08014268 145.31099063 69.90364851 143.31229386 68.72720337 141.31356812 C67.95967535 140.01105035 67.19111184 138.70914217 66.42147827 137.40786743 C65.3471666 135.59140847 64.27629228 133.77296301 63.20605469 131.95410156 C62.58819092 130.90762451 61.97032715 129.86114746 61.33374023 128.78295898 C59.07240817 124.69948076 58.74085848 121.64260351 58.67651367 117.03735352 C58.64659584 115.14573235 58.64659584 115.14573235 58.61607361 113.21589661 C58.5990906 111.83957034 58.58221175 110.46324279 58.56542969 109.08691406 C58.54485397 107.67872007 58.52385733 106.27053216 58.50245667 104.86235046 C58.44729972 101.15852801 58.3978624 97.4546504 58.34960938 93.75073242 C58.29934773 89.97016509 58.2437382 86.1896767 58.18847656 82.40917969 C58.08046732 74.9932246 57.98139502 67.57722548 57.88183594 60.16113281 C43.36183594 60.16113281 28.84183594 60.16113281 13.88183594 60.16113281 Z " fill="#072C76" transform="translate(284.1181640625,257.8388671875)"/>
<path d="M0 0 C1.56923218 0.91954468 1.56923218 0.91954468 3.17016602 1.85766602 C3.74328522 2.18873856 4.31640442 2.5198111 4.90689087 2.86091614 C6.75360323 3.93193185 8.58884198 5.02101891 10.42407227 6.11157227 C11.68775444 6.85113564 12.95199802 7.58974057 14.21679688 8.32739258 C16.69501393 9.77578625 19.16848302 11.23179045 21.63793945 12.69506836 C24.43457559 14.34784851 27.24067262 15.98079522 30.05688477 17.59985352 C40.53488501 23.69063955 40.53488501 23.69063955 42.98657227 27.67407227 C43.37425232 30.13352966 43.37425232 30.13352966 43.390625 32.9140625 C43.40965126 34.48105141 43.40965126 34.48105141 43.42906189 36.07969666 C43.42612625 37.20267654 43.42319061 38.32565643 43.42016602 39.48266602 C43.42540787 40.64153824 43.43064972 41.80041046 43.43605042 42.99440002 C43.44247257 45.44466348 43.44113116 47.89495776 43.43261719 50.34521484 C43.42411199 54.09406467 43.45286094 57.8413888 43.48461914 61.59008789 C43.48623134 63.97094681 43.48565326 66.35180843 43.48266602 68.73266602 C43.49389999 69.85362167 43.50513397 70.97457733 43.51670837 72.12950134 C43.44768981 79.83857538 43.44768981 79.83857538 41.32006836 83.69360352 C38.71316908 85.90611314 36.13553162 87.62351745 33.15454102 89.30297852 C32.0259668 89.94557617 30.89739258 90.58817383 29.73461914 91.25024414 C28.54791355 91.91261044 27.36106351 92.57471801 26.17407227 93.23657227 C24.99840682 93.90164263 23.82327142 94.56765088 22.64868164 95.23461914 C20.41199555 96.50126835 18.17237839 97.76275995 15.92944336 99.01831055 C13.53248397 100.36692334 11.1572406 101.7437455 8.78735352 103.13891602 C5.98657227 104.67407227 5.98657227 104.67407227 3.98657227 104.67407227 C3.98657227 118.20407227 3.98657227 131.73407227 3.98657227 145.67407227 C5.63657227 146.33407227 7.28657227 146.99407227 8.98657227 147.67407227 C12.78978656 149.66135059 16.50549776 151.8048978 20.23657227 153.92407227 C21.2355957 154.48481445 22.23461914 155.04555664 23.26391602 155.62329102 C39.89498724 165.03669473 39.89498724 165.03669473 42.98657227 169.67407227 C43.2539978 172.01327515 43.2539978 172.01327515 43.27709961 174.80053711 C43.28985931 175.84527191 43.30261902 176.89000671 43.31576538 177.96640015 C43.31799103 179.09454132 43.32021667 180.2226825 43.32250977 181.38500977 C43.33249496 183.12544052 43.33249496 183.12544052 43.34268188 184.90103149 C43.35281412 187.35726331 43.35749873 189.81352269 43.35717773 192.26977539 C43.36154706 196.02739885 43.39785226 199.7838445 43.43579102 203.54125977 C43.44165976 205.92667241 43.44562876 208.31209064 43.44750977 210.69750977 C43.4618808 211.82160248 43.47625183 212.94569519 43.49105835 214.10385132 C43.4457408 221.84454832 43.4457408 221.84454832 41.30908203 225.70458984 C38.76726738 227.86004225 36.27583112 229.53433563 33.36547852 231.16235352 C32.27098389 231.78287598 31.17648926 232.40339844 30.04882812 233.04272461 C28.88244849 233.69104394 27.71585955 234.33898687 26.54907227 234.98657227 C24.18485311 236.31464506 21.82391021 237.64848369 19.46313477 238.98266602 C18.33681641 239.6180127 17.21049805 240.25335938 16.05004883 240.90795898 C12.41756479 243.00210861 8.9268154 245.24595596 5.42407227 247.54907227 C0.58767649 250.5173044 -3.27335597 252.59110404 -9.01342773 251.67407227 C-11.38330078 250.58862305 -11.38330078 250.58862305 -13.96264648 249.11938477 C-14.92944336 248.57362793 -15.89624023 248.02787109 -16.89233398 247.46557617 C-17.92229492 246.87437988 -18.95225586 246.28318359 -20.01342773 245.67407227 C-21.06916992 245.07900879 -22.12491211 244.48394531 -23.21264648 243.87084961 C-26.55028665 241.98597693 -29.87644211 240.08203793 -33.20092773 238.17407227 C-34.88605469 237.21694336 -34.88605469 237.21694336 -36.60522461 236.24047852 C-52.91278227 226.87536319 -52.91278227 226.87536319 -55.01342773 222.67407227 C-55.12913008 221.00586372 -55.18297681 219.33318631 -55.20629883 217.66113281 C-55.22236176 216.61632248 -55.23842468 215.57151215 -55.25497437 214.49504089 C-55.29936579 209.71463621 -55.34048654 204.9343711 -55.36352539 200.15380859 C-55.3800923 197.63092835 -55.40739157 195.10809518 -55.44555664 192.58544922 C-55.50025963 188.95198157 -55.52219023 185.31961473 -55.53686523 181.68579102 C-55.55953461 180.55856125 -55.58220398 179.43133148 -55.6055603 178.26994324 C-55.58440292 170.44354487 -55.58440292 170.44354487 -52.71069336 166.57080078 C-51.8205957 165.94488037 -50.93049805 165.31895996 -50.01342773 164.67407227 C-49.38968262 164.23095703 -48.7659375 163.7878418 -48.12329102 163.33129883 C-47.23746338 162.82808105 -47.23746338 162.82808105 -46.33374023 162.31469727 C-45.32162476 161.73051025 -45.32162476 161.73051025 -44.2890625 161.13452148 C-43.57935303 160.73507324 -42.86964355 160.335625 -42.13842773 159.92407227 C-40.62882884 159.05772813 -39.11972474 158.19052131 -37.61108398 157.32250977 C-36.84940918 156.88648438 -36.08773437 156.45045898 -35.30297852 156.0012207 C-33.06285008 154.70272015 -30.84564664 153.37284352 -28.63452148 152.02563477 C-27.6085083 151.40060059 -27.6085083 151.40060059 -26.56176758 150.76293945 C-25.25956891 149.96695571 -23.9590476 149.16821994 -22.66040039 148.36645508 C-18.23300795 145.67407227 -18.23300795 145.67407227 -16.01342773 145.67407227 C-16.01342773 132.14407227 -16.01342773 118.61407227 -16.01342773 104.67407227 C-17.99342773 104.01407227 -19.97342773 103.35407227 -22.01342773 102.67407227 C-24.04882812 101.65600586 -24.04882812 101.65600586 -25.86108398 100.57250977 C-26.88371338 99.96656982 -26.88371338 99.96656982 -27.92700195 99.34838867 C-28.99072021 98.70522705 -28.99072021 98.70522705 -30.07592773 98.04907227 C-30.81601074 97.60611816 -31.55609375 97.16316406 -32.31860352 96.70678711 C-33.8270637 95.80210053 -35.33391366 94.89472348 -36.83911133 93.98461914 C-38.85494417 92.76959661 -40.87954786 91.5710591 -42.90795898 90.37719727 C-44.06850477 89.68514174 -45.22868443 88.99247174 -46.38842773 88.29907227 C-47.40678711 87.69321289 -48.42514648 87.08735352 -49.47436523 86.46313477 C-52.18250838 84.55493544 -53.45379321 83.58867166 -55.01342773 80.67407227 C-55.23916282 77.54190517 -54.95396612 74.46067594 -54.71655273 71.33422852 C-52.84907186 52.17862623 -52.84907186 52.17862623 -58.14379883 34.47583008 C-63.42699202 29.91564049 -69.43361203 27.67729292 -76.0480957 25.68725586 C-80.73306121 24.08651431 -85.08945606 21.70166387 -89.01342773 18.67407227 C-89.01342773 18.01407227 -89.01342773 17.35407227 -89.01342773 16.67407227 C-87.51733398 15.45532227 -87.51733398 15.45532227 -85.57592773 14.17407227 C-82.78810927 12.38753597 -82.78810927 12.38753597 -81.01342773 9.67407227 C-80.78720692 7.97043405 -80.604543 6.26078526 -80.45092773 4.54907227 C-80.36713867 3.63899414 -80.28334961 2.72891602 -80.19702148 1.79125977 C-80.13643555 1.09258789 -80.07584961 0.39391602 -80.01342773 -0.32592773 C-71.06333954 4.33801924 -62.27425296 9.18801494 -53.65039062 14.43530273 C-52.97226318 14.84280762 -52.29413574 15.2503125 -51.59545898 15.67016602 C-50.99967041 16.03295654 -50.40388184 16.39574707 -49.79003906 16.76953125 C-47.81395831 17.77562981 -46.2169857 18.38222802 -44.01342773 18.67407227 C-42.11405875 18.06960237 -42.11405875 18.06960237 -40.28295898 16.93579102 C-39.57042969 16.53215332 -38.85790039 16.12851563 -38.1237793 15.71264648 C-37.36548828 15.26679199 -36.60719727 14.8209375 -35.82592773 14.36157227 C-35.03798828 13.91313965 -34.25004883 13.46470703 -33.43823242 13.00268555 C-29.33955529 10.65790271 -25.28807525 8.24259895 -21.25952148 5.77954102 C-20.50372803 5.32168213 -19.74793457 4.86382324 -18.96923828 4.39208984 C-17.52926699 3.51535691 -16.0966782 2.62634854 -14.67285156 1.72363281 C-14.01696045 1.32313721 -13.36106934 0.9226416 -12.68530273 0.51000977 C-12.11908203 0.15471191 -11.55286133 -0.20058594 -10.96948242 -0.56665039 C-6.96605962 -2.12065001 -3.87813539 -1.70640471 0 0 Z " fill="#062B76" transform="translate(449.013427734375,162.325927734375)"/>
<path d="M0 0 C2.7980957 1.21826172 2.7980957 1.21826172 5.67578125 2.9296875 C7.27764282 3.86880981 7.27764282 3.86880981 8.91186523 4.8269043 C10.03407471 5.50277588 11.15628418 6.17864746 12.3125 6.875 C13.47599001 7.56466224 14.64013883 8.25321422 15.80493164 8.94067383 C18.12458521 10.31167288 20.44007801 11.68933836 22.75292969 13.07177734 C25.61425871 14.77093348 28.49019821 16.436919 31.3828125 18.08203125 C32.16358154 18.52885254 32.94435059 18.97567383 33.7487793 19.43603516 C35.16664421 20.24674074 36.58722732 21.0527182 38.01098633 21.85302734 C41.48207304 23.86479697 43.91733289 25.56030956 46 29 C46.38768005 31.4594574 46.38768005 31.4594574 46.40405273 34.23999023 C46.41673691 35.28464951 46.42942108 36.32930878 46.44248962 37.40562439 C46.43955399 38.52860428 46.43661835 39.65158417 46.43359375 40.80859375 C46.4388356 41.96746597 46.44407745 43.1263382 46.44947815 44.32032776 C46.4559003 46.77059122 46.45455889 49.2208855 46.44604492 51.67114258 C46.43753972 55.4199924 46.46628867 59.16731653 46.49804688 62.91601562 C46.49965908 65.29687454 46.499081 67.67773616 46.49609375 70.05859375 C46.50732773 71.17954941 46.51856171 72.30050507 46.53013611 73.45542908 C46.46107982 81.16871597 46.46107982 81.16871597 44.3203125 85.02832031 C41.77997805 87.1869631 39.29005666 88.85981708 36.37890625 90.48828125 C35.28392822 91.10880371 34.1889502 91.72932617 33.06079102 92.36865234 C31.8947554 93.01671204 30.72865738 93.66465945 29.5625 94.3125 C27.78918241 95.31203233 26.01794714 96.31517977 24.24693298 97.31878662 C22.52888764 98.2922261 20.80937753 99.26307892 19.08984375 100.23388672 C14.38499078 102.92311763 9.79552473 105.77368304 5.22265625 108.6796875 C1.09286672 111.13288409 -2.26408473 111.31646169 -7 111 C-9.92749023 109.78173828 -9.92749023 109.78173828 -12.80859375 108.0703125 C-13.87843506 107.44423096 -14.94827637 106.81814941 -16.05053711 106.1730957 C-17.16823486 105.49722412 -18.28593262 104.82135254 -19.4375 104.125 C-20.59907709 103.43540733 -21.7612723 102.74685481 -22.92407227 102.05932617 C-26.29477859 100.05938613 -29.64759264 98.03046881 -33 96 C-34.71874013 94.97263973 -36.43748896 93.94529402 -38.15625 92.91796875 C-39.58467965 92.05169528 -41.01188498 91.1833977 -42.4375 90.3125 C-43.07421631 89.92787598 -43.71093262 89.54325195 -44.36694336 89.14697266 C-47.64124153 87.10082112 -49.98273315 85.29781842 -52 82 C-52.38768005 79.5405426 -52.38768005 79.5405426 -52.40405273 76.76000977 C-52.41673691 75.71535049 -52.42942108 74.67069122 -52.44248962 73.59437561 C-52.43955399 72.47139572 -52.43661835 71.34841583 -52.43359375 70.19140625 C-52.4388356 69.03253403 -52.44407745 67.8736618 -52.44947815 66.67967224 C-52.4559003 64.22940878 -52.45455889 61.7791145 -52.44604492 59.32885742 C-52.43753972 55.5800076 -52.46628867 51.83268347 -52.49804688 48.08398438 C-52.49965908 45.70312546 -52.499081 43.32226384 -52.49609375 40.94140625 C-52.50732773 39.82045059 -52.51856171 38.69949493 -52.53013611 37.54457092 C-52.46102454 29.82510962 -52.46102454 29.82510962 -50.29785156 25.95361328 C-47.87002455 23.88949601 -45.54212557 22.31746987 -42.73828125 20.80078125 C-41.70936768 20.23568848 -40.6804541 19.6705957 -39.62036133 19.08837891 C-38.52876709 18.50233887 -37.43717285 17.91629883 -36.3125 17.3125 C-34.05103762 16.07873775 -31.79062437 14.8430506 -29.53125 13.60546875 C-28.42136719 12.99880371 -27.31148437 12.39213867 -26.16796875 11.76708984 C-23.33439376 10.18652451 -20.55031218 8.55360838 -17.78125 6.86328125 C-16.63402466 6.16368286 -16.63402466 6.16368286 -15.46362305 5.44995117 C-14.07064354 4.59196686 -12.68361343 3.72421572 -11.30395508 2.8449707 C-7.26966808 0.37552348 -4.6930845 -0.43195056 0 0 Z " fill="#062B75" transform="translate(200,303)"/>
<path d="M0 0 C3.01342773 1.32592773 3.01342773 1.32592773 6.18359375 3.18359375 C7.04327255 3.68020256 7.04327255 3.68020256 7.9203186 4.18684387 C9.76703096 5.25785959 11.60226972 6.34694665 13.4375 7.4375 C14.70118217 8.17706338 15.96542575 8.91566831 17.23022461 9.65332031 C19.70844167 11.10171398 22.18191075 12.55771818 24.65136719 14.02099609 C27.44800333 15.67377625 30.25410036 17.30672296 33.0703125 18.92578125 C43.54831275 25.01656728 43.54831275 25.01656728 46 29 C46.38768005 31.4594574 46.38768005 31.4594574 46.40405273 34.23999023 C46.41673691 35.28464951 46.42942108 36.32930878 46.44248962 37.40562439 C46.43955399 38.52860428 46.43661835 39.65158417 46.43359375 40.80859375 C46.4388356 41.96746597 46.44407745 43.1263382 46.44947815 44.32032776 C46.4559003 46.77059122 46.45455889 49.2208855 46.44604492 51.67114258 C46.43753972 55.4199924 46.46628867 59.16731653 46.49804688 62.91601562 C46.49965908 65.29687454 46.499081 67.67773616 46.49609375 70.05859375 C46.50732773 71.17954941 46.51856171 72.30050507 46.53013611 73.45542908 C46.46107982 81.16871597 46.46107982 81.16871597 44.3203125 85.02832031 C41.77997805 87.1869631 39.29005666 88.85981708 36.37890625 90.48828125 C35.28441162 91.10880371 34.18991699 91.72932617 33.06225586 92.36865234 C31.89587622 93.01697168 30.72928729 93.6649146 29.5625 94.3125 C27.19828084 95.64057279 24.83733795 96.97441142 22.4765625 98.30859375 C21.35024414 98.94394043 20.22392578 99.57928711 19.06347656 100.23388672 C15.43099253 102.32803634 11.94024314 104.57188369 8.4375 106.875 C3.60110422 109.84323213 -0.25992823 111.91703177 -6 111 C-8.36987305 109.91455078 -8.36987305 109.91455078 -10.94921875 108.4453125 C-11.91601562 107.89955566 -12.8828125 107.35379883 -13.87890625 106.79150391 C-14.90886719 106.20030762 -15.93882812 105.60911133 -17 105 C-18.05574219 104.40493652 -19.11148438 103.80987305 -20.19921875 103.19677734 C-23.53685892 101.31190466 -26.86301438 99.40796566 -30.1875 97.5 C-31.31091797 96.86191406 -32.43433594 96.22382813 -33.59179688 95.56640625 C-49.89935454 86.20129093 -49.89935454 86.20129093 -52 82 C-52.11570235 80.33179145 -52.16954908 78.65911404 -52.19287109 76.98706055 C-52.20893402 75.94225021 -52.22499695 74.89743988 -52.24154663 73.82096863 C-52.28593806 69.04056394 -52.3270588 64.26029884 -52.35009766 59.47973633 C-52.36666456 56.95685608 -52.39396384 54.43402291 -52.43212891 51.91137695 C-52.48683189 48.2779093 -52.50876249 44.64554247 -52.5234375 41.01171875 C-52.54610687 39.88448898 -52.56877625 38.75725922 -52.59213257 37.59587097 C-52.57096474 29.76560772 -52.57096474 29.76560772 -49.67749023 25.88574219 C-48.35213257 24.9522998 -48.35213257 24.9522998 -47 24 C-46.13507935 23.37460327 -46.13507935 23.37460327 -45.25268555 22.73657227 C-44.7194165 22.43291748 -44.18614746 22.1292627 -43.63671875 21.81640625 C-43.00870361 21.45272949 -42.38068848 21.08905273 -41.73364258 20.71435547 C-40.720802 20.14418701 -40.720802 20.14418701 -39.6875 19.5625 C-38.18449101 18.70253007 -36.68191345 17.8418058 -35.1796875 16.98046875 C-34.36081055 16.51302246 -33.54193359 16.04557617 -32.69824219 15.56396484 C-29.69611383 13.8238604 -26.72674554 12.03440873 -23.7578125 10.23828125 C-22.15740112 9.2790979 -22.15740112 9.2790979 -20.5246582 8.30053711 C-18.41078258 7.03336853 -16.30235488 5.75705963 -14.19995117 4.47094727 C-13.2226001 3.89014404 -12.24524902 3.30934082 -11.23828125 2.7109375 C-10.37243408 2.18806152 -9.50658691 1.66518555 -8.61450195 1.12646484 C-5.4257887 -0.2474004 -3.4473493 -0.41516761 0 0 Z " fill="#062B75" transform="translate(446,303)"/>
<path d="M0 0 C0.8048584 0.46825195 1.6097168 0.93650391 2.43896484 1.41894531 C3.8142334 2.20700562 3.8142334 2.20700562 5.21728516 3.01098633 C6.18504883 3.58389404 7.1528125 4.15680176 8.14990234 4.74707031 C9.65568848 5.62093384 9.65568848 5.62093384 11.19189453 6.51245117 C13.27502729 7.72542906 15.35443027 8.94483356 17.43017578 10.17041016 C20.40389163 11.92564382 23.38881402 13.66022593 26.37646484 15.39160156 C28.17680287 16.44612622 29.97632152 17.50205138 31.77490234 18.55957031 C33.03294678 19.29095215 33.03294678 19.29095215 34.31640625 20.03710938 C35.09161621 20.49956055 35.86682617 20.96201172 36.66552734 21.43847656 C37.34131836 21.83752197 38.01710938 22.23656738 38.71337891 22.64770508 C41.62546438 24.81685554 43.33788252 26.81060924 43.9125824 30.45652771 C43.92068687 31.83289146 43.92068687 31.83289146 43.92895508 33.23706055 C43.94163925 34.28171982 43.95432343 35.32637909 43.96739197 36.4026947 C43.96445633 37.52567459 43.96152069 38.64865448 43.95849609 39.80566406 C43.96373795 40.96453629 43.9689798 42.12340851 43.97438049 43.31739807 C43.98080265 45.76766153 43.97946124 48.21795581 43.97094727 50.66821289 C43.96244206 54.41706272 43.99119101 58.16438684 44.02294922 61.91308594 C44.02456142 64.29394486 44.02398334 66.67480647 44.02099609 69.05566406 C44.03223007 70.17661972 44.04346405 71.29757538 44.05503845 72.45249939 C43.98606248 80.15681572 43.98606248 80.15681572 41.87036133 84.01171875 C39.20257579 86.26990882 36.55594515 87.99952839 33.50146484 89.70410156 C32.91883881 90.03319016 32.33621277 90.36227875 31.7359314 90.70133972 C29.87923424 91.74724149 28.01496462 92.77867398 26.14990234 93.80957031 C24.93712071 94.48894211 23.72487645 95.16927414 22.51318359 95.85058594 C20.6949262 96.87277165 18.87543521 97.89217134 17.050354 98.90213013 C13.89999786 100.64713561 10.78270114 102.42969322 7.69970703 104.29150391 C7.07663666 104.66288986 6.45356628 105.03427582 5.81161499 105.41691589 C4.08872849 106.44725829 2.37368464 107.49068221 0.65917969 108.53491211 C-2.80385574 110.15043783 -4.70587037 110.4942662 -8.47509766 109.99707031 C-11.18139648 108.87060547 -11.18139648 108.87060547 -13.93212891 107.28613281 C-14.9547583 106.70532959 -15.9773877 106.12452637 -17.03100586 105.52612305 C-18.10568115 104.89778564 -19.18035645 104.26944824 -20.28759766 103.62207031 C-21.39385498 102.98664307 -22.5001123 102.35121582 -23.63989258 101.6965332 C-25.87338178 100.41092846 -28.10365267 99.11971527 -30.33056641 97.82275391 C-33.12755477 96.19885026 -35.93718216 94.60156263 -38.75634766 93.01660156 C-40.26724864 92.15677497 -41.77770222 91.29616147 -43.28759766 90.43457031 C-43.96733643 90.05445801 -44.6470752 89.6743457 -45.34741211 89.28271484 C-49.35800876 86.953049 -52.11487644 85.00230372 -54.47509766 80.99707031 C-55.07528638 77.02992243 -55.035365 73.09680144 -55.00634766 69.09082031 C-55.01017456 67.93336304 -55.01400146 66.77590576 -55.01794434 65.58337402 C-55.02066325 63.13906992 -55.01330364 60.6947367 -54.99658203 58.25048828 C-54.975174 54.51040744 -54.9963864 50.7722477 -55.02197266 47.03222656 C-55.01932938 44.65592024 -55.01420441 42.27961512 -55.00634766 39.90332031 C-55.01444458 38.78550171 -55.0225415 37.66768311 -55.03088379 36.51599121 C-54.93790271 28.81282035 -54.93790271 28.81282035 -52.73901367 24.93701172 C-50.47276609 22.99507241 -48.34025614 21.48108562 -45.72119141 20.05175781 C-44.79298584 19.53701904 -43.86478027 19.02228027 -42.90844727 18.49194336 C-41.91981689 17.95738525 -40.93118652 17.42282715 -39.91259766 16.87207031 C-37.8389073 15.73154882 -35.76600292 14.58959722 -33.69384766 13.44628906 C-32.65357422 12.87442871 -31.61330078 12.30256836 -30.54150391 11.71337891 C-27.64380548 10.09149834 -24.78895825 8.41622635 -21.94384766 6.70410156 C-21.09250244 6.19443848 -20.24115723 5.68477539 -19.36401367 5.15966797 C-17.7674834 4.19898319 -16.17647849 3.22903607 -14.59204102 2.24853516 C-13.87153564 1.81879395 -13.15103027 1.38905273 -12.40869141 0.94628906 C-11.79050537 0.56819092 -11.17231934 0.19009277 -10.53540039 -0.19946289 C-6.83034408 -1.64434265 -3.66146012 -1.4836534 0 0 Z " fill="#072B75" transform="translate(325.47509765625,91.0029296875)"/>
<path d="M0 0 C4.25190672 0.72454016 8.46259148 1.56498974 12.671875 2.50048828 C14.24752863 2.83855323 15.8287753 3.15137219 17.4140625 3.44091797 C31.30775375 6.04598508 31.30775375 6.04598508 35.62207031 10.77978516 C38.55526994 15.12377319 40.62671428 19.87305843 42.8046875 24.625 C49.59604767 38.11894439 62.02474138 51.72322608 74.09375 60.5625 C76 62 76 62 78.375 64.4375 C90.15651283 75.93850062 105.73832909 83.31867476 120.76953125 89.58984375 C124 91 124 91 127 93 C124.37305665 94.31347168 122.42789254 94.12889062 119.48492432 94.13371277 C117.72683441 94.14011024 117.72683441 94.14011024 115.93322754 94.14663696 C113.99449768 94.14595718 113.99449768 94.14595718 112.01660156 94.14526367 C110.64674793 94.14825467 109.27689513 94.15165706 107.90704346 94.15544128 C104.17960068 94.16429377 100.45218085 94.16661998 96.72472858 94.16725707 C93.61356035 94.16820568 90.50239747 94.17188362 87.3912313 94.17542917 C80.04890405 94.18357926 72.70658906 94.18601298 65.36425781 94.18530273 C57.79236936 94.18470249 50.22055228 94.19524234 42.64868188 94.2110464 C36.14838585 94.22413002 29.64811311 94.22948625 23.14780402 94.22884732 C19.26540353 94.22859248 15.38306638 94.23143576 11.50067902 94.24202538 C7.84650005 94.25171962 4.19244478 94.25177647 0.53826141 94.24450874 C-1.43820292 94.24296735 -3.41466727 94.25130131 -5.39111328 94.25994873 C-6.57445251 94.25575424 -7.75779175 94.25155975 -8.97698975 94.24723816 C-10.51340937 94.24805531 -10.51340937 94.24805531 -12.08086777 94.24888897 C-18.62506002 93.69092272 -24.22720157 91.08968968 -28.640625 86.171875 C-33.80212341 79.60725081 -35.20453544 74.25576687 -35.36328125 65.9765625 C-34.29283436 57.20580415 -29.23963843 50.0210465 -24.75 42.625 C-23.31324651 40.23496339 -21.88137095 37.84201459 -20.44921875 35.44921875 C-20.08372421 34.8399202 -19.71822968 34.23062164 -19.34165955 33.6028595 C-15.34107495 26.92389 -11.44555921 20.1852636 -7.5625 13.4375 C-6.91829102 12.32004395 -6.27408203 11.20258789 -5.61035156 10.05126953 C-2.70648651 5.07914532 -2.70648651 5.07914532 0 0 Z " fill="#92B1F3" transform="translate(266,435)"/>
<path d="M0 0 C2.19333708 2.82284226 4.07230494 5.70437802 5.86328125 8.796875 C6.4137915 9.7441748 6.96430176 10.69147461 7.53149414 11.66748047 C8.11922607 12.68471191 8.70695801 13.70194336 9.3125 14.75 C10.5675209 16.9141712 11.82273498 19.07823039 13.078125 21.2421875 C14.04588867 22.9123291 14.04588867 22.9123291 15.03320312 24.61621094 C16.96525461 27.94022206 18.90985295 31.25652247 20.859375 34.5703125 C21.48030029 35.62766602 22.10122559 36.68501953 22.7409668 37.77441406 C23.92245011 39.78551688 25.10607816 41.79536183 26.29223633 43.80371094 C37.58142794 63.0630217 37.58142794 63.0630217 36 74 C34.08839345 80.87751182 30.06327339 86.98076213 24.3125 91.25390625 C17.06721471 93.59148985 10.04193956 89.52235438 3.6875 86.375 C2.29047852 85.6934082 2.29047852 85.6934082 0.86523438 84.99804688 C-12.70069038 78.28628424 -25.36423113 69.83043353 -36 59 C-37.21830435 57.94564965 -38.44688986 56.903011 -39.6875 55.875 C-53.99080222 43.36630686 -63.98067821 27.5397305 -73 11 C-69.39115223 9.841481 -66.14919603 9.98946844 -62.3828125 10.1484375 C-46.0375382 10.63872583 -32.81353232 9.77291055 -17.35400391 3.82910156 C-11.75288297 1.85633588 -5.84525063 0.95599893 0 0 Z " fill="#D1DBFC" transform="translate(373,435)"/>
<path d="M0 0 C2.89628834 1.42024264 5.62944182 3.05967415 8.375 4.75 C9.45007813 5.39582031 9.45007813 5.39582031 10.546875 6.0546875 C11.99261381 6.9263062 13.42619028 7.81841539 14.84692383 8.73022461 C16.96106567 10.05916276 16.96106567 10.05916276 19.28393555 10.86547852 C21.87665569 11.97342172 23.23582766 12.77814144 25 15 C26.08169372 19.7519216 26.19351697 24.28909289 26.09790039 29.14672852 C26.06258968 31.43169657 26.11783066 33.70222712 26.18164062 35.98632812 C26.26225612 46.42883731 26.26225612 46.42883731 23.26416016 50.16064453 C20.91785697 51.74461839 18.58974046 52.86222124 16 54 C14.36725139 54.99997886 12.74730321 56.0211495 11.140625 57.0625 C9.5122603 58.04472959 7.88204448 59.02389684 6.25 60 C5.42628906 60.51433594 4.60257813 61.02867187 3.75390625 61.55859375 C2.95339844 62.03425781 2.15289062 62.50992188 1.328125 63 C0.6155957 63.433125 -0.09693359 63.86625 -0.83105469 64.3125 C-3.88724624 65.28123429 -5.18232412 64.4368086 -8 63 C-11.9486961 60.92860062 -15.81059151 58.70240889 -19.6875 56.5 C-20.74517578 55.90574219 -21.80285156 55.31148438 -22.89257812 54.69921875 C-23.90126953 54.12816406 -24.90996094 53.55710937 -25.94921875 52.96875 C-26.87049561 52.44732422 -27.79177246 51.92589844 -28.7409668 51.38867188 C-31 50 -31 50 -33 48 C-34.47253704 38.14211818 -36.71623514 21.70951668 -31.71240234 12.67529297 C-28.39555708 9.40194731 -24.41520705 7.99788382 -20.01416016 6.6875 C-16.79555613 5.58888316 -14.26674367 3.75404485 -11.4375 1.875 C-7.12434667 -0.87807659 -4.94940086 -1.51822112 0 0 Z " fill="#FAC950" transform="translate(201,327)"/>
<path d="M0 0 C8.20076806 3.33493565 16.38977996 6.99740856 22.02392578 14.03320312 C24.2721478 19.48324696 24.27264744 25.2856711 24.14892578 31.09570312 C24.14358826 31.83288574 24.13825073 32.57006836 24.13275146 33.32958984 C23.88740433 44.85802628 23.88740433 44.85802628 20.19360352 49.16967773 C17.87610653 50.75030869 15.58295101 51.89012197 13.02392578 53.03320312 C11.47953919 53.95409471 9.94416158 54.89027343 8.41845703 55.84179688 C6.89336317 56.72200877 5.36601598 57.59832815 3.83642578 58.47070312 C3.06878906 58.92896484 2.30115234 59.38722656 1.51025391 59.859375 C0.75808594 60.28669922 0.00591797 60.71402344 -0.76904297 61.15429688 C-1.76713989 61.73328735 -1.76713989 61.73328735 -2.78540039 62.32397461 C-6.86391064 63.64438833 -10.0912132 62.45978009 -13.84448242 60.65039062 C-15.29600708 59.78800781 -15.29600708 59.78800781 -16.77685547 58.90820312 C-17.83582031 58.28429687 -18.89478516 57.66039062 -19.98583984 57.01757812 C-21.07574219 56.36273438 -22.16564453 55.70789063 -23.28857422 55.03320312 C-24.3978125 54.37835938 -25.50705078 53.72351563 -26.64990234 53.04882812 C-34.77941068 48.22986666 -34.77941068 48.22986666 -35.97607422 47.03320312 C-36.46088301 42.46156729 -36.63244009 37.89200296 -36.765625 33.2980957 C-36.82217312 31.75788636 -36.90385502 30.21837623 -37.01171875 28.6809082 C-37.36609419 23.53246628 -37.39889291 19.02732622 -35.97607422 14.03320312 C-32.13492708 10.20876117 -27.89224676 8.20996387 -22.97607422 6.03320312 C-21.58545844 5.20551931 -20.20745589 4.35543797 -18.85498047 3.46679688 C-17.76056641 2.80808594 -16.66615234 2.149375 -15.53857422 1.47070312 C-14.42611328 0.78878906 -13.31365234 0.106875 -12.16748047 -0.59570312 C-7.64177231 -2.54004041 -4.58897852 -1.49075922 0 0 Z " fill="#FA8E02" transform="translate(326.97607421875,114.966796875)"/>
<path d="M0 0 C2.89879682 1.41497998 5.62958292 3.05976101 8.375 4.75 C9.45007813 5.39582031 9.45007813 5.39582031 10.546875 6.0546875 C11.99261381 6.9263062 13.42619028 7.81841539 14.84692383 8.73022461 C16.96106567 10.05916276 16.96106567 10.05916276 19.28393555 10.86547852 C21.87665569 11.97342172 23.23582766 12.77814144 25 15 C26.08169372 19.7519216 26.19351697 24.28909289 26.09790039 29.14672852 C26.06258968 31.43169657 26.11783066 33.70222712 26.18164062 35.98632812 C26.26225612 46.42883731 26.26225612 46.42883731 23.26416016 50.16064453 C20.91785697 51.74461839 18.58974046 52.86222124 16 54 C14.36725139 54.99997886 12.74730321 56.0211495 11.140625 57.0625 C9.5122603 58.04472959 7.88204448 59.02389684 6.25 60 C5.42628906 60.51433594 4.60257812 61.02867187 3.75390625 61.55859375 C2.95339844 62.03425781 2.15289062 62.50992188 1.328125 63 C0.6155957 63.433125 -0.09693359 63.86625 -0.83105469 64.3125 C-3.89521356 65.28375972 -5.17548597 64.4487901 -8 63 C-9.91878091 61.95779793 -11.81883121 60.88067609 -13.703125 59.77734375 C-15.29640625 58.84631836 -15.29640625 58.84631836 -16.921875 57.89648438 C-18.02015625 57.25001953 -19.1184375 56.60355469 -20.25 55.9375 C-21.36375 55.28716797 -22.4775 54.63683594 -23.625 53.96679688 C-31.85688973 49.14311027 -31.85688973 49.14311027 -33 48 C-36.51002987 20.67318782 -36.51002987 20.67318782 -31.48828125 12.55664062 C-27.61562569 9.01783468 -23.06271803 7.30258163 -18.11572266 5.73828125 C-15.18871549 4.71690233 -12.8403963 3.08319234 -10.3125 1.3125 C-6.50524501 -1.26975156 -4.43163029 -1.28214033 0 0 Z " fill="#FA7C9F" transform="translate(447,327)"/>
<path d="M0 0 C2.89628834 1.42024264 5.62944182 3.05967415 8.375 4.75 C9.45007813 5.39582031 9.45007813 5.39582031 10.546875 6.0546875 C11.99277689 6.92640452 13.42666959 7.81834955 14.84790039 8.72973633 C16.96056704 10.05760852 16.96056704 10.05760852 19.27514648 10.86987305 C21.85462295 11.97965116 23.22636975 12.80116175 25 15 C26.17354754 19.71269823 26.36107791 24.19600988 26.31762695 29.03686523 C26.31251992 31.3036581 26.41890376 33.54702446 26.53320312 35.81054688 C26.62546199 40.20842259 26.35348285 43.78061656 25 48 C21.13692687 51.77794225 16.89498591 53.8095974 12 56 C10.60991793 56.82857987 9.23209072 57.67884524 7.87890625 58.56640625 C6.78449219 59.22511719 5.69007813 59.88382813 4.5625 60.5625 C3.45003906 61.24441406 2.33757812 61.92632812 1.19140625 62.62890625 C-2.6128209 64.26328046 -4.03314686 63.97946613 -8 63 C-10.8684082 61.6171875 -10.8684082 61.6171875 -13.80078125 59.875 C-14.85974609 59.25109375 -15.91871094 58.6271875 -17.00976562 57.984375 C-18.09966797 57.32953125 -19.18957031 56.6746875 -20.3125 56 C-21.42173828 55.34515625 -22.53097656 54.6903125 -23.67382812 54.015625 C-31.80333647 49.19666353 -31.80333647 49.19666353 -33 48 C-36.1888982 20.78806866 -36.1888982 20.78806866 -31.71679688 12.67089844 C-28.40032044 9.39988026 -24.41339242 7.99734352 -20.01416016 6.6875 C-16.79555613 5.58888316 -14.26674367 3.75404485 -11.4375 1.875 C-7.12434667 -0.87807659 -4.94940086 -1.51822112 0 0 Z " fill="#AFD752" transform="translate(201,185)"/>
<path d="M0 0 C16.82022559 7.62970506 16.82022559 7.62970506 19.70581055 14.62481689 C21.06609245 19.65360331 21.18062251 24.66353569 21.0703125 29.84375 C21.06497498 30.58093262 21.05963745 31.31811523 21.05413818 32.07763672 C20.80879105 43.60607316 20.80879105 43.60607316 17.11499023 47.91772461 C14.79749325 49.49835556 12.50433773 50.63816885 9.9453125 51.78125 C8.40092591 52.70214158 6.8655483 53.6383203 5.33984375 54.58984375 C3.81474988 55.47005564 2.2874027 56.34637503 0.7578125 57.21875 C-0.00982422 57.67701172 -0.77746094 58.13527344 -1.56835938 58.60742188 C-2.32052734 59.03474609 -3.07269531 59.46207031 -3.84765625 59.90234375 C-4.84575317 60.48133423 -4.84575317 60.48133423 -5.86401367 61.07202148 C-9.94252392 62.3924352 -13.16982648 61.20782697 -16.9230957 59.3984375 C-18.37462036 58.53605469 -18.37462036 58.53605469 -19.85546875 57.65625 C-20.91443359 57.03234375 -21.97339844 56.4084375 -23.06445312 55.765625 C-24.15435547 55.11078125 -25.24425781 54.4559375 -26.3671875 53.78125 C-27.47642578 53.12640625 -28.58566406 52.4715625 -29.72851562 51.796875 C-37.85802397 46.97791353 -37.85802397 46.97791353 -39.0546875 45.78125 C-42.56471737 18.45443782 -42.56471737 18.45443782 -37.54296875 10.33789062 C-33.67031319 6.79908468 -29.11740553 5.08383163 -24.17041016 3.51953125 C-21.24340299 2.49815233 -18.8950838 0.86444234 -16.3671875 -0.90625 C-10.87620666 -4.63048015 -5.76653709 -2.34502793 0 0 Z " fill="#CFDAFB" transform="translate(453.0546875,187.21875)"/>
<path d="M0 0 C24.09 0 48.18 0 73 0 C73 6.27 73 12.54 73 19 C48.91 19 24.82 19 0 19 C0 12.73 0 6.46 0 0 Z " fill="#92B1F3" transform="translate(284,278)"/>
<path d="M0 0 C8.18449119 4.26498959 16.27829723 8.66011684 24.25 13.3125 C24.97630615 13.73257324 25.7026123 14.15264648 26.45092773 14.58544922 C27.47295288 15.18703857 27.47295288 15.18703857 28.515625 15.80078125 C29.11665039 16.15309814 29.71767578 16.50541504 30.33691406 16.8684082 C32.11704254 18.07963772 33.52720293 19.43494279 35 21 C34.43410156 21.33773437 33.86820312 21.67546875 33.28515625 22.0234375 C32.55167969 22.46945313 31.81820312 22.91546875 31.0625 23.375 C30.33160156 23.81585938 29.60070312 24.25671875 28.84765625 24.7109375 C26.86227728 25.8773984 26.86227728 25.8773984 26 28 C25.77377919 29.70363822 25.59111527 31.41328701 25.4375 33.125 C25.35371094 34.03507812 25.26992188 34.94515625 25.18359375 35.8828125 C25.09271484 36.93082031 25.09271484 36.93082031 25 38 C16.81330409 34.21753923 9.02970539 29.79889541 1.25 25.25 C0.24888184 24.67096924 -0.75223633 24.09193848 -1.78369141 23.49536133 C-2.71616699 22.94517334 -3.64864258 22.39498535 -4.609375 21.828125 C-5.45467773 21.3321582 -6.29998047 20.83619141 -7.17089844 20.32519531 C-7.77450195 19.88788086 -8.37810547 19.45056641 -9 19 C-9 18.34 -9 17.68 -9 17 C-7.50390625 15.78125 -7.50390625 15.78125 -5.5625 14.5 C-2.77468153 12.7134637 -2.77468153 12.7134637 -1 10 C-0.77377919 8.29636178 -0.59111527 6.58671299 -0.4375 4.875 C-0.35371094 3.96492187 -0.26992188 3.05484375 -0.18359375 2.1171875 C-0.12300781 1.41851562 -0.06242187 0.71984375 0 0 Z " fill="#6865F5" transform="translate(369,162)"/>
<path d="M0 0 C0.01417969 0.66386719 0.02835937 1.32773438 0.04296875 2.01171875 C0.35429744 7.96228239 0.35429744 7.96228239 3.375 13 C5.20508127 14.39434763 7.08566893 15.72377928 9 17 C9 17.66 9 18.32 9 19 C5.12344166 21.22582818 1.24563681 23.44946451 -2.63330078 25.67114258 C-3.95069676 26.42608572 -5.26775971 27.18161033 -6.58447266 27.93774414 C-8.48511344 29.02906589 -10.38697109 30.11824024 -12.2890625 31.20703125 C-14.00150146 32.18893433 -14.00150146 32.18893433 -15.74853516 33.19067383 C-18.79360694 34.8851495 -21.87039999 36.46836132 -25 38 C-25.01417969 37.33613281 -25.02835938 36.67226562 -25.04296875 35.98828125 C-25.34766167 30.07692517 -25.34766167 30.07692517 -28.3125 25.0625 C-30.53100894 23.35992337 -32.76112682 21.6755746 -35 20 C-31.28338802 17.79387248 -27.56633049 15.58849808 -23.84887695 13.38378906 C-22.58703858 12.63529278 -21.32531742 11.88659885 -20.0637207 11.13769531 C-18.23941112 10.05480478 -16.41466651 8.97265047 -14.58984375 7.890625 C-12.94810181 6.91657715 -12.94810181 6.91657715 -11.27319336 5.92285156 C-1.19095988 0 -1.19095988 0 0 0 Z " fill="#6865F5" transform="translate(271,162)"/>
<path d="M0 0 C3.465 1.485 3.465 1.485 7 3 C12.57528672 3.69691084 14.32259453 2.43317377 20 0 C20 12.87 20 25.74 20 39 C15 37 15 37 13 36 C8.272765 35.57980133 5.91003176 36.39331216 2 39 C1.34 39 0.68 39 0 39 C0 26.13 0 13.26 0 0 Z " fill="#6763F6" transform="translate(433,268)"/>
<path d="M0 0 C3.465 1.485 3.465 1.485 7 3 C12.57528672 3.69691084 14.32259453 2.43317377 20 0 C20 12.87 20 25.74 20 39 C15 37 15 37 13 36 C8.272765 35.57980133 5.91003176 36.39331216 2 39 C1.34 39 0.68 39 0 39 C0 26.13 0 13.26 0 0 Z " fill="#6763F6" transform="translate(187,268)"/>
<path d="M0 0 C0.33 0 0.66 0 1 0 C1.15855469 0.81339844 1.31710937 1.62679688 1.48046875 2.46484375 C4.11945368 15.42648795 7.40626425 27.98382692 13 40 C13 40.99 13 41.98 13 43 C7.8841266 41.97682532 3.05149047 40.72362852 -1.875 39 C-7.51506531 37.05714974 -13.10821305 35.88144844 -19 35 C-17.76091793 30.94767703 -16.28411344 27.47613855 -14.1015625 23.84765625 C-13.53953125 22.90599609 -12.9775 21.96433594 -12.3984375 20.99414062 C-11.81320312 20.02669922 -11.22796875 19.05925781 -10.625 18.0625 C-9.4709607 16.13695451 -8.31730611 14.2111784 -7.1640625 12.28515625 C-6.62040039 11.38039551 -6.07673828 10.47563477 -5.51660156 9.54345703 C-3.63389842 6.3860196 -1.80750349 3.20097292 0 0 Z " fill="#D0DAFB" transform="translate(286,401)"/>
<path d="M0 0 C0.01417969 0.66386719 0.02835937 1.32773437 0.04296875 2.01171875 C0.35429744 7.96228239 0.35429744 7.96228239 3.375 13 C5.20508127 14.39434763 7.08566893 15.72377928 9 17 C9 17.66 9 18.32 9 19 C6.98046875 20.42041016 6.98046875 20.42041016 4.1875 22.0390625 C3.19492187 22.61914062 2.20234375 23.19921875 1.1796875 23.796875 C0.13039063 24.40015625 -0.91890625 25.0034375 -2 25.625 C-3.04929687 26.23601562 -4.09859375 26.84703125 -5.1796875 27.4765625 C-7.78268858 28.99103586 -10.38951889 30.49846843 -13 32 C-16.1588324 28.28907079 -18.48595492 24.49789353 -20.75 20.1875 C-21.36359375 19.02605469 -21.9771875 17.86460937 -22.609375 16.66796875 C-23.06828125 15.78753906 -23.5271875 14.90710938 -24 14 C-18.65335029 10.26583195 -13.1578255 6.86135145 -7.5 3.625 C-6.87657715 3.26728516 -6.2531543 2.90957031 -5.61083984 2.54101562 C-1.12938977 0 -1.12938977 0 0 0 Z " fill="#6865F5" transform="translate(394,375)"/>
<path d="M0 0 C8.05729945 4.57431698 16.08340363 9.18437456 24 14 C22.73252511 16.25195063 21.46117132 18.50155747 20.1875 20.75 C19.83107422 21.38421875 19.47464844 22.0184375 19.10742188 22.671875 C17.24751265 25.94804537 15.36160916 29.04985101 13 32 C10.27061722 30.39620082 7.54153281 28.7918946 4.8125 27.1875 C4.04357422 26.73568359 3.27464844 26.28386719 2.48242188 25.81835938 C0.98904695 24.94028056 -0.50302475 24.05998074 -1.99365234 23.17724609 C-3.66629406 22.19580555 -5.35653623 21.24443885 -7.05078125 20.30078125 C-7.69402344 19.87152344 -8.33726562 19.44226563 -9 19 C-9 18.34 -9 17.68 -9 17 C-7.50390625 15.78125 -7.50390625 15.78125 -5.5625 14.5 C-2.77468153 12.7134637 -2.77468153 12.7134637 -1 10 C-0.77377919 8.29636178 -0.59111527 6.58671299 -0.4375 4.875 C-0.35371094 3.96492188 -0.26992187 3.05484375 -0.18359375 2.1171875 C-0.12300781 1.41851562 -0.06242188 0.71984375 0 0 Z " fill="#6865F5" transform="translate(246,375)"/>
<path d="M0 0 C2.8100346 1.79363911 4.50940468 3.01880935 6 6 C6.37712577 10.99691647 6.09290612 13.99067725 3 18 C-0.66523155 20.4434877 -3.73970357 20.84707648 -8 20 C-10.9375 17.5625 -10.9375 17.5625 -13 15 C-13.33 14.67 -13.66 14.34 -14 14 C-14.58968059 6.92383292 -14.58968059 6.92383292 -12.125 3.0625 C-8.49059499 -0.46501074 -4.90782663 -0.7051475 0 0 Z " fill="#6966F6" transform="translate(284,467)"/>
<path d="M0 0 C3.34139976 0.02999461 4.22721051 0.29795352 7.1875 2.1875 C10.32180405 5.41678296 10.63788997 7.7618388 10.61328125 12.2734375 C10.00965397 15.661539 7.8344052 17.23236899 5.25 19.3125 C4.92 19.6425 4.59 19.9725 4.25 20.3125 C1.31771337 20.60572866 -0.89491883 20.81254247 -3.75 20.3125 C-6.6875 17.875 -6.6875 17.875 -8.75 15.3125 C-9.08 14.9825 -9.41 14.6525 -9.75 14.3125 C-10.04322866 11.38021337 -10.25004247 9.16758117 -9.75 6.3125 C-7.3125 3.375 -7.3125 3.375 -4.75 1.3125 C-3.75 0.3125 -3.75 0.3125 0 0 Z " fill="#6966F7" transform="translate(332.75,492.6875)"/>
<path d="M0 0 C3.0625 1.9375 3.0625 1.9375 5 5 C5.69005003 8.15369971 5.73568899 10.8519355 5 14 C2.5625 17 2.5625 17 0 19 C-0.33 19.33 -0.66 19.66 -1 20 C-5.43946252 20.52228971 -7.51823656 20.29441099 -11.375 17.9375 C-14.51996441 14.41813506 -15.0822804 12.68998307 -15 8 C-12.11715652 0.36046479 -7.6980495 -1.2672796 0 0 Z " fill="#6A67F7" transform="translate(370,467)"/>
</svg>
